<svg width="120" height="120" viewBox="0 0 120 120" fill="none" xmlns="http://www.w3.org/2000/svg">
<path d="M59.3555 42.3281L61.793 42.75L62.0273 42.7852L62.2266 42.8906L64.582 44.0977L64.6875 44.1445L64.7812 44.2148L66.7852 45.6914L69.082 46.7578L71.4609 47.7422L71.6133 47.8125L71.7539 47.8945L73.8164 49.3359L76.1016 50.4023L76.1836 50.4375L76.2539 50.4844L78.375 51.7617L80.7539 52.7227L80.9766 52.8047L81.1523 52.957L83.0977 54.5273L85.3242 55.5469L85.3594 55.5586L85.3945 55.582L87.7148 56.8008L90.0469 57.9961H90.0586L92.4258 59.1914L92.4492 59.2031L94.7812 60.4453L94.8633 60.4922L94.9453 60.5508L96.3945 61.5908L96.4053 61.1182L96.3506 58.5117L96.3496 58.4795L94.3789 56.5H97.3789L98.7383 55.1172L100.414 53.1953L100.473 53.125L100.531 53.0664L102.488 51.2852L103.238 50.6055L104.152 51.0508L106.133 52L106.367 52.1172L106.555 52.3047L108.395 54.1914L108.477 54.2734L110.176 56.3008L110.844 57.0977L110.493 57.7236L110.913 58.1602L111.28 58.543L111.326 59.0723L111.553 61.7119L111.558 61.7676V61.8232L111.588 64.4629V64.4893L111.571 67.0957L111.692 69.6904L111.759 71.1143L110.341 71.2529L107.746 71.5068L107.666 71.5146H107.586L105.588 71.4951L105.75 72.9609L105.762 73.1133L105.75 73.2656L105.48 75.8672L105.492 75.8789L105.281 78.293L105.727 80.7773L105.762 80.9648L105.75 81.1641L105.527 83.7773L105.352 86.3203L105.527 88.8633V88.8984L105.633 91.5352V91.6172L105.598 94.1484L105.762 96.7852L105.773 96.9727L105.738 97.1602L105.281 99.5391L105.633 101.941L105.656 102.07V102.211L105.562 104.859L105.703 107.355V107.508L105.691 107.648L105.316 110.168L105.41 112.664V114.244L105.664 114.242H105.816L105.969 114.266L108.406 114.746L110.809 114.5L110.891 114.488H110.973L112.016 114.5L112.004 116L111.98 117.5L110.984 117.488L108.477 117.746L108.254 117.77L108.031 117.734L105.57 117.242L103.375 117.252L102.621 117.598L102.223 117.785L101.789 117.727L101.05 117.617L100.648 117.688L100.496 117.711L100.332 117.699L97.6953 117.594H97.625L97.5547 117.582L96.4414 117.424L94.1484 117.445L94.0654 117.455L92.7617 117.711L92.5273 117.758L92.293 117.734L92.0283 117.7L91.6172 117.75L91.3945 117.773L91.1836 117.738L89.3125 117.408L88.1465 117.413L86.3789 117.68L86.168 117.715L85.9453 117.68L84.625 117.487L84.6055 117.488H84.5938L81.957 117.547H81.9336L79.3672 117.559L79.3789 117.57L78.8604 117.604L78.4805 117.668L78.293 117.691L78.0938 117.68L77.9531 117.665L76.7422 117.746L76.5547 117.758L74.833 117.435L72.9844 117.469H72.9023L72.3652 117.449L71.5391 117.547L71.4102 117.559H71.2812L68.7266 117.418L66.1719 117.582H66.043L65.9141 117.57L64.5967 117.422L62.625 117.738L62.4492 117.762L62.2734 117.75L60.3643 117.588L58.25 117.711L58.0977 117.723L57.957 117.699L56.1387 117.447L54.7148 117.68L54.5273 117.715L54.3281 117.691L51.7852 117.434L49.3008 117.609L49.2188 117.621L49.125 117.609L46.4883 117.48V117.469L43.9336 117.445L42.8789 117.474L42.4531 117.512L42.418 117.523H42.3711L39.7344 117.617H39.6172L36.9805 117.512V117.5L34.7695 117.489L33.4688 117.586L33.4336 117.598H33.3867L30.7734 117.633L28.1484 117.762H28.0664L27.9844 117.75L25.3477 117.598V117.586L22.793 117.574H22.7227L22.4727 117.562L21.3242 117.664L21.1836 117.676L21.0312 117.664L19.1406 117.453L17.5312 117.469H17.4727L15.6299 117.402L13.3789 117.559H13.3672L13.3555 117.57L10.707 117.688L10.6133 117.699L10.5312 117.688L7.98828 117.5L8 117.277V114.5H8.21094L10.6719 114.699L13.1797 114.582V114.57L13.5283 114.547L13.6875 113.168L13.6758 110.602H13.6875L13.5586 108.094L13.3242 105.457L13.3125 105.387V102.598L13.3242 102.504L13.6055 100.031L13.2891 97.5938L13.2656 97.4297L13.2773 97.2773L13.5 94.6289L13.4648 92.2266L13.2773 89.5898V89.4141L13.3945 86.7656L13.4062 86.7539V86.7422L13.5703 84.2227L13.5352 81.5859V81.5625L13.5234 78.9375L13.5 76.418L13.2539 73.7812L13.2422 73.6406L13.2539 73.4883L13.4639 71.4131L11.7363 71.4785L11.3545 71.4932L11.0127 71.3232L9.12012 70.3838L8.27148 69.9619L8.28711 69.0156L8.33105 66.375L8.34668 63.751V63.7393L8.34766 63.7266L8.40527 61.1182L8.35059 58.5117L8.34961 58.4795L6.37891 56.5H9.37891L10.7383 55.1172L12.4141 53.1953L12.4727 53.125L12.5312 53.0664L14.4883 51.2852L15.2383 50.6055L16.1523 51.0508L18.1328 52L18.3672 52.1172L18.5547 52.3047L20.3945 54.1914L20.4766 54.2734L22.1758 56.3008L22.8438 57.0977L22.4932 57.7236L22.9131 58.1602L23.2803 58.543L23.3262 59.0723L23.5469 61.6543L23.6836 61.5938L25.8984 60.2695L28.125 58.875L28.1953 58.8281L30.5156 57.5625L30.5977 57.5156L30.668 57.4922L32.9648 56.5547L35.0859 55.1719L35.1328 55.1484L35.1914 55.1133L37.5 53.8359H37.5117L37.5234 53.8242L39.8555 52.582L42.0469 51.2578L42.1172 51.2227L42.1992 51.1875L44.6016 50.0859L46.8633 48.8906L46.8867 48.8789H46.9102L49.1719 47.7656L51.3867 46.4648L53.6016 45.0117L53.6719 44.9648L53.7422 44.9297L56.0625 43.7227L58.3945 42.4805L58.8516 42.2461L59.3555 42.3281ZM57.4805 46.3711L57.4688 46.3828H57.457L55.1836 47.5547L53.0391 48.9727L53.0039 48.9961L52.9805 49.0195L50.6953 50.3555L50.6484 50.3906L50.5898 50.4141L48.2227 51.5742L48.2109 51.5625L45.9258 52.7812L45.8906 52.8047L45.8438 52.8164L43.5 53.8828L41.332 55.1953L41.2969 55.2188L41.2617 55.2305L38.9414 56.4492L36.6445 57.7383L34.5234 59.1328L34.3945 59.2148L34.2656 59.2734L31.9219 60.2109L29.7188 61.418L27.4805 62.8242H27.4688L27.457 62.8359L25.1953 64.207L25.1133 64.2539L25.0195 64.2891L23.585 64.9258L23.5713 67.0957L23.6924 69.6904L23.7588 71.1143L22.3408 71.2529L19.7461 71.5068L19.666 71.5146H19.5859L16.9453 71.4893L16.8984 71.4873L16.4658 71.4688L16.2539 73.6406L16.4883 76.1367V76.1953L16.5 76.2656L16.5234 78.9023V78.9141L16.5352 81.5391L16.5703 84.1758L16.582 84.2344L16.5703 84.3047L16.3945 86.9414L16.2773 89.5547L16.4648 92.0156V92.0977L16.5 94.7461V94.8164L16.4883 94.8867L16.2773 97.3828L16.6055 99.8438L16.6289 100.031L16.6055 100.207L16.3125 102.75V105.188L16.5469 107.824V107.859L16.5586 107.883L16.6758 110.531V110.59L16.6875 113.238V113.32L16.6758 113.414L16.5615 114.392L18.5469 114.383L18.6406 114.371L18.7227 114.383L19.3135 114.448L20.1445 114.445H20.2383L22.502 114.556L23.7148 114.453L23.7617 114.441H23.8203L26.4688 114.418H26.4922L29.0469 114.43L31.6953 114.312L31.7773 114.301L31.8594 114.312L34.5078 114.488L34.4961 114.5H34.541L35.8945 114.398H36.082L38.6953 114.539L41.2383 114.516L42.8584 114.472L44.832 114.289H44.9844L47.6211 114.336L47.6094 114.348H50.2695L52.8711 114.406L55.4844 114.348H55.6133L55.7305 114.359L56.1484 114.42L56.8828 114.305L57.0703 114.27L57.2578 114.281L59.8945 114.539H59.8828L60.3867 114.579L60.7109 114.559V114.57L63.2891 114.289L63.4414 114.277L63.6055 114.289L64.5615 114.401L64.8164 114.363L64.9102 114.352H65.0039L67.6406 114.281H67.7344L70.3711 114.375H70.3828L72.3604 114.437L73.8242 114.266L74.0586 114.23L74.2812 114.277L75.0908 114.428L75.5742 114.422H75.75L78.0381 114.652L78.4277 114.628L80.6367 114.27L80.7773 114.246H80.918L83.5547 114.316L83.6484 114.328L83.7305 114.34L84.7432 114.481L87.1602 114.418H87.1953L87.9219 114.414L88.582 114.316L88.8164 114.281L89.0508 114.328L89.5205 114.407L89.832 114.406H89.9375L90.0312 114.418L92.0068 114.679L93.625 114.5L94.8359 114.266L95.082 114.219L95.3164 114.254L96.5615 114.423L96.7031 114.422L99.3164 114.352H99.4453L99.5742 114.375L101.047 114.577L102.41 114.343V112.77L102.328 110.133L102.316 110.004L102.34 109.863L102.691 107.355L102.562 104.883V104.742L102.645 102.27L102.27 99.7383L102.234 99.4922L102.281 99.2344L102.75 96.7734L102.598 94.3359V94.2188L102.633 91.6641L102.527 89.0625L102.352 86.4258V86.2148L102.539 83.5781V83.5547L102.738 81.1289L102.305 78.668L102.27 78.4688L102.281 78.2812L102.504 75.6328V75.6094L102.738 73.1367L102.551 71.3906L102.314 71.3818L99.7363 71.4785L99.3545 71.4932L99.0127 71.3232L97.1201 70.3838L96.2715 69.9619L96.2871 69.0156L96.3311 66.375L96.3398 64.8857L95.8945 64.7812L95.6016 64.7109L95.3555 64.5469L93.293 63.0469L91.043 61.8516V61.8398L88.7109 60.6797L88.6992 60.668L86.3555 59.4727L86.3438 59.4609L84.0703 58.2656L81.668 57.1758L81.4922 57.0938L81.3516 56.9766L79.4531 55.4297L77.1797 54.5273L77.0625 54.4805L76.957 54.4219L74.7656 53.0859L72.4453 52.0078L72.3281 51.9492L72.2227 51.8789L70.1719 50.4492L67.875 49.5117L67.8047 49.4883L65.4141 48.3633L65.2734 48.3047L65.1562 48.2109L63.1289 46.7227L61.043 45.6562L59.3438 45.375L57.4805 46.3711ZM32.6494 97.4541L33.4785 99.3076L33.6074 99.5957L33.6094 99.9121L33.623 102.553V102.639L33.6133 102.725L33.3379 105.216L33.5527 107.712L33.6787 109.188L32.2041 109.333L29.666 109.581L29.5879 109.588H29.5107L26.8701 109.571L26.0176 109.565L25.5859 108.83L24.5117 106.999L24.2773 106.6L24.3096 106.138L24.4863 103.55L24.5107 100.945L24.5127 100.898L24.6084 98.5586L24.5947 98.5234L24.6104 98.5137L24.6201 98.2588L24.9844 98.2734L26.0947 97.5605L26.1426 96.5723L28.6396 96.6924L31.208 96.5684L32.2305 96.5195L32.6494 97.4541ZM52.6494 97.4541L53.4785 99.3076L53.6074 99.5957L53.6094 99.9121L53.623 102.553V102.639L53.6133 102.725L53.3379 105.216L53.5527 107.712L53.6787 109.188L52.2041 109.333L49.666 109.581L49.5879 109.588H49.5107L46.8701 109.571L46.0176 109.565L45.5859 108.83L44.5117 106.999L44.2773 106.6L44.3096 106.138L44.4863 103.55L44.5107 100.945L44.5127 100.898L44.6084 98.5586L44.5947 98.5234L44.6104 98.5137L44.6201 98.2588L44.9844 98.2734L46.0947 97.5605L46.1426 96.5723L48.6396 96.6924L51.208 96.5684L52.2305 96.5195L52.6494 97.4541ZM72.6494 97.4541L73.4785 99.3076L73.6074 99.5957L73.6094 99.9121L73.623 102.553V102.639L73.6133 102.725L73.3379 105.216L73.5527 107.712L73.6787 109.188L72.2041 109.333L69.666 109.581L69.5879 109.588H69.5107L66.8701 109.571L66.0176 109.565L65.5859 108.83L64.5117 106.999L64.2773 106.6L64.3096 106.138L64.4863 103.55L64.5107 100.945L64.5127 100.898L64.6084 98.5586L64.5947 98.5234L64.6104 98.5137L64.6201 98.2588L64.9844 98.2734L66.0947 97.5605L66.1426 96.5723L68.6396 96.6924L71.208 96.5684L72.2305 96.5195L72.6494 97.4541ZM92.6494 97.4541L93.4785 99.3076L93.6074 99.5957L93.6094 99.9121L93.623 102.553V102.639L93.6133 102.725L93.3379 105.216L93.5527 107.712L93.6787 109.188L92.2041 109.333L89.666 109.581L89.5879 109.588H89.5107L86.8701 109.571L86.0176 109.565L85.5859 108.83L84.5117 106.999L84.2773 106.6L84.3096 106.138L84.4863 103.55L84.5107 100.945L84.5127 100.898L84.6084 98.5586L84.5947 98.5234L84.6104 98.5137L84.6201 98.2588L84.9844 98.2734L86.0947 97.5605L86.1426 96.5723L88.6396 96.6924L91.208 96.5684L92.2305 96.5195L92.6494 97.4541ZM28.7119 99.6914L28.6406 99.6953L28.5684 99.6914L27.5654 99.6436L27.5098 101.004L27.4854 103.614V103.658L27.4824 103.702L27.334 105.881L27.7412 106.576L29.4482 106.587L30.4365 106.49L30.3369 105.328L30.3242 105.182L30.3408 105.035L30.6221 102.479L30.6104 100.243L30.3291 99.6133L28.7119 99.6914ZM48.7119 99.6914L48.6406 99.6953L48.5684 99.6914L47.5654 99.6436L47.5098 101.004L47.4854 103.614V103.658L47.4824 103.702L47.334 105.881L47.7412 106.576L49.4482 106.587L50.4365 106.49L50.3369 105.328L50.3242 105.182L50.3408 105.035L50.6221 102.479L50.6104 100.243L50.3291 99.6133L48.7119 99.6914ZM68.7119 99.6914L68.6406 99.6953L68.5684 99.6914L67.5654 99.6436L67.5098 101.004L67.4854 103.614V103.658L67.4824 103.702L67.334 105.881L67.7412 106.576L69.4482 106.587L70.4365 106.49L70.3369 105.328L70.3242 105.182L70.3408 105.035L70.6221 102.479L70.6104 100.243L70.3291 99.6133L68.7119 99.6914ZM88.7119 99.6914L88.6406 99.6953L88.5684 99.6914L87.5654 99.6436L87.5098 101.004L87.4854 103.614V103.658L87.4824 103.702L87.334 105.881L87.7412 106.576L89.4482 106.587L90.4365 106.49L90.3369 105.328L90.3242 105.182L90.3408 105.035L90.6221 102.479L90.6104 100.243L90.3291 99.6133L88.7119 99.6914ZM24.2939 78.5293L24.2979 78.5303L26.6533 78.6914L29.208 78.5684V78.5693L31.8203 78.3936L32.0938 78.376L32.3564 78.4551L34.5586 79.125L35.75 79.4873L35.6133 80.7246L35.3379 83.2158L35.5527 85.7119L35.5576 85.7676V85.8232L35.5879 88.4629L35.6006 89.6279L34.4756 89.9287L32.2676 90.5205L32.1113 90.5615L31.9502 90.5693L29.3096 90.6924L29.2236 90.6963L29.1377 90.6904L26.5283 90.5127L23.9795 90.46L22.4502 90.4277L22.5127 88.8984L22.6182 86.3145L22.5234 83.7705L22.293 81.1719L22.2734 80.9541L22.3174 80.7393L22.5303 79.6992L22.8301 78.2363L24.2939 78.5293ZM44.2939 78.5293L44.2979 78.5303L46.6533 78.6914L49.208 78.5684V78.5693L51.8203 78.3936L52.0938 78.376L52.3564 78.4551L54.5586 79.125L55.75 79.4873L55.6133 80.7246L55.3379 83.2158L55.5527 85.7119L55.5576 85.7676V85.8232L55.5879 88.4629L55.6006 89.6279L54.4756 89.9287L52.2676 90.5205L52.1113 90.5615L51.9502 90.5693L49.3096 90.6924L49.2236 90.6963L49.1377 90.6904L46.5283 90.5127L43.9795 90.46L42.4502 90.4277L42.5127 88.8984L42.6182 86.3145L42.5234 83.7705L42.293 81.1719L42.2734 80.9541L42.3174 80.7393L42.5303 79.6992L42.8301 78.2363L44.2939 78.5293ZM64.2939 78.5293L64.2979 78.5303L66.6533 78.6914L69.208 78.5684V78.5693L71.8203 78.3936L72.0938 78.376L72.3564 78.4551L74.5586 79.125L75.75 79.4873L75.6133 80.7246L75.3379 83.2158L75.5527 85.7119L75.5576 85.7676V85.8232L75.5879 88.4629L75.6006 89.6279L74.4756 89.9287L72.2676 90.5205L72.1113 90.5615L71.9502 90.5693L69.3096 90.6924L69.2236 90.6963L69.1377 90.6904L66.5283 90.5127L63.9795 90.46L62.4502 90.4277L62.5127 88.8984L62.6182 86.3145L62.5234 83.7705L62.293 81.1719L62.2734 80.9541L62.3174 80.7393L62.5303 79.6992L62.8301 78.2363L64.2939 78.5293ZM84.2939 78.5293L84.2979 78.5303L86.6533 78.6914L89.208 78.5684V78.5693L91.8203 78.3936L92.0938 78.376L92.3564 78.4551L94.5586 79.125L95.75 79.4873L95.6133 80.7246L95.3379 83.2158L95.5527 85.7119L95.5576 85.7676V85.8232L95.5879 88.4629L95.6006 89.6279L94.4756 89.9287L92.2676 90.5205L92.1113 90.5615L91.9502 90.5693L89.3096 90.6924L89.2236 90.6963L89.1377 90.6904L86.5283 90.5127L83.9795 90.46L82.4502 90.4277L82.5127 88.8984L82.6182 86.3145L82.5234 83.7705L82.293 81.1719L82.2734 80.9541L82.3174 80.7393L82.5303 79.6992L82.8301 78.2363L84.2939 78.5293ZM29.3799 81.5635L29.3662 81.5645L29.3516 81.5654L26.7119 81.6914L26.625 81.6953L26.5381 81.6895L25.3428 81.6074L25.5146 83.5479L25.5176 83.5859L25.5195 83.624L25.6182 86.2637L25.6201 86.3223L25.6182 86.3818L25.5723 87.4922L26.6318 87.5146L26.667 87.5156L26.7021 87.5176L29.2627 87.6914L31.6455 87.5801L32.5742 87.332L32.5576 85.9053L32.3369 83.3281L32.3242 83.1816L32.3408 83.0352L32.4951 81.6328L31.7461 81.4053L29.3799 81.5635ZM49.3799 81.5635L49.3662 81.5645L49.3516 81.5654L46.7119 81.6914L46.625 81.6953L46.5381 81.6895L45.3428 81.6074L45.5146 83.5479L45.5176 83.5859L45.5195 83.624L45.6182 86.2637L45.6201 86.3223L45.6182 86.3818L45.5723 87.4922L46.6318 87.5146L46.667 87.5156L46.7021 87.5176L49.2627 87.6914L51.6455 87.5801L52.5742 87.332L52.5576 85.9053L52.3369 83.3281L52.3242 83.1816L52.3408 83.0352L52.4951 81.6328L51.7461 81.4053L49.3799 81.5635ZM69.3799 81.5635L69.3662 81.5645L69.3516 81.5654L66.7119 81.6914L66.625 81.6953L66.5381 81.6895L65.3428 81.6074L65.5146 83.5479L65.5176 83.5859L65.5195 83.624L65.6182 86.2637L65.6201 86.3223L65.6182 86.3818L65.5723 87.4922L66.6318 87.5146L66.667 87.5156L66.7021 87.5176L69.2627 87.6914L71.6455 87.5801L72.5742 87.332L72.5576 85.9053L72.3369 83.3281L72.3242 83.1816L72.3408 83.0352L72.4951 81.6328L71.7461 81.4053L69.3799 81.5635ZM89.3799 81.5635L89.3662 81.5645L89.3516 81.5654L86.7119 81.6914L86.625 81.6953L86.5381 81.6895L85.3428 81.6074L85.5146 83.5479L85.5176 83.5859L85.5195 83.624L85.6182 86.2637L85.6201 86.3223L85.6182 86.3818L85.5723 87.4922L86.6318 87.5146L86.667 87.5156L86.7021 87.5176L89.2627 87.6914L91.6455 87.5801L92.5742 87.332L92.5576 85.9053L92.3369 83.3281L92.3242 83.1816L92.3408 83.0352L92.4951 81.6328L91.7461 81.4053L89.3799 81.5635ZM63.2607 55.8174L64.3008 56.0303L65.7637 56.3301L65.4707 57.7939L65.4697 57.7979L65.3086 60.1533L65.4316 62.708H65.4307L65.6064 65.3203L65.624 65.5938L65.5449 65.8564L64.875 68.0586L64.5127 69.25L63.2754 69.1133L60.7842 68.8379L58.2881 69.0527L58.2324 69.0576H58.1768L55.5371 69.0879L54.3721 69.1006L54.0713 67.9756L53.4795 65.7676L53.4385 65.6113L53.4307 65.4502L53.3076 62.8096L53.3037 62.7236L53.3096 62.6377L53.4873 60.0283L53.54 57.4795L53.5723 55.9502L55.1016 56.0127L57.6855 56.1182L60.2295 56.0234L62.8281 55.793L63.0459 55.7734L63.2607 55.8174ZM15.3799 59.5635L15.3662 59.5645L15.3516 59.5654L12.7119 59.6914L12.6191 59.6963L12.5264 59.6895L11.373 59.6016L11.4043 61.0889L11.4053 61.1211L11.4043 61.1533L11.3467 63.793L11.3311 66.4092L11.3301 66.417V66.4248L11.3018 68.1172L12.0029 68.4658L14.2637 68.3818L14.3223 68.3799L14.3818 68.3818L17.0039 68.4893L19.5312 68.5137L20.6299 68.4062L20.5732 67.1895L20.5713 67.1504V67.1104L20.5879 64.4971L20.5576 61.9053L20.3818 59.8564L20.1494 59.6152L17.9102 59.6055H17.8164L16.2812 59.5029L15.3799 59.5635ZM103.38 59.5635L103.366 59.5645L103.352 59.5654L100.712 59.6914L100.619 59.6963L100.526 59.6895L99.373 59.6016L99.4043 61.0889L99.4053 61.1211L99.4043 61.1533L99.374 62.5195L100.371 62.7539L99.4453 64.4766L99.3408 64.665L99.3311 66.4092L99.3301 66.417V66.4248L99.3018 68.1172L100.003 68.4658L102.264 68.3818L102.322 68.3799L102.382 68.3818L105.004 68.4893L107.531 68.5137L108.63 68.4062L108.573 67.1895L108.571 67.1504V67.1104L108.588 64.4971L108.558 61.9053L108.382 59.8564L108.149 59.6152L105.91 59.6055H105.816L104.281 59.5029L103.38 59.5635ZM60.4521 59.0146L60.4141 59.0176L60.376 59.0195L57.7363 59.1182L57.6777 59.1201L57.6182 59.1182L56.5078 59.0723L56.4854 60.1318L56.4844 60.167L56.4824 60.2021L56.3086 62.7627L56.4199 65.1455L56.668 66.0742L58.0947 66.0576L60.6719 65.8369L60.8184 65.8242L60.9648 65.8408L62.3672 65.9951L62.5947 65.2461L62.4365 62.8799L62.4355 62.8662L62.4346 62.8516L62.3086 60.2119L62.3047 60.125L62.3105 60.0381L62.3926 58.8428L60.4521 59.0146ZM14.5586 55.293L13.6328 56.3594L15.3555 56.4297L15.3672 56.4414H15.3789L16.2314 56.5L17.8203 56.3936L17.8662 56.3906H17.9121L18.3271 56.3877L18.25 56.2891L16.5859 54.6016L15.7656 54.1914L14.5586 55.293ZM102.559 55.293L101.633 56.3594L103.355 56.4297L103.367 56.4414H103.379L104.231 56.5L105.82 56.3936L105.866 56.3906H105.912L106.327 56.3877L106.25 56.2891L104.586 54.6016L103.766 54.1914L102.559 55.293ZM63.1914 18.3984L65.2891 19.7578L67.6445 20.8125L67.6797 20.8242L70.0469 22.0078L72.4258 23.1562H72.4375L72.4492 23.168L74.7695 24.3281L77.1484 25.2305L77.1953 25.2539L77.2422 25.2656L79.6445 26.3672H79.6328L81.5898 27.2109L83.582 26.9297L85.9727 26.1094L86.2188 26.0273H86.4648L88.9375 26.0156H89.2656L89.5586 26.1562L91.9609 27.2461L91.9727 27.2578L94.3281 28.3477L96.7305 29.25L96.8711 29.2969L97 29.3789L99.1797 30.7148L101.453 31.7812L103.879 32.7422L103.891 32.7539H103.914L106.34 33.7852L106.434 33.8203L106.516 33.8789L108.695 35.1445H108.684L108.719 35.168L108.543 35.4609L108.051 36.5039L107.395 37.8516L107.312 37.8047L107.254 37.7812L107.195 37.7461L105.168 36.5508L102.766 35.5312L100.316 34.5586L100.27 34.5352L100.234 34.5234L97.8438 33.3984L97.7617 33.3633L97.6914 33.3164L95.5586 32.0156L93.2031 31.1367L93.1445 31.1133L93.0977 31.0898L90.6953 29.9766V29.9648L88.5977 29.0156H86.7109L84.4727 29.8008L84.332 29.8477L84.1914 29.8711L81.6016 30.2344L81.1797 30.293L80.793 30.1289L78.4258 29.1094H78.4141L78.3906 29.0977L75.9883 27.9961V27.9844L73.6094 27.0938L73.5391 27.0586L73.4688 27.0352L71.125 25.8516L68.7461 24.7148L68.7344 24.7031L66.4258 23.543L64.0117 22.4883L63.8008 22.3711L62.0898 21.2578L60.4961 21.6328L58.4922 22.9453L58.3516 23.0391L58.1992 23.0977L55.7734 24L53.6523 25.2422L53.582 25.2891L53.5117 25.3242L51.2148 26.3203L49.082 27.7383L48.8945 27.8672L48.6719 27.9258L46.2812 28.6055L44.1602 29.8594L44.1133 29.8828L44.0781 29.9062L42.8486 30.5391L42.7852 30.9062L42.6914 30.8828L42.457 30.8477L42.3574 30.792L41.7344 31.1133L41.7227 31.1016L39.4141 32.332L37.0703 33.5625L37.0469 33.5859L37.0234 33.5977L34.7383 34.6875L33.3438 35.3672L32.7109 33.9492L32.6758 33.8555L34.0469 33.2461L33.4375 31.9922L35.7109 30.8906L38.0078 29.6719L38.8867 29.2139L37.7461 28.8555L35.5195 28.2109L33.4805 28.4688L31.1719 29.1719L28.9805 30.3789L28.8867 30.4258L26.4844 31.5156L26.4727 31.5273L24.0469 32.5938L21.7617 33.7422L21.5977 33.8125L19.1133 34.7148L16.7812 35.7344L16.7578 35.7461L16.7461 35.7578L14.4375 36.6719L12.9023 37.75L12.1172 36.5898L12.7969 37.8086L12.7852 37.8203L11.2031 35.2773L12.8789 34.1172L13.0195 34.0234L13.1719 33.9648L15.6094 32.9688L18 31.9375L18.0469 31.9141L18.082 31.9023L20.5195 31L22.7695 29.875L22.8047 29.8516L22.8516 29.8398L25.2656 28.7852L27.5859 27.707L29.8711 26.4766L30.0117 26.4062L30.1523 26.3594L32.6953 25.5742L32.8125 25.5391L32.9414 25.5156L35.4492 25.1992L35.7656 25.1523L36.0586 25.2461L38.5781 25.9844H38.6133L41.1328 26.7812L41.2617 26.8281L41.3789 26.8867L42.3672 27.4092L42.707 27.2344L44.9219 25.9336L45.0742 25.8398L45.2617 25.7812L47.6172 25.1016L49.6562 23.7656L49.7617 23.6953L49.8789 23.6484L52.1523 22.6289L54.4258 21.3164L54.543 21.2578L54.6602 21.2109L56.9688 20.3438L59.0898 18.9844L59.3008 18.8438L59.5586 18.7852L62.0312 18.1992L62.6523 18.0586L63.1914 18.3984Z" fill="black"/>
</svg>
