<svg width="120" height="120" viewBox="0 0 120 120" fill="none" xmlns="http://www.w3.org/2000/svg">
<path d="M95.3164 114.254L97.8945 114.605L100.273 114.711L102.793 114.277L102.91 114.266H103.027L105.664 114.242H105.816L105.969 114.266L108.406 114.746L110.809 114.5L110.891 114.488H110.973L112.016 114.5L112.004 116L111.98 117.5L110.984 117.488L108.477 117.746L108.254 117.77L108.031 117.734L105.57 117.242L103.145 117.254L100.648 117.688L100.496 117.711L100.332 117.699L97.6953 117.594H97.625L97.5547 117.582L95.1523 117.242L92.7617 117.711L92.5273 117.758L92.293 117.734L89.7383 117.406L87.207 117.418L87.1953 117.406L84.6055 117.488H84.5938L81.957 117.547H81.9336L79.3672 117.559L79.3789 117.57L76.7422 117.746L76.5547 117.758L73.9297 117.266L71.5391 117.547L71.4102 117.559H71.2812L68.7266 117.418L66.1719 117.582H66.043L65.9141 117.57L63.418 117.289L60.957 117.559H60.8867L58.25 117.711L58.0977 117.723L57.957 117.699L55.4141 117.348L52.9062 117.406H52.8477L50.2109 117.348V117.336H47.5742L44.9492 117.289L42.4531 117.512L42.418 117.523H42.3711L39.7344 117.617H39.6172L36.9805 117.512V117.5L34.3906 117.488H34.3438L34.2969 117.477L31.7188 117.301L29.1875 117.43H29.1055L26.4688 117.418V117.406L23.9609 117.43L21.3242 117.664L21.1836 117.676L21.0312 117.664L18.5 117.383L15.9219 117.395V117.383L13.3789 117.559H13.3672L13.3555 117.57L10.707 117.688L10.6133 117.699L10.5312 117.688L7.98828 117.5L8 117.277V114.5H8.21094L10.6719 114.699L13.1797 114.582V114.57L15.8164 114.395H15.9102L18.5469 114.383L18.6406 114.371L18.7227 114.383L21.2305 114.664L23.7148 114.453L23.7617 114.441H23.8203L26.4688 114.418H26.4922L29.0469 114.43L31.6953 114.312L31.7773 114.301L31.8594 114.312L34.5078 114.488L34.4961 114.5L37.0508 114.512H37.0977L39.6875 114.617L42.1836 114.535L44.832 114.289H44.9844L47.6211 114.336L47.6094 114.348H50.2695L52.8711 114.406L55.4844 114.348H55.6133L55.7305 114.359L58.2148 114.723L60.7109 114.559V114.57L63.2891 114.289L63.4414 114.277L63.6055 114.289L66.0898 114.582L68.6328 114.43L68.7148 114.418L68.7969 114.43L71.3281 114.559L73.8242 114.266L74.0586 114.23L74.2812 114.277L76.7305 114.734L79.1797 114.582L79.2266 114.57H79.2617L81.8867 114.559V114.547L84.5234 114.488L87.1602 114.418H87.1953L89.832 114.406H89.9375L90.0312 114.418L92.4219 114.734L94.8359 114.266L95.082 114.219L95.3164 114.254Z" fill="black"/>
<path d="M84.3008 10.5327L86.9375 10.7788L87.0547 10.8022L89.6445 11.2476L89.7852 11.271L89.9141 11.3179L92.375 12.2319L92.4102 12.2437L92.4336 12.2554L94.8477 13.2515L95.0234 13.3335L95.1758 13.4507L97.2734 15.021L97.4141 15.1265L97.5312 15.2671L99.0664 17.1655L100.941 18.8179L100.953 18.8296L102.863 20.5405L104.926 22.1694L104.996 22.228L105.055 22.2866L106.906 24.1616L107.117 24.3726L107.234 24.6421L108.254 27.1265L108.43 27.5601L108.324 28.0288L107.75 30.5601L106.426 30.2554L106.344 30.314L105.043 31.064L104.996 30.9819L104.703 30.4663L104.832 29.8921L105.289 27.8296L104.562 26.0601L102.992 24.4663L101 22.8843L100.965 22.8608L100.93 22.8257L98.9492 21.0562V21.0444L97.0273 19.3687L96.9336 19.2866L96.8516 19.1929L95.3047 17.2944L93.5117 15.9468L91.3438 15.0444L88.9883 14.1655L86.5391 13.7554L84.1602 13.5327L81.7695 13.7554L79.4141 14.3179L77.1055 15.0679L75.0781 16.2515L73.2734 17.7515L71.7383 19.6616L71.7148 19.6968L71.6914 19.7202L70.0391 21.5483L68.9375 23.7397L67.9883 26.0952L67.9297 26.2358L67.8359 26.3647L66.3828 28.5093L65.3164 30.7593L65.2578 30.8647L65.1875 30.9702L63.6875 33.1382L62.3984 35.3413L62.3281 35.4585L62.2344 35.5757L60.5234 37.521L60.4297 37.6147L58.5547 39.3843L58.4023 39.5366L58.2148 39.6304L55.9062 40.7905L55.918 40.8022L53.6797 42.0562L51.6758 43.4858L49.625 45.1382L49.5898 45.1616L49.5664 45.1851L47.6328 46.5679L46.3672 48.6069L46.2617 48.771L46.1211 48.9116L44.2109 50.6694L42.7812 52.4741L41.7734 54.7358L41.7383 54.8179L41.6914 54.8999L40.332 57.1616L40.25 57.3022L40.1445 57.4077L38.457 59.2241L37.4023 61.4038L37.3438 61.5327L37.2617 61.6499L35.7734 63.6421L34.7539 65.9272L34.6719 66.103L34.543 66.2671L32.8672 68.271L31.5664 70.2983L30.6172 72.6304L30.5703 72.7358L30.5117 72.8296L29.1406 75.0913L29.082 75.1851L29.0117 75.2671L27.418 77.1772L26.2578 79.4038L26.2109 79.4976L26.1523 79.5796L24.6172 81.7241L23.375 83.8921L23.3398 83.939L23.3164 83.9976L21.8633 86.0835L20.6328 88.3687L20.5742 88.4624L20.5039 88.5562L18.8984 90.6655L17.5039 92.7866L16.2148 94.8726L15.043 97.2515L15.0312 97.2632L14.0117 99.2788L13.2852 100.732L11.9023 99.8882L11.7266 99.7827L12.5 98.5171L11.3398 97.9312L12.3477 95.9272L13.5195 93.5483L13.5547 93.478L13.5898 93.4194L14.9727 91.1694L14.9844 91.1577L14.9961 91.1343L16.4492 88.9312L16.4844 88.8843L16.5078 88.8491L18.0547 86.7983L19.2617 84.6069L19.2969 84.5366L19.3438 84.478L20.832 82.2983L22.0977 80.1069L22.168 79.9897L23.6445 77.9038L24.8281 75.6655L24.9102 75.5249L25.0039 75.4077L26.6094 73.4507L27.9219 71.2944L28.8711 69.0093L28.918 68.8804L29 68.7632L30.418 66.5483L30.4766 66.4663L30.5234 66.4077L32.0938 64.4976L33.1133 62.2593L33.1719 62.1187L33.2773 61.9897L34.7656 59.9624L35.8672 57.7124L35.9609 57.5132L36.1133 57.3491L37.8594 55.4507L39.0781 53.4116L40.1211 51.0796L40.2031 50.9038L40.3203 50.7515L41.9727 48.6772L42.043 48.5952L42.125 48.5249L43.9297 46.8257L45.2539 44.7397L45.4062 44.4819L45.6406 44.3179L47.7383 42.8062L49.7891 41.1538L49.8242 41.1187L49.8594 41.0952L52.0156 39.5718L52.0742 39.5249L52.1445 39.4897L54.4414 38.189L54.4766 38.1772L54.5 38.1655L56.6328 37.0522L58.2852 35.4937L59.8672 33.7241L61.1562 31.521L61.1914 31.4741L61.2266 31.4155L62.668 29.3179L63.7461 27.0796L63.793 26.9741L63.8633 26.8804L65.2812 24.771L66.207 22.4976L66.2305 22.4507L66.2539 22.3921L67.4492 20.0249L67.543 19.8491L67.6719 19.6968L69.4062 17.7749L71.0586 15.7358L71.1523 15.6187L71.2695 15.5249L73.2734 13.8491L73.3789 13.7671L73.4844 13.7085L75.7344 12.4077L75.875 12.3257L76.0273 12.2788L78.5 11.4702L78.5469 11.4585L78.6055 11.4468L81.1602 10.8257L81.2656 10.7905L81.3828 10.7788L84.0195 10.5327L84.1602 10.521L84.3008 10.5327Z" fill="black"/>
<path d="M66.4395 36.0826H66.5215L69.123 36.3287L69.2285 36.3405L69.3457 36.3639L71.9121 36.9967L72.0762 37.0319L72.2285 37.1139L74.6074 38.2975L74.7832 38.3912L74.9355 38.5319L76.9043 40.3131L78.873 41.9772L79.002 42.0826L79.1074 42.2233L80.7012 44.3326L80.7832 44.4381L80.8418 44.5436L82.0605 46.8873L82.0957 46.9576L82.1191 47.028L83.1152 49.4889L83.1973 49.6764L83.2207 49.8756L83.5371 52.5123L83.5488 52.5826V52.653L83.6074 55.2897V55.4303L83.584 55.5709L83.1621 58.1725L83.1504 58.2311L83.1387 58.278L82.5176 60.8326L82.4941 60.9264L81.709 63.4694L81.6621 63.5983L81.6035 63.7155L80.3613 66.0709L80.3145 66.1647L78.9082 68.4147L78.873 68.485L78.8262 68.5436L77.209 70.6412L77.1855 70.653L77.1738 70.6764L75.4863 72.7155L75.3691 72.8561L75.2285 72.9615L73.1895 74.4967L71.373 76.2897L71.3613 76.3014L69.4395 78.1295L69.2871 78.2819L69.0996 78.3756L66.8262 79.5709L64.752 81.0475L64.6465 81.1178L64.5527 81.1647L62.2559 82.278L60.123 83.7076L59.9121 83.8483L59.666 83.9069L57.2168 84.5162L55.0137 85.6412L54.8965 85.6881L52.459 86.6842L52.4355 86.6959L49.9863 87.6686H49.9629L47.4902 88.6061L47.4668 88.6178L47.4316 88.6295L44.9238 89.4615L44.8184 89.4967L44.7129 89.5084L42.2637 89.942L39.9434 91.0084L39.6621 91.149H39.3457L37.166 91.1725L35.3496 92.2037L33.4512 93.8795L33.4043 93.9147L33.3691 93.9498L31.2949 95.5201L31.2598 95.5436L31.2129 95.5787L29.1738 96.903L27.7793 98.8131L27.7207 98.9069L27.6504 98.9772L25.9277 100.758L24.709 102.903L24.627 103.055L24.498 103.184L22.7402 105.047L21.3926 106.993L20.3965 109.325L20.3613 109.407L20.3145 109.489L18.9902 111.762L18.8965 111.903L17.4551 113.848L17.0918 115.008L16.5762 116.614L15.041 115.922L14.9238 115.864L15.5449 114.505L14.2324 114.094L14.6895 112.688L14.7598 112.454L14.9004 112.266L16.4473 110.157L17.6777 108.047L18.6855 105.68L18.7559 105.54L18.8379 105.411L20.3496 103.243L20.4199 103.149L20.4902 103.067L22.1895 101.262L23.4199 99.1061L23.5137 98.942L23.6543 98.8014L25.4473 96.9264L26.9238 94.899L27.0879 94.6764L27.3223 94.524L29.5723 93.0592L31.5527 91.5592L33.4629 89.8717L33.5801 89.7662L33.7207 89.6959L36.0293 88.3717L36.3691 88.1842H36.7559L38.9941 88.149L41.209 87.1412L41.3848 87.0592L41.5723 87.024L44.1152 86.567L46.4824 85.7819L48.8848 84.8678L51.3223 83.9069L53.7715 82.9108L56.0098 81.774L56.1621 81.692L56.3262 81.6569L58.6699 81.0592L60.6855 79.735L60.7676 79.6764L60.8496 79.6412L63.1113 78.5162L65.1855 77.0748L65.2676 77.0162L65.3496 76.9694L67.5059 75.8209L69.2871 74.1334L71.1504 72.2936L71.2207 72.235L71.3027 72.1764L73.2832 70.6764L74.8652 68.7662L76.4473 66.7037L77.7598 64.5826L78.873 62.4381L79.623 60.0358L80.2207 57.5748L80.5957 55.2428L80.5488 52.735H80.5371L80.2676 50.4381L79.3652 48.2233L78.2402 46.0436L76.834 44.1803L74.9238 42.5748L74.9004 42.5514L74.877 42.5397L73.0723 40.8873L70.9863 39.8444L68.7246 39.3053L66.3105 39.0709L63.7793 38.9655H63.6152L63.4512 38.9186L63.3574 38.8834L63.7559 37.442L63.873 36.9967L63.9082 35.9655L66.4395 36.0826Z" fill="black"/>
<path d="M53.0645 93.1697L53.1934 93.4158L53.8613 94.7634L53.7793 94.7986L53.5566 94.9158L53.3105 94.9509L50.9785 95.2556L48.8691 96.2048L46.7363 97.5994L46.7246 97.5876L44.6621 99.0876L44.6504 99.1111L44.627 99.1228L42.5762 100.494L40.9355 102.334L40.8887 102.381L39.0605 104.267L39.0488 104.279L37.2441 106.107L35.498 108.088L35.4277 108.17L35.3457 108.24L33.3184 109.951L31.3262 111.662L31.1855 111.756L29.0176 113.244L28.9707 113.267L26.7559 114.685L26.6855 114.72L26.627 114.756L24.2598 115.963L24.0723 116.056L23.8613 116.092L21.248 116.607L21.1191 116.631L20.9902 116.642L18.3301 116.713H18.2012L18.0723 116.689L15.834 116.349L14.2988 116.127L14.5918 114.592L14.6035 114.498L16.0801 114.767L16.291 113.385L18.4121 113.701L20.7559 113.642L23.0645 113.185L25.2676 112.072L27.3184 110.76L29.4043 109.342L31.3848 107.654L33.3418 105.99L35.0176 104.115L35.0645 104.068L36.9043 102.181L38.7441 100.283L40.4668 98.3494L40.5957 98.2087L40.748 98.1033L42.9512 96.6267L45.0488 95.1267L45.0723 95.1033L45.1074 95.0798L47.3223 93.6384L47.416 93.5798L47.5215 93.533L49.9473 92.4431L50.1465 92.3494L50.3574 92.3259L52.9004 91.9744L53.0645 93.1697Z" fill="black"/>
<path d="M101.836 27.5287L104.496 27.8569L104.848 27.892L105.141 28.0912L107.297 29.5209L106.559 30.6225L106.57 30.7631L106.652 32.2631H106.559L106.055 32.2983L105.633 32.017L103.758 30.7866L101.73 30.5287L99.5273 30.9741L97.4883 31.9233L95.918 33.142L95.2734 35.0405V37.2319L95.7305 39.4936L96.5156 42.0131L96.5391 42.0834L96.5508 42.142L97.0898 44.6498L97.7812 47.2045L97.8047 47.2983L98.3203 49.8647L98.8711 52.4428V52.478L98.8828 52.5131L99.3164 55.1381L99.3516 55.3022L99.3398 55.478L99.1758 58.1264V58.2202L99.1523 58.3139L98.6602 60.9389V60.9858L98.6367 61.0327L97.9805 63.5873V63.5991L97.2891 66.1655L97.2422 66.3412L97.1484 66.517L95.8359 68.8256L94.875 71.0991L94.8633 71.1225L94.8516 71.1342L93.7266 73.5483L93.6445 73.7358L93.5039 73.8998L91.8047 75.8452L90.3867 77.9545L90.3281 78.0483L90.2461 78.1303L88.5586 79.9467L87.082 82.103L86.9414 82.3022L86.7539 82.4428L84.7617 83.9428L83.2266 85.8764L83.2031 85.9116L83.1797 85.935L81.7383 87.5405L81.5273 89.685H81.5156L81.2344 92.3217V92.4037L81.2109 92.4741L80.6484 95.0639L80.6133 95.2514L80.5312 95.4155L79.3945 97.6772L78.5977 100.138L78.457 100.548L78.1172 100.83L76.0547 102.529L75.9258 102.646L75.7734 102.716L73.4648 103.865L73.3008 103.935L70.793 104.837L70.5 104.931L70.1953 104.919L67.6641 104.779L66.0117 104.673L66.2695 103.044L66.3164 102.787L67.7812 103.009L67.8398 101.779L70.0781 101.896L72.1523 101.146L74.2734 100.103L75.8672 98.8022L76.582 96.6459L76.6172 96.5405L76.6641 96.4467L77.7539 94.2553L78.2695 91.8881L78.5391 89.3686L78.8086 86.767L78.8555 86.2866L79.1719 85.9233L80.9297 83.9428L82.5352 81.9389L82.6523 81.7866L82.793 81.6811L84.75 80.1811L86.1211 78.2123L86.1797 78.1186L86.25 78.0483L87.9492 76.185L89.3789 74.0873L89.4258 74.0053L89.4961 73.935L91.0898 72.0952L92.1328 69.8686L93.1523 67.4897L93.2227 67.3491L94.4414 65.1811L95.0742 62.8373L95.7422 60.2827L96.1875 57.8569L96.3281 55.4311L95.9297 53.0756L95.3789 50.4975V50.4741L94.8867 47.9897L94.1953 45.435L94.1719 45.3647L93.6562 42.9155L92.8594 40.3959L92.8359 40.3139L92.8242 40.2436L92.2969 37.6655L92.2734 37.5131V34.5131L92.3555 34.2905L93.2109 31.7709L93.3633 31.3491L93.7148 31.0678L95.8008 29.4389L95.9414 29.3452L96.0938 29.2631L98.4492 28.1733L98.6133 28.103L101.602 27.5053L101.836 27.5287Z" fill="black"/>
<path d="M72.5234 55.6703L72.5 55.6937L71.2227 57.8383L69.9453 60.1469L69.9336 60.1703L69.9102 60.1937L68.5273 62.4437L68.457 62.5609L66.8867 64.682L66.8281 64.7523L66.7695 64.8109L65.0703 66.6039L63.8164 68.7719L63.793 68.7953L63.7812 68.8187L62.3516 71.0453L62.2812 71.1625L62.1875 71.2679L60.3711 73.2015L60.1836 73.3656L58.0625 74.9828L57.8516 75.1351L57.6055 75.2172L55.0625 76.0258L54.9219 76.0609L54.7695 76.0844L52.1562 76.3656L51.9219 76.389L51.6875 76.3422L49.2617 75.8148L47.1172 75.7328L44.8672 76.4594L44.5859 76.5531L44.293 76.5297L41.6914 76.307H41.6445L39.0547 75.9789L36.9219 75.9203L34.4727 76.2484L34.3438 76.2601L34.2148 76.2484L31.6367 76.1429L29.1406 76.2719L28.8359 76.2836L28.5547 76.1781L27.6172 75.8383L28.1211 74.432L28.625 73.014L29.293 73.2484L31.5664 73.1429H31.707L34.2148 73.2484L36.6641 72.932L36.7812 72.9203H36.8984L39.2188 72.9906H39.2773L39.3477 73.0023L42.0078 73.3187H41.9961L44.2227 73.5062L46.4727 72.8031L46.7188 72.7211L46.9766 72.7328L49.4961 72.8265H49.625L49.7539 72.8617L52.0742 73.3422L54.3359 73.0961L56.4453 72.4281L58.2734 71.0453L59.9258 69.2758L61.2266 67.2484L62.5625 64.9633L62.6445 64.8226L62.7617 64.6937L64.5195 62.807L66.043 60.7679L67.3555 58.6234L68.6094 56.3851L68.6211 56.3617L68.6328 56.35L69.9336 54.1703L69.9453 54.1351L69.9688 54.1117L70.0156 54.0297L72.5234 55.6703Z" fill="black"/>
<path d="M35.9844 74.9582L36.5703 75.298L37.3203 75.6144L36.3711 77.9465L36.3477 77.9933L36.3359 78.0285L35.1992 80.3957L35.1641 80.4543L35.1406 80.5129L33.793 82.7863L33.6992 82.9269L32.1055 85.0363L32.0469 85.1183L31.9883 85.1769L30.2422 86.9816L28.9883 89.0676L29 89.0793L27.7227 91.2473L26.8438 93.4152L26.7383 94.5168L26.5625 96.0402L25.0391 95.8293L24.8516 95.8058L25.0508 94.3176L23.75 94.1769L23.9023 92.8527L23.9258 92.6535L24.0078 92.4543L24.9922 90.0285L25.0859 89.841L26.4102 87.5676L26.4219 87.5558L27.7695 85.2824L27.8633 85.1301L27.9805 85.0129L29.7734 83.1379L31.2383 81.1808L32.5508 78.9777L33.6289 76.7277L34.543 74.4777L34.5781 74.3723L34.6367 74.2785L34.6836 74.1965L35.9844 74.9582Z" fill="black"/>
<path d="M51.0391 54.665L51.8477 55.2626L53.0547 56.165L52.9961 56.2353L52.9492 56.3056L52.8906 56.3525L51.2383 58.1454L49.8086 60.2548L49.7969 60.2431L48.4141 62.4462L48.3906 62.4697L48.3672 62.5048L46.8203 64.6494L46.7734 64.7197L46.7266 64.7783L45.0273 66.6533L43.7734 68.7978L43.7031 68.8915L42.1914 71.0595L42.168 71.0829L40.6094 73.204L39.7188 74.5986L38.8516 75.9697L37.5625 74.997L37.4102 74.8915L38.3008 73.6962L37.1875 72.9931L38.125 71.5165L38.1602 71.4697L38.1836 71.4345L39.7539 69.3017L41.1836 67.2626L42.543 64.9892L42.6133 64.8603L42.7188 64.7548L44.418 62.8447L45.9297 60.7587L47.3125 58.5908L47.3242 58.579L47.3359 58.5556L48.8242 56.3759L48.8945 56.2822L48.9648 56.2119L50.6875 54.3251L51.0391 54.665Z" fill="black"/>
<path d="M61.2031 54.5499L62.3633 55.2413L62.4922 55.3116H62.4805L62.4922 55.3233L62.4453 55.4053L61.3555 57.5733L60.2188 59.9171L60.207 59.9522L60.1836 59.9991L58.9062 62.3077L58.8594 62.3897L58.8125 62.4483L57.2773 64.6046L57.2188 64.6983L57.1367 64.7803L55.3672 66.6319L54.0312 68.6944L53.9961 68.7413L53.9727 68.7764L52.3789 70.8858L52.3672 70.8741L50.8555 72.9131L49.8594 74.6241L49.0742 75.96L47.7617 75.128L47.5977 75.0225L48.4062 73.7569L47.2812 73.1006L48.3125 71.3428L48.4062 71.2022L49.9766 69.0928L49.9883 69.0811L51.5703 66.9717L52.9648 64.8389L53.0469 64.7217L53.1406 64.628L54.9102 62.753L56.3633 60.7139L57.5586 58.546L58.6602 56.2491L58.6719 56.2374V56.2256L59.8203 53.9639L59.9141 53.7764L61.2031 54.5499Z" fill="black"/>
<path d="M45.4102 75.1083L45.8555 75.3661L46.7695 75.6942L45.9258 78.0614L45.9023 78.1552L45.8555 78.2372L44.6836 80.5692L44.6484 80.6395L44.6133 80.6981L43.1953 82.9364L43.1719 82.9833L43.1367 83.0302L41.5547 85.1512L41.5195 85.1864L40.0547 87.0028L39.3984 89.288L39.3516 89.4403L39.2812 89.5692L39.1758 89.7567L37.8516 89.0653L36.9375 88.5731L36.5156 88.4559L36.5508 88.3622H36.5273L36.5742 88.2802L37.2539 85.9012L37.3359 85.62L37.5234 85.3856L39.1523 83.3466L40.6641 81.3309L42 79.2216L43.125 76.9716L43.9453 74.6864L43.9922 74.5575L44.0625 74.4403L44.1094 74.3583L45.4102 75.1083Z" fill="black"/>
<path d="M79.6289 87.4639L79.7695 87.6396L80.6367 88.8584L80.5547 88.917L80.2969 89.1045L79.9805 89.1631L77.7422 89.6084L75.7383 90.8623L75.6797 90.8975L75.6094 90.9326L73.6641 91.8818L72.5508 93.5811L71.5312 95.749L71.0273 98.1748L70.9922 98.3389L70.9219 98.4795L69.8203 100.894L69.1055 102.722L69.6328 104.772L70.4297 107.175L70.4414 107.233L70.4648 107.292L71.0977 109.835L71.1211 109.952L71.1328 110.069L71.1562 110.315L69.668 110.444L68.168 110.585L68.1445 110.397L67.5469 108.019V108.007L66.75 105.616L66.7383 105.569L66.7266 105.511L66.082 103.015L65.9648 102.546L66.1406 102.101L67.0547 99.7334L67.0781 99.6865L67.0898 99.6514L68.1094 97.3896L68.6367 94.9521L68.6836 94.7881L68.7539 94.6357L69.8789 92.2334L69.9258 92.1279L69.9844 92.0459L71.3906 89.8896L71.6133 89.5498L71.9766 89.374L74.25 88.249L76.3828 86.9248L76.6172 86.7842L76.8867 86.7256L79.3945 86.2217L79.6289 87.4639Z" fill="black"/>
<path d="M53.4629 85.5845L53.498 85.7134L53.5215 85.8423L53.7793 88.2564L54.4355 90.5884L55.3145 93.0494L56.2637 95.4986H56.252L57.1074 97.7017L58.5957 99.3306L60.4238 100.702L62.4043 101.405L64.6191 101.37L67.0801 101.065L68.3457 100.913L68.709 102.143V102.155L67.2676 102.553L67.4551 104.042L64.9238 104.358L64.8418 104.37H64.7598L62.1699 104.417H61.9004L61.6426 104.335L59.1934 103.456L58.9707 103.385L58.7949 103.245L56.709 101.674L56.6035 101.592L56.5098 101.487L54.7168 99.5298L54.5176 99.3189L54.4238 99.0611L53.4629 96.5767H53.4512L52.5137 94.1158V94.1041L52.502 94.0923L51.6113 91.608L51.5879 91.5494L51.5762 91.5025L50.8613 88.9478L50.8262 88.8306L50.8145 88.7134L50.5332 86.1705L51.4707 86.065L51.998 85.9127L53.4395 85.4908L53.4629 85.5845Z" fill="black"/>
<path d="M28.375 92.1491L30.9414 92.4069L30.8125 93.6374L30.8945 93.8718L31.3398 95.3015L31.2461 95.3249L30.9531 95.4186L30.6484 95.3835L28.3867 95.1608L26.2773 95.8522L24.0742 97.0358L24.0508 97.0475L24.0391 97.0593L21.6836 98.2429L21.5547 98.3132L21.4258 98.3483L18.8828 99.0866H18.8711L16.3398 99.8132L16.0469 99.8952L15.7539 99.86L13.1172 99.5319L12.7773 99.485L12.4844 99.2975L12.1797 99.0983L13 97.8444L13.3984 97.2116L13.4922 96.5554L15.8125 96.8249L18.0391 96.2038L20.4648 95.489L22.6562 94.3874L24.9883 93.1452L25.1055 93.0866L25.2344 93.0397L27.7656 92.2194L28.0703 92.1257L28.375 92.1491Z" fill="black"/>
<path d="M70.3379 109.313L72.7285 109.641L75.2129 109.371L75.3652 109.348L75.5176 109.371L78.1543 109.606L78.1426 109.617L80.7324 109.77H80.8379L80.9316 109.793L83.5215 110.309L83.8262 110.367L84.084 110.555L86.2754 112.09L86.6973 112.383L86.8496 112.875L87.623 115.36L86.3105 115.758L86.2754 115.852L85.6074 117.188L84.9512 116.86L84.7637 116.25L84.1309 114.246L82.6191 113.18L80.4277 112.746L77.9316 112.606L77.9082 112.594H77.8848L75.3418 112.36L72.9043 112.641L72.7285 112.653L72.541 112.629L70.1035 112.301L67.7246 112.582L67.6777 112.594H67.6309L64.9707 112.723L64.8535 112.735L64.748 112.723L62.2168 112.465L59.9551 112.641L58.0098 113.379L56.5684 114.891L56.0762 115.945L55.3496 117.469L53.9199 116.555L53.7324 116.449L54.541 115.195L53.3691 114.645L53.9668 113.379L54.0723 113.168L54.2363 112.992L56.0645 111.07L56.3105 110.824L56.627 110.707L59.0996 109.77L59.3105 109.688L59.5215 109.676L62.1465 109.477L62.2754 109.465L62.4043 109.477L64.877 109.723L67.4785 109.594V109.606L69.9629 109.313L70.1504 109.289L70.3379 109.313Z" fill="black"/>
<path d="M85.418 18.4429L88.0312 18.8647L88.3477 18.9233L88.6055 19.0991L90.4102 20.271L91.9336 21.2671L90.6562 22.5679L90.5742 22.6616L89.5195 21.6304L88.7695 22.7788L87.2227 21.771L85.1602 21.4312L82.7344 21.6421L80.3555 22.0874L80.1445 22.1226L79.8281 22.0874L79.9922 20.5991L80.0273 20.271L79.8281 19.1343L82.3125 18.6772L82.3828 18.6655H82.4414L85.043 18.4312L85.2305 18.4077L85.418 18.4429Z" fill="black"/>
<path d="M98.2949 18.8097L98.4824 19.3605L98.9512 20.7902L98.8574 20.8136L98.7285 20.8605L98.5996 20.8722L96.1387 21.2355L96.0684 21.2472H96.0098L93.584 21.3761L91.6855 21.9738L90.4316 23.5909L89.9863 24.1652H89.2715L86.8809 24.1886L86.7051 24.2706L86.6699 24.1886L86.6113 24.2003L86.5996 24.0363L86.1309 22.8878L85.5566 21.4933L86.0254 21.3058L86.2949 21.2003H86.5762L88.5098 21.1652L89.623 19.7589L89.9043 19.3956L90.3496 19.255L92.834 18.4816L93.0098 18.423L93.1973 18.4113L95.834 18.2472V18.2589L98.166 17.9073L98.2949 18.8097Z" fill="black"/>
</svg>
