<svg width="120" height="120" viewBox="0 0 120 120" fill="none" xmlns="http://www.w3.org/2000/svg">
<path d="M35.4307 47.6577L37.9854 48.0444L40.4346 48.0796L42.8838 47.728L43.0596 47.7046L43.2236 47.728L45.7549 47.9507L46.833 48.0562L47.0791 49.0991L47.6416 51.5015L47.6768 51.6421L47.6885 51.7944L47.7705 54.4194V54.5483L47.7471 54.689L47.4072 57.0562L47.8643 59.4468L47.8994 59.6812L47.876 59.9038L47.5713 62.3999L47.7119 64.9312V65.0483L47.7002 65.1538L47.4658 67.5796L47.8994 70.0405L47.9463 70.2983L47.8994 70.5562L47.4541 72.9937L47.6182 75.4897V75.5249L47.7002 78.1733L47.7822 80.8101V80.9038L47.7002 83.4937L47.7119 86.0952V86.2124L47.5127 88.6616L47.9111 91.146L47.9346 91.3452L47.9111 91.5444L47.6299 94.0522L47.5713 96.689L47.7354 99.1968L47.7471 99.2554V99.314L47.7236 101.951V102.009L47.7119 102.056L47.5127 104.517L47.6182 107.072L47.876 109.708L47.8877 109.861L47.876 110.013L47.6064 112.498L47.7236 114.97V115.134H46.2236L44.7236 115.146V115.099L44.6064 112.568V112.451L44.6182 112.345L44.8643 109.849L44.6299 107.365L44.6182 107.33V107.283L44.5127 104.646V104.458L44.7236 101.822L44.7471 99.396L44.5713 96.7593V96.6304L44.6299 93.9819V93.9233L44.6416 93.853L44.9111 91.3804L44.5244 88.9663L44.501 88.7905L44.5127 88.6147L44.7119 86.1069L44.7002 83.4468V83.4233L44.7119 83.3999L44.7822 80.9038L44.7002 78.2671L44.6182 75.6655L44.4658 73.0288L44.4541 72.853L44.4775 72.6772L44.8994 70.2866L44.4893 67.9194L44.4541 67.7202L44.4658 67.521L44.7002 64.9429L44.5713 62.4585L44.5596 62.3296L44.583 62.2007L44.8643 59.7866L44.4072 57.3608L44.3604 57.1147L44.3955 56.8687L44.7588 54.3608L44.6885 52.0522L44.4072 50.8335L43.1064 50.728L40.6924 51.0679L40.5752 51.0796H40.4463L37.8096 51.0327L37.6221 51.0093L35.2314 50.6577L32.8174 51.0679L32.665 51.0913L32.5127 51.0796L29.8643 50.9858H29.8291L27.2979 50.8218L24.7549 51.021H24.6729L22.0361 51.0679H21.9189L21.8018 51.0562L19.4229 50.7046L18.0869 50.9272L17.6768 52.1226L17.7822 54.314L18.1572 56.9624L18.1689 57.0679V57.1733L18.1572 59.8101V59.9155L18.1455 60.021L17.7705 62.4702L17.8994 65.0132V65.0835L17.9111 67.7202V67.7554L17.8643 70.3921L17.876 73.0054V73.1343L17.8525 73.2632L17.4072 75.8062L17.3838 75.9351L17.3486 76.0522L16.4814 78.5366L16.458 78.5952L16.4463 78.6304L15.5791 80.646L15.7666 82.9194L15.7783 83.0601L15.7666 83.2007L15.4736 85.7085L15.5439 88.2632V88.3101L15.5557 90.9468L15.6846 93.5132V93.6187L15.6377 96.2671L15.5791 98.9038L15.5439 101.529L15.6377 104.095V104.107L15.7197 106.744L15.7314 106.767L15.7197 106.802L15.708 109.439V109.462L15.6611 112.099V112.146L15.6494 112.193L15.5205 113.763L16.833 114.291L16.3174 115.556L17.7705 115.521V115.65L17.8291 117.923L13.376 116.142L12.3564 115.72L12.4385 114.619L12.6611 111.947L12.708 109.427L12.7197 106.779H12.7314L12.6377 104.201L12.5439 101.564V101.494L12.5791 98.8569V98.8452L12.6377 96.1968L12.6846 93.6655L12.5557 91.0288V90.9585L12.5439 88.3569L12.4736 85.7202V85.603L12.4854 85.4976L12.7666 82.978L12.5674 80.5171L12.5439 80.1421L12.6846 79.8022L13.6807 77.4585L14.4775 75.1382L14.876 72.853L14.8643 70.3687V70.3452L14.9111 67.7319L14.8994 65.0952V65.0835L14.7705 62.5171L14.7588 62.3765L14.7822 62.2241L15.1572 59.728V57.2788L14.8174 54.7358L14.8057 54.6655V54.6069L14.665 51.9819L14.6533 51.689L14.7471 51.4077L15.5557 49.0874L15.8604 48.2554L16.7393 48.103L19.1533 47.7163L19.3877 47.6812L19.6104 47.7163L22.1182 48.0679L24.5322 48.0327L27.1689 47.8218H27.3799L30.0166 47.9858L30.0049 47.9976L32.4893 48.0796L34.9619 47.6577L35.1963 47.6226L35.4307 47.6577ZM102.731 48.4429L103.81 50.3296L104.021 50.6929L104.009 51.1147L103.95 53.7397L104.044 56.271L104.196 58.9077L104.208 59.0601L104.185 59.2124L103.81 61.6733L103.868 64.1577L104.208 66.7241L104.22 66.8647L104.208 67.0054L104.056 69.6421L104.091 72.1733L104.278 74.4233L105.181 76.5679V76.5796L106.177 79.0405L106.247 79.2046L106.271 79.3687L106.681 82.0054L106.704 82.228L106.681 82.4507L106.317 84.9702L106.353 87.4897V87.5952L106.2 90.2319L106.13 92.7046L106.458 95.2241L106.481 95.3999L106.458 95.564L106.224 98.0483L106.399 100.591L106.411 100.65V100.708L106.399 103.345L106.47 105.865L106.692 108.501L106.704 108.724L106.657 108.935L106.13 111.396V114.431L105.825 114.841L104.653 116.376L103.61 115.58L103.446 115.568L101.958 115.369L101.97 115.275L102.017 114.876L102.263 114.56L103.13 113.423V111.091L103.165 110.927L103.669 108.548L103.481 106.111L103.47 106.064V106.029L103.399 103.38V103.345L103.411 100.814L103.224 98.1772L103.212 98.0483L103.224 97.9194L103.458 95.4585L103.142 92.9858L103.118 92.8687L103.13 92.7397L103.2 90.103V90.0796L103.212 90.0562L103.353 87.5249L103.317 84.8882V84.771L103.329 84.6538L103.669 82.2046L103.329 80.0015L102.403 77.7163V77.7046L101.431 75.3843L101.337 75.1616L101.313 74.9272L101.091 72.3257V72.2202L101.056 69.5718V69.4663L101.208 66.9351L100.892 64.4624L100.88 64.3921V64.3218L100.81 61.6733L100.798 61.5444L100.821 61.4155L101.185 58.9077L101.044 56.4351V56.4116L100.95 53.7632V53.6694L100.997 51.4546L100.599 50.7632L98.9814 50.939L98.8643 50.9507L98.7354 50.939L96.1807 50.7866L93.6377 50.939L93.5439 50.9507L93.4619 50.939L90.9658 50.7866L88.4229 51.0444H88.3643L88.3174 51.0562L85.6689 51.1265H85.5166L85.3643 51.103L82.8682 50.6577L80.3721 50.7046L80.3604 50.6929L77.7939 50.8452H77.7236L75.2393 50.8569L74.3486 51.0562L74.3955 52.4741L74.4072 52.5562L74.3955 52.6382L74.1846 55.1577L74.4775 57.6304L74.4893 57.7827L74.4775 57.9233L74.2549 60.4312L74.4893 62.939L74.501 63.103L74.4775 63.2554L74.1729 65.7163L74.4658 68.189L74.4893 68.3999L74.4541 68.6226L74.0088 71.0952L74.0674 73.5913L74.3369 76.1226L74.3486 76.2866L74.3369 76.4507L74.0322 78.9585L73.9385 81.4663L74.0674 84.1147V84.2202L74.0088 86.7749L74.3018 89.2944L74.3135 89.3999V89.5054L74.2432 92.1421V92.1772L74.1143 94.7437L74.2314 97.2632L74.4424 99.9116L74.4541 100.052L74.4424 100.193L74.1611 102.654L74.4541 105.126L74.4775 105.349L74.4424 105.572L73.9854 108.033L74.1963 110.458H74.1846L74.4893 113.06L74.5127 113.259L74.4775 113.458L74.1611 115.404L72.8955 115.193L73.1182 116.623L72.9072 116.646L70.8799 116.951L71.208 114.935L71.4775 113.189L71.208 110.751V110.705L70.9854 108.068L70.9736 107.869L71.0088 107.681L71.4424 105.279L71.1611 102.841L71.1494 102.666L71.1611 102.501L71.4307 99.9819L71.2432 97.4976V97.4507L71.1143 94.814V94.6733L71.2432 92.0366L71.3135 89.6343L71.0088 86.8921V86.7866L71.0674 84.2671L70.9502 81.6187L70.9385 81.5483L70.9502 81.4897L71.0322 78.8647V78.7944L71.0439 78.7358L71.3369 76.2749L71.0908 73.7905L71.0791 73.7319V73.6733L71.0088 71.0366V70.8843L71.0322 70.7437L71.4541 68.3062L71.1846 65.8921L71.1611 65.7163L71.1846 65.5405L71.4775 63.0327L71.2549 60.5718L71.2432 60.4429L71.2549 60.3022L71.4658 57.8179L71.1963 55.3218L71.1846 55.1812L71.1963 55.0405L71.3955 52.5679L71.3135 49.9194L71.2666 48.6772L72.4854 48.4077L74.7471 47.9038L74.8994 47.8687H75.0518L77.6299 47.8569V47.8452L80.2666 47.7046H80.3252L82.9619 47.6577H83.1025L83.2549 47.6812L85.7275 48.1265L88.1182 48.0679L90.7549 47.7983L90.8838 47.7866H91.001L93.5439 47.9507L96.0986 47.7983L96.1924 47.7866L96.2744 47.7983L98.7588 47.9507L101.278 47.6929L102.239 47.5874L102.731 48.4429Z" fill="black"/>
<path d="M84.7422 24.8252L86.2188 26.9697L86.3945 27.2275L86.4648 27.5439L86.9336 30.0283L86.957 30.1338V30.251L87.0508 32.8877L87.1328 35.5361L87.1445 35.6533L87.1211 35.7705L86.8164 38.2432L86.9805 40.7627V40.9385L86.8516 43.5869L86.8281 43.915L86.6758 44.208L85.6211 46.1885L85.1406 47.1025L84.1094 46.9736L81.4844 46.6338L80.6992 46.54L80.3359 45.8486L79.3281 43.915L79.1758 43.6338L79.1523 43.3291L78.9648 40.6807V40.5752L78.9531 37.9385V37.8799L78.9648 37.8213L79.1641 35.1846L79.0703 32.7705L78.8711 30.1221L78.8477 29.8291L78.9414 29.5479L79.7617 27.04L79.8906 26.665L80.1719 26.3955L81.9883 24.7432L82.8789 25.7275L83.0195 25.751L83.1719 25.7861V25.751L82.832 24.2861L83.1602 24.2158L84.1562 23.9814L84.7422 24.8252ZM82.4805 28.3408L81.8828 30.1807L82.0703 32.5479V32.6064L82.1641 35.2432V35.3252L82.1523 35.4072L81.9531 38.0557L81.9648 40.5752L82.1289 42.8018L82.6211 43.751L83.4531 43.8564L83.8633 43.0947L83.9805 40.8682L83.8164 38.3135L83.8047 38.1846L83.8281 38.0439L84.1211 35.5127L84.0508 32.9932L83.957 30.4736L83.5703 28.4111L83.125 27.7666L82.4805 28.3408Z" fill="black"/>
<path d="M37.3359 24.8018L38.8477 26.8994L39.0469 27.1807L39.1055 27.5088L39.5508 30.0049L39.5742 30.1104V30.2158L39.668 32.8643L39.75 35.501L39.7617 35.6182L39.7383 35.7354L39.4336 38.208L39.5977 40.7393V40.9033L39.4688 43.5518L39.4453 43.8682L39.3047 44.1494L38.2852 46.1533L37.8164 47.1025L36.7617 46.9736L34.1367 46.6338L33.375 46.54L33 45.8721L31.957 43.9502L31.8047 43.6572L31.7812 43.3408L31.582 40.7041V40.5869L31.5703 37.9502V37.8916L31.582 37.833L31.7812 35.1963L31.6875 32.7822L31.4883 30.1338L31.4648 29.8408L31.5586 29.5479L32.3906 27.0518L32.5078 26.6885L32.7891 26.4189L34.5938 24.7432L35.4844 25.7275L35.6367 25.751L35.7891 25.7861V25.751L35.4258 24.2979L35.7539 24.2158L36.75 23.9697L37.3359 24.8018ZM35.1094 28.3525L34.5 30.2041L34.6875 32.5596V32.6182L34.7812 35.2549V35.3369L34.7695 35.4189L34.5703 38.0674L34.582 40.5869L34.7344 42.7783L35.2617 43.751L36.082 43.8564L36.4805 43.0947L36.5977 40.833L36.4336 38.29L36.4219 38.1494L36.4453 38.0088L36.7383 35.4893L36.668 32.958L36.5742 30.415L36.2109 28.3643L35.7656 27.7432L35.1094 28.3525Z" fill="black"/>
<path d="M93.5928 24.8486L95.0693 26.9932L95.2334 27.2275L95.292 27.5088L95.8545 29.9932L95.8779 30.1338L95.8896 30.2627L95.9951 32.8994V32.9111L96.0771 35.5479L96.0889 35.6768L96.0654 35.7939L95.749 38.2666L95.9131 40.7861L95.9248 40.8682L95.9131 40.9619L95.7842 43.5986L95.7725 43.9502L95.5967 44.2666L94.4834 46.2236L93.9912 47.1025L92.9951 46.9736L90.3467 46.6455L89.5615 46.5518L89.1982 45.8369L88.2607 43.9854L88.1318 43.7158L88.1084 43.4229L87.9092 40.7861V40.6689L87.9209 38.0322V37.915L88.1318 35.3369L88.0264 32.8994L87.7568 30.2627L87.7334 29.958L87.8271 29.665L88.6006 27.1572L88.7178 26.8057L90.7334 24.79L91.6592 25.7275L91.9639 25.7744V25.751L91.7764 24.2627L92.1748 24.2158L93.0771 24.0986L93.5928 24.8486ZM91.3545 28.3994L90.7686 30.2627L91.0146 32.6064V32.6885L91.1318 35.3369V35.4189L91.1201 35.5127L90.9209 38.1494L90.9092 40.5635L91.0732 42.8955L91.5068 43.7627L92.3623 43.8682L92.8076 43.083L92.9248 40.8799L92.7607 38.3369L92.749 38.1963L92.7607 38.0557L93.0771 35.5127L92.9951 33.0283L92.8896 30.5088L92.4209 28.4346L91.9639 27.79L91.3545 28.3994Z" fill="black"/>
<path d="M28.4961 24.7666L30.0195 26.8643L30.1953 27.0986L30.2656 27.3799L30.875 29.8525L30.9102 30.0049V30.1572L31.0273 32.7939V32.8057L31.1094 35.4424L31.1211 35.5596L31.0977 35.6768L30.793 38.1377L30.957 40.6807V40.8447L30.8164 43.4814L30.8047 43.8213L30.6406 44.126L29.5273 46.1768L29.0352 47.0674L28.0391 46.9502L25.3906 46.6572L24.5586 46.5635L24.207 45.8135L23.2695 43.8682L23.1523 43.6104L23.1289 43.3174L22.9414 40.6807V40.5752L22.9531 37.9385V37.8213L23.1523 35.2432L23.0469 32.7119L23.0586 32.7002L22.8242 30.1455L22.8008 29.876L22.8711 29.6182L23.5625 27.0869L23.668 26.665L23.9961 26.3721L25.8242 24.7314L26.7148 25.7275L26.8438 25.751L27.0078 25.7861L26.9961 25.751L26.4922 24.3447L26.7734 24.2393L27.8281 23.8525L28.4961 24.7666ZM26.3281 28.3057L25.8359 30.1455L26.0469 32.5244V32.5947L26.1523 35.2432V35.3252L26.1406 35.4072L25.9531 37.9385L25.9414 40.4697L26.0938 42.8135L26.5508 43.7627L27.3594 43.8564L27.8398 42.9893L27.957 40.7744L27.793 38.2314L27.7812 38.0908L27.793 37.9502L28.1094 35.3604L28.0273 32.9111L27.9219 30.415L27.4062 28.376L26.9492 27.7432L26.3281 28.3057Z" fill="black"/>
<path d="M87.7607 63.0151L89.9053 63.9526L90.1514 64.0581L90.3389 64.2456L92.2373 66.0503L92.4365 66.2378L92.5537 66.4839L93.7021 68.8511L93.8311 69.1206L93.8428 69.4136L94.0186 72.0151V72.062L94.1123 74.7104L94.3584 77.2417L94.3818 77.394L94.3584 77.5464L94.1006 80.0308L94.3467 82.4097L94.3584 82.4683V82.6323L92.8584 82.6558L91.6514 82.6792L91.3584 82.7144L91.1006 80.1831L91.0889 80.0308L91.1006 79.8784L91.3584 77.4409L91.1123 74.8979V74.8042L91.0186 72.2144L90.8662 69.8823L89.9521 68.019L88.4521 66.5894L87.3271 66.0972L86.1787 66.9058L85.2178 68.9683L84.3506 71.019L84.3271 73.3511V73.4214L84.3154 73.5034L84.0107 76.0112L84.0928 78.5659L84.1631 81.0503L84.4326 82.2456L84.7139 83.5112L83.5068 83.9683L83.2607 84.062L82.7217 82.6558L82.71 82.6206L81.5029 82.9019L81.21 81.5776L81.1748 81.437V81.2964L81.0928 78.6597L81.0107 76.0112V75.9058L81.0225 75.7886L81.3389 73.2339L81.3623 70.7026V70.4097L81.4795 70.1401L82.4756 67.7495L82.499 67.6792L83.6357 65.2769L83.8115 64.9136L84.1279 64.6909L86.2959 63.1675L86.9873 62.6753L87.7607 63.0151Z" fill="black"/>
<path d="M20.1445 4.29785L20.7656 4.41504L21.6211 4.4502L21.5391 6.98145L21.5273 7.34473L20.1797 9.77051L19.7344 12.0674L19.6055 14.5635V14.5986L19.3945 17.1182V19.7666L19.5703 22.2979L19.582 22.3682V22.4385L19.5 25.0869V25.1455L19.4883 25.2158L19.1953 27.6533L19.6055 30.0791L19.6289 30.2314L19.6172 30.3955L19.4766 32.9385L19.6523 35.5049L19.6641 35.6455L19.6406 35.7861L19.3359 38.2939L19.418 40.8252V40.8369L19.5117 43.4736H19.5L19.6641 46.0635L19.6758 46.2393L19.6523 46.4268L19.1836 49.0635L18.0234 48.8525L17.9062 48.9932L16.8867 50.083L16.6758 49.8955L16.0898 49.333L16.2305 48.5361L16.6758 46.0869L16.5117 43.6143V43.5674L16.418 40.9307L16.3359 38.2939V38.1768L16.3477 38.0596L16.6523 35.5049L16.4883 33.0557L16.4766 32.9736L16.4883 32.8799L16.6172 30.3955L16.207 27.9229L16.1719 27.7119L16.1953 27.501L16.5117 24.9463L16.582 22.5088L16.3945 19.8604V19.7549L16.4062 17.1182V17.001L16.6172 14.3643L16.7461 11.7979L16.7578 11.6924L16.7812 11.5869L17.2852 8.98535L17.332 8.75098L17.4375 8.54004L18.5391 6.52441L18.6211 4.34473L18.6328 4.22754L18.6562 4.11035L18.668 4.0166L20.1445 4.29785Z" fill="black"/>
<path d="M45.417 9.04053L45.5928 9.32178L45.6396 9.63818L45.9443 12.1577L46.6123 14.6421L46.6592 14.8179V14.9937L46.7061 17.6655L46.7178 17.7827L46.6943 17.8999L46.3428 20.3022L46.5186 22.7632L46.7061 25.4116V25.5522L46.624 28.2007V28.2593L46.6123 28.3296L46.3193 30.7554L46.7178 33.1929L46.7529 33.3452L46.7412 33.5093L46.6006 36.0405L46.7764 38.6069V38.7476L46.7646 38.8882L46.46 41.396L46.542 43.939L46.6357 46.5757V50.771L44.9131 50.5132L44.6553 50.478L44.8662 49.0366H43.6357V46.6812L43.542 44.0444L43.46 41.396L43.4482 41.2905L43.4717 41.1733L43.7646 38.6772L43.6006 36.1694V35.9937L43.7295 33.4741L43.3311 31.0366L43.2959 30.8257L43.3193 30.6147L43.624 28.0483L43.7061 25.6108L43.5303 22.9741L43.3545 20.3608L43.3428 20.2085L43.3662 20.0562L43.6943 17.6421L43.6592 15.2515L43.0264 12.8608L43.0029 12.7554L42.9912 12.6616L42.71 10.3413L41.5381 8.46631L41.374 8.22021L41.3271 7.92725L41.3154 7.8335L42.792 7.57568L43.0146 7.54053L44.0811 6.88428L45.417 9.04053Z" fill="black"/>
<path d="M100.304 4.11035L100.327 4.2041L100.339 4.30957L100.468 6.59473L101.229 8.91504L102.202 11.2471L102.272 11.4111L102.296 11.5869L102.706 14.2236L102.729 14.376L102.718 14.5283L102.577 17.1768L102.565 17.2354V17.2822L102.249 19.6494L102.718 22.04L102.741 22.2041V22.3682L102.659 25.0049V25.0752L102.647 25.1455L102.354 27.5713L102.753 29.9971L102.776 30.1611L102.765 30.3252L102.624 32.8564L102.8 35.4229L102.812 35.5635L102.788 35.7041L102.483 38.2119L102.565 40.7549L102.647 43.3447L102.812 45.9814L102.823 46.1455L102.8 46.2979L102.401 48.9814L101.335 48.8174L101.206 48.9932L100.257 50.1533L99.9756 49.9189L99.3193 49.3799L99.4365 48.5361L99.8115 46.0049L99.6592 43.5322V43.4854L99.5654 40.8486L99.4834 38.2119L99.4717 38.0947L99.4951 37.9775L99.7881 35.4932L99.6357 32.9736L99.624 32.8916L99.6357 32.7979L99.7646 30.3252L99.3662 27.8408L99.3311 27.6299L99.3545 27.4189L99.6592 24.8643L99.7295 22.4385L99.2725 19.9893L99.2256 19.7549L99.249 19.5205L99.5771 16.9775L99.7061 14.5283L99.3545 12.2314L98.417 9.95801L98.3936 9.89941L98.3701 9.85254L97.5615 7.34473L97.4912 7.15723L97.4795 6.96973L97.3389 4.48535L98.0889 4.43848L98.8154 4.29785L100.292 4.0166L100.304 4.11035Z" fill="black"/>
<path d="M76.4707 4.29785L77.6426 4.55566L77.9355 4.60254L77.9238 4.61426L77.9355 4.62598L77.9121 4.73145L77.5723 7.12207L77.5371 7.35645L77.4434 7.56738L76.3652 9.78223L75.9199 12.1963L75.5918 14.6455L75.3691 17.0596L75.7207 19.5322L75.7324 19.6846V19.8252L75.5801 22.4385L75.5098 25.0283V25.1572L75.2285 27.5947L75.627 30.0205L75.6504 30.1846V30.3486L75.5098 32.8799L75.6855 35.4463L75.6973 35.5869L75.6738 35.7275L75.3574 38.3174L75.4512 40.7783L75.5332 43.3799L75.6973 46.0166L75.709 46.1924L75.6738 46.3682L75.2051 49.0166L73.9512 48.7822L73.9395 48.8408L73.3184 50.2119L73.1191 50.1182L72.0527 49.6377L72.252 48.4893L72.6973 46.04L72.5332 43.5674V43.5205L72.4512 40.8838L72.3691 38.2354L72.3574 38.1299L72.3691 38.0127L72.6855 35.5166L72.5098 33.0088V32.833L72.6504 30.3252L72.2285 27.876L72.1934 27.665L72.2168 27.4541L72.5215 24.8994L72.5801 22.3096V22.2627L72.7324 19.8018L72.3574 17.1768L72.3691 17.001L72.6152 14.3877V14.3291L72.9551 11.7275L72.9668 11.6807V11.6455L73.459 9.03223L73.4941 8.84473L73.5879 8.66895L74.6309 6.46582L74.959 4.18066L74.9824 4.06348L75.0059 3.96973L76.4707 4.29785Z" fill="black"/>
<path d="M78.7148 49.8857V49.9209L78.8203 52.4639V52.5693L78.8086 52.6865L78.5508 55.1592L78.7969 57.6553V57.749L78.9023 60.3857L78.9141 60.4678L78.9023 60.5615L78.7031 63.1982V65.6123L78.9023 68.2607V68.4131L78.8203 71.0498V71.1904L78.5039 73.6396L78.8906 76.0654L78.9141 76.2178L78.9023 76.3701L78.7617 78.8896L79.0547 81.374L79.0781 81.5264L79.0664 81.6904L78.8086 84.3389L78.7383 86.8818L78.8086 89.3779L78.9727 92.0264L78.9844 92.2021L78.9492 92.3779L78.5273 94.7451L78.9844 97.335L78.9609 97.5342L78.7148 100.089L78.8555 102.597L78.8672 102.737L78.8438 102.89L78.4922 105.28L78.9492 107.683L78.9844 107.847L78.9727 108.034L78.8438 110.671L78.7852 113.261V113.319L78.668 115.253L78.5742 116.882L76.957 116.647L76.8398 116.624L77.0625 115.147L75.6797 115.065L75.7969 113.202H75.7852L75.8438 110.565V110.519L75.9727 108.034L75.5156 105.585L75.4688 105.351L75.5039 105.104L75.8672 102.585L75.7266 100.112L75.7148 100.007L75.7266 99.8896L75.9609 97.417L75.5273 95.0146L75.4805 94.7451L75.5273 94.4873L75.9727 92.0264L75.8203 89.5654V89.5186L75.7383 86.8818V86.7881L75.8086 84.1514V84.0928L75.8203 84.0459L76.0664 81.5732L75.7734 79.1006L75.75 78.9717L75.7617 78.8428L75.9023 76.3115L75.5156 73.874L75.4922 73.6631L75.5156 73.4639L75.832 70.8271L75.9023 68.4717L75.7148 65.835L75.7031 65.7764V63.0811L75.7148 63.0342V62.9756L75.9141 60.3857L75.7969 57.8662L75.8086 57.8545L75.5508 55.3115L75.5391 55.1592L75.5508 55.0068L75.8203 52.4639L75.7148 50.0498V49.8857H78.7148Z" fill="black"/>
<path d="M43.248 49.8857V49.9209L43.3535 52.4639L43.3652 52.5693L43.3535 52.6865L43.084 55.1592L43.3301 57.6553V57.749L43.4355 60.3857L43.4473 60.4795L43.4355 60.5615L43.2246 63.21L43.2129 65.624L43.3887 68.2607L43.4004 68.3311V68.4014L43.3184 71.0498V71.1787L43.0371 73.5928L43.4707 76.0186L43.4941 76.1943L43.4824 76.3584L43.3535 79.0068L43.3887 81.5615V81.6787L43.377 81.7959L43.0137 84.2217L43.248 86.6943V86.7764L43.3418 89.3779L43.5059 92.0146L43.5176 92.1904L43.4824 92.3779L43.0605 94.7451L43.5176 97.335L43.5059 97.5342L43.2598 100.089L43.4004 102.597L43.4121 102.737L43.3887 102.89L43.0371 105.28L43.4824 107.683L43.5176 107.858L43.5059 108.034L43.3652 110.671L43.3066 113.073L43.5059 114.972L43.6582 116.39L42.2285 116.612L42.123 116.624L41.9004 115.147L41.8887 115.136L40.5176 115.288L40.3184 113.39L40.3066 113.296V113.202L40.377 110.554V110.507L40.5059 108.034L40.0488 105.585L40.002 105.339L40.0371 105.104L40.4004 102.644L40.2598 100.112V100.007L40.2715 99.8896L40.5059 97.4639L40.0723 95.0146L40.0254 94.7568L40.0723 94.4873L40.5059 91.9912L40.3418 89.5654V89.5186L40.2598 86.9756L40.0137 84.3506L39.9902 84.1631L40.0137 83.9873L40.3887 81.4443L40.3535 78.9482V78.8545L40.4941 76.4053L40.0488 73.9092L40.0137 73.6982L40.0371 73.4756L40.3301 70.8389L40.4004 68.4717L40.2129 65.835V65.7178L40.2246 63.0811V63.0225L40.2363 62.9639L40.4473 60.3857L40.3418 57.9482L40.084 55.3115L40.0723 55.1592L40.084 55.0068L40.3652 52.4287L40.248 50.0498V49.8857H43.248Z" fill="black"/>
<path d="M99.8701 49.8857V49.9209L99.9756 52.4639L99.9873 52.5693L99.9756 52.6865L99.7061 55.1592L99.9521 57.6553V57.749L100.058 60.3857L100.069 60.4795L100.058 60.5615L99.8584 63.1982L99.8467 65.624L100.034 68.2607L100.046 68.3311L100.034 68.4131L99.9639 71.0498V71.1201L99.9521 71.1787L99.6709 73.6162L100.069 76.042L100.093 76.2061L100.081 76.3701L99.9404 78.9014L100.116 81.4678L100.128 81.6084L100.104 81.749L99.7998 84.2568L99.8818 86.7998L99.9639 89.3896L100.128 92.0381L100.14 92.2139L100.104 92.3896L99.6826 94.7686L100.104 97.1475L100.14 97.3467L100.128 97.5459L99.8818 100.019L100.022 102.608L100.034 102.749L100.011 102.901L99.6592 105.304L100.104 107.694L100.14 107.87L100.128 108.046L99.999 110.683L99.9404 113.272L99.9873 115.101L100.022 116.636H98.3701V115.136L96.9873 115.171L96.9404 113.284V113.214L96.999 110.577V110.53L97.1279 108.046L96.6709 105.597L96.624 105.362L96.6592 105.116L97.0225 102.608L96.8818 100.124V99.9014L97.1279 97.4756L96.6943 95.0264L96.6475 94.7686L96.6943 94.499L97.1279 92.0029L96.9756 89.5771V89.5537L96.9639 89.5303L96.7998 84.2568V84.1396L96.8115 84.0225L97.1162 81.4678L96.9521 79.0186L96.9404 78.9365L96.9521 78.8428L97.0811 76.3701L96.6709 73.8857L96.6357 73.6748L96.6592 73.4639L96.9756 70.9092L97.0459 68.4717L96.8584 65.835L96.8467 65.7764V65.7178L96.8584 63.0811V62.9639L97.0693 60.3857L96.9639 57.9482L96.7061 55.3115L96.6943 55.1592L96.7061 55.0068L96.9756 52.4639L96.8701 50.0498V49.8857H99.8701Z" fill="black"/>
<path d="M22.0898 49.8857V49.9209L22.1953 52.4639L22.207 52.5693L22.1953 52.6865L21.9258 55.1592L22.1719 57.6553V57.7021L22.1836 57.749L22.2773 60.3857L22.2891 60.4795L22.2773 60.5732L22.0664 63.21L22.043 65.624L22.2188 68.2607L22.2305 68.3428L22.2188 68.4131L22.1484 71.0498L22.1367 71.1084V71.1787L21.8555 73.5928L22.2773 76.0303L22.3008 76.1826V76.335L22.1953 78.8545L22.4062 81.4443L22.4297 81.6436L22.3945 81.8311L21.9492 84.2686L22.0781 86.7529L22.2188 89.3545V89.3662L22.3477 91.9795V92.1436L22.3242 92.3076L21.8906 94.6865L22.3242 97.0654L22.3594 97.2646L22.3359 97.4756L22.1016 99.9365L22.2422 102.526L22.2539 102.679L22.2305 102.819L21.8789 105.222L22.3242 107.612L22.3594 107.788L22.3477 107.976L22.2188 110.612L22.1602 113.202L22.3242 114.784L22.418 115.687L21.6562 116.179L21.5508 116.249L20.7422 114.983L20.707 114.925L19.3359 115.065L19.1719 113.319L19.1602 113.226V113.144L19.2188 110.495V110.448L19.3477 107.976L18.8906 105.526L18.8438 105.28L18.8789 105.034L19.2422 102.526L19.1016 100.054L19.0898 99.9365L19.1016 99.8311L19.3477 97.4053L18.9023 94.9561L18.8555 94.6865L18.9023 94.4287L19.3477 91.9561L19.2305 89.5186L19.0781 86.917L18.9492 84.2686L18.9375 84.1045L18.9727 83.9287L19.4062 81.5029L19.207 79.042L19.1953 78.96V78.8662L19.3008 76.3584L18.8672 73.8975L18.8203 73.6865L18.8555 73.4756L19.1602 70.9326L19.2188 68.3193L19.043 65.8232V65.7178L19.0664 63.0693V62.9639L19.2773 60.5029L19.1836 57.9482L18.9258 55.3115L18.9141 55.1592L18.9258 55.0068L19.207 52.4287L19.0898 50.0498V49.8857H22.0898Z" fill="black"/>
<path d="M48.7051 86.4624L51.2598 86.7788L53.7441 86.8491L56.3457 86.6616L56.4043 86.6499H56.4629L59.0996 86.6616H59.2051L61.7832 86.8726L64.2324 86.7788V86.7671L66.8691 86.5093L67.0215 86.4976L67.1738 86.5093L69.6582 86.7788L72.1309 86.6733H72.2949V89.6733H72.2598L69.7168 89.7788L69.6113 89.7905L69.4941 89.7788L66.998 89.5093L64.5137 89.7554H64.4316L61.7949 89.8608L61.7012 89.8726L61.6191 89.8608L58.9824 89.6616V89.6499H56.5449L53.9199 89.8374L53.8496 89.8491L53.7676 89.8374L51.1309 89.7671H51.0605L51.002 89.7554L48.5879 89.4741L47.0059 89.8491L45.166 90.2827V88.1733H46.6191L46.3262 86.9312L48.1895 86.4976L48.4473 86.439L48.7051 86.4624Z" fill="black"/>
<path d="M48.7051 81.3975L51.2598 81.7139L53.7441 81.7842L56.3457 81.5967L56.4043 81.585H56.4629L59.0996 81.5967H59.2051L61.7832 81.8076L64.2324 81.7139V81.7021L66.8691 81.4443L67.0215 81.4326L67.1738 81.4443L69.6582 81.7139L72.1309 81.6084H72.2949V84.6084H72.2598L69.7168 84.7139L69.6113 84.7256L69.4941 84.7139L66.998 84.4443L64.5137 84.6904H64.4316L61.7949 84.7959L61.7012 84.8076L61.6191 84.7959L58.9824 84.5967V84.585H56.5449L53.9199 84.7725L53.8496 84.7842L53.7676 84.7725L51.1309 84.7021H51.0605L51.002 84.6904L48.5879 84.4092L47.0059 84.7842L45.166 85.2178V83.1084H46.6191L46.3262 81.8662L48.1895 81.4326L48.4473 81.374L48.7051 81.3975Z" fill="black"/>
<path d="M48.7051 58.7524L51.2598 59.0688L53.7441 59.1392L56.3457 58.9517L56.4043 58.9399H56.4629L59.0996 58.9517H59.2051L61.7832 59.1626L64.2324 59.0688V59.0571L66.8691 58.7993L67.0215 58.7876L67.1738 58.7993L69.6582 59.0688L72.1309 58.9634H72.2949V61.9634H72.2598L69.7168 62.0688L69.6113 62.0806L69.4941 62.0688L66.998 61.7993L64.5137 62.0454H64.4316L61.7949 62.1509L61.7012 62.1626L61.6191 62.1509L58.9824 61.9517V61.9399H56.5449L53.9199 62.1274L53.8496 62.1392L53.7676 62.1274L51.1309 62.0571H51.0605L51.002 62.0454L48.5879 61.7642L47.0059 62.1392L45.166 62.5728V60.4634H46.6191L46.3262 59.2212L48.1895 58.7876L48.4473 58.729L48.7051 58.7524Z" fill="black"/>
<path d="M59.6875 91.1265L62.0312 91.8062L62.4297 91.9351L62.7109 92.2397L64.5039 94.2085L64.5391 94.2437L64.5625 94.2788L66.2031 96.3179L66.2969 96.4351L67.7266 98.6382L67.832 98.814L67.8906 99.0015L68.6992 101.521L68.7461 101.685L68.7578 101.873L68.9453 104.498V104.533L69.0742 107.158L69.3438 109.701L69.3672 109.865L69.3438 110.017L69.0742 112.654L69.0273 115.068V115.138H66.0273V115.009L66.0742 112.466V112.408L66.0859 112.349L66.3438 109.853L66.0742 107.38V107.298L65.957 104.708L65.7812 102.248L65.0781 100.08L63.7773 98.0757H63.7656L62.2305 96.1655V96.1538L60.7773 94.5718L59.4648 94.1851L57.9883 95.064L56.3594 96.8218L56.3477 96.8335H56.3359L54.6602 98.5444L53.7227 100.572L53.1484 102.798L53.1953 105.212V105.353L53.1719 105.494L52.7383 107.873L53.1719 110.263L53.207 110.462L53.1836 110.662L52.9492 113.146L53.0781 115.033L53.1953 116.638H51.4258V115.138L50.0898 115.244L49.9492 113.263L49.9375 113.146L49.9492 113.017L50.1836 110.544L49.75 108.142L49.7031 107.884L49.75 107.626L50.1953 105.06L50.1484 102.646V102.447L50.1953 102.248L50.8516 99.7046L50.8867 99.5757L50.9453 99.4468L52.0586 97.0562L52.1758 96.8218L52.3516 96.6343L54.1914 94.7476L55.9609 92.8608L56.1016 92.6968L56.2891 92.5913L58.4922 91.2788L59.0547 90.939L59.6875 91.1265Z" fill="black"/>
<path d="M92.7998 86.5093L95.2842 86.7788L97.7568 86.6733H97.9209V89.6733H97.8857L95.3428 89.7788L95.2373 89.7905L95.1318 89.7788L92.624 89.5093L90.1514 89.7554H90.0693L87.4209 89.8608L87.3389 89.8726L87.2451 89.8608L84.6084 89.6616V89.6499H82.1826L79.5459 89.8374L79.4639 89.8491L79.3818 89.8374L77.6006 89.7671L76.1592 89.7085V88.1733H77.6592L77.7178 86.7671L79.3936 86.8491L81.9717 86.6616L82.0303 86.6499H82.0889L84.7256 86.6616H84.8428L87.4209 86.8726L89.8584 86.7788L92.4951 86.5093L92.6475 86.4976L92.7998 86.5093Z" fill="black"/>
<path d="M36.1787 86.5093L38.6631 86.7788L41.1357 86.6733H41.2998V89.6733H41.2646L38.7217 89.7788L38.6162 89.7905L38.5107 89.7788L36.0029 89.5093L33.5303 89.7554H33.4482L30.7998 89.8608L30.7178 89.8726L30.624 89.8608L27.9873 89.6616V89.6499H25.5615L22.9248 89.8374L22.8428 89.8491L22.7607 89.8374L20.9795 89.7671L19.5381 89.7085V88.1733H21.0381L21.0967 86.7671L22.7725 86.8491L25.3506 86.6616L25.4092 86.6499H25.4678L28.1045 86.6616H28.2217L30.7998 86.8726L33.2373 86.7788L35.874 86.5093L36.0264 86.4976L36.1787 86.5093Z" fill="black"/>
<path d="M92.7998 58.7993L95.2842 59.0688L97.7568 58.9634H97.9209V61.9634H97.8857L95.3428 62.0688L95.2373 62.0806L95.1318 62.0688L92.624 61.7993L90.1514 62.0454H90.0693L87.4209 62.1509L87.3389 62.1626L87.2451 62.1509L84.6084 61.9517V61.9399H82.1826L79.5459 62.1274L79.4639 62.1392L79.3818 62.1274L77.6006 62.0571L76.1592 61.9985V60.4634H77.6592L77.7178 59.0571L79.3936 59.1392L81.9717 58.9517L82.0303 58.9399H82.0889L84.7256 58.9517H84.8428L87.4209 59.1626L89.8584 59.0688L92.4951 58.7993L92.6475 58.7876L92.7998 58.7993Z" fill="black"/>
<path d="M36.1787 58.7993L38.6631 59.0688L41.1357 58.9634H41.2998V61.9634H41.2646L38.7217 62.0688L38.6162 62.0806L38.5107 62.0688L36.0029 61.7993L33.5303 62.0454H33.4482L30.7998 62.1509L30.7178 62.1626L30.624 62.1509L27.9873 61.9517V61.9399H25.5615L22.9248 62.1274L22.8428 62.1392L22.7607 62.1274L20.9795 62.0571L19.5381 61.9985V60.4634H21.0381L21.0967 59.0571L22.7725 59.1392L25.3506 58.9517L25.4092 58.9399H25.4678L28.1045 58.9517H28.2217L30.7998 59.1626L33.2373 59.0688L35.874 58.7993L36.0264 58.7876L36.1787 58.7993Z" fill="black"/>
<path d="M31.334 63.0342L33.4785 63.9482L33.7246 64.0537L33.9238 64.2412L35.8223 66.0459L36.0098 66.2334L36.127 66.4795L37.2871 68.8467L37.416 69.0928L37.4395 69.374L37.6738 71.9756V72.0342L37.8027 74.6006L38.0605 77.2373L38.0723 77.3896L38.0605 77.542L37.7793 80.0264L37.8848 82.499V82.6396L34.8848 82.6865V82.6279L34.7793 80.085V79.9678L34.791 79.8623L35.0488 77.3662L34.8145 74.8818V74.8467L34.8027 74.8115L34.6855 72.2451L34.4629 69.8896L33.5371 68.0264L32.0371 66.5967L30.9004 66.1045L29.7285 66.9131L28.7324 68.9639L27.9355 70.9795L28.0059 73.2998V73.3936L27.9941 73.499L27.7129 76.0186L27.7832 78.5732L27.8535 81.21V84.9365L25.8145 84.1631L25.5801 84.0693L26.0723 82.7568H24.8535V81.3037L24.7832 78.6553L24.7129 76.0186V75.9131L24.7246 75.8076L25.0059 73.2881L24.9355 70.7568V70.4521L25.041 70.1709L25.9902 67.7568L26.0137 67.71L26.0371 67.6514L27.209 65.2607L27.373 64.8975L27.7012 64.6748L29.8926 63.1748L30.5723 62.7061L31.334 63.0342Z" fill="black"/>
<path d="M59.8564 48.2344L62.2002 49.0195L62.7275 49.1953L63.0088 49.6758L64.3447 51.9141L64.7666 52.6406L64.3916 53.3789L63.1846 55.6992L62.9736 56.1094L62.5518 56.332L60.3018 57.5156L59.6689 56.3086L59.5869 56.2969L59.4111 56.3438L58.8135 57.5391L56.6221 56.4375L56.2119 56.2266L55.9893 55.8281L54.7588 53.6367L54.4189 53.0156L54.6768 52.3594L55.6025 49.957L55.8486 49.3125L56.5049 49.0781L58.8838 48.2344L59.376 48.0586L59.8564 48.2344ZM58.1455 51.6797L57.7236 52.7812L58.3682 53.9531L59.5283 54.5273L60.7354 53.8945L61.333 52.7227L60.7119 51.6797L59.3994 51.2344L58.1455 51.6797Z" fill="black"/>
<path d="M88.8301 97.3003L90.9746 98.7651L91.1738 98.9058L91.3262 99.105L93.084 101.449L93.1543 101.718L93.834 104.238L93.8574 104.367L93.8691 104.484L94.127 107.085V107.109L94.3379 109.746L94.3496 109.886L94.3379 110.027L94.0801 112.511L94.3379 114.878L94.3496 114.914V115.054L92.8613 115.136L91.3613 115.218L91.3496 115.125V115.113L91.0801 112.675L91.0566 112.511L91.0801 112.359L91.3262 109.828L91.1387 107.367L90.9043 104.953L90.3301 102.773L89.0645 101.097L87.8691 100.265L86.7207 100.828L85.2559 102.199L84.6465 104.367L84.166 106.593L84.3184 109.054L84.3301 109.207L84.3066 109.347L83.9668 111.867L84.1543 114.281L84.2129 115.007L82.7246 115.136L81.2246 115.265L81.166 114.55V114.527L80.9668 111.89L80.9551 111.738L80.9785 111.585L81.3184 109.089L81.166 106.593L81.1543 106.382L81.2012 106.195L81.7402 103.652L81.7637 103.558L82.4785 100.992L82.5957 100.582L82.9004 100.3L84.8574 98.4839L85.0215 98.3315L85.2207 98.2378L87.3301 97.1948L88.1152 96.8081L88.8301 97.3003Z" fill="black"/>
<path d="M31.5645 96.9023L33.9316 98.1211L34.2715 98.2969L34.4824 98.6133L35.959 100.805L37.4473 103.008L37.6582 103.324L37.7051 103.711L37.9512 106.371L37.9629 106.395V106.418L38.127 109.055L38.1387 109.195L38.1152 109.336L37.8105 111.844L37.8926 114.387L37.9043 114.422L37.8926 114.457L37.8809 115.172L36.3809 115.137L34.8809 115.113L34.8926 114.41L34.8105 111.844L34.7988 111.727L34.8223 111.609L35.1152 109.125L34.9629 106.605V106.594L34.752 104.379L33.4746 102.48H33.4629L32.209 100.605L31.1074 100.031L29.9707 101.062L28.6113 102.867L27.6973 104.871L27.6504 107.156L27.9551 109.688L27.9785 109.852L27.9551 110.027L27.6738 112.664L27.6035 115.078V115.23L26.1035 115.137L24.6035 115.055L24.6152 114.949L24.6738 112.465L24.6855 112.406V112.336L24.9551 109.863L24.6621 107.414L24.6504 107.309V107.203L24.709 104.531V104.227L24.8379 103.945L25.9277 101.52L25.998 101.367L26.1035 101.227L27.6855 99.1289L27.7676 99.0117L27.873 98.918L29.877 97.125L30.6387 96.4219L31.5645 96.9023Z" fill="black"/>
<path d="M95.3896 17.5405L97.9678 17.9155L100.405 17.9976H100.452V19.4976L100.464 20.9976H100.3L97.7686 20.9038H97.6865L97.6045 20.8921L95.2021 20.5405L92.8467 20.9858L92.7529 21.0093H92.6709L90.0225 21.1968H89.8232L87.1865 21.021V21.0093H84.7256L82.0889 21.1616L82.0186 21.1733H81.9365L79.2998 21.0562H79.1943L76.8037 20.7749L74.8232 21.1851L73.0186 21.5483L73.0303 19.7085V19.4858H74.4951L74.2256 18.2437L76.417 17.7983L76.6514 17.7515L76.8857 17.7749L79.417 18.0679L81.9717 18.1733L84.5498 18.0093H84.6553L87.292 18.021H87.3857L89.917 18.1968L92.3779 18.0327L94.8975 17.5522L95.1436 17.5054L95.3896 17.5405Z" fill="black"/>
<path d="M45.9297 19.4917H44.4648L44.7109 20.7573L42.3789 21.1909L42.1445 21.2261L41.9219 21.2026L39.3672 20.8862L36.7773 20.8276V20.8159L34.293 21.0151H34.1758L31.5391 21.0034H31.457L28.8555 20.8511L26.3242 20.9565H26.3008L23.6641 21.0151L23.6055 21.0269L23.5352 21.0151L20.9688 20.8628L18.5312 20.9917H18.3555V17.9917H18.3789L20.9102 17.8628H21.0742L23.5938 18.0269V18.0151L26.207 17.9683V17.9565L28.832 17.8511H28.9023L28.9844 17.8628L31.6211 18.0034L31.6094 18.0151H34.0703L36.707 17.8276H36.8594L39.5078 17.8979H39.5664L39.6367 17.9097L42.0391 18.2026L44.1602 17.8042L45.9297 17.4761V19.4917Z" fill="black"/>
<path d="M90.7158 13.5093L93.2002 13.7788L95.6729 13.6733H95.8369V16.6733H95.8018L93.2588 16.7788L93.1533 16.7905L93.0361 16.7788L90.54 16.5093L88.0674 16.7554H87.9736L85.3369 16.8608L85.2549 16.8726L85.1611 16.8608L82.5244 16.6616V16.6499H80.0166L79.1846 16.6733L79.1143 13.6733L79.958 13.6499H80.0049L82.6416 13.6616H82.7588L85.3369 13.8726L87.7744 13.7788V13.7671L90.4111 13.5093L90.5635 13.4976L90.7158 13.5093Z" fill="black"/>
<path d="M34.5811 13.5396L37.0889 13.8677L39.5381 13.8208H39.6787L39.667 15.3208L39.6436 16.8208H39.585L37.042 16.8677H36.9365L36.8311 16.856L34.3701 16.5278L31.874 16.7505H31.8037L29.167 16.856H29.0146L26.4131 16.6919L23.9404 16.7622L23.9521 16.7739L23.4014 16.8208L23.2725 15.3208L23.1436 13.8325L23.6943 13.7856L23.7412 13.7739H23.7764L26.4131 13.6919H26.5537L29.1318 13.856L31.6162 13.7622L34.2646 13.5278L34.417 13.5161L34.5811 13.5396Z" fill="black"/>
<path d="M59.4746 40.168L61.5254 40.918L61.8535 41.0352L62.0996 41.293L63.916 43.2148L63.9863 43.3086L65.627 45.3359L67.3496 47L69.3652 48.7227L69.5059 48.8516L69.623 48.9922L70.9941 50.9258L72.8809 52.1211L73.0098 52.2148L73.127 52.3203L73.1973 52.3906L72.1426 53.457L71.8027 53.7969L71.2637 54.6523L69.1309 53.293L68.8848 53.1406L68.7207 52.9062L67.2793 50.8789L65.4043 49.2852L65.3691 49.2617L65.334 49.2266L63.4355 47.3867L63.3184 47.2461L61.7246 45.2773L60.1543 43.6016L59.334 43.3086L58.1504 44.4922L58.1035 44.5273L58.0684 44.5625L56.1934 46.1211L54.8105 48.1836L54.7168 48.3125L54.5996 48.4297L52.6895 50.2578L51.1191 52.1562L51.0137 52.2852L50.8848 52.3906L48.7871 54.0195L48.6465 54.1133L47.5918 54.7461L46.8184 53.457L46.0449 52.1797L46.959 51.6289L48.9043 50.1289L50.498 48.207L50.5566 48.1367L50.6152 48.0781L52.4082 46.3672L53.8262 44.293L53.9434 44.1172L54.0957 43.9766L56.1348 42.2656L57.916 40.5078L58.5957 39.8516L59.4746 40.168Z" fill="black"/>
<path d="M32.8193 71.4878V71.5229L32.9248 74.0659L32.9365 74.1714L32.9248 74.2886L32.6553 76.7612L32.9014 79.2573V79.3511L33.0068 81.9878L33.0186 82.2456L32.9482 82.5034L32.749 83.1128L31.3193 82.6558L29.8896 82.2104L30.0186 81.8354L29.9131 79.5503L29.6553 76.9136L29.6436 76.7612L29.6553 76.6089L29.9248 74.0659L29.8193 71.6519V71.4878H32.8193Z" fill="black"/>
<path d="M89.1465 71.5229L89.252 74.0659V74.1714L89.2402 74.2886L88.9824 76.7612L89.2285 79.2573V79.3394L89.3457 81.9644V82.0698L89.334 82.1636L89.2871 82.7964L87.7871 82.6558L86.2988 82.5269L86.3457 81.9644L86.2285 79.4683L86.2402 79.4565L85.9824 76.9136L85.9707 76.7612L85.9824 76.6089L86.252 74.0659L86.1465 71.6519V71.5112L89.1465 71.4644V71.5229Z" fill="black"/>
<path d="M79.1035 8.60498L79.2793 8.87451L79.3145 9.19092L79.6543 11.6636L80.3574 14.1831L80.416 14.3823V14.5933L80.3926 17.2417V17.4058L80.1816 19.2222L78.6934 19.0464L78.8574 20.5347H78.8457L76.9824 20.7456L77.1934 18.8706L77.3926 17.1597L77.4043 14.8042L76.748 12.4253L76.7246 12.3315L76.7129 12.2261L76.3965 9.91748L75.2129 8.01904L75.0605 7.78467L75.0137 7.50342L74.9902 7.40967L76.7129 7.08154L77.7559 6.43701L79.1035 8.60498Z" fill="black"/>
<path d="M22.9648 8.53467L23.1523 8.81592L23.1875 9.15576L23.5039 11.6284L24.3008 14.0425L24.3711 14.2534V14.4878L24.418 17.1362V17.2651L24.4062 17.3823L24.1484 19.1167L22.6719 18.894L22.7188 20.394H22.707L20.9258 20.4526L21.1836 18.6831L21.4062 17.0425L21.3711 14.7339L20.6211 12.4722L20.5742 12.3315L20.5625 12.1909L20.2578 9.88232L19.0625 8.04248L18.8984 7.80811L18.8398 7.52686L18.8281 7.43311L20.293 7.12842L20.5273 7.08154L21.5703 6.40186L22.9648 8.53467Z" fill="black"/>
<path d="M98.1982 7.21875L98.5146 7.27734L99.9912 7.55859L99.9678 7.66406L99.9326 7.86328L99.8389 8.05078L98.7607 10.1602L97.9756 12.3867L97.7646 14.6602L97.9521 17.2266L97.9639 17.3672L97.9521 17.5195L97.7646 19.0781L96.2764 18.9023L96.2178 20.3906H96.2061L94.5889 20.3203L94.7881 18.7148L94.9639 17.3203L94.7646 14.8242L94.7529 14.6953L94.7646 14.5781L95.0107 11.9414L95.0342 11.7539L95.0928 11.5781L95.96 9.09375L95.9951 9L96.042 8.90625L97.167 6.69141L98.1982 7.21875Z" fill="black"/>
<path d="M41.8555 7.67773L42.1953 7.72461L43.6719 7.98242L43.6602 8.07617L43.625 8.28711L43.5312 8.47461L42.5352 10.5488L41.7031 12.7988L41.6328 15.1426L41.8789 17.6504L41.9023 17.8027L41.8789 17.9551L41.75 19.1973L38.7734 18.8926L38.8906 17.791L38.6328 15.3301V15.1426L38.7148 12.4824V12.248L38.7969 12.0254L39.7109 9.51758L39.7344 9.44727L39.7695 9.38867L40.8242 7.17383L41.8555 7.67773Z" fill="black"/>
<path d="M31.9912 81.1777L34.4521 81.623H36.8545L39.4912 81.4355H39.6553L41.3662 81.5176L42.8076 81.5762V83.1113H41.3076L41.2373 84.5059L39.6318 84.4355L37.0537 84.623H34.1826L34.0537 84.5996L31.6748 84.166L29.249 84.4707H29.2256L26.5889 84.7402L26.4131 84.7637L26.249 84.7402L23.7061 84.4238L21.3037 84.459H21.1631L21.21 81.459H21.2686L23.7764 81.4238H23.8818L23.9756 81.4355L26.46 81.752L28.9209 81.4824V81.4941L31.5459 81.166L31.7686 81.1426L31.9912 81.1777Z" fill="black"/>
<path d="M92.7998 81.4443L95.2842 81.7139L97.7568 81.6084H97.9209V84.6084H97.8857L95.3428 84.7139L95.2373 84.7256L95.1318 84.7139L92.624 84.4443L90.1514 84.6904H90.0693L87.4209 84.7959L87.3389 84.8076L87.2451 84.7959L84.6084 84.5967V84.585H82.1826L79.5459 84.7725L79.4639 84.7842L79.3818 84.7725L77.6006 84.7021L76.1592 84.6436V83.1084H77.6592L77.7178 81.7021L79.3936 81.7842L81.9717 81.5967L82.0303 81.585H82.0889L84.7256 81.5967H84.8428L87.4209 81.8076L89.8584 81.7139L92.4951 81.4443L92.6475 81.4326L92.7998 81.4443Z" fill="black"/>
<path d="M60.9805 34.3921V34.4272L61.0859 36.9702L61.0977 37.0757L61.0859 37.1929L60.8281 39.5952L61.0391 40.8257L61.3672 42.5952H59.4805V41.1069L58.0977 41.3647L57.8398 39.9351L57.793 39.7241L57.8164 39.5132L58.0859 36.9702L57.9805 34.5562V34.3921H60.9805Z" fill="black"/>
<path d="M59.4336 62.7222L61.918 62.6401L62.457 62.6284L62.8906 62.9565L64.9883 64.5972L65.1055 64.6909L66.957 66.4722L67.1562 66.6714L67.2734 66.9175L68.3867 69.2847L68.4922 69.519L68.5156 69.7769L68.7734 72.4019L68.8086 72.7769L68.668 73.1284L67.6484 75.5425L67.6016 75.6479L67.5312 75.7534L66.1602 77.9331L65.9727 78.2261L65.6914 78.4019L63.5 79.7847L63.4297 79.8315L63.3477 79.8667L60.9453 81.0151L60.5 81.2261L60.0078 81.1323L57.3945 80.6284L57.1953 80.5933L57.0078 80.4995L54.6992 79.3276L54.5469 79.2573L54.418 79.1519L52.4023 77.4878L52.1562 77.3003L52.0156 77.019L50.8086 74.6753L50.668 74.394L50.6445 74.0776L50.5039 71.4761V71.3003L50.5273 71.1362L50.9727 68.5933L51.0195 68.3823L51.1133 68.1831L52.2852 65.8042L52.4727 65.4292L52.8359 65.2065L55.0742 63.7886L55.1914 63.7183L55.3203 63.6597L57.6758 62.7222L58.1562 63.9526L58.2852 64.0347L58.4141 64.1284L58.4375 64.0347L58.7539 62.5698L59.4336 62.7222ZM56.5859 66.3784L54.793 67.5034L53.8906 69.3081L53.5039 71.4644L53.6211 73.5854L54.5352 75.3667L56.1523 76.6909L58.1797 77.7222L60.0898 78.0854L61.9648 77.1948L63.793 76.0464L64.9062 74.2886L65.7383 72.3198L65.5508 70.3042L64.6836 68.4409L63.043 66.8823L61.4727 65.6519L59.3516 65.7222L59.1758 65.7339L59 65.6987L58.5547 65.5933L56.5859 66.3784Z" fill="black"/>
<path d="M111.312 114.289L112.355 114.547L111.652 117.453L110.891 117.266L108.547 117.629L108.453 117.652H108.359L105.723 117.723H105.582L103.051 117.301L100.672 117.734L100.438 117.781L100.203 117.746L97.6367 117.406H95.2344L92.5977 117.629L92.4922 117.641L92.3984 117.629L89.75 117.477V117.465L87.2773 117.348L84.7812 117.734L84.582 117.77L84.3945 117.746L81.8516 117.453L79.2969 117.477L79.2852 117.465L76.7773 117.711L76.6133 117.723L76.4492 117.699L73.918 117.383L71.3867 117.43H71.3281L68.6914 117.371H68.6445L66.1719 117.23L63.7109 117.699L63.4766 117.746L63.2305 117.711L60.7227 117.348L58.2383 117.488H58.0156L55.5898 117.242L53.1406 117.676L52.8828 117.723L52.6133 117.676L50.1172 117.242L47.6914 117.395H47.668L47.6445 117.406L42.3711 117.57H42.2539L42.1367 117.559L39.5938 117.254L37.1328 117.418L37.0508 117.43L36.957 117.418L34.5078 117.277L32 117.699L31.7891 117.734L31.5781 117.711L29.0234 117.395L26.5391 117.324L23.9492 117.512L23.8906 117.523H23.832L21.1953 117.512H21.0781L18.5 117.301L16.0508 117.395L16.0625 117.406L13.4258 117.664L13.2734 117.676L13.1211 117.664L10.625 117.395L8.16406 117.5H8V114.5H8.03516L10.5781 114.395L10.6836 114.383L10.8008 114.395L13.2852 114.664L15.7695 114.418H15.8633L18.5 114.312L18.5938 114.301L18.6758 114.312L21.3125 114.512L21.3008 114.523H23.7383L26.375 114.336L26.4453 114.324L26.5273 114.336L29.1641 114.406H29.2344L29.293 114.418L31.7305 114.699L34.1562 114.301L34.3203 114.277L34.4844 114.289L37.0156 114.43L39.582 114.254L39.7227 114.242L39.8633 114.266L42.3711 114.57L44.9141 114.488L47.5039 114.418V114.406L50.1523 114.242L50.3281 114.23L50.5039 114.266L52.8828 114.688L55.2617 114.266L55.4609 114.23L55.6602 114.242L58.1328 114.488L60.7227 114.348L60.8633 114.336L61.0156 114.359L63.418 114.711L65.8086 114.266L65.9844 114.23L66.1602 114.242L68.7969 114.371L68.7852 114.383L71.3633 114.43L73.9766 114.383H74.082L74.1875 114.395L76.6836 114.711L79.1445 114.477H79.2734L81.9102 114.453H82.0039L82.0859 114.465L84.5469 114.746L86.9727 114.371L87.125 114.348L87.2773 114.359L89.9141 114.488H89.9258L92.4453 114.641L95 114.43L95.0586 114.418H95.1055L97.7539 114.406H97.8594L97.9648 114.418L100.367 114.746L102.77 114.312L103.027 114.266L103.285 114.301L105.816 114.723L108.137 114.664L110.738 114.266L111.031 114.219L111.312 114.289Z" fill="black"/>
</svg>
