<svg width="120" height="120" viewBox="0 0 120 120" fill="none" xmlns="http://www.w3.org/2000/svg">
<path d="M59.1523 11H62V11.2109L61.8008 13.6719L61.8633 15.0244L63.8164 14.8945L64.6484 14.8359L65.1289 15.5039L65.2109 15.6094L64.0039 16.5L63.9219 16.5586L64.0156 17.8828L62.0518 18.0137L62.1055 18.8164V18.9102L62.1172 21.5469L62.1289 21.7109L62.0938 21.8633L61.9004 22.8066L62.7031 24.1797L62.7148 24.2148L62.7383 24.25L63.9453 26.5938L63.9805 26.6523L64.0039 26.6992L65 29.0898H65.0117L66.1133 31.4922L66.125 31.5273L66.1484 31.5742L67.0742 33.9531L68.2695 36.2148L68.293 36.25L68.3047 36.2852L69.4062 38.6641L70.5312 41.0078L71.832 43.2344L71.9023 43.3633L71.9492 43.5039L72.793 45.9414L73.8828 48.2383L75.125 50.4648V50.4766L75.1367 50.4883L76.3789 52.8203L76.4141 52.9023L76.4492 52.9961L77.168 54.8672L77.2461 54.875L77.2559 55.0957L77.3633 55.375L77.2695 55.4053L77.3047 56.1758L77.4219 58.8125L77.4336 58.8477V58.8945L77.4102 61.5312L77.4453 64.1445L77.668 66.6758L77.6797 66.8164L77.6562 66.9688L77.375 69.4531L77.3867 71.9844L77.5625 74.6211V74.6445L77.6914 77.293V77.4688L77.6172 78.458L77.6211 78.4609L79.6367 78.7188L82.0508 78.2617L82.2969 78.2148L82.5312 78.25L85.1094 78.5898L87.5352 78.6953L90.0078 78.2852L90.125 78.2617H90.2422L92.8789 78.2383H93.0312L93.1836 78.2734L95.5859 78.7422L98.0234 78.4961L98.4688 78.4492L98.8555 78.6484L100.473 79.4805L101.176 79.832L101.281 80.6172L101.645 83.2539L101.668 83.4531L101.645 83.6523L101.293 86.207L101.27 88.5625L101.703 91.1289L101.727 91.2344V91.3516L101.762 93.9883V94.1055L101.75 94.2109L101.441 96.584L102.484 96.5938L102.473 96.582L105.109 96.5703H106.129L106.516 97.5078L107.195 99.1953L107.289 99.418L107.301 99.6523L107.477 102.301L107.488 102.336V102.383L107.512 104.984L107.617 107.621V107.738L107.523 110.375V110.41L107.512 110.457L107.289 112.93L107.317 114.531L108.406 114.746L110.809 114.5L110.891 114.488H110.973L112.016 114.5L112.004 116L111.98 117.5L110.984 117.488L108.477 117.746L108.254 117.77L108.031 117.734L105.57 117.242L104.691 117.246L103.938 117.336L103.867 117.348H103.797L102.431 117.377L100.648 117.688L100.496 117.711L100.332 117.699L97.6953 117.594H97.625L97.5547 117.582L97.2275 117.535L96.0508 117.699L95.8984 117.723L95.7461 117.711L93.4404 117.577L92.7617 117.711L92.5273 117.758L92.293 117.734L89.7383 117.406H89.5342L88.0938 117.57L87.9648 117.582H87.8242L85.7832 117.45L84.6055 117.488H84.5938L83.584 117.51L82.7148 117.559H82.5859L82.4688 117.547L82.3867 117.537L81.957 117.547H81.9336L79.3672 117.559L79.3789 117.57L77.9414 117.666L77.4531 117.758L77.2656 117.746L77.0117 117.728L76.7422 117.746L76.5547 117.758L76.0195 117.657L74.6289 117.559L72.0625 117.547H72.0508L71.6191 117.537L71.5391 117.547L71.4102 117.559H71.2812L70.4072 117.51L69.4023 117.488L68.207 117.451L66.1719 117.582H66.043L65.9141 117.57L64.6299 117.425L63.1641 117.484L63.1523 117.473L60.5977 117.707L60.5156 117.719L60.4453 117.707L58.7148 117.684L58.25 117.711L58.0977 117.723L57.957 117.699L57.6699 117.659L55.1719 117.648H54.457L54.2461 117.383L53.2461 117.406L50.5977 117.488L47.9492 117.547H47.9375L45.3711 117.559L42.7344 117.746L42.5469 117.758L41.4678 117.555L39.7344 117.617H39.6172L37.6143 117.536L37.5312 117.547L37.4141 117.559H37.2852L36.1523 117.496L34.3906 117.488H34.3438L34.2969 117.477L34.0645 117.46L32.1758 117.582H32.0352L31.9062 117.57L30.2051 117.377L29.1875 117.43H29.1055L28.1748 117.425L26.9609 117.559H26.8906L24.2539 117.711L24.1016 117.723L23.9492 117.699L22.7695 117.535L21.3242 117.664L21.1836 117.676L21.0312 117.664L18.6758 117.402L17.9121 117.385L15.9219 117.395V117.383L13.3789 117.559H13.3672L13.3555 117.57L10.707 117.688L10.6133 117.699L10.5312 117.688L7.98828 117.5L8 117.277V114.5H8.21094L10.6719 114.699L12.6807 114.604L12.7109 112.93L12.4883 110.457L12.4766 110.41V110.375L12.3828 107.738V107.621L12.4883 104.984L12.5117 102.383V102.336L12.5234 102.301L12.6992 99.6523L12.7109 99.418L12.8047 99.1953L13.4844 97.5078L13.8711 96.5703H14.8906L17.5273 96.582L17.5156 96.5938L18.5967 96.583L18.6992 95.3125L18.5703 92.8164L18.3945 90.1797V90.0859L18.3828 87.4492L18.3711 87.3555L18.3828 87.2734L18.6641 84.7539L18.4531 82.293L18.4297 82.0469L18.4883 81.8125L19.0156 79.5625L19.2969 78.4023L20.4922 78.4141H23.0469L25.6953 78.3086H25.8594L28.5078 78.4844H28.4961L31.0508 78.5078H31.0977L33.6875 78.6133L36.2656 78.5195L38.832 78.2969L38.9023 78.2852H38.9844L41.5508 78.3203L42.5664 78.2764L42.5117 76.6016V76.5898L42.4531 73.9531V73.9414L42.4297 71.375L42.2539 68.7383L42.2422 68.5508L42.7344 65.9258L42.4531 63.5352L42.4414 63.4062V63.2891L42.582 60.7109L42.418 58.168L42.4062 57.875L42.5 57.5938L43.1445 55.7305L43.1729 55.6455L42.6172 55.4102L43.1094 54.2734V54.2617L43.1211 54.2383L44.2227 51.8359L45.1484 49.457L45.2188 49.2812L45.3359 49.1172L46.7539 47.1367L47.5508 44.8281L47.5859 44.7109L47.6445 44.5938L48.8398 42.3203L49.8008 39.9648L49.8477 39.8359L49.918 39.7305L51.2188 37.6094L52.0508 35.2539L52.0625 35.2188L52.0742 35.1953L53.0469 32.7344L53.1055 32.5938L53.1875 32.4766L54.5938 30.2969L55.6016 28.0352L55.6133 28.0117L55.6367 27.9766L56.7969 25.6328L57.9336 23.2539L57.9688 23.1836L58.0156 23.1133L58.8008 21.8594L59.1055 21.3662V18.9219L59.0566 18.1719L58.707 18.1875L58.6133 18.1992L58.5312 18.1875L55.9883 18L56 17.8594V15H56.2109L58.6719 15.1992L58.8779 15.1895L58.8125 13.707L58.8008 13.6133L58.8125 13.5312L59 10.9883L59.1523 11ZM85.2109 99.418L85.1406 99.7227L83.875 99.6523L81.5078 99.5L79.2109 100.215L79.1875 100.227H79.1641L76.9023 100.848L75.1211 102.383L75.0977 102.406L75.0625 102.43L73 104.012L72.9883 104.023V104.035L71.0664 105.465L69.8711 107.305L69.0391 109.66L69.0039 109.777L68.9336 109.895L67.7969 111.922L67.7148 113.949L67.8789 114.441L68.252 114.452L68.6328 114.43L68.7148 114.418L68.7969 114.43L70.3086 114.506L71.5361 114.533L73.8242 114.266L74.0586 114.23L74.2812 114.277L76.3984 114.672L77.0898 114.712L77.4629 114.688L79.7266 114.277L79.9492 114.23L80.1719 114.266L82.5391 114.532L83.3887 114.513L85.1992 114.43L85.2812 114.418L85.375 114.43L85.8125 114.453L87.1602 114.418H87.1953L89.3408 114.408L90.3906 114.289L90.5547 114.277L90.7188 114.289L93.2852 114.559L93.3164 114.56L94.8359 114.266L95.082 114.219L95.3164 114.254L97.2012 114.511L98.2773 114.359L98.3945 114.348H98.5117L101.125 114.395L102.229 114.374L102.793 114.277L102.91 114.266H103.027L104.312 114.254L104.289 112.988V112.824L104.523 110.188L104.617 107.738L104.512 105.102V105.055L104.488 102.5L104.336 100.098L104.113 99.5703L102.484 99.582H102.461L99.8242 99.5586H99.7656L99.707 99.5469L97.2461 99.3359L94.7266 99.6172L94.6445 99.6289L94.5508 99.6172L91.9141 99.6055H91.8203L89.1836 99.4297L89.1953 99.418L86.6875 99.3008L85.2109 99.418ZM59.4375 89.5703L57.5742 90.3438L56.2852 91.9258L55.3125 93.7188L55.5469 95.9102L55.5586 96.0273V96.1445L55.418 98.6875L55.582 101.254V101.383L55.5703 101.512L55.2891 103.984L55.5586 106.469V106.539L55.7109 109.176L55.7227 109.328L55.6992 109.469L55.3477 112L55.3945 114.004L55.667 114.353L55.7305 114.359L57.8682 114.672L58.7871 114.685L60.7109 114.559V114.57L63.2891 114.289L63.4414 114.277L63.6055 114.289L64.3877 114.381L64.4883 113.547L64.5117 110.957V110.922L64.5234 110.875L64.6875 108.297L64.5703 105.766V105.684L64.582 103.047L64.5586 100.539L64.3359 97.9023L64.3242 97.7617L64.3359 97.6094L64.6055 95.0781L64.4531 92.957L63.4336 91.2461L61.8398 90.1211L59.7305 89.5352L59.4375 89.5703ZM30.8047 99.418L30.8164 99.4297L28.1797 99.6055H28.0859L25.4492 99.6172L25.3555 99.6289L25.2734 99.6172L22.7539 99.3359L20.293 99.5469L20.2344 99.5586H20.1758L17.5391 99.582H17.5156L15.8867 99.5703L15.6641 100.098L15.5117 102.5L15.4883 105.055V105.102L15.3828 107.738L15.4766 110.188L15.7109 112.824V112.988L15.6875 114.266L16.3203 114.348L18.2969 114.384L18.5469 114.383L18.6406 114.371L18.7227 114.383L18.8174 114.393L18.875 114.395L21.4883 114.348H21.6055L21.7227 114.359L22.8867 114.522L23.7148 114.453L23.7617 114.441H23.8203L26.4688 114.418H26.4922L27.9883 114.425L29.2812 114.289L29.4453 114.277L29.6094 114.289L30.3418 114.372L31.6953 114.312L31.7773 114.301L31.8594 114.312L34.0791 114.459L34.625 114.43L34.7188 114.418L34.8008 114.43L36.5195 114.509L37.0508 114.512H37.0977L37.498 114.527L39.8281 114.266L40.0508 114.23L40.2734 114.277L41.7666 114.549L42.1836 114.535L44.832 114.289H44.9844L47.6211 114.336L47.6094 114.348H50.2695L52.1377 114.389L52.2852 113.949L52.2031 111.922L51.0664 109.895L50.9961 109.777L50.9609 109.66L50.1289 107.305L48.9336 105.465L47.0117 104.035V104.023L47 104.012L44.9375 102.43L44.9023 102.406L44.8789 102.383L43.0977 100.848L40.8359 100.227H40.8125L40.7891 100.215L38.4922 99.5L36.125 99.6523L34.8594 99.7227L34.7891 99.418L33.3125 99.3008L30.8047 99.418ZM56.9727 72.5664H56.9492L56.9258 72.5781L54.5469 72.8828L52.4844 74.0078L50.4102 75.4258L50.375 75.4492L50.3398 75.4609L48.2656 76.7148L46.7422 78.4492L45.207 80.582L44.7852 81.1797L44.0586 81.2148L41.6797 81.332H41.5742L39.0547 81.2852L36.4531 81.5195H36.3711L33.7344 81.6133L33.6758 81.625L33.6172 81.6133L30.9805 81.5078V81.4961L28.3906 81.4844H28.2969L25.8125 81.2969L25.8242 81.3086L23.1875 81.4258H23.1055L21.6523 81.4141L21.4531 82.2695L21.6641 84.6719L21.6758 84.8125L21.6641 84.9648L21.3828 87.4492L21.3945 90.0742L21.5586 92.6172V92.6289L21.5703 92.6523L21.6875 95.2891L21.6992 95.3828L21.6875 95.4766L21.6172 96.4248L22.6719 96.3359L22.8125 96.3242L22.9648 96.3359L25.4844 96.6172L27.0879 96.6094L26.9414 94.3789V94.3672L26.9297 94.3555L26.8125 91.707L26.8008 91.6133L26.8125 91.5312L27 88.9883L27.1406 89H30V89.2109L29.8008 91.6719L29.918 94.1797H29.9297L30.082 96.4775L30.6172 96.4414H30.6289L30.6523 96.4297L33.2891 96.3125L33.3828 96.3008L33.4766 96.3125L35.0781 96.4297L34.9414 94.3789V94.3672L34.9297 94.3555L34.8125 91.707L34.8008 91.6133L34.8125 91.5312L35 88.9883L35.1523 89H38V89.2109L37.8008 91.6719L37.918 94.1797H37.9297L38.0859 96.5303L38.6094 96.5L38.8789 96.4766L39.1484 96.5586L41.6797 97.3555L43.1094 97.7451L43.1055 96.9219H43.1172L42.9414 94.3789V94.3672L42.9297 94.3555L42.8125 91.707L42.8008 91.6133L42.8125 91.5312L43 88.9883L43.1758 89H46V89.2109L45.8008 91.6719L45.918 94.1797H45.9297L46.1055 96.8164V96.9102L46.1162 99.501L46.7539 100.051L48.8047 101.621L50.9492 103.227L51.1719 103.391L51.3125 103.613L52.418 105.316L52.2891 104.137L52.2773 103.984L52.2891 103.82L52.582 101.324L52.4297 98.793L52.418 98.7109L52.4297 98.6289L52.5586 96.0625L52.2891 93.5547L52.2422 93.0977L52.4648 92.6875L53.7305 90.3438L53.8008 90.2148L53.8945 90.1094L55.5234 88.1406L55.7578 87.8477L56.1094 87.707L58.5117 86.7227L58.6992 86.6523L58.8984 86.6289L59.8125 86.5117L60.7148 86.3945L60.9727 86.793L62.8711 87.2969L63.1172 87.3672L63.3398 87.5195L65.4375 88.9961L65.6953 89.1719L65.8594 89.4531L67.207 91.7148L67.3828 92.0195L67.418 92.3711L67.6172 95.0195L67.6289 95.1602L67.6172 95.3008L67.3359 97.8086L67.5469 100.281L67.5586 100.34V100.398L67.582 103.035V103.059L67.5713 105.331L68.6875 103.613L68.8281 103.391L69.0508 103.227L71.1953 101.621L73.2461 100.051L75.2148 98.3516L75.4609 98.1289L75.7891 98.0469L76.1074 97.959L75.0117 97.8477L75.1055 96.8633L74.9414 94.3789V94.3672L74.9297 94.3555L74.8125 91.707L74.8008 91.6133L74.8125 91.5312L75 88.9883L75.1406 89H78V89.2109L77.8008 91.6719L77.918 94.1797H77.9297L78.1055 96.8164L78.1172 96.9453L78.1055 97.0742L78.0674 97.4238L78.3203 97.3555L80.8516 96.5586L81.1211 96.4766L81.3906 96.5L82.7969 96.582L82.8086 96.5H83.083L82.9414 94.3789V94.3672L82.9297 94.3555L82.8125 91.707L82.8008 91.6133L82.8125 91.5312L83 88.9883L83.1523 89H86V89.2109L85.8008 91.6719L85.918 94.1797H85.9297L86.0732 96.3447L86.5234 96.3125L86.6172 96.3008L86.7109 96.3125L89.3477 96.4297L89.3711 96.4414H89.3828L91.085 96.5586L90.9414 94.3789V94.3672L90.9297 94.3555L90.8125 91.707L90.8008 91.6133L90.8125 91.5312L91 88.9883L91.1406 89H94V89.2109L93.8008 91.6719L93.918 94.1797H93.9297L94.0918 96.6152L94.5156 96.6172L97.0352 96.3359L97.1875 96.3242L97.3281 96.3359L98.4365 96.4287L98.75 93.918L98.7266 91.5039L98.293 88.9844L98.2695 88.8555V88.7148L98.3047 86.0781V85.9844L98.3164 85.9023L98.6328 83.4531L98.4102 81.7891L97.8945 81.5195L95.6914 81.7539L95.4688 81.7773L95.2461 81.7305L92.7266 81.2383L90.3594 81.25L87.8633 81.6836L87.7109 81.707H87.5586L84.9102 81.5898H84.8398L84.7695 81.5781L82.3789 81.25L79.9766 81.7188L79.7422 81.7656L79.5078 81.7305L76.8594 81.3906L76.4961 81.3438L76.1914 81.1211L74.6016 80H74.5039V79.9307L74.3633 79.832L74.2109 79.7148L74.082 79.5742L72.4648 77.6406L70.6719 76.0234L68.6562 74.6523L66.3945 73.7148L66.2539 73.6445L64.1797 72.5078L61.8711 72.3672H61.8359L59.3984 72.1562L56.9727 72.5664ZM47.293 57.4414L47.2812 57.4297L45.6641 57.6055L45.4297 58.2734L45.5703 60.6289L45.582 60.7109L45.5703 60.793L45.4414 63.3242L45.7344 65.832L45.7695 66.0547L45.7227 66.2773L45.2539 68.7148L45.418 71.1758L45.4297 71.2227V71.2695L45.4531 73.8828L45.4854 75.3428L46.168 74.5703L46.3203 74.3945L46.5195 74.2773L48.793 72.8945L50.8906 71.4648L50.9609 71.4297L51.0195 71.3945L51.0723 71.3652L50.9414 69.3789V69.3672L50.9297 69.3555L50.8125 66.707L50.8008 66.6133L50.8125 66.5312L51 63.9883L51.1406 64H54V64.2109L53.8008 66.6719L53.918 69.1797H53.9297L53.9805 69.9502L56.5156 69.6016L58.9775 69.1855L58.9531 69.0156L58.9297 68.875L58.8125 66.4844L58.8008 66.3789L58.8125 66.2734L59 63.9766L59.2695 64H62V64.2227L61.8008 66.4492L61.918 68.6172L62.0322 69.374L62.082 69.3789H62.0703L64.7188 69.543L65.0469 69.5547L65.3516 69.7188L67.0254 70.6514L66.9414 69.3789V69.3672L66.9297 69.3555L66.8125 66.707L66.8008 66.6133L66.8125 66.5312L67 63.9883L67.1406 64H70V64.2109L69.8008 66.6719L69.918 69.1797H69.9297L70.1055 71.8164L70.1172 71.9453L70.1104 72.0156L70.2383 72.0977L72.4062 73.5742L72.4883 73.6328L72.5703 73.7031L74.5273 75.4727L74.6055 75.5283L74.5742 74.8203L74.3984 72.1836L74.3867 72.1367V72.0898L74.375 69.4531V69.3594L74.3867 69.2773L74.6562 66.7695L74.4453 64.2852V64.1797L74.4102 61.5312V61.5078L74.4336 58.9531L74.3633 57.5938L73.4492 57.5117V57.5L70.9414 57.4883H70.8945L68.3047 57.3828L65.7969 57.4648L65.8086 57.4766L63.1719 57.7109H63.0195L60.3711 57.6641V57.6523H57.7227L55.1094 57.5938L52.5078 57.6523H52.3906L52.2734 57.6406L49.7773 57.2773L47.293 57.4414ZM59.5039 26.9336V26.9453L59.4922 26.957L58.3203 29.3125L57.2773 31.668L57.2188 31.7852L57.1602 31.8789L55.7539 34.0234L54.8516 36.3086L54.0078 38.7461L53.9492 38.8984L53.8672 39.0391L52.543 41.1602L51.6055 43.5273L51.582 43.6094L51.5352 43.6797L50.3281 45.9297L49.543 48.2969L49.4727 48.5195L49.3438 48.707L47.8789 50.6992L46.9766 53.0078L46.9648 53.0547L46.9531 53.0898L46.2959 54.5205L47.0469 54.4414H47.1055L49.7539 54.2891L49.8945 54.2773L50.0469 54.3008L52.5664 54.6523L55.0859 54.5938H55.1562L57.793 54.6523L57.7812 54.6641H60.4297L63.0312 54.7109L65.5508 54.4883L65.5859 54.4766H65.6211L68.2695 54.3828H68.3867L71.0234 54.4883L71.0117 54.5L73.6133 54.5117H73.6836L73.7539 54.5234L73.8252 54.5303L73.6484 54.0625H73.6367L72.5 51.918L71.2227 49.6094L71.1992 49.5625L71.1758 49.5273L70.0391 47.1484L69.9688 46.9844L69.1602 44.6172L67.9062 42.4492L67.8828 42.4023L67.8477 42.3438L66.6992 39.9648V39.9531L66.6875 39.9414L65.6211 37.6211L64.3789 35.2891L64.3086 35.125L63.3828 32.7461L63.3711 32.7344L63.3477 32.6641H63.3359L62.2812 30.3438L62.2578 30.2969L61.2852 27.9766L60.1016 25.6797L59.5039 26.9336Z" fill="black"/>
</svg>
