<svg xmlns="http://www.w3.org/2000/svg" width="120" height="120" fill="none" viewBox="0 0 120 120"><path fill="#000" d="m62.566 9.273.575 1.055.082.152.773 2.707.012.07.011.083.422 2.426.95 2.343.035.094.023.094.633 2.473.797 2.437.95 2.473.07.234.503 2.543.598 2.52.89 2.355.012.023.903 2.485.023.082.024.094.585 2.59.06.21-.024.211-.153 2.508.246 2.461.422 2.613.012.094v.106l.047 2.46.445 2.579.445 2.613.012.094v.093l.094 2.543.445 2.508.024.13v.128l.011 2.648.036 2.497.457 2.484.492 2.613.035.188-.012.199-.21 2.531.327 2.45.012.07v.07l.082 2.59.41 2.484.012.082v.094l.105 2.484.563 2.473.035.176v2.707l.328 2.531v.012l.328 2.625.012.082v.082l.024 2.508.457 2.496.011.011v.024l.41 2.613.024.153-.012.164-.14 2.531.328 2.484v.071l.011.07.07 2.578.41 2.449.433 2.339.619-.038.047-.012h.035l2.625-.011v-.012l2.636-.059 2.637-.07h.035l2.637-.012h.106l.093.012 2.39.316 2.415-.468.246-.047.234.035 2.578.351 2.379.106 2.52-.434.117-.011h.117l2.637-.024h.152l.153.024 2.437.48 2.403-.246.082-.012h.082l1.043.012-.012 1.5-.024 1.5-.996-.012-2.507.258-.223.024-.223-.036-2.461-.492-2.425.012-2.497.434-.152.023-.164-.012-2.637-.105h-.07l-.07-.012-2.403-.34-2.39.469-.235.047-.234-.024-2.555-.328-2.531.012-.012-.012-2.59.082h-.011l-2.637.059h-.023l-2.567.012.012.011-2.637.176-.187.012-.8-.151-.216.123-.398-.011-2.637-.082h-.106l-.876-.089-.112.011h-.129l-2.304-.127-1.63.099-.07.012-.07-.012-.15-.007-.885.058h-.129l-.129-.012-.62-.07-1.622.023.004-.059-1.637.067h-.14l-.436-.028-.506.056h-.07l-2.637.152-.152.012-.141-.024-.973-.135-.16.014-.164.012-.152-.024-1.604-.207-1.998.047h-.058l-1.88-.042-1.937.343-.129.023h-.14l-2.637-.035-.902-.011-.203-.394-.07-.001-2.497.223-.035.011h-.047l-2.637.094h-.117l-2.636-.105v-.012l-2.59-.012h-.047l-.047-.011-2.578-.176-2.532.129h-.082l-2.636-.012v-.012l-2.508.024-2.637.234-.14.012-.153-.012-2.531-.281-2.578.012v-.012l-2.543.176h-.012l-.012.011-2.648.118-.094.011-.082-.011-2.543-.188.012-.223V114.5h.21l2.462.199 2.508-.117v-.012l2.636-.175h.094l2.637-.012.094-.012.082.012 2.508.281 2.484-.211.047-.012h.058l2.649-.023h.023l2.555.012 2.648-.118.082-.011.082.011 2.649.176-.012.012 2.555.012h.047l2.59.105 2.496-.082 1.574-.146-.13-2.448-.01-.164.023-.164.41-2.461-.059-2.531v-.223l.059-.21.703-2.473.152-2.356-.222-2.53-.012-.153.023-.153.317-2.625.023-.14.504-2.38-.258-2.413-.023-.234.047-.235.527-2.543.2-2.496.128-2.601.012-.012.152-2.637v-.012l.176-2.636.035-2.567v-.187l.059-.188.633-2.355-.082-2.438v-.129l.011-.129.34-2.543.047-2.554v-.13l.023-.128.48-2.461-.058-2.473v-.07l.059-2.637v-.152l.035-.152.54-2.485.151-2.508.012-.035v-.035l.27-2.625.222-2.601v-.024l.246-2.473-.023-2.648v-.07l.117-2.649.012-.175.047-.176.761-2.555.704-2.52.011-.046.012-.035.82-2.426.551-2.496.012-.036.012-.046.691-2.543.656-2.532.434-2.496.023-.152.059-.129.96-2.473.599-2.308.515-2.59v-.024l.563-2.59.257-1.183h1.207l1.77.012.938-1.723zm-3.644 6.282-.024.093-.668 2.555-.046.164-.914 2.32-.434 2.473-.023.117-.657 2.555-.011.012v.011l-.692 2.543-.55 2.508-.047.164L54 33.578l-.68 2.461-.011.012v.011l-.703 2.368-.106 2.46.023 2.567v.164l-.257 2.625-.223 2.613v.012l-.012.012-.27 2.554-.14 2.649-.012.117-.023.117-.55 2.45-.048 2.496.059 2.59.012.163-.036.165-.492 2.484-.035 2.508-.012.082v.082l-.34 2.496.094 2.531.012.235-.059.21-.668 2.438-.023 2.426v.082l-.187 2.636-.153 2.625-.14 2.625v.036l-.2 2.636v.094l-.023.106-.504 2.355.27 2.438.023.246-.047.246-.562 2.531-.293 2.414.222 2.496.012.117-.012.118-.187 2.636-.012.153-.047.14-.668 2.356.059 2.449v.141l-.024.14-.398 2.414.117 2.203.108.213.767.014-.012.012h2.66l.525.011.382-.062.105-.024h.117l2.637-.035h.117l.106.012.844.105.382-.007h.13l.117.011 1.288.189 2.208-.169.105-.012.094.012 2.026.11 1.837-.2.152-.012.164.012.322.037.05-.599-.293-2.508-.024-.223.035-.223.47-2.507-.048-2.356-.469-2.519-.023-.153v-.164l.082-2.636v-.071l.012-.07.293-2.414-.492-2.38-.06-.234.036-.234.293-2.543-.035-2.52-.117-2.624v-.012l-.094-2.637v-.023l-.047-2.567-.012.012-.21-2.637-.012-.187.035-.188.422-2.425-.317-2.403-.011-.129v-.129l.105-2.53-.2-2.579-.01-.129.023-.129.246-2.472-.293-2.485-.012-.035v-.035l-.187-2.637-.012-.14.023-.153.317-2.531-.094-2.52v-.058l.023-2.637-.011-2.625v-2.613l-.258-2.52v-.07l-.14-2.637v-.105l.046-2.531-.328-2.508v-.094l-.176-2.566-.469-2.496-.011-.036v-.047l-.352-2.613.012-.012-.387-2.543-.574-2.507-.035-.14v-.153l-.059-2.555-.375-2.543.012-.012-.528-2.484v-.012l-.011-.011-.458-2.48zm4.715 8.347.55 2.45.012.058.012.047.387 2.613v.024l.351 2.625.469 2.52.012.081v.082l.187 2.649.328 2.531.012.105v.106l-.047 2.566.117 2.532.282 2.636v2.79l.011 2.636v.024l-.023 2.59.094 2.624v.118l-.012.117-.317 2.531.188 2.461h-.012l.317 2.566.011.164-.011.165-.258 2.46.187 2.555.012.082-.012.094-.093 2.508.328 2.52.035.222-.047.223-.434 2.472.2 2.438v.035l.011.047.047 2.625h.012l.082 2.625h.012l.105 2.637v.035l.047 2.648v.094l-.012.094-.28 2.414.491 2.39.059.246-.035.246-.317 2.543-.07 2.438.457 2.484.024.117v.118l.058 2.648v.141l-.023.152-.457 2.438.28 2.402.024.152-.011.141-.059.721.139.005 1.576-.093.082-.012.082.012.156.008.867-.047.106-.012.117.012 1.485.143 2.296-.268.235-.036.222.047.978.182.198-.104-.281-1.523v-.035l-.422-2.613-.023-.094v-.094l-.083-2.59-.328-2.543-.011-.129v-.14l.129-2.543-.376-2.38-.468-2.612-.024-.118v-.129l-.035-2.578-.316-2.52-.34-2.612-.012-.106v-2.578l-.55-2.426-.036-.14v-.13l-.094-2.472-.421-2.613-.012-.094v-.094l-.094-2.578-.328-2.543-.023-.152.023-.153.176-2.496-.434-2.39-.48-2.614-.024-.117v-.129l-.047-2.648v-.012l-.011-2.543-.434-2.46-.023-.106v-.106l-.082-2.449-.434-2.601-.457-2.614-.012-.105v-.106l-.07-2.59-.398-2.472v-.047l-.012-.035-.258-2.637-.012-.117v-.117l.14-2.45-.538-2.378h-.012l-.832-2.297-.926-2.473-.023-.094-.023-.082-.622-2.578-.011-.023v-.035l-.504-2.473-.89-2.356-.024-.07-.449-1.37z"/></svg>