<svg width="120" height="120" viewBox="0 0 120 120" fill="none" xmlns="http://www.w3.org/2000/svg">
<path d="M62.0352 59.3008L64.6484 59.8398L64.6367 59.8516L67.1562 60.168L67.2969 60.1914L69.875 60.7773L69.9219 60.7891L69.9688 60.8125L72.5234 61.5625L72.7695 61.6328L72.9805 61.7852L74.9844 63.25L77.3164 64.2227L77.5977 64.3398L77.8086 64.5508L79.6836 66.4492L81.5469 68.3359L81.7461 68.5352L81.8633 68.793L82.8711 71.1367L84.1953 73.375L84.3828 73.668L84.4062 74.0195L84.6172 76.6914L84.6641 77.207L84.3828 77.6406L84.2539 77.8281L83 76.9961L82.7539 76.832L81.6289 76.9258L81.4414 74.6055L80.2461 72.5898L80.1992 72.5078L80.1641 72.4258L79.2148 70.2461L77.5508 68.5586L75.875 66.8594L73.6953 65.957L73.5312 65.8984L73.3906 65.793L71.4336 64.375L69.1367 63.6836L66.6875 63.1328L64.1445 62.793H64.0977L64.0508 62.7812L61.6133 62.2773L59.1875 62.4531H59.1289L56.7031 62.5352L54.3945 63.3438L54.2656 63.3906L54.1133 63.4141L51.6523 63.7539L49.3906 64.5273L47.2461 65.8047L47.2344 65.793L45.0781 67.1992L43.1562 68.5938L41.7148 70.3984L40.6836 72.6133L39.6758 74.7109L39.5469 76.9961L39.5234 77.3125L39.3359 77.6875L38 76.9961L37.8125 76.8906L36.5469 76.8203L36.6992 74.2656L36.7109 73.9844L36.8398 73.7148L37.9766 71.3242H37.9648L39.1016 68.9453L39.1719 68.7812L39.2773 68.6406L40.9414 66.5664L41.0703 66.4023L41.2344 66.2852L43.3789 64.7266L43.4492 64.6797L45.6641 63.25L45.6992 63.2266L45.7227 63.2148L48.0078 61.8672L48.1367 61.7969L48.2891 61.7383L50.7969 60.8828L50.9258 60.8359L51.0664 60.8242L53.5508 60.4609L55.9414 59.6289L56.1523 59.5586L56.375 59.5469L58.9766 59.4648L61.6367 59.2773L61.8359 59.2656L62.0352 59.3008Z" fill="black"/>
<path d="M59.6328 54.3008L62.2695 54.4648L62.2578 54.4766H65.0234L65.1875 54.5234L67.7422 55.1562L70.25 55.5078L70.3438 55.5312L72.9336 56.0703L72.9688 56.082H73.0039L75.5703 56.75L75.8281 56.8203L76.0391 56.9609L78.125 58.3672L80.4688 59.3516L80.8203 59.4922L81.0547 59.7734L82.7656 61.8359L82.8477 61.9414L82.918 62.0586L84.2188 64.3789L84.4297 64.7773L84.4062 65.2227L84.2656 67.1094L83 67.0156V68.5039H81.1719L81.2773 66.8984L81.3711 65.4453L80.3516 63.6523L78.9688 61.9648L76.8477 61.0977L76.707 61.0391L76.5781 60.9453L74.5742 59.5859L72.2422 58.9883V58.9766L69.8164 58.4727L67.2031 58.0977L67.1328 58.0859L67.0508 58.0742L64.6484 57.4648H62.1289L62.082 57.4531L59.668 57.3008L57.2422 57.8281L57.0664 57.8633H56.9023L54.3477 57.8164L51.957 58.1211L49.5195 58.8477L46.9883 59.5859L46.9766 59.5742L44.6328 60.3242L42.7227 61.5312L41.1641 63.207L39.8047 64.9531L39.5586 67.0977L39.5 67.5664L39.1953 67.918L39.125 67.9883L38 67.0039L37.8828 66.8984L36.582 66.7461L36.8867 64.2031L36.9336 63.793L37.1797 63.4648L38.7852 61.3789L38.8789 61.2617L40.6836 59.3398L40.8125 59.1992L40.9766 59.0938L43.2266 57.6758L43.3906 57.582L43.5781 57.5234L46.1094 56.7148H46.1211L46.1445 56.7031L48.6758 55.9648L51.2188 55.2148L51.3242 55.1797L51.4531 55.168L54.0781 54.8281L54.1836 54.8164H54.2891L56.7734 54.8633L59.2227 54.3242L59.4219 54.2891L59.6328 54.3008Z" fill="black"/>
<path d="M111.312 114.289L112.355 114.547L111.652 117.453L110.891 117.266L108.547 117.629L108.453 117.652H108.359L105.723 117.723H105.582L103.051 117.301L100.672 117.734L100.438 117.781L100.203 117.746L97.6367 117.406H95.2344L92.5977 117.629L92.4922 117.641L92.3984 117.629L89.75 117.477V117.465L87.2773 117.348L84.7812 117.734L84.582 117.77L84.3945 117.746L81.8516 117.453L79.2969 117.477L79.2852 117.465L76.7773 117.711L76.6133 117.723L76.4492 117.699L73.918 117.383L71.3867 117.43H71.3281L68.6914 117.371H68.6445L66.1719 117.23L63.7109 117.699L63.4766 117.746L63.2305 117.711L60.7227 117.348L58.2383 117.488H58.0156L55.5898 117.242L53.1406 117.676L52.8828 117.723L52.6133 117.676L50.1172 117.242L47.6914 117.395H47.668L47.6445 117.406L42.3711 117.57H42.2539L42.1367 117.559L39.5938 117.254L37.1328 117.418L37.0508 117.43L36.957 117.418L34.5078 117.277L32 117.699L31.7891 117.734L31.5781 117.711L29.0234 117.395L26.5391 117.324L23.9492 117.512L23.8906 117.523H23.832L21.1953 117.512H21.0781L18.5 117.301L16.0508 117.395L16.0625 117.406L13.4258 117.664L13.2734 117.676L13.1211 117.664L10.625 117.395L8.16406 117.5H8V114.5H8.03516L10.5781 114.395L10.6836 114.383L10.8008 114.395L13.2852 114.664L15.7695 114.418H15.8633L18.5 114.312L18.5938 114.301L18.6758 114.312L21.3125 114.512L21.3008 114.523H23.7383L26.375 114.336L26.4453 114.324L26.5273 114.336L29.1641 114.406H29.2344L29.293 114.418L31.7305 114.699L34.1562 114.301L34.3203 114.277L34.4844 114.289L37.0156 114.43L39.582 114.254L39.7227 114.242L39.8633 114.266L42.3711 114.57L44.9141 114.488L47.5039 114.418V114.406L50.1523 114.242L50.3281 114.23L50.5039 114.266L52.8828 114.688L55.2617 114.266L55.4609 114.23L55.6602 114.242L58.1328 114.488L60.7227 114.348L60.8633 114.336L61.0156 114.359L63.418 114.711L65.8086 114.266L65.9844 114.23L66.1602 114.242L68.7969 114.371L68.7852 114.383L71.3633 114.43L73.9766 114.383H74.082L74.1875 114.395L76.6836 114.711L79.1445 114.477H79.2734L81.9102 114.453H82.0039L82.0859 114.465L84.5469 114.746L86.9727 114.371L87.125 114.348L87.2773 114.359L89.9141 114.488H89.9258L92.4453 114.641L95 114.43L95.0586 114.418H95.1055L97.7539 114.406H97.8594L97.9648 114.418L100.367 114.746L102.77 114.312L103.027 114.266L103.285 114.301L105.816 114.723L108.137 114.664L110.738 114.266L111.031 114.219L111.312 114.289Z" fill="black"/>
<path d="M27.1953 93.6201L29.7148 94.3818L30.1367 94.5107L30.4297 94.8389L32.082 96.7725L32.2344 96.96L32.3281 97.1826L33.3125 99.5967L33.418 99.8428L33.4297 100.112L33.5117 102.749V102.913L33.3008 105.491L33.4062 107.94L33.6641 110.577L33.6758 110.729L33.6641 110.882L33.3945 113.354L33.5 115.839V116.003H30.5V115.968L30.3945 113.425L30.3828 113.308L30.3945 113.202L30.6523 110.706L30.418 108.222V108.14L30.3125 105.503L30.3008 105.409L30.3125 105.327L30.5117 102.679L30.4297 100.487L29.6445 98.542L28.4258 97.124L27.1133 96.7256L25.9297 97.7686L24.8984 99.4561L24.7461 101.671V101.706L24.7344 101.741L24.4297 104.249L24.5117 106.792L24.5938 109.394L24.7578 112.03L24.7695 112.206L24.7344 112.382L24.3125 114.772L24.4766 115.757L21.5234 116.249L21.3125 115.007L21.2773 114.749L21.3242 114.503L21.7578 112.007L21.6055 109.569V109.558L21.5938 109.534L21.5117 106.886L21.4297 104.249V104.132L21.4414 104.015L21.7578 101.378L21.9453 98.8701L21.9688 98.5068L22.1562 98.2021L23.4922 96.0107L23.6094 95.8115L23.7852 95.6592L25.7656 93.9248L26.3984 93.374L27.1953 93.6201Z" fill="black"/>
<path d="M23.3633 66.5557L25.6719 67.7041L26.5508 68.1494L26.5039 69.1221L26.3867 71.8057L26.4219 74.3018H25.0625L25.0039 74.3838L24.0312 75.5205L23.9492 75.4619L23.4336 75.0166L23.4219 74.3369L23.3867 71.7588V71.6768L23.457 69.9541L22.6602 69.5557L21.8164 69.9424L21.4766 71.4775V73.9736L21.5 74.3018L20 74.3838L18.5 74.4541L18.4766 74.0439V73.9736L18.4883 71.3252V71.1729L18.5234 71.0205L19.0391 68.583L19.2031 67.833L19.8945 67.5166L22.0859 66.5322L22.7305 66.2393L23.3633 66.5557Z" fill="black"/>
<path d="M32.3633 66.5557L34.6719 67.7041L35.5508 68.1494L35.5039 69.1221L35.3867 71.8057L35.4219 74.3018H34.0625L34.0039 74.3838L33.0312 75.5205L32.9492 75.4619L32.4336 75.0166L32.4219 74.3369L32.3867 71.7588V71.6768L32.457 69.9541L31.6602 69.5557L30.8164 69.9424L30.4766 71.4775V73.9736L30.5 74.3018L29 74.3838L27.5 74.4541L27.4766 74.0439V73.9736L27.4883 71.3252V71.1729L27.5234 71.0205L28.0391 68.583L28.2031 67.833L28.8945 67.5166L31.0859 66.5322L31.7305 66.2393L32.3633 66.5557Z" fill="black"/>
<path d="M25.0312 73.7598L27.668 74.041L27.6562 74.0527L30.1641 74.1582L32.7422 74.0879H32.8945L35.5312 74.2871L35.6016 74.2988L35.6836 74.3105L38.2734 74.7559L40.7812 74.9668L41.2969 75.0137L41.6719 75.3652L43.1836 76.7598L43.7344 77.2754L43.6641 78.0254L43.3945 80.498L43.418 81.7637L43.7109 81.8105L43.4883 83.3105V83.3574L42.9609 86.9434L41.1328 84.4941L39.8086 84.3184L37.2539 84.2598H37.1133L36.9727 84.2246L34.5 83.6855L31.9805 83.5684H31.957L29.3203 83.416L26.8711 83.252L24.4336 83.7441L24.2109 83.791L23.9883 83.7676L21.457 83.5215L19.043 83.8262L18.9492 83.8379H16.4062L14.0742 84.5527L13.3594 84.7637L12.7617 84.3301L11.3906 83.3457L10.8047 82.9238L10.7695 82.2207L10.6055 79.584V79.5605L10.5938 79.5371L10.5117 76.9004L10.4766 75.7285L11.5898 75.4121L13.9102 74.7324L14.1211 74.6738H14.3438L16.8398 74.6855L19.3711 74.3105L19.4766 74.2988L19.5938 74.2871H22.0547L24.5742 73.7715L24.7969 73.7363L25.0312 73.7598ZM22.5352 77.2402L22.3945 77.2754H19.7461L17.2148 77.6738L17.0977 77.6973H16.9805L14.543 77.6738L13.5469 77.9551L13.5938 79.3965L13.7109 81.3184L13.8984 81.459L15.7617 80.8965L15.9727 80.8379H18.7617L21.3047 80.5215L21.4688 80.498L21.6328 80.5215L24.0586 80.7676L26.4727 80.2754L26.6602 80.2402L26.8594 80.252L29.5078 80.416H29.4961L32.1328 80.5684H32.1211L34.7578 80.6973H34.8867L35.0039 80.7324L37.4531 81.2598L39.9727 81.3301H40.0547L40.125 81.3418L40.4062 81.377L40.3945 80.5332V80.3457L40.5938 78.4473L40.0195 77.9199L37.8984 77.7441L37.7578 77.7207L35.2734 77.2754L32.707 77.0879L30.1875 77.1582H30.0703L27.4336 77.041L27.3867 77.0293H27.3398L24.9141 76.7598L22.5352 77.2402Z" fill="black"/>
<path d="M27.4531 56.1689L30.0898 56.4736L30.1133 56.4854H30.125L32.7383 56.8486L32.75 56.8604H32.7734L35.3867 57.2822L35.5391 57.3057L35.6797 57.3643L38.1523 58.29L38.3281 58.3604L38.4805 58.4658L38.8438 58.7119L38 59.9541L37.1562 61.1846L36.9219 61.0322L34.7305 60.2119L32.3164 59.8135L29.7383 59.4502L27.2422 59.1572L24.9102 59.3799L22.4492 60.0244L22.2852 60.0479L19.8242 60.4111L17.6797 61.3135L17.5273 61.3838L17.3633 61.4072L17.2578 61.4307L17 59.9541L16.9297 59.5205L16.5195 58.5479L18.875 57.5635L19.0508 57.4932L19.2383 57.4697L21.8047 57.083L24.2656 56.4619L24.3828 56.4268L24.4883 56.415L27.1367 56.1689L27.3008 56.1455L27.4531 56.1689Z" fill="black"/>
<path d="M29.1953 35.8374L31.6211 36.6226L34.1406 37.1499L34.2578 37.1733L34.3633 37.2085L36.8359 38.1226L37.1055 38.228L37.3281 38.4272L39.0859 40.0562L39.6602 40.5718L39.5664 41.3335L39.2617 43.7944L39.4258 46.3374V46.5132L39.2852 49.0093L39.7305 51.6812L39.707 51.8921L39.4023 54.3999L39.332 56.8843L39.5195 59.5327V59.6382L39.5078 62.2866V62.3921L39.3086 64.853L39.4141 67.4897L39.6602 70.0562L39.6719 70.1968L39.6602 70.3491L39.3906 72.8335L39.4961 75.3062V75.4702H36.4961V75.4351L36.3906 72.9038V72.7866L36.4023 72.6812L36.6484 70.1851L36.4141 67.7007V67.6187L36.3086 64.9819V64.7944L36.5078 62.2749L36.5195 59.7437L36.332 57.1069V56.9546L36.4023 54.3179V54.2476L36.4141 54.1772L36.707 51.7163L36.3086 49.314L36.2734 49.1616L36.2852 48.9976L36.4141 46.4546L36.25 43.8882V43.7593L36.2617 43.6187L36.4844 41.7319L35.4766 40.8179L33.4609 40.0679L30.9766 39.564L30.8125 39.5171L28.6094 38.7905L26.3242 39.1538L26.2188 39.1655L26.1016 39.1772L23.6758 39.189L21.3438 39.8687L21.2969 39.8804L21.2383 39.8921L18.9648 40.3726L17.6641 41.3804L17.6289 43.0444L17.5703 45.6694L17.6172 48.2593V48.3647L17.6055 48.4702L17.2891 50.9663L17.5234 53.4272V53.5444L17.5469 56.1929V56.2749L17.5352 56.3687L17.2539 58.8179L17.6523 61.4077L17.6406 61.5601L17.5117 64.1968V64.2085L17.3594 66.728L17.5703 69.2827L17.582 69.3413V69.3882L17.5938 72.0366V72.1421L17.582 72.2476L17.2656 74.5444L17.4297 75.0132L16 75.4702L14.5703 75.939L14.3125 75.1538L14.207 74.8257L14.2539 74.4741L14.5938 71.9194L14.582 69.5171L14.3711 66.8804L14.3594 66.7749L14.3711 66.6812L14.5234 64.0327L14.6523 61.5601L14.2656 59.064L14.2305 58.8647L14.2539 58.6772L14.5469 56.1343L14.5234 53.5679L14.2891 51.0601L14.2773 50.896L14.3008 50.7319L14.6172 48.2007L14.5703 45.6694V45.6108L14.6289 42.9741V42.9624L14.6992 40.5835L14.7109 39.8687L15.2734 39.4351L17.3945 37.7944L17.6641 37.5835L18.0039 37.5132L20.5234 36.9741L23.043 36.2593L23.2305 36.2007H23.4414L25.9141 36.1772L28.5039 35.7788L28.8555 35.7202L29.1953 35.8374Z" fill="black"/>
<path d="M39.4961 82.0479V82.2002L39.4023 84.7432L39.4141 87.3213V87.4268L39.25 89.876L39.5195 92.4541V92.5127L39.5312 92.583L39.5781 95.2197V95.3135L39.5664 95.4189L39.2734 97.8682L39.4844 100.399L39.4961 100.435V100.458L39.6133 103.095L39.625 103.224L39.6133 103.341L39.3203 105.813L39.6719 108.239L39.6953 108.427L39.6719 108.614L39.3906 111.087L39.5547 113.63V113.829L39.4023 116.103L37.9961 115.997V117.497H36.2969L36.4023 115.903L36.543 113.712L36.3906 111.181V111.052L36.4023 110.923L36.6719 108.45L36.332 106.013L36.3086 105.825L36.3203 105.638L36.6133 103.06L36.4961 100.657L36.2852 98.0088L36.2617 97.8682L36.2852 97.7158L36.5664 95.1846L36.5312 92.7705L36.25 90.1221L36.2383 90.0049L36.25 89.876L36.4141 87.2275L36.4023 84.6963V84.6377L36.4961 82.0947V82.0479H39.4961ZM17.8047 80.5479L17.5586 82.2588L17.2422 84.3799L17.418 86.8643L17.4297 86.9463L17.418 87.04L17.2773 89.4893L17.6992 91.9971L17.7344 92.208L17.7109 92.4189L17.4062 94.9268L17.3242 97.4111L17.5117 100.048L17.5234 100.106V100.165L17.5117 102.802V102.919L17.3008 105.497L17.4062 107.935L17.6641 110.571L17.6758 110.724L17.6641 110.876L17.3945 113.36L17.5 115.833V115.997H14.5V115.962L14.3945 113.419L14.3828 113.313L14.3945 113.208L14.6641 110.7L14.418 108.228V108.146L14.3125 105.497L14.3008 105.415L14.3125 105.321L14.5117 102.685L14.5234 100.271L14.3359 97.6221L14.3242 97.5518L14.3359 97.4814L14.4062 94.833V94.7744L14.418 94.7041L14.6992 92.2432L14.3008 89.8408L14.2773 89.6885L14.2891 89.5244L14.4297 86.9697L14.2539 84.415L14.2422 84.2627L14.2656 84.1104L14.582 81.8369L16 82.0479V80.5479H17.8047Z" fill="black"/>
<path d="M28.1953 23.6782L30.7852 24.4282L31.2422 24.5688L31.5352 24.9438L33.1875 27.0532L33.3281 27.2173L33.4102 27.4282L34.3594 29.854L34.4531 30.0884L34.4648 30.3345L34.5 31.0845L34.5352 31.9399L34.2891 32.0923L33.9375 34.436L33.6094 34.7876L31.793 36.6743L31.6758 36.8032L31.5234 36.897L29.3203 38.3032L28.9922 38.5142L28.6172 38.5376L25.9336 38.7251L25.5117 38.7485L25.1367 38.561L22.7812 37.3188L22.5352 37.1782L22.3477 36.979L20.625 35.0103L20.4492 34.7993L20.3438 34.5298L19.4297 32.0337L19.2891 31.647L19.3711 31.2485L19.8633 28.6118L19.9336 28.2134L20.2031 27.9087L21.9141 25.9399L21.9961 25.8462L22.0898 25.7642L24.1289 24.0767L24.5156 23.7485L25.0312 23.7251L27.7148 23.6196L27.9609 23.6079L28.1953 23.6782ZM25.6641 26.7017L24.082 28.0024L22.7227 29.5728L22.3828 31.3774L23.0742 33.2407L24.4219 34.7876L26.1562 35.7017L28.0078 35.5728L29.7539 34.4595L31.1133 33.0532L31.4297 30.9673L31.4648 30.6978L30.7031 28.7407L29.4727 27.1704L27.6094 26.6196L25.6641 26.7017Z" fill="black"/>
<path d="M94.1953 93.6201L96.7148 94.3818L97.1367 94.5107L97.4297 94.8389L99.082 96.7725L99.2344 96.96L99.3281 97.1826L100.312 99.5967L100.418 99.8428L100.43 100.112L100.512 102.749V102.913L100.301 105.491L100.406 107.94L100.664 110.577L100.676 110.729L100.664 110.882L100.395 113.354L100.5 115.839V116.003H97.5V115.968L97.3945 113.425L97.3828 113.308L97.3945 113.202L97.6523 110.706L97.418 108.222V108.14L97.3125 105.503L97.3008 105.409L97.3125 105.327L97.5117 102.679L97.4297 100.487L96.6445 98.542L95.4258 97.124L94.1133 96.7256L92.9297 97.7686L91.8984 99.4561L91.7461 101.671V101.706L91.7344 101.741L91.4297 104.249L91.5117 106.792L91.5938 109.394L91.7578 112.03L91.7695 112.206L91.7344 112.382L91.3125 114.772L91.4766 115.757L88.5234 116.249L88.3125 115.007L88.2773 114.749L88.3242 114.503L88.7578 112.007L88.6055 109.569V109.558L88.5938 109.534L88.5117 106.886L88.4297 104.249V104.132L88.4414 104.015L88.7578 101.378L88.9453 98.8701L88.9688 98.5068L89.1562 98.2021L90.4922 96.0107L90.6094 95.8115L90.7852 95.6592L92.7656 93.9248L93.3984 93.374L94.1953 93.6201Z" fill="black"/>
<path d="M90.3633 66.5557L92.6719 67.7041L93.5508 68.1494L93.5039 69.1221L93.3867 71.8057L93.4219 74.3018H92.0625L92.0039 74.3838L91.0312 75.5205L90.9492 75.4619L90.4336 75.0166L90.4219 74.3369L90.3867 71.7588V71.6768L90.457 69.9541L89.6602 69.5557L88.8164 69.9424L88.4766 71.4775V73.9736L88.5 74.3018L87 74.3838L85.5 74.4541L85.4766 74.0439V73.9736L85.4883 71.3252V71.1729L85.5234 71.0205L86.0391 68.583L86.2031 67.833L86.8945 67.5166L89.0859 66.5322L89.7305 66.2393L90.3633 66.5557Z" fill="black"/>
<path d="M99.3633 66.5557L101.672 67.7041L102.551 68.1494L102.504 69.1221L102.387 71.8057L102.422 74.3018H101.062L101.004 74.3838L100.031 75.5205L99.9492 75.4619L99.4336 75.0166L99.4219 74.3369L99.3867 71.7588V71.6768L99.457 69.9541L98.6602 69.5557L97.8164 69.9424L97.4766 71.4775V73.9736L97.5 74.3018L96 74.3838L94.5 74.4541L94.4766 74.0439V73.9736L94.4883 71.3252V71.1729L94.5234 71.0205L95.0391 68.583L95.2031 67.833L95.8945 67.5166L98.0859 66.5322L98.7305 66.2393L99.3633 66.5557Z" fill="black"/>
<path d="M92.0312 73.7598L94.668 74.041L94.6562 74.0527L97.1641 74.1582L99.7422 74.0879H99.8945L102.531 74.2871L102.602 74.2988L102.684 74.3105L105.273 74.7559L107.781 74.9668L108.297 75.0137L108.672 75.3652L110.184 76.7598L110.734 77.2754L110.664 78.0254L110.395 80.498L110.418 81.7637L110.711 81.8105L110.488 83.3105V83.3574L109.961 86.9434L108.133 84.4941L106.809 84.3184L104.254 84.2598H104.113L103.973 84.2246L101.5 83.6855L98.9805 83.5684H98.957L96.3203 83.416L93.8711 83.252L91.4336 83.7441L91.2109 83.791L90.9883 83.7676L88.457 83.5215L86.043 83.8262L85.9492 83.8379H83.4062L81.0742 84.5527L80.3594 84.7637L79.7617 84.3301L78.3906 83.3457L77.8047 82.9238L77.7695 82.2207L77.6055 79.584V79.5605L77.5938 79.5371L77.5117 76.9004L77.4766 75.7285L78.5898 75.4121L80.9102 74.7324L81.1211 74.6738H81.3438L83.8398 74.6855L86.3711 74.3105L86.4766 74.2988L86.5938 74.2871H89.0547L91.5742 73.7715L91.7969 73.7363L92.0312 73.7598ZM89.5352 77.2402L89.3945 77.2754H86.7461L84.2148 77.6738L84.0977 77.6973H83.9805L81.543 77.6738L80.5469 77.9551L80.5938 79.3965L80.7109 81.3184L80.8984 81.459L82.7617 80.8965L82.9727 80.8379H85.7617L88.3047 80.5215L88.4688 80.498L88.6328 80.5215L91.0586 80.7676L93.4727 80.2754L93.6602 80.2402L93.8594 80.252L96.5078 80.416H96.4961L99.1328 80.5684H99.1211L101.758 80.6973H101.887L102.004 80.7324L104.453 81.2598L106.973 81.3301H107.055L107.125 81.3418L107.406 81.377L107.395 80.5332V80.3457L107.594 78.4473L107.02 77.9199L104.898 77.7441L104.758 77.7207L102.273 77.2754L99.707 77.0879L97.1875 77.1582H97.0703L94.4336 77.041L94.3867 77.0293H94.3398L91.9141 76.7598L89.5352 77.2402Z" fill="black"/>
<path d="M94.4531 56.1689L97.0898 56.4736L97.1133 56.4854H97.125L99.7383 56.8486L99.75 56.8604H99.7734L102.387 57.2822L102.539 57.3057L102.68 57.3643L105.152 58.29L105.328 58.3604L105.48 58.4658L105.844 58.7119L105 59.9541L104.156 61.1846L103.922 61.0322L101.73 60.2119L99.3164 59.8135L96.7383 59.4502L94.2422 59.1572L91.9102 59.3799L89.4492 60.0244L89.2852 60.0479L86.8242 60.4111L84.6797 61.3135L84.5273 61.3838L84.3633 61.4072L84.2578 61.4307L84 59.9541L83.9297 59.5205L83.5195 58.5479L85.875 57.5635L86.0508 57.4932L86.2383 57.4697L88.8047 57.083L91.2656 56.4619L91.3828 56.4268L91.4883 56.415L94.1367 56.1689L94.3008 56.1455L94.4531 56.1689Z" fill="black"/>
<path d="M96.1953 35.8374L98.6211 36.6226L101.141 37.1499L101.258 37.1733L101.363 37.2085L103.836 38.1226L104.105 38.228L104.328 38.4272L106.086 40.0562L106.66 40.5718L106.566 41.3335L106.262 43.7944L106.426 46.3374V46.5132L106.285 49.0093L106.73 51.6812L106.707 51.8921L106.402 54.3999L106.332 56.8843L106.52 59.5327V59.6382L106.508 62.2866V62.3921L106.309 64.853L106.414 67.4897L106.66 70.0562L106.672 70.1968L106.66 70.3491L106.391 72.8335L106.496 75.3062V75.4702H103.496V75.4351L103.391 72.9038V72.7866L103.402 72.6812L103.648 70.1851L103.414 67.7007V67.6187L103.309 64.9819V64.7944L103.508 62.2749L103.52 59.7437L103.332 57.1069V56.9546L103.402 54.3179V54.2476L103.414 54.1772L103.707 51.7163L103.309 49.314L103.273 49.1616L103.285 48.9976L103.414 46.4546L103.25 43.8882V43.7593L103.262 43.6187L103.484 41.7319L102.477 40.8179L100.461 40.0679L97.9766 39.564L97.8125 39.5171L95.6094 38.7905L93.3242 39.1538L93.2188 39.1655L93.1016 39.1772L90.6758 39.189L88.3438 39.8687L88.2969 39.8804L88.2383 39.8921L85.9648 40.3726L84.6641 41.3804L84.6289 43.0444L84.5703 45.6694L84.6172 48.2593V48.3647L84.6055 48.4702L84.2891 50.9663L84.5234 53.4272V53.5444L84.5469 56.1929V56.2749L84.5352 56.3687L84.2539 58.8179L84.6523 61.4077L84.6406 61.5601L84.5117 64.1968V64.2085L84.3594 66.728L84.5703 69.2827L84.582 69.3413V69.3882L84.5938 72.0366V72.1421L84.582 72.2476L84.2656 74.5444L84.4297 75.0132L83 75.4702L81.5703 75.939L81.3125 75.1538L81.207 74.8257L81.2539 74.4741L81.5938 71.9194L81.582 69.5171L81.3711 66.8804L81.3594 66.7749L81.3711 66.6812L81.5234 64.0327L81.6523 61.5601L81.2656 59.064L81.2305 58.8647L81.2539 58.6772L81.5469 56.1343L81.5234 53.5679L81.2891 51.0601L81.2773 50.896L81.3008 50.7319L81.6172 48.2007L81.5703 45.6694V45.6108L81.6289 42.9741V42.9624L81.6992 40.5835L81.7109 39.8687L82.2734 39.4351L84.3945 37.7944L84.6641 37.5835L85.0039 37.5132L87.5234 36.9741L90.043 36.2593L90.2305 36.2007H90.4414L92.9141 36.1772L95.5039 35.7788L95.8555 35.7202L96.1953 35.8374Z" fill="black"/>
<path d="M106.496 82.0479V82.2002L106.402 84.7432L106.414 87.3213V87.4268L106.25 89.876L106.52 92.4541V92.5127L106.531 92.583L106.578 95.2197V95.3135L106.566 95.4189L106.273 97.8682L106.484 100.399L106.496 100.435V100.458L106.613 103.095L106.625 103.224L106.613 103.341L106.32 105.813L106.672 108.239L106.695 108.427L106.672 108.614L106.391 111.087L106.555 113.63V113.829L106.402 116.103L104.996 115.997V117.497H103.297L103.402 115.903L103.543 113.712L103.391 111.181V111.052L103.402 110.923L103.672 108.45L103.332 106.013L103.309 105.825L103.32 105.638L103.613 103.06L103.496 100.657L103.285 98.0088L103.262 97.8682L103.285 97.7158L103.566 95.1846L103.531 92.7705L103.25 90.1221L103.238 90.0049L103.25 89.876L103.414 87.2275L103.402 84.6963V84.6377L103.496 82.0947V82.0479H106.496ZM84.8047 80.5479L84.5586 82.2588L84.2422 84.3799L84.418 86.8643L84.4297 86.9463L84.418 87.04L84.2773 89.4893L84.6992 91.9971L84.7344 92.208L84.7109 92.4189L84.4062 94.9268L84.3242 97.4111L84.5117 100.048L84.5234 100.106V100.165L84.5117 102.802V102.919L84.3008 105.497L84.4062 107.935L84.6641 110.571L84.6758 110.724L84.6641 110.876L84.3945 113.36L84.5 115.833V115.997H81.5V115.962L81.3945 113.419L81.3828 113.313L81.3945 113.208L81.6641 110.7L81.418 108.228V108.146L81.3125 105.497L81.3008 105.415L81.3125 105.321L81.5117 102.685L81.5234 100.271L81.3359 97.6221L81.3242 97.5518L81.3359 97.4814L81.4062 94.833V94.7744L81.418 94.7041L81.6992 92.2432L81.3008 89.8408L81.2773 89.6885L81.2891 89.5244L81.4297 86.9697L81.2539 84.415L81.2422 84.2627L81.2656 84.1104L81.582 81.8369L83 82.0479V80.5479H84.8047Z" fill="black"/>
<path d="M95.1953 23.6782L97.7852 24.4282L98.2422 24.5688L98.5352 24.9438L100.188 27.0532L100.328 27.2173L100.41 27.4282L101.359 29.854L101.453 30.0884L101.465 30.3345L101.5 31.0845L101.535 31.9399L101.289 32.0923L100.938 34.436L100.609 34.7876L98.793 36.6743L98.6758 36.8032L98.5234 36.897L96.3203 38.3032L95.9922 38.5142L95.6172 38.5376L92.9336 38.7251L92.5117 38.7485L92.1367 38.561L89.7812 37.3188L89.5352 37.1782L89.3477 36.979L87.625 35.0103L87.4492 34.7993L87.3438 34.5298L86.4297 32.0337L86.2891 31.647L86.3711 31.2485L86.8633 28.6118L86.9336 28.2134L87.2031 27.9087L88.9141 25.9399L88.9961 25.8462L89.0898 25.7642L91.1289 24.0767L91.5156 23.7485L92.0312 23.7251L94.7148 23.6196L94.9609 23.6079L95.1953 23.6782ZM92.6641 26.7017L91.082 28.0024L89.7227 29.5728L89.3828 31.3774L90.0742 33.2407L91.4219 34.7876L93.1562 35.7017L95.0078 35.5728L96.7539 34.4595L98.1133 33.0532L98.4297 30.9673L98.4648 30.6978L97.7031 28.7407L96.4727 27.1704L94.6094 26.6196L92.6641 26.7017Z" fill="black"/>
<path d="M80.5039 44.7656L83.1406 45.2227L82.918 46.4648L83 46.5L84.2891 47.2617L84.1719 47.4609L83.6445 48.3633L82.6133 48.1758L80.1172 47.7539L77.6914 47.8945H77.668L77.6445 47.9062L72.3711 48.0703H72.2539L72.1367 48.0586L69.5938 47.7656L67.1328 47.918L67.0508 47.9297L66.957 47.918L64.5078 47.7891L62 48.1992L61.7891 48.2344L61.5781 48.2109L59.0234 47.9062L56.5391 47.8359L53.9492 48.0117L53.8906 48.0234H53.832L51.1953 48.0117H51.0781L48.5 47.8125L46.0508 47.9062H46.0625L43.4258 48.1641L43.2734 48.1758L43.1211 48.1641L40.625 47.9062L38.1641 48H38V45H38.0352L40.5781 44.8945L40.6836 44.8828L40.8008 44.8945L43.2852 45.1641L45.7695 44.918H45.8633L48.5 44.8125L48.5938 44.8008L48.6758 44.8125L51.3125 45.0117L51.3008 45.0234H53.7383L56.375 44.8359L56.4453 44.8242L56.5273 44.8359L59.1641 44.9062H59.2344L59.293 44.918L61.7305 45.1992L64.1562 44.8008L64.3203 44.7773L64.4844 44.7891L67.0156 44.9297L69.582 44.7539L69.7227 44.7422L69.8633 44.7656L72.3711 45.0703L74.9141 44.9883L77.5039 44.918V44.9062L80.1523 44.7422L80.3281 44.7305L80.5039 44.7656Z" fill="black"/>
<path d="M56.0039 40.5234L58.2773 40.3945L58.3945 40.3828L58.5117 40.3945L60.9961 40.6641L63.4922 40.418L64.2539 40.3477L64.7578 40.9219L66.375 42.7617L66.6328 43.0547L66.7148 43.4414L67.1953 45.6797L67.582 47.4961L65.7188 47.4844H63.082V47.4727L60.5508 47.6602L60.4805 47.6719H60.3984L57.7617 47.5898H57.6328L54.9844 47.2734L54.2812 47.1914L53.8945 46.5938L53.1211 45.3633L52.6641 44.6484L53.0391 43.8984L54.2109 41.5195L54.293 41.3438L54.4219 41.1914L54.5859 41.0156L55.2305 40.2773L56.0039 40.5234ZM56.5781 43.4766L56.1328 44.3789L57.8906 44.5898L60.375 44.6602L62.9766 44.4844H63.8789L63.8555 44.4375L63.0117 43.4766L61.1367 43.6641L60.9844 43.6758L60.832 43.6641L58.2773 43.3828L56.5781 43.4766Z" fill="black"/>
<path d="M56.9297 30.832L57.1289 30.3984L58.5 30.9961L59.4141 31.4063L59.8008 31.3828L59.8125 31.582L59.8711 31.6055L59.8242 31.7461L59.9062 33.9492L59.9062 33.9375L60.1641 36.5742L60.1758 36.7266L60.1641 36.8789L59.9062 39.375L60 41.8359L60 42L57 42L57 41.9648L56.8945 39.4219L56.8828 39.3164L56.8945 39.1992L57.1641 36.7148L56.918 34.2305L56.918 34.1367L56.8125 31.5L56.7891 31.1484L56.9297 30.832Z" fill="black"/>
<path d="M59.2812 27.5234L61.5547 27.3945L61.6719 27.3828L61.8008 27.3945L64.2852 27.6641L66.7695 27.418L67.6016 27.3359L68.1055 27.9922L69.3828 29.6445L69.7344 30.1016L69.6875 30.6758L69.4883 33.3125L69.4648 33.582L69.3477 33.8281L68.5156 35.6094L68.1523 36.418L67.2617 36.4766L64.625 36.6641L64.5547 36.6758L64.4727 36.6641L61.8359 36.5938H61.7656L61.707 36.582L59.0586 36.2773L57.9922 36.1484L57.7695 35.0938L57.3125 32.9023L57.2773 32.7148L57.2891 32.5156L57.4297 29.8789V29.8438L57.5 28.8828L57.6523 26.9727L59.2812 27.5234ZM60.3945 30.4531L60.2773 32.457L60.4883 33.4062L61.9648 33.5938L64.4492 33.6641L66.1602 33.5469L66.5 32.8086L66.6523 31.0156L66.2422 30.4766L64.4258 30.6641L64.2734 30.6758L64.1211 30.6641L61.5664 30.3828L60.3945 30.4531Z" fill="black"/>
<path d="M92.9297 13.832L93.1289 13.3984L94.5 13.9961L95.4141 14.4063L95.8008 14.3828L95.8125 14.582L95.8711 14.6055L95.8242 14.7461L95.9062 16.9492L95.9062 16.9375L96.1641 19.5742L96.1758 19.7266L96.1641 19.8789L95.9062 22.375L96 24.8359L96 25L93 25L93 24.9648L92.8945 22.4219L92.8828 22.3164L92.8945 22.1992L93.1641 19.7148L92.918 17.2305L92.918 17.1367L92.8125 14.5L92.7891 14.1484L92.9297 13.832Z" fill="black"/>
<path d="M95.2812 10.5234L97.5547 10.3945L97.6719 10.3828L97.8008 10.3945L100.285 10.6641L102.77 10.418L103.602 10.3359L104.105 10.9922L105.383 12.6445L105.734 13.1016L105.688 13.6758L105.488 16.3125L105.465 16.582L105.348 16.8281L104.516 18.6094L104.152 19.418L103.262 19.4766L100.625 19.6641L100.555 19.6758L100.473 19.6641L97.8359 19.5938H97.7656L97.707 19.582L95.0586 19.2773L93.9922 19.1484L93.7695 18.0938L93.3125 15.9023L93.2773 15.7148L93.2891 15.5156L93.4297 12.8789V12.8438L93.5 11.8828L93.6523 9.97266L95.2812 10.5234ZM96.3945 13.4531L96.2773 15.457L96.4883 16.4062L97.9648 16.5938L100.449 16.6641L102.16 16.5469L102.5 15.8086L102.652 14.0156L102.242 13.4766L100.426 13.6641L100.273 13.6758L100.121 13.6641L97.5664 13.3828L96.3945 13.4531Z" fill="black"/>
<path d="M25.9297 13.832L26.1289 13.3984L27.5 13.9961L28.4141 14.4063L28.8008 14.3828L28.8125 14.582L28.8711 14.6055L28.8242 14.7461L28.9062 16.9492L28.9062 16.9375L29.1641 19.5742L29.1758 19.7266L29.1641 19.8789L28.9062 22.375L29 24.8359L29 25L26 25L26 24.9648L25.8945 22.4219L25.8828 22.3164L25.8945 22.1992L26.1641 19.7148L25.918 17.2305L25.918 17.1367L25.8125 14.5L25.7891 14.1484L25.9297 13.832Z" fill="black"/>
<path d="M28.2812 10.5234L30.5547 10.3945L30.6719 10.3828L30.8008 10.3945L33.2852 10.6641L35.7695 10.418L36.6016 10.3359L37.1055 10.9922L38.3828 12.6445L38.7344 13.1016L38.6875 13.6758L38.4883 16.3125L38.4648 16.582L38.3477 16.8281L37.5156 18.6094L37.1523 19.418L36.2617 19.4766L33.625 19.6641L33.5547 19.6758L33.4727 19.6641L30.8359 19.5938H30.7656L30.707 19.582L28.0586 19.2773L26.9922 19.1484L26.7695 18.0938L26.3125 15.9023L26.2773 15.7148L26.2891 15.5156L26.4297 12.8789V12.8438L26.5 11.8828L26.6523 9.97266L28.2812 10.5234ZM29.3945 13.4531L29.2773 15.457L29.4883 16.4062L30.9648 16.5938L33.4492 16.6641L35.1602 16.5469L35.5 15.8086L35.6523 14.0156L35.2422 13.4766L33.4258 13.6641L33.2734 13.6758L33.1211 13.6641L30.5664 13.3828L29.3945 13.4531Z" fill="black"/>
</svg>
