<svg width="120" height="120" viewBox="0 0 120 120" fill="none" xmlns="http://www.w3.org/2000/svg">
<path d="M63.4023 4.51172H63.4609L66.1328 4.62891L66.4258 4.64062L66.6836 4.75781L69.1211 5.85938L69.2148 5.90625L71.5234 7.16016L71.7227 7.26562L71.875 7.41797L73.7383 9.29297L73.7969 9.35156L73.8438 9.42188L75.1797 11.1211L77.2656 11.6602L77.3242 11.6719L77.3828 11.6953L79.7383 12.5156L82.2227 12.8789L82.3164 12.8906L82.3984 12.9141L84.9531 13.5938L85.1641 13.6523L85.3516 13.7578L87.5547 15.1172L88.7734 15.8672L88.082 17.1211L86.8164 19.4062L86.5117 19.957L85.9023 20.1211L83.3125 20.8477L83.3008 20.8359L80.9688 21.6094L78.6367 22.5703L76.75 23.8008L75.4609 25.5234L74.8047 27.6445L74.5938 29.8008L75.332 31.9688L76.3633 34.3008L76.375 34.3242L77.3594 36.6914L78.5664 38.7656L80.1719 40.7344L80.2422 40.8164L80.2891 40.8984L81.5664 42.9961L83.3477 44.7539L83.4414 44.8477L83.5234 44.9648L85.0352 47.1094L86.5469 49.2773L86.6523 49.4297L86.7227 49.6055L87.5898 51.9258L89.043 53.9297L89.0898 54L89.1367 54.082L90.4023 56.3672H90.4141L91.7266 58.6641L91.7969 58.7695L91.832 58.8867L92.6992 61.2422L94.0586 63.3164L94.1523 63.457L94.2109 63.6094L95.0898 66L96.2383 68.332L96.2617 68.3789L96.2852 68.4375L97.2344 70.8633L98.2539 73.2891L98.3008 73.3945L98.3242 73.5L98.9922 76.043V76.0547L99.6484 78.5625L100.375 81.1289L100.469 81.4453L100.422 81.7617L100.012 84.3867L99.9531 84.7734L99.7188 85.0781L98.1836 87.0352L97.7031 87.6562L96.9297 87.6094L94.5391 87.4922L93.707 87.4453L93.3086 86.7188L92.0547 84.4688L90.5195 82.5469L88.9375 80.7422L88.5742 80.5195L88.1523 81.9961L88.3047 84.4219L88.3281 84.6328L88.2812 84.832L87.7188 87.3633L87.4844 89.8828V89.9062L87.1797 92.5547L87.1562 92.7539L87.0859 92.9414L86.1016 95.4141L85.2344 97.8398L85.2227 97.875L85.1992 97.9219L84.168 100.383L84.0625 100.652L83.8633 100.852L81.9883 102.773L81.8594 102.902L81.6953 102.996L79.4336 104.391L79.1523 104.555L78.8242 104.602L78.25 104.66L78.7539 105.691L80.5938 107.121L80.7227 107.227L80.8281 107.367L82.4453 109.371L82.7031 109.699L82.7617 110.121L83.0547 112.383L83.2539 113.941L81.6836 114.07L79.3398 114.258L77.3125 115.172L74.6875 117.188L73.9141 116.906L72.0156 116.215L71.957 116.191L71.8984 116.156L69.6953 115.125L67.3633 114.832L64.7852 114.773L63.0273 114.738L63.3438 113.004L63.8008 110.52L64 108.82L61.3516 108.891H61.3398L58.7031 108.926H58.6094L58.5156 108.914L56.9678 108.748L57.0225 109.202L57.0342 109.272V109.331L57.1162 111.979L57.1396 112.53L56.7998 112.952L55.874 114.147L55.4287 114.722L54.7021 114.733H52.3818L50.3428 115.765L50.3545 115.776L48.0342 117.019L47.0264 117.558L46.2412 116.726L44.9053 115.331L42.9834 114.323L40.7803 113.983L39.0459 114.077L36.8076 114.183L37.5693 112.073L38.4482 109.624L38.5068 109.46L38.6006 109.319L40.0537 107.093L40.2178 106.835L40.4756 106.671L42.4092 105.347L42.6279 104.986L42.543 104.953L42.332 104.766L40.375 102.938L40.3633 102.926L40.3398 102.914L38.4883 101.098L38.4648 101.074L36.6016 99.1758L36.3906 98.9531L36.2734 98.6719L35.3242 96.1875L35.2891 96.1172L35.2773 96.0352L34.5742 93.4922V93.4805L33.8594 90.9492L33.8359 90.8555L33.8242 90.7734L33.4141 88.1484L33.4023 88.0898V88.0312L33.2031 85.3828L33.1914 85.2305L33.2148 85.0781L33.5195 82.6055L33.2148 80.168L33.2031 80.1211V80.0742L33.1797 79.7227L32.1484 81.1641L32.1016 81.2344L32.043 81.3047L30.25 83.25L30.2383 83.2617L28.5273 85.1016L26.8867 87.1992L26.3594 87.8789L25.5039 87.7617L22.5156 87.3633L22.1523 86.7656L20.7344 84.5156L20.5352 84.1992L20.5 83.8359L20.2891 81.1406L20.2656 80.8945L20.3242 80.6602L20.957 78.1406L21.3438 75.5859L21.3555 75.4805L21.3906 75.375L22.1641 72.832L22.2109 72.6562L22.3047 72.5039L23.582 70.3477L24.2969 67.9922L24.3555 67.8047L24.4609 67.6289L25.7734 65.5195L26.6992 63.1523L26.7578 63.0117L26.8398 62.8828L28.1992 60.7734L29.207 58.4531L29.2656 58.3008L29.3594 58.1719L30.7891 56.1328L31.7969 53.8359L31.8555 53.6953L31.9375 53.5664L33.3672 51.5039L34.6094 49.207L34.6328 49.1836L34.6445 49.1484L36.0039 46.875L36.0273 46.8398L36.0391 46.8164L37.5273 44.6016L37.6211 44.4609L37.75 44.3438L39.5195 42.6797L40.668 40.6641L41.4766 38.3086L41.4883 38.2617L41.5117 38.2031L42.4961 35.8477L43.0469 33.4453L43.0586 33.3867L43.0703 33.3398L43.8555 30.8086L44.6055 28.3008L45.2969 25.7812L45.9062 23.2617L46.4102 20.7188L46.4219 20.6953V20.6719L47.0312 18.0938L47.0781 17.9062L47.1719 17.7305L48.4258 15.3984L49.3984 13.1016L49.4102 13.0898V13.0781L50.4883 10.6406L50.5938 10.4062L50.7812 10.2188L52.6211 8.29688L52.6797 8.22656L52.7617 8.15625L54.8125 6.50391L54.9297 6.41016L55.0703 6.33984L57.4258 5.12109L57.6367 5.01562L57.8594 4.98047L60.4844 4.51172L60.6133 4.48828H60.7539L63.4023 4.51172ZM44.8115 107.198L44.6357 107.479L44.3662 107.655L42.3857 108.979L41.2021 110.819L41.1318 111.007L43.6982 111.405L43.9443 111.44L44.167 111.558L46.5225 112.788L46.7334 112.905L46.9092 113.081L47.6123 113.831L48.9365 113.128H48.9482L48.96 113.116L51.3389 111.897L51.6553 111.733H53.9521L54.0928 111.534L54.0342 109.437H54.0225L53.8936 108.288L54.1377 108.257L53.2891 108.07L50.7109 107.871L50.5234 107.859L50.3477 107.801L47.8398 106.957H47.8281L47.8164 106.945L45.4619 106.101L44.8115 107.198ZM74.7227 105.855L74.7344 105.867L72.3672 107.039L72.2031 107.121L72.0273 107.156L69.4609 107.754L69.4141 107.766H69.3672L67.0938 108.141L67.0703 108.352L66.7891 110.859L66.7773 110.906V110.953L66.6133 111.809L67.5156 111.844H67.5859L67.668 111.855L70.3047 112.184L70.5391 112.219L70.7617 112.312L73.0352 113.391L74.1719 113.789L75.625 112.688L75.7656 112.582L75.918 112.512L78.3438 111.422L78.5898 111.316L78.8477 111.293L79.8672 111.199L79.832 110.918L78.6016 109.383L76.6328 107.836L76.3633 107.625L76.2109 107.32L75.3672 105.586L74.7227 105.855ZM58.9209 48.6621L56.7061 49.1191L55.0186 50.4551L53.1318 52.2832L53.1201 52.2715L51.4678 53.9473L50.4951 56.1504L50.46 56.2324L50.4248 56.3027L49.0889 58.5762L47.999 60.6738L47.3076 63.1348L47.2959 63.1582V63.1699L46.5225 65.6895L46.5107 65.748L46.4756 65.8184L45.5615 68.0449L45.4795 70.4473L45.4678 70.6816L45.3975 70.8926L44.5654 73.2129L44.2959 75.627L44.4482 78.1348V78.3105L44.2725 80.9355V81.0176L44.2607 81.0879L43.8389 83.5605L44.0264 85.998V86.0215L44.1787 88.6465L44.3662 91.2832L44.6709 93.7676L45.0576 96.1934L46.0186 98.502L46.1006 98.6777L46.124 98.877L46.4873 101.49L46.5107 101.619V101.748L46.4619 103.27L48.7891 104.109L51.1445 104.895L53.5938 105.094H53.6992L53.793 105.117L56.3008 105.656L58.7148 105.914L61.2812 105.891L63.7422 105.82L66.1914 105.258L66.2852 105.234L68.7812 104.824L71.1836 104.273L73.3984 103.184L73.4453 103.16L73.4805 103.137L74.7461 102.598L74.8164 102.538L74.7412 100.904L74.7295 100.682L74.7881 100.447L75.4209 98.0332L75.585 95.5254V95.502L75.5967 95.4668L75.8662 92.8418V92.7715L75.8896 92.7129L76.3936 90.1113L76.6045 87.8027L76.5576 85.1543V85.0605L76.6748 82.4238L76.6865 82.3887V82.3535L76.9092 79.9629L76.3818 77.5723L76.3467 77.4434V77.3145L76.2061 74.7832L75.6904 72.3457L75.667 72.2285V72.123L75.4795 69.5684L74.8584 67.2715L74.0967 64.8809L73.1123 62.4316L73.0537 62.3027L73.0303 62.1621L72.5615 59.8301L71.2139 57.8848L71.1318 57.7676L71.0732 57.627L70.0771 55.3418L68.6123 53.4199L68.542 53.3262L67.2881 51.3809L65.2959 50.2559L65.2725 50.2324L63.2217 49.0137L61.1357 48.498L58.9209 48.6621ZM58.5742 7.88672L56.5703 8.94141L54.7539 10.3945L53.1133 12.1172L52.1523 14.2617L51.1445 16.6875L51.0742 16.8047L49.8906 18.9961L49.3398 21.3047L49.3516 21.3164L48.8359 23.9062L48.8242 23.9297L48.8125 23.9648L48.2031 26.5312L48.1914 26.5547V26.5664L47.4883 29.1211V29.1562L46.7266 31.6875V31.6992L45.9414 34.2305L45.3789 36.6914L45.3555 36.8203L45.2969 36.9375L44.2773 39.375L43.4688 41.7891L43.4219 41.9297L43.3398 42.0586L42.0156 44.3672L41.9102 44.5664L41.7461 44.7188L39.8945 46.4297L38.5703 48.4102L37.2227 50.6836L36.0039 52.9688L35.9102 53.1094L34.4922 55.1484L33.4844 57.4688L33.4258 57.6094L33.3438 57.7383L31.8906 59.7891L30.9297 62.0625L30.8711 62.1914L30.8008 62.2969L29.4297 64.3945L28.5391 66.7148L28.4922 66.8438L28.4102 66.9609L27.0977 69.0586L26.4062 71.4023L26.3594 71.5781L26.2656 71.7422L24.9883 73.8516L24.2969 76.1367L23.9102 78.6562V78.7266L23.8867 78.7969L23.2891 81.1289L23.4531 83.2031L24.2969 84.5625L25.0469 84.668L26.1719 83.25L26.207 83.2031L26.2539 83.1562L28.0352 81.2227L29.7695 79.3359L31.2578 77.2617L32.582 75.1055L32.5938 75.0938L33.9766 72.8672L36.7305 73.8516L36.6016 74.9062L36.5898 74.9766L36.5664 75.0469L36.0273 77.4258L36.1797 79.7812L36.5312 82.418L36.5547 82.6055L36.5312 82.8047L36.2031 85.3477L36.3789 87.6914L36.7656 90.1875L37.4688 92.6836V92.6953L38.1719 95.25L38.957 97.3008L40.5859 98.9531L42.4141 100.746L43.4902 101.737L43.1826 99.5098L42.2334 97.2012L42.1631 97.0371L42.1279 96.8613L41.7061 94.248V94.2246L41.6943 94.1895L41.3779 91.5645V91.4824L41.1904 88.8457V88.834L41.0264 86.2207L40.8389 83.584L40.8271 83.3965L40.8623 83.2207L41.2959 80.5957L41.4482 78.1934L41.3076 75.6387L41.2959 75.5098L41.3076 75.3926L41.6006 72.7559L41.624 72.5801L41.6826 72.4277L42.4795 70.1074L42.5732 67.6582L42.585 67.3887L42.6904 67.1426L43.6748 64.752L44.4131 62.3145L45.1396 59.7715L45.1865 59.6309L45.2568 59.502L46.4521 57.1348L46.499 57.0645L47.7646 54.8848L48.8311 52.4941L48.9482 52.2363L49.1357 52.0488L51.0225 50.1504L51.0342 50.1387V50.127L52.9326 48.2988L52.9912 48.2402L53.0498 48.1934L55.1475 46.5527L55.4287 46.3301L55.7686 46.2598L58.3701 45.709L58.4756 45.6855H58.5693L61.1826 45.498L61.417 45.4863L61.6396 45.5449L64.1709 46.166L64.3936 46.2246L64.5811 46.3301L66.8076 47.6543H66.7959L69.1045 48.9551L69.4326 49.1426L69.6318 49.4473L71.0615 51.6855L72.5967 53.7129L72.7021 53.8535L72.7725 54.0176L73.7568 56.291L75.21 58.3887L75.3857 58.6348L75.4443 58.9395L75.9365 61.4355L76.874 63.7441L76.9209 63.8613L77.7178 66.3691L77.7295 66.4043L77.7412 66.4277L78.4326 68.9824L78.4678 69.123L78.4795 69.2754L78.6436 71.8535L79.1709 74.291L79.2061 74.4082V74.5254L79.3232 77.0215L79.8975 79.5176L79.9561 79.752L79.9326 79.998L79.6748 82.6465L79.5576 85.1895L79.6045 87.7441V87.9082L79.3584 90.5332V90.6152L79.3467 90.6973L78.8311 93.2871L78.5732 95.7129L78.4092 98.373L78.3975 98.5137L78.3623 98.6543L77.7412 100.998L77.7764 101.693L78.1328 101.648L79.9844 100.512L81.5195 98.9531L82.4336 96.7617L83.2891 94.3477L83.3125 94.3008L84.2148 92.0039L84.4961 89.5781L84.7539 86.9648V86.8828L84.7773 86.7891L85.3047 84.3867L85.1406 81.9492L85.1289 81.6914L85.1992 81.4336L85.8203 79.2188L85.5625 77.168L84.625 74.9062L84.5781 74.8008L84.5547 74.707L84.2852 73.6758L87.0859 72.6445L88.2344 75.0352L88.3047 75.2227L88.9375 77.2148L90.6953 78.3047L90.8945 78.4219L91.0352 78.5977L92.7812 80.5781L92.8047 80.6016L92.8281 80.6367L94.4805 82.6992L94.5508 82.793L94.6211 82.9102L95.5117 84.5273L96.2969 84.5742L97.1055 83.5312L97.3984 81.6328L96.7656 79.3828L96.7539 79.3711V79.3477L96.0977 76.8047L95.4297 74.3203L94.4688 72.0234L94.457 72.0117L94.4453 71.9883L93.4844 69.5391V69.5273L92.3711 67.2773L92.3477 67.207L92.3125 67.1367L91.4688 64.8516L90.0859 62.7305L90.0039 62.5898L89.9453 62.4258L89.0547 60.0352L87.8125 57.8672L87.8008 57.8555V57.8438L86.5352 55.582L85.0586 53.5312L84.9414 53.3672L84.8711 53.1914L83.9922 50.8711L82.5742 48.832L81.1211 46.7695L79.3398 45.0117L79.2109 44.8828L79.1172 44.7305L77.7695 42.5273L76.1758 40.5703L76.1055 40.4766L76.0469 40.3828L74.7109 38.0977L74.6641 38.0156L74.6289 37.9219L73.6094 35.4961L72.5547 33.1055L72.5078 32.9883L71.6523 30.4688L71.5469 30.1641L71.582 29.8359L71.8516 27.1992L71.8633 27.0586L71.9102 26.918L72.6719 24.4102L72.7422 24.1641L72.9062 23.9648L74.4883 21.8203L74.6406 21.6094L74.8633 21.4688L77.1133 19.9922L77.2305 19.9102L77.3594 19.8516L79.8203 18.832L79.8789 18.8203L79.9258 18.7969L82.4336 17.9766L82.5039 17.9531L84.4961 17.3906L84.7539 16.9219L83.9453 16.418L81.6953 15.8203L79.1875 15.4688L79.0352 15.4453L78.8945 15.3984L76.4336 14.5312L73.9375 13.8867L73.4453 13.7695L73.1406 13.3711L71.5234 11.3203L69.8828 9.67969L67.832 8.56641L65.7227 7.60547L63.332 7.51172V7.5L60.8594 7.48828L58.5742 7.88672ZM64.1338 14.4873L65.0215 14.5L65.3643 14.5049L67.501 15.5732V17.6924L67.2529 18.0684L66.7529 18.8262L66.3076 19.5H64.1006L63.7529 19.3008L62.4346 18.543L61.2764 17.877L61.8037 16.6504L62.1221 15.9082L62.2637 15.5801L62.5371 15.3506L63.1484 14.8379L63.5762 14.4795L64.1338 14.4873Z" fill="black"/>
</svg>
