<svg width="120" height="120" viewBox="0 0 120 120" fill="none" xmlns="http://www.w3.org/2000/svg">
<path d="M47.3213 50.0088L49.2607 50.2012L49.8662 50.2607L50.2588 50.7266L51.8516 52.6152L53.1494 53.5605L54.543 54.5771L53.5908 55.5586L53.0547 57.6562L53.1025 60.0234L53.2529 61.1914L54.1289 61.1465L55.6709 60.4863L56.8877 58.6504L56.9189 58.6045L56.9531 58.5605L58.5703 56.4736L58.5781 56.4629L58.5869 56.4531L60.2217 54.4199L61.7383 52.3145L61.8867 52.1084L62.0947 51.9619L63.9854 50.6387L64.8643 50.0234L65.7295 50.6553L67.8623 52.2119L67.9707 52.29L68.0635 52.3867L69.6621 54.0605L70.1289 54.5488L70.0732 55.2227L69.8594 57.7598L70.0127 60.2852L70.0137 60.3076L70.0146 60.3291L70.0674 62.0127L70.5117 62.2109L71.5586 61.8428L72.8848 60.0996L72.957 60.0039L73.0439 59.9219L74.8672 58.1816L76.2822 56.1621L77.6846 53.958L78.1602 53.21L79.0449 53.2646L80.9277 53.3838L81.4297 53.415L81.8105 53.7422L83.8174 55.4648L84.0059 55.626L84.1318 55.8389L85.3438 57.8877L85.5527 58.2412V58.6523L85.5508 61.2969V61.4404L85.5234 61.5811L85.0615 63.9658L85.3057 65.6221L85.9727 66.0039L86.874 65.3711L88.3154 63.4492L88.3252 63.4346L88.3369 63.4209L89.9688 61.3457L90.0303 61.2676L90.1025 61.1982L92.0107 59.3418L92.4326 58.9326L93.0205 58.918L94.8086 58.875L95.5586 58.8574L96.0234 59.4463L97.6719 61.5391L97.7715 61.666L97.8418 61.8115L98.8018 63.7842L98.9307 64.0508L98.9492 64.3467L99.1162 67.0176L99.1191 67.0557V67.0947L99.1494 69.71L99.1504 69.7979L99.1406 69.8857L98.9424 71.748L100.356 72.8896L100.369 72.8994L100.381 72.9092L102.321 74.5449L104.485 75.9092L104.72 76.0566L104.886 76.2783L106.479 78.4062L106.486 78.415L108.028 80.5039L109.631 82.6475L109.807 82.8828L109.881 83.167L110.562 85.7764L110.645 86.0938L110.587 86.417L110.119 89.0547L110.11 89.1035L110.099 89.1523L109.466 91.7217L109.403 91.9736L109.261 92.1895L107.8 94.4004L107.777 94.4346L107.753 94.4678L106.177 96.5898L106.091 96.7051L105.985 96.8018L104.045 98.5742L104.046 98.5752L102.109 100.381L101.985 100.496L101.84 100.581L99.5537 101.907L99.5547 101.908L97.2871 103.243L97.2578 103.261L94.9873 104.527L92.7637 105.897L92.7217 105.923L92.6787 105.946L90.335 107.186L90.2236 107.245L90.1035 107.284L88.6484 107.763L88.6924 109.212L88.6963 109.344L88.6768 109.474L88.3125 111.954L88.4688 114.442L88.4707 114.489L88.5352 114.488L91.1719 114.418H91.207L93.8438 114.406H93.9492L94.043 114.418L96.4336 114.734L98.8477 114.266L99.0938 114.219L99.3281 114.254L101.906 114.605L104.285 114.711L106.805 114.277L106.922 114.266H107.039L109.676 114.242H109.852L110.016 114.277L112.324 114.793L112.055 116H113.496V118.133L111.668 117.723L109.523 117.242L107.156 117.254L104.66 117.688L104.508 117.711L104.344 117.699L101.707 117.594H101.637L101.566 117.582L99.1641 117.242L96.7734 117.711L96.5391 117.758L96.3047 117.734L93.75 117.406L91.2188 117.418L91.207 117.406L88.6172 117.488H88.6055L86.7725 117.528L86.6465 117.718L85.7705 117.648L84.5732 117.553L83.3789 117.559L83.3906 117.57L80.7539 117.746L80.5664 117.758L79.5342 117.563L78.0254 117.621L77.9268 117.625L77.8281 117.615L76.2422 117.465L75.5508 117.547L75.4219 117.559H75.293L74.3955 117.509L72.8857 117.709L72.749 117.728L72.6123 117.721L70.0537 117.589L67.5068 117.757L67.4141 117.763L67.3213 117.757L64.7559 117.605L62.9102 117.673L62.2617 117.711L62.1094 117.723L61.9688 117.699L59.4258 117.348L58.1113 117.378L56.9854 117.481H56.9824L54.3428 117.718L54.2197 117.729L54.0957 117.72L51.4561 117.521L51.4365 117.519L48.9229 117.294L48.7363 117.309L46.4648 117.512L46.4297 117.523H46.3828L43.7461 117.617H43.6289L41.4229 117.528L41.1221 117.552L41.1211 117.551L38.4844 117.756L38.375 117.764L38.2646 117.756L35.7305 117.579L33.1875 117.747L33.1436 117.75H33.0996L30.46 117.769L29.209 117.777L29.1406 117.418L27.9727 117.43L25.3359 117.664L25.1953 117.676L25.043 117.664L22.5117 117.383L19.9336 117.395V117.383L17.3906 117.559H17.3789L17.3672 117.57L14.7188 117.688L14.625 117.699L14.543 117.688L12 117.5L12.0117 117.277V114.5H12.2227L14.6836 114.699L17.1914 114.582V114.57L19.8281 114.395H19.9219L22.5586 114.383L22.6523 114.371L22.7344 114.383L25.2422 114.664L27.7266 114.453L27.7734 114.441H27.832L28.5732 114.435L28.5352 114.23L28.5098 114.094L28.5088 113.955L28.502 111.666L28.0059 110.677L26.126 110.298L25.9727 110.268L25.8291 110.205L23.3916 109.157L23.2832 109.11L23.1826 109.047L20.9766 107.651L18.7412 106.288L18.5889 106.194L16.4668 104.072L16.3691 103.907L15.0391 101.642L15.0215 101.613L15.0068 101.584L13.7676 99.2441L13.6455 99.0127L13.6084 98.7529L13.2344 96.123L12.8779 93.6074L12.2568 91.0859L12.2197 90.9346L12.2139 90.7783L12.123 88.1357L12.1211 88.0596L12.126 87.9824L12.3066 85.3369L12.3125 85.248L12.3291 85.1611L12.8105 82.6143L13.1934 79.9902L13.2412 79.667L13.418 79.3926L14.8369 77.1982L16.04 74.9395L16.123 74.7832L16.2393 74.6514L16.8135 74L16.916 73.2246L16.4473 70.8223L16.3535 70.3652L16.541 69.9434L16.7988 69.334L17.1973 68.4316H18.3926L20.8535 68.6309L22.6221 68.5479L24.3135 67.4111L24.4404 67.3252L24.583 67.2676L26.9229 66.3115L29.1104 65.0049L29.332 64.8721L29.5859 64.8213L32.0557 64.3262L34.3486 63.3682L36.2402 62.5059L37.8477 60.8057L39.5264 58.9014L41.0332 56.8389L42.5674 54.6855L42.5977 54.6436L42.6299 54.6035L44.3066 52.5635L44.3145 52.5557L44.3213 52.5469L46.0293 50.5312L46.5381 49.9316L47.3213 50.0088ZM46.6094 54.4863L44.9844 56.4629L43.4766 58.5791L43.4717 58.5869L43.4668 58.5938L41.9092 60.7275L41.8682 60.7832L41.8223 60.8359L40.0732 62.8184L40.0566 62.8379L40.0381 62.8564L38.2168 64.7822L38.0156 64.9941L37.75 65.1162L35.5625 66.1133L35.54 66.123L35.5176 66.1318L33.0723 67.1533L32.9346 67.21L32.7891 67.2393L30.4287 67.7109L29.3379 68.3623L31.4121 68.5957L33.8965 68.3848L33.9434 68.373H34.002L36.6504 68.3496H36.6738L39.2285 68.3613L41.877 68.2441L41.959 68.2324L42.041 68.2441L44.6895 68.4199L44.6777 68.4316L47.2324 68.4434H47.2793L49.8691 68.5488L52.4473 68.4551L52.5996 68.4434L52.752 68.4668L55.1777 68.877L56.4551 69.0879L56.4316 70.377L56.3848 73.0254L56.373 75.6504L56.3613 76.1074L56.1152 76.4824L54.9434 78.2051L54.5098 78.8379L53.7363 78.8613L51.0879 78.9082H50.9707L50.8535 78.8965L48.3574 78.5449L45.9316 78.6855L43.2949 78.9668L43.1309 78.9902L42.9668 78.9668L40.4121 78.6738L37.9512 78.8379H37.7871L35.3145 78.6973L32.7598 79.002L32.5254 79.0254L32.3027 78.9902L29.8535 78.5215L27.4043 78.6855H27.3223L24.6855 78.709L22.0488 78.7676L22.0605 78.7793L19.4238 78.8496L18.709 78.873L18.2402 78.3223L17.8691 77.8848L17.4561 78.6641L17.4258 78.7197L17.3916 78.7734L16.1143 80.7471L15.7764 83.0645L15.7715 83.0957L15.7666 83.126L15.293 85.6299L15.124 88.1074L15.2061 90.5166L15.8076 92.9619L15.8262 93.0352L15.8359 93.1094L16.2051 95.7012L16.542 98.0723L17.6426 100.151L18.8584 102.222L20.457 103.819L22.5391 105.091L22.5488 105.097L22.5596 105.104L24.6846 106.447L26.873 107.388L29.3164 107.881L30.0332 108.025L30.3018 108.562L31.9883 108.699L34.4961 108.582V108.57L37.1328 108.395H37.2266L39.8633 108.383L39.957 108.371L40.0391 108.383L42.5469 108.664L45.0312 108.453L45.0781 108.441H45.1367L47.7852 108.418H47.8086L50.3633 108.43L53.0117 108.312L53.0938 108.301L53.1758 108.312L55.8242 108.488L55.8125 108.5L58.3672 108.512H58.4492L60.1719 108.617L60.0898 110H61.5781V111.711L59.9844 111.617L58.2617 111.512V111.5L55.707 111.488H55.6602L55.6133 111.477L53.0352 111.301L50.5039 111.43H50.4219L47.7852 111.418V111.406L45.2773 111.43L42.6406 111.664L42.5 111.676L42.3477 111.664L39.8164 111.383L37.2383 111.395V111.383L34.6953 111.559H34.6836L34.6719 111.57L32.0234 111.688L31.9297 111.699L31.8477 111.688L31.501 111.661L31.5078 113.802L31.625 114.423L33.0586 114.43L35.707 114.312L35.7891 114.301L35.8711 114.312L38.5195 114.488L38.5078 114.5L41.0625 114.512H41.1094L41.3838 114.522L43.5371 114.361L43.6348 114.354L43.7324 114.359L46.2646 114.499L48.6826 114.304L48.8438 114.289H48.8721L48.9355 114.284L48.9932 114.289H48.9961L51.6328 114.336L51.6211 114.348H54.2812L56.8828 114.406L57.9316 114.382L59.3525 114.253L59.5488 114.234L59.7441 114.269L62.2266 114.696L63.1289 114.663L64.7227 114.559V114.57L67.3008 114.289L67.4531 114.277L67.6172 114.289L70.1016 114.582L72.6445 114.43L72.7266 114.418L72.8086 114.43L74.2451 114.502L75.1328 114.386L75.3008 114.364L75.4697 114.38L76.2422 114.452L77.8359 114.266L78.0703 114.23L78.293 114.277L79.7754 114.554L80.5537 114.525L80.5635 114.524L83.2031 114.444L83.2861 114.441L83.3682 114.448L84.8213 114.562L85.1475 114.562L85.4424 114.123L85.3096 111.99L85.2998 111.834L85.3223 111.679L85.6895 109.171L85.6172 106.734L85.584 105.616L86.6465 105.266L89.0439 104.475L91.2354 103.314L93.4453 101.955L93.4727 101.938L93.5 101.923L95.7646 100.658L98.0332 99.3232L98.041 99.3184L100.187 98.0713L101.999 96.3818L102.005 96.376L102.011 96.3711L103.854 94.6846L105.32 92.7109L106.614 90.7529L107.173 88.4824L107.575 86.2148L107.052 84.208L105.626 82.3008L105.62 82.293L104.072 80.1963V80.1953L102.65 78.2988L100.634 77.0273L100.546 76.9727L100.467 76.9053L98.4717 75.2236L96.4229 73.5693L95.7871 73.0557L95.873 72.2432L96.1484 69.6592L96.1191 67.1533L95.9727 64.8291L95.2158 63.2705L94.1299 61.8916L93.6807 61.9023L92.2686 63.2744L90.6943 65.2754L89.1328 67.3613L88.9893 67.5527L88.7939 67.6904L86.916 69.0078L86.1357 69.5547L85.3096 69.0811L83.1826 67.8643L82.5498 67.502L82.4443 66.7803L82.0566 64.1494L82.0195 63.8965L82.0684 63.6455L82.5508 61.1514L82.5518 59.0605L81.6758 57.5801L80.2373 56.3457L79.7402 56.3145L78.793 57.8066L78.7744 57.8359L78.7549 57.8643L77.2363 60.0293L77.1504 60.1504L77.043 60.2529L75.2012 62.0088L73.6748 64.0166L73.4033 64.375L72.9785 64.5244L70.9443 65.2402L70.3809 65.4385L69.835 65.1943L67.9863 64.3691L67.1289 63.9854L67.0986 63.0469L67.0166 60.4463L66.8594 57.8291L66.8525 57.7207L66.8613 57.6133L67.0264 55.6436L65.9844 54.5547L64.8281 53.7109L64.0215 54.2744L62.627 56.2119L62.6045 56.2441L62.5791 56.2754L60.9404 58.3115L59.3584 60.3516L57.9248 62.5166L57.6768 62.8906L57.2646 63.0674L55.0635 64.0098L54.8174 64.1152L54.5498 64.1289L52.0215 64.2588L50.6348 64.3301L50.457 62.9541L50.1172 60.3311L50.1064 60.251L50.1055 60.1699L50.0508 57.5146L50.0469 57.3096L50.0977 57.1113L50.542 55.373L49.9395 54.9336L49.7939 54.8271L49.6768 54.6885L48.3584 53.126L47.8076 53.0713L46.6094 54.4863ZM39.3691 71.3613H39.2871L36.6504 71.3496V71.3379L34.1426 71.3613L31.5059 71.5957L31.3652 71.6074L31.2129 71.5957L28.6816 71.3145L26.1035 71.3262V71.3145L23.5605 71.4902H23.5488L23.5371 71.502L20.8887 71.6191L20.7949 71.6309L20.7129 71.6191L19.623 71.5371L19.8926 72.8965L19.9395 73.1309L19.916 73.377L19.6582 75.3574L20.0566 75.8262L21.9902 75.7793L24.627 75.7207H24.6504L27.2871 75.6855L29.8418 75.5215L30.0293 75.5098L30.2168 75.5449L32.6309 75.9902L35.0449 75.709L35.1738 75.6973L35.3027 75.709L37.8457 75.8262L40.4121 75.6855L40.541 75.6738L40.6699 75.6855L43.1426 75.9668L45.627 75.709H45.6973L48.334 75.5449L48.4863 75.5332L48.627 75.5566L51.0879 75.8965L52.8926 75.873L53.373 75.1699L53.3848 72.9902V72.9668L53.4082 71.6191L52.4238 71.4551L49.916 71.5488H49.7988L47.1621 71.4434V71.4316L44.5723 71.4199H44.5254L44.4785 71.4082L41.9004 71.2324L39.3691 71.3613Z" fill="black"/>
</svg>
