<svg xmlns="http://www.w3.org/2000/svg" width="120" height="120" fill="none" viewBox="0 0 120 120"><path fill="#000" d="m35.495 13.005 1.383-.012.012 3v.012l.003.056.214.939 1.811-.105h.07l3-.012 1.512-.012V18.5H42l.012 1.383-3 .012H39l-1.215.067.05.222.669 2.93.012.023.011.035.528 2.836 1.054 2.648.047.106.024.105.633 2.79.984 2.952.023.106.48 2.765 1.231 2.579.07.152.036.164.644 2.941.785 2.813h.012v.012l1.524 5.812-.012.012.762 2.66-.422.12.663.336-.005.928-.017 2.95.122 2.98.003.076-.005.075-.176 2.947-.026 2.976v.04l-.107 2.945.095 2.902.231 2.984.006.07-.001.068-.044 3-.016 2.986-.002.382-.07.127 2.27-.226.143-.015.144.014 3 .277.047.004.022-.044 1.3-2.718.083-.188.129-.152 1.886-2.18 1.313-2.508.023-.023.012-.035 1.535-2.555-.011-.012 1.5-2.59 1.5-2.601v-.024l.011-.011 1.547-2.567.047-.082.047-.058 1.723-2.203 1.042-2.66.083-.2.129-.164 1.792-2.285 1.57-2.39 1.126-2.673.351-.832.903-.082 1.98-.152 1.113-.094.41 1.043 1.043 2.649 1.665 2.261.07.106.058.105L80.5 60.22l1.77 2.25.105.14.07.153 1.22 2.66 1.44 2.437 1.852 2.227.07.082.059.094 1.582 2.543.059.082.035.082 1.195 2.601 1.664 2.368.047.07.047.082 1.394 2.601 1.594 2.45.176.257.047.293.515 2.871.024.188.152 3v.106l-.011.093-.247 3-.07 2.871v2.883l.234 3v.035l.176 3 .012.082v.082l-.164 3 .082 2.883.012.117-.024.118-.363 2.918.042.542 2.669-.062H98l3-.012h.164l2.754.328 2.836-.48.211-.035.211.023 2.906.352 2.004.117-.07 1.289h1.488v1.793l-1.582-.094-2.004-.105h-.047l-.047-.012-2.801-.328-2.777.469-.211.035-.199-.024-2.895-.328-2.941.012v-.012l-2.965.082h-.012l-3 .059h-.011l-2.942.012.012.011-2.718.159-.008.029-.234-.015-.04.003-.164.012-.164-.035-.013-.003-.546-.032-1.324-.079-1.86.008-.081.012-.07-.012-1.209-.123-.499.053-.105.012h-.117l-2.402-.117-1.41.117h-.106l-1.757.013-.173.01h-.117l-.07-.008-.883.008h-.024l-2.572-.011-.06.187-1.16-.07-.856-.051-1.281.051-.07.011-.083-.011-.633-.038-1.191.061-.129.012-.14-.012-1.708-.215-2.117-.008h-.047l-2.674-.096-.353-.007-2.867.092-.867.035-.078-.128-.162.35-1.001-.041-2.971-.122-2.96.017h-.023l-1.512-.016-1.426.045h-.106l-3-.105v-.012l-1.544-.007-1.252.123-.076.007h-.076l-3-.014h-.04l-.04-.003-3-.175v-.001l-.01-.001-2.903-.011-1.722.007-1.078.072-.05.003h-.941l-2.092.164-.129.012-.129-.012-2.882-.281-2.965.012-.012-.012-2.918.176-.012.011h-.011l-3 .118-.082.011-.082-.011L8 117.5v-3h.2l2.835.199 2.883-.117v-.012l3-.175h.07l3-.012.082-.012.07.012 2.883.293 1.5-.123.225-2.493-.485-2.805-.023-.131.001-.134.019-3v-.105l.016-.105.424-2.86-.102-2.808-.35-2.935-.025-.214.035-.212.47-2.79-.317-2.791-.01-.088v-.088l.011-3 .001-.018v-.02l.088-3.014.043-1.484.075.001-.028-.062-.025-.244-.307-3-.02-.2.031-.198.471-2.836-.166-2.832-.002-.036v-.036l-.03-3 .002-.001-.059-2.977-.073-3v-.031l-.012-3v-.088l.01-.088.317-2.792-.47-2.789-.054-.318.082-.312.263-1 .294-1.119h.113l.763-2.73.925-2.778.657-2.93v-.035l.012-.035.796-2.894v.011l.715-2.882.012-.059.012-.047.925-2.86.012-.023.012-.035 1.043-2.824.738-2.766.012-.011.797-2.86v-.012l.773-2.894v-.023l.012-.036.879-2.87.035-.106.047-.106.046-.095-.059-1.455-1.061.043-.082.011-.082-.012L30 20v-3h.2l2.835.2.917-.039-.062-1.074v-.07l-.012-3-.012-1.512h1.63zm28.743 81.632-.89 1.957.058 2.66v.058l-.058 3-.012 2.977v.012l-.047 3 .223 2.871.011.023v.035l.07 2.555.481.703 2.227.024h.07l1.18.067.367-.02v.011l.317-.031.34-1.07.01-2.742-.022-2.895-.223-3-.012-.129.012-.129.281-2.847-.012-2.918-.175-2.696-.926-1.734-1.688-.75zm8.938-38.028-.047.13-.082.117-1.64 2.507-.036.047-.047.047-1.71 2.215-1.055 2.625-.082.2-.13.163-1.792 2.344-1.477 2.45-1.5 2.612-1.5 2.59-.012.012-1.535 2.578-1.37 2.602-.071.14-.117.13-1.84 2.167-1.137 2.39-.562 2.462.098 1.814.107.866.012.105-.002.105L55.596 93l.056 2.97.001.011v.011l.01 1.92.052 1.014.012.129-.024.129-.028.235.038 2.56v.068l-.005.069-.231 2.984-.095 2.902.106 2.944v.021l.001.02.025 2.948.254.413h.255l1.876.036.054-.001h.106l.316.011.625.012 1.618-.032v-.038l-.095-2.941-.234-3v-.129l.047-3 .012-2.989v-.023l.058-2.942-.058-3v-.34l.14-.304 1.207-2.66.176-.41.375-.235 2.39-1.523.247-.164.293-.047.562-.106 1.184-.21.27.656 2.003.867.48.21.247.47 1.324 2.507.152.282.024.328.187 2.988v.094l.012 3v.152l-.281 2.836.21 2.906.013.047v.047l.023 3v.024l-.012 3v.222l-.07.223-.048.148 2.494.258.121-.001 2.55-.133-.004-.108-.094-2.941-.234-3v-.129l.047-3 .012-2.989v-.023l.058-2.942-.058-3v-.34l.14-.304 1.207-2.66.176-.41.375-.235 2.39-1.523.247-.164.293-.047.562-.106 1.184-.21.27.656 2.003.867.48.21.247.47 1.324 2.507.152.282.024.328.187 2.988v.094l.012 3v.152l-.281 2.836.21 2.906.013.047v.047l.023 3v.024l-.012 3v.222l-.07.223-.096.3.51-.031.012-.011h.011l3-.118.082-.011.083.011 1.183.083-.047-.61.024-.152.375-2.871-.094-2.895v-.117l.164-2.906-.176-2.895-.246-3v-3.164l.07-3v-.047l.012-.035.246-2.918-.14-2.8-.446-2.462-1.476-2.261-.036-.047-.023-.059-1.383-2.566-1.675-2.39-.082-.106-.06-.13-1.23-2.683-1.5-2.39-1.851-2.215-.14-.188-1.524-2.59-.047-.058-.035-.082-1.172-2.578-1.758-2.25-.082-.106-.07-.129-1.301-2.554-1.734-2.344-.106-.164-.082-.176-.68-1.746zM47.148 86.575l-.113.012-.114-.006-.998-.054-.028.052-.868.016-3 .054-.105.002-.105-.012-.692-.085-.058.003-.11.004-.11-.01-2.348-.241-1.07.055-2.184.363-.165.027-.167-.01-1.324-.077-.451.042-.144.014-.142-.015-1.413-.142-2.454-.023h-.014l-.979-.019-.538.029-.042 1.49-.01 2.875.331 2.911.024.211-.035.208-.47 2.79.331 2.784.008.06.002.061.11 3 .005.139-.02.137-.43 2.899-.017 2.761.496 2.865.034.193-.018.196-.204 2.266 1.351-.09.081-.005.082.003 2.881.121 2.997-.117.07-.011.083.011 3 .176-.012.012 1.07.004 1.703-.165.128-.013.13.01 2.94.223 1.487.014 1.343-.038 3-.246h.14l2.188.034.077-.167.005-.183.035-3 .024-2.977v-.023l.058-3-.058-2.942v-.105l.011-.106.31-2.516-.003-.282-.001-.014-.006-.986-.1-1.885-.27-3-.012-.14.012-.141.281-2.907-.045-.838-.212-1.731-.366-.91-1.946-.179zm33.09 8.062-.89 1.957.058 2.66v.058l-.058 3-.012 2.977v.012l-.047 3 .223 2.871.011.023v.035l.07 2.555.435.637.646.063 2.174-.231.199-.012.2.024 1.02.174.307-.971.012-2.742-.023-2.895-.223-3-.012-.129.012-.129.281-2.847-.012-2.918-.175-2.696-.926-1.734-1.688-.75zm-38.742-3.54 1.7.739.48.21.246.47 1.324 2.507.152.282.024.328.187 2.988v.094l.012 3v.152l-.281 2.836.21 2.906.106 1.407-1.394.187-2.778.375-.105.012h-.106l-3-.024h-.222l-.223-.07-2.473-.785-1.113-.352.07-1.16.176-3 .024-2.929v-.036l.105-2.93-.035-3v-.374l.176-.34 1.394-2.66.282-.551.597-.188 2.52-.797 1.945-.609zm-2.977 2.766-.937 1.793.035 2.613v.07l-.105 3.001-.024 2.953v.082l-.117 1.828 1.148.363 2.649.012 1.289-.164-.117-1.582-.012-.129.012-.129.281-2.847-.012-2.918-.175-2.696-.926-1.734-1.922-.856zm34.145-22.398.902.035 1.184.047.129.691 1.664 1.219.539.399.059.667.28 2.907.013.023v.035l.175 3 .012.235-.058.234-.692 2.555-.328 1.23-1.266-.129-3-.293-.504-.047-.375-.351-1.488-1.406-.457-.434-.012-.644-.023-3v-.024l.012-3v-.457l.257-.375 1.665-2.46.468-.692zm-35.672-15.07-1.616-.007-.336.002-2.767.163-1.129.111-.128.012-.13-.012-.42-.031-1.402.06-.083.002-.08-.005-1.544-.103.365 2.164.035.208-.024.21-.332 2.912.011 2.882.074 3v.008l.058 3v.014l.028 2.973.173 2.955.01.167-.027.165-.465 2.8.262 2.56.416.918h.008l1.972-.104.114-.006.113.012 1.452.143.415.005h.036l.036.002 1.447.084 2.328-.214.03-.003h.03l1.174-.063.659-.109.198-.032.2.02.423.044.346-.018.13-.007.13.017 2.062.252 2.689-.121.073-.003.073.004.122.006.454-.823.014-2.617v-.014l.043-2.937-.228-2.925-.003-.033v-.033l-.1-3-.001-.052.002-.052.107-2.983.026-2.976v-.039l.002-.038.175-2.92-.12-2.928v-.071l.01-2.073-.581-.294-.903.063-.082.012-.082-.011-1.406-.056-.415.032-.13.01-.127-.013-1.238-.12-2.626-.158zm35.426 19.488v2.555l.012 2.331.656.622 1.207.105.293-1.09-.152-2.742v-.012l-.223-2.18-1.008-.75zM35.664 61.465l.902.035 1.184.047.129.691 1.664 1.219.539.398.059.668.28 2.907.013.023v.035l.175 3 .012.235-.059.234-.69 2.555-.329 1.23-1.266-.129-3-.293-.504-.047-.375-.351-1.488-1.406-.457-.434-.012-.644-.023-3v-.024l.012-3v-.457l.258-.375 1.664-2.46.468-.692zm-.246 4.418v2.555l.012 2.331.656.622 1.207.105.293-1.09-.152-2.742v-.012l-.223-2.18-1.008-.75zm-.125-37.38-.012.013v.011l-.808 2.871h.011l-.785 2.895-.023.07-.024.059-1.043 2.824-.867 2.695-.726 2.918v.024l-.012.011-.774 2.825-.656 2.93-.012.07-.023.07-.95 2.86-.468 1.663.293.165 1.997.156 1.501-.063.229-.014 1.71-.173.083-.012.07.012 1.455.005 2.534-.011h.076l.075.007 1.863.181.079.005-.003.002.163.017 1.145.046 2.496-.189.014-.002-.194-.706-.012-.011v-.024l-.75-2.894-.773-2.895-.785-2.883-.024-.07-.62-2.742-1.231-2.625-.082-.176-.035-.2-.504-2.8-.926-2.8-.024-.071-.011-.07-.668-2.848-1.055-2.672-.047-.129-.035-.14-.152-.786z"/></svg>