<svg width="120" height="120" viewBox="0 0 120 120" fill="none" xmlns="http://www.w3.org/2000/svg">
<path d="M111.312 114.289L112.355 114.547L111.652 117.453L110.891 117.266L108.547 117.629L108.453 117.652H108.359L105.723 117.723H105.582L103.051 117.301L100.672 117.734L100.438 117.781L100.203 117.746L97.6367 117.406H95.2344L92.5977 117.629L92.4922 117.641L92.3984 117.629L89.75 117.477V117.465L87.2773 117.348L84.7812 117.734L84.582 117.77L84.3945 117.746L81.8516 117.453L79.2969 117.477L79.2852 117.465L76.7773 117.711L76.6133 117.723L76.4492 117.699L73.918 117.383L71.3867 117.43H71.3281L68.6914 117.371H68.6445L66.1719 117.23L63.7109 117.699L63.4766 117.746L63.2305 117.711L60.7227 117.348L58.2383 117.488H58.0156L55.5898 117.242L53.1406 117.676L52.8828 117.723L52.6133 117.676L50.1172 117.242L47.6914 117.395H47.668L47.6445 117.406L42.3711 117.57H42.2539L42.1367 117.559L39.5938 117.254L37.1328 117.418L37.0508 117.43L36.957 117.418L34.5078 117.277L32 117.699L31.7891 117.734L31.5781 117.711L29.0234 117.395L26.5391 117.324L23.9492 117.512L23.8906 117.523H23.832L21.1953 117.512H21.0781L18.5 117.301L16.0508 117.395L16.0625 117.406L13.4258 117.664L13.2734 117.676L13.1211 117.664L10.625 117.395L8.16406 117.5H8V114.5H8.03516L10.5781 114.395L10.6836 114.383L10.8008 114.395L13.2852 114.664L15.7695 114.418H15.8633L18.5 114.312L18.5938 114.301L18.6758 114.312L21.3125 114.512L21.3008 114.523H23.7383L26.375 114.336L26.4453 114.324L26.5273 114.336L29.1641 114.406H29.2344L29.293 114.418L31.7305 114.699L34.1562 114.301L34.3203 114.277L34.4844 114.289L37.0156 114.43L39.582 114.254L39.7227 114.242L39.8633 114.266L42.3711 114.57L44.9141 114.488L47.5039 114.418V114.406L50.1523 114.242L50.3281 114.23L50.5039 114.266L52.8828 114.688L55.2617 114.266L55.4609 114.23L55.6602 114.242L58.1328 114.488L60.7227 114.348L60.8633 114.336L61.0156 114.359L63.418 114.711L65.8086 114.266L65.9844 114.23L66.1602 114.242L68.7969 114.371L68.7852 114.383L71.3633 114.43L73.9766 114.383H74.082L74.1875 114.395L76.6836 114.711L79.1445 114.477H79.2734L81.9102 114.453H82.0039L82.0859 114.465L84.5469 114.746L86.9727 114.371L87.125 114.348L87.2773 114.359L89.9141 114.488H89.9258L92.4453 114.641L95 114.43L95.0586 114.418H95.1055L97.7539 114.406H97.8594L97.9648 114.418L100.367 114.746L102.77 114.312L103.027 114.266L103.285 114.301L105.816 114.723L108.137 114.664L110.738 114.266L111.031 114.219L111.312 114.289Z" fill="black"/>
<path d="M108.434 87.2383L109.184 89.1367L109.277 89.3828V89.6406L109.336 92.1367L109.734 94.7383L109.758 94.8438V94.9609L109.746 97.6094V97.7148L109.723 97.8203L109.359 100.258L109.5 102.801V102.871L109.523 105.508V105.566L109.453 108.191L109.395 110.828V110.852L109.301 113.488L109.418 116.09L109.488 117.73L107.848 117.648L105.316 117.52L102.762 117.73L102.609 117.742L102.469 117.73L99.9492 117.438L97.4062 117.508H94.7812L94.793 117.52L92.1562 117.648H92.0508L89.4141 117.59L86.7656 117.543V117.531L84.1875 117.508L81.5742 117.602L78.9258 117.684H78.8672L76.2305 117.672H76.207L73.5703 117.625L73.5 117.613H73.4297L70.9102 117.32L68.3555 117.367L65.8359 117.648H65.6836L63.0469 117.66H62.9883L62.9297 117.648L60.3516 117.461L57.7148 117.391V117.379L55.0898 117.344L52.5 117.297L49.8867 117.391H49.8164L47.1797 117.355H47.1328L44.5898 117.238L42.0938 117.543H42.0117L39.3633 117.707H39.2109L36.6211 117.578L33.9961 117.555L31.3828 117.59H31.3711L28.7227 117.602H28.5703L26.1094 117.332L23.5664 117.555L23.4961 117.566H23.4141L20.7773 117.508L18.1758 117.531H18.1406L15.5039 117.496H15.4219L12.7734 117.309L12.082 117.262L11.6719 116.699L10.5234 115.117L10.1367 114.602L10.2656 113.969L10.7344 111.449L10.7109 109.082L10.4883 106.445V106.422L10.3125 103.785V101.055L10.2773 98.418V98.2891L10.3008 98.1602L10.7109 95.6641L10.5469 93.2148V93.0625L10.6406 90.4258L10.5 88.082L12 88V86.5H12.0352L14.5781 86.3945L14.6836 86.3828L14.8008 86.3945L17.2852 86.6641L19.7695 86.418H19.8633L22.5 86.3125L22.5938 86.3008L22.6758 86.3125L25.3125 86.5117L25.3008 86.5234H27.7383L30.375 86.3359L30.4453 86.3242L30.5273 86.3359L33.1641 86.4062H33.2344L33.293 86.418L35.7305 86.6992L38.1562 86.3008L38.3203 86.2773L38.4844 86.2891L41.0156 86.4297L43.582 86.2539L43.7227 86.2422L43.8633 86.2656L46.3711 86.5703L48.9141 86.4883L51.5039 86.418V86.4062L54.1523 86.2422L54.3281 86.2305L54.5039 86.2656L56.8828 86.6875L59.2617 86.2656L59.4609 86.2305L59.6602 86.2422L62.1328 86.4883L64.7227 86.3477L64.8633 86.3359L65.0156 86.3594L67.418 86.7109L69.8086 86.2656L69.9844 86.2305L70.1602 86.2422L72.7969 86.3711L72.7852 86.3828L75.3633 86.4297L77.9766 86.3828H78.082L78.1875 86.3945L80.6836 86.7109L83.1445 86.4766H83.2734L85.9102 86.4531H86.0039L86.0859 86.4648L88.5469 86.7461L90.9727 86.3711L91.125 86.3477L91.2773 86.3594L93.9141 86.4883H93.9258L96.4453 86.6406L99 86.4297L99.0586 86.418H99.1055L101.754 86.4062H101.859L101.965 86.418L104.367 86.7461L106.77 86.3125L107.988 86.0898L108.434 87.2383ZM67.7109 89.6992L67.4766 89.7461L67.2305 89.7109L64.7227 89.3477L62.2383 89.4883H62.0156L59.5898 89.2422L57.1406 89.6758L56.8828 89.7227L56.6133 89.6758L54.1172 89.2422L51.6914 89.3945H51.668L51.6445 89.4062L46.3711 89.5703H46.2539L46.1367 89.5586L43.5938 89.2539L41.1328 89.418L41.0508 89.4297L40.957 89.418L38.5078 89.2773L36 89.6992L35.7891 89.7344L35.5781 89.7109L33.0234 89.3945L30.5391 89.3242L27.9492 89.5117L27.8906 89.5234H27.832L25.1953 89.5117H25.0781L22.5 89.3008L20.0508 89.3945L20.0625 89.4062L17.4258 89.6641L17.2734 89.6758L17.1211 89.6641L14.625 89.3945L13.582 89.4297L13.6406 90.3906V90.543L13.5469 93.1797L13.6992 95.6641L13.7109 95.8398L13.6875 95.9922L13.2773 98.5469L13.3125 101.02V103.68L13.4883 106.223H13.4766L13.6992 108.836L13.7109 108.895V108.941L13.7344 111.59V111.73L13.6992 111.871L13.3242 113.875L13.6758 114.355L15.6211 114.496H15.6094L18.1641 114.52L20.7891 114.508H20.8242L23.332 114.555L25.9453 114.344L26.0859 114.32L26.2383 114.344L28.7578 114.59H31.3359L33.9727 114.555H34.0195L36.6562 114.59H36.7031L39.2578 114.695L41.7422 114.555L44.3906 114.25L44.5078 114.238H44.625L47.2617 114.355H47.25L49.8047 114.379L52.4297 114.297H52.5117L57.7852 114.391H57.8086L60.4453 114.473H60.5039L63.1289 114.648H65.6367L68.168 114.391L68.2266 114.379H68.2852L70.9219 114.32L71.0273 114.309L71.1328 114.32L73.7695 114.625H73.7578L76.2656 114.672H78.832L81.4688 114.602L84.1055 114.508H84.1758L86.8125 114.543H86.8359L89.4727 114.59L92.0273 114.637L94.6406 114.52H94.7227L97.3125 114.508L99.9609 114.438H100.066L100.172 114.449L102.621 114.73L105.164 114.531L105.258 114.52L105.352 114.531L106.336 114.578L106.301 113.5V113.395L106.395 110.746L106.453 108.133V108.121L106.523 105.531L106.5 102.883H106.512L106.359 100.328L106.348 100.176L106.371 100.023L106.746 97.457V95.1016L106.371 92.5469L106.348 92.4531V92.3594L106.277 89.9688L106.09 89.4766L104.672 89.7344L104.438 89.7812L104.203 89.7461L101.637 89.4062H99.2344L96.5977 89.6289L96.4922 89.6406L96.3984 89.6289L93.75 89.4766V89.4648L91.2773 89.3477L88.7812 89.7344L88.582 89.7695L88.3945 89.7461L85.8516 89.4531L83.2969 89.4766L83.2852 89.4648L80.7773 89.7109L80.6133 89.7227L80.4492 89.6992L77.918 89.3828L75.3867 89.4297H75.3281L72.6914 89.3711H72.6445L70.1719 89.2305L67.7109 89.6992Z" fill="black"/>
<path d="M108.434 87.2383L109.184 89.1367L109.277 89.3828V89.6406L109.336 92.1367L109.734 94.7383L109.758 94.8438V94.9609L109.746 97.6094V97.7148L109.723 97.8203L109.359 100.258L109.5 102.801V102.871L109.523 105.508V105.566L109.453 108.191L109.395 110.828V110.852L109.301 113.488L109.418 116.09L109.488 117.73L107.848 117.648L105.316 117.52L102.762 117.73L102.609 117.742L102.469 117.73L99.9492 117.438L97.4062 117.508H94.7812L94.793 117.52L92.1562 117.648H92.0508L89.4141 117.59L86.7656 117.543V117.531L84.1875 117.508L81.5742 117.602L78.9258 117.684H78.8672L76.2305 117.672H76.207L73.5703 117.625L73.5 117.613H73.4297L70.9102 117.32L68.3555 117.367L65.8359 117.648H65.6836L63.0469 117.66H62.9883L62.9297 117.648L60.3516 117.461L57.7148 117.391V117.379L55.0898 117.344L52.5 117.297L49.8867 117.391H49.8164L47.1797 117.355H47.1328L44.5898 117.238L42.0938 117.543H42.0117L39.3633 117.707H39.2109L36.6211 117.578L33.9961 117.555L31.3828 117.59H31.3711L28.7227 117.602H28.5703L26.1094 117.332L23.5664 117.555L23.4961 117.566H23.4141L20.7773 117.508L18.1758 117.531H18.1406L15.5039 117.496H15.4219L12.7734 117.309L12.082 117.262L11.6719 116.699L10.5234 115.117L10.1367 114.602L10.2656 113.969L10.7344 111.449L10.7109 109.082L10.4883 106.445V106.422L10.3125 103.785V101.055L10.2773 98.418V98.2891L10.3008 98.1602L10.7109 95.6641L10.5469 93.2148V93.0625L10.6406 90.4258L10.5 88.082L12 88V86.5H12.0352L14.5781 86.3945L14.6836 86.3828L14.8008 86.3945L17.2852 86.6641L19.7695 86.418H19.8633L22.5 86.3125L22.5938 86.3008L22.6758 86.3125L25.3125 86.5117L25.3008 86.5234H27.7383L30.375 86.3359L30.4453 86.3242L30.5273 86.3359L33.1641 86.4062H33.2344L33.293 86.418L35.7305 86.6992L38.1562 86.3008L38.3203 86.2773L38.4844 86.2891L41.0156 86.4297L43.582 86.2539L43.7227 86.2422L43.8633 86.2656L46.3711 86.5703L48.9141 86.4883L51.5039 86.418V86.4062L54.1523 86.2422L54.3281 86.2305L54.5039 86.2656L56.8828 86.6875L59.2617 86.2656L59.4609 86.2305L59.6602 86.2422L62.1328 86.4883L64.7227 86.3477L64.8633 86.3359L65.0156 86.3594L67.418 86.7109L69.8086 86.2656L69.9844 86.2305L70.1602 86.2422L72.7969 86.3711L72.7852 86.3828L75.3633 86.4297L77.9766 86.3828H78.082L78.1875 86.3945L80.6836 86.7109L83.1445 86.4766H83.2734L85.9102 86.4531H86.0039L86.0859 86.4648L88.5469 86.7461L90.9727 86.3711L91.125 86.3477L91.2773 86.3594L93.9141 86.4883H93.9258L96.4453 86.6406L99 86.4297L99.0586 86.418H99.1055L101.754 86.4062H101.859L101.965 86.418L104.367 86.7461L106.77 86.3125L107.988 86.0898L108.434 87.2383ZM67.7109 89.6992L67.4766 89.7461L67.2305 89.7109L64.7227 89.3477L62.2383 89.4883H62.0156L59.5898 89.2422L57.1406 89.6758L56.8828 89.7227L56.6133 89.6758L54.1172 89.2422L51.6914 89.3945H51.668L51.6445 89.4062L46.3711 89.5703H46.2539L46.1367 89.5586L43.5938 89.2539L41.1328 89.418L41.0508 89.4297L40.957 89.418L38.5078 89.2773L36 89.6992L35.7891 89.7344L35.5781 89.7109L33.0234 89.3945L30.5391 89.3242L27.9492 89.5117L27.8906 89.5234H27.832L25.1953 89.5117H25.0781L22.5 89.3008L20.0508 89.3945L20.0625 89.4062L17.4258 89.6641L17.2734 89.6758L17.1211 89.6641L14.625 89.3945L13.582 89.4297L13.6406 90.3906V90.543L13.5469 93.1797L13.6992 95.6641L13.7109 95.8398L13.6875 95.9922L13.2773 98.5469L13.3125 101.02V103.68L13.4883 106.223H13.4766L13.6992 108.836L13.7109 108.895V108.941L13.7344 111.59V111.73L13.6992 111.871L13.3242 113.875L13.6758 114.355L15.6211 114.496H15.6094L18.1641 114.52L20.7891 114.508H20.8242L23.332 114.555L25.9453 114.344L26.0859 114.32L26.2383 114.344L28.7578 114.59H31.3359L33.9727 114.555H34.0195L36.6562 114.59H36.7031L39.2578 114.695L41.7422 114.555L44.3906 114.25L44.5078 114.238H44.625L47.2617 114.355H47.25L49.8047 114.379L52.4297 114.297H52.5117L57.7852 114.391H57.8086L60.4453 114.473H60.5039L63.1289 114.648H65.6367L68.168 114.391L68.2266 114.379H68.2852L70.9219 114.32L71.0273 114.309L71.1328 114.32L73.7695 114.625H73.7578L76.2656 114.672H78.832L81.4688 114.602L84.1055 114.508H84.1758L86.8125 114.543H86.8359L89.4727 114.59L92.0273 114.637L94.6406 114.52H94.7227L97.3125 114.508L99.9609 114.438H100.066L100.172 114.449L102.621 114.73L105.164 114.531L105.258 114.52L105.352 114.531L106.336 114.578L106.301 113.5V113.395L106.395 110.746L106.453 108.133V108.121L106.523 105.531L106.5 102.883H106.512L106.359 100.328L106.348 100.176L106.371 100.023L106.746 97.457V95.1016L106.371 92.5469L106.348 92.4531V92.3594L106.277 89.9688L106.09 89.4766L104.672 89.7344L104.438 89.7812L104.203 89.7461L101.637 89.4062H99.2344L96.5977 89.6289L96.4922 89.6406L96.3984 89.6289L93.75 89.4766V89.4648L91.2773 89.3477L88.7812 89.7344L88.582 89.7695L88.3945 89.7461L85.8516 89.4531L83.2969 89.4766L83.2852 89.4648L80.7773 89.7109L80.6133 89.7227L80.4492 89.6992L77.918 89.3828L75.3867 89.4297H75.3281L72.6914 89.3711H72.6445L70.1719 89.2305L67.7109 89.6992Z" fill="black"/>
<path d="M15.7969 89.7461L18.3516 89.4062H20.7539L23.4023 89.6289L23.5078 89.6406L23.6016 89.6289L26.25 89.4766L26.2383 89.4648L28.7109 89.3477L31.2188 89.7344L31.418 89.7695L31.6055 89.7461L34.1367 89.4531L36.7031 89.4766V89.4648L39.2227 89.7109L39.3867 89.7227L39.5508 89.6992L42.0703 89.3828L44.6133 89.4297H44.6719L47.3086 89.3711H47.3555L49.8164 89.2305L52.2891 89.6992L52.5234 89.7461L52.7695 89.7109L55.2656 89.3477L57.7617 89.4883H57.9844L60.3984 89.2422L62.8594 89.6758L63.1172 89.7227L63.3867 89.6758L65.8711 89.2422L68.3086 89.3945H68.332L68.3555 89.4062L73.6289 89.5703H73.7461L73.8633 89.5586L76.3945 89.2539L78.8672 89.418L78.9492 89.4297L79.043 89.418L81.4805 89.2773L84 89.6992L84.2109 89.7344L84.4219 89.7109L86.9648 89.3945L89.4492 89.3242L92.0508 89.5117L92.1094 89.5234H92.168L94.8047 89.5117H94.9219L97.5 89.3008L99.9375 89.3945V89.4062L102.574 89.6641L102.727 89.6758L102.879 89.6641L105.363 89.3945L107.836 89.5H108L108.352 86.5352L107.965 86.4531L105.75 85.4102L105.727 85.3984H105.715L103.289 84.3438L103.242 84.3203L100.887 83.4062L98.5781 82.1992L98.5664 82.2109L96.3633 80.8867L96.2695 80.8281L96.1523 80.7812L93.7266 79.832L91.3125 78.7773L89.0039 77.6523L88.9688 77.6289L88.9336 77.6172L86.5078 76.5859L84.0703 75.543H84.0586L81.6094 74.5352L81.5625 74.5117L79.1602 73.6562L79.1719 73.6445L76.793 72.5898L74.6016 71.3125L74.543 71.2773L74.4961 71.2539L72.1055 70.1172L72.0117 70.0703L71.918 70.0469L69.457 69.2734L67.0898 68.2773L67.1016 68.2656L64.6875 67.2109L62.3672 66.0742L62.168 65.9805L59.4258 65.5234L59.2383 65.5L59.0508 65.5117L56.4727 65.7344L56.1914 65.7578L55.9336 65.8867L51.1992 68.207V68.2188L48.8438 69.168L48.8203 69.1797L48.7852 69.2031L46.3828 70.3047V70.3164L44.0039 71.3359L43.8984 71.3828L43.8047 71.4414L41.6602 72.7656L39.3281 73.6211L39.2344 73.6562L39.1523 73.7031L36.9141 74.8867L34.5234 75.6367L34.4062 75.6719L34.2891 75.7305L31.957 76.9141L29.5781 78.0859L27.2578 79.2461L24.8555 80.3477V80.3594L22.4766 81.2969L22.3359 81.3555L22.207 81.4375L20.0039 82.8906L17.8828 83.8867L15.4336 84.6016L15.3398 84.625L15.2461 84.6602L12.832 85.7148L12.4336 85.8906L12.1875 86.2539L11.7188 86.9453L10.418 88.8438L12.6914 89.2656L15.3281 89.7344L15.5625 89.7812L15.7969 89.7461ZM29.0273 86.3711L28.875 86.3477L28.7227 86.3594L26.0859 86.4883H26.0742L23.543 86.6406L21 86.4297L20.9414 86.418H19.5352L21.4453 85.5156L21.5391 85.4688L21.6211 85.4102L23.7305 84.0391L26.0391 83.1016L26.1094 83.0781L28.5117 81.9766L28.5586 81.9531L30.9141 80.7695L33.2812 79.6094L33.293 79.5977L35.543 78.4609L37.957 77.6992L38.0859 77.6523L38.2148 77.5938L40.5 76.3867L42.8555 75.5195L42.9961 75.4609L43.1133 75.3906L45.3398 74.0312L47.6133 73.0469L47.6367 73.0352H47.6484L50.0508 71.9219H50.0391L52.4297 70.9492L52.5234 70.9023L54.8906 69.7422L57.0117 68.6992L59.0977 68.5234L61.2422 68.875L63.4219 69.9297L63.457 69.9414L63.4805 69.9531L65.8945 71.0195H65.918L68.3438 72.0508L68.4141 72.0859L68.4844 72.1094L70.9336 72.8828L73.1016 73.9141L75.3984 75.2383L75.5391 75.3086L77.9414 76.3867L77.9883 76.4102L78.0469 76.4219L80.5312 77.3359L82.9219 78.3203L85.3242 79.3398H85.3359L87.6914 80.3477L90.0586 81.5078L90.1289 81.5312L92.5547 82.5742L92.5664 82.5859L92.5898 82.5977L94.9102 83.5234L97.1133 84.8242L97.1602 84.8477L97.1953 84.8594L99.5391 86.0898L99.6094 86.125L99.6797 86.1484L100.395 86.4414L100.23 86.418H100.137L97.5 86.3125L97.4062 86.3008L97.3242 86.3125L94.6875 86.5117V86.5234H92.25L89.625 86.3359L89.5547 86.3242L89.4727 86.3359L86.8359 86.4062H86.7656L86.707 86.418L84.2578 86.6992L81.8438 86.3008L81.6797 86.2773L81.5156 86.2891L78.9727 86.4297L76.418 86.2539L76.2773 86.2422L76.1367 86.2656L73.6172 86.5703L71.0859 86.4883L68.4844 86.418L68.4961 86.4062L65.8477 86.2422L65.6719 86.2305L65.4961 86.2656L63.1172 86.6875L60.7383 86.2656L60.5391 86.2305L60.3398 86.2422L57.8555 86.4883L55.2773 86.3477L55.1367 86.3359L54.9844 86.3594L52.5703 86.7109L50.1914 86.2656L50.0156 86.2305L49.8398 86.2422L47.2031 86.3711V86.3828L44.625 86.4297L42.0234 86.3828H41.918L41.8125 86.3945L39.3047 86.7109L36.8555 86.4766H36.7266L34.0898 86.4531H33.9961L33.9141 86.4648L31.4414 86.7461L29.0273 86.3711Z" fill="black"/>
<path d="M94.2305 88.8555L94.2539 88.8203L95.7656 86.5H93.3398L91.957 85.6445L91.9453 85.6562L89.8008 84.3203L87.668 82.7617L87.6328 82.75L87.6094 82.7266L85.3945 81.2852L83.2617 79.8086L83.168 79.7383L83.0742 79.6914L80.8242 78.5781L78.8438 77.043L78.7617 76.9844L78.6797 76.9375L76.5234 75.6953L74.6016 74.0312L74.5078 73.9492L74.4023 73.8906L72.1406 72.543L72.1523 72.5312L69.9023 71.1367L67.6406 69.7539L67.6289 69.7656L65.4844 68.3359L63.4102 66.8125L63.2227 66.6719L62.9883 66.6016L60.6094 65.8164L60.3281 65.7227L60.0117 65.7461L57.5977 65.957L57.3164 65.9805L57.082 66.0977L54.668 67.2461L54.5859 67.2812L54.5039 67.3398L52.2773 68.7695L52.1602 68.8398L52.0547 68.9336L50.2969 70.6094L48.0938 71.582L47.8711 71.6875L47.6953 71.8398L45.7969 73.5508L43.7344 74.9219L41.4727 76.1992L41.3086 76.3164L39.1992 77.9219V77.9336L37.207 79.4336L34.9453 80.5117L34.7695 80.5938L34.6172 80.7227L32.7422 82.3398L30.5508 83.8047H30.5391L28.3359 85.0234L28.2422 85.082L28.1602 85.1406L26.0977 86.6875L22.5938 89.3125L26.9766 89.3828L29.6133 89.4297H29.6719L32.3086 89.3711H32.3555L34.8164 89.2305L37.2891 89.6992L37.5234 89.7461L37.7695 89.7109L40.2656 89.3477L42.7617 89.4883H42.9844L45.3984 89.2422L47.8594 89.6758L48.1172 89.7227L48.3867 89.6758L50.8711 89.2422L53.3086 89.3945H53.332L53.3555 89.4062L58.6289 89.5703H58.7461L58.8633 89.5586L61.3945 89.2539L63.8672 89.418L63.9492 89.4297L64.043 89.418L66.4805 89.2773L69 89.6992L69.2109 89.7344L69.4219 89.7109L71.9648 89.3945L74.4492 89.3242L77.0508 89.5117L77.1094 89.5234H77.168L79.8047 89.5117H79.9219L82.5 89.3008L84.9375 89.3945V89.4062L87.5742 89.6641L87.7266 89.6758L87.8789 89.6641L90.3633 89.3945L92.4609 89.4766L93.4336 90.0742L94.2305 88.8555ZM35.1914 86.2656L35.0156 86.2305L34.8398 86.2422L32.2031 86.3711V86.3828H32.0977L32.1094 86.3711L32.168 86.3359L32.2148 86.3008L34.418 84.8359L34.4883 84.7891L34.5586 84.7305L36.3984 83.1484L38.6484 82.0586L38.7891 82L38.9062 81.9062L41.0156 80.3125H41.0273L43.0312 78.7656L45.2578 77.5117L45.3047 77.4766L45.3516 77.4531L47.543 75.9883L47.6367 75.918L47.7188 75.8477L49.5352 74.2188L51.7617 73.2461L51.9961 73.1406L52.1836 72.9531L54 71.2188L56.0156 69.9297L58.125 68.9219L59.9648 68.7695L61.8164 69.3789L63.7734 70.7969L63.7969 70.8203L63.832 70.8438L66.0352 72.2852L66.0586 72.3086L66.082 72.3203L68.3203 73.6914L70.5703 75.0859H70.582V75.0977L72.7617 76.4219L74.6719 78.0391L74.7656 78.1328L74.8945 78.2031L77.0977 79.4922L79.1133 81.0391L79.2305 81.1328L79.3594 81.1914L81.6094 82.3164L83.7188 83.7695L83.7422 83.7812L83.7539 83.793L85.9102 85.1992L87.9023 86.6406L87.7031 86.6641L85.2305 86.418H85.1367L82.5 86.3125L82.4062 86.3008L82.3242 86.3125L79.6875 86.5117V86.5234H77.25L74.625 86.3359L74.5547 86.3242L74.4727 86.3359L71.8359 86.4062H71.7656L71.707 86.418L69.2578 86.6992L66.8438 86.3008L66.6797 86.2773L66.5156 86.2891L63.9727 86.4297L61.418 86.2539L61.2773 86.2422L61.1367 86.2656L58.6172 86.5703L56.0859 86.4883L53.4844 86.418L53.4961 86.4062L50.8477 86.2422L50.6719 86.2305L50.4961 86.2656L48.1172 86.6875L45.7383 86.2656L45.5391 86.2305L45.3398 86.2422L42.8555 86.4883L40.2773 86.3477L40.1367 86.3359L39.9844 86.3594L37.5703 86.7109L35.1914 86.2656Z" fill="black"/>
<path d="M61.9688 48.3047L62.2734 48.668L62.3203 49.1367L62.5781 51.7734L62.5898 51.8203V51.8555L62.6953 54.5039V54.6797L62.4844 57.3164V59.8477L62.6602 62.3672L62.6719 62.4492V62.5195L62.5898 65.168V65.5078L62.4258 65.8008L61.5703 67.4648L61.2305 68.1445L60.4805 68.2617L57.8438 68.6953L56.543 68.9062L56.168 67.6523L55.4883 65.3906L55.4414 65.2266L55.4297 65.0625L55.2539 62.4141L55.2422 62.2734L55.2656 62.1328L55.5703 59.6133L55.4883 57.0938L55.4062 54.4922L55.2422 51.8555L55.2305 51.6797L55.2656 51.5039L55.6875 49.1016L55.5234 48.2695L57.0117 47.7773L56.9297 46.5938L59.5312 46.3945L60.2812 46.3359L61.9688 48.3047ZM58.6523 49.4648L58.2422 51.8555L58.3945 54.3047V54.3281L58.4062 54.3516L58.5703 59.625V59.7422L58.5586 59.8594L58.2539 62.3672L58.3945 64.6758L58.6523 65.5078L59.25 65.4141L59.5898 64.7461L59.6719 62.5898L59.4844 59.9531V57.1406L59.4961 57.082L59.6953 54.4922L59.5898 52.0664L59.3789 49.8984L58.9922 49.4414L58.6523 49.4648Z" fill="black"/>
<path d="M57.4297 36.832L57.6289 36.3984L59 36.9961L59.9141 37.4063L60.3008 37.3828L60.3125 37.582L60.3711 37.6055L60.3242 37.7461L60.4062 39.9492L60.4062 39.9375L60.6641 42.5742L60.6758 42.7266L60.6641 42.8789L60.4062 45.375L60.5 47.8359L60.5 48L57.5 48L57.5 47.9648L57.3945 45.4219L57.3828 45.3164L57.3945 45.1992L57.6641 42.7148L57.418 40.2305L57.418 40.1367L57.3125 37.5L57.2891 37.1484L57.4297 36.832Z" fill="black"/>
<path d="M59.7812 33.5234L62.0547 33.3945L62.1719 33.3828L62.3008 33.3945L64.7852 33.6641L67.2695 33.418L68.1016 33.3359L68.6055 33.9922L69.8828 35.6445L70.2344 36.1016L70.1875 36.6758L69.9883 39.3125L69.9648 39.582L69.8477 39.8281L69.0156 41.6094L68.6523 42.418L67.7617 42.4766L65.125 42.6641L65.0547 42.6758L64.9727 42.6641L62.3359 42.5938H62.2656L62.207 42.582L59.5586 42.2773L58.4922 42.1484L58.2695 41.0938L57.8125 38.9023L57.7773 38.7148L57.7891 38.5156L57.9297 35.8789V35.8438L58 34.8828L58.1523 32.9727L59.7812 33.5234ZM60.8945 36.4531L60.7773 38.457L60.9883 39.4062L62.4648 39.5938L64.9492 39.6641L66.6602 39.5469L67 38.8086L67.1523 37.0156L66.7422 36.4766L64.9258 36.6641L64.7734 36.6758L64.6211 36.6641L62.0664 36.3828L60.8945 36.4531Z" fill="black"/>
<path d="M16.8125 105.324L17.0117 102.688L17.0234 102.699L17.0234 100.262L16.8359 97.625L16.8242 97.5547L16.8359 97.4727L16.9062 94.8359L16.9062 94.7773L16.918 94.7188L17.0117 93.8398L18.5 94.0039L19.9883 94.1563L19.9062 94.9297L19.8359 97.4609L20.0117 100.051L20.0234 100.109L20.0234 100.168L20.0117 102.805L20.0117 102.922L19.8125 105.5L19.9062 107.949L19.9062 107.938L20.1641 110.574L20.1758 110.727L20.1641 110.879L19.9062 113.375L20 115.836L20 116L17 116L17 115.965L16.8945 113.422L16.8828 113.316L16.8945 113.199L17.1641 110.715L16.918 108.23L16.918 108.137L16.8125 105.5L16.8008 105.406L16.8125 105.324Z" fill="black"/>
<path d="M22.729 105.324L22.9282 102.688L22.9399 102.699L22.9399 100.262L22.7524 97.625L22.7407 97.5547L22.7524 97.4727L22.8228 94.8359L22.8228 94.7773L22.8345 94.7188L22.9282 93.8398L24.4165 94.0039L25.9048 94.1563L25.8228 94.9297L25.7524 97.4609L25.9282 100.051L25.9399 100.109L25.9399 100.168L25.9282 102.805L25.9282 102.922L25.729 105.5L25.8228 107.949L25.8228 107.938L26.0806 110.574L26.0923 110.727L26.0806 110.879L25.8228 113.375L25.9165 115.836L25.9165 116L22.9165 116L22.9165 115.965L22.811 113.422L22.7993 113.316L22.811 113.199L23.0806 110.715L22.8345 108.23L22.8345 108.137L22.729 105.5L22.7173 105.406L22.729 105.324Z" fill="black"/>
<path d="M28.646 105.324L28.8452 102.688L28.8569 102.699L28.8569 100.262L28.6694 97.625L28.6577 97.5547L28.6694 97.4727L28.7397 94.8359L28.7397 94.7773L28.7515 94.7188L28.8452 93.8398L30.3335 94.0039L31.8218 94.1563L31.7397 94.9297L31.6694 97.4609L31.8452 100.051L31.8569 100.109L31.8569 100.168L31.8452 102.805L31.8452 102.922L31.646 105.5L31.7397 107.949L31.7397 107.938L31.9976 110.574L32.0093 110.727L31.9976 110.879L31.7397 113.375L31.8335 115.836L31.8335 116L28.8335 116L28.8335 115.965L28.728 113.422L28.7163 113.316L28.728 113.199L28.9976 110.715L28.7515 108.23L28.7515 108.137L28.646 105.5L28.6343 105.406L28.646 105.324Z" fill="black"/>
<path d="M34.5625 105.324L34.7617 102.688L34.7734 102.699L34.7734 100.262L34.5859 97.625L34.5742 97.5547L34.5859 97.4727L34.6562 94.8359L34.6562 94.7773L34.668 94.7188L34.7617 93.8398L36.25 94.0039L37.7383 94.1563L37.6562 94.9297L37.5859 97.4609L37.7617 100.051L37.7734 100.109L37.7734 100.168L37.7617 102.805L37.7617 102.922L37.5625 105.5L37.6562 107.949L37.6562 107.938L37.9141 110.574L37.9258 110.727L37.9141 110.879L37.6562 113.375L37.75 115.836L37.75 116L34.75 116L34.75 115.965L34.6445 113.422L34.6328 113.316L34.6445 113.199L34.9141 110.715L34.668 108.23L34.668 108.137L34.5625 105.5L34.5508 105.406L34.5625 105.324Z" fill="black"/>
<path d="M40.479 105.324L40.6782 102.688L40.6899 102.699L40.6899 100.262L40.5024 97.625L40.4907 97.5547L40.5024 97.4727L40.5728 94.8359L40.5728 94.7773L40.5845 94.7188L40.6782 93.8398L42.1665 94.0039L43.6548 94.1563L43.5728 94.9297L43.5024 97.4609L43.6782 100.051L43.6899 100.109L43.6899 100.168L43.6782 102.805L43.6782 102.922L43.479 105.5L43.5728 107.949L43.5728 107.938L43.8306 110.574L43.8423 110.727L43.8306 110.879L43.5728 113.375L43.6665 115.836L43.6665 116L40.6665 116L40.6665 115.965L40.561 113.422L40.5493 113.316L40.561 113.199L40.8306 110.715L40.5845 108.23L40.5845 108.137L40.479 105.5L40.4673 105.406L40.479 105.324Z" fill="black"/>
<path d="M54.5522 107.305L54.8569 107.668L54.9038 108.137L55.1616 110.773L55.1733 110.82V110.855L55.2788 113.504V113.656L55.2554 113.797L54.8687 116.234L54.6577 117.488H53.3804L50.7437 117.477H50.0757L49.6304 116.984L48.3062 115.531L47.896 115.086L47.9194 114.477L47.9897 111.84V111.77L48.0015 111.699L48.2827 109.262L47.896 107.281L47.5444 105.5H50.5093V105.523L52.1147 105.395L52.8647 105.336L54.5522 107.305ZM51.1655 108.465L51.271 108.957L51.3179 109.18L51.2944 109.414L50.9897 111.922L50.9194 113.949L51.3999 114.477H52.103L52.2671 113.48L52.1733 111.066L51.9624 108.898L51.5757 108.441L51.1655 108.465Z" fill="black"/>
<path d="M64.4688 107.305L64.7734 107.668L64.8203 108.137L65.0781 110.773L65.0898 110.82V110.855L65.1953 113.504V113.656L65.1719 113.797L64.7852 116.234L64.5742 117.488H63.2969L60.6602 117.477H59.9922L59.5469 116.984L58.2227 115.531L57.8125 115.086L57.8359 114.477L57.9062 111.84V111.77L57.918 111.699L58.1992 109.262L57.8125 107.281L57.4609 105.5H60.4258V105.523L62.0312 105.395L62.7812 105.336L64.4688 107.305ZM61.082 108.465L61.1875 108.957L61.2344 109.18L61.2109 109.414L60.9062 111.922L60.8359 113.949L61.3164 114.477H62.0195L62.1836 113.48L62.0898 111.066L61.8789 108.898L61.4922 108.441L61.082 108.465Z" fill="black"/>
<path d="M63.9688 97.3047L64.5664 98.0078L64.2148 98.8516L63.4648 100.668L63.1016 101.547L62.1406 101.582L59.5039 101.688L58.1914 101.746L57.9688 100.457L57.6523 98.6992L57.5 98.7227V97H59L58.8828 95.6055L61.5195 95.3945L62.2812 95.3359L63.9688 97.3047ZM60.6523 98.4648L60.6875 98.6406L61.0625 98.6289L61.0859 98.5586L60.9922 98.4414L60.6523 98.4648Z" fill="black"/>
<path d="M74.3853 107.305L74.6899 107.668L74.7368 108.137L74.9946 110.773L75.0063 110.82V110.855L75.1118 113.504V113.656L75.0884 113.797L74.7017 116.234L74.4907 117.488H73.2134L70.5767 117.477H69.9087L69.4634 116.984L68.1392 115.531L67.729 115.086L67.7524 114.477L67.8228 111.84V111.77L67.8345 111.699L68.1157 109.262L67.729 107.281L67.3774 105.5H70.3423V105.523L71.9478 105.395L72.6978 105.336L74.3853 107.305ZM70.9985 108.465L71.104 108.957L71.1509 109.18L71.1274 109.414L70.8228 111.922L70.7524 113.949L71.2329 114.477H71.936L72.1001 113.48L72.0063 111.066L71.7954 108.898L71.4087 108.441L70.9985 108.465Z" fill="black"/>
<path d="M76.146 105.324L76.3452 102.688L76.3569 102.699L76.3569 100.262L76.1694 97.625L76.1577 97.5547L76.1694 97.4727L76.2397 94.8359L76.2397 94.7773L76.2515 94.7188L76.3452 93.8398L77.8335 94.0039L79.3218 94.1563L79.2397 94.9297L79.1694 97.4609L79.3452 100.051L79.3569 100.109L79.3569 100.168L79.3452 102.805L79.3452 102.922L79.146 105.5L79.2397 107.949L79.2397 107.938L79.4976 110.574L79.5093 110.727L79.4976 110.879L79.2397 113.375L79.3335 115.836L79.3335 116L76.3335 116L76.3335 115.965L76.228 113.422L76.2163 113.316L76.228 113.199L76.4976 110.715L76.2515 108.23L76.2515 108.137L76.146 105.5L76.1343 105.406L76.146 105.324Z" fill="black"/>
<path d="M82.0625 105.324L82.2617 102.688L82.2734 102.699L82.2734 100.262L82.0859 97.625L82.0742 97.5547L82.0859 97.4727L82.1562 94.8359L82.1562 94.7773L82.168 94.7188L82.2617 93.8398L83.75 94.0039L85.2383 94.1563L85.1562 94.9297L85.0859 97.4609L85.2617 100.051L85.2734 100.109L85.2734 100.168L85.2617 102.805L85.2617 102.922L85.0625 105.5L85.1562 107.949L85.1562 107.938L85.4141 110.574L85.4258 110.727L85.4141 110.879L85.1562 113.375L85.25 115.836L85.25 116L82.25 116L82.25 115.965L82.1445 113.422L82.1328 113.316L82.1445 113.199L82.4141 110.715L82.168 108.23L82.168 108.137L82.0625 105.5L82.0508 105.406L82.0625 105.324Z" fill="black"/>
<path d="M87.979 105.324L88.1782 102.688L88.1899 102.699L88.1899 100.262L88.0024 97.625L87.9907 97.5547L88.0024 97.4727L88.0728 94.8359L88.0728 94.7773L88.0845 94.7188L88.1782 93.8398L89.6665 94.0039L91.1548 94.1563L91.0728 94.9297L91.0024 97.4609L91.1782 100.051L91.1899 100.109L91.1899 100.168L91.1782 102.805L91.1782 102.922L90.979 105.5L91.0728 107.949L91.0728 107.938L91.3306 110.574L91.3423 110.727L91.3306 110.879L91.0728 113.375L91.1665 115.836L91.1665 116L88.1665 116L88.1665 115.965L88.061 113.422L88.0493 113.316L88.061 113.199L88.3306 110.715L88.0845 108.23L88.0845 108.137L87.979 105.5L87.9673 105.406L87.979 105.324Z" fill="black"/>
<path d="M93.896 105.324L94.0952 102.688L94.1069 102.699L94.1069 100.262L93.9194 97.625L93.9077 97.5547L93.9194 97.4727L93.9897 94.8359L93.9897 94.7773L94.0015 94.7188L94.0952 93.8398L95.5835 94.0039L97.0718 94.1563L96.9897 94.9297L96.9194 97.4609L97.0952 100.051L97.1069 100.109L97.1069 100.168L97.0952 102.805L97.0952 102.922L96.896 105.5L96.9897 107.949L96.9897 107.938L97.2476 110.574L97.2593 110.727L97.2476 110.879L96.9897 113.375L97.0835 115.836L97.0835 116L94.0835 116L94.0835 115.965L93.978 113.422L93.9663 113.316L93.978 113.199L94.2476 110.715L94.0015 108.23L94.0015 108.137L93.896 105.5L93.8843 105.406L93.896 105.324Z" fill="black"/>
<path d="M99.8125 105.324L100.012 102.688L100.023 102.699L100.023 100.262L99.8359 97.625L99.8242 97.5547L99.8359 97.4727L99.9062 94.8359L99.9062 94.7773L99.918 94.7188L100.012 93.8398L101.5 94.0039L102.988 94.1563L102.906 94.9297L102.836 97.4609L103.012 100.051L103.023 100.109L103.023 100.168L103.012 102.805L103.012 102.922L102.812 105.5L102.906 107.949L102.906 107.938L103.164 110.574L103.176 110.727L103.164 110.879L102.906 113.375L103 115.836L103 116L100 116L100 115.965L99.8945 113.422L99.8828 113.316L99.8945 113.199L100.164 110.715L99.918 108.23L99.918 108.137L99.8125 105.5L99.8008 105.406L99.8125 105.324Z" fill="black"/>
</svg>
