<svg width="120" height="120" viewBox="0 0 120 120" fill="none" xmlns="http://www.w3.org/2000/svg">
<path d="M111.312 114.289L112.355 114.547L111.652 117.453L110.891 117.266L108.547 117.629L108.453 117.652H108.359L105.723 117.723H105.582L103.051 117.301L100.672 117.734L100.438 117.781L100.203 117.746L97.6367 117.406H95.2344L92.5977 117.629L92.4922 117.641L92.3984 117.629L89.75 117.477V117.465L87.2773 117.348L84.7812 117.734L84.582 117.77L84.3945 117.746L81.8516 117.453L79.2969 117.477L79.2852 117.465L76.7773 117.711L76.6133 117.723L76.4492 117.699L73.918 117.383L71.3867 117.43H71.3281L68.6914 117.371H68.6445L66.1719 117.23L63.7109 117.699L63.4766 117.746L63.2305 117.711L60.7227 117.348L58.2383 117.488H58.0156L55.5898 117.242L53.1406 117.676L52.8828 117.723L52.6133 117.676L50.1172 117.242L47.6914 117.395H47.668L47.6445 117.406L42.3711 117.57H42.2539L42.1367 117.559L39.5938 117.254L37.1328 117.418L37.0508 117.43L36.957 117.418L34.5078 117.277L32 117.699L31.7891 117.734L31.5781 117.711L29.0234 117.395L26.5391 117.324L23.9492 117.512L23.8906 117.523H23.832L21.1953 117.512H21.0781L18.5 117.301L16.0508 117.395L16.0625 117.406L13.4258 117.664L13.2734 117.676L13.1211 117.664L10.625 117.395L8.16406 117.5H8V114.5H8.03516L10.5781 114.395L10.6836 114.383L10.8008 114.395L13.2852 114.664L15.7695 114.418H15.8633L18.5 114.312L18.5938 114.301L18.6758 114.312L21.3125 114.512L21.3008 114.523H23.7383L26.375 114.336L26.4453 114.324L26.5273 114.336L29.1641 114.406H29.2344L29.293 114.418L31.7305 114.699L34.1562 114.301L34.3203 114.277L34.4844 114.289L37.0156 114.43L39.582 114.254L39.7227 114.242L39.8633 114.266L42.3711 114.57L44.9141 114.488L47.5039 114.418V114.406L50.1523 114.242L50.3281 114.23L50.5039 114.266L52.8828 114.688L55.2617 114.266L55.4609 114.23L55.6602 114.242L58.1328 114.488L60.7227 114.348L60.8633 114.336L61.0156 114.359L63.418 114.711L65.8086 114.266L65.9844 114.23L66.1602 114.242L68.7969 114.371L68.7852 114.383L71.3633 114.43L73.9766 114.383H74.082L74.1875 114.395L76.6836 114.711L79.1445 114.477H79.2734L81.9102 114.453H82.0039L82.0859 114.465L84.5469 114.746L86.9727 114.371L87.125 114.348L87.2773 114.359L89.9141 114.488H89.9258L92.4453 114.641L95 114.43L95.0586 114.418H95.1055L97.7539 114.406H97.8594L97.9648 114.418L100.367 114.746L102.77 114.312L103.027 114.266L103.285 114.301L105.816 114.723L108.137 114.664L110.738 114.266L111.031 114.219L111.312 114.289Z" fill="black"/>
<path d="M74.1602 46.2422L76.7969 46.3711L76.7852 46.3828L79.3633 46.4297L81.9766 46.3828H82.082L82.1875 46.3945L84.6836 46.7109L87.1445 46.4766H87.2734L89.9102 46.4531H90.0039L90.0859 46.4648L92.5469 46.7461L94.9727 46.3711L95.125 46.3477L95.2773 46.3594L97.9141 46.4883H97.9258L100.445 46.6406L103 46.4297L103.984 46.3477L104.441 47.2148L105.426 49.0547L105.648 49.4883L105.578 49.957L105.25 52.3711L105.695 54.7734L105.742 55.0312L105.695 55.2891L105.285 57.7617L105.332 60.1523L105.73 62.7305L105.754 62.8477V62.9648L105.742 65.6016V65.707L105.73 65.8125L105.355 68.3086L105.508 70.793V70.875L105.52 73.5117V73.5586L105.449 76.1953L105.391 78.832V78.8555L105.297 81.3633L105.637 83.8828L105.66 84.0117L105.648 84.1523L105.52 86.6719L105.73 89.2383L105.742 89.3906L105.73 89.5312L105.438 92.0391L105.508 94.5938V94.6406L105.52 97.207L105.648 99.8438V99.9492L105.59 102.586L105.543 105.234L105.508 107.859L105.602 110.426L105.684 113.074V113.133L105.672 115.77L105.66 117.07L104.383 117.246L101.805 117.609L101.617 117.633L101.43 117.609L98.9102 117.316L96.4609 117.363L96.4727 117.375L93.8359 117.645L93.7539 117.656H90.9297L88.293 117.469V117.457L85.7148 117.387V117.375L83.0898 117.34L80.5 117.293L77.8867 117.387H77.8164L75.1797 117.352H75.1328L72.5898 117.234L70.0938 117.539H70.0469L70.0117 117.551L67.3633 117.703H67.2109L64.5742 117.586V117.574L61.9961 117.551L59.3828 117.598H59.3711L56.7227 117.609H56.6406L56.5703 117.598L54.0508 117.34L51.5664 117.562H51.4141L48.7656 117.516L46.1758 117.527H46.1406L43.5039 117.492H43.4219L40.9727 117.316L38.4883 117.738L38.2305 117.785L37.9609 117.738L35.4531 117.27L33.0742 117.281L30.4492 117.504H30.4375L30.4258 117.516L27.7773 117.691H25.0586L22.4219 117.715L22.293 117.727L22.1641 117.703L19.668 117.293L17.207 117.457L16.3516 117.504L15.8711 116.789L14.8984 115.312L14.6641 114.973L14.6406 114.562L14.5 111.926V111.809L14.5703 109.359L14.2891 106.723L14.2656 106.512L14.3008 106.301L14.7227 103.887L14.4062 101.473L14.3945 101.344V101.215L14.5234 98.6133L14.5586 96L14.2891 93.5156L14.2656 93.375L14.2773 93.2344L14.5117 90.5859L14.5469 88.0547V87.9609L14.7578 85.5117L14.4062 83.0039L14.3945 82.8984V82.7812L14.4297 80.1445V80.0625L14.6055 77.4258L14.6875 74.918L14.6289 72.3398L14.4531 69.7031L14.4414 69.668V69.6445L14.3711 67.0078V66.9961L14.3008 64.3594L14.2891 64.2188L14.3125 64.0898L14.6992 61.6758L14.3125 59.2734L14.2891 59.1211V58.9805L14.4062 56.4141L14.3945 53.7656V53.6836L14.5352 51.0586L14.418 48.5391V48.3867L14.4414 48.2227L14.5234 47.7539L14.7344 46.5H16.0352L18.5781 46.3945L18.6836 46.3828L18.8008 46.3945L21.2852 46.6641L23.7695 46.418H23.8633L26.5 46.3125L26.5938 46.3008L26.6758 46.3125L29.3125 46.5117L29.3008 46.5234H31.7383L34.375 46.3359L34.4453 46.3242L34.5273 46.3359L37.1641 46.4062H37.2344L37.293 46.418L39.7305 46.6992L42.1562 46.3008L42.3203 46.2773L42.4844 46.2891L45.0156 46.4297L47.582 46.2539L47.7227 46.2422L47.8633 46.2656L50.3711 46.5703L52.9141 46.4883L55.5039 46.418V46.4062L58.1523 46.2422L58.3281 46.2305L58.5039 46.2656L60.8828 46.6875L63.2617 46.2656L63.4609 46.2305L63.6602 46.2422L66.1328 46.4883L68.7227 46.3477L68.8633 46.3359L69.0156 46.3594L71.418 46.7109L73.8086 46.2656L73.9844 46.2305L74.1602 46.2422ZM71.7109 49.6992L71.4766 49.7461L71.2305 49.7109L68.7227 49.3477L66.2383 49.4883H66.0156L63.5898 49.2422L61.1406 49.6758L60.8828 49.7227L60.6133 49.6758L58.1172 49.2422L55.6914 49.3945H55.668L55.6445 49.4062L50.3711 49.5703H50.2539L50.1367 49.5586L47.5938 49.2539L45.1328 49.418L45.0508 49.4297L44.957 49.418L42.5078 49.2773L40 49.6992L39.7891 49.7344L39.5781 49.7109L37.0234 49.3945L34.5391 49.3242L31.9492 49.5117L31.8906 49.5234H31.832L29.1953 49.5117H29.0781L26.5 49.3008L24.0508 49.3945L24.0625 49.4062L21.4258 49.6641L21.2734 49.6758L21.1211 49.6641L18.625 49.3945L17.4531 49.4414L17.5234 51.0586L17.5352 51.1289L17.5234 51.1992L17.3828 53.7539H17.3945L17.4062 56.3906V56.4609L17.2891 58.9219L17.6875 61.4414L17.7344 61.6758L17.6875 61.9102L17.2891 64.4414L17.3711 66.9141L17.4414 69.4922L17.6289 72.1406V72.1992L17.6875 74.8477V74.9297L17.5938 77.5664V77.6133L17.4297 80.2617L17.3945 82.6875L17.7461 85.2305L17.7695 85.3945L17.7578 85.5586L17.5352 88.0898L17.5117 90.7383V90.7969L17.5 90.8555L17.2773 93.3281L17.5469 95.8359L17.5586 95.9297V96.0234L17.5117 98.6602V98.707L17.3945 101.215L17.7227 103.723L17.7578 103.957L17.7109 104.18L17.2891 106.605L17.5703 109.137V109.23L17.5 111.762L17.6172 113.988L17.8867 114.398L19.668 114.305L19.832 114.293L19.9961 114.316L22.4805 114.703L25.0234 114.691H27.5781L30.1914 114.516L32.8398 114.293H32.9453L35.582 114.27H35.7344L35.875 114.293L38.2539 114.738L40.6211 114.34L40.8086 114.305L40.9844 114.316L43.5273 114.492H43.5391L46.1641 114.516H48.8242L51.4375 114.551L53.9453 114.34L54.0859 114.328L54.2383 114.34L56.8633 114.598H59.3359L61.9727 114.551H62.0195L64.6562 114.586H64.7031L67.2578 114.691L69.8359 114.551L72.3906 114.246L72.5078 114.234H72.625L75.2617 114.352H75.25L77.8047 114.375L80.4297 114.293H80.5117L85.7852 114.387H85.8086L88.4453 114.469H88.5039L91.1406 114.656H93.5312L96.168 114.387H96.2266L96.2852 114.375L98.9219 114.316H99.0273L101.559 114.598L102.672 114.445L102.684 113.168L102.602 110.531L102.508 107.895V107.824L102.543 105.188V105.164L102.59 102.527L102.648 99.9961L102.52 97.3594V97.2773L102.508 94.6875L102.438 92.0391V91.9336L102.449 91.8281L102.73 89.3555L102.531 86.8359L102.52 86.7422L102.531 86.6484L102.648 84.1406L102.32 81.6328L102.297 81.5156L102.309 81.3867L102.391 78.75L102.449 76.125L102.52 73.5234L102.508 70.9688L102.355 68.3203V68.168L102.367 68.0273L102.742 65.4492V63.1055L102.367 60.5508L102.355 60.457V60.3633L102.285 57.7148L102.273 57.5742L102.297 57.4336L102.684 55.0312L102.262 52.6641L102.215 52.4297L102.25 52.1953L102.543 50.0273L102.25 49.4883L100.598 49.6289L100.492 49.6406L100.398 49.6289L97.75 49.4766V49.4648L95.2773 49.3477L92.7812 49.7344L92.582 49.7695L92.3945 49.7461L89.8516 49.4531L87.2969 49.4766L87.2852 49.4648L84.7773 49.7109L84.6133 49.7227L84.4492 49.6992L81.918 49.3828L79.3867 49.4297H79.3281L76.6914 49.3711H76.6445L74.1719 49.2305L71.7109 49.6992Z" fill="black"/>
<path d="M88.7344 117.617L90.7734 116.633L91.6523 116.211L91.6289 115.25L91.5703 112.613L91.6172 110.023V109.918L91.6055 109.812L91.2891 107.316L91.5234 104.855V104.727L91.5469 102.09V101.996L91.5352 101.914L91.2539 99.4531L91.6289 97.0273L91.6523 96.875L91.6406 96.7227L91.5117 94.0859V94.0742L91.3594 91.5547L91.5703 89L91.582 88.9414V88.8945L91.5938 86.2461V86.1406L91.582 86.0352L91.2539 83.6328L91.6875 81.2305L91.7344 80.9727L91.6992 80.7148L91.2773 78.1836L91.3359 75.8633L91.7344 73.2617L91.7578 73.1562V73.0391L91.7461 70.3906V70.2852L91.7227 70.1797L91.3594 67.7422L91.5 65.1992V65.1289L91.5234 62.4922V62.4336L91.4531 59.8086L91.3945 57.1719V57.1484L91.3008 54.6758L91.6406 52.1211L91.6641 51.9805L91.6523 51.8516L91.5234 49.332L91.7344 46.7656L91.7461 46.6133L91.7344 46.4727L91.4414 43.9531L91.5117 41.3984V38.7969L91.6406 36.1484L91.6523 36.1016L91.6406 36.0547L91.5938 33.4062L91.5703 32.2109L90.3984 31.9766L88.1016 31.4961L87.9492 31.4609H87.7852L85.1836 31.4961L82.5703 31.4023L79.9336 31.3086H79.875L77.2266 31.332H77.2148L74.5781 31.3789H74.4961L74.4258 31.3906L71.9062 31.6836L69.457 31.6367L69.4688 31.625L66.832 31.3555L66.7617 31.3438H63.9375L61.2891 31.5312V31.543L58.7109 31.6133V31.625L56.0977 31.6602L53.4961 31.707L50.8945 31.6133H50.8242L48.1758 31.6484H48.1406L45.5977 31.7656L43.0898 31.4609H43.0547L43.0078 31.4492L40.3711 31.2969H40.207L37.5703 31.4141V31.4258L35.0039 31.4492L32.3789 31.4023H32.2617L32.1328 31.4258L29.6719 31.8008L28.2539 32.0117L28.4062 33.4297L28.6641 35.9492L28.4414 38.4336L28.4297 38.5039V38.5859L28.4883 41.1875L28.4648 43.8242V43.8594L28.5 46.4961V46.543L28.5117 46.5781L28.6875 49.0625L28.2539 51.5117L28.207 51.7695L28.2656 52.0391L28.7344 54.5586L28.7109 56.9141L28.4883 59.5508V59.5742L28.3125 62.2227V64.9414L28.2773 67.5781V67.707L28.3008 67.8359L28.7109 70.332L28.5469 72.793V72.9336L28.6406 75.4414L28.5 78.0781V78.1953L28.5703 80.6328L28.2891 83.2812L28.2656 83.4922L28.3008 83.7031L28.7227 86.1172L28.4062 88.5312L28.3945 88.6602V88.7891L28.5234 91.3789H28.5117L28.5586 94.0039L28.2891 96.4766L28.2656 96.6289L28.2773 96.7695L28.5117 99.4062L28.5469 101.938V102.043L28.7578 104.48L28.4062 107L28.3945 107.105V107.223L28.4297 109.859V109.941L28.6055 112.578L28.6875 115.004L28.5352 115.684L28.1367 117.5H30.0352L32.5781 117.605L32.6836 117.617L32.8008 117.605L35.2852 117.336L37.7695 117.582H37.8633L40.5 117.688L40.5938 117.699L40.6758 117.688L43.3125 117.488L43.3008 117.477H45.7383L48.375 117.664L48.4453 117.676L48.5273 117.664L51.1641 117.594H51.2344L51.293 117.582L53.7305 117.301L56.1562 117.699L56.3203 117.723L56.4844 117.711L59.0156 117.57L61.582 117.746L61.7227 117.758L61.8633 117.734L64.3711 117.43L66.9141 117.512L69.5039 117.582V117.594L72.1523 117.758L72.3281 117.77L72.5039 117.734L74.8828 117.312L77.2617 117.734L77.4609 117.77L77.6602 117.758L80.1328 117.512L82.7227 117.652L82.8633 117.664L83.0156 117.641L85.418 117.289L87.8086 117.734L88.2891 117.828L88.7344 117.617ZM75.1406 114.324L74.8828 114.277L74.6133 114.324L72.1172 114.758L69.6914 114.605H69.668L69.6445 114.594L64.3711 114.43H64.2539L64.1367 114.441L61.5938 114.746L59.1328 114.582L59.0508 114.57L58.957 114.582L56.5078 114.723L54 114.301L53.7891 114.266L53.5781 114.289L51.0234 114.605L48.5391 114.676L45.9492 114.488L45.8906 114.477H45.832L43.1953 114.488H43.0781L40.5 114.699L38.0508 114.605L38.0625 114.594L35.4258 114.336L35.2734 114.324L35.1211 114.336L32.625 114.605L31.6641 114.57L31.5938 112.426V112.379L31.4297 109.742L31.3945 107.305L31.7461 104.762L31.7695 104.598L31.7578 104.434L31.5352 101.914L31.5469 101.902L31.5117 99.2539V99.207L31.5 99.1484L31.2773 96.6758L31.5469 94.1562L31.5586 94.0625V93.9805L31.5117 91.332V91.2969L31.3945 88.7773L31.7227 86.2695L31.7578 86.0469L31.7109 85.8242L31.2891 83.3984L31.5586 80.9609L31.5703 80.8672V80.7617L31.5 78.2422L31.6406 75.6055V75.4648L31.5469 72.8281L31.6992 70.332L31.7109 70.168L31.6875 70.0039L31.2773 67.4609L31.3125 64.9766V62.3164L31.4883 59.7852H31.4766L31.6992 57.1602L31.7109 57.1133V57.0547L31.7344 54.418V54.2656L31.6992 54.125L31.2539 51.7812L31.6641 49.3789L31.6992 49.1914L31.6875 49.0156L31.5 46.3789L31.4648 43.8242L31.4883 41.2109V41.1758L31.4297 38.6914L31.6641 36.0547L31.6758 35.9141L31.6641 35.7617L31.5234 34.5547L32.4844 34.4141L34.9805 34.4492H35.0156L37.6523 34.4141H37.7109L40.2539 34.3086L42.832 34.4492L45.3867 34.7539L45.5039 34.7656H45.6211L48.2695 34.6484H48.2578L50.8008 34.625L53.4258 34.707H53.5078L58.7812 34.6133H58.8047L61.4414 34.5312H61.5117L64.1484 34.3438H66.5273L69.1641 34.6133H69.2227L69.2812 34.625L71.918 34.6836H72.0234L72.1289 34.6719L74.6836 34.3789L77.2734 34.332H77.2617L79.8398 34.3203L82.4648 34.4023L85.1133 34.4844L85.1484 34.4961H85.1836L87.668 34.4727L88.6172 34.6719L88.6523 36.0078L88.5234 38.6445L88.5117 38.6797V41.3164L88.4414 43.9531L88.4297 44.0703L88.4414 44.1758L88.7227 46.6953L88.5352 49.1562L88.5234 49.2617V49.3555L88.6406 51.8633L88.3125 54.3594L88.3008 54.4883V54.6055L88.3945 57.2539L88.4531 59.8672V59.8789L88.5234 62.4688L88.5 65.1172H88.5117L88.3594 67.6719L88.3477 67.8242L88.3711 67.9766L88.7461 70.543V72.8984L88.3711 75.4531L88.3477 75.5469V75.6406L88.2773 78.2773V78.418L88.3008 78.5586L88.6875 80.9492L88.2656 83.3281L88.2188 83.5625L88.2539 83.7969L88.582 86.3633V88.7539L88.3711 91.4023L88.3594 91.5078L88.3711 91.6016L88.5234 94.25L88.6406 96.7227L88.2656 99.2188L88.2305 99.418L88.2539 99.6055L88.5352 102.148L88.5234 104.703V104.715L88.2891 107.223L88.2773 107.387L88.3008 107.551L88.6055 110.082L88.5703 112.613V112.672L88.6055 114.348L87.8555 114.711L85.7109 114.301L85.4766 114.254L85.2305 114.289L82.7227 114.652L80.2383 114.512H80.0156L77.5898 114.758L75.1406 114.324Z" fill="black"/>
<path d="M71.543 17.2891L74.2148 17.5469L75.4922 17.6641L75.5742 18.9414L75.75 21.5781V21.7188L75.7383 21.8594L75.4219 24.4375L75.5156 26.9102L75.5977 29.5117L75.7617 32.1484L75.832 33.3789L74.6367 33.6953L72.4922 34.2461L72.375 34.2695L69.7383 34.7383L69.5391 34.7734L69.3398 34.75L66.7852 34.5039L64.2773 34.6562H64.1367L63.9844 34.6328L61.582 34.2812L59.1914 34.7383L59.0156 34.7734L58.8398 34.7617L56.2031 34.6211V34.6094L53.625 34.5742L51.0234 34.6094L50.918 34.6211L50.8125 34.5977L48.3516 34.2812L45.8555 34.5156L44.7422 34.6211L44.3203 33.5781L43.5586 31.6328L43.418 31.2812L43.4648 30.9062L43.7461 28.4453L43.3711 26.0195L43.3477 25.8789L43.3594 25.7266L43.4883 23.0898V23.0781L43.6289 20.5352L43.4414 19.2109L43.1953 17.5H45.0352L47.5781 17.3945L47.6836 17.3828L47.8008 17.3945L50.2852 17.6641L52.7695 17.418H52.8633L55.5 17.3125L55.5938 17.3008L55.6758 17.3125L58.3125 17.5117L58.3008 17.5234H60.7383L63.375 17.3359L63.4453 17.3242L63.5273 17.3359L66.1641 17.4062H66.2344L66.293 17.418L68.7305 17.6992L71.1562 17.3008L71.3438 17.2773L71.543 17.2891ZM69 20.6992L68.7891 20.7344L68.5781 20.7109L66.0234 20.3945L63.5391 20.3242L60.9492 20.5117L60.8906 20.5234H60.832L58.1953 20.5117H58.0781L55.5 20.3008L53.0508 20.3945L53.0625 20.4062L50.4258 20.6641L50.2734 20.6758L50.1211 20.6641L47.625 20.3945L46.6289 20.4297L46.6406 20.4531L46.6289 20.6055L46.4766 23.2422L46.3477 25.7031L46.7344 28.2227L46.7695 28.4102L46.7461 28.6094L46.4766 30.8711L46.6992 31.4336L48.2227 31.293L48.3867 31.2812L48.5508 31.293L51.082 31.5977L53.6133 31.5742H53.6719L56.3086 31.6328H56.3555L58.8164 31.75L61.2891 31.3047L61.5234 31.2578L61.7695 31.293L64.2656 31.6445L66.7617 31.5156L66.8672 31.5039L66.9844 31.5156L69.4453 31.7383L71.7656 31.3281L72.6797 31.0938L72.5977 29.6875V29.6523L72.5156 27.0039L72.4336 24.3672L72.4219 24.25L72.4336 24.1328L72.7383 21.6484L72.6562 20.4062L71.4492 20.2891L69 20.6992Z" fill="black"/>
<path d="M71.5781 20.7109L74.1797 20.4062L78.0469 19.9609L74.8828 17.6992L72.7266 16.1523L72.6094 16.0703L72.4805 16.0117L70.207 14.9688L68.0742 13.5391L65.9062 12.1094L63.7617 10.5742L63.6094 10.4688L63.4453 10.3984L60.9609 9.40234L60.7734 9.33203L60.5625 9.30859L58.2891 9.05078L57.7031 8.99219L57.2227 9.35547L55.2305 10.8789L52.9805 12.1094L52.8516 12.1797L52.7344 12.2734L50.8828 13.832L48.6094 14.7109L48.4453 14.7812L48.293 14.875L46.1602 16.3633L44.1445 17.6875L42.9141 18.4844L43.6875 19.7266L43.7227 19.7969L44.168 20.5H45.0352L47.5781 20.6055L47.6836 20.6172L47.8008 20.6055L50.2852 20.3359L52.7695 20.582H52.8633L55.5 20.6875L55.5938 20.6992L55.6758 20.6875L58.3125 20.4883L58.3008 20.4766H60.7383L63.375 20.6641L63.4453 20.6758L63.5273 20.6641L66.1641 20.5938H66.2344L66.293 20.582L68.7305 20.3008L71.1562 20.6992L71.3672 20.7344L71.5781 20.7109ZM53.0508 17.6055L53.0625 17.5938L50.4258 17.3359L50.2734 17.3242L50.1445 17.3359L52.1953 16.5273L52.4297 16.4453L52.6172 16.2812L54.5273 14.6758L56.7422 13.4688L56.8359 13.4102L56.918 13.3398L58.5586 12.1094L60.0234 12.2734L62.168 13.1289L64.1719 14.5469L64.2188 14.5703L66.4102 16.0352L68.332 17.3242L66.0234 17.6055L63.5391 17.6758L60.9492 17.4883L60.8906 17.4766H60.832L58.1953 17.4883H58.0781L55.5 17.6992L53.0508 17.6055Z" fill="black"/>
<path d="M55.6758 117.688L58.3125 117.488L58.582 117.465L58.8281 117.348L60.6094 116.516L61.418 116.152L61.4766 115.262L61.6641 112.625L61.6758 112.555L61.6641 112.473L61.5938 109.836V109.766L61.582 109.707L61.3008 107.27L61.6992 104.844L61.7227 104.68L61.7109 104.516L61.5703 101.984L61.7461 99.418L61.7578 99.2773L61.7344 99.1367L61.4297 96.6289L61.5117 94.0859L61.5938 91.4961L61.7578 88.8477L61.7695 88.6719L61.7344 88.4961L61.3125 86.1172L61.7344 83.7383L61.7695 83.5391L61.7578 83.3398L61.5117 80.8672L61.6523 78.2773L61.6641 78.1367L61.6406 77.9844L61.2891 75.582L61.7344 73.1914L61.7695 73.0156L61.7578 72.8398L61.6289 70.2031L61.5703 67.6133L61.6172 65.0234V64.918L61.6055 64.8125L61.2891 62.3164L61.5234 59.8555V59.7266L61.5469 57.0898V56.9961L61.5352 56.9141L61.2539 54.4531L61.6289 52.0273L61.6523 51.875L61.6406 51.7227L61.5117 49.0859V49.0742L61.3594 46.5547L61.5703 44L61.582 43.9414V43.8945L61.5938 41.2461V41.1406L61.582 41.0352L61.2539 38.6328L61.6875 36.2305L61.7344 35.9727L61.6992 35.7148L61.2656 33.0781L61.0664 31.918L59.9062 31.8242L57.8555 31.6719L55.2656 31.2617L55.1484 31.25H55.0312L52.3945 31.2617H52.2891L52.1836 31.2734L49.6758 31.6484L47.2031 31.4961L46.9805 31.4844L46.7578 31.543L44.625 32.0586L43.4531 32.3516L43.4766 33.5586L43.5586 36.1953L43.6055 38.832V38.8555L43.6992 41.375L43.3594 43.8828L43.3359 44.0117L43.3477 44.1523L43.4766 46.6836L43.2656 49.2383L43.2539 49.3906L43.2656 49.5312L43.5586 52.0508L43.4883 54.5938V57.207L43.3594 59.8438L43.3477 59.9023L43.3594 59.9492L43.4062 62.5859L43.4648 65.2344L43.4883 67.7891L43.3945 70.4258L43.3125 73.0742V73.1328L43.3359 75.7695V75.793L43.3828 78.4297V78.5L43.3945 78.5703L43.6875 81.0898L43.6172 83.6445L43.3594 86.1641L43.3477 86.2461V89.0703L43.5352 91.707L43.6055 94.2852L43.6523 96.9102L43.6992 99.5469H43.7109L43.6172 102.113V102.184L43.6523 104.82V104.867L43.7578 107.41L43.4648 109.906L43.4531 109.953V109.988L43.3008 112.637L43.2891 112.707L43.3008 112.789L43.418 115.426V115.496L43.4297 115.555L43.5117 116.199L43.6875 117.5H45.0352L47.5781 117.605L47.6836 117.617L47.8008 117.605L50.2852 117.336L52.7695 117.582H52.8633L55.5 117.688L55.5938 117.699L55.6758 117.688ZM53.0508 114.605L53.0625 114.594L50.4258 114.336L50.2734 114.324L50.1211 114.336L47.625 114.605L46.3711 114.559L46.2891 112.742L46.4531 110.164L46.7461 107.609L46.7695 107.492L46.7578 107.375L46.6406 104.797L46.6523 104.785L46.6172 102.137L46.6992 99.5703V99.4883L46.6055 94.2148V94.1914L46.5352 91.5547L46.5234 91.5195V91.4961L46.3477 88.9648V86.3867L46.6172 83.832V83.7148L46.6875 81.0781V80.9727L46.6758 80.8672L46.3828 78.3711L46.3359 75.7344L46.3125 73.1094L46.3945 70.5312L46.4883 67.8945V67.8242L46.4648 65.1875V65.1641L46.3477 59.8906L46.4766 57.3594L46.4883 57.3125V54.6875L46.5586 52.0391L46.5703 51.9336L46.5586 51.8281L46.2656 49.3203L46.4648 46.8359L46.4766 46.7422V46.6484L46.3477 44.1523L46.6875 41.6328L46.6992 41.5156V41.3867L46.6055 38.75L46.5469 36.125V36.1133L46.5 34.6953L47.2383 34.5078L49.6758 34.6367L49.8281 34.6484L49.9805 34.625L52.4531 34.2617H54.9609L57.457 34.6367H57.5039L57.5625 34.6484L58.4883 34.7305L58.6875 35.9492L58.2656 38.3281L58.2188 38.5625L58.2539 38.7969L58.5938 41.3867L58.582 43.7539L58.3711 46.4023L58.3594 46.5078L58.3711 46.6016L58.5234 49.25L58.6406 51.7227L58.2656 54.2188L58.2305 54.418L58.2539 54.6055L58.5352 57.1484L58.5234 59.7031V59.7148L58.2891 62.2227L58.2773 62.3867L58.3008 62.5508L58.6055 65.082L58.5703 67.6133V67.6719L58.6289 70.3086V70.3555L58.7578 72.8398L58.3008 75.2891L58.2539 75.5234L58.2891 75.7695L58.6406 78.2773L58.5117 80.7617V80.9844L58.7461 83.4102L58.3242 85.8594L58.2773 86.1172L58.3242 86.3867L58.7461 88.8828L58.6055 91.3086V91.332L58.5938 91.3555L58.4297 96.6289V96.7461L58.4414 96.8633L58.7461 99.418L58.582 101.867L58.5703 101.949L58.582 102.043L58.7109 104.516L58.3008 107L58.2656 107.211L58.2891 107.422L58.5938 109.988L58.6758 112.414L58.5469 114.172L57.8086 114.512L55.5 114.699L53.0508 114.605Z" fill="black"/>
<path d="M70.6758 117.688L73.3125 117.488L73.582 117.465L73.8281 117.348L75.6094 116.516L76.418 116.152L76.4766 115.262L76.6641 112.625L76.6758 112.555L76.6641 112.473L76.5938 109.836V109.766L76.582 109.707L76.3008 107.27L76.6992 104.844L76.7227 104.68L76.7109 104.516L76.5703 101.984L76.7461 99.418L76.7578 99.2773L76.7344 99.1367L76.4297 96.6289L76.5117 94.0859L76.5938 91.4961L76.7578 88.8477L76.7695 88.6719L76.7344 88.4961L76.3125 86.1172L76.7344 83.7383L76.7695 83.5391L76.7578 83.3398L76.5117 80.8672L76.6523 78.2773L76.6641 78.1367L76.6406 77.9844L76.2891 75.582L76.7344 73.1914L76.7695 73.0156L76.7578 72.8398L76.6289 70.2031L76.5703 67.6133L76.6172 65.0234V64.918L76.6055 64.8125L76.2891 62.3164L76.5234 59.8555V59.7266L76.5469 57.0898V56.9961L76.5352 56.9141L76.2539 54.4531L76.6289 52.0273L76.6523 51.875L76.6406 51.7227L76.5117 49.0859V49.0742L76.3594 46.5547L76.5703 44L76.582 43.9414V43.8945L76.5938 41.2461V41.1406L76.582 41.0352L76.2539 38.6328L76.6875 36.2305L76.7344 35.9727L76.6992 35.7148L76.2656 33.0781L76.0664 31.918L74.9062 31.8242L72.8555 31.6719L70.2656 31.2617L70.1484 31.25H70.0312L67.3945 31.2617H67.2891L67.1836 31.2734L64.6758 31.6484L62.2031 31.4961L61.9805 31.4844L61.7578 31.543L59.625 32.0586L58.4531 32.3516L58.4766 33.5586L58.5586 36.1953L58.6055 38.832V38.8555L58.6992 41.375L58.3594 43.8828L58.3359 44.0117L58.3477 44.1523L58.4766 46.6836L58.2656 49.2383L58.2539 49.3906L58.2656 49.5312L58.5586 52.0508L58.4883 54.5938V57.207L58.3594 59.8438L58.3477 59.9023L58.3594 59.9492L58.4062 62.5859L58.4648 65.2344L58.4883 67.7891L58.3945 70.4258L58.3125 73.0742V73.1328L58.3359 75.7695V75.793L58.3828 78.4297V78.5L58.3945 78.5703L58.6875 81.0898L58.6172 83.6445L58.3594 86.1641L58.3477 86.2461V89.0703L58.5352 91.707L58.6055 94.2852L58.6523 96.9102L58.6992 99.5469H58.7109L58.6172 102.113V102.184L58.6523 104.82V104.867L58.7578 107.41L58.4648 109.906L58.4531 109.953V109.988L58.3008 112.637L58.2891 112.707L58.3008 112.789L58.418 115.426V115.496L58.4297 115.555L58.5117 116.199L58.6875 117.5H60.0352L62.5781 117.605L62.6836 117.617L62.8008 117.605L65.2852 117.336L67.7695 117.582H67.8633L70.5 117.688L70.5938 117.699L70.6758 117.688ZM68.0508 114.605L68.0625 114.594L65.4258 114.336L65.2734 114.324L65.1211 114.336L62.625 114.605L61.3711 114.559L61.2891 112.742L61.4531 110.164L61.7461 107.609L61.7695 107.492L61.7578 107.375L61.6406 104.797L61.6523 104.785L61.6172 102.137L61.6992 99.5703V99.4883L61.6055 94.2148V94.1914L61.5352 91.5547L61.5234 91.5195V91.4961L61.3477 88.9648V86.3867L61.6172 83.832V83.7148L61.6875 81.0781V80.9727L61.6758 80.8672L61.3828 78.3711L61.3359 75.7344L61.3125 73.1094L61.3945 70.5312L61.4883 67.8945V67.8242L61.4648 65.1875V65.1641L61.3477 59.8906L61.4766 57.3594L61.4883 57.3125V54.6875L61.5586 52.0391L61.5703 51.9336L61.5586 51.8281L61.2656 49.3203L61.4648 46.8359L61.4766 46.7422V46.6484L61.3477 44.1523L61.6875 41.6328L61.6992 41.5156V41.3867L61.6055 38.75L61.5469 36.125V36.1133L61.5 34.6953L62.2383 34.5078L64.6758 34.6367L64.8281 34.6484L64.9805 34.625L67.4531 34.2617H69.9609L72.457 34.6367H72.5039L72.5625 34.6484L73.4883 34.7305L73.6875 35.9492L73.2656 38.3281L73.2188 38.5625L73.2539 38.7969L73.5938 41.3867L73.582 43.7539L73.3711 46.4023L73.3594 46.5078L73.3711 46.6016L73.5234 49.25L73.6406 51.7227L73.2656 54.2188L73.2305 54.418L73.2539 54.6055L73.5352 57.1484L73.5234 59.7031V59.7148L73.2891 62.2227L73.2773 62.3867L73.3008 62.5508L73.6055 65.082L73.5703 67.6133V67.6719L73.6289 70.3086V70.3555L73.7578 72.8398L73.3008 75.2891L73.2539 75.5234L73.2891 75.7695L73.6406 78.2773L73.5117 80.7617V80.9844L73.7461 83.4102L73.3242 85.8594L73.2773 86.1172L73.3242 86.3867L73.7461 88.8828L73.6055 91.3086V91.332L73.5938 91.3555L73.4297 96.6289V96.7461L73.4414 96.8633L73.7461 99.418L73.582 101.867L73.5703 101.949L73.582 102.043L73.7109 104.516L73.3008 107L73.2656 107.211L73.2891 107.422L73.5938 109.988L73.6758 112.414L73.5469 114.172L72.8086 114.512L70.5 114.699L68.0508 114.605Z" fill="black"/>
<path d="M37.2227 38.5L37.4336 38.5703L39.543 39.2031L40.8203 39.5898L40.5859 40.9023L40.1992 43.0938L39.8711 44.9336L38.1484 44.2188L36.332 43.4688L35.4648 43.1055L35.418 42.1562L35.3125 40.082L35.2305 38.5H37.2227Z" fill="black"/>
<path d="M52.2227 38.5L52.4336 38.5703L54.543 39.2031L55.8203 39.5898L55.5859 40.9023L55.1992 43.0938L54.8711 44.9336L53.1484 44.2188L51.332 43.4688L50.4648 43.1055L50.418 42.1562L50.3125 40.082L50.2305 38.5H52.2227Z" fill="black"/>
<path d="M66.2227 38.5L66.4336 38.5703L68.543 39.2031L69.8203 39.5898L69.5859 40.9023L69.1992 43.0938L68.8711 44.9336L67.1484 44.2188L65.332 43.4688L64.4648 43.1055L64.418 42.1562L64.3125 40.082L64.2305 38.5H66.2227Z" fill="black"/>
<path d="M82.2227 38.5L82.4336 38.5703L84.543 39.2031L85.8203 39.5898L85.5859 40.9023L85.1992 43.0938L84.8711 44.9336L83.1484 44.2188L81.332 43.4688L80.4648 43.1055L80.418 42.1562L80.3125 40.082L80.2305 38.5H82.2227Z" fill="black"/>
<path d="M37.2227 54.5L37.4336 54.5703L39.543 55.2031L40.8203 55.5898L40.5859 56.9023L40.1992 59.0938L39.8711 60.9336L38.1484 60.2188L36.332 59.4688L35.4648 59.1055L35.418 58.1562L35.3125 56.082L35.2305 54.5H37.2227Z" fill="black"/>
<path d="M22.2227 54.5L22.4336 54.5703L24.543 55.2031L25.8203 55.5898L25.5859 56.9023L25.1992 59.0938L24.8711 60.9336L23.1484 60.2188L21.332 59.4688L20.4648 59.1055L20.418 58.1562L20.3125 56.082L20.2305 54.5H22.2227Z" fill="black"/>
<path d="M52.2227 54.5L52.4336 54.5703L54.543 55.2031L55.8203 55.5898L55.5859 56.9023L55.1992 59.0938L54.8711 60.9336L53.1484 60.2188L51.332 59.4688L50.4648 59.1055L50.418 58.1562L50.3125 56.082L50.2305 54.5H52.2227Z" fill="black"/>
<path d="M66.2227 54.5L66.4336 54.5703L68.543 55.2031L69.8203 55.5898L69.5859 56.9023L69.1992 59.0938L68.8711 60.9336L67.1484 60.2188L65.332 59.4688L64.4648 59.1055L64.418 58.1562L64.3125 56.082L64.2305 54.5H66.2227Z" fill="black"/>
<path d="M82.2227 54.5L82.4336 54.5703L84.543 55.2031L85.8203 55.5898L85.5859 56.9023L85.1992 59.0938L84.8711 60.9336L83.1484 60.2188L81.332 59.4688L80.4648 59.1055L80.418 58.1562L80.3125 56.082L80.2305 54.5H82.2227Z" fill="black"/>
<path d="M96.2227 54.5L96.4336 54.5703L98.543 55.2031L99.8203 55.5898L99.5859 56.9023L99.1992 59.0938L98.8711 60.9336L97.1484 60.2188L95.332 59.4688L94.4648 59.1055L94.418 58.1562L94.3125 56.082L94.2305 54.5H96.2227Z" fill="black"/>
<path d="M52.418 23.8359L53.0391 23.625L53.7656 25.8164L54.832 28.9922L51.75 27.668L50.5781 27.1523L49.418 26.6602L49.7109 25.4297L50.1562 23.5664L52.418 23.8359Z" fill="black"/>
<path d="M60.2993 23.8359L60.9204 23.625L61.647 25.8164L62.7134 28.9922L59.6313 27.668L58.4595 27.1523L57.2993 26.6602L57.5923 25.4297L58.0376 23.5664L60.2993 23.8359Z" fill="black"/>
<path d="M68.1812 23.8359L68.8022 23.625L69.5288 25.8164L70.5952 28.9922L67.5132 27.668L66.3413 27.1523L65.1812 26.6602L65.4741 25.4297L65.9194 23.5664L68.1812 23.8359Z" fill="black"/>
<path d="M37.2227 66.5L37.4336 66.5703L39.543 67.2031L40.8203 67.5898L40.5859 68.9023L40.1992 71.0938L39.8711 72.9336L38.1484 72.2188L36.332 71.4688L35.4648 71.1055L35.418 70.1562L35.3125 68.082L35.2305 66.5H37.2227Z" fill="black"/>
<path d="M22.2227 66.5L22.4336 66.5703L24.543 67.2031L25.8203 67.5898L25.5859 68.9023L25.1992 71.0938L24.8711 72.9336L23.1484 72.2188L21.332 71.4688L20.4648 71.1055L20.418 70.1562L20.3125 68.082L20.2305 66.5H22.2227Z" fill="black"/>
<path d="M52.2227 66.5L52.4336 66.5703L54.543 67.2031L55.8203 67.5898L55.5859 68.9023L55.1992 71.0938L54.8711 72.9336L53.1484 72.2188L51.332 71.4688L50.4648 71.1055L50.418 70.1562L50.3125 68.082L50.2305 66.5H52.2227Z" fill="black"/>
<path d="M66.2227 66.5L66.4336 66.5703L68.543 67.2031L69.8203 67.5898L69.5859 68.9023L69.1992 71.0938L68.8711 72.9336L67.1484 72.2188L65.332 71.4688L64.4648 71.1055L64.418 70.1562L64.3125 68.082L64.2305 66.5H66.2227Z" fill="black"/>
<path d="M82.2227 66.5L82.4336 66.5703L84.543 67.2031L85.8203 67.5898L85.5859 68.9023L85.1992 71.0938L84.8711 72.9336L83.1484 72.2188L81.332 71.4688L80.4648 71.1055L80.418 70.1562L80.3125 68.082L80.2305 66.5H82.2227Z" fill="black"/>
<path d="M96.2227 66.5L96.4336 66.5703L98.543 67.2031L99.8203 67.5898L99.5859 68.9023L99.1992 71.0938L98.8711 72.9336L97.1484 72.2188L95.332 71.4688L94.4648 71.1055L94.418 70.1562L94.3125 68.082L94.2305 66.5H96.2227Z" fill="black"/>
<path d="M37.2227 78.5L37.4336 78.5703L39.543 79.2031L40.8203 79.5898L40.5859 80.9023L40.1992 83.0938L39.8711 84.9336L38.1484 84.2188L36.332 83.4688L35.4648 83.1055L35.418 82.1562L35.3125 80.082L35.2305 78.5H37.2227Z" fill="black"/>
<path d="M22.2227 78.5L22.4336 78.5703L24.543 79.2031L25.8203 79.5898L25.5859 80.9023L25.1992 83.0938L24.8711 84.9336L23.1484 84.2188L21.332 83.4688L20.4648 83.1055L20.418 82.1562L20.3125 80.082L20.2305 78.5H22.2227Z" fill="black"/>
<path d="M52.2227 78.5L52.4336 78.5703L54.543 79.2031L55.8203 79.5898L55.5859 80.9023L55.1992 83.0938L54.8711 84.9336L53.1484 84.2188L51.332 83.4688L50.4648 83.1055L50.418 82.1562L50.3125 80.082L50.2305 78.5H52.2227Z" fill="black"/>
<path d="M66.2227 78.5L66.4336 78.5703L68.543 79.2031L69.8203 79.5898L69.5859 80.9023L69.1992 83.0938L68.8711 84.9336L67.1484 84.2188L65.332 83.4688L64.4648 83.1055L64.418 82.1562L64.3125 80.082L64.2305 78.5H66.2227Z" fill="black"/>
<path d="M82.2227 78.5L82.4336 78.5703L84.543 79.2031L85.8203 79.5898L85.5859 80.9023L85.1992 83.0938L84.8711 84.9336L83.1484 84.2188L81.332 83.4688L80.4648 83.1055L80.418 82.1562L80.3125 80.082L80.2305 78.5H82.2227Z" fill="black"/>
<path d="M96.2227 78.5L96.4336 78.5703L98.543 79.2031L99.8203 79.5898L99.5859 80.9023L99.1992 83.0938L98.8711 84.9336L97.1484 84.2188L95.332 83.4688L94.4648 83.1055L94.418 82.1562L94.3125 80.082L94.2305 78.5H96.2227Z" fill="black"/>
<path d="M37.2227 90.5L37.4336 90.5703L39.543 91.2031L40.8203 91.5898L40.5859 92.9023L40.1992 95.0938L39.8711 96.9336L38.1484 96.2188L36.332 95.4688L35.4648 95.1055L35.418 94.1562L35.3125 92.082L35.2305 90.5H37.2227Z" fill="black"/>
<path d="M22.2227 90.5L22.4336 90.5703L24.543 91.2031L25.8203 91.5898L25.5859 92.9023L25.1992 95.0938L24.8711 96.9336L23.1484 96.2188L21.332 95.4688L20.4648 95.1055L20.418 94.1562L20.3125 92.082L20.2305 90.5H22.2227Z" fill="black"/>
<path d="M52.2227 90.5L52.4336 90.5703L54.543 91.2031L55.8203 91.5898L55.5859 92.9023L55.1992 95.0938L54.8711 96.9336L53.1484 96.2188L51.332 95.4688L50.4648 95.1055L50.418 94.1562L50.3125 92.082L50.2305 90.5H52.2227Z" fill="black"/>
<path d="M66.2227 90.5L66.4336 90.5703L68.543 91.2031L69.8203 91.5898L69.5859 92.9023L69.1992 95.0938L68.8711 96.9336L67.1484 96.2188L65.332 95.4688L64.4648 95.1055L64.418 94.1562L64.3125 92.082L64.2305 90.5H66.2227Z" fill="black"/>
<path d="M82.2227 90.5L82.4336 90.5703L84.543 91.2031L85.8203 91.5898L85.5859 92.9023L85.1992 95.0938L84.8711 96.9336L83.1484 96.2188L81.332 95.4688L80.4648 95.1055L80.418 94.1562L80.3125 92.082L80.2305 90.5H82.2227Z" fill="black"/>
<path d="M96.2227 90.5L96.4336 90.5703L98.543 91.2031L99.8203 91.5898L99.5859 92.9023L99.1992 95.0938L98.8711 96.9336L97.1484 96.2188L95.332 95.4688L94.4648 95.1055L94.418 94.1562L94.3125 92.082L94.2305 90.5H96.2227Z" fill="black"/>
<path d="M37.2227 102.5L37.4336 102.57L39.543 103.203L40.8203 103.59L40.5859 104.902L40.1992 107.094L39.8711 108.934L38.1484 108.219L36.332 107.469L35.4648 107.105L35.418 106.156L35.3125 104.082L35.2305 102.5H37.2227Z" fill="black"/>
<path d="M22.2227 102.5L22.4336 102.57L24.543 103.203L25.8203 103.59L25.5859 104.902L25.1992 107.094L24.8711 108.934L23.1484 108.219L21.332 107.469L20.4648 107.105L20.418 106.156L20.3125 104.082L20.2305 102.5H22.2227Z" fill="black"/>
<path d="M52.2227 102.5L52.4336 102.57L54.543 103.203L55.8203 103.59L55.5859 104.902L55.1992 107.094L54.8711 108.934L53.1484 108.219L51.332 107.469L50.4648 107.105L50.418 106.156L50.3125 104.082L50.2305 102.5H52.2227Z" fill="black"/>
<path d="M66.2227 102.5L66.4336 102.57L68.543 103.203L69.8203 103.59L69.5859 104.902L69.1992 107.094L68.8711 108.934L67.1484 108.219L65.332 107.469L64.4648 107.105L64.418 106.156L64.3125 104.082L64.2305 102.5H66.2227Z" fill="black"/>
<path d="M82.2227 102.5L82.4336 102.57L84.543 103.203L85.8203 103.59L85.5859 104.902L85.1992 107.094L84.8711 108.934L83.1484 108.219L81.332 107.469L80.4648 107.105L80.418 106.156L80.3125 104.082L80.2305 102.5H82.2227Z" fill="black"/>
<path d="M96.2227 102.5L96.4336 102.57L98.543 103.203L99.8203 103.59L99.5859 104.902L99.1992 107.094L98.8711 108.934L97.1484 108.219L95.332 107.469L94.4648 107.105L94.418 106.156L94.3125 104.082L94.2305 102.5H96.2227Z" fill="black"/>
<path d="M45.5 21.4961L45.5 20.0078L44.1055 20.2188L43.8477 18.4961L43.8242 18.3086L43.8359 18.1211L44.0937 15.625L44 13.1641L44 13L47 13L47 13.0352L47.1055 15.5781L47.1172 15.6836L47.1055 15.8008L46.8359 18.2617L47.0703 19.7734L47.3281 21.4961L45.5 21.4961Z" fill="black"/>
<path d="M73.5 21.4961L73.5 20.0078L72.1055 20.2188L71.8477 18.4961L71.8242 18.3086L71.8359 18.1211L72.0937 15.625L72 13.1641L72 13L75 13L75 13.0352L75.1055 15.5781L75.1172 15.6836L75.1055 15.8008L74.8359 18.2617L75.0703 19.7734L75.3281 21.4961L73.5 21.4961Z" fill="black"/>
<path d="M90.5 37.4961L90.5 36.0078L89.1055 36.2188L88.8477 34.4961L88.8242 34.3086L88.8359 34.1211L89.0937 31.625L89 29.1641L89 29L92 29L92 29.0352L92.1055 31.5781L92.1172 31.6836L92.1055 31.8008L91.8359 34.2617L92.0703 35.7734L92.3281 37.4961L90.5 37.4961Z" fill="black"/>
<path d="M30.5 37.4961L30.5 36.0078L29.1055 36.2188L28.8477 34.4961L28.8242 34.3086L28.8359 34.1211L29.0937 31.625L29 29.1641L29 29L32 29L32 29.0352L32.1055 31.5781L32.1172 31.6836L32.1055 31.8008L31.8359 34.2617L32.0703 35.7734L32.3281 37.4961L30.5 37.4961Z" fill="black"/>
<path d="M103.5 50.4961L103.5 49.0078L102.105 49.2188L101.848 47.4961L101.824 47.3086L101.836 47.1211L102.094 44.625L102 42.1641L102 42L105 42L105 42.0352L105.105 44.5781L105.117 44.6836L105.105 44.8008L104.836 47.2617L105.07 48.7734L105.328 50.4961L103.5 50.4961Z" fill="black"/>
<path d="M16.5 50.4961L16.5 49.0078L15.1055 49.2188L14.8477 47.4961L14.8242 47.3086L14.8359 47.1211L15.0937 44.625L15 42.1641L15 42L18 42L18 42.0352L18.1055 44.5781L18.1172 44.6836L18.1055 44.8008L17.8359 47.2617L18.0703 48.7734L18.3281 50.4961L16.5 50.4961Z" fill="black"/>
</svg>
