<svg xmlns="http://www.w3.org/2000/svg" width="120" height="120" fill="none" viewBox="0 0 120 120"><path fill="#000" d="m100.027 106.211 2.989.539.129.023.117.047 2.789 1.008h-.012l2.824.832.106.024.093.046 2.731 1.243.176.07.152.129.82.656-.937 1.172-.949 1.172-.668-.551-2.496-1.137-2.778-.808-.093-.024-2.649-.972-2.473-.446-2.449.926h-.023l-.024.012-2.636.89-2.215 1.629-.117.082-.118.059-2.683 1.289-.2.094-.21.035-2.954.48-.222.036-.211-.024-2.988-.387-.176-.023-.164-.059-2.836-1.078-.27-.105-.21-.188-1.981-1.816-2.531-.586-2.555-.223-2.426.703-2.613 1.161-2.309 1.629-.21.128-.235.071-2.906.855-.328.094-.352-.059-2.977-.504-.105-.023-.094-.035-2.824-.902-.2-.059-.175-.129-2.355-1.605-2.473-1.114-2.52-.398-2.507.562-2.473 1.219-2.496 1.512-.14.082-.165.058-2.847.926-.235.071h-.258l-2.965-.059h-.128l-.141-.023-2.895-.586-.246-.047-.21-.129-2.567-1.488-.07-.047-2.297-1.524-2.555-.738-2.683-.551-2.52.387-2.508 1.183-2.625 1.36-.07.035-.082.023-2.707 1.043-.012.012H8.61l-.093.035-1.032-2.812.094-.035h.012l2.672-1.043 2.531-1.301.047-.024 2.719-1.289.199-.093.21-.024 2.989-.457.27-.047.257.059 2.942.598.117.023 2.871.832.223.059.187.128 2.438 1.618 2.343 1.359 2.497.504 2.59.047 2.437-.797 2.45-1.441.046-.036.059-.023 2.66-1.324.164-.071.176-.046 2.953-.657.281-.058.27.035 3.011.457.2.035.187.082 2.777 1.254.117.059.106.07 2.297 1.558 2.449.786 2.578.445 2.309-.668 2.285-1.57.117-.082.14-.059 2.755-1.219.093-.047.094-.023 2.871-.844.282-.082.28.024 2.989.269.094.012.105.023 2.953.692.387.082.281.269 2.04 1.864 2.39.914 2.637.339 2.507-.398 2.368-1.148 2.32-1.688.176-.129.223-.07 2.835-.973 2.801-1.043.387-.14zm-72.332-9.59 2.742 1.207.106.047.094.059 2.52 1.582.011.011 2.262 1.465 2.308.516 2.39-.446 2.368-1.171 2.426-1.582.246-.165.293-.058 2.906-.563.223-.035.222.024 2.942.316.246.024.223.105 2.754 1.266.117.058.117.07 2.18 1.524 2.285.563 2.355-.27 2.285-1.29.036-.022.023-.012 2.648-1.371.118-.07.14-.036 2.801-.855.246-.07.246.011 3.024.094.421.023.364.235 2.508 1.675h-.012l2.32 1.43 2.309.703 2.355-.527 2.555-.844 1.969-1.816.187-.164.223-.106 2.719-1.207.21-.093.247-.024 2.965-.305.246-.023.234.058 2.93.657.187.047.176.082 2.672 1.406.082.035.082.059 2.226 1.558.551.129-.328 1.465-.316 1.465-.844-.188-.305-.058-.246-.176-2.426-1.711-2.355-1.23-2.496-.575-2.52.27-2.25.996-2.004 1.875-.246.223-.304.105-2.871.949-.141.047-2.895.633-.386.094-.375-.117-2.86-.868-.187-.058-.164-.094L75.262 102l-.012-.012-.023-.011-2.18-1.454-2.344-.07-2.426.738-2.484 1.278.012.011-2.555 1.454-.258.152-.316.035-2.918.328-.258.035-.27-.058-2.835-.703-.27-.059-.234-.164-2.32-1.629-2.38-1.101-2.46-.258-2.391.445-2.262 1.5-.164.094-2.648 1.289-.188.094-.2.035-2.882.551-.305.058-.304-.07-2.883-.645-.258-.058-.223-.153-2.472-1.605-2.438-1.535-2.332-1.02-2.414.035-2.367.985-2.496 1.511-.14.071-2.637 1.23-.059.035-.082.024-.094.035L16 102l-.316-.938-.223-.457 2.566-1.207 2.496-1.5.094-.058.106-.035 2.765-1.16.27-.106h.293l3.023-.047h.328zm7.012-74.838 2.566.621.211.07 2.309.926 2.531.633.246.059.211.14 2.133 1.383 2.297.856.059.023.058.035 2.379 1.125.023.012.012.012 2.356 1.183.023.012.012.012 2.332 1.254.035.011.035.024 2.25 1.394.117.059.094.082 1.84 1.629 2.238 1.043.246.117.188.2 1.804 1.85 1.84 1.7 2.145 1.383.117.082.105.105 1.899 1.852.14.117.094.164 1.301 2.098 1.805 1.699.117.117.094.14 1.406 2.087 1.746 1.828.084.084 1.639-.889.012-.012h.011l2.356-1.218.023-.012.035-.012 2.403-1.101 2.39-1.113.13-.06.14-.034 2.414-.61 2.367-1.008 2.414-1.066.176-.082.2-.023 2.519-.41 2.437-.739.106-.023.117-.024 2.613-.375 2.391-.656.246-.07.258.023 2.683.2 2.156.175-.914 1.957-.761 1.64-1.09 2.321.012.012-.997 2.45-.914 2.437-.937 2.472-.07.164-1.114 2.098-.152 1.559.891 1.488 1.359 1.957 1.816 1.805.082.082.071.093 1.558 2.133.071.082.046.106 1.184 2.203 1.594 1.922.07.07.047.094 1.371 2.18 1.559 2.038.058.06.047.081.156.265.219-.005.006.385.076.129-.074.043.016.955.035 2.636v.106l-.012.105-.328 2.52.199 2.46.012.094-.012.106-.152 2.637.035 1.16-1.5.035-.024 1.5-.996-.012-2.507.258-.223.023-.223-.035-2.461-.492-2.425.012-2.497.433-.152.024-.164-.012-2.637-.105h-.07l-.07-.012-2.403-.34-2.39.469-.235.047-.234-.024-2.555-.328-2.531.012-.012-.012-2.59.082h-.011l-2.637.059h-.023l-2.567.012.012.011-2.637.176-.187.012-2.625-.492-2.39.28-.13.013h-.129l-2.554-.141-2.555.164h-.129l-.129-.012-2.496-.28-2.461.269h-.07l-2.637.152-.152.012-.141-.024-2.543-.351-2.508.058h-.058l-2.637-.058v-.012h-2.637l-2.625-.047-2.496.223-.035.011h-.047l-2.637.094h-.117l-2.636-.105V89.5l-2.59-.012h-.047l-.047-.011-2.578-.176-2.532.129h-.082l-2.636-.012v-.012l-2.508.024-2.637.234-.14.012-.153-.012-2.531-.281-2.578.011v-.011l-2.543.176h-.012l-.012.011-2.648.118-.094.011-.082-.011-2.543-.188.012-.223V88H6.5v-.21l.2-2.474-.13-2.496-.175-2.636v-.094l-.012-2.637-.012-.644.094-.09-.137.107-.047-.058-.843-1.102 1.03-.926.048-.035 1.336-1.687 1.007-2.145.762-2.402.668-2.508v-.012l.012-.011.656-2.38-.023-2.378-.059-2.543-.234-2.52-.575-2.45-.41-1.733 1.781-.106 2.32-.129.188-.011.188.035 2.59.515.07.012.07.023 2.485.739h.011l2.543.703h.012l2.555.738.117.035.117.047 2.321 1.115-.169-1.396-.48-2.59v-.012l-.562-2.508-.012-.058-.012-.047-.363-2.344-1.207-2.074-.094-.164-.059-.187-.632-2.297-.141-.176-3.152-4.254 4.922 1.969.093.035-.011.011 2.367.926 2.402.739.023.011h.012l2.508.844.082.023.07.036 2.403 1.101.105.047.106.07 2.05 1.371 2.356 1.114.082.035.082.047 2.238 1.406.047.023.035.024 1.738 1.25-.038-.23-.422-2.438-.762-2.461-.973-2.379-.011-.035-.024-.047-.855-2.484v-.012l-.95-2.309-1.043-2.343-1.242-2.239-.047-.07-.035-.082-.96-2.285-1.477-1.969H35l-1.687-1.84-.364-.398-.035-.54-.059-1.148-.105-2.016zm56.437 55.47-2.496.434-.152.024-.164-.012-2.637-.105h-.07l-.01-.002.139.793-.14.023-1.677.281-.055-1.344-.73-.103-2.39.469-.235.047-.234-.024-2.555-.328-2.531.012-.012-.012-2.59.082h-.011l-2.637.059h-.023l-2.567.012.012.011-2.637.176-.187.012-2.625-.492-2.39.28-.13.013h-.129l-2.554-.141-2.555.164h-.129l-.129-.012-2.496-.28-2.461.269h-.07l-2.637.152-.152.012-.141-.024-2.543-.351-2.508.058h-.058l-2.637-.058v-.012h-2.637l-2.625-.047-2.496.223-.035.011h-.047l-2.637.094h-.117l-2.637-.105V77.5l-1.016-.005-.366.163.063-.165-1.27-.005h-.047l-.047-.011-2.578-.176-2.532.129h-.082l-2.636-.012v-.012l-2.508.024-2.11.187-.468.445.012 2.016.164 2.543v.012l.011.011.117 2.649.012.094-.011.082-.085 1.143 1.069.087 2.508-.117v-.012l2.636-.175h.094l2.637-.012.094-.012.082.012 2.508.281 2.484-.21.047-.013h.058l2.649-.023h.023l2.555.012 2.648-.118.082-.011.082.011 2.649.176-.012.012 2.555.012h.047l2.59.105 2.496-.082 2.648-.246h.152l2.637.047-.012.012h2.66l2.602.058 2.613-.058h.13l.117.011 2.484.364 2.496-.164v.011l2.578-.28.152-.013.164.012 2.485.293 2.543-.152.082-.012.082.012 2.531.129 2.496-.293.235-.035.222.046 2.45.457 2.449-.152.047-.012h.035l2.625-.011v-.012l2.636-.059 2.637-.07h.035l2.637-.012h.106l.093.012 2.39.316 2.415-.468.246-.047.234.035 2.578.352 2.379.105 2.52-.434.117-.011h.117l2.637-.024h.152l.153.024 2.437.48 2.068-.212.147-2.436-.199-2.543-.012-.153.024-.152.316-2.555-.012-1.007-1.183.035h-.047l-2.649-.024h-.082l-.093-.011-2.45-.329-2.437.329-.152.023-.165-.012-2.566-.21-2.437.257-.223.023-.223-.035-2.46-.492zm-16.17-22.781-.012.011-.023.012-2.157 1.512-.035.012-.035.023-2.238 1.406-.012-.012-2.063 1.489-.046.023-2.133 1.406-1.887 1.688-.012.012-.023.012-2.027 1.699-1.852 1.675-1.723 1.922-.082.094-.105.082-2.028 1.582-1.699 1.77-1.617 2.015-.012-.011-1.148 1.443 2.086.246 2.543-.152.082-.012.082.012 2.531.129 2.496-.293.235-.035.222.046 2.45.457 2.449-.152.047-.012h.035l2.625-.011v-.012l2.636-.059 2.637-.07h.035l2.637-.012h.106l.093.012 2.39.316 2.415-.468.246-.047.234.035.167.022-.354-1.282-.012-.035v-.047l-.574-2.578h-.012l-.797-2.32-.023-.047-.012-.035-.691-2.414-1.114-2.262-.058-.106-.035-.117-.739-2.426-1.09-2.109-1.57-1.957-.07-.082-.047-.082-1.19-1.997zm24.937 8.777v.035l-.363 2.555-.27 2.555-.152 2.648v.094l-.34 2.625-.085.75.109-.01.14-.012.13.012 2.483.2 2.473-.34.199-.024.2.023 2.566.352 2.496.012.321-.008-.579-.756-.047-.059-.035-.058-1.383-2.203-1.593-1.91-.106-.118-.07-.14-1.231-2.285-1.371-1.876-1.84-1.851-.105-.094-.07-.105-1.278-1.828zm1.406-19.113-.093.023-.094.012-2.567.363-2.355.727-.094.023-.105.024-2.461.386-2.227.997h-.011l-2.426 1.042-.106.047-.117.035-2.45.598-2.26 1.066-.013.012-2.414 1.102-2.261 1.148.011.012-1.704.919 1.247 2.089 1.688 2.11.07.128 1.23 2.355.06.13.046.128.703 2.38 1.149 2.32.058.117.036.129.703 2.46.867 2.497.035.093.023.082.54 2.497.686 2.456 1.563.069 2.52-.434.117-.011h.117l2.637-.024h.152l.153.024 1.707.336.133-1.194v-.023l.34-2.625.14-2.532v-.035l.012-.035.27-2.625v-.047l.363-2.613.304-2.613.024-.211.082-.2.914-2.202.316-1.688.106.035.023-.164.035-.293.13-.258 1.206-2.308.903-2.356.914-2.46.011-.024.012-.012.984-2.45.012-.034.024-.035.949-2.086-.258-.024zM38.996 27.56l.117.14.07.176.973 2.32 1.278 2.285.035.059.023.07 1.067 2.403.023.046.996 2.438.024.07.832 2.414 1.007 2.438.047.14.774 2.52.023.094.024.082.457 2.613.011.012.434 2.601.012.083v.07l.025.405.42.298-.368.494.087 1.334.363 2.602.012.07v.07l.117 2.637v.035l.059 2.59.14 2.648.012.176-.035.176-.47 2.496-.28 2.59-.223 2.648-.012.035v.047l-.398 2.625-.008.081.986-.065 1.623-1.664 1.559-1.945 1.664-2.063.094-.094 1.828-1.898.07-.082.082-.059 1.98-1.57 1.688-1.863.106-.106 1.957-1.781.047-.047 1.992-1.664 1.98-1.758.082-.07.082-.059 2.215-1.453 2.11-1.5.035-.035.047-.023 2.238-1.395 2.074-1.453.479-.349-1.569-1.624-.082-.094-.082-.105-1.37-2.05-1.806-1.712-.14-.129-.106-.164-1.324-2.133-1.664-1.617-2.121-1.37-.105-.071-.094-.082-1.946-1.793-.058-.059-1.676-1.722-2.18-1.02-.187-.082-.164-.14-1.887-1.664-2.086-1.29-2.285-1.242-2.332-1.172-2.379-1.125v-.011l-2.355-.868-.153-.046-.14-.094-2.04-1.336-2.331-.574-.106-.024-.094-.047-1.172-.468zm4.406 29.308-.023.012-.012.023-1.734 1.98-1.477 1.958-1.465 2.215-.047.058-.046.07-1.688 2.028-.012-.012-1.652 2.04-.012.011v.012l-1.699 2.015-1.582 2.04-.07.093-.082.082-1.863 1.734-.95 1.346 1.196-.039 2.648-.246h.152l2.637.047-.012.012h2.66l2.602.058 2.613-.058h.133l.102-.31.386-2.497.223-2.543v-.023l.281-2.625.012-.059v-.047l.445-2.484-.129-2.426v-.047l-.058-2.602-.106-2.495-.118-.846zm-16.308 5.988-.094.07-.105.06-2.157 1.218-1.91 1.676-1.863 1.793-.13.105-.128.082-2.156 1.301-1.899 1.676-.14.094-2.063 1.43-1.804 1.78-.165.165-.21.105-.052.025 2.25-.019h.024l2.555.012 2.648-.118.082-.011.082.011 2.649.176-.012.012 2.327.01.099-.25.89-2.285.399-2.473v-.047l.012-.047.539-2.437v-2.672l.047-.176.334-1.306zm-13.7-8.144.2.82.023.106.012.105.234 2.625v.059l.012.047.059 2.636v.012l.035 2.66v.211l-.059.211-.726 2.555-.012-.012-.668 2.531v.035l-.012.024-.351 1.078.304-.281.082-.082.106-.07 2.12-1.489 1.911-1.664.094-.082.117-.07 2.133-1.29 1.793-1.722.023-.023.035-.024 1.993-1.734.105-.106.129-.07 2.227-1.277 1.593-1.301.047-.117-1.148-.621-2.262-1.09-2.437-.703-2.544-.692h-.011l-.012-.011-2.531-.739v-.011l-2.285-.446zm14.774-9.293.14.246.047.293.387 2.531.574 2.567v.023l.012.035.48 2.59.012.047v.047l.317 2.625.011.047v.047l.045.846.405.22-.34 1.016.172 3.215.011.222-.058.223-.621 2.414v2.636l-.035.153-.528 2.344.469-.434 1.523-1.98.047-.047 1.7-2.016 1.652-2.027.012-.012 1.605-1.934 1.465-2.18.023-.023.024-.035 1.582-2.121.035-.047.035-.035 1.734-1.992 1.653-2.004.668-.914-.903-.645h-.011l-2.063-1.488-2.226-1.383-2.262-1.055-.105-.046-.094-.059-2.11-1.418-2.238-1.02-2.379-.796-2.004-.621z"/></svg>