<svg width="120" height="120" viewBox="0 0 120 120" fill="none" xmlns="http://www.w3.org/2000/svg">
<path d="M59.2539 110.141L62.2305 110.645L62.3359 110.668L62.4297 110.703L65.2539 111.605L65.4531 111.664L65.6289 111.793L67.9844 113.398L70.457 114.512L72.9766 114.91L75.4844 114.348L77.957 113.129L80.4531 111.617L80.5938 111.535L80.7578 111.477L83.6055 110.551L83.8398 110.48H84.0977L87.0625 110.539H87.1914L87.332 110.562L90.2266 111.148L90.4727 111.195L90.6836 111.324L93.25 112.812L93.3203 112.859L95.6172 114.383L98.1719 115.121L100.855 115.672L103.375 115.285L105.883 114.102L108.508 112.742L108.578 112.707L108.66 112.684L111.367 111.641L111.379 111.629H111.391L111.484 111.594L112.516 114.406L112.422 114.441H112.41L109.738 115.484L107.207 116.785L107.16 116.809L104.441 118.098L104.242 118.191L104.031 118.215L101.043 118.672L100.773 118.719L100.516 118.66L97.5742 118.062L97.457 118.039L94.5859 117.207L94.3633 117.148L94.1758 117.02L91.7383 115.402L89.3945 114.043L86.8984 113.539L84.3086 113.492L81.8711 114.289L79.4219 115.73L79.375 115.766L79.3164 115.789L76.6562 117.113L76.4922 117.184L76.3164 117.23L73.3633 117.887L73.082 117.945L72.8125 117.91L69.8008 117.453L69.6016 117.418L69.4141 117.336L66.6367 116.082L66.5195 116.023L66.4141 115.953L64.1172 114.395L61.668 113.609L59.0898 113.164L56.7812 113.832L54.4961 115.402L54.3789 115.484L54.2383 115.543L51.4844 116.762L51.3906 116.809L51.2969 116.832L48.4258 117.676L48.1445 117.758L47.8633 117.734L44.875 117.465L44.7812 117.453L44.6758 117.43L41.7227 116.738L41.3359 116.656L41.0547 116.387L39.0156 114.523L36.625 113.609L33.9883 113.27L31.4805 113.668L29.1133 114.816L26.793 116.504L26.6172 116.633L26.3945 116.703L23.5586 117.676L20.7578 118.719L20.3711 118.859L19.9727 118.789L16.9844 118.25L16.8555 118.227L16.7383 118.18L13.9492 117.172H13.9609L11.1367 116.34L11.0312 116.316L10.9375 116.27L8.20703 115.027L8.03125 114.957L7.87891 114.828L7.05859 114.172L7.99609 113L8.94531 111.828L9.61328 112.379L12.1094 113.516L14.8867 114.324L14.9805 114.348L17.6289 115.32L20.1016 115.766L22.5508 114.84H22.5742L22.5977 114.828L25.2344 113.938L27.4492 112.309L27.5664 112.227L27.6836 112.168L30.3672 110.879L30.5664 110.785L30.7773 110.75L33.7305 110.27L33.9531 110.234L34.1641 110.258L37.1523 110.645L37.3281 110.668L37.4922 110.727L40.3281 111.805L40.5977 111.91L40.8086 112.098L42.7891 113.914L45.3203 114.5L47.875 114.723L50.3008 114.02L52.9141 112.859L55.2227 111.23L55.4336 111.102L55.668 111.031L58.5742 110.176L58.9023 110.082L59.2539 110.141ZM60.2812 100.445L63.2227 101.055L63.4688 101.113L63.668 101.23L66.2578 102.73L66.4219 102.848L68.5547 104.512L70.9453 105.051L73.4648 104.84L75.7734 103.75L78.1641 102.051L78.457 101.84L78.8203 101.781L81.7969 101.359L81.9609 101.348L82.125 101.359L85.0664 101.582L85.2656 101.605L85.4414 101.664L88.2656 102.648L88.4297 102.719L91.125 104.043L91.2656 104.137L93.7148 105.707L93.1641 106.562L93 106.996L92.4609 108.402L92.3672 108.367L92.2266 108.309L92.0977 108.227L89.707 106.691L87.1992 105.461L84.6211 104.559L82.0547 104.371L79.6172 104.711L77.4375 106.246L77.332 106.316L77.2148 106.375L74.4961 107.664L74.2383 107.793L73.9688 107.805L70.9688 108.051L70.7344 108.074L70.5117 108.016L67.5586 107.359L67.2305 107.277L66.9609 107.078L64.5938 105.238L62.4023 103.961L59.9648 103.445L57.6328 103.949L55.4414 105.449L55.418 105.473L52.8867 107.137L52.6758 107.277L52.4297 107.348L49.4766 108.098L49.2188 108.168L48.9375 108.133L45.9375 107.793L45.7031 107.77L45.4805 107.676L42.7266 106.434L42.5625 106.363L42.4219 106.246L40.3008 104.617L37.9688 104.195L35.3672 104.676L32.8125 105.461L30.4102 106.938L30.3516 106.973L30.2812 107.008L27.6328 108.297L27 107.008L25.6875 107.723L25.6523 107.664L24.9023 106.293L26.3203 105.602L28.8984 104.348L31.3945 102.801L31.5586 102.707L31.7344 102.648L34.582 101.77L34.6641 101.734L34.7578 101.723L37.6875 101.184L37.957 101.137L38.2266 101.184L41.2031 101.734L41.5664 101.793L41.8594 102.016L44.1445 103.797L46.5117 104.852L49.0078 105.133L51.4336 104.512L53.7539 102.988L53.7422 102.977L56.1797 101.301L56.4258 101.137L56.7188 101.066L59.6602 100.445L59.9648 100.375L60.2812 100.445ZM103.906 19.4961L105.383 19.7305L106.027 19.8359L106.391 20.3867L107.797 22.5195L109.379 24.6406L109.391 24.6641L110.938 26.8086L110.996 26.8789L111.043 26.9609L112.262 29.1992L111.969 29.3516L110.996 29.9961L110.957 30.0205L111.43 30.1562L112.438 30.4492L112.508 31.4922L112.695 34.1406V34.3047L112.566 36.8711L112.59 39.5078V39.5312L112.555 42.1797V42.2852L112.332 44.7812L112.613 47.2773L112.625 47.3594V47.4531L112.613 50.0898V50.1367L112.602 50.1836L112.426 52.8203L112.309 55.4336L112.485 57.665L112.762 57.7773L112.691 58.8672L112.516 61.5039L112.492 64.0586V64.1055L112.375 66.7422L112.48 69.2617L112.703 71.8281L112.715 71.9102V71.9805L112.668 74.6289L112.656 77.2539V77.2773L112.598 79.9141L112.645 82.4922L112.656 82.6094L112.633 82.7266L112.281 85.2109L112.434 87.6484L112.703 90.2852L112.727 90.4492L112.703 90.6133L112.41 93.1562L112.574 95.6289L112.586 95.8164L112.551 96.0039L112.117 98.2305L111.906 99.3086L110.816 99.4375L108.168 99.7422L107.945 99.7656L107.723 99.7188L105.273 99.2617L102.824 99.4258H102.73L100.105 99.4492L97.4688 99.4961L97.4805 99.5078L94.8438 99.5898H94.8086L92.1719 99.6016H92.0664L91.9727 99.5898L89.3242 99.25L89.0781 99.2148L88.8555 99.0977L87.0742 98.2305L86.1016 97.75L86.2539 96.6836L86.6055 94.0352L86.7109 91.7148L86.2773 89.207L86.2656 89.0898V88.9727L86.2451 86.6973L85.7617 85.1797L84.9648 82.8477L83.6289 80.7383L83.582 80.668L83.5469 80.5859L82.3867 78.2188V78.207L81.1328 76.0859L79.7852 73.9648L78.168 71.8789V71.8672L76.5156 69.875L76.4805 69.8398L74.9336 67.8711L73.0234 66.3008L73 66.2773L71.0664 64.6133L69.0273 63.0664L66.8711 61.7305L64.6445 60.4297L62.5234 59.6094L60.2031 59.4688L57.8477 59.7383L55.5742 60.2539L53.5703 61.5898L53.4883 61.6367L53.3945 61.6836L51.1562 62.75L49.1992 64.2148L47.4883 65.9961L47.5 66.0078L45.707 67.9297L45.7188 67.9414L43.9492 69.8867L43.8789 69.957L42.0977 71.668L40.7031 73.7539L39.2383 75.9453L39.2266 75.9688L37.7969 78.0312L36.4844 80.3281V80.3398L35.2188 82.5078L34.626 84.0352L34.6328 84.0508L34.5859 84.4375L34.2461 86.8281L34.7148 89.2422L34.7617 89.4766L34.7266 89.7109L34.3984 92.2422L34.4102 94.7969L34.4805 97.3984L34.5156 98.5586L33.4023 98.875L31.3398 99.4844L31.1406 99.543H30.9414L28.293 99.5781L28.2812 99.5664L25.7383 99.7422L25.5508 99.7539L22.9258 99.2617L20.5352 99.543L20.4062 99.5664L20.2891 99.5547L17.7227 99.4258L15.168 99.5781L15.0391 99.5898L14.9102 99.5781L12.3672 99.2852L9.95312 99.2969L8.52344 99.3086L8.44141 97.8906L8.28906 95.2539L8.27734 95.1016L8.30078 94.9492L8.65234 92.418L8.59375 89.9102V89.8516L8.65234 87.2031L8.66406 84.5898V84.5781L8.71094 81.9297L8.48828 79.457L8.47656 79.4102V79.375L8.38281 76.7383V76.6211L8.48828 73.9844L8.51172 71.3828V71.3359L8.52344 71.3008L8.69922 68.7227L8.57031 66.1914V66.1094L8.58203 63.4727H8.59375L8.55859 60.9648L8.33594 58.3281L8.20703 56.7461L9.78906 56.6992L10.585 56.6768L10.582 56.5352L10.5703 53.8867V53.8047L10.6992 51.2734L10.5234 48.707L10.5117 48.6602V48.6133L10.4883 46.0234L10.3828 43.3867L10.3242 42.0273L10.9551 41.9395L10.8984 41.8359L11.0742 41.2266L11.8477 38.707L12.3984 36.2227L12.6211 35.2617L13.5938 35.0742L15.9492 34.6523L16.0781 34.6289L16.2188 34.6172L18.8555 34.6055V34.6172L21.3984 34.4414H21.4219L21.4336 34.4297L24.0703 34.3125L24.1641 34.3008L24.2578 34.3125L26.8008 34.5L26.7891 34.5938L27 35.9414L28.1367 35.6133L28.6758 37.5234L29.4609 40.043V40.0547L30.2227 42.5859L30.377 43.1025L30.7734 43.3398L30.7158 44.2363L30.7969 44.5078H30.6992L30.5625 46.8906L30.5508 46.9258V46.9609L30.293 49.4805L30.5742 51.9062L30.5859 52.0352L30.5742 52.1758L30.4219 54.7422L30.4756 55.8018L32.6289 55.5195L35.1719 54.9336L35.3008 54.8984L35.4414 54.8867L37.9258 54.7578L40.3516 54.1133L40.3867 54.1016H40.4219L43.0117 53.5508L43.1641 53.5156H43.3164L45.8828 53.4922L48.3555 53.0938H48.3906L48.4258 53.082L51.0391 52.8008V52.7891L53.6523 52.4727H53.6641L53.6758 52.4609L56.2422 52.2031L58.7617 51.6758L58.8672 51.6406H58.9844L61.6211 51.5117L61.7734 51.5L61.9258 51.5352L64.4805 51.9453L67.1055 52.2852H67.1523L67.1992 52.2969L69.7188 52.8008L72.2734 53.0234H72.3203L72.3555 53.0352L74.9688 53.4102H74.957L77.5 53.75L80.1133 53.9258H80.2656L80.418 53.9727L82.8672 54.6406L85.3633 55.0391L87.9766 55.3203H88.0117L89.4336 55.5039L89.5586 54.0273L89.5938 51.5312H89.582L89.5703 48.8945V48.5898L89.6875 48.3086L90.0361 47.4414L89.7344 47.2969L90.8359 44.9883L90.8828 44.8945L90.9414 44.8008L92.4062 42.6094L92.5586 42.375L92.793 42.2109L94.6562 40.8867L95.043 40.6055H95.5352L96.626 40.6104L96.3594 38.7227L96.3477 38.6055V38.4883L96.4062 35.8516L96.3477 33.2734V33.0859L96.3828 32.9102L96.9336 30.4961L97.1846 29.4238L96.9219 29.2695L98.2578 26.9844L98.2695 26.9492L98.293 26.9258L99.7461 24.7227L101.141 22.5195L102.348 20.2695L102.852 19.3203L103.906 19.4961ZM60.207 92.1523L63.1602 92.7031H63.1836L66.1133 93.2891L66.3008 93.3242L66.4766 93.4062L69.1836 94.6953L69.3242 94.7656L69.4414 94.8477L71.8555 96.6641L72.207 96.9336L72.3594 97.3555L72.418 97.4961L71 98L70.8008 98.0703L70.0508 99.0547L67.7539 97.3438L65.3398 96.1953L62.5977 95.6445H62.6094L59.8906 95.1406L57.2539 95.4102L54.6875 96.3125L52.2852 97.6367L49.7891 99.3008L49.6367 99.3594L49.543 99.3945L49.0039 98L48.8516 97.6016L48.2539 96.7227L50.6562 95.1172L50.7148 95.082L50.7617 95.0469L53.375 93.6055L53.4805 93.5469L53.5977 93.5L56.4336 92.5039L56.6094 92.4453L56.7852 92.4336L59.7852 92.1289L59.9961 92.1055L60.207 92.1523ZM59.2188 54.6289L56.7695 55.1445L56.6289 55.168L54.0156 55.4375L51.4023 55.7656H51.3789L48.7656 56.0703L46.2227 56.4805L46.1172 56.4922H46L43.4688 56.5039L41.1133 57.0078L38.5586 57.6992L38.4062 57.7461H38.2422L35.7461 57.875L33.2852 58.4492L33.2148 58.4727L33.1328 58.4844L30.6133 58.8008L30.4297 58.8613L30.375 59.5H29.0156L28.3848 59.5459L26.8984 60.0312L26.8252 59.6611L26.4727 59.6875L26.3789 59.6992L26.2852 59.6875L23.6484 59.5703L23.625 59.5586L21.0703 59.3828V59.3945L18.5508 59.3828L18.4443 59.3877L15.9609 59.6641L15.8203 59.6758L15.668 59.6641L14.9736 59.6055H12.4727L12.4844 59.6172L11.4531 59.6406L11.5469 60.707L11.5586 60.7656V60.8242L11.582 63.4609V63.4844L11.5703 66.1328L11.6875 68.6875L11.6992 68.7812L11.6875 68.8633L11.5117 71.5L11.4883 74.0547V74.1016L11.3828 76.7383L11.4766 79.1875L11.7109 81.8242V81.9883L11.6641 84.625L11.6523 87.25V87.2734L11.5938 89.9102L11.6523 92.4883V92.6055L11.6406 92.7227L11.2773 95.2188L11.3477 96.2852H12.5195L12.6133 96.2969L15.1562 96.5781L17.6289 96.4258H17.793L20.3242 96.543L22.832 96.2617L23.0547 96.2383L23.2773 96.2734L25.7148 96.7305L28.1758 96.5781H28.2695L30.6836 96.543L31.4453 96.3203L31.4102 94.8438V94.8086L31.3984 92.1719V92.0664L31.7148 89.5352L31.2695 87.1562L31.2227 86.9219L31.2461 86.6758L31.4756 85.0068L31.1758 84.6523L31.4922 83.8203L32.4531 81.3477L32.5 81.2305L32.5586 81.1367L35.1836 76.543L35.2188 76.4961L35.2539 76.4375L36.7539 74.2578L38.207 72.0898L39.6836 69.8867L39.7773 69.7578L39.8945 69.6406L41.7461 67.8477L43.4922 65.9258L43.5039 65.9141L45.2969 63.9805L45.3203 63.957L47.1484 62.0352L47.2305 61.9531L47.3359 61.8828L49.4453 60.2773L49.5742 60.1953L49.7031 60.125L52.0352 59L54.1562 57.6055L54.3789 57.4648L54.6484 57.3945L57.25 56.8086L57.3203 56.7969L57.4023 56.7852L60.0273 56.4805L60.1562 56.457L60.2969 56.4688L62.957 56.6445L63.1914 56.6562L63.4023 56.7383L65.8867 57.7109L66.0039 57.7578L66.0977 57.8164L68.3945 59.1523L68.418 59.1641L70.6562 60.5469L70.7266 60.582L70.7852 60.6289L72.8828 62.2227L72.918 62.2461L72.9531 62.2812L74.9336 63.9805L76.9844 65.668L77.1133 65.7734L77.2188 65.9023L78.8242 67.9648L80.5117 70.0039L80.5234 70.0156L80.5352 70.0391L82.1641 72.125L82.2344 72.2422L83.6641 74.4688L83.6875 74.5156L85.0352 76.7891L85.0586 76.8477L85.0938 76.8945L86.1953 79.168L87.5898 81.3711L87.6836 81.5234L87.7422 81.6992L88.6094 84.207V84.2422L89.3828 86.6562L89.2432 86.6982L89.2539 88.8438L89.6875 91.3516L89.7109 91.5039L89.6992 91.668L89.5938 94.3047V94.375L89.582 94.4453L89.3594 96.0039L89.957 96.2969L92.2422 96.5898H94.7617L97.3984 96.5195H97.4102L100.047 96.4609H100.059L102.625 96.4258L105.262 96.25L105.449 96.2383L105.637 96.2734L108.027 96.7305L109.375 96.5664L109.562 95.6406L109.422 93.168L109.41 93.0391L109.422 92.9102L109.703 90.4258L109.445 87.9531V87.8945L109.281 85.2461V85.1055L109.293 84.9531L109.633 82.4805L109.598 79.9141V79.8438L109.656 77.207L109.668 74.5938V74.5703L109.715 72.0977L109.48 69.4492V69.3789L109.387 66.7305L109.375 66.6719L109.387 66.6133L109.492 63.9766L109.516 61.3867V61.293L109.621 59.7461L108.824 59.418H106.469V59.4062L103.961 59.4297L101.324 59.6641L101.184 59.6758L101.031 59.6641L100.934 59.6523L100.469 59.6875L100.387 59.6992L100.293 59.6875L97.6445 59.5703L97.6328 59.5586H97.6211L95.5 59.4111L93.3789 59.5586H93.3672L93.3555 59.5703L90.707 59.6875L90.6133 59.6992L90.5312 59.6875L87.9883 59.5L88 59.3242V58.3438L87.625 58.2969V58.2852L85.0352 58.0273L84.9883 58.0156H84.9531L82.3398 57.5938L82.2695 57.582L82.1875 57.5703L79.7383 56.9023L77.2773 56.7383H77.1719L74.5586 56.3867H74.5469L74.5352 56.375L71.9805 56L69.3789 55.7773H69.2969L69.2148 55.7539L66.7188 55.25V55.2617L64.0938 54.9102H64.0586L61.6328 54.5117L59.2188 54.6289ZM13.4297 44.6289L13.4883 45.8945V45.9414L13.5117 48.4961L13.6875 51.1328L13.6992 51.2266L13.6875 51.3086L13.5703 53.875V56.0078L13.957 56.5117L15.0605 56.6055H15.0742V56.6064L15.1426 56.6123L17.6172 56.4414H17.6289L17.6523 56.4297L17.9971 56.4141L18.2812 56.3828L18.3633 56.3711L18.4453 56.3828L18.6826 56.3838L20.2891 56.3125L20.3828 56.3008L20.4766 56.3125L23.0195 56.5L23.0176 56.5166L23.8242 56.5703L23.8125 56.582L26.3203 56.6992L27.5156 56.6055L27.4219 54.8008V54.625L27.5742 52.0938L27.293 49.6094L27.2695 49.4453L27.293 49.2812L27.5625 46.7266V46.7148L27.6562 44.9805L27.0938 44.6523L24.8789 44.6055L22.2773 44.6523H22.2539L19.6172 44.6641H19.6289L16.9805 44.7109H16.8281L14.3438 44.5L13.4297 44.6289ZM99.5938 32.3242L99.3477 33.4141L99.4062 35.8516V35.9102L99.3477 38.4297L99.6289 40.4473L100.633 40.3359L100.926 40.3125L101.219 40.3945L103.352 41.0039L104.453 41.3203L104.441 42.457L104.406 45.082L104.418 45.0703V47.543L104.453 47.625L104.418 47.6367L104.43 47.7188H104.09L102.968 48.0078L102.953 48.4961L102.273 48.4844H102.262L99.6836 48.3906L97.1055 48.4844H97.0586L94.4102 48.5195H94.3984L92.793 48.6367L92.5703 49.1875L92.582 51.5078V51.5312L92.5586 54.1797V54.2383L92.5469 54.2852L92.3945 56.043L92.5752 56.1689L93.2617 56.3516H93.25L93.2969 56.3633L93.2881 56.3945H95.1836L95.5 56.415L95.8164 56.3945H95.9102L98.5469 56.3828L98.6406 56.3711L98.7227 56.3828L101.03 56.6416L102.789 56.5H103V56.5137L103.715 56.4531L103.762 56.4414H103.82L106.469 56.418H106.492L109.129 56.4297H109.383L109.309 55.4688V55.293L109.438 52.6445V52.6211L109.613 49.9844V47.5L109.344 44.9688L109.32 44.8164L109.332 44.6758L109.555 42.1562V42.1445L109.59 39.5078L109.566 36.8945V36.8477L109.578 36.8125L109.695 34.3047L109.578 32.7578L108.781 32.5234L106.379 32.6172H106.262L103.625 32.5234H103.59L103.543 32.5117L101.035 32.3008L99.5938 32.3242ZM96.9141 50H99V50.2344L98.9766 50.3633L98.8125 51.2539L98.918 52.1445L99.0469 52.5781L99.6094 54.5H97.5V53.0352L96.1758 53.4219L95.9883 52.8242L95.9531 52.6953L95.9414 52.5547L95.8125 51.3594L95.7891 51.1484L95.8242 50.9375L96.0234 49.8359L96.9141 50ZM16.9141 49H19V49.2344L18.9766 49.3633L18.8125 50.2539L18.918 51.1445L19.0469 51.5781L19.6094 53.5H17.5V52.0352L16.1758 52.4219L15.9883 51.8242L15.9531 51.6953L15.9414 51.5547L15.8125 50.3594L15.7891 50.1484L15.8242 49.9375L16.0234 48.8359L16.9141 49ZM21.9141 49H24V49.2344L23.9766 49.3633L23.8125 50.2539L23.918 51.1445L24.0469 51.5781L24.6094 53.5H22.5V52.0352L21.1758 52.4219L20.9883 51.8242L20.9531 51.6953L20.9414 51.5547L20.8125 50.3594L20.7891 50.1484L20.8242 49.9375L21.0234 48.8359L21.9141 49ZM98.3242 43.6172L98.2422 43.6289L98.1602 43.6172H96.0039L94.7383 44.5078L94.0547 45.5352L94.293 45.5195H94.3867L96.9766 45.4961V45.4844L99.6133 45.3789H99.7305L101.419 45.4453L101.418 45.0938V45.0703L101.43 43.582L100.668 43.3594L98.3242 43.6172ZM21.5859 37.418L21.5977 37.4297L18.9609 37.6055H16.3594L15.1055 37.8398L14.7422 39.4688L14.7305 39.5273L14.7188 39.5742L14.1562 41.3789L15.7852 41.3086H15.9492L18.5977 41.4844H18.5859L21.1406 41.5078H21.1875L23.7773 41.6133L26.3555 41.5195H26.7656L26.5898 40.9219L25.8164 38.4023L25.8047 38.3906V38.3789L25.5234 37.418L24.0938 37.3008L21.5859 37.418ZM103.914 36H106V36.2344L105.977 36.3633L105.812 37.2539L105.918 38.1445L106.047 38.5781L106.609 40.5H104.5V39.0352L103.176 39.4219L102.988 38.8242L102.953 38.6953L102.941 38.5547L102.812 37.3594L102.789 37.1484L102.824 36.9375L103.023 35.8359L103.914 36ZM103.742 24.0195L103.707 24.0664L103.684 24.1133L102.266 26.3398V26.3516L102.254 26.3633L100.836 28.4961L100.369 29.2998L101.012 29.2891H101.176L103.801 29.5352L106.309 29.6172L108.898 29.5117L109.007 29.5059L108.406 28.4023H108.395L106.977 26.4336L105.359 24.2773L105.336 24.2422L104.387 22.8008L103.742 24.0195Z" fill="black"/>
</svg>
