<svg xmlns="http://www.w3.org/2000/svg" width="120" height="120" fill="none" viewBox="0 0 120 120"><path fill="#000" d="m8.1 116 .114-1.496-.057-.004H8.1zm2.54.193-.114 1.496.093.007.093-.004zm2.64-.126.072 1.498.014-.001.014-.001zm2.64-.176-.008-1.5h-.046l-.046.003zm2.64-.014.165-1.491-.086-.009h-.087zm2.64.292-.165 1.491.147.016.146-.013zm2.64-.227-.017-1.5-.056.001-.055.005zm2.64-.03.01-1.5h-.027zm2.64.017-.01 1.5h.04l.04-.002zm2.64-.123.102-1.497-.086-.006-.086.004zm2.64.18-.102 1.496.044.003.044.001zm2.64.025.061-1.499-.023-.001h-.024zm2.64.108-.061 1.499.058.002.06-.002zm2.64-.099.056 1.499.038-.001.038-.004zm2.64-.233.025-1.5-.079-.001-.078.007zm2.64.044-.025 1.499.008.001h.008zm2.64.016.033-1.5h-.024zm2.64.058-.033 1.5h.064zm2.64-.055.207-1.486-.119-.016-.12.002zm2.64.367-.207 1.486.147.021.149-.009zm2.64-.156.089 1.497.034-.002.034-.003zm2.64-.277.169-1.491-.163-.018-.163.017zm2.64.299-.169 1.49.13.015.13-.008zm2.64-.16.076-1.498-.083-.004-.083.005zm2.64.135-.076 1.498.125.007.124-.015zm2.64-.307.278-1.474-.225-.043-.227.027zm2.64.497-.278 1.474.187.035.19-.012zm2.64-.175-.016-1.5h-.042l-.041.003zm2.64-.029.016 1.5h.017zm2.64-.058.033 1.5h.009zm2.64-.073-.006-1.5h-.036zm2.64-.012.192-1.487-.099-.013h-.1zm2.64.342-.192 1.487.238.031.236-.045zm2.64-.506.2-1.486-.242-.033-.24.046zm2.64.357-.2 1.486.068.01.07.002zm2.64.11-.063 1.499.157.006.155-.026zm2.64-.444-.011-1.5-.12.001-.118.02zm2.64-.019.289-1.472-.149-.029-.151.001zm2.64.518-.289 1.472.219.043.222-.023zm2.64-.269.015-1.5-.084-.001-.083.008zM8 116v1.5h.1v-3H8zm.1 0-.114 1.496 2.54.193.114-1.496.114-1.495-2.54-.194zm2.54.193.072 1.499 2.64-.127-.072-1.498-.072-1.499-2.64.127zm2.64-.126.1 1.496 2.64-.176-.1-1.496-.1-1.497-2.64.176zm2.64-.176.008 1.5 2.64-.014-.008-1.5-.008-1.5-2.64.014zm2.64-.014-.165 1.491 2.64.292.165-1.491.165-1.491-2.64-.292zm2.64.292.128 1.494 2.64-.226-.128-1.495-.128-1.494-2.64.226zm2.64-.227.017 1.5 2.64-.03-.017-1.5-.017-1.5-2.64.03zm2.64-.03-.01 1.5 2.64.017.01-1.5.01-1.5-2.64-.017zm2.64.017.07 1.498 2.64-.123-.07-1.498-.07-1.499-2.64.123zm2.64-.123-.102 1.496 2.64.18.102-1.496.102-1.497-2.64-.18zm2.64.18-.014 1.5 2.64.025.014-1.5.014-1.5-2.64-.025zm2.64.025-.061 1.499 2.64.108.061-1.499.061-1.499-2.64-.108zm2.64.108.056 1.499 2.64-.099-.056-1.499-.056-1.499-2.64.099zm2.64-.099.132 1.494 2.64-.233-.132-1.494-.132-1.494-2.64.233zm2.64-.233-.025 1.5 2.64.043.025-1.499.025-1.5-2.64-.044zm2.64.044-.01 1.5 2.64.016.01-1.5.01-1.5-2.64-.016zm2.64.016-.033 1.5 2.64.058.033-1.5.033-1.5-2.64-.058zm2.64.058.031 1.5 2.64-.055-.031-1.5-.031-1.5-2.64.055zm2.64-.055-.207 1.486 2.64.367.207-1.486.207-1.485-2.64-.368zm2.64.367.089 1.498 2.64-.157-.089-1.497-.089-1.497-2.64.156zm2.64-.156.157 1.492 2.64-.278-.157-1.491-.157-1.492-2.64.277zm2.64-.277-.169 1.49 2.64.299.169-1.49.169-1.491-2.64-.299zm2.64.299.09 1.497 2.64-.159-.09-1.498-.09-1.497-2.64.159zm2.64-.16-.076 1.498 2.64.135.076-1.498.076-1.498-2.64-.135zm2.64.135.174 1.49 2.64-.307-.174-1.49-.174-1.49-2.64.307zm2.64-.307-.278 1.474 2.64.497.278-1.474.278-1.474-2.64-.497zm2.64.497.1 1.497 2.64-.175-.1-1.497-.1-1.497-2.64.175zm2.64-.175.016 1.5 2.64-.029-.016-1.5-.016-1.5-2.64.029zm2.64-.029.033 1.5 2.64-.058-.033-1.5-.033-1.499-2.64.058zm2.64-.058.042 1.5 2.64-.074-.042-1.499-.042-1.5-2.64.074zm2.64-.073.006 1.5 2.64-.012-.006-1.5-.006-1.5-2.64.012zm2.64-.012-.192 1.488 2.64.341.192-1.487.192-1.488-2.64-.341zm2.64.342.282 1.473 2.64-.505-.282-1.474-.282-1.473-2.64.506zm2.64-.506-.2 1.487 2.64.356.2-1.486.2-1.487-2.64-.356zm2.64.357-.063 1.498 2.64.111.063-1.499.063-1.498-2.64-.111zm2.64.11.249 1.479 2.64-.444-.249-1.479-.249-1.479-2.64.444zm2.64-.444.011 1.5 2.64-.019-.011-1.5-.011-1.5-2.64.019zm2.64-.019-.289 1.472 2.64.518.289-1.472.289-1.472-2.64-.518zm2.64.518.152 1.492 2.64-.269-.152-1.492-.152-1.493-2.64.27zm2.64-.269-.015 1.5 1.04.01.015-1.5.015-1.5-1.04-.01z"/><path fill="#000" d="m59.613 54.887 2.637.035h.059l.07.012 2.625.257h-.012l2.52.036h.058l.07.011 2.626.246h.011l2.625.282h-.011l2.59.152.163.012.165.047 2.449.714 2.496.504h.012l2.613.434.281.047.246.152 2.063 1.254.82.492-.105.95-.282 2.59-1.394-.165-.012.047-.104.169 1.26.233.094.012.082.024 2.543.797.164.058.153.082 1.605.973 1.219.726-.54.996-.163 2.168.117 2.614.176 2.636.011.047v.047l.008 1.918.242-.105.106-.047.105-.024 1.43-.391v-.868l1.594.106.468.035.457.035.364.282 2.086 1.617.093.082.082.082 1.7 1.828 2.015 1.43 2.227 1.277.211.117.164.188 1.652 1.84 2.063 1.206.691.399.047.809.164 2.648.012.07-.012.059-.07 2.648-.059 2.625-.023 2.625v.047l-.012.035-.152 2.438.457 2.473.047.222-.036.223-.293 2.484.129 2.543.012.082-.012.082-.152 2.543.293 2.485.012.164-.012.164-.281 2.636-.129 1.196-1.184.14-2.086.235v.011l-2.636.364-.118.011h-.117l-2.601-.046-2.614.046h-.011l-.024.012-2.637.012-1.254.012-.056-.312-1.49.035h-.106l-2.285-.105-.634-.031-.19.011-2.578.141-2.625.281-.164.024-.164-.024-2.555-.293-2.473.164h-.164l-2.543-.129-2.484.293-.223.024-.234-.035-2.45-.469-2.449.164h-.082l-2.636.035-1.11.01-.133.123h-.597l-1.162-.016-1.159.129-.164.024-.164-.024-2.625-.281-.508-.028-1.953.219-1.148.129-.188-.477-.265.016-2.578.141-2.625.281-.164.024-.164-.024-2.555-.293-2.473.164h-.164l-2.543-.129-2.484.293-.223.024-.234-.035-2.45-.469-2.449.164h-.082l-2.636.035-1.254.012-.026-.133-1.521.07h-.106l-1.49-.035-.056.312-1.254-.012-2.637-.012-.024-.012h-.011l-2.614-.046-2.601.046h-.117l-.117-.011-2.637-.364v-.011l-2.086-.235-1.184-.14-.129-1.196-.28-2.636-.013-.164.012-.164.293-2.485-.152-2.543-.012-.082.012-.082.129-2.543-.293-2.484-.036-.223.047-.222.457-2.473-.152-2.438-.012-.035v-.047l-.023-2.625-.059-2.625-.07-2.648-.012-.059.012-.07.164-2.648.047-.809.691-.398 2.063-1.207 1.652-1.84.164-.188.211-.117 2.227-1.277 2.015-1.43 1.7-1.828.082-.082.093-.082 2.086-1.617.364-.282.457-.035.468-.035 1.594-.106v.868l1.43.391.105.024.106.047.537.236-.373-2.201-.024-.117v-.118l-.047-2.636v-.106l.012-.105.34-2.59.234-2.531.082-.926.88-.34 2.472-.95 2.473-.937.117-.047.14-.023.61-.113-1.043-.278.164-.597-.117-2.367-.047-1.149 1.09-.352 2.52-.796.163-.059.176-.012 2.508-.222 2.531-.54h.047l.059-.011 2.601-.375h.012l.012-.012 2.613-.34h.059l2.507-.246 2.614-.433.058-.012h.059l2.625-.234.082-.012h.082zM38.121 65.46l-2.45.457-2.355.902v-.011l-1.605.609-.14 1.605v.059l-.34 2.543.035 2.414.433 2.52.024.14v.13l-.024 2.636v.094l-.012.093-.294 2.188-.002.483.297 2.204.023.164-.012.165-.098 1.177.063.565.012.14-.012.153-.103 1.21.185 1.758.024.223-.036.223-.327 1.625v.105h.011l.012 2.637v.082l-.057 1.107.314 1.826.024.153-.012.152-.105 2.649v.07l-.012.059-.082.57.012 1.195.1 2.532.099.507.047.235-.024.234-.198 1.535-.013.36v.035l-.011.035-.104 1.147.01 1.974h-.012l.07 2.508.165.797 1.394-.012 2.555-.164.2-.012.187.035 2.414.446 2.414-.27.117-.023.129.011 2.543.117 2.566-.14.13-.012.128.012 2.484.281 2.473-.258h.07l1.852-.117.052-.085.003-.091.058-2.578-.058-2.636v-.024l-.024-2.625-.035-2.637-.012-.082.012-.07.198-2.294-.007-.085v-.082l-.105-2.637v-.117l.105-2.637.018-1.37-.01-1.208-.187-2.543v-.175l.129-2.555-.024-2.637v-.035l.035-2.637v-.105l.05-.553-.163-1.838-.012-.14.024-.153.146-1.384-.103-.924-.012-.082v-.094l.012-2.637v-.047l.011-.047.101-1.511-.062-.926v-.024l-.128-2.648v-.187l.129-1.77-.645-.387-2.332-.726-2.45-.434v-.012l-2.46-.421-2.602-.258v-.012l-2.426-.152zm35 0-2.45.457-2.355.902v-.011l-1.605.609-.14 1.605v.059l-.203 1.509.132 1.655.012.14-.012.141-.186 1.794.385 2.238.024.14v.13l-.005.457.016.081.024.14v.153l-.024 2.649v.117l-.011.117L66.4 82.4l.287 2.126.024.164-.012.165-.143 1.726.19 1.426.035.246-.047.246-.086.436.098.923.023.223-.035.223-.33 1.645.178 1.355.012.093v.106l-.012 2.637v.035l-.021.777.126.734.024.153-.012.152-.105 2.649v.07l-.012.059-.132.921-.02 2.383v.035l-.002.007.283 1.458.047.235-.024.234-.234 1.813.223 1.199.046.222-.035.235-.136 1.152.09 1.336.011.094-.011.082-.092 2.044.045.214 1.394-.012 2.555-.164.2-.012.187.035 2.414.446 2.414-.27.117-.023.129.011 2.543.117 2.566-.14.13-.012.128.012 2.484.281 2.473-.258h.07l1.852-.117.34-.551-.047-2.203v-.058l.042-1.9-.144-1.608-.011-.035v-.035l-.094-2.637v-.117l.105-2.649.011-1.244-.015-.17v-.082l-.105-2.637v-.117l.105-2.637.035-2.601v-.082l.072-1.124-.032-2.314-.223-2.636-.012-.153.012-.14.243-2.195-.024-1.88v-.011l-.223-2.52-.012-.14.024-.153.182-1.716-.003-.127.017-.008.073-.68v-2.484l-.175-2.637v-.024l-.13-2.648v-.187l.13-1.77-.645-.387-2.332-.726-2.45-.434v-.012l-2.46-.421-2.602-.258v-.012l-2.426-.152zM21.727 81.308l-.106.117-.129.082-2.156 1.523-.059.047-.058.035-2.098 1.196-1.617 1.828-.164.187-.211.117-1.617.926-.106 1.864.082 2.507.059 2.649v.011l.023 2.555.176 2.637.012.2-.035.187-.457 2.414.28 2.414.013.117v.129l-.141 2.543.164 2.566v.129l-.012.129-.28 2.484.14 1.278.914.117h.035l2.531.34 2.508-.035h.07l2.637.058h1.36l.011-.061v-.286l.054.001.145-.755-.21-2.438v-.082l-.106-2.637v-.117l.105-2.637.035-2.589v-.094l.176-2.602-.117-2.507-.012-.036v-.047l.024-2.613-.035-2.637v-.011l-.223-2.52-.012-.14.024-.153.27-2.531v-2.484l-.177-2.637v-.024l-.128-2.437zm74.836.714v.024l-.176 2.637v2.484l.27 2.531.023.153-.012.14-.223 2.52v.011l-.035 2.637.024 2.613v.047l-.012.035-.117 2.508.175 2.602v.094l.036 2.589.105 2.637v.117l-.105 2.637v.082l-.211 2.438.144.755.055-.001v.286l.012.061h1.359l2.637-.058h.07l2.508.035 2.531-.34h.035l.914-.117.141-1.278-.281-2.484-.012-.129v-.129l.164-2.566-.141-2.543v-.129l.012-.117.281-2.414-.457-2.414-.035-.188.012-.2.176-2.636.023-2.555v-.011l.059-2.649.082-2.507-.106-1.864-1.617-.926-.211-.117-.164-.187-1.617-1.828-2.098-1.196-.058-.035-.059-.047-2.156-1.523-.13-.082-.105-.117-1.582-1.723zm-39.902 25.37-.006.721.036.559v.176l-.075 1.536-.026 1.19.058 2.578.002.091.053.085 1.02.065.445-.049.152-.024.14.012 2.532.223 1.287.014.787-.089.443-.432-.02-.107v-.129l-.071-2.636v-.035l-.012-2.637v-.106l.012-.093.045-.348-.013-.063-.677-.218-2.46-.153-2.579-.175zM26.31 79.233l.117 2.614.176 2.636.011.047v.047l.012 2.637v.094l-.012.082-.281 2.496.223 2.496v.105l.035 2.649v.023l-.024 2.637.13 2.566v.164l-.188 2.543.012.012-.036 2.637v.047l-.105 2.648.105 2.52.223 2.566.023.199-.046.211-.09.468.933.018.82-.036-.011-1.171-.047-2.637v-.164l.12-1.346-.003-.537v-.106l.012-.093.118-.903.081-2.101-.351-1.801-.047-.246.035-.246.244-1.835-.01-1.111-.175-2.636-.012-.094.012-.082.053-1.189-.089-.518-.011-.117v-.117l-.024-2.649v-.152l.024-.14.156-.803.02-2.178v-.059l.011-.059.103-1.204-.056-.538-.012-.14.012-.14.089-1.121-.206-1.837-.012-.094.012-.082.007-1.594-.03-.218-.024-.211.023-.2.035-.251v-.198l.047-1.652-1.359-.598-.754-.204zm66.609-.042-1.36.598.047 1.652v.036l.012 2.636.012.082-.012.094-.035.307.008.529v.035l-.024 2.637.13 2.555v.175l-.115 1.537-.01 2.631.117 2.555.011.082-.011.094-.176 2.636-.011 1.073.206 2.365.012.07-.012.082-.035 2.637-.024 2.625v.024l-.013.596.076.853v.164l-.047 2.637-.012 1.124.001.047.82.036.931-.018-.088-.468-.047-.211.024-.199.223-2.566.105-2.52-.105-2.648v-.047l-.035-2.637.011-.012-.187-2.543v-.164l.129-2.566-.024-2.637v-.023l.035-2.649v-.105l.223-2.496-.281-2.496-.012-.082v-.094l.012-2.637v-.047l.011-.047.176-2.636.117-2.614-.02-.246zM56.586 67.77l.105 1.418v.188l-.129 2.648v.024l-.062.926.102 1.511.011.047v.047l.012 2.637v.094l-.012.082-.104.924.147 1.384.024.153-.012.14-.163 1.838.05.553v.105l.035 2.637v.035l-.024 2.637.13 2.555v.175l-.188 2.543-.01 1.208.018 1.37.105 2.637v.117l-.105 2.637v.082l-.008.085.199 2.294.012.07-.012.082-.01.74 1.014-.044h.164l2.648.187v.012l2.625.152.188.012.042.014.032-.483-.144-.742-.047-.246.035-.246.197-1.487.002-.119v-.023l.059-2.637v-.011l.048-1.55-.283-1.638-.011-.117v-.117l-.024-2.649v-.152l.024-.14.102-.528-.102-.797-.024-.234.047-.235.343-1.768-.132-1.279-.012-.14.012-.14.045-.578-.127-.9-.012-.058v-.07l-.105-2.649-.012-.152.023-.153.056-.324-.009-.062-.023-.211.023-.2.352-2.566.008-1.761-.453-2.258-.035-.223.023-.223.046-.438-.023-.112v-.118l-.047-2.636v-.106l.012-.105.111-.85-.052-.638-.012-.165.023-.164.165-1.23-.868-.176-2.496-.058h-.082l-.082-.012-2.472-.352zm-2.047-9.707-2.59.434-.117.023-2.578.223.012.012-2.602.328.012.012-2.52.351.012.012-2.578.563-.188.023-2.52.2-1.241.41.07 1.464.012.235-.038.145 2.499-.47.175-.035.2.012 2.636.187h.047l2.614.27h.058l.047.012 2.578.445h.012l2.601.48.094.012.082.024 2.543.797.164.058.153.082.86.522 2.335-.194.164-.011.164.023 2.602.363 2.519.059.117.011.117.024.83.16.002-.031.88-.34 2.472-.95 2.473-.937.117-.047.14-.023 2.59-.48 2.614-.493.175-.035.2.012 2.636.187h.047l2.614.27h.058l.047.012 2.452.422.013-.11.176-1.64-.996-.598-2.333-.387-.023-.012h-.023l-2.579-.515-.07-.012-.059-.023-2.39-.692-2.485-.152h-.058l-2.625-.281v-.012l-2.496-.234-2.637-.036h-.059l-.07-.011-2.52-.27-2.613-.023h-.011l-2.52-.047z"/></svg>