<svg width="120" height="120" viewBox="0 0 120 120" fill="none" xmlns="http://www.w3.org/2000/svg">
<path d="M36.5918 29.6377L39.6152 29.8369L39.9668 29.8604L40.2715 30.0361L42.8965 31.5596L42.9316 31.583L42.9551 31.5947L45.4395 33.2119L45.627 33.3408L45.7676 33.5049L47.6777 35.7783L47.7246 35.8252L47.7598 35.8838L49.459 38.3096L49.5879 38.4971L49.6582 38.708L50.584 41.5322L51.5215 44.3916L51.6035 44.6143V44.8604L51.5918 47.8721V47.8955L51.5215 50.8955V50.9775L51.5098 51.0596L51.0996 54.0361L51.0879 54.165L51.041 54.2939L50.127 57.0479L49.3887 59.9658L49.377 60.0361L49.3535 60.1064L48.334 62.9424L48.2754 63.1182L48.1699 63.2705L46.5762 65.6611L45.1699 68.3096L45.123 68.3916L45.0645 68.4854L43.377 70.8174L41.8184 73.3838L41.8066 73.3955L40.2129 75.9502L40.1777 76.0088L40.1309 76.0674L38.3027 78.4463L38.291 78.4697L38.2793 78.4814L36.3926 80.8135L36.3574 80.8486L36.334 80.8838L34.4238 82.9697L32.9238 85.3955L31.5762 87.7627L31.2715 89.8135L32.0332 90.8447L33.6621 90.4814L35.6895 89.0518L37.2129 86.9189L38.4082 84.2939L38.4551 84.1885L40.1895 81.5869L40.3066 81.4229L42.1934 79.2666L43.6348 76.7822L43.7168 76.6182L43.8457 76.4893L45.873 74.3564L47.6895 72.0361L47.8418 71.8369L48.0645 71.6963L50.6309 70.0557L52.7871 68.3564L55.0605 66.3525L55.2129 66.2236L55.3887 66.1299L58.0957 64.8057L58.2129 64.7471L58.3301 64.7119L61.0723 63.9033L63.6621 62.5791L63.9199 62.4502L64.2012 62.415L67.1895 62.1221L70.1543 61.7822H70.2949L73.2832 61.7002H73.4121L76.4004 61.876H76.4707L76.5293 61.8877L79.5059 62.2979H79.5176L79.541 62.3096L82.5176 62.79L82.7285 62.8369L82.9277 62.9307L85.541 64.208L88.3066 65.0049L88.459 65.0518L88.6113 65.1338L91.1777 66.54H91.1895L93.873 67.8877L94.0371 67.9697L94.1777 68.0869L96.416 69.9854L98.8066 71.7197L99.123 71.9424L99.2871 72.2822L100.553 74.9307L101.045 75.9502L100.189 76.7002L97.916 78.7158L97.9043 78.7275L95.6426 80.6963L95.6074 80.7197L95.5723 80.7549L93.2637 82.501L91.3594 84.2715L91.6797 84.4189L94.2344 84.1025L94.3047 84.0908H94.3633L97.1875 83.9619L99.918 83.3057L102.59 82.2861L105.578 81.0557L105.789 81.0322L108.602 80.7158L108.695 81.6064L108.859 82.1807L109.044 82.8516L109.871 83.002L109.391 85.7559L109.355 85.9199L109.297 86.084L108.125 88.8379V88.8496L108.113 88.8613L106.895 91.6035L106.836 91.7207L105.371 94.3457L105.324 94.4395L105.254 94.5215L103.52 96.8301L102.102 99.3848L102.008 99.5254L100.273 101.975L100.203 102.068L98.2812 104.377L98.2578 104.4L96.2891 106.674L96.207 106.768L96.1016 106.85L93.9102 108.643L92.1289 110.764L91.4268 111.755L93.25 112.812L93.3203 112.859L95.6172 114.383L98.1719 115.121L100.855 115.672L103.375 115.285L105.883 114.102L108.508 112.742L108.578 112.707L108.66 112.684L111.367 111.641L111.379 111.629H111.391L111.484 111.594L112.516 114.406L112.422 114.441H112.41L109.738 115.484L107.207 116.785L107.16 116.809L104.441 118.098L104.242 118.191L104.031 118.215L101.043 118.672L100.773 118.719L100.516 118.66L97.5742 118.062L97.457 118.039L94.5859 117.207L94.3633 117.148L94.1758 117.02L91.7383 115.402L89.3945 114.043L86.8984 113.539L84.3086 113.492L81.8711 114.289L79.4219 115.73L79.375 115.766L79.3164 115.789L76.6562 117.113L76.4922 117.184L76.3164 117.23L73.3633 117.887L73.082 117.945L72.8125 117.91L69.8008 117.453L69.6016 117.418L69.4141 117.336L66.6367 116.082L66.5195 116.023L66.4141 115.953L64.1172 114.395L61.668 113.609L59.0898 113.164L56.7812 113.832L54.4961 115.402L54.3789 115.484L54.2383 115.543L51.4844 116.762L51.3906 116.809L51.2969 116.832L48.4258 117.676L48.1445 117.758L47.8633 117.734L44.875 117.465L44.7812 117.453L44.6758 117.43L41.7227 116.738L41.3359 116.656L41.0547 116.387L39.0156 114.523L36.625 113.609L33.9883 113.27L31.4805 113.668L29.4785 114.639V114.997H28.8652L28.0479 115.591L28.1191 116.321L26.8857 116.436L26.793 116.504L26.6172 116.633L26.3945 116.703L23.5586 117.676L20.7578 118.719L20.3711 118.859L19.9727 118.789L16.9844 118.25L16.8555 118.227L16.7383 118.18L13.9492 117.172H13.9609L11.1367 116.34L11.0312 116.316L10.9375 116.27L8.20703 115.027L8.03125 114.957L7.87891 114.828L7.05859 114.172L7.99609 113L8.94531 111.828L9.61328 112.379L12.1094 113.516L14.8867 114.324L14.9805 114.348L17.6289 115.32L20.1016 115.766L21.5801 115.206L19.9043 114.61L19.6934 114.54L19.5176 114.411L17.1035 112.665L17.0098 112.595L16.9277 112.513L14.7949 110.427L14.7598 110.38L14.7246 110.345L12.7559 108.083L12.6738 107.989L12.6035 107.884L11.0449 105.317L10.9395 105.13L10.8809 104.931L10.0723 102.036L10.0254 101.872V101.696L9.9082 98.7197V98.6494L9.93164 95.6846L9.94336 95.5908V95.5088L10.3301 92.5088L10.3652 92.2393L10.4941 91.9932L11.8652 89.3799L12.8379 86.6729L12.9082 86.4736L13.0254 86.2979L14.7598 83.8838L16.4355 81.3994L16.4824 81.3291L16.541 81.2705L18.4863 78.9736L20.3027 76.6533L20.373 76.5713L20.4434 76.501L22.6113 74.415L24.5098 72.2588L24.6035 72.1533L24.7207 72.0596L26.9238 70.3252L28.6113 68.0635L28.6699 67.9814L28.7402 67.9111L30.8262 65.7432L32.8066 63.5518L34.4238 61.3604L35.6426 58.7705L35.666 58.7236L35.7012 58.665L37.166 56.0752H37.1777L38.5371 53.6729L38.9941 50.9893L39.2051 48.5752L38.6543 47.5791L37.6348 47.8838L35.5254 49.6182L35.4785 49.6533L35.4199 49.7002L32.9355 51.3643L32.9004 51.3877L32.8535 51.4111L30.2637 52.9111L30.1113 52.9932L29.9473 53.0518L27.0527 53.9072L26.1504 54.1768L25.7607 53.751L23.5566 55.083L23.5449 55.0947H23.5332L20.9434 56.6064H20.9316L18.3184 58.1064L18.2129 58.165L18.1074 58.2002L15.2832 59.2783L15.0723 59.3604L14.8379 59.3721L12.3301 59.5127L12.3135 59.1738L11.4082 59.2363L11.3926 59.2549L11.375 59.2383L10.332 59.3115L10.6182 58.5723L8.50977 56.7236L11.4043 56.5557L12.2539 54.4014L12.3594 54.1201L12.5586 53.9092L14.5742 51.7764L16.1328 49.6084L17.3398 47.0303V47.0068L18.3838 44.918L18.416 44.3447L18.5684 41.5557L18.5801 41.333L18.6621 41.1221L19.6934 38.333L19.752 38.1572L19.8691 37.9932L21.5801 35.5322L21.7207 35.3447L21.8965 35.2041L24.2754 33.3525L24.2988 33.3291L24.334 33.3057L26.8066 31.5713L27.0059 31.4424L27.2402 31.3721L30.1348 30.5049L30.2402 30.4697L30.3574 30.458L33.3105 30.0361H33.3223L36.2871 29.6377L36.4395 29.626L36.5918 29.6377ZM33.7207 33.001L33.7324 33.0127L30.8965 33.3994L28.3184 34.1729L26.0566 35.7666L23.9004 37.4307L22.4355 39.5518L21.5449 41.9424L21.4746 43.2666L22.9512 43.6299L23.4082 43.7354L23.7246 44.0869L24.1367 44.5527L24.7627 43.6426L24.9316 41.4707L25.0127 40.2754L26.1953 40.1055L28.5469 39.7441L30.6777 39.415L30.2363 41.5293L29.666 44.2646L29.4541 45.2988L28.418 45.4404L26.3828 45.7354L25.3184 45.8877L25.7051 46.3252L26.0566 46.7236L26.0801 47.2627L26.1738 49.7588L27.0879 50.7549L28.916 50.2158L31.2598 48.8682L33.6387 47.2627L35.959 45.3877L36.1934 45.2002L36.4746 45.1064L38.9473 44.3682L40.0957 44.0166L40.6934 45.0713L42.0527 47.5322L42.2871 47.9307L42.2402 48.3994L41.9707 51.376L41.959 51.4346V51.4814L41.4551 54.4463L41.4082 54.7158L41.2793 54.9502L39.7793 57.5635L39.7676 57.5518L38.3145 60.1533L37.0723 62.7783L37.0137 62.9189L36.9199 63.0361L35.127 65.4502L35.0332 65.5674L33.0176 67.7939L33.0059 67.8174L32.9824 67.8291L30.9551 69.9033L29.2324 72.2705L29.1152 72.4346L28.9512 72.5635L26.666 74.333L24.7793 76.4893L24.7324 76.5361L24.6973 76.583L22.6348 78.5518L20.8066 80.8721L20.7832 80.8955L20.7715 80.9189L18.9316 83.0752L17.2559 85.5596L17.2324 85.6064L15.5801 87.8682L14.6426 90.5283L14.6074 90.6338L14.5605 90.7275L13.2715 93.1533L12.9199 95.79L12.9082 98.6846L13.0137 101.427L13.7168 103.935L15.0879 106.196L16.9746 108.364L18.9199 110.274L21.123 111.856L23.7129 112.771H23.7012L25.96 113.403L27.4492 112.309L27.5664 112.227L27.6836 112.168L30.3672 110.879L30.5664 110.785L30.7773 110.75L33.7305 110.27L33.9531 110.234L34.1641 110.258L37.1523 110.645L37.3281 110.668L37.4922 110.727L40.3281 111.805L40.5977 111.91L40.8086 112.098L42.7891 113.914L45.3203 114.5L47.875 114.723L50.3008 114.02L52.9141 112.859L55.2227 111.23L55.4336 111.102L55.668 111.031L58.5742 110.176L58.9023 110.082L59.2539 110.141L62.2305 110.645L62.3359 110.668L62.4297 110.703L65.2539 111.605L65.4531 111.664L65.6289 111.793L67.9844 113.398L70.457 114.512L72.9766 114.91L75.4844 114.348L77.957 113.129L80.4531 111.617L80.5938 111.535L80.7578 111.477L83.6055 110.551L83.8398 110.48H84.0977L87.0625 110.539H87.1914L87.332 110.562L88.4453 110.787L89.6914 109.041L89.7617 108.947L91.6719 106.639L91.7656 106.533L91.8711 106.439L94.1094 104.6L95.9961 102.432L97.8945 100.146L99.4883 97.8848L100.941 95.3066L100.988 95.2129L101.047 95.1309L102.781 92.8105L104.176 90.3145L105.371 87.6426L106.461 85.0527L106.659 83.9375L106.328 83.9736L103.738 85.0635H103.727L103.703 85.0752L100.902 86.1533L100.809 86.1885L100.715 86.2119L97.7852 86.915L97.6445 86.9502L97.5039 86.9619L94.5273 87.0791L91.6328 87.4541L91.1992 87.5127L90.8125 87.3252L88.9521 86.4668L88.834 86.5322L86.2676 88.0322L83.8418 89.708L83.7715 89.7666L83.6895 89.8018L81.041 91.208H81.0293L81.0059 91.2197L78.334 92.5791L78.2754 92.6025L78.2051 92.6377L75.4512 93.7041L72.7793 94.958L72.7207 94.9814L72.6738 94.9932L69.8613 96.0479L69.8496 96.0596H69.8379L67.0137 97.0557L67.002 97.0439L64.2129 98.0986L64.0605 98.1572L63.8848 98.1807L60.9434 98.5557L60.9551 98.5674L58.0137 99.083H58.002L55.0488 99.5869L54.9785 99.5986L54.9199 99.6104L51.9082 99.8447L51.7793 99.8564L51.6504 99.8447L48.7441 99.5635L48.8379 98.6143L48.791 98.0869L48.6855 96.5869L48.7793 96.5752L48.9082 96.5635L49.0371 96.5869L51.8027 96.8447L54.6738 96.6104L57.498 96.1182L60.4395 95.6025H60.4746L60.5098 95.5908L63.3691 95.2158L65.9824 94.2432L66.0059 94.2314H66.0176L68.8418 93.2354L71.5137 92.2275L74.2324 90.9736L74.2793 90.9502L74.3145 90.9385L76.998 89.8721L79.6582 88.5479L82.1426 87.2236L84.6152 85.5361L84.6621 85.5127L84.709 85.4775L87.1582 84.0361L89.0449 82.3369L91.248 80.2744L91.3652 80.1807L93.7559 78.3643L95.9355 76.4658L97.3535 75.2119L96.7324 73.9229L94.623 72.3877L94.5293 72.3174L92.3613 70.4775L89.8535 69.2354L89.8184 69.2119L89.7949 69.2002L87.3223 67.8408L84.5801 67.0557L84.4629 67.0205L84.334 66.9619L81.791 65.708L79.084 65.2627L76.1543 64.8525L73.2715 64.7002L70.3887 64.7705L67.5293 65.1104H67.5059L64.7871 65.3682L62.3379 66.6338L62.209 66.7041L62.0684 66.7393L59.3027 67.5479L56.877 68.7314L54.7676 70.6064L54.7441 70.6416L54.709 70.665L52.3652 72.5049L52.3066 72.5518L52.248 72.5869L49.8926 74.0869L48.1934 76.2666L48.1465 76.3252L48.0996 76.3721L46.166 78.3877L44.7363 80.8955L44.6543 81.0244L44.5605 81.1416L42.627 83.3213L41.127 85.583L39.873 88.3018L39.8145 88.4307L39.7324 88.5479L37.9863 91.0088L37.834 91.2197L37.623 91.3604L35.1621 93.1064L34.916 93.2822L34.623 93.3408L31.7402 93.9971L30.7793 94.2197L30.1934 93.4229L28.4824 91.0908L28.1074 90.5869L28.2129 89.9775L28.6582 87.0361L28.7051 86.7666L28.8457 86.5322L30.3223 83.9189L30.3457 83.8721L31.916 81.3174L31.998 81.2002L32.0918 81.0947L34.1074 78.8564L35.9473 76.5947L37.6934 74.2979L39.2637 71.8018L40.8223 69.2588L40.8574 69.2119L40.8809 69.1768L42.5449 66.833L43.916 64.2549L43.9512 64.1846L43.998 64.126L45.5684 61.7471L46.4707 59.2275L47.2324 56.3096L47.2559 56.2158L48.1465 53.4854L48.5215 50.708L48.5918 47.8369V45.1064L47.7363 42.4697L46.8809 39.8682L45.2988 37.5947H45.2871L43.6113 35.6025L41.3848 34.1494L39.0527 32.8018L36.5215 32.626L33.7207 33.001ZM20.0469 48.2725L20.0586 48.2842L18.8281 50.9678L18.7695 51.0967L18.6875 51.2256L16.9297 53.6514L16.7891 53.8154L14.9258 55.7607L14.7295 56.2705L16.9004 55.4463L19.4316 54.0049L22.0332 52.5049L23.7061 51.4863L23.5957 51.3643L23.2207 50.9658L23.1973 50.415L23.0918 47.9072L21.7793 46.4307L21.0596 46.2559L20.0469 48.2725Z" fill="black"/>
</svg>
