<svg width="120" height="120" viewBox="0 0 120 120" fill="none" xmlns="http://www.w3.org/2000/svg">
<g clip-path="url(#clip0_503_90)">
<path d="M32.3999 4.00421L33.8989 3.94857L33.847 2.55015L32.4483 2.50499L32.3999 4.00421ZM32.4036 4.10414L30.9047 4.15978L30.9227 4.64604L31.2228 5.02911L32.4036 4.10414ZM33.7446 5.81602L35.2079 6.14555L35.3643 5.45128L34.9254 4.89105L33.7446 5.81602ZM33.1614 8.40603L31.698 8.0765L31.6649 8.22347L31.6617 8.37408L33.1614 8.40603ZM33.1049 11.0576L34.6041 11.1061L34.6044 11.0978L34.6045 11.0895L33.1049 11.0576ZM33.0197 13.6878L34.5177 13.7646L34.5184 13.7505L34.5189 13.7364L33.0197 13.6878ZM32.8848 16.3186L31.3867 16.2418L31.3776 16.4199L31.4105 16.5951L32.8848 16.3186ZM33.3713 18.9133L31.8969 19.1897L31.9263 19.3462L31.9878 19.4931L33.3713 18.9133ZM34.3902 21.3448L33.0068 21.9246L33.0113 21.9353L33.016 21.946L34.3902 21.3448ZM35.4424 23.7501L34.0681 24.3513L34.0744 24.3657L34.081 24.38L35.4424 23.7501ZM36.5634 26.173L35.202 26.8028L35.3465 27.1152L35.6128 27.3333L36.5634 26.173ZM38.6469 27.8799L39.948 27.1335L39.8108 26.8943L39.5975 26.7196L38.6469 27.8799ZM39.9796 30.203L41.4536 30.4809L41.5562 29.9368L41.2807 29.4566L39.9796 30.203ZM39.485 32.8264L40.3761 34.0331L40.8499 33.6831L40.9591 33.1043L39.485 32.8264ZM37.326 34.4207L36.435 33.214L36.4 33.2398L36.3667 33.2675L37.326 34.4207ZM35.2956 36.1097L34.3363 34.9566L34.2172 35.0557L34.1209 35.177L35.2956 36.1097ZM33.6687 38.1587L32.494 37.226L32.474 37.2511L32.4552 37.277L33.6687 38.1587ZM32.0858 40.3373L32.1191 41.8369L32.8623 41.8204L33.2993 41.219L32.0858 40.3373ZM29.5786 40.3928L28.7207 41.6233L29.1224 41.9033L29.6118 41.8925L29.5786 40.3928ZM27.4171 38.8859L26.0806 39.567L26.2511 39.9016L26.5592 40.1164L27.4171 38.8859ZM26.2052 36.5077L27.5417 35.8266L27.5298 35.8034L27.5172 35.7805L26.2052 36.5077ZM24.9206 34.1899L23.462 34.5398L23.5096 34.7384L23.6086 34.917L24.9206 34.1899ZM24.2989 31.5989L25.7575 31.2489L25.7113 31.0562L25.6166 30.8821L24.2989 31.5989ZM23.0153 29.239L21.5425 29.5237L21.5866 29.7517L21.6976 29.9557L23.0153 29.239ZM22.5108 26.6292L21.0253 26.8374L21.0307 26.8758L21.0381 26.9139L22.5108 26.6292ZM22.1433 24.0066L20.6485 24.1306L20.652 24.1728L20.6579 24.2147L22.1433 24.0066ZM21.9243 21.3668L20.4449 21.1192L20.414 21.304L20.4295 21.4908L21.9243 21.3668ZM22.362 18.7505L23.8415 18.998L23.853 18.9292L23.858 18.8597L22.362 18.7505ZM22.5541 16.1201L21.1173 15.6892L21.0701 15.8468L21.0581 16.0109L22.5541 16.1201ZM23.3134 13.5883L22.0379 12.7989L21.9335 12.9675L21.8766 13.1575L23.3134 13.5883ZM24.7025 11.3439L25.978 12.1334L26.0255 12.0566L26.0634 11.9747L24.7025 11.3439ZM25.8212 8.93L24.6969 7.93703L24.5522 8.1009L24.4603 8.29927L25.8212 8.93ZM27.5734 6.94608L26.6074 5.79854L26.5226 5.86997L26.4491 5.95311L27.5734 6.94608ZM29.5809 5.25619L28.8536 3.9443L28.7263 4.01489L28.6149 4.10865L29.5809 5.25619ZM31.8701 3.9871L31.9185 2.48788L31.5049 2.47453L31.1429 2.67521L31.8701 3.9871ZM30.5958 40.8307L32.0946 40.8906L32.1378 39.8098L31.1259 39.4275L30.5958 40.8307ZM30.4914 43.4443L28.9926 43.3844L28.9825 43.637L29.0557 43.8789L30.4914 43.4443ZM30.9532 44.9698L29.5175 45.4044L29.8952 46.6519L31.1832 46.452L30.9532 44.9698ZM33.5704 44.5636L33.8004 46.0459L33.9621 46.0208L34.1146 45.9614L33.5704 44.5636ZM36.0538 43.5967L35.6977 42.1396L35.6017 42.1631L35.5096 42.1989L36.0538 43.5967ZM38.6184 42.9699L38.3543 41.4934L38.3079 41.5016L38.2622 41.5128L38.6184 42.9699ZM41.2214 42.5044L41.4855 43.9809L41.5564 43.9682L41.6257 43.9488L41.2214 42.5044ZM43.7656 41.7922L43.45 40.3258L43.4053 40.3354L43.3612 40.3477L43.7656 41.7922ZM46.3471 41.2366L46.6627 42.703L46.7044 42.694L46.7455 42.6827L46.3471 41.2366ZM48.8823 40.5382L50.3413 40.1901L49.9809 38.6797L48.4839 39.0921L48.8823 40.5382ZM87.5265 4.51872L86.2382 5.28704L86.3649 5.49956L86.5532 5.66011L87.5265 4.51872ZM87.6026 4.5836L86.6293 5.725L86.9762 6.0208L87.4291 6.07354L87.6026 4.5836ZM90.0292 4.86619L90.8784 3.62974L90.572 3.41926L90.2027 3.37625L90.0292 4.86619ZM92.2132 6.36622L93.4568 5.52748L93.2974 5.29116L93.0624 5.12977L92.2132 6.36622ZM93.6982 8.56803L92.4546 9.40677L92.5218 9.50641L92.604 9.59407L93.6982 8.56803ZM95.5193 10.51L96.8946 9.91125L96.791 9.67329L96.6135 9.48398L95.5193 10.51ZM96.5787 12.9434L97.988 12.4296L97.9723 12.3866L97.954 12.3446L96.5787 12.9434ZM97.4743 15.4L98.9321 15.0465L98.9123 14.9651L98.8836 14.8863L97.4743 15.4ZM98.089 17.9346L99.5734 17.7189L99.5633 17.6494L99.5467 17.5811L98.089 17.9346ZM98.4665 20.5328L99.9606 20.6653L99.9761 20.4906L99.9509 20.3171L98.4665 20.5328ZM98.2343 23.1509L99.7212 23.3485L99.7256 23.316L99.7284 23.2834L98.2343 23.1509ZM97.8896 25.7454L96.4027 25.5478L96.394 25.6129L96.3911 25.6785L97.8896 25.7454ZM97.7699 28.4289L99.1186 29.0855L99.2546 28.8061L99.2684 28.4957L97.7699 28.4289ZM96.6002 30.8314L95.2516 30.1748L95.2044 30.2717L95.1715 30.3744L96.6002 30.8314ZM95.7923 33.3577L97.093 34.1046L97.1724 33.9664L97.221 33.8146L95.7923 33.3577ZM94.4742 35.6528L95.7535 36.4361L95.7645 36.4181L95.775 36.3998L94.4742 35.6528ZM93.0975 37.9013L94.2122 38.905L94.3047 38.8024L94.3768 38.6846L93.0975 37.9013ZM91.3635 39.8272L91.6313 41.3031L92.1354 41.2116L92.4782 40.8309L91.3635 39.8272ZM89.0406 40.2487L88.1883 41.483L88.6984 41.8353L89.3084 41.7246L89.0406 40.2487ZM86.877 38.7545L85.6606 39.6323L85.8119 39.8419L86.0246 39.9888L86.877 38.7545ZM85.3197 36.5965L86.536 35.7187L86.4704 35.6278L86.392 35.5476L85.3197 36.5965ZM83.4678 34.703L84.5402 33.6542L84.4788 33.5915L84.4106 33.5364L83.4678 34.703ZM81.4076 33.038L80.2655 34.0105L80.3561 34.1169L80.4647 34.2047L81.4076 33.038ZM79.7613 31.1047L78.3874 30.5027L78.0107 31.3625L78.6193 32.0772L79.7613 31.1047ZM80.7232 28.9096L79.383 28.2359L79.3652 28.2713L79.3493 28.3075L80.7232 28.9096ZM81.911 26.5465L80.6705 25.7032L80.6151 25.7847L80.5708 25.8729L81.911 26.5465ZM83.4043 24.3501L84.6447 25.1934L84.6907 25.1258L84.729 25.0536L83.4043 24.3501ZM84.646 22.0119L85.9708 22.7154L85.9934 22.6728L86.0133 22.6287L84.646 22.0119ZM85.7357 19.5965L87.103 20.2133L87.1751 20.0536L87.2084 19.8816L85.7357 19.5965ZM86.2448 16.9672L84.8337 16.4586L84.7943 16.5679L84.7722 16.682L86.2448 16.9672ZM87.1354 14.4961L88.5466 15.0047L88.5895 14.8857L88.6119 14.7611L87.1354 14.4961ZM87.599 11.9127L89.0755 12.1776L89.1129 11.9691L89.0911 11.7583L87.599 11.9127ZM87.3304 9.31671L88.8225 9.16232L88.8216 9.15436L87.3304 9.31671ZM87.0454 6.69895L85.5607 6.48503L85.5337 6.67276L85.5542 6.86131L87.0454 6.69895ZM87.392 4.2933L88.6803 3.52498L86.5113 -0.11198L85.9074 4.07937L87.392 4.2933ZM79.401 30.8425L79.8654 29.4162L79.8021 29.3956L79.7372 29.3807L79.401 30.8425ZM76.9246 30.2729L76.5235 31.7183L76.5557 31.7272L76.5884 31.7348L76.9246 30.2729ZM74.3685 29.5634L73.7168 30.9144L73.8378 30.9728L73.9673 31.0088L74.3685 29.5634ZM71.9823 28.4123L72.634 27.0613L72.6069 27.0482L72.5793 27.0362L71.9823 28.4123ZM69.5473 27.3558L70.1444 25.9798L69.91 25.8781L69.6552 25.8597L69.5473 27.3558ZM66.8899 27.1642L66.5757 28.6309L66.6778 28.6528L66.782 28.6603L66.8899 27.1642ZM64.2984 26.609L64.6125 25.1423L64.494 25.1169L64.373 25.1109L64.2984 26.609ZM61.648 26.4771L61.7226 24.9789L61.5192 24.9688L61.3205 25.0133L61.648 26.4771ZM60.3776 26.759L60.2624 28.2545L60.4689 28.2704L60.672 28.2298L60.3776 26.759ZM57.8319 26.5629L57.9471 25.0673L57.7871 25.055L57.628 25.0768L57.8319 26.5629ZM55.2013 26.9237L54.9975 25.4376L54.9614 25.4425L54.9257 25.4492L55.2013 26.9237ZM52.6095 27.4083L52.3338 25.9338L52.2613 25.9474L52.1905 25.968L52.6095 27.4083ZM50.1472 28.1244L49.7283 26.6841L49.0909 26.8695L48.7995 27.4659L50.1472 28.1244ZM49.1359 30.1944L47.7882 29.5359L47.7051 29.7058L47.6669 29.8911L49.1359 30.1944ZM48.5966 32.8063L47.1276 32.503L47.0989 32.6421L47.0968 32.784L48.5966 32.8063ZM48.5573 35.4544L50.0563 35.5083L50.0569 35.4925L50.0571 35.4766L48.5573 35.4544ZM48.4618 38.1076L46.9627 38.0537L46.952 38.3524L47.0565 38.6324L48.4618 38.1076ZM49.3813 40.5701L47.9761 41.0949L48.271 41.8846L49.099 42.0433L49.3813 40.5701ZM51.9305 41.0587L51.6482 42.5319L51.915 42.5831L52.1828 42.5374L51.9305 41.0587ZM54.5466 40.6125L54.6455 39.1157L54.4689 39.1041L54.2944 39.1338L54.5466 40.6125ZM57.2203 40.7891L57.1214 42.2859L57.3688 42.3022L57.6083 42.2381L57.2203 40.7891ZM59.7947 40.0997L59.9255 38.6055L59.6621 38.5824L59.4067 38.6508L59.7947 40.0997ZM60.4739 26.8393L61.9716 26.9234L61.9732 26.8947L61.9737 26.866L60.4739 26.8393ZM60.3315 29.3772L58.8338 29.2931L58.8269 29.4172L58.8404 29.5408L60.3315 29.3772ZM60.6217 32.0228L62.1121 32.1917L62.131 32.0255L62.1127 31.8592L60.6217 32.0228ZM60.323 34.6579L58.8325 34.4889L58.816 34.6347L58.828 34.7809L60.323 34.6579ZM60.5406 37.3022L62.0313 37.4687L62.0475 37.3241L62.0356 37.1791L60.5406 37.3022ZM60.2462 39.9374L58.7554 39.7708L58.7497 39.8226L58.7475 39.8746L60.2462 39.9374ZM71.1736 40.9521L71.5104 39.4904L71.445 39.4753L71.3785 39.4661L71.1736 40.9521ZM68.5532 40.5909L68.758 39.1049L68.7106 39.0984L68.6629 39.0949L68.5532 40.5909ZM65.9203 40.3978L66.03 38.9018L66.0051 38.9L65.9802 38.899L65.9203 40.3978ZM63.2808 40.2924L63.3407 38.7935L63.329 38.7931L63.2808 40.2924ZM60.6399 40.2075L60.3862 41.6859L60.4882 41.7034L60.5917 41.7067L60.6399 40.2075ZM71.179 28.733L72.677 28.8097L72.679 28.7717L72.679 28.7337L71.179 28.733ZM71.049 31.2729L69.5509 31.1963L69.5462 31.289L69.5529 31.3815L71.049 31.2729ZM71.2406 33.913L72.74 33.8707L72.739 33.8375L72.7366 33.8045L71.2406 33.913ZM71.3151 36.5531L72.8147 36.5895L72.8156 36.5501L72.8145 36.5107L71.3151 36.5531ZM71.251 39.193L72.7457 39.319L72.7495 39.2743L72.7506 39.2294L71.251 39.193ZM71.1028 40.952L69.6081 40.8261L69.4712 42.4513L71.1022 42.452L71.1028 40.952ZM71.2711 40.9745L70.9343 42.4362L70.9659 42.4435L70.9979 42.4494L71.2711 40.9745ZM73.7709 41.4376L74.1846 39.9958L74.1152 39.9758L74.0442 39.9627L73.7709 41.4376ZM76.3121 42.1667L75.8984 43.6085L75.9671 43.6282L76.0373 43.6413L76.3121 42.1667ZM78.9098 42.6508L79.3527 41.2177L79.2698 41.192L79.1845 41.1761L78.9098 42.6508ZM81.4388 43.4325L80.9958 44.8656L81.0866 44.8937L81.1802 44.91L81.4388 43.4325ZM84.043 43.8882L84.5304 42.4696L84.4183 42.4311L84.3015 42.4107L84.043 43.8882ZM86.5534 44.7508L86.066 46.1694L86.258 46.2354L86.4606 46.2479L86.5534 44.7508ZM89.2244 44.9164L90.1265 43.718L89.7667 43.4471L89.3172 43.4193L89.2244 44.9164ZM40.5786 31.0237L40.9519 32.4765L41.025 32.4577L41.0958 32.4317L40.5786 31.0237ZM42.9749 30.1434L42.8618 28.6477L42.6536 28.6635L42.4577 28.7354L42.9749 30.1434ZM45.6487 29.9411L45.7619 31.4368L45.8827 31.4277L46.0005 31.3993L45.6487 29.9411ZM48.2154 29.3219L48.5671 30.7801L49.0004 30.6755L49.3063 30.3514L48.2154 29.3219ZM89.9949 41.1551L91.4924 41.0678L91.4889 41.0073L91.4805 40.9472L89.9949 41.1551ZM90.1429 43.6918L91.6413 43.624L91.6409 43.6143L91.6403 43.6045L90.1429 43.6918ZM90.2623 46.3304L88.7638 46.3983L88.7725 46.5901L88.8293 46.7737L90.2623 46.3304ZM91.0469 48.8673L92.5345 48.6751L92.518 48.5472L92.4799 48.4241L91.0469 48.8673ZM91.3858 51.4908L89.8982 51.683L89.9035 51.724L89.911 51.7646L91.3858 51.4908ZM91.8676 54.0866L90.3928 54.3603L90.4078 54.4411L90.4315 54.5198L91.8676 54.0866ZM92.6339 56.627L94.1225 56.4426L94.1068 56.316L94.07 56.1939L92.6339 56.627ZM92.9627 59.2812L94.4577 59.4039L94.4703 59.25L94.4513 59.0968L92.9627 59.2812ZM92.7467 61.9126L94.2056 62.2611L94.2323 62.1496L94.2417 62.0353L92.7467 61.9126ZM92.1273 64.5056L90.6683 64.1571L90.6344 64.2992L90.6285 64.4451L92.1273 64.5056ZM92.0206 67.1474L93.5003 67.3933L93.5157 67.3012L93.5194 67.2079L92.0206 67.1474ZM91.5868 69.758L90.1071 69.5121L90.0943 69.5888L90.0896 69.6664L91.5868 69.758ZM91.4254 72.3946L89.9282 72.3029L89.9251 72.3539L89.9254 72.4049L91.4254 72.3946ZM91.4436 75.0482L92.9352 75.207L92.9442 75.1227L92.9436 75.0379L91.4436 75.0482ZM91.1854 77.4745L91.0435 78.9678L92.52 79.1081L92.677 77.6333L91.1854 77.4745ZM91.1205 77.4684L90.282 76.2247L89.8802 76.4956L89.7128 76.9503L91.1205 77.4684ZM30.1046 45.6408L31.5552 46.0228L31.5722 45.9584L31.5833 45.8927L30.1046 45.6408ZM29.4681 48.0578L30.8868 48.545L30.9047 48.493L30.9187 48.4398L29.4681 48.0578ZM28.5995 50.5875L27.1808 50.1003L27.1137 50.2958L27.1019 50.5022L28.5995 50.5875ZM28.4487 53.2354L26.9511 53.1501L26.9508 53.1566L28.4487 53.2354ZM28.3097 55.8763L26.8117 55.7974L26.8098 55.8338L26.8097 55.8702L28.3097 55.8763ZM28.2997 58.3358L26.7997 58.3297L26.7922 60.1602L28.5885 59.8078L28.2997 58.3358ZM30.8289 57.8396L31.1177 59.3115L31.2971 59.2763L31.4628 59.1991L30.8289 57.8396ZM33.2015 56.7334L32.8046 55.2869L32.6824 55.3204L32.5676 55.3739L33.2015 56.7334ZM35.7959 56.0216L36.1928 57.4681L36.3466 57.4259L36.4881 57.3523L35.7959 56.0216ZM38.1354 54.8047L37.5013 53.4453L37.4719 53.459L37.4432 53.4739L38.1354 54.8047ZM40.5148 53.6947L39.9818 52.2926L39.9304 52.3121L39.8806 52.3354L40.5148 53.6947ZM42.9696 52.7616L43.1501 51.2725L42.7826 51.228L42.4366 51.3595L42.9696 52.7616ZM45.5819 53.0783L46.0614 51.657L45.9154 51.6077L45.7625 51.5892L45.5819 53.0783ZM48.0617 53.9149L47.5822 55.3362L47.6355 55.3542L47.69 55.3681L48.0617 53.9149ZM50.6367 54.5736L51.3644 53.2619L51.1955 53.1682L51.0084 53.1204L50.6367 54.5736ZM52.9557 55.8601L53.7594 54.5936L53.7221 54.5699L53.6834 54.5484L52.9557 55.8601ZM55.1954 57.2815L56.1929 56.1611L56.1019 56.0802L55.9992 56.015L55.1954 57.2815ZM57.1769 59.0455L58.2944 58.045L58.2378 57.9817L58.1743 57.9252L57.1769 59.0455ZM58.9411 61.0161L57.8235 62.0166L57.9935 62.2065L58.2167 62.3296L58.9411 61.0161ZM59.6779 61.5212L58.1783 61.5559L58.1795 61.6054L58.1839 61.6547L59.6779 61.5212ZM59.9046 64.0566L61.4015 64.1534L61.4089 64.0381L61.3987 63.923L59.9046 64.0566ZM59.7336 66.7013L58.2367 66.6044L58.2352 66.6277L58.2344 66.651L59.7336 66.7013ZM59.645 69.344L58.1458 69.2938L58.1424 69.3958L58.1528 69.4974L59.645 69.344ZM59.9157 71.9785L61.4151 71.9361L61.4135 71.8805L61.4078 71.8251L59.9157 71.9785ZM59.9901 74.6174L58.4907 74.6598L58.4922 74.7111L58.4971 74.7622L59.9901 74.6174ZM60.2456 77.2522L61.7453 77.2831L61.7471 77.1951L61.7386 77.1075L60.2456 77.2522ZM60.1908 79.9119L61.6547 80.2387L61.6874 80.0925L61.6904 79.9428L60.1908 79.9119ZM59.6051 82.5357L58.1411 82.2089L58.0693 82.5305L58.139 82.8526L59.6051 82.5357ZM60.1817 85.2032L58.7155 85.5201L58.9108 86.4235L59.8055 86.6553L60.1817 85.2032ZM62.7675 85.8731L62.3913 87.3251L62.7072 87.407L63.0285 87.3502L62.7675 85.8731ZM65.3791 85.4116L65.6401 86.8887L66.1842 86.7925L66.5359 86.3664L65.3791 85.4116ZM67.0653 83.3686L68.2222 84.3234L68.6123 83.8508L68.5598 83.2402L67.0653 83.3686ZM59.7566 61.3625L58.9162 60.12L58.8963 60.1335L58.8767 60.1477L59.7566 61.3625ZM61.8641 59.9371L62.7044 61.1796L62.8078 61.1098L62.8981 61.0238L61.8641 59.9371ZM63.788 58.1064L62.8356 56.9475L62.7935 56.9821L62.7539 57.0197L63.788 58.1064ZM65.8352 56.424L65.0787 55.1287L64.9753 55.1891L64.8829 55.2651L65.8352 56.424ZM68.1258 55.0861L67.5138 53.7167L67.4396 53.7499L67.3693 53.7909L68.1258 55.0861ZM70.5403 54.007L69.934 52.635L69.9282 52.6376L70.5403 54.007ZM72.9418 52.9458L72.7385 51.4597L72.529 51.4883L72.3356 51.5738L72.9418 52.9458ZM75.5797 52.5848L75.8165 51.1036L75.5968 51.0685L75.3763 51.0987L75.5797 52.5848ZM78.2052 53.0046L78.4478 51.5244L78.4421 51.5234L78.2052 53.0046ZM80.8059 53.4308L81.214 51.9874L81.1323 51.9642L81.0485 51.9505L80.8059 53.4308ZM83.3638 54.154L84.2249 52.9258L84.0166 52.7798L83.7719 52.7106L83.3638 54.154ZM85.5456 55.6837L84.6845 56.9119L84.6961 56.92L84.7079 56.9279L85.5456 55.6837ZM87.7214 57.1486L86.8836 58.3928L86.9248 58.4205L86.9676 58.4454L87.7214 57.1486ZM90.0216 58.4855L89.2679 59.7824L89.4766 59.9037L89.713 59.9534L90.0216 58.4855ZM92.6345 59.0349L92.3259 60.5028L92.4665 60.5323L92.6103 60.5347L92.6345 59.0349ZM95.2784 59.0776L95.2541 60.5774L95.3051 60.5783L95.356 60.5756L95.2784 59.0776ZM97.9582 58.9387L98.9896 57.8496L98.5227 57.4075L97.8805 57.4407L97.9582 58.9387ZM99.9057 60.783L101.392 60.5802L101.32 60.057L100.937 59.6939L99.9057 60.783ZM100.259 63.3748L101.759 63.3686L101.759 63.2698L101.746 63.1719L100.259 63.3748ZM100.27 65.9819L101.737 66.2939L101.771 66.1366L101.77 65.9758L100.27 65.9819ZM99.7242 68.5489L98.257 68.2369L98.2555 68.2439L99.7242 68.5489ZM99.1839 71.151L100.531 71.8112L100.614 71.6413L100.653 71.456L99.1839 71.151ZM98.0147 73.5363L99.1114 74.5597L99.2635 74.3967L99.3616 74.1965L98.0147 73.5363ZM96.2292 75.4496L96.8898 76.7963L97.1376 76.6747L97.3259 76.473L96.2292 75.4496ZM93.9239 76.5804L94.3229 78.0264L94.4584 77.989L94.5845 77.9271L93.9239 76.5804ZM91.4078 77.2747L91.0088 75.8288L90.7725 75.894L90.5692 76.031L91.4078 77.2747ZM91.086 77.5622L89.6783 77.0442L89.6507 77.1192L89.6312 77.1966L91.086 77.5622ZM90.4638 80.0382L91.8035 80.7128L91.8781 80.5646L91.9186 80.4038L90.4638 80.0382ZM89.268 82.4129L87.9282 81.7382L87.8925 81.8092L87.8644 81.8836L89.268 82.4129ZM88.3365 84.883L86.933 84.3538L86.9013 84.4379L86.8798 84.5252L88.3365 84.883ZM87.7022 87.4651L89.0342 88.1549L89.1163 87.9963L89.1589 87.8229L87.7022 87.4651ZM86.4806 89.824L85.1486 89.1342L85.0856 89.256L85.0456 89.3871L86.4806 89.824ZM85.7078 92.3626L87.053 93.0262L87.1071 92.9165L87.1427 92.7995L85.7078 92.3626ZM84.5371 94.7358L83.1919 94.0722L83.1759 94.1047L83.1615 94.1379L84.5371 94.7358ZM83.4821 97.1631L84.6948 98.046L84.792 97.9125L84.8578 97.761L83.4821 97.1631ZM81.9129 99.3185L80.7002 98.4356L80.5876 98.5902L80.5175 98.7682L81.9129 99.3185ZM80.9319 101.806L82.1165 102.726L82.2484 102.556L82.3273 102.356L80.9319 101.806ZM79.3037 103.902L80.4816 104.83L80.4882 104.822L79.3037 103.902ZM77.6693 105.974L78.7911 106.97L78.8201 106.937L78.8471 106.903L77.6693 105.974ZM75.92 107.945L74.7982 106.949L74.764 106.988L74.7326 107.028L75.92 107.945ZM74.2957 110.049L75.1286 111.297L75.333 111.16L75.4832 110.966L74.2957 110.049ZM72.0808 111.528L71.2479 110.281L71.1618 110.338L71.0844 110.407L72.0808 111.528ZM70.0963 113.292L70.7091 114.661L70.92 114.567L71.0927 114.413L70.0963 113.292ZM67.6761 114.375L68.1271 115.806L68.2098 115.78L68.2889 115.744L67.6761 114.375ZM65.1622 115.168L65.489 116.632L65.5519 116.618L65.6133 116.598L65.1622 115.168ZM62.5947 115.741L62.8117 117.225L62.867 117.217L62.9215 117.205L62.5947 115.741ZM59.9734 116.124L59.9182 117.623L60.055 117.628L60.1904 117.608L59.9734 116.124ZM57.3169 116.026L56.8883 117.464L57.0711 117.518L57.2618 117.525L57.3169 116.026ZM54.7716 115.268L54.1917 116.651L54.2659 116.682L54.343 116.705L54.7716 115.268ZM52.3589 114.256L52.9388 112.873L52.9268 112.868L52.9148 112.863L52.3589 114.256ZM49.9153 113.281L48.9192 114.403L49.1155 114.577L49.3594 114.674L49.9153 113.281ZM47.9493 111.535L46.946 112.65L46.9532 112.657L47.9493 111.535ZM46.0002 109.781L44.987 110.887L44.9969 110.896L46.0002 109.781ZM44.0424 107.988L42.7825 108.802L42.8871 108.964L43.0292 109.094L44.0424 107.988ZM42.6005 105.756L43.8604 104.942L43.7809 104.819L43.679 104.714L42.6005 105.756ZM40.749 103.841L39.4731 104.63L39.5581 104.767L39.6705 104.884L40.749 103.841ZM39.3559 101.587L38.0451 102.316L38.0619 102.347L38.08 102.376L39.3559 101.587ZM38.0702 99.2761L39.381 98.5468L39.3787 98.5427L38.0702 99.2761ZM36.7801 96.9744L35.4359 97.6399L35.4529 97.6743L35.4716 97.7077L36.7801 96.9744ZM35.6098 94.6106L34.261 95.2671L34.2655 95.2762L35.6098 94.6106ZM34.4563 92.241L33.0596 92.7879L33.0814 92.8437L33.1076 92.8975L34.4563 92.241ZM33.4949 89.786L34.8916 89.2391L34.8857 89.2241L34.8796 89.2093L33.4949 89.786ZM32.4826 87.3557L31.0599 87.8311L31.0771 87.8824L31.0979 87.9324L32.4826 87.3557ZM31.6481 84.8586L33.0707 84.3831L33.0645 84.3646L33.0579 84.3462L31.6481 84.8586ZM30.7481 82.3822L29.2969 82.7618L29.3145 82.8291L29.3383 82.8945L30.7481 82.3822ZM30.0814 79.8342L31.5326 79.4545L31.5268 79.4325L31.5204 79.4107L30.0814 79.8342ZM29.3366 77.3038L30.7756 76.8802L30.7697 76.8601L30.7632 76.8401L29.3366 77.3038ZM28.5149 74.7754L27.0344 75.0164L27.0529 75.1298L27.0884 75.239L28.5149 74.7754ZM28.0895 72.1618L26.5963 72.3048L26.601 72.354L26.609 72.4028L28.0895 72.1618ZM27.8371 69.5263L26.3389 69.6014L26.3406 69.6354L26.3439 69.6693L27.8371 69.5263ZM27.7046 66.885L29.2027 66.8099L29.2002 66.7613L29.1946 66.7129L27.7046 66.885ZM27.4001 64.2492L25.9002 64.2598L25.9008 64.3408L25.91 64.4213L27.4001 64.2492ZM27.3814 61.5973L25.91 61.3057L25.8803 61.4554L25.8814 61.6079L27.3814 61.5973ZM27.9002 58.9786L29.3716 59.2701L29.437 58.94L29.3551 58.6135L27.9002 58.9786ZM28.5126 76.5327L29.5222 75.4233L29.0636 75.0059L28.4441 75.0342L28.5126 76.5327ZM25.9143 76.6514L25.2654 78.0038L25.6057 78.1671L25.9827 78.1499L25.9143 76.6514ZM23.4571 75.4726L22.1018 76.1153L22.3294 76.5952L22.8083 76.825L23.4571 75.4726ZM22.3099 73.0534L23.6652 72.4107L23.6538 72.3865L23.6414 72.3627L22.3099 73.0534ZM21.0993 70.7198L19.6916 71.2378L19.7242 71.3266L19.7678 71.4105L21.0993 70.7198ZM20.1836 68.2316L18.6858 68.3125L18.6979 68.5379L18.7759 68.7497L20.1836 68.2316ZM20.0404 65.5788L21.5382 65.498L21.5323 65.3883L21.5104 65.2807L20.0404 65.5788ZM19.5076 62.9519L18.0887 62.4654L17.9566 62.8508L18.0375 63.25L19.5076 62.9519ZM20.3761 60.4189L19.3754 59.3014L19.0841 59.5624L18.9572 59.9324L20.3761 60.4189ZM22.3444 58.6562L22.2323 57.1604L21.7237 57.1985L21.3437 57.5388L22.3444 58.6562ZM25.0201 58.4558L24.9972 56.956L24.9526 56.9567L24.9081 56.96L25.0201 58.4558ZM27.0517 58.4248H28.5517V56.9017L27.0288 56.925L27.0517 58.4248ZM40.098 77.0451L41.59 77.2004L41.598 77.1229V77.0451H40.098ZM39.8929 79.0156L38.401 78.8603L38.3817 79.0456L38.4083 79.23L39.8929 79.0156ZM40.1919 81.0861L41.6863 81.2159L41.7013 81.0432L41.6765 80.8717L40.1919 81.0861ZM40.102 82.1213V83.6213H41.4774L41.5964 82.2511L40.102 82.1213ZM46.6212 77.3901L48.1188 77.4746L48.1212 77.4324V77.3901H46.6212ZM46.5256 79.0846L45.028 79.0001L45.0186 79.1668L45.0461 79.3314L46.5256 79.0846ZM46.825 80.879L48.2457 81.3602L48.3665 81.0036L48.3045 80.6322L46.825 80.879ZM46.5211 81.7763L45.1004 81.2951L44.4293 83.2763H46.5211V81.7763ZM73.4813 77.3901L74.9798 77.4574L74.9813 77.4238V77.3901H73.4813ZM73.4052 79.0846L71.9067 79.0173L71.9006 79.1534L71.9191 79.2883L73.4052 79.0846ZM73.6512 80.879L75.0688 81.3693L75.186 81.0305L75.1373 80.6753L73.6512 80.879ZM73.3409 81.7763L71.9233 81.286L71.235 83.2763H73.3409V81.7763ZM80.0045 77.7352L81.4859 77.9703L81.5045 77.8535V77.7352H80.0045ZM79.7356 79.4297L78.2541 79.1946L78.233 79.3278L78.236 79.4627L79.7356 79.4297ZM79.7751 81.2241L81.2744 81.2676L81.2755 81.2294L81.2747 81.1911L79.7751 81.2241ZM79.7491 82.1213L78.2497 82.0779L78.2049 83.6213H79.7491V82.1213ZM53.993 81.8347L55.45 81.4783L55.3185 80.9404L54.869 80.6171L53.993 81.8347ZM54.568 84.1857L53.1109 84.542L53.263 85.1637L53.817 85.4842L54.568 84.1857ZM56.6869 85.4111L55.9359 86.7096L56.0943 86.8012L56.2701 86.852L56.6869 85.4111ZM59.2512 86.1528L58.8344 87.5938L59.4406 87.7691L59.9899 87.4584L59.2512 86.1528ZM48.6298 96.5715L49.2821 97.9222L49.7853 97.6793L50.0069 97.1662L48.6298 96.5715ZM49.6259 94.2654L48.6877 93.0949L48.3967 93.3282L48.2488 93.6706L49.6259 94.2654ZM51.6685 92.6282L51.3998 91.1525L51.0265 91.2204L50.7304 91.4578L51.6685 92.6282ZM54.2692 92.1547L54.0717 90.6677L54.036 90.6725L54.0005 90.6789L54.2692 92.1547ZM56.8874 91.807L57.0357 90.3144L56.8625 90.2972L56.6899 90.3201L56.8874 91.807ZM59.5228 92.0689L59.3745 93.5616L59.3904 93.5631L59.4063 93.5644L59.5228 92.0689ZM62.1546 92.274L62.0381 93.7694L62.1441 93.7777L62.2502 93.7709L62.1546 92.274ZM64.8037 92.1049L65.0192 90.6205L64.8644 90.598L64.7082 90.608L64.8037 92.1049ZM67.4094 92.4832L67.6908 91.0098L67.6579 91.0035L67.6249 90.9987L67.4094 92.4832ZM70.0222 92.9822L71.2634 92.14L70.9143 91.6255L70.3036 91.5088L70.0222 92.9822ZM71.487 95.141L72.9717 94.9269L72.9223 94.5848L72.7282 94.2988L71.487 95.141ZM71.8582 97.7155L73.186 98.4134L73.4123 97.9828L73.3429 97.5014L71.8582 97.7155ZM70.6504 100.013L71.765 101.017L71.8907 100.878L71.9781 100.711L70.6504 100.013ZM68.8849 101.974L69.3563 103.398L69.7336 103.273L69.9995 102.978L68.8849 101.974ZM66.3304 102.82L66.4478 104.315L66.6291 104.301L66.8018 104.244L66.3304 102.82ZM63.6726 103.028L63.5228 104.521L63.6563 104.534L63.79 104.524L63.6726 103.028ZM61.031 102.763L61.1808 101.271L61.1305 101.266L61.0799 101.264L61.031 102.763ZM58.396 102.677L58.2077 104.165L58.2772 104.174L58.3471 104.176L58.396 102.677ZM55.773 102.345L55.9612 100.857L55.9322 100.854L55.9031 100.851L55.773 102.345ZM53.1522 102.117L52.9244 103.6L52.973 103.607L53.0221 103.611L53.1522 102.117ZM50.5467 101.717L49.5496 102.837L49.8808 103.132L50.319 103.2L50.5467 101.717ZM48.5196 99.913L47.0228 99.8149L46.9749 100.546L47.5224 101.034L48.5196 99.913ZM48.6842 97.4009L48.434 95.9219L47.265 96.1197L47.1875 97.3028L48.6842 97.4009ZM51.1686 96.9806L51.1577 95.4806L51.0372 95.4815L50.9184 95.5016L51.1686 96.9806ZM53.8132 96.9614L53.8241 98.4614L53.8488 98.4612L53.8735 98.4602L53.8132 96.9614ZM56.4531 96.8553L56.5134 98.3541L56.5396 98.353L56.5658 98.351L56.4531 96.8553ZM59.0908 96.6564L59.3197 95.174L59.1497 95.1477L58.9781 95.1607L59.0908 96.6564ZM61.7358 97.0648L61.5069 98.5473L61.7537 98.5854L61.9995 98.5415L61.7358 97.0648ZM64.3805 96.5926L64.4962 95.097L64.3053 95.0823L64.1169 95.1159L64.3805 96.5926ZM67.0234 96.7969L66.9078 98.2924L66.9532 98.296L66.9987 98.2967L67.0234 96.7969ZM69.6733 96.8407L70.2122 95.4408L69.964 95.3453L69.6981 95.3409L69.6733 96.8407ZM71.1562 97.4115L70.6174 98.8114L72.2555 99.4419L72.623 97.7256L71.1562 97.4115ZM50.0743 67.8772L51.0107 69.049L52.0518 68.2171L51.3482 67.0853L50.0743 67.8772ZM50.0215 67.7923L49.1792 66.5511L47.9868 67.3604L48.7476 68.5842L50.0215 67.7923ZM52.1745 66.3311L53.0168 67.5723L53.697 67.1107L53.6739 66.2891L52.1745 66.3311ZM52.1077 63.9496L53.6071 63.9076L53.587 63.189L53.0143 62.7546L52.1077 63.9496ZM50.0721 62.4053L50.9786 61.2103L50.8214 61.091L50.6388 61.0165L50.0721 62.4053ZM47.6052 61.3987L48.1719 60.0099L47.9273 59.9101L47.6634 59.8999L47.6052 61.3987ZM44.9369 61.2952L44.9951 59.7964L44.8203 59.7896L44.6487 59.8232L44.9369 61.2952ZM42.3152 61.8085L42.3997 63.3061L42.5024 63.3003L42.6034 63.2806L42.3152 61.8085ZM39.6695 61.9579L39.585 60.4603L39.342 60.474L39.1158 60.5638L39.6695 61.9579ZM37.218 62.9316L36.6643 61.5375L36.3377 61.6673L36.1027 61.9286L37.218 62.9316ZM35.6438 64.6821L34.5285 63.6791L33.7902 64.4999L34.3545 65.4488L35.6438 64.6821ZM36.8499 66.7102L35.5607 67.4769L35.7431 67.7836L36.044 67.9754L36.8499 66.7102ZM39.028 68.0977L38.2222 69.3628L38.4126 69.4841L38.6302 69.544L39.028 68.0977ZM41.5292 68.7856L41.1314 70.2319L41.2359 70.2606L41.3434 70.2741L41.5292 68.7856ZM44.1206 69.109L43.9349 70.5974L44.1014 70.6182L44.2684 70.6017L44.1206 69.109ZM46.7317 68.8505L46.8794 70.3432L46.9213 70.3391L46.9628 70.3326L46.7317 68.8505ZM49.3715 68.4389L49.6026 69.9209L49.9965 69.8595L50.3079 69.6107L49.3715 68.4389ZM82.3068 62.0822L82.3046 63.5822L83.2002 63.5835L83.6262 62.7956L82.3068 62.0822ZM82.2068 62.0821L81.5625 63.4367L81.8672 63.5816L82.2046 63.582L82.2068 62.0821ZM79.8931 60.9817L80.5374 59.6271L80.3265 59.5268L80.095 59.4954L79.8931 60.9817ZM77.259 60.624L77.4609 59.1376L77.3241 59.119L77.1862 59.1257L77.259 60.624ZM74.611 60.7526L74.5382 59.2544L74.309 59.2655L74.0935 59.3447L74.611 60.7526ZM72.1363 61.6622L71.6188 60.2543L71.5914 60.2643L71.5644 60.2755L72.1363 61.6622ZM69.71 62.6628L69.1381 61.2761L68.8316 61.4025L68.6069 61.6463L69.71 62.6628ZM67.8934 64.6341L66.7904 63.6176L66.0868 64.3811L66.5535 65.3084L67.8934 64.6341ZM69.079 66.9898L67.7391 67.6642L67.9804 68.1436L68.471 68.3611L69.079 66.9898ZM71.4583 68.0447L70.8504 69.4159L71.0138 69.4884L71.1897 69.5204L71.4583 68.0447ZM74.0112 68.5093L73.7427 69.985L73.8527 70.0051L73.9646 70.0085L74.0112 68.5093ZM76.6412 68.5911L76.5946 70.0904L76.7587 70.0955L76.9201 70.065L76.6412 68.5911ZM79.2324 68.1009L79.5112 69.5747L79.5774 69.5622L79.6423 69.5438L79.2324 68.1009ZM81.7787 67.3775L82.1885 68.8204L82.4255 68.7531L82.6285 68.6136L81.7787 67.3775ZM83.9632 65.8756L84.813 67.1116L85.4374 66.6823L85.4623 65.925L83.9632 65.8756ZM84.0429 63.4547L85.5421 63.5042L85.5648 62.816L85.0578 62.3502L84.0429 63.4547ZM82.3872 61.9334L83.4021 60.8289L81.9838 59.5257L81.0678 61.22L82.3872 61.9334ZM32.3999 4.00421L30.901 4.05985L30.9047 4.15978L32.4036 4.10414L33.9026 4.0485L33.8989 3.94857L32.3999 4.00421ZM32.4036 4.10414L31.2228 5.02911L32.5637 6.741L33.7446 5.81602L34.9254 4.89105L33.5845 3.17917L32.4036 4.10414ZM33.7446 5.81602L32.2812 5.4865L31.698 8.0765L33.1614 8.40603L34.6247 8.73555L35.2079 6.14555L33.7446 5.81602ZM33.1614 8.40603L31.6617 8.37408L31.6052 11.0256L33.1049 11.0576L34.6045 11.0895L34.661 8.43797L33.1614 8.40603ZM33.1049 11.0576L31.6057 11.009L31.5205 13.6393L33.0197 13.6878L34.5189 13.7364L34.6041 11.1061L33.1049 11.0576ZM33.0197 13.6878L31.5216 13.611L31.3867 16.2418L32.8848 16.3186L34.3828 16.3955L34.5177 13.7646L33.0197 13.6878ZM32.8848 16.3186L31.4105 16.5951L31.8969 19.1897L33.3713 18.9133L34.8456 18.6369L34.3591 16.0422L32.8848 16.3186ZM33.3713 18.9133L31.9878 19.4931L33.0068 21.9246L34.3902 21.3448L35.7737 20.7651L34.7547 18.3336L33.3713 18.9133ZM34.3902 21.3448L33.016 21.946L34.0681 24.3513L35.4424 23.7501L36.8166 23.149L35.7645 20.7437L34.3902 21.3448ZM35.4424 23.7501L34.081 24.38L35.202 26.8028L36.5634 26.173L37.9247 25.5431L36.8037 23.1203L35.4424 23.7501ZM36.5634 26.173L35.6128 27.3333L37.6963 29.0403L38.6469 27.8799L39.5975 26.7196L37.5139 25.0127L36.5634 26.173ZM38.6469 27.8799L37.3458 28.6263L38.6785 30.9494L39.9796 30.203L41.2807 29.4566L39.948 27.1335L38.6469 27.8799ZM39.9796 30.203L38.5055 29.9251L38.011 32.5485L39.485 32.8264L40.9591 33.1043L41.4536 30.4809L39.9796 30.203ZM39.485 32.8264L38.594 31.6197L36.435 33.214L37.326 34.4207L38.217 35.6273L40.3761 34.0331L39.485 32.8264ZM37.326 34.4207L36.3667 33.2675L34.3363 34.9566L35.2956 36.1097L36.2549 37.2629L38.2853 35.5738L37.326 34.4207ZM35.2956 36.1097L34.1209 35.177L32.494 37.226L33.6687 38.1587L34.8434 39.0914L36.4703 37.0425L35.2956 36.1097ZM33.6687 38.1587L32.4552 37.277L30.8723 39.4556L32.0858 40.3373L33.2993 41.219L34.8822 39.0404L33.6687 38.1587ZM32.0858 40.3373L32.0526 38.8376L29.5453 38.8932L29.5786 40.3928L29.6118 41.8925L32.1191 41.8369L32.0858 40.3373ZM29.5786 40.3928L30.4364 39.1623L28.2749 37.6554L27.4171 38.8859L26.5592 40.1164L28.7207 41.6233L29.5786 40.3928ZM27.4171 38.8859L28.7536 38.2049L27.5417 35.8266L26.2052 36.5077L24.8687 37.1887L26.0806 39.567L27.4171 38.8859ZM26.2052 36.5077L27.5172 35.7805L26.2326 33.4627L24.9206 34.1899L23.6086 34.917L24.8932 37.2348L26.2052 36.5077ZM24.9206 34.1899L26.3792 33.8399L25.7575 31.2489L24.2989 31.5989L22.8403 31.9488L23.462 34.5398L24.9206 34.1899ZM24.2989 31.5989L25.6166 30.8821L24.333 28.5222L23.0153 29.239L21.6976 29.9557L22.9812 32.3156L24.2989 31.5989ZM23.0153 29.239L24.488 28.9543L23.9836 26.3446L22.5108 26.6292L21.0381 26.9139L21.5425 29.5237L23.0153 29.239ZM22.5108 26.6292L23.9963 26.4211L23.6288 23.7984L22.1433 24.0066L20.6579 24.2147L21.0253 26.8374L22.5108 26.6292ZM22.1433 24.0066L23.6382 23.8825L23.4192 21.2427L21.9243 21.3668L20.4295 21.4908L20.6485 24.1306L22.1433 24.0066ZM21.9243 21.3668L23.4038 21.6143L23.8415 18.998L22.362 18.7505L20.8826 18.503L20.4449 21.1192L21.9243 21.3668ZM22.362 18.7505L23.858 18.8597L24.0501 16.2294L22.5541 16.1201L21.0581 16.0109L20.866 18.6412L22.362 18.7505ZM22.5541 16.1201L23.9909 16.551L24.7502 14.0192L23.3134 13.5883L21.8766 13.1575L21.1173 15.6892L22.5541 16.1201ZM23.3134 13.5883L24.5888 14.3777L25.978 12.1334L24.7025 11.3439L23.427 10.5545L22.0379 12.7989L23.3134 13.5883ZM24.7025 11.3439L26.0634 11.9747L27.1822 9.56073L25.8212 8.93L24.4603 8.29927L23.3415 10.7132L24.7025 11.3439ZM25.8212 8.93L26.9455 9.92297L28.6977 7.93905L27.5734 6.94608L26.4491 5.95311L24.6969 7.93703L25.8212 8.93ZM27.5734 6.94608L28.5394 8.09362L30.5469 6.40373L29.5809 5.25619L28.6149 4.10865L26.6074 5.79854L27.5734 6.94608ZM29.5809 5.25619L30.3082 6.56809L32.5974 5.299L31.8701 3.9871L31.1429 2.67521L28.8536 3.9443L29.5809 5.25619ZM31.8701 3.9871L31.8217 5.48632L32.3515 5.50343L32.3999 4.00421L32.4483 2.50499L31.9185 2.48788L31.8701 3.9871ZM30.5023 40.7954L29.9722 42.1986L30.0657 42.2339L30.5958 40.8307L31.1259 39.4275L31.0324 39.3922L30.5023 40.7954ZM30.5958 40.8307L29.097 40.7708L28.9926 43.3844L30.4914 43.4443L31.9902 43.5042L32.0946 40.8906L30.5958 40.8307ZM30.4914 43.4443L29.0557 43.8789L29.5175 45.4044L30.9532 44.9698L32.3889 44.5351L31.927 43.0097L30.4914 43.4443ZM30.9532 44.9698L31.1832 46.452L33.8004 46.0459L33.5704 44.5636L33.3404 43.0814L30.7232 43.4875L30.9532 44.9698ZM33.5704 44.5636L34.1146 45.9614L36.598 44.9945L36.0538 43.5967L35.5096 42.1989L33.0262 43.1658L33.5704 44.5636ZM36.0538 43.5967L36.4099 45.0538L38.9745 44.427L38.6184 42.9699L38.2622 41.5128L35.6977 42.1396L36.0538 43.5967ZM38.6184 42.9699L38.8825 44.4465L41.4855 43.9809L41.2214 42.5044L40.9573 41.0278L38.3543 41.4934L38.6184 42.9699ZM41.2214 42.5044L41.6257 43.9488L44.1699 43.2367L43.7656 41.7922L43.3612 40.3477L40.8171 41.0599L41.2214 42.5044ZM43.7656 41.7922L44.0812 43.2586L46.6627 42.703L46.3471 41.2366L46.0315 39.7702L43.45 40.3258L43.7656 41.7922ZM46.3471 41.2366L46.7455 42.6827L49.2807 41.9843L48.8823 40.5382L48.4839 39.0921L45.9487 39.7905L46.3471 41.2366ZM48.8823 40.5382L47.4232 40.8863L47.4645 41.0591L48.9235 40.711L50.3826 40.3629L50.3413 40.1901L48.8823 40.5382ZM87.5265 4.51872L86.5532 5.66011L86.6293 5.725L87.6026 4.5836L88.5758 3.44221L88.4997 3.37733L87.5265 4.51872ZM87.6026 4.5836L87.4291 6.07354L89.8557 6.35612L90.0292 4.86619L90.2027 3.37625L87.7761 3.09367L87.6026 4.5836ZM90.0292 4.86619L89.18 6.10264L91.364 7.60267L92.2132 6.36622L93.0624 5.12977L90.8784 3.62974L90.0292 4.86619ZM92.2132 6.36622L90.9696 7.20497L92.4546 9.40677L93.6982 8.56803L94.9418 7.72928L93.4568 5.52748L92.2132 6.36622ZM93.6982 8.56803L92.604 9.59407L94.4251 11.5361L95.5193 10.51L96.6135 9.48398L94.7924 7.54198L93.6982 8.56803ZM95.5193 10.51L94.144 11.1088L95.2034 13.5421L96.5787 12.9434L97.954 12.3446L96.8946 9.91125L95.5193 10.51ZM96.5787 12.9434L95.1694 13.4571L96.0651 15.9138L97.4743 15.4L98.8836 14.8863L97.988 12.4296L96.5787 12.9434ZM97.4743 15.4L96.0166 15.7536L96.6312 18.2881L98.089 17.9346L99.5467 17.5811L98.9321 15.0465L97.4743 15.4ZM98.089 17.9346L96.6045 18.1503L96.9821 20.7485L98.4665 20.5328L99.9509 20.3171L99.5734 17.7189L98.089 17.9346ZM98.4665 20.5328L96.9724 20.4003L96.7402 23.0184L98.2343 23.1509L99.7284 23.2834L99.9606 20.6653L98.4665 20.5328ZM98.2343 23.1509L96.7474 22.9534L96.4027 25.5478L97.8896 25.7454L99.3765 25.9429L99.7212 23.3485L98.2343 23.1509ZM97.8896 25.7454L96.3911 25.6785L96.2714 28.362L97.7699 28.4289L99.2684 28.4957L99.3881 25.8122L97.8896 25.7454ZM97.7699 28.4289L96.4212 27.7723L95.2516 30.1748L96.6002 30.8314L97.9489 31.488L99.1186 29.0855L97.7699 28.4289ZM96.6002 30.8314L95.1715 30.3744L94.3636 32.9007L95.7923 33.3577L97.221 33.8146L98.0289 31.2883L96.6002 30.8314ZM95.7923 33.3577L94.4915 32.6107L93.1735 34.9058L94.4742 35.6528L95.775 36.3998L97.093 34.1046L95.7923 33.3577ZM94.4742 35.6528L93.195 34.8696L91.8183 37.1181L93.0975 37.9013L94.3768 38.6846L95.7535 36.4361L94.4742 35.6528ZM93.0975 37.9013L91.9828 36.8976L90.2487 38.8235L91.3635 39.8272L92.4782 40.8309L94.2122 38.905L93.0975 37.9013ZM91.3635 39.8272L91.0957 38.3513L88.7728 38.7728L89.0406 40.2487L89.3084 41.7246L91.6313 41.3031L91.3635 39.8272ZM89.0406 40.2487L89.893 39.0144L87.7293 37.5202L86.877 38.7545L86.0246 39.9888L88.1883 41.483L89.0406 40.2487ZM86.877 38.7545L88.0933 37.8768L86.536 35.7187L85.3197 36.5965L84.1033 37.4742L85.6606 39.6323L86.877 38.7545ZM85.3197 36.5965L86.392 35.5476L84.5402 33.6542L83.4678 34.703L82.3954 35.7518L84.2473 37.6453L85.3197 36.5965ZM83.4678 34.703L84.4106 33.5364L82.3504 31.8714L81.4076 33.038L80.4647 34.2047L82.525 35.8697L83.4678 34.703ZM81.4076 33.038L82.5496 32.0656L80.9034 30.1323L79.7613 31.1047L78.6193 32.0772L80.2655 34.0105L81.4076 33.038ZM79.7613 31.1047L81.1352 31.7068L82.0971 29.5116L80.7232 28.9096L79.3493 28.3075L78.3874 30.5027L79.7613 31.1047ZM80.7232 28.9096L82.0634 29.5832L83.2512 27.2202L81.911 26.5465L80.5708 25.8729L79.383 28.2359L80.7232 28.9096ZM81.911 26.5465L83.1515 27.3898L84.6447 25.1934L83.4043 24.3501L82.1638 23.5067L80.6705 25.7032L81.911 26.5465ZM83.4043 24.3501L84.729 25.0536L85.9708 22.7154L84.646 22.0119L83.3212 21.3083L82.0795 23.6465L83.4043 24.3501ZM84.646 22.0119L86.0133 22.6287L87.103 20.2133L85.7357 19.5965L84.3685 18.9796L83.2787 21.395L84.646 22.0119ZM85.7357 19.5965L87.2084 19.8816L87.7175 17.2523L86.2448 16.9672L84.7722 16.682L84.2631 19.3113L85.7357 19.5965ZM86.2448 16.9672L87.656 17.4758L88.5466 15.0047L87.1354 14.4961L85.7243 13.9875L84.8337 16.4586L86.2448 16.9672ZM87.1354 14.4961L88.6119 14.7611L89.0755 12.1776L87.599 11.9127L86.1226 11.6477L85.659 14.2312L87.1354 14.4961ZM87.599 11.9127L89.0911 11.7583L88.8224 9.16232L87.3304 9.31671L85.8384 9.47111L86.107 12.0671L87.599 11.9127ZM87.3304 9.31671L88.8216 9.15436L88.5366 6.5366L87.0454 6.69895L85.5542 6.86131L85.8392 9.47907L87.3304 9.31671ZM87.0454 6.69895L88.5301 6.91288L88.8767 4.50722L87.392 4.2933L85.9074 4.07937L85.5607 6.48503L87.0454 6.69895ZM87.392 4.2933L86.1037 5.06161L86.2382 5.28704L87.5265 4.51872L88.8148 3.75041L88.6803 3.52498L87.392 4.2933ZM79.4961 30.8735L79.9605 29.4472L79.8654 29.4162L79.401 30.8425L78.9365 32.2688L79.0316 32.2998L79.4961 30.8735ZM79.401 30.8425L79.7372 29.3807L77.2609 28.8111L76.9246 30.2729L76.5884 31.7348L79.0647 32.3043L79.401 30.8425ZM76.9246 30.2729L77.3258 28.8276L74.7697 28.1181L74.3685 29.5634L73.9673 31.0088L76.5235 31.7183L76.9246 30.2729ZM74.3685 29.5634L75.0202 28.2124L72.634 27.0613L71.9823 28.4123L71.3305 29.7633L73.7168 30.9144L74.3685 29.5634ZM71.9823 28.4123L72.5793 27.0362L70.1444 25.9798L69.5473 27.3558L68.9503 28.7319L71.3852 29.7884L71.9823 28.4123ZM69.5473 27.3558L69.6552 25.8597L66.9978 25.6681L66.8899 27.1642L66.782 28.6603L69.4394 28.8519L69.5473 27.3558ZM66.8899 27.1642L67.2041 25.6974L64.6125 25.1423L64.2984 26.609L63.9842 28.0758L66.5757 28.6309L66.8899 27.1642ZM64.2984 26.609L64.373 25.1109L61.7226 24.9789L61.648 26.4771L61.5734 27.9752L64.2238 28.1072L64.2984 26.609ZM61.648 26.4771L61.3205 25.0133L60.1482 25.2755L60.4757 26.7393L60.8032 28.2032L61.9755 27.9409L61.648 26.4771ZM60.4757 26.7393L60.1813 25.2685L60.0833 25.2881L60.3776 26.759L60.672 28.2298L60.7701 28.2102L60.4757 26.7393ZM60.3776 26.759L60.4929 25.2634L57.9471 25.0673L57.8319 26.5629L57.7167 28.0584L60.2624 28.2545L60.3776 26.759ZM57.8319 26.5629L57.628 25.0768L54.9975 25.4376L55.2013 26.9237L55.4052 28.4098L58.0357 28.0489L57.8319 26.5629ZM55.2013 26.9237L54.9257 25.4492L52.3338 25.9338L52.6095 27.4083L52.8851 28.8827L55.477 28.3981L55.2013 26.9237ZM52.6095 27.4083L52.1905 25.968L49.7283 26.6841L50.1472 28.1244L50.5662 29.5647L53.0284 28.8486L52.6095 27.4083ZM50.1472 28.1244L48.7995 27.4659L47.7882 29.5359L49.1359 30.1944L50.4836 30.8529L51.495 28.7829L50.1472 28.1244ZM49.1359 30.1944L47.6669 29.8911L47.1276 32.503L48.5966 32.8063L50.0656 33.1096L50.6049 30.4977L49.1359 30.1944ZM48.5966 32.8063L47.0968 32.784L47.0574 35.4321L48.5573 35.4544L50.0571 35.4766L50.0964 32.8286L48.5966 32.8063ZM48.5573 35.4544L47.0582 35.4004L46.9627 38.0537L48.4618 38.1076L49.9608 38.1616L50.0563 35.5083L48.5573 35.4544ZM48.4618 38.1076L47.0565 38.6324L47.9761 41.0949L49.3813 40.5701L50.7865 40.0454L49.867 37.5829L48.4618 38.1076ZM49.3813 40.5701L49.099 42.0433L51.6482 42.5319L51.9305 41.0587L52.2129 39.5856L49.6637 39.097L49.3813 40.5701ZM51.9305 41.0587L52.1828 42.5374L54.7989 42.0911L54.5466 40.6125L54.2944 39.1338L51.6783 39.5801L51.9305 41.0587ZM54.5466 40.6125L54.4478 42.1092L57.1214 42.2859L57.2203 40.7891L57.3192 39.2924L54.6455 39.1157L54.5466 40.6125ZM57.2203 40.7891L57.6083 42.2381L60.1827 41.5487L59.7947 40.0997L59.4067 38.6508L56.8323 39.3402L57.2203 40.7891ZM59.7947 40.0997L59.6639 41.594L60.107 41.6328L60.2377 40.1385L60.3685 38.6442L59.9255 38.6055L59.7947 40.0997ZM60.4757 26.7393L58.9759 26.7127L58.9742 26.8127L60.4739 26.8393L61.9737 26.866L61.9755 26.766L60.4757 26.7393ZM60.4739 26.8393L58.9763 26.7553L58.8338 29.2931L60.3315 29.3772L61.8291 29.4613L61.9716 26.9234L60.4739 26.8393ZM60.3315 29.3772L58.8404 29.5408L59.1306 32.1863L60.6217 32.0228L62.1127 31.8592L61.8225 29.2136L60.3315 29.3772ZM60.6217 32.0228L59.1312 31.8538L58.8325 34.4889L60.323 34.6579L61.8134 34.8268L62.1121 32.1917L60.6217 32.0228ZM60.323 34.6579L58.828 34.7809L59.0457 37.4252L60.5406 37.3022L62.0356 37.1791L61.8179 34.5348L60.323 34.6579ZM60.5406 37.3022L59.0499 37.1356L58.7554 39.7708L60.2462 39.9374L61.7369 40.1039L62.0313 37.4687L60.5406 37.3022ZM60.2462 39.9374L58.7475 39.8746L58.7391 40.0758L60.2377 40.1385L61.7364 40.2012L61.7449 40.0001L60.2462 39.9374ZM71.1736 40.9521L71.3785 39.4661L68.758 39.1049L68.5532 40.5909L68.3484 42.0768L70.9688 42.438L71.1736 40.9521ZM68.5532 40.5909L68.6629 39.0949L66.03 38.9018L65.9203 40.3978L65.8106 41.8938L68.4435 42.0868L68.5532 40.5909ZM65.9203 40.3978L65.9802 38.899L63.3407 38.7936L63.2808 40.2924L63.221 41.7912L65.8604 41.8966L65.9203 40.3978ZM63.2808 40.2924L63.329 38.7931L60.688 38.7083L60.6399 40.2075L60.5917 41.7067L63.2327 41.7916L63.2808 40.2924ZM60.6399 40.2075L60.8935 38.7291L60.4914 38.6601L60.2377 40.1385L59.9841 41.6169L60.3862 41.6859L60.6399 40.2075ZM71.179 28.633L69.679 28.6323L69.679 28.7323L71.179 28.733L72.679 28.7337L72.679 28.6337L71.179 28.633ZM71.179 28.733L69.6809 28.6563L69.5509 31.1963L71.049 31.2729L72.547 31.3496L72.677 28.8097L71.179 28.733ZM71.049 31.2729L69.5529 31.3815L69.7445 34.0216L71.2406 33.913L72.7366 33.8045L72.545 31.1644L71.049 31.2729ZM71.2406 33.913L69.7412 33.9554L69.8157 36.5954L71.3151 36.5531L72.8145 36.5107L72.74 33.8707L71.2406 33.913ZM71.3151 36.5531L69.8156 36.5167L69.7515 39.1566L71.251 39.193L72.7506 39.2294L72.8147 36.5895L71.3151 36.5531ZM71.251 39.193L69.7563 39.0671L69.6081 40.8261L71.1028 40.952L72.5975 41.078L72.7457 39.319L71.251 39.193ZM71.1028 40.952L71.1022 42.452L71.173 42.4521L71.1736 40.9521L71.1743 39.4521L71.1035 39.452L71.1028 40.952ZM71.1736 40.9521L70.8368 42.4138L70.9343 42.4362L71.2711 40.9745L71.6079 39.5128L71.5104 39.4904L71.1736 40.9521ZM71.2711 40.9745L70.9979 42.4494L73.4977 42.9125L73.7709 41.4376L74.0442 39.9627L71.5443 39.4996L71.2711 40.9745ZM73.7709 41.4376L73.3573 42.8794L75.8984 43.6085L76.3121 42.1667L76.7258 40.7249L74.1846 39.9958L73.7709 41.4376ZM76.3121 42.1667L76.0373 43.6413L78.635 44.1254L78.9098 42.6508L79.1845 41.1761L76.5869 40.6921L76.3121 42.1667ZM78.9098 42.6508L78.4668 44.0839L80.9958 44.8656L81.4388 43.4325L81.8818 41.9994L79.3527 41.2177L78.9098 42.6508ZM81.4388 43.4325L81.1802 44.91L83.7844 45.3658L84.043 43.8882L84.3015 42.4107L81.6974 41.955L81.4388 43.4325ZM84.043 43.8882L83.5555 45.3068L86.066 46.1694L86.5534 44.7508L87.0408 43.3322L84.5304 42.4696L84.043 43.8882ZM86.5534 44.7508L86.4606 46.2479L89.1316 46.4135L89.2244 44.9164L89.3172 43.4193L86.6462 43.2537L86.5534 44.7508ZM89.2244 44.9164L88.3223 46.1148L88.6953 46.3956L89.5974 45.1971L90.4995 43.9987L90.1265 43.718L89.2244 44.9164ZM40.4818 31.0486L40.8551 32.5014L40.9519 32.4765L40.5786 31.0237L40.2053 29.5709L40.1085 29.5958L40.4818 31.0486ZM40.5786 31.0237L41.0958 32.4317L43.4922 31.5514L42.9749 30.1434L42.4577 28.7354L40.0614 29.6157L40.5786 31.0237ZM42.9749 30.1434L43.0881 31.6392L45.7619 31.4368L45.6487 29.9411L45.5355 28.4454L42.8618 28.6477L42.9749 30.1434ZM45.6487 29.9411L46.0005 31.3993L48.5671 30.7801L48.2154 29.3219L47.8636 27.8637L45.2969 28.4829L45.6487 29.9411ZM48.2154 29.3219L49.3063 30.3514L49.6307 30.0076L48.5398 28.9781L47.4489 27.9486L47.1244 28.2924L48.2154 29.3219ZM89.9811 41.0561L88.4956 41.264L88.5094 41.363L89.9949 41.1551L91.4805 40.9472L91.4666 40.8482L89.9811 41.0561ZM89.9949 41.1551L88.4975 41.2425L88.6454 43.7792L90.1429 43.6918L91.6403 43.6045L91.4924 41.0678L89.9949 41.1551ZM90.1429 43.6918L88.6444 43.7597L88.7638 46.3983L90.2623 46.3304L91.7607 46.2626L91.6413 43.624L90.1429 43.6918ZM90.2623 46.3304L88.8293 46.7737L89.6139 49.3105L91.0469 48.8673L92.4799 48.4241L91.6953 45.8872L90.2623 46.3304ZM91.0469 48.8673L89.5593 49.0595L89.8982 51.683L91.3858 51.4908L92.8735 51.2986L92.5345 48.6751L91.0469 48.8673ZM91.3858 51.4908L89.911 51.7646L90.3928 54.3603L91.8676 54.0866L93.3424 53.8129L92.8606 51.2171L91.3858 51.4908ZM91.8676 54.0866L90.4315 54.5198L91.1978 57.0602L92.6339 56.627L94.07 56.1939L93.3037 53.6535L91.8676 54.0866ZM92.6339 56.627L91.1452 56.8115L91.4741 59.4656L92.9627 59.2812L94.4513 59.0968L94.1225 56.4426L92.6339 56.627ZM92.9627 59.2812L91.4678 59.1585L91.2517 61.7898L92.7467 61.9126L94.2417 62.0353L94.4577 59.4039L92.9627 59.2812ZM92.7467 61.9126L91.2877 61.5641L90.6683 64.1571L92.1273 64.5056L93.5862 64.8541L94.2056 62.2611L92.7467 61.9126ZM92.1273 64.5056L90.6285 64.4451L90.5219 67.0869L92.0206 67.1474L93.5194 67.2079L93.626 64.5661L92.1273 64.5056ZM92.0206 67.1474L90.5409 66.9014L90.1071 69.5121L91.5868 69.758L93.0665 70.0039L93.5003 67.3933L92.0206 67.1474ZM91.5868 69.758L90.0896 69.6664L89.9282 72.3029L91.4254 72.3946L92.9226 72.4862L93.084 69.8497L91.5868 69.758ZM91.4254 72.3946L89.9254 72.4049L89.9437 75.0585L91.4436 75.0482L92.9436 75.0379L92.9253 72.3843L91.4254 72.3946ZM91.4436 75.0482L89.9521 74.8895L89.6938 77.3158L91.1854 77.4745L92.677 77.6333L92.9352 75.207L91.4436 75.0482ZM91.1854 77.4745L91.3273 75.9813L91.2624 75.9751L91.1205 77.4684L90.9787 78.9617L91.0435 78.9678L91.1854 77.4745ZM30.1214 45.5422L28.6427 45.2903L28.626 45.3889L30.1046 45.6408L31.5833 45.8927L31.6001 45.7941L30.1214 45.5422ZM30.1046 45.6408L28.6541 45.2588L28.0176 47.6758L29.4681 48.0578L30.9187 48.4398L31.5552 46.0228L30.1046 45.6408ZM29.4681 48.0578L28.0494 47.5707L27.1808 50.1003L28.5995 50.5875L30.0182 51.0746L30.8868 48.545L29.4681 48.0578ZM28.5995 50.5875L27.1019 50.5022L26.9511 53.1501L28.4487 53.2354L29.9463 53.3207L30.0971 50.6728L28.5995 50.5875ZM28.4487 53.2354L26.9508 53.1566L26.8117 55.7974L28.3097 55.8763L29.8076 55.9552L29.9466 53.3143L28.4487 53.2354ZM28.3097 55.8763L26.8097 55.8702L26.7997 58.3297L28.2997 58.3358L29.7997 58.3419L29.8097 55.8824L28.3097 55.8763ZM28.2997 58.3358L28.5885 59.8078L31.1177 59.3115L30.8289 57.8396L30.5401 56.3676L28.0109 56.8639L28.2997 58.3358ZM30.8289 57.8396L31.4628 59.1991L33.8353 58.0929L33.2015 56.7334L32.5676 55.3739L30.1951 56.4801L30.8289 57.8396ZM33.2015 56.7334L33.5984 58.1799L36.1928 57.4681L35.7959 56.0216L35.399 54.575L32.8046 55.2869L33.2015 56.7334ZM35.7959 56.0216L36.4881 57.3523L38.8276 56.1354L38.1354 54.8047L37.4432 53.4739L35.1037 54.6908L35.7959 56.0216ZM38.1354 54.8047L38.7696 56.164L41.1489 55.0541L40.5148 53.6947L39.8806 52.3354L37.5013 53.4453L38.1354 54.8047ZM40.5148 53.6947L41.0477 55.0968L43.5025 54.1637L42.9696 52.7616L42.4366 51.3595L39.9818 52.2926L40.5148 53.6947ZM42.9696 52.7616L42.7891 54.2507L45.4014 54.5674L45.5819 53.0783L45.7625 51.5892L43.1501 51.2725L42.9696 52.7616ZM45.5819 53.0783L45.1024 54.4996L47.5822 55.3362L48.0617 53.9149L48.5412 52.4936L46.0614 51.657L45.5819 53.0783ZM48.0617 53.9149L47.69 55.3681L50.265 56.0268L50.6367 54.5736L51.0084 53.1204L48.4334 52.4617L48.0617 53.9149ZM50.6367 54.5736L49.909 55.8852L52.228 57.1717L52.9557 55.8601L53.6834 54.5484L51.3644 53.2619L50.6367 54.5736ZM52.9557 55.8601L52.152 57.1266L54.3917 58.5479L55.1954 57.2815L55.9992 56.015L53.7594 54.5936L52.9557 55.8601ZM55.1954 57.2815L54.198 58.4018L56.1794 60.1659L57.1769 59.0455L58.1743 57.9252L56.1929 56.1611L55.1954 57.2815ZM57.1769 59.0455L56.0593 60.0461L57.8235 62.0166L58.9411 61.0161L60.0586 60.0156L58.2944 58.045L57.1769 59.0455ZM58.9411 61.0161L58.2167 62.3296L58.9512 62.7347L59.6756 61.4212L60.4 60.1077L59.6655 59.7026L58.9411 61.0161ZM59.6756 61.4212L58.176 61.4559L58.1783 61.5559L59.6779 61.5212L61.1775 61.4864L61.1752 61.3864L59.6756 61.4212ZM59.6779 61.5212L58.1839 61.6547L58.4106 64.1902L59.9046 64.0566L61.3987 63.923L61.172 61.3876L59.6779 61.5212ZM59.9046 64.0566L58.4077 63.9598L58.2367 66.6044L59.7336 66.7013L61.2304 66.7981L61.4015 64.1534L59.9046 64.0566ZM59.7336 66.7013L58.2344 66.651L58.1458 69.2938L59.645 69.344L61.1441 69.3943L61.2327 66.7515L59.7336 66.7013ZM59.645 69.344L58.1528 69.4974L58.4235 72.1318L59.9157 71.9785L61.4078 71.8251L61.1371 69.1907L59.645 69.344ZM59.9157 71.9785L58.4163 72.0208L58.4907 74.6598L59.9901 74.6174L61.4896 74.5751L61.4151 71.9361L59.9157 71.9785ZM59.9901 74.6174L58.4971 74.7622L58.7526 77.397L60.2456 77.2522L61.7386 77.1075L61.4832 74.4727L59.9901 74.6174ZM60.2456 77.2522L58.7459 77.2213L58.6911 79.881L60.1908 79.9119L61.6904 79.9428L61.7453 77.2831L60.2456 77.2522ZM60.1908 79.9119L58.7268 79.5851L58.1411 82.2089L59.6051 82.5357L61.0691 82.8624L61.6547 80.2387L60.1908 79.9119ZM59.6051 82.5357L58.139 82.8526L58.7155 85.5201L60.1817 85.2032L61.6478 84.8863L61.0712 82.2188L59.6051 82.5357ZM60.1817 85.2032L59.8055 86.6553L62.3913 87.3251L62.7675 85.8731L63.1436 84.421L60.5578 83.7511L60.1817 85.2032ZM62.7675 85.8731L63.0285 87.3502L65.6401 86.8887L65.3791 85.4116L65.1181 83.9345L62.5065 84.3959L62.7675 85.8731ZM65.3791 85.4116L66.5359 86.3664L68.2222 84.3234L67.0653 83.3686L65.9085 82.4138L64.2222 84.4567L65.3791 85.4116ZM67.0653 83.3686L68.5598 83.2402L68.4526 81.9929L66.9581 82.1213L65.4636 82.2497L65.5708 83.497L67.0653 83.3686ZM59.6756 61.4212L60.5555 62.636L60.6365 62.5774L59.7566 61.3625L58.8767 60.1477L58.7957 60.2063L59.6756 61.4212ZM59.7566 61.3625L60.5969 62.605L62.7044 61.1796L61.8641 59.9371L61.0237 58.6946L58.9162 60.12L59.7566 61.3625ZM61.8641 59.9371L62.8981 61.0238L64.822 59.193L63.788 58.1064L62.7539 57.0197L60.8301 58.8505L61.8641 59.9371ZM63.788 58.1064L64.7403 59.2653L66.7876 57.5829L65.8352 56.424L64.8829 55.2651L62.8356 56.9475L63.788 58.1064ZM65.8352 56.424L66.5917 57.7193L68.8823 56.3814L68.1258 55.0861L67.3693 53.7909L65.0787 55.1287L65.8352 56.424ZM68.1258 55.0861L68.7379 56.4556L71.1523 55.3765L70.5403 54.007L69.9282 52.6376L67.5138 53.7167L68.1258 55.0861ZM70.5403 54.007L71.1465 55.3791L73.5481 54.3178L72.9418 52.9458L72.3356 51.5738L69.934 52.635L70.5403 54.007ZM72.9418 52.9458L73.1452 54.432L75.783 54.071L75.5797 52.5848L75.3763 51.0987L72.7385 51.4597L72.9418 52.9458ZM75.5797 52.5848L75.3428 54.066L77.9684 54.4858L78.2052 53.0046L78.4421 51.5234L75.8165 51.1036L75.5797 52.5848ZM78.2052 53.0046L77.9627 54.4849L80.5634 54.911L80.8059 53.4308L81.0485 51.9505L78.4478 51.5244L78.2052 53.0046ZM80.8059 53.4308L80.3978 54.8742L82.9557 55.5974L83.3638 54.154L83.7719 52.7106L81.214 51.9874L80.8059 53.4308ZM83.3638 54.154L82.5027 55.3822L84.6845 56.9119L85.5456 55.6837L86.4067 54.4554L84.2249 52.9258L83.3638 54.154ZM85.5456 55.6837L84.7079 56.9279L86.8836 58.3928L87.7214 57.1486L88.5591 55.9043L86.3833 54.4394L85.5456 55.6837ZM87.7214 57.1486L86.9676 58.4454L89.2679 59.7824L90.0216 58.4855L90.7754 57.1886L88.4751 55.8517L87.7214 57.1486ZM90.0216 58.4855L89.713 59.9534L92.3259 60.5028L92.6345 59.0349L92.9432 57.567L90.3302 57.0176L90.0216 58.4855ZM92.6345 59.0349L92.6103 60.5347L95.2541 60.5774L95.2784 59.0776L95.3027 57.5778L92.6588 57.5351L92.6345 59.0349ZM95.2784 59.0776L95.356 60.5756L98.0358 60.4367L97.9582 58.9387L97.8805 57.4407L95.2008 57.5797L95.2784 59.0776ZM97.9582 58.9387L96.9268 60.0279L98.8742 61.8722L99.9057 60.783L100.937 59.6939L98.9896 57.8496L97.9582 58.9387ZM99.9057 60.783L98.4194 60.9859L98.7731 63.5776L100.259 63.3748L101.746 63.1719L101.392 60.5802L99.9057 60.783ZM100.259 63.3748L98.7594 63.3809L98.77 65.9881L100.27 65.9819L101.77 65.9758L101.759 63.3686L100.259 63.3748ZM100.27 65.9819L98.8028 65.6699L98.257 68.2369L99.7242 68.5489L101.191 68.8609L101.737 66.2939L100.27 65.9819ZM99.7242 68.5489L98.2555 68.2439L97.7152 70.8461L99.1839 71.151L100.653 71.456L101.193 68.8538L99.7242 68.5489ZM99.1839 71.151L97.837 70.4908L96.6678 72.8761L98.0147 73.5363L99.3616 74.1965L100.531 71.8112L99.1839 71.151ZM98.0147 73.5363L96.9181 72.5129L95.1326 74.4262L96.2292 75.4496L97.3259 76.473L99.1114 74.5597L98.0147 73.5363ZM96.2292 75.4496L95.5686 74.1029L93.2633 75.2337L93.9239 76.5804L94.5845 77.9271L96.8898 76.7963L96.2292 75.4496ZM93.9239 76.5804L93.5249 75.1344L91.0088 75.8288L91.4078 77.2747L91.8068 78.7207L94.3229 78.0264L93.9239 76.5804ZM91.4078 77.2747L90.5692 76.031L90.282 76.2247L91.1205 77.4684L91.9591 78.7121L92.2463 78.5184L91.4078 77.2747ZM91.1205 77.4684L89.7128 76.9503L89.6783 77.0442L91.086 77.5622L92.4937 78.0803L92.5283 77.9864L91.1205 77.4684ZM91.086 77.5622L89.6312 77.1966L89.009 79.6726L90.4638 80.0382L91.9186 80.4038L92.5408 77.9278L91.086 77.5622ZM90.4638 80.0382L89.1241 79.3635L87.9282 81.7382L89.268 82.4129L90.6077 83.0875L91.8035 80.7128L90.4638 80.0382ZM89.268 82.4129L87.8644 81.8836L86.933 84.3538L88.3365 84.883L89.7401 85.4123L90.6715 82.9421L89.268 82.4129ZM88.3365 84.883L86.8798 84.5252L86.2455 87.1072L87.7022 87.4651L89.1589 87.8229L89.7932 85.2409L88.3365 84.883ZM87.7022 87.4651L86.3702 86.7753L85.1486 89.1342L86.4806 89.824L87.8126 90.5138L89.0342 88.1549L87.7022 87.4651ZM86.4806 89.824L85.0456 89.3871L84.2728 91.9258L85.7078 92.3626L87.1427 92.7995L87.9156 90.2608L86.4806 89.824ZM85.7078 92.3626L84.3625 91.699L83.1919 94.0722L84.5371 94.7358L85.8824 95.3994L87.053 93.0262L85.7078 92.3626ZM84.5371 94.7358L83.1615 94.1379L82.1065 96.5652L83.4821 97.1631L84.8578 97.761L85.9128 95.3337L84.5371 94.7358ZM83.4821 97.1631L82.2695 96.2802L80.7002 98.4356L81.9129 99.3185L83.1255 100.201L84.6948 98.046L83.4821 97.1631ZM81.9129 99.3185L80.5175 98.7682L79.5365 101.255L80.9319 101.806L82.3273 102.356L83.3083 99.8688L81.9129 99.3185ZM80.9319 101.806L79.7474 100.886L78.1191 102.981L79.3037 103.902L80.4882 104.822L82.1165 102.726L80.9319 101.806ZM79.3037 103.902L78.1258 102.973L76.4914 105.046L77.6693 105.974L78.8471 106.903L80.4815 104.83L79.3037 103.902ZM77.6693 105.974L76.5475 104.979L74.7982 106.949L75.92 107.945L77.0418 108.941L78.7911 106.97L77.6693 105.974ZM75.92 107.945L74.7326 107.028L73.1083 109.133L74.2957 110.049L75.4832 110.966L77.1075 108.861L75.92 107.945ZM74.2957 110.049L73.4628 108.802L71.2479 110.281L72.0808 111.528L72.9137 112.776L75.1286 111.297L74.2957 110.049ZM72.0808 111.528L71.0844 110.407L69.0998 112.171L70.0963 113.292L71.0927 114.413L73.0772 112.649L72.0808 111.528ZM70.0963 113.292L69.4835 111.923L67.0633 113.006L67.6761 114.375L68.2889 115.744L70.7091 114.661L70.0963 113.292ZM67.6761 114.375L67.225 112.945L64.7112 113.737L65.1622 115.168L65.6133 116.598L68.1271 115.806L67.6761 114.375ZM65.1622 115.168L64.8354 113.704L62.2679 114.277L62.5947 115.741L62.9215 117.205L65.489 116.632L65.1622 115.168ZM62.5947 115.741L62.3777 114.257L59.7564 114.64L59.9734 116.124L60.1904 117.608L62.8117 117.225L62.5947 115.741ZM59.9734 116.124L60.0285 114.625L57.372 114.527L57.3169 116.026L57.2618 117.525L59.9182 117.623L59.9734 116.124ZM57.3169 116.026L57.7455 114.589L55.2002 113.83L54.7716 115.268L54.343 116.705L56.8883 117.464L57.3169 116.026ZM54.7716 115.268L55.3515 113.884L52.9388 112.873L52.3589 114.256L51.779 115.64L54.1917 116.651L54.7716 115.268ZM52.3589 114.256L52.9148 112.863L50.4712 111.888L49.9153 113.281L49.3594 114.674L51.8031 115.649L52.3589 114.256ZM49.9153 113.281L50.9114 112.16L48.9454 110.414L47.9493 111.535L46.9532 112.657L48.9192 114.403L49.9153 113.281ZM47.9493 111.535L48.9526 110.42L47.0035 108.666L46.0002 109.781L44.9969 110.896L46.946 112.65L47.9493 111.535ZM46.0002 109.781L47.0134 108.675L45.0556 106.882L44.0424 107.988L43.0292 109.094L44.9871 110.887L46.0002 109.781ZM44.0424 107.988L45.3023 107.174L43.8604 104.942L42.6005 105.756L41.3406 106.57L42.7825 108.802L44.0424 107.988ZM42.6005 105.756L43.679 104.714L41.8275 102.799L40.749 103.841L39.6705 104.884L41.522 106.799L42.6005 105.756ZM40.749 103.841L42.0249 103.052L40.6319 100.799L39.3559 101.587L38.08 102.376L39.4731 104.63L40.749 103.841ZM39.3559 101.587L40.6667 100.858L39.381 98.5468L38.0702 99.2761L36.7593 100.005L38.0451 102.316L39.3559 101.587ZM38.0702 99.2761L39.3787 98.5427L38.0886 96.241L36.7801 96.9744L35.4716 97.7077L36.7617 100.009L38.0702 99.2761ZM36.7801 96.9744L38.1244 96.3088L36.954 93.945L35.6098 94.6106L34.2655 95.2762L35.4359 97.6399L36.7801 96.9744ZM35.6098 94.6106L36.9585 93.9541L35.805 91.5844L34.4563 92.241L33.1076 92.8975L34.2611 95.2671L35.6098 94.6106ZM34.4563 92.241L35.853 91.694L34.8916 89.2391L33.4949 89.786L32.0982 90.333L33.0596 92.7879L34.4563 92.241ZM33.4949 89.786L34.8796 89.2093L33.8673 86.7789L32.4826 87.3557L31.0979 87.9324L32.1102 90.3628L33.4949 89.786ZM32.4826 87.3557L33.9052 86.8802L33.0707 84.3831L31.6481 84.8586L30.2254 85.334L31.0599 87.8311L32.4826 87.3557ZM31.6481 84.8586L33.0579 84.3462L32.1579 81.8698L30.7481 82.3822L29.3383 82.8945L30.2383 85.3709L31.6481 84.8586ZM30.7481 82.3822L32.1992 82.0025L31.5326 79.4545L30.0814 79.8342L28.6303 80.2139L29.2969 82.7618L30.7481 82.3822ZM30.0814 79.8342L31.5204 79.4107L30.7756 76.8802L29.3366 77.3038L27.8977 77.7273L28.6425 80.2578L30.0814 79.8342ZM29.3366 77.3038L30.7632 76.8401L29.9415 74.3118L28.5149 74.7754L27.0884 75.239L27.9101 77.7674L29.3366 77.3038ZM28.5149 74.7754L29.9954 74.5344L29.57 71.9208L28.0895 72.1618L26.609 72.4028L27.0344 75.0164L28.5149 74.7754ZM28.0895 72.1618L29.5826 72.0188L29.3302 69.3833L27.8371 69.5263L26.3439 69.6693L26.5963 72.3048L28.0895 72.1618ZM27.8371 69.5263L29.3352 69.4511L29.2027 66.8099L27.7046 66.885L26.2064 66.9602L26.3389 69.6014L27.8371 69.5263ZM27.7046 66.885L29.1946 66.7129L28.8902 64.0771L27.4001 64.2492L25.91 64.4213L26.2145 67.0571L27.7046 66.885ZM27.4001 64.2492L28.9001 64.2386L28.8813 61.5866L27.3814 61.5973L25.8814 61.6079L25.9002 64.2598L27.4001 64.2492ZM27.3814 61.5973L28.8528 61.8888L29.3716 59.2701L27.9002 58.9786L26.4288 58.6871L25.91 61.3057L27.3814 61.5973ZM27.9002 58.9786L29.3551 58.6135L29.274 58.2904L27.8191 58.6555L26.3643 59.0206L26.4453 59.3437L27.9002 58.9786ZM28.5866 76.6L29.5962 75.4906L29.5222 75.4233L28.5126 76.5327L27.503 77.642L27.577 77.7093L28.5866 76.6ZM28.5126 76.5327L28.4441 75.0342L25.8458 75.153L25.9143 76.6514L25.9827 78.1499L28.5811 78.0311L28.5126 76.5327ZM25.9143 76.6514L26.5631 75.299L24.106 74.1202L23.4571 75.4726L22.8083 76.825L25.2654 78.0038L25.9143 76.6514ZM23.4571 75.4726L24.8125 74.8298L23.6652 72.4107L22.3099 73.0534L20.9546 73.6962L22.1018 76.1153L23.4571 75.4726ZM22.3099 73.0534L23.6414 72.3627L22.4308 70.029L21.0993 70.7198L19.7678 71.4105L20.9784 73.7442L22.3099 73.0534ZM21.0993 70.7198L22.507 70.2017L21.5913 67.7136L20.1836 68.2316L18.7759 68.7497L19.6916 71.2378L21.0993 70.7198ZM20.1836 68.2316L21.6814 68.1507L21.5382 65.498L20.0404 65.5788L18.5425 65.6597L18.6858 68.3125L20.1836 68.2316ZM20.0404 65.5788L21.5104 65.2807L20.9777 62.6538L19.5076 62.9519L18.0375 63.25L18.5703 65.877L20.0404 65.5788ZM19.5076 62.9519L20.9265 63.4384L21.795 60.9054L20.3761 60.4189L18.9572 59.9324L18.0887 62.4654L19.5076 62.9519ZM20.3761 60.4189L21.3768 61.5363L23.3451 59.7736L22.3444 58.6562L21.3437 57.5388L19.3754 59.3014L20.3761 60.4189ZM22.3444 58.6562L22.4564 60.152L25.1321 59.9516L25.0201 58.4558L24.9081 56.96L22.2323 57.1604L22.3444 58.6562ZM25.0201 58.4558L25.043 59.9556L27.0746 59.9246L27.0517 58.4248L27.0288 56.925L24.9972 56.956L25.0201 58.4558ZM27.0517 58.4248H25.5517V58.6555H27.0517H28.5517V58.4248H27.0517ZM40.098 76.9451H38.598V77.0451H40.098H41.598V76.9451H40.098ZM40.098 77.0451L38.6061 76.8897L38.401 78.8603L39.8929 79.0156L41.3849 79.1709L41.59 77.2004L40.098 77.0451ZM39.8929 79.0156L38.4083 79.23L38.7073 81.3005L40.1919 81.0861L41.6765 80.8717L41.3775 78.8012L39.8929 79.0156ZM40.1919 81.0861L38.6976 80.9563L38.6077 81.9916L40.102 82.1213L41.5964 82.2511L41.6863 81.2159L40.1919 81.0861ZM40.102 82.1213V80.6213H40.098V82.1213V83.6213H40.102V82.1213ZM46.6212 77.2901H45.1212V77.3901H46.6212H48.1212V77.2901H46.6212ZM46.6212 77.3901L45.1236 77.3056L45.028 79.0001L46.5256 79.0846L48.0232 79.1691L48.1188 77.4746L46.6212 77.3901ZM46.5256 79.0846L45.0461 79.3314L45.3454 81.1259L46.825 80.879L48.3045 80.6322L48.0052 78.8378L46.5256 79.0846ZM46.825 80.879L45.4043 80.3978L45.1004 81.2951L46.5211 81.7763L47.9418 82.2575L48.2457 81.3602L46.825 80.879ZM46.5211 81.7763V83.2763H46.6212V81.7763V80.2763H46.5211V81.7763ZM73.4813 77.2901H71.9813V77.3901H73.4813H74.9813V77.2901H73.4813ZM73.4813 77.3901L71.9828 77.3228L71.9067 79.0173L73.4052 79.0846L74.9037 79.1519L74.9798 77.4574L73.4813 77.3901ZM73.4052 79.0846L71.9191 79.2883L72.1651 81.0827L73.6512 80.879L75.1373 80.6753L74.8913 78.8809L73.4052 79.0846ZM73.6512 80.879L72.2335 80.3888L71.9233 81.286L73.3409 81.7763L74.7585 82.2665L75.0688 81.3693L73.6512 80.879ZM73.3409 81.7763V83.2763H73.4813V81.7763V80.2763H73.3409V81.7763ZM80.0045 77.6352H78.5045V77.7352H80.0045H81.5045V77.6352H80.0045ZM80.0045 77.7352L78.523 77.5001L78.2541 79.1946L79.7356 79.4297L81.2171 79.6647L81.4859 77.9703L80.0045 77.7352ZM79.7356 79.4297L78.236 79.4627L78.2754 81.2571L79.7751 81.2241L81.2747 81.1911L81.2352 79.3967L79.7356 79.4297ZM79.7751 81.2241L78.2757 81.1806L78.2497 82.0779L79.7491 82.1213L81.2484 82.1648L81.2744 81.2676L79.7751 81.2241ZM79.7491 82.1213V83.6213H80.0045V82.1213V80.6213H79.7491V82.1213ZM53.9118 81.7763L53.0358 82.9939L53.117 83.0523L53.993 81.8347L54.869 80.6171L54.7878 80.5586L53.9118 81.7763ZM53.993 81.8347L52.5359 82.191L53.1109 84.542L54.568 84.1857L56.0251 83.8293L55.45 81.4783L53.993 81.8347ZM54.568 84.1857L53.817 85.4842L55.9359 86.7096L56.6869 85.4111L57.4378 84.1126L55.319 82.8872L54.568 84.1857ZM56.6869 85.4111L56.2701 86.852L58.8344 87.5938L59.2512 86.1528L59.668 84.7119L57.1037 83.9702L56.6869 85.4111ZM59.2512 86.1528L59.9899 87.4584L60.4062 87.2228L59.6675 85.9173L58.9289 84.6117L58.5126 84.8473L59.2512 86.1528ZM48.5398 96.615L49.1921 97.9657L49.2821 97.9222L48.6298 96.5715L47.9776 95.2207L47.8875 95.2642L48.5398 96.615ZM48.6298 96.5715L50.0069 97.1662L51.0029 94.8601L49.6259 94.2654L48.2488 93.6706L47.2528 95.9767L48.6298 96.5715ZM49.6259 94.2654L50.564 95.4358L52.6066 93.7987L51.6685 92.6282L50.7304 91.4578L48.6877 93.0949L49.6259 94.2654ZM51.6685 92.6282L51.9372 94.1039L54.5379 93.6304L54.2692 92.1547L54.0005 90.6789L51.3998 91.1525L51.6685 92.6282ZM54.2692 92.1547L54.4666 93.6416L57.0848 93.294L56.8874 91.807L56.6899 90.3201L54.0717 90.6677L54.2692 92.1547ZM56.8874 91.807L56.7391 93.2997L59.3745 93.5616L59.5228 92.0689L59.6711 90.5763L57.0357 90.3144L56.8874 91.807ZM59.5228 92.0689L59.4063 93.5644L62.0381 93.7694L62.1546 92.274L62.2712 90.7785L59.6394 90.5734L59.5228 92.0689ZM62.1546 92.274L62.2502 93.7709L64.8993 93.6019L64.8037 92.1049L64.7082 90.608L62.0591 90.777L62.1546 92.274ZM64.8037 92.1049L64.5882 93.5894L67.1939 93.9676L67.4094 92.4832L67.6249 90.9987L65.0192 90.6205L64.8037 92.1049ZM67.4094 92.4832L67.128 93.9566L69.7408 94.4556L70.0222 92.9822L70.3036 91.5088L67.6908 91.0098L67.4094 92.4832ZM70.0222 92.9822L68.7809 93.8244L70.2458 95.9832L71.487 95.141L72.7282 94.2988L71.2634 92.14L70.0222 92.9822ZM71.487 95.141L70.0024 95.3551L70.3736 97.9296L71.8582 97.7155L73.3429 97.5014L72.9717 94.9269L71.487 95.141ZM71.8582 97.7155L70.5305 97.0176L69.3226 99.3156L70.6504 100.013L71.9781 100.711L73.186 98.4134L71.8582 97.7155ZM70.6504 100.013L69.5357 99.0097L67.7702 100.97L68.8849 101.974L69.9995 102.978L71.765 101.017L70.6504 100.013ZM68.8849 101.974L68.4134 100.55L65.8589 101.396L66.3304 102.82L66.8018 104.244L69.3563 103.398L68.8849 101.974ZM66.3304 102.82L66.213 101.324L63.5553 101.533L63.6726 103.028L63.79 104.524L66.4478 104.315L66.3304 102.82ZM63.6726 103.028L63.8224 101.536L61.1808 101.271L61.031 102.763L60.8812 104.256L63.5228 104.521L63.6726 103.028ZM61.031 102.763L61.0799 101.264L58.4449 101.178L58.396 102.677L58.3471 104.176L60.9821 104.262L61.031 102.763ZM58.396 102.677L58.5843 101.189L55.9612 100.857L55.773 102.345L55.5847 103.833L58.2077 104.165L58.396 102.677ZM55.773 102.345L55.9031 100.851L53.2823 100.623L53.1522 102.117L53.0221 103.611L55.6429 103.84L55.773 102.345ZM53.1522 102.117L53.3799 100.635L50.7745 100.234L50.5467 101.717L50.319 103.2L52.9244 103.6L53.1522 102.117ZM50.5467 101.717L51.5439 100.596L49.5168 98.7924L48.5196 99.913L47.5224 101.034L49.5496 102.837L50.5467 101.717ZM48.5196 99.913L50.0164 100.011L50.181 97.499L48.6842 97.4009L47.1875 97.3028L47.0228 99.8149L48.5196 99.913ZM48.6842 97.4009L48.9345 98.8799L51.4188 98.4596L51.1686 96.9806L50.9184 95.5016L48.434 95.9219L48.6842 97.4009ZM51.1686 96.9806L51.1795 98.4805L53.8241 98.4614L53.8132 96.9614L53.8024 95.4614L51.1577 95.4806L51.1686 96.9806ZM53.8132 96.9614L53.8735 98.4602L56.5134 98.3541L56.4531 96.8553L56.3928 95.3565L53.753 95.4626L53.8132 96.9614ZM56.4531 96.8553L56.5658 98.351L59.2036 98.1522L59.0908 96.6564L58.9781 95.1607L56.3403 95.3595L56.4531 96.8553ZM59.0908 96.6564L58.8619 98.1389L61.5069 98.5473L61.7358 97.0648L61.9647 95.5824L59.3197 95.174L59.0908 96.6564ZM61.7358 97.0648L61.9995 98.5415L64.6442 98.0692L64.3805 96.5926L64.1169 95.1159L61.4721 95.5882L61.7358 97.0648ZM64.3805 96.5926L64.2649 98.0881L66.9078 98.2924L67.0234 96.7969L67.1391 95.3014L64.4962 95.097L64.3805 96.5926ZM67.0234 96.7969L66.9987 98.2967L69.6486 98.3405L69.6733 96.8407L69.6981 95.3409L67.0482 95.2971L67.0234 96.7969ZM69.6733 96.8407L69.1345 98.2405L70.6174 98.8114L71.1562 97.4115L71.6951 96.0116L70.2122 95.4408L69.6733 96.8407ZM71.1562 97.4115L72.623 97.7256L72.6458 97.6192L71.179 97.3051L69.7123 96.9911L69.6895 97.0974L71.1562 97.4115ZM50.0743 67.8772L51.3482 67.0853L51.2954 67.0004L50.0215 67.7923L48.7476 68.5842L48.8004 68.6692L50.0743 67.8772ZM50.0215 67.7923L50.8638 69.0335L53.0168 67.5723L52.1745 66.3311L51.3322 65.09L49.1792 66.5511L50.0215 67.7923ZM52.1745 66.3311L53.6739 66.2891L53.6071 63.9076L52.1077 63.9496L50.6083 63.9917L50.6751 66.3732L52.1745 66.3311ZM52.1077 63.9496L53.0143 62.7546L50.9786 61.2103L50.0721 62.4053L49.1655 63.6004L51.2011 65.1447L52.1077 63.9496ZM50.0721 62.4053L50.6388 61.0165L48.1719 60.0099L47.6052 61.3987L47.0385 62.7876L49.5053 63.7942L50.0721 62.4053ZM47.6052 61.3987L47.6634 59.8999L44.9951 59.7964L44.9369 61.2952L44.8788 62.7941L47.5471 62.8976L47.6052 61.3987ZM44.9369 61.2952L44.6487 59.8232L42.027 60.3365L42.3152 61.8085L42.6034 63.2806L45.2251 62.7673L44.9369 61.2952ZM42.3152 61.8085L42.2306 60.3109L39.585 60.4603L39.6695 61.9579L39.7541 63.4555L42.3997 63.3061L42.3152 61.8085ZM39.6695 61.9579L39.1158 60.5638L36.6643 61.5375L37.218 62.9316L37.7717 64.3257L40.2232 63.3519L39.6695 61.9579ZM37.218 62.9316L36.1027 61.9286L34.5285 63.6791L35.6438 64.6821L36.7591 65.6851L38.3333 63.9346L37.218 62.9316ZM35.6438 64.6821L34.3545 65.4488L35.5607 67.4769L36.8499 66.7102L38.1391 65.9435L36.933 63.9154L35.6438 64.6821ZM36.8499 66.7102L36.044 67.9754L38.2222 69.3628L39.028 68.0977L39.8339 66.8326L37.6558 65.4451L36.8499 66.7102ZM39.028 68.0977L38.6302 69.544L41.1314 70.2319L41.5292 68.7856L41.927 67.3393L39.4258 66.6514L39.028 68.0977ZM41.5292 68.7856L41.3434 70.2741L43.9349 70.5974L44.1206 69.109L44.3064 67.6205L41.7149 67.2971L41.5292 68.7856ZM44.1206 69.109L44.2684 70.6017L46.8794 70.3432L46.7317 68.8505L46.5839 67.3578L43.9729 67.6163L44.1206 69.109ZM46.7317 68.8505L46.9628 70.3326L49.6026 69.9209L49.3715 68.4389L49.1404 66.9568L46.5006 67.3684L46.7317 68.8505ZM49.3715 68.4389L50.3079 69.6107L51.0107 69.049L50.0743 67.8772L49.1379 66.7054L48.4351 67.2671L49.3715 68.4389ZM82.3068 62.0822L82.309 60.5822L82.209 60.5821L82.2068 62.0821L82.2046 63.582L82.3046 63.5822L82.3068 62.0822ZM82.2068 62.0821L82.851 60.7274L80.5374 59.6271L79.8931 60.9817L79.2489 62.3363L81.5625 63.4367L82.2068 62.0821ZM79.8931 60.9817L80.095 59.4954L77.4609 59.1376L77.259 60.624L77.0571 62.1103L79.6913 62.4681L79.8931 60.9817ZM77.259 60.624L77.1862 59.1257L74.5382 59.2544L74.611 60.7526L74.6838 62.2509L77.3318 62.1222L77.259 60.624ZM74.611 60.7526L74.0935 59.3447L71.6188 60.2543L72.1363 61.6622L72.6537 63.0701L75.1285 62.1605L74.611 60.7526ZM72.1363 61.6622L71.5644 60.2755L69.1381 61.2761L69.71 62.6628L70.2819 64.0495L72.7082 63.0489L72.1363 61.6622ZM69.71 62.6628L68.6069 61.6463L66.7904 63.6176L67.8934 64.6341L68.9965 65.6506L70.813 63.6793L69.71 62.6628ZM67.8934 64.6341L66.5535 65.3084L67.7391 67.6642L69.079 66.9898L70.4189 66.3155L69.2333 63.9598L67.8934 64.6341ZM69.079 66.9898L68.471 68.3611L70.8504 69.4159L71.4583 68.0447L72.0662 66.6734L69.6869 65.6186L69.079 66.9898ZM71.4583 68.0447L71.1897 69.5204L73.7427 69.985L74.0112 68.5093L74.2798 67.0335L71.7269 66.5689L71.4583 68.0447ZM74.0112 68.5093L73.9646 70.0085L76.5946 70.0904L76.6412 68.5911L76.6879 67.0919L74.0579 67.01L74.0112 68.5093ZM76.6412 68.5911L76.9201 70.065L79.5112 69.5747L79.2324 68.1009L78.9535 66.627L76.3624 67.1173L76.6412 68.5911ZM79.2324 68.1009L79.6423 69.5438L82.1885 68.8204L81.7787 67.3775L81.3688 65.9346L78.8225 66.658L79.2324 68.1009ZM81.7787 67.3775L82.6285 68.6136L84.813 67.1116L83.9632 65.8756L83.1133 64.6395L80.9288 66.1415L81.7787 67.3775ZM83.9632 65.8756L85.4623 65.925L85.5421 63.5042L84.0429 63.4547L82.5438 63.4053L82.464 65.8262L83.9632 65.8756ZM84.0429 63.4547L85.0578 62.3502L83.4021 60.8289L82.3872 61.9334L81.3723 63.0379L83.0281 64.5593L84.0429 63.4547ZM82.3872 61.9334L81.0678 61.22L80.9873 61.3688L82.3068 62.0822L83.6262 62.7956L83.7067 62.6469L82.3872 61.9334Z" fill="black"/>
</g>
<defs>
<clipPath id="clip0_503_90">
<rect width="120" height="120" fill="white"/>
</clipPath>
</defs>
</svg>
