<svg width="120" height="120" viewBox="0 0 120 120" fill="none" xmlns="http://www.w3.org/2000/svg">
<path d="M111.312 114.289L112.355 114.547L111.652 117.453L110.891 117.266L108.547 117.629L108.453 117.652H108.359L105.723 117.723H105.582L103.051 117.301L100.672 117.734L100.438 117.781L100.203 117.746L97.6367 117.406H95.2344L92.5977 117.629L92.4922 117.641L92.3984 117.629L89.75 117.477V117.465L87.2773 117.348L84.7812 117.734L84.582 117.77L84.3945 117.746L81.8516 117.453L79.2969 117.477L79.2852 117.465L76.7773 117.711L76.6133 117.723L76.4492 117.699L73.918 117.383L71.3867 117.43H71.3281L68.6914 117.371H68.6445L66.1719 117.23L63.7109 117.699L63.4766 117.746L63.2305 117.711L60.7227 117.348L58.2383 117.488H58.0156L55.5898 117.242L53.1406 117.676L52.8828 117.723L52.6133 117.676L50.1172 117.242L47.6914 117.395H47.668L47.6445 117.406L42.3711 117.57H42.2539L42.1367 117.559L39.5938 117.254L37.1328 117.418L37.0508 117.43L36.957 117.418L34.5078 117.277L32 117.699L31.7891 117.734L31.5781 117.711L29.0234 117.395L26.5391 117.324L23.9492 117.512L23.8906 117.523H23.832L21.1953 117.512H21.0781L18.5 117.301L16.0508 117.395L16.0625 117.406L13.4258 117.664L13.2734 117.676L13.1211 117.664L10.625 117.395L8.16406 117.5H8V114.5H8.03516L10.5781 114.395L10.6836 114.383L10.8008 114.395L13.2852 114.664L15.7695 114.418H15.8633L18.5 114.312L18.5938 114.301L18.6758 114.312L21.3125 114.512L21.3008 114.523H23.7383L26.375 114.336L26.4453 114.324L26.5273 114.336L29.1641 114.406H29.2344L29.293 114.418L31.7305 114.699L34.1562 114.301L34.3203 114.277L34.4844 114.289L37.0156 114.43L39.582 114.254L39.7227 114.242L39.8633 114.266L42.3711 114.57L44.9141 114.488L47.5039 114.418V114.406L50.1523 114.242L50.3281 114.23L50.5039 114.266L52.8828 114.688L55.2617 114.266L55.4609 114.23L55.6602 114.242L58.1328 114.488L60.7227 114.348L60.8633 114.336L61.0156 114.359L63.418 114.711L65.8086 114.266L65.9844 114.23L66.1602 114.242L68.7969 114.371L68.7852 114.383L71.3633 114.43L73.9766 114.383H74.082L74.1875 114.395L76.6836 114.711L79.1445 114.477H79.2734L81.9102 114.453H82.0039L82.0859 114.465L84.5469 114.746L86.9727 114.371L87.125 114.348L87.2773 114.359L89.9141 114.488H89.9258L92.4453 114.641L95 114.43L95.0586 114.418H95.1055L97.7539 114.406H97.8594L97.9648 114.418L100.367 114.746L102.77 114.312L103.027 114.266L103.285 114.301L105.816 114.723L108.137 114.664L110.738 114.266L111.031 114.219L111.312 114.289Z" fill="black"/>
<path d="M61.043 42.2773L63.6562 42.8281L63.6445 42.8398L66.1758 43.2266H66.1992L68.8125 43.6836L68.9766 43.707L69.1406 43.7773L71.5781 44.7969L71.625 44.8203L71.6836 44.8438L73.8633 45.9688L76.3711 46.8945L76.6055 46.9766L76.8047 47.1406L78.8086 48.7812L80.9297 50.3398H80.918L83.0742 51.8516L83.2383 51.9688L83.3672 52.1328L84.9727 54.0898L86.8125 55.9883L86.8594 56.0352L86.8945 56.082L88.5586 58.1328L88.6289 58.2266L90.0352 60.2656L91.8633 62.0469L92.0625 62.2461L92.1797 62.4922L93.2578 64.8359L94.6406 66.9219L94.7109 67.0391L94.7695 67.168L95.7188 69.418L97.2188 71.4453L97.3945 71.6797L97.4648 71.9609L98.0859 74.3984L99.1875 76.6367L99.2109 76.6836L99.2344 76.7188L100.254 79.1562L100.266 79.1797V79.1914L101.215 81.6641L101.273 81.793L101.297 81.9219L101.777 84.4766L102.609 86.7969L102.656 86.8906L102.668 87.0078L103.16 89.4453L104.133 91.7891L104.215 92.0117L104.238 92.2344L104.449 94.7891L104.824 97.3906L105.398 99.875L105.422 100.016L105.75 102.641L105.762 102.711V102.781L105.82 105.371L106.125 107.855L106.535 110.48L106.559 110.645L106.547 110.82L106.359 113.387L106.488 115.824L106.5 115.918L103.5 116.082V115.977L103.359 113.434V113.246L103.535 110.773L103.16 108.312V108.289L103.148 108.266L102.844 105.652L102.832 105.582V105.512L102.762 102.922L102.469 100.531L101.883 97.9531L101.871 97.9062V97.8477L101.473 95.2344V95.1406L101.262 92.7148L100.336 90.4531L100.289 90.3242L100.254 90.1836L99.75 87.6992L98.8945 85.3203L98.8594 85.2148L98.8359 85.0977L98.3555 82.5664L97.4648 80.2695V80.2578L96.5039 77.9609L95.332 75.5938L95.2617 75.4531L95.2266 75.3125L94.6289 72.9805L93.2109 71.0703L93.1172 70.9297L93.0469 70.7773L92.0273 68.3984L90.6797 66.3828L90.6094 66.2773L90.5625 66.1719L89.5547 63.9922L87.8438 62.3164L87.7383 62.2109L87.6562 62.0938L86.2266 60.0195L84.5625 57.9805V57.9688L82.8164 56.1875L82.7695 56.1406L82.7344 56.0938L81.1523 54.1602L79.1719 52.7773L79.1484 52.7539L77.0273 51.1953L76.9922 51.1719L76.9688 51.1484L75.0938 49.6133L72.832 48.793L72.668 48.7227L70.3359 47.5273L68.1328 46.6016L65.6836 46.1797V46.168L63.1172 45.7695H63.0703L63.0352 45.7578L60.7148 45.2773L58.3945 45.7461L58.207 45.793L58.0195 45.7812L55.5703 45.6523L53.332 46.168L51.082 47.2461L50.9883 47.293L48.5508 48.2539L48.457 48.2773L46.1367 49.0156L44.0977 50.3984L44.0859 50.3867L41.9883 51.8516L42 51.8633L39.8906 53.4453L37.957 55.1094L36.2109 56.7266L34.7812 58.8359L34.7344 58.918L34.6641 58.9883L32.9648 60.875L31.6641 62.9844L31.6055 63.0781L31.5352 63.1719L29.9062 65.0586L28.6406 67.25L28.6289 67.2383L27.3516 69.5234L26.2969 71.8203L26.2734 71.8672L25.0898 74.2227L24.0234 76.5078L24.0352 76.5195L23.0508 78.8398L22.2422 81.3008L22.2539 81.3125L21.4922 83.8438V83.8555L20.707 86.3398L20.7188 86.3516L19.9688 88.8828L19.957 88.9414L19.9336 88.9883L19.043 91.4141L18.5859 93.8398L18.375 96.3242L18.3633 96.3828V96.4414L17.9297 99.043V99.0781L17.918 99.1133L17.3672 101.703L16.9922 104.152L16.7109 106.789L16.4883 109.391L16.4531 111.922V111.969L16.3594 114.605V114.676L16.2305 116.129L15 116.012V117.5H13.1016L13.2422 115.871L13.3594 114.488L13.4648 111.887L13.4883 109.25V109.191L13.5 109.133L13.7227 106.496L13.7344 106.473V106.461L14.0156 103.836L14.0273 103.812V103.777L14.4141 101.164L14.4258 101.117V101.07L14.9883 98.4805L15.3984 95.9492L15.6094 93.418L15.6211 93.3477L15.6328 93.2656L16.1367 90.6758L16.1602 90.5586L16.207 90.4414L17.1211 87.9453L17.8359 85.5078V85.4961L17.8477 85.4844L18.6211 82.9648L19.3711 80.457L19.3828 80.4453V80.4219L20.2031 77.9141L20.2266 77.8555L20.25 77.8086L21.2578 75.3711L21.2695 75.3477L21.2812 75.3125L22.3945 72.9219L22.418 72.875L23.6016 70.5195L24.6797 68.1641L24.7031 68.1055L24.7383 68.0586L26.0273 65.75H26.0391V65.7383L27.3633 63.4531L27.4336 63.3359L27.5273 63.2305L29.2266 61.2383L30.5156 59.1523L30.5859 59.0469L30.668 58.9531L32.3789 57.0312L33.8086 54.9453L33.9023 54.8047L34.0195 54.6875L35.9531 52.8828L36 52.8359L38.0039 51.1133L38.0508 51.0781L38.0859 51.043L40.207 49.4609L40.2188 49.4492L40.2422 49.4375L42.4102 47.9258L42.4336 47.9023L44.625 46.4258L44.8008 46.3086L45 46.25L47.4492 45.4531L49.7695 44.5391L52.1953 43.4023L52.3359 43.332L52.5 43.2852L55.0898 42.6875L55.2891 42.6406L55.5 42.6523L57.9609 42.7812L60.4336 42.2773L60.7383 42.2188L61.043 42.2773Z" fill="black"/>
<path d="M61.8867 51.3242L64.4766 51.957H64.5L64.5117 51.9688L67.0547 52.6484H67.0898L67.125 52.6602L69.6562 53.4805L69.8906 53.5508L70.1016 53.7031L72.2344 55.2969H72.2227L74.3555 56.7734L74.4258 56.832L74.5078 56.8906L76.4414 58.6602L76.5117 58.7188L76.5586 58.7773L78.2344 60.6641L80.2031 62.2695L80.4375 62.457L80.5781 62.7148L81.7852 64.9297L83.3203 66.9922L83.4141 67.1094L83.4727 67.25L84.5391 69.4883L86.0859 71.457L86.2734 71.6914L86.3438 71.9844L87.0117 74.3867L88.1719 76.6367L88.1953 76.6719L88.207 76.7188L89.2617 79.1445L89.2734 79.168V79.1914L90.2461 81.6523L90.293 81.7812L90.3281 81.9102L90.7852 84.3945L91.6641 86.7852L91.6992 86.8906L91.7227 86.9961L92.2031 89.4453L93.1758 91.7891L93.2578 92L93.2812 92.2344L93.4805 94.7891L93.8555 97.3906L94.418 99.875L94.4414 99.9453L94.4531 100.027L94.7695 102.641V102.711L94.7812 102.793L94.8281 105.371L95.1328 107.855L95.5312 110.48L95.5547 110.645L95.543 110.82L95.3555 113.375L95.4961 115.824V115.93L92.4961 116.07V115.977L92.3672 113.434L92.3555 113.34L92.3672 113.258L92.5312 110.773L92.168 108.312V108.289L92.1562 108.266L91.8516 105.641L91.8398 105.57V105.5L91.7812 102.91L91.4648 100.391V100.379L90.9141 97.9531L90.8906 97.8359L90.5156 95.2227L90.5039 95.1758V95.1289L90.3047 92.7031L89.3789 90.4414L89.332 90.3125L89.2969 90.1719L88.793 87.6992L87.9375 85.3203L87.9023 85.2031L87.8789 85.0859L87.3867 82.5781L86.4844 80.293V80.2812L85.5 77.9961L84.293 75.6523L84.2344 75.5234L84.1875 75.3711L83.5312 73.0625L82.0664 71.2109L81.9727 71.0703L81.8906 70.918L80.8125 68.6445L79.3359 66.6758L79.2773 66.5938L79.2305 66.5L78.0703 64.4023L76.2305 62.9023L76.1367 62.832L76.0547 62.7383L74.3555 60.8047L72.5391 59.1641L70.4766 57.7344L70.4531 57.7227L70.4297 57.6992L68.5078 56.2578L66.2812 55.543L63.7617 54.8633L61.4648 54.3008L59.1328 54.6992H59.0977L59.0625 54.7109L56.5312 54.9922L54.2344 55.5664L52.1719 56.7148L49.9336 58.0977L49.9102 58.1211L49.8867 58.1328L47.8242 59.2695L46.3711 61.168L46.2539 61.332L46.0898 61.4492L44.1211 62.9258L42.6797 64.7656L41.5312 67.0156L41.4961 67.0859L41.4492 67.1445L40.0195 69.3477L39.9727 69.4062L39.9375 69.4648L38.3906 71.3867L37.3711 73.6484V73.6602L36.2578 76.0508L35.1562 78.4531L34.1836 80.8438L34.1719 80.832L33.293 83.1172L32.8594 85.625L32.8359 85.7305L32.8008 85.8359L32.0039 88.2148L31.5938 90.7227L31.5703 90.8516L31.5234 90.9688L30.7031 93.3125L30.293 95.832V95.8438L29.8594 98.3281L29.6133 100.965V101.035L29.25 103.648L28.9453 106.238L28.7227 108.699L28.7344 108.711L28.6875 111.348L28.6992 113.961V113.996L28.6641 116.023L28.6406 117.5H27V115.988L25.6641 115.977L25.6992 113.973L25.6875 111.336V111.301L25.7344 108.664V108.559L25.957 105.934V105.91L25.9688 105.887L26.2734 103.273V103.238L26.6367 100.625L26.8828 98.0586V98L26.8945 97.9531L27.3281 95.3398L27.7617 92.7383L27.7852 92.6094L27.8203 92.4922L28.6523 90.0781L29.0625 87.6172L29.0859 87.5L29.918 85.0039L30.3633 82.4844L30.3867 82.332L30.4336 82.2031L31.3945 79.7305V79.7188L31.4062 79.707L32.4023 77.2578L32.4141 77.2227L32.4258 77.1992L33.5273 74.7969L33.5391 74.7852L34.6406 72.4062L35.7305 69.9922L35.8125 69.8281L35.9297 69.6875L37.5 67.6953L38.8594 65.6211L40.0898 63.2773L40.1484 63.1484L40.2422 63.043L41.8711 60.957L41.9883 60.8047L42.1406 60.6875L44.1328 59.1523L45.6328 57.2188L45.8203 56.9727L46.0898 56.8203L48.3633 55.543L50.6133 54.1719L50.6367 54.1484L50.6602 54.1367L52.9688 52.8477L53.1445 52.7422L53.3438 52.6953L55.9102 52.0508L56.0156 52.0273H56.1094L58.6758 51.7344L61.2891 51.3008L61.5938 51.2422L61.8867 51.3242Z" fill="black"/>
<path d="M51.9141 57.1836L51.4219 57.5586L49.6523 59.3398L48.0469 61.1562L47.0391 63.4062L46.957 63.5938L46.8281 63.7461L45.2695 65.6328L44.2148 67.8828L44.1797 67.9531L44.1328 68.0234L42.8789 70.0977L42.3047 72.4766L42.2578 72.7109L42.1289 72.9102L40.8398 75.0078L40.1719 77.375L39.4453 79.8711L38.8008 82.4375L38.7773 82.5312L38.7422 82.6133L37.8164 84.9453L37.418 87.3945L37.4062 87.4648L37.3828 87.5352L36.7383 89.9258L36.7031 92.4219L36.6914 92.6094L36.6445 92.7969L35.918 95.2812L35.5078 97.6719L35.3789 100.262V100.344L35.0977 102.969V103.016L35.0859 103.051L34.6758 105.535L34.6289 108.113L34.7578 110.645L34.7695 110.785L34.7461 110.926L34.418 113.422L34.5 115.848V116.059L33 116L31.6523 115.941L31.5 115.953L31.418 113.41L31.4062 113.281L31.4297 113.164L31.7695 110.668L31.6289 108.16V108.043L31.6875 105.395V105.301L31.7109 105.195L32.1328 102.582L32.3906 100.027L32.5195 97.4727V97.3789L32.543 97.2969L32.9883 94.6836L33 94.6016L33.0234 94.5195L33.7031 92.1641L33.75 89.6797L33.7617 89.5039L33.8086 89.3281L34.4414 86.9023L34.8867 84.2891L34.9219 84.1367L34.9805 83.9844L35.918 81.582L36.5508 79.1328V79.1211L36.5625 79.0977L37.2891 76.5547L38.0156 74L38.0742 73.8008L38.1797 73.6367L39.4453 71.5508L40.0195 69.1719L40.0781 68.9375L40.1953 68.7383L41.5195 66.5352L42.6328 64.2031L42.7031 64.0391L42.832 63.8984L44.3789 61.9883L45.4102 59.7266L45.5039 59.5156L45.6562 59.3398L47.4141 57.3594L47.4727 57.3008L49.3359 55.4141L49.4062 55.3438L49.4766 55.2852L50.0859 54.8164L51.9141 57.1836Z" fill="black"/>
<path d="M73.9062 56.8672L74.0352 56.9961L74.1289 57.1602L75.4297 59.3867L76.9648 61.3789L77.0234 61.4492L77.0703 61.5195L78.4414 63.793L78.5 63.8984L78.5469 64.0156L79.4961 66.4414L80.5156 68.8203L81.6523 71.2109L81.6992 71.3047L81.7227 71.3984L82.5312 73.918L82.5547 74L82.5781 74.0938L83.0234 76.5078L84.1016 78.7695L84.1719 78.9336L84.207 79.1094L84.7109 81.6172L85.4609 84.1016L85.5078 84.2539L85.5195 84.4062L85.7422 86.9961L86.293 89.4453V89.4805L86.8086 92.0469L87.3477 94.6367L87.3828 94.8359V95.0234L87.2539 97.4492L87.9336 99.7812L87.9922 99.9922V100.203L87.9805 102.758L88.3086 105.289L88.3203 105.453L88.3086 105.605L88.0977 108.043L88.6484 110.422L88.6836 110.609V110.797L88.6016 113.445L88.5664 116.023L88.5547 117.5H86.9961V115.988L85.5664 115.977L85.6016 113.387V113.375L85.6133 113.363L85.6719 110.902L85.1211 108.477L85.0742 108.242L85.0977 108.008L85.3086 105.453L84.9922 103.051L84.9805 102.945V100.402L84.3008 98.0469L84.2422 97.8008L84.3711 95.0938L83.8672 92.668V92.6445L83.3516 90.0664V90.0547L82.7891 87.5117L82.7656 87.418L82.7539 87.3125L82.543 84.8047L81.8281 82.4258L81.8047 82.3672L81.793 82.2969L81.2891 79.8594L80.2344 77.6211L80.1641 77.4453L80.1289 77.2578L79.6367 74.7266L78.875 72.3477L77.8086 70.0977L77.7852 70.0508L76.7422 67.625L76.7305 67.6016V67.5898L75.8047 65.2461L74.5508 63.1484L72.9805 61.1211L72.9219 61.0391L72.875 60.957L71.6211 58.8242L69.9805 57.125L69.8867 57.0312L69.8047 56.9141L69.7461 56.832L71 56L71.4453 55.707L72.1367 55.0391L73.9062 56.8672Z" fill="black"/>
<path d="M61.0498 56.6289L63.5225 57.3086L63.8389 57.3906L64.085 57.5898L66.0654 59.2305H66.0537L68.1279 60.918L68.4092 61.1406L68.5498 61.4688L69.6162 63.8477L70.9053 66.0391L70.9756 66.1797L71.0342 66.3438L71.7842 68.6875L73.0498 70.8789L73.2021 71.1367L73.249 71.4297L73.5889 73.9141L74.4209 76.2812L74.4326 76.3164L74.4443 76.3633L75.1709 78.9062L75.1826 78.918V78.9414L75.8506 81.4961L75.8857 81.625V81.7539L76.085 84.3086L76.6826 86.7227L76.7061 86.8281L76.7178 86.9336L76.9873 89.4531L77.7256 91.8203L77.7959 92.0312V92.2656L77.8076 94.9258L77.9951 97.3633L78.417 99.9297L78.4287 100V100.059L78.6162 102.695L78.6279 102.766L78.6162 102.824L78.5811 105.473L78.8037 107.945L79.1318 110.523L79.1553 110.676L79.1436 110.84L78.9209 113.406L79.0498 115.832V115.949L76.0498 116.043V115.973L75.9209 113.43V113.336L75.9326 113.23L76.1436 110.711L75.8154 108.273V108.215L75.5811 105.578V105.426L75.6279 102.906L75.4521 100.41L75.0303 97.7969L75.0186 97.7383V97.668L74.8076 95.043V94.9258L74.7959 92.4883L74.0693 90.1562L74.0225 90.0156L74.0107 89.8633L73.7412 87.2852L73.1436 84.8828L73.1084 84.7539L73.0967 84.6367L72.8975 82.0938L72.2764 79.6914V79.6797L71.585 77.2773L70.7061 74.7812L70.6592 74.6406L70.6357 74.4883L70.3076 72.1211L69.1123 70.0703L69.0303 69.9297L68.9834 69.7773L68.2217 67.4102L66.9795 65.2656L66.9092 65.125L65.96 63.0156L64.1553 61.5508V61.5391L62.4209 60.1094L60.6514 59.6172L58.7529 60.1445L56.9014 61.2109L55.5771 63.1328L55.5654 63.1211L54.2295 65.3008L54.2178 65.3125L54.2061 65.3359L52.8701 67.3516L52.2607 69.707L52.2373 69.8125L52.1904 69.9062L51.1709 72.2734L51.1826 72.2852L50.2686 74.6406L49.7881 77.1133L49.7646 77.1836L49.1436 79.7383L49.0967 79.9023L48.2529 82.1523L48.2061 84.5898V84.8359L48.124 85.0586L47.2803 87.4492L46.9756 89.793L47.0107 92.3594V92.4648L46.6592 95.2773L46.6357 95.3594L46.0146 97.7852L45.9326 100.27V100.328L45.7568 102.965L45.7451 102.977V102.988L45.5225 105.613L45.3467 108.227L45.1709 110.746L45.4639 113.242L45.4756 113.371L45.4639 113.5L45.3232 116.09L45.2412 117.496H43.7998V115.984L42.3232 115.914L42.4639 113.43L42.1826 110.934L42.1709 110.793V110.664L42.5225 105.391L42.5342 105.367V105.355L42.7568 102.73L42.9443 100.176H42.9326L43.0264 97.5273V97.3633L43.0732 97.2109L43.7178 94.7031L44.0107 92.2656L43.9756 89.7227V89.6172L43.9873 89.5117L44.3389 86.8867L44.3506 86.7344L44.4092 86.582L45.2061 84.3086L45.2646 81.8477V81.6016L45.3584 81.3555L46.249 78.9414L46.8584 76.4688L47.3623 73.9258L47.3857 73.7969L47.4326 73.6797L48.3818 71.207L48.4053 71.1602L49.3896 68.8281L50.0342 66.3555L50.1045 66.1094L50.2334 65.9102L51.6982 63.6836L53.0693 61.4805L53.1162 61.4102L54.6396 59.2188L54.8271 58.9492L55.1201 58.7852L57.4287 57.4609L57.5811 57.3672L57.7686 57.3203L60.2412 56.6289L60.6514 56.5117L61.0498 56.6289Z" fill="black"/>
<path d="M71.125 27.5352L72.8711 28.6953L73.6328 29.1992L73.5391 30.1016L73.2461 32.7617L73.2109 33.0547L73.0703 33.3125L71.793 35.668L71.7812 35.7031L71.7578 35.7266L70.3867 37.9766L70.3047 38.1055L70.1992 38.2227L68.3945 40.1562L68.3125 40.25L68.207 40.332L66.0625 41.9375L65.8047 42.1484L65.4766 42.207L62.9336 42.7461L60.543 43.625L60.2031 43.7539L59.8516 43.707L57.1914 43.4023L57.1445 43.3906L57.1094 43.3789L54.4844 42.9219L54.1914 42.875L53.9336 42.7109L51.8242 41.3398L49.4453 40.1914L49.1523 40.0391L48.9414 39.7812L47.2539 37.707L47.1719 37.6016L47.1016 37.4961L45.8125 35.1758L45.7422 35.0703L45.707 34.9531L44.8047 32.4453L44.7227 32.1992V29.3047L44.7109 28.0391L45.9531 27.8164L47.7812 27.5L49.5508 27.1836V28.4141L50.9102 30.0195L52.4805 31.6367L54.5312 32.5039L56.9336 33.1133L59.207 33.5L61.375 33.2539L63.6133 32.3398L65.6641 31.2383L67.6562 29.8555L69.0859 27.8984L69.9297 26.7383L71.125 27.5352ZM47.7227 31.6953L48.4961 33.8281L49.6562 35.9141L51.0391 37.6133L53.1719 38.6562L53.3359 38.75L55.293 40.0156L57.5898 40.4141L59.8281 40.6836L62.0195 39.8867L62.125 39.8516L62.2305 39.8281L64.5156 39.3359L66.2734 38.0117L67.9258 36.2539L69.1914 34.168L70.2812 32.1406L70.3867 31.2031L69.9297 31.8477L69.7773 32.0469L69.5664 32.1992L67.375 33.7109L67.3047 33.7695L67.2344 33.8047L64.9375 35.0352L64.8672 35.082L64.7969 35.1055L62.3594 36.1016L62.1719 36.1836L61.9609 36.207L59.3359 36.5L59.1367 36.5234L58.9258 36.4883L56.3359 36.0547L56.2773 36.043L56.207 36.0312L53.6875 35.3867L53.4766 35.3164L51.0273 34.2852L50.7461 34.1562L50.5352 33.9453L48.6836 32.0352L48.6484 32L48.6133 31.9531L47.7227 30.8867V31.6953Z" fill="black"/>
<path d="M61.2852 20.5117L63.6523 21.7539L63.8164 21.8359L63.9688 21.9648L65.8906 23.7227L66.125 23.9336L66.2539 24.2148L67.3438 26.6289L67.4727 26.9102L67.4844 27.2266L67.4961 28.4805L67.5078 29.2422L67.3086 29.3828L67.0625 31.3164L67.0039 31.7617L66.7109 32.0898L64.9883 34.082L64.8828 34.1992L64.7656 34.293L62.6797 35.875L62.3984 36.0977L62.0586 36.1562L59.4219 36.6602L59.0234 36.7305L58.6484 36.6016L56.1289 35.7344L55.8945 35.6523L55.6953 35.5L53.6328 33.8711L53.4336 33.7188L53.3047 33.5078L51.8633 31.2695L51.6523 30.9531L51.6289 30.5664L51.4414 27.8945L51.418 27.5195L51.582 27.168L52.6602 24.7891L52.7539 24.625L54.1602 22.3633L54.4062 21.9531L54.8516 21.7773L57.3242 20.7344L57.5234 20.6523L57.7461 20.6289L60.4297 20.3477L60.875 20.3008L61.2852 20.5117ZM58.2852 23.5703L56.4336 24.3555L55.3438 26.1133L54.4648 28.0703L54.582 29.9688L55.6719 31.6445L57.3477 32.9805L59.2461 33.625L61.1445 33.2734L62.8203 31.9844L64.1445 30.4609L64.4375 28.3633L64.4844 27.9531V27.5898L63.6523 25.7383L62.0586 24.2969L60.2656 23.3711L58.2852 23.5703Z" fill="black"/>
</svg>
