<svg width="120" height="120" viewBox="0 0 120 120" fill="none" xmlns="http://www.w3.org/2000/svg">
<path d="M87.9081 7.53955L87.0743 8.7864L87.7522 9.23981L88.5013 8.91727L87.9081 7.53955ZM85.7567 6.1007L84.8293 7.2796L84.8748 7.31538L84.9229 7.34755L85.7567 6.1007ZM83.6583 4.4498L84.5857 3.27089L83.5652 2.46803L82.6244 3.363L83.6583 4.4498ZM82.1926 5.84405L81.1588 4.75726L80.5358 5.34983L80.7323 6.18683L82.1926 5.84405ZM82.7889 8.38458L84.272 8.60968L84.3154 8.32355L84.2493 8.04181L82.7889 8.38458ZM82.3851 11.0451L80.9021 10.82L80.8995 10.8371L80.8973 10.8543L82.3851 11.0451ZM82.0495 13.6619L80.5617 13.4711L80.5544 13.5281L80.5514 13.5856L82.0495 13.6619ZM81.9146 16.3084L83.3977 16.5329L83.4088 16.4592L83.4126 16.3848L81.9146 16.3084ZM81.5191 18.9214L82.9761 19.2779L82.9921 19.2125L83.0022 19.1459L81.5191 18.9214ZM80.8879 21.5016L79.4308 21.1452L79.3805 21.3509L79.3891 21.5625L80.8879 21.5016ZM80.9964 24.1744L82.4733 24.4364L82.5018 24.2762L82.4952 24.1135L80.9964 24.1744ZM80.5341 26.78L79.0572 26.518L79.0418 26.6048L79.0367 26.6929L80.5341 26.78ZM80.3804 29.4222L81.8354 29.7869L81.8697 29.6501L81.8779 29.5093L80.3804 29.4222ZM79.7333 32.004L78.2783 31.6393L78.2504 31.7508L78.2397 31.8653L79.7333 32.004ZM79.4891 34.6343L80.9824 34.7761L80.9826 34.773L79.4891 34.6343ZM79.2394 37.2639L77.7461 37.1221L77.7441 37.1428L77.7427 37.1635L79.2394 37.2639ZM79.0619 39.9076L80.4918 40.3607L80.5464 40.1884L80.5585 40.008L79.0619 39.9076ZM78.2514 42.4653L76.8214 42.0121L76.7427 42.2606L76.7524 42.521L78.2514 42.4653ZM78.3507 45.1381L79.7995 45.5266L79.8581 45.3083L79.8497 45.0823L78.3507 45.1381ZM77.6628 47.7032L78.8146 48.6641L79.0261 48.4106L79.1116 48.0918L77.6628 47.7032ZM75.9804 49.7199L75.9061 51.218L76.6531 51.2551L77.1323 50.6808L75.9804 49.7199ZM73.3275 49.5883L73.4018 48.0901L73.2351 48.0819L73.0707 48.1104L73.3275 49.5883ZM70.6775 50.0487L70.5753 51.5452L70.7559 51.5576L70.9342 51.5266L70.6775 50.0487ZM68.04 49.8686L68.1422 48.3721L68.121 48.3706L68.0998 48.3698L68.04 49.8686ZM65.3994 49.7633L65.4592 48.2645L65.4317 48.2634L65.4041 48.2633L65.3994 49.7633ZM62.7562 49.7551L62.5411 51.2396L62.6458 51.2548L62.7516 51.2551L62.7562 49.7551ZM60.12 49.3731L60.3351 47.8886L60.1754 47.8654L60.0144 47.8768L60.12 49.3731ZM57.4771 49.5595L57.4574 51.0594L57.5201 51.0602L57.5827 51.0558L57.4771 49.5595ZM54.8358 49.5248L54.6366 51.0115L54.7259 51.0235L54.8161 51.0247L54.8358 49.5248ZM52.2021 49.1718L52.4014 47.6851L52.2052 47.6588L52.0089 47.6843L52.2021 49.1718ZM49.5527 49.516L49.451 51.0125L49.5989 51.0226L49.746 51.0035L49.5527 49.516ZM46.9135 49.3365L46.8018 50.8324L46.8118 50.833L46.9135 49.3365ZM44.2762 49.1395L44.3879 47.6437L44.2832 47.6358L44.1784 47.6427L44.2762 49.1395ZM41.6332 49.3121L41.6252 50.8121L41.6782 50.8124L41.731 50.8089L41.6332 49.3121ZM38.99 49.2981L38.7794 50.7832L38.8802 50.7975L38.982 50.798L38.99 49.2981ZM36.3513 48.924L36.5619 47.4388L36.3148 47.4038L36.0697 47.4506L36.3513 48.924ZM33.7294 49.4252L33.7483 50.9251L33.8809 50.9234L34.0111 50.8985L33.7294 49.4252ZM31.0643 49.4588L31.0454 47.959L30.7382 47.9628L30.4573 48.0872L31.0643 49.4588ZM28.6223 50.5396L28.0152 49.1679L27.8072 49.26L27.6358 49.4096L28.6223 50.5396ZM26.6182 52.289L25.6317 51.159L25.6252 51.1647L26.6182 52.289ZM24.6704 54.0092L23.6775 52.8849L23.6695 52.8919L23.6617 52.899L24.6704 54.0092ZM22.7027 55.7972L21.6939 54.6871L21.4958 54.8671L21.3722 55.1046L22.7027 55.7972ZM21.4784 58.149L20.1479 57.4563L20.1146 57.5201L20.0877 57.5868L21.4784 58.149ZM20.4897 60.5945L19.0991 60.0323L19.0696 60.1053L19.0479 60.1809L20.4897 60.5945ZM19.7623 63.1306L18.3204 62.717L18.2931 62.8122L18.2786 62.9101L19.7623 63.1306ZM19.373 65.7493L17.8893 65.5287L17.8783 65.6026L17.8747 65.6771L19.373 65.7493ZM19.2451 68.4029L17.7469 68.3307L17.7373 68.5299L17.7801 68.7246L19.2451 68.4029ZM19.8179 71.0107L21.307 70.8298L21.2983 70.7588L21.283 70.6889L19.8179 71.0107ZM20.1347 73.619L18.6456 73.7998L18.6641 73.9518L18.7128 74.0969L20.1347 73.619ZM20.9819 76.1396L22.4754 76.0001L22.4592 75.8268L22.4037 75.6618L20.9819 76.1396ZM21.2292 78.7875L19.7357 78.927L19.7367 78.9374L19.7378 78.9478L21.2292 78.7875ZM21.5108 81.4077L23.0056 81.5324L23.0175 81.3898L23.0022 81.2475L21.5108 81.4077ZM21.2913 84.0388L22.7588 84.3492L22.7783 84.2572L22.7861 84.1635L21.2913 84.0388ZM20.7427 86.6326L22.1284 87.2069L22.1816 87.0787L22.2103 86.9429L20.7427 86.6326ZM19.7288 89.0788L18.3431 88.5045L18.3414 88.5086L19.7288 89.0788ZM18.7271 91.516L17.3397 90.9457L17.297 91.0494L17.2703 91.1583L18.7271 91.516ZM18.1 94.0698L16.6433 93.7122L16.5963 93.9035L16.6003 94.1004L18.1 94.0698ZM18.1535 96.6928L16.6538 96.7234L16.6558 96.8198L16.6701 96.9153L18.1535 96.6928ZM18.5457 99.3085L20.0405 99.1835L20.0364 99.1346L20.0291 99.086L18.5457 99.3085ZM18.766 101.943L20.2635 101.857L20.2624 101.838L20.2608 101.818L18.766 101.943ZM18.9181 104.58L20.4172 104.633L20.4196 104.563L20.4156 104.494L18.9181 104.58ZM18.8246 107.237L17.3255 107.184L17.3213 107.304L17.3362 107.423L18.8246 107.237ZM19.1531 109.861L17.6647 110.048L17.6795 110.166L17.7128 110.281L19.1531 109.861ZM19.89 112.394L18.4498 112.813L18.5075 113.012L18.6167 113.187L19.89 112.394ZM21.2103 114.515L19.937 115.307L20.2783 115.856L20.911 115.984L21.2103 114.515ZM23.6835 115.018L23.3843 116.488L23.5928 116.53L23.8049 116.513L23.6835 115.018ZM26.3346 114.803L26.4559 116.298L28.0356 116.17L27.8207 114.6L26.3346 114.803ZM26.0173 112.484L27.5034 112.281L27.4782 112.096L27.4088 111.924L26.0173 112.484ZM25.0625 110.111L23.5934 110.414L23.6206 110.546L23.6709 110.671L25.0625 110.111ZM24.5338 107.549L23.0357 107.624L23.0415 107.739L23.0647 107.852L24.5338 107.549ZM24.4015 104.922L22.903 104.854L22.8998 104.926L22.9034 104.997L24.4015 104.922ZM24.5212 102.294L26.0196 102.362L26.0233 102.281L26.0182 102.199L24.5212 102.294ZM24.3543 99.646L22.858 99.541L22.851 99.6406L22.8573 99.7403L24.3543 99.646ZM24.541 96.9853L23.224 96.2673L23.0675 96.5543L23.0447 96.8803L24.541 96.9853ZM25.8253 94.6294L24.8481 93.4914L24.6397 93.6703L24.5083 93.9114L25.8253 94.6294ZM27.8368 92.9021L27.162 91.5624L26.9985 91.6448L26.8596 91.7641L27.8368 92.9021ZM88 7.5L87.4068 6.12228L87.315 6.16182L87.9081 7.53955L88.5013 8.91727L88.5932 8.87772L88 7.5ZM87.9081 7.53955L88.742 6.29269L86.5906 4.85385L85.7567 6.1007L84.9229 7.34755L87.0743 8.7864L87.9081 7.53955ZM85.7567 6.1007L86.6842 4.9218L84.5857 3.27089L83.6583 4.4498L82.7308 5.6287L84.8293 7.2796L85.7567 6.1007ZM83.6583 4.4498L82.6244 3.363L81.1588 4.75726L82.1926 5.84405L83.2265 6.93085L84.6921 5.53659L83.6583 4.4498ZM82.1926 5.84405L80.7323 6.18683L81.3286 8.72736L82.7889 8.38458L84.2493 8.04181L83.6529 5.50128L82.1926 5.84405ZM82.7889 8.38458L81.3059 8.15948L80.9021 10.82L82.3851 11.0451L83.8681 11.2702L84.272 8.60968L82.7889 8.38458ZM82.3851 11.0451L80.8973 10.8543L80.5617 13.4711L82.0495 13.6619L83.5373 13.8528L83.8729 11.2359L82.3851 11.0451ZM82.0495 13.6619L80.5514 13.5856L80.4165 16.232L81.9146 16.3084L83.4126 16.3848L83.5475 13.7383L82.0495 13.6619ZM81.9146 16.3084L80.4315 16.0839L80.0359 18.6969L81.5191 18.9214L83.0022 19.1459L83.3977 16.5329L81.9146 16.3084ZM81.5191 18.9214L80.062 18.565L79.4308 21.1452L80.8879 21.5016L82.3449 21.858L82.9761 19.2779L81.5191 18.9214ZM80.8879 21.5016L79.3891 21.5625L79.4976 24.2353L80.9964 24.1744L82.4952 24.1135L82.3866 21.4407L80.8879 21.5016ZM80.9964 24.1744L79.5195 23.9123L79.0572 26.518L80.5341 26.78L82.0111 27.042L82.4733 24.4364L80.9964 24.1744ZM80.5341 26.78L79.0367 26.6929L78.883 29.3351L80.3804 29.4222L81.8779 29.5093L82.0316 26.8671L80.5341 26.78ZM80.3804 29.4222L78.9254 29.0575L78.2783 31.6393L79.7333 32.004L81.1883 32.3687L81.8354 29.7869L80.3804 29.4222ZM79.7333 32.004L78.2397 31.8653L77.9955 34.4956L79.4891 34.6343L80.9826 34.773L81.2269 32.1427L79.7333 32.004ZM79.4891 34.6343L77.9958 34.4925L77.7461 37.1221L79.2394 37.2639L80.7326 37.4057L80.9823 34.7761L79.4891 34.6343ZM79.2394 37.2639L77.7427 37.1635L77.5653 39.8071L79.0619 39.9076L80.5585 40.008L80.736 37.3644L79.2394 37.2639ZM79.0619 39.9076L77.632 39.4544L76.8214 42.0121L78.2514 42.4653L79.6813 42.9184L80.4918 40.3607L79.0619 39.9076ZM78.2514 42.4653L76.7524 42.521L76.8518 45.1938L78.3507 45.1381L79.8497 45.0823L79.7503 42.4095L78.2514 42.4653ZM78.3507 45.1381L76.9019 44.7495L76.214 47.3146L77.6628 47.7032L79.1116 48.0918L79.7995 45.5266L78.3507 45.1381ZM77.6628 47.7032L76.5109 46.7423L74.8286 48.759L75.9804 49.7199L77.1323 50.6808L78.8146 48.6641L77.6628 47.7032ZM75.9804 49.7199L76.0547 48.2217L73.4018 48.0901L73.3275 49.5883L73.2532 51.0864L75.9061 51.218L75.9804 49.7199ZM73.3275 49.5883L73.0707 48.1104L70.4207 48.5709L70.6775 50.0487L70.9342 51.5266L73.5843 51.0661L73.3275 49.5883ZM70.6775 50.0487L70.7797 48.5522L68.1422 48.3721L68.04 49.8686L67.9378 51.3651L70.5753 51.5452L70.6775 50.0487ZM68.04 49.8686L68.0998 48.3698L65.4592 48.2645L65.3994 49.7633L65.3397 51.2621L67.9803 51.3674L68.04 49.8686ZM65.3994 49.7633L65.4041 48.2633L62.7609 48.2551L62.7562 49.7551L62.7516 51.2551L65.3948 51.2633L65.3994 49.7633ZM62.7562 49.7551L62.9714 48.2706L60.3351 47.8886L60.12 49.3731L59.9048 50.8575L62.5411 51.2396L62.7562 49.7551ZM60.12 49.3731L60.0144 47.8768L57.3716 48.0632L57.4771 49.5595L57.5827 51.0558L60.2255 50.8693L60.12 49.3731ZM57.4771 49.5595L57.4968 48.0596L54.8555 48.0249L54.8358 49.5248L54.8161 51.0247L57.4574 51.0594L57.4771 49.5595ZM54.8358 49.5248L55.0351 48.0381L52.4014 47.6851L52.2021 49.1718L52.0029 50.6585L54.6366 51.0115L54.8358 49.5248ZM52.2021 49.1718L52.0089 47.6843L49.3595 48.0285L49.5527 49.516L49.746 51.0035L52.3954 50.6593L52.2021 49.1718ZM49.5527 49.516L49.6545 48.0194L47.0153 47.8399L46.9135 49.3365L46.8118 50.833L49.451 51.0125L49.5527 49.516ZM46.9135 49.3365L47.0253 47.8407L44.3879 47.6437L44.2762 49.1395L44.1645 50.6353L46.8018 50.8323L46.9135 49.3365ZM44.2762 49.1395L44.1784 47.6427L41.5355 47.8153L41.6332 49.3121L41.731 50.8089L44.374 50.6363L44.2762 49.1395ZM41.6332 49.3121L41.6412 47.8121L38.998 47.7981L38.99 49.2981L38.982 50.798L41.6252 50.8121L41.6332 49.3121ZM38.99 49.2981L39.2005 47.8129L36.5619 47.4388L36.3513 48.924L36.1408 50.4091L38.7794 50.7832L38.99 49.2981ZM36.3513 48.924L36.0697 47.4506L33.4477 47.9519L33.7294 49.4252L34.0111 50.8985L36.633 50.3973L36.3513 48.924ZM33.7294 49.4252L33.7105 47.9253L31.0454 47.959L31.0643 49.4588L31.0832 50.9587L33.7483 50.9251L33.7294 49.4252ZM31.0643 49.4588L30.4573 48.0872L28.0152 49.1679L28.6223 50.5396L29.2293 51.9113L31.6714 50.8305L31.0643 49.4588ZM28.6223 50.5396L27.6358 49.4096L25.6317 51.159L26.6182 52.289L27.6046 53.419L29.6087 51.6696L28.6223 50.5396ZM26.6182 52.289L25.6252 51.1647L23.6775 52.8849L24.6704 54.0092L25.6634 55.1335L27.6111 53.4133L26.6182 52.289ZM24.6704 54.0092L23.6617 52.899L21.6939 54.6871L22.7027 55.7972L23.7114 56.9074L25.6792 55.1193L24.6704 54.0092ZM22.7027 55.7972L21.3722 55.1046L20.1479 57.4563L21.4784 58.149L22.8088 58.8416L24.0332 56.4899L22.7027 55.7972ZM21.4784 58.149L20.0877 57.5868L19.0991 60.0323L20.4897 60.5945L21.8804 61.1567L22.869 58.7112L21.4784 58.149ZM20.4897 60.5945L19.0479 60.1809L18.3204 62.717L19.7623 63.1306L21.2041 63.5442L21.9316 61.0081L20.4897 60.5945ZM19.7623 63.1306L18.2786 62.9101L17.8893 65.5287L19.373 65.7493L20.8567 65.9698L21.2459 63.3512L19.7623 63.1306ZM19.373 65.7493L17.8747 65.6771L17.7469 68.3307L19.2451 68.4029L20.7434 68.475L20.8712 65.8215L19.373 65.7493ZM19.2451 68.4029L17.7801 68.7246L18.3528 71.3325L19.8179 71.0107L21.283 70.6889L20.7102 68.0811L19.2451 68.4029ZM19.8179 71.0107L18.3289 71.1915L18.6456 73.7998L20.1347 73.619L21.6237 73.4382L21.307 70.8298L19.8179 71.0107ZM20.1347 73.619L18.7128 74.0969L19.56 76.6175L20.9819 76.1396L22.4037 75.6618L21.5565 73.1411L20.1347 73.619ZM20.9819 76.1396L19.4884 76.2791L19.7357 78.927L21.2292 78.7875L22.7227 78.648L22.4754 76.0001L20.9819 76.1396ZM21.2292 78.7875L19.7378 78.9478L20.0194 81.568L21.5108 81.4077L23.0022 81.2475L22.7206 78.6272L21.2292 78.7875ZM21.5108 81.4077L20.016 81.283L19.7965 83.9141L21.2913 84.0388L22.7861 84.1635L23.0056 81.5324L21.5108 81.4077ZM21.2913 84.0388L19.8237 83.7285L19.2752 86.3222L20.7427 86.6326L22.2103 86.9429L22.7588 84.3492L21.2913 84.0388ZM20.7427 86.6326L19.3571 86.0582L18.3431 88.5045L19.7288 89.0788L21.1145 89.6532L22.1284 87.2069L20.7427 86.6326ZM19.7288 89.0788L18.3414 88.5086L17.3397 90.9457L18.7271 91.516L20.1144 92.0862L21.1162 89.6491L19.7288 89.0788ZM18.7271 91.516L17.2703 91.1583L16.6433 93.7122L18.1 94.0698L19.5567 94.4275L20.1838 91.8736L18.7271 91.516ZM18.1 94.0698L16.6003 94.1004L16.6538 96.7234L18.1535 96.6928L19.6532 96.6622L19.5997 94.0393L18.1 94.0698ZM18.1535 96.6928L16.6701 96.9153L17.0623 99.5309L18.5457 99.3085L20.0291 99.086L19.6369 96.4703L18.1535 96.6928ZM18.5457 99.3085L17.0509 99.4334L17.2712 102.068L18.766 101.943L20.2608 101.818L20.0405 99.1835L18.5457 99.3085ZM18.766 101.943L17.2685 102.03L17.4206 104.667L18.9181 104.58L20.4156 104.494L20.2635 101.857L18.766 101.943ZM18.9181 104.58L17.419 104.527L17.3255 107.184L18.8246 107.237L20.3236 107.29L20.4172 104.633L18.9181 104.58ZM18.8246 107.237L17.3362 107.423L17.6647 110.048L19.1531 109.861L20.6415 109.675L20.313 107.051L18.8246 107.237ZM19.1531 109.861L17.7128 110.281L18.4498 112.813L19.89 112.394L21.3303 111.975L20.5934 109.442L19.1531 109.861ZM19.89 112.394L18.6167 113.187L19.937 115.307L21.2103 114.515L22.4836 113.722L21.1634 111.601L19.89 112.394ZM21.2103 114.515L20.911 115.984L23.3843 116.488L23.6835 115.018L23.9828 113.548L21.5095 113.045L21.2103 114.515ZM23.6835 115.018L23.8049 116.513L26.4559 116.298L26.3346 114.803L26.2132 113.308L23.5621 113.523L23.6835 115.018ZM26.3346 114.803L27.8207 114.6L27.5034 112.281L26.0173 112.484L24.5311 112.687L24.8484 115.006L26.3346 114.803ZM26.0173 112.484L27.4088 111.924L26.454 109.551L25.0625 110.111L23.6709 110.671L24.6257 113.044L26.0173 112.484ZM25.0625 110.111L26.5315 109.808L26.0028 107.246L24.5338 107.549L23.0647 107.852L23.5934 110.414L25.0625 110.111ZM24.5338 107.549L26.0319 107.473L25.8996 104.847L24.4015 104.922L22.9034 104.997L23.0357 107.624L24.5338 107.549ZM24.4015 104.922L25.8999 104.99L26.0196 102.362L24.5212 102.294L23.0227 102.225L22.903 104.854L24.4015 104.922ZM24.5212 102.294L26.0182 102.199L25.8513 99.5516L24.3543 99.646L22.8573 99.7403L23.0242 102.388L24.5212 102.294ZM24.3543 99.646L25.8506 99.751L26.0373 97.0902L24.541 96.9853L23.0447 96.8803L22.858 99.541L24.3543 99.646ZM24.541 96.9853L25.858 97.7032L27.1423 95.3473L25.8253 94.6294L24.5083 93.9114L23.224 96.2673L24.541 96.9853ZM25.8253 94.6294L26.8025 95.7674L28.814 94.0401L27.8368 92.9021L26.8596 91.7641L24.8481 93.4914L25.8253 94.6294ZM27.8368 92.9021L28.5116 94.2417L29.3152 93.8369L28.6403 92.4973L27.9655 91.1577L27.162 91.5624L27.8368 92.9021Z" fill="black"/>
<path d="M93.0786 27.0993L91.5891 27.2767L91.5983 27.3538L91.6154 27.4295L93.0786 27.0993ZM93.6368 29.5724L95.1365 29.5438L95.1336 29.3911L95.1 29.2422L93.6368 29.5724ZM93.6875 32.2293L92.1878 32.258L92.1904 32.3952L92.2179 32.5297L93.6875 32.2293ZM94.2188 34.8287L95.706 34.6334L95.6991 34.5805L95.6884 34.5283L94.2188 34.8287ZM94.563 37.4503L96.063 37.4511L96.063 37.3527L96.0502 37.2551L94.563 37.4503ZM94.5616 40.1011L93.0616 40.1004L93.0616 40.1459L93.0643 40.1913L94.5616 40.1011ZM94.7204 42.7375L93.2231 42.8277L93.2259 42.8732L93.2314 42.9185L94.7204 42.7375ZM95.04 45.3673L96.54 45.3595L96.5395 45.2726L96.5291 45.1864L95.04 45.3673ZM95.0538 48.0119L96.5459 48.1661L96.5542 48.0853L96.5538 48.0041L95.0538 48.0119ZM94.7805 50.6562L93.2885 50.502L93.2685 50.6955L93.2985 50.8877L94.7805 50.6562ZM95.1937 53.3011L96.6876 53.4352L96.7041 53.2516L96.6757 53.0696L95.1937 53.3011ZM94.9568 55.9398L93.4628 55.8057L93.4575 55.8643L93.4569 55.923L94.9568 55.9398ZM94.9271 58.5909L96.3779 58.9721L96.425 58.7929L96.4271 58.6077L94.9271 58.5909ZM94.2489 61.1725L92.7981 60.7913L92.7829 60.8492L92.7724 60.9081L94.2489 61.1725ZM93.7838 63.7699L95.2342 64.1526L95.2497 64.094L95.2604 64.0343L93.7838 63.7699ZM93.1092 66.3269L94.5327 66.8L94.5476 66.7552L94.5596 66.7096L93.1092 66.3269ZM92.2701 68.8517L93.4531 69.7739L93.6121 69.5701L93.6936 69.3248L92.2701 68.8517ZM90.622 70.9659L89.439 70.0437L89.3314 70.1817L89.2585 70.3408L90.622 70.9659ZM89.5034 73.406L90.5309 74.4987L90.7447 74.2978L90.8669 74.0311L89.5034 73.406ZM87.5613 75.2322L86.5338 74.1394L86.5094 74.1623L86.486 74.1864L87.5613 75.2322ZM85.7148 77.1308L86.7551 78.2114L86.7729 78.1943L86.7901 78.1766L85.7148 77.1308ZM83.7546 79.0178L82.7143 77.9372L82.0726 78.5549L82.3078 79.4139L83.7546 79.0178ZM84.4693 81.6286L85.9414 81.9166L86.0089 81.5716L85.9161 81.2325L84.4693 81.6286ZM83.956 84.252L85.413 84.6084L85.4214 84.5744L85.4281 84.5401L83.956 84.252ZM83.3285 86.8175L81.8714 86.4611L81.8519 86.5407L81.8412 86.622L83.3285 86.8175ZM82.984 89.4388L84.433 89.8266L84.4584 89.7317L84.4712 89.6342L82.984 89.4388ZM82.2986 91.9997L80.8496 91.6119L80.8231 91.7106L80.8103 91.812L82.2986 91.9997ZM81.9685 94.6172L80.4803 94.4295L80.479 94.4397L80.4779 94.45L81.9685 94.6172ZM81.6804 97.185L80.1898 97.0178L80.18 97.105L80.1805 97.1928L81.6804 97.185ZM81.6943 99.8406L80.1943 99.8484L80.1954 100.056L80.253 100.256L81.6943 99.8406ZM82.436 102.412L83.9308 102.287L83.9184 102.139L83.8772 101.997L82.436 102.412ZM82.6561 105.049L84.1521 104.94L84.1515 104.932L84.1509 104.925L82.6561 105.049ZM82.8477 107.667L81.3517 107.777L81.3611 107.904L81.392 108.029L82.8477 107.667ZM83.4893 110.25L82.0335 110.612L82.0966 110.866L82.2421 111.083L83.4893 110.25ZM84.8974 112.357L86.3973 112.344L86.3932 111.896L86.1446 111.524L84.8974 112.357ZM84.9166 114.435L85.3757 115.864L86.4267 115.526L86.4165 114.422L84.9166 114.435ZM82.4894 115.216L82.1305 116.672L82.5436 116.774L82.9485 116.644L82.4894 115.216ZM80.0395 114.612L78.701 115.289L79.0118 115.904L79.6806 116.068L80.0395 114.612ZM78.911 112.381L77.526 112.957L77.5473 113.008L77.5725 113.058L78.911 112.381ZM77.8857 109.914L76.4158 110.214L76.4448 110.356L76.5006 110.49L77.8857 109.914ZM77.3584 107.323L75.862 107.428L75.8689 107.526L75.8885 107.622L77.3584 107.323ZM77.1723 104.66L78.6687 104.556L78.6537 104.342L78.5794 104.141L77.1723 104.66ZM76.2544 102.175L77.6615 101.656L77.2971 100.669L76.2453 100.676L76.2544 102.175ZM74.6926 102.185L74.6834 100.685L73.5075 100.692L73.2337 101.836L74.6926 102.185ZM74.0823 104.735L72.6235 104.386L72.604 104.467L72.5937 104.551L74.0823 104.735ZM73.7593 107.347L72.2706 107.162L72.2701 107.167L73.7593 107.347ZM73.44 109.994L74.7531 110.719L74.8942 110.464L74.9292 110.174L73.44 109.994ZM72.9256 110.926L71.6039 110.217L74.2387 111.651L72.9256 110.926ZM93.0668 27L91.5773 27.1774L91.5891 27.2767L93.0786 27.0993L94.5681 26.9219L94.5562 26.8226L93.0668 27ZM93.0786 27.0993L91.6154 27.4295L92.1736 29.9027L93.6368 29.5724L95.1 29.2422L94.5418 26.7691L93.0786 27.0993ZM93.6368 29.5724L92.137 29.6011L92.1878 32.258L93.6875 32.2293L95.1873 32.2006L95.1365 29.5438L93.6368 29.5724ZM93.6875 32.2293L92.2179 32.5297L92.7492 35.129L94.2188 34.8287L95.6884 34.5283L95.1571 31.9289L93.6875 32.2293ZM94.2188 34.8287L92.7315 35.0239L93.0758 37.6456L94.563 37.4503L96.0502 37.2551L95.706 34.6334L94.2188 34.8287ZM94.563 37.4503L93.063 37.4496L93.0616 40.1004L94.5616 40.1011L96.0616 40.1019L96.063 37.4511L94.563 37.4503ZM94.5616 40.1011L93.0643 40.1913L93.2231 42.8277L94.7204 42.7375L96.2177 42.6473L96.0589 40.011L94.5616 40.1011ZM94.7204 42.7375L93.2314 42.9185L93.551 45.5483L95.04 45.3673L96.5291 45.1864L96.2094 42.5565L94.7204 42.7375ZM95.04 45.3673L93.54 45.3752L93.5539 48.0197L95.0538 48.0119L96.5538 48.0041L96.54 45.3595L95.04 45.3673ZM95.0538 48.0119L93.5618 47.8577L93.2885 50.502L94.7805 50.6562L96.2726 50.8104L96.5459 48.1661L95.0538 48.0119ZM94.7805 50.6562L93.2985 50.8877L93.7116 53.5325L95.1937 53.3011L96.6757 53.0696L96.2626 50.4248L94.7805 50.6562ZM95.1937 53.3011L93.6997 53.167L93.4628 55.8057L94.9568 55.9398L96.4508 56.0739L96.6876 53.4352L95.1937 53.3011ZM94.9568 55.9398L93.4569 55.923L93.4272 58.5741L94.9271 58.5909L96.4271 58.6077L96.4567 55.9566L94.9568 55.9398ZM94.9271 58.5909L93.4764 58.2098L92.7981 60.7913L94.2489 61.1725L95.6997 61.5536L96.3779 58.9721L94.9271 58.5909ZM94.2489 61.1725L92.7724 60.9081L92.3073 63.5056L93.7838 63.7699L95.2604 64.0343L95.7254 61.4368L94.2489 61.1725ZM93.7838 63.7699L92.3335 63.3873L91.6589 65.9442L93.1092 66.3269L94.5596 66.7096L95.2342 64.1526L93.7838 63.7699ZM93.1092 66.3269L91.6858 65.8538L90.8467 68.3787L92.2701 68.8517L93.6936 69.3248L94.5327 66.8L93.1092 66.3269ZM92.2701 68.8517L91.0871 67.9295L89.439 70.0437L90.622 70.9659L91.805 71.8881L93.4531 69.7739L92.2701 68.8517ZM90.622 70.9659L89.2585 70.3408L88.1398 72.7809L89.5034 73.406L90.8669 74.0311L91.9856 71.591L90.622 70.9659ZM89.5034 73.406L88.4758 72.3132L86.5338 74.1394L87.5613 75.2322L88.5889 76.3249L90.5309 74.4987L89.5034 73.406ZM87.5613 75.2322L86.486 74.1864L84.6395 76.085L85.7148 77.1308L86.7901 78.1766L88.6366 76.2779L87.5613 75.2322ZM85.7148 77.1308L84.6745 76.0501L82.7143 77.9372L83.7546 79.0178L84.7949 80.0985L86.7551 78.2114L85.7148 77.1308ZM83.7546 79.0178L82.3078 79.4139L83.0226 82.0247L84.4693 81.6286L85.9161 81.2325L85.2013 78.6218L83.7546 79.0178ZM84.4693 81.6286L82.9972 81.3406L82.4839 83.964L83.956 84.252L85.4281 84.5401L85.9414 81.9166L84.4693 81.6286ZM83.956 84.252L82.499 83.8956L81.8714 86.4611L83.3285 86.8175L84.7855 87.1739L85.413 84.6084L83.956 84.252ZM83.3285 86.8175L81.8412 86.622L81.4968 89.2434L82.984 89.4388L84.4712 89.6342L84.8157 87.0129L83.3285 86.8175ZM82.984 89.4388L81.535 89.051L80.8496 91.6119L82.2986 91.9997L83.7475 92.3875L84.433 89.8266L82.984 89.4388ZM82.2986 91.9997L80.8103 91.812L80.4803 94.4295L81.9685 94.6172L83.4567 94.8048L83.7868 92.1873L82.2986 91.9997ZM81.9685 94.6172L80.4779 94.45L80.1898 97.0178L81.6804 97.185L83.1711 97.3522L83.4592 94.7844L81.9685 94.6172ZM81.6804 97.185L80.1805 97.1928L80.1943 99.8484L81.6943 99.8406L83.1943 99.8327L83.1804 97.1772L81.6804 97.185ZM81.6943 99.8406L80.253 100.256L80.9947 102.828L82.436 102.412L83.8772 101.997L83.1356 99.4249L81.6943 99.8406ZM82.436 102.412L80.9412 102.537L81.1613 105.174L82.6561 105.049L84.1509 104.925L83.9308 102.287L82.436 102.412ZM82.6561 105.049L81.1601 105.159L81.3517 107.777L82.8477 107.667L84.3437 107.558L84.1521 104.94L82.6561 105.049ZM82.8477 107.667L81.392 108.029L82.0335 110.612L83.4893 110.25L84.9451 109.888L84.3035 107.306L82.8477 107.667ZM83.4893 110.25L82.2421 111.083L83.6502 113.191L84.8974 112.357L86.1446 111.524L84.7365 109.417L83.4893 110.25ZM84.8974 112.357L83.3975 112.371L83.4166 114.449L84.9166 114.435L86.4165 114.422L86.3973 112.344L84.8974 112.357ZM84.9166 114.435L84.4575 113.007L82.0304 113.788L82.4894 115.216L82.9485 116.644L85.3757 115.864L84.9166 114.435ZM82.4894 115.216L82.8484 113.759L80.3984 113.156L80.0395 114.612L79.6806 116.068L82.1305 116.672L82.4894 115.216ZM80.0395 114.612L81.3781 113.935L80.2496 111.704L78.911 112.381L77.5725 113.058L78.701 115.289L80.0395 114.612ZM78.911 112.381L80.2961 111.805L79.2707 109.339L77.8857 109.914L76.5006 110.49L77.526 112.957L78.911 112.381ZM77.8857 109.914L79.3555 109.615L78.8283 107.024L77.3584 107.323L75.8885 107.622L76.4158 110.214L77.8857 109.914ZM77.3584 107.323L78.8548 107.219L78.6687 104.556L77.1723 104.66L75.676 104.765L75.862 107.428L77.3584 107.323ZM77.1723 104.66L78.5794 104.141L77.6615 101.656L76.2544 102.175L74.8474 102.695L75.7653 105.18L77.1723 104.66ZM76.2544 102.175L76.2453 100.676L74.6834 100.685L74.6926 102.185L74.7017 103.685L76.2636 103.675L76.2544 102.175ZM74.6926 102.185L73.2337 101.836L72.6235 104.386L74.0823 104.735L75.5411 105.084L76.1514 102.534L74.6926 102.185ZM74.0823 104.735L72.5937 104.551L72.2706 107.162L73.7593 107.347L75.2479 107.531L75.571 104.919L74.0823 104.735ZM73.7593 107.347L72.2701 107.167L71.9508 109.815L73.44 109.994L74.9292 110.174L75.2485 107.526L73.7593 107.347ZM73.44 109.994L72.1269 109.269L71.6125 110.201L72.9256 110.926L74.2387 111.651L74.7531 110.719L73.44 109.994ZM72.9256 110.926L74.2473 111.635L74.3208 111.498L72.999 110.789L71.6773 110.08L71.6039 110.217L72.9256 110.926Z" fill="black"/>
<path d="M42.9609 79.6452L41.5742 79.0733L41.5452 79.1436L41.5235 79.2164L42.9609 79.6452ZM42.2335 82.0835L43.5712 82.7621L43.6323 82.6417L43.6709 82.5123L42.2335 82.0835ZM41.0301 84.4557L39.6924 83.7771L39.6351 83.89L39.5976 84.0109L41.0301 84.4557ZM40.2455 86.9829L41.6316 87.5562L41.6578 87.493L41.6781 87.4276L40.2455 86.9829ZM39.2338 89.4286L40.5251 90.192L40.5792 90.1003L40.6199 90.002L39.2338 89.4286ZM37.886 91.7085L36.5947 90.9452L36.5525 91.0165L36.5185 91.0921L37.886 91.7085ZM36.8006 94.1166L35.4331 93.5003L35.3345 93.7191L35.309 93.9577L36.8006 94.1166ZM36.5255 96.6981L35.0339 96.5391L35.0118 96.747L35.0473 96.9529L36.5255 96.6981ZM36.9653 99.249L35.4871 99.5038L35.4939 99.5435L35.5029 99.5828L36.9653 99.249ZM37.5571 101.841L36.0947 102.175L36.1389 102.369L36.2322 102.545L37.5571 101.841ZM38.8117 104.205L40.2658 103.836L40.2214 103.661L40.1366 103.501L38.8117 104.205ZM39.4615 106.771L38.0074 107.139L38.0236 107.204L38.0455 107.266L39.4615 106.771ZM40.3362 109.273L38.9202 109.768L38.9319 109.802L38.9452 109.835L40.3362 109.273ZM41.295 111.649L39.9041 112.211L39.9788 112.396L40.0993 112.555L41.295 111.649ZM42.8488 113.7L43.6599 114.962L45.0227 114.086L44.0445 112.795L42.8488 113.7ZM40.9126 114.945L41.0308 116.44L41.4066 116.411L41.7237 116.207L40.9126 114.945ZM38.3054 115.151L37.2414 116.208L37.731 116.701L38.4236 116.646L38.3054 115.151ZM36.6592 113.494L35.3593 114.243L35.4571 114.413L35.5952 114.552L36.6592 113.494ZM35.3212 111.17L33.8683 111.543L33.9192 111.741L34.0213 111.919L35.3212 111.17ZM34.662 108.601L36.115 108.228L36.0878 108.122L36.0455 108.022L34.662 108.601ZM33.64 106.162L32.1696 106.459L32.1991 106.605L32.2565 106.742L33.64 106.162ZM33.1118 103.547L34.5821 103.25L34.5335 103.01L34.4104 102.797L33.1118 103.547ZM31.7678 101.223L30.3298 101.649L30.3803 101.82L30.4692 101.973L31.7678 101.223ZM31.0151 98.6875L32.4531 98.2606L32.4463 98.2375L32.4386 98.2146L31.0151 98.6875ZM30.1829 96.1825L31.6064 95.7096L31.5958 95.6775L31.5836 95.6458L30.1829 96.1825ZM29.2377 93.7158L27.7957 93.3026L27.6577 93.7845L27.837 94.2526L29.2377 93.7158ZM29.8865 91.4514L28.6177 90.6514L28.5035 90.8324L28.4446 91.0382L29.8865 91.4514ZM31.303 89.2047L30.0608 88.3639L30.0472 88.3841L30.0342 88.4047L31.303 89.2047ZM32.7813 87.0207L31.6 86.0962L31.5681 86.137L31.5391 86.1799L32.7813 87.0207ZM34.422 84.9241L35.6033 85.8485L35.7475 85.6643L35.8287 85.4449L34.422 84.9241ZM35.3497 82.4186L34.0435 81.6812L33.9846 81.7855L33.943 81.8978L35.3497 82.4186ZM36.6478 80.1192L37.954 80.8567L37.9584 80.849L37.9626 80.8413L36.6478 80.1192ZM37.9205 77.8018L39.2353 78.5238L39.2582 78.4821L39.2784 78.439L37.9205 77.8018ZM38.7999 75.9279L40.2756 76.1967L37.442 75.2906L38.7999 75.9279ZM42.999 79.5528L41.6123 78.9809L41.5742 79.0733L42.9609 79.6452L44.3476 80.2172L44.3857 80.1247L42.999 79.5528ZM42.9609 79.6452L41.5235 79.2164L40.7961 81.6546L42.2335 82.0835L43.6709 82.5123L44.3983 80.0741L42.9609 79.6452ZM42.2335 82.0835L40.8957 81.4049L39.6924 83.7771L41.0301 84.4557L42.3679 85.1343L43.5712 82.7621L42.2335 82.0835ZM41.0301 84.4557L39.5976 84.0109L38.813 86.5381L40.2455 86.9829L41.6781 87.4276L42.4627 84.9004L41.0301 84.4557ZM40.2455 86.9829L38.8594 86.4095L37.8477 88.8552L39.2338 89.4286L40.6199 90.002L41.6316 87.5562L40.2455 86.9829ZM39.2338 89.4286L37.9426 88.6652L36.5947 90.9452L37.886 91.7085L39.1772 92.4719L40.5251 90.192L39.2338 89.4286ZM37.886 91.7085L36.5185 91.0921L35.4331 93.5003L36.8006 94.1166L38.1681 94.733L39.2535 92.3249L37.886 91.7085ZM36.8006 94.1166L35.309 93.9577L35.0339 96.5391L36.5255 96.6981L38.017 96.857L38.2921 94.2756L36.8006 94.1166ZM36.5255 96.6981L35.0473 96.9529L35.4871 99.5038L36.9653 99.249L38.4435 98.9941L38.0037 96.4432L36.5255 96.6981ZM36.9653 99.249L35.5029 99.5828L36.0947 102.175L37.5571 101.841L39.0194 101.508L38.4277 98.9152L36.9653 99.249ZM37.5571 101.841L36.2322 102.545L37.4869 104.908L38.8117 104.205L40.1366 103.501L38.8819 101.138L37.5571 101.841ZM38.8117 104.205L37.3576 104.573L38.0074 107.139L39.4615 106.771L40.9156 106.403L40.2658 103.836L38.8117 104.205ZM39.4615 106.771L38.0455 107.266L38.9202 109.768L40.3362 109.273L41.7522 108.779L40.8775 106.276L39.4615 106.771ZM40.3362 109.273L38.9452 109.835L39.9041 112.211L41.295 111.649L42.686 111.088L41.7272 108.712L40.3362 109.273ZM41.295 111.649L40.0993 112.555L41.653 114.606L42.8488 113.7L44.0445 112.795L42.4907 110.743L41.295 111.649ZM42.8488 113.7L42.0376 112.439L40.1015 113.683L40.9126 114.945L41.7237 116.207L43.6599 114.962L42.8488 113.7ZM40.9126 114.945L40.7944 113.45L38.1872 113.656L38.3054 115.151L38.4236 116.646L41.0308 116.44L40.9126 114.945ZM38.3054 115.151L39.3694 114.094L37.7233 112.437L36.6592 113.494L35.5952 114.552L37.2414 116.208L38.3054 115.151ZM36.6592 113.494L37.9592 112.746L36.6212 110.422L35.3212 111.17L34.0213 111.919L35.3593 114.243L36.6592 113.494ZM35.3212 111.17L36.7742 110.797L36.115 108.228L34.662 108.601L33.2091 108.974L33.8683 111.543L35.3212 111.17ZM34.662 108.601L36.0455 108.022L35.0234 105.583L33.64 106.162L32.2565 106.742L33.2786 109.181L34.662 108.601ZM33.64 106.162L35.1103 105.865L34.5821 103.25L33.1118 103.547L31.6415 103.844L32.1696 106.459L33.64 106.162ZM33.1118 103.547L34.4104 102.797L33.0664 100.472L31.7678 101.223L30.4692 101.973L31.8132 104.298L33.1118 103.547ZM31.7678 101.223L33.2057 100.796L32.4531 98.2606L31.0151 98.6875L29.5772 99.1144L30.3298 101.649L31.7678 101.223ZM31.0151 98.6875L32.4386 98.2146L31.6064 95.7096L30.1829 96.1825L28.7595 96.6554L29.5916 99.1604L31.0151 98.6875ZM30.1829 96.1825L31.5836 95.6458L30.6384 93.1791L29.2377 93.7158L27.837 94.2526L28.7823 96.7193L30.1829 96.1825ZM29.2377 93.7158L30.6797 94.129L31.3285 91.8645L29.8865 91.4514L28.4446 91.0382L27.7957 93.3026L29.2377 93.7158ZM29.8865 91.4514L31.1554 92.2514L32.5719 90.0047L31.303 89.2047L30.0342 88.4047L28.6177 90.6514L29.8865 91.4514ZM31.303 89.2047L32.5452 90.0455L34.0235 87.8614L32.7813 87.0207L31.5391 86.1799L30.0608 88.3639L31.303 89.2047ZM32.7813 87.0207L33.9626 87.9451L35.6033 85.8485L34.422 84.9241L33.2408 83.9996L31.6 86.0962L32.7813 87.0207ZM34.422 84.9241L35.8287 85.4449L36.7563 82.9395L35.3497 82.4186L33.943 81.8978L33.0154 84.4032L34.422 84.9241ZM35.3497 82.4186L36.6559 83.1561L37.954 80.8567L36.6478 80.1192L35.3416 79.3818L34.0435 81.6812L35.3497 82.4186ZM36.6478 80.1192L37.9626 80.8413L39.2353 78.5238L37.9205 77.8018L36.6057 77.0797L35.3331 79.3972L36.6478 80.1192ZM37.9205 77.8018L39.2784 78.439L40.1578 76.5652L38.7999 75.9279L37.442 75.2906L36.5626 77.1645L37.9205 77.8018ZM38.7999 75.9279L37.3242 75.6591L37.3101 75.7366L38.7858 76.0055L40.2615 76.2743L40.2756 76.1967L38.7999 75.9279Z" fill="black"/>
<path d="M67.6061 72.0999L66.1071 72.0458L66.1056 72.0863L66.1064 72.1268L67.6061 72.0999ZM67.6517 74.6441L69.1293 74.9025L69.154 74.7609L69.1515 74.6172L67.6517 74.6441ZM67.1946 77.2575L65.717 76.9991L65.6964 77.1169L65.6947 77.2364L67.1946 77.2575ZM67.1573 79.9078L65.6575 79.8867L65.657 79.9243L65.6583 79.962L67.1573 79.9078ZM67.2517 82.5156L68.7515 82.4924L68.7512 82.4769L68.7507 82.4614L67.2517 82.5156ZM67.2926 85.1603L65.7928 85.1835L65.794 85.2628L65.8036 85.3416L67.2926 85.1603ZM67.6117 87.782L66.1227 87.9633L66.1311 88.0323L66.1458 88.1003L67.6117 87.782ZM68.1731 90.3677L69.6613 90.1796L69.653 90.114L69.6389 90.0494L68.1731 90.3677ZM68.5043 92.9884L70.0028 92.921L70.0001 92.8605L69.9925 92.8004L68.5043 92.9884ZM68.6239 95.6463L67.1254 95.7137L67.1345 95.9156L67.1966 96.1078L68.6239 95.6463ZM69.4482 98.1958L70.9479 98.2262L70.953 97.9742L70.8755 97.7343L69.4482 98.1958ZM69.3943 100.855L67.8946 100.825L67.8941 100.848L67.8944 100.872L69.3943 100.855ZM69.4242 103.508L70.8947 103.804L70.9259 103.649L70.9241 103.491L69.4242 103.508ZM68.8992 106.116L67.4287 105.82L67.4005 105.96L67.3992 106.102L68.8992 106.116ZM68.8745 108.759L67.3745 108.745L67.3745 108.759L68.8745 108.759ZM68.8733 111.395L67.3733 111.395L67.3733 111.553L67.4061 111.707L68.8733 111.395ZM69.4094 113.916L67.9422 114.228L67.9965 114.484L68.1338 114.705L69.4094 113.916ZM70.7607 116.101L69.485 116.89L70.2067 118.056L71.433 117.442L70.7607 116.101ZM72.7985 115.079L73.7492 113.919L72.9963 113.302L72.1262 113.738L72.7985 115.079ZM67.6097 72L66.1107 71.9459L66.1071 72.0458L67.6061 72.0999L69.1051 72.1541L69.1088 72.0541L67.6097 72ZM67.6061 72.0999L66.1064 72.1268L66.152 74.6709L67.6517 74.6441L69.1515 74.6172L69.1059 72.0731L67.6061 72.0999ZM67.6517 74.6441L66.1741 74.3856L65.717 76.9991L67.1946 77.2575L68.6721 77.516L69.1293 74.9025L67.6517 74.6441ZM67.1946 77.2575L65.6947 77.2364L65.6575 79.8867L67.1573 79.9078L68.6572 79.9288L68.6944 77.2786L67.1946 77.2575ZM67.1573 79.9078L65.6583 79.962L65.7526 82.5699L67.2517 82.5156L68.7507 82.4614L68.6564 79.8536L67.1573 79.9078ZM67.2517 82.5156L65.7518 82.5389L65.7928 85.1835L67.2926 85.1603L68.7924 85.1371L68.7515 82.4924L67.2517 82.5156ZM67.2926 85.1603L65.8036 85.3416L66.1227 87.9633L67.6117 87.782L69.1007 87.6008L68.7816 84.9791L67.2926 85.1603ZM67.6117 87.782L66.1458 88.1003L66.7072 90.6859L68.1731 90.3677L69.6389 90.0494L69.0775 87.4638L67.6117 87.782ZM68.1731 90.3677L66.6849 90.5558L67.0162 93.1765L68.5043 92.9884L69.9925 92.8004L69.6613 90.1796L68.1731 90.3677ZM68.5043 92.9884L67.0058 93.0559L67.1254 95.7137L68.6239 95.6463L70.1224 95.5789L70.0028 92.921L68.5043 92.9884ZM68.6239 95.6463L67.1966 96.1078L68.021 98.6573L69.4482 98.1958L70.8755 97.7343L70.0511 95.1848L68.6239 95.6463ZM69.4482 98.1958L67.9485 98.1653L67.8946 100.825L69.3943 100.855L70.894 100.885L70.9479 98.2262L69.4482 98.1958ZM69.3943 100.855L67.8944 100.872L67.9243 103.525L69.4242 103.508L70.9241 103.491L70.8942 100.838L69.3943 100.855ZM69.4242 103.508L67.9537 103.212L67.4287 105.82L68.8992 106.116L70.3697 106.412L70.8947 103.804L69.4242 103.508ZM68.8992 106.116L67.3992 106.102L67.3746 108.745L68.8745 108.759L70.3744 108.773L70.3991 106.13L68.8992 106.116ZM68.8745 108.759L67.3745 108.759L67.3733 111.395L68.8733 111.395L70.3733 111.396L70.3745 108.76L68.8745 108.759ZM68.8733 111.395L67.4061 111.707L67.9422 114.228L69.4094 113.916L70.8766 113.604L70.3405 111.083L68.8733 111.395ZM69.4094 113.916L68.1338 114.705L69.485 116.89L70.7607 116.101L72.0363 115.312L70.685 113.127L69.4094 113.916ZM70.7607 116.101L71.433 117.442L73.4708 116.42L72.7985 115.079L72.1262 113.738L70.0884 114.76L70.7607 116.101ZM72.7985 115.079L71.8479 116.239L72.0484 116.404L72.999 115.243L73.9497 114.083L73.7492 113.919L72.7985 115.079Z" fill="black"/>
<path d="M37.0306 67.1006L35.6072 67.5739L35.6849 67.8075L35.8331 68.004L37.0306 67.1006ZM38.1583 68.5955L39.6382 68.8398L39.743 68.2054L39.3557 67.6921L38.1583 68.5955ZM37.7248 71.2206L36.2448 70.9762L36.1978 71.2608L36.2597 71.5425L37.7248 71.2206ZM38.2935 73.8091L36.8285 74.131L36.8757 74.3459L36.9827 74.5382L38.2935 73.8091ZM39.5401 76.0504L38.2292 76.7795L38.3247 76.9511L38.4611 77.0924L39.5401 76.0504ZM41.352 77.9264L40.2731 78.9685L40.4458 79.1473L40.6669 79.2608L41.352 77.9264ZM43.691 79.1272L43.0059 80.4616L43.1557 80.5385L43.3189 80.5803L43.691 79.1272ZM46.249 79.7823L46.6335 78.3323L46.6211 78.3292L46.249 79.7823ZM48.7856 80.4549L49.2106 79.0164L49.1904 79.0104L49.1701 79.005L48.7856 80.4549ZM51.3397 81.2095L50.9147 82.648L51.15 82.7175L51.3952 82.7085L51.3397 81.2095ZM54.0085 81.1107L54.227 79.6267L54.0907 79.6066L53.953 79.6117L54.0085 81.1107ZM56.6303 81.4966L56.4118 82.9806L56.5186 82.9963L56.6265 82.9966L56.6303 81.4966ZM59.2745 81.5032L59.527 80.0247L59.4035 80.0036L59.2783 80.0033L59.2745 81.5032ZM61.8894 81.9499L61.6369 83.4285L61.7638 83.4502L61.8926 83.4499L61.8894 81.9499ZM64.5312 81.9443L64.5344 83.4443L64.5459 83.4443L64.5573 83.4441L64.5312 81.9443ZM67.0001 81.9013L68.5 81.918L68.5172 80.3746L66.974 80.4015L67.0001 81.9013ZM36.999 67.0057L35.5757 67.479L35.6072 67.5739L37.0306 67.1006L38.4539 66.6273L38.4224 66.5324L36.999 67.0057ZM37.0306 67.1006L35.8331 68.004L36.9608 69.4988L38.1583 68.5955L39.3557 67.6921L38.2281 66.1972L37.0306 67.1006ZM38.1583 68.5955L36.6783 68.3511L36.2448 70.9762L37.7248 71.2206L39.2047 71.465L39.6382 68.8398L38.1583 68.5955ZM37.7248 71.2206L36.2597 71.5425L36.8285 74.131L38.2935 73.8091L39.7586 73.4872L39.1898 70.8987L37.7248 71.2206ZM38.2935 73.8091L36.9827 74.5382L38.2292 76.7795L39.5401 76.0504L40.851 75.3213L39.6044 73.08L38.2935 73.8091ZM39.5401 76.0504L38.4611 77.0924L40.2731 78.9685L41.352 77.9264L42.4309 76.8844L40.619 75.0083L39.5401 76.0504ZM41.352 77.9264L40.6669 79.2608L43.0059 80.4616L43.691 79.1272L44.376 77.7928L42.0371 76.592L41.352 77.9264ZM43.691 79.1272L43.3189 80.5803L45.8769 81.2354L46.249 79.7823L46.6211 78.3292L44.0631 77.6741L43.691 79.1272ZM46.249 79.7823L45.8646 81.2322L48.4011 81.9048L48.7856 80.4549L49.1701 79.005L46.6335 78.3324L46.249 79.7823ZM48.7856 80.4549L48.3606 81.8934L50.9147 82.648L51.3397 81.2095L51.7647 79.7709L49.2106 79.0164L48.7856 80.4549ZM51.3397 81.2095L51.3952 82.7085L54.064 82.6097L54.0085 81.1107L53.953 79.6117L51.2842 79.7105L51.3397 81.2095ZM54.0085 81.1107L53.7901 82.5947L56.4118 82.9806L56.6303 81.4966L56.8487 80.0126L54.227 79.6267L54.0085 81.1107ZM56.6303 81.4966L56.6265 82.9966L59.2707 83.0032L59.2745 81.5032L59.2783 80.0033L56.634 79.9966L56.6303 81.4966ZM59.2745 81.5032L59.0219 82.9818L61.6369 83.4285L61.8894 81.9499L62.142 80.4713L59.527 80.0247L59.2745 81.5032ZM61.8894 81.9499L61.8926 83.4499L64.5344 83.4443L64.5312 81.9443L64.528 80.4443L61.8863 80.4499L61.8894 81.9499ZM64.5312 81.9443L64.5573 83.4441L67.0263 83.4011L67.0001 81.9013L66.974 80.4015L64.5051 80.4445L64.5312 81.9443ZM67.0001 81.9013L65.5002 81.8846L65.4991 81.9833L66.999 82L68.4989 82.0167L68.5 81.918L67.0001 81.9013Z" fill="black"/>
<path d="M25.9089 52.435L25.7487 53.9265L26.174 53.9721L26.5594 53.7867L25.9089 52.435ZM23.4382 52.1697L23.5984 50.6783L23.3584 50.6525L23.1225 50.7033L23.4382 52.1697ZM20.8484 52.7272L20.5327 51.2608L20.1966 51.3331L19.9256 51.5446L20.8484 52.7272ZM18.7526 54.3625L17.8299 53.1799L17.7472 53.2444L17.6744 53.3198L18.7526 54.3625ZM16.936 56.241L15.8578 55.1982L15.8182 55.2392L15.7818 55.283L16.936 56.241ZM15.259 58.2615L14.1048 57.3034L13.9587 57.4794L13.8718 57.6909L15.259 58.2615ZM14.2558 60.7007L12.8685 60.1302L12.7638 60.3848L12.7563 60.6599L14.2558 60.7007ZM14.1848 63.3102L12.6853 63.2694L12.6804 63.4493L12.7182 63.6253L14.1848 63.3102ZM14.7271 65.8346L13.2605 66.1497L13.2983 66.3256L13.3767 66.4876L14.7271 65.8346ZM15.8942 68.2483L14.5438 68.9013L14.8562 69.5474L15.5552 69.7095L15.8942 68.2483ZM18.2032 68.784L19.7006 68.8722L19.775 67.6088L18.5422 67.3228L18.2032 68.784ZM25.999 52.3917L25.3486 51.04L25.2584 51.0834L25.9089 52.435L26.5594 53.7867L26.6495 53.7433L25.999 52.3917ZM25.9089 52.435L26.0691 50.9436L23.5984 50.6783L23.4382 52.1697L23.278 53.6611L25.7487 53.9265L25.9089 52.435ZM23.4382 52.1697L23.1225 50.7033L20.5327 51.2608L20.8484 52.7272L21.164 54.1936L23.7538 53.6361L23.4382 52.1697ZM20.8484 52.7272L19.9256 51.5446L17.8299 53.1799L18.7526 54.3625L19.6754 55.5451L21.7712 53.9097L20.8484 52.7272ZM18.7526 54.3625L17.6744 53.3198L15.8578 55.1982L16.936 56.241L18.0143 57.2837L19.8309 55.4052L18.7526 54.3625ZM16.936 56.241L15.7818 55.283L14.1048 57.3034L15.259 58.2615L16.4132 59.2195L18.0902 57.199L16.936 56.241ZM15.259 58.2615L13.8718 57.6909L12.8685 60.1302L14.2558 60.7007L15.643 61.2713L16.6463 58.832L15.259 58.2615ZM14.2558 60.7007L12.7563 60.6599L12.6853 63.2694L14.1848 63.3102L15.6842 63.351L15.7552 60.7415L14.2558 60.7007ZM14.1848 63.3102L12.7182 63.6253L13.2605 66.1497L14.7271 65.8346L16.1936 65.5196L15.6513 62.9952L14.1848 63.3102ZM14.7271 65.8346L13.3767 66.4876L14.5438 68.9013L15.8942 68.2483L17.2446 67.5954L16.0775 65.1816L14.7271 65.8346ZM15.8942 68.2483L15.5552 69.7095L17.8642 70.2452L18.2032 68.784L18.5422 67.3228L16.2332 66.7871L15.8942 68.2483ZM18.2032 68.784L16.7058 68.6958L16.6931 68.9118L18.1905 69L19.6879 69.0882L19.7006 68.8722L18.2032 68.784Z" fill="black"/>
<path d="M80.9767 76.0975L79.5144 75.7633L79.4961 75.8436L79.4866 75.9254L80.9767 76.0975ZM80.6849 78.6245L82.1053 79.1067L82.1567 78.9554L82.175 78.7966L80.6849 78.6245ZM79.8321 81.1369L78.4117 80.6547L78.3682 80.7828L78.3483 80.9165L79.8321 81.1369ZM79.4422 83.7617L80.9081 84.0798L80.9186 84.0312L80.9259 83.9821L79.4422 83.7617ZM78.8814 86.3456L80.2983 86.838L80.3281 86.7524L80.3473 86.6638L78.8814 86.3456ZM78.012 88.8478L76.5951 88.3554L76.5761 88.4101L76.5613 88.4661L78.012 88.8478ZM77.3404 91.4006L75.8898 91.019L75.8732 91.0819L75.8622 91.1461L77.3404 91.4006ZM76.8908 94.0118L78.349 94.3635L78.3606 94.3152L78.3691 94.2663L76.8908 94.0118ZM76.2739 96.5689L74.8158 96.2171L74.8069 96.2539L74.7999 96.2911L76.2739 96.5689ZM75.7819 99.1796L74.3079 98.9018L74.2579 99.1668L74.3034 99.4326L75.7819 99.1796ZM76.2338 101.82L77.1948 102.971L77.858 102.418L77.7123 101.567L76.2338 101.82ZM80.999 76L79.5367 75.6658L79.5144 75.7633L80.9767 76.0975L82.439 76.4317L82.4613 76.3342L80.999 76ZM80.9767 76.0975L79.4866 75.9254L79.1948 78.4525L80.6849 78.6245L82.175 78.7966L82.4668 76.2696L80.9767 76.0975ZM80.6849 78.6245L79.2645 78.1424L78.4117 80.6547L79.8321 81.1369L81.2525 81.6191L82.1053 79.1067L80.6849 78.6245ZM79.8321 81.1369L78.3483 80.9165L77.9585 83.5413L79.4422 83.7617L80.9259 83.9821L81.3158 81.3573L79.8321 81.1369ZM79.4422 83.7617L77.9763 83.4436L77.4156 86.0275L78.8814 86.3456L80.3473 86.6638L80.9081 84.0798L79.4422 83.7617ZM78.8814 86.3456L77.4646 85.8533L76.5951 88.3554L78.012 88.8478L79.4289 89.3401L80.2983 86.838L78.8814 86.3456ZM78.012 88.8478L76.5613 88.4661L75.8898 91.019L77.3404 91.4006L78.791 91.7822L79.4626 89.2294L78.012 88.8478ZM77.3404 91.4006L75.8622 91.1461L75.4126 93.7572L76.8908 94.0118L78.3691 94.2663L78.8186 91.6551L77.3404 91.4006ZM76.8908 94.0118L75.4327 93.66L74.8158 96.2171L76.2739 96.5689L77.7321 96.9207L78.349 94.3635L76.8908 94.0118ZM76.2739 96.5689L74.7999 96.2911L74.3079 98.9018L75.7819 99.1796L77.256 99.4574L77.748 96.8467L76.2739 96.5689ZM75.7819 99.1796L74.3034 99.4326L74.7553 102.073L76.2338 101.82L77.7123 101.567L77.2604 98.9265L75.7819 99.1796ZM76.2338 101.82L75.2728 100.668L75.0566 100.848L76.0177 102L76.9787 103.152L77.1948 102.971L76.2338 101.82Z" fill="black"/>
<path d="M91.4099 12.1038L89.9476 11.7698L89.8575 12.1642L89.9779 12.5504L91.4099 12.1038ZM91.9797 9.60969L90.5788 9.07339L90.5409 9.17234L90.5173 9.27564L91.9797 9.60969ZM92.9321 7.12201L94.3329 7.65831L94.4802 7.27355L94.4103 6.86753L92.9321 7.12201ZM92.4964 4.5916L93.9747 4.33712L93.7139 2.82243L92.2061 3.11997L92.4964 4.5916ZM90.5588 4.97393L90.2685 3.50231L89.7569 3.60325L89.4182 3.99975L90.5588 4.97393ZM88.8901 6.92774L87.7495 5.95355L87.5244 6.21706L87.4378 6.55259L88.8901 6.92774ZM88.2304 9.48155L86.7781 9.1064L86.6721 9.51669L86.7965 9.92179L88.2304 9.48155ZM88.9039 11.6751L87.47 12.1154L87.6621 12.7413L88.2517 13.0259L88.9039 11.6751ZM91.2599 12.8127L91.9316 11.4715L91.9219 11.4666L91.9121 11.4619L91.2599 12.8127ZM93.6374 14.0035L92.9657 15.3446L93.1618 15.4429L93.3779 15.4808L93.6374 14.0035ZM96.2754 14.4668L96.8631 13.0867L96.7046 13.0192L96.5349 12.9894L96.2754 14.4668ZM98.7119 15.5042L98.1242 16.8843L98.1807 16.9084L98.2391 16.9278L98.7119 15.5042ZM101.231 16.3409L102.06 15.0907L101.893 14.9803L101.704 14.9174L101.231 16.3409ZM103.454 17.8147L104.393 16.645L104.34 16.6022L104.283 16.5644L103.454 17.8147ZM105.483 19.4439L106.942 19.0953L106.823 18.5958L106.423 18.2743L105.483 19.4439ZM106.097 22.0125L107.581 22.2303L107.623 21.9446L107.556 21.6638L106.097 22.0125ZM105.704 24.6904L106.424 26.0066L107.08 25.6479L107.188 24.9082L105.704 24.6904ZM103.42 25.9388L104.047 27.3014L104.094 27.2798L104.14 27.255L103.42 25.9388ZM100.984 27.0597L101.178 28.5471L101.404 28.5176L101.611 28.4223L100.984 27.0597ZM98.3508 27.4028L98.157 25.9153L98.0669 25.9271L97.9788 25.9496L98.3508 27.4028ZM95.7867 28.0591L95.8238 29.5587L95.9939 29.5545L96.1587 29.5123L95.7867 28.0591ZM93.1226 28.1252L93.0854 26.6256L92.8749 26.6308L92.674 26.6938L93.1226 28.1252ZM90.5558 28.9295L90.0593 30.3449L90.5292 30.5098L91.0043 30.3609L90.5558 28.9295ZM91.4397 12.1993L92.8717 11.7527L92.8419 11.6573L91.4099 12.1038L89.9779 12.5504L90.0077 12.6459L91.4397 12.1993ZM91.4099 12.1038L92.8722 12.4379L93.442 9.94374L91.9797 9.60969L90.5173 9.27564L89.9476 11.7698L91.4099 12.1038ZM91.9797 9.60969L93.3805 10.146L94.3329 7.65831L92.9321 7.12201L91.5312 6.58571L90.5788 9.07339L91.9797 9.60969ZM92.9321 7.12201L94.4103 6.86753L93.9747 4.33712L92.4964 4.5916L91.0182 4.84608L91.4538 7.37649L92.9321 7.12201ZM92.4964 4.5916L92.2061 3.11997L90.2685 3.50231L90.5588 4.97393L90.8492 6.44556L92.7868 6.06322L92.4964 4.5916ZM90.5588 4.97393L89.4182 3.99975L87.7495 5.95355L88.8901 6.92774L90.0307 7.90192L91.6994 5.94811L90.5588 4.97393ZM88.8901 6.92774L87.4378 6.55259L86.7781 9.1064L88.2304 9.48155L89.6828 9.8567L90.3424 7.30288L88.8901 6.92774ZM88.2304 9.48155L86.7965 9.92179L87.47 12.1154L88.9039 11.6751L90.3378 11.2349L89.6644 9.0413L88.2304 9.48155ZM88.9039 11.6751L88.2517 13.0259L90.6077 14.1635L91.2599 12.8127L91.9121 11.4619L89.5561 10.3244L88.9039 11.6751ZM91.2599 12.8127L90.5882 14.1539L92.9657 15.3446L93.6374 14.0035L94.3091 12.6623L91.9316 11.4715L91.2599 12.8127ZM93.6374 14.0035L93.3779 15.4808L96.016 15.9442L96.2754 14.4668L96.5349 12.9894L93.8968 12.5261L93.6374 14.0035ZM96.2754 14.4668L95.6878 15.8469L98.1242 16.8843L98.7119 15.5042L99.2995 14.1242L96.8631 13.0867L96.2754 14.4668ZM98.7119 15.5042L98.2391 16.9278L100.758 17.7645L101.231 16.3409L101.704 14.9174L99.1847 14.0807L98.7119 15.5042ZM101.231 16.3409L100.402 17.5912L102.625 19.0649L103.454 17.8147L104.283 16.5644L102.06 15.0907L101.231 16.3409ZM103.454 17.8147L102.515 18.9843L104.544 20.6136L105.483 19.4439L106.423 18.2743L104.393 16.645L103.454 17.8147ZM105.483 19.4439L104.024 19.7926L104.638 22.3612L106.097 22.0125L107.556 21.6638L106.942 19.0953L105.483 19.4439ZM106.097 22.0125L104.613 21.7947L104.22 24.4725L105.704 24.6904L107.188 24.9082L107.581 22.2303L106.097 22.0125ZM105.704 24.6904L104.985 23.3741L102.701 24.6226L103.42 25.9388L104.14 27.255L106.424 26.0066L105.704 24.6904ZM103.42 25.9388L102.793 24.5761L100.357 25.697L100.984 27.0597L101.611 28.4223L104.047 27.3014L103.42 25.9388ZM100.984 27.0597L100.79 25.5722L98.157 25.9153L98.3508 27.4028L98.5446 28.8902L101.178 28.5471L100.984 27.0597ZM98.3508 27.4028L97.9788 25.9496L95.4147 26.606L95.7867 28.0591L96.1587 29.5123L98.7228 28.8559L98.3508 27.4028ZM95.7867 28.0591L95.7495 26.5596L93.0854 26.6256L93.1226 28.1252L93.1597 29.6247L95.8238 29.5587L95.7867 28.0591ZM93.1226 28.1252L92.674 26.6938L90.1073 27.4981L90.5558 28.9295L91.0043 30.3609L93.5711 29.5565L93.1226 28.1252ZM90.5558 28.9295L91.0523 27.5141L90.4189 27.2918L89.9223 28.7073L89.4258 30.1227L90.0593 30.3449L90.5558 28.9295Z" fill="black"/>
<path d="M74.2214 111.095L72.7965 110.626L72.5373 111.414L73.0669 112.053L74.2214 111.095ZM75.8831 113.098L77.117 113.951L77.7637 113.016L77.0377 112.141L75.8831 113.098ZM74.7243 114.775L74.8262 116.271L75.5472 116.222L75.9581 115.628L74.7243 114.775ZM72.972 114.894L71.5448 114.432L70.8624 116.541L73.074 116.39L72.972 114.894ZM74.2526 111L72.8277 110.531L72.7965 110.626L74.2214 111.095L75.6462 111.564L75.6775 111.469L74.2526 111ZM74.2214 111.095L73.0669 112.053L74.7286 114.056L75.8831 113.098L77.0377 112.141L75.3759 110.137L74.2214 111.095ZM75.8831 113.098L74.6493 112.245L73.4904 113.921L74.7243 114.775L75.9581 115.628L77.117 113.951L75.8831 113.098ZM74.7243 114.775L74.6223 113.278L72.87 113.397L72.972 114.894L73.074 116.39L74.8262 116.271L74.7243 114.775ZM72.972 114.894L74.3991 115.356L74.4262 115.272L72.999 114.81L71.5719 114.349L71.5448 114.432L72.972 114.894Z" fill="black"/>
<path d="M88.5949 18.0316L88.1205 19.4546L88.2651 19.5028L88.4164 19.521L88.5949 18.0316ZM89.1346 18.0963L90.1413 16.9843L89.7872 16.6637L89.313 16.6069L89.1346 18.0963ZM89.6467 18.5599L88.64 19.6719L89.3181 20.2859L90.1744 19.964L89.6467 18.5599ZM90.0278 18.4167L91.4508 18.891L92.446 15.9054L89.5001 17.0126L90.0278 18.4167ZM88.5 18L88.0257 19.423L88.1205 19.4546L88.5949 18.0316L89.0692 16.6086L88.9743 16.577L88.5 18ZM88.5949 18.0316L88.4164 19.521L88.9562 19.5856L89.1346 18.0963L89.313 16.6069L88.7733 16.5423L88.5949 18.0316ZM89.1346 18.0963L88.1279 19.2083L88.64 19.6719L89.6467 18.5599L90.6534 17.4479L90.1413 16.9843L89.1346 18.0963ZM89.6467 18.5599L90.1744 19.964L90.5555 19.8208L90.0278 18.4167L89.5001 17.0126L89.119 17.1558L89.6467 18.5599ZM90.0278 18.4167L88.6047 17.9424L88.577 18.0257L90 18.5L91.423 18.9743L91.4508 18.891L90.0278 18.4167Z" fill="black"/>
</svg>
