<svg xmlns="http://www.w3.org/2000/svg" width="120" height="120" fill="none" viewBox="0 0 120 120"><path fill="#000" d="M91.14 5H94v.21l-.2 2.462.118 2.508h.012l.175 2.636.012.13-.011.128-.118 1.078-.22-.022.04.182.622 2.579.011.058.012.07.399 2.614.011.035v.047l.246 2.59.47 2.496v.023l.01.012.434 2.602.446 2.601.012.035.011.047.27 2.508.644 2.496.047.164v.176l.03 1.771.279-.416.082-.129.105-.105.914-.926 2.825-2.847-.27 4.007-.152 2.438.457 2.46.047.223-.036.235-.293 2.484.129 2.543.012.082-.012.082-.152 2.531.293 2.496.012.165-.012.152-.281 2.566.011.012-.164 2.484.364 2.496.011.118v.129l-.043 1.912.899.06-.012.012 2.555.012h.047l2.648.105 1.254.059.164 1.242.305 2.203v.07l.234 2.637.012.082v.07l-.047 2.649-.012 2.625v.023l-.058 2.637.047 2.578.011.117-.023.118-.352 2.484.153 2.437.269 2.637.024.164-.024.164-.293 2.543.164 2.473v.164l-.129 2.531.293 2.508.024.223-.035.222-.469 2.438.164 2.461v.082l.035 2.625.059 2.637.07 2.636v.035l.012 2.637v.234l-.059.211-.112.368 1.382-.141.082-.012h.082l1.043.012-.012 1.5-.024 1.5-.996-.012-2.507.258-.223.024-.223-.036-1.412-.283-1.463.279-.234.047-.246-.023-2.436-.344-1.592.278-.152.023-.164-.012-2.438-.097-.683.117-.117.023h-.117l-2.649.012-.152.012-.14-.036-.684-.135-.59.116-.235.047-.234-.024-2.37-.304-.728.078-.14.012-.14-.012-1.073-.094-.635.004-.012-.012-2 .063-1.238.168-.2.035-.198-.035-.787-.109-.815.019h-.023l-2.567.012.012.011-2.637.176-.187.012-.847-.159-.552-.013-2.637-.07.012-.012-.527-.012-.465.055-.129.012h-.129l-2.188-.121-.598-.005-2.323.149h-.129l-.129-.012-.167-.019-1.345.156-.164.023-.164-.023-1.077-.119-.72.139-.222.035-.223-.024-1.338-.157-2.244.13-.152.012-.141-.024-.95-.132-.491.07-.118.011h-.117l-2.636-.058h-.387l-.109-.064-1.536.177-.164.024-.164-.024-2.637-.269.012-.012-1.826-.1-1.885-.033-2.496.223-.035.011h-.047l-.156.005-1.059.202-.234.047-.246-.023-.97-.137h-.089l-2.636-.105v-.012l-2.43-.012-1.34.231-.117.023h-.117l-2.649.012-.152.012-.14-.036-1.533-.303-2.034-.009v-.012l-.354.003-.92.099-.14.012-.14-.012-.91-.079-.044.001-2.637.234-.14.012-.153-.012-.7-.078-.374.051-.2.035-.198-.035-1.823-.251-1.814.009v-.012l-2.543.176h-.012l-.012.011-2.648.118-.094.011-.082-.011-2.543-.188.012-.223V114.5h.21l2.046.165-.026-1.446v-.106l.012-.105.34-2.473-.2-2.496-.01-.105v-.106l.163-2.637-.105-2.496v-.117l.105-2.496-.152-2.637v-.117l.012-.105.246-2.649.07-2.496v-2.637l-.234-2.507v-.036l-.176-2.636-.012-.094.012-.094.152-2.648-.082-2.496-.012-.13.024-.14.375-2.496-.164-2.437-.235-2.637-.011-.13.011-.116.211-2.637-.082-2.437-.105-1.688L10.3 62.5h1.91l2.46.2 2.509-.118v-.012l1.31-.088-.185-2.623v-.164l.129-2.566-.024-2.637v-.023l.035-2.649v-.105l.223-2.496-.281-2.496-.012-.082v-.094l.012-2.637v-.047l.011-.047.176-2.636.117-2.614-.105-1.453-.305-.304.176-.786.082-.351 1.887.21.586-.562 1.453 1.536.324-2.329.012-.035v-.035l.492-2.602.363-2.554.106-2.508v-.152l.047-.153.656-2.566.469-2.485h-.012l.469-2.601.011-.047v-.047l.621-2.566.317-2.461.504-3.88.066.099-.098-2.227-.011-.094.012-.082L27 4.988l.14.012H30v.21l-.2 2.462.118 2.508h.012l.175 2.636.012.13-.012.128-.117 1.078-.22-.022.04.182.622 2.579.011.058.012.07.399 2.614.011.035v.047l.246 2.59.47 2.496v.023l.01.012.434 2.602.446 2.601.011.035.012.047.27 2.508.644 2.496.047.164v.176l.03 1.771.279-.416.082-.129.105-.105.914-.926 2.825-2.847-.27 4.007-.152 2.438.457 2.46.047.223-.036.235-.293 2.484.13 2.543.011.082-.012.082-.152 2.531.293 2.496.012.165-.012.152-.281 2.566.011.012-.164 2.484.364 2.496.011.118v.129l-.043 1.912.899.06-.012.012 2.555.012h.047l2.648.105 1.254.059.092.696.006-.009.047-.082.058-.07 1.617-2.027 1.325-2.145.07-.117.094-.094 1.675-1.84 1.22-2.168.116-.164 1.582-2.11h.012l1.477-1.991 1.324-2.274.07-.105.07-.094 1.7-2.039 1.183-1.582.313-.423-.11-1.66v-.01l-.011-.013-.117-2.648-.012-.094.011-.082.188-2.543.14.012H62v.21l-.2 2.462.118 2.508h.012l.175 2.636.012.13-.011.128-.04.356.797.847.094.094.07.117 1.383 2.133 1.606 2.04.058.081.047.082 1.371 2.274v.011l.012.012 1.242 2.191 1.477 2.133 1.57 2.11 1.652 1.957.14.187.736 1.197-.02-.396h1.91l2.46.2 2.509-.118v-.012l1.31-.088-.185-2.623v-.164l.129-2.566-.024-2.637v-.023l.035-2.649v-.105l.223-2.496-.281-2.496-.012-.082v-.094l.012-2.637v-.047l.011-.047.176-2.636.117-2.614-.105-1.453-.305-.304.176-.786.082-.351 1.887.21.586-.562 1.453 1.536.324-2.329.012-.035v-.035l.492-2.602.363-2.554.106-2.508v-.152l.047-.153.656-2.566.469-2.485h-.012l.469-2.601.011-.047v-.047l.621-2.566.317-2.461.504-3.88.066.099-.097-2.227-.012-.094.011-.082L91 4.988zM33.189 88.93h-.083l-2.636-.012-2.508.023-2.637.223-.14.012-.153-.012-2.531-.27h-2.578l-2.543.165h-.012l-.012.011-2.648.118-.094.011-.082-.011-.837-.063.017.176v2.824l-.07 2.637v.047l-.012.058-.246 2.543.152 2.508v.141l-.105 2.648.093 2.52.012.07-.012.07-.152 2.52.2 2.554.011.153-.012.164-.34 2.531.012 1.008 1.207-.024h.047l1.463.019-.111-.909-.024-.176.012-.176.27-2.531v-2.578l-.165-2.543v-.012l-.011-.012-.117-2.648-.012-.094.011-.082.188-2.543.14.012H19v.211l-.2 2.461.118 2.508h.012l.175 2.636v.094l.012 2.637.012.094-.012.082-.281 2.449.16 1.241 1.335.149 1.864-.253.164-.024.164.012 1.752.14 1.466-.013 1.786-.174.223-.023.223.046.81.155.264.002 2.648-.118.082-.011.082.011 2.536.168.96-.16.153-.035.152.012 2.637.105.07.012h.07l1.435.196 1.965-.064.503-.097.036-.123.026-1.416-.058-2.637v-.023l-.012-2.625-.047-2.637v-.082l.012-.082.126-1.447-.001-.084v-.012l-.164-2.543-.012-.187.035-.188.3-1.635-.073-1.626v-.047l-.01-1.164-.041-.356-.023-.129.011-.117.04-.789-.176-2.637v-.175l.117-2.555-.001-.064-1.444-.057V89l-.87-.005-.1 1.513-.011-.012-.012 2.555v.047l-.105 2.59.082 2.496.246 2.648v.152l-.047 2.637-.012 1.395-.011 1.488H38.5v-1.5l-1.348-.024.012-1.394v-.012l.035-2.625-.21-2.496-.012-.035v-.047l-.094-2.637v-.117l.105-2.636H37l.012-2.59v-.047l.011-.047.088-1.397-1.392-.088zm64 0h-.082l-2.637-.012-2.508.023-2.637.223-.14.012-.153-.012-2.531-.27h-2.578l-.807.052-.103 1.562-.012-.012-.012 2.555v.047l-.105 2.59.082 2.496.246 2.648v.152l-.047 2.637-.012 1.395-.011 1.488H81.5v-1.5l-1.348-.024.012-1.394v-.012l.035-2.625-.21-2.496-.012-.035v-.047l-.094-2.637v-.117l.105-2.636H80l.012-2.59v-.047l.011-.047.075-1.172-1.391.063-.094.011-.082-.011-.837-.063.017.176v2.824l-.07 2.637v.047l-.012.058-.171 1.756.276 1.404.024.153v.152l-.024 2.637v.117l-.011.117-.287 1.667.087 2.357.012.07-.012.07-.07 1.163.293 2.15.035.246-.047.234-.19.966.026.315.012.153-.012.164-.208 1.544.22 1.663.043.324.824-.016h.047l2.637.036h.094l.093.011 1.592.203 1.611-.035.443-.012 1.23-.167.163-.024.164.012 1.466.117 1.843-.008h.096l1.6-.156.222-.023.223.046 1.42.272 1.443-.279.246-.047.234.035 2.445.333 1.595-.267.152-.035.152.012 1.307.052-.119-.966-.024-.176.012-.176.269-2.531v-2.578l-.164-2.543v-.012l-.011-.012-.118-2.648-.011-.094.011-.082.188-2.543.141.012H104v.211l-.199 2.461.117 2.508h.012l.175 2.636v.094l.012 2.637.012.094-.012.082-.281 2.449.139 1.085 1.689-.015h.152l.153.024.402.079.215-.716v-2.391l-.07-2.636v-.012l-.059-2.637v-.012l-.035-2.648v-.012l-.164-2.543-.012-.187.035-.188.446-2.437-.27-2.39-.023-.13.011-.117.129-2.578-.152-2.543-.012-.129.012-.129.095-.838-1.537-.06V89l-2.589-.012h-.047l-.047-.011-2.578-.165zM59.91 47.906l-.023.024-.024.035-1.64 1.969-1.254 2.144-.035.07-.047.07-1.582 2.122v.012L53.77 56.39l-1.254 2.215-.082.152-.118.117-1.687 1.852-1.336 2.144-.047.082-.047.059-1.593 2.004-1.337 2.168-.093.14-.544.708.071.796.012.082v.07l-.029 1.57.01.067v.094l-.018.355-.01.563-.012 2.625v.023l-.058 2.637.047 2.578.011.117-.023.118-.065.45.092.858.012.153-.012.14-.222 2.637-.007.65.003.033.27 2.637.023.164-.024.164-.293 2.543.164 2.473v.164l-.089 1.737.011 1.235.242 2.067.024.223-.035.222-.14.72.026.624.012.059-.012.058-.093 2.637v.082l-.095 1.06.032 2.366.059 2.637.07 2.636v.035l.012 2.637v.234l-.038.134.686.085.685.042.69.013-.012.012h2.66l.076.001-.017-1.927-.035-2.649-.012-.07.012-.082.223-2.566.105-2.52-.105-2.637v-.046l-.035-2.649.011-.012-.187-2.53-.024-.434.2-.375 1.253-2.38.094-.163.129-.141 1.793-1.957.047-.059.059-.058 1.98-1.746.07-.07.082-.047 2.18-1.5.293-.2.352-.047 2.062-.293.656-.093.504.421 2.04 1.688.058.047.058.058 1.852 1.899.035.035.024.047 1.71 1.992.07.094.071.105.879 1.465h.809l-.059 1.547-.07 2.203-.059 2.625-.023 2.614v.046l-.012.047-.152 2.438.457 2.461.046.222-.035.223-.293 2.496.13 2.543.001.037.37.006h.011l1.883.041 1.988-.232.235-.036.19.041-.018-1.052v-.106l.011-.105.099-.723-.075-.57-.024-.246.047-.235.247-1.269-.153-1.926-.012-.105v-.106l.074-1.194-.027-.193-.012-.07v-.07l-.105-2.637-.012-.152.023-.164.118-.679v-.091l.105-2.496-.152-2.637v-.117l.011-.105.039-.42-.167-.838-.035-.211.023-.223.246-2.472-.2-2.532-.01-.164.022-.164.277-2.063-.112-1.202v-.036l-.05-.727-.115-.859-.011-.081v-.094l-.009-.943-.003-.026.002-.024-.014-1.644v-.14l.024-.13.15-.876-.08-2.424-.012-.13.024-.14.3-2.009-.253-1.897-.012-.152.012-.165.105-1.362-.176-1.985-.011-.13.011-.116.11-1.385-.567-1.959-1.418-1.852-.035-.058-.047-.07-1.324-2.18-1.64-1.91-.024-.035-.035-.047-1.57-2.121-.012-.012-.012-.024-1.5-2.168-.047-.058-.035-.059-1.289-2.273-1.3-2.192-1.594-1.992-.036-.058-.047-.059-1.347-2.11-.516-.538zm-1.976 56.116-.133 1.65.117 2.508h.012l.175 2.636v.094l.012 2.637.012.094-.012.093-.079.658.704-.095.153-.024.152.012 2.637.153.035.011h.035l.035.003.211-.023.105-.952v-2.555l-.164-2.543v-.012l-.011-.012-.117-2.648-.012-.094.011-.082.122-1.636h-2.012zm-4.313.384v.129l-.105 2.637v.07l-.235 2.649.047 2.472v.024l.024 1.769.391.23 1.265-.029.097-.88v-2.555l-.164-2.543v-.012l-.011-.012-.117-2.648-.012-.094.011-.082.1-1.353-.205.01-.094.011-.082-.011-.922-.069zm11.762-.254-.176.024-.176-.012-.108-.012-.122 1.52.117 2.508h.012l.175 2.636v.094l.012 2.637.012.094-.012.093-.065.543 1.182.077.325-.385-.118-2.051v-.117l.012-.129.281-2.402-.457-2.426-.035-.188.012-.187.162-2.445zm-36.176-12.02 1.57 2.005.059.07.047.082.855 1.43h1.184l-.223 1.699-.234 1.676-.082 2.566.105 2.52v.047l.024 2.636.011 1.336-1.324.164-2.531.317-.129.023-.129-.012-2.637-.117-.89-.047-.387-.785-.926-1.875-.164-.328.012-.351.023-2.649v-.047l.012-.058.211-2.473-.281-2.52-.047-.457.21-.41 1.267-2.367.105-.2.164-.163 1.898-1.852 1.196-1.172zm64 0 1.57 2.005.059.07.047.082.855 1.43h1.184l-.223 1.699-.234 1.676-.082 2.566.105 2.52v.047l.024 2.636.011 1.336-1.324.164-2.531.317-.129.023-.129-.012-2.637-.117-.89-.047-.387-.785-.926-1.875-.164-.328.012-.351.023-2.649v-.047l.012-.058.211-2.473-.281-2.52-.047-.457.21-.41 1.266-2.367.106-.2.164-.163 1.899-1.852 1.195-1.172zm-65.851 3.68-.926 1.758.234 2.18.012.152-.012.141-.223 2.648-.023 2.157.375.761 1.64.071 1.067-.129-.012-1.254-.105-2.637v-.117l.094-2.637.011-.07v-.07l.117-.797-1.253-2.086-.47-.586zm64 0-.926 1.758.234 2.18.012.152-.012.141-.223 2.648-.023 2.157.375.761 1.64.071 1.067-.129-.012-1.254-.105-2.637v-.117l.094-2.637.011-.07v-.07l.118-.797-1.254-2.086-.47-.586zm-31.77-5.421-1.852 1.277-1.757 1.57h-.012l-1.64 1.781-.985 1.852.14 2.215v.094l.026 1.924 1.166.095 2.508-.117v-.012l2.636-.175h.094l2.637-.012.094-.012.082.012 2.449.281 1.286-.166.054-2.38v-.024l.058-1.57-1.125-1.887-1.558-1.828-1.723-1.793-1.523-1.266zM60 96.94l1.184-.703.175.305.13.21.046.235.13.598.093.445-.164.41-.2.504-1.124-.445H58.5v-.375l.105-.27.024-.046-.035-.047-1.325-2.262H60zM13.488 65.63l.07 2.648.012.082-.011.082-.211 2.496.234 2.532v.035l.164 2.637.012.164-.024.152-.375 2.52.094 2.496v.14l-.164 2.531.136 1.954 1.247.101 1.46-.068-.062-.908v-.117l.012-2.637-.023-2.508-.223-2.637-.012-.14.012-.153.27-2.531v-2.578l-.165-2.543v-.012l-.011-.011-.117-2.649-.012-.094.011-.082.066-.896-1.171.052-.094.012-.082-.011-1.054-.082zm64 0 .07 2.648.012.082-.011.082-.081.956.15 2.439v.094l-.01.105-.079.974.043.46v.035l.164 2.637.012.164-.024.152-.027.18.05.367.012.105v.118l-.046 2.636v.118l-.024.117-.246 1.449v.066l-.164 2.531.12 1.736.03.219 1.233.1 1.441-.068-.043-.944v-.081l.012-2.637-.023-2.508-.223-2.637-.012-.14.012-.153.27-2.531v-2.578l-.165-2.543v-.012l-.011-.011-.118-2.649-.011-.094.011-.082.066-.896-1.171.052-.094.012-.082-.011-1.054-.082zm26.313.043.117 2.508h.012l.175 2.636v.094l.012 2.637.012.094-.012.082-.281 2.508.211 2.484.012.047v.058l.023 2.649v.023l-.012 2.555.086 1.96.895.005h.047l1.464.057-.117-1.116v-.059l-.164-2.648v-.14l.012-.153.34-2.472-.035-2.567v-.07l.058-2.637.012-2.613v-.024l.047-2.472-.235-2.649v-.011l-.117-.88-1.383-.046V65.5l-1.166-.006zm-64 1 .117 2.508h.012l.175 2.636v.094l.012 2.637.012.094-.012.082-.281 2.508.21 2.484.013.047v.058l.023 2.649v.023l-.012 2.555.042.96.939.005h.047l1.319.052.013-1.416-.149-2.402v-.14l.012-.153.25-1.824-.152-1.402-.012-.083v-.093l.012-2.637v-.094l.175-2.636.113-2.189.008-.43-.132-1.752-.867-.598.852-1.09-.06-.676v-.011l-.117-.88-1.383-.046V65.5l-1.084-.006zm-4.592-1.346-.24.135-.34.187h-.375l-2.625.012v.012l-2.649.035-.07.012-.082-.012-1.963-.18-1.54.137-.141.012-.153-.012-2.239-.249-1.687.07-.843.034-.085-.126-.255.001v-.011l-1.024.07-.097 1.219.117 2.508h.012l.175 2.636v.094l.012 2.637.012.094-.012.082-.281 2.508.21 2.484.013.047v.058l.023 2.649v.023l-.012 2.531.057.917.69-.046h.093l2.637-.011.094-.012.082.012.905.1-.058-.116-.164-.328.012-.352.023-2.648v-.047l.012-.058.211-2.473-.281-2.52-.047-.457.21-.41 1.267-2.367.105-.2.164-.163 1.898-1.852 1.196-1.172 1.031 1.313 1.57 2.004.059.07.047.082.855 1.43h1.184l-.223 1.699-.234 1.676-.082 2.566.105 2.52v.047l.015 1.7.544.003 2.648-.118.082-.011.082.011 1.243.082-.032-.707v-.081l.012-2.637-.023-2.508-.223-2.637-.012-.14.012-.153.27-2.531v-2.578l-.165-2.543v-.012l-.011-.011-.117-2.649-.012-.094.011-.082.085-1.15-1.178-.08zm64 0-.24.135-.34.187h-.375l-2.625.012v.012l-2.648.035-.07.012-.083-.012-1.963-.18-1.54.137-.141.012-.153-.012-2.239-.249-1.686.07-.844.034-.085-.126-.255.001v-.011l-1.024.07-.097 1.219.117 2.508h.012l.175 2.636v.094l.012 2.637.012.094-.012.082-.281 2.508.21 2.484.013.047v.058l.023 2.649v.023l-.012 2.555.04.894.706-.047h.094l2.637-.011.094-.012.082.012.905.1-.058-.116-.164-.328.012-.352.023-2.648v-.047l.012-.058.211-2.473-.281-2.52-.047-.457.21-.41 1.266-2.367.106-.2.164-.163 1.899-1.852 1.195-1.172 1.031 1.313 1.57 2.004.059.07.047.082.855 1.43h1.184l-.223 1.699-.234 1.676-.082 2.566.105 2.52v.047l.015 1.7.544.003 2.648-.118.082-.011.082.011 1.294.085-.083-1.71v-.081l.012-2.637-.023-2.508-.223-2.637-.012-.14.012-.153.269-2.531v-2.578l-.164-2.543v-.012l-.011-.011-.118-2.649-.011-.094.011-.082.011-.155-1.104-.075zM27.356 75.813l-.926 1.757.234 2.18.012.152-.012.141-.223 2.648-.023 2.157.375.761 1.64.07 1.067-.128-.012-1.254-.105-2.637v-.117l.094-2.637.011-.07v-.07l.117-.797-1.253-2.086-.47-.586zm64 0-.926 1.757.234 2.18.012.152-.012.141-.223 2.648-.023 2.157.375.761 1.64.07 1.067-.128-.012-1.254-.105-2.637v-.117l.094-2.637.011-.07v-.07l.118-.797-1.254-2.086-.47-.586zM61.738 61.582l2.485 1.078.234.094.188.176 1.968 1.828.2.187.117.258 1.172 2.403.093.187.047.21.387 2.24.305 1.757h-.797l-.317 1.36-.047.187-.082.164-1.195 2.297-.117.223-.188.175-1.91 1.805-.234.223-.293.105-2.508.89-.34.13-.351-.047-2.614-.317-.234-.047-2.52-.726-.304-.094-.246-.21-2.028-1.724-.21-.175-.13-.246-1.265-2.332-.106-.2-.046-.222-.516-2.637-.07-.34.093-.34.715-2.578.059-.21.117-.188 1.406-2.227.153-.246.234-.164 2.121-1.523.164-.118.188-.082 2.449-.89.222-.07.223-.012 2.672-.13.34-.01zm-2.941 2.988-2.05.739-1.735 1.254-1.125 1.78-.551 2.016.41 2.051 1.02 1.887 1.558 1.324 2.098.61 2.121.257 1.887-.668 1.5-1.406 1.008-1.922.527-2.261.058-.282-.21-1.218-.961-1.97-1.559-1.452-1.91-.832zM60 69.941l1.184-.703.175.305.13.21.046.235.13.598.093.445-.164.41-.2.504-1.124-.445H58.5v-.375l.105-.27.024-.046-.035-.047-1.325-2.262H60zM27.363 40.36l-.035.07-.035.06-1.465 2.202-.973 1.465-1.3-1.195-1.407-1.313-.152-.14-.105-.164-.293-.492-.035.504v.023l-.176 2.637V46.5l.27 2.531.023.153-.012.14-.223 2.52v.011l-.035 2.637.024 2.614v.046l-.012.035-.117 2.508.152 2.203.321.488.769-.003.094-.012.082.012.204.022.686-.026h.117l2.649.105h.07l.448.038.818-.069.047-.012h.058l2.649-.023h.023l2.555.012 1.311-.059.26-.144.034-1.653-.351-2.531-.024-.14.012-.153.152-2.637v-.07l.27-2.473-.281-2.484-.012-.129v-.129l.164-2.566-.14-2.543v-.13l.011-.128.281-2.402-.187-1.008-1.23 1.816-1.137 1.688-1.278-1.57-1.3-1.618-1.688-1.816-.082-.059zm64 0-.035.07-.035.06-1.465 2.202-.972 1.465-1.301-1.195-1.407-1.313-.152-.14-.105-.164-.293-.492-.035.504v.023l-.176 2.637V46.5l.27 2.531.023.153-.012.14-.223 2.52v.011l-.035 2.637.024 2.614v.046l-.012.035-.117 2.508.152 2.203.321.488.769-.003.094-.012.082.012.204.022.686-.026h.118l2.648.105h.07l.448.038.818-.069.047-.012h.058l2.649-.023h.023l2.555.012 1.311-.059.26-.144.034-1.653-.351-2.531-.024-.14.012-.153.152-2.637v-.07l.27-2.473-.281-2.484-.012-.129v-.129l.164-2.566-.14-2.543v-.13l.011-.128.281-2.402-.187-1.008-1.23 1.816-1.137 1.688-1.278-1.57-1.3-1.618-1.688-1.816-.082-.059zM27.141 44H30v.21l-.2 2.462.118 2.508h.012l.175 2.636v.094l.012 2.637.012.094-.012.082-.281 2.449.21 1.64.212 1.688H28.5v-1.488l-1.43.175-.222-1.804-.024-.176.012-.176.27-2.531v-2.578l-.165-2.543v-.012l-.011-.011-.117-2.649-.012-.094.012-.082.187-2.543zm64 0H94v.21l-.2 2.462.118 2.508h.012l.175 2.636v.094l.012 2.637.012.094-.012.082-.281 2.449.21 1.64.212 1.688H92.5v-1.488l-1.43.175-.222-1.804-.024-.176.012-.176.27-2.531v-2.578l-.165-2.543v-.012l-.011-.011-.118-2.649-.011-.094.011-.082.188-2.543zM27.875 21.965v.012l-.48 2.59-.024.093-.61 2.414-.116 2.508v.07l-.012.082-.387 2.614v.058l-.492 2.602-.328 2.426.006.182.549-1.018.796-1.477 1.383.961 1.559 1.078.129.094.105.117.545.576-.033-2.26-.621-2.402-.024-.094-.011-.105-.293-2.543-.891-5.203.012-.012-.492-2.555-.024-.07v-.07l-.117-1.348zm64 0v.012l-.48 2.59-.024.093-.61 2.414-.117 2.508v.07l-.011.082-.387 2.614v.058l-.492 2.602-.328 2.426.006.182.549-1.018.796-1.477 1.383.961 1.559 1.078.129.094.105.117.545.576-.033-2.26-.621-2.402-.024-.094-.011-.105-.293-2.543-.891-5.203.012-.012-.493-2.555-.023-.07v-.07l-.117-1.348z"/></svg>