<svg width="120" height="120" viewBox="0 0 120 120" fill="none" xmlns="http://www.w3.org/2000/svg">
<path d="M9.65234 76.1509L12.2656 76.1626H12.3359L12.4062 76.1743L15.0312 76.4204L15.2539 76.4438L15.4531 76.5259L17.668 77.4399L17.2109 78.5063L17.1992 78.8345L17.0938 80.3228H16.9883L16.7539 80.2993L16.5312 80.2173L14.5156 79.3853L12.1133 79.1626V79.1509H9.73438L7.46094 79.5259L6.52344 79.9595L6.48828 81.5181L6.6875 84.1665V84.3188L6.61719 86.9556V87.0259L6.60547 87.0845L6.32422 89.522L6.72266 91.9478L6.74609 92.1118L6.73438 92.2759L6.59375 94.8071L6.76953 97.3735L6.78125 97.5142L6.75781 97.6548L6.45312 100.163L6.53516 102.706L6.61719 105.295L6.78125 107.932L6.79297 108.108L6.76953 108.284L6.34766 110.651L6.6875 112.713L7.22656 113.405L9.06641 113.276L9.25391 113.252L9.42969 113.288L11.75 113.686L14.1289 113.206L14.2344 113.182L14.3398 113.17L16.9883 113.006L17.1523 112.995L17.3164 113.018L19.8008 113.393L22.2852 113.358H22.3906L22.4961 113.37L24.9922 113.674L27.4531 113.452L27.5234 113.44H27.582L30.2188 113.417H30.3125L30.4062 113.428L32.8086 113.698L35.293 113.334L35.4336 113.311L35.5859 113.323L38.2227 113.452H38.2344L40.7539 113.592L43.3086 113.393L43.3672 113.381H43.4258L46.0625 113.37H46.168L46.2734 113.381L48.6406 113.698L51.0898 113.276L51.3359 113.229L51.5938 113.264L54.1367 113.674L56.457 113.616L59.0469 113.229L59.1641 113.206H59.2812L61.918 113.217H62.0234L62.1289 113.241L64.5664 113.592L67.1094 113.463L67.1445 113.452H67.1797L69.8281 113.44H69.875L72.5117 113.51H72.5L75.1484 113.569H75.1602L77.668 113.651L80.1992 113.323L80.3281 113.299L80.4688 113.311L82.9883 113.428L85.5547 113.229L85.6953 113.217L85.8477 113.229L88.3555 113.51L90.9102 113.452H93.5234L96.1602 113.323L96.207 113.311L96.2656 113.323L98.9023 113.37L101.539 113.428H101.527L104.105 113.44L106.742 113.346L109.391 113.264H109.461L111.945 113.299L113.188 113.077L113.492 111.706L113.434 109.374L113.152 106.737V106.573L113.141 103.936V103.831L113.328 101.194L113.41 98.604L113.457 95.9907L113.504 93.4243L113.41 90.7876V90.7173L113.434 88.0806L113.445 88.0571V88.0337L113.539 85.5259L113.293 82.9595V82.8188L113.281 80.4048L112.965 79.4438L111.441 79.3853L108.863 79.4321H106.215L104.223 79.4556L103.941 79.7954L103.543 79.4556H103.531L102.793 78.8228L101.656 77.8501L102.383 76.9946L102.828 76.479L103.508 76.4673L106.18 76.4321H108.816L111.453 76.3853H111.535L114.137 76.4907L115.191 76.5259L115.508 77.5337L116.211 79.7134L116.281 79.936V80.1704L116.293 82.8071L116.539 85.3032L116.551 85.4087V85.5142L116.434 88.1509L116.41 90.7524L116.504 93.3188V93.4009L116.41 98.6743V98.6978L116.328 101.334V101.393L116.141 104.042L116.152 106.573L116.422 109.057V109.116L116.434 109.174L116.504 111.811V111.999L116.469 112.174L115.906 114.706L115.684 115.678L114.711 115.854L112.344 116.288L112.203 116.311H112.051L109.449 116.264L106.836 116.334L106.848 116.346L104.211 116.44L104.176 116.452H104.141L101.504 116.428H101.492L101.48 116.417L98.8438 116.37L96.2773 116.311L93.6641 116.44L93.6289 116.452H90.9922L88.3555 116.522L88.25 116.534L88.1445 116.522L85.6133 116.229L83.1523 116.428L83.0586 116.44H82.9648L80.4453 116.311L77.9492 116.651L77.832 116.663H77.7031L75.0664 116.569V116.557L72.4414 116.51H72.4297L69.793 116.44H67.2617L67.2734 116.452L64.6367 116.604L64.4844 116.616L64.332 116.592L61.7656 116.206H59.4102L56.8555 116.592L56.7617 116.616H56.668L54.0312 116.686H53.8906L53.75 116.663L51.3711 116.264L48.9805 116.698L48.7461 116.745L48.5117 116.709L45.957 116.37H43.543L43.5547 116.381L40.918 116.592L40.8125 116.604H40.707L38.0703 116.452V116.44L35.5977 116.323L33.1016 116.698L32.9023 116.733L32.7031 116.709L30.0781 116.417L27.7227 116.428L25.0859 116.674L24.9336 116.698L24.7695 116.674L22.2383 116.358L19.6953 116.405H19.5664L19.4375 116.381L16.9883 115.995L14.5859 116.159L12.1133 116.686L11.8438 116.745L11.5625 116.698L9.125 116.264L6.64062 116.452L5.84375 116.51L5.35156 115.877L4.07422 114.237L3.83984 113.932L3.78125 113.545L3.35938 110.909L3.3125 110.663L3.35938 110.428L3.78125 107.92L3.62891 105.483L3.61719 105.459V105.436L3.45312 100.163L3.44141 100.045L3.46484 99.9282L3.76953 97.3735L3.60547 94.936L3.59375 94.8423L3.60547 94.7485L3.73438 92.2759L3.32422 89.7915L3.28906 89.5923L3.3125 89.3813L3.62891 86.8149L3.6875 84.3774L3.5 81.7407L3.48828 81.6704L3.5 81.6001L3.54688 78.9634L3.55859 78.0259L4.41406 77.6274L6.39453 76.7251L6.57031 76.6313L6.76953 76.5962L9.39453 76.1743L9.52344 76.1509H9.65234Z" fill="black"/>
<path d="M75.2178 104.403L77.8545 104.544L77.8428 104.556L80.4209 104.591L83.0342 104.532H83.1396L83.2451 104.544L85.6826 104.849L88.2021 104.614L88.2607 104.603H88.3193L90.9678 104.567H91.0498L91.1436 104.579L93.5576 104.849L96.042 104.474L96.2412 104.438L96.4404 104.462L99.0654 104.755L99.0537 104.767L101.351 104.86L102.347 104.544L102.804 105.974L103.249 107.403L102.007 107.802L101.749 107.884L101.479 107.872L98.8311 107.755L98.7842 107.743H98.7256L96.3232 107.462L93.8506 107.837L93.6631 107.872L93.4639 107.849L90.8389 107.567L88.4717 107.591L88.4834 107.603L85.8467 107.849L85.6826 107.86L85.5186 107.849L82.9873 107.532L80.4561 107.591H80.3975L77.749 107.544L77.7256 107.532H77.7021L75.2412 107.403L72.5342 107.919L72.2881 107.884L69.792 107.521L67.3076 107.673H67.085L64.6123 107.438L62.21 107.872L61.9404 107.919L59.2334 107.427L56.7607 107.591H56.7139L54.0771 107.685L51.4287 107.767L51.3232 107.778L51.2061 107.755L48.71 107.45L46.2021 107.626H46.0264L43.5186 107.485L41.0693 107.907L40.8584 107.931L40.6475 107.907L38.0928 107.603L35.5029 107.544V107.532L33.0186 107.731H30.1475L27.5693 107.532L25.0498 107.638L24.9678 107.649L24.8857 107.638L22.4014 107.485L19.917 107.661L19.8115 107.673L19.7061 107.661L17.1865 107.485H17.1631L17.2334 104.485H17.4092L19.8115 104.673L22.2842 104.485H22.4717L25.0029 104.649L27.5576 104.532H27.7334L30.3818 104.731H32.9014V104.743L35.4326 104.544H35.585L38.2217 104.614H38.292L38.3623 104.626L40.7881 104.907L43.2139 104.509L43.3779 104.474L43.542 104.485L46.0732 104.626L48.6396 104.45L48.7803 104.438L48.9209 104.462L51.4404 104.767L53.9717 104.685L56.6084 104.591V104.603L59.21 104.427L59.3857 104.415L59.5615 104.45L61.9404 104.872L64.3193 104.45L64.5186 104.415L64.7178 104.438L67.2021 104.673L69.7803 104.532L69.9326 104.521L70.0732 104.544L72.4639 104.896L74.8662 104.427L75.042 104.403H75.2178Z" fill="black"/>
<path d="M25.0664 95.5527L27.5977 95.916H30.1172V95.9277L32.6484 95.7402L32.7188 95.7285H32.7891L35.4375 95.8105H35.5664L38.0039 96.1035L40.4297 95.7051L40.5938 95.6816H40.7461L43.2891 95.8223L45.8555 95.6582L45.9961 95.6465L46.1367 95.6582L48.6445 95.9746L51.1875 95.8809L53.7773 95.8105L56.4141 95.6348L56.6016 95.623L56.7773 95.6582L59.1562 96.0918L61.5352 95.6582L61.7344 95.623L61.9336 95.6465L64.4883 95.8926L66.9961 95.752L67.1367 95.7402L67.2891 95.7637L69.6797 96.1152L72.082 95.6582L72.2578 95.623L72.4336 95.6348L75.0703 95.7754L75.0586 95.7871L77.625 95.834L80.25 95.7871H80.3555L80.4609 95.7988L82.9102 96.1152L85.418 95.8809L85.4766 95.8691H85.5352L88.1836 95.8574H88.3594L90.7969 96.1504L93.2344 95.752L93.3398 95.7402H93.457L96.0938 95.7168H96.6328L97.0547 96.0566L98.7656 97.4512L99.2695 97.8496L99.3164 98.4824L99.5508 101.131V103.896L99.5625 104.131L99.4805 104.365L98.9531 106.006L97.7695 105.619L97.5352 107.061L97.2773 107.025L95.5664 106.732L96.0938 105.08L96.5508 103.686V101.377L96.375 99.373L95.5664 98.7168L93.5391 98.7285L91.0664 99.1387L90.8672 99.1621L90.668 99.1387L88.125 98.8574H85.6758L85.6875 98.8691L83.0508 99.1035L82.8867 99.127L82.7227 99.1035L80.1914 98.7871L77.6602 98.834H77.6016L74.9648 98.7754H74.918L72.4453 98.6348L69.9844 99.1035L69.7383 99.1387L69.5039 99.1035L66.9844 98.7402L64.5117 98.8809L64.4062 98.8926L64.2891 98.8809L61.8164 98.6465L59.4141 99.0801L59.1562 99.127L58.8867 99.0801L56.4375 98.6348L53.9648 98.7988H53.918L51.2812 98.8809L48.6445 98.9746H48.5273L48.4102 98.9629L45.9258 98.6465L43.4062 98.8223H43.2305L40.7227 98.6816L38.2734 99.1035L38.0625 99.127L37.8516 99.1035L35.2969 98.7988L32.8125 98.7285L30.2227 98.916H27.3633L27.2578 98.8926L24.9023 98.5645L23.7305 98.8574L23.7188 100.334L23.707 100.416V100.498L23.4141 102.924L23.7422 105.279L23.8125 105.748L23.6016 106.158L23.5547 106.252L22.0781 105.514L20.7773 105.701L20.4141 103.158L20.3906 102.971L20.4141 102.783L20.7188 100.135L20.7422 97.6621L20.7539 96.502L21.8906 96.2207L24.4922 95.5879L24.7734 95.5176L25.0664 95.5527Z" fill="black"/>
<path d="M65.543 87.4585L68.1094 87.7046L70.6055 87.564L70.7578 87.5522L70.8984 87.5757L73.3008 87.9272L75.6914 87.4819L75.8672 87.4468L76.043 87.4585L78.6914 87.5991L78.6797 87.6108L81.2461 87.6577L83.8594 87.6108H83.9648L84.0703 87.6226L86.5195 87.939L89.0273 87.7163H89.1094L91.7344 87.5991H91.9219L92.0977 87.6343L94.5703 88.1265L95.332 88.2788L95.6484 88.9937L96.6094 91.1733L96.7617 91.5015L96.7383 91.853L96.6094 94.4897V94.5015L96.457 96.8921L95.0977 96.7983V98.2983H93.375L93.4688 96.7046L93.6094 94.3257L93.7266 92.064L93.2109 90.9155L91.6523 90.5991L89.2852 90.6929L89.2969 90.7046L86.6602 90.939L86.4961 90.9507L86.3438 90.939L83.8008 90.6108L81.2695 90.6577H81.2109L78.5742 90.5991H78.5508L78.5273 90.5874L76.0547 90.4468L73.5938 90.9155L73.3594 90.9624L73.1133 90.9272L70.6641 90.564L68.1328 90.7046H68.0156L67.9102 90.6929L65.4727 90.4585L63.0234 90.8921L62.7656 90.939L60.0586 90.4468L57.5859 90.6108H57.5391L54.9023 90.6929L52.2539 90.7866H52.1367L52.0312 90.7749L49.4766 90.4702L47.0273 90.6343L46.9336 90.646L46.8516 90.6343L44.3438 90.5054L41.8945 90.9155L41.6836 90.9507L41.4727 90.9272L38.918 90.6226L36.3281 90.564V90.5522L33.832 90.7515H31.0078L30.9375 90.7397L28.4297 90.4819L26.918 90.5991L26.5312 91.8413L26.2969 94.1499L26.4492 96.6226L26.4844 97.1265L26.2031 97.5366L26.1562 97.6304L24.9023 96.7983L24.7969 96.7163L23.4609 96.8101L23.2969 94.2554V94.1265L23.3086 94.0093L23.5781 91.3608L23.5898 91.2085L23.6367 91.0679L24.375 88.7358L24.6797 87.7749L25.6875 87.6929L28.3477 87.4819L28.4883 87.4702L28.6172 87.4819L31.2422 87.7515H33.6211L36.2578 87.564L36.3281 87.5522L36.4102 87.564L39.0469 87.6343H39.1758L41.6133 87.9272L44.0391 87.5171L44.2031 87.4937L44.3672 87.5054L46.8984 87.646L49.4648 87.4702L49.6055 87.4585L49.7461 87.4702L52.2539 87.7866L54.7969 87.6929L57.3984 87.6226V87.6108L60.0352 87.4468L60.2109 87.4351L60.3867 87.4702L62.7656 87.9038L65.1445 87.4702L65.3438 87.4351L65.543 87.4585Z" fill="black"/>
<path d="M78.626 79.668L81.2627 79.8086L81.251 79.8203L83.8291 79.8672L86.4424 79.8203H86.5244L86.5947 79.832L89.0908 80.0664L91.6104 79.9023L92.6768 79.832L93.0986 80.8047L94.0361 83.0312L94.1885 83.4062L94.1416 83.793L93.8486 86.1953L94.2236 88.5742L94.4814 90.2383L92.7939 90.3086H92.6533L92.5947 88.8203L91.2588 89.0312L90.8604 86.4883L90.8252 86.2773L90.8486 86.0781L91.1064 83.8281L90.7432 82.9609L89.2314 83.0664H88.9971L86.3486 82.8203L83.8525 82.8672H83.7939L81.1455 82.8086H81.1104L78.6377 82.668L76.1768 83.1367L75.9307 83.1719L75.6963 83.1367L73.1768 82.7734L70.7041 82.9141L70.5986 82.9258L70.4814 82.9141L68.0088 82.6797L65.6064 83.1133L65.3369 83.1602L65.0791 83.1133L62.6182 82.668L60.1572 82.8203L60.1338 82.832H60.1104L54.8369 82.9961L54.7197 83.0078L54.6025 82.9844L52.0596 82.6797L49.5986 82.8438L49.5166 82.8555L49.4229 82.8438L46.9619 82.7031L44.4658 83.125L44.2549 83.1602L44.0439 83.1367L41.4893 82.8203L39.0049 82.75L36.415 82.9375L36.3564 82.9492H36.2979L33.6611 82.9375H33.6025L33.5439 82.9258L31.0127 82.7031L29.4541 82.6914L29.0439 83.875L28.7979 86.1719L28.9619 88.6328L28.9971 89.1484L28.7041 89.582L28.6455 89.6641L27.4033 88.8086L27.3096 88.7266L25.9619 88.832L25.7979 86.2656L25.7861 86.1484L25.7979 86.0195L26.0791 83.3711L26.1025 83.207L26.1611 83.043L26.9697 80.6992L27.3213 79.6797L28.3994 79.6914L31.0479 79.7148H31.1533L33.79 79.9375L33.7783 79.9492H36.1924L38.8408 79.7617L38.9111 79.75H38.9814L41.6299 79.832H41.6885L41.7588 79.8438L44.1963 80.1367L46.6221 79.7266L46.7861 79.7031L46.9385 79.7148L49.4814 79.8555L52.0479 79.6797L52.1885 79.668L52.3291 79.6914L54.8369 79.9961L57.3799 79.9141L59.9697 79.8438V79.832L62.6064 79.668L62.7939 79.6562L62.9697 79.6914L65.3369 80.125L67.7275 79.6914L67.9268 79.6562L68.126 79.6797L70.6807 79.9258L73.1885 79.7852L73.3291 79.7734L73.4814 79.7969L75.8721 80.1484L78.2744 79.6914L78.4502 79.6562L78.626 79.668Z" fill="black"/>
<path d="M31.4834 72.2129L33.9795 72.5527L36.6279 72.7402L36.6162 72.752H39.042L41.6904 72.5645H41.8311L44.4795 72.6348L44.5381 72.6465H44.6084L47.0459 72.9395L49.4717 72.541L49.6357 72.5176H49.7881L52.3311 72.6582L54.8975 72.4941L55.0381 72.4824L55.1787 72.4941L57.6865 72.8105L60.2295 72.7285L62.8193 72.6582V72.6465L65.4561 72.4824L65.6436 72.4707L65.8193 72.5059L68.1982 72.9395L70.5771 72.5059L70.7764 72.4707L70.9756 72.4941L73.5303 72.7402L76.0381 72.5996L76.1787 72.5879L76.3311 72.6113L78.6982 72.9629L81.124 72.5176L81.2998 72.4824L81.4756 72.4941L84.1123 72.6348H86.5732L89.2217 72.4824L90.2764 72.4238L90.6865 73.3848L91.6006 75.4824L91.7061 75.7051L91.7295 75.9512L91.9639 78.5879V78.6465L91.9756 78.7051L91.9873 80.8145L91.999 82.3145L90.499 82.3262H90.4521L90.4404 80.8262L88.9873 80.8496L88.9756 78.8574L88.7529 76.4551L88.3545 75.541L86.749 75.6348H83.9482L81.4756 75.4941L79.0264 75.9512L78.7803 75.998L78.5342 75.9629L76.085 75.5996L73.5537 75.7285L73.4365 75.7402L73.3311 75.7285L70.8584 75.4941L68.4561 75.9277L68.1865 75.9746L67.9287 75.9277L65.4209 75.4824L63.0068 75.6348H62.96L60.3232 75.7285L57.6865 75.8105H57.5693L57.4521 75.7988L54.9092 75.4941L52.4482 75.6582H52.2725L49.8115 75.5176L47.3154 75.9277L47.1045 75.9629L46.8936 75.9395L44.2568 75.6348V75.623L41.8545 75.5645L39.2646 75.752H39.1475L36.5107 75.7402H36.3936L33.7568 75.5293H33.6748L31.9287 75.2832L31.2021 76.1973L30.9443 78.2598L31.1201 80.6504L31.1553 81.2715L30.7568 81.7402L30.6865 81.8105L29.5498 80.8262L29.4912 80.7559L28.1201 80.8613L27.9443 78.2949L27.9326 78.1426L27.9561 78.002L28.2842 75.3887L28.3428 74.9668L28.6006 74.6387L30.124 72.752L30.6514 72.0957L31.4834 72.2129Z" fill="black"/>
<path d="M38.2734 3.74609L40.9453 3.81641L41.1562 3.82812L41.3672 3.89844L43.4062 4.56641L44.3672 4.88281L44.4258 5.90234L44.5664 8.375L44.9766 11.0117L45.0117 11.2812L44.9648 11.5391L44.4492 14.1523L44.4375 14.1406L44.0039 16.5547L44.0508 18.8867L44.625 21.2891L44.6719 21.4766L44.6602 21.6641L44.625 24.3008L44.8477 26.7734V26.8086L44.8594 26.8438L44.9766 29.5039L45 29.9727L44.7539 30.3711L43.5352 32.3047L43.418 34.4844V34.5781L43.4062 34.6719L41.918 34.5078L40.418 34.3438L40.4297 34.2383L40.5586 31.7773L40.582 31.3906L40.7812 31.0625L41.9531 29.1758L41.8594 27.043L41.625 24.4062L41.6133 24.3359L41.625 24.2539L41.6484 21.7695L41.1094 19.4375L41.0742 19.2852L41.0625 19.1328L41.0039 16.4727V16.332L41.0273 16.1797L41.4961 13.5898V13.5664L41.9648 11.1992L41.6016 8.83203L41.5898 8.76172V8.69141L41.4961 7.08594L40.6172 6.80469L39.4102 6.76953L39.1523 7.92969L39.293 10.3555L39.6094 12.8867L39.6445 13.2266L39.5391 13.5547L38.707 16.0508L38.0508 18.5469L38.0039 18.7344L37.8984 18.9102L36.6211 21.1133L35.707 23.4688L35.6484 23.6094L35.5781 23.7266L34.2539 25.7656L33.6914 28.1328L33.6445 28.3086L33.5625 28.4609L32.3555 30.8164L31.2539 33.0898L30.2227 35.5273L30.1875 35.6211L30.1289 35.7148L28.8281 37.8359L28.0312 40.2031L27.9844 40.3203L26.9297 42.7461L26.8945 42.8281L26.8477 42.8984L25.5938 45.0195L24.9375 47.3984L24.9023 47.5508L24.832 47.6797L23.6367 50.0352L23.625 50.0469L22.4531 52.3203L21.6094 54.7109L21.5977 54.7578L21.5742 54.8047L20.5078 57.2305L20.4727 57.3242L20.4141 57.418L19.1133 59.4922L18.5391 61.8477L18.4805 62.1055L18.3281 62.3164L16.9102 64.4375L16.0195 66.5586L15.293 69.125L15.2578 69.2422L15.2109 69.3477L14.0977 71.7383L14.0508 71.8438L13.9922 71.9258L12.6445 74L11.9414 76.3203L11.707 77.5273L11.4141 79.0508L9.89062 78.6992L9.87891 78.6875L10.2188 77.2344V77.2227L8.76562 76.9531L9.03516 75.5938L9.04688 75.5117L9.07031 75.4414L9.85547 72.9102L9.91406 72.7109L10.0312 72.5352L11.4141 70.3906L12.4219 68.2109L13.125 65.7383L13.1484 65.6445L13.1953 65.5625L14.2148 63.1367L14.2734 62.9961L14.3555 62.8789L15.6797 60.875L16.2773 58.5195L16.3359 58.2969L16.4531 58.0859L17.8359 55.8477L18.7734 53.7031L19.6641 51.207L19.6992 51.1133L19.7461 51.0195L20.9648 48.6758L22.0781 46.4375L22.7578 44.0234L22.8164 43.8359L22.9102 43.6719L24.2109 41.4336L25.1836 39.2305L26.0508 36.7227L26.0977 36.5703L26.1797 36.4297L27.5156 34.2266L28.5117 31.918L28.5352 31.8711L29.6719 29.4805V29.457L29.6836 29.4336L30.8086 27.2539L31.418 24.8047L31.4766 24.5703L31.6055 24.3594L32.9414 22.2617L33.8789 19.9062L33.9141 19.8125L33.9727 19.707L35.1914 17.5742L35.8359 15.1836L35.8594 15.0898L36.5859 12.8984L36.3047 10.625V10.5781L36.293 10.5195L36.1523 7.89453L36.1406 7.68359L36.1875 7.47266L36.7617 4.91797L37.043 3.71094L38.2734 3.74609Z" fill="black"/>
<path d="M78.9053 3.70312L81.4834 3.75L82.5615 3.77344L82.8896 4.79297L83.6279 7.125L83.6631 7.24219L83.6865 7.35938L84.0732 9.97266L84.1084 10.2188L84.0615 10.4531L83.6514 12.7383L84.1318 14.8945L84.8232 17.2734L85.9482 19.5352L85.96 19.5586V19.582L87.0732 21.9727L88.2568 24.2578L88.2803 24.3047L88.292 24.3516L89.3467 26.7773V26.7891L90.3779 29.2031L91.4092 31.5586L92.5693 33.9258V33.9375L93.7295 36.3047L93.7529 36.3398L93.7646 36.3633L94.8193 38.7773L94.8311 38.8008L95.8623 41.2266L95.9092 41.3672L96.6475 43.7461L97.7607 46.0664L99.0381 48.2812L99.1084 48.4219L100.187 50.8242L100.21 50.8828L100.222 50.9297L101.112 53.3555L102.108 55.7812L103.151 58.207L104.147 60.5625L105.319 62.9297L105.343 63L106.397 65.4141L106.421 65.4609L107.358 67.793L108.671 69.9727L108.718 70.043L109.948 72.375L110.019 72.5156L111.015 74.9648L111.062 75.082L111.085 75.1992L111.472 76.9102L111.917 78.8672L109.913 78.7383H109.854L109.948 77.2383L108.542 77.5781L108.179 75.9844L107.3 73.7812L106.058 71.4492V71.4375L104.733 69.2461L104.663 69.1406L104.616 69.0352L103.632 66.5742V66.5625L102.624 64.2539L101.452 61.8867L101.429 61.8164L100.386 59.3906L99.3545 56.9648L99.3428 56.9531V56.9414L98.335 54.5039L98.3232 54.4688L98.3115 54.4453L97.4443 52.0547L96.3662 49.6523H96.3545L95.1123 47.4844L95.0889 47.4258L95.0537 47.3789L93.9287 44.9883L93.8818 44.8945L93.8467 44.8008L93.0615 42.3398L92.0654 39.9727V39.9609L91.0342 37.6289L89.874 35.25L88.7139 32.8828L88.7021 32.8594L88.6904 32.8242L87.624 30.3984L86.5811 27.9609L85.5381 25.5469H85.5264L84.3779 23.2852L84.3545 23.2617L84.3428 23.2266L83.2529 20.8711L82.0811 18.5039L82.0225 18.3867L81.9873 18.2578L81.249 15.7383L81.2373 15.6914L81.2256 15.6328L80.6631 13.1016L80.6045 12.8086L80.6514 12.5156L81.0615 10.1484L80.7451 7.96875L80.3467 6.72656L79.21 6.70312L78.3076 7.13672V8.84766L78.4951 11.3555L78.5068 11.4844L78.4951 11.6016L78.2607 14.1094L78.4834 16.3711L79.3975 18.3867L80.8506 20.3789L81.0381 20.6367L81.1084 20.9531L81.6006 23.3203L82.8662 25.3945L82.9834 25.6055L83.042 25.8281L83.6279 28.3477L84.4951 30.5742L85.6436 32.9648L85.6904 33.0586L85.7256 33.1523L86.5342 35.6602L87.3076 38.0039L88.5732 40.207L88.667 40.3828L88.7139 40.5703L89.3701 43.0547L90.2607 45.3164L91.4326 47.6953L91.5029 47.8477L91.5381 48L92.1357 50.4492L93.085 52.8398L93.0967 52.875L93.1084 52.8984L93.9756 55.3945L93.9873 55.4062V55.4297L94.7373 57.7734L96.0615 59.9062L96.1904 60.1055L96.2373 60.3516L96.8115 62.7773L97.8662 65.0625L97.9131 65.168L97.9365 65.2734L98.6162 67.6523L99.8936 69.7617L100.034 69.9961L100.093 70.2656L100.55 72.7266L101.569 74.8711L102.706 77.0742L104.159 79.2422L104.417 79.6172V82.6055L104.769 85.125L104.792 85.2773L104.78 85.4297L104.616 87.8789L105.026 90.375L105.062 90.5859L105.038 90.7852L104.745 93.293L104.675 95.9414L104.839 98.4375L104.851 98.5078V98.5781L104.769 101.215V101.285L104.757 101.355L104.44 103.852L104.546 106.359L104.862 108.914L104.874 109.066L104.862 109.23L104.628 111.727L104.827 114.141L104.839 114.199V114.352L103.339 114.363L101.839 114.387L101.628 111.855L101.616 111.727L101.628 111.598L101.851 109.113L101.569 106.629V106.57L101.558 106.523L101.44 103.875V103.746L101.452 103.617L101.769 101.062L101.851 98.6367L101.675 96V95.8594L101.745 93.2109V93.1523L101.757 93.082L102.038 90.6211L101.64 88.2188L101.616 88.0547V87.8789L101.769 85.3945L101.429 82.9453L101.417 82.8398V80.5312L100.222 78.75L100.128 78.6094L98.9092 76.2656L98.8975 76.2305L98.8857 76.207L97.749 73.8164L97.667 73.6406L97.6318 73.4531L97.1865 71.0742L95.9443 69.0117L95.8389 68.8477L95.792 68.6484L95.0771 66.1875L94.0342 63.9141L93.9756 63.7734L93.9404 63.6328L93.3662 61.2539L92.1006 59.1914L91.9951 59.0391L91.9482 58.8633L91.1514 56.3789L90.2725 53.8945V53.8828L89.3232 51.4922L89.2881 51.3984L89.2646 51.3047L88.667 48.8906L87.5654 46.6406L87.542 46.5938L87.5186 46.5352L86.5459 44.0742L86.5107 43.9922L86.4873 43.9102L85.8662 41.543L84.6357 39.3867L84.5654 39.2578L84.5186 39.1055L83.6865 36.5977V36.5859L82.8779 34.125L81.7998 31.875L81.7764 31.8281L81.7529 31.7695L80.792 29.3086L80.7451 29.2148L80.7217 29.1094L80.1709 26.7539L78.9053 24.6562L78.7764 24.4336L78.7295 24.1875L78.2373 21.9023L76.8779 20.0039L76.7842 19.8867L76.7139 19.7461L75.6475 17.3906L75.542 17.1562L75.5186 16.9102L75.2607 14.2734L75.249 14.1328L75.2607 13.9922L75.5068 11.4375L75.3076 8.94141V8.82422L75.3193 6.17578L75.3311 5.23828L76.1748 4.83984L78.2373 3.85547L78.5537 3.70312H78.9053Z" fill="black"/>
<path d="M41.9082 18.9717L42.2715 19.1357L43.6309 19.7686L43.584 19.8623L43.502 20.0381L43.373 20.1904L41.8848 21.96L40.8887 23.9756L40.2676 26.4365L40.2559 26.4951L40.2441 26.542L39.4121 29.0498L39.3418 29.2139L38.2051 31.6162L37.3262 33.8545L37.3379 33.8662L36.5527 36.3975L36.5293 36.4795L36.5059 36.5498L35.4746 38.9756L35.4512 39.0459L35.416 39.1045L34.2559 41.2725L33.752 43.6748L33.7168 43.8271L33.6582 43.9795L32.5801 46.3232L31.8301 48.7373L31.7832 48.8779L31.7246 48.9951L30.5176 51.2217L29.6855 53.624L28.8301 56.1201L28.0449 58.5928L27.998 58.7686L27.9043 58.9209L26.6387 60.9834L26.1699 63.3623L26.1348 63.5615L26.041 63.749L24.9043 65.9756L24.1191 68.4131L24.0723 68.5537L24.002 68.6826L22.8301 70.792L22.4199 73.1826L22.3848 73.3584L22.3145 73.5107L21.2949 75.9482L20.2402 78.3975L20.1934 78.5381L20.0996 78.6553L18.752 80.624L18.0488 82.6514L18.2012 85.0186V85.1006L18.2129 87.7373V87.8311L18.2012 87.9248L17.9082 90.374L18.2832 92.7998L18.3066 92.9521L18.2949 93.1045L18.166 95.7412V95.7529L18.0254 98.2607L18.2363 100.827V100.933L18.2598 103.581V103.687L18.248 103.792L17.9199 106.159L18.3535 108.597L18.4004 108.854L18.3652 109.112L17.9434 111.644L18.0137 114.104L16.9824 114.128L16.666 114.362L15.4355 115.218L15.2832 115.007L15.0254 114.632L15.0137 114.187L14.9434 111.55V111.409L15.3652 108.878L14.9316 106.499L14.8848 106.265L14.9199 106.03L15.2598 103.464L15.248 101.073L15.0254 98.4248V98.2256L15.1777 95.5889L15.3066 93.1045L14.9199 90.6084L14.8965 90.4092L14.9199 90.21L15.2129 87.667L15.2012 85.2061L15.0371 82.5459L15.0254 82.2412L15.1191 81.96L15.9863 79.4521L16.0566 79.2646L16.1738 79.0889L17.5449 77.085L18.5293 74.7764L19.4785 72.5029L19.9238 70.0303L19.959 69.7725L20.0879 69.5615L21.2949 67.3701L22.0801 64.9678L22.1152 64.8623L22.1738 64.7686L23.2637 62.5771L23.7559 60.1514L23.8145 59.8936L23.9434 59.6592L25.2324 57.5381L25.9707 55.1709L25.9824 55.1475L25.9941 55.1357L26.8613 52.6396V52.6279L27.7285 50.1436L27.7637 50.0264L27.8223 49.9209L29.0176 47.6826L29.7676 45.3154L29.791 45.2334L29.8262 45.1514L30.8457 42.9014L31.373 40.4287L31.4199 40.2178L31.5254 40.042L32.7676 37.6865L33.7402 35.3779L34.4668 32.9873L34.4785 32.9404L34.502 32.8936L35.4512 30.4326L35.4746 30.374L35.498 30.3271L36.5762 28.042L37.3496 25.6982L38.0176 23.1318L38.0527 22.9795L38.123 22.8389L39.2949 20.46L39.3652 20.3076L39.4824 20.167L41.0762 18.2686L41.9082 18.9717Z" fill="black"/>
<path d="M87.2666 65.7446L89.3174 67.2329L89.8916 67.6431L89.9385 68.3579L90.0908 71.0063L90.1025 71.147L90.0791 71.2876L89.751 73.8423L88.4736 73.6665V75.1431H86.5518L86.7744 73.4438L87.0791 70.9829L86.9736 69.2368L85.9424 68.4985L83.9971 68.6626L81.4775 69.1431L81.2314 69.1899L80.9854 69.1548L78.4775 68.7915L76.0049 68.9321L75.8877 68.9438L75.7822 68.9321L73.3096 68.6978L70.8955 69.1313L70.6377 69.1782L67.9307 68.686L65.4463 68.8501H65.4111L62.7627 68.9321L60.126 69.0259H60.0088L59.8916 69.0142L57.4072 68.6978L54.8994 68.8735H54.7236L52.2041 68.7329L49.7666 69.1431L49.5557 69.1782L49.3447 69.1548L46.79 68.8384L44.2939 68.7798L41.7041 68.9673H41.5986L38.9502 68.9556H38.8447L36.2549 68.7446L34.1338 68.6626L33.1846 69.3071L32.915 71.0649L33.0908 73.4556L33.1377 74.147L32.6572 74.6274L32.5869 74.7095L31.5205 73.6431L31.4619 73.5728L30.1025 73.6782L29.915 71.1118L29.9033 70.936L29.9268 70.772L30.3252 68.1821L30.4307 67.5376L30.9814 67.1743L32.8916 65.897L33.3018 65.6274L33.7822 65.6509L36.3838 65.7563H36.4307L38.9619 65.9673H41.4932L44.1299 65.7798H44.2822L46.9189 65.8501L46.9893 65.8618H47.0596L49.4854 66.1548L51.9111 65.7563L52.0752 65.7329H52.2393L54.7705 65.8735L57.3369 65.7095L57.4775 65.6978L57.6182 65.7095L60.1377 66.0259L62.6689 65.9438L65.2705 65.8618V65.8501L67.9072 65.686L68.083 65.6743L68.2588 65.7095L70.6377 66.1431L73.0166 65.7095L73.2158 65.6743L73.415 65.6978L75.9814 65.9438L78.4775 65.8032L78.6299 65.7915L78.7705 65.8149L81.1611 66.1665L83.5635 65.7095L83.7041 65.686L86.2588 65.4634L86.8096 65.4165L87.2666 65.7446Z" fill="black"/>
<path d="M87.5742 60.4316L88.418 63.0215L88.5 63.2676L88.4883 63.5371L88.3828 66.1855V66.373L88.3359 66.5371L88.125 67.2637L85.2422 66.4434L85.3828 65.916L85.4766 63.6543L85.1133 62.541L83.6719 62.752L83.4609 62.7871L83.2617 62.752L80.7422 62.4004L78.2461 62.541L78.1406 62.5527L78.0234 62.541L75.5977 62.3066L73.1484 62.7402L72.8906 62.7871L72.6328 62.7402L70.1719 62.2949L67.6992 62.459H67.6523L65.0156 62.541L62.3789 62.6348H62.2617L62.1445 62.623L59.6602 62.3066L57.1523 62.4824H56.9648L54.5156 62.3418L52.0078 62.7637L51.8086 62.7871L51.5977 62.7637L48.9492 62.459V62.4473L46.5469 62.3887L43.957 62.5762H43.8398L41.2031 62.5645H41.0977L38.4492 62.3652H36.2344L35.168 62.7754L34.8867 64.3574V67.4746L34.3711 67.9199L34.3008 67.9902L33.3164 66.8535L33.2578 66.7832H31.8867V64.0996L31.9102 63.959L32.3672 61.4043L32.5195 60.5723L33.3164 60.2676L35.4258 59.4707L35.6719 59.377H35.9414L38.5664 59.3652H38.6836L41.2148 59.5762V59.5645L43.8516 59.5762V59.5879L46.3828 59.3887H46.5352L49.1719 59.4707H49.3008L51.7383 59.7637L54.1641 59.3652L54.3281 59.3418H54.4922L57.0234 59.4824L59.5898 59.3184L59.7305 59.3066L59.8711 59.3184L62.3789 59.6348L64.9219 59.5527L67.5117 59.4707L70.1602 59.2949H70.3359L70.5117 59.3184L72.8906 59.752L75.2695 59.3184L75.4688 59.2832L75.668 59.3066L78.2227 59.5527L80.7305 59.4121L80.8711 59.4004L81.0117 59.4238L83.4609 59.7637L87.1875 59.2363L87.5742 60.4316Z" fill="black"/>
<path d="M83.457 53.4766L85.4375 54.625L85.9766 54.9297L86.1289 55.5273L86.8203 58.082L86.9141 58.4102L86.8555 58.7383L86.4922 60.7539L86.2109 62.3359L84.6523 61.9492L84.5234 61.9141L84.8867 60.4609H84.875L83.5391 60.2266L83.832 58.5508L83.3867 56.9102L82.3789 56.3242L80.3164 56.6406L80.1523 56.6641L79.9766 56.6523L77.5391 56.4648L75.0664 56.8867L74.8086 56.9219L74.5625 56.8867L72.0664 56.4531L69.6406 56.6289H69.5938L66.957 56.7461L64.3203 56.8516L64.2031 56.8633L64.0859 56.8398L61.543 56.5469L59.082 56.7344L58.9883 56.7461L58.9062 56.7344L56.3867 56.6055L53.9375 57.0156L53.7266 57.0508L53.5156 57.0273L50.9375 56.6992L48.4297 56.5938L45.8516 56.7344L45.793 56.7461L45.7344 56.7344L43.0977 56.6641H43.0273L42.9688 56.6523L40.5078 56.3711L38.0586 56.6641H38.0352L36.6758 56.8047L36.3125 57.9531L36.6641 60.168L36.8047 61.0352L36.1133 61.5859L36.0312 61.6445L35.1055 60.4609L35.0703 60.4141L33.6992 60.6367L33.3008 58.0703L33.2422 57.7188L33.3594 57.3789L34.1211 54.9648L34.4141 54.0273L35.3984 53.9219L37.707 53.6992L40.332 53.3711L40.5078 53.3594L40.6719 53.3711L43.2148 53.6758L45.7344 53.7461L48.3359 53.6055L48.4062 53.5938L48.4766 53.6055L51.1133 53.7109H51.1836L51.2422 53.7227L53.6328 54.0273L56.0938 53.6289L56.2578 53.6055H56.4102L58.9414 53.7461L61.5078 53.5586L61.6484 53.5469L61.7891 53.5586L64.2852 53.8516L66.8281 53.7461H66.8398L69.4297 53.6523V53.6406L72.0664 53.4531L72.2539 53.4414L72.4297 53.4766L74.8086 53.8867L77.2109 53.4766L77.3867 53.4414L77.5742 53.4648L80.0352 53.6523L82.4844 53.2891L83 53.2188L83.457 53.4766Z" fill="black"/>
<path d="M79.8057 47.896L82.4424 48.0601L83.2275 48.1069L83.6377 48.7749L84.9385 50.896L85.1963 51.3179L85.1494 51.8101L84.9268 54.4585L84.1064 54.3765L83.6377 54.6694L82.3486 55.4429L81.8916 54.6812L81.9385 54.189L82.1143 52.0327L81.4697 51.0015L79.7939 50.896L77.3564 51.353L77.0869 51.4116L76.8174 51.3647L74.3564 50.9077L71.8955 51.0718H71.8486L69.2119 51.1655L66.5635 51.2476H66.458L66.3408 51.2358L63.7861 50.9312L61.3369 51.0952H61.1611L58.7002 50.9546L56.2041 51.3765L55.9932 51.4116L55.7822 51.3882L53.2275 51.0718L50.7432 51.0132L48.1533 51.2007L48.0947 51.2124H45.3408L45.2939 51.2007L42.6689 51.0132L40.2314 51.0483L38.4971 51.1655L37.876 52.1733L38.1104 54.2593L38.2158 55.1968L37.4189 55.689L37.3369 55.7476L36.54 54.4702L36.5166 54.4233L35.1338 54.5874L34.8408 51.9976L34.7939 51.4937L35.0518 51.0601L36.3408 48.9507L36.751 48.2827L37.5244 48.2241L40.0439 48.0601H40.1143L42.7275 48.0132H42.7979L42.8682 48.0249L45.5049 48.2124H47.9307L50.5674 48.0132H50.7197L53.3564 48.0835H53.4268L53.4971 48.0952L55.9229 48.3765L58.3604 47.978L58.5127 47.9546L58.6768 47.9663L61.3135 48.0952L63.7861 47.9312L63.9268 47.9194L64.0674 47.9429L66.5752 48.2476L69.1064 48.1655L71.708 48.0952V48.0835L74.3447 47.9194L74.5205 47.9077L74.708 47.9312L77.0986 48.3647L79.4424 47.9194L79.6182 47.8843L79.8057 47.896Z" fill="black"/>
<path d="M76.1475 42.9468L78.7725 43.4155L81.3271 43.6499L82.3115 43.7437L82.6162 44.6812L83.4482 47.2593L83.4951 47.3999L83.5068 47.5522L83.6709 49.1226L83.8467 50.7866H82.0303V49.2983L80.6826 49.439L80.5303 47.9976L80.0615 46.5444L78.3857 46.3921L78.2686 46.3687L75.8076 45.9233L73.335 46.0874H73.2998L70.6514 46.1812L68.0146 46.2632H67.8975L67.7803 46.2515L65.2373 45.9468L62.7881 46.1108L62.6943 46.1226L62.6123 46.1108L60.1514 45.9702L57.6553 46.3921L57.4443 46.4272L57.2334 46.3921L54.667 46.0874L52.1826 46.0171L49.5928 46.2046H49.4756L46.8389 46.1929H46.7334L44.1436 45.9819L41.624 46.0874L41.5771 46.0991L41.5303 46.0874L39.9131 46.0522L39.3975 46.9546L39.7139 49.0054L39.8662 49.9897L39.0225 50.5054L38.9404 50.564L38.1553 49.2866L38.1201 49.2397L36.749 49.4624L36.3506 46.8843L36.2803 46.3687L36.5381 45.9116L37.7568 43.7905L38.2021 43.0171L39.0928 43.0405L41.5303 43.0991L44.1436 42.9937L44.2373 42.9819L44.3193 42.9937L46.8506 43.2046H49.3818L52.0186 43.0171H52.1709L54.8076 43.0991H54.9482L57.374 43.3921L59.7998 42.9937L59.9639 42.9702L60.1279 42.9819L62.7646 43.1108L65.2256 42.9468L65.3662 42.9351L65.5068 42.9585L68.0146 43.2632L70.5576 43.1812L73.1943 43.0874V43.0991L75.7959 42.9351L75.9717 42.9233L76.1475 42.9468Z" fill="black"/>
<path d="M77.7861 38.1284L79.6494 38.187L79.6025 39.4644L80.9033 38.9136L80.9854 39.1128L81.8877 41.2573L79.5557 41.187L77.7979 41.1284L75.2197 41.3042H75.1729L72.5361 41.3862L69.8877 41.4683L69.7705 41.48L69.665 41.4683L67.1689 41.1519L64.6611 41.3159L64.5674 41.3276L64.4854 41.3159L62.0244 41.1753L59.5283 41.5972L59.3174 41.6323L59.1064 41.6089L56.5518 41.2925L54.0674 41.2222L51.4658 41.4097L51.4189 41.4214H51.3604L48.7119 41.4097H48.6064L46.0283 41.1987L43.5088 41.3042H43.4971L41.4463 41.3862L40.8018 42.019L40.9893 43.9058L41.083 44.9136L40.1807 45.3823L40.0986 45.4292L39.4072 44.0933L39.3838 44.0464L38.001 44.187L37.7549 41.5972L37.6963 40.8823L38.2002 40.3901L39.7588 38.8433L40.1689 38.4331L40.7549 38.4097L43.3799 38.3159L46.0166 38.2104L46.1104 38.1987L46.2041 38.2104L48.8408 38.4097L48.8291 38.4214H51.2549L53.8916 38.2339L53.9736 38.2222L54.0439 38.2339L56.6807 38.3042H56.751L56.8213 38.3159L59.2471 38.5972L61.6846 38.1987L61.8369 38.1753L62.001 38.187L64.5322 38.3276L67.1104 38.1519L67.251 38.1401L67.3799 38.1636L69.9697 38.48L72.4307 38.3862L75.0791 38.3042V38.3159L77.6455 38.1401L77.7158 38.1284H77.7861Z" fill="black"/>
<path d="M79.3721 33.8911L79.4658 34.1372L78.083 34.7114H78.0713L78.458 35.895L76.8408 36.4341L76.6416 36.4927L76.4189 36.5044L73.7939 36.6099H73.7822L71.1455 36.6919H71.0283L70.9111 36.6802L68.4268 36.3638L65.9072 36.5278L65.8252 36.5396L65.7314 36.5278L63.2822 36.3872L60.7744 36.8091L60.5635 36.8442L60.3525 36.8208L57.7979 36.5044L55.3135 36.4341L52.7236 36.6333H52.6064L49.9697 36.6216H49.8643L47.2744 36.4224L44.7549 36.5278L44.6963 36.5396H44.6377L42.6924 36.4692L42.1182 37.1489L42.2471 39.1646L42.3057 40.1372L41.4385 40.5825L41.3447 40.6294L40.6533 39.3052L40.6416 39.2583L39.2471 39.3521L39.083 36.7388L39.0479 36.1411L39.4346 35.6724L40.8877 33.9731L41.3564 33.4106L42.083 33.4458L44.6729 33.5396L47.2744 33.4224H47.3564L47.4502 33.4341L49.9697 33.6333H52.501L55.1494 33.4458L55.2197 33.4341L55.29 33.4458L57.9385 33.5161H58.0088L58.0674 33.5278L60.5049 33.8091L62.9307 33.4106L63.0947 33.3872L63.2588 33.3989L65.79 33.5396L68.3564 33.3638L68.4971 33.3521L68.6377 33.3755L71.1455 33.6919L73.6768 33.6216V33.6099L76.0674 33.5161L77.5088 33.0474L78.833 32.6138L79.3721 33.8911Z" fill="black"/>
<path d="M68.2705 29.0034L70.8135 29.3198L73.2979 29.3901L75.8994 29.2026L76.3213 29.1675L76.708 29.3667L78.7236 30.4214L79.5674 30.8667L79.5322 31.8159L79.4268 34.0659L80.5283 35.9058L80.6689 36.1401L80.7158 36.4097L81.1143 38.7183L82.0752 40.8511L82.2275 41.1909L82.2041 41.5542L82.0635 44.0737L80.9268 44.0034L80.5986 44.0854L79.1338 44.4253L79.1104 44.3198L79.0635 44.1206L79.0752 43.9097L79.1807 41.7534L78.3018 39.7964L78.2314 39.6206L78.1963 39.4331L77.7979 37.1948L76.626 35.2026L76.4033 34.8276L76.415 34.3823L76.4854 32.6362L75.6768 32.2144L73.4736 32.3784L73.4033 32.3901L73.333 32.3784L70.6846 32.3081H70.626L70.5557 32.2964L68.1064 32.0034L65.6924 32.4136L65.5283 32.437L65.376 32.4253L62.8213 32.2847L60.2666 32.4604L60.126 32.4722L59.9854 32.4487L57.4658 32.144L54.9346 32.2261L52.333 32.2964L52.3447 32.3081L49.708 32.4722L49.5205 32.4839L49.3447 32.4487L46.9658 32.0269L44.5752 32.4487L44.1064 32.5308L43.6846 32.3315L42.7002 31.8745L43.9893 29.1558L44.5283 29.4136L46.708 29.0386L46.9775 28.9917L47.2354 29.0386L49.7197 29.4722L52.1572 29.3198H52.2041L54.8408 29.2261L57.4775 29.144H57.5947L57.7119 29.1558L60.2432 29.4604L62.7158 29.2964L62.7979 29.2847L62.8916 29.2964L65.3408 29.437L67.8486 29.0151L68.0596 28.98L68.2705 29.0034Z" fill="black"/>
<path d="M52.7139 25.0146L55.2568 25.3311L57.7412 25.3896L60.3428 25.2021H60.46L63.0967 25.2139H63.2139L65.6865 25.4131L68.3115 25.3076V25.3193L70.8662 25.0615L71.0186 25.0498L71.1709 25.0615L73.6553 25.3311L76.1279 25.2256H76.292V28.2256H76.2568L73.7139 28.3311H73.6084L73.5029 28.3193L70.9951 28.0615L68.5225 28.3076H68.4404L65.792 28.4131H65.6162L63.085 28.2021H60.5537L57.917 28.3896H57.7764L55.1279 28.3193H55.0693L54.999 28.3076L52.5498 28.0146L50.1357 28.4131L49.9717 28.4482L49.8193 28.4365L47.2646 28.2959L44.6982 28.4717L44.2881 28.4951L43.9365 28.3193L43.0342 27.874L44.3701 25.1787L44.8975 25.4482L47.1592 25.3076L47.2412 25.2959H47.335L49.8311 25.4365L52.5029 24.9912L52.7139 25.0146Z" fill="black"/>
<path d="M76.9961 19.312L77.5469 19.3354L79.0469 19.4292L79.0352 19.5347V19.6753L79 19.8042L78.4141 22.1011L78.1797 24.4683L78.4141 26.9644L78.4258 27.0112V27.0464L78.5312 29.6948V29.9644L78.4492 30.2339L78.25 30.7964L75.4141 29.8354L75.5312 29.519L75.4258 27.1636L75.4375 27.1519L75.1797 24.6089L75.168 24.4683L75.1797 24.3159L75.4375 21.6792L75.4492 21.5737L75.4844 21.4565L76.0938 19.0659L76.9961 19.312Z" fill="black"/>
</svg>
