<svg width="120" height="120" viewBox="0 0 120 120" fill="none" xmlns="http://www.w3.org/2000/svg">
<path d="M59.5977 54.6055L62.2227 54.8867L62.8906 54.9688L63.2891 55.5195L64.7891 57.6641L65.0117 57.9688L65.0586 58.3438L65.375 60.8984L65.3867 60.9336V60.9805L65.5625 63.6172V63.6523L65.6914 66.2891V66.4766L65.4805 69.0195L64.5312 68.9375L63.9922 68.9961L62.5039 69.1367L62.4922 69.043L62.4805 68.9141L62.4922 68.7852L62.6797 66.3008L62.5742 63.8164L62.3867 61.1797V61.168L62.1172 59.082L61.2148 57.793L59.7148 57.6406L58.332 58.3672L57.6172 59.8789L57.6992 62.1641V62.2461L57.6875 62.3164L57.5117 64.9648L57.4883 67.5078V67.6016L57.3828 69.1016L56 68.9961V70.4961H54.2773L54.3828 68.8906L54.4883 67.4844L54.5117 64.8477V64.8008L54.5234 64.7539L54.6992 62.1172L54.6055 59.6445L54.5938 59.2812L54.7461 58.9414L55.8359 56.6445L56.0469 56.1992L56.4805 55.9648L58.7305 54.7695L59.1406 54.5586L59.5977 54.6055Z" fill="black"/>
<path d="M38.6328 88.2773L41.0586 88.7344L43.4609 88.4531L43.5898 88.4414L43.7188 88.4414L46.2617 88.582L48.8281 88.418L48.957 88.418L49.0859 88.4297L51.5703 88.7109L54.043 88.4414L54.1133 88.4414L56.75 88.2891L56.9023 88.2773L57.043 88.3008L59.5742 88.6523L62.0938 88.5938L62.1523 88.5938L64.7891 88.6523L64.7773 88.6641L67.4258 88.6641L70.0391 88.7109L72.5469 88.4883L72.582 88.4766L72.6289 88.4766L75.2656 88.3828L75.3828 88.3828L78.0195 88.4883L78.0078 88.5L80.6094 88.5117L80.6563 88.5117L80.7031 88.5234L83.2695 88.6992L85.8125 88.5703L85.8945 88.5703L88.5313 88.582L88.5195 88.5938L91.0273 88.5703L93.6758 88.3359L93.8164 88.3242L93.9688 88.3359L96.4883 88.6172L99.0781 88.6055L99.0781 88.6172L101.621 88.4414L101.633 88.4414L101.645 88.4297L104.293 88.3125L104.387 88.3008L104.469 88.3125L107.012 88.5L107 88.582L107 91.5L106.789 91.5L104.316 91.3008L101.809 91.418L101.82 91.4297L99.1836 91.6055L99.0898 91.6055L96.4531 91.6172L96.3594 91.6289L96.2773 91.6172L93.7578 91.3359L91.2852 91.5469L91.2383 91.5586L91.1797 91.5586L88.5312 91.582L88.5078 91.582L85.9414 91.5703L83.3047 91.6875L83.2227 91.6992L83.1406 91.6875L80.4922 91.5117L80.4922 91.5L77.9492 91.4883L77.9023 91.4883L75.3008 91.3828L72.8047 91.4648L70.168 91.7109L70.0156 91.7109L67.3789 91.6641L67.3789 91.6523L64.7305 91.6523L62.1172 91.5938L59.5156 91.6523L59.3867 91.6523L59.2695 91.6406L56.7734 91.2773L54.2891 91.4414L54.2773 91.4297L51.7109 91.7109L51.5586 91.7227L51.3945 91.7109L48.8984 91.418L46.3672 91.5703L46.2852 91.582L46.2031 91.5703L43.6602 91.4414L41.1758 91.7344L40.9414 91.7695L40.7187 91.7227L38.2695 91.2539L35.8203 91.418L35.7734 91.4297L35.7383 91.4297L33.1016 91.4414L33.1133 91.4531L30.4766 91.5117L27.8398 91.582L27.8047 91.582L25.168 91.5938L25.0625 91.5938L24.9687 91.582L22.5664 91.2656L20.1641 91.7344L19.918 91.7813L19.6836 91.7461L17.0937 91.3945L14.8203 91.3008L14.4805 91.418L13.5195 88.582L14.1172 88.3711L14.3867 88.2891L14.668 88.3008L17.3047 88.4063L17.375 88.4063L17.4453 88.418L19.8359 88.7578L22.2383 88.2891L22.4727 88.2422L22.707 88.2656L25.25 88.5938L27.793 88.582L27.793 88.5938L30.3945 88.5117L30.4063 88.5117L33.043 88.4531L33.0664 88.4531L35.6211 88.4414L35.6211 88.4297L38.2578 88.2539L38.4453 88.2422L38.6328 88.2773Z" fill="black"/>
<path d="M38.6328 68.2773L41.0586 68.7344L43.4609 68.4531L43.5898 68.4414L43.7188 68.4414L46.2617 68.582L48.8281 68.418L48.957 68.418L49.0859 68.4297L51.5703 68.7109L54.043 68.4414L54.1133 68.4414L56.75 68.2891L56.9023 68.2773L57.043 68.3008L59.5742 68.6523L62.0938 68.5938L62.1523 68.5938L64.7891 68.6523L64.7773 68.6641L67.4258 68.6641L70.0391 68.7109L72.5469 68.4883L72.582 68.4766L72.6289 68.4766L75.2656 68.3828L75.3828 68.3828L78.0195 68.4883L78.0078 68.5L80.6094 68.5117L80.6563 68.5117L80.7031 68.5234L83.2695 68.6992L85.8125 68.5703L85.8945 68.5703L88.5313 68.582L88.5195 68.5938L91.0273 68.5703L93.6758 68.3359L93.8164 68.3242L93.9688 68.3359L96.4883 68.6172L99.0781 68.6055L99.0781 68.6172L101.621 68.4414L101.633 68.4414L101.645 68.4297L104.293 68.3125L104.387 68.3008L104.469 68.3125L107.012 68.5L107 68.582L107 71.5L106.789 71.5L104.316 71.3008L101.809 71.418L101.82 71.4297L99.1836 71.6055L99.0898 71.6055L96.4531 71.6172L96.3594 71.6289L96.2773 71.6172L93.7578 71.3359L91.2852 71.5469L91.2383 71.5586L91.1797 71.5586L88.5312 71.582L88.5078 71.582L85.9414 71.5703L83.3047 71.6875L83.2227 71.6992L83.1406 71.6875L80.4922 71.5117L80.4922 71.5L77.9492 71.4883L77.9023 71.4883L75.3008 71.3828L72.8047 71.4648L70.168 71.7109L70.0156 71.7109L67.3789 71.6641L67.3789 71.6523L64.7305 71.6523L62.1172 71.5938L59.5156 71.6523L59.3867 71.6523L59.2695 71.6406L56.7734 71.2773L54.2891 71.4414L54.2773 71.4297L51.7109 71.7109L51.5586 71.7227L51.3945 71.7109L48.8984 71.418L46.3672 71.5703L46.2852 71.582L46.2031 71.5703L43.6602 71.4414L41.1758 71.7344L40.9414 71.7695L40.7187 71.7227L38.2695 71.2539L35.8203 71.418L35.7734 71.4297L35.7383 71.4297L33.1016 71.4414L33.1133 71.4531L30.4766 71.5117L27.8398 71.582L27.8047 71.582L25.168 71.5938L25.0625 71.5938L24.9687 71.582L22.5664 71.2656L20.1641 71.7344L19.918 71.7813L19.6836 71.7461L17.0937 71.3945L14.8203 71.3008L14.4805 71.418L13.5195 68.582L14.1172 68.3711L14.3867 68.2891L14.668 68.3008L17.3047 68.4063L17.375 68.4063L17.4453 68.418L19.8359 68.7578L22.2383 68.2891L22.4727 68.2422L22.707 68.2656L25.25 68.5938L27.793 68.582L27.793 68.5938L30.3945 68.5117L30.4063 68.5117L33.043 68.4531L33.0664 68.4531L35.6211 68.4414L35.6211 68.4297L38.2578 68.2539L38.4453 68.2422L38.6328 68.2773Z" fill="black"/>
<path d="M39.5039 40.9979V41.0799L38.0156 41.1502H38.0039L38.0859 42.5565L35.7422 42.6854L35.7305 42.6736L33.1992 42.9666L33.0352 42.9901L32.8828 42.9666L30.3516 42.7205H27.8203L27.832 42.7322L25.1836 42.8729L25.1602 42.8846H25.1367L22.5 42.9432H22.3945L22.2891 42.9315L19.8047 42.6502L19.8164 42.6385H19.7578L19.8164 42.1697L19.8281 41.1502L19.8516 39.6502H20.0273L20.0977 39.6619L22.5117 39.9432L25.0195 39.8963V39.8846L27.668 39.744L27.7031 39.7322H27.7383L30.375 39.7205H30.457L30.5273 39.7322L33.0469 39.9783L35.4961 39.6854H35.5898L37.9336 39.5682L39.4453 39.4861L39.5039 40.9979Z" fill="black"/>
<path d="M61.1465 95.2846L63.6191 96.0229L63.8887 96.1049L64.1113 96.2807L66.1504 97.8745L66.4668 98.1205L66.6191 98.4838L67.6152 100.921L67.7676 101.285L67.7207 101.683L67.3926 104.191L67.4746 106.664L67.6621 109.3V109.312L67.8145 111.949V112.089L67.7441 114.621V114.656L66.2441 114.679L64.7441 114.714V114.539L64.8145 112.124L64.6621 109.488V109.476L64.4863 106.874L64.4746 106.839V106.816L64.3926 104.179V104.062L64.4043 103.945L64.6855 101.695L63.9941 99.9838L62.4941 98.8237L60.7246 98.2846L59.0371 98.8354L57.5605 100.054L56.8574 101.824L56.9277 104.109V104.191L56.916 104.273L56.7051 106.804L56.9512 109.265L56.9629 109.347V109.429L56.9395 112.066L57.0449 114.609L57.1035 116.062L55.6621 116.167L55.5098 116.179L55.3926 114.679L55.3809 114.667L54.0449 114.726L53.9395 112.113V112.042L53.9629 109.406L53.7168 106.921L53.6934 106.781L53.7051 106.652L53.9277 104.027L53.8574 101.613L53.8457 101.308L53.9629 101.015L54.9121 98.601L55.0645 98.2377L55.3574 97.9916L57.373 96.3393L57.584 96.1635L57.8535 96.0815L60.2441 95.2963L60.7012 95.144L61.1465 95.2846Z" fill="black"/>
<path d="M62.918 101.672L65.4492 101.847L65.4258 102.14L65.4492 103.347L65.4727 104.847H65.2383L62.7422 104.66L60.2812 104.742L60.293 104.754L57.668 104.976L56.0156 105.129L54.5625 105.258L54.3984 103.793L54.3867 103.675L55.875 103.511V103.5L55.7578 102.14L57.3984 101.988L60.0352 101.765H60.0703L60.1172 101.754L62.7539 101.672L62.8359 101.66L62.918 101.672Z" fill="black"/>
<path d="M58.4707 36H61.3184V36.2109L61.1191 38.6719L61.248 41.1797L61.4238 43.8164V43.9102L61.4355 46.5469L61.4473 46.6641L61.4238 46.7812L61.1309 48.75L59.8184 48.5508V50.0273H57.9082L58.166 48.3164L58.4355 46.4883L58.4238 43.9219L58.2598 41.3789V41.3672L58.248 41.3555L58.1309 38.707L58.1191 38.6133L58.1309 38.5312L58.3184 35.9883L58.4707 36Z" fill="black"/>
<path d="M29.875 21.8828L30.9648 24.2266L31.0352 24.3555L31.7031 27.0273L32.3828 29.5938L32.418 29.7344L32.4297 29.8867L32.5469 31.9961L33.8711 33.4727L35.7578 35.043L35.957 35.207L36.0859 35.418L37.4688 37.7031L37.5625 37.8555L37.6094 38.0312L38.3828 40.4688L37.3164 40.7969L37 40.9961L35.7227 41.793L35.6758 41.6992L35.5703 41.5469L35.5117 41.3594L34.7969 39.0742L33.6367 37.1758L31.8555 35.6992L31.7734 35.6289L31.7031 35.5469L29.9805 33.6367L29.6289 33.25L29.5938 32.7227L29.4297 30.2031L28.7969 27.8008V27.7773L28.1758 25.3164L27.625 24.168L27.3438 24.2148L26.3945 25.6914L25.5391 28.0234L24.7539 30.3438L24.168 32.9219L24.1094 33.2031L23.9453 33.4492L22.457 35.582L22.2812 35.8516L22 36.0156L20.043 37.1641L18.625 38.8633L17.6172 40.9141L17.418 41.5L16 40.9961L14.582 40.5039L14.8164 39.8594L14.8398 39.7773L14.8867 39.6953L16.0352 37.3633L16.1172 37.2109L16.2227 37.0703L17.875 35.0781L18.0391 34.8789L18.2617 34.75L20.1719 33.6016L21.2969 31.9844L21.8242 29.6758L21.8711 29.5352L22.7148 27.0273V27.0039L22.7266 26.9805L23.6406 24.5078L23.6992 24.3555L23.7812 24.2148L25.1875 22.0234L25.5508 21.4609L26.2188 21.3555L28.2812 21.0391L29.3945 20.8633L29.875 21.8828Z" fill="black"/>
<path d="M28.1953 75.9102L28.6172 76.6719L29.8477 78.8516L30.0117 79.1445L30.0352 79.4727L30.2461 82.0742L30.3047 82.7422L29.8477 83.2227L28.1484 85.0273L27.5859 85.6367L26.7656 85.4727L24.1875 84.9688L24.457 83.5859L24.0352 83.4805L22.9102 83.7148L22.7344 82.8008L22.7109 82.6953V82.5781L22.6055 79.9648L22.5938 79.7188L22.6641 79.4844L23.3906 77L23.707 75.9219L24.832 75.9102H28.1953ZM25.6055 80.0938L25.6875 82.2031L26.5312 82.3672L27.1992 81.6523L27.0703 80.0352L26.4375 78.9102H25.957L25.6055 80.0938Z" fill="black"/>
<path d="M62.1953 75.9102L62.6172 76.6719L63.8477 78.8516L64.0117 79.1445L64.0352 79.4727L64.2461 82.0742L64.3047 82.7422L63.8477 83.2227L62.1484 85.0273L61.5859 85.6367L60.7656 85.4727L58.1875 84.9688L58.457 83.5859L58.0352 83.4805L56.9102 83.7148L56.7344 82.8008L56.7109 82.6953V82.5781L56.6055 79.9648L56.5938 79.7188L56.6641 79.4844L57.3906 77L57.707 75.9219L58.832 75.9102H62.1953ZM59.6055 80.0938L59.6875 82.2031L60.5312 82.3672L61.1992 81.6523L61.0703 80.0352L60.4375 78.9102H59.957L59.6055 80.0938Z" fill="black"/>
<path d="M25.6523 99.0375H28.5V99.2485L28.3008 101.709L28.4297 104.17L28.6055 105.905L28.7695 107.557H27V106.057L25.6172 106.209L25.4414 104.463V104.428L25.4297 104.393L25.3125 101.745L25.3008 101.651L25.3125 101.569L25.5 99.0258L25.6523 99.0375Z" fill="black"/>
<path d="M26.2148 47H28.5V47.1992L28.4883 47.293L28.3125 48.6055L28.418 50.0117L28.5703 50.6797L28.9805 52.4961H27V51.0195L25.6406 51.3242L25.4648 50.5273L25.4414 50.4219V50.3164L25.3125 48.7227L25.3008 48.5586L25.3242 48.4062L25.5117 46.9062L26.2148 47Z" fill="black"/>
<path d="M26.2148 58H28.5V58.1992L28.4883 58.293L28.3125 59.6055L28.418 61.0117L28.5703 61.6797L28.9805 63.4961H27V62.0195L25.6406 62.3242L25.4648 61.5273L25.4414 61.4219V61.3164L25.3125 59.7227L25.3008 59.5586L25.3242 59.4062L25.5117 57.9062L26.2148 58Z" fill="black"/>
<path d="M29.3418 10.8495L29.2246 13.3925L29.3066 15.8885L29.4355 18.537V18.5604L29.5176 21.1854V21.3964L29.4707 21.5956L29.377 21.9823L27.9238 21.619L26.5645 21.2675L26.5176 21.2792V21.2557H26.4707L26.5176 21.08L26.4355 18.6425L26.4473 18.6307L26.3184 16.0292V16.0057L26.2246 13.369V13.3104L26.2363 13.2635L26.3418 10.7206V10.6971L29.3418 10.6737V10.8495Z" fill="black"/>
<path d="M28.8184 13.1373L31.3379 13.4185L31.2793 13.8873L31.2676 14.9185L31.2441 16.4185H31.0801L30.998 16.4068L28.5723 16.1255L26.1348 16.2662L24.916 16.4302L23.1934 16.6529L23.2285 14.9185V14.8013L24.7168 14.8248L24.541 13.4537L25.8418 13.2896L25.9004 13.2779H25.959L28.5723 13.1373L28.7012 13.1255L28.8184 13.1373Z" fill="black"/>
<path d="M96.875 21.8828L97.9648 24.2266L98.0352 24.3555L98.7031 27.0273L99.3828 29.5938L99.418 29.7344L99.4297 29.8867L99.5469 31.9961L100.871 33.4727L102.758 35.043L102.957 35.207L103.086 35.418L104.469 37.7031L104.562 37.8555L104.609 38.0312L105.383 40.4688L104.316 40.7969L104 40.9961L102.723 41.793L102.676 41.6992L102.57 41.5469L102.512 41.3594L101.797 39.0742L100.637 37.1758L98.8555 35.6992L98.7734 35.6289L98.7031 35.5469L96.9805 33.6367L96.6289 33.25L96.5938 32.7227L96.4297 30.2031L95.7969 27.8008V27.7773L95.1758 25.3164L94.625 24.168L94.3438 24.2148L93.3945 25.6914L92.5391 28.0234L91.7539 30.3438L91.168 32.9219L91.1094 33.2031L90.9453 33.4492L89.457 35.582L89.2812 35.8516L89 36.0156L87.043 37.1641L85.625 38.8633L84.6172 40.9141L84.418 41.5L83 40.9961L81.582 40.5039L81.8164 39.8594L81.8398 39.7773L81.8867 39.6953L83.0352 37.3633L83.1172 37.2109L83.2227 37.0703L84.875 35.0781L85.0391 34.8789L85.2617 34.75L87.1719 33.6016L88.2969 31.9844L88.8242 29.6758L88.8711 29.5352L89.7148 27.0273V27.0039L89.7266 26.9805L90.6406 24.5078L90.6992 24.3555L90.7812 24.2148L92.1875 22.0234L92.5508 21.4609L93.2188 21.3555L95.2812 21.0391L96.3945 20.8633L96.875 21.8828Z" fill="black"/>
<path d="M95.1953 75.9102L95.6172 76.6719L96.8477 78.8516L97.0117 79.1445L97.0352 79.4727L97.2461 82.0742L97.3047 82.7422L96.8477 83.2227L95.1484 85.0273L94.5859 85.6367L93.7656 85.4727L91.1875 84.9688L91.457 83.5859L91.0352 83.4805L89.9102 83.7148L89.7344 82.8008L89.7109 82.6953V82.5781L89.6055 79.9648L89.5938 79.7188L89.6641 79.4844L90.3906 77L90.707 75.9219L91.832 75.9102H95.1953ZM92.6055 80.0938L92.6875 82.2031L93.5312 82.3672L94.1992 81.6523L94.0703 80.0352L93.4375 78.9102H92.957L92.6055 80.0938Z" fill="black"/>
<path d="M92.6523 99.0375H95.5V99.2485L95.3008 101.709L95.4297 104.17L95.6055 105.905L95.7695 107.557H94V106.057L92.6172 106.209L92.4414 104.463V104.428L92.4297 104.393L92.3125 101.745L92.3008 101.651L92.3125 101.569L92.5 99.0258L92.6523 99.0375Z" fill="black"/>
<path d="M93.2148 47H95.5V47.1992L95.4883 47.293L95.3125 48.6055L95.418 50.0117L95.5703 50.6797L95.9805 52.4961H94V51.0195L92.6406 51.3242L92.4648 50.5273L92.4414 50.4219V50.3164L92.3125 48.7227L92.3008 48.5586L92.3242 48.4062L92.5117 46.9062L93.2148 47Z" fill="black"/>
<path d="M93.2148 58H95.5V58.1992L95.4883 58.293L95.3125 59.6055L95.418 61.0117L95.5703 61.6797L95.9805 63.4961H94V62.0195L92.6406 62.3242L92.4648 61.5273L92.4414 61.4219V61.3164L92.3125 59.7227L92.3008 59.5586L92.3242 59.4062L92.5117 57.9062L93.2148 58Z" fill="black"/>
<path d="M96.3418 10.8495L96.2246 13.3925L96.3066 15.8885L96.4355 18.537V18.5604L96.5176 21.1854V21.3964L96.4707 21.5956L96.377 21.9823L94.9238 21.619L93.5645 21.2675L93.5176 21.2792V21.2557H93.4707L93.5176 21.08L93.4355 18.6425L93.4473 18.6307L93.3184 16.0292V16.0057L93.2246 13.369V13.3104L93.2363 13.2635L93.3418 10.7206V10.6971L96.3418 10.6737V10.8495Z" fill="black"/>
<path d="M95.8184 13.1373L98.3379 13.4185L98.2793 13.8873L98.2676 14.9185L98.2441 16.4185H98.0801L97.998 16.4068L95.5723 16.1255L93.1348 16.2662L91.916 16.4302L90.1934 16.6529L90.2285 14.9185V14.8013L91.7168 14.8248L91.541 13.4537L92.8418 13.2896L92.9004 13.2779H92.959L95.5723 13.1373L95.7012 13.1255L95.8184 13.1373Z" fill="black"/>
<path d="M60.9121 39.2631L63.4434 39.3685H63.4785L63.502 42.3685H63.3262L60.8418 42.2631L58.2988 42.3685L55.6621 42.5443L55.416 42.5677L55.1699 42.4974L54.7949 42.392L55.1934 40.9506L55.4863 39.8607L55.4746 39.556H55.5684L55.5918 39.4974L55.7324 39.5443L58.1113 39.3802H58.1465L60.7832 39.2631H60.9121Z" fill="black"/>
<path d="M95.3164 114.254L97.8945 114.605L100.273 114.711L102.793 114.277L102.91 114.266H103.027L105.664 114.242H105.816L105.969 114.266L108.406 114.746L110.809 114.5L110.891 114.488H110.973L112.016 114.5L112.004 116L111.98 117.5L110.984 117.488L108.477 117.746L108.254 117.77L108.031 117.734L105.57 117.242L103.145 117.254L100.648 117.688L100.496 117.711L100.332 117.699L97.6953 117.594H97.625L97.5547 117.582L95.1523 117.242L92.7617 117.711L92.5273 117.758L92.293 117.734L89.7383 117.406L87.207 117.418L87.1953 117.406L84.6055 117.488H84.5938L81.957 117.547H81.9336L79.3672 117.559L79.3789 117.57L76.7422 117.746L76.5547 117.758L73.9297 117.266L71.5391 117.547L71.4102 117.559H71.2812L68.7266 117.418L66.1719 117.582H66.043L65.9141 117.57L63.418 117.289L60.957 117.559H60.8867L58.25 117.711L58.0977 117.723L57.957 117.699L55.4141 117.348L52.9062 117.406H52.8477L50.2109 117.348V117.336H47.5742L44.9492 117.289L42.4531 117.512L42.418 117.523H42.3711L39.7344 117.617H39.6172L36.9805 117.512V117.5L34.3906 117.488H34.3438L34.2969 117.477L31.7188 117.301L29.1875 117.43H29.1055L26.4688 117.418V117.406L23.9609 117.43L21.3242 117.664L21.1836 117.676L21.0312 117.664L18.5 117.383L15.9219 117.395V117.383L13.3789 117.559H13.3672L13.3555 117.57L10.707 117.688L10.6133 117.699L10.5312 117.688L7.98828 117.5L8 117.277V114.5H8.21094L10.6719 114.699L13.1797 114.582V114.57L15.8164 114.395H15.9102L18.5469 114.383L18.6406 114.371L18.7227 114.383L21.2305 114.664L23.7148 114.453L23.7617 114.441H23.8203L26.4688 114.418H26.4922L29.0469 114.43L31.6953 114.312L31.7773 114.301L31.8594 114.312L34.5078 114.488L34.4961 114.5L37.0508 114.512H37.0977L39.6875 114.617L42.1836 114.535L44.832 114.289H44.9844L47.6211 114.336L47.6094 114.348H50.2695L52.8711 114.406L55.4844 114.348H55.6133L55.7305 114.359L58.2148 114.723L60.7109 114.559V114.57L63.2891 114.289L63.4414 114.277L63.6055 114.289L66.0898 114.582L68.6328 114.43L68.7148 114.418L68.7969 114.43L71.3281 114.559L73.8242 114.266L74.0586 114.23L74.2812 114.277L76.7305 114.734L79.1797 114.582L79.2266 114.57H79.2617L81.8867 114.559V114.547L84.5234 114.488L87.1602 114.418H87.1953L89.832 114.406H89.9375L90.0312 114.418L92.4219 114.734L94.8359 114.266L95.082 114.219L95.3164 114.254Z" fill="black"/>
<path d="M60.9062 47.3086L63.2969 48.457L63.3555 48.4805L63.4023 48.5156L65.4766 49.7344L67.6445 50.2734L69.9648 50.0625L70.375 50.0273L70.75 50.2031L73 51.2812L73.3281 51.4453L73.5508 51.7383L75.0742 53.7891L75.332 54.1289L75.3672 54.5508L75.6133 57.1758L75.625 57.2812L75.6133 57.3867L75.5078 60.0234L75.4844 62.6133V62.707L75.3086 65.168L75.4258 67.8047V67.8867L75.4141 70.5352L75.4375 73.0312L75.6602 75.668L75.6719 75.8203L75.6602 75.9609L75.3789 78.4922L75.3906 80.9766L75.5664 83.625V83.6484L75.6953 86.2852V86.3789L75.6836 86.4727L75.4961 89.0156L75.3438 89.0039H72.4961V88.8398L72.5078 88.7812L72.6836 86.3203L72.5664 83.8242L72.3906 81.1758V81.082L72.3789 78.4453V78.3633L72.3906 78.2812L72.6484 75.7617L72.4492 73.2891L72.4375 73.2305V73.1719L72.4141 70.5352V70.5117L72.4258 67.9453L72.3086 65.3086V65.1328L72.4844 62.4961L72.5078 59.9414V59.8945L72.6133 57.3867L72.4141 55.2305L71.3711 53.8242L69.8125 53.0859L67.6562 53.2852L67.4102 53.3086L67.1523 53.25L64.5625 52.5938L64.3516 52.5469L64.1758 52.4414L61.9961 51.1641L60.1094 50.25L58.3516 50.7422L56.4648 52.1836L56.1953 52.3828L55.8789 52.4531L53.3008 53.0273L53.1016 53.0742L52.8906 53.0625L50.5469 52.9336L48.8242 53.4141L47.8984 54.9375L47.2656 56.9883L47.418 59.3789L47.4297 59.4141V59.4609L47.4531 62.0859L47.5117 64.7109L47.582 67.3477V67.3828L47.5938 70.0312V70.125L47.582 70.2305L47.2656 72.6094L47.7344 75.0352L47.7812 75.2695L47.7461 75.5156L47.3945 78.1523L47.2891 80.4609L47.7227 82.9805L47.7344 83.0977V83.2266L47.7578 85.8633V86.0156L47.7344 86.168L47.3125 88.2891V88.3008L47.2188 88.8047L46.5977 88.6758L46 89.0039L44.6758 89.707L44.418 89.2148L44.1719 88.7461L44.2656 88.2305L44.7578 85.7578L44.7461 83.3438L44.3125 80.8477L44.2891 80.6836L44.3008 80.5312L44.4062 77.8945V77.8242L44.418 77.7539L44.7578 75.3516L44.2891 72.9609L44.2422 72.7148L44.2656 72.4805L44.5938 69.9375L44.582 67.3945H44.5938L44.5117 64.793V64.7812L44.4531 62.1445V62.1328L44.4297 59.5781L44.2539 56.9297L44.2422 56.6602L44.3242 56.3906L45.0977 53.8711L45.1445 53.6953L45.25 53.543L46.5742 51.3516L46.8906 50.8477L47.4531 50.6836L49.9609 49.9805L50.1953 49.9219L50.4414 49.9336L52.8438 50.0625L54.9062 49.5938L56.7578 48.1875L56.9805 48.0117L57.2617 47.9297L59.8516 47.2148L60.3906 47.0625L60.9062 47.3086Z" fill="black"/>
<path d="M93.7109 39.2656L96.2422 39.5938L98.7969 39.582V39.5938L101.398 39.5117H101.48L104.082 39.582L105.523 39.6172L105.547 41.0586L105.57 43.625L105.746 46.2617L105.758 46.4492L105.723 46.6367L105.266 49.0625L105.547 51.4648L105.559 51.5938V51.7109L105.418 54.2656L105.582 56.832V56.9609L105.57 57.0898L105.289 59.5625L105.559 62.0469V62.1055L105.711 64.7539L105.723 64.8945L105.699 65.0469L105.348 67.5664L105.406 70.0859V70.1562L105.348 72.793L105.336 75.4062V75.4297L105.289 78.0664L105.512 80.5508L105.523 80.5859V80.6211L105.617 83.2695V83.3867L105.512 86.0234L105.488 88.6133V88.6602L105.477 88.707L105.301 91.2617L105.43 93.8047V93.8867L105.418 96.5352L105.406 96.5234L105.441 99.0312L105.664 101.668L105.676 101.82L105.664 101.961L105.383 104.492L105.395 107.07L105.559 109.625L105.57 109.648L105.688 112.285L105.699 112.379L105.688 112.473L105.5 115.016L105.348 115.004H102.5V114.781L102.688 112.32L102.57 109.824L102.395 107.176V107.082L102.383 104.445L102.371 104.363L102.383 104.281L102.652 101.75L102.453 99.2891L102.441 99.2305V99.1719L102.418 96.5352V96.5117L102.43 93.9453L102.312 91.3086L102.301 91.2266L102.312 91.1328L102.488 88.4961L102.512 85.9414V85.8945L102.617 83.375L102.523 80.8086L102.289 78.1719V78.0195L102.336 75.3945L102.348 72.7461V72.7227L102.406 70.1562L102.348 67.5078V67.3906L102.359 67.2734L102.711 64.7773L102.559 62.293V62.2812L102.289 59.7148L102.277 59.5508L102.289 59.3867L102.57 56.9023L102.43 54.3711L102.418 54.2891L102.43 54.207L102.547 51.6641L102.266 49.168L102.23 48.9453L102.277 48.7227L102.734 46.25L102.582 43.8242L102.57 43.7773V43.7305L102.559 42.5352L101.434 42.5117L98.8438 42.582H98.8086L96.1719 42.5938H96.0664L95.9727 42.582L93.5703 42.2656L91.1562 42.7344L90.9219 42.7812L90.6758 42.7461L88.0977 42.3945L85.6836 42.2891L84.7461 42.3828L84.7578 43.6719V43.8242L84.7344 43.9648L84.2539 46.4141L84.5 48.8047L84.5117 48.9453L84.5 49.0859L84.3008 51.5586L84.6406 54.043L84.6641 54.2422L84.6406 54.4414L84.3008 56.9609L84.2773 59.3867L84.6992 61.9062L84.7227 62.0234V62.1406L84.7695 64.7773V64.8828L84.7578 64.9883L84.4297 67.4375L84.6172 69.9688L84.6289 70.0625V70.168L84.4648 72.8047L84.5703 75.3008V75.418L84.4648 77.9375L84.6172 80.5508V80.668L84.6055 80.7852L84.3594 83.4219L84.2891 85.9648V88.5547L84.5234 91.0625V91.0977L84.6992 93.7344L84.7109 93.8398L84.6992 93.9336L84.5469 96.5703L84.6289 99.0664L84.6406 99.207L84.6172 99.3359L84.2539 101.797L84.4062 104.27L84.6406 106.906L84.6523 107.035L84.6406 107.164L84.4297 109.801L84.5117 112.262L84.6172 114.898L84.6523 116.012L83.6094 116.375L83.4922 116.422L83 115.004L82.9883 114.957L81.6172 115.016L81.5117 112.379V112.367L81.4414 109.73L81.4297 109.648L81.4414 109.566L81.6406 107.035L81.418 104.527V104.492L81.2539 101.855L81.2422 101.703L81.2656 101.539L81.6406 99.0078L81.5469 96.5352V96.3945L81.7109 93.8398L81.5352 91.332L81.2891 88.6953V85.8828L81.3594 83.2344V83.1875L81.3711 83.1406L81.6172 80.5742L81.4648 78.0898V77.9375L81.5703 75.418L81.4766 72.7812L81.4648 72.6992L81.4766 72.6289L81.6289 70.0977L81.4297 67.5547L81.418 67.4023L81.4297 67.25L81.7695 64.6953L81.7344 62.2812L81.3008 59.7734L81.2773 59.6445V59.5039L81.3008 56.8672V56.7734L81.3125 56.6797L81.6406 54.2422L81.3125 51.8047L81.2891 51.6406L81.3008 51.4766L81.5117 48.9219L81.2305 46.25L81.2656 46.0273L81.7578 43.5664L81.7344 41.0469V39.6875L83.082 39.5469L85.4492 39.3008L85.5547 39.2891L85.6602 39.3008L88.2969 39.4062H88.3672L88.4375 39.418L90.8281 39.7578L93.2422 39.2891L93.4766 39.2422L93.7109 39.2656Z" fill="black"/>
<path d="M26.7109 39.2656L29.2422 39.5938L31.7969 39.582V39.5938L34.3984 39.5117H34.4805L37.082 39.582L38.5234 39.6172L38.5469 41.0586L38.5703 43.625L38.7461 46.2617L38.7578 46.4492L38.7227 46.6367L38.2656 49.0625L38.5469 51.4648L38.5586 51.5938V51.7109L38.418 54.2656L38.582 56.832V56.9609L38.5703 57.0898L38.2891 59.5625L38.5586 62.0469V62.1055L38.7109 64.7539L38.7227 64.8945L38.6992 65.0469L38.3477 67.5664L38.4062 70.0859V70.1562L38.3477 72.793L38.3359 75.4062V75.4297L38.2891 78.0664L38.5117 80.5508L38.5234 80.5859V80.6211L38.6172 83.2695V83.3867L38.5117 86.0234L38.4883 88.6133V88.6602L38.4766 88.707L38.3008 91.2617L38.4297 93.8047V93.8867L38.418 96.5352L38.4062 96.5234L38.4414 99.0312L38.6641 101.668L38.6758 101.82L38.6641 101.961L38.3828 104.492L38.3945 107.07L38.5586 109.625L38.5703 109.648L38.6875 112.285L38.6992 112.379L38.6875 112.473L38.5 115.016L38.3477 115.004H35.5V114.781L35.6875 112.32L35.5703 109.824L35.3945 107.176V107.082L35.3828 104.445L35.3711 104.363L35.3828 104.281L35.6523 101.75L35.4531 99.2891L35.4414 99.2305V99.1719L35.418 96.5352V96.5117L35.4297 93.9453L35.3125 91.3086L35.3008 91.2266L35.3125 91.1328L35.4883 88.4961L35.5117 85.9414V85.8945L35.6172 83.375L35.5234 80.8086L35.2891 78.1719V78.0195L35.3359 75.3945L35.3477 72.7461V72.7227L35.4062 70.1562L35.3477 67.5078V67.3906L35.3594 67.2734L35.7109 64.7773L35.5586 62.293V62.2812L35.2891 59.7148L35.2773 59.5508L35.2891 59.3867L35.5703 56.9023L35.4297 54.3711L35.418 54.2891L35.4297 54.207L35.5469 51.6641L35.2656 49.168L35.2305 48.9453L35.2773 48.7227L35.7344 46.25L35.582 43.8242L35.5703 43.7773V43.7305L35.5586 42.5352L34.4336 42.5117L31.8438 42.582H31.8086L29.1719 42.5938H29.0664L28.9727 42.582L26.5703 42.2656L24.1562 42.7344L23.9219 42.7812L23.6758 42.7461L21.0977 42.3945L18.6836 42.2891L17.7461 42.3828L17.7578 43.6719V43.8242L17.7344 43.9648L17.2539 46.4141L17.5 48.8047L17.5117 48.9453L17.5 49.0859L17.3008 51.5586L17.6406 54.043L17.6641 54.2422L17.6406 54.4414L17.3008 56.9609L17.2773 59.3867L17.6992 61.9062L17.7227 62.0234V62.1406L17.7695 64.7773V64.8828L17.7578 64.9883L17.4297 67.4375L17.6172 69.9688L17.6289 70.0625V70.168L17.4648 72.8047L17.5703 75.3008V75.418L17.4648 77.9375L17.6172 80.5508V80.668L17.6055 80.7852L17.3594 83.4219L17.2891 85.9648V88.5547L17.5234 91.0625V91.0977L17.6992 93.7344L17.7109 93.8398L17.6992 93.9336L17.5469 96.5703L17.6289 99.0664L17.6406 99.207L17.6172 99.3359L17.2539 101.797L17.4062 104.27L17.6406 106.906L17.6523 107.035L17.6406 107.164L17.4297 109.801L17.5117 112.262L17.6172 114.898L17.6523 116.012L16.6094 116.375L16.4922 116.422L16 115.004L15.9883 114.957L14.6172 115.016L14.5117 112.379V112.367L14.4414 109.73L14.4297 109.648L14.4414 109.566L14.6406 107.035L14.418 104.527V104.492L14.2539 101.855L14.2422 101.703L14.2656 101.539L14.6406 99.0078L14.5469 96.5352V96.3945L14.7109 93.8398L14.5352 91.332L14.2891 88.6953V85.8828L14.3594 83.2344V83.1875L14.3711 83.1406L14.6172 80.5742L14.4648 78.0898V77.9375L14.5703 75.418L14.4766 72.7812L14.4648 72.6992L14.4766 72.6289L14.6289 70.0977L14.4297 67.5547L14.418 67.4023L14.4297 67.25L14.7695 64.6953L14.7344 62.2812L14.3008 59.7734L14.2773 59.6445V59.5039L14.3008 56.8672V56.7734L14.3125 56.6797L14.6406 54.2422L14.3125 51.8047L14.2891 51.6406L14.3008 51.4766L14.5117 48.9219L14.2305 46.25L14.2656 46.0273L14.7578 43.5664L14.7344 41.0469V39.6875L16.082 39.5469L18.4492 39.3008L18.5547 39.2891L18.6602 39.3008L21.2969 39.4062H21.3672L21.4375 39.418L23.8281 39.7578L26.2422 39.2891L26.4766 39.2422L26.7109 39.2656Z" fill="black"/>
</svg>
