<svg width="120" height="120" viewBox="0 0 120 120" fill="none" xmlns="http://www.w3.org/2000/svg">
<path d="M58.6758 24.3125L61.3125 24.5117L61.3008 24.5234H63.7383L66.375 24.3359L66.4453 24.3242L66.5273 24.3359L69.1641 24.4062H69.2344L69.293 24.418L71.9414 24.7227L72.3633 24.7812L72.7031 25.0508L74.1562 26.2344L74.7539 26.7148L74.7188 27.4766L74.5781 30.0195L74.7422 32.5859L74.7539 32.7266L74.7422 32.8672L74.4258 35.375L74.5078 37.9062L74.6016 40.5547L74.6367 41.7266L73.5117 42.043L71.168 42.7109L70.8398 42.8047L70.5 42.7344L68.1211 42.3125L65.7422 42.7344L65.543 42.7695L65.3438 42.7578L62.8477 42.5117L60.2812 42.6523L60.1289 42.6641L59.9883 42.6406L57.5742 42.2891L55.1953 42.7344L55.0195 42.7695L54.8438 42.7578L52.207 42.6289V42.6172L49.6055 42.5703L49.207 42.5586L48.8555 42.3477L47.1094 41.2812L46.2773 40.7773L46.3945 39.8164L46.7109 37.3086L46.4766 34.8594V34.7305L46.4531 32.0938V32L46.4648 31.9062L46.7461 29.4453L46.3711 27.0195L46.3359 26.7734L46.3828 26.5273L46.5234 25.7305L46.7461 24.5H48.0352L50.5781 24.3945L50.6836 24.3828L50.8008 24.3945L53.2852 24.6641L55.7695 24.418H55.8633L58.5 24.3125L58.5938 24.3008L58.6758 24.3125ZM56.0508 27.3945L56.0625 27.4062L53.4258 27.6641L53.2734 27.6758L53.1211 27.6641L50.625 27.3945L49.4648 27.4414L49.7344 29.2227L49.7695 29.4102L49.7461 29.6094L49.4531 32.1289L49.4648 34.6953L49.7109 37.2266L49.7227 37.3789L49.6992 37.543L49.4883 39.2188L50.0742 39.5703L52.3125 39.6289H52.3594L54.8203 39.7578L57.2812 39.3008L57.5273 39.2539L57.7734 39.2891L60.2695 39.6406L62.7539 39.5117H62.9766L65.4023 39.7461L67.8633 39.3242L68.1211 39.2773L68.3789 39.3242L70.6758 39.7227L71.5547 39.4648L71.5195 38.0117L71.4258 35.375V35.2578L71.4375 35.1406L71.7422 32.6562L71.5781 30.1367V29.9609L71.6719 28.0742L71.1562 27.6523L69.0234 27.3945L66.5391 27.3242L63.9492 27.5117L63.8906 27.5234H63.832L61.1953 27.5117H61.0781L58.5 27.3008L56.0508 27.3945Z" fill="black"/>
<path d="M60.6758 117.688L63.3125 117.488L63.3008 117.477H65.7383L68.375 117.664L68.5156 117.676L68.6445 117.664L71.2578 117.371L72.8398 117.184L72.5703 115.625L72.1484 113.211L72.418 110.762L72.4414 110.598L72.418 110.434L72.1484 107.949L72.1836 105.336V105.195L72.1602 105.066L71.7031 102.57L71.668 100.027L71.6094 97.3906L71.6328 94.7891V94.6133L71.5977 94.4375L71.0352 92.0703L71.3398 89.6797L71.3633 89.4805L71.3281 89.2812L70.9531 86.75L70.9648 84.2422V84.0898L70.9297 83.9492L70.4492 81.5586L70.7773 79.1562L70.8008 78.9805L70.7773 78.8047L70.5078 76.168L70.3086 73.5898L70.2148 71V70.8945L70.1914 70.7891L69.7461 68.3516L69.8516 65.8438V65.7266L69.7227 63.0898V62.9961L69.7109 62.9023L69.2891 60.4766L69.5352 58.0156L69.5586 57.875L69.5352 57.7227L69.2656 55.0977V55.0859L68.9844 52.5781L69.0547 50.0117V49.8945L68.9375 47.2578L68.9258 47.1523L68.9023 47.0469L68.4453 44.668L68.7617 42.2422L68.9023 41.1406L67.8945 40.6836L66.043 39.8516L65.7734 39.7227H65.4688L62.9492 39.6641L60.3711 39.2656L60.2539 39.2422H60.1367L57.5 39.2539H57.3945L57.2891 39.2773L54.6523 39.6641L53.9375 39.7578L53.5742 40.3789L52.6133 42.0078L52.4258 42.3242L52.4023 42.6875L52.25 45.3125V45.3711L52.1797 47.9961L52.0977 50.6328L52.0859 50.6445V50.6562L52.0391 53.1641L51.5703 55.6719L51.5469 55.8008V55.9414L51.5352 58.4844L51.1953 61.0156L51.1719 61.1562L51.1836 61.3086L51.3359 63.8398L51.1367 66.3711V66.418L50.9844 69.0547V69.0664L50.7266 71.6094L50.7148 71.6562V71.7148L50.6211 74.3516L50.5391 76.9766L50.4336 79.543L50.1992 82.1797L49.9766 84.8164V84.875L49.8477 87.5117V87.5234L49.7539 90.1602V90.3125L49.918 92.8555L49.7305 95.2695L49.3203 97.8945L49.3086 97.9648V98.0469L49.1562 100.672V100.789L49.2031 103.367L49.1445 105.992L49.0508 108.629L48.957 111.195L48.7227 113.82V113.902L48.6523 115.953L49.9648 116L49.918 117.5H50.1875L51.5938 117.582V117.559L52.5781 117.605L52.6836 117.617L52.8008 117.605L55.2852 117.336L57.7695 117.582H57.8633L60.5 117.688L60.5938 117.699L60.6758 117.688ZM58.0508 114.605L58.0625 114.594L55.4258 114.336L55.2734 114.324L55.1211 114.336L52.625 114.605L51.6992 114.57L51.7227 114.008L51.9453 111.453L51.957 111.418V111.371L52.0391 108.734L52.1445 106.098V106.086L52.2031 103.438V103.379L52.1562 100.848L52.2852 98.3516L52.6953 95.7383L52.707 95.6797V95.6211L52.918 92.9844V92.7734L52.7539 90.125L52.8477 87.6523L52.9648 85.0742L53.1875 82.4375L53.4219 79.8125V79.7422L53.5391 77.1055V77.0938L53.6211 74.457L53.7148 71.8086L53.9727 69.2891L53.9844 69.2539V69.2188L54.125 66.6172L54.3359 63.9922L54.3477 63.875L54.3359 63.7695L54.1836 61.2734L54.5234 58.7891L54.5352 58.6953V56.1055L55.0156 53.6094L55.0391 53.4805V53.3516L55.0859 50.7383L55.1797 48.0898L55.25 45.4414H55.2383L55.3789 43.2148L55.7773 42.5352L57.6406 42.2539H59.9961L62.5625 42.6289L62.6562 42.6523H62.75L65.0938 42.7227L65.6445 42.9688L65.4453 44.5273L65.4219 44.7617L65.457 44.9961L65.9375 47.5156L66.0547 49.9297L65.9844 52.5781V52.6836L65.9961 52.7773L66.2891 55.4141L66.5352 57.8398L66.3008 60.3828L66.2773 60.582L66.3125 60.7812L66.7461 63.4062L66.8516 65.7383L66.7461 68.3867V68.5391L66.7695 68.7031L67.2148 71.2109L67.3203 73.7539V73.8125L67.5195 76.4375V76.4844L67.7773 78.9336L67.4492 81.4297L67.4258 81.6758L67.4727 81.9102L67.9531 84.4062V86.9961L67.9766 87.1016L68.3281 89.5156L68.0352 91.9883L68 92.2461L68.0586 92.5039L68.6211 94.9648L68.6094 97.4023V97.4492L68.668 100.098L68.7148 102.734V102.852L68.7383 102.969L69.1719 105.441L69.1484 107.949V108.043L69.1602 108.125L69.418 110.598L69.1484 113.094L69.125 113.305L69.3359 114.57L68.4102 114.664L65.9492 114.488L65.8906 114.477H65.832L63.1953 114.488H63.0781L60.5 114.699L58.0508 114.605Z" fill="black"/>
<path d="M59.8008 33.3945L62.4375 33.6758L63.2812 33.7695L63.6445 34.543L64.4531 36.2891L64.5703 36.5586L64.582 36.8633L64.6875 39.5L64.7227 40.1445L64.2656 40.6133L62.8711 42.0312L62.4258 42.4883H61.793L59.1562 42.4766H59.0156L58.875 42.4531L56.543 41.9961L55.3008 41.75L55.3359 40.4727L55.4062 37.8359V37.7656L55.418 37.707L55.7227 35.0586L56.7656 35.1758L57.0469 34.8945L56.9648 33.5703L59.5312 33.3945L59.6719 33.3828L59.8008 33.3945ZM58.582 36.4648L58.4062 37.918L58.3594 39.2891L59.2734 39.4766H61.1719L61.6641 38.9727L61.6055 37.2852L61.2656 36.5703L59.5781 36.3828L58.582 36.4648Z" fill="black"/>
<path d="M69.418 27.3359L71.0352 26.0469L71.6797 25.5312L71.5859 24.6992L71.293 22.2969L71.6914 19.8477L71.9141 18.5469L70.6484 18.1602L68.3867 17.4922L68.2227 17.4336L68.0586 17.4219L65.4219 17.2578L65.2812 17.2461L65.1406 17.2578L62.6211 17.5742L60.0898 17.4922L57.4766 17.4102L57.4883 17.3984L54.8516 17.2344H54.6758L54.5 17.2578L51.9219 17.7266L49.543 18.0312L48.1133 18.2188L48.2422 19.6602L48.4883 22.1562L48.3477 24.7227V24.8516L48.3594 24.9922L48.5117 26.1875L48.6758 27.5H50.0352L52.5781 27.6055L52.6836 27.6172L52.8008 27.6055L55.2852 27.3359L57.7695 27.582H57.8633L60.5 27.6875L60.5938 27.6992L60.6758 27.6875L63.3125 27.4883L63.3008 27.4766H65.7383L68.375 27.6641L68.9609 27.7109L69.418 27.3359ZM58.0508 24.6055L58.0625 24.5938L55.4258 24.3359L55.2734 24.3242L55.1211 24.3359L52.625 24.6055L51.3594 24.5586L51.4883 22.2383V22.0156L51.3711 20.8203L52.3203 20.6914H52.3438L52.3789 20.6797L54.8164 20.2461L57.3125 20.3984H57.3477L59.9961 20.4805L62.6328 20.5742H62.75L62.8672 20.5625L65.3398 20.2578L67.6836 20.4219L68.5156 20.668L68.3047 21.9922L68.2695 22.2031L68.293 22.4141L68.5039 24.2305L67.9883 24.6406L65.9492 24.4883L65.8906 24.4766H65.832L63.1953 24.4883H63.0781L60.5 24.6992L58.0508 24.6055Z" fill="black"/>
<path d="M53.1055 9.5L53.3164 9.52344L53.3047 9.53516L55.7773 9.76953L55.8828 9.78125L56 9.81641L58.4023 10.4258L60.9219 10.5312H60.957L61.0039 10.543L63.6289 10.8125H63.7227L63.8047 10.8359L66.3945 11.4102L67.0859 11.5742L67.4023 12.207L68.3164 14.0234L68.457 14.293L68.4805 14.5859L68.668 17.2344L68.7031 17.7383L68.4219 18.1602L67.2734 19.918L66.7695 20.6914L65.8438 20.5859L63.4062 20.293L60.9805 20.6914L60.8281 20.7266L60.6641 20.7148L58.1211 20.5742L55.5547 20.75L55.3789 20.7617L55.2031 20.7266L52.8125 20.293L51.6172 20.082L51.5703 18.875L51.4883 16.2266L51.4062 13.6367L51.2422 11.0938L51.1367 9.5H53.1055ZM54.3945 13.4492V13.4727L54.4062 13.4961L54.4883 16.1328L54.5234 17.5508L55.5312 17.7383L58.0039 17.5742H58.1797L60.6758 17.7031L63.1367 17.3047L63.3477 17.2695L63.5586 17.293L65.2695 17.4922L65.6211 16.9414L65.4922 15.0781L65.0469 14.1758L63.2188 13.7773L60.6992 13.5312V13.5195L58.1328 13.4141L57.9805 13.4023L57.8398 13.3672L55.3438 12.7344L54.3359 12.6406L54.3945 13.4492Z" fill="black"/>
<path d="M47.0039 40L47.2383 40.0703L48.4688 40.0117L48.6094 42.5547V42.6719L48.5977 42.8008L48.3398 45.2734L48.5859 47.7695L48.6562 48.6016L48 49.1055L46.3594 50.3828L45.9023 50.7344L45.3281 50.6875L43.3828 50.5352L43.0195 50.9102L43.1602 52.8672L43.1719 52.9492V53.0195L43.0898 55.668V55.7617L43.0781 55.8672L42.7148 58.0234L42.5508 59.0898L41.4844 59.2656L39.082 59.6523L38.6367 59.8984L38.7422 61.5859L38.7539 61.7266L38.7422 61.8672L38.4258 64.375L38.5078 66.9062L38.5664 68.3828L37.0898 68.4531L34.7344 68.5703L34.0898 68.8164L33.8086 70.375L34.2422 72.7656L34.2773 72.9648L34.2539 73.1641L34.0078 75.8008L33.9023 76.9023L32.8242 77.125L30.5156 77.6172L30.375 77.6406L29.543 77.7344L29.7422 78.8008L29.7773 78.9766L29.7656 79.1641L29.625 81.8008L29.5664 84.3906L29.543 85.4219L28.582 85.7734L26.5078 86.5234L26.2734 86.6172H24.9258L25.0195 87.6484L25.0312 87.707V87.7656L25.043 90.4141V90.5898L24.7383 93.2266L24.668 93.8711L22.6992 95.3477L22.2656 95.6758L21.7266 95.6406L20.4727 95.5703L20.3672 96.5312L20.5781 99.0039V99.1094L20.6016 101.746V102.566L19.9219 103.012L18.4219 103.996L18.1641 104.16L17.8711 104.219L15.2227 104.688L14.9766 104.734L14.7188 104.699L13.5234 104.5L13.3711 105.32L13.7344 107.734L13.7578 107.852V107.969L13.7461 110.16L14.0156 110.594L15.7969 110.5H15.8672L18.5156 110.477H18.5625L21.1758 110.547H21.1875L23.8359 110.605H23.8477L26.3555 110.688L28.8867 110.359L29.0156 110.336L29.1562 110.348L31.6641 110.465L34.2422 110.266L34.3828 110.254L34.5352 110.266L37.043 110.547L39.5977 110.488H42.2109L44.8477 110.359L44.8945 110.348L44.9531 110.359L47.5898 110.406L50.0391 110.465L51.5039 110.488V112H50.0039L49.9688 113.465L47.5312 113.406L44.9531 113.348L42.3516 113.477L42.3164 113.488H39.6797L37.043 113.559L36.9375 113.57L36.832 113.559L34.3008 113.266L31.8398 113.465L31.7461 113.477H31.6523L29.1328 113.348L26.6367 113.688L26.5195 113.699H26.3906L23.7539 113.605V113.594L21.1289 113.547H21.1172L18.4922 113.477L15.8906 113.5L15.8789 113.488L13.3242 113.641L12.457 113.688L11.9766 112.961L10.9805 111.414L10.7461 111.039V110.594L10.7578 108.098L10.3711 105.543L10.3242 105.297L10.3711 105.051L10.8398 102.508L11.1094 101.066L12.5625 101.301L14.9297 101.688L17.0391 101.312L17.5898 100.949L17.5781 99.2383L17.3672 96.6016L17.3555 96.4492L17.3789 96.2969L17.6719 93.8359L17.8359 92.4531L19.2305 92.5234L21.3281 92.6172L21.832 92.2422L22.0312 90.3555V87.918L21.7969 85.2812L21.6445 83.6523L23.2734 83.6406L25.6992 83.6172L26.5781 83.3008L26.625 81.6836V81.6367L26.7539 79.1641L26.2969 76.7148L26.0039 75.1445L27.5977 74.9453L29.9531 74.6641L31.1133 74.418L31.2422 73.0938L30.8203 70.6445L30.7734 70.375L30.8203 70.1172L31.2891 67.4805L31.4297 66.6484L32.2148 66.3438L33.8555 65.6992L34.0781 65.6172L34.3242 65.6055L35.4609 65.5352L35.4258 64.375V64.2578L35.4375 64.1406L35.7422 61.6562L35.5781 59.1367L35.5195 58.1758L36.3633 57.7188L37.8867 56.8984L38.1094 56.7812L38.3555 56.7344L39.9258 56.4648L40.0898 55.5039L40.1719 53.0898L39.9844 50.4531L39.9375 49.7734L40.4062 49.293L41.7305 47.9453L42.2227 47.4414L42.9141 47.4883L44.9766 47.6523L45.5156 47.2305L45.3398 45.4258L45.3281 45.2734L45.3398 45.1211L45.5977 42.6367L45.4688 40.1758L45.457 39.8945L45.5508 39.625L45.5742 39.5312L47.0039 40Z" fill="black"/>
<path d="M47.9609 47.2422L50.5859 47.2539L52.0742 47.2656V49H50.5742V50.2539L48.9336 50.2422L48.6289 50.9453L48.6875 53.2539L48.6992 53.3945L48.6758 53.5352L48.2422 56.1719L47.8789 58.4922L47.7617 59.2539L47.0703 59.6055L46.25 60.0039L46.2617 61.5977L46.4727 64.2461L46.4844 64.3398L46.4727 64.4453L46.3438 67.0586L46.2617 68.5586L44.7617 68.4766L43.543 68.4062L43.4492 69.3086V69.3203L43.168 71.8047L43.1797 74.418L43.1914 74.8281L42.9805 75.1914L41.9375 76.9727L41.8672 77.0898L41.7734 77.1953L40.9648 78.1211L41.0117 80.1953V80.2539L40.9531 82.8906V83.0195L40.918 83.1484L40.5547 85.0234L40.3438 86.1016L39.2539 86.2305L37.9883 86.3711L37.7891 87.7188L37.9297 90.2031L37.9414 90.3203L37.9297 90.4258L37.6836 93.0625L37.625 93.6133L37.2383 94L35.9258 95.2773L35.75 95.4531L35.5273 95.5586L34.6133 95.9805L34.7188 97.6211V97.668L34.8828 102.941L34.9414 104.641L33.2539 104.488L31.0742 104.289L30.3711 104.77L30.2773 106.48L30.6992 109L30.7344 109.211L30.7109 109.422L30.5703 110.547L31.5664 110.664L34.0508 110.488L34.1094 110.477H34.168L36.8047 110.488H36.9219L39.5 110.688L41.9375 110.594L44.5742 110.336L44.7266 110.324L44.8789 110.336L47.3633 110.594L49.8359 110.5H50V113.5H49.9648L47.4219 113.605L47.3164 113.617L47.1992 113.605L44.7031 113.336L42.2305 113.582H42.1367L39.5 113.688L39.4062 113.699L39.3242 113.688L36.6875 113.488V113.477H34.25L31.625 113.664L31.4961 113.676L31.3555 113.664L28.7422 113.371L27.2422 113.207L27.418 111.707L27.6992 109.234L27.3008 106.844L27.2773 106.68L27.2891 106.516L27.4297 103.879L27.4648 103.141L28.0742 102.719L29.832 101.512L30.2773 101.207L30.8164 101.254L31.8242 101.336L31.8008 100.41V100.398L31.7188 97.8086L31.5547 95.1719L31.4961 94.1523L32.4102 93.7188L33.9922 92.957L34.7422 92.2305L34.9297 90.2148L34.8008 87.7305L34.7891 87.5781L34.8125 87.4375L35.1875 84.7891L35.3516 83.6523L36.5 83.5117L37.8125 83.3594L37.9531 82.6562L38.0117 80.2422L37.9648 77.6055L37.9531 77.0312L38.3281 76.5977L39.4297 75.3086L40.168 74.0312V71.6172L40.4727 68.9805L40.707 66.6953L40.8594 65.2891L42.2773 65.3594L43.4141 65.4062L43.4727 64.3984L43.2734 61.8438L43.2617 61.7852V61.7266L43.25 59.0898L43.2383 58.1523L44.082 57.7422L45.0312 57.2617L45.2773 55.7031V55.6914L45.6758 53.207L45.6289 50.6875L45.6172 50.3594L45.7461 50.0547L46.5898 48.1445L46.9766 47.2422H47.9609Z" fill="black"/>
<path d="M73.9961 40L73.7617 40.0703L72.5312 40.0117L72.3906 42.5547V42.6719L72.4023 42.8008L72.6602 45.2734L72.4141 47.7695L72.3438 48.6016L73 49.1055L74.6406 50.3828L75.0977 50.7344L75.6719 50.6875L77.6172 50.5352L77.9805 50.9102L77.8398 52.8672L77.8281 52.9492V53.0195L77.9102 55.668V55.7617L77.9219 55.8672L78.2852 58.0234L78.4492 59.0898L79.5156 59.2656L81.918 59.6523L82.3633 59.8984L82.2578 61.5859L82.2461 61.7266L82.2578 61.8672L82.5742 64.375L82.4922 66.9062L82.4336 68.3828L83.9102 68.4531L86.2656 68.5703L86.9102 68.8164L87.1914 70.375L86.7578 72.7656L86.7227 72.9648L86.7461 73.1641L86.9922 75.8008L87.0977 76.9023L88.1758 77.125L90.4844 77.6172L90.625 77.6406L91.457 77.7344L91.2578 78.8008L91.2227 78.9766L91.2344 79.1641L91.375 81.8008L91.4336 84.3906L91.457 85.4219L92.418 85.7734L94.4922 86.5234L94.7266 86.6172H96.0742L95.9805 87.6484L95.9688 87.707V87.7656L95.957 90.4141V90.5898L96.2617 93.2266L96.332 93.8711L98.3008 95.3477L98.7344 95.6758L99.2734 95.6406L100.527 95.5703L100.633 96.5312L100.422 99.0039V99.1094L100.398 101.746V102.566L101.078 103.012L102.578 103.996L102.836 104.16L103.129 104.219L105.777 104.688L106.023 104.734L106.281 104.699L107.477 104.5L107.629 105.32L107.266 107.734L107.242 107.852V107.969L107.254 110.16L106.984 110.594L105.203 110.5H105.133L102.484 110.477H102.438L99.8242 110.547H99.8125L97.1641 110.605H97.1523L94.6445 110.688L92.1133 110.359L91.9844 110.336L91.8438 110.348L89.3359 110.465L86.7578 110.266L86.6172 110.254L86.4648 110.266L83.957 110.547L81.4023 110.488H78.7891L76.1523 110.359L76.1055 110.348L76.0469 110.359L73.4102 110.406L70.9609 110.465L69.4961 110.488V112H70.9961L71.0312 113.465L73.4688 113.406L76.0469 113.348L78.6484 113.477L78.6836 113.488H81.3203L83.957 113.559L84.0625 113.57L84.168 113.559L86.6992 113.266L89.1602 113.465L89.2539 113.477H89.3477L91.8672 113.348L94.3633 113.688L94.4805 113.699H94.6094L97.2461 113.605V113.594L99.8711 113.547H99.8828L102.508 113.477L105.109 113.5L105.121 113.488L107.676 113.641L108.543 113.688L109.023 112.961L110.02 111.414L110.254 111.039V110.594L110.242 108.098L110.629 105.543L110.676 105.297L110.629 105.051L110.16 102.508L109.891 101.066L108.438 101.301L106.07 101.688L103.961 101.312L103.41 100.949L103.422 99.2383L103.633 96.6016L103.645 96.4492L103.621 96.2969L103.328 93.8359L103.164 92.4531L101.77 92.5234L99.6719 92.6172L99.168 92.2422L98.9688 90.3555V87.918L99.2031 85.2812L99.3555 83.6523L97.7266 83.6406L95.3008 83.6172L94.4219 83.3008L94.375 81.6836V81.6367L94.2461 79.1641L94.7031 76.7148L94.9961 75.1445L93.4023 74.9453L91.0469 74.6641L89.8867 74.418L89.7578 73.0938L90.1797 70.6445L90.2266 70.375L90.1797 70.1172L89.7109 67.4805L89.5703 66.6484L88.7852 66.3438L87.1445 65.6992L86.9219 65.6172L86.6758 65.6055L85.5391 65.5352L85.5742 64.375V64.2578L85.5625 64.1406L85.2578 61.6562L85.4219 59.1367L85.4805 58.1758L84.6367 57.7188L83.1133 56.8984L82.8906 56.7812L82.6445 56.7344L81.0742 56.4648L80.9102 55.5039L80.8281 53.0898L81.0156 50.4531L81.0625 49.7734L80.5938 49.293L79.2695 47.9453L78.7773 47.4414L78.0859 47.4883L76.0234 47.6523L75.4844 47.2305L75.6602 45.4258L75.6719 45.2734L75.6602 45.1211L75.4023 42.6367L75.5312 40.1758L75.543 39.8945L75.4492 39.625L75.4258 39.5312L73.9961 40Z" fill="black"/>
<path d="M73.0391 47.2422L70.4141 47.2539L68.9258 47.2656V49H70.4258V50.2539L72.0664 50.2422L72.3711 50.9453L72.3125 53.2539L72.3008 53.3945L72.3242 53.5352L72.7578 56.1719L73.1211 58.4922L73.2383 59.2539L73.9297 59.6055L74.75 60.0039L74.7383 61.5977L74.5273 64.2461L74.5156 64.3398L74.5273 64.4453L74.6562 67.0586L74.7383 68.5586L76.2383 68.4766L77.457 68.4062L77.5508 69.3086V69.3203L77.832 71.8047L77.8203 74.418L77.8086 74.8281L78.0195 75.1914L79.0625 76.9727L79.1328 77.0898L79.2266 77.1953L80.0352 78.1211L79.9883 80.1953V80.2539L80.0469 82.8906V83.0195L80.082 83.1484L80.4453 85.0234L80.6562 86.1016L81.7461 86.2305L83.0117 86.3711L83.2109 87.7188L83.0703 90.2031L83.0586 90.3203L83.0703 90.4258L83.3164 93.0625L83.375 93.6133L83.7617 94L85.0742 95.2773L85.25 95.4531L85.4727 95.5586L86.3867 95.9805L86.2812 97.6211V97.668L86.1172 102.941L86.0586 104.641L87.7461 104.488L89.9258 104.289L90.6289 104.77L90.7227 106.48L90.3008 109L90.2656 109.211L90.2891 109.422L90.4297 110.547L89.4336 110.664L86.9492 110.488L86.8906 110.477H86.832L84.1953 110.488H84.0781L81.5 110.688L79.0625 110.594L76.4258 110.336L76.2734 110.324L76.1211 110.336L73.6367 110.594L71.1641 110.5H71V113.5H71.0352L73.5781 113.605L73.6836 113.617L73.8008 113.605L76.2969 113.336L78.7695 113.582H78.8633L81.5 113.688L81.5938 113.699L81.6758 113.688L84.3125 113.488V113.477H86.75L89.375 113.664L89.5039 113.676L89.6445 113.664L92.2578 113.371L93.7578 113.207L93.582 111.707L93.3008 109.234L93.6992 106.844L93.7227 106.68L93.7109 106.516L93.5703 103.879L93.5352 103.141L92.9258 102.719L91.168 101.512L90.7227 101.207L90.1836 101.254L89.1758 101.336L89.1992 100.41V100.398L89.2812 97.8086L89.4453 95.1719L89.5039 94.1523L88.5898 93.7188L87.0078 92.957L86.2578 92.2305L86.0703 90.2148L86.1992 87.7305L86.2109 87.5781L86.1875 87.4375L85.8125 84.7891L85.6484 83.6523L84.5 83.5117L83.1875 83.3594L83.0469 82.6562L82.9883 80.2422L83.0352 77.6055L83.0469 77.0312L82.6719 76.5977L81.5703 75.3086L80.832 74.0312V71.6172L80.5273 68.9805L80.293 66.6953L80.1406 65.2891L78.7227 65.3594L77.5859 65.4062L77.5273 64.3984L77.7266 61.8438L77.7383 61.7852V61.7266L77.75 59.0898L77.7617 58.1523L76.918 57.7422L75.9688 57.2617L75.7227 55.7031V55.6914L75.3242 53.207L75.3711 50.6875L75.3828 50.3594L75.2539 50.0547L74.4102 48.1445L74.0234 47.2422H73.0391Z" fill="black"/>
<path d="M31.168 91.9297L31.6016 92.1289L31.0039 93.5L30.5937 94.4141L30.6172 94.8008L30.418 94.8125L30.3945 94.8711L30.2539 94.8242L28.0508 94.9062L28.0625 94.9062L25.4258 95.1641L25.2734 95.1758L25.1211 95.1641L22.625 94.9062L20.1641 95L20 95L20 92L20.0352 92L22.5781 91.8945L22.6836 91.8828L22.8008 91.8945L25.2852 92.1641L27.7695 91.918L27.8633 91.918L30.5 91.8125L30.8516 91.7891L31.168 91.9297Z" fill="black"/>
<path d="M85.168 83.9297L85.6016 84.1289L85.0039 85.5L84.5937 86.4141L84.6172 86.8008L84.418 86.8125L84.3945 86.8711L84.2539 86.8242L82.0508 86.9062L82.0625 86.9062L79.4258 87.1641L79.2734 87.1758L79.1211 87.1641L76.625 86.9062L74.1641 87L74 87L74 84L74.0352 84L76.5781 83.8945L76.6836 83.8828L76.8008 83.8945L79.2852 84.1641L81.7695 83.918L81.8633 83.918L84.5 83.8125L84.8516 83.7891L85.168 83.9297Z" fill="black"/>
<path d="M53.168 65.9297L53.6016 66.1289L53.0039 67.5L52.5937 68.4141L52.6172 68.8008L52.418 68.8125L52.3945 68.8711L52.2539 68.8242L50.0508 68.9062L50.0625 68.9062L47.4258 69.1641L47.2734 69.1758L47.1211 69.1641L44.625 68.9062L42.1641 69L42 69L42 66L42.0352 66L44.5781 65.8945L44.6836 65.8828L44.8008 65.8945L47.2852 66.1641L49.7695 65.918L49.8633 65.918L52.5 65.8125L52.8516 65.7891L53.168 65.9297Z" fill="black"/>
</svg>
