<svg xmlns="http://www.w3.org/2000/svg" width="120" height="120" fill="none" viewBox="0 0 120 120"><path fill="#000" d="M39.875 20.127h2.848v.21l-.2 2.462.13 2.508.175 2.636v.094l.004.778.793.023.645.012.433.492 1.406 1.582.34.375.035.504.211 2.637v.023l.013.198.765.015h.07l.07.011 2.637.305.258.035.234.117 2.403 1.196.773.375.059.855.187 2.508.023.399-.164.351-1.101 2.332-.012.012v.012l-1.078 2.18-.059.117-.082.105-1.57 2.156-.07.094-.07.07-1.782 1.828-.398.41-.574.036-.576.036-.128 1.583.13 2.46.032.33.33.014 2.59-.011h.118l.117.023 2.496.387 2.473-.14.738-.036.48.563 1.477 1.722.422.504-.07.645-.294 2.472.153 2.555.012.082v.082l-.131 2.352 2.31.21 2.461-.14v-.012l2.283-.215-.044-1.28v-.118l.105-2.637.023-2.59v-.046l.012-.047.176-2.567-.129-2.543v-.082l.023-2.613-.035-2.637.012-.011-.234-2.52-.059-.727.54-.492 1.604-1.5.434-.398h.574l2.555-.012 2.637-.187h.035l2.637-.117.07-.012.07.012 1.554.074-.206-2.367-.012-.153.012-.14.293-2.637-.024-2.473.012-.011-.187-2.532v-.023l-.13-2.625-.011-.176.035-.176.434-2.332.855.176h.621l1.5.023-.005.047.103.145 1.91 1.137 2.414 1.113.035.023.035.012 2.344 1.242.047.024.047.035 2.203 1.382 2.274 1.348.035.024.035.035 2.086 1.406 2.297 1.23.586.317.164.656.574 2.38.047.163v.176l.023 2.637.223 2.53.012.141-.024.153-.281 2.637.012 2.472.117 2.59.013.287 1.284 1.22 2.133 1.126 2.718 1.36.223.327 1.441 2.145.305.445-.059.551-.281 2.52.211 2.472.012.059v.058l.023 2.637v.023l-.023 2.637.117 2.567.012.082-.012.093-.176 2.637-.023 2.555v.035l-.106 2.648.094 2.438.234 2.648.012.07v.083l-.035 2.636-.012 2.626v.023l-.047 2.637.059 2.578.012.117-.024.117-.34 2.496.153 2.426.281 2.637.024.164-.024.164-.293 2.543.164 2.484.012.082v.082l-.141 2.449.183 1.056.13.021 2.437.48 2.403-.246.082-.012h.082l1.043.012-.012 1.5-.024 1.5-.996-.012-2.507.258-.223.024-.223-.036-2.461-.492-2.425.012-2.497.434-.152.023-.164-.012-2.637-.105h-.07l-.07-.012-2.403-.34-2.39.469-.235.047-.234-.024-2.555-.328-2.531.012-.012-.012-2.59.082h-.011l-2.637.059h-.023l-2.567.012.012.011-2.637.176-.187.012-2.625-.492-2.39.281-.13.012h-.129l-2.554-.141-2.555.164h-.129l-.129-.012-2.496-.281-2.461.27h-.07l-2.637.152-.152.012-.141-.024-2.543-.351-2.508.058h-.058l-2.637-.058v-.012h-2.637l-2.625-.047-2.496.223-.035.011h-.047l-2.637.094h-.117l-2.636-.105v-.012l-2.59-.012h-.047l-.047-.011-2.578-.176-2.532.129h-.082l-2.636-.012v-.012l-2.508.024-2.637.234-.14.012-.153-.012-2.531-.281-2.578.012v-.012l-2.543.176h-.012l-.012.011-2.648.118-.094.011-.082-.011-2.543-.188.012-.223V114.5h.21l1.53.123.03-2.027-.036-2.555-.187-2.637-.012-.199.047-.211.504-2.426-.106-2.496-.011-.234.07-.223.715-2.543.023-.082.036-.093 1.007-2.426.106-.235.164-.187 1.758-1.969 1.523-2.016.082-.117.106-.094 1.968-1.78.188-.176.234-.094 2.438-1.055 2.402-1.031.14-.059.141-.035 2.555-.562.188-.024 2.601-.234.129-.012.117.012 2.567.199.642-.021.276-1.616-.13-2.472-.187-2.637v-.094l-.012-2.637v-.093l.012-.082.27-2.508-.211-2.485-.012-.046v-.059l-.023-2.648v-.024l.023-2.555-.129-2.648v-.082l.012-.082.176-2.648.023-2.543v-.118l.023-.117.41-2.45.176-1.077 1.09-.153 2.543-.363h.035l.443-.052-.013-.127v-.047l-.012-.036-.117-2.648-.012-.094.012-.082.114-1.549h-.239l-.281-.117-2.203-.937-.434-.188-.246-.398-1.406-2.239-.082-.14-.059-.153-.527-1.476-.129-.164-1.711-2.05-.223-.27-.082-.34-.62-2.625-.212-.89.692-.599 2.027-1.722.293-.258.375-.07 2.566-.54.106-.023.117-.012 2.527-.133.106-1.322h-.012l.082-2.554.035-1.114 1.067-.293 1.657-.455-.005-.966.012-.012-.176-2.543v-.012l-.012-.012-.117-2.648-.012-.094.012-.082.188-2.543zm33.156 25.5.012.012-2.637.175h-.082l-2.074.012-.633.598.164 1.922v.105l.035 2.649v.023l-.023 2.637.117 2.566.012.082-.012.082-.176 2.649-.023 2.543v.046l-.105 2.649.044 1.158.084-.002.094-.011.106.011 2.636.27.364.035.304.2 1.781 1.16.68.433v.808l.035 2.614v.035l-.011 2.637.117 2.566.012.082-.012.094-.176 2.648-.023 2.543v.047l-.106 2.648.094 2.45.234 2.636v.165l-.047 2.636-.011 2.625v.024l-.059 2.636.059 2.59v.117l-.024.118-.351 2.484.152 2.437.281 2.625.012.165-.023.164-.293 2.554.164 2.485.011.105-.011.106-.07.81.171-.019.235-.036.222.047 2.45.457.507-.032.27-.997-.434-2.297-.047-.246.024-.234.34-2.555v-2.484l-.07-2.649-.071-2.636v-.012l-.047-2.637.012-.012-.223-2.53-.011-.177.023-.175.398-2.45-.363-2.379-.023-.14.011-.13.07-2.636-.14-2.508-.012-.152.024-.14.34-2.485-.176-2.484v-.024l-.164-2.625v-.14l.012-.13.292-2.53-.082-2.52v-.129l.118-2.566.011-2.649.012-2.531-.176-2.637v-.047l-.094-2.648v-.082l.06-2.555-.083-2.637v-.152l.176-2.637-.094-2.484v-.047l-.02-2.206-1.515-.071zm-7.77 22.965.012.011-2.625.247h-.058l-2.637.164h-.117l-.105-.012-1.847-.162-.017.084-.457 2.449.164 2.461v.082l.024 2.625.058 2.625.07 2.648v.036l.012 2.636v.094l-.011.106-.317 2.39.469 2.414.047.235-.035.246-.34 2.507-.106 2.485.422 2.484.024.117v.118l.023 2.636v.153l-.035.152-.48 2.402.257 2.438.012.129-.012.129-.187 2.472.363 2.485.035.199-.023.199-.328 2.543-.016.999.715.105 2.496-.164v.011l2.578-.281.152-.012.164.012 2.485.293 2.543-.152.082-.012.082.012 1.826.092.1-1.211-.153-2.52-.011-.129.023-.129.27-2.496-.258-2.461v-.058l-.164-2.649v-.152l.011-.141.352-2.543-.047-2.508v-.058l.059-2.614.011-2.648v-.012l.047-2.648-.222-2.484-.012-.036v-.035l-.094-2.636v-.118l.106-2.648.023-2.59v-.094l.176-2.578-.117-2.531v-.082l.011-2.613-.035-1.828-.797-.528-2.238-.222zm27.391-12.285.176 2.636v.094l.012 2.637.012.094-.012.082-.281 2.507.21 2.485.012.047v.058l.024 2.649v.023l-.012 2.637.117 2.566.012.082-.012.082-.176 2.649-.023 2.543v.047l-.105 2.648.093 2.438.235 2.648v.152l-.047 2.637-.012 2.625v.023l-.059 2.649.059 2.566v.13l-.012.116-.363 2.485.164 2.496.27 2.578.011.152-.011.164-.293 2.485.152 2.543.012.082-.012.082-.129 2.508.02.251 2.152-.417.246-.047.234.035 2.578.351 2.379.106 2.52-.434.012-.002-.125-.722-.024-.153.012-.164.129-2.566-.164-2.555-.012-.129.024-.129.269-2.484-.269-2.473v-.058l-.165-2.649-.011-.14.023-.153.34-2.53-.059-2.509v-.07l.047-2.613.012-2.637v-.012l.035-2.484-.234-2.648v-.07l-.106-2.638v-.128l.106-2.637.023-2.59v-.094l.176-2.566-.117-2.543v-.082l.023-2.614-.023-2.519-.223-2.648-.012-.141.012-.14.223-2.098-.914-1.371-2.016-1.008h-.012l-2.332-1.23-.187-.095-.152-.152-1.84-1.746-.094-.094.14-.142-.874.228-.551.14-.504-.269-.808-.412zm-79.671 45.871.105 2.426.012.187-.047.176-.492 2.402.175 2.461v.094l.036 2.637v.035l-.029 2.006.439-.02v-.012l2.636-.175h.094l2.637-.012.094-.012.082.012 2.508.281 2.484-.211.047-.012h.058l2.649-.023h.023l2.555.012 2.648-.118.082-.011.082.011 2.649.176-.012.012 2.555.012h.047l2.59.105 2.496-.082 2.648-.246h.152l.94.017-.014-.023-.023-.41-.14-2.613-.2-2.637-.012-.047v-.047l-.035-2.636v-.176l.246-2.356-.267-.858-.932-.075-2.508.117.012.012-2.649.175h-.082l-2.648.012-.082.012-.094-.012-2.52-.281-2.46.211-.059.012h-.059l-2.636.023h-.035l-2.567-.012-2.637.117-.082.012-.082-.012-2.636-.175v-.012l-2.567-.012h-.047l-2.566-.105-2.238.117-.074-1.336zm67.117-70.106.175 2.649v.094l.024 2.636v.082l-.012.094-.281 2.508.21 2.484.013.094-.012.105-.117 2.391.023 2.52.094 2.636v.082l-.012.07-.164 2.637.082 2.496v.07l-.058 2.65.093 2.507.164 2.637.012.058v.047l-.012 2.637-.011 2.648v.059L80.19 71.6l.082 2.52.012.105-.012.117-.304 2.484.152 2.52.188 2.648.011.153-.023.152-.352 2.484.153 2.496v.13l-.082 2.484.375 2.53.035.224-.035.234-.399 2.472.211 2.45v.094l.047 2.624.059 2.637.082 2.649v2.777l-.012.094-.328 2.39.468 2.414.06.34-.083.328-.111.414 1.502-.005v-.012l2.636-.059 2.637-.07h.035l2.47-.012.14-2.564-.164-2.543v-.129l.011-.129.282-2.496-.27-2.461v-.07l-.152-2.637-.012-.152.023-.141.352-2.543-.059-2.508v-.058l.059-2.614.012-2.648V90.7l.047-2.636-.223-2.485-.012-.035v-.047l-.093-2.637v-.117l.105-2.637.023-2.59v-.046l.012-.047.176-2.578-.129-2.532v-.082l.012-2.636h.011l-.035-2.496-.222-2.649-.012-.14.012-.153.28-2.531-.01-2.578-.165-2.543v-.012l-.012-.012-.117-2.648-.012-.094.012-.082.188-2.543.152.012h1.143l.287-.395.773.395h.645v.21l-.01.113 1.51.77.433-.105-.058-1.43v-.058l-.012-2.649v-.081l.012-.082.27-2.508-.212-2.485v-.117l-.023-2.437-.387-1.594-1.723-.914-.07-.035-.059-.047-2.12-1.442L88 34.9l-.012-.011-.023-.012-2.238-1.418h-.012l-2.145-1.137-2.414-1.113-.07-.035-.07-.047-1-.596zM39.992 57.623h-1.77v-.097l-1.613.183-1.453.21-.21 1.22-.012 2.554v.035l-.012.047-.176 2.567.117 2.543.012.035v.047l-.023 2.636.023 2.497.223 2.648.011.14-.011.153-.282 2.484.012 2.532.176 2.636v.024l.14 2.636v.165l-.023.164-.257 1.529 1.917.728.094.036.082.047 2.332 1.253.082.047.07.047 2.168 1.512.118.082.105.117 1.816 1.91.024.024 1.758 1.945.105.117.082.14 1.301 2.274.07.117.047.13.867 2.46.012.024.012.035.785 2.519.082.305-.023.305-.27 2.484.035 2.52.2 2.648v.024l.128 2.238.598.89.1.159h.709l2.601.058 1.632-.037.013-.855v-.082l.011-.082.305-2.485-.352-2.402-.023-.164.012-.164.187-2.52-.258-2.484-.023-.223.047-.222.48-2.52-.011-2.367-.422-2.496-.035-.153.011-.164.106-2.636v-.07l.011-.071.329-2.402-.457-2.391-.047-.234.023-.246.317-2.543V81.85l-.07-2.602-.06-2.648v-.012l-.023-2.555-.176-2.636-.011-.2.035-.187.445-2.39-.27-2.438-.011-.118v-.128l.14-2.567-.163-2.543v-.129l.011-.129.211-2.003-.562-.668-1.899.105h-.152l-.152-.024-2.567-.386-2.463.01.002.021h-1.77v-.092l-.949-.033v-.012l-2.601-.023-1.698-.023zM26.211 90.002l-2.379.516-2.25.984h-.012l-2.215.95-1.699 1.534-1.488 1.992-.035.047-.047.047-1.594 1.77-.728 1.753 1.697-.085h.129l2.648.105-.011.012 2.613.012h.035l.047.011 2.566.176 2.543-.129h.082l2.637.012-.012.012 2.52-.024v-.011l2.637-.223.152-.012.14.012 2.532.281 2.578-.012v.012l2.555-.176.023-.011 2.578-.115-.195-.545-1.149-2.028-1.664-1.84v-.011l-1.699-1.782-1.91-1.336-2.203-1.183-2.098-.809-2.32.082-.082.012-.082-.012-2.485-.199zm13.312-38.203.13 2.46.017.176 3.984.053-.002-.006-.117-2.648-.012-.094.012-.082.096-1.303h-1.748l-.082-.011-2.144-.21zm5.875-7.56.012.011-2.637.176h-.093l-2.637.011h-.094l-.082-.011-2.46-.282-2.497.212-.55.105.117.316 1.054 1.7 1.477.62 2.273-.011h.07l.083.012 2.554.258h2.496l1.97-.13 1.265-1.3 1.09-1.489-1.02-.316zm-3.07-6.598-2.531.304-.129.012-.14-.012-2.462-.187-2.46.129-2.028.433-1.043.89.328 1.384.914 1.113 1.7-.316.07-.012h.082l2.637-.223.14-.011.153.011 2.52.27h2.495l2.637-.176h.023l2.637-.129.258-.012.258.07 1.875.551.879-1.84-.094-1.253-1.43-.703-2.25-.27-2.543-.035zm-2.3-5.557-.036 1.453v.059l-.102 1.314 2.215-.246.07-.012h.083l1.445-.013-.172-2.11-.644-.715-1.711-.046z"/></svg>