<svg xmlns="http://www.w3.org/2000/svg" width="120" height="120" fill="none" viewBox="0 0 120 120"><path fill="#000" d="m69.856 30.053 2.638.21.218.018.202.078 2.407.927.483.186.265.443 1.365 2.278.017.03.017.03 1.203 2.237 1.473 2.123.112.162.067.186.802 2.23.634.711.213-.035 2.467-.408 2.49-.692.18-.051.185-.004 2.57-.066 2.545-.327.031-.004.032-.002 2.633-.228.114-.009.113.007 2.557.167 2.549-.137.07-.004.069.003 2.66.105.255.01.237.094 2.485.984.022.008 2.417 1 .287.12.217.223 1.773 1.83.239.247.107.328.799 2.42.102.307-.035.322-.285 2.653-.033.312-.156.274-1.334 2.328-.068.119-.09.106-1.72 2.027-.08.094-.094.08-1.979 1.675-1.847 1.817-.084.08-.095.07-2.128 1.52-2.049 1.604-.072.056-.077.047-2.196 1.323-2.04 1.556-.14.106-.162.071-2.352 1.04-2.1 1.25-2.02 1.6-.119.093-.133.068-2.357 1.198-.092.047-.098.033-2.34.808-2.06 1.365-.145.095-.162.061-2.37.88-2.21 1.25-.209.119-.235.046-2.502.5-2.218.89-2.215 1.292-.142.082-.155.05-2.516.811-.067.022-.07.015-2.361.52-2.093 1.259-.214.128-.242.053-2.53.547-2.419.807h-.001l-2.504.835-.039.012-2.527.765-.045.014-2.519.677-2.51.777-.193.059-.203.006-2.47.076-2.318.76-.13.043-.136.019-2.556.346-2.504.579-.144.034-.147.004-2.51.076-2.45.55-.056.014-.057.008-2.623.38-.172.024-.175-.016-2.564-.23-2.548.079-.064.003-.063-.004-2.631-.146-.041-.003-.04-.004-2.607-.288-.112-.012-.11-.03-2.515-.667-.073-.02-.073-.027-2.453-.927-.272-.105-.214-.198-1.947-1.8-.375-.346-.086-.502-.445-2.609-.05-.292.065-.29.581-2.563.06-.272.154-.23 1.452-2.175.023-.035.026-.034 1.58-2.1.06-.08.067-.07 1.845-1.88.03-.03.031-.029 1.94-1.76 1.946-1.803.136-.126.162-.09 2.271-1.245 2.15-1.405 2.122-1.506 2.16-1.54.241-.172.287-.067 1.762-.415-.17-1.934-.88-2.287-.089-.227-.01-.244-.119-2.622-.231-2.523-.425-2.383-.108-.606.348-.508 1.428-2.078.169-.245.249-.162 2.21-1.443.01-.005 2.22-1.426.107-.068.116-.05 2.302-.98 2.088-1.411.184-.126.214-.064 2.37-.73 2.116-1.28.044-.027.046-.024 2.356-1.212.12-.062.128-.04 2.537-.776 2.491-.762 2.447-.887.003-.002 2.49-.892.06-.021.059-.016 2.552-.684.029-.007.03-.007 2.532-.57 2.501-.728.155-.045.159-.01 2.544-.18 2.502-.52.212-.045zm22.916 13.244-2.597.335-.076.01-.079.002-2.466.062-2.384.664-.078.023-.08.012-1.382.229-.054.788.755 1.937 1.382 2.073.157.235.06.276.572 2.603.08.36-.098.354-.606 2.24-.097.36-.254.272-1.813 1.944-.126.134-.154.1-2.228 1.447-.05.033-.054.03-2.251 1.212-2.094 1.467-.109.075-.12.056-2.326 1.079-2.205 1.316-.014.008-.014.009-2.308 1.308-.113.065-.123.044-2.421.86-2.31 1.12-.055.027-.058.022-2.467.955-.125.05-.133.025-2.53.486-2.361.795h.002l-2.48.91-.025.009-2.501.869-.108.037-.113.02-2.604.48-.055.01-.057.007-2.53.27-2.475.6-.07.016-.068.011-2.612.379-.09.013-.088.003-2.634.065h-.002l-2.654.063-.625.014-.451-.433-1.785-1.72-.3-.288-.108-.404-.659-2.464-.844-2.462-.016-.047L31 66.71l-.682-2.515-.088-.32-1.472.346-1.921 1.37-.002.002-2.156 1.53-.024.017-.024.016-2.207 1.442-.048.032-.05.027-2.167 1.187-1.81 1.678-.006.006-.006.005-1.915 1.737-1.747 1.78-1.495 1.99-1.276 1.91-.453 2.002.31 1.812 1.357 1.255 2.109.798 2.33.619 2.457.271 2.52.14 2.575-.078.09-.002.09.007 2.48.221 2.386-.346 2.537-.568.14-.032.143-.004 2.508-.077 2.431-.56.067-.016.069-.01 2.483-.337 2.394-.785.206-.068.217-.006 2.482-.077 2.336-.72.025-.01.027-.007 2.538-.683 2.467-.748 2.493-.83 2.503-.834.077-.026.08-.017 2.36-.512 2.09-1.257.211-.127.24-.053 2.535-.557 2.29-.74 2.171-1.264.095-.057.104-.04 2.446-.98.129-.052.136-.029 2.399-.48 2.105-1.19.106-.06.112-.041 2.32-.86 2.08-1.377.158-.105.18-.062 2.419-.835 2.133-1.085 1.983-1.568.077-.061.085-.051 2.264-1.348.078-.046.083-.037 2.27-1.004 1.967-1.497.064-.05.07-.04 2.18-1.316 2.015-1.573.025-.02.026-.018 2.053-1.47 1.8-1.769.04-.038.042-.037 1.927-1.631 1.554-1.832 1.107-1.935.217-2.016-.589-1.788-1.318-1.36-2.107-.871-2.248-.89-2.334-.093-2.574.139-.09.006-.09-.006-2.529-.168zm-11.885 6.98-1.841 1.696-.008.008-1.96 1.78-.084.076-.094.062-2.205 1.467-.1.067-.11.05-2.314 1.048-2.113 1.39-.072.047-.076.039-2.36 1.19-.038.019-.04.017-2.405 1.044.001.001-2.41 1.09-.096.043-.101.03-2.505.734-2.485.832-.04.014-.04.01-2.514.692-2.43.807-2.5.892-.095.034-.101.02-2.59.543-.018.004-.018.003-2.603.478-.044.008-.043.006-2.625.326v-.001l-2.616.339-.14.018-.142-.009-2.528-.154-2.024.234.37 1.08.016.048.015.05.56 2.102 1.035.995 2.026-.048 2.542-.063 2.45-.355 2.504-.606.096-.023.097-.01 2.581-.278 2.431-.448 2.39-.831 2.46-.902.039-.013 2.499-.842.095-.031.1-.02 2.49-.478 2.285-.886 2.328-1.129.075-.035.077-.028 2.372-.843 2.176-1.235 2.262-1.35.068-.04.071-.032 2.275-1.056 2.057-1.44.071-.05.077-.04 2.271-1.225 2.023-1.315 1.435-1.537.413-1.527-.431-1.968-.914-1.37zm-7.01-13.553-1.967 1.718-.033.029-.036.027-2.092 1.621-.076.059-.082.049-2.282 1.34-.109.064-.119.045-2.374.902-2.198 1.253-.067.037-.07.032-2.417 1.067-.023.01-.025.01-2.438.975L55.062 47l-.093.041-2.614.728-2.477.815-.031.01-.03.008-2.502.706-2.46.84h-.002l-2.478.887-.108.04-.114.022-2.602.5-.038.008-.037.005-2.625.367-.067.01-.066.003-2.647.134-.03.002h-.03l-2.65.026-.118.002-.089-.013.115 1.247.003.034v.034l.11 2.425.87 2.257.076.198.02.21.217 2.499.648 2.361v.004l.257.946.076-.01 2.625-.302.13-.016.133.008 2.52.151 2.479-.32h.007l2.59-.323 2.525-.464 2.483-.52 2.402-.855.03-.01 2.505-.833.037-.012.038-.011 2.515-.692 2.456-.822.028-.01.026-.008 2.439-.714 2.319-1.05.02-.008 2.386-1.038 2.238-1.128 2.147-1.409.097-.065.106-.047 2.309-1.048 2.012-1.34 1.874-1.7 1.937-1.786.105-.096.12-.075 1.691-1.052-.215-.553-.12-.311.021-.335.03-.447-.262-.295-1.639-1.844-.192-.217-.098-.272-.834-2.316-1.406-2.027-.048-.069-.04-.074-1.144-2.128zm-6.432-3.165-.1.02-.102.007-2.49.175-2.39.695-.045.012-.044.01-2.539.572-2.472.662-2.433.872v-.001l-2.477.9-.036.012-.036.01-2.526.774-2.41.738-2.195 1.128-2.227 1.35-.157.094-.177.055-2.337.72-2.019 1.364-.119.082-.133.055-2.316.987-2.11 1.353.002.001-1.962 1.277-.911 1.329.04.233.726.107 2.488-.026 2.564-.129 2.524-.353 2.447-.473 2.39-.855.011-.003.01-.003 2.498-.854.038-.014.04-.011 2.52-.71 2.467-.813.034-.01.033-.01 2.458-.685 2.33-1.006.039-.015 2.434-.974 2.318-1.024 2.231-1.27.102-.058.108-.041 2.36-.897 2.093-1.23 1.977-1.53 1.954-1.707.017-.016.02-.014 1.009-.828-.924-.356-2.21-.177z"/></svg>