<svg width="120" height="120" viewBox="0 0 120 120" fill="none" xmlns="http://www.w3.org/2000/svg">
<path d="M105.969 30.9486L104.606 30.3231L104.53 30.4874L104.496 30.6649L105.969 30.9486ZM107.006 28.6886L105.737 27.8883L105.684 27.9725L105.643 28.0631L107.006 28.6886ZM108.423 26.4432L109.691 27.2436L109.878 26.9475L109.914 26.5993L108.423 26.4432ZM108.699 23.8037L110.191 23.9598L110.209 23.7819L110.185 23.6046L108.699 23.8037ZM108.355 21.234L109.841 21.0349L109.827 20.9264L109.797 20.8211L108.355 21.234ZM107.634 18.7161L109.076 18.3033L109.019 18.1033L108.909 17.9265L107.634 18.7161ZM106.244 16.4711L107.519 15.6815L107.408 15.5015L107.251 15.3594L106.244 16.4711ZM104.301 14.7111L105.308 13.5993L105.217 13.5172L105.114 13.4508L104.301 14.7111ZM102.12 13.3035L102.934 12.0433L102.815 11.9665L102.684 11.9133L102.12 13.3035ZM99.6502 12.3029L100.213 10.9126L99.8483 10.7647L99.4576 10.8153L99.6502 12.3029ZM97.0011 12.6459L97.1896 14.134L97.1938 14.1335L97.0011 12.6459ZM94.4137 12.9737L94.2252 11.4855L93.9896 11.5154L93.7748 11.6165L94.4137 12.9737ZM92.0487 14.0869L92.6088 15.4784L92.6487 15.4624L92.6876 15.4441L92.0487 14.0869ZM89.5964 15.074L89.9388 16.5344L90.0503 16.5083L90.1565 16.4655L89.5964 15.074ZM87.073 15.6655L86.6254 17.0972L87.0164 17.2194L87.4154 17.1259L87.073 15.6655ZM84.5539 14.8778L85.0015 13.4462L84.9542 13.4313L84.9059 13.4197L84.5539 14.8778ZM82.0414 14.2711L82.3935 12.813L82.3785 12.8094L82.3634 12.8061L82.0414 14.2711ZM79.438 13.6989L79.76 12.2339L79.3648 12.147L78.9795 12.2707L79.438 13.6989ZM76.8887 14.5174L77.1046 16.0017L77.2283 15.9837L77.3473 15.9455L76.8887 14.5174ZM74.2755 14.8974L74.0596 13.4131L73.8534 13.4431L73.6632 13.5281L74.2755 14.8974ZM71.8764 15.9703L72.4162 17.3698L72.4529 17.3557L72.4888 17.3396L71.8764 15.9703ZM69.3871 16.9305L68.8473 15.531L68.5456 15.6473L68.3187 15.8777L69.3871 16.9305ZM67.5027 18.8429L68.3603 20.0736L68.4739 19.9944L68.5712 19.8957L67.5027 18.8429ZM65.3387 20.3508L64.4811 19.1201L64.458 19.1362L64.4355 19.1532L65.3387 20.3508ZM63.2299 21.941L62.3268 20.7434L62.3054 20.7595L62.2847 20.7763L63.2299 21.941ZM61.1797 23.6048L61.9526 24.8904L62.043 24.836L62.1249 24.7696L61.1797 23.6048ZM58.8997 24.9756L58.1268 23.6901L57.9883 23.7734L57.8706 23.8844L58.8997 24.9756ZM56.9711 26.7945L57.9057 27.9677L57.9547 27.9287L58.0002 27.8857L56.9711 26.7945ZM54.9061 28.4394L55.6933 29.7163L55.7701 29.6689L55.8408 29.6127L54.9061 28.4394ZM52.6445 29.8337L51.8573 28.5568L51.6889 28.6606L51.5532 28.8046L52.6445 29.8337ZM50.8128 31.7759L51.6805 32.9994L51.8019 32.9133L51.904 32.8051L50.8128 31.7759ZM48.6568 33.3049L49.5153 34.535L49.5246 34.5285L48.6568 33.3049ZM46.4883 34.8183L45.6299 33.5882L45.5448 33.6476L45.4686 33.7182L46.4883 34.8183ZM44.5459 36.6189L45.4825 37.7906L45.5254 37.7563L45.5657 37.719L44.5459 36.6189ZM42.4838 38.2672L43.2466 39.5588L43.3377 39.505L43.4203 39.4389L42.4838 38.2672ZM40.1898 39.6222L39.4269 38.3307L39.2221 38.4517L39.0647 38.6302L40.1898 39.6222ZM38.4155 41.6346L39.1437 42.9459L39.3697 42.8204L39.5406 42.6266L38.4155 41.6346ZM36.0764 42.9336L35.3482 41.6222L35.2232 41.6916L35.1136 41.7833L36.0764 42.9336ZM34.0512 44.6288L33.0884 43.4785L33.0153 43.5397L32.9506 43.6096L34.0512 44.6288ZM32.2367 46.5882L33.1683 47.7638L33.2588 47.6921L33.3373 47.6073L32.2367 46.5882ZM30.1679 48.2276L30.9261 49.5219L31.0169 49.4686L31.0995 49.4032L30.1679 48.2276ZM27.8658 49.5762L27.1076 48.2819L26.9759 48.3591L26.8625 48.4612L27.8658 49.5762ZM25.9002 51.345L26.8474 52.5082L26.8761 52.4848L26.9036 52.46L25.9002 51.345ZM23.8531 53.012L24.7638 54.2038L24.7822 54.1898L24.8002 54.1751L23.8531 53.012ZM21.7545 54.6154L20.8438 53.4235L20.8343 53.4309L21.7545 54.6154ZM19.6692 56.2356L20.5825 57.4255L20.5895 57.4201L19.6692 56.2356ZM17.5633 57.8519L16.65 56.662L16.5253 56.7578L16.4231 56.8773L17.5633 57.8519ZM15.8337 59.8755L16.843 60.9851L16.9127 60.9217L16.9739 60.8501L15.8337 59.8755ZM13.8856 61.6475L12.8763 60.5378L12.7673 60.637L12.6797 60.7554L13.8856 61.6475ZM12.3143 63.7715L13.4067 64.7995L13.4674 64.7349L13.5202 64.6636L12.3143 63.7715ZM10.4989 65.7008L9.4065 64.6728L9.28528 64.8017L9.19736 64.9551L10.4989 65.7008ZM9.18756 67.9898L7.886 67.2442L7.85498 67.2984L7.82856 67.3549L9.18756 67.9898ZM8.06952 70.3829L6.71052 69.748L6.65357 69.8699L6.61922 70L8.06952 70.3829ZM7.39894 72.9228L5.94863 72.5399L5.93174 72.6039L5.92055 72.6691L7.39894 72.9228ZM6.9562 75.5029L5.47781 75.2492L5.45411 75.3873L5.4564 75.5274L6.9562 75.5029ZM6.99897 78.1226L5.49917 78.1471L5.50208 78.3257L5.54689 78.4987L6.99897 78.1226ZM7.65833 80.668L6.20625 81.0441L6.27339 81.3033L6.42602 81.5232L7.65833 80.668ZM8.9963 82.5959L10.059 83.6545L10.9418 82.7683L10.2286 81.7407L8.9963 82.5959ZM105.95 31.0468L107.423 31.3305L107.442 31.2323L105.969 30.9486L104.496 30.6649L104.477 30.7631L105.95 31.0468ZM105.969 30.9486L107.332 31.5741L108.369 29.3141L107.006 28.6886L105.643 28.0631L104.606 30.3231L105.969 30.9486ZM107.006 28.6886L108.275 29.489L109.691 27.2436L108.423 26.4432L107.154 25.6429L105.737 27.8883L107.006 28.6886ZM108.423 26.4432L109.914 26.5993L110.191 23.9598L108.699 23.8037L107.207 23.6475L106.931 26.2871L108.423 26.4432ZM108.699 23.8037L110.185 23.6046L109.841 21.0349L108.355 21.234L106.868 21.433L107.212 24.0028L108.699 23.8037ZM108.355 21.234L109.797 20.8211L109.076 18.3033L107.634 18.7161L106.192 19.129L106.913 21.6468L108.355 21.234ZM107.634 18.7161L108.909 17.9265L107.519 15.6815L106.244 16.4711L104.968 17.2608L106.358 19.5058L107.634 18.7161ZM106.244 16.4711L107.251 15.3594L105.308 13.5993L104.301 14.7111L103.294 15.8228L105.237 17.5828L106.244 16.4711ZM104.301 14.7111L105.114 13.4508L102.934 12.0433L102.12 13.3035L101.307 14.5637L103.487 15.9713L104.301 14.7111ZM102.12 13.3035L102.684 11.9133L100.213 10.9126L99.6502 12.3029L99.087 13.6931L101.557 14.6938L102.12 13.3035ZM99.6502 12.3029L99.4576 10.8153L96.8085 11.1584L97.0011 12.6459L97.1938 14.1335L99.8429 13.7904L99.6502 12.3029ZM97.0011 12.6459L96.8127 11.1578L94.2252 11.4855L94.4137 12.9737L94.6021 14.4618L97.1896 14.134L97.0011 12.6459ZM94.4137 12.9737L93.7748 11.6165L91.4099 12.7298L92.0487 14.0869L92.6876 15.4441L95.0525 14.3308L94.4137 12.9737ZM92.0487 14.0869L91.4887 12.6954L89.0363 13.6825L89.5964 15.074L90.1565 16.4655L92.6088 15.4784L92.0487 14.0869ZM89.5964 15.074L89.2541 13.6136L86.7307 14.2051L87.073 15.6655L87.4154 17.1259L89.9388 16.5344L89.5964 15.074ZM87.073 15.6655L87.5207 14.2339L85.0015 13.4462L84.5539 14.8778L84.1062 16.3094L86.6254 17.0972L87.073 15.6655ZM84.5539 14.8778L84.9059 13.4197L82.3935 12.813L82.0414 14.2711L81.6893 15.7292L84.2018 16.3359L84.5539 14.8778ZM82.0414 14.2711L82.3634 12.8061L79.76 12.2339L79.438 13.6989L79.116 15.1639L81.7194 15.7361L82.0414 14.2711ZM79.438 13.6989L78.9795 12.2707L76.4302 13.0892L76.8887 14.5174L77.3473 15.9455L79.8966 15.1271L79.438 13.6989ZM76.8887 14.5174L76.6728 13.033L74.0596 13.4131L74.2755 14.8974L74.4914 16.3818L77.1046 16.0017L76.8887 14.5174ZM74.2755 14.8974L73.6632 13.5281L71.2641 14.601L71.8764 15.9703L72.4888 17.3396L74.8879 16.2667L74.2755 14.8974ZM71.8764 15.9703L71.3366 14.5708L68.8473 15.531L69.3871 16.9305L69.9269 18.33L72.4162 17.3698L71.8764 15.9703ZM69.3871 16.9305L68.3187 15.8777L66.4343 17.7901L67.5027 18.8429L68.5712 19.8957L70.4556 17.9833L69.3871 16.9305ZM67.5027 18.8429L66.6452 17.6122L64.4811 19.1201L65.3387 20.3508L66.1962 21.5815L68.3603 20.0736L67.5027 18.8429ZM65.3387 20.3508L64.4355 19.1532L62.3268 20.7434L63.2299 21.941L64.133 23.1387L66.2418 21.5485L65.3387 20.3508ZM63.2299 21.941L62.2847 20.7763L60.2345 22.4401L61.1797 23.6048L62.1249 24.7696L64.1751 23.1058L63.2299 21.941ZM61.1797 23.6048L60.4068 22.3193L58.1268 23.6901L58.8997 24.9756L59.6727 26.2612L61.9526 24.8904L61.1797 23.6048ZM58.8997 24.9756L57.8706 23.8844L55.942 25.7032L56.9711 26.7945L58.0002 27.8857L59.9289 26.0669L58.8997 24.9756ZM56.9711 26.7945L56.0365 25.6212L53.9715 27.2662L54.9061 28.4394L55.8408 29.6127L57.9057 27.9677L56.9711 26.7945ZM54.9061 28.4394L54.119 27.1626L51.8573 28.5568L52.6445 29.8337L53.4316 31.1106L55.6933 29.7163L54.9061 28.4394ZM52.6445 29.8337L51.5532 28.8046L49.7215 30.7467L50.8128 31.7759L51.904 32.8051L53.7357 30.8629L52.6445 29.8337ZM50.8128 31.7759L49.9451 30.5524L47.7891 32.0814L48.6568 33.3049L49.5246 34.5285L51.6805 32.9994L50.8128 31.7759ZM48.6568 33.3049L47.7984 32.0749L45.6299 33.5882L46.4883 34.8183L47.3468 36.0483L49.5153 34.535L48.6568 33.3049ZM46.4883 34.8183L45.4686 33.7182L43.5262 35.5189L44.5459 36.6189L45.5657 37.719L47.5081 35.9183L46.4883 34.8183ZM44.5459 36.6189L43.6094 35.4472L41.5472 37.0955L42.4838 38.2672L43.4203 39.4389L45.4825 37.7906L44.5459 36.6189ZM42.4838 38.2672L41.7209 36.9757L39.4269 38.3307L40.1898 39.6222L40.9527 40.9137L43.2466 39.5588L42.4838 38.2672ZM40.1898 39.6222L39.0647 38.6302L37.2904 40.6425L38.4155 41.6346L39.5406 42.6266L41.3149 40.6142L40.1898 39.6222ZM38.4155 41.6346L37.6872 40.3232L35.3482 41.6222L36.0764 42.9336L36.8047 44.2449L39.1437 42.9459L38.4155 41.6346ZM36.0764 42.9336L35.1136 41.7833L33.0884 43.4785L34.0512 44.6288L35.014 45.779L37.0392 44.0838L36.0764 42.9336ZM34.0512 44.6288L32.9506 43.6096L31.1361 45.569L32.2367 46.5882L33.3373 47.6073L35.1518 45.6479L34.0512 44.6288ZM32.2367 46.5882L31.3051 45.4125L29.2362 47.052L30.1679 48.2276L31.0995 49.4032L33.1683 47.7638L32.2367 46.5882ZM30.1679 48.2276L29.4096 46.9333L27.1076 48.2819L27.8658 49.5762L28.624 50.8704L30.9261 49.5219L30.1679 48.2276ZM27.8658 49.5762L26.8625 48.4612L24.8969 50.23L25.9002 51.345L26.9036 52.46L28.8692 50.6912L27.8658 49.5762ZM25.9002 51.345L24.9531 50.1818L22.9059 51.8488L23.8531 53.012L24.8002 54.1751L26.8474 52.5082L25.9002 51.345ZM23.8531 53.012L22.9423 51.8201L20.8438 53.4236L21.7545 54.6154L22.6653 55.8073L24.7638 54.2038L23.8531 53.012ZM21.7545 54.6154L20.8343 53.4309L18.7489 55.0511L19.6692 56.2356L20.5895 57.4201L22.6748 55.8L21.7545 54.6154ZM19.6692 56.2356L18.7559 55.0457L16.65 56.662L17.5633 57.8519L18.4766 59.0419L20.5825 57.4255L19.6692 56.2356ZM17.5633 57.8519L16.4231 56.8773L14.6935 58.9009L15.8337 59.8755L16.9739 60.8501L18.7036 58.8266L17.5633 57.8519ZM15.8337 59.8755L14.8244 58.7659L12.8763 60.5378L13.8856 61.6475L14.895 62.7571L16.843 60.9851L15.8337 59.8755ZM13.8856 61.6475L12.6797 60.7554L11.1084 62.8794L12.3143 63.7715L13.5202 64.6636L15.0915 62.5396L13.8856 61.6475ZM12.3143 63.7715L11.2219 62.7436L9.4065 64.6728L10.4989 65.7008L11.5913 66.7287L13.4067 64.7995L12.3143 63.7715ZM10.4989 65.7008L9.19736 64.9551L7.886 67.2442L9.18756 67.9898L10.4891 68.7355L11.8005 66.4464L10.4989 65.7008ZM9.18756 67.9898L7.82856 67.3549L6.71052 69.748L8.06952 70.3829L9.42852 71.0178L10.5466 68.6248L9.18756 67.9898ZM8.06952 70.3829L6.61922 70L5.94863 72.5399L7.39894 72.9228L8.84924 73.3057L9.51983 70.7658L8.06952 70.3829ZM7.39894 72.9228L5.92055 72.6691L5.47781 75.2492L6.9562 75.5029L8.43459 75.7566L8.87733 73.1765L7.39894 72.9228ZM6.9562 75.5029L5.4564 75.5274L5.49917 78.1471L6.99897 78.1226L8.49877 78.0981L8.456 75.4784L6.9562 75.5029ZM6.99897 78.1226L5.54689 78.4987L6.20625 81.0441L7.65833 80.668L9.1104 80.2918L8.45104 77.7464L6.99897 78.1226ZM7.65833 80.668L6.42602 81.5232L7.76399 83.4511L8.9963 82.5959L10.2286 81.7407L8.89064 79.8128L7.65833 80.668ZM8.9963 82.5959L7.93357 81.5373L7.86257 81.6086L8.9253 82.6672L9.98803 83.7257L10.059 83.6545L8.9963 82.5959Z" fill="black"/>
<path d="M90.4155 14.7181L89.561 13.4853L89.559 13.4867L90.4155 14.7181ZM88.3289 16.1694L89.0044 17.5086L89.0987 17.4611L89.1854 17.4008L88.3289 16.1694ZM85.9571 17.3657L85.2816 16.0264L85.1212 16.1073L84.9844 16.2238L85.9571 17.3657ZM83.9526 19.0732L84.9099 20.228L84.9176 20.2216L84.9253 20.2151L83.9526 19.0732ZM81.919 20.759L82.7366 22.0166L82.8094 21.9692L82.8763 21.9138L81.919 20.759ZM79.6977 22.2031L78.8801 20.9455L78.8324 20.9765L78.7871 21.0111L79.6977 22.2031ZM77.5984 23.8067L76.6879 22.6147L76.6422 22.6496L76.5993 22.6879L77.5984 23.8067ZM75.6231 25.5707L76.5074 26.7824L76.5671 26.7388L76.6222 26.6896L75.6231 25.5707ZM73.4882 27.1289L74.2622 28.4138L74.3189 28.3796L74.3725 28.3405L73.4882 27.1289ZM71.2084 28.5023L70.4343 27.2174L70.2524 27.327L70.108 27.4829L71.2084 28.5023ZM69.3874 30.4678L70.2457 31.698L70.3781 31.6056L70.4878 31.4872L69.3874 30.4678ZM67.2156 31.9831L66.3573 30.7529L66.2839 30.8041L66.2171 30.8637L67.2156 31.9831ZM65.2443 33.7415L66.0186 35.0262L66.1384 34.954L66.2427 34.8609L65.2443 33.7415ZM62.9674 35.1139L62.1931 33.8292L62.0932 33.8894L62.0038 33.9644L62.9674 35.1139ZM60.9424 36.8115L59.9788 35.6619L59.9784 35.6623L60.9424 36.8115ZM58.9172 38.5103L57.9532 37.3611L57.9355 37.3759L57.9183 37.3912L58.9172 38.5103ZM56.9428 40.2727L57.6522 41.5943L57.809 41.5102L57.9417 41.3917L56.9428 40.2727ZM54.5806 41.5407L53.8711 40.2191L53.6377 40.3444L53.4613 40.5421L54.5806 41.5407ZM52.7955 43.5416L53.6121 44.7999L53.7808 44.6903L53.9148 44.5402L52.7955 43.5416ZM50.5698 44.9861L49.7532 43.7279L49.6594 43.7888L49.5756 43.863L50.5698 44.9861ZM48.5897 46.7391L49.3473 48.0337L49.474 47.9595L49.5839 47.8622L48.5897 46.7391ZM46.289 48.0855L45.5314 46.7909L45.3178 46.9159L45.1557 47.1029L46.289 48.0855ZM44.5305 50.1137L45.4045 51.3327L45.5481 51.2298L45.6638 51.0963L44.5305 50.1137ZM42.379 51.6563L41.5049 50.4373L41.4854 50.4512L41.4664 50.4659L42.379 51.6563ZM40.2808 53.2648L39.3682 52.0743L39.3446 52.0924L39.3218 52.1114L40.2808 53.2648ZM38.249 54.9541L39.0395 56.2289L39.128 56.174L39.208 56.1075L38.249 54.9541ZM35.9873 56.3566L35.1968 55.0818L35.0582 55.1677L34.9413 55.2815L35.9873 56.3566ZM34.0871 58.2054L35.0423 59.3619L35.0894 59.323L35.1331 59.2805L34.0871 58.2054ZM32.0516 59.8866L32.8644 61.1473L32.9387 61.0994L33.0069 61.0431L32.0516 59.8866ZM29.8174 61.327L29.0046 60.0663L28.8367 60.1745L28.7029 60.323L29.8174 61.327ZM28.0282 63.3129L28.9283 64.5128L29.045 64.4253L29.1427 64.3169L28.0282 63.3129ZM25.9106 64.9014L26.8074 66.1038L26.8107 66.1013L25.9106 64.9014ZM23.7909 66.4822L22.8942 65.2798L22.8063 65.3454L22.7289 65.423L23.7909 66.4822ZM21.931 68.347L22.9262 69.4693L22.9606 69.4389L22.993 69.4063L21.931 68.347ZM19.9444 70.1087L20.8093 71.3342L20.8773 71.2862L20.9396 71.231L19.9444 70.1087ZM17.7793 71.6366L16.9144 70.4111L16.6915 70.5684L16.5383 70.7941L17.7793 71.6366ZM16.2691 73.8611L17.1876 75.047L17.3762 74.901L17.5102 74.7036L16.2691 73.8611ZM14.1527 75.5001L13.2343 74.3141L13.102 74.4166L12.9955 74.5456L14.1527 75.5001ZM12.469 77.5415L11.3118 76.5871L11.2305 76.6857L11.167 76.7966L12.469 77.5415ZM11.1468 79.8525L12.3716 80.7184L12.4131 80.6597L12.4488 80.5974L11.1468 79.8525ZM9.63079 81.9968L10.804 82.9314L10.8308 82.8978L10.8556 82.8627L9.63079 81.9968ZM7.97225 84.0787L6.79903 83.144L6.6461 83.336L6.56233 83.5667L7.97225 84.0787ZM7.06734 86.5705L5.65743 86.0585L5.62468 86.1487L5.60369 86.2423L7.06734 86.5705ZM6.49157 89.1381L5.02792 88.8099L4.9956 88.954L4.99201 89.1017L6.49157 89.1381ZM6.42747 91.7747L4.92791 91.7382L4.9238 91.9073L4.95746 92.0731L6.42747 91.7747ZM6.95475 94.372L5.48474 94.6704L5.50663 94.7782L5.54401 94.8817L6.95475 94.372ZM7.86179 96.8824L6.45105 97.3921L6.54043 97.6395L6.70866 97.8417L7.86179 96.8824ZM9.56243 98.9266L8.4093 99.886L8.43453 99.9163L8.46133 99.9452L9.56243 98.9266ZM11.3374 100.845L10.2363 101.864L10.4422 102.087L10.7184 102.212L11.3374 100.845ZM13.7094 101.92L13.0904 103.286L13.1351 103.306L13.1809 103.324L13.7094 101.92ZM16.1692 102.846L15.6408 104.25L15.9014 104.348L16.1798 104.346L16.1692 102.846ZM18.8128 102.827L18.8234 104.327L18.9504 104.326L19.0753 104.304L18.8128 102.827ZM21.4087 102.366L22.3073 101.165L21.7865 100.775L21.1462 100.889L21.4087 102.366ZM23.4557 103.897L24.3696 102.708L24.362 102.702L24.3543 102.696L23.4557 103.897ZM25.5356 105.496L24.6216 106.685L24.704 106.748L24.7943 106.8L25.5356 105.496ZM27.8217 106.795L27.0804 108.099L27.1775 108.154L27.2817 108.195L27.8217 106.795ZM30.2788 107.743L29.7389 109.143L29.866 109.192L30 109.217L30.2788 107.743ZM32.866 108.233L32.5872 109.706L32.6784 109.724L32.771 109.73L32.866 108.233ZM35.4834 108.399L35.3883 109.896L35.4445 109.899L35.5008 109.899L35.4834 108.399ZM38.103 108.368L38.1204 109.868L38.1898 109.867L38.2589 109.86L38.103 108.368ZM40.7135 108.096L40.8694 109.587L40.8698 109.587L40.7135 108.096ZM43.3596 107.818L43.5159 109.31L43.6879 109.292L43.8513 109.236L43.3596 107.818ZM45.8666 106.949L46.3583 108.366L46.4783 108.324L46.5895 108.263L45.8666 106.949ZM48.1893 105.671L47.473 104.353L47.4664 104.357L48.1893 105.671ZM50.4949 104.418L51.2113 105.736L51.2343 105.723L51.2569 105.71L50.4949 104.418ZM52.7465 103.09L53.5084 104.382L53.567 104.348L53.6223 104.308L52.7465 103.09ZM54.898 101.543L55.7738 102.761L55.7889 102.75L55.8036 102.739L54.898 101.543ZM57.0016 99.9501L57.9072 101.146L57.9126 101.142L57.0016 99.9501ZM59.1093 98.3391L60.0202 99.5308L60.0543 99.5047L60.0869 99.4767L59.1093 98.3391ZM61.1072 96.6222L60.1823 95.4413L60.1555 95.4623L60.1296 95.4846L61.1072 96.6222ZM63.1906 94.9905L62.299 93.7842L62.2822 93.7967L62.2657 93.8096L63.1906 94.9905ZM65.3212 93.4155L66.2129 94.6217L66.3108 94.5493L66.3958 94.4621L65.3212 93.4155ZM67.1731 91.5142L66.1593 90.4086L66.1281 90.4372L66.0985 90.4676L67.1731 91.5142ZM69.1216 89.7276L68.2276 88.5232L68.1652 88.5695L68.1079 88.622L69.1216 89.7276ZM71.244 88.1523L72.138 89.3568L72.1593 89.3411L72.1799 89.3246L71.244 88.1523ZM73.3082 86.5044L74.2441 87.6766L74.2603 87.6637L74.2761 87.6503L73.3082 86.5044ZM75.3264 84.7999L74.37 83.6443L74.3642 83.6491L74.3585 83.6539L75.3264 84.7999ZM77.3612 83.1159L76.533 81.8652L76.4664 81.9093L76.4049 81.9603L77.3612 83.1159ZM79.5751 81.6497L80.4034 82.9003L80.5237 82.8206L80.6266 82.7194L79.5751 81.6497ZM81.466 79.791L80.5348 78.615L80.4718 78.6649L80.4145 78.7213L81.466 79.791ZM83.5368 78.1512L84.468 79.3272L84.4843 79.3143L84.5003 79.3009L83.5368 78.1512ZM85.5605 76.4551L84.6202 75.2864L84.6085 75.2958L84.597 75.3055L85.5605 76.4551ZM87.6174 74.8L86.742 73.5819L86.7088 73.6058L86.677 73.6313L87.6174 74.8ZM89.7652 73.2563L90.6406 74.4743L90.7872 74.369L90.9046 74.2319L89.7652 73.2563ZM91.5086 71.22L90.7772 69.9105L90.5434 70.0411L90.3692 70.2445L91.5086 71.22ZM93.8574 69.9081L94.5889 71.2177L94.7167 71.1463L94.8283 71.0515L93.8574 69.9081ZM95.873 68.1966L96.8439 69.34L96.8872 69.3032L96.9277 69.2632L95.873 68.1966ZM97.7559 66.3345L96.7159 65.2536L96.7085 65.2607L96.7012 65.2679L97.7559 66.3345ZM99.6584 64.5039L98.6924 63.3564L98.6543 63.3885L98.6184 63.423L99.6584 64.5039ZM101.687 62.7964L102.653 63.9439L102.672 63.928L102.69 63.9115L101.687 62.7964ZM103.631 61.047L102.744 59.8376L102.684 59.8818L102.628 59.9319L103.631 61.047ZM105.786 59.4663L106.673 60.6757L106.855 60.5424L106.989 60.3616L105.786 59.4663ZM107.37 57.3369L106.178 56.4256L106.172 56.4335L106.166 56.4416L107.37 57.3369ZM108.98 55.2321L110.171 56.1435L110.255 56.0332L110.318 55.9093L108.98 55.2321ZM110.176 52.8671L111.515 53.5442L111.523 53.5276L111.531 53.5108L110.176 52.8671ZM111.311 50.4795L112.665 51.1233L112.746 50.9542L112.782 50.7706L111.311 50.4795ZM111.824 47.8871L110.413 47.3757L110.374 47.4835L110.352 47.596L111.824 47.8871ZM112.737 45.3672L114.148 45.8786L114.263 45.5591L114.23 45.2209L112.737 45.3672ZM112.477 42.7121L110.983 42.8452L110.984 42.8585L112.477 42.7121ZM112.243 40.0898L113.737 39.9567L113.723 39.7982L113.676 39.6462L112.243 40.0898ZM111.462 37.5648L112.895 37.1212L112.824 36.8946L112.688 36.7008L111.462 37.5648ZM109.944 35.4111L108.714 36.2701L108.718 36.2751L109.944 35.4111ZM108.44 33.2591L109.67 32.4L109.561 32.2444L109.417 32.1208L108.44 33.2591ZM106.436 31.539L107.413 30.4007L107.143 30.1691L106.798 30.0833L106.436 31.539ZM103.883 30.9043L104.245 29.4486L103.813 29.3412L103.392 29.487L103.883 30.9043ZM101.365 31.7768L100.874 30.3595L100.817 30.379L100.763 30.403L101.365 31.7768ZM98.9699 32.8264L98.3678 31.4525L98.3165 31.475L98.2671 31.5012L98.9699 32.8264ZM96.6329 34.0657L95.9301 32.7406L95.8738 32.7704L95.8203 32.8049L96.6329 34.0657ZM94.4146 35.4956L93.6019 34.2348L93.5476 34.2698L93.4966 34.3093L94.4146 35.4956ZM92.3195 37.1169L91.4015 35.9306L91.3649 35.959L91.33 35.9896L92.3195 37.1169ZM90.3359 38.8581L91.2893 40.0161L91.3076 40.0011L91.3254 39.9854L90.3359 38.8581ZM88.285 40.5468L87.3315 39.3888L87.3248 39.3944L88.285 40.5468ZM86.2676 42.2276L87.0056 43.5335L87.1236 43.4668L87.2278 43.38L86.2676 42.2276ZM83.9452 43.5399L83.2073 42.234L82.9982 42.3521L82.8365 42.5296L83.9452 43.5399ZM82.1451 45.5154L83.0327 46.7246L83.1532 46.6362L83.2538 46.5257L82.1451 45.5154ZM80.0119 47.0813L79.1243 45.8721L79.0938 45.8945L79.0646 45.9183L80.0119 47.0813ZM77.9557 48.7563L78.8344 49.972L78.8694 49.9466L78.903 49.9193L77.9557 48.7563ZM75.8207 50.2995L74.942 49.0838L74.8833 49.1262L74.829 49.1741L75.8207 50.2995ZM73.8497 52.0364L74.7056 53.2682L74.7766 53.2189L74.8414 53.1618L73.8497 52.0364ZM71.6747 53.5476L70.8188 52.3157L70.7408 52.3699L70.6703 52.4335L71.6747 53.5476ZM69.691 55.3359L70.5076 56.5941L70.6072 56.5295L70.6954 56.45L69.691 55.3359ZM67.4884 56.7654L66.6718 55.5071L66.5007 55.6182L66.3655 55.7709L67.4884 56.7654ZM65.7131 58.7699L66.4519 60.0754L66.6699 59.952L66.836 59.7644L65.7131 58.7699ZM63.3694 60.0964L62.6306 58.7909L62.5096 58.8594L62.4032 58.9489L63.3694 60.0964ZM61.3675 61.782L60.4013 60.6345L60.313 60.7089L60.2371 60.796L61.3675 61.782ZM59.5786 63.8329L60.4923 65.0225L60.6108 64.9315L60.709 64.8189L59.5786 63.8329ZM57.4653 65.456L58.3335 66.6792L58.3565 66.6628L58.3789 66.6456L57.4653 65.456ZM55.3105 66.9856L56.1612 68.221L56.17 68.2149L56.1787 68.2087L55.3105 66.9856ZM53.1418 68.4789L52.2911 67.2435L52.1836 67.3175L52.0905 67.409L53.1418 68.4789ZM51.2377 70.35L52.1851 71.5129L52.2392 71.4688L52.289 71.4199L51.2377 70.35ZM49.1916 72.017L48.2442 70.8541L48.2215 70.8726L48.1995 70.8919L49.1916 72.017ZM47.2233 73.7528L46.2312 72.6277L46.2215 72.6363L46.2119 72.6451L47.2233 73.7528ZM45.2721 75.5346L46.1985 76.7143L46.2424 76.6798L46.2836 76.6423L45.2721 75.5346ZM43.1847 77.1739L42.2582 75.9942L42.2258 76.0196L42.1949 76.0468L43.1847 77.1739ZM41.198 78.9186L42.1476 80.0798L42.168 80.0631L42.1878 80.0457L41.198 78.9186ZM39.1505 80.5931L38.2009 79.432L38.1026 79.5124L38.0192 79.6081L39.1505 80.5931ZM37.4066 82.5959L38.3265 83.7808L38.4419 83.6912L38.5379 83.5809L37.4066 82.5959ZM35.3124 84.2217L34.3926 83.0368L34.3127 83.0988L34.2419 83.171L35.3124 84.2217ZM33.4668 86.1023L34.513 87.1772L34.5253 87.1652L34.5373 87.153L33.4668 86.1023ZM31.5734 87.9452L30.5272 86.8703L30.4696 86.9264L30.4183 86.9883L31.5734 87.9452ZM29.8789 89.9907L28.7238 89.0337L28.7029 89.059L28.683 89.0852L29.8789 89.9907ZM28.283 92.0984L29.4324 93.0621L29.4564 93.0336L29.4789 93.0039L28.283 92.0984ZM26.5939 94.113L27.7028 95.1231L27.7235 95.1003L27.7433 95.0767L26.5939 94.113ZM24.8136 96.0672L23.7048 95.0571L23.5851 95.1884L23.4995 95.3441L24.8136 96.0672ZM23.5448 98.3731L24.8382 99.1328L24.8488 99.1147L24.859 99.0963L23.5448 98.3731ZM22.206 100.653L20.9126 99.8928L20.8353 100.024L20.7862 100.169L22.206 100.653ZM21.6326 102.335L21.0091 103.699L22.5174 104.388L23.0524 102.819L21.6326 102.335ZM90.4977 14.6611L89.6432 13.4283L89.561 13.4853L90.4155 14.7181L91.27 15.9509L91.3522 15.894L90.4977 14.6611ZM90.4155 14.7181L89.559 13.4867L87.4724 14.9379L88.3289 16.1694L89.1854 17.4008L91.272 15.9495L90.4155 14.7181ZM88.3289 16.1694L87.6534 14.8301L85.2816 16.0264L85.9571 17.3657L86.6326 18.705L89.0044 17.5086L88.3289 16.1694ZM85.9571 17.3657L84.9844 16.2238L82.9799 17.9314L83.9526 19.0732L84.9253 20.2151L86.9298 18.5075L85.9571 17.3657ZM83.9526 19.0732L82.9953 17.9184L80.9617 19.6042L81.919 20.759L82.8763 21.9138L84.9099 20.228L83.9526 19.0732ZM81.919 20.759L81.1014 19.5014L78.8801 20.9455L79.6977 22.2031L80.5153 23.4607L82.7366 22.0166L81.919 20.759ZM79.6977 22.2031L78.7871 21.0111L76.6879 22.6147L77.5984 23.8067L78.509 24.9987L80.6083 23.3951L79.6977 22.2031ZM77.5984 23.8067L76.5993 22.6879L74.624 24.4519L75.6231 25.5707L76.6222 26.6896L78.5975 24.9255L77.5984 23.8067ZM75.6231 25.5707L74.7388 24.3591L72.6039 25.9173L73.4882 27.1289L74.3725 28.3405L76.5074 26.7824L75.6231 25.5707ZM73.4882 27.1289L72.7141 25.844L70.4343 27.2174L71.2084 28.5023L71.9824 29.7872L74.2622 28.4138L73.4882 27.1289ZM71.2084 28.5023L70.108 27.4829L68.2871 29.4484L69.3874 30.4678L70.4878 31.4872L72.3087 29.5217L71.2084 28.5023ZM69.3874 30.4678L68.5291 29.2376L66.3573 30.7529L67.2156 31.9831L68.0739 33.2133L70.2457 31.698L69.3874 30.4678ZM67.2156 31.9831L66.2171 30.8637L64.2458 32.6222L65.2443 33.7415L66.2427 34.8609L68.2141 33.1025L67.2156 31.9831ZM65.2443 33.7415L64.4699 32.4569L62.1931 33.8292L62.9674 35.1139L63.7418 36.3986L66.0186 35.0262L65.2443 33.7415ZM62.9674 35.1139L62.0038 33.9644L59.9788 35.6619L60.9424 36.8115L61.906 37.961L63.9311 36.2634L62.9674 35.1139ZM60.9424 36.8115L59.9784 35.6623L57.9532 37.3611L58.9172 38.5103L59.8812 39.6595L61.9064 37.9607L60.9424 36.8115ZM58.9172 38.5103L57.9183 37.3912L55.9439 39.1537L56.9428 40.2727L57.9417 41.3917L59.9161 39.6293L58.9172 38.5103ZM56.9428 40.2727L56.2334 38.9511L53.8711 40.2191L54.5806 41.5407L55.29 42.8623L57.6522 41.5943L56.9428 40.2727ZM54.5806 41.5407L53.4613 40.5421L51.6762 42.5431L52.7955 43.5416L53.9148 44.5402L55.6999 42.5393L54.5806 41.5407ZM52.7955 43.5416L51.9788 42.2834L49.7532 43.7279L50.5698 44.9861L51.3865 46.2443L53.6121 44.7999L52.7955 43.5416ZM50.5698 44.9861L49.5756 43.863L47.5954 45.616L48.5897 46.7391L49.5839 47.8622L51.5641 46.1092L50.5698 44.9861ZM48.5897 46.7391L47.832 45.4445L45.5314 46.7909L46.289 48.0855L47.0467 49.3801L49.3473 48.0337L48.5897 46.7391ZM46.289 48.0855L45.1557 47.1029L43.3972 49.131L44.5305 50.1137L45.6638 51.0963L47.4223 49.0682L46.289 48.0855ZM44.5305 50.1137L43.6564 48.8946L41.5049 50.4373L42.379 51.6563L43.253 52.8753L45.4045 51.3327L44.5305 50.1137ZM42.379 51.6563L41.4664 50.4659L39.3682 52.0743L40.2808 53.2648L41.1934 54.4552L43.2916 52.8467L42.379 51.6563ZM40.2808 53.2648L39.3218 52.1114L37.29 53.8007L38.249 54.9541L39.208 56.1075L41.2398 54.4182L40.2808 53.2648ZM38.249 54.9541L37.4585 53.6793L35.1968 55.0818L35.9873 56.3566L36.7778 57.6314L39.0395 56.2289L38.249 54.9541ZM35.9873 56.3566L34.9413 55.2815L33.0411 57.1303L34.0871 58.2054L35.1331 59.2805L37.0333 57.4317L35.9873 56.3566ZM34.0871 58.2054L33.1319 57.0489L31.0964 58.7301L32.0516 59.8866L33.0069 61.0431L35.0423 59.3619L34.0871 58.2054ZM32.0516 59.8866L31.2389 58.6259L29.0046 60.0663L29.8174 61.327L30.6301 62.5877L32.8644 61.1473L32.0516 59.8866ZM29.8174 61.327L28.7029 60.323L26.9138 62.3089L28.0282 63.3129L29.1427 64.3169L30.9318 62.331L29.8174 61.327ZM28.0282 63.3129L27.1281 62.113L25.0105 63.7014L25.9106 64.9014L26.8107 66.1013L28.9283 64.5128L28.0282 63.3129ZM25.9106 64.9014L25.0138 63.699L22.8942 65.2798L23.7909 66.4822L24.6877 67.6847L26.8074 66.1038L25.9106 64.9014ZM23.7909 66.4822L22.7289 65.423L20.869 67.2878L21.931 68.347L22.993 69.4063L24.853 67.5415L23.7909 66.4822ZM21.931 68.347L20.9358 67.2247L18.9492 68.9864L19.9444 70.1087L20.9396 71.231L22.9262 69.4693L21.931 68.347ZM19.9444 70.1087L19.0795 68.8831L16.9144 70.4111L17.7793 71.6366L18.6442 72.8622L20.8093 71.3342L19.9444 70.1087ZM17.7793 71.6366L16.5383 70.7941L15.0281 73.0185L16.2691 73.8611L17.5102 74.7036L19.0203 72.4791L17.7793 71.6366ZM16.2691 73.8611L15.3507 72.6751L13.2343 74.3141L14.1527 75.5001L15.0712 76.686L17.1876 75.047L16.2691 73.8611ZM14.1527 75.5001L12.9955 74.5456L11.3118 76.5871L12.469 77.5415L13.6261 78.4959L15.3099 76.4545L14.1527 75.5001ZM12.469 77.5415L11.167 76.7966L9.84484 79.1076L11.1468 79.8525L12.4488 80.5974L13.7709 78.2864L12.469 77.5415ZM11.1468 79.8525L9.922 78.9865L8.40598 81.1308L9.63079 81.9968L10.8556 82.8627L12.3716 80.7184L11.1468 79.8525ZM9.63079 81.9968L8.45757 81.0621L6.79903 83.144L7.97225 84.0787L9.14546 85.0133L10.804 82.9314L9.63079 81.9968ZM7.97225 84.0787L6.56233 83.5667L5.65743 86.0585L7.06734 86.5705L8.47726 87.0825L9.38216 84.5907L7.97225 84.0787ZM7.06734 86.5705L5.60369 86.2423L5.02792 88.8099L6.49157 89.1381L7.95522 89.4663L8.53099 86.8988L7.06734 86.5705ZM6.49157 89.1381L4.99201 89.1017L4.92791 91.7382L6.42747 91.7747L7.92703 91.8111L7.99113 89.1746L6.49157 89.1381ZM6.42747 91.7747L4.95746 92.0731L5.48474 94.6704L6.95475 94.372L8.42477 94.0736L7.89748 91.4762L6.42747 91.7747ZM6.95475 94.372L5.54401 94.8817L6.45105 97.3921L7.86179 96.8824L9.27253 96.3727L8.3655 93.8623L6.95475 94.372ZM7.86179 96.8824L6.70866 97.8417L8.4093 99.886L9.56243 98.9266L10.7156 97.9673L9.01492 95.9231L7.86179 96.8824ZM9.56243 98.9266L8.46133 99.9452L10.2363 101.864L11.3374 100.845L12.4385 99.8267L10.6635 97.908L9.56243 98.9266ZM11.3374 100.845L10.7184 102.212L13.0904 103.286L13.7094 101.92L14.3283 100.553L11.9563 99.479L11.3374 100.845ZM13.7094 101.92L13.1809 103.324L15.6408 104.25L16.1692 102.846L16.6977 101.442L14.2378 100.516L13.7094 101.92ZM16.1692 102.846L16.1798 104.346L18.8234 104.327L18.8128 102.827L18.8023 101.327L16.1587 101.346L16.1692 102.846ZM18.8128 102.827L19.0753 104.304L21.6712 103.843L21.4087 102.366L21.1462 100.889L18.5503 101.35L18.8128 102.827ZM21.4087 102.366L20.5101 103.567L22.557 105.098L23.4557 103.897L24.3543 102.696L22.3073 101.165L21.4087 102.366ZM23.4557 103.897L22.5417 105.087L24.6216 106.685L25.5356 105.496L26.4495 104.306L24.3696 102.708L23.4557 103.897ZM25.5356 105.496L24.7943 106.8L27.0804 108.099L27.8217 106.795L28.5629 105.491L26.2768 104.192L25.5356 105.496ZM27.8217 106.795L27.2817 108.195L29.7389 109.143L30.2788 107.743L30.8187 106.344L28.3616 105.396L27.8217 106.795ZM30.2788 107.743L30 109.217L32.5872 109.706L32.866 108.233L33.1449 106.759L30.5576 106.269L30.2788 107.743ZM32.866 108.233L32.771 109.73L35.3883 109.896L35.4834 108.399L35.5784 106.902L32.9611 106.736L32.866 108.233ZM35.4834 108.399L35.5008 109.899L38.1204 109.868L38.103 108.368L38.0856 106.868L35.466 106.899L35.4834 108.399ZM38.103 108.368L38.2589 109.86L40.8694 109.587L40.7135 108.096L40.5576 106.604L37.9471 106.876L38.103 108.368ZM40.7135 108.096L40.8698 109.587L43.5159 109.31L43.3596 107.818L43.2034 106.327L40.5573 106.604L40.7135 108.096ZM43.3596 107.818L43.8513 109.236L46.3583 108.366L45.8666 106.949L45.375 105.532L42.868 106.401L43.3596 107.818ZM45.8666 106.949L46.5895 108.263L48.9121 106.986L48.1893 105.671L47.4664 104.357L45.1438 105.634L45.8666 106.949ZM48.1893 105.671L48.9056 106.989L51.2113 105.736L50.4949 104.418L49.7786 103.1L47.473 104.353L48.1893 105.671ZM50.4949 104.418L51.2569 105.71L53.5084 104.382L52.7465 103.09L51.9846 101.798L49.733 103.126L50.4949 104.418ZM52.7465 103.09L53.6223 104.308L55.7738 102.761L54.898 101.543L54.0223 100.325L51.8708 101.873L52.7465 103.09ZM54.898 101.543L55.8036 102.739L57.9072 101.146L57.0016 99.9501L56.0961 98.7543L53.9925 100.347L54.898 101.543ZM57.0016 99.9501L57.9126 101.142L60.0202 99.5308L59.1093 98.3391L58.1984 97.1473L56.0907 98.7584L57.0016 99.9501ZM59.1093 98.3391L60.0869 99.4767L62.0848 97.7599L61.1072 96.6222L60.1296 95.4846L58.1317 97.2014L59.1093 98.3391ZM61.1072 96.6222L62.0321 97.8031L64.1155 96.1714L63.1906 94.9905L62.2657 93.8096L60.1823 95.4413L61.1072 96.6222ZM63.1906 94.9905L64.0823 96.1967L66.2129 94.6217L65.3212 93.4155L64.4296 92.2093L62.299 93.7842L63.1906 94.9905ZM65.3212 93.4155L66.3958 94.4621L68.2476 92.5608L67.1731 91.5142L66.0985 90.4676L64.2467 92.3689L65.3212 93.4155ZM67.1731 91.5142L68.1868 92.6198L70.1353 90.8333L69.1216 89.7276L68.1079 88.622L66.1593 90.4086L67.1731 91.5142ZM69.1216 89.7276L70.0156 90.9321L72.138 89.3568L71.244 88.1523L70.3501 86.9478L68.2276 88.5232L69.1216 89.7276ZM71.244 88.1523L72.1799 89.3246L74.2441 87.6766L73.3082 86.5044L72.3724 85.3321L70.3082 86.9801L71.244 88.1523ZM73.3082 86.5044L74.2761 87.6503L76.2942 85.9458L75.3264 84.7999L74.3585 83.6539L72.3404 85.3584L73.3082 86.5044ZM75.3264 84.7999L76.2827 85.9555L78.3176 84.2714L77.3612 83.1159L76.4049 81.9603L74.37 83.6443L75.3264 84.7999ZM77.3612 83.1159L78.1894 84.3665L80.4034 82.9003L79.5751 81.6497L78.7469 80.3991L76.533 81.8652L77.3612 83.1159ZM79.5751 81.6497L80.6266 82.7194L82.5175 80.8607L81.466 79.791L80.4145 78.7213L78.5236 80.58L79.5751 81.6497ZM81.466 79.791L82.3972 80.967L84.468 79.3272L83.5368 78.1512L82.6056 76.9753L80.5348 78.615L81.466 79.791ZM83.5368 78.1512L84.5003 79.3009L86.5241 77.6047L85.5605 76.4551L84.597 75.3055L82.5733 77.0016L83.5368 78.1512ZM85.5605 76.4551L86.5009 77.6237L88.5578 75.9686L87.6174 74.8L86.677 73.6313L84.6202 75.2864L85.5605 76.4551ZM87.6174 74.8L88.4928 76.018L90.6406 74.4743L89.7652 73.2563L88.8897 72.0382L86.742 73.5819L87.6174 74.8ZM89.7652 73.2563L90.9046 74.2319L92.648 72.1956L91.5086 71.22L90.3692 70.2445L88.6258 72.2807L89.7652 73.2563ZM91.5086 71.22L92.2401 72.5296L94.5889 71.2177L93.8574 69.9081L93.126 68.5985L90.7772 69.9105L91.5086 71.22ZM93.8574 69.9081L94.8283 71.0515L96.8439 69.34L95.873 68.1966L94.9021 67.0532L92.8865 68.7647L93.8574 69.9081ZM95.873 68.1966L96.9277 69.2632L98.8107 67.401L97.7559 66.3345L96.7012 65.2679L94.8182 67.1301L95.873 68.1966ZM97.7559 66.3345L98.7959 67.4154L100.698 65.5848L99.6584 64.5039L98.6184 63.423L96.7159 65.2536L97.7559 66.3345ZM99.6584 64.5039L100.624 65.6514L102.653 63.9439L101.687 62.7964L100.721 61.6489L98.6924 63.3564L99.6584 64.5039ZM101.687 62.7964L102.69 63.9115L104.634 62.1621L103.631 61.047L102.628 59.9319L100.683 61.6813L101.687 62.7964ZM103.631 61.047L104.519 62.2564L106.673 60.6757L105.786 59.4663L104.898 58.2569L102.744 59.8376L103.631 61.047ZM105.786 59.4663L106.989 60.3616L108.573 58.2322L107.37 57.3369L106.166 56.4416L104.582 58.571L105.786 59.4663ZM107.37 57.3369L108.561 58.2482L110.171 56.1435L108.98 55.2321L107.788 54.3208L106.178 56.4256L107.37 57.3369ZM108.98 55.2321L110.318 55.9093L111.515 53.5442L110.176 52.8671L108.838 52.1899L107.641 54.555L108.98 55.2321ZM110.176 52.8671L111.531 53.5108L112.665 51.1233L111.311 50.4795L109.956 49.8358L108.821 52.2233L110.176 52.8671ZM111.311 50.4795L112.782 50.7706L113.295 48.1782L111.824 47.8871L110.352 47.596L109.839 50.1884L111.311 50.4795ZM111.824 47.8871L113.234 48.3985L114.148 45.8786L112.737 45.3672L111.327 44.8558L110.413 47.3757L111.824 47.8871ZM112.737 45.3672L114.23 45.2209L113.97 42.5657L112.477 42.7121L110.984 42.8585L111.245 45.5136L112.737 45.3672ZM112.477 42.7121L113.971 42.579L113.737 39.9567L112.243 40.0898L110.749 40.223L110.983 42.8452L112.477 42.7121ZM112.243 40.0898L113.676 39.6462L112.895 37.1212L111.462 37.5648L110.029 38.0085L110.811 40.5335L112.243 40.0898ZM111.462 37.5648L112.688 36.7008L111.17 34.547L109.944 35.4111L108.718 36.2751L110.236 38.4289L111.462 37.5648ZM109.944 35.4111L111.173 34.552L109.67 32.4L108.44 33.2591L107.211 34.1182L108.714 36.2701L109.944 35.4111ZM108.44 33.2591L109.417 32.1208L107.413 30.4007L106.436 31.539L105.459 32.6773L107.464 34.3974L108.44 33.2591ZM106.436 31.539L106.798 30.0833L104.245 29.4486L103.883 30.9043L103.521 32.36L106.074 32.9947L106.436 31.539ZM103.883 30.9043L103.392 29.487L100.874 30.3595L101.365 31.7768L101.856 33.1942L104.374 32.3217L103.883 30.9043ZM101.365 31.7768L100.763 30.403L98.3678 31.4525L98.9699 32.8264L99.572 34.2002L101.967 33.1507L101.365 31.7768ZM98.9699 32.8264L98.2671 31.5012L95.9301 32.7406L96.6329 34.0657L97.3357 35.3909L99.6727 34.1515L98.9699 32.8264ZM96.6329 34.0657L95.8203 32.8049L93.6019 34.2348L94.4146 35.4956L95.2272 36.7564L97.4456 35.3265L96.6329 34.0657ZM94.4146 35.4956L93.4966 34.3093L91.4015 35.9306L92.3195 37.1169L93.2376 38.3032L95.3326 36.6819L94.4146 35.4956ZM92.3195 37.1169L91.33 35.9896L89.3463 37.7308L90.3359 38.8581L91.3254 39.9854L93.3091 38.2442L92.3195 37.1169ZM90.3359 38.8581L89.3824 37.7002L87.3315 39.3888L88.285 40.5468L89.2384 41.7048L91.2893 40.0161L90.3359 38.8581ZM88.285 40.5468L87.3248 39.3944L85.3074 41.0752L86.2676 42.2276L87.2278 43.38L89.2451 41.6992L88.285 40.5468ZM86.2676 42.2276L85.5297 40.9217L83.2073 42.234L83.9452 43.5399L84.6832 44.8459L87.0056 43.5335L86.2676 42.2276ZM83.9452 43.5399L82.8365 42.5296L81.0364 44.5051L82.1451 45.5154L83.2538 46.5257L85.054 44.5503L83.9452 43.5399ZM82.1451 45.5154L81.2575 44.3062L79.1243 45.8721L80.0119 47.0813L80.8995 48.2905L83.0327 46.7246L82.1451 45.5154ZM80.0119 47.0813L79.0646 45.9183L77.0083 47.5933L77.9557 48.7563L78.903 49.9193L80.9593 48.2443L80.0119 47.0813ZM77.9557 48.7563L77.077 47.5406L74.942 49.0838L75.8207 50.2995L76.6994 51.5151L78.8344 49.972L77.9557 48.7563ZM75.8207 50.2995L74.829 49.1741L72.858 50.911L73.8497 52.0364L74.8414 53.1618L76.8124 51.4248L75.8207 50.2995ZM73.8497 52.0364L72.9938 50.8045L70.8188 52.3157L71.6747 53.5476L72.5306 54.7794L74.7056 53.2682L73.8497 52.0364ZM71.6747 53.5476L70.6703 52.4335L68.6866 54.2218L69.691 55.3359L70.6954 56.45L72.6791 54.6617L71.6747 53.5476ZM69.691 55.3359L68.8744 54.0777L66.6718 55.5071L67.4884 56.7654L68.305 58.0236L70.5076 56.5941L69.691 55.3359ZM67.4884 56.7654L66.3655 55.7709L64.5902 57.7754L65.7131 58.7699L66.836 59.7644L68.6113 57.7599L67.4884 56.7654ZM65.7131 58.7699L64.9743 57.4645L62.6306 58.7909L63.3694 60.0964L64.1082 61.4018L66.4519 60.0754L65.7131 58.7699ZM63.3694 60.0964L62.4032 58.9489L60.4013 60.6345L61.3675 61.782L62.3336 62.9294L64.3355 61.2438L63.3694 60.0964ZM61.3675 61.782L60.2371 60.796L58.4482 62.8469L59.5786 63.8329L60.709 64.8189L62.4979 62.7679L61.3675 61.782ZM59.5786 63.8329L58.6649 62.6433L56.5516 64.2664L57.4653 65.456L58.3789 66.6456L60.4923 65.0225L59.5786 63.8329ZM57.4653 65.456L56.597 64.2329L54.4422 65.7624L55.3105 66.9856L56.1787 68.2087L58.3335 66.6792L57.4653 65.456ZM55.3105 66.9856L54.4598 65.7501L52.2911 67.2435L53.1418 68.4789L53.9926 69.7143L56.1612 68.221L55.3105 66.9856ZM53.1418 68.4789L52.0905 67.409L50.1864 69.2801L51.2377 70.35L52.289 71.4199L54.1932 69.5488L53.1418 68.4789ZM51.2377 70.35L50.2902 69.1871L48.2442 70.8541L49.1916 72.017L50.1391 73.1799L52.1851 71.5129L51.2377 70.35ZM49.1916 72.017L48.1995 70.8919L46.2312 72.6277L47.2233 73.7528L48.2155 74.8778L50.1838 73.142L49.1916 72.017ZM47.2233 73.7528L46.2119 72.6451L44.2606 74.4269L45.2721 75.5346L46.2836 76.6423L48.2348 74.8604L47.2233 73.7528ZM45.2721 75.5346L44.3456 74.3549L42.2582 75.9942L43.1847 77.1739L44.1112 78.3536L46.1985 76.7143L45.2721 75.5346ZM43.1847 77.1739L42.1949 76.0468L40.2082 77.7915L41.198 78.9186L42.1878 80.0457L44.1745 78.301L43.1847 77.1739ZM41.198 78.9186L40.2484 77.7575L38.2009 79.432L39.1505 80.5931L40.1001 81.7543L42.1476 80.0798L41.198 78.9186ZM39.1505 80.5931L38.0192 79.6081L36.2754 81.611L37.4066 82.5959L38.5379 83.5809L40.2817 81.5781L39.1505 80.5931ZM37.4066 82.5959L36.4868 81.4111L34.3926 83.0368L35.3124 84.2217L36.2323 85.4066L38.3265 83.7808L37.4066 82.5959ZM35.3124 84.2217L34.2419 83.171L32.3962 85.0516L33.4668 86.1023L34.5373 87.153L36.383 85.2724L35.3124 84.2217ZM33.4668 86.1023L32.4205 85.0274L30.5272 86.8703L31.5734 87.9452L32.6197 89.0201L34.513 87.1772L33.4668 86.1023ZM31.5734 87.9452L30.4183 86.9883L28.7238 89.0337L29.8789 89.9907L31.034 90.9476L32.7285 88.9022L31.5734 87.9452ZM29.8789 89.9907L28.683 89.0852L27.0871 91.1929L28.283 92.0984L29.4789 93.0039L31.0748 90.8961L29.8789 89.9907ZM28.283 92.0984L27.1336 91.1346L25.4444 93.1492L26.5939 94.113L27.7433 95.0767L29.4324 93.0621L28.283 92.0984ZM26.5939 94.113L25.485 93.1028L23.7048 95.0571L24.8136 96.0672L25.9225 97.0774L27.7028 95.1231L26.5939 94.113ZM24.8136 96.0672L23.4995 95.3441L22.2306 97.65L23.5448 98.3731L24.859 99.0963L26.1278 96.7904L24.8136 96.0672ZM23.5448 98.3731L22.2514 97.6134L20.9126 99.8928L22.206 100.653L23.4994 101.412L24.8382 99.1328L23.5448 98.3731ZM22.206 100.653L20.7862 100.169L20.2128 101.851L21.6326 102.335L23.0524 102.819L23.6258 101.136L22.206 100.653ZM21.6326 102.335L22.2562 100.97L22.2238 100.956L21.6003 102.32L20.9767 103.684L21.0091 103.699L21.6326 102.335Z" fill="black"/>
<path d="M95.441 23.2464L94.9562 24.6659L95.5925 24.8832L96.1781 24.5527L95.441 23.2464ZM93.0157 22.4181L93.5005 20.9986L93.4239 20.9724L93.3449 20.9546L93.0157 22.4181ZM90.4197 21.8341L90.7489 20.3707L90.0898 20.2224L89.542 20.6178L90.4197 21.8341ZM88.3528 23.3257L87.475 22.1094L86.8946 22.5283L86.8551 23.243L88.3528 23.3257ZM88.2129 25.8578L86.7152 25.775L86.7091 25.8841L86.719 25.9929L88.2129 25.8578ZM88.4506 28.4862L89.9501 28.4462L89.9488 28.3986L89.9445 28.3511L88.4506 28.4862ZM88.5207 31.1093L89.8345 31.8331L90.031 31.4764L90.0201 31.0693L88.5207 31.1093ZM87.2506 33.4147L87.6938 34.8477L88.2723 34.6688L88.5645 34.1385L87.2506 33.4147ZM84.6889 34.207L84.5431 35.6999L84.8437 35.7293L85.1321 35.64L84.6889 34.207ZM82.0444 33.9487L82.1902 32.4559L81.984 32.4357L81.7799 32.4723L82.0444 33.9487ZM79.4141 34.4199L79.5039 35.9172L79.5919 35.912L79.6786 35.8964L79.4141 34.4199ZM76.7984 34.5767L76.7087 33.0794L76.4333 33.0959L76.1819 33.2093L76.7984 34.5767ZM74.4551 35.6332L73.8386 34.2658L73.633 34.3584L73.4638 34.5075L74.4551 35.6332ZM72.5262 37.3319L71.5348 36.2061L71.1406 36.5533L71.0491 37.0705L72.5262 37.3319ZM72.066 39.9328L70.5889 39.6715L70.5674 39.7928L70.5661 39.916L72.066 39.9328ZM72.0362 42.5782L73.5068 42.8734L73.5345 42.7356L73.5361 42.5951L72.0362 42.5782ZM71.5041 45.229L72.3982 46.4333L72.8612 46.0896L72.9747 45.5242L71.5041 45.229ZM69.367 46.8155L70.0483 48.1519L70.1602 48.0948L70.2611 48.0199L69.367 46.8155ZM66.9977 48.0235L66.9098 49.5209L67.3163 49.5448L67.679 49.3599L66.9977 48.0235ZM64.3296 47.867L64.4175 46.3695L64.331 46.3645L64.2445 46.3694L64.3296 47.867ZM61.6984 48.0166L61.7715 49.5148L61.7836 49.5141L61.6984 48.0166ZM59.0288 48.1467L58.9557 46.6485L58.4233 46.6745L58.0267 47.0306L59.0288 48.1467ZM57.0577 49.9165L56.0556 48.8003L55.9256 48.917L55.8259 49.0604L57.0577 49.9165ZM55.6134 51.9944L54.3817 51.1383L54.2195 51.3717L54.1539 51.6483L55.6134 51.9944ZM55.0107 54.5362L53.5512 54.1901L53.5248 54.3013L53.5156 54.4152L55.0107 54.5362ZM54.7977 57.1683L56.2233 57.6347L56.2785 57.4661L56.2928 57.2893L54.7977 57.1683ZM53.9782 59.6733L55.2965 60.389L55.3615 60.2692L55.4039 60.1397L53.9782 59.6733ZM52.7541 61.928L53.3488 63.3051L53.8249 63.0995L54.0724 62.6437L52.7541 61.928ZM50.3372 62.9717L50.251 64.4692L50.6057 64.4896L50.9318 64.3488L50.3372 62.9717ZM47.7051 62.8203L47.7913 61.3228L47.671 61.3159L47.5511 61.3282L47.7051 62.8203ZM45.0558 63.0939L45.0299 64.5937L45.1202 64.5952L45.2099 64.586L45.0558 63.0939ZM42.4259 63.0485L42.4518 61.5487L42.3138 61.5463L42.1777 61.5691L42.4259 63.0485ZM39.8092 63.4874L39.561 62.008L39.234 62.0629L38.9606 62.2504L39.8092 63.4874ZM37.6327 64.9804L36.7842 63.7435L36.49 63.9453L36.3182 64.2579L37.6327 64.9804ZM36.41 67.2052L35.0954 66.4828L34.9515 66.7446L34.9189 67.0416L36.41 67.2052ZM36.1198 69.85L34.6287 69.6865L34.5965 69.9805L34.6783 70.2648L36.1198 69.85ZM36.8623 72.4306L38.2641 72.9645L38.4422 72.4968L38.3038 72.0159L36.8623 72.4306ZM35.9274 74.8854L36.857 76.0626L37.1819 75.806L37.3292 75.4192L35.9274 74.8854ZM34.0293 76.3843L34.4018 77.8373L34.7096 77.7584L34.959 77.5615L34.0293 76.3843ZM31.4447 77.0468L31.3407 78.5432L31.5824 78.56L31.8172 78.4999L31.4447 77.0468ZM28.7964 76.8627L28.5414 78.3409L28.6165 78.3538L28.6924 78.3591L28.7964 76.8627ZM26.17 76.4096L26.425 74.9314L26.1192 74.8786L25.8175 74.9516L26.17 76.4096ZM23.589 77.0335L23.2365 75.5755L23.0357 75.624L22.8554 75.7251L23.589 77.0335ZM21.3058 78.3136L20.5722 77.0052L20.301 77.1572L20.1126 77.4045L21.3058 78.3136ZM19.7156 80.4006L18.5225 79.4915L18.3088 79.772L18.2424 80.1183L19.7156 80.4006ZM19.2161 83.0072L17.7429 82.7249L17.6918 82.9919L17.7376 83.26L19.2161 83.0072ZM19.6673 85.6467L18.1888 85.8995L18.2919 86.503L18.7879 86.8619L19.6673 85.6467ZM95.5281 23.1972L94.7909 21.8909L94.7038 21.94L95.441 23.2464L96.1781 24.5527L96.2652 24.5036L95.5281 23.1972ZM95.441 23.2464L95.9258 21.8269L93.5005 20.9986L93.0157 22.4181L92.5309 23.8376L94.9562 24.6659L95.441 23.2464ZM93.0157 22.4181L93.3449 20.9546L90.7489 20.3707L90.4197 21.8341L90.0905 23.2975L92.6865 23.8815L93.0157 22.4181ZM90.4197 21.8341L89.542 20.6178L87.475 22.1094L88.3528 23.3257L89.2306 24.5421L91.2975 23.0504L90.4197 21.8341ZM88.3528 23.3257L86.8551 23.243L86.7152 25.775L88.2129 25.8578L89.7106 25.9406L89.8505 23.4085L88.3528 23.3257ZM88.2129 25.8578L86.719 25.9929L86.9567 28.6213L88.4506 28.4862L89.9445 28.3511L89.7068 25.7227L88.2129 25.8578ZM88.4506 28.4862L86.9511 28.5263L87.0212 31.1493L88.5207 31.1093L90.0201 31.0693L89.9501 28.4462L88.4506 28.4862ZM88.5207 31.1093L87.2068 30.3855L85.9368 32.691L87.2506 33.4147L88.5645 34.1385L89.8345 31.8331L88.5207 31.1093ZM87.2506 33.4147L86.8074 31.9817L84.2457 32.774L84.6889 34.207L85.1321 35.64L87.6938 34.8477L87.2506 33.4147ZM84.6889 34.207L84.8347 32.7141L82.1902 32.4559L82.0444 33.9487L81.8986 35.4416L84.5431 35.6999L84.6889 34.207ZM82.0444 33.9487L81.7799 32.4723L79.1496 32.9434L79.4141 34.4199L79.6786 35.8964L82.3089 35.4252L82.0444 33.9487ZM79.4141 34.4199L79.3244 32.9226L76.7087 33.0794L76.7984 34.5767L76.8882 36.074L79.5039 35.9172L79.4141 34.4199ZM76.7984 34.5767L76.1819 33.2093L73.8386 34.2658L74.4551 35.6332L75.0716 37.0006L77.4149 35.9442L76.7984 34.5767ZM74.4551 35.6332L73.4638 34.5075L71.5348 36.2061L72.5262 37.3319L73.5175 38.4576L75.4464 36.7589L74.4551 35.6332ZM72.5262 37.3319L71.0491 37.0705L70.5889 39.6715L72.066 39.9328L73.543 40.1942L74.0032 37.5932L72.5262 37.3319ZM72.066 39.9328L70.5661 39.916L70.5363 42.5613L72.0362 42.5782L73.5361 42.5951L73.5659 39.9497L72.066 39.9328ZM72.0362 42.5782L70.5655 42.283L70.0334 44.9337L71.5041 45.229L72.9747 45.5242L73.5068 42.8734L72.0362 42.5782ZM71.5041 45.229L70.6099 44.0246L68.4729 45.6112L69.367 46.8155L70.2611 48.0199L72.3982 46.4333L71.5041 45.229ZM69.367 46.8155L68.6857 45.4792L66.3164 46.6872L66.9977 48.0235L67.679 49.3599L70.0483 48.1519L69.367 46.8155ZM66.9977 48.0235L67.0856 46.5261L64.4175 46.3695L64.3296 47.867L64.2418 49.3644L66.9098 49.5209L66.9977 48.0235ZM64.3296 47.867L64.2445 46.3694L61.6133 46.519L61.6984 48.0166L61.7836 49.5141L64.4148 49.3645L64.3296 47.867ZM61.6984 48.0166L61.6254 46.5183L58.9557 46.6485L59.0288 48.1467L59.1018 49.645L61.7715 49.5148L61.6984 48.0166ZM59.0288 48.1467L58.0267 47.0306L56.0556 48.8003L57.0577 49.9165L58.0598 51.0326L60.0309 49.2629L59.0288 48.1467ZM57.0577 49.9165L55.8259 49.0604L54.3817 51.1383L55.6134 51.9944L56.8451 52.8505L58.2894 50.7725L57.0577 49.9165ZM55.6134 51.9944L54.1539 51.6483L53.5512 54.1901L55.0107 54.5362L56.4702 54.8823L57.073 52.3405L55.6134 51.9944ZM55.0107 54.5362L53.5156 54.4152L53.3026 57.0473L54.7977 57.1683L56.2928 57.2893L56.5058 54.6572L55.0107 54.5362ZM54.7977 57.1683L53.372 56.702L52.5526 59.2069L53.9782 59.6733L55.4039 60.1397L56.2233 57.6347L54.7977 57.1683ZM53.9782 59.6733L52.66 58.9576L51.4359 61.2123L52.7541 61.928L54.0724 62.6437L55.2965 60.389L53.9782 59.6733ZM52.7541 61.928L52.1594 60.5509L49.7425 61.5946L50.3372 62.9717L50.9318 64.3488L53.3488 63.3051L52.7541 61.928ZM50.3372 62.9717L50.4233 61.4742L47.7913 61.3228L47.7051 62.8203L47.619 64.3178L50.251 64.4692L50.3372 62.9717ZM47.7051 62.8203L47.5511 61.3282L44.9018 61.6018L45.0558 63.0939L45.2099 64.586L47.8592 64.3124L47.7051 62.8203ZM45.0558 63.0939L45.0817 61.5941L42.4518 61.5487L42.4259 63.0485L42.4 64.5482L45.0299 64.5937L45.0558 63.0939ZM42.4259 63.0485L42.1777 61.5691L39.561 62.008L39.8092 63.4874L40.0573 64.9667L42.674 64.5278L42.4259 63.0485ZM39.8092 63.4874L38.9606 62.2504L36.7842 63.7435L37.6327 64.9804L38.4813 66.2173L40.6577 64.7243L39.8092 63.4874ZM37.6327 64.9804L36.3182 64.2579L35.0954 66.4828L36.41 67.2052L37.7245 67.9277L38.9473 65.7029L37.6327 64.9804ZM36.41 67.2052L34.9189 67.0416L34.6287 69.6865L36.1198 69.85L37.6108 70.0136L37.901 67.3688L36.41 67.2052ZM36.1198 69.85L34.6783 70.2648L35.4208 72.8454L36.8623 72.4306L38.3038 72.0159L37.5613 69.4353L36.1198 69.85ZM36.8623 72.4306L35.4605 71.8968L34.5256 74.3515L35.9274 74.8854L37.3292 75.4192L38.2641 72.9645L36.8623 72.4306ZM35.9274 74.8854L34.9978 73.7082L33.0997 75.2071L34.0293 76.3843L34.959 77.5615L36.857 76.0626L35.9274 74.8854ZM34.0293 76.3843L33.6569 74.9313L31.0723 75.5938L31.4447 77.0468L31.8172 78.4999L34.4018 77.8373L34.0293 76.3843ZM31.4447 77.0468L31.5488 75.5504L28.9005 75.3663L28.7964 76.8627L28.6924 78.3591L31.3407 78.5432L31.4447 77.0468ZM28.7964 76.8627L29.0515 75.3845L26.425 74.9314L26.17 76.4096L25.9149 77.8877L28.5414 78.3409L28.7964 76.8627ZM26.17 76.4096L25.8175 74.9516L23.2365 75.5755L23.589 77.0335L23.9414 78.4915L26.5224 77.8676L26.17 76.4096ZM23.589 77.0335L22.8554 75.7251L20.5722 77.0052L21.3058 78.3136L22.0393 79.622L24.3226 78.3419L23.589 77.0335ZM21.3058 78.3136L20.1126 77.4045L18.5225 79.4915L19.7156 80.4006L20.9088 81.3097L22.4989 79.2227L21.3058 78.3136ZM19.7156 80.4006L18.2424 80.1183L17.7429 82.7249L19.2161 83.0072L20.6893 83.2895L21.1888 80.6829L19.7156 80.4006ZM19.2161 83.0072L17.7376 83.26L18.1888 85.8995L19.6673 85.6467L21.1459 85.394L20.6947 82.7545L19.2161 83.0072ZM19.6673 85.6467L18.7879 86.8619L19.0816 87.0744L19.9609 85.8592L20.8403 84.644L20.5467 84.4315L19.6673 85.6467Z" fill="black"/>
</svg>
