<svg xmlns="http://www.w3.org/2000/svg" width="120" height="120" fill="none" viewBox="0 0 120 120"><path fill="#000" d="m80.969 24.305.304.363.047.469.258 2.636.035.282-.082.28-.33 1.165h.135l.316 1.078.246.82.012.036v.046l.516 2.204 1.324 1.664 1.887 1.418 2.215 1.078 2.402.89h-.012l2.402.797 2.462.692 2.59.562 3.07.668-2.45 1.969-1.148.926-.094.082-.105.058-2.309 1.301-2.226 1.336-.106.07-.117.047-2.355.914-.176.072.086 1.608.011.187-.035.176L89.5 51.5h.587l.398.89.75 1.7 1.559 1.254 2.133 1.02 2.367.831 2.438.762 2.519.457.082.012.07.023 1.442.41 4.711 1.336-4.664 1.524-2.508.82-.094.035-.105.024-2.485.422-2.531.714-.059.024-.046.011-.76.156.049.09.21.387-.046.457-.235 2.637-.047.504.047.504.235 2.637.011.07v.058l.024 2.637V74l-.012.094-.29 2.504 1.29.148 2.438-.375.984-.152.516.855 1.195 1.934.164.258.047.304.351 2.414.75 2.543.012.047.012.059.562 2.578.024.105.011.106.165 2.414.925 2.273.106.235.011.258.106 2.566.562 2.309.903 2.414.035.105.023.117.539 2.578.024.106v.105l.164 2.555.644 2.367.024.071.551 2.589.011.024v.023l.481 2.59h-.012l.264 1.39 1.607-.245.293-.047.281.07 1.043.258-.703 2.906-.761-.187-1.203.185.035.182-.799-.063-.377.059-.094.023h-.094l-2.636.071h-.141l-1.447-.242-1.186.164-.129.011h-.14l-1.243-.061-.765.139-.234.047-.235-.035-1.059-.141-1.55.133-.14.012-.153-.023-2.466-.288-2.237.19-.106.012-.094-.012-1.97-.113h-.803l-2.637.129h-.105l-1.365-.025-.737.114-.199.036-.187-.024-.866-.1-1.025.042-.094.011-.082-.011-2.322-.175-.987-.009-.209.007-2.033.2-.164.012-.164-.024-.643-.081-2.048.073H73.7l-2.636-.023h-.012l-2.649-.047h-.07l-.07-.012-1.833-.213-.367.065-.128.023h-1.097l-1.126.215-.234.047-.246-.035-1.11-.162-1.496.111-.07.012h-.082l-.502-.016h-2.21l-2.636-.187v-.012l-.65-.019-1.334.238-.258.047-.1-.018-1.24.201-.132-.439-.669-.116-.82-.011-1.056-.02-1.175.075h-.023l-.023.011-3.53.11-.013.031-.961.035-2.637.106-.094.011-.082-.011-2.648-.2v-.011h-.245l-.51.062h-.034l-.047.012-2.637.152h-.164l-1.635-.073-.408.069-.21.035-.212-.023-1.178-.147-1.572-.013-2.613.047h-.012l-2.648.011h-.07l-.083-.011-.778-.08-1.429-.006h-.117l-1.102-.091-1.566.141h-.164l-2.648-.046-.686.003-1.486.145-.153.012-.152-.012-2.496-.269-2.46.105H8v-3h.035l2.543-.105.106-.012.095.009.12-.415.68-2.368.093-2.496.012-.269.093-.246.973-2.368.492-2.425.317-2.52v-.023l.375-2.625v-.047l.011-.047.54-2.566.515-2.59.023-.13.047-.116.903-2.356.363-2.437.012-.082.023-.07.633-2.555.387-2.485v-.058l.011-.059.575-2.46.27-2.556.07-.703.597-.398.258-.176.375-.246h.492l2.531-.106.117-.011.106.011 1.746.189-.039-.087-.012-.281-.093-2.649-.082-2.636v-.059l.023-2.637v-.48l.14-.197-.011-.284v-.046l-.059-2.637-.01-.37-.087-.005-.188-.07-2.484-.914-2.297-.82-2.543-.364-2.32-.328 1.277-1.969.48-.75.34-.527.621-.13 2.461-.503 2.438-.844.117-.035.105-.023 2.45-.458 2.168-.96 1.828-1.16 1.207-2.028.375-.633.715-.093.612-.086-.066-1.672v-.012l-.033-1.488-.357-.016-.281-.012-.27-.117-2.414-1.09-.152-.058-.13-.106-2.027-1.511-2.25-1.208-.468-.257-.2-.48-.34-.798-.714-1.71 1.816-.352 2.39-.457 2.204-1.125.187-.094.2-.035 2.402-.504 2.203-1.102.035-.023.035-.012 2.133-.949 1.617-1.746.047-.059.059-.058 1.64-1.465.481-2.156.234-1.09.41-.03-.421-.982-.094-.223-.024-.257-.187-2.637-.012-.094.012-.094.07-1.511.07-1.43h2.602v.012l1.441-.117.762-.06 1.688 1.97.304.363.047.469.258 2.636.035.282-.082.28-.318 1.123 2.404.288 2.461-.164.094-.012.082.012 2.45.14 2.507-.421.21-.035.212.023 2.543.316 2.484.07 2.613-.187.047-.011h.059l2.637.011h.117l2.578.211 2.437-.094 2.637-.27.105-.008-.25-.58-.093-.224-.024-.257-.187-2.637-.012-.094.012-.094.07-1.511.07-1.43h2.602v.012l1.441-.117.762-.06zm12.164 62.613-.082.012-.094-.012-2.45-.129L88 87.2l-.21.035-.212-.023-2.555-.305-2.484-.07-2.59.176-.058.011h-.059l-2.637-.011h-.117l-2.578-.2-2.45.094h.013l-2.637.258-.153.012-.152-.012-2.496-.258-1.034.04-.099 1.257-.011 2.637v.668l-.493.445-1.453 1.324-.457.41-.598-.023-2.648-.07h-.059l-.07-.012-2.637-.305-.433-.058-.34-.27-1.453-1.183-.598-.48.047-.763.14-2.554-.064-.93-.994.031h-.117l-.117-.011-2.543-.293-2.461.152-.082.012-.094-.012-2.45-.129L43 87.2l-.21.035-.212-.023-2.555-.305-2.484-.07-2.59.176-.058.011h-.059l-2.637-.011h-.117l-2.578-.2-2.45.094h.012l-2.636.258-.153.012-.152-.012-2.496-.258-1.856.07-.492 1.958-.363 2.46-.023.165-.059.164-.926 2.379-.48 2.46v.012l-.54 2.59-.35 2.508-.329 2.613-.012.059-.011.047-.516 2.589-.035.141-.047.141-.926 2.226-.094 2.414-.011.176-.047.176-.586 2.062.082.2h.78l.986-.098h.093l2.637-.106.094-.011.082.011 1.278.096.823-.068.153-.012.14.012 1.87.183h.798l2.637-.187.07-.012.082.012 2.637.07h.07l.059.012 1.358.156.837.012h.059l.696.028.088-.014.005-.123.07-2.637v-.07l.012-.071.305-2.637.152-2.554.035-.586.41-.399 1.922-1.886.223-.223.293-.117 2.531-.949.516-.188.515.188 2.52.902.27.094.222.187 1.934 1.723.304.269.13.387.82 2.508.27.82-.317.352.129 1.957.011.117-.011.129-.273 2.56 1.933-.06h.082l1.545.027 1.263-.078.176-.012.121.024-.008-.027-.011-.165-.176-2.648-.012-.141.024-.14.304-2.52-.082-2.519V106l.07-2.648.012-.211.059-.2.809-2.566.128-.422.34-.281 2.016-1.711 2.016-1.758.351-.305.457-.058 2.66-.328.14-.012h.142l2.648.164.41.023.328.223 2.203 1.465h.012l2.215 1.5.363.246.176.387 1.09 2.472.094.2.023.211.305 2.414.222 1.699h-.222l.058 1.066v.118l-.011.105-.27 2.484.246 2.496.012.047v.035l.06 1.543 1.713.032 2.614-.047h.105l.106.012.149.018.07-2.573v-.07l.011-.071.305-2.637.152-2.554.035-.586.41-.399 1.922-1.886.223-.223.293-.117 2.531-.949.516-.188.515.188 2.52.902.27.094.222.187 1.934 1.723.304.269.13.387.82 2.508.27.82-.317.352.129 1.957.011.117-.011.129-.274 2.568 2.586.127h.012l.452.028h1.766l2.649-.082h.105l.023.002.079-.006.059-.012h.047l2.648-.012h.105l.106.012 1.256.171.775-.062h.188l1.107.052 1.479-.267.257-.046.258.035.892.148 1.022-.133.153-.023.152.012.539.035-.117-.668v-.012l-.481-2.59v-.011l-.527-2.45-.691-2.554-.036-.141-.011-.152-.164-2.543-.481-2.356-.902-2.425-.035-.082-.024-.094-.609-2.567-.024-.14-.011-.14-.118-2.415-.902-2.25-.094-.21-.011-.247-.2-2.578-.153-.71-2.08.065h-.118l-.117-.011-2.543-.293zm-14.027 19.074-1.266 1.242-.13 2.098v.082l-.304 2.508-.07 2.027.48.528 1.25.006.078-.006h.13l2.636-.024h.094l.082.012.906.103 1.084.024.28-.701.246-2.344-.153-2.367-.035-.539.012-.024-.457-1.394-1.406-1.243-1.735-.632zm-21.528-7.234-1.676 1.465-.011.011h-.012l-1.723 1.454-.61 1.945-.058 2.449.082 2.543v.117l-.011.117-.317 2.532.153 2.285.229.741.508.016.868-.136.21-.024h.005l.047-.007.199-.036.2.012 2.472.246 2.59-.14.14-.012.153.023.925.135 1.059-.107h.059l.058-.012 2.389-.054.303-.055.175-.036.176.012.475.023-.045-1.199-.246-2.636-.024-.153.024-.152.258-2.578-.106-2.379-.012-.106.012-.093.012-.106.011-.14-.222-1.746-.832-1.864-1.852-1.242-1.863-1.242-2.133-.129zm-20.473 7.234-1.265 1.242-.13 2.098v.082l-.304 2.508-.07 2.027.371.407 1.309.074 1.568-.108.639-.076.117-.012h.117l.234.01.032-.002.032.005 2.339.105h.078l.184-.461.246-2.344-.153-2.367-.035-.539.012-.024-.457-1.394-1.407-1.243-1.734-.632zm20.278-21.527-.13.95.165 2.448.012.082-.012.094-.105 1.875.515.422 2.133.258 1.98.058.54-.48.011-1.98v-.106l.2-2.531-.118-1.008-1.148.117-.153.012-.152-.012-2.555-.281zm-36.277-5.012-.141 1.512-.012.105-.023.094-.598 2.567-.034.216 1.28-.053.106-.011.117.011 2.484.27 2.485-.246h.093l2.637-.106.094-.011.082.011 2.637.2-.012.011h2.437l2.637-.187.07-.012.082.012 2.637.07h.07l.059.012 2.438.281 2.425-.398.164-.024.164.012 2.532.14 2.566-.175.14-.012.141.024 2.508.304 1.04-.034.171-1.247 1.09.164L56 81.5h.785l1.77-.106.117-.011.129.011 2.484.27 2.485-.246 1.488-.14.152 1.476.125 1.183 1.043-.043.106-.011.117.011 2.484.27 2.484-.246h.094l2.637-.106.094-.011.082.011 2.636.2-.011.011h2.437l2.637-.187.07-.012.082.012 2.637.07h.07l.059.012 2.438.281 2.425-.398.164-.024.164.012 2.532.14 2.566-.175.14-.012.141.024 2.508.304 1.33-.043-.35-1.187-.023-.106-.023-.093-.364-2.344-.504-.82-1.652.257-.2.035-.198-.023-2.531-.293h-.092l-.135.23-.902-.035-2.152-.105-1.794.168-.164.012-.164-.024-1.978-.248-1.471.127h-.117l-2.637.024h-.106l-.105-.024-.311-.043-1.634.008h-.188l-.199-.024-2.153.114-.331.062-.246.047-.258-.047-.528-.088-.722.14-.246-.036-.43-.063h-.066l-1.632-.08-.904.174-.175.035-.176-.011-2.086-.112-.488.077-.118.023h-.117l-2.637-.012h-.105l-.105-.011-.463-.07-.769.048-.077.014-.036-.007-.417.026-.14.012-.141-.012-2.22-.28-.718.046h-.07l-.92.003-.99.184-.246.047-.258-.047-.899-.148-1.343.043.011.012-2.636.164-.54.023-.435-.31-1.611.252-.118.023h-.117l-2.636-.012h-.106l-.105-.011-.658-.1-2.202-.112-.5.041-.82.14-.211.034-.211-.023-.234-.03-.59.05-.14.011-.153-.011-1.188-.14-1.03.01h-1.524v-.127l-.057-.002-1.264.036h-1.395l-.054.004-.059.011h-.058l-1.048-.004h.001l-2.637.13h-.105l-2.637-.06-2.637-.046-.133-.004-1.21.125-.153.012-.152-.012-2.508-.27zm36.757-9.719-.14.024-.141-.012-1.323-.09-.259.043-.21.035-.212-.023-.956-.12-1.25.07.116 2.1v.223l-.246 2.414.327 1.859.036.005.714.075 1.962-.052.14-.012.142.024 1.063.17 1.882-.049v-.012l1.557-.097.267-.047.234-.047.235.035.068.009.276-.017.175-.011.176.035.672.119.508-.03h.152l.152.012 1.468.215h.02l1.997-.351.034.001-.194-1.224-.036-.211.024-.211.305-2.555.046-1.992-.294-.331-1.846-.114v-.012l-.696-.02L64 69.7l-.21.035-.212-.023-1.554-.193-1.653.052h-.117l-.117-.011-.417-.051zm31.922.07-.023.352-.14 2.637-.048 2.601.015 1.087.653.038h-.011l.311.015.606-.057h.118l.777-.008.25-.418.246-2.192-.012-2.566h-.011l-.141-1.629-.113-.047h-.285l-2.294-.042zm-47.836-.292-.058.011h-.201l.033.75v.153l-.024.14-.398 2.368.433 2.402.024.14v.141l-.01.853.327.038h.964l2.176-.126.187-.015h.07l.204-.011h.145l.34-.055.151-.024.165.012 2.543.14 1.065-.073.278-.036.117-.023.056.005-.27-1.564-.035-.199.011-.2.246-2.495-.12-2.207-.368.062-.21.035-.212-.023-1.613-.201-.016.002-.058.011h-.089l-.509.059-.059.012h-.07l-1.406.037-.332.033-.153.012-.152-.012-.118-.014-.476.014-.082.012-.07-.012-2.286-.163zm29.192.164-.258.047-.22-.04-.065 2.477v.07l-.012.07-.293 2.427.278 1.696.36.02.526-.076.094-.011h.093l2.637-.07.113-.01.13-.026.245.035 1.162.168 1.292-.191.187-.024.2.024.133.013.058-.01.176-.034.187.011.44.022.127-.752-.41-2.368-.048-.269.047-.258.399-2.308-.19-.667-.917-.05-.471.084-.258.047-.27-.047-.773-.136-2.18.218-.2.011-.198-.035-1.226-.217zm-33.715-.012-.153.012-.152-.012-.056-.007-.39.03-.081.012-.094-.011-2.637-.106h-.093l-.376-.038-.128 1.14.199 2.472.012.106v.094l-.118 2.332.235.644 1.652.059h-.012l1.798.039 1.335-.094.082-.012.07.012.232.006.007-.62-.446-2.495-.046-.258.035-.258.422-2.531-.022-.64zm44.285.035-.04.007.036.122.094.34-.059.328-.433 2.379.433 2.39.035.247-.035.257-.107.628 1.72.033.464-.01 1.408-.123.129-.012h.117l1.113.082-.012-.984v-.059l.059-2.636v-.047l.105-2.285-.316-.71-2.262.112-.176.011-.175-.035-1.155-.215zm-52.91-.093-.117.011-.106-.011-1.255-.053-.01 1.341.082 2.579.082 2.343.258.605.038-.003h.082l2.539-.102-.058-.16.012-.304.129-2.532-.211-2.554-.012-.153.012-.14.101-.891-.678-.073zm32.96-4.922-.117.011h-.128l-2.43-.087-.11.017-.152.023-.152-.011-1.243-.067-1.175-.015h-.012l-2.197-.059h-.541l-2.625.059h-.012l-1.445.025-.973.057-.152.011-.14-.023-.11-.017-2.441.087h-.118l-.129-.011-2.507-.328-.535.024-1.637.257-.094.011h-.094l-2.648.07h-.14l-.142-.023-1.46-.245-.926.105-.106.011h-.117l-1.043-.033-1.117.21-.234.034-.235-.035-1.928-.258h-.751l-1.484-.067-.346.003-.409.592.033 1.43 1.14-.047.105-.012.117.011.887.096 1.433-.154.152-.012.153.012 1.356.132.812-.033.175-.017h.094l.787-.032.034-.003h.016l1.8-.07.094-.012.082.011 2.358.178.736-.072h.093l2.637-.106.094-.011.082.011.983.075.716-.051.07-.012.082.012 2.637.07h.07l.059.012.22.025.257-.025h.093l.995-.04.72-.089.211-.023.211.035.151.025.349-.013.094-.012.082.011.567.043.498.013.415-.067.164-.024.164.012 1.982.11.112-.005.106-.011.117.011.281.03 2.5-.17.14-.012.141.024.291.035h.002l.164-.024.164.012 1.57.087.505.014 1.941-.078.094-.011.082.011.023.002.883-.06.14-.012.141.024 1.323.16.245-.006.073-.013.015-.003.637-.103.164-.024.164.012.48.026 1.188-.073.176-.011.176.035.81.143 1.336-.092.233-.04.097.018.602-.041.14-.012.141.024.646.078.475-.03.278-.048.199-.035.2.011.188.019.303-.019.176-.011.176.035.777.137.852.085 2.59-.14.14-.012h.001l.398-.07.199-.035.2.011 1.121.111.449-.064.246-.035.234.047.858.163.242-.013.998-.185.175-.035.176.011 2.637.13-.012.01 2.578.048 2.614-.047h.285l.113-.047.117-1.29-.27-.48-1.616.176-.188.024-.2-.035-1.752-.261-.443.014-.035.012h-.035l-2.306-.031-.409.02h.012l-2.648.152h-.094l-.106-.012-2.53-.2-1.104-.005-1.291.064h-.682l-1.998.258-.234.035-.235-.035-1.148-.208-1.012.032h-.106l-.105-.011-.898-.105-1.5.245-.141.024h-.14l-2.637-.07h-.094l-.094-.012-1.816-.275-.368-.018zm3.102-9.95-.14.024-.141-.012-1.432-.099-.31.052-.153.024-.164-.012-1.527-.085-1.512.085-.164.012-.164-.024-.313-.051-1.429.098-.14.012-.141-.024-2.032-.246-.808.094-.059.012h-.07l-2.637.07-.082.012-.07-.012-1.357-.097-.538.015.012.012-2.636.164-.176.011-.176-.035-1.034-.182-1.794.136-.082.011-.094-.011-1.226-.05-.54.096-.199.035-.2-.011-2.483-.246-2.567.14-.152.012-.14-.023-.224-.033-.085.01-.106-.013-2.543-.105h-.872l-.999 1.7-.176.316-.304.187-2.25 1.43-.094.058-.106.047-2.425 1.067-.165.082-.175.023-2.508.457-.926.317.61.222.011.012 2.297.832 1.348.093.015-.023.832.035 1.116.054 1.611-.007h.105l.106.012.518.07h1.794l1.298.041 1.206-.216.258-.047.246.047.739.118 1.328-.154.14-.023.153.012 2.472.21 1.848-.091.773-.12.118-.011h.117l2.636.012h.106l.105.011 2.324.338.9-.016 1.757-.099h.082l2.388-.01.042-.002h.254l.039.001 2.402.011h.07l1.427.087 1.297.03 2.257-.34.105-.011h.106l2.648-.012h.117l.106.012.708.112 1.913.087 2.484-.2.14-.011.153.023 1.35.152.705-.116.258-.047.258.047 1.142.213 1.35-.038h1.813l.5-.07.105-.012h.105l1.496.013 1.23-.06h.106l2.637.047 2.648.059h-.011.18l2.19-.105.153-.012.152.023.621.094 1.907-.059 2.543-.093 2.308-.48 1.84-.517-.844-.257h-.023l-.023-.012-2.485-.867-.082-.035-.07-.035-2.356-1.126-.164-.07-.14-.117-1.993-1.617-.28-.223-.142-.328-.492-1.102-1.722.082-.118.012-.105-.011-.016-.003-.21.061-.258-.012-2.59-.14-2.473.246-.2.011-.198-.035-.54-.095-1.226.048-.082.012-.094-.011-1.79-.136-1.026.182-.176.035-.176-.011-2.648-.164v-.012l-.525-.015-1.346.097-.082.012-.07-.012-2.649-.07h-.059l-.07-.012-.813-.095zm16.73-6.05-.128.011h-.13l-.587-.021-.205.025-.164.024-.152-.012-.96-.09-.568-.02v-.011l-2.625-.035-1.414-.038-2.05.23-.2.023-.187-.036-1.579-.235-2.363.138-.152.011-.152-.023-.916-.139-2.456.143-.105.012-.106-.012-2.543-.204-1.351.212-.094.011h-.093l-2.649.07h-.14l-.141-.023-.082-.014-.5.065-.235.035-.234-.047-1.889-.332-1.83.34-.234.035-.234-.035-.465-.062-.258.043h-.14l-2.637-.07h-.094l-.094-.024-1.44-.211-2.466.207-.106.012h-.105l-2.45-.142-.91.134-.152.023-.152-.011-2.477-.136-1.465.225-.199.036-.187-.024-1.664-.192-.114.009.035 1.195.053 1.663 1.154.168 2.31-.25.151-.01.153.01 2.636.259-.011.011.992.038 1.813-.319.269-.047.258.047 1.18.206.515-.042h.117l2.637-.011h.059l.058.011 1.14.082 4.536-.14h.117l.117.011.243.03 1.476-.182.211-.023.211.035 2.025.34.838-.059.082-.012.094.012.959.055.959-.055.094-.012.082.012.852.057 2.011-.338.211-.035.211.023 1.467.182.252-.03.117-.011h.117l4.532.14 1.144-.082.059-.011h.058l2.637.011h.117l.51.041 1.185-.205.27-.047.258.047 1.802.319.99-.038 2.637-.27.153-.01.152.01 2.027.22.559-.16.293-1.547-.07-1.242-1.196-.176-1.835-.028zM54.056 32.699l-.153.024-.164-.012-2.543-.14-2.566.175-.14.012-.13-.024-2.53-.304-2.485.07.011.012-1.253.082-.34 1.535-.094.48-.375.328-2.004 1.782-1.7 1.863-.21.234-.281.13-2.45 1.077-2.285 1.16-.187.094-.188.047-2.414.48-2.074 1.067.035.023.082.07 1.98 1.466 2.028.914 2.32.105.047.012h.047l.671.074.657-.047.059-.011h.058l2.543.022.899-.132.152-.023.14.011 2.589.126 1.377-.204.105-.023h.105l2.637-.012h.117l.118.024 1.022.157 2.407-.02h.117l.106.011 1.71.233 2.09-.346.259-.035.246.047.238.042.262-.046.258-.047.257.047 2.107.339 1.694-.23.105-.012h.106l2.427.011 1.003-.155.117-.012h.117l2.637.012h.117l.105.011 1.431.21 2.523-.124.152-.011.14.023.808.124 2.634-.01h.047l.996.026.402-.046.094-.012h.094l2.637.024h.128l1.63.155 1.179.033 2.148-.27.106-.012h.105l.523.009.282-.037.14-.011h.13l2.601.117 2.285-.188 2.016-.796 2.156-1.278.024-.023.445-.258-1.793-.492-.07-.024-2.508-.843h-.024l-.023-.012-2.484-.914-.07-.024-.071-.035-2.39-1.172-.118-.058-.117-.094-2.133-1.605-.152-.106-.117-.14-1.676-2.087-.223-.269-.07-.328-.516-2.18-1.43.07-.117.012-.105-.011-2.508-.27-2.473.246h-.082l-2.648.105-.082.012-.094-.011-2.637-.2v-.011h-2.425l-2.625.187-.082.012-.07-.012-2.637-.07h-.07l-.071-.012-2.437-.281zm-11.73-7.21.163 2.308.328.762.516.035.234-.82-.187-1.876-.387-.457zm35 0 .163 2.308.328.762.516.035.234-.82-.187-1.876-.387-.457z"/></svg>