<svg width="120" height="120" viewBox="0 0 120 120" fill="none" xmlns="http://www.w3.org/2000/svg">
<path d="M95.8506 54.7139L97.1865 56.8232L97.2451 56.9053L97.2803 56.999L98.4053 59.4014L98.4639 59.5303L98.499 59.6592L99.1318 62.1787L99.8936 64.6982L99.9053 64.7217V64.7451L100.573 67.2998V67.3232L101.194 69.8779L101.206 69.9131L101.218 69.96L101.698 72.5498L101.722 72.7139L101.921 75.3389L101.933 75.3975V75.4443L101.944 78.0811V78.1865L101.78 80.8115V80.8232L101.604 83.4482L101.581 83.6357L101.077 86.2256L101.065 86.2607L101.054 86.3076L100.409 88.8623L100.374 89.0264L100.292 89.1787L99.1318 91.4404L98.2061 93.8662L98.1475 94.0186L98.0537 94.1592L96.5889 96.3506L95.3701 98.5654L95.2764 98.7295L95.1475 98.8701L93.3193 100.804L93.2725 100.839L93.2373 100.874L91.2803 102.655L91.2334 102.702L91.1865 102.737L89.0889 104.354L89.0654 104.366L89.042 104.39L86.8857 105.901L86.8623 105.925L84.6709 107.413L84.5068 107.519L84.3193 107.589L81.8936 108.397L81.9053 108.409L79.6084 109.394L77.3115 110.694L77.1826 110.765L77.0537 110.8L74.5459 111.667L74.3818 111.726L74.1943 111.737L71.7334 111.948L69.46 112.862L69.2021 112.968H68.9326L66.2959 113.003L63.7764 113.284L63.7646 113.272L61.1748 113.612L61.0342 113.624H60.8936L58.2568 113.448H58.2217L58.1865 113.437L55.6904 113.155L53.1123 113.249L52.8779 113.261L52.6436 113.19L50.1357 112.476L47.6045 111.948V111.937L45.0381 111.479L44.8389 111.444L44.6514 111.362L42.249 110.214H42.2373L39.9053 109.323L39.835 109.3L39.7646 109.265L37.4092 108.093L37.3506 108.069L37.292 108.034L35.124 106.687L32.792 105.761L32.5107 105.644L32.2881 105.433L30.4248 103.593L28.4443 102.069L28.3037 101.964L28.1982 101.823L26.6396 99.9131L24.6826 98.249L24.4248 98.0381L24.2842 97.7334L23.2061 95.3779L21.8467 93.2803L21.7881 93.21L21.7529 93.1279L20.6045 90.7607L20.5693 90.6904L20.5459 90.6318L19.6084 88.1592L19.5498 87.9834L19.5264 87.7959L19.2451 85.3115L18.6826 82.7451L18.6475 82.5928V82.4404L18.6123 79.8857L18.1904 77.3896L18.1553 77.1201L18.2021 76.8623L18.6943 74.249H18.7061L19.1045 71.6943L19.3975 69.1396L19.4092 69.0459L19.4326 68.9521L20.042 66.3857L20.0654 66.3037L20.1006 66.21L21.0146 63.7373L21.7061 61.3115L22.374 58.7686L22.4209 58.6045L22.5029 58.4404L23.71 56.1787L24.6123 53.9053V53.917L24.6475 53.835L26.042 54.3623L27.4482 54.8896L27.4131 54.9834V54.9951L27.4014 55.0068L26.4756 57.3623L26.4053 57.5264L25.2217 59.7061L24.6006 62.1084L24.5889 62.1201V62.1318L23.8623 64.6748L23.8506 64.7217L23.8271 64.7803L22.9131 67.2646L22.3623 69.5381L22.0811 72.1045V72.1396L22.0693 72.1631L21.6592 74.7646L21.6475 74.7881V74.8115L21.1904 77.1787L21.5771 79.5459L21.6006 79.6514V79.7686L21.6357 82.2412L22.1748 84.667L22.1865 84.7373L22.1982 84.8193L22.4678 87.2451L23.2998 89.4365L24.4014 91.7334L25.7959 93.8545L25.8545 93.9482L25.9014 94.042L26.874 96.1748L28.667 97.6865L28.7725 97.7803L28.8545 97.8857L30.4014 99.7842L32.3701 101.308L32.4404 101.366L32.499 101.425L34.1748 103.077L36.4014 103.979L36.5186 104.026L36.624 104.097L38.7451 105.409L41.0186 106.534L43.4326 107.46L43.4912 107.472L43.5498 107.507L45.7412 108.55L48.1787 108.995L48.2021 109.007H48.2256L50.8037 109.558L50.8623 109.569L50.9092 109.581L53.2295 110.237L55.6787 110.155H55.7842L55.8896 110.167L58.4326 110.448H58.4443L60.9521 110.612L63.4248 110.296H63.46L66.085 110.015H66.2139L68.5928 109.968L70.8428 109.089L71.0537 109.007L71.2646 108.983L73.7373 108.761L75.9404 108.011L78.167 106.769L78.2373 106.733L78.2959 106.71L80.71 105.655L80.7686 105.632L80.8154 105.608L83.1357 104.812L85.1514 103.452L87.3076 101.929L89.3584 100.358L91.21 98.6592L92.8271 96.9365L94.0225 94.7803L94.0576 94.7217L94.0928 94.6748L95.4521 92.6357L96.3545 90.3271L96.3779 90.2451L96.4131 90.1748L97.5381 87.96L98.124 85.6514L98.6045 83.1436L98.7803 80.6123L98.9443 77.999L98.9326 75.5732L98.7334 72.9951L98.2646 70.5107V70.499L97.6553 68.0264V68.0146L96.999 65.5068V65.4951L96.2607 63.0459L96.2373 62.9756L95.6279 60.5381L94.585 58.3232L93.2373 56.1904L93.1553 56.0615L93.0967 55.9209L92.71 54.8896L95.5225 53.835L95.8506 54.7139Z" fill="black"/>
<path d="M100.056 68.4121L98.626 68.8105L98.5908 68.7051L98.1807 67.1699L99.7275 66.8418L102.06 66.3496H102.083L104.638 65.834L106.899 65.1191L109.173 63.959L111.106 62.8105L111.915 61.873L111.2 60.748L109.384 59.1426V59.1309L107.38 57.5137V57.502L105.329 55.8496L105.306 55.8379L105.282 55.8145L103.302 54.0566H103.29L101.333 52.2871L99.4463 50.5996L97.3604 48.9707L97.3252 48.959L97.3018 48.9355L95.333 47.248L93.2705 45.584L93.1885 45.5254L93.1182 45.4434L91.4072 43.6152L89.3682 42.1504L89.2979 42.0918L89.2275 42.0215L87.4229 40.334L85.2666 38.9512L85.1611 38.8926L85.0674 38.7988L83.1221 37.0527L81.1416 35.3066H81.1299L79.1494 33.5605V33.5488L77.2158 31.9551L75.0947 30.3848L74.9775 30.291L74.8721 30.1855L73.126 28.2637L71.2979 26.7285L69.1064 25.4395L69.0244 25.3926L68.9541 25.334L66.8682 23.7168L66.751 23.623L65.0635 21.7246L62.9424 20.5527L62.7314 20.4355L62.5674 20.2598L60.9854 18.5957L59.8018 18.1738L58.5361 19.3691L58.4541 19.4512L58.3604 19.5098L56.1924 21.0215H56.1807L54.0947 22.4512L52.3604 24.2441L52.208 24.3848L52.0439 24.4902L49.8057 25.7793L47.7783 27.3145L45.8799 28.9902L45.7627 29.0957L45.6221 29.1777L43.3721 30.4316L41.3682 31.9551L41.3564 31.9785L41.333 31.9902L39.1768 33.5137L39.1533 33.5254L39.1416 33.5371L37.0791 34.8965L35.4033 36.748L35.2393 36.9238L32.8135 38.2715L30.9502 39.9004L30.8682 39.9707L30.7861 40.0293L28.7354 41.3418L27.1064 43.2168L26.9424 43.416L26.7197 43.5332L24.5635 44.752L22.7822 46.4746V46.4863L22.7705 46.498L20.8486 48.3027L20.8369 48.291L18.9736 50.1309L18.9033 50.2012L18.8213 50.2598L16.8057 51.7363L15.1533 53.6113L15.1064 53.6699L15.0479 53.7168L13.2432 55.3926L11.8955 57.4785L11.79 57.6426L11.6494 57.7715L9.71582 59.5293L8.36816 61.1113L8.18066 62.3535L9.3877 63.4199L11.4385 64.5801L13.7822 65.2715L16.2783 65.7402L16.3955 65.7637L16.5127 65.7988L18.915 66.666L21.2705 67.1113L21.3525 67.123L21.4229 67.1465L21.5166 67.1699L21.0947 68.6113L20.8252 69.5254L20.7197 70.0527L20.6729 70.041V70.0527L20.6143 70.0293L18.2236 69.5957L18.1064 69.5723L17.9893 69.5254L15.6338 68.6699L13.126 68.2129L12.9619 68.166L10.4189 67.4043L10.2666 67.3574L10.1143 67.2754L7.80566 65.9629L7.66504 65.8926L7.54785 65.7871L5.59082 64.0762L4.96973 63.5371L5.09863 62.7285L5.47363 60.2441L5.53223 59.8223L5.81348 59.4941L7.53613 57.4785L7.66504 57.3496L9.48145 55.6738L10.8408 53.5996L10.9346 53.4473L11.0752 53.3301L12.9033 51.6191L14.6611 49.6387L14.7666 49.5215L14.8955 49.4277L16.8994 47.9395L18.7744 46.1348L18.7979 46.1113L20.7197 44.3066L22.6064 42.4785L22.7471 42.3496L22.9111 42.2559L24.9971 41.0605L26.6143 39.2207L26.7432 39.0684L26.9189 38.9512L29.0752 37.5449L30.9854 35.9043L31.1025 35.7988L31.2314 35.7285L33.3408 34.5449L35.0049 32.7402L35.1221 32.6113L35.2744 32.5059L37.4775 31.041L39.5518 29.5645L41.6611 27.9707L41.7432 27.9121L41.8369 27.8535L44.0283 26.623L45.8799 24.9824L45.9736 24.9121L48.0947 23.3301L48.165 23.2715L48.2354 23.2246L50.3564 21.9941L52.0908 20.2363L52.1846 20.1309L52.3018 20.0488L54.4814 18.5488L56.5439 17.1074L58.4189 15.3613L59.0869 14.7402L59.9424 15.0449L62.3213 15.8887L62.6729 16.0059L62.9189 16.2637L64.583 18.0215L66.7275 19.2051L66.9619 19.334L67.1377 19.5332L68.7783 21.3848L70.7705 22.9316L72.9385 24.2207L73.0322 24.2793L73.126 24.3613L75.1533 26.0488L75.3174 26.1895L77.0049 28.0645L78.9971 29.541L79.0322 29.5645L79.0674 29.5996L81.1064 31.2754L81.1416 31.3105L83.1221 33.0566H83.1104L85.1025 34.791L85.1143 34.8027L87.0244 36.5254L89.1221 37.8613L89.2393 37.9316L89.3447 38.0254L91.2432 39.7949L93.2705 41.2598L93.3994 41.3418L93.4932 41.459L95.2393 43.3105L97.208 44.9043L97.2432 44.9395L99.1885 46.6035L101.286 48.2207L101.333 48.2559L101.368 48.291L103.337 50.0488V50.0605L105.306 51.8184H105.294L107.216 53.5176L109.278 55.1816L111.329 56.8457L111.376 56.8926L113.356 58.6387L113.521 58.7793L113.638 58.9668L115.044 61.2285L115.63 62.166L114.915 62.998L113.239 64.9434L113.075 65.1309L112.864 65.2598L110.614 66.584L110.544 66.6309L108.177 67.8496L108.071 67.8965L107.942 67.9434L105.423 68.7402L105.259 68.7871L102.657 69.291L102.646 69.2793L100.36 69.7832L100.056 68.4121Z" fill="black"/>
<path d="M57.4194 18.6343L58.8843 18.9858L58.8608 19.0796L58.3921 21.5171L58.3687 21.6226L58.3335 21.728L57.5015 24.0835L57.1616 26.5679L57.1499 26.603V26.6499L56.6343 29.2397L56.6226 29.3218L56.5874 29.4155L55.8022 31.8179L55.1929 34.396L54.7827 36.8921L54.771 36.9624L54.7476 37.0444L54.0679 39.5874L54.0562 39.6577L54.0327 39.7163L53.1772 41.9897L53.0132 44.4741L53.0015 44.6382L52.9546 44.7905L52.2163 47.2515L51.8062 49.7593L51.771 49.9116L51.7241 50.0522L50.8569 52.2788L49.5327 51.7515L49.1812 53.2046L49.1108 53.1929L47.4468 52.7944L48.0679 51.189L48.8765 49.103L49.2866 46.6538L49.2983 46.5601L49.3335 46.478L50.0132 44.0991L50.2124 41.5913L50.2241 41.3804L50.2944 41.1812L51.2085 38.6851L51.853 36.2593L52.2515 33.7983L52.2749 33.6812L52.896 31.1147L52.9077 31.0679L52.9194 31.0093L53.7046 28.5835L54.1968 26.0757L54.5483 23.521L54.5718 23.3804L54.6187 23.228L55.4507 20.8374L55.9312 18.4468V18.4116L55.9429 18.3882L55.9663 18.2827L57.4194 18.6343Z" fill="black"/>
<path d="M64.0361 18.3765L64.6455 20.8374L64.6689 20.9429L64.6807 21.0483L64.9385 23.5444L65.7119 25.8999L65.7236 25.9351V25.9702L66.415 28.5249L66.4385 28.6069L66.4502 28.689L66.8252 31.1968L67.4111 33.7397L68.1846 36.1772L68.2314 36.3179L68.7822 38.896L68.7939 38.9546L68.8057 39.0249L69.1104 41.4507L70.0947 43.7007L70.165 43.853L70.1885 44.0054L70.6924 46.5015L71.501 48.9272L71.5479 49.0444L71.5596 49.1733L71.9346 51.5171L70.4463 51.7515L68.9697 51.9858L68.6064 49.7593L67.8213 47.3687L67.7979 47.2749L67.7744 47.1929L67.2822 44.7437L66.2744 42.4468L66.1924 42.2476L66.1689 42.0366L65.8291 39.3999H65.8174L65.29 36.9507V36.939L64.5283 34.5601L64.5049 34.5015L64.4932 34.4429L63.8955 31.8765L63.8721 31.7593L63.4971 29.228L62.8291 26.7554V26.7437L62.0322 24.2944L61.9854 24.1538L61.9736 23.9897L61.7275 21.4585L61.1299 19.0913L61.1182 19.0679V19.0444L61.0947 18.9507L64.0244 18.3179L64.0361 18.3765Z" fill="black"/>
<path d="M61.1572 82.4551L63.7588 82.877L64.0635 82.9238L64.3096 83.0879L66.4893 84.4473L66.9697 84.7402L67.1338 85.2793L67.8369 87.5176L68.0361 88.1738L67.6846 88.748L66.3135 90.9863L66.1025 91.3379L65.7393 91.5371L63.3955 92.791H63.3721L63.3604 92.8027L61.3564 93.7988L60.9229 95.0176L59.3525 94.0332L57.7354 93.0254L55.4619 91.959L55.2158 91.8418L55.04 91.666L53.2236 89.8379L52.9541 89.5684L52.8369 89.2051L52.1221 86.7559L51.8174 85.7012L52.7314 85.0801L54.9346 83.6035L55.1689 83.4512L55.4268 83.3926L57.958 82.7832L58.04 82.7598H58.1338L60.7471 82.4551L60.9463 82.4316L61.1572 82.4551ZM60.1846 92.6973L60.5127 92.8145L60.4775 92.7559L60.3604 92.6973L60.2314 92.627L60.1846 92.6973ZM58.5205 85.7246L56.3877 86.2402L55.3096 86.9551L55.6025 87.9746L56.9619 89.3457L59.1064 90.3652L59.1885 90.4004L59.2588 90.4473L60.1963 91.0215L62.0127 90.1191L63.958 89.0762L64.7549 87.7637L64.415 86.6855L62.9854 85.7949L60.8877 85.4434L58.5205 85.7246Z" fill="black"/>
<path d="M49.8013 25.75L49.7544 25.832L49.7427 25.8203L48.6177 28.0352L48.5005 28.2227L47.0239 30.2617L46.0044 32.5352L45.981 32.5703L45.9692 32.6055L44.7505 34.9492L44.7036 35.0312L44.6567 35.1016L43.1685 37.293L41.9028 39.4844L40.8013 41.7695L40.7778 41.8281L40.731 41.8984L39.3599 44.1484L39.3247 44.207L39.2778 44.2656L37.813 46.2344L36.9575 48.5312L36.8989 48.6836L36.8169 48.8242L35.4692 50.8867L34.3091 53.2656L34.1333 53.6055L33.8286 53.8281L33.3364 54.1797L32.4692 52.9492L31.8364 52.0469L31.6138 51.9414L31.6724 51.8242L31.6021 51.7305L31.7896 51.6016L32.7739 49.5742L32.8091 49.4922L32.856 49.4102L34.1919 47.3477L35.0825 44.9805L35.1646 44.7812L35.2817 44.6055L36.8169 42.543L38.1763 40.3281L39.2544 38.0781L39.3013 37.9844L40.6255 35.6992L40.6489 35.6406L40.6841 35.6055L42.1724 33.4141L43.3091 31.2227L44.3638 28.8789L44.4224 28.7383L44.5161 28.6211L45.981 26.5586L47.1177 24.4023L47.1294 24.3672L47.1528 24.3438L47.1997 24.25L49.8013 25.75Z" fill="black"/>
<path d="M68.2051 21.0132L69.7637 23.0288L69.834 23.1108L69.8926 23.2163L71.1113 25.4194L72.7168 27.3179L72.752 27.353L72.7754 27.3882L74.3574 29.5093L74.416 29.5796L74.4629 29.6616L75.7168 31.8647L77.1934 34.0679H77.1816L78.7402 36.0718L78.7988 36.1304L78.834 36.2007L80.2285 38.4507L80.2988 38.5679L81.3887 40.771L83.041 42.5991L83.1582 42.7163L83.2402 42.8687L84.5059 45.1069L86.0059 47.1694L86.0879 47.2866L86.1465 47.4155L87.2246 49.7358L88.6074 51.8452L88.6426 51.9038L88.6777 51.9507L88.8301 52.2437L87.5176 52.9585L86.1934 53.6733L86.0996 53.4976L84.6582 51.2827L84.5996 51.189L84.5527 51.0952L83.4746 48.7749L82.0215 46.7827L81.9629 46.7124L81.9277 46.6421L80.7207 44.5093L79.0215 42.6343L78.8809 42.4702L78.7871 42.2827L77.6387 39.9741L76.3027 37.8179L74.7559 35.8257L74.7207 35.7788L74.6973 35.7319L73.2207 33.5405L73.1738 33.4468L71.9199 31.2554L70.373 29.1812H70.3613L68.7207 27.2358L68.627 27.1187L68.5566 26.9897L67.3027 24.7397L65.8379 22.8413L65.8145 22.8179L65.791 22.7827L65.7324 22.7007L68.1934 20.9897L68.2051 21.0132Z" fill="black"/>
<path d="M55.3516 50.0068L57.9062 50.2295L60.4258 50.0771H60.5781L60.7305 50.1006L63.1211 50.4639L65.5469 50.0654L65.7344 50.0303L65.9219 50.042L68.5117 50.2646L71.1602 50.417L71.1484 50.4287L73.7617 50.4873L73.8672 50.499L73.9844 50.5107L76.4453 50.9678L78.9414 50.8975H79.0117L79.082 50.9092L81.707 51.085H81.8125L81.9062 51.1084L84.332 51.6006L86.8047 51.46L86.957 51.4482L87.1094 51.4717L89.7344 51.8818H89.7578L92.2422 52.3154L94.8203 52.4443H94.8906L94.9492 52.4561L97.5742 52.8076L97.6914 52.8193L97.7969 52.8545L100.141 53.5459L102.602 53.5342H102.871L103.129 53.6279L105.555 54.5186L107.98 54.9873L107.793 55.9131L107.957 56.3701L108.449 57.7881L108.191 57.8818L107.805 58.0107L107.418 57.9404L104.828 57.4365L104.711 57.4131L104.594 57.3779L102.332 56.5342L99.9297 56.5576H99.707L99.4961 56.499L97.0352 55.7607L94.6094 55.4326L92.0312 55.3154H91.9375L91.8438 55.292L89.2656 54.835L86.7812 54.4482L84.2969 54.6006L84.1094 54.6123L83.9219 54.5654L81.4023 54.0615L78.918 53.8975L76.3633 53.9678H76.2109L76.0586 53.9443L73.5508 53.4756L71.0195 53.4053H70.9844L68.3477 53.2529H68.3125L65.8164 53.0537L63.3906 53.4639L63.1562 53.499L62.9219 53.4639L60.4141 53.0771L57.9531 53.2178L57.8477 53.2295L57.7422 53.2178L55.3047 53.0068L52.8789 53.499L52.6328 53.5459L52.375 53.5107L49.9258 53.1475L47.4648 53.4053L47.4531 53.417H47.4414L44.8047 53.6279L44.8164 53.6396L42.1914 53.9092L42.0859 53.9209L41.9805 53.9092L39.4961 53.8037L37.0117 54.2139L36.9297 54.2256H36.8594L34.3867 54.3662L31.9844 55.0811L31.7969 55.1396H31.5977L29.0195 55.1982L26.5586 55.5381L24.0977 56.1709L24.0625 56.1826L24.0156 56.1943L21.4258 56.7217H21.3906L21.3555 56.7334L18.8359 57.1084L16.5273 57.7998L16.5391 57.8115L13.9609 58.8428L13.8438 58.8662L11.3594 59.4053L9.19141 60.3545L9.10938 60.3779L8.93359 60.4365L8.5 58.9951L8.24219 58.1279L8.00781 57.5889L10.3398 56.5928L10.4688 56.5342L10.6094 56.499L13.1289 55.9482L15.4141 55.0225L15.4844 54.999L15.543 54.9756L18.0742 54.2139L18.1797 54.1787L18.2852 54.167L20.8047 53.7803L23.3477 53.2646L25.9141 52.6084L25.9961 52.585L26.0898 52.5732L28.7031 52.2217L28.7852 52.21H28.8672L31.3047 52.1396L33.6953 51.4365L33.8711 51.3896L34.0352 51.3779L36.6719 51.2373L39.1445 50.8271L39.2969 50.8037H39.4492L41.9453 50.9209L44.5234 50.6514H44.5352L47.1484 50.4404V50.4287L49.7852 50.1475L49.9609 50.124L50.1484 50.1592L52.5391 50.499L54.9297 50.0303L55.1406 49.9951L55.3516 50.0068Z" fill="black"/>
<path d="M76.1558 66.0669L77.8784 67.9302L78.23 68.3286L78.2651 68.856L78.4175 71.2935L78.4526 71.9263L78.0308 72.395L76.2964 74.3169L75.6519 75.0317L74.7378 74.7388L72.2886 73.9771L71.5854 73.7661L71.3276 73.0864L70.6597 71.3169L70.437 71.0239L70.3315 70.895L70.4604 70.8013L70.4136 70.6958L70.8237 70.5435L71.48 70.0747L70.2847 69.5239L71.3276 67.2739L71.5972 66.6997L72.1948 66.4888L74.562 65.6685L75.4878 65.3521L76.1558 66.0669ZM73.7769 69.1138L73.3667 70.0044L73.8706 71.3286L74.7026 71.5864L75.3706 70.8481L75.3003 69.5708L74.6089 68.8208L73.7769 69.1138Z" fill="black"/>
<path d="M71.9165 96.2061L71.9399 96.2998L73.0767 97.0498L71.6821 99.2061L71.4829 99.499L71.1899 99.6865L68.9399 101.011L68.7759 101.104L68.5884 101.163L66.0688 101.878L65.7056 101.983L65.354 101.901L62.729 101.362L62.354 101.28L62.061 101.034L60.022 99.3115L59.9634 99.2646L59.9165 99.2061L59.0962 98.3506L60.1743 97.3076L61.2524 96.2764L61.9673 97.0264L63.6899 98.4912L65.5884 98.8896L67.5806 98.3271L69.3501 97.2725L70.5571 95.4209L70.8735 94.9404L71.4243 94.7881L71.5181 94.7646L71.9165 96.2061Z" fill="black"/>
<path d="M61.9902 92.6875L61.8496 93.8125L61.627 96.3672L61.5918 96.6953L61.4277 96.9766L60.127 99.2617L59.916 99.6367L59.541 99.8359L57.2559 101.066L57.0684 101.16L56.8574 101.207L54.3496 101.758L54.0918 101.816L53.8223 101.781L51.1973 101.406L50.6934 101.336L50.3418 100.973L48.4785 99.0977L48.291 98.9102L48.1738 98.6523L47.1543 96.3438L48.4082 95.7812L48.4316 95.6992L48.959 94.3047L49.0527 94.3398L49.6387 94.5625L49.8965 95.1367L50.7988 97.1758L52.1113 98.5L53.9863 98.7578L56.0137 98.3125L57.7363 97.3984L58.6621 95.7578L58.8613 93.4961V93.4727L58.873 93.4375L59.0137 92.3125L61.9902 92.6875Z" fill="black"/>
<path d="M46.3491 65.9199L46.4194 65.9434L46.478 65.9785L48.7397 67.0215L49.4429 67.3496L49.5835 68.1113L50.064 70.6543L50.2046 71.3574L49.7476 71.8965L48.1069 73.8535L47.7085 74.334L47.0874 74.3809L44.7788 74.5684L44.1108 74.6152L43.6304 74.1582L41.7085 72.3418L41.0757 71.7559L41.2749 70.9121L41.8491 68.3691L41.9897 67.7949L42.4702 67.4668L44.5093 66.0605L45.3062 67.209H45.3179L45.5405 67.0801L46.0093 65.8027L46.3491 65.9199ZM44.6382 69.5996L44.3804 70.748L45.2007 71.5098L46.2085 71.4395L46.9819 70.5137L46.7827 69.4238L45.6577 68.8965L44.6382 69.5996Z" fill="black"/>
<path d="M74.5586 59.5049L74.7109 59.5283L77.3125 60.0322L77.6289 60.0908L77.8867 60.2666L80.0781 61.79L80.1016 61.8018L82.2344 63.3252L82.3516 63.4072L82.4453 63.501L84.2617 65.3994L84.3438 65.4814L84.4141 65.5869L85.8672 67.6846L87.5781 69.583L87.8008 69.8291L87.8945 70.1455L88.6797 72.6885L88.6914 72.7119L89.418 75.2197L89.5 75.501L89.4766 75.7705L89.2422 78.3018L89.2539 78.3135L89.1367 80.9854L89.125 81.4307L88.8555 81.8057L87.2852 83.9619L87.2734 83.9736L87.2617 83.9971L85.6797 86.0361L85.5273 86.2236L85.3281 86.3643L83.1484 87.8174L82.9375 87.9697L82.6797 88.0283L80.125 88.6729L79.6328 88.79L79.1641 88.5908L76.7969 87.5713L76.5625 87.4658L76.375 87.29L74.5117 85.5674L74.3008 85.3682L74.1719 85.0986L73.1406 82.9072L71.5234 81.0088L71.418 80.8799L71.3359 80.7393L70.1172 78.4424L68.7344 76.5439L66.9531 74.6572L66.8125 74.5166L66.7188 74.3408L65.4531 72.0322L65.3125 71.7744L65.2891 71.4697L65.0078 68.8799L64.9961 68.7158L65.0195 68.54L65.3359 65.9854L65.3594 65.7744L65.4297 65.5869L66.4492 63.1377L66.6016 62.7861L66.8945 62.54L68.957 60.8877L69.1211 60.7588L69.3086 60.6885L71.6406 59.6924L72.1562 60.8994L72.2617 60.9697H72.4609L72.4492 59.5283L74.4062 59.5049H74.5586ZM72.625 62.5166L70.6445 63.3721L69.0742 64.626L68.2773 66.5361L68.0078 68.7393L68.2305 70.8604L69.2617 72.7354L70.9492 74.5166L71.0195 74.5869L71.0781 74.6689L72.6367 76.8135L72.6953 76.8955L72.7422 76.9893L73.9023 79.1924L75.543 81.0908L75.6719 81.2432L75.7539 81.4307L76.75 83.54L78.2266 84.9111L79.8789 85.626L81.6953 85.1807L83.4414 83.9971L84.8594 82.1924L86.1602 80.3877L86.2539 78.1963V78.126L86.4531 75.8057L85.8086 73.5674L85.1289 71.3408L83.5586 69.5947L83.4883 69.5244L83.4414 69.4424L82.0234 67.3799L80.3477 65.6572L78.3555 64.2393V64.2275L76.4336 62.915L74.2773 62.5049L72.625 62.5166Z" fill="black"/>
<path d="M47.5488 59.5376H47.748L47.9238 59.5845L50.5137 60.2642L50.959 60.3813L51.2637 60.7329L53.0098 62.7485L53.1504 62.936L54.5098 65.1509L54.6621 65.397L54.709 65.6782L55.166 68.2329L55.2246 68.5142L55.166 68.8071L54.627 71.3149L54.6152 71.3853L54.5918 71.4556L53.7949 73.9868L53.6777 74.3735L53.373 74.6548L51.5098 76.3423L50.1035 78.3813L50.0684 78.4399L50.0215 78.4868L48.4746 80.3384L47.6426 82.6001L47.5605 82.7993L47.4316 82.9751L45.8496 85.1079L45.8379 85.1196L44.291 87.147L44.0332 87.4985L43.6348 87.6509L41.2324 88.5649L40.8691 88.7056L40.4824 88.647L37.8691 88.2603L37.4941 88.2017L37.1895 87.979L35.0918 86.397L34.9746 86.3032L33.0762 84.5337L32.8652 84.3462L32.7363 84.0767L31.623 81.7212V81.7095L31.6113 81.686L30.5449 79.2368L30.3926 78.8618L30.4395 78.4634L30.7324 75.8149L30.7559 75.6978L30.7793 75.5923L31.4707 73.0845L31.4941 73.0259L31.5059 72.9673L32.4082 70.4946L32.4434 70.3657L32.5137 70.2485L33.8496 67.9634L33.9199 67.8345L34.0137 67.7173L35.7598 65.7485L35.7715 65.7368V65.7251L37.541 63.7915L37.6348 63.6978L39.6035 61.9048L39.791 61.729L40.0371 61.6235L42.498 60.6157L44.8418 59.6548L45.2285 60.6157L45.498 60.979H45.6738L45.6855 60.9673V59.5259L47.5488 59.5376ZM43.6348 63.3931L41.4082 64.2954L39.709 65.8657L37.998 67.7173L38.0098 67.729L36.3574 69.5923L35.1504 71.6665L34.3652 73.8813L33.7207 76.2017L33.4512 78.4048L34.3418 80.4438L35.3262 82.5415L36.9785 84.0649L38.6895 85.3423L40.5176 85.6235L42.1582 84.9907L43.4473 83.3032L44.9004 81.3345L45.7559 79.0376L45.8496 78.8032L46.0137 78.604L47.666 76.6235L49.1543 74.4907L49.248 74.3501L49.377 74.2446L51.0527 72.6978L51.7324 70.5532L52.1543 68.479L51.8027 66.4868L50.6426 64.6001L49.2832 63.0298L47.3496 62.5259H45.7441L43.6348 63.3931Z" fill="black"/>
</svg>
