<svg width="120" height="120" viewBox="0 0 120 120" fill="none" xmlns="http://www.w3.org/2000/svg">
<path d="M64.4619 2.41992H64.7783L65.083 2.56055L67.5088 3.68555L67.8955 3.86133L68.1299 4.21289L69.5596 6.36914L69.6768 6.54492L69.7354 6.74414L70.5322 9.26367L70.6963 9.75586L70.5088 10.248L69.6064 12.5566L69.2197 15.0645L69.1494 15.5566L69.1221 15.583L69.4229 17.1113L69.4932 17.4277L69.4229 17.7441L68.8369 20.2637L68.499 22.0918L69.9189 22.9199L69.9775 22.9551L70.0244 22.9902L72.0635 24.4082L74.3838 25.5098L74.5576 25.5947L74.5635 25.584L76.8955 26.627L77.165 26.7559L77.3643 26.9551L79.2041 28.8652L79.5439 29.2168L79.6143 29.709L79.9424 32.1465L79.9541 32.2637V32.3926L79.8604 35.041V35.1465L79.8486 35.252L79.3916 37.8535L79.1807 40.1738L79.2744 42.8105V42.834L79.333 45.459L79.3916 47.7676L80.3105 49.6152L80.4883 49.6279L82.8086 51.7373L82.9258 51.8428L83.0195 51.9717L84.5781 54.1279L84.7422 54.3623L84.8125 54.6436L85.457 57.2451L85.6562 58.0771L85.0352 58.6865L83.2656 60.3975L81.5547 62.46L81.4141 62.624L81.2383 62.7412L79.667 63.8057L80.2393 64.1348L81.1885 64.3809L81.2822 64.4043L81.376 64.4395L80.9072 65.8574L80.4385 67.2871L79.3018 66.9941L79.1143 66.9355L78.9385 66.8418L78.7656 66.7432L78.2979 68.2754L77.7705 70.7363L77.7588 70.8066L77.7354 70.8652L76.9502 73.3965L76.9033 73.5137L75.9658 75.7754L75.6963 78.2246L75.6846 78.3887L75.626 78.541L74.8057 80.9551L74.3018 83.4629L74.2666 83.6035L74.2197 83.7324L73.2354 86.0879L72.6611 88.5488L72.04 91.1152L72.0283 91.1738L72.0049 91.2324L71.6357 92.3848L71.708 92.6426L71.6729 92.9355L71.3799 95.584L71.2158 98.1504L71.2041 98.291L71.1689 98.4199L70.5479 100.834L70.4307 103.213L70.6182 105.393L71.5791 106.904L73.1846 108.205L75.458 108.662L76.3721 108.85L76.6064 109.74L77.3447 112.412L77.3896 112.614L78.8525 113.467L79.7432 113.994L79.6924 114.287L79.8086 114.266L79.9844 114.23L80.1602 114.242L82.7969 114.371L82.7852 114.383L85.3633 114.43L87.9766 114.383H88.082L88.1875 114.395L90.6836 114.711L93.1445 114.477H93.2734L95.9102 114.453H96.0273L96.1328 114.465L98.2188 114.77L98.0312 116H99.4961V117.98L97.7852 117.734L95.793 117.453L93.2969 117.477L93.2852 117.465L90.7773 117.711L90.6133 117.723L90.4492 117.699L87.918 117.383L85.3867 117.43H85.3281L82.6914 117.371H82.6445L80.1719 117.23L77.7109 117.699L77.4766 117.746L77.2305 117.711L74.7227 117.348L72.2383 117.488H72.0156L69.5898 117.242L67.1406 117.676L66.8828 117.723L66.6133 117.676L64.1172 117.242L61.6914 117.395H61.668L61.6445 117.406L56.3711 117.57H56.2539L56.1367 117.559L53.5938 117.254L51.1328 117.418L51.0508 117.43L50.957 117.418L48.5078 117.277L46 117.699L45.7891 117.734L45.5781 117.711L43.0234 117.395L40.5391 117.324L37.9492 117.512L37.8906 117.523H37.832L35.1953 117.512H35.0781L32.5 117.301L30.0508 117.395L30.0625 117.406L27.4258 117.664L27.2734 117.676L27.1211 117.664L24.625 117.395L22.1641 117.5H22V114.5H22.0352L24.5781 114.395L24.6836 114.383L24.8008 114.395L27.2852 114.664L29.7695 114.418H29.8633L32.5 114.312L32.5938 114.301L32.6758 114.312L35.3125 114.512L35.3008 114.523H36.9736L37.6611 112.986L38.0596 112.107L38.2969 112.104L38.3174 111.807V111.783L38.458 110.025L37.1572 108.877L36.0322 107.893L36.9258 106.882L36.8291 106.893L36.6416 104.83L36.6299 104.76V104.689L36.6416 102.041V101.912L36.665 101.783L37.1338 99.1699L37.3525 97.3115L36.5361 95.4473L36.4658 95.2598L35.7393 92.6816L35.6221 92.3066L35.7158 91.9316L36.3135 89.3301L36.3369 89.2832L37.6729 84.1738L37.708 84.0332L37.7783 83.8926L38.751 81.877L38.5869 80.2598L37.1807 78.8301L36.6064 78.2441L36.7822 77.4473L37.3096 75.1035L37.3447 74.916L37.4268 74.7637L38.6104 72.373L38.7627 72.0684L39.0322 71.8574L40.9541 70.334L41.7275 69.2441L41.1533 68.4824L39.0791 67.5098L38.7861 67.3809L38.5752 67.1348L36.876 65.1426L35.165 63.291L34.7197 62.8105L34.7666 62.166L34.9658 59.5527V59.5293L35.2119 56.9043V56.8223L35.2354 56.7285L35.7158 54.3262L35.5283 52.2051L34.415 50.2246L34.3799 50.166L34.3564 50.0957L33.3604 47.8457L33.1143 47.2949L33.3135 46.7324L34.2275 44.2129L34.2393 44.1895L34.251 44.1543L35.2354 41.7168L36.1025 39.2793L36.126 39.1973L36.1729 39.127L37.333 36.7598L37.4033 36.6191L38.7744 34.4277L39.876 32.1895L40.9541 29.7637L41.0127 29.623L41.1064 29.4941L42.5713 27.4668L43.1201 26.3555L43.3154 24.1328L43.374 23.4648L43.9131 23.0664L46.0107 21.4961L46.1045 21.4258L46.1982 21.3789L48.5068 20.125L48.6709 20.0312L48.8584 19.9844L51.4365 19.3164L51.7061 19.2461L51.9873 19.2812L54.6006 19.6094L55.1045 19.668L55.4678 20.0312L56.7744 21.3047L56.7705 21.2988L56.7354 20.9238L56.5361 18.2754L56.5127 18.0059L56.5947 17.748L57.1504 15.8018L56.2471 16.2363L55.1689 13.9395L55.0752 13.752L55.04 13.5527L54.6064 11.0098L54.583 10.8926V10.7637L54.5596 8.10352V7.88086L54.6299 7.6582L55.3799 5.18555L55.5674 4.56445L56.165 4.27148L58.5674 3.11133L58.7314 3.0293L58.9072 2.99414L61.4736 2.44336L61.6377 2.40723H61.8018L64.4619 2.41992ZM54.4111 113.338H54.3877L54.3789 113.283L52.3799 113.584L52.3096 113.596H52.251L49.6143 113.76H49.6025L47.1367 113.882L46.9033 114.244L46.2354 114.338L46.2236 114.35L46.1797 114.058L44.6455 114.369L44.0928 114.51L45.7305 114.699L48.1562 114.301L48.3203 114.277L48.4844 114.289L51.0156 114.43L53.582 114.254L53.7227 114.242L53.8633 114.266L56.3711 114.57L58.9141 114.488L61.5039 114.418V114.406L64.1523 114.242L64.3281 114.23L64.5039 114.266L66.8828 114.688L69.2617 114.266L69.4609 114.23L69.542 114.234L67.7666 113.854L65.3057 113.818H65.2236L65.1416 113.807L62.7041 113.49L60.1963 113.736L59.9971 113.748L59.7979 113.725L57.3018 113.291L55.1523 113.218L54.4111 113.338ZM45.3721 106.451L45.0088 106.662L44.5869 106.65L42.2783 106.568L40.4854 107.354L40.2627 107.611L41.0127 108.279L41.5869 108.783L41.5166 109.533L41.3057 112.029L41.3018 112.074L41.5166 112.072L43.9189 111.463H43.9541L43.9893 111.451L45.3203 111.18L45.8604 110.354L46.6689 108.127L47.1963 106.146L46.9404 105.569L45.3721 106.451ZM63.2393 67.9395L62.9697 68.0918L62.665 68.127L62.1504 68.1914L62.1689 69.4863V69.6973L62.1221 69.8848L61.7852 71.1689L62.4971 72.373L62.6963 72.7129L62.708 73.1113L62.7432 75.7129L63.0479 78.2559V78.3848L63.1064 81.0332V81.1738L62.9072 83.6699L63.2471 86.1191L63.2588 86.1895V86.2715L63.3408 88.9199L63.3525 89.1191L63.3057 89.3066L62.708 91.8848L62.2744 94.0879L62.9189 96.3262L62.9424 96.4082L62.9541 96.502L63.3408 99.0332L64.0205 101.518L64.0674 101.682V101.857L64.1377 104.412L64.4072 107.037L64.4189 107.119V107.201L64.4072 109.85V109.885L64.3789 110.694L65.3525 110.83L65.3643 110.818L68.0127 110.877H68.1533L68.2939 110.9L70.8252 111.439L73.3447 111.65H73.3799L74.0303 111.723L73.9463 111.416L72.2354 111.076L71.8721 111.006L71.5908 110.771L69.5166 109.096L69.3291 108.943L69.2002 108.732L67.8877 106.693L67.6885 106.377L67.665 106.014L67.4424 103.4L67.4307 103.295V103.201L67.5596 100.553L67.5713 100.412L67.6064 100.26L68.2393 97.7637L68.3916 95.3145V95.2441L68.6729 92.8887L68.5381 92.4229L68.4775 92.4043L68.5059 92.3145L68.0049 90.5801L67.9229 90.3105L67.9463 90.0293L68.2158 87.3691V87.3105L68.5908 84.709L68.9541 82.0957L68.9658 82.002L69.001 81.8965L69.7041 79.3535L69.7275 79.2949L69.751 79.2246L70.6533 76.8574L71.0986 74.5957L70.8174 72.3105L70.7822 72.0996L70.8174 71.8887L71.1924 69.4512L71.0801 68.2715L69.2627 68.3926L69.1104 68.4043L68.958 68.3809L66.3916 68.0176L63.9189 67.877L63.9336 67.5361L63.2393 67.9395ZM51.3613 65.9307L51.2861 67.5684V67.6738L51.2627 67.7793L50.7939 70.1816L50.8643 72.7246V72.748L50.876 75.3848V75.4082L50.8408 78.0449L50.8525 80.6582V80.7402L50.8408 80.8223L50.5596 83.459L50.5479 83.6348L50.4893 83.7988L49.5986 86.3066L49.5518 86.4238L49.4814 86.541L48.2979 88.6152L47.9229 90.9941V91.0176L47.501 93.3496L47.8643 95.6816L47.876 95.7402V95.8105L48.0518 98.2949L48.79 100.627L48.8252 100.744L48.8486 100.873L49.1533 103.146L50.1611 105.408L50.3838 105.9L50.2432 106.416L49.5283 109.029L49.5049 109.088L49.4932 109.146L48.8887 110.789L49.4502 110.76V110.771L51.9697 110.607L52.168 110.577L52.1729 110.467L52.1963 108.064L51.5518 105.709L51.5049 105.545L51.4932 105.381L51.3525 102.768V102.604L51.376 102.439L51.7979 99.873L51.9268 97.3652L51.9385 97.1543L52.0088 96.9434L52.8174 94.6582L52.9814 92.1973V92.1738L52.9932 92.1387L53.5088 86.8887L53.5439 86.5137L53.7666 86.1973L55.1494 84.1348L55.876 81.8379L56.5908 79.3301L57.2002 76.8223L57.2236 76.7402L57.2588 76.6465L58.126 74.3145L58.5244 71.8418L58.5361 71.7715L58.5479 71.6895L58.5664 71.6162L58.4658 71.459L58.4307 71.1543L58.4189 71.0488L58.7217 71.0098L59.1572 69.3223L59.1338 67.7285L57.8564 66.6152L55.8877 65.8066L53.626 65.6309L51.3613 65.9307ZM59.4971 80.1035L59.4854 80.127L59.4736 80.1621L58.7471 82.7051V82.7168L58.7354 82.7285L57.9502 85.2715L57.8799 85.4824L57.7627 85.6699L56.4502 87.5566L56.2393 89.8184L55.9697 92.373L55.9814 92.3848L55.8174 95.0332L55.8057 95.2441L55.7354 95.4434L54.8916 97.752L54.7744 100.201V100.283L54.7627 100.365L54.3643 102.768L54.4814 105.029L55.1494 107.443L55.208 107.654L55.1963 107.865L55.1729 110.221L57.4775 110.303H57.583L57.6768 110.326L60.1025 110.736L61.3789 110.608L61.4072 109.791L61.4189 107.342L61.1494 104.717V104.611L61.0674 102.127L60.4346 99.7363L60.4111 99.6543L60.3994 99.584L60.001 97.0762L59.2979 94.5684L59.2041 94.2285L59.2744 93.877L59.7783 91.2637L59.79 91.2285V91.2051L60.3291 88.8613L60.2588 86.4355L59.9307 83.9043L59.9072 83.752L59.9189 83.5879L60.1064 81.1035L60.0479 78.4551H60.0361L59.9902 78.0322L59.4971 80.1035ZM39.6299 102.182V104.451L41.376 103.686L41.6924 103.557L42.0322 103.568L44.2588 103.639L45.3994 103L44.8799 102.689L42.5361 101.764L42.4189 101.717L39.9424 100.479L39.6299 102.182ZM47.876 51.4668L47.583 51.6543L47.2314 51.7012L45.8721 51.8535L45.6729 53.1777L45.5322 55.6855L45.5557 58.2285V58.3809L45.3096 61.0059L45.2861 61.1465L44.8291 63.5371L45.0518 66.0215L45.0752 66.3262L44.9814 66.6309L44.5322 67.9678L44.7979 68.3184L45.4541 69.1973L44.8213 70.0879L43.2744 72.2441L43.1572 72.4199L42.9814 72.5605L41.1533 73.9902L40.1924 75.9355L39.8877 77.2949L41.0947 78.5254L41.4697 78.9004L41.5283 79.4277L41.7744 82.0059L41.8213 82.4277L41.6338 82.8027L40.5322 85.0527L39.9111 87.4902V87.502L39.2314 90.0566L38.7158 92.2129L39.3252 94.3457L40.2275 96.3965L41.6338 97.9668L43.6377 98.9746L45.3379 99.6494L45.1338 99.0098L45.0752 98.834L45.0635 98.6582L44.8994 96.1387L44.501 93.5488L44.4658 93.3027L44.5127 93.0566L44.9697 90.5137L45.3799 87.877L45.4268 87.6074L45.5557 87.373L46.7861 85.2168L47.5947 82.9316L47.8525 80.5059L47.8408 78.0332V78.0098L47.876 75.4082L47.8643 72.8066L47.7939 70.1465L47.7822 69.9824L47.8174 69.8184L48.2979 67.2988L48.3594 65.8926L47.4736 65.8652L47.2041 64.752L46.6416 62.4316L46.5596 62.127L46.6182 61.8105L47.0869 59.1973L47.1338 58.9863L47.2275 58.7988L48.3994 56.4199L48.4697 56.3027L49.5186 54.582L49.251 52.5801L49.2354 52.46L49.2383 52.3389L49.2881 50.5527L47.876 51.4668ZM75.3682 66.248L75.1572 66.8809L74.5479 67.1504L74.0049 67.3926L74.2041 69.3457L74.2158 69.5449L74.1924 69.7324L73.8174 72.0996L73.9121 72.874L74.0791 72.4707L74.8408 70.0449L75.3916 67.5254L75.4033 67.4551L75.4268 67.3965L76.0127 65.4746L75.7617 65.04L75.3682 66.248ZM41.2666 43.877L39.8721 45.1543L39.0635 47.0762L38.5244 49.4551L38.5127 49.4902L38.501 49.5371L38.3486 50.0762L37.6562 49.8789L38.3057 51.0332L38.4697 51.3145L38.4932 51.6309L38.7275 54.291L38.751 54.5137L38.7041 54.7246L38.1885 57.1621L37.9541 59.7988L37.8135 61.7324L39.0791 63.1035L39.126 63.1504L40.6611 64.9434L42.0049 65.5742L41.8291 63.6191L41.8057 63.4082L41.8408 63.209L42.333 60.6895L42.5557 58.252L42.5322 55.6035V55.498L42.6963 52.8613V52.8027L42.708 52.7324L43.083 50.2715L43.2588 49.1465L43.332 49.1367L43.2471 47.3105L43.2119 46.6309L43.6924 46.1621L45.2861 44.5918L45.6846 43.9473L45.1807 43.5957L43.2002 43.4199L41.2666 43.877ZM69.7549 55.9277L69.6143 55.9629L69.4736 55.9746L67.376 56.1328L67.3643 57.4863V57.5801L67.3525 57.6738L67.001 60.1113L66.9541 62.7715V62.959L66.9072 63.1465L66.3857 65.0264L66.626 65.041H66.6846L66.7432 65.0527L69.2041 65.3926L71.4541 65.2402L72.708 64.6777L73.3057 62.9199L73.5166 62.2637L74.1377 62.0059L74.4229 61.8838L74.3604 61.7129L73.1533 59.4512L73.1064 59.3457L73.0713 59.2402L72.1924 56.7324V56.7207L71.6963 55.3975L69.7549 55.9277ZM56.626 54.0068L56.1748 54.4688L54.7812 55.8975L54.3369 56.3525L53.7021 56.3506L51.9561 56.3438L51.0947 57.7559L49.9932 59.9473L49.6182 62.0449L49.8408 62.9355L50.8721 62.9707L53.3564 62.6426L53.5088 62.6191L53.6611 62.6309L56.3096 62.8301L56.5439 62.8535L56.7666 62.9355L59.2393 63.9434L59.4619 64.0371L59.6611 64.2012L60.9502 65.3281L61.9971 65.1855L63.4502 64.3301L63.9541 62.5371L64.001 60.0645V59.9824L64.0127 59.8887L64.3643 57.334L64.377 56.0312L64.0244 56.0098L63.8604 55.998L63.6963 55.9512L61.165 55.2012L61.1064 55.1777L61.0361 55.1543L58.5752 54.1816H58.5635L56.6113 53.6533L56.626 54.0068ZM78.1094 53.1553L79.1172 54.9131L79.5156 55.6045L79.1641 56.3193L78.3789 57.9131L78.0742 58.5342L77.418 58.71L76.3105 59.002L77.0557 60.377L77.1025 60.4707L77.1377 60.5645L77.4561 61.4355L77.4854 61.3691L77.4971 61.3223L77.5205 61.2754L77.5674 61.1934L77.9102 61.3643L79.3633 60.374L80.9453 58.4873L81.0039 58.417L81.0625 58.3584L82.3281 57.1162L81.9531 55.6162L80.6641 53.835L79.2461 52.5459L78.3086 52.4756L78.1094 53.1553ZM75.6963 32.1895L75.6377 34.7676V34.8496L75.626 34.9316L75.2744 37.5566L75.2627 37.6504L75.2393 37.7441L74.583 40.2988L74.5361 40.4395L73.7041 42.7012L73.5635 45.1855L73.5518 45.3379L73.5166 45.4785L72.8604 47.9512L72.6611 50.0137L73.4229 51.7598L74.7705 54.0098L74.958 54.3262L74.9814 54.6895L74.9932 54.9004L74.7168 54.9199L75.0166 55.7246L75.0283 55.748L75.1777 56.1865L75.9883 55.9678L76.1172 55.71L75.2031 54.1045L74.875 53.5537L75.0625 52.9326L75.7773 50.4834L76.1172 49.335L76.835 49.3828L76.5557 48.8223L76.415 48.5176L76.4033 48.1895L76.333 45.5293L76.2744 42.8926V42.8809L76.1807 40.291V40.0918L76.415 37.4668L76.4268 37.3965L76.4385 37.3379L76.8838 34.7363L76.9424 32.4277L76.6963 30.5879L75.7754 29.625L75.6963 32.1895ZM52.4502 48.6592L52.3096 49.8516L52.2402 52.3027L52.3799 53.3447L53.0762 53.3477L53.502 52.9111L53.4307 52.1895L53.4189 52.0137L53.542 52.002L53.4971 50.8828L53.291 48.7588L53.1123 48.5508L52.4502 48.6592ZM56.4844 50.6006L56.6416 50.6074H56.8057L56.9697 50.6543L59.5244 51.334L59.6064 51.3574L59.6885 51.3926L62.0557 52.3301L64.3877 53.0098L66.708 53.1738L69.0986 52.9863L70.5254 52.6016L69.8311 51.0176L69.7627 51.0566L69.4229 51.2441H69.0479L66.376 51.2676H66.2705L66.1533 51.2559L63.5635 50.8809H63.54L63.5166 50.8691L60.915 50.4004L60.833 50.3887L60.751 50.3652L58.2197 49.6035H58.208L58.1963 49.5918L56.3281 48.9951L56.4844 50.6006ZM50.6846 42.0293L49.3486 43.7637L49.2656 43.8701L48.9893 44.3223L47.6768 46.4551L47.5479 46.5957L46.2588 47.8379L46.3125 48.7744L46.54 48.748L48.4033 47.5527L50.4775 46.0996L50.7588 45.9004L50.8691 45.8809L50.8369 45.4551L53.4326 45.2568L54.0898 45.2051L54.9854 43.2168L55.0088 42.5488L53.8252 42.4434L52.9932 42.373L52.6182 41.6348L52.5713 41.541L52.5977 41.5264L52.4541 41.5137L50.6846 42.0293ZM66.5283 25.6426L65.8936 26.5244L66.0283 27.0293L66.0635 27.1582L66.0752 27.2754L66.3096 29.8066L66.9541 32.2324L66.9775 32.3145L66.9893 32.3848L67.3994 35.0098L67.4229 35.127V35.2676L67.376 37.916V40.4941L67.4229 43.1543V43.2598L67.4111 43.377L67.0596 46.002L67.0479 46.0957L67.0244 46.2012L66.4473 48.251L66.4814 48.2559L68.626 48.2441L69.8916 47.5391L69.8955 47.5059L69.9072 47.3887L69.9424 47.2715L70.5635 44.8574L70.7275 42.3379L70.7393 42.127L70.8096 41.916L71.6768 39.5371L72.3096 37.0879L72.6377 34.6152L72.6963 32.0957V32.084L72.7666 29.5996L72.415 27.8887L70.7041 27.0801L70.5986 27.0332L70.4932 26.9629L68.3486 25.4746L67.1514 24.7773L66.5283 25.6426ZM60.3779 26.875L60.9756 28.2578L59.5811 28.8555L57.5889 29.6992L57.46 29.7461L57.3193 29.7812L54.7529 30.3203L52.4346 30.9785L52.3174 32.7637L52.3057 32.9863L52.2354 33.1973L52.1748 33.3555L53.4287 33.2568L54.1895 33.1963L54.6855 33.7754L55.877 35.165L56.1855 35.5244L56.2314 35.9961L56.4883 38.6367L56.5684 39.4609L56.3145 39.6562L56.6729 39.6895L58.0674 39.8066L58.0439 41.2129L57.9854 43.5684V43.873L57.8564 44.1543L57.0596 45.9004L57.165 46.1113L59.0752 46.7324H59.0869L61.4658 47.4473L63.4668 47.8193L64.083 45.5449L64.4111 43.0723L64.376 40.5527V37.8691L64.4111 35.373L64.0244 32.9004L63.3682 30.4512L63.3447 30.3223L63.333 30.1934L63.0986 27.6621L62.4775 25.3418L62.4541 25.2715L62.4482 25.2363L62.4385 25.2324L61.8027 24.9756L61.5869 24.9316L59.3721 24.5098L59.3506 24.5059L60.3779 26.875ZM46.2451 25.0586L46.123 26.458L46.3564 26.5879L46.333 26.5996L46.3447 26.6113L46.0547 27.2021L46.0107 27.6484L45.7471 27.8311L45.2314 28.8848L45.1729 29.002L45.1025 29.0957L43.626 31.1348L42.6182 33.4082L42.6064 33.4316L42.5947 33.4668L41.4229 35.834L41.3877 35.9043L41.3525 35.9629L39.9814 38.1543L38.9268 40.2988L38.0381 42.7764L39.5088 41.416L39.79 41.1582L40.1768 41.0645L42.7314 40.4434L42.9775 40.3848L43.2236 40.4082L45.1328 40.5869L46.3408 39.0918L47.4775 36.877L48.4854 34.6387L49.3408 32.3535L49.4697 30.1035L48.9893 27.8418L48.3564 25.6035L47.2344 24.3184L46.2451 25.0586ZM52.374 36.3486L52.4219 36.8906L52.4277 36.958V37.0264L52.4219 38.3857L52.9443 38.4707L53.4219 38.1006L53.291 36.7588L52.9043 36.3066L52.374 36.3486ZM49.8916 22.8066L50.8525 23.916L51.0752 24.1621L51.1689 24.4902L51.8838 27.0215L51.9072 27.1152L52.0879 27.9629L53.9912 27.4258L54.0498 27.4023H54.0967L56.5342 26.875L57.0146 26.6758L56.6396 25.7969L55.1982 23.9688L53.7217 22.5156L51.9053 22.293L49.8916 22.8066ZM59.7979 18.6973L59.5771 18.8291L59.7002 20.3145L60.5674 21.6855L61.8213 21.9199L62.5361 21.7441L62.9629 23.3975L63.1885 23.3574L63.5635 22.4551L64.7705 22.9355L65.4619 21.9863L65.8955 19.7129L65.9072 19.6895V19.6543L66.2627 18.0537L65.8916 17.8652L65.8799 17.8535L65.2705 18.9668L63.1963 17.8184L61.5205 17.6074L59.7979 18.6973ZM58.54 15.8965L58.6221 15.8613L58.8066 15.751L57.8223 15.6973L58.54 15.8965ZM58.9189 12.4434L57.8975 12.457L57.9697 12.8613L58.9658 14.9473L59.1182 15.2871L59.1084 15.5732L59.4844 15.3506L60.3223 14.8281L60.2666 13.3457L60.1025 12.4316L58.9189 12.4434ZM59.7158 5.87695L58.0635 6.67383L57.5596 8.31445L57.5713 10.623L57.5908 10.7363L58.8955 10.8613L58.8838 9.44336L61.3447 9.41992L62.6221 9.4082L62.8447 10.6621L63.2432 12.959L63.2666 13.0645V13.1699L63.3271 14.8193L63.8643 14.8887L64.1572 14.9238L64.415 15.0645L65.0117 15.3975L66.0908 14.3438L66.0947 14.334L66.0986 14.335L66.3369 14.1035L66.5771 12.5654L66.0361 11.5957L65.8838 11.3262L65.8486 11.0215L65.6377 9.20508L64.7002 8.66602L62.626 8.91211L62.3916 8.93555L62.1572 8.88867L59.6963 8.38477L59.4268 8.32617L59.1924 8.18555L59.1104 8.13867L59.9072 6.86133L60.0479 6.63867L60.2266 5.76855L59.7158 5.87695ZM61.0381 5.59668L62.5088 5.90039L64.6455 5.6543L64.1104 5.4082H61.9307L61.0381 5.59668Z" fill="black"/>
</svg>
