<svg width="120" height="120" viewBox="0 0 120 120" fill="none" xmlns="http://www.w3.org/2000/svg">
<path d="M111.312 114.289L112.355 114.547L111.652 117.453L110.891 117.266L108.547 117.629L108.453 117.652H108.359L105.723 117.723H105.582L103.051 117.301L100.672 117.734L100.438 117.781L100.203 117.746L97.6367 117.406H95.2344L92.5977 117.629L92.4922 117.641L92.3984 117.629L89.75 117.477V117.465L87.2773 117.348L84.7812 117.734L84.582 117.77L84.3945 117.746L81.8516 117.453L79.2969 117.477L79.2852 117.465L76.7773 117.711L76.6133 117.723L76.4492 117.699L73.918 117.383L71.3867 117.43H71.3281L68.6914 117.371H68.6445L66.1719 117.23L63.7109 117.699L63.4766 117.746L63.2305 117.711L60.7227 117.348L58.2383 117.488H58.0156L55.5898 117.242L53.1406 117.676L52.8828 117.723L52.6133 117.676L50.1172 117.242L47.6914 117.395H47.668L47.6445 117.406L42.3711 117.57H42.2539L42.1367 117.559L39.5938 117.254L37.1328 117.418L37.0508 117.43L36.957 117.418L34.5078 117.277L32 117.699L31.7891 117.734L31.5781 117.711L29.0234 117.395L26.5391 117.324L23.9492 117.512L23.8906 117.523H23.832L21.1953 117.512H21.0781L18.5 117.301L16.0508 117.395L16.0625 117.406L13.4258 117.664L13.2734 117.676L13.1211 117.664L10.625 117.395L8.16406 117.5H8V114.5H8.03516L10.5781 114.395L10.6836 114.383L10.8008 114.395L13.2852 114.664L15.7695 114.418H15.8633L18.5 114.312L18.5938 114.301L18.6758 114.312L21.3125 114.512L21.3008 114.523H23.7383L26.375 114.336L26.4453 114.324L26.5273 114.336L29.1641 114.406H29.2344L29.293 114.418L31.7305 114.699L34.1562 114.301L34.3203 114.277L34.4844 114.289L37.0156 114.43L39.582 114.254L39.7227 114.242L39.8633 114.266L42.3711 114.57L44.9141 114.488L47.5039 114.418V114.406L50.1523 114.242L50.3281 114.23L50.5039 114.266L52.8828 114.688L55.2617 114.266L55.4609 114.23L55.6602 114.242L58.1328 114.488L60.7227 114.348L60.8633 114.336L61.0156 114.359L63.418 114.711L65.8086 114.266L65.9844 114.23L66.1602 114.242L68.7969 114.371L68.7852 114.383L71.3633 114.43L73.9766 114.383H74.082L74.1875 114.395L76.6836 114.711L79.1445 114.477H79.2734L81.9102 114.453H82.0039L82.0859 114.465L84.5469 114.746L86.9727 114.371L87.125 114.348L87.2773 114.359L89.9141 114.488H89.9258L92.4453 114.641L95 114.43L95.0586 114.418H95.1055L97.7539 114.406H97.8594L97.9648 114.418L100.367 114.746L102.77 114.312L103.027 114.266L103.285 114.301L105.816 114.723L108.137 114.664L110.738 114.266L111.031 114.219L111.312 114.289Z" fill="black"/>
<path d="M32.061 38.311L32.1196 38.4985V38.6978L32.2134 41.2407L32.2251 41.4634L32.1665 41.686L31.522 44.0767L31.4751 45.5415L32.5063 46.1157L34.6626 46.4673L37.0884 46.397L39.5142 45.9048L39.5259 45.8931L42.0806 45.3892L44.4946 44.8618L46.7212 43.772L47.4829 43.4087L48.186 43.854L50.4478 45.2954L50.4712 45.3188L50.4946 45.3306L52.6743 46.8657L52.8384 46.9829L52.9556 47.1235L54.6079 49.0923L56.4243 50.6978L58.3579 52.2212L60.5845 53.4282L61.0532 53.6743L61.2524 54.1665L62.2603 56.5571L62.3071 56.6626L62.3306 56.7681L62.9985 59.4282L63.2681 60.5298L62.2954 61.0923L60.1509 62.311L58.2056 63.9751L58.1118 64.0571L58.0063 64.1157L55.9556 65.3462L54.479 67.2563L54.397 67.3618L54.2915 67.4556L52.3462 69.1548L50.6235 71.0298L49.2173 72.9868L49.229 72.9985L47.9282 74.8735L47.6938 77.0063L47.7876 79.5728V79.6313L47.7642 82.0571L48.5024 84.3774L48.5376 84.5063L48.561 84.6235L48.9126 87.2485V87.2603L49.2524 89.8149L49.8735 92.2759L49.897 92.3579L50.2368 95.0767L50.2603 95.229L50.2485 95.3931L50.0376 97.854L50.3423 99.8931L51.1392 100.866L52.8735 100.678L55.4868 100.362L55.6157 100.35H55.7446L58.147 100.479L59.9751 100.573L59.5181 102.342L59.4595 102.577L58.0415 102.213L57.9829 103.467L55.7095 103.35L53.2251 103.667H53.2134L50.6704 103.959L49.8384 104.042L49.3228 103.397L47.7642 101.452L47.5063 101.135L47.4478 100.749L47.0493 98.1353L47.0142 97.9595L47.0376 97.7837L47.2368 95.3228L46.9321 92.897L46.3228 90.436L46.2993 90.354L46.2876 90.2603L45.9478 87.647L45.5962 85.1392L44.8345 82.7368L44.7642 82.5142V82.2681L44.7876 79.6782L44.6938 77.0415V76.936L44.7056 76.8306L44.9868 74.1704L45.0337 73.7954L45.2446 73.4907L46.7563 71.2876L46.7681 71.2759H46.7798L48.3032 69.1313L48.3618 69.0493L48.4321 68.979L50.2251 67.0454L50.272 66.9985L50.3306 66.9517L52.1938 65.2993L53.7642 63.2954L53.9399 63.0728L54.1743 62.9321L56.3423 61.6196L58.2759 59.979L58.3813 59.8853L58.4985 59.8267L59.811 59.0649L59.4478 57.6235L58.686 55.8071L56.8696 54.8228L56.7524 54.7642L56.6587 54.6821L54.5845 53.0649L54.5493 53.0415L54.5142 53.0063L52.5337 51.2603L52.4517 51.1899L52.3696 51.0962L50.7642 49.1743L48.772 47.7915V47.7798L47.2837 46.8306L45.5024 47.7212L45.3267 47.7563L42.7134 48.3188L42.7017 48.3306H42.6899L40.1235 48.8345L37.5337 49.3735L37.4048 49.397H37.2876L34.6392 49.479L34.4985 49.4907L31.7563 49.0337L31.4985 48.9985L31.2759 48.8696L29.2251 47.7329L28.4282 47.2993L28.4517 46.3853L28.5337 43.8071L28.5454 43.6313L28.5806 43.4673L29.2134 41.147L29.1313 38.8032L30.2329 38.7563L30.5962 38.6509L32.0376 38.2173L32.061 38.311Z" fill="black"/>
<path d="M78.3647 50.0171L78.6343 50.1577L78.8335 50.4038L80.5093 52.4429L80.5913 52.5366L80.6499 52.6538L81.939 54.9155L82.1265 55.2437L82.1382 55.6069L82.2319 58.2905L82.2437 58.6187L82.1147 58.9351L81.1069 61.2671L80.4976 63.0483L81.4233 64.853L81.4702 64.9351L81.4937 65.0288L82.3843 67.5132L82.4194 67.5952L82.4312 67.6655L83.0054 70.0444L84.2358 72.189L84.2944 72.3062L84.3413 72.4233L85.0679 74.4507L86.7788 75.7866L86.814 75.8218L86.8491 75.8452L88.7593 77.521L90.8804 78.7749L93.1421 80.1108H93.1538L95.4507 81.4233L95.6382 81.5171L95.7788 81.6694L97.5132 83.4155L99.6812 84.6226L99.9741 84.7866L100.162 85.0562L101.744 87.2124L101.943 87.4937L102.013 87.8335L102.458 90.3999L102.587 91.1499L102.06 91.689L100.361 93.4585L99.2944 95.6733L99.0366 96.2007L98.4976 96.4116L96.0015 97.396L95.4976 97.5952L94.9702 97.4194L92.4507 96.564L92.3335 96.5288L92.228 96.4702L89.8843 95.2163L89.7319 95.146L89.603 95.0288L87.6577 93.3413L85.5483 92.0288L85.478 91.9819L85.4077 91.9233L83.3452 90.271L83.2515 90.2007L83.1812 90.1187L81.4819 88.2788L79.4194 86.9194L79.2905 86.8257L79.1733 86.7085L77.3452 84.7983L77.3218 84.7866L77.3101 84.7632L75.5991 82.8647L73.6655 81.1655L73.5952 81.0952L73.5366 81.0249L71.7905 79.0327L71.6499 78.8804L71.5562 78.6929L70.4897 76.4663L68.8726 74.6616L68.7085 74.4858L68.603 74.2515L67.5483 71.8022L68.5444 71.3569L68.603 71.1226L68.9546 69.6694L69.271 69.7515L69.9976 69.9272L70.3022 70.6069L71.2515 72.8218L72.8921 74.6499L73.0327 74.814L73.1265 75.0132L74.1577 77.1812L75.6812 78.939L77.6382 80.6733L77.7085 80.7319L77.7671 80.7905L79.5015 82.7241L81.2241 84.5171L83.3101 85.8999L83.4624 86.0054L83.5796 86.1343L85.3022 87.9976L87.2241 89.5327L89.3804 90.8804L89.4858 90.939L89.5796 91.021L91.4312 92.6382L93.5522 93.7632L95.4038 94.396L96.8335 93.8335L97.771 91.9468L97.8647 91.7358L98.0288 91.5601L99.3647 90.1538L99.1069 88.689L97.9351 87.0835L95.8726 85.9351L95.6968 85.8296L93.7749 83.9077L91.6655 82.7124H91.6538V82.7007L89.3687 81.3647L87.0952 80.0171L86.978 79.9468L86.8726 79.853L84.939 78.1655L82.8882 76.5601L82.5366 76.3022L82.396 75.8921L81.564 73.5718L80.2983 71.3452L80.1929 71.1694L80.146 70.9585L79.5366 68.439L78.6812 66.0835L77.5444 63.8569L77.2632 63.2944L77.4624 62.6968L78.2593 60.3179L78.3062 60.2007L79.2085 58.0444L79.1499 56.064L78.1187 54.2476L76.7007 52.5366L74.7085 51.5054L74.2632 51.2827L74.0522 50.8491L74.0054 50.7554L75.4585 50.0288L76.0796 48.8452L78.3647 50.0171Z" fill="black"/>
<path d="M61.7549 5.10938L63.3955 7.04297L63.4658 7.13672L63.5244 7.23047L64.8252 9.35156L66.5479 11.1914L66.583 11.2148L66.6064 11.25L68.2939 13.2891L68.3525 13.3594L68.3994 13.4297L69.7822 15.5742L71.3525 17.6719L73.04 19.6055L73.1338 19.7227L74.6455 21.8906L74.6924 21.9492L74.7275 22.0078L75.9229 24.1406L77.6807 25.9102L77.8213 26.0508L77.9268 26.2383L79.2158 28.5586L79.3213 28.7227L79.3682 28.9219L79.8486 30.8672L80.3174 32.7422L78.3838 32.7305H78.1377V31.2891L76.9424 31.5938L76.4854 29.8125L75.3838 27.8555L73.6611 26.1211L73.5205 25.9805L73.4268 25.8047L72.1494 23.543L70.7666 21.5742L69.0322 19.5703L68.9971 19.5352L67.3447 17.332L67.3213 17.2852L65.9502 15.1641L64.3564 13.2422L62.5518 11.3086L62.4463 11.1914L62.3643 11.0625L61.04 8.91797L59.4697 7.04297L59.4229 6.99609L59.3643 6.91406L61.7314 5.08594L61.7549 5.10938Z" fill="black"/>
<path d="M78.7363 62.7705L79.1348 63.2627L79.7676 63.8369L78.0684 65.7236L77.9395 65.8643L77.7754 65.9697L75.666 67.3408L73.8027 69.0752L73.7676 69.1104L73.7207 69.1455L71.6465 70.7979L71.5762 70.8564L71.4941 70.915L69.291 72.2158L69.3027 72.2275L67.1348 73.7393L65.1543 75.333L65.084 75.3799L65.0254 75.4268L62.7988 76.8447L62.7402 76.8799L62.6699 76.915L60.4902 78.0283L58.9785 79.4346L58.709 80.3018L59.5059 82.3057L59.5762 82.4814L59.5996 82.6689L59.9277 85.3057L60.502 87.7314L60.5254 87.8018L60.9941 90.4033L61.0059 90.415V90.4385L61.4277 93.0635L61.4629 93.2861L61.4277 93.5205L61.0527 95.9814L61.2754 98.4893L61.3105 98.8643L61.1699 99.2041L60.2207 101.442L59.9746 103.599L60.1621 105.919L60.8652 108.38L60.9824 108.813L60.8418 109.247L60.5723 110.079L57.7129 109.165L57.8418 108.743L57.2441 106.61L57.209 106.47L57.1973 106.329L56.9746 103.681L56.9629 103.54L56.9746 103.388L57.2559 100.927L57.2793 100.716L57.3613 100.517L58.252 98.3955L58.0527 96.0869L58.0293 95.8994L58.0645 95.7236L58.4277 93.2861L58.041 90.9072V90.8955L57.584 88.4111L56.9863 85.8447L56.9629 85.7627V85.6924L56.6465 83.2197L55.7441 80.9346L55.5449 80.4541L55.6973 79.9502L56.2129 78.2041L56.3301 77.8057L56.6348 77.5244L58.6035 75.6963L58.7559 75.5557L58.9316 75.4619L61.252 74.2666L63.3262 72.9307L65.3418 71.3369L65.377 71.3018L65.4238 71.2666L67.5918 69.7666L67.627 69.7314L67.6738 69.708L69.9004 68.3486L71.7988 66.8369L73.709 65.0674L73.8027 64.9854L73.9082 64.915L75.959 63.5674L77.541 61.833L77.623 61.7393L77.7051 61.6689L77.7871 61.6104L78.7363 62.7705Z" fill="black"/>
<path d="M36.6416 108.214L39.1729 108.414L41.5869 108.226L41.6338 108.214H41.7627L41.8096 109.714L41.8447 111.214H41.8213L39.29 111.402L39.1729 111.414L39.0674 111.402L36.5361 111.214L34.0752 111.531H34.0283L33.9932 111.542L31.3447 111.707H31.1572L28.6025 111.542L26.1299 111.554L24.7119 111.765L24.4541 113.101L24.1494 115L22.8955 114.8V116.277H20.9268L21.1846 114.542L21.501 112.562V112.527L21.5127 112.492L21.9932 110.148L22.1924 109.128L23.2236 108.964L25.7314 108.578L25.8486 108.554H28.6963L31.2393 108.707L33.7939 108.542V108.554L36.3369 108.226L36.4893 108.203L36.6416 108.214Z" fill="black"/>
<path d="M44.4902 16.2827L44.9121 16.3413L46.3887 16.5757L46.377 16.6694L46.3418 16.8452L46.2832 17.0093L45.3105 19.3647L45.2051 19.6108L45.0293 19.8101L43.752 21.1929L43.834 21.5679L45.2871 22.8804L45.8496 23.396L45.7676 24.1577L45.6387 25.2827L47.0332 25.9272L47.0449 25.939L49.459 27.064L50.1152 27.3804L50.2793 28.0835L50.8652 30.6265H50.877L51.4395 32.5601L52.8809 33.7437L54.041 34.7046L53.0801 35.8647L52.9395 36.0288L51.791 35.0679L50.9707 36.064L49.1777 34.5874L48.8262 34.2944L48.6973 33.8491L47.9941 31.4702L47.9824 31.4351L47.9707 31.3882L47.5254 29.4663L45.791 28.646V28.6577L43.4121 27.5679L42.4277 27.1226L42.5449 26.0444L42.6973 24.5796L41.4668 23.478L41.1152 23.1499L41.0098 22.6812L40.6582 21.064L40.4941 20.3022L41.0215 19.728L42.627 17.9702L43.5059 15.8726L44.4902 16.2827Z" fill="black"/>
<path d="M50.959 8.55518L53.4082 9.62158L53.5605 9.68018L53.6895 9.77393L55.7871 11.2974L55.9395 11.4146L56.0684 11.5669L57.7207 13.5708L58.002 13.9224L58.0488 14.3794L58.2949 16.981L58.3418 17.4849L58.0723 17.9185L56.9004 19.77L56.7598 22.0903L56.7363 24.1294L57.6621 25.606L59.5137 26.8247L60.0059 27.1528L60.1465 27.7388L60.1699 27.8325L58.7051 28.1724L58.5996 28.1841L57.8613 29.3325L55.7402 27.9263L55.4707 27.7505L55.2949 27.4692L53.959 25.3481L53.7363 24.9731V24.5396L53.7598 21.9731V21.8794L53.8301 20.8013L53.7246 20.7192L51.8496 19.1489L49.5879 18.3872V18.3755L47.1621 17.7075L44.6074 17.0747L43.8691 16.8989L43.5762 16.1958L42.9082 14.5552L42.627 13.8872L42.9785 13.2544L44.2207 11.0278L44.4434 10.6294L44.8301 10.4302L47.0918 9.23486L47.2559 9.15283L47.4316 9.10596L49.998 8.47314L50.4902 8.34424L50.959 8.55518ZM48.3223 11.9771L46.623 12.8677L45.9434 14.0864L46.0605 14.3442L47.8887 14.8013L47.9121 14.813H47.9238L50.4785 15.5161L50.5254 15.5278L50.5605 15.5396L53.0918 16.4067L53.3496 16.5005L53.5605 16.6763L54.709 17.6255L55.248 16.7466L55.0957 15.1177L53.8652 13.606L52.0723 12.2935L50.2324 11.4966L48.3223 11.9771Z" fill="black"/>
<path d="M61.7192 26.417L61.8481 26.4287L64.4497 26.7217H64.4849L67.0981 27.0615L67.2153 27.0732L67.3208 27.1084L69.8638 27.835L70.0278 27.9053L72.4302 28.9248L74.645 29.6045L77.106 29.8271L77.3286 29.8506L77.5396 29.9326L79.8364 30.8701L80.0591 30.9521L80.2466 31.1162L82.1802 32.7568L81.4067 33.6475L81.3013 33.9404L80.7505 35.335L80.6567 35.2881L80.4224 35.2061L80.2349 35.042L78.4771 33.5537L76.5903 32.792L74.27 32.5928L74.106 32.5811L73.9536 32.5342L71.4341 31.749L71.2935 31.7021L68.9263 30.6826L66.5942 30.0146L64.0981 29.6982V29.6865L61.6724 29.417L60.5356 29.4873L60.606 30.7178V30.9287L60.395 33.3076L60.2192 35.2295L58.4028 34.585L58.3208 34.5615L58.8247 33.167L57.4067 33.0381L57.606 30.7998L57.4653 28.1748L57.3833 26.6865L58.8599 26.5928L61.5903 26.417H61.7192Z" fill="black"/>
<path d="M58.7334 33.0537L58.8271 33.1475L59.8115 34.2725L59.7412 34.3428L59.3428 34.6826L58.8271 34.7061L56.2959 34.835L54.4092 34.9756L53.3428 36.2295L53.0498 37.9873L53.4482 40.0615L54.5146 42.042L56.1201 43.9639L56.1318 43.9873L56.1436 43.999L57.7842 46.0615L57.7959 46.085L57.8193 46.0967L59.2373 48.0303L61.2412 49.4482L61.3467 49.5186L61.4404 49.6123L63.3037 51.4873V51.499L63.8896 52.0967L62.8232 53.1396L61.7451 54.1943L61.1592 53.5967V53.585L59.3896 51.8037L57.3271 50.3623L57.1279 50.2217L56.9756 50.0225L55.4287 47.9248L53.7998 45.8623V45.8506L52.1357 43.8584L52.0303 43.7412L51.96 43.6123L50.7061 41.292L50.6006 41.0928L50.5537 40.8584L50.0498 38.3037L50.0029 38.0342L50.0498 37.7646L50.542 34.8936L50.8115 34.5889L52.5225 32.5732L52.9326 32.0928L53.5537 32.0459L56.0732 31.8584H56.0967L56.1084 31.8467L58.6748 31.7178L58.7334 33.0537Z" fill="black"/>
<path d="M88.3931 39.7656L88.6626 39.9766L88.8032 40.2812L89.9517 42.6133L91.2524 44.8164H91.2642L92.4946 46.8438L94.2173 48.543L94.3696 48.6836L94.4634 48.8594L95.7759 51.0977L95.9048 51.3086L95.9517 51.5312L96.5259 54.1328L96.5962 54.4492L96.5376 54.7656L96.0923 56.9453L95.8228 58.2695L94.4751 58.1406L94.3813 58.1289L94.522 56.6289V56.6172L93.1509 56.3477L93.5259 54.4844L93.0688 52.4219L91.9673 50.5352L90.2563 48.8594L90.1274 48.7305L90.022 48.5664L88.6978 46.375L88.686 46.3633L87.3384 44.0781L87.3032 44.0312L87.2798 43.9727L86.2485 41.8984L84.5376 40.5156L84.3735 40.375L84.2446 40.2109L84.186 40.1289L85.4165 39.2617L85.6978 39.0625L86.4126 38.1719L88.3931 39.7656Z" fill="black"/>
<path d="M50.1289 102.381L50.2695 102.545L51.3945 103.119L50 105.908L49.3906 106.107L46.8828 106.916L46.8711 106.904L44.7148 107.76L43.7773 108.545L43.7891 108.604L45.2305 108.662L47.8086 108.486H47.9609L50.5977 108.557H50.668L50.7383 108.568L53.1406 108.85L55.6016 108.463L55.7656 108.439L58.3438 108.322L58.4023 108.311L58.4727 108.322L61.0859 108.404H61.1445L61.2031 108.416L63.7461 108.697L66.2305 108.58L68.8203 108.451L71.457 108.24L71.6328 108.229L71.8086 108.252L74.1875 108.615L76.5664 108.158L76.7656 108.123L76.9648 108.135L79.4961 108.322L82.0273 108.135L82.1797 108.123L82.3203 108.135L84.7227 108.416L87.1133 107.924L87.2773 107.889L87.4648 107.9L90.1016 107.971H92.6445L95.293 107.865L95.3867 107.854L95.4922 107.865L98.0234 108.123L100.438 108.146L100.566 108.158L100.684 108.17L103.203 108.615L105.559 108.861L108.008 108.486L108.453 108.416L108.863 108.604L111.148 109.635L112.004 110.021L112.027 110.971L112.074 113.561L112.133 115.787L112.168 117.275L110.68 117.322H110.598L110.551 115.822L109.133 115.857L109.074 113.643V113.631L109.039 111.967L108.031 111.51L105.84 111.861L105.652 111.896L105.453 111.873L102.816 111.604L102.699 111.58L100.273 111.135L97.9766 111.123H97.8477L95.2578 110.854L92.7617 110.971H90.0078L87.5703 110.889L85.0977 111.416L84.8516 111.463L84.6055 111.428L82.1211 111.123L79.6133 111.322L79.5078 111.334L79.3906 111.322L76.9414 111.135L74.5156 111.627L74.2578 111.674L73.9883 111.627L71.5039 111.24L69.0664 111.439L69.043 111.451H69.0195L66.3828 111.58H66.3711L63.7227 111.697L63.6055 111.709L63.4883 111.697L60.9453 111.393L58.4375 111.311L56.0469 111.428L53.4453 111.85L53.2344 111.885L53.0234 111.861L50.4688 111.545L47.8789 111.486V111.475L45.3945 111.674H45.2188L42.582 111.557L41.4922 111.521L41.1992 110.467L40.6367 108.416L40.3672 107.49L41.1172 106.869L43.0039 105.299L43.1797 105.146L43.4141 105.053L45.875 104.092L45.9219 104.068L45.9688 104.057L47.8789 103.436L48.8516 101.49L49.0859 101.291L49.168 101.232L50.1289 102.381Z" fill="black"/>
<path d="M104.108 89.7642L104.26 89.811L104.401 89.8813L106.733 91.1235L106.85 91.1821L106.956 91.2642L108.983 92.8579L109.768 93.4673L109.51 94.4282L108.819 97.0063L108.772 97.1821L108.678 97.3345L107.518 99.4438L107.002 101.823L106.979 101.917L106.241 104.471L106.147 104.811L105.901 105.069L104.084 107.038L103.932 107.213L103.721 107.319L101.776 108.409L101.038 109.897L100.311 111.315L98.9399 110.506L98.7524 110.401L99.5142 109.112L98.3657 108.526L99.3149 106.663L99.5142 106.264L99.9126 106.042L102.022 104.834L103.452 103.299L104.096 101.084L104.635 98.6001L104.682 98.3892L104.788 98.2017L105.971 96.0337L106.346 94.604L105.186 93.6899L103.124 92.6001L100.827 91.9438L100.323 91.8032L100.03 91.3813L99.9712 91.2993L101.178 90.4204L101.272 90.3501L101.647 89.061L104.108 89.7642Z" fill="black"/>
<path d="M81.9438 32.4878L84.2876 33.3315L84.6743 33.4839L84.9438 33.8003L86.5259 35.769L86.8657 36.1909L86.854 36.7417L86.7954 39.355L86.772 40.0347L86.2446 40.4683L84.3931 42.0034L83.7837 42.9995L84.897 44.6167L86.6079 46.562L86.6899 46.6558L86.7603 46.7729L88.1431 49.0347L88.1665 49.0815L88.1899 49.1167L89.4087 51.4253L89.479 51.5542L89.5142 51.6948L90.0767 53.5581L91.811 54.5542L92.0103 54.6714L92.1743 54.8354L93.3228 56.0776L94.7759 55.4448L95.7251 55.0229L96.4517 55.7612L98.3384 57.6714L100.249 59.3706L100.377 59.4878L100.471 59.6167L101.901 61.6089L103.858 63.1089L104.022 63.2261L104.139 63.4019L105.733 65.5229L105.78 65.5933L107.245 67.8081L107.514 68.2065L107.491 68.687L107.409 71.0894L107.374 71.9565L106.612 72.355L104.374 73.5386L102.288 75.0386L101.889 75.3315H101.409L99.0063 75.3081H97.9517L97.6001 74.312L96.7681 71.9565L95.4556 69.8472L95.3735 69.7183L95.3149 69.5776L94.3774 67.1167V67.105L93.5103 64.7847L92.2563 62.5112L92.2095 62.4175L92.1743 62.3237L91.2251 59.8394L91.061 59.4292L91.1548 58.9956L91.2954 58.3159L90.1235 57.0386L88.0845 55.8784L87.5571 55.5854L87.3931 55.0112L86.6782 52.6909L85.5884 50.605L84.2524 48.4253L82.6118 46.562L82.4946 46.4214L81.3462 44.769L79.2837 44.4644L78.6626 44.3706L78.2993 43.855L76.7524 41.7222L76.2017 40.9722L76.6353 40.1401L77.772 38.0073L78.7798 35.605L78.8149 35.5229L78.8501 35.4526L80.1274 33.1675L80.7485 32.0542L81.9438 32.4878ZM94.2251 58.9604L94.1782 59.1831L94.9517 61.187L96.1587 63.3784L96.2173 63.4722L96.2524 63.5776L97.1899 66.0503L98.0688 68.3706L99.4048 70.5151L99.4985 70.6558L99.5571 70.8081L100.084 72.3081L100.917 72.3198L102.686 71.0542L102.768 70.9956L102.862 70.9487L104.432 70.105L104.479 69.0503L103.284 67.2573V67.2456L101.854 65.3472L99.897 63.8589L99.7212 63.7183L99.5923 63.5308L98.1274 61.4917L96.2759 59.8511L96.2056 59.7808L95.0337 58.5972L94.2251 58.9604ZM81.4751 36.9175L80.5142 39.2026L80.4907 39.2729L80.4673 39.3315L79.729 40.7144L80.3501 41.5815L81.0649 41.6987L81.979 40.2104L82.1079 39.9995L82.2954 39.8472L83.8071 38.5815L83.8306 37.2104L82.8696 36.0034L82.1196 35.7339L81.4751 36.9175Z" fill="black"/>
<path d="M16.9023 38.1714L16.8203 38.7573L16.4688 41.1831L16.4805 41.1948L16.3281 43.1167L16.457 43.2339L16.5156 43.1753L16.6445 41.1831L16.668 40.937L16.75 40.7144L17.3125 39.3315L18.6719 39.8706H18.6836L19.4336 38.5698L19.457 38.5815L20.582 39.2378L20.1016 40.4448L19.6211 41.6167L19.4688 43.9839L19.4336 44.5815L18.9883 44.9917L17.4531 46.3979L16.4336 47.3354L15.4141 46.3745L13.75 44.8042L13.2344 44.312L13.2812 43.5972L13.4922 40.9604V40.9136L13.5039 40.8667L13.8438 38.3589L15.1797 38.5347L15.2734 38.4761L16.4922 37.5972L16.9023 38.1714Z" fill="black"/>
<path d="M16.002 29.8691L18.5332 30.3613L18.791 30.4082L19.0137 30.5371L21.334 31.9199L21.6504 32.1074L21.8379 32.4121L23.0215 34.2988L24.8848 35.248L27.2637 36.0801L29.666 36.5957L31.9629 36.7598L32.127 36.7832L34.6465 37.2402L36.6152 37.4395L38.6777 36.5371L38.8652 36.4668L41.127 35.7871L43.2363 34.0996L43.5293 34.0176L45.6738 33.4082L47.373 32.9277L47.5723 34.6973L47.584 34.8145L46.1074 34.9668L46.4941 36.3027L44.6426 36.8184L42.7793 38.3184L42.5566 38.5059L42.2754 38.5879L39.7676 39.3262L37.4824 40.3457L37.1191 40.5098L36.7207 40.4746L34.2246 40.2051H34.166L34.1074 40.1934L31.6816 39.748L29.3027 39.584L29.1855 39.5723L29.0801 39.5488L26.5137 38.9863L26.4316 38.9746L26.3496 38.9395L23.8535 38.0723L23.7598 38.0371L23.6777 38.002L21.3105 36.8066L20.9355 36.6191L20.7129 36.2676L19.4707 34.2988L17.7246 33.2559L15.873 32.8926L14.6309 33.4316L14.0215 34.627L14.5371 35.9746L16.2129 36.8887L18.5566 37.7793L18.6504 37.8145L18.7441 37.8613L20.9941 39.0918L21.041 39.1152L23.2207 40.3926L25.5879 41.5996L25.6934 41.6465L25.7988 41.7168L27.7441 43.1465L29.9473 43.9082L30.0527 43.9434L30.1465 44.002L30.2402 44.0371L29.5488 45.373L29.209 45.9941L28.9629 46.7441L26.5605 45.9121L26.3496 45.8418L26.1738 45.7129L24.1465 44.2246L21.873 43.0762L21.8262 43.0527L21.791 43.0293L19.5645 41.7168L17.4434 40.5684L15.0762 39.6777L14.9824 39.6426L14.877 39.5957L12.6035 38.3418L12.123 38.0723L11.9238 37.5566L10.9863 35.084L10.752 34.4629L11.0566 33.877L12.2051 31.6035L12.4512 31.1113L12.9434 30.9004L15.123 29.9629L15.5449 29.7754L16.002 29.8691Z" fill="black"/>
<path d="M75.1494 39.1929L77.7627 39.3452L77.6807 40.7397L77.7158 40.7515L79.1338 41.2202L79.0986 41.314L78.7354 42.4038L77.5986 42.3335L75.1963 42.1929L74.7627 42.3101L75.0791 42.9194L76.4268 45.2046L76.5557 45.4155L76.6025 45.6616L77.1533 48.2515L77.3057 48.9663L76.8369 49.5171L75.3604 51.2983L75.1611 51.5444L74.8799 51.6851L72.5127 52.8804L72.4189 52.9272L72.3018 52.9624L69.7822 53.7944L69.6416 53.8413L69.4893 53.853L66.9111 54.146L64.5674 54.7671L62.7158 55.5405L61.7197 56.5249L60.3838 57.8257L59.3994 56.2437L59.2705 56.0327L60.5127 55.2593L59.6338 54.3687L60.8408 53.1968L61.04 53.0093L61.2979 52.8921L63.5244 51.9663L63.6182 51.9194L63.7236 51.896L66.3018 51.2163L66.5127 51.1694L68.9736 50.8882L71.2354 50.1499L73.251 49.1304L74.0713 48.1577L73.7197 46.5288L72.4893 44.4429L72.4658 44.4077L72.4541 44.3726L71.2354 42.0054L70.3564 40.3296L72.1963 39.8608L74.7041 39.2397L74.9268 39.1812L75.1494 39.1929Z" fill="black"/>
<path d="M24.6587 14.7485L24.811 15.1118L24.7759 15.4985L24.5063 18.1235L24.4946 18.2173L24.4712 18.3228L23.8501 20.8774L23.7798 21.1704L23.604 21.4048L22.0103 23.561L21.9985 23.5845L21.9868 23.5962L20.7329 25.1899L20.5103 27.2642V27.3579L20.4868 27.4399L19.9009 29.9126L19.4438 31.9399L19.0454 33.7798L17.3462 32.9712L17.2524 32.936L17.8853 31.6001L16.5142 31.2954L16.9712 29.2446V29.2329L16.9829 29.2212L17.5454 26.854L17.8149 24.4282L17.8618 23.9946L18.1196 23.6665L19.6196 21.7446L20.9907 19.8931L21.5298 17.7017L21.7407 15.5806L20.8735 13.5884L20.6743 13.1196L20.8032 12.6274L20.8267 12.522L22.2798 12.897L22.397 12.9204L23.6274 12.3931L24.6587 14.7485Z" fill="black"/>
<path d="M99.835 97.2163L100.011 97.4741L100.069 97.7905L100.55 100.38L100.562 100.486L100.573 100.603L100.632 103.228L100.644 103.556L100.515 103.849L99.6123 105.958L99.6826 107.658L100.093 108.314L98.8154 109.099L97.5381 109.896L96.9287 108.912L96.7295 108.583L96.7061 108.185L96.6006 105.759L96.5889 105.419L96.7178 105.103L97.6201 102.958L97.5732 100.802L97.1631 98.6226L95.9092 96.771L95.6748 96.4312L95.6631 96.0093L95.6514 95.9155L97.1514 95.8335H97.3154L98.3936 95.0952L99.835 97.2163Z" fill="black"/>
<path d="M65.1548 38.4546L67.6743 38.396H67.8032L67.9321 38.4194L70.5454 38.8296L70.6392 38.8413L70.7329 38.8647L73.1235 39.5562L72.9009 40.3062L72.8071 41.0093L72.6079 42.4976L72.5024 42.4858L72.2915 42.439L69.9478 41.7593L67.6274 41.396L65.0845 41.4546H64.9673L64.8618 41.4312L64.2876 41.3608L64.686 38.3843L65.1548 38.4546Z" fill="black"/>
<path d="M13.9141 7.73486L16.5391 7.99268L17.2773 8.06299L17.6641 8.6958L19.0469 10.9224L19.1172 11.0161L19.1523 11.1333L20.1602 13.5005L18.8945 14.0278L18.8828 14.1099L18.5195 15.563L18.4258 15.5396L17.6992 15.3521L17.4062 14.6724L16.4336 12.3872L15.5078 10.8989L14.8633 10.8403L14.6875 11.4731L14.3008 14.0513L14.2422 14.4497L13.9844 14.7661L12.4844 16.606L11.7578 18.4224L12.0156 20.1567L12.9883 21.5981L14.6875 22.0083L17.1484 22.0317H17.1836L17.2188 22.0435L19.2812 22.1606L21.1328 22.2661L20.6406 24.0591L20.5703 24.2935L19.1641 23.9067L19.1055 25.1489L17.043 25.0317V25.02L14.4531 25.0083L14.2891 24.9966L14.125 24.9614L11.7227 24.3872L11.1602 24.2583L10.832 23.7661L9.34375 21.563L9.15625 21.2817L9.10938 20.9536L8.73438 18.4692L8.67578 18.0708L8.82812 17.6958L9.77734 15.3052L9.85938 15.0942L10 14.9185L11.3945 13.1841L11.7227 10.981L11.7461 10.8989L11.7695 10.8052L12.3203 8.82471L12.6602 7.60596L13.9141 7.73486Z" fill="black"/>
<path d="M37.3765 41.7622L37.4351 42.0083L37.3999 42.2544L37.1304 44.7739L37.0835 46.895L34.0835 46.8247L34.1421 44.7036V44.645L34.1538 44.5864L34.3999 42.2192L33.8726 39.9692L33.8374 39.8286L33.8257 39.6763V39.5825L35.3257 39.5239L35.8413 39.5122L36.7905 39.2778L37.3765 41.7622Z" fill="black"/>
<path d="M14.9258 23.7729L14.9492 23.9604L15.125 26.187L15.9922 28.3784L16.0391 28.5073L16.0625 28.6479L16.4844 30.8511L16.7773 32.3979L15.1367 32.6323L14.9258 31.144L13.5312 31.4136L13.1562 29.3628L12.2539 27.0659L12.1719 26.855L12.1484 26.6323L11.9727 24.3237L11.9609 24.2886L11.9727 24.2769L11.9609 24.2065L12.6523 24.1362L13.4375 23.9839L14.9023 23.6792L14.9258 23.7729Z" fill="black"/>
<path d="M55.5811 26.439L56.167 26.603L57.6084 27.0249L57.5732 27.1187L57.5498 27.2358L57.4912 27.3413L56.4248 29.5444L56.4365 29.5562L55.5576 31.5601L55.8037 32.8491L56.0498 34.1733L54.7607 34.5601L54.667 34.5835L54.2451 33.1538L54.2334 33.1421L52.8506 33.4116L52.5225 31.689L52.4404 31.2319L52.6162 30.8101L53.6943 28.3608V28.3374L53.7061 28.314L54.7842 26.0522L55.5811 26.439Z" fill="black"/>
<path d="M49.2163 32.103H49.2515L50.6577 31.5757L51.0796 32.7007L50.2124 33.3804L48.5132 34.7046L48.2671 35.4077L48.9468 35.9233L50.8101 35.6069L51.7593 35.4429L52.3101 36.2515L52.4155 36.4155L51.1733 37.2593L51.103 37.2944L51.314 38.5718L48.8179 38.9937L48.1733 39.0991L47.6577 38.7124L45.6069 37.1538L44.7397 36.5093L45.0913 35.478L45.8296 33.3101L45.9702 32.8882L46.3218 32.6069L48.3608 31.0132L49.2163 32.103Z" fill="black"/>
<path d="M40.8472 12.3779L41.2104 12.4014L41.5269 12.5771L42.7808 13.3271L44.0464 13.6904L44.105 13.7139L44.1519 13.7256L44.2456 13.7607L43.7183 15.167L43.2026 16.5732L43.1909 16.5615V16.5732L43.144 16.5498L41.7495 16.1396L41.5737 16.0928L41.4097 15.999L40.3198 15.3545L39.8511 15.3311L37.8003 15.2256L38.5269 13.3037L38.5503 13.2217L39.9331 13.749L40.0034 12.3311L40.8472 12.3779Z" fill="black"/>
<path d="M91.0898 48.8921L91.1484 48.9507L90.1992 50.064L91.5352 50.4624L91.3594 51.0718L91.207 51.5522L90.7969 51.8569L90.0352 52.3843L89.5781 53.0405L89.543 53.0991L89.4844 53.1577L89.4258 53.2397L88.2891 52.2554L87.5508 51.6108L87.1289 51.3179L87.1641 51.271L87.1992 51.2241L87.7266 50.4624L87.8789 50.2397L88.0898 50.0991L88.6289 49.7124L88.6641 49.5952L89.3438 47.3804L91.0898 48.8921Z" fill="black"/>
</svg>
