<svg width="120" height="120" viewBox="0 0 120 120" fill="none" xmlns="http://www.w3.org/2000/svg">
<path d="M60.3379 39.0791L61.4756 41.3213L61.6465 41.6562L61.6377 42.0332L61.5713 45.0332L61.5693 45.0703L61.4307 48.0195L61.3906 51.0195L61.3867 51.3643L61.2314 51.6729L59.9883 54.1494L59.8926 54.3408L59.748 54.4971L57.7051 56.6973L57.6777 56.7266L55.5791 58.8701L55.5781 58.8691L53.8486 60.6426L53.6211 62.7979L53.4961 65.75L53.4355 68.6836L53.5 71.6211L53.6299 74.6211L53.6309 74.6562V74.6904L53.6221 77.6904V77.7539L53.6162 77.8164L53.5684 78.3662L54.8574 78.2441L55.0176 78.2285L55.1768 78.248L58.1113 78.5967L60.9189 78.6992L63.7803 78.2764L63.8848 78.2607L63.9902 78.2598L66.9902 78.2412L67.124 78.2402L67.2549 78.2627L70.0586 78.7471L72.8662 78.4961L72.9863 78.4844L73.1074 78.4932L75.9648 78.6982L78.8223 78.3574L78.998 78.3369L79.1738 78.3574L81.7041 78.6523L82.584 78.1787L82.291 76.2227L82.2764 76.1221L82.2754 76.0195L82.2354 73.0195L82.2217 71.9961L83.1699 71.6104L85.4355 70.6895L85.6572 70.5996L85.8975 70.583L88.8975 70.377L88.9873 70.3701L89.0781 70.375L92.0166 70.5273L94.9502 70.4307L95.002 70.4287L95.0537 70.4307L97.9883 70.5361L100.924 70.3877L101.025 70.3828L101.126 70.3906L104.08 70.6406L107.036 70.7139L109.999 70.7119L110.281 70.7109L110.544 70.8135L112.571 71.6016L113.467 71.9502L113.524 72.9102L113.704 75.9102L113.71 75.9951L113.705 76.0801L113.549 79.0234L113.635 81.9561L113.638 82.0742L113.623 82.1914L113.253 85.0557L113.409 87.8848L113.641 90.8848L113.649 90.9941L113.642 91.1045L113.438 94.0332L113.516 96.9512L113.613 99.9512L113.616 100.037L113.609 100.124L113.372 102.975L113.704 105.827L113.719 105.947L113.713 106.067L113.58 108.99L113.749 111.914L113.754 111.995L113.75 112.077L113.595 115.077L113.593 115.111L113.59 115.145L113.493 116.145L113.362 117.5H111.85L111.8 117.497L111.015 117.444L109.836 117.488H109.812L106.309 117.547H106.297L103.97 117.555L103.088 117.606L103.047 117.609H103.007L101.966 117.613L99.3359 117.746L99.1953 117.758L99.0547 117.734L96.5264 117.37L94.1133 117.554L94.0645 117.558H94.0146L91.0146 117.588H90.9912L88.0312 117.571L85.0615 117.693L84.9854 117.696L84.9102 117.691L81.9541 117.514L79.1328 117.49L78.3125 117.559H78.2656L76.8135 117.621L76.5391 117.668L76.3633 117.703L76.1875 117.691L75.7715 117.667L74.7617 117.711L74.6445 117.723L74.5391 117.711L72.6309 117.512L70.1162 117.708L70.0469 117.714L69.9785 117.713L66.9785 117.669V117.668L63.9922 117.653H63.9814L63.9707 117.652L60.998 117.595L58.0273 117.649L57.9219 117.651L57.8174 117.639L55.7344 117.383L53.7266 117.512L53.7031 117.523H53.668L52.584 117.552L52.5195 117.884L51.1533 117.736L50.0352 117.615L46.5664 117.512V117.5L43.0859 117.488H43.0273L40.0234 117.325L39.3975 117.307H39.3887L36.5234 117.713L36.3584 117.735L36.1934 117.723L33.2764 117.486L30.3633 117.584L30.2754 117.586L30.1875 117.579L28.8125 117.463L25.6484 117.664L25.5312 117.676L25.4258 117.664L23.4561 117.499L21.4482 117.681L21.3652 117.688L21.2822 117.686L18.2822 117.623L18.0645 117.618L17.8574 117.553L17.5303 117.448L15.0898 117.57H15.0781L11.5625 117.688L11.4922 117.699L11.4219 117.688L8.01172 117.5H8V114.5H8.1875L11.5391 114.699L14.2676 114.604L14.2393 112.333L14.2383 112.264L14.2441 112.194L14.4746 109.305L14.2871 106.411L14.2793 106.284L14.292 106.158L14.5908 103.291L14.377 100.426L14.373 100.377L14.3721 100.327L14.3457 97.3271L14.3447 97.2578L14.3506 97.1895L14.5918 94.2832L14.4707 91.377L14.4668 91.2822L14.4746 91.1875L14.7168 88.3184L14.4434 85.4561L14.4326 85.335L14.4404 85.2139L14.6338 82.3105L14.4463 79.4111L14.4414 79.3418L14.4434 79.2725L14.5244 76.3252L14.4189 73.3672L14.416 73.2656L14.4258 73.165L14.7129 70.2734L14.5977 67.374L14.5967 67.3594V67.3447L14.5342 64.3447L14.5332 64.2861L14.5361 64.2275L14.6787 61.7295L13.4775 59.9355L11.4502 57.9385L11.4004 57.8906L11.3564 57.8379L9.49512 55.6338L7.29199 53.7734L6.8291 53.3828L6.76758 52.7803L6.46094 49.7803L6.4502 49.6719L6.4541 49.5635L6.58203 46.585L6.58398 43.625V43.6055L6.58496 43.585L6.6709 40.585L6.70508 39.3818L7.88672 39.1543L10.0889 38.7305L10.1387 38.7207L10.1875 38.7148L13.1875 38.3428L13.3291 38.3252L13.4717 38.335L16.4053 38.5303L19.3398 38.4648L20.5791 38.4375L20.8389 39.6494L21.3564 42.0576L21.376 42.1484L21.3838 42.2412L21.6484 45.2412L21.6543 45.3018V45.3623L21.6602 46.374L22.9248 46.3105L23.0127 46.3057L23.1006 46.3115L25.7178 46.4863L26.6865 46.0391L26.6904 44.0762L26.4023 41.1475L26.3027 40.1455L27.1934 39.6738L29.2988 38.5605L29.6406 38.3789L30.0283 38.3867L33.0283 38.4434H33.0771L33.125 38.4482L36.0312 38.6924L38.9482 38.5908L39.9199 38.5566L40.3477 39.4307L41.2812 41.3408L41.4102 41.6045L41.4307 41.8975L41.6357 44.8975L41.6426 44.9883L41.6377 45.0781L41.5693 46.3701L42.8828 46.2676L42.9619 46.2617L43.041 46.2637L45.7441 46.3369L46.5742 46.0234L46.3066 44.2207L46.2861 44.0879L46.291 43.9541L46.3828 40.9541L46.4111 40.0391L47.2383 39.6455L49.3555 38.6377L49.6904 38.4775L50.0615 38.4932L53.0176 38.6152L55.917 38.5312L58.8652 38.2646L59.877 38.1738L60.3379 39.0791ZM86.3398 73.5596L85.248 74.0029L85.2725 75.8789L85.708 78.7773L85.8652 79.8213L84.9355 80.3213L82.7109 81.5186L82.2949 81.7422L81.8262 81.6875L79.0029 81.3574L76.1777 81.6953L76.0352 81.7119L75.8926 81.7012L73.0137 81.4932L70.1338 81.7529L69.9385 81.7705L69.7451 81.7373L66.8789 81.2412L64.1182 81.2588L61.2197 81.6885L61.083 81.708L60.9443 81.7031L57.9443 81.5928L57.8838 81.5908L57.8232 81.583L54.9834 81.2451L53.5957 81.377L53.4014 83.0811L53.4121 85.9629L53.4863 88.9629V88.9707L53.4873 89.0312L53.5322 89.5605L53.5381 89.6279L53.5371 89.6973L53.5264 91.1035L53.5439 91.9707V91.9854L53.5557 93.25L53.707 95.5898L53.7168 95.7441L53.6943 95.8975L53.6465 96.2305L53.7451 97.9131L53.7549 98.0801L53.7275 98.2451L53.2979 100.83L53.3027 101.437L53.5508 103.847L53.5615 103.957L53.5566 104.067L53.4629 106.133L53.5107 107.64L53.5117 107.684L53.5107 107.727L53.4941 108.31L53.5811 109.921L53.5869 110.035L53.5752 110.148L53.376 112.135L53.3242 113.517L53.3877 114.364L54.9219 114.284L55.0527 114.277L55.1826 114.294L55.834 114.373L57.043 114.289H57.1602L60.6641 114.336L60.6523 114.348H62.457L62.3125 113.555L62.2891 113.402V113.262L62.3359 110.262L62.3477 107.273V107.25L62.4062 104.25V104.145L62.6875 101.133L62.7227 100.734L62.957 100.406L64.6914 97.9688L64.7852 97.8281L64.9141 97.7109L67.0938 95.7656L67.3047 95.5781L67.5625 95.4844L70.3867 94.4062L70.8906 94.207L71.3945 94.3828L71.9805 94.582L72.3203 94.6992L72.332 94.7227L74.7109 95.3086L74.9453 95.3672L75.1445 95.4961L77.6289 97.043L77.875 97.207L78.0508 97.4414L79.8086 99.8555L80.0078 100.137L80.0664 100.477L80.6055 103.453L80.6406 103.664L80.6172 103.863L80.3359 106.699L80.5586 109.605V109.699L80.582 112.699V112.723L80.5742 114.371L81.5938 114.289L81.7109 114.277L81.8398 114.289L85.1914 114.582L88.6602 114.43L88.7305 114.418L88.7891 114.43L92.1523 114.559L95.6211 114.254L95.7852 114.242L95.9609 114.266L96.6025 114.356L96.8867 114.336L97.0166 114.326L97.1445 114.339L100.07 114.622L101.855 114.613L102.699 114.57H102.758L103.675 114.566L105.912 114.436H105.925L105.937 114.435L108.937 114.308L109.019 114.305L109.1 114.31L110.625 114.411L110.749 112.008L110.581 109.086L110.577 109.01L110.58 108.933L110.71 106.051L110.376 103.173L110.358 103.024L110.37 102.876L110.611 99.958L110.517 97.0488V97.04L110.437 94.04L110.435 93.9678L110.439 93.8955L110.642 91.0039L110.418 88.1152L110.416 88.082L110.251 85.082L110.243 84.9453L110.261 84.8086L110.632 81.9258L110.548 79.0439L110.547 78.9824L110.55 78.9199L110.704 76.001L110.587 74.0498L109.72 73.7119L107.001 73.7139H106.962L103.962 73.6377L103.918 73.6367L103.874 73.6328L100.972 73.3887L98.0762 73.5361L98.0107 73.5391L97.9463 73.5371L94.9951 73.4297L92.0498 73.5273L91.9854 73.5303L91.9219 73.5264L89.0088 73.375L86.3398 73.5596ZM10.6064 41.6855L9.63477 41.873L9.58398 43.6699L9.58105 46.6289L9.5791 46.6914L9.45605 49.585L9.68945 51.8721L11.5283 53.4238L11.625 53.5049L11.7061 53.6016L13.6064 55.8525L15.6924 57.9062L15.8018 58.0137L15.8867 58.1406L17.4521 60.4795L17.7324 60.8975L17.7031 61.3994L17.5342 64.3428L17.5947 67.2539L17.7158 70.2539L17.7197 70.3584L17.71 70.4619L17.4199 73.3643L17.5244 76.2598L17.5264 76.3076L17.5244 76.3555L17.4434 79.2891L17.6338 82.2168L17.6406 82.3154L17.6338 82.4131L17.4414 85.2881L17.7168 88.1709L17.7295 88.3057L17.7178 88.4404L17.4717 91.3467L17.5938 94.251L17.5977 94.3447L17.5898 94.4385L17.3457 97.3613L17.3711 100.246L17.5928 103.201L17.6025 103.336L17.5889 103.47L17.2891 106.343L17.4766 109.216L17.4834 109.325L17.4746 109.434L17.2393 112.361L17.2627 114.213L17.916 114.421L18.4531 114.395H18.5234L22.0391 114.383H22.168L23.4209 114.49L24.1797 114.423L24.2256 114.419L24.2705 114.417L27.2705 114.332L27.3555 114.329L27.4395 114.336L28.8105 114.451L28.9648 114.441H29.0469L32.5625 114.418H32.5742L36.0312 114.43L39.0244 114.329L39.1045 114.318L39.2314 114.301L39.3594 114.305L39.5469 114.31L39.6055 114.301L39.6641 114.312L39.7373 114.315L42.3145 114.395L45.291 114.35L45.3203 114.349L45.3506 114.35L48.3506 114.423L48.4121 114.424L48.4746 114.431L50.1074 114.606L50.3184 113.529L50.2881 113.11L50.2783 112.98L50.291 112.852L50.3809 111.942L50.4307 110.646L50.4922 108.34L50.4258 107.079L50.4219 107.006L50.4248 106.933L50.4609 106.118L50.418 104.733V104.732L50.3066 101.742L50.3057 101.72V101.698L50.3047 101.602L50.2588 101.153L50.2383 100.953L50.2705 100.755L50.2969 100.595L50.2822 98.6982L50.2812 98.5859L50.2969 98.4746L50.6338 96.1006L50.5752 95.0869L50.5732 95.0508V95.0146L50.5566 93.3691L50.5195 92.7832L50.5166 92.7295V92.6758L50.5264 91.1045L50.4883 89.1777L50.29 86.8125L50.2852 86.752L50.2842 86.6914L50.2734 83.6914V83.667L50.2744 83.6426L50.3623 80.6426L50.3633 80.5996L50.3672 80.5566L50.6221 77.6211L50.6299 74.7246L50.5029 71.751L50.502 71.7354L50.501 71.7188L50.4355 68.7188V68.6553L50.498 65.6553V65.6387L50.499 65.6221L50.626 62.6221L50.6289 62.5762L50.6338 62.5293L50.9199 59.8105L50.9746 59.293L51.3379 58.9199L53.4336 56.7734L53.4355 56.7715L55.5137 54.6484L57.4033 52.6123L58.3955 50.6348L58.4307 47.9805L58.4326 47.9297L58.5732 44.9297L58.6299 42.3428L58.1221 41.3438L56.1348 41.5225L56.0889 41.5273L56.043 41.5283L53.043 41.6152L52.9912 41.6162L52.9385 41.6143L50.3086 41.5059L49.3535 41.9609L49.293 43.9121L49.7197 46.7793L49.8975 47.9756L48.7656 48.4033L46.5303 49.248L46.2539 49.3525L45.959 49.3447L43.0391 49.2646L40.1006 49.4951L38.3955 49.6289L38.4844 47.9219L38.6367 45.0078L38.457 42.3945L38.0791 41.6221L36.0518 41.6924L35.9629 41.6963L35.875 41.6885L32.9219 41.4414L30.3584 41.3926L29.4863 41.8545L29.6836 43.8525L29.6914 43.9277V44.0029L29.6855 47.0029L29.6836 47.96L28.8145 48.3613L26.6289 49.3711L26.2812 49.5312L25.8994 49.5059L22.9912 49.3105L21.6807 49.376L21.6816 49.5H20L19.6465 48.0029L18.6719 48.0098L18.6543 45.4414L18.4023 42.5918L18.166 41.4912L16.4053 41.5303L16.3389 41.5312L16.2734 41.5273L13.417 41.3369L10.6064 41.6855ZM68.8867 98.1797L67.0352 99.832L65.6289 101.812L65.3945 104.297L65.4062 104.309L65.3477 107.309L65.3359 110.285V110.309L65.2891 113.156L65.5117 114.369L66.9541 114.394L67.2344 114.387L67.2812 114.375L67.3398 114.387L67.8193 114.403L71.1523 114.348H71.2461L71.3398 114.359L72.6738 114.5L72.8838 114.484L72.917 114.481L72.9502 114.48L75.9502 114.382L76.002 114.38L76.0537 114.382L77.5703 114.437L77.582 112.734L77.5586 109.828L77.3359 106.828L77.3242 106.699L77.3359 106.57L77.6055 103.781L77.1602 101.332L75.8125 99.457L73.75 98.168L71.207 97.5234L70.8555 97.4297L68.8867 98.1797ZM42.1455 78.6943L42.4922 78.707L42.7979 78.8711L44.6416 79.8574L45.3828 80.2549L45.4307 81.0947L45.6064 84.1846L45.6094 84.2236V84.2637L45.623 87.3535V87.4277L45.6162 87.501L45.3252 90.5908L45.2803 91.0625L44.9727 91.4238L43.6016 93.0312L43.1582 93.5508L42.4746 93.5576L39.3848 93.5879L38.0889 93.6006L37.8877 92.3203L37.4473 89.5127L37.4336 89.4268L37.4297 89.3398L37.3066 86.25L37.3037 86.1758L37.3086 86.1025L37.4863 83.0586L37.5107 79.998L38.75 80.0068L39.0713 79.7207L39.1133 78.582L42.1455 78.6943ZM98.1455 78.6943L98.4922 78.707L98.7979 78.8711L100.642 79.8574L101.383 80.2549L101.431 81.0947L101.606 84.1846L101.609 84.2236V84.2637L101.623 87.3535V87.4277L101.616 87.501L101.325 90.5908L101.28 91.0625L100.973 91.4238L99.6016 93.0312L99.1582 93.5508L98.4746 93.5576L95.3848 93.5879L94.0889 93.6006L93.8877 92.3203L93.4473 89.5127L93.4336 89.4268L93.4297 89.3398L93.3066 86.25L93.3037 86.1758L93.3086 86.1025L93.4863 83.0586L93.5107 79.998L94.75 80.0068L95.0713 79.7207L95.1133 78.582L98.1455 78.6943ZM40.4854 83.1123V83.1494L40.4834 83.1875L40.3076 86.207L40.4238 89.1289L40.6504 90.5752L41.7617 90.5635L42.3818 89.8369L42.6221 87.2842L42.6094 84.3242L42.4824 82.1045L41.6875 81.6787L40.4971 81.6348L40.4854 83.1123ZM96.4854 83.1123V83.1494L96.4834 83.1875L96.3076 86.207L96.4238 89.1289L96.6504 90.5752L97.7617 90.5635L98.3818 89.8369L98.6221 87.2842L98.6094 84.3242L98.4824 82.1045L97.6875 81.6787L96.4971 81.6348L96.4854 83.1123ZM27.1455 58.6943L27.4922 58.707L27.7979 58.8711L29.6416 59.8574L30.3828 60.2549L30.4307 61.0947L30.6064 64.1846L30.6094 64.2236V64.2637L30.623 67.3535V67.4277L30.6162 67.501L30.3252 70.5908L30.2803 71.0625L29.9727 71.4238L28.6016 73.0312L28.1582 73.5508L27.4746 73.5576L24.3848 73.5879L23.0889 73.6006L22.8877 72.3203L22.4473 69.5127L22.4336 69.4268L22.4297 69.3398L22.3066 66.25L22.3037 66.1758L22.3086 66.1025L22.4863 63.0586L22.5107 59.998L23.75 60.0068L24.0713 59.7207L24.1133 58.582L27.1455 58.6943ZM25.4854 63.1123V63.1494L25.4834 63.1875L25.3076 66.207L25.4238 69.1289L25.6504 70.5752L26.7617 70.5635L27.3818 69.8369L27.6221 67.2842L27.6094 64.3242L27.4824 62.1045L26.6875 61.6787L25.4971 61.6348L25.4854 63.1123Z" fill="black"/>
</svg>
