<svg width="120" height="120" viewBox="0 0 120 120" fill="none" xmlns="http://www.w3.org/2000/svg">
<path d="M97.1133 7.96094L98.4141 9.36719L98.7188 9.69531L98.7891 10.1406L99.2109 12.7305L99.2227 12.8242L99.2344 12.9297L99.3047 15.5898L99.3164 15.918L99.1875 16.2344L98.1328 18.6602L98.0859 18.7656L98.0273 18.8594L96.6562 21.0625L96.5742 21.1797L96.4805 21.2852L95.6963 22.1455L96.2852 21.957L96.3906 21.9219L96.4844 21.8984L99.0977 21.4414L99.1445 21.4297H99.2031L100.582 21.2861L100.823 20.1582L100.869 19.9893L100.938 19.8262L102.09 17.4434L102.129 17.3447L102.188 17.2637L103.642 15.0625L103.73 14.916L103.861 14.7939L105.775 12.998L105.821 12.9619L105.871 12.915L107.905 11.2979L108.12 11.1377L108.363 11.0469L110.824 10.2266L112.045 9.80762L112.638 10.9668L113.498 12.6602L113.689 13.0293L113.66 13.4463L113.48 16.0947L113.462 16.4297L113.296 16.7246L112.004 19.043L111.936 19.1582L111.846 19.2676L110.202 21.2715L110.083 21.3965L109.944 21.5049L107.853 23.1064L107.685 23.2305L107.492 23.3115L105.006 24.2705L104.73 24.3887L104.43 24.3789L102.278 24.3369L102.088 24.4541L101.53 24.3623L101.508 24.3564L100.983 24.2578L99.5195 24.418L99.5078 24.4062L97.0469 24.8516L95.2627 25.4365L95.2656 25.4375L97.8672 25.9766L98.0312 26.0117L98.1836 26.082L100.598 27.1836L100.762 27.2773L103 28.6719L103.152 28.7656L103.281 28.8945L105.109 30.7812L105.191 30.8633L105.262 30.9688L106.727 33.0898L107.477 34.1562L106.516 35.0469L105.109 36.3477L104.781 36.6523L104.336 36.7227L101.746 37.1445L101.652 37.1562L101.547 37.168L98.8867 37.2383L98.5586 37.25L98.2422 37.1211L95.8164 36.0664L95.7109 36.0195L95.6172 35.9609L93.4141 34.5898L93.2969 34.5078L93.1914 34.4141L91.2461 32.6445L91.1172 32.5156L91.0117 32.375L89.5234 30.1602L89.3711 29.9258L89.3125 29.668L89.0195 28.4141L88.75 28.4258L88.7061 27.917L87.9648 28.4258L86.3242 30.0312L85.792 30.8662L86.5586 31.4414L87.707 31.9453L87.0742 34.8164L84.7422 34.7578L82.5859 35.625L82.5156 35.6484L82.4453 35.6602L80.1953 36.3047L79.7549 36.6963L79.7852 38.7617L80.207 41.1992L80.7578 43.7773V43.8125L80.7695 43.8477L81.2031 46.4375L81.2148 46.5195L81.2266 46.5898L81.4023 49.1094L82.0703 51.4883L82.0938 51.6055L82.5977 54.207V54.2422L82.6094 54.2773L82.9844 56.8906L83.3594 59.5156L83.3711 59.6562V59.7969L83.2539 62.4453V62.4688L83.0781 65.1055V65.1875L83.0547 65.2695L82.6094 67.8594L82.1992 70.4375V70.4492L81.7656 73.0859L81.7422 73.2266L81.6953 73.3555L80.7812 75.8516L80.7578 75.9219L80.7227 75.9922L79.5508 78.3828L79.5039 78.4766L79.4453 78.5703L77.957 80.7617L77.8633 80.8789L76.1641 82.918L76.0234 83.0938L75.8359 83.2109L73.6797 84.6172L71.582 86.1758L71.5234 86.2109L71.4766 86.2461L69.2266 87.6641L69.0156 87.793L68.7812 87.8516L66.2148 88.4609L63.7891 89.2578L63.6484 89.3047L63.5078 89.3281L60.9766 89.6445L58.4453 90.2188L58.1758 90.2773L57.9062 90.2422L55.3516 89.9023L52.9141 90.0781L52.8438 90.0898H52.7734L50.1367 90.0195H50.1133L50.1016 90.0078L47.9219 89.8906L46.9258 90.5117L46.0117 92.5156L45.9648 92.5977L45.9062 92.6914L44.6172 94.7188L43.9609 97.3438L43.8203 97.543L42.3789 99.793L41.2891 101.914L40.6328 104.305L40.6094 104.422L40.5508 104.527L39.4609 106.93L39.3906 107.07L39.3086 107.188L37.8086 109.227L36.8477 111.395L36.3906 112.414L35.2773 112.262L32.6758 111.91H32.6406L32.6055 111.898L30.0039 111.43L29.5352 111.336L29.207 111.008L27.3555 109.121L27.2031 108.957L27.0977 108.758L25.9375 106.508L25.8672 106.391L25.832 106.262L25.3398 104.668L24.4844 104.598L24.3086 104.586L24.1445 104.527L21.6016 103.695L21.5195 103.66L21.4492 103.625L19.0469 102.523L18.6719 102.348L18.4492 102.02L16.9258 99.8516L16.8086 99.6758L16.7383 99.4883L15.8945 97.0742L15.3555 96.0312L13.5156 95.7617L13.1992 95.7148L12.9414 95.5508L10.7031 94.1562L10.5273 94.0508L10.3867 93.8984L8.66406 92.0117L8.47656 91.8008L8.37109 91.543L7.44531 89.1758L7.375 89L7.35156 88.8125L7.02344 86.2227L7 86L7.03516 85.7891L7.25781 84.4883L7.71484 84.5674L7.57031 83.2461L8.83594 83.1172L9.02344 83.0938L9.19922 83.1172L11.7305 83.457L14.2031 83.5156L16.6055 83.1406L19.1719 82.6367L21.7617 82.1094L21.832 82.0977L21.9141 82.0859L24.3984 81.8398L26.7422 81.1133L29.0977 80.1055L29.1562 80.082L29.2266 80.0586L31.6289 79.2734L33.8086 78.0664L36.0117 76.7188L36.0586 76.6836L36.1055 76.6602L38.3086 75.5352L38.918 75.043L37.8281 75.0781H37.7461L35.0859 74.9844H34.8281L34.5938 74.8906L32.1211 73.9297L29.7188 73.3438L29.5898 73.3086L29.4492 73.25L27.0938 72.1602L24.6914 71.0938L24.5273 71.0234L24.3867 70.9062L22.3125 69.3125V69.3008L20.1914 67.8125L19.957 67.6484L19.8047 67.4141L18.3633 65.1875L18.3164 65.1172L17.0039 62.8555L16.7695 62.457L16.8047 62.0117L16.9219 60.0312L17.0039 58.6367L18.3984 58.6133L20.918 58.5898L23.4141 58.1445L23.4258 58.1328H23.4492L25.0664 57.875L23.5312 57.2188L23.4258 57.1719L23.332 57.125L21.1055 55.7539L18.8203 54.5469L18.6797 54.4648L18.5625 54.3711L16.5352 52.6836L16.4766 52.625L14.543 50.8203L14.4023 50.6797L14.2969 50.5156L12.9141 48.2773L12.8672 48.1836L11.625 45.8516L11.4609 45.5469V45.1953L11.3906 42.5703L11.3789 41.6914L12.1172 41.2461L13.1367 40.625L13.6289 40.332L14.1914 40.4375L15.5625 40.6953L14.9766 39.6523L13.3828 37.6602L13.1484 37.3789L13.0781 37.0156L12.5742 34.3906V34.3555L12.1289 31.7773L12.1055 31.6836V31.6016L11.9648 28.9648V28.7539L12.1992 26.1289L12.2344 25.7891L12.3984 25.4961L13.4648 23.6797L14.1328 22.5312L15.3516 23.0586L17.7773 24.0898L17.9531 24.1719L18.0938 24.2773L20.0391 25.7539L22.3359 26.5859L22.4531 26.6211L22.5586 26.6797L24.8203 27.9219L27.1641 28.8945L27.293 28.9531L27.3984 29.0234L29.4844 30.3477L31.8516 31.2148L31.9219 31.2383L34.3594 32.2695L34.5 32.3281L34.6289 32.4219L36.7852 33.8984L38.9883 35L39.0352 35.0117L39.0703 35.0352L41.3555 36.3477H41.3672L43.6406 37.6719L43.6758 37.6836L43.6992 37.707L45.8203 39.0547H45.832L48.1641 40.3203L48.2227 40.3555L48.293 40.4023L50.251 41.7314L50.875 40.8047L51.8125 38.6133L52.6445 36.1055V36.0938H52.6562L53.5117 33.5977L53.5586 33.4805L54.5547 31.1836L55.082 28.7578L55.0938 28.6875L55.1172 28.6172L55.9023 26.0977L55.9492 25.9805L56.9336 23.5312L56.9805 23.4141L58.1875 21.0352L58.3047 20.8008L58.4922 20.625L60.4258 18.7852L60.5547 18.6562L60.7188 18.5742L63.0039 17.2734L63.2031 17.1562L63.4258 17.1094L65.9922 16.5586L66.0742 16.5352H66.1562L68.7812 16.2656H68.957L71.6289 16.3125H71.8867L72.1445 16.418L74.6406 17.3906L74.8516 17.4727L75.0391 17.625L77.125 19.3008L77.2891 19.4297L77.4062 19.6055L78.9414 21.7852L78.9766 21.832L79.0117 21.8906L80.3359 24.1875L80.4062 24.293L80.4414 24.3984L81.3086 26.6953L82.7148 28.4883L83.4121 29.0371L83.8984 28.2852L83.9922 28.1445L84.1094 28.0156L85.9727 26.1992L86.0576 26.1133L84.4219 26.2539L87.4805 23.5469L87.457 22.1641V22.1289L87.4805 19.5039V19.3516L87.5039 19.2109L88.043 16.6094L88.0781 16.4453L88.1484 16.293L89.25 13.8789L89.3438 13.7148L90.7383 11.4766L90.832 11.3242L90.9609 11.1953L92.8477 9.36719L92.9297 9.28516L93.0352 9.21484L95.1562 7.75L96.2227 7L97.1133 7.96094ZM66.5664 19.4883L64.2695 19.9922L62.3594 21.0703L60.7422 22.6055L59.6641 24.7617L58.7734 26.9883L58.0117 29.3789L57.4727 31.9688L57.4375 32.1211L57.3789 32.2617L56.3477 34.582L55.4805 37.043L55.4922 37.0547L54.6602 39.5625L54.6484 39.6211L54.625 39.668L53.5938 42.1172L53.5352 42.2578L53.4531 42.375L52.5352 43.7256L52.6055 43.7891L54.6094 45.793L54.6797 45.8867L56.2148 48.0195L56.2266 48.0312L57.7383 50.1758L57.832 50.3047L57.8906 50.4453L58.9453 52.8477L58.9922 52.9414L59.0156 53.0469L59.707 55.5781L59.7305 55.6367L59.7422 55.707L60.2227 58.3203L60.2695 58.5781L60.2227 58.8242L59.8008 61.4492V61.4609L59.3555 64.0391V64.0742L59.3438 64.0977L58.793 66.6992L58.7461 66.8398L57.9375 69.3711L57.8906 69.5117L57.8203 69.6406L56.5781 71.8789L55.6758 71.3633L55.2305 71.2461L53.7891 70.8242L53.8242 70.7305L53.8711 70.5664L53.9531 70.4141L55.1133 68.3047L55.8516 66.043L56.4141 63.4766L56.8359 60.9453L57.2227 58.5781L56.7891 56.2461H56.7773L56.1445 53.9492L55.1953 51.7812L53.7773 49.7656V49.7539L52.3008 47.7266L50.5898 46.0156L48.7031 44.3047L46.6055 42.8867H46.5938L44.4023 41.6914L44.3086 41.6445L42.0938 40.2383V40.2266L39.8672 38.9492L37.582 37.6484V37.6367L35.2969 36.5117L35.1914 36.4648L35.1094 36.4062L33.0586 34.9766L30.75 34.0039V33.9922L28.3242 33.1133L28.1719 33.0664L28.0312 32.9727L25.875 31.6133L23.5781 30.6641L23.4961 30.6289L23.4258 30.582L21.2344 29.375L18.8203 28.5078L18.6094 28.4375L18.4219 28.2969L16.4297 26.7852L15.375 26.3281L15.1523 26.7148L14.9648 28.8594L15.0938 31.3789L15.5273 33.8516L15.9492 36.0664L17.4023 37.8828L17.4727 37.9766L17.5312 38.082L18.75 40.2031L20.2969 41.7617L22.4766 42.7578L22.4883 42.7695L22.5117 42.7812L24.4219 43.707L24.457 43.7188L24.6094 43.7891L27.0117 44.8906L27.6445 45.1836L27.832 45.8516L27.9375 46.2617L28.9453 49.8945L25.7227 47.9375L23.4141 46.5547L21.0586 46.0391L20.8594 45.9922L20.6836 45.8984L18.3398 44.6797L16.1367 43.8359L14.4141 43.5312L14.4492 44.7617L15.4688 46.6953L16.7344 48.7578L18.5156 50.4219L20.3555 51.9453L22.5586 53.1289L22.5938 53.1523L22.6406 53.1758L24.8203 54.5117L27.0117 55.4609L29.4375 56.2461L31.9453 56.6797L32.1328 56.7266L34.6641 57.5234L34.2656 60.4531L31.6758 60.5234L29.1445 60.8516L29.0039 60.8633L28.875 60.8516L26.3789 60.7109L23.9062 61.0977L23.8945 61.0859L21.3281 61.5664L21.2109 61.5781L21.082 61.5898H19.8281L19.8164 61.7305L20.918 63.6172H20.9062L22.1367 65.5156L24.0938 66.8984L24.1172 66.9102L24.1523 66.9336L26.0742 68.4219L28.3125 69.418L28.3359 69.4297L30.5859 70.4727L33 71.0703L33.0938 71.0938L33.1758 71.1289L35.4375 71.9961L37.793 72.0664L40.3945 72.0078H40.4766L40.5586 72.0195L43.1953 72.2305L47.0859 72.5586L43.9805 74.9258L42.1289 76.3203L40.0781 77.9727L39.9492 78.0664L39.8203 78.1367L37.4766 79.332L35.3203 80.668L35.2852 80.6797L35.2617 80.6914L32.9414 81.9805L32.8125 82.0508L32.6719 82.0977L30.2227 82.8828L27.8438 83.9141L27.7734 83.9492L27.6914 83.9727L25.1602 84.7578L25.0195 84.8047L24.8672 84.8164L22.2773 85.0625L19.7812 85.5781H19.7695L17.1797 86.0938L17.1562 86.1055H17.1211L14.4961 86.5156L14.3672 86.5273H14.2266L11.5781 86.457H11.4961L11.4258 86.4453L10.0479 86.2559L10.3047 88.2617L11.0547 90.1836L12.4609 91.7188L14.2539 92.832L16.5742 93.1836L17.3359 93.2891L17.6875 93.9805L18.625 95.8203L18.6719 95.9141L18.707 96.0078L19.5039 98.293L20.6641 99.957L22.5742 100.848L24.9062 101.621L26.6289 101.785L27.6367 101.867L27.9297 102.84L28.668 105.277L29.6406 107.164L31 108.559L33.0977 108.945L34.5625 109.133L35.1367 107.867L35.207 107.715L35.2891 107.598L36.7891 105.535L37.7734 103.391L38.4648 100.918L38.5 100.777L38.5703 100.637L39.7891 98.293L39.8242 98.2227L39.8594 98.1641L41.1484 96.1367L41.7695 93.7578L41.8281 93.5352L41.957 93.3242L43.3281 91.1445L44.3945 88.8594L44.582 88.4492L44.957 88.2148L46.75 87.1016L47.1484 86.8555L47.6172 86.8789L50.2539 87.0195H50.2422L52.7383 87.0781L55.3398 86.9023L55.4922 86.8906L55.6445 86.9141L58.0352 87.2305L60.3672 86.7031L60.4375 86.6914L60.5195 86.6797L62.9805 86.3633L65.3711 85.5898L65.4297 85.5664L65.4883 85.5547L67.832 84.9805L69.8828 83.7031L71.8867 82.2031L71.9336 82.1797L71.9688 82.1562L73.9844 80.832L75.5547 78.957L76.8789 77.0117L77.9922 74.7266L78.8359 72.4414L79.2344 69.9688L79.6562 67.3672V67.3555L80.1016 64.7539L80.2539 62.2812L80.3594 59.7969L80.0078 57.3125L79.6445 54.7695L79.1758 52.2969L78.4727 49.7422L78.4258 49.6016L78.4141 49.4492L78.25 46.9414L77.8164 44.4102L77.2773 41.8203L77.2656 41.7852V41.7617L76.8936 39.5781L76.8555 39.6211L75.5664 41.6367L74.4648 43.9453L74.4531 43.9336L73.7266 45.8203L73.1875 47.1797L71.8281 46.6875L71.7344 46.6523L72.2383 45.2461V45.2344L70.9375 44.7305L71.7109 42.7383L71.7578 42.6445L72.8945 40.2656L72.9297 40.1836L72.9883 40.1016L74.4297 37.8867L74.4883 37.7812L74.5703 37.6992L76.3398 35.7305L76.3984 35.6602L76.457 35.6133L78.4609 33.8438L78.7188 33.6211L79.0469 33.5273L81.5664 32.7773L82.7383 32.3203L80.6992 30.7148L80.5586 30.5977L80.4414 30.457L78.8125 28.3594L78.6719 28.1719L78.5898 27.9609L77.6758 25.582L76.4336 23.4258L75.0742 21.5039L73.3047 20.0859L71.3125 19.3008L68.9453 19.2656L66.5664 19.4883ZM92.1602 28.6953L93.4023 30.5469L95.125 32.1172L97.1055 33.3477L99.1328 34.2383L101.301 34.168L103.41 33.8281L103.516 33.7227L102.871 32.7852L101.219 31.0859L99.2852 29.8906L97.0703 28.8711L94.8203 28.4023L92.3242 28.3906H92.0898L92.1602 28.6953ZM70.2695 26.5938L72.3438 27.332L71.957 29.5L72.168 30.1797L70.1875 30.7656L68.2539 31.3516L68.2656 29.3242V28.0117L68.2773 25.9023L70.2695 26.5938ZM94.8516 11.6055L93.1523 13.2578L91.957 15.1914L90.9375 17.4062L90.4688 19.6562L90.457 22.1523V22.3867L90.7617 22.3164L92.6133 21.0742L94.1836 19.3516L95.4141 17.3711L96.3047 15.3438L96.2344 13.1758L95.8945 11.0664L95.7891 10.9609L94.8516 11.6055ZM109.546 13.8252L107.763 15.2324L106.043 16.8506L104.771 18.7861L103.713 20.9629L103.628 21.3652L104.17 21.3799L106.209 20.5898L107.979 19.2285L109.43 17.4873L110.505 15.5586L110.636 13.6621L110.537 13.4893L109.546 13.8252Z" fill="black"/>
</svg>
