<svg width="120" height="120" viewBox="0 0 120 120" fill="none" xmlns="http://www.w3.org/2000/svg">
<path d="M66.9102 10.7769L69.2773 11.8901L71.668 12.9097L71.8438 12.9917L74.0469 14.644L75.9805 15.8628L78.2773 16.5073L78.3359 16.519L78.4062 16.5425L80.8203 17.4565L81.1484 17.5854L81.3828 17.8315L83.1406 19.7183L83.2109 19.7886L83.2578 19.8589L84.8281 22.0034L85.0508 22.3081L85.1094 22.6831L85.4141 24.769L87.0078 26.1284H86.9961L89.0234 27.5815L89.2461 27.7339L89.3867 27.9565L90.875 30.1362L91.0273 30.3589L91.0977 30.6167L91.7656 33.2886V33.4292L91.9062 36.0073L91.918 36.23L91.8711 36.4526L91.2383 39.019L91.1445 39.4292L90.8516 39.7222L88.9883 41.6089L88.7305 41.8784L88.3789 41.9956L86.0703 42.7222L85.6484 41.4214L85.5781 41.3862L84.2188 40.73L84.2656 40.6362L84.5469 40.062L85.1562 39.8628L87.1133 39.2417L88.4141 37.9058L88.8945 35.9604L88.7773 33.769L88.2383 31.5776L87.0664 29.8667L85.1562 28.4956L85.0977 28.4487L85.0508 28.4136L83.0352 26.6909L82.6016 26.3276L82.5195 25.7651L82.1797 23.4683L80.8555 21.6519L79.4258 20.1401L77.3398 19.355V19.3433L74.9492 18.687L74.7383 18.6284L74.5508 18.5112L72.3711 17.1519L72.3242 17.1167L72.2656 17.0698L70.332 15.605L68.1055 14.6558L68.0703 14.644L68.0469 14.6323L66.0078 13.6597L63.7578 13.8823H63.6406L61.2734 13.9175L59 14.7378L58.6836 14.855L58.3438 14.8198L55.8945 14.5503L53.4688 14.9604H53.4453L51.0898 15.3237L48.9805 16.2495L47.0703 17.7144L46.8828 17.8667L46.6484 17.937L44.1875 18.7573L44.1992 18.769L41.8555 19.6128L39.9219 20.7847L38.6094 22.1909L38.5273 24.3237L38.5156 24.4878L38.4688 24.6636L38.3516 25.0854L36.9102 24.6753L35.457 24.2651L35.5391 24.0073L35.6445 21.5229L35.668 20.9722L36.043 20.562L37.8711 18.5933L38.0117 18.4526L38.1875 18.3354L40.4141 16.9761L40.543 16.9058L40.6836 16.8472L43.1797 15.9448H43.2031L45.4531 15.1714L47.3633 13.73L47.5039 13.6245L47.668 13.5542L50.0586 12.4995L50.2344 12.4292L50.4336 12.394L52.9883 11.9956V12.0073L55.6016 11.562L55.8008 11.5269L56 11.5503L58.3086 11.8081L60.4883 11.0229L60.7227 10.9292H60.9688L63.5938 10.8823L66.1367 10.6362L66.5469 10.6011L66.9102 10.7769Z" fill="black"/>
<path d="M45.6787 81.6494L45.9248 82.2471L46.3701 82.9619L46.2529 83.0205L46.2295 83.0322L44.1904 84.2979L44.0498 84.3916L43.874 84.4502L41.46 85.2354L39.21 86.3838L39.1514 86.4189L39.1045 86.4424L36.6553 87.4385L36.5615 87.4854L36.4561 87.5088L33.9014 88.1768L33.8896 88.165L31.5928 88.9385L30.3154 89.583L30.4092 90.2041L31.5693 91.8447L33.5615 93.2979L33.667 93.3799L33.7607 93.4736L35.5186 95.3135L37.5107 96.8252L37.5928 96.8955L37.6748 96.9775L39.4209 98.7822L41.4248 100.165L43.6162 101.56L45.8779 102.755L46.0068 102.825L46.1123 102.907L47.9521 104.372L50.249 105.005L50.3896 105.04L50.5303 105.11L52.7217 106.212L55.1357 106.786L55.2764 106.833L57.4678 107.606L59.8232 107.384L59.9053 107.372H59.9873L62.4365 107.396L64.8037 107.021L66.96 106.177L68.9404 105.099L70.2998 103.317L71.7178 101.114L72.9951 99.1104L73.5225 96.7432L73.5342 96.6611L73.5693 96.5791L74.4365 94.083L75.0811 91.7861L75.292 89.2666L75.3037 89.2549V89.2432L75.5498 86.6182L75.5732 86.501L75.9365 84.3447L75.8896 84.2275L75.9717 84.1807L76.0303 83.876L76.4521 83.9463L77.2373 83.5713L78.585 82.9268L78.8545 83.4775L79.0654 83.9111L78.9834 84.3916L78.5264 87.0166L78.2803 89.501L78.0693 92.1494L78.0576 92.3018L78.0225 92.4424L77.2959 94.9854L77.2842 95.0322L77.2725 95.0674L76.4404 97.458L75.8896 100.001L75.8311 100.259L75.6787 100.493L74.249 102.731V102.743L72.8193 104.946L72.7842 105.005L72.749 105.052L71.1436 107.173L70.9443 107.431L70.6631 107.583L68.3193 108.849L68.2373 108.896L68.1553 108.931L65.7412 109.892L65.5771 109.95L65.4131 109.974L62.8232 110.384L62.6943 110.407H62.5654L60.0928 110.372L57.4443 110.63L57.1162 110.665L56.7998 110.548L54.2803 109.669V109.657L51.8662 109.095L51.7021 109.048L51.5498 108.978L49.2998 107.853L46.874 107.196L46.5811 107.114L46.335 106.927L44.3428 105.333L42.1396 104.173L42.0928 104.149L42.0459 104.114L39.8193 102.708L39.7842 102.685L39.7607 102.673L37.5928 101.161L37.4756 101.079L37.3701 100.974L35.6123 99.1572L33.585 97.6104L33.4912 97.54L33.4209 97.458L31.6865 95.6416L29.6357 94.1416L29.4365 94.001L29.2959 93.8018L27.749 91.6338L27.5264 91.3291L27.4795 90.9658L27.21 88.915L27.0693 87.8486L28.0303 87.3799L30.4443 86.1729L30.5381 86.1377L33.0459 85.3057L33.0928 85.2822L33.1396 85.2705L35.542 84.6377L37.8857 83.6885L40.2061 82.5049L40.3115 82.458L40.4287 82.4229L42.7959 81.6494L44.7998 80.4072L44.8936 80.3486L44.999 80.3135L45.0811 80.2666L45.6787 81.6494Z" fill="black"/>
<path d="M37.1836 86.0742L37.3008 86.2031L37.3828 86.3555L38.5781 88.5352L39.7852 90.5859L41.5664 92.0508L43.6875 93.5859H43.6992L43.7109 93.5977L45.7383 95.0977L47.8594 96.1875L50.2617 96.9844L50.2852 96.9961H50.3086L52.7812 97.8984L52.793 97.9102H52.8047L55.0547 98.7773L57.457 98.8359H57.5742L57.6797 98.8594L60.1289 99.2812L62.625 99.2461H62.707L62.7891 99.2578L65.2383 99.4805L67.5586 99.1289L70.0195 98.4375L72.4688 97.5703L72.9258 97.4062L73.4062 97.5469L74.4375 97.8516L74.0039 99.293L73.5703 100.723L73.0078 100.547L70.9336 101.297L70.8867 101.309L70.8398 101.332L68.3203 102.047L68.2266 102.07L68.1328 102.082L65.5195 102.48L65.332 102.504L65.1562 102.492L62.5312 102.246L60.0469 102.293H59.9062L59.7656 102.27L57.2812 101.824L54.7148 101.777L54.4453 101.766L54.2109 101.672L51.75 100.711L49.2773 99.8203V99.8086L46.8164 99L46.6992 98.9648L46.6055 98.918L44.25 97.7109L44.1445 97.6523L44.0391 97.582L41.9414 96.0234L39.8086 94.4883L39.7734 94.4648L39.7266 94.4297L37.6758 92.7422L37.4766 92.5664L37.3477 92.3438L35.9883 90.0586L35.9648 90.0117L34.7461 87.7969L35.6953 87.2695L36 87L37.1133 85.9922L37.1836 86.0742Z" fill="black"/>
<path d="M38.3994 31.1509L38.8447 31.2563L40.3096 31.6196L40.2861 31.7134L40.2393 31.8774L40.1689 32.0181L39.0439 34.2563L39.0557 34.2681L38.0361 36.4126L37.79 38.8267L37.7783 38.8735V38.9204L37.4033 41.0298L38.0127 42.272L39.9229 43.1743L40.0869 43.2446L40.2275 43.3618L42.2666 45.0259L43.4385 45.9985L42.4541 47.1587L40.7432 49.1743L40.6143 49.3267L40.4619 49.4321L38.7275 50.6509L38.3174 52.4321L38.4346 54.647L39.0674 57.0728L39.1025 57.1899L39.1143 57.3071L39.3369 59.7681L40.1104 62.0532L41.0479 64.4321L42.1377 66.8462L42.2197 67.0103L42.2432 67.1978L42.6768 69.5767L43.8955 71.6274V71.6509L44.9971 73.5728L46.8018 74.7563L48.7236 75.7642L50.9385 75.5415L50.9736 75.5298H50.9971L53.4932 75.354L55.7666 74.7798L58.0869 73.8071L58.1221 73.7954L58.1455 73.7837L60.4189 72.9282L62.3525 71.4399L64.415 69.8228L64.4385 69.811L64.4502 69.7993L66.3486 68.3579L67.5674 66.3306L67.5791 66.2954L67.6025 66.2603L68.6572 64.7017L69.3721 63.647L70.5322 64.186L70.5439 64.1978L69.9111 65.5454L71.1416 66.3892L70.0869 67.936L68.7627 70.1626L68.6104 70.4204L68.376 70.5962L66.2666 72.1665L66.2783 72.1782L64.2041 73.8071L64.1924 73.8188L62.0947 75.4478L61.9072 75.5884L61.6963 75.6587L59.2002 76.5962L56.833 77.5923L56.7275 77.6392L56.6221 77.6626L54.0674 78.3071L53.9385 78.3423H53.8096L51.208 78.5298L51.1963 78.5181L48.5947 78.7993L48.1494 78.8462L47.7393 78.6353L45.3838 77.3931L45.2666 77.3228L43.0752 75.9048L42.7705 75.7056L42.583 75.3892L41.2939 73.1392V73.1274L39.958 70.8657L39.8174 70.6313L39.3252 67.9243L38.3174 65.6743L38.2939 65.6392L38.2822 65.604L37.3213 63.1548L37.2979 63.0845L36.4424 60.5767L36.3955 60.4126L36.3721 60.2368L36.1377 57.7524L35.4932 55.2681L35.458 55.1157L35.4463 54.9634L35.3174 52.3618L35.3057 52.1626L35.3525 51.9517L35.9502 49.4087L36.0791 48.8579L36.5479 48.5298L38.5869 47.0649L39.1729 46.3853L38.4346 45.7759L36.2549 44.7563L35.7744 44.5337L35.54 44.0532L34.5088 41.9204L34.2979 41.4868L34.3799 41.0181L34.8135 38.4282L35.083 35.8735L35.1064 35.6157L35.2119 35.3931L36.3486 32.9907V32.979L36.3604 32.9673L37.4854 30.6938L38.3994 31.1509Z" fill="black"/>
<path d="M45.2871 22.8149L47.1387 23.8931L49.2949 24.3735L51.7676 24.3501L54.2988 24.1274L54.8027 24.0923L55.2246 24.3618L57.3574 25.6978L59.5605 26.7993L61.8691 27.3501L64.4238 27.6313L64.7637 27.6782L65.0566 27.854L67.084 29.1079L69.252 29.6118L71.6895 29.5884L74.2559 29.2837L74.6426 29.2368L75.0059 29.3774L77.0918 30.2212L79.3184 29.8696L79.5176 29.8345L79.7168 29.8579L82.2129 30.1274L82.6934 30.1743L83.0449 30.5024L85.002 32.2485L85.3066 32.5298L85.4355 32.9165L86.2207 35.3892L86.2559 35.5063L86.2793 35.6353L86.6309 38.2251L86.9941 40.8735L87.0645 41.3774L86.8184 41.811L85.5176 44.1431L85.4121 44.3306L85.2598 44.4829L83.4902 46.2056L82.5645 45.2563L82.4238 45.2329L80.9473 44.9399L80.9707 44.8462L81.0645 44.3892L81.3926 44.0728L83.0098 42.479L83.959 40.7798L83.666 38.6353L83.3145 36.1509L82.6934 34.2056L81.3926 33.0454L79.5879 32.8462L77.1621 33.2563L76.752 33.3149L76.3652 33.1626L74.2207 32.2954L71.9707 32.5767L71.8887 32.5884H71.8066L69.1582 32.6235H68.9707L68.7949 32.5884L66.1699 31.979L65.9238 31.9204L65.7129 31.7915L63.7676 30.5728L61.4707 30.3267L61.377 30.3149L61.2832 30.2915L58.7168 29.6821L58.5527 29.647L58.4004 29.5649L56.0215 28.3931L55.9512 28.3579L55.8926 28.311L54.0527 27.1509L51.9082 27.3501H51.8027L49.1543 27.3853H48.9785L48.8027 27.3384L46.2246 26.7524L46.002 26.7056L45.8027 26.5884L43.7754 25.3931L44.4199 24.3149L43.0137 24.1157L43.0488 23.8931L43.3652 21.6782L45.2871 22.8149Z" fill="black"/>
<path d="M55.3027 16.6416L57.9277 17.0986L58.0449 17.1221L58.1621 17.1572L60.623 18.0127L60.7402 18.0596L63.1426 19.1143L63.2715 19.1729L63.3887 19.2549L65.5684 20.7432L65.6855 20.8369L67.5488 22.4072L69.5293 23.333L71.6152 23.4619L73.4902 23.0049L74.9082 21.4346L75.3418 20.9541L75.9863 20.9307H76.0801L76.127 22.4307V22.5244L77.1465 23.4385L75.4238 25.3604L75.1191 25.7119L74.6621 25.8174L72.1309 26.4385L71.9082 26.4971L71.6855 26.4736L69.0723 26.3213L68.791 26.2979L68.5332 26.1807L66.1191 25.0557L65.9316 24.9736L65.7793 24.8447L63.752 23.1338H63.7402L61.7715 21.7744L59.6387 20.8486L57.2715 20.0283L55.1387 19.6533L52.9473 20.3447L50.7441 21.0947L50.5449 21.2354L48.834 18.7744L49.2207 18.5049L49.3965 18.3877L49.5957 18.3174L52.0098 17.4971L52.0332 17.4854H52.0449L54.5996 16.6768L54.9512 16.5713L55.3027 16.6416Z" fill="black"/>
<path d="M86.8223 87.228L89.2832 88.2476L89.4473 88.3062L89.5762 88.4116L91.709 89.9116L92.0371 90.1343L92.2012 90.5093L93.2324 92.7476L93.4785 93.2983L93.2793 93.8726L92.3887 96.3569L92.3184 96.5679L92.1895 96.7437L90.6426 98.8647L90.6309 98.8882L90.6074 98.8999L89.002 100.974L88.9434 101.033L87.209 103.037L87.0684 103.201L86.8809 103.318L84.6543 104.736L84.4316 104.876L84.1738 104.935L81.7832 105.486L81.502 104.244L81.373 104.08L80.4355 102.908L80.5176 102.849L80.7871 102.626L81.1152 102.556L83.2363 102.076L85.0762 100.904L86.6816 99.064L88.2168 97.0952L89.6348 95.1382L90.2441 93.439L89.6348 92.1265L87.9941 90.9546L86.1543 90.1929L85.791 90.2983L85.709 90.0054L85.6738 89.9937L85.6855 89.9351L85.3926 88.8569L84.9824 87.4155L85.8379 87.1694L86.3418 87.0288L86.8223 87.228Z" fill="black"/>
<path d="M76.4502 59.374L76.4385 59.4678V59.5029L76.2275 62.0459L76.2041 62.21L75.7119 64.6475L75.8291 67.1084L75.8408 67.1318L75.9111 69.7686V69.8975L75.7471 72.5342L75.7705 75.0303L75.8643 77.6787V77.8076L75.8408 77.9365L75.4775 80.5732L75.4541 80.6904L75.4189 80.8076L74.6807 83.1396L74.4697 85.6709L74.4463 85.8584L74.3877 86.0225L73.5439 88.542L73.4854 88.7295L73.3799 88.8818L72.8057 89.7725L70.2979 88.1318L70.7783 87.4053L71.5049 85.2256L71.7041 82.7646L71.7158 82.6006L71.7627 82.4365L72.5127 80.0342L72.8525 77.6318L72.7705 75.1357V75.1006L72.7471 72.4521V72.3467L72.9111 69.71L72.8408 67.2373L72.7119 64.5889V64.4131L72.7471 64.2373L73.2275 61.7061L73.4502 59.2568V59.1865L76.4502 59.374Z" fill="black"/>
<path d="M43.918 48.3247L44.3867 48.7583L44.3984 49.4028L44.4453 51.9458V52.0278L44.3398 54.6763V54.77L44.3164 54.8521L43.918 57.5122L43.8242 58.1919L44.5508 58.3208L46.7422 57.6177L47.082 57.5005L47.4336 57.5591L49.168 57.8403L51.1484 58.145L50.293 59.9614L50.2578 60.0435L48.9102 59.3989L48.6992 60.8052L47.3047 60.5708L45.1367 61.2856L44.7734 61.4028L44.4102 61.3442L41.9023 60.8989L40.4961 60.6411L40.6719 59.2349L40.9414 57.1021V57.0786L40.9531 57.0669L41.3516 54.395L41.4453 52.0044L41.4102 50.0942L40.0039 48.8052L39.5469 48.3833L39.5234 47.7739L39.5117 47.6685L41.0117 47.5981H41.1055L42.0312 46.5903L43.918 48.3247Z" fill="black"/>
<path d="M76.6914 81.1514L76.8555 81.1982L77.0078 81.2686L79.2812 82.3936L81.7188 83.3193L81.8828 83.3779L82.0234 83.4717L84.25 84.9482L84.4961 85.124L84.6719 85.3818L86.125 87.5967L86.2891 87.8428L86.3477 88.1123L86.8867 90.667L86.9102 90.7607L86.9219 90.8662L87.1211 93.5146L87.1445 93.7139L87.0977 93.9131L86.5938 96.5264L86.5469 96.7139L86.4766 96.8779L85.375 99.1748L84.6016 101.636L84.5195 101.894L84.3438 102.104L82.6914 104.202L82.6797 104.214L82.668 104.237L80.9453 106.276L80.7812 106.476L80.5586 106.604L78.25 107.952L78.2383 107.964H78.2266L75.9414 109.253L75.8125 109.323L75.6836 109.37L73.1641 110.214L73.0469 110.261L72.918 110.272L70.2695 110.671L69.9297 110.729L69.6133 110.624L67.1523 109.874L66.1328 109.722L66.3672 108.245L66.6016 106.757L67.7031 106.933L67.9141 106.979L70.1523 107.647L72.3203 107.319L74.5469 106.581L76.7617 105.351L78.8008 104.144L80.3359 102.339L81.8242 100.429L82.5508 98.1787L82.5859 98.085L82.6328 97.9912L83.6641 95.7646L84.1094 93.5264L83.9336 91.2295L83.4531 88.9912L82.3398 87.292L80.4883 86.0498L78.1797 85.1943L78.1211 85.1592L78.0508 85.1357L75.8359 84.0342L73.5039 83.46L73.3281 83.4248L73.1758 83.3428L73.082 83.2959L73.7734 81.96L73.9609 81.585L74.2188 80.5537L76.6914 81.1514Z" fill="black"/>
<path d="M44.873 30.2515L45.8691 29.2788L47.0879 30.5444L49.0684 31.353L51.3418 31.8335L53.7324 31.6108L53.9902 31.5874L54.248 31.646L56.7324 32.2671L56.8613 32.2905L56.9785 32.3491L59.416 33.4272L59.7793 33.5796L60.0137 33.9077L61.5254 35.9702L63.0137 37.4702L64.7715 37.8335L66.916 37.1772L69.377 36.3569L71.6973 35.3726L71.9785 35.2554H75.1426L75.3652 35.3374L76.8066 35.7944L77.5098 34.7866L77.8262 34.3179L78.377 34.1772L78.4824 34.1538L78.8457 35.6069L78.8691 35.7124L79.9824 36.4741L78.6582 38.4077L78.0371 39.3335L76.9707 38.9937L74.6738 38.2554H72.5996L70.4785 39.1577L70.4199 39.1812L70.3496 39.2046L67.8301 40.0366H67.8184L67.8066 40.0483L65.2988 40.8218L64.9238 40.939L64.5488 40.8569L61.959 40.3179L61.5137 40.2241L61.1973 39.9077L59.3105 37.9976L59.2402 37.9272L59.1699 37.8335L57.834 36.0054L55.8887 35.1382L53.7676 34.6226L51.4004 34.8569L51.166 34.8804L50.9316 34.8218L48.3301 34.2593L48.2012 34.2358L48.0723 34.189L45.6582 33.2046L45.3535 33.0874L45.1309 32.853L43.7012 31.3413L42.3535 29.9351L44.0645 28.9976L44.1465 28.9507L44.873 30.2515Z" fill="black"/>
<path d="M81.957 38.2153L82.0156 38.3208L83.2695 38.8247L82.332 41.1802L82.0977 41.7661L81.5117 42.0122L79.2266 42.938L77.1641 44.3911L77.0469 44.4731L76.918 44.5317L74.4688 45.6333L74.1055 45.7856L73.7188 45.7505L71.0586 45.5044V45.4927L68.5625 45.4458L68.1289 45.4341L67.7656 45.1997L65.5508 43.7349L65.2812 43.5474L65.1055 43.2661L63.7109 40.981L63.5586 40.7349L63.5117 40.4536L63.4062 39.8325L64.8828 39.5864L66.3594 39.3286L66.4062 39.6685L67.4727 41.4028L69.043 42.4458L71.2344 42.5044H71.293L71.3398 42.5161L73.6133 42.7153L75.5352 41.8599L77.6211 40.4067L77.75 40.313L77.9141 40.2544L79.7656 39.4692L80.4805 37.7114L80.668 37.2544L81.0898 36.9849L81.1719 36.938L81.957 38.2153Z" fill="black"/>
<path d="M89.5303 43.3677L89.6592 43.6489L89.6709 43.9653L89.7998 46.6021V46.6724L89.8115 49.3091V49.5669L89.7178 49.813L88.8154 52.3325L88.6982 52.6606L88.4404 52.9067L86.5068 54.7466L86.3193 54.9341L86.0732 55.0396L83.6826 56.0708L83.3662 56.2114L83.0264 56.188L80.3779 56.0708L80.0029 56.0474L79.6748 55.8599L79.2412 55.5903L80.0146 54.313L80.4951 53.5044L80.5186 53.0708H80.7529L80.7881 53.0239L80.8936 53.0825L82.8271 53.1646L84.6436 52.3794L86.1084 50.9731L86.7998 49.0278V46.7427L86.6943 44.4106L85.6982 42.395L85.5225 42.0435L85.5576 41.645V41.5396L87.0576 41.6333H87.2334L88.3936 41.0708L89.5303 43.3677Z" fill="black"/>
<path d="M53.0449 40.6284L55.6465 41.1089L55.9043 41.1558L56.127 41.2847L58.2363 42.5151L60.4512 43.23H60.4395L60.5449 43.2651L60.334 43.9097L60.1934 44.7065L59.9238 46.1831L59.8301 46.1714L59.7246 46.1479L59.6309 46.1245L57.2168 45.3394L57.0645 45.2925L56.9238 45.2104L54.8496 44.0034L52.7285 43.605L50.5488 43.8862L48.3105 44.6011L46.1074 45.7378L45.4277 44.4253L44.0098 44.9292V44.9058L43.5762 43.6753L44.7363 43.0776L47.0332 41.8823L47.1504 41.8237L47.2676 41.7886L49.7637 40.9917L49.8926 40.9565L50.0332 40.9331L52.5879 40.605L52.8223 40.5815L53.0449 40.6284Z" fill="black"/>
<path d="M83.54 54.9927L83.6221 55.063L84.9697 54.9692L85.1338 57.5356L85.1689 57.9927L84.9346 58.3911L83.6221 60.6646L83.5518 60.77L83.4697 60.8755L81.7705 62.8794L81.5947 63.0903L81.3486 63.231L78.9932 64.5083L78.7236 64.6489L78.4189 64.6841L75.7705 64.9302L75.6299 63.4302V63.4419L74.1299 63.4771V63.4653L74.1064 62.0708L75.4893 61.9419L77.833 61.7192L79.6729 60.7114L81.0674 59.0474L82.1104 57.2661L81.9814 55.1685L81.9346 54.5825L82.3096 54.1255L82.3682 54.0552L83.54 54.9927Z" fill="black"/>
<path d="M36.6318 23.3545L39.2803 23.5654L39.4209 23.5771L39.5381 23.6123L42.0107 24.2568L41.6709 25.5576L41.7178 25.6631L42.3857 27.0107L42.292 27.0576L41.7881 27.3037L41.249 27.1631L38.9287 26.542L37.0068 26.3896L35.624 27.5615L34.6045 29.2139L34.3936 31.4287L34.2178 33.9248L34.2061 34.0771L34.1709 34.2178L33.5381 36.5146V38.4951L34.2764 39.7842L35.5654 39.9248L37.1123 40.1006L36.8779 41.6475L36.8428 41.8584L35.3662 41.6357L35.2256 42.9131L33.1982 42.6787L32.4482 42.5967L32.0615 41.9404L30.7373 39.6553L30.5381 39.3037V38.9053L30.5498 36.3506V36.1514L30.5967 35.9639L31.2412 33.5615L31.4053 31.1826V31.1357L31.6514 28.5928L31.6865 28.2529L31.8623 27.9482L33.21 25.792L33.3271 25.5928L33.5029 25.4404L35.5303 23.7061L36.0107 23.3076L36.6318 23.3545Z" fill="black"/>
<path d="M69.9033 42.9771L70.3135 43.2114L70.5127 43.6333L71.4619 45.5786L72.9385 46.8442L75.0127 47.2075L77.6611 47.4185L77.9424 47.4419L78.2002 47.5708L80.2041 48.5435L81.6807 48.3911L82.5947 46.9966L82.9346 46.481L83.5322 46.3521L83.708 46.3169L84.0244 47.7817L84.0596 47.9458L85.1143 48.6372L83.8135 50.6294L83.4268 51.2271L82.7119 51.3091L80.0986 51.5669L79.665 51.6138L79.2783 51.4263L77.1221 50.3833L74.7783 50.2075L74.6377 50.1841L72.0127 49.7271L71.6025 49.6567L71.2979 49.3872L69.2939 47.6646L69.0596 47.4653L68.9189 47.1841L67.8291 44.9575L69.0244 44.3599L69.083 44.2427L69.8096 42.9302L69.9033 42.9771Z" fill="black"/>
<path d="M46.335 62.8511L48.667 63.5776L51.0225 63.5894H51.1631L51.1045 65.0894L51.0576 66.5894H50.9639V66.5776L48.4443 66.5659H48.2334L48.0225 66.5073L45.8311 65.8276L43.6279 66.3433L43.3584 66.4019L43.0889 66.3667L42.5732 66.2964L42.9717 63.3198L43.2178 63.355L45.5615 62.8276L45.96 62.7339L46.335 62.8511Z" fill="black"/>
<path d="M79.8301 50.27L79.9355 50.3403L81.2715 50.3052L81.3535 52.8364L81.3652 53.106L81.2832 53.3521L80.5098 55.7661L80.4395 55.9536L80.334 56.1177L78.8926 58.3442L78.7402 58.5786L78.5059 58.7427L76.3145 60.2896L75.9395 60.5591L75.4707 60.5708L72.8105 60.6177L72.7871 59.1177L71.2871 59.2114V59.1997L71.2051 57.6411L72.7637 57.6177L74.9434 57.5708L76.5254 56.4575L77.709 54.6411L78.3535 52.6724L78.2715 50.3989L78.2598 49.9302L78.5176 49.52L78.5762 49.438L79.8301 50.27Z" fill="black"/>
<path d="M80.1592 24.854L80.1709 24.8423L80.1826 24.9243L80.8857 26.8931L80.9209 26.9985L80.9443 27.104L81.3662 29.2603L82.374 32.2837L80.2646 32.2603H80.1826V30.7837L78.8701 31.2407L78.4951 30.1274L78.46 30.0337L78.4482 29.9399L78.0381 27.8306L77.3232 25.8267L77.2998 25.7095L77.2646 25.6157L78.7178 25.229L79.9717 24.9009L80.1592 24.8306V24.854Z" fill="black"/>
<path d="M46.4111 76.7407H46.8447L48.3447 76.7173V76.8228L48.3564 76.9985L48.3096 77.1743L47.7471 79.647V79.6704L47.208 81.8032L48.0166 83.854L48.0283 83.8774L48.04 83.9126L48.3916 84.9556L46.9736 85.436L45.5557 85.9282L45.1924 84.8853L45.2041 84.8735L44.2432 82.4712L44.0791 82.0259L44.1846 81.5571L44.8291 78.9556L45.3916 76.5063L46.4111 76.7407Z" fill="black"/>
<path d="M37.4453 43.1455L37.5273 43.4268L37.5039 43.708L37.375 45.2432L37.8438 46.4502L38.3594 46.8369L39.8945 47.9854L38.418 49.1924L38.3477 49.251L37.4102 48.1025L36.5664 49.2393L35.7109 48.6064L35.3711 48.3486L35.2188 47.9502L34.4688 46.0283L34.3398 45.7119L34.3633 45.3721L34.5156 43.4736L35.7344 43.5674L35.9805 43.4971L37.4102 43.0518L37.4453 43.1455Z" fill="black"/>
<path d="M50.498 45.8628L53.1465 45.8979H53.334L53.5215 45.9448L56.0879 46.6362L58.4551 47.0698L58.3496 47.5972L58.291 48.5581L58.1738 50.0464H58.0801L57.916 50.0229L55.4199 49.5659L55.3613 49.5542L55.3027 49.5308L52.9355 48.8862L50.6152 48.8628L48.2598 49.437L46.9707 49.7417L46.502 48.4995L46.4316 48.312L47.8379 47.7847L47.8496 47.7729L47.5566 46.519L50.123 45.8979L50.3105 45.8511L50.498 45.8628Z" fill="black"/>
<path d="M54.585 46.8135L54.6553 46.8486L54.0107 48.1963L55.3232 48.7354L54.96 49.6143L54.5615 50.5752L53.5303 50.5518L51.7725 50.4932L50.9639 50.4697L49.6982 48.3955L50.8701 47.6807L50.8818 47.5986L51.1631 46.1221L51.2686 46.1455L51.9131 46.2744L52.2646 46.8369L52.6162 47.4229L53.1436 46.1221L54.585 46.8135Z" fill="black"/>
<path d="M42.0791 46.1948L42.1494 46.2417L41.5049 47.5659L42.876 47.9292L42.7119 48.562L42.3838 49.8042L41.1064 49.6753L39.9697 49.5581L39.2314 49.4761L38.8447 48.855L38.3291 48.0112L39.4893 47.2847L39.501 47.2026L39.7822 45.7261L39.8877 45.7495L40.3213 45.8433L40.4385 45.4214L42.0791 46.1948Z" fill="black"/>
<path d="M48.3369 68.0371L48.3721 68.1191L47.001 68.6465L47.9385 69.7012L47.3994 70.1816L46.8955 70.6387L46.2158 70.5449L45.0088 70.3926L44.5986 70.334L44.2705 70.0879L43.2744 69.3027L44.0713 68.2832L44.1064 68.1074L44.3877 66.6309L44.4932 66.6543L44.8447 66.7246L45.126 66.9473L45.7939 67.4746L45.9111 67.4863L45.9463 67.4629L47.5635 66.0098L48.3369 68.0371Z" fill="black"/>
</svg>
