<svg xmlns="http://www.w3.org/2000/svg" width="120" height="120" fill="none" viewBox="0 0 120 120"><path fill="#000" d="M82.152 8H85v.21l-.2 2.462.118 2.508h.012l.175 2.636v.077l.551.306.48.258.188.504.961 2.473.012.023.012.035.773 2.344 1.313 2.156.07.106.047.129.914 2.402 1.195 2.25.094.234.738 2.297 1.43 2.016.105.164.07.176.903 2.402.012-.012.133.3v-.534l-.165-2.543v-.012l-.011-.011-.118-2.649-.011-.094.011-.082.188-2.543.152.012H98v.21l-.2 2.462.118 2.508h.012l.175 2.636v.094l.012 2.637.012.164-.035.152-.293 1.43-1.165-.231.575 1.438h-2.192l-.485.035.102.741.016.118-.003.118-.053 2.61.056 2.605.001.012v.012l.016 2.624.044 2.64v.079l-.006.078-.23 2.6-.095 2.543.105 2.583.002.047.025 2.606.176 2.587.006.086-.004.086-.12 2.594.01 1.625 1.945-.043v.001l2.631-.074.986-.027.416.892.898 1.928.185.395-.057.431-.311 2.403.461 2.403.046.24-.033.242-.347 2.567-.101 2.419.418 2.485.02.118.001.12.019 2.64.002.151-.03.149-.475 2.42.247 2.419.014.137-.012.137-.202 2.478.337 2.478.026.199-.026.201-.339 2.55-.026 2.408.429 2.512.02.113.001.117.012.841.275.021-.012.199V112h-.211l-.167-.014-.202 1.55v.977l1.373-.236.117-.011h.117l2.637-.024h.152l.153.024 2.437.48 2.403-.246.082-.012h.082l1.043.012-.012 1.5-.024 1.5-.996-.012-2.507.258-.223.024-.223-.036-2.461-.492-2.425.012-1.725.299v.165l-.706-.042-.066.012-.152.023-.164-.012-2.637-.105h-.07l-.07-.012-.672-.096-2.187.083-.058.002-.059-.002-.906-.038-.911.18-.235.047-.234-.024-1.542-.198-1.305.075-.115.007-.114-.011-1.974-.19-.036.001-.005-.005-.061-.006-2.535.081h-.012l-2.637.059h-.023l-2.567.012.012.011-2.637.176-.187.012-.29-.055-.003.001-.096.006-.097-.006-2.569-.155-2.57.086-.134.004-.133-.02-1.032-.151-.904-.05-1.573.101-.205.051-.233-.023-.544.035h-.129l-.129-.012-.894-.101-1.93.171-.124.01-.125-.009-.775-.063-.343.039-.082.012-.094-.012-1.555-.008-1.742.102-.152.012-.141-.024-1.1-.152-1.761.066-.099.004-.098-.01-2.138-.203.008.096h-1.292l-1.52.201-.137.019-.137-.007-2.559-.132-2.546.168-.093.006-.093-.006-2.565-.151-2.572.094-.156.006-.154-.026-.616-.107-1.349-.053v-.012l-2.59-.012h-.046l-.047-.011-.156-.011-.084.008h-.003l-2.64.236-.124.012-.123-.01-2.64-.199-.01-.001-.01-.001-.987-.089-1.051-.004v-.012l-2.208.021-.78.063-.102.009-.102-.006-.02-.002-1.933.173-.14.012-.153-.012-2.531-.281-2.578.012v-.012l-2.543.176h-.012l-.012.011-2.648.118-.094.011-.082-.011-2.543-.188.012-.223V114.5h.21l2.462.199 2.508-.117v-.012l2.636-.175h.094l2.56-.012-.013-.188-.205-2.639-.008-.11.008-.11.177-2.534-.168-2.543-.003-.044v-.044l-.019-2.641v-.119l.017-.118.387-2.523-.007-2.486-.139-2.589-.167-2.64-.006-.091.005-.091.153-2.64.002-.03.003-.03.247-2.51-.178-2.516-.002-.039-.001-.039-.053-2.64-.001-.044.002-.046.104-2.546-.225-2.541-.014-.157.02-.156.313-2.567.052-2.405 1.249.028V70.5h1.784l-.003.124.885.067 2.542-.123v.001l.191-.013-.122-.55-.038-.166.002-.171.019-2.64v-.12l.021-.118.418-2.484-.101-2.42-.347-2.567-.033-.242.046-.24.46-2.403-.31-2.403-.014-.098.001-.1.011-2.64.001-.018v-.018l.074-2.63.058-2.624h-.001l.03-2.64v-.041l.002-.042.115-1.75-1.191.009v.06h-2.004l.363-1.793.246-1.277v-2.508l-.164-2.543v-.012l-.011-.011-.117-2.649-.012-.094.012-.082.187-2.543.152.012H26v.21l-.2 2.462.118 2.508h.012l.069 1.053.536-1.194v-.012l.996-2.449.024-.047.035-.058 1.183-2.356.024-.035.012-.035 1.265-2.227 1.043-2.355v-.012l1.078-2.367v-.012l1.043-2.426.012-.035.023-.023.832-1.724v-.944l-.164-2.543v-.012l-.011-.012-.117-2.648-.012-.094.011-.082L34 7.988l.152.012H37v.21l-.2 2.462.118 2.508h.012l.175 2.636v.077l.551.306.48.258.188.504.961 2.473.012.023.012.035.773 2.344 1.313 2.156.07.106.047.129.914 2.402 1.195 2.25.094.234.738 2.297 1.43 2.016.105.164.07.176.903 2.402.012-.012.133.3v-.534l-.165-2.543v-.012l-.011-.011-.117-2.649-.012-.094.011-.082.188-2.543.152.012H50v.21l-.2 2.462.118 2.508h.012l.175 2.636v.094l.012 2.637.012.164-.035.152-.293 1.43-1.165-.231.575 1.438H47.02l-.486.035.102.741.016.118-.003.118-.053 2.61.056 2.605.001.012v.012l.016 2.624.044 2.64v.079l-.006.078-.23 2.6-.095 2.543.105 2.583.002.047.025 2.606.126 1.848.176-.301 1.043-2.332v-.012h.012l1.09-2.367v-.012l1.066-2.414.012-.035.023-.024 1.114-2.285.75-2.402.047-.14.07-.141 1.266-2.32.011-.036.012-.023 1.277-2.11.809-2.39.047-.117.058-.118 1.23-2.25.962-2.367.094-.234.175-.2.95-1.066.172-.193v-1.588l-.165-2.543v-.012l-.011-.011-.117-2.649-.012-.094.011-.082.188-2.543.152.012H62v.21l-.2 2.462.118 2.508h.012l.175 2.636v.094l.012 2.637.012.164-.035.152-.018.082.76 1.055.117.164.07.176.926 2.379 1.102 2.414v.011l1.066 2.415.012.011 1.043 2.426 1.043 2.262 1.394 2.168.13.199.058.234.61 2.38 1.3 2.015.035.059.035.07 1.22 2.344.081.129.035.152.395 1.435.191-1.136-.101-2.42-.347-2.567-.033-.242.046-.24.46-2.403-.31-2.403-.014-.098.001-.1.011-2.64.001-.018v-.018l.074-2.63.058-2.624h-.001l.03-2.64v-.041l.002-.042.115-1.75-1.191.009v.06h-2.004l.363-1.793.247-1.277v-2.508l-.165-2.543v-.012l-.011-.011-.118-2.649-.011-.094.011-.082.188-2.543.152.012H74v.21l-.2 2.462.118 2.508h.012l.069 1.053.536-1.194v-.012l.996-2.449.024-.047.035-.058 1.183-2.356.024-.035.012-.035 1.265-2.227 1.043-2.355v-.012l1.078-2.367v-.012l1.043-2.426.012-.035.023-.023.833-1.724v-.944l-.165-2.543v-.012l-.011-.012-.118-2.648-.011-.094.011-.082L82 7.988zm-38.16 65.324-.802.193-.237.056-.241-.02-1.486-.128-.036.002-.04.002h-.04l-1.62-.011-1.765.195-.086.01h-.086l-2.64-.014h-.047l-.046-.003-.473-.032-1.019.09-.146.012-.147-.017-2.556-.282-1.374.006.026.117H27v-.045l-1.62.109h-.014l-.014.001-2.64.126-.093.005-.093-.007-.811-.062-.019.886-.002.075-.008.074-.304 2.484.22 2.482.008.097-.004.096-.106 2.594.05 2.546.186 2.612.01.127-.014.127-.256 2.604-.147 2.521.162 2.553.001.008v.007l.14 2.64.003.038v.037l.008 2.64v.117l-.017.115-.387 2.52.017 2.474.173 2.6.006.102-.007.101-.02.291 2.404-.125h.082l2.637.012v.012l2.508-.024 2.637-.234.14-.012.153.012 2.531.281 2.578-.012v.012l2.543-.176h.012l.011-.011 2.649-.118.094-.011.082.011 2.543.188-.012.211V112h-.21l-2.462-.199-2.508.117v.012l-2.636.175h-.094l-2.637.012-.094.012-.082-.012-2.508-.281-2.484.211-.047.012h-.058l-2.649.023h-.023l-2.555-.012-2.644.117.119 1.525.299.69 1.566.086.422-.035.047-.012h.058l.15-.002 1.909-.153.127-.01.127.011 1.528.136 1.386.007 2.648-.118.082-.011.082.011 2.216.147 2.349-.214.196-.018.195.034 1.819.313 1.053.043 2.497-.082 2.648-.246h.152l2.637.047-.012.012h2.026l-.03-.668-.351-2.637-.035-.234.047-.247.468-2.402-.14-1.056-.094.001v-.725l-.082-.622-.012-.106v-.093l.012-2.637v-.035l.07-2.649.059-2.625.004-.508H49.5V95.5h.065l.005-.512v-.047l.012-.047.188-2.625.082-2.613.023-.457.258-.375 1.57-2.168.059-.07.07-.07 1.793-1.934.21-.223.282-.117 2.414-1.066.082-.035.094-.024 2.555-.761.375-.118.375.082 2.601.575.188.035.176.093 2.308 1.16.07.036.06.035 2.237 1.418.293.176.176.293 1.418 2.261.094.164.058.176.809 2.555.059.187.011.2.094 2.66v.035l.047 2.637v.152l-.234 2.648-.094 2.438.105 2.648v.047l.024 2.543.175 2.649.012.082-.011.082-.118 2.566.007 1.649.751.039 2.496-.293.235-.036.222.047 2.176.406 2.208-.15 2.64-.238.067-.006.067-.001 2.64-.002h.022l.022.001 2.64.075.05.001.05.005.512.049 2.457-.011h.106l.093.012.815.107 1.068-.06.073-.004.075.003 1.45.058 1.324-.256.246-.047.234.035 1.67.227.238-.008.072-.003.072.004 1.052.061v-1.192l.014-.097.182-1.412-1.796.084v.012l-2.636.175h-.094l-2.637.012-.094.012-.082-.012-2.508-.281-2.484.211-.047.012h-.058l-2.649.023h-.023l-2.555-.012-2.648.118-.082.011-.082-.011-2.649-.176.012-.012h-.54l.071-3 .598.012h.035l.035.011 2.578.176 2.531-.129h.082l2.637.012v.012l2.508-.024 2.637-.234.14-.012.153.012 2.531.281 2.578-.012v.012l2.543-.176h.012l.011-.011 2.09-.093-.007-.535-.431-2.53-.023-.133.002-.135.028-2.64v-.091l.012-.09.325-2.443-.331-2.438-.023-.161.014-.163.204-2.5-.255-2.505-.022-.223.042-.219.488-2.491-.017-2.368-.424-2.524-.026-.154.007-.157.11-2.64.003-.07.01-.067.323-2.397-.459-2.401-.045-.236.03-.239.286-2.208-.298-.64-1.655.046-.01.001-1.698.036-.093 1.15.117 2.508h.012l.175 2.636v.094l.012 2.637.012.164-.035.152-.293 1.43-1.301-.258V85.5h-2.004l.363-1.793.247-1.277v-2.508l-.165-2.543v-.012l-.011-.011-.118-2.649-.011-.094.011-.082.07-.966-.558.007-2.585.172-.19.013-.187-.035-1.339-.253-1.298.144-.086.01h-.086l-2.64-.014h-.047l-.046-.003-2.406-.162-2.244.136-.13.008-.129-.015-.784-.09.004.017h-2.12l-2.542.188-.082.011-.094-.011-.906-.041-1.138.068-.148.009-.148-.02-1.732-.243-1.143-.078v.011l-1.398-.006-.769.016-.032.001h-.032l-.461-.011-2.417.27-.153.012-.14-.012-2.649-.234-2.508-.024.012.012-1.04.004-1.039.093-.038.003-.038.001-2.64.1-.058.001-.06-.002-2.623-.108-1.366-.014-1.656.016-1.207.011-.035-.148zm9.293 33.723-.047.012h-.058l-.569.005.123.944.024.246-.047.234-.469 2.403.34 2.39.012.071v.07l.034.958.016.001.887-.069.082-.011.094.011 1.123.049.654-.013h.13l.117.011.418.061.206.01.012.011h.012l1.15.08.095-.003.01-.001 1.294-.04.06-1.497H59l.012-2.589v-.047l.011-.047.164-2.578-.028-.606-.706.004-.094.012-.082-.012-2.508-.281zm10.535-.129v.012l-1.662.11.03.655.011.082-.011.082-.176 2.649-.012-.012-.012 2.555v.047l-.053 1.338 1.354-.147.152-.012.164.012.412.048.014-.001.153-.012.14.012 1.049.092.096-.008.018-.002.02-.001 2.063-.13v-1.475l.118-2.531-.165-2.578-.011-.047v-.047l-.007-.713-1.177-.095zm-10.535-9.871-.047.012h-.058l-.628.005-.005.596v.012l-.059 2.648v.012l-.082 2.602h.012l-.006 1.134.627-.009 2.637-.223.14-.012.153.012 2.531.269h.575l.007-1.636-.023-2.508-.223-2.637-.012-.14.005-.069-.376.002-.094.012-.082-.012-2.508-.281zm10.535-.129v.012l-1.965.13-.02.17.212 2.485.012.047v.058l.023 2.649v.023l-.008 1.549 1.547-.1h.012l.011-.011 2.649-.118.094-.011.082.011.973.072-.06-1.501v-.117l.095-2.637v-.047l.011-.035.223-2.484-.003-.15-1.38-.112zM37.688 79.199l.82.211.246.82.738 2.508.082.27-.023.281-.211 2.508.27 2.484.011.082v.082l-.012 2.637v.094l-.175 2.648-.094 1.348-1.348.047-2.297.07.012.012-1.863.082-.07.117h-2.731l.258-1.723.222-1.465.094-2.543-.105-2.519v-.047l-.024-2.601-.105-2.672-.024-.68.48-.469 1.923-1.84.597-.574zm49 0 .82.211.246.82.738 2.508.082.27-.023.281-.211 2.508.27 2.484.011.082v.082l-.012 2.637v.094l-.175 2.648-.094 1.348-1.348.047-2.297.07.012.012-1.863.082-.07.117h-2.731l.258-1.723.222-1.465.094-2.543-.105-2.519v-.047l-.024-2.601-.105-2.672-.024-.68.48-.469 1.923-1.84.597-.574zM57.69 85.953l-2.074.914-1.535 1.617-1.254 1.735-.059 2.215v.058l-.12 1.572.39-.005 2.637-.223.14-.012.153.012 2.531.27h.605v-2.184l-.164-2.543v-.012l-.011-.011-.117-2.649-.012-.094.011-.082.069-.932zm4.11.719.117 2.508h.012l.175 2.636v.094l.01 2.128 1.506-.097h.012l.011-.011 2.649-.118.094-.011.082.011 1.175.086-.074-1.886-.691-2.18-1.125-1.805-1.91-1.195-1.976-.999zM34.406 82.48l.082 2.003v.047l.024 2.59.105 2.648v.118l-.094 2.472 1.055-.046.938-.036.093-1.3v-2.473l-.27-2.543-.01-.14.01-.153.2-2.356-.422-1.394-.89-.223zm49 0 .082 2.003v.047l.024 2.59.105 2.648v.118l-.094 2.472 1.055-.046.938-.036.093-1.3v-2.473l-.27-2.543-.01-.14.01-.153.2-2.356-.422-1.394-.89-.223zm-23.91-37.692-.07.14-1.219 2.227-.797 2.38-.047.151-.082.141-1.37 2.274-1.173 2.156-.738 2.39-.035.106-.047.105-1.172 2.368-1.043 2.367-.012.011-1.101 2.391h.012l-1.09 2.402-.024.07-.047.071-1.324 2.297-.858 1.657.946.009.287-.002v-.012l2.649-.175.082-.012.082.011 2.636.118 1.417-.007 1.47-.13.078-.007.078.001 2.641.044-.001.001 2.625.015h.024l1.936.043.068-.007.082-.012.094.012 1.236.005 1.8-.037.12-.003.118.016.912.127 1.181.08-.011.011 1.452.067 1.231-.073-.21-.299-.094-.117-.06-.14-1.1-2.403-.047-.105-.036-.118-.691-2.425-1.125-2.156-1.383-2.169-.129-.21-.07-.235-.61-2.367-1.289-2.05-.058-.083-.035-.082-1.114-2.402-.011-.012v-.023l-1.055-2.414-1.055-2.391-1.101-2.402-.012-.047-.023-.035-.914-2.309-.056-.082h-.191zm-20.422-3.395-.39-.001-1.595.18-.129.015-.13-.008-1.375-.083-1.49.167-.153.012-.14-.012-1.53-.13-.425.023-.126.005-.124-.014-1.068-.125-1.357-.012-.355.18-.115 1.734-.028 2.611v.017l-.058 2.64v.009l-.074 2.64-.01 2.507.328 2.538.03.24-.044.235-.46 2.402.324 2.396.01.068.003.07.11 2.639.007.157-.026.154-.425 2.525-.017 2.347.193.867h.08l1.011-.076.093-.007.093.005 2.64.126h.014l.014.001 1.945.13 1.387-.119.056-.005h.055l2.64-.03h.026l.85.005.696-.076.147-.017.146.013.962.082 2.29-.106-.009-1.423v-.04l.002-.04.118-2.546-.173-2.562-.003-.044v-.044l-.026-2.61-.107-2.622-.002-.06.002-.058.099-2.64.001-.038.003-.038.226-2.559-.041-2.564v-.008l-.001-.008-.016-2.616-.057-2.64-.001-.032v-.032l.053-2.523-.127-.913-1.869-.083-.023-.011h-.012l-2.543-.176zm48 0-.39-.001-1.595.18-.129.015-.13-.008-1.375-.083-1.49.167-.153.012-.14-.012-1.53-.13-.425.023-.126.005-.124-.014-1.068-.125-1.357-.012-.355.18-.115 1.734-.028 2.611v.017l-.058 2.64v.009l-.074 2.64-.01 2.507.329 2.538.03.24-.045.235-.46 2.402.324 2.396.01.068.003.07.11 2.639.007.157-.026.154-.425 2.525-.017 2.347.193.866.038.005 1.053-.08.093-.007.093.005 2.64.126h.014l.014.001.033.002.217-.012.083-.005.084.005 2.512.129 2.517-.294.227-.027.224.042.865.163.893-.098.147-.017.146.013 2.397.206.855-.204-.009-1.45v-.04l.002-.038.118-2.547-.173-2.562-.003-.044v-.044l-.026-2.61-.107-2.622-.002-.06.002-.058.099-2.64.001-.038.003-.038.226-2.559-.041-2.564v-.008l-.001-.008-.016-2.616-.057-2.64-.001-.032v-.032l.052-2.523-.126-.913-1.869-.083-.023-.011h-.012l-2.543-.176zM61.711 55.946l2.145 2.145.105.398.68 2.59.41 1.524-.926.187-.375 1.547-.094.375-.246.27-1.652 1.851-.598.656-.867-.199-2.45-.574-.69-.164-.305-.633-1.184-2.402-.187-.387.046-.434.282-2.613.011-.187.07-.176.915-2.438.246-.668.691-.222 2.438-.809.879-.281zm-2.367 3.059-.586 1.594-.211 1.968.68 1.383.879.211.808-.89.527-2.133.059-.235-.34-1.254-.926-.925zM37.688 47.199l.82.211.246.82.738 2.508.082.27-.023.281-.211 2.508.27 2.484.011.082v.082l-.012 2.637v.094l-.175 2.648-.094 1.348-1.348.047-2.297.07.012.012-1.863.082-.07.117h-2.731l.258-1.723.222-1.465.094-2.542-.105-2.52v-.047l-.024-2.601-.105-2.672-.024-.68.48-.469 1.923-1.84.597-.574zm49 0 .82.211.246.82.738 2.508.082.27-.023.281-.211 2.508.27 2.484.011.082v.082l-.012 2.637v.094l-.175 2.648-.094 1.348-1.348.047-2.297.07.012.012-1.863.082-.07.117h-2.731l.258-1.723.222-1.465.094-2.542-.105-2.52v-.047l-.024-2.601-.105-2.672-.024-.68.48-.469 1.923-1.84.597-.574zm-52.282 3.282.082 2.003v.047l.024 2.59.105 2.648v.118l-.094 2.472 1.055-.047.938-.035.093-1.3v-2.473l-.27-2.543-.01-.14.01-.153.2-2.355-.422-1.395-.89-.223zm49 0 .082 2.003v.047l.024 2.59.105 2.648v.118l-.094 2.472 1.055-.047.938-.035.093-1.3v-2.473l-.27-2.543-.01-.14.01-.153.2-2.355-.422-1.395-.89-.223zM35.5 20.979v.521h-.225l-.326.758-.011.023-1.079 2.403-1.054 2.402-.035.082-.036.059-1.312 2.308-1.16 2.297-.95 2.332-.023.047-1.078 2.402-.68 1.817.776-.01.014-.007.404-.204.449.052 1.509.175.493.005h.058l.059.012.89.076 2.02-.103.084-.005.083.005.986.058.917-.101.082-.012.094.012 2.067.009.876-.099.162-.019.163.018 2.598.273 2.117.125.361-.026-.562-1.289-.024-.035-.012-.035-.879-2.297-1.43-2.04-.14-.187-.07-.21-.797-2.438-1.148-2.203-.036-.082-.035-.07-.914-2.356-1.289-2.156-.094-.141-.047-.152-.82-2.461-.122-.304-.5-.099zm48 0v.521h-.225l-.326.758-.011.023-1.079 2.403-1.054 2.402-.036.082-.035.059-1.312 2.308-1.16 2.297-.95 2.332-.023.047-1.078 2.402-.68 1.817.776-.01.014-.007.404-.204.449.052 1.509.175.493.005h.058l.059.012.89.076 2.02-.103.084-.005.083.005.986.058.917-.101.083-.012.093.012 2.067.009.876-.099.162-.019.163.018 2.598.273 2.117.125.361-.026-.562-1.289-.024-.035-.012-.035-.879-2.297-1.43-2.04-.14-.187-.07-.21-.797-2.438-1.148-2.203-.036-.082-.035-.07-.914-2.356-1.289-2.156-.094-.141-.047-.152-.82-2.461-.122-.304-.5-.099z"/></svg>