<svg width="120" height="120" viewBox="0 0 120 120" fill="none" xmlns="http://www.w3.org/2000/svg">
<path d="M43.0947 2.68945L43.5586 2.67578L43.8164 2.66406L44.0625 2.74609L46.582 3.54297L46.6875 3.57812L46.7812 3.625L48.6562 4.52734L49.4316 4.3623L49.4297 4.09375V3.51953L49.8047 3.08594L49.875 3.00391L51 4L51.0703 4.05859H52.4297L52.4648 6.58984V6.68359L52.4531 6.76562L52.1719 9.40234L52.125 9.78906L51.9023 10.1055L50.6719 11.8633L50.2031 12.5312L49.3945 12.5078L46.7227 12.4023L46.4531 12.3906L46.2188 12.2969L43.9219 11.3945L43.0547 11.3193L43.0859 11.7266L43.0977 11.8789L43.0742 12.043L42.7227 14.5625L42.6875 16.9648L42.8867 19.6016L42.8984 19.6719V19.7539L42.8799 20.5869L44.1953 19.1094L44.7461 18.5L45.5547 18.6289L47.9453 19.0039L49.0586 19.1797L49.1992 20.293L49.3984 21.8281L50.0781 22.0156L50.9453 21.2188L52.0586 19.918L52.7734 19.0859L53.7812 19.5078L56.0547 20.4688L57.0156 20.8672L57.0117 20.9805L59.4482 20.8945L59.7881 23.4141L59.8115 23.6133L59.7881 23.8008L59.4717 26.2148L59.6709 28.7695V28.8633L59.7178 31.5117V31.6172L59.7061 31.7227L59.3779 34.3477L59.0967 36.9492V37.0078L58.6982 39.6328L58.6865 39.7852L58.6279 39.9258L57.7959 42.1992L57.5146 44.4492L57.9365 46.8633L57.9717 47.0156L57.96 47.1562L57.9014 49.7227L58.1709 52.2305L58.1943 52.3711L58.1826 52.5117L57.9834 55.043L58.1475 57.5859V57.6094L58.2764 60.2461L58.417 62.8828L58.4287 63.0938L58.3936 63.293L57.8545 65.6719L58.1826 68.0273L58.2061 68.168L58.1943 68.3203L58.042 70.8164L58.2764 73.3711L58.2998 73.6406L58.2295 73.8984L58.1875 74.0518L60.4766 74.543L62.8555 74.4727H62.9727L63.0664 74.4844L62.9961 75.9844L62.9424 77.335L63.1523 79.7979L63.1641 79.9385L63.1523 80.0791L62.8828 82.4229L63.3164 84.8135L63.3281 84.8721V84.9424L63.5742 87.5322L63.5859 87.6611L63.5742 87.79L63.3926 89.958L65.2852 90.1641L67.7695 89.918H67.8633L70.5 89.8125L70.5938 89.8008L70.6758 89.8125L73.3125 90.0117L73.3008 90.0234H74.3428L74.3359 89.9805L74.3477 89.8516L74.4766 87.3203L74.2656 84.7656L74.2539 84.6133L74.2656 84.4727L74.3809 83.4688L72.3516 83.4062L71.7305 80.5586L73.207 79.8203L75.0938 78.1797L75.293 78.0039L75.5391 77.9102L77.8711 77.0195L79.8281 75.5781L79.8516 75.5547L81.7734 74.207L83.1328 72.2148L83.2734 72.0039L83.4727 71.8633L85.4414 70.3633L87.0234 68.4297L87.0586 68.3945L88.793 66.4023L88.8281 66.3672L90.6328 64.4453L91.4062 63.6133L92.4141 64.1289L94.2656 65.0898L94.5703 65.2422L94.7812 65.5117L96.375 67.6328L98.0508 69.4961L99.9258 71.125L100.066 71.2539L100.184 71.418L101.543 73.4805L103.23 75.0039L105.41 76.1406L105.504 76.1875L105.586 76.2578L107.742 77.793L109.852 79.082L112.16 80.0547L112.523 80.2188L112.77 80.5234L113.191 81.0859L115.031 83.5H111.832L109.371 83.3945L109.347 83.3965L109.422 84.1797V84.2734L109.516 86.9102L109.598 89.5117L109.762 92.1484L109.773 92.3242L109.738 92.5L109.305 94.8789L109.738 97.2578L109.773 97.457L109.75 97.6562L109.504 100.211L109.656 102.719V102.871L109.633 103.012L109.281 105.402L109.738 107.805L109.773 107.98L109.762 108.156L109.621 110.793L109.574 113.395L109.588 114.441L110.738 114.266L111.031 114.219L111.312 114.289L112.355 114.547L111.652 117.453L110.891 117.266L109.641 117.459L109.645 117.625L108.933 117.568L108.547 117.629L108.453 117.652H108.359L105.723 117.723H105.582L103.822 117.429L102.859 117.52L102.789 117.531H102.73L101.763 117.535L100.672 117.734L100.438 117.781L100.203 117.746L97.6367 117.406H96.4346L95.0195 117.625L94.8789 117.648H94.7266L93.2314 117.575L92.5977 117.629L92.4922 117.641L92.3984 117.629L89.75 117.477V117.465L88.832 117.421L87.0039 117.578H86.8867L85.7227 117.588L84.7812 117.734L84.582 117.77L84.3945 117.746L81.8516 117.453L80.46 117.466L79.2227 117.695L78.9766 117.742L78.7188 117.695L78.0518 117.585L76.7773 117.711L76.6133 117.723L76.4492 117.699L73.918 117.383L71.3867 117.43H71.3281L68.6914 117.371H68.6445L66.1719 117.23L63.7109 117.699L63.4766 117.746L63.2305 117.711L60.7227 117.348L58.2383 117.488H58.0156L55.5898 117.242L53.1406 117.676L52.8828 117.723L52.6133 117.676L50.1172 117.242L47.6914 117.395H47.668L47.6445 117.406L42.3711 117.57H42.2539L42.1367 117.559L39.5938 117.254L37.1328 117.418L37.0508 117.43L36.957 117.418L34.5078 117.277L32 117.699L31.7891 117.734L31.5781 117.711L29.0234 117.395L26.5391 117.324L23.9492 117.512L23.8906 117.523H23.832L21.1953 117.512H21.0781L18.5 117.301L16.0508 117.395L16.0625 117.406L13.4258 117.664L13.2734 117.676L13.1211 117.664L10.625 117.395L8.16406 117.5H8V114.5H8.03516L10.5781 114.395L10.6836 114.383L10.8008 114.395L13.2852 114.664L15.7695 114.418H15.8633L17.041 114.37L17.0654 113.062V113.016L17.0771 112.969L17.2881 110.332L17.2998 110.238L17.3115 110.133L17.8506 107.695V105.129L17.8623 105.023L18.2373 102.621L17.8037 100.219L17.7568 99.9375L17.8154 99.6562L18.3311 97.2188L18.5068 94.6641L18.4248 92.1797V92.0977L18.4365 92.0156L18.6475 89.3906L18.8467 86.7539L18.9521 84.3164L18.7295 81.7617L18.7178 81.5977L18.7412 81.4219L19.1045 78.7852L19.3623 76.3594V76.3242L20.6611 76.4053L20.5957 76.1953L22.8223 75.3281L22.916 75.293L23.0215 75.2695L23.877 75.0586L24.5684 74.6133L24.8613 73.0195L24.791 70.5469V70.418L24.8027 70.3008L25.1074 67.8867L24.7207 65.1797L24.7676 64.9219L25.248 62.4609L25.1191 60.0117V59.9766L25.0488 57.3398L24.9668 54.7031V54.5859L24.9785 54.4805L25.2949 51.9023L25.3369 51.0674L23.9297 51.457L25.3887 48.7979L25.2832 46.9922L24.9082 44.3555L24.8848 44.1562L24.9082 43.9688L25.166 41.6484L24.498 39.5273L23.3262 37.3594L23.2324 37.1719L23.1855 36.9609L22.6348 34.3828L22.5879 34.1953L22.5996 33.9961L22.7285 31.4766L22.6699 28.8398L22.6582 28.7578L22.6699 28.6758L22.8926 26.0977L23.1387 23.4609V23.4258L23.1504 23.3789L23.5137 20.8828V20.8711L25.002 21L26.502 21.1289L26.4902 21.2227V21.2695L26.4785 21.3164L26.2764 22.6992L27.0039 20.8477L27.3438 19.9805L28.2578 19.8984L29.0938 19.8115L28.8203 18.7227H31V20.1523L32.1953 19.8711L32.6289 21.6406L33.0273 22.2148L33.4492 22.0742L33.4609 20.4922V19.2969L34.6328 19.0391L37.1172 18.4883L38.0898 18.2773L38.6641 19.0977L39.7305 20.5977L39.8799 20.7656L39.8984 19.8359L39.6875 17.1992V17.0586L39.7344 14.4219V14.3281L39.7461 14.2461L40.0859 11.8086L39.8867 9.34766L39.8984 9.33594L39.582 6.86328L39.5352 6.48828L39.6758 6.125L40.4609 4.16797L39.8516 2.64453L39.7578 2.38672L39.7461 2.10547V2H41.5156L42.6523 1.55469L43.0947 2.68945ZM45.4316 76.6475L44.9355 77.1445L44.2207 77.0742L41.584 76.793V76.7812L39.1699 76.6172L36.6973 76.9922L36.5215 77.0273L36.3457 77.0039L33.8848 76.8047L31.3066 77.0039L28.8926 77.4961L28.7754 77.5195L28.6465 77.5312L26.1621 77.6016L25.0957 77.8594L24.5449 78.2227L24.3223 78.3633L24.0762 78.4219L22.1055 78.9053L22.0811 79.1484V79.1953L21.918 80.3486L22.3242 80.293L24.5977 79.4141L24.7266 79.3672L24.8555 79.3438L27.5508 78.8047H27.6797L30.2344 78.7578L32.707 78.5352L32.7539 78.5234V78.5352L32.7656 78.5234L32.7773 78.6875L33 80L33.2461 81.4766L33.1523 81.5H33.0938L33.0352 81.5117L30.5039 81.7344H30.457L30.4102 81.7461L29.6387 81.7598L29.7051 83.1699L29.7168 83.2988L29.7051 83.416L29.4473 85.4785L29.7051 86.3574L30.0234 87.5068L31.6523 87.2988L31.6992 87.2871H31.7461L31.8516 87.2754L32.0391 90.2754H32.0273L29.5078 90.5918L29.3438 90.6152L29.168 90.5918L26.7305 90.3574L24.3633 90.8496L24.1992 90.873L21.5625 91.1074L21.5156 91.1113L21.4248 92.25L21.5068 94.7227V94.875L21.3193 97.4883L21.3076 97.5938L21.2842 97.6875L20.8037 99.9609L20.9873 101.013L21.1338 101.026L23.5947 100.698L23.7354 100.675L23.876 100.687L26.4072 100.839L28.833 100.651H28.8564L28.8916 100.64H28.9854L29.0557 102.14L29.1143 103.64H29.0674L26.8262 103.806L26.8613 104.938L26.873 105.066L26.8496 105.184L26.5566 107.328L26.5996 107.523L28.9355 107.297L29.0059 107.285H29.1699L29.1816 108.785L29.1934 109.969L29.2285 110.273H29.1934L29.1113 110.285L26.6973 110.531L26.5449 110.543L26.4043 110.531L23.9199 110.297L21.4238 110.543L21.2246 110.566L21.0254 110.531L20.3311 110.412L20.2646 110.719L20.0654 113.215L20.042 114.415L21.3125 114.512L21.3008 114.523H23.7383L26.375 114.336L26.4453 114.324L26.5273 114.336L29.1641 114.406H29.2344L29.293 114.418L31.7305 114.699L34.1562 114.301L34.3203 114.277L34.4844 114.289L37.0156 114.43L39.582 114.254L39.7227 114.242L39.8633 114.266L42.3711 114.57L44.9141 114.488L47.5039 114.418V114.406L50.1523 114.242L50.3281 114.23L50.5039 114.266L52.8828 114.688L55.2617 114.266L55.4609 114.23L55.6602 114.242L58.1328 114.488L60.7227 114.348L60.8633 114.336L61.0156 114.359L62.0918 114.517L62.0391 113.993V113.981L61.6875 111.427V111.321L61.5117 108.849L61.2773 106.165L61.2656 106.106V106.06L61.2188 103.54L60.668 101.091L60.6211 100.88L60.6445 100.669L60.8086 98.1143L60.668 95.665L60.4688 93.0049L60.4629 92.9883L60.1641 93H60V90H60.0352L60.3867 89.9854L60.5742 87.6611L60.3398 85.2119L60.3516 85.2002L59.9707 83.1621L57.4375 82.9062L57.2969 82.8945L57.1562 82.8594L54.7188 82.1211L52.2812 81.7695H49.6914L47.0547 81.6289H46.9609L44.5586 81.3477L42.1562 81.7812L42.1094 81.793H42.0625L39.4258 82.0977L39.2031 82.1211L38.9922 82.0859L36.4844 81.6289L34.0117 81.5H33.9883L34.0117 78.5H34.1875L36.7188 78.6406L36.8125 78.6523L36.8945 78.6641L39.2617 79.0977L41.6406 78.8281L44.2305 78.3594L44.4531 78.3242L47.3008 78.6406L47.2891 78.6523L49.8438 78.7695L49.832 78.7812H52.5273L52.6328 78.8047L55.2578 79.1797L55.3633 79.1914L55.4688 79.2266L57.8477 79.9414L60.1201 80.1602L60.1523 79.8682L59.9531 77.501V77.499L57.6289 76.9922L55.1562 77.0742H55.1211L52.5078 77.0859H52.3672L52.25 77.0625L49.8242 76.6523L47.3047 76.6055L45.4316 76.6475ZM100 83.6992L99.7891 83.7344L99.5781 83.7109L97.998 83.5146L96.1641 83.5234H96.1055L96.0469 83.5117L93.9932 83.3633L91.9492 83.5117L91.8906 83.5234H91.832L89.9902 83.5146L88.418 83.7109L88.207 83.7344L87.9961 83.6992L85.7891 83.3271L84.0508 83.3945L84.0625 83.4062L81.4258 83.6641L81.2734 83.6758L81.1211 83.6641L78.918 83.4258L77.8594 83.5586L77.7422 83.5703H77.625L77.3916 83.5625L77.2656 84.6836L77.4648 87.1562L77.4766 87.2617V87.3555L77.3477 89.8516L77.6875 92.3594L77.6992 92.4883V92.6055L77.6055 95.2539L77.5469 97.8672V97.8789L77.4766 100.516L77.5 103.117H77.4883L77.6406 105.672L77.6523 105.824L77.6289 105.977L77.2422 108.531V110.887L77.6289 113.453L77.6406 113.512V113.559L77.7109 114.484L78.2168 114.564L79.1445 114.477H79.2734L80.1709 114.468L81.332 114.262L81.5664 114.215L81.8008 114.25L84.3438 114.59L85.5967 114.583L86.9727 114.371L87.125 114.348L87.2773 114.359L88.6514 114.426L89.3945 114.367H89.6055L92.2422 114.52H92.2305L93.2979 114.569L95 114.43L95.0586 114.418H95.1055L96.2051 114.413L97.2227 114.262L97.4102 114.238L97.6094 114.262L100.129 114.531H101.558L102.77 114.312L103.027 114.266L103.285 114.301L103.942 114.41L105.227 114.297L105.355 114.285H105.473L106.586 114.367L106.574 113.383V113.324L106.599 112.192L105.7 112.253H102.829L102.7 112.241L100.192 111.843L97.8369 111.89H97.6377L97.7783 108.89L100.321 108.843H100.45L100.579 108.866L100.789 108.899L101.004 106.637L100.99 105.489L99.4688 105.504H99.4336L96.7969 105.457H96.7148L96.6328 105.445L94.0781 105.105L92.9297 105.059L93.0703 102.059L94.2656 102.117H94.3242L94.3828 102.129L96.9375 102.469L99.4688 102.504L102.105 102.48H102.234L102.352 102.492L104.824 102.879L106.618 102.904L106.645 102.719L106.516 100.246L106.504 100.129L106.516 100.023L106.738 97.5508L106.316 95.1367L106.27 94.8789L106.316 94.6211L106.75 92.1719L106.598 89.6875V89.6523L106.516 87.0039L106.434 84.4609L106.348 83.6406L103.934 83.3945L102.206 83.3271L100 83.6992ZM68.0508 92.9062H68.0625L65.4258 93.1641L65.2734 93.1758L65.1211 93.1641L63.4746 92.9932L63.668 95.4307V95.4658L63.8086 98.0557V98.2314L63.6445 100.657L64.1719 103.048L64.207 103.188V103.341L64.2656 105.896L64.5 108.579V108.603L64.5117 108.614L64.6641 111.017L65.0156 113.642V113.665L65.0273 113.677L65.0986 114.397L65.8086 114.266L65.9844 114.23L66.1602 114.242L68.7969 114.371L68.7852 114.383L71.3633 114.43L73.9766 114.383H74.082L74.1875 114.395L74.709 114.46L74.6641 113.91L74.2656 111.262L74.2422 111.156V111.039L74.2539 108.391V108.285L74.2773 108.18L74.6406 105.73L74.5 103.199V103.129L74.4824 101.183L73.4219 101.323L73.2812 101.335L73.1406 101.323L71.2305 101.194L70.3984 101.429L68.5352 101.933L68.5 99.999V99.917L69.9883 99.8936L69.6133 98.5342L70.6797 98.2412L70.9141 98.1709L71.1719 98.1943L73.1992 98.335L74.5371 98.1602L74.5469 97.8086L74.6055 95.1719V95.1484L74.6846 93.0176L73.1953 93.0117H73.0781L70.5 92.8125L68.0508 92.9062ZM104.004 106.766V106.836L103.992 106.918L103.781 109.051L103.822 109.253H105.513L106.701 109.18L106.75 108.156L106.336 105.891L104.648 105.867H104.543L104.449 105.855L103.993 105.786L104.004 106.766ZM21.3682 104.015L21.2275 104.026H21.0752L21.0469 104.023L20.8506 105.305V107.467L21.3301 107.555L23.5381 107.331L23.5566 107.199L23.8613 104.902L23.8213 103.687L21.3682 104.015ZM86.4961 86.4883L87.5273 86.3945L88.4062 86.3242L88.8984 87.0742L90.082 88.8906L90.293 89.1953L90.3281 89.5586L90.5859 92.207L90.6445 92.8164L90.2461 93.2969L88.7461 95.1484L88.2422 95.7461L87.4688 95.6875L84.8203 95.4883L83.9297 95.418L83.5664 94.5859L82.6406 92.4766L82.5469 92.2422L82.5234 91.9844L82.3359 89.3359L82.2891 88.7148L82.6992 88.2461L83.8711 86.9102L86.4961 83.9336V86.4883ZM97.4961 86.4883L98.5273 86.3945L99.4062 86.3242L99.8984 87.0742L101.082 88.8906L101.293 89.1953L101.328 89.5586L101.586 92.207L101.645 92.8164L101.246 93.2969L99.7461 95.1484L99.2422 95.7461L98.4688 95.6875L95.8203 95.4883L94.9297 95.418L94.5664 94.5859L93.6406 92.4766L93.5469 92.2422L93.5234 91.9844L93.3359 89.3359L93.2891 88.7148L93.6992 88.2461L94.8711 86.9102L97.4961 83.9336V86.4883ZM85.5352 89.5586L85.3594 89.7578L85.4883 91.4922L85.957 92.5586L86.9062 92.6289L87.5273 91.8672L87.375 90.2266L86.8711 89.4531L85.5352 89.5586ZM96.5352 89.5586L96.3594 89.7578L96.4883 91.4922L96.957 92.5586L97.9062 92.6289L98.5273 91.8672L98.375 90.2266L97.8711 89.4531L96.5352 89.5586ZM25.5352 82.2617L23.2383 83.1641L23.0742 83.2344L22.8867 83.2578L21.8838 83.3887L21.9521 84.1289L21.9639 84.2227V84.3281L21.8467 86.9414L21.835 86.9648V86.9883L21.752 88.0781L23.8359 87.8965L26.3555 87.3809L26.5781 87.334L26.8008 87.3574L28.333 87.5098L28.1699 86.7793L28.1582 86.7676L26.8105 87.1543L26.4824 86.0059L26.4121 85.7129L26.4473 85.4199L26.7168 83.1348L26.6543 82.0391L25.5352 82.2617ZM91.0195 68.418L89.3203 70.3633L87.6797 72.3789L87.5625 72.5195L87.4219 72.625L85.4766 74.0898L84.1172 76.1055L83.9648 76.3281L83.7422 76.4922L81.5977 77.9922H81.6094L79.4766 79.5625L79.3125 79.6797L79.125 79.75L77.3281 80.4463L78.5781 80.3945L78.6836 80.3828L78.8008 80.3945L78.9404 80.4092L80.1328 80.2656L80.2734 80.2422L80.4141 80.2539L82.9688 80.4297L85.5234 80.2891L85.6875 80.2773L85.8398 80.3008L86.0264 80.3311L86.5 80.3125L86.5938 80.3008L86.6758 80.3125L89.3125 80.5117L89.3008 80.5234H89.7891L90.7031 80.418L90.7734 80.4062H90.832L93.4805 80.3359L93.5508 80.3242L93.6328 80.3359L94.0029 80.3623L94.375 80.3359L94.4453 80.3242L94.5273 80.3359L97.1641 80.4062H97.2344L97.293 80.418L98.207 80.5234H98.6836V80.5117L101.32 80.3125L101.414 80.3008L101.496 80.3125L101.97 80.3311L102.156 80.3008L102.32 80.2773L102.484 80.2891L105.016 80.4297L106.184 80.3496L106.09 80.2891L106.043 80.2656L105.996 80.2305L103.91 78.7539L101.672 77.5703L101.508 77.4883L101.367 77.3594L99.4102 75.5898L99.2695 75.4609L99.1641 75.3086L97.8047 73.2695L95.9531 71.6289L95.8828 71.5703L95.8242 71.5L94.0547 69.5312L93.9844 69.4375L92.5664 67.5977L92.0508 67.3281L91.0195 68.418ZM43.3418 32.5352L43.4492 32.7578L43.1797 33.3789L42.4531 35.0664L42.5703 35.8164L42.8867 38.0781L40.6836 37.4688L40.6016 37.4453L41 36.0391L39.5938 36.2266L39.4414 35.0781L39.3828 34.668L39.5469 34.2812L40.1299 32.915L38.3047 32.7695V32.7578L36.5752 32.6719L36.6055 33.332L36.6172 33.4492L36.5938 33.5781L36.3477 35.7227L36.5586 36.6836L36.9453 38.5H35V37.0117L33.6172 37.3164L33.3594 36.1094L33.3125 35.875L33.3359 35.6289L33.6055 33.3672L33.6025 33.3184L33.5938 33.3203L31.4277 33.6953L31.5391 34.0742L32.3242 36.4883L31.0352 36.9102L30.9883 37.0039L30.2852 38.3281L30.2031 38.2812L29.6641 37.9883L29.4766 37.4141L28.6914 35L28.6797 34.9766V34.9648L28.5996 34.6963L28.4375 34.5977L28.2266 34.4688L28.4307 34.127L28.3281 33.7812L27.4844 34.0273L26.0312 35.1641L25.8799 35.2803L26.0566 36.1055L27.2168 38.25L27.2871 38.3672L27.334 38.5078L28.1309 41.0508L28.2246 41.3555L28.1895 41.6719L27.9082 44.0977L28.2598 46.5703L28.2715 46.6289V46.6992L28.2969 47.1348L28.3477 47.1211L28.5 47.0859L28.6641 47.0742L31.207 46.9219L33.668 46.5352H33.6914L33.7852 46.5234L33.9961 48L34.207 49.4883H34.125L34.1367 49.5L32.5293 49.75L32.6055 51.5781L32.6172 51.6836L32.6055 51.8008L32.3359 54.2734L32.4795 55.7373L33.6445 55.5352H33.668L33.6914 55.5234L33.7852 55.5117L34.207 58.4883L34.1133 58.5L34.1016 58.4883L31.6523 58.9219L31.5117 58.9453L29.1445 59.1211L28.1055 59.3662L28.1191 59.8594L28.248 62.5078L28.2598 62.6836L28.2246 62.8711L27.7559 65.2383L27.8818 66.0771L28.2773 65.9062L28.418 65.8477L28.582 65.8125L31.1016 65.3086L33.4688 64.5938H33.4805L33.4922 64.582L33.5859 64.5586L34.4062 67.4414L34.3242 67.4531L34.3359 67.4648L31.9102 68.2031L31.8398 68.2148L31.7695 68.2383L29.3203 68.7188L27.9541 69.3174L27.791 70.5586L27.873 73.0898V73.2539L27.8496 73.4062L27.6387 74.5547L28.3887 74.5312L30.8965 74.0391L30.9785 74.0156L31.0723 74.0039L33.709 73.8047L33.8262 73.793L33.9434 73.8047L36.4043 73.9922L38.877 73.6289L39.0527 73.5938L39.2168 73.6172L41.8535 73.8047H41.9004L44.2236 74.0518L44.3398 73.5586L44.8203 73.6758L47.2695 73.6055H47.3281L49.3701 73.6504L49.3477 73.4961L49.3242 73.3086L49.3359 73.1211L49.6055 70.5781L49.5 68.1641V68H49.5918L49.1797 67.793L46.9062 67.5117L46.8359 67.5L46.7773 67.4883L46.6719 67.4648L47 66L47.2227 65.0039L47.2812 64.5352L47.3164 64.5469H47.375L49.8125 64.8516L50.0703 64.8867L50.293 65.0039L52.2852 66L54.5938 66.1641H54.6289L54.9102 66.1904L54.8545 65.7891L54.8193 65.5195L54.8779 65.2617L55.4287 62.8359L55.2881 60.3984L55.2422 59.541L54.9531 59.5898L54.5781 59.4258L53.1484 58.8164L51.7422 58.4766H51.7305L51.6367 58.4531L52.3633 55.5469L52.457 55.5703L52.4453 55.582L53.957 55.9336L54.0742 55.957L54.1914 56.0039L55.0596 56.376L54.9717 55.1484V54.9258L55.1826 52.3711L54.9736 50.4775L54.8633 50.4844L54.5938 50.5078L54.3359 50.4258L52.1211 49.7461L49.9297 49.5117L49.8945 49.5H49.8477L49.7539 49.4766L50.2461 46.5234L50.2578 46.5352L50.2695 46.5234L52.5898 46.7812L52.7305 46.8047L52.8594 46.8398L54.9453 47.4844L54.9531 47.4834L54.96 47.2148L54.5264 44.7422L54.4912 44.5312L54.5146 44.3086L54.8428 41.6719L54.8545 41.5078L54.9131 41.3438L55.7568 39.0586L56.1201 36.5625H56.1318L56.2285 35.6025L55.2031 34.8672L54.6191 34.7246L54.5547 34.8359L53.5938 36.3594L53.582 37.0508L53.5469 38.5156L52.0703 38.5039H51.9883L52 37.0039V36.9922L50.5938 36.957L50.6172 35.8555L50.6406 35.457L50.8516 35.1172L51.6357 33.8496L50.7383 33.543L49.5674 33.3799L49.3477 34.8906L49.5352 35.6289L50.0156 37.5039H48V36.0156L46.6406 36.3672L46.3828 35.3711L46.3008 35.0898L46.3477 34.7969L46.6172 32.9336L46.6064 32.7871L45.8984 32.6055L43.5898 32.4883L43.3418 32.5352ZM52.6055 70.5781L52.6172 70.6836L52.6055 70.8008L52.3359 73.2617L52.46 74.0645L52.5898 74.0859H55.0625V74.0742L55.0752 74.0732L55.2646 73.3711L55.0537 71.0039L55.042 70.8984V70.7812L55.1436 69.2266L54.3477 69.1523V69.1406L52.54 69.0166L52.6055 70.5781ZM41.4961 60.4883L42.5273 60.3945L43.4062 60.3242L43.8984 61.0742L45.082 62.8906L45.293 63.1953L45.3281 63.5586L45.5859 66.207L45.6445 66.8164L45.2461 67.2969L43.7461 69.1484L43.2422 69.7461L42.4688 69.6875L39.8203 69.4883L38.9297 69.418L38.5664 68.5859L37.6406 66.4766L37.5469 66.2422L37.5234 65.9844L37.3359 63.3359L37.2891 62.7148L37.6992 62.2461L38.8711 60.9102L41.4961 57.9336V60.4883ZM40.5352 63.5586L40.3594 63.7578L40.4883 65.4922L40.957 66.5586L41.9062 66.6289L42.5273 65.8672L42.375 64.2266L41.8711 63.4531L40.5352 63.5586ZM29.0156 50.0508L28.3867 50.2246L28.2949 52.0898V52.1484L28.2832 52.207L27.9668 54.7031L28.0176 56.3057L28.5586 56.1797L28.6758 56.1445L28.793 56.1328L29.4971 56.0791L29.3359 54.4258L29.3242 54.2734L29.3359 54.1211L29.6055 51.5781L29.5371 50.0205L29.0156 50.0508ZM41.4961 42.4883L42.5273 42.3945L43.4062 42.3242L43.8984 43.0742L45.082 44.8906L45.293 45.1953L45.3281 45.5586L45.5859 48.207L45.6445 48.8164L45.2461 49.2969L43.7461 51.1484L43.2422 51.7461L42.4688 51.6875L39.8203 51.4883L38.9297 51.418L38.5664 50.5859L37.6406 48.4766L37.5469 48.2422L37.5234 47.9844L37.3359 45.3359L37.2891 44.7148L37.6992 44.2461L38.8711 42.9102L41.4961 39.9336V42.4883ZM40.5352 45.5586L40.3594 45.7578L40.4883 47.4922L40.957 48.5586L41.9062 48.6289L42.5273 47.8672L42.375 46.2266L41.8711 45.4531L40.5352 45.5586ZM36.4492 21.6992V24.2305L35.4297 24.582L32.9219 25.4258L31.8438 25.7891L31.1992 24.8516L30.0156 23.1172L29.8516 22.8945L29.8193 22.7471L29.4648 22.7812L28.9727 24.082L28.8555 24.3984L28.6211 24.6211L27.0625 26.1445L26.5117 26.6719L25.8643 26.5586L25.6582 28.9336L25.7285 31.4062V31.5234L25.7236 31.6094L25.8555 31.5078L26.0781 31.332L26.3477 31.25L28.9258 30.4883L30.3672 30.0547L30.583 30.7979L32.9375 30.3906L35.3281 29.6992L35.5742 29.6172L35.8203 29.6289L38.5039 29.7695L38.5273 29.7812H38.5508L40.8359 29.9688L43.2031 29.5117L43.3789 29.4766L43.5547 29.4883L46.1914 29.6172L46.332 29.6289L46.4844 29.6641L48.8398 30.2617L51.2773 30.5898L51.418 30.6133L51.5469 30.6602L53.9844 31.4805L56.2227 32.043L56.5039 32.1133L56.6162 32.1924L56.7061 31.4531L56.6709 29.0039L56.4717 26.3672L56.46 26.2148L56.4619 26.1846L55.1875 26.0117L53.8516 25.8242L53.8984 24.4766L53.9453 22.8359L53.6289 22.6953L53.1953 23.2227L53.125 23.293L53.0664 23.3633L51.4961 24.793L50.8867 25.3438L50.0898 25.1328L47.6523 24.4648L46.6914 24.207L46.5625 23.2109L46.3633 21.793L45.8828 21.7109L45.0859 22.625L43.9258 24.2656L43.457 24.9453L42.625 24.8984L40.0117 24.7461L39.3906 24.7109L38.9805 24.2539L37.4219 22.5312L37.3633 22.4609L37.3047 22.3789L36.7773 21.6289L36.4492 21.6992ZM43.082 5.68652L42.6055 6.875L42.7803 8.28613L44.4375 8.42969L44.6602 8.45312L44.8594 8.53516L47.0742 9.40234L48.6797 9.47266L49.2188 8.69922L49.3545 7.4502L48.7852 7.57422L48.2695 7.67969L47.8125 7.45703L45.5508 6.35547L43.3945 5.67578L43.082 5.68652Z" fill="black"/>
</svg>
