<svg width="120" height="120" viewBox="0 0 120 120" fill="none" xmlns="http://www.w3.org/2000/svg">
<path d="M98.6445 12.5234L100.531 12.3945L100.672 12.3828L100.801 12.3945L103.438 12.6758L104.281 12.7695L104.645 13.543L105.453 15.2891L105.57 15.5586L105.582 15.8633L105.688 18.5L105.699 18.5938L105.688 18.6758L105.549 20.5098L105.691 20.5117H105.715L105.738 20.5234L108.211 20.6523L110.719 20.2656L112.43 20.0078L112.441 21.7422L112.453 24.5781L112.477 27.2031L112.711 29.7227L112.723 29.8867L112.699 30.0508L112.371 32.6875L112.324 33.0625L112.102 33.3789L111.723 33.9072L112.102 34.3867L112.406 34.7734L112.43 35.2656L112.512 37.9141L112.594 40.5039L112.601 40.627L112.605 40.668L112.604 40.6738L112.758 43.1523L112.77 43.3281L112.734 43.5039L112.312 45.8828L112.734 48.2617L112.77 48.4609L112.758 48.6602L112.512 51.1328L112.652 53.7227L112.664 53.8633L112.641 54.0156L112.435 55.4229L112.5 57.5527L112.734 58.8086L112.77 58.9844L112.758 59.1602L112.648 61.3906L112.758 63.1523L112.84 64.3828L112.571 64.4512L112.617 66.9766V67.082L112.605 67.1875L112.289 69.6836L112.523 72.1445V72.2734L112.547 74.9102L112.559 75.8359L112.074 76.083L111.836 78.2852L112.082 80.7695V80.8633L112.188 83.5L112.199 83.5938L112.188 83.6758L111.988 86.3125L111.977 86.3008V88.7383L112.164 91.375L112.176 91.4453L112.164 91.5273L112.094 94.1641V94.2344L112.082 94.293L111.801 96.7305L112.199 99.1562L112.223 99.3203L112.211 99.4844L112.07 102.016L112.246 104.582L112.258 104.723L112.234 104.863L111.93 107.371L112.012 109.914L112.082 112.492H112.094L112.231 114.513L112.273 114.52L112.243 114.684L112.258 114.895L112.363 116.5H111.906L111.746 117.332V117.461L111.723 117.449V117.473L111.629 117.449L109.109 117.402L106.543 117.355L103.941 117.484H101.27L98.6211 117.566H98.5156L98.4102 117.555L95.8906 117.262L93.4297 117.473H93.2305L90.7227 117.344L88.2266 117.684L87.8398 117.73L87.4883 117.602L85.3555 116.781L84.3711 116.406L84.4531 112.715V112.703L84.5234 110.113L84.5 107.477V107.465L84.4834 107.173L84.0371 107.651L82.4258 105.733L80.5879 103.93L80.542 103.895L80.5029 103.851L78.7588 101.871L78.6807 101.783L77.1006 99.708L75.4111 97.9473L75.4189 97.9561L73.4961 96.1777L73.3867 96.0732L73.293 95.9502L71.8066 93.8916L70.5303 92.5615L69.043 92.4766V92.4648L66.5703 92.3477L64.0742 92.7344L63.875 92.7695L63.6875 92.7461L61.1445 92.4531L58.5781 92.4766L56.0703 92.7109L55.9062 92.7227L55.7422 92.6992L53.2109 92.3828L50.6797 92.4297H50.6211L49.6172 92.4072L48.1934 93.8916L46.707 95.9502L46.6133 96.0732L46.5039 96.1777L44.5811 97.9561L44.5889 97.9473L42.8994 99.708L41.3193 101.783L41.2412 101.871L39.4971 103.851L39.458 103.895L39.4121 103.93L37.5742 105.733L35.9629 107.651L35.5596 107.22L35.5742 107.629V107.746L35.5625 107.863L35.2578 110.324L35.4219 112.867V113.043L35.2812 115.68L35.2227 116.723L34.2266 117.039L32.1992 117.648L31.8945 117.742L31.5781 117.707L29.0234 117.391L26.5391 117.332L23.9492 117.52H23.832L21.1953 117.508H21.0781L18.5938 117.309L15.9805 117.414L15.9688 117.402L13.4258 117.66L13.2734 117.672L13.1211 117.66L10.625 117.391L8.16406 117.496H8V114.496H8.03516L8.22656 114.487L8.10547 112.703V112.68L8.09375 112.645L7.92969 107.371V107.254L7.94141 107.137L8.23438 104.594L8.08203 102.133L8.07031 102.051L8.08203 101.957L8.21094 99.5078L7.80078 97L7.76562 96.7891L7.78906 96.5781L8.09375 94.0234L8.16406 91.5391L7.98828 88.9492L7.97656 88.8906V88.832L7.98828 86.1953V86.0781L8.1875 83.5L8.09375 81.0625L7.83594 78.4258L7.82422 78.2734L7.83594 78.1211L8 76.5322V74.5H8.03516L8.05078 74.499L8 73.1641V73H8.49902L8.47656 70.4922V70.4336L8.54688 67.8086L8.60547 65.1719V65.1484L8.69922 62.6289L8.35938 60.1211L8.33594 59.9805L8.34766 59.8516L8.41602 58.5039L8.40723 56.4766L8.26562 54.7656L8.25391 54.6133L8.26562 54.4727L8.5127 52.333L8.3125 51.2266L8.26562 50.9688L8.30078 50.7109L8.49219 49.5547L8.48828 49.3984V46.7969L8.35938 44.1484L8.34766 44.1016L8.35938 44.0547L8.36133 43.8936L8.26562 43.2695L8.24219 43.1523V43.0352L8.25391 40.3984V39.9766L8.44434 39.6748L8.46484 38.7695L8.48828 36.2266L8.40625 34.0586L8.33594 32.5H8.62012L8.58203 31.6094L8.57031 31.5391L8.58203 31.457L8.71094 28.9844L8.30078 26.5L8.26562 26.2891L8.28906 26.0781L8.60547 23.4414L8.64062 23.1016L8.82812 22.8086L9.75391 21.3672L10.1641 20.7227L10.9141 20.6758L13.5508 20.4883L13.6094 20.4766H13.668L16.3047 20.4883H16.4219L19 20.6992L21.4375 20.6055V20.5938L24.0742 20.3359L24.2266 20.3242L24.3789 20.3359L26.8633 20.6055L28.2617 20.5449L28.2539 20.4219L28.2422 20.2812L28.2656 20.1406L28.5703 17.6211L28.4883 15.0898V15.0195L28.5 13.9766L28.5469 10.4258L30.6445 12.5234L32.5312 12.3945L32.6719 12.3828L32.8008 12.3945L35.4375 12.6758L36.2812 12.7695L36.6445 13.543L37.4531 15.2891L37.5703 15.5586L37.582 15.8633L37.6875 18.5L37.6992 18.5938L37.6875 18.6758L37.5488 20.5098L37.6914 20.5117H37.7148L37.7383 20.5234L40.2109 20.6523L42.7188 20.2656L44.4297 20.0078L44.4336 20.7051L44.9141 20.6758L47.5508 20.4883L47.6094 20.4766H47.668L50.3047 20.4883H50.4219L53 20.6992L55.4375 20.6055V20.5938L58.0742 20.3359L58.2266 20.3242L58.3789 20.3359L60.8633 20.6055L62.3994 20.5391L62.2539 18.4141L62.2422 18.2617L62.2656 18.1094L62.4766 16.5977L60.3789 14.5H64.9961L66.5312 14.3945L66.6719 14.3828L66.8008 14.3945L69.4375 14.6758L70.2812 14.7695L70.6445 15.543L71.4531 17.2891L71.5703 17.5586L71.582 17.8633L71.6875 20.5L71.6885 20.5107L71.6914 20.5117H71.7148L71.7383 20.5234L74.2109 20.6523L76.7188 20.2656L78.4297 20.0078L78.4336 20.7051L78.9141 20.6758L81.5508 20.4883L81.6094 20.4766H81.668L84.3047 20.4883H84.4219L87 20.6992L89.4375 20.6055V20.5938L92.0742 20.3359L92.2266 20.3242L92.3789 20.3359L94.8633 20.6055L96.2617 20.5449L96.2539 20.4219L96.2422 20.2812L96.2656 20.1406L96.5703 17.6211L96.4883 15.0898V15.0195L96.5 13.9766L96.5469 10.4258L98.6445 12.5234ZM17.8516 77.3359L15.2617 77.7344L15.1562 77.7578H15.0391L12.3906 77.7461H12.2383L12.0859 77.7109L10.9248 77.4639L10.8359 78.2852L11.082 80.7695V80.8633L11.1875 83.5L11.1992 83.5938L11.1875 83.6758L10.9883 86.3125L10.9766 86.3008V88.7383L11.1641 91.375L11.1758 91.4453L11.1641 91.5273L11.0938 94.1641V94.2344L11.082 94.293L10.8008 96.7305L11.1992 99.1562L11.2227 99.3203L11.2109 99.4844L11.0703 102.016L11.2461 104.582L11.2578 104.723L11.2344 104.863L10.9297 107.371L11.0117 109.914L11.082 112.492H11.0938L11.2266 114.444L13.2852 114.648L15.7695 114.414H15.8633L18.5 114.309H18.6758L21.1953 114.508H23.7383L26.375 114.332H26.5273L29.1641 114.402H29.2344L29.293 114.414L31.6016 114.684L32.3281 114.461L32.4219 112.961L32.2578 110.418L32.2461 110.277L32.2578 110.137L32.5625 107.617L32.4922 105.086L32.3984 102.449L32.3164 99.7773L32.3047 99.4258L32.4453 99.1094L33.5234 96.7539L34.4375 94.2578L34.5781 93.8828L34.8828 93.625L36.9453 91.9023L37.0156 91.8555L37.0859 91.7969L39.3125 90.3555L39.6055 90.1562L39.957 90.1211L42.4883 89.8281L45.0547 89.2656L45.2539 89.2305L45.4531 89.2422L48.0898 89.3711L48.0781 89.3828L50.6445 89.4297L53.2695 89.3828H53.375L53.4805 89.3945L55.9766 89.7109L58.4375 89.4766H58.5547L61.2031 89.4531H61.2852L61.3789 89.4648L63.8281 89.7461L66.418 89.3477L66.5703 89.3594L69.207 89.4883H69.2188L71.7383 89.6406L74.293 89.4297L74.3633 89.418H74.4336L77.082 89.4531L77.3516 89.4648L77.6094 89.5586L80.0586 90.5195L82.5195 91.3398L82.9648 91.4922L83.2461 91.8672L84.8398 94L84.9102 94.0938L86.3047 96.2734L86.3633 96.3555L86.3984 96.4492L87.5117 98.8867L87.6289 99.1562L87.6406 99.4609L87.7461 102.133V102.262L87.7227 102.402L87.3594 104.84L87.5 107.383V107.453L87.5234 110.09V110.148L87.4531 112.773L87.4062 114.355L88.1797 114.648L90.4648 114.355L90.6055 114.344H90.7344L93.3359 114.461L95.8203 114.262L95.9727 114.25L96.1133 114.273L98.6211 114.555L101.176 114.484H103.789L106.426 114.355H106.531L109.168 114.402L109.221 114.403L109.105 112.703V112.68L109.094 112.645L108.93 107.371V107.254L108.941 107.137L109.234 104.594L109.082 102.133L109.07 102.051L109.082 101.957L109.211 99.5078L108.801 97L108.766 96.7891L108.789 96.5781L109.094 94.0234L109.164 91.5391L108.988 88.9492L108.977 88.8906V88.832L108.988 86.1953V86.0781L109.188 83.5L109.094 81.0625L108.836 78.4258L108.824 78.2734L108.836 78.1211L108.892 77.5752L108.547 77.6289L108.453 77.6523H108.359L105.723 77.7227H105.582L104.411 77.5273L104.086 77.5117H104.074L102.435 77.4121L100.672 77.7344L100.438 77.7812L100.203 77.7461L98.9502 77.5801L98.9414 77.582H98.8945L96.2461 77.5938H96.1406L96.0352 77.582L94.9297 77.4316L92.5977 77.6289L92.4922 77.6406L92.3984 77.6289L91.7568 77.5918L90.9727 77.7344L90.7148 77.6992L89.1221 77.4346L87.2773 77.3477L84.7812 77.7344L84.582 77.7695L84.3945 77.7461L83.7031 77.666L83.2617 77.7344L83.1562 77.7578H83.0391L80.3906 77.7461H80.2383L80.0859 77.7109L79.04 77.4883L76.7773 77.7109L76.6133 77.7227L76.4492 77.6992L74.3213 77.4326L73.0273 77.6289L72.875 77.6523L72.7227 77.6406L70.0859 77.5117H70.0742L67.543 77.3594L65 77.5703L64.9414 77.582H64.8945L64.3125 77.584L63.7109 77.6992L63.4766 77.7461L63.2305 77.7109L62.416 77.5928L62.2461 77.5938H62.1406L62.0352 77.582L60.4316 77.3633L58.3691 77.4805L56.9727 77.7344L56.7148 77.6992L54.8008 77.3809L53.1406 77.6758L52.8828 77.7227L52.6133 77.6758L51.2178 77.4326L49.2617 77.7344L49.1562 77.7578H49.0391L46.3906 77.7461H46.2383L46.0859 77.7109L45.0332 77.4873L42.3711 77.5703H42.2539L42.1367 77.5586L40.6611 77.3818L39.0273 77.6289L38.875 77.6523L38.7227 77.6406L36.0859 77.5117H36.0742L33.8936 77.3799L32 77.6992L31.7891 77.7344L31.5781 77.7109L30.5488 77.583L28.2461 77.5938H28.1406L28.0352 77.582L26.2773 77.3428L24.3652 77.4814L23.2305 77.6875L22.9727 77.7344L22.7148 77.6992L21.5947 77.5127L21.1953 77.5117H21.0781L18.6748 77.3145L17.8516 77.3359ZM43.0859 92.7695L43.0039 92.7812L42.9336 92.793L40.6484 93.0508L38.7852 94.2695L37.1094 95.6641L36.3359 97.8086L36.3242 97.8672L36.2891 97.9141L35.3164 100.012L35.3984 102.355L35.4385 103.66L35.5889 103.482L35.6357 103.412L35.6904 103.369L37.5664 101.538L39.1855 99.7168H39.1699L40.79 97.5967L40.8369 97.5264L40.9062 97.4658L42.7285 95.5732L42.791 95.5039L44.6045 93.8311L45.7373 92.2451L45.4766 92.2305L43.0859 92.7695ZM74.3916 92.4268L75.3955 93.8311L77.209 95.5039L77.2715 95.5732L79.0938 97.4658L79.1631 97.5264L79.21 97.5967L80.8301 99.7168H80.8145L82.4336 101.538L84.3096 103.369L84.3643 103.412L84.4111 103.482L84.5146 103.605L84.7344 102.086L84.6406 99.8359L83.7031 97.7617L82.3789 95.7109V95.6992L81.125 94.0352L79.0391 93.332L78.9688 93.3086L76.7422 92.4414L74.5039 92.418L74.3916 92.4268ZM101.497 73.1006L101.458 73.1445L101.412 73.1797L100.092 74.4746L101.402 74.3711L101.508 74.3594L101.602 74.3711L102.24 74.4072L102.77 74.3125L103.027 74.2656L103.285 74.3008L104.772 74.5479L105.131 74.5645L104.01 73.5947L103.921 73.5186L102.437 72.0332L101.497 73.1006ZM11.6055 65.2539L11.5469 67.8672V67.8789L11.4766 70.5156L11.5 73.1172H11.4883L11.5674 74.4775L12.0732 74.5322L13.5889 72.7324L13.6357 72.6621L13.6904 72.6191L15.5664 70.7881L17.1426 69.0137L17.1006 68.958L15.4111 67.1973L15.4189 67.2061L13.4961 65.4277L13.3867 65.3232L13.293 65.2002L11.8066 63.1416L11.6846 63.0137L11.6055 65.2539ZM17.4971 73.1006L17.458 73.1445L17.4121 73.1797L16.1621 74.4053L17.5322 74.3506L17.5469 74.3477H17.6211L18.5 74.3125L18.5938 74.3008L18.6758 74.3125L18.749 74.3174L20.2773 74.2773H20.418L20.5586 74.3008L21.9287 74.5234H21.957L20.5879 73.1797L20.542 73.1445L20.5029 73.1006L19 71.3945L17.4971 73.1006ZM60.1934 63.1416L58.707 65.2002L58.6133 65.3232L58.5039 65.4277L56.5811 67.2061L56.5889 67.1973L54.8994 68.958L54.8564 69.0137L56.4336 70.7881L58.3096 72.6191L58.3643 72.6621L58.4111 72.7324L59.6768 74.2354L59.7969 74.2539L60.585 74.3545L60.7227 74.3477L60.8633 74.3359L61.0156 74.3594L62.0869 74.5156L63.5889 72.7324L63.6357 72.6621L63.6904 72.6191L65.5664 70.7881L67.1426 69.0137L67.1006 68.958L65.4111 67.1973L65.4189 67.2061L63.4961 65.4277L63.3867 65.3232L63.293 65.2002L61.8066 63.1416L60.999 62.3008L60.1934 63.1416ZM33.4971 73.1006L33.458 73.1445L33.4121 73.1797L32.0908 74.4746L33.4023 74.3711L33.5078 74.3594L33.6016 74.3711L33.6953 74.376L34.1562 74.3008L34.3203 74.2773L34.4844 74.2891L37.0156 74.4297L37.8057 74.375L36.5879 73.1797L36.542 73.1445L36.5029 73.1006L35 71.3945L33.4971 73.1006ZM79.5469 67.8672V67.8789L79.4766 70.5156L79.5 73.1172H79.4883L79.5674 74.4736L80.2207 74.4678L81.7998 73.2979L83.6416 71.7188H83.623L84.7314 70.6133L84.1924 70.1855L81.9951 68.6377L81.8701 68.5459L81.7637 68.4395L80.0645 66.6475L79.582 66.2646L79.5469 67.8672ZM45.6055 65.2539L45.5469 67.8672V67.8789L45.4766 70.5156L45.5 73.1172H45.4883L45.5664 74.4697L46.1387 74.4541L47.5889 72.7324L47.6357 72.6621L47.6904 72.6191L49.5664 70.7881L51.1426 69.0137L51.1006 68.958L49.4111 67.1973L49.4189 67.2061L47.4961 65.4277L47.3867 65.3232L47.293 65.2002L45.8066 63.1416L45.6846 63.0137L45.6055 65.2539ZM86.0791 73.5186L85.9902 73.5947L85.0186 74.4336L85.4531 74.3711L85.5469 74.3477H85.6406L88.2773 74.2773H88.418L88.5586 74.3008L88.8877 74.3535L88.0098 73.5947L87.9209 73.5186L87 72.5967L86.0791 73.5186ZM67.4971 73.1006L67.458 73.1445L67.4121 73.1797L66.3213 74.25L68.7969 74.3711L68.7852 74.3828L71.3633 74.4297L71.8525 74.4209L70.5879 73.1797L70.542 73.1445L70.5029 73.1006L69 71.3945L67.4971 73.1006ZM93.9355 66.6475L92.2363 68.4395L92.1299 68.5459L92.0049 68.6377L89.8076 70.1855L89.2676 70.6133L90.377 71.7188H90.3584L92.2002 73.2979L93.4678 74.2373L93.5625 74.2188L93.7969 74.2539L95.0742 74.418H95.1055L96.1738 74.4131L97.5889 72.7324L97.6357 72.6621L97.6904 72.6191L99.5664 70.7881L100.137 70.1455L97.9951 68.6377L97.8701 68.5459L97.7637 68.4395L96.0645 66.6475L94.999 65.8008L93.9355 66.6475ZM51.4971 73.1006L51.458 73.1445L51.4121 73.1797L50.3389 74.2324L50.5039 74.2656L51.2578 74.3994L51.4531 74.3711L51.5469 74.3477H51.6406L54.2773 74.2773H54.418L54.5586 74.3008L54.8213 74.3428L55.2617 74.2656L55.4609 74.2305L55.6602 74.2422L55.6709 74.2432L54.5879 73.1797L54.542 73.1445L54.5029 73.1006L53 71.3945L51.4971 73.1006ZM26.1934 63.1416L24.707 65.2002L24.6133 65.3232L24.5039 65.4277L22.5811 67.2061L22.5889 67.1973L20.8994 68.958L20.8564 69.0137L22.4336 70.7881L24.3096 72.6191L24.3643 72.6621L24.4111 72.7324L25.6768 74.2354L25.7969 74.2539L26.4004 74.3311L26.4453 74.3242L26.5273 74.3359L28.2012 74.3799L29.5889 72.7324L29.6357 72.6621L29.6904 72.6191L31.5664 70.7881L33.1426 69.0137L33.1006 68.958L31.4111 67.1973L31.4189 67.2061L29.4961 65.4277L29.3867 65.3232L29.293 65.2002L27.8066 63.1416L26.999 62.3008L26.1934 63.1416ZM40.707 65.2002L40.6133 65.3232L40.5039 65.4277L38.5811 67.2061L38.5889 67.1973L36.8994 68.958L36.8564 69.0137L38.4336 70.7881L40.3096 72.6191L40.3643 72.6621L40.4111 72.7324L41.499 74.0254L41.5352 74.0078L41.5234 72.2969V72.2852L41.2891 69.7773L41.2773 69.6133L41.3008 69.4492L41.6055 66.918L41.5703 64.3867V64.3281L41.5771 63.9941L40.707 65.2002ZM74.707 65.2002L74.6133 65.3232L74.5039 65.4277L72.5811 67.2061L72.5889 67.1973L70.8994 68.958L70.8564 69.0137L72.4336 70.7881L74.3096 72.6191L74.3643 72.6621L74.4111 72.7324L75.499 74.0254L75.5352 74.0078L75.5234 72.2969V72.2852L75.2891 69.7773L75.2773 69.6133L75.3008 69.4492L75.6055 66.918L75.5703 64.3867V64.3281L75.5771 63.9941L74.707 65.2002ZM109.5 65.25L109.383 65.2734L108.502 65.4287L106.581 67.2061L106.589 67.1973L104.899 68.958L104.328 69.707L104.393 69.7588L104.473 69.8125L104.525 69.873L106.377 71.7188H106.358L108.2 73.2979L109.028 73.9111L109 73.1641V73H109.528L109.523 72.2969V72.2852L109.289 69.7773L109.277 69.6133L109.301 69.4492L109.605 66.918L109.581 65.2275L109.5 65.25ZM83.1338 65.4941L84.166 66.5938L86.2393 68.0508L86.3105 68.1113L87 68.6562L87.6895 68.1113L87.7607 68.0508L89.834 66.5938L90.7949 65.5693L90.6328 65.5664L88.0195 65.6133H87.9141L87.8203 65.6016L85.3594 65.2969L83.1338 65.4941ZM100.166 66.5938L101.998 67.8818L102.79 66.8467L102.837 66.7764L102.906 66.7158L104.044 65.5332L103.77 65.5078L101.285 65.6484L101.133 65.6602L100.992 65.6367L98.9941 65.3457L100.166 66.5938ZM18.0508 61.9062H18.0625L15.4258 62.1641L15.2734 62.1758L15.1211 62.1641L14.709 62.1211L15.3955 63.0811L17.209 64.7539L17.2715 64.8232L19 66.6182L20.7285 64.8232L20.791 64.7539L22.6045 63.0811L23.3682 62.0117H23.0781L20.5 61.8125L18.0508 61.9062ZM34 62.1992L33.7891 62.2344L33.5781 62.2109L31.0234 61.9062L30.5459 61.8926L31.3955 63.0811L33.209 64.7539L33.2715 64.8232L35 66.6182L36.7285 64.8232L36.791 64.7539L38.6045 63.0811L39.4502 61.8975L39.1328 61.918L39.0508 61.9297L38.957 61.918L36.5078 61.7891L34 62.1992ZM52.0508 61.9062H52.0625L49.4258 62.1641L49.2734 62.1758L49.1211 62.1641L48.709 62.1211L49.3955 63.0811L51.209 64.7539L51.2715 64.8232L53 66.6182L54.7285 64.8232L54.791 64.7539L56.6045 63.0811L57.3682 62.0117H57.0781L54.5 61.8125L52.0508 61.9062ZM68 62.1992L67.7891 62.2344L67.5781 62.2109L65.0234 61.9062L64.5459 61.8926L65.3955 63.0811L67.209 64.7539L67.2715 64.8232L69 66.6182L70.7285 64.8232L70.791 64.7539L72.6045 63.0811L73.4502 61.8975L73.1328 61.918L73.0508 61.9297L72.957 61.918L70.5078 61.7891L68 62.1992ZM102 55.6992L101.789 55.7344L101.578 55.7109L99.0234 55.3945L96.5391 55.3242L93.9492 55.5117L93.8906 55.5234H93.832L91.1953 55.5117H91.0781L88.5 55.3008L86.0508 55.3945L86.0625 55.4062L83.4258 55.6641L83.2734 55.6758L83.1211 55.6641L80.625 55.3945L79.6289 55.4297L79.6406 55.4531L79.6289 55.6055L79.4766 58.2422L79.3857 60.1338L79.6826 62.3262L80.2969 62.5312H82.582L85.2188 62.2969L85.3828 62.2734L85.5469 62.2969L88.0664 62.6016L90.6094 62.5664H90.668L93.3164 62.625H93.3633L95.8242 62.7539L98.2852 62.2969L98.5312 62.25L98.7773 62.2852L101.273 62.6484L103.758 62.5078H103.875L103.98 62.5195L106.395 62.7422L106.91 62.6523L108.076 61.0225L108.146 60.9258L108.224 60.8555L109.557 59.4746L109.512 58.0078L109.505 57.8057L109.301 56.7109L109.254 56.4766L109.289 56.2305L109.356 55.7471L108.984 55.2891L107.133 55.418L107.051 55.4297L106.957 55.418L104.508 55.2773L102 55.6992ZM88.4961 59.5H87.0195L87.4531 60.8359L86.6562 61.0938L86.3047 61.2109L85.9414 61.1406L84.5 60.9062L83.2109 61H83L82.9883 58L84.4883 57.8945L84.6758 57.8828L84.8516 57.918L86.082 58.1289L86.5391 57.9883L88.4961 57.3555V59.5ZM97.4961 59.5H96.0195L96.4531 60.8359L95.6562 61.0938L95.3047 61.2109L94.9414 61.1406L93.5 60.9062L92.2109 61H92L91.9883 58L93.4883 57.8945L93.6758 57.8828L93.8516 57.918L95.082 58.1289L95.5391 57.9883L97.4961 57.3555V59.5ZM106.496 59.5H105.02L105.453 60.8359L104.656 61.0938L104.305 61.2109L103.941 61.1406L102.5 60.9062L101.211 61H101L100.988 58L102.488 57.8945L102.676 57.8828L102.852 57.918L104.082 58.1289L104.539 57.9883L106.496 57.3555V59.5ZM69.8047 35.3945L68.2109 35.6992L67.9766 35.7461L67.8369 35.7256L67.7891 35.7344L67.5781 35.7109L65.0234 35.3945L64.6035 35.3818L62.7383 35.4883H62.5156L61.5811 35.3926L59.9492 35.5117L59.8906 35.5234H59.832L58.5332 35.5176L57.6406 35.6758L57.3828 35.7227L57.1133 35.6758L55.3584 35.3701L54.5 35.3008L52.4102 35.3799L52.1914 35.3945H52.168L52.1445 35.4062L52.0234 35.4092L49.4258 35.6641L49.2734 35.6758L49.1211 35.6641L47.9434 35.5361L46.8711 35.5703H46.7539L46.6367 35.5586L45.6084 35.4346L45.4531 35.4414L45.4883 36.0977V36.1797L45.4648 38.8164V38.8281L45.4062 41.4766L45.3477 44.1133L45.4766 46.6445L45.4883 46.6797V49.3164L45.5586 51.9531L45.5703 52.0703L45.5586 52.1758L45.2656 54.6836L45.4648 57.1562L45.4766 57.2617V57.3555L45.3945 58.9434L46.5781 58.8945L46.6836 58.8828L46.8008 58.8945L49.2852 59.1641L51.7695 58.918H51.8633L54.5 58.8125L54.5938 58.8008L54.6758 58.8125L57.3125 59.0117L57.3008 59.0234H59.7383L62.375 58.8359L62.4453 58.8242L62.5273 58.8359L65.1641 58.9062H65.2344L65.293 58.918L67.7305 59.1992L70.1562 58.8008L70.3203 58.7773L70.4844 58.7891L73.0156 58.9297L75.582 58.7539L75.6807 58.748L75.3008 56.7109L75.2539 56.4766L75.2891 56.2305L75.6406 53.7227L75.5117 51.2383V51.0156L75.7461 48.5898L75.3242 46.1406L75.2773 45.8828L75.3242 45.6133L75.7461 43.1172L75.6055 40.6914V40.668L75.5938 40.6445L75.5117 38.0078L75.4414 35.8516L75.085 35.4131L73.6572 35.3809L73.1328 35.418L73.0508 35.4297L72.957 35.418L70.5078 35.2773L69.8047 35.3945ZM34 41.6992L33.7891 41.7344L33.5781 41.7109L31.0234 41.3945L28.5391 41.3242L25.9492 41.5117L25.8906 41.5234H25.832L23.1953 41.5117H23.0781L20.5 41.3008L18.0508 41.3945L18.0625 41.4062L15.4258 41.6641L15.2734 41.6758L15.1211 41.6641L12.625 41.3945L11.4062 41.4453V41.4766L11.3574 43.6572L11.6289 45.4492L11.6523 45.543V45.6367L11.7227 48.2852V48.4258L11.6992 48.5664L11.499 49.75L11.5586 51.9531L11.5703 52.0703L11.5586 52.1758L11.5449 52.2881L11.7344 53.3359L11.7812 53.5703L11.7461 53.8047L11.4062 56.3477V56.4287L11.4648 57.1562L11.4766 57.2617V57.3555L11.4395 58.0547L11.9805 58.375L14.2422 58.5156H14.2305L16.7617 58.6328L19.2227 58.2695L19.4102 58.2344L19.6094 58.2578L22.1289 58.5391L24.707 58.5273L27.2266 58.293L27.3789 58.2812L27.543 58.293L30.0742 58.5977L32.6172 58.5742H32.6758L35.3125 58.6328H35.3594L37.8203 58.75L40.2812 58.3047L40.4336 58.2695H40.5742L41.5586 58.2812L41.5469 58.0322L41.3008 56.7109L41.2539 56.4766L41.2891 56.2305L41.6201 53.8623L41.3242 52.1406L41.2773 51.8828L41.3242 51.6133L41.627 49.8203L41.7266 48.7871L41.6992 48.3223L41.3242 46.1406L41.2773 45.8828L41.3242 45.6133L41.5244 44.4268L41.5117 44.0078L41.4414 41.8516L40.9844 41.2891L39.1328 41.418L39.0508 41.4297L38.957 41.418L36.5078 41.2773L34 41.6992ZM52.1992 50.7734L53.8047 52.1562L54.3789 52.6367L54.332 53.3867L54.1562 55.9883L54.0742 57.3828L52.6797 57.3945L49.9609 57.418L49.9492 56.5508L49.2109 57.2773L48.3438 56.7383L47.7227 56.3633L47.6406 55.6367L47.5469 54.7695L47.3477 54.4414H47.5L47.3242 52.9883L47.1953 51.8281L48.2852 51.418L50.6875 50.5039L51.5195 50.1992L52.1992 50.7734ZM61.1992 50.7734L62.8047 52.1562L63.3789 52.6367L63.332 53.3867L63.1562 55.9883L63.0742 57.3828L61.6797 57.3945L58.9609 57.418L58.9492 56.5508L58.2109 57.2773L57.3438 56.7383L56.7227 56.3633L56.6406 55.6367L56.5469 54.7695L56.3477 54.4414H56.5L56.3242 52.9883L56.1953 51.8281L57.2852 51.418L59.6875 50.5039L60.5195 50.1992L61.1992 50.7734ZM70.1992 50.7734L71.8047 52.1562L72.3789 52.6367L72.332 53.3867L72.1562 55.9883L72.0742 57.3828L70.6797 57.3945L67.9609 57.418L67.9492 56.5508L67.2109 57.2773L66.3438 56.7383L65.7227 56.3633L65.6406 55.6367L65.5469 54.7695L65.3477 54.4414H65.5L65.3242 52.9883L65.1953 51.8281L66.2852 51.418L68.6875 50.5039L69.5195 50.1992L70.1992 50.7734ZM17.3203 44.1055H18.668L20.0742 44.1172L20.1562 45.5117L20.332 48.1133H20.3203L20.5781 50.7031L20.6016 50.9375L20.5547 51.1602L19.9922 53.7617L19.7227 54.9922L18.4688 54.9453L15.7617 54.8516L14.7539 54.8047L14.4023 53.8555L13.6055 51.6289L13.5352 51.4414L13.5234 51.2305L13.3359 48.5938L13.3242 48.4531L13.3359 48.3125L13.6406 45.6641L13.7461 44.75L14.6016 44.4336L15.4688 44.0938L17.2383 43.4141L17.3203 44.1055ZM26.3203 44.1055H27.668L29.0742 44.1172L29.1562 45.5117L29.332 48.1133H29.3203L29.5781 50.7031L29.6016 50.9375L29.5547 51.1602L28.9922 53.7617L28.7227 54.9922L27.4688 54.9453L24.7617 54.8516L23.7539 54.8047L23.4023 53.8555L22.6055 51.6289L22.5352 51.4414L22.5234 51.2305L22.3359 48.5938L22.3242 48.4531L22.3359 48.3125L22.6406 45.6641L22.7461 44.75L23.6016 44.4336L24.4688 44.0938L26.2383 43.4141L26.3203 44.1055ZM35.3203 44.1055H36.668L38.0742 44.1172L38.1562 45.5117L38.332 48.1133H38.3203L38.5781 50.7031L38.6016 50.9375L38.5547 51.1602L37.9922 53.7617L37.7227 54.9922L36.4688 54.9453L33.7617 54.8516L32.7539 54.8047L32.4023 53.8555L31.6055 51.6289L31.5352 51.4414L31.5234 51.2305L31.3359 48.5938L31.3242 48.4531L31.3359 48.3125L31.6406 45.6641L31.7461 44.75L32.6016 44.4336L33.4688 44.0938L35.2383 43.4141L35.3203 44.1055ZM50.4414 53.8086L50.5117 54.418H51.25L51.2852 53.9492L50.9219 53.6328L50.4414 53.8086ZM59.4414 53.8086L59.5117 54.418H60.25L60.2852 53.9492L59.9219 53.6328L59.4414 53.8086ZM68.4414 53.8086L68.5117 54.418H69.25L69.2852 53.9492L68.9219 53.6328L68.4414 53.8086ZM95.1914 44.7344L95.0156 44.7695L94.8398 44.7578L92.2031 44.6289V44.6172L89.625 44.5703L87.0234 44.6172H86.918L86.8125 44.6055L84.3047 44.2891L81.8555 44.5234H81.7266L79.3691 44.5439L79.4766 46.6445L79.4883 46.6797V49.3164L79.5586 51.9531L79.5703 52.0703L79.5586 52.1758L79.5273 52.4375L80.5781 52.3945L80.6836 52.3828L80.8008 52.3945L83.2852 52.6641L85.7695 52.418H85.8633L88.5 52.3125L88.5938 52.3008L88.6758 52.3125L91.3125 52.5117L91.3008 52.5234H93.7383L96.375 52.3359L96.4453 52.3242L96.5273 52.3359L99.1641 52.4062H99.2344L99.293 52.418L101.73 52.6992L104.156 52.3008L104.32 52.2773L104.484 52.2891L107.016 52.4297L109.564 52.2549L109.512 51.2383V51.0156L109.746 48.5898L109.324 46.1406L109.277 45.8828L109.324 45.6133L109.502 44.5576L108.117 44.3125L105.738 44.7344L105.539 44.7695L105.34 44.7578L102.855 44.5117L100.277 44.6523L100.137 44.6641L99.9844 44.6406L97.5703 44.2891L95.1914 44.7344ZM16.3359 48.5352L16.4883 50.7969L16.875 51.875L17.3203 51.8984L17.5664 50.7734L17.3438 48.3594L17.332 48.3359V48.3008L17.25 47.0938H16.5L16.3359 48.5352ZM25.3359 48.5352L25.4883 50.7969L25.875 51.875L26.3203 51.8984L26.5664 50.7734L26.3438 48.3594L26.332 48.3359V48.3008L26.25 47.0938H25.5L25.3359 48.5352ZM34.3359 48.5352L34.4883 50.7969L34.875 51.875L35.3203 51.8984L35.5664 50.7734L35.3438 48.3594L35.332 48.3359V48.3008L35.25 47.0938H34.5L34.3359 48.5352ZM88.4961 48.5H87.0195L87.4531 49.8359L86.6562 50.0938L86.3047 50.2109L85.9414 50.1406L84.5 49.9062L83.2109 50H83L82.9883 47L84.4883 46.8945L84.6758 46.8828L84.8516 46.918L86.082 47.1289L86.5391 46.9883L88.4961 46.3555V48.5ZM97.4961 48.5H96.0195L96.4531 49.8359L95.6562 50.0938L95.3047 50.2109L94.9414 50.1406L93.5 49.9062L92.2109 50H92L91.9883 47L93.4883 46.8945L93.6758 46.8828L93.8516 46.918L95.082 47.1289L95.5391 46.9883L97.4961 46.3555V48.5ZM106.496 48.5H105.02L105.453 49.8359L104.656 50.0938L104.305 50.2109L103.941 50.1406L102.5 49.9062L101.211 50H101L100.988 47L102.488 46.8945L102.676 46.8828L102.852 46.918L104.082 47.1289L104.539 46.9883L106.496 46.3555V48.5ZM51.3203 38.1055H52.668L54.0742 38.1172L54.1562 39.5117L54.332 42.1133H54.3203L54.5781 44.7031L54.6016 44.9375L54.5547 45.1602L53.9922 47.7617L53.7227 48.9922L52.4688 48.9453L49.7617 48.8516L48.7539 48.8047L48.4023 47.8555L47.6055 45.6289L47.5352 45.4414L47.5234 45.2305L47.3359 42.5938L47.3242 42.4531L47.3359 42.3125L47.6406 39.6641L47.7461 38.75L48.6016 38.4336L49.4688 38.0938L51.2383 37.4141L51.3203 38.1055ZM60.3203 38.1055H61.668L63.0742 38.1172L63.1562 39.5117L63.332 42.1133H63.3203L63.5781 44.7031L63.6016 44.9375L63.5547 45.1602L62.9922 47.7617L62.7227 48.9922L61.4688 48.9453L58.7617 48.8516L57.7539 48.8047L57.4023 47.8555L56.6055 45.6289L56.5352 45.4414L56.5234 45.2305L56.3359 42.5938L56.3242 42.4531L56.3359 42.3125L56.6406 39.6641L56.7461 38.75L57.6016 38.4336L58.4688 38.0938L60.2383 37.4141L60.3203 38.1055ZM69.3203 38.1055H70.668L72.0742 38.1172L72.1562 39.5117L72.332 42.1133H72.3203L72.5781 44.7031L72.6016 44.9375L72.5547 45.1602L71.9922 47.7617L71.7227 48.9922L70.4688 48.9453L67.7617 48.8516L66.7539 48.8047L66.4023 47.8555L65.6055 45.6289L65.5352 45.4414L65.5234 45.2305L65.3359 42.5938L65.3242 42.4531L65.3359 42.3125L65.6406 39.6641L65.7461 38.75L66.6016 38.4336L67.4688 38.0938L69.2383 37.4141L69.3203 38.1055ZM50.3359 42.5352L50.4883 44.7969L50.875 45.875L51.3203 45.8984L51.5664 44.7734L51.3438 42.3594L51.332 42.3359V42.3008L51.25 41.0938H50.5L50.3359 42.5352ZM59.3359 42.5352L59.4883 44.7969L59.875 45.875L60.3203 45.8984L60.5664 44.7734L60.3438 42.3594L60.332 42.3359V42.3008L60.25 41.0938H59.5L59.3359 42.5352ZM68.3359 42.5352L68.4883 44.7969L68.875 45.875L69.3203 45.8984L69.5664 44.7734L69.3438 42.3594L69.332 42.3359V42.3008L69.25 41.0938H68.5L68.3359 42.5352ZM103.757 35.4033L102.211 35.6992L101.977 35.7461L101.839 35.7256L101.789 35.7344L101.578 35.7109L99.0234 35.3945L98.5938 35.3818L96.7383 35.4883H96.5156L95.5859 35.3926L93.9492 35.5117L93.8906 35.5234H93.832L92.5322 35.5176L91.6406 35.6758L91.3828 35.7227L91.1133 35.6758L89.3672 35.3711L88.5 35.3008L86.3789 35.3818L86.1914 35.3945H86.168L86.1445 35.4062L86.0352 35.4082L83.4258 35.6641L83.2734 35.6758L83.1211 35.6641L81.9375 35.5361L80.8711 35.5703H80.7539L80.6367 35.5586L79.6289 35.4365L79.5234 35.4414L79.4863 36.0762L79.4883 36.0977V36.1797L79.4648 38.8164V38.8281L79.4512 39.4023L79.6875 40.9609L79.9805 41.5352L81.7031 41.5234L84.2227 41.2891L84.3867 41.2773L84.5508 41.3008L87.0703 41.6055L89.6133 41.5703H89.6719L92.3086 41.6289H92.3555L94.8164 41.7578L97.2891 41.3008L97.5234 41.2539L97.7695 41.2891L100.266 41.6406L102.762 41.5117H102.984L105.398 41.7461L107.859 41.3242L108.117 41.2773L109.465 41.5117L109.582 40.5273L109.512 38.0078L109.441 35.8516L109.085 35.4131L107.663 35.3809L107.133 35.418L107.051 35.4297L106.957 35.418L104.508 35.2773L103.757 35.4033ZM88.4961 38.5H87.0195L87.4531 39.8359L86.6562 40.0938L86.3047 40.2109L85.9414 40.1406L84.5 39.9062L83.2109 40H83L82.9883 37L84.4883 36.8945L84.6758 36.8828L84.8516 36.918L86.082 37.1289L86.5391 36.9883L88.4961 36.3555V38.5ZM97.4961 38.5H96.0195L96.4531 39.8359L95.6562 40.0938L95.3047 40.2109L94.9414 40.1406L93.5 39.9062L92.2109 40H92L91.9883 37L93.4883 36.8945L93.6758 36.8828L93.8516 36.918L95.082 37.1289L95.5391 36.9883L97.4961 36.3555V38.5ZM106.496 38.5H105.02L105.453 39.8359L104.656 40.0938L104.305 40.2109L103.941 40.1406L102.5 39.9062L101.211 40H101L100.988 37L102.488 36.8945L102.676 36.8828L102.852 36.918L104.082 37.1289L104.539 36.9883L106.496 36.3555V38.5ZM33.9355 38.4688L33.457 38.667L33.7305 38.6992L35.7549 38.3662L35 38.1162L33.9355 38.4688ZM26.6133 35.4629L25.4395 35.8516L23.332 36.7773L23.1992 36.833L23.0449 36.8799L22.0332 37.1768L22.8896 37.459L22.9893 37.4873L23.0557 37.5186L25.3516 38.4727H25.3291L25.4717 38.5234H25.7383L28.375 38.3359L28.4453 38.3242L28.5273 38.3359L28.9502 38.3467L30.9443 37.5186L31.0107 37.4873L31.1104 37.459L31.9658 37.1768L30.9551 36.8799L30.8008 36.833L30.668 36.7773L28.5605 35.8516L27.2461 35.416L26.6133 35.4629ZM11.4883 36.0977V36.1797L11.4678 38.4404L12.5781 38.3945L12.6836 38.3828L12.8008 38.3945L12.8281 38.3975L14.9443 37.5186L15.0107 37.4873L15.1104 37.459L15.9658 37.1768L14.9551 36.8799L14.8008 36.833L14.668 36.7773L12.5605 35.8516L11.4551 35.4854L11.4883 36.0977ZM18.1191 38.4072L19.6895 38.3447L18.999 38.1162L18.1191 38.4072ZM41.4395 35.8516L39.332 36.7773L39.1992 36.833L39.0449 36.8799L38.0332 37.1768L38.8896 37.459L38.9893 37.4873L39.0557 37.5186L40.9307 38.2979L41.5186 38.2578L41.5117 38.0078L41.4414 35.8516L41.4404 35.8506L41.4395 35.8516ZM18.4102 35.3799L18.1914 35.3945H18.168L18.1445 35.4062L18.0234 35.4092L16.9502 35.5137L17.6484 35.8242L19 36.2188L20.3516 35.8242L21.3691 35.3711L21.3584 35.3701L20.5 35.3008L18.4102 35.3799ZM35.8047 35.3945L34.2109 35.6992L33.9766 35.7461L33.8369 35.7256L33.7891 35.7344L33.5781 35.7109L33.3213 35.6787L33.6484 35.8242L35 36.2188L36.3516 35.8242L37.459 35.3311L36.5078 35.2773L35.8047 35.3945ZM21.7305 23.582H21.6367L19 23.6875L18.9062 23.6992L18.8242 23.6875L16.1875 23.4883V23.4766H13.75L11.875 23.6055L11.5352 24.1328L11.3008 26.2305L11.6992 28.6562L11.7227 28.8203L11.7109 28.9844L11.5703 31.5391L11.6055 32.4062L11.7822 32.4268L12.5781 32.3945L12.6836 32.3828L12.8008 32.3945L14.0195 32.5264L15.4141 32.4883L18.0039 32.4062L20.6523 32.2422L20.8281 32.2305L21.0039 32.2656L21.7432 32.3926L23.3125 32.5117L23.3008 32.5234H24.2666L25.7617 32.2656L25.9609 32.2305L26.1602 32.2422L27.6738 32.3848L28.375 32.3359L28.4453 32.3242L28.5273 32.3359L30.4355 32.3867L31.2227 32.3477L31.3633 32.3359L31.5156 32.3594L33.8164 32.6846L35.7158 32.3721L36.3086 32.2656L36.4844 32.2305L36.6602 32.2422L39.2969 32.3711H39.2852L39.7412 32.3799L41.1807 32.2812L41.4414 31.9258L41.6992 29.8047L41.4766 27.3555V27.2266L41.4531 24.5898L41.4414 23.4883L40.375 23.6523L40.2227 23.6406L37.5859 23.5117V23.5H37.4775L37.4766 23.7383L37.6641 26.375L37.7578 27.6055L36.5625 27.9336L34.2656 28.543L33.9961 28.6133L33.7031 28.5898L31.0664 28.2734L30.6328 28.2266L30.293 27.9453L28.8398 26.7617L28.2422 26.2812L28.2891 25.5195L28.3975 23.5439L26.9219 23.6055L26.8164 23.6172L26.6992 23.6055L24.2031 23.3359L21.7305 23.582ZM55.7305 23.582H55.6367L53 23.6875L52.9062 23.6992L52.8242 23.6875L50.1875 23.4883V23.4766H47.75L45.875 23.6055L45.5352 24.1328L45.3008 26.2305L45.6992 28.6562L45.7227 28.8203L45.7109 28.9844L45.5703 31.5391L45.6055 32.4062L45.7822 32.4268L46.5781 32.3945L46.6836 32.3828L46.8008 32.3945L48.0195 32.5264L49.4141 32.4883L52.0039 32.4062L54.6523 32.2422L54.8281 32.2305L55.0039 32.2656L55.7432 32.3926L57.3125 32.5117L57.3008 32.5234H58.2666L59.7617 32.2656L59.9609 32.2305L60.1602 32.2422L61.6738 32.3848L62.375 32.3359L62.4453 32.3242L62.5273 32.3359L64.4355 32.3867L65.2227 32.3477L65.3633 32.3359L65.5156 32.3594L67.8164 32.6846L69.7158 32.3721L70.3086 32.2656L70.4844 32.2305L70.6602 32.2422L73.2969 32.3711H73.2852L73.7412 32.3799L75.1807 32.2812L75.4414 31.9258L75.6992 29.8047L75.4766 27.3555V27.2266L75.4531 24.5898L75.4414 23.4883L74.375 23.6523L74.2227 23.6406L71.5859 23.5117V23.5H71.4873L71.4766 25.8438V26.5L70.9844 26.9453L69.5312 28.2812L69.0859 28.6914L68.4766 28.668L65.8398 28.5977L65.5 28.5859L65.1953 28.4336L63.5312 27.5781L62.8633 27.2266L62.7344 26.4883L62.3008 23.8398L62.2773 23.6875L62.2871 23.5488L60.9219 23.6055L60.8164 23.6172L60.6992 23.6055L58.2031 23.3359L55.7305 23.582ZM89.7305 23.582H89.6367L87 23.6875L86.9062 23.6992L86.8242 23.6875L84.1875 23.4883V23.4766H81.75L79.875 23.6055L79.5352 24.1328L79.3008 26.2305L79.6992 28.6562L79.7227 28.8203L79.7109 28.9844L79.5703 31.5391L79.6055 32.4062L79.7822 32.4268L80.5781 32.3945L80.6836 32.3828L80.8008 32.3945L82.0195 32.5264L83.4141 32.4883L86.0039 32.4062L88.6523 32.2422L88.8281 32.2305L89.0039 32.2656L89.7432 32.3926L91.3125 32.5117L91.3008 32.5234H92.2666L93.7617 32.2656L93.9609 32.2305L94.1602 32.2422L95.6738 32.3848L96.375 32.3359L96.4453 32.3242L96.5273 32.3359L98.4355 32.3867L99.2227 32.3477L99.3633 32.3359L99.5156 32.3594L101.816 32.6846L103.716 32.3721L104.309 32.2656L104.484 32.2305L104.66 32.2422L107.297 32.3711H107.285L107.741 32.3799L109.181 32.2812L109.441 31.9258L109.699 29.8047L109.477 27.3555V27.2266L109.453 24.5898L109.441 23.4883L108.375 23.6523L108.223 23.6406L105.586 23.5117V23.5H105.478L105.477 23.7383L105.664 26.375L105.758 27.6055L104.562 27.9336L102.266 28.543L101.996 28.6133L101.703 28.5898L99.0664 28.2734L98.6328 28.2266L98.293 27.9453L96.8398 26.7617L96.2422 26.2812L96.2891 25.5195L96.3975 23.5439L94.9219 23.6055L94.8164 23.6172L94.6992 23.6055L92.2031 23.3359L89.7305 23.582ZM23.0234 27.3984L23.1055 27.4922L22.0039 28.5L21.9336 28.5703L22.0625 29.9062L19.4258 30.1641L19.2734 30.1758L19.1211 30.1641L16.625 29.9062L14.1641 30H14V27H14.0352L16.5781 26.8945L16.6836 26.8828L16.8008 26.8945L19.2852 27.1641L21.7695 26.918L22.5195 26.8477L23.0234 27.3984ZM57.0234 27.3984L57.1055 27.4922L56.0039 28.5L55.9336 28.5703L56.0625 29.9062L53.4258 30.1641L53.2734 30.1758L53.1211 30.1641L50.625 29.9062L48.1641 30H48V27H48.0352L50.5781 26.8945L50.6836 26.8828L50.8008 26.8945L53.2852 27.1641L55.7695 26.918L56.5195 26.8477L57.0234 27.3984ZM91.0234 27.3984L91.1055 27.4922L90.0039 28.5L89.9336 28.5703L90.0625 29.9062L87.4258 30.1641L87.2734 30.1758L87.1211 30.1641L84.625 29.9062L82.1641 30H82V27H82.0352L84.5781 26.8945L84.6836 26.8828L84.8008 26.8945L87.2852 27.1641L89.7695 26.918L90.5195 26.8477L91.0234 27.3984ZM65.3828 17.4766L65.2539 18.4141L65.418 20.8633L65.4297 20.9453L65.418 21.0391L65.2773 23.4883L65.5703 25.2461L66.2617 25.5977L67.9492 25.6445L68.4766 25.1758L68.4883 23.1953V23.0781L68.6875 20.5L68.6055 18.2852L68.2656 17.5703L66.5781 17.3828L65.3828 17.4766ZM31.5 15.4648L31.5703 17.6328V17.75L31.5586 17.8672L31.2539 20.3984L31.418 22.8594L31.4297 22.9531L31.418 23.0352L31.3125 24.9102L31.8398 25.3438L33.7734 25.5664L34.582 25.3438L34.4883 23.9492L34.4766 23.8906V23.832L34.4883 21.1953V21.0781L34.6875 18.5L34.6055 16.2852L34.2656 15.5703L32.5781 15.3828L31.5 15.4648ZM99.5 15.4648L99.5703 17.6328V17.75L99.5586 17.8672L99.2539 20.3984L99.418 22.8594L99.4297 22.9531L99.418 23.0352L99.3125 24.9102L99.8398 25.3438L101.773 25.5664L102.582 25.3438L102.488 23.9492L102.477 23.8906V23.832L102.488 21.1953V21.0781L102.688 18.5L102.605 16.2852L102.266 15.5703L100.578 15.3828L99.5 15.4648Z" fill="black"/>
</svg>
