<svg width="120" height="120" viewBox="0 0 120 120" fill="none" xmlns="http://www.w3.org/2000/svg">
<path d="M52.9668 8.40918H55.6973V8.57324L55.6855 8.63184L55.4863 11.0811L55.6152 13.624H55.6035L55.791 16.2256L55.8027 16.2725V16.3193L55.8145 18.9561L55.8262 19.0615L55.8027 19.1553L55.498 21.5459L55.7373 22.6543L55.9453 22.6289L56.4609 23.1797L58.2305 25.0781L58.7227 25.5938L58.6172 26.3086L58.2422 28.8047V31.4062L58.4648 33.9023V33.9141L58.6758 36.5508L58.6875 36.6562L58.6758 36.7734L58.5693 38.4092L60.9551 38.623L61.0371 38.6348L61.1074 38.6465L63.6152 39.1387L64.5996 39.3262L64.7988 40.3105L65.3145 42.8301L65.3379 42.9707L65.3496 43.1113L65.3848 45.6777L65.5488 48.3262L65.5605 48.502L65.5254 48.6895L65.1855 50.5176L66.0293 51.291L67.998 51.4199L70.6465 51.3379L71.748 51.3027L72.1113 52.3457L72.9316 54.666L72.9785 54.8066L73.002 54.959L73.3652 57.584V57.666L73.5879 60.3027L73.5996 60.4551L73.5879 60.6074L73.2715 63.1152L73.3535 65.6582V65.7402L73.3184 68.377L73.3066 71.002V71.0137L73.248 73.5098L73.459 76.1465V76.1934L73.4707 76.2285L73.541 78.8652V78.9941L73.4004 81.6309L73.3301 84.2207V84.3145L73.1074 86.9512L73.1895 89.4238V89.5059L73.1309 92.1426L73.1191 94.6387L73.2949 97.2871L73.3066 97.4277L73.2949 97.5801L72.9668 100.123L72.9551 102.678L73.1074 105.221V105.244L73.2129 107.881L73.2246 107.975L73.2129 108.068L73.0137 110.482L73.0254 110.494L73.0137 110.6L71.5254 110.588L70.0254 110.576V110.365L70.2246 107.881L70.1074 105.396L69.9551 102.748V102.654L69.9785 100.018V99.9238L69.9902 99.8418L70.2949 97.3691L70.1191 94.8496V94.7441L70.126 93.0322L68.458 93.1729L68.3174 93.1846L68.165 93.1729L65.6338 92.8916L63.0557 92.9033V92.8916L60.5127 93.0674H60.501L60.4893 93.0791L57.8408 93.1963L57.7471 93.208L57.665 93.1963L56.0088 93.0742L56.0205 93.2666L56.2783 95.833L56.3018 95.9971L56.2783 96.1494L55.9736 98.7041L56.126 101.177V101.353L55.9736 103.896L56.2432 106.392L56.2666 106.626L56.2197 106.86L55.7041 109.239L55.8096 110.458L54.3799 110.575L54.2979 112.087L54.2275 112.075L52.9268 112.005L52.8213 110.704L52.7041 109.31L52.6807 109.087L52.7275 108.876L53.2314 106.462L52.9736 104.06L52.9619 103.942L52.9736 103.813L53.126 101.247L52.9854 98.7041L52.9736 98.5752L52.9854 98.4463L53.2783 95.9854L53.0322 93.4893L53.0205 93.4541V93.4189L52.8799 90.7822V90.6299L52.9033 90.4893L53.2666 87.9463L53.2197 85.4502V85.3916L53.2666 82.7783L53.2783 80.1416V80.1182L53.3135 77.6338L53.0791 74.9971L53.0674 74.9619V74.9268L52.9619 72.2783V72.1611L53.0674 69.5244L53.0908 66.9346V66.8525L53.2549 64.2744L53.1143 61.7432L53.1025 61.708V59.0596L53.0439 56.4111L53.0557 56.3994L52.7979 53.8916L52.7861 53.7393L52.7979 53.5986L53.0557 51.0674L53.0205 48.4775L53.0322 48.4658L52.833 45.9346V45.8994L52.6924 43.2627V43.0752L52.8037 41.5527L50.4199 41.2598L48.3105 41.4238L47.0215 42.0918L46.7051 43.7676L46.2246 46.2051L46.4824 48.6074L46.4941 48.748L46.4824 48.8887L46.2832 51.3379L46.623 53.8457L46.6465 54.0449L46.623 54.2441L46.2832 56.7871L46.2715 59.2129L46.7051 61.709L46.7285 61.8262V61.9434L46.7754 64.5801V64.6973L46.7637 64.8027L46.4473 67.2168L46.6465 69.7715V69.9824L46.4941 72.5254L46.6113 75.1152V75.2324L46.5059 77.7285L46.6699 80.3652V80.4824L46.6582 80.5996L46.4121 83.1309L46.3535 85.7793L46.3652 88.2402L46.6113 90.877V90.9121L46.7988 93.5488L46.8105 93.6543L46.7988 93.748L46.6465 96.3848L46.752 98.8926V99.0215L46.7285 99.1504L46.3652 101.646L46.541 104.084L46.7754 106.744L46.7871 106.861V106.99L46.5879 109.533L46.6465 110.494L45.1582 110.588L43.6582 110.682L43.5879 109.604V109.404L43.7871 106.826L43.5527 104.354V104.318L43.377 101.693L43.3652 101.541L43.3887 101.389L43.752 98.8457L43.6582 96.3496L43.6465 96.2793L43.6582 96.209L43.8105 93.6777L43.623 91.1582L43.377 88.5215L43.3652 88.4512V88.3926L43.3623 87.8867L41.752 87.8799V87.8682L39.209 88.0205H39.1973L39.1855 88.0322L36.5488 88.1377H36.4434L33.7949 88.0674L33.7012 88.0557L33.5957 88.0439L32.6016 87.8799L32.6719 89.3994V89.4814L32.6484 92.1182L32.6719 94.626L32.8828 97.2627L32.8945 97.415L32.8828 97.5557L32.5898 100.192L32.6016 102.571L32.7773 105.208V105.243L32.9062 107.88V107.974L32.8945 108.067L32.707 110.481L32.7188 110.587H29.7188V110.376L29.8945 107.903L29.7773 105.407L29.6016 102.771V102.677L29.5898 100.028V99.9463L29.6016 99.8643L29.8828 97.3916L29.6836 94.8721L29.6719 94.8135V94.7666L29.6484 92.1182V92.0947L29.6719 89.5283L29.5547 86.8916V86.7275L29.7422 84.0791L29.7656 81.5361V81.4893L29.8711 78.9697L29.7656 76.4033L29.5312 73.7666L29.5195 73.6846V73.6143L29.543 70.9893V68.3291L29.5781 65.751L29.4844 63.1143V63.0088L29.4961 62.8916L29.8008 60.3252L29.6016 57.8994V57.8877L29.2617 55.3447V55.333L29.1211 54.5127L27.832 54.5947H27.668L25.1367 54.4541L22.6523 54.7822H22.5703L22.4883 54.7939L20.4844 54.8174L19.1836 56.3525H19.1719L19.1602 56.3643L17.4141 58.3447V58.3564L15.6562 60.3252L15.6445 60.3135L14.1797 61.9893L13.7578 63.9697L13.4531 66.3955L13.9102 68.7861L13.957 69.0205L13.9336 69.2666L13.5703 71.833L13.4648 74.2119L13.8867 76.7432L13.9102 76.8604V76.9775L13.9219 79.626V79.7666L13.8867 79.9189L13.3945 82.333L13.6406 84.7588L13.6523 84.8994L13.6406 85.0283L13.4297 87.5244L13.7578 89.9854L13.793 90.1846L13.7578 90.3838L13.4062 92.9385L13.3828 95.3525L13.8164 97.8486L13.8398 98.083L13.875 100.72V100.825L13.8633 100.931L13.5469 103.356L13.7461 105.899L13.7578 106.005V106.099L13.6172 108.665L13.7344 111.231V112.954L13.7275 114.533L15.8164 114.395H15.9102L18.5469 114.383L18.6406 114.371L18.7227 114.383L21.2305 114.664L23.7148 114.453L23.7617 114.441H23.8203L26.4688 114.418H26.4922L29.0469 114.43L31.6953 114.312L31.7773 114.301L31.8594 114.312L34.5078 114.488L34.4961 114.5L37.0508 114.512H37.0977L39.6875 114.617L42.1836 114.535L44.832 114.289H44.9844L47.6211 114.336L47.6094 114.348H50.2695L52.8711 114.406L55.4844 114.348H55.6133L55.7305 114.359L58.2148 114.723L60.7109 114.559V114.57L63.2891 114.289L63.4414 114.277L63.6055 114.289L66.0898 114.582L68.6328 114.43L68.7148 114.418L68.7969 114.43L71.3281 114.559L73.8242 114.266L74.0586 114.23L74.2812 114.277L76.7305 114.734L79.1797 114.582L79.2266 114.57H79.2617L81.8867 114.559V114.547L84.5234 114.488L87.1602 114.418H87.1953L89.832 114.406H89.9375L90.0312 114.418L92.4219 114.734L94.8359 114.266L95.082 114.219L95.3164 114.254L97.8945 114.605L100.273 114.711L102.793 114.277L102.91 114.266H103.027L105.664 114.242H105.816L105.969 114.266L108.406 114.746L110.809 114.5L110.891 114.488H110.973L112.016 114.5L112.004 116L111.98 117.5L110.984 117.488L108.477 117.746L108.254 117.77L108.031 117.734L105.57 117.242L103.145 117.254L100.648 117.688L100.496 117.711L100.332 117.699L97.6953 117.594H97.625L97.5547 117.582L95.1523 117.242L92.7617 117.711L92.5273 117.758L92.293 117.734L89.7383 117.406L87.207 117.418L87.1953 117.406L84.6055 117.488H84.5938L81.957 117.547H81.9336L79.3672 117.559L79.3789 117.57L76.7422 117.746L76.5547 117.758L73.9297 117.266L71.5391 117.547L71.4102 117.559H71.2812L68.7266 117.418L66.1719 117.582H66.043L65.9141 117.57L63.418 117.289L60.957 117.559H60.8867L58.25 117.711L58.0977 117.723L57.957 117.699L55.4141 117.348L52.9062 117.406H52.8477L50.2109 117.348V117.336H47.5742L44.9492 117.289L42.4531 117.512L42.418 117.523H42.3711L39.7344 117.617H39.6172L36.9805 117.512V117.5L34.3906 117.488H34.3438L34.2969 117.477L31.7188 117.301L29.1875 117.43H29.1055L26.4688 117.418V117.406L23.9609 117.43L21.3242 117.664L21.1836 117.676L21.0312 117.664L18.5 117.383L15.9219 117.395V117.383L13.3789 117.559H13.3672L13.3555 117.57L10.707 117.688L10.6133 117.699L10.5312 117.688L7.98828 117.5L8 117.277V114.5H8.21094L10.6719 114.699L11.9512 114.639L11.2969 114.114L11.1797 114.021L11.9883 113.013V112.942H10.7344V111.302H10.7461L10.6172 108.735V108.583L10.7578 106.063L10.5469 103.509L10.5352 103.356L10.5469 103.192L10.875 100.649L10.8516 98.2939L10.4062 95.7158L10.3828 95.5869V95.4463L10.418 92.8096V92.7158L10.4297 92.6221L10.7695 90.2197L10.4414 87.7471L10.418 87.583L10.4297 87.4189L10.6406 84.8994L10.3945 82.415L10.3711 82.1924L10.418 81.9697L10.9219 79.4502V77.165L10.4883 74.5869L10.4648 74.4346V74.2822L10.582 71.6455L10.5938 71.5752V71.5049L10.9336 69.1025L10.4648 66.7119L10.418 66.4775L10.4531 66.2314L10.7812 63.5947L10.793 63.5361L10.8047 63.4658L11.3438 60.9932L11.4258 60.6064L11.6719 60.3135L13.4062 58.333L13.418 58.3213L16.9102 54.3838L18.6445 52.3564L19.0781 51.8291H19.7578L22.3477 51.8057L24.9141 51.4658L25.043 51.4541H25.1836L27.7383 51.5947L30.293 51.4541L31.6406 51.3721L31.8633 52.6963L32.2266 54.8994L32.2383 54.9346V54.958L32.5781 57.5947L32.5898 57.6299V57.665L32.8008 60.3018L32.8125 60.4541L32.8008 60.6064L32.4844 63.1143L32.5781 65.6572V65.7275L32.543 68.3643V71.001L32.5195 73.4854L32.7539 76.1338L32.7656 76.1689V76.2041L32.8711 78.8408V78.9697L32.7656 81.6064L32.7422 84.1963V84.2432L32.7305 84.29L32.6914 84.8516L34.041 85.0791L36.4551 85.1377L39.0332 85.0439V85.0322L41.6699 84.8799H41.7637L43.375 84.8867L43.4238 83.0605V82.9551L43.6699 80.4004L43.5059 77.9043V77.7637L43.6113 75.2324L43.5059 72.5957L43.4941 72.5254L43.5059 72.4551L43.6465 69.8418L43.4355 67.3691L43.4238 67.2168L43.4473 67.0645L43.7754 64.5215L43.7402 62.0957L43.2949 59.5879L43.2715 59.4473V59.3184L43.2949 56.6699V56.5879L43.3066 56.4941L43.623 54.0449L43.2832 51.6191L43.2598 51.4551L43.2832 51.291L43.4824 48.7598L43.2246 46.2637L43.2012 46.041L43.2363 45.8301L43.7637 43.1934L44.2207 40.8145L44.3496 40.0996L45.0059 39.7598L47.209 38.623L47.4902 38.4824L47.7832 38.459L49.9951 38.2891L49.957 37.2656V37.1602L50.0391 34.5703L50.0273 31.9336V31.8281L50.2031 29.1914L50.1445 26.6836L50.1328 26.25L50.3555 25.8867L51.6328 23.7422L52.0078 23.1094L52.7344 23.0273L52.752 23.0244L52.5215 21.9209L52.4746 21.6748L52.498 21.4287L52.8145 18.874L52.8027 16.4365L52.6152 13.7998V13.7529L52.498 11.1162L52.4863 11.0225L52.498 10.9287L52.6973 8.38574L52.9668 8.40918ZM91.1699 41.3281L93.1152 42.6172L93.9004 43.1445L93.7832 44.0703L93.4551 46.4844L93.9004 48.8984L93.9473 49.1328L93.9121 49.3789L93.5371 51.8633L93.5488 51.875L93.4463 53.8545L95.4189 53.9766L97.9736 53.8477L98.1494 53.8359L98.3135 53.8711L100.704 54.3047L101.642 54.4688L101.888 55.3828L102.591 57.9492L102.638 58.1367V58.3242L102.649 60.9141L102.954 63.457L102.966 63.5508V63.6445L102.907 66.293V66.375L102.72 69.0117L102.626 71.5898V71.6836L102.614 71.7656L102.228 74.3789L102.099 76.875V76.8984L102.032 77.8252L103.895 77.9219L106.461 77.8047L106.871 77.7812L107.234 77.9805L109.344 79.1172L110.105 79.5273L110.129 80.3945L110.211 83.043V83.1484L110.199 83.2539L109.93 85.7383L110.141 88.2461L110.152 88.3047V88.3516L110.176 91V91.0234L110.164 93.6602L110.281 96.2266V96.3906L110.105 99.0391L110.082 101.582V101.629L109.965 104.277L110.07 106.797L110.293 109.363L110.316 109.574L110.27 109.773L110.059 110.875L108.582 110.582L107.117 110.301L107.281 109.422L107.07 106.984V106.902L106.965 104.266V104.148L107.082 101.512L107.105 98.9219V98.8281L107.281 96.3672L107.164 93.7188V93.6484L107.176 91.0352L107.152 88.5039L106.93 85.8672L106.918 85.7148L106.93 85.5742L107.211 83.043L107.152 81.332L106.168 80.8047L103.953 80.9102L103.883 80.9219L103.812 80.9102L101.911 80.8145V81.9375L102.134 84.5742L102.146 84.6211V84.6797L102.192 87.3164V87.3633L102.169 90V90.0352L102.087 92.6719L102.169 95.2148V95.3438L102.157 95.4609L101.806 97.957L101.958 100.395L102.239 103.031L102.251 103.195L102.239 103.348L101.958 105.82L102.134 108.363V108.504L102.075 111.152L99.0869 111.305L99.0518 111.047L98.9932 111.059L98.958 110.25L99.0869 110.238L99.1338 108.434L98.958 105.938L98.9463 105.797L98.9697 105.668L99.2275 103.184L98.9697 100.711V100.641L98.8057 97.9922V97.8516L98.8174 97.7109L99.1572 95.168L99.0869 92.6719V92.5781L99.1689 89.9414L99.1924 87.375L99.1455 84.832L98.9229 82.1953L98.9111 82.1367V79.3711L98.9229 79.3242L99.0986 76.6992L99.251 74.0742V74.0039L99.2627 73.9453L99.626 71.4727L99.7197 68.8477V68.8242L99.7314 68.7891L99.9072 66.2344L99.9658 63.6445L99.6729 61.1602L99.6611 61.0898V61.0078L99.6377 58.5234L99.2393 57.082L97.9502 56.8477L95.4775 56.9766H95.4072L95.3252 56.9648L93.833 56.8818L93.8418 56.9609V57.0781L93.8535 59.7148V59.8672L93.8301 60.0195L93.3379 62.4219L93.584 64.8477L93.6074 64.9883L93.5957 65.1289L93.3848 67.6133L93.7246 70.0742L93.748 70.2734L93.7246 70.4727L93.3848 73.0273L93.373 75.4531L93.8066 77.9492L93.8301 78.0547V78.1719L93.877 80.8086V80.9258L93.8652 81.0312L93.5488 83.5391L93.7598 86V86.1992L93.6191 88.7539L93.7246 91.3438V91.4609L93.6309 93.9453L93.7832 96.5938L93.7949 96.7109L93.7832 96.8164L93.5371 99.3477L93.5488 99.3594L93.4785 101.996L93.4902 104.598L93.7246 107.105V107.141L93.9121 109.777L93.9238 110.047L93.8535 110.305L93.6426 111.008L92.2012 110.586L90.7715 110.164L90.8887 109.719L90.7363 107.375L90.4902 104.738V104.609L90.4785 101.973V101.926L90.5488 99.2891V99.1836L90.7832 96.6289L90.6309 94.1328V93.9922L90.7246 91.4609L90.6191 88.8242V88.6836L90.748 86.0703L90.5488 83.6094L90.5371 83.4453L90.5605 83.293L90.8652 80.7617L90.8301 78.3242L90.3965 75.8164L90.373 75.6875V75.5469L90.3965 72.9102V72.8164L90.4082 72.7227L90.7246 70.2383L90.3965 67.8477L90.373 67.6836L90.3848 67.5195L90.5957 64.9883L90.3379 62.5156L90.3145 62.293L90.3613 62.0703L90.8418 59.6094V57.1836L90.4316 54.6875L90.4082 54.5234L90.4199 54.3711L90.5488 51.7344V51.6641L90.5605 51.5938L90.9004 49.168L90.4668 46.7891L90.4316 46.5547L90.4551 46.332L90.6777 44.5977L89.9395 44.1055L87.8418 44.3047H87.6895L85.0527 44.2578H85.0293L82.4395 44.1641L80.5059 44.3516L79.6855 45.1602L79.791 47.1406L79.8027 47.2227L79.791 47.3047L79.6621 49.8477L79.8145 52.4141L79.8262 52.543L79.8027 52.6719L79.5215 55.1562L79.7793 57.6289L79.791 57.6641V57.6992L79.9434 60.3359L79.9551 60.4883L79.9316 60.6406L79.5684 63.1719L79.627 65.6797V65.7383L79.5684 68.3867L79.5449 71V71.0117L79.498 73.4961L79.7207 76.1328L79.7324 76.1797V76.2148L79.8262 78.8516V78.9688L79.709 81.5469L79.7207 81.5586L79.6855 84.207V84.2891L79.498 86.8555L79.627 89.3984V89.4805L79.6035 92.1172L79.627 94.625L79.8496 97.2617L79.8613 97.4023L79.8496 97.5547L79.5566 100.191L79.5684 102.57L79.7441 105.207V105.242L79.873 107.879V107.973L79.8613 108.066L79.6738 110.598L79.5098 110.586H76.6738V110.375L76.873 107.902L76.7441 105.406L76.5801 102.77L76.5684 102.723V102.676L76.5566 100.027V99.9453L76.5684 99.8633L76.8496 97.3438L76.6387 94.8711V94.8125L76.627 94.7656L76.6035 92.1172V92.0938L76.627 89.5391L76.5098 86.8906L76.498 86.8086L76.5098 86.7266L76.6855 84.0781L76.7207 81.5352V81.4883L76.8262 78.957L76.7324 76.4023L76.5098 73.7539L76.498 73.6836V73.6016L76.5449 70.9648L76.5684 68.3398V68.3164L76.627 65.7383L76.5684 63.1016V62.9727L76.5918 62.8555L76.9434 60.3594L76.791 57.875L76.8027 57.8633L76.5215 55.2969L76.5098 55.1445L76.5215 54.9805L76.8145 52.4844L76.6621 49.9531V49.7891L76.8027 47.2227L76.6504 44.6445L76.6152 43.9648L77.1074 43.4844L78.7949 41.8438L79.1699 41.4688L79.6973 41.4219L82.2988 41.1758L82.3926 41.1641H82.498L85.1348 41.2578L85.123 41.2695L87.7129 41.3047L90.209 41.082L90.7246 41.0352L91.1699 41.3281ZM65.7852 72.5898L65.7969 72.6016L63.1602 72.8125L63.125 72.8242H63.0781L60.4414 72.8828L60.3477 72.8945L60.2539 72.8828L57.7109 72.6133L55.9814 72.7432L56.0674 74.7275L56.3018 77.3643L56.3135 77.4463V77.5166L56.2783 80.165L56.2666 82.79V82.8135L56.2197 85.4502L56.2666 88.04V88.1572L56.2549 88.2744L55.9863 90.0605L57.8057 90.208L60.3135 90.0908V90.0791L62.9502 89.9033H63.0439L65.6807 89.8916L65.7744 89.8799L65.8564 89.8916L68.3643 90.1729L70.1777 90.0186L70.1895 89.5176L70.1074 86.8691V86.7871L70.1191 86.7051L70.3301 84.1504L70.4004 81.5137V81.4668L70.541 78.8301L70.4707 76.3926L70.2598 73.7559L70.248 73.6738V73.6035L70.2676 72.6934L68.3047 72.4727L65.7852 72.5898ZM55.6924 43.2158L55.8213 45.7119L56.0205 48.3486V48.4424L56.0557 51.0791V51.2549L55.7979 53.7393L56.0322 56.2354L56.0439 56.2939V56.3525L56.1025 58.9893V61.5791L56.2432 64.2158L56.2549 64.3096L56.2432 64.3916L56.0791 66.9463L56.0674 69.5947V69.6416L56.0635 69.7373L57.6523 69.625L57.7812 69.6133L57.9102 69.625L60.418 69.8828L62.9141 69.8359V69.8242L65.5508 69.6016H65.5977L68.2461 69.4727H68.3633L68.4805 69.4844L70.3115 69.6787L70.3184 68.3418V68.3301L70.3535 65.7637L70.2715 63.1152V63.0098L70.2832 62.8926L70.5762 60.3613L70.377 57.9121V57.9004L70.0371 55.5098L69.6387 54.3613L68.0918 54.4199L68.0215 54.4316L67.9512 54.4199L65.3145 54.2559L64.7871 54.2324L64.4004 53.8691L62.5488 52.1816L61.9395 51.6309L62.0918 50.8105L62.5371 48.291L62.3848 45.877V45.7949L62.3496 43.334L62.0566 41.8809L60.5332 41.5996V41.5879L58.0605 41.377V41.3652L55.8438 41.2178L55.6924 43.2158ZM53.8242 25.9102L53.1445 27.0469L53.2031 29.25V29.3789L53.0273 32.0273L53.0391 34.5586V34.6172L52.957 37.2539L53.0078 38.5625L53.0215 38.5645L55.2949 38.2129L55.459 38.1777L55.5811 38.1855L55.6758 36.668L55.4766 34.1719L55.2422 31.5352V31.3945L55.2539 28.7461V28.6406L55.2656 28.5352L55.5469 26.5898L54.7969 25.793L53.8242 25.9102Z" fill="black"/>
</svg>
