<svg width="120" height="120" viewBox="0 0 120 120" fill="none" xmlns="http://www.w3.org/2000/svg">
<path d="M57.8247 6.52344L60.3911 7.20312L60.3794 7.21484L62.9575 7.88281L63.1567 7.92969L63.3208 8.02344L65.5239 9.28906L67.9028 10.25L70.3521 11.2344L72.7896 12.1484L72.9653 12.207L73.106 12.3125L75.1099 13.6602L77.4536 14.2578L77.6528 14.3047L77.8286 14.4102L80.0435 15.6641L82.3989 16.5781L82.5513 16.6367L82.6802 16.7188L84.7661 18.0898L87.1333 18.957L87.4966 19.0859L87.7427 19.3672L89.5239 21.3945L89.6763 21.5703L89.77 21.7695L90.8481 24.207L90.9302 24.3711L90.9536 24.5469L91.4224 27.1602L91.4575 27.3477L91.4458 27.5234L91.3286 29.2344L92.8872 30.0078L93.0278 30.0781L93.1567 30.1836L95.2192 31.8242L95.5239 32.0703L95.6763 32.4453L96.6372 34.8477L96.6724 34.9531L96.6958 35.0586L97.3052 37.6133L97.3755 37.9062L97.3286 38.2109L96.9067 40.6484L97.0239 43.0156L97.2349 45.6523L97.2466 45.7109V45.7695L97.2583 48.4062V48.5117L97.2466 48.6172L96.9067 51.0195L97.3521 53.4219L97.3989 53.6797L97.3638 53.9375L96.9419 56.5742L96.8013 58.7656L97.3755 61.2148L97.4224 61.3789V61.5664L97.3989 64.2031V64.3086L97.3872 64.4141L97.0122 66.9102L97.1528 69.3945V69.4648L97.1763 72.1016V72.1484L97.106 74.7852V74.8203L97.0005 77.4453L96.9888 77.6445L96.9302 77.8438L96.1216 80.293L96.0747 80.4336L96.0044 80.5625L94.7036 82.8594L94.5161 83.1992L94.1763 83.3984L92.2896 84.5469L91.6333 85.9883L91.3755 88.3555L91.4575 90.8398V90.875L91.4692 93.4414L91.5981 96.0898V96.1953L91.5513 98.832L91.4927 101.469L91.4575 104.094L91.5513 106.672L91.6333 109.309L91.645 109.602L91.5513 109.871L90.6489 112.344L90.2974 113.328H86.1958L85.8794 113.152L83.8755 112.109L83.1138 111.723L83.0669 110.855L82.938 108.336L82.6685 105.688L82.6567 105.617V102.793L82.8442 100.156L82.9146 97.5664L82.9614 94.9531L83.02 92.3867L82.9263 89.75V89.6797L82.9731 87.1133L82.9028 85.1914L81.2622 84.1836L81.1567 84.125L81.063 84.043L79.0356 82.2852L78.7778 82.0625L78.6372 81.7461L77.5825 79.2852L77.5122 79.1094L77.4771 78.9219L77.0786 76.2969L77.0669 76.1562V76.0156L77.1606 73.4727L77.0669 70.9414L77.0552 70.8359L77.0669 70.7305L77.3247 68.2695L77.1138 65.7383L77.1021 65.6562V65.5742L77.1606 62.9727L77.1372 60.3359V60.3008L77.1724 57.6641V57.582L77.3247 55.0508L77.0552 52.6836L77.0317 52.4961L77.0552 52.3203L77.3833 49.7188V47.3047L77.1724 44.668V44.6445L76.9849 42.0078V39.2773L76.9614 36.6289L76.9497 36.2656L77.1138 35.9492L78.2739 33.5586L78.3325 33.4531L78.4028 33.3477L79.9028 31.2383L80.1138 30.9453L80.4302 30.7812L82.2231 29.8438L82.7388 28.5078L82.3755 27.0078L80.6997 25.9648L80.6763 25.9414L80.6411 25.918L78.6138 24.5234L76.3052 23.7969L76.188 23.7617L76.0708 23.7031L73.7622 22.5078L71.4653 21.418L69.0278 20.6328L68.8872 20.5859L68.77 20.5156L66.4497 19.2266V19.2148L64.1528 18.1719L64.1177 18.1484L64.0708 18.125L61.8794 16.9414L59.4888 16.3086L59.395 16.2852L57.0278 15.4766L54.7427 15.0781L52.7856 15.3594L51.4263 16.5195L50.9458 18.4297L50.8989 20.9258L50.9692 23.4922V23.7148L50.9106 23.9375L50.4653 25.5195L49.2231 25.168L49.188 26.6211H48.9771L47.0669 26.5508L47.5825 24.7227L47.9575 23.3164L47.8989 20.9375V20.8672L47.9458 18.2305V18.0664L47.9927 17.9023L48.6255 15.3359L48.7427 14.8672L49.1177 14.5508L51.1685 12.8047L51.4966 12.5234L51.9185 12.4648L54.5669 12.0781L54.813 12.043L55.0474 12.0781L57.6489 12.5352L57.7661 12.5586L57.8716 12.5938L60.356 13.4375H60.3442L62.8403 14.1055L63.0044 14.1523L63.1685 14.2344L65.4185 15.4414L67.8091 16.5547L67.8677 16.5781L67.9146 16.6016L70.0825 17.8203L72.4849 18.6055L72.5786 18.6289L72.6606 18.6758L75.0513 19.8008L75.0981 19.8242L77.3364 20.9727L79.7505 21.7344L79.9614 21.8047L80.1606 21.9336L82.3638 23.457L84.4849 24.7812L85.0122 25.1094L85.1528 25.707L85.7739 28.2617L85.8794 28.7188L85.7153 29.1523L84.8247 31.4492L84.6138 31.9766L84.1216 32.2461L82.1411 33.2656L80.8872 35.0234L79.9614 36.9453L79.9849 39.2539V41.8086L80.1606 44.4219L80.3716 47.0703L80.3833 47.1172V47.1758L80.395 49.8242V49.918L80.3833 50.0234L80.0552 52.4961L80.3247 54.875L80.3481 55.0039L80.3364 55.1328L80.1606 57.6875L80.1724 57.6992L80.1372 60.3359L80.1606 62.9492V62.9961L80.1021 65.4688L80.3247 68.1172L80.3481 68.2578L80.3247 68.3984L80.0669 70.8828L80.1606 73.3672V73.4727L80.0669 75.957L80.4067 78.2773L81.2622 80.2461L82.9146 81.6758L85.1528 83.0586L85.8442 83.4688L85.8794 84.2773L85.9614 87.0078L85.9731 87.043V87.0781L85.9263 89.7148L86.02 92.293V92.3633L85.9614 95.0117L85.9146 97.6484V97.6602L85.8325 100.309V100.367L85.6567 102.898V105.535L85.9263 108.02V108.102L86.02 109.836L86.9458 110.328H88.188L88.6216 109.133L88.5513 106.777L88.4575 104.129V104.059L88.4927 101.422V101.41L88.5513 98.7734L88.5981 96.2305L88.4692 93.5938V93.5234L88.4575 90.9219L88.3872 88.2852L88.3755 88.1797L88.3872 88.0742L88.6919 85.4375L88.7153 85.1914L88.8091 84.9805L89.7583 82.8945L89.9575 82.4727L90.3442 82.2266L92.2778 81.043L93.3208 79.2031L94.0005 77.082L94.1177 74.6914L94.1763 72.125L94.1528 69.4766H94.1646L94.0122 66.9102L94.0005 66.7578L94.0239 66.6172L94.3989 64.1094L94.4106 61.7305L93.8364 59.2461L93.7896 59.0352L93.8013 58.8125L93.9536 56.2461L93.9653 56.1758L93.9771 56.0938L94.3521 53.6797L93.9302 51.3242L93.8833 51.0898L93.9185 50.8555L94.2466 48.3008V45.8984L94.0356 43.25V43.2031L93.9185 40.6016L93.9067 40.4375L93.9302 40.2734L94.3169 38.0234L93.7896 35.832L93.0278 33.9102L91.4106 32.6328L89.1021 31.4844L88.2114 31.0391L88.2817 30.043L88.4341 27.5L88.0239 25.2617L87.1099 23.1875L85.7388 21.6406L83.5708 20.8438L83.4067 20.7852L83.2661 20.6914L81.1567 19.3086L78.8481 18.4297L78.7427 18.3828L78.6489 18.3242L76.5396 17.1172L74.1255 16.5078L73.8677 16.4492L73.645 16.2969L71.5708 14.8906L69.2622 14.0352L69.2505 14.0234H69.2271L66.7778 13.0273L64.3286 12.043L64.2349 12.0078L64.1411 11.9609L62.0083 10.7188L59.6294 10.1094H59.6177L57.3091 9.48828L54.9185 9.71094L54.8247 9.72266H54.731L52.3052 9.64062L50.2192 10.2031L48.3794 11.5273L46.8325 13.1914L45.6372 15.1367L45.2036 17.3164L45.2505 19.8242V20L44.981 22.6367L45.0396 24.9922V25.1094L45.0278 25.2148L45.0161 25.3086L43.5278 25.1328L42.8247 25.0391L42.0396 25.0625L41.981 22.5195V22.4258L41.9927 22.3438L42.2505 19.8008L42.2036 17.2344V17.0703L42.2271 16.918L42.7544 14.293L42.8013 14.0352L42.9419 13.8125L44.3247 11.5391L44.4067 11.4102L44.5122 11.293L46.2935 9.37109L46.3989 9.26562L46.5161 9.17188L48.6841 7.625L48.9067 7.46094L49.1646 7.39062L51.7427 6.69922L51.9536 6.64062H52.1646L54.6724 6.72266L57.2974 6.47656L57.5669 6.45312L57.8247 6.52344Z" fill="black"/>
<path d="M43.8047 23.8218L46.1953 24.2437L48.5625 23.8687L48.75 23.8335L48.9258 23.8569L51.5039 24.0913L51.6562 24.103L51.7969 24.1499L54.1641 24.8647L55.6406 25.3101L55.1602 26.7632L54.4219 29.0132L53.8008 31.3804L53.6836 33.7241L54.0352 36.2319L54.0469 36.3491V36.478L53.9648 39.1147L53.9062 41.7397V41.7515L53.8359 44.3882L53.8477 46.9897L53.9883 49.5444L54 49.6968L53.9766 49.8491L53.6133 52.3101L53.7773 54.3257L55.0547 55.7202L57.1289 56.8569L57.2344 56.9155L57.3398 56.9976L59.2969 58.5327L61.582 59.6226L61.875 59.7632L62.0859 60.021L63.7617 62.0366L65.5078 64.0054L65.5547 64.0522L67.2188 66.1265L67.3477 66.2788L67.4297 66.4546L68.4961 68.8804L68.5312 68.9624L68.5547 69.0444L69.3398 71.5522L70.3008 73.9429L70.4062 74.2241V74.5288L70.3594 77.0132L70.4883 79.5327V79.603L70.5 82.2632V82.5444L70.4062 82.8022L69.4688 85.2397L69.4805 85.2515L68.625 87.7358L68.5898 87.8413L68.543 87.9351L67.3359 90.2788L67.2891 90.3726L67.2305 90.4663L65.7422 92.5288L64.5117 94.8022L64.3594 95.0952L64.0781 95.2944L61.9219 96.8647L60.0117 98.4937L59.8594 98.6226L59.6836 98.7163L57.3984 99.7827L55.2773 101.224L54.9727 101.423L54.6094 101.47L51.9844 101.775L49.582 102.361L49.4766 102.396H49.3711L46.7461 102.654H46.582L43.9453 102.619H43.7344L43.5234 102.56L41.0039 101.787L38.5312 101.212L38.3672 101.166L38.2031 101.095L35.9297 99.9585L33.4922 99.021L33.2109 98.9155L33 98.7046L31.0664 96.8647L29.1797 94.978L27.3281 93.0913L27.2344 92.9858L27.1523 92.8687L25.6992 90.6655L25.6172 90.5483L25.5586 90.4077L24.5625 87.9702V87.9585L23.5781 85.5327L23.5547 85.4858L23.543 85.439L22.7109 82.9194L22.6406 82.6968V82.4507L22.6172 79.8022V79.6733L22.6406 79.5444L22.8281 78.4194L22.8516 77.2124L22.8984 75.0913V74.9624L22.9336 74.8218L23.4492 72.2554L23.4727 72.1733L23.4961 72.103L24.2812 69.5952L24.3164 69.4897L24.3633 69.3843L25.5234 67.0288L25.5703 66.9233L25.6406 66.8179L27.1406 64.6733V64.6616H27.1523L28.6758 62.5171L28.7227 62.4468L30.3984 60.3608L30.5391 60.1968L30.7148 60.0796L32.8945 58.5444L32.9414 58.5093L33 58.4858L35.2969 57.1499L35.3086 57.1382L37.3477 55.9897L38.5781 54.5835L38.9531 52.5913L39.0352 50.0718V50.0132L39.2227 47.3765L39.2109 44.8452L38.9531 42.3491L38.9414 42.2905V42.2319L38.8828 39.5952L38.8711 39.4897L38.8828 39.3843L39.1875 36.7476L39.2344 34.2749V31.7437L38.8711 29.5405L37.7344 27.5249L37.0312 26.3062L38.2148 25.5327L40.1602 24.2671L40.4766 24.0562L40.8516 24.021L43.418 23.8101L43.6172 23.7866L43.8047 23.8218ZM41.4844 26.9741L41.0273 27.2671L41.6016 28.2632L41.7305 28.4976L41.7773 28.7554L42.2227 31.3804L42.2461 31.521V31.6499L42.2344 34.2866V34.3101L42.1875 36.9468L42.1758 37.0171V37.0874L41.8828 39.5952L41.9297 42.1499L42.2109 44.6812V44.8335L42.2227 47.4819V47.5288L42.2109 47.5874L42.0234 50.1538L41.9531 52.8022V52.9194L41.9297 53.0366L41.4492 55.5562L41.3789 55.9546L41.1094 56.271L39.457 58.1577L39.293 58.3452L39.0586 58.4741L36.7852 59.7515L36.7734 59.7397L34.5117 61.0757L32.6016 62.3999L31.0664 64.3335L31.0547 64.3218L29.5898 66.3726L29.6016 66.3843L28.1602 68.4351L27.1172 70.5796L26.3555 73.0054L25.8867 75.2554L25.8516 77.0132L25.9922 77.0015L26.0039 77.1069L26.0508 77.3413L26.0039 77.5874L25.6172 79.9546L25.6289 82.2163L26.3555 84.4077L27.3398 86.8335L28.2773 89.1421L29.5547 91.0757L31.3125 92.8687L33.1406 94.6968L34.8398 96.314L37.0664 97.1812L37.1367 97.2046L37.1953 97.2397L39.3867 98.3296L41.7773 98.8921L41.8711 98.9155L44.1797 99.6187L46.5938 99.6421L48.9023 99.4312L51.4336 98.8335L51.5156 98.8101H51.5977L53.8828 98.5288L55.8281 97.2397L55.9219 97.1812L56.0156 97.1343L58.207 96.0913L60.0586 94.5093L60.1055 94.4624L60.1641 94.4272L62.0391 93.0562L63.1758 91.0054L63.2109 90.9351L63.2695 90.853L64.7461 88.7671L65.8242 86.6577L66.6328 84.2788L66.6562 84.2319L67.4883 82.0054V79.6147H67.5L67.3594 77.0601V76.9663L67.3945 74.7749L66.5156 72.5601L66.4688 72.4429L65.6953 69.9937L64.7461 67.8257L63.2695 65.9976L61.5234 64.0288L61.5117 64.0054L61.4883 63.9937L59.9766 62.1772L57.8672 61.1812L57.7148 61.1108L57.5859 61.0054L55.5352 59.3882L53.4258 58.2515L53.2148 58.1343L53.0391 57.9468L51.2344 55.9897L50.8828 55.603L50.8359 55.0874L50.6133 52.3921L50.6016 52.228L50.625 52.0522L50.9883 49.5444L50.8477 47.0718V47.0015L50.8359 44.353V44.3062L50.9062 41.6694L50.9648 39.0444V39.021L51.0352 36.5015L50.707 33.9937L50.6836 33.853L50.6953 33.7241L50.8125 31.0757L50.8242 30.9233L50.8594 30.771L51.5391 28.1694L51.5508 28.1226L51.5625 28.0874L51.8203 27.2905L51.0703 27.0562L48.832 26.8569L46.3945 27.2437L46.1484 27.2788L45.9141 27.2319L43.5 26.8101L41.4844 26.9741Z" fill="black"/>
<path d="M90.1099 57.8433L92.688 58.1245L95.0786 58.0308L95.1138 58.9565L95.231 59.5073L95.5356 60.9839L95.4419 60.9956L95.313 61.0308H95.1841L92.6411 61.1128L92.5356 61.1245L92.4302 61.1128L89.9458 60.8433L87.7427 61.0776L86.2192 61.8276L85.7739 62.8823L86.3716 63.9019L88.2817 64.3589L88.4224 64.394L88.563 64.4526L90.9888 65.5776L91.645 65.8706L91.8208 66.5737L92.4419 69.0347L92.5474 69.4331L92.4302 69.8198L91.7036 72.2925L91.4575 73.1362L90.6021 73.3354L87.9653 73.9331L87.8599 73.9565L87.7427 73.9683L85.0942 74.1558L84.9536 74.1675L84.8013 74.1558L82.2817 73.8394L79.7505 73.9214L79.6333 73.9331L79.5044 73.9097L78.895 73.8276L79.3169 70.8511L79.7388 70.9097L82.3052 70.8394H82.4106L82.5278 70.8511L85.0005 71.1558L87.4028 70.98L89.0669 70.605L89.4302 69.3628L89.0786 67.9917L87.4146 67.23L85.0591 66.6909L84.4263 66.5386L84.0981 65.9761L82.8091 63.7495L82.4458 63.105L82.7271 62.4253L83.6997 60.1401L83.9106 59.6245L84.4146 59.3784L86.6646 58.2769L86.8989 58.1597L87.1567 58.1362L89.7935 57.8433L89.9458 57.8315L90.1099 57.8433Z" fill="black"/>
<path d="M34.9058 73.043L37.5542 73.3477H37.6011L37.6479 73.3594L40.2378 73.8281H40.2847L40.3315 73.8398L42.9097 74.4609L43.0737 74.5078L43.2144 74.5781L45.605 75.75L45.6753 75.7852L45.7573 75.832L47.7378 77.1211L50.0933 77.6133L50.1519 77.625L50.1987 77.6484L52.519 78.293L54.9565 78.3516H55.0386L57.4526 78.5156L59.6909 78.0117L61.9409 77.1562L64.1909 75.9258L64.3198 75.8555L64.4722 75.8086L66.8862 75.0586L67.6597 74.6836L68.3276 76.0195L69.0073 77.3555L68.1284 77.8008L68.0112 77.8594L67.894 77.8945L65.4917 78.6328L63.3237 79.8164L63.23 79.875L63.1362 79.9102L60.687 80.8477L60.5815 80.8828L60.4761 80.9062L57.9097 81.5039L57.687 81.5508L57.4644 81.5391L54.8979 81.3398L52.2847 81.293H52.0854L51.8979 81.2461L49.3784 80.5312H49.3667L46.8706 80.0039L46.5894 79.9453L46.355 79.8047L44.1753 78.375L42.0073 77.3203L39.7104 76.7695L37.1323 76.3125L34.7651 76.043L32.4448 76.3594L30.1011 77.1797L30.0073 77.2031L27.4644 77.918L25.0854 78.5977L24.9917 78.6211L24.8862 78.6445L24.5815 77.168L24.2651 75.7031L26.644 75.0352H26.6558L29.1167 74.3438L31.6128 73.4766L31.7534 73.4297L31.9058 73.4062L34.5308 73.043L34.7183 73.0195L34.9058 73.043Z" fill="black"/>
<path d="M90.1099 38.6714L92.606 38.9409L95.0786 38.8589L95.1138 39.7847L95.231 40.3354L95.5356 41.812L95.4302 41.8237L95.313 41.8472L95.1841 41.8589L92.6411 41.9409L92.5356 41.9526L92.4302 41.9409L89.9692 41.6714L87.7192 41.9292L86.1724 42.6206L85.7505 43.6753L86.3247 44.7065L88.2349 45.2222L88.3638 45.2573L88.4692 45.3159L90.9067 46.4175L91.563 46.7104L91.7388 47.4253L92.3481 49.8862L92.4653 50.355L92.2778 50.8003L91.3286 53.1909L91.0474 53.9175L90.2739 54.0933L87.6606 54.7026L87.5317 54.7378H87.4146L84.7778 54.9136L84.6372 54.9253L84.4966 54.9019L81.9653 54.5972L79.4458 54.6792H79.3169L79.0356 54.6675L79.1763 51.6675H79.4106L81.9888 51.5972H82.106L82.2114 51.6089L84.7544 51.9019L87.0981 51.7495L88.8325 51.3511L89.313 50.144L88.9966 48.8433L87.3325 48.0933L84.9536 47.4604L84.3325 47.2964L84.0278 46.7339L82.7856 44.519L82.4224 43.8862L82.7036 43.2183L83.6294 40.9331L83.8638 40.3706L84.4146 40.1245L86.7231 39.105L86.9224 39.0112L87.145 38.9878L89.7817 38.6831L89.9458 38.6597L90.1099 38.6714Z" fill="black"/>
</svg>
