<svg width="120" height="120" viewBox="0 0 120 120" fill="none" xmlns="http://www.w3.org/2000/svg">
<path d="M60.3789 4.6875L62.875 4.95703L63.2031 4.99219L63.4961 5.15625L65.7578 6.52734H65.7695L65.7812 6.53906L68.0195 7.95703L68.1016 8.00391L68.1719 8.07422L70.0234 9.62109L72.2969 10.5469L72.5312 10.6289L72.7188 10.793L74.6875 12.4688L76.6562 13.8398L78.9883 14.8477L79.0938 14.8945L79.1992 14.9531L81.4375 16.3711L82.4219 16.9922L82.0586 18.1055L81.5781 19.5586L81.4492 19.9688L81.1094 20.2383L79.0586 21.9258L78.9531 22.0195L78.8359 22.0898L76.7031 23.2617L75.3672 24.4688L75.1328 26.2969V26.3086L74.7812 28.9102L74.7578 29.0742L74.1133 31.6406L74.0781 31.793L74.0195 31.9219L73.4951 33.0283L75.4648 33.8125L75.5469 33.8477L75.6172 33.8828L77.9609 35.1367L78.0547 35.1836L78.1367 35.2422L80.2695 36.8008L82.4258 38.1484L82.5664 38.2305L82.6836 38.3477L84.3359 39.9531L85.4023 40.375L87.1953 39.6133L89.3516 38.3242L89.4922 38.2422L89.6328 38.1953L91.3271 37.6035L92.9844 36.2617L94.8125 34.3867L96.5938 32.4766L96.6641 32.4062L98.5742 30.5898L99.3242 29.8633L100.262 30.3203L101.773 31.0586L102.09 31.2227L102.312 31.5039L103.379 32.9336L105.254 32.9102H105.289L107.926 32.9336H108.125L108.312 32.9805L110.598 33.6133L111.77 33.9297L111.512 37.7969V37.8555L111.5 37.9141L111.16 40.293L111.008 41.3125L110 41.5352L107.516 42.0742L107.527 42.0859L105.008 42.8477L102.582 43.7266L102.512 43.75L102.43 43.7734L99.875 44.3945L97.332 45.0625H97.3203L97.3086 45.0742L94.7656 45.6719L94.2314 45.8408L94.2266 46.4219V46.5156L94.2148 46.6094L93.8867 49.0469L94.2148 51.4961L94.2383 51.6602L94.2266 51.8242L94.0273 54.2969L94.2852 56.8281L94.2969 57.0508L94.2617 57.2617L93.7695 59.7812L93.7812 62.1367L94.2148 64.6445L94.2383 64.8086L94.2266 64.9609L94.1211 67.5977V67.668L94.1094 67.7383L93.7812 70.1641L94.25 72.543L94.2852 72.7773L94.2617 73.0117L93.9336 75.543L93.9453 78.0977L94.0156 80.6992L94.0742 83.3594V83.418L94.0156 86.0547V86.1367L93.8047 88.7969L93.7812 89.0781L93.6523 89.3477L92.5273 91.6094L91.7891 94.0469L91.7188 94.2812L91.5781 94.4805L90.043 96.6367L90.0195 96.6602L89.9961 96.6953L88.3672 98.7695L88.2031 98.9688L87.9922 99.1094L85.7539 100.516L85.6719 100.562L85.6016 100.598L83.5859 101.559L81.5703 102.508L81.4414 100.281L81.2891 97.6445L81.2773 97.5039L81.3008 97.3516L81.6406 94.8203L81.5938 92.3125V92.2422L81.6523 89.6055L81.6758 86.9922V86.9688L81.7109 84.332L81.4883 81.8477V81.7773L81.3828 79.1289V79.0117L81.4883 76.375L81.5117 73.7852V73.7383L81.5234 73.6914L81.6875 71.125L81.5703 68.5938V68.5117L81.5938 65.8984L81.5586 63.25V63.2383L81.3359 60.7305V60.7188L81.1836 58.8906L79.6953 57.8242L77.4453 56.418L77.4336 56.4062H77.4219L75.207 54.9648L75.0664 54.8477L74.8633 54.6768L74.7148 55.1367L74.6445 55.3359L74.5273 55.5L73.0742 57.7031L72.6699 58.5H73.4023L73.4961 59.9062L73.5664 61.0195L74.2695 63.3633L75.0898 65.8945L75.1133 65.9531L75.125 66.0234L75.7109 68.5898V68.6133L75.7227 68.6367L76.2266 71.2266L76.25 71.3203L76.5664 73.8398L77.2695 76.2773L77.293 76.3477L77.3047 76.418L77.7617 78.9023L78.4414 81.457L78.5 81.6797L78.4883 81.9023L78.3711 84.4219L78.5703 87L78.582 87.1641L78.5703 87.3164L78.2305 89.8477L78.2656 92.2617L78.6992 94.793L78.7227 94.9219V95.0625L78.6992 97.6992V97.793L78.6875 97.875L78.3594 100.312L78.6875 102.762L78.7109 102.926L78.6992 103.078L78.4883 105.727L78.4062 106.746L77.4102 107.039L75.6406 107.56L75.6875 108.566V108.578L75.7227 109.703L77.1641 109.973L79.6953 110.277L82.1797 110.289L83.3164 110.301L83.6094 111.402L84.2656 113.875V113.887L84.2773 113.898L84.418 114.49L84.5234 114.488L87.1602 114.418H87.1953L89.832 114.406H89.9375L90.0312 114.418L92.4219 114.734L94.8359 114.266L95.082 114.219L95.3164 114.254L97.8945 114.605L100.273 114.711L102.793 114.277L102.91 114.266H103.027L105.664 114.242H105.816L105.969 114.266L108.406 114.746L110.809 114.5L110.891 114.488H110.973L112.016 114.5L112.004 116L111.98 117.5L110.984 117.488L108.477 117.746L108.254 117.77L108.031 117.734L105.57 117.242L103.145 117.254L100.648 117.688L100.496 117.711L100.332 117.699L97.6953 117.594H97.625L97.5547 117.582L95.1523 117.242L92.7617 117.711L92.5273 117.758L92.293 117.734L89.7383 117.406L87.207 117.418L87.1953 117.406L84.6055 117.488H84.5938L81.957 117.547H81.9336L79.3672 117.559L79.3789 117.57L76.7422 117.746L76.5547 117.758L73.9297 117.266L71.5391 117.547L71.4102 117.559H71.2812L68.7266 117.418L68.1279 117.456L68.1289 117.496H67.5098L66.1719 117.582H66.043L65.9141 117.57L63.418 117.289L60.957 117.559H60.8867L58.25 117.711L58.0977 117.723L57.957 117.699L56.1279 117.446L56.1289 117.496H54.5V117.368L52.9062 117.406H52.8477L50.2109 117.348V117.336H47.5742L44.9492 117.289L42.4531 117.512L42.418 117.523H42.3711L39.7344 117.617H39.6172L36.9805 117.512V117.5L34.3906 117.488H34.3438L34.2969 117.477L31.7188 117.301L29.1875 117.43H29.1055L26.4688 117.418V117.406L23.9609 117.43L21.3242 117.664L21.1836 117.676L21.0312 117.664L18.5 117.383L15.9219 117.395V117.383L13.3789 117.559H13.3672L13.3555 117.57L10.707 117.688L10.6133 117.699L10.5312 117.688L7.98828 117.5L8 117.277V114.5H8.21094L10.6719 114.699L13.1797 114.582V114.57L15.8164 114.395H15.9102L18.5469 114.383L18.6406 114.371L18.7227 114.383L21.2305 114.664L23.7148 114.453L23.7617 114.441H23.8203L26.4688 114.418H26.4922L29.0469 114.43L31.6953 114.312L31.7773 114.301L31.8594 114.312L34.5078 114.488L34.4961 114.5L36.0771 114.507L36.2227 113.898L36.2344 113.887V113.875L36.8906 111.402L37.1836 110.301L38.3203 110.289L40.8047 110.277L43.3359 109.973L44.7773 109.703L44.8125 108.578V108.566L44.8682 107.325L43.0742 106.418L42.0664 105.914L42.2773 104.801L42.7344 102.363L42.4531 99.9727L42.4414 99.8438V99.7266L42.582 97.1602L42.418 94.6055V94.4766L42.4297 94.3477L42.7109 91.8633L42.4414 89.3906V89.332L42.2891 86.6836L42.2773 86.543L42.3008 86.3906L42.6641 83.8125L42.7461 81.3047V81.1406L42.793 80.9883L43.4258 78.4336L44.0234 75.8789V75.8672L44.6562 73.3008L44.9844 70.8281L44.9961 70.793V70.7578L45.4883 68.1562L45.5 68.0977L45.5117 68.0508L46.2031 65.4961L46.8008 62.9766L46.8242 62.8828L47.5859 60.3516L47.7969 59.6484L48.4883 59.3789L48.8291 59.249L47.8438 57.4219L46.3906 55.2773L46.2148 55.0195L46.0771 54.335L45.4648 54.8516L45.3945 54.9102L45.3125 54.957L43.0977 56.3984L43.0742 56.4219L40.918 57.7578V57.7695L39.3359 58.8945L39.1836 60.7109V60.7227L38.9727 63.2422V63.2539L38.9375 65.8906L38.9492 68.5039V68.5859L38.832 71.0938L39.0078 73.6953V73.7891L39.0312 76.3789L39.1484 79.0156V79.1328L39.043 81.7695V81.8516L38.8086 84.4883L38.8555 86.9727V86.9844L38.8672 89.6328L38.9258 92.2461V92.3047L38.8789 94.8359L39.2305 97.3555L39.2539 97.4961L39.2422 97.6484L39.0781 100.285L38.9492 102.5L36.9453 101.551L34.9297 100.602L34.8477 100.566L34.7773 100.52L32.5391 99.1133L32.3164 98.9727L32.1641 98.7734L30.5234 96.6875L30.5 96.6641L30.4766 96.6289L28.9531 94.4844L28.8125 94.2852L28.7422 94.0508L28.0039 91.6133L26.7383 89.082L26.7148 88.8008L26.5156 86.1406V86.0938L26.5039 86.0586L26.457 83.4219V83.3516L26.5156 80.7031V80.6914L26.5859 78.0547L26.5977 75.5469L26.2695 73.0156L26.2344 72.7695L26.2812 72.5352L26.75 70.1211L26.4219 67.7422L26.4102 67.6719V67.6016L26.293 64.9648V64.8008L26.3164 64.6484L26.75 62.1406L26.7617 59.7734L26.2695 57.2656L26.2227 57.043L26.2461 56.8203L26.5039 54.3008L26.293 51.8164L26.2812 51.6523L26.3047 51.5L26.6436 49.04L26.1836 49.0742L26.0195 49.0859L25.8438 49.0508L23.3477 48.6406L20.7695 48.5352L18.2031 48.5703L17.3242 48.5938L16.8906 47.832L15.5664 45.5703L15.4727 45.4297L15.4258 45.2656L14.8994 43.5986L12.5117 43.6494L11.1445 43.6777L10.9893 42.3193L10.7266 40.0098L10.7227 39.9688L10.7197 39.9287L10.5654 37.3154L10.292 34.7168L10.2744 34.5537L10.293 34.3916L10.5771 31.8799L10.4258 29.3701L10.4209 29.2871L10.4258 29.2031L10.5547 26.6904L10.2607 24.1738L10.0654 22.5H12.1572L12.2139 22.5039L14.666 22.6914L17.208 22.5684V22.5693L19.8203 22.3936L19.8662 22.3906H19.9121L22.5527 22.377H22.6387L22.7246 22.3867L25.3643 22.6777L25.542 22.6973L25.71 22.7578L27.5674 23.4297L28.5459 23.7832L28.5576 24.8232L28.5879 27.4629V27.4893L28.5713 30.0957L28.6924 32.6904L28.6963 32.7764L28.6904 32.8623L28.5137 35.4492L28.4951 37.3604L30.8867 38.1875L31.0391 38.2461L31.168 38.3164L33.3711 39.6289L35.1172 40.3672L36.1016 39.957L37.6953 38.2812L37.8242 38.1523L37.9766 38.0469L40.2031 36.6289L42.3477 35.1641L42.4766 35.082L42.6172 35.0234L45.0664 33.9805L45.1953 33.9219L45.3359 33.8984L46.6953 33.6123L45.7305 31.4062L45.6602 31.1953L44.9688 28.6289L44.957 28.5703L44.9453 28.5L44.4766 25.8984L44.4414 25.6875L44.4648 25.4766L44.7227 22.9102L44.8516 20.2852L44.8633 20.2031L44.875 20.1328L45.2969 17.4961L45.332 17.2266L45.4727 16.9805L46.8086 14.6719L48.0391 12.3867L48.1328 12.2227L48.2617 12.082L50.043 10.1367L51.7891 8.15625L52.0117 7.91016L52.3281 7.76953L54.7422 6.72656L56.9688 5.53125L57.1211 5.44922L57.2969 5.40234L59.8281 4.73438L60.0977 4.66406L60.3789 4.6875ZM69.582 107.25L67.8916 107.543L67.8008 108.672L67.918 111.18H67.9297L68.1055 113.816V113.91L68.1084 114.461L68.6328 114.43L68.7148 114.418L68.7969 114.43L71.3281 114.559L73.8242 114.266L74.0586 114.23L74.2812 114.277L76.7305 114.734L79.1797 114.582L79.2266 114.57H79.2617L81.3477 114.561L81.0078 113.277H79.4961L79.4141 113.266H79.3203L76.707 112.938H76.6602L76.6133 112.926L74.0117 112.445L72.8398 112.223L72.7812 111.027L72.7109 108.695L72.6992 108.707L72.6377 107.372L71.9492 107.238L69.582 107.25ZM59.1992 107.719L58.9648 107.766L58.7305 107.73L56.1758 107.402H55.9033L55.8008 108.672L55.918 111.18H55.9297L56.1055 113.816V113.91L56.1074 114.414L58.2148 114.723L60.7109 114.559V114.57L63.2891 114.289L63.4414 114.277L63.6055 114.289L65.1084 114.466L65.1055 113.934V113.922L64.9414 111.379V111.367L64.9297 111.355L64.8125 108.707L64.8008 108.613L64.8125 108.531L64.8789 107.622L64.1328 107.59H64.0625L64.0039 107.578L61.6016 107.25L59.1992 107.719ZM51.043 107.484H51.0312L48.3945 107.543H48.3711L47.8525 107.55L47.8008 108.707L47.7891 108.695L47.7188 111.027L47.6602 112.223L46.4883 112.445L43.8867 112.926L43.8398 112.938H43.793L41.1797 113.266H41.0859L41.0039 113.277H39.4922L39.1416 114.595L39.6875 114.617L42.1836 114.535L44.832 114.289H44.9844L47.6211 114.336L47.6094 114.348H50.2695L52.8711 114.406L53.1074 114.4L53.1055 113.934V113.922L52.9414 111.379V111.367L52.9297 111.355L52.8125 108.707L52.8008 108.613L52.8125 108.531L52.8926 107.435L51.043 107.484ZM57.8398 61.4766L57.793 61.4883H57.7461L56.9336 61.4912L56.293 61.5469L56.2344 61.5586H56.1758L53.5391 61.582H53.5156L53.4111 61.5811L52.5195 61.6172L52.0859 61.6406L51.9717 61.5742L51.1602 61.5703L50.2461 61.9102L49.6953 63.75L49.1094 66.2344V66.2578L49.0977 66.2812L48.4062 68.8242L47.9492 71.3086L47.5977 73.8633L47.5859 73.9453L47.5742 74.0156L46.9414 76.582L46.3438 79.1367V79.1602L45.7344 81.5508L45.6523 84.0117L45.6406 84.0938V84.1641L45.2773 86.6484L45.4414 89.1445L45.7109 91.7227L45.7227 91.8867L45.7109 92.0508L45.418 94.5234L45.5703 97.0664L45.582 97.1484L45.5703 97.2305L45.4414 99.7617L45.7344 102.27L45.7695 102.492L45.7227 102.715L45.4297 104.238L46.0742 104.566L48.3242 104.543L50.9609 104.484L53.5977 104.414H53.6328L56.2695 104.402H56.375L56.4688 104.414L58.8594 104.719L59.9805 104.506L60.0703 102.727L59.918 100.172V100.043L59.9297 99.9141L60.1992 97.418L59.9414 94.957V94.8867L59.7891 92.25L59.7773 92.0977L59.8008 91.957L60.1406 89.4141L60.0938 86.9062V86.8477L60.1523 84.2109L60.1641 81.5859V81.5742L60.1992 78.9492L59.9883 76.4531L59.9766 76.418V76.3711L59.8828 73.7344V73.6172L59.9883 70.9805H60L60.0117 68.3906V68.3438L60.0234 68.2969L60.1875 65.7188L60.0703 63.1875V63.1055L60.0771 61.4834L59.1846 61.3838L57.8398 61.4766ZM68.9355 61.3184L68.7266 61.3828L68.5039 61.4414H68.2812L66.8076 61.4209L66.8164 61.4297L64.1797 61.6055H64.0859L63.0762 61.6094L63.0703 63.0469L63.1875 65.6953L63.1992 65.7773L63.1875 65.8594L63.0117 68.5078L63 68.4961L62.9883 71.0508V71.0977L62.8828 73.6875L62.9648 76.1836L63.2109 78.832V78.9844L63.1641 81.6211L63.1523 81.6094V84.2695L63.0938 86.8711L63.1523 89.4844V89.6133L63.1406 89.7305L62.7773 92.2148L62.9414 94.7109H62.9297L63.2109 97.2891L63.2227 97.4414L63.2109 97.6055L62.918 100.09L63.0703 102.633L63.082 102.715L63.0703 102.797L62.9863 104.412L64.332 104.59L66.7578 104.695L69.2305 104.285L69.3477 104.262H69.4648L72.1133 104.238H72.2539L72.4062 104.273L74.6914 104.719L75.5703 104.449L75.6992 102.961L75.3594 100.523L75.3359 100.324L75.3594 100.125L75.6992 97.5586L75.7109 95.1445L75.3008 92.6484L75.2773 92.543V92.4258L75.2305 89.7891V89.6719L75.2422 89.5664L75.5703 87.0938L75.3828 84.5977L75.3711 84.5039V84.4102L75.4766 81.9727L74.8672 79.6758L74.8438 79.6172L74.832 79.5586L74.3633 77.0391L73.6602 74.5664L73.625 74.4492L73.6133 74.3438L73.2852 71.8125L72.7812 69.2461V69.2578L72.2305 66.8203L71.4102 64.2891V64.2656L70.6484 61.7227L70.6016 61.5586L70.5898 61.4062L69.3125 61.3008L68.9355 61.3184ZM70.9609 36.6797L69.3672 38.707L69.2383 38.8594L69.0859 38.9766L66.9766 40.5703L66.8477 40.6758L66.6953 40.7461L64.2812 41.8359L64.1641 41.8945L64.0352 41.9297L63 42.1973V42.2109L62.8008 44.6719L62.918 47.1797H62.9297L63.1055 49.8164V49.9102L63.1172 52.5469L63.1289 52.6406L63.1172 52.7227L62.8359 55.2305L63.0469 57.7148L63.0586 57.7617V57.8203L63.0635 58.4287L63.0781 58.4297L65.6445 58.418H65.668L66.6924 58.4277L68.3848 58.3525L69.5586 57.9961L70.4844 56.1914L70.5195 56.1094L70.5781 56.0391L71.9141 54.0234L72.5703 51.9961L72.6875 49.6992L72.4766 47.2266L72.4531 46.9688L72.5234 46.7227L72.5469 46.6289L74 47.0039L74.2578 47.0742L75.4648 46.9688L75.6875 49.5117L75.6992 49.6172L75.6875 49.7109L75.6123 51.3896L76.9062 52.4805L79.0391 53.875L81.2773 55.2812L81.3242 55.3047L81.3594 55.3281L83.5039 56.8633L84.0781 57.2734L84.125 57.9648L84.3242 60.4727L84.5586 63.1094V63.2266L84.5938 65.8633V65.8867L84.5703 68.5234L84.6992 71.0898V71.1719L84.6875 71.2656L84.5117 73.9023L84.4883 76.457V76.5039L84.3828 79.1406L84.4766 81.5898L84.7109 84.2266V84.3789L84.6758 87.0273L84.6523 89.6523V89.6758L84.5938 92.3125L84.6523 94.8906V95.0078L84.6406 95.125L84.2773 97.6094L84.3008 97.8789L86.1875 96.6836L87.6406 94.832L88.9766 92.9336L89.6914 90.6484L89.7266 90.5312L89.7852 90.4258L90.8281 88.2695L91.0156 85.9961L91.0742 83.418L91.0156 80.7812L90.9453 78.1445V78.1094L90.9336 75.4609V75.3672L90.9453 75.2617L91.25 72.8711L90.793 70.4688L90.7461 70.2227L90.7812 69.9766L91.1328 67.3398L91.2266 65.0195L90.8047 62.5117L90.793 62.3828V62.2656L90.7695 59.6289V59.4766L90.793 59.3242L91.2734 56.9102L91.0273 54.4844L91.0156 54.3555L91.0273 54.2148L91.2266 51.6953L90.8867 49.2578L90.8633 49.0586L90.8867 48.8594L91.2266 46.2812L91.2383 43.8672L90.8281 41.3828L90.7812 41.1484L90.8047 40.9609L90.7227 40.9844L88.625 42.2617L88.543 42.3086L88.4492 42.3438L86.0117 43.3867L85.4492 43.6328L84.875 43.3984L82.9766 42.6484L82.6953 42.543L82.4727 42.332L80.6914 40.5977L78.6055 39.2969L78.5586 39.2617L78.5117 39.2383L76.4844 37.75L74.2695 36.5664L72.043 35.6758L71.8311 35.6475L70.9609 36.6797ZM46.1328 36.7812L43.9531 37.707L41.8555 39.1367L41.8086 39.1602L39.7461 40.4727L38.0586 42.2539L37.8359 42.4883L37.543 42.6055L35.6797 43.3906L35.0938 43.6367L34.5195 43.3906L32.082 42.3477L31.9883 42.3125L31.8945 42.2539L29.7617 40.9648L29.7266 40.9531L29.7383 41.1523L29.7031 41.3867L29.2812 43.9297L29.2998 45.8477L29.582 45.8281L29.5 47.5156V47.5742L29.4746 47.5723L29.6445 48.8516L29.668 49.0508L29.6328 49.25L29.3047 51.6992L29.5039 54.207L29.5156 54.3477L29.5039 54.4883L29.2578 56.9141L29.7266 59.3281L29.7617 59.4805V59.6328L29.7383 62.2695V62.3867L29.7148 62.5039L29.3047 64.9766L29.3984 67.4023L29.75 69.9805L29.7852 70.2266L29.7383 70.4609L29.2812 72.8633L29.5859 75.2656L29.5977 75.3594V75.4648L29.5859 78.1016V78.1367L29.5156 80.7852L29.457 83.4219L29.5039 85.9062L29.7031 88.2734L30.7461 90.418L30.8047 90.5352L30.8398 90.6406L31.543 92.9258L32.8789 94.8359L34.3789 96.7109L36.2188 97.8711L36.2422 97.6133L35.8906 95.1289L35.8789 95.0117V94.8828L35.9258 92.3164L35.8672 89.668V89.6445L35.8555 87.0195L35.8086 84.3828V84.3008L35.8203 84.2305L36.043 81.6641L36.1484 79.1445L36.043 76.4961L36.0312 76.4727V76.4492L36.0078 73.8125L36.0195 73.8008L35.832 71.2578V71.0938L35.9609 68.5156L35.9492 68.5273L35.9375 65.8906V65.8555L35.9727 63.2188V63.1133L36.1953 60.4648L36.3945 57.9688L36.4531 57.2656L37.0156 56.8672L39.1719 55.332L39.207 55.2969L39.2422 55.2734L41.4922 53.8789L43.5664 52.5195L45.4883 50.9141L45.5 50.9023L45.5703 50.8438L45.626 50.9121L45.5938 49.418V49.3594L45.6523 46.9688L47 47.0039V45.5039H48.6875L48.6523 47.0391L48.5938 49.3594L48.6406 51.8438L49.0391 53.8594L50.3516 55.7695L50.3984 55.8281L50.4336 55.8984L51.4766 57.8438L52.7539 58.5781L53.373 58.5811L55.0273 58.5117H55.0742L56.6768 58.5039L58.6719 58.3359L58.8125 58.3242L58.9648 58.3359L59.3232 58.375L60.0605 58.3262L60.0586 57.9609L59.8359 55.3242L59.8242 55.1836L59.8359 55.0312L60.1055 52.5V49.9219L59.9414 47.3789V47.3672L59.9297 47.3555L59.8125 44.707L59.8008 44.6133L59.8125 44.5312L59.958 42.5459L58.2812 42.3984L58.1523 42.3867L58.0234 42.3516L55.4805 41.6602L55.3047 41.6133L55.1406 41.5195L52.8555 40.2305L52.7734 40.1836L52.7031 40.125L50.5938 38.5664L50.5117 38.5078L50.4414 38.4492L48.5195 36.6094L48.3789 36.4688L48.2939 36.3359L46.1328 36.7812ZM25.8115 43.4736L23.1719 43.707L23.0938 43.7139L23.0156 43.7129L20.375 43.6689V43.668L18.0645 43.6543L18.2266 44.1758L19.0234 45.5586L20.8047 45.5352H20.8984L23.5352 45.6523H23.6172L23.6992 45.6641L26.125 46.0625L26.2988 46.0508L26.2695 43.7891V43.6484L26.293 43.5195L26.3086 43.4297L25.8115 43.4736ZM98.7266 34.5742L96.9922 36.4492L96.9688 36.4727L95.1289 38.3711L95.0703 38.4414L95 38.5L94.0898 39.2373L93.8164 41.125L94.0967 42.7627L96.582 42.1562L99.1367 41.5H99.1484L101.562 40.9023L104.059 40.0117L104.094 39.9883H104.129L106.66 39.2148L106.707 39.1914L106.766 39.1797L108.324 38.8281L108.535 37.4805L108.617 36.1797L107.715 35.9219L105.277 35.9102L102.652 35.9453H101.891L101.434 35.3477L100.121 33.5898L99.875 33.4727L98.7266 34.5742ZM19.9795 25.3896L17.3799 25.5635L17.3662 25.5645L17.3516 25.5654L14.7119 25.6914L14.6191 25.6963L14.5264 25.6895L13.4473 25.6064L13.5479 26.4668L13.5625 26.5908L13.5566 26.7168L13.4258 29.2744L13.5801 31.8301L13.5879 31.96L13.5732 32.0889L13.292 34.5674L13.5527 37.043L13.5566 37.0771L13.5586 37.1113L13.7119 39.709L13.8154 40.6211L15.0889 40.5957L15.1211 40.5947L15.1533 40.5957L17.793 40.6533H17.792L20.4092 40.6689L20.417 40.6699H20.4248L22.9883 40.7109L24.9707 40.5361L25.4043 40.0674L25.4893 37.9951L25.5146 35.3857V35.3418L25.5176 35.2979L25.6914 32.7363L25.5732 30.1895L25.5713 30.1504V30.1104L25.5879 27.4971L25.5693 25.8965L24.8574 25.6387L22.4785 25.377L19.9795 25.3896ZM58.1992 8.26172L56.0898 9.42188L56.0312 9.44531L55.9727 9.48047L53.8047 10.3945L52.2812 12.1523L52.2578 12.1758L50.5586 14.0039L49.4219 16.1367L49.4102 16.1602V16.1719L48.2031 18.2461L47.8398 20.6016L47.7227 23.0508V23.1328L47.4648 25.5469L47.875 27.8555L48.5195 30.2812L49.5156 32.5547L50.7344 34.5703L52.3984 36.1641L54.4375 37.6758L56.4531 38.8125L58.668 39.4102L60.9531 39.6211L63.1445 39.0469L65.2891 38.0859L67.1172 36.7031L68.6406 34.7812L68.6523 34.7578L68.6758 34.7344L69.5205 33.7324L69.5469 33.6367L69.5586 33.6016L69.6172 33.6172L70.2578 32.8594L71.2422 30.75L71.8398 28.3477L72.168 25.9102L72.4844 23.4023L72.4961 23.2852L72.5312 23.168L72.5664 23.0742L73.4688 19.9922L74.3594 21.3281L74.7812 20.9531L74.9102 20.8359L75.0625 20.7422L77.2656 19.5234L78.8008 18.2461L77.6641 17.543L75.3438 16.5586L75.2031 16.5L75.0742 16.4062L72.918 14.8828L72.8594 14.8477L72.8008 14.8008L70.9492 13.2305L68.6875 12.3281L68.4648 12.2344L68.2891 12.082L66.3438 10.4531L64.2109 9.09375L62.2188 7.89844L60.3203 7.69922L58.1992 8.26172ZM59.957 13.3828L62.582 13.8516L62.8398 13.8984L63.0625 14.0273L65.3828 15.3516L65.6992 15.5273L65.8984 15.8438L67.3281 18.0703L67.3633 18.1055L67.3867 18.1523L68.6406 20.4375L68.7109 20.5547L68.7461 20.6953L69.1641 21.9688L69.9121 21.9805L69.6816 23.7109L69.6533 23.707L69.6367 23.8594L69.4844 25.1719L69.4492 25.5L69.3672 25.6172L69.0156 27.8203L69.0039 27.9141L68.9805 27.9961L68.2539 30.5039L68.207 30.668L68.125 30.8203L66.8359 33.1289L66.707 33.3633L66.5078 33.5391L64.4805 35.2734L64.2109 35.5078L63.8594 35.5898L61.3047 36.2109L61.1523 36.2578H61L58.3984 36.3398L58.0352 36.3516L57.707 36.2109L55.3047 35.0859L55.0586 34.9688L54.8711 34.7812L53.0078 32.8945L52.8906 32.7773L52.7969 32.625L51.3906 30.3516L51.25 30.1289L51.2031 29.8711L50.6641 27.2578L50.6406 27.1406V27.0234L50.5352 24.3867L50.5234 24.1992L50.5586 24.0234L51.0859 21.457L51.1094 21.3398L51.1445 21.2344L52.0469 18.7734L52.0938 18.6328L52.1758 18.5039L53.5938 16.2305L53.7578 15.9727L54.0156 15.7969L56.2305 14.2617L56.4531 14.1094L56.7227 14.0391L59.3242 13.3945L59.6406 13.3242L59.957 13.3828ZM53.5234 24.457L53.6289 26.8125L54.0859 29.0156L55.2578 30.9023L56.8047 32.4727L58.6562 33.3281L60.7656 33.2578L62.8047 32.7539L64.3516 31.418L65.418 29.4961L66.0859 27.1641L66.457 24.9316L66.2324 24.9297L66.0684 24.9199L65.8955 24.8848L63.4219 24.2832L60.8662 23.9424L58.3242 23.7686L58.3125 23.7676L58.2988 23.7773L55.6582 23.5439L55.5645 23.543L55.4844 23.5205L53.793 23.166L53.5234 24.457ZM57.6953 16.8867L55.9727 18.0703L54.7891 19.9805L54.6787 20.2861L56.0186 20.5771L58.5195 20.792L58.5215 20.7803L61.1582 20.9551L61.251 20.9668L63.8662 21.3037L63.9609 21.3047L64.041 21.3271L65.96 21.8096L65.9336 21.7266L64.75 19.6055V19.5938L63.5781 17.7656L61.7969 16.7578L59.7344 16.3828L57.6953 16.8867Z" fill="black"/>
</svg>
