<svg width="120" height="120" viewBox="0 0 120 120" fill="none" xmlns="http://www.w3.org/2000/svg">
<path d="M54.3525 13.9141L56.25 15.6289L56.3252 15.7041L56.3916 15.7861L58.3223 18.0986L58.4131 18.2061L58.4795 18.3223L59.8711 20.792L60.3848 21.7031L59.7061 22.498L57.7422 24.7939L57.6338 24.9346L57.4854 25.0342L55.082 26.7744L52.8193 28.6553L52.8115 28.6475L50.7148 30.6602L50.665 30.6934L50.6152 30.7432L48.2627 32.5996L48.2207 32.6406L45.834 34.2324L44.1797 36.0713L44.5918 36.3779L44.708 36.4609L44.8154 36.5684L46.7715 38.7236L48.959 40.6787L49.0576 40.7617L49.1328 40.8525L50.9229 43.0898L53.0684 45.1201L55.2314 47.1504L57.4688 49.1562L57.5762 49.2637L57.668 49.3877L59.3164 51.6504L60.5391 52.542L62.0186 51.1104L62.0645 51.0664L62.1133 51.0254L64.3828 49.1748L66.3564 47.1152L68.251 44.8418L68.2939 44.79L68.3408 44.7432L70.458 42.6182L70.4922 42.585L70.5283 42.5527L72.751 40.5928L73.3594 40.0146L71.8848 38.5518L71.7686 38.4355L69.9951 36.248L67.709 34.5078L67.5928 34.4092L67.4932 34.293L65.5205 32.0391L64.9824 31.4336L65.1982 30.6553L65.9102 28.0527L66.002 27.7295L66.2256 27.4727L68.1973 25.2021L68.2227 25.1611L68.2559 25.1279L70.3682 22.998L70.4346 22.9316L70.5098 22.874L72.7383 21.1094L74.3789 18.8389L74.5195 18.6484L74.7109 18.5068L77.1299 16.75L77.5781 16.4189L78.125 16.4688L79.7402 16.5928L80.4199 15.9131L81.5059 16.999L83.6348 18.9795L83.71 19.0371L83.7676 19.1123L85.5986 21.3408L87.8115 23.1895L87.8613 23.2383L88.8838 24.1914L89.4648 23.5469L89.5254 23.4814L89.5928 23.4219L91.8711 21.4336L92.3975 20.9756L93.0869 21.0811L95.5352 21.4609L98.457 21.9131L97.4082 22.9619L98.4668 23.9082L98.5488 23.9824L98.6201 24.0684L100.545 26.3857L100.834 26.7344L100.883 27.1855L101.164 29.8486L101.237 30.5273L100.772 31.0283L98.6719 33.29L98.6113 33.3418L98.2803 33.6289L98.542 33.9033L98.584 33.9443L98.6172 33.9941L100.406 36.1982L102.677 37.8887L102.826 38.0049L102.942 38.1377L104.856 40.4824L105.13 40.8223L105.188 41.2451L105.569 44.2451L105.594 44.4023L105.569 44.5596L105.337 47.4102L105.503 50.3604L105.494 50.3848L105.619 53.3926L105.644 54.1309L105.089 54.6025L102.818 56.5088L102.271 56.9561L101.583 56.832L98.8076 56.3262L96.04 56.6914L95.8662 56.7158L95.6914 56.6914L92.7002 56.3682H92.6836L89.6846 56.0195L89.0625 55.9453L88.6816 55.4648L86.9248 53.2275L84.6377 51.5869L84.5049 51.4873L84.3975 51.3789L82.5693 49.3701L81.8145 50.2188L81.7324 50.3115L81.6357 50.3887L79.3652 52.2188L77.375 54.3262L75.3408 56.4795L73.3359 58.7168L73.2305 58.834L73.1035 58.9268L70.8398 60.5811L69.9941 61.7334L70.0645 61.7842L70.1885 61.875L70.2959 61.9834L72.3184 64.2041L74.373 66.3418L76.4941 68.3965L76.5605 68.4629L76.6104 68.5293L78.375 70.7422L80.5957 72.6309L80.6455 72.6641L80.6875 72.7061L82.8174 74.8184L82.9248 74.9268L84.6982 77.1143L86.9932 78.8623L87.0928 78.9453L87.1836 79.0361L89.2139 81.249L89.2227 81.2578L91.1533 83.4033L93.374 85.3262L93.4482 85.4004L95.5859 87.5049L95.6523 87.5713L95.7109 87.6465L97.4512 89.8672L99.7295 91.5156L100.094 91.7812L100.26 92.1953L101.254 94.8301L101.553 95.5928L101.063 96.2471L99.3896 98.5176V98.5342L99.3818 98.543L97.542 100.946L97.3594 101.178L97.1113 101.327L94.4424 102.885L93.498 103.432L92.6855 102.702L90.416 100.664L88.1943 98.6426L88.1455 98.5928L86.0068 96.4873L85.9824 96.4629L83.9111 94.292L81.8311 92.1289L81.8223 92.1211L79.8252 89.9912L77.5635 88.21L77.4561 88.1348L77.3809 88.0439L75.4258 85.9062L73.2051 83.9834L73.1055 83.9004L73.0225 83.8008L71.1826 81.5469L69.0693 79.5342L66.9648 77.4287L64.7529 75.3984L64.7109 75.374L64.6865 75.333L62.5977 73.1777L60.7529 71.2598L60.71 71.3203L60.6191 71.4473L60.5039 71.5537L58.3135 73.5479L56.1689 75.6152L54.0986 77.7471L54.0332 77.8135L53.9609 77.8721L51.7178 79.6729L49.8594 81.8564L49.8242 81.8984L49.7852 81.9375L47.6787 84.0732L47.6221 84.1289L47.5605 84.1797L45.3623 85.9795L43.6279 88.2432L43.5479 88.3477L43.4512 88.4365L41.2383 90.4668L41.2305 90.4736L39.0693 92.4268L37.1592 94.6309L37.127 94.668L37.0928 94.7031L34.9844 96.8369L34.9189 96.9033L34.8447 96.9609L32.6338 98.7012L30.9736 100.989L30.7109 101.352L30.2939 101.51L27.665 102.514L26.8984 102.807L26.2402 102.32L23.9746 100.651L23.9541 100.636L21.5479 98.7988L21.3105 98.6191L21.1621 98.3623L19.6094 95.6992L19.0586 94.7529L19.79 93.9395L21.8281 91.6768L21.8311 91.6729L23.8477 89.4463L23.8691 89.4219L23.8926 89.3984L26.0049 87.2666L26.0352 87.2363L28.207 85.166L30.3623 83.0889L30.3691 83.084L30.374 83.0781L32.4805 81.0938L34.2822 78.8105L34.3574 78.7168L34.4453 78.6357L36.5938 76.667L38.5098 74.4561L38.5938 74.3594L38.6934 74.2764L40.959 72.4277L42.96 70.3242L42.9717 70.3105L42.9844 70.2988L45.0898 68.1865L47.0889 66.0059L47.1201 65.9727L47.1514 65.9404L49.3096 63.8555H49.3105L51.2881 61.9463L49.8623 60.4746L49.7705 60.3838L47.8652 58.0469L45.8184 56.0996V56.083L43.5889 54.2354L43.5391 54.2021L41.3018 51.9648L39.3135 49.7109L37.2744 47.5732L35.2031 45.4355L34.9238 45.1475L33.5205 46.9268H33.5039L31.7471 49.2969L31.6484 49.4297L31.5322 49.5283L29.4111 51.4014L27.9854 53.7881L27.8857 53.9375L27.7617 54.0615L25.7236 56.1162L23.9668 58.4531L23.8584 58.5938L23.7266 58.71L21.4561 60.5664L20.9424 60.9805L20.2871 60.8896L17.5361 60.4756L17.0146 60.4004L16.6582 59.9941L14.6279 57.7822L12.5811 55.6523L12.291 55.3457L12.1914 54.9316L11.5703 52.1387L11.4043 51.4102L11.8936 50.8379L13.7578 48.6426L15.1992 46.1562L15.2246 46.1152L15.2578 46.0654L16.9395 43.5879L16.9814 43.5127L17.0391 43.4551L18.8623 41.2842L20.1631 38.7402L20.2129 38.624L20.3037 38.5166L22.1016 36.1211L22.1104 36.1133L23.5811 34.1855L22.293 33.0225L22.2266 32.9727L22.1689 32.8975L20.1797 30.627L19.7158 30.0967L19.8232 29.4092L20.2051 26.9561L20.6602 24.0312L21.7129 25.084L22.6572 24.0234L22.7236 23.9404L22.8066 23.874L25.127 21.9512L25.4834 21.6611L25.9307 21.6113L28.5986 21.3301L29.2705 21.2559L29.7676 21.7197L31.9795 23.7666L32.0879 23.874L32.7344 24.6191L35.1865 23.4014L37.4902 21.7441L39.6445 19.8057L39.7188 19.7305L39.8018 19.6807L42.2881 17.9902L42.3623 17.9326L42.4453 17.8994L45.0137 16.5732L47.3008 14.834L47.3262 14.8086L47.3594 14.792L49.8369 13.0938L50.334 12.7451L50.9385 12.8535L52.4883 13.127L53.6152 12L54.3525 13.9141ZM41.3594 38.3418L39.2383 40.3311L39.2305 40.3223L37.1504 42.3027L36.791 42.7617L39.4463 45.502L39.4541 45.5098L41.5254 47.6807L41.5342 47.7061L41.5586 47.7305L43.4814 49.9014L45.5947 52.0146L47.8232 53.8623L47.8984 53.9375L50.0693 56.0088L50.1357 56.0752L50.1934 56.1494L52.0166 58.3867L54.1045 60.541L56.1924 62.6631L58.3389 64.6924L60.5264 66.748L60.5684 66.7891L62.6729 68.9268L62.6807 68.9355L64.7607 71.0986L66.8486 73.2529H66.832L68.9873 75.2246L69.0205 75.2412L71.1328 77.3545L73.3037 79.4258L73.3789 79.4844L73.4365 79.5586L75.251 81.7881L77.4395 83.6934L77.5049 83.7432L77.5635 83.8008L79.502 85.9229L81.7891 87.7295L81.8721 87.7949L81.9473 87.8701L84.002 90.0576L86.0732 92.2119L86.082 92.2207L88.1533 94.3916L90.2578 96.4629L90.25 96.4707L92.4287 98.4346L93.8623 99.7363L95.3291 98.8828L96.9785 96.7363L98.1553 95.1289L97.6084 93.6865L95.5195 92.1621L95.3457 92.0381L95.2129 91.8721L93.3408 89.502L91.4102 87.6045L89.1396 85.6328L89.0068 85.5L86.9932 83.2705L85.0459 81.1582L82.7588 79.4014L82.626 79.3018L82.5186 79.1611L80.7041 76.9482L78.6572 74.918L76.3613 72.9707L76.2627 72.8711L76.1709 72.7637L74.3398 70.502L72.2432 68.4551L72.21 68.4219L70.1309 66.2588L70.1055 66.2344L68.1582 64.1045L65.8467 62.4385L65.6719 62.3145L65.54 62.1484L63.7246 59.8203L61.6367 57.9307L61.5625 57.8564L61.5039 57.7822L59.665 55.6279L57.3613 53.9375L57.1787 53.8047L57.0381 53.6143L55.3223 51.2686L53.2266 49.3877L53.1934 49.3545L51.0137 47.291L48.8262 45.2363L48.7598 45.1699L48.6934 45.0869L46.8369 42.7998L44.7246 40.9189L44.6162 40.8115L42.6855 38.6982L41.7812 38.0205L41.3594 38.3418ZM51.3936 66.0146L49.2734 68.0625L47.2705 70.2471L47.249 70.2695L47.2266 70.292L45.1338 72.3916L43.0654 74.5664L43 74.6348L42.9268 74.6934L40.6924 76.5186L38.8066 78.6943L38.75 78.7588L38.6865 78.8174L36.5586 80.7695L34.7646 83.041L34.6963 83.127L34.6162 83.2031L32.4434 85.249L30.2832 87.332L30.2773 87.3379L28.1367 89.3779L26.0459 91.4863L24.0557 93.6865H24.0547L22.7529 95.1328L23.6035 96.5938L25.7744 98.251L27.3604 99.418L28.8086 98.8652L30.3291 96.7686L30.4512 96.6006L30.6152 96.4717L32.915 94.6611L34.9268 92.626L36.8633 90.3936L36.9229 90.3242L36.9902 90.2637L39.2178 88.248L41.3271 86.3125L43.0879 84.0166L43.1934 83.8789L43.3271 83.7686L45.6016 81.9062L47.6123 79.8682L49.5264 77.6191L49.6182 77.5107L49.7295 77.4219L52.0098 75.5898L54.0361 73.5049L54.0713 73.4697L56.2324 71.3887L56.2627 71.3604L58.3643 69.4434L58.6201 69.0869L58.4717 68.9355L56.2842 66.8809L56.2754 66.8721L54.0967 64.8086L54.0635 64.7754L53.3887 64.0898L51.3936 66.0146ZM74.8066 42.7764L74.7676 42.8135L72.5498 44.7695L70.5078 46.8174L68.627 49.0762L68.5928 49.1162L68.5566 49.1533L66.4805 51.3203L66.417 51.3867L66.3467 51.4443L64.0537 53.3145L62.7295 54.5957L63.7334 55.7852L65.8711 57.7236L65.9785 57.8154L66.0537 57.9229L67.6035 59.9199L68.5576 58.6201L68.6943 58.4336L68.8818 58.2959L71.2061 56.5967L73.1064 54.4775L73.1338 54.4482L75.1943 52.2676L77.2549 50.085L77.3242 50.0107L77.4033 49.9463L79.6572 48.1289L80.4893 47.1943L80.3369 47.0371L78.207 44.9736L78.1416 44.9072L78.083 44.833L76.3096 42.6123L75.6084 42.0156L74.8066 42.7764ZM49.0576 17.2695L49.0498 17.2783L46.7295 19.0352L46.6211 19.126L46.4971 19.1836L43.8955 20.5098L41.5752 22.1006L39.4121 24.0645L39.2793 24.1641L36.8438 25.9209L36.7441 25.9873L36.6367 26.0449L34.1094 27.2793L32.0703 29.2188L31.9297 29.3594L31.7559 29.4512L29.4023 30.71L27.9189 32.8232L26.4111 35.3926L26.3691 35.4668L26.3115 35.541L24.4805 37.9199H24.4971L22.7646 40.2148L21.4639 42.792L21.3896 42.9492L21.2734 43.082L19.3672 45.3359L17.7764 47.6895L16.3096 50.2666L16.2354 50.3906L16.1445 50.498L14.6611 52.2305L15.0254 53.8711L16.8232 55.7354L16.8486 55.7598L18.5059 57.583L20.0557 57.8232L21.6875 56.4893L23.3867 54.2441L23.4443 54.1689L23.5107 54.1025L25.499 52.0811L26.9824 49.6367L27.0986 49.4375L27.2725 49.2803L29.4268 47.3906L31.1338 45.1035L31.167 45.0703L33.0156 42.709L34.8711 40.3555L34.9463 40.2646L35.0205 40.1904L37.1836 38.1436L39.3877 36.0879L39.4375 36.0381L39.5039 35.9893L41.7822 34.2568L43.7129 32.1104L43.8369 31.9697L43.9863 31.8701L46.3975 30.2549L48.7393 28.3926L50.8311 26.418L50.9053 26.3438L53.2178 24.4297L53.251 24.3965L53.292 24.3711L55.5791 22.6973L56.7305 21.3633L55.9102 19.8965L54.1787 17.7998L52.3223 16.1426L51.0303 15.9111L49.0576 17.2695ZM76.6748 20.7861L75.0254 23.0645L74.9014 23.2383L74.7354 23.3545L72.4482 25.1611L70.46 27.166L68.7109 29.1631L68.3057 30.6631L69.6562 32.2129L71.9346 33.9609L72.0752 34.0693L72.1836 34.21L74.0225 36.4307L76.0449 38.4521L78.3398 40.3994L78.4395 40.499L78.5303 40.6074L80.3535 42.8613L82.4502 44.9072L82.4834 44.9404L84.5635 47.1035L84.5967 47.1367L86.5273 49.25L88.8477 50.9238L89.0215 51.0479L89.1533 51.2139L90.6455 53.1025L93.0322 53.3848L95.7832 53.6826L98.6748 53.3262L98.8984 53.3018L99.1309 53.335L101.435 53.749L102.595 52.7715L102.495 50.501L102.503 50.4932L102.338 47.5264L102.329 47.418L102.338 47.3271L102.569 44.4932L102.255 42.041L100.729 40.168L98.459 38.4775L98.3018 38.3701L98.1855 38.2207L96.3633 35.9502L94.291 33.7959L94.2998 33.7871L92.1455 31.8984L92.1035 31.873L92.0625 31.832L89.9492 29.7021L89.8828 29.6357L87.9443 27.3984L85.8809 25.4678V25.4844L83.5771 23.5449L83.4697 23.4541L83.3867 23.3545L81.5547 21.1426L79.9062 19.6094L78.4473 19.4932L76.6748 20.7861ZM26.6934 24.5449L24.7871 26.1191L23.0723 28.0508L22.8896 29.1777L24.3643 30.8682L25.1709 31.5879L25.3506 31.2822L25.375 31.2236L25.417 31.1826L27.1484 28.7051L27.3477 28.4062L27.6621 28.2412L30.1729 26.9072L30.4805 26.6113L29.8506 25.8955L28.2256 24.3877L26.6934 24.5449ZM91.6309 25.625L90.9893 26.335L92.1455 27.6553H92.1289L94.126 29.6523L96.1885 31.4727L96.584 31.1279L98.1094 29.4854L97.9463 27.9521L96.3867 26.0723L94.4355 24.3252L93.3174 24.1533L91.6309 25.625Z" fill="black"/>
</svg>
