<svg xmlns="http://www.w3.org/2000/svg" width="120" height="120" fill="none" viewBox="0 0 120 120"><path fill="#000" d="m57.76 10.512 2.625.199.234.023.223.082 2.426 1.008.187.094 2.227 1.324.304.188.188.293 1.394 2.168.164.246.047.293.48 2.554.013.082.011.07.211 2.602.422 1.957 1.43 1.395 2.156 1.23.316.176.2.305 1.453 2.25.281.433-.035.504-.176 2.028 1.816.879.27.14.2.223 1.71 1.957.2.222.093.27.867 2.473.082.234v.246l.012 2.649v.164l-.27 2.625-.011.129-.035.117-.645 2.332.152 2.437.012.235-.058.246-.704 2.566-.468 2.309.175 2.531.027.418.991 1.621.106.176.058.2.692 2.519.023.07.574 2.578.035.152.012.141.07 2.66v.246l-.07.235-.773 2.53-.012.024-.012.036-.89 2.472-.082.234-.153.188-.066.083 1.387 1.07 2.19 1.008 2.438 1.02.082.035.07.035 2.427 1.348.093.07 1.98 1.559 2.216 1.253.082.047.082.059 2.12 1.558.048.036.035.035 2.015 1.723.012.011 1.992 1.746.106.094.082.105 1.64 2.086.012.012h.012l1.594 2.11.07.082.047.093 1.289 2.297.023.047 1.207 2.344.012.023 1.16 2.38.047.093.035.094.832 2.472.891 2.473.023.047.821 2.519v.012l.797 2.531.046.153.012.164.199 2.508.528 2.437.356 1.253 1.23-.125.082-.012h.082l1.043.012-.012 1.5-.024 1.5-.996-.012-2.507.258-.223.024-.223-.036-2.461-.492-2.425.012-2.497.434-.152.023-.164-.012-2.637-.105h-.07l-.07-.012-2.403-.34-2.39.469-.235.047-.234-.024-2.555-.328-2.531.012-.012-.012-2.59.082h-.011l-2.637.059h-.023l-2.567.012.012.011-2.637.176-.187.012-2.625-.492-2.39.281-.13.012h-.129l-2.554-.141-2.555.164h-.129l-.129-.012-2.496-.281-2.461.27h-.07l-2.637.152-.152.012-.141-.024-2.543-.351-2.508.058h-.058l-2.637-.058v-.012h-2.637l-2.625-.047-2.496.223-.035.011h-.047l-2.637.094h-.117l-2.636-.105v-.012l-2.59-.012h-.047l-.047-.011-2.578-.176-2.532.129h-.082l-2.636-.012v-.012l-2.508.024-2.637.234-.14.012-.153-.012-2.531-.281-2.578.012v-.012l-1.065.073-.103.541H13.5v-.447l-.121.009h-.012l-.012.011-2.648.118-.094.011-.082-.011-2.543-.188.012-.223V114.5h.21l2.462.199 1.68-.079.468-2.307.059-.246.129-.222 1.324-2.239.094-.152.117-.117 1.816-1.899.047-.035.047-.047 1.992-1.757.13-.106.152-.082 2.015-1.101 1.324-1.875.059-.082.07-.071 1.723-1.875.129-.129.152-.105 2.019-1.343-2.202-1.433-.106-.07-.082-.07-1.98-1.77-.024-.023-.023-.035-1.875-1.852-.2-.187-.105-.258-1.078-2.38-.047-.105-.035-.117L17.78 88l-.14-.48.187-.47.856-2.155.07-.165.094-.14 1.277-1.84.516-2.238.445-2.531.047-.258.117-.223 1.313-2.332.293-.527.585-.176 2.52-.75.082-.024.082-.011 2.578-.48h.035l.035-.013 2.625-.351.066-.008.085-.652.07-.54.422-.374 1.969-1.781.093-.083.118-.07 2.215-1.383.082-.047.093-.046 2.403-1.09.129-.047.129-.035.36-.09.007-.057.046-.375.2-.304 1.37-2.075.165-.258.258-.175 2.168-1.442.105-.07.117-.047.9-.4.03-.303.269-2.648.046-.41.247-.34 1.453-1.97.902-2.296.773-2.367.61-2.532.504-2.414.187-2.578v-.035l.012-.023.293-2.637.012-.117.023-.106.703-2.554.047-.153.07-.14 1.207-2.32.235-.458.445-.21 2.297-1.09.059-.036.07-.023 1.582-.586.059-.785-1.043-.82-2.192-.059-.62-.024-.434-.457-1.794-1.921-.222-.235-.106-.304-.808-2.356-.082-.223v-.246l-.047-2.636v-.012l-.024-2.555-.217-1.65-.813-.452.176-1.043.387-2.203.082-.493.351-.34 1.887-1.804.176-.164.222-.106 2.403-1.125.199-.105.223-.024 2.789-.398zM74.246 76.98l-.105.058-.118.035-2.53.832-.141.047-.153.012-1.681.202 2.043 1.061 2.355.915.059.023.058.035 2.39 1.16.282.141.093.113.728-.446.305-.188.34-.035 2.508-.234.55-.059.457.328 2.11 1.5.117.083.117.117 1.793 1.945.094.105.07.13 1.36 2.203 1.547 2.039 1.593 2.109.059.082.047.082 1.195 2.11 1.465 1.406.094.082.082.105.058.082-1.207.89-.469.34-.62.669-.478-.45-.598.14-.328.07-.328-.07-2.508-.54-.094-.022-2.543-.715-.035-.012-.047-.012-2.507-.867-.223-.07-.187-.14-2.04-1.513-2.25-1.02-.035-.01-.023-.013-2.262-1.148-2.402-.738-.059-.012-.047-.024-2.344-.913-2.437-.364-.14-.023-.141-.047-2.332-.832-2.531-.434v-.012l-2.579-.386-.117-.024-2.414-.586-2.531-.117h-.012l-2.648-.14-.153-.012-.164-.047-2.437-.668-2.532-.293-.105-.023-.094-.024-2.554-.668-.024-.012h-.035l-2.484-.761-.364-.106-.27-.28-.951-.965-2.548-.209-.223-.023-.199-.082-2.402-.95-.364-.14-.246-.305-1.617-1.992-.2-.246-.081-.305-.551-2.042-2.178.288-2.414.457-1.91.563-.879 1.57-.41 2.367v.036l-.012.035-.574 2.531-.07.281-.164.246-1.371 1.946-.598 1.488.539 1.969.902 1.992 1.63 1.617 1.886 1.7 2.098 1.359 2.097 1.136 2.285.586 2.485.211.2.012.187.07 2.402.867 2.543.739h-.012l2.531.691.07.024 2.52.832.106.035.093.047 2.286 1.148-.352.68-.234.691-.492 1.418-.188-.07-.082-.035-2.215-1.114-2.309-.761-2.542-.692-.012-.011h-.012l-2.531-.739-.047-.011-.035-.012-2.332-.844-2.438-.199-.129-.012-.117-.035-1.96-.511-1.63.802-1.98 1.301-1.524 1.652-1.476 2.133-.2.293-.316.164-2.18 1.16-1.792 1.559-1.676 1.758-1.137 1.898-.249 1.249.362-.023h.094l2.637-.012.094-.012.082.012 2.508.281 2.484-.211.047-.012h.058l2.649-.023h.023l2.555.012 2.648-.118.082-.011.082.011 2.649.176-.012.012 2.555.012h.047l2.59.105 2.496-.082 2.648-.246h.152l2.637.047-.012.012h2.66l2.602.058 2.613-.058h.13l.117.011 2.484.364 2.496-.164v.011l2.578-.281.152-.012.164.012 2.485.293 2.543-.152.082-.012.082.012 2.531.129 2.496-.293.235-.036.222.047 2.45.457 2.449-.152.047-.012h.035l2.625-.011v-.012l2.636-.059 2.637-.07h.035l2.637-.012h.106l.093.012 2.39.316 2.415-.468.246-.047.234.035 2.578.351 2.379.106 2.52-.434.117-.011h.117l2.637-.024h.152l.153.024.415.081-.044-.155-.024-.093-.562-2.567-.012-.105-.012-.094-.21-2.473-.739-2.367-.82-2.519v-.012l-.879-2.414v-.024l-.012-.011-.832-2.45-1.09-2.226-1.183-2.297-1.242-2.215-1.524-2.004v-.011l-1.547-1.946-1.886-1.652V86.7l-1.993-1.699v-.012l-2.004-1.465-2.19-1.23-.106-.059-.082-.07-1.957-1.547L83.23 79.4l-2.344-.96-.047-.024-2.414-1.113-.153-.07-.129-.106-1.68-1.294zm1.819-16.793-.212.292-.316.165-2.379 1.218-.011-.011-2.239 1.265-.246.14-.281.036-2.473.328-2.566.621-.2.047h-.199l-2.59-.082-2.238.316-2.355.938-.059.023-.07.024-2.52.726-.058.024-2.461.492-2.168 1.125-.047.023-.059.012-2.261.961-2.004 1.406-1.992 1.524-1.57 1.77-1.184 1.84-.27 2.108.316 1.934 1.254 1.29 2.075.632h.011l2.403.633 2.566.305.106.011.117.035 2.425.657 2.45.14 2.66.13h.14l.13.034 2.507.598 2.567.398h.023l2.613.47.118.01.117.048 2.343.82 2.52.387.164.023.152.059 2.356.926 2.543.785.129.035.105.058 2.367 1.196h-.011l2.367 1.055.152.07.13.105 1.968 1.453 2.215.762 2.543.715h-.012l.63.134-.293-.516-1.5-2.004-1.594-2.097-.047-.059-.035-.059-1.324-2.132-1.606-1.746-1.5-1.067-1.605.152-.725.453-.342.56-.785 1.277-.305-.187-.211-.129-.153-.187-1.464-1.782-1.97-.96-2.472-.962-.07-.023-.082-.035-2.356-1.23-.21-.106-.165-.176-1.804-1.828.199-.2-.057.003-.175.011-.176-.035-2.578-.527-2.567-.516-2.566-.375-.024-.011H57.7l-2.578-.493v-.011l-2.484-.235v-.011l-2.532-.082-.292-.012-.27-.117-.2-.094.622-1.36.21-.492.048-.925 2.625.105h.093l2.614.27h.07l.059.011 2.52.48 2.624.4.035.01h.035l2.579.516 2.379.481 2.367-.082L70.719 75l2.191-.727 1.992-1.007 1.125-1.43.809-2.238.68-2.25-.059-2.239-.539-2.378-.645-2.32-.17-.28zm-35.926 9.35-2.215.996-2.027 1.266-1.454 1.312-.222 1.77.515 1.922 1.172 1.441 1.805.715.537.048-.201-1.23-.035-.212.023-.222.352-2.66.035-.34.187-.281 1.43-2.215.059-.106.082-.082 1.758-1.969.093-.105.106-.082.24-.185-.389-.226zm12.616-46.623.035 2.402.621 1.828 1.172 1.243 2.05.07.493.023.387.293 2.074 1.63.633.491-.059.797-.2 2.543-.07.961-.902.34-2.496.914-1.71.809-.903 1.734-.621 2.262-.282 2.472-.175 2.66-.012.106-.023.094-.54 2.59-.011.023v.012l-.61 2.578-.011.059-.024.058-.832 2.52-.011.047-.012.035-.961 2.472-.07.188-.13.164-1.347 1.805-.08.79.651-.31 2.356-1.183.07-.036.07-.023 1.833-.695.134-1.828.012-.14.035-.129.668-2.555.035-.129.059-.128 1.148-2.403.059-.129.094-.129 1.126-1.497-.084-.087-.422-.433v-.598l-.012-2.613v-.281l.105-.258.95-2.473.843-2.227 1.23.481v-1.441h2.356l-.785 2.039-.844 2.226-.855 2.215v1.711l1.113 1.16 2.063.926.644.281.188.68.023.105-1.441.399-.082.011-.317.704.172 2.522v.117l-.023 1.688.17-.057.06-.023.07-.012 2.46-.574 1.758-.598.575-1.7.539-2.331v-2.531l.011-.118.422-2.601.235-2.531.011-.13.035-.117.657-2.472.726.2.739.093 1.488.199-.012.105-.012.094-.023.082-.633 2.332-.234 2.52-.012.058v.047l-.398 2.45v2.707l-.047.164-.61 2.59-.011.07-.024.058-.797 2.414-.234.715-.703.235-2.508.855-.07.024-.07.011-2.473.563-2.473.843-.082.024-.082.012-2.59.562-.011-.012-2.438.586-2.274.856-2.308 1.172h-.012l-.012.011-2.39 1.137-.012.012-.023.012-2.262.984-1.84 1.23-.407.617 1.818 1.064 1.453-1.017.128-.094.153-.07 2.426-1.032 2.261-1.16.176-.094.21-.047 2.567-.527 2.38-.691 2.402-.95.175-.07.176-.023 2.613-.375.13-.024.14.012 2.426.07 2.414-.574.082-.023.07-.012 2.332-.305 2.04-1.136.023-.012.011-.012 2.075-1.078 1.054-1.465-.14-2.191-.012-.2.035-.199.54-2.601v-.047l.01-.047.622-2.309-.129-2.46-.012-.247.059-.234.656-2.437.258-2.368-.012-2.414-.68-1.922-1.347-1.523-1.957-.961-2.309-.96-2.39-.376-.34-.059-.27-.187-2.18-1.477-.163-.105-.13-.152-1.71-2.004-.082-.106-.059-.105-1.031-1.758-1.992-.445-.106-.024-.093-.035-2.497-.96-.398-.153-.258-.34-1.617-2.11-.012-.011-1.43-1.91-.994-.598zm5.093 28.849-1.032 2.168-.597 2.273-.044.643.327-.078h.012l.023-.011 1.71-.366.053-.187.023-2.344-.14-2.402-.032-.098zM55.45 13.828l-1.992.938-1.336 1.289-.105.668 1.207.691.047.023 2.273 1.395.246.152.176.223 1.582 2.11 1.36 1.78 1.956.75 2.567.598.632.14.329.563 1.277 2.192 1.5 1.746 1.71 1.16 2.286.363.176.035.164.07.129.048.035-.516-.984-1.523-1.97-1.114-.163-.093-.13-.13-1.921-1.85-.34-.317-.094-.457-.527-2.567-.023-.093v-.094l-.223-2.613h-.012l-.398-2.122-1.055-1.64-1.793-1.067-2.144-.89-2.203-.164z"/></svg>