<svg width="120" height="120" viewBox="0 0 120 120" fill="none" xmlns="http://www.w3.org/2000/svg">
<path d="M8.1 116V117.5H8.13227L8.16451 117.499L8.1 116ZM10.64 115.891L10.797 114.399L10.6865 114.387L10.5755 114.392L10.64 115.891ZM13.28 116.169L13.123 117.66L13.2739 117.676L13.425 117.662L13.28 116.169ZM15.92 115.912L15.8596 114.413L15.8172 114.415L15.775 114.419L15.92 115.912ZM18.56 115.806L18.6763 114.31L18.588 114.303L18.4996 114.307L18.56 115.806ZM21.2 116.011L21.0837 117.507L21.1392 117.511L21.1948 117.511L21.2 116.011ZM23.84 116.02L23.8348 117.52L23.8912 117.52L23.9474 117.516L23.84 116.02ZM26.48 115.831L26.5223 114.331L26.4473 114.329L26.3726 114.334L26.48 115.831ZM29.12 115.905L29.2963 114.415L29.2295 114.408L29.1623 114.406L29.12 115.905ZM31.76 116.217L31.5837 117.707L31.7941 117.732L32.0032 117.698L31.76 116.217ZM34.4 115.784L34.4793 114.286L34.3171 114.277L34.1568 114.303L34.4 115.784ZM37.04 115.923L36.9607 117.421L37.0493 117.426L37.1379 117.42L37.04 115.923ZM39.68 115.751L39.8617 114.262L39.7223 114.245L39.5821 114.254L39.68 115.751ZM42.32 116.073L42.1383 117.562L42.2533 117.576L42.3692 117.572L42.32 116.073ZM44.96 115.986L44.9117 114.487L44.9108 114.487L44.96 115.986ZM47.6 115.901L47.6483 117.401L47.6707 117.4L47.693 117.398L47.6 115.901ZM50.24 115.737L50.5012 114.26L50.3253 114.229L50.147 114.24L50.24 115.737ZM52.88 116.204L52.6188 117.681L52.879 117.727L53.1393 117.682L52.88 116.204ZM55.52 115.741L55.6608 114.247L55.4596 114.228L55.2606 114.263L55.52 115.741ZM58.16 115.99L58.0192 117.483L58.1299 117.493L58.2409 117.487L58.16 115.99ZM60.8 115.847L61.0126 114.362L60.8665 114.341L60.7191 114.349L60.8 115.847ZM63.44 116.225L63.2274 117.71L63.4714 117.745L63.7137 117.7L63.44 116.225ZM66.08 115.735L66.1582 114.237L65.9809 114.228L65.8063 114.26L66.08 115.735ZM68.72 115.873L68.6418 117.371L68.6647 117.372L68.6878 117.373L68.72 115.873ZM71.36 115.93L71.3278 117.429L71.3564 117.43L71.3849 117.429L71.36 115.93ZM74 115.886L74.185 114.397L74.0804 114.384L73.975 114.386L74 115.886ZM76.64 116.214L76.455 117.702L76.6155 117.722L76.7765 117.708L76.64 116.214ZM79.28 115.973L79.2685 114.473L79.2059 114.473L79.1435 114.479L79.28 115.973ZM81.92 115.952L82.0888 114.462L81.9989 114.452L81.9085 114.452L81.92 115.952ZM84.56 116.251L84.3912 117.742L84.5876 117.764L84.783 117.735L84.56 116.251ZM87.2 115.854L87.2734 114.356L87.1245 114.349L86.977 114.371L87.2 115.854ZM89.84 115.984L89.9255 114.486L89.9134 114.486L89.84 115.984ZM92.48 116.135L92.3945 117.632L92.4978 117.638L92.6008 117.63L92.48 116.135ZM95.12 115.921L95.1099 114.421L95.0544 114.422L94.9992 114.426L95.12 115.921ZM97.76 115.903L97.9616 114.417L97.8562 114.403L97.7499 114.403L97.76 115.903ZM100.4 116.261L100.198 117.748L100.434 117.78L100.667 117.737L100.4 116.261ZM103.04 115.784L103.284 114.304L103.028 114.262L102.773 114.308L103.04 115.784ZM105.68 116.219L105.436 117.699L105.576 117.722L105.719 117.718L105.68 116.219ZM108.32 116.151L108.359 117.65L108.453 117.648L108.546 117.634L108.32 116.151ZM110.96 115.748L111.313 114.29L111.026 114.221L110.734 114.265L110.96 115.748ZM8 116V117.5H8.1V116V114.5H8V116ZM8.1 116L8.16451 117.499L10.7045 117.389L10.64 115.891L10.5755 114.392L8.03549 114.501L8.1 116ZM10.64 115.891L10.483 117.382L13.123 117.66L13.28 116.169L13.437 114.677L10.797 114.399L10.64 115.891ZM13.28 116.169L13.425 117.662L16.065 117.405L15.92 115.912L15.775 114.419L13.135 114.676L13.28 116.169ZM15.92 115.912L15.9804 117.411L18.6204 117.305L18.56 115.806L18.4996 114.307L15.8596 114.413L15.92 115.912ZM18.56 115.806L18.4437 117.301L21.0837 117.507L21.2 116.011L21.3163 114.516L18.6763 114.31L18.56 115.806ZM21.2 116.011L21.1948 117.511L23.8348 117.52L23.84 116.02L23.8452 114.52L21.2052 114.511L21.2 116.011ZM23.84 116.02L23.9474 117.516L26.5874 117.327L26.48 115.831L26.3726 114.334L23.7326 114.524L23.84 116.02ZM26.48 115.831L26.4377 117.33L29.0777 117.404L29.12 115.905L29.1623 114.406L26.5223 114.331L26.48 115.831ZM29.12 115.905L28.9437 117.395L31.5837 117.707L31.76 116.217L31.9363 114.728L29.2963 114.415L29.12 115.905ZM31.76 116.217L32.0032 117.698L34.6432 117.264L34.4 115.784L34.1568 114.303L31.5168 114.737L31.76 116.217ZM34.4 115.784L34.3207 117.282L36.9607 117.421L37.04 115.923L37.1193 114.426L34.4793 114.286L34.4 115.784ZM37.04 115.923L37.1379 117.42L39.7779 117.248L39.68 115.751L39.5821 114.254L36.9421 114.427L37.04 115.923ZM39.68 115.751L39.4983 117.24L42.1383 117.562L42.32 116.073L42.5017 114.584L39.8617 114.262L39.68 115.751ZM42.32 116.073L42.3692 117.572L45.0092 117.486L44.96 115.986L44.9108 114.487L42.2708 114.574L42.32 116.073ZM44.96 115.986L45.0083 117.486L47.6483 117.401L47.6 115.901L47.5517 114.402L44.9117 114.487L44.96 115.986ZM47.6 115.901L47.693 117.398L50.333 117.234L50.24 115.737L50.147 114.24L47.507 114.404L47.6 115.901ZM50.24 115.737L49.9788 117.214L52.6188 117.681L52.88 116.204L53.1412 114.727L50.5012 114.26L50.24 115.737ZM52.88 116.204L53.1393 117.682L55.7793 117.218L55.52 115.741L55.2606 114.263L52.6207 114.727L52.88 116.204ZM55.52 115.741L55.3792 117.234L58.0192 117.483L58.16 115.99L58.3008 114.496L55.6608 114.247L55.52 115.741ZM58.16 115.99L58.2409 117.487L60.8809 117.345L60.8 115.847L60.7191 114.349L58.0791 114.492L58.16 115.99ZM60.8 115.847L60.5874 117.332L63.2274 117.71L63.44 116.225L63.6526 114.74L61.0126 114.362L60.8 115.847ZM63.44 116.225L63.7137 117.7L66.3537 117.21L66.08 115.735L65.8063 114.26L63.1663 114.75L63.44 116.225ZM66.08 115.735L66.0018 117.233L68.6418 117.371L68.72 115.873L68.7982 114.375L66.1582 114.237L66.08 115.735ZM68.72 115.873L68.6878 117.373L71.3278 117.429L71.36 115.93L71.3922 114.43L68.7522 114.373L68.72 115.873ZM71.36 115.93L71.3849 117.429L74.0249 117.386L74 115.886L73.975 114.386L71.335 114.43L71.36 115.93ZM74 115.886L73.815 117.374L76.455 117.702L76.64 116.214L76.825 114.725L74.185 114.397L74 115.886ZM76.64 116.214L76.7765 117.708L79.4165 117.466L79.28 115.973L79.1435 114.479L76.5035 114.72L76.64 116.214ZM79.28 115.973L79.2915 117.473L81.9315 117.452L81.92 115.952L81.9085 114.452L79.2685 114.473L79.28 115.973ZM81.92 115.952L81.7512 117.443L84.3912 117.742L84.56 116.251L84.7288 114.761L82.0888 114.462L81.92 115.952ZM84.56 116.251L84.783 117.735L87.423 117.338L87.2 115.854L86.977 114.371L84.337 114.768L84.56 116.251ZM87.2 115.854L87.1266 117.353L89.7666 117.482L89.84 115.984L89.9134 114.486L87.2734 114.356L87.2 115.854ZM89.84 115.984L89.7545 117.481L92.3945 117.632L92.48 116.135L92.5655 114.637L89.9255 114.486L89.84 115.984ZM92.48 116.135L92.6008 117.63L95.2408 117.416L95.12 115.921L94.9992 114.426L92.3592 114.639L92.48 116.135ZM95.12 115.921L95.1301 117.421L97.7701 117.403L97.76 115.903L97.7499 114.403L95.1099 114.421L95.12 115.921ZM97.76 115.903L97.5584 117.39L100.198 117.748L100.4 116.261L100.602 114.775L97.9616 114.417L97.76 115.903ZM100.4 116.261L100.667 117.737L103.307 117.26L103.04 115.784L102.773 114.308L100.133 114.785L100.4 116.261ZM103.04 115.784L102.796 117.264L105.436 117.699L105.68 116.219L105.924 114.738L103.284 114.304L103.04 115.784ZM105.68 116.219L105.719 117.718L108.359 117.65L108.32 116.151L108.281 114.651L105.641 114.719L105.68 116.219ZM108.32 116.151L108.546 117.634L111.186 117.231L110.96 115.748L110.734 114.265L108.094 114.668L108.32 116.151ZM110.96 115.748L110.607 117.206L111.647 117.458L112 116L112.353 114.542L111.313 114.29L110.96 115.748Z" fill="black"/>
<path d="M13 107V105.5H11.5561L11.5011 106.943L13 107ZM13.1 107V108.5H13.1323L13.1645 108.499L13.1 107ZM15.64 106.891L15.797 105.399L15.6865 105.387L15.5755 105.392L15.64 106.891ZM18.28 107.169L18.123 108.66L18.2739 108.676L18.425 108.662L18.28 107.169ZM20.92 106.912L20.8596 105.413L20.8172 105.415L20.775 105.419L20.92 106.912ZM23.56 106.806L23.6763 105.31L23.588 105.303L23.4996 105.307L23.56 106.806ZM26.2 107.011L26.0837 108.507L26.1392 108.511L26.1948 108.511L26.2 107.011ZM28.84 107.02L28.8348 108.52L28.8912 108.52L28.9474 108.516L28.84 107.02ZM31.48 106.831L31.5223 105.331L31.4473 105.329L31.3726 105.334L31.48 106.831ZM34.12 106.905L34.2963 105.415L34.2295 105.408L34.1623 105.406L34.12 106.905ZM36.76 107.217L36.5837 108.707L36.7941 108.732L37.0032 108.698L36.76 107.217ZM39.4 106.784L40.8368 106.353L40.458 105.09L39.1568 105.303L39.4 106.784ZM40.0766 109.04L41.5734 108.942L41.5623 108.772L41.5134 108.609L40.0766 109.04ZM40.2493 111.68L41.7382 111.862L41.7552 111.722L41.7461 111.582L40.2493 111.68ZM39.9271 114.32L41.2558 115.016L41.3829 114.773L41.416 114.502L39.9271 114.32ZM39.04 116.014L39.0883 117.513L39.9628 117.485L40.3688 116.71L39.04 116.014ZM36.4 116.099L36.3517 114.599L36.3293 114.6L36.307 114.602L36.4 116.099ZM33.76 116.263L33.4988 117.74L33.6747 117.771L33.853 117.76L33.76 116.263ZM31.12 115.796L31.3812 114.319L31.121 114.273L30.8607 114.318L31.12 115.796ZM28.48 116.259L28.3392 117.753L28.5404 117.772L28.7393 117.737L28.48 116.259ZM25.84 116.01L25.9808 114.517L25.8701 114.507L25.7591 114.513L25.84 116.01ZM23.2 116.153L22.9874 117.638L23.1335 117.659L23.2809 117.651L23.2 116.153ZM20.56 115.775L20.7726 114.29L20.5286 114.255L20.2863 114.3L20.56 115.775ZM17.92 116.265L17.8418 117.763L18.0191 117.772L18.1937 117.74L17.92 116.265ZM15.28 116.127L14.9756 117.596L15.0876 117.619L15.2018 117.625L15.28 116.127ZM12.9297 115.64L11.4299 115.665L11.4499 116.865L12.6253 117.109L12.9297 115.64ZM12.8858 113L11.3972 112.815L11.3842 112.92L11.386 113.025L12.8858 113ZM13.2139 110.36L14.7024 110.545L14.7224 110.385L14.7076 110.223L13.2139 110.36ZM12.9726 107.72L11.4737 107.663L11.47 107.76L11.4788 107.857L12.9726 107.72ZM13 107V108.5H13.1V107V105.5H13V107ZM13.1 107L13.1645 108.499L15.7045 108.389L15.64 106.891L15.5755 105.392L13.0355 105.501L13.1 107ZM15.64 106.891L15.483 108.382L18.123 108.66L18.28 107.169L18.437 105.677L15.797 105.399L15.64 106.891ZM18.28 107.169L18.425 108.662L21.065 108.405L20.92 106.912L20.775 105.419L18.135 105.676L18.28 107.169ZM20.92 106.912L20.9804 108.411L23.6204 108.305L23.56 106.806L23.4996 105.307L20.8596 105.413L20.92 106.912ZM23.56 106.806L23.4437 108.301L26.0837 108.507L26.2 107.011L26.3163 105.516L23.6763 105.31L23.56 106.806ZM26.2 107.011L26.1948 108.511L28.8348 108.52L28.84 107.02L28.8452 105.52L26.2052 105.511L26.2 107.011ZM28.84 107.02L28.9474 108.516L31.5874 108.327L31.48 106.831L31.3726 105.334L28.7326 105.524L28.84 107.02ZM31.48 106.831L31.4377 108.33L34.0777 108.404L34.12 106.905L34.1623 105.406L31.5223 105.331L31.48 106.831ZM34.12 106.905L33.9437 108.395L36.5837 108.707L36.76 107.217L36.9363 105.728L34.2963 105.415L34.12 106.905ZM36.76 107.217L37.0032 108.698L39.6432 108.264L39.4 106.784L39.1568 105.303L36.5168 105.737L36.76 107.217ZM39.4 106.784L37.9632 107.214L38.6398 109.471L40.0766 109.04L41.5134 108.609L40.8368 106.353L39.4 106.784ZM40.0766 109.04L38.5798 109.138L38.7524 111.778L40.2493 111.68L41.7461 111.582L41.5734 108.942L40.0766 109.04ZM40.2493 111.68L38.7603 111.498L38.4381 114.138L39.9271 114.32L41.416 114.502L41.7382 111.862L40.2493 111.68ZM39.9271 114.32L38.5983 113.624L37.7112 115.318L39.04 116.014L40.3688 116.71L41.2558 115.016L39.9271 114.32ZM39.04 116.014L38.9917 114.514L36.3517 114.599L36.4 116.099L36.4483 117.598L39.0883 117.513L39.04 116.014ZM36.4 116.099L36.307 114.602L33.667 114.766L33.76 116.263L33.853 117.76L36.493 117.596L36.4 116.099ZM33.76 116.263L34.0212 114.786L31.3812 114.319L31.12 115.796L30.8588 117.273L33.4988 117.74L33.76 116.263ZM31.12 115.796L30.8607 114.318L28.2207 114.782L28.48 116.259L28.7393 117.737L31.3794 117.273L31.12 115.796ZM28.48 116.259L28.6208 114.766L25.9808 114.517L25.84 116.01L25.6992 117.504L28.3392 117.753L28.48 116.259ZM25.84 116.01L25.7591 114.513L23.1191 114.655L23.2 116.153L23.2809 117.651L25.9209 117.508L25.84 116.01ZM23.2 116.153L23.4126 114.668L20.7726 114.29L20.56 115.775L20.3474 117.26L22.9874 117.638L23.2 116.153ZM20.56 115.775L20.2863 114.3L17.6463 114.79L17.92 116.265L18.1937 117.74L20.8337 117.25L20.56 115.775ZM17.92 116.265L17.9982 114.767L15.3582 114.629L15.28 116.127L15.2018 117.625L17.8418 117.763L17.92 116.265ZM15.28 116.127L15.5844 114.658L13.2341 114.171L12.9297 115.64L12.6253 117.109L14.9756 117.596L15.28 116.127ZM12.9297 115.64L14.4295 115.615L14.3856 112.975L12.8858 113L11.386 113.025L11.4299 115.665L12.9297 115.64ZM12.8858 113L14.3743 113.185L14.7024 110.545L13.2139 110.36L11.7253 110.175L11.3972 112.815L12.8858 113ZM13.2139 110.36L14.7076 110.223L14.4663 107.583L12.9726 107.72L11.4788 107.857L11.7201 110.497L13.2139 110.36ZM12.9726 107.72L14.4715 107.777L14.4989 107.057L13 107L11.5011 106.943L11.4737 107.663L12.9726 107.72Z" fill="black"/>
<path d="M21 107L20.7719 108.483L20.8639 105.506L21 107ZM21.0996 106.991L20.9635 105.497L21.0663 105.488L21.1694 105.493L21.0996 106.991ZM23.64 107.109L23.797 108.601L23.6838 108.613L23.5702 108.608L23.64 107.109ZM26.28 106.831L26.123 105.34L26.2739 105.324L26.425 105.338L26.28 106.831ZM28.92 107.088L28.8596 108.587L28.8172 108.585L28.775 108.581L28.92 107.088ZM31.56 107.194L33.0588 107.254L32.9989 108.753L31.4996 108.693L31.56 107.194ZM31.6545 104.827L33.1363 104.594L33.1592 104.74L33.1533 104.887L31.6545 104.827ZM31.2441 102.219L29.7623 102.453L29.7536 102.397L29.749 102.341L31.2441 102.219ZM31.03 99.5812L32.5056 99.3115L32.519 99.3852L32.5251 99.4599L31.03 99.5812ZM30.555 96.9832L32.0005 96.5825L32.0185 96.6473L32.0306 96.7135L30.555 96.9832ZM29.8449 94.4214L30.2823 92.9866L31.0703 93.2269L31.2904 94.0207L29.8449 94.4214ZM27.7529 93.7836L27.6736 92.2857L27.9376 92.2717L28.1904 92.3488L27.7529 93.7836ZM25.1129 93.9234L24.7776 92.4614L24.904 92.4324L25.0336 92.4255L25.1129 93.9234ZM22.6735 94.483L21.1742 94.4362L21.2103 93.2797L22.3381 93.021L22.6735 94.483ZM22.5905 97.1413L24.0898 97.1881L24.0862 97.304L24.0648 97.4179L22.5905 97.1413ZM22.1035 99.7374L20.629 99.4617L20.6292 99.4609L22.1035 99.7374ZM21.618 102.334L23.0924 102.61L23.0883 102.632L23.0836 102.653L21.618 102.334ZM21.0545 104.918L19.5582 105.023L19.5432 104.808L19.5889 104.599L21.0545 104.918ZM21.2018 107.031L22.6982 106.927L22.8288 108.799L20.9738 108.514L21.2018 107.031ZM21 107L20.8639 105.506L20.9635 105.497L21.0996 106.991L21.2357 108.485L21.1361 108.494L21 107ZM21.0996 106.991L21.1694 105.493L23.7098 105.611L23.64 107.109L23.5702 108.608L21.0298 108.489L21.0996 106.991ZM23.64 107.109L23.483 105.618L26.123 105.34L26.28 106.831L26.437 108.323L23.797 108.601L23.64 107.109ZM26.28 106.831L26.425 105.338L29.065 105.595L28.92 107.088L28.775 108.581L26.135 108.324L26.28 106.831ZM28.92 107.088L28.9804 105.589L31.6204 105.695L31.56 107.194L31.4996 108.693L28.8596 108.587L28.92 107.088ZM31.56 107.194L30.0612 107.134L30.1557 104.767L31.6545 104.827L33.1533 104.887L33.0588 107.254L31.56 107.194ZM31.6545 104.827L30.1728 105.06L29.7623 102.453L31.2441 102.219L32.7259 101.986L33.1363 104.594L31.6545 104.827ZM31.2441 102.219L29.749 102.341L29.5349 99.7025L31.03 99.5812L32.5251 99.4599L32.7392 102.098L31.2441 102.219ZM31.03 99.5812L29.5545 99.851L29.0795 97.253L30.555 96.9832L32.0306 96.7135L32.5056 99.3115L31.03 99.5812ZM30.555 96.9832L29.1096 97.3839L28.3994 94.8221L29.8449 94.4214L31.2904 94.0207L32.0005 96.5825L30.555 96.9832ZM29.8449 94.4214L29.4074 95.8562L27.3155 95.2184L27.7529 93.7836L28.1904 92.3488L30.2823 92.9866L29.8449 94.4214ZM27.7529 93.7836L27.8323 95.2815L25.1923 95.4213L25.1129 93.9234L25.0336 92.4255L27.6736 92.2857L27.7529 93.7836ZM25.1129 93.9234L25.4483 95.3854L23.0089 95.945L22.6735 94.483L22.3381 93.021L24.7776 92.4614L25.1129 93.9234ZM22.6735 94.483L24.1728 94.5298L24.0898 97.1881L22.5905 97.1413L21.0912 97.0945L21.1742 94.4362L22.6735 94.483ZM22.5905 97.1413L24.0648 97.4179L23.5778 100.014L22.1035 99.7374L20.6292 99.4609L21.1162 96.8647L22.5905 97.1413ZM22.1035 99.7374L23.5779 100.013L23.0924 102.61L21.618 102.334L20.1436 102.058L20.629 99.4617L22.1035 99.7374ZM21.618 102.334L23.0836 102.653L22.5201 105.238L21.0545 104.918L19.5889 104.599L20.1524 102.014L21.618 102.334ZM21.0545 104.918L22.5509 104.814L22.6982 106.927L21.2018 107.031L19.7055 107.135L19.5582 105.023L21.0545 104.918ZM21.2018 107.031L20.9738 108.514L20.7719 108.483L21 107L21.2281 105.517L21.4299 105.548L21.2018 107.031Z" fill="black"/>
<path d="M89 107L88.7719 108.483L88.8639 105.506L89 107ZM89.0996 106.991L88.9635 105.497L89.0663 105.488L89.1694 105.493L89.0996 106.991ZM91.64 107.109L91.797 108.601L91.6838 108.613L91.5702 108.608L91.64 107.109ZM94.28 106.831L94.123 105.34L94.2739 105.324L94.425 105.338L94.28 106.831ZM96.92 107.088L96.8596 108.587L96.8172 108.585L96.775 108.581L96.92 107.088ZM99.56 107.194L101.059 107.254L100.999 108.753L99.4996 108.693L99.56 107.194ZM99.6545 104.827L101.136 104.594L101.159 104.74L101.153 104.887L99.6545 104.827ZM99.2441 102.219L97.7623 102.453L97.7536 102.397L97.749 102.341L99.2441 102.219ZM99.03 99.5812L100.506 99.3115L100.519 99.3852L100.525 99.4599L99.03 99.5812ZM98.555 96.9832L100.001 96.5825L100.018 96.6473L100.031 96.7135L98.555 96.9832ZM97.8449 94.4214L98.2823 92.9866L99.0703 93.2269L99.2904 94.0207L97.8449 94.4214ZM95.7529 93.7836L95.6736 92.2857L95.9376 92.2717L96.1904 92.3488L95.7529 93.7836ZM93.1129 93.9234L92.7776 92.4614L92.904 92.4324L93.0336 92.4255L93.1129 93.9234ZM90.6735 94.483L89.1742 94.4362L89.2103 93.2797L90.3381 93.021L90.6735 94.483ZM90.5905 97.1413L92.0898 97.1881L92.0862 97.304L92.0648 97.4179L90.5905 97.1413ZM90.1035 99.7374L88.629 99.4617L88.6292 99.4609L90.1035 99.7374ZM89.618 102.334L91.0924 102.61L91.0883 102.632L91.0836 102.653L89.618 102.334ZM89.0545 104.918L87.5582 105.023L87.5432 104.808L87.5889 104.599L89.0545 104.918ZM89.2018 107.031L90.6982 106.927L90.8288 108.799L88.9738 108.514L89.2018 107.031ZM89 107L88.8639 105.506L88.9635 105.497L89.0996 106.991L89.2357 108.485L89.1361 108.494L89 107ZM89.0996 106.991L89.1694 105.493L91.7098 105.611L91.64 107.109L91.5702 108.608L89.0298 108.489L89.0996 106.991ZM91.64 107.109L91.483 105.618L94.123 105.34L94.28 106.831L94.437 108.323L91.797 108.601L91.64 107.109ZM94.28 106.831L94.425 105.338L97.065 105.595L96.92 107.088L96.775 108.581L94.135 108.324L94.28 106.831ZM96.92 107.088L96.9804 105.589L99.6204 105.695L99.56 107.194L99.4996 108.693L96.8596 108.587L96.92 107.088ZM99.56 107.194L98.0612 107.134L98.1557 104.767L99.6545 104.827L101.153 104.887L101.059 107.254L99.56 107.194ZM99.6545 104.827L98.1728 105.06L97.7623 102.453L99.2441 102.219L100.726 101.986L101.136 104.594L99.6545 104.827ZM99.2441 102.219L97.749 102.341L97.5349 99.7025L99.03 99.5812L100.525 99.4599L100.739 102.098L99.2441 102.219ZM99.03 99.5812L97.5545 99.851L97.0795 97.253L98.555 96.9832L100.031 96.7135L100.506 99.3115L99.03 99.5812ZM98.555 96.9832L97.1096 97.3839L96.3994 94.8221L97.8449 94.4214L99.2904 94.0207L100.001 96.5825L98.555 96.9832ZM97.8449 94.4214L97.4074 95.8562L95.3155 95.2184L95.7529 93.7836L96.1904 92.3488L98.2823 92.9866L97.8449 94.4214ZM95.7529 93.7836L95.8323 95.2815L93.1923 95.4213L93.1129 93.9234L93.0336 92.4255L95.6736 92.2857L95.7529 93.7836ZM93.1129 93.9234L93.4483 95.3854L91.0089 95.945L90.6735 94.483L90.3381 93.021L92.7776 92.4614L93.1129 93.9234ZM90.6735 94.483L92.1728 94.5298L92.0898 97.1881L90.5905 97.1413L89.0912 97.0945L89.1742 94.4362L90.6735 94.483ZM90.5905 97.1413L92.0648 97.4179L91.5778 100.014L90.1035 99.7374L88.6292 99.4609L89.1162 96.8647L90.5905 97.1413ZM90.1035 99.7374L91.5779 100.013L91.0924 102.61L89.618 102.334L88.1436 102.058L88.629 99.4617L90.1035 99.7374ZM89.618 102.334L91.0836 102.653L90.5201 105.238L89.0545 104.918L87.5889 104.599L88.1524 102.014L89.618 102.334ZM89.0545 104.918L90.5509 104.814L90.6982 106.927L89.2018 107.031L87.7055 107.135L87.5582 105.023L89.0545 104.918ZM89.2018 107.031L88.9738 108.514L88.7719 108.483L89 107L89.2281 105.517L89.4299 105.548L89.2018 107.031Z" fill="black"/>
<path d="M40 102V103.5H39.4738L39.063 103.171L40 102ZM40.1 102V100.5H40.1323L40.1645 100.501L40.1 102ZM42.64 102.109L42.797 103.601L42.6865 103.613L42.5755 103.608L42.64 102.109ZM45.28 101.831L45.123 100.34L45.2739 100.324L45.425 100.338L45.28 101.831ZM47.92 102.088L47.8596 103.587L47.8172 103.585L47.775 103.581L47.92 102.088ZM50.56 102.194L50.6763 103.69L50.588 103.697L50.4996 103.693L50.56 102.194ZM53.2 101.989L53.0837 100.493L53.1392 100.489L53.1948 100.489L53.2 101.989ZM55.84 101.98L55.8348 100.48L55.8912 100.48L55.9474 100.484L55.84 101.98ZM58.48 102.169L58.5223 103.669L58.4473 103.671L58.3726 103.666L58.48 102.169ZM61.12 102.095L61.2963 103.585L61.2295 103.592L61.1623 103.594L61.12 102.095ZM63.76 101.783L63.5837 100.293L63.7941 100.268L64.0032 100.302L63.76 101.783ZM66.4 102.216L66.4793 103.714L66.3171 103.723L66.1568 103.697L66.4 102.216ZM69.04 102.077L68.9607 100.579L69.0493 100.574L69.1379 100.58L69.04 102.077ZM71.68 102.249L71.8617 103.738L71.7223 103.755L71.5821 103.746L71.68 102.249ZM74.32 101.927L74.1383 100.438L74.2533 100.424L74.3692 100.428L74.32 101.927ZM76.96 102.014L76.9117 103.513L76.9108 103.513L76.96 102.014ZM79.6 102.099L79.6483 100.599L79.9923 100.611L80.2971 100.771L79.6 102.099ZM81.5695 103.132L82.2666 101.804L82.4252 101.887L82.5597 102.006L81.5695 103.132ZM83.5833 104.902L84.5735 103.775L84.7062 103.892L84.8081 104.036L83.5833 104.902ZM84.8831 106.741L86.1079 105.875L87.6039 107.991L85.0239 108.234L84.8831 106.741ZM82.2431 106.99L81.1783 105.933L81.5611 105.547L82.1023 105.496L82.2431 106.99ZM80.8471 108.397L79.3622 108.609L79.2564 107.87L79.7822 107.34L80.8471 108.397ZM81.225 111.037L82.7099 110.824L82.7448 111.068L82.6998 111.311L81.225 111.037ZM80.7351 113.677L79.2355 113.641L79.2383 113.521L79.2602 113.403L80.7351 113.677ZM80.6831 115.873L82.1827 115.908L82.1488 117.342L80.7154 117.373L80.6831 115.873ZM78.0431 115.93L78.0754 117.429L78.0468 117.43L78.0182 117.429L78.0431 115.93ZM75.4031 115.886L75.2181 114.397L75.3227 114.384L75.4281 114.386L75.4031 115.886ZM72.7631 116.214L72.9481 117.702L72.7876 117.722L72.6266 117.708L72.7631 116.214ZM70.1231 115.973L70.1346 114.473L70.1973 114.473L70.2597 114.479L70.1231 115.973ZM67.4831 115.952L67.3144 114.462L67.4042 114.452L67.4946 114.452L67.4831 115.952ZM64.8431 116.251L65.0119 117.742L64.8156 117.764L64.6202 117.735L64.8431 116.251ZM62.2031 115.854L62.1297 114.356L62.2786 114.349L62.4261 114.371L62.2031 115.854ZM59.5631 115.984L59.4777 114.486L59.4897 114.486L59.5631 115.984ZM56.9231 116.135L57.0086 117.632L56.9054 117.638L56.8023 117.63L56.9231 116.135ZM54.2831 115.921L54.2933 114.421L54.3487 114.422L54.404 114.426L54.2831 115.921ZM51.6431 115.903L51.4415 114.417L51.5469 114.403L51.6533 114.403L51.6431 115.903ZM49.0031 116.261L49.2047 117.748L48.9696 117.78L48.7361 117.737L49.0031 116.261ZM46.3631 115.784L46.1194 114.304L46.3751 114.262L46.6302 114.308L46.3631 115.784ZM43.7231 116.219L43.9669 117.699L43.8267 117.722L43.6846 117.718L43.7231 116.219ZM41.0831 116.151L41.0446 117.65L40.1333 117.627L39.7344 116.807L41.0831 116.151ZM40.2521 114.443L38.9033 115.1L38.7533 114.791L38.7521 114.448L40.2521 114.443ZM40.2427 111.803L41.7269 111.586L41.7423 111.691L41.7427 111.798L40.2427 111.803ZM39.8569 109.163L41.3395 108.935L41.3412 108.946L39.8569 109.163ZM39.5231 106.994L39.5311 105.494L40.811 105.501L41.0057 106.766L39.5231 106.994ZM36.8831 106.98L36.8751 108.48L35.1844 108.471L35.3948 106.794L36.8831 106.98ZM37.0568 105.596L35.5684 105.409L35.619 105.006L35.8661 104.683L37.0568 105.596ZM38.6628 103.499L39.8745 104.384L39.8641 104.398L39.8534 104.412L38.6628 103.499ZM39.8464 101.877L38.6346 100.993L39.5589 99.7262L40.7834 100.706L39.8464 101.877ZM40 102V100.5H40.1V102V103.5H40V102ZM40.1 102L40.1645 100.501L42.7045 100.611L42.64 102.109L42.5755 103.608L40.0355 103.499L40.1 102ZM42.64 102.109L42.483 100.618L45.123 100.34L45.28 101.831L45.437 103.323L42.797 103.601L42.64 102.109ZM45.28 101.831L45.425 100.338L48.065 100.595L47.92 102.088L47.775 103.581L45.135 103.324L45.28 101.831ZM47.92 102.088L47.9804 100.589L50.6204 100.695L50.56 102.194L50.4996 103.693L47.8596 103.587L47.92 102.088ZM50.56 102.194L50.4437 100.699L53.0837 100.493L53.2 101.989L53.3163 103.484L50.6763 103.69L50.56 102.194ZM53.2 101.989L53.1948 100.489L55.8348 100.48L55.84 101.98L55.8452 103.48L53.2052 103.489L53.2 101.989ZM55.84 101.98L55.9474 100.484L58.5874 100.673L58.48 102.169L58.3726 103.666L55.7326 103.476L55.84 101.98ZM58.48 102.169L58.4377 100.67L61.0777 100.596L61.12 102.095L61.1623 103.594L58.5223 103.669L58.48 102.169ZM61.12 102.095L60.9437 100.605L63.5837 100.293L63.76 101.783L63.9363 103.272L61.2963 103.585L61.12 102.095ZM63.76 101.783L64.0032 100.302L66.6432 100.736L66.4 102.216L66.1568 103.697L63.5168 103.263L63.76 101.783ZM66.4 102.216L66.3207 100.718L68.9607 100.579L69.04 102.077L69.1193 103.574L66.4793 103.714L66.4 102.216ZM69.04 102.077L69.1379 100.58L71.7779 100.752L71.68 102.249L71.5821 103.746L68.9421 103.573L69.04 102.077ZM71.68 102.249L71.4983 100.76L74.1383 100.438L74.32 101.927L74.5017 103.416L71.8617 103.738L71.68 102.249ZM74.32 101.927L74.3692 100.428L77.0092 100.514L76.96 102.014L76.9108 103.513L74.2708 103.426L74.32 101.927ZM76.96 102.014L77.0083 100.514L79.6483 100.599L79.6 102.099L79.5517 103.598L76.9117 103.513L76.96 102.014ZM79.6 102.099L80.2971 100.771L82.2666 101.804L81.5695 103.132L80.8724 104.461L78.9029 103.427L79.6 102.099ZM81.5695 103.132L82.5597 102.006L84.5735 103.775L83.5833 104.902L82.5931 106.029L80.5793 104.259L81.5695 103.132ZM83.5833 104.902L84.8081 104.036L86.1079 105.875L84.8831 106.741L83.6583 107.607L82.3585 105.768L83.5833 104.902ZM84.8831 106.741L85.0239 108.234L82.3839 108.483L82.2431 106.99L82.1023 105.496L84.7423 105.247L84.8831 106.741ZM82.2431 106.99L83.308 108.046L81.912 109.453L80.8471 108.397L79.7822 107.34L81.1783 105.933L82.2431 106.99ZM80.8471 108.397L82.3319 108.184L82.7099 110.824L81.225 111.037L79.7402 111.249L79.3622 108.609L80.8471 108.397ZM81.225 111.037L82.6998 111.311L82.2099 113.951L80.7351 113.677L79.2602 113.403L79.7502 110.763L81.225 111.037ZM80.7351 113.677L82.2346 113.712L82.1827 115.908L80.6831 115.873L79.1835 115.837L79.2355 113.641L80.7351 113.677ZM80.6831 115.873L80.7154 117.373L78.0754 117.429L78.0431 115.93L78.0109 114.43L80.6509 114.373L80.6831 115.873ZM78.0431 115.93L78.0182 117.429L75.3782 117.386L75.4031 115.886L75.4281 114.386L78.0681 114.43L78.0431 115.93ZM75.4031 115.886L75.5881 117.374L72.9481 117.702L72.7631 116.214L72.5781 114.725L75.2181 114.397L75.4031 115.886ZM72.7631 116.214L72.6266 117.708L69.9866 117.466L70.1231 115.973L70.2597 114.479L72.8997 114.72L72.7631 116.214ZM70.1231 115.973L70.1117 117.473L67.4717 117.452L67.4831 115.952L67.4946 114.452L70.1346 114.473L70.1231 115.973ZM67.4831 115.952L67.6519 117.443L65.0119 117.742L64.8431 116.251L64.6744 114.761L67.3144 114.462L67.4831 115.952ZM64.8431 116.251L64.6202 117.735L61.9802 117.338L62.2031 115.854L62.4261 114.371L65.0661 114.768L64.8431 116.251ZM62.2031 115.854L62.2766 117.353L59.6366 117.482L59.5631 115.984L59.4897 114.486L62.1297 114.356L62.2031 115.854ZM59.5631 115.984L59.6486 117.481L57.0086 117.632L56.9231 116.135L56.8377 114.637L59.4777 114.486L59.5631 115.984ZM56.9231 116.135L56.8023 117.63L54.1623 117.416L54.2831 115.921L54.404 114.426L57.044 114.639L56.9231 116.135ZM54.2831 115.921L54.273 117.421L51.633 117.403L51.6431 115.903L51.6533 114.403L54.2933 114.421L54.2831 115.921ZM51.6431 115.903L51.8447 117.39L49.2047 117.748L49.0031 116.261L48.8015 114.775L51.4415 114.417L51.6431 115.903ZM49.0031 116.261L48.7361 117.737L46.0961 117.26L46.3631 115.784L46.6302 114.308L49.2702 114.785L49.0031 116.261ZM46.3631 115.784L46.6069 117.264L43.9669 117.699L43.7231 116.219L43.4794 114.738L46.1194 114.304L46.3631 115.784ZM43.7231 116.219L43.6846 117.718L41.0446 117.65L41.0831 116.151L41.1217 114.651L43.7617 114.719L43.7231 116.219ZM41.0831 116.151L39.7344 116.807L38.9033 115.1L40.2521 114.443L41.6008 113.787L42.4319 115.494L41.0831 116.151ZM40.2521 114.443L38.7521 114.448L38.7427 111.808L40.2427 111.803L41.7427 111.798L41.7521 114.438L40.2521 114.443ZM40.2427 111.803L38.7584 112.02L38.3727 109.38L39.8569 109.163L41.3412 108.946L41.7269 111.586L40.2427 111.803ZM39.8569 109.163L38.3744 109.391L38.0406 107.223L39.5231 106.994L41.0057 106.766L41.3395 108.935L39.8569 109.163ZM39.5231 106.994L39.5151 108.494L36.8751 108.48L36.8831 106.98L36.8911 105.48L39.5311 105.494L39.5231 106.994ZM36.8831 106.98L35.3948 106.794L35.5684 105.409L37.0568 105.596L38.5451 105.782L38.3715 107.167L36.8831 106.98ZM37.0568 105.596L35.8661 104.683L37.4721 102.587L38.6628 103.499L39.8534 104.412L38.2474 106.508L37.0568 105.596ZM38.6628 103.499L37.451 102.615L38.6346 100.993L39.8464 101.877L41.0582 102.761L39.8745 104.384L38.6628 103.499ZM39.8464 101.877L40.7834 100.706L40.937 100.829L40 102L39.063 103.171L38.9094 103.048L39.8464 101.877Z" fill="black"/>
<path d="M81 107V105.5H79.5561L79.5011 106.943L81 107ZM81.1 107V108.5H81.1323L81.1645 108.499L81.1 107ZM83.64 106.891L83.797 105.399L83.6865 105.387L83.5755 105.392L83.64 106.891ZM86.28 107.169L86.123 108.66L86.2739 108.676L86.425 108.662L86.28 107.169ZM88.92 106.912L88.8596 105.413L88.8172 105.415L88.775 105.419L88.92 106.912ZM91.56 106.806L91.6763 105.31L91.588 105.303L91.4996 105.307L91.56 106.806ZM94.2 107.011L94.0837 108.507L94.1392 108.511L94.1948 108.511L94.2 107.011ZM96.84 107.02L96.8348 108.52L96.8912 108.52L96.9474 108.516L96.84 107.02ZM99.48 106.831L99.5223 105.331L99.4473 105.329L99.3726 105.334L99.48 106.831ZM102.12 106.905L102.296 105.415L102.229 105.408L102.162 105.406L102.12 106.905ZM104.76 107.217L104.584 108.707L104.794 108.732L105.003 108.698L104.76 107.217ZM107.4 106.784L108.837 106.353L108.458 105.09L107.157 105.303L107.4 106.784ZM108.077 109.04L109.573 108.942L109.562 108.772L109.513 108.609L108.077 109.04ZM108.249 111.68L109.738 111.862L109.755 111.722L109.746 111.582L108.249 111.68ZM107.927 114.32L109.256 115.016L109.383 114.773L109.416 114.502L107.927 114.32ZM107.04 116.014L107.088 117.513L107.963 117.485L108.369 116.71L107.04 116.014ZM104.4 116.099L104.352 114.599L104.329 114.6L104.307 114.602L104.4 116.099ZM101.76 116.263L101.499 117.74L101.675 117.771L101.853 117.76L101.76 116.263ZM99.12 115.796L99.3812 114.319L99.121 114.273L98.8607 114.318L99.12 115.796ZM96.48 116.259L96.3392 117.753L96.5404 117.772L96.7393 117.737L96.48 116.259ZM93.84 116.01L93.9808 114.517L93.8701 114.507L93.7591 114.513L93.84 116.01ZM91.2 116.153L90.9874 117.638L91.1335 117.659L91.2809 117.651L91.2 116.153ZM88.56 115.775L88.7726 114.29L88.5286 114.255L88.2863 114.3L88.56 115.775ZM85.92 116.265L85.8418 117.763L86.0191 117.772L86.1937 117.74L85.92 116.265ZM83.28 116.127L82.9756 117.596L83.0876 117.619L83.2018 117.625L83.28 116.127ZM80.9297 115.64L79.4299 115.665L79.4499 116.865L80.6253 117.109L80.9297 115.64ZM80.8858 113L79.3972 112.815L79.3842 112.92L79.386 113.025L80.8858 113ZM81.2139 110.36L82.7024 110.545L82.7224 110.385L82.7076 110.223L81.2139 110.36ZM80.9726 107.72L79.4737 107.663L79.47 107.76L79.4788 107.857L80.9726 107.72ZM81 107V108.5H81.1V107V105.5H81V107ZM81.1 107L81.1645 108.499L83.7045 108.389L83.64 106.891L83.5755 105.392L81.0355 105.501L81.1 107ZM83.64 106.891L83.483 108.382L86.123 108.66L86.28 107.169L86.437 105.677L83.797 105.399L83.64 106.891ZM86.28 107.169L86.425 108.662L89.065 108.405L88.92 106.912L88.775 105.419L86.135 105.676L86.28 107.169ZM88.92 106.912L88.9804 108.411L91.6204 108.305L91.56 106.806L91.4996 105.307L88.8596 105.413L88.92 106.912ZM91.56 106.806L91.4437 108.301L94.0837 108.507L94.2 107.011L94.3163 105.516L91.6763 105.31L91.56 106.806ZM94.2 107.011L94.1948 108.511L96.8348 108.52L96.84 107.02L96.8452 105.52L94.2052 105.511L94.2 107.011ZM96.84 107.02L96.9474 108.516L99.5874 108.327L99.48 106.831L99.3726 105.334L96.7326 105.524L96.84 107.02ZM99.48 106.831L99.4377 108.33L102.078 108.404L102.12 106.905L102.162 105.406L99.5223 105.331L99.48 106.831ZM102.12 106.905L101.944 108.395L104.584 108.707L104.76 107.217L104.936 105.728L102.296 105.415L102.12 106.905ZM104.76 107.217L105.003 108.698L107.643 108.264L107.4 106.784L107.157 105.303L104.517 105.737L104.76 107.217ZM107.4 106.784L105.963 107.214L106.64 109.471L108.077 109.04L109.513 108.609L108.837 106.353L107.4 106.784ZM108.077 109.04L106.58 109.138L106.752 111.778L108.249 111.68L109.746 111.582L109.573 108.942L108.077 109.04ZM108.249 111.68L106.76 111.498L106.438 114.138L107.927 114.32L109.416 114.502L109.738 111.862L108.249 111.68ZM107.927 114.32L106.598 113.624L105.711 115.318L107.04 116.014L108.369 116.71L109.256 115.016L107.927 114.32ZM107.04 116.014L106.992 114.514L104.352 114.599L104.4 116.099L104.448 117.598L107.088 117.513L107.04 116.014ZM104.4 116.099L104.307 114.602L101.667 114.766L101.76 116.263L101.853 117.76L104.493 117.596L104.4 116.099ZM101.76 116.263L102.021 114.786L99.3812 114.319L99.12 115.796L98.8588 117.273L101.499 117.74L101.76 116.263ZM99.12 115.796L98.8607 114.318L96.2207 114.782L96.48 116.259L96.7393 117.737L99.3794 117.273L99.12 115.796ZM96.48 116.259L96.6208 114.766L93.9808 114.517L93.84 116.01L93.6992 117.504L96.3392 117.753L96.48 116.259ZM93.84 116.01L93.7591 114.513L91.1191 114.655L91.2 116.153L91.2809 117.651L93.9209 117.508L93.84 116.01ZM91.2 116.153L91.4126 114.668L88.7726 114.29L88.56 115.775L88.3474 117.26L90.9874 117.638L91.2 116.153ZM88.56 115.775L88.2863 114.3L85.6463 114.79L85.92 116.265L86.1937 117.74L88.8337 117.25L88.56 115.775ZM85.92 116.265L85.9982 114.767L83.3582 114.629L83.28 116.127L83.2018 117.625L85.8418 117.763L85.92 116.265ZM83.28 116.127L83.5844 114.658L81.2341 114.171L80.9297 115.64L80.6253 117.109L82.9756 117.596L83.28 116.127ZM80.9297 115.64L82.4295 115.615L82.3856 112.975L80.8858 113L79.386 113.025L79.4299 115.665L80.9297 115.64ZM80.8858 113L82.3743 113.185L82.7024 110.545L81.2139 110.36L79.7253 110.175L79.3972 112.815L80.8858 113ZM81.2139 110.36L82.7076 110.223L82.4663 107.583L80.9726 107.72L79.4788 107.857L79.7201 110.497L81.2139 110.36ZM80.9726 107.72L82.4715 107.777L82.4989 107.057L81 107L79.5011 106.943L79.4737 107.663L80.9726 107.72Z" fill="black"/>
<path d="M47 40V38.5H45.7647L45.5278 39.7123L47 40ZM47.1 40V41.5H47.1323L47.1645 41.4986L47.1 40ZM49.64 39.8907L49.797 38.3989L49.6865 38.3873L49.5755 38.3921L49.64 39.8907ZM52.28 40.1686L52.123 41.6603L52.2739 41.6762L52.425 41.6615L52.28 40.1686ZM54.92 39.9122L54.8596 38.4134L54.8172 38.4151L54.775 38.4192L54.92 39.9122ZM57.56 39.8058L57.6763 38.3103L57.588 38.3034L57.4996 38.307L57.56 39.8058ZM60.2 40.0111L60.0837 41.5065L60.1392 41.5109L60.1948 41.511L60.2 40.0111ZM62.84 40.0202L62.8348 41.5202L62.8912 41.5204L62.9474 41.5163L62.84 40.0202ZM65.48 39.8306L65.5223 38.3312L65.4473 38.3291L65.3726 38.3345L65.48 39.8306ZM68.12 39.905L68.2963 38.4154L68.2295 38.4075L68.1623 38.4056L68.12 39.905ZM70.76 40.2174L70.5837 41.707L70.7941 41.7319L71.0032 41.6976L70.76 40.2174ZM73.4 39.7836L74.7976 39.239L74.3563 38.1064L73.1568 38.3035L73.4 39.7836ZM74.2727 42.0231L75.7532 41.7815L75.7277 41.6256L75.6704 41.4785L74.2727 42.0231ZM74.6989 44.6342L76.1984 44.6717L76.2019 44.5312L76.1793 44.3926L74.6989 44.6342ZM74.6325 47.293L73.133 47.2555L73.1301 47.3714L73.145 47.4863L74.6325 47.293ZM74.973 49.9124L76.4606 49.7199L76.4605 49.719L74.973 49.9124ZM75.3119 52.5319L73.8243 52.7244L73.8272 52.7466L73.8307 52.7687L75.3119 52.5319ZM75.7294 55.1438L77.2248 55.2616L77.2388 55.0835L77.2106 54.9071L75.7294 55.1438ZM75.519 57.8165L74.0236 57.6988L74.0029 57.9623L74.0734 58.217L75.519 57.8165ZM76.2346 60.3996L77.7346 60.3959L77.7341 60.1939L77.6801 59.9992L76.2346 60.3996ZM76.2411 63.0513L74.7411 63.055L74.7414 63.1662L74.7581 63.2761L76.2411 63.0513ZM76.6374 65.6653L78.1358 65.7339L78.1425 65.5864L78.1204 65.4405L76.6374 65.6653ZM76.5155 68.3294L75.017 68.2609L75.0058 68.5071L75.0739 68.7439L76.5155 68.3294ZM77.2575 70.91L78.756 70.8435L78.7481 70.6661L78.6991 70.4954L77.2575 70.91ZM77.3745 73.551L75.876 73.6174L75.877 73.6404L75.8787 73.6633L77.3745 73.551ZM77.5723 76.1842L76.0765 76.2965L76.0787 76.325L76.0819 76.3535L77.5723 76.1842ZM77.8703 78.8076L79.3698 78.8484L79.3726 78.743L79.3607 78.6383L77.8703 78.8076ZM77.7981 81.467L76.2986 81.4262L76.2942 81.5879L76.3244 81.7467L77.7981 81.467ZM78.2925 84.0714L79.7844 83.9156L79.7779 83.8532L79.7662 83.7917L78.2925 84.0714ZM78.5669 86.6972L80.0667 86.7217L80.0682 86.6313L80.0588 86.5413L78.5669 86.6972ZM78.5237 89.3538L77.0239 89.3293L77.0207 89.5269L77.0687 89.7186L78.5237 89.3538ZM79.173 91.9433L80.6713 91.872L80.6642 91.7231L80.6279 91.5784L79.173 91.9433ZM79.2985 94.5834L80.7974 94.5243L80.7968 94.5122L79.2985 94.5834ZM79.4028 97.2257L77.904 97.2848L77.908 97.3882L77.9263 97.49L79.4028 97.2257ZM79.8695 99.8328L81.3528 100.056L81.3895 99.8115L81.346 99.5686L79.8695 99.8328ZM79.5297 102.097L79.3281 103.583L80.7935 103.782L81.013 102.319L79.5297 102.097ZM76.8897 101.739L77.0912 100.252L76.8561 100.22L76.6226 100.263L76.8897 101.739ZM74.2497 102.216L74.0059 103.696L74.2617 103.738L74.5167 103.692L74.2497 102.216ZM71.6097 101.781L71.8534 100.301L71.7132 100.278L71.5711 100.282L71.6097 101.781ZM68.9697 101.849L68.9311 100.35L68.8368 100.352L68.7434 100.366L68.9697 101.849ZM66.3297 102.252L66.3243 103.752L66.4408 103.752L66.5559 103.735L66.3297 102.252ZM63.6897 102.243L63.4728 103.727L63.578 103.742L63.6843 103.743L63.6897 102.243ZM61.0497 101.857L61.2665 100.373L61.1166 100.351L60.9653 100.359L61.0497 101.857ZM58.4097 102.006L58.4177 103.506L58.4559 103.505L58.494 103.503L58.4097 102.006ZM55.7697 102.02L55.7288 103.519L55.7532 103.52L55.7777 103.52L55.7697 102.02ZM53.1297 101.948L53.1705 100.448L53.1611 100.448L53.1297 101.948ZM50.4897 101.892L50.439 103.392L50.4486 103.392L50.4582 103.392L50.4897 101.892ZM47.8497 101.803L47.9003 100.304L47.7753 100.3L47.6514 100.316L47.8497 101.803ZM45.2097 102.155L45.1362 103.654L45.2726 103.66L45.4079 103.642L45.2097 102.155ZM42.5697 102.026L41.749 103.281L42.0897 103.504L42.4962 103.524L42.5697 102.026ZM40.8647 100.912L39.3979 100.598L39.1826 101.604L40.0441 102.167L40.8647 100.912ZM41.4206 98.313L42.8874 98.6269L42.9099 98.522L42.9172 98.415L41.4206 98.313ZM41.6002 95.6781L40.1069 95.5364L40.105 95.5562L40.1037 95.5761L41.6002 95.6781ZM41.8496 93.0499L43.3429 93.1916L43.3462 93.1563L43.3479 93.1209L41.8496 93.0499ZM41.9747 90.4096L40.4848 90.236L40.4789 90.2872L40.4764 90.3386L41.9747 90.4096ZM42.2803 87.7869L40.7906 87.6117L40.7904 87.6133L42.2803 87.7869ZM42.5888 85.1644L44.0786 85.3396L44.08 85.3266L42.5888 85.1644ZM42.8743 82.5397L44.3655 82.7019L44.3692 82.6672L44.3714 82.6323L42.8743 82.5397ZM43.0373 79.9031L41.5404 79.8076L41.5402 79.8105L43.0373 79.9031ZM43.2056 77.2671L41.7136 77.1126L41.7106 77.142L41.7087 77.1715L43.2056 77.2671ZM43.4775 74.6411L41.9874 74.469L41.9864 74.4778L41.9855 74.4866L43.4775 74.6411ZM43.7804 72.0181L42.3138 71.7036L42.2986 71.7742L42.2903 71.846L43.7804 72.0181ZM44.3376 69.4196L45.8043 69.7342L45.8262 69.6321L45.8337 69.528L44.3376 69.4196ZM44.5283 66.7858L46.0244 66.8941L46.0287 66.8352L46.0283 66.7762L44.5283 66.7858ZM44.5114 64.1318L43.0181 63.9898L43.0109 64.0654L43.0114 64.1414L44.5114 64.1318ZM44.7612 61.5036L43.2821 61.254L43.2731 61.3076L43.2679 61.3617L44.7612 61.5036ZM45.2017 58.8939L46.6808 59.1436L46.6859 59.1136L46.6897 59.0835L45.2017 58.8939ZM45.5355 56.2739L47.0235 56.4635L47.0247 56.4538L47.0258 56.444L45.5355 56.2739ZM45.835 53.6506L44.3449 53.4782L44.3447 53.4804L45.835 53.6506ZM46.1384 51.0276L47.6284 51.1999L47.633 51.1601L47.6355 51.12L46.1384 51.0276ZM46.3011 48.391L44.8101 48.2267L44.8062 48.2626L44.804 48.2986L46.3011 48.391ZM46.5902 45.7666L45.1048 45.5577L45.1017 45.58L45.0992 45.6024L46.5902 45.7666ZM46.9583 43.1499L48.4437 43.3589L48.4605 43.2396L48.458 43.1192L46.9583 43.1499ZM46.9038 40.4923L45.4316 40.2047L45.4008 40.3624L45.4041 40.5231L46.9038 40.4923ZM47 40V41.5H47.1V40V38.5H47V40ZM47.1 40L47.1645 41.4986L49.7045 41.3893L49.64 39.8907L49.5755 38.3921L47.0355 38.5014L47.1 40ZM49.64 39.8907L49.483 41.3824L52.123 41.6603L52.28 40.1686L52.437 38.6768L49.797 38.3989L49.64 39.8907ZM52.28 40.1686L52.425 41.6615L55.065 41.4052L54.92 39.9122L54.775 38.4192L52.135 38.6756L52.28 40.1686ZM54.92 39.9122L54.9804 41.411L57.6204 41.3046L57.56 39.8058L57.4996 38.307L54.8596 38.4134L54.92 39.9122ZM57.56 39.8058L57.4437 41.3013L60.0837 41.5065L60.2 40.0111L60.3163 38.5156L57.6763 38.3103L57.56 39.8058ZM60.2 40.0111L60.1948 41.511L62.8348 41.5202L62.84 40.0202L62.8452 38.5202L60.2052 38.5111L60.2 40.0111ZM62.84 40.0202L62.9474 41.5163L65.5874 41.3268L65.48 39.8306L65.3726 38.3345L62.7326 38.524L62.84 40.0202ZM65.48 39.8306L65.4377 41.33L68.0777 41.4044L68.12 39.905L68.1623 38.4056L65.5223 38.3312L65.48 39.8306ZM68.12 39.905L67.9437 41.3946L70.5837 41.707L70.76 40.2174L70.9363 38.7278L68.2963 38.4154L68.12 39.905ZM70.76 40.2174L71.0032 41.6976L73.6432 41.2638L73.4 39.7836L73.1568 38.3035L70.5168 38.7373L70.76 40.2174ZM73.4 39.7836L72.0024 40.3283L72.8751 42.5678L74.2727 42.0231L75.6704 41.4785L74.7976 39.239L73.4 39.7836ZM74.2727 42.0231L72.7923 42.2647L73.2185 44.8758L74.6989 44.6342L76.1793 44.3926L75.7532 41.7815L74.2727 42.0231ZM74.6989 44.6342L73.1994 44.5968L73.133 47.2555L74.6325 47.293L76.132 47.3304L76.1984 44.6717L74.6989 44.6342ZM74.6325 47.293L73.145 47.4863L73.4855 50.1057L74.973 49.9124L76.4605 49.719L76.12 47.0996L74.6325 47.293ZM74.973 49.9124L73.4854 50.1049L73.8243 52.7244L75.3119 52.5319L76.7995 52.3394L76.4606 49.7199L74.973 49.9124ZM75.3119 52.5319L73.8307 52.7687L74.2482 55.3806L75.7294 55.1438L77.2106 54.9071L76.7931 52.2951L75.3119 52.5319ZM75.7294 55.1438L74.2341 55.0261L74.0236 57.6988L75.519 57.8165L77.0144 57.9343L77.2248 55.2616L75.7294 55.1438ZM75.519 57.8165L74.0734 58.217L74.789 60.8001L76.2346 60.3996L77.6801 59.9992L76.9646 57.4161L75.519 57.8165ZM76.2346 60.3996L74.7346 60.4033L74.7411 63.055L76.2411 63.0513L77.7411 63.0476L77.7346 60.3959L76.2346 60.3996ZM76.2411 63.0513L74.7581 63.2761L75.1543 65.8901L76.6374 65.6653L78.1204 65.4405L77.7242 62.8265L76.2411 63.0513ZM76.6374 65.6653L75.1389 65.5967L75.017 68.2609L76.5155 68.3294L78.0139 68.398L78.1358 65.7339L76.6374 65.6653ZM76.5155 68.3294L75.0739 68.7439L75.8159 71.3245L77.2575 70.91L78.6991 70.4954L77.9571 67.9149L76.5155 68.3294ZM77.2575 70.91L75.7589 70.9764L75.876 73.6174L77.3745 73.551L78.873 73.4846L78.756 70.8435L77.2575 70.91ZM77.3745 73.551L75.8787 73.6633L76.0765 76.2965L77.5723 76.1842L79.0681 76.0718L78.8703 73.4386L77.3745 73.551ZM77.5723 76.1842L76.0819 76.3535L76.3799 78.9769L77.8703 78.8076L79.3607 78.6383L79.0627 76.0149L77.5723 76.1842ZM77.8703 78.8076L76.3709 78.7669L76.2986 81.4262L77.7981 81.467L79.2975 81.5077L79.3698 78.8484L77.8703 78.8076ZM77.7981 81.467L76.3244 81.7467L76.8189 84.3512L78.2925 84.0714L79.7662 83.7917L79.2717 81.1872L77.7981 81.467ZM78.2925 84.0714L76.8007 84.2273L77.0751 86.8531L78.5669 86.6972L80.0588 86.5413L79.7844 83.9156L78.2925 84.0714ZM78.5669 86.6972L77.0671 86.6728L77.0239 89.3293L78.5237 89.3538L80.0235 89.3782L80.0667 86.7217L78.5669 86.6972ZM78.5237 89.3538L77.0687 89.7186L77.718 92.3081L79.173 91.9433L80.6279 91.5784L79.9786 88.9889L78.5237 89.3538ZM79.173 91.9433L77.6747 92.0145L77.8002 94.6547L79.2985 94.5834L80.7968 94.5122L80.6713 91.872L79.173 91.9433ZM79.2985 94.5834L77.7996 94.6426L77.904 97.2848L79.4028 97.2257L80.9016 97.1665L80.7973 94.5243L79.2985 94.5834ZM79.4028 97.2257L77.9263 97.49L78.3929 100.097L79.8695 99.8328L81.346 99.5686L80.8793 96.9614L79.4028 97.2257ZM79.8695 99.8328L78.3861 99.6102L78.0463 101.874L79.5297 102.097L81.013 102.319L81.3528 100.056L79.8695 99.8328ZM79.5297 102.097L79.7312 100.61L77.0912 100.252L76.8897 101.739L76.6881 103.225L79.3281 103.583L79.5297 102.097ZM76.8897 101.739L76.6226 100.263L73.9826 100.74L74.2497 102.216L74.5167 103.692L77.1567 103.215L76.8897 101.739ZM74.2497 102.216L74.4934 100.736L71.8534 100.301L71.6097 101.781L71.3659 103.262L74.0059 103.696L74.2497 102.216ZM71.6097 101.781L71.5711 100.282L68.9311 100.35L68.9697 101.849L69.0082 103.349L71.6482 103.281L71.6097 101.781ZM68.9697 101.849L68.7434 100.366L66.1034 100.769L66.3297 102.252L66.5559 103.735L69.1959 103.332L68.9697 101.849ZM66.3297 102.252L66.335 100.752L63.695 100.743L63.6897 102.243L63.6843 103.743L66.3243 103.752L66.3297 102.252ZM63.6897 102.243L63.9065 100.758L61.2665 100.373L61.0497 101.857L60.8328 103.341L63.4728 103.727L63.6897 102.243ZM61.0497 101.857L60.9653 100.359L58.3253 100.508L58.4097 102.006L58.494 103.503L61.134 103.355L61.0497 101.857ZM58.4097 102.006L58.4016 100.506L55.7616 100.52L55.7697 102.02L55.7777 103.52L58.4177 103.506L58.4097 102.006ZM55.7697 102.02L55.8105 100.52L53.1705 100.448L53.1297 101.948L53.0888 103.447L55.7288 103.519L55.7697 102.02ZM53.1297 101.948L53.1611 100.448L50.5211 100.393L50.4897 101.892L50.4582 103.392L53.0982 103.447L53.1297 101.948ZM50.4897 101.892L50.5403 100.393L47.9003 100.304L47.8497 101.803L47.799 103.302L50.439 103.392L50.4897 101.892ZM47.8497 101.803L47.6514 100.316L45.0114 100.668L45.2097 102.155L45.4079 103.642L48.0479 103.29L47.8497 101.803ZM45.2097 102.155L45.2831 100.657L42.6431 100.528L42.5697 102.026L42.4962 103.524L45.1362 103.654L45.2097 102.155ZM42.5697 102.026L43.3903 100.77L41.6853 99.6559L40.8647 100.912L40.0441 102.167L41.749 103.281L42.5697 102.026ZM40.8647 100.912L42.3315 101.225L42.8874 98.6269L41.4206 98.313L39.9538 97.9992L39.3979 100.598L40.8647 100.912ZM41.4206 98.313L42.9172 98.415L43.0967 95.78L41.6002 95.6781L40.1037 95.5761L39.9241 98.211L41.4206 98.313ZM41.6002 95.6781L43.0935 95.8198L43.3429 93.1916L41.8496 93.0499L40.3563 92.9082L40.1069 95.5364L41.6002 95.6781ZM41.8496 93.0499L43.3479 93.1209L43.4731 90.4807L41.9747 90.4096L40.4764 90.3386L40.3513 92.9789L41.8496 93.0499ZM41.9747 90.4096L43.4647 90.5833L43.7703 87.9605L42.2803 87.7869L40.7904 87.6133L40.4848 90.236L41.9747 90.4096ZM42.2803 87.7869L43.7701 87.9621L44.0785 85.3396L42.5888 85.1644L41.0991 84.9892L40.7906 87.6117L42.2803 87.7869ZM42.5888 85.1644L44.08 85.3266L44.3655 82.7019L42.8743 82.5397L41.383 82.3775L41.0976 85.0022L42.5888 85.1644ZM42.8743 82.5397L44.3714 82.6323L44.5345 79.9958L43.0373 79.9031L41.5402 79.8105L41.3771 82.4471L42.8743 82.5397ZM43.0373 79.9031L44.5343 79.9987L44.7026 77.3627L43.2056 77.2671L41.7087 77.1715L41.5404 79.8076L43.0373 79.9031ZM43.2056 77.2671L44.6977 77.4216L44.9696 74.7956L43.4775 74.6411L41.9855 74.4866L41.7136 77.1126L43.2056 77.2671ZM43.4775 74.6411L44.9676 74.8132L45.2705 72.1901L43.7804 72.0181L42.2903 71.846L41.9874 74.469L43.4775 74.6411ZM43.7804 72.0181L45.2471 72.3326L45.8043 69.7342L44.3376 69.4196L42.871 69.1051L42.3138 71.7036L43.7804 72.0181ZM44.3376 69.4196L45.8337 69.528L46.0244 66.8941L44.5283 66.7858L43.0322 66.6775L42.8415 69.3113L44.3376 69.4196ZM44.5283 66.7858L46.0283 66.7762L46.0113 64.1222L44.5114 64.1318L43.0114 64.1414L43.0283 66.7953L44.5283 66.7858ZM44.5114 64.1318L46.0046 64.2738L46.2545 61.6456L44.7612 61.5036L43.2679 61.3617L43.0181 63.9898L44.5114 64.1318ZM44.7612 61.5036L46.2403 61.7533L46.6808 59.1436L45.2017 58.8939L43.7227 58.6443L43.2821 61.254L44.7612 61.5036ZM45.2017 58.8939L46.6897 59.0835L47.0235 56.4635L45.5355 56.2739L44.0475 56.0844L43.7138 58.7044L45.2017 58.8939ZM45.5355 56.2739L47.0258 56.444L47.3253 53.8207L45.835 53.6506L44.3447 53.4804L44.0452 56.1038L45.5355 56.2739ZM45.835 53.6506L47.325 53.8229L47.6284 51.1999L46.1384 51.0276L44.6483 50.8552L44.3449 53.4782L45.835 53.6506ZM46.1384 51.0276L47.6355 51.12L47.7983 48.4834L46.3011 48.391L44.804 48.2986L44.6412 50.9352L46.1384 51.0276ZM46.3011 48.391L47.7921 48.5553L48.0812 45.9309L46.5902 45.7666L45.0992 45.6024L44.8101 48.2267L46.3011 48.391ZM46.5902 45.7666L48.0756 45.9756L48.4437 43.3589L46.9583 43.1499L45.4729 42.941L45.1048 45.5577L46.5902 45.7666ZM46.9583 43.1499L48.458 43.1192L48.4035 40.4616L46.9038 40.4923L45.4041 40.5231L45.4586 43.1807L46.9583 43.1499ZM46.9038 40.4923L48.376 40.78L48.4722 40.2877L47 40L45.5278 39.7123L45.4316 40.2047L46.9038 40.4923Z" fill="black"/>
<path d="M50 36V34.5H49.1053L48.6801 35.2873L50 36ZM50.1 36V37.5H50.1323L50.1645 37.4986L50.1 36ZM52.64 35.8907L52.797 34.3989L52.6865 34.3873L52.5755 34.3921L52.64 35.8907ZM55.28 36.1686L55.123 37.6603L55.2739 37.6762L55.425 37.6615L55.28 36.1686ZM57.92 35.9122L57.8596 34.4134L57.8172 34.4151L57.775 34.4192L57.92 35.9122ZM60.56 35.8058L60.6763 34.3103L60.588 34.3034L60.4996 34.307L60.56 35.8058ZM63.2 36.0111L63.0837 37.5065L63.1392 37.5109L63.1948 37.511L63.2 36.0111ZM65.84 36.0202L65.8348 37.5202L65.8912 37.5204L65.9474 37.5163L65.84 36.0202ZM68.48 35.8306L69.4159 34.6584L68.9576 34.2925L68.3726 34.3345L68.48 35.8306ZM70.095 37.12L71.5846 37.2963L71.6826 36.4681L71.0309 35.9478L70.095 37.12ZM69.7826 39.76L70.0896 41.2282L71.1455 41.0075L71.2722 39.9363L69.7826 39.76ZM67.6 40.2164L67.5207 41.7143L67.7158 41.7246L67.907 41.6846L67.6 40.2164ZM64.96 40.0766L65.0393 38.5787L64.9507 38.574L64.8621 38.5798L64.96 40.0766ZM62.32 40.2493L62.1383 41.7382L62.2777 41.7552L62.4179 41.7461L62.32 40.2493ZM59.68 39.9271L59.8617 38.4381L59.7467 38.4241L59.6308 38.4279L59.68 39.9271ZM57.04 40.0137L57.0883 41.5129L57.0892 41.5129L57.04 40.0137ZM54.4 40.0987L54.3517 38.5995L54.3293 38.6002L54.307 38.6016L54.4 40.0987ZM51.76 40.2627L50.8721 41.4716L51.3103 41.7935L51.853 41.7598L51.76 40.2627ZM50.2042 39.12L48.7268 39.3793L48.8309 39.9725L49.3163 40.329L50.2042 39.12ZM49.7408 36.48L48.4209 35.7673L48.1733 36.2259L48.2634 36.7393L49.7408 36.48ZM50 36V37.5H50.1V36V34.5H50V36ZM50.1 36L50.1645 37.4986L52.7045 37.3893L52.64 35.8907L52.5755 34.3921L50.0355 34.5014L50.1 36ZM52.64 35.8907L52.483 37.3824L55.123 37.6603L55.28 36.1686L55.437 34.6768L52.797 34.3989L52.64 35.8907ZM55.28 36.1686L55.425 37.6615L58.065 37.4052L57.92 35.9122L57.775 34.4192L55.135 34.6756L55.28 36.1686ZM57.92 35.9122L57.9804 37.411L60.6204 37.3046L60.56 35.8058L60.4996 34.307L57.8596 34.4134L57.92 35.9122ZM60.56 35.8058L60.4437 37.3013L63.0837 37.5065L63.2 36.0111L63.3163 34.5156L60.6763 34.3103L60.56 35.8058ZM63.2 36.0111L63.1948 37.511L65.8348 37.5202L65.84 36.0202L65.8452 34.5202L63.2052 34.5111L63.2 36.0111ZM65.84 36.0202L65.9474 37.5163L68.5874 37.3268L68.48 35.8306L68.3726 34.3345L65.7326 34.524L65.84 36.0202ZM68.48 35.8306L67.5441 37.0028L69.1591 38.2922L70.095 37.12L71.0309 35.9478L69.4159 34.6584L68.48 35.8306ZM70.095 37.12L68.6054 36.9437L68.293 39.5837L69.7826 39.76L71.2722 39.9363L71.5846 37.2963L70.095 37.12ZM69.7826 39.76L69.4756 38.2918L67.293 38.7481L67.6 40.2164L67.907 41.6846L70.0896 41.2282L69.7826 39.76ZM67.6 40.2164L67.6793 38.7185L65.0393 38.5787L64.96 40.0766L64.8807 41.5745L67.5207 41.7143L67.6 40.2164ZM64.96 40.0766L64.8621 38.5798L62.2221 38.7524L62.32 40.2493L62.4179 41.7461L65.0579 41.5734L64.96 40.0766ZM62.32 40.2493L62.5017 38.7603L59.8617 38.4381L59.68 39.9271L59.4983 41.416L62.1383 41.7382L62.32 40.2493ZM59.68 39.9271L59.6308 38.4279L56.9908 38.5145L57.04 40.0137L57.0892 41.5129L59.7292 41.4263L59.68 39.9271ZM57.04 40.0137L56.9917 38.5144L54.3517 38.5995L54.4 40.0987L54.4483 41.5979L57.0883 41.5129L57.04 40.0137ZM54.4 40.0987L54.307 38.6016L51.667 38.7656L51.76 40.2627L51.853 41.7598L54.493 41.5958L54.4 40.0987ZM51.76 40.2627L52.6479 39.0537L51.0922 37.911L50.2042 39.12L49.3163 40.329L50.8721 41.4716L51.76 40.2627ZM50.2042 39.12L51.6816 38.8607L51.2182 36.2207L49.7408 36.48L48.2634 36.7393L48.7268 39.3793L50.2042 39.12ZM49.7408 36.48L51.0606 37.1927L51.3199 36.7127L50 36L48.6801 35.2873L48.4209 35.7673L49.7408 36.48Z" fill="black"/>
<path d="M50 36V34.5H49.1053L48.6801 35.2873L50 36ZM50.1 36V37.5H50.1323L50.1645 37.4986L50.1 36ZM52.64 35.8907L52.797 34.3989L52.6865 34.3873L52.5755 34.3921L52.64 35.8907ZM55.28 36.1686L55.123 37.6603L55.2739 37.6762L55.425 37.6615L55.28 36.1686ZM57.92 35.9122L57.8596 34.4134L57.8172 34.4151L57.775 34.4192L57.92 35.9122ZM60.56 35.8058L60.6763 34.3103L60.588 34.3034L60.4996 34.307L60.56 35.8058ZM63.2 36.0111L63.0837 37.5065L63.1392 37.5109L63.1948 37.511L63.2 36.0111ZM65.84 36.0202L65.8348 37.5202L65.8912 37.5204L65.9474 37.5163L65.84 36.0202ZM68.48 35.8306L69.4159 34.6584L68.9576 34.2925L68.3726 34.3345L68.48 35.8306ZM70.095 37.12L71.5846 37.2963L71.6826 36.4681L71.0309 35.9478L70.095 37.12ZM69.7826 39.76L70.0896 41.2282L71.1455 41.0075L71.2722 39.9363L69.7826 39.76ZM67.6 40.2164L67.5207 41.7143L67.7158 41.7246L67.907 41.6846L67.6 40.2164ZM64.96 40.0766L65.0393 38.5787L64.9507 38.574L64.8621 38.5798L64.96 40.0766ZM62.32 40.2493L62.1383 41.7382L62.2777 41.7552L62.4179 41.7461L62.32 40.2493ZM59.68 39.9271L59.8617 38.4381L59.7467 38.4241L59.6308 38.4279L59.68 39.9271ZM57.04 40.0137L57.0883 41.5129L57.0892 41.5129L57.04 40.0137ZM54.4 40.0987L54.3517 38.5995L54.3293 38.6002L54.307 38.6016L54.4 40.0987ZM51.76 40.2627L50.8721 41.4716L51.3103 41.7935L51.853 41.7598L51.76 40.2627ZM50.2042 39.12L48.7268 39.3793L48.8309 39.9725L49.3163 40.329L50.2042 39.12ZM49.7408 36.48L48.4209 35.7673L48.1733 36.2259L48.2634 36.7393L49.7408 36.48ZM50 36V37.5H50.1V36V34.5H50V36ZM50.1 36L50.1645 37.4986L52.7045 37.3893L52.64 35.8907L52.5755 34.3921L50.0355 34.5014L50.1 36ZM52.64 35.8907L52.483 37.3824L55.123 37.6603L55.28 36.1686L55.437 34.6768L52.797 34.3989L52.64 35.8907ZM55.28 36.1686L55.425 37.6615L58.065 37.4052L57.92 35.9122L57.775 34.4192L55.135 34.6756L55.28 36.1686ZM57.92 35.9122L57.9804 37.411L60.6204 37.3046L60.56 35.8058L60.4996 34.307L57.8596 34.4134L57.92 35.9122ZM60.56 35.8058L60.4437 37.3013L63.0837 37.5065L63.2 36.0111L63.3163 34.5156L60.6763 34.3103L60.56 35.8058ZM63.2 36.0111L63.1948 37.511L65.8348 37.5202L65.84 36.0202L65.8452 34.5202L63.2052 34.5111L63.2 36.0111ZM65.84 36.0202L65.9474 37.5163L68.5874 37.3268L68.48 35.8306L68.3726 34.3345L65.7326 34.524L65.84 36.0202ZM68.48 35.8306L67.5441 37.0028L69.1591 38.2922L70.095 37.12L71.0309 35.9478L69.4159 34.6584L68.48 35.8306ZM70.095 37.12L68.6054 36.9437L68.293 39.5837L69.7826 39.76L71.2722 39.9363L71.5846 37.2963L70.095 37.12ZM69.7826 39.76L69.4756 38.2918L67.293 38.7481L67.6 40.2164L67.907 41.6846L70.0896 41.2282L69.7826 39.76ZM67.6 40.2164L67.6793 38.7185L65.0393 38.5787L64.96 40.0766L64.8807 41.5745L67.5207 41.7143L67.6 40.2164ZM64.96 40.0766L64.8621 38.5798L62.2221 38.7524L62.32 40.2493L62.4179 41.7461L65.0579 41.5734L64.96 40.0766ZM62.32 40.2493L62.5017 38.7603L59.8617 38.4381L59.68 39.9271L59.4983 41.416L62.1383 41.7382L62.32 40.2493ZM59.68 39.9271L59.6308 38.4279L56.9908 38.5145L57.04 40.0137L57.0892 41.5129L59.7292 41.4263L59.68 39.9271ZM57.04 40.0137L56.9917 38.5144L54.3517 38.5995L54.4 40.0987L54.4483 41.5979L57.0883 41.5129L57.04 40.0137ZM54.4 40.0987L54.307 38.6016L51.667 38.7656L51.76 40.2627L51.853 41.7598L54.493 41.5958L54.4 40.0987ZM51.76 40.2627L52.6479 39.0537L51.0922 37.911L50.2042 39.12L49.3163 40.329L50.8721 41.4716L51.76 40.2627ZM50.2042 39.12L51.6816 38.8607L51.2182 36.2207L49.7408 36.48L48.2634 36.7393L48.7268 39.3793L50.2042 39.12ZM49.7408 36.48L51.0606 37.1927L51.3199 36.7127L50 36L48.6801 35.2873L48.4209 35.7673L49.7408 36.48Z" fill="black"/>
<path d="M53 32V30.5H51.5196L51.5001 31.9803L53 32ZM53.1 32V33.5H53.1323L53.1645 33.4986L53.1 32ZM55.64 31.8907L55.797 30.3989L55.6865 30.3873L55.5755 30.3921L55.64 31.8907ZM58.28 32.1686L58.123 33.6603L58.2739 33.6762L58.425 33.6615L58.28 32.1686ZM60.92 31.9122L60.8596 30.4134L60.8172 30.4151L60.775 30.4192L60.92 31.9122ZM63.56 31.8058L63.6763 30.3103L63.588 30.3034L63.4996 30.307L63.56 31.8058ZM66.2 32.0111L66.8333 30.6513L66.5871 30.5366L66.3163 30.5156L66.2 32.0111ZM67.9798 32.84L69.476 32.7326L69.4128 31.8527L68.6131 31.4802L67.9798 32.84ZM68.1694 35.48L68.5585 36.9286L69.7542 36.6075L69.6655 35.3726L68.1694 35.48ZM65.88 36.095L65.7037 37.5846L65.9904 37.6185L66.2691 37.5436L65.88 36.095ZM63.24 35.7826L63.4163 34.293L63.2059 34.2681L62.9968 34.3024L63.24 35.7826ZM60.6 36.2164L60.5207 37.7143L60.6829 37.7229L60.8432 37.6965L60.6 36.2164ZM57.96 36.0766L58.0393 34.5787L57.9507 34.574L57.8621 34.5798L57.96 36.0766ZM55.32 36.2493L54.9516 37.7033L55.1814 37.7615L55.4179 37.7461L55.32 36.2493ZM53.0729 35.68L51.5737 35.7292L51.6107 36.857L52.7046 37.1341L53.0729 35.68ZM52.9863 33.04L51.4865 33.0203L51.486 33.0547L51.4871 33.0892L52.9863 33.04ZM53 32V33.5H53.1V32V30.5H53V32ZM53.1 32L53.1645 33.4986L55.7045 33.3893L55.64 31.8907L55.5755 30.3921L53.0355 30.5014L53.1 32ZM55.64 31.8907L55.483 33.3824L58.123 33.6603L58.28 32.1686L58.437 30.6768L55.797 30.3989L55.64 31.8907ZM58.28 32.1686L58.425 33.6615L61.065 33.4052L60.92 31.9122L60.775 30.4192L58.135 30.6756L58.28 32.1686ZM60.92 31.9122L60.9804 33.411L63.6204 33.3046L63.56 31.8058L63.4996 30.307L60.8596 30.4134L60.92 31.9122ZM63.56 31.8058L63.4437 33.3013L66.0837 33.5065L66.2 32.0111L66.3163 30.5156L63.6763 30.3103L63.56 31.8058ZM66.2 32.0111L65.5667 33.3708L67.3465 34.1998L67.9798 32.84L68.6131 31.4802L66.8333 30.6513L66.2 32.0111ZM67.9798 32.84L66.4837 32.9474L66.6732 35.5874L68.1694 35.48L69.6655 35.3726L69.476 32.7326L67.9798 32.84ZM68.1694 35.48L67.7803 34.0314L65.4909 34.6463L65.88 36.095L66.2691 37.5436L68.5585 36.9286L68.1694 35.48ZM65.88 36.095L66.0563 34.6054L63.4163 34.293L63.24 35.7826L63.0637 37.2722L65.7037 37.5846L65.88 36.095ZM63.24 35.7826L62.9968 34.3024L60.3568 34.7362L60.6 36.2164L60.8432 37.6965L63.4832 37.2627L63.24 35.7826ZM60.6 36.2164L60.6793 34.7185L58.0393 34.5787L57.96 36.0766L57.8807 37.5745L60.5207 37.7143L60.6 36.2164ZM57.96 36.0766L57.8621 34.5798L55.2221 34.7524L55.32 36.2493L55.4179 37.7461L58.0579 37.5734L57.96 36.0766ZM55.32 36.2493L55.6884 34.7952L53.4413 34.2259L53.0729 35.68L52.7046 37.1341L54.9516 37.7033L55.32 36.2493ZM53.0729 35.68L54.5721 35.6308L54.4855 32.9908L52.9863 33.04L51.4871 33.0892L51.5737 35.7292L53.0729 35.68ZM52.9863 33.04L54.4862 33.0597L54.4999 32.0197L53 32L51.5001 31.9803L51.4865 33.0203L52.9863 33.04Z" fill="black"/>
<path d="M69 23L70.179 23.9273L70.6439 23.3363L70.4485 22.6102L69 23ZM68.9382 23.0786L67.7592 22.1513L67.4813 22.5046L67.4435 22.9525L68.9382 23.0786ZM68.7225 25.6347L70.0052 26.4123L70.1876 26.1114L70.2172 25.7608L68.7225 25.6347ZM67.3558 27.8891L68.5616 28.7813L68.6027 28.7258L68.6385 28.6667L67.3558 27.8891ZM65.7907 30.0043L66.6181 31.2555L66.839 31.1094L66.9965 30.8966L65.7907 30.0043ZM63.5602 31.4795L63.8199 32.9568L64.1273 32.9028L64.3877 32.7306L63.5602 31.4795ZM60.9351 31.9409L60.8668 33.4393L61.0319 33.4469L61.1948 33.4182L60.9351 31.9409ZM58.3109 31.8212L57.9178 33.2688L58.0774 33.3121L58.2426 33.3197L58.3109 31.8212ZM55.7449 31.1243L54.8283 32.3117L55.0642 32.4938L55.3517 32.5719L55.7449 31.1243ZM53.6311 29.4927L52.3378 30.2526L52.4848 30.5028L52.7145 30.6801L53.6311 29.4927ZM52.2981 27.2242L50.994 27.9654L50.9993 27.9748L51.0048 27.9842L52.2981 27.2242ZM50.9812 24.907L49.4813 24.9213L49.485 25.3101L49.6771 25.6482L50.9812 24.907ZM50.9557 22.2293L49.4766 21.9796L49.4545 22.1107L49.4557 22.2436L50.9557 22.2293ZM51.4025 19.583L50.2039 18.6811L49.9842 18.973L49.9234 19.3333L51.4025 19.583ZM53.0112 17.4452L51.9506 16.3845L51.8761 16.459L51.8127 16.5433L53.0112 17.4452ZM54.8664 15.5901L54.1583 14.2677L53.9627 14.3725L53.8058 14.5294L54.8664 15.5901ZM57.2012 14.3399L56.8659 12.8778L56.6702 12.9227L56.4931 13.0175L57.2012 14.3399ZM59.8212 13.739L60.2642 12.3059L59.8789 12.1868L59.4859 12.277L59.8212 13.739ZM62.3818 14.5304L61.9388 15.9636L61.9751 15.9748L62.0119 15.9841L62.3818 14.5304ZM64.977 15.1908L66.0597 14.1527L65.7628 13.843L65.3469 13.7372L64.977 15.1908ZM66.8328 17.1262L68.056 16.258L67.992 16.1678L67.9155 16.088L66.8328 17.1262ZM68.3715 19.2939L69.8592 19.1026L69.8115 18.7311L69.5947 18.4256L68.3715 19.2939ZM68.709 21.9187L67.2213 22.11L67.2342 22.2105L67.2605 22.3084L68.709 21.9187ZM69 23L67.821 22.0727L67.7592 22.1513L68.9382 23.0786L70.1172 24.0059L70.179 23.9273L69 23ZM68.9382 23.0786L67.4435 22.9525L67.2278 25.5085L68.7225 25.6347L70.2172 25.7608L70.4329 23.2047L68.9382 23.0786ZM68.7225 25.6347L67.4398 24.8571L66.0731 27.1115L67.3558 27.8891L68.6385 28.6667L70.0052 26.4123L68.7225 25.6347ZM67.3558 27.8891L66.15 26.9969L64.5849 29.1121L65.7907 30.0043L66.9965 30.8966L68.5616 28.7813L67.3558 27.8891ZM65.7907 30.0043L64.9632 28.7532L62.7328 30.2283L63.5602 31.4795L64.3877 32.7306L66.6181 31.2555L65.7907 30.0043ZM63.5602 31.4795L63.3006 30.0021L60.6754 30.4635L60.9351 31.9409L61.1948 33.4182L63.8199 32.9568L63.5602 31.4795ZM60.9351 31.9409L61.0035 30.4424L58.3793 30.3228L58.3109 31.8212L58.2426 33.3197L60.8668 33.4393L60.9351 31.9409ZM58.3109 31.8212L58.704 30.3736L56.138 29.6768L55.7449 31.1243L55.3517 32.5719L57.9178 33.2688L58.3109 31.8212ZM55.7449 31.1243L56.6614 29.9369L54.5476 28.3053L53.6311 29.4927L52.7145 30.6801L54.8283 32.3117L55.7449 31.1243ZM53.6311 29.4927L54.9243 28.7328L53.5913 26.4643L52.2981 27.2242L51.0048 27.9842L52.3378 30.2526L53.6311 29.4927ZM52.2981 27.2242L53.6022 26.4831L52.2853 24.1659L50.9812 24.907L49.6771 25.6482L50.994 27.9654L52.2981 27.2242ZM50.9812 24.907L52.4811 24.8927L52.4556 22.215L50.9557 22.2293L49.4557 22.2436L49.4813 24.9213L50.9812 24.907ZM50.9557 22.2293L52.4347 22.4791L52.8815 19.8328L51.4025 19.583L49.9234 19.3333L49.4766 21.9796L50.9557 22.2293ZM51.4025 19.583L52.601 20.485L54.2098 18.3471L53.0112 17.4452L51.8127 16.5433L50.2039 18.6811L51.4025 19.583ZM53.0112 17.4452L54.0719 18.5059L55.9271 16.6508L54.8664 15.5901L53.8058 14.5294L51.9506 16.3845L53.0112 17.4452ZM54.8664 15.5901L55.5745 16.9124L57.9093 15.6623L57.2012 14.3399L56.4931 13.0175L54.1583 14.2677L54.8664 15.5901ZM57.2012 14.3399L57.5365 15.8019L60.1565 15.2011L59.8212 13.739L59.4859 12.277L56.8659 12.8778L57.2012 14.3399ZM59.8212 13.739L59.3783 15.1721L61.9388 15.9636L62.3818 14.5304L62.8247 13.0973L60.2642 12.3059L59.8212 13.739ZM62.3818 14.5304L62.0119 15.9841L64.6071 16.6445L64.977 15.1908L65.3469 13.7372L62.7517 13.0768L62.3818 14.5304ZM64.977 15.1908L63.8943 16.229L65.7501 18.1644L66.8328 17.1262L67.9155 16.088L66.0597 14.1527L64.977 15.1908ZM66.8328 17.1262L65.6096 17.9944L67.1483 20.1621L68.3715 19.2939L69.5947 18.4256L68.056 16.258L66.8328 17.1262ZM68.3715 19.2939L66.8837 19.4852L67.2213 22.11L68.709 21.9187L70.1968 21.7273L69.8592 19.1026L68.3715 19.2939ZM68.709 21.9187L67.2605 22.3084L67.5515 23.3898L69 23L70.4485 22.6102L70.1575 21.5289L68.709 21.9187Z" fill="black"/>
<path d="M53.1 56V57.5H53.1323L53.1645 57.4986L53.1 56ZM55.64 55.8907L55.797 54.3989L55.6865 54.3873L55.5755 54.3921L55.64 55.8907ZM58.28 56.1686L58.123 57.6603L58.2739 57.6762L58.425 57.6615L58.28 56.1686ZM60.92 55.9122L60.8596 54.4134L60.8172 54.4151L60.775 54.4192L60.92 55.9122ZM63.56 55.8058L63.6763 54.3103L63.588 54.3034L63.4996 54.307L63.56 55.8058ZM66.2 56.0111L67.5798 55.4227L67.2231 54.5861L66.3163 54.5156L66.2 56.0111ZM66.9798 57.84L68.476 57.7326L68.458 57.4824L68.3596 57.2517L66.9798 57.84ZM67.1694 60.48L68.6688 60.5223L68.6709 60.4473L68.6655 60.3726L67.1694 60.48ZM67.095 63.12L68.5846 63.2963L68.5925 63.2295L68.5944 63.1623L67.095 63.12ZM66.7826 65.76L65.293 65.5837L65.2681 65.7941L65.3024 66.0032L66.7826 65.76ZM67.2164 68.4L68.7143 68.4793L68.7229 68.3171L68.6965 68.1568L67.2164 68.4ZM67.0766 71.04L65.5787 70.9607L65.574 71.0493L65.5798 71.1379L67.0766 71.04ZM67.2493 73.68L68.7382 73.8617L68.7552 73.7223L68.7461 73.5821L67.2493 73.68ZM66.9271 76.32L65.4381 76.1383L65.4241 76.2533L65.4279 76.3692L66.9271 76.32ZM67.0137 78.96L68.5129 78.9117L68.5129 78.9108L67.0137 78.96ZM67.0987 81.6L68.5867 81.7893L68.6018 81.6709L68.5979 81.5517L67.0987 81.6ZM66.76 84.2627L66.4988 85.7397L68.0493 86.014L68.248 84.452L66.76 84.2627ZM64.12 83.7958L64.3812 82.3187L64.121 82.2727L63.8607 82.3184L64.12 83.7958ZM61.48 84.2592L61.3392 85.7526L61.5404 85.7715L61.7394 85.7366L61.48 84.2592ZM58.84 84.0103L58.9808 82.5169L58.8701 82.5065L58.7591 82.5125L58.84 84.0103ZM56.2 84.1529L55.9874 85.6378L56.1335 85.6587L56.2809 85.6507L56.2 84.1529ZM53.56 83.775L52.1894 84.3845L52.5264 85.1423L53.3474 85.2598L53.56 83.775ZM52.7351 81.92L51.2371 81.8418L51.2183 82.2009L51.3645 82.5295L52.7351 81.92ZM52.873 79.28L54.3709 79.3582L54.3721 79.3353L54.3726 79.3122L52.873 79.28ZM52.9297 76.64L54.4294 76.6722L54.43 76.6436L54.4295 76.6151L52.9297 76.64ZM52.8858 74L51.3972 73.815L51.3842 73.9196L51.386 74.025L52.8858 74ZM53.2139 71.36L54.7024 71.545L54.7224 71.3845L54.7076 71.2235L53.2139 71.36ZM52.9726 68.72L51.4726 68.7315L51.4731 68.7941L51.4788 68.8565L52.9726 68.72ZM52.9524 66.08L51.4619 65.9112L51.4517 66.0011L51.4524 66.0915L52.9524 66.08ZM53.2513 63.44L54.7418 63.6088L54.764 63.4124L54.7347 63.217L53.2513 63.44ZM52.8545 60.8L51.3563 60.7266L51.349 60.8755L51.3712 61.023L52.8545 60.8ZM52.9839 58.16L51.4875 58.0556L51.4864 58.0711L51.4857 58.0866L52.9839 58.16ZM53.1346 56L54.6309 56.1044L54.7428 54.5H53.1346V56ZM53 56V57.5H53.1V56V54.5H53V56ZM53.1 56L53.1645 57.4986L55.7045 57.3893L55.64 55.8907L55.5755 54.3921L53.0355 54.5014L53.1 56ZM55.64 55.8907L55.483 57.3824L58.123 57.6603L58.28 56.1686L58.437 54.6768L55.797 54.3989L55.64 55.8907ZM58.28 56.1686L58.425 57.6615L61.065 57.4052L60.92 55.9122L60.775 54.4192L58.135 54.6756L58.28 56.1686ZM60.92 55.9122L60.9804 57.411L63.6204 57.3046L63.56 55.8058L63.4996 54.307L60.8596 54.4134L60.92 55.9122ZM63.56 55.8058L63.4437 57.3013L66.0837 57.5065L66.2 56.0111L66.3163 54.5156L63.6763 54.3103L63.56 55.8058ZM66.2 56.0111L64.8202 56.5994L65.6 58.4283L66.9798 57.84L68.3596 57.2517L67.5798 55.4227L66.2 56.0111ZM66.9798 57.84L65.4837 57.9474L65.6732 60.5874L67.1694 60.48L68.6655 60.3726L68.476 57.7326L66.9798 57.84ZM67.1694 60.48L65.67 60.4377L65.5956 63.0777L67.095 63.12L68.5944 63.1623L68.6688 60.5223L67.1694 60.48ZM67.095 63.12L65.6054 62.9437L65.293 65.5837L66.7826 65.76L68.2722 65.9362L68.5846 63.2963L67.095 63.12ZM66.7826 65.76L65.3024 66.0032L65.7362 68.6432L67.2164 68.4L68.6965 68.1568L68.2627 65.5168L66.7826 65.76ZM67.2164 68.4L65.7185 68.3207L65.5787 70.9607L67.0766 71.04L68.5745 71.1193L68.7143 68.4793L67.2164 68.4ZM67.0766 71.04L65.5798 71.1379L65.7524 73.7779L67.2493 73.68L68.7461 73.5821L68.5734 70.9421L67.0766 71.04ZM67.2493 73.68L65.7603 73.4983L65.4381 76.1383L66.9271 76.32L68.416 76.5017L68.7382 73.8617L67.2493 73.68ZM66.9271 76.32L65.4279 76.3692L65.5145 79.0092L67.0137 78.96L68.5129 78.9108L68.4263 76.2708L66.9271 76.32ZM67.0137 78.96L65.5144 79.0083L65.5995 81.6483L67.0987 81.6L68.5979 81.5517L68.5129 78.9117L67.0137 78.96ZM67.0987 81.6L65.6107 81.4107L65.272 84.0734L66.76 84.2627L68.248 84.452L68.5867 81.7893L67.0987 81.6ZM66.76 84.2627L67.0212 82.7856L64.3812 82.3187L64.12 83.7958L63.8588 85.2729L66.4988 85.7397L66.76 84.2627ZM64.12 83.7958L63.8607 82.3184L61.2207 82.7818L61.48 84.2592L61.7394 85.7366L64.3793 85.2732L64.12 83.7958ZM61.48 84.2592L61.6208 82.7658L58.9808 82.5169L58.84 84.0103L58.6992 85.5037L61.3392 85.7526L61.48 84.2592ZM58.84 84.0103L58.7591 82.5125L56.1191 82.6551L56.2 84.1529L56.2809 85.6507L58.9209 85.5081L58.84 84.0103ZM56.2 84.1529L56.4126 82.6681L53.7726 82.2901L53.56 83.775L53.3474 85.2598L55.9874 85.6378L56.2 84.1529ZM53.56 83.775L54.9306 83.1654L54.1056 81.3105L52.7351 81.92L51.3645 82.5295L52.1894 84.3845L53.56 83.775ZM52.7351 81.92L54.233 81.9982L54.3709 79.3582L52.873 79.28L51.375 79.2018L51.2371 81.8418L52.7351 81.92ZM52.873 79.28L54.3726 79.3122L54.4294 76.6722L52.9297 76.64L51.43 76.6078L51.3733 79.2478L52.873 79.28ZM52.9297 76.64L54.4295 76.6151L54.3856 73.9751L52.8858 74L51.386 74.025L51.4299 76.665L52.9297 76.64ZM52.8858 74L54.3743 74.185L54.7024 71.545L53.2139 71.36L51.7253 71.175L51.3972 73.815L52.8858 74ZM53.2139 71.36L54.7076 71.2235L54.4663 68.5835L52.9726 68.72L51.4788 68.8565L51.7201 71.4965L53.2139 71.36ZM52.9726 68.72L54.4725 68.7085L54.4523 66.0685L52.9524 66.08L51.4524 66.0915L51.4726 68.7315L52.9726 68.72ZM52.9524 66.08L54.4429 66.2488L54.7418 63.6088L53.2513 63.44L51.7608 63.2712L51.4619 65.9112L52.9524 66.08ZM53.2513 63.44L54.7347 63.217L54.3378 60.577L52.8545 60.8L51.3712 61.023L51.768 63.663L53.2513 63.44ZM52.8545 60.8L54.3527 60.8734L54.4821 58.2334L52.9839 58.16L51.4857 58.0866L51.3563 60.7266L52.8545 60.8ZM52.9839 58.16L54.4802 58.2644L54.6309 56.1044L53.1346 56L51.6382 55.8956L51.4875 58.0556L52.9839 58.16ZM53.1346 56V54.5H53V56V57.5H53.1346V56Z" fill="black"/>
<path d="M64 93V91.5H63.9468L63.8938 91.5038L64 93ZM63.9003 93.0071L63.794 91.5108L62.7198 91.5871L62.4486 92.6294L63.9003 93.0071ZM63.2465 95.5196L63.9383 96.8505L64.5302 96.5429L64.6982 95.8973L63.2465 95.5196ZM60.9515 96.7124L60.9741 98.2122L61.3286 98.2069L61.6432 98.0434L60.9515 96.7124ZM58.3734 96.7513L57.4051 97.897L57.8342 98.2597L58.396 98.2512L58.3734 96.7513ZM56.3221 95.0175L54.8293 95.1651L54.8892 95.7705L55.3538 96.1631L56.3221 95.0175ZM56.0604 92.371L54.7382 91.6627L54.5228 92.0647L54.5676 92.5186L56.0604 92.371ZM57.2798 90.0949L56.5733 88.7717L56.1723 88.9858L55.9576 89.3865L57.2798 90.0949ZM59.6145 88.8482L60.0054 87.4L59.4319 87.2453L58.908 87.525L59.6145 88.8482ZM62.2011 89.5463L63.4733 88.7516L63.161 88.2517L62.592 88.0981L62.2011 89.5463ZM63.5627 91.7259L64.8973 91.0412L64.8684 90.9849L64.8349 90.9312L63.5627 91.7259ZM64.2164 93V94.5H66.6719L65.551 92.3153L64.2164 93ZM64 93L63.8938 91.5038L63.794 91.5108L63.9003 93.0071L64.0065 94.5033L64.1062 94.4962L64 93ZM63.9003 93.0071L62.4486 92.6294L61.7949 95.1419L63.2465 95.5196L64.6982 95.8973L65.3519 93.3848L63.9003 93.0071ZM63.2465 95.5196L62.5548 94.1886L60.2597 95.3814L60.9515 96.7124L61.6432 98.0434L63.9383 96.8505L63.2465 95.5196ZM60.9515 96.7124L60.9288 95.2126L58.3507 95.2515L58.3734 96.7513L58.396 98.2512L60.9741 98.2122L60.9515 96.7124ZM58.3734 96.7513L59.3417 95.6057L57.2903 93.8719L56.3221 95.0175L55.3538 96.1631L57.4051 97.897L58.3734 96.7513ZM56.3221 95.0175L57.8148 94.8699L57.5531 92.2234L56.0604 92.371L54.5676 92.5186L54.8293 95.1651L56.3221 95.0175ZM56.0604 92.371L57.3826 93.0794L58.602 90.8033L57.2798 90.0949L55.9576 89.3865L54.7382 91.6627L56.0604 92.371ZM57.2798 90.0949L57.9863 91.4181L60.3211 90.1714L59.6145 88.8482L58.908 87.525L56.5733 88.7717L57.2798 90.0949ZM59.6145 88.8482L59.2237 90.2964L61.8103 90.9945L62.2011 89.5463L62.592 88.0981L60.0054 87.4L59.6145 88.8482ZM62.2011 89.5463L60.929 90.341L62.2906 92.5207L63.5627 91.7259L64.8349 90.9312L63.4733 88.7516L62.2011 89.5463ZM63.5627 91.7259L62.2281 92.4107L62.8818 93.6847L64.2164 93L65.551 92.3153L64.8973 91.0412L63.5627 91.7259ZM64.2164 93V91.5H64V93V94.5H64.2164V93Z" fill="black"/>
<path d="M40.1 107.5V109H40.1323L40.1645 108.999L40.1 107.5ZM42.64 107.391L42.797 105.899L42.6865 105.887L42.5755 105.892L42.64 107.391ZM45.28 107.669L45.123 109.16L45.2739 109.176L45.425 109.162L45.28 107.669ZM47.92 107.412L47.8596 105.913L47.8172 105.915L47.775 105.919L47.92 107.412ZM50.56 107.306L50.6763 105.81L50.588 105.803L50.4996 105.807L50.56 107.306ZM53.2 107.511L53.0837 109.007L53.1392 109.011L53.1948 109.011L53.2 107.511ZM55.84 107.52L55.8348 109.02L55.8912 109.02L55.9474 109.016L55.84 107.52ZM58.48 107.331L58.5223 105.831L58.4473 105.829L58.3726 105.834L58.48 107.331ZM61.12 107.405L61.2963 105.915L61.2295 105.908L61.1623 105.906L61.12 107.405ZM63.76 107.717L63.5837 109.207L63.7941 109.232L64.0032 109.198L63.76 107.717ZM66.4 107.284L66.4793 105.786L66.3171 105.777L66.1568 105.803L66.4 107.284ZM69.04 107.423L68.9607 108.921L69.0493 108.926L69.1379 108.92L69.04 107.423ZM71.68 107.251L71.8617 105.762L71.7223 105.745L71.5821 105.754L71.68 107.251ZM74.32 107.573L74.1383 109.062L74.2533 109.076L74.3692 109.072L74.32 107.573ZM76.96 107.486L76.9117 105.987L76.9108 105.987L76.96 107.486ZM79.6 107.401L79.6483 108.901L79.6707 108.9L79.693 108.898L79.6 107.401ZM82.24 107.237L82.73 105.82L82.4464 105.722L82.147 105.74L82.24 107.237ZM40 107.5V109H40.1V107.5V106H40V107.5ZM40.1 107.5L40.1645 108.999L42.7045 108.889L42.64 107.391L42.5755 105.892L40.0355 106.001L40.1 107.5ZM42.64 107.391L42.483 108.882L45.123 109.16L45.28 107.669L45.437 106.177L42.797 105.899L42.64 107.391ZM45.28 107.669L45.425 109.162L48.065 108.905L47.92 107.412L47.775 105.919L45.135 106.176L45.28 107.669ZM47.92 107.412L47.9804 108.911L50.6204 108.805L50.56 107.306L50.4996 105.807L47.8596 105.913L47.92 107.412ZM50.56 107.306L50.4437 108.801L53.0837 109.007L53.2 107.511L53.3163 106.016L50.6763 105.81L50.56 107.306ZM53.2 107.511L53.1948 109.011L55.8348 109.02L55.84 107.52L55.8452 106.02L53.2052 106.011L53.2 107.511ZM55.84 107.52L55.9474 109.016L58.5874 108.827L58.48 107.331L58.3726 105.834L55.7326 106.024L55.84 107.52ZM58.48 107.331L58.4377 108.83L61.0777 108.904L61.12 107.405L61.1623 105.906L58.5223 105.831L58.48 107.331ZM61.12 107.405L60.9437 108.895L63.5837 109.207L63.76 107.717L63.9363 106.228L61.2963 105.915L61.12 107.405ZM63.76 107.717L64.0032 109.198L66.6432 108.764L66.4 107.284L66.1568 105.803L63.5168 106.237L63.76 107.717ZM66.4 107.284L66.3207 108.782L68.9607 108.921L69.04 107.423L69.1193 105.926L66.4793 105.786L66.4 107.284ZM69.04 107.423L69.1379 108.92L71.7779 108.748L71.68 107.251L71.5821 105.754L68.9421 105.927L69.04 107.423ZM71.68 107.251L71.4983 108.74L74.1383 109.062L74.32 107.573L74.5017 106.084L71.8617 105.762L71.68 107.251ZM74.32 107.573L74.3692 109.072L77.0092 108.986L76.96 107.486L76.9108 105.987L74.2708 106.074L74.32 107.573ZM76.96 107.486L77.0083 108.986L79.6483 108.901L79.6 107.401L79.5517 105.902L76.9117 105.987L76.96 107.486ZM79.6 107.401L79.693 108.898L82.333 108.734L82.24 107.237L82.147 105.74L79.507 105.904L79.6 107.401ZM82.24 107.237L81.75 108.655L82.51 108.918L83 107.5L83.49 106.082L82.73 105.82L82.24 107.237Z" fill="black"/>
<path d="M40.1 111.5V113H40.1323L40.1645 112.999L40.1 111.5ZM42.64 111.391L42.797 109.899L42.6865 109.887L42.5755 109.892L42.64 111.391ZM45.28 111.669L45.123 113.16L45.2739 113.176L45.425 113.162L45.28 111.669ZM47.92 111.412L47.8596 109.913L47.8172 109.915L47.775 109.919L47.92 111.412ZM50.56 111.306L50.6763 109.81L50.588 109.803L50.4996 109.807L50.56 111.306ZM53.2 111.511L53.0837 113.007L53.1392 113.011L53.1948 113.011L53.2 111.511ZM55.84 111.52L55.8348 113.02L55.8912 113.02L55.9474 113.016L55.84 111.52ZM58.48 111.331L58.5223 109.831L58.4473 109.829L58.3726 109.834L58.48 111.331ZM61.12 111.405L61.2963 109.915L61.2295 109.908L61.1623 109.906L61.12 111.405ZM63.76 111.717L63.5837 113.207L63.7941 113.232L64.0032 113.198L63.76 111.717ZM66.4 111.284L66.4793 109.786L66.3171 109.777L66.1568 109.803L66.4 111.284ZM69.04 111.423L68.9607 112.921L69.0493 112.926L69.1379 112.92L69.04 111.423ZM71.68 111.251L71.8617 109.762L71.7223 109.745L71.5821 109.754L71.68 111.251ZM74.32 111.573L74.1383 113.062L74.2533 113.076L74.3692 113.072L74.32 111.573ZM76.96 111.486L76.9117 109.987L76.9108 109.987L76.96 111.486ZM79.6 111.401L79.6483 112.901L79.6707 112.9L79.693 112.898L79.6 111.401ZM82.24 111.237L82.73 109.82L82.4464 109.722L82.147 109.74L82.24 111.237ZM40 111.5V113H40.1V111.5V110H40V111.5ZM40.1 111.5L40.1645 112.999L42.7045 112.889L42.64 111.391L42.5755 109.892L40.0355 110.001L40.1 111.5ZM42.64 111.391L42.483 112.882L45.123 113.16L45.28 111.669L45.437 110.177L42.797 109.899L42.64 111.391ZM45.28 111.669L45.425 113.162L48.065 112.905L47.92 111.412L47.775 109.919L45.135 110.176L45.28 111.669ZM47.92 111.412L47.9804 112.911L50.6204 112.805L50.56 111.306L50.4996 109.807L47.8596 109.913L47.92 111.412ZM50.56 111.306L50.4437 112.801L53.0837 113.007L53.2 111.511L53.3163 110.016L50.6763 109.81L50.56 111.306ZM53.2 111.511L53.1948 113.011L55.8348 113.02L55.84 111.52L55.8452 110.02L53.2052 110.011L53.2 111.511ZM55.84 111.52L55.9474 113.016L58.5874 112.827L58.48 111.331L58.3726 109.834L55.7326 110.024L55.84 111.52ZM58.48 111.331L58.4377 112.83L61.0777 112.904L61.12 111.405L61.1623 109.906L58.5223 109.831L58.48 111.331ZM61.12 111.405L60.9437 112.895L63.5837 113.207L63.76 111.717L63.9363 110.228L61.2963 109.915L61.12 111.405ZM63.76 111.717L64.0032 113.198L66.6432 112.764L66.4 111.284L66.1568 109.803L63.5168 110.237L63.76 111.717ZM66.4 111.284L66.3207 112.782L68.9607 112.921L69.04 111.423L69.1193 109.926L66.4793 109.786L66.4 111.284ZM69.04 111.423L69.1379 112.92L71.7779 112.748L71.68 111.251L71.5821 109.754L68.9421 109.927L69.04 111.423ZM71.68 111.251L71.4983 112.74L74.1383 113.062L74.32 111.573L74.5017 110.084L71.8617 109.762L71.68 111.251ZM74.32 111.573L74.3692 113.072L77.0092 112.986L76.96 111.486L76.9108 109.987L74.2708 110.074L74.32 111.573ZM76.96 111.486L77.0083 112.986L79.6483 112.901L79.6 111.401L79.5517 109.902L76.9117 109.987L76.96 111.486ZM79.6 111.401L79.693 112.898L82.333 112.734L82.24 111.237L82.147 109.74L79.507 109.904L79.6 111.401ZM82.24 111.237L81.75 112.655L82.51 112.918L83 111.5L83.49 110.082L82.73 109.82L82.24 111.237Z" fill="black"/>
</svg>
