<svg xmlns="http://www.w3.org/2000/svg" width="120" height="120" fill="none" viewBox="0 0 120 120"><path fill="#000" d="m44.666 30.405.223.246.093.329.61 2.039 1.593 1.347 2.192 1.207.223.13.164.175 1.78 1.957.048.059.058.07 1.465 2.016 1.84 1.699.047.035.035.035 1.816 1.922.012.023 1.723 1.887 1.898 1.852.059.058.047.07 1.617 1.993 1.77 1.957.023.011.012.024 1.629 1.934 1.804 1.851 1.638 1.362.785-1.487.059-.117.082-.106 1.617-2.085.21-.27.306-.152 2.367-1.172 2.344-1.172.152-.082.176-.047 2.59-.621.257-.059.27.035 2.648.317-.011.012 2.59.234.105.012.117.023 2.543.633.164.047 2.45.925.128.047.117.059 2.285 1.371.06.047 2.12 1.547.153.117.128.14 1.676 2.063.117.14.082.177 1.114 2.402v.012l.011.023 1.055 2.414.047.117.844 2.485 1.054 2.285.024.047.012.047.925 2.46.914 2.368 1.114 2.414.234.527-.176.55-.726 2.286-.153.516-.457.28-2.074 1.337-2.039 1.676-.012.011-1.01.83.738.508 2.215.961.082.035.07.035 2.297 1.325.105.058.094.082 2.051 1.7.117.093.094.117 1.629 2.028 1.816 1.71.117.118 1.7 2.016h.011l.012.011 1.641 1.992 1.758 1.993.093.105.071.106 1.371 2.273.023.047.024.059.07.128-1.336.68-1.336.668-.012-.023-1.336-2.203-1.629-1.84-.035-.035-1.687-2.04v-.011l-1.676-1.957-1.828-1.723-.07-.07-.071-.082-1.558-1.934-1.817-1.523-2.097-1.207-2.356-1.032-.129-.058-.129-.082-1.81-1.247-.8.436-.398-.715-.399-.539-.902-1.207.164-.117.105-.059 2.11-1.148 1.945-1.582 2.039-1.687.07-.059.07-.047 1.758-1.148.387-1.207-.867-1.875-.023-.036-.012-.046-.949-2.461v-.012l-.938-2.473v-.011l-1.055-2.297-.046-.14-.82-2.38-1.055-2.426v-.011l-1.02-2.18-1.441-1.77-1.84-1.359-2.098-1.266-2.203-.82-2.437-.61-2.473-.222h-.024l-.023-.012-2.39-.293-2.157.516-2.191 1.113V54l-2.075 1.02-1.324 1.699-1.02 1.945-.105 1.43 2.215.047 2.602-.13h.058l2.649-.034 2.578-.13.21-.011.212.047 2.566.61.117.034.117.047 2.426 1.032.235.105.199.188 1.5 1.394 1.922.047.363.012.328.175 2.227 1.243.351.187.211.352 1.23 2.039.27.457-.07.527-.375 2.59-.082.55-.41.364-2.063 1.793-.351.305-.457.058-1.746.188-.504 1.629-.059.187-.106.164-1.43 2.25-.023.047-1.511 2.203-.223.317-2.742 1.37-.059.036-.058.023-2.38.938-.093.035-.106.023-2.578.633-.351.094-.363-.094-.688-.164-.531 1.358-.574 2.485-.047.14-.844 2.462-.574 1.675-1.559-.843-.094-.06.715-1.3-1.324-.445.844-2.461.562-2.426.024-.105.047-.094.535-1.395-1.696-1.37-2.12-1.64-.329-.258-.14-.387-.973-2.496-.012-.035-.011-.047-.81-2.484-.034-.118-.012-.117-.41-2.59-.024-.117v-.129l.012-2.613-.02-1.942-.158.113-.761 2.074v.023l-.012.012-.973 2.45-.023.058-.024.047-1.171 2.39-.059.118-.082.105-1.113 1.5.363 1.23 1.734 1.16.047.036.035.035 2.098 1.629.621.48-.047.797-.176 2.602-.035.527-.351.387-1.805 1.969-.023.011-.012.012-1.758 1.805-1.395 1.934-.925 2.214-.68 2.45-.012.035-.023.035-.844 2.426.012.011-.774 2.532v.011l-.796 2.52-.059.187-.117.176-1.442 2.238-.41.645-.773.035-2.532.129-2.578.434-.011-.012-2.508.562-.14.036h-.153l-2.496.035-2.426.55-.07.024-.07.012-2.52.316-2.309.82-.117.047-.129.024-2.203.351-1.371 1.336-.879 1.992-.223 1.512.774.586.225.165.485.032-.012.012 2.555.012h.047l2.59.105 2.496-.082 2.648-.246h.152l2.637.047-.012.012h2.66l2.602.058 2.613-.058h.13l.117.011 2.484.364 1.846-.122-.123-.549-.07-.305.058-.305.492-2.613.023-.082.024-.094.808-2.507.094-.282.2-.234 1.687-1.957.14-.164.188-.117 2.168-1.395.164-.105.188-.059 2.496-.809.082-.035.082-.011 2.578-.528 2.601-.539.153-.023h.152l2.613.023 2.508-.246v.012l2.543-.399h.047l2.637-.304.105-.024.106.012 2.414.07.082-.011v.011h.047l-.012.492.07.997.117 1.5h-.093l-.082.011h-.082l-2.461-.07-2.496.293-.012-.012-2.555.399h-.035l-.047.011-2.625.258h-.164l-2.52-.023-2.413.492-2.532.527-2.191.703-1.828 1.172-1.348 1.571-.691 2.109-.41 2.226.133.624.218-.023.152-.012.164.012 2.485.293 2.543-.152.082-.012.082.012 2.531.129 1.705-.202-.008-.053-.011-.094v-.106l-.059-2.238v-.176l.035-.164.446-2.097.773.175.703.036 1.488.093v.094l-.011.117-.024.106-.41 1.91.035 1.922.121.736.62.116 2.449-.152.047-.012h.035l2.625-.011v-.012l2.636-.059 2.637-.07h.035l2.637-.012h.106l.093.012 2.39.316 2.415-.468.246-.047.234.035 2.578.351 2.379.106 2.52-.434.117-.011h.117l2.637-.024h.152l.153.024 2.437.48 2.403-.246.082-.012h.082l1.043.012-.012 1.5-.024 1.5-.996-.012-2.507.258-.223.024-.223-.036-2.461-.492-2.425.012-2.497.434-.152.023-.164-.012-2.637-.105h-.07l-.07-.012-2.403-.34-2.39.469-.235.047-.234-.024-2.555-.328-2.531.012-.012-.012-2.59.082h-.011l-2.637.059h-.023l-2.567.012.012.011-2.637.176-.187.012-2.625-.492-2.39.281-.13.012h-.129l-2.554-.141-2.555.164h-.129l-.129-.012-2.496-.281-2.461.27h-.07l-2.637.152-.152.012-.141-.024-2.543-.351-2.508.058h-.058l-2.637-.058v-.012h-2.637l-2.625-.047-2.496.223-.035.011h-.047l-2.637.094h-.117l-2.636-.105v-.012l-2.59-.012h-.047l-.047-.011-2.578-.176-2.532.129h-.082l-2.636-.012v-.012l-2.508.024-2.637.234-.14.012-.153-.012-2.531-.281-2.578.012v-.012l-2.543.176h-.012l-.012.011-2.648.118-.094.011-.082-.011-2.543-.188.012-.223V114.5h.21l2.462.199 2.508-.117v-.012l2.636-.175h.094l2.637-.012.094-.012.082.012 2.508.281 2.484-.211.047-.012h.058l2.649-.023h.023l2.555.012.845-.038.039-.242.386-2.613.035-.199.083-.176 1.066-2.426.117-.269.2-.199 1.933-1.875.34-.34.469-.071 2.542-.421 2.356-.821.152-.058.153-.012 2.53-.34 2.532-.562.152-.036h.153l2.508-.046 2.449-.54h.035l.035-.011 2.614-.434.081-.012h.083l1.898-.117.926-1.441.726-2.285.774-2.52v-.023l.011-.035.856-2.485.703-2.46.023-.094.036-.082 1.02-2.438.07-.164.093-.14 1.559-2.145.058-.094.082-.07 1.829-1.899 1.418-1.558.082-1.266-1.454-1.137h-.011L61.56 78.83l-.434-.293-.164-.516-.738-2.46-.223-.715.445-.61.092-.126-.662-.655-.223-.2-.117-.28-.96-2.285-1.255-2.344-.011-.024-.024-.035-1.137-2.39-.023-.047-.012-.059-.937-2.426-1.02-2.425-.023-.047-.012-.036-.82-2.332-1.16-2.378-.024-.036-.012-.035-1.043-2.426v-.011l-1.02-2.274-1.253-2.332-.07-.129-.047-.14-.774-2.473-1.02-2.32v-.012l-1.16-2.262-.011-.012-.012-.023-1.136-2.402-.176-.363.035-.399.176-2.387-1.288-1.088-.256-.221-.871.515-1.278 1.922v.012l-1.488 2.191-.023.035-.035.036-1.606 2.086-.117.14-1.781 1.817-1.336 2.074-.07.094-1.594 2.097-.012.012h-.012l-1.605 2.004.011.012-1.523 2.156-.047.07-.059.059-1.77 1.968-1.593 1.993-.012.023-.023.012-1.71 2.015-1.477 2.051-1.407 2.157-.035.07-.058.058-1.665 2.028.012.011-1.64 2.063-.012.012v.011l-1.676 2.04-1.617 2.156-.094.082-1.816 1.734-1.418 2.063-1.371 2.191-.094.14-.117.106-1.782 1.805-1.43 2.062-.01.024-.024.023-1.243 1.64.024.165-.152.012-.211.293-.317-.246-.808.093-1.5.14-.07-.75-.06-.573.352-.47 1.594-2.108 1.477-2.122.07-.105.094-.094 1.734-1.77 1.348-2.109.011-.035.024-.023 1.5-2.18.094-.117.105-.106 1.828-1.78 1.524-1.993.011-.035.024-.024 1.676-2.039 1.628-2.05.012-.012 1.57-1.934 1.442-2.203.047-.07 1.547-2.133.07-.094 1.71-2.015 1.63-2.016.047-.07 1.699-1.899 1.5-2.098.023-.023.024-.035 1.64-2.074 1.512-2.004 1.453-2.192.082-.129.094-.105 1.77-1.816 1.535-1.97 1.488-2.19 1.465-2.192.187-.281.293-.176 1.757-1.048-.009-.032.133-.041.322-.192.046.08.73-.222.14-.129 1.114-1.008zm34.274 32.57h-.058l-2.59.024-2.613.152h-.118l-2.578-.058-.797.023-.187.305.61 1.969.058.199v.222l.035 2.614v.023l-.012 2.473.364 2.367.75 2.344.808 2.097 1.793 1.395.024.012 1.77 1.43 1.933.468 2.086-.515 2.203-.868 2.039-1.02 1.3-1.874 1.29-2.04.75-2.366.293-.926.972-.106 2.215-.258 1.29-1.136.21-1.5-.738-1.23-1.559-.868-2.12-.035-.575-.012-.422-.398-1.71-1.617-2.11-.903-2.156-.515zm-.762 4.345.164.446-.117.457-.54 2.086.258 1.09.856.046 1.289.059.129 1.277.011.117-1.488.153h-.023l-.047 1.394-1.98-.082-1.126-.058-.27-1.09-.608-2.543-.083-.363.083-.364.632-2.472 1.278.328.14-.047 1.407-.527zM47.43 38.322l.949 2.004 1.207 2.356.023.046.024.036 1.066 2.414.024.082.035.082.738 2.39 1.184 2.203.035.06.023.046 1.078 2.402v.012l.012.012.996 2.355h.012l1.16 2.38.07.163.856 2.403 1.02 2.437.023.047.926 2.426 1.066 2.25h.012l1.254 2.344.023.058.035.059.903 2.133.055.055.796-1.606.926-2.332.902-2.461.164-.434.375-.27 1.46-1.056-.11-.372.328-.563 1.23-2.085.05-.681-.586-.273-.175-.082-.153-.129-1.992-1.664-.117-.093-1.84-1.899-.035-.035-.035-.047-1.676-1.969-1.77-1.957-.023-.035-.035-.035-1.617-2.004-1.817-1.77-.023-.035-.024-.023-1.793-1.945v-.012l-1.722-1.828-1.946-1.781-.117-.106-.082-.117-1.535-2.098-1.523-1.687-.266-.148z"/></svg>