<svg width="120" height="120" viewBox="0 0 120 120" fill="none" xmlns="http://www.w3.org/2000/svg">
<path d="M55.1953 3.34766L57.2227 3.96875L58.2305 4.27344L58.2773 5.31641L58.418 7.96484L58.4297 8.04688L58.418 8.14062L58.2539 10.5781L58.4287 12.0479L59.3203 11.7812L59.543 11.7109H59.7656L62.3672 11.7461H62.7422L63.0586 11.9219L65.3789 13.1758L65.6953 13.3516L65.9062 13.6562L67.3594 15.8008L67.4883 15.9766L67.5469 16.1875L68.2285 18.3145L68.4844 18.2773L68.7305 19.8828L68.4893 19.9014L68.6602 21.5664L68.6719 21.7188L68.6602 21.8828L68.3906 24.3555L68.4551 26.0781L69.6367 26.7148L70.4805 27.1836L70.4219 28.1328L70.2578 30.6758L70.5625 33.1367L70.5742 33.2539V33.3711L70.4805 36.0078V36.0195L70.4219 37.4648L70.9922 37.7891L71.2852 37.9531L71.4727 38.2344L72.6211 39.8633L74.6602 41.2578L76.3945 42.4414L75.3066 43.2432L75.6367 45.7188L75.6602 45.8477L75.6484 45.9883L75.5195 48.5078L75.7305 51.0742L75.7422 51.2266L75.7305 51.3672L75.4375 53.875L75.5078 56.4297V56.4766L75.5195 59.043L75.6484 61.6797V61.7852L75.5898 64.4219L75.543 67.0703L75.5078 69.6953L75.6016 72.2617L75.6836 74.9102V74.9688L75.6719 77.6055V77.6289L75.625 80.2656L75.6133 80.3359V80.4062L75.3203 82.9141L75.3672 85.4688L75.6484 88V88.1523L75.6602 90.7891V90.8477L75.6484 90.9062L75.4609 93.4727L75.3906 96.1211L75.3438 98.7461L75.2969 101.242L75.6367 103.738L76.0703 106.352L76.0742 106.368L78.1475 106.24L78.3252 106.229L78.501 106.26L80.8799 106.682L83.2607 106.264L84.0059 106.133L84.5547 106.654L86.0449 108.074L86.4756 108.484L86.5078 109.079L86.6504 111.719L86.6592 111.866L86.6377 112.013L86.2842 114.477L86.9727 114.371L87.125 114.348L87.2773 114.359L89.9141 114.488H89.9258L92.4453 114.641L95 114.43L95.0586 114.418H95.1055L97.7539 114.406H97.8594L97.9648 114.418L100.367 114.746L102.77 114.312L103.027 114.266L103.285 114.301L105.816 114.723L108.137 114.664L110.738 114.266L111.031 114.219L111.312 114.289L112.355 114.547L111.652 117.453L110.891 117.266L108.547 117.629L108.453 117.652H108.359L105.723 117.723H105.582L103.051 117.301L100.672 117.734L100.438 117.781L100.203 117.746L97.6367 117.406H95.2344L92.5977 117.629L92.4922 117.641L92.3984 117.629L89.75 117.477V117.465L87.2773 117.348L84.8955 117.716L84.8496 117.815L83.8418 117.763L81.2334 117.626L78.6318 117.57L78.1221 117.578L76.7773 117.711L76.6133 117.723L76.4492 117.699L73.918 117.383L71.9766 117.418L70.8564 117.521L70.7939 117.527H70.7314L68.0918 117.548H68.001L67.9111 117.538L65.8096 117.299L63.7109 117.699L63.4766 117.746L63.2305 117.711L62.7871 117.646L62.7266 117.644L60.0869 117.515L60.0742 117.514L58.9385 117.448L58.2383 117.488H58.0156L57.1436 117.399L55.001 117.574L54.9453 117.578L54.8906 117.579L53.6396 117.587L53.1406 117.676L52.8828 117.723L52.6133 117.676L52.1621 117.597L52.1436 117.598L52.0381 117.583L49.7178 117.267L49.4941 117.281L47.2266 117.692L46.9717 117.738L46.7158 117.696L45.3828 117.477L42.3711 117.57H42.2539L42.1367 117.559L41.1738 117.442L39.2666 117.735L39.1514 117.753L39.0352 117.752L36.3945 117.742L35.0469 117.738L35.002 117.306L34.5078 117.277L32 117.699L31.7891 117.734L31.5781 117.711L29.0234 117.395L26.5391 117.324L23.9492 117.512L23.8906 117.523H23.832L21.1953 117.512H21.0781L18.5 117.301L16.0508 117.395L16.0625 117.406L13.4258 117.664L13.2734 117.676L13.1211 117.664L10.625 117.395L8.16406 117.5H8V114.5H8.03516L10.5781 114.395L10.6836 114.383L10.8008 114.395L13.2852 114.664L15.7695 114.418H15.8633L18.5 114.312L18.5938 114.301L18.6758 114.312L21.3125 114.512L21.3008 114.523H23.7383L26.375 114.336L26.4453 114.324L26.5273 114.336L29.1641 114.406H29.2344L29.293 114.418L31.7305 114.699L34.1562 114.301L34.3203 114.277L34.4844 114.289L34.6904 114.3L34.6514 113.914L34.6475 113.88L34.6455 113.845L34.4971 111.204L34.4941 111.166V111.128L34.4805 108.488V108.453L34.4814 108.418L34.501 107.938L34.5605 106.5H36.0576L38.5752 106.392L38.6865 106.388L38.7969 106.398L41.2871 106.661L43.7754 106.419L43.8174 106.415L43.8594 106.413L44.6025 106.383L44.7461 105.145L44.7578 105.004L44.8047 104.875L45.5195 102.566L45.4844 100.176L45.4023 97.5859L45.2383 94.9375L45.2266 94.7617L45.2617 94.5859L45.6953 92.207L45.2617 89.8281L45.2266 89.6289L45.25 89.4297L45.4961 86.875L45.3438 84.3672V84.2266L45.3672 84.0742L45.707 81.6484L45.2617 79.2812L45.2266 79.1055L45.2383 78.9297L45.3789 76.293L45.4258 73.75L45.3906 71.1133L45.3789 71.0078L45.4023 70.9023L45.7188 68.4414L45.4844 65.9453L45.4727 65.8867V65.8164L45.4492 63.1797V63.0859L45.4609 63.0039L45.7422 60.5781L45.3672 58.1172L45.3438 57.9648L45.3555 57.8125L45.4844 55.1758V55.1641L45.6367 52.6328L45.4258 50.0898V49.9844L45.4023 47.3359V47.2305L45.4141 47.125L45.7773 44.4883L45.8008 44.3125L45.8594 44.1602L46.1133 43.4951L45.9258 43.2031L45.0234 41.7969L46.5234 41.0469L48.5742 40.0273L49.5352 38.3047L49.7344 37.9414L50.0859 37.7305L50.5225 37.4746L50.6055 35.4219L50.3359 32.8789L50.3242 32.7266L50.3359 32.5742L50.5938 29.9375L50.6992 27.3828L50.7461 26.2344L51.5371 26.0508L51.6094 24.3594L51.3398 21.875L51.3281 21.7227L51.3398 21.5703L51.5859 19.0156L51.6914 16.3789L51.4922 13.918V13.8008L51.4805 11.1641V11.0469L51.668 8.41016L51.5977 5.92578L51.5742 5.08203L52.2656 4.625L53.9297 3.53516L54.5273 3.13672L55.1953 3.34766ZM75.6934 109.398L75.6484 109.4L75.2666 109.412L75.2734 109.48L75.0156 109.527L73.4102 109.809L73.375 109.562L72.4258 109.609H72.3086L72.2031 109.598L71.5732 109.532L70.3691 109.572L70.2529 109.576L70.1387 109.562L68.9424 109.415L67.2227 109.586H67.1406L64.5039 109.691H64.3281L61.7969 109.48V109.492L61.2637 109.489L60.0029 109.697L59.7939 109.731L59.584 109.707L58.2656 109.551L56.6289 109.668H56.4766L53.8398 109.598H53.7695L53.6992 109.586L52.6826 109.463L51.9473 109.517L51.8916 109.521H51.835L49.9258 109.513L48.8477 109.691L48.6484 109.727L48.4492 109.703L45.7773 109.434L45.1006 109.365L44.0215 109.409L41.4248 109.661L41.2734 109.676L41.123 109.66L38.5928 109.394L37.4854 109.441L37.4932 111.066L37.6387 113.646L37.7148 114.381L39.582 114.254L39.7227 114.242L39.8633 114.266L41.1152 114.417L41.4541 114.366L41.5469 114.353L41.6416 114.35L44.2812 114.282L44.4238 114.278L44.5635 114.302L45.5869 114.47L47.5039 114.418V114.406L49.0771 114.309L49.333 114.263L49.5664 114.221L49.8018 114.252L49.8613 114.26L50.1523 114.242L50.3281 114.23L50.5039 114.266L52.3633 114.595L53.4414 114.588L55.2617 114.266L55.4609 114.23L55.6602 114.242L57.1484 114.39L57.3994 114.37L57.502 114.362L57.6055 114.368L58.9434 114.443L60.7227 114.348L60.8633 114.336L61.0156 114.359L62.8252 114.624L65.2168 114.266L65.4121 114.236L65.6084 114.258L65.7588 114.274L65.8086 114.266L65.9844 114.23L66.1602 114.242L68.7969 114.371L68.7852 114.383L71.3633 114.43L71.7979 114.422L73.2236 114.292L73.3848 114.277L73.5449 114.298L76.0762 114.612L78.0645 114.579L79.1445 114.477H79.2734L81.9102 114.453H82.0039L82.0859 114.465L83.0547 114.575L83.3213 114.007L83.6465 111.732L83.5439 109.835L83.0332 109.349L81.1396 109.682L80.8789 109.728L80.6191 109.682L78.1523 109.245L75.6934 109.398ZM71.2842 93.4209L69.1738 94.7646L68.9961 94.8779L68.791 94.9404L66.2949 95.6748L63.9766 96.5869L61.6777 97.7568L61.6289 97.79L61.5752 97.8125L59.1445 98.8369L59.0361 98.8828L56.5693 99.7178L54.3613 100.761L54.3721 100.757L52.0693 102.017L51.9355 102.087L51.7891 102.136L49.3701 102.889L48.4248 103.334L47.6992 105.625L47.6084 106.383L49.2559 106.512L49.709 106.513L50.9922 106.305L51.2031 106.27L51.4141 106.293L52.7393 106.451L54.373 106.334L54.4473 106.329L54.5225 106.331L57.1621 106.405L57.2295 106.407L57.2959 106.415L58.2852 106.532L59.0547 106.48H59.1602L60.9395 106.487L60.8594 106.109L60.8125 105.875L60.8359 105.629L61.0938 103.367L61 101.176V101H64V101.023L64.1055 103.332L64.1172 103.449L64.0938 103.578L63.8477 105.723L63.9883 106.366L65.0293 106.422L67.582 106.254L67.7227 106.245L67.8613 106.262L68.9756 106.397L69.5781 106.34L69.7305 106.328L69.8828 106.34L71.6904 106.527L72.9111 106.487H72.9121L73.0537 106.482L72.6719 104.242V104.195L72.3086 101.559L72.2969 101.441V101.324L72.3906 96.0508V96.0273L72.4727 93.3906V93.332L72.4971 92.9814L71.2842 93.4209ZM71.2842 78.2568L69.1738 79.6006L68.9961 79.7139L68.791 79.7764L66.2949 80.5107L63.9766 81.4229L61.6777 82.5928L61.6289 82.626L61.5752 82.6494L59.1445 83.6729L59.0361 83.7188L56.5693 84.5547L54.3613 85.5967L54.3721 85.5928L52.0693 86.8525L51.9355 86.9229L51.7891 86.9727L49.3701 87.7246L48.377 88.1924L48.25 89.5352L48.6836 91.9492L48.7305 92.207L48.6836 92.4766L48.2383 94.9141L48.4023 97.3984V97.4453L48.4834 100.054L50.5068 99.4365L52.6748 98.2461L52.7607 98.209L55.1357 97.083L55.2168 97.0361L55.2979 97.0137L57.8184 96.1553L57.8135 96.1699L60.0557 95.2139L62.3916 94.0156L62.4512 93.9775L62.5322 93.9561L63.6953 93.4961H62.5V92.0195L61.1641 92.4531L60.9062 91.6562L60.7891 91.3047L60.8594 90.9414L61.0938 89.5L61 88.2109V88L64 87.9883L64.1055 89.4883L64.1172 89.6758L64.082 89.8516L63.8711 91.082L64.0117 91.5391L64.5361 93.1631L64.9912 92.9834L65.0557 92.9561L65.1152 92.9434L67.4922 92.2354L69.5332 90.9336L69.6729 90.8486L69.8291 90.7949L72.3223 89.8848L72.4512 89.8291L72.5977 89.8047L72.6553 89.7959L72.6484 88.1641H72.6367L72.3906 85.668L72.3789 85.6094V85.5508L72.3203 82.9141L72.3086 82.8086L72.3203 82.7031L72.625 80.0664L72.668 77.7559L71.2842 78.2568ZM57.1055 89.4883L57.1172 89.6758L57.082 89.8516L56.8711 91.082L57.0117 91.5391L57.6445 93.4961H55.5V92.0195L54.1641 92.4531L53.9062 91.6562L53.7891 91.3047L53.8594 90.9414L54.0938 89.5L54 88.2109V88L57 87.9883L57.1055 89.4883ZM71.2842 63.0928L69.1738 64.4365L68.9961 64.5508L68.791 64.6123L66.2949 65.3467L63.9766 66.2588L61.6777 67.4287L61.6289 67.4619L61.5752 67.4854L59.1445 68.5088L59.0361 68.5547L56.5693 69.3906L54.3613 70.4326L54.3721 70.4287L52.0693 71.6885L51.9355 71.7588L51.7891 71.8086L49.3701 72.5605L48.416 73.0098L48.4258 73.7031V73.7617L48.3672 76.3984V76.4453L48.2383 78.9062L48.6953 81.3789L48.7422 81.6133L48.707 81.8594L48.3438 84.3672L48.375 84.9229L50.5068 84.2725L52.6748 83.082L52.7607 83.0449L55.1357 81.9189L55.2168 81.8721L55.2979 81.8496L57.8184 80.9912L57.8135 81.0059L60.0557 80.0498L62.3916 78.8516L62.4512 78.8135L62.5322 78.792L64.9912 77.8203L65.0557 77.792L65.1152 77.7793L67.4922 77.0713L69.5332 75.7695L69.6729 75.6846L69.8291 75.6309L72.3223 74.7207L72.4512 74.665L72.5977 74.6416L72.6719 74.6299L72.6016 72.3672L72.5078 69.7305V69.6602L72.543 67.0234V67L72.5898 64.3633L72.6299 62.6055L71.2842 63.0928ZM57.1055 73.4883L57.1172 73.6758L57.082 73.8516L56.8711 75.082L57.0117 75.5391L57.6445 77.4961H55.5V76.0195L54.1641 76.4531L53.9062 75.6562L53.7891 75.3047L53.8594 74.9414L54.0938 73.5L54 72.2109V72L57 71.9883L57.1055 73.4883ZM64.1055 73.4883L64.1172 73.6758L64.082 73.8516L63.8711 75.082L64.0117 75.5391L64.6445 77.4961H62.5V76.0195L61.1641 76.4531L60.9062 75.6562L60.7891 75.3047L60.8594 74.9414L61.0938 73.5L61 72.2109V72L64 71.9883L64.1055 73.4883ZM71.2842 47.9297L69.1738 49.2725L68.9961 49.3867L68.791 49.4482L66.2949 50.1826L63.9766 51.0947L61.6777 52.2646L61.6289 52.2979L61.5752 52.3213L59.1445 53.3447L59.0361 53.3906L56.5693 54.2266L54.3613 55.2695L54.3721 55.2646L52.0693 56.5244L51.9355 56.5947L51.7891 56.6445L49.3701 57.3965L48.3574 57.874L48.7305 60.3086L48.7656 60.5078L48.7422 60.6953L48.4492 63.2266L48.4727 65.793L48.707 68.3125L48.7188 68.4766L48.707 68.6406L48.5742 69.6982L50.5068 69.1084L52.6748 67.918L52.7607 67.8818L55.1357 66.7549L55.2168 66.708L55.2979 66.6865L57.8184 65.8271L57.8135 65.8418L60.0557 64.8867L62.3916 63.6875L62.4512 63.6504L62.5322 63.6279L64.9912 62.6562L65.0557 62.6279L65.1152 62.6152L67.4922 61.9072L69.5332 60.6055L69.6729 60.5205L69.8291 60.4668L72.3223 59.5566L72.4512 59.502L72.5332 59.4873L72.5195 59.1953V59.1133L72.5078 56.5234L72.4375 53.875V53.7695L72.4492 53.6641L72.7305 51.1914L72.5312 48.6719L72.5195 48.5781L72.5312 48.4844L72.5781 47.4609L71.2842 47.9297ZM57.1055 57.4883L57.1172 57.6758L57.082 57.8516L56.8711 59.082L57.0117 59.5391L57.6445 61.4961H55.5V60.0195L54.1641 60.4531L53.9062 59.6562L53.7891 59.3047L53.8594 58.9414L54.0938 57.5L54 56.2109V56L57 55.9883L57.1055 57.4883ZM64.1055 57.4883L64.1172 57.6758L64.082 57.8516L63.8711 59.082L64.0117 59.5391L64.6445 61.4961H62.5V60.0195L61.1641 60.4531L60.9062 59.6562L60.7891 59.3047L60.8594 58.9414L61.0938 57.5L61 56.2109V56L64 55.9883L64.1055 57.4883ZM51.1055 45.6055L50.9883 45.6172L50.8828 45.6055L49.8047 45.5586V49.2383L48.4424 47.1191L48.4023 47.4297L48.4258 49.9609L48.625 52.4922L48.6367 52.5977V52.6914L48.5293 54.5479L50.5068 53.9443L52.6748 52.7539L52.7607 52.7178L55.1357 51.5908L55.2168 51.5439L55.2979 51.5225L57.8184 50.6631L57.8135 50.6777L60.0557 49.7227L62.3916 48.5234L62.4512 48.4863L62.5322 48.4639L64.9912 47.4922L65.0557 47.4648L65.1152 47.4521L67.4922 46.7432L69.2881 45.5977L66.8203 45.6641L66.75 45.6758L66.6797 45.6641L64.0312 45.4766H62.1641L61.3164 45.5898L61.082 45.6133L60.8477 45.5664L60.7705 45.5518L58.9805 45.6875L58.8867 45.6992L58.8047 45.6875L56.168 45.582H56.0742L53.5898 45.3359L51.1055 45.6055ZM58.1602 39.6758L57.8906 39.7227L57.6328 39.6758L55.1719 39.2539L53.0742 39.4648L51.9492 40.1211L50.9766 41.8906L50.915 42L53.1602 42.1094L55.75 41.9102L55.8672 41.8984L55.9844 41.9102L58.6094 42.1094L58.7734 42.1328L60.8574 42.5312L61.3828 42.4883H61.5L61.9131 42.4863L63.543 42.2617H63.625L66.2617 42.0508H66.3086L68.9336 41.9336V41.9219L70.3613 41.8457L70.3359 41.8086L69.2227 40.25L68.0273 39.5703L65.7656 39.4883L63.1289 39.4062L63.1055 39.3945H63.082L60.6445 39.2539L58.1602 39.6758ZM62.3008 28.5898H62.1602L59.5234 28.6719H59.4531L59.3711 28.6602L56.8398 28.4844H54.3789L53.6406 28.6602L53.582 30.1367V30.2305L53.3359 32.7266L53.6055 35.1992L53.6172 35.3164L53.6055 35.4219L53.5693 36.3926L55.1133 36.2422L55.3125 36.2305L55.5117 36.2656L57.8906 36.6875L60.2695 36.2656L60.4453 36.2305L60.6328 36.2422L63.2695 36.4062L63.2578 36.418L65.8594 36.4883L67.4629 36.5371L67.4922 35.9023L67.5625 33.3828L67.2578 30.8633L67.2461 30.7227L67.2578 30.582L67.3516 28.9062L66.9062 28.6602L64.7266 28.3086L62.3008 28.5898ZM62.1055 31.4883L62.1172 31.6758L62.082 31.8516L61.8711 33.082L62.0117 33.5391L62.6445 35.4961H60.5V34.0195L59.1641 34.4531L58.9062 33.6562L58.7891 33.3047L58.8594 32.9414L59.0938 31.5L59 30.2109V30L62 29.9883L62.1055 31.4883ZM64.6055 20.1875L62.0977 20.6797L62.0273 20.6914L61.9688 20.7031L59.3438 20.9609L59.0742 20.9844L58.8164 20.9258L56.3086 20.2578L55.6299 20.1826L55.5703 20.6875L55.7461 23.1602L55.7578 23.3008L55.7344 23.4414L55.4873 25.4844H56.9453L59.5352 25.6719L62.0312 25.6016L64.5859 25.2969L64.7969 25.2734L65.0078 25.2969L65.4248 25.3652L65.3906 24.4141V24.3086L65.4023 24.2031L65.6484 21.7188L65.4902 20.125L64.6055 20.1875ZM57.9492 15.3203L56.4023 16.4102L56.165 17.2305L56.8008 17.3047L56.9062 17.3164L57.0117 17.3398L59.2969 17.9492L61.6172 17.7266L64.125 17.2344L64.207 17.2109H64.3008L64.6729 17.1816L63.6211 15.6367L61.957 14.7344L59.9766 14.7109L57.9492 15.3203ZM54.6211 6.66406L54.668 8.48047V8.63281L54.4805 11.2695L54.4922 13.7891L54.5146 14.0762L55.5693 13.333L55.5703 13.332L55.2656 10.8594L55.2422 10.7188L55.2539 10.5781L55.4297 8.01172L55.3477 6.52344L54.9961 6.41797L54.6211 6.66406Z" fill="black"/>
</svg>
