<svg width="120" height="120" viewBox="0 0 120 120" fill="none" xmlns="http://www.w3.org/2000/svg">
<path d="M45.5039 106.594L48 107.004L50.4492 107.016L53.0742 106.816L53.1797 106.805L53.2734 106.816L55.9219 106.969L55.9102 106.98L58.418 107.086L60.8789 106.699L61.0781 106.664L61.2656 106.688L63.7852 106.957L66.3516 106.934L68.8828 106.664L69.0469 106.641L69.1992 106.664L71.7188 106.957L74.2734 106.887H74.332L76.9922 106.91L77.0508 106.922H77.1211L79.6055 107.18L80.5664 107.273L80.8828 108.188L81.6445 110.449L81.7617 110.789L81.7031 111.141L81.3281 113.777V113.801L81.3164 113.824L80.918 116.203L80.6836 117.551L79.3125 117.445L76.8867 117.234L74.4258 117.68L74.1562 117.727L71.4492 117.234L68.9766 117.398H68.9297L66.293 117.48L63.6562 117.574H63.5391L63.4219 117.562L60.9375 117.246L58.418 117.422H58.2422L55.7344 117.281L53.2852 117.691L53.0742 117.727L52.8633 117.703L50.2266 117.398V117.387L47.8242 117.328L45.2344 117.516H42.4805L42.4219 117.504H42.3633L39.7266 117.305L38.7891 117.223L38.4492 116.344L37.6875 114.375L37.6172 114.188L37.5938 113.988L37.3477 111.352L37.3242 111.129L37.3594 110.93L37.8398 108.375L38.0273 107.414L38.9766 107.191L41.3086 106.641L41.625 108H41.7422L42.3633 106.641L42.832 106.863L45.0938 106.582L45.3047 106.559L45.5039 106.594ZM42.7734 109.887L42.3516 109.934L41.9648 109.758L41.6836 109.629L40.6055 109.875L40.3477 111.258L40.5586 113.496L40.8984 114.375L42.5977 114.516H45.1172L47.6602 114.328H47.8008L50.4492 114.41H50.5781L53.0039 114.691L55.4414 114.305L55.5938 114.281H55.7578L58.3008 114.41L60.8672 114.258L61.0078 114.246L61.1484 114.258L63.6562 114.562L66.1875 114.48L68.7891 114.398L71.4258 114.234L71.6016 114.223L71.7773 114.258L74.1562 114.68L76.5352 114.258L76.7344 114.223L76.9219 114.234L78.1875 114.34L78.3633 113.32L78.6797 111.059L78.3398 110.051L76.8164 109.91V109.898L74.332 109.887L71.7188 109.957H71.6133L71.5078 109.945L69.0586 109.664L66.5508 109.91L66.4805 109.922H66.4219L63.7734 109.957L63.6914 109.969L63.5977 109.957L61.125 109.688L58.6992 110.074L58.5469 110.098L58.4062 110.086L55.7578 109.969H55.7461L53.2031 109.805L50.6602 110.004L50.6016 110.016L50.543 110.004L47.9062 109.992H47.7891L47.6719 109.98L45.2461 109.582L42.7734 109.887Z" fill="black"/>
<path d="M91.6562 70.2422L94.1406 70.4883L96.7187 70.3477L96.8594 70.3477L96.9883 70.3594L98.1953 70.5117L97.9961 72L97.8086 73.4883L96.7539 73.3477L94.2461 73.4883L94.0234 73.4883L91.5859 73.2422L89.7227 73.5703L89.2539 74.2148L89.3945 76.3125L89.3945 76.3242L89.4063 76.3477L89.4883 78.9961L89.5703 81.6328L89.5703 81.75L89.5586 81.8672L89.2539 84.3984L89.418 86.8594L89.4297 86.9531L89.418 87.0352L89.2773 89.4844L89.6992 91.9922L89.7344 92.2031L89.7109 92.4141L89.4063 94.9219L89.3242 97.418L89.5117 100.055L89.5234 100.113L89.5234 100.16L89.5117 102.809L89.5117 102.914L89.3008 105.492L89.4063 107.93L89.6641 110.578L89.6758 110.73L89.6641 110.883L89.3945 113.355L89.5 115.84L89.5 116.004L86.5 116.004L86.5 115.969L86.3945 113.426L86.3828 113.309L86.3945 113.203L86.6641 110.695L86.418 108.223L86.418 108.141L86.3125 105.504L86.3008 105.41L86.3125 105.328L86.5117 102.68L86.5234 100.266L86.3359 97.6289L86.3242 97.5469L86.3359 97.4766L86.4063 94.8398L86.4063 94.7695L86.418 94.6992L86.6992 92.2383L86.3008 89.8477L86.2773 89.6836L86.2891 89.5195L86.4297 86.9766L86.2539 84.4219L86.2422 84.2813L86.2656 84.1406L86.5703 81.6211L86.4883 79.0898L86.4063 76.4883L86.2422 73.8516L86.207 73.3125L86.5234 72.8672L87.6719 71.3203L88.0234 70.8281L88.6211 70.7227L91.2578 70.2656L91.457 70.2305L91.6562 70.2422Z" fill="black"/>
<path d="M81.5 66.7227V66.7578L81.6055 69.3008L81.6172 69.4062L81.6055 69.5234L81.3359 71.9961L81.582 74.4922V74.5859L81.6875 77.2227L81.6992 77.3164L81.6875 77.3984L81.4883 80.0352L81.4766 82.4609L81.6641 85.0977L81.6758 85.168L81.6641 85.25L81.5938 87.8867V87.957L81.582 88.0156L81.3008 90.4531L81.6992 92.8789L81.7227 93.043L81.7109 93.207L81.5703 95.7383L81.7461 98.3047L81.7578 98.4453L81.7344 98.5859L81.4297 101.094L81.5117 103.637L81.5938 106.145L81.7578 107.551L81.9453 109.227H80V107.75L78.7695 107.902L78.6055 106.496V106.438L78.5938 106.367L78.4297 101.094V100.977L78.4414 100.859L78.7461 98.3047L78.582 95.8555L78.5703 95.7734L78.582 95.6797L78.7109 93.207L78.3008 90.7227L78.2656 90.5117L78.2891 90.3008L78.6055 87.7461L78.6758 85.3086L78.4883 82.6719L78.4766 82.6133V82.5547L78.4883 79.918V79.8008L78.6992 77.2227L78.5938 74.7852L78.3359 72.1484L78.3242 71.9961L78.3359 71.8438L78.6055 69.3008L78.5 66.8867V66.7227H81.5Z" fill="black"/>
<path d="M40.5 66.7227V66.7578L40.6055 69.3008L40.6172 69.4062L40.6055 69.5234L40.3359 71.9961L40.582 74.4922V74.5859L40.6875 77.2227L40.6992 77.3164L40.6875 77.3984L40.4883 80.0352L40.4766 82.4609L40.6641 85.0977L40.6758 85.168L40.6641 85.25L40.5938 87.8867V87.957L40.582 88.0156L40.3008 90.4531L40.6992 92.8789L40.7227 93.043L40.7109 93.207L40.5703 95.7383L40.7461 98.3047L40.7578 98.4453L40.7344 98.5859L40.4297 101.094L40.5117 103.637L40.5938 106.145L40.7578 107.551L40.9453 109.227H39V107.75L37.7695 107.902L37.6055 106.496V106.438L37.5938 106.367L37.4297 101.094V100.977L37.4414 100.859L37.7461 98.3047L37.582 95.8555L37.5703 95.7734L37.582 95.6797L37.7109 93.207L37.3008 90.7227L37.2656 90.5117L37.2891 90.3008L37.6055 87.7461L37.6758 85.3086L37.4883 82.6719L37.4766 82.6133V82.5547L37.4883 79.918V79.8008L37.6992 77.2227L37.5938 74.7852L37.3359 72.1484L37.3242 71.9961L37.3359 71.8438L37.6055 69.3008L37.5 66.8867V66.7227H40.5Z" fill="black"/>
<path d="M31.5469 71.3437L32.168 73.3125L32.2266 73.4883L32.2383 73.6641L32.4023 76.3125L32.4023 76.3477L32.4844 78.9961L32.5664 81.6328L32.5781 81.75L32.5664 81.8672L32.2617 84.3164L32.4258 86.8594L32.4258 87.0352L32.2852 89.543L32.6953 91.9922L32.7305 92.2031L32.707 92.4141L32.4023 94.9219L32.332 97.418L32.5195 100.055L32.5195 100.16L32.5078 102.809L32.5078 102.914L32.3086 105.375L32.4141 108.023L32.6602 110.578L32.6719 110.73L32.6602 110.883L32.3906 113.355L32.4961 115.84L32.4961 116.004L29.4961 116.004L29.4961 115.969L29.3906 113.426L29.3906 113.309L29.4023 113.203L29.6484 110.707L29.4141 108.223L29.4141 108.141L29.3086 105.504L29.3086 105.328L29.5078 102.797L29.5195 100.266L29.332 97.6289L29.332 97.4766L29.4023 94.8398L29.4023 94.7695L29.4141 94.6992L29.707 92.2383L29.3086 89.8477L29.2734 89.6836L29.2852 89.5195L29.4141 86.9766L29.25 84.4219L29.25 84.2812L29.2617 84.1406L29.5664 81.5508L29.4844 79.0898L29.4023 76.4883L29.2383 74.0156L29.0742 73.5L27.7383 73.7344L27.5391 73.7695L27.3398 73.7578L24.8555 73.5117L22.2773 73.6523L22.1484 73.6523L22.0078 73.6406L20.8125 73.4883L21.1875 70.5117L22.2422 70.6523L24.7617 70.5117L24.9844 70.5117L27.3984 70.7578L29.8594 70.3242L31.1602 70.0898L31.5469 71.3437Z" fill="black"/>
<path d="M56.6875 13.082L59.207 13.4453L61.6562 13.2227L61.8203 13.1992L61.9961 13.2227L64.5273 13.5977L64.5391 13.5859L67.1758 13.8672L67.3047 13.8789L67.4219 13.9141L69.9648 14.6289L70.0117 14.6406L70.0469 14.6523L72.5781 15.5195L72.7188 15.5664L72.8477 15.6484L74.9805 16.8906L77.3242 18.0625L77.418 18.0977L77.5 18.1562L79.6562 19.5977L81.8711 21.0273L81.9062 21.0508L81.9297 21.0625L84.0977 22.5977L84.2031 22.6797L84.2969 22.7734L86.1719 24.6602L86.3125 24.8125L86.4062 24.9883L87.6016 27.1328L89.3594 28.8672L89.5352 29.0312L89.6406 29.2422L90.8711 31.5977L90.8828 31.6211L90.9062 31.6562L92.0195 34.0352L92.043 34.0586L93.1094 36.4727L93.1562 36.5547L93.1797 36.6484L93.918 39.0859L94.8438 41.5703L94.9258 41.7695L94.9375 41.9805L95.1367 44.6055L95.3711 47.2305V47.3359L95.4297 49.9727V50.043L95.418 50.1133L95.2188 52.7383L95.207 52.8203L95.1953 52.8906L94.7266 55.4219L94.3633 58.0352V58.0938L94.3398 58.1523L93.7773 60.7539L93.7422 60.8711L93.707 60.9766L92.7344 63.4258L92.7109 63.4844L92.6758 63.5547L91.457 65.9102L91.2695 66.2734L90.9297 66.4844L88.7383 67.8672L88.3516 68.1133L87.8945 68.1016L85.2461 68.0078V67.9961L82.6914 67.9844L80.0781 68.0781L79.4102 68.1016L78.9531 67.6211L77.2891 65.9219L77.1016 65.7227L76.9844 65.4648L75.9531 63.0273L75.8711 62.8281L75.8359 62.6172L75.5547 60.1914L75.5078 59.793L75.6719 59.418L76.7031 57.0391L76.7148 57.0156V57.0039L77.7695 54.707L78.3789 52.2812L78.6719 49.9258L78.5898 47.4766L78.0977 45.0508V45.0391L77.418 42.6836L76.5273 40.4102L75.3789 38.3359L73.7148 36.4961V36.4844L71.9922 34.7383L69.9648 33.3438L69.9414 33.3203L69.918 33.3086L67.9727 31.8555L65.7344 31.1055V31.1172L63.3672 30.4141L60.9062 30.3438H60.8242L58.3984 30.1328L56.0312 30.4141L53.6172 30.9766L51.3438 31.8438L49.2578 33.1562L49.2227 33.1797L49.1758 33.2031L46.9727 34.3867L45.3672 35.9219L44.125 38.043L44.1133 38.0312L42.8477 40.3047L42.8242 40.3633L42.7773 40.4102L41.4766 42.3086L41.1953 44.6172L41.1836 44.7578L41.1367 44.8867L40.4102 47.1953L40.3164 49.4922L40.7617 51.9414V51.9531L41.1836 54.4727L41.8633 56.7227L43.1172 58.8555L43.3047 59.1836L43.3164 59.5586L43.4219 62.0078L43.4336 62.3594L43.3047 62.6758L42.25 65.1016L42.2031 65.2188L42.1328 65.3242L40.7031 67.5039L40.1641 68.3242L39.1914 68.1602L36.7305 67.7383L34.2109 67.7734L34.1992 67.7617L31.668 67.9375L31.3047 67.9609L30.9648 67.8203L28.8438 66.8945L28.4922 66.7539L28.2578 66.4492L26.5938 64.3633L26.3945 64.1055L26.3125 63.7773L25.7031 61.2812L24.7891 58.9023L24.7305 58.75L24.707 58.5977L24.332 56.1133L23.5234 53.6992L23.418 53.3711L23.4531 53.043L23.7695 50.5L23.6641 47.9922V47.8516L23.8047 45.2148L23.8164 45.1914V45.1562L24.0508 42.543L24.0742 42.3438L24.1445 42.1445L25.082 39.707L25.6094 37.293L25.6445 37.1289L25.7266 36.9648L26.793 34.7148L27.4727 32.2656L27.543 32.0078L27.707 31.7852L29.2539 29.6172L29.2891 29.5703L29.3242 29.5352L30.8828 27.6719L32.2539 25.4688L32.3477 25.3164L32.4648 25.1875L34.3164 23.3125L34.4102 23.2188L34.5156 23.1484L36.5781 21.6484L38.582 19.9727L40.5859 18.25L40.7734 18.0977L40.9844 18.0039L43.4453 16.9844L43.4922 16.9609L45.8359 16.082L45.9062 16.2812L47.9453 15.0156L48.1328 14.8984L48.3555 14.8398L50.9219 14.1719L51.0156 14.1484L51.1094 14.1367L53.6055 13.832L56.0664 13.1172L56.3711 13.0352L56.6875 13.082ZM54.3203 16.7383L54.2031 16.7734L54.0977 16.7852L51.5781 17.0898L49.3164 17.6875L47.4766 18.8477L46.5039 19.457L46.1641 19.1523L44.5469 19.7734L44.5352 19.7617L42.3789 20.6641L40.5273 22.2578L40.5156 22.2695L38.5 23.9688L38.4062 24.0391L36.3789 25.4922L34.7383 27.1445L33.4375 29.2891L33.3789 29.3828L33.3086 29.4648L31.6211 31.4688L30.2969 33.2969L29.6641 35.6406L29.6289 35.7695L29.5703 35.8867L28.4922 38.125L27.9766 40.5156L27.9531 40.6211L27.9062 40.7266L27.0156 43.0234L26.8047 45.4375L26.6641 48.0156L26.7695 50.5V50.6289L26.7578 50.7461L26.4648 53.0547L27.2148 55.2812L27.25 55.4102L27.2734 55.5273L27.6367 57.9648L28.5391 60.2969L28.5742 60.3789L28.5977 60.4727L29.1484 62.7461L30.3789 64.293L31.832 64.9141L34.0938 64.7734H34.1758L36.8125 64.7383H36.9531L37.082 64.7617L38.7227 65.0312L39.5664 63.7422L40.3984 61.8086L40.3281 60.0391L39.1914 58.1055L39.0977 57.9531L39.0508 57.7773L38.2891 55.2344L38.2422 55.0469L37.8086 52.4688L37.3398 49.8672L37.3164 49.7031L37.3281 49.5391L37.4219 46.9023L37.4336 46.7031L37.4922 46.5156L38.2305 44.1367L38.5469 41.5938L38.582 41.2305L38.793 40.9375L40.3047 38.7227L41.5234 36.5312L41.5352 36.5195L41.5469 36.4961L42.918 34.2109L43.0117 34.0352L43.1641 33.8945L45.0742 32.0664L45.2148 31.9375L45.3906 31.832L47.6992 30.5898L49.9141 29.2188L50.043 29.1367L50.1719 29.0898L52.6328 28.1406L52.7383 28.1055L52.832 28.082L55.4102 27.4961L55.4805 27.4727L55.5625 27.4609L58.1523 27.1445L58.3047 27.1211L58.4688 27.1328L60.9883 27.3438L63.6602 27.4375H63.8477L64.0234 27.4961L66.5664 28.2344L66.5898 28.2461H66.6133L69.1562 29.0898L69.3906 29.1602L69.5898 29.3125L71.6758 30.8711L73.832 32.3711L73.9492 32.4531L74.043 32.5469L75.8945 34.4336L75.9414 34.4805L77.7227 36.4492L77.8398 36.5781L77.9219 36.7305L79.1992 39.0508L79.2461 39.1328L79.2812 39.2266L80.2422 41.6641L80.2891 41.8047L81.0156 44.3359L81.0273 44.3945L81.0391 44.4648L81.5664 47.0547L81.5898 47.1719V47.3008L81.6836 49.9609V50.0781L81.6719 50.207L81.332 52.8438L81.3203 52.9258L81.2969 53.0078L80.6172 55.7266L80.5586 55.8438L79.4453 58.2578L78.5781 60.2266L78.8008 62.0664L79.6328 64.0234L80.6289 65.043L82.6094 64.9844H82.668L85.3047 65.0078H85.3398L87.5195 65.0781L88.9727 64.1641L89.9688 62.2422L90.8711 59.9805L91.4102 57.5078L91.7617 55.0117L91.7734 54.9766V54.9531L92.2422 52.3633L92.4297 49.8789L92.3711 47.3945V47.3828L92.1484 44.875V44.8516L91.9609 42.4141L91.1055 40.1289L91.0938 40.0938L91.0703 40.0469L90.332 37.6211L89.3008 35.2891V35.2773L88.2109 32.9922L87.0859 30.8359L85.3516 29.1367L85.1992 28.9844L85.0938 28.7969L83.8867 26.6172L82.2344 24.9531L80.2422 23.5469L78.0273 22.1172L78.0039 22.1055L75.8945 20.6992L73.6328 19.5742L73.5977 19.5508L73.5508 19.5273L71.4297 18.2969L69.1562 17.5117L66.7305 16.832L64.2227 16.5742H64.1992L64.1758 16.5625L61.75 16.2227L59.2773 16.4453L59.1016 16.457L58.9258 16.4336L56.5938 16.0938L54.3203 16.7383ZM46.1523 16.9375L46.457 17.4297L46.4805 17.4648L46.5156 17.4297L46.5508 17.3828L45.9766 16.4453L46.1523 16.9375Z" fill="black"/>
<path d="M41.0039 59.7227L41.0156 60.0977L41.3555 61.1523L38.9414 61.9258L38.6602 62.0195L38.3672 61.9961L35.8125 61.7852L33.293 61.9727H33.2109L30.5742 62.0078H30.5156L28.1016 61.9492L27.4336 62.1602L27 60.7188L26.5664 59.2891L27.4805 59.0078L27.7148 58.9375L27.9492 58.9492L30.5625 59.0078L33.0938 58.9844V58.9727L35.7305 58.7969L35.8477 58.7852L35.9531 58.7969L38.2852 58.9844L40.4414 58.293L40.6289 58.2344H40.8281L40.9219 58.2227L41.0039 59.7227Z" fill="black"/>
<path d="M78.1875 58.2344H78.2344L80.7422 58.4453L80.7891 58.457H80.8242L83.2969 58.832L85.7812 58.6445H85.8867L88.5234 58.6328H88.6406L88.7578 58.6445L91.3828 59.043L91.4414 59.0547L91.4883 59.0664L92.332 59.2656L92.0039 60.7188L91.6641 62.1836L90.9258 62.0195L88.4531 61.6328H85.9805L83.3438 61.8203L83.1797 61.832L83.0273 61.8086L80.4844 61.4453L77.9766 61.2227H77.918L78.082 58.2227L78.1875 58.2344Z" fill="black"/>
<path d="M56.4883 15.5469L56.957 18.043L56.9688 18.1484L56.9805 18.2422L57.0977 20.7617L57.7188 23.1758L57.7422 23.293L58.1875 25.8945V25.9414L58.1992 25.9883L58.4805 28.5664L57.0039 28.7188L57.4141 30.1602L57.4023 30.1719L55.6914 30.6523L55.5039 28.8945L55.2227 26.3984L54.8008 23.9141L54.1211 21.1953L54.1094 21.043L53.9922 18.4883L53.5352 16.0977V16.0391L53.5117 15.9453L56.4883 15.5V15.5469Z" fill="black"/>
<path d="M63.9922 15.7227L65.4688 15.9336L65.457 15.9805L65.4688 15.9922L65.1758 18.5117L65.1641 18.6055L65.1406 18.6992L64.5195 21.1133L64.4141 23.6211V23.6562L64.4023 23.6914L64.1797 26.3164L64.168 26.457L64.1328 26.5859L63.4297 29.1172L62 28.7188L61.4961 30.1367L61.4844 30.125L60.1719 29.6562L60.5469 28.3203L61.2148 25.9062L61.4141 23.4336L61.5312 20.8438L61.543 20.6914L61.5781 20.5391L62.1875 18.0664L62.4805 15.6523L62.4922 15.6289V15.6055L62.5039 15.5117L63.9922 15.7227Z" fill="black"/>
<path d="M92.9961 44.7227L93.3359 46.1875L93.2305 46.2109L93.2188 46.1992L90.8516 46.8672L90.7461 46.9023L90.6406 46.9141L88.1328 47.2188L85.7773 48.0156L85.7305 48.0391L85.6836 48.0508L83.1172 48.707L83.0469 48.7305L82.9766 48.7422L80.3633 49.1523L80.2344 48.3672L80 47.7227L79.4844 46.3164L79.625 46.2578L79.7539 46.2109L79.8945 46.1875L82.5078 45.7773L84.9336 45.1445L87.3359 44.3359L87.4883 44.2773L87.6289 44.2656L90.1133 43.9609L92.5039 43.3047L92.5742 43.2812L92.668 43.2578L92.9961 44.7227Z" fill="black"/>
<path d="M26.3633 43.2695L28.8359 43.6328L28.9883 43.6562L29.1289 43.7031L31.4961 44.582L33.9453 44.9219L33.9922 44.9336H34.0273L36.6172 45.4609L36.6875 45.4844L36.7578 45.4961L39.1484 46.2227L39.1953 46.2344H39.1836L39.2891 46.2695L39.1016 46.8438L38.9961 47.7227L38.8086 49.2109L38.6562 49.1875L38.5391 49.1758L38.4102 49.1406L35.9375 48.3789L33.5234 47.8867V47.8984L30.8984 47.5117L30.7344 47.4883L30.5938 47.4414L28.2148 46.5625L25.8828 46.2344L25.8125 46.2227L25.7539 46.2109L25.6602 46.1875L26 44.7227L26.2695 43.5508L26.3164 43.2578L26.3281 43.2695L26.3398 43.2578L26.3633 43.2695Z" fill="black"/>
<path d="M25.8104 52.2245L28.2933 51.9396L28.4465 51.9231L28.5945 51.9322L31.1081 52.1728L33.5623 51.8713L33.6106 51.8706L33.6446 51.8615L36.2829 51.7051L36.3569 51.7097L36.4279 51.7029L38.9249 51.7902L38.9733 51.7895L38.9619 51.7925L39.0729 51.7993L39.0394 52.4025L39.1635 53.2789L39.3651 54.7654L39.2118 54.7819L39.0956 54.8007L38.9619 54.7999L36.3766 54.6997L33.9171 54.8449L33.9201 54.8562L31.284 55.1576L31.1194 55.1772L30.9714 55.168L28.4465 54.9305L26.1085 55.2132L26.0376 55.2199L25.9779 55.2237L25.8813 55.2251L25.833 53.7222L25.7921 52.5204L25.762 52.2252L25.7764 52.2335L25.7847 52.2192L25.8104 52.2245Z" fill="black"/>
<path d="M79.9773 52.2245L82.4603 51.9396L82.6135 51.9231L82.7615 51.9322L85.2751 52.1728L87.7293 51.8713L87.7776 51.8706L87.8116 51.8615L90.4499 51.7051L90.5239 51.7097L90.5949 51.7029L93.0919 51.7902L93.1403 51.7895L93.1289 51.7925L93.2399 51.7993L93.2064 52.4025L93.3305 53.2789L93.5321 54.7654L93.3788 54.7819L93.2625 54.8007L93.1289 54.7999L90.5436 54.6997L88.0841 54.8449L88.0871 54.8562L85.451 55.1576L85.2864 55.1772L85.1384 55.168L82.6135 54.9305L80.2755 55.2132L80.2046 55.2199L80.1449 55.2237L80.0483 55.2251L80 53.7222L79.9591 52.5204L79.929 52.2252L79.9434 52.2335L79.9517 52.2192L79.9773 52.2245Z" fill="black"/>
<path d="M47.3594 16.1016L48.5664 18.3398L48.625 18.4453L48.6602 18.5625L49.5039 20.9531L50.7578 23.0859L50.7812 23.1328L50.8047 23.168L51.9883 25.5352L52.0352 25.6172L52.0703 25.6992L52.9375 28.1719L53.3711 29.1094L52 29.7188L50.6289 30.3398L50.1719 29.3203L50.125 29.2031L49.2461 26.7422L48.168 24.6094L46.832 22.3125L46.75 22.1953L46.7031 22.0547L45.8477 19.582L44.7227 17.5195L44.6992 17.4844L44.6875 17.4492L44.6406 17.3555L47.3594 16.0898V16.1016Z" fill="black"/>
<path d="M72.0039 16.7227L73.3984 17.2617L73.375 17.2852L72.5781 19.6992L72.543 19.8047L72.4961 19.9102L71.3477 22.1602L70.6797 24.5508L70.668 24.5977L70.6562 24.6328L69.8008 27.1289L69.7656 27.2227L69.7305 27.3047L68.6172 29.5664L68.4297 30.1758L67 29.7188L65.5703 29.2734L65.793 28.5703L65.8281 28.4648L65.875 28.3711L66.9883 26.0859L67.8203 23.6602L68.5117 21.1875L68.5469 21.0469L68.6172 20.9062L69.7422 18.6914L70.5391 16.3359L70.5508 16.3125L70.5625 16.2773L70.5977 16.1836L72.0039 16.7227Z" fill="black"/>
<path d="M28.6094 35.3516L31 36.2305L31.1172 36.2656L31.2227 36.3359L33.3789 37.543L35.7695 38.3047L35.8164 38.3164L35.8633 38.3398L38.3242 39.2891L38.3828 39.3125L38.4297 39.3359L40.6328 40.3789L40 41.7266L41.4883 41.9258V41.9375L41.207 43.9648L39.3555 43.0859L37.1523 42.0547V42.043L34.8789 41.1641L32.3477 40.3789L32.1953 40.332L32.0547 40.25L29.8047 38.9844L27.5781 38.1758L27.543 38.1523L27.5078 38.1406L27.4141 38.1055L28.5859 35.3398L28.6094 35.3516Z" fill="black"/>
<path d="M91.5859 38.1055L91.5273 38.1172L89.2891 39.2305L89.1719 39.2773L89.0547 39.3125L86.6406 40.0391L84.4609 41.2344L84.4258 41.2461L84.4023 41.2578L82.0117 42.4062L81.8945 42.4648L81.7656 42.5L79.3984 43.1562L79 41.7148L77.5703 42.1602L77.5586 42.1484L77.1133 40.6836L78.5898 40.2617L80.8633 39.6289L83.043 38.5859L85.375 37.332L85.5039 37.2617L85.6445 37.2148L88.0938 36.4766L90.25 35.4102L90.2852 35.3984L90.3203 35.375L90.4141 35.3398L91.5859 38.1055Z" fill="black"/>
<path d="M40.2305 20.8672L41.8242 22.8359L41.9648 23.0469L43.1719 25.1914L44.8359 27.1133L44.8594 27.1484L44.8828 27.1719L46.5117 29.2578L46.582 29.375L47.9648 31.5312L48.1641 31.7656L47.0039 32.7266L45.8438 33.6758L45.5859 33.3594L45.5273 33.2891L45.4805 33.2188L44.1328 31.0977L42.5625 29.0703L40.8281 27.0781L40.7344 26.9609L40.6641 26.832L39.3984 24.6055L37.8867 22.7422L37.8633 22.7188L37.8398 22.6836L37.7812 22.6016L40.2188 20.8438L40.2305 20.8672Z" fill="black"/>
<path d="M80.0039 21.7227L81.2109 22.6016L81.1641 22.6484L81.1758 22.6602L79.7109 24.7461L79.6641 24.8164L79.6055 24.875L77.9531 26.75L76.7227 28.918L76.6992 28.9648L76.6641 29.0117L75.2109 31.2148L75.0938 31.3555L73.4062 33.3125L73.2188 33.5938L72 32.7266L70.7812 31.8477L71.0156 31.5195L71.0508 31.4727L71.0977 31.4141L72.7148 29.5273L74.168 27.3477L75.4219 25.1328L75.5039 25.0039L75.6094 24.8867L77.3555 22.8945L78.7148 20.9375L78.7266 20.9258L78.7852 20.8438L80.0039 21.7227Z" fill="black"/>
<path d="M33.7227 27.1719L33.7812 27.2188L33.8281 27.2656L35.6914 29.0469L37.7188 30.582L39.8516 32.0234L39.9805 32.1055L40.0859 32.2227L41.8672 34.0508L43.8008 35.4453L43.8359 35.4688L43.8711 35.5039L43.9531 35.5625L42.0547 37.8828L41.9727 37.8242V37.8125L39.9805 36.3828L39.875 36.3125L39.7812 36.2188L38.0117 34.4023L35.9727 33.0195L35.9023 32.9727L33.8047 31.3789L33.6641 31.2617L31.8125 29.4805L31.0742 28.8945L32.9258 26.5508L33.7227 27.1719Z" fill="black"/>
<path d="M85.9961 27.7227L87.0039 28.8359L86.9688 28.8477L86.9805 28.8594L85.1641 30.6406L85.082 30.7227L84.9883 30.793L82.9375 32.2578L81.25 34.0859L81.2031 34.1328L79.3047 35.9844L79.2461 36.043L79.1875 36.0898L77.1719 37.6602L77.0664 37.7773L74.9336 35.668L75.1797 35.4219L75.25 35.3633L77.2891 33.7578L79.1055 31.9883L80.8516 30.1016L80.957 29.9844L81.0742 29.9023L83.1016 28.4375L84.8711 26.7148L84.8945 26.6914L84.9297 26.668L85 26.6094L85.9961 27.7227Z" fill="black"/>
<path d="M111.312 114.289L112.355 114.547L111.652 117.453L110.891 117.266L108.547 117.629L108.453 117.652H108.359L105.723 117.723H105.582L103.051 117.301L100.672 117.734L100.438 117.781L100.203 117.746L97.6367 117.406H95.2344L92.5977 117.629L92.4922 117.641L92.3984 117.629L89.75 117.477V117.465L87.2773 117.348L84.7812 117.734L84.582 117.77L84.3945 117.746L81.8516 117.453L79.2969 117.477L79.2852 117.465L76.7773 117.711L76.6133 117.723L76.4492 117.699L73.918 117.383L71.3867 117.43H71.3281L68.6914 117.371H68.6445L66.1719 117.23L63.7109 117.699L63.4766 117.746L63.2305 117.711L60.7227 117.348L58.2383 117.488H58.0156L55.5898 117.242L53.1406 117.676L52.8828 117.723L52.6133 117.676L50.1172 117.242L47.6914 117.395H47.668L47.6445 117.406L42.3711 117.57H42.2539L42.1367 117.559L39.5938 117.254L37.1328 117.418L37.0508 117.43L36.957 117.418L34.5078 117.277L32 117.699L31.7891 117.734L31.5781 117.711L29.0234 117.395L26.5391 117.324L23.9492 117.512L23.8906 117.523H23.832L21.1953 117.512H21.0781L18.5 117.301L16.0508 117.395L16.0625 117.406L13.4258 117.664L13.2734 117.676L13.1211 117.664L10.625 117.395L8.16406 117.5H8V114.5H8.03516L10.5781 114.395L10.6836 114.383L10.8008 114.395L13.2852 114.664L15.7695 114.418H15.8633L18.5 114.312L18.5938 114.301L18.6758 114.312L21.3125 114.512L21.3008 114.523H23.7383L26.375 114.336L26.4453 114.324L26.5273 114.336L29.1641 114.406H29.2344L29.293 114.418L31.7305 114.699L34.1562 114.301L34.3203 114.277L34.4844 114.289L37.0156 114.43L39.582 114.254L39.7227 114.242L39.8633 114.266L42.3711 114.57L44.9141 114.488L47.5039 114.418V114.406L50.1523 114.242L50.3281 114.23L50.5039 114.266L52.8828 114.688L55.2617 114.266L55.4609 114.23L55.6602 114.242L58.1328 114.488L60.7227 114.348L60.8633 114.336L61.0156 114.359L63.418 114.711L65.8086 114.266L65.9844 114.23L66.1602 114.242L68.7969 114.371L68.7852 114.383L71.3633 114.43L73.9766 114.383H74.082L74.1875 114.395L76.6836 114.711L79.1445 114.477H79.2734L81.9102 114.453H82.0039L82.0859 114.465L84.5469 114.746L86.9727 114.371L87.125 114.348L87.2773 114.359L89.9141 114.488H89.9258L92.4453 114.641L95 114.43L95.0586 114.418H95.1055L97.7539 114.406H97.8594L97.9648 114.418L100.367 114.746L102.77 114.312L103.027 114.266L103.285 114.301L105.816 114.723L108.137 114.664L110.738 114.266L111.031 114.219L111.312 114.289Z" fill="black"/>
<path d="M78.6602 6.24219L81.2969 6.37109L81.2852 6.38281L83.8633 6.42969L86.4766 6.38281H86.582L86.6875 6.39453L89.1836 6.71094L91.6445 6.47656H91.7734L94.4102 6.45312H94.5039L94.5859 6.46484L97.2344 6.75781L97.5508 6.79297L97.832 6.96875L99.4141 7.91797L100.188 8.375L100.141 9.27734L100.012 11.9141V11.9258L99.8594 14.4453L100.07 17L100.082 17.0586V17.1055L100.094 19.7539V19.8594L100.082 19.9648L99.7539 22.3672L100.188 24.7695L100.234 25.0273L100.199 25.2852L99.7773 27.8164L99.8359 30.1367L100.234 32.7383L100.258 32.8438V32.9609L100.246 35.6094V35.7148L100.223 35.8203L99.8594 38.2578L100 40.8008V40.8711L100.023 43.5078V43.5664L99.9531 46.1914L99.8945 48.8281V48.8516L99.8008 51.3594L100.141 53.8789L100.164 54.0195L100.152 54.1484L100.023 56.668L100.234 59.2344L100.246 59.3867L100.234 59.5273L99.9414 62.0469L100.012 64.6016V67.2031L100.141 69.8516L100.152 69.8984L100.141 69.9453L100.094 72.5938L100.035 75.2305L100.012 77.8555L100.105 80.4336L100.188 83.0703V83.1289L100.164 85.7656V85.7891L100.117 88.4258V88.4961L100.105 88.5664L99.8125 91.0742L99.8711 93.6289L100.141 96.1602L100.152 96.2422V99.0664L99.9648 101.703L99.8945 104.281L99.8477 106.906L99.8008 109.543L99.7891 109.531L99.8828 112.109V112.18L99.8477 114.816V115.566L99.2383 116.012L97.9375 116.949L97.6211 117.184L97.2344 117.23L94.5977 117.535L94.5508 117.547H94.5039L91.8672 117.699L91.7852 117.711L91.7148 117.699L89.0664 117.582V117.57L86.5 117.559L83.8867 117.594H83.8633L81.2266 117.605H81.1445L81.0625 117.594L78.5547 117.336L76.0703 117.559L75.9883 117.57H75.9062L73.2812 117.512L70.668 117.535H70.6445L67.9961 117.5H67.9609L67.9141 117.488L65.4297 117.312L62.9922 117.746L62.7227 117.793L62.4648 117.734L59.957 117.266L57.5781 117.277L54.9414 117.512H54.918L52.2812 117.688H49.5625L46.9141 117.723H46.7852L46.668 117.699L44.1602 117.289L41.7109 117.453H41.5586L39.0039 117.359L36.4258 117.5H36.3086L33.8125 117.43L31.2227 117.711L31.0117 117.734L30.8008 117.699L28.3867 117.277L25.9727 117.594L25.8438 117.605H25.7148L23.1133 117.477L20.4766 117.441L19.1172 117.418L19 116.07L18.7773 113.492L18.7656 113.363L18.7773 113.234L19.0117 110.586L19.0469 108.055V107.961L19.2578 105.512L18.9062 103.004L18.8945 102.898V102.781L18.9297 100.145V100.062L19.1055 97.4258L19.1875 94.918L19.1289 92.3398L18.9531 89.7031L18.9414 89.668V89.6445L18.8711 87.0078V86.9961L18.8008 84.3594L18.7891 84.2188L18.8125 84.0898L19.1992 81.6758L18.8125 79.2734L18.7891 79.1211V78.9805L18.9062 76.4141L18.8945 73.7656V73.6836L19.0352 71.0586L18.918 68.5391V68.375L19.1172 65.7969L18.9766 63.2773L18.9648 63.1602L18.9766 63.043L19.2461 60.5938L18.8359 58.168L18.7891 57.9219L18.8359 57.6641L19.2578 55.1797L19.2227 52.7656L18.7656 50.2578L18.7422 50.1055V49.9531L18.8242 47.3164V47.2578L19.0117 44.6094V44.5859L19.2461 42.0664L19.0352 39.5586L19.0234 39.4883V39.418L19.0703 36.8281L19.0352 34.2031L18.9648 31.5664L18.9531 31.4961L18.9648 31.4375L19.1055 28.8008L19.1172 26.2344V26.1641L19.2578 23.6094L18.9766 21.125L18.9648 20.9727L18.9766 20.8086L19.2227 18.2891L19.1641 15.7109V15.6523L19.2109 13.1445L19.0234 10.5078L19.0352 10.4961L18.8008 8.14062L18.6484 6.5H20.5352L23.0781 6.39453L23.1836 6.38281L23.3008 6.39453L25.7852 6.66406L28.2695 6.41797H28.3633L31 6.3125L31.0938 6.30078L31.1758 6.3125L33.8125 6.51172L33.8008 6.52344H36.2383L38.875 6.33594L38.9453 6.32422L39.0273 6.33594L41.6641 6.40625H41.7344L41.793 6.41797L44.2305 6.69922L46.6562 6.30078L46.8203 6.27734L46.9844 6.28906L49.5156 6.42969L52.082 6.25391L52.2227 6.24219L52.3633 6.26562L54.8711 6.57031L57.4141 6.48828L60.0039 6.41797V6.40625L62.6523 6.24219L62.8281 6.23047L63.0039 6.26562L65.3828 6.6875L67.7617 6.26562L67.9609 6.23047L68.1602 6.24219L70.6328 6.48828L73.2227 6.34766L73.3633 6.33594L73.5156 6.35938L75.918 6.71094L78.3086 6.26562L78.4844 6.23047L78.6602 6.24219ZM41.6641 114.441L44.1719 114.301L44.3359 114.289L44.5 114.312L47.043 114.711L49.5273 114.688H52.1758L54.7188 114.512L57.332 114.301L57.3906 114.289H57.4492L60.0859 114.266H60.2383L60.3789 114.301L62.7227 114.734L65.125 114.336L65.3008 114.301L65.4883 114.312L68.125 114.5H68.1133L70.6562 114.523L73.293 114.512H73.3281L75.8359 114.559L78.4492 114.336L78.5898 114.324L78.7305 114.336L81.2617 114.594H83.8398L86.4766 114.559H86.5117L89.1602 114.582H89.207L91.75 114.699L94.3281 114.547L96.4844 114.289L96.8477 114.02L96.8828 112.215L96.8008 109.566V109.496L96.8477 106.848L96.8945 104.211V104.199L96.9648 101.551L96.9766 101.527V101.492L97.1523 98.9609V96.3242L96.8828 93.8398V93.7109L96.8125 91.0742V90.9688L96.8242 90.8633L97.1172 88.3203L97.1641 85.7305L97.1875 83.1641L97.1055 80.5273L97.0117 77.8906V77.8203L97.0352 75.1836V75.1719L97.0938 72.5234L97.1523 69.9922L97.0234 67.3555L97.0117 67.3203V64.6836L96.9414 62.0469L96.9297 61.9297L96.9414 61.8242L97.2227 59.3047L97.0352 56.8438L97.0234 56.7383V56.6445L97.1406 54.1367L96.8125 51.6406L96.8008 51.5117V51.3945L96.8945 48.7461L96.9531 46.1328V46.1211L97.0234 43.5312L97 40.8828H97.0117L96.8594 38.3281L96.8477 38.1758L96.8711 38.0234L97.2461 35.457V33.1016L96.8711 30.5469L96.8477 30.4531V30.3594L96.7773 27.7227V27.582L96.8008 27.4414L97.1875 25.0508L96.7656 22.6719L96.7188 22.4375L96.7539 22.2031L97.082 19.6367V17.2461L96.8711 14.5977L96.8594 14.4922L96.8711 14.3984L97.0234 11.75L97.1055 10.0156L96.5781 9.69922L94.3516 9.45312L91.7969 9.47656L91.7852 9.46484L89.2773 9.71094L89.1133 9.72266L88.9492 9.69922L86.418 9.38281L83.8867 9.42969H83.8281L81.1914 9.37109H81.1445L78.6719 9.23047L76.2109 9.69922L75.9766 9.74609L75.7305 9.71094L73.2227 9.34766L70.7383 9.48828H70.5156L68.0898 9.24219L65.6406 9.67578L65.3828 9.72266L65.1133 9.67578L62.6172 9.24219L60.1914 9.39453H60.168L60.1445 9.40625L54.8711 9.57031H54.7539L54.6367 9.55859L52.0938 9.25391L49.6328 9.41797L49.5508 9.42969L49.457 9.41797L47.0078 9.27734L44.5 9.69922L44.2891 9.73438L44.0781 9.71094L41.5234 9.39453L39.0391 9.32422L36.4492 9.51172L36.3906 9.52344H36.332L33.6953 9.51172H33.5781L31 9.30078L28.5508 9.39453L28.5625 9.40625L25.9258 9.66406L25.7734 9.67578L25.6211 9.66406L23.125 9.39453L21.9297 9.44141L22.0117 10.2617L22.0234 10.2734V10.2969L22.2109 12.9336V13.0625L22.1641 15.6992L22.2227 18.2891V18.4648L21.9766 20.9375L22.2461 23.4336L22.2578 23.5625V23.6797L22.1172 26.3164L22.1055 28.8945V28.9648L21.9648 31.4844L22.0352 34.1211V34.1328L22.0703 36.7812V36.8281L22.0234 39.3242L22.2344 41.9609L22.2461 42.0898L22.2344 42.207L22 44.8555L21.8125 47.3867L21.8242 47.3984L21.7422 49.8945L22.1875 52.3789L22.2109 52.4961V52.6133L22.2578 55.25V55.3906L22.2344 55.5312L21.8242 57.9219L22.2227 60.3125L22.2578 60.5117L22.2461 60.7109L21.9648 63.2773L22.1055 65.7617L22.1172 65.8555L22.1055 65.9492L21.918 68.5156L22.0234 71.0586L22.0352 71.1289L22.0234 71.1992L21.8828 73.7539H21.8945L21.9062 76.3906V76.4609L21.7891 78.9219L22.1875 81.4414L22.2344 81.6758L22.1875 81.9102L21.7891 84.4414L21.8711 86.9141L21.9414 89.4922L22.1289 92.1406V92.1992L22.1875 94.8477V94.9297L22.0938 97.5664V97.6133L21.9297 100.262L21.8945 102.688L22.2461 105.23L22.2695 105.395L22.2578 105.559L22.0352 108.09L22.0117 110.738V110.797L22 110.855L21.7656 113.352L21.8711 114.465L23.1602 114.488H23.207L25.7148 114.594L28.2227 114.277L28.457 114.242L28.6797 114.289L31.1055 114.699L33.5312 114.441L33.6367 114.43H33.7305L36.2969 114.488L38.8984 114.359H39.0391L41.6641 114.441Z" fill="black"/>
<path d="M58.6758 68.3125L61.3125 68.5117L61.3008 68.5234H63.7383L66.375 68.3359L66.4453 68.3242L66.5273 68.3359L69.1641 68.4062H69.2344L69.293 68.418L71.9414 68.7227L73.0078 68.8516L73.2305 69.9062L73.6875 72.0977L73.7227 72.2852L73.7109 72.4844L73.5703 75.0156L73.7461 77.582L73.7578 77.7227L73.7344 77.8633L73.4297 80.3711L73.5117 82.9141L73.5938 85.5039L73.7578 88.1523L73.7695 88.3281L73.7344 88.5039L73.3125 90.8828L73.7344 93.2617L73.7695 93.4609L73.7578 93.6602L73.5117 96.1328L73.6523 98.7227L73.6641 98.8633L73.6406 99.0156L73.2891 101.418L73.7344 103.809L73.7695 103.984L73.7578 104.16L73.6289 106.797L73.5938 107.418L73.1367 107.828L71.6484 109.176L71.2266 109.562L70.6641 109.574L68.0273 109.609L67.9219 109.621L67.8164 109.598L65.3555 109.281L62.8594 109.516L62.7891 109.527H62.7305L60.0938 109.551H60L59.9062 109.539L57.4922 109.258L55.0195 109.633L54.8789 109.656L54.7266 109.645L52.0898 109.516H52.0781L49.4297 109.363L49.0547 109.34L48.7383 109.141L47.1328 108.156L46.4297 107.723L46.418 106.891L46.4062 104.254V104.148L46.418 104.043L46.7461 101.617L46.3125 99.2266L46.2656 98.9688L46.3008 98.7109L46.7227 96.1562L46.6641 93.8477L46.2656 91.2695L46.2422 91.1523V91.0352L46.2539 88.3984V88.293L46.2773 88.1875L46.6406 85.7266L46.5 83.207V83.125L46.4766 80.4883V80.4414L46.5586 77.8047L46.6055 75.168V75.1445L46.6992 72.6367L46.3594 70.1992L46.125 68.5H48.0352L50.5781 68.3945L50.6836 68.3828L50.8008 68.3945L53.2852 68.6641L55.7695 68.418H55.8633L58.5 68.3125L58.5938 68.3008L58.6758 68.3125ZM56.0508 71.3945L56.0625 71.4062L53.4258 71.6641L53.2734 71.6758L53.1211 71.6641L50.625 71.3945L49.5586 71.4414L49.6875 72.3555L49.6992 72.4844V72.6133L49.6055 75.25L49.5469 77.875V77.8867L49.4766 80.5234L49.5 83.1133H49.4883L49.6406 85.6797L49.6523 85.832L49.6289 85.9727L49.2539 88.5039L49.2422 90.8828L49.6289 93.4492L49.6523 93.543V93.6367L49.7227 96.2852V96.4258L49.6992 96.5664L49.3008 98.9336L49.7344 101.336L49.7812 101.57L49.7461 101.805L49.4062 104.348V106.035L49.9805 106.375L52.2422 106.516H52.2305L54.7617 106.633L57.2227 106.27L57.4102 106.234L57.6094 106.258L60.1289 106.539L62.707 106.527L65.2266 106.293L65.3789 106.281L65.543 106.293L68.0742 106.598L70.043 106.574L70.6523 106.023L70.7578 104.148L70.3008 101.711L70.2539 101.477L70.2891 101.23L70.6406 98.7109L70.5117 96.2383V96.0156L70.7461 93.5898L70.3242 91.1406L70.2773 90.8828L70.3242 90.6133L70.7461 88.1172L70.6055 85.6914V85.668L70.5938 85.6445L70.4297 80.3711V80.2539L70.4414 80.1367L70.7461 77.582L70.582 75.1328L70.5703 75.0508L70.582 74.957L70.7109 72.5312L70.5 71.582L69.0234 71.3945L66.5391 71.3242L63.9492 71.5117L63.8906 71.5234H63.832L61.1953 71.5117H61.0781L58.5 71.3008L56.0508 71.3945Z" fill="black"/>
<path d="M71.8633 50.7656L74.3711 51.0703L76.9141 50.9883L79.5508 50.9062L79.7617 50.8945L79.9609 50.9414L80.3594 51.0469L79.9961 52.5L79.6445 53.9531L79.457 53.918L77.0078 53.9883L74.3711 54.0703H74.2539L74.1367 54.0586L71.5938 53.7656L69.1328 53.918L69.0508 53.9297L68.957 53.918L66.5078 53.7891L64 54.1992L63.7891 54.2344L63.5781 54.2109L61.0234 53.9062L58.5391 53.8359L55.9492 54.0117L55.8906 54.0234H55.832L53.1953 54.0117H53.0781L50.5 53.8125L48.0508 53.9062H48.0625L45.4258 54.1641L45.2734 54.1758L45.1211 54.1641L42.625 53.9062L40.1641 54H40V51H40.0352L42.5781 50.8945L42.6836 50.8828L42.8008 50.8945L45.2852 51.1641L47.7695 50.918H47.8633L50.5 50.8125L50.5938 50.8008L50.6758 50.8125L53.3125 51.0117L53.3008 51.0234H55.7383L58.375 50.8359L58.4453 50.8242L58.5273 50.8359L61.1641 50.9062H61.2344L61.293 50.918L63.7305 51.1992L66.1562 50.8008L66.3203 50.7773L66.4844 50.7891L69.0156 50.9297L71.582 50.7539L71.7227 50.7422L71.8633 50.7656Z" fill="black"/>
<path d="M78.1602 0.242188L80.7969 0.371094L80.7852 0.382812L83.3633 0.429688L85.9766 0.382812H86.082L86.1875 0.394531L88.6836 0.710938L91.1445 0.476562H91.2734L93.9102 0.453125H94.0039L94.0859 0.464844L96.6055 0.746094L99.1133 0.699219L100.719 0.664062L100.648 2.26953L100.52 4.91797V4.92969L100.367 7.56641L100.309 8.60938L99.3008 8.91406L97.3086 9.51172L97.1094 9.58203H96.8867L94.25 9.59375H94.1445L94.0391 9.58203L91.625 9.25391L89.2227 9.6875L88.9766 9.73438L88.7188 9.69922L86.1758 9.27734L83.8438 9.33594L81.2656 9.73438L81.1484 9.75781H81.0312L78.3945 9.74609H78.2891L78.1836 9.72266L75.7344 9.35938L73.2031 9.5H73.1328L70.4844 9.52344H70.4375L67.8125 9.44141V9.45312L65.1641 9.39453H65.1523L62.6328 9.30078L60.1133 9.64062L59.9844 9.66406L59.8438 9.65234L57.3242 9.52344L54.7578 9.73438L54.6172 9.74609L54.4648 9.73438L51.9453 9.44141L49.4023 9.51172H46.7891L44.1523 9.64062L44.1055 9.65234L44.0469 9.64062L41.4102 9.59375L38.7734 9.53516V9.52344L36.1836 9.51172L33.5703 9.60547L30.9336 9.6875H30.875L28.2266 9.66406H28.2148L25.5664 9.61719H25.4961L25.4258 9.60547L22.9062 9.3125L20.3516 9.38281L19.1094 9.40625L18.8516 8.19922L18.3828 5.99609L18.3477 5.84375V2.92578L18.3594 2.82031L18.5117 1.77734L18.7109 0.5H20.0352L22.5781 0.394531L22.6836 0.382812L22.8008 0.394531L25.2852 0.664062L27.7695 0.417969H27.8633L30.5 0.3125L30.5938 0.300781L30.6758 0.3125L33.3125 0.511719L33.3008 0.523438H35.7383L38.375 0.335938L38.4453 0.324219L38.5273 0.335938L41.1641 0.40625H41.2344L41.293 0.417969L43.7305 0.699219L46.1562 0.300781L46.3203 0.277344L46.4844 0.289062L49.0156 0.429688L51.582 0.253906L51.7227 0.242188L51.8633 0.265625L54.3711 0.570312L56.9141 0.488281L59.5039 0.417969V0.40625L62.1523 0.242188L62.3281 0.230469L62.5039 0.265625L64.8828 0.6875L67.2617 0.265625L67.4609 0.230469L67.6602 0.242188L70.1328 0.488281L72.7227 0.347656L72.8633 0.335938L73.0156 0.359375L75.418 0.710938L77.8086 0.265625L77.9844 0.230469L78.1602 0.242188ZM75.7109 3.69922L75.4766 3.74609L75.2305 3.71094L72.7227 3.34766L70.2383 3.48828H70.0156L67.5898 3.24219L65.1406 3.67578L64.8828 3.72266L64.6133 3.67578L62.1172 3.24219L59.6914 3.39453H59.668L59.6445 3.40625L54.3711 3.57031H54.2539L54.1367 3.55859L51.5938 3.25391L49.1328 3.41797L49.0508 3.42969L48.957 3.41797L46.5078 3.27734L44 3.69922L43.7891 3.73438L43.5781 3.71094L41.0234 3.39453L38.5391 3.32422L35.9492 3.51172L35.8906 3.52344H35.832L33.1953 3.51172H33.0781L30.5 3.30078L28.0508 3.39453L28.0625 3.40625L25.4258 3.66406L25.2734 3.67578L25.1211 3.66406L22.625 3.39453L21.3477 3.44141V5.52734L21.5117 6.34766L22.918 6.3125H23.0234L23.1289 6.32422L25.6836 6.61719L28.2734 6.66406H28.2617L30.8398 6.67578L33.4648 6.60547L36.1133 6.51172H36.1836L38.8203 6.53516H38.832L41.4688 6.59375L44.0352 6.64062L46.6484 6.52344L46.6836 6.51172H49.3203L51.957 6.44141L52.0625 6.42969L52.168 6.44141L54.6875 6.72266L57.1602 6.53516L57.2539 6.52344H57.3477L59.8555 6.64062L62.3633 6.3125L62.4805 6.30078H62.6094L65.2461 6.39453H65.2344L67.8828 6.45312L70.5078 6.51172L73.1094 6.5L75.6758 6.35938L75.8281 6.34766L75.9805 6.37109L78.5352 6.74609H80.8906L83.457 6.37109L83.5508 6.34766H83.6445L86.2812 6.27734H86.4219L86.5625 6.30078L88.9297 6.6875L91.332 6.26562L91.5664 6.21875L91.8008 6.25391L94.3438 6.58203H96.6289L97.4258 6.33594L97.5195 4.75391L97.5664 3.72266L96.5938 3.74609L96.4883 3.75781L96.3945 3.74609L93.8516 3.45312L91.2969 3.47656L91.2852 3.46484L88.7773 3.71094L88.6133 3.72266L88.4492 3.69922L85.918 3.38281L83.3867 3.42969H83.3281L80.6914 3.37109H80.6445L78.1719 3.23047L75.7109 3.69922Z" fill="black"/>
<path d="M35.1055 67.8008L34.8242 70.4375L34.8008 70.6484L34.7187 70.8594L33.9687 72.6641L33.5937 73.543L32.6445 73.5898L29.9961 73.6953L29.8203 73.6953L29.6328 73.6602L28.6953 73.4727L29 71.9961L29.3047 70.5312L30.0547 70.6836L31.5664 70.625L31.8711 69.8867L32.1172 67.5664L31.9531 65.1758L31.918 64.6836L32.1875 64.2734L32.2344 64.1914L33.5 65L33.6055 65.0703L34.9414 64.9883L35.1055 67.543L35.1172 67.6719L35.1055 67.8008Z" fill="black"/>
<path d="M95 73.5313L93.4883 73.5195L91.6953 73.5078L91.5781 73.5078L89.1172 73.3086L86.4805 73.4141L85.6367 73.4492L85.168 72.7461L84.0781 71.1172L83.7852 70.6602L83.8437 70.1211L84.1133 67.5078L84.0547 65.1172L85.3789 65.082L85.4961 65L86.7148 64.1328L86.7734 64.2148L87.043 64.5898L87.0547 65.0469L87.1133 67.6133L87.1133 67.707L87.1016 67.8008L86.8789 69.8984L87.1953 70.3789L89 70.3086L89.1758 70.3086L91.707 70.5078L93.5117 70.5195L93.5 71.9961L95 71.9961L95 73.5313Z" fill="black"/>
</svg>
