<svg width="120" height="120" viewBox="0 0 120 120" fill="none" xmlns="http://www.w3.org/2000/svg">
<path d="M58.4727 9.03418L61.3682 9.44727L64.1807 9.42969L67.1279 9.14062L67.2451 9.12891L67.3633 9.13574L70.3633 9.31445L70.4727 9.32031L70.5811 9.34277L73.4326 9.93848L76.3145 10.0889L76.3691 10.0918L76.4219 10.0986L79.3994 10.4697L79.4443 10.4756L79.4893 10.4834L82.4346 11.0342L82.46 11.0391L82.4854 11.0449L85.416 11.6963L85.4639 11.707L85.5107 11.7207L88.3369 12.5459L91.2363 13.1973L91.4775 13.251L91.6895 13.3809L94.2627 14.9521L94.5186 15.1084L94.6953 15.3506L95.459 16.4033H95.4951L95.5547 16.5352L96.1934 17.415L97.9229 19.7969H96.9248L97.4785 21.2754L97.4873 21.2979L97.4941 21.3193L98.4609 24.167L98.5078 24.3037L98.5273 24.4463L98.9121 27.2607L99.9814 29.8984L100.039 30.041L100.066 30.1914L100.603 33.1201L101.194 36.0615L101.206 36.1182L101.213 36.1758L101.569 39.1016L102.103 42.0234L102.12 42.1162L102.125 42.2109L102.286 45.1445L102.705 48.0586L102.722 48.1787L102.72 48.3008L102.664 51.1465L103.221 53.96L103.267 54.1934L103.238 54.4307L102.888 57.3242L102.907 57.9678H103.229L103.158 59.5352L103.156 59.5752L103.235 62.4326L103.238 62.5479L103.224 62.6621L102.86 65.5342L102.945 68.4297L102.947 68.4844L102.944 68.5391L102.814 71.5391L102.811 71.6348L102.794 71.7285L102.29 74.6504L101.908 77.6074L101.653 80.543L101.646 80.6279L101.629 80.71L101.033 83.6562L101.019 83.7324L100.994 83.8076L100.142 86.5244L99.9062 89.3789L99.8926 89.542L99.8447 89.6982L98.9727 92.5176L98.3184 95.3906L98.2861 95.5332L98.2266 95.666L97.0361 98.3486L96.1357 101.137L96.1201 101.184L95.4053 103.168L95.8291 103.501L94.0918 105.717L93.8047 106.082L93.3613 106.222L90.5332 107.109L87.7529 108.152L87.6719 108.183L87.5879 108.203L84.667 108.929L84.5605 108.956L84.4502 108.967L81.4648 109.255L78.5547 109.634L75.6182 110.134L75.5361 110.147L75.4531 110.152L72.4551 110.326L72.3809 110.331L72.3066 110.328L69.4639 110.21L66.6582 110.742L66.5039 110.771L66.3477 110.769L63.4072 110.708L60.4707 110.905L60.335 110.914L60.2002 110.899L57.2852 110.565L54.374 110.581L54.3604 110.582L54.3477 110.581L51.3477 110.544V110.543L48.3506 110.529L48.1787 110.528L48.0107 110.488L45.2617 109.834L42.4473 109.979L42.25 109.99L42.0566 109.948L39.1816 109.334L36.2646 109.007L36.1045 108.988L35.9521 108.938L33.2539 108.024L30.3975 107.74L30.1602 107.717L29.9414 107.621L27.165 106.396L26.9424 106.299L26.7627 106.136L24.54 104.12L24.0645 103.69L24.0479 103.05L24.0352 102.575L24.5928 102.56L24.0098 100.838L22.8428 98.1396L22.7822 98L22.751 97.8516L22.1475 94.9678L21.2744 92.1699L21.2627 92.1328L21.2539 92.0957L20.7158 90.0029L19.1143 87.7832H20.124L19.7246 86.3164L19.708 86.2539L19.6963 86.1895L19.1602 83.2354L19.1562 83.2168L19.1533 83.1973L18.6953 80.2295L18.6934 80.2178L18.6914 80.2051L18.5107 78.8887L17.5117 77.3721H18.3027L18.2832 77.2305L18.2842 77.2295L17.8291 74.2852L17.8262 74.2656L17.8232 74.2471L17.4404 71.2666L17.4346 71.2236L17.4316 71.1797L17.2227 68.1865L17.2207 68.1611L17.2197 68.1367L17.1094 65.1357L17.1064 65.0557L17.1123 64.9746L17.3203 62.04L17.2354 59.1455L17.0068 56.1797L17 56.0967L17.0029 56.0127L17.1084 53.0088L17.1104 52.9434L17.1182 52.8789L17.4805 49.9121H17.4795L17.8047 46.9307L17.8066 46.9131L18.166 43.9404L18.1689 43.9219L18.1709 43.9033L18.6016 40.9678L18.6787 40.3379L17.5117 38.5654H18.8975L18.9678 37.9951L18.9736 37.9453L18.9834 37.8965L19.5488 34.9512L19.5557 34.9131L19.5654 34.875L20.2617 32.0439L20.4082 30.8945L19.1143 29.1006H20.6367L20.6387 29.0869L20.6514 29.0293L21.2627 26.0859L21.2812 25.9971L21.3096 25.9121L22.2695 23.0654L23.2275 20.2217L23.2305 20.2109L24.209 17.374L24.2305 17.3154L24.5889 16.4033H24.6953L24.7676 15.707L25.4893 15.3359L28.1504 13.9668L28.1689 13.957L28.1875 13.9482L30.8896 12.6514L31.0049 12.5957L31.127 12.5615L34.0146 11.7373L34.1348 11.7031L34.2578 11.6895L37.1006 11.3672L39.8564 10.5117L40.0059 10.4648L40.1621 10.4502L43.1553 10.1709L43.1816 10.168L43.208 10.167L46.125 9.99805L49.0322 9.54492L49.0967 9.53516L49.1621 9.53027L52.1572 9.32812L52.2666 9.32129L52.375 9.3291L55.1904 9.55078L57.9941 9.04297L58.2324 9L58.4727 9.03418ZM58.1445 98.3574L58.1328 98.3584H58.1201L55.1299 98.3867L55.1309 98.3877L53.71 98.416L53.9219 100.454L53.9346 100.572L53.9277 100.69L53.7764 103.48L54.4893 106.188L54.541 106.383L54.5391 106.583L54.5303 107.58L57.3594 107.565H57.4482L57.5371 107.575L60.4072 107.902L63.2715 107.711L63.3369 107.707L63.4023 107.708L66.0225 107.76L66.1777 107.194L66.3135 104.355L66.3145 104.343V104.331L66.5068 101.334L66.6689 98.3516V98.3486L64.2402 98.5576L64.1055 98.5693L63.9707 98.5566L61.0547 98.2812L58.1445 98.3574ZM38.6318 97.6074L39.3047 100.466L40.1738 103.278L40.208 103.388L40.2246 103.501L40.6514 106.38L40.7168 106.594L42.4893 106.973L45.3252 106.827L45.541 106.816L45.75 106.866L48.5361 107.529L51.373 107.544H51.3848L51.5303 107.545L51.5371 106.758L50.8154 104.018L50.7559 103.79L50.7686 103.555L50.9258 100.646L50.6689 98.1826L49.0293 97.8408L46.2197 98.0781L46.0283 98.0938L45.8379 98.0615L42.9541 97.5615L40.0332 97.377L39.8848 97.3672L39.7412 97.3291L38.5215 97.0029L38.6318 97.6074ZM79.377 97.4941L79.2949 97.5098L79.2109 97.5166L76.2148 97.75L76.1406 97.7559L76.0654 97.7539L73.2207 97.6904L70.4238 98.2773L70.2705 98.3096L70.1143 98.3086L69.7129 98.3076L69.6582 98.6094L69.502 101.512L69.501 101.519V101.525L69.3096 104.498L69.1797 107.211L69.2471 107.198L69.4189 107.205L72.3623 107.327L75.1943 107.163L78.0811 106.672L78.1104 106.667L78.1396 106.663L79.6055 106.472L80.2314 103.718V103.717L80.8936 100.809L81.4854 97.8848L81.5029 97.8008L81.5293 97.7197L81.75 97.0381L79.377 97.4941ZM25.0332 94.1416L25.0547 94.2109L25.0693 94.2812L25.6553 97.0859L26.792 99.7148L26.8164 99.7715L26.8359 99.8291L27.7529 102.539L28.2822 103.465L28.5957 103.749L30.9326 104.779L33.7227 105.057L33.8926 105.074L34.0547 105.129L36.7617 106.043L37.582 106.135L37.2725 104.05L36.4219 101.295L36.4072 101.246L36.3955 101.196L35.707 98.2744L35.6982 98.2373L35.6924 98.2002L35.3975 96.5928L34.1592 96.5879L33.9736 96.5869L33.7939 96.542L30.874 95.7969L30.8555 95.792L30.8359 95.7871L27.9453 94.9678L27.9082 94.957L27.8711 94.9443L25.0195 93.9727L24.9756 93.957L25.0332 94.1416ZM94.2148 94.0859L91.4746 95.2197L91.3906 95.2549L91.3037 95.2793L88.4043 96.085L88.2959 96.1152L88.1836 96.1289L85.1963 96.4922L85.0742 96.5098L84.4082 98.5664L83.8311 101.42L83.8232 101.455L83.1572 104.383L82.7627 106.114L84.0488 105.99L86.7793 105.312L89.5156 104.288L89.5537 104.273L89.5928 104.261L92.0176 103.498L92.1621 103.312L92.2842 102.984L93.2969 100.168L94.2041 97.3574L94.2275 97.2832L94.2598 97.2109L95.4258 94.5791L95.6572 93.5596L94.2148 94.0859ZM22.1162 82.7295L22.6348 85.585L23.4082 88.4248L23.4141 88.4463L23.4814 88.709L24.2012 89.707L26.2129 91.2109L28.8125 92.0957L31.6152 92.8896L34.3545 93.5879L37.2139 93.6006H37.4072L37.5947 93.6514L40.3701 94.3916L43.2197 94.5723L43.3018 94.5771L43.3818 94.5908L46.1611 95.0723L48.9961 94.834L49.2148 94.8154L49.4287 94.8604L52.2334 95.4453L55.0703 95.3887H55.0859L58.0664 95.3584L61.0693 95.2803L61.1602 95.2783L61.25 95.2861L64.1182 95.5566L66.9824 95.3105L67.0469 95.3047H67.1133L69.9629 95.3076L72.7734 94.7197L72.9424 94.6846L73.1143 94.6885L76.0537 94.7529L78.8955 94.5312L81.7666 93.9814L81.8232 93.9717L84.7891 93.5195L84.834 93.5137L87.709 93.1641L90.4072 92.4141L93.1045 91.2998L93.1338 91.2881L93.1641 91.2773L95.5391 90.4102L96.877 88.4756L96.9824 88.3232L97.166 86.1113L97.1797 85.9453L97.2305 85.7861L98.1074 82.9854L98.1387 82.8291L95.8867 83.623L93.1465 84.7373L93.0635 84.7715L92.9785 84.7949L90.0684 85.5918L89.9609 85.6211L89.8506 85.6348L86.9053 85.9844L83.9531 86.4326L81.0469 86.9922L80.9648 87.0078L80.8828 87.0146L77.8916 87.252L77.8174 87.2578L77.7432 87.2568L74.9004 87.2012L72.1045 87.7979L71.9521 87.8301L71.7969 87.8311L68.8643 87.8398L65.9297 88.1113L65.7959 88.123L65.6611 88.1113L62.7451 87.8564L59.833 87.9561L59.8223 87.957H59.8105L56.8252 88.0146L53.8213 88.1094L53.6533 88.1152L53.4873 88.083L50.7227 87.5439L47.9199 87.8232L47.7305 87.8428L47.542 87.8135L44.6523 87.3662L41.7275 87.2451L41.583 87.2393L41.4414 87.2051L38.6924 86.5479L35.8545 86.6318L35.6768 86.6377L35.5029 86.6006L32.5566 85.9834L32.5439 85.9805L29.6084 85.3389L29.585 85.333L26.6641 84.6475L26.5166 84.6123L26.3799 84.5498L23.6455 83.29V83.2891L22.0996 82.626L22.1162 82.7295ZM52.1064 49.7139L52.0137 52.6543L52.1152 55.6143L52.1162 55.6416V55.6689L52.1094 58.665L52.1875 61.6318L52.1895 61.7227L52.1807 61.8125L51.9092 64.6797L52.1465 67.5459L52.1533 67.627L52.1514 67.709L52.0742 70.582L52.4756 73.457L52.4902 73.5615V73.667L52.4844 76.6709L52.4834 76.6699L52.5283 79.6455L52.5723 82.626L52.6846 84.8701L53.8936 85.1055L56.7314 85.0166H56.749L59.7305 84.958L62.7344 84.8555L62.8252 84.8525L62.916 84.8604L65.79 85.1113L67.4961 84.9531L67.7461 83.3125L67.9346 80.4346L67.8516 77.5117L67.8496 77.4658L67.8516 77.4209L67.9473 74.418L67.9492 74.374L67.9531 74.3291L68.2207 71.418L68.1709 68.5381L67.957 65.5811L67.9473 65.4521L67.96 65.3232L68.251 62.4189L68.1514 59.6211L68.1504 59.5869L68.1514 59.5527L68.1523 59.4531L68.1533 59.3428L68.1699 59.2334L68.3613 58.0225L68.084 55.2188L68.0762 55.1426V55.0654L68.0879 52.0674V52.0518L68.0889 52.0352L68.1602 49.1494L68.1533 49.0986L65.9297 49.3047L65.7959 49.3164L65.6611 49.3047L62.7451 49.0498L59.833 49.1494L59.8223 49.1504H59.8105L56.8252 49.208L53.8213 49.3027L53.6533 49.3086L53.4873 49.2764L52.1328 49.0117L52.1064 49.7139ZM83.9531 47.626L81.0469 48.1855L80.9648 48.2012L80.8828 48.208L77.8916 48.4453L77.8174 48.4512L77.7432 48.4502L74.9004 48.3945L72.1045 48.9912L71.9521 49.0234L71.7969 49.0244L71.1641 49.0254L71.1631 49.1055L71.0879 52.1113L71.0762 54.9951L71.3662 57.9199L71.3848 58.1123L71.3555 58.3027L71.1523 59.5869L71.2529 62.4199L71.2559 62.5215L71.2461 62.623L70.957 65.4961L71.167 68.3672L71.1699 68.4082V68.4502L71.2227 71.4502L71.2236 71.5322L71.2158 71.6133L70.9443 74.5547L70.8506 77.4746L70.9346 80.4346L70.9365 80.5049L70.9326 80.5752L70.7363 83.5723L70.7314 83.6367L70.7227 83.6992L70.5488 84.834L71.627 84.8311L74.4473 84.2314L74.6162 84.1953L74.7891 84.1982L77.7314 84.2549L80.5635 84.0293L83.4375 83.4785L83.4658 83.4727L83.4951 83.4678L84.0947 83.376L84.1475 83.1592L84.5439 80.3174L84.6445 77.3955L84.6455 77.3584L84.6484 77.3203L84.9023 74.3271L84.9062 74.29L84.9111 74.2529L85.3018 71.3584L85.3467 68.5098L85.2012 65.542L85.1953 65.4199L85.209 65.2988L85.5391 62.4102L85.4521 59.6152L85.4502 59.5703L85.4521 59.5244L85.4551 59.4248L85.4971 57.9678H85.6045L85.5723 57.0811L85.4404 54.1064L85.1611 51.166L85.1592 51.1475L85.1582 51.1279L84.9512 48.1406L84.9492 48.1133L84.9482 48.0859L84.9277 47.4775L83.9531 47.626ZM34.8535 50.2832L34.7266 53.2168L34.7441 56.1543L34.8105 59.1572V59.1973L34.7969 62.2041L34.8037 65.1963H34.8027L34.8555 68.125L35.1279 71.0498L35.1299 71.0703L35.1309 71.0898L35.3271 74.0488L35.6406 77.0117L35.6494 77.0938L35.6484 77.1768L35.6348 80.0498L36.1592 82.875L36.1719 82.9463L36.1787 83.0195L36.2295 83.6191L38.8057 83.5449L39.0039 83.5391L39.1973 83.585L41.9961 84.2539L44.8584 84.3721L44.9424 84.376L45.0254 84.3887L47.8125 84.8193L49.6689 84.6338L49.5752 82.7422L49.5742 82.7168L49.5732 82.6904L49.5283 79.6904L49.4844 76.6895V76.6641L49.4902 73.7646L49.0869 70.876L49.0693 70.7529L49.0723 70.6289L49.1504 67.7168L48.9082 64.7969L48.8975 64.6641L48.9102 64.5322L49.1865 61.6162L49.1094 58.7002V58.6582L49.1162 55.6855L49.0146 52.7109L49.0127 52.6611L49.0137 52.6123L49.1084 49.6104V49.6006L49.1348 48.8955L47.9199 49.0166L47.7305 49.0361L47.542 49.0068L44.6523 48.5596L41.7275 48.4385L41.583 48.4326L41.4414 48.3984L38.6924 47.7412L35.8545 47.8252L35.6768 47.8311L35.5029 47.7939L35.0303 47.6943L34.8535 50.2832ZM21.1396 44.3379L20.7852 47.2734L20.4619 50.2373L20.4609 50.2461L20.46 50.2559L20.1035 53.1807L20.0039 56.0371L20.2285 58.9551L20.2314 58.9902L20.2324 59.0254L20.3203 62.0283L20.3232 62.1035L20.3174 62.1787L20.1094 65.1035L20.2168 68.0088L20.4219 70.9297L20.7939 73.8271L21.252 76.7979L21.2539 76.8105L21.2559 76.8223L21.4336 78.1221L21.5479 78.0479L22.5361 79.5488L24.8652 80.5488L24.8838 80.5566L24.9014 80.5654L27.4971 81.7607L30.2725 82.4131L33.1377 83.0391L32.6602 80.4619L32.6348 80.3232V80.1816L32.6484 77.2402L32.3418 74.3398L32.3389 74.3105L32.3369 74.2812L32.1406 71.3281L31.8623 68.3398L31.8574 68.2842L31.8564 68.2275L31.8037 65.2266V65.2031L31.7969 62.2002V62.1904L31.8105 59.2227L31.7451 56.2207L31.7441 56.208V56.1963L31.7266 53.1895V53.1533L31.7285 53.1162L31.8584 50.1152L31.8594 50.0967L31.8613 50.0771L32.0664 47.083L32.0674 47.0693L29.6084 46.5322L29.585 46.5264L26.6641 45.8408L26.5166 45.8057L26.3799 45.7432L23.6455 44.4834V44.4824L21.2666 43.4629L21.1396 44.3379ZM99.1396 43.6699L98.6934 43.8271L95.8867 44.8164L93.1465 45.9307L93.0635 45.9648L92.9785 45.9883L90.0684 46.7852L89.9609 46.8145L89.8506 46.8281L87.915 47.0576L87.9453 47.9648L88.1475 50.8818L88.4316 53.8721L88.4355 53.9102L88.4365 53.9482L88.5693 56.9482L88.5703 56.9609L88.6582 59.415L88.7139 60.9678H88.4951L88.541 62.4268L88.5449 62.5361L88.5322 62.6445L88.2031 65.5176L88.3457 68.4023L88.3477 68.4502L88.3467 68.499L88.2998 71.501L88.2988 71.5898L88.2871 71.6787L87.8877 74.625L87.6406 77.5283L87.5391 80.5078L87.5361 80.5859L87.5254 80.6631L87.209 82.9277L89.3848 82.668L92.0977 81.9248L94.8018 80.8271L94.834 80.8145L94.8672 80.8027L97.249 79.9619L98.6201 78.0439L98.8389 77.7383L98.8877 77.7139L98.9258 77.2842L98.9287 77.2529L98.9326 77.2217L99.3184 74.2432L99.3223 74.2119L99.3281 74.1816L99.8213 71.3076L99.9443 68.4648L99.8584 65.5088L99.8555 65.3926L99.8701 65.2764L100.232 62.4033L100.193 60.9678H99.9941L99.9512 59.5127L99.8857 57.3057L99.8828 57.1924L99.8955 57.0811L100.23 54.3066L99.6904 51.5703L99.6592 51.4111L99.6621 51.25L99.7178 48.3662L99.3076 45.5098L99.2988 45.4443L99.2949 45.3789L99.1963 43.5898L99.1396 43.6699ZM22.4902 35.5381L21.9385 38.4131L21.791 39.6104L22.5361 40.7422L24.8652 41.7422L24.8838 41.75L24.9014 41.7588L27.4971 42.9541L30.2725 43.6064L33.1709 44.2402H33.1719L35.9443 44.8213L38.8057 44.7383L39.0039 44.7324L39.1973 44.7783L41.9961 45.4473L44.8584 45.5654L44.9424 45.5693L45.0254 45.582L47.8125 46.0127L50.6436 45.7305L50.8623 45.709L51.0791 45.751L53.8936 46.2988L56.7314 46.21H56.749L59.7305 46.1514L62.7344 46.0488L62.8252 46.0459L62.916 46.0537L65.79 46.3047L68.6504 46.041L68.7168 46.0352L68.7832 46.0342L71.627 46.0244L74.4473 45.4248L74.6162 45.3887L74.7891 45.3916L77.7314 45.4482L80.5635 45.2227L83.4375 44.6719L83.4658 44.666L83.4951 44.6611L86.4609 44.2119L86.4844 44.208L86.5078 44.2051L89.3848 43.8613L92.0977 43.1182L94.8018 42.0205L94.834 42.0078L94.8672 41.9961L97.249 41.1553L98.5713 39.3037L98.2402 36.5947L97.6953 33.8818L97.4629 34.2197L97.0146 34.3838L94.2148 35.4033L91.4746 36.5371L91.3906 36.5723L91.3037 36.5967L88.4043 37.4023L88.2959 37.4326L88.1836 37.4463L85.1963 37.8096L82.2979 38.251L79.377 38.8115L79.2949 38.8271L79.2109 38.834L76.2148 39.0674L76.1406 39.0732L76.0654 39.0713L73.2207 39.0078L70.4238 39.5947L70.2705 39.627L70.1143 39.626L67.1816 39.6221L64.2402 39.875L64.1055 39.8867L63.9707 39.874L61.0547 39.5986L58.1445 39.6748L58.1328 39.6758H58.1201L55.1299 39.7041L55.1309 39.7051L52.125 39.7656L51.9551 39.7695L51.7881 39.7344L49.0293 39.1582L46.2197 39.3955L46.0283 39.4111L45.8379 39.3789L42.9541 38.8789L40.0332 38.6943L39.8848 38.6846L39.7412 38.6465L37.0078 37.917L34.1592 37.9053L33.9736 37.9043L33.7939 37.8594L30.874 37.1143L30.8555 37.1094L30.8359 37.1045L27.9453 36.2852L27.9082 36.2744L27.8711 36.2617L25.0195 35.29L24.7949 35.2139L24.6045 35.0723L22.916 33.8096L22.4902 35.5381ZM53.1562 28.7422L53.1523 28.8291L53.1387 28.915L52.6807 31.8203L52.4912 34.7559L52.3936 36.7588L55.0703 36.7061H55.0859L58.0664 36.6758L61.0693 36.5977L61.1602 36.5957L61.25 36.6035L64.1182 36.874L66.9824 36.6279L67.0469 36.6221H67.6621L67.4443 34.2236L67.4395 34.168L67.4385 34.1123L67.3906 31.1787L67.0693 28.2598L67.0537 28.1201L67.0645 27.9805L67.1084 27.4072L67.0635 27.417L66.9082 27.4482L66.75 27.4463L63.8135 27.4043L60.8711 27.6123L60.7344 27.6221L60.5977 27.6074L57.6816 27.2783L54.7686 27.291H54.7383L53.2158 27.2666L53.1562 28.7422ZM81.874 25.6982L78.9668 26.1436L76.0352 26.6992L75.9512 26.7148L75.8662 26.7217L72.8691 26.9404L72.793 26.9453L72.7158 26.9434L70.1582 26.8672L70.0664 28.0674L70.3809 30.9189L70.3877 30.9893L70.3896 31.0596L70.4365 34.0059L70.6611 36.4785L72.7734 36.0371L72.9424 36.002L73.1143 36.0059L76.0537 36.0703L78.8955 35.8486L81.7666 35.2988L81.8232 35.2891L83.7734 34.9912L83.6777 33.2412L83.2881 30.3262L83.2832 30.292L83.2803 30.2568L83.0322 27.4043L82.5254 25.6162L81.874 25.6982ZM37.7471 26.6768L37.2061 29.582L36.6797 32.5361L36.6777 32.5488L36.6748 32.5625L36.21 34.9131L37.2139 34.918H37.4072L37.5947 34.9688L40.3701 35.709L43.2197 35.8896L43.3018 35.8945L43.3818 35.9082L46.1611 36.3896L48.9961 36.1514L49.2148 36.1328L49.4189 36.1748L49.4961 34.5869V34.5742L49.4971 34.5625L49.6914 31.5645L49.6963 31.4961L49.7061 31.4287L50.1621 28.5303L50.2148 27.2266L48.7324 27.2119L48.5586 27.21L48.3896 27.1689L45.6455 26.4912L42.8262 26.6064L42.626 26.6143L42.4316 26.5703L39.5654 25.917L37.9473 25.707L37.7471 26.6768ZM25.1133 24.0225V24.0234L24.1826 26.7793L23.5996 29.5791L23.5332 30.0986L24.2012 31.0244L26.2129 32.5283L28.8125 33.4131L31.6152 34.207L33.2119 34.6133L33.7314 31.9814L34.2539 29.0557L34.2559 29.0449L34.8027 26.0986L34.8057 26.083L34.8096 26.0684L35.0312 24.9922L33.6484 24.4941L30.7988 24.1445L30.5635 24.1162L30.3477 24.0156L27.6074 22.7402L27.4453 22.6641L27.3057 22.5527L25.9668 21.4854L25.1133 24.0225ZM94.1172 21.9463L93.665 22.123L90.8945 23.2061L88.1504 24.3848L88.0635 24.4229L87.9717 24.4482L85.5117 25.1533L85.958 26.7217L85.9961 26.8584L86.0088 27.001L86.2666 29.9648L86.6592 32.8994L86.667 32.957L86.6699 33.0146L86.7559 34.5967L87.709 34.4814L90.4072 33.7314L93.1045 32.6172L93.1338 32.6055L93.1641 32.5947L95.5391 31.7275L96.7656 29.9531L96.0625 28.2158L95.9912 28.042L95.9658 27.8564L95.5742 24.9961L94.6611 22.3076L94.375 21.5449L94.1172 21.9463ZM55.5371 12.5361L55.3467 12.5713L55.1533 12.5557L52.249 12.3281L49.4277 12.5186L46.5234 12.9727L46.4521 12.9834L46.3799 12.9873L43.3828 13.1611L40.5996 13.4219L37.8584 14.2744L37.7227 14.3164L37.582 14.332L34.7197 14.6553L32.0732 15.4102L29.5 16.6445L27.583 17.6309L27.458 18.8379L29.0361 20.0957L31.3994 21.1953L34.1836 21.5381L34.3506 21.5586L34.5098 21.6152L37.2041 22.5859L40.0186 22.9502L40.0898 22.96L40.1602 22.9756L42.9043 23.6006L45.7383 23.4863L45.9521 23.4775L46.1592 23.5283L48.9365 24.2129L51.7744 24.2441H51.7822L54.7783 24.29L57.7539 24.2783L57.8408 24.2773L57.9287 24.2871L60.7949 24.6104L63.6582 24.4072L63.7217 24.4033L63.7852 24.4043L66.6328 24.4434L69.4531 23.8838L69.6201 23.8506L69.79 23.8555L72.7324 23.9414L75.5635 23.7354L78.4336 23.1924L78.459 23.1865L78.4854 23.1826L81.4502 22.7285L81.4707 22.7256L81.4912 22.7236L84.3545 22.3643L87.0527 21.5908L89.7275 20.4434L89.75 20.4336L89.7725 20.4248L92.1201 19.5059L93.0049 18.1289L92.4443 17.3564L90.3369 16.0693L87.6299 15.4619L87.584 15.4512L87.5381 15.4385L84.7178 14.6143L81.874 13.9814L78.9766 13.4395L76.1074 13.082L73.1592 12.9277L73.0449 12.9219L72.9316 12.8984L70.0703 12.3018L67.3008 12.1377L64.4082 12.4219L64.3398 12.4277L64.2715 12.4287L61.2744 12.4473H61.1631L61.0537 12.4316L58.2891 12.0381L55.5371 12.5361Z" fill="black"/>
</svg>
