<svg width="120" height="120" viewBox="0 0 120 120" fill="none" xmlns="http://www.w3.org/2000/svg">
<path d="M58.0566 10.0117L61.0566 10.1875H61.1152L61.1621 10.1992L64.1387 10.5742L64.3379 10.6094L64.5137 10.6797L67.2793 11.8281L67.3496 11.8516L67.4082 11.8867L69.2354 12.8516L71.165 13.0488L72.0723 13.0234L74.8965 12.6016L75.2129 12.5664L75.5059 12.6367L78.4004 13.4219L78.459 13.4336L78.5293 13.457L81.2832 14.4766L81.3418 14.5L81.3887 14.5234L84.1426 15.7773L84.3887 15.8828L86.8027 18.2969L86.8496 18.3672L87.6465 19.3867L87.6738 19.3975L89.0801 19.9248L89.0449 20.0186L89.0215 20.0654L88.998 20.124L88.9775 20.166L90.5645 20.2305L90.8574 20.2422L91.127 20.3711L93.8691 21.625L93.9746 21.6719L94.0566 21.7305L96.6113 23.3711L96.9746 23.6055L97.1621 23.9922L98.4277 26.6992L99.7402 29.2188L101.533 31.4922L101.545 31.5039L103.291 33.7891L105.201 36.0156L107.264 38.2305L107.51 38.5L107.615 38.8633L108.4 41.793L108.412 41.8281V41.8633L109.045 44.7812L109.057 44.8633L109.068 44.957L109.314 47.6289L110.58 49.9258L110.65 50.0664L111.811 52.832L111.857 52.9375L111.881 53.043L112.643 55.9727L112.725 56.2656L112.678 56.5703L112.244 59.5703L112.232 59.5586L112.021 62.4531L111.998 62.7227L111.881 62.957L110.639 65.6875L110.615 65.7227L110.592 65.7695L109.162 68.418L109.057 68.6055L108.904 68.7578L106.783 70.8906L104.932 73.0938L104.803 73.2227L102.6 75.2734L102.482 75.3906L102.33 75.4727L99.8574 76.9023L97.4434 78.6836L97.4199 78.6953L97.3965 78.7188L94.9238 80.3594L94.9355 80.3711L92.5215 82.082L92.5332 82.0938L90.2705 83.8105L90.3477 83.9346L89.8125 84.2676L88.5254 85.6094L88.1035 87.8242L88.3379 90.543L89.0176 93.2969L89.0293 93.332V93.3672L89.6035 96.3086V96.332L90.1191 99.2734L90.166 99.543L90.1074 99.8125L89.5449 102.695L89.4746 103.094L89.2051 103.387L87.3066 105.602L87.084 105.859L86.7676 105.988L84.0137 107.195L83.6855 107.336L83.3457 107.312L80.334 107.172L80.2871 107.16H80.2402L77.2754 106.844L77.2402 106.832H77.1934L74.2285 106.363L74.1582 106.352L74.0879 106.328L71.1699 105.578L71.0293 105.543L70.9004 105.473L68.7812 104.47L66.7461 105.931L66.6406 106.013L66.5117 106.071L63.8516 107.29L61.25 108.802L60.6758 109.13L60.043 108.919L57.1602 107.993L56.9727 107.923L56.7969 107.817L54.3242 106.165L52.2617 104.806L50.1523 105.052L47.4219 105.919L44.5625 106.821L44.3516 106.892H44.1289L41.2227 106.915L38.3164 107.349L38.0117 107.396L37.707 107.313L34.8359 106.517L34.5195 106.423L34.2734 106.224L32 104.337L31.5898 103.997L31.4844 103.47L30.9102 100.552L30.8867 100.411L30.5938 97.4346L30.582 97.2939L30.5938 97.165L30.8633 94.1533L30.875 93.9541L30.9453 93.7666L31.9414 90.9893L32.5273 88.4814L32.0469 86.1494L30.5586 84.1104L28.5078 82.1533L26.1406 80.583L26.1289 80.5713L23.6445 78.8838L23.5977 78.8486L23.5625 78.8252L21.207 76.9971L18.8164 75.1807L18.7578 75.1455L18.7109 75.0986L16.5312 73.1299L14.2344 71.208L14.1523 71.1494L14.0938 71.0674L12.0664 68.8643L12.0078 68.8057L11.9609 68.7354L10.1914 66.333L10.1445 66.2627L10.1094 66.1924L8.59766 63.5791L8.44531 63.333L8.41016 63.0283L8.01172 60.0518L8 59.9463V59.8408L8.01172 56.876V56.7588L8.03516 56.6299L8.55078 53.6885L8.57422 53.5479L8.62109 53.4072L9.69922 50.583L9.76953 50.4072L9.875 50.2549L11.4268 48.0605L11.1797 45.7305L11.1445 45.4492L11.2266 45.168L12.0586 42.2617L12.0703 42.2148L12.0938 42.168L13.1133 39.3672L13.1484 39.2734L13.1953 39.1914L14.6016 36.5312L14.6836 36.3906L14.7891 36.2617L16.7695 33.9648L16.9336 33.7656L17.168 33.6484L19.5576 32.2822L19.6426 30.5566L19.666 30.2285L19.8184 29.9355L21.2012 27.2637L21.2598 27.1465L21.3418 27.041L23.1582 24.6621L23.2871 24.498L23.4512 24.3809L25.8301 22.5996L25.9941 22.4824L28.5723 21.0293L28.7598 20.9355L28.959 20.8887L31.5723 20.2324L33.6113 18.9082L35.5449 16.8223L35.709 16.6582L35.9082 16.541L38.5215 15.041L38.5566 15.0176L38.6035 14.9941L41.2871 13.6934L41.3926 13.6348L41.5098 13.5996L44.3809 12.7559L44.5801 12.6973H44.791L47.8145 12.6621H48.1074L48.3887 12.7676L50.7725 13.6982L50.9316 13.2227L51.1191 12.6719L51.6348 12.3906L54.2949 10.9141L54.4707 10.8086L54.6699 10.7617L57.623 10.0586L57.834 10L58.0566 10.0117ZM55.5488 13.6328L53.5801 14.7344L52.9121 16.7148L53.0293 19.4453V19.5156L53.0059 22.457L53.3223 25.3281L53.334 25.4336V25.5391L53.252 28.4219L53.7207 31.1875L54.3184 34.1406L54.3418 34.2344V34.3398L54.5059 37.1992L54.9863 40.1406L55.502 43.1055L55.5137 43.1875V43.2695L55.6777 46.1172L56.416 48.9062L56.4512 49.0234L56.4629 49.1406L56.7441 52.0469L57.3418 54.918L57.3652 55.082L57.6348 58.082L58.127 60.918L58.1504 61.0469V61.1992L58.1035 64.082L58.6777 66.8477L58.6895 66.8594V66.8711L59.252 69.8242L59.2871 70.0234L59.2754 70.2227L59.1699 71.5117L57.6699 71.3945L56.1816 71.2773L56.252 70.1875L55.7363 67.4336V67.4219L55.127 64.5156L55.0918 64.3633L55.1035 64.1875L55.1387 61.2695L54.6582 58.4688L54.6465 58.4102V58.3516L54.377 55.4336L53.791 52.5742L53.7793 52.5039L53.7676 52.4219L53.4746 49.5156L52.748 46.75L52.7129 46.6094L52.7012 46.457L52.5371 43.6211L52.0332 40.6562V40.6445L51.541 37.6797L51.5293 37.5977V37.5273L51.3535 34.6445L50.7793 31.7852V31.7617L50.7676 31.7383L50.2637 28.7617L50.2402 28.6211L50.252 28.4688L50.334 25.5273L50.0176 22.668L50.0059 22.5859V22.5039L50.0293 19.5625L49.9121 16.5811L47.5566 15.6621L45.002 15.6855L42.4707 16.4473L40.0098 17.6426L37.584 19.0254L35.6973 21.0762L35.5801 21.2051L35.4277 21.3105L35.2129 21.4502L35.9277 23.7793L37.0879 26.5449H37.0762L38.2715 29.2871L38.2832 29.334L38.3066 29.3691L39.3262 32.1934L39.3496 32.2754L39.373 32.3457L40.0293 35.1113L41.1895 37.8066L41.2129 37.8535L41.2246 37.9004L42.2207 40.7363V40.748L42.2324 40.7598L43.1348 43.5488L44.2012 46.3613L44.2246 46.4316L44.248 46.5137L44.9746 49.3496H44.9863L45.877 52.209L45.9004 52.2559L46.6855 55.0449L47.6699 57.8105L48.8066 60.5996L48.8301 60.6582L48.8535 60.7285L49.7207 63.5879L50.623 66.4473V66.459L51.4902 69.3301H51.4785L52.4512 72.1191L52.4863 72.2129L52.498 72.3184L53.0371 75.0957L53.998 77.5332L52.6504 78.0605L52.6621 78.0723L53.1426 79.4902L53.084 79.5137L51.7363 79.959L51.209 78.6348L50.2129 76.127L50.166 75.998L50.1426 75.8574L49.5684 72.9629L48.6309 70.2559V70.2324L48.6191 70.1973L47.752 67.3379L46.8613 64.4785H46.8496V64.4668L45.9941 61.6426L44.8926 58.9473L44.8691 58.877L43.8496 56.0527L43.8262 55.959L43.0176 53.1113L42.1152 50.252L42.1035 50.2168V50.1816L41.3418 47.2754H41.3301L40.334 44.6035L40.3223 44.5801L40.3105 44.5449L39.373 41.6973V41.6855L38.4355 38.9902L37.252 36.2246L37.1934 36.1074L37.1699 35.9902L36.4668 33.1191L35.5176 30.4707L34.3223 27.7168V27.7051L33.1504 24.9395L33.1035 24.7988L32.583 23.084L32.5566 23.0918L29.8848 23.7363L27.4824 25.084L25.3965 26.6543L23.791 28.7637L22.6191 31.0254L22.5137 33.0762L23.8848 35.2324L23.9199 35.2793L23.9434 35.3262L25.3496 37.9395L26.8145 40.5645V40.5762L28.2207 43.1543L29.7676 45.7441L29.8145 45.8262L29.8613 45.9316L30.9629 48.5566L32.5098 50.9473L34.2441 53.4199L34.3262 53.5371L34.3848 53.666L35.5918 56.3496L37.1504 58.7402L37.1855 58.7988L37.2207 58.8691L38.5449 61.4473L40.2324 63.8145L40.3496 63.9785L40.4199 64.166L41.4043 66.8848L42.9395 69.2637L42.9629 69.2988L42.9746 69.334L44.4629 71.9473L45.9395 74.5488L45.9863 74.6426L46.0332 74.748L46.0684 74.8535L44.6738 75.3926L43.9355 75.6738L43.3262 76.0371L41.8496 73.4238L40.4082 70.8809L38.791 68.3496L38.6973 68.209L38.6387 68.0566L37.666 65.3965L36.0371 63.0996L35.9199 62.9121L34.6191 60.3691L32.9902 57.8496L32.9316 57.7441L32.8848 57.6504L31.7012 55.0137L30.0605 52.6816L30.0371 52.6582L30.0254 52.6348L28.3965 50.1035L28.3262 49.998L28.2676 49.8691L27.1309 47.1855L25.6543 44.7012L25.6309 44.6777L25.6191 44.6426L24.1777 42.0059V41.9941L22.7246 39.4043V39.3926L22.7129 39.3809L21.2949 36.7441H21.2832L20.3564 35.2764L18.8789 36.1094L17.1562 38.1016L15.8906 40.4922L14.9062 43.1992L14.1914 45.6836L14.4023 47.7461L16.1836 49.4688L16.2422 49.5273L18.2461 51.6836L20.3789 53.8047L20.4258 53.8633L20.4844 53.9336L22.3125 56.2188H22.3242L24.3047 58.4688L24.3398 58.5039L26.1797 60.7422L28.2539 62.9219H28.2422L30.3633 64.9844L30.4102 65.0312L30.457 65.0898L32.3906 67.375L34.3477 69.6602L34.3594 69.6719L36.2461 71.957L38.2266 74.207L38.2969 74.2891L38.3672 74.3828L39.9609 76.832L41.8711 78.8945L43.9805 81.0508L44.1094 81.1797L44.2031 81.332L45.2812 83.1836L44.0625 83.8984L44.9766 85.0703L44.918 85.1172L43.5586 86.1836L42.6914 84.6953L41.707 83.0078L39.7266 80.9922L39.6914 80.957L37.6523 78.7539L37.5703 78.6602L37.5 78.5547L35.918 76.1172L33.9961 73.9375L33.9727 73.9258L33.9609 73.9023L32.0625 71.5938V71.6055L30.1172 69.3203H30.1055L28.2656 67.1289L26.1094 65.0312L26.0859 65.0078L26.0742 64.9844L24.0117 62.8047L23.9414 62.7344L22.0547 60.4492L20.0742 58.1992L20.0273 58.1523L18.1875 55.8672L16.1016 53.7812L16.0898 53.7578L14.1094 51.625L13.2002 50.75L12.4414 51.8252L11.4805 54.3213L11 57.0049V59.7236L11.3398 62.3369L12.6172 64.5518L14.3281 66.8955L16.2031 68.9346L18.4531 70.8213L18.4766 70.833L18.5 70.8564L20.7031 72.8486L23.0234 74.6064L23.0352 74.6182L25.332 76.3994L27.8164 78.0869H27.8047L30.3125 79.751L30.418 79.833L30.5117 79.915L32.7031 82.001L32.7969 82.0947L32.8789 82.2002L34.6719 84.6377L34.8594 84.9072L34.9297 85.2236L35.0645 85.8828L35.5684 85.2754L35.6504 85.3574L37.7949 87.1621L40.209 88.9316L40.2324 88.9551L42.623 90.7832L42.6699 90.8184L42.7168 90.8652L44.9316 92.8926L45.0137 92.9629L45.0723 93.0332L46.9121 95.248L49.0801 97.2285L49.1387 97.2754L49.1973 97.334L51.1895 99.5723L51.248 99.6309L52.916 101.713L53.0234 101.7L55.9766 103.669L58.2852 105.192L60.3242 105.86L62.3984 104.677L62.457 104.642L62.5156 104.618L65.0938 103.399L67.3086 101.829L69.125 99.6611L69.1719 99.6143L69.2188 99.5557L71.3398 97.458L71.4219 97.376L71.5156 97.3174L73.8242 95.6182L75.5352 93.4268L75.6172 93.333L75.6992 93.251L77.7969 91.3174L79.5664 89.0088L79.6836 88.8564L79.8359 88.7275L82.2266 86.876L84.3242 85.0479L86.4453 82.8916L86.5742 82.7627L86.7266 82.6689L87.9385 81.9043L88.1387 81.6953L88.2207 81.6016L88.3145 81.5312L90.7168 79.7148L90.7285 79.6914L90.752 79.6797L93.1895 77.9336L93.2129 77.9219L93.2246 77.9102L95.709 76.2344L98.0645 74.4883L98.2051 74.3945L100.678 72.9648L102.658 71.1016L104.58 68.8516L104.615 68.8047L104.662 68.7695L106.631 66.7773L107.943 64.3633L109.033 61.9609L109.256 59.2422L109.268 59.1836V59.1367L109.666 56.4297L108.986 53.8867L108.062 51.6562L107.697 52.0264L105.893 54.2998L104.076 56.7021L104.018 56.7607L102.072 59.0459L102.025 59.1045L101.967 59.1514L99.8809 61.1318L98.1816 63.4639L98.1113 63.5342L96.1777 65.8311V65.8428L96.166 65.8545L94.1973 68.1162L92.3691 70.4131L92.2754 70.5303L90.2246 72.6162L88.2559 74.8779L88.2207 74.9131L86.1816 77.1162L84.3652 79.3779L82.6309 81.7451L82.4902 81.9326L82.3027 82.0732L81.5527 82.6123L80.6738 81.3936L79.7949 80.1865L80.3574 79.7646L81.998 77.5381L82.0098 77.5146L82.0332 77.4912L83.9199 75.1475L83.9902 75.0771L85.9941 72.8975L87.9746 70.6475L87.998 70.6123L88.0332 70.5889L90.1191 68.4326L91.8887 66.1943L91.9121 66.1709L91.9355 66.1357L93.9043 63.874L95.8262 61.6006L97.5488 59.2568L97.6309 59.1514L97.7246 59.0693L99.8926 56.9834L101.686 54.874L103.514 52.4834H103.525V52.4717L105.389 50.1162L105.447 50.0459L105.506 49.9873L106.583 48.8848L106.537 48.8008L106.385 48.5195L106.361 48.2148L106.08 45.3555L105.482 42.4961V42.4844L104.803 39.9883L102.998 38.0547L102.975 38.0312L102.963 38.0078L101.018 35.7344L100.982 35.7109L100.959 35.6758L100.563 35.1582L99.3594 36.7305L97.9297 39.1211L96.4766 41.7578L96.4531 41.7812L96.4414 41.8164L94.8594 44.3594L94.8242 44.418L94.7773 44.4766L93.0195 46.7852L91.7422 49.3281L91.7188 49.375L91.6953 49.4102L90.1836 52V52.0117L88.6484 54.5898L87.2891 57.1797L87.2539 57.2383L87.2188 57.3086L85.6016 59.7344L84.1016 62.3359V62.3594L84.0898 62.3711L82.5664 64.832L81.2188 67.4336L79.9766 70.1758L79.9531 70.2461L79.918 70.3047L78.4297 72.9062L78.418 72.8945L76.9648 75.5078V75.5312L75.4648 78.1211L74.0938 80.7344L73.9531 80.9922L73.7305 81.1797L73.4141 81.4492L72.4414 80.3008L71.7617 79.4922L71.4336 79.3281L71.5039 79.1992L71.4688 79.1641L71.5742 79.082L72.8398 76.6797L72.8633 76.6328L74.3633 74.0312L75.8164 71.4297V71.418L77.2578 68.8984L78.5 66.1914L78.5117 66.1562L78.5352 66.1328L79.9062 63.4609L79.9297 63.4141L79.9648 63.3672L81.5234 60.8125L83.0117 58.2461L83.0586 58.1758L84.6289 55.7617L86.0352 53.125L86.0469 53.0898L86.0703 53.0547L87.6055 50.4766L89.1055 47.8984L90.418 45.2969L90.4883 45.168L90.5703 45.0625L92.3281 42.7188L93.8867 40.2344L95.3164 37.668L95.3281 37.6445L95.3398 37.6328L96.875 35.043L96.9219 34.9727L96.9805 34.9023L98.6719 32.6953L97.3027 30.9648L97.2207 30.8594L97.1504 30.7305L95.7676 28.082L95.7559 28.0586L95.7441 28.0234L94.6191 25.6445L92.5449 24.3086L90.1191 23.207L87.6592 23.1211L86.9004 25.4092L86.9121 25.4209L86.0332 28.292L86.0098 28.3623L84.9902 31.1865L84.9668 31.2568L84.9316 31.3154L83.7012 33.9053L82.9512 36.6943L82.9395 36.7412L82.916 36.7881L81.9668 39.624L81.9551 39.6357L80.9707 42.4717L80.1504 45.2842L80.127 45.3545L80.1035 45.4131L79.002 48.1201L78.041 50.9678V50.9912L78.0293 51.0029L76.998 53.8271L76.2129 56.6045L75.5332 59.4639L75.5215 59.5342L75.498 59.5928L74.5488 62.417L73.6348 65.2764V65.2998L72.6855 68.0771L72.6973 68.0889L71.8535 70.9717L71.8066 71.1123L71.7363 71.2529L70.7871 73.0342L69.6738 72.4365L69.2285 73.8311L69.0176 73.7607L67.2949 73.2217L68.1387 71.6279L69.0176 69.9873L69.8145 67.2451L69.8262 67.2217L69.8379 67.1865L70.7871 64.3506L71.7012 61.5146V61.4912L72.6504 58.6436L73.3066 55.8428L73.3184 55.8193L73.3301 55.7842L74.1504 52.8896L74.1621 52.8428L74.1855 52.7959L75.2168 49.9717L76.166 47.1709L76.1777 47.124L76.2012 47.0889L77.3145 44.2998L78.1113 41.5576L78.1348 41.4873L79.1191 38.6631L80.0801 35.8271L80.8418 33.0029L80.877 32.8857L80.9355 32.7568L82.166 30.1436L83.1855 27.3428L84.041 24.542V24.5303L84.0527 24.5068L84.9902 21.6592L85.0254 21.5771L85.0605 21.5068L85.2227 21.1504L84.5645 20.3008L82.6543 18.3906L80.252 17.2891L77.5684 16.293L75.0254 15.6133L72.377 16.0117L72.2832 16.0234H72.2012L70.666 16.0742L70.4863 18.9561L70.3457 21.9326V22.0146L70.041 24.9912L70.0293 25.0732L70.0176 25.1436L69.4316 27.9326L69.3496 30.8506L69.3379 30.8975V30.9443L69.0449 33.9326V33.9561L68.7051 36.8623L68.5176 39.8623L68.5059 39.9443L68.4941 40.0146L68.002 42.8975L67.6621 45.8857V45.9209L67.2285 48.8975L67.0293 51.7803L66.9473 54.7217V54.792L66.9355 54.8623L66.584 57.8389L66.2559 60.8037V60.8271L65.8926 63.8037L65.6465 66.7334V66.8389L65.623 66.9443L64.9785 69.7686L64.8613 72.6396L64.8496 75.5811V75.7686L64.8027 75.9443L64.3223 77.8545L62.9512 77.5029L62.8105 78.9912L62.7285 78.9795L60.9824 78.8154L61.416 77.1162L61.8613 75.3818V72.499L61.9902 69.499L62.002 69.3584L62.0254 69.2295L62.6699 66.417L62.9043 63.499L62.916 63.4756V63.4404L63.2793 60.4639L63.5957 57.499L63.6074 57.4873L63.9473 54.5928L64.0293 51.6396V51.5693L64.252 48.5693V48.5225L64.2637 48.4756L64.6855 45.499L65.0254 42.5576L65.0371 42.5225V42.4873L65.5176 39.6514L65.7168 36.6748V36.6396L65.7285 36.6045L66.0566 33.6396L66.3496 30.6631L66.4434 27.7451V27.6162L66.4668 27.499L67.0527 24.6162L67.3574 21.71L67.4863 18.792V18.7686L67.6738 15.7686L67.6973 15.6045L67.7236 15.4482L66.0957 14.5938L63.5176 13.5156L60.8574 13.1758L58.1152 13.0234L55.5488 13.6328ZM34.8477 91.7744L34.8242 91.8682L34.8008 91.9502L33.8281 94.5986L33.5938 97.2705L33.8633 100.048L34.3203 102.368L35.9375 103.704L38.1992 104.325L40.8477 103.938L40.9531 103.927H41.0586L43.8594 103.892L46.5195 103.048H46.5312L49.3906 102.157L49.4131 102.149L48.9043 101.518V101.506L46.9941 99.3848L44.8379 97.416L44.7676 97.3574L44.6973 97.2754L42.8457 95.0488L40.6895 93.0801H40.6777L38.4277 91.3457L36.0137 89.5762L35.9785 89.5527L35.9316 89.5176L35.4609 89.1191L34.8477 91.7744ZM84.1367 89.1963L84.1016 89.2314L84.0664 89.2549L81.8281 90.9775L80.1289 93.2275L80.0469 93.333L79.9531 93.4268L77.8203 95.3721L76.0391 97.6572L75.9102 97.8213L75.7461 97.9385L73.3672 99.6611L71.4219 101.595L70.9375 102.171L72.0723 102.707L74.8145 103.41L77.5918 103.855L80.5566 104.172H80.5449L83.1465 104.289L85.2441 103.387L86.6738 101.734L87.1074 99.5195L86.6504 96.8711L86.0996 94L85.3965 91.082L85.3613 90.9766V90.8594L85.1406 88.3223L84.1367 89.1963Z" fill="black"/>
</svg>
