<svg width="120" height="120" viewBox="0 0 120 120" fill="none" xmlns="http://www.w3.org/2000/svg">
<path d="M60.0977 5.54004L62.7109 6.10254L62.6992 6.11426L65.2305 6.59473H65.2656L65.2891 6.60645L67.8906 7.2041L68.1133 7.2627L68.3125 7.37988L70.6211 8.72754L70.8086 8.83301L70.9492 8.98535L72.7305 10.8604H72.7422L74.6523 12.665L74.7695 12.7588L74.8516 12.8877L76.375 15.0439L76.457 15.1494L76.5039 15.2783L77.6172 17.6689L77.6641 17.751L77.6875 17.8447L78.4844 20.3525L78.5195 20.458L78.5312 20.5752L78.9297 23.1182L79.4102 25.7314L79.457 25.9658L79.4219 26.2002L79.082 28.8252L78.7539 31.4619L78.7305 31.6846L78.6367 31.8838L77.5703 34.3213L76.7969 36.6885L76.0117 39.126L75.6953 41.458L75.6484 43.8252L76.0469 46.0635L76.9844 48.0088L78.4844 49.5088L80.3477 50.5518L82.3281 50.9033L84.25 50.4697L85.8086 49.4502L86.3594 47.6807L86.0664 45.4072V45.3604L85.8203 42.7236L85.8086 42.6182V42.5127L85.9375 39.8643L85.9492 39.7471L85.9727 39.6416L86.4883 37.0752L86.5234 36.8877L86.6172 36.7002L87.7656 34.3799L87.8711 34.1689L88.0352 34.0049L89.8281 32.165L89.9805 32.0127L90.1562 31.9189L92.3945 30.6299L92.6172 30.501L92.8633 30.4541L95.4062 29.9619L95.6523 29.915L95.8984 29.9502L98.4531 30.29L98.5938 30.3135L98.7344 30.3604L101.16 31.2158L101.734 31.415L102.016 31.9658L102.426 32.7861L102.053 32.9697L102.838 33.0479L102.709 34.3604L102.779 34.501L103.424 35.8604L103.33 35.8955L102.955 36.0713L102.545 36.0361L100.389 35.8135L98.209 35.9775L96.4277 37.0322L95.1387 38.6025L94.3652 40.5127L94.4355 42.6221L95.0918 45.0361L95.1152 45.1416L95.127 45.2471L95.4434 47.8838L95.4668 48.1064L95.4316 48.3291L94.9746 50.8604L94.623 53.5088L94.5762 53.8721L94.3652 54.1768L92.8301 56.3564L92.7715 56.4502L92.6895 56.5322L90.8379 58.4775L90.6152 58.7119L90.3105 58.8408L87.8145 59.8135L87.7676 59.8369L87.7207 59.8486L85.2246 60.6572L85.084 60.6924L84.9316 60.7158L82.3066 61.0205L82.1777 61.0322H82.0605L80.4268 60.9531L82.0312 62.3721L84.082 62.8525L86.2734 62.7354L88.4297 61.9268L90.6562 60.9189L92.4961 59.3252L92.5781 59.2549L92.6719 59.1963L94.8164 57.8135L96.8789 56.208L97.1719 55.9854L97.5234 55.915L100.148 55.4229L100.242 55.4111L100.348 55.3994L102.949 55.2705L103.055 55.2588L103.148 55.2705L105.762 55.4697L106.02 55.4932L106.266 55.6104L108.668 56.7002L108.867 56.7939L109.043 56.9463L110.988 58.6924L111.07 58.7627L111.141 58.8447L112.816 60.8369L112.91 60.9541L112.992 61.0947L114.234 63.4268L114.48 63.8721L114.398 64.3643L114.023 66.8838L113.988 67.0596L113.93 67.2236L112.98 69.5439L111.762 69.04L111.621 69.0869L110.168 69.4502L110.145 69.3447L110.027 68.876L110.203 68.4189L110.384 67.9688L109.107 66.1328L109.096 66.1094L109.084 66.0977L107.889 64.2812L106.084 63.5547L103.939 63.4258L101.795 63.8359L99.8848 64.9258L98.127 66.625L98.0918 66.6719L98.0449 66.707L95.9941 68.3828L95.9004 68.4648L95.7949 68.5234L93.5684 69.7773L91.5879 71.3711L91.3535 71.5586L91.084 71.6406L88.5293 72.4023L88.4355 72.4258L85.834 73.0234L85.5527 73.0938L85.2832 73.0469L82.6348 72.6719L82.5996 72.6602H82.5645L80.6738 72.2939L81.8887 73.3506L84.0449 74.2061H84.0566L86.5527 75.0146L86.5762 75.0264H86.6113L88.9785 75.8936L91.498 76.5498H91.4863L94.0293 77.0654L94.1582 77.0889L94.2871 77.1357L96.748 78.1318L96.9121 78.1904L97.0527 78.2959L99.1035 79.7256L101.424 80.9912L101.693 81.1436L101.881 81.3779L103.545 83.4756L103.568 83.5107L103.604 83.5576L105.115 85.7607L105.268 85.9834L105.338 86.2529L105.971 88.8428V88.8779L105.982 88.9014L106.498 91.4795L106.533 91.6201V91.7725L106.557 94.4209V94.5264L106.533 94.6436L106.146 97.292L106.088 97.667L105.865 97.9717L104.283 100.081L102.748 102.272L102.408 102.753L101.834 102.882L99.2441 103.433L98.8926 103.515L98.541 103.421L97.709 103.198L98.0957 101.745L98.1748 101.446L98.1465 101.436L96.7402 100.896L96.9629 100.311L97.0098 100.193L97.0684 100.088L98.2754 98.0137L98.873 95.8223L98.915 95.498L98.5547 95.5068L97.3359 95.542L97.0547 94.3701L96.4688 91.9795L96.2344 91.0068L97.043 90.4092L98.0791 89.6494L97.9473 89.2598L97.9023 89.2227L97.8906 89.2383L97.1992 90.0586L96.2148 89.6719L94.0117 88.8281L92.9336 88.4062L93.0625 87.2578L93.2402 85.6064L92.5 85.2305L92.4922 85.2695L92.2578 86.3711L91.1211 86.4531L88.7422 86.5938L87.3594 86.6875L87.1719 85.3047L87.001 84.1201L85.5645 83.667L85.2246 84.6445L84.7559 85.9922L83.3848 85.5938L81.1582 84.9258L80.0449 84.5977L80.0801 83.4375L80.127 82.1914L79.7246 82.0879L79.4902 82.0293L79.2793 81.8887L79.1846 81.8271L79.1797 81.8301L77.0586 82.709L75.9219 83.1777L75.2422 82.1699L73.9883 80.3184L73.7656 79.9785L73.7422 79.5801L73.625 77.9512L72.3594 76.5684L72.1582 76.4697L72.7305 78.4297L72.7656 78.5469L72.7773 78.6641L73.1172 81.3008L73.1406 81.4648L73.1172 81.6406L72.8359 84.2891V84.3008L72.5312 86.9258L72.2734 89.5391L72.2617 89.6328L72.2383 89.7266L71.6406 92.3047L71.6289 92.3516L71.6055 92.3984L70.9141 94.6602L71.043 97.0859L71.0547 97.168L71.043 97.2383L70.9258 99.6289L71.5117 101.844L72.2148 103.988L73.668 105.43L75.543 106.285L77.793 106.473L79.7617 106.426L81.2148 105.02L82.7617 103.191L83.9102 101.668L85.2227 99.8867L86.3828 101.773L86.4648 101.902L85.2344 102.652L85.9209 103.167L86.9355 102.119L87.4746 102.646L88.0957 103.244L87.8848 104.088L87.2402 106.689L87.1934 106.854L87.123 106.994L85.9629 109.326L85.8457 109.549L85.6582 109.736L83.7832 111.541L83.6426 111.682L83.4551 111.787L81.1816 113.018L81.1582 113.029L81.1465 113.041L78.7559 114.236L78.3457 114.447L77.9004 114.389L75.252 114.049H75.1934L72.6035 113.627L72.334 113.58L72.0879 113.439L69.8848 112.162L67.5293 110.92L67.1426 110.721L66.9316 110.357L65.6074 108.119L64.166 105.963L64.0723 105.834L64.0137 105.682L63.041 103.244L62.9941 103.139L62.9707 103.021L62.3613 100.455L62.3145 100.244L62.3262 100.033L62.4668 97.3848L62.3965 94.877V94.7246L62.4199 94.584L62.8535 92.123L62.7949 89.6152L62.7832 89.4043L62.8301 89.2051L63.4395 86.7207L63.6738 84.3418L63.4395 81.8574V81.8457L63.1348 79.291L62.7949 76.8184L61.998 74.5098L60.9082 72.2012L60.8379 72.0605L60.8027 71.9199L60.3604 70.1152L60.2812 70.249L59.1914 72.499L58.6406 74.9131V74.9248L58.6289 74.9365L57.9961 77.4912V77.5146L57.9844 77.5381L57.2812 79.9404L57.0352 82.3428L57.1992 84.8271V84.8506L57.3281 87.4756V87.5342L57.3516 89.9717L58.1016 92.3037L58.1602 92.4912L58.1719 92.6904L58.3008 95.2803L58.5234 97.9404L58.5352 98.1631L58.4883 98.3857L57.9258 100.987L57.4102 103.554L57.3867 103.659L57.3516 103.765L56.4375 106.249L56.4023 106.354L56.3555 106.437L55.1016 108.804L54.9492 109.097L54.6797 109.296L52.6523 110.831L50.7656 112.659L50.4961 112.917L50.1445 113.022L47.5781 113.784L47.5312 113.808L47.4844 113.819L44.8828 114.394L44.543 114.464L44.2031 114.382L41.625 113.749V113.737L39.0703 113.222L38.6953 113.151L38.4141 112.917L36.3398 111.206L36.1875 111.089L36.0703 110.925L34.5234 108.769L34.418 108.616L34.3477 108.452L33.1523 105.499L33.3047 104.995L33.8203 103.276L33.4746 102.795L33.9199 101.975V101.963L34.1182 102.069L34.2188 101.573L35.6953 101.866L36.2568 101.982L36.4746 101.834L36.6318 102.061L37.1602 102.171L37.0566 102.674L37.377 103.135L39.1348 104.916L40.7402 106.463L42.709 106.803L44.8652 106.533L46.916 105.561L48.6621 104.295L49.5996 102.326L50.2559 100.193L49.9863 97.8613L49.9746 97.7441V97.6387L50.0332 95.0723L49.6816 92.6699L49.002 90.2676L48.9902 90.1973L48.9668 90.127L48.498 87.5371L48.4746 87.4434V87.3379L48.334 84.7598L48.0879 82.1465V82.0527L48.0059 79.4043L47.9941 79.1582L48.0645 78.9355L48.7207 76.6504L48.7012 76.4229L47.7383 77.499L47.668 77.5811L47.5742 77.6514L46.8164 78.2686L47.3516 80.2363L47.7266 81.6426L46.332 82.0645L44.0352 82.7559L43.2734 82.9902L42.6641 82.4863L41.3555 81.4229L40.4492 81.7998L40.4375 81.8115L40.3535 81.8447L40.5215 83.4375L40.6738 84.8555L39.2676 85.0781L37.0527 85.418L36.0449 85.582L35.5293 84.7031L34.8496 83.5684L34.1221 83.6465L33.9863 85.375L33.8574 87.0391L32.2168 86.7227L29.9434 86.3008L29.252 86.1719L28.9121 85.5742L28.6299 85.083L27.7695 85.2451L27.6338 85.3223L28.0762 87.1406L28.4277 88.5586L27.0098 88.9453L24.666 89.5547L24.1387 89.6953L23.6465 89.4609L22.8027 89.0635L22.5859 89.3477L24.1309 90.4209L25.0215 91.042L24.7051 92.085L24.002 94.417L23.7793 95.1553L23.0527 95.4014L21.3604 95.9932L21.3594 96.0029L22.4375 97.8545L22.4609 97.8896L22.4727 97.9248L23.6562 100.269L23.666 100.29L23.7461 100.333L24.4023 100.673L23.6992 101.997L23.0898 103.122L23.1016 103.157H23.0781L22.9961 103.321L22.7031 103.169L20.5 103.251L19.9258 103.274L19.4922 102.923L17.4883 101.282L17.4531 101.259L17.418 101.224L15.4609 99.4307L15.0977 99.0908L15.0039 98.5869L14.5234 95.9619L14.5352 95.9502L14.0195 93.4424L13.9844 93.2666V93.1025L14.0547 90.4775V90.3252L14.0898 90.1846L14.6758 87.6064L14.7344 87.3604L14.8633 87.1377L16.2812 84.8994L17.6523 82.6963L17.7695 82.4971L17.9453 82.3447L19.9375 80.6455L21.8477 78.876L22.0938 78.6533L22.3984 78.5479L24.9297 77.7158H24.9531L24.9766 77.7041L27.4258 76.9658L29.9336 76.1104L30.0508 76.0635L32.6172 75.4307L32.6406 75.4189H32.6758L35.1016 74.915L37.3398 73.9658L39.4258 72.6182L39.4492 72.5947L39.4844 72.583L39.8828 72.3457L38.1973 72.543L35.584 72.8945L35.3965 72.918L35.1973 72.8945L32.5605 72.5547L32.3262 72.5195L32.1152 72.4258L29.7012 71.3008L29.6426 71.2656L29.584 71.2422L27.3105 69.918L27.2754 69.9062L27.252 69.8828L25.0137 68.4531L24.8965 68.3828L24.8027 68.3008L22.8574 66.5078L22.7988 66.4492L21.1699 64.7617L18.9902 63.9766H18.9785L16.9395 63.3438L14.9707 63.7305L13.0957 64.5273L11.7949 66.3438L10.4756 68.2539L10.4141 68.4072L10.3789 68.501L10.3213 68.4775L9.3457 69.8945L8.08008 68.4531L8.00977 68.3828L8.10059 68.3018L7.67188 68.5127L6.54688 66.2041L6.27734 65.6416L6.47656 65.0557L7.33203 62.5713L7.35547 62.4893L7.39062 62.4189L8.49219 60.0283L8.59766 59.8174L8.75 59.6533L10.5547 57.6846L10.7305 57.4854L10.9766 57.3564L13.3555 56.1494L13.4727 56.0791L13.6133 56.0439L16.1328 55.3057L16.2617 55.2588L16.4023 55.2471L19.0391 54.9775L19.2969 54.9424L19.543 55.001L22.1328 55.6221L22.3672 55.6807L22.5664 55.7979L24.6875 57.0869L27.1016 58.2236L27.3008 58.3057L27.4648 58.458L29.3281 60.1104L31.4727 61.4463L31.4844 61.458L33.4297 62.6885L35.4336 62.958L37.5312 62.5244L39.5586 61.3408L40.9326 60.5381L39.9883 60.7578L39.8359 60.793H39.6719L37.0469 60.8281H36.8945L36.7539 60.8047L34.1523 60.3242L33.8711 60.2656L33.625 60.1133L31.3984 58.707L31.375 58.6836L31.3516 58.6719L29.207 57.1836L28.9727 57.0195L28.8203 56.7852L27.3789 54.6172L27.332 54.5469L25.9844 52.25L25.7852 51.9102V51.5117L25.7383 48.8516V48.7578L25.75 48.6641L26.0195 46.0742V46.0391L26.0312 46.0039L26.4062 43.4258L26.7227 40.9062L26.5703 38.832L25.5039 37.2148L23.7109 36.1719L21.4375 35.3633L19.1758 34.9766L18.8359 34.918L18.5547 34.7188L18.4727 34.6602L19.3516 33.4414V33.3486L18.3789 32.4111L20.1133 30.6182L20.5117 30.208L21.0859 30.1611L23.7227 29.9736H26.7461L27.0156 30.0791L29.5 31.0752L29.793 31.1924L30.0156 31.415L31.8789 33.3135L32.0078 33.4424L32.1016 33.6064L33.4375 35.8682L33.5195 36.0088L33.5664 36.1611L34.3867 38.6924L34.457 38.915V39.1611L34.4453 41.8213V41.9502L34.4219 42.0791L33.9883 44.4697L34.1875 46.8604L34.4805 48.8994L35.7461 50.165L37.457 51.0791L39.3672 50.915L41.2422 50.0127L42.7656 48.4189L44.1836 46.7432L44.4414 44.54V44.5049L44.4531 44.4814L44.793 42.1494L44.3477 39.8291L44.3359 39.7822L44.3242 39.7471L43.9961 37.3799L42.8008 35.3291L42.707 35.165L42.6484 34.9893L41.9219 32.4346L41.9102 32.3994L41.8984 32.3525L41.3125 29.7744L41.3008 29.7041L41.2891 29.6455L40.9258 27.0205L40.9023 26.8096L40.9258 26.5986L41.2891 24.1025L41.4531 21.4658L41.4648 21.3018L41.5117 21.1377L42.2383 18.6064L42.2969 18.4072L42.4023 18.2432L43.7148 16.0518L44.8047 13.7197L44.9102 13.4854L45.0859 13.3096L46.9258 11.3994L46.9961 11.3174L47.0781 11.2588L49.1523 9.62988H49.1641L51.25 8.0127L51.3906 7.90723L51.543 7.8252L53.957 6.73535L54.168 6.6416L54.3906 6.60645L56.875 6.30176L59.3594 5.56348L59.7227 5.45801L60.0977 5.54004ZM57.6367 9.20801L57.5195 9.24316L57.4023 9.25488L55 9.54785L52.9492 10.4736L50.9922 11.9854L51.0039 11.9971L48.9883 13.5557L47.418 15.1963L46.4219 17.3877L46.3867 17.4697L46.3398 17.54L45.0508 19.6494L44.4414 21.7939L44.2891 24.2783V24.3369L44.2773 24.4072L43.9258 26.8213L44.2422 29.1064L44.8047 31.6143L45.4727 33.958L46.7383 36.1377L46.8906 36.3955L46.9258 36.6885L47.2891 39.2432L47.793 41.8213L47.8398 42.0791L47.8047 42.3369L47.418 44.9268L47.4062 44.915L47.125 47.5166L47.0781 47.9736L46.7852 48.3135L45.0625 50.3525L45.0391 50.3877L45.0039 50.4229L43.2227 52.2861L43.0352 52.4854L42.7891 52.6025L40.4336 53.7275L40.1875 53.8447L39.918 53.8799L37.293 54.1143L36.8477 54.1611L36.4492 53.9385L34.1523 52.708L33.9648 52.6025L33.8125 52.4502L32.0195 50.6689L31.668 50.3174L31.5859 49.8252L31.2227 47.2939L31.2109 47.2471V47.2002L30.9883 44.5518L30.9648 44.3643L31 44.165L31.4453 41.6689V39.3838L30.7656 37.2393L29.6172 35.2939L28.082 33.7354L26.1602 32.9736H23.9336L23.71 32.9883L24.8008 33.3711L24.9414 33.418L25.0586 33.4883L27.332 34.8008L27.6367 34.9883L27.8242 35.2812L29.3008 37.5195L29.5117 37.8477L29.5469 38.2461L29.7227 40.9062L29.7344 41.0469L29.7109 41.1992L29.3828 43.8008V43.8359L28.9961 46.3672L29.0078 46.3789L28.7383 48.8281L28.7734 51.0781L29.875 52.9648L31.1523 54.8867L33.0625 56.1992L34.9727 57.418L37.1641 57.8164L39.5078 57.793L41.8984 57.2422L42.4141 57.125L42.8965 57.3662L43.625 56.9814L44.1416 57.9629L44.3242 58.0508L44.2588 58.1855L44.3281 58.3174L44.7734 59.1729L44.9258 59.2314L44.8672 59.3604L45.0195 59.6416L44.9209 59.6924L45.1445 59.7852L45.0625 59.9727L44.4531 61.4375L44.2012 61.3154L44.0352 61.7979L43.8594 62.3252L43.3672 62.6064L41.0586 63.9307L38.832 65.2432L38.6211 65.3604L38.3867 65.4189L35.832 65.958L35.5742 66.0049L35.3164 65.9814L32.7031 65.6182L32.375 65.583L32.0938 65.3955L29.8672 63.9775V63.9658L27.6641 62.6064L27.5469 62.5361L27.4531 62.4541L25.6484 60.8486L23.4219 59.8057L23.3398 59.7705L23.2695 59.7354L21.2188 58.4814L19.0742 57.9775L16.8125 58.2119L14.5742 58.8799L12.582 59.8994L11.1055 61.5049L10.2627 63.3408L10.916 62.4414L11.1621 62.1133L11.5371 61.9492L13.9395 60.918L14.0801 60.8477L14.2441 60.8242L16.752 60.332L17.127 60.2617L17.4902 60.3672L19.9512 61.1406L20.0215 61.1641L22.5293 62.0781L22.8457 62.1953L23.0918 62.4414L24.8848 64.293L26.7363 65.9922L28.7988 67.3164L30.9785 68.582L33.1582 69.6016L35.3848 69.8828L37.8105 69.5781H37.834L40.459 69.2617H40.4824L40.5059 69.25L42.7803 69.0654L42.8477 69.0205L42.9297 68.9619L42.9863 69.0469L43.0371 69.0391H43.2012L43.1982 69.3672L43.7617 70.2158L43.8555 70.3564L45.0156 70.9541L43.8672 73.2158L43.668 73.6025L43.2812 73.8252L41.0078 75.1729L40.9961 75.1611L38.8398 76.5674L38.7344 76.6494L38.6055 76.6963L36.1562 77.7275L36.0273 77.7861L35.8867 77.8096L33.332 78.3252L33.3438 78.3369L30.8359 78.958L28.4102 79.8018L28.3867 79.8135L28.3516 79.8252L25.832 80.5752L23.6406 81.29L21.9297 82.8838L21.8828 82.9307L20.0547 84.4893L18.8242 86.4932L18.8125 86.5049L17.5234 88.5322L17.043 90.7119L16.9844 92.9854L17.4766 95.3994V95.4346L17.8633 97.5439L19.4336 98.9971L19.8242 99.3154L18.5 97.0459L18.2305 96.5889L18.3125 96.0615L18.7227 93.5303L18.8398 90.999L18.8516 90.7646L18.9336 90.542L19.8477 88.0928L19.9297 87.8818L20.0703 87.7061L21.6406 85.6553L21.793 85.4561L21.9922 85.3271L24.1133 83.8975L24.207 83.8506L26.5039 82.5264L26.7266 82.4092L26.9727 82.3506L29.4219 81.8818L31.7422 80.9443L31.9414 80.8623L32.1523 80.8389L34.6133 80.5811L36.9453 79.9834L39.2891 79.0342L41.5742 78.0732L43.7188 76.9131L45.6055 75.3779L47.2695 73.5264L47.4336 73.3506L47.6211 73.2334L49.4375 72.1553L50.2461 70.2686L50.375 69.9756L50.5977 69.7529L50.6797 69.6943L51.6992 70.7842L51.8516 70.9482L53.0117 71.4404L52.0156 73.7842L51.8164 74.2412L51.541 74.4092L51.7441 76.6738L51.7676 76.9551L51.6855 77.2246L51.0059 79.5098L51.0879 81.959L51.3223 84.4902V84.5488L51.4512 87.0801L51.8965 89.4473L52.6113 92.002L52.6348 92.0957L52.6465 92.1895L53.0332 94.8145L53.0449 94.9434V95.0723L52.9746 97.6152L53.2793 100.158L53.3262 100.475L53.2324 100.779L52.4355 103.322L52.4121 103.439L52.3652 103.533L51.1934 105.947L51.0293 106.299L50.7246 106.521L48.5566 108.092L48.3223 108.232L45.9551 109.346L45.7324 109.451L45.498 109.486L42.873 109.814L42.6387 109.838L42.416 109.803L39.7676 109.334L39.3105 109.252L38.9824 108.936L37.0605 107.072L37.0371 107.061L37.001 107.024L37.043 107.128L38.3789 109.003L40.0078 110.351L42.293 110.819L42.3164 110.831H42.3516L44.5664 111.382L46.7227 110.901L48.9258 110.245L50.6016 108.64L50.6602 108.581L50.7422 108.522L52.6055 107.104L53.6602 105.124L54.4922 102.815L54.9844 100.366H54.9961V100.354L55.5117 97.9404L55.3125 95.5381L55.3008 95.5146V95.4795L55.1719 93.0186L54.4336 90.6631L54.3633 90.4521V90.2295L54.3281 87.6162L54.2109 85.0146L54.0469 82.3779L54.0352 82.2607L54.0469 82.1318L54.3281 79.5068L54.3398 79.3779L54.375 79.249L55.1016 76.7178L55.7227 74.21L56.3203 71.6436L56.3555 71.4795L56.4375 71.3389L57.5859 68.9482L57.6094 68.8896L57.6445 68.8311L58.8867 66.71L59.5029 67.0771L60.2168 66.8105L60.6152 66.6699L61.5059 66.0723L62.877 68.1465L63.0176 68.3691L63.0879 68.6152L63.6855 71.0645L64.752 73.3145L64.7871 73.3848L64.8105 73.4551L65.6895 75.9629L65.7363 76.1035L65.7598 76.2559L66.1113 78.8926V78.916L66.4277 81.5293V81.5645L66.6855 84.2129L66.6973 84.3535L66.6855 84.5059L66.416 87.1426L66.4043 87.248L66.3809 87.3535L65.7832 89.7559L65.8652 92.2051V92.3574L65.8418 92.5098L65.3965 94.9473L65.4668 97.4316V97.5488L65.3262 99.9746L65.8652 102.248L66.7207 104.381L68.1504 106.525L69.2871 108.471L71.2793 109.502L71.3027 109.514L71.3379 109.537L73.3418 110.697L75.6152 111.072L77.8184 111.354L79.7871 110.357L81.8262 109.244L83.3848 107.744L84.1738 106.174L83.4414 107.047L83.3242 107.164L81.4141 109.004L80.9922 109.402L80.4062 109.414L77.7461 109.484H77.6758L77.5938 109.473L75.0273 109.262L74.7578 109.238L74.5117 109.133L72.1445 108.031L71.9102 107.914L71.7227 107.727L69.8477 105.863L69.6016 105.617L69.4844 105.277L68.6641 102.781L68.6406 102.734L68.6289 102.688L67.9727 100.168L67.9258 99.957V99.7227L68.0547 97.168L67.9023 94.5898L67.8906 94.3203L67.9609 94.0625L68.7227 91.6133L69.2969 89.1641L69.543 86.5977V86.5859L69.5547 86.5742L69.8594 83.9492L70.1172 81.5117L69.8125 79.168L69.1094 76.7188L69.0273 76.4258L69.0625 76.1328L69.2969 73.9766L68.2773 72.1953L68.1367 71.9609L68.1016 71.6914L68.0781 71.5859L69.5664 71.3516L69.8008 71.3164L70.8789 70.707L72.1445 72.9219L72.293 73.1895L74.2227 74.1543L74.4102 74.3535L76.1914 76.3223L76.543 76.709L76.5605 76.9678L78.5645 77.8691L78.6816 77.916L78.7754 77.9746L80.6973 79.2402L82.0674 79.5928L82.0723 79.582L82.166 79.6172L82.1777 79.6211L83.0645 79.8496L83.0762 79.8613L83.6562 80.0146L83.6777 79.957L83.9736 80.0986L85.5957 80.5293L85.666 80.5527L88.1035 81.3145L88.5293 81.3896L88.5664 81.2383L88.6602 81.2617L89.6562 81.4961L89.6689 81.5938L90.1934 81.6865L90.3125 81.1328L91.9277 82.0205L93.1895 82.2754L93.3887 82.3223L93.5762 82.416L95.9199 83.6113L96.0957 83.7051L96.2363 83.834L97.5479 85.0088L97.8086 84.7031L98.541 85.8691L100.186 87.2207L100.502 87.4902L100.643 87.8887L101.318 89.8535L101.367 89.8467L101.379 89.9404L101.407 90.1123L101.51 90.4082L101.533 90.4785L101.545 90.5605L101.978 92.4248H102.012V92.5713L102.154 93.1855L102.213 93.4434L102.178 93.7129L101.85 96.2559L101.838 96.3613L101.814 96.4668L101.123 98.998L101.076 99.1973L100.971 99.373L100.555 100.075L100.639 100.058L101.846 98.3584V98.3467L101.857 98.335L103.217 96.4717L103.545 94.292L103.533 91.9014L103.053 89.5576L102.479 87.2139L101.189 85.3389L99.7246 83.4756L97.6504 82.3506L97.5684 82.3154L97.498 82.2686L95.459 80.8389L93.3145 79.9834L90.8301 79.4678H90.7949L90.7598 79.4561L88.2051 78.7998L88.0645 78.7529L85.5801 77.8506V77.8389L83.1309 77.0654L83.084 77.0537L83.0488 77.0303L80.5762 76.0693L80.3301 75.9756L80.1309 75.7998L78.127 74.0537L77.9512 73.8896L77.8223 73.6787L76.7012 71.7598L76.377 71.5352L77.2441 70.3164L77.6895 69.6719L77.7129 69.1094L78.0762 69.1211L78.1113 69.0859L78.1582 69.1211L80.3145 69.1914L80.4316 69.2031L80.5488 69.2266L83.0684 69.6953L85.4238 70.0352L87.6738 69.5078L89.9473 68.8281L91.8105 67.3633L91.9043 67.293L91.998 67.2344L94.2012 65.9688L96.0527 64.457L97.9629 62.6289L98.0918 62.5L98.2559 62.418L100.541 61.1055L100.764 60.9766L101.01 60.9297L103.576 60.4492L103.752 60.4141L103.939 60.4258L106.506 60.5781L106.752 60.5898L106.975 60.6836L109.436 61.668L109.678 61.7637L108.891 60.8369L107.203 59.3369L105.258 58.4463L102.984 58.2588L100.594 58.3877L98.4375 58.7979L96.6211 60.2158L96.5625 60.2627L96.5039 60.2979L94.3594 61.6807L92.4609 63.333L92.2969 63.4736L92.0977 63.5674L89.6719 64.6689L89.625 64.6924L89.5781 64.7041L87.1172 65.6299L86.9062 65.7119L86.6719 65.7236L84.0352 65.8643L83.8125 65.876L83.6016 65.8291L80.9883 65.208L80.625 65.126L80.3438 64.8799L78.375 63.1455L76.2422 61.6104L75.7969 61.3057L75.6562 60.7783L75.2227 59.1025L75.0469 58.4346L75.2178 58.1855L74.7832 57.1064L77.4082 57.54L79.5645 57.9033L82.0957 58.0205L84.4277 57.751L86.8066 56.9893L88.8926 56.1572L90.4512 54.5283L91.7051 52.7471L92.0098 50.4619L92.0215 50.4385V50.4033L92.4316 48.0127L92.1504 45.6689L91.5059 43.2666L91.459 43.1025L91.4473 42.9268L91.3652 40.29L91.3535 39.9736L91.4707 39.6807L92.4434 37.2783L92.5254 37.0557L92.6777 36.8799L94.3066 34.9111L94.4824 34.7119L94.7051 34.5713L96.9902 33.2236L97.1338 33.1367L95.7344 32.9385L93.6953 33.3369L91.8203 34.415L90.332 35.9385L89.3828 37.8604L88.9258 40.1338L88.8086 42.583L89.0547 45.0791L89.3828 47.6572L89.418 47.9854L89.3242 48.3018L88.5156 50.8682L88.3516 51.3721L87.9062 51.665L85.7031 53.1182L85.4688 53.2705L85.2109 53.3291L82.7031 53.9033L82.4102 53.9736L82.1172 53.915L79.5977 53.4814L79.3516 53.4346L79.1289 53.3057L76.8789 52.0518L76.6914 51.9463L76.5391 51.8057L74.5117 49.7783L74.4062 49.5439L73.2578 47.1885L73.1641 47.001L73.1289 46.8018L72.6719 44.2236L72.6367 44.0713L72.6484 43.9189L72.707 41.3057V41.2119L72.7188 41.1299L73.082 38.5283L73.0938 38.3994L73.1406 38.2822L73.9492 35.7627L74.7695 33.2549L74.793 33.1846L74.8281 33.1143L75.8008 30.8877L76.1055 28.4502V28.4385L76.4219 26.0479L75.9766 23.6689V23.6221L75.5781 21.1025L74.8633 18.8525L73.832 16.6377L72.4727 14.7275L70.6797 13.04L70.6211 12.9814L68.9219 11.2002L67.0117 10.0752L64.6094 9.52441H64.5977L62.1016 9.04395H62.0781L59.8398 8.55176L57.6367 9.20801ZM110.47 62.7354L110.414 62.6299L110.355 62.5605L110.47 62.7354ZM69.5078 36.2539L70.1875 36.4883L70.4219 37.168L71.2773 39.582L71.4766 40.1445L71.2422 40.6836L70.1992 43.0273L69.9648 43.5547L69.4375 43.7891L67.3516 44.7383L66.2852 45.2188L65.5586 44.293L63.9883 42.3125L63.4727 41.6797L63.7422 40.9062L64.5977 38.3984L64.7383 37.9648L65.1016 37.6953L67.0469 36.1953L67.8906 37.2969H67.9141L67.9961 37.2617L68.4766 35.8789L69.5078 36.2539ZM54.4746 36.1719L55.0137 36.3359L55.3184 36.8047L56.7246 38.9844L56.9941 39.418L56.9473 39.9219L56.7363 42.418L56.666 43.2148L55.9746 43.6016L54.0527 44.668L53.1504 45.1836L52.3535 44.5156L50.3848 42.8516L49.8691 42.418L49.8574 41.7383L49.7988 39.1016L49.7871 38.4688L50.2324 38.0117L51.9199 36.3242L52.9043 37.2969H52.9277L52.998 37.25L53.4082 35.8555L54.4746 36.1719ZM52.7988 39.6758L52.8223 40.9883L53.4902 41.5391L53.8066 41.3633L53.9121 40.168L53.2793 39.1953L52.7988 39.6758ZM67.2812 39.793L66.8359 41.082L67.1758 41.5156L67.6797 41.2812L68.2539 40.0156L67.9844 39.2539L67.2812 39.793Z" fill="black"/>
</svg>
