<svg width="120" height="120" viewBox="0 0 120 120" fill="none" xmlns="http://www.w3.org/2000/svg">
<path d="M60.8486 36.3477L63.4619 36.8633L63.6494 36.8984L63.8252 36.9922L66.0869 38.0938L68.5479 38.7969L68.8877 38.9023L69.1455 39.1367L71.1143 40.9414H71.1025L73.0596 42.6875L73.083 42.7109L73.1182 42.7344L75.0518 44.668L76.8096 46.6367L76.8447 46.6719L76.8682 46.707L78.4971 48.793H78.4854L80.1377 50.8672L80.2666 51.0547L80.3486 51.2656L81.251 53.5742L82.7041 55.5664L82.7861 55.6836L82.8564 55.8242L83.9111 58.1562L85.1885 60.4297L85.2588 60.5586L85.3057 60.6875L86.0908 63.0781L87.3213 65.2461L87.3682 65.3164L88.1172 66.8145L89.8623 66.4297L91.8076 65.0234L91.9717 64.9062L92.1709 64.8359L94.5732 63.9336L96.6943 62.7383L98.9443 61.3555H98.9561L101.218 59.9961L101.265 59.9727L103.562 58.6719L105.8 57.3359L106.011 57.207L106.245 57.1602L108.718 56.5977L111.038 55.6133L111.39 55.4609L111.776 55.4961L114.331 55.7656L114.929 55.8242L115.327 56.293L116.968 58.2734L117.354 58.7305L117.308 59.3398L117.12 61.9531L117.073 64.5312V64.5898L117.062 64.6484L116.804 67.2852L116.78 67.4609L116.722 67.625L115.878 70.0742L115.397 72.5352L115.386 72.582L115.374 72.6406L114.683 75.1836L113.979 77.7266V77.75L113.968 77.7617L113.218 80.2109L112.726 82.7539L112.714 82.7891L112.702 82.8359L112.034 85.3906L112.022 85.4492L111.999 85.5078L111.144 87.9453L110.37 90.4766L110.358 90.5117L110.335 90.5469L109.468 92.8906L108.882 95.4336L108.87 95.457V95.4805L108.179 97.9648L108.19 97.9766L107.616 100.402L107.265 103.027L107.253 103.156L107.206 103.273L106.456 105.723L106.081 108.207L105.952 110.715L105.87 113.316V113.363L105.858 113.422L105.771 114.242H105.816L105.969 114.266L108.406 114.746L110.809 114.5L110.891 114.488H110.973L112.016 114.5L112.004 116L111.98 117.5L110.984 117.488L108.477 117.746L108.254 117.77L108.031 117.734L105.57 117.242L103.145 117.254L100.648 117.688L100.496 117.711L100.332 117.699L97.6953 117.594H97.625L97.5547 117.582L95.1523 117.242L94.5215 117.365V117.946L93.1914 117.626L92.7617 117.711L92.5273 117.758L92.293 117.734L89.7383 117.406L87.207 117.418L87.1953 117.406L84.6055 117.488H84.5938L81.957 117.547H81.9336L79.3672 117.559L79.3789 117.57L76.7422 117.746L76.5547 117.758L73.9297 117.266L71.5391 117.547L71.4102 117.559H71.2812L68.7266 117.418L66.1719 117.582H66.043L65.9141 117.57L63.418 117.289L60.957 117.559H60.8867L58.25 117.711L58.0977 117.723L57.957 117.699L55.4141 117.348L52.9062 117.406H52.8477L50.2109 117.348V117.336H48.0508L46.7383 117.477L46.5859 117.488L46.5684 117.317L44.9492 117.289L42.4531 117.512L42.418 117.523H42.3711L39.7344 117.617H39.6172L36.9805 117.512V117.5L34.3906 117.488H34.3438L34.2969 117.477L31.7188 117.301L29.1875 117.43H29.1055L26.4688 117.418V117.406L23.9609 117.43L21.3242 117.664L21.1836 117.676L21.0312 117.664L18.5 117.383L15.9219 117.395V117.383L13.3789 117.559H13.3672L13.3555 117.57L10.707 117.688L10.6133 117.699L10.5312 117.688L7.98828 117.5L8 117.277V114.5H8.21094L10.6719 114.699L13.1797 114.582V114.57L14.5693 114.478L14.5586 113.333L13.75 111.036L13.668 110.813L13.6562 110.579L13.5859 108.024L13.1289 105.622L12.5312 103.067L11.8984 100.513L11.2422 97.958V97.9463L10.4453 95.5439L10.3867 95.3682L10.375 95.1807L10.1875 92.7314L9.27344 90.4932L9.22656 90.376L9.20312 90.2588L8.62891 87.7627L7.79688 85.3486L7.75 85.2197L7.72656 85.0908L7.32812 82.6299L6.41406 80.3096L6.39062 80.2393L5.55859 77.7197L5.5 77.5791L5.48828 77.4268L5.18359 74.8369L4.55078 72.4346L4.53906 72.3994L4.52734 72.3525L4.01172 69.7627H4L3.49609 67.1729L3.48438 67.1494V67.1143L3.07422 64.583L2.54688 61.9932L2.52344 61.8525V61.7236L2.46484 59.0635L2.45312 58.4775L2.83984 58.0439L4.53906 56.1104L4.99609 55.583L5.6875 55.5947L8.30078 55.6416H8.59375L8.86328 55.7588L11.2891 56.79L11.2773 56.8018L13.6914 57.6807L13.7617 57.7041L13.832 57.7393L16.1992 58.8994L16.2109 58.9111H16.2344L18.5078 60.0947L20.9219 61.208L21.0625 61.2666L21.1914 61.3604L23.2422 62.8955L25.3281 64.0674L27.6953 65.1104L30.1562 66.0596L30.1797 66.0713L30.2148 66.083L31.79 66.7832L31.9502 66.4883L32.8291 64.0859L32.8525 64.0039L32.8877 63.9336L34.0596 61.5547L35.0439 59.1992L35.0791 59.1172L35.126 59.0469L36.3799 56.8086L37.4111 54.4648L37.4814 54.2891L37.5986 54.1484L39.1221 52.1562L40.5049 49.918L41.6064 47.6445L41.6885 47.4805L41.7939 47.3398L43.4932 45.3008L43.5869 45.1953L43.6924 45.1016L45.6143 43.5195L47.2666 41.5625L47.4072 41.3867L47.6064 41.2578L49.833 39.8281L51.8838 38.2812L52.1533 38.082L52.4814 38.0117L55.1182 37.4727L57.5908 36.8984L57.6143 36.8867H57.6377L60.251 36.3477L60.5439 36.2891L60.8486 36.3477ZM68.3164 60.8662L68.4453 63.1045L68.6211 65.7412V65.835L68.6445 68.4717V68.5654L68.6328 68.6475L68.3516 71.1318L68.5742 73.6396V73.7451L68.6094 76.3936V76.417L68.5977 79.0537H68.5859L68.7148 81.6201V81.7959L68.5273 84.3389L68.5039 86.9873V87.0342L68.3984 89.6709L68.4922 92.1201L68.7266 94.7686V94.9209L68.6797 97.5576L68.668 100.171V100.347L68.6211 100.522L68.3838 101.471L70.6797 102.301L71.0547 102.43L71.3008 102.723L73.0586 104.703L73.1992 104.855L73.293 105.055L74.3828 107.387L74.4648 107.551L74.5 107.727L75.0273 110.305L75.0508 110.422L75.0625 110.527L75.1914 113.176L75.2031 113.281L75.1914 113.375L75.1035 114.431L76.7305 114.734L78.2158 114.642L78.1904 113.617V113.547L78.249 110.898L78.2607 108.285V108.273L78.3076 105.789L78.085 103.152L78.0732 103.105V103.07L77.9795 100.434V100.316L78.085 97.6797L78.1084 95.0781V94.9961L78.2959 92.418L78.167 89.8867V89.8047L78.1787 87.1914L78.1553 84.6602L77.9326 82.0234L77.9209 81.8828L77.9326 81.7305L78.2139 79.1992L78.2021 76.7148L78.0264 74.0781V74.0547L77.8975 71.4062L77.874 71.1016L77.9912 70.8086L78.8838 68.4424L78.5713 68.0869L78.5596 68.0752V68.0635L76.9775 66.2002L75.126 64.3955L73.1338 62.8721L73.1104 62.8486L71.1182 61.2314L69.0322 60.0361L68.7832 59.9072L68.3164 60.8662ZM54.8477 103.508L52.5625 103.977L50.6406 105.008L49.293 106.578L48.4023 108.5L48.1914 110.715L48.1562 113.352V113.363L48.1299 114.348H50.2695L52.8711 114.406L55.4844 114.348H55.6133L55.7305 114.359L58.2148 114.723L58.3105 114.716L58.5342 112.521L58.5225 110.13L58.3467 107.493V107.47L58.2178 104.821V104.646L58.3076 103.428L57.2148 103.297L54.8477 103.508ZM94.2988 95.5283L94.3809 97.708L94.5566 100.345L94.5684 100.392V100.438L94.5801 103.075V103.169L94.5684 103.251L94.2871 105.712L94.5098 108.243V108.36L94.5449 110.997V111.021L94.5215 113.657V114.326L94.8359 114.266L95.082 114.219L95.3164 114.254L97.8945 114.605L99.3799 114.671L99.3564 113.434L98.7471 111.09L98.0088 108.547L97.9971 108.5V108.465L97.3994 105.898L97.376 105.758L97.0244 103.262L96.1807 100.953L96.1572 100.906L96.1455 100.859L95.4072 98.3281L95.3955 98.3164V98.3047L94.7627 96.0078L94.3486 95.4453L94.2988 95.5283ZM25.3779 94.8701L24.8271 96.9443L24.8389 96.9561L24.2998 99.5459V99.5928L24.2881 99.6279L23.6084 102.183L23.5967 102.253L23.5615 102.335L22.6709 104.655L22.2959 107.128V107.175L22.2842 107.222L21.7334 109.788L21.1826 112.378L20.8672 114.623L21.2305 114.664L23.7148 114.453L23.7617 114.441H23.8203L25.9756 114.422L25.9268 112.812V112.754L25.9385 112.684L26.0791 110.141L25.915 107.598L25.9033 107.504L25.915 107.422L26.0322 104.914L25.7041 102.406L25.6924 102.242L25.7041 102.066L25.9502 99.4766L25.8564 97.0391L25.7041 94.6719L25.6689 94.5908L25.3779 94.8701ZM80.8975 71.5703L81.0146 73.8789L81.1904 76.5156L81.2021 76.5625V76.6094L81.2139 79.2461V79.3398L81.2021 79.4219L80.9209 81.8711L81.1436 84.4023L81.1553 84.4609V84.5195L81.1787 87.1562V87.1914L81.167 89.8281L81.2842 92.3828L81.2959 92.4766L81.2842 92.5586L81.1084 95.1953L81.085 97.75V97.7969L80.9795 100.434L81.0732 102.883L81.3076 105.52V105.684L81.2607 108.32L81.249 110.945V110.969L81.1904 113.605L81.2148 114.562L81.8867 114.559V114.547L84.5234 114.488L87.1602 114.418H87.1953L89.832 114.406H89.9375L90.0312 114.418L91.5215 114.614V113.646L91.5449 111.032L91.5098 108.384L91.5215 108.372L91.2988 105.853L91.2871 105.712L91.2988 105.571L91.5801 103.028L91.5684 100.556L91.3809 97.9189V97.8604L91.2871 95.2002L91.2637 94.7549L91.498 94.3682L92.7627 92.293L92.4189 91.1914L92.3838 91.0625L92.3721 90.9336L92.0674 88.4258L91.3994 86.1055L90.4033 83.8672L89.1846 81.5234L89.1025 81.3477L89.0557 81.1602L88.7686 79.9316L86.8799 78.4463L86.7041 78.3057L85.0635 76.0088V75.9971L83.4463 74.04L83.4229 74.0166L83.3994 73.9814L81.876 71.9424L81.1045 71.0273L80.8975 71.5703ZM61.3145 103.456L61.2178 104.681L61.335 107.294L61.5107 109.931L61.5225 109.978V110.024L61.5342 112.661V112.743L61.5225 112.825L61.3506 114.5L63.2891 114.289L63.4414 114.277L63.6055 114.289L66.0898 114.582L68.6328 114.43L68.7148 114.418L68.7969 114.43L71.3281 114.559L72.082 114.47L72.1914 113.199L72.0625 110.832L71.582 108.477L70.6562 106.508L69.3086 104.996L67.1758 104.234H67.1641L64.8789 103.66L62.4766 103.32L61.3145 103.456ZM36.9658 73.2578L35.5947 75.4375H35.583V75.4492L34.1416 77.6523L33.9775 77.9102L33.7197 78.0859L31.5635 79.5391L31.5586 79.542L31.5986 79.8125L31.376 80.2578L30.1924 82.4609L29.3252 84.875L29.29 84.9922L29.2314 85.0977L28.0596 87.1953L27.8018 89.4453L27.8135 89.457L27.6846 91.707L28.5635 93.7227L28.6572 93.957L28.6807 94.2148L28.8564 96.8281V96.8867L28.9502 99.5234V99.6172L28.9385 99.7227L28.7041 102.207L29.0322 104.656L29.0439 104.797V104.926L28.9033 107.469L29.0791 110.035L29.0908 110.129L29.0791 110.223L28.9268 112.859L28.9775 114.429L29.0469 114.43L31.6953 114.312L31.7773 114.301L31.8594 114.312L34.5078 114.488L34.4961 114.5L37.0508 114.512H37.0977L38.8105 114.581L39.0674 112.407L38.6924 110.028L38.6689 109.876L38.6807 109.712L38.8447 107.251L38.5166 104.708L38.4932 104.485L38.5283 104.274L38.9619 101.767L38.8916 99.4111L38.3994 96.8916L38.3643 96.7393V96.5752L38.4229 93.9385V93.8682L38.4346 93.7979L38.7158 91.3838L38.2002 88.9932L38.1533 88.7588L38.1768 88.5127L38.4697 85.9814L38.4229 83.4619L38.3174 80.8252V80.8135L38.2354 78.1768V78.1533L38.1885 75.5049L38.2002 75.4932L38.0127 72.9502L37.9893 72.7627L38.0244 72.5752L38.2363 71.4297L36.9658 73.2578ZM50.1182 60.1064L48.3369 61.4072L46.5088 63.1768L46.415 63.2705L46.2979 63.3408L44.2588 64.7119L42.6299 66.5518L41.4697 68.1221L41.4932 70.1846V70.3369L41.4697 70.4775L41.0127 72.9268L41.1885 75.376V75.458L41.2354 78.083L41.3174 80.708L41.4229 83.3447V83.3799L41.4697 86.0166V86.1104L41.458 86.2158L41.1885 88.6182L41.6924 91.0088L41.7393 91.2432L41.7158 91.4893L41.4229 93.9971L41.3643 96.458L41.8447 98.9541L41.8682 99.0713L41.8799 99.1885L41.9619 101.825V101.978L41.9385 102.118L41.5166 104.544L41.8213 106.97L41.8447 107.11L41.833 107.251L41.6807 109.759L42.0674 112.208L42.0908 112.407L42.0674 112.618L41.8281 114.546L42.1836 114.535L44.832 114.289H44.9844L45.1289 114.291L45.1562 113.293L45.1914 110.668V110.539L45.4492 107.961L45.4727 107.703L45.5781 107.48L46.6445 105.16L46.7383 104.973L46.8789 104.809L48.5781 102.84L48.7539 102.641L48.9883 102.5L51.3203 101.234L51.4756 101.151L51.4648 100.229V100.194L51.4766 97.5576V97.5459L51.5117 94.8975L51.2891 92.4131L51.2773 92.3779V92.3428L51.1836 89.6943L51.1719 89.6357L51.1836 89.5771L51.2891 86.9404L51.3125 84.3506V84.2568L51.4883 81.6787L51.3711 79.1475V79.0654L51.3828 76.4521L51.3594 73.9209L51.1367 71.2842L51.125 71.1318L51.1367 70.9912L51.4297 68.3545L51.418 65.9756L51.2422 63.3389V63.3037L51.1367 60.8779L50.8691 60.0059L50.1182 60.1064ZM5.47656 59.5791L5.51172 61.5479L6.01562 63.9854V64.0088L6.02734 64.0439L6.42578 66.5869L6.95312 69.1768H6.94141L7.46875 71.7549L8.125 74.2158L8.14844 74.3213L8.17188 74.4385L8.44141 76.8877L9.21484 79.208L10.1758 81.6807L10.2344 81.833L10.2695 81.9971L10.668 84.5166L11.5 86.8604L11.5469 87.0244L12.0977 89.4619L13.0586 91.8291L13.1406 92.04L13.1641 92.2744L13.3398 94.7705L14.125 97.1143L14.1484 97.208L14.8047 99.7744L15.4492 102.341V102.364L16.0586 104.931V104.966L16.0703 105.001L16.5508 107.591L16.5742 107.708V107.825L16.6445 110.228L17.4766 112.56L17.5586 112.806V113.052L17.5693 114.387L17.8545 114.386L17.8779 114.323L18.2295 111.851V111.804L18.2412 111.745L18.792 109.167L19.3311 106.671L19.7412 104.058L19.7646 103.894L19.8232 103.753L20.7373 101.327L21.3818 98.8662L21.8975 96.3467L21.9209 96.2764L22.5889 93.6982L22.7061 93.2881L23.0107 92.9951L24.7119 91.3584L24.8135 89.3047L24.8252 89.2578V89.2109L25.1182 86.5625L25.1533 86.2578L25.3057 86L26.5244 83.7734L27.4033 81.3828L27.4385 81.2773L27.4854 81.1836L28.4814 79.2734L28.1768 77.1289L28.1416 76.9062L28.1768 76.6836L28.5752 74.0703L28.5986 73.918L28.6572 73.7773L29.583 71.293L29.6064 71.2461L29.6182 71.1992L30.4092 69.4541L29.0664 68.8604L26.6055 67.8994L26.5586 67.876L24.1328 66.8213L24.0625 66.7979L23.9922 66.7627L21.6836 65.4619L21.6016 65.415L21.5195 65.3564L19.5273 63.8564L17.2539 62.8252L17.2305 62.8018L17.1953 62.79L14.8516 61.583V61.5713L12.5664 60.458L10.1875 59.5791L10.1172 59.5557L7.94922 58.6299L6.33203 58.6064L5.47656 59.5791ZM109.784 59.4102L109.655 59.457L109.526 59.4922L107.159 60.0195L105.073 61.2734L105.05 61.2852H105.038L102.729 62.5859L100.503 63.9219L100.491 63.9102L98.2646 65.293L98.2412 65.3047L98.2178 65.3281L95.9209 66.6289L95.8154 66.6875L95.6982 66.7227L93.3779 67.5781L91.3975 69.0312L91.1396 69.2188L90.835 69.2891L89.1113 69.667L89.3135 70.4258L90.3564 72.7109L90.3682 72.7344L90.3799 72.7695L91.376 75.207L91.4932 75.5L91.4814 75.8164L91.4111 78.043L91.9385 80.3164L93.0752 82.4844L93.0869 82.5195L93.1104 82.5664L94.1885 84.9805L94.2588 85.168L94.9854 87.7109L95.0205 87.8281L95.0439 87.957L95.3252 90.4531L95.9932 92.6211L97.3525 94.4727L97.5166 94.6953L97.5869 94.9648L98.2783 97.4844L99.0283 100.016L99.9072 102.406L99.9658 102.559L99.9893 102.723L100.329 105.219L100.892 107.703L101.63 110.246L101.642 110.27V110.293L102.31 112.859L102.356 113.035V113.211L102.377 114.349L102.75 114.284L102.87 113.199L102.952 110.586V110.551L103.093 107.902L103.116 107.762L103.515 105.148L103.526 105.031L103.562 104.926L104.3 102.535L104.64 100.016L104.651 99.9453L104.663 99.8633L105.261 97.2969L105.272 97.2734V97.2383L105.976 94.6953L106.562 92.1758L106.573 92.082L106.608 91.9883L107.522 89.5156L108.284 87.0664L108.296 87.043V87.0195L109.175 84.5234L109.796 82.0742L110.3 79.5664L110.312 79.4961L110.335 79.4258L111.097 76.8945L111.788 74.3867L112.479 71.8555L112.972 69.3594L113.019 69.1719L113.827 66.793L114.073 64.4492L114.12 61.8242V61.7773L114.132 61.7422L114.272 59.7266L113.405 58.6836L111.835 58.5195L109.784 59.4102ZM57.2432 57.915L55.0166 58.3721L53.7441 59.1436L54.0547 60.1631L54.1133 60.3506L54.125 60.5381L54.2422 63.1396L54.4062 65.7764L54.418 65.8232V65.8701L54.4297 68.5068V68.6006L54.418 68.6826L54.1367 71.1904L54.3477 73.6748L54.3594 73.7217V73.7803L54.3828 76.4287V76.4521L54.3711 79.0889L54.4883 81.6553V81.8193L54.3125 84.4678L54.2891 87.0107V87.0576L54.1719 89.7061L54.2773 92.1553L54.5117 94.792V94.9443L54.4766 97.5928L54.4648 100.218L54.4688 100.536L54.5078 100.531L57.1328 100.297L57.2852 100.285L57.4375 100.309L59.875 100.602L62.3594 100.332L62.5469 100.309L62.7227 100.332L65.3242 100.695L65.4062 100.707L65.4824 100.729L65.6797 99.9717V97.5107L65.7266 94.874L65.5039 92.3896V92.3076L65.3984 89.6709V89.5537L65.5156 86.9639H65.5039L65.5391 84.3154V84.2334L65.7148 81.6553L65.5977 79.124V79.042L65.6094 76.4287L65.5742 73.7803L65.5859 73.7686L65.3516 71.2607L65.3398 71.1084L65.3633 70.9678L65.6445 68.3193L65.6211 65.8467L65.4453 63.3037V63.2803L65.3164 60.6318L65.293 60.2568L65.457 59.9053L66.0654 58.6416L64.4854 58.126L62.1064 57.8096L59.7041 57.7041L57.2432 57.915ZM58.2354 39.8281L55.7627 40.4023L55.7393 40.4141H55.7158L53.4072 40.8828L51.5439 42.2891L51.5088 42.3242L51.4619 42.3477L49.3994 43.6602L47.8525 45.5352L47.7705 45.6406L47.6533 45.7227L45.6963 47.3398L44.208 49.1328L43.1299 51.3711L43.1064 51.4414L43.0596 51.5L41.6768 53.7383L41.6416 53.7969L41.5947 53.8672L40.0947 55.8008L39.1104 58.0859L39.04 58.2266L37.7744 60.4297L36.79 62.7969L36.7666 62.8438L36.7549 62.8789L35.6533 65.1055L34.751 67.5898L34.7158 67.6953L34.6572 67.7891L33.4033 70.1211L32.3604 72.4414L31.5049 74.7031L31.2979 76.0908L31.8096 75.7422L33.0635 73.8086L34.4697 71.5938L34.4932 71.5586L34.5049 71.5352L36.0283 69.3672L36.2158 69.0977L36.4971 68.9336L38.4697 67.7617V67.665L38.458 67.1611L38.751 66.7627L40.2979 64.665L40.3916 64.5479L42.1494 62.5791L42.2783 62.4385L42.4307 62.333L44.4932 60.9385L46.3447 59.1807L46.415 59.1104L46.4971 59.0518L48.6533 57.4697L48.958 57.2471L49.333 57.1885L51.7002 56.8604L53.6924 55.6768L53.915 55.5361L54.1729 55.4893L56.7275 54.9619L56.8096 54.9502L56.9033 54.9385L59.5166 54.7158L59.6221 54.7041L59.7158 54.7158L62.3057 54.833H62.376L62.4346 54.8447L65.0479 55.1846L65.1885 55.1963L65.3174 55.2432L67.8369 56.0752L67.9424 56.1104L68.0479 56.1572L70.4033 57.3643L70.4385 57.3877L70.4619 57.3994L72.7588 58.7119L72.8643 58.7822L72.958 58.8525L74.9971 60.5166L77.0479 62.0869L77.1299 62.1455L77.1885 62.2041L79.0752 64.0439L79.1221 64.1025L79.1689 64.1494L80.833 66.1182L82.4619 67.9697V67.9814L82.4736 67.9932L84.1611 70.0088L84.2197 70.0674L85.7549 72.1299H85.7666L87.4424 74.1807L87.4775 74.2158L87.501 74.2627L88.0791 75.0742L87.626 73.9531L86.5361 71.5508L86.4893 71.4336L86.4541 71.3164L85.7861 68.8672L84.7197 66.7344L83.4072 64.4258L83.3252 64.2969L83.2783 64.1562L82.5049 61.7656L81.2744 59.5859L81.251 59.5391L81.2158 59.4805L80.1846 57.207L78.708 55.1914L78.5908 55.0273L78.5205 54.8516L77.6416 52.5664L76.1299 50.6445L74.501 48.5586V48.5469L72.8721 46.7305L71.0557 44.9258L69.0986 43.168L69.0869 43.1562H69.0752L67.3643 41.5742L65.1377 40.9414L65.0088 40.9062L64.8916 40.8477L62.665 39.7578L60.5557 39.3477L58.2354 39.8281Z" fill="black"/>
</svg>
