<svg xmlns="http://www.w3.org/2000/svg" width="120" height="120" fill="none" viewBox="0 0 120 120"><path fill="#000" d="M58.152 7H61v.21l-.2 2.462.118 2.508h.012l.175 2.636v.094l.012 2.637.012.164-.035.152-.182.882.686.013h.21l.2.07 2.508.774.14.046.13.07 2.296 1.255.082.047.082.058 2.156 1.559.223.164.152.234 1.442 2.238.012.036.023.035 1.3 2.273.024.07.035.06 1.09 2.401.047.118.035.117.68 2.578.047.2v.198l-.047 2.567-1.207-.024-.258.094-.016.005.282.374.351.469-.058.586-.27 2.472.281 2.485.012.129v.129l-.164 2.542.14 2.567v.129l-.011.129-.281 2.39.492 2.625-.012.188-.176 2.637-.023 2.554v.047l-.032.876 1.458.23.222.035 2.362 1.18.021-.165.14-2.39-.35-2.496-.024-.117.012-.118.046-2.636.012-.293.105-.258.856-2.04.136-.32-.812-.066.211-2.426.012-.258.117-.246 1.09-2.355.105-.223.164-.176 1.758-1.898.164-.176.2-.117 2.308-1.312.228-.131-.115-1.12v-.046l-.011-.035-.118-2.649-.011-.094.011-.082.188-2.543.152.012H87v.21l-.2 2.462.118 2.46h.012l.163 1.59.25.024.235.023.211.094 2.367 1.008.223.094.187.164 1.97 1.734.198.176.13.234 1.265 2.356.164.293.012.34.108 2.191h.017l.035 1.524.047 2.52.175 2.636.012.094-.011.082-.118 2.636.012 2.567v.023l-.002.126.58.398-.59.822-.011 1.29v.06l-.012.058-.211 2.461.281 2.531.012.082-.012.082-.011 2.637v.094l-.176 2.648-.125 2.416 2.16.451 2.648.235.317.035.293.164 1.957 1.113.773.434-.012.89-.035 2.614h.012l.006 1.417h.072l1.195.013.258 1.16.446 2.027.046.2-.011.198-.129 2.532.176 2.578.011.035v.047l.024 2.601.105 2.637v.117l-.094 2.637v.035l-.011.047-.223 2.473.04 1.771 2.464-.424.762-.129.55.551 1.735 1.758.363.363.059.504.316 2.461.996 2.203.047.082.024.082.679 2.203.516 1.688-.855.114-.005.343-.996-.012-2.507.258-.223.024-.223-.036-1.522-.304-1.029-.141-2.414-.012-2.484.422-.117.024h-.117l-2.637.047h-.105l-.118-.012-2.472-.34-1.283.102-.971.191-.235.047-.234-.024-1.648-.212-.914-.057-2.543.105h-.118l-2.2-.091-.264.009h-.012l-.776.017-1.88.112h-.118l-.117-.012-.588-.055-1.748.009.012.011-2.637.176-.187.012-2.5-.469h-.121l-.989.092-1.406.166-.129.012h-.129l-.23-.013-2.297.153-.106.012-.093-.012-2.197-.13-.186.013h-.129l-.129-.012-.151-.017-2.341.076-.14.012-.13-.024-1.155-.173-1.04.115h-.07l-2.637.152-.152.012-.141-.024-1.187-.165-1.188.107-.129.011-.129-.011-2.601-.211-2.508.07.012.012-2.649.105h-.094l-.093-.012-2.508-.234-2.438.328-.14.024-.14-.012-2.135-.105-.296.011h-.117l-.386-.015-2.165.144-.093.012-.094-.012-2.59-.152-2.543.094-.164.011-.152-.023-1.587-.28-.655.034h-.082l-1.987-.01-.576.057-2.637.234-.129.012-.129-.012-1.542-.117-.782.07-.14.012-.153-.012-2.531-.281-1.352.006-1.175.099-.106.012-.105-.012-.758-.043-1.625.114h-.012l-.012.011-2.648.118-.094.011-.082-.011-2.543-.188.012-.223v-1.336l-.723-.562.434-1.043.984-2.391.633-2.425.012-.047.012-.035.82-2.52.117-.352.27-.269.41-.387.433-.41h.809l2.459.198.04-1.768-.222-2.473-.011-.047v-.035l-.094-2.637v-.117l.105-2.637.024-2.601v-.047l.011-.035.176-2.578-.129-2.532-.011-.199.046-.199.446-2.027.258-1.16 1.195-.012 2.071-.02.007-1.398h.012l-.035-2.614-.012-.89.773-.434 1.957-1.113.293-.164.317-.035 2.648-.235.136-.029.028-.342-.129-2.496-.175-2.648v-.094l-.012-2.637-.012-.082.012-.082.281-2.531-.21-2.46-.013-.06v-.058l-.023-2.637v-.023l.012-2.567-.117-2.636-.012-.082.012-.094.175-2.637.047-2.52.035-1.523.165.006.175-2.01.012-.258.117-.246 1.09-2.355.105-.223.164-.176 1.758-1.898.164-.176.2-.117 2.308-1.312.228-.131-.115-1.12v-.046l-.011-.035-.117-2.649-.012-.094.012-.082.187-2.543.152.012H34v.21l-.2 2.462.118 2.46h.012l.163 1.59.25.024.235.023.211.094 2.367 1.008.223.094.187.164 1.97 1.734.198.176.13.234 1.265 2.356.164.293.012.34.129 2.59-.965.042.156.368.855 2.039.106.258.012.293.047 2.636.011.117-.023.118-.352 2.496.14 2.39.087.676.347-.086 2.133-1.277.13-.07.14-.059.144-.05-.093-1.266v-.188l.129-2.637v-.035l.175-2.636.012-2.532-.281-2.484-.024-.153.012-.14.223-2.566.035-2.579-.024-2.636v-.035l.012-.047.117-2.637.024-.469.281-.375.254-.332h-.602v-1.664l.024-.129.457-2.578.011-.094.036-.093.773-2.497.035-.117.059-.105 1.16-2.332.023-.035.024-.047 1.3-2.285.083-.141.117-.129 1.805-1.945.129-.153.175-.105 2.25-1.395.117-.07.13-.059 2.449-.972.199-.07.21-.024 1.62-.154.021-.096.258-1.277-.011-2.508h.011l-.176-2.543v-.012l-.011-.012-.117-2.648-.012-.094.011-.082L58 6.988zm38.61 101.711-.235.047-.234-.024-2.555-.328-2.531.012-.012-.012-2.59.082h-.011l-2.637.059h-.023l-2.567.012.012.011-2.637.176-.187.012-2.625-.492-2.39.281-.13.012h-.129l-2.554-.141-2.555.164h-.129l-.129-.012-2.496-.281-2.461.27h-.07l-2.637.152-.152.012-.141-.024-2.543-.351-2.508.058h-.058l-2.637-.058v-.012h-2.637l-2.625-.047-2.496.223-.035.011h-.047l-2.637.094h-.117l-2.636-.105v-.012l-2.59-.012h-.047l-.047-.011-2.578-.176-2.532.129h-.081l-2.637-.012v-.012l-2.508.024-2.637.234-.14.012-.153-.012-2.531-.281-2.578.012v-.012l-2.543.176h-.012l-.012.011-2.648.118-.094.011-.082-.011-1.746-.129-.574 1.804-.656 2.473-.024.094-.035.093-.574 1.383.105.094 2.063-.141.105-.011h.094l1.758.097.77-.05h.093l1.167-.006 1.286-.1.13-.012.128.012 2.637.234h-.012l.87.065 1.599-.135.047-.012h.058l2.649-.023h.023l.509.002 1.91-.178.198-.012.188.036.724.12 1.674-.074.082-.011.082.011 2.649.176-.012.012 2.555.012h.047l2.141.087.265-.017h.176l.444.021 2.06-.068 2.648-.246h.152l2.637.047-.012.012h2.66l2.602.058 2.613-.058h.13l.117.011 1.087.159 1.143-.1h.035l2.637-.164.152-.012.164.024 1.1.158 1.24-.135.152-.012.164.012 2.221.262.127-.004h.14l.292.016 2.248-.133.082-.012.082.012 2.232.113.127-.008 1.814-.17.854-.099.235-.036.222.047.063.012h2.262l2.648.07h.047l.047.012 2.057.19.482-.002v-.012l1.737-.039.774-.043h.153l.36.013 2.25-.06h.034l2.637-.012h.106l.093.012.894.118 1.442.081 1.055-.077 1.414-.274.246-.047.234.035 2.578.351 2.379.106 2.52-.434.117-.011h.117l2.637-.024h.152l.153.024 1.005.197 1.272.166.68-.094-.141-.433-1.031-2.309-.094-.199-.023-.223-.293-2.168-.832-.832-1.864.317-.152.023-.164-.012-2.637-.105h-.07l-.07-.012-2.403-.34zm-15.87-31.169-.091 1.13.117 2.508h.012l.175 2.636v.094l.012 2.637.012.094-.012.082-.281 2.508.21 2.484.013.047v.058l.023 2.649v.023l-.012 2.555.118 2.648.011.082-.011.082-.176 2.649-.012-.012-.012 2.531.008.691 1.998-.125-.006-.531v-.035l.024-2.636v-.047l.011-.047.165-2.578-.118-2.531v-.082l.012-2.637-.023-2.508-.223-2.637-.012-.14.012-.153.27-2.531v-2.578l-.165-2.543v-.012l-.011-.011-.118-2.649-.011-.094.011-.082.082-1.11zm5.154 9.81-.21 1.879.21 2.484.013.047v.058l.023 2.649v.023l-.012 2.555.118 2.648.011.082-.011.082-.176 2.649-.012-.012-.012 2.531.006.517 2.53-.056 2.636-.07h.035l2.637-.012h.106l.093.012 2.04.27.011-2.219-.023-2.508-.223-2.637-.012-.14.012-.153.27-2.531v-2.578l-.165-2.543v-.012l-.011-.011-.118-2.649-.011-.094.011-.082.002-.036-1.087.122-.083.012-.093-.012-2.637-.011h-.094l-2.636-.176.011-.012-2.507-.117zm-56.241.066.011.012-2.636.175h-.094l-2.637.012-.094.012-.082-.012-.464-.053-.008.108.117 2.508h.012l.175 2.636v.094l.012 2.637.012.094-.012.082-.281 2.508.21 2.484.013.047v.058l.023 2.649v.023l-.01 2.042 1.159.13 2.484-.211.047-.012h.058l2.649-.023h.023l2.555.012.945-.042-.004-.326v-.035l.024-2.636v-.047l.011-.047.164-2.578-.117-2.531v-.082l.012-2.637-.023-2.508-.223-2.637-.012-.14.012-.153.169-1.595-1.693-.135zM41.8 78.672l.117 2.508h.012l.175 2.636v.094l.012 2.637.012.094-.012.082-.281 2.508.21 2.484.013.047v.058l.023 2.649v.023l-.012 2.555.117 2.648.012.082-.011.082-.176 2.649-.012-.012-.012 2.531.006.521 1.694.069 1.306-.043-.006-.512v-.035l.024-2.636v-.047l.011-.047.164-2.578-.117-2.531v-.082l.012-2.637-.023-2.508-.223-2.637-.012-.14.012-.153.27-2.531v-2.578l-.165-2.543v-.012l-.011-.011-.117-2.649-.012-.094.011-.082.058-.784-1.539.012-.151.002-.149-.03-1.136-.223zm22.672-1.158-.001-.001-.58.015-.091 1.144.117 2.508h.012l.176 2.636v.094l.011 2.637.012.094-.012.082-.281 2.508.21 2.484.013.047v.058l.023 2.649v.023l-.012 2.555.118 2.648.011.082-.011.082-.176 2.649-.012-.012-.012 2.531.007.578.716-.046v.011l2.28-.249-.003-.259v-.035l.024-2.636v-.047l.011-.047.165-2.578-.118-2.531v-.082l.012-2.637-.023-2.508-.223-2.637-.012-.14.012-.153.27-2.531v-2.578l-.165-2.543v-.012l-.011-.011-.118-2.649-.011-.094.011-.082.079-1.072zm5.428-.096-.1 1.254.117 2.508h.012l.175 2.636v.094l.012 2.637.012.094-.012.082-.281 2.508.21 2.484.013.047v.058l.023 2.649v.023l-.012 2.555.118 2.648.011.082-.011.082-.176 2.649-.012-.012-.012 2.531.006.543.096.012 1.903-.114-.005-.406v-.035l.024-2.636v-.047l.011-.047.165-2.578-.118-2.531v-.082l.012-2.637-.023-2.508-.223-2.637-.012-.14.012-.153.27-2.531v-2.578l-.165-2.543v-.012l-.011-.011-.118-2.649-.011-.094.011-.082.092-1.247zm5.273.321-.227.027-.072-.014-.074.92.117 2.508h.012l.175 2.636v.094l.012 2.637.012.094-.012.082-.281 2.508.21 2.484.013.047v.058l.023 2.649v.023l-.012 2.555.118 2.648.011.082-.011.082-.176 2.649-.012-.012-.012 2.531.006.514.334.018 2.496-.293.166-.026-.002-.178v-.035l.024-2.636v-.047l.011-.047.165-2.578-.118-2.531v-.082l.012-2.637-.023-2.508-.223-2.637-.012-.14.012-.153.27-2.531v-2.578l-.165-2.543v-.012l-.011-.011-.118-2.649-.011-.094.011-.082.08-1.076-.202-.01zm-16.373.933.117 2.508h.012l.175 2.636v.094l.012 2.637.012.094-.012.082-.281 2.508.21 2.484.013.047v.058l.023 2.649v.023l-.012 2.555.117 2.648.012.082-.011.082-.176 2.649-.012-.012-.012 2.531.004.331.492-.01h.13l.117.011 1.263.185-.006-.482v-.035l.024-2.636v-.047l.011-.047.164-2.578-.117-2.531v-.082l.012-2.637-.023-2.508-.223-2.637-.012-.14.012-.153.27-2.531v-2.578l-.165-2.543v-.012l-.011-.011-.117-2.649-.012-.094.011-.082.069-.94-1.715.008h-.1l-.098-.013-.08-.01zm-39.508 8.875-.059.012h-.058l-1.453.011-.153.668.117 2.45.012.093-.012.082-.175 2.637-.024 2.555v.047l-.105 2.636.094 2.45.234 2.636v.164l-.036 1.549 2.141-.142h.094l1.162-.006.01-1.92-.023-2.508-.223-2.637-.012-.14.012-.153.27-2.531v-2.578l-.165-2.543v-.012l-.011-.011-.117-2.649-.012-.094.012-.082.007-.116zm79.508.125.117 2.508h.012l.175 2.636v.094l.012 2.637.012.094-.012.082-.281 2.508.21 2.484.013.047v.058l.023 2.649v.023l-.009 1.728.009-.001.234.035 2.008.273-.035-1.539v-.164l.234-2.636.094-2.45-.105-2.636v-.047l-.024-2.555-.176-2.637-.011-.082.011-.094.118-2.449-.153-.668-1.453-.011h-.058l-.059-.012-.89-.077zm-62-9 .117 2.508h.012l.175 2.636v.094l.012 2.637.012.094-.012.082-.281 2.508.21 2.484.013.047v.058l.023 2.649v.023l-.012 2.555.117 2.648.012.082-.011.082-.176 2.649-.012-.012-.012 2.531.004.361 1.516.1-.012.012.497.002-.005-.44v-.035l.024-2.636v-.047l.011-.047.164-2.578-.117-2.531v-.082l.012-2.637-.023-2.508-.223-2.637-.012-.14.012-.153.27-2.531v-2.578l-.165-2.543v-.012l-.011-.011-.117-2.649-.012-.094.011-.082.082-1.1-.702.072-.137.014-.137-.012-1.017-.083zm17.361-.936-.24.046-.242-.033-.796-.107-.083 1.03.117 2.508h.012l.175 2.636v.094l.012 2.637.012.094-.012.082-.281 2.508.21 2.484.013.047v.058l.023 2.649v.023l-.012 2.555.117 2.648.012.082-.011.082-.176 2.649-.012-.012-.012 2.531.004.321h1.278l1.722.038-.004-.324v-.035l.024-2.636v-.047l.011-.047.164-2.578-.117-2.531v-.082l.012-2.637-.023-2.508-.223-2.637-.012-.14.012-.153.27-2.531v-2.578l-.165-2.543v-.012l-.011-.011-.117-2.649-.012-.094.011-.082.084-1.128zm-6.262-.302-.1 1.238.118 2.508h.012l.175 2.636v.094l.012 2.637.012.094-.012.082-.281 2.508.21 2.484.013.047v.058l.023 2.649v.023l-.012 2.555.117 2.648.012.082-.011.082-.176 2.649-.012-.012-.012 2.531.004.339.84-.077h.152l1.007.018-.003-.245v-.035l.024-2.636v-.047l.011-.047.164-2.578-.117-2.531v-.082l.012-2.637-.023-2.508-.223-2.637-.012-.14.012-.153.27-2.531v-2.578l-.165-2.543v-.012l-.011-.011-.117-2.649-.012-.094.011-.082.087-1.18-1.206-.05zm-15.267 1.37-2.461.622-.012-.012-2.508.692-.093.023-2.59.527-.082.024-.082.011-2.32.188-.926.527.023 1.758v.023l-.006 1.157.096-.008.14-.012.153.012 2.52.281 2.59-.011v.011l2.542-.176h.012l.023-.011 2.637-.118.094-.011.094.011 1.629.12v-.51l-.165-2.543v-.012l-.011-.011-.117-2.649-.006-.043zm53.168-.132.117 2.508h.012l.175 2.636v.094l.001.433.417-.03.094-.012.094.011 2.637.118.023.011h.012l2.543.176v-.011l2.59.011 2.52-.281.151-.012.141.012 2.096.177-.006-1.326v-.023l.023-1.758-.925-.527-2.32-.188-.083-.011-.082-.024-2.59-.527-.093-.023-.368-.102h-1.328l-.152.012-.032-.43-.628-.172-.012.012-2.46-.621-2.45-.293-.104-.022zm.15-1.854-.06.725L86 77l.04-.2zM31.284 60.641l-.023.023-2.075 1.64-.058.048-.07.046-1.626 1.01.008.623.223 2.637.012.152-.012.14-.281 2.532.012 2.578.164 2.555.011.023.104 2.343 1.748-.472h.023l2.567-.644.082-.023.093-.012 1.62-.189-.408-1.498-.079-.29.04-.3.32-2.412-.157-.891-.31-1.76h.502l-.004-.633-.352-2.566-.164-1.278 1.23-.363 2.485-.715.707-.326-1.738-1.017-.129-.082-.105-.094-1.758-1.57-1.184-.376zm53 0-.023.023-2.075 1.64-.058.048-.07.045.484.209 2.46.585 1.032.246.117 1.044.282 2.554.011.13-.011.128-.153 2.637-.005.08.004.061.155 2.613.273 2.6.033.316 2.072.24.093.012.082.023 2.36.593.082-1.82.011-.023.165-2.555.011-2.578-.281-2.531-.012-.14.012-.153.223-2.637.01-.799-.487-.33v-.011l-2.203-1.29-.129-.081-.106-.094-1.757-1.57-1.184-.376zM61.496 71.5l.012.012-2.649.175-.082.012-.082-.011-2.648-.118-2.555.012h-.023l-2.649-.023h-.058l-.047-.012-.522-.045-1.865.161-.146.013-.147-.017-1.354-.15-.958.108-.082.012-.094-.012-2.637-.011h-.094l-1.535-.103-.901.06-.014.001-.014.001-2.64.126-.093.005-.093-.007-.882-.067-.271 2.034.198.729 1.45.119 2.506-.255.223-.022.219.042 2.49.488 2.368-.017 2.525-.424.154-.026.157.007 2.64.11.07.003.067.01 2.396.323 2.402-.459.236-.045.239.03 2.538.329 2.507-.01 2.64-.073.01-.001 2.639-.058h.017l2.61-.03 2.587-.17.19-.013.187.035 2.415.454 2.414-.28.124-.014.126.005 2.557.13 2.445-.147.863-.179-.135-1.29-.004-.034-.002-.034-.08-1.34-.642.092-.117.011h-.118l-2.613-.058-2.602.058h-2.66l.012.012-2.637.047h-.152l-2.243-.209-.137.013-.038.003-.038.001-2.64.1-.058.001-.06-.002-2.623-.108-1.523-.015zm-3.469-12.95-.21.106-.235.035-2.426.387-2.133 1.113-.07.036-.059.023-2.449.996-.14.059-.153.035-2.53.457-2.24.785-2.167 1.3-.188.118-.222.047-.92.231.03.222h-.905l-.666.168-2.262 1.031-.094.047-.105.023-1.383.41.188 1.36.011.094v.75l.832-.07.082-.012.094.011 2.648.118.012.011h.012l.852.059 1.59-.106.045-.003h.046l2.64-.014h.087l.086.01.926.101 1.38-.152.153-.012.14.012 1.81.16.578-.049.056-.005h.055l2.64-.03h.026l2.607.017 2.594-.121.086-.004.086.006 2.587.176 1.808.017.724-.003v-.012l2.636-.105h.117l2.637.094h.047l.035.011.085.007 2.29-.202.078-.007.078.001 2.641.044-.001.001 2.625.015h.024l2.608.058 2.607-.054.118-.003.118.016.632.086.078-1.157-.165-1.43-1.546-.375-.117-.023-.13-.047-2.332-1.008-.148-.046v.136h-1.91l.086-.691-.488-.149-.13-.035-.105-.059-2.168-1.066-2.437-.41-.188-.024-.175-.082-2.344-1.02-2.473-.925h-.012l-2.472-.95-.012-.01-2.402-.927-1.899-.55zM31.45 52.513l-.035.011h-.035l-2.649.094h-.117L27.5 52.57l-.012 1.067v.035l-.011.035-.176 2.555.129 2.543v.082l-.005.981.04-.024 1.922-1.524 2.039-1.675.633-.516.785.246 2.273.738.305.094.246.211 1.91 1.71.786.464-.083-1.338v-.152l.012-.153.34-2.472-.035-2.286-.364-.855H36.57l-2.613-.047zm50.98-.176h-1.663l-.364.855-.035 2.286.34 2.472.012.153v.152l-.092 1.46 1.76-1.394 2.039-1.675.633-.516.785.246 2.273.738.305.094.246.211 1.91 1.71.995.587-.003-.828v-.082l.13-2.543-.177-2.555-.011-.035v-.035L91.5 52.57l-1.113.047h-.118l-2.648-.094h-.035l-.035-.011-2.508-.223zM57.74 35.273l-2.473.106-2.508.48v-.011l-2.426.68-.023.011h-.024l-2.039.492-.562.739-.118 2.18.024 2.566v.023l-.035 2.637v.117l-.223 2.46.281 2.52.012.082v.094l-.012 2.637v.047l-.011.047-.176 2.636-.117 2.614.028.361 2.089-.37 2.25-.913 2.32-1.207.223-.117.234-.036 2.426-.375 1.236-.642-.162-1.115-.023-.141-.117-2.39-.012-.106.011-.106.188-2.296.281.023H61v.223l-.2 2.226.118 2.168.176 1.16.008.056 1.566.448.07.012.07.035 2.461.961 2.426.95.012-.012 2.473.925.035.012.047.012.285.126.023-2.568V55.7l.012-.047.152-2.472-.457-2.426-.046-.223.035-.234.293-2.496-.13-2.532-.011-.081.012-.083.152-2.542-.293-2.473-.012-.164.012-.164.223-2.063-.586-.797-1.992-.164-.118-.011-.117-.024-2.484-.644-.012.011-2.578-.527.012-.012-2.38-.293zm-27.567 9.235-1.406 1.523-.891 1.922-.14 1.625.949.04 2.507-.083v-.012l2.637-.234h.152l2.649.047-.012.012H38.4l-.083-1.606-.984-1.816-1.582-1.395-1.91-.82-1.946-.188zm53 0-1.406 1.523-.891 1.922-.12 1.395h1.628l-.012-.012 2.648-.047h.153l2.637.234v.012l2.507.082 1.095-.045-.095-1.83-.984-1.816-1.582-1.395-1.91-.82-1.946-.188zM65.269 41H68v.223l-.2 2.226.118 2.168.176 1.16.246 1.723H66.5v-1.488l-1.371.21-.176-1.206-.023-.141-.118-2.39-.011-.106.011-.106.188-2.296zm-15-1H53v.223l-.2 2.226.118 2.168.176 1.16.246 1.723H51.5v-1.488l-1.371.21-.176-1.206-.023-.141-.117-2.39-.012-.106.011-.106.188-2.296zm5-1H58v.223l-.2 2.226.118 2.168.176 1.16.246 1.723H56.5v-1.488l-1.371.21-.176-1.206-.023-.141-.117-2.39-.012-.106.011-.106.188-2.296zm5 0H63v.223l-.2 2.226.118 2.168.176 1.16.246 1.723H61.5v-1.488l-1.371.21-.176-1.206-.023-.141-.117-2.39-.012-.106.011-.106.188-2.296zm-3.546-17.078-2.145.832-1.934 1.207-1.57 1.7-1.218 2.144-1.102 2.18-.691 2.238-.322 1.843 1.841-.445 2.508-.691.117-.024 2.59-.492.105-.012.117-.011 2.626-.106h.046l2.614-.047h.105l.106.012 2.59.328.117.024 2.578.527.035.012h.035l2.426.609 2.555.234.64.056.008-.517-.598-2.25-.96-2.168-1.301-2.273v-.012l-1.22-1.922-1.815-1.312-2.145-1.172-2.121-.668-2.38-.035z"/></svg>