<svg width="120" height="120" viewBox="0 0 120 120" fill="none" xmlns="http://www.w3.org/2000/svg">
<path d="M8.1 116V117.5H8.13227L8.16451 117.499L8.1 116ZM10.64 115.891L10.797 114.399L10.6865 114.387L10.5755 114.392L10.64 115.891ZM13.28 116.169L13.123 117.66L13.2739 117.676L13.425 117.662L13.28 116.169ZM15.92 115.912L15.8596 114.413L15.8172 114.415L15.775 114.419L15.92 115.912ZM18.56 115.806L18.6763 114.31L18.588 114.303L18.4996 114.307L18.56 115.806ZM21.2 116.011L21.0837 117.507L21.1392 117.511L21.1948 117.511L21.2 116.011ZM23.84 116.02L23.8348 117.52L23.8912 117.52L23.9474 117.516L23.84 116.02ZM26.48 115.831L26.5223 114.331L26.4473 114.329L26.3726 114.334L26.48 115.831ZM29.12 115.905L29.2963 114.415L29.2295 114.408L29.1623 114.406L29.12 115.905ZM31.76 116.217L31.5837 117.707L31.7941 117.732L32.0032 117.698L31.76 116.217ZM34.4 115.784L34.4793 114.286L34.3171 114.277L34.1568 114.303L34.4 115.784ZM37.04 115.923L36.9607 117.421L37.0493 117.426L37.1379 117.42L37.04 115.923ZM39.68 115.751L39.8617 114.262L39.7223 114.245L39.5821 114.254L39.68 115.751ZM42.32 116.073L42.1383 117.562L42.2533 117.576L42.3692 117.572L42.32 116.073ZM44.96 115.986L44.9117 114.487L44.9108 114.487L44.96 115.986ZM47.6 115.901L47.6483 117.401L47.6707 117.4L47.693 117.398L47.6 115.901ZM50.24 115.737L50.5012 114.26L50.3253 114.229L50.147 114.24L50.24 115.737ZM52.88 116.204L52.6188 117.681L52.879 117.727L53.1393 117.682L52.88 116.204ZM55.52 115.741L55.6608 114.247L55.4596 114.228L55.2606 114.263L55.52 115.741ZM58.16 115.99L58.0192 117.483L58.1299 117.493L58.2409 117.487L58.16 115.99ZM60.8 115.847L61.0126 114.362L60.8665 114.341L60.7191 114.349L60.8 115.847ZM63.44 116.225L63.2274 117.71L63.4714 117.745L63.7137 117.7L63.44 116.225ZM66.08 115.735L66.1582 114.237L65.9809 114.228L65.8063 114.26L66.08 115.735ZM68.72 115.873L68.6418 117.371L68.6647 117.372L68.6878 117.373L68.72 115.873ZM71.36 115.93L71.3278 117.429L71.3564 117.43L71.3849 117.429L71.36 115.93ZM74 115.886L74.185 114.397L74.0804 114.384L73.975 114.386L74 115.886ZM76.64 116.214L76.455 117.702L76.6155 117.722L76.7765 117.708L76.64 116.214ZM79.28 115.973L79.2685 114.473L79.2059 114.473L79.1435 114.479L79.28 115.973ZM81.92 115.952L82.0888 114.462L81.9989 114.452L81.9085 114.452L81.92 115.952ZM84.56 116.251L84.3912 117.742L84.5876 117.764L84.783 117.735L84.56 116.251ZM87.2 115.854L87.2734 114.356L87.1245 114.349L86.977 114.371L87.2 115.854ZM89.84 115.984L89.9255 114.486L89.9134 114.486L89.84 115.984ZM92.48 116.135L92.3945 117.632L92.4978 117.638L92.6008 117.63L92.48 116.135ZM95.12 115.921L95.1099 114.421L95.0544 114.422L94.9992 114.426L95.12 115.921ZM97.76 115.903L97.9616 114.417L97.8562 114.403L97.7499 114.403L97.76 115.903ZM100.4 116.261L100.198 117.748L100.434 117.78L100.667 117.737L100.4 116.261ZM103.04 115.784L103.284 114.304L103.028 114.262L102.773 114.308L103.04 115.784ZM105.68 116.219L105.436 117.699L105.576 117.722L105.719 117.718L105.68 116.219ZM108.32 116.151L108.359 117.65L108.453 117.648L108.546 117.634L108.32 116.151ZM110.96 115.748L111.313 114.29L111.026 114.221L110.734 114.265L110.96 115.748ZM8 116V117.5H8.1V116V114.5H8V116ZM8.1 116L8.16451 117.499L10.7045 117.389L10.64 115.891L10.5755 114.392L8.03549 114.501L8.1 116ZM10.64 115.891L10.483 117.382L13.123 117.66L13.28 116.169L13.437 114.677L10.797 114.399L10.64 115.891ZM13.28 116.169L13.425 117.662L16.065 117.405L15.92 115.912L15.775 114.419L13.135 114.676L13.28 116.169ZM15.92 115.912L15.9804 117.411L18.6204 117.305L18.56 115.806L18.4996 114.307L15.8596 114.413L15.92 115.912ZM18.56 115.806L18.4437 117.301L21.0837 117.507L21.2 116.011L21.3163 114.516L18.6763 114.31L18.56 115.806ZM21.2 116.011L21.1948 117.511L23.8348 117.52L23.84 116.02L23.8452 114.52L21.2052 114.511L21.2 116.011ZM23.84 116.02L23.9474 117.516L26.5874 117.327L26.48 115.831L26.3726 114.334L23.7326 114.524L23.84 116.02ZM26.48 115.831L26.4377 117.33L29.0777 117.404L29.12 115.905L29.1623 114.406L26.5223 114.331L26.48 115.831ZM29.12 115.905L28.9437 117.395L31.5837 117.707L31.76 116.217L31.9363 114.728L29.2963 114.415L29.12 115.905ZM31.76 116.217L32.0032 117.698L34.6432 117.264L34.4 115.784L34.1568 114.303L31.5168 114.737L31.76 116.217ZM34.4 115.784L34.3207 117.282L36.9607 117.421L37.04 115.923L37.1193 114.426L34.4793 114.286L34.4 115.784ZM37.04 115.923L37.1379 117.42L39.7779 117.248L39.68 115.751L39.5821 114.254L36.9421 114.427L37.04 115.923ZM39.68 115.751L39.4983 117.24L42.1383 117.562L42.32 116.073L42.5017 114.584L39.8617 114.262L39.68 115.751ZM42.32 116.073L42.3692 117.572L45.0092 117.486L44.96 115.986L44.9108 114.487L42.2708 114.574L42.32 116.073ZM44.96 115.986L45.0083 117.486L47.6483 117.401L47.6 115.901L47.5517 114.402L44.9117 114.487L44.96 115.986ZM47.6 115.901L47.693 117.398L50.333 117.234L50.24 115.737L50.147 114.24L47.507 114.404L47.6 115.901ZM50.24 115.737L49.9788 117.214L52.6188 117.681L52.88 116.204L53.1412 114.727L50.5012 114.26L50.24 115.737ZM52.88 116.204L53.1393 117.682L55.7793 117.218L55.52 115.741L55.2606 114.263L52.6207 114.727L52.88 116.204ZM55.52 115.741L55.3792 117.234L58.0192 117.483L58.16 115.99L58.3008 114.496L55.6608 114.247L55.52 115.741ZM58.16 115.99L58.2409 117.487L60.8809 117.345L60.8 115.847L60.7191 114.349L58.0791 114.492L58.16 115.99ZM60.8 115.847L60.5874 117.332L63.2274 117.71L63.44 116.225L63.6526 114.74L61.0126 114.362L60.8 115.847ZM63.44 116.225L63.7137 117.7L66.3537 117.21L66.08 115.735L65.8063 114.26L63.1663 114.75L63.44 116.225ZM66.08 115.735L66.0018 117.233L68.6418 117.371L68.72 115.873L68.7982 114.375L66.1582 114.237L66.08 115.735ZM68.72 115.873L68.6878 117.373L71.3278 117.429L71.36 115.93L71.3922 114.43L68.7522 114.373L68.72 115.873ZM71.36 115.93L71.3849 117.429L74.0249 117.386L74 115.886L73.975 114.386L71.335 114.43L71.36 115.93ZM74 115.886L73.815 117.374L76.455 117.702L76.64 116.214L76.825 114.725L74.185 114.397L74 115.886ZM76.64 116.214L76.7765 117.708L79.4165 117.466L79.28 115.973L79.1435 114.479L76.5035 114.72L76.64 116.214ZM79.28 115.973L79.2915 117.473L81.9315 117.452L81.92 115.952L81.9085 114.452L79.2685 114.473L79.28 115.973ZM81.92 115.952L81.7512 117.443L84.3912 117.742L84.56 116.251L84.7288 114.761L82.0888 114.462L81.92 115.952ZM84.56 116.251L84.783 117.735L87.423 117.338L87.2 115.854L86.977 114.371L84.337 114.768L84.56 116.251ZM87.2 115.854L87.1266 117.353L89.7666 117.482L89.84 115.984L89.9134 114.486L87.2734 114.356L87.2 115.854ZM89.84 115.984L89.7545 117.481L92.3945 117.632L92.48 116.135L92.5655 114.637L89.9255 114.486L89.84 115.984ZM92.48 116.135L92.6008 117.63L95.2408 117.416L95.12 115.921L94.9992 114.426L92.3592 114.639L92.48 116.135ZM95.12 115.921L95.1301 117.421L97.7701 117.403L97.76 115.903L97.7499 114.403L95.1099 114.421L95.12 115.921ZM97.76 115.903L97.5584 117.39L100.198 117.748L100.4 116.261L100.602 114.775L97.9616 114.417L97.76 115.903ZM100.4 116.261L100.667 117.737L103.307 117.26L103.04 115.784L102.773 114.308L100.133 114.785L100.4 116.261ZM103.04 115.784L102.796 117.264L105.436 117.699L105.68 116.219L105.924 114.738L103.284 114.304L103.04 115.784ZM105.68 116.219L105.719 117.718L108.359 117.65L108.32 116.151L108.281 114.651L105.641 114.719L105.68 116.219ZM108.32 116.151L108.546 117.634L111.186 117.231L110.96 115.748L110.734 114.265L108.094 114.668L108.32 116.151ZM110.96 115.748L110.607 117.206L111.647 117.458L112 116L112.353 114.542L111.313 114.29L110.96 115.748Z" fill="black"/>
<path d="M8.1 50V51.5H8.13227L8.16451 51.4986L8.1 50ZM10.64 49.8907L10.797 48.3989L10.6865 48.3873L10.5755 48.3921L10.64 49.8907ZM13.28 50.1686L13.123 51.6603L13.2739 51.6762L13.425 51.6615L13.28 50.1686ZM15.92 49.9122L15.8596 48.4134L15.8172 48.4151L15.775 48.4192L15.92 49.9122ZM18.56 49.8058L18.6763 48.3103L18.588 48.3034L18.4996 48.307L18.56 49.8058ZM21.2 50.0111L21.0837 51.5065L21.1392 51.5109L21.1948 51.511L21.2 50.0111ZM23.84 50.0202L23.8348 51.5202L23.8912 51.5204L23.9474 51.5163L23.84 50.0202ZM26.48 49.8306L26.5223 48.3312L26.4473 48.3291L26.3726 48.3345L26.48 49.8306ZM29.12 49.905L29.2963 48.4154L29.2295 48.4075L29.1623 48.4056L29.12 49.905ZM31.76 50.2174L31.5837 51.707L31.7941 51.7319L32.0032 51.6976L31.76 50.2174ZM34.4 49.7836L34.4793 48.2857L34.3171 48.2771L34.1568 48.3035L34.4 49.7836ZM37.04 49.9234L36.9607 51.4213L37.0493 51.426L37.1379 51.4202L37.04 49.9234ZM39.68 49.7507L39.8617 48.2618L39.7223 48.2448L39.5821 48.2539L39.68 49.7507ZM42.32 50.0729L42.1383 51.5619L42.2533 51.5759L42.3692 51.5721L42.32 50.0729ZM44.96 49.9863L44.9117 48.4871L44.9108 48.4871L44.96 49.9863ZM47.6 49.9013L47.6483 51.4005L47.6707 51.3998L47.693 51.3984L47.6 49.9013ZM50.24 49.7373L50.5012 48.2603L50.3253 48.2291L50.147 48.2402L50.24 49.7373ZM52.88 50.2042L52.6188 51.6813L52.879 51.7273L53.1393 51.6816L52.88 50.2042ZM55.52 49.7408L55.6608 48.2474L55.4596 48.2285L55.2606 48.2634L55.52 49.7408ZM58.16 49.9897L58.0192 51.4831L58.1299 51.4935L58.2409 51.4875L58.16 49.9897ZM60.8 49.8471L61.0126 48.3622L60.8665 48.3413L60.7191 48.3493L60.8 49.8471ZM63.44 50.225L63.2274 51.7099L63.4714 51.7448L63.7137 51.6998L63.44 50.225ZM66.08 49.7351L66.1582 48.2371L65.9809 48.2278L65.8063 48.2602L66.08 49.7351ZM68.72 49.873L68.6418 51.3709L68.6647 51.3721L68.6878 51.3726L68.72 49.873ZM71.36 49.9297L71.3278 51.4294L71.3564 51.43L71.3849 51.4295L71.36 49.9297ZM74 49.8858L74.185 48.3972L74.0804 48.3842L73.975 48.386L74 49.8858ZM76.64 50.2139L76.455 51.7024L76.6155 51.7224L76.7765 51.7076L76.64 50.2139ZM79.28 49.9726L79.2685 48.4726L79.2059 48.4731L79.1435 48.4788L79.28 49.9726ZM81.92 49.9524L82.0888 48.4619L81.9989 48.4517L81.9085 48.4524L81.92 49.9524ZM84.56 50.2513L84.3912 51.7418L84.5876 51.764L84.783 51.7347L84.56 50.2513ZM87.2 49.8545L87.2734 48.3563L87.1245 48.349L86.977 48.3712L87.2 49.8545ZM89.84 49.9839L89.9255 48.4863L89.9134 48.4857L89.84 49.9839ZM92.48 50.1346L92.3945 51.6321L92.4978 51.638L92.6008 51.6297L92.48 50.1346ZM95.12 49.9212L95.1099 48.4212L95.0544 48.4216L94.9992 48.4261L95.12 49.9212ZM97.76 49.9033L97.9616 48.4169L97.8562 48.4027L97.7499 48.4034L97.76 49.9033ZM100.4 50.2614L100.198 51.7478L100.434 51.7797L100.667 51.7374L100.4 50.2614ZM103.04 49.7838L103.284 48.3037L103.028 48.2616L102.773 48.3077L103.04 49.7838ZM105.68 50.2185L105.436 51.6986L105.576 51.7217L105.719 51.718L105.68 50.2185ZM108.32 50.1507L108.359 51.6502L108.453 51.6478L108.546 51.6335L108.32 50.1507ZM110.96 49.7479L111.313 48.2901L111.026 48.2205L110.734 48.2651L110.96 49.7479ZM8 50V51.5H8.1V50V48.5H8V50ZM8.1 50L8.16451 51.4986L10.7045 51.3893L10.64 49.8907L10.5755 48.3921L8.03549 48.5014L8.1 50ZM10.64 49.8907L10.483 51.3824L13.123 51.6603L13.28 50.1686L13.437 48.6768L10.797 48.3989L10.64 49.8907ZM13.28 50.1686L13.425 51.6615L16.065 51.4052L15.92 49.9122L15.775 48.4192L13.135 48.6756L13.28 50.1686ZM15.92 49.9122L15.9804 51.411L18.6204 51.3046L18.56 49.8058L18.4996 48.307L15.8596 48.4134L15.92 49.9122ZM18.56 49.8058L18.4437 51.3013L21.0837 51.5065L21.2 50.0111L21.3163 48.5156L18.6763 48.3103L18.56 49.8058ZM21.2 50.0111L21.1948 51.511L23.8348 51.5202L23.84 50.0202L23.8452 48.5202L21.2052 48.5111L21.2 50.0111ZM23.84 50.0202L23.9474 51.5163L26.5874 51.3268L26.48 49.8306L26.3726 48.3345L23.7326 48.524L23.84 50.0202ZM26.48 49.8306L26.4377 51.33L29.0777 51.4044L29.12 49.905L29.1623 48.4056L26.5223 48.3312L26.48 49.8306ZM29.12 49.905L28.9437 51.3946L31.5837 51.707L31.76 50.2174L31.9363 48.7278L29.2963 48.4154L29.12 49.905ZM31.76 50.2174L32.0032 51.6976L34.6432 51.2638L34.4 49.7836L34.1568 48.3035L31.5168 48.7373L31.76 50.2174ZM34.4 49.7836L34.3207 51.2815L36.9607 51.4213L37.04 49.9234L37.1193 48.4255L34.4793 48.2857L34.4 49.7836ZM37.04 49.9234L37.1379 51.4202L39.7779 51.2476L39.68 49.7507L39.5821 48.2539L36.9421 48.4266L37.04 49.9234ZM39.68 49.7507L39.4983 51.2397L42.1383 51.5619L42.32 50.0729L42.5017 48.584L39.8617 48.2618L39.68 49.7507ZM42.32 50.0729L42.3692 51.5721L45.0092 51.4855L44.96 49.9863L44.9108 48.4871L42.2708 48.5737L42.32 50.0729ZM44.96 49.9863L45.0083 51.4856L47.6483 51.4005L47.6 49.9013L47.5517 48.4021L44.9117 48.4871L44.96 49.9863ZM47.6 49.9013L47.693 51.3984L50.333 51.2344L50.24 49.7373L50.147 48.2402L47.507 48.4042L47.6 49.9013ZM50.24 49.7373L49.9788 51.2144L52.6188 51.6813L52.88 50.2042L53.1412 48.7271L50.5012 48.2603L50.24 49.7373ZM52.88 50.2042L53.1393 51.6816L55.7793 51.2182L55.52 49.7408L55.2606 48.2634L52.6207 48.7268L52.88 50.2042ZM55.52 49.7408L55.3792 51.2342L58.0192 51.4831L58.16 49.9897L58.3008 48.4963L55.6608 48.2474L55.52 49.7408ZM58.16 49.9897L58.2409 51.4875L60.8809 51.3449L60.8 49.8471L60.7191 48.3493L58.0791 48.4919L58.16 49.9897ZM60.8 49.8471L60.5874 51.3319L63.2274 51.7099L63.44 50.225L63.6526 48.7402L61.0126 48.3622L60.8 49.8471ZM63.44 50.225L63.7137 51.6998L66.3537 51.2099L66.08 49.7351L65.8063 48.2602L63.1663 48.7502L63.44 50.225ZM66.08 49.7351L66.0018 51.233L68.6418 51.3709L68.72 49.873L68.7982 48.375L66.1582 48.2371L66.08 49.7351ZM68.72 49.873L68.6878 51.3726L71.3278 51.4294L71.36 49.9297L71.3922 48.43L68.7522 48.3733L68.72 49.873ZM71.36 49.9297L71.3849 51.4295L74.0249 51.3856L74 49.8858L73.975 48.386L71.335 48.4299L71.36 49.9297ZM74 49.8858L73.815 51.3743L76.455 51.7024L76.64 50.2139L76.825 48.7253L74.185 48.3972L74 49.8858ZM76.64 50.2139L76.7765 51.7076L79.4165 51.4663L79.28 49.9726L79.1435 48.4788L76.5035 48.7201L76.64 50.2139ZM79.28 49.9726L79.2915 51.4725L81.9315 51.4523L81.92 49.9524L81.9085 48.4524L79.2685 48.4726L79.28 49.9726ZM81.92 49.9524L81.7512 51.4429L84.3912 51.7418L84.56 50.2513L84.7288 48.7608L82.0888 48.4619L81.92 49.9524ZM84.56 50.2513L84.783 51.7347L87.423 51.3378L87.2 49.8545L86.977 48.3712L84.337 48.768L84.56 50.2513ZM87.2 49.8545L87.1266 51.3527L89.7666 51.4821L89.84 49.9839L89.9134 48.4857L87.2734 48.3563L87.2 49.8545ZM89.84 49.9839L89.7545 51.4814L92.3945 51.6321L92.48 50.1346L92.5655 48.637L89.9255 48.4863L89.84 49.9839ZM92.48 50.1346L92.6008 51.6297L95.2408 51.4163L95.12 49.9212L94.9992 48.4261L92.3592 48.6394L92.48 50.1346ZM95.12 49.9212L95.1301 51.4212L97.7701 51.4033L97.76 49.9033L97.7499 48.4034L95.1099 48.4212L95.12 49.9212ZM97.76 49.9033L97.5584 51.3897L100.198 51.7478L100.4 50.2614L100.602 48.775L97.9616 48.4169L97.76 49.9033ZM100.4 50.2614L100.667 51.7374L103.307 51.2598L103.04 49.7838L102.773 48.3077L100.133 48.7853L100.4 50.2614ZM103.04 49.7838L102.796 51.2638L105.436 51.6986L105.68 50.2185L105.924 48.7384L103.284 48.3037L103.04 49.7838ZM105.68 50.2185L105.719 51.718L108.359 51.6502L108.32 50.1507L108.281 48.6512L105.641 48.719L105.68 50.2185ZM108.32 50.1507L108.546 51.6335L111.186 51.2308L110.96 49.7479L110.734 48.2651L108.094 48.6678L108.32 50.1507ZM110.96 49.7479L110.607 51.2057L111.647 51.4578L112 50L112.353 48.5422L111.313 48.2901L110.96 49.7479Z" fill="black"/>
<path d="M8.1 55V56.5H8.13227L8.16451 56.4986L8.1 55ZM10.64 54.8907L10.797 53.3989L10.6865 53.3873L10.5755 53.3921L10.64 54.8907ZM13.28 55.1686L13.123 56.6603L13.2739 56.6762L13.425 56.6615L13.28 55.1686ZM15.92 54.9122L15.8596 53.4134L15.8172 53.4151L15.775 53.4192L15.92 54.9122ZM18.56 54.8058L18.6763 53.3103L18.588 53.3034L18.4996 53.307L18.56 54.8058ZM21.2 55.0111L21.0837 56.5065L21.1392 56.5109L21.1948 56.511L21.2 55.0111ZM23.84 55.0202L23.8348 56.5202L23.8912 56.5204L23.9474 56.5163L23.84 55.0202ZM26.48 54.8306L26.5223 53.3312L26.4473 53.3291L26.3726 53.3345L26.48 54.8306ZM29.12 54.905L29.2963 53.4154L29.2295 53.4075L29.1623 53.4056L29.12 54.905ZM31.76 55.2174L31.5837 56.707L31.7941 56.7319L32.0032 56.6976L31.76 55.2174ZM34.4 54.7836L34.4793 53.2857L34.3171 53.2771L34.1568 53.3035L34.4 54.7836ZM37.04 54.9234L36.9607 56.4213L37.0493 56.426L37.1379 56.4202L37.04 54.9234ZM39.68 54.7507L39.8617 53.2618L39.7223 53.2448L39.5821 53.2539L39.68 54.7507ZM42.32 55.0729L42.1383 56.5619L42.2533 56.5759L42.3692 56.5721L42.32 55.0729ZM44.96 54.9863L44.9117 53.4871L44.9108 53.4871L44.96 54.9863ZM47.6 54.9013L47.6483 56.4005L47.6707 56.3998L47.693 56.3984L47.6 54.9013ZM50.24 54.7373L50.5012 53.2603L50.3253 53.2291L50.147 53.2402L50.24 54.7373ZM52.88 55.2042L52.6188 56.6813L52.879 56.7273L53.1393 56.6816L52.88 55.2042ZM55.52 54.7408L55.6608 53.2474L55.4596 53.2285L55.2606 53.2634L55.52 54.7408ZM58.16 54.9897L58.0192 56.4831L58.1299 56.4935L58.2409 56.4875L58.16 54.9897ZM60.8 54.8471L61.0126 53.3622L60.8665 53.3413L60.7191 53.3493L60.8 54.8471ZM63.44 55.225L63.2274 56.7099L63.4714 56.7448L63.7137 56.6998L63.44 55.225ZM66.08 54.7351L66.1582 53.2371L65.9809 53.2278L65.8063 53.2602L66.08 54.7351ZM68.72 54.873L68.6418 56.3709L68.6647 56.3721L68.6878 56.3726L68.72 54.873ZM71.36 54.9297L71.3278 56.4294L71.3564 56.43L71.3849 56.4295L71.36 54.9297ZM74 54.8858L74.185 53.3972L74.0804 53.3842L73.975 53.386L74 54.8858ZM76.64 55.2139L76.455 56.7024L76.6155 56.7224L76.7765 56.7076L76.64 55.2139ZM79.28 54.9726L79.2685 53.4726L79.2059 53.4731L79.1435 53.4788L79.28 54.9726ZM81.92 54.9524L82.0888 53.4619L81.9989 53.4517L81.9085 53.4524L81.92 54.9524ZM84.56 55.2513L84.3912 56.7418L84.5876 56.764L84.783 56.7347L84.56 55.2513ZM87.2 54.8545L87.2734 53.3563L87.1245 53.349L86.977 53.3712L87.2 54.8545ZM89.84 54.9839L89.9255 53.4863L89.9134 53.4857L89.84 54.9839ZM92.48 55.1346L92.3945 56.6321L92.4978 56.638L92.6008 56.6297L92.48 55.1346ZM95.12 54.9212L95.1099 53.4212L95.0544 53.4216L94.9992 53.4261L95.12 54.9212ZM97.76 54.9033L97.9616 53.4169L97.8562 53.4027L97.7499 53.4034L97.76 54.9033ZM100.4 55.2614L100.198 56.7478L100.434 56.7797L100.667 56.7374L100.4 55.2614ZM103.04 54.7838L103.284 53.3037L103.028 53.2616L102.773 53.3077L103.04 54.7838ZM105.68 55.2185L105.436 56.6986L105.576 56.7217L105.719 56.718L105.68 55.2185ZM108.32 55.1507L108.359 56.6502L108.453 56.6478L108.546 56.6335L108.32 55.1507ZM110.96 54.7479L111.313 53.2901L111.026 53.2205L110.734 53.2651L110.96 54.7479ZM8 55V56.5H8.1V55V53.5H8V55ZM8.1 55L8.16451 56.4986L10.7045 56.3893L10.64 54.8907L10.5755 53.3921L8.03549 53.5014L8.1 55ZM10.64 54.8907L10.483 56.3824L13.123 56.6603L13.28 55.1686L13.437 53.6768L10.797 53.3989L10.64 54.8907ZM13.28 55.1686L13.425 56.6615L16.065 56.4052L15.92 54.9122L15.775 53.4192L13.135 53.6756L13.28 55.1686ZM15.92 54.9122L15.9804 56.411L18.6204 56.3046L18.56 54.8058L18.4996 53.307L15.8596 53.4134L15.92 54.9122ZM18.56 54.8058L18.4437 56.3013L21.0837 56.5065L21.2 55.0111L21.3163 53.5156L18.6763 53.3103L18.56 54.8058ZM21.2 55.0111L21.1948 56.511L23.8348 56.5202L23.84 55.0202L23.8452 53.5202L21.2052 53.5111L21.2 55.0111ZM23.84 55.0202L23.9474 56.5163L26.5874 56.3268L26.48 54.8306L26.3726 53.3345L23.7326 53.524L23.84 55.0202ZM26.48 54.8306L26.4377 56.33L29.0777 56.4044L29.12 54.905L29.1623 53.4056L26.5223 53.3312L26.48 54.8306ZM29.12 54.905L28.9437 56.3946L31.5837 56.707L31.76 55.2174L31.9363 53.7278L29.2963 53.4154L29.12 54.905ZM31.76 55.2174L32.0032 56.6976L34.6432 56.2638L34.4 54.7836L34.1568 53.3035L31.5168 53.7373L31.76 55.2174ZM34.4 54.7836L34.3207 56.2815L36.9607 56.4213L37.04 54.9234L37.1193 53.4255L34.4793 53.2857L34.4 54.7836ZM37.04 54.9234L37.1379 56.4202L39.7779 56.2476L39.68 54.7507L39.5821 53.2539L36.9421 53.4266L37.04 54.9234ZM39.68 54.7507L39.4983 56.2397L42.1383 56.5619L42.32 55.0729L42.5017 53.584L39.8617 53.2618L39.68 54.7507ZM42.32 55.0729L42.3692 56.5721L45.0092 56.4855L44.96 54.9863L44.9108 53.4871L42.2708 53.5737L42.32 55.0729ZM44.96 54.9863L45.0083 56.4856L47.6483 56.4005L47.6 54.9013L47.5517 53.4021L44.9117 53.4871L44.96 54.9863ZM47.6 54.9013L47.693 56.3984L50.333 56.2344L50.24 54.7373L50.147 53.2402L47.507 53.4042L47.6 54.9013ZM50.24 54.7373L49.9788 56.2144L52.6188 56.6813L52.88 55.2042L53.1412 53.7271L50.5012 53.2603L50.24 54.7373ZM52.88 55.2042L53.1393 56.6816L55.7793 56.2182L55.52 54.7408L55.2606 53.2634L52.6207 53.7268L52.88 55.2042ZM55.52 54.7408L55.3792 56.2342L58.0192 56.4831L58.16 54.9897L58.3008 53.4963L55.6608 53.2474L55.52 54.7408ZM58.16 54.9897L58.2409 56.4875L60.8809 56.3449L60.8 54.8471L60.7191 53.3493L58.0791 53.4919L58.16 54.9897ZM60.8 54.8471L60.5874 56.3319L63.2274 56.7099L63.44 55.225L63.6526 53.7402L61.0126 53.3622L60.8 54.8471ZM63.44 55.225L63.7137 56.6998L66.3537 56.2099L66.08 54.7351L65.8063 53.2602L63.1663 53.7502L63.44 55.225ZM66.08 54.7351L66.0018 56.233L68.6418 56.3709L68.72 54.873L68.7982 53.375L66.1582 53.2371L66.08 54.7351ZM68.72 54.873L68.6878 56.3726L71.3278 56.4294L71.36 54.9297L71.3922 53.43L68.7522 53.3733L68.72 54.873ZM71.36 54.9297L71.3849 56.4295L74.0249 56.3856L74 54.8858L73.975 53.386L71.335 53.4299L71.36 54.9297ZM74 54.8858L73.815 56.3743L76.455 56.7024L76.64 55.2139L76.825 53.7253L74.185 53.3972L74 54.8858ZM76.64 55.2139L76.7765 56.7076L79.4165 56.4663L79.28 54.9726L79.1435 53.4788L76.5035 53.7201L76.64 55.2139ZM79.28 54.9726L79.2915 56.4725L81.9315 56.4523L81.92 54.9524L81.9085 53.4524L79.2685 53.4726L79.28 54.9726ZM81.92 54.9524L81.7512 56.4429L84.3912 56.7418L84.56 55.2513L84.7288 53.7608L82.0888 53.4619L81.92 54.9524ZM84.56 55.2513L84.783 56.7347L87.423 56.3378L87.2 54.8545L86.977 53.3712L84.337 53.768L84.56 55.2513ZM87.2 54.8545L87.1266 56.3527L89.7666 56.4821L89.84 54.9839L89.9134 53.4857L87.2734 53.3563L87.2 54.8545ZM89.84 54.9839L89.7545 56.4814L92.3945 56.6321L92.48 55.1346L92.5655 53.637L89.9255 53.4863L89.84 54.9839ZM92.48 55.1346L92.6008 56.6297L95.2408 56.4163L95.12 54.9212L94.9992 53.4261L92.3592 53.6394L92.48 55.1346ZM95.12 54.9212L95.1301 56.4212L97.7701 56.4033L97.76 54.9033L97.7499 53.4034L95.1099 53.4212L95.12 54.9212ZM97.76 54.9033L97.5584 56.3897L100.198 56.7478L100.4 55.2614L100.602 53.775L97.9616 53.4169L97.76 54.9033ZM100.4 55.2614L100.667 56.7374L103.307 56.2598L103.04 54.7838L102.773 53.3077L100.133 53.7853L100.4 55.2614ZM103.04 54.7838L102.796 56.2638L105.436 56.6986L105.68 55.2185L105.924 53.7384L103.284 53.3037L103.04 54.7838ZM105.68 55.2185L105.719 56.718L108.359 56.6502L108.32 55.1507L108.281 53.6512L105.641 53.719L105.68 55.2185ZM108.32 55.1507L108.546 56.6335L111.186 56.2308L110.96 54.7479L110.734 53.2651L108.094 53.6678L108.32 55.1507ZM110.96 54.7479L110.607 56.2057L111.647 56.4578L112 55L112.353 53.5422L111.313 53.2901L110.96 54.7479Z" fill="black"/>
<path d="M8.1 20V21.5H8.13227L8.16451 21.4986L8.1 20ZM10.64 19.8907L10.797 18.3989L10.6865 18.3873L10.5755 18.3921L10.64 19.8907ZM13.28 20.1686L13.123 21.6603L13.2739 21.6762L13.425 21.6615L13.28 20.1686ZM15.92 19.9122L15.8596 18.4134L15.8172 18.4151L15.775 18.4192L15.92 19.9122ZM18.56 19.8058L18.6763 18.3103L18.588 18.3034L18.4996 18.307L18.56 19.8058ZM21.2 20.0111L21.0837 21.5065L21.1392 21.5109L21.1948 21.511L21.2 20.0111ZM23.84 20.0202L23.8348 21.5202L23.8912 21.5204L23.9474 21.5163L23.84 20.0202ZM26.48 19.8306L26.5223 18.3312L26.4473 18.3291L26.3726 18.3345L26.48 19.8306ZM29.12 19.905L29.2963 18.4154L29.2295 18.4075L29.1623 18.4056L29.12 19.905ZM31.76 20.2174L31.5837 21.707L31.7941 21.7319L32.0032 21.6976L31.76 20.2174ZM34.4 19.7836L34.4793 18.2857L34.3171 18.2771L34.1568 18.3035L34.4 19.7836ZM37.04 19.9234L36.9607 21.4213L37.0493 21.426L37.1379 21.4202L37.04 19.9234ZM39.68 19.7507L39.8617 18.2618L39.7223 18.2448L39.5821 18.2539L39.68 19.7507ZM42.32 20.0729L42.1383 21.5619L42.2533 21.5759L42.3692 21.5721L42.32 20.0729ZM44.96 19.9863L44.9117 18.4871L44.9108 18.4871L44.96 19.9863ZM47.6 19.9013L47.6483 21.4005L47.6707 21.3998L47.693 21.3984L47.6 19.9013ZM50.24 19.7373L50.5012 18.2603L50.3253 18.2291L50.147 18.2402L50.24 19.7373ZM52.88 20.2042L52.6188 21.6813L52.879 21.7273L53.1393 21.6816L52.88 20.2042ZM55.52 19.7408L55.6608 18.2474L55.4596 18.2285L55.2606 18.2634L55.52 19.7408ZM58.16 19.9897L58.0192 21.4831L58.1299 21.4935L58.2409 21.4875L58.16 19.9897ZM60.8 19.8471L61.0126 18.3622L60.8665 18.3413L60.7191 18.3493L60.8 19.8471ZM63.44 20.225L63.2274 21.7099L63.4714 21.7448L63.7137 21.6998L63.44 20.225ZM66.08 19.7351L66.1582 18.2371L65.9809 18.2278L65.8063 18.2602L66.08 19.7351ZM68.72 19.873L68.6418 21.3709L68.6647 21.3721L68.6878 21.3726L68.72 19.873ZM71.36 19.9297L71.3278 21.4294L71.3564 21.43L71.3849 21.4295L71.36 19.9297ZM74 19.8858L74.185 18.3972L74.0804 18.3842L73.975 18.386L74 19.8858ZM76.64 20.2139L76.455 21.7024L76.6155 21.7224L76.7765 21.7076L76.64 20.2139ZM79.28 19.9726L79.2685 18.4726L79.2059 18.4731L79.1435 18.4788L79.28 19.9726ZM81.92 19.9524L82.0888 18.4619L81.9989 18.4517L81.9085 18.4524L81.92 19.9524ZM84.56 20.2513L84.3912 21.7418L84.5876 21.764L84.783 21.7347L84.56 20.2513ZM87.2 19.8545L87.2734 18.3563L87.1245 18.349L86.977 18.3712L87.2 19.8545ZM89.84 19.9839L89.9255 18.4863L89.9134 18.4857L89.84 19.9839ZM92.48 20.1346L92.3945 21.6321L92.4978 21.638L92.6008 21.6297L92.48 20.1346ZM95.12 19.9212L95.1099 18.4212L95.0544 18.4216L94.9992 18.4261L95.12 19.9212ZM97.76 19.9033L97.9616 18.4169L97.8562 18.4027L97.7499 18.4034L97.76 19.9033ZM100.4 20.2614L100.198 21.7478L100.434 21.7797L100.667 21.7374L100.4 20.2614ZM103.04 19.7838L103.284 18.3037L103.028 18.2616L102.773 18.3077L103.04 19.7838ZM105.68 20.2185L105.436 21.6986L105.576 21.7217L105.719 21.718L105.68 20.2185ZM108.32 20.1507L108.359 21.6502L108.453 21.6478L108.546 21.6335L108.32 20.1507ZM110.96 19.7479L111.313 18.2901L111.026 18.2205L110.734 18.2651L110.96 19.7479ZM8 20V21.5H8.1V20V18.5H8V20ZM8.1 20L8.16451 21.4986L10.7045 21.3893L10.64 19.8907L10.5755 18.3921L8.03549 18.5014L8.1 20ZM10.64 19.8907L10.483 21.3824L13.123 21.6603L13.28 20.1686L13.437 18.6768L10.797 18.3989L10.64 19.8907ZM13.28 20.1686L13.425 21.6615L16.065 21.4052L15.92 19.9122L15.775 18.4192L13.135 18.6756L13.28 20.1686ZM15.92 19.9122L15.9804 21.411L18.6204 21.3046L18.56 19.8058L18.4996 18.307L15.8596 18.4134L15.92 19.9122ZM18.56 19.8058L18.4437 21.3013L21.0837 21.5065L21.2 20.0111L21.3163 18.5156L18.6763 18.3103L18.56 19.8058ZM21.2 20.0111L21.1948 21.511L23.8348 21.5202L23.84 20.0202L23.8452 18.5202L21.2052 18.5111L21.2 20.0111ZM23.84 20.0202L23.9474 21.5163L26.5874 21.3268L26.48 19.8306L26.3726 18.3345L23.7326 18.524L23.84 20.0202ZM26.48 19.8306L26.4377 21.33L29.0777 21.4044L29.12 19.905L29.1623 18.4056L26.5223 18.3312L26.48 19.8306ZM29.12 19.905L28.9437 21.3946L31.5837 21.707L31.76 20.2174L31.9363 18.7278L29.2963 18.4154L29.12 19.905ZM31.76 20.2174L32.0032 21.6976L34.6432 21.2638L34.4 19.7836L34.1568 18.3035L31.5168 18.7373L31.76 20.2174ZM34.4 19.7836L34.3207 21.2815L36.9607 21.4213L37.04 19.9234L37.1193 18.4255L34.4793 18.2857L34.4 19.7836ZM37.04 19.9234L37.1379 21.4202L39.7779 21.2476L39.68 19.7507L39.5821 18.2539L36.9421 18.4266L37.04 19.9234ZM39.68 19.7507L39.4983 21.2397L42.1383 21.5619L42.32 20.0729L42.5017 18.584L39.8617 18.2618L39.68 19.7507ZM42.32 20.0729L42.3692 21.5721L45.0092 21.4855L44.96 19.9863L44.9108 18.4871L42.2708 18.5737L42.32 20.0729ZM44.96 19.9863L45.0083 21.4856L47.6483 21.4005L47.6 19.9013L47.5517 18.4021L44.9117 18.4871L44.96 19.9863ZM47.6 19.9013L47.693 21.3984L50.333 21.2344L50.24 19.7373L50.147 18.2402L47.507 18.4042L47.6 19.9013ZM50.24 19.7373L49.9788 21.2144L52.6188 21.6813L52.88 20.2042L53.1412 18.7271L50.5012 18.2603L50.24 19.7373ZM52.88 20.2042L53.1393 21.6816L55.7793 21.2182L55.52 19.7408L55.2606 18.2634L52.6207 18.7268L52.88 20.2042ZM55.52 19.7408L55.3792 21.2342L58.0192 21.4831L58.16 19.9897L58.3008 18.4963L55.6608 18.2474L55.52 19.7408ZM58.16 19.9897L58.2409 21.4875L60.8809 21.3449L60.8 19.8471L60.7191 18.3493L58.0791 18.4919L58.16 19.9897ZM60.8 19.8471L60.5874 21.3319L63.2274 21.7099L63.44 20.225L63.6526 18.7402L61.0126 18.3622L60.8 19.8471ZM63.44 20.225L63.7137 21.6998L66.3537 21.2099L66.08 19.7351L65.8063 18.2602L63.1663 18.7502L63.44 20.225ZM66.08 19.7351L66.0018 21.233L68.6418 21.3709L68.72 19.873L68.7982 18.375L66.1582 18.2371L66.08 19.7351ZM68.72 19.873L68.6878 21.3726L71.3278 21.4294L71.36 19.9297L71.3922 18.43L68.7522 18.3733L68.72 19.873ZM71.36 19.9297L71.3849 21.4295L74.0249 21.3856L74 19.8858L73.975 18.386L71.335 18.4299L71.36 19.9297ZM74 19.8858L73.815 21.3743L76.455 21.7024L76.64 20.2139L76.825 18.7253L74.185 18.3972L74 19.8858ZM76.64 20.2139L76.7765 21.7076L79.4165 21.4663L79.28 19.9726L79.1435 18.4788L76.5035 18.7201L76.64 20.2139ZM79.28 19.9726L79.2915 21.4725L81.9315 21.4523L81.92 19.9524L81.9085 18.4524L79.2685 18.4726L79.28 19.9726ZM81.92 19.9524L81.7512 21.4429L84.3912 21.7418L84.56 20.2513L84.7288 18.7608L82.0888 18.4619L81.92 19.9524ZM84.56 20.2513L84.783 21.7347L87.423 21.3378L87.2 19.8545L86.977 18.3712L84.337 18.768L84.56 20.2513ZM87.2 19.8545L87.1266 21.3527L89.7666 21.4821L89.84 19.9839L89.9134 18.4857L87.2734 18.3563L87.2 19.8545ZM89.84 19.9839L89.7545 21.4814L92.3945 21.6321L92.48 20.1346L92.5655 18.637L89.9255 18.4863L89.84 19.9839ZM92.48 20.1346L92.6008 21.6297L95.2408 21.4163L95.12 19.9212L94.9992 18.4261L92.3592 18.6394L92.48 20.1346ZM95.12 19.9212L95.1301 21.4212L97.7701 21.4033L97.76 19.9033L97.7499 18.4034L95.1099 18.4212L95.12 19.9212ZM97.76 19.9033L97.5584 21.3897L100.198 21.7478L100.4 20.2614L100.602 18.775L97.9616 18.4169L97.76 19.9033ZM100.4 20.2614L100.667 21.7374L103.307 21.2598L103.04 19.7838L102.773 18.3077L100.133 18.7853L100.4 20.2614ZM103.04 19.7838L102.796 21.2638L105.436 21.6986L105.68 20.2185L105.924 18.7384L103.284 18.3037L103.04 19.7838ZM105.68 20.2185L105.719 21.718L108.359 21.6502L108.32 20.1507L108.281 18.6512L105.641 18.719L105.68 20.2185ZM108.32 20.1507L108.546 21.6335L111.186 21.2308L110.96 19.7479L110.734 18.2651L108.094 18.6678L108.32 20.1507ZM110.96 19.7479L110.607 21.2057L111.647 21.4578L112 20L112.353 18.5422L111.313 18.2901L110.96 19.7479Z" fill="black"/>
<path d="M8.1 15V16.5H8.13227L8.16451 16.4986L8.1 15ZM10.64 14.8907L10.797 13.3989L10.6865 13.3873L10.5755 13.3921L10.64 14.8907ZM13.28 15.1686L13.123 16.6603L13.2739 16.6762L13.425 16.6615L13.28 15.1686ZM15.92 14.9122L15.8596 13.4134L15.8172 13.4151L15.775 13.4192L15.92 14.9122ZM18.56 14.8058L18.6763 13.3103L18.588 13.3034L18.4996 13.307L18.56 14.8058ZM21.2 15.0111L21.0837 16.5065L21.1392 16.5109L21.1948 16.511L21.2 15.0111ZM23.84 15.0202L23.8348 16.5202L23.8912 16.5204L23.9474 16.5163L23.84 15.0202ZM26.48 14.8306L26.5223 13.3312L26.4473 13.3291L26.3726 13.3345L26.48 14.8306ZM29.12 14.905L29.2963 13.4154L29.2295 13.4075L29.1623 13.4056L29.12 14.905ZM31.76 15.2174L31.5837 16.707L31.7941 16.7319L32.0032 16.6976L31.76 15.2174ZM34.4 14.7836L34.4793 13.2857L34.3171 13.2771L34.1568 13.3035L34.4 14.7836ZM37.04 14.9234L36.9607 16.4213L37.0493 16.426L37.1379 16.4202L37.04 14.9234ZM39.68 14.7507L39.8617 13.2618L39.7223 13.2448L39.5821 13.2539L39.68 14.7507ZM42.32 15.0729L42.1383 16.5619L42.2533 16.5759L42.3692 16.5721L42.32 15.0729ZM44.96 14.9863L44.9117 13.4871L44.9108 13.4871L44.96 14.9863ZM47.6 14.9013L47.6483 16.4005L47.6707 16.3998L47.693 16.3984L47.6 14.9013ZM50.24 14.7373L50.5012 13.2603L50.3253 13.2291L50.147 13.2402L50.24 14.7373ZM52.88 15.2042L52.6188 16.6813L52.879 16.7273L53.1393 16.6816L52.88 15.2042ZM55.52 14.7408L55.6608 13.2474L55.4596 13.2285L55.2606 13.2634L55.52 14.7408ZM58.16 14.9897L58.0192 16.4831L58.1299 16.4935L58.2409 16.4875L58.16 14.9897ZM60.8 14.8471L61.0126 13.3622L60.8665 13.3413L60.7191 13.3493L60.8 14.8471ZM63.44 15.225L63.2274 16.7099L63.4714 16.7448L63.7137 16.6998L63.44 15.225ZM66.08 14.7351L66.1582 13.2371L65.9809 13.2278L65.8063 13.2602L66.08 14.7351ZM68.72 14.873L68.6418 16.3709L68.6647 16.3721L68.6878 16.3726L68.72 14.873ZM71.36 14.9297L71.3278 16.4294L71.3564 16.43L71.3849 16.4295L71.36 14.9297ZM74 14.8858L74.185 13.3972L74.0804 13.3842L73.975 13.386L74 14.8858ZM76.64 15.2139L76.455 16.7024L76.6155 16.7224L76.7765 16.7076L76.64 15.2139ZM79.28 14.9726L79.2685 13.4726L79.2059 13.4731L79.1435 13.4788L79.28 14.9726ZM81.92 14.9524L82.0888 13.4619L81.9989 13.4517L81.9085 13.4524L81.92 14.9524ZM84.56 15.2513L84.3912 16.7418L84.5876 16.764L84.783 16.7347L84.56 15.2513ZM87.2 14.8545L87.2734 13.3563L87.1245 13.349L86.977 13.3712L87.2 14.8545ZM89.84 14.9839L89.9255 13.4863L89.9134 13.4857L89.84 14.9839ZM92.48 15.1346L92.3945 16.6321L92.4978 16.638L92.6008 16.6297L92.48 15.1346ZM95.12 14.9212L95.1099 13.4212L95.0544 13.4216L94.9992 13.4261L95.12 14.9212ZM97.76 14.9033L97.9616 13.4169L97.8562 13.4027L97.7499 13.4034L97.76 14.9033ZM100.4 15.2614L100.198 16.7478L100.434 16.7797L100.667 16.7374L100.4 15.2614ZM103.04 14.7838L103.284 13.3037L103.028 13.2616L102.773 13.3077L103.04 14.7838ZM105.68 15.2185L105.436 16.6986L105.576 16.7217L105.719 16.718L105.68 15.2185ZM108.32 15.1507L108.359 16.6502L108.453 16.6478L108.546 16.6335L108.32 15.1507ZM110.96 14.7479L111.313 13.2901L111.026 13.2205L110.734 13.2651L110.96 14.7479ZM8 15V16.5H8.1V15V13.5H8V15ZM8.1 15L8.16451 16.4986L10.7045 16.3893L10.64 14.8907L10.5755 13.3921L8.03549 13.5014L8.1 15ZM10.64 14.8907L10.483 16.3824L13.123 16.6603L13.28 15.1686L13.437 13.6768L10.797 13.3989L10.64 14.8907ZM13.28 15.1686L13.425 16.6615L16.065 16.4052L15.92 14.9122L15.775 13.4192L13.135 13.6756L13.28 15.1686ZM15.92 14.9122L15.9804 16.411L18.6204 16.3046L18.56 14.8058L18.4996 13.307L15.8596 13.4134L15.92 14.9122ZM18.56 14.8058L18.4437 16.3013L21.0837 16.5065L21.2 15.0111L21.3163 13.5156L18.6763 13.3103L18.56 14.8058ZM21.2 15.0111L21.1948 16.511L23.8348 16.5202L23.84 15.0202L23.8452 13.5202L21.2052 13.5111L21.2 15.0111ZM23.84 15.0202L23.9474 16.5163L26.5874 16.3268L26.48 14.8306L26.3726 13.3345L23.7326 13.524L23.84 15.0202ZM26.48 14.8306L26.4377 16.33L29.0777 16.4044L29.12 14.905L29.1623 13.4056L26.5223 13.3312L26.48 14.8306ZM29.12 14.905L28.9437 16.3946L31.5837 16.707L31.76 15.2174L31.9363 13.7278L29.2963 13.4154L29.12 14.905ZM31.76 15.2174L32.0032 16.6976L34.6432 16.2638L34.4 14.7836L34.1568 13.3035L31.5168 13.7373L31.76 15.2174ZM34.4 14.7836L34.3207 16.2815L36.9607 16.4213L37.04 14.9234L37.1193 13.4255L34.4793 13.2857L34.4 14.7836ZM37.04 14.9234L37.1379 16.4202L39.7779 16.2476L39.68 14.7507L39.5821 13.2539L36.9421 13.4266L37.04 14.9234ZM39.68 14.7507L39.4983 16.2397L42.1383 16.5619L42.32 15.0729L42.5017 13.584L39.8617 13.2618L39.68 14.7507ZM42.32 15.0729L42.3692 16.5721L45.0092 16.4855L44.96 14.9863L44.9108 13.4871L42.2708 13.5737L42.32 15.0729ZM44.96 14.9863L45.0083 16.4856L47.6483 16.4005L47.6 14.9013L47.5517 13.4021L44.9117 13.4871L44.96 14.9863ZM47.6 14.9013L47.693 16.3984L50.333 16.2344L50.24 14.7373L50.147 13.2402L47.507 13.4042L47.6 14.9013ZM50.24 14.7373L49.9788 16.2144L52.6188 16.6813L52.88 15.2042L53.1412 13.7271L50.5012 13.2603L50.24 14.7373ZM52.88 15.2042L53.1393 16.6816L55.7793 16.2182L55.52 14.7408L55.2606 13.2634L52.6207 13.7268L52.88 15.2042ZM55.52 14.7408L55.3792 16.2342L58.0192 16.4831L58.16 14.9897L58.3008 13.4963L55.6608 13.2474L55.52 14.7408ZM58.16 14.9897L58.2409 16.4875L60.8809 16.3449L60.8 14.8471L60.7191 13.3493L58.0791 13.4919L58.16 14.9897ZM60.8 14.8471L60.5874 16.3319L63.2274 16.7099L63.44 15.225L63.6526 13.7402L61.0126 13.3622L60.8 14.8471ZM63.44 15.225L63.7137 16.6998L66.3537 16.2099L66.08 14.7351L65.8063 13.2602L63.1663 13.7502L63.44 15.225ZM66.08 14.7351L66.0018 16.233L68.6418 16.3709L68.72 14.873L68.7982 13.375L66.1582 13.2371L66.08 14.7351ZM68.72 14.873L68.6878 16.3726L71.3278 16.4294L71.36 14.9297L71.3922 13.43L68.7522 13.3733L68.72 14.873ZM71.36 14.9297L71.3849 16.4295L74.0249 16.3856L74 14.8858L73.975 13.386L71.335 13.4299L71.36 14.9297ZM74 14.8858L73.815 16.3743L76.455 16.7024L76.64 15.2139L76.825 13.7253L74.185 13.3972L74 14.8858ZM76.64 15.2139L76.7765 16.7076L79.4165 16.4663L79.28 14.9726L79.1435 13.4788L76.5035 13.7201L76.64 15.2139ZM79.28 14.9726L79.2915 16.4725L81.9315 16.4523L81.92 14.9524L81.9085 13.4524L79.2685 13.4726L79.28 14.9726ZM81.92 14.9524L81.7512 16.4429L84.3912 16.7418L84.56 15.2513L84.7288 13.7608L82.0888 13.4619L81.92 14.9524ZM84.56 15.2513L84.783 16.7347L87.423 16.3378L87.2 14.8545L86.977 13.3712L84.337 13.768L84.56 15.2513ZM87.2 14.8545L87.1266 16.3527L89.7666 16.4821L89.84 14.9839L89.9134 13.4857L87.2734 13.3563L87.2 14.8545ZM89.84 14.9839L89.7545 16.4814L92.3945 16.6321L92.48 15.1346L92.5655 13.637L89.9255 13.4863L89.84 14.9839ZM92.48 15.1346L92.6008 16.6297L95.2408 16.4163L95.12 14.9212L94.9992 13.4261L92.3592 13.6394L92.48 15.1346ZM95.12 14.9212L95.1301 16.4212L97.7701 16.4033L97.76 14.9033L97.7499 13.4034L95.1099 13.4212L95.12 14.9212ZM97.76 14.9033L97.5584 16.3897L100.198 16.7478L100.4 15.2614L100.602 13.775L97.9616 13.4169L97.76 14.9033ZM100.4 15.2614L100.667 16.7374L103.307 16.2598L103.04 14.7838L102.773 13.3077L100.133 13.7853L100.4 15.2614ZM103.04 14.7838L102.796 16.2638L105.436 16.6986L105.68 15.2185L105.924 13.7384L103.284 13.3037L103.04 14.7838ZM105.68 15.2185L105.719 16.718L108.359 16.6502L108.32 15.1507L108.281 13.6512L105.641 13.719L105.68 15.2185ZM108.32 15.1507L108.546 16.6335L111.186 16.2308L110.96 14.7479L110.734 13.2651L108.094 13.6678L108.32 15.1507ZM110.96 14.7479L110.607 16.2057L111.647 16.4578L112 15L112.353 13.5422L111.313 13.2901L110.96 14.7479Z" fill="black"/>
<path d="M103 115.9H104.5V115.868L104.499 115.835L103 115.9ZM102.891 113.36L101.399 113.203L101.387 113.313L101.392 113.425L102.891 113.36ZM103.169 110.72L104.66 110.877L104.676 110.726L104.662 110.575L103.169 110.72ZM102.912 108.08L101.413 108.14L101.415 108.183L101.419 108.225L102.912 108.08ZM102.806 105.44L101.31 105.324L101.303 105.412L101.307 105.5L102.806 105.44ZM103.011 102.8L104.507 102.916L104.511 102.861L104.511 102.805L103.011 102.8ZM103.02 100.16L104.52 100.165L104.52 100.109L104.516 100.053L103.02 100.16ZM102.831 97.52L101.331 97.4777L101.329 97.5527L101.334 97.6274L102.831 97.52ZM102.905 94.88L101.415 94.7038L101.408 94.7705L101.406 94.8377L102.905 94.88ZM103.217 92.24L104.707 92.4163L104.732 92.2059L104.698 91.9968L103.217 92.24ZM102.784 89.6L101.298 89.3947L101.267 89.6194L101.303 89.8432L102.784 89.6ZM103.14 87.0231L102.54 85.6484L101.769 85.9848L101.654 86.8178L103.14 87.0231ZM104.751 86.32L105.351 87.6948L106.136 87.3521L106.24 86.5017L104.751 86.32ZM105.073 83.68L106.562 83.8617L106.576 83.7467L106.572 83.6308L105.073 83.68ZM104.986 81.04L103.487 81.0883L103.487 81.0892L104.986 81.04ZM104.901 78.4L106.401 78.3517L106.4 78.3293L106.398 78.307L104.901 78.4ZM104.737 75.76L103.254 75.5352L103.23 75.6933L103.24 75.853L104.737 75.76ZM105.14 73.1039L106.623 73.3287L106.68 72.9547L106.552 72.5986L105.14 73.1039ZM104.24 70.5874L102.783 70.946L102.802 71.0204L102.827 71.0926L104.24 70.5874ZM103.612 68.0375L105.068 67.6789L105.01 67.4429L104.881 67.2372L103.612 68.0375ZM102.211 65.8166L100.932 66.5997L100.937 66.6083L100.942 66.6168L102.211 65.8166ZM100.817 63.5393L102.097 62.7562L101.889 62.417L101.54 62.2252L100.817 63.5393ZM98.4728 62.2493L97.7112 63.5415L97.7302 63.5528L97.7496 63.5634L98.4728 62.2493ZM96.2353 60.9306L96.9969 59.6383L96.835 59.5429L96.6546 59.4904L96.2353 60.9306ZM93.7262 60.2L94.1455 58.7598L93.9546 58.7042L93.7558 58.7003L93.7262 60.2ZM91.1129 60.1485L91.1425 58.6488L91.0771 58.6475L91.0119 58.6519L91.1129 60.1485ZM88.4535 60.328L88.3524 58.8315L88.0228 58.8537L87.733 59.0124L88.4535 60.328ZM86.1152 61.6086L85.3947 60.293L85.3103 60.3392L85.2326 60.3958L86.1152 61.6086ZM83.9903 63.1549L83.1077 61.942L83.06 61.9767L83.0152 62.0151L83.9903 63.1549ZM81.9602 64.8918L80.985 63.7521L80.7269 63.9729L80.5891 64.2835L81.9602 64.8918ZM80.8751 67.3375L82.2325 67.9759L82.2395 67.961L82.2462 67.9459L80.8751 67.3375ZM79.7574 69.7139L78.4001 69.0755L78.3488 69.1846L78.3155 69.3005L79.7574 69.7139ZM79.0268 72.2622L77.5849 71.8488L77.5226 72.0659L77.527 72.2917L79.0268 72.2622ZM79.0788 74.9136L80.5788 74.9034L80.5787 74.8938L80.5785 74.8841L79.0788 74.9136ZM79.0967 77.5536L80.5831 77.7552L80.5973 77.6498L80.5966 77.5434L79.0967 77.5536ZM78.7386 80.1936L77.2522 79.992L77.2203 80.2271L77.2626 80.4606L78.7386 80.1936ZM79.2162 82.8336L80.6963 83.0773L80.7384 82.8216L80.6923 82.5665L79.2162 82.8336ZM78.7815 85.4736L77.3014 85.2298L77.2027 85.8293L77.5489 86.3284L78.7815 85.4736ZM80.0138 87.2504L78.7813 88.1053L78.8166 88.1562L78.8561 88.2041L80.0138 87.2504ZM81.2521 88.7536L82.7521 88.7589L82.754 88.2176L82.4098 87.7999L81.2521 88.7536ZM81.2427 91.3936L82.7269 91.6104L82.7423 91.5052L82.7427 91.3989L81.2427 91.3936ZM80.8569 94.0336L79.3727 93.8167L79.3508 93.9666L79.3593 94.1179L80.8569 94.0336ZM81.0056 96.6736L82.5056 96.6656L82.5054 96.6274L82.5033 96.5892L81.0056 96.6736ZM81.0197 99.3136L82.5192 99.3544L82.5198 99.33L82.5197 99.3056L81.0197 99.3136ZM80.9478 101.954L79.4483 101.913L79.4481 101.922L80.9478 101.954ZM80.8925 104.594L82.3916 104.644L82.392 104.635L82.3922 104.625L80.8925 104.594ZM80.8033 107.234L79.3041 107.183L79.2999 107.308L79.3164 107.432L80.8033 107.234ZM81.1553 109.874L82.6535 109.947L82.6602 109.811L82.6421 109.675L81.1553 109.874ZM81.0259 112.514L79.5277 112.44L79.5229 112.537L79.5308 112.635L81.0259 112.514ZM81.2395 115.154L82.6829 115.562L82.7564 115.302L82.7346 115.033L81.2395 115.154ZM103 116H104.5V115.9H103H101.5V116H103ZM103 115.9L104.499 115.835L104.389 113.295L102.891 113.36L101.392 113.425L101.501 115.965L103 115.9ZM102.891 113.36L104.382 113.517L104.66 110.877L103.169 110.72L101.677 110.563L101.399 113.203L102.891 113.36ZM103.169 110.72L104.662 110.575L104.405 107.935L102.912 108.08L101.419 108.225L101.676 110.865L103.169 110.72ZM102.912 108.08L104.411 108.02L104.305 105.38L102.806 105.44L101.307 105.5L101.413 108.14L102.912 108.08ZM102.806 105.44L104.301 105.556L104.507 102.916L103.011 102.8L101.516 102.684L101.31 105.324L102.806 105.44ZM103.011 102.8L104.511 102.805L104.52 100.165L103.02 100.16L101.52 100.155L101.511 102.795L103.011 102.8ZM103.02 100.16L104.516 100.053L104.327 97.4126L102.831 97.52L101.334 97.6274L101.524 100.267L103.02 100.16ZM102.831 97.52L104.33 97.5623L104.404 94.9223L102.905 94.88L101.406 94.8377L101.331 97.4777L102.831 97.52ZM102.905 94.88L104.395 95.0563L104.707 92.4163L103.217 92.24L101.728 92.0637L101.415 94.7038L102.905 94.88ZM103.217 92.24L104.698 91.9968L104.264 89.3568L102.784 89.6L101.303 89.8432L101.737 92.4832L103.217 92.24ZM102.784 89.6L104.269 89.8053L104.626 87.2285L103.14 87.0231L101.654 86.8178L101.298 89.3947L102.784 89.6ZM103.14 87.0231L103.74 88.3979L105.351 87.6948L104.751 86.32L104.151 84.9452L102.54 85.6484L103.14 87.0231ZM104.751 86.32L106.24 86.5017L106.562 83.8617L105.073 83.68L103.584 83.4983L103.262 86.1383L104.751 86.32ZM105.073 83.68L106.572 83.6308L106.486 80.9908L104.986 81.04L103.487 81.0892L103.574 83.7292L105.073 83.68ZM104.986 81.04L106.486 80.9917L106.401 78.3517L104.901 78.4L103.402 78.4483L103.487 81.0883L104.986 81.04ZM104.901 78.4L106.398 78.307L106.234 75.667L104.737 75.76L103.24 75.853L103.404 78.493L104.901 78.4ZM104.737 75.76L106.22 75.9848L106.623 73.3287L105.14 73.1039L103.657 72.879L103.254 75.5352L104.737 75.76ZM105.14 73.1039L106.552 72.5986L105.652 70.0822L104.24 70.5874L102.827 71.0926L103.728 73.6091L105.14 73.1039ZM104.24 70.5874L105.696 70.2288L105.068 67.6789L103.612 68.0375L102.155 68.3961L102.783 70.946L104.24 70.5874ZM103.612 68.0375L104.881 67.2372L103.48 65.0163L102.211 65.8166L100.942 66.6168L102.343 68.8378L103.612 68.0375ZM102.211 65.8166L103.49 65.0335L102.097 62.7562L100.817 63.5393L99.5378 64.3224L100.932 66.5997L102.211 65.8166ZM100.817 63.5393L101.54 62.2252L99.1959 60.9351L98.4728 62.2493L97.7496 63.5634L100.094 64.8535L100.817 63.5393ZM98.4728 62.2493L99.2344 60.957L96.9969 59.6383L96.2353 60.9306L95.4737 62.2228L97.7112 63.5415L98.4728 62.2493ZM96.2353 60.9306L96.6546 59.4904L94.1455 58.7598L93.7262 60.2L93.3069 61.6402L95.816 62.3708L96.2353 60.9306ZM93.7262 60.2L93.7558 58.7003L91.1425 58.6488L91.1129 60.1485L91.0833 61.6482L93.6966 61.6997L93.7262 60.2ZM91.1129 60.1485L91.0119 58.6519L88.3524 58.8315L88.4535 60.328L88.5545 61.8246L91.2139 61.6451L91.1129 60.1485ZM88.4535 60.328L87.733 59.0124L85.3947 60.293L86.1152 61.6086L86.8357 62.9243L89.174 61.6437L88.4535 60.328ZM86.1152 61.6086L85.2326 60.3958L83.1077 61.942L83.9903 63.1549L84.8729 64.3677L86.9978 62.8215L86.1152 61.6086ZM83.9903 63.1549L83.0152 62.0151L80.985 63.7521L81.9602 64.8918L82.9354 66.0316L84.9655 64.2946L83.9903 63.1549ZM81.9602 64.8918L80.5891 64.2835L79.504 66.7292L80.8751 67.3375L82.2462 67.9459L83.3313 65.5001L81.9602 64.8918ZM80.8751 67.3375L79.5177 66.6992L78.4001 69.0755L79.7574 69.7139L81.1148 70.3523L82.2325 67.9759L80.8751 67.3375ZM79.7574 69.7139L78.3155 69.3005L77.5849 71.8488L79.0268 72.2622L80.4687 72.6757L81.1993 70.1274L79.7574 69.7139ZM79.0268 72.2622L77.527 72.2917L77.5791 74.943L79.0788 74.9136L80.5785 74.8841L80.5265 72.2328L79.0268 72.2622ZM79.0788 74.9136L77.5788 74.9237L77.5967 77.5637L79.0967 77.5536L80.5966 77.5434L80.5788 74.9034L79.0788 74.9136ZM79.0967 77.5536L77.6103 77.352L77.2522 79.992L78.7386 80.1936L80.225 80.3952L80.5831 77.7552L79.0967 77.5536ZM78.7386 80.1936L77.2626 80.4606L77.7402 83.1006L79.2162 82.8336L80.6923 82.5665L80.2147 79.9265L78.7386 80.1936ZM79.2162 82.8336L77.7362 82.5898L77.3014 85.2298L78.7815 85.4736L80.2616 85.7173L80.6963 83.0773L79.2162 82.8336ZM78.7815 85.4736L77.5489 86.3284L78.7813 88.1053L80.0138 87.2504L81.2464 86.3956L80.0141 84.6187L78.7815 85.4736ZM80.0138 87.2504L78.8561 88.2041L80.0943 89.7073L81.2521 88.7536L82.4098 87.7999L81.1716 86.2967L80.0138 87.2504ZM81.2521 88.7536L79.7521 88.7482L79.7427 91.3882L81.2427 91.3936L82.7427 91.3989L82.7521 88.7589L81.2521 88.7536ZM81.2427 91.3936L79.7584 91.1767L79.3727 93.8167L80.8569 94.0336L82.3412 94.2504L82.7269 91.6104L81.2427 91.3936ZM80.8569 94.0336L79.3593 94.1179L79.508 96.7579L81.0056 96.6736L82.5033 96.5892L82.3546 93.9492L80.8569 94.0336ZM81.0056 96.6736L79.5057 96.6816L79.5198 99.3216L81.0197 99.3136L82.5197 99.3056L82.5056 96.6656L81.0056 96.6736ZM81.0197 99.3136L79.5203 99.2727L79.4484 101.913L80.9478 101.954L82.4472 101.994L82.5192 99.3544L81.0197 99.3136ZM80.9478 101.954L79.4481 101.922L79.3928 104.562L80.8925 104.594L82.3922 104.625L82.4475 101.985L80.9478 101.954ZM80.8925 104.594L79.3933 104.543L79.3041 107.183L80.8033 107.234L82.3024 107.284L82.3916 104.644L80.8925 104.594ZM80.8033 107.234L79.3164 107.432L79.6685 110.072L81.1553 109.874L82.6421 109.675L82.2901 107.035L80.8033 107.234ZM81.1553 109.874L79.6571 109.8L79.5277 112.44L81.0259 112.514L82.5241 112.587L82.6535 109.947L81.1553 109.874ZM81.0259 112.514L79.5308 112.635L79.7444 115.275L81.2395 115.154L82.7346 115.033L82.521 112.393L81.0259 112.514ZM81.2395 115.154L79.7962 114.745L79.5567 115.592L81 116L82.4433 116.408L82.6829 115.562L81.2395 115.154Z" fill="black"/>
<path d="M71 115.9H72.5V115.868L72.4986 115.835L71 115.9ZM70.8907 113.36L69.3989 113.203L69.3873 113.313L69.3921 113.425L70.8907 113.36ZM71.1686 110.72L72.6603 110.877L72.6762 110.726L72.6615 110.575L71.1686 110.72ZM70.9122 108.08L69.4134 108.14L69.4151 108.183L69.4192 108.225L70.9122 108.08ZM70.8058 105.44L69.3103 105.324L69.3034 105.412L69.307 105.5L70.8058 105.44ZM71.0111 102.8L72.5065 102.916L72.5109 102.861L72.511 102.805L71.0111 102.8ZM71.0202 100.16L72.5202 100.165L72.5204 100.109L72.5163 100.053L71.0202 100.16ZM70.8306 97.52L69.3312 97.4777L69.3291 97.5527L69.3345 97.6274L70.8306 97.52ZM70.905 94.88L69.4154 94.7038L69.4075 94.7705L69.4056 94.8377L70.905 94.88ZM71.2174 92.24L72.707 92.4163L72.7319 92.2059L72.6976 91.9968L71.2174 92.24ZM70.7836 89.6L69.2977 89.3947L69.2667 89.6194L69.3035 89.8432L70.7836 89.6ZM71.1397 87.0231L70.5397 85.6484L69.769 85.9848L69.6539 86.8178L71.1397 87.0231ZM72.7507 86.32L73.3508 87.6948L74.1359 87.3521L74.2397 86.5017L72.7507 86.32ZM73.0729 83.68L74.5619 83.8617L74.5759 83.7467L74.5721 83.6308L73.0729 83.68ZM72.9863 81.04L71.4871 81.0883L71.4871 81.0892L72.9863 81.04ZM72.9013 78.4L74.4005 78.3517L74.3998 78.3293L74.3984 78.307L72.9013 78.4ZM72.7373 75.76L71.2543 75.5352L71.2303 75.6933L71.2402 75.853L72.7373 75.76ZM73.14 73.1039L74.623 73.3287L74.6797 72.9547L74.5523 72.5986L73.14 73.1039ZM72.2398 70.5874L70.7833 70.946L70.8016 71.0204L70.8274 71.0926L72.2398 70.5874ZM71.612 68.0375L73.0685 67.6789L73.0104 67.4429L72.8807 67.2372L71.612 68.0375ZM70.211 65.8166L68.9317 66.5997L68.9369 66.6083L68.9423 66.6168L70.211 65.8166ZM68.8171 63.5393L70.0965 62.7562L69.8888 62.417L69.5403 62.2252L68.8171 63.5393ZM66.4728 62.2493L65.7112 63.5415L65.7302 63.5528L65.7496 63.5634L66.4728 62.2493ZM64.2353 60.9306L64.9969 59.6383L64.835 59.5429L64.6546 59.4904L64.2353 60.9306ZM61.7262 60.2L62.1455 58.7598L61.9546 58.7042L61.7558 58.7003L61.7262 60.2ZM59.1129 60.1485L59.1425 58.6488L59.0771 58.6475L59.0119 58.6519L59.1129 60.1485ZM56.4535 60.328L56.3524 58.8315L56.0228 58.8537L55.733 59.0124L56.4535 60.328ZM54.1152 61.6086L53.3947 60.293L53.3103 60.3392L53.2326 60.3958L54.1152 61.6086ZM51.9903 63.1549L51.1077 61.942L51.06 61.9767L51.0152 62.0151L51.9903 63.1549ZM49.9602 64.8918L48.985 63.7521L48.7269 63.9729L48.5891 64.2835L49.9602 64.8918ZM48.8751 67.3375L50.2325 67.9759L50.2395 67.961L50.2462 67.9459L48.8751 67.3375ZM47.7574 69.7139L46.4001 69.0755L46.3488 69.1846L46.3155 69.3005L47.7574 69.7139ZM47.0268 72.2622L45.5849 71.8488L45.5226 72.0659L45.527 72.2917L47.0268 72.2622ZM47.0788 74.9136L48.5788 74.9034L48.5787 74.8938L48.5785 74.8841L47.0788 74.9136ZM47.0967 77.5536L48.5831 77.7552L48.5973 77.6498L48.5966 77.5434L47.0967 77.5536ZM46.7386 80.1936L45.2522 79.992L45.2203 80.2271L45.2626 80.4606L46.7386 80.1936ZM47.2162 82.8336L48.6963 83.0773L48.7384 82.8216L48.6923 82.5665L47.2162 82.8336ZM46.7815 85.4736L45.3014 85.2298L45.2027 85.8293L45.5489 86.3284L46.7815 85.4736ZM48.0138 87.2504L46.7813 88.1053L46.8166 88.1562L46.8561 88.2041L48.0138 87.2504ZM49.2521 88.7536L50.7521 88.7589L50.754 88.2176L50.4098 87.7999L49.2521 88.7536ZM49.2427 91.3936L50.7269 91.6104L50.7423 91.5052L50.7427 91.3989L49.2427 91.3936ZM48.8569 94.0336L47.3727 93.8167L47.3508 93.9666L47.3593 94.1179L48.8569 94.0336ZM49.0056 96.6736L50.5056 96.6656L50.5054 96.6274L50.5033 96.5892L49.0056 96.6736ZM49.0197 99.3136L50.5192 99.3544L50.5198 99.33L50.5197 99.3056L49.0197 99.3136ZM48.9478 101.954L47.4483 101.913L47.4481 101.922L48.9478 101.954ZM48.8925 104.594L50.3916 104.644L50.392 104.635L50.3922 104.625L48.8925 104.594ZM48.8033 107.234L47.3041 107.183L47.2999 107.308L47.3164 107.432L48.8033 107.234ZM49.1553 109.874L50.6535 109.947L50.6602 109.811L50.6421 109.675L49.1553 109.874ZM49.0259 112.514L47.5277 112.44L47.5229 112.537L47.5308 112.635L49.0259 112.514ZM49.2395 115.154L50.6829 115.562L50.7564 115.302L50.7346 115.033L49.2395 115.154ZM71 116H72.5V115.9H71H69.5V116H71ZM71 115.9L72.4986 115.835L72.3893 113.295L70.8907 113.36L69.3921 113.425L69.5014 115.965L71 115.9ZM70.8907 113.36L72.3824 113.517L72.6603 110.877L71.1686 110.72L69.6768 110.563L69.3989 113.203L70.8907 113.36ZM71.1686 110.72L72.6615 110.575L72.4052 107.935L70.9122 108.08L69.4192 108.225L69.6756 110.865L71.1686 110.72ZM70.9122 108.08L72.411 108.02L72.3046 105.38L70.8058 105.44L69.307 105.5L69.4134 108.14L70.9122 108.08ZM70.8058 105.44L72.3013 105.556L72.5065 102.916L71.0111 102.8L69.5156 102.684L69.3103 105.324L70.8058 105.44ZM71.0111 102.8L72.511 102.805L72.5202 100.165L71.0202 100.16L69.5202 100.155L69.5111 102.795L71.0111 102.8ZM71.0202 100.16L72.5163 100.053L72.3268 97.4126L70.8306 97.52L69.3345 97.6274L69.524 100.267L71.0202 100.16ZM70.8306 97.52L72.33 97.5623L72.4044 94.9223L70.905 94.88L69.4056 94.8377L69.3312 97.4777L70.8306 97.52ZM70.905 94.88L72.3946 95.0563L72.707 92.4163L71.2174 92.24L69.7278 92.0637L69.4154 94.7038L70.905 94.88ZM71.2174 92.24L72.6976 91.9968L72.2638 89.3568L70.7836 89.6L69.3035 89.8432L69.7373 92.4832L71.2174 92.24ZM70.7836 89.6L72.2695 89.8053L72.6256 87.2285L71.1397 87.0231L69.6539 86.8178L69.2977 89.3947L70.7836 89.6ZM71.1397 87.0231L71.7397 88.3979L73.3508 87.6948L72.7507 86.32L72.1507 84.9452L70.5397 85.6484L71.1397 87.0231ZM72.7507 86.32L74.2397 86.5017L74.5619 83.8617L73.0729 83.68L71.584 83.4983L71.2618 86.1383L72.7507 86.32ZM73.0729 83.68L74.5721 83.6308L74.4855 80.9908L72.9863 81.04L71.4871 81.0892L71.5737 83.7292L73.0729 83.68ZM72.9863 81.04L74.4856 80.9917L74.4005 78.3517L72.9013 78.4L71.4021 78.4483L71.4871 81.0883L72.9863 81.04ZM72.9013 78.4L74.3984 78.307L74.2344 75.667L72.7373 75.76L71.2402 75.853L71.4042 78.493L72.9013 78.4ZM72.7373 75.76L74.2204 75.9848L74.623 73.3287L73.14 73.1039L71.6569 72.879L71.2543 75.5352L72.7373 75.76ZM73.14 73.1039L74.5523 72.5986L73.6522 70.0822L72.2398 70.5874L70.8274 71.0926L71.7276 73.6091L73.14 73.1039ZM72.2398 70.5874L73.6963 70.2288L73.0685 67.6789L71.612 68.0375L70.1555 68.3961L70.7833 70.946L72.2398 70.5874ZM71.612 68.0375L72.8807 67.2372L71.4797 65.0163L70.211 65.8166L68.9423 66.6168L70.3433 68.8378L71.612 68.0375ZM70.211 65.8166L71.4904 65.0335L70.0965 62.7562L68.8171 63.5393L67.5378 64.3224L68.9317 66.5997L70.211 65.8166ZM68.8171 63.5393L69.5403 62.2252L67.1959 60.9351L66.4728 62.2493L65.7496 63.5634L68.094 64.8535L68.8171 63.5393ZM66.4728 62.2493L67.2344 60.957L64.9969 59.6383L64.2353 60.9306L63.4737 62.2228L65.7112 63.5415L66.4728 62.2493ZM64.2353 60.9306L64.6546 59.4904L62.1455 58.7598L61.7262 60.2L61.3069 61.6402L63.816 62.3708L64.2353 60.9306ZM61.7262 60.2L61.7558 58.7003L59.1425 58.6488L59.1129 60.1485L59.0833 61.6482L61.6966 61.6997L61.7262 60.2ZM59.1129 60.1485L59.0119 58.6519L56.3524 58.8315L56.4535 60.328L56.5545 61.8246L59.2139 61.6451L59.1129 60.1485ZM56.4535 60.328L55.733 59.0124L53.3947 60.293L54.1152 61.6086L54.8357 62.9243L57.174 61.6437L56.4535 60.328ZM54.1152 61.6086L53.2326 60.3958L51.1077 61.942L51.9903 63.1549L52.8729 64.3677L54.9978 62.8215L54.1152 61.6086ZM51.9903 63.1549L51.0152 62.0151L48.985 63.7521L49.9602 64.8918L50.9354 66.0316L52.9655 64.2946L51.9903 63.1549ZM49.9602 64.8918L48.5891 64.2835L47.504 66.7292L48.8751 67.3375L50.2462 67.9459L51.3313 65.5001L49.9602 64.8918ZM48.8751 67.3375L47.5177 66.6992L46.4001 69.0755L47.7574 69.7139L49.1148 70.3523L50.2325 67.9759L48.8751 67.3375ZM47.7574 69.7139L46.3155 69.3005L45.5849 71.8488L47.0268 72.2622L48.4687 72.6757L49.1993 70.1274L47.7574 69.7139ZM47.0268 72.2622L45.527 72.2917L45.5791 74.943L47.0788 74.9136L48.5785 74.8841L48.5265 72.2328L47.0268 72.2622ZM47.0788 74.9136L45.5788 74.9237L45.5967 77.5637L47.0967 77.5536L48.5966 77.5434L48.5788 74.9034L47.0788 74.9136ZM47.0967 77.5536L45.6103 77.352L45.2522 79.992L46.7386 80.1936L48.225 80.3952L48.5831 77.7552L47.0967 77.5536ZM46.7386 80.1936L45.2626 80.4606L45.7402 83.1006L47.2162 82.8336L48.6923 82.5665L48.2147 79.9265L46.7386 80.1936ZM47.2162 82.8336L45.7362 82.5898L45.3014 85.2298L46.7815 85.4736L48.2616 85.7173L48.6963 83.0773L47.2162 82.8336ZM46.7815 85.4736L45.5489 86.3284L46.7813 88.1053L48.0138 87.2504L49.2464 86.3956L48.0141 84.6187L46.7815 85.4736ZM48.0138 87.2504L46.8561 88.2041L48.0943 89.7073L49.2521 88.7536L50.4098 87.7999L49.1716 86.2967L48.0138 87.2504ZM49.2521 88.7536L47.7521 88.7482L47.7427 91.3882L49.2427 91.3936L50.7427 91.3989L50.7521 88.7589L49.2521 88.7536ZM49.2427 91.3936L47.7584 91.1767L47.3727 93.8167L48.8569 94.0336L50.3412 94.2504L50.7269 91.6104L49.2427 91.3936ZM48.8569 94.0336L47.3593 94.1179L47.508 96.7579L49.0056 96.6736L50.5033 96.5892L50.3546 93.9492L48.8569 94.0336ZM49.0056 96.6736L47.5057 96.6816L47.5198 99.3216L49.0197 99.3136L50.5197 99.3056L50.5056 96.6656L49.0056 96.6736ZM49.0197 99.3136L47.5203 99.2727L47.4484 101.913L48.9478 101.954L50.4472 101.994L50.5192 99.3544L49.0197 99.3136ZM48.9478 101.954L47.4481 101.922L47.3928 104.562L48.8925 104.594L50.3922 104.625L50.4475 101.985L48.9478 101.954ZM48.8925 104.594L47.3933 104.543L47.3041 107.183L48.8033 107.234L50.3024 107.284L50.3916 104.644L48.8925 104.594ZM48.8033 107.234L47.3164 107.432L47.6685 110.072L49.1553 109.874L50.6421 109.675L50.2901 107.035L48.8033 107.234ZM49.1553 109.874L47.6571 109.8L47.5277 112.44L49.0259 112.514L50.5241 112.587L50.6535 109.947L49.1553 109.874ZM49.0259 112.514L47.5308 112.635L47.7444 115.275L49.2395 115.154L50.7346 115.033L50.521 112.393L49.0259 112.514ZM49.2395 115.154L47.7962 114.745L47.5567 115.592L49 116L50.4433 116.408L50.6829 115.562L49.2395 115.154Z" fill="black"/>
<path d="M39 115.9H40.5V115.868L40.4986 115.835L39 115.9ZM38.8907 113.36L37.3989 113.203L37.3873 113.313L37.3921 113.425L38.8907 113.36ZM39.1686 110.72L40.6603 110.877L40.6762 110.726L40.6615 110.575L39.1686 110.72ZM38.9122 108.08L37.4134 108.14L37.4151 108.183L37.4192 108.225L38.9122 108.08ZM38.8058 105.44L37.3103 105.324L37.3034 105.412L37.307 105.5L38.8058 105.44ZM39.0111 102.8L40.5065 102.916L40.5109 102.861L40.511 102.805L39.0111 102.8ZM39.0202 100.16L40.5202 100.165L40.5204 100.109L40.5163 100.053L39.0202 100.16ZM38.8306 97.52L37.3312 97.4777L37.3291 97.5527L37.3345 97.6274L38.8306 97.52ZM38.905 94.88L37.4154 94.7038L37.4075 94.7705L37.4056 94.8377L38.905 94.88ZM39.2174 92.24L40.707 92.4163L40.7319 92.2059L40.6976 91.9968L39.2174 92.24ZM38.7836 89.6L37.2977 89.3947L37.2667 89.6194L37.3035 89.8432L38.7836 89.6ZM39.1397 87.0231L38.5397 85.6484L37.769 85.9848L37.6539 86.8178L39.1397 87.0231ZM40.7507 86.32L41.3508 87.6948L42.1359 87.3521L42.2397 86.5017L40.7507 86.32ZM41.0729 83.68L42.5619 83.8617L42.5759 83.7467L42.5721 83.6308L41.0729 83.68ZM40.9863 81.04L39.4871 81.0883L39.4871 81.0892L40.9863 81.04ZM40.9013 78.4L42.4005 78.3517L42.3998 78.3293L42.3984 78.307L40.9013 78.4ZM40.7373 75.76L39.2543 75.5352L39.2303 75.6933L39.2402 75.853L40.7373 75.76ZM41.14 73.1039L42.623 73.3287L42.6797 72.9547L42.5523 72.5986L41.14 73.1039ZM40.2398 70.5874L38.7833 70.946L38.8016 71.0204L38.8274 71.0926L40.2398 70.5874ZM39.612 68.0375L41.0685 67.6789L41.0104 67.4429L40.8807 67.2372L39.612 68.0375ZM38.211 65.8166L36.9317 66.5997L36.9369 66.6083L36.9423 66.6168L38.211 65.8166ZM36.8171 63.5393L38.0965 62.7562L37.8888 62.417L37.5403 62.2252L36.8171 63.5393ZM34.4728 62.2493L33.7112 63.5415L33.7302 63.5528L33.7496 63.5634L34.4728 62.2493ZM32.2353 60.9306L32.9969 59.6383L32.835 59.5429L32.6546 59.4904L32.2353 60.9306ZM29.7262 60.2L30.1455 58.7598L29.9546 58.7042L29.7558 58.7003L29.7262 60.2ZM27.1129 60.1485L27.1425 58.6488L27.0771 58.6475L27.0119 58.6519L27.1129 60.1485ZM24.4535 60.328L24.3524 58.8315L24.0228 58.8537L23.733 59.0124L24.4535 60.328ZM22.1152 61.6086L21.3947 60.293L21.3103 60.3392L21.2326 60.3958L22.1152 61.6086ZM19.9903 63.1549L19.1077 61.942L19.06 61.9767L19.0152 62.0151L19.9903 63.1549ZM17.9602 64.8918L16.985 63.7521L16.7269 63.9729L16.5891 64.2835L17.9602 64.8918ZM16.8751 67.3375L18.2325 67.9759L18.2395 67.961L18.2462 67.9459L16.8751 67.3375ZM15.7574 69.7139L14.4001 69.0755L14.3488 69.1846L14.3155 69.3005L15.7574 69.7139ZM15.0268 72.2622L13.5849 71.8488L13.5226 72.0659L13.527 72.2917L15.0268 72.2622ZM15.0788 74.9136L16.5788 74.9034L16.5787 74.8938L16.5785 74.8841L15.0788 74.9136ZM15.0967 77.5536L16.5831 77.7552L16.5973 77.6498L16.5966 77.5434L15.0967 77.5536ZM14.7386 80.1936L13.2522 79.992L13.2203 80.2271L13.2626 80.4606L14.7386 80.1936ZM15.2162 82.8336L16.6963 83.0773L16.7384 82.8216L16.6923 82.5665L15.2162 82.8336ZM14.7815 85.4736L13.3014 85.2298L13.2027 85.8293L13.5489 86.3284L14.7815 85.4736ZM16.0138 87.2504L14.7813 88.1053L14.8166 88.1562L14.8561 88.2041L16.0138 87.2504ZM17.2521 88.7536L18.7521 88.7589L18.754 88.2176L18.4098 87.7999L17.2521 88.7536ZM17.2427 91.3936L18.7269 91.6104L18.7423 91.5052L18.7427 91.3989L17.2427 91.3936ZM16.8569 94.0336L15.3727 93.8167L15.3508 93.9666L15.3593 94.1179L16.8569 94.0336ZM17.0056 96.6736L18.5056 96.6656L18.5054 96.6274L18.5033 96.5892L17.0056 96.6736ZM17.0197 99.3136L18.5192 99.3544L18.5198 99.33L18.5197 99.3056L17.0197 99.3136ZM16.9478 101.954L15.4483 101.913L15.4481 101.922L16.9478 101.954ZM16.8925 104.594L18.3916 104.644L18.392 104.635L18.3922 104.625L16.8925 104.594ZM16.8033 107.234L15.3041 107.183L15.2999 107.308L15.3164 107.432L16.8033 107.234ZM17.1553 109.874L18.6535 109.947L18.6602 109.811L18.6421 109.675L17.1553 109.874ZM17.0259 112.514L15.5277 112.44L15.5229 112.537L15.5308 112.635L17.0259 112.514ZM17.2395 115.154L18.6829 115.562L18.7564 115.302L18.7346 115.033L17.2395 115.154ZM39 116H40.5V115.9H39H37.5V116H39ZM39 115.9L40.4986 115.835L40.3893 113.295L38.8907 113.36L37.3921 113.425L37.5014 115.965L39 115.9ZM38.8907 113.36L40.3824 113.517L40.6603 110.877L39.1686 110.72L37.6768 110.563L37.3989 113.203L38.8907 113.36ZM39.1686 110.72L40.6615 110.575L40.4052 107.935L38.9122 108.08L37.4192 108.225L37.6756 110.865L39.1686 110.72ZM38.9122 108.08L40.411 108.02L40.3046 105.38L38.8058 105.44L37.307 105.5L37.4134 108.14L38.9122 108.08ZM38.8058 105.44L40.3013 105.556L40.5065 102.916L39.0111 102.8L37.5156 102.684L37.3103 105.324L38.8058 105.44ZM39.0111 102.8L40.511 102.805L40.5202 100.165L39.0202 100.16L37.5202 100.155L37.5111 102.795L39.0111 102.8ZM39.0202 100.16L40.5163 100.053L40.3268 97.4126L38.8306 97.52L37.3345 97.6274L37.524 100.267L39.0202 100.16ZM38.8306 97.52L40.33 97.5623L40.4044 94.9223L38.905 94.88L37.4056 94.8377L37.3312 97.4777L38.8306 97.52ZM38.905 94.88L40.3946 95.0563L40.707 92.4163L39.2174 92.24L37.7278 92.0637L37.4154 94.7038L38.905 94.88ZM39.2174 92.24L40.6976 91.9968L40.2638 89.3568L38.7836 89.6L37.3035 89.8432L37.7373 92.4832L39.2174 92.24ZM38.7836 89.6L40.2695 89.8053L40.6256 87.2285L39.1397 87.0231L37.6539 86.8178L37.2977 89.3947L38.7836 89.6ZM39.1397 87.0231L39.7397 88.3979L41.3508 87.6948L40.7507 86.32L40.1507 84.9452L38.5397 85.6484L39.1397 87.0231ZM40.7507 86.32L42.2397 86.5017L42.5619 83.8617L41.0729 83.68L39.584 83.4983L39.2618 86.1383L40.7507 86.32ZM41.0729 83.68L42.5721 83.6308L42.4855 80.9908L40.9863 81.04L39.4871 81.0892L39.5737 83.7292L41.0729 83.68ZM40.9863 81.04L42.4856 80.9917L42.4005 78.3517L40.9013 78.4L39.4021 78.4483L39.4871 81.0883L40.9863 81.04ZM40.9013 78.4L42.3984 78.307L42.2344 75.667L40.7373 75.76L39.2402 75.853L39.4042 78.493L40.9013 78.4ZM40.7373 75.76L42.2204 75.9848L42.623 73.3287L41.14 73.1039L39.6569 72.879L39.2543 75.5352L40.7373 75.76ZM41.14 73.1039L42.5523 72.5986L41.6522 70.0822L40.2398 70.5874L38.8274 71.0926L39.7276 73.6091L41.14 73.1039ZM40.2398 70.5874L41.6963 70.2288L41.0685 67.6789L39.612 68.0375L38.1555 68.3961L38.7833 70.946L40.2398 70.5874ZM39.612 68.0375L40.8807 67.2372L39.4797 65.0163L38.211 65.8166L36.9423 66.6168L38.3433 68.8378L39.612 68.0375ZM38.211 65.8166L39.4904 65.0335L38.0965 62.7562L36.8171 63.5393L35.5378 64.3224L36.9317 66.5997L38.211 65.8166ZM36.8171 63.5393L37.5403 62.2252L35.1959 60.9351L34.4728 62.2493L33.7496 63.5634L36.094 64.8535L36.8171 63.5393ZM34.4728 62.2493L35.2344 60.957L32.9969 59.6383L32.2353 60.9306L31.4737 62.2228L33.7112 63.5415L34.4728 62.2493ZM32.2353 60.9306L32.6546 59.4904L30.1455 58.7598L29.7262 60.2L29.3069 61.6402L31.816 62.3708L32.2353 60.9306ZM29.7262 60.2L29.7558 58.7003L27.1425 58.6488L27.1129 60.1485L27.0833 61.6482L29.6966 61.6997L29.7262 60.2ZM27.1129 60.1485L27.0119 58.6519L24.3524 58.8315L24.4535 60.328L24.5545 61.8246L27.2139 61.6451L27.1129 60.1485ZM24.4535 60.328L23.733 59.0124L21.3947 60.293L22.1152 61.6086L22.8357 62.9243L25.174 61.6437L24.4535 60.328ZM22.1152 61.6086L21.2326 60.3958L19.1077 61.942L19.9903 63.1549L20.8729 64.3677L22.9978 62.8215L22.1152 61.6086ZM19.9903 63.1549L19.0152 62.0151L16.985 63.7521L17.9602 64.8918L18.9354 66.0316L20.9655 64.2946L19.9903 63.1549ZM17.9602 64.8918L16.5891 64.2835L15.504 66.7292L16.8751 67.3375L18.2462 67.9459L19.3313 65.5001L17.9602 64.8918ZM16.8751 67.3375L15.5177 66.6992L14.4001 69.0755L15.7574 69.7139L17.1148 70.3523L18.2325 67.9759L16.8751 67.3375ZM15.7574 69.7139L14.3155 69.3005L13.5849 71.8488L15.0268 72.2622L16.4687 72.6757L17.1993 70.1274L15.7574 69.7139ZM15.0268 72.2622L13.527 72.2917L13.5791 74.943L15.0788 74.9136L16.5785 74.8841L16.5265 72.2328L15.0268 72.2622ZM15.0788 74.9136L13.5788 74.9237L13.5967 77.5637L15.0967 77.5536L16.5966 77.5434L16.5788 74.9034L15.0788 74.9136ZM15.0967 77.5536L13.6103 77.352L13.2522 79.992L14.7386 80.1936L16.225 80.3952L16.5831 77.7552L15.0967 77.5536ZM14.7386 80.1936L13.2626 80.4606L13.7402 83.1006L15.2162 82.8336L16.6923 82.5665L16.2147 79.9265L14.7386 80.1936ZM15.2162 82.8336L13.7362 82.5898L13.3014 85.2298L14.7815 85.4736L16.2616 85.7173L16.6963 83.0773L15.2162 82.8336ZM14.7815 85.4736L13.5489 86.3284L14.7813 88.1053L16.0138 87.2504L17.2464 86.3956L16.0141 84.6187L14.7815 85.4736ZM16.0138 87.2504L14.8561 88.2041L16.0943 89.7073L17.2521 88.7536L18.4098 87.7999L17.1716 86.2967L16.0138 87.2504ZM17.2521 88.7536L15.7521 88.7482L15.7427 91.3882L17.2427 91.3936L18.7427 91.3989L18.7521 88.7589L17.2521 88.7536ZM17.2427 91.3936L15.7584 91.1767L15.3727 93.8167L16.8569 94.0336L18.3412 94.2504L18.7269 91.6104L17.2427 91.3936ZM16.8569 94.0336L15.3593 94.1179L15.508 96.7579L17.0056 96.6736L18.5033 96.5892L18.3546 93.9492L16.8569 94.0336ZM17.0056 96.6736L15.5057 96.6816L15.5198 99.3216L17.0197 99.3136L18.5197 99.3056L18.5056 96.6656L17.0056 96.6736ZM17.0197 99.3136L15.5203 99.2727L15.4484 101.913L16.9478 101.954L18.4472 101.994L18.5192 99.3544L17.0197 99.3136ZM16.9478 101.954L15.4481 101.922L15.3928 104.562L16.8925 104.594L18.3922 104.625L18.4475 101.985L16.9478 101.954ZM16.8925 104.594L15.3933 104.543L15.3041 107.183L16.8033 107.234L18.3024 107.284L18.3916 104.644L16.8925 104.594ZM16.8033 107.234L15.3164 107.432L15.6685 110.072L17.1553 109.874L18.6421 109.675L18.2901 107.035L16.8033 107.234ZM17.1553 109.874L15.6571 109.8L15.5277 112.44L17.0259 112.514L18.5241 112.587L18.6535 109.947L17.1553 109.874ZM17.0259 112.514L15.5308 112.635L15.7444 115.275L17.2395 115.154L18.7346 115.033L18.521 112.393L17.0259 112.514ZM17.2395 115.154L15.7962 114.745L15.5567 115.592L17 116L18.4433 116.408L18.6829 115.562L17.2395 115.154Z" fill="black"/>
<path d="M57 49.9H58.5V49.8677L58.4986 49.8355L57 49.9ZM56.8907 47.36L55.3989 47.203L55.3873 47.3135L55.3921 47.4245L56.8907 47.36ZM57.1686 44.72L58.6603 44.877L58.6762 44.7261L58.6615 44.575L57.1686 44.72ZM56.9122 42.08L55.4134 42.1404L55.4151 42.1828L55.4192 42.225L56.9122 42.08ZM56.8058 39.44L55.3103 39.3237L55.3034 39.412L55.307 39.5004L56.8058 39.44ZM57.0111 36.8L58.5065 36.9163L58.5109 36.8608L58.511 36.8052L57.0111 36.8ZM57.0202 34.16L58.5202 34.1652L58.5204 34.0992L58.5148 34.0335L57.0202 34.16ZM56.7981 31.5367L58.2928 31.4101L58.2828 31.2931L58.2548 31.1791L56.7981 31.5367ZM56.1832 29.0316L57.6399 28.674L57.5828 28.4415L57.4563 28.2384L56.1832 29.0316ZM54.7735 26.769L56.0466 25.9758L55.7094 25.4346L55.0858 25.3019L54.7735 26.769ZM52.2032 26.2218L52.5155 24.7547L52.1992 24.6874L51.8832 24.7564L52.2032 26.2218ZM49.7519 26.757L49.4319 25.2915L48.918 25.4037L48.5867 25.8124L49.7519 26.757ZM48.149 28.7342L46.9838 27.7895L46.8743 27.9246L46.7986 28.0811L48.149 28.7342ZM47.0127 31.0837L45.6624 30.4306L45.5126 30.7403L45.5127 31.0842L47.0127 31.0837ZM47.0137 33.7303L45.5137 33.7308L45.5137 33.7547L45.5144 33.7786L47.0137 33.7303ZM47.0987 36.3703L45.5995 36.4186L45.6002 36.4409L45.6016 36.4633L47.0987 36.3703ZM47.2627 39.0103L48.7397 39.2715L48.7709 39.0956L48.7598 38.9173L47.2627 39.0103ZM46.7958 41.6503L45.3187 41.389L45.2727 41.6493L45.3184 41.9096L46.7958 41.6503ZM47.2592 44.2903L48.7526 44.4311L48.7715 44.2299L48.7366 44.0309L47.2592 44.2903ZM47.0103 46.9303L45.5169 46.7895L45.5065 46.9002L45.5125 47.0112L47.0103 46.9303ZM47.1529 49.5703L48.5661 50.0731L48.667 49.7897L48.6507 49.4894L47.1529 49.5703ZM57 50H58.5V49.9H57H55.5V50H57ZM57 49.9L58.4986 49.8355L58.3893 47.2955L56.8907 47.36L55.3921 47.4245L55.5014 49.9645L57 49.9ZM56.8907 47.36L58.3824 47.517L58.6603 44.877L57.1686 44.72L55.6768 44.563L55.3989 47.203L56.8907 47.36ZM57.1686 44.72L58.6615 44.575L58.4052 41.935L56.9122 42.08L55.4192 42.225L55.6756 44.865L57.1686 44.72ZM56.9122 42.08L58.411 42.0196L58.3046 39.3796L56.8058 39.44L55.307 39.5004L55.4134 42.1404L56.9122 42.08ZM56.8058 39.44L58.3013 39.5563L58.5065 36.9163L57.0111 36.8L55.5156 36.6837L55.3103 39.3237L56.8058 39.44ZM57.0111 36.8L58.511 36.8052L58.5202 34.1652L57.0202 34.16L55.5202 34.1548L55.5111 36.7948L57.0111 36.8ZM57.0202 34.16L58.5148 34.0335L58.2928 31.4101L56.7981 31.5367L55.3034 31.6632L55.5255 34.2865L57.0202 34.16ZM56.7981 31.5367L58.2548 31.1791L57.6399 28.674L56.1832 29.0316L54.7264 29.3892L55.3413 31.8943L56.7981 31.5367ZM56.1832 29.0316L57.4563 28.2384L56.0466 25.9758L54.7735 26.769L53.5003 27.5622L54.91 29.8248L56.1832 29.0316ZM54.7735 26.769L55.0858 25.3019L52.5155 24.7547L52.2032 26.2218L51.8909 27.689L54.4611 28.2361L54.7735 26.769ZM52.2032 26.2218L51.8832 24.7564L49.4319 25.2915L49.7519 26.757L50.0718 28.2225L52.5231 27.6873L52.2032 26.2218ZM49.7519 26.757L48.5867 25.8124L46.9838 27.7895L48.149 28.7342L49.3142 29.6788L50.9171 27.7016L49.7519 26.757ZM48.149 28.7342L46.7986 28.0811L45.6624 30.4306L47.0127 31.0837L48.3631 31.7367L49.4994 29.3872L48.149 28.7342ZM47.0127 31.0837L45.5127 31.0842L45.5137 33.7308L47.0137 33.7303L48.5137 33.7297L48.5127 31.0831L47.0127 31.0837ZM47.0137 33.7303L45.5144 33.7786L45.5995 36.4186L47.0987 36.3703L48.5979 36.322L48.5129 33.682L47.0137 33.7303ZM47.0987 36.3703L45.6016 36.4633L45.7656 39.1032L47.2627 39.0103L48.7598 38.9173L48.5958 36.2773L47.0987 36.3703ZM47.2627 39.0103L45.7856 38.749L45.3187 41.389L46.7958 41.6503L48.2729 41.9115L48.7397 39.2715L47.2627 39.0103ZM46.7958 41.6503L45.3184 41.9096L45.7818 44.5496L47.2592 44.2903L48.7366 44.0309L48.2732 41.3909L46.7958 41.6503ZM47.2592 44.2903L45.7658 44.1495L45.5169 46.7895L47.0103 46.9303L48.5037 47.0711L48.7526 44.4311L47.2592 44.2903ZM47.0103 46.9303L45.5125 47.0112L45.6551 49.6512L47.1529 49.5703L48.6507 49.4894L48.5081 46.8494L47.0103 46.9303ZM47.1529 49.5703L45.7397 49.0674L45.5868 49.4971L47 50L48.4132 50.5029L48.5661 50.0731L47.1529 49.5703Z" fill="black"/>
<path d="M73 49.9H74.5V49.8677L74.4986 49.8355L73 49.9ZM72.8907 47.36L71.3989 47.203L71.3873 47.3135L71.3921 47.4245L72.8907 47.36ZM73.1686 44.72L74.6603 44.877L74.6762 44.7261L74.6615 44.575L73.1686 44.72ZM72.9122 42.08L71.4134 42.1404L71.4151 42.1828L71.4192 42.225L72.9122 42.08ZM72.8058 39.44L71.3103 39.3237L71.3034 39.412L71.307 39.5004L72.8058 39.44ZM73.0111 36.8L74.5065 36.9163L74.5109 36.8608L74.511 36.8052L73.0111 36.8ZM73.0202 34.16L74.5202 34.1652L74.5204 34.0983L74.5147 34.0316L73.0202 34.16ZM72.7949 31.5384L74.2894 31.41L74.2779 31.276L74.2428 31.1463L72.7949 31.5384ZM72.122 29.0542L73.5699 28.662L73.5053 28.4237L73.3677 28.2186L72.122 29.0542ZM70.6376 26.8412L71.8833 26.0056L71.5522 25.512L70.9729 25.3792L70.6376 26.8412ZM68.0622 26.2506L68.3975 24.7886L68.1605 24.7342L67.9186 24.7575L68.0622 26.2506ZM65.5399 26.4932L65.3963 25.0001L64.9096 25.0469L64.544 25.3716L65.5399 26.4932ZM63.6371 28.1829L62.6411 27.0613L62.4986 27.1878L62.3923 27.3459L63.6371 28.1829ZM62.1841 30.3437L60.9394 29.5067L60.7134 29.8428L60.6873 30.2469L62.1841 30.3437ZM62.0137 32.9803L60.5168 32.8835L60.5121 32.956L60.5144 33.0286L62.0137 32.9803ZM62.0987 35.6203L60.5995 35.6686L60.6002 35.6909L60.6016 35.7133L62.0987 35.6203ZM62.2627 38.2603L63.7397 38.5215L63.7709 38.3456L63.7598 38.1673L62.2627 38.2603ZM61.7958 40.9003L60.3187 40.6391L60.2727 40.8993L60.3184 41.1596L61.7958 40.9003ZM62.2592 43.5403L63.7526 43.6811L63.7715 43.4799L63.7366 43.2809L62.2592 43.5403ZM62.0103 46.1803L60.5169 46.0395L60.5065 46.1502L60.5125 46.2612L62.0103 46.1803ZM62.1529 48.8203L63.6405 49.0131L63.6582 48.8767L63.6507 48.7394L62.1529 48.8203ZM73 50H74.5V49.9H73H71.5V50H73ZM73 49.9L74.4986 49.8355L74.3893 47.2955L72.8907 47.36L71.3921 47.4245L71.5014 49.9645L73 49.9ZM72.8907 47.36L74.3824 47.517L74.6603 44.877L73.1686 44.72L71.6768 44.563L71.3989 47.203L72.8907 47.36ZM73.1686 44.72L74.6615 44.575L74.4052 41.935L72.9122 42.08L71.4192 42.225L71.6756 44.865L73.1686 44.72ZM72.9122 42.08L74.411 42.0196L74.3046 39.3796L72.8058 39.44L71.307 39.5004L71.4134 42.1404L72.9122 42.08ZM72.8058 39.44L74.3013 39.5563L74.5065 36.9163L73.0111 36.8L71.5156 36.6837L71.3103 39.3237L72.8058 39.44ZM73.0111 36.8L74.511 36.8052L74.5202 34.1652L73.0202 34.16L71.5202 34.1548L71.5111 36.7948L73.0111 36.8ZM73.0202 34.16L74.5147 34.0316L74.2894 31.41L72.7949 31.5384L71.3005 31.6668L71.5257 34.2884L73.0202 34.16ZM72.7949 31.5384L74.2428 31.1463L73.5699 28.662L72.122 29.0542L70.6742 29.4464L71.3471 31.9306L72.7949 31.5384ZM72.122 29.0542L73.3677 28.2186L71.8833 26.0056L70.6376 26.8412L69.3919 27.6769L70.8763 29.8898L72.122 29.0542ZM70.6376 26.8412L70.9729 25.3792L68.3975 24.7886L68.0622 26.2506L67.7269 27.7127L70.3023 28.3033L70.6376 26.8412ZM68.0622 26.2506L67.9186 24.7575L65.3963 25.0001L65.5399 26.4932L65.6836 27.9863L68.2058 27.7437L68.0622 26.2506ZM65.5399 26.4932L64.544 25.3716L62.6411 27.0613L63.6371 28.1829L64.633 29.3045L66.5359 27.6149L65.5399 26.4932ZM63.6371 28.1829L62.3923 27.3459L60.9394 29.5067L62.1841 30.3437L63.4289 31.1807L64.8818 29.0199L63.6371 28.1829ZM62.1841 30.3437L60.6873 30.2469L60.5168 32.8835L62.0137 32.9803L63.5105 33.0771L63.681 30.4405L62.1841 30.3437ZM62.0137 32.9803L60.5144 33.0286L60.5995 35.6686L62.0987 35.6203L63.5979 35.572L63.5129 32.932L62.0137 32.9803ZM62.0987 35.6203L60.6016 35.7133L60.7656 38.3533L62.2627 38.2603L63.7598 38.1673L63.5958 35.5273L62.0987 35.6203ZM62.2627 38.2603L60.7856 37.9991L60.3187 40.6391L61.7958 40.9003L63.2729 41.1615L63.7397 38.5215L62.2627 38.2603ZM61.7958 40.9003L60.3184 41.1596L60.7818 43.7996L62.2592 43.5403L63.7366 43.2809L63.2732 40.6409L61.7958 40.9003ZM62.2592 43.5403L60.7658 43.3995L60.5169 46.0395L62.0103 46.1803L63.5037 46.3211L63.7526 43.6811L62.2592 43.5403ZM62.0103 46.1803L60.5125 46.2612L60.6551 48.9012L62.1529 48.8203L63.6507 48.7394L63.5081 46.0994L62.0103 46.1803ZM62.1529 48.8203L60.6654 48.6275L60.5124 49.8072L62 50L63.4876 50.1928L63.6405 49.0131L62.1529 48.8203Z" fill="black"/>
<path d="M84.3984 24.793L86.9766 25.3789L87.5508 25.5078L87.8789 26L89.3672 28.2148L89.5078 28.4258L89.5664 28.6602L90.2461 31.1445L90.2812 31.2734L90.293 31.4141L90.5156 34.0273V36.8633L90.5039 36.9219L90.3047 39.4883L90.4102 41.9375L90.6562 44.5742L90.6797 44.7266L90.6562 44.8789L90.3984 47.4219L90.5039 49.8359V50H87.5039V49.9648L87.3867 47.4219V47.3164L87.3984 47.1992L87.6562 44.7031L87.4219 42.2305L87.4102 42.1836V42.1367L87.3047 39.5V39.3242L87.5156 36.6875V34.1562L87.3047 31.7891L86.7305 29.6914L85.7227 28.168L83.9766 27.7578L82.1602 27.9336L80.7773 29.1758L79.6406 30.8516L79.5117 33.0781L79.5938 35.5273L79.7578 38.1641L79.7695 38.3398L79.7344 38.5273L79.3125 40.8945L79.7695 43.4844L79.7578 43.6836L79.5117 46.1445L79.6523 48.7344V48.875L79.6406 49.0156L79.4883 50.1875L76.5117 49.8125L76.6523 48.7695L76.5117 46.2617V46.0391L76.7578 43.6133L76.3242 41.1641L76.2773 40.8945L76.3242 40.6367L76.7578 38.1406L76.6055 35.7148V35.6914L76.5938 35.668L76.5117 33.0312V32.8789L76.6875 30.2422L76.7109 29.8438L76.9336 29.5039L78.3867 27.3477L78.5039 27.1836L78.6445 27.0664L80.543 25.3672L80.9062 25.0508L81.3984 25.0039L83.918 24.7578L84.1641 24.7344L84.3984 24.793Z" fill="black"/>
<path d="M105 49.9H106.5V49.8677L106.499 49.8355L105 49.9ZM104.891 47.36L103.399 47.203L103.387 47.3135L103.392 47.4245L104.891 47.36ZM105.169 44.72L106.66 44.877L106.676 44.7261L106.662 44.575L105.169 44.72ZM104.912 42.08L103.413 42.1404L103.415 42.1828L103.419 42.225L104.912 42.08ZM104.806 39.44L103.31 39.3237L103.303 39.412L103.307 39.5004L104.806 39.44ZM105.011 36.8L106.507 36.9163L106.511 36.8608L106.511 36.8052L105.011 36.8ZM105.02 34.16L106.52 34.1652L106.52 34.0983L106.515 34.0316L105.02 34.16ZM104.795 31.5384L106.289 31.41L106.278 31.276L106.243 31.1463L104.795 31.5384ZM104.122 29.0542L105.57 28.662L105.505 28.4237L105.368 28.2186L104.122 29.0542ZM102.638 26.8412L103.883 26.0056L103.552 25.512L102.973 25.3792L102.638 26.8412ZM100.062 26.2506L100.397 24.7886L100.161 24.7342L99.9186 24.7575L100.062 26.2506ZM97.5399 26.4932L97.3963 25.0001L96.9096 25.0469L96.544 25.3716L97.5399 26.4932ZM95.6371 28.1829L94.6411 27.0613L94.4986 27.1878L94.3923 27.3459L95.6371 28.1829ZM94.1841 30.3437L92.9394 29.5067L92.7134 29.8428L92.6873 30.2469L94.1841 30.3437ZM94.0137 32.9803L92.5168 32.8835L92.5121 32.956L92.5144 33.0286L94.0137 32.9803ZM94.0987 35.6203L92.5995 35.6686L92.6002 35.6909L92.6016 35.7133L94.0987 35.6203ZM94.2627 38.2603L95.7397 38.5215L95.7709 38.3456L95.7598 38.1673L94.2627 38.2603ZM93.7958 40.9003L92.3187 40.6391L92.2727 40.8993L92.3184 41.1596L93.7958 40.9003ZM94.2592 43.5403L95.7526 43.6811L95.7715 43.4799L95.7366 43.2809L94.2592 43.5403ZM94.0103 46.1803L92.5169 46.0395L92.5065 46.1502L92.5125 46.2612L94.0103 46.1803ZM94.1529 48.8203L95.6405 49.0131L95.6582 48.8767L95.6507 48.7394L94.1529 48.8203ZM105 50H106.5V49.9H105H103.5V50H105ZM105 49.9L106.499 49.8355L106.389 47.2955L104.891 47.36L103.392 47.4245L103.501 49.9645L105 49.9ZM104.891 47.36L106.382 47.517L106.66 44.877L105.169 44.72L103.677 44.563L103.399 47.203L104.891 47.36ZM105.169 44.72L106.662 44.575L106.405 41.935L104.912 42.08L103.419 42.225L103.676 44.865L105.169 44.72ZM104.912 42.08L106.411 42.0196L106.305 39.3796L104.806 39.44L103.307 39.5004L103.413 42.1404L104.912 42.08ZM104.806 39.44L106.301 39.5563L106.507 36.9163L105.011 36.8L103.516 36.6837L103.31 39.3237L104.806 39.44ZM105.011 36.8L106.511 36.8052L106.52 34.1652L105.02 34.16L103.52 34.1548L103.511 36.7948L105.011 36.8ZM105.02 34.16L106.515 34.0316L106.289 31.41L104.795 31.5384L103.3 31.6668L103.526 34.2884L105.02 34.16ZM104.795 31.5384L106.243 31.1463L105.57 28.662L104.122 29.0542L102.674 29.4464L103.347 31.9306L104.795 31.5384ZM104.122 29.0542L105.368 28.2186L103.883 26.0056L102.638 26.8412L101.392 27.6769L102.876 29.8898L104.122 29.0542ZM102.638 26.8412L102.973 25.3792L100.397 24.7886L100.062 26.2506L99.7269 27.7127L102.302 28.3033L102.638 26.8412ZM100.062 26.2506L99.9186 24.7575L97.3963 25.0001L97.5399 26.4932L97.6836 27.9863L100.206 27.7437L100.062 26.2506ZM97.5399 26.4932L96.544 25.3716L94.6411 27.0613L95.6371 28.1829L96.633 29.3045L98.5359 27.6149L97.5399 26.4932ZM95.6371 28.1829L94.3923 27.3459L92.9394 29.5067L94.1841 30.3437L95.4289 31.1807L96.8818 29.0199L95.6371 28.1829ZM94.1841 30.3437L92.6873 30.2469L92.5168 32.8835L94.0137 32.9803L95.5105 33.0771L95.681 30.4405L94.1841 30.3437ZM94.0137 32.9803L92.5144 33.0286L92.5995 35.6686L94.0987 35.6203L95.5979 35.572L95.5129 32.932L94.0137 32.9803ZM94.0987 35.6203L92.6016 35.7133L92.7656 38.3533L94.2627 38.2603L95.7598 38.1673L95.5958 35.5273L94.0987 35.6203ZM94.2627 38.2603L92.7856 37.9991L92.3187 40.6391L93.7958 40.9003L95.2729 41.1615L95.7397 38.5215L94.2627 38.2603ZM93.7958 40.9003L92.3184 41.1596L92.7818 43.7996L94.2592 43.5403L95.7366 43.2809L95.2732 40.6409L93.7958 40.9003ZM94.2592 43.5403L92.7658 43.3995L92.5169 46.0395L94.0103 46.1803L95.5037 46.3211L95.7526 43.6811L94.2592 43.5403ZM94.0103 46.1803L92.5125 46.2612L92.6551 48.9012L94.1529 48.8203L95.6507 48.7394L95.5081 46.0994L94.0103 46.1803ZM94.1529 48.8203L92.6654 48.6275L92.5124 49.8072L94 50L95.4876 50.1928L95.6405 49.0131L94.1529 48.8203Z" fill="black"/>
<path d="M42 49.9H43.5V49.8677L43.4986 49.8355L42 49.9ZM41.8907 47.36L40.3989 47.203L40.3873 47.3135L40.3921 47.4245L41.8907 47.36ZM42.1686 44.72L43.6603 44.877L43.6762 44.7261L43.6615 44.575L42.1686 44.72ZM41.9122 42.08L40.4134 42.1404L40.4151 42.1828L40.4192 42.225L41.9122 42.08ZM41.8058 39.44L40.3103 39.3237L40.3034 39.412L40.307 39.5004L41.8058 39.44ZM42.0111 36.8L43.5065 36.9163L43.5109 36.8608L43.511 36.8052L42.0111 36.8ZM42.0202 34.16L43.5202 34.1652L43.5204 34.0983L43.5147 34.0316L42.0202 34.16ZM41.7949 31.5384L43.2894 31.41L43.2779 31.276L43.2428 31.1463L41.7949 31.5384ZM41.122 29.0542L42.5699 28.662L42.5053 28.4237L42.3677 28.2186L41.122 29.0542ZM39.6376 26.8412L40.8833 26.0056L40.5522 25.512L39.9729 25.3792L39.6376 26.8412ZM37.0622 26.2506L37.3975 24.7886L37.1605 24.7342L36.9186 24.7575L37.0622 26.2506ZM34.5399 26.4932L34.3963 25.0001L33.9096 25.0469L33.544 25.3716L34.5399 26.4932ZM32.6371 28.1829L31.6411 27.0613L31.4986 27.1878L31.3923 27.3459L32.6371 28.1829ZM31.1841 30.3437L29.9394 29.5067L29.7134 29.8428L29.6873 30.2469L31.1841 30.3437ZM31.0137 32.9803L29.5168 32.8835L29.5121 32.956L29.5144 33.0286L31.0137 32.9803ZM31.0987 35.6203L29.5995 35.6686L29.6002 35.6909L29.6016 35.7133L31.0987 35.6203ZM31.2627 38.2603L32.7397 38.5215L32.7709 38.3456L32.7598 38.1673L31.2627 38.2603ZM30.7958 40.9003L29.3187 40.6391L29.2727 40.8993L29.3184 41.1596L30.7958 40.9003ZM31.2592 43.5403L32.7526 43.6811L32.7715 43.4799L32.7366 43.2809L31.2592 43.5403ZM31.0103 46.1803L29.5169 46.0395L29.5065 46.1502L29.5125 46.2612L31.0103 46.1803ZM31.1529 48.8203L32.6405 49.0131L32.6582 48.8767L32.6507 48.7394L31.1529 48.8203ZM42 50H43.5V49.9H42H40.5V50H42ZM42 49.9L43.4986 49.8355L43.3893 47.2955L41.8907 47.36L40.3921 47.4245L40.5014 49.9645L42 49.9ZM41.8907 47.36L43.3824 47.517L43.6603 44.877L42.1686 44.72L40.6768 44.563L40.3989 47.203L41.8907 47.36ZM42.1686 44.72L43.6615 44.575L43.4052 41.935L41.9122 42.08L40.4192 42.225L40.6756 44.865L42.1686 44.72ZM41.9122 42.08L43.411 42.0196L43.3046 39.3796L41.8058 39.44L40.307 39.5004L40.4134 42.1404L41.9122 42.08ZM41.8058 39.44L43.3013 39.5563L43.5065 36.9163L42.0111 36.8L40.5156 36.6837L40.3103 39.3237L41.8058 39.44ZM42.0111 36.8L43.511 36.8052L43.5202 34.1652L42.0202 34.16L40.5202 34.1548L40.5111 36.7948L42.0111 36.8ZM42.0202 34.16L43.5147 34.0316L43.2894 31.41L41.7949 31.5384L40.3005 31.6668L40.5257 34.2884L42.0202 34.16ZM41.7949 31.5384L43.2428 31.1463L42.5699 28.662L41.122 29.0542L39.6742 29.4464L40.3471 31.9306L41.7949 31.5384ZM41.122 29.0542L42.3677 28.2186L40.8833 26.0056L39.6376 26.8412L38.3919 27.6769L39.8763 29.8898L41.122 29.0542ZM39.6376 26.8412L39.9729 25.3792L37.3975 24.7886L37.0622 26.2506L36.7269 27.7127L39.3023 28.3033L39.6376 26.8412ZM37.0622 26.2506L36.9186 24.7575L34.3963 25.0001L34.5399 26.4932L34.6836 27.9863L37.2058 27.7437L37.0622 26.2506ZM34.5399 26.4932L33.544 25.3716L31.6411 27.0613L32.6371 28.1829L33.633 29.3045L35.5359 27.6149L34.5399 26.4932ZM32.6371 28.1829L31.3923 27.3459L29.9394 29.5067L31.1841 30.3437L32.4289 31.1807L33.8818 29.0199L32.6371 28.1829ZM31.1841 30.3437L29.6873 30.2469L29.5168 32.8835L31.0137 32.9803L32.5105 33.0771L32.681 30.4405L31.1841 30.3437ZM31.0137 32.9803L29.5144 33.0286L29.5995 35.6686L31.0987 35.6203L32.5979 35.572L32.5129 32.932L31.0137 32.9803ZM31.0987 35.6203L29.6016 35.7133L29.7656 38.3533L31.2627 38.2603L32.7598 38.1673L32.5958 35.5273L31.0987 35.6203ZM31.2627 38.2603L29.7856 37.9991L29.3187 40.6391L30.7958 40.9003L32.2729 41.1615L32.7397 38.5215L31.2627 38.2603ZM30.7958 40.9003L29.3184 41.1596L29.7818 43.7996L31.2592 43.5403L32.7366 43.2809L32.2732 40.6409L30.7958 40.9003ZM31.2592 43.5403L29.7658 43.3995L29.5169 46.0395L31.0103 46.1803L32.5037 46.3211L32.7526 43.6811L31.2592 43.5403ZM31.0103 46.1803L29.5125 46.2612L29.6551 48.9012L31.1529 48.8203L32.6507 48.7394L32.5081 46.0994L31.0103 46.1803ZM31.1529 48.8203L29.6654 48.6275L29.5124 49.8072L31 50L32.4876 50.1928L32.6405 49.0131L31.1529 48.8203Z" fill="black"/>
<path d="M26 49.9H27.5V49.8677L27.4986 49.8355L26 49.9ZM25.8907 47.36L24.3989 47.203L24.3873 47.3135L24.3921 47.4245L25.8907 47.36ZM26.1686 44.72L27.6603 44.877L27.6762 44.7261L27.6615 44.575L26.1686 44.72ZM25.9122 42.08L24.4134 42.1404L24.4151 42.1828L24.4192 42.225L25.9122 42.08ZM25.8058 39.44L24.3103 39.3237L24.3034 39.412L24.307 39.5004L25.8058 39.44ZM26.0111 36.8L27.5065 36.9163L27.5109 36.8608L27.511 36.8052L26.0111 36.8ZM26.0202 34.16L27.5202 34.1652L27.5204 34.0983L27.5147 34.0316L26.0202 34.16ZM25.7949 31.5384L27.2894 31.41L27.2779 31.276L27.2428 31.1463L25.7949 31.5384ZM25.122 29.0542L26.5699 28.662L26.5053 28.4237L26.3677 28.2186L25.122 29.0542ZM23.6376 26.8412L24.8833 26.0056L24.5522 25.512L23.9729 25.3792L23.6376 26.8412ZM21.0622 26.2506L21.3975 24.7886L21.1605 24.7342L20.9186 24.7575L21.0622 26.2506ZM18.5399 26.4932L18.3963 25.0001L17.9096 25.0469L17.544 25.3716L18.5399 26.4932ZM16.6371 28.1829L15.6411 27.0613L15.4986 27.1878L15.3923 27.3459L16.6371 28.1829ZM15.1841 30.3437L13.9394 29.5067L13.7134 29.8428L13.6873 30.2469L15.1841 30.3437ZM15.0137 32.9803L13.5168 32.8835L13.5121 32.956L13.5144 33.0286L15.0137 32.9803ZM15.0987 35.6203L13.5995 35.6686L13.6002 35.6909L13.6016 35.7133L15.0987 35.6203ZM15.2627 38.2603L16.7397 38.5215L16.7709 38.3456L16.7598 38.1673L15.2627 38.2603ZM14.7958 40.9003L13.3187 40.6391L13.2727 40.8993L13.3184 41.1596L14.7958 40.9003ZM15.2592 43.5403L16.7526 43.6811L16.7715 43.4799L16.7366 43.2809L15.2592 43.5403ZM15.0103 46.1803L13.5169 46.0395L13.5065 46.1502L13.5125 46.2612L15.0103 46.1803ZM15.1529 48.8203L16.6405 49.0131L16.6582 48.8767L16.6507 48.7394L15.1529 48.8203ZM26 50H27.5V49.9H26H24.5V50H26ZM26 49.9L27.4986 49.8355L27.3893 47.2955L25.8907 47.36L24.3921 47.4245L24.5014 49.9645L26 49.9ZM25.8907 47.36L27.3824 47.517L27.6603 44.877L26.1686 44.72L24.6768 44.563L24.3989 47.203L25.8907 47.36ZM26.1686 44.72L27.6615 44.575L27.4052 41.935L25.9122 42.08L24.4192 42.225L24.6756 44.865L26.1686 44.72ZM25.9122 42.08L27.411 42.0196L27.3046 39.3796L25.8058 39.44L24.307 39.5004L24.4134 42.1404L25.9122 42.08ZM25.8058 39.44L27.3013 39.5563L27.5065 36.9163L26.0111 36.8L24.5156 36.6837L24.3103 39.3237L25.8058 39.44ZM26.0111 36.8L27.511 36.8052L27.5202 34.1652L26.0202 34.16L24.5202 34.1548L24.5111 36.7948L26.0111 36.8ZM26.0202 34.16L27.5147 34.0316L27.2894 31.41L25.7949 31.5384L24.3005 31.6668L24.5257 34.2884L26.0202 34.16ZM25.7949 31.5384L27.2428 31.1463L26.5699 28.662L25.122 29.0542L23.6742 29.4464L24.3471 31.9306L25.7949 31.5384ZM25.122 29.0542L26.3677 28.2186L24.8833 26.0056L23.6376 26.8412L22.3919 27.6769L23.8763 29.8898L25.122 29.0542ZM23.6376 26.8412L23.9729 25.3792L21.3975 24.7886L21.0622 26.2506L20.7269 27.7127L23.3023 28.3033L23.6376 26.8412ZM21.0622 26.2506L20.9186 24.7575L18.3963 25.0001L18.5399 26.4932L18.6836 27.9863L21.2058 27.7437L21.0622 26.2506ZM18.5399 26.4932L17.544 25.3716L15.6411 27.0613L16.6371 28.1829L17.633 29.3045L19.5359 27.6149L18.5399 26.4932ZM16.6371 28.1829L15.3923 27.3459L13.9394 29.5067L15.1841 30.3437L16.4289 31.1807L17.8818 29.0199L16.6371 28.1829ZM15.1841 30.3437L13.6873 30.2469L13.5168 32.8835L15.0137 32.9803L16.5105 33.0771L16.681 30.4405L15.1841 30.3437ZM15.0137 32.9803L13.5144 33.0286L13.5995 35.6686L15.0987 35.6203L16.5979 35.572L16.5129 32.932L15.0137 32.9803ZM15.0987 35.6203L13.6016 35.7133L13.7656 38.3533L15.2627 38.2603L16.7598 38.1673L16.5958 35.5273L15.0987 35.6203ZM15.2627 38.2603L13.7856 37.9991L13.3187 40.6391L14.7958 40.9003L16.2729 41.1615L16.7397 38.5215L15.2627 38.2603ZM14.7958 40.9003L13.3184 41.1596L13.7818 43.7996L15.2592 43.5403L16.7366 43.2809L16.2732 40.6409L14.7958 40.9003ZM15.2592 43.5403L13.7658 43.3995L13.5169 46.0395L15.0103 46.1803L16.5037 46.3211L16.7526 43.6811L15.2592 43.5403ZM15.0103 46.1803L13.5125 46.2612L13.6551 48.9012L15.1529 48.8203L16.6507 48.7394L16.5081 46.0994L15.0103 46.1803ZM15.1529 48.8203L13.6654 48.6275L13.5124 49.8072L15 50L16.4876 50.1928L16.6405 49.0131L15.1529 48.8203Z" fill="black"/>
<path d="M40.1 87.5V89H40.1323L40.1645 88.9986L40.1 87.5ZM42.64 87.3907L42.797 85.8989L42.6865 85.8873L42.5755 85.8921L42.64 87.3907ZM45.28 87.6686L45.123 89.1603L45.2739 89.1762L45.425 89.1615L45.28 87.6686ZM47.92 87.4122L49.0288 86.402L48.5228 85.8466L47.775 85.9192L47.92 87.4122ZM40 87.5V89H40.1V87.5V86H40V87.5ZM40.1 87.5L40.1645 88.9986L42.7045 88.8893L42.64 87.3907L42.5755 85.8921L40.0355 86.0014L40.1 87.5ZM42.64 87.3907L42.483 88.8824L45.123 89.1603L45.28 87.6686L45.437 86.1768L42.797 85.8989L42.64 87.3907ZM45.28 87.6686L45.425 89.1615L48.065 88.9052L47.92 87.4122L47.775 85.9192L45.135 86.1756L45.28 87.6686ZM47.92 87.4122L46.8112 88.4224L46.8912 88.5102L48 87.5L49.1088 86.4898L49.0288 86.402L47.92 87.4122Z" fill="black"/>
<path d="M72.1 87.5V89H72.1323L72.1645 88.9986L72.1 87.5ZM74.64 87.3907L74.797 85.8989L74.6865 85.8873L74.5755 85.8921L74.64 87.3907ZM77.28 87.6686L77.123 89.1603L77.2739 89.1762L77.425 89.1615L77.28 87.6686ZM79.92 87.4122L81.0288 86.402L80.5228 85.8466L79.775 85.9192L79.92 87.4122ZM72 87.5V89H72.1V87.5V86H72V87.5ZM72.1 87.5L72.1645 88.9986L74.7045 88.8893L74.64 87.3907L74.5755 85.8921L72.0355 86.0014L72.1 87.5ZM74.64 87.3907L74.483 88.8824L77.123 89.1603L77.28 87.6686L77.437 86.1768L74.797 85.8989L74.64 87.3907ZM77.28 87.6686L77.425 89.1615L80.065 88.9052L79.92 87.4122L79.775 85.9192L77.135 86.1756L77.28 87.6686ZM79.92 87.4122L78.8112 88.4224L78.8912 88.5102L80 87.5L81.1088 86.4898L81.0288 86.402L79.92 87.4122Z" fill="black"/>
<path d="M103.1 87.5V89H103.132L103.165 88.9986L103.1 87.5ZM105.64 87.3907L105.797 85.8989L105.687 85.8873L105.575 85.8921L105.64 87.3907ZM108.28 87.6686L108.123 89.1603L108.274 89.1762L108.425 89.1615L108.28 87.6686ZM110.92 87.4122L112.029 86.402L111.523 85.8466L110.775 85.9192L110.92 87.4122ZM103 87.5V89H103.1V87.5V86H103V87.5ZM103.1 87.5L103.165 88.9986L105.705 88.8893L105.64 87.3907L105.575 85.8921L103.035 86.0014L103.1 87.5ZM105.64 87.3907L105.483 88.8824L108.123 89.1603L108.28 87.6686L108.437 86.1768L105.797 85.8989L105.64 87.3907ZM108.28 87.6686L108.425 89.1615L111.065 88.9052L110.92 87.4122L110.775 85.9192L108.135 86.1756L108.28 87.6686ZM110.92 87.4122L109.811 88.4224L109.891 88.5102L111 87.5L112.109 86.4898L112.029 86.402L110.92 87.4122Z" fill="black"/>
<path d="M8.1 87.5V89H8.13227L8.16451 88.9986L8.1 87.5ZM10.64 87.3907L10.797 85.8989L10.6865 85.8873L10.5755 85.8921L10.64 87.3907ZM13.28 87.6686L13.123 89.1603L13.2739 89.1762L13.425 89.1615L13.28 87.6686ZM15.92 87.4122L17.0288 86.402L16.5228 85.8466L15.775 85.9192L15.92 87.4122ZM8 87.5V89H8.1V87.5V86H8V87.5ZM8.1 87.5L8.16451 88.9986L10.7045 88.8893L10.64 87.3907L10.5755 85.8921L8.03549 86.0014L8.1 87.5ZM10.64 87.3907L10.483 88.8824L13.123 89.1603L13.28 87.6686L13.437 86.1768L10.797 85.8989L10.64 87.3907ZM13.28 87.6686L13.425 89.1615L16.065 88.9052L15.92 87.4122L15.775 85.9192L13.135 86.1756L13.28 87.6686ZM15.92 87.4122L14.8112 88.4224L14.8912 88.5102L16 87.5L17.1088 86.4898L17.0288 86.402L15.92 87.4122Z" fill="black"/>
</svg>
