<svg xmlns="http://www.w3.org/2000/svg" width="120" height="120" fill="none" viewBox="0 0 120 120"><path fill="#000" d="m61.533 12.568 1.668.128-.1 1.303 1.485-.002v1.813l-.147-.011-.112 1.24.104 2.857.036.524.447-.026 1.582-.093V22h-1.488l.082 1.383-.436.025.081 2.54.002.063-.004.063-.154 2.864.388 2.847.005.036.003.037.258 2.988.255 2.93.396 2.61 1.108-.003 1.512-.012V42h-1.5v1.383h-.888l.027.4.08.602.77-.002 1.51-.012V46h-1.5v1.383h-.38l.28 2.248.599 2.822.794 2.857.015.055.011.056.575 2.901.49 2.176.476-.045 1.64-.152V62h-1.5l.13 1.441-.073.006.154.674.083.291 1.207-.111V66h-.75l.28.967.025.089.013.091.45 2.844.959 2.645 1.173 2.734.052.12.03.128.66 2.809.804 1.896.335-.01.363-.024.329.164.41.188L76.004 82l-.104.212.568 1.71 1.347 2.557.087.165.044.183.668 2.78 1.296 2.514.022.041 1.273 2.672 1.35 2.642 1.425 2.639.002.004 1.418 2.642.035.065.029.07 1.07 2.579 1.798 2.171.129.156.083.183.163.362.79-.046V110h-.043l.303.669 1.466 2.536.021.038.02.038.637 1.268.251.01 3.47-.305.163-.012.176.024 3.363.48 3.375-.176h.059l3.492-.011v-.012l3.492-.047v-.012l2.203-.07 1.559-.059V116h-1.5l.047 1.406-2.215.082h-.024l-3.503.059h-.012l-3.469.012.012.011-3.504.176-.14.012-.141-.024-3.34-.48-2.35.205.134.266-2.416.015-3 .019-.134.001-.13-.023-1.252-.216-1.282.061h-.187l-1.882-.169-1.008.091-.121.012-.121-.009-1.624-.117-2.03.169h-.046l-3.504.152-.118.012-.105-.012-3.492-.363-3.352.058h-.047l-3.515-.058v-.012h-3.504l-3.41-.047-3.492.223-.024.011h-.035l-3.504.094h-.094l-3.504-.105v-.012l-3.48-.012h-.059l-1.48-.08-.009.001-3 .232-.11.008-.11-.007-2.93-.204-2.925.078-.057.002-.055-.003-1.858-.09-1.352.005.011.011-3.504.223-.117.012-.105-.012-3.375-.281h-3.457l.011.012-3.515.175h-.012l-3.515.118-.07.011-.071-.011-3.41-.188H8v-3h.188l3.351.199 3.41-.117v-.012l3.504-.175h.07l3.516-.012h.129l3.398.293 3.074-.213 1.364-1.763 1.22-2.578.046-.098.06-.088 1.607-2.428 1.302-2.602.032-.061.036-.059 1.539-2.482 1.282-2.63.055-.11.072-.102 1.65-2.322 1.022-2.632 1.033-2.798.033-.09.045-.085 1.39-2.663 1.316-2.556.256-.802V84.5h.188l.132.008.301-.942.01-.033-.62-.033H44v-3h.188l1.693.1.755-2.637.763-2.875.022-.082.03-.078 1.051-2.7.677-2.823.006-.025.006-.025.798-2.888.011-.04V64.5h.188l.588.034.387-.932.009-.038-1.16-.064H50v-3h.188l1.69.1.474-2.631.454-2.968.01-.067.016-.066.719-2.915.003-.014.004-.012.74-2.791.148-1.558-1.434-.078H53v-3h.188l1.588.094.122-.99-1.886-.104H53v-3h.188l2.173.129.051-.313.084-2.904.004-.126.024-.124.575-2.875.257-2.798-.224-2.887-.007-.09.003-.09.125-2.994v-.019l.002-.017.12-1.818-1.363-.074H55v-3h.188l1.354.08.05-1.03-.347-2.87-.038-.31.09-.3.684-2.293.304-1.02 1.062-.05 3-.142.093-.005zM57.52 98.99l-2.72.526-2.432 1.14-2.15 1.62-1.704 2.123-1.442 2.446-1.311 2.456-.713 2.719-.002.006-.002.008-.676 2.471 2.258.008h.035l3.457.105 3.41-.082 3.516-.246h.117l3.504.047-.012.012h3.528l3.48.058 3.492-.058h.094l.094.011 3.433.364.554-.028v-2.448l-.65-2.521-1.47-2.346-1.614-2.464-1.552-2.207-2.207-1.526-2.345-1.426-2.595-.729-2.66-.397zm27.594 12.57-.023.011h-.012l-3.516.118-.07.011-.07-.011-3.186-.176.045.173.047.184v2.113l1.031.33 1.038.074 1.197-.097.117-.012.129.012 1.334.116 1.765-.158.196-.018.194.034 1.445.249 1.697-.074-1.349-2.333-.038-.065-.03-.067-.234-.516zm-51.222-.059-1.246 2.635-.07.147-.1.129-.006.007h.105l3.457.012 3.504-.118.07-.011.06.011 1.184.059.607-.597.622-2.273-.965.058-.023.011h-.012l-3.516.118-.07.011-.07-.011-3.41-.188H34v-.165zm38.246-24.07h-.059l-3.504-.012-3.433.012.011.011-3.504.223-.117.012-.105-.012-3.375-.281h-3.457l.011.011-3.515.176h-.012l-3.516.118-.07.011-.07-.011-.982-.055-1.348 2.62-.004.008-1.348 2.58-1.008 2.73-.004.011-.004.01-1.09 2.81-.067.174-.109.153-1.688 2.373-1.258 2.583-.035.068-.04.065-1.547 2.494-1.142 2.281 1.791.106 3.387-.117v-.012l1.955-.115.022-.085.044-.171.083-.154 1.405-2.632.014-.027.017-.028 1.514-2.571.055-.093.068-.084 1.89-2.357.117-.147.15-.112 2.424-1.826.124-.093.14-.066 2.742-1.288.17-.08.184-.035 2.953-.57.044-.01.045-.005 2.968-.391.209-.028.209.03 2.96.444.093.014.09.025 2.882.809.198.055.177.107 2.555 1.555.038.022.036.026 2.467 1.706.22.151.153.219 1.727 2.456.014.019.014.022 1.62 2.474.009.013.007.012 1.61 2.567.125.197.057.226.476 1.843V108.5h.188l3.351.199 3.387-.117v-.012l.263-.015-1.108-1.338-.144-.174-.085-.208-1.13-2.718-1.38-2.576-1.427-2.639-.016-.03-1.366-2.673-.009-.017-.008-.019-1.285-2.693-1.365-2.648-.083-.16-.042-.177-.669-2.776-.2-.382zm-17.531-4.036-3.516.176h-.012l-3.243.108-.377.866-.048.147.13.008 3.41-.117v-.012l3.503-.175h.07l3.516-.012h.129l3.398.293 3.399-.235h.082l3.516-.023h.011l3.457.012 1.429-.048-.328-.99-.995.038h-.059l-3.504-.012-3.433.012.011.011-3.504.223-.117.012-.105-.012-1.006-.084-1.22.01h-.024l-3-.035-.996-.012-.065-.16h-.521zm6-16-3.516.176h-.012l-3.516.118-.07.011-.07-.011-.649-.037-.684 2.482-.691 2.89-.025.1-.037.096-1.058 2.713-.75 2.829-.004.014-.005.014-.533 1.86 1.963-.067v-.012l2.992-.15.02-.276.21-3.011v-.07l.024-.07.504-2.966.035-.234.118-.2L56 71.368l.445-.844.95.047 2.94.13 2.427-.118 1.957-1.383.117 2.742.035.856.574 2.789v.047l.504 2.883.437 1.916 2.177-.014h.011l3.412.01-.401-.947-.05-.119-.03-.124-.66-2.808-1.135-2.645-.018-.039-.014-.04-1.025-2.827-.049-.135-.022-.142-.459-2.896-.023-.08-.545.05-.13-.012-3.374-.281h-3.457zm-2.989 7.36-.469 2.742-.164 2.508.163.382.892-.003h.129l2.21.19 1.786-.007 1.16-.117-.293-1.265-.011-.036-.012-.046-.516-2.954.012-.011-.516-2.52-1.582.07-.07.012-.07-.011-2.04-.082zm2.989-11.36-3.516.176h-.012l-2.843.095-.184.76-.028.113-.045.106-.017.04 2.988-.102v-.012l3.504-.175h.07l3.516-.012h.129l3.09.268-.234-1.021-2.973-.247h-3.457zM60.09 47.57h-.012l-2.625.087-.179 1.885-.011.123-.032.12-.774 2.912-.696 2.822-.444 2.904-.002.02-.005.019-.393 2.19 2.032-.07v-.012l3.504-.175h.07l3.516-.012h.129l2.161.187-.358-1.588-.004-.018-.004-.02-.574-2.89-.788-2.837-.013-.045-.01-.045-.624-2.937-.014-.063-.007-.064-.332-2.669zm3.51-.181v-.006h-.006zm-3.51-3.819h-.012l-2.162.072-.125 1.013 2.158-.073v-.012l3.25-.163-.037-.28-.007-.05-.003-.052-.04-.606zm-.714-19.91-.127 1.93-.12 2.874.227 2.925.011.127-.011.126-.276 2.992-.007.079-.015.077-.567 2.835-.084 2.882-.003.098-.005.03 1.55-.053v-.012l2.907-.146-.34-2.236-.006-.047-.004-.047-.262-2.988v-.002l-.257-2.964-.398-2.933-.02-.14.008-.142.157-2.942-.076-2.399zm.175-8.007-.291.975.327 2.686.015.126-.006.128-.055 1.096 1.93-.066-.033-.493-.003-.026v-.024l-.109-3.004-.003-.095.008-.094.116-1.292-.057-.005z"/></svg>