<svg width="120" height="120" viewBox="0 0 120 120" fill="none" xmlns="http://www.w3.org/2000/svg">
<path d="M8.1 116V117.5H8.13227L8.16451 117.499L8.1 116ZM10.64 115.891L10.797 114.399L10.6865 114.387L10.5755 114.392L10.64 115.891ZM13.28 116.169L13.123 117.66L13.2739 117.676L13.425 117.662L13.28 116.169ZM15.92 115.912L15.8596 114.413L15.8172 114.415L15.775 114.419L15.92 115.912ZM18.56 115.806L18.6763 114.31L18.588 114.303L18.4996 114.307L18.56 115.806ZM21.2 116.011L21.0837 117.507L21.1392 117.511L21.1948 117.511L21.2 116.011ZM23.84 116.02L23.8348 117.52L23.8912 117.52L23.9474 117.516L23.84 116.02ZM26.48 115.831L26.5223 114.331L26.4473 114.329L26.3726 114.334L26.48 115.831ZM29.12 115.905L29.2963 114.415L29.2295 114.408L29.1623 114.406L29.12 115.905ZM31.76 116.217L31.5837 117.707L31.7941 117.732L32.0032 117.698L31.76 116.217ZM34.4 115.784L34.4793 114.286L34.3171 114.277L34.1568 114.303L34.4 115.784ZM37.04 115.923L36.9607 117.421L37.0493 117.426L37.1379 117.42L37.04 115.923ZM39.68 115.751L39.8617 114.262L39.7223 114.245L39.5821 114.254L39.68 115.751ZM42.32 116.073L42.1383 117.562L42.2533 117.576L42.3692 117.572L42.32 116.073ZM44.96 115.986L44.9117 114.487L44.9108 114.487L44.96 115.986ZM47.6 115.901L47.6483 117.401L47.6707 117.4L47.693 117.398L47.6 115.901ZM50.24 115.737L50.5012 114.26L50.3253 114.229L50.147 114.24L50.24 115.737ZM52.88 116.204L52.6188 117.681L52.879 117.727L53.1393 117.682L52.88 116.204ZM55.52 115.741L55.6608 114.247L55.4596 114.228L55.2606 114.263L55.52 115.741ZM58.16 115.99L58.0192 117.483L58.1299 117.493L58.2409 117.487L58.16 115.99ZM60.8 115.847L61.0126 114.362L60.8665 114.341L60.7191 114.349L60.8 115.847ZM63.44 116.225L63.2274 117.71L63.4714 117.745L63.7137 117.7L63.44 116.225ZM66.08 115.735L66.1582 114.237L65.9809 114.228L65.8063 114.26L66.08 115.735ZM68.72 115.873L68.6418 117.371L68.6647 117.372L68.6878 117.373L68.72 115.873ZM71.36 115.93L71.3278 117.429L71.3564 117.43L71.3849 117.429L71.36 115.93ZM74 115.886L74.185 114.397L74.0804 114.384L73.975 114.386L74 115.886ZM76.64 116.214L76.455 117.702L76.6155 117.722L76.7765 117.708L76.64 116.214ZM79.28 115.973L79.2685 114.473L79.2059 114.473L79.1435 114.479L79.28 115.973ZM81.92 115.952L82.0888 114.462L81.9989 114.452L81.9085 114.452L81.92 115.952ZM84.56 116.251L84.3912 117.742L84.5876 117.764L84.783 117.735L84.56 116.251ZM87.2 115.854L87.2734 114.356L87.1245 114.349L86.977 114.371L87.2 115.854ZM89.84 115.984L89.9255 114.486L89.9134 114.486L89.84 115.984ZM92.48 116.135L92.3945 117.632L92.4978 117.638L92.6008 117.63L92.48 116.135ZM95.12 115.921L95.1099 114.421L95.0544 114.422L94.9992 114.426L95.12 115.921ZM97.76 115.903L97.9616 114.417L97.8562 114.403L97.7499 114.403L97.76 115.903ZM100.4 116.261L100.198 117.748L100.434 117.78L100.667 117.737L100.4 116.261ZM103.04 115.784L103.284 114.304L103.028 114.262L102.773 114.308L103.04 115.784ZM105.68 116.219L105.436 117.699L105.576 117.722L105.719 117.718L105.68 116.219ZM108.32 116.151L108.359 117.65L108.453 117.648L108.546 117.634L108.32 116.151ZM110.96 115.748L111.313 114.29L111.026 114.221L110.734 114.265L110.96 115.748ZM8 116V117.5H8.1V116V114.5H8V116ZM8.1 116L8.16451 117.499L10.7045 117.389L10.64 115.891L10.5755 114.392L8.03549 114.501L8.1 116ZM10.64 115.891L10.483 117.382L13.123 117.66L13.28 116.169L13.437 114.677L10.797 114.399L10.64 115.891ZM13.28 116.169L13.425 117.662L16.065 117.405L15.92 115.912L15.775 114.419L13.135 114.676L13.28 116.169ZM15.92 115.912L15.9804 117.411L18.6204 117.305L18.56 115.806L18.4996 114.307L15.8596 114.413L15.92 115.912ZM18.56 115.806L18.4437 117.301L21.0837 117.507L21.2 116.011L21.3163 114.516L18.6763 114.31L18.56 115.806ZM21.2 116.011L21.1948 117.511L23.8348 117.52L23.84 116.02L23.8452 114.52L21.2052 114.511L21.2 116.011ZM23.84 116.02L23.9474 117.516L26.5874 117.327L26.48 115.831L26.3726 114.334L23.7326 114.524L23.84 116.02ZM26.48 115.831L26.4377 117.33L29.0777 117.404L29.12 115.905L29.1623 114.406L26.5223 114.331L26.48 115.831ZM29.12 115.905L28.9437 117.395L31.5837 117.707L31.76 116.217L31.9363 114.728L29.2963 114.415L29.12 115.905ZM31.76 116.217L32.0032 117.698L34.6432 117.264L34.4 115.784L34.1568 114.303L31.5168 114.737L31.76 116.217ZM34.4 115.784L34.3207 117.282L36.9607 117.421L37.04 115.923L37.1193 114.426L34.4793 114.286L34.4 115.784ZM37.04 115.923L37.1379 117.42L39.7779 117.248L39.68 115.751L39.5821 114.254L36.9421 114.427L37.04 115.923ZM39.68 115.751L39.4983 117.24L42.1383 117.562L42.32 116.073L42.5017 114.584L39.8617 114.262L39.68 115.751ZM42.32 116.073L42.3692 117.572L45.0092 117.486L44.96 115.986L44.9108 114.487L42.2708 114.574L42.32 116.073ZM44.96 115.986L45.0083 117.486L47.6483 117.401L47.6 115.901L47.5517 114.402L44.9117 114.487L44.96 115.986ZM47.6 115.901L47.693 117.398L50.333 117.234L50.24 115.737L50.147 114.24L47.507 114.404L47.6 115.901ZM50.24 115.737L49.9788 117.214L52.6188 117.681L52.88 116.204L53.1412 114.727L50.5012 114.26L50.24 115.737ZM52.88 116.204L53.1393 117.682L55.7793 117.218L55.52 115.741L55.2606 114.263L52.6207 114.727L52.88 116.204ZM55.52 115.741L55.3792 117.234L58.0192 117.483L58.16 115.99L58.3008 114.496L55.6608 114.247L55.52 115.741ZM58.16 115.99L58.2409 117.487L60.8809 117.345L60.8 115.847L60.7191 114.349L58.0791 114.492L58.16 115.99ZM60.8 115.847L60.5874 117.332L63.2274 117.71L63.44 116.225L63.6526 114.74L61.0126 114.362L60.8 115.847ZM63.44 116.225L63.7137 117.7L66.3537 117.21L66.08 115.735L65.8063 114.26L63.1663 114.75L63.44 116.225ZM66.08 115.735L66.0018 117.233L68.6418 117.371L68.72 115.873L68.7982 114.375L66.1582 114.237L66.08 115.735ZM68.72 115.873L68.6878 117.373L71.3278 117.429L71.36 115.93L71.3922 114.43L68.7522 114.373L68.72 115.873ZM71.36 115.93L71.3849 117.429L74.0249 117.386L74 115.886L73.975 114.386L71.335 114.43L71.36 115.93ZM74 115.886L73.815 117.374L76.455 117.702L76.64 116.214L76.825 114.725L74.185 114.397L74 115.886ZM76.64 116.214L76.7765 117.708L79.4165 117.466L79.28 115.973L79.1435 114.479L76.5035 114.72L76.64 116.214ZM79.28 115.973L79.2915 117.473L81.9315 117.452L81.92 115.952L81.9085 114.452L79.2685 114.473L79.28 115.973ZM81.92 115.952L81.7512 117.443L84.3912 117.742L84.56 116.251L84.7288 114.761L82.0888 114.462L81.92 115.952ZM84.56 116.251L84.783 117.735L87.423 117.338L87.2 115.854L86.977 114.371L84.337 114.768L84.56 116.251ZM87.2 115.854L87.1266 117.353L89.7666 117.482L89.84 115.984L89.9134 114.486L87.2734 114.356L87.2 115.854ZM89.84 115.984L89.7545 117.481L92.3945 117.632L92.48 116.135L92.5655 114.637L89.9255 114.486L89.84 115.984ZM92.48 116.135L92.6008 117.63L95.2408 117.416L95.12 115.921L94.9992 114.426L92.3592 114.639L92.48 116.135ZM95.12 115.921L95.1301 117.421L97.7701 117.403L97.76 115.903L97.7499 114.403L95.1099 114.421L95.12 115.921ZM97.76 115.903L97.5584 117.39L100.198 117.748L100.4 116.261L100.602 114.775L97.9616 114.417L97.76 115.903ZM100.4 116.261L100.667 117.737L103.307 117.26L103.04 115.784L102.773 114.308L100.133 114.785L100.4 116.261ZM103.04 115.784L102.796 117.264L105.436 117.699L105.68 116.219L105.924 114.738L103.284 114.304L103.04 115.784ZM105.68 116.219L105.719 117.718L108.359 117.65L108.32 116.151L108.281 114.651L105.641 114.719L105.68 116.219ZM108.32 116.151L108.546 117.634L111.186 117.231L110.96 115.748L110.734 114.265L108.094 114.668L108.32 116.151ZM110.96 115.748L110.607 117.206L111.647 117.458L112 116L112.353 114.542L111.313 114.29L110.96 115.748Z" fill="black"/>
<path d="M10.0354 58.9065L11.4383 59.4374L11.5511 59.1394L11.533 58.8214L10.0354 58.9065ZM9.89067 56.36L8.39891 56.203L8.38619 56.3238L8.39309 56.4451L9.89067 56.36ZM10.1686 53.72L11.6603 53.877L11.6762 53.7261L11.6615 53.575L10.1686 53.72ZM9.91219 51.08L9.16264 49.7807L8.32584 50.2634L8.41922 51.225L9.91219 51.08ZM12.21 49.7544L11.8002 48.3115L11.6214 48.3623L11.4604 48.4551L12.21 49.7544ZM14.7622 49.0296L15.1721 50.4725L15.1827 50.4695L15.1934 50.4663L14.7622 49.0296ZM17.2897 48.2711L17.7209 49.7078L17.7323 49.7044L17.7436 49.7008L17.2897 48.2711ZM19.8164 47.469L19.5943 45.9856L19.4763 46.0032L19.3625 46.0393L19.8164 47.469ZM22.4357 47.0769L22.4361 45.5769L22.3242 45.5769L22.2136 45.5934L22.4357 47.0769ZM25.0901 47.0777L25.0896 48.5777L25.2565 48.5778L25.4194 48.5411L25.0901 47.0777ZM27.6998 46.4905L27.7797 44.9927L27.5728 44.9816L27.3706 45.0271L27.6998 46.4905ZM30.3481 46.6318L30.2682 48.1297L30.3121 48.132L30.3562 48.1318L30.3481 46.6318ZM33.0029 46.6175L33.3594 45.1605L33.1797 45.1165L32.9948 45.1175L33.0029 46.6175ZM35.591 47.2506L35.2346 48.7076L35.3037 48.7246L35.3742 48.7348L35.591 47.2506ZM38.2026 47.6321L38.5077 46.1635L38.4638 46.1544L38.4194 46.1479L38.2026 47.6321ZM40.7917 48.17L41.1401 46.7111L41.1185 46.7059L41.0968 46.7014L40.7917 48.17ZM43.3746 48.7868L44.1331 47.4927L43.9403 47.3797L43.723 47.3278L43.3746 48.7868ZM45.6887 50.1433L44.9302 51.4373L45.0359 51.4993L45.1503 51.5433L45.6887 50.1433ZM48.2592 51.1319L49.7526 51.2727L49.8593 50.1402L48.7977 49.7319L48.2592 51.1319ZM48.0103 53.7719L46.5169 53.6311L46.5065 53.7418L46.5125 53.8528L48.0103 53.7719ZM48.1529 56.4119L49.6372 56.6287L49.6588 56.4805L49.6507 56.331L48.1529 56.4119ZM47.775 59L46.2907 58.7832L46.04 60.5H47.775V59ZM10 59L11.4029 59.5309L11.4383 59.4374L10.0354 58.9065L8.6325 58.3756L8.5971 58.4691L10 59ZM10.0354 58.9065L11.533 58.8214L11.3883 56.2749L9.89067 56.36L8.39309 56.4451L8.53781 58.9916L10.0354 58.9065ZM9.89067 56.36L11.3824 56.517L11.6603 53.877L10.1686 53.72L8.67681 53.563L8.39891 56.203L9.89067 56.36ZM10.1686 53.72L11.6615 53.575L11.4052 50.935L9.91219 51.08L8.41922 51.225L8.67559 53.865L10.1686 53.72ZM9.91219 51.08L10.6617 52.3793L12.9595 51.0537L12.21 49.7544L11.4604 48.4551L9.16264 49.7807L9.91219 51.08ZM12.21 49.7544L12.6198 51.1974L15.1721 50.4725L14.7622 49.0296L14.3524 47.5866L11.8002 48.3115L12.21 49.7544ZM14.7622 49.0296L15.1934 50.4663L17.7209 49.7078L17.2897 48.2711L16.8586 46.8344L14.3311 47.5929L14.7622 49.0296ZM17.2897 48.2711L17.7436 49.7008L20.2702 48.8987L19.8164 47.469L19.3625 46.0393L16.8359 46.8414L17.2897 48.2711ZM19.8164 47.469L20.0385 48.9525L22.6578 48.5604L22.4357 47.0769L22.2136 45.5934L19.5943 45.9856L19.8164 47.469ZM22.4357 47.0769L22.4352 48.5769L25.0896 48.5777L25.0901 47.0777L25.0906 45.5777L22.4361 45.5769L22.4357 47.0769ZM25.0901 47.0777L25.4194 48.5411L28.0291 47.954L27.6998 46.4905L27.3706 45.0271L24.7608 45.6143L25.0901 47.0777ZM27.6998 46.4905L27.6199 47.9884L30.2682 48.1297L30.3481 46.6318L30.428 45.1339L27.7797 44.9927L27.6998 46.4905ZM30.3481 46.6318L30.3562 48.1318L33.011 48.1175L33.0029 46.6175L32.9948 45.1175L30.34 45.1318L30.3481 46.6318ZM33.0029 46.6175L32.6465 48.0745L35.2346 48.7076L35.591 47.2506L35.9474 45.7936L33.3594 45.1605L33.0029 46.6175ZM35.591 47.2506L35.3742 48.7348L37.9857 49.1164L38.2026 47.6321L38.4194 46.1479L35.8078 45.7664L35.591 47.2506ZM38.2026 47.6321L37.8974 49.1008L40.4865 49.6387L40.7917 48.17L41.0968 46.7014L38.5077 46.1635L38.2026 47.6321ZM40.7917 48.17L40.4433 49.629L43.0262 50.2458L43.3746 48.7868L43.723 47.3278L41.1401 46.7111L40.7917 48.17ZM43.3746 48.7868L42.6161 50.0809L44.9302 51.4373L45.6887 50.1433L46.4473 48.8492L44.1331 47.4927L43.3746 48.7868ZM45.6887 50.1433L45.1503 51.5433L47.7207 52.5319L48.2592 51.1319L48.7977 49.7319L46.2272 48.7432L45.6887 50.1433ZM48.2592 51.1319L46.7658 50.9911L46.5169 53.6311L48.0103 53.7719L49.5037 53.9127L49.7526 51.2727L48.2592 51.1319ZM48.0103 53.7719L46.5125 53.8528L46.6551 56.4928L48.1529 56.4119L49.6507 56.331L49.5081 53.691L48.0103 53.7719ZM48.1529 56.4119L46.6687 56.1952L46.2907 58.7832L47.775 59L49.2592 59.2168L49.6372 56.6287L48.1529 56.4119ZM47.775 59V60.5H48V59V57.5H47.775V59Z" fill="black"/>
<path d="M48 57.1833L46.6495 56.5306L46.5 56.8398V57.1833H48ZM48 57.2833H46.5V57.3156L46.5014 57.3478L48 57.2833ZM48.1093 59.8233L49.6011 59.9804L49.6127 59.8699L49.6079 59.7588L48.1093 59.8233ZM47.8314 62.4633L46.3397 62.3063L46.3238 62.4573L46.3385 62.6083L47.8314 62.4633ZM48.0878 65.1033L49.5866 65.0429L49.5849 65.0006L49.5808 64.9583L48.0878 65.1033ZM48.1942 67.7433L49.6897 67.8596L49.6966 67.7714L49.693 67.6829L48.1942 67.7433ZM47.9889 70.3833L46.4935 70.2671L46.4891 70.3225L46.489 70.3781L47.9889 70.3833ZM47.9798 73.0233L46.4798 73.0181L46.4796 73.0745L46.4837 73.1308L47.9798 73.0233ZM48.1694 75.6633L49.6688 75.7056L49.6709 75.6307L49.6655 75.5559L48.1694 75.6633ZM48.095 78.3033L49.5846 78.4796L49.5925 78.4128L49.5944 78.3456L48.095 78.3033ZM47.7826 80.9433L46.293 80.7671L46.2681 80.9775L46.3024 81.1865L47.7826 80.9433ZM48.2164 83.5833L49.7143 83.6626L49.7229 83.5004L49.6965 83.3401L48.2164 83.5833ZM48.0766 86.2233L46.5787 86.144L46.574 86.2327L46.5798 86.3212L48.0766 86.2233ZM48.2492 88.8633L49.7382 89.045L49.7552 88.9056L49.7461 88.7654L48.2492 88.8633ZM47.9271 91.5033L46.4381 91.3216L46.4241 91.4367L46.4279 91.5525L47.9271 91.5033ZM48.0137 94.1433L49.5129 94.095L49.5129 94.0942L48.0137 94.1433ZM48.0987 96.7833L46.5995 96.8316L46.6002 96.854L46.6016 96.8763L48.0987 96.7833ZM48.2627 99.4233L49.7397 99.6846L49.7709 99.5087L49.7598 99.3304L48.2627 99.4233ZM47.7958 102.063L46.3187 101.802L46.2727 102.062L46.3184 102.323L47.7958 102.063ZM48.2592 104.703L49.7526 104.844L49.7715 104.643L49.7366 104.444L48.2592 104.703ZM48.0103 107.343L46.5169 107.203L46.5065 107.313L46.5125 107.424L48.0103 107.343ZM48.1529 109.983L49.6378 110.196L49.6587 110.05L49.6507 109.902L48.1529 109.983ZM47.775 112.623L46.2901 112.411L46.2552 112.655L46.3002 112.897L47.775 112.623ZM48.2649 115.263L48.82 116.657L49.9646 116.201L49.7398 114.99L48.2649 115.263ZM46.0967 116.127L46.0644 117.627L46.3689 117.633L46.6518 117.521L46.0967 116.127ZM43.4567 116.07L43.4889 114.571L43.4603 114.57L43.4317 114.571L43.4567 116.07ZM40.8167 116.114L40.6317 117.603L40.7363 117.616L40.8416 117.614L40.8167 116.114ZM38.1767 115.786L38.3617 114.298L38.2012 114.278L38.0401 114.292L38.1767 115.786ZM35.5367 116.027L35.5481 117.527L35.6108 117.527L35.6732 117.521L35.5367 116.027ZM32.8967 116.048L32.7279 117.538L32.8177 117.548L32.9081 117.548L32.8967 116.048ZM30.2567 115.749L30.4254 114.258L30.2291 114.236L30.0337 114.265L30.2567 115.749ZM27.6167 116.146L27.5432 117.644L27.6922 117.651L27.8396 117.629L27.6167 116.146ZM24.9767 116.016L24.8912 117.514L24.9032 117.514L24.9767 116.016ZM22.3367 115.865L22.4221 114.368L22.3189 114.362L22.2158 114.37L22.3367 115.865ZM19.6967 116.079L19.7068 117.579L19.7622 117.578L19.8175 117.574L19.6967 116.079ZM17.0567 116.097L16.8551 117.583L16.9605 117.597L17.0668 117.597L17.0567 116.097ZM14.4167 115.739L14.6183 114.252L14.3831 114.22L14.1496 114.263L14.4167 115.739ZM11.7767 116.216L10.9224 117.449L11.4328 117.803L12.0437 117.692L11.7767 116.216ZM10.2185 115.137L8.719 115.175L8.73855 115.936L9.36425 116.37L10.2185 115.137ZM10.1507 112.497L11.6502 112.458L11.6478 112.364L11.6335 112.27L10.1507 112.497ZM9.74794 109.857L8.24795 109.851L8.24754 109.968L8.2651 110.083L9.74794 109.857ZM9.75732 107.217L8.27308 107L8.2577 107.105L8.25733 107.211L9.75732 107.217ZM10.1431 104.577L11.6273 104.794L11.6492 104.644L11.6407 104.492L10.1431 104.577ZM9.99436 101.937L8.49438 101.945L8.49458 101.983L8.49673 102.021L9.99436 101.937ZM9.98026 99.2967L8.48082 99.2558L8.48015 99.2802L8.48028 99.3047L9.98026 99.2967ZM10.0522 96.6567L11.5517 96.6975L11.5519 96.6881L10.0522 96.6567ZM10.1075 94.0167L8.60837 93.966L8.60804 93.9756L8.60784 93.9852L10.1075 94.0167ZM10.1967 91.3767L11.6959 91.4273L11.7001 91.3024L11.6836 91.1784L10.1967 91.3767ZM9.84469 88.7367L8.34649 88.6632L8.3398 88.7996L8.35785 88.9349L9.84469 88.7367ZM9.97414 86.0967L11.4723 86.1701L11.4771 86.0728L11.4692 85.9757L9.97414 86.0967ZM9.76047 83.4567L8.27025 83.2856L8.25352 83.4314L8.26535 83.5777L9.76047 83.4567ZM10.0635 80.8167L11.5537 80.9877L11.566 80.8812L11.5629 80.774L10.0635 80.8167ZM9.98844 78.1767L8.48844 78.1795L8.48848 78.1994L8.48905 78.2193L9.98844 78.1767ZM9.98353 75.5367L11.4835 75.5339L11.4835 75.4984L11.4817 75.463L9.98353 75.5367ZM9.85378 72.8967L8.35406 72.8674L8.35306 72.9189L8.35559 72.9703L9.85378 72.8967ZM9.90533 70.2567L8.40565 70.2258L8.40561 70.2274L9.90533 70.2567ZM9.95974 67.6167L11.4595 67.6476L11.4596 67.6345L9.95974 67.6167ZM9.99104 64.9767L11.4909 64.9945L11.4913 64.9595L11.4901 64.9246L9.99104 64.9767ZM9.89939 62.3367L8.40019 62.3857L8.4003 62.3887L9.89939 62.3367ZM9.81299 59.6967L8.31824 59.5714L8.31094 59.6584L8.3138 59.7457L9.81299 59.6967ZM10.0411 56.9756L9.45871 55.5933L8.62212 55.9457L8.5463 56.8504L10.0411 56.9756ZM12.4823 55.9472L12.123 54.4909L12.0085 54.5191L11.8999 54.5649L12.4823 55.9472ZM15.0602 55.3112L15.4195 56.7675L15.4768 56.7534L15.5328 56.7348L15.0602 55.3112ZM17.5575 54.4824L18.03 55.906L18.0428 55.9017L18.0556 55.8973L17.5575 54.4824ZM20.0615 53.601L19.7976 52.1243L19.678 52.1457L19.5635 52.186L20.0615 53.601ZM22.6691 53.1349L22.6031 51.6364L22.5034 51.6408L22.4052 51.6583L22.6691 53.1349ZM25.3166 53.0182L25.2806 51.5186L25.2656 51.519L25.2505 51.5196L25.3166 53.0182ZM27.9525 52.9549L27.9876 51.4553L27.9521 51.4545L27.9165 51.4554L27.9525 52.9549ZM30.5838 53.0165L30.7117 51.522L30.6654 51.518L30.6189 51.517L30.5838 53.0165ZM33.2035 53.2407L33.3414 51.747L33.3313 51.7461L33.2035 53.2407ZM35.824 53.4828L36.1232 52.0129L36.0432 51.9966L35.9619 51.9891L35.824 53.4828ZM38.4031 54.0078L38.8342 52.5711L38.769 52.5515L38.7023 52.5379L38.4031 54.0078ZM40.922 54.7636L40.4909 56.2003L40.563 56.2219L40.6368 56.2362L40.922 54.7636ZM43.525 55.2678L43.9826 53.8393L43.8978 53.8121L43.8103 53.7951L43.525 55.2678ZM46.0504 56.0768L46.7411 54.7453L46.6287 54.6869L46.508 54.6483L46.0504 56.0768ZM48.0368 57.1073L49.3873 57.76L50.0218 56.4473L48.7275 55.7758L48.0368 57.1073ZM48 57.1833H46.5V57.2833H48H49.5V57.1833H48ZM48 57.2833L46.5014 57.3478L46.6107 59.8878L48.1093 59.8233L49.6079 59.7588L49.4986 57.2188L48 57.2833ZM48.1093 59.8233L46.6176 59.6663L46.3397 62.3063L47.8314 62.4633L49.3232 62.6204L49.6011 59.9804L48.1093 59.8233ZM47.8314 62.4633L46.3385 62.6083L46.5948 65.2483L48.0878 65.1033L49.5808 64.9583L49.3244 62.3183L47.8314 62.4633ZM48.0878 65.1033L46.589 65.1637L46.6954 67.8037L48.1942 67.7433L49.693 67.6829L49.5866 65.0429L48.0878 65.1033ZM48.1942 67.7433L46.6987 67.6271L46.4935 70.2671L47.9889 70.3833L49.4844 70.4996L49.6897 67.8596L48.1942 67.7433ZM47.9889 70.3833L46.489 70.3781L46.4798 73.0181L47.9798 73.0233L49.4798 73.0285L49.4889 70.3885L47.9889 70.3833ZM47.9798 73.0233L46.4837 73.1308L46.6732 75.7708L48.1694 75.6633L49.6655 75.5559L49.476 72.9159L47.9798 73.0233ZM48.1694 75.6633L46.67 75.6211L46.5956 78.2611L48.095 78.3033L49.5944 78.3456L49.6688 75.7056L48.1694 75.6633ZM48.095 78.3033L46.6054 78.1271L46.293 80.7671L47.7826 80.9433L49.2722 81.1196L49.5846 78.4796L48.095 78.3033ZM47.7826 80.9433L46.3024 81.1865L46.7362 83.8265L48.2164 83.5833L49.6965 83.3401L49.2627 80.7001L47.7826 80.9433ZM48.2164 83.5833L46.7185 83.504L46.5787 86.144L48.0766 86.2233L49.5745 86.3027L49.7143 83.6626L48.2164 83.5833ZM48.0766 86.2233L46.5798 86.3212L46.7524 88.9612L48.2492 88.8633L49.7461 88.7654L49.5734 86.1254L48.0766 86.2233ZM48.2492 88.8633L46.7603 88.6816L46.4381 91.3216L47.9271 91.5033L49.416 91.685L49.7382 89.045L48.2492 88.8633ZM47.9271 91.5033L46.4279 91.5525L46.5145 94.1925L48.0137 94.1433L49.5129 94.0942L49.4263 91.4542L47.9271 91.5033ZM48.0137 94.1433L46.5144 94.1916L46.5995 96.8316L48.0987 96.7833L49.5979 96.735L49.5129 94.095L48.0137 94.1433ZM48.0987 96.7833L46.6016 96.8763L46.7656 99.5163L48.2627 99.4233L49.7598 99.3304L49.5958 96.6903L48.0987 96.7833ZM48.2627 99.4233L46.7856 99.1621L46.3187 101.802L47.7958 102.063L49.2729 102.325L49.7397 99.6846L48.2627 99.4233ZM47.7958 102.063L46.3184 102.323L46.7818 104.963L48.2592 104.703L49.7366 104.444L49.2732 101.804L47.7958 102.063ZM48.2592 104.703L46.7658 104.563L46.5169 107.203L48.0103 107.343L49.5037 107.484L49.7526 104.844L48.2592 104.703ZM48.0103 107.343L46.5125 107.424L46.6551 110.064L48.1529 109.983L49.6507 109.902L49.5081 107.262L48.0103 107.343ZM48.1529 109.983L46.6681 109.771L46.2901 112.411L47.775 112.623L49.2598 112.836L49.6378 110.196L48.1529 109.983ZM47.775 112.623L46.3002 112.897L46.7901 115.537L48.2649 115.263L49.7398 114.99L49.2498 112.35L47.775 112.623ZM48.2649 115.263L47.7099 113.87L45.5416 114.734L46.0967 116.127L46.6518 117.521L48.82 116.657L48.2649 115.263ZM46.0967 116.127L46.1289 114.627L43.4889 114.571L43.4567 116.07L43.4244 117.57L46.0644 117.627L46.0967 116.127ZM43.4567 116.07L43.4317 114.571L40.7917 114.614L40.8167 116.114L40.8416 117.614L43.4816 117.57L43.4567 116.07ZM40.8167 116.114L41.0017 114.626L38.3617 114.298L38.1767 115.786L37.9917 117.275L40.6317 117.603L40.8167 116.114ZM38.1767 115.786L38.0401 114.292L35.4001 114.534L35.5367 116.027L35.6732 117.521L38.3132 117.28L38.1767 115.786ZM35.5367 116.027L35.5252 114.527L32.8852 114.548L32.8967 116.048L32.9081 117.548L35.5481 117.527L35.5367 116.027ZM32.8967 116.048L33.0654 114.557L30.4254 114.258L30.2567 115.749L30.0879 117.239L32.7279 117.538L32.8967 116.048ZM30.2567 115.749L30.0337 114.265L27.3937 114.662L27.6167 116.146L27.8396 117.629L30.4796 117.232L30.2567 115.749ZM27.6167 116.146L27.6901 114.647L25.0501 114.518L24.9767 116.016L24.9032 117.514L27.5432 117.644L27.6167 116.146ZM24.9767 116.016L25.0621 114.519L22.4221 114.368L22.3367 115.865L22.2512 117.363L24.8912 117.514L24.9767 116.016ZM22.3367 115.865L22.2158 114.37L19.5758 114.584L19.6967 116.079L19.8175 117.574L22.4575 117.361L22.3367 115.865ZM19.6967 116.079L19.6865 114.579L17.0465 114.597L17.0567 116.097L17.0668 117.597L19.7068 117.579L19.6967 116.079ZM17.0567 116.097L17.2583 114.61L14.6183 114.252L14.4167 115.739L14.2151 117.225L16.8551 117.583L17.0567 116.097ZM14.4167 115.739L14.1496 114.263L11.5096 114.74L11.7767 116.216L12.0437 117.692L14.6837 117.215L14.4167 115.739ZM11.7767 116.216L12.6309 114.983L11.0728 113.904L10.2185 115.137L9.36425 116.37L10.9224 117.449L11.7767 116.216ZM10.2185 115.137L11.718 115.098L11.6502 112.458L10.1507 112.497L8.65118 112.535L8.719 115.175L10.2185 115.137ZM10.1507 112.497L11.6335 112.27L11.2308 109.63L9.74794 109.857L8.2651 110.083L8.66784 112.723L10.1507 112.497ZM9.74794 109.857L11.2479 109.862L11.2573 107.222L9.75732 107.217L8.25733 107.211L8.24795 109.851L9.74794 109.857ZM9.75732 107.217L11.2416 107.434L11.6273 104.794L10.1431 104.577L8.65881 104.36L8.27308 107L9.75732 107.217ZM10.1431 104.577L11.6407 104.492L11.492 101.852L9.99436 101.937L8.49673 102.021L8.64543 104.661L10.1431 104.577ZM9.99436 101.937L11.4943 101.929L11.4802 99.2887L9.98026 99.2967L8.48028 99.3047L8.49438 101.945L9.99436 101.937ZM9.98026 99.2967L11.4797 99.3375L11.5516 96.6975L10.0522 96.6567L8.55275 96.6158L8.48082 99.2558L9.98026 99.2967ZM10.0522 96.6567L11.5519 96.6881L11.6072 94.0481L10.1075 94.0167L8.60784 93.9852L8.55252 96.6252L10.0522 96.6567ZM10.1075 94.0167L11.6067 94.0673L11.6959 91.4273L10.1967 91.3767L8.69757 91.326L8.60837 93.966L10.1075 94.0167ZM10.1967 91.3767L11.6836 91.1784L11.3315 88.5384L9.84469 88.7367L8.35785 88.9349L8.70987 91.5749L10.1967 91.3767ZM9.84469 88.7367L11.3429 88.8101L11.4723 86.1701L9.97414 86.0967L8.47594 86.0232L8.34649 88.6632L9.84469 88.7367ZM9.97414 86.0967L11.4692 85.9757L11.2556 83.3357L9.76047 83.4567L8.26535 83.5777L8.47903 86.2177L9.97414 86.0967ZM9.76047 83.4567L11.2507 83.6277L11.5537 80.9877L10.0635 80.8167L8.57332 80.6456L8.27025 83.2856L9.76047 83.4567ZM10.0635 80.8167L11.5629 80.774L11.4878 78.134L9.98844 78.1767L8.48905 78.2193L8.56414 80.8593L10.0635 80.8167ZM9.98844 78.1767L11.4884 78.1739L11.4835 75.5339L9.98353 75.5367L8.48353 75.5395L8.48844 78.1795L9.98844 78.1767ZM9.98353 75.5367L11.4817 75.463L11.352 72.823L9.85378 72.8967L8.35559 72.9703L8.48534 75.6103L9.98353 75.5367ZM9.85378 72.8967L11.3535 72.926L11.405 70.286L9.90533 70.2567L8.40561 70.2274L8.35406 72.8674L9.85378 72.8967ZM9.90533 70.2567L11.405 70.2876L11.4594 67.6476L9.95974 67.6167L8.46006 67.5858L8.40565 70.2258L9.90533 70.2567ZM9.95974 67.6167L11.4596 67.6345L11.4909 64.9945L9.99104 64.9767L8.49115 64.9589L8.45985 67.5989L9.95974 67.6167ZM9.99104 64.9767L11.4901 64.9246L11.3985 62.2846L9.89939 62.3367L8.4003 62.3887L8.49194 65.0287L9.99104 64.9767ZM9.89939 62.3367L11.3986 62.2876L11.3122 59.6476L9.81299 59.6967L8.3138 59.7457L8.4002 62.3857L9.89939 62.3367ZM9.81299 59.6967L11.3078 59.822L11.5358 57.1009L10.0411 56.9756L8.5463 56.8504L8.31824 59.5714L9.81299 59.6967ZM10.0411 56.9756L10.6234 58.358L13.0646 57.3296L12.4823 55.9472L11.8999 54.5649L9.45871 55.5933L10.0411 56.9756ZM12.4823 55.9472L12.8416 57.4036L15.4195 56.7675L15.0602 55.3112L14.7009 53.8549L12.123 54.4909L12.4823 55.9472ZM15.0602 55.3112L15.5328 56.7348L18.03 55.906L17.5575 54.4824L17.085 53.0587L14.5877 53.8876L15.0602 55.3112ZM17.5575 54.4824L18.0556 55.8973L20.5596 55.0159L20.0615 53.601L19.5635 52.186L17.0595 53.0674L17.5575 54.4824ZM20.0615 53.601L20.3254 55.0776L22.9331 54.6115L22.6691 53.1349L22.4052 51.6583L19.7976 52.1243L20.0615 53.601ZM22.6691 53.1349L22.7352 54.6334L25.3827 54.5167L25.3166 53.0182L25.2505 51.5196L22.6031 51.6364L22.6691 53.1349ZM25.3166 53.0182L25.3526 54.5177L27.9885 54.4545L27.9525 52.9549L27.9165 51.4554L25.2806 51.5186L25.3166 53.0182ZM27.9525 52.9549L27.9174 54.4545L30.5487 54.5161L30.5838 53.0165L30.6189 51.517L27.9876 51.4553L27.9525 52.9549ZM30.5838 53.0165L30.4559 54.5111L33.0756 54.7352L33.2035 53.2407L33.3313 51.7461L30.7117 51.522L30.5838 53.0165ZM33.2035 53.2407L33.0655 54.7343L35.686 54.9764L35.824 53.4828L35.9619 51.9891L33.3414 51.747L33.2035 53.2407ZM35.824 53.4828L35.5248 54.9526L38.1039 55.4776L38.4031 54.0078L38.7023 52.5379L36.1232 52.0129L35.824 53.4828ZM38.4031 54.0078L37.972 55.4445L40.4909 56.2003L40.922 54.7636L41.3531 53.3269L38.8342 52.5711L38.4031 54.0078ZM40.922 54.7636L40.6368 56.2362L43.2398 56.7404L43.525 55.2678L43.8103 53.7951L41.2073 53.2909L40.922 54.7636ZM43.525 55.2678L43.0674 56.6963L45.5927 57.5053L46.0504 56.0768L46.508 54.6483L43.9826 53.8393L43.525 55.2678ZM46.0504 56.0768L45.3596 57.4082L47.346 58.4388L48.0368 57.1073L48.7275 55.7758L46.7411 54.7453L46.0504 56.0768ZM48.0368 57.1073L46.6862 56.4545L46.6495 56.5306L48 57.1833L49.3505 57.8361L49.3873 57.76L48.0368 57.1073Z" fill="black"/>
<path d="M109 57.1833L107.649 56.5306L107.5 56.8398V57.1833H109ZM109 57.2833H107.5V57.3156L107.501 57.3478L109 57.2833ZM109.109 59.8233L110.601 59.9804L110.613 59.8699L110.608 59.7588L109.109 59.8233ZM108.831 62.4633L107.34 62.3063L107.324 62.4573L107.338 62.6083L108.831 62.4633ZM109.088 65.1033L110.587 65.0429L110.585 65.0006L110.581 64.9583L109.088 65.1033ZM109.194 67.7433L110.69 67.8596L110.697 67.7714L110.693 67.6829L109.194 67.7433ZM108.989 70.3833L107.493 70.2671L107.489 70.3225L107.489 70.3781L108.989 70.3833ZM108.98 73.0233L107.48 73.0181L107.48 73.0745L107.484 73.1308L108.98 73.0233ZM109.169 75.6633L110.669 75.7056L110.671 75.6307L110.666 75.5559L109.169 75.6633ZM109.095 78.3033L110.585 78.4796L110.592 78.4128L110.594 78.3456L109.095 78.3033ZM108.783 80.9433L107.293 80.7671L107.268 80.9775L107.302 81.1865L108.783 80.9433ZM109.216 83.5833L110.714 83.6626L110.723 83.5004L110.697 83.3401L109.216 83.5833ZM109.077 86.2233L107.579 86.144L107.574 86.2327L107.58 86.3212L109.077 86.2233ZM109.249 88.8633L110.738 89.045L110.755 88.9056L110.746 88.7654L109.249 88.8633ZM108.927 91.5033L107.438 91.3216L107.424 91.4367L107.428 91.5525L108.927 91.5033ZM109.014 94.1433L110.513 94.095L110.513 94.0942L109.014 94.1433ZM109.099 96.7833L107.599 96.8316L107.6 96.854L107.602 96.8763L109.099 96.7833ZM109.263 99.4233L110.74 99.6846L110.771 99.5087L110.76 99.3304L109.263 99.4233ZM108.796 102.063L107.319 101.802L107.273 102.062L107.318 102.323L108.796 102.063ZM109.259 104.703L110.753 104.844L110.772 104.643L110.737 104.444L109.259 104.703ZM109.01 107.343L107.517 107.203L107.507 107.313L107.513 107.424L109.01 107.343ZM109.153 109.983L110.638 110.196L110.659 110.05L110.651 109.902L109.153 109.983ZM108.775 112.623L107.29 112.411L107.255 112.655L107.3 112.897L108.775 112.623ZM109.265 115.263L109.82 116.657L110.965 116.201L110.74 114.99L109.265 115.263ZM107.097 116.127L107.064 117.627L107.369 117.633L107.652 117.521L107.097 116.127ZM104.457 116.07L104.489 114.571L104.46 114.57L104.432 114.571L104.457 116.07ZM101.817 116.114L101.632 117.603L101.736 117.616L101.842 117.614L101.817 116.114ZM99.1767 115.786L99.3617 114.298L99.2012 114.278L99.0401 114.292L99.1767 115.786ZM96.5367 116.027L96.5481 117.527L96.6108 117.527L96.6732 117.521L96.5367 116.027ZM93.8967 116.048L93.7279 117.538L93.8177 117.548L93.9081 117.548L93.8967 116.048ZM91.2567 115.749L91.4254 114.258L91.2291 114.236L91.0337 114.265L91.2567 115.749ZM88.6167 116.146L88.5432 117.644L88.6922 117.651L88.8396 117.629L88.6167 116.146ZM85.9767 116.016L85.8912 117.514L85.9032 117.514L85.9767 116.016ZM83.3367 115.865L83.4221 114.368L83.3189 114.362L83.2158 114.37L83.3367 115.865ZM80.6967 116.079L80.7068 117.579L80.7622 117.578L80.8175 117.574L80.6967 116.079ZM78.0567 116.097L77.8551 117.583L77.9605 117.597L78.0668 117.597L78.0567 116.097ZM75.4167 115.739L75.6183 114.252L75.3831 114.22L75.1496 114.263L75.4167 115.739ZM72.7767 116.216L71.9224 117.449L72.4328 117.803L73.0437 117.692L72.7767 116.216ZM71.2185 115.137L69.719 115.175L69.7386 115.936L70.3642 116.37L71.2185 115.137ZM71.1507 112.497L72.6502 112.458L72.6478 112.364L72.6335 112.27L71.1507 112.497ZM70.7479 109.857L69.2479 109.851L69.2475 109.968L69.2651 110.083L70.7479 109.857ZM70.7573 107.217L69.2731 107L69.2577 107.105L69.2573 107.211L70.7573 107.217ZM71.1431 104.577L72.6273 104.794L72.6492 104.644L72.6407 104.492L71.1431 104.577ZM70.9944 101.937L69.4944 101.945L69.4946 101.983L69.4967 102.021L70.9944 101.937ZM70.9803 99.2967L69.4808 99.2558L69.4802 99.2802L69.4803 99.3047L70.9803 99.2967ZM71.0522 96.6567L72.5517 96.6975L72.5519 96.6881L71.0522 96.6567ZM71.1075 94.0167L69.6084 93.966L69.608 93.9756L69.6078 93.9852L71.1075 94.0167ZM71.1967 91.3767L72.6959 91.4273L72.7001 91.3024L72.6836 91.1784L71.1967 91.3767ZM70.8447 88.7367L69.3465 88.6632L69.3398 88.7996L69.3579 88.9349L70.8447 88.7367ZM70.9741 86.0967L72.4723 86.1701L72.4771 86.0728L72.4692 85.9757L70.9741 86.0967ZM70.7605 83.4567L69.2703 83.2856L69.2535 83.4314L69.2654 83.5777L70.7605 83.4567ZM71.0635 80.8167L72.5537 80.9877L72.566 80.8812L72.5629 80.774L71.0635 80.8167ZM70.9884 78.1767L69.4884 78.1795L69.4885 78.1994L69.489 78.2193L70.9884 78.1767ZM70.9835 75.5367L72.4835 75.5339L72.4835 75.4984L72.4817 75.463L70.9835 75.5367ZM70.8538 72.8967L69.3541 72.8674L69.3531 72.9189L69.3556 72.9703L70.8538 72.8967ZM70.9053 70.2567L69.4056 70.2258L69.4056 70.2274L70.9053 70.2567ZM70.9597 67.6167L72.4595 67.6476L72.4596 67.6345L70.9597 67.6167ZM70.991 64.9767L72.4909 64.9945L72.4913 64.9595L72.4901 64.9246L70.991 64.9767ZM70.8994 62.3367L69.4002 62.3857L69.4003 62.3887L70.8994 62.3367ZM70.813 59.6967L69.3182 59.5714L69.3109 59.6584L69.3138 59.7457L70.813 59.6967ZM71.0411 56.9756L70.4587 55.5933L69.6221 55.9457L69.5463 56.8504L71.0411 56.9756ZM73.4823 55.9472L73.123 54.4909L73.0085 54.5191L72.8999 54.5649L73.4823 55.9472ZM76.0602 55.3112L76.4195 56.7675L76.4768 56.7534L76.5328 56.7348L76.0602 55.3112ZM78.5575 54.4824L79.03 55.906L79.0428 55.9017L79.0556 55.8973L78.5575 54.4824ZM81.0615 53.601L80.7976 52.1243L80.678 52.1457L80.5635 52.186L81.0615 53.601ZM83.6691 53.1349L83.6031 51.6364L83.5034 51.6408L83.4052 51.6583L83.6691 53.1349ZM86.3166 53.0182L86.2806 51.5186L86.2656 51.519L86.2505 51.5196L86.3166 53.0182ZM88.9525 52.9549L88.9876 51.4553L88.9521 51.4545L88.9165 51.4554L88.9525 52.9549ZM91.5838 53.0165L91.7117 51.522L91.6654 51.518L91.6189 51.517L91.5838 53.0165ZM94.2035 53.2407L94.3414 51.747L94.3313 51.7461L94.2035 53.2407ZM96.824 53.4828L97.1232 52.0129L97.0432 51.9966L96.9619 51.9891L96.824 53.4828ZM99.4031 54.0078L99.8342 52.5711L99.769 52.5515L99.7023 52.5379L99.4031 54.0078ZM101.922 54.7636L101.491 56.2003L101.563 56.2219L101.637 56.2362L101.922 54.7636ZM104.525 55.2678L104.983 53.8393L104.898 53.8121L104.81 53.7951L104.525 55.2678ZM107.05 56.0768L107.741 54.7453L107.629 54.6869L107.508 54.6483L107.05 56.0768ZM109.037 57.1073L110.387 57.76L111.022 56.4473L109.728 55.7758L109.037 57.1073ZM109 57.1833H107.5V57.2833H109H110.5V57.1833H109ZM109 57.2833L107.501 57.3478L107.611 59.8878L109.109 59.8233L110.608 59.7588L110.499 57.2188L109 57.2833ZM109.109 59.8233L107.618 59.6663L107.34 62.3063L108.831 62.4633L110.323 62.6204L110.601 59.9804L109.109 59.8233ZM108.831 62.4633L107.338 62.6083L107.595 65.2483L109.088 65.1033L110.581 64.9583L110.324 62.3183L108.831 62.4633ZM109.088 65.1033L107.589 65.1637L107.695 67.8037L109.194 67.7433L110.693 67.6829L110.587 65.0429L109.088 65.1033ZM109.194 67.7433L107.699 67.6271L107.493 70.2671L108.989 70.3833L110.484 70.4996L110.69 67.8596L109.194 67.7433ZM108.989 70.3833L107.489 70.3781L107.48 73.0181L108.98 73.0233L110.48 73.0285L110.489 70.3885L108.989 70.3833ZM108.98 73.0233L107.484 73.1308L107.673 75.7708L109.169 75.6633L110.666 75.5559L110.476 72.9159L108.98 73.0233ZM109.169 75.6633L107.67 75.6211L107.596 78.2611L109.095 78.3033L110.594 78.3456L110.669 75.7056L109.169 75.6633ZM109.095 78.3033L107.605 78.1271L107.293 80.7671L108.783 80.9433L110.272 81.1196L110.585 78.4796L109.095 78.3033ZM108.783 80.9433L107.302 81.1865L107.736 83.8265L109.216 83.5833L110.697 83.3401L110.263 80.7001L108.783 80.9433ZM109.216 83.5833L107.718 83.504L107.579 86.144L109.077 86.2233L110.575 86.3027L110.714 83.6626L109.216 83.5833ZM109.077 86.2233L107.58 86.3212L107.752 88.9612L109.249 88.8633L110.746 88.7654L110.573 86.1254L109.077 86.2233ZM109.249 88.8633L107.76 88.6816L107.438 91.3216L108.927 91.5033L110.416 91.685L110.738 89.045L109.249 88.8633ZM108.927 91.5033L107.428 91.5525L107.514 94.1925L109.014 94.1433L110.513 94.0942L110.426 91.4542L108.927 91.5033ZM109.014 94.1433L107.514 94.1916L107.599 96.8316L109.099 96.7833L110.598 96.735L110.513 94.095L109.014 94.1433ZM109.099 96.7833L107.602 96.8763L107.766 99.5163L109.263 99.4233L110.76 99.3304L110.596 96.6903L109.099 96.7833ZM109.263 99.4233L107.786 99.1621L107.319 101.802L108.796 102.063L110.273 102.325L110.74 99.6846L109.263 99.4233ZM108.796 102.063L107.318 102.323L107.782 104.963L109.259 104.703L110.737 104.444L110.273 101.804L108.796 102.063ZM109.259 104.703L107.766 104.563L107.517 107.203L109.01 107.343L110.504 107.484L110.753 104.844L109.259 104.703ZM109.01 107.343L107.513 107.424L107.655 110.064L109.153 109.983L110.651 109.902L110.508 107.262L109.01 107.343ZM109.153 109.983L107.668 109.771L107.29 112.411L108.775 112.623L110.26 112.836L110.638 110.196L109.153 109.983ZM108.775 112.623L107.3 112.897L107.79 115.537L109.265 115.263L110.74 114.99L110.25 112.35L108.775 112.623ZM109.265 115.263L108.71 113.87L106.542 114.734L107.097 116.127L107.652 117.521L109.82 116.657L109.265 115.263ZM107.097 116.127L107.129 114.627L104.489 114.571L104.457 116.07L104.424 117.57L107.064 117.627L107.097 116.127ZM104.457 116.07L104.432 114.571L101.792 114.614L101.817 116.114L101.842 117.614L104.482 117.57L104.457 116.07ZM101.817 116.114L102.002 114.626L99.3617 114.298L99.1767 115.786L98.9917 117.275L101.632 117.603L101.817 116.114ZM99.1767 115.786L99.0401 114.292L96.4001 114.534L96.5367 116.027L96.6732 117.521L99.3132 117.28L99.1767 115.786ZM96.5367 116.027L96.5252 114.527L93.8852 114.548L93.8967 116.048L93.9081 117.548L96.5481 117.527L96.5367 116.027ZM93.8967 116.048L94.0654 114.557L91.4254 114.258L91.2567 115.749L91.0879 117.239L93.7279 117.538L93.8967 116.048ZM91.2567 115.749L91.0337 114.265L88.3937 114.662L88.6167 116.146L88.8396 117.629L91.4796 117.232L91.2567 115.749ZM88.6167 116.146L88.6901 114.647L86.0501 114.518L85.9767 116.016L85.9032 117.514L88.5432 117.644L88.6167 116.146ZM85.9767 116.016L86.0621 114.519L83.4221 114.368L83.3367 115.865L83.2512 117.363L85.8912 117.514L85.9767 116.016ZM83.3367 115.865L83.2158 114.37L80.5758 114.584L80.6967 116.079L80.8175 117.574L83.4575 117.361L83.3367 115.865ZM80.6967 116.079L80.6865 114.579L78.0465 114.597L78.0567 116.097L78.0668 117.597L80.7068 117.579L80.6967 116.079ZM78.0567 116.097L78.2583 114.61L75.6183 114.252L75.4167 115.739L75.2151 117.225L77.8551 117.583L78.0567 116.097ZM75.4167 115.739L75.1496 114.263L72.5096 114.74L72.7767 116.216L73.0437 117.692L75.6837 117.215L75.4167 115.739ZM72.7767 116.216L73.6309 114.983L72.0728 113.904L71.2185 115.137L70.3642 116.37L71.9224 117.449L72.7767 116.216ZM71.2185 115.137L72.718 115.098L72.6502 112.458L71.1507 112.497L69.6512 112.535L69.719 115.175L71.2185 115.137ZM71.1507 112.497L72.6335 112.27L72.2308 109.63L70.7479 109.857L69.2651 110.083L69.6678 112.723L71.1507 112.497ZM70.7479 109.857L72.2479 109.862L72.2573 107.222L70.7573 107.217L69.2573 107.211L69.2479 109.851L70.7479 109.857ZM70.7573 107.217L72.2416 107.434L72.6273 104.794L71.1431 104.577L69.6588 104.36L69.2731 107L70.7573 107.217ZM71.1431 104.577L72.6407 104.492L72.492 101.852L70.9944 101.937L69.4967 102.021L69.6454 104.661L71.1431 104.577ZM70.9944 101.937L72.4943 101.929L72.4802 99.2887L70.9803 99.2967L69.4803 99.3047L69.4944 101.945L70.9944 101.937ZM70.9803 99.2967L72.4797 99.3375L72.5516 96.6975L71.0522 96.6567L69.5528 96.6158L69.4808 99.2558L70.9803 99.2967ZM71.0522 96.6567L72.5519 96.6881L72.6072 94.0481L71.1075 94.0167L69.6078 93.9852L69.5525 96.6252L71.0522 96.6567ZM71.1075 94.0167L72.6067 94.0673L72.6959 91.4273L71.1967 91.3767L69.6976 91.326L69.6084 93.966L71.1075 94.0167ZM71.1967 91.3767L72.6836 91.1784L72.3315 88.5384L70.8447 88.7367L69.3579 88.9349L69.7099 91.5749L71.1967 91.3767ZM70.8447 88.7367L72.3429 88.8101L72.4723 86.1701L70.9741 86.0967L69.4759 86.0232L69.3465 88.6632L70.8447 88.7367ZM70.9741 86.0967L72.4692 85.9757L72.2556 83.3357L70.7605 83.4567L69.2654 83.5777L69.479 86.2177L70.9741 86.0967ZM70.7605 83.4567L72.2507 83.6277L72.5537 80.9877L71.0635 80.8167L69.5733 80.6456L69.2703 83.2856L70.7605 83.4567ZM71.0635 80.8167L72.5629 80.774L72.4878 78.134L70.9884 78.1767L69.489 78.2193L69.5641 80.8593L71.0635 80.8167ZM70.9884 78.1767L72.4884 78.1739L72.4835 75.5339L70.9835 75.5367L69.4835 75.5395L69.4884 78.1795L70.9884 78.1767ZM70.9835 75.5367L72.4817 75.463L72.352 72.823L70.8538 72.8967L69.3556 72.9703L69.4853 75.6103L70.9835 75.5367ZM70.8538 72.8967L72.3535 72.926L72.405 70.286L70.9053 70.2567L69.4056 70.2274L69.3541 72.8674L70.8538 72.8967ZM70.9053 70.2567L72.405 70.2876L72.4594 67.6476L70.9597 67.6167L69.4601 67.5858L69.4056 70.2258L70.9053 70.2567ZM70.9597 67.6167L72.4596 67.6345L72.4909 64.9945L70.991 64.9767L69.4911 64.9589L69.4598 67.5989L70.9597 67.6167ZM70.991 64.9767L72.4901 64.9246L72.3985 62.2846L70.8994 62.3367L69.4003 62.3887L69.4919 65.0287L70.991 64.9767ZM70.8994 62.3367L72.3986 62.2876L72.3122 59.6476L70.813 59.6967L69.3138 59.7457L69.4002 62.3857L70.8994 62.3367ZM70.813 59.6967L72.3078 59.822L72.5358 57.1009L71.0411 56.9756L69.5463 56.8504L69.3182 59.5714L70.813 59.6967ZM71.0411 56.9756L71.6234 58.358L74.0646 57.3296L73.4823 55.9472L72.8999 54.5649L70.4587 55.5933L71.0411 56.9756ZM73.4823 55.9472L73.8416 57.4036L76.4195 56.7675L76.0602 55.3112L75.7009 53.8549L73.123 54.4909L73.4823 55.9472ZM76.0602 55.3112L76.5328 56.7348L79.03 55.906L78.5575 54.4824L78.085 53.0587L75.5877 53.8876L76.0602 55.3112ZM78.5575 54.4824L79.0556 55.8973L81.5596 55.0159L81.0615 53.601L80.5635 52.186L78.0595 53.0674L78.5575 54.4824ZM81.0615 53.601L81.3254 55.0776L83.9331 54.6115L83.6691 53.1349L83.4052 51.6583L80.7976 52.1243L81.0615 53.601ZM83.6691 53.1349L83.7352 54.6334L86.3827 54.5167L86.3166 53.0182L86.2505 51.5196L83.6031 51.6364L83.6691 53.1349ZM86.3166 53.0182L86.3526 54.5177L88.9885 54.4545L88.9525 52.9549L88.9165 51.4554L86.2806 51.5186L86.3166 53.0182ZM88.9525 52.9549L88.9174 54.4545L91.5487 54.5161L91.5838 53.0165L91.6189 51.517L88.9876 51.4553L88.9525 52.9549ZM91.5838 53.0165L91.4559 54.5111L94.0756 54.7352L94.2035 53.2407L94.3313 51.7461L91.7117 51.522L91.5838 53.0165ZM94.2035 53.2407L94.0655 54.7343L96.686 54.9764L96.824 53.4828L96.9619 51.9891L94.3414 51.747L94.2035 53.2407ZM96.824 53.4828L96.5248 54.9526L99.1039 55.4776L99.4031 54.0078L99.7023 52.5379L97.1232 52.0129L96.824 53.4828ZM99.4031 54.0078L98.972 55.4445L101.491 56.2003L101.922 54.7636L102.353 53.3269L99.8342 52.5711L99.4031 54.0078ZM101.922 54.7636L101.637 56.2362L104.24 56.7404L104.525 55.2678L104.81 53.7951L102.207 53.2909L101.922 54.7636ZM104.525 55.2678L104.067 56.6963L106.593 57.5053L107.05 56.0768L107.508 54.6483L104.983 53.8393L104.525 55.2678ZM107.05 56.0768L106.36 57.4082L108.346 58.4388L109.037 57.1073L109.728 55.7758L107.741 54.7453L107.05 56.0768ZM109.037 57.1073L107.686 56.4545L107.649 56.5306L109 57.1833L110.351 57.8361L110.387 57.76L109.037 57.1073Z" fill="black"/>
<path d="M71.0354 58.9065L72.4383 59.4374L72.5511 59.1394L72.533 58.8214L71.0354 58.9065ZM70.8907 56.36L69.3989 56.203L69.3862 56.3238L69.3931 56.4451L70.8907 56.36ZM71.1686 53.72L72.6603 53.877L72.6762 53.7261L72.6615 53.575L71.1686 53.72ZM70.9122 51.08L70.1626 49.7807L69.3258 50.2634L69.4192 51.225L70.9122 51.08ZM73.21 49.7544L72.8002 48.3115L72.6214 48.3623L72.4604 48.4551L73.21 49.7544ZM75.7622 49.0296L76.1721 50.4725L76.1827 50.4695L76.1934 50.4663L75.7622 49.0296ZM78.2897 48.2711L78.7209 49.7078L78.7323 49.7044L78.7436 49.7008L78.2897 48.2711ZM80.8164 47.469L80.5943 45.9856L80.4763 46.0032L80.3625 46.0393L80.8164 47.469ZM83.4357 47.0769L83.4361 45.5769L83.3242 45.5769L83.2136 45.5934L83.4357 47.0769ZM86.0901 47.0777L86.0896 48.5777L86.2565 48.5778L86.4194 48.5411L86.0901 47.0777ZM88.6998 46.4905L88.7797 44.9927L88.5728 44.9816L88.3706 45.0271L88.6998 46.4905ZM91.3481 46.6318L91.2682 48.1297L91.3121 48.132L91.3562 48.1318L91.3481 46.6318ZM94.0029 46.6175L94.3594 45.1605L94.1797 45.1165L93.9948 45.1175L94.0029 46.6175ZM96.591 47.2506L96.2346 48.7076L96.3037 48.7246L96.3742 48.7348L96.591 47.2506ZM99.2026 47.6321L99.5077 46.1635L99.4638 46.1544L99.4194 46.1479L99.2026 47.6321ZM101.792 48.17L102.14 46.7111L102.119 46.7059L102.097 46.7014L101.792 48.17ZM104.375 48.7868L105.133 47.4927L104.94 47.3797L104.723 47.3278L104.375 48.7868ZM106.689 50.1433L105.93 51.4373L106.036 51.4993L106.15 51.5433L106.689 50.1433ZM109.259 51.1319L110.753 51.2727L110.859 50.1402L109.798 49.7319L109.259 51.1319ZM109.01 53.7719L107.517 53.6311L107.507 53.7418L107.513 53.8528L109.01 53.7719ZM109.153 56.4119L110.637 56.6287L110.659 56.4805L110.651 56.331L109.153 56.4119ZM108.775 59L107.291 58.7832L107.04 60.5H108.775V59ZM71 59L72.4029 59.5309L72.4383 59.4374L71.0354 58.9065L69.6325 58.3756L69.5971 58.4691L71 59ZM71.0354 58.9065L72.533 58.8214L72.3883 56.2749L70.8907 56.36L69.3931 56.4451L69.5378 58.9916L71.0354 58.9065ZM70.8907 56.36L72.3824 56.517L72.6603 53.877L71.1686 53.72L69.6768 53.563L69.3989 56.203L70.8907 56.36ZM71.1686 53.72L72.6615 53.575L72.4052 50.935L70.9122 51.08L69.4192 51.225L69.6756 53.865L71.1686 53.72ZM70.9122 51.08L71.6617 52.3793L73.9595 51.0537L73.21 49.7544L72.4604 48.4551L70.1626 49.7807L70.9122 51.08ZM73.21 49.7544L73.6198 51.1974L76.1721 50.4725L75.7622 49.0296L75.3524 47.5866L72.8002 48.3115L73.21 49.7544ZM75.7622 49.0296L76.1934 50.4663L78.7209 49.7078L78.2897 48.2711L77.8586 46.8344L75.3311 47.5929L75.7622 49.0296ZM78.2897 48.2711L78.7436 49.7008L81.2702 48.8987L80.8164 47.469L80.3625 46.0393L77.8359 46.8414L78.2897 48.2711ZM80.8164 47.469L81.0385 48.9525L83.6578 48.5604L83.4357 47.0769L83.2136 45.5934L80.5943 45.9856L80.8164 47.469ZM83.4357 47.0769L83.4352 48.5769L86.0896 48.5777L86.0901 47.0777L86.0906 45.5777L83.4361 45.5769L83.4357 47.0769ZM86.0901 47.0777L86.4194 48.5411L89.0291 47.954L88.6998 46.4905L88.3706 45.0271L85.7608 45.6143L86.0901 47.0777ZM88.6998 46.4905L88.6199 47.9884L91.2682 48.1297L91.3481 46.6318L91.428 45.1339L88.7797 44.9927L88.6998 46.4905ZM91.3481 46.6318L91.3562 48.1318L94.011 48.1175L94.0029 46.6175L93.9948 45.1175L91.34 45.1318L91.3481 46.6318ZM94.0029 46.6175L93.6465 48.0745L96.2346 48.7076L96.591 47.2506L96.9474 45.7936L94.3594 45.1605L94.0029 46.6175ZM96.591 47.2506L96.3742 48.7348L98.9857 49.1164L99.2026 47.6321L99.4194 46.1479L96.8078 45.7664L96.591 47.2506ZM99.2026 47.6321L98.8974 49.1008L101.487 49.6387L101.792 48.17L102.097 46.7014L99.5077 46.1635L99.2026 47.6321ZM101.792 48.17L101.443 49.629L104.026 50.2458L104.375 48.7868L104.723 47.3278L102.14 46.7111L101.792 48.17ZM104.375 48.7868L103.616 50.0809L105.93 51.4373L106.689 50.1433L107.447 48.8492L105.133 47.4927L104.375 48.7868ZM106.689 50.1433L106.15 51.5433L108.721 52.5319L109.259 51.1319L109.798 49.7319L107.227 48.7432L106.689 50.1433ZM109.259 51.1319L107.766 50.9911L107.517 53.6311L109.01 53.7719L110.504 53.9127L110.753 51.2727L109.259 51.1319ZM109.01 53.7719L107.513 53.8528L107.655 56.4928L109.153 56.4119L110.651 56.331L110.508 53.691L109.01 53.7719ZM109.153 56.4119L107.669 56.1952L107.291 58.7832L108.775 59L110.259 59.2168L110.637 56.6287L109.153 56.4119ZM108.775 59V60.5H109V59V57.5H108.775V59Z" fill="black"/>
<path d="M48.1 54.5V56H48.1323L48.1645 55.9986L48.1 54.5ZM50.64 54.3907L50.797 52.8989L50.6865 52.8873L50.5755 52.8921L50.64 54.3907ZM53.28 54.6686L53.123 56.1603L53.2739 56.1762L53.425 56.1615L53.28 54.6686ZM55.92 54.4122L55.8596 52.9134L55.8172 52.9151L55.775 52.9192L55.92 54.4122ZM58.56 54.3058L58.6763 52.8103L58.588 52.8034L58.4996 52.807L58.56 54.3058ZM61.2 54.5111L61.0837 56.0065L61.1392 56.0109L61.1948 56.011L61.2 54.5111ZM63.84 54.5202L63.8348 56.0202L63.8912 56.0204L63.9474 56.0163L63.84 54.5202ZM66.48 54.3306L66.5223 52.8312L66.4473 52.8291L66.3726 52.8345L66.48 54.3306ZM69.12 54.405L69.3659 52.9253L69.2647 52.9085L69.1623 52.9056L69.12 54.405ZM71 54.7174L70.7541 56.1971L72.5 56.4872V54.7174H71ZM48 54.5V56H48.1V54.5V53H48V54.5ZM48.1 54.5L48.1645 55.9986L50.7045 55.8893L50.64 54.3907L50.5755 52.8921L48.0355 53.0014L48.1 54.5ZM50.64 54.3907L50.483 55.8824L53.123 56.1603L53.28 54.6686L53.437 53.1768L50.797 52.8989L50.64 54.3907ZM53.28 54.6686L53.425 56.1615L56.065 55.9052L55.92 54.4122L55.775 52.9192L53.135 53.1756L53.28 54.6686ZM55.92 54.4122L55.9804 55.911L58.6204 55.8046L58.56 54.3058L58.4996 52.807L55.8596 52.9134L55.92 54.4122ZM58.56 54.3058L58.4437 55.8013L61.0837 56.0065L61.2 54.5111L61.3163 53.0156L58.6763 52.8103L58.56 54.3058ZM61.2 54.5111L61.1948 56.011L63.8348 56.0202L63.84 54.5202L63.8452 53.0202L61.2052 53.0111L61.2 54.5111ZM63.84 54.5202L63.9474 56.0163L66.5874 55.8268L66.48 54.3306L66.3726 52.8345L63.7326 53.024L63.84 54.5202ZM66.48 54.3306L66.4377 55.83L69.0777 55.9044L69.12 54.405L69.1623 52.9056L66.5223 52.8312L66.48 54.3306ZM69.12 54.405L68.8741 55.8848L70.7541 56.1971L71 54.7174L71.2459 53.2377L69.3659 52.9253L69.12 54.405ZM71 54.7174H72.5V54.5H71H69.5V54.7174H71Z" fill="black"/>
<path d="M48.1 94.5V96H48.1323L48.1645 95.9986L48.1 94.5ZM50.64 94.3907L50.797 92.8989L50.6865 92.8873L50.5755 92.8921L50.64 94.3907ZM53.28 94.6686L53.123 96.1603L53.2739 96.1762L53.425 96.1615L53.28 94.6686ZM55.92 94.4122L55.8596 92.9134L55.8172 92.9151L55.775 92.9192L55.92 94.4122ZM58.56 94.3058L58.6763 92.8103L58.588 92.8034L58.4996 92.807L58.56 94.3058ZM61.2 94.5111L61.0837 96.0065L61.1392 96.0109L61.1948 96.011L61.2 94.5111ZM63.84 94.5202L63.8348 96.0202L63.8912 96.0204L63.9474 96.0163L63.84 94.5202ZM66.48 94.3306L66.5223 92.8312L66.4473 92.8291L66.3726 92.8345L66.48 94.3306ZM69.12 94.405L69.3659 92.9253L69.2647 92.9085L69.1623 92.9056L69.12 94.405ZM71 94.7174L70.7541 96.1971L72.5 96.4872V94.7174H71ZM48 94.5V96H48.1V94.5V93H48V94.5ZM48.1 94.5L48.1645 95.9986L50.7045 95.8893L50.64 94.3907L50.5755 92.8921L48.0355 93.0014L48.1 94.5ZM50.64 94.3907L50.483 95.8824L53.123 96.1603L53.28 94.6686L53.437 93.1768L50.797 92.8989L50.64 94.3907ZM53.28 94.6686L53.425 96.1615L56.065 95.9052L55.92 94.4122L55.775 92.9192L53.135 93.1756L53.28 94.6686ZM55.92 94.4122L55.9804 95.911L58.6204 95.8046L58.56 94.3058L58.4996 92.807L55.8596 92.9134L55.92 94.4122ZM58.56 94.3058L58.4437 95.8013L61.0837 96.0065L61.2 94.5111L61.3163 93.0156L58.6763 92.8103L58.56 94.3058ZM61.2 94.5111L61.1948 96.011L63.8348 96.0202L63.84 94.5202L63.8452 93.0202L61.2052 93.0111L61.2 94.5111ZM63.84 94.5202L63.9474 96.0163L66.5874 95.8268L66.48 94.3306L66.3726 92.8345L63.7326 93.024L63.84 94.5202ZM66.48 94.3306L66.4377 95.83L69.0777 95.9044L69.12 94.405L69.1623 92.9056L66.5223 92.8312L66.48 94.3306ZM69.12 94.405L68.8741 95.8848L70.7541 96.1971L71 94.7174L71.2459 93.2377L69.3659 92.9253L69.12 94.405ZM71 94.7174H72.5V94.5H71H69.5V94.7174H71Z" fill="black"/>
<path d="M65 105.5V104H63.6991L63.5151 105.288L65 105.5ZM64.9859 105.599L63.5009 105.387L63.4807 105.529L63.4876 105.672L64.9859 105.599ZM65.1093 108.14L66.6011 108.297L66.6132 108.182L66.6076 108.067L65.1093 108.14ZM64.8314 110.78L63.3397 110.623L63.3238 110.774L63.3385 110.925L64.8314 110.78ZM65.0878 113.42L66.5857 113.5L66.5917 113.387L66.5808 113.275L65.0878 113.42ZM64.94 116.194L64.8237 117.69L66.3561 117.809L66.4379 116.274L64.94 116.194ZM62.3 115.989L62.4163 114.493L62.3608 114.489L62.3052 114.489L62.3 115.989ZM59.66 115.98L59.6652 114.48L59.6088 114.48L59.5526 114.484L59.66 115.98ZM57.02 116.169L56.9777 117.669L57.0527 117.671L57.1274 117.666L57.02 116.169ZM54.38 116.095L52.8836 116.198L52.9773 117.556L54.3377 117.594L54.38 116.095ZM54.2174 113.74L55.7138 113.637L55.709 113.566L55.6976 113.497L54.2174 113.74ZM53.7836 111.1L52.2857 111.021L52.2771 111.183L52.3035 111.343L53.7836 111.1ZM53.9234 108.46L55.4213 108.539L55.426 108.451L55.4202 108.362L53.9234 108.46ZM53.7507 105.82L52.3194 105.372L52.2357 105.639L52.2539 105.918L53.7507 105.82ZM54.5474 103.278L53.3352 102.394L53.1898 102.593L53.116 102.829L54.5474 103.278ZM56.0802 101.175L55.4135 99.831L55.0845 99.9943L54.8681 100.291L56.0802 101.175ZM58.4476 100L58.4354 98.5001L58.0902 98.5029L57.7809 98.6564L58.4476 100ZM61.1536 99.9782L62.1225 98.8331L61.6978 98.4737L61.1414 98.4782L61.1536 99.9782ZM63.1901 101.702L64.3078 100.701L64.2384 100.624L64.159 100.556L63.1901 101.702ZM64.9684 103.688L66.468 103.654L66.4552 103.1L66.0861 102.688L64.9684 103.688ZM65.0103 105.5V107H66.5454L66.5099 105.465L65.0103 105.5ZM65 105.5L63.5151 105.288L63.5009 105.387L64.9859 105.599L66.4708 105.811L66.4849 105.712L65 105.5ZM64.9859 105.599L63.4876 105.672L63.6111 108.213L65.1093 108.14L66.6076 108.067L66.4841 105.526L64.9859 105.599ZM65.1093 108.14L63.6176 107.983L63.3397 110.623L64.8314 110.78L66.3232 110.937L66.6011 108.297L65.1093 108.14ZM64.8314 110.78L63.3385 110.925L63.5948 113.565L65.0878 113.42L66.5808 113.275L66.3244 110.635L64.8314 110.78ZM65.0878 113.42L63.5899 113.34L63.4421 116.114L64.94 116.194L66.4379 116.274L66.5857 113.5L65.0878 113.42ZM64.94 116.194L65.0563 114.699L62.4163 114.493L62.3 115.989L62.1837 117.484L64.8237 117.69L64.94 116.194ZM62.3 115.989L62.3052 114.489L59.6652 114.48L59.66 115.98L59.6548 117.48L62.2948 117.489L62.3 115.989ZM59.66 115.98L59.5526 114.484L56.9126 114.673L57.02 116.169L57.1274 117.666L59.7674 117.476L59.66 115.98ZM57.02 116.169L57.0623 114.67L54.4223 114.596L54.38 116.095L54.3377 117.594L56.9777 117.669L57.02 116.169ZM54.38 116.095L55.8764 115.992L55.7138 113.637L54.2174 113.74L52.721 113.843L52.8836 116.198L54.38 116.095ZM54.2174 113.74L55.6976 113.497L55.2638 110.857L53.7836 111.1L52.3035 111.343L52.7373 113.983L54.2174 113.74ZM53.7836 111.1L55.2815 111.179L55.4213 108.539L53.9234 108.46L52.4255 108.381L52.2857 111.021L53.7836 111.1ZM53.9234 108.46L55.4202 108.362L55.2476 105.722L53.7507 105.82L52.2539 105.918L52.4266 108.558L53.9234 108.46ZM53.7507 105.82L55.1821 106.268L55.9787 103.726L54.5474 103.278L53.116 102.829L52.3194 105.372L53.7507 105.82ZM54.5474 103.278L55.7595 104.161L57.2924 102.058L56.0802 101.175L54.8681 100.291L53.3352 102.394L54.5474 103.278ZM56.0802 101.175L56.747 102.518L59.1143 101.344L58.4476 100L57.7809 98.6564L55.4135 99.831L56.0802 101.175ZM58.4476 100L58.4597 101.5L61.1657 101.478L61.1536 99.9782L61.1414 98.4782L58.4354 98.5001L58.4476 100ZM61.1536 99.9782L60.1846 101.123L62.2211 102.847L63.1901 101.702L64.159 100.556L62.1225 98.8331L61.1536 99.9782ZM63.1901 101.702L62.0724 102.702L63.8507 104.689L64.9684 103.688L66.0861 102.688L64.3078 100.701L63.1901 101.702ZM64.9684 103.688L63.4688 103.723L63.5107 105.535L65.0103 105.5L66.5099 105.465L66.468 103.654L64.9684 103.688ZM65.0103 105.5V104H65V105.5V107H65.0103V105.5Z" fill="black"/>
<path d="M57 64L58.0607 62.9393L57.6213 62.5H57V64ZM57.0707 64.0707L56.0101 65.1314L56.4935 65.6148L57.1756 65.567L57.0707 64.0707ZM59.64 63.8907L59.797 62.3989L59.6663 62.3851L59.5351 62.3943L59.64 63.8907ZM62.28 64.1686L63.6421 63.5403L63.285 62.7661L62.437 62.6768L62.28 64.1686ZM63.0878 65.92L64.5866 65.8596L64.5746 65.5621L64.4499 65.2918L63.0878 65.92ZM63.1942 68.56L64.6897 68.6763L64.6966 68.588L64.693 68.4996L63.1942 68.56ZM62.9889 71.2L61.4935 71.0837L61.4891 71.1392L61.489 71.1948L62.9889 71.2ZM62.9798 73.84L64.4514 74.1305L64.4793 73.9892L64.4798 73.8452L62.9798 73.84ZM62.52 76.1694L62.4777 77.6688L63.7459 77.7045L63.9916 76.4599L62.52 76.1694ZM59.88 76.095L59.7037 77.5846L59.7705 77.5925L59.8377 77.5944L59.88 76.095ZM57.24 75.7826L55.7718 76.0896L55.9925 77.1455L57.0637 77.2722L57.24 75.7826ZM56.7836 73.6L55.2857 73.5207L55.2754 73.7158L55.3154 73.907L56.7836 73.6ZM56.9234 70.96L58.4213 71.0393L58.426 70.9507L58.4202 70.8621L56.9234 70.96ZM56.7507 68.32L55.2618 68.1383L55.2448 68.2777L55.2539 68.4179L56.7507 68.32ZM57.0729 65.68L58.5619 65.8617L58.5776 65.7326L58.5709 65.6028L57.0729 65.68ZM56.9863 64V62.5H55.407L55.4883 64.0772L56.9863 64ZM57 64L55.9393 65.0607L56.0101 65.1314L57.0707 64.0707L58.1314 63.0101L58.0607 62.9393L57 64ZM57.0707 64.0707L57.1756 65.567L59.7449 65.387L59.64 63.8907L59.5351 62.3943L56.9659 62.5744L57.0707 64.0707ZM59.64 63.8907L59.483 65.3824L62.123 65.6603L62.28 64.1686L62.437 62.6768L59.797 62.3989L59.64 63.8907ZM62.28 64.1686L60.9179 64.7968L61.7257 66.5482L63.0878 65.92L64.4499 65.2918L63.6421 63.5403L62.28 64.1686ZM63.0878 65.92L61.589 65.9804L61.6954 68.6204L63.1942 68.56L64.693 68.4996L64.5866 65.8596L63.0878 65.92ZM63.1942 68.56L61.6987 68.4437L61.4935 71.0837L62.9889 71.2L64.4844 71.3163L64.6897 68.6763L63.1942 68.56ZM62.9889 71.2L61.489 71.1948L61.4798 73.8348L62.9798 73.84L64.4798 73.8452L64.4889 71.2052L62.9889 71.2ZM62.9798 73.84L61.5082 73.5495L61.0484 75.8789L62.52 76.1694L63.9916 76.4599L64.4514 74.1305L62.9798 73.84ZM62.52 76.1694L62.5623 74.67L59.9223 74.5956L59.88 76.095L59.8377 77.5944L62.4777 77.6688L62.52 76.1694ZM59.88 76.095L60.0563 74.6054L57.4163 74.293L57.24 75.7826L57.0637 77.2722L59.7037 77.5846L59.88 76.095ZM57.24 75.7826L58.7082 75.4756L58.2519 73.293L56.7836 73.6L55.3154 73.907L55.7718 76.0896L57.24 75.7826ZM56.7836 73.6L58.2815 73.6793L58.4213 71.0393L56.9234 70.96L55.4255 70.8807L55.2857 73.5207L56.7836 73.6ZM56.9234 70.96L58.4202 70.8621L58.2476 68.2221L56.7507 68.32L55.2539 68.4179L55.4266 71.0579L56.9234 70.96ZM56.7507 68.32L58.2397 68.5017L58.5619 65.8617L57.0729 65.68L55.584 65.4983L55.2618 68.1383L56.7507 68.32ZM57.0729 65.68L58.5709 65.6028L58.4843 63.9228L56.9863 64L55.4883 64.0772L55.5749 65.7572L57.0729 65.68ZM56.9863 64V65.5H57V64V62.5H56.9863V64Z" fill="black"/>
<path d="M54 38V36.5H50.3787L52.9393 39.0607L54 38ZM54.0707 38.0707L53.0101 39.1314L53.4935 39.6148L54.1756 39.567L54.0707 38.0707ZM56.64 37.8907L56.797 36.3989L56.6663 36.3851L56.5351 36.3943L56.64 37.8907ZM59.28 38.1686L60.6421 37.5403L60.285 36.7661L59.437 36.6768L59.28 38.1686ZM60.0878 39.92L61.5866 39.8596L61.5746 39.5621L61.4499 39.2918L60.0878 39.92ZM60.1942 42.56L61.6897 42.6763L61.6966 42.588L61.693 42.4996L60.1942 42.56ZM59.9889 45.2L58.4935 45.0837L58.4891 45.1392L58.489 45.1948L59.9889 45.2ZM59.9798 47.84L60.9898 48.949L61.4775 48.5049L61.4798 47.8452L59.9798 47.84ZM58.52 49.1694L58.4777 50.6688L59.0826 50.6858L59.53 50.2784L58.52 49.1694ZM55.88 49.095L55.194 50.4289L55.4971 50.5848L55.8377 50.5944L55.88 49.095ZM54.2174 48.24L52.7373 48.4832L52.8597 49.2285L53.5314 49.574L54.2174 48.24ZM53.7836 45.6L52.2857 45.5207L52.2771 45.6829L52.3035 45.8432L53.7836 45.6ZM53.9234 42.96L55.4213 43.0393L55.426 42.9507L55.4202 42.8621L53.9234 42.96ZM53.7507 40.32L52.265 40.1137L52.244 40.2652L52.2539 40.4179L53.7507 40.32ZM54.0729 38L55.5587 38.2063L55.7956 36.5H54.0729V38ZM54 38L52.9393 39.0607L53.0101 39.1314L54.0707 38.0707L55.1314 37.0101L55.0607 36.9393L54 38ZM54.0707 38.0707L54.1756 39.567L56.7449 39.387L56.64 37.8907L56.5351 36.3943L53.9659 36.5744L54.0707 38.0707ZM56.64 37.8907L56.483 39.3824L59.123 39.6603L59.28 38.1686L59.437 36.6768L56.797 36.3989L56.64 37.8907ZM59.28 38.1686L57.9179 38.7968L58.7257 40.5482L60.0878 39.92L61.4499 39.2918L60.6421 37.5403L59.28 38.1686ZM60.0878 39.92L58.589 39.9804L58.6954 42.6204L60.1942 42.56L61.693 42.4996L61.5866 39.8596L60.0878 39.92ZM60.1942 42.56L58.6987 42.4437L58.4935 45.0837L59.9889 45.2L61.4844 45.3163L61.6897 42.6763L60.1942 42.56ZM59.9889 45.2L58.489 45.1948L58.4798 47.8348L59.9798 47.84L61.4798 47.8452L61.4889 45.2052L59.9889 45.2ZM59.9798 47.84L58.9699 46.7309L57.51 48.0603L58.52 49.1694L59.53 50.2784L60.9898 48.949L59.9798 47.84ZM58.52 49.1694L58.5623 47.67L55.9223 47.5956L55.88 49.095L55.8377 50.5944L58.4777 50.6688L58.52 49.1694ZM55.88 49.095L56.566 47.761L54.9034 46.906L54.2174 48.24L53.5314 49.574L55.194 50.4289L55.88 49.095ZM54.2174 48.24L55.6976 47.9968L55.2638 45.3568L53.7836 45.6L52.3035 45.8432L52.7373 48.4832L54.2174 48.24ZM53.7836 45.6L55.2815 45.6793L55.4213 43.0393L53.9234 42.96L52.4255 42.8807L52.2857 45.5207L53.7836 45.6ZM53.9234 42.96L55.4202 42.8621L55.2476 40.2221L53.7507 40.32L52.2539 40.4179L52.4266 43.0579L53.9234 42.96ZM53.7507 40.32L55.2365 40.5263L55.5587 38.2063L54.0729 38L52.5872 37.7937L52.265 40.1137L53.7507 40.32ZM54.0729 38V36.5H54V38V39.5H54.0729V38Z" fill="black"/>
<path d="M93.9553 45.9106L92.4558 45.9485L92.4642 46.2825L92.6136 46.5814L93.9553 45.9106ZM93.8907 43.36L92.3989 43.203L92.3887 43.3002L92.3912 43.398L93.8907 43.36ZM94.1686 40.72L95.6603 40.877L95.6762 40.7261L95.6615 40.575L94.1686 40.72ZM93.9122 38.08L95.4052 37.935L95.2673 36.5158L93.843 36.5816L93.9122 38.08ZM91.44 38.1942L91.3237 39.6897L91.4164 39.6969L91.5092 39.6926L91.44 38.1942ZM88.8 37.9889L88.9163 36.4935L88.8608 36.4891L88.8052 36.489L88.8 37.9889ZM86.16 37.9798L86.1652 36.4798L86.1088 36.4796L86.0526 36.4837L86.16 37.9798ZM83.52 38.1694L83.4777 39.6688L83.5527 39.6709L83.6274 39.6655L83.52 38.1694ZM80.88 38.095L80.7037 39.5846L80.7705 39.5925L80.8377 39.5944L80.88 38.095ZM78.24 37.7826L78.4163 36.293L78.2059 36.2681L77.9968 36.3024L78.24 37.7826ZM75.6 38.2164L75.5207 39.7143L75.6829 39.7229L75.8432 39.6965L75.6 38.2164ZM72.96 38.0766L73.0393 36.5787L72.9507 36.574L72.8621 36.5798L72.96 38.0766ZM70.32 38.2493L70.1383 39.7382L70.2777 39.7552L70.4179 39.7461L70.32 38.2493ZM67.68 37.9271L67.8617 36.4381L67.7467 36.4241L67.6308 36.4279L67.68 37.9271ZM65.04 38.0137L65.0883 39.5129L65.0892 39.5129L65.04 38.0137ZM62.4 38.0987L62.3517 36.5995L62.3293 36.6002L62.307 36.6016L62.4 38.0987ZM59.76 38.2627L59.4988 39.7397L59.6747 39.7709L59.853 39.7598L59.76 38.2627ZM57.12 37.7958L57.3812 36.3187L57.121 36.2727L56.8607 36.3184L57.12 37.7958ZM54.48 38.2592L54.3392 39.7526L54.5404 39.7715L54.7394 39.7366L54.48 38.2592ZM51.84 38.0103L51.9808 36.5169L51.8701 36.5065L51.7591 36.5125L51.84 38.0103ZM49.2 38.1529L48.9874 39.6378L49.1335 39.6587L49.2809 39.6507L49.2 38.1529ZM46.56 37.775L46.7726 36.2901L46.5286 36.2552L46.2863 36.3002L46.56 37.775ZM43.92 38.2649L43.8418 39.7629L44.0191 39.7722L44.1937 39.7398L43.92 38.2649ZM41.28 38.127L41.3583 36.6291L41.3353 36.6279L41.3122 36.6274L41.28 38.127ZM38.64 38.0703L38.6722 36.5706L38.6436 36.57L38.6151 36.5705L38.64 38.0703ZM36 38.1142L35.815 39.6028L35.9196 39.6158L36.025 39.614L36 38.1142ZM33.36 37.7861L33.545 36.2976L33.3845 36.2776L33.2235 36.2924L33.36 37.7861ZM30.72 38.0274L30.7315 39.5274L30.7941 39.5269L30.8565 39.5212L30.72 38.0274ZM28.08 38.0476L28.0685 36.5477L27.9114 36.5489L27.758 36.5826L28.08 38.0476ZM25.7487 38.56L25.4267 37.095L24.0569 37.396L24.2653 38.783L25.7487 38.56ZM26.1455 41.2L27.6437 41.2734L27.651 41.1245L27.6288 40.977L26.1455 41.2ZM26.0161 43.84L27.5125 43.9444L27.5136 43.9289L27.5143 43.9134L26.0161 43.84ZM25.8654 46L24.3691 45.8956L24.2572 47.5H25.8654V46ZM94 46L95.3416 45.3292L95.2969 45.2397L93.9553 45.9106L92.6136 46.5814L92.6584 46.6708L94 46ZM93.9553 45.9106L95.4548 45.8726L95.3902 43.322L93.8907 43.36L92.3912 43.398L92.4558 45.9485L93.9553 45.9106ZM93.8907 43.36L95.3824 43.517L95.6603 40.877L94.1686 40.72L92.6768 40.563L92.3989 43.203L93.8907 43.36ZM94.1686 40.72L95.6615 40.575L95.4052 37.935L93.9122 38.08L92.4192 38.225L92.6756 40.865L94.1686 40.72ZM93.9122 38.08L93.843 36.5816L91.3708 36.6958L91.44 38.1942L91.5092 39.6926L93.9814 39.5784L93.9122 38.08ZM91.44 38.1942L91.5563 36.6987L88.9163 36.4935L88.8 37.9889L88.6837 39.4844L91.3237 39.6897L91.44 38.1942ZM88.8 37.9889L88.8052 36.489L86.1652 36.4798L86.16 37.9798L86.1548 39.4798L88.7948 39.4889L88.8 37.9889ZM86.16 37.9798L86.0526 36.4837L83.4126 36.6732L83.52 38.1694L83.6274 39.6655L86.2674 39.476L86.16 37.9798ZM83.52 38.1694L83.5623 36.67L80.9223 36.5956L80.88 38.095L80.8377 39.5944L83.4777 39.6688L83.52 38.1694ZM80.88 38.095L81.0563 36.6054L78.4163 36.293L78.24 37.7826L78.0638 39.2722L80.7037 39.5846L80.88 38.095ZM78.24 37.7826L77.9968 36.3024L75.3568 36.7362L75.6 38.2164L75.8432 39.6965L78.4832 39.2627L78.24 37.7826ZM75.6 38.2164L75.6793 36.7185L73.0393 36.5787L72.96 38.0766L72.8807 39.5745L75.5207 39.7143L75.6 38.2164ZM72.96 38.0766L72.8621 36.5798L70.2221 36.7524L70.32 38.2493L70.4179 39.7461L73.0579 39.5734L72.96 38.0766ZM70.32 38.2493L70.5017 36.7603L67.8617 36.4381L67.68 37.9271L67.4983 39.416L70.1383 39.7382L70.32 38.2493ZM67.68 37.9271L67.6308 36.4279L64.9908 36.5145L65.04 38.0137L65.0892 39.5129L67.7292 39.4263L67.68 37.9271ZM65.04 38.0137L64.9917 36.5144L62.3517 36.5995L62.4 38.0987L62.4483 39.5979L65.0883 39.5129L65.04 38.0137ZM62.4 38.0987L62.307 36.6016L59.667 36.7656L59.76 38.2627L59.853 39.7598L62.493 39.5958L62.4 38.0987ZM59.76 38.2627L60.0212 36.7856L57.3812 36.3187L57.12 37.7958L56.8588 39.2729L59.4988 39.7397L59.76 38.2627ZM57.12 37.7958L56.8607 36.3184L54.2207 36.7818L54.48 38.2592L54.7394 39.7366L57.3793 39.2732L57.12 37.7958ZM54.48 38.2592L54.6208 36.7658L51.9808 36.5169L51.84 38.0103L51.6992 39.5037L54.3392 39.7526L54.48 38.2592ZM51.84 38.0103L51.7591 36.5125L49.1191 36.6551L49.2 38.1529L49.2809 39.6507L51.9209 39.5081L51.84 38.0103ZM49.2 38.1529L49.4126 36.6681L46.7726 36.2901L46.56 37.775L46.3474 39.2598L48.9874 39.6378L49.2 38.1529ZM46.56 37.775L46.2863 36.3002L43.6463 36.7901L43.92 38.2649L44.1937 39.7398L46.8337 39.2498L46.56 37.775ZM43.92 38.2649L43.9982 36.767L41.3583 36.6291L41.28 38.127L41.2018 39.625L43.8418 39.7629L43.92 38.2649ZM41.28 38.127L41.3122 36.6274L38.6722 36.5706L38.64 38.0703L38.6078 39.57L41.2478 39.6267L41.28 38.127ZM38.64 38.0703L38.6151 36.5705L35.9751 36.6144L36 38.1142L36.025 39.614L38.665 39.5701L38.64 38.0703ZM36 38.1142L36.185 36.6257L33.545 36.2976L33.36 37.7861L33.175 39.2747L35.815 39.6028L36 38.1142ZM33.36 37.7861L33.2235 36.2924L30.5835 36.5337L30.72 38.0274L30.8565 39.5212L33.4965 39.2799L33.36 37.7861ZM30.72 38.0274L30.7085 36.5275L28.0685 36.5477L28.08 38.0476L28.0915 39.5476L30.7315 39.5274L30.72 38.0274ZM28.08 38.0476L27.758 36.5826L25.4267 37.095L25.7487 38.56L26.0707 40.025L28.402 39.5127L28.08 38.0476ZM25.7487 38.56L24.2653 38.783L24.6622 41.423L26.1455 41.2L27.6288 40.977L27.232 38.337L25.7487 38.56ZM26.1455 41.2L24.6473 41.1266L24.5179 43.7666L26.0161 43.84L27.5143 43.9134L27.6437 41.2734L26.1455 41.2ZM26.0161 43.84L24.5198 43.7356L24.3691 45.8956L25.8654 46L27.3618 46.1044L27.5125 43.9444L26.0161 43.84ZM25.8654 46V47.5H26V46V44.5H25.8654V46Z" fill="black"/>
<path d="M32 64L33.423 63.5257L33.0811 62.5H32V64ZM32.0316 64.0949L30.6086 64.5692L30.9795 65.6818L32.1487 65.5903L32.0316 64.0949ZM34.64 63.8907L35.7787 62.9142L35.2826 62.3358L34.5229 62.3952L34.64 63.8907ZM35.8314 65.28L37.3244 65.135L37.2786 64.6633L36.9701 64.3035L35.8314 65.28ZM36.0878 67.92L37.5304 68.3309L37.6082 68.0577L37.5808 67.775L36.0878 67.92ZM35.44 70.1942L35.3237 71.6897L36.5466 71.7848L36.8826 70.6051L35.44 70.1942ZM32.8 69.9889L31.4202 70.5773L31.7769 71.4139L32.6837 71.4844L32.8 69.9889ZM32.0202 68.16L30.524 68.2674L30.542 68.5176L30.6404 68.7483L32.0202 68.16ZM31.8306 65.52L30.3324 65.4467L30.328 65.5371L30.3345 65.6274L31.8306 65.52ZM31.905 64V62.5H30.4767L30.4068 63.9267L31.905 64ZM32 64L30.577 64.4743L30.6086 64.5692L32.0316 64.0949L33.4546 63.6205L33.423 63.5257L32 64ZM32.0316 64.0949L32.1487 65.5903L34.7571 65.3861L34.64 63.8907L34.5229 62.3952L31.9146 62.5994L32.0316 64.0949ZM34.64 63.8907L33.5013 64.8671L34.6928 66.2565L35.8314 65.28L36.9701 64.3035L35.7787 62.9142L34.64 63.8907ZM35.8314 65.28L34.3385 65.425L34.5948 68.065L36.0878 67.92L37.5808 67.775L37.3244 65.135L35.8314 65.28ZM36.0878 67.92L34.6452 67.5091L33.9974 69.7833L35.44 70.1942L36.8826 70.6051L37.5304 68.3309L36.0878 67.92ZM35.44 70.1942L35.5563 68.6987L32.9163 68.4935L32.8 69.9889L32.6837 71.4844L35.3237 71.6897L35.44 70.1942ZM32.8 69.9889L34.1798 69.4006L33.4 67.5717L32.0202 68.16L30.6404 68.7483L31.4202 70.5773L32.8 69.9889ZM32.0202 68.16L33.5163 68.0526L33.3268 65.4126L31.8306 65.52L30.3345 65.6274L30.524 68.2674L32.0202 68.16ZM31.8306 65.52L33.3288 65.5934L33.4032 64.0733L31.905 64L30.4068 63.9267L30.3324 65.4467L31.8306 65.52ZM31.905 64V65.5H32V64V62.5H31.905V64Z" fill="black"/>
</svg>
