<svg xmlns="http://www.w3.org/2000/svg" width="120" height="120" fill="none" viewBox="0 0 120 120"><path fill="#000" d="m61.799 51.843 1.71 2.015 1.747 1.887.082.082 1.453 2.18 1.934 1.933.105.2 1.195 2.25.223.41-.047.457-.293 2.484.153 2.543.011.082-.011.082-.13 2.531.294 2.496.035.235-.047.222-.469 2.485.164 2.414.012.047v.035l.023 2.625.059 2.636.07 2.637v.035l.012 2.637v.106l-.012.093-.34 2.637-.023.246-.106.211-.843 1.77-.504 1.043-1.149-.223-2.613-.516v-.011l-2.402-.246-2.543.152-.27.023-.258-.082-2.519-.773-.14-.035-.141-.07-2.18-1.184-2.367-.48-.094-.024-.082-.024-.469-.164-1.02-.34v-1.289l.2-2.472-.129-2.496-.176-2.637v-.094l-.011-2.636-.012-.094.012-.082.28-2.52-.21-2.473-.012-.046v-.059l-.023-2.637v-.035l.012-2.555-.118-2.636-.012-.094.012-.082.176-2.637v-.035l.012-.035.27-2.531.058-.504.363-.375 1.746-1.817 1.688-2.039 1.535-2.062.047-.07.047-.047 1.793-1.946.234-.27.34-.116 1.992-.762.984-.375zm-2.285 3-1.536 1.687-1.488 2.004-.023.035-.024.023-1.675 2.04-.036.046-.047.047-1.476 1.524-.223 2.027-.175 2.508.129 2.543v.082l-.012 2.637-.012-.012.035 2.508.223 2.648.011.14-.011.153-.281 2.484.011 2.626.164 2.542v.012l.012.012.117 2.648.012.094-.012.094-.105 1.37 1.781.364.223.047.187.106 2.262 1.218 2.098.633 2.437-.129.117-.011.117.011 2.637.281h.059l.07.012 1.465.293.234-.48.293-2.32v-2.497l-.07-2.636v-.012l-.059-2.637v-.023l-.023-2.555-.176-2.637-.012-.187.036-.188.445-2.437-.27-2.39-.011-.13v-.129l.14-2.566-.164-2.543-.011-.129.023-.129.234-2.191-.879-1.64-1.699-1.688-.105-.106-.082-.129-1.395-2.097-1.734-1.864-.024-.023-.023-.035-1.02-1.207z"/><path fill="#000" d="m47.606 39.056 2.413.094 1.301.046.14 1.29.224 2.25.386.527 1.887.258 2.52-.047h.058l2.649.058h-.012l2.625.024h.012l2.613.023 2.508-.21h.082l1.98-.083.375-.445.024-2.086.011-1.524 1.524.047 2.414.059 2.613-.129h.082l2.637.012h2.484l1.383-.012.117 1.383.235 2.637.011.152-.023.14-.281 2.637.011 2.38.176 2.636v.035l.13 2.637v.187l-.188 2.52h-.012v.023l-.293-.023h-2.695v-.211l.187-2.356-.117-2.613-.176-2.637-.012-.047v-.046l-.011-2.637v-.082l.011-.094.27-2.508-.094-1.101h-1.137l-2.566-.012-2.625.117-.059.012h-.046l-.985-.035v1.125l-.011.55-.352.41-1.16 1.348-.422.504-.656.024-2.579.082.012.011-2.636.235h-.165l-2.636-.035v-.012l-2.625-.012h-.024l-2.613-.058-2.602.058h-.117l-.117-.011-2.648-.375-.633-.083-.375-.527-.985-1.383-.234-.316-.035-.399-.152-1.347-1.02-.035-2.578.152-.082.012-.082-.012-2.543-.129-.95.117-.245 1.348.152 2.484.012.035v.047l.023 2.614.059 2.636.07 2.637v.035l.012 2.52.011 1.5h-1.605v-1.5l-1.406.011-.012-2.519h.012l-.082-2.602v-.011l-.059-2.637v-.012l-.023-2.566-.176-2.637-.012-.187.035-.188.492-2.637.211-1.078 1.09-.14 2.192-.258.117-.012h.129l2.543.14 2.578-.163z"/><path fill="#000" d="m109.377 107.373.023-.293-.082-.282-.75-2.437-.222-2.32.164-2.579.011-.164-.023-.152-.387-2.613v-.07l-.023-.07-.574-2.345.222-2.437.024-.235-.059-.234-.586-2.46-.258-2.52.012-.012-.199-2.637-.211-2.637v-.011h-.012l-.234-2.637-.094-2.555-.012-.199-.046-.176-.704-2.332.036-2.449v-.129l-.024-.129-.398-2.613-.094-2.473-.012-.129-.023-.129-.539-2.414.011-2.507v-.035l-.011-.036-.106-2.648-.058-1.371-1.383-.059-2.602-.105h-.035l-2.637-.059h-.058l-2.649.059-.972.023-.375.903-.68 1.628-.129.293.012.317.023 1.64-.738.317-2.297-.082-.058-.012-.06.012-2.085.094-.516-.434-.129-1.98-.023-.41-.234-.34-.973-1.407-.457-.644h-.785l-2.625.011-2.637-.023h-.187l-.176.047-2.215.527-1.277.317.14 1.312.246 2.32-.234.762-1.465-.105h-.023l-2.649-.13h-.152l-2.555.165-.246.012-.234.093-.094.035.574 1.395.106.281.082 1.172 2.46-.14 2.532.117 2.637.175 1.171.07.364-1.112.691-2.18.094-.305-.035-.316-.153-1.325.739-.175 2.472.011h1.864l.293.422.152 2.215.047.656.504.41 1.465 1.172.445.364.562-.024 2.579-.105 2.578.094.34.011.316-.14 1.98-.856.914-.398-.011-.996-.047-2.332.187-.434 1.63-.035 2.577.047 1.231.058.058 1.184-.011 2.66v.164l.035.153.539 2.472.105 2.508.012.094.012.082.375 2.52-.024 2.495v.223l.059.223.703 2.414.094 2.437.012.035v.047l.234 2.614.223 2.625.187 2.625v.023l.012.012.258 2.625.011.105.024.094.551 2.355-.211 2.438-.024.246.059.246.621 2.59.34 2.332-.164 2.496-.012.129.012.117.258 2.625.011.152.047.141.692 2.297-.094 1.02 1.5.14 1.488.141zM17.549 86.801l-1.488-.14.082-.926-.082-2.45v-.011l-.059-2.637v-.023l-.023-2.555-.176-2.637-.012-.2.035-.187.457-2.379-.281-2.449-.012-.117v-.129l.14-2.543-.163-2.566v-.13l.011-.128.282-2.484-.258-2.473-.012-.035v-.035l-.152-2.637-.094-1.512 1.512-.082 2.578-.129h.047l2.637-.058h.058l2.649.058.972.024.375.902.68 1.629.129.293-.012.316-.023 1.641.738.316 2.297-.082h.117l2.086.094.516-.422.128-1.992.024-.41.234-.34.973-1.406.457-.645h.785l2.637.024 2.625-.035h.187l.176.046 2.215.54 1.277.304-.14 1.313-.246 2.32.234.762 1.465-.106h.023l2.649-.117.082-.012.07.012 2.555.152.246.012.234.094.094.047-.574 1.383-.106.28-.082 1.173-2.46-.141-2.532.117-2.637.176-1.171.082-.364-1.125-.691-2.18-.094-.304.035-.317.152-1.324-.726-.176-2.484.024h-.024l-1.84-.012-.293.422-.152 2.215-.047.656-.504.41-1.465 1.184-.445.351-.562-.023-2.579-.094-2.578.082-.34.012-.316-.13-1.98-.866-.915-.399.012-.996.047-2.332-.187-.433-1.63-.036-2.566.047-1.066.059.07 1.125v.012l.27 2.554.011.164-.011.164-.282 2.485.141 2.543.012.082v.082l-.129 2.543.293 2.484.023.223-.047.234-.457 2.461.165 2.438v.082l.023 2.625.059 2.625.082 2.648v.094l-.012.082-.082.926z"/><path fill="#000" d="m32 82.235 2.473.902.023.012h.023l2.473.972 2.332.727 2.567.644.14.047 2.485.914h-.012l2.484.89h.024l2.472.927h-.011l2.46.808.13.035.117.07 2.168 1.173 2.367.773 2.566.703.164.047.14.082 2.192 1.16 2.203.703h1.84l2.028-1.066.199-.117.222-.035 2.462-.48 2.214-1.032.036-.012.046-.023 2.438-.985.304-.117.329.012 2.46.094.2.011.199.07 2.508.81h.023l.012.011 2.496.867.094.024.094.047 2.144 1.078 2.438.386.234.035.223.106 2.296 1.184 2.286.914 2.53.703.247.07.2.129 2.19 1.488.118.082.105.106 1.723 1.746 2.144 1.183.118.071.105.082 1.922 1.57 2.238 1.125.176.094.152.14 1.887 1.688 1.957 1.395.985.433-.598 1.371-.609 1.383-1.09-.48-.141-.059-.117-.094-2.168-1.512-.141-.117-1.828-1.652-2.191-1.102-.153-.082-.117-.105-1.98-1.594-2.18-1.195-.2-.106-.151-.164-1.782-1.804-1.828-1.254-2.367-.656-.082-.024-.07-.023-2.52-1.008-.058-.035-2.157-1.102-2.414-.363-.246-.047-.21-.106-2.356-1.183-2.297-.797-2.32-.75-1.97-.082-2.038.844-2.391 1.125-.176.082-.187.035-2.403.445-2.156 1.149-.328.175h-.375l-2.45.012h-.234l-.234-.07-2.52-.809-.117-.047-.117-.058-2.226-1.184-2.38-.644-.035-.012h-.035l-2.507-.82-.13-.047-.128-.059-2.227-1.207-2.379-.773-.035-.012-.023-.012-2.45-.926v.012l-2.484-.89h-.023l-2.414-.891-2.473-.633-.047-.012-.035-.011-2.52-.774-2.52-1.008v.012l-2.144-.785-2.191.293-2.402.68-.07.023-2.579.574-.012-.011-2.437.585.012.012-2.45.774.012.011-2.18.832-1.91 1.512-1.91 1.7-.023.023-2.004 1.71-.07.071-.07.047-2.11 1.406-.012-.012-.012.012-.129-.187L8 94.235l-.926-1.184.082-.07.047-.035.047-.024 2.04-1.36 1.944-1.663 1.957-1.735.036-.035.035-.023 2.074-1.641.176-.129.21-.082 2.391-.937.047-.012.035-.012 2.532-.82.046-.012.059-.012 2.566-.62.012-.012h.012l2.496-.551 2.543-.715.105-.035.106-.012 2.625-.34.351-.047zm8.275-7.202v-1.477l-1.359.282-.176-.844-.023-.094v-.105l-.13-1.7-.01-.14.01-.14.2-1.606.645.082h2.343v.187l-.011.094-.176 1.477.105 1.394.164.785.375 1.805zm-11.673 0v-1.477l-1.36.282-.176-.844-.023-.094v-.105l-.129-1.7-.012-.14.012-.14.2-1.606.644.082h2.344v.187l-.012.094-.176 1.477.105 1.394.165.785.375 1.805zm63.673 0v-1.477l-1.359.282-.176-.844-.023-.094v-.105l-.13-1.7-.01-.14.01-.14.2-1.606.645.082h2.343v.187l-.011.094-.176 1.477.105 1.394.164.785.375 1.805zm-11.673 0v-1.477l-1.36.282-.176-.844-.023-.094v-.105l-.129-1.7-.012-.14.012-.14.2-1.606.644.082h2.344v.187l-.012.094-.176 1.477.105 1.394.165.785.375 1.805zM63.188 43.331l-.176 1.711-.153 1.336H61.5v-1.5l-1.477-.152.164-1.64-.117-2.485v-.082l.012-2.637-.023-2.508-.223-2.637-.012-.14.012-.153.27-2.53v-2.579l-.165-2.543v-.012l-.011-.011-.117-2.649-.012-.093.011-.082.188-2.543.2.011H63v.211l-.2 2.461.118 2.508h.012l.175 2.637v.093l.012 2.637.012.094-.012.082-.281 2.508.21 2.484.013.047v.059l.023 2.648v.024l-.012 2.554.117 2.649.012.105z"/><path fill="#000" d="m62.428 19.01 2.355.164 2.52-.117v-.012l2.636-.176.493-.035.421.27 1.747 1.113.785.504-.094.925-.281 2.508.21 2.485.141 1.523-1.535.094-2.613.175h-.106l-2.59-.023-2.613.129-.48.023-.41-.27-1.723-1.124-.691-.445.011-.82.024-2.65v-.046l.093-2.11-2.402-3.14zm5.074 3.023h-.012l-.011.012-2.649.117-.082.012-.082-.012-.984-.07-.047 1.242-.024 1.77.633.41 2.156-.094.047-.012h.035l2.543.012 1.078-.059-.093-1.113-.012-.14.012-.153.187-1.711-.562-.363zM52 85.996l.457.34.469.75 2.144-1.348.012.012 2.355-1.219.13-.07.117-.094 2.027-1.629 2.145-1.324 2.238-1.219h.012l.011-.011 2.297-1.301.082-.047.082-.059 2.04-1.523-.13-.176-.68-1.078L67 74.734l-.082.047-.094.07-1.933 1.442-2.25 1.277-2.297 1.254-.047.024-.035.023-2.239 1.395-.07.046-.07.06-1.992 1.57-2.192 1.148-.047.023-.047.035-2.25 1.383-.246.153-.316.422zm0-9 .457.34.469.75 2.144-1.348.012.012 2.355-1.219.13-.07.117-.094 2.027-1.629 2.145-1.324 2.238-1.219h.012l.011-.011 2.297-1.301.082-.047.082-.059 2.04-1.523-.13-.176-.68-1.078L67 65.734l-.082.047-.094.07-1.933 1.442-2.25 1.277-2.297 1.254-.047.024-.035.023-2.239 1.395-.07.046-.07.06-1.992 1.57-2.192 1.148-.047.023-.047.035-2.25 1.383-.246.153-.316.422z"/></svg>