<svg width="120" height="120" viewBox="0 0 120 120" fill="none" xmlns="http://www.w3.org/2000/svg">
<path d="M86.8633 7.8125L87.5195 9.41797L87.6484 9.73438L87.6367 10.0742L87.4844 12.6992L87.4258 15.2891L87.4141 15.4062L87.3906 15.5234L86.9102 18.1133L86.8984 18.1953L86.875 18.2773L86.0898 20.7852L86.0664 20.8555L86.0312 20.9258L84.9883 23.375L84.8711 23.6562L84.6367 23.8672L83.8662 24.5986L85.1855 26.4502L85.2295 26.5117L85.2666 26.5771L86.5771 28.877L86.7119 29.1133L86.7549 29.3809L87.1768 31.9912L87.1914 32.0791L87.1953 32.1689L87.2256 32.9062H88.25L87.416 34.9062L87.0596 37.2275L87.0518 37.2764L87.041 37.3242L86.4736 39.8779L86.4482 39.9932L86.4053 40.1025L85.4365 42.5645L85.375 42.7217L85.2793 42.8613L83.7812 45.0547L83.6689 45.2188L83.5176 45.3477L81.5293 47.0488L80.8115 47.7451L81.4258 47.5547L81.6133 48.1172L81.5586 48.5L83.4668 50.2695L85.4678 52.0225L85.5879 52.1279L85.6836 52.2559L87.2656 54.3848L88.8574 56.5088L88.9932 56.6885L89.0693 56.9004L89.9307 59.2969L91.1699 61.4775L91.2041 61.5391L91.2334 61.6025L92.3242 64.0264L92.4033 64.2012L92.4355 64.3896L92.8838 67.0098L92.8965 67.085L92.9014 67.1611L93.0762 69.7393L93.4658 72.2764L93.4814 72.375L93.502 73.4209L93.5049 73.5752L93.4766 73.7266L93.4678 73.7676L93.1943 76.2168L93.002 78.8086L92.999 78.8555L92.9922 78.9023L92.6299 81.5244L92.6152 81.6299L92.585 81.7334L91.8535 84.2793L91.8125 84.4209L91.7451 84.5518L90.5664 86.8369L89.665 89.2275L89.624 89.3359L89.5674 89.4365L88.2627 91.7393L88.2266 91.8027L88.1846 91.8623L86.6611 94.0264L86.6377 94.0596L85.0508 96.1865L84.9639 96.3037L84.8555 96.4023L82.8877 98.1826L82.875 98.1943L82.8623 98.2051L80.8652 99.9316L80.8018 99.9863L80.7314 100.034L78.5557 101.523L78.5518 101.526L76.3721 103.008L76.3525 103.021L76.332 103.034L74.0879 104.457L73.9688 104.532L73.8389 104.584L71.3701 105.564L71.3193 105.585L71.2676 105.602L70.8838 105.723H72.5586L75.207 105.605H75.3477L77.9844 105.734H78.0664L78.1484 105.746L80.5508 106.133L83.0586 105.934L83.2227 105.922L83.3867 105.945L85.9297 106.273L88.4023 106.355L90.9102 106.203L93.5469 105.957H93.582L96.1133 105.77L98.7031 105.371H98.7266L101.34 104.996L103.871 104.609L106.391 104.023L106.508 103.988L106.637 103.977L109.273 103.801L111.734 103.52H111.793L112.004 104.996L112.203 106.484L112.109 106.496L112.086 106.508H112.074L109.543 106.789H109.508L109.473 106.801L106.965 106.965L104.504 107.551L104.445 107.562L104.375 107.574L101.773 107.973H101.75L99.1484 108.324L99.1602 108.336L96.5586 108.746L96.4883 108.758H96.4297L93.8047 108.934L93.8164 108.945L91.1914 109.191H91.1562L88.5547 109.367H88.4023L85.7656 109.273H85.6836L85.6133 109.262L83.1172 108.934L80.6562 109.156L80.4805 109.168L80.293 109.133L77.6914 108.711L75.2656 108.605L73.8691 108.668L73.9883 108.738L74.1055 108.844L75.9453 110.449L76.0742 110.566L76.1797 110.707L77.7148 112.875L77.8438 113.051L77.9141 113.25L78.1504 113.928L79.1914 113.879H81.8984L84.5234 113.867L87.1719 113.832H87.207L89.8438 113.867H89.9258L90.0078 113.879L92.3281 114.148L94.5898 113.422L94.8242 113.352H95.0703L97.7188 113.363L100.074 113.176L102.477 112.461L102.594 112.426L102.711 112.402L105.336 112.062L105.477 112.039L105.629 112.051L108.09 112.227L110.457 111.676L110.621 111.652L111.828 111.512L112.004 113L112.168 114.488L111.09 114.605L108.547 115.191L108.336 115.25L108.113 115.227L105.617 115.051L103.238 115.355L100.777 116.094L100.625 116.141L100.473 116.152L97.8359 116.375L97.7656 116.387L97.6953 116.375L95.2812 116.352L92.9609 117.113L92.6445 117.207L92.3164 117.172L89.7383 116.855L87.1836 116.832L84.5703 116.867H84.5586L81.9219 116.891H81.8984L79.2617 116.879V116.867L76.6953 117.008L76.5078 117.02L76.4668 117.009L76.1211 117.199L76.0195 116.909L73.918 116.469L71.5039 116.727L71.375 116.738L71.2461 116.727L68.7617 116.551L68.7734 116.562L68.3896 116.579L68.3633 116.918L67.2734 116.812L67.0039 117L65.75 117.832L65.6094 117.621L65.3281 117.188L65.3633 116.672L65.3691 116.601L63.3711 116.34L60.9219 116.562L60.9102 116.574H60.8867L59.457 116.67L59.4453 116.695L58.8125 117.996L57.4766 117.41L57.3945 117.375L57.5068 117.121L57.3359 116.973L57.1016 116.773L57.0322 116.623L55.4609 116.434L52.9297 116.539H51.0225L50.9961 117.066L49.4961 116.996L47.9961 116.938L48.0117 116.568L47.6094 116.574H45.0078L42.4766 116.855H42.3945L40.3838 116.971L40.3086 117.16L40.0059 116.993L39.7578 117.008H39.6406L37.0156 116.949L34.4141 116.973H34.3203L31.7773 116.844L29.2109 117.02H29.1289L26.5039 117.043L26.5156 117.055L23.8789 117.125L21.3594 117.406L21.207 117.418L21.0664 117.406L18.4531 117.172L15.957 117.242L15.9453 117.23L13.4141 117.465H13.3789L10.7422 117.641H10.5547L8.01172 117.5L8.02344 117.23L8 116L7.97656 114.5H8.1875L10.625 114.629L13.1797 114.465L15.793 114.242H15.875L18.5234 114.172H18.6055L18.6875 114.184L21.1719 114.395L23.6797 114.148L23.7383 114.137H23.7852L26.4336 114.055H26.457L29.0938 114.02L31.6484 113.855L31.7422 113.844L31.8242 113.855L34.3789 113.973L37.0156 113.949H37.0625L38.3613 113.973L38.8438 112.777L38.9023 112.613L39.0078 112.473L40.543 110.305L40.6719 110.129L40.8359 110L42.3584 108.787L41.4102 108.863H41.3633L38.7148 108.98L38.2344 109.004L37.8242 108.734L35.6211 107.293V107.281L33.4062 106.004L33.2422 105.91L33.1016 105.77L31.3555 104.047L29.1875 102.934L29.082 102.875L28.9766 102.805L26.9258 101.258L24.7227 99.957L24.6172 99.8984L24.5117 99.8164L22.5898 98.1758L21.8164 97.7656L22.4375 98.4336L22.5078 98.5273L24.1484 100.602L25.8125 102.582L25.8359 102.617L25.8711 102.652L27.4297 104.738L29.1523 106.566L30.8867 108.406L28.4375 109.051L26.832 109.461L26.6914 109.496L26.5391 109.508L23.9375 109.66L21.3945 110.012L21.2422 110.035L21.1016 110.023L18.5234 109.859L16.0625 109.988L16.0742 110L13.4492 110.305H13.4258L10.7891 110.562H10.6016L8.15234 110.492L8.07031 110.504L8.05859 110.492V110.305L8 109.004L7.92969 107.504L8.02344 107.492H8.14062L10.625 107.551L13.1094 107.316L15.7344 107.012H15.8281L18.4648 106.859H18.5469L18.6289 106.871L21.1367 107.012L23.6211 106.684L23.668 106.672H23.7266L25.0625 106.59L25.0391 106.566L23.457 104.445H23.4453L21.8164 102.488L21.8047 102.477L21.793 102.453L20.1758 100.402L18.4883 98.5742L16.5898 96.7344L16.543 96.6758L16.4844 96.6172L14.7969 94.5898V94.5781L13.1094 92.5859L12.2891 91.6133L13.0977 90.6523L13.4844 90.1836L14.3398 89.1758L15.4531 89.8906L17.668 91.3203L17.7734 91.3789L17.8555 91.4609L19.7422 93.1484L21.8281 94.3789L24.1719 95.6211L24.3125 95.7031L24.4414 95.8086L26.3398 97.4375L28.5312 98.7148L28.6719 98.8086L30.6406 100.297L32.9258 101.48L33.1367 101.586L33.3008 101.75L35.0703 103.496L37.1914 104.738L37.2617 104.785L39.0781 105.957L41.1758 105.863L43.8125 105.664H43.8477L46.4844 105.523L46.5898 105.512L46.6953 105.523L47.0869 105.559L47.3047 105.418L47.3867 105.359L47.4688 105.324L47.5283 105.295L47.0166 105.086L44.5439 104.312L44.2656 104.226L44.04 104.04L42.0635 102.416L39.8867 101.178L39.7979 101.127L39.7158 101.064L37.626 99.46L37.584 99.4287L37.5449 99.3936L35.5684 97.6445L35.5264 97.6074L35.4873 97.5664L33.6436 95.6709L33.5898 95.6152L33.541 95.5537L31.9023 93.4746L31.8027 93.3486L31.7324 93.2051L30.6465 90.9805L29.0449 89.0479L28.8496 88.8115L28.7617 88.5176L28.0059 85.9746L27.2559 83.5508L26.1865 81.2041L26.1113 81.0391L26.0771 80.8613L25.583 78.2471L25.5439 78.0381L25.5635 77.8252L25.8057 75.3057L25.5117 72.8398L25.4883 72.6406L25.5176 72.4414L25.8926 69.9248L25.9346 67.3672L25.9385 67.0986L26.0361 66.8486L26.9932 64.3887L27.833 62.0068L28.4814 59.4766L28.5273 59.2979L28.6152 59.1357L29.8809 56.7939L29.9648 56.6377L30.083 56.5059L31.8037 54.585L33.2822 52.4893L33.3809 52.3496L33.5068 52.2363L35.4697 50.4766L37.4229 48.6963L37.5146 48.6133L37.6182 48.5459L38.9316 47.6943L38.1035 46.8203L36.2451 45.001L36.1035 44.8633L36.0029 44.6934L34.6582 42.4219L33.2949 40.124L33.1094 39.8115L33.0879 39.4482L32.9316 36.8252L32.5898 34.2871L32.5654 34.1094L32.584 33.9316L32.8555 31.3223L32.8701 31.1816L32.9111 31.0459L33.6689 28.5244L33.7119 28.3809L33.7832 28.248L35.0322 25.915L35.1094 25.7705L35.2158 25.6465L35.2412 25.6162L34.9844 25.4727L34.7852 25.1914L33.25 23.0117L33.2266 22.9883L33.2148 22.9531L31.7734 20.7031L31.5742 20.3867L31.5508 20.0117L31.3398 17.3281L31.3516 17.3164L31.0469 14.8438L30.6602 12.1953L30.625 11.9609L30.6719 11.7266L31.1289 9.10156L31.2812 8.25781L32.0898 7.96484L33.3555 7.49609L33.9062 7.28516L34.457 7.51953L36.9297 8.5625L37.1523 8.65625L37.3281 8.80859L39.2969 10.5078L41.3594 11.8789L43.5977 13.2734V13.2852L45.8242 14.7031H45.8477L47.7109 15.9219L49.6562 15.9805H49.6445L52.0938 16.0273L54.4375 15.3594L54.5547 15.3242L54.6836 15.3125L57.2031 15.0078L59.7695 14.4688L60.168 14.375L60.5547 14.5039L62.9453 15.2891L65.3945 15.5352L65.4297 15.5469H65.4648L68.0898 15.9336L68.2305 15.957L68.3711 16.0039L70.5156 16.7656L72.2969 16.5312L74.1367 15.207L76.2461 13.6602V13.6484H76.2578L78.3203 12.1484L80.2422 10.4258L80.2656 10.4023L80.3008 10.3789L82.3516 8.71484L82.4453 8.64453L84.625 7.14453L86.1602 6.08984L86.8633 7.8125ZM46.7422 109.379L46.7305 109.367L44.6562 110.773L42.8633 112.203L41.6699 113.891L42.1484 113.867L44.7852 113.586L44.8672 113.574H47.5742L47.8623 113.57L47.8438 113.328V113.188L47.8789 110.645V110.527L47.8906 110.41L48.1836 108.671L47.8574 108.641L46.7422 109.379ZM68.7383 111.27L68.7734 111.445L68.7617 111.633L68.624 113.562H68.8086L71.293 113.727L73.8477 113.48L74.0703 113.457L74.293 113.504L74.5322 113.553L73.8359 112.582L72.2422 111.188L70.0859 109.992L68.3633 109.078L68.7383 111.27ZM65.0117 109.383L63.1367 111.164L63.0898 111.199L63.0547 111.234L61.3555 112.617L60.9248 113.55L63.3008 113.34L63.4648 113.328L63.6289 113.352L65.6152 113.603L65.75 111.574L65.375 109.418L65.2812 109.148L65.0117 109.383ZM50.8555 110.844L50.8438 113.223L50.8691 113.539H52.8125L55.4492 113.434H55.4629L54.7578 112.156L53.0117 110.492L52.9766 110.445L52.9297 110.398L51.2539 108.5L50.8555 110.844ZM55.0977 108.324L56.9961 110.164L57.1602 110.316L57.2656 110.516L58.2295 112.234L58.7773 111.059L58.918 110.742L59.1875 110.52L61.1445 108.914L62.7012 107.436L60.415 107.271L57.8652 107.394L57.8389 107.396H57.8135L55.1514 107.431L54.9258 107.434L54.71 107.371L54.0986 107.192L55.0977 108.324ZM37.4912 52.6943L37.4814 52.7021L35.6367 54.3545L34.208 56.3828L34.1582 56.4541L34.0996 56.5195L32.4336 58.377L31.3418 60.3994L30.7236 62.8135L30.707 62.8779L30.6855 62.9414L29.8135 65.4111L29.8057 65.4336L29.7969 65.4561L28.9287 67.6855L28.8896 70.0781L28.8887 70.1768L28.874 70.2744L28.5137 72.6816L28.8027 75.1143L28.8223 75.2734L28.8066 75.4336L28.5703 77.8965L28.9912 80.126L30.0264 82.3965L30.0664 82.4834L30.0947 82.5752L30.8721 85.0879L30.875 85.0957L30.877 85.1035L31.5498 87.3701L33.0703 89.2031L33.1846 89.3408L33.2627 89.502L34.3574 91.7432L35.8477 93.6338L37.5938 95.4297L39.4893 97.1084L41.4561 98.6182L43.6582 99.8721L43.7695 99.9355L43.8682 100.017L45.7188 101.536L47.9834 102.246L48.043 102.265L48.1016 102.288L50.4131 103.231L52.8662 103.713L52.9326 103.726L52.998 103.745L55.3369 104.428L57.7578 104.396L60.3555 104.271L60.4443 104.268L60.5332 104.273L63.0078 104.449L65.4072 104.041L67.9033 103.517L70.3086 102.758L72.5996 101.848L74.707 100.512L76.8613 99.0479L78.9688 97.6045L80.8857 95.9463L82.7314 94.2773L84.2139 92.291L85.6895 90.1924L86.8984 88.0596L87.792 85.6934L87.8232 85.6133L87.8623 85.5361L89.0098 83.3086L89.6729 81.0049L90.0137 78.5332L90.2061 75.9619L90.208 75.9336L90.2109 75.9062L90.4932 73.3818L90.499 73.3262H90.498L90.4844 72.6289L90.1006 70.124L90.0908 70.0615L90.0869 69.998L89.9121 67.4346L89.5107 65.085L88.5303 62.9053L87.2588 60.666L87.1953 60.5547L87.1514 60.4336L86.3213 58.127L84.8652 56.1855L84.8613 56.1797L83.3711 54.1748L81.4902 52.5273L81.459 52.498L81.251 52.3047L81.2617 53.4023L81.707 55.9219L81.7305 56.0508V56.1914L81.6953 58.8281V58.9219L81.6836 59.0156L81.3555 61.4414L81.6953 63.8906L81.7188 64.0547L81.6953 64.2188L81.4961 66.7031L81.7539 69.2227L81.7773 69.4453L81.7305 69.6562L81.2383 72.1758L81.2617 74.5078L81.6836 77.0391L81.7188 77.2266L81.6953 77.4141L81.4961 80.0508L81.4844 80.2266L81.4258 80.3906L80.6641 82.7812L80.3711 85.3125L80.3242 85.6641L80.1367 85.957L78.6719 88.1836V88.1953L77.2188 90.3867L77.1719 90.457L77.1133 90.5273L75.4258 92.543L75.3555 92.625L75.2734 92.6953L73.3047 94.4531L73.2227 94.5234L73.1172 94.582L70.9023 96.0352L70.8555 96.0703L70.7969 96.0938L68.4531 97.3594L68.1836 97.5L67.8906 97.5234L65.3359 97.7812L62.9102 98.4492L62.6992 98.5078L62.4766 98.4961L59.875 98.4258L57.2734 98.4961L57.0391 98.5078L56.8164 98.4492L54.2734 97.7344H54.2617L51.8008 97.2422L51.6602 97.2188L51.5312 97.1602L49.0586 96.1641L48.8242 96.0703L48.6367 95.9062L46.6445 94.1719L44.6406 92.4844L44.5352 92.4023L44.4414 92.2969L42.7773 90.2812L42.7188 90.1992L42.6602 90.1289L41.2539 87.9258L41.1953 87.832L41.1484 87.7266L40.082 85.3477L40.0703 85.3242L40.0586 85.2891L39.0742 82.8516L39.0156 82.7227L38.9922 82.582L38.4883 79.9805L38.4531 79.8281V79.6641L38.4883 77.0156L38.5117 74.3906V74.3438L38.5234 74.2969L38.6992 71.7188L38.5703 69.1875V69.1055L38.582 66.4688H38.5938L38.5586 63.9727L38.3359 61.3242L38.3242 61.1836L38.3359 61.0312L38.6172 58.5L38.6055 55.9219L38.4414 53.3789V53.3672L38.4297 53.3555L38.3643 51.8965L37.4912 52.6943ZM41.3799 49.6826L41.3008 50.6719L41.4297 53.1797L41.6055 55.8164V55.9102L41.6172 58.5469L41.6289 58.6406L41.6172 58.7227L41.3359 61.2305L41.5469 63.7148L41.5586 63.7617V63.8203L41.582 66.4688V66.4922L41.5703 69.1289L41.6875 71.6953L41.6992 71.7773L41.6875 71.8594L41.5117 74.5078L41.4883 77.0508V77.0625L41.4531 79.4883L41.8984 81.8555L42.8242 84.1172L43.832 86.3906L45.1211 88.3945L46.6797 90.2812L48.5781 91.875L48.6016 91.8867L50.418 93.4805L52.4922 94.3125L54.9766 94.8164L55.0352 94.8281L55.082 94.8398L57.4375 95.4961L59.8281 95.4258H59.9219L62.3594 95.4844L64.6797 94.8633L64.7969 94.8281L64.9141 94.8164L67.2695 94.5703L69.2852 93.4922L71.3242 92.168L73.1992 90.5273L74.7578 88.6523L76.1641 86.543L77.418 84.6094L77.7109 82.2891L77.7344 82.1484L77.7695 82.0195L78.5078 79.6641L78.6836 77.332L78.2852 74.9062L78.2617 74.7891V74.6602L78.2383 72.0234V71.8711L78.2734 71.7188L78.7422 69.3047L78.4961 66.8906L78.4844 66.75L78.4961 66.6094L78.6953 64.0898L78.3555 61.6523L78.332 61.4531L78.3555 61.2539L78.6953 58.6875L78.7188 56.332L78.2969 53.7891L78.2734 53.6719V53.5547L78.2383 50.918V50.8008L78.25 50.6953L78.3213 50.1348L78.0039 49.9697L77.2354 50.4727L77.1572 50.5234L77.0732 50.5635L74.6924 51.7246L74.6631 51.7393L74.6338 51.752L72.2021 52.8105L72.0635 52.8711L71.916 52.9023L69.3213 53.4551L69.3057 53.459L69.29 53.4619L66.6982 53.958L66.6211 53.9727L66.5439 53.9795L63.9316 54.2021L63.9326 54.2031L61.3076 54.457L61.2881 54.459L58.6396 54.6816L58.5137 54.6924L58.3887 54.6816L55.7451 54.4619L55.7012 54.458L55.6592 54.4521L53.0342 54.0801L52.9678 54.0703L52.9023 54.0557L50.3232 53.4512L50.2959 53.4453L50.2686 53.4375L47.7129 52.7383L47.5342 52.6895L47.3721 52.5986L45.1152 51.3252L42.7793 50.3027L42.7354 50.2842L42.6943 50.2627L41.4629 49.6289L41.3799 49.6826ZM71.9805 79.8184L74.0078 82.0156L72.9854 82.959L73 83L73.4971 84.415L73.4023 84.4482L72.4717 84.7754L71.8037 84.0508L70.4229 82.5547L69.2158 82.9414L68.5088 85.0635L68.332 85.5957L67.8486 85.8809L65.3545 87.3545L64.2119 88.0303L63.4033 86.9785L61.9941 85.1475L60.6787 84.9443L59.4619 86.5742L58.9502 87.2588L58.1006 87.168L55.2549 86.8633L54.4727 86.7793L54.0967 86.0879L53.0303 84.127L52.0322 83.918L50.9258 85.457L50.1846 86.7109L48.9971 86.0068L48.3291 87.3418L48.2227 87.2881L46.7822 86.5684L47.6025 85.1826L48.3809 83.8682L48.415 83.8105L48.4541 83.7568L50.168 81.373L50.7373 80.5811L51.6934 80.7812L54.3252 81.333L55.0039 81.4756L55.335 82.085L56.3555 83.9629L57.5693 84.0928L58.8154 82.4268L59.3555 81.7041L60.2461 81.8418L63.0479 82.2754L63.6406 82.3672L64.0068 82.8438L64.9707 84.0967L65.8398 83.583L66.6104 81.2715L66.8516 80.5488L67.5762 80.3164L70.4209 79.4062L71.3311 79.1152L71.9805 79.8184ZM70.9023 69.1484L73.75 70.1211L74.2305 70.2852L74.5117 70.707L76.1523 73.1797L74.9922 73.9297L75.0039 74L75.0742 75.5H74.9688L74.125 75.5469L73.6562 74.832L72.2852 72.7812L70.7148 72.2422L69.1914 73.4609L67.2227 75.5586L66.543 76.2734L65.6172 75.9336L62.957 74.9492L62.7109 74.8555L62.5117 74.6797L60.8945 73.3086L59.3711 73.7188L57.5547 75.5352L56.9688 76.0977L56.1719 75.9219L53.2539 75.2891L52.7734 75.1719L52.4453 74.8086L51.1211 73.2969L49.8555 73.6016L48.6719 75.6406L47.5352 78.2305L47.5234 78.2188L47.3828 78.582L44.6172 77.4102L44.7812 77.0352V77.0234L44.793 77.0117L46 74.2695L46.0352 74.1992L46.082 74.1172L47.5938 71.5273L47.9219 70.9766L48.543 70.8359L51.3086 70.168L52.1875 69.957L52.7852 70.6367L54.3789 72.4648L56.0195 72.8164L57.5547 71.3164L57.8242 71.0469L58.1992 70.9414L60.8711 70.2031L61.6445 69.9922L62.2422 70.5195L64.2695 72.2305L65.7227 72.7695L67.0938 71.3281L67.1641 71.2461L67.2461 71.1875L69.4844 69.3945L70.1289 68.8906L70.9023 69.1484ZM70.9219 59.1133L73.7461 60.168L74.1914 60.332L74.4609 60.7188L76.1367 63.1562L74.9883 63.9297L75 64L75.0586 65.5H74.9531L74.1328 65.5352L72.2578 62.8164L70.6055 62.207L69.0352 63.3086L67.2539 65.418L66.668 66.1211L65.7656 65.9102L63 65.2539L62.6016 65.1602L62.3203 64.8906L60.668 63.332L59.1562 63.4609L57.5625 65.2305L57.1406 65.7109L56.4961 65.7227L52.7461 65.8398L52.2773 65.2539L50.8008 63.3906L49.3945 63.2852L48.1289 64.832L46.957 67.3984L46.9453 67.4102V67.4219L46.3477 68.6523L45 67.9961L43.6523 67.3516L44.2383 66.1211L45.4805 63.4141L45.5625 63.2383L45.6797 63.0859L47.5547 60.8008L48.0469 60.1914L48.832 60.25L51.6797 60.4492L52.3359 60.4961L52.7461 61.0117L54.1641 62.7812L55.7578 62.7344L57.3281 61.0234L57.7266 60.5781L58.3125 60.5312L61.0898 60.2969L61.7578 60.2383L62.25 60.707L64.0781 62.418L65.5547 62.7695L66.9023 61.1992L67.0312 61.0469L67.1953 60.9414L69.5508 59.2891L70.1953 58.8438L70.9219 59.1133ZM80.4766 27.3594L80.3711 27.4414L80.2656 27.4883L77.9102 28.6836L77.7695 28.7539H77.7666L78.6875 29.6641L78.8984 29.8633L79.0156 30.1328L80.0938 32.582L80.1641 32.7461L80.1992 32.9336L80.6328 35.5703L80.7383 36.2148L80.3398 36.7305L79.9648 38.8281L79.9414 38.9688L79.8945 39.0977L78.9688 41.5234L78.875 41.7578L78.7109 41.957L76.9883 43.9609L76.7539 44.2422L76.4258 44.3828L73.9531 45.3906L73.6016 45.5312L73.2266 45.4961L70.6016 45.2266L70.4727 45.2031L70.3438 45.168L67.8359 44.4414L67.4727 44.3359L67.2148 44.0781L65.3047 42.2266L65.1055 42.0273L64.9883 41.7578L64.9619 41.6982L64.9141 41.7734L63.5547 43.8711L62.6289 46.2148L62.582 46.3086L61.4336 48.6875L60.8594 49.8594L59.6172 49.4492L58.3867 49.0508L57.7773 48.8516L57.4961 48.2539L56.3828 45.8633L56.3477 45.7812L56.3242 45.6992L55.4922 43.1914V43.1797L54.8965 41.7021L54.875 41.7578L54.7109 41.957L52.9883 43.9609L52.7539 44.2422L52.4258 44.3828L49.9531 45.3906L49.6016 45.5312L49.2266 45.4961L46.6016 45.2266L46.4727 45.2031L46.3438 45.168L43.8359 44.4414L43.4727 44.3359L43.2148 44.0781L41.3047 42.2266L41.1055 42.0273L40.9883 41.7578L39.9102 39.332L39.8398 39.168L39.8047 38.9922L39.3359 36.3672L39.2773 36.0977L39.3359 35.8281L39.8164 33.2031L39.8398 33.0391L39.9102 32.875L40.9531 30.4609L41.082 30.1914L41.293 29.9922L42.2188 29.0889L40.1641 28.5078L39.9531 28.4492L39.7656 28.332L37.8887 27.1348L37.6006 27.4727L36.498 29.5303L35.8242 31.7725L35.5859 34.0664L35.9111 36.4814L35.9189 36.5361L35.9219 36.5918L36.0596 38.9043L37.2383 40.8906L37.2393 40.8916L38.4834 42.9941L40.2314 44.7051L40.251 44.7246L40.2705 44.7451L41.9277 46.4941L44.0234 47.5723L46.3916 48.6094L46.4609 48.6396L46.5264 48.6768L48.6826 49.8926L51.0322 50.5361L53.5215 51.1182L56.0352 51.4746L58.5117 51.6816L61.0176 51.4707L63.6436 51.2168L63.6514 51.2158L63.6602 51.2148L66.2119 50.9961L68.6982 50.5205L71.1426 49.999L73.4209 49.0068L75.6777 47.9062L77.6953 46.5918L79.4844 44.8555L79.5176 44.8232L79.5537 44.792L81.416 43.1973L82.707 41.3076L83.5703 39.1123L84.1035 36.7109L84.3213 35.2939L84.2871 34.4678L84.2002 32.376L83.8369 30.127L82.6973 28.1289L81.5732 26.5498L80.4766 27.3594ZM59.207 39.6875L59.125 39.6992L59.043 39.6875L57.543 39.5938L57.4727 40.0859L58.3047 42.1602L58.3281 42.207L58.3398 42.2422L59.1133 44.5977L59.582 45.6172L59.8867 44.9961L60.8242 42.6406L60.8711 42.5L60.9531 42.3828L62.2656 40.332L62.4414 39.6641L61.75 39.5703L59.207 39.6875ZM46.9648 29.6172L45.0547 30.4961L43.5781 31.9258L42.7109 33.9297L42.3242 36.0977L42.7227 38.2773L43.6133 40.2695L45.0312 41.6523L47.0586 42.25L49.1562 42.4609L50.9375 41.7344L52.2617 40.1992L53.0469 38.1133L53.457 35.8047L53.5273 35.3945L53.5508 35.3594L53.2578 33.6016L52.3906 31.6094L50.8906 30.1328L49.0039 29.4062L46.9648 29.6172ZM70.9648 29.6172L69.0547 30.4961L67.5781 31.9258L66.7109 33.9297L66.3242 36.0977L66.7227 38.2773L67.6133 40.2695L69.0312 41.6523L71.0586 42.25L73.1562 42.4609L74.9375 41.7344L76.2617 40.1992L77.0469 38.1133L77.457 35.8047L77.5273 35.3945L77.5508 35.3594L77.2578 33.6016L76.3906 31.6094L74.8906 30.1328L73.2188 29.4883L72.416 29.4668L70.9648 29.6172ZM47.3477 32.7344L49.5977 33.4492L50.7812 33.8242L50.6289 35.0547L50.4531 36.4609L50.3242 36.7188L49.3398 38.5234L48.5547 39.9766L47.1836 39.0508L45.2969 37.7852L44.3594 37.1523L44.6992 36.0742L45.4609 33.707L45.918 32.2773L47.3477 32.7344ZM71.3477 32.7344L73.5977 33.4492L74.7812 33.8242L74.6289 35.0547L74.4531 36.4609L74.3242 36.7188L73.3398 38.5234L72.5547 39.9766L71.1836 39.0508L69.2969 37.7852L68.3594 37.1523L68.6992 36.0742L69.4609 33.707L69.918 32.2773L71.3477 32.7344ZM33.6602 12.0195L34.0234 14.4102V14.457L34.3281 17.0352V17.0703L34.3398 17.0938L34.5039 19.3906L35.7109 21.2891L37.0352 23.1875L39.0742 24.3242L39.1445 24.3711L41.1953 25.6836L43.3047 26.2812L45.7656 26.1992L45.8008 26.1875L45.8477 26.1992L48.0273 26.2344L49.5039 26.2578V26.3809L49.7539 26.4766L52.2617 27.4609L52.5547 27.5664L52.7773 27.7773L54.6875 29.6641L54.8984 29.8633L55.0156 30.1328L56.0938 32.582L56.1641 32.7461L56.1992 32.9336L56.6328 35.5703L56.7383 36.2148L56.6582 36.3174L57.0508 36.582L59.125 36.6992L61.7031 36.5703L61.8438 36.5586L61.9727 36.582L63.4102 36.7852L63.3359 36.3672L63.2773 36.0977L63.3359 35.8281L63.8164 33.2031L63.8398 33.0391L63.9102 32.875L64.9531 30.4609L65.082 30.1914L65.293 29.9922L67.1562 28.1758L67.332 28L67.5664 27.8945L69.9219 26.793L70.1445 26.6875L70.3906 26.6641L71.6348 26.5322L71.8164 26.457L72.1328 26.4688L72.2207 26.4697L73.0508 26.3828L73.4141 26.3477L73.7539 26.4766L73.8203 26.502L74.4648 26.5156L76.7148 25.918L78.7891 24.875L80.7109 23.4453L82.3516 21.8984L83.2188 19.8711L84.0039 17.3867L84.4258 15.0781L84.4844 12.582V12.5586L84.4961 12.5352L84.5781 10.8008L84.2148 11.0703L82.1875 12.7109L82.1758 12.6992L80.2773 14.4219L80.2188 14.4805L80.1484 14.5273L78.0156 16.0742L75.9062 17.6328L75.8828 17.6562L73.7383 19.1914L73.4336 19.4023L73.0703 19.4492L70.5859 19.8008L70.2109 19.8477L69.8711 19.7305L67.4922 18.875L65.1016 18.5117V18.5234L62.4531 18.2539L62.2891 18.2422L62.1367 18.1836L59.9922 17.4805L57.7891 17.9609L57.7188 17.9844H57.6484L55.1523 18.2656L52.7148 18.9805L52.4922 19.0391H52.2695L49.5742 18.9805H49.5625L47.1836 18.8984L46.7734 18.8867L46.4219 18.6641L44.2188 17.2227L41.9922 15.8164V15.8047L39.7656 14.4102H39.7422L39.7305 14.3984L37.5273 12.9453L37.4453 12.8867L37.375 12.8164L35.5469 11.2344L33.918 10.543L33.6602 12.0195Z" fill="black"/>
</svg>
