<svg width="120" height="120" viewBox="0 0 120 120" fill="none" xmlns="http://www.w3.org/2000/svg">
<path d="M40.7725 16.6172H40.8311L43.3975 17.0859L43.5381 17.1094L43.667 17.168L46.1514 18.1055L46.4092 18.1992L46.6084 18.3867L48.6006 20.1562L48.624 20.1797L50.5342 21.9727L50.6514 22.0898L52.3623 24.1055L52.4443 24.1992L52.5029 24.3047L53.874 26.5898L53.9678 26.7539L54.0146 26.9297L54.3838 28.1543L55.71 27.5586L55.9443 27.4531L56.2021 27.4297L58.8506 27.1953L58.9561 27.1836H59.0615L61.6982 27.3359H61.8389L61.9795 27.3711L64.5342 28.0156L64.5811 28.0391L64.6279 28.0508L65.8105 28.4395L66.1689 27.7295L67.001 25.3271L67.083 25.0928L67.2471 24.8936L68.8994 22.8193L68.9229 22.7725L68.958 22.749L70.7041 20.8037L70.7627 20.7334L70.833 20.6748L72.8135 18.9287L72.9189 18.8467L73.0361 18.7646L75.333 17.417L75.5088 17.3115L75.708 17.2529L78.1924 16.6084L78.5088 17.8154L78.6494 18.0029L79.5283 19.2217L79.4463 19.2803L79.2236 19.4443L78.9541 19.5146L76.6572 20.1006L74.7002 21.2607L72.8604 22.8662L71.1846 24.7529L69.7549 26.5342L68.958 28.8311L68.9229 28.9248L68.876 29.0068L68.585 29.5869L69.7139 30.1602L69.9248 30.2656L70.1006 30.4297L71.999 32.3164L72.1045 32.4219L72.1865 32.5508L73.6631 34.7773L73.7568 34.9297L73.8154 35.0938L74.7412 37.5898L74.7881 37.707L74.8115 37.8242L75.3037 40.4492L75.3506 40.707L75.3037 40.9766L74.8467 43.6016L74.6123 46.0977L74.5957 46.2861L76.0479 46.9072L76.0596 46.8955L78.5322 47.8096L78.5557 47.8213H78.5674L81.0869 48.8291L81.1338 48.8525L83.501 50.0127L83.5713 50.0479L83.6416 50.0947L85.7861 51.4307L88.0947 52.2861L88.1533 52.2979L88.2119 52.3213L90.6025 53.4346H90.626L90.6377 53.4463L93.0166 54.6064H93.0049L95.3721 55.6377L95.4658 55.6729L95.5479 55.7197L97.7627 57.0322L100.095 58.2744L100.118 58.2861L100.153 58.3096L102.345 59.6104L104.665 60.7939L107.056 61.9658L107.231 62.0596L107.372 62.1768L109.399 63.9229L109.517 64.0049L109.599 64.1221L111.263 66.208L111.38 66.3369L111.45 66.4893L112.599 68.9033L112.646 69.0088L112.681 69.1377L113.407 71.6924L113.478 71.9502L113.466 72.208L113.278 74.8564L113.161 77.4346L113.149 77.5635L113.126 77.6924L112.54 80.2939L112.47 80.6338L112.247 80.9033L110.583 82.9893L110.56 83.0244L110.524 83.0596L108.743 85.0049L108.579 85.1924L108.368 85.3096L106.06 86.5986L106.048 86.6104L106.024 86.6221L103.657 87.8643L103.306 88.04L102.907 88.0283L100.224 87.9229V87.9111L97.6455 87.8643L97.4463 87.8525L97.2471 87.7939L94.7393 87.0322L94.6221 86.9971L94.5049 86.9385L92.1494 85.7666L92.0088 85.708L91.8916 85.6143L89.7939 83.9971L89.6768 83.9033L89.583 83.7861L87.8486 81.7822L87.7432 81.665L87.6611 81.5244L86.4775 79.3682L84.7197 77.7158L84.5322 77.5518L84.415 77.3291L83.1963 75.0205L81.8721 73.0049L80.1025 71.2236L80.0088 71.1416L79.9385 71.0479L78.3916 68.9033L78.3096 68.7861L78.251 68.6455L77.2314 66.4072L76.124 65.252L74.9141 67.2969L74.7852 67.5078L74.6094 67.6602L73.8096 68.3535L75.2812 69.6436L75.4453 69.7959L75.5625 69.9951L76.9219 72.21L78.3984 74.3779L78.457 74.4717L78.5156 74.5889L79.6289 76.9561L79.6523 77.0264L79.6875 77.1084L80.543 79.5811L80.5781 79.6631L80.6016 79.7568L81.1406 82.3115L81.1523 82.3467V82.3818L81.5977 84.9717L81.6211 85.124V85.2881L81.5039 87.9365L81.4922 88.1006L81.4453 88.2646L80.7539 90.8193L80.7305 90.8779L80.707 90.9482L79.793 93.4209L79.7578 93.5264L79.6992 93.6318L78.4219 95.9287L78.4102 95.9521L78.3984 95.9639L77.0625 98.2139L76.9805 98.3428L76.8867 98.46L75.1289 100.405L75.082 100.464L75.0352 100.511L73.0898 102.292V102.304L71.1328 104.085L70.9922 104.202L70.8398 104.296L68.543 105.55L66.5977 106.909L64.5938 108.644L62.8125 110.284L61.4883 112.112L61.3945 112.253L61.2656 112.358L61.1953 112.417L60.1992 111.292L59.8945 110.952L59.5195 110.671L58.9336 111.233L58.5586 110.847L56.5547 109.288L56.5078 109.253L56.4727 109.218L54.5742 107.53L52.4531 106.229L52.3477 106.159L50.2969 104.401L48.2109 103.007V102.995L45.9727 101.659L45.7852 101.554L45.6328 101.39L43.8516 99.4209L43.7227 99.2803L43.6406 99.1279L42.3984 96.8662L40.8633 94.874L40.7109 94.6748L40.6289 94.4521L39.7617 91.9326L38.7422 89.6006L38.6016 89.2725L38.6133 88.9209L38.7539 86.2373L38.8477 83.6709L38.8945 81.0225L38.9062 80.7881L38.9766 80.5654L39.8203 78.0576L39.8672 77.9287L39.9258 77.8232L41.1211 75.5967L42.0352 73.1826L42.1523 72.8545L42.4102 72.6084L44.3438 70.7803L46.0781 68.917L46.1133 68.8818L46.1602 68.8467L46.2959 68.7178L44.8438 66.6289L44.7969 66.5586L43.8359 64.998L42.8633 66.6465L42.7578 66.834L42.6172 66.9746L40.8008 68.709L39.418 70.7012L38.3398 72.9863L38.2695 73.127L38.1758 73.2559L36.582 75.3535L36.5352 75.4121L36.5 75.459L34.8594 77.252L33.8984 79.4785L33.8047 79.7129L33.6289 79.9004L31.8242 81.8691L30.1602 83.8145L30.0898 83.9082L29.9961 83.9785L28.0156 85.7012L27.8867 85.8066L27.7344 85.8887L25.4023 87.1309L25.2617 87.2012L25.1094 87.248L22.5664 87.9746L22.4609 88.0098L22.3438 88.0215L19.6953 88.3613L19.3438 88.4082L19.0039 88.291L16.4844 87.4121L14.0469 86.791L13.7656 86.7207L13.5195 86.5449L11.4102 84.9629L11.3398 84.916L11.2812 84.8574L9.35938 83.041L9.13672 82.8418L9.01953 82.5605L7.94141 80.1465L6.875 77.7441L6.80469 77.5801L6.76953 77.3926L6.3125 74.7676L6.25391 74.4746L6.32422 74.1934L6.875 71.5918V71.5566L6.88672 71.5215L7.55469 68.9902L7.60156 68.8027L7.69531 68.627L8.99609 66.3652L9.06641 66.2363L9.16016 66.1309L10.8711 64.1621L10.9648 64.0449L11.0938 63.9512L13.1562 62.3691L13.1797 62.3457L15.3125 60.7871L15.3594 60.752L15.418 60.7168L17.6797 59.3457L17.75 59.2988L17.8203 59.2754L20.2109 58.1387L22.5664 56.9902L22.6133 56.9668L22.6602 56.9551L25.0391 55.9941L27.3008 54.7988L27.3359 54.7754L27.3711 54.7637L29.7617 53.6387L32.0117 52.5254L34.2969 51.1895L34.4141 51.1191L34.5547 51.0723L37.0273 50.1934L39.2891 49.1152L41.5391 47.8848L41.5508 47.873L41.5742 47.8613L43.918 46.6543L44.0117 46.6074L44.1055 46.5723L45.8447 45.9521L45.2217 43.4375L45.1982 43.3203L45.1865 43.1914L44.9873 40.5547L44.9639 40.3438L45.0107 40.1328L45.5615 37.5312L45.6084 37.2734L45.749 37.0508L47.1318 34.8008V34.7891L48.5264 32.5508L48.6201 32.3984L48.749 32.2695L50.624 30.4062L50.7295 30.3125L50.8584 30.2305L51.707 29.668L51.1904 27.9492L50.0186 25.9922L48.3896 24.082L46.5967 22.3945L44.8154 20.8008L42.7061 20.0039L40.3506 19.5703V19.582L39.6943 19.4883L39.9053 18L40.1162 16.5234L40.7725 16.6172ZM73.0967 92.6055L73.085 92.5938L70.4834 92.7695H70.3896L67.7529 92.7812H67.6592L67.5771 92.7695L65.1162 92.4766L62.5967 92.6992H62.4795L59.8428 92.7344H59.8193L57.2529 92.7227L54.6279 92.8633H54.4639L51.9092 92.7109L49.2725 92.7227L49.2373 92.7344L49.2021 92.7227L46.6006 92.6172L44.292 92.8164L43.3281 93.0967L43.3711 93.2217L44.8594 95.1553L44.9297 95.249L44.9883 95.3545L46.1836 97.5225L47.6953 99.1982L49.8164 100.476L49.8398 100.487L49.875 100.511L52.043 101.964L52.125 102.011L52.1953 102.069L54.1055 103.722L56.2852 105.058L56.3906 105.128L56.4961 105.222L58.3828 106.909L60.4219 108.479L60.4922 108.409L60.5742 108.292L60.668 108.198L62.5898 106.405L62.6133 106.382L62.6484 106.358L64.6523 104.636L64.7109 104.589L64.7695 104.554L66.9258 103.03L67.0664 102.937L69.2344 101.741L71.0625 100.077L72.9375 98.3545L74.5664 96.5381L75.8203 94.4287L76.7891 92.6611L75.5693 92.4766L73.0967 92.6055ZM62.5459 81.9854H62.4639L59.8389 81.9736L57.3076 81.9854L57.3193 81.9971L54.6826 82.2197L54.5303 82.2432L54.3896 82.2197L51.8584 81.9502L49.2803 81.9736L49.2686 81.9619L46.7373 82.1611L46.7256 82.1494L44.124 82.3721L43.9131 82.3955L43.7021 82.3486L41.8721 81.9893L41.8477 83.7529V83.7764L41.7539 86.3662V86.3896L41.625 88.7217L42.3105 90.2725L43.5771 89.9102L43.7178 89.8633L43.8584 89.8516L46.4951 89.6172H46.6943L49.2607 89.7344V89.7227H51.9912L54.5459 89.8633L57.1123 89.7227H57.1943L59.8076 89.7344L62.3389 89.7109L64.9873 89.4766L65.1279 89.4648L65.2803 89.4883L67.9053 89.7812H70.2959V89.7695L72.9326 89.6055H72.9561L75.5928 89.4766H75.7451L75.8857 89.5L77.9219 89.8018L78.5039 87.6201L78.6094 85.2998L78.2109 82.9443L78.002 81.9766L75.7529 82.0908H75.7061L73.0693 82.1729H72.9756L70.3389 82.0674V82.0557L67.7373 82.0439H67.6553L65.1709 81.8682L62.5459 81.9854ZM45.1953 49.3613L42.9453 50.5332L42.9336 50.5215L40.6602 51.7871L40.625 51.7988L40.5898 51.8223L38.2109 52.959L38.1289 52.9941L38.0586 53.0293L35.7148 53.8262L33.5352 55.127L33.4883 55.1504L33.4297 55.1738L31.0625 56.3457L31.0508 56.3574H31.0391L28.6484 57.4707L26.3867 58.6895L26.3164 58.7246L26.2344 58.748L23.8672 59.6855L23.8789 59.6973L21.5 60.8457V60.8574H21.4883L19.2031 61.9238L17.0234 63.248L14.9727 64.7363L14.9844 64.748L13.0273 66.2363L11.5156 67.9707L10.3906 69.9629L9.79297 72.2832L9.3125 74.5215L9.6875 76.6777L10.6836 78.9277L11.6445 81.0723L13.332 82.6543L15.0898 83.9551L17.3398 84.541L17.4102 84.5527L17.4688 84.5762L19.6602 85.3379L21.8516 85.0566L24.125 84.4004L26.1523 83.3223L27.9453 81.7754L29.5859 79.877L29.5977 79.8535L29.6211 79.8301L31.2383 78.0723L32.2109 75.8223L32.3164 75.5996L32.4805 75.4121L34.2031 73.5137L35.7031 71.5332L36.7812 69.2832L36.8281 69.1777L36.8984 69.0723L38.3984 66.9043L38.4805 66.7754L38.5977 66.6816L40.4023 64.9238L41.6211 62.8496L41.8203 62.5098L42.1484 62.3223L42.9502 61.8457L42.8516 61.1328V61.0859L42.582 58.4492L42.5469 58.1797L42.6289 57.9102L43.3086 55.3672L43.332 55.3203L44.1055 52.8125L44.1406 52.6953L44.1875 52.6016L45.3477 50.2109L45.4531 49.9766L46.5449 48.8838L45.1953 49.3613ZM74.832 50.7734L74.9023 50.8906L74.9609 51.0078L76.1094 53.3633L76.1562 53.4453L76.1797 53.5391L77.0352 56.0469L77.1172 56.293V56.5625L77.0703 59.2109L77.1055 61.8008V62L77.0928 62.0518L77.6299 62.4932L77.7002 62.5518L77.7588 62.6221L79.5869 64.5439L79.7627 64.7314L79.8682 64.9541L80.8994 67.251L82.2822 69.1611L84.1104 71.001L84.2158 71.1064L84.3096 71.2354L85.751 73.4502L85.8213 73.5674L86.958 75.7119L88.7275 77.376L88.9033 77.54L89.0205 77.751L90.2158 79.9307L91.7158 81.6768L93.6377 83.165L95.7119 84.1963L97.9268 84.8643L100.317 84.9229H100.341L102.626 85.0049L104.63 83.9619L106.704 82.79L108.239 81.1143L109.692 79.2744L110.161 77.165L110.29 74.6807V74.6572L110.442 72.2432L109.833 70.1104L108.813 67.9307L107.325 66.0791L105.567 64.5791L103.353 63.4893H103.341L103.329 63.4775L100.974 62.2822L100.938 62.2588L100.892 62.2354L98.6768 60.9229L96.3447 59.6807L96.3213 59.6689L96.2861 59.6455L94.0713 58.333L91.751 57.3252L91.7275 57.3135L91.6924 57.3018L89.3486 56.1533L87.0635 55.0986L84.5791 54.1846L84.4268 54.126L84.2979 54.0439L82.0947 52.6611L79.8564 51.5713L77.4658 50.6104V50.5986L75.0283 49.708L74.958 49.6846L73.6211 49.1133L74.832 50.7734ZM54.3516 68.8232H54.2695L51.8672 68.8701L49.8633 69.4795L48.1992 71.0381L46.4766 72.8896L46.4414 72.9248L46.4062 72.9482L44.7188 74.542L43.9219 76.7334L43.875 76.8389L43.8281 76.9326L42.6416 79.0859L44.0771 79.3721L46.5029 79.1611H46.5264L49.1631 78.9736H49.2568L51.8936 78.9502H52.0693L54.5303 79.2314L57.0615 79.0088L57.1201 78.9971H57.1787L59.8154 78.9736H59.8389L62.4053 78.9854L65.042 78.8682H65.2178L67.8545 79.0439L67.8428 79.0557L70.4092 79.0674H70.4443L73.0459 79.1729L75.5889 79.1143V79.1025L77.168 79.0205L76.8633 78.1514L75.8438 75.9717L74.4375 73.8975L74.4141 73.8623L74.4023 73.8271L73.125 71.7529L71.4258 70.2646L69.4688 69.2686L67.3008 68.8115L64.8867 68.9639H64.7227L62.1797 68.8232L59.6953 69.1162L59.4727 69.1514L59.25 69.1045L56.7891 68.6475L54.3516 68.8232ZM58.1562 46.0039L58.168 46.0156L55.7422 46.5312L53.4922 47.4219L51.3945 48.5117L49.5547 50.1172L47.9258 51.7344L46.918 53.7969L46.2031 56.1406L45.582 58.4492L45.8164 60.7227L46.1328 63.0312L47.3047 64.9062L48.4883 66.6172L48.6992 66.6641L48.6885 66.7031L51.1641 65.9521L51.3633 65.8936L51.5625 65.8818L54.1289 65.835L56.7773 65.6357L56.9648 65.624L57.1523 65.6592L59.5781 66.1162L61.9922 65.835L62.1094 65.8232H62.2383L64.7812 65.9639L67.3477 65.8115L67.5586 65.7998L67.7578 65.835L70.3008 66.3857L70.4883 66.4209L70.6641 66.5146L71.0986 66.7324L72.4531 65.5508L73.5781 63.6641L74.0938 61.6367L74.0703 59.2109V59.1641L74.1055 56.75L73.3789 54.5938L72.3008 52.4023L70.9531 50.5508L69.1133 48.9336V48.9219L67.2383 47.4688L65.1289 46.5312L62.8086 45.8164L60.5117 45.6641L58.1562 46.0039ZM56.6943 30.3945L54.6084 31.3203L52.6396 32.6328L50.999 34.2617L49.6865 36.3711L49.6748 36.3594L48.4443 38.3867L47.9873 40.543L48.1631 42.8164L48.7373 45.1602L49.2402 46.4316L49.5781 46.1445L49.707 46.0273L49.8477 45.9453L52.1797 44.7266L52.25 44.6914L52.3203 44.668L54.7578 43.707L54.875 43.6602L54.9922 43.6367L57.5352 43.0859L57.6289 43.0625L60.2305 42.6758L60.3945 42.6523L60.5586 42.6641L63.207 42.8516L63.3711 42.8633L63.5352 42.9102L66.0664 43.6836L66.1602 43.707L66.2539 43.7422L68.6562 44.832L68.8203 44.9023L68.9609 45.0078L71.0352 46.625L71.0703 46.6484L71.0996 46.6777L71.6475 45.5352L71.8701 43.2031L71.8936 43.0859L72.292 40.7305L71.8701 38.4688L71.0498 36.2773L69.7725 34.3555L68.1318 32.7031L66.0576 31.6719L63.7959 30.9219L61.3936 30.3125L59.0264 30.1836L56.6943 30.3945Z" fill="black"/>
</svg>
