<svg width="120" height="120" viewBox="0 0 120 120" fill="none" xmlns="http://www.w3.org/2000/svg">
<path d="M55.3062 28.1L53.8062 28.0925L53.806 28.1401L53.8087 28.1876L55.3062 28.1ZM55.4545 30.637L56.9458 30.7986L56.9593 30.6742L56.952 30.5494L55.4545 30.637ZM55.1686 33.276L53.6773 33.1144L53.6615 33.2598L53.6742 33.4056L55.1686 33.276ZM55.3977 35.9187L56.8972 35.8803L56.896 35.8347L56.8921 35.7892L55.3977 35.9187ZM55.4654 38.5615L56.9586 38.7041L56.9672 38.6138L56.9649 38.5231L55.4654 38.5615ZM55.2136 41.199L53.7203 41.0564L53.7152 41.1101L53.714 41.164L55.2136 41.199ZM55.1518 43.8406L53.6522 43.8055L53.6509 43.8605L53.6537 43.9155L55.1518 43.8406ZM55.2839 46.482L56.7819 46.5593L56.7858 46.4832L56.782 46.4071L55.2839 46.482ZM55.1477 49.1214L56.6325 49.3345L56.6422 49.2669L56.6457 49.1987L55.1477 49.1214ZM54.7695 51.7571L55.9155 52.7249L56.1932 52.3961L56.2543 51.9701L54.7695 51.7571ZM53.5471 53.2045L53.607 54.7033L54.267 54.6769L54.6931 54.1723L53.5471 53.2045ZM51.2093 53.2979L51.1494 51.7991L49.9464 51.8472L49.733 53.0321L51.2093 53.2979ZM50.7404 55.9017L51.8719 56.8865L52.1433 56.5745L52.2166 56.1676L50.7404 55.9017ZM49.2103 57.6597L49.2528 59.1591L49.9101 59.1405L50.3418 58.6445L49.2103 57.6597ZM46.577 57.7344L46.1257 59.1649L46.3668 59.2409L46.6195 59.2338L46.577 57.7344ZM44.2554 57.0019L42.7922 57.332L42.9819 58.1731L43.8041 58.4325L44.2554 57.0019ZM43.6679 54.3972L45.1311 54.0671L45.087 53.8716L44.9931 53.6946L43.6679 54.3972ZM42.7433 52.6533L44.0685 51.9506L43.5229 50.9215L42.3907 51.1953L42.7433 52.6533ZM40.138 53.2833L40.0923 54.7826L40.2942 54.7887L40.4906 54.7412L40.138 53.2833ZM37.4875 53.2024L37.5333 51.7031L36.4214 51.6692L36.0661 52.7233L37.4875 53.2024ZM36.8101 55.2122L35.3887 54.7331L35.3653 54.8022L35.3488 54.8734L36.8101 55.2122ZM36.208 57.8088L34.7467 57.47L34.6912 57.7094L34.715 57.9541L36.208 57.8088ZM36.4681 60.4823L37.9535 60.6909L37.9783 60.5145L37.961 60.3371L36.4681 60.4823ZM36.1 63.1036L34.6145 62.895L34.6115 62.9169L34.609 62.939L36.1 63.1036ZM35.8101 65.729L34.3192 65.5644L34.3161 65.5918L34.3141 65.6193L35.8101 65.729ZM35.617 68.3634L37.0824 68.6835L37.1052 68.5793L37.113 68.473L35.617 68.3634ZM35.0487 70.9651L33.5832 70.645L33.5492 70.8011L33.5487 70.9609L35.0487 70.9651ZM35.0412 73.6145L36.5351 73.75L36.541 73.6845L36.5412 73.6187L35.0412 73.6145ZM34.8028 76.2432L36.2667 76.5705L36.2879 76.4756L36.2967 76.3786L34.8028 76.2432ZM34.2226 78.8375L32.7588 78.5102L32.6989 78.7779L32.7376 79.0494L34.2226 78.8375ZM34.6018 81.4946L36.0966 81.6185L36.1106 81.45L36.0867 81.2827L34.6018 81.4946ZM34.3826 84.1367L35.4772 85.1623L35.8343 84.7812L35.8775 84.2607L34.3826 84.1367ZM32.9134 85.7048L33.0492 87.1987L33.6177 87.147L34.008 86.7304L32.9134 85.7048ZM30.2769 85.9446L30.2898 87.4445L30.3514 87.444L30.4127 87.4384L30.2769 85.9446ZM27.6348 85.9672L27.4296 87.4531L27.5381 87.4681L27.6476 87.4671L27.6348 85.9672ZM24.9945 85.6027L25.1996 84.1168L24.9667 84.0847L24.7352 84.1253L24.9945 85.6027ZM22.3524 86.0664L22.2862 87.5649L22.4501 87.5721L22.6116 87.5438L22.3524 86.0664ZM19.6287 85.9462L19.6948 84.4476L18.352 84.3884L18.1463 85.7166L19.6287 85.9462ZM19.2245 88.5559L17.7421 88.3263L17.7277 88.4196L17.7251 88.514L19.2245 88.5559ZM19.1498 91.2254L20.6248 91.4982L20.646 91.3837L20.6492 91.2673L19.1498 91.2254ZM18.6697 93.8214L20.0914 94.2996L20.1253 94.1988L20.1447 94.0942L18.6697 93.8214ZM17.8192 96.3503L16.3975 95.8721L16.3492 96.0157L16.3306 96.1661L17.8192 96.3503ZM17.4946 98.9744L18.9724 99.2317L18.9787 99.1953L18.9833 99.1586L17.4946 98.9744ZM17.1474 100.969L16.8798 102.444L18.3661 102.714L18.6252 101.226L17.1474 100.969ZM17.128 100.965L17.1338 99.465L16.4969 99.4626L16.0528 99.9191L17.128 100.965ZM17.0583 101.037L17.3938 102.499L17.825 102.4L18.1335 102.083L17.0583 101.037ZM14.5567 101.611L14.6743 103.106L14.7845 103.098L14.8922 103.073L14.5567 101.611ZM11.8813 101.821L11.7637 100.326L10.7162 100.408L10.4357 101.421L11.8813 101.821ZM11.1762 104.366L12.6097 104.808L12.616 104.787L12.6217 104.767L11.1762 104.366ZM10.3987 106.889L8.96523 106.447L8.94271 106.52L8.92774 106.595L10.3987 106.889ZM9.87929 109.491L11.2125 110.178L11.309 109.991L11.3503 109.784L9.87929 109.491ZM8.64943 111.876L7.31624 111.188L7.23758 111.341L7.19541 111.507L8.64943 111.876ZM7.99999 114.438L6.54598 114.069L6.45119 114.443L6.54856 114.816L7.99999 114.438ZM17.228 100.965L17.3583 99.4711L17.2962 99.4657L17.2338 99.4654L17.228 100.965ZM19.7698 101.187L19.6395 102.681L19.7027 102.687L19.7662 102.687L19.7698 101.187ZM22.4088 101.194L22.4051 102.694L22.5413 102.694L22.6752 102.67L22.4088 101.194ZM25.0497 100.717L25.2647 99.2324L25.0233 99.1975L24.7833 99.2408L25.0497 100.717ZM27.6887 101.099L27.4737 102.584L27.6445 102.608L27.8164 102.594L27.6887 101.099ZM30.33 100.873L30.4151 99.3759L30.3086 99.3698L30.2023 99.3789L30.33 100.873ZM32.9683 101.023L32.8833 102.521L32.8936 102.521L32.9039 102.522L32.9683 101.023ZM35.6074 101.137L35.543 102.635L35.5546 102.636L35.5661 102.636L35.6074 101.137ZM38.2471 101.209L38.2058 102.709L38.2284 102.709L38.251 102.709L38.2471 101.209ZM40.8871 101.203L40.891 102.703L40.9679 102.702L41.0444 102.694L40.8871 101.203ZM43.5281 100.924L43.7101 99.435L43.5406 99.4143L43.3708 99.4322L43.5281 100.924ZM46.1672 101.246L45.9853 102.735L46.0776 102.747L46.1706 102.746L46.1672 101.246ZM48.8071 101.241L48.8104 102.741L48.8183 102.741L48.8263 102.74L48.8071 101.241ZM51.4468 101.207L51.4877 99.7074L51.4577 99.7066L51.4276 99.7069L51.4468 101.207ZM54.0875 101.279L54.0465 102.778L54.122 102.78L54.1972 102.775L54.0875 101.279ZM56.7274 101.085L56.6205 99.589L56.6177 99.5892L56.7274 101.085ZM59.3637 100.897L59.4933 99.4024L59.3751 99.3922L59.2568 99.4006L59.3637 100.897ZM62.0068 101.126L61.8773 102.62L61.9362 102.626L61.9953 102.626L62.0068 101.126ZM64.6502 101.146L64.6387 102.646L64.6518 102.646L64.6649 102.646L64.6502 101.146ZM67.2828 101.121L67.2974 102.621L67.4077 102.619L67.5166 102.602L67.2828 101.121ZM69.9273 100.703L69.9673 99.2038L69.8296 99.2001L69.6935 99.2216L69.9273 100.703ZM72.5529 100.773L72.5128 102.273L72.8261 102.281L73.1166 102.163L72.5529 100.773ZM74.862 99.837L75.4257 101.227L75.6628 101.131L75.8546 100.962L74.862 99.837ZM76.8412 98.09L75.9335 96.8958L75.8898 96.9291L75.8486 96.9654L76.8412 98.09ZM78.9488 96.488L79.8565 97.6821L80.0137 97.5626L80.1346 97.4065L78.9488 96.488ZM80.2994 94.7444L81.4229 93.7505L80.2228 92.3938L79.1136 93.8258L80.2994 94.7444ZM80.4733 94.9409L79.3498 95.9348L79.4328 96.0286L79.5301 96.1073L80.4733 94.9409ZM112.728 115.461L111.27 115.814L111.276 115.838L111.283 115.861L112.728 115.461ZM112.131 112.993L113.589 112.64L113.575 112.585L113.558 112.531L112.131 112.993ZM111.317 110.479L109.843 110.759L109.86 110.851L109.889 110.941L111.317 110.479ZM110.822 107.878L112.296 107.598L112.29 107.568L112.284 107.539L110.822 107.878ZM110.222 105.293L111.684 104.954L111.632 104.733L111.518 104.538L110.222 105.293ZM108.879 102.988L110.175 102.233L110.142 102.176L110.103 102.121L108.879 102.988ZM107.409 100.912L108.633 100.045L108.319 99.6024L107.795 99.4626L107.409 100.912ZM104.825 100.223L105.211 98.7732L105.037 98.7266L104.856 98.7229L104.825 100.223ZM102.167 100.168L102.198 98.6682L102.139 98.667L102.08 98.6704L102.167 100.168ZM99.5251 100.321L99.475 101.821L99.5436 101.823L99.6121 101.819L99.5251 100.321ZM97.2506 100.245L97.3007 98.7463L95.7017 98.6928L95.7514 100.292L97.2506 100.245ZM97.2554 100.399L97.3644 101.895L98.1667 101.836L98.5619 101.135L97.2554 100.399ZM97.1556 100.406L97.0467 98.9098L97.0085 98.9125L96.9706 98.9172L97.1556 100.406ZM94.6308 100.72L94.7587 102.214L94.7873 102.212L94.8159 102.208L94.6308 100.72ZM92.0031 100.944L91.9005 102.441L92.0158 102.449L92.131 102.439L92.0031 100.944ZM89.3347 100.761L89.4373 99.265L88.9016 99.2283L88.4643 99.5399L89.3347 100.761ZM89 101L89.2378 102.481L89.5845 102.425L89.8704 102.222L89 101ZM97.3045 100.311L96.2117 99.2839L96.0873 99.4163L95.998 99.5745L97.3045 100.311ZM99.0508 98.4542L100.144 99.4817L100.26 99.3574L100.346 99.2101L99.0508 98.4542ZM100.387 96.1639L101.683 96.9199L101.695 96.8985L101.707 96.8766L100.387 96.1639ZM101.63 93.8626L100.349 93.0825L100.328 93.1157L100.31 93.1499L101.63 93.8626ZM103.027 91.5681L104.308 92.3482L104.466 92.0889L104.511 91.7886L103.027 91.5681ZM103.423 88.9041L104.906 89.1245L104.937 88.9166L104.91 88.7082L103.423 88.9041ZM103.073 86.2461L104.56 86.0502L104.534 85.8515L104.456 85.6667L103.073 86.2461ZM102.049 83.8025L103.433 83.2231L103.419 83.1898L103.403 83.1572L102.049 83.8025ZM100.915 81.4229L99.4784 80.9917L99.3121 81.5459L99.561 82.0682L100.915 81.4229ZM101.547 79.3189L101.319 77.8362L100.382 77.9798L100.11 78.8877L101.547 79.3189ZM104.173 78.9164L104.4 80.3991L104.521 80.3807L104.636 80.3431L104.173 78.9164ZM106.704 78.0947L106.637 76.5962L106.434 76.6052L106.24 76.668L106.704 78.0947ZM109.365 77.9759L109.432 79.4744L109.496 79.4715L109.56 79.4631L109.365 77.9759ZM111.946 77.6366L112.142 79.1238L112.149 79.1228L111.946 77.6366ZM114.567 77.279L114.77 78.7653L115.805 78.6241L116.031 77.6047L114.567 77.279ZM115.005 75.3119L116.469 75.6375L116.508 75.4636L116.504 75.2854L115.005 75.3119ZM114.957 72.6315L116.457 72.605L116.454 72.4463L116.418 72.2916L114.957 72.6315ZM114.358 70.0556L115.819 69.7157L115.805 69.6552L115.786 69.5959L114.358 70.0556ZM113.545 67.5292L114.973 67.0696L114.721 66.2887L113.928 66.079L113.545 67.5292ZM111.377 66.9559L111.76 65.5057L111.498 65.4365L111.229 65.4632L111.377 66.9559ZM108.75 67.2165L108.602 65.7239L107.472 65.8359L107.273 66.9535L108.75 67.2165ZM108.373 69.3286L106.897 69.0655L106.859 69.2759L106.882 69.4884L108.373 69.3286ZM108.656 71.9641L107.164 72.1239L107.18 72.2659L107.221 72.4024L108.656 71.9641ZM109.432 74.5046L110.919 74.3037L110.902 74.1828L110.867 74.0662L109.432 74.5046ZM109.752 76.8731L108.266 77.0739L108.465 78.5468L109.939 78.3614L109.752 76.8731ZM88.9185 100.942L89.7874 99.7193L89.7044 99.6604L89.6141 99.6131L88.9185 100.942ZM86.678 99.7692L85.908 101.057L85.9446 101.078L85.9823 101.098L86.678 99.7692ZM84.4012 98.4073L83.3624 99.4893L83.4851 99.6072L83.6311 99.6945L84.4012 98.4073ZM82.485 96.5677L83.5238 95.4856L83.4777 95.4415L83.4282 95.4014L82.485 96.5677ZM74.2406 100.284L74.5061 98.8072L74.4251 98.7926L74.343 98.787L74.2406 100.284ZM76.7145 100.729L76.449 102.205L76.5244 102.218L76.6008 102.224L76.7145 100.729ZM79.341 100.928L79.5125 99.4381L79.4837 99.4348L79.4548 99.4326L79.341 100.928ZM81.9744 101.231L81.803 102.721L81.902 102.733L82.0015 102.731L81.9744 101.231ZM84.6186 101.183L84.6724 99.6844L84.6319 99.683L84.5915 99.6837L84.6186 101.183ZM87.2661 101.278L87.2123 102.777L87.359 102.783L87.5039 102.759L87.2661 101.278ZM80.4805 94.8412L81.9766 94.9486L81.9939 94.7073L81.9346 94.4729L80.4805 94.8412ZM79.8566 92.3783L78.3595 92.4715L78.3682 92.6111L78.4025 92.7466L79.8566 92.3783ZM79.6931 89.7547L78.1986 89.627L78.1891 89.7374L78.196 89.848L79.6931 89.7547ZM79.9167 87.1377L78.472 86.7342L78.4341 86.8698L78.4221 87.01L79.9167 87.1377ZM80.626 84.5976L79.3618 83.7902L79.2414 83.9787L79.1813 84.1941L80.626 84.5976ZM82.0423 82.3799L80.9402 81.3623L80.8498 81.4602L80.7781 81.5725L82.0423 82.3799ZM83.8125 80.4628L83.0156 79.192L82.8462 79.2982L82.7104 79.4452L83.8125 80.4628ZM86.0135 79.0827L85.2997 77.7635L85.2574 77.7864L85.2167 77.8119L86.0135 79.0827ZM88.3214 77.8339L88.2519 76.3355L87.9092 76.3514L87.6075 76.5146L88.3214 77.8339ZM90.9431 77.7122L91.0191 76.2141L90.9463 76.2104L90.8736 76.2138L90.9431 77.7122ZM93.5366 77.8437L93.9405 76.3991L93.7795 76.3541L93.6126 76.3456L93.5366 77.8437ZM96.0472 78.5456L96.5414 77.1294L96.4967 77.1138L96.4511 77.101L96.0472 78.5456ZM98.5287 79.4114L99.1071 78.0274L99.0655 78.01L99.0229 77.9952L98.5287 79.4114ZM100.275 80.1411L101.546 80.9379L102.485 79.4391L100.853 78.7571L100.275 80.1411ZM55.749 29.7258L55.6757 31.224L55.7685 31.2285L55.8611 31.2216L55.749 29.7258ZM58.2887 29.5354L58.4552 28.0447L58.3161 28.0292L58.1766 28.0396L58.2887 29.5354ZM60.9221 29.8294L60.7556 31.3202L60.8291 31.3284L60.903 31.3293L60.9221 29.8294ZM63.5668 29.863L63.856 28.3912L63.7222 28.3649L63.5858 28.3631L63.5668 29.863ZM66.1724 30.375L65.8832 31.8469L66.0592 31.8815L66.2384 31.8736L66.1724 30.375ZM68.8372 30.2578L70.2754 29.8319L69.9425 28.7077L68.7712 28.7592L68.8372 30.2578ZM69.4876 32.4542L70.9871 32.4928L70.9932 32.2557L70.9258 32.0282L69.4876 32.4542ZM69.4195 35.0942L67.92 35.0555L67.9181 35.1294L67.9235 35.2031L69.4195 35.0942ZM69.6117 37.7342L70.095 39.1542L71.1919 38.7808L71.1077 37.6252L69.6117 37.7342ZM67.1556 38.5701L67.1213 40.0697L67.3872 40.0758L67.6389 39.9901L67.1556 38.5701ZM64.5036 38.5095L64.5379 37.0099L64.4031 37.0068L64.27 37.0278L64.5036 38.5095ZM61.8803 38.923L61.8976 40.4229L62.0064 40.4217L62.1138 40.4047L61.8803 38.923ZM59.2391 38.9536L59.1111 40.4481L59.1837 40.4543L59.2565 40.4535L59.2391 38.9536ZM56.59 38.7266L56.718 37.2321L56.4295 37.2074L56.1524 37.2919L56.59 38.7266ZM55.7377 53.0345L55.0427 54.3637L55.5281 54.6175L56.0629 54.4988L55.7377 53.0345ZM58.3126 52.4626L59.6402 51.7646L59.1067 50.7498L57.9874 50.9983L58.3126 52.4626ZM59.5801 54.8736L60.9883 54.3568L60.9541 54.2635L60.9078 54.1756L59.5801 54.8736ZM60.4897 57.3522L59.0816 57.869L59.4496 58.872L60.5179 58.852L60.4897 57.3522ZM62.9299 57.3064L62.9786 55.8072L62.9402 55.806L62.9017 55.8067L62.9299 57.3064ZM65.5699 57.3923L65.5211 58.8915L66.7682 58.9321L67.0351 57.7132L65.5699 57.3923ZM66.0792 55.0664L64.6333 54.6674L64.6226 54.7062L64.614 54.7455L66.0792 55.0664ZM66.7817 52.5211L66.6208 51.0298L65.607 51.1391L65.3357 52.1221L66.7817 52.5211ZM69.5852 52.2188L69.5713 50.7188L69.4976 50.7195L69.4243 50.7274L69.5852 52.2188ZM72.2598 52.194L73.4659 51.3022L73.011 50.6869L72.2459 50.694L72.2598 52.194ZM73.7493 54.2084L75.2427 54.0681L75.2037 53.6524L74.9554 53.3166L73.7493 54.2084ZM73.9966 56.8412L75.4928 56.7344L75.4916 56.7176L75.49 56.7009L73.9966 56.8412ZM74.1846 59.4772L72.6884 59.5839L72.6948 59.6736L72.7119 59.7619L74.1846 59.4772ZM74.6872 62.0768L76.175 61.8859L76.1689 61.8388L76.1599 61.7921L74.6872 62.0768ZM75.0234 64.6964L76.5203 64.6009L76.5173 64.553L76.5112 64.5055L75.0234 64.6964ZM75.1919 67.336L76.6909 67.2824L76.6902 67.2614L76.6888 67.2404L75.1919 67.336ZM75.2865 69.981L73.7875 70.0346L73.7889 70.0751L73.7925 70.1154L75.2865 69.981ZM75.5228 72.6078L74.0288 72.7422L74.0361 72.8224L74.0518 72.9014L75.5228 72.6078ZM76.0435 75.2173L77.5421 75.2828L77.55 75.1016L77.5145 74.9238L76.0435 75.2173ZM36.915 63.45V64.95H36.9509L36.9868 64.9483L36.915 63.45ZM39.455 63.3283L39.5283 61.8301L39.4557 61.8265L39.3832 61.83L39.455 63.3283ZM42.095 63.4574L42.2165 61.9624L42.1924 61.9604L42.1683 61.9592L42.095 63.4574ZM44.735 63.672L44.6134 65.1671L44.7045 65.1745L44.7958 65.1708L44.735 63.672ZM47.375 63.565L47.4358 65.0637L47.45 65.0632L47.4641 65.0623L47.375 63.565ZM50.015 63.4078L50.1041 64.9052L50.1149 64.9045L50.015 63.4078ZM52.655 63.2316L52.9038 61.7524L52.7305 61.7233L52.5551 61.735L52.655 63.2316ZM55.295 63.6758L55.0461 65.155L55.271 65.1928L55.4969 65.1621L55.295 63.6758ZM57.935 63.3172L58.0147 61.8193L57.8733 61.8118L57.7331 61.8308L57.935 63.3172ZM60.575 63.4576L60.4953 64.9555L60.5782 64.9599L60.6611 64.9551L60.575 63.4576ZM63.215 63.3059L63.3209 61.8096L63.2249 61.8028L63.1289 61.8083L63.215 63.3059ZM65.855 63.4927L65.7491 64.9889L65.7975 64.9923L65.8459 64.9926L65.855 63.4927ZM68.495 63.5086L68.4859 65.0086L68.5201 65.0088L68.5543 65.0075L68.495 63.5086ZM71.135 63.4042L71.1943 64.9031L71.2311 64.9016L71.2679 64.8983L71.135 63.4042ZM73.4559 63.1978H74.9559V61.5584L73.323 61.7037L73.4559 63.1978ZM78.5211 76.8728L77.9111 75.5024L77.214 75.8127L77.0543 76.5588L78.5211 76.8728ZM78.5002 76.9706L78.5128 78.4705L79.7152 78.4604L79.9669 77.2846L78.5002 76.9706ZM75.8739 76.9927L75.8612 75.4927L75.3245 75.4973L74.9124 75.8413L75.8739 76.9927ZM73.8985 78.6422L72.9371 77.4908L72.3727 77.9621L72.3995 78.6969L73.8985 78.6422ZM73.988 81.0931L72.489 81.1478L72.509 81.6963L72.8783 82.1023L73.988 81.0931ZM75.7271 83.0053L74.6174 84.0146L75.0893 84.5334L75.79 84.504L75.7271 83.0053ZM78.3526 82.8951L78.4155 84.3938L79.2099 84.3604L79.6282 83.6843L78.3526 82.8951ZM79.6107 80.8616L80.8863 81.6508L81.1889 81.1617L81.0869 80.5956L79.6107 80.8616ZM79.1628 78.3754L80.6391 78.1095L80.609 77.9424L80.5423 77.7863L79.1628 78.3754ZM78.6124 76.8321L79.2224 78.2025L79.6704 78.0031L79.9141 77.5775L78.6124 76.8321ZM79.8343 74.6984L79.238 73.322L78.7804 73.5202L78.5326 73.953L79.8343 74.6984ZM82.102 73.716L81.7307 72.2627L81.6151 72.2922L81.5057 72.3396L82.102 73.716ZM84.6679 73.0604L84.364 71.5915L84.3301 71.5985L84.2966 71.6071L84.6679 73.0604ZM87.2546 72.5251L86.9579 71.0547L86.9506 71.0562L87.2546 72.5251ZM89.8435 72.0027L89.6297 70.5181L89.5881 70.5241L89.5468 70.5324L89.8435 72.0027ZM92.4576 71.6264L92.6713 73.1111L92.722 73.1038L92.7721 73.093L92.4576 71.6264ZM95.041 71.0722L94.7624 69.5983L94.7444 69.6017L94.7264 69.6056L95.041 71.0722ZM97.6354 70.5818L97.4579 69.0924L97.4071 69.0984L97.3568 69.1079L97.6354 70.5818ZM100.26 70.269L100.438 71.7585L100.45 71.7569L100.26 70.269ZM102.882 69.9342L103.072 71.4221L103.11 71.4172L103.147 71.4104L102.882 69.9342ZM105.48 69.4663L105.319 67.975L105.266 67.9807L105.214 67.99L105.48 69.4663ZM108.11 69.1821L108.271 70.6734L108.715 70.6254L109.061 70.3422L108.11 69.1821ZM19.9348 85.7439L21.097 86.6923L21.4248 86.2906L21.4346 85.7722L19.9348 85.7439ZM19.9832 83.1816L21.4829 83.2099L21.4848 83.1119L21.4738 83.0145L19.9832 83.1816ZM19.6871 80.5403L18.8255 79.3124L18.0974 79.8234L18.1965 80.7074L19.6871 80.5403ZM21.265 79.433L21.035 77.9507L20.6895 78.0044L20.4034 78.2052L21.265 79.433ZM23.8948 79.0249L23.9244 77.5252L23.7938 77.5226L23.6647 77.5426L23.8948 79.0249ZM26.5378 79.0771L26.5082 80.5768L26.5179 80.577L26.5277 80.5771L26.5378 79.0771ZM29.1799 79.095L29.1698 80.595L29.1988 80.5952L29.2278 80.5942L29.1799 79.095ZM31.8206 79.0107L31.8684 80.5099L31.9105 80.5086L31.9524 80.5049L31.8206 79.0107ZM34.0755 78.8117H35.5755V77.1735L33.9436 77.3175L34.0755 78.8117ZM27.5145 79.382H26.0145V79.4235L26.0168 79.4649L27.5145 79.382ZM27.6538 81.8978L29.141 82.0932L29.1592 81.9545L29.1515 81.8148L27.6538 81.8978ZM27.3101 84.5135L25.8229 84.3181L25.7878 84.585L25.8477 84.8476L27.3101 84.5135ZM27.6089 85.8213V87.3213H29.4902L29.0712 85.4873L27.6089 85.8213ZM67.0171 100.547L68.1233 101.56L68.4962 101.153L68.5161 100.601L67.0171 100.547ZM67.1097 97.9837L65.8107 97.2336L65.6241 97.5568L65.6106 97.9296L67.1097 97.9837ZM68.3363 95.8595L67.7811 94.466L67.2976 94.6587L67.0374 95.1094L68.3363 95.8595ZM70.8119 94.8731L71.3671 96.2665L71.4895 96.2177L71.6016 96.1484L70.8119 94.8731ZM73.0581 93.4822L72.3132 92.1802L72.2906 92.1932L72.2684 92.2069L73.0581 93.4822ZM75.3496 92.1712L76.0945 93.4731L76.1127 93.4627L76.1306 93.4518L75.3496 92.1712ZM77.6047 90.7959L78.3856 92.0766L78.4422 92.0421L78.4956 92.0027L77.6047 90.7959ZM79.5003 89.3964L80.8051 88.6565L79.9705 87.1848L78.6093 88.1897L79.5003 89.3964ZM54.6947 76.2141L56.1666 76.503L53.4086 75.4422L54.6947 76.2141ZM54.6755 76.3122L53.2036 76.0233L52.9595 77.2667L54.1447 77.7151L54.6755 76.3122ZM56.9368 77.1677L58.4321 77.0496L58.3573 76.1013L57.4675 75.7647L56.9368 77.1677ZM57.1461 79.8194L58.5935 80.2133L58.662 79.9615L58.6414 79.7014L57.1461 79.8194ZM56.4777 82.2758L57.2172 83.5809L57.761 83.2727L57.9251 82.6696L56.4777 82.2758ZM54.4573 83.4207L53.1641 84.1807L53.9122 85.4536L55.1967 84.7257L54.4573 83.4207ZM53.1563 81.2071L51.6617 81.08L51.6212 81.5556L51.8631 81.9671L53.1563 81.2071ZM53.3774 78.6077L52.0608 77.8889L51.9095 78.166L51.8828 78.4806L53.3774 78.6077ZM54.5783 76.4081L53.2921 75.6362L53.2764 75.6624L53.2617 75.6893L54.5783 76.4081ZM89.5865 85.831L90.8962 85.0999L88.2469 86.5059L89.5865 85.831ZM89.6315 85.9203L88.2919 86.5952L88.8425 87.688L90.0235 87.3681L89.6315 85.9203ZM92.1822 85.2296L93.0285 83.9911L92.4576 83.601L91.7901 83.7817L92.1822 85.2296ZM94.4324 86.7673L95.8612 86.3106L95.7043 85.8197L95.2787 85.5288L94.4324 86.7673ZM95.2533 89.3357L96.6177 89.959L96.8587 89.4315L96.6821 88.8791L95.2533 89.3357ZM94.1627 91.7234L94.8877 93.0366L95.3213 92.7972L95.5271 92.3466L94.1627 91.7234ZM91.8068 93.0241L91.3482 94.4522L91.9648 94.6503L92.5318 94.3372L91.8068 93.0241ZM89.1784 92.1799L87.8131 92.8011L88.0879 93.4052L88.7197 93.6081L89.1784 92.1799ZM88.0714 89.7466L86.5724 89.6933L86.5598 90.0462L86.7061 90.3678L88.0714 89.7466ZM88.1626 87.1836L87.2374 86.003L86.6884 86.4332L86.6636 87.1303L88.1626 87.1836ZM89.6784 85.9957L90.6037 87.1763L91.6135 86.3849L90.9882 85.2646L89.6784 85.9957ZM55.3067 28L53.8067 27.9925L53.8062 28.0925L55.3062 28.1L56.8062 28.1075L56.8067 28.0075L55.3067 28ZM55.3062 28.1L53.8087 28.1876L53.9571 30.7245L55.4545 30.637L56.952 30.5494L56.8036 28.0124L55.3062 28.1ZM55.4545 30.637L53.9633 30.4754L53.6773 33.1144L55.1686 33.276L56.6598 33.4376L56.9458 30.7986L55.4545 30.637ZM55.1686 33.276L53.6742 33.4056L53.9033 36.0483L55.3977 35.9187L56.8921 35.7892L56.663 33.1465L55.1686 33.276ZM55.3977 35.9187L53.8982 35.9572L53.9659 38.5999L55.4654 38.5615L56.9649 38.5231L56.8972 35.8803L55.3977 35.9187ZM55.4654 38.5615L53.9722 38.419L53.7203 41.0564L55.2136 41.199L56.7068 41.3416L56.9586 38.7041L55.4654 38.5615ZM55.2136 41.199L53.714 41.164L53.6522 43.8055L55.1518 43.8406L56.6514 43.8756L56.7131 41.2341L55.2136 41.199ZM55.1518 43.8406L53.6537 43.9155L53.7858 46.5569L55.2839 46.482L56.782 46.4071L56.6499 43.7657L55.1518 43.8406ZM55.2839 46.482L53.7859 46.4047L53.6497 49.0441L55.1477 49.1214L56.6457 49.1987L56.7819 46.5593L55.2839 46.482ZM55.1477 49.1214L53.6629 48.9084L53.2847 51.5441L54.7695 51.7571L56.2543 51.9701L56.6325 49.3345L55.1477 49.1214ZM54.7695 51.7571L53.6235 50.7893L52.4011 52.2367L53.5471 53.2045L54.6931 54.1723L55.9155 52.7249L54.7695 51.7571ZM53.5471 53.2045L53.4872 51.7057L51.1494 51.7991L51.2093 53.2979L51.2692 54.7967L53.607 54.7033L53.5471 53.2045ZM51.2093 53.2979L49.733 53.0321L49.2641 55.6358L50.7404 55.9017L52.2166 56.1676L52.6855 53.5638L51.2093 53.2979ZM50.7404 55.9017L49.6089 54.9169L48.0788 56.675L49.2103 57.6597L50.3418 58.6445L51.8719 56.8865L50.7404 55.9017ZM49.2103 57.6597L49.1678 56.1603L46.5345 56.235L46.577 57.7344L46.6195 59.2338L49.2528 59.1591L49.2103 57.6597ZM46.577 57.7344L47.0283 56.3039L44.7067 55.5714L44.2554 57.0019L43.8041 58.4325L46.1257 59.1649L46.577 57.7344ZM44.2554 57.0019L45.7186 56.6719L45.1311 54.0671L43.6679 54.3972L42.2046 54.7272L42.7922 57.332L44.2554 57.0019ZM43.6679 54.3972L44.9931 53.6946L44.0685 51.9506L42.7433 52.6533L41.418 53.3559L42.3426 55.0998L43.6679 54.3972ZM42.7433 52.6533L42.3907 51.1953L39.7854 51.8253L40.138 53.2833L40.4906 54.7412L43.0958 54.1112L42.7433 52.6533ZM40.138 53.2833L40.1838 51.784L37.5333 51.7031L37.4875 53.2024L37.4418 54.7017L40.0923 54.7826L40.138 53.2833ZM37.4875 53.2024L36.0661 52.7233L35.3887 54.7331L36.8101 55.2122L38.2315 55.6913L38.909 53.6815L37.4875 53.2024ZM36.8101 55.2122L35.3488 54.8734L34.7467 57.47L36.208 57.8088L37.6692 58.1476L38.2713 55.551L36.8101 55.2122ZM36.208 57.8088L34.715 57.9541L34.9751 60.6276L36.4681 60.4823L37.961 60.3371L37.7009 57.6636L36.208 57.8088ZM36.4681 60.4823L34.9826 60.2737L34.6145 62.895L36.1 63.1036L37.5854 63.3122L37.9535 60.6909L36.4681 60.4823ZM36.1 63.1036L34.609 62.939L34.3192 65.5644L35.8101 65.729L37.301 65.8936L37.5909 63.2682L36.1 63.1036ZM35.8101 65.729L34.3141 65.6193L34.121 68.2537L35.617 68.3634L37.113 68.473L37.3061 65.8387L35.8101 65.729ZM35.617 68.3634L34.1515 68.0433L33.5832 70.645L35.0487 70.9651L36.5141 71.2852L37.0824 68.6835L35.617 68.3634ZM35.0487 70.9651L33.5487 70.9609L33.5412 73.6103L35.0412 73.6145L36.5412 73.6187L36.5487 70.9694L35.0487 70.9651ZM35.0412 73.6145L33.5474 73.479L33.309 76.1077L34.8028 76.2432L36.2967 76.3786L36.5351 73.75L35.0412 73.6145ZM34.8028 76.2432L33.339 75.9158L32.7588 78.5102L34.2226 78.8375L35.6864 79.1649L36.2667 76.5705L34.8028 76.2432ZM34.2226 78.8375L32.7376 79.0494L33.1168 81.7065L34.6018 81.4946L36.0867 81.2827L35.7076 78.6256L34.2226 78.8375ZM34.6018 81.4946L33.1069 81.3706L32.8877 84.0127L34.3826 84.1367L35.8775 84.2607L36.0966 81.6185L34.6018 81.4946ZM34.3826 84.1367L33.288 83.1111L31.8188 84.6793L32.9134 85.7048L34.008 86.7304L35.4772 85.1623L34.3826 84.1367ZM32.9134 85.7048L32.7776 84.211L30.1411 84.4507L30.2769 85.9446L30.4127 87.4384L33.0492 87.1987L32.9134 85.7048ZM30.2769 85.9446L30.2641 84.4446L27.6219 84.4672L27.6348 85.9672L27.6476 87.4671L30.2898 87.4445L30.2769 85.9446ZM27.6348 85.9672L27.8398 84.4813L25.1996 84.1168L24.9945 85.6027L24.7894 87.0887L27.4296 87.4531L27.6348 85.9672ZM24.9945 85.6027L24.7352 84.1253L22.0931 84.589L22.3524 86.0664L22.6116 87.5438L25.2537 87.0802L24.9945 85.6027ZM22.3524 86.0664L22.4185 84.5678L19.6948 84.4476L19.6287 85.9462L19.5625 87.4447L22.2862 87.5649L22.3524 86.0664ZM19.6287 85.9462L18.1463 85.7166L17.7421 88.3263L19.2245 88.5559L20.7068 88.7855L21.111 86.1757L19.6287 85.9462ZM19.2245 88.5559L17.7251 88.514L17.6504 91.1835L19.1498 91.2254L20.6492 91.2673L20.7239 88.5978L19.2245 88.5559ZM19.1498 91.2254L17.6749 90.9526L17.1947 93.5486L18.6697 93.8214L20.1447 94.0942L20.6248 91.4982L19.1498 91.2254ZM18.6697 93.8214L17.2479 93.3433L16.3975 95.8721L17.8192 96.3503L19.241 96.8284L20.0914 94.2996L18.6697 93.8214ZM17.8192 96.3503L16.3306 96.1661L16.0059 98.7903L17.4946 98.9744L18.9833 99.1586L19.3079 96.5344L17.8192 96.3503ZM17.4946 98.9744L16.0168 98.7172L15.6696 100.711L17.1474 100.969L18.6252 101.226L18.9724 99.2317L17.4946 98.9744ZM17.1474 100.969L17.415 99.4926L17.3956 99.4891L17.128 100.965L16.8604 102.441L16.8798 102.444L17.1474 100.969ZM17.128 100.965L16.0528 99.9191L15.9831 99.9908L17.0583 101.037L18.1335 102.083L18.2032 102.011L17.128 100.965ZM17.0583 101.037L16.7228 99.5747L14.2212 100.149L14.5567 101.611L14.8922 103.073L17.3938 102.499L17.0583 101.037ZM14.5567 101.611L14.4391 100.115L11.7637 100.326L11.8813 101.821L11.9989 103.317L14.6743 103.106L14.5567 101.611ZM11.8813 101.821L10.4357 101.421L9.73065 103.966L11.1762 104.366L12.6217 104.767L13.3268 102.222L11.8813 101.821ZM11.1762 104.366L9.74272 103.924L8.96523 106.447L10.3987 106.889L11.8322 107.331L12.6097 104.808L11.1762 104.366ZM10.3987 106.889L8.92774 106.595L8.40833 109.197L9.87929 109.491L11.3503 109.784L11.8697 107.183L10.3987 106.889ZM9.87929 109.491L8.54611 108.803L7.31624 111.188L8.64943 111.876L9.98262 112.563L11.2125 110.178L9.87929 109.491ZM8.64943 111.876L7.19541 111.507L6.54598 114.069L7.99999 114.438L9.454 114.806L10.1034 112.244L8.64943 111.876ZM7.99999 114.438L6.54856 114.816L6.61205 115.06L8.06348 114.681L9.5149 114.302L9.45142 114.059L7.99999 114.438ZM17.128 100.965L17.1222 102.465L17.2222 102.465L17.228 100.965L17.2338 99.4654L17.1338 99.465L17.128 100.965ZM17.228 100.965L17.0976 102.46L19.6395 102.681L19.7698 101.187L19.9002 99.6928L17.3583 99.4711L17.228 100.965ZM19.7698 101.187L19.7662 102.687L22.4051 102.694L22.4088 101.194L22.4125 99.6936L19.7735 99.6871L19.7698 101.187ZM22.4088 101.194L22.6752 102.67L25.3162 102.193L25.0497 100.717L24.7833 99.2408L22.1424 99.7174L22.4088 101.194ZM25.0497 100.717L24.8347 102.201L27.4737 102.584L27.6887 101.099L27.9037 99.6146L25.2647 99.2324L25.0497 100.717ZM27.6887 101.099L27.8164 102.594L30.4578 102.368L30.33 100.873L30.2023 99.3789L27.561 99.6046L27.6887 101.099ZM30.33 100.873L30.245 102.371L32.8833 102.521L32.9683 101.023L33.0533 99.5257L30.4151 99.3759L30.33 100.873ZM32.9683 101.023L32.9039 102.522L35.543 102.635L35.6074 101.137L35.6718 99.6381L33.0327 99.5246L32.9683 101.023ZM35.6074 101.137L35.5661 102.636L38.2058 102.709L38.2471 101.209L38.2884 99.71L35.6487 99.6373L35.6074 101.137ZM38.2471 101.209L38.251 102.709L40.891 102.703L40.8871 101.203L40.8832 99.7025L38.2432 99.7094L38.2471 101.209ZM40.8871 101.203L41.0444 102.694L43.6855 102.416L43.5281 100.924L43.3708 99.4322L40.7297 99.7108L40.8871 101.203ZM43.5281 100.924L43.3462 102.413L45.9853 102.735L46.1672 101.246L46.3492 99.7575L43.7101 99.435L43.5281 100.924ZM46.1672 101.246L46.1706 102.746L48.8104 102.741L48.8071 101.241L48.8038 99.7406L46.1639 99.7464L46.1672 101.246ZM48.8071 101.241L48.8263 102.74L51.466 102.707L51.4468 101.207L51.4276 99.7069L48.7879 99.7407L48.8071 101.241ZM51.4468 101.207L51.4059 102.706L54.0465 102.778L54.0875 101.279L54.1284 99.7794L51.4877 99.7074L51.4468 101.207ZM54.0875 101.279L54.1972 102.775L56.8372 102.581L56.7274 101.085L56.6177 99.5892L53.9777 99.7829L54.0875 101.279ZM56.7274 101.085L56.8343 102.581L59.4706 102.393L59.3637 100.897L59.2568 99.4006L56.6205 99.589L56.7274 101.085ZM59.3637 100.897L59.2341 102.391L61.8773 102.62L62.0068 101.126L62.1364 99.6316L59.4933 99.4024L59.3637 100.897ZM62.0068 101.126L61.9953 102.626L64.6387 102.646L64.6502 101.146L64.6618 99.6464L62.0184 99.626L62.0068 101.126ZM64.6502 101.146L64.6649 102.646L67.2974 102.621L67.2828 101.121L67.2681 99.6207L64.6356 99.6464L64.6502 101.146ZM67.2828 101.121L67.5166 102.602L70.1611 102.185L69.9273 100.703L69.6935 99.2216L67.0489 99.6389L67.2828 101.121ZM69.9273 100.703L69.8872 102.203L72.5128 102.273L72.5529 100.773L72.5929 99.2739L69.9673 99.2038L69.9273 100.703ZM72.5529 100.773L73.1166 102.163L75.4257 101.227L74.862 99.837L74.2983 98.447L71.9892 99.3833L72.5529 100.773ZM74.862 99.837L75.8546 100.962L77.8339 99.2146L76.8412 98.09L75.8486 96.9654L73.8694 98.7125L74.862 99.837ZM76.8412 98.09L77.749 99.2841L79.8565 97.6821L78.9488 96.488L78.0411 95.2938L75.9335 96.8958L76.8412 98.09ZM78.9488 96.488L80.1346 97.4065L81.4853 95.6629L80.2994 94.7444L79.1136 93.8258L77.7629 95.5694L78.9488 96.488ZM80.2994 94.7444L79.1759 95.7382L79.3498 95.9348L80.4733 94.9409L81.5968 93.9471L81.4229 93.7505L80.2994 94.7444ZM112.755 115.557L114.2 115.156L114.174 115.06L112.728 115.461L111.283 115.861L111.309 115.958L112.755 115.557ZM112.728 115.461L114.186 115.108L113.589 112.64L112.131 112.993L110.673 113.346L111.27 115.814L112.728 115.461ZM112.131 112.993L113.558 112.531L112.744 110.017L111.317 110.479L109.889 110.941L110.704 113.455L112.131 112.993ZM111.317 110.479L112.79 110.199L112.296 107.598L110.822 107.878L109.349 108.158L109.843 110.759L111.317 110.479ZM110.822 107.878L112.284 107.539L111.684 104.954L110.222 105.293L108.761 105.632L109.361 108.217L110.822 107.878ZM110.222 105.293L111.518 104.538L110.175 102.233L108.879 102.988L107.583 103.744L108.926 106.048L110.222 105.293ZM108.879 102.988L110.103 102.121L108.633 100.045L107.409 100.912L106.184 101.779L107.655 103.855L108.879 102.988ZM107.409 100.912L107.795 99.4626L105.211 98.7732L104.825 100.223L104.438 101.672L107.022 102.361L107.409 100.912ZM104.825 100.223L104.856 98.7229L102.198 98.6682L102.167 100.168L102.136 101.668L104.794 101.722L104.825 100.223ZM102.167 100.168L102.08 98.6704L99.4381 98.824L99.5251 100.321L99.6121 101.819L102.254 101.665L102.167 100.168ZM99.5251 100.321L99.5752 98.8223L97.3007 98.7463L97.2506 100.245L97.2005 101.745L99.475 101.821L99.5251 100.321ZM97.2506 100.245L95.7514 100.292L95.7561 100.445L97.2554 100.399L98.7547 100.352L98.7499 100.199L97.2506 100.245ZM97.2554 100.399L97.1464 98.9025L97.0467 98.9098L97.1556 100.406L97.2646 101.902L97.3644 101.895L97.2554 100.399ZM97.1556 100.406L96.9706 98.9172L94.4458 99.2311L94.6308 100.72L94.8159 102.208L97.3407 101.894L97.1556 100.406ZM94.6308 100.72L94.503 99.2251L91.8753 99.4499L92.0031 100.944L92.131 102.439L94.7587 102.214L94.6308 100.72ZM92.0031 100.944L92.1057 99.448L89.4373 99.265L89.3347 100.761L89.2321 102.258L91.9005 102.441L92.0031 100.944ZM89.3347 100.761L88.4643 99.5399L88.1296 99.7784L89 101L89.8704 102.222L90.2052 101.983L89.3347 100.761ZM97.2554 100.399L98.5619 101.135L98.611 101.048L97.3045 100.311L95.998 99.5745L95.9489 99.6616L97.2554 100.399ZM97.3045 100.311L98.3973 101.339L100.144 99.4817L99.0508 98.4542L97.958 97.4267L96.2117 99.2839L97.3045 100.311ZM99.0508 98.4542L100.346 99.2101L101.683 96.9199L100.387 96.1639L99.0915 95.408L97.7552 97.6982L99.0508 98.4542ZM100.387 96.1639L101.707 96.8766L102.95 94.5753L101.63 93.8626L100.31 93.1499L99.0672 95.4512L100.387 96.1639ZM101.63 93.8626L102.911 94.6427L104.308 92.3482L103.027 91.5681L101.746 90.788L100.349 93.0825L101.63 93.8626ZM103.027 91.5681L104.511 91.7886L104.906 89.1245L103.423 88.9041L101.939 88.6836L101.543 91.3476L103.027 91.5681ZM103.423 88.9041L104.91 88.7082L104.56 86.0502L103.073 86.2461L101.585 86.442L101.936 89.1L103.423 88.9041ZM103.073 86.2461L104.456 85.6667L103.433 83.2231L102.049 83.8025L100.666 84.382L101.689 86.8256L103.073 86.2461ZM102.049 83.8025L103.403 83.1572L102.269 80.7775L100.915 81.4229L99.561 82.0682L100.695 84.4479L102.049 83.8025ZM100.915 81.4229L102.352 81.8541L102.983 79.7501L101.547 79.3189L100.11 78.8877L99.4784 80.9917L100.915 81.4229ZM101.547 79.3189L101.774 80.8016L104.4 80.3991L104.173 78.9164L103.946 77.4337L101.319 77.8362L101.547 79.3189ZM104.173 78.9164L104.636 80.3431L107.167 79.5214L106.704 78.0947L106.24 76.668L103.71 77.4898L104.173 78.9164ZM106.704 78.0947L106.771 79.5932L109.432 79.4744L109.365 77.9759L109.298 76.4774L106.637 76.5962L106.704 78.0947ZM109.365 77.9759L109.56 79.4631L112.142 79.1238L111.946 77.6366L111.751 76.1494L109.169 76.4887L109.365 77.9759ZM111.946 77.6366L112.149 79.1228L114.77 78.7653L114.567 77.279L114.364 75.7928L111.744 76.1504L111.946 77.6366ZM114.567 77.279L116.031 77.6047L116.469 75.6375L115.005 75.3119L113.54 74.9862L113.103 76.9534L114.567 77.279ZM115.005 75.3119L116.504 75.2854L116.457 72.605L114.957 72.6315L113.458 72.658L113.505 75.3384L115.005 75.3119ZM114.957 72.6315L116.418 72.2916L115.819 69.7157L114.358 70.0556L112.897 70.3954L113.496 72.9713L114.957 72.6315ZM114.358 70.0556L115.786 69.5959L114.973 67.0696L113.545 67.5292L112.117 67.9888L112.93 70.5152L114.358 70.0556ZM113.545 67.5292L113.928 66.079L111.76 65.5057L111.377 66.9559L110.993 68.4061L113.161 68.9794L113.545 67.5292ZM111.377 66.9559L111.229 65.4632L108.602 65.7239L108.75 67.2165L108.898 68.7092L111.525 68.4486L111.377 66.9559ZM108.75 67.2165L107.273 66.9535L106.897 69.0655L108.373 69.3286L109.85 69.5917L110.226 67.4796L108.75 67.2165ZM108.373 69.3286L106.882 69.4884L107.164 72.1239L108.656 71.9641L110.147 71.8042L109.865 69.1687L108.373 69.3286ZM108.656 71.9641L107.221 72.4024L107.998 74.943L109.432 74.5046L110.867 74.0662L110.09 71.5257L108.656 71.9641ZM109.432 74.5046L107.946 74.7055L108.266 77.0739L109.752 76.8731L111.239 76.6722L110.919 74.3037L109.432 74.5046ZM109.752 76.8731L109.939 78.3614L109.942 78.3611L109.754 76.8728L109.567 75.3845L109.565 75.3848L109.752 76.8731ZM89 101L89.8689 99.7773L89.7874 99.7193L88.9185 100.942L88.0496 102.165L88.1311 102.223L89 101ZM88.9185 100.942L89.6141 99.6131L87.3737 98.4403L86.678 99.7692L85.9823 101.098L88.2228 102.271L88.9185 100.942ZM86.678 99.7692L87.448 98.482L85.1712 97.12L84.4012 98.4073L83.6311 99.6945L85.908 101.057L86.678 99.7692ZM84.4012 98.4073L85.44 97.3252L83.5238 95.4856L82.485 96.5677L81.4462 97.6498L83.3624 99.4893L84.4012 98.4073ZM82.485 96.5677L83.4282 95.4014L81.4165 93.7746L80.4733 94.9409L79.5301 96.1073L81.5418 97.7341L82.485 96.5677ZM74.1408 100.277L74.0384 101.773L74.1382 101.78L74.2406 100.284L74.343 98.787L74.2432 98.7802L74.1408 100.277ZM74.2406 100.284L73.975 101.76L76.449 102.205L76.7145 100.729L76.9801 99.2523L74.5061 98.8072L74.2406 100.284ZM76.7145 100.729L76.6008 102.224L79.2273 102.424L79.341 100.928L79.4548 99.4326L76.8283 99.2329L76.7145 100.729ZM79.341 100.928L79.1696 102.418L81.803 102.721L81.9744 101.231L82.1459 99.7411L79.5125 99.4381L79.341 100.928ZM81.9744 101.231L82.0015 102.731L84.6457 102.683L84.6186 101.183L84.5915 99.6837L81.9473 99.7315L81.9744 101.231ZM84.6186 101.183L84.5648 102.682L87.2123 102.777L87.2661 101.278L87.3198 99.7794L84.6724 99.6844L84.6186 101.183ZM87.2661 101.278L87.5039 102.759L89.2378 102.481L89 101L88.7622 99.519L87.0283 99.7974L87.2661 101.278ZM80.4733 94.9409L81.9695 95.0483L81.9766 94.9486L80.4805 94.8412L78.9843 94.7338L78.9772 94.8336L80.4733 94.9409ZM80.4805 94.8412L81.9346 94.4729L81.3107 92.0099L79.8566 92.3783L78.4025 92.7466L79.0264 95.2095L80.4805 94.8412ZM79.8566 92.3783L81.3537 92.285L81.1902 89.6614L79.6931 89.7547L78.196 89.848L78.3595 92.4715L79.8566 92.3783ZM79.6931 89.7547L81.1877 89.8824L81.4113 87.2653L79.9167 87.1377L78.4221 87.01L78.1986 89.627L79.6931 89.7547ZM79.9167 87.1377L81.3614 87.5411L82.0707 85.001L80.626 84.5976L79.1813 84.1941L78.472 86.7342L79.9167 87.1377ZM80.626 84.5976L81.8902 85.4049L83.3065 83.1873L82.0423 82.3799L80.7781 81.5725L79.3618 83.7902L80.626 84.5976ZM82.0423 82.3799L83.1443 83.3975L84.9145 81.4804L83.8125 80.4628L82.7104 79.4452L80.9402 81.3623L82.0423 82.3799ZM83.8125 80.4628L84.6093 81.7337L86.8104 80.3536L86.0135 79.0827L85.2167 77.8119L83.0156 79.192L83.8125 80.4628ZM86.0135 79.0827L86.7274 80.402L89.0353 79.1531L88.3214 77.8339L87.6075 76.5146L85.2997 77.7635L86.0135 79.0827ZM88.3214 77.8339L88.391 79.3323L91.0127 79.2106L90.9431 77.7122L90.8736 76.2138L88.2519 76.3355L88.3214 77.8339ZM90.9431 77.7122L90.8672 79.2103L93.4607 79.3418L93.5366 77.8437L93.6126 76.3456L91.0191 76.2141L90.9431 77.7122ZM93.5366 77.8437L93.1328 79.2883L95.6433 79.9902L96.0472 78.5456L96.4511 77.101L93.9405 76.3991L93.5366 77.8437ZM96.0472 78.5456L95.5531 79.9619L98.0346 80.8277L98.5287 79.4114L99.0229 77.9952L96.5414 77.1294L96.0472 78.5456ZM98.5287 79.4114L97.9504 80.7955L99.6965 81.5251L100.275 80.1411L100.853 78.7571L99.1071 78.0274L98.5287 79.4114ZM100.275 80.1411L99.004 79.3444L98.8952 79.5178L100.166 80.3146L101.437 81.1113L101.546 80.9379L100.275 80.1411ZM55.6491 29.7209L55.5758 31.2191L55.6757 31.224L55.749 29.7258L55.8223 28.2276L55.7224 28.2227L55.6491 29.7209ZM55.749 29.7258L55.8611 31.2216L58.4008 31.0312L58.2887 29.5354L58.1766 28.0396L55.6369 28.23L55.749 29.7258ZM58.2887 29.5354L58.1223 31.0262L60.7556 31.3202L60.9221 29.8294L61.0885 28.3387L58.4552 28.0447L58.2887 29.5354ZM60.9221 29.8294L60.903 31.3293L63.5477 31.3629L63.5668 29.863L63.5858 28.3631L60.9411 28.3296L60.9221 29.8294ZM63.5668 29.863L63.2775 31.3349L65.8832 31.8469L66.1724 30.375L66.4617 28.9032L63.856 28.3912L63.5668 29.863ZM66.1724 30.375L66.2384 31.8736L68.9031 31.7563L68.8372 30.2578L68.7712 28.7592L66.1065 28.8765L66.1724 30.375ZM68.8372 30.2578L67.3989 30.6837L68.0493 32.8801L69.4876 32.4542L70.9258 32.0282L70.2754 29.8319L68.8372 30.2578ZM69.4876 32.4542L67.9881 32.4155L67.92 35.0555L69.4195 35.0942L70.919 35.1328L70.9871 32.4928L69.4876 32.4542ZM69.4195 35.0942L67.9235 35.2031L68.1157 37.8431L69.6117 37.7342L71.1077 37.6252L70.9155 34.9852L69.4195 35.0942ZM69.6117 37.7342L69.1284 36.3142L66.6723 37.1501L67.1556 38.5701L67.6389 39.9901L70.095 39.1542L69.6117 37.7342ZM67.1556 38.5701L67.1899 37.0705L64.5379 37.0099L64.5036 38.5095L64.4693 40.0091L67.1213 40.0697L67.1556 38.5701ZM64.5036 38.5095L64.27 37.0278L61.6467 37.4413L61.8803 38.923L62.1138 40.4047L64.7372 39.9912L64.5036 38.5095ZM61.8803 38.923L61.8629 37.4231L59.2218 37.4537L59.2391 38.9536L59.2565 40.4535L61.8976 40.4229L61.8803 38.923ZM59.2391 38.9536L59.3672 37.4591L56.718 37.2321L56.59 38.7266L56.462 40.2211L59.1111 40.4481L59.2391 38.9536ZM56.59 38.7266L56.1524 37.2919L55.2115 37.5788L55.6491 39.0136L56.0867 40.4483L57.0276 40.1614L56.59 38.7266ZM55.6491 52.9881L54.9541 54.3174L55.0427 54.3637L55.7377 53.0345L56.4328 51.7052L56.3442 51.6589L55.6491 52.9881ZM55.7377 53.0345L56.0629 54.4988L58.6377 53.927L58.3126 52.4626L57.9874 50.9983L55.4125 51.5701L55.7377 53.0345ZM58.3126 52.4626L56.9849 53.1607L58.2524 55.5717L59.5801 54.8736L60.9078 54.1756L59.6402 51.7646L58.3126 52.4626ZM59.5801 54.8736L58.172 55.3904L59.0816 57.869L60.4897 57.3522L61.8979 56.8354L60.9883 54.3568L59.5801 54.8736ZM60.4897 57.3522L60.5179 58.852L62.958 58.8062L62.9299 57.3064L62.9017 55.8067L60.4616 55.8525L60.4897 57.3522ZM62.9299 57.3064L62.8811 58.8056L65.5211 58.8915L65.5699 57.3923L65.6186 55.8931L62.9786 55.8072L62.9299 57.3064ZM65.5699 57.3923L67.0351 57.7132L67.5445 55.3873L66.0792 55.0664L64.614 54.7455L64.1046 57.0714L65.5699 57.3923ZM66.0792 55.0664L67.5252 55.4655L68.2276 52.9202L66.7817 52.5211L65.3357 52.1221L64.6333 54.6674L66.0792 55.0664ZM66.7817 52.5211L66.9425 54.0125L69.746 53.7101L69.5852 52.2188L69.4243 50.7274L66.6208 51.0298L66.7817 52.5211ZM69.5852 52.2188L69.5991 53.7187L72.2737 53.6939L72.2598 52.194L72.2459 50.694L69.5713 50.7188L69.5852 52.2188ZM72.2598 52.194L71.0537 53.0857L72.5432 55.1002L73.7493 54.2084L74.9554 53.3166L73.4659 51.3022L72.2598 52.194ZM73.7493 54.2084L72.2559 54.3487L72.5032 56.9815L73.9966 56.8412L75.49 56.7009L75.2427 54.0681L73.7493 54.2084ZM73.9966 56.8412L72.5004 56.9479L72.6884 59.5839L74.1846 59.4772L75.6808 59.3704L75.4928 56.7344L73.9966 56.8412ZM74.1846 59.4772L72.7119 59.7619L73.2144 62.3615L74.6872 62.0768L76.1599 61.7921L75.6573 59.1925L74.1846 59.4772ZM74.6872 62.0768L73.1994 62.2678L73.5356 64.8874L75.0234 64.6964L76.5112 64.5055L76.175 61.8859L74.6872 62.0768ZM75.0234 64.6964L73.5264 64.792L73.6949 67.4316L75.1919 67.336L76.6888 67.2404L76.5203 64.6009L75.0234 64.6964ZM75.1919 67.336L73.6928 67.3896L73.7875 70.0346L75.2865 69.981L76.7856 69.9274L76.6909 67.2824L75.1919 67.336ZM75.2865 69.981L73.7925 70.1154L74.0288 72.7422L75.5228 72.6078L77.0168 72.4734L76.7805 69.8466L75.2865 69.981ZM75.5228 72.6078L74.0518 72.9014L74.5725 75.5109L76.0435 75.2173L77.5145 74.9238L76.9938 72.3143L75.5228 72.6078ZM76.0435 75.2173L74.545 75.1519L74.5014 76.1486L76 76.2141L77.4986 76.2795L77.5421 75.2828L76.0435 75.2173ZM36.815 63.45V64.95H36.915V63.45V61.95H36.815V63.45ZM36.915 63.45L36.9868 64.9483L39.5268 64.8265L39.455 63.3283L39.3832 61.83L36.8432 61.9517L36.915 63.45ZM39.455 63.3283L39.3817 64.8265L42.0217 64.9556L42.095 63.4574L42.1683 61.9592L39.5283 61.8301L39.455 63.3283ZM42.095 63.4574L41.9734 64.9525L44.6134 65.1671L44.735 63.672L44.8565 62.177L42.2165 61.9624L42.095 63.4574ZM44.735 63.672L44.7958 65.1708L47.4358 65.0637L47.375 63.565L47.3142 62.0662L44.6742 62.1733L44.735 63.672ZM47.375 63.565L47.4641 65.0623L50.1041 64.9051L50.015 63.4078L49.9258 61.9104L47.2858 62.0676L47.375 63.565ZM50.015 63.4078L50.1149 64.9045L52.7549 64.7283L52.655 63.2316L52.5551 61.735L49.9151 61.9111L50.015 63.4078ZM52.655 63.2316L52.4061 64.7108L55.0461 65.155L55.295 63.6758L55.5438 62.1965L52.9038 61.7524L52.655 63.2316ZM55.295 63.6758L55.4969 65.1621L58.1369 64.8035L57.935 63.3172L57.7331 61.8308L55.0931 62.1894L55.295 63.6758ZM57.935 63.3172L57.8553 64.815L60.4953 64.9555L60.575 63.4576L60.6547 61.9597L58.0147 61.8193L57.935 63.3172ZM60.575 63.4576L60.6611 64.9551L63.3011 64.8034L63.215 63.3059L63.1289 61.8083L60.4889 61.9601L60.575 63.4576ZM63.215 63.3059L63.1091 64.8021L65.7491 64.9889L65.855 63.4927L65.9609 61.9964L63.3209 61.8096L63.215 63.3059ZM65.855 63.4927L65.8459 64.9926L68.4859 65.0086L68.495 63.5086L68.5041 62.0087L65.8641 61.9927L65.855 63.4927ZM68.495 63.5086L68.5543 65.0075L71.1943 64.9031L71.135 63.4042L71.0757 61.9054L68.4357 62.0098L68.495 63.5086ZM71.135 63.4042L71.2679 64.8983L73.5888 64.6919L73.4559 63.1978L73.323 61.7037L71.0021 61.9101L71.135 63.4042ZM73.4559 63.1978H71.9559V63.45H73.4559H74.9559V63.1978H73.4559ZM78.5211 76.8728L77.0543 76.5588L77.0334 76.6566L78.5002 76.9706L79.9669 77.2846L79.9879 77.1868L78.5211 76.8728ZM78.5002 76.9706L78.4875 75.4706L75.8612 75.4927L75.8739 76.9927L75.8865 78.4926L78.5128 78.4705L78.5002 76.9706ZM75.8739 76.9927L74.9124 75.8413L72.9371 77.4908L73.8985 78.6422L74.86 79.7935L76.8353 78.1441L75.8739 76.9927ZM73.8985 78.6422L72.3995 78.6969L72.489 81.1478L73.988 81.0931L75.487 81.0384L75.3975 78.5874L73.8985 78.6422ZM73.988 81.0931L72.8783 82.1023L74.6174 84.0146L75.7271 83.0053L76.8368 81.9961L75.0977 80.0839L73.988 81.0931ZM75.7271 83.0053L75.79 84.504L78.4155 84.3938L78.3526 82.8951L78.2897 81.3964L75.6641 81.5066L75.7271 83.0053ZM78.3526 82.8951L79.6282 83.6843L80.8863 81.6508L79.6107 80.8616L78.3351 80.0724L77.077 82.1059L78.3526 82.8951ZM79.6107 80.8616L81.0869 80.5956L80.6391 78.1095L79.1628 78.3754L77.6866 78.6414L78.1345 81.1275L79.6107 80.8616ZM79.1628 78.3754L80.5423 77.7863L79.9006 76.2837L78.5211 76.8728L77.1416 77.4619L77.7834 78.9646L79.1628 78.3754ZM78.5211 76.8728L79.1311 78.2432L79.2224 78.2025L78.6124 76.8321L78.0024 75.4618L77.9111 75.5024L78.5211 76.8728ZM78.6124 76.8321L79.9141 77.5775L81.136 75.4438L79.8343 74.6984L78.5326 73.953L77.3108 76.0867L78.6124 76.8321ZM79.8343 74.6984L80.4306 76.0748L82.6982 75.0924L82.102 73.716L81.5057 72.3396L79.238 73.322L79.8343 74.6984ZM82.102 73.716L82.4733 75.1693L85.0392 74.5137L84.6679 73.0604L84.2966 71.6071L81.7307 72.2627L82.102 73.716ZM84.6679 73.0604L84.9719 74.5293L87.5586 73.994L87.2546 72.5251L86.9506 71.0562L84.364 71.5915L84.6679 73.0604ZM87.2546 72.5251L87.5513 73.9955L90.1402 73.4731L89.8435 72.0027L89.5468 70.5324L86.9579 71.0547L87.2546 72.5251ZM89.8435 72.0027L90.0573 73.4874L92.6713 73.1111L92.4576 71.6264L92.2438 70.1417L89.6297 70.5181L89.8435 72.0027ZM92.4576 71.6264L92.7721 73.093L95.3556 72.5389L95.041 71.0722L94.7264 69.6056L92.143 70.1597L92.4576 71.6264ZM95.041 71.0722L95.3196 72.5461L97.914 72.0557L97.6354 70.5818L97.3568 69.1079L94.7624 69.5983L95.041 71.0722ZM97.6354 70.5818L97.8129 72.0713L100.438 71.7585L100.26 70.269L100.083 68.7796L97.4579 69.0924L97.6354 70.5818ZM100.26 70.269L100.45 71.7569L103.072 71.4221L102.882 69.9342L102.691 68.4462L100.07 68.7811L100.26 70.269ZM102.882 69.9342L103.147 71.4104L105.746 70.9425L105.48 69.4663L105.214 67.99L102.616 68.4579L102.882 69.9342ZM105.48 69.4663L105.641 70.9576L108.271 70.6734L108.11 69.1821L107.949 67.6908L105.319 67.975L105.48 69.4663ZM108.11 69.1821L109.061 70.3422L109.336 70.1169L108.385 68.9568L107.434 67.7967L107.159 68.022L108.11 69.1821ZM19.8716 85.8213L21.0337 86.7698L21.097 86.6923L19.9348 85.7439L18.7727 84.7955L18.7095 84.8729L19.8716 85.8213ZM19.9348 85.7439L21.4346 85.7722L21.4829 83.2099L19.9832 83.1816L18.4834 83.1533L18.4351 85.7156L19.9348 85.7439ZM19.9832 83.1816L21.4738 83.0145L21.1778 80.3732L19.6871 80.5403L18.1965 80.7074L18.4925 83.3487L19.9832 83.1816ZM19.6871 80.5403L20.5488 81.7681L22.1267 80.6608L21.265 79.433L20.4034 78.2052L18.8255 79.3124L19.6871 80.5403ZM21.265 79.433L21.4951 80.9153L24.1248 80.5071L23.8948 79.0249L23.6647 77.5426L21.035 77.9507L21.265 79.433ZM23.8948 79.0249L23.8651 80.5246L26.5082 80.5768L26.5378 79.0771L26.5675 77.5774L23.9244 77.5252L23.8948 79.0249ZM26.5378 79.0771L26.5277 80.5771L29.1698 80.595L29.1799 79.095L29.1901 77.595L26.548 77.5772L26.5378 79.0771ZM29.1799 79.095L29.2278 80.5942L31.8684 80.5099L31.8206 79.0107L31.7727 77.5114L29.1321 77.5958L29.1799 79.095ZM31.8206 79.0107L31.9524 80.5049L34.2073 80.3059L34.0755 78.8117L33.9436 77.3175L31.6887 77.5165L31.8206 79.0107ZM34.0755 78.8117H32.5755V78.9379H34.0755H35.5755V78.8117H34.0755ZM27.5145 79.282H26.0145V79.382H27.5145H29.0145V79.282H27.5145ZM27.5145 79.382L26.0168 79.4649L26.1561 81.9807L27.6538 81.8978L29.1515 81.8148L29.0122 79.2991L27.5145 79.382ZM27.6538 81.8978L26.1666 81.7023L25.8229 84.3181L27.3101 84.5135L28.7973 84.7089L29.141 82.0932L27.6538 81.8978ZM27.3101 84.5135L25.8477 84.8476L26.1465 86.1554L27.6089 85.8213L29.0712 85.4873L28.7724 84.1794L27.3101 84.5135ZM27.6089 85.8213V84.3213H27.5145V85.8213V87.3213H27.6089V85.8213ZM66.9496 100.621L68.0558 101.634L68.1233 101.56L67.0171 100.547L65.9109 99.534L65.8434 99.6078L66.9496 100.621ZM67.0171 100.547L68.5161 100.601L68.6087 98.0379L67.1097 97.9837L65.6106 97.9296L65.5181 100.493L67.0171 100.547ZM67.1097 97.9837L68.4086 98.7339L69.6353 96.6096L68.3363 95.8595L67.0374 95.1094L65.8107 97.2336L67.1097 97.9837ZM68.3363 95.8595L68.8916 97.2529L71.3671 96.2665L70.8119 94.8731L70.2566 93.4796L67.7811 94.466L68.3363 95.8595ZM70.8119 94.8731L71.6016 96.1484L73.8478 94.7575L73.0581 93.4822L72.2684 92.2069L70.0222 93.5978L70.8119 94.8731ZM73.0581 93.4822L73.803 94.7842L76.0945 93.4731L75.3496 92.1712L74.6047 90.8692L72.3132 92.1802L73.0581 93.4822ZM75.3496 92.1712L76.1306 93.4518L78.3856 92.0766L77.6047 90.7959L76.8237 89.5153L74.5686 90.8905L75.3496 92.1712ZM77.6047 90.7959L78.4956 92.0027L80.3912 90.6032L79.5003 89.3964L78.6093 88.1897L76.7137 89.5892L77.6047 90.7959ZM79.5003 89.3964L78.1954 90.1363L78.315 90.3472L79.6198 89.6073L80.9246 88.8674L80.8051 88.6565L79.5003 89.3964ZM54.6947 76.2141L53.2228 75.9251L53.2036 76.0233L54.6755 76.3122L56.1474 76.6011L56.1666 76.503L54.6947 76.2141ZM54.6755 76.3122L54.1447 77.7151L56.406 78.5706L56.9368 77.1677L57.4675 75.7647L55.2062 74.9092L54.6755 76.3122ZM56.9368 77.1677L55.4414 77.2857L55.6507 79.9375L57.1461 79.8194L58.6414 79.7014L58.4321 77.0496L56.9368 77.1677ZM57.1461 79.8194L55.6987 79.4256L55.0303 81.882L56.4777 82.2758L57.9251 82.6696L58.5935 80.2133L57.1461 79.8194ZM56.4777 82.2758L55.7382 80.9707L53.7178 82.1156L54.4573 83.4207L55.1967 84.7257L57.2172 83.5809L56.4777 82.2758ZM54.4573 83.4207L55.7504 82.6606L54.4495 80.4471L53.1563 81.2071L51.8631 81.9671L53.1641 84.1807L54.4573 83.4207ZM53.1563 81.2071L54.6509 81.3342L54.872 78.7348L53.3774 78.6077L51.8828 78.4806L51.6617 81.08L53.1563 81.2071ZM53.3774 78.6077L54.6939 79.3265L55.8949 77.1269L54.5783 76.4081L53.2617 75.6893L52.0608 77.8889L53.3774 78.6077ZM54.5783 76.4081L55.8644 77.18L55.9809 76.9859L54.6947 76.2141L53.4086 75.4422L53.2921 75.6362L54.5783 76.4081ZM89.5865 85.831L88.2469 86.5059L88.2919 86.5952L89.6315 85.9203L90.971 85.2453L90.926 85.156L89.5865 85.831ZM89.6315 85.9203L90.0235 87.3681L92.5742 86.6774L92.1822 85.2296L91.7901 83.7817L89.2394 84.4724L89.6315 85.9203ZM92.1822 85.2296L91.3359 86.468L93.5861 88.0058L94.4324 86.7673L95.2787 85.5288L93.0285 83.9911L92.1822 85.2296ZM94.4324 86.7673L93.0036 87.224L93.8245 89.7924L95.2533 89.3357L96.6821 88.8791L95.8612 86.3106L94.4324 86.7673ZM95.2533 89.3357L93.8889 88.7125L92.7983 91.1002L94.1627 91.7234L95.5271 92.3466L96.6177 89.959L95.2533 89.3357ZM94.1627 91.7234L93.4377 90.4103L91.0818 91.7109L91.8068 93.0241L92.5318 94.3372L94.8877 93.0366L94.1627 91.7234ZM91.8068 93.0241L92.2655 91.5959L89.6371 90.7518L89.1784 92.1799L88.7197 93.6081L91.3482 94.4522L91.8068 93.0241ZM89.1784 92.1799L90.5438 91.5588L89.4368 89.1255L88.0714 89.7466L86.7061 90.3678L87.8131 92.8011L89.1784 92.1799ZM88.0714 89.7466L89.5705 89.8L89.6617 87.237L88.1626 87.1836L86.6636 87.1303L86.5724 89.6933L88.0714 89.7466ZM88.1626 87.1836L89.0879 88.3643L90.6037 87.1763L89.6784 85.9957L88.7531 84.8151L87.2374 86.003L88.1626 87.1836ZM89.6784 85.9957L90.9882 85.2646L90.8962 85.0999L89.5865 85.831L88.2767 86.5621L88.3686 86.7268L89.6784 85.9957Z" fill="black"/>
<path d="M8.1 116V117.5H8.13227L8.16451 117.499L8.1 116ZM10.64 115.891L10.797 114.399L10.6865 114.387L10.5755 114.392L10.64 115.891ZM13.28 116.169L13.123 117.66L13.2739 117.676L13.425 117.662L13.28 116.169ZM15.92 115.912L15.8596 114.413L15.8172 114.415L15.775 114.419L15.92 115.912ZM18.56 115.806L18.6763 114.31L18.588 114.303L18.4996 114.307L18.56 115.806ZM21.2 116.011L21.0837 117.507L21.1392 117.511L21.1948 117.511L21.2 116.011ZM23.84 116.02L23.8348 117.52L23.8912 117.52L23.9474 117.516L23.84 116.02ZM26.48 115.831L26.5223 114.331L26.4473 114.329L26.3726 114.334L26.48 115.831ZM29.12 115.905L29.2963 114.415L29.2295 114.408L29.1623 114.406L29.12 115.905ZM31.76 116.217L31.5837 117.707L31.7941 117.732L32.0032 117.698L31.76 116.217ZM34.4 115.784L34.4793 114.286L34.3171 114.277L34.1568 114.303L34.4 115.784ZM37.04 115.923L36.9607 117.421L37.0493 117.426L37.1379 117.42L37.04 115.923ZM39.68 115.751L39.8617 114.262L39.7223 114.245L39.5821 114.254L39.68 115.751ZM42.32 116.073L42.1383 117.562L42.2533 117.576L42.3692 117.572L42.32 116.073ZM44.96 115.986L44.9117 114.487L44.9108 114.487L44.96 115.986ZM47.6 115.901L47.6483 117.401L47.6707 117.4L47.693 117.398L47.6 115.901ZM50.24 115.737L50.5012 114.26L50.3253 114.229L50.147 114.24L50.24 115.737ZM52.88 116.204L52.6188 117.681L52.879 117.727L53.1393 117.682L52.88 116.204ZM55.52 115.741L55.6608 114.247L55.4596 114.228L55.2606 114.263L55.52 115.741ZM58.16 115.99L58.0192 117.483L58.1299 117.493L58.2409 117.487L58.16 115.99ZM60.8 115.847L61.0126 114.362L60.8665 114.341L60.7191 114.349L60.8 115.847ZM63.44 116.225L63.2274 117.71L63.4714 117.745L63.7137 117.7L63.44 116.225ZM66.08 115.735L66.1582 114.237L65.9809 114.228L65.8063 114.26L66.08 115.735ZM68.72 115.873L68.6418 117.371L68.6647 117.372L68.6878 117.373L68.72 115.873ZM71.36 115.93L71.3278 117.429L71.3564 117.43L71.3849 117.429L71.36 115.93ZM74 115.886L74.185 114.397L74.0804 114.384L73.975 114.386L74 115.886ZM76.64 116.214L76.455 117.702L76.6155 117.722L76.7765 117.708L76.64 116.214ZM79.28 115.973L79.2685 114.473L79.2059 114.473L79.1435 114.479L79.28 115.973ZM81.92 115.952L82.0888 114.462L81.9989 114.452L81.9085 114.452L81.92 115.952ZM84.56 116.251L84.3912 117.742L84.5876 117.764L84.783 117.735L84.56 116.251ZM87.2 115.854L87.2734 114.356L87.1245 114.349L86.977 114.371L87.2 115.854ZM89.84 115.984L89.9255 114.486L89.9134 114.486L89.84 115.984ZM92.48 116.135L92.3945 117.632L92.4978 117.638L92.6008 117.63L92.48 116.135ZM95.12 115.921L95.1099 114.421L95.0544 114.422L94.9992 114.426L95.12 115.921ZM97.76 115.903L97.9616 114.417L97.8562 114.403L97.7499 114.403L97.76 115.903ZM100.4 116.261L100.198 117.748L100.434 117.78L100.667 117.737L100.4 116.261ZM103.04 115.784L103.284 114.304L103.028 114.262L102.773 114.308L103.04 115.784ZM105.68 116.219L105.436 117.699L105.576 117.722L105.719 117.718L105.68 116.219ZM108.32 116.151L108.359 117.65L108.453 117.648L108.546 117.634L108.32 116.151ZM110.96 115.748L111.313 114.29L111.026 114.221L110.734 114.265L110.96 115.748ZM8 116V117.5H8.1V116V114.5H8V116ZM8.1 116L8.16451 117.499L10.7045 117.389L10.64 115.891L10.5755 114.392L8.03549 114.501L8.1 116ZM10.64 115.891L10.483 117.382L13.123 117.66L13.28 116.169L13.437 114.677L10.797 114.399L10.64 115.891ZM13.28 116.169L13.425 117.662L16.065 117.405L15.92 115.912L15.775 114.419L13.135 114.676L13.28 116.169ZM15.92 115.912L15.9804 117.411L18.6204 117.305L18.56 115.806L18.4996 114.307L15.8596 114.413L15.92 115.912ZM18.56 115.806L18.4437 117.301L21.0837 117.507L21.2 116.011L21.3163 114.516L18.6763 114.31L18.56 115.806ZM21.2 116.011L21.1948 117.511L23.8348 117.52L23.84 116.02L23.8452 114.52L21.2052 114.511L21.2 116.011ZM23.84 116.02L23.9474 117.516L26.5874 117.327L26.48 115.831L26.3726 114.334L23.7326 114.524L23.84 116.02ZM26.48 115.831L26.4377 117.33L29.0777 117.404L29.12 115.905L29.1623 114.406L26.5223 114.331L26.48 115.831ZM29.12 115.905L28.9437 117.395L31.5837 117.707L31.76 116.217L31.9363 114.728L29.2963 114.415L29.12 115.905ZM31.76 116.217L32.0032 117.698L34.6432 117.264L34.4 115.784L34.1568 114.303L31.5168 114.737L31.76 116.217ZM34.4 115.784L34.3207 117.282L36.9607 117.421L37.04 115.923L37.1193 114.426L34.4793 114.286L34.4 115.784ZM37.04 115.923L37.1379 117.42L39.7779 117.248L39.68 115.751L39.5821 114.254L36.9421 114.427L37.04 115.923ZM39.68 115.751L39.4983 117.24L42.1383 117.562L42.32 116.073L42.5017 114.584L39.8617 114.262L39.68 115.751ZM42.32 116.073L42.3692 117.572L45.0092 117.486L44.96 115.986L44.9108 114.487L42.2708 114.574L42.32 116.073ZM44.96 115.986L45.0083 117.486L47.6483 117.401L47.6 115.901L47.5517 114.402L44.9117 114.487L44.96 115.986ZM47.6 115.901L47.693 117.398L50.333 117.234L50.24 115.737L50.147 114.24L47.507 114.404L47.6 115.901ZM50.24 115.737L49.9788 117.214L52.6188 117.681L52.88 116.204L53.1412 114.727L50.5012 114.26L50.24 115.737ZM52.88 116.204L53.1393 117.682L55.7793 117.218L55.52 115.741L55.2606 114.263L52.6207 114.727L52.88 116.204ZM55.52 115.741L55.3792 117.234L58.0192 117.483L58.16 115.99L58.3008 114.496L55.6608 114.247L55.52 115.741ZM58.16 115.99L58.2409 117.487L60.8809 117.345L60.8 115.847L60.7191 114.349L58.0791 114.492L58.16 115.99ZM60.8 115.847L60.5874 117.332L63.2274 117.71L63.44 116.225L63.6526 114.74L61.0126 114.362L60.8 115.847ZM63.44 116.225L63.7137 117.7L66.3537 117.21L66.08 115.735L65.8063 114.26L63.1663 114.75L63.44 116.225ZM66.08 115.735L66.0018 117.233L68.6418 117.371L68.72 115.873L68.7982 114.375L66.1582 114.237L66.08 115.735ZM68.72 115.873L68.6878 117.373L71.3278 117.429L71.36 115.93L71.3922 114.43L68.7522 114.373L68.72 115.873ZM71.36 115.93L71.3849 117.429L74.0249 117.386L74 115.886L73.975 114.386L71.335 114.43L71.36 115.93ZM74 115.886L73.815 117.374L76.455 117.702L76.64 116.214L76.825 114.725L74.185 114.397L74 115.886ZM76.64 116.214L76.7765 117.708L79.4165 117.466L79.28 115.973L79.1435 114.479L76.5035 114.72L76.64 116.214ZM79.28 115.973L79.2915 117.473L81.9315 117.452L81.92 115.952L81.9085 114.452L79.2685 114.473L79.28 115.973ZM81.92 115.952L81.7512 117.443L84.3912 117.742L84.56 116.251L84.7288 114.761L82.0888 114.462L81.92 115.952ZM84.56 116.251L84.783 117.735L87.423 117.338L87.2 115.854L86.977 114.371L84.337 114.768L84.56 116.251ZM87.2 115.854L87.1266 117.353L89.7666 117.482L89.84 115.984L89.9134 114.486L87.2734 114.356L87.2 115.854ZM89.84 115.984L89.7545 117.481L92.3945 117.632L92.48 116.135L92.5655 114.637L89.9255 114.486L89.84 115.984ZM92.48 116.135L92.6008 117.63L95.2408 117.416L95.12 115.921L94.9992 114.426L92.3592 114.639L92.48 116.135ZM95.12 115.921L95.1301 117.421L97.7701 117.403L97.76 115.903L97.7499 114.403L95.1099 114.421L95.12 115.921ZM97.76 115.903L97.5584 117.39L100.198 117.748L100.4 116.261L100.602 114.775L97.9616 114.417L97.76 115.903ZM100.4 116.261L100.667 117.737L103.307 117.26L103.04 115.784L102.773 114.308L100.133 114.785L100.4 116.261ZM103.04 115.784L102.796 117.264L105.436 117.699L105.68 116.219L105.924 114.738L103.284 114.304L103.04 115.784ZM105.68 116.219L105.719 117.718L108.359 117.65L108.32 116.151L108.281 114.651L105.641 114.719L105.68 116.219ZM108.32 116.151L108.546 117.634L111.186 117.231L110.96 115.748L110.734 114.265L108.094 114.668L108.32 116.151ZM110.96 115.748L110.607 117.206L111.647 117.458L112 116L112.353 114.542L111.313 114.29L110.96 115.748Z" fill="black"/>
</svg>
