<svg width="120" height="120" viewBox="0 0 120 120" fill="none" xmlns="http://www.w3.org/2000/svg">
<path d="M61.5391 2.34766L64.0234 3.16797L66.4609 3.54297L66.707 3.58984L66.918 3.69531L69.2617 4.91406H69.25L71.5938 5.89844L71.875 6.01562L72.0859 6.23828L73.9375 8.13672L73.9492 8.14844L75.6953 9.97656L77.6523 11.8164L77.8047 11.957L77.9102 12.1328L79.2812 14.4297L79.375 14.6055L79.4336 14.793L80.1484 17.3711L81.0273 19.7383L81.0977 19.9258L81.1094 20.1133L81.3672 22.75L81.5664 24.8594L81.7188 26.5H81.6475L81.5957 28.8789L81.6494 31.4883L81.6523 31.6084L81.6357 31.7266L81.2881 34.2188L81.4346 36.6836L81.708 39.2832L81.7256 39.4463L81.707 39.6084L81.4229 42.1191L81.5742 44.6299L81.5791 44.7129L81.5742 44.7969L81.4453 47.3086L81.7393 49.8262L81.7656 50.0527L81.7236 50.2773L81.2607 52.7314L81.4238 55.1807L81.4268 55.2227V55.2637L81.4561 57.9033H81.4551L81.5137 60.5273H81.5127L81.5869 63.1582V63.1758L81.5879 63.1934L81.5986 65.834L81.5996 65.9336L81.5859 66.0322L81.2754 68.4346L81.7363 70.8379L81.7822 71.0781L81.749 71.3203L81.4023 73.8867L81.3145 75.9766L81.3555 76.0352L81.3789 76.457L81.4053 76.9297L81.7188 78.791L81.7393 78.9092L81.7402 79.0293L81.7588 81.6689L81.7607 81.8203L81.7314 81.9688L81.2559 84.3896L81.5029 86.8076L81.5166 86.9453L81.5049 87.082L81.3027 89.5596L81.6396 92.0381L81.666 92.2373L81.6396 92.4375L81.3008 94.9883L81.2754 97.3965L81.7041 99.9082L81.7236 100.021L81.7246 100.138L81.7646 102.777L81.7666 102.886L81.752 102.994L81.4277 105.479L81.6221 107.963L81.6309 108.065L81.624 108.168L81.5352 109.667L81.582 109.824L82.1914 111.852L81.5127 111.821L81.5693 113.304L81.5713 113.362L81.5693 113.421L81.5225 114.56L81.8867 114.559V114.547L84.5234 114.488L87.1602 114.418H87.1953L89.832 114.406H89.9375L90.0312 114.418L92.4219 114.734L94.8359 114.266L95.082 114.219L95.3164 114.254L97.8945 114.605L100.273 114.711L102.793 114.277L102.91 114.266H103.027L105.664 114.242H105.816L105.969 114.266L108.406 114.746L110.809 114.5L110.891 114.488H110.973L112.016 114.5L112.004 116L111.98 117.5L110.984 117.488L108.477 117.746L108.254 117.77L108.031 117.734L105.57 117.242L103.145 117.254L100.648 117.688L100.496 117.711L100.332 117.699L97.6953 117.594H97.625L97.5547 117.582L95.1523 117.242L92.7617 117.711L92.5273 117.758L92.293 117.734L89.7383 117.406L87.207 117.418L87.1953 117.406L84.6055 117.488H84.5938L81.957 117.547H81.9336L79.3672 117.559L79.3789 117.57L76.7422 117.746L76.5547 117.758L74.3926 117.352L73.4258 117.324L71.5391 117.547L71.4102 117.559H71.2812L68.7266 117.418L66.1719 117.582H66.0557L64.2617 117.704L64.166 117.71L64.0693 117.704L61.5 117.549L60.4453 117.584L58.25 117.711L58.0977 117.723L57.957 117.699L55.4141 117.348L54.2627 117.374L53.709 117.409L51.0908 117.64L50.9658 117.65L50.8408 117.641L48.29 117.438L45.7256 117.516L45.7246 117.515L43.0957 117.613L42.9971 117.617L42.8994 117.607L42.1074 117.532L39.7344 117.617H39.6172L36.9805 117.512V117.5L34.3906 117.488H34.3438L34.2969 117.477L31.7188 117.301L29.1875 117.43H29.1055L26.4688 117.418V117.406L23.9609 117.43L21.3242 117.664L21.1836 117.676L21.0312 117.664L18.5 117.383L15.9219 117.395V117.383L13.3789 117.559H13.3672L13.3555 117.57L10.707 117.688L10.6133 117.699L10.5312 117.688L7.98828 117.5L8 117.277V114.5H8.21094L10.6719 114.699L13.1797 114.582V114.57L15.8164 114.395H15.9102L18.5469 114.383L18.6406 114.371L18.7227 114.383L21.2305 114.664L23.7148 114.453L23.7617 114.441H23.8203L26.4688 114.418H26.4922L29.0469 114.43L31.6953 114.312L31.7773 114.301L31.8594 114.312L34.5078 114.488L34.4961 114.5L37.0508 114.512H37.0977L38.458 114.566L38.3457 114.181L38.2744 113.937L38.2871 113.683L38.4189 111.124L38.251 108.578L38.2451 108.485L38.251 108.392L38.4023 105.827L38.3076 103.255L38.3018 103.099L38.3281 102.945L38.75 100.5L38.5264 98.0566V98.0537L38.29 95.4141L38.2783 95.29L38.2881 95.167L38.4873 92.5273L38.4883 92.5166L38.4893 92.5068L38.7139 89.9932L38.5098 87.4814L38.501 87.3789L38.5068 87.2773L38.6484 84.7334L38.4561 82.1924L38.457 82.1914L38.252 79.5557L38.2441 79.4463L38.252 79.3359L38.4287 76.8018L38.2607 74.2588L38.2578 74.2148V74.1709L38.2393 71.5303L38.2383 71.4111L38.2559 71.293L38.6426 68.7695L38.6357 66.2842L38.4971 63.6953L38.3301 61.0547L38.3242 60.9639L38.3291 60.873L38.4824 58.2334L38.4844 58.2031L38.4873 58.1729L38.7344 55.6621L38.5557 53.1465L38.5537 53.1084L38.5527 53.0693L38.5 50.4297L38.499 50.3848L38.501 50.3389L38.6055 47.793L38.3799 45.252L38.3662 45.0947L38.3857 44.9385L38.6992 42.373L38.749 39.9365L38.3623 37.4277L38.3447 37.3135V37.1982L38.3477 34.5576L38.3486 34.5234L38.3496 34.4883L38.4756 31.8486L38.5938 29.3438L38.2725 26.8301L38.2441 26.6094L38.2812 26.3906L38.4883 25.1611L38.3125 23.5469L38.2773 23.2305L38.3828 22.9258L39.2031 20.4062L39.6484 17.9922L39.6719 17.8633L39.7305 17.7344L40.6562 15.2734L40.6914 15.1914L40.7266 15.1211L41.9336 12.7773L41.9805 12.6953L42.0273 12.625L43.5156 10.4336L43.5742 10.3398L43.6445 10.2578L45.4492 8.30078L45.5781 8.16016L45.7422 8.05469L47.875 6.69531L49.7383 4.97266L49.9844 4.73828L50.3242 4.63281L52.8789 3.87109L52.9492 3.84766L55.4922 3.20312L57.9297 2.40625L58.1406 2.33594L58.3633 2.32422L61.0352 2.26562H61.293L61.5391 2.34766ZM65.5996 97.9336L65.5859 98.0322L65.2754 100.435L65.7363 102.838L65.7822 103.078L65.749 103.32L65.4023 105.887L65.3008 108.306L65.7188 110.791L65.7393 110.909L65.7402 111.029L65.7588 113.669L65.7607 113.882L65.7031 114.086L65.5791 114.521L66.0361 114.575L66.665 114.533L69.3047 114.295L69.3721 114.289L69.4385 114.288L72.0791 114.286H72.1006L72.123 114.287L73.3438 114.321L73.8242 114.266L74.0586 114.23L74.2812 114.277L74.7314 114.361L74.7627 114.362L74.8125 114.363L74.8633 114.368L77.3945 114.61L78.5195 114.561L78.5684 113.354L78.4727 110.776L78.4697 110.704L78.4736 110.632L78.5098 110.002L78.207 108.957L78.1953 108.969L77.4688 106.812L75.875 105.184L75.8047 105.113L75.7461 105.031L74.2695 103.039L72.4766 101.738L70.1445 100.777L70.0391 100.73L69.9336 100.672L67.6836 99.3125L67.6484 99.2891L67.625 99.2656L65.668 97.918L65.5986 97.9014L65.5996 97.9336ZM52.9141 98.7695L50.9453 100.176L50.9219 100.188L50.8984 100.211L48.6836 101.641L48.5898 101.699L48.4961 101.734L46.2461 102.766L44.5117 104.172L43.2461 106.258L43.2227 106.305L43.1875 106.34L41.8984 108.121L41.6992 110.312L41.6172 111.25L41.4121 111.326L41.2959 113.582L41.5537 114.467L42.2295 114.53L44.832 114.289H44.9844L47.6211 114.336L47.6094 114.348H50.2695L52.8711 114.406L54.1279 114.378L54.5205 114.354L54.6992 113.011L54.7246 110.603L54.2959 108.092L54.2764 107.979L54.2754 107.862L54.2354 105.223L54.2334 105.114L54.248 105.006L54.5723 102.52L54.3779 100.037L54.3691 99.9346L54.376 99.832L54.4619 98.3701L52.9141 98.7695ZM60.1445 95.7578L57.8008 96.6953L57.5137 96.8682L57.5273 97.2236L57.5303 97.2959L57.5264 97.3682L57.376 99.9043L57.5752 102.443L57.5869 102.599L57.5664 102.754L57.2363 105.284L57.2725 107.697L57.7041 110.228L57.7266 110.361L57.7246 110.496L57.6973 113.136L57.6963 113.227L57.6846 113.317L57.5557 114.282L58.4199 114.295H58.4717L58.5225 114.3L61.0205 114.504L62.5117 114.352L62.7568 113.48L62.7402 111.172L62.3164 108.648L62.29 108.494L62.2969 108.337L62.4072 105.697L62.4102 105.628L62.4199 105.56L62.7432 103.163L62.2842 100.762L62.2393 100.526L62.2695 100.287L62.5977 97.748L62.5947 97.0059L60.6758 95.8789L60.2588 95.7148L60.1445 95.7578ZM76.7969 86.8164L76.7852 86.8281H76.7734L74.7695 88.5625L74.6289 88.6797L74.4531 88.7617L72.25 89.8398L70.3398 91.4688L70.1641 91.6094L69.9648 91.7031L67.5156 92.7461L67.5039 92.7344L65.5439 93.6367L65.5771 94.8135L66.6172 95.0703L66.875 95.1406L67.0977 95.2812L69.3125 96.7812L71.375 98.0352L73.7656 99.0312L73.9297 99.1016L74.0703 99.207L76.2266 100.766L76.4141 100.895L76.5547 101.082L78.0898 103.168L78.6309 103.724L78.7627 102.715L78.7266 100.302L78.2959 97.7725L78.2734 97.6387L78.2754 97.5039L78.3027 94.8643L78.3037 94.7734L78.3154 94.6826L78.6396 92.2402L78.3086 89.8018L78.2861 89.6406L78.2998 89.4775L78.5039 86.9785L78.3486 85.4561L76.7969 86.8164ZM41.5078 87.3359L41.7139 89.8789L41.7236 90.0059L41.7129 90.1328L41.4785 92.752L41.4795 92.7529L41.2881 95.2715L41.5137 97.7832L41.7549 100.424L41.7734 100.62L41.7393 100.814L41.3105 103.297L41.3232 103.648L42.0859 102.402L42.2266 102.18L42.4258 102.016L44.4883 100.34L44.6406 100.211L44.8047 100.141L47.1484 99.0508L49.2109 97.7266L51.3906 96.1797L51.6133 96.0273L51.8711 95.957L54.25 95.3242L54.4492 95.2051L54.4307 94.6963L54.4287 94.6377L54.4307 94.5791L54.4785 93.4014L53.3984 92.9375L53.375 92.9258L53.3398 92.9141L50.9961 91.7656L48.582 90.6641L48.3828 90.5703L48.207 90.4062L46.3438 88.6953L44.1992 87.5L44.0117 87.4062L43.8711 87.2539L41.9961 85.3906L41.9609 85.3672L41.9375 85.3438L41.6357 85.0146L41.5078 87.3359ZM58.6484 64.5547H58.6367L57.5361 64.9727L57.5801 65.4688L57.582 65.4873L57.583 65.5068L57.748 68.1465L57.7578 68.3027L57.7354 68.457L57.3682 70.9609L57.4512 73.4707L57.4541 73.54L57.4492 73.6104L57.2949 76.1553L57.4668 78.665L57.7051 81.3047L57.7109 81.3721L57.7119 81.4385L57.7139 84.0791V84.1006L57.7129 84.123L57.6377 86.7627L57.6367 86.8125L57.6318 86.8633L57.3896 89.3848L57.5059 91.4199L59.4219 92.1641H59.4336L60.2842 92.5029L61.5508 92.0312L62.4932 91.6553L62.4561 89.9531V89.9365L62.4268 87.3242L62.2559 84.7393L62.2432 84.5498L62.2783 84.3623L62.7324 81.9463L62.4521 79.5332L62.4375 79.4092L62.4434 79.2832L62.5732 76.7246L62.4199 74.1699L62.4121 74.04L62.4268 73.9111L62.707 71.4316L62.4473 68.957L62.4434 68.9229L62.4414 68.8887L62.2852 66.249L62.2764 66.1006L62.2969 65.9531L62.3584 65.5039L60.1914 64.6328L59.2266 64.3262L58.6484 64.5547ZM65.4346 68.6836L65.708 71.2832L65.7256 71.4463L65.707 71.6084L65.4229 74.1191L65.5742 76.6299L65.5791 76.7129L65.5742 76.7969L65.4453 79.3086L65.7393 81.8262L65.7656 82.0527L65.7236 82.2773L65.2607 84.7314L65.4238 87.1807L65.4268 87.2227V87.2637L65.4561 89.9033H65.4551L65.4658 90.3857L66.3086 90.0039L66.3203 89.9922H66.332L68.5469 89.043L70.457 87.4375L70.5977 87.3203L70.7617 87.2383L72.9297 86.1719L74.8164 84.5664L76.6094 82.9844L77.6875 80.9102L78.5078 78.9531L78.4102 77.2119L78.3789 77.0205L77.1602 75.2734L75.6133 73.4219L73.7969 71.9336L71.7344 70.5039L69.4609 69.1797L69.4258 69.168L69.3906 69.1445L67.2344 67.7383L65.3174 66.7188L65.4346 68.6836ZM53.9727 66.6406L51.8281 67.9883L51.793 68.0117L51.7578 68.0234L49.5312 69.2422L47.3281 70.6484V70.6367L45.3359 72.1133L43.6484 73.8359L42.0781 75.5117L41.5391 77.3984L41.8906 79.4727L42.5938 81.6055L44.1523 83.3164L45.8281 84.9688L47.9609 86.1758L48.1133 86.2578L48.2422 86.375L50.0938 88.0508L52.25 89.0586H52.2617L52.2734 89.0703L54.4258 90.1035L54.3887 89.4463L54.3818 89.3311L54.3926 89.2168L54.6406 86.6357L54.7139 84.0811L54.7129 81.5107L54.4785 78.9355L54.4775 78.9189L54.4756 78.9023L54.2959 76.2617L54.29 76.166L54.2959 76.0693L54.4512 73.5L54.3652 70.9297L54.3613 70.7959L54.3809 70.6631L54.7451 68.1807L54.627 66.3008L53.9727 66.6406ZM77.8203 54.1133L77.7266 54.2305L77.6094 54.3359L75.5938 56.0586L75.4766 56.1641L75.3359 56.2344L73.168 57.4062L71.0234 58.9531L70.9531 59L70.8711 59.0469L68.5508 60.3242L68.5156 60.3477L68.4688 60.3594L66.1133 61.4844L65.6133 61.7354L65.6494 63.4883L65.6514 63.5889L66.2148 63.8125L66.2969 63.8359L66.3672 63.8828L68.6992 65.1133L68.8164 65.1836L71.0312 66.625L73.2344 67.9023L73.293 67.9375L73.3398 67.9727L75.4961 69.4609L75.5547 69.4961L75.6016 69.5312L77.6289 71.1953L77.7461 71.2891L77.8398 71.3945L78.5889 72.3018L78.7432 71.1631L78.2842 68.7617L78.2393 68.5264L78.2695 68.2871L78.5977 65.748L78.5879 63.2422L78.5146 60.6016L78.5137 60.5928L78.4561 57.9531V57.9365L78.4268 55.3242L78.3047 53.4873L77.8203 54.1133ZM41.7363 55.5732L41.7451 55.7002L41.7324 55.8271L41.4756 58.4307L41.3291 60.9521L41.4912 63.5049L41.4922 63.5127V63.5205L41.6328 66.1602L41.6348 66.1982V66.2354L41.6426 68.875L41.6436 68.9922L41.626 69.1074L41.2393 71.627L41.2412 72.0137L41.457 71.7852L41.4805 71.7617L43.3203 69.8984L43.4023 69.8047L43.4961 69.7344L45.6289 68.1758L45.6641 68.1523L45.7109 68.1172L47.9141 66.7109L48.0078 66.6641L50.3164 65.3984H50.3281L52.4844 64.0391L52.6016 63.9688L54.3574 63.0635L54.3496 62.9658L54.3594 62.8408L54.4033 62.2852L52.8086 61.5625L52.7734 61.5508L52.7383 61.5273L50.3828 60.3203L50.3125 60.2734L50.2305 60.2266L48.1328 58.8086L45.8359 57.6836L45.707 57.625L45.5898 57.5312L43.4805 55.9375L43.375 55.8555L43.2812 55.7617L41.6211 53.9609L41.7363 55.5732ZM60.6133 47.3711H60.5195L57.8828 47.3594H57.7539L57.4121 47.3271L57.29 49.6982L57.6221 52.2031L57.6436 52.3721L57.6279 52.541L57.3877 55.0801L57.4824 57.624L57.4834 57.6348L57.5635 60.2744L57.5664 60.3564L57.5596 60.4385L57.5586 60.4473L58.7969 61.0352L59.1123 61.1377L60.0195 60.7812L60.0898 60.7578L62.5273 59.9375L62.6162 59.8916L62.6533 58.207L62.6689 55.5908L62.6699 55.583V55.5752L62.7109 53.0107L62.4854 50.4521L62.4824 50.4141L62.4805 50.376L62.3818 47.7363L62.3799 47.6777L62.3818 47.6182L62.3955 47.2754L60.6133 47.3711ZM41.3447 37.0859L41.7334 39.6123L41.7529 39.7402L41.751 39.8711L41.6963 42.5107L41.6953 42.5869L41.6855 42.6621L41.3818 45.1465L41.6016 47.6279L41.6104 47.7246L41.6064 47.8213L41.6025 47.9062L42.4727 49.9258L43.7852 51.8828L45.3789 53.6055L47.2773 55.0469L49.5391 56.1602L49.6328 56.207L49.7148 56.2656L51.8125 57.6719L54.1094 58.8672L54.5244 59.0518L54.4844 57.7256L54.4854 57.7246L54.3867 55.0957L54.3828 54.9971L54.3926 54.8994L54.626 52.4297L54.2988 49.957L54.2803 49.8203L54.2871 49.6826L54.4189 47.124L54.4053 46.9209L52.2344 46.1641L52.1406 46.1406L52.0586 46.0938L49.6797 44.9102L49.5742 44.8633L49.4805 44.8047L47.3008 43.2812L47.2539 43.2461L47.1953 43.1992L45.168 41.4883L45.0039 41.3477L44.875 41.1719L43.4688 39.0391L41.875 36.9648L41.8281 36.918L41.8047 36.8594L41.3447 36.1553V37.0859ZM77.1836 38.2305L75.7773 40.3398L75.6953 40.4688L75.5898 40.5742L73.7148 42.4375L73.6328 42.5195L73.5391 42.5898L71.4062 44.1602L71.3594 44.1953L71.3125 44.2188L69.0508 45.625L68.8867 45.7188L68.7109 45.7773L66.1797 46.5742L66.1211 46.5859L66.0625 46.6094L65.4189 46.7549L65.3818 47.6846L65.4766 50.2285L65.707 52.8281L65.7139 52.9062L65.7129 52.9844L65.6689 55.625L65.6533 58.249V58.2607L65.6523 58.2734L65.6494 58.3838L67.1094 57.6875L69.3359 56.4688L71.4102 54.9688L71.4805 54.9102L71.5742 54.8633L73.7656 53.668L75.5586 52.1445L76.9766 50.3164L77.9844 48.2656L78.4766 46.0039L78.5186 45.791L78.5732 44.7246L78.4199 42.1699L78.4121 42.04L78.4268 41.9111L78.707 39.4316L78.4473 36.957L78.4434 36.9229L78.4414 36.8887L78.4248 36.6191L77.1836 38.2305ZM61.3799 25.5635L61.3662 25.5645L61.3516 25.5654L58.7119 25.6914L58.6318 25.6953L58.5527 25.6904L57.6885 25.6396L57.71 25.8408L57.7256 25.9863L57.7129 26.1328L57.4785 28.752L57.4795 28.7529L57.2881 31.2715L57.5137 33.7832L57.7549 36.4238L57.7734 36.6201L57.7393 36.8145L57.3105 39.2969L57.4023 41.7852L57.4053 41.8564L57.4004 41.9277L57.2598 44.2979L57.9062 44.3594H60.4375L62.4961 44.2529L62.5146 42.3857V42.3418L62.5176 42.2979L62.6914 39.7363L62.5732 37.1895L62.5713 37.1504V37.1104L62.5879 34.4971L62.5576 31.9053L62.3369 29.3281L62.3242 29.1816L62.3408 29.0352L62.6162 26.5352L62.5361 25.4863L61.3799 25.5635ZM47.9795 25.3896L45.3799 25.5635L45.3662 25.5645L45.3516 25.5654L42.7119 25.6914L42.6191 25.6963L42.5264 25.6895L41.54 25.6133L41.5703 25.9023L41.582 25.9375V25.9727L41.7109 28.4336L42.4141 30.8008L42.4375 30.8711L42.9883 33.2031L44.2422 35.125L45.8477 37.2109L45.8828 37.2578L45.9062 37.293L47.2539 39.332L49.0586 40.8438L51.1094 42.2734L53.2422 43.3398L54.291 43.7031L54.4023 41.8271L54.3076 39.2549L54.3018 39.0986L54.3281 38.9453L54.75 36.5L54.5264 34.0566V34.0537L54.29 31.4141L54.2783 31.29L54.2881 31.167L54.4873 28.5273L54.4883 28.5166L54.4893 28.5068L54.7119 26.0156L54.6611 25.5479L53.3281 25.6631L53.1816 25.6758L53.0352 25.6592L50.4785 25.377L47.9795 25.3896ZM74.4521 25.5146L74.4141 25.5176L74.376 25.5195L71.7363 25.6182L71.6777 25.6201L71.6182 25.6182L68.9951 25.5098L66.3857 25.4854H66.3418L66.2979 25.4824L65.541 25.4307L65.6182 26.4463L65.6289 26.5859L65.6133 26.7246L65.3379 29.2158L65.5527 31.7119L65.5576 31.7676V31.8232L65.5879 34.4629V34.4893L65.5713 37.0957L65.6924 39.6904L65.6963 39.7764L65.6904 39.8623L65.5137 42.4492L65.502 43.6445L67.6094 42.9766L69.6367 41.7227L71.6758 40.2227L73.3281 38.5938L74.7461 36.4844L74.7812 36.4375L74.8047 36.4023L76.3164 34.4336L77.2773 32.2773L77.8516 29.8633L78.168 27.4141L78.4209 25.4023L78.4004 25.3105L77.0107 25.2881L74.4521 25.5146ZM58.668 5.3125L56.3242 6.08594L56.2773 6.09766L56.2188 6.10938L53.7344 6.73047L53.7461 6.74219L51.5078 7.41016L49.8086 9.00391L49.7148 9.09766L49.5859 9.16797L47.5234 10.457L45.9648 12.168L44.5703 14.207L43.4453 16.3984L42.5664 18.6836L42.1211 21.1211L42.0742 21.3086L41.6748 22.5H41.9795L41.9561 22.6367L42.666 22.6914L45.208 22.5684V22.5693L47.8203 22.3936L47.8662 22.3906H47.9121L50.5527 22.377H50.6387L50.7246 22.3867L53.2158 22.6621L55.7119 22.4473L55.7676 22.4424H55.8232L58.4629 22.4121H58.4893L61.0957 22.4287L63.6904 22.3076L63.7764 22.3037L64.4639 22.3506L65.3027 22.2949L65.3105 22.4082L66.4492 22.4863L69.0547 22.5107L69.1016 22.5127L71.6846 22.6182L74.2285 22.5234L76.8281 22.293L76.9062 22.2861L76.9844 22.2871L78.3057 22.3086L78.1328 20.5703L77.2891 18.2969L77.2656 18.2383L77.2539 18.168L76.5742 15.7656L75.4375 13.8555L73.6445 12.168L73.6211 12.1328L73.5859 12.1094L71.7812 10.2227L70.1641 8.54688L67.9727 7.63281L67.9258 7.60938L67.8672 7.57422L65.7461 6.46094L63.3906 6.08594L63.2734 6.07422L63.1562 6.03906L60.8242 5.26562L58.668 5.3125Z" fill="black"/>
</svg>
