<svg width="120" height="120" viewBox="0 0 120 120" fill="none" xmlns="http://www.w3.org/2000/svg">
<path d="M111.312 114.289L112.355 114.547L111.652 117.453L110.891 117.266L108.547 117.629L108.453 117.652H108.359L105.723 117.723H105.582L103.051 117.301L100.672 117.734L100.438 117.781L100.203 117.746L97.6367 117.406H95.2344L92.5977 117.629L92.4922 117.641L92.3984 117.629L89.75 117.477V117.465L87.2773 117.348L84.7812 117.734L84.582 117.77L84.3945 117.746L81.8516 117.453L79.2969 117.477L79.2852 117.465L76.7773 117.711L76.6133 117.723L76.4492 117.699L73.918 117.383L71.3867 117.43H71.3281L68.6914 117.371H68.6445L66.1719 117.23L63.7109 117.699L63.4766 117.746L63.2305 117.711L60.7227 117.348L58.2383 117.488H58.0156L55.5898 117.242L53.1406 117.676L52.8828 117.723L52.6133 117.676L50.1172 117.242L47.6914 117.395H47.668L47.6445 117.406L42.3711 117.57H42.2539L42.1367 117.559L39.5938 117.254L37.1328 117.418L37.0508 117.43L36.957 117.418L34.5078 117.277L32 117.699L31.7891 117.734L31.5781 117.711L29.0234 117.395L26.5391 117.324L23.9492 117.512L23.8906 117.523H23.832L21.1953 117.512H21.0781L18.5 117.301L16.0508 117.395L16.0625 117.406L13.4258 117.664L13.2734 117.676L13.1211 117.664L10.625 117.395L8.16406 117.5H8V114.5H8.03516L10.5781 114.395L10.6836 114.383L10.8008 114.395L13.2852 114.664L15.7695 114.418H15.8633L18.5 114.312L18.5938 114.301L18.6758 114.312L21.3125 114.512L21.3008 114.523H23.7383L26.375 114.336L26.4453 114.324L26.5273 114.336L29.1641 114.406H29.2344L29.293 114.418L31.7305 114.699L34.1562 114.301L34.3203 114.277L34.4844 114.289L37.0156 114.43L39.582 114.254L39.7227 114.242L39.8633 114.266L42.3711 114.57L44.9141 114.488L47.5039 114.418V114.406L50.1523 114.242L50.3281 114.23L50.5039 114.266L52.8828 114.688L55.2617 114.266L55.4609 114.23L55.6602 114.242L58.1328 114.488L60.7227 114.348L60.8633 114.336L61.0156 114.359L63.418 114.711L65.8086 114.266L65.9844 114.23L66.1602 114.242L68.7969 114.371L68.7852 114.383L71.3633 114.43L73.9766 114.383H74.082L74.1875 114.395L76.6836 114.711L79.1445 114.477H79.2734L81.9102 114.453H82.0039L82.0859 114.465L84.5469 114.746L86.9727 114.371L87.125 114.348L87.2773 114.359L89.9141 114.488H89.9258L92.4453 114.641L95 114.43L95.0586 114.418H95.1055L97.7539 114.406H97.8594L97.9648 114.418L100.367 114.746L102.77 114.312L103.027 114.266L103.285 114.301L105.816 114.723L108.137 114.664L110.738 114.266L111.031 114.219L111.312 114.289Z" fill="black"/>
<path d="M74.1602 49.2422L76.7969 49.3711L76.7852 49.3828L79.3633 49.4297L81.9766 49.3828H82.082L82.1875 49.3945L84.6836 49.7109L87.1445 49.4766H87.2734L89.9102 49.4531H90.0039L90.0859 49.4648L92.5469 49.7461L94.9727 49.3711L95.125 49.3477L95.2773 49.3594L97.9141 49.4883H97.9258L100.445 49.6406L103 49.4297L103.363 49.3945L103.703 49.5352L105.684 50.3789L106.738 50.8242L106.586 51.9609L106.246 54.3633L106.691 56.7773L106.738 57.0234L106.691 57.2812L106.281 59.7539L106.34 62.2383L106.738 64.7344L106.75 64.8516V64.9688L106.738 67.6055V67.7109L106.727 67.8164L106.352 70.3125L106.504 72.7969V72.8672L106.516 75.5156V75.5625L106.445 78.1992L106.387 80.8359V80.8477L106.305 83.3555L106.645 85.8867L106.656 86.0156V86.1562L106.527 88.793L106.738 91.2422L106.75 91.3828L106.727 91.5352L106.434 94.043L106.516 96.5977V99.2109L106.645 101.848V101.953L106.598 104.59L106.539 107.227L106.504 109.863L106.598 112.43L106.691 115.066L106.715 116.004L105.895 116.438L103.949 117.492L103.609 117.68L103.211 117.668L100.574 117.621H100.504L100.434 117.609L97.9023 117.316L95.4648 117.363L92.8398 117.645L92.7578 117.656H89.9336L87.2969 117.469V117.457L84.7188 117.387V117.375L82.0938 117.34L79.5039 117.293L76.8906 117.387H76.8203L74.1836 117.352H74.1367L71.5938 117.234L69.0977 117.539H69.0508L69.0039 117.551L66.3672 117.703H66.2148L63.5664 117.586V117.574L61 117.551L58.3867 117.598H58.3633L55.7266 117.609H55.6445L55.5625 117.598L53.0547 117.34L50.5703 117.562H50.4062L47.7695 117.516L45.168 117.527H45.1445L42.4961 117.492H42.4141L39.9648 117.316L37.4922 117.738L37.2227 117.785L36.9648 117.738L34.457 117.27L32.0781 117.281L29.4414 117.504H29.4297L29.418 117.516L26.7812 117.691H24.0625L21.4141 117.715L21.2852 117.727L21.168 117.703L18.6602 117.293L16.2109 117.457L14.6055 117.551L14.6172 115.945L14.6406 113.566L14.5 110.918V110.801L14.5703 108.363L14.2891 105.727L14.2656 105.516L14.3008 105.305L14.7227 102.891L14.4062 100.477L14.3945 100.348V100.207L14.5234 97.6172H14.5117L14.5586 95.0039L14.2891 92.5195L14.2656 92.3789L14.2773 92.2266L14.5117 89.5898L14.5469 87.0586V86.9531L14.7578 84.5156L14.4062 82.0078L14.3945 81.8906V81.7852L14.4297 79.1367V79.0664L14.6055 76.418L14.6875 73.9102L14.6289 71.3438L14.4531 68.707L14.4414 68.6719V68.6484L14.3711 66L14.3008 63.3633L14.2891 63.2227L14.3125 63.082L14.6992 60.6797L14.3125 58.2773L14.2891 58.125V57.9727L14.4062 55.4062L14.3945 52.7695V52.6406L14.5352 50.8828L16 51V49.5H16.0352L18.5781 49.3945L18.6836 49.3828L18.8008 49.3945L21.2852 49.6641L23.7695 49.418H23.8633L26.5 49.3125L26.5938 49.3008L26.6758 49.3125L29.3125 49.5117L29.3008 49.5234H31.7383L34.375 49.3359L34.4453 49.3242L34.5273 49.3359L37.1641 49.4062H37.2344L37.293 49.418L39.7305 49.6992L42.1562 49.3008L42.3203 49.2773L42.4844 49.2891L45.0156 49.4297L47.582 49.2539L47.7227 49.2422L47.8633 49.2656L50.3711 49.5703L52.9141 49.4883L55.5039 49.418V49.4062L58.1523 49.2422L58.3281 49.2305L58.5039 49.2656L60.8828 49.6875L63.2617 49.2656L63.4609 49.2305L63.6602 49.2422L66.1328 49.4883L68.7227 49.3477L68.8633 49.3359L69.0156 49.3594L71.418 49.7109L73.8086 49.2656L73.9844 49.2305L74.1602 49.2422ZM71.7109 52.6992L71.4766 52.7461L71.2305 52.7109L68.7227 52.3477L66.2383 52.4883H66.0156L63.5898 52.2422L61.1406 52.6758L60.8828 52.7227L60.6133 52.6758L58.1172 52.2422L55.6914 52.3945H55.668L55.6445 52.4062L50.3711 52.5703H50.2539L50.1367 52.5586L47.5938 52.2539L45.1328 52.418L45.0508 52.4297L44.957 52.418L42.5078 52.2773L40 52.6992L39.7891 52.7344L39.5781 52.7109L37.0234 52.3945L34.5391 52.3242L31.9492 52.5117L31.8906 52.5234H31.832L29.1953 52.5117H29.0781L26.5 52.3008L24.0508 52.3945L24.0625 52.4062L21.4258 52.6641L21.2734 52.6758L21.1211 52.6641L18.625 52.3945L17.4062 52.4414L17.3945 52.7461L17.4062 55.3945V55.4648L17.2891 57.9258L17.6875 60.4453L17.7344 60.6797L17.6875 60.9141L17.2891 63.4336L17.3711 65.918L17.4414 68.4961L17.6289 71.1328V71.2031L17.6875 73.8398V73.9336L17.5938 76.5703V76.6172L17.4297 79.2539L17.3945 81.6914L17.7461 84.2344L17.7695 84.3984L17.7578 84.5625L17.5352 87.0938L17.5117 89.7422V89.8008L17.5 89.8477L17.2773 92.332L17.5469 94.8398L17.5586 94.9336V95.0273L17.5117 97.6641V97.7109L17.3945 100.219L17.7227 102.727L17.7578 102.949L17.7109 103.172L17.2891 105.609L17.5703 108.141V108.234L17.5 110.754L17.6406 113.402V113.496L17.6289 114.363L18.6719 114.305L18.8359 114.293L19 114.316L21.4844 114.703L24.0273 114.691H26.582L29.1953 114.516L31.832 114.293H31.9492L34.5859 114.27H34.7383L34.8789 114.293L37.2578 114.738L39.625 114.34L39.8008 114.305L39.9883 114.316L42.5312 114.492L45.168 114.516H47.8281L50.4414 114.551L52.9492 114.34L53.0898 114.328L53.2305 114.34L55.8672 114.598H58.3398L60.9766 114.551H61.0117L63.6602 114.586H63.707L66.25 114.691L68.8281 114.551L71.3828 114.246L71.5 114.234H71.6289L74.2656 114.352H74.2539L76.7969 114.375L79.4336 114.293H79.5039L82.1523 114.34L84.7891 114.387H84.8008L87.4492 114.469H87.5078L90.1445 114.656H92.5234L95.1602 114.387H95.2305L95.2891 114.375L97.9258 114.316H98.0312L98.1367 114.328L100.668 114.621L102.871 114.656L103.656 114.234L103.598 112.535L103.516 109.887L103.504 109.852V109.816L103.539 107.18V107.168L103.598 104.531L103.645 101.988L103.516 99.3516V96.6797L103.434 94.043V93.9375L103.727 91.3008L103.527 88.8398V88.6523L103.645 86.1328L103.316 83.6367L103.305 83.5195V83.3906L103.398 80.7539L103.445 78.1172L103.516 75.5273L103.504 72.9609L103.363 70.3242L103.352 70.1719L103.375 70.0195L103.738 67.5352V65.0273L103.363 62.543L103.352 62.4492V62.3555L103.281 59.7188V59.5781L103.305 59.4375L103.691 57.0586L103.258 54.668L103.223 54.4336L103.258 54.1992L103.457 52.6875L102.871 52.4414L100.598 52.6289L100.492 52.6406L100.398 52.6289L97.75 52.4766V52.4648L95.2773 52.3477L92.7812 52.7344L92.582 52.7695L92.3945 52.7461L89.8516 52.4531L87.2969 52.4766L87.2852 52.4648L84.7773 52.7109L84.6133 52.7227L84.4492 52.6992L81.918 52.3828L79.3867 52.4297H79.3281L76.6914 52.3711H76.6445L74.1719 52.2305L71.7109 52.6992Z" fill="black"/>
<path d="M87.1602 49.2422L89.7969 49.3711L89.9141 49.3828L90.0195 49.4062L92.375 49.8867L93.5469 50.1328L93.5703 51.3398L93.6172 53.9766V54.082L93.6055 54.1875L93.2891 56.6836L93.5234 59.1445V59.2734L93.5469 61.9102V62.0039L93.5352 62.0859L93.2539 64.5469L93.6289 66.9727L93.6523 67.125L93.6406 67.2773L93.5117 69.9141V69.9258L93.3594 72.4453L93.5703 75L93.582 75.0586V75.1055L93.5938 77.7539V77.8594L93.582 77.9648L93.2539 80.3672L93.6875 82.7695L93.7344 83.0273L93.6992 83.2852L93.2773 85.8164L93.3359 88.1367L93.7344 90.7383L93.7578 90.8438V90.9609L93.7461 93.6094V93.7148L93.7227 93.8203L93.3594 96.2578L93.5 98.8008V98.8711L93.5234 101.508V101.566L93.4531 104.191L93.3945 106.828V106.852L93.3008 109.359L93.6406 111.879L93.6641 112.02L93.6523 112.148L93.5234 114.797L93.5 115.336L93.1367 115.734L91.7539 117.246L91.2266 117.82L90.4648 117.727L87.9453 117.434L85.4023 117.516H82.7891L80.1523 117.645H80.0469L77.4102 117.598L74.7734 117.539V117.527L72.1836 117.504L69.5703 117.598L66.9336 117.691H66.875L64.2266 117.668H64.2148L61.5781 117.621H61.4961L61.4258 117.609L58.9062 117.316L56.457 117.363L56.4688 117.375L53.832 117.645L53.7617 117.656H50.9375L48.2891 117.469V117.457L45.7109 117.387V117.375L43.0977 117.34L40.4961 117.293L37.8945 117.387H37.8242L35.1758 117.352H35.1406L32.5977 117.234L30.0898 117.539L29.1641 117.645L28.6602 116.848L27.5352 115.09L27.2773 114.68L27.3008 114.211L27.418 111.574L27.4414 109.02L27.4062 106.383V106.371L27.3945 103.723V103.641L27.4062 103.57L27.6641 101.051L27.4414 98.5664L27.4297 98.4961V98.4141L27.4883 95.8125L27.4648 93.1758V93.1406L27.5 90.5039V90.457L27.5117 90.4219L27.6875 87.9375L27.2539 85.4883L27.207 85.2305L27.2656 84.9609L27.7344 82.4531L27.7109 80.0859L27.4883 77.4492V77.4258L27.3125 74.7773V72.0586L27.2773 69.4219V69.293L27.3008 69.1641L27.7109 66.668L27.5469 64.207V64.0664L27.6406 61.5586L27.5 58.9219V58.8047L27.5703 56.3672L27.2891 53.7188L27.2656 53.5078L27.3008 53.2969L27.7578 50.7305L29 50.9648V49.5H29.0352L31.5781 49.3945L31.6836 49.3828L31.8008 49.3945L34.2852 49.6641L36.7695 49.418H36.8633L39.5 49.3125L39.5938 49.3008L39.6758 49.3125L42.3125 49.5117L42.3008 49.5234H44.7383L47.375 49.3359L47.4453 49.3242L47.5273 49.3359L50.1641 49.4062H50.2344L50.293 49.418L52.7305 49.6992L55.1562 49.3008L55.3203 49.2773L55.4844 49.2891L58.0156 49.4297L60.582 49.2539L60.7227 49.2422L60.8633 49.2656L63.3711 49.5703L65.9141 49.4883L68.5039 49.418V49.4062L71.1523 49.2422L71.3281 49.2305L71.5039 49.2656L73.8828 49.6875L76.2617 49.2656L76.4609 49.2305L76.6602 49.2422L79.1328 49.4883L81.7227 49.3477L81.8633 49.3359L82.0156 49.3594L84.418 49.7109L86.8086 49.2656L86.9844 49.2305L87.1602 49.2422ZM84.7109 52.6992L84.4766 52.7461L84.2305 52.7109L81.7227 52.3477L79.2383 52.4883H79.0156L76.5898 52.2422L74.1406 52.6758L73.8828 52.7227L73.6133 52.6758L71.1172 52.2422L68.6914 52.3945H68.668L68.6445 52.4062L63.3711 52.5703H63.2539L63.1367 52.5586L60.5938 52.2539L58.1328 52.418L58.0508 52.4297L57.957 52.418L55.5078 52.2773L53 52.6992L52.7891 52.7344L52.5781 52.7109L50.0234 52.3945L47.5391 52.3242L44.9492 52.5117L44.8906 52.5234H44.832L42.1953 52.5117H42.0781L39.5 52.3008L37.0508 52.3945L37.0625 52.4062L34.4258 52.6641L34.2734 52.6758L34.1211 52.6641L31.625 52.3945L30.5 52.4414L30.2891 53.6133L30.5586 56.0391L30.5703 56.1328V56.2383L30.5 58.7578L30.6406 61.3945V61.5352L30.5469 64.1719L30.6992 66.668L30.7109 66.832L30.6875 66.9961L30.2773 69.5391L30.3125 72.0234V74.6836L30.4883 77.2148H30.4766L30.6992 79.8398L30.7109 79.8867V79.9453L30.7344 82.582V82.7344L30.6992 82.875L30.2539 85.2188L30.6641 87.6211L30.6992 87.8086L30.6875 87.9844L30.5 90.6211L30.4648 93.1758L30.4883 95.7891V95.8242L30.4297 98.3086L30.6641 100.945L30.6758 101.086L30.6641 101.238L30.3945 103.711L30.4062 106.359L30.4414 108.973V109.02L30.418 111.656V111.703L30.3125 113.859L30.6875 114.445L32.3867 114.246L32.5039 114.234H32.6211L35.2695 114.352H35.2578L37.8008 114.375L40.4258 114.293H40.5078L45.7812 114.387H45.8047L48.4414 114.469H48.5117L51.1484 114.656H53.5273L56.1641 114.387H56.2227L56.2812 114.375L58.918 114.316H59.0234L59.1289 114.328L61.6836 114.621L64.2734 114.668H64.2617L66.8398 114.68L69.4648 114.598L72.1133 114.516L72.1484 114.504H72.1836L74.8203 114.539H74.832L77.4688 114.598L80.0352 114.633L82.6484 114.516H85.3203L87.957 114.434H88.0625L88.168 114.445L90.043 114.656L90.5469 114.105L90.6406 112.137L90.3125 109.641L90.3008 109.512V109.395L90.3945 106.746L90.4531 104.133V104.121L90.5234 101.531L90.5 98.8828H90.5117L90.3594 96.3281L90.3477 96.1758L90.3711 96.0234L90.7461 93.457V91.1016L90.3711 88.5469L90.3477 88.4531V88.3594L90.2773 85.7227V85.582L90.3008 85.4414L90.6875 83.0508L90.2656 80.6719L90.2188 80.4375L90.2539 80.2031L90.582 77.6367V75.2461L90.3711 72.5977L90.3594 72.4922L90.3711 72.3984L90.5234 69.75L90.6406 67.2773L90.2656 64.7812L90.2305 64.582L90.2539 64.3945L90.5352 61.8516L90.5234 59.2969V59.2852L90.2891 56.7773L90.2773 56.6133L90.3008 56.4492L90.6055 53.918L90.582 52.582L89.5508 52.3594L87.1719 52.2305L84.7109 52.6992Z" fill="black"/>
<path d="M66.6133 49.7344L68.0312 51.1289L68.4883 51.5742V52.207L68.4766 54.7383L68.6641 57.375L68.6758 57.4453L68.6641 57.5273L68.5938 60.1641V60.2344L68.582 60.293L68.2773 62.9414L68.2188 63.3633L67.9492 63.7031L66.7656 65.1562L66.2852 65.7539L65.5234 65.7188L62.9688 65.5781L60.4141 65.7422L60.2734 65.7539L60.1328 65.7422L57.6133 65.4258L55.0938 65.5078L53.6172 65.5664L53.5469 64.0898L53.4062 61.4883L53.2422 58.8516L53.2305 58.6758L53.2656 58.5L53.6875 56.1211L53.2656 53.7422L53.2305 53.5312L53.2539 53.332L53.5 50.8477L53.6289 49.5H55.0352L57.5781 49.3945L57.6836 49.3828L57.8008 49.3945L60.2852 49.6641L62.7695 49.418H62.8633L65.5 49.3125L66.1445 49.2773L66.6133 49.7344ZM63.0508 52.3945L63.0625 52.4062L60.4258 52.6641L60.2734 52.6758L60.1211 52.6641L57.625 52.3945L56.3359 52.4414L56.2422 53.4023L56.6758 55.8633L56.7227 56.1211L56.6758 56.3789L56.2422 58.8516L56.3945 61.3125V61.3242L56.4531 62.4609L57.625 62.4258H57.7422L57.8594 62.4375L60.332 62.7422L62.8633 62.5781H63.0391L64.9141 62.6719L65.3359 62.1562L65.5938 60.0234L65.6758 57.5859L65.4883 54.9492L65.4766 54.8906V52.8164L64.9727 52.3242L63.0508 52.3945Z" fill="black"/>
<path d="M70.418 28.6641L72.0352 29.9531L72.6797 30.4688L72.5859 31.3008L72.293 33.7266L72.6914 36.1523L72.7266 36.3164L72.7148 36.4805L72.5742 39.0117L72.75 41.5781V41.7188L72.7383 41.8594L72.4219 44.4375L72.5156 46.9102L72.5977 49.5469L72.6211 50.1094L72.2695 50.543L70.9336 52.207L70.3711 52.8984L69.5039 52.7344L67.1133 52.3125L64.7344 52.7344L64.5352 52.7695L64.3359 52.7578L61.8516 52.5117L59.2852 52.6523L59.1328 52.6641L58.9922 52.6406L56.5781 52.2891L54.1992 52.7344L54.0234 52.7695L53.8359 52.7578L51.1992 52.6289L49.9688 52.5586L49.793 51.3398L49.4414 48.8438L49.4297 48.7617V48.668L49.3828 46.0195V45.9141L49.3945 45.8203L49.7109 43.3125L49.4766 40.8516V40.7344L49.4531 38.0859V38.0039L49.4648 37.9102L49.7344 35.4375L49.3711 33.0234L49.3477 32.8711L49.3594 32.7305L49.4883 30.082V30.0117L49.5117 29.8477L49.6406 28.5H51.0352L53.5781 28.3945L53.6836 28.3828L53.8008 28.3945L56.2852 28.6641L58.7695 28.418H58.8633L61.5 28.3125L61.5938 28.3008L61.6758 28.3125L64.3125 28.5117L64.3008 28.5234H66.7383L69.375 28.3359L69.9609 28.2891L70.418 28.6641ZM59.0508 31.3945L59.0625 31.4062L56.4258 31.6641L56.2734 31.6758L56.1211 31.6641L53.625 31.3945L52.4062 31.4414L52.3477 32.707L52.7344 35.2148L52.7695 35.4141L52.7461 35.6133L52.4531 38.1328L52.4648 40.6992L52.7109 43.2188L52.7227 43.3828L52.6992 43.5469L52.3828 46.0664L52.418 48.4922L52.5938 49.6875L53.8242 49.7578L56.2852 49.3008L56.5312 49.2539L56.7773 49.2891L59.2734 49.6406L61.7578 49.5117H61.9805L64.3945 49.7461L66.8555 49.3242L67.125 49.2773L67.3828 49.3242L69.1406 49.6289L69.5742 49.0781L69.5156 47.0039L69.4336 44.3672L69.4219 44.25L69.4336 44.1328L69.7383 41.6484L69.5742 39.1406V38.9648L69.7031 36.4453L69.3047 34.0078L69.2695 33.7969L69.293 33.5859L69.5039 31.7695L68.9883 31.3594L66.9492 31.5117L66.8906 31.5234H66.832L64.1953 31.5117H64.0781L61.5 31.3008L59.0508 31.3945Z" fill="black"/>
<path d="M61.8516 20.4062L64.4648 20.7812L64.5234 20.793L64.5938 20.8047L67.1484 21.4023L67.4297 21.4727L67.6758 21.6367L69.8555 23.1836L70.1367 23.3828L70.3008 23.6758L71.6016 26.0078L71.6953 26.1719L71.7422 26.3594L72.3984 28.9023L72.7031 30.0977L71.6016 30.625L69.7383 31.5156L69.4102 31.6797L69.0469 31.668L66.4102 31.5977H66.3398L66.2695 31.5859L63.832 31.293L61.4062 31.6914L61.2539 31.7266L61.0898 31.7148L58.5469 31.5742L55.9805 31.75H55.8398L55.7109 31.7383L53.0625 31.4219L53.0508 31.4102H53.0391L50.7891 31.0938L49.2422 30.8711L49.5234 29.3359L50.0039 26.7344L50.0391 26.5L50.1445 26.3008L51.3984 23.9219L51.6094 23.5352L51.9727 23.3242L54.293 21.9766V21.9883L56.5781 20.6172L56.9648 20.3828L57.4219 20.4062L59.0742 20.4883L59.4844 20.5117L61.5586 20.3945L61.7109 20.3828L61.8516 20.4062ZM59.1797 23.5352L58.8867 23.5469L58.6641 23.4648L57.7148 23.418L55.8164 24.5664L55.793 24.5781L53.8477 25.6914L52.8984 27.5078L52.7461 28.3398L53.4141 28.4336H53.4258L55.9102 28.7383L58.4297 28.5742H58.6055L61.1016 28.7031L63.5625 28.3047L63.7734 28.2695L63.9844 28.293L66.5273 28.5977L68.7656 28.6562L69.1758 28.457L68.8711 27.2734L67.8516 25.4453L66.1758 24.25L63.9844 23.7461L61.5586 23.3828L59.1797 23.5352Z" fill="black"/>
<path d="M61.4023 34.7344L64.0156 35.1211L64.5898 35.2031L64.9648 35.6484L66.6758 37.7227L66.8516 37.9453L66.9453 38.2266L67.6836 40.5469L68.293 42.5039H67.1445L66.8867 43.8633L66.7812 44.4023L66.3477 44.7422L64.3203 46.3711L64.1211 46.5352L63.8867 46.6172L61.4375 47.4961L61.0156 47.6484L60.582 47.543L57.9688 46.9102L57.4883 46.793L57.1719 46.4062L55.4727 44.3555L55.25 44.0859L55.168 43.7461L54.5586 41.2148L54.4766 40.875L54.5586 40.5352L55.1445 37.9453L55.25 37.4766L55.6133 37.1602L57.6172 35.3789L57.9688 35.0625L58.4492 35.0039L61.0273 34.7344L61.2148 34.7109L61.4023 34.7344ZM59.2461 37.9336L57.957 39.082L57.5586 40.8633L58.0039 42.7031L59.1523 44.0977L60.8516 44.5195L62.6445 43.8633L64.0508 42.7383L64.4375 40.7461L64.4961 40.418L64.168 39.3984L63.0078 37.9922L61.1328 37.7344L59.2461 37.9336Z" fill="black"/>
<path d="M73.1602 62.7422L75.7969 62.8711L75.7852 62.8828L78.3633 62.9297L80.9766 62.8828L81.082 62.8828L81.1875 62.8945L83.6836 63.2109L86.1445 62.9766L86.2734 62.9766L88.9102 62.9531L89.0039 62.9531L89.0859 62.9649L91.5469 63.2461L93.9727 62.8711L94.125 62.8477L94.2773 62.8594L96.9141 62.9883L96.9258 62.9883L99.4453 63.1406L102 62.9297L102.059 62.918L102.105 62.918L104.754 62.9063L105.047 62.9063L105.316 63.0117L105.563 63.1055L105 64.5L104.766 65.0859L104.766 65.9063L102.234 65.918L99.5977 66.1289L99.4922 66.1406L99.3984 66.1289L96.75 65.9766L94.2773 65.8594L91.7812 66.2344L91.582 66.2695L91.3945 66.2461L88.8516 65.9649L86.2969 65.9766L86.2852 65.9766L83.7773 66.2109L83.6133 66.2227L83.4492 66.1992L80.918 65.8945L78.3867 65.9297L78.3281 65.9297L75.6914 65.8711L75.6445 65.8711L73.1719 65.7422L70.7109 66.1992L70.4766 66.2461L70.2305 66.2109L67.7227 65.8594L65.2383 65.9883L65.0156 65.9883L62.5898 65.7539L60.1406 66.1758L59.8828 66.2227L59.6133 66.1758L57.1172 65.7539L54.6914 65.8945L54.668 65.8945L54.6445 65.9063L49.3711 66.0703L49.2539 66.0703L49.1367 66.0586L46.5938 65.7656L44.1328 65.918L44.0508 65.9297L43.957 65.918L41.5078 65.7891L39 66.1992L38.7891 66.2344L38.5781 66.2109L36.0234 65.9063L33.5391 65.8359L30.9492 66.0117L30.8906 66.0234L30.832 66.0234L28.1953 66.0117L28.0781 66.0117L25.5 65.8125L23.0508 65.9063L23.0625 65.9063L20.4258 66.1641L20.2734 66.1758L20.1211 66.1641L17.625 65.9063L15.1641 66L15 66L15 63L15.0352 63L17.5781 62.8945L17.6836 62.8828L17.8008 62.8945L20.2852 63.1641L22.7695 62.918L22.8633 62.918L25.5 62.8125L25.5938 62.8008L25.6758 62.8125L28.3125 63.0117L28.3008 63.0234L30.7383 63.0234L33.375 62.8359L33.4453 62.8242L33.5273 62.8359L36.1641 62.9063L36.2344 62.9063L36.293 62.918L38.7305 63.1992L41.1563 62.8008L41.3203 62.7773L41.4844 62.7891L44.0156 62.9297L46.582 62.7539L46.7227 62.7422L46.8633 62.7656L49.3711 63.0703L51.9141 62.9883L54.5039 62.918L54.5039 62.9063L57.1523 62.7422L57.3281 62.7305L57.5039 62.7656L59.8828 63.1875L62.2617 62.7656L62.4609 62.7305L62.6602 62.7422L65.1328 62.9883L67.7227 62.8477L67.8633 62.8359L68.0156 62.8594L70.418 63.2109L72.8086 62.7656L72.9844 62.7305L73.1602 62.7422Z" fill="black"/>
<path d="M62.0156 72.3711L64.6406 72.7227L64.6289 72.7344L67.2539 73.0039L67.4766 73.0391L67.6875 73.1211L70.0664 74.1641H70.0781L72.5391 75.125L72.6328 75.1602L72.7148 75.2188L75.0234 76.4961L75.0586 76.5195L75.1055 76.543L77.3438 77.9609L77.4492 78.0312L77.543 78.1133L79.5117 79.9062L79.5703 79.9531L79.6172 80.0117L81.375 81.9922L81.4688 82.1094L83.0273 84.2422L83.0742 84.3125L84.5039 86.5391L84.5508 86.6094L84.5859 86.6797L85.7695 89.0586L85.8164 89.1523L85.8516 89.2578L86.6836 91.7891L86.7305 91.9531L87.2461 94.5547L87.2812 94.707V94.8594L87.2695 97.4023L87.2812 97.4961H87.5039V99.0312L87.6094 101.574V101.691L87.5977 101.797L87.3398 104.27L87.5859 106.777V106.859L87.6914 109.496V109.672L87.4922 112.203L87.4805 114.84V115.508L86.9883 115.953L85.5352 117.277L85.0781 117.688L84.4805 117.664L81.832 117.594H81.7734L81.7031 117.582L79.2656 117.301L76.8398 117.699L76.6875 117.723L76.5234 117.711L73.9688 117.57L71.4141 117.746L71.2734 117.758L71.1328 117.734L68.6133 117.43L66.0938 117.512L63.4805 117.582L63.4922 117.594L60.8555 117.758L60.6797 117.77L60.5039 117.734L58.1133 117.312L55.7344 117.734L55.5352 117.77L55.3359 117.758L52.8516 117.512L50.2852 117.652L50.1328 117.664L49.9922 117.641L47.5781 117.289L45.1992 117.734L45.0234 117.77L44.8359 117.758L42.1992 117.629V117.617L39.6328 117.57L37.0195 117.617L36.0352 117.629L35.6367 116.727L34.8398 114.969L34.7461 114.746L34.7227 114.5L34.4766 111.852V111.734L34.4531 109.086V109.004L34.4648 108.91L34.7344 106.438L34.3711 104.023L34.3477 103.871L34.3594 103.73L34.4883 101.082V101.07L34.6406 98.4336L34.6172 95.8906V95.7617L34.6406 95.6211L35.0859 93.0078L35.1094 92.832L35.1914 92.6562L36.1992 90.3594L36.7266 87.9102L36.7969 87.5703L37.0078 87.3008L38.5898 85.2617L39.9961 83.0938L41.3906 80.8438L41.4961 80.6797L41.6367 80.5391L43.582 78.7109L43.7109 78.582L43.875 78.5L46.207 77.1875L48.2461 75.7695L48.3516 75.6992L48.457 75.6523L50.8359 74.5039L50.9297 74.457L51.0234 74.4219L53.543 73.625L53.6836 73.5781L56.2617 73.0391L56.3438 73.0156L56.4375 73.0039L59.0039 72.7812L61.582 72.3711L61.8047 72.3477L62.0156 72.3711ZM59.4141 75.7461H59.3672L59.3203 75.7578L56.8125 75.9805L54.3164 76.5078L52.0195 77.2461L49.8516 78.2891L47.7891 79.7305L47.7305 79.7773L47.6719 79.8125L45.4688 81.0312L43.8516 82.5664L42.5273 84.6992V84.7109L42.5156 84.7227L41.0977 86.9258L41.0625 86.9727L41.0156 87.0195L39.5859 88.8594L39.1055 91.1562L39.0703 91.3086L39.0117 91.4492L38.0039 93.6992L37.6172 95.9727L37.6406 98.5039V98.6094L37.4766 101.246L37.3477 103.707L37.7344 106.215L37.7695 106.414L37.7461 106.613L37.4531 109.133L37.4648 111.699L37.6875 113.984L37.957 114.594L39.6094 114.57H39.668L42.3164 114.629H42.3633L44.8242 114.758L47.2852 114.301L47.5312 114.254L47.7773 114.289L50.2734 114.641L52.7578 114.512H52.9805L55.3945 114.746L57.8555 114.324L58.125 114.277L58.3828 114.324L60.8672 114.746L63.3047 114.605H63.3281L63.3516 114.594L68.625 114.43H68.7422L68.8594 114.441L71.3906 114.746L73.8633 114.582L73.9453 114.57L74.0391 114.582L76.4883 114.711L78.9961 114.301L79.207 114.266L79.418 114.289L81.9609 114.594L83.9414 114.652L84.4805 114.172L84.4922 112.191V112.086L84.6914 109.625L84.5859 106.977V106.965L84.3398 104.422L84.3281 104.27L84.3398 104.117L84.6094 101.574L84.5625 100.496H84.4805L84.3867 99.1133L84.2812 97.6133L84.2695 97.5547V95.0234L83.8242 92.7148L83.0273 90.2891L81.9727 88.1562L80.543 85.9297H80.5312L79.043 83.8789V83.8672L77.4844 82.1211L75.6211 80.4219L73.4883 79.0742H73.4766L71.4023 77.9141L68.9883 76.9531H68.9648L68.9297 76.9414L66.7031 75.957L64.2773 75.6992H64.2422L61.793 75.3711L59.4141 75.7461Z" fill="black"/>
<path d="M60.5742 11.7461L63.1875 11.8633L63.8789 11.8867L64.3125 12.4375L65.9648 14.5586L66.1406 14.7812L66.2227 15.0391L66.6797 16.5625L67.2773 18.4961H66.5273L66.6094 19.5273L66.6211 19.7148L66.5859 19.9023L66.1992 22.0938L66 23.2188L64.8633 23.3242L62.2266 23.582H62.1445L59.4961 23.6875L59.3438 23.6992L59.2031 23.6758L56.7656 23.2773L55.5117 23.0781V21.7891L55.5234 19.2461L55.3594 16.5859L55.3359 16.1758L55.5234 15.8125L56.7539 13.4336L57.0234 12.9062L57.5859 12.707L60 11.8398L60.2695 11.7344L60.5742 11.7461ZM59.1445 15.3203L58.3828 16.8203L58.5117 19.0703L58.5234 19.1172V19.1641L58.5117 20.5234L59.5547 20.6875L61.9336 20.5938L63.4336 20.4414L63.5859 19.5742L63.4219 17.1719L63.3633 16.3281L63.4453 16.2578L63.4336 16.1875L62.3672 14.8281L60.75 14.7578L59.1445 15.3203Z" fill="black"/>
<path d="M61.5 15.4961L61.5 14.0078L60.1055 14.2188L59.8477 12.4961L59.8242 12.3086L59.8359 12.1211L60.0937 9.625L60 7.16406L60 7L63 7L63 7.03516L63.1055 9.57813L63.1172 9.68359L63.1055 9.80078L62.8359 12.2617L63.0703 13.7734L63.3281 15.4961L61.5 15.4961Z" fill="black"/>
</svg>
