<svg width="120" height="120" viewBox="0 0 120 120" fill="none" xmlns="http://www.w3.org/2000/svg">
<path d="M62.0439 3V3.03516L62.1611 5.57812V5.68359L62.1494 5.80078L61.8799 8.27344L62.126 10.7695L62.1377 10.8164V10.8633L62.2432 13.5V13.6758L62.0322 16.3125L62.0205 18.7266L62.1729 20.9766L63.2979 22.7812L63.415 22.9688L63.4736 23.168L64.165 25.6289L64.2354 25.8867L64.2119 26.168L63.9893 28.7461L64.0361 30.9961L64.4932 33.5273L64.5283 33.7148L64.5166 33.9023L64.3291 36.3281L64.6572 38.8594L65.0088 41.4609L65.3838 44.0742L65.4072 44.2383L65.3955 44.4141L65.208 46.7812L65.9697 49.0078L66.0518 49.2305V49.4766L66.0869 52.0664L66.415 54.5977L66.4268 54.6797V57.2344L67.1533 59.5898L67.2354 59.8711L67.2119 60.1758L66.9424 62.707L66.9541 62.7188L66.8838 65.25L67.2236 67.6992L67.2471 67.8398L67.2354 67.9922L67.1416 69.8438L65.8525 69.7617L65.9932 71.2383L65.7822 71.25L64.0479 71.4258L64.1416 69.6797L64.2354 67.957L63.8955 65.4961L63.8721 65.3789L63.8838 65.25L63.9541 62.6367V62.5312L64.1885 60.1641L63.4971 57.8789L63.4385 57.668V57.457L63.4268 54.8789L63.1104 52.3594L63.0986 52.2773V52.1953L63.0518 49.7461L62.2666 47.4492L62.1611 47.1562L62.1963 46.8516L62.3838 44.3906L62.0322 41.8828V41.8711L61.6807 39.2578V39.2461L61.3408 36.6328L61.3174 36.4805L61.3291 36.3281L61.5049 33.8438L61.0713 31.418L61.0479 31.3008V31.1836L60.9893 28.6406V28.5586L61.001 28.4883L61.2002 26.168L60.626 24.1641L59.4424 22.2539L59.2432 21.9375L59.2197 21.5742L59.0205 18.9492V18.832L59.0322 16.1953V16.1367L59.0439 16.0781L59.2432 13.5L59.1377 10.9805L59.1494 10.9688L58.8916 8.42578L58.8682 8.27344L58.8916 8.12109L59.1611 5.54297L59.0439 3.16406V3H62.0439Z" fill="black"/>
<path d="M60.4072 22.4854L60.5361 22.5088L61.9893 22.8486L61.9775 22.9424L61.8604 23.4463L61.4502 23.7744L59.7744 25.1338L59.165 26.5518L60.0088 28.415L60.1494 28.7432L60.1377 29.1064L59.9971 31.7666V31.8838L59.9619 32.0127L59.4229 34.5088L59.1299 37.0752L59.0479 39.5947L59.0244 39.7588L58.6494 42.3721L58.626 42.5127L58.0283 44.915L58.1221 47.3643L58.1338 47.5166L58.0986 47.6807L57.6533 50.165L57.5244 52.7314L57.5127 52.8955L57.4775 53.0361L56.8096 55.5322L56.5518 58.0283L56.3291 60.4893L56.3174 63.0088L56.4697 65.4229V65.5986L56.4463 65.7744L55.9893 68.3525V68.376L55.9775 68.3877L55.6494 70.04L55.415 71.165L54.2666 71.2354H54.2549L54.1611 69.7354L54.1494 69.7236L52.708 69.4424L53.0479 67.79L53.4697 65.4463L53.3174 63.1963V63.0908L53.3291 60.4775V60.3486L53.5635 57.7236V57.6885L53.8564 55.0635L53.8682 54.958L53.8916 54.8525L54.5244 52.415L54.665 49.9424V49.8486L54.6885 49.7549L55.1221 47.2588L55.0283 44.7979V44.5869L55.0752 44.376L55.708 41.7979L56.0479 39.3721L56.1416 36.8408V36.7236L56.4463 34.0986L56.4697 33.958L56.9971 31.4971L57.1143 29.3174L56.165 27.208L55.8955 26.6104L56.1533 26.001L57.1611 23.6104L57.3135 23.2705L57.5947 23.0361L59.5635 21.4424L60.4072 22.4854Z" fill="black"/>
<path d="M65.542 27.3896L65.917 27.7529L65.9873 28.2686L66.3154 30.7295L67.1592 33.0967L67.1826 33.167L67.9443 35.6982L67.9795 35.7803L67.9912 35.8623L68.4717 38.4639H68.46L69.1045 40.8896L69.9365 43.3037L69.96 43.3857L69.9717 43.4561L70.5693 46.0342L70.5928 46.1514L70.9326 48.542L71.9639 50.8037L72.0342 50.9326L72.0693 51.085L72.6318 53.5342L73.4521 56.0068L73.6865 56.6631L73.6982 56.3936L73.5811 54.9639L73.4521 53.4053L75.0225 53.3467L75.2803 53.335L75.3271 54.8232L76.5693 54.7178L76.6865 56.1357L76.6982 56.2178V56.2998L76.6396 58.8662L76.6045 60.2959L75.1748 60.3311L72.9248 60.3896L71.8467 60.4131L71.4834 59.3936L70.6279 57.0264L70.6162 57.0146V56.9912L69.7842 54.4717L69.7607 54.4131L69.749 54.3428L69.1631 51.8936L68.1201 49.6318L68.0264 49.4326L68.0029 49.21L67.6514 46.7021L67.0889 44.2764L66.2451 41.7686L66.2217 41.7217L66.21 41.6631L65.542 39.1084L65.5303 39.0615L65.5186 39.0029L65.0381 36.4014H65.0264L64.335 34.1045L63.4443 31.6084L63.3857 31.4561L63.3623 31.3037L63.0693 29.1592L61.6514 27.7881L61.4053 27.5537L61.2881 27.2256L61.2529 27.1318L62.6592 26.6162L62.8467 26.5459L63.7373 25.6318L65.542 27.3896Z" fill="black"/>
<path d="M57.0967 26.5342L57.3428 26.6162L58.749 27.1436L58.7139 27.2373L58.6084 27.5068L58.4092 27.7178L56.9326 29.335L56.1826 31.3623L55.8193 33.8467L55.8076 33.8818L55.7959 33.9287L55.2451 36.5186L55.1982 36.6826L54.3428 39.1904L53.6982 41.6396L53.2295 44.1357L53.2178 44.2178L53.1943 44.2881L52.4561 46.8193L52.4326 46.8896L51.4951 49.2334L51.2725 51.6709L51.2607 51.8232L51.2139 51.9756L50.4404 54.4951L49.9951 56.9326L49.9482 57.1787L49.8311 57.3896L48.5537 59.6748L48.4482 59.8623L48.2959 60.0146L47.7568 60.542L45.6475 58.4092L46.0459 58.0107L47.0889 56.1357L47.5225 53.7803L47.5693 53.6162L48.2959 51.2256L48.5303 48.7295L48.5537 48.5068L48.6357 48.3076L49.585 45.917L50.2998 43.4912L50.7686 40.9834L50.7803 40.9248L50.792 40.8779L51.4717 38.3232L51.4834 38.2764L51.4951 38.2178L52.3271 35.7803L52.8428 33.3896L53.2412 30.7764L53.2646 30.624L53.3232 30.4717L54.2373 28.0107L54.3428 27.7412L54.542 27.5186L56.1943 25.7021L57.0967 26.5342Z" fill="black"/>
<path d="M44.5625 70.7681L45.125 70.8267L46.0508 70.7915L46.168 73.3345L46.1797 73.4517L46.168 73.5688L45.8984 76.0415L46.1445 78.5376L46.1562 78.6782L46.1445 78.8071L45.9336 81.5024L45.8633 82.2407L45.2422 82.6392L43.0742 84.022L41.6445 85.3462L41.3516 87.2681V89.8696L41.3398 89.9517L41.0469 92.3892L41.4453 94.8267L41.4688 94.9907L41.457 95.1548L41.3047 97.7915L41.293 97.9673L41.2461 98.1313L40.4609 100.709L40.2734 101.331L39.7109 101.612L37.6602 102.643L36.6992 104.143L36.6641 106.17L36.8984 108.819L36.9219 109.018L36.8867 109.217L36.4531 111.584L36.8398 113.999L36.875 114.186L36.8516 114.374L36.6992 115.967L37.4609 116.331L39.6055 116.588L42.0664 116.237L42.1367 116.225H42.1953L44.8203 116.061L44.9727 116.049L45.1133 116.073L47.5859 116.389L50.1055 116.319H50.2227L50.3398 116.331L52.8359 116.624L55.3086 116.413H55.4375L58.0742 116.401H58.1562L58.25 116.413L60.6406 116.682L63.1133 116.307L63.2539 116.284H63.3945L66.0312 116.354H66.0781L68.6328 116.495L71.1875 116.366H71.2812L73.918 116.377H74.0117L74.1172 116.389L76.5195 116.706L78.9219 116.272L79.1797 116.225L79.4492 116.272L81.8633 116.67L83.1172 116.53L83.2227 115.311L83.2461 112.674V112.569L83.2578 112.452L83.6211 110.002L83.4922 107.483V107.413L83.457 104.963L82.9648 103.147L81.3242 101.917L80.2461 101.272L80.9023 100.147L79.5781 99.4907L79.6719 99.3149L80.3867 97.8735L81.7695 98.6938L82.9297 99.3735L83.0703 99.4673L85.1914 101.061L85.6133 101.377L85.7422 101.87L86.3984 104.377L86.4453 104.553L86.457 104.741L86.4922 107.377H86.4805L86.6328 109.956L86.6445 110.108L86.6211 110.26L86.2344 112.733V115.452L86.0117 118.03L85.8945 119.249L84.6758 119.389L81.9922 119.682L81.7812 119.706L81.582 119.67L79.2031 119.26L76.8242 119.706L76.5898 119.752L76.3555 119.717L73.8008 119.366H71.3516L68.7148 119.506H68.5391L65.9023 119.354V119.342L63.4766 119.284L60.9453 119.682L60.7461 119.717L60.5469 119.694L58.0039 119.401L55.4375 119.413L52.9297 119.635L52.7656 119.647L52.6133 119.624L50.0938 119.319L47.5625 119.401H47.4336L47.3164 119.389L44.8672 119.049L42.4648 119.202L39.8633 119.6L39.6641 119.624L39.4648 119.6L36.8281 119.284L36.5703 119.249L36.3477 119.143L34.4609 118.229L33.5234 117.772L33.6172 116.741L33.8516 114.292L33.4531 111.831L33.4062 111.584L33.4531 111.327L33.8984 108.901L33.6758 106.452L33.6641 106.37V106.288L33.7109 103.674L33.7227 103.252L33.9453 102.901L35.3633 100.686L35.5742 100.346L35.9492 100.159L37.7656 99.2212L38.3047 97.4634L38.4453 95.0962L38.0703 92.647L38.0352 92.4478L38.0586 92.2485L38.3516 89.6938L38.3633 87.1274V87.022L38.3867 86.9165L38.75 84.3853L38.832 83.8579L39.2188 83.4946L41.1523 81.7134L41.2461 81.6313L41.3633 81.561L42.9922 80.5063L43.1445 78.6782L42.8984 76.1938L42.8867 76.0415L42.9102 75.8892L43.168 73.3228L43.0508 70.9438V70.8149L43.0625 70.6978L43.0742 70.5923L44.5625 70.7681Z" fill="black"/>
<path d="M77.4648 70.8032L77.5703 73.3462V73.4517L77.5586 73.5688L77.2891 76.0415L77.5352 78.5376V78.561L77.5469 78.5845L77.7109 81.1743V81.2329L77.7812 83.7993V83.8931L77.7695 83.9868L77.5117 86.4595L77.5703 89.0728V89.1196L77.5586 89.1665L77.4531 91.8032V91.897L77.1953 94.2876L77.6641 96.7251L77.6992 96.8774V97.0415L77.6406 99.5142L77.875 102.151L77.9102 102.538L77.7578 102.901L76.7383 105.209L75.4258 104.635V104.647L74.5 105.831L74.4414 105.784L73.5273 105.069L73.9961 104.002L74.8633 102.057L74.6523 99.7954L74.6406 99.7134V99.6313L74.6992 97.1587L74.207 94.6743L74.1719 94.4517L74.1953 94.229L74.4648 91.5806L74.5703 89.1431L74.5117 86.4946V86.4009L74.5234 86.3071L74.7812 83.7993L74.7109 81.3149L74.7227 81.3032L74.5469 78.7837L74.5586 78.772L74.3008 76.1938L74.2773 76.0415L74.3008 75.8892L74.5703 73.311L74.4648 70.9321V70.8267L75.9531 70.7681L77.4531 70.7095L77.4648 70.8032Z" fill="black"/>
<path d="M46.6484 84.1953L46.7188 84.4648L46.6953 84.7344L46.4258 87.207L46.6719 89.7148V89.7969L46.7773 92.4336V92.6094L46.5664 95.1289V97.6602L46.7656 100.297V100.332L46.7773 100.367L46.8594 102.969V103.074L46.8477 103.18L46.5898 105.523L46.8008 108.043L46.8125 108.148V108.242L46.6836 110.891L46.8359 113.363V113.504L46.8242 113.633L46.5078 116.129L46.6016 117.934L46.6719 119.504H45.0898V118.004L43.6016 118.062L43.5195 116.164L43.5078 116.035L43.5195 115.918L43.8359 113.41L43.6836 110.902V110.738L43.8125 108.219L43.5898 105.617L43.5781 105.477L43.6016 105.324L43.8594 102.969L43.7773 100.531L43.5781 97.8828L43.5664 97.8359V97.7773L43.5781 95.1289V95.0234L43.7773 92.4336L43.6719 89.9141L43.6836 89.9023L43.4258 87.3594L43.4141 87.207L43.4258 87.0547L43.6836 84.6875L43.1211 82.5312L43.0859 82.3789L43.0742 82.2266V82.1211L44.5742 82.0625L45.0547 82.0508L46.0273 81.793L46.6484 84.1953Z" fill="black"/>
<path d="M60.8057 98.3345L62.9854 99.6704L63.0557 99.7056L63.1143 99.7524L65.2002 101.346L65.4346 101.534L65.5869 101.792L66.8994 104.065L67.0986 104.405L67.1104 104.792L67.1338 107.37L67.2627 110.006L67.5088 112.573L67.5205 112.725L67.5088 112.877L67.2275 115.362L67.333 117.834V117.999H64.333V117.963L64.2275 115.42V115.303L64.2393 115.198L64.4971 112.69L64.2744 110.217L64.2627 110.182V110.147L64.1455 107.51L64.1338 107.487V107.463L64.1104 105.225L63.1494 103.561L61.2861 102.143H61.2744L59.8799 101.288L58.5557 101.827L57.1143 103.514L55.9775 105.19L55.8955 107.37V107.428L55.8838 107.487L55.5791 109.995L55.6611 112.538L55.7549 115.186H55.7432L55.9072 117.776L55.9775 118.772L55.0869 119.217L54.8174 119.346L54.1494 117.999L54.1025 117.881L52.9189 117.963L52.7549 115.327V115.28L52.6611 112.643L52.5791 109.995V109.877L52.5908 109.772L52.9072 107.124L53.001 104.663L53.0244 104.241L53.2588 103.889L54.6768 101.768L54.7236 101.698L54.7822 101.627L56.5166 99.6118L56.751 99.3306L57.0908 99.1899L59.458 98.229L60.1611 97.936L60.8057 98.3345Z" fill="black"/>
<path d="M78.0361 81.1953L78.1299 81.2539L78.2119 81.3125L80.333 82.8945L80.7314 83.1875L80.8721 83.6797L81.5869 86.1523L81.6338 86.3047L81.6455 86.4688L81.8213 89.0703L81.833 89.2109L81.8213 89.3398L81.5166 91.8008L81.7979 94.2852L81.8096 94.4492L81.7979 94.6016L81.54 97.0508L81.8564 99.5352L81.8799 99.6875L81.8682 99.8281L81.7041 102.277L81.6924 104.82V104.832L81.6572 107.469L81.7041 109.988L81.8682 112.625L81.8799 112.754L81.8682 112.883L81.5986 115.355L81.6807 117.852V118.004H80.1807L78.6807 117.992V117.957L78.5986 115.414V115.203L78.8564 112.719L78.7041 110.176V110.105L78.6572 107.48V107.434L78.6924 104.809L78.7041 102.172V102.125L78.7158 102.078L78.8564 99.7461L78.5518 97.2734L78.5283 97.1094L78.54 96.9336L78.7861 94.4492L78.5283 91.9531L78.5049 91.7891L78.5283 91.6133L78.8213 89.0703L78.6572 86.8086L78.1416 84.9922L76.5127 83.7852L75.7744 83.375L77.2041 80.75L78.0361 81.1953Z" fill="black"/>
<path d="M41.5752 102.419L41.7158 102.771L41.6689 103.134L41.3877 105.619L41.6455 108.103L41.6572 108.15V108.197L41.751 110.845V110.927L41.7393 111.009L41.5283 113.529L41.7158 115.955L41.9736 117.794L42.2197 119.517L40.4736 119.505H40.2979L40.3096 118.017L38.9971 118.216L38.7393 116.376V116.33L38.7275 116.271L38.54 113.646L38.5283 113.529L38.54 113.412L38.751 110.822L38.6572 108.302L38.6689 108.291L38.3994 105.759L38.376 105.607L38.3994 105.443L38.6572 103.169L37.8604 101.189L37.7783 100.978L37.7666 100.744L37.7549 100.638L39.2549 100.544L39.583 100.533L40.6611 100.099L41.5752 102.419Z" fill="black"/>
<path d="M60.0059 90.7061L60.5332 91.3037L61.5176 92.4404L61.4355 92.499L61.3652 92.5693L61.2832 92.6162L59.291 93.9287L57.3574 95.4287L55.7285 97.3154L55.7051 97.3506L55.6699 97.3857L53.8301 99.2842L53.7598 99.3545L53.6895 99.4131L51.6152 101.065L49.7168 102.765L49.6934 102.788L47.6777 104.534L47.3848 104.78L47.0098 104.862L45.9551 105.085L45.3223 102.155L46.002 102.003L47.7363 100.515L49.6816 98.7686L49.752 98.7217L51.7441 97.1162L53.4551 95.3584L55.1895 93.3545L55.2832 93.2373L55.4121 93.1436L57.5098 91.5264L57.5566 91.4912L57.6035 91.4678L59.5488 90.167V90.1787L59.6309 90.1201L60.0059 90.7061Z" fill="black"/>
<path d="M61.751 88.3359L61.8799 88.4766L61.9736 88.6641L62.9346 90.6211L64.4346 92.3438L66.4268 93.9375L66.4736 93.9609L66.5088 93.9961L68.4658 95.7773L68.5361 95.8359L68.5947 95.9062L70.2471 97.8398L72.0283 99.6445L73.9502 101.344H73.9619L76.1885 103.125L76.3291 103.371L77.501 105.457L77.6416 105.715L77.9932 108.645L78.0049 108.75V108.855L77.9463 111.422L78.2158 113.953L78.2393 114.176L78.1924 114.398L77.7002 116.836L77.7588 117.926L76.2588 117.996L74.7588 118.078L74.7002 116.801L74.6885 116.613L74.7236 116.426L75.2041 114.035L74.958 111.609L74.9463 111.516V111.422L74.9932 108.891L74.7236 106.641L73.8447 105.094L72.0869 103.699L72.0635 103.676L72.0283 103.652L70.0479 101.906L70.001 101.871L69.9658 101.824L68.1143 99.9492L68.0791 99.9141L68.0439 99.8672L66.3682 97.9102L64.5752 96.293L62.4893 94.6406L62.3721 94.5586L62.29 94.4531L60.5439 92.4492L60.415 92.2969L60.333 92.1211L59.2783 89.9883L60.2861 89.4844L60.5557 89.25L61.6807 88.2539L61.751 88.3359Z" fill="black"/>
<path d="M48.7061 59.3442L48.7295 59.4731V59.6138L48.6592 61.6411L48.8701 64.1138L49.6553 66.4692V66.481L49.667 66.5044L50.4521 69.0708L50.71 69.9028L50.124 70.5356L49.9131 70.7583L48.8115 69.7388L48.6826 69.6099L47.5928 69.9614L46.7959 67.3833V67.3716L45.9756 64.8872L45.9287 64.7231L45.9053 64.5591L45.6709 61.9106L45.6592 61.8169V61.7349L45.7295 59.5317L46.7021 59.5435L47.2061 59.4731L48.6943 59.2388L48.7061 59.3442Z" fill="black"/>
<path d="M43.9355 59.3442L44.5801 59.4731L46.0449 59.7778L46.0215 59.8716L45.998 59.9888L45.9629 60.0942L45.1309 62.3091L44.5684 64.6763L44.3926 67.1841L44.1934 69.938L44.041 71.9419L42.166 71.2388L41.9199 71.145L42.4238 69.8091L41.1934 69.7271L41.3926 66.9614L41.5918 64.313L41.6035 64.1958L41.627 64.0669L42.248 61.5005L42.2715 61.4067L42.3066 61.3247L43.1504 59.0513L43.9355 59.3442Z" fill="black"/>
<path d="M74.3672 60.5L75.8203 60.8398L75.7969 60.9336L75.2461 63.3125L75.2344 63.3711L75.2109 63.4414L74.4141 65.8789L73.9922 68.2344L73.9336 69.793L73.875 71.1992L72.4688 71.2344L72.2695 71.2461L72.2344 69.7461V69.7227L70.9336 69.6875L70.9922 68.0469V67.9297L71.0156 67.8242L71.4844 65.2227L71.5078 65.1172L71.543 65.0234L72.3633 62.5039L72.8789 60.2539L72.9023 60.1602L74.3672 60.5Z" fill="black"/>
<path d="M78.1562 61.6484L78.3906 61.9648L78.4492 62.3516L78.7773 64.8008L79.6211 67.168L79.6445 67.2148L79.6562 67.25L80.2422 69.2773L80.6875 70.7773L79.1641 71.1523L78.9766 71.1992L78.6133 69.7461L77.3711 70.1211L76.7969 68.1758L75.9062 65.6914L75.8594 65.5391L75.8359 65.3867L75.5195 63.1602L74.2656 61.5078L74.125 61.3086L74.043 61.0859L74.0078 60.9922L75.4258 60.5L75.707 60.4062L76.6445 59.6797L78.1562 61.6484Z" fill="black"/>
<path d="M74.041 68.4287L75.9512 69.2139L77.6387 68.6162L77.6973 68.5693L77.709 68.5928L77.8613 68.5342L78.0137 68.9912L78.623 69.7529L79.5371 70.9365L79.2793 71.1357L79.0918 71.2881L78.8574 71.3701L76.4082 72.2256L75.8691 72.4248L75.3418 72.2021L73.3145 71.3701L71.2051 71.7803L71.0176 71.8154L70.8301 71.8037L68.2871 71.6631L65.7207 71.7451H63.1191L60.6465 72.0264L60.541 72.0381L60.4355 72.0264L57.8105 71.9561H57.7168L57.623 71.9326L55.1387 71.5459L52.6777 71.6396H52.6426L50.0762 71.6865L47.5332 71.792L45.0371 72.1436L44.6504 72.2021L44.2871 72.0498L42.002 71.1592L42.4473 70.0459V69.7529L42.4941 68.2529L42.5996 68.2646H42.8574L45.0254 69.1318L47.1934 68.8154L47.2637 68.8037H47.334L49.959 68.6982H49.9941L52.584 68.6396V68.6514L55.209 68.5459H55.3496L55.4902 68.5693L57.9512 68.9678L60.4238 69.0264L62.8965 68.7568L62.9785 68.7451H65.627L68.2871 68.6631H68.3574L68.416 68.6748L70.8066 68.8154L73.1855 68.3467L73.6309 68.2529L74.041 68.4287Z" fill="black"/>
<path d="M60.5303 59.4731L61.585 60.3403L61.6904 60.4224H61.6787L61.6553 60.4575L60.249 62.4497L60.2373 62.4731L58.6904 64.5708L58.5967 64.7114L58.4561 64.8169L57.2842 65.8364L55.6201 67.2544L54.8936 65.1919L54.8584 65.1099L56.2412 64.6177L55.3271 63.5513L56.3584 62.6606L57.8115 60.6919L59.2412 58.6763L59.2764 58.6411L59.3115 58.5942L59.3818 58.5122L60.5303 59.4731Z" fill="black"/>
<path d="M61.8799 56.7397L61.9619 56.8804L62.0088 57.0327L62.7236 59.2007L63.7549 61.3101L65.0205 63.021L65.501 63.2905L64.7861 64.603L64.0713 65.9272L63.3096 65.5054L63.0166 65.353L62.8174 65.0835L61.2822 63.0093L61.2002 62.8921L61.1299 62.7749L59.9814 60.4312L59.9346 60.3374L59.9111 60.2437L59.1611 57.9702L60.1572 57.6421L60.5322 57.4194L61.8213 56.6577L61.8799 56.7397Z" fill="black"/>
<path d="M59.6611 6.46973L62.1572 6.73926L64.6182 6.63379H64.7822V9.63379H64.7471L62.2158 9.73926L62.0986 9.75098L61.9932 9.73926L59.5205 9.46973L57.5166 9.71582L55.8408 9.91504V8.13379H57.3291L57.165 6.72754L59.333 6.48145L59.4971 6.45801L59.6611 6.46973Z" fill="black"/>
<path d="M62.3564 74.0664L62.9541 74.2188L63.2588 74.7461L64.6299 77.0312L64.6885 77.2305L65.3799 79.8086L65.4502 80.0898L65.415 80.3711L65.0986 82.9258L65.1104 82.9375L64.9346 85.4922L64.876 86.5469L63.8564 86.8398L61.5947 87.4844L61.4189 87.5312H61.2197L58.5947 87.6016L57.6455 87.6133L57.2119 86.7695L56.2041 84.7422L56.0635 84.4609L56.0518 84.1445L55.9346 81.5664L55.7119 78.918L55.6885 78.543L55.8291 78.1914L56.8721 75.7891L57.0479 75.3906L57.3994 75.1445L59.4502 73.7383L60.1768 74.8047L60.5283 74.875H60.54L60.8564 73.668L62.3564 74.0664ZM59.4502 77.3594L58.7236 79.0352L58.9229 81.3086L58.9346 81.3438V81.3672L59.0283 83.6992L59.4736 84.5781L60.915 84.543L62.0049 84.2383L62.1104 82.7383V82.7031L62.1221 82.668L62.4033 80.2773L61.8525 78.2266L60.9971 76.7969L60.4697 76.668L59.4502 77.3594Z" fill="black"/>
</svg>
