<svg width="120" height="120" viewBox="0 0 120 120" fill="none" xmlns="http://www.w3.org/2000/svg">
<path d="M82.1758 8H85V8.21094L84.8008 10.6719L84.918 13.1797H84.9297L85.1055 15.8164V15.9102L85.1094 16.9551L86.3789 17.4609L86.7656 17.6133L87.0234 17.9531L88.5352 19.9688L88.793 20.3203L88.8281 20.7422L89.0508 23.3555L89.0742 23.6367L88.9922 23.918L88.2305 26.4492V26.4844L88.2188 26.5078L87.5039 28.5703L88.0312 30.3047L89.3789 31.7227L91.5 32.8477L91.5117 32.8594L93.8438 34.1367L94.0898 34.2656L94.2656 34.4766L96 36.4922L96.5391 37.1133L96.293 37.9102L95.5664 40.2539L95.3555 40.9336L94.6992 41.2031L92.2852 42.1758L92.168 42.2227L92.0391 42.2578L91.793 42.3086L92.7617 43.625L92.7969 43.6719L92.8203 43.7188L93.3086 44.4961L94.8477 44.4648L94.6602 46.1641L94.6133 46.5752L95.457 47.9258L94.4443 48.0645L94.3789 48.6484L94.3906 51.1797L94.5664 53.8164V53.8516L94.5703 53.9434L94.8203 53.6523L95.6992 56.043L96.625 58.5273V58.5391L97.5039 61.0234L98.4062 63.4961L98.4297 63.5781L98.4531 63.6484L99.0859 66.2266L99.8125 68.5586L100.773 71.0195L100.785 71.043V71.0664L101.641 73.4805L101.652 73.4688L102.684 75.9062L102.719 75.9883L102.742 76.0703L103.457 78.5312L104.175 80.5615L104.551 80.5703L104.514 81.5166L104.887 82.5625L104.467 82.6709L104.375 84.7422L104.48 87.2617L104.703 89.8281L104.715 89.9102V89.9805L104.668 92.6289L104.656 95.2539V95.2773L104.598 97.9141L104.645 100.492L104.656 100.609L104.633 100.727L104.281 103.211L104.434 105.648L104.703 108.285L104.727 108.449L104.703 108.613L104.41 111.156L104.574 113.629V113.805L104.546 114.252L105.664 114.242H105.816L105.969 114.266L108.406 114.746L110.809 114.5L110.891 114.488H110.973L112.016 114.5L112.004 116L111.98 117.5L110.984 117.488L108.477 117.746L108.254 117.77L108.031 117.734L105.57 117.242L103.145 117.254L103.004 117.278V117.496H101.75L100.648 117.688L100.496 117.711L100.332 117.699L97.6953 117.594H97.625L97.5547 117.582L95.1523 117.242L92.7617 117.711L92.5273 117.758L92.293 117.734L89.7383 117.406L87.207 117.418L87.1953 117.406L84.6055 117.488H84.5938L81.957 117.547H81.9121L80.1758 117.707L80.0938 117.719L80.0117 117.707L77.7754 117.677L76.7422 117.746L76.5547 117.758L76.001 117.653L74.75 117.648H73.7656L73.6182 117.302L71.5391 117.547L71.4102 117.559H71.2812L70.2002 117.499L70.1914 117.5L70.0508 117.512L69.9219 117.5L69.2656 117.447L68.7266 117.418L66.1719 117.582H66.043L65.9141 117.57L65.6709 117.543L64.9648 117.641L64.7656 117.664L64.5664 117.641L62.625 117.375L60.957 117.559H60.8867L58.25 117.711L58.0977 117.723L57.957 117.699L57.4785 117.633L57.0898 117.699L56.9727 117.723H56.8672L54.2188 117.77H54.1133L54.0078 117.758L51.916 117.47L51.4531 117.512L51.418 117.523H51.3711L49.2832 117.597L49.0391 117.617L48.9336 117.629H48.8281L48.6436 117.617H48.6172L45.9805 117.512V117.5L45.4482 117.497L43.6953 117.57H43.5781L42.4199 117.522L42.418 117.523H42.3711L39.7344 117.617H39.6172L38.918 117.589L38.4453 117.617H38.3281L38.2227 117.605L37.3896 117.527L36.9805 117.512V117.5L34.3906 117.488H34.3438L34.2969 117.477L31.7188 117.301L29.1875 117.43H29.1055L28.9443 117.429L27.9336 117.523H27.8984L25.2617 117.699L25.168 117.711L25.0742 117.699L22.5742 117.553L21.3242 117.664L21.1836 117.676L21.0312 117.664L20.5381 117.608L19.9297 117.629L19.8008 117.641L19.6602 117.617L18.0752 117.384L15.9219 117.395V117.383L13.3789 117.559H13.3672L13.3555 117.57L10.707 117.688L10.6133 117.699L10.5312 117.688L7.98828 117.5L8 117.277V114.5H8.21094L10.6719 114.699L13.1797 114.582V114.57L15.6416 114.405L15.5938 113.727L15.3594 111.09L15.3477 110.961L15.3594 110.844L15.5703 108.207L15.4883 105.734L15.3828 103.098V102.992L15.3945 102.898L15.6406 100.262L15.6523 100.109L15.6992 99.9688L16.4023 97.625L16.543 97.1328L16.9531 96.8398L19.0391 95.3281L20.2812 94.1914L20.4102 92.1523L20.3047 89.6562V89.5039L20.3281 89.3516L20.7383 86.9141L20.5391 84.4531L20.5273 84.4062V84.3711L20.457 81.7227V81.5938L20.4688 81.4766L20.832 78.8516V78.8281L21.1953 76.3672L21.1602 73.8125L21.1484 73.707L21.1602 73.6133L21.4648 70.9883L21.418 68.5273V68.4102L21.4414 68.2812L21.5234 67.7656L21.7109 66.5H23.2109L25.6719 66.6992L28.1797 66.582V66.5703L30.8164 66.3945H30.9102L33.5469 66.3828L33.6406 66.3711L33.7227 66.3828L36.2305 66.6641L38.7148 66.4531L38.7617 66.4414H38.8203L41.4688 66.418H41.4922L44.0469 66.4297L46.6953 66.3125L46.7773 66.3008L46.8594 66.3125L49.5078 66.4883L49.4961 66.5L52.0508 66.5117H52.0977L54.6875 66.6172L57.1836 66.5352L59.832 66.2891H59.9844L62.6211 66.3359L62.6094 66.3477H65.2695L67.8711 66.4062L70.4844 66.3477H70.6133L70.7305 66.3594L72.4365 66.6016L72.2891 64.0469L72.2773 63.9062L72.3008 63.7539L72.6523 61.2227L72.5938 58.7148V58.6445L72.6523 56.0078L72.6641 53.3945V53.3711L72.7109 50.7344L72.4883 48.25L72.4648 48.0039L72.5234 47.7695L73.0625 45.5312L73.3555 44.3359L73.6582 44.3467L74.8877 42.3633L72.9375 41.4023L72.6445 41.2617L72.4453 41.0156L70.9102 39.1758L70.2773 38.4141L70.7344 37.5352L71.9062 35.2266L72.1289 34.793L72.5508 34.5703L74.918 33.3516L77.1094 32.0273L78.668 30.8789L79.1367 29.0625L79.2539 26.8711L78.4219 24.7266L78.3516 24.5508L78.3281 24.375L77.9883 21.7969L77.9414 21.3867L78.0938 21.0117L79.1133 18.6328L79.3008 18.1875L79.6992 17.9414L81.9258 16.5469L82.1055 16.4395V15.9219L81.9414 13.3789V13.3672L81.9297 13.3555L81.8125 10.707L81.8008 10.6133L81.8125 10.5312L82 7.98828L82.1758 8ZM95.7227 83.6172L95.6406 83.6289L95.5469 83.6172L92.9102 83.6055H92.8164L90.1797 83.4297V83.4268L89.9609 83.4297L87.3242 83.6641L87.1836 83.6758L87.0312 83.6641L86.0664 83.5566L85.9492 83.9102L84.5547 83.4297L84.5078 83.418L84.5127 83.3838L84.5 83.3828L81.9219 83.3945V83.3828L79.3789 83.5586H79.3672L79.3555 83.5703L77.3359 83.6592L77.3398 83.6641L77.3516 83.6875L77.3633 83.6992L78.8867 85.7734L80.668 87.5195L80.7617 87.6133L80.8438 87.7305L82.2969 89.8281L83.9375 91.9023L83.9844 91.9727L85.4727 94.082L87.0781 95.9453L87.0898 95.9688L87.1133 95.9805L87.1719 96.0625L86.4219 96.6484L86.9141 97.1641L87.2773 97.5391L87.3242 98.0664L87.5469 100.715L87.5586 100.762V100.82L87.582 103.469V103.492L87.5703 106.129L87.6875 108.695L87.6992 108.777L87.6875 108.859L87.5117 111.508L87.4883 114.051V114.309L87.4463 114.416L89.832 114.406H89.9375L90.0312 114.418L92.4219 114.734L94.8359 114.266L95.082 114.219L95.3164 114.254L97.8945 114.605L100.273 114.711L101.521 114.496L101.562 113.711L101.422 111.168L101.41 111.039L101.422 110.91L101.703 108.426L101.445 105.953V105.895L101.281 103.246V103.105L101.293 102.953L101.633 100.48L101.598 97.9141V97.8438L101.656 95.207L101.668 92.5938V92.5703L101.715 90.0977L101.48 87.4492V87.3789L101.387 84.7305L101.375 84.6719L101.387 84.6133L101.422 83.5L101.271 83.498L101.219 83.5117L100.973 83.5703L100.715 83.5469L98.2305 83.3359L95.7227 83.6172ZM81.9219 98.3945V98.3828L79.3789 98.5586H79.3672L79.3555 98.5703L76.707 98.6875L76.6133 98.6992L76.5312 98.6875L75.5928 98.6162L75.5938 98.832V98.9375L75.582 99.0312L75.5049 99.6123L75.582 100.832V100.961L75.5703 101.09L75.4336 102.288L75.7344 103.836L75.7812 104.082L75.7461 104.316L75.5391 105.871L75.5586 106.047V106.105L75.7109 108.754L75.7227 108.895L75.6992 109.047L75.498 110.487L75.7227 111.793L75.7344 111.91V112.027L75.7559 114.552L76.3135 114.656L77.4102 114.672H77.4219L77.6768 114.675L79.1797 114.582L79.2266 114.57H79.2617L81.6592 114.56L82.543 114.484H82.625L84.2539 114.414L84.4883 113.77L84.5117 111.391V111.344L84.5234 111.297L84.6875 108.719L84.5703 106.188V106.105L84.582 103.469L84.5586 100.973L84.3711 98.8516L83.9258 98.3828L81.9219 98.3945ZM26.3789 93.0586H26.3672L26.3555 93.0703L23.707 93.1875L23.6133 93.1992L23.5312 93.1875L23.3496 93.1738L23.2461 94.9766L23.2109 95.5742L22.7656 95.9844L20.9961 97.6133L20.9258 97.6836L20.8555 97.7305L19.1211 98.9727L18.6055 100.66L18.3828 103.109L18.4883 105.629L18.5586 108.277L18.5703 108.359L18.5586 108.441L18.3477 110.938L18.582 113.469V113.492L18.6367 114.371H18.6406L18.7227 114.383L20.7031 114.604L22.4727 114.547H22.6104L23.7148 114.453L23.7617 114.441H23.8203L26.4688 114.418H26.4922L28.8057 114.428L30.3008 114.289H33.125L35.7617 114.359H35.8086L35.8672 114.371L37.626 114.533L38.8262 114.582L39.6357 114.536L39.5703 113.188V113.105L39.582 110.469H39.5938L39.5586 107.973L39.3359 105.324L39.3242 105.184L39.3359 105.031L39.6172 102.5L39.6055 99.9219L39.4414 97.3789V97.3672L39.4297 97.3555L39.3125 94.707L39.3008 94.6133L39.3125 94.5312L39.4297 92.918L36.9609 92.9414L34.3242 93.1641L34.1836 93.1758L34.0312 93.1641L31.5 92.8945H28.9219L26.3789 93.0586ZM59.7617 93.8164L58.5039 93.7051L58.4258 95.2578L58.5781 97.8242L58.5898 97.9648L58.5781 98.0938L58.2852 100.566L58.5547 103.039V103.109L58.7188 105.746V105.898L58.707 106.051L58.3555 108.512L58.4023 111.09V111.148L58.3438 113.797V113.867L58.332 113.938L58.2686 114.46L59.2227 114.301L59.3633 114.277H59.4922L62.1406 114.301H62.2227L62.3164 114.312L62.6621 114.356L63.2891 114.289L63.4414 114.277L63.6055 114.289L65.5811 114.521L67.2031 114.312L67.3555 114.289L67.5195 114.301L69.8789 114.484L70.1084 114.496L72.1484 114.289L72.4053 114.112L72.3477 111.508V111.391L72.3594 111.273L72.4619 110.536L72.3125 109.648L72.2891 109.496L72.3008 109.332L72.4062 106.695V106.625L72.418 106.555L72.5186 105.813L72.2891 103.715L72.2773 103.551L72.2891 103.387L72.4072 102.381L72.2891 101.762L72.2422 101.527L72.2656 101.293L72.4941 99.4453L72.4297 98.3711L72.418 98.2773L72.4297 98.1953L72.5 96.9062L72.5684 95.7207L72.5117 93.6055V93.5938L72.501 93.1377L71.25 93.2109L71.0977 93.2227L70.957 93.1992L68.4141 92.8594L65.9062 92.9062H65.8477L63.2109 92.8477L60.5859 92.8359H60.5742L59.1123 92.8154L59.7617 93.8164ZM42.4033 93.4033L42.3008 94.6719L42.4297 97.1797L42.6055 99.8164V99.9102L42.6172 102.547L42.6289 102.641L42.6172 102.723L42.3359 105.23L42.5469 107.715L42.5586 107.762V107.82L42.582 110.469V110.492L42.5703 113.129L42.6289 114.395L43.1396 114.445L44.6953 114.301L44.7109 113.516L44.4883 111.031L44.4766 110.996V110.961L44.3828 108.312V108.195L44.4883 105.559L44.5234 102.957V102.758L44.582 102.559L45.3086 100.062L45.3555 99.9219L45.4258 99.7812L46.6328 97.4961L47.0195 96.7461L47.8633 96.6992L49.8203 96.5703L50.6992 96.5117L51.1797 97.2617L52.5742 99.4648L52.6797 99.6172L52.7383 99.793L53.5703 102.312L53.6641 102.617L53.6406 102.934L53.3828 105.43L53.3945 108.078L53.5586 110.621V110.633L53.5703 110.645L53.6875 113.293L53.6992 113.387L53.6875 113.469L53.625 114.307L53.832 114.289H53.9844L55.2617 114.301L55.3438 113.668L55.4023 111.148L55.3555 108.512L55.3438 108.395L55.3672 108.277L55.707 105.77L55.5664 103.355L55.2969 100.719L55.2734 100.555L55.2969 100.391L55.5781 97.8242L55.4258 95.375V95.1992L55.5049 93.4434L54.2305 93.3359L51.7227 93.6172L51.6406 93.6289L51.5469 93.6172L48.9102 93.6055H48.8164L46.1797 93.4297V93.418L43.6719 93.3008L42.4033 93.4033ZM48.8945 99.6406L48.1562 101.059L47.5234 103.215L47.4883 105.641V105.676L47.3828 108.207L47.4766 110.762L47.7109 113.41V113.562L47.6963 114.348H50.2695L50.6152 114.354L50.6992 113.328L50.5703 110.82L50.3945 108.184V108.09L50.3828 105.453L50.3711 105.371L50.3828 105.289L50.6289 102.957L49.9609 100.93L49.1289 99.6172L48.8945 99.6406ZM32.6016 96.8516L34.9453 97.1328L35.7305 97.2148L36.1055 97.918L36.4336 98.5391L37.5469 97.7188L37.5 100.777L37.4883 101.48L37.5117 104L37.6875 106.637L37.7109 106.871L37.6523 107.105L37.0781 109.426L36.7969 110.562L35.625 110.574L32.9883 110.586H32.7188L32.4609 110.492L30.4219 109.742L29.3555 109.355L29.4492 108.207L29.6602 105.699L29.3906 103.227L29.3789 103.133V103.039L29.4141 100.391V99.9102L29.6953 99.5234L31.2188 97.4492L31.7344 96.7461L32.6016 96.8516ZM62.6016 96.8516L64.9453 97.1328L65.7305 97.2148L66.1055 97.918L66.4336 98.5391L67.5469 97.7188L67.5 100.777L67.4883 101.48L67.5117 104L67.6875 106.637L67.7109 106.871L67.6523 107.105L67.0781 109.426L66.7969 110.562L65.625 110.574L62.9883 110.586H62.7188L62.4609 110.492L60.4219 109.742L59.3555 109.355L59.4492 108.207L59.6602 105.699L59.3906 103.227L59.3789 103.133V103.039L59.4141 100.391V99.9102L59.6953 99.5234L61.2188 97.4492L61.7344 96.7461L62.6016 96.8516ZM32.4141 100.895L32.3906 103.004L32.6602 105.535L32.6719 105.676L32.6602 105.828L32.543 107.316L33.2461 107.574H34.4414L34.6875 106.59L34.5234 104.199L34.5117 104.164V104.117L34.4883 101.48V101.293L33.8203 100.016L33.1289 99.9219L32.4141 100.895ZM62.4141 100.895L62.3906 103.004L62.6602 105.535L62.6719 105.676L62.6602 105.828L62.543 107.316L63.2461 107.574H64.4414L64.6875 106.59L64.5234 104.199L64.5117 104.164V104.117L64.4883 101.48V101.293L63.8203 100.016L63.1289 99.9219L62.4141 100.895ZM92.6016 88.8516L94.9453 89.1328L95.7305 89.2148L96.1055 89.918L96.4336 90.5391L97.5469 89.7188L97.5 92.7773L97.4883 93.4805L97.5117 96L97.6875 98.6367L97.7109 98.8711L97.6523 99.1055L97.0781 101.426L96.7969 102.562L95.625 102.574L92.9883 102.586H92.7188L92.4609 102.492L90.4219 101.742L89.3555 101.355L89.4492 100.207L89.6602 97.6992L89.3906 95.2266L89.3789 95.1328V95.0391L89.4141 92.3906V91.9102L89.6953 91.5234L91.2188 89.4492L91.7344 88.7461L92.6016 88.8516ZM92.4141 92.8945L92.3906 95.0039L92.6602 97.5352L92.6719 97.6758L92.6602 97.8281L92.543 99.3164L93.2461 99.5742H94.4414L94.6875 98.5898L94.5234 96.1992L94.5117 96.1641V96.1172L94.4883 93.4805V93.293L93.8203 92.0156L93.1289 91.9219L92.4141 92.8945ZM75.418 88.1797L75.4297 88.2266V88.2617L75.4531 90.8867L75.5117 93.5234L75.5664 95.6025L76.6719 95.6875L79.1797 95.5703L81.8164 95.3945H81.9102L82.707 95.3828L81.582 93.7656L79.9414 91.6914L79.9062 91.6562L79.8828 91.6211L78.4531 89.5586L76.6602 87.7891L76.5781 87.707L76.5078 87.6133L75.2666 85.918L75.418 88.1797ZM60.9219 86.8945V86.8828L58.3789 87.0586H58.3672L58.3555 87.0703L55.707 87.1875L55.6133 87.1992L55.5312 87.1875L55.1494 87.1592L56.6797 89.0586L56.7383 89.1289L56.7852 89.1992L57.2002 89.8477L57.832 89.7891H57.9844L60.6211 89.8359L60.6094 89.8477H63.2695L65.8711 89.9062L68.4844 89.8477H68.6133L68.7305 89.8594L71.2148 90.2227L72.4453 90.1416L72.4297 88.3789L72.332 86.9189L71.4688 86.9062L68.9609 86.9297L66.3242 87.1641L66.1836 87.1758L66.0312 87.1641L63.5 86.8828L60.9219 86.8945ZM27.3789 87.0586H27.3672L27.3555 87.0703L24.707 87.1875L24.6133 87.1992L24.5312 87.1875L23.7539 87.1299L23.7383 87.2188L23.3047 89.6914L23.3223 90.1709L23.6719 90.1992L26.1797 90.082V90.0703L28.8164 89.8945H28.9102L31.5469 89.8828L31.6406 89.8711L31.7227 89.8828L34.2305 90.1641L36.7148 89.9531L36.7617 89.9414H36.8203L39.4688 89.918H39.4922L40.5293 89.9219L40.9414 89.3984L40.9531 89.4102L42.5586 87.3125L42.6523 87.1953L42.9082 86.9287L40.4688 86.918L37.9609 86.9414L35.3242 87.1641L35.1836 87.1758L35.0312 87.1641L32.5 86.8945H29.9219L27.3789 87.0586ZM48.5117 85.2031L48.4766 85.25L48.4297 85.2969L46.707 87.3008L46.6836 87.3242L46.6602 87.3594L44.8906 89.1992L44.4062 89.8252L44.6953 89.8125L44.7773 89.8008L44.8594 89.8125L47.5078 89.9883L47.4961 90L50.0508 90.0117H50.0977L52.6875 90.1172L53.6455 90.085L52.6953 88.9062L52.6484 88.8359L51.1367 86.7734L49.4492 84.9219L49.0273 84.5L48.5117 85.2031ZM57.4531 69.5117L57.418 69.5234H57.3711L54.7344 69.6172H54.6172L51.9805 69.5117V69.5L49.3906 69.4883H49.3438L49.2969 69.4766L46.7188 69.3008L44.1875 69.4297H44.1055L41.4688 69.418V69.4062L38.9609 69.4297L36.3242 69.6641L36.1836 69.6758L36.0312 69.6641L33.5 69.3828L30.9219 69.3945V69.3828L28.3789 69.5586H28.3672L28.3555 69.5703L25.707 69.6875L25.6133 69.6992L25.5312 69.6875L24.4297 69.6055L24.4648 71.1406V71.2344L24.4531 71.3281L24.1484 73.9531L24.207 76.4023V76.5312L24.1953 76.6602L23.7969 79.2734L23.457 81.7578L23.5244 84.1055L24.6719 84.1992L27.1797 84.082V84.0703L29.8164 83.8945H29.9102L32.5469 83.8828L32.6406 83.8711L32.7227 83.8828L35.2305 84.1641L37.7148 83.9531L37.7617 83.9414H37.8203L40.4688 83.918H40.4922L43.0469 83.9297L45.6953 83.8125L45.7676 83.8076L46.0859 83.4453V83.4336L47.6562 81.3008L48.6992 79.8828L49.9297 81.1367L51.582 82.8242L51.6055 82.8359L51.6172 82.8594L53 84.3594V84H53.2109L55.6719 84.1992L58.1797 84.082V84.0703L60.8164 83.8945H60.9102L63.5469 83.8828L63.6406 83.8711L63.7227 83.8828L66.2305 84.1641L68.7148 83.9531L68.7617 83.9414H68.8203L71.4688 83.918H71.4922L72.54 83.9258L72.7227 82.9297L72.4531 80.5391L72.4414 80.4102V80.2812L72.582 77.7148L72.418 75.1719V75.043L72.4297 74.9141L72.6992 72.418L72.4648 70.2031L72.1602 69.582L70.4141 69.3477L67.9062 69.4062H67.8477L65.2109 69.3477V69.3359H62.5742L59.9492 69.2891L57.4531 69.5117ZM77.5156 48.4648L77.5273 48.4766L75.5273 48.6533L75.7109 50.6289V50.7812L75.6641 53.4297L75.6523 56.0547V56.0781L75.5938 58.7148L75.6523 61.293V61.4102L75.6406 61.5273L75.2773 64.0117L75.4297 66.4609L75.6875 67.7031L76.0391 69.4961H75.417L75.4297 69.6406L75.7109 72.2891L75.7227 72.4414L75.7109 72.6055L75.418 75.0898L75.5703 77.6328L75.582 77.7148L75.5703 77.7969L75.4414 80.3281L75.4727 80.6016L76.6719 80.6992L79.1797 80.582V80.5703L81.8164 80.3945H81.9102L84.0332 80.3848L84.2266 79.8555L84.2383 79.8203L84.2617 79.7852L85.2109 77.5469L85.5742 75.0625L85.6094 74.8281L85.7148 74.6289L86.8164 72.3086L87.5078 69.9297L87.5312 69.8477L87.5664 69.7656L88.5273 67.4688L89.0898 64.9844L89.125 64.8203L89.1953 64.668L90.2852 62.3477V62.3359L91.2227 60.0625L91.5449 58.4561L91.6836 56.5117L91.5664 54.0156L91.3906 51.3789V51.2852L91.3789 48.6484V48.5664L91.3896 48.4795L90.8047 48.5586L90.7344 48.5703H90.6641L88.0273 48.6875L87.9453 48.6992L87.8516 48.6875L85.2148 48.5117V48.5L82.6602 48.4883H82.6133L80.0234 48.3828L77.5156 48.4648ZM94.1523 60.7539L94.1289 60.8945L94.0703 61.0352L93.0625 63.4844L93.0508 63.5078L93.0273 63.543L91.9727 65.793L91.4336 68.2305L91.3984 68.3594L91.3516 68.4766L90.3438 70.9141L89.6523 73.3047L89.6172 73.4219L89.5703 73.5391L88.5156 75.707L88.1523 78.1562L88.1289 78.3438L88.0469 78.5195L87.2852 80.3359L87.5312 80.3125L87.6133 80.3008L87.707 80.3125L90.3555 80.4297L90.3623 80.4365L92.4688 80.418H92.4922L95.0469 80.4297L97.6953 80.3125L97.7773 80.3008L97.8594 80.3125L98.1143 80.3291L98.1836 80.3242L98.3242 80.3359L98.6699 80.3662L100.508 80.4883L100.496 80.5L100.865 80.5049L100.961 80.4766L100.633 79.5273L100.609 79.457L99.8828 77.0078L98.8867 74.6406L98.8633 74.6055L98.8516 74.5586L97.9609 72.0742L97.0117 69.6602L97 69.6016L96.9766 69.543L96.2031 67.0234L96.1914 66.9883V66.9531L95.5586 64.457L94.6797 62.043V62.0312L94.1758 60.625L94.1523 60.7539ZM82.6016 51.8516L84.9453 52.1328L85.7305 52.2148L86.1055 52.918L86.4336 53.5391L87.5469 52.7188L87.5 55.7773L87.4883 56.4805L87.5117 59L87.6875 61.6367L87.7109 61.8711L87.6523 62.1055L87.0781 64.4258L86.7969 65.5625L85.625 65.5742L82.9883 65.5859H82.7188L82.4609 65.4922L80.4219 64.7422L79.3555 64.3555L79.4492 63.207L79.6602 60.6992L79.3906 58.2266L79.3789 58.1328V58.0391L79.4141 55.3906V54.9102L79.6953 54.5234L81.2188 52.4492L81.7344 51.7461L82.6016 51.8516ZM82.4141 55.8945L82.3906 58.0039L82.6602 60.5352L82.6719 60.6758L82.6602 60.8281L82.543 62.3164L83.2461 62.5742H84.4414L84.6875 61.5898L84.5234 59.1992L84.5117 59.1641V59.1172L84.4883 56.4805V56.293L83.8203 55.0156L83.1289 54.9219L82.4141 55.8945ZM77.4805 43.8711L77.1016 44.4834L77.2227 44.4883L77.2109 44.5L79.8125 44.5117H79.8594L79.9062 44.5234L82.4609 44.6992L85.0156 44.5703H85.0859L87.7344 44.582L87.7227 44.5938L89.7432 44.5752L88.8711 43.3906L88.374 42.9717L86.7656 43.2305L86.6602 43.2539H86.543L83.8945 43.2656H83.8594L81.2109 43.2188H81.1172L78.4805 43.0195L78.457 43.0078H78.4219L78.0566 42.9648L77.4805 43.8711ZM84.4219 29.0586H84.3164L82.7227 29.1875L82.5586 29.1992L82.4062 29.1758L82.1484 29.1436L82.1367 29.3789L82.125 29.5312L82.0898 29.6719L81.4453 32.1562L81.3047 32.6719L80.8711 32.9883L78.7617 34.5352L78.7031 34.5703L78.6562 34.6055L76.3828 35.9648L76.3477 35.9883L76.3008 36.0117L74.3555 37.0195L73.8516 38.0039L74.543 38.8477L76.3945 39.75L76.5498 39.7676L77.1055 38.9023L78.125 39.5352L80.3281 39.6992L82.8359 39.582V39.5703L85.4727 39.3945H85.5664L88.2031 39.3828L88.7539 39.3711L89.1875 39.7344L89.2354 39.7744L91.3008 39.3398L92.9062 38.6836L93.1758 37.8164L92.168 36.6445L90.0703 35.4844V35.4727L87.7734 34.2656L87.5508 34.1602L87.375 33.9727L85.6055 32.1094L85.3594 31.8516L85.2656 31.5117L84.5234 29.0352L84.4219 29.0586ZM81.6914 20.2266L81.0117 21.8203L81.2812 23.8008L82.1719 26.0977L82.1885 26.1377L82.6172 26.1992L84.0117 26.082L84.6797 25.9297L85.2832 25.793L85.3711 25.5352L86.0273 23.3203L85.875 21.4219L84.8672 20.0742L83.0742 19.3594L81.6914 20.2266Z" fill="black"/>
</svg>
