<svg width="120" height="120" viewBox="0 0 120 120" fill="none" xmlns="http://www.w3.org/2000/svg">
<path d="M111.312 114.289L112.355 114.547L111.652 117.453L110.891 117.266L108.547 117.629L108.453 117.652H108.359L105.723 117.723H105.582L103.051 117.301L100.672 117.734L100.438 117.781L100.203 117.746L97.6367 117.406H95.2344L92.5977 117.629L92.4922 117.641L92.3984 117.629L89.75 117.477V117.465L87.2773 117.348L84.7812 117.734L84.582 117.77L84.3945 117.746L81.8516 117.453L79.2969 117.477L79.2852 117.465L76.7773 117.711L76.6133 117.723L76.4492 117.699L73.918 117.383L71.3867 117.43H71.3281L68.6914 117.371H68.6445L66.1719 117.23L63.7109 117.699L63.4766 117.746L63.2305 117.711L60.7227 117.348L58.2383 117.488H58.0156L55.5898 117.242L53.1406 117.676L52.8828 117.723L52.6133 117.676L50.1172 117.242L47.6914 117.395H47.668L47.6445 117.406L42.3711 117.57H42.2539L42.1367 117.559L39.5938 117.254L37.1328 117.418L37.0508 117.43L36.957 117.418L34.5078 117.277L32 117.699L31.7891 117.734L31.5781 117.711L29.0234 117.395L26.5391 117.324L23.9492 117.512L23.8906 117.523H23.832L21.1953 117.512H21.0781L18.5 117.301L16.0508 117.395L16.0625 117.406L13.4258 117.664L13.2734 117.676L13.1211 117.664L10.625 117.395L8.16406 117.5H8V114.5H8.03516L10.5781 114.395L10.6836 114.383L10.8008 114.395L13.2852 114.664L15.7695 114.418H15.8633L18.5 114.312L18.5938 114.301L18.6758 114.312L21.3125 114.512L21.3008 114.523H23.7383L26.375 114.336L26.4453 114.324L26.5273 114.336L29.1641 114.406H29.2344L29.293 114.418L31.7305 114.699L34.1562 114.301L34.3203 114.277L34.4844 114.289L37.0156 114.43L39.582 114.254L39.7227 114.242L39.8633 114.266L42.3711 114.57L44.9141 114.488L47.5039 114.418V114.406L50.1523 114.242L50.3281 114.23L50.5039 114.266L52.8828 114.688L55.2617 114.266L55.4609 114.23L55.6602 114.242L58.1328 114.488L60.7227 114.348L60.8633 114.336L61.0156 114.359L63.418 114.711L65.8086 114.266L65.9844 114.23L66.1602 114.242L68.7969 114.371L68.7852 114.383L71.3633 114.43L73.9766 114.383H74.082L74.1875 114.395L76.6836 114.711L79.1445 114.477H79.2734L81.9102 114.453H82.0039L82.0859 114.465L84.5469 114.746L86.9727 114.371L87.125 114.348L87.2773 114.359L89.9141 114.488H89.9258L92.4453 114.641L95 114.43L95.0586 114.418H95.1055L97.7539 114.406H97.8594L97.9648 114.418L100.367 114.746L102.77 114.312L103.027 114.266L103.285 114.301L105.816 114.723L108.137 114.664L110.738 114.266L111.031 114.219L111.312 114.289Z" fill="black"/>
<path d="M38.3916 75.563L40.876 75.9966L43.3135 75.8442H43.3369L43.3604 75.8325L48.6338 75.6685H48.751L48.8682 75.6802L51.3994 75.9849L53.8721 75.8208L53.9541 75.8091L54.0479 75.8208L56.4971 75.9614L59.0049 75.5396L59.2158 75.5044L59.4268 75.5278L61.9697 75.8442L64.4541 75.9146L67.0557 75.7271L67.1143 75.7153H67.1729L69.8096 75.7271H69.9268L72.5049 75.938L74.9424 75.8442V75.8325L77.5791 75.5747L77.7314 75.563L77.8838 75.5747L80.3682 75.8442L82.8408 75.7388H83.0049V78.7388H82.9697L80.4268 78.8442L80.3213 78.856L80.2041 78.8442L77.708 78.5747L75.2354 78.8208H75.1416L72.5049 78.9263L72.4229 78.938L72.3291 78.9263L69.6924 78.7271V78.7153H67.2666L64.6299 78.9028L64.5596 78.9146L64.4893 78.9028L61.8408 78.8325H61.7822L61.7119 78.8208L59.2627 78.5278L56.8486 78.938L56.6846 78.9614L56.5322 78.9497L53.9775 78.8091L51.4229 78.9849L51.2822 78.9966L51.1416 78.9731L48.6221 78.6685L46.0908 78.7505L43.4893 78.8208L43.501 78.8325L40.8643 78.9966L40.6768 79.0083L40.501 78.9731L38.2041 78.5747L37.876 78.6802L37.0088 75.7974L37.7002 75.5981L38.04 75.4927L38.3916 75.563Z" fill="black"/>
<path d="M79.9463 58.2056L82.208 58.604L82.4775 58.5103L82.5127 58.6626H82.583L82.5596 58.7798L82.9463 59.9399L83.415 61.3696L82.7939 61.5688L82.4307 61.686L82.0557 61.6157L79.5596 61.1821L77.1338 61.3345H77.1104L77.0869 61.3462L71.8135 61.5103H71.6963L71.5791 61.4985L69.0361 61.1938L66.5752 61.3579L66.4932 61.3696L66.3994 61.3579L63.9502 61.2173L61.4424 61.6392L61.2314 61.6743L61.0205 61.6509L58.4658 61.3345L55.9814 61.2642L53.3916 61.4517L53.333 61.4634H53.2744L50.6377 61.4517H50.5205L47.9424 61.2407L45.4932 61.3345L45.5049 61.3462L42.8682 61.604L42.7158 61.6157L42.5635 61.604L40.0674 61.3345L37.6064 61.4399H37.4424V58.4399H37.4775L40.0205 58.3345L40.126 58.3228L40.2432 58.3345L42.7275 58.604L45.2119 58.3579H45.3057L47.9424 58.2524L48.0361 58.2407L48.1182 58.2524L50.7549 58.4517L50.7432 58.4634H53.1807L55.8174 58.2759L55.8877 58.2642L55.9697 58.2759L58.6064 58.3462H58.6768L58.7354 58.3579L61.1729 58.6392L63.5986 58.2407L63.7627 58.2173L63.9268 58.229L66.458 58.3696L69.0244 58.1938L69.165 58.1821L69.3057 58.2056L71.8135 58.5103L74.3564 58.4282L76.9463 58.3579V58.3462L79.5947 58.1821L79.7705 58.1704L79.9463 58.2056Z" fill="black"/>
<path d="M88.0381 54.3994V54.4111L86.5381 54.3291L86.7725 55.8057L85.0615 56.0635L82.9639 57.1885L82.5068 57.4346L79.542 56.8955L77.0693 57.0596H77.0225L74.3857 57.1416L71.7373 57.2354H71.6318L71.5146 57.2236L69.0303 56.9072L66.5107 57.083H66.335L63.8271 56.9424L61.3779 57.3525L61.167 57.3877L60.9561 57.3643L58.4014 57.0479L55.917 56.9893L53.3271 57.1768H53.21L50.5732 57.165H50.4561L47.9717 56.9658L45.3584 57.0713L45.3467 57.0596L42.8037 57.3174L42.6514 57.3291L42.499 57.3174L39.9795 57.0479L37.5068 57.0947H37.3662L37.3896 54.0947H37.4482L39.9795 54.0479H40.0732L40.167 54.0596L42.6631 54.3174L45.1475 54.0713H45.2295L47.8779 53.9658H48.0537L50.5732 54.1768H53.1045L55.7412 53.9893H55.8936L58.542 54.0596H58.6006L58.6709 54.0713L61.0967 54.3525L63.5342 53.9658L63.6865 53.9307L63.8506 53.9424L66.3936 54.083L68.96 53.9072H69.1006L69.2412 53.9189L71.749 54.2354L74.2803 54.1416L76.8818 54.0713V54.0596L79.5186 53.8955L79.6943 53.8838L79.8701 53.9189L82.0029 54.3057L83.8779 53.3096L84.1006 53.1807L84.3467 53.1455L86.3037 52.8408L88.1318 52.5479L88.0381 54.3994Z" fill="black"/>
<path d="M89.4248 82.4985L89.4365 82.6509L89.4248 82.8032L89.1553 85.2759L89.4014 87.7837V87.8657L89.5068 90.5024L89.5186 90.5962L89.5068 90.6782L89.3076 93.3149L89.2959 95.7407L89.4834 98.3774L89.4951 98.4478L89.4834 98.5298L89.4131 101.167V101.237L89.4014 101.295L89.1201 103.733L89.5186 106.159L89.542 106.323L89.5303 106.487L89.3896 108.959L89.5654 110.612L89.7295 112.264H87.8193V110.788L86.5771 110.917L86.4014 109.194L86.3896 109.077L86.4014 108.959L86.5303 106.487L86.1201 104.002L86.085 103.803L86.1084 103.592L86.4248 101.026L86.4834 98.436L86.3076 95.9517L86.2959 95.8931V95.8345L86.3076 93.1978V93.0923L86.5186 90.5024L86.4131 88.0649L86.1553 85.4282L86.1436 85.2759L86.1553 85.1235L86.4248 82.6274L86.2021 80.2603L86.1904 80.1899V80.0259L87.6904 80.0142H88.8154L89.1904 79.9673L89.4248 82.4985Z" fill="black"/>
<path d="M34.2529 80.0259V80.1313L34.2295 82.6509V82.8032L33.96 85.2759L34.2061 87.7837V87.8188L34.2178 87.8657L34.3232 90.5024V90.5962L34.3115 90.6782L34.1123 93.3149V95.8462L34.2881 98.3774L34.2998 98.4478V98.5298L34.2178 101.167V101.295L33.9248 103.733L34.3232 106.159L34.3467 106.323V106.487L34.2061 109.042L34.3701 110.612L34.5342 112.264H32.624V110.788L31.3818 110.917L31.2178 109.194L31.2061 109.077V108.959L31.335 106.487L30.9248 104.002L30.9014 103.803L30.9248 103.592L31.2295 101.026L31.2998 98.5884L31.1123 95.9517V93.1392L31.124 93.0923L31.3232 90.5024L31.2178 88.0649L30.96 85.4282L30.9482 85.2759L30.96 85.1235L31.2412 82.5923L31.2529 80.0962V80.0024L34.2529 80.0259Z" fill="black"/>
<path d="M25.0576 82.4985L25.0693 82.6509L25.0576 82.8032L24.7881 85.2759L25.0342 87.772L25.0459 87.8188V87.854L25.1514 90.5024L25.1631 90.5845L25.1514 90.6782L24.9521 93.1978V95.729L25.1396 98.3774L25.1514 98.4478V98.5298L25.0693 101.167V101.295L24.7764 103.733L25.1631 106.159L25.1982 106.323L25.1865 106.487L25.0342 108.971L25.1982 110.553L25.3623 112.217L23.6865 112.206H23.4404V110.717L22.21 110.846L22.0459 109.194L22.0342 109.077V108.959L22.1865 106.44L21.7764 104.002L21.7412 103.792L21.7646 103.581L22.0811 101.026L22.1514 98.5884L21.9639 95.9517L21.9521 95.8931V95.8462L21.9639 93.1978V93.0923L22.1631 90.5024L22.0459 87.9829L22.0576 87.9712L21.7881 85.4282L21.7764 85.2759L21.7881 85.1235L22.0576 82.6157L21.835 80.2485L21.8232 80.1899V80.0376L23.3232 80.0142L24.6709 80.0024L24.8232 79.979L25.0576 82.4985Z" fill="black"/>
<path d="M98.7539 80.0981V80.2271L98.6602 82.7466V82.8521L98.3906 85.3247L98.6367 87.8325V87.8677L98.6484 87.9146L98.7539 90.5513V90.645L98.7422 90.7271L98.543 93.3638V95.895L98.7188 98.4263L98.7305 98.4966V98.5786L98.6484 101.215V101.344L98.3555 103.782L98.7539 106.208L98.7773 106.372V106.536L98.6367 109.09L98.8008 110.602L98.9766 112.266H97.0547V110.79L95.8125 110.918L95.6484 109.243L95.6367 109.125V109.008L95.7656 106.536L95.3555 104.051L95.332 103.852L95.3555 103.641L95.6602 101.075L95.7305 98.6372L95.543 96.0005V93.188L95.5547 93.1411L95.7539 90.5513L95.6484 88.1138L95.3906 85.4771L95.3789 85.3247L95.3906 85.1724L95.6602 82.6411L95.7539 80.1216V80.0513L98.7539 80.0981Z" fill="black"/>
<path d="M98.5352 25.9629L101.172 26.1738L101.336 26.1855L101.488 26.2324L103.949 26.9941L104.277 27.0879L104.523 27.3105L106.527 29.127L106.715 29.3027L106.844 29.5371L107.992 31.6934L108.191 32.0566L108.168 32.4785L108.039 35.127L108.016 35.6074L107.711 35.9824L106.059 38.0566L105.965 38.1738L105.848 38.2676L104.043 39.7676L102.977 41.4785L102.906 43.752L102.977 46.2949V46.4355L102.812 48.8848L103.07 51.3574L103.082 51.4629V51.5566L103.023 54.2051V54.2402L102.918 56.8184L103.129 59.2793V59.3848L103.152 62.0215V62.1387L103.141 62.2441L102.812 64.6113L103.246 67.0488L103.293 67.3066L103.258 67.5645L102.836 70.0371L102.883 72.5332L103.258 75.0293L103.27 75.123V75.2285L103.293 77.8652V78.0293L103.258 78.1816L102.766 80.4902L103.047 82.8691L103.059 82.9512V83.0332L103.07 85.6699V85.7168L103 88.3652L102.941 90.9902V91.0137L102.848 93.5215L103.188 96.041L103.211 96.1816L103.199 96.3105L103.07 98.8301L103.281 101.396L103.293 101.549L103.281 101.689L102.988 104.197L103.059 106.752V106.799L103.07 109.436L103.117 110.643L100.117 110.76L100.07 109.494V109.447L100.059 106.846L99.9883 104.197V104.092L100 103.986L100.281 101.525L100.082 99.0059L100.07 98.9004L100.082 98.8066L100.199 96.2988L99.8711 93.8027L99.8477 93.6738L99.8594 93.5449L99.9414 90.9082L100 88.2832L100.07 85.6934L100.059 83.209L99.7656 80.5957L99.7305 80.3496L99.7891 80.1152L100.281 77.6777L100.27 75.252H100.258L99.9062 72.8145L99.8945 72.7207V72.627L99.8359 69.9902V69.8496L99.8594 69.709L100.246 67.3301L99.8242 64.9512L99.7773 64.7168L99.8125 64.4824L100.141 61.9277L100.129 59.4082V59.3965L99.918 56.877V56.6895L100.023 54.1113L100.07 51.5566L99.8125 49.1426L99.8008 49.0137L99.8125 48.8848L99.9766 46.2363L99.9062 43.7402V43.6465L100 40.9746L100.012 40.5762L100.223 40.2363L101.629 37.9863L101.758 37.7754L101.945 37.623L103.797 36.0762L105.051 34.4941L105.145 32.7363L104.312 31.1777L102.742 29.748L100.75 29.1387L98.4648 28.9629L96.0391 29.4199L95.7812 29.4668L95.5117 29.4199L93.0508 28.9863L90.5781 29.1387L90.5547 29.1504H90.5195L87.8828 29.1973H87.8594L85.2227 29.2324H82.9375L81.1094 30.3223L79.7383 31.4473L80.0312 33.2988L80.043 33.416V33.5215L80.0547 35.373L81.6016 36.4746L81.707 36.5449L81.8008 36.627L83.6172 38.4316L83.9102 38.7246L84.0156 39.1113L84.6953 41.6543L84.7539 41.877L84.7422 42.0996L84.6484 44.7363V44.7598L84.5078 47.2441L84.8711 49.6699L84.8945 49.8691L84.8828 50.0566L84.6016 52.459L85 54.7676L85.0117 54.873V54.9902L85.0234 55.0957L83.5234 55.1191H82.8086L82.0352 55.2598L81.6133 52.7637L81.5781 52.5527L81.6016 52.3418L81.8711 49.8809L81.5195 47.4902L81.4961 47.3379L81.5078 47.1973L81.6484 44.5957L81.7305 42.2285L81.2031 40.2598L79.7969 38.8652L77.7109 37.3887L77.0781 36.9551L77.0664 36.1816L77.0547 33.6152L76.6445 31.084L76.5156 30.2402L77.1719 29.6895L79.2695 27.9551L79.3633 27.873L79.457 27.8145L81.7539 26.4434L82.1055 26.2324H85.1875L87.8125 26.2207V26.209L90.4023 26.1621V26.1504L93.0391 25.9863L93.2148 25.9746L93.3789 26.0098L95.7461 26.4199L98.1367 25.9746L98.3242 25.9395L98.5352 25.9629Z" fill="black"/>
<path d="M38.2529 28.4653L39.624 28.5474L39.4951 31.0669V31.1372L39.4834 31.2075L39.0967 33.7505L38.9443 34.7349L37.9717 34.9692L35.71 35.5435L35.5459 35.5786H35.3818L32.7568 35.6489H32.6865L32.6045 35.6372L30.085 35.438V35.4497L27.4365 35.438V35.4263L24.917 35.6255H24.7646L22.1162 35.5435H19.7725L17.8037 36.0356L17.4756 36.2231L17.5693 36.3403L19.1631 38.4849L19.292 38.6606L19.374 38.8599L20.2764 41.3091L20.3467 41.4966L20.3701 41.6841L20.6279 44.3208L20.6396 44.3677V44.4263L20.71 47.0747V47.2388L20.6865 47.4028L20.2178 49.77L20.6514 52.1372L20.6748 52.3013V52.4536L20.5811 54.9966L20.5928 55.0083L20.5459 57.6099L20.5225 57.7974L20.1826 60.188L20.6396 62.5903L20.6631 62.7661V62.9419L20.5225 65.5903L20.4639 68.1802L20.5107 70.77V70.8638L20.499 70.9692L20.1826 73.4771L20.417 75.938V76.0786L20.4053 78.6567V78.7505L20.2412 81.106L20.5342 83.6606L20.5459 83.7778L20.5342 83.895L20.4053 86.5435V86.5552L20.2529 89.063L20.4639 91.6294L20.4756 91.6763V91.7349L20.4873 94.3716V94.4771L20.4756 94.5825L20.1475 96.9614L20.5811 99.3989L20.6279 99.6567L20.5928 99.9028L20.1709 102.446L20.2295 104.766L20.6279 107.356L20.6514 107.485V107.625L20.5811 110.274L20.5693 110.614L20.4053 110.918L20.1592 111.399L18.8232 110.708L17.8389 110.192H17.5811V110.051L17.499 110.016L17.5811 109.829L17.6396 107.696L17.2646 105.176L17.2412 104.989L17.1709 102.34V102.2L17.1943 102.059L17.5811 99.6802L17.1592 97.2896L17.1123 97.0552L17.1475 96.8208L17.4756 94.2661V91.8638L17.2646 89.2271L17.2529 89.1216L17.2646 89.0161L17.417 86.3794L17.5342 83.895L17.2529 81.2817L17.2295 81.1411L17.2412 81.0122L17.4053 78.645L17.417 76.0669L17.1826 73.5708L17.1709 73.4067L17.1943 73.2427L17.499 70.7114L17.4639 68.1685V68.1216L17.5225 65.4731V65.4263L17.6514 62.9419L17.1943 60.5044L17.1475 60.2583L17.1826 60.0239L17.5459 57.4341L17.5928 54.9614V54.938L17.6631 52.5122L17.2178 50.0161L17.1709 49.7466L17.2178 49.4653L17.6982 46.9692L17.6396 44.5083V44.4966L17.3936 42.1763L16.6318 40.1138L15.249 38.2505L13.9951 37.0903L12.5186 35.7427L14.2295 34.7114L16.4912 33.3403L16.6904 33.2114L16.9131 33.1646L19.2686 32.5903L19.4443 32.5552H19.6201L22.1631 32.5435H22.21L24.7295 32.6138L27.3428 32.438H27.4482L30.085 32.4497H30.2021L32.8037 32.6372L35.1006 32.5903L36.2725 32.2974L36.4834 30.9028L36.6357 28.395L36.6709 27.7153L37.1982 27.2935L37.2686 27.2349L38.2529 28.4653Z" fill="black"/>
<path d="M84.083 109.214L86.5908 109.46L89.1221 109.519L91.7236 109.402L94.3721 109.261L94.5244 109.25L94.6768 109.273L97.0791 109.648L99.4932 109.273L99.5986 109.261H99.7158L101.603 109.25H102.575L102.927 110.058L104.298 111.5L104.872 112.109L104.649 112.917L104.028 115.179L103.759 116.164L102.751 116.281L100.149 116.562H100.103L100.056 116.574L97.4072 116.679H97.3252L97.2314 116.667L94.5947 116.468H92.0635V116.457L89.5322 116.644L89.4619 116.656H89.3916L86.7432 116.574H86.6846L86.6143 116.562L83.9775 116.257V116.246L81.458 115.976L80.0635 115.824L80.1221 114.429L80.2275 111.757L80.251 110.878L83.2744 109.367L83.6611 109.179L84.083 109.214ZM83.1807 112.765L83.1689 113.14L84.3174 113.269L84.3291 113.281L86.8721 113.574L89.3564 113.644L91.958 113.468L92.0166 113.457L92.0752 113.468H94.7705L94.8291 113.48L97.3955 113.667L99.8213 113.574L101.403 113.398L101.532 112.941L100.876 112.25H99.7979L97.3135 112.648L97.0908 112.683L96.8682 112.648L94.4072 112.261L91.876 112.39H91.8643L89.2275 112.507L89.1689 112.519H89.1221L86.5205 112.449H86.4268L84.2236 112.238L83.1807 112.765Z" fill="black"/>
<path d="M23.7393 109.333L26.1768 109.766L28.6494 109.59H28.7314L31.2744 109.567L33.8994 109.344L34.0635 109.333L34.2275 109.356L36.8525 109.708L37.0283 109.731L37.1807 109.79L39.1025 110.528L40.1455 110.926L40.0635 112.04L39.876 114.641L39.8057 115.661L38.8213 115.965L36.6299 116.633L36.3252 116.727L36.0205 116.692L33.4541 116.375L30.8643 116.317V116.305L28.3799 116.504H28.2627L25.626 116.493H25.5088L22.9307 116.282L20.4111 116.399L20.3994 116.387L17.7627 116.563L16.2744 116.668L16.1689 115.18L15.9697 112.532L15.9229 111.887L16.3564 111.407L17.7979 109.813L18.8057 110.727L18.8408 110.75L18.9111 110.645L19.251 109.321L20.9502 109.754L23.2002 109.333L23.4697 109.274L23.7393 109.333ZM21.1963 112.754L20.8799 112.813L20.5635 112.731L19.4502 112.45L19.0049 112.942L19.04 113.469L20.2471 113.399H20.2939L22.9307 113.293L23.0127 113.282L23.1064 113.293L25.626 113.493H28.1572L30.8057 113.317H30.9463L33.5947 113.387H33.6533L33.7236 113.399L36.0557 113.668L36.958 113.387L36.9932 112.93L36.2549 112.649L33.9346 112.344L31.5205 112.543L31.4619 112.555H31.415L28.8486 112.579L28.8604 112.59L26.2236 112.778L26.0361 112.79L25.8486 112.754L23.4814 112.321L21.1963 112.754Z" fill="black"/>
<path d="M25.0576 56.8271L25.0693 56.9678L25.0459 57.1201L24.7881 59.5928L25.0342 62.1006V62.1826L25.1396 64.8193L25.1514 64.9131L25.1396 64.9951L24.9404 67.6318L24.9287 70.0576L25.1162 72.6943V72.835L25.0576 75.4717L25.0811 76.1045L23.5811 76.1514L22.0811 76.21L22.0576 75.4834V75.4014L22.1162 72.7646L21.9287 70.2686V70.1514L21.9404 67.5146V67.4092L22.1514 64.8193L22.0342 62.2998L22.0459 62.2881L21.7881 59.7451L21.7764 59.5928L21.7881 59.4404L22.0576 56.9326L21.835 54.5654L21.8232 54.5068V54.3428L23.3232 54.3311H24.542L24.8232 54.2959L25.0576 56.8271Z" fill="black"/>
<path d="M98.6885 54.3428V54.4482L98.665 56.9678V57.0498L98.6533 57.1201L98.3955 59.5928L98.6416 62.1006V62.1826L98.7471 64.8193L98.7588 64.9131L98.7471 64.9951L98.5479 67.6318L98.5361 70.0459L98.7354 72.6943V72.8584L98.6416 74.8506L99.2744 75.4717H100.153L101.513 75.4482L101.665 76.7959L101.688 77.0068L100.2 77.1826H100.177L100.2 78.46L98.7002 78.4834L98.0674 78.4951L97.6221 78.0615L96.0752 76.5264L95.5947 76.0576L95.6299 75.3896L95.7354 72.835L95.5479 70.2686L95.5361 70.21V70.1514L95.5479 67.5146V67.4092L95.7588 64.8193L95.6416 62.2998L95.6533 62.2881L95.3955 59.7451L95.3838 59.5928L95.3955 59.4404L95.6768 56.9092L95.6885 54.4131V54.3193L98.6885 54.3428Z" fill="black"/>
<path d="M97.5195 52.3369L100.086 52.9463L100.133 52.958L100.168 52.9697L102.582 53.6611L102.301 54.5986L102.254 55.1143L102.113 56.6025H102.02L101.879 56.5791L101.738 56.5439L99.4062 55.8643L97.0508 55.3135L94.6836 55.5479H94.6016L91.9531 55.665H91.8711L91.7773 55.6533L89.7266 55.4893L89.3398 55.7939L89.4805 57.6455L89.4922 57.7158V57.7979L89.4102 60.4346V60.5049L89.3984 60.5752L89.1172 63.001L89.5156 65.4385L89.5391 65.5908V65.7549L89.3984 68.4033L89.5625 70.8643L89.5742 71.0049L89.5508 71.1455L89.2344 73.6416L89.3164 76.1729L89.3516 77.2275L88.3672 77.6143L85.9414 78.5635L85.6953 78.6572H85.4258L84.7109 78.6807L84.6406 75.6807L85.0625 75.6689L86.2812 75.2002L86.2344 73.6416V73.5244L86.2461 73.4189L86.5508 70.9229L86.3984 68.415L86.3867 68.3213L86.3984 68.2393L86.5273 65.7549L86.1172 63.2822L86.0938 63.0713L86.1172 62.8604L86.4102 60.3057L86.4922 57.8682L86.293 55.2314L86.2344 54.4346L86.8555 53.9424L88.332 52.7822L88.7891 52.4189L89.375 52.4658L91.9414 52.665L94.3906 52.5713L97.0391 52.3135L97.2852 52.29L97.5195 52.3369Z" fill="black"/>
<path d="M34.3145 54.415V54.5439L34.2324 57.0635V57.1104L34.2207 57.1689L33.9629 59.6416L34.209 62.1494V62.2314L34.3262 64.8682V64.9619L34.3145 65.0439L34.1152 67.6807L34.1035 70.1064L34.291 72.7432L34.3027 72.8135L34.291 72.8955L34.2324 74.8643L34.877 75.4736L35.7676 75.4619L37.4316 75.4385L37.2793 77.1025L37.2676 77.3135L35.791 77.1846L35.8145 78.4619L34.3145 78.4854L33.7051 78.4971L33.2598 78.0752L31.6895 76.5869L31.1973 76.1299L31.2207 75.4619L31.3027 72.9541L31.1152 70.3174L31.1035 70.2588V70.2002L31.1152 67.5635V67.458L31.3262 64.8682L31.2207 62.4307L30.9629 59.7939L30.9512 59.6416L30.9629 59.4893L31.2324 56.958L31.3145 54.4385V54.3682L34.3145 54.415Z" fill="black"/>
<path d="M84.625 81.269L84.6367 81.2573V81.2808L84.918 83.7417L84.9297 83.9058L84.918 84.0581L84.6484 86.7065L84.5898 89.0269L85 91.4878L85.0234 91.6636L85.0117 91.8394L84.8125 94.4878L84.8008 96.9019L84.9883 99.5386L85 99.6089L84.9883 99.6909L84.918 102.328V102.398L84.9062 102.468L84.625 104.894L85.0234 107.32L85.0469 107.484L85.0352 107.648L84.8945 110.285V110.355L84.8828 110.414L84.8125 110.964L83.3242 110.765L81.8359 110.554L81.918 110.003L82.0352 107.648L81.625 105.175L81.5898 104.964L81.6133 104.753L81.9297 102.187L82 99.7495L81.8125 97.1128L81.8008 97.0542V97.0073L81.8125 94.3589V94.2534L82.0117 91.7925L81.6133 89.355L81.5898 89.2144V89.0737L81.6484 86.519L81.6602 86.4604V86.4019L81.918 83.9175L81.6484 81.5503L81.6367 81.48V81.3042L83.1367 81.2808L84.1562 81.269L84.625 81.2104V81.269Z" fill="black"/>
<path d="M52.3896 81.8833L52.7295 82.6567L53.0576 83.2192L50.8896 84.4849L50.6787 84.6138L50.4209 84.6606L47.9951 85.1294L45.874 86.2192L43.5654 87.4849L43.5186 87.5083L41.2686 88.6099L39.4873 89.8521L38.7842 91.2466L38.7139 93.5552V93.6255L38.7021 93.6958L38.4209 96.1216L38.8193 98.5591L38.8428 98.7114L38.8311 98.8755L38.6904 101.407L38.8662 103.985L38.8779 104.125L38.8545 104.254L38.5498 106.762L38.6318 109.27L38.7139 110.676L38.8193 112.258H37.1201V110.758L35.7256 110.852L35.6318 109.446V109.411L35.5498 106.762V106.657L35.5615 106.54L35.8662 103.985L35.7021 101.536L35.6904 101.442L35.7021 101.36L35.8311 98.8755L35.4209 96.4028L35.3857 96.1919L35.4092 95.981L35.7256 93.4263L35.7959 90.8364V90.4966L35.9482 90.2036L36.9795 88.1646L37.1553 87.8247L37.4717 87.6021L39.6396 86.1021L39.7217 86.0435L39.8271 85.9966L42.1826 84.8247L44.4443 83.5942L44.4678 83.5825H44.4795L46.8467 82.3638L47.0342 82.27L47.2451 82.2349L49.5889 81.7778L51.5459 80.6294L51.6162 80.5825L51.7803 80.5122L52.3896 81.8833Z" fill="black"/>
<path d="M62.1582 41.4375L64.3496 42.7852L66.6348 43.8867L69.0137 44.7422L69.0605 44.7539L69.1074 44.7773L71.5215 45.832L71.6152 45.8789L73.9355 47.0742L76.1855 47.918H76.1973L78.7285 48.7031L78.9043 48.7617L79.0566 48.8555L81.1309 50.0977L83.3926 50.6367L83.498 50.6602L83.6035 50.707L83.6855 50.7422L83.1348 52.1367L82.877 52.7695L82.6895 53.5547L82.5723 53.5195L82.5371 53.5078L80.2168 52.9688L79.9941 52.9102L79.7949 52.793L77.6738 51.5156L75.3066 50.7891L75.2598 50.7773L75.2246 50.7539L72.752 49.8281L72.6582 49.8047L72.5879 49.7578L70.3262 48.5859L67.9004 47.5312V47.5195L65.5098 46.6758L65.4277 46.6523L65.3574 46.6172L62.9785 45.457L62.9082 45.4219L62.8496 45.3867L61.0801 44.2969L59.3457 44.6484L57.0488 45.5508L54.7871 46.7578L54.6582 46.8281L54.5176 46.875L52.0684 47.6016L49.7949 48.6797L49.7832 48.6914L47.3926 49.8047L45.0723 50.9766L44.9082 51.0586L44.7441 51.0938L42.377 51.6445L40.3848 52.9805L40.1035 53.168L39.7754 53.2148L37.4082 53.5664L35.791 53.8125L35.6855 52.1836V52.1719L37.1855 52.0781L36.9629 50.6016L38.9785 50.2969L40.959 48.9961L41.1816 48.8555L41.4395 48.7852L43.8652 48.2109L46.0801 47.1094L46.127 47.0859L48.5176 45.9727L50.8965 44.8477L51.002 44.8008L51.1074 44.7656L53.5332 44.0156L55.7246 42.8672L55.7949 42.832L55.877 42.7969L58.3262 41.8242L58.4551 41.7773L58.584 41.7422L61.0801 41.2383L61.6543 41.1211L62.1582 41.4375Z" fill="black"/>
<path d="M62.583 36.813L64.8682 37.9497L67.2705 38.8169L67.3994 38.8638L67.5283 38.9341L69.7314 40.2349L72.0635 41.1606L74.4658 42.1216H74.4775L76.9619 43.0356L77.1377 43.0942L77.29 43.1997L79.2939 44.5356L81.6377 45.1333L81.7666 45.1567L81.8838 45.2153L83.5596 45.9536L84.5791 46.4106L84.4268 47.5239V47.5356L82.9385 47.3364L82.9268 47.3247L82.3291 48.6958L80.7705 48.0044L78.3096 47.395L78.0635 47.3247L77.8408 47.1841L75.7666 45.7896L73.4463 44.9458L73.4346 44.9341L73.4111 44.9224L70.9619 43.9497L68.501 42.9771L68.3955 42.9302L68.3018 42.8716L66.1104 41.5825L63.7666 40.7505L63.6025 40.6802L61.54 39.6489L59.6416 39.6724L57.3096 40.3403L54.9541 41.2661L52.7393 42.4028L52.6924 42.4263L52.6338 42.4497L50.208 43.481L50.1611 43.5044L50.1025 43.5161L47.7354 44.313L45.4502 45.4028L43.1299 46.7036L43.001 46.7739L42.8604 46.8208L40.4463 47.5708L38.2549 48.6489L38.2197 48.6606L38.1025 48.7192L37.5049 47.3364L36.9072 45.9653L37.001 45.9185H37.0127L39.2158 44.8403L39.3213 44.7817L39.4268 44.7583L41.7939 44.0083L44.0088 42.7896L44.0439 42.7661L44.0791 42.7544L46.4697 41.606L46.54 41.5708L46.6338 41.5356L49.0244 40.7153L51.3916 39.7075L53.7236 38.5239L53.7939 38.4888L53.8643 38.4653L56.3252 37.5044L56.4658 37.4575L59.0322 36.7427L59.2197 36.6841H59.4189L61.8916 36.6606L62.2549 36.6489L62.583 36.813Z" fill="black"/>
<path d="M29.6914 52.2861L32.3281 52.4736H32.4453L32.5508 52.4971L35.1172 53.0713L35.1875 53.083L37.8242 53.9619L38.9141 54.3135L38.8555 55.4502L38.7383 58.1221V58.1924L38.7266 58.2627L38.3867 60.6299L38.8203 63.0205L38.8438 63.1963V63.3604L38.6914 65.9033L38.8672 68.4697V68.6104L38.8555 68.7393L38.5508 71.2588L38.6328 73.79V73.8135L38.6914 76.4854L38.9023 78.8291L38.9141 79.0166L38.8789 79.2041L38.5156 81.3838L38.8672 83.7979L38.8906 83.9854L38.8789 84.1611L38.6445 86.5518L39.1016 88.6494L39.3008 89.5986L38.5156 90.1729L38.3867 90.2666L37.5078 89.0596L37.4609 88.9893L36.1602 89.2822L35.668 86.9736L35.6211 86.751L35.6445 86.5166L35.8672 84.0908L35.5156 81.6064L35.4805 81.3838L35.5273 81.1494L35.8906 78.8994L35.6914 76.6494V76.5439L35.6328 73.8955L35.5508 71.2588L35.5391 71.1416L35.5625 71.0244L35.8555 68.5283L35.7031 66.0205L35.6914 65.9268L35.7031 65.8447L35.832 63.3604L35.3984 60.9111L35.3516 60.6768L35.3867 60.4424L35.75 57.8525L35.8086 56.4463L34.3438 55.9658L32.0234 55.4502L29.5391 55.2861L27.0781 55.3799L24.4414 55.626L24.3945 55.6377H24.3477L21.9453 55.6963L19.8477 56.5049L19.6602 56.5752L19.4609 56.5986L19.3555 56.6104L19.2148 55.1104L19.1914 54.7705L18.7812 53.7041L21.1367 52.8018L21.3828 52.708H21.6406L24.2656 52.6377V52.6494L26.8086 52.4033L26.8555 52.3916H26.8906L29.5273 52.2861H29.6914Z" fill="black"/>
<path d="M27.1572 18.4541L29.5947 18.6064L30.2744 18.6416L30.6963 19.1807L32.29 21.2197L32.6533 21.6885L32.5947 22.2861L32.3486 24.9463L32.3955 27.3369L31.0596 27.3486L30.9541 27.4424L29.7588 28.3447L29.7002 28.2627L29.4072 27.876L29.3955 27.3955L29.3486 24.8291V24.7471L29.3604 24.665L29.5479 22.5908L28.7393 21.5479L27.5557 21.4775L26.5947 22.2627L26.4658 24.126L26.6533 26.6807L26.6768 26.915L26.6182 27.1494L26.4424 27.8174L23.5361 27.0674L23.6533 26.6455L23.4775 24.2432L23.4658 24.1494L23.4775 24.0439L23.6533 21.4189L23.7002 20.7627L24.2041 20.3525L26.126 18.7939L26.5713 18.4189L27.1572 18.4541Z" fill="black"/>
<path d="M46.751 62.5352L49.2939 63.1211L49.8096 63.2383L50.1377 63.6602L51.708 65.6758L51.9072 65.9336L51.9893 66.2383L52.5869 68.7227L52.6221 68.8281V68.9336L52.8916 71.5703L52.9033 71.7227L52.8916 71.875L52.6104 74.4531L52.7158 76.8438H52.54L51.2275 76.9961L49.7393 77.1719L49.7275 77.0664L49.7158 77.0195V76.9609L49.6221 74.418L49.6104 74.3125L49.6221 74.207L49.8799 71.6992L49.6455 69.332L49.1416 67.2812L48.0869 65.9219L46.5752 65.5703L45.0869 66.2852L43.9854 67.7852L43.54 69.7773L43.9385 72.1211L43.9619 72.2852L43.9502 72.4492L43.8096 74.957L43.9736 76.8672L44.1143 78.4961H42.2275V77.0078L40.9854 77.125L40.8213 75.1328L40.8096 75.0273V74.9219L40.9502 72.4141L40.54 69.9766L40.4814 69.6836L40.5518 69.4023L41.1377 66.8125L41.208 66.5078L41.3955 66.25L42.8955 64.2227L43.1182 63.9297L43.4463 63.7656L45.7666 62.6523L46.2354 62.418L46.751 62.5352Z" fill="black"/>
<path d="M60.751 62.5352L63.2939 63.1211L63.8096 63.2383L64.1377 63.6602L65.708 65.6758L65.9072 65.9336L65.9893 66.2383L66.5869 68.7227L66.6221 68.8281V68.9336L66.8916 71.5703L66.9033 71.7227L66.8916 71.875L66.6104 74.4531L66.7158 76.8438H66.54L65.2275 76.9961L63.7393 77.1719L63.7275 77.0664L63.7158 77.0195V76.9609L63.6221 74.418L63.6104 74.3125L63.6221 74.207L63.8799 71.6992L63.6455 69.332L63.1416 67.2812L62.0869 65.9219L60.5752 65.5703L59.0869 66.2852L57.9854 67.7852L57.54 69.7773L57.9385 72.1211L57.9619 72.2852L57.9502 72.4492L57.8096 74.957L57.9736 76.8672L58.1143 78.4961H56.2275V77.0078L54.9854 77.125L54.8213 75.1328L54.8096 75.0273V74.9219L54.9502 72.4141L54.54 69.9766L54.4814 69.6836L54.5518 69.4023L55.1377 66.8125L55.208 66.5078L55.3955 66.25L56.8955 64.2227L57.1182 63.9297L57.4463 63.7656L59.7666 62.6523L60.2354 62.418L60.751 62.5352Z" fill="black"/>
<path d="M74.751 62.5352L77.2939 63.1211L77.8096 63.2383L78.1377 63.6602L79.708 65.6758L79.9072 65.9336L79.9893 66.2383L80.5869 68.7227L80.6221 68.8281V68.9336L80.8916 71.5703L80.9033 71.7227L80.8916 71.875L80.6104 74.4531L80.7158 76.8438H80.54L79.2275 76.9961L77.7393 77.1719L77.7275 77.0664L77.7158 77.0195V76.9609L77.6221 74.418L77.6104 74.3125L77.6221 74.207L77.8799 71.6992L77.6455 69.332L77.1416 67.2812L76.0869 65.9219L74.5752 65.5703L73.0869 66.2852L71.9854 67.7852L71.54 69.7773L71.9385 72.1211L71.9619 72.2852L71.9502 72.4492L71.8096 74.957L71.9736 76.8672L72.1143 78.4961H70.2275V77.0078L68.9854 77.125L68.8213 75.1328L68.8096 75.0273V74.9219L68.9502 72.4141L68.54 69.9766L68.4814 69.6836L68.5518 69.4023L69.1377 66.8125L69.208 66.5078L69.3955 66.25L70.8955 64.2227L71.1182 63.9297L71.4463 63.7656L73.7666 62.6523L74.2354 62.418L74.751 62.5352Z" fill="black"/>
<path d="M91.5322 18.4956L93.958 18.6362L94.6143 18.6714L95.0361 19.187L96.665 21.2026L97.04 21.6597L96.9932 22.2573L96.7822 24.8003L96.7939 24.812L96.7705 27.3784L95.4111 27.3667L95.3291 27.437L94.1221 28.3394L94.0635 28.2573L93.7588 27.8589L93.7705 27.3433L93.7939 24.7886V24.6831L93.9463 22.6206L93.1143 21.5776L91.9541 21.5073L90.9932 22.3159L90.8291 24.1909L91.0635 26.7104L91.0869 26.9565L91.0283 27.2026L90.876 27.8003L89.4229 27.437L87.9697 27.0854L88.0635 26.7222L87.8408 24.3433L87.8291 24.2144L87.8408 24.0854L88.0518 21.4604L88.1104 20.8394L88.5908 20.4292L90.4893 18.8354L90.9463 18.4604L91.5322 18.4956Z" fill="black"/>
<path d="M84.5713 55.6924L84.8057 58.1533L84.8174 58.2705L84.8057 58.376L84.6533 60.79L84.9111 63.3564V63.4385L85.0166 66.0752L85.0283 66.1689L85.0166 66.251L84.8174 68.7822L84.8057 71.4189L84.9697 73.9736V74.0791L84.9463 76.6689V76.7627L84.9346 76.8564L84.5947 79.3525V79.3994L84.1963 81.6846L83.9736 82.9971L82.6377 82.9268L80.0713 82.7979L77.5166 82.9619L77.376 82.9736L77.2354 82.9619L74.7158 82.6455L72.1846 82.7158L72.1963 82.7275L69.7236 82.8213L67.3447 83.4541L66.9814 83.5479L66.6064 83.4541L64.2861 82.8799L61.8955 83.1963L61.7197 83.2197L61.5439 83.208L59.0947 82.9268L56.5635 83.1377L56.458 83.1494L56.3525 83.1377L53.7158 82.9736L51.2783 83.0439H51.126L48.5479 82.8447V82.833L46.0166 82.7861L43.4033 82.833H43.2979L43.1924 82.8213L40.7314 82.5049L38.2354 82.7393L38.1416 82.751H38.0479L37.2627 82.7158L37.3564 79.7158L38.0244 79.7393L40.6025 79.5166L40.7666 79.4932L40.9307 79.5166L43.4502 79.8213L45.9932 79.7861H46.0518L48.6885 79.8447H48.7822L51.208 80.0322L53.7393 79.9736H53.8682L56.4111 80.1377L58.9541 79.9385L59.0947 79.9268L59.2354 79.9385L61.6611 80.1963L64.1689 79.8799L64.4502 79.8447L64.7197 79.9033L66.9346 80.4424L69.126 79.8799L69.29 79.833H69.4541L72.0791 79.7275H72.0908L74.7275 79.6455H74.8447L74.9619 79.6572L77.4346 79.9619L79.9658 79.7979H80.1416L81.4541 79.8564L81.6299 78.8955L81.9463 76.5283L81.9697 74.1611L81.8057 71.5127V71.4072L81.8174 68.7705V68.665L82.0166 66.2041L81.9111 63.5557V63.5439L81.665 61.001L81.6533 60.8838V60.7666L81.7939 58.2588L81.583 55.8916L81.5713 55.8447V55.6924L83.0713 55.6572L84.5479 55.6338L84.5596 55.6221V55.6338L84.5713 55.6924Z" fill="black"/>
<path d="M99.2256 34.3169L99.4951 34.3755L100.96 34.7036L100.937 34.7974L100.878 35.0552L100.749 35.2778L99.46 37.2817L98.5107 39.3325L98.4521 41.6763L98.5811 44.1958V44.313L98.499 46.9614L98.4756 49.563V49.6567L98.4639 49.7505L98.417 50.0786L96.9287 49.8677L95.4404 49.6685L95.4873 49.4106L95.499 46.9028V46.8794L95.5811 44.3364L95.4521 41.7114V41.606L95.5225 38.9458V38.6294L95.6631 38.3481L96.7764 35.9575L96.8232 35.8638L96.8701 35.7935L98.2061 33.6724L99.2256 34.3169Z" fill="black"/>
<path d="M34.7734 34.3169L35.0664 34.3755L36.5312 34.7036L36.5078 34.7974L36.4492 35.0435L36.3203 35.2544L35.0195 37.3989L34.0938 39.356L34.0703 41.6997L34.1641 44.2427L34.1758 44.3013L34.1641 44.3599L34.0703 46.9966L34.0586 48.5903L35.3008 49.1528L36.4961 49.4692L37.8086 49.8208L37.5859 51.1685L37.5742 51.2622L36.0977 51.0161L36.0742 51.0044L35.7227 52.3755L34.375 52.0122L34.2578 51.9771L34.1406 51.9302L31.9492 50.9458L31.0586 50.5356V49.563L31.0703 46.938V46.8911L31.1758 44.3599L31.0703 41.7349V41.6411L31.1055 38.9927L31.1172 38.6646L31.2578 38.3716L32.3828 35.981L32.4531 35.8403L33.7656 33.6958L34.7734 34.3169Z" fill="black"/>
<path d="M88.085 35.5957L88.2959 35.8535L88.3662 36.1699L88.9873 38.7363V38.7832L88.999 38.8184L89.4678 41.4199L89.4912 41.6543L89.5381 44.3027V44.3848L89.5264 44.4551L89.3037 47.0918L89.3623 49.5762L89.374 50.4434L88.6357 50.8887L86.5381 52.1426L86.2334 52.3301L85.8701 52.3652L84.5225 52.4473L84.417 50.959L84.3115 49.459L85.2959 49.3887L86.3389 48.7559L86.3154 46.9863L86.3037 46.916L86.3154 46.834L86.5381 44.1973L86.4912 41.8184L86.0459 39.3457V39.334L85.5186 37.2012L84.1592 35.4668L83.9482 35.1973L83.8779 34.8574L83.8545 34.7637L85.3193 34.4355L85.5068 34.4004L86.5146 33.6035L88.085 35.5957Z" fill="black"/>
<path d="M23.6611 35.6191L23.8369 35.8535L23.9189 36.1348L24.6338 38.6777L25.3369 41.2207L25.3721 41.3496L25.3838 41.4902L25.6416 44.127L25.6533 44.2793L25.6416 44.4316L25.3604 47.0684L25.1025 49.6934L25.0791 49.9863L23.5791 49.8691L22.0908 49.752L22.1143 49.4238V49.3887L22.3721 46.7637V46.752L22.6299 44.2441L22.3955 41.8418L21.7393 39.4863L21.0947 37.2012L19.7236 35.4551L19.5361 35.2207L19.4658 34.9277L19.4307 34.8223L20.8838 34.4355L21.0947 34.377L22.0908 33.6152L23.6611 35.6191Z" fill="black"/>
<path d="M83.7725 28.7817L83.8428 29.0396L83.8311 29.2974L83.6553 31.6528L83.9131 32.4849L85.6006 32.7661L88.0615 32.9419L90.6045 32.8599L90.6514 32.8481L90.6982 32.8599L93.3467 32.9302H93.4287L95.9014 33.1411L98.374 33.0005L100.882 32.52L101.28 32.438L101.655 32.5669L103.976 33.3521L104.151 33.4106L104.304 33.5161L106.448 34.9106L105.745 35.9653L105.722 36.188L105.499 37.6646L105.394 37.6528L105.077 37.606L104.808 37.4302L102.815 36.1294L101.081 35.5317L98.8779 35.9653L98.7725 35.9888L98.6787 36.0005L96.0303 36.1528L95.9248 36.1646L95.8193 36.1528L93.2646 35.9185V35.9302L90.6631 35.8481L88.0732 35.9536H87.9912L87.9092 35.9419L85.2607 35.7544H85.1904L85.1201 35.7427L82.5068 35.2856L81.5928 35.1333L81.3232 34.2544L80.7139 32.2505L80.6201 31.981L80.6436 31.6997L80.8193 29.3325L80.667 28.8169L83.5498 27.9966L83.7725 28.7817Z" fill="black"/>
<path d="M68.7549 80.5591H68.7783L68.8018 80.5708L70.9463 81.6255L73.2432 82.6099L75.751 83.3247L75.8564 83.3599L75.9502 83.395L78.376 84.4614L78.5166 84.5317L78.6338 84.6138L80.8018 86.1489L82.7119 87.4966L83.1338 87.5903L82.8174 89.0552L82.4893 90.52L81.7627 90.356L81.4697 90.2974L81.2354 90.1216L79.0674 88.5981L77.0166 87.145L74.8486 86.1958L72.3877 85.4927L72.2002 85.4224L69.7627 84.3794L69.7393 84.356L69.7041 84.3442L67.4893 83.2778L67.501 83.2661L67.4424 83.2544L68.6611 80.5122L68.7549 80.5591Z" fill="black"/>
<path d="M29.9072 13.9526L32.5322 14.3276L32.5908 14.3394L32.6377 14.3511L35.0869 14.8784L34.8877 15.769L34.876 16.3433L34.8291 17.8433H34.5947L34.4541 17.8081L32.1104 17.3042L29.708 16.9409L27.2588 17.2573L27.2354 17.269H27.2236L24.5869 17.5386H24.5283L21.9502 17.7026L21.2588 17.8315L21.0127 16.3433L20.7666 14.8667L21.5869 14.7378L21.6572 14.7261L21.7393 14.7144L24.2822 14.562V14.5503L26.9072 14.2808V14.2925L29.5088 13.9526L29.708 13.9292L29.9072 13.9526Z" fill="black"/>
<path d="M94.2686 14.2134L96.9053 14.4829L96.9404 14.4946H96.9756L99.3428 14.8462H99.3662L99.3545 14.8579H99.4248L99.3428 15.397L99.3076 16.3462L99.249 17.8462H99.0615L98.9795 17.8228L96.5889 17.4595L94.0928 17.2017L91.6201 17.4478H91.5732L91.5264 17.4595L88.9131 17.5532L86.3701 17.7056L85.6904 17.8345L85.4443 16.3462L85.1982 14.8696L86.0186 14.7407L86.0889 14.7173H86.1709L88.7373 14.5649H88.7725L91.3271 14.4712V14.4595L93.9639 14.2017L94.1162 14.1899L94.2686 14.2134Z" fill="black"/>
<path d="M26.2109 26.1099L28.8477 26.2388L29.0117 26.2622L31.4258 26.6489L33.8984 26.3677L34.0625 26.3442L34.2383 26.3677L36.8633 26.6724L36.8516 26.6841L39.5352 26.9536L40.0273 27.0122L40.3906 27.3403L42.3711 29.1685L42.6992 29.4614L42.8047 29.8833L43.4375 32.2271L43.4727 32.4028L43.4844 32.5786L43.543 35.2388L43.5547 35.7778L43.2266 36.1997L41.5508 38.3208L41.3867 38.5317L41.1523 38.6841L39.4414 39.7036L39.0664 41.5903L39.0781 41.6021L38.668 44.0044L38.8086 46.4888L38.8203 46.6646L38.7852 46.8403L38.3633 49.1255L38.7617 50.5903L39.3359 52.6997L37.168 52.4771L36.8984 52.4419L37.0391 51.0474L35.8672 51.3755L35.3867 49.5942L35.293 49.2661L35.3516 48.938L35.8086 46.4771L35.668 44.0396L35.6562 43.8755L35.6914 43.7114L36.1133 41.1216V41.0981L36.125 41.0747L36.6289 38.4731L36.7578 37.8169L37.332 37.4771L39.3594 36.2466L40.5312 34.77L40.4844 32.8364L40.0156 31.0669L38.7148 29.8833L36.5352 29.6489H36.5234L34.0508 29.356L31.5664 29.6489L31.3672 29.6606L31.168 29.6372L28.5781 29.2271L26.1641 29.1099L23.5977 29.2974L23.5742 29.3091H23.5391L20.9023 29.3911L18.582 29.4614L16.7422 30.3521L15.6172 31.6646L15.4297 33.5044L16.0273 35.7075L16.2031 36.3403L15.8516 36.8911L15.8047 36.9849L14.5273 36.188L14.4336 36.1294L13.1328 36.4927L12.4766 34.0552L12.3945 33.7856L12.4297 33.5161L12.6875 30.9028L12.7344 30.4341L13.0391 30.0708L14.6562 28.1841L14.8555 27.9497L15.1367 27.8091L17.5273 26.6372L17.8203 26.5083L18.1367 26.4966L20.7969 26.4028L23.375 26.3208L26.0234 26.1099H26.2109Z" fill="black"/>
<path d="M28.2021 6.41113L30.7686 7.17285L30.9326 7.21973L31.085 7.30176L33.3232 8.59082L33.5225 8.69629L33.6631 8.84863L35.4678 10.7354L35.6904 10.9814L35.7959 11.2979L36.6396 13.7939L36.6982 13.9932L36.71 14.2158L36.8037 16.8174L36.9561 19.4424L37.1084 22.0908L37.1201 22.2549L37.0967 22.4189L36.6865 24.8916L36.6982 27.3408V27.4697L33.6982 27.4229V27.3525L33.6865 24.8096V24.6807L33.71 24.5635L34.1084 22.0791L33.9561 19.6182L33.8037 16.9814V16.958L33.71 14.5088L33.0654 12.5752L31.6475 11.0869L29.7256 9.98535L27.8389 9.43457L25.8701 10.2549L24.0771 11.1807L22.999 12.8799L22.085 14.9893L21.9092 17.3799L21.9561 19.876L22.2021 22.3838L22.2256 22.5479L22.2021 22.7002L21.9092 25.0674L22.4014 27.083L22.8584 28.9463H20.6904V27.5049L19.4951 27.7979L18.9443 25.5479L18.874 25.2783L18.9092 25.0205L19.2139 22.4893L18.9678 20.0518L18.9561 19.9932V19.9229L18.9092 17.2861V17.2158L18.9209 17.1455L19.1201 14.5088L19.1436 14.2627L19.2373 14.04L20.2686 11.626L20.3154 11.5088L20.3857 11.415L21.7451 9.24707L21.9678 8.90723L22.3311 8.71973L24.6045 7.53613L24.6631 7.5127L24.7334 7.47754L27.2061 6.45801L27.6982 6.25879L28.2021 6.41113Z" fill="black"/>
<path d="M92.5801 6.77295L95.2285 6.92529L95.6504 6.94873L95.9902 7.17139L98.2168 8.67139L98.3809 8.77686L98.5098 8.9292L100.279 10.9565L100.572 11.2847L100.631 11.73L101.018 14.3784L101.029 14.4487L101.041 14.5308L101.135 17.0503V17.062L101.229 19.7104H101.217L101.381 22.3003L101.393 22.4761L101.369 22.6519L100.947 25.0308L101.357 27.1636L101.697 28.9448H99.623V27.4917L98.416 27.7261L97.9473 25.3237L97.9004 25.0425L97.9473 24.7729L98.3809 22.3237L98.2285 19.8511V19.8042L98.1348 17.1675L98.041 14.8003L97.7246 12.5854L96.377 11.0503L94.6426 9.89014L92.5098 9.77295L90.3066 9.92529L88.5371 10.8276L87.3418 12.5034L86.6387 14.6245L86.4863 16.98L86.5801 19.4761L86.8145 22.0308L86.8262 22.1831L86.8145 22.3237L86.5215 24.8315L86.627 27.2808V27.4448H85.127L83.627 27.4331V27.3979L83.5215 24.8667V24.7495L83.5332 24.6323L83.8145 22.1245L83.5918 19.6519L83.5801 19.6167V19.5698L83.498 16.9331L83.4863 16.8511L83.498 16.7808L83.6621 14.2378L83.6738 14.0503L83.7324 13.8628L84.6348 11.1558L84.7637 10.98L86.2871 8.80029L86.498 8.49561L86.8379 8.33154L89.2168 7.12451L89.4863 6.98389L89.791 6.96045L92.3926 6.77295H92.5801Z" fill="black"/>
<path d="M98.041 74.5742L98.5215 74.7617L97.959 76.1562L97.5254 77.2227L97.5371 77.457H97.4316L97.3965 77.5508L97.1973 77.4688L94.9707 77.5508L94.9824 77.5625L92.3457 77.8203L92.1934 77.832L92.041 77.8203L89.5449 77.5508L87.084 77.6562H86.9199V74.6562H86.9551L89.498 74.5508L89.6035 74.5391L89.7207 74.5508L92.2051 74.8203L94.6895 74.5742H94.7832L97.4199 74.4688L97.748 74.4453L98.041 74.5742Z" fill="black"/>
<path d="M98.041 48.3052L100.443 49.2427L101.568 49.4888L100.889 52.4185L99.6582 52.1255L99.5527 52.1021L99.459 52.0669L97.2559 51.2114L94.9707 51.27L94.9824 51.2817L92.3457 51.5396L92.1934 51.5513L92.041 51.5278L89.4629 51.2583L87.084 51.3755H86.9785L86.873 51.3638L86.9199 49.8755L86.9551 48.5278V48.3755L89.498 48.2583H89.6035L89.7207 48.27L92.2051 48.5396L94.6895 48.2935L94.748 48.2817H94.7949L97.4551 48.2114L97.7598 48.1997L98.041 48.3052Z" fill="black"/>
<path d="M29.6445 48.1748L29.7383 48.1865L32.3516 48.3857L33.5117 48.374L33.5352 51.374L32.2695 51.3857H32.2109L32.1406 51.374L29.5625 51.1748L27.1133 51.2686L24.4766 51.5264L24.418 51.5381H24.3594L21.9688 51.5615L19.8242 52.3584L19.6484 52.417L19.4492 52.4404L19.3555 52.4521L19.2148 50.9521L19.1914 50.5771L18.8047 49.5342L21.1836 48.667L21.4297 48.585L21.6758 48.5732L24.1953 48.5498L26.832 48.292H26.9141L29.5625 48.1748H29.6445Z" fill="black"/>
<path d="M96.3857 78.0288L98.9521 78.6382H98.9873L101.448 79.2827L101.214 80.1499L101.167 80.7358L101.026 82.2358L100.933 82.2241L100.815 82.2124L100.687 82.1772L98.2607 81.5444L95.9287 80.9937L93.5381 81.228H93.4678L90.8311 81.3569H90.6553L88.1826 81.1812L85.9209 81.521L84.21 82.2358L82.1006 83.103L82.1475 80.8179V80.6421L83.5771 80.6655L83.0732 79.4585L84.9482 78.6968L85.1123 78.6265L85.2881 78.5913L87.8896 78.1929L88.0537 78.1694L88.2295 78.1812L90.6904 78.3569L93.2568 78.2515L95.8936 77.9937L96.1396 77.9702L96.3857 78.0288Z" fill="black"/>
<path d="M28.3438 74.4902L30.8867 74.7832L33.2539 74.6074L33.2891 74.5957H33.4062L33.4648 76.0957L33.5117 77.5957H33.4648L30.9219 77.7715L30.793 77.7832L30.6523 77.7715L28.1562 77.4902L25.6953 77.748H25.6602L25.625 77.7598L23.1055 77.8887L20.6445 78.3574L19.5898 78.6387L18.8398 75.7324L19.9883 75.4277L20.0352 75.416H20.082L22.6484 74.9238L22.7539 74.9121L22.8477 74.9004L25.3906 74.7715V74.7598L28.0273 74.4902L28.1914 74.4785L28.3438 74.4902Z" fill="black"/>
<path d="M29.791 77.9668L32.4277 78.166L32.6152 78.1895L35.1816 78.7051L37.1035 79.1035L38.3105 79.3496L38.2988 80.5801V80.7441H36.7988L36.7637 80.7324L36.5059 82.0449L34.584 81.6465L32.1816 81.1543L29.6152 80.9551L27.1777 81.0488L24.5293 81.3184L24.459 81.3301H22.0332L19.9004 82.1387L19.7129 82.209L19.5137 82.2207L19.4199 82.2324L19.2793 80.7324L19.2559 80.3809L18.8574 79.3262L21.2363 78.4355L21.4824 78.3418H24.2363V78.3301L26.8848 78.0723L26.9316 78.0605H26.9785L29.6152 77.9668L29.709 77.9551L29.791 77.9668Z" fill="black"/>
<path d="M29.6074 4.25L29.6191 4.39062L29.6074 4.53125L29.3496 6.64062L29.5605 7.58984L29.959 9.40625H28.0137L28.002 7.91797L26.6309 8.22266L26.373 7.03906L26.3262 6.80469L26.3496 6.54688L26.6191 4.35547L26.4434 2.21094V2.01172L29.4434 1.98828L29.6074 4.25Z" fill="black"/>
<path d="M93.9395 2.15576V2.24951L93.9043 4.45264V4.60498L93.6582 6.66748L93.8691 7.59326L94.2676 9.45654L92.3574 9.40967H92.2754L92.2988 7.92139L90.9277 8.22607L90.6816 7.06592L90.6348 6.83154L90.6582 6.58545L90.916 4.35889L90.9395 2.20264V2.08545L93.9395 2.15576Z" fill="black"/>
<path d="M19.7021 30.2349L19.7607 30.481L19.7256 30.7271L19.4795 32.6138L19.7139 33.3989L20.2295 35.145L18.4131 35.3208H18.3311L18.1904 33.8442L16.8428 34.2544L16.5146 33.1646L16.4326 32.8599L16.4678 32.5552L16.7256 30.5864L16.3389 28.8169L16.3271 28.7114L16.3154 28.6177L16.3037 28.5122L17.8037 28.4067L18.542 28.3599L19.2803 28.1958L19.7021 30.2349Z" fill="black"/>
<path d="M102.639 28.4067L104.139 28.5356L104.127 28.6294V28.6528L103.928 30.6685V30.6919L103.916 30.7036L103.658 32.7192L103.764 33.6333L104.01 35.7778L101.912 35.2505L101.83 35.2271L102.193 33.7974L100.787 33.9614L100.67 32.8599L100.646 32.6841L100.67 32.4966L100.939 30.3286L101.139 28.3599L101.15 28.2778L102.639 28.4067Z" fill="black"/>
<path d="M33.8428 50.1709L35.3428 50.2998L35.3311 50.3936L35.2607 51.7881L35.2373 51.9756L34.9912 53.2412L35.085 53.792L35.4834 56.0537L33.2568 55.5029L33.1748 55.4912L33.5264 54.0615L32.1318 54.3076L31.9912 53.499L31.9443 53.2412L32.0029 52.9717L32.2725 51.5186L32.3428 50.1943V50.1475L32.3545 50.042L33.8428 50.1709Z" fill="black"/>
<path d="M88.0869 50.0537L88.0986 50.0771L88.3682 51.3779L88.4268 51.6592L88.3799 51.9404L88.1924 52.9834L88.333 53.2529L89.1885 54.8936L87.4072 55.3857L87.3252 55.4092L86.915 53.9795L85.6729 54.6357L85.2979 53.9209L85.0635 53.4639L85.1572 52.96L85.3799 51.6943L85.1338 50.5811L85.0986 50.2998L86.5986 50.1709L87.4189 50.1006L88.0752 49.96L88.0869 50.0537Z" fill="black"/>
<path d="M24.0303 51.4971L24.0771 51.79L24.0068 52.083L23.7725 53.0791L23.9014 53.3252L24.9561 55.3291L22.7061 55.5166L22.6123 55.5283L22.4834 54.0635L21.2529 54.7197L20.8662 53.9932L20.6084 53.501L20.7256 52.9619L21.0186 51.7197L20.8193 50.583L20.8076 50.501V50.4072L20.7959 50.3018L22.2959 50.2314L23.1279 50.1963L23.7842 50.0791L24.0303 51.4971Z" fill="black"/>
<path d="M98.2744 50.2314L99.7744 50.3604L99.7627 50.4541L99.6924 51.8135V51.9189L99.6689 52.0244L99.4229 53.2783L99.5166 53.7939L99.9268 56.0674L97.6768 55.5049L97.5947 55.4814L97.958 54.0635L96.5635 54.3096L96.4229 53.5244L96.376 53.2549L96.4346 52.9736L96.7158 51.5322L96.7744 50.2549V50.208L96.7861 50.1025L98.2744 50.2314Z" fill="black"/>
<path d="M83.4668 35.0747L83.3848 35.1333H83.373L82.0723 36.0122L81.9902 36.0708L81.9082 36.1177L80.7129 36.7036L80.4434 37.1138L79.2949 38.7661L78.041 37.1841L77.9824 37.1138L79.1426 36.188L77.9824 35.3911L78.4746 34.6763L78.6973 34.3599L79.0371 34.1841L80.4668 33.481L81.6973 32.6489L81.7793 32.5903L83.4668 35.0747Z" fill="black"/>
<path d="M38.6699 32.5542L38.6816 32.5425L38.7285 32.5894L40.041 33.3159L40.2168 33.4097L40.3574 33.562L41.3066 34.5112L41.8223 34.687L43.7324 35.3315L42.5723 36.9839L42.5137 37.0542L41.3066 36.1987L40.8613 37.5347L40.0293 37.2534L39.6895 37.1362L38.3535 35.8003L37.1699 35.1323L37.0527 35.062L36.9707 35.0034L37.8262 33.7729L38.4473 32.8706L38.6465 32.5308L38.6699 32.5542Z" fill="black"/>
</svg>
