<svg width="120" height="120" viewBox="0 0 120 120" fill="none" xmlns="http://www.w3.org/2000/svg">
<path d="M111.312 114.289L112.355 114.547L111.652 117.453L110.891 117.266L108.547 117.629L108.453 117.652H108.359L105.723 117.723H105.582L103.051 117.301L100.672 117.734L100.438 117.781L100.203 117.746L97.6367 117.406H95.2344L92.5977 117.629L92.4922 117.641L92.3984 117.629L89.75 117.477V117.465L87.2773 117.348L84.7812 117.734L84.582 117.77L84.3945 117.746L81.8516 117.453L79.2969 117.477L79.2852 117.465L76.7773 117.711L76.6133 117.723L76.4492 117.699L73.918 117.383L71.3867 117.43H71.3281L68.6914 117.371H68.6445L66.1719 117.23L63.7109 117.699L63.4766 117.746L63.2305 117.711L60.7227 117.348L58.2383 117.488H58.0156L55.5898 117.242L53.1406 117.676L52.8828 117.723L52.6133 117.676L50.1172 117.242L47.6914 117.395H47.668L47.6445 117.406L42.3711 117.57H42.2539L42.1367 117.559L39.5938 117.254L37.1328 117.418L37.0508 117.43L36.957 117.418L34.5078 117.277L32 117.699L31.7891 117.734L31.5781 117.711L29.0234 117.395L26.5391 117.324L23.9492 117.512L23.8906 117.523H23.832L21.1953 117.512H21.0781L18.5 117.301L16.0508 117.395L16.0625 117.406L13.4258 117.664L13.2734 117.676L13.1211 117.664L10.625 117.395L8.16406 117.5H8V114.5H8.03516L10.5781 114.395L10.6836 114.383L10.8008 114.395L13.2852 114.664L15.7695 114.418H15.8633L18.5 114.312L18.5938 114.301L18.6758 114.312L21.3125 114.512L21.3008 114.523H23.7383L26.375 114.336L26.4453 114.324L26.5273 114.336L29.1641 114.406H29.2344L29.293 114.418L31.7305 114.699L34.1562 114.301L34.3203 114.277L34.4844 114.289L37.0156 114.43L39.582 114.254L39.7227 114.242L39.8633 114.266L42.3711 114.57L44.9141 114.488L47.5039 114.418V114.406L50.1523 114.242L50.3281 114.23L50.5039 114.266L52.8828 114.688L55.2617 114.266L55.4609 114.23L55.6602 114.242L58.1328 114.488L60.7227 114.348L60.8633 114.336L61.0156 114.359L63.418 114.711L65.8086 114.266L65.9844 114.23L66.1602 114.242L68.7969 114.371L68.7852 114.383L71.3633 114.43L73.9766 114.383H74.082L74.1875 114.395L76.6836 114.711L79.1445 114.477H79.2734L81.9102 114.453H82.0039L82.0859 114.465L84.5469 114.746L86.9727 114.371L87.125 114.348L87.2773 114.359L89.9141 114.488H89.9258L92.4453 114.641L95 114.43L95.0586 114.418H95.1055L97.7539 114.406H97.8594L97.9648 114.418L100.367 114.746L102.77 114.312L103.027 114.266L103.285 114.301L105.816 114.723L108.137 114.664L110.738 114.266L111.031 114.219L111.312 114.289Z" fill="black"/>
<path d="M60.4434 75.5498L62.9277 75.749L65.5645 75.667L65.7754 75.6553L65.9629 75.7021L68.4707 76.3115L71.1191 76.7334L72.1504 76.8975L72.3496 77.9287L72.8652 80.6006L72.8887 80.6943V80.7881L73.0762 83.4248L73.3574 85.9912L73.3691 86.0967V86.2021L73.2754 88.6982L73.7441 91.1592L73.7559 91.2178V91.2764L74.0137 93.9014L74.0254 93.9951V94.0889L73.9668 96.5498L74.5527 98.9521L74.5879 99.0928L74.5996 99.2451L74.7051 101.894V101.905L74.7754 104.472L75.1973 106.956L75.2207 107.073L75.4434 109.71L75.4551 109.815V109.933L75.3027 112.347L75.8887 114.749L75.9824 115.159L75.8652 115.546L75.6426 116.249L74.2129 115.804L73.0527 115.44L72.9707 115.464L72.9473 115.405L72.7832 115.358L72.8652 115.054L72.3379 112.862L72.291 112.64L72.3027 112.417L72.4434 109.886L72.2441 107.46L71.8105 104.847L71.7871 104.741V104.636L71.7051 102.011L71.5996 99.4912L71.0137 97.0654L70.9668 96.8779V96.6787L71.0254 94.0537L70.7676 91.5811V91.5693L70.3105 89.085L70.2754 88.9326L70.2871 88.7686L70.3574 86.2607L70.0879 83.6943V83.6592L70.0762 83.6357L69.9004 81.0811L69.6074 79.5225L67.9668 79.2646L67.8496 79.2412L65.4473 78.6553L63.0215 78.749H62.8457L60.4199 78.5498L58.0059 79.0537L57.748 79.1123L57.4902 79.0771L55.0176 78.7256L53.0137 78.9131L52.0527 79.6982L51.9473 81.667V81.7842L51.9121 81.9014L51.3848 84.3506L51.3262 86.8818V86.9639L51.3145 87.0576L50.9629 89.542L51.1621 92.0146L51.1738 92.2256L51.127 92.4365L50.6113 94.9092L50.3184 97.5342L50.2832 100.03V100.136L50.0488 102.761V102.819L50.0371 102.878L49.627 105.491L49.5332 107.964L49.5918 110.519L49.6035 110.671L49.5684 110.812L49.1348 113.284L49.1465 115.698V115.757L49.1348 115.804V115.897L47.6348 115.804L46.1348 115.698L46.1465 115.604L46.1348 113.167V113.026L46.1582 112.897L46.5918 110.437L46.5332 107.929V107.882L46.5449 107.847L46.6387 105.198L46.6504 105.104L46.6621 105.022L47.0723 102.503L47.2832 99.9834L47.3184 97.335V97.2646L47.3301 97.1826L47.6348 94.5693V94.499L47.6582 94.4287L48.1387 92.0498L47.9629 89.5654L47.9512 89.4131L47.9746 89.249L48.3379 86.6943L48.3965 84.1631V84.0225L48.4316 83.8818L48.9473 81.4092L49.0996 78.8779L49.1348 78.21L49.6504 77.7998L51.4551 76.3115L51.8066 76.0186L52.2637 75.9717L54.9004 75.7256L55.0762 75.7139L55.252 75.7373L57.6543 76.0771L60.0215 75.5732L60.2324 75.5264L60.4434 75.5498Z" fill="black"/>
<path d="M79.1743 12.1445L79.1509 12.2383L78.6001 14.6406V14.6523L78.5884 14.6758L77.9673 17.0898L77.8149 19.6211L77.8032 19.7852L77.7681 19.9375L77.0298 22.5039L76.9595 22.7852L76.772 23.0195L75.1431 25.1172L75.1196 25.1641L73.4321 27.1914L71.7798 29.1719L70.5728 31.0352L69.5298 33.1094L69.2368 35.5234L69.2251 35.6172L69.2017 35.7109L68.5571 38.1719L68.3228 40.6797L68.2993 40.8906L68.2173 41.0898L67.397 43.0703L67.9829 45.1094L68.7212 47.6523L68.7446 47.7344L68.7563 47.8164L69.2368 50.4297L69.272 50.6875L69.2368 50.9453L68.8149 53.3828L69.0962 55.8438L69.1196 56.0781L69.0728 56.3008L68.5688 58.832L68.3931 61.3633L68.3813 61.5039L68.3462 61.6562L67.6899 63.9648L67.8188 66.4258L67.8306 66.6133L67.7954 66.8008L67.2798 69.3438L66.8462 71.957L66.5415 74.5L66.5298 74.5469L66.5181 74.6055L66.0259 77.2188L64.8774 76.9961L64.772 77.125L63.7759 78.2617L63.5649 78.0625L62.9204 77.5L63.0845 76.668L63.5532 74.1367L63.8813 71.5234V71.4883L63.8931 71.4531L64.3267 68.8516L64.3384 68.8281V68.8047L64.8188 66.3789L64.6899 63.8945L64.6782 63.6602L64.7368 63.4258L65.4165 60.9766L65.5923 58.5039V58.4102L65.6157 58.3164L66.0728 55.9492L65.8149 53.5117L65.7915 53.3008L65.8267 53.1016L66.2251 50.6875L65.8032 48.3438V48.332L65.1001 45.9648V45.9531L64.3735 43.4102L64.2329 42.9062L64.4204 42.4258L65.3462 40.1523L65.604 37.7383L65.6157 37.6211L65.6392 37.5156L66.272 35.0312L66.5884 32.5L66.6235 32.2422L66.7407 32.0078L67.936 29.6289L67.9712 29.5586L68.0181 29.4883L69.3306 27.4609L69.4243 27.3203L71.1235 25.2812L72.811 23.2422L74.2173 21.4141L74.8384 19.2344L74.9907 16.7852V16.6445L75.0259 16.5039L75.6821 13.9375L76.2329 11.5234L76.2446 11.5V11.4648L76.2681 11.3711L79.1743 12.1445Z" fill="black"/>
<path d="M61.2031 2.72217L63.8398 2.93311L63.9336 2.94482L64.0273 2.96826L66.6289 3.51904L66.6172 3.53076L69.0312 3.90576L69.0898 3.91748L69.1367 3.9292L71.668 4.51514H71.6562L74.2578 5.10107L74.4453 5.14795L74.6094 5.22998L76.8828 6.37842H76.8945L79.332 7.44482L79.543 7.52686L79.7188 7.6792L81.6406 9.33154L81.9922 9.56592L81.1719 10.8315L80.3516 12.0854L79.9414 11.8159L79.7773 11.6987L77.9375 10.105L75.6992 9.13232L75.6641 9.12061L75.6289 9.09717L73.4023 7.98389L71 7.44482H70.9883L68.5391 6.85889L66.0781 6.47217L66.0312 6.46045H65.9961L63.5234 5.92139L61.0742 5.71045L58.6602 5.90967L56.4805 6.43701L56.375 6.46045L56.2695 6.47217L53.668 6.70654L51.5586 6.97607L49.8477 8.68701L49.4844 8.79248L49.3789 8.81592L48.9688 7.37451L48.9219 7.19873L48.0078 6.28467L49.8242 4.4917L50.1758 4.12842L50.6914 4.06982L53.3047 3.7417H53.3281L53.3516 3.72998L55.8711 3.49561L58.0625 2.96826L58.1797 2.93311H58.2969L60.9688 2.72217L61.0859 2.71045L61.2031 2.72217Z" fill="black"/>
<path d="M54.3325 29.3867L54.9888 31.7891L55.0122 31.8711L55.0239 31.9531L55.4341 34.543L56.0786 36.9805V36.9922L56.0903 37.0156L56.6997 39.5703L56.7114 39.5938L57.2974 42.1484L57.3677 42.4531L57.3091 42.7578L56.8403 45.2422V45.2539L56.313 47.8086L55.8442 50.3281L55.856 50.3398L55.4927 52.6953L56.0317 55.0273L56.0669 55.168L56.0786 55.2969L56.1724 57.8398L56.6411 60.3359L56.6646 60.4648V63.1602L57.0747 65.6211L57.4966 68.1641L58.0474 70.7539L58.0825 70.9297V71.0938L58.0122 73.5781L58.6216 75.9805L58.7271 76.4375L58.563 76.8711L58.2817 77.6562L56.8755 77.1289L55.7271 76.6953L55.7036 76.707L55.6919 76.6836L55.4692 76.6016L55.5864 76.25L55.0591 74.1055L55.0122 73.9062V73.707L55.0708 71.2344L54.5669 68.7852V68.75L54.5552 68.7266L54.1099 66.125V66.1133L53.688 63.5117L53.6646 63.3828V60.7344L53.2192 58.2734L53.1958 58.168V58.0742L53.0786 55.5781L52.5161 53.0938L52.4458 52.8125L52.4927 52.5312L52.8794 49.9062L52.8911 49.8711V49.8477L53.3716 47.2695V47.2461L53.8989 44.6562L54.3091 42.5117L53.7817 40.2617V40.25L53.1724 37.7422L52.5044 35.1758L52.481 35.0352L52.0708 32.4688L51.438 30.1719V30.1367L51.4263 30.1016L51.4028 29.9961L54.3325 29.3633V29.3867Z" fill="black"/>
<path d="M77.3906 101.505L80.0273 101.634L80.9883 101.693L81.3398 102.583L82.1953 104.751L82.2656 104.927L82.2891 105.115L82.582 107.646L83.0625 110.248L83.0859 110.4V110.541L83.0508 113.201L83.2852 115.556L83.2969 115.568V115.673L81.8086 115.802L80.3086 115.931L80.2969 115.826V115.814L80.0508 113.318V113.154L80.0742 110.658L79.6289 108.185L79.6172 108.138V108.091L79.3242 105.654L78.9023 104.576L77.2734 104.505L74.8125 104.728L74.6602 104.74L74.5078 104.716L73.5469 104.611L73.875 101.634L74.707 101.728L77.1797 101.505L77.2852 101.494L77.3906 101.505Z" fill="black"/>
<path d="M42.6821 101.438L45.2017 101.661L45.2134 101.649L47.7798 101.685L47.7563 103.032L47.8384 103.126L48.7642 104.31L48.6821 104.368L48.272 104.685H47.7446L45.1782 104.649H45.0728L43.1626 104.485L42.4595 105.282L42.3774 107.38V107.462L42.3657 107.544L41.9673 110.157L41.7563 112.536L41.8032 115.161V115.372L41.7563 115.571L41.604 116.181L38.6978 115.431L38.8032 115.021L38.7563 112.595L38.7446 112.513L38.7563 112.431L38.9907 109.806L39.0024 109.759V109.712L39.3892 107.099L39.4829 104.626L39.5063 104.087L39.8579 103.688L41.4399 101.931L41.9321 101.368L42.6821 101.438Z" fill="black"/>
<path d="M43.7612 9.91064L45.437 11.3989L45.8003 11.7271L45.9058 12.2075L46.4683 14.7974L46.5034 14.938V15.0786L46.5737 17.6567L47.0073 19.8833L48.062 21.8872L49.5269 23.9497L50.9214 25.9185L52.7378 27.1958L54.4956 27.8872L56.1011 27.8638L56.5581 27.2544L56.0542 25.4263L56.0073 25.2505V25.063L55.937 22.4263L55.9253 22.0044L56.1362 21.6411L57.4839 19.2856L57.8472 18.6411L58.5854 18.5474L61.1636 18.2192L61.5854 18.1606L61.9604 18.3364L64.3628 19.4028L65.019 19.6958L65.2065 20.3872L65.8862 22.9888L65.9565 23.2583L65.9331 23.5513L65.6167 26.188L65.605 26.3052L65.5698 26.4106L65.2417 27.6177L66.062 27.9106L68.5229 28.2739H68.5815L68.6401 28.2974L69.5425 28.5083L69.1909 29.9614L68.8511 31.4263L67.9956 31.2271L65.4644 30.8521L65.3237 30.8286L65.1831 30.7817L62.9331 29.9731L61.6323 29.5044L61.9956 28.1685L62.6519 25.6958L62.9097 23.4458L62.4761 21.8403L61.1167 21.231L59.7104 21.4185L58.937 22.7544L58.9839 24.77L59.6519 27.1724L59.8511 27.8872L59.4058 28.4731L58.0581 30.2544L57.6128 30.8403L56.8862 30.8521L54.2495 30.8989H53.9448L53.6636 30.7935L51.4839 29.9263L51.3198 29.856L51.1675 29.7505L48.9761 28.2153L48.7651 28.0747L48.6245 27.8638L47.0776 25.6841L45.5659 23.5513L45.5073 23.4692L45.4604 23.3755L44.2417 21.0552L44.1479 20.8677L44.1011 20.645L43.6089 18.0552L43.5854 17.938V17.8091L43.5034 15.2661L43.0698 13.3208L42.3784 12.6997L40.9604 13.1099L39.2847 14.6099L38.5464 15.2661L37.6558 14.856L37.562 14.8091L38.1948 13.4497L38.2065 13.4028L37.2925 12.3716L39.2378 10.6372L39.4956 10.4146L39.8237 10.3208L42.3433 9.59424L43.1401 9.35986L43.7612 9.91064Z" fill="black"/>
<path d="M60.4648 41.2007L63.0078 41.4702H65.5742L65.5977 42.9702L65.6094 44.4702H62.7969L60.3008 44.2007L57.8867 44.5405L56.375 44.7397L54.793 44.9624L54.6758 43.3687L54.6523 43.1812L56.1406 43.064L55.9648 41.7749L57.4766 41.564H57.4883L60.1133 41.2124L60.2891 41.189L60.4648 41.2007Z" fill="black"/>
<path d="M49.0415 7.55078L49.0767 7.5625L50.5415 7.90234L50.5181 7.99609L50.272 9.08594L49.1587 9.15625L46.9673 9.30859L46.2993 9.63672L46.9673 9.73047L47.0259 9.74219L47.0962 9.75391L49.6274 10.3398L52.0649 10.6445L54.6431 10.7266H54.7485L57.3735 11.0078H57.4321L57.479 11.0195L59.8579 11.418L62.2837 11.0898L62.4243 11.0664L62.5649 11.0781L65.0493 11.1953L67.6157 10.9492L67.7329 10.9375L67.8501 10.9492L70.3579 11.0898L72.8423 10.7734L75.3618 10.3516L77.8579 9.75391L77.9985 9.71875H78.1392L80.8228 9.61328L80.8462 10.4922L81.1743 10.8203L82.2173 11.8984L81.9243 12.1797L81.5142 12.5781L80.9399 12.6016L78.3735 12.707L75.9829 13.293L75.936 13.3047H75.8892L73.2759 13.7383L73.2524 13.75H73.229L70.604 14.0898L70.4634 14.1133L70.3228 14.1016L67.7446 13.9492L65.272 14.1953L65.1665 14.207H65.061L62.5649 14.0664L60.0571 14.4297L59.8228 14.4531L59.6001 14.418L56.9985 13.9727L54.561 13.7266L51.9126 13.6445H51.8423L51.7603 13.6328L49.147 13.3047L49.0649 13.293L48.9946 13.2695L46.4751 12.6953L43.9321 12.3438L42.5845 12.1562L42.6431 10.7969L42.7134 8.95703L42.7368 8.06641L45.9009 6.48438L46.1704 6.35547L46.4751 6.33203L48.9478 6.16797L49.0415 7.55078Z" fill="black"/>
<path d="M44.4443 12.3623V12.5381L44.2686 15.0693L44.2451 15.21L43.8467 17.6357L44.0811 20.0967V20.1084L44.3037 22.7217L44.3154 22.7686V22.8154L44.374 25.3584L44.7959 27.7256L45.6162 30.1162L46.4717 32.5889L47.292 34.7217L48.9678 36.3506L48.9912 36.3623L49.0029 36.3857L49.917 37.3232L50.3857 35.7178L50.3271 33.3271L50.3154 33.292L50.3271 33.2686V33.0107L51.8271 33.0342L53.3271 33.0459L53.3154 33.3037L53.3975 35.8818V36.1162L53.3389 36.3506L52.6006 38.8584L52.4365 39.4209L51.9443 39.7256L50.5264 40.5811L49.4951 41.2021L48.6631 40.3467L46.8467 38.4717V38.46L44.9717 36.6436L44.7256 36.4209L44.6084 36.1045L43.6475 33.6201L43.6357 33.5967V33.5732L42.7803 31.0889L41.9248 28.5928L41.8779 28.4756L41.8662 28.3584L41.4092 25.7568L41.3857 25.6514V25.5459L41.3154 22.9912L41.0928 20.3662L40.8467 17.7178L40.835 17.5303L40.8584 17.3428L41.2686 14.8701L41.4443 12.3389V12.3154L44.4443 12.3623Z" fill="black"/>
<path d="M79.5259 12.7954L80.3696 12.8306L81.0259 12.7954L81.1899 15.3384V15.4907L81.1782 15.6313L80.8384 18.1392L80.9204 20.6704V20.8228L80.7329 23.4595V23.5767L80.6978 23.7056L80.0767 26.2485L79.5259 28.8384L78.9751 31.4165L78.9399 31.5571L78.8931 31.686L77.8853 34.1353L77.8267 34.2759L77.7446 34.3931L76.3149 36.5024L75.2251 38.8228L75.0962 39.0923L74.8735 39.2915L72.8931 41.0728L72.0728 41.811L71.1235 41.2603L69.272 40.1587L68.7095 39.8306L68.5688 39.186L68.0063 36.561V36.5493L67.7017 35.0376L67.3735 33.3735L69.0728 33.2563H69.0845L69.1899 34.7329L70.6431 34.4517L70.9478 35.9399L71.3579 37.9087L71.6978 38.1079L72.6353 37.2642L73.6665 35.1196L73.7134 35.0259L73.772 34.9321L75.1548 32.8579L76.0571 30.6665L76.5845 28.2056L76.5962 28.1938L77.1587 25.6157V25.5923L77.7446 23.1079L77.9204 20.6118L77.8384 18.104V17.9868L77.8501 17.8696L78.1782 15.3853L78.0259 12.9946V12.8071L78.0376 12.7134L79.5259 12.7954Z" fill="black"/>
</svg>
