<svg width="120" height="120" viewBox="0 0 120 120" fill="none" xmlns="http://www.w3.org/2000/svg">
<path d="M26.7871 26.1128L28.334 27.7183L30.5254 28.3159L30.7598 28.3862L30.959 28.5151L33.1387 29.9565L35.3652 31.3979L35.5762 31.5386L35.7402 31.7378L37.3691 33.812H37.3574L39.0332 35.769L39.0684 35.8042L39.0918 35.8394L40.6973 37.9604L40.8262 38.1479L40.9082 38.3706L41.7754 40.8081L42.8535 42.8823L44.4004 44.98L44.459 45.0503L44.5059 45.1323L45.7949 47.4409L45.8066 47.4526L45.8184 47.4761L46.8848 49.5151L48.7598 50.8511L48.7949 50.8862L48.8418 50.9214L50.6348 52.4097L52.6387 53.0776L54.9824 53.1011H55.2285L55.4629 53.1831L57.8418 54.0034L60.0566 54.3315L62.4238 53.8862L62.5762 53.8628H62.7285L65.2363 53.9097L67.6973 53.5581L70.1699 52.937L70.3223 52.9019L70.4746 52.8901L73.0176 52.7729L75.5254 52.3159H75.5723L75.6191 52.3042L78.2441 51.9995H78.3027L78.3613 51.9878L80.8809 51.9175L83.4121 51.4604L83.752 51.4019L84.0801 51.4956L86.6113 52.1987L89.1543 52.8315L89.3652 52.8784L89.541 52.9839L91.1465 53.9097L92.7988 52.9722L93.1035 52.7964L93.4668 52.7847L95.998 52.6558L98.5645 52.2573L98.7168 52.2339L98.8809 52.2456L101.506 52.3979L101.682 52.4097L101.857 52.4565L104.377 53.2417L104.693 53.3472L104.939 53.5581L106.896 55.3159L106.932 55.3511L106.967 55.3979L108.771 57.2612L108.947 57.437L109.053 57.6597L110.131 59.9214L111.443 62.2534L111.584 62.5112L111.619 62.8042L111.959 65.4292L112.299 67.9839L112.756 70.5854L112.779 70.7729L112.896 73.3979L112.908 73.48L112.896 73.5503L112.779 76.1167L113.049 78.5308L113.576 81.062L113.6 81.1792L113.611 81.2964L113.705 83.7925L114.256 86.1597L114.279 86.2417L114.291 86.3237L114.303 86.4175L112.803 86.5933L111.9 86.6987L111.338 86.8276L111.314 86.7573L111.303 86.6636H111.291L110.764 84.355L110.729 84.2144V84.0737L110.611 81.519L110.096 79.0815L110.084 79.0112L110.072 78.9292L109.791 76.3042L109.779 76.187V76.0698L109.896 73.48L109.779 70.9839L109.346 68.4995L109.334 68.4644V68.4409L108.982 65.8394V65.8276L108.678 63.4604L107.518 61.3979L107.482 61.3511L107.471 61.3042L106.451 59.1831L104.881 57.5425L103.17 56.0073L101.107 55.3628L98.8809 55.2339L96.4434 55.6323L96.3613 55.644H96.291L93.9473 55.7612L91.8848 56.9448L91.1348 57.3667L90.3965 56.9331L88.252 55.7026L85.8848 55.1167L85.8613 55.105H85.8379L83.5996 54.4722L81.3027 54.894L81.1973 54.9058L81.0801 54.9175L78.5723 54.9761L76.0527 55.2573L76.0645 55.269L73.4629 55.7495L73.3691 55.7612L73.2637 55.7729L70.7441 55.8784L68.3418 56.4995L68.2598 56.5229L68.1777 56.5347L65.5645 56.8979L65.4473 56.9214H65.3301L62.834 56.8628L60.3613 57.3433L60.1035 57.3901L59.8574 57.3433L57.2324 56.9448L57.0918 56.9214L56.9746 56.8745L54.7012 56.0894L52.416 56.0776H52.1816L51.959 56.0073L49.4277 55.1753L49.1582 55.0933L48.9355 54.9058L46.9199 53.23V53.2183L44.8457 51.7417L44.5527 51.5308L44.3887 51.2144L43.1582 48.8706V48.8589L41.9395 46.6792L40.4043 44.6167L40.334 44.5229L40.2754 44.4175L39.0566 42.0737L38.998 41.98L38.9629 41.8745L38.1543 39.5776L36.7598 37.7144L35.0371 35.7104L35.0254 35.687L35.002 35.6636L33.5254 33.7651L31.5215 32.4878L31.5098 32.4761H31.498L29.5059 31.1519L27.1738 30.519L26.7754 30.4136L26.4824 30.1206L24.6309 28.1987L22.7559 26.2417L22.252 25.7261L22.3457 24.9995L22.4277 24.4253L23.916 24.6245L24.373 24.6831L24.9238 24.1675L26.7871 26.1128Z" fill="black"/>
<path d="M24.4663 44.1499L25.2046 46.1772L25.2397 46.2593L25.2632 46.3296L25.8843 48.9077L25.9077 48.978L25.9194 49.0601L26.271 51.6733L26.2827 51.7319V51.7788L26.4585 54.4155V54.4272L26.5991 57.0757L26.6108 57.2515L26.5757 57.4272L26.1069 59.9468L25.9663 62.3491L26.2241 64.9155L26.2358 64.9976V65.0679L26.2476 67.7046V67.7866L26.2358 67.8804L25.9546 70.1655L26.7983 72.3218L26.8452 72.4272L26.8687 72.5444L27.3608 74.8413L28.6733 76.8569L28.7319 76.9624L28.7905 77.0796L29.7749 79.3413L29.9741 79.8218L29.8452 80.314L29.1772 82.8804L29.1655 82.8921L28.521 85.2944L28.3687 87.814L28.3569 88.0132L28.2983 88.189L27.4897 90.6265L27.0093 93.0054L26.7046 95.6421L26.6929 95.8062L26.6343 95.9585L25.814 98.3491L25.3452 100.869L25.3335 100.892V100.916L24.7476 103.494L24.7358 103.517V103.541L24.1147 105.943L23.9272 108.509L23.8921 108.966L23.6108 109.33L21.9702 111.439L20.646 113.384L20.4819 113.83L21.2319 113.888H21.3257L21.4312 113.912L23.1538 114.24L23.9507 113.22L24.6421 111.158L24.6772 111.029L24.7358 110.923L25.9546 108.615L26.9155 106.458L27.3374 104.009L27.3608 103.892L27.4077 103.763L28.228 101.396L28.7085 98.8765L28.7554 98.6304L28.8726 98.4194L30.1382 96.1577L31.3101 93.8022L32.3062 91.4468L32.3413 91.3647L32.3882 91.2827L33.7124 88.9976L33.7593 88.9155L33.8179 88.8335L35.3647 86.8296L36.7124 84.6733L37.9312 82.353L38.0483 82.1304L38.2358 81.9546L40.0171 80.2905L41.1304 78.4038L41.1655 78.3452L41.2007 78.2983L41.2593 78.2163L42.478 79.0718L43.4507 79.7515L43.7202 79.9155L42.5015 82.0132L42.3843 82.2007L42.2202 82.353L40.4507 83.9819L39.3491 86.103L39.3257 86.1499L39.2905 86.1968L37.896 88.4468L37.8608 88.5171L37.8022 88.5757L36.2319 90.603L35.0249 92.7007L34.0288 95.0562L34.0171 95.0913L33.9937 95.1382L32.8218 97.4937L32.8101 97.5288L32.7866 97.564L31.603 99.6733L31.1577 102.052L31.146 102.169L31.0991 102.275L30.2788 104.595L29.8569 107.138L29.8218 107.326L29.7397 107.501L28.6499 109.927L28.6382 109.974L28.6147 110.009L27.4312 112.224L26.728 114.416L26.646 114.673L26.4819 114.884L24.9468 116.818L24.3843 117.544L23.4819 117.369L20.939 116.865L18.2671 116.701L16.2515 116.583L16.9663 114.685L17.9038 112.177L17.9624 112.001L18.0679 111.861L19.5444 109.669L19.5796 109.623L19.603 109.587L20.9624 107.83L21.1265 105.615L21.1382 105.474L21.1733 105.345L21.8296 102.791L22.4038 100.259L22.8843 97.7046L22.9077 97.6108L22.9429 97.5054L23.7397 95.1265L24.0327 92.6655V92.5952L24.0444 92.5366L24.5718 89.9468L24.5835 89.853L24.6187 89.771L25.3921 87.4155L25.5444 84.9663V84.814L25.5913 84.6733L26.271 82.1069L26.8101 80.0562L26.0718 78.3569L24.7124 76.2593L24.5601 76.0366L24.5015 75.7671L23.9507 73.271L23.0366 70.9038L22.896 70.564L22.9429 70.189L23.2476 67.5288L23.2358 65.0796H23.2241L22.978 62.5601L22.9663 62.4429V62.3257L23.1187 59.689L23.1421 59.5015L23.5991 57.0522L23.4702 54.6147L23.3062 52.0835L22.9429 49.4702H22.9312L22.3687 47.1499L21.6538 45.1929L22.8608 44.7476L22.1343 43.4819L22.2983 43.3765L23.8452 42.4741L24.4663 44.1499Z" fill="black"/>
<path d="M93.3838 54.8438L93.8291 56.0273L95.2705 57.293L97.333 57.7266L97.4268 57.7383L97.5205 57.7734L100.005 58.6523L100.38 58.7812L100.638 59.0859L102.337 61.043L102.454 61.1719L102.536 61.3359L103.731 63.5977L103.872 63.8672L103.896 64.1602L104.13 66.6328L104.681 69.1992L104.728 69.4102L104.704 69.6328L104.517 72.1758L104.669 74.5547L105.255 76.957L106.005 79.4062L106.954 81.4453L108.489 82.9453L110.657 84.0703L110.681 84.082L110.692 84.0938L112.813 85.2539L115.11 85.8047L115.368 85.875L115.591 86.0156L115.673 86.0625L114.853 87.3281L114.7 87.5508L114.431 88.7344L111.946 88.1484L111.735 88.1016L111.56 87.9961L109.239 86.7188V86.707L106.931 85.5234L106.743 85.418L106.579 85.2656L104.669 83.4023L104.47 83.2148L104.353 82.957L103.228 80.543L103.181 80.4492L103.157 80.3438L102.384 77.8359L102.372 77.7891L102.36 77.7539L101.728 75.1758L101.704 75.0469L101.692 74.9062L101.517 72.2695V72.1641L101.528 72.0586L101.692 69.6328L101.188 67.2188L101.165 67.1367L101.153 67.043L100.931 64.7109L99.9697 62.8945L98.6221 61.3477L96.5713 60.6211L94.2627 60.1406L93.876 60.0586L93.583 59.8008L91.5791 58.0547L91.2979 57.8086L91.1689 57.457L90.583 55.8984L91.79 55.4531L90.8877 54.3281L91.04 54.1992L92.6572 52.8984L93.3838 54.8438Z" fill="black"/>
<path d="M98.1318 61.52L98.167 61.6372L98.1904 61.7544L98.6006 64.3677H98.5889L99.0459 66.9458L99.0693 67.0864V67.2271L99.0342 69.8872V70.0513L98.9873 70.2271L98.3428 72.8052L97.7217 75.2544L97.7334 75.2661L97.2646 77.8677V77.8794L96.8076 80.3169L96.5967 82.5786L97.5107 84.688H97.499L98.4834 86.6802L100.218 88.2622L100.417 88.438L100.546 88.6841L101.765 91.0513L101.847 91.2271L101.894 91.4146L102.456 93.9927V94.0161L102.972 96.5474L103.581 99.1138L103.616 99.2661V99.4185L103.698 101.821L104.636 104.012L104.718 104.2L104.741 104.387L105.128 107.012L105.573 109.614L105.679 110.282L105.257 110.809L103.886 112.508L103.933 114.7L103.944 115.708L103.019 116.106L100.604 117.125L100.288 117.266L99.9365 117.243L97.2998 117.09H97.2881L92.8115 116.809L93.7959 114.805L93.8428 114.7L95.1553 115.333L95.2373 113.961L97.4756 114.102H97.4639L99.749 114.231L100.909 113.727L100.886 112.016L100.874 111.477L101.214 111.055L102.491 109.45L102.163 107.481V107.446L101.8 105.008L100.827 102.735L100.71 102.477V102.196L100.628 99.688L100.054 97.2505L100.042 97.2153V97.1919L99.5146 94.6021V94.5903L98.999 92.2466L97.9912 90.2778L96.2686 88.7192L96.0576 88.52L95.9287 88.2739L94.792 85.9536L94.7686 85.9185L94.7568 85.8833L93.7021 83.4341L93.5498 83.0825L93.585 82.6958L93.8193 80.0474V79.9771L93.8428 79.9067L94.3232 77.3403L94.7686 74.7388L94.7803 74.6919L94.792 74.6333L95.4365 72.0786L96.0342 69.6763L96.0576 67.3091L95.6357 64.8599V64.8364L95.2373 62.3169L94.5107 60.0786L94.4521 59.9263L94.4404 59.7739L94.4287 59.6685L95.917 59.5161L96.3623 59.481L97.3584 59.1528L98.1318 61.52Z" fill="black"/>
<path d="M47.4058 81.896V81.9312L47.4175 81.978L47.8511 84.4272L47.8628 84.439V84.4507L48.2378 86.9116L49.1284 89.2788L49.1401 89.3257L49.1519 89.3608L49.9253 91.8921L49.9487 91.9741L49.9722 92.0679L50.4175 94.564L51.0386 97.0015H51.0503L51.9058 99.5093L51.9292 99.5796L51.9409 99.6616L52.5503 102.228L52.562 102.287L52.5737 102.357L52.9136 104.806L53.9097 107.068L54.1206 107.56L53.98 108.076L53.2534 110.607L53.23 110.689L53.1948 110.771L52.3394 112.845L52.0933 115.201L51.9761 116.208L51.0151 116.478L48.6831 117.158L48.4487 117.228L48.2026 117.216L45.5659 117.111L45.0386 117.087L44.6401 116.748L42.7886 115.142L41.7456 114.251L42.5542 113.126L44.0425 111.052L44.8979 109.048L44.9565 107.232L44.0308 105.099L43.9839 104.982L43.9604 104.865L43.3745 102.533L42.0386 100.505L41.9448 100.353L41.8862 100.201L40.9722 97.7749L39.9761 95.4077L38.8394 93.0405L38.7925 92.9585L38.769 92.8765L37.9604 90.521L36.7417 88.5288L36.2144 88.0132L37.2925 86.9585L38.3706 85.9155L39.0151 86.5835L39.1323 86.7007L39.2261 86.8413L40.5972 89.0913L40.6792 89.2319L40.7378 89.3843L41.5815 91.8335L42.6831 94.1187L42.6948 94.1538L42.7183 94.189L43.7378 96.6147L43.7495 96.6382L43.7612 96.6733L44.6167 98.9702L46.0229 101.091L46.1636 101.302L46.2222 101.548L46.8315 104.021L47.8394 106.33L47.9683 106.634V106.974L47.8979 109.435L47.8862 109.716L47.769 109.986L46.7378 112.4L46.6792 112.552L46.5737 112.681L45.7769 113.759L46.1987 114.123L48.0737 114.205L49.2104 113.876L49.3979 112.283L49.4214 112.072L49.5034 111.884L50.4175 109.634L50.9331 107.759L50.0894 105.802L50.0073 105.615L49.9722 105.416L49.6206 102.908L49.0229 100.341H49.0112L48.2026 97.9741L48.1909 97.9272L48.1792 97.8687L47.5112 95.314L47.4995 95.2554L47.4878 95.2085L47.0542 92.771L46.3042 90.3218L45.3901 87.8374L45.3433 87.6968L45.3198 87.5444L44.8979 84.9546L44.4644 82.5054V82.4819L45.9175 82.1421L47.3823 81.8022L47.4058 81.896Z" fill="black"/>
<path d="M72.2856 67.5654L72.5435 67.5771L72.4966 68.9717L73.645 68.5732L74.2075 70.1904L74.2778 70.3662L74.2896 70.5654L74.5005 73.0498L75.2505 75.3467L76.188 77.4443L77.7466 79.4131L77.8872 79.5889L77.9692 79.7998L78.8247 82.0732L80.1372 83.7725L82.1411 84.7334L82.27 84.8037L82.3872 84.8857L84.5083 86.4561L84.5552 86.4912L84.6021 86.5381L86.4771 88.1787L88.645 89.5146H88.6567L88.6802 89.5264L90.7778 90.8857L93.145 92.1045L93.52 92.292L93.7427 92.6553L95.1372 94.9287L95.1841 94.9873L95.2192 95.0576L96.356 97.4131V97.4248L97.5044 99.8037L97.5396 99.8857L97.5747 99.9795L98.4302 102.546L98.4419 102.616L99.0044 105.101L99.7544 107.608L99.8716 108.007L99.7778 108.405L99.1216 110.937L99.0513 111.241L98.8638 111.487L97.4692 113.257L97.1997 115.308V115.319L97.188 115.425L95.6997 115.202L94.2114 114.991L94.2231 114.909L94.5513 112.472L94.6099 112.073L94.856 111.745L96.2856 109.894L96.7544 108.054L96.1333 105.968L96.1099 105.874L95.5591 103.425L94.7505 101.022L93.6489 98.7256L92.5825 96.499L91.3989 94.5771L89.4067 93.5576L89.3481 93.5342L89.2778 93.4873L87.0864 92.0693L84.8364 90.6982L84.7192 90.6279L84.6255 90.5459L82.7153 88.8701L80.7114 87.3818L78.52 86.3271L78.1919 86.1631L77.981 85.8818L76.3403 83.7607L76.1997 83.585L76.1177 83.374L75.2388 81.0771L73.7271 79.1553L73.6099 79.0146L73.5396 78.8506L72.4614 76.46L72.4263 76.3779L72.4028 76.2959L71.5942 73.7881L71.5474 73.624L71.5239 73.46L71.3247 70.999L70.8091 69.5693L70.0825 67.4834L72.2856 67.5654Z" fill="black"/>
<path d="M79.0986 83.4175V84.9175L80.4814 84.8706L80.5518 87.4019L80.8213 89.9917L80.833 90.144L80.8213 90.2964L80.5752 92.7573V95.7808L80.4346 96.0854L79.3447 98.3354L78.4775 100.832L78.4307 100.972L78.3486 101.101L77.0947 103.222L76.3799 105.613L76.2979 105.894L76.1221 106.105L74.5635 108.074L73.3799 110.324L73.3682 110.359L73.3447 110.382L72.0088 112.597L71.4346 113.886L71.8564 114.273L73.6025 114.226L74.9502 113.687L75.1611 111.882L75.208 111.449L75.4893 111.109L77.1064 109.117L78.3135 107.031L79.3799 104.675L79.4033 104.617L79.4385 104.558L80.7041 102.238L80.7275 102.191L80.7627 102.144L82.1572 99.9995L83.3174 97.7144L84.3486 95.3472L84.4189 95.2065L84.501 95.0776L86.001 92.98L87.1729 90.8472L87.1846 90.8354L87.2314 90.7417L88.5322 91.48L89.8447 92.23L89.7979 92.2769L89.8096 92.2886L88.5908 94.5151L88.5439 94.5972L88.4854 94.6675L87.0439 96.6597L86.0244 98.9917L86.001 99.062L84.8057 101.417L84.7705 101.5L84.7236 101.57L83.2705 103.785L82.1104 105.882L81.0439 108.308L81.0088 108.39L80.9736 108.46L79.626 110.746L79.5674 110.839L79.4971 110.933L78.0791 112.656L77.833 114.917L77.7393 115.808L76.9072 116.136L74.4932 117.109L74.2471 117.214L73.9775 117.226L71.3174 117.296L70.708 117.308L70.2627 116.886L68.6104 115.351L67.8252 114.625L68.2705 113.64L69.3252 111.273L69.3721 111.191L69.4072 111.109L70.7666 108.847L71.9736 106.585L72.0322 106.468L72.1143 106.363L73.5791 104.488L74.2822 102.179L74.3291 102.015L74.4229 101.863L75.6768 99.7183L76.5088 97.3511L76.5322 97.269L76.5674 97.1987L77.5752 95.1011V92.605L77.8213 90.144L77.5635 87.7183V87.6597L77.5518 87.6011L77.4814 84.9644L77.4346 83.4292L78.9697 83.4175H79.0986Z" fill="black"/>
<path d="M17.7759 23.8398L18.7954 26.2891L18.9946 26.7695L18.854 27.2734L18.2095 29.5L18.1274 29.8047L17.9165 30.0508L16.229 32.0781L16.1118 32.1953L14.2954 33.9531L12.6196 35.8398L11.0259 37.9492L10.9907 38.0078L10.9321 38.0664L9.15088 40.0117L9.11572 40.0586L9.06885 40.1055L7.26416 41.7695L6.23291 43.6328L5.79932 45.4375L6.50244 46.9844L7.76807 48.3672L9.27979 48.5664L10.8501 47.6055L12.4087 45.8242L12.7603 45.4258L13.2759 45.332L15.7485 44.8984L18.2798 44.1602L18.397 44.1367L20.7056 43.6445L22.4165 42.5547L23.7876 41.1836L23.9048 39.2969L23.9868 37.9258L25.3579 37.8789L25.6274 37.8672L25.6743 39.3672V39.3906L26.9048 39.4609L26.7642 41.9336L26.729 42.5078L26.3188 42.918L24.4087 44.8047L24.2915 44.9219L24.1626 45.0039L22.0767 46.3398L21.8423 46.4805L21.5728 46.5391L19.1235 47.0312L16.5688 47.793L16.4868 47.8281L16.4048 47.8398L14.3188 48.2031L12.9478 49.7734L12.7954 49.9492L12.6079 50.0664L10.3813 51.4258L9.92432 51.6953L9.39697 51.625L6.81885 51.2617L6.2915 51.1914L5.92822 50.793L4.13525 48.8359L3.97119 48.6602L3.87744 48.4492L2.86963 46.1992L2.65869 45.7305L2.77588 45.2266L3.36182 42.7656L3.40869 42.5664L3.51416 42.3906L4.7915 40.082L4.90869 39.8711L5.08447 39.707L6.97119 37.9492L8.71729 36.0391L10.2173 34.0352L10.2524 33.9883L10.2993 33.9414L12.0454 31.9609L12.0806 31.9141L12.1274 31.8789L13.9321 30.1328L15.4087 28.375L15.8071 26.9453L15.0103 25L14.0376 22.6797L13.8735 22.293L13.9321 21.8828L13.9556 21.7891L15.4321 22L15.5845 22.0117L16.8032 21.5195L17.7759 23.8398Z" fill="black"/>
<path d="M74.0693 77.1489L71.6904 78.063L71.585 78.1099L71.4678 78.1333L69.0068 78.6489L66.6865 79.6333L66.6396 79.6567L66.5811 79.6685L64.085 80.5239L63.9912 80.5591L63.8975 80.5825L61.2959 81.0981L61.2842 81.0864L58.8232 81.731L56.3623 82.4927L56.2568 82.5161L56.1631 82.5278L53.5615 82.9614L53.4561 82.9849H53.3506L50.8545 83.0317L48.3936 83.6177L48.1475 83.6646L47.9014 83.6411L45.3584 83.3716L42.7803 83.3481L42.4053 83.3364L42.0654 83.1489L40.6592 82.3521L41.374 81.1099L39.9326 80.7231L39.9561 80.6528L40.46 78.7896L42.1475 79.7505L43.2139 80.3481L45.4287 80.3833H45.499L45.5576 80.395L47.9248 80.6294L50.3154 80.0903L50.4678 80.0552L50.6201 80.0435L53.1162 79.9849L55.5654 79.5864L58.0146 78.8364L58.0498 78.8247H58.085L60.6396 78.1685L60.6748 78.1567H60.71L63.1592 77.6646L65.5029 76.8677L67.9639 75.8364L68.0928 75.7778L68.2334 75.7544L70.6709 75.2388L72.9912 74.3481L73.0381 74.3364L73.085 74.313L73.1787 74.2896L74.0693 77.1489Z" fill="black"/>
<path d="M15.7139 20.9668L17.2373 21.0723L17.3896 21.084L17.5303 21.1191L20.0498 21.8105L20.1904 21.8574L20.3193 21.916L22.2764 22.8887L24.374 22.5723L24.5967 22.5371L24.8193 22.5723L27.4326 22.9473L29.9756 23.1465L30.1631 23.1699L30.3389 23.2168L32.835 24.0488L32.8936 24.0605L32.9521 24.084L35.3896 25.1152L35.5303 25.1738L35.6592 25.2676L37.7451 26.709L40.0068 27.9043L40.2529 28.0332L40.4287 28.2324L42.1045 30.1191L44.1904 32.2051L44.2959 32.4629L45.3154 34.748L46.6396 37.0215L48.0225 39.2129L48.0576 39.2715L48.0928 39.3418L49.2764 41.6973L49.3115 41.7559L49.335 41.8145L50.2959 44.2402L51.4561 46.4199L52.7803 48.7285L52.8389 48.8105L52.874 48.9043L53.8584 51.2715L55.0068 53.3809L55.0303 53.4043L55.042 53.4395L55.0889 53.5215L53.7412 54.1895L52.3936 54.8457L52.3467 54.7637V54.752L51.1748 52.6309L51.1396 52.5605L51.1162 52.4785L50.1084 50.0996L48.8545 47.9199L48.8311 47.873L47.6006 45.5293L47.5537 45.459L47.5303 45.3887L46.5459 42.9277H46.5342L45.4795 40.8184L44.0732 38.5801L44.0615 38.5566L44.0381 38.5332L42.7256 36.2598L42.6787 36.1895L42.6436 36.1191L41.6826 33.9512L39.9834 32.2402L39.9482 32.2168L39.9131 32.1816L38.3428 30.4121L36.292 29.334L36.21 29.2871L36.1396 29.2402L34.0889 27.8223L31.8623 26.8848L29.5537 26.123L27.1514 25.9355H27.1045L27.0459 25.9238L24.6084 25.5605L22.2646 25.9355L21.7959 26.0059L21.3623 25.7949L19.1123 24.6582L16.8506 24.0371L15.5146 23.9551L15.5967 22.7246L14.4248 23.4043L14.3076 23.2051L12.9248 20.7793L15.7139 20.9668Z" fill="black"/>
<path d="M17.8984 113.948L18.0977 113.937L18.2031 113.925V114.124L18.543 114.312L18.25 114.827L18.2734 115.413L18.543 115.39V115.472L18.2852 115.483L18.2969 115.659L18.8242 116.784L18.4258 116.972L17.7227 117.3L17.5703 117.206L15.8008 119.093L15.5547 115.694L15.543 115.612L16.9727 115.495L15.9531 114.558L16.1992 114.3L17.0195 113.433L17.8984 113.948Z" fill="black"/>
<path d="M33.1357 26.0728L33.124 26.0845L32.1982 27.7017L32.1162 27.8306L32.0225 27.9478L30.8975 29.2017L30.6865 29.8813L30.0654 31.7212L28.4365 30.6665L28.3662 30.6079L29.1748 29.3774L27.8389 28.9321L28.167 27.9712L28.2607 27.6782L28.46 27.4556L29.667 26.0845L30.5225 24.5845L30.5693 24.5142L30.6279 24.4321L33.1357 26.0728Z" fill="black"/>
<path d="M37.8579 28.21L39.147 28.9834L39.0884 29.0771L38.0806 30.9287L38.022 31.0459L37.9399 31.1514L36.686 32.7334L36.3931 33.6123L35.7954 35.3936L34.1899 34.4209L34.1196 34.374L34.8931 33.0967L33.5454 32.6514L33.9204 31.5498L34.0024 31.3037L34.1665 31.0928L35.4907 29.3936L36.4868 27.5771L36.5103 27.5537L36.522 27.5186L36.5806 27.4365L37.8579 28.21Z" fill="black"/>
<path d="M42.4873 33.0898L43.3428 34.3203L43.2607 34.3789L41.5264 35.7148L41.4326 35.7852L41.3271 35.8438L39.4756 36.8164L38.8076 37.543L37.542 38.9023L36.4756 37.3789L36.4287 37.3086L37.6475 36.4531L36.6045 35.5039L37.4248 34.625L37.6006 34.4375L37.8232 34.3203L39.8037 33.2422L41.4795 31.9648L41.5146 31.9414L41.5381 31.918L41.6201 31.8594L42.4873 33.0898Z" fill="black"/>
<path d="M46.1421 39.0986L46.0601 39.1455L46.0483 39.1338L44.0796 40.1768L43.9741 40.2354L43.8569 40.2822L41.7827 40.9619L41.0093 41.5596L39.5327 42.6729L38.7476 40.9971L38.7124 40.915L40.0601 40.2822L39.2046 39.1572L40.189 38.4189L40.3765 38.2666L40.6108 38.1963L42.7788 37.4814L44.7241 36.4502L44.7476 36.4385L44.7827 36.4268L44.8765 36.3799L46.1421 39.0986Z" fill="black"/>
<path d="M47.7441 41.9912L48.4355 43.3154L48.3535 43.3623L46.4551 44.4873L46.3496 44.5576L46.2324 44.5928L44.2285 45.3545L43.4902 45.999L42.0723 47.1943L41.1934 45.5537L41.1582 45.4717L42.4707 44.7686L41.5566 43.7021L42.4941 42.917L42.6816 42.7529L42.916 42.6709L45.0137 41.8623L46.8887 40.749L46.9121 40.7256L46.9473 40.7139L47.041 40.667L47.7441 41.9912Z" fill="black"/>
<path d="M50.6294 47.2607L50.5591 47.3193L50.5474 47.3076L48.9067 48.7021L48.813 48.7842L48.7075 48.8428L46.9146 49.874L46.3052 50.6006L45.0864 52.0186L43.9614 50.5303L43.9146 50.46L45.0981 49.5459L44.02 48.6436L44.7935 47.7412L44.9575 47.5537L45.1802 47.4248L47.0552 46.3232L48.6841 44.9756L48.7192 44.9521L48.7427 44.9287L48.8247 44.8701L50.6294 47.2607Z" fill="black"/>
<path d="M19.7344 33.7695L20.6016 34.0859L20.2031 36.3008L20.3789 36.957L18.6211 37.4023L17.3203 34.7773L18.293 34.0039L18.9492 33.4883L19.7344 33.7695Z" fill="black"/>
<path d="M51.3398 49.5835L52.5703 50.439L51.7266 51.8335L51.6445 51.9858L51.5156 52.103L50.543 53.1108L50.3672 53.6499L49.7227 55.5601L48.082 54.3999L48.0117 54.353L48.8555 53.1343L47.5195 52.7007L47.8008 51.8452L47.9062 51.5171L48.1523 51.271L49.2422 50.146L50.0039 48.8921L50.0273 48.8452L50.0625 48.8101L50.1211 48.728L51.3398 49.5835Z" fill="black"/>
<path d="M111.312 114.289L112.355 114.547L111.652 117.453L110.891 117.266L108.547 117.629L108.453 117.652H108.359L105.723 117.723H105.582L103.051 117.301L100.672 117.734L100.438 117.781L100.203 117.746L97.6367 117.406H95.2344L92.5977 117.629L92.4922 117.641L92.3984 117.629L89.75 117.477V117.465L87.2773 117.348L84.7812 117.734L84.582 117.77L84.3945 117.746L81.8516 117.453L79.2969 117.477L79.2852 117.465L76.7773 117.711L76.6133 117.723L76.4492 117.699L73.918 117.383L71.3867 117.43H71.3281L68.6914 117.371H68.6445L66.1719 117.23L63.7109 117.699L63.4766 117.746L63.2305 117.711L60.7227 117.348L58.2383 117.488H58.0156L55.5898 117.242L53.1406 117.676L52.8828 117.723L52.6133 117.676L50.1172 117.242L47.6914 117.395H47.668L47.6445 117.406L42.3711 117.57H42.2539L42.1367 117.559L39.5938 117.254L37.1328 117.418L37.0508 117.43L36.957 117.418L34.5078 117.277L32 117.699L31.7891 117.734L31.5781 117.711L29.0234 117.395L26.5391 117.324L23.9492 117.512L23.8906 117.523H23.832L21.1953 117.512H21.0781L18.5 117.301L16.0508 117.395L16.0625 117.406L13.4258 117.664L13.2734 117.676L13.1211 117.664L10.625 117.395L8.16406 117.5H8V114.5H8.03516L10.5781 114.395L10.6836 114.383L10.8008 114.395L13.2852 114.664L15.7695 114.418H15.8633L18.5 114.312L18.5938 114.301L18.6758 114.312L21.3125 114.512L21.3008 114.523H23.7383L26.375 114.336L26.4453 114.324L26.5273 114.336L29.1641 114.406H29.2344L29.293 114.418L31.7305 114.699L34.1562 114.301L34.3203 114.277L34.4844 114.289L37.0156 114.43L39.582 114.254L39.7227 114.242L39.8633 114.266L42.3711 114.57L44.9141 114.488L47.5039 114.418V114.406L50.1523 114.242L50.3281 114.23L50.5039 114.266L52.8828 114.688L55.2617 114.266L55.4609 114.23L55.6602 114.242L58.1328 114.488L60.7227 114.348L60.8633 114.336L61.0156 114.359L63.418 114.711L65.8086 114.266L65.9844 114.23L66.1602 114.242L68.7969 114.371L68.7852 114.383L71.3633 114.43L73.9766 114.383H74.082L74.1875 114.395L76.6836 114.711L79.1445 114.477H79.2734L81.9102 114.453H82.0039L82.0859 114.465L84.5469 114.746L86.9727 114.371L87.125 114.348L87.2773 114.359L89.9141 114.488H89.9258L92.4453 114.641L95 114.43L95.0586 114.418H95.1055L97.7539 114.406H97.8594L97.9648 114.418L100.367 114.746L102.77 114.312L103.027 114.266L103.285 114.301L105.816 114.723L108.137 114.664L110.738 114.266L111.031 114.219L111.312 114.289Z" fill="black"/>
</svg>
