<svg width="120" height="120" viewBox="0 0 120 120" fill="none" xmlns="http://www.w3.org/2000/svg">
<path d="M75.2344 18.3945L78.0469 19.4492L78.2695 19.6602L80.1797 21.4883L80.3203 21.6289L80.4258 21.8047L81.7617 24.043L81.9609 24.3594L81.9727 24.7344L82.0781 27.0547L82.6641 28.3906L84.5156 28.9297L84.6445 28.9648L84.75 29.0234L87.1172 30.1602L87.5039 30.3477L87.7383 30.7227L89.1094 32.9609L89.168 33.0547L89.2148 33.1484L90.2344 35.5156L90.2812 35.6328L91.1133 38.1758L91.2305 38.5391L91.1602 38.9258L90.6328 41.6211L90.4102 42.7695L89.25 42.8281L87.6211 42.9102L87.3281 44.1641L87.2461 45.4062L88.207 45.6406L88.2656 45.6523L88.3242 45.6758L90.8438 46.4961L91.0664 46.5664L91.2539 46.707L93.2695 48.1484L93.4453 48.2773L93.5742 48.4414L95.2266 50.5273L95.5195 50.9023L95.543 51.3828L95.6836 54.0547V54.1836L95.6719 54.3125L95.3555 56.9727L95.2852 57.5117L94.8984 57.8867L93.2695 59.4336L92.7891 59.8906L92.1445 59.8555L90.9961 59.7852L90.8672 60.7461L91.0312 61.9297L92.4258 62.0586H92.4141L94.957 62.082H95.168L95.3789 62.1406L97.957 62.9141L98.4492 63.0547L98.7539 63.4766L100.301 65.6445L100.359 65.7266L100.406 65.8086L101.625 68.0938L101.789 68.3984L101.801 68.75L101.895 71.3633L102.047 74L102.094 74.9258L101.309 75.3828L99.3281 76.5312L99.0586 76.6953L98.7539 76.7305L96.9961 76.9297L96.5977 77.9023L96.3516 80.3281L96.1406 82.2734L96.9492 83.1641L98.9297 83.0938H99.1172L101.672 83.3047L101.859 83.3281L102.023 83.375L104.496 84.1953L104.789 84.3008L105.023 84.5117L106.992 86.293L107.25 86.5156L107.379 86.832L108.375 89.293L108.445 89.4688L108.469 89.6562L108.82 92.2695L108.867 92.5625L108.785 92.8438L108.152 95.3398L108.07 95.6445L107.871 95.8906L106.312 97.8828L106.031 98.2344L105.609 98.375L103.652 99.0195L102.914 100.25L103.09 102.418L103.102 102.559L103.09 102.711L102.809 105.23L102.82 107.809L102.996 110.363V110.387L103.125 113.023V113.117L103.113 113.211L103.035 114.265L105.664 114.242H105.816L105.969 114.266L108.406 114.746L110.809 114.5L110.891 114.488H110.973L112.016 114.5L112.004 116L111.98 117.5L110.984 117.488L108.477 117.746L108.254 117.77L108.031 117.734L105.57 117.242L103.145 117.254L100.648 117.688L100.496 117.711L100.332 117.699L97.9131 117.602L97.8867 117.605L97.875 117.641L97.8281 117.617L95.6719 117.898L95.543 117.91H95.4023L90.1289 117.652H87.7031L85.1484 118.039L85.0195 118.062H84.8906L82.2422 118.004H82.1719L82.1016 117.992L79.582 117.688L77.1328 117.91L76.9805 117.922L76.8281 117.91L74.2148 117.617L73.5117 117.535L73.376 117.33L71.5391 117.547L71.4102 117.559H71.2812L68.7266 117.418L66.1719 117.582H66.043L65.9141 117.57L63.418 117.289L60.957 117.559H60.8867L58.25 117.711L58.0977 117.723L57.957 117.699L55.4141 117.348L52.9062 117.406H52.8477L50.2109 117.348V117.336H47.5742L46.2861 117.312L45.8359 117.547L45.4492 117.746L45.0156 117.711L42.6172 117.496L42.4531 117.512L42.418 117.523H42.3711L39.7344 117.617H39.6172L38.9268 117.589L37.2344 117.582L34.6094 117.629L34.5977 117.617L32.0898 117.863L31.9375 117.875L31.7852 117.863L29.2539 117.594H26.7461L24.1094 117.746H24.0625L21.4141 117.805H21.3086L21.2031 117.793L18.7656 117.5H18.7188V117.488H18.6719L18.6816 117.402L18.5 117.383L15.9219 117.395V117.383L13.3789 117.559H13.3672L13.3555 117.57L10.707 117.688L10.6133 117.699L10.5312 117.688L7.98828 117.5L8 117.277V114.5H8.21094L10.6719 114.699L13.1797 114.582V114.57L15.8164 114.395H15.9102L17.1641 114.389L17.4766 112.496L17.1719 110.07L17.1484 109.941L17.1602 109.812L17.2773 107.176L17.4062 104.598V102.055L17.0781 100.039L16.082 98.9375L14.043 97.7539L13.7734 97.6016L13.5859 97.3555L12.0391 95.2578L11.7812 94.918L11.7461 94.4961L11.5117 91.8594L11.4883 91.6836L11.5234 91.5078L11.8984 88.8945L11.9219 88.6953L12.0039 88.4961L13.1055 86.0469L13.2695 85.6719L13.6094 85.4258L15.8008 83.8906L16.0469 83.7266L16.3281 83.668L18.8359 83.082L18.9414 83.0586L19.0586 83.0469L21.6836 82.8359L23.0078 82.6602L23.2305 81.3828L23.6172 78.8633L23.5469 77.3047L22.2109 76.7891L19.9727 76.4727L19.0352 76.3438L18.7539 75.4297L17.9922 72.9922V72.793L17.8867 70.1445V69.9219L17.9336 69.7109L18.5898 67.1445L18.6367 66.957L18.7188 66.793L19.9961 64.4375L20.2305 64.0156L20.6641 63.8047L23.0781 62.6445L23.3242 62.5391L23.5938 62.5039L26.1602 62.2812L28.1758 62.0469L28.8789 61.1445L29.1133 59.8086L28.2227 59.1758L26.2305 59L25.1289 58.8945L24.8945 57.8164L24.4023 55.4492L24.3438 55.2148L24.3789 54.9805L24.6719 52.4023L24.6953 52.2383L25.2695 49.6602L25.375 49.2266L25.6914 48.9102L27.5664 47.082L27.8008 46.8359L28.1289 46.7305L30.5547 45.8984L30.6602 45.8633L30.7656 45.8398L32.3125 45.5586L32.5938 44.3398L32.3594 43.25L30.9766 43.1445L29.9688 43.0625L29.6641 42.1133L28.9023 39.7227L28.832 39.5V39.2539L28.8438 36.6289V36.3477L28.9492 36.0898L29.8984 33.6758L29.957 33.5352L30.0391 33.4062L31.457 31.2266L31.5977 31.0273L31.7852 30.875L33.8945 29.2344L34.1406 29.0352L34.457 28.9531L36.8359 28.3789L37.7852 27.7812L38.0078 25.8945L38.0195 25.8125L38.0312 25.7422L38.5938 23.1758L38.6758 22.8008L38.9336 22.4961L40.6797 20.5508L40.8555 20.3633L41.0781 20.2461L43.3633 18.9805L43.7266 18.7812L44.1367 18.793L46.6211 18.8633L47.6523 18.8984L47.9922 19.8711L48.8125 22.2383L48.9297 22.5664L48.8828 22.918L48.5547 25.4609L48.5781 27.875L49.0234 30.3945L49.0469 30.5352L49.0352 30.6641L49.0117 33.3008V33.3945L49 33.4883L48.6719 35.9141L49.0117 38.3633L49.0234 38.5273L49.0117 38.6914L48.8125 41.1758L49.0703 43.6953L49.0938 43.918L49.0469 44.1406L48.5547 46.6484L48.5664 49.0156L49 51.5234L49.0234 51.6758L49.0117 51.8281L48.9062 54.4766V54.5469L48.8945 54.6055L48.5664 57.0312L49.0352 59.4102L49.0703 59.6445L49.0469 59.8789L48.7188 62.4219L48.7305 64.9648L48.8008 67.5664V67.5781L48.8594 70.2148V70.2383L48.8828 72.793L49.0586 75.4297L49.0703 75.6172L49.0352 75.8047L48.5781 78.2305L48.8594 80.6328L48.8828 80.7617L48.8711 80.8906L48.7305 83.4336L48.8945 86L48.9062 86.1289L48.8828 86.2578L48.6016 88.7305L48.8711 91.2148V91.2852L49.0352 93.9219V94.0742L49.0234 94.2148L48.6602 96.7461L48.7188 99.2539V99.3242L48.6602 101.961L48.6484 104.574V104.598L48.6016 107.082L48.8242 109.719L48.8359 109.754V109.789L48.9297 112.438L48.9414 112.52L48.9297 112.602L48.7979 114.348H50.2695L52.8711 114.406L55.4844 114.348H55.6133L55.7305 114.359L58.2148 114.723L60.7109 114.559V114.57L63.2891 114.289L63.4414 114.277L63.6055 114.289L66.0898 114.582L68.6328 114.43L68.7148 114.418L68.7969 114.43L71.3281 114.559L71.5488 114.532L71.543 114.523L71.5195 114.148L71.3203 111.5V111.371L71.332 111.242L71.5898 108.664L71.7422 106.109L71.5664 103.566V103.555L71.4258 100.906V100.836L71.4141 98.1992V98.082L71.4375 97.9648L71.8242 95.4102L71.8008 92.9258L71.8125 92.9141L71.6367 90.3711L71.625 90.2656L71.6367 90.1719L71.8008 87.6289L71.6133 85.1094L71.4141 82.4609L71.4023 82.3672L71.4141 82.2734L71.5547 79.6602L71.3438 77.1875L71.332 77.0703L71.3438 76.9414L71.5781 74.293L71.7773 71.7383L71.543 69.2891L71.3086 66.6523L71.2852 66.4531L71.3203 66.2539L71.7539 63.7812L71.6602 61.2852V61.1445L71.8125 58.5898L71.6484 56.0469L71.6367 55.9648V55.8711L71.7773 53.3633L71.4375 50.8672L71.4141 50.7031L71.4375 50.5273L71.6719 47.9727L71.5781 45.4414L71.4961 42.793V42.6289L71.707 40.1094L71.4844 37.6016V37.5781L71.4727 37.5664L71.3086 34.9297V34.7656L71.3203 34.6133L71.6953 32.082L71.6133 29.5977L71.6016 29.5273L71.6133 29.4688L71.7656 26.9141L71.5898 24.3945L71.3672 21.7461L71.3086 21.043L71.8125 20.5508L73.6523 18.7344L74.332 18.0547L75.2344 18.3945ZM93.1875 99.9297H93.1055L90.4688 99.918L87.9609 99.9414L85.3242 100.164L85.1836 100.176L85.0312 100.164L82.5 99.8945H79.9219L77.3789 100.059H77.3672L77.3555 100.07L74.707 100.188L74.6133 100.199L74.5312 100.188L74.4229 100.179L74.4258 100.754L74.5664 103.379L74.7305 106.016L74.7422 106.109L74.7305 106.203L74.5781 108.84V108.898L74.3203 111.359L74.4727 113.527L75.0566 114.422L76.7305 114.734L79.1797 114.582L79.2266 114.57H79.2617L81.8867 114.559V114.547L84.5234 114.488L87.1602 114.418H87.1953L89.832 114.406H89.9375L90.0312 114.418L92.4219 114.734L94.8359 114.266L95.082 114.219L95.3164 114.254L97.8232 114.596L97.9336 114.582L98.4023 114.523L98.6113 114.637L99.9961 114.698L100.113 113.059L99.9961 110.562L99.8203 107.926V107.832L99.8086 105.184V105.02L100.078 102.488L99.8906 100.016L99.8887 100.001L98.3906 99.9883H98.3438L98.2969 99.9766L95.7188 99.8125L93.1875 99.9297ZM39.1875 99.9297H39.1055L36.4688 99.918L33.9609 99.9414L31.3242 100.164L31.1836 100.176L31.0312 100.164L28.5 99.8945H25.9219L23.3789 100.059H23.3672L23.3555 100.07L20.707 100.188L20.6133 100.199L20.5312 100.188L20.1348 100.158L20.3945 101.715L20.418 101.844V101.973L20.4062 104.609V104.68L20.2773 107.316L20.1602 109.824L20.4883 112.332L20.5117 112.555L20.4766 112.766L20.165 114.544L21.2305 114.664L23.7148 114.453L23.7617 114.441H23.8203L26.4688 114.418H26.4922L29.0469 114.43L31.6953 114.312L31.7773 114.301L31.8594 114.312L34.5078 114.488L34.4961 114.5L37.0508 114.512H37.0977L38.8242 114.582H39.8008L42.4492 114.488H42.6367L42.6631 114.49L44.832 114.289H44.9844L45.5742 114.299L45.8008 114.184L45.9297 112.543L45.8359 109.977L45.6133 107.34L45.6016 107.258V107.188L45.6484 104.551L45.6602 101.926V101.902L45.7031 100L44.3906 99.9883H44.3438L44.2969 99.9766L41.7188 99.8125L39.1875 99.9297ZM77.3789 78.0586H77.3672L77.3555 78.0703L74.707 78.1875L74.6133 78.1992L74.5312 78.1875L74.4375 78.1797L74.5547 79.5898V79.7891L74.4141 82.4375L74.6016 84.875L74.8125 87.5117V87.7344L74.625 90.2656L74.8008 92.8086V92.9023L74.8242 95.5391V95.6562L74.8008 95.7734L74.5859 97.1914L74.6719 97.1992L77.1797 97.082V97.0703L79.8164 96.8945H79.9102L82.5469 96.8828L82.6406 96.8711L82.7227 96.8828L85.2305 97.1641L87.7148 96.9531L87.7617 96.9414H87.8203L90.4688 96.918H90.4922L93.0469 96.9297L95.6953 96.8125L95.7773 96.8008L95.8594 96.8125L98.5078 96.9883L98.4961 97L101.016 97.0117L101.011 97.6006L101.367 97.0039L101.66 96.5234L104.227 95.668L105.316 94.2734L105.809 92.3516L105.527 90.2656L104.73 88.2969L103.219 86.9258L101.273 86.2812L99 86.0938L96.375 86.1992L95.6719 86.2227L95.2031 85.707L93.4805 83.7852L93.0234 83.293L93.0938 82.625L93.375 80.0234V80.0117L93.5977 77.9033L93.2227 77.9297H93.1055L90.4688 77.918L87.9609 77.9414L85.3242 78.1641L85.1836 78.1758L85.0312 78.1641L82.5 77.8945H79.9219L77.3789 78.0586ZM29.3789 78.0586H29.3672L29.3555 78.0703L26.707 78.1875L26.6133 78.1992L26.5889 78.1953L26.6172 78.9102L26.6289 79.0508L26.6055 79.2031L26.1953 81.8398V81.8633L25.7969 84.2656L25.6094 85.3672L24.4961 85.5078L22 85.8242H21.9297L19.3984 86.0234L17.2773 86.5156L15.6719 87.6406L14.8281 89.5273L14.5117 91.7539L14.6875 93.8164L15.8125 95.3164L17.793 96.4648L17.9922 96.582L18.1562 96.7578L18.3877 97.0137L20.6719 97.1992L23.1797 97.082V97.0703L25.8164 96.8945H25.9102L28.5469 96.8828L28.6406 96.8711L28.7227 96.8828L31.2305 97.1641L33.7148 96.9531L33.7617 96.9414H33.8203L36.4688 96.918H36.4922L39.0469 96.9297L41.6953 96.8125L41.7773 96.8008L41.8594 96.8125L44.5078 96.9883L44.4961 97L45.667 97.0049L45.6602 96.6758V96.5586L45.6836 96.4414L46.0234 93.9453L45.8828 91.5312L45.6016 88.8828L45.5898 88.7188L45.6133 88.5664L45.8828 86.0703L45.7422 83.5391L45.7305 83.457L45.7422 83.375L45.8594 80.832L45.5781 78.3477L45.5547 78.1133L45.5869 77.9043L45.2227 77.9297H45.1055L42.4688 77.918L39.9609 77.9414L37.3242 78.1641L37.1836 78.1758L37.0312 78.1641L34.5 77.8945H31.9219L29.3789 78.0586ZM34.3789 59.0586H34.3672L34.3555 59.0703L32.2852 59.1611L32.2422 59.4102L31.7852 62.0469L31.7148 62.4219L31.4805 62.7148L30.1328 64.4023L29.7461 64.8945L29.125 64.9648L26.5 65.2578H26.4766L26.4648 65.2695L24.1328 65.4688L22.3984 66.3008L21.4375 68.0703L20.8984 70.2148L20.9805 72.4883L21.332 73.625L22.7969 73.8359L22.9727 73.8594L23.1367 73.9297L25.5625 74.8789L26.2783 75.167L26.6719 75.1992L29.1797 75.082V75.0703L31.8164 74.8945H31.9102L34.5469 74.8828L34.6406 74.8711L34.7227 74.8828L37.2305 75.1641L39.7148 74.9531L39.7617 74.9414H39.8203L42.4688 74.918H42.4922L45.0234 74.9297L46.0205 74.8672L45.8945 72.9922L45.8828 72.9453V72.9102L45.8594 70.2852L45.8008 67.6484L45.7305 65.0117V64.9766L45.7188 62.3398V62.2344L45.7305 62.1406L46.0352 59.7383L45.8799 58.9248L44.9609 58.9414L42.3242 59.1641L42.1836 59.1758L42.0312 59.1641L39.5 58.8945H36.9219L34.3789 59.0586ZM77.3789 59.0586H77.3672L77.3555 59.0703L74.7832 59.1836L74.6602 61.3203L74.7539 63.8164V63.9688L74.7305 64.1211L74.3086 66.5352L74.5312 69.0195L74.7773 71.6562V71.9023L74.5781 74.5391V74.5508L74.5664 74.5625L74.5098 75.1855L74.6719 75.1992L77.1797 75.082V75.0703L79.8164 74.8945H79.9102L82.5469 74.8828L82.6406 74.8711L82.7227 74.8828L85.2305 75.1641L87.7148 74.9531L87.7617 74.9414H87.8203L90.4688 74.918H90.4922L93.0234 74.9297L94.626 74.8291L94.8867 74.1875L95.7656 74.0703L98.0625 73.7891L98.9883 73.25L98.9062 71.5273L98.8945 71.5156V71.4922L98.8125 69.1953L97.793 67.2852L96.5977 65.6328L94.7109 65.0703L92.2852 65.0586H92.2266L92.168 65.0469L89.5898 64.8242L88.4062 64.7305L88.2422 63.5469L87.8672 60.9922L87.8438 60.7812L87.8672 60.582L88.083 58.9385L87.9609 58.9414L85.3242 59.1641L85.1836 59.1758L85.0312 59.1641L82.5 58.8945H79.9219L77.3789 59.0586ZM77.3789 43.0586H77.3672L77.3555 43.0703L74.707 43.1875L74.6133 43.1992L74.5312 43.1875L74.5059 43.1855L74.5781 45.3359L74.6719 47.9727L74.6836 48.0781L74.6719 48.1719L74.4375 50.6562L74.7656 53.1172L74.7773 53.2461V53.3867L74.6367 55.918L74.6553 56.1973L74.6719 56.1992L77.1797 56.082V56.0703L79.8164 55.8945H79.9102L82.5469 55.8828L82.6406 55.8711L82.7227 55.8828L85.2305 56.1641L87.7148 55.9531L87.7617 55.9414H87.8203L89.9766 55.918L91.5 55.8945V56.7988L91.6641 56.8086L92.4375 56.0703L92.6719 54.0898L92.5664 52.0156L91.3242 50.4453L89.6719 49.2617L87.4688 48.5469L85.3242 48.0312L84.1055 47.7383L84.1758 46.4844L84.3398 43.8359L84.3516 43.7188L84.3867 43.5898L84.4971 43.1162L82.4766 42.8945H79.9219L77.3789 43.0586ZM39.3789 43.0586H39.3672L39.3555 43.0703L36.707 43.1875L36.6133 43.1992L36.5312 43.1875L35.3965 43.1035L35.5938 44.0352L35.6641 44.3516L35.5938 44.6797L35.0195 47.1875L34.7969 48.1602L33.8242 48.3359L31.3984 48.7695L29.4062 49.4492L28.0938 50.7383L27.6367 52.8359L27.3789 55.0742L27.6016 56.1055L28.9023 56.2227L29 56.2334V56H29.2109L31.6719 56.1992L34.1797 56.082V56.0703L36.8164 55.8945H36.9102L39.5469 55.8828L39.6406 55.8711L39.7227 55.8828L42.2305 56.1641L44.7148 55.9531L44.7617 55.9414H44.8203L45.6875 55.9316L45.918 54.207L46.0117 51.8867L45.5898 49.3789L45.5781 49.2617V49.1445L45.5547 46.4961V46.3438L45.5781 46.2031L46.0586 43.7891L45.9844 43.0596L44.4766 42.8945H41.9219L39.3789 43.0586ZM42.7422 22.7422L41.4297 24.1953L40.9727 26.3164L40.6914 28.8594L40.6094 29.5742L39.9883 29.9609L38.2188 31.0508L38.0195 31.1797L37.7852 31.2266L35.4648 31.7891L33.8359 33.0664L32.6289 34.9062L31.832 36.9102V39.0312L32.2188 40.2266L33.7188 40.3555L34 40.3789V40H34.2109L36.6719 40.1992L39.1797 40.082V40.0703L41.8164 39.8945H41.9102L44.5469 39.8828L44.6406 39.8711L44.7344 39.8828L45.8965 40.0215L46.0117 38.5742L45.6719 36.1367L45.6484 35.9375L45.6719 35.7383L46.0117 33.1602L46.0234 30.7461L45.6133 28.2617L45.5898 28.1445V28.0273L45.5547 25.3906L45.543 25.2852L45.5664 25.1797L45.8594 22.8711L45.4844 21.8281L44.4531 21.793L42.7422 22.7422ZM74.4141 22.1914L74.5781 24.1484V24.1719L74.7656 26.8086V26.9961L74.6133 29.5039L74.6953 32.1406V32.2812L74.6836 32.4102L74.3086 34.8945L74.4727 37.3438L74.6953 39.9805L74.707 40.1094V40.1973L77.1797 40.082V40.0703L79.8164 39.8945H79.9102L82.5469 39.8828L82.6406 39.8711L82.7344 39.8828L85.1836 40.1758L85.1768 40.2246L85.2188 40.0508L86.332 39.9922L87.9141 39.8984L88.1367 38.7383L87.4688 36.6992L86.5195 34.4727L85.4062 32.668L83.5781 31.7773L81.1641 31.0859L80.4844 30.8984L80.2031 30.2539L79.2305 28.0391L79.125 27.7812L79.1133 27.5117L78.9961 25.2734L77.9648 23.5273L76.4062 22.0391L75.0703 21.5352L74.4141 22.1914Z" fill="black"/>
</svg>
