<svg xmlns="http://www.w3.org/2000/svg" width="120" height="120" fill="none" viewBox="0 0 120 120"><path fill="#000" d="m35.57 9.582 2.614.223.257.023.235.106 2.39 1.09.036.011.023.024 2.355 1.195.13.07.128.094 1.969 1.57 2.063 1.102 2.437.726.094.024.082.035 2.414 1.043.035.012.035.023L55 18.02l2.414.316.094.012.105.035 2.332.633h2.614l.152.023 2.414.504 2.238-.211 2.344-.832.082-.035.082-.024 2.555-.597h.011l2.286-.528 1.933-1.406.153-.105.164-.07 2.449-1.02 2.344-1.031.175-.082.188-.036 2.59-.421.152-.036.152.012 2.637.117h.14l.141.035 2.578.586.094.024.094.035 2.508.95.398.14.27.34 1.617 2.097.2.27.07.328.515 2.39.176.82-.598.575-1.687 1.629-.89 1.84-.696 1.52-.022.066-.023.058-.89 2.274-.61 2.46-.012-.01-.55 2.566-.012.046-.012.035-.715 2.544-.047.163-.949 2.333-.445 2.449-.024.093-.668 2.555v.012l-.011.012-.692 2.46-.55 2.59-.047.164-.856 2.508-.668 2.461-.012.012v.023l-.75 2.414-.574 2.579-.422 2.543-.011.07-.024.082-.703 2.543-.68 2.531v.024l-.715 2.472-.597 2.578-.035.117-.047.118-.95 2.285-.492 2.414-.386 2.625-.024.164-.058.152-.926 2.367-.48 2.462-.047.163-.774 2.38-.375 2.53-.035.235-.094.211-1.09 2.203-.515 2.45-.024.093-.715 2.531-.105.399-.305.281-1.816 1.723-.387.375-.527.035-2.567.199-2.168.328-1.699 1.137-1.523 1.945-.211.258-.293.152-2.379 1.207h-.012l-2.32 1.137-2.18 1.383-.187.117-.2.059-2.578.715-.27.07-.269-.024-2.683-.246v-.011l-2.508-.047-.363-.012-.329-.176-2.273-1.254-.328-.175-.2-.317-1.335-2.039-1.371-2.074 2.472-.234 2.532-.247h.011l2.25-.199 1.4-1.07-1.386-.894-.21-.14-.153-.211-1.559-2.028-1.816-1.71-2.04-1.477-.14-.106-.117-.14-1.711-2.027-.059-.07-.047-.083-1.336-2.05-1.863-1.618-.21-.176-.13-.234-1.218-2.215-1.477-2.18-.012-.011v-.012l-1.453-2.203-.012-.035-.023-.035-1.324-2.286-.047-.07-1.195-2.355-1.207-2.356-.106-.199-.047-.223-.422-2.449-1.02-2.262-.07-.152-.035-.164-.527-2.578v-.012l-.668-2.46-.035-.153-.012-.164-.117-2.52-.562-2.46-.024-.071-.012-.082-.304-2.637-.024-.187.024-.188.363-2.59.07-2.53.012-.071v-.07l.328-2.614v-.023l.012-.024.398-2.601.012-.035v-.035l.54-2.579.35-2.52.012-.07.012-.058.586-2.578.012-.082.023-.07.867-2.508.844-2.496.024-.07.937-2.403.295-1.01-.717-.57-2.168-1.429-.234-.152-.164-.235-1.5-2.109-.106-.164-.07-.187-.902-2.415-.106-.28.012-.294.094-2.672.023-.316.14-.293L25 15.172l.105-.188.153-.164 1.828-1.957.152-.152.188-.117 2.285-1.336.047-.024.035-.023 2.355-1.172.235-.117.258-.035 2.613-.305.152-.012zm48.256 18.426-.035.117-.059.105-1.23 2.344.012.012-1.137 2.238-.738 2.426-.785 2.531-.06.2-.105.163-1.359 2.169-.844 2.308-.023.07-.023.059-1.102 2.285-.809 2.426-.07.164-1.066 2.273-.645 2.45-.047.164-.082.152-1.172 2.227-.879 2.414-.011.011-.926 2.485-.024.07-.035.07L69.4 62.25l-.726 2.367v.012l-.012.023-.844 2.508-.046.14-.083.141-1.3 2.18-.867 2.344-.024.07-.023.059-1.102 2.262-.82 2.425-.774 2.543-.023.07-.024.06-.996 2.437-.011.023-.012.012-1.066 2.414-.024.035-.023.047-1.184 2.238-.832 2.403-.024.07-.035.07-1.054 2.285-.938 2.508-.023.07-.035.059-1.125 2.262-.82 2.437-.083.246-.152.2-1.629 2.062-.023.035-.036.024-1.687 1.933-.094.117-.117.082-2.121 1.618-.34.269-.433.035-2.391.2 1.054.574 2.25.07h.106l2.414.223 2.074-.586 2.098-1.313.058-.035.07-.035 2.345-1.16 2.074-1.043 1.476-1.852.141-.187.2-.129 2.167-1.465.281-.187.329-.06 2.554-.386.117-.023 2.098-.164 1.125-1.067.598-2.132.527-2.508.035-.176.082-.164 1.067-2.203.363-2.403.023-.117.035-.117.81-2.52.48-2.437.023-.117.047-.13.902-2.331.375-2.45v-.034l.012-.024.516-2.601.023-.141.059-.14.972-2.368.586-2.437v-.036l.012-.023.715-2.543.68-2.531v-.024l.667-2.46.446-2.544.011-.035v-.035l.575-2.578.011-.059.024-.058.773-2.532.68-2.507.012-.035.023-.047.844-2.508.527-2.414v-.047l.012-.035.715-2.543.656-2.532.457-2.507.035-.14.059-.142.984-2.46.668-2.391.54-2.508.011-.012v-.023l.633-2.566.023-.094.047-.094.126-.325-.815-.148-.164-.035-.153-.058-2.39-.996-1.054-.322zm-44.6-2.41-.035.083-.047.058-1.43 2.168-.304.457-.55.153-2.544.703-.21.058-.223-.011-1.406-.036-.387 1.383-.047.14-.961 2.391-.844 2.508v.012l-.855 2.496-.551 2.426-.34 2.496v.047l-.012.047-.539 2.578-.386 2.531-.012-.012-.316 2.496-.07 2.579v.07l-.012.082-.34 2.438.293 2.46.55 2.426.036.13v.128l.128 2.484.645 2.414.012.036.011.047.493 2.437 1.02 2.25.081.176.035.187.41 2.403 1.126 2.168v.011l1.16 2.285 1.289 2.215 1.43 2.18L37 84.556l.07.117 1.137 2.074 1.852 1.606.164.14.117.188 1.406 2.156 1.523 1.805 2.016 1.464.07.059.07.07 1.91 1.805.095.082.07.094 1.488 1.933 1.563 1.024 1.213-1.556.785-2.261.035-.094.035-.082 1.113-2.286.926-2.449.012-.058.023-.047 1.055-2.285.73-2.083-.064-.179-.89-2.461-.06-.176-.023-.175-.27-2.497-.796-2.343-.012-.035v-.036l-.738-2.543-.035-.14-.012-.153-.223-2.52-.585-2.46-.012-.035-.012-.024-.516-2.59v-.011l-.55-2.543v-.012l-.012-.012-.492-2.425-.797-2.532-.023-.07-.68-2.555-.024-.117-.468-2.601v-.012l-.54-2.52-.023-.093-.387-2.52-.668-2.473-.023-.07-.562-2.59v-.011l-.575-2.426-.797-2.52-.035-.14-.023-.153-.293-2.636h-.012l-.527-2.31-.739-2.542-.011-.012v-.012l-.703-2.554-.059-.211.012-.223.048-2.087-1.076-.553-.082-.047-.07-.047-2.191-1.488-.03-.018zm-.367 6 .373.143.684.017-.01.248.864.342-.036.093-.047.13-.081.117-.345.546.557 1.313.07.176.036.199.375 2.59.386 2.496.75 2.449.012.012v.023l.715 2.543.012.035.011.047.551 2.45.786 2.53.058.176v.2l.117 2.425.926 2.227.047.129.035.14.527 2.52.762 2.45.035.14.024.152.246 2.496.715 2.426v.024l.011.035.598 2.379.973 2.472.07.188.024.199.257 2.508.715 2.426.012.023.691 2.531.926 2.332.082.188.024.21.222 2.426.984 2.227.118.246.011.258.165 2.52-.938.058-.527.129-.215.053-.045.97-.844-.046-.469-.024-.375-.281-2.097-1.617-2.098-1.606-.14-.105-.106-.14-1.594-1.97-1.875-1.71-.117-.118-1.758-1.992-.129-.152-.082-.176-1.195-2.379h-.012l-1.312-2.11-.07-.14-1.149-2.367-.023-.035-.012-.035-1.031-2.415-.047-.093-.832-2.426-.985-2.45-.035-.081-.012-.082-.703-2.555-.035-.094-.012-.105-.34-2.625v-.035l-.269-2.625-.012-.094v-.082l.047-2.567-.105-2.625-.012-.082.012-.082.187-2.636v-.059l.305-2.602.246-2.636.023-.188.06-.175.913-2.497.738-2.437.774-2.531.012-.059.023-.059.96-2.472.048-.13.082-.116.18-.29-.014-.03.012-.329.023-.937.77.023.377-.605zm-1.16 7.898h-.011l-.762 2.52-.012.035-.012.047-.855 2.32-.234 2.438v.023l-.294 2.625L35.333 52l.105 2.531.012.047v.035l-.047 2.59.258 2.461.317 2.484.632 2.333.973 2.46.012.024.011.035.833 2.379 1.007 2.355 1.078 2.227 1.395 2.238.07.117 1.102 2.239 1.57 1.757 1.887 1.735.094.07.07.094 1.559 1.933 1.945 1.489.08.062-.512-1.168-.105-.234-.012-.234-.246-2.45-.89-2.285-.024-.07-.024-.082-.703-2.531-.738-2.532-.035-.128-.012-.13-.281-2.449-.89-2.296-.036-.083-.023-.093-.633-2.508-.738-2.543-.036-.129-.011-.129-.27-2.508-.726-2.39-.024-.059-.011-.07-.528-2.45-.96-2.343-.095-.246-.011-.258-.13-2.473-.726-2.367-.012-.047-.011-.07-.586-2.567v-.011l-.691-2.461v-.012l-.774-2.484-.023-.094-.024-.105-.41-2.626v-.011h-.012l-.055-.4zm8.52-10.937.633 2.308.75 2.531.023.094.586 2.567.023.093.012.082.27 2.485.761 2.39.024.118.61 2.566v.023l.55 2.508.691 2.543.024.082.011.082.387 2.532.551 2.59v.023l.012.023.445 2.485.645 2.472h.011l.797 2.532.024.07.023.082.527 2.566.563 2.578v.024l.504 2.531.633 2.567.035.117v.117l.21 2.531.669 2.309.843 2.52.059.152.012.164.226 2.06.608-1.369.96-2.332.617-2.002-.66-1.505-.046-.105-.035-.118-.657-2.542-.023-.07-.54-2.567-.573-2.567v-.023l-.528-2.426-.82-2.508-.012-.047-.011-.035-.703-2.543-.024-.058V59.2l-.492-2.531-.598-2.578-.011-.047-.012-.035-.434-2.555-.68-2.45-.011-.034-.012-.047-.562-2.555-.586-2.45-.809-2.53-.047-.14-.012-.153-.257-2.473-.575-2.59h-.011l-.739-2.402v-.012l-.761-2.531-.047-.164-.012-.164-.092-1.247-2.23-1.11v-.011l-.696-.327zm6.017 1.86.704 2.32.785 2.532.023.117.574 2.578.024.082v.082l.258 2.46.773 2.415.023.094.622 2.578.011.023.54 2.496.714 2.543.023.082.012.07.446 2.614.574 2.484.011.024v.023l.481 2.484.68 2.473.832 2.52.023.07.012.082.562 2.578h-.011l.586 2.567.011.023.528 2.508.154.608.51-1.062.914-2.438.047-.129.058-.117.678-1.15-.67.166-.398-1.653v-.011l-.774-2.403-.023-.047-.727-2.542-.023-.06-.012-.07-.504-2.59v-.011l-.562-2.531v-.047l-.012-.047-.387-2.543-.668-2.46-.011-.036-.012-.047-.54-2.555L58.499 45v-.012l-.762-2.402-.046-.14-.012-.141-.317-2.555-.597-2.46v-.013l-.774-2.402-.012-.012-.785-2.52-.07-.199v-.21l-.041-1.262-.07-.008h-.047l-.035-.012-2.602-.445-.012-.012-.098-.018zm5.855.56.02.662.739 2.32h-.012l.82 2.508.012.047.012.058.633 2.567.023.082v.093l.293 2.496.762 2.391.023.117.598 2.567.011.023v.012l.551 2.578.668 2.473.024.082.011.082.387 2.52.563 2.577v.035l.503 2.567.692 2.402.434 1.336.742-2.39.035-.118.058-.105.367-.727-.294-1.379-.012-.011v-.012l-.527-2.59v-.035l-.012-.047-.363-2.543-.645-2.46-.012-.048-.011-.035-.54-2.59v-.011l-.55-2.426-.785-2.531-.036-.141-.011-.14-.258-2.473-.55-2.485-.75-2.543v-.023L61 33.168l-.047-.164-.012-.176-.077-1.838-.497-.021zm7.749-.069h-.035l-1.935.13.06 1.495.656 2.356.738 2.543.024.047v.046l.586 2.578.023.083v.081l.258 2.508.75 2.391.012.047.011.058.586 2.579.012.011v.012l.539 2.59.656 2.472.012.094.012.082.315 2.142.538-1.454.035-.094.047-.094 1.137-2.18.28-1.058-.553.102-.352-1.946-.574-2.472-.785-2.52-.047-.14-.012-.153-.293-2.637h-.012l-.515-2.332-.727-2.543-.012-.011v-.012l-.68-2.555-.023-.105-.273-2.184zm5.554-.879-.07.024-.07.011-1.979.439.239 1.948.644 2.461h.012l.727 2.543.011.035.012.047.574 2.578.024.082.011.082.258 2.485.762 2.402.011.047.012.058.219.922.734-2.191.024-.094.047-.082 1.101-2.32.19-.513-.112.033-.363-1.218-.012-.024v-.035l-.632-2.496-.762-2.531-.012-.012v-.024l-.691-2.554-.035-.094-.012-.094-.294-2.103zm7.618-2.32-.035.012-.024.011-2.496.809-.047.012-.035.011-1.504.386.01.065.328 2.39.668 2.45.762 2.53.023.071.152.605.215-.348.739-2.344.785-2.531.035-.117 1.242-2.485.012-.011v-.012l1.154-2.233zM33.238 12.84l-2.015 1.008-2.098 1.218-1.523 1.618-.973 1.957-.082 2.027.738 1.98 1.207 1.7 1.945 1.289.06.035.046.035.65.509.194.004 2.355.035 1.781-.492 1.079-1.618.984-1.898-.07-1.207-1.125-.633-.844.117-.234 1.266-.387 1.945-1.77-.902-.082-.035.657-1.324-1.36-.258.445-2.32.211-1.044 1.055-.152 2.402-.328.504-.07.446.246 2.273 1.3.703.41.059.81.045.767 1.15 1.25 1.957 1.325 2.25 1.172 2.367 1.125h.024l.011.012 2.204 1.09 2.355.433h.012l2.578.445 2.45.282h2.636l2.531.117 2.531-.164 2.496-.223 2.508-.562 2.403-.774.046-.011.036-.012 2.496-.656 2.414-.786 2.472-.914 2.508-.902.469-.176.48.14 2.508.763.14.046 2.274.95 1.278.234.48-1.02v-.023l.012-.012 1.008-2.074.117-.234.187-.188 1.266-1.242-.258-1.242-1.16-1.488-2.016-.762-2.355-.54-2.344-.093-2.262.375-2.167.985-.024.011h-.012l-2.297.926-2.015 1.5-.246.176-.305.07-2.601.598.011.011-2.566.598-2.356.856-.175.058-.188.024-2.648.246-.223.011-.223-.046-2.46-.504H59.57l-.199-.047-2.484-.68-2.496-.316-.258-.035-.223-.118-2.308-1.148-2.368-1.031-2.437-.703-.152-.036-.13-.082-2.343-1.242-.129-.058-.105-.094-1.981-1.582-2.191-1.114v-.011l-2.098-.95-2.25-.199z"/></svg>