<svg width="120" height="120" viewBox="0 0 120 120" fill="none" xmlns="http://www.w3.org/2000/svg">
<path d="M111.312 114.289L112.355 114.547L111.652 117.453L110.891 117.266L108.547 117.629L108.453 117.652H108.359L105.723 117.723H105.582L103.051 117.301L100.672 117.734L100.438 117.781L100.203 117.746L97.6367 117.406H95.2344L92.5977 117.629L92.4922 117.641L92.3984 117.629L89.75 117.477V117.465L87.2773 117.348L84.7812 117.734L84.582 117.77L84.3945 117.746L81.8516 117.453L79.2969 117.477L79.2852 117.465L76.7773 117.711L76.6133 117.723L76.4492 117.699L73.918 117.383L71.3867 117.43H71.3281L68.6914 117.371H68.6445L66.1719 117.23L63.7109 117.699L63.4766 117.746L63.2305 117.711L60.7227 117.348L58.2383 117.488H58.0156L55.5898 117.242L53.1406 117.676L52.8828 117.723L52.6133 117.676L50.1172 117.242L47.6914 117.395H47.668L47.6445 117.406L42.3711 117.57H42.2539L42.1367 117.559L39.5938 117.254L37.1328 117.418L37.0508 117.43L36.957 117.418L34.5078 117.277L32 117.699L31.7891 117.734L31.5781 117.711L29.0234 117.395L26.5391 117.324L23.9492 117.512L23.8906 117.523H23.832L21.1953 117.512H21.0781L18.5 117.301L16.0508 117.395L16.0625 117.406L13.4258 117.664L13.2734 117.676L13.1211 117.664L10.625 117.395L8.16406 117.5H8V114.5H8.03516L10.5781 114.395L10.6836 114.383L10.8008 114.395L13.2852 114.664L15.7695 114.418H15.8633L18.5 114.312L18.5938 114.301L18.6758 114.312L21.3125 114.512L21.3008 114.523H23.7383L26.375 114.336L26.4453 114.324L26.5273 114.336L29.1641 114.406H29.2344L29.293 114.418L31.7305 114.699L34.1562 114.301L34.3203 114.277L34.4844 114.289L37.0156 114.43L39.582 114.254L39.7227 114.242L39.8633 114.266L42.3711 114.57L44.9141 114.488L47.5039 114.418V114.406L50.1523 114.242L50.3281 114.23L50.5039 114.266L52.8828 114.688L55.2617 114.266L55.4609 114.23L55.6602 114.242L58.1328 114.488L60.7227 114.348L60.8633 114.336L61.0156 114.359L63.418 114.711L65.8086 114.266L65.9844 114.23L66.1602 114.242L68.7969 114.371L68.7852 114.383L71.3633 114.43L73.9766 114.383H74.082L74.1875 114.395L76.6836 114.711L79.1445 114.477H79.2734L81.9102 114.453H82.0039L82.0859 114.465L84.5469 114.746L86.9727 114.371L87.125 114.348L87.2773 114.359L89.9141 114.488H89.9258L92.4453 114.641L95 114.43L95.0586 114.418H95.1055L97.7539 114.406H97.8594L97.9648 114.418L100.367 114.746L102.77 114.312L103.027 114.266L103.285 114.301L105.816 114.723L108.137 114.664L110.738 114.266L111.031 114.219L111.312 114.289Z" fill="black"/>
<path d="M38.6982 103.516L38.7686 103.598L40.1162 103.715L39.9053 106.27L39.8818 106.469L39.8232 106.656L38.9209 109.164L38.792 109.516L38.499 109.773L37.0811 111.039L36.6826 111.402L36.1318 111.414L33.4951 111.508H33.4014L33.3076 111.496L30.6709 111.262V111.25L28.21 111.203L25.6084 111.344H25.4561L22.8193 111.215H22.7607L22.6904 111.203L20.2881 110.875L17.8506 111.273L17.6982 111.297L17.5459 111.285L15.0381 111.168L12.4834 111.402L12.3545 111.414L12.2256 111.402L10.2568 111.25L9.6709 111.836L9.72949 113.512L10.3975 114.953L10.5615 115.305L10.5264 115.691L10.5146 115.949L9.01465 115.844L8.5459 115.809L7.67871 116.219L6.88184 114.52L6.75293 114.238L6.74121 113.934L6.65918 111.297L6.63574 110.641L8.62793 108.648L9.12012 108.168L9.7998 108.215L12.3193 108.402L14.8389 108.18L14.9443 108.168L15.0381 108.18L17.4873 108.285L20.0186 107.887L20.2295 107.852L20.4521 107.887L23.0186 108.215L25.5264 108.332L28.0928 108.215L28.1514 108.203H28.21L30.8467 108.262L30.8936 108.273H30.9521L33.4365 108.496L35.4873 108.438L36.2256 107.781L36.9287 105.812L37.1279 103.457L37.1748 102.883L37.5967 102.496L37.667 102.426L38.6982 103.516Z" fill="black"/>
<path d="M38.2534 108.023L39.6948 108.527L42.0386 108.387H42.0972L44.7339 108.34H44.7456L47.394 108.305H47.4761L50.0542 108.41L52.5503 108.188L52.6323 108.176H52.7144L55.3511 108.223H55.3862L55.4097 108.234L57.9526 108.375L60.5073 108.223L60.6362 108.211L60.7651 108.223L63.2026 108.492L65.6753 108.152L65.8745 108.129L66.062 108.152L68.5464 108.434L71.1011 108.316L73.6792 108.105L73.8315 108.094L73.9722 108.105L76.5034 108.387L79.0347 108.352L81.5659 108.082L81.6948 108.07H81.7183L83.4526 107.637L83.4644 107.684L83.605 108.188L84.3667 108.234H87.0854L89.6401 108.363L92.2183 108.246H92.3823L95.0308 108.422H95.019L97.4448 108.492L99.9878 108.129L100.175 108.094L100.363 108.117L102.906 108.387H102.917L105.449 108.516L108.027 108.34H108.097L110.734 108.281L111.566 108.27L112.023 108.961L113.277 110.883L113.57 111.328L113.511 111.844L113.265 114.434L111.871 114.293L111.859 114.34L111.109 115.641L111.027 115.594L110.195 115.113L110.277 114.152L110.464 112.066L109.96 111.293L108.214 111.328L108.226 111.34L105.589 111.516L105.496 111.527L105.414 111.516L102.765 111.387H102.73L102.683 111.375L100.222 111.117L97.7847 111.492L97.6558 111.504H97.5151L94.8784 111.422H94.8198L92.3472 111.246L89.7222 111.375H89.5698L86.9214 111.234H84.3433L84.5659 112.793L85.3745 114.961L85.9253 116.461L84.3901 116.918L84.3081 116.941L83.8745 115.512L82.562 116.004L81.6948 113.695L81.6362 113.543L81.6245 113.379L81.2964 111.117L79.2456 111.34L79.1753 111.352H79.1167L76.48 111.398H76.3745L76.2808 111.387L73.7612 111.105L71.2886 111.316H71.2417L68.5933 111.445H68.4761L68.3589 111.434L65.9097 111.152L63.4487 111.492L63.2729 111.516L63.0854 111.492L60.5308 111.211L58.0581 111.375L57.9644 111.387L57.8823 111.375L55.2339 111.223V111.211L52.7847 111.176L50.1831 111.422L50.0776 111.434L49.9839 111.422L47.3472 111.305L44.7808 111.328L44.7925 111.34L42.2026 111.375L42.2144 111.387L39.5776 111.551L39.2729 111.562L38.9917 111.469L37.2573 110.848L37.6792 109.676L36.2378 109.301L36.3081 109.055L36.7183 107.484L38.2534 108.023Z" fill="black"/>
<path d="M50.3462 95.731L52.9829 95.8481L52.9712 95.8599L55.5142 95.8833L58.1509 95.7896H58.2329L63.5063 95.8833H63.5298L66.1665 95.9653H66.2251L68.8501 96.1528H71.3462L73.8892 95.8833L73.9478 95.8716H74.0063L76.6431 95.813L76.7485 95.8013L76.854 95.813L79.397 96.1177L81.9868 96.1646L81.9751 96.1763H84.5532L87.1899 96.0942L89.8267 96.0005H89.897L92.5337 96.0356H92.5454L95.1938 96.0825L97.7485 96.1411L100.362 96.0122H103.045V96.0005L105.682 95.9419L106.69 95.9185L107.088 96.8325L107.967 98.8013L108.073 99.0356L108.084 99.2935L108.295 101.93L108.366 102.868L107.557 103.336L105.788 104.368L105.53 104.52L105.225 104.555L102.588 104.907L102.471 104.93L102.342 104.918L99.7056 104.836V104.825L97.0806 104.778H97.0688L94.4321 104.708H91.9009L91.9126 104.719L89.2759 104.872L89.1235 104.883L88.9712 104.86L86.4048 104.473H84.0493L81.4946 104.86L81.3071 104.883L78.6704 104.942L78.5298 104.954L78.3892 104.93L75.9751 104.532L73.6196 104.965L73.3853 105.012L73.1509 104.977L70.6782 104.637H68.1821L65.5571 104.86L65.4517 104.872L65.3462 104.86L62.7095 104.708V104.696L60.2368 104.579L57.7407 104.965L57.5415 104.989L57.3423 104.965L54.811 104.684L52.2446 104.708L49.7251 104.942L49.5728 104.954L49.4087 104.93L46.8774 104.614L44.3345 104.661H44.2759L41.6392 104.602H41.5571L39.5063 104.426L39.4478 104.438H39.3423L39.3306 104.415L39.0728 104.391L36.9985 104.907L36.7173 104.977L36.4243 104.942L33.9165 104.567L31.4438 104.719H31.3267L31.2212 104.708L28.7954 104.473L26.3345 104.907L26.0767 104.954L25.8188 104.907L23.3228 104.473L20.897 104.625H20.8501L18.2017 104.708L15.5649 104.801L15.272 104.813L15.0024 104.708L12.9282 103.946L12.0259 103.618L11.9556 102.657L11.7446 100.067L11.7212 99.8208L11.7798 99.5864L12.3306 97.4067L12.5532 96.4692L13.5024 96.2935L16.0806 95.8013L16.3032 95.7544L16.5259 95.7896L19.1743 96.0942L19.1626 96.106L21.5649 96.1646L24.1665 95.9771H26.979L27.0259 95.9888L29.604 96.188L32.0532 96.0942V96.0825L34.6899 95.8364L34.8423 95.813L34.9946 95.8364L37.6313 96.106L37.6196 96.1177L40.022 96.1294L40.1157 96.1411L40.104 96.4927L42.0728 96.106L42.2485 96.0708L42.4243 96.0825L44.979 96.1997L47.4634 96.0591L50.1001 95.7427L50.229 95.731H50.3462ZM47.8149 99.0356H47.7329L45.0845 99.1997H44.9321L42.4243 99.0825L41.522 99.2583L41.2407 100.864L41.229 100.852L41.1235 101.555L41.6978 101.602L44.311 101.649L46.9243 101.614H47.0298L47.1353 101.625L49.6313 101.93L52.0923 101.708H52.2212L54.8579 101.684H54.9517L55.0454 101.696L57.4946 101.965L59.9321 101.602L60.0728 101.579L60.2251 101.59L62.8618 101.719H62.8735L65.3931 101.86L67.9478 101.661L68.0063 101.649H68.0649L70.7017 101.637H70.8071L70.9126 101.649L73.3149 101.965L75.729 101.532L75.9751 101.497L76.2329 101.532L78.7759 101.942L81.0962 101.883L83.686 101.497L83.8032 101.473H83.9204L86.5571 101.485H86.6626L86.7681 101.508L89.2642 101.86L91.7485 101.731L91.7837 101.719H91.8188L94.4673 101.708H94.5142L97.1509 101.778H97.1392L99.7876 101.836H99.7993L102.307 101.907L104.545 101.614L105.225 101.215L105.108 99.7622L104.756 98.9536L103.116 99.0005H100.502L97.8774 99.1411H97.772L95.1353 99.0825H95.1235L92.4868 99.0356V99.0239L89.9087 99.0005L87.2954 99.0942H87.2837L84.647 99.1763H84.5884L81.9517 99.1646H81.9282L79.2915 99.106H79.1509L76.5376 98.8013L74.0767 98.8599L71.5571 99.1411H71.4048L68.7681 99.1528H68.7095L68.6509 99.1411L66.0728 98.9536L63.436 98.8833V98.8716L60.811 98.8364L58.2212 98.7896L55.6079 98.8833H55.5376L52.9009 98.8481H52.854L50.311 98.731L47.8149 99.0356ZM15.0024 99.0474L14.7563 100.067L14.8618 101.461L15.7524 101.79L18.1079 101.719L20.7095 101.637L23.3462 101.473L23.522 101.461L23.6978 101.485L26.0767 101.907L28.4556 101.497L28.6548 101.461L28.854 101.473L31.3384 101.708L33.9165 101.579L34.0688 101.567L34.2095 101.59L36.5415 101.918L38.0884 101.543L38.2759 100.372V100.348L38.2876 100.325L38.4985 99.106H37.3853L37.3149 99.0942L34.8188 98.8247L32.3345 99.0708L32.2993 99.0825H32.2524L29.6157 99.188H29.4399L26.8032 98.9771H24.272V98.9653L21.7407 99.1646H21.5884L18.9517 99.0825H18.8228L16.4087 98.7896L15.0024 99.0474Z" fill="black"/>
<path d="M76.6431 78.9297L76.5962 79.5977L77.0181 81.8125L77.8501 83.4531L78.8813 83.7812L81.2603 83.6641H81.3657L81.4829 83.6758L83.897 83.8984L86.3579 83.4766L86.6157 83.4297L86.8735 83.4766L89.3228 83.9102L91.8071 83.7578H91.8423L94.4907 83.6758L97.1274 83.582H97.2446L97.3618 83.5938L99.9985 83.9219H99.9868L102.342 84.1445L103.725 84.2852L103.69 85.6797L103.631 88.2812L103.596 90.9883L103.573 92.5586L102.002 92.4648L99.2837 92.3008V92.2891L96.6938 92.2305V92.2188L94.1978 92.4062L94.1392 92.418H94.0923L91.4438 92.4062H91.3384L88.7485 92.1953L86.311 92.2891L83.6743 92.5586L83.522 92.5703L83.3696 92.5469L80.9673 92.2891L78.6353 92.6641L78.5298 92.6758H78.3306L78.2954 91.1758L78.272 90.4727L78.1548 89.6992L80.6509 89.3008L80.8501 89.2656L81.0493 89.2891L83.5454 89.5469L86.0298 89.3125H86.1118L88.7485 89.207L88.8423 89.1953L88.9243 89.207L91.5728 89.4062H93.9868L96.6235 89.2305L96.7056 89.2188L96.7759 89.2305L99.4126 89.3008H99.4712L100.608 89.3711L100.631 88.2344V88.2109L100.655 86.9922L99.6704 86.8984H99.6353L97.1157 86.582L94.5845 86.6758L91.9712 86.7461L91.9829 86.7578L89.3462 86.9219L89.1704 86.9336L88.9946 86.8984L86.6157 86.4648L84.2368 86.8984L84.0376 86.9336L83.8384 86.9102L81.2603 86.6641L78.7759 86.8047L78.4946 86.8164L78.2368 86.7344L76.3501 86.125L75.7642 85.9375L75.4829 85.3867L74.2524 82.9961L74.147 82.7969L74.1118 82.5859L73.6196 79.9609L73.5962 79.7852V79.6094L73.6431 78.7656L76.6431 78.9297Z" fill="black"/>
<path d="M20.9365 83.4443L23.4326 83.8076L25.917 83.667H26.0342L26.1396 83.6787L28.5654 83.9131L31.0264 83.4795L31.2842 83.4326L31.542 83.4795L34.0264 83.9131L36.4639 83.7607H36.5107L39.1475 83.6787L41.7959 83.585H41.9131L42.0186 83.5967L44.5615 83.9014L47.0225 83.7373L47.1162 83.7256L47.1982 83.7373L49.6475 83.8779L52.1553 83.4561L52.3662 83.4209L52.5771 83.4443L55.1201 83.7607L57.6045 83.8311L60.2178 83.6436L60.2764 83.6318H60.3232L62.9717 83.6436H63.0186L63.0771 83.6553L65.6436 83.8545L68.0928 83.7607L70.7412 83.4912L70.8936 83.4795L71.0342 83.4912L73.5303 83.7607L75.8975 83.5264L75.9678 83.5146H76.1318L76.1553 85.0146V86.1279L76.2021 86.5029H76.1553L76.167 86.5146H76.085L73.6709 86.7607L73.5186 86.7725L73.3662 86.7607L70.8584 86.4912L68.3857 86.7373H68.3389L68.3037 86.749L65.667 86.8545H65.5732L65.4912 86.8428L62.8428 86.6436V86.6318H60.417L57.792 86.8193L57.71 86.8311H57.6396L55.0029 86.749H54.9326L54.8623 86.7373L52.4248 86.4561L50.0107 86.8545L49.8467 86.8779L49.6826 86.8662L47.1396 86.7256L44.585 86.9014L44.4443 86.9131L44.3037 86.8896L41.7725 86.585L39.2529 86.667L36.6396 86.7373L36.6514 86.749L34.0146 86.9131L33.8389 86.9248L33.6631 86.9014L31.2725 86.4678L28.9053 86.8896L28.7061 86.9248L28.5068 86.9131L26.0107 86.667L23.4443 86.8076L23.292 86.8193L23.1514 86.7959L20.7842 86.4561L19.5303 86.7373L19.3545 87.874L19.3662 89.1162L20.4326 89.292H20.4443L22.9404 89.5967L25.4014 89.374L25.4717 89.3623H25.5303L28.167 89.3506H28.3545L30.8154 89.6318L33.2412 89.2686L33.3818 89.2451L33.5342 89.2568L36.1709 89.374H36.1826L38.7725 89.5146L41.3389 89.4209L41.6553 89.4092L41.96 89.5381L42.4053 89.7139L41.8428 91.1084L41.4326 92.1162L41.4443 92.4209H41.3037L41.2803 92.5029L41.1045 92.4326L38.7959 92.5264H38.6553L36.0186 92.374V92.3623L33.5459 92.2451L31.0498 92.6318L30.8506 92.6553L30.6514 92.6318L28.1201 92.3506H25.6709L23.0459 92.5967L22.8818 92.6201L22.7178 92.5967L20.0811 92.2686H20.0576L20.0342 92.2568L17.6436 91.8936L16.3896 91.6943L16.3779 90.417L16.3545 87.8154V87.6865L16.3662 87.5576L16.7412 85.2842L16.8936 84.2881L17.8779 84.0537L20.3857 83.4678L20.6553 83.4092L20.9365 83.4443Z" fill="black"/>
<path d="M24.1147 70.9673L26.6108 71.3423L29.0952 71.1899H29.2124L29.3179 71.2017L31.7437 71.436L34.2046 71.0024L34.4624 70.9556L34.7202 71.0024L37.1577 71.4478L39.6421 71.2837H39.689L42.3257 71.1899L44.9741 71.1079H45.0913L45.1968 71.1196L47.7397 71.4243L50.2007 71.2603L50.2944 71.2485L50.3765 71.2603L52.8257 71.4009L55.3335 70.979L55.5444 70.9438L55.7554 70.979L58.2983 71.2837L60.7827 71.354L63.396 71.1665L63.4429 71.1548H63.5015L66.1499 71.1665H66.1968L66.2554 71.1782L68.8218 71.3774L71.353 71.272L71.4937 71.2603L71.6343 71.2837L74.1069 71.647L75.3022 71.8228L75.3843 73.0298L75.5483 75.5142L76.0054 78.0103L74.6812 78.2446L74.6108 78.3501L73.6851 79.5337L73.603 79.4634L73.1577 79.1118L73.0522 78.561L72.5952 76.0532L72.5718 75.8892L72.4663 74.4243L71.3765 74.272L68.8452 74.3774H68.7515L68.6577 74.3657L66.021 74.1665V74.1548H63.5952L60.9702 74.3423L60.8882 74.354H60.8179L58.1812 74.272H58.1108L58.0405 74.2603L55.603 73.979L53.1772 74.3774L53.0249 74.4009L52.8608 74.3892L50.2241 74.2603L47.7632 74.4243L47.6226 74.436L47.4819 74.4126L44.9507 74.1079L42.4312 74.1899L39.7827 74.2837L39.771 74.272L37.1929 74.436L37.0171 74.4478L36.8413 74.4243L34.4507 73.9907L32.0835 74.4126L31.8843 74.4478L31.6851 74.436L29.1069 74.1899L26.6226 74.3306L26.4702 74.3423L26.3296 74.3188L24.7241 74.0845L24.3608 74.7876L24.2671 76.4868L24.7124 76.9673L26.6929 76.9438H26.7983L26.8921 76.9556L29.3999 77.2603L31.8608 77.0376H31.978L34.6147 77.0142H34.7085L34.8022 77.0259L37.2515 77.2954L39.689 76.9321L39.8296 76.9087L39.9819 76.9204L42.6187 77.0376L42.7124 77.0493L42.7944 77.061L45.0093 77.4243L44.7866 78.7603L44.7983 78.772L46.2515 79.147L46.2163 79.2876L45.8647 80.6118L44.5171 80.3892L42.4194 80.0259L39.9937 79.9087L37.4976 80.2954L37.2983 80.3306L37.0991 80.3071L34.5679 80.0142L32.0015 80.0376L29.4937 80.272L29.3296 80.2837L29.1655 80.2603L26.6343 79.9438L24.0913 79.9907L23.4233 80.0024L22.9663 79.4985L21.6304 78.0454L21.2085 77.5767L21.2437 76.9556L21.3843 74.3188L21.396 73.9907L21.5483 73.6978L22.5679 71.7642L23.0601 70.8267L24.1147 70.9673Z" fill="black"/>
<path d="M84.9443 70.9438L87.4756 71.2251H89.9248V71.2134L92.5615 70.979L92.7256 70.9556L92.8896 70.979L95.5264 71.3071L95.7959 71.3423L96.0303 71.4595L97.8701 72.4204L98.7021 72.8423L98.6787 73.7798L98.6318 76.4165L98.6201 76.6743L98.5381 76.9087L97.835 78.8071L97.542 79.5923L96.71 79.7563L94.085 80.2603L93.8389 80.3071L93.5928 80.272L91.085 79.9087L88.6123 80.0493H88.3896L85.9521 79.8032L83.5029 80.2485L83.2451 80.2837L82.9873 80.2368L80.4912 79.8032L78.0654 79.9556H78.042L78.0186 79.9673L75.3701 80.0376L72.7334 80.1313H72.6162L72.5107 80.1196L69.9561 79.8149L67.5068 79.979L67.4131 79.9907L67.3311 79.979L64.8701 79.8384L62.374 80.2603L62.1631 80.2954L61.9521 80.272L59.3975 79.9556L56.8076 79.897V79.8853L54.3115 80.0728L54.2646 80.0845H54.2061L51.5576 80.0728H51.4521L48.8623 79.8618L46.9053 79.9438L46.167 80.6118L45.5225 82.5806L45.3584 84.9829L45.3115 85.5571L44.9014 85.9556L44.8311 86.0142L43.7881 84.9478L43.7178 84.8657L42.3584 84.7603L42.5576 82.2056L42.5693 82.0298L42.6279 81.854L43.4365 79.3228L43.5654 78.9478L43.8467 78.6782L45.2764 77.3657L45.6865 76.9907L46.2373 76.9673L48.874 76.8735L48.9561 76.8618L49.0498 76.8735L51.6865 77.0728H54.1006L56.7373 76.897L56.8193 76.8853L56.8896 76.897L59.5264 76.9673H59.5967L59.667 76.979L62.0928 77.2485L64.5303 76.8618L64.6826 76.8384L64.8467 76.8501L67.3779 76.979L69.9443 76.8149L70.085 76.8032L70.2256 76.8267L72.7451 77.1196L75.2764 77.0493L77.8779 76.9673L80.5146 76.8032L80.6904 76.7915L80.8662 76.8267L83.2451 77.2368L85.624 76.8267L85.8232 76.7915L86.0225 76.8032L88.5068 77.0376L91.085 76.9087L91.2373 76.897L91.3779 76.9204L93.7686 77.2603L95.3037 76.9673L95.6318 76.1001L95.6553 74.647L94.8701 74.2485L92.6904 73.9673L90.1943 74.2017L90.1357 74.2134H90.0771L87.4287 74.2251H87.2529L84.7803 73.9321L82.3662 74.3071L82.2139 74.3306L82.0615 74.3188L79.4248 74.1899H79.4131L76.9521 74.0376L74.5615 74.3188L74.1514 74.4243L73.7998 72.9712L73.46 71.5063L73.9053 71.4009L73.9873 71.3774L74.0811 71.3657L76.6826 71.061L76.8115 71.0376L76.9404 71.0493L79.5889 71.2017L79.5771 71.2134L82.0498 71.3306L84.5576 70.9438L84.7568 70.9204L84.9443 70.9438Z" fill="black"/>
<path d="M60.9321 89.1895L63.5688 89.4941L63.5571 89.5059L65.9595 89.5645L68.561 89.377H71.3149L71.3735 89.3887H71.4321L73.9985 89.5879L76.5298 89.4824L76.9517 89.459L77.3149 89.6582L79.2017 90.7012L79.8931 91.0762L79.9751 91.8496L80.2446 94.3691L80.7017 96.8652L79.3892 97.0996L79.2954 97.2051L78.2759 98.3066L78.2056 98.2363L77.8423 97.8965L77.7485 97.4043L77.2915 94.9082L77.2798 94.8613V94.8027L77.0806 92.9395L76.2485 92.4941L74.0103 92.5879H73.8345L71.1978 92.377H68.6665V92.3652L66.147 92.5645H65.9946L63.3462 92.4941L63.2876 92.4824H63.2173L60.7798 92.1895L58.354 92.5879L58.2017 92.623L58.0376 92.6113L55.4829 92.4707L52.9282 92.6465L52.7876 92.6582L52.6587 92.6348L50.1274 92.3301L47.6079 92.4121L44.9595 92.5059H44.9243L42.3931 92.5176H40.9165L40.8931 91.0527L40.8813 90.7832L42.3813 90.748V89.5176H44.8657V89.5059L47.5024 89.4121L50.1392 89.3301L50.2563 89.3184L50.3735 89.3418L52.8462 89.6465L55.3774 89.4707H55.5532L58.0493 89.6113L60.7212 89.166L60.9321 89.1895Z" fill="black"/>
<path d="M82.1558 58.605L84.7925 58.6987H84.8628L84.9448 58.7104L87.3589 59.0386L89.8198 58.6987L89.9956 58.6753L90.1597 58.687L92.8081 58.9331L93.6167 59.0151L93.9917 59.73L95.1401 61.9214L95.3628 62.3433L95.2925 62.812L94.9409 65.4253L94.8237 66.3628L93.9331 66.6558L91.6831 67.3823L91.4839 67.4526L91.2612 67.4644L88.6597 67.5229L88.6714 67.5347L86.0229 67.6987L85.8472 67.7104L85.6714 67.6753L83.2808 67.2417L80.9136 67.6636L80.7144 67.6987L80.5151 67.6753L78.0308 67.4292L75.4526 67.5698H75.312L75.1597 67.5581L72.7573 67.2065L70.3667 67.6519L70.2026 67.687L70.0151 67.6753L67.3784 67.5347V67.5229L64.812 67.4761L62.1987 67.5229H62.0933L61.9995 67.5112L59.4917 67.1948L57.0308 67.4292H56.9136L54.2769 67.4526H54.1831L54.0894 67.4409L51.6284 67.1597L49.2026 67.5347L49.062 67.5581H48.9097L46.2729 67.4292H46.2612L43.73 67.2769L41.187 67.4878L41.1284 67.4995H41.0698L38.4331 67.5229H38.3276L38.2222 67.5112L35.8081 67.1831L33.4058 67.6284L33.1597 67.6753L32.9019 67.6284L30.4175 67.23L27.9097 67.3003L27.1597 67.312L26.6909 66.7378L24.9565 64.5698V64.0425L24.9683 61.394V60.3159L25.9995 59.9761L28.3081 59.2026L28.5073 59.144L28.7065 59.1323L31.3433 58.9917H31.4136L34.062 58.98H34.0972L36.7339 59.0386L36.7222 59.0503L39.3706 59.0737H39.3823L41.8784 59.144L44.4097 58.7925L44.5503 58.769L44.6909 58.7808L47.1987 58.8979L49.9409 58.687L50.0933 58.6987L52.6245 59.0151L55.1675 58.9917L55.2144 58.98L55.2729 58.9917L55.6011 59.0034L55.437 62.0034L55.1909 61.98L52.5542 62.0151H52.4604L52.355 62.0034L49.894 61.687L47.3862 61.8979H47.1987L44.6323 61.7808L42.1948 62.1323L42.0659 62.144H41.9487L39.3003 62.0737V62.062L36.687 62.0386H36.6636L34.0269 61.98H31.4956L29.0347 62.1206L27.9565 62.4722V63.5151L28.5659 64.2769L30.4526 64.23L30.605 64.2183L30.7339 64.2417L33.1011 64.6284L35.5034 64.1948L35.7378 64.1479L35.9722 64.1831L38.5151 64.5112L40.9409 64.4995L43.5776 64.2886L43.6831 64.2769L43.7886 64.2886L46.4253 64.4292H46.4136L48.8862 64.5464L51.394 64.1714L51.5933 64.1479L51.7925 64.1597L54.312 64.4409L56.8901 64.4292L59.3979 64.1948L59.562 64.1831L59.7261 64.2065L62.2456 64.5112L64.8003 64.4761H64.8472L67.4956 64.5347H67.5425L70.0034 64.6636L72.4644 64.2065L72.7104 64.1714L72.9565 64.2065L75.4526 64.5581L77.937 64.4292H78.0542L78.1597 64.4409L80.6206 64.6636L83.0464 64.2417L83.3042 64.2065L83.562 64.2534L86.0112 64.687L88.4839 64.5464H88.5073L88.5308 64.5347L90.9331 64.4644L92.0933 64.0894L92.2456 62.8706L91.7065 61.8394L90.0308 61.687L87.5815 62.0386L87.3823 62.062L87.1714 62.0386L84.605 61.687L82.0503 61.605V61.5933L79.5659 61.7925H76.7183L74.1519 61.6167L71.7026 61.7456L69.0776 62.062L68.9253 62.0737L68.7729 62.062L66.2183 61.8394L63.8159 62.0034H63.6519L63.6167 60.5034L63.5933 59.0034H63.6284L66.1597 58.8394H66.2769L66.3823 58.8511L68.855 59.062L71.3628 58.7808L71.4097 58.769H71.4565L74.0933 58.6284L74.187 58.6167L74.2808 58.6284L76.812 58.8042L79.355 58.7925L81.9917 58.605H82.1558Z" fill="black"/>
<path d="M78.0869 46.8413L79.833 48.3765L80.3018 48.7983L80.3369 49.4194L80.4775 52.0562L80.4893 52.2085L80.4658 52.3608L80.1143 54.7515L80.5713 57.1538L80.6064 57.3296L80.5947 57.5054L80.4541 60.1421L80.4072 60.9976L79.6455 61.396L79.5166 61.4663L78.8252 60.1304L78.7783 60.0483L77.4541 59.9897L77.583 57.4937L77.126 55.0562L77.0908 54.8101L77.126 54.5757L77.4775 52.0562L77.3721 50.2046L76.6338 49.5718L74.7236 49.9233L74.4658 49.9702L74.208 49.9233L71.7471 49.4897L69.2861 49.6655H69.2627L69.2393 49.6772L63.9658 49.8882H63.8486L63.7314 49.8765L61.1885 49.5952L58.7275 49.771L58.6338 49.7827L58.5518 49.771L56.0908 49.6421L53.583 50.064L53.3721 50.0991L53.1611 50.0757L50.6064 49.7476L48.0869 49.6655L45.5088 49.8179H45.3799L43.2354 49.7593L42.4385 50.3218L42.5205 52.0679L42.7666 54.7046L42.79 54.8569L42.7666 55.0093L42.5088 57.564L42.6143 59.9663V60.0952L42.6025 60.189L41.1025 60.1304L39.9189 60.0835L39.6143 60.0952L39.4971 57.564V57.4468L39.5088 57.3296L39.7783 54.8335L39.5322 52.3608L39.5205 52.314V52.2788L39.415 49.6304L39.3799 48.8218L40.0479 48.3413L41.9111 47.0288L42.3213 46.7358L42.8135 46.7476L45.3682 46.8179L47.9814 46.6655H48.1221L50.7588 46.7593L50.8174 46.771H50.8877L53.2666 47.0757L55.7393 46.6655L55.8916 46.6421L56.0557 46.6538L58.5869 46.7827L61.1533 46.5952L61.2939 46.5835L61.4229 46.5952L63.9307 46.8882L66.4736 46.7827L69.0752 46.689V46.6772L71.7119 46.4897L71.8877 46.478L72.0752 46.5132L74.4775 46.9233L76.833 46.4897L77.5479 46.3726L78.0869 46.8413Z" fill="black"/>
<path d="M52.5674 29.1641L55.1221 29.4805L57.6064 29.5508L60.208 29.3633L60.2666 29.3516H60.3252L62.9619 29.3633H63.0674L65.6455 29.5742L68.0947 29.4805V29.4688L70.7314 29.2109L70.8838 29.1992L71.0361 29.2109L73.626 29.4922L76.0049 29.4102H76.1572L76.1455 30.9102V32.4102H76.0986L73.5557 32.4805L73.4619 32.4922L73.3564 32.4805L70.8604 32.2109L68.376 32.457H68.3408L68.2939 32.4688L65.6572 32.5742H65.5635L65.4814 32.5625L62.8447 32.3633V32.3516H60.4072L57.7822 32.5391L57.7119 32.5508L57.6299 32.5391L54.9932 32.4688H54.9229L54.8643 32.457L52.415 32.1758L50.001 32.5742L49.8369 32.5977L49.6729 32.5859L47.1299 32.4453L44.5752 32.6211L44.3291 32.6328L44.0947 32.5742L43.1455 32.3281L43.8955 29.4219L44.6455 29.6211L47.0127 29.457L47.1064 29.4453L47.2002 29.457L49.6377 29.5977L52.1572 29.1758L52.3564 29.1406L52.5674 29.1641Z" fill="black"/>
<path d="M61.5352 14.126L61.6758 14.1494L64.2539 14.5479L64.4414 14.5713L64.6055 14.6416L67.043 15.6611L67.2891 15.7666L67.4766 15.9307L69.4336 17.7119L71.3672 19.4697L71.5312 19.6338L71.6484 19.833L72.9141 22.0479L74.332 24.3096L74.5312 24.6143L74.5547 24.9775L74.8125 27.626V30.4033L74.9883 32.9346V33.04L74.9766 35.6768V35.7354L74.9648 35.7939L74.7656 38.3604L74.8711 40.8096L75.1289 43.4463L75.1406 43.5986L75.1289 43.751L74.8594 46.2354L74.9648 48.708V48.8721H71.9648V48.7783H71.9766L71.8594 46.2939V46.1885L71.8711 46.083L72.1172 43.5752L71.8828 41.1025V41.0205L71.7656 38.3721V38.29L71.7773 38.1963L71.9766 35.5596L71.9883 33.1338L71.8125 30.4971V27.7549L71.6016 25.6104L70.3711 23.6533L70.3594 23.6182L70.3359 23.5947L69.1523 21.5088L67.4062 19.9268V19.915L65.6367 18.3213L63.6562 17.4893L61.3477 17.126L58.8984 17.2549H58.8516L56.6133 17.2666L54.75 18.4971L54.6797 18.5439L52.6055 19.7158L51.0234 21.5088H51.0117L49.4766 23.1963L48.9844 25.4229L48.9727 25.458L48.9609 25.5049L48.2695 27.8838L48.1055 30.3213L48.1523 32.8291V32.9346L48.1406 33.04L47.8242 35.5361L48.0586 37.9971V38.1143L48.082 40.7627V40.8447L48.0703 40.9385L47.7891 43.3877L48.1875 45.9775L48.1758 46.1299L48.0469 48.7666V48.8252L48.0352 49.001L46.5352 48.8721L45.0469 48.7432L45.0586 48.5557L45.1875 46.1299L44.8008 43.6338L44.7656 43.4346L44.7891 43.2471L45.082 40.7041L45.0586 38.1377L44.8242 35.6299L44.8125 35.4658L44.8359 35.3018L45.1523 32.7705L45.1055 30.2393V30.1689L45.1172 30.0986L45.3047 27.4854L45.3164 27.333L45.3516 27.1807L46.0781 24.6729L46.6406 22.1416L46.7344 21.7549L47.0039 21.4619L48.7969 19.4932L50.5312 17.5479L50.6953 17.3604L50.9062 17.2432L53.1094 15.9775L55.3359 14.5244L55.7109 14.29L56.1445 14.2783L58.7578 14.2666V14.2549L61.3828 14.126H61.5352Z" fill="black"/>
<path d="M31.8242 38.7627L32.1758 38.8564H33.3008V40.6729L34.5312 42.6768L34.6836 42.9229L34.7305 43.2041L35.1641 45.7002L36.043 48.0322L36.0781 48.1143L36.1016 48.208L36.6992 50.7861L36.7227 50.8564L37.1914 53.458L37.4141 54.6416L36.3008 55.1104L33.9336 56.1064L33.6289 56.2354L33.3008 56.2236L30.7578 56.1533L30.5234 56.1416L30.3125 56.0713L27.9922 55.2627L27.0195 54.9229L26.9961 53.8916L26.9023 51.3604L26.8906 51.0674L26.9961 50.7861L27.9219 48.3018L28.4844 45.9111L28.9648 43.3682L29.0234 43.0986L29.1641 42.8643L30.3008 41.0244V38.6689L30.3594 38.4697L30.3828 38.376L31.8242 38.7627ZM31.4141 46.5439V46.5791L31.4023 46.6143L30.793 49.1807L30.7695 49.2627L30.7344 49.3564L29.9023 51.5479L29.9492 52.7549L31.0742 53.1533L33.0547 53.2236L34.0156 52.8135L33.7812 51.4658L33.2305 49.0869L32.3047 46.6143L32.2578 46.4736L32.2227 46.333L31.8594 44.2119L31.4141 46.5439Z" fill="black"/>
<path d="M87.8071 38.4761L89.0259 38.5347L89.2485 38.4878L89.2603 38.5464L89.3071 38.5581L89.2954 38.687L89.8228 40.9019L90.5962 43.3862L91.4985 45.7769L91.5454 45.9409L92.1313 48.355L93.2563 50.5933L93.4907 51.062L93.3853 51.5776L92.8462 54.0972L92.6704 54.8589L91.9556 55.1636L89.7056 56.1011L89.4595 56.2065L89.2017 56.2183L86.5884 56.3354L86.1196 56.3472L85.7329 56.1011L83.5649 54.7534L82.7563 54.2378L82.8735 53.2769L83.2134 50.769L83.2251 50.687L83.2368 50.6167L83.8462 48.0503L84.3149 45.5073L84.3384 45.3667L84.397 45.2261L85.3813 42.7651L85.4282 42.6714L86.4946 40.4331L86.647 40.5034L86.3306 39.2026L86.272 38.98L86.2837 38.7573L86.3071 38.394L87.8071 38.4761ZM87.2446 46.1401L86.7876 48.6597L86.7759 48.6948L86.7642 48.7417L86.1899 51.1558L85.9673 52.7144L86.9165 53.312L88.8032 53.2183L90.0688 52.6909L90.3384 51.4604L89.3071 49.3979L89.2603 49.2339L88.6392 46.7144L87.854 44.6401L87.2446 46.1401Z" fill="black"/>
<path d="M61.5698 8.14355V8.17871L61.6753 10.7217L61.687 10.8271L61.6753 10.9443L61.4058 13.3936L61.6401 14.8701L61.9097 16.6045H60.0698V15.1162L58.6753 15.3271L58.4175 13.6514L58.394 13.4639L58.4058 13.2646L58.6753 10.7217L58.5698 8.30762V8.14355H61.5698Z" fill="black"/>
<path d="M47.812 66.2271L49.2886 66.4731L49.2769 66.4849L49.019 68.8872L48.9956 69.0396L48.9487 69.1919L48.2573 71.2427L48.3745 72.2036L48.5737 73.7622L47.0151 73.8794L46.9214 73.8911L46.8042 72.3911L45.3979 72.5786L45.2456 71.3013L45.1987 70.9614L45.3042 70.645L46.0542 68.4185L46.3003 66.1567V66.1216L46.312 66.0864L46.3237 65.981L47.812 66.2271Z" fill="black"/>
<path d="M73.6147 66.0996L74.0835 68.4434L74.1069 68.584L74.3413 70.9512L74.6694 72.0645L75.2202 74.0215L73.1812 73.9629H73.0991L73.1226 72.4863L71.7749 72.873L71.4351 71.6543L71.3999 71.5254L71.3882 71.3965L71.1187 68.9004L70.6733 66.6973V66.6621L70.6616 66.6387L70.6499 66.5449L72.1265 66.2988L73.6147 66.0527V66.0996Z" fill="black"/>
<path d="M82.7974 103.316L83.2544 105.613L83.2778 105.754L83.5122 108.051L83.8403 109.082L84.3325 110.723L82.645 111.004L82.563 111.016L82.3169 109.551L80.9692 109.961L80.606 108.777L80.5591 108.648L80.5474 108.496L80.2896 106.07L79.856 103.914L79.8442 103.891V103.855L79.8325 103.762L82.7856 103.27L82.7974 103.316Z" fill="black"/>
<path d="M44.7188 85.7729L44.6953 85.8667L44.332 88.269L44.3203 88.3511L44.2969 88.4331L43.6172 90.9058L43.6289 90.9175L43.1016 93.4019V93.4136L42.5273 95.98L42.5156 96.0151L42.5039 96.062L42.0703 97.6089L40.6406 97.2104L40.6289 98.7104H40.6172L38.6602 98.687L39.1875 96.8003L39.5977 95.3237L40.1719 92.7573L40.6875 90.3081L40.6992 90.2612L40.7109 90.2261L41.3906 87.6597L41.7422 85.3159L41.7539 85.2573L41.7891 85.1167L44.7188 85.7729Z" fill="black"/>
<path d="M37.1548 110.113L38.2212 110.3L38.6313 110.335L38.6196 110.359L38.6313 110.371L38.6196 110.464L38.4673 112.421L38.4438 112.632L38.3735 112.82L37.7173 114.589L37.7993 115.375L37.9868 117.472L35.9478 116.968L35.854 116.945L36.2173 115.515L34.811 115.644L34.7056 114.519L34.6704 114.191L34.7876 113.875L35.4907 112L35.6431 110.089V110.019L35.6548 109.949L35.6782 109.855L37.1548 110.113Z" fill="black"/>
<path d="M47.7432 73.2256L47.5322 75.2764L47.5088 75.4756L47.4385 75.6514L46.7939 77.3389L46.8994 78.0654L47.1455 79.7646L45.4229 79.7764H45.3408L45.3291 78.2881L43.9346 78.4873L43.7705 77.3857L43.7236 76.999L43.8525 76.6357L44.5674 74.7842L44.7549 72.9092L44.7666 72.8623L44.7783 72.8037L44.79 72.71L47.7432 73.2256Z" fill="black"/>
<path d="M81.4707 97.6382L81.7754 99.6187L81.7871 99.6655V99.7007L81.9863 101.646L82.2793 102.537L82.9004 104.365L80.9668 104.505H80.8848L80.7676 103.029L79.4434 103.486L79.0918 102.455L79.0449 102.291L79.0215 102.126L78.8223 100.087L78.5059 98.1187V98.1069L78.4824 98.0015L79.9707 97.7788L81.4473 97.5562L81.4707 97.6382Z" fill="black"/>
<path d="M78.2412 85.3174L78.6279 87.2393L78.6514 87.3213V87.3916L78.8271 89.29L79.085 90.2041L79.6475 92.1611L77.6084 92.1143L77.5146 92.1025L77.5498 90.6377L76.2021 91.0244L75.9092 90.0049L75.874 89.876L75.8623 89.7354L75.6631 87.6846L75.6748 87.6729L75.2998 85.915L75.2881 85.8799V85.8447L75.2764 85.751L78.2295 85.2822L78.2412 85.3174Z" fill="black"/>
<path d="M33.563 55.1841V55.1958L33.6685 57.0708L33.6802 57.2231L33.6567 57.3755L33.4106 59.0396L33.5981 59.7544L34.0903 61.6294H32.063V60.1411L30.7036 60.5044L30.4458 59.52L30.3638 59.2271L30.4106 58.9341L30.6802 57.0942L30.563 55.3716V55.1841H33.563Z" fill="black"/>
<path d="M89.5762 55.1841V55.1958L89.6816 57.0708L89.6934 57.2231L89.6699 57.3755L89.4238 59.0396L89.6113 59.7544L90.1035 61.6294H88.0762V60.1411L86.7168 60.5044L86.459 59.52L86.377 59.2271L86.4238 58.9341L86.6934 57.0942L86.5762 55.3716V55.1841H89.5762Z" fill="black"/>
<path d="M72.3315 60.6616L72.3433 60.6499L72.355 60.7437L72.73 62.4546L72.7534 62.5952V62.7241L72.8003 64.5054L73.0464 65.2788L73.6558 67.2358L71.605 67.2241H71.5229V65.7476L70.187 66.1694L69.8823 65.1968L69.8237 64.9976L69.812 64.7983L69.7769 62.9937L69.4019 61.2593L69.3901 61.2124V61.1538L69.3667 61.0483L70.855 60.8491L72.144 60.6851L72.3315 60.6382V60.6616Z" fill="black"/>
<path d="M49.145 60.8491L50.3286 61.0249L50.6333 61.0483L50.6216 61.0601L50.6333 61.0718L50.6216 61.1772L50.5044 62.8999L50.4927 63.1343L50.4106 63.3452L49.8481 64.7866L49.9653 65.3608L50.3052 67.0718L48.5708 67.1421L48.4771 67.1538L48.4067 65.6655L47.0239 65.9468L46.8247 64.9507L46.7427 64.5288L46.895 64.1187L47.5396 62.4663L47.6333 60.8491L47.645 60.7788V60.7202L47.6685 60.6265L49.145 60.8491Z" fill="black"/>
<path d="M60.1133 51.3477L62.6914 51.9688L63.1719 52.0859L63.4883 52.4492L65.0703 54.3008L65.375 54.6641L65.4219 55.1328L65.668 57.7812V57.9805L65.5508 60.6172V60.7578L65.5156 60.8984L65.4102 61.3438L63.9453 61.0039L62.4922 60.6523L62.5625 60.3242L62.668 57.875L62.4688 55.8828L61.5078 54.7695L59.7852 54.3477L58.2734 54.7578L57.7109 56.1055L57.418 58.3906L57.5586 60.8398L57.582 61.332L57.3125 61.7422L57.2539 61.8242L56 61.0039L55.8945 60.9219L54.5586 60.9922L54.418 58.4375V58.3086L54.4297 58.168L54.7695 55.5312L54.793 55.332L54.8633 55.1445L55.7891 52.9414L56.0703 52.2617L56.7734 52.0742L59.3633 51.3594L59.7383 51.2539L60.1133 51.3477Z" fill="black"/>
<path d="M52.9531 34.8184L54.8574 35.6387L55.3652 35.8535L55.5508 36.3711L56.2441 38.3535L56.3027 38.5293L56.3125 38.7148L56.4102 40.9121V41.0781L56.2246 43.2754L56.166 43.9199L55.6094 44.252L54.2324 45.0625L53.9883 45.209L53.6953 45.2285L51.4883 45.3848L50.4336 45.4629L50.1895 44.4375L49.7109 42.4941L49.6621 42.2695L49.6914 42.0449L49.9453 39.9844L49.6328 37.9824L49.5449 37.4062L49.9453 36.957L50.1309 36.7617L51.0781 35.707L51.4785 35.1895L52.0742 34.4375L52.9531 34.8184ZM52.2109 38.2949L52.4453 39.8184L52.4746 39.9844L52.4453 40.1602L52.1914 42.1328L52.3672 42.8164L53.207 42.7578L53.7832 42.416L53.9102 41.0293L53.8125 39.0078L53.3633 37.709L52.8457 37.4844L52.2109 38.2949Z" fill="black"/>
<path d="M59.9531 34.8184L61.8574 35.6387L62.3652 35.8535L62.5508 36.3711L63.2441 38.3535L63.3027 38.5293L63.3125 38.7148L63.4102 40.9121V41.0781L63.2246 43.2754L63.166 43.9199L62.6094 44.252L61.2324 45.0625L60.9883 45.209L60.6953 45.2285L58.4883 45.3848L57.4336 45.4629L57.1895 44.4375L56.7109 42.4941L56.6621 42.2695L56.6914 42.0449L56.9453 39.9844L56.6328 37.9824L56.5449 37.4062L56.9453 36.957L57.1309 36.7617L58.0781 35.707L58.4785 35.1895L59.0742 34.4375L59.9531 34.8184ZM59.2109 38.2949L59.4453 39.8184L59.4746 39.9844L59.4453 40.1602L59.1914 42.1328L59.3672 42.8164L60.207 42.7578L60.7832 42.416L60.9102 41.0293L60.8125 39.0078L60.3633 37.709L59.8457 37.4844L59.2109 38.2949Z" fill="black"/>
<path d="M66.9531 34.8184L68.8574 35.6387L69.3652 35.8535L69.5508 36.3711L70.2441 38.3535L70.3027 38.5293L70.3125 38.7148L70.4102 40.9121V41.0781L70.2246 43.2754L70.166 43.9199L69.6094 44.252L68.2324 45.0625L67.9883 45.209L67.6953 45.2285L65.4883 45.3848L64.4336 45.4629L64.1895 44.4375L63.7109 42.4941L63.6621 42.2695L63.6914 42.0449L63.9453 39.9844L63.6328 37.9824L63.5449 37.4062L63.9453 36.957L64.1309 36.7617L65.0781 35.707L65.4785 35.1895L66.0742 34.4375L66.9531 34.8184ZM66.2109 38.2949L66.4453 39.8184L66.4746 39.9844L66.4453 40.1602L66.1914 42.1328L66.3672 42.8164L67.207 42.7578L67.7832 42.416L67.9102 41.0293L67.8125 39.0078L67.3633 37.709L66.8457 37.4844L66.2109 38.2949Z" fill="black"/>
</svg>
