<svg xmlns="http://www.w3.org/2000/svg" width="120" height="120" fill="none" viewBox="0 0 120 120"><path fill="#000" d="m65.025 51.033.118.094.093.105 1.36 1.665 2.074.984.129.059.117.082 2.133 1.57.058.035.059.047 1.969 1.758.093.082.07.093 1.548 1.887 1.957 1.781.07.07.059.083 1.71 2.015.036.059.047.047 1.511 2.168.012.011v.024l1.477 2.203.082.117.046.13 1.044 2.437.437 1.034v-.018l.023-.117.528-2.437.562.129.914.081.495.05.257-.684 1.465.527.129.047.129.082 2.227 1.336h.011l2.274 1.348.093.058.082.07 2.063 1.665.094.082.093.105 1.723 1.992.035.035.024.036 1.617 2.074.117.164 1.29 2.226h.01l1.419 2.215.047.082.047.094 1.113 2.379.023.035.012.047.996 2.438.996 2.449.082.199.024.2.293 2.566.41 2.543.388 1.86 1.791-.36v.012l2.567-.539.199-.047.211.012 2.555.176-.059.879.059.609.058.629.559.317-.047.082-1.16 2.145v.012l-.012.011-1.312 2.297-1.266 2.297-.047.094-.705 1.087.895.289.55.176.282.492.914 1.547.14.246.047.281.41 2.66.036.235-.036.246-.171.982.119.002-.012 1.5-.024 1.5-.592-.008-.011.067-.645-.045-2.255.232-.223.024-.223-.036-1.606-.321-1.435.204-.152.024-.164-.012-2.461-.199-.265.031-1.3.227-.152.023-.164-.012-.262-.011-.377.046-.234.024-.223-.035-.449-.086-1.092-.043h-.07l-.07-.012-2.403-.34-2.39.469-.235.047-.234-.024-.502-.064-.113.018-.153-.012-2.636-.117h-.082l-.082-.012-.842-.133-.676.004-.012-.012-2.39.075-.838.171-.223.036-.234-.024-1.109-.128-.444.011h-.023l-2.567.012.012.011-2.637.176-.187.012-1.724-.323-1.692.03h-.012l-.964.008-.624.074-.129.012h-.129l-1.113-.062-2.233.155-.199.012-.175-.035-.546-.102-.843.055h-.129l-.129-.012-2.075-.234-1.107.129-.129.023-.128-.011-.547-.025-.971.107h-.07l-2.637.152-.152.012-.141-.024-2.543-.351-2.163.049-1.1.126h-.07l-2.638.165-.152.011-.14-.023-2.473-.34-2.578.059h-.059l-.22-.005-1.368.122-.035.011h-.047l-2.637.094h-.117l-2.636-.105v-.012l-2.59-.012h-.047l-.047-.011-.22-.016-.43.039h-.082l-2.637.094h-.117l-2.602-.117-2.637-.024h-.047l-.046-.012-.323-.023-1.195.012-2.637.234-.14.012-.153-.012-2.531-.281-2.578.012v-.012l-2.543.176h-.012l-.012.011-2.648.118-.094.011-.082-.011-2.543-.188.012-.223V114.5h.072l-.172-.891-.023-.093v-.094l-.176-2.637-.035-.457.223-.387 1.195-2.086.398-.691.797-.059.665-.049-.823-1.297h-.012l-1.511-2.016v-.012l-.012-.011-1.559-2.133-.105-.141-.07-.175-.95-2.344.715-.305.621-.352.492-.284-.062-.732 2.285-.2.129-.011.129.012 2.637.222.164.024 1.236.246.03-.614v-.07l.245-2.637.012-.106.024-.105.632-2.579v-.035l.012-.023.738-2.543.024-.094.047-.082 1.066-2.414.938-2.402.035-.082.047-.082 1.265-2.309.012-.047.023-.035 1.395-2.227v-.011l1.406-2.25.117-.176.153-.14 1.98-1.782 1.875-1.77.035-.035 1.98-1.757.06-.059.07-.047 2.168-1.523.199-.14.223-.071 2.449-.75.213.719.511-.095 1.465-.281.024.093.023.106v.105l.117 2.39.134 1.022.857-1.712 1.054-2.343.035-.082.047-.082 1.36-2.25.047-.07 1.476-2.18 1.477-2.192.105-.164.152-.129 2.004-1.758 1.77-1.77 1.84-1.898.07-.07 1.957-1.781.223-.211.281-.094 1.723-.611.087-.085 1.864-1.805.902.938.164.035 1.453.363-.023.094-.105.41-.305.305-1.407 1.36.012 1.013.858-1.496.117-.2.176-.163 1.968-1.782.703-.633.868.352 1.875.762.398.164.258.351 1.523 2.145.024.035.023.023.404.636.062-1.111-1.456-1.78.762-.633 1.265-1.547zM45.81 109.742l-.34.199h-.386l-2.379.036-2.46.527-.235.047-.246-.024-2.532-.281v-.012l-2.425-.222-2.555.211-.105.011-.106-.011-2.531-.141-2.555.188.012.011-2.649.199-.105.012-.117-.012-2.555-.187-2.52.164h-.14l-2.66-.082h-.094l-.094-.023-2.543-.411h-.035l-.023-.011-.188-.047-.187.023-1.77.129-.574 1.008.14 2.086.235 1.195 1.383.246 2.437-.199h.117l2.637-.023h.024l2.625.011 2.578-.093h.164l2.292.162 1.124-.01h.023l2.555.012 2.648-.118.082-.011.082.011 2.13.141 2.036-.176h.153l2.637.035h-.012l2.637.024h.023l2.398.043.971-.09h.152l2.637.047-.012.012h2.66l2.602.058.153-.004 1.447-.16.164-.012.152.012 2.543.281 2.485-.164h.163l1.856.088 1.455-.158.152-.012.164.012.21.024 1.203-.141.222-.024.223.047 1.755.319 1.415-.084.082-.012.082.012 1.384.07.192-.012h.082l1.593-.014 1.776-.208.235-.036.222.047.814.152.633-.011 2.637-.047h.035l2.637.012h.164l1.328.149 1.906-.042 1.594-.306.258-.047.258.035 1.572.241 1.715-.007h.106l.093.012 1.653.218 2.302-.37.117-.012h.118l.692-.004.169-.031.202.03 1.585-.007h.14l.141.024 2.117.4.564.024 1.737-.203 1.225-.21.117-.011h.117l2.637-.024h.152l.153.024.576.113.684-.09.152-.023.152.011 1.336.082.199-1.101-.339-2.145-.469-.797-1.594-.515-2.227.469-.187.035h-.176l-2.449-.106-2.566.094-.059.012-.059-.012-2.554-.105-2.578.152-.118.012-.105-.012-2.543-.258v.012l-2.637-.082h-2.59l-2.52.246h-.058l-2.508.14h-.105l-2.625-.058-2.496.117-.422.023-.387-.21-.91-.514-.527.246-.328.152-.364-.011-2.566-.082-2.59.093h-.059l-2.624-.011-2.532.011-2.625.235-.152.011-.14-.011-2.544-.282h-2.484l-2.637.188h-.023l-2.637.129-.223.012-.222-.059-2.414-.609.056-.222zm-32.841-1.499-.045.006.004.052.035.011.059.012.011-.012.017-.081zM49.83 72.299l-1.652 1.875-.047.047-1.746 1.77-1.535 2.073-1.348 2.028-.984 2.203-.762 2.473v.023l-.012.023-.855 2.485-.633 2.437-.012.024-.012.035-.902 2.953-.328.281-.195.166.166.636.07.27-.035.28-.305 2.485.258 2.403.504 2.531.058.316-.07.317-.516 2.179.715 2.121.047.164.024.176.043.431.103.012 1.923-.399.94-1.714.012-.023.012-.012 1.324-2.285.023-.047 1.419-2.238.046-.07.059-.071 1.688-2.05.082-.106.093-.082 1.945-1.676 1.7-1.887.07-.07.082-.07 2.04-1.7.046-.046.059-.035 2.191-1.5 1.897-1.394-.13-.325-.046-.117-.024-.13-.55-2.59v-.01l-.692-2.321-.996-2.356-.047-.105L55 81.97l-.645-2.52-.972-2.273-1.196-2.192v-.011l-1.218-2.11-.675-.947zM21.854 95.393l-.868 1.629-.89 2.402-.75 2.437-.07.235-.153.199-1.25 1.74.06.222.06.246-.012.246-.165 2.613-.003.053 1.056.03 2.602-.152h.105l.094.012 2.52.175 2.542-.199 2.637-.199h.2l2.507.141 2.567-.211.129-.012.128.012 1.726.16-.32-.952-.226-.257-1.758-1.969-.047-.058-.035-.047-1.57-2.133-1.582-1.899-1.899-1.558v-.012l-2.003-1.43-2.18-1.101-1.945-.645zm34.949 8.537-.024.011h-.023l-2.39.61-2.145 1.137-.012.011-2.191 1.125-.708.585 2.106-.102 2.649-.188h.082l2.648-.012h.082l.082.012 2.46.281 2.532-.222.059-.012h.047l2.648-.023h.023l2.579.011 2.648-.093h.102l-1.829-.963-.035-.012-.023-.024-2.156-1.265-2.285-.774-2.403-.445-2.261-.305zM68.34 72.618l-.961 2.05-.95 2.474v.023l-.984 2.438-.023.058-.024.047-1.101 2.25-.527 2.39v.024l-.012.035-.68 2.52-.633 2.566-.023.094-.259.796 1.78 1.134.059.035.059.047 2.085 1.617h-.011l2.097 1.582.012.023 2.098 1.63.094.081.093.094 1.782 1.969.023.023.023.035 1.665 2.063.046.047.035.047 1.489 2.191.023.023 1.442 2.215.117.176.058.199.551 1.742.125-.004.047-.012h.047l2.145.038.574-1.879-.387-2.262-.023-.152v-.164l.105-2.625v-.059l.211-2.636.07-2.555v-.07l.012-.07.223-1.908-.186.064v-.023l-.902-2.25-.035-.094-.024-.082-.644-2.449-.868-2.484-.902-2.461-.023-.047-.762-2.297-1.383-2.05v-.013l-1.43-2.062-1.57-1.992-1.828-1.735v.012l-1.244-1.175zM94.19 96.13l-2.098 1.418-.012.012-.023.011-2.133 1.348-1.84 1.641-1.687 1.793-1.372 2.085-.082.118-.093.105-1.059 1.075-.094.314-.367 1.185 2.336-.212h.14l2.637-.011h.047l2.637.082h.105l2.543.246 2.508-.141.07-.011h.07l2.59.105 2.579-.094h.117l.201.008.108-1.362-.727-2.074-1.148-2.204-.036-.07-.023-.082-.973-2.45-.023-.07-.773-2.296-.962-1.348h-1.195zm-84.544 3.953L11 101.938l1.594 2.11.035.047.023.047 1.43 2.238.176.269.047.329.005.045.51.087.16-2.302-.62-2.262-.036-.152-.011-.165-.093-1.633-1.712-.342-2.426-.211zm98.182.13h-.012l-2.137.425.016.605.012.34-.141.316-.979 2.189.372 1.089.105.304-.035.305-.102 1.314.591-.121.091-.148 1.395-2.191 1.23-2.239v-.011l.012-.012 1.313-2.297.14-.262zm-50.47-6.33-.024.013-.024.023-2.062 1.406-1.933 1.594-1.712 1.91-.07.082-.07.059-1.91 1.64-1.535 1.852-1.36 2.121.012.012-1.045 1.78.69-.395 1.921-1.57.13-.105.14-.071 2.332-1.207 2.309-1.218.152-.082.176-.036 2.543-.656 2.496-.715.304-.093.317.046 2.625.352h.035l.035.012 2.59.48.105.012.094.035 2.508.844.152.047.13.082 2.214 1.301 2.344 1.23.152.082.129.117 1.945 1.676.21.117-1.307-1.995v-.012l-1.407-2.05-1.605-1.993-1.7-1.875-1.991-1.558v-.012l-2.075-1.57h-.011l-.012-.012-2.027-1.582-1.852-1.172-1.43-.152zm-25.21-21.782-1.816 1.289-1.957 1.71.012.012-1.91 1.805-.024.023-1.828 1.618-1.29 2.086-1.382 2.238-1.195 2.144-.914 2.368-.012.023-.012.035-1.03 2.309-.704 2.449-.586 2.402-.234 2.45-.073 1.607.067-.206.011-.047.012-.035.926-2.484.035-.094.047-.082 1.254-2.344.316-.598.668-.164 2.25-.515.41-.094.399.129 2.52.832.105.035.105.059 2.356 1.195.105.058.082.059 2.157 1.547.046.035.036.023 2.039 1.688.117.094.094.105 1.687 2.051.023.035.036.035 1.299 1.774-.387-1.988-.024-.14-.27-2.625-.023-.176.024-.164.281-2.367-.574-2.215-.012-.07-.012-.059-.41-2.543-.011-.047v-.047l-.258-2.625-.258-2.496-.48-2.601-.012-.094-.012-.082-.187-2.637-.012-.152.023-.153.288-2.21-.645-1.119-.152-.257-.036-.293-.351-2.614-.012-.07v-.037zm54.163-.012-.106 2.472-.012.118-.023.117-.48 2.25.128 2.426.012.175-.035.176-.457 2.485-.012 2.53v.118l-.258 2.637v.023l-.304 2.625-.012.14-.047.141-.738 2.356-.27 2.25-.07 2.637v.035l-.012.047-.21 2.554-.043 1.108.62-.938.07-.105.094-.094 1.805-1.922.106-.105 1.98-1.746.082-.07.106-.071 2.226-1.418 2.133-1.441.105-.082.118-.047 2.402-1.078.293-.141h2.602l.773-.012.457.633 1.547 2.156.129.176.07.223.832 2.437.737 1.895-.024-.895-.504-2.484-.012-.035v-.035l-.433-2.59v-.035l-.012-.036-.293-2.46-.902-2.25h-.012l-.984-2.438v-.012l-1.067-2.238-1.347-2.11-.012-.023-.024-.023-1.265-2.168-1.524-1.969-1.64-1.898-1.852-1.512-2.203-1.29v-.01l-2.11-1.267-.09-.033zM67.76 58.61l.083.34-.094.34-.281 1.172-.013.05.74 1.613.035.07.023.07.844 2.497.011.047.012.035.668 2.414.95 1.992 1.698 1.606h.012l1.899 1.816.082.07.058.082 1.64 2.063.036.035.023.047 1.5 2.168v.011l1.489 2.192.117.176.07.187.82 2.484.915 2.461v.024l.879 2.496.023.117.058.22.022-.194.246-2.519.024-2.637v-.129l.023-.117.445-2.496-.129-2.426-.156-.278-1.289-2.32-.047-.07-.023-.071-1.043-2.426v-.011l-.973-2.297-1.383-2.075-1.488-2.12-1.57-1.876-1.899-1.722-.082-.082-.07-.082-1.594-1.946-1.793-1.593-1.989-1.466zm-15.734-2.068-1.664 1.512.012.011-1.84 1.899v.012l-1.91 1.91-.047.023-1.863 1.617-1.36 2.04v.011l-1.476 2.18-.012-.012-1.265 2.098-1.032 2.343-.023.024-.012.023-1.172 2.368-.035.082-.047.07-1.23 1.852-.27 2.074.164 2.46.47 2.508.01.06v.058l.27 2.625v.011l.092.903.23-.872.012-.059.024-.059.855-2.472.762-2.485.023-.082.035-.082 1.09-2.425.047-.106.07-.105 1.454-2.204.046-.07 1.57-2.12.06-.083.082-.07 1.84-1.887 1.698-1.922.083-.082.093-.07 1.676-1.395.703-2.097.54-2.438.035-.14.046-.13.985-2.261.539-2.309-.235-2.261-.011-.07v-.071l-.006-.373zm6.407-.487L57.25 58.14l-.012.035-.023.035-1.442 2.262-.398.609-.322.031-.29 1.237-.035.128-.058.13-.996 2.261-.54 2.484-.023.083-.023.07-.717 2.158 1.047 1.466.07.117 1.325 2.262.011.023v.024l1.266 2.332.035.058.023.059 1.032 2.437.047.106.023.105.61 2.426 1.019 2.367.035.082.023.082.739 2.543.023.059.012.058.204.978.257-1.036.012-.012v-.011l.668-2.555.574-2.531.035-.164.082-.165 1.16-2.39.938-2.344.949-2.45.012-.046.023-.047 1.125-2.402.117-.246.2-.2 1.377-1.335-.42-.873-.047-.117-.036-.129-.714-2.543v-.011l-.82-2.414h-.013l-.925-2.028-1.547-1.793-.07-.082-.059-.093-1.371-2.145-1.29-1.805-.585-.234zM96.852 12.43l2.53.808.095.024 2.414.96.152.06.141.093 2.203 1.5.304.2.176.327 1.266 2.344.035.059.035.07 1.031 2.426.106.246.012.281.035.668h1.453l-1.488 2.156-.411 2.192-.023.117-.035.105-.891 2.45-.058.175-.106.153-1.488 2.191-.129.2-.199.152-2.121 1.617-.223.176-.281.082-2.543.703-.047.023-.047.012-2.578.527-.246.047-.258-.035-2.625-.352-.211-.023-.2-.082-2.425-1.078-.152-.059-.13-.093-2.156-1.57-.234-.165-.152-.246-1.43-2.25-.082-.129-.058-.14-.926-2.473-.082-.211-.012-.223-.164-2.613-.012-.129.012-.14.316-2.602.024-.164.047-.152.878-2.52.094-.258.188-.21 1.734-2.052.117-.14.153-.117 2.191-1.536.164-.128.211-.07 2.508-.88.164-.046.164-.024 2.649-.293.316-.035zm-2.801 3.199-2.133.75-1.828 1.289-1.453 1.7-.739 2.12-.27 2.309.13 2.191.82 2.168 1.184 1.864 1.828 1.312 2.074.914 2.121.281 2.274-.457 2.25-.633 1.675-1.277 1.231-1.816.808-2.215.411-2.192-.071-1.722-.867-2.04-1.101-2.027-1.77-1.207-2.25-.878v-.012l-2.133-.668z"/></svg>