<svg width="120" height="120" viewBox="0 0 120 120" fill="none" xmlns="http://www.w3.org/2000/svg">
<path d="M58.3281 13.582L60.9414 13.8281L60.9297 13.8398L63.543 13.9922L63.6836 14.0039L63.8125 14.0391L66.4023 14.707L66.9531 14.8594L67.2812 15.3398L68.7344 17.5664L68.8516 17.7539L68.9219 17.9648L69.5195 19.9922L70.082 21.9141H69.3906L69.3086 23.0742L69.4258 25.5938L69.5684 27.7393L69.9492 27.6436L70.4648 27.5146L70.9453 27.7373L73.3359 28.8389L74.1562 29.2139L74.2031 30.1045L74.3789 32.7764V32.9053L74.3203 35.542L74.3789 38.1201V38.2373L74.3555 38.3545L74.0039 40.8506L74.1904 42.8535L76.7383 42.8311L77.125 42.8193L77.4766 43.0068L79.4102 44.0615L80.0664 44.4248L80.1719 45.1748L80.5352 47.7881L80.5586 47.9756L80.5352 48.1631L80.2422 50.6943V53.1787L80.4062 55.8154L80.582 58.4521V58.6045L80.5371 59.9727L80.875 59.96H80.8867L83.5117 59.8896L84.3203 59.8662L84.7891 60.5459L86.043 62.374L86.2656 62.7021L86.3008 63.0889L86.5234 65.7256L86.5352 65.8779L86.5234 66.0303L86.2422 68.5498L86.2539 71.0459L86.4297 73.6826V73.7061L86.5586 76.3545V76.46L86.5254 77.8545L87.875 78.0186L88.6016 78.1006L88.9766 78.7217L90.1602 80.6553L90.3359 80.96L90.3711 81.3115L90.6055 83.9482L90.6172 84.1006L90.5938 84.2529L90.3125 86.7842V89.2568L90.4883 91.9053V91.917L90.6406 94.5537V94.7178L90.5693 96.0059L90.7734 95.9951L90.9258 95.9834L91.0664 96.0068L93.6094 96.3467L94.6523 96.499L94.875 97.5186L95.4023 99.9326L95.4258 100.026V100.132L95.6602 102.769L95.6719 102.909L95.6484 103.062L95.3672 105.546L95.3789 108.077L95.5547 110.714V110.749L95.6836 113.386V113.573L95.6289 114.296L97.8945 114.605L100.273 114.711L102.793 114.277L102.91 114.266H103.027L105.664 114.242H105.816L105.969 114.266L108.406 114.746L110.809 114.5L110.891 114.488H110.973L112.016 114.5L112.004 116L111.98 117.5L110.984 117.488L108.477 117.746L108.254 117.77L108.031 117.734L105.57 117.242L103.145 117.254L100.648 117.688L100.496 117.711L100.332 117.699L97.6953 117.594H97.625L97.5547 117.582L95.1523 117.242L92.7617 117.711L92.5273 117.758L92.293 117.734L89.7383 117.406L87.207 117.418L87.1953 117.406L84.6055 117.488H84.5938L81.957 117.547H81.9336L79.3672 117.559L79.3789 117.57L76.7422 117.746L76.5547 117.758L73.9297 117.266L71.5391 117.547L71.4102 117.559H71.2812L68.7266 117.418L66.1719 117.582H66.043L65.9141 117.57L63.418 117.289L60.957 117.559H60.8867L58.25 117.711L58.0977 117.723L57.957 117.699L55.4141 117.348L52.9062 117.406H52.8477L50.2109 117.348V117.336H47.5742L44.9492 117.289L42.4531 117.512L42.418 117.523H42.3711L39.7344 117.617H39.6172L36.9805 117.512V117.5L34.3906 117.488H34.3438L34.2969 117.477L31.7188 117.301L29.1875 117.43H29.127L29.168 117.593H27V117.42L26.4688 117.418V117.406L23.9609 117.43L21.3242 117.664L21.1836 117.676L21.0312 117.664L18.5 117.383L15.9219 117.395V117.383L13.3789 117.559H13.3672L13.3555 117.57L10.707 117.688L10.6133 117.699L10.5312 117.688L7.98828 117.5L8 117.277V114.5H8.21094L10.6719 114.699L13.1797 114.582V114.57L15.8164 114.395H15.9102L18.5469 114.383L18.6406 114.371L18.7227 114.383L21.2305 114.664L23.7148 114.453L23.7617 114.441H23.8203L25.291 114.428L25.3008 114.253L25.418 111.616V111.499L25.4414 111.394L25.9102 108.862L25.957 108.593L26.1094 108.358L27.4688 106.132L27.7383 105.71L28.207 105.522L30.6357 104.58L30.5352 104.292L30.4297 103.964L30.4648 103.624L30.7578 101.175L30.2891 98.7842L30.2422 98.5498L30.2656 98.3154L30.5938 95.749V93.2412L30.5586 90.6045L30.5469 90.0771L30.875 89.667L32.4805 87.6279L32.6562 87.3936L32.9023 87.2529L35.1055 85.9521L36.0059 85.3291L35.6523 84.124L35.5938 83.9365L35.582 83.7373L35.5352 81.0889L35.4766 78.4521V78.4404L35.4414 75.8857L35.2656 73.249L35.2305 72.792L35.4531 72.3936L36.7305 70.167L36.8477 69.9678L37.0117 69.8154L38.9102 68.0225L39.0859 67.8584L39.3203 67.7529L41.7344 66.6631L41.8525 66.6055L41.7578 65.1084L41.4531 62.46L41.4414 62.3428V62.2139L41.582 59.6475L41.418 57.1045V56.9756L41.4297 56.8467L41.7227 54.1982L41.7344 54.0811L41.7695 53.9639L42.4375 51.585L42.5781 51.0693L43.0234 50.7646L45.2031 49.2295L45.3555 49.124L45.5312 49.0537L47.0078 48.4814L46.7227 46.8389L46.6992 46.7451V46.6396L46.582 44.0381L46.4062 41.3896V41.3076L46.3828 38.6709V38.5186L46.418 38.3662L47.0273 35.3193L47.4492 34.9795L49.418 33.374L49.4883 33.3271L50.4863 32.6035L50.4883 32.4492L50.5117 29.8125V29.7656L50.6172 27.2461L50.5234 24.6797L50.2891 22.0312L50.2773 21.9258L50.2891 21.8086L50.4648 19.1367L50.4883 18.8086L50.6523 18.5156L51.9414 16.1484L52.1406 15.7852L52.5039 15.5742L54.8125 14.2266L55.0469 14.0859L55.3164 14.0508L57.9297 13.5938L58.1289 13.5586L58.3281 13.582ZM88.4883 99.124L85.8281 99.3115L85.8164 99.3232V99.3115L83.1797 99.4756H83.1562L80.5195 99.5928L78.0703 99.874L75.4805 100.331L75.4102 100.343H75.3398L72.7148 100.542L70.0898 100.776H70.0781L67.5117 100.976L64.8984 101.327L64.7812 101.339H64.6641L62.1445 101.257L59.707 101.702L59.6953 101.69L57.1992 102.288L57.0352 102.323H56.8828L54.3398 102.358L51.9141 102.874L51.8438 102.886L51.7617 102.897L49.2539 103.144L46.8281 103.847L46.6172 103.905L46.4062 103.894L43.9219 103.858L41.5547 104.479L41.5312 104.491H41.5078L38.9414 105.089L36.4336 105.757L36.3633 105.78L33.9609 106.284L32.3086 107.104L31.6602 107.538L31.6182 107.417L29.7422 108.136L28.8047 109.683L28.3945 111.839L28.3008 114.159L28.3682 114.426L29.0469 114.43L31.6953 114.312L31.7773 114.301L31.8594 114.312L34.5078 114.488L34.4961 114.5L37.0508 114.512H37.0977L39.6875 114.617L42.1836 114.535L44.832 114.289H44.9844L47.6211 114.336L47.6094 114.348H50.2695L52.8711 114.406L55.4844 114.348H55.6133L55.7305 114.359L58.2148 114.723L60.7109 114.559V114.57L63.2891 114.289L63.4414 114.277L63.6055 114.289L66.0898 114.582L68.6328 114.43L68.7148 114.418L68.7969 114.43L71.3281 114.559L73.8242 114.266L74.0586 114.23L74.2812 114.277L76.7305 114.734L79.1797 114.582L79.2266 114.57H79.2617L81.8867 114.559V114.547L84.5234 114.488L87.1602 114.418H87.1953L89.832 114.406H89.9375L90.0312 114.418L92.4219 114.734L92.5898 114.701L92.6836 113.526L92.5664 110.913L92.3906 108.276L92.3789 108.229V108.183L92.3672 105.546V105.452L92.3789 105.37L92.6602 102.851L92.4375 100.39H92.4258L92.168 99.1709L90.7969 98.9834L88.4883 99.124ZM82.7188 81.3115H82.5312L79.9766 81.2881L77.3633 81.4639H77.3281L74.75 81.5811L72.2891 81.9209L69.6875 82.4248L69.6172 82.4365H69.5469L66.9336 82.6709L66.9453 82.6826L64.3203 82.9756H64.3086L61.6719 83.2451L59.1406 83.6318L59.0352 83.6436H56.457L54.0078 84.1592L51.5117 84.8623L51.3594 84.8975L51.207 84.9092L48.7109 85.085L46.2969 85.7412L46.2266 85.7529L46.168 85.7646L43.6953 86.1982L41.375 87.124L41.0938 87.2295H40.8008L38.8496 87.1768L38.4883 87.3701L38.4062 87.417L38.3662 87.3418L36.793 88.4482L36.7461 88.4717L36.6992 88.5068L34.6484 89.7021L33.5586 91.085L33.5938 93.2061V95.96L33.582 96.0537L33.2656 98.4443L33.7344 100.858L33.7812 101.093L33.7578 101.315L33.5127 103.323L35.6602 102.862L38.2148 102.183L38.2383 102.171H38.2617L40.8398 101.573L43.3594 100.905L43.5586 100.858H43.7578L46.2305 100.882L48.5742 100.237L48.6914 100.202L48.8203 100.179L51.375 99.9092L53.8945 99.3936L54.0352 99.3701H54.1758L56.6484 99.3232L59.0977 98.7607L59.1445 98.749H59.1797L61.7812 98.2803L61.9336 98.2568H62.0859L64.6406 98.3271L67.1367 98.0107L67.1719 97.999H67.207L69.832 97.7881L72.457 97.5654H72.4688L72.4805 97.5537L75.0938 97.3545L77.5781 96.9209L77.6133 96.9092H77.6602L80.2852 96.6045H80.332L80.3906 96.5928L83.0039 96.4873L85.6289 96.335V96.3232L87.5469 96.1875L87.6289 94.624L87.5 92.1045L87.3125 89.4561V86.6318L87.3242 86.5498L87.5938 84.042L87.4062 81.9326L86.7852 80.9014L85.1562 80.7021L82.7188 81.3115ZM80.9688 62.9482L80.9805 62.96L78.5664 63.042L76 63.3818H75.918L73.293 63.5928H73.2695L70.7148 63.7451L68.1484 64.1553L68.1367 64.1436L65.6523 64.6943L65.5117 64.7178L62.8867 65.0342L62.875 65.0225L60.3086 65.3975L57.7773 65.7373L57.7891 65.749L55.1992 66.2764L55.1055 66.2998H55L52.4922 66.4521L50.125 67.1553L50.1133 67.1436L47.7578 68.0576L47.582 68.1162L47.3945 68.1396L44.9922 68.4209L42.9883 69.3818L42.9766 69.3936H42.9648L40.7852 70.3662L39.2383 71.8193L38.2773 73.4717L38.4414 75.6748V75.7568L38.4766 78.3936L38.5234 81.0303L38.5703 83.4443L38.792 84.1826L40.543 84.2178L42.7578 83.3623L42.8867 83.3037L43.0391 83.2803L45.6406 82.8115L48.0664 82.1553L48.207 82.1201L48.3477 82.1084L50.8203 81.9326L53.2578 81.2529L53.3047 81.2412H53.3516L55.9414 80.6787L56.0938 80.6436H58.8477L61.2969 80.2686H61.3438L61.3789 80.2568L63.9805 79.999L66.6055 79.7061L66.6172 79.6943H66.6406L69.1953 79.4482L71.7148 78.9678H71.7617L71.8086 78.9561L74.4219 78.6045L74.4922 78.5928H74.5508L77.1875 78.4639V78.4756L79.7891 78.2881H79.9062L82.332 78.3115L83.5215 78.0205L83.5586 76.4951L83.4297 73.8818L83.2539 71.2451V71.1514L83.2422 68.5029V68.4209L83.2539 68.3389L83.5117 65.8311L83.3359 63.7568L82.7734 62.9014L80.9688 62.9482ZM74.2891 45.8428L72.0156 46.3818L71.9102 46.4053H71.8164L69.2148 46.6279L66.6016 46.9795H66.5781L64.0117 47.2725L61.5508 47.7998L59.0664 48.5146L58.9961 48.5381L58.9375 48.5498L56.4062 49.0186L56.418 49.0303L53.8633 49.6514L51.2969 50.2842L48.9883 50.9287L46.7734 51.7842L45.1797 52.9092L44.6875 54.6436L44.418 57.0107L44.582 59.5654V59.7295L44.4414 62.2607L44.7461 64.7568V64.8389L44.7852 65.4346L46.8438 65.1865L49.1641 64.3076L49.2227 64.2842L49.2812 64.2725L51.8242 63.5342L51.9883 63.4873L52.1523 63.4756L54.6719 63.3115L57.1914 62.8076L57.2383 62.7959H57.2852L59.8867 62.4209L62.5 62.0576H62.5234L62.5352 62.0459L65.0898 61.7412L67.6094 61.2021L67.6445 61.1904H67.6914L70.3047 60.7803L70.375 60.7686H70.4453L73.0586 60.6162V60.6045L75.6836 60.3936V60.4053L77.5293 60.1621L77.582 58.6514L77.418 56.0146L77.2422 53.3779V53.2725L77.2539 50.6357V50.4717L77.5352 47.999L77.2891 46.3232L76.375 45.8311L74.2891 45.8428ZM68.3164 31.1533L68.0078 31.7344L67.1758 31.793L64.8145 31.96L64.6562 31.9775L62.2656 32.6602L62.207 32.6719L62.1602 32.6836L59.5703 33.1992H59.5469L57.0156 33.6445L55.5361 34.002L55.4531 34.0303L55.3262 34.0527L54.4492 34.2656L54.1562 34.3359L53.8633 34.2891L53.8447 34.2852L53.0859 34.4053L51.2461 35.7529L49.7461 36.96L49.3828 38.8232L49.4062 41.2021L49.5703 43.8389L49.582 43.8506V43.874L49.6758 46.3115L49.8945 47.5693L50.5352 47.3896L50.5586 47.3779H50.5703L53.1484 46.7451V46.7334L55.7148 46.1123H55.7383L55.7734 46.1006L58.3633 45.5967L60.7891 44.9053L60.8828 44.8818L63.4727 44.3311L63.543 44.3076H63.6133L66.2148 44.0146V44.0029L68.8281 43.6631L68.8633 43.6514H68.8984L71.25 43.4473L71.0156 40.9209L70.9922 40.7451L71.0156 40.5811L71.3672 38.0264L71.3203 35.542V35.4717L71.3789 32.9639L71.2617 31.1826L70.1719 30.6787L68.3164 31.1533ZM56.0781 16.957L54.3789 17.9414L53.7988 19H56V19.1846L55.9902 19.2695L55.8115 20.832L55.9229 22.4043L56.0811 23.2119L56.4316 25H54.5V23.5215L53.4502 23.7266L53.5117 24.4102L53.5234 24.4453V24.4922L53.6172 27.1289V27.2461L53.5117 29.8828L53.4883 31.1836L53.8662 31.2461L54.7266 31.1006L57.1172 30.3154L57.1758 30.292L57.2227 30.2803L59.7539 29.6357L59.8359 29.6123L59.9062 29.6006L62.4258 29.2256H62.4609L64.0654 29.0371L64.1523 29.0156L64.4346 28.9932L64.957 28.9326L66.2773 28.585L66.5781 28.0078L66.4375 25.793V25.7695L66.3535 24.0518L65.1406 24.3242L64.9648 23.5273L64.9414 23.4219V23.3164L64.8125 21.7227L64.8008 21.5586L64.8242 21.4062L65.0117 19.9062L65.7031 20H66.3926L66.0977 19.0078L65.0781 17.4609L63.2031 16.9805L60.707 16.8164H60.6602L58.2461 16.582L56.0781 16.957ZM59.7148 18H62V18.1992L61.9883 18.293L61.8008 19.6172L61.918 21.0117L62.0703 21.6797L62.4805 23.4961H60.5V22.0195L59.1406 22.3242L58.9648 21.5273L58.9414 21.4219V21.3164L58.8125 19.7227L58.8008 19.5586L58.8242 19.4062L59.0117 17.9062L59.7148 18Z" fill="black"/>
</svg>
