<svg width="120" height="120" viewBox="0 0 120 120" fill="none" xmlns="http://www.w3.org/2000/svg">
<path d="M8.1 116V117.5H8.13227L8.16451 117.499L8.1 116ZM10.64 115.891L10.797 114.399L10.6865 114.387L10.5755 114.392L10.64 115.891ZM13.28 116.169L13.123 117.66L13.2739 117.676L13.425 117.662L13.28 116.169ZM15.92 115.912L15.8596 114.413L15.8172 114.415L15.775 114.419L15.92 115.912ZM18.56 115.806L18.6763 114.31L18.588 114.303L18.4996 114.307L18.56 115.806ZM21.2 116.011L21.0837 117.507L21.1392 117.511L21.1948 117.511L21.2 116.011ZM23.84 116.02L23.8348 117.52L23.8912 117.52L23.9474 117.516L23.84 116.02ZM26.48 115.831L26.5223 114.331L26.4473 114.329L26.3726 114.334L26.48 115.831ZM29.12 115.905L29.2963 114.415L29.2295 114.408L29.1623 114.406L29.12 115.905ZM31.76 116.217L31.5837 117.707L31.7941 117.732L32.0032 117.698L31.76 116.217ZM34.4 115.784L34.4793 114.286L34.3171 114.277L34.1568 114.303L34.4 115.784ZM37.04 115.923L36.9607 117.421L37.0493 117.426L37.1379 117.42L37.04 115.923ZM39.68 115.751L39.8617 114.262L39.7223 114.245L39.5821 114.254L39.68 115.751ZM42.32 116.073L42.1383 117.562L42.2533 117.576L42.3692 117.572L42.32 116.073ZM44.96 115.986L44.9117 114.487L44.9108 114.487L44.96 115.986ZM47.6 115.901L47.6483 117.401L47.6707 117.4L47.693 117.398L47.6 115.901ZM50.24 115.737L50.5012 114.26L50.3253 114.229L50.147 114.24L50.24 115.737ZM52.88 116.204L52.6188 117.681L52.879 117.727L53.1393 117.682L52.88 116.204ZM55.52 115.741L55.6608 114.247L55.4596 114.228L55.2606 114.263L55.52 115.741ZM58.16 115.99L58.0192 117.483L58.1299 117.493L58.2409 117.487L58.16 115.99ZM60.8 115.847L61.0126 114.362L60.8665 114.341L60.7191 114.349L60.8 115.847ZM63.44 116.225L63.2274 117.71L63.4714 117.745L63.7137 117.7L63.44 116.225ZM66.08 115.735L66.1582 114.237L65.9809 114.228L65.8063 114.26L66.08 115.735ZM68.72 115.873L68.6418 117.371L68.6647 117.372L68.6878 117.373L68.72 115.873ZM71.36 115.93L71.3278 117.429L71.3564 117.43L71.3849 117.429L71.36 115.93ZM74 115.886L74.185 114.397L74.0804 114.384L73.975 114.386L74 115.886ZM76.64 116.214L76.455 117.702L76.6155 117.722L76.7765 117.708L76.64 116.214ZM79.28 115.973L79.2685 114.473L79.2059 114.473L79.1435 114.479L79.28 115.973ZM81.92 115.952L82.0888 114.462L81.9989 114.452L81.9085 114.452L81.92 115.952ZM84.56 116.251L84.3912 117.742L84.5876 117.764L84.783 117.735L84.56 116.251ZM87.2 115.854L87.2734 114.356L87.1245 114.349L86.977 114.371L87.2 115.854ZM89.84 115.984L89.9255 114.486L89.9134 114.486L89.84 115.984ZM92.48 116.135L92.3945 117.632L92.4978 117.638L92.6008 117.63L92.48 116.135ZM95.12 115.921L95.1099 114.421L95.0544 114.422L94.9992 114.426L95.12 115.921ZM97.76 115.903L97.9616 114.417L97.8562 114.403L97.7499 114.403L97.76 115.903ZM100.4 116.261L100.198 117.748L100.434 117.78L100.667 117.737L100.4 116.261ZM103.04 115.784L103.284 114.304L103.028 114.262L102.773 114.308L103.04 115.784ZM105.68 116.219L105.436 117.699L105.576 117.722L105.719 117.718L105.68 116.219ZM108.32 116.151L108.359 117.65L108.453 117.648L108.546 117.634L108.32 116.151ZM110.96 115.748L111.313 114.29L111.026 114.221L110.734 114.265L110.96 115.748ZM8 116V117.5H8.1V116V114.5H8V116ZM8.1 116L8.16451 117.499L10.7045 117.389L10.64 115.891L10.5755 114.392L8.03549 114.501L8.1 116ZM10.64 115.891L10.483 117.382L13.123 117.66L13.28 116.169L13.437 114.677L10.797 114.399L10.64 115.891ZM13.28 116.169L13.425 117.662L16.065 117.405L15.92 115.912L15.775 114.419L13.135 114.676L13.28 116.169ZM15.92 115.912L15.9804 117.411L18.6204 117.305L18.56 115.806L18.4996 114.307L15.8596 114.413L15.92 115.912ZM18.56 115.806L18.4437 117.301L21.0837 117.507L21.2 116.011L21.3163 114.516L18.6763 114.31L18.56 115.806ZM21.2 116.011L21.1948 117.511L23.8348 117.52L23.84 116.02L23.8452 114.52L21.2052 114.511L21.2 116.011ZM23.84 116.02L23.9474 117.516L26.5874 117.327L26.48 115.831L26.3726 114.334L23.7326 114.524L23.84 116.02ZM26.48 115.831L26.4377 117.33L29.0777 117.404L29.12 115.905L29.1623 114.406L26.5223 114.331L26.48 115.831ZM29.12 115.905L28.9437 117.395L31.5837 117.707L31.76 116.217L31.9363 114.728L29.2963 114.415L29.12 115.905ZM31.76 116.217L32.0032 117.698L34.6432 117.264L34.4 115.784L34.1568 114.303L31.5168 114.737L31.76 116.217ZM34.4 115.784L34.3207 117.282L36.9607 117.421L37.04 115.923L37.1193 114.426L34.4793 114.286L34.4 115.784ZM37.04 115.923L37.1379 117.42L39.7779 117.248L39.68 115.751L39.5821 114.254L36.9421 114.427L37.04 115.923ZM39.68 115.751L39.4983 117.24L42.1383 117.562L42.32 116.073L42.5017 114.584L39.8617 114.262L39.68 115.751ZM42.32 116.073L42.3692 117.572L45.0092 117.486L44.96 115.986L44.9108 114.487L42.2708 114.574L42.32 116.073ZM44.96 115.986L45.0083 117.486L47.6483 117.401L47.6 115.901L47.5517 114.402L44.9117 114.487L44.96 115.986ZM47.6 115.901L47.693 117.398L50.333 117.234L50.24 115.737L50.147 114.24L47.507 114.404L47.6 115.901ZM50.24 115.737L49.9788 117.214L52.6188 117.681L52.88 116.204L53.1412 114.727L50.5012 114.26L50.24 115.737ZM52.88 116.204L53.1393 117.682L55.7793 117.218L55.52 115.741L55.2606 114.263L52.6207 114.727L52.88 116.204ZM55.52 115.741L55.3792 117.234L58.0192 117.483L58.16 115.99L58.3008 114.496L55.6608 114.247L55.52 115.741ZM58.16 115.99L58.2409 117.487L60.8809 117.345L60.8 115.847L60.7191 114.349L58.0791 114.492L58.16 115.99ZM60.8 115.847L60.5874 117.332L63.2274 117.71L63.44 116.225L63.6526 114.74L61.0126 114.362L60.8 115.847ZM63.44 116.225L63.7137 117.7L66.3537 117.21L66.08 115.735L65.8063 114.26L63.1663 114.75L63.44 116.225ZM66.08 115.735L66.0018 117.233L68.6418 117.371L68.72 115.873L68.7982 114.375L66.1582 114.237L66.08 115.735ZM68.72 115.873L68.6878 117.373L71.3278 117.429L71.36 115.93L71.3922 114.43L68.7522 114.373L68.72 115.873ZM71.36 115.93L71.3849 117.429L74.0249 117.386L74 115.886L73.975 114.386L71.335 114.43L71.36 115.93ZM74 115.886L73.815 117.374L76.455 117.702L76.64 116.214L76.825 114.725L74.185 114.397L74 115.886ZM76.64 116.214L76.7765 117.708L79.4165 117.466L79.28 115.973L79.1435 114.479L76.5035 114.72L76.64 116.214ZM79.28 115.973L79.2915 117.473L81.9315 117.452L81.92 115.952L81.9085 114.452L79.2685 114.473L79.28 115.973ZM81.92 115.952L81.7512 117.443L84.3912 117.742L84.56 116.251L84.7288 114.761L82.0888 114.462L81.92 115.952ZM84.56 116.251L84.783 117.735L87.423 117.338L87.2 115.854L86.977 114.371L84.337 114.768L84.56 116.251ZM87.2 115.854L87.1266 117.353L89.7666 117.482L89.84 115.984L89.9134 114.486L87.2734 114.356L87.2 115.854ZM89.84 115.984L89.7545 117.481L92.3945 117.632L92.48 116.135L92.5655 114.637L89.9255 114.486L89.84 115.984ZM92.48 116.135L92.6008 117.63L95.2408 117.416L95.12 115.921L94.9992 114.426L92.3592 114.639L92.48 116.135ZM95.12 115.921L95.1301 117.421L97.7701 117.403L97.76 115.903L97.7499 114.403L95.1099 114.421L95.12 115.921ZM97.76 115.903L97.5584 117.39L100.198 117.748L100.4 116.261L100.602 114.775L97.9616 114.417L97.76 115.903ZM100.4 116.261L100.667 117.737L103.307 117.26L103.04 115.784L102.773 114.308L100.133 114.785L100.4 116.261ZM103.04 115.784L102.796 117.264L105.436 117.699L105.68 116.219L105.924 114.738L103.284 114.304L103.04 115.784ZM105.68 116.219L105.719 117.718L108.359 117.65L108.32 116.151L108.281 114.651L105.641 114.719L105.68 116.219ZM108.32 116.151L108.546 117.634L111.186 117.231L110.96 115.748L110.734 114.265L108.094 114.668L108.32 116.151ZM110.96 115.748L110.607 117.206L111.647 117.458L112 116L112.353 114.542L111.313 114.29L110.96 115.748Z" fill="black"/>
<path d="M31 58V56.5H29.7794L29.5313 57.6951L31 58ZM31.1 58V59.5H31.1323L31.1645 59.4986L31.1 58ZM33.64 57.8907L33.797 56.3989L33.6865 56.3873L33.5755 56.3921L33.64 57.8907ZM36.28 58.1686L36.123 59.6603L36.2739 59.6762L36.425 59.6615L36.28 58.1686ZM38.92 57.9122L38.8596 56.4134L38.8172 56.4151L38.775 56.4192L38.92 57.9122ZM41.56 57.8058L41.6763 56.3103L41.588 56.3034L41.4996 56.307L41.56 57.8058ZM44.2 58.0111L44.0837 59.5065L44.1392 59.5109L44.1948 59.511L44.2 58.0111ZM46.84 58.0202L46.8348 59.5202L46.8912 59.5204L46.9474 59.5163L46.84 58.0202ZM49.48 57.8306L49.5223 56.3312L49.4473 56.3291L49.3726 56.3345L49.48 57.8306ZM52.12 57.905L52.2963 56.4154L52.2295 56.4075L52.1623 56.4056L52.12 57.905ZM54.76 58.2174L54.5837 59.707L54.7941 59.7319L55.0032 59.6976L54.76 58.2174ZM57.4 57.7836L57.4793 56.2857L57.3171 56.2771L57.1568 56.3035L57.4 57.7836ZM60.04 57.9234L59.9607 59.4213L60.0493 59.426L60.1379 59.4202L60.04 57.9234ZM62.68 57.7507L62.8617 56.2618L62.7223 56.2448L62.5821 56.2539L62.68 57.7507ZM65.32 58.0729L65.1383 59.5619L65.2533 59.5759L65.3692 59.5721L65.32 58.0729ZM67.96 57.9863L67.9117 56.4871L67.9108 56.4871L67.96 57.9863ZM70.6 57.9013L70.6483 59.4005L70.6707 59.3998L70.693 59.3984L70.6 57.9013ZM73.24 57.7373L73.5012 56.2603L73.3253 56.2291L73.147 56.2402L73.24 57.7373ZM75.88 58.2042L75.6188 59.6813L75.879 59.7273L76.1393 59.6816L75.88 58.2042ZM78.52 57.7408L78.6608 56.2474L78.4596 56.2285L78.2607 56.2634L78.52 57.7408ZM81.16 57.9897L81.0192 59.4831L81.1299 59.4935L81.2409 59.4875L81.16 57.9897ZM83.8 57.8471L84.0126 56.3622L83.8665 56.3413L83.7191 56.3493L83.8 57.8471ZM86.44 58.225L86.2274 59.7099L86.3739 59.7309L86.5217 59.7228L86.44 58.225ZM89.2675 58.0708L90.7673 58.0974L90.7959 56.4852L89.1859 56.573L89.2675 58.0708ZM89.2207 60.714L87.7209 60.6874L87.7205 60.7104L87.7208 60.7335L89.2207 60.714ZM89.255 63.3544L87.7551 63.3739L87.7555 63.4025L87.7569 63.431L89.255 63.3544ZM89.3899 65.9913L90.8839 66.1249L90.8933 66.0199L90.8879 65.9147L89.3899 65.9913ZM89.1529 68.641L87.6589 68.5075L87.6445 68.6685L87.6648 68.829L89.1529 68.641ZM89.4851 71.2712L90.9837 71.208L90.9811 71.1454L90.9733 71.0832L89.4851 71.2712ZM89.5962 73.9089L91.0916 74.0262L91.0987 73.9361L91.0949 73.8457L89.5962 73.9089ZM89.3884 76.5576L87.893 76.4403L87.8776 76.6373L87.9137 76.8316L89.3884 76.5576ZM89.876 79.1824L91.3759 79.2041L91.378 79.055L91.3508 78.9084L89.876 79.1824ZM89.8377 81.8253L91.3374 81.8591L91.3375 81.847L89.8377 81.8253ZM89.7781 84.4689L88.2785 84.4351L88.2761 84.5385L88.288 84.6412L89.7781 84.4689ZM90.0823 87.1L91.581 87.0382L91.5788 86.9828L91.5724 86.9277L90.0823 87.1ZM90.1911 89.7378L91.6836 89.888L91.6942 89.7822L91.6898 89.676L90.1911 89.7378ZM89.9243 92.3886L88.4318 92.2383L88.4081 92.4744L88.4583 92.7063L89.9243 92.3886ZM90.4926 95.0105L91.9802 95.2031L92.0134 94.9461L91.9585 94.6928L90.4926 95.0105ZM90.1491 97.664L88.6615 97.4714L88.6433 97.6123L88.6518 97.7541L90.1491 97.664ZM90.3078 100.3L88.8106 100.39L88.8162 100.484L88.8337 100.577L90.3078 100.3ZM90.8013 102.925L92.3006 102.878L92.297 102.762L92.2755 102.647L90.8013 102.925ZM90.8829 105.563L92.3738 105.729L92.3855 105.623L92.3822 105.517L90.8829 105.563ZM90.5884 108.215L89.0976 108.049L89.0809 108.2L89.0946 108.351L90.5884 108.215ZM90.828 110.848L92.3268 110.789L92.3253 110.751L92.3218 110.712L90.828 110.848ZM90.9331 113.486L92.4326 113.522L92.4338 113.474L92.4319 113.427L90.9331 113.486ZM90.8745 115.948L90.8431 117.447L92.3385 117.479L92.3741 115.984L90.8745 115.948ZM88.2345 115.892L88.1838 117.392L88.1934 117.392L88.2031 117.392L88.2345 115.892ZM85.5945 115.803L85.6451 114.304L85.5202 114.3L85.3962 114.316L85.5945 115.803ZM82.9545 116.155L82.881 117.654L83.0174 117.66L83.1527 117.642L82.9545 116.155ZM80.3145 116.026L80.3879 114.528L80.2906 114.523L80.1935 114.531L80.3145 116.026ZM77.6745 116.24L77.5034 117.73L77.6492 117.746L77.7955 117.735L77.6745 116.24ZM75.0345 115.936L75.2056 114.446L75.099 114.434L74.9918 114.437L75.0345 115.936ZM72.3945 116.012L72.3973 117.512L72.4172 117.512L72.4371 117.511L72.3945 116.012ZM69.7545 116.016L69.7517 114.516L69.7162 114.517L69.6808 114.518L69.7545 116.016ZM67.1145 116.146L67.0852 117.646L67.1367 117.647L67.1881 117.644L67.1145 116.146ZM64.4745 116.095L64.4436 117.594L64.4452 117.594L64.4745 116.095ZM61.8345 116.04L61.8654 114.541L61.8523 114.54L61.8345 116.04ZM59.1945 116.009L59.2123 114.509L59.1773 114.509L59.1424 114.51L59.1945 116.009ZM56.5545 116.101L56.6035 117.6L56.6065 117.6L56.5545 116.101ZM53.9145 116.187L53.9044 117.687L53.934 117.687L53.9635 117.686L53.9145 116.187ZM51.2745 116.169L51.2467 117.669L51.2556 117.669L51.2644 117.669L51.2745 116.169ZM48.6345 116.12L48.4627 117.611L48.5345 117.619L48.6067 117.62L48.6345 116.12ZM45.9945 115.816L46.1662 114.326L46.0625 114.314L45.9582 114.317L45.9945 115.816ZM43.3545 115.88L43.3182 114.381L43.2592 114.382L43.2005 114.388L43.3545 115.88ZM40.7145 116.153L40.717 117.653L40.793 117.652L40.8685 117.645L40.7145 116.153ZM38.0745 116.157L37.9684 117.653L38.0227 117.657L38.077 117.657L38.0745 116.157ZM35.4345 115.97L35.5405 114.474L35.5102 114.472L35.4798 114.471L35.4345 115.97ZM32.7945 115.89L32.8398 114.391L32.83 114.391L32.8203 114.39L32.7945 115.89ZM30.1545 115.845L28.9139 116.688L29.3511 117.331L30.1287 117.345L30.1545 115.845ZM29.2557 114.522L27.7557 114.523L27.7558 114.984L28.0151 115.366L29.2557 114.522ZM29.2547 111.881L27.7564 111.809L27.7547 111.845L27.7547 111.881L29.2547 111.881ZM29.3807 109.244L27.8852 109.127L27.8834 109.15L27.8824 109.172L29.3807 109.244ZM29.5859 106.609L31.0814 106.726L31.0907 106.606L31.0808 106.485L29.5859 106.609ZM29.3668 103.96L27.8673 103.997L27.8683 104.04L27.8719 104.084L29.3668 103.96ZM29.3014 101.316L27.8062 101.196L27.7999 101.275L27.8018 101.353L29.3014 101.316ZM29.5127 98.6819L31.0079 98.8018L31.0099 98.7763L31.0111 98.7507L29.5127 98.6819ZM29.6338 96.0445L31.1322 96.1133L31.1332 96.0934L31.1335 96.0734L29.6338 96.0445ZM29.6848 93.4047L28.1854 93.3593L28.1852 93.3675L28.185 93.3757L29.6848 93.4047ZM29.7646 90.7658L28.2787 90.5601L28.2677 90.64L28.2652 90.7205L29.7646 90.7658ZM30.1285 88.1368L31.6144 88.3425L31.6341 88.2001L31.6264 88.0565L30.1285 88.1368ZM29.9867 85.4904L28.4889 85.4088L28.4845 85.4897L28.4888 85.5706L29.9867 85.4904ZM30.1303 82.8537L31.628 82.9353L31.6291 82.9151L31.6297 82.8949L30.1303 82.8537ZM30.2026 80.2147L28.7044 80.1423L28.7036 80.1579L28.7032 80.1735L30.2026 80.2147ZM30.33 77.5775L28.838 77.4226L28.8337 77.4638L28.8317 77.5052L30.33 77.5775ZM30.6033 74.9454L32.0953 75.1003L32.1139 74.9214L32.0896 74.7432L30.6033 74.9454ZM30.2423 72.2913L28.7783 71.9646L28.7197 72.2271L28.756 72.4935L30.2423 72.2913ZM30.8273 69.6699L32.2913 69.9967L32.3231 69.8544L32.3268 69.7086L30.8273 69.6699ZM30.8954 67.0307L32.3949 67.0694L32.3963 67.0135L32.3936 66.9577L30.8954 67.0307ZM30.7665 64.3847L29.2673 64.4345L29.2677 64.4461L29.2683 64.4577L30.7665 64.3847ZM30.6786 61.7401L29.1795 61.6874L29.1777 61.7387L29.1794 61.7899L30.6786 61.7401ZM30.7713 59.1017L29.3026 58.7968L29.2767 58.9217L29.2722 59.0491L30.7713 59.1017ZM31 58V59.5H31.1V58V56.5H31V58ZM31.1 58L31.1645 59.4986L33.7045 59.3893L33.64 57.8907L33.5755 56.3921L31.0355 56.5014L31.1 58ZM33.64 57.8907L33.483 59.3824L36.123 59.6603L36.28 58.1686L36.437 56.6768L33.797 56.3989L33.64 57.8907ZM36.28 58.1686L36.425 59.6615L39.065 59.4052L38.92 57.9122L38.775 56.4192L36.135 56.6756L36.28 58.1686ZM38.92 57.9122L38.9804 59.411L41.6204 59.3046L41.56 57.8058L41.4996 56.307L38.8596 56.4134L38.92 57.9122ZM41.56 57.8058L41.4437 59.3013L44.0837 59.5065L44.2 58.0111L44.3163 56.5156L41.6763 56.3103L41.56 57.8058ZM44.2 58.0111L44.1948 59.511L46.8348 59.5202L46.84 58.0202L46.8452 56.5202L44.2052 56.5111L44.2 58.0111ZM46.84 58.0202L46.9474 59.5163L49.5874 59.3268L49.48 57.8306L49.3726 56.3345L46.7326 56.524L46.84 58.0202ZM49.48 57.8306L49.4377 59.33L52.0777 59.4044L52.12 57.905L52.1623 56.4056L49.5223 56.3312L49.48 57.8306ZM52.12 57.905L51.9437 59.3946L54.5837 59.707L54.76 58.2174L54.9363 56.7278L52.2963 56.4154L52.12 57.905ZM54.76 58.2174L55.0032 59.6976L57.6432 59.2638L57.4 57.7836L57.1568 56.3035L54.5168 56.7373L54.76 58.2174ZM57.4 57.7836L57.3207 59.2815L59.9607 59.4213L60.04 57.9234L60.1193 56.4255L57.4793 56.2857L57.4 57.7836ZM60.04 57.9234L60.1379 59.4202L62.7779 59.2476L62.68 57.7507L62.5821 56.2539L59.9421 56.4266L60.04 57.9234ZM62.68 57.7507L62.4983 59.2397L65.1383 59.5619L65.32 58.0729L65.5017 56.584L62.8617 56.2618L62.68 57.7507ZM65.32 58.0729L65.3692 59.5721L68.0092 59.4855L67.96 57.9863L67.9108 56.4871L65.2708 56.5737L65.32 58.0729ZM67.96 57.9863L68.0083 59.4856L70.6483 59.4005L70.6 57.9013L70.5517 56.4021L67.9117 56.4871L67.96 57.9863ZM70.6 57.9013L70.693 59.3984L73.333 59.2344L73.24 57.7373L73.147 56.2402L70.507 56.4042L70.6 57.9013ZM73.24 57.7373L72.9788 59.2144L75.6188 59.6813L75.88 58.2042L76.1412 56.7271L73.5012 56.2603L73.24 57.7373ZM75.88 58.2042L76.1393 59.6816L78.7793 59.2182L78.52 57.7408L78.2607 56.2634L75.6206 56.7268L75.88 58.2042ZM78.52 57.7408L78.3792 59.2342L81.0192 59.4831L81.16 57.9897L81.3008 56.4963L78.6608 56.2474L78.52 57.7408ZM81.16 57.9897L81.2409 59.4875L83.8809 59.3449L83.8 57.8471L83.7191 56.3493L81.0791 56.4919L81.16 57.9897ZM83.8 57.8471L83.5874 59.3319L86.2274 59.7099L86.44 58.225L86.6526 56.7402L84.0126 56.3622L83.8 57.8471ZM86.44 58.225L86.5217 59.7228L89.3492 59.5686L89.2675 58.0708L89.1859 56.573L86.3583 56.7273L86.44 58.225ZM89.2675 58.0708L87.7678 58.0442L87.7209 60.6874L89.2207 60.714L90.7205 60.7406L90.7673 58.0974L89.2675 58.0708ZM89.2207 60.714L87.7208 60.7335L87.7551 63.3739L89.255 63.3544L90.7549 63.3349L90.7206 60.6945L89.2207 60.714ZM89.255 63.3544L87.7569 63.431L87.8918 66.0679L89.3899 65.9913L90.8879 65.9147L90.753 63.2778L89.255 63.3544ZM89.3899 65.9913L87.8958 65.8577L87.6589 68.5075L89.1529 68.641L90.647 68.7746L90.8839 66.1249L89.3899 65.9913ZM89.1529 68.641L87.6648 68.829L87.9969 71.4591L89.4851 71.2712L90.9733 71.0832L90.6411 68.4531L89.1529 68.641ZM89.4851 71.2712L87.9864 71.3343L88.0976 73.9721L89.5962 73.9089L91.0949 73.8457L90.9837 71.208L89.4851 71.2712ZM89.5962 73.9089L88.1008 73.7916L87.893 76.4403L89.3884 76.5576L90.8839 76.6749L91.0916 74.0262L89.5962 73.9089ZM89.3884 76.5576L87.9137 76.8316L88.4013 79.4563L89.876 79.1824L91.3508 78.9084L90.8632 76.2837L89.3884 76.5576ZM89.876 79.1824L88.3762 79.1606L88.3379 81.8035L89.8377 81.8253L91.3375 81.847L91.3759 79.2041L89.876 79.1824ZM89.8377 81.8253L88.3381 81.7915L88.2785 84.4351L89.7781 84.4689L91.2777 84.5027L91.3373 81.8591L89.8377 81.8253ZM89.7781 84.4689L88.288 84.6412L88.5922 87.2723L90.0823 87.1L91.5724 86.9277L91.2682 84.2966L89.7781 84.4689ZM90.0823 87.1L88.5836 87.1618L88.6924 89.7996L90.1911 89.7378L91.6898 89.676L91.581 87.0382L90.0823 87.1ZM90.1911 89.7378L88.6987 89.5876L88.4318 92.2383L89.9243 92.3886L91.4167 92.5388L91.6836 89.888L90.1911 89.7378ZM89.9243 92.3886L88.4583 92.7063L89.0266 95.3283L90.4926 95.0105L91.9585 94.6928L91.3902 92.0708L89.9243 92.3886ZM90.4926 95.0105L89.005 94.818L88.6615 97.4714L90.1491 97.664L91.6367 97.8565L91.9802 95.2031L90.4926 95.0105ZM90.1491 97.664L88.6518 97.7541L88.8106 100.39L90.3078 100.3L91.8051 100.21L91.6464 97.5738L90.1491 97.664ZM90.3078 100.3L88.8337 100.577L89.3272 103.202L90.8013 102.925L92.2755 102.647L91.782 100.023L90.3078 100.3ZM90.8013 102.925L89.3021 102.971L89.3837 105.61L90.8829 105.563L92.3822 105.517L92.3006 102.878L90.8013 102.925ZM90.8829 105.563L89.3921 105.398L89.0976 108.049L90.5884 108.215L92.0793 108.381L92.3738 105.729L90.8829 105.563ZM90.5884 108.215L89.0946 108.351L89.3342 110.984L90.828 110.848L92.3218 110.712L92.0822 108.079L90.5884 108.215ZM90.828 110.848L89.3292 110.908L89.4343 113.546L90.9331 113.486L92.4319 113.427L92.3268 110.789L90.828 110.848ZM90.9331 113.486L89.4335 113.451L89.3749 115.912L90.8745 115.948L92.3741 115.984L92.4326 113.522L90.9331 113.486ZM90.8745 115.948L90.9059 114.448L88.2659 114.393L88.2345 115.892L88.2031 117.392L90.8431 117.447L90.8745 115.948ZM88.2345 115.892L88.2851 114.393L85.6451 114.304L85.5945 115.803L85.5438 117.302L88.1838 117.392L88.2345 115.892ZM85.5945 115.803L85.3962 114.316L82.7562 114.668L82.9545 116.155L83.1527 117.642L85.7927 117.29L85.5945 115.803ZM82.9545 116.155L83.0279 114.657L80.3879 114.528L80.3145 116.026L80.241 117.524L82.881 117.654L82.9545 116.155ZM80.3145 116.026L80.1935 114.531L77.5535 114.744L77.6745 116.24L77.7955 117.735L80.4355 117.521L80.3145 116.026ZM77.6745 116.24L77.8456 114.749L75.2056 114.446L75.0345 115.936L74.8634 117.427L77.5034 117.73L77.6745 116.24ZM75.0345 115.936L74.9918 114.437L72.3518 114.512L72.3945 116.012L72.4371 117.511L75.0771 117.436L75.0345 115.936ZM72.3945 116.012L72.3917 114.512L69.7517 114.516L69.7545 116.016L69.7573 117.516L72.3973 117.512L72.3945 116.012ZM69.7545 116.016L69.6808 114.518L67.0408 114.648L67.1145 116.146L67.1881 117.644L69.8281 117.515L69.7545 116.016ZM67.1145 116.146L67.1438 114.647L64.5038 114.595L64.4745 116.095L64.4452 117.594L67.0852 117.646L67.1145 116.146ZM64.4745 116.095L64.5054 114.595L61.8654 114.541L61.8345 116.04L61.8036 117.54L64.4436 117.594L64.4745 116.095ZM61.8345 116.04L61.8523 114.54L59.2123 114.509L59.1945 116.009L59.1767 117.509L61.8167 117.54L61.8345 116.04ZM59.1945 116.009L59.1424 114.51L56.5024 114.602L56.5545 116.101L56.6065 117.6L59.2465 117.508L59.1945 116.009ZM56.5545 116.101L56.5054 114.601L53.8654 114.688L53.9145 116.187L53.9635 117.686L56.6035 117.6L56.5545 116.101ZM53.9145 116.187L53.9245 114.687L51.2845 114.669L51.2745 116.169L51.2644 117.669L53.9044 117.687L53.9145 116.187ZM51.2745 116.169L51.3022 114.67L48.6622 114.621L48.6345 116.12L48.6067 117.62L51.2467 117.669L51.2745 116.169ZM48.6345 116.12L48.8062 114.63L46.1662 114.326L45.9945 115.816L45.8227 117.306L48.4627 117.611L48.6345 116.12ZM45.9945 115.816L45.9582 114.317L43.3182 114.381L43.3545 115.88L43.3908 117.38L46.0308 117.316L45.9945 115.816ZM43.3545 115.88L43.2005 114.388L40.5605 114.661L40.7145 116.153L40.8685 117.645L43.5085 117.372L43.3545 115.88ZM40.7145 116.153L40.7119 114.653L38.0719 114.657L38.0745 116.157L38.077 117.657L40.717 117.653L40.7145 116.153ZM38.0745 116.157L38.1805 114.661L35.5405 114.474L35.4345 115.97L35.3284 117.466L37.9684 117.653L38.0745 116.157ZM35.4345 115.97L35.4798 114.471L32.8398 114.391L32.7945 115.89L32.7491 117.389L35.3891 117.469L35.4345 115.97ZM32.7945 115.89L32.8203 114.39L30.1803 114.345L30.1545 115.845L30.1287 117.345L32.7687 117.39L32.7945 115.89ZM30.1545 115.845L31.395 115.001L30.4962 113.679L29.2557 114.522L28.0151 115.366L28.9139 116.688L30.1545 115.845ZM29.2557 114.522L30.7557 114.522L30.7547 111.88L29.2547 111.881L27.7547 111.881L27.7557 114.523L29.2557 114.522ZM29.2547 111.881L30.753 111.952L30.879 109.315L29.3807 109.244L27.8824 109.172L27.7564 111.809L29.2547 111.881ZM29.3807 109.244L30.8761 109.36L31.0814 106.726L29.5859 106.609L28.0904 106.493L27.8852 109.127L29.3807 109.244ZM29.5859 106.609L31.0808 106.485L30.8617 103.836L29.3668 103.96L27.8719 104.084L28.091 106.733L29.5859 106.609ZM29.3668 103.96L30.8664 103.923L30.8009 101.279L29.3014 101.316L27.8018 101.353L27.8673 103.997L29.3668 103.96ZM29.3014 101.316L30.7966 101.436L31.0079 98.8018L29.5127 98.6819L28.0175 98.5619L27.8062 101.196L29.3014 101.316ZM29.5127 98.6819L31.0111 98.7507L31.1322 96.1133L29.6338 96.0445L28.1354 95.9756L28.0143 98.613L29.5127 98.6819ZM29.6338 96.0445L31.1335 96.0734L31.1845 93.4336L29.6848 93.4047L28.185 93.3757L28.1341 96.0155L29.6338 96.0445ZM29.6848 93.4047L31.1841 93.45L31.2639 90.8112L29.7646 90.7658L28.2652 90.7205L28.1854 93.3593L29.6848 93.4047ZM29.7646 90.7658L31.2504 90.9715L31.6144 88.3425L30.1285 88.1368L28.6427 87.9311L28.2787 90.5601L29.7646 90.7658ZM30.1285 88.1368L31.6264 88.0565L31.4845 85.4101L29.9867 85.4904L28.4888 85.5706L28.6307 88.2171L30.1285 88.1368ZM29.9867 85.4904L31.4845 85.5719L31.628 82.9353L30.1303 82.8537L28.6325 82.7722L28.4889 85.4088L29.9867 85.4904ZM30.1303 82.8537L31.6297 82.8949L31.7021 80.2558L30.2026 80.2147L28.7032 80.1735L28.6308 82.8126L30.1303 82.8537ZM30.2026 80.2147L31.7009 80.287L31.8282 77.6498L30.33 77.5775L28.8317 77.5052L28.7044 80.1423L30.2026 80.2147ZM30.33 77.5775L31.8219 77.7324L32.0953 75.1003L30.6033 74.9454L29.1113 74.7904L28.838 77.4226L30.33 77.5775ZM30.6033 74.9454L32.0896 74.7432L31.7286 72.0891L30.2423 72.2913L28.756 72.4935L29.117 75.1475L30.6033 74.9454ZM30.2423 72.2913L31.7063 72.6181L32.2913 69.9967L30.8273 69.6699L29.3633 69.3432L28.7783 71.9646L30.2423 72.2913ZM30.8273 69.6699L32.3268 69.7086L32.3949 67.0694L30.8954 67.0307L29.3959 66.992L29.3278 69.6313L30.8273 69.6699ZM30.8954 67.0307L32.3936 66.9577L32.2647 64.3117L30.7665 64.3847L29.2683 64.4577L29.3972 67.1037L30.8954 67.0307ZM30.7665 64.3847L32.2657 64.3349L32.1778 61.6903L30.6786 61.7401L29.1794 61.7899L29.2673 64.4345L30.7665 64.3847ZM30.6786 61.7401L32.1777 61.7928L32.2704 59.1544L30.7713 59.1017L29.2722 59.0491L29.1795 61.6874L30.6786 61.7401ZM30.7713 59.1017L32.24 59.4066L32.4687 58.3049L31 58L29.5313 57.6951L29.3026 58.7968L30.7713 59.1017Z" fill="black"/>
<path d="M31.1 64V65.5H31.1323L31.1645 65.4986L31.1 64ZM33.64 63.8907L33.797 62.3989L33.6865 62.3873L33.5755 62.3921L33.64 63.8907ZM36.28 64.1686L36.123 65.6603L36.2739 65.6762L36.425 65.6615L36.28 64.1686ZM38.92 63.9122L38.8596 62.4134L38.8172 62.4151L38.775 62.4192L38.92 63.9122ZM41.56 63.8058L41.6763 62.3103L41.588 62.3034L41.4996 62.307L41.56 63.8058ZM44.2 64.0111L44.0837 65.5065L44.1392 65.5109L44.1948 65.511L44.2 64.0111ZM46.84 64.0202L46.8348 65.5202L46.8912 65.5204L46.9474 65.5163L46.84 64.0202ZM49.48 63.8306L49.5223 62.3312L49.4473 62.3291L49.3726 62.3345L49.48 63.8306ZM52.12 63.905L52.2963 62.4154L52.2295 62.4075L52.1623 62.4056L52.12 63.905ZM54.76 64.2174L54.5837 65.707L54.7941 65.7319L55.0032 65.6976L54.76 64.2174ZM57.4 63.7836L57.4793 62.2857L57.3171 62.2771L57.1568 62.3035L57.4 63.7836ZM60.04 63.9234L59.9607 65.4213L60.0493 65.426L60.1379 65.4202L60.04 63.9234ZM62.68 63.7507L62.8617 62.2618L62.7223 62.2448L62.5821 62.2539L62.68 63.7507ZM65.32 64.0729L65.1383 65.5619L65.2533 65.5759L65.3692 65.5721L65.32 64.0729ZM67.96 63.9863L67.9117 62.4871L67.9108 62.4871L67.96 63.9863ZM70.6 63.9013L70.6483 65.4005L70.6707 65.3998L70.693 65.3984L70.6 63.9013ZM73.24 63.7373L73.5012 62.2603L73.3253 62.2291L73.147 62.2402L73.24 63.7373ZM75.88 64.2042L75.6188 65.6813L75.879 65.7273L76.1393 65.6816L75.88 64.2042ZM78.52 63.7408L78.6608 62.2474L78.4596 62.2285L78.2607 62.2634L78.52 63.7408ZM81.16 63.9897L81.0192 65.4831L81.1299 65.4935L81.2409 65.4875L81.16 63.9897ZM83.8 63.8471L84.0126 62.3622L83.8665 62.3413L83.7191 62.3493L83.8 63.8471ZM86.44 64.225L86.2274 65.7099L86.4757 65.7454L86.722 65.6983L86.44 64.225ZM89 63.7351H90.5V61.9207L88.718 62.2618L89 63.7351ZM31 64V65.5H31.1V64V62.5H31V64ZM31.1 64L31.1645 65.4986L33.7045 65.3893L33.64 63.8907L33.5755 62.3921L31.0355 62.5014L31.1 64ZM33.64 63.8907L33.483 65.3824L36.123 65.6603L36.28 64.1686L36.437 62.6768L33.797 62.3989L33.64 63.8907ZM36.28 64.1686L36.425 65.6615L39.065 65.4052L38.92 63.9122L38.775 62.4192L36.135 62.6756L36.28 64.1686ZM38.92 63.9122L38.9804 65.411L41.6204 65.3046L41.56 63.8058L41.4996 62.307L38.8596 62.4134L38.92 63.9122ZM41.56 63.8058L41.4437 65.3013L44.0837 65.5065L44.2 64.0111L44.3163 62.5156L41.6763 62.3103L41.56 63.8058ZM44.2 64.0111L44.1948 65.511L46.8348 65.5202L46.84 64.0202L46.8452 62.5202L44.2052 62.5111L44.2 64.0111ZM46.84 64.0202L46.9474 65.5163L49.5874 65.3268L49.48 63.8306L49.3726 62.3345L46.7326 62.524L46.84 64.0202ZM49.48 63.8306L49.4377 65.33L52.0777 65.4044L52.12 63.905L52.1623 62.4056L49.5223 62.3312L49.48 63.8306ZM52.12 63.905L51.9437 65.3946L54.5837 65.707L54.76 64.2174L54.9363 62.7278L52.2963 62.4154L52.12 63.905ZM54.76 64.2174L55.0032 65.6976L57.6432 65.2638L57.4 63.7836L57.1568 62.3035L54.5168 62.7373L54.76 64.2174ZM57.4 63.7836L57.3207 65.2815L59.9607 65.4213L60.04 63.9234L60.1193 62.4255L57.4793 62.2857L57.4 63.7836ZM60.04 63.9234L60.1379 65.4202L62.7779 65.2476L62.68 63.7507L62.5821 62.2539L59.9421 62.4266L60.04 63.9234ZM62.68 63.7507L62.4983 65.2397L65.1383 65.5619L65.32 64.0729L65.5017 62.584L62.8617 62.2618L62.68 63.7507ZM65.32 64.0729L65.3692 65.5721L68.0092 65.4855L67.96 63.9863L67.9108 62.4871L65.2708 62.5737L65.32 64.0729ZM67.96 63.9863L68.0083 65.4856L70.6483 65.4005L70.6 63.9013L70.5517 62.4021L67.9117 62.4871L67.96 63.9863ZM70.6 63.9013L70.693 65.3984L73.333 65.2344L73.24 63.7373L73.147 62.2402L70.507 62.4042L70.6 63.9013ZM73.24 63.7373L72.9788 65.2144L75.6188 65.6813L75.88 64.2042L76.1412 62.7271L73.5012 62.2603L73.24 63.7373ZM75.88 64.2042L76.1393 65.6816L78.7793 65.2182L78.52 63.7408L78.2607 62.2634L75.6206 62.7268L75.88 64.2042ZM78.52 63.7408L78.3792 65.2342L81.0192 65.4831L81.16 63.9897L81.3008 62.4963L78.6608 62.2474L78.52 63.7408ZM81.16 63.9897L81.2409 65.4875L83.8809 65.3449L83.8 63.8471L83.7191 62.3493L81.0791 62.4919L81.16 63.9897ZM83.8 63.8471L83.5874 65.3319L86.2274 65.7099L86.44 64.225L86.6526 62.7402L84.0126 62.3622L83.8 63.8471ZM86.44 64.225L86.722 65.6983L89.282 65.2083L89 63.7351L88.718 62.2618L86.158 62.7518L86.44 64.225ZM89 63.7351H87.5V64H89H90.5V63.7351H89Z" fill="black"/>
<path d="M40 64.1H38.5V64.1323L38.5014 64.1645L40 64.1ZM40.1093 66.64L41.6011 66.797L41.6127 66.6865L41.6079 66.5755L40.1093 66.64ZM39.8314 69.28L38.3397 69.123L38.3238 69.2739L38.3385 69.425L39.8314 69.28ZM40.0878 71.92L41.5866 71.8596L41.5849 71.8172L41.5808 71.775L40.0878 71.92ZM40.1942 74.56L41.6897 74.6763L41.6966 74.588L41.693 74.4996L40.1942 74.56ZM39.9889 77.2L38.4935 77.0837L38.4891 77.1392L38.489 77.1948L39.9889 77.2ZM39.9798 79.84L38.4798 79.8348L38.4796 79.8912L38.4837 79.9474L39.9798 79.84ZM40.1694 82.48L41.6688 82.5223L41.6709 82.4473L41.6655 82.3726L40.1694 82.48ZM40.095 85.12L41.5846 85.2963L41.5925 85.2295L41.5944 85.1623L40.095 85.12ZM39.7826 87.76L38.293 87.5837L38.2681 87.7941L38.3024 88.0032L39.7826 87.76ZM40.2164 90.4L41.7143 90.4793L41.7229 90.3171L41.6965 90.1568L40.2164 90.4ZM40.0766 93.04L38.5787 92.9607L38.574 93.0493L38.5798 93.1379L40.0766 93.04ZM40.2493 95.68L41.7382 95.8617L41.7552 95.7223L41.7461 95.5821L40.2493 95.68ZM39.9271 98.32L38.4381 98.1383L38.4241 98.2533L38.4279 98.3692L39.9271 98.32ZM40.0137 100.96L41.5129 100.912L41.5129 100.911L40.0137 100.96ZM40.0987 103.6L38.5995 103.648L38.6002 103.671L38.6016 103.693L40.0987 103.6ZM40.2627 106.24L41.7397 106.501L41.7709 106.325L41.7598 106.147L40.2627 106.24ZM39.7958 108.88L38.3187 108.619L38.2727 108.879L38.3184 109.139L39.7958 108.88ZM40.2592 111.52L41.7526 111.661L41.7715 111.46L41.7366 111.261L40.2592 111.52ZM40.0103 114.16L38.5169 114.019L38.5048 114.147L38.5148 114.276L40.0103 114.16ZM40.1529 116V117.5H41.7737L41.6484 115.884L40.1529 116ZM40 64H38.5V64.1H40H41.5V64H40ZM40 64.1L38.5014 64.1645L38.6107 66.7045L40.1093 66.64L41.6079 66.5755L41.4986 64.0355L40 64.1ZM40.1093 66.64L38.6176 66.483L38.3397 69.123L39.8314 69.28L41.3232 69.437L41.6011 66.797L40.1093 66.64ZM39.8314 69.28L38.3385 69.425L38.5948 72.065L40.0878 71.92L41.5808 71.775L41.3244 69.135L39.8314 69.28ZM40.0878 71.92L38.589 71.9804L38.6954 74.6204L40.1942 74.56L41.693 74.4996L41.5866 71.8596L40.0878 71.92ZM40.1942 74.56L38.6987 74.4437L38.4935 77.0837L39.9889 77.2L41.4844 77.3163L41.6897 74.6763L40.1942 74.56ZM39.9889 77.2L38.489 77.1948L38.4798 79.8348L39.9798 79.84L41.4798 79.8452L41.4889 77.2052L39.9889 77.2ZM39.9798 79.84L38.4837 79.9474L38.6732 82.5874L40.1694 82.48L41.6655 82.3726L41.476 79.7326L39.9798 79.84ZM40.1694 82.48L38.67 82.4377L38.5956 85.0777L40.095 85.12L41.5944 85.1623L41.6688 82.5223L40.1694 82.48ZM40.095 85.12L38.6054 84.9437L38.293 87.5837L39.7826 87.76L41.2722 87.9363L41.5846 85.2963L40.095 85.12ZM39.7826 87.76L38.3024 88.0032L38.7362 90.6432L40.2164 90.4L41.6965 90.1568L41.2627 87.5168L39.7826 87.76ZM40.2164 90.4L38.7185 90.3207L38.5787 92.9607L40.0766 93.04L41.5745 93.1193L41.7143 90.4793L40.2164 90.4ZM40.0766 93.04L38.5798 93.1379L38.7524 95.7779L40.2493 95.68L41.7461 95.5821L41.5734 92.9421L40.0766 93.04ZM40.2493 95.68L38.7603 95.4983L38.4381 98.1383L39.9271 98.32L41.416 98.5017L41.7382 95.8617L40.2493 95.68ZM39.9271 98.32L38.4279 98.3692L38.5145 101.009L40.0137 100.96L41.5129 100.911L41.4263 98.2708L39.9271 98.32ZM40.0137 100.96L38.5144 101.008L38.5995 103.648L40.0987 103.6L41.5979 103.552L41.5129 100.912L40.0137 100.96ZM40.0987 103.6L38.6016 103.693L38.7656 106.333L40.2627 106.24L41.7598 106.147L41.5958 103.507L40.0987 103.6ZM40.2627 106.24L38.7856 105.979L38.3187 108.619L39.7958 108.88L41.2729 109.141L41.7397 106.501L40.2627 106.24ZM39.7958 108.88L38.3184 109.139L38.7818 111.779L40.2592 111.52L41.7366 111.261L41.2732 108.621L39.7958 108.88ZM40.2592 111.52L38.7658 111.379L38.5169 114.019L40.0103 114.16L41.5037 114.301L41.7526 111.661L40.2592 111.52ZM40.0103 114.16L38.5148 114.276L38.6574 116.116L40.1529 116L41.6484 115.884L41.5058 114.044L40.0103 114.16ZM40.1529 116V114.5H40V116V117.5H40.1529V116Z" fill="black"/>
<path d="M81 115.9H82.5V115.868L82.4986 115.835L81 115.9ZM80.8907 113.36L79.3989 113.203L79.3873 113.313L79.3921 113.425L80.8907 113.36ZM81.1686 110.72L82.6603 110.877L82.6762 110.726L82.6615 110.575L81.1686 110.72ZM80.9122 108.08L79.4134 108.14L79.4151 108.183L79.4192 108.225L80.9122 108.08ZM80.8058 105.44L79.3103 105.324L79.3034 105.412L79.307 105.5L80.8058 105.44ZM81.0111 102.8L82.5065 102.916L82.5109 102.861L82.511 102.805L81.0111 102.8ZM81.0202 100.16L82.5202 100.165L82.5204 100.109L82.5163 100.053L81.0202 100.16ZM80.8306 97.52L79.3312 97.4777L79.3291 97.5527L79.3345 97.6274L80.8306 97.52ZM80.905 94.88L79.4154 94.7037L79.4075 94.7705L79.4056 94.8377L80.905 94.88ZM81.2174 92.24L82.707 92.4163L82.7319 92.2059L82.6976 91.9968L81.2174 92.24ZM80.7836 89.6L79.2857 89.5207L79.2771 89.6829L79.3035 89.8432L80.7836 89.6ZM80.9234 86.96L82.4213 87.0393L82.426 86.9507L82.4202 86.8621L80.9234 86.96ZM80.7507 84.32L79.2618 84.1383L79.2448 84.2777L79.2539 84.4179L80.7507 84.32ZM81.0729 81.68L82.5619 81.8617L82.5759 81.7467L82.5721 81.6308L81.0729 81.68ZM80.9863 79.04L79.4871 79.0883L79.4871 79.0892L80.9863 79.04ZM80.9013 76.4L82.4005 76.3517L82.3998 76.3293L82.3984 76.307L80.9013 76.4ZM80.7373 73.76L79.2603 73.4988L79.2291 73.6747L79.2402 73.853L80.7373 73.76ZM81.2042 71.12L82.6813 71.3812L82.7273 71.121L82.6816 70.8607L81.2042 71.12ZM80.7408 68.48L79.2474 68.3392L79.2285 68.5404L79.2634 68.7394L80.7408 68.48ZM80.9897 65.84L82.4831 65.9808L82.4952 65.8525L82.4852 65.7241L80.9897 65.84ZM80.8471 64V62.5H79.2263L79.3516 64.1159L80.8471 64ZM81 116H82.5V115.9H81H79.5V116H81ZM81 115.9L82.4986 115.835L82.3893 113.295L80.8907 113.36L79.3921 113.425L79.5014 115.965L81 115.9ZM80.8907 113.36L82.3824 113.517L82.6603 110.877L81.1686 110.72L79.6768 110.563L79.3989 113.203L80.8907 113.36ZM81.1686 110.72L82.6615 110.575L82.4052 107.935L80.9122 108.08L79.4192 108.225L79.6756 110.865L81.1686 110.72ZM80.9122 108.08L82.411 108.02L82.3046 105.38L80.8058 105.44L79.307 105.5L79.4134 108.14L80.9122 108.08ZM80.8058 105.44L82.3013 105.556L82.5065 102.916L81.0111 102.8L79.5156 102.684L79.3103 105.324L80.8058 105.44ZM81.0111 102.8L82.511 102.805L82.5202 100.165L81.0202 100.16L79.5202 100.155L79.5111 102.795L81.0111 102.8ZM81.0202 100.16L82.5163 100.053L82.3268 97.4126L80.8306 97.52L79.3345 97.6274L79.524 100.267L81.0202 100.16ZM80.8306 97.52L82.33 97.5623L82.4044 94.9223L80.905 94.88L79.4056 94.8377L79.3312 97.4777L80.8306 97.52ZM80.905 94.88L82.3946 95.0563L82.707 92.4163L81.2174 92.24L79.7278 92.0637L79.4154 94.7037L80.905 94.88ZM81.2174 92.24L82.6976 91.9968L82.2638 89.3568L80.7836 89.6L79.3035 89.8432L79.7373 92.4832L81.2174 92.24ZM80.7836 89.6L82.2815 89.6793L82.4213 87.0393L80.9234 86.96L79.4255 86.8807L79.2857 89.5207L80.7836 89.6ZM80.9234 86.96L82.4202 86.8621L82.2476 84.2221L80.7507 84.32L79.2539 84.4179L79.4266 87.0579L80.9234 86.96ZM80.7507 84.32L82.2397 84.5017L82.5619 81.8617L81.0729 81.68L79.584 81.4983L79.2618 84.1383L80.7507 84.32ZM81.0729 81.68L82.5721 81.6308L82.4855 78.9908L80.9863 79.04L79.4871 79.0892L79.5737 81.7292L81.0729 81.68ZM80.9863 79.04L82.4856 78.9917L82.4005 76.3517L80.9013 76.4L79.4021 76.4483L79.4871 79.0883L80.9863 79.04ZM80.9013 76.4L82.3984 76.307L82.2344 73.667L80.7373 73.76L79.2402 73.853L79.4042 76.493L80.9013 76.4ZM80.7373 73.76L82.2144 74.0212L82.6813 71.3812L81.2042 71.12L79.7271 70.8588L79.2603 73.4988L80.7373 73.76ZM81.2042 71.12L82.6816 70.8607L82.2182 68.2207L80.7408 68.48L79.2634 68.7394L79.7268 71.3794L81.2042 71.12ZM80.7408 68.48L82.2342 68.6208L82.4831 65.9808L80.9897 65.84L79.4963 65.6992L79.2474 68.3392L80.7408 68.48ZM80.9897 65.84L82.4852 65.7241L82.3426 63.8841L80.8471 64L79.3516 64.1159L79.4942 65.9559L80.9897 65.84ZM80.8471 64V65.5H81V64V62.5H80.8471V64Z" fill="black"/>
<path d="M81 116V117.5H82.4886L82.5 116.011L81 116ZM80.9 116V114.5H80.8677L80.8355 114.501L80.9 116ZM78.36 116.109L78.203 117.601L78.3135 117.613L78.4245 117.608L78.36 116.109ZM75.72 115.831L75.877 114.34L75.7261 114.324L75.575 114.338L75.72 115.831ZM73.08 116.088L73.1404 117.587L73.1828 117.585L73.225 117.581L73.08 116.088ZM70.44 116.194L70.3237 117.69L70.412 117.697L70.5004 117.693L70.44 116.194ZM67.8 115.989L67.9163 114.493L67.8608 114.489L67.8052 114.489L67.8 115.989ZM65.16 115.98L65.1652 114.48L65.1088 114.48L65.0526 114.484L65.16 115.98ZM62.52 116.169L62.4777 117.669L62.5527 117.671L62.6274 117.666L62.52 116.169ZM59.88 116.095L59.7037 117.585L59.7705 117.592L59.8377 117.594L59.88 116.095ZM57.24 115.783L57.4163 114.293L57.2059 114.268L56.9968 114.302L57.24 115.783ZM54.6 116.216L54.5207 117.714L54.6829 117.723L54.8432 117.697L54.6 116.216ZM51.96 116.077L52.0393 114.579L51.9507 114.574L51.8621 114.58L51.96 116.077ZM49.32 116.249L49.1383 117.738L49.2777 117.755L49.4179 117.746L49.32 116.249ZM46.68 115.927L46.8617 114.438L46.7467 114.424L46.6308 114.428L46.68 115.927ZM44.04 116.014L44.0883 117.513L44.0892 117.513L44.04 116.014ZM41.4 116.099L40.4616 117.269L40.8941 117.616L41.4483 117.598L41.4 116.099ZM39.7373 114.765L38.2602 114.504L38.1056 115.38L38.7989 115.936L39.7373 114.765ZM40.2042 112.122L41.6814 112.383L41.7273 112.123L41.6817 111.863L40.2042 112.122ZM39.7408 109.48L38.2474 109.34L38.2284 109.541L38.2634 109.74L39.7408 109.48ZM39.9897 106.843L41.483 106.984L41.4935 106.873L41.4875 106.762L39.9897 106.843ZM39.8471 104.202L38.3622 103.99L38.3413 104.136L38.3493 104.283L39.8471 104.202ZM40.225 101.561L41.7099 101.773L41.7448 101.529L41.6998 101.287L40.225 101.561ZM39.7351 98.9223L38.2371 98.8441L38.2278 99.0215L38.2603 99.1962L39.7351 98.9223ZM39.873 96.2804L41.3709 96.3586L41.372 96.3373L41.3725 96.3161L39.873 96.2804ZM39.9359 93.6374L38.4493 93.437L38.4383 93.519L38.4363 93.6017L39.9359 93.6374ZM40.2905 91.0066L38.957 90.3197L38.8385 90.5497L38.8039 90.8062L40.2905 91.0066ZM41.5045 88.65L42.838 89.3369L42.8588 89.2965L42.8772 89.2548L41.5045 88.65ZM42.5674 86.2378L41.3424 85.3721L41.2555 85.4951L41.1947 85.633L42.5674 86.2378ZM44.0927 84.0796L43.075 82.9776L42.9589 83.0848L42.8677 83.2139L44.0927 84.0796ZM46.0392 82.282L47.0569 83.384L47.1629 83.2861L47.2483 83.1698L46.0392 82.282ZM47.6175 80.1325L46.6721 78.968L46.5225 79.0894L46.4085 79.2447L47.6175 80.1325ZM49.6739 78.463L48.7955 77.2471L48.7613 77.2719L48.7285 77.2985L49.6739 78.463ZM51.8165 76.9151L52.695 78.131L52.7534 78.0888L52.8075 78.0412L51.8165 76.9151ZM53.8035 75.1666L52.944 73.9373L52.8754 73.9852L52.8126 74.0405L53.8035 75.1666ZM55.9729 73.6497L55.3437 72.2881L55.2226 72.344L55.1134 72.4204L55.9729 73.6497ZM58.3914 72.532L59.0207 73.8937L59.174 73.8228L59.3077 73.7196L58.3914 72.532ZM60.6149 70.8163L61.5711 69.6606L60.6476 68.8965L59.6986 69.6287L60.6149 70.8163ZM62.683 72.5273L61.7268 73.6831L61.8127 73.7541L61.9082 73.8117L62.683 72.5273ZM64.9412 73.8895L64.1664 75.1739L64.224 75.2087L64.2845 75.2381L64.9412 73.8895ZM67.346 75.0606L68.2483 73.8623L68.1327 73.7753L68.0027 73.712L67.346 75.0606ZM69.4627 76.6544L70.5681 75.6405L70.4751 75.539L70.365 75.4562L69.4627 76.6544ZM71.2687 78.6233L70.1633 79.6372L70.2409 79.7219L70.3305 79.7937L71.2687 78.6233ZM73.3301 80.2756L74.3896 79.2138L74.3319 79.1562L74.2683 79.1052L73.3301 80.2756ZM75.2002 82.1414L76.3636 81.1945L76.3146 81.1343L76.2596 81.0795L75.2002 82.1414ZM76.8664 84.1887L78.1048 83.3423L78.0694 83.2905L78.0298 83.2418L76.8664 84.1887ZM78.3511 86.3609L79.6888 85.6822L79.6446 85.5951L79.5895 85.5144L78.3511 86.3609ZM79.5363 88.6972L78.1986 89.3758L78.2023 89.383L78.206 89.3902L79.5363 88.6972ZM80.7648 91.0552L82.2577 90.9101L82.2296 90.6203L82.0951 90.3621L80.7648 91.0552ZM81.0216 93.6993L82.5165 93.576L82.5156 93.5651L82.5146 93.5543L81.0216 93.6993ZM81.2395 96.341L82.7298 96.512L82.7466 96.365L82.7345 96.2177L81.2395 96.341ZM80.9365 98.9825L79.4462 98.8116L79.434 98.9181L79.4371 99.0252L80.9365 98.9825ZM81.0116 101.621L82.5116 101.619L82.5115 101.599L82.511 101.579L81.0116 101.621ZM81.0165 104.262L79.5165 104.265L79.5165 104.3L79.5183 104.336L81.0165 104.262ZM81.1462 106.903L82.6459 106.932L82.6469 106.881L82.6444 106.829L81.1462 106.903ZM81.0947 109.541L82.5944 109.572L82.5944 109.571L81.0947 109.541ZM81.0403 112.181L79.5405 112.15L79.5404 112.163L81.0403 112.181ZM81.009 114.826L79.5091 114.809L79.509 114.815L81.009 114.826ZM81 116V114.5H80.9V116V117.5H81V116ZM80.9 116L80.8355 114.501L78.2955 114.611L78.36 116.109L78.4245 117.608L80.9645 117.499L80.9 116ZM78.36 116.109L78.517 114.618L75.877 114.34L75.72 115.831L75.563 117.323L78.203 117.601L78.36 116.109ZM75.72 115.831L75.575 114.338L72.935 114.595L73.08 116.088L73.225 117.581L75.865 117.324L75.72 115.831ZM73.08 116.088L73.0196 114.589L70.3796 114.695L70.44 116.194L70.5004 117.693L73.1404 117.587L73.08 116.088ZM70.44 116.194L70.5563 114.699L67.9163 114.493L67.8 115.989L67.6837 117.484L70.3237 117.69L70.44 116.194ZM67.8 115.989L67.8052 114.489L65.1652 114.48L65.16 115.98L65.1548 117.48L67.7948 117.489L67.8 115.989ZM65.16 115.98L65.0526 114.484L62.4126 114.673L62.52 116.169L62.6274 117.666L65.2674 117.476L65.16 115.98ZM62.52 116.169L62.5623 114.67L59.9223 114.596L59.88 116.095L59.8377 117.594L62.4777 117.669L62.52 116.169ZM59.88 116.095L60.0563 114.605L57.4163 114.293L57.24 115.783L57.0637 117.272L59.7037 117.585L59.88 116.095ZM57.24 115.783L56.9968 114.302L54.3568 114.736L54.6 116.216L54.8432 117.697L57.4832 117.263L57.24 115.783ZM54.6 116.216L54.6793 114.718L52.0393 114.579L51.96 116.077L51.8807 117.575L54.5207 117.714L54.6 116.216ZM51.96 116.077L51.8621 114.58L49.2221 114.752L49.32 116.249L49.4179 117.746L52.0579 117.573L51.96 116.077ZM49.32 116.249L49.5017 114.76L46.8617 114.438L46.68 115.927L46.4983 117.416L49.1383 117.738L49.32 116.249ZM46.68 115.927L46.6308 114.428L43.9908 114.514L44.04 116.014L44.0892 117.513L46.7292 117.426L46.68 115.927ZM44.04 116.014L43.9917 114.514L41.3517 114.599L41.4 116.099L41.4483 117.598L44.0883 117.513L44.04 116.014ZM41.4 116.099L42.3384 114.929L40.6758 113.595L39.7373 114.765L38.7989 115.936L40.4616 117.269L41.4 116.099ZM39.7373 114.765L41.2145 115.026L41.6814 112.383L40.2042 112.122L38.7271 111.861L38.2602 114.504L39.7373 114.765ZM40.2042 112.122L41.6817 111.863L41.2182 109.221L39.7408 109.48L38.2634 109.74L38.7268 112.382L40.2042 112.122ZM39.7408 109.48L41.2342 109.621L41.483 106.984L39.9897 106.843L38.4963 106.702L38.2474 109.34L39.7408 109.48ZM39.9897 106.843L41.4875 106.762L41.3449 104.121L39.8471 104.202L38.3493 104.283L38.4919 106.924L39.9897 106.843ZM39.8471 104.202L41.332 104.415L41.7099 101.773L40.225 101.561L38.7402 101.348L38.3622 103.99L39.8471 104.202ZM40.225 101.561L41.6998 101.287L41.2098 98.6484L39.7351 98.9223L38.2603 99.1962L38.7502 101.834L40.225 101.561ZM39.7351 98.9223L41.233 99.0005L41.3709 96.3586L39.873 96.2804L38.375 96.2022L38.2371 98.8441L39.7351 98.9223ZM39.873 96.2804L41.3725 96.3161L41.4354 93.6731L39.9359 93.6374L38.4363 93.6017L38.3734 96.2447L39.873 96.2804ZM39.9359 93.6374L41.4224 93.8378L41.777 91.207L40.2905 91.0066L38.8039 90.8062L38.4493 93.437L39.9359 93.6374ZM40.2905 91.0066L41.6239 91.6935L42.838 89.3369L41.5045 88.65L40.1711 87.963L38.957 90.3197L40.2905 91.0066ZM41.5045 88.65L42.8772 89.2548L43.94 86.8426L42.5674 86.2378L41.1947 85.633L40.1319 88.0452L41.5045 88.65ZM42.5674 86.2378L43.7923 87.1035L45.3176 84.9453L44.0927 84.0796L42.8677 83.2139L41.3424 85.3721L42.5674 86.2378ZM44.0927 84.0796L45.1104 85.1816L47.0569 83.384L46.0392 82.282L45.0215 81.1801L43.075 82.9776L44.0927 84.0796ZM46.0392 82.282L47.2483 83.1698L48.8266 81.0203L47.6175 80.1325L46.4085 79.2447L44.8301 81.3942L46.0392 82.282ZM47.6175 80.1325L48.563 81.2971L50.6194 79.6275L49.6739 78.463L48.7285 77.2985L46.6721 78.968L47.6175 80.1325ZM49.6739 78.463L50.5524 79.6789L52.695 78.131L51.8165 76.9151L50.9381 75.6992L48.7955 77.2471L49.6739 78.463ZM51.8165 76.9151L52.8075 78.0412L54.7944 76.2926L53.8035 75.1666L52.8126 74.0405L50.8256 75.789L51.8165 76.9151ZM53.8035 75.1666L54.663 76.3959L56.8325 74.879L55.9729 73.6497L55.1134 72.4204L52.944 73.9373L53.8035 75.1666ZM55.9729 73.6497L56.6022 75.0113L59.0207 73.8937L58.3914 72.532L57.7621 71.1704L55.3437 72.2881L55.9729 73.6497ZM58.3914 72.532L59.3077 73.7196L61.5313 72.0039L60.6149 70.8163L59.6986 69.6287L57.475 71.3445L58.3914 72.532ZM60.6149 70.8163L59.6587 71.972L61.7268 73.6831L62.683 72.5273L63.6392 71.3716L61.5711 69.6606L60.6149 70.8163ZM62.683 72.5273L61.9082 73.8117L64.1664 75.1739L64.9412 73.8895L65.716 72.6051L63.4578 71.2429L62.683 72.5273ZM64.9412 73.8895L64.2845 75.2381L66.6893 76.4092L67.346 75.0606L68.0027 73.712L65.5979 72.5409L64.9412 73.8895ZM67.346 75.0606L66.4437 76.2589L68.5605 77.8527L69.4627 76.6544L70.365 75.4562L68.2483 73.8623L67.346 75.0606ZM69.4627 76.6544L68.3573 77.6684L70.1633 79.6372L71.2687 78.6233L72.3741 77.6093L70.5681 75.6405L69.4627 76.6544ZM71.2687 78.6233L70.3305 79.7937L72.392 81.4461L73.3301 80.2756L74.2683 79.1052L72.2068 77.4529L71.2687 78.6233ZM73.3301 80.2756L72.2707 81.3375L74.1407 83.2033L75.2002 82.1414L76.2596 81.0795L74.3896 79.2138L73.3301 80.2756ZM75.2002 82.1414L74.0368 83.0882L75.703 85.1355L76.8664 84.1887L78.0298 83.2418L76.3636 81.1945L75.2002 82.1414ZM76.8664 84.1887L75.628 85.0351L77.1127 87.2073L78.3511 86.3609L79.5895 85.5144L78.1048 83.3423L76.8664 84.1887ZM78.3511 86.3609L77.0134 87.0395L78.1986 89.3758L79.5363 88.6972L80.874 88.0186L79.6888 85.6822L78.3511 86.3609ZM79.5363 88.6972L78.206 89.3902L79.4345 91.7482L80.7648 91.0552L82.0951 90.3621L80.8666 88.0041L79.5363 88.6972ZM80.7648 91.0552L79.2718 91.2002L79.5286 93.8443L81.0216 93.6993L82.5146 93.5543L82.2577 90.9101L80.7648 91.0552ZM81.0216 93.6993L79.5267 93.8226L79.7446 96.4643L81.2395 96.341L82.7345 96.2177L82.5165 93.576L81.0216 93.6993ZM81.2395 96.341L79.7493 96.17L79.4462 98.8116L80.9365 98.9825L82.4267 99.1535L82.7298 96.512L81.2395 96.341ZM80.9365 98.9825L79.4371 99.0252L79.5122 101.664L81.0116 101.621L82.511 101.579L82.4359 98.9399L80.9365 98.9825ZM81.0116 101.621L79.5116 101.624L79.5165 104.265L81.0165 104.262L82.5165 104.259L82.5116 101.619L81.0116 101.621ZM81.0165 104.262L79.5183 104.336L79.648 106.977L81.1462 106.903L82.6444 106.829L82.5147 104.188L81.0165 104.262ZM81.1462 106.903L79.6465 106.874L79.595 109.512L81.0947 109.541L82.5944 109.571L82.6459 106.932L81.1462 106.903ZM81.0947 109.541L79.595 109.51L79.5406 112.15L81.0403 112.181L82.5399 112.212L82.5944 109.572L81.0947 109.541ZM81.0403 112.181L79.5404 112.163L79.5091 114.809L81.009 114.826L82.5089 114.844L82.5401 112.199L81.0403 112.181ZM81.009 114.826L79.509 114.815L79.5 115.989L81 116L82.5 116.011L82.5089 114.838L81.009 114.826Z" fill="black"/>
<path d="M75 116V117.5H76.4778L76.4998 116.022L75 116ZM74.9 116V114.5H74.8677L74.8355 114.501L74.9 116ZM72.36 116.109L72.203 117.601L72.3135 117.613L72.4245 117.608L72.36 116.109ZM69.72 115.831L69.877 114.34L69.7261 114.324L69.575 114.338L69.72 115.831ZM67.08 116.088L67.1404 117.587L67.1828 117.585L67.225 117.581L67.08 116.088ZM64.44 116.194L64.3237 117.69L64.412 117.697L64.5004 117.693L64.44 116.194ZM61.8 115.989L61.9163 114.493L61.8608 114.489L61.8052 114.489L61.8 115.989ZM59.16 115.98L59.1652 114.48L59.1088 114.48L59.0526 114.484L59.16 115.98ZM56.52 116.169L56.4777 117.669L56.5527 117.671L56.6274 117.666L56.52 116.169ZM53.88 116.095L53.7037 117.585L53.7705 117.592L53.8377 117.594L53.88 116.095ZM51.24 115.783L51.4163 114.293L51.2059 114.268L50.9968 114.302L51.24 115.783ZM48.6 116.216L48.4592 117.71L48.6521 117.728L48.8432 117.697L48.6 116.216ZM45.9234 115.964L44.4266 116.062L44.5099 117.337L45.7826 117.457L45.9234 115.964ZM45.7507 113.321L44.2618 113.139L44.2448 113.279L44.2539 113.419L45.7507 113.321ZM46.0729 110.683L47.5619 110.865L47.5759 110.749L47.5721 110.634L46.0729 110.683ZM45.9863 108.043L44.4871 108.091L44.4871 108.092L45.9863 108.043ZM45.9013 105.401L47.4005 105.352L47.3998 105.33L47.3984 105.308L45.9013 105.401ZM45.7373 102.761L44.2602 102.5L44.2291 102.676L44.2402 102.854L45.7373 102.761ZM46.2042 100.121L47.6813 100.382L47.7273 100.122L47.6817 99.8618L46.2042 100.121ZM45.7408 97.4794L44.2752 97.1603L44.2124 97.4483L44.2634 97.7386L45.7408 97.4794ZM46.3106 94.8626L44.8692 94.4473L44.8555 94.495L44.8449 94.5435L46.3106 94.8626ZM47.0455 92.3119L45.8442 91.4137L45.6801 91.6332L45.6042 91.8966L47.0455 92.3119ZM48.6391 90.1805L49.8404 91.0787L49.9301 90.9588L49.9943 90.8235L48.6391 90.1805ZM49.7902 87.7543L48.7193 86.704L48.543 86.8838L48.435 87.1113L49.7902 87.7543ZM51.6534 85.8546L50.6337 84.7545L50.6075 84.7788L50.5825 84.8043L51.6534 85.8546ZM53.5961 84.0537L52.6062 82.9267L52.5911 82.94L52.5763 82.9537L53.5961 84.0537ZM55.5849 82.3069L54.8352 81.0077L54.7066 81.0819L54.595 81.1799L55.5849 82.3069ZM57.885 80.9795L58.6347 82.2787L58.7382 82.219L58.831 82.1436L57.885 80.9795ZM59.9421 79.3077L60.3982 77.8787L59.6256 77.6321L58.9961 78.1437L59.9421 79.3077ZM62.2049 80.0299L63.209 78.9156L62.9689 78.6992L62.661 78.601L62.2049 80.0299ZM64.1756 81.8056L63.1715 82.92L63.2871 83.0242L63.4217 83.1024L64.1756 81.8056ZM66.484 83.1477L67.5441 82.0865L67.4063 81.9488L67.2379 81.8509L66.484 83.1477ZM68.3566 85.0186L69.4972 84.0444L69.4587 83.9993L69.4168 83.9574L68.3566 85.0186ZM70.0706 87.0254L68.93 87.9996L68.9547 88.0284L68.9808 88.056L70.0706 87.0254ZM71.8889 88.9482L73.1498 88.1356L73.0744 88.0186L72.9788 87.9175L71.8889 88.9482ZM73.3243 91.1752L74.7636 90.7529L74.7026 90.5449L74.5851 90.3626L73.3243 91.1752ZM74.0695 93.7151L72.6301 94.1374L72.6564 94.227L72.6936 94.3126L74.0695 93.7151ZM75.1349 96.1682L76.6218 96.3654L76.6766 95.9526L76.5107 95.5706L75.1349 96.1682ZM74.7815 98.8331L73.2945 98.6359L73.2789 98.7532L73.282 98.8716L74.7815 98.8331ZM74.8493 101.473L73.3498 101.512L73.3522 101.606L73.3665 101.699L74.8493 101.473ZM75.2521 104.114L76.7521 104.119L76.7525 104.003L76.7349 103.888L75.2521 104.114ZM75.2427 106.754L76.7269 106.971L76.7423 106.866L76.7427 106.76L75.2427 106.754ZM74.8569 109.394L73.3727 109.177L73.3508 109.327L73.3593 109.479L74.8569 109.394ZM75.0056 112.036L76.5056 112.028L76.5054 111.99L76.5033 111.951L75.0056 112.036ZM75.0197 114.677L76.5196 114.699L76.5198 114.684L76.5197 114.669L75.0197 114.677ZM75 116V114.5H74.9V116V117.5H75V116ZM74.9 116L74.8355 114.501L72.2955 114.611L72.36 116.109L72.4245 117.608L74.9645 117.499L74.9 116ZM72.36 116.109L72.517 114.618L69.877 114.34L69.72 115.831L69.563 117.323L72.203 117.601L72.36 116.109ZM69.72 115.831L69.575 114.338L66.935 114.595L67.08 116.088L67.225 117.581L69.865 117.324L69.72 115.831ZM67.08 116.088L67.0196 114.589L64.3796 114.695L64.44 116.194L64.5004 117.693L67.1404 117.587L67.08 116.088ZM64.44 116.194L64.5563 114.699L61.9163 114.493L61.8 115.989L61.6837 117.484L64.3237 117.69L64.44 116.194ZM61.8 115.989L61.8052 114.489L59.1652 114.48L59.16 115.98L59.1548 117.48L61.7948 117.489L61.8 115.989ZM59.16 115.98L59.0526 114.484L56.4126 114.673L56.52 116.169L56.6274 117.666L59.2674 117.476L59.16 115.98ZM56.52 116.169L56.5623 114.67L53.9223 114.596L53.88 116.095L53.8377 117.594L56.4777 117.669L56.52 116.169ZM53.88 116.095L54.0563 114.605L51.4163 114.293L51.24 115.783L51.0637 117.272L53.7037 117.585L53.88 116.095ZM51.24 115.783L50.9968 114.302L48.3568 114.736L48.6 116.216L48.8432 117.697L51.4832 117.263L51.24 115.783ZM48.6 116.216L48.7408 114.723L46.0642 114.471L45.9234 115.964L45.7826 117.457L48.4592 117.71L48.6 116.216ZM45.9234 115.964L47.4202 115.866L47.2476 113.223L45.7507 113.321L44.2539 113.419L44.4266 116.062L45.9234 115.964ZM45.7507 113.321L47.2397 113.503L47.5619 110.865L46.0729 110.683L44.584 110.501L44.2618 113.139L45.7507 113.321ZM46.0729 110.683L47.5721 110.634L47.4855 107.994L45.9863 108.043L44.4871 108.092L44.5737 110.732L46.0729 110.683ZM45.9863 108.043L47.4856 107.995L47.4005 105.352L45.9013 105.401L44.4021 105.449L44.4871 108.091L45.9863 108.043ZM45.9013 105.401L47.3984 105.308L47.2344 102.668L45.7373 102.761L44.2402 102.854L44.4042 105.494L45.9013 105.401ZM45.7373 102.761L47.2144 103.023L47.6813 100.382L46.2042 100.121L44.7271 99.8598L44.2602 102.5L45.7373 102.761ZM46.2042 100.121L47.6817 99.8618L47.2183 97.2202L45.7408 97.4794L44.2634 97.7386L44.7268 100.38L46.2042 100.121ZM45.7408 97.4794L47.2065 97.7985L47.7762 95.1817L46.3106 94.8626L44.8449 94.5435L44.2752 97.1603L45.7408 97.4794ZM46.3106 94.8626L47.7519 95.2779L48.4869 92.7272L47.0455 92.3119L45.6042 91.8966L44.8692 94.4473L46.3106 94.8626ZM47.0455 92.3119L48.2469 93.2101L49.8404 91.0787L48.6391 90.1805L47.4377 89.2823L45.8442 91.4137L47.0455 92.3119ZM48.6391 90.1805L49.9943 90.8235L51.1454 88.3973L49.7902 87.7543L48.435 87.1113L47.2839 89.5375L48.6391 90.1805ZM49.7902 87.7543L50.8611 88.8046L52.7243 86.9049L51.6534 85.8546L50.5825 84.8043L48.7193 86.704L49.7902 87.7543ZM51.6534 85.8546L52.6732 86.9546L54.6158 85.1538L53.5961 84.0537L52.5763 82.9537L50.6337 84.7545L51.6534 85.8546ZM53.5961 84.0537L54.5859 85.1807L56.5748 83.4339L55.5849 82.3069L54.595 81.1799L52.6062 82.9267L53.5961 84.0537ZM55.5849 82.3069L56.3347 83.6061L58.6347 82.2787L57.885 80.9795L57.1352 79.6804L54.8352 81.0077L55.5849 82.3069ZM57.885 80.9795L58.831 82.1436L60.8882 80.4718L59.9421 79.3077L58.9961 78.1437L56.939 79.8155L57.885 80.9795ZM59.9421 79.3077L59.4861 80.7367L61.7488 81.4589L62.2049 80.0299L62.661 78.601L60.3982 77.8787L59.9421 79.3077ZM62.2049 80.0299L61.2008 81.1443L63.1715 82.92L64.1756 81.8056L65.1797 80.6913L63.209 78.9156L62.2049 80.0299ZM64.1756 81.8056L63.4217 83.1024L65.7301 84.4444L66.484 83.1477L67.2379 81.8509L64.9295 80.5089L64.1756 81.8056ZM66.484 83.1477L65.4238 84.2088L67.2965 86.0797L68.3566 85.0186L69.4168 83.9574L67.5441 82.0865L66.484 83.1477ZM68.3566 85.0186L67.216 85.9928L68.93 87.9996L70.0706 87.0254L71.2112 86.0512L69.4972 84.0444L68.3566 85.0186ZM70.0706 87.0254L68.9808 88.056L70.7991 89.9788L71.8889 88.9482L72.9788 87.9175L71.1605 85.9947L70.0706 87.0254ZM71.8889 88.9482L70.6281 89.7608L72.0635 91.9878L73.3243 91.1752L74.5851 90.3626L73.1498 88.1356L71.8889 88.9482ZM73.3243 91.1752L71.885 91.5975L72.6301 94.1374L74.0695 93.7151L75.5088 93.2928L74.7636 90.7529L73.3243 91.1752ZM74.0695 93.7151L72.6936 94.3126L73.759 96.7657L75.1349 96.1682L76.5107 95.5706L75.4453 93.1176L74.0695 93.7151ZM75.1349 96.1682L73.6479 95.971L73.2945 98.6359L74.7815 98.8331L76.2685 99.0302L76.6218 96.3654L75.1349 96.1682ZM74.7815 98.8331L73.282 98.8716L73.3498 101.512L74.8493 101.473L76.3488 101.435L76.281 98.7945L74.7815 98.8331ZM74.8493 101.473L73.3665 101.699L73.7692 104.34L75.2521 104.114L76.7349 103.888L76.3322 101.247L74.8493 101.473ZM75.2521 104.114L73.7521 104.108L73.7427 106.749L75.2427 106.754L76.7427 106.76L76.7521 104.119L75.2521 104.114ZM75.2427 106.754L73.7584 106.537L73.3727 109.177L74.8569 109.394L76.3412 109.611L76.7269 106.971L75.2427 106.754ZM74.8569 109.394L73.3593 109.479L73.508 112.12L75.0056 112.036L76.5033 111.951L76.3546 109.31L74.8569 109.394ZM75.0056 112.036L73.5057 112.044L73.5198 114.685L75.0197 114.677L76.5197 114.669L76.5056 112.028L75.0056 112.036ZM75.0197 114.677L73.5199 114.654L73.5002 115.978L75 116L76.4998 116.022L76.5196 114.699L75.0197 114.677Z" fill="black"/>
<path d="M31 58L31.8719 59.2206L31.4807 59.5H31V58ZM31.0814 57.9419L30.2095 56.7213L30.6451 56.4101L31.1793 56.4451L31.0814 57.9419ZM33.64 58.1093L33.797 59.6011L33.6697 59.6145L33.542 59.6061L33.64 58.1093ZM36.28 57.8314L36.8557 59.2165L36.6541 59.3003L36.437 59.3232L36.28 57.8314ZM38.0878 57.08L39.5866 57.1404L39.548 58.0975L38.6635 58.4651L38.0878 57.08ZM38.1942 54.44L39.6897 54.3237L39.6966 54.412L39.693 54.5004L38.1942 54.44ZM37.9889 51.8L36.4935 51.9163L36.4891 51.8608L36.489 51.8052L37.9889 51.8ZM37.9798 49.16L36.4798 49.1652L36.4796 49.1088L36.4837 49.0526L37.9798 49.16ZM38.1694 46.52L39.6688 46.4777L39.6709 46.5527L39.6655 46.6274L38.1694 46.52ZM38.095 43.88L39.5846 43.7037L39.5925 43.7705L39.5944 43.8377L38.095 43.88ZM37.7826 41.24L36.293 41.4163L36.2681 41.2059L36.3024 40.9968L37.7826 41.24ZM38.2164 38.6L39.7096 38.457L39.7281 38.6509L39.6965 38.8432L38.2164 38.6ZM37.96 35.9234L38.0579 34.4266L39.3315 34.5099L39.4532 35.7804L37.96 35.9234ZM35.32 35.7507L35.1383 34.2618L35.2777 34.2448L35.4179 34.2539L35.32 35.7507ZM32.68 36.0729L31.984 34.7442L32.2266 34.6171L32.4983 34.584L32.68 36.0729ZM30.9863 36.96L29.4871 36.9117L29.5153 36.0372L30.2904 35.6312L30.9863 36.96ZM30.9013 39.6L32.4005 39.6483L32.3998 39.6707L32.3984 39.693L30.9013 39.6ZM30.7373 42.24L29.2603 42.5012L29.2291 42.3253L29.2402 42.147L30.7373 42.24ZM31.2042 44.88L32.6813 44.6188L32.7273 44.879L32.6816 45.1393L31.2042 44.88ZM30.7408 47.52L29.2474 47.6608L29.2285 47.4596L29.2634 47.2607L30.7408 47.52ZM30.9897 50.16L32.4831 50.0192L32.4935 50.1299L32.4875 50.2409L30.9897 50.16ZM30.8471 52.8L29.3622 53.0126L29.3413 52.8665L29.3493 52.7191L30.8471 52.8ZM31.225 55.44L32.7099 55.2274L32.7454 55.4757L32.6983 55.722L31.225 55.44ZM30.7351 58V59.5H28.9207L29.2618 57.718L30.7351 58ZM31 58L30.1281 56.7794L30.2095 56.7213L31.0814 57.9419L31.9532 59.1625L31.8719 59.2206L31 58ZM31.0814 57.9419L31.1793 56.4451L33.738 56.6125L33.64 58.1093L33.542 59.6061L30.9834 59.4387L31.0814 57.9419ZM33.64 58.1093L33.483 56.6176L36.123 56.3397L36.28 57.8314L36.437 59.3232L33.797 59.6011L33.64 58.1093ZM36.28 57.8314L35.7043 56.4463L37.5121 55.6949L38.0878 57.08L38.6635 58.4651L36.8557 59.2165L36.28 57.8314ZM38.0878 57.08L36.589 57.0196L36.6954 54.3796L38.1942 54.44L39.693 54.5004L39.5866 57.1404L38.0878 57.08ZM38.1942 54.44L36.6987 54.5563L36.4935 51.9163L37.9889 51.8L39.4844 51.6837L39.6897 54.3237L38.1942 54.44ZM37.9889 51.8L36.489 51.8052L36.4798 49.1652L37.9798 49.16L39.4798 49.1548L39.4889 51.7948L37.9889 51.8ZM37.9798 49.16L36.4837 49.0526L36.6732 46.4126L38.1694 46.52L39.6655 46.6274L39.476 49.2674L37.9798 49.16ZM38.1694 46.52L36.67 46.5623L36.5956 43.9223L38.095 43.88L39.5944 43.8377L39.6688 46.4777L38.1694 46.52ZM38.095 43.88L36.6054 44.0563L36.293 41.4163L37.7826 41.24L39.2722 41.0637L39.5846 43.7037L38.095 43.88ZM37.7826 41.24L36.3024 40.9968L36.7362 38.3568L38.2164 38.6L39.6965 38.8432L39.2627 41.4832L37.7826 41.24ZM38.2164 38.6L36.7232 38.743L36.4668 36.0664L37.96 35.9234L39.4532 35.7804L39.7096 38.457L38.2164 38.6ZM37.96 35.9234L37.8621 37.4202L35.2221 37.2476L35.32 35.7507L35.4179 34.2539L38.0579 34.4266L37.96 35.9234ZM35.32 35.7507L35.5017 37.2397L32.8617 37.5619L32.68 36.0729L32.4983 34.584L35.1383 34.2618L35.32 35.7507ZM32.68 36.0729L33.376 37.4017L31.6823 38.2888L30.9863 36.96L30.2904 35.6312L31.984 34.7442L32.68 36.0729ZM30.9863 36.96L32.4856 37.0083L32.4005 39.6483L30.9013 39.6L29.4021 39.5517L29.4871 36.9117L30.9863 36.96ZM30.9013 39.6L32.3984 39.693L32.2344 42.333L30.7373 42.24L29.2402 42.147L29.4042 39.507L30.9013 39.6ZM30.7373 42.24L32.2144 41.9788L32.6813 44.6188L31.2042 44.88L29.7271 45.1412L29.2603 42.5012L30.7373 42.24ZM31.2042 44.88L32.6816 45.1393L32.2182 47.7793L30.7408 47.52L29.2634 47.2607L29.7268 44.6207L31.2042 44.88ZM30.7408 47.52L32.2342 47.3792L32.4831 50.0192L30.9897 50.16L29.4963 50.3008L29.2474 47.6608L30.7408 47.52ZM30.9897 50.16L32.4875 50.2409L32.3449 52.8809L30.8471 52.8L29.3493 52.7191L29.4919 50.0791L30.9897 50.16ZM30.8471 52.8L32.3319 52.5874L32.7099 55.2274L31.225 55.44L29.7402 55.6526L29.3622 53.0126L30.8471 52.8ZM31.225 55.44L32.6983 55.722L32.2083 58.282L30.7351 58L29.2618 57.718L29.7518 55.158L31.225 55.44ZM30.7351 58V56.5H31V58V59.5H30.7351V58Z" fill="black"/>
<path d="M82 58L82.8719 59.2206L82.4807 59.5H82V58ZM82.0814 57.9419L81.2095 56.7213L81.6451 56.4101L82.1793 56.4451L82.0814 57.9419ZM84.64 58.1093L84.797 59.6011L84.6697 59.6145L84.542 59.6061L84.64 58.1093ZM87.28 57.8314L87.8557 59.2165L87.6541 59.3003L87.437 59.3232L87.28 57.8314ZM89.0878 57.08L90.5866 57.1404L90.548 58.0975L89.6635 58.4651L89.0878 57.08ZM89.1942 54.44L90.6897 54.3237L90.6966 54.412L90.693 54.5004L89.1942 54.44ZM88.9889 51.8L87.4935 51.9163L87.4891 51.8608L87.489 51.8052L88.9889 51.8ZM88.9798 49.16L87.4798 49.1652L87.4796 49.1088L87.4837 49.0526L88.9798 49.16ZM89.1694 46.52L90.6688 46.4777L90.6709 46.5527L90.6655 46.6274L89.1694 46.52ZM89.095 43.88L90.5846 43.7037L90.5925 43.7705L90.5944 43.8377L89.095 43.88ZM88.7826 41.24L87.293 41.4163L87.2681 41.2059L87.3024 40.9968L88.7826 41.24ZM89.2164 38.6L90.7096 38.457L90.7281 38.6509L90.6965 38.8432L89.2164 38.6ZM88.96 35.9234L89.0579 34.4266L90.3315 34.5099L90.4532 35.7804L88.96 35.9234ZM86.32 35.7507L86.1383 34.2618L86.2777 34.2448L86.4179 34.2539L86.32 35.7507ZM83.68 36.0729L82.984 34.7442L83.2266 34.6171L83.4983 34.584L83.68 36.0729ZM81.9863 36.96L80.4871 36.9117L80.5153 36.0372L81.2904 35.6312L81.9863 36.96ZM81.9013 39.6L83.4005 39.6483L83.3998 39.6707L83.3984 39.693L81.9013 39.6ZM81.7373 42.24L80.2603 42.5012L80.2291 42.3253L80.2402 42.147L81.7373 42.24ZM82.2042 44.88L83.6813 44.6188L83.7273 44.879L83.6816 45.1393L82.2042 44.88ZM81.7408 47.52L80.2474 47.6608L80.2285 47.4596L80.2634 47.2607L81.7408 47.52ZM81.9897 50.16L83.4831 50.0192L83.4935 50.1299L83.4875 50.2409L81.9897 50.16ZM81.8471 52.8L80.3622 53.0126L80.3413 52.8665L80.3493 52.7191L81.8471 52.8ZM82.225 55.44L83.7099 55.2274L83.7454 55.4757L83.6983 55.722L82.225 55.44ZM81.7351 58V59.5H79.9207L80.2618 57.718L81.7351 58ZM82 58L81.1281 56.7794L81.2095 56.7213L82.0814 57.9419L82.9532 59.1625L82.8719 59.2206L82 58ZM82.0814 57.9419L82.1793 56.4451L84.738 56.6125L84.64 58.1093L84.542 59.6061L81.9834 59.4387L82.0814 57.9419ZM84.64 58.1093L84.483 56.6176L87.123 56.3397L87.28 57.8314L87.437 59.3232L84.797 59.6011L84.64 58.1093ZM87.28 57.8314L86.7043 56.4463L88.5121 55.6949L89.0878 57.08L89.6635 58.4651L87.8557 59.2165L87.28 57.8314ZM89.0878 57.08L87.589 57.0196L87.6954 54.3796L89.1942 54.44L90.693 54.5004L90.5866 57.1404L89.0878 57.08ZM89.1942 54.44L87.6987 54.5563L87.4935 51.9163L88.9889 51.8L90.4844 51.6837L90.6897 54.3237L89.1942 54.44ZM88.9889 51.8L87.489 51.8052L87.4798 49.1652L88.9798 49.16L90.4798 49.1548L90.4889 51.7948L88.9889 51.8ZM88.9798 49.16L87.4837 49.0526L87.6732 46.4126L89.1694 46.52L90.6655 46.6274L90.476 49.2674L88.9798 49.16ZM89.1694 46.52L87.67 46.5623L87.5956 43.9223L89.095 43.88L90.5944 43.8377L90.6688 46.4777L89.1694 46.52ZM89.095 43.88L87.6054 44.0563L87.293 41.4163L88.7826 41.24L90.2722 41.0637L90.5846 43.7037L89.095 43.88ZM88.7826 41.24L87.3024 40.9968L87.7362 38.3568L89.2164 38.6L90.6965 38.8432L90.2627 41.4832L88.7826 41.24ZM89.2164 38.6L87.7232 38.743L87.4668 36.0664L88.96 35.9234L90.4532 35.7804L90.7096 38.457L89.2164 38.6ZM88.96 35.9234L88.8621 37.4202L86.2221 37.2476L86.32 35.7507L86.4179 34.2539L89.0579 34.4266L88.96 35.9234ZM86.32 35.7507L86.5017 37.2397L83.8617 37.5619L83.68 36.0729L83.4983 34.584L86.1383 34.2618L86.32 35.7507ZM83.68 36.0729L84.376 37.4017L82.6823 38.2888L81.9863 36.96L81.2904 35.6312L82.984 34.7442L83.68 36.0729ZM81.9863 36.96L83.4856 37.0083L83.4005 39.6483L81.9013 39.6L80.4021 39.5517L80.4871 36.9117L81.9863 36.96ZM81.9013 39.6L83.3984 39.693L83.2344 42.333L81.7373 42.24L80.2402 42.147L80.4042 39.507L81.9013 39.6ZM81.7373 42.24L83.2144 41.9788L83.6813 44.6188L82.2042 44.88L80.7271 45.1412L80.2603 42.5012L81.7373 42.24ZM82.2042 44.88L83.6816 45.1393L83.2182 47.7793L81.7408 47.52L80.2634 47.2607L80.7268 44.6207L82.2042 44.88ZM81.7408 47.52L83.2342 47.3792L83.4831 50.0192L81.9897 50.16L80.4963 50.3008L80.2474 47.6608L81.7408 47.52ZM81.9897 50.16L83.4875 50.2409L83.3449 52.8809L81.8471 52.8L80.3493 52.7191L80.4919 50.0791L81.9897 50.16ZM81.8471 52.8L83.3319 52.5874L83.7099 55.2274L82.225 55.44L80.7402 55.6526L80.3622 53.0126L81.8471 52.8ZM82.225 55.44L83.6983 55.722L83.2083 58.282L81.7351 58L80.2618 57.718L80.7518 55.158L82.225 55.44ZM81.7351 58V56.5H82V58V59.5H81.7351V58Z" fill="black"/>
<path d="M31 58L31.8719 59.2206L31.4807 59.5H31V58ZM31.0814 57.9419L30.2095 56.7213L30.6451 56.4101L31.1793 56.4451L31.0814 57.9419ZM33.64 58.1093L33.797 59.6011L33.6697 59.6145L33.542 59.6061L33.64 58.1093ZM36.28 57.8314L36.8557 59.2165L36.6541 59.3003L36.437 59.3232L36.28 57.8314ZM38.0878 57.08L39.5866 57.1404L39.548 58.0975L38.6635 58.4651L38.0878 57.08ZM38.1942 54.44L39.6897 54.3237L39.6966 54.412L39.693 54.5004L38.1942 54.44ZM37.9889 51.8L36.4935 51.9163L36.4891 51.8608L36.489 51.8052L37.9889 51.8ZM37.9798 49.16L36.4798 49.1652L36.4796 49.1088L36.4837 49.0526L37.9798 49.16ZM38.1694 46.52L39.6688 46.4777L39.6709 46.5527L39.6655 46.6274L38.1694 46.52ZM38.095 43.88L39.5846 43.7037L39.5925 43.7705L39.5944 43.8377L38.095 43.88ZM37.7826 41.24L36.293 41.4163L36.2681 41.2059L36.3024 40.9968L37.7826 41.24ZM38.2164 38.6L39.7096 38.457L39.7281 38.6509L39.6965 38.8432L38.2164 38.6ZM37.96 35.9234L38.0579 34.4266L39.3315 34.5099L39.4532 35.7804L37.96 35.9234ZM35.32 35.7507L35.1383 34.2618L35.2777 34.2448L35.4179 34.2539L35.32 35.7507ZM32.68 36.0729L31.984 34.7442L32.2266 34.6171L32.4983 34.584L32.68 36.0729ZM30.9863 36.96L29.4871 36.9117L29.5153 36.0372L30.2904 35.6312L30.9863 36.96ZM30.9013 39.6L32.4005 39.6483L32.3998 39.6707L32.3984 39.693L30.9013 39.6ZM30.7373 42.24L29.2603 42.5012L29.2291 42.3253L29.2402 42.147L30.7373 42.24ZM31.2042 44.88L32.6813 44.6188L32.7273 44.879L32.6816 45.1393L31.2042 44.88ZM30.7408 47.52L29.2474 47.6608L29.2285 47.4596L29.2634 47.2607L30.7408 47.52ZM30.9897 50.16L32.4831 50.0192L32.4935 50.1299L32.4875 50.2409L30.9897 50.16ZM30.8471 52.8L29.3622 53.0126L29.3413 52.8665L29.3493 52.7191L30.8471 52.8ZM31.225 55.44L32.7099 55.2274L32.7454 55.4757L32.6983 55.722L31.225 55.44ZM30.7351 58V59.5H28.9207L29.2618 57.718L30.7351 58ZM31 58L30.1281 56.7794L30.2095 56.7213L31.0814 57.9419L31.9532 59.1625L31.8719 59.2206L31 58ZM31.0814 57.9419L31.1793 56.4451L33.738 56.6125L33.64 58.1093L33.542 59.6061L30.9834 59.4387L31.0814 57.9419ZM33.64 58.1093L33.483 56.6176L36.123 56.3397L36.28 57.8314L36.437 59.3232L33.797 59.6011L33.64 58.1093ZM36.28 57.8314L35.7043 56.4463L37.5121 55.6949L38.0878 57.08L38.6635 58.4651L36.8557 59.2165L36.28 57.8314ZM38.0878 57.08L36.589 57.0196L36.6954 54.3796L38.1942 54.44L39.693 54.5004L39.5866 57.1404L38.0878 57.08ZM38.1942 54.44L36.6987 54.5563L36.4935 51.9163L37.9889 51.8L39.4844 51.6837L39.6897 54.3237L38.1942 54.44ZM37.9889 51.8L36.489 51.8052L36.4798 49.1652L37.9798 49.16L39.4798 49.1548L39.4889 51.7948L37.9889 51.8ZM37.9798 49.16L36.4837 49.0526L36.6732 46.4126L38.1694 46.52L39.6655 46.6274L39.476 49.2674L37.9798 49.16ZM38.1694 46.52L36.67 46.5623L36.5956 43.9223L38.095 43.88L39.5944 43.8377L39.6688 46.4777L38.1694 46.52ZM38.095 43.88L36.6054 44.0563L36.293 41.4163L37.7826 41.24L39.2722 41.0637L39.5846 43.7037L38.095 43.88ZM37.7826 41.24L36.3024 40.9968L36.7362 38.3568L38.2164 38.6L39.6965 38.8432L39.2627 41.4832L37.7826 41.24ZM38.2164 38.6L36.7232 38.743L36.4668 36.0664L37.96 35.9234L39.4532 35.7804L39.7096 38.457L38.2164 38.6ZM37.96 35.9234L37.8621 37.4202L35.2221 37.2476L35.32 35.7507L35.4179 34.2539L38.0579 34.4266L37.96 35.9234ZM35.32 35.7507L35.5017 37.2397L32.8617 37.5619L32.68 36.0729L32.4983 34.584L35.1383 34.2618L35.32 35.7507ZM32.68 36.0729L33.376 37.4017L31.6823 38.2888L30.9863 36.96L30.2904 35.6312L31.984 34.7442L32.68 36.0729ZM30.9863 36.96L32.4856 37.0083L32.4005 39.6483L30.9013 39.6L29.4021 39.5517L29.4871 36.9117L30.9863 36.96ZM30.9013 39.6L32.3984 39.693L32.2344 42.333L30.7373 42.24L29.2402 42.147L29.4042 39.507L30.9013 39.6ZM30.7373 42.24L32.2144 41.9788L32.6813 44.6188L31.2042 44.88L29.7271 45.1412L29.2603 42.5012L30.7373 42.24ZM31.2042 44.88L32.6816 45.1393L32.2182 47.7793L30.7408 47.52L29.2634 47.2607L29.7268 44.6207L31.2042 44.88ZM30.7408 47.52L32.2342 47.3792L32.4831 50.0192L30.9897 50.16L29.4963 50.3008L29.2474 47.6608L30.7408 47.52ZM30.9897 50.16L32.4875 50.2409L32.3449 52.8809L30.8471 52.8L29.3493 52.7191L29.4919 50.0791L30.9897 50.16ZM30.8471 52.8L32.3319 52.5874L32.7099 55.2274L31.225 55.44L29.7402 55.6526L29.3622 53.0126L30.8471 52.8ZM31.225 55.44L32.6983 55.722L32.2083 58.282L30.7351 58L29.2618 57.718L29.7518 55.158L31.225 55.44ZM30.7351 58V56.5H31V58V59.5H30.7351V58Z" fill="black"/>
<path d="M82 58L82.8719 59.2206L82.4807 59.5H82V58ZM82.0814 57.9419L81.2095 56.7213L81.6451 56.4101L82.1793 56.4451L82.0814 57.9419ZM84.64 58.1093L84.797 59.6011L84.6697 59.6145L84.542 59.6061L84.64 58.1093ZM87.28 57.8314L87.8557 59.2165L87.6541 59.3003L87.437 59.3232L87.28 57.8314ZM89.0878 57.08L90.5866 57.1404L90.548 58.0975L89.6635 58.4651L89.0878 57.08ZM89.1942 54.44L90.6897 54.3237L90.6966 54.412L90.693 54.5004L89.1942 54.44ZM88.9889 51.8L87.4935 51.9163L87.4891 51.8608L87.489 51.8052L88.9889 51.8ZM88.9798 49.16L87.4798 49.1652L87.4796 49.1088L87.4837 49.0526L88.9798 49.16ZM89.1694 46.52L90.6688 46.4777L90.6709 46.5527L90.6655 46.6274L89.1694 46.52ZM89.095 43.88L90.5846 43.7037L90.5925 43.7705L90.5944 43.8377L89.095 43.88ZM88.7826 41.24L87.293 41.4163L87.2681 41.2059L87.3024 40.9968L88.7826 41.24ZM89.2164 38.6L90.7096 38.457L90.7281 38.6509L90.6965 38.8432L89.2164 38.6ZM88.96 35.9234L89.0579 34.4266L90.3315 34.5099L90.4532 35.7804L88.96 35.9234ZM86.32 35.7507L86.1383 34.2618L86.2777 34.2448L86.4179 34.2539L86.32 35.7507ZM83.68 36.0729L82.984 34.7442L83.2266 34.6171L83.4983 34.584L83.68 36.0729ZM81.9863 36.96L80.4871 36.9117L80.5153 36.0372L81.2904 35.6312L81.9863 36.96ZM81.9013 39.6L83.4005 39.6483L83.3998 39.6707L83.3984 39.693L81.9013 39.6ZM81.7373 42.24L80.2603 42.5012L80.2291 42.3253L80.2402 42.147L81.7373 42.24ZM82.2042 44.88L83.6813 44.6188L83.7273 44.879L83.6816 45.1393L82.2042 44.88ZM81.7408 47.52L80.2474 47.6608L80.2285 47.4596L80.2634 47.2607L81.7408 47.52ZM81.9897 50.16L83.4831 50.0192L83.4935 50.1299L83.4875 50.2409L81.9897 50.16ZM81.8471 52.8L80.3622 53.0126L80.3413 52.8665L80.3493 52.7191L81.8471 52.8ZM82.225 55.44L83.7099 55.2274L83.7454 55.4757L83.6983 55.722L82.225 55.44ZM81.7351 58V59.5H79.9207L80.2618 57.718L81.7351 58ZM82 58L81.1281 56.7794L81.2095 56.7213L82.0814 57.9419L82.9532 59.1625L82.8719 59.2206L82 58ZM82.0814 57.9419L82.1793 56.4451L84.738 56.6125L84.64 58.1093L84.542 59.6061L81.9834 59.4387L82.0814 57.9419ZM84.64 58.1093L84.483 56.6176L87.123 56.3397L87.28 57.8314L87.437 59.3232L84.797 59.6011L84.64 58.1093ZM87.28 57.8314L86.7043 56.4463L88.5121 55.6949L89.0878 57.08L89.6635 58.4651L87.8557 59.2165L87.28 57.8314ZM89.0878 57.08L87.589 57.0196L87.6954 54.3796L89.1942 54.44L90.693 54.5004L90.5866 57.1404L89.0878 57.08ZM89.1942 54.44L87.6987 54.5563L87.4935 51.9163L88.9889 51.8L90.4844 51.6837L90.6897 54.3237L89.1942 54.44ZM88.9889 51.8L87.489 51.8052L87.4798 49.1652L88.9798 49.16L90.4798 49.1548L90.4889 51.7948L88.9889 51.8ZM88.9798 49.16L87.4837 49.0526L87.6732 46.4126L89.1694 46.52L90.6655 46.6274L90.476 49.2674L88.9798 49.16ZM89.1694 46.52L87.67 46.5623L87.5956 43.9223L89.095 43.88L90.5944 43.8377L90.6688 46.4777L89.1694 46.52ZM89.095 43.88L87.6054 44.0563L87.293 41.4163L88.7826 41.24L90.2722 41.0637L90.5846 43.7037L89.095 43.88ZM88.7826 41.24L87.3024 40.9968L87.7362 38.3568L89.2164 38.6L90.6965 38.8432L90.2627 41.4832L88.7826 41.24ZM89.2164 38.6L87.7232 38.743L87.4668 36.0664L88.96 35.9234L90.4532 35.7804L90.7096 38.457L89.2164 38.6ZM88.96 35.9234L88.8621 37.4202L86.2221 37.2476L86.32 35.7507L86.4179 34.2539L89.0579 34.4266L88.96 35.9234ZM86.32 35.7507L86.5017 37.2397L83.8617 37.5619L83.68 36.0729L83.4983 34.584L86.1383 34.2618L86.32 35.7507ZM83.68 36.0729L84.376 37.4017L82.6823 38.2888L81.9863 36.96L81.2904 35.6312L82.984 34.7442L83.68 36.0729ZM81.9863 36.96L83.4856 37.0083L83.4005 39.6483L81.9013 39.6L80.4021 39.5517L80.4871 36.9117L81.9863 36.96ZM81.9013 39.6L83.3984 39.693L83.2344 42.333L81.7373 42.24L80.2402 42.147L80.4042 39.507L81.9013 39.6ZM81.7373 42.24L83.2144 41.9788L83.6813 44.6188L82.2042 44.88L80.7271 45.1412L80.2603 42.5012L81.7373 42.24ZM82.2042 44.88L83.6816 45.1393L83.2182 47.7793L81.7408 47.52L80.2634 47.2607L80.7268 44.6207L82.2042 44.88ZM81.7408 47.52L83.2342 47.3792L83.4831 50.0192L81.9897 50.16L80.4963 50.3008L80.2474 47.6608L81.7408 47.52ZM81.9897 50.16L83.4875 50.2409L83.3449 52.8809L81.8471 52.8L80.3493 52.7191L80.4919 50.0791L81.9897 50.16ZM81.8471 52.8L83.3319 52.5874L83.7099 55.2274L82.225 55.44L80.7402 55.6526L80.3622 53.0126L81.8471 52.8ZM82.225 55.44L83.6983 55.722L83.2083 58.282L81.7351 58L80.2618 57.718L80.7518 55.158L82.225 55.44ZM81.7351 58V56.5H82V58V59.5H81.7351V58Z" fill="black"/>
<path d="M31 22L31.8719 23.2206L31.4807 23.5H31V22ZM31.0814 21.9419L30.2095 20.7213L30.6451 20.4101L31.1793 20.4451L31.0814 21.9419ZM33.64 22.1093L33.797 23.6011L33.6697 23.6145L33.542 23.6061L33.64 22.1093ZM36.28 21.8314L36.8557 23.2165L36.6541 23.3003L36.437 23.3232L36.28 21.8314ZM38.0878 21.08L39.5866 21.1404L39.548 22.0975L38.6635 22.4651L38.0878 21.08ZM38.1942 18.44L39.6897 18.3237L39.6966 18.412L39.693 18.5004L38.1942 18.44ZM37.9889 15.8L39.4223 15.3578L39.4715 15.5173L39.4844 15.6837L37.9889 15.8ZM37.2308 13.343L38.068 12.0983L38.5079 12.3942L38.6642 12.9007L37.2308 13.343ZM35.0411 11.8703L34.6626 10.4188L35.317 10.2482L35.8782 10.6256L35.0411 11.8703ZM32.4514 12.5455L31.1164 11.8616L31.4227 11.2635L32.0729 11.094L32.4514 12.5455ZM31.2891 14.8143L29.8169 14.527L29.8575 14.319L29.9541 14.1304L31.2891 14.8143ZM30.7836 17.404L29.2857 17.4833L29.2759 17.2984L29.3114 17.1166L30.7836 17.404ZM30.9234 20.044L32.4213 19.9647L32.4269 20.0704L32.4176 20.1759L30.9234 20.044ZM30.7507 22V23.5H29.1125L29.2566 21.8681L30.7507 22ZM31 22L30.1281 20.7794L30.2095 20.7213L31.0814 21.9419L31.9532 23.1625L31.8719 23.2206L31 22ZM31.0814 21.9419L31.1793 20.4451L33.738 20.6125L33.64 22.1093L33.542 23.6061L30.9834 23.4387L31.0814 21.9419ZM33.64 22.1093L33.483 20.6176L36.123 20.3397L36.28 21.8314L36.437 23.3232L33.797 23.6011L33.64 22.1093ZM36.28 21.8314L35.7043 20.4463L37.5121 19.6949L38.0878 21.08L38.6635 22.4651L36.8557 23.2165L36.28 21.8314ZM38.0878 21.08L36.589 21.0196L36.6954 18.3796L38.1942 18.44L39.693 18.5004L39.5866 21.1404L38.0878 21.08ZM38.1942 18.44L36.6987 18.5563L36.4935 15.9163L37.9889 15.8L39.4844 15.6837L39.6897 18.3237L38.1942 18.44ZM37.9889 15.8L36.5556 16.2423L35.7975 13.7852L37.2308 13.343L38.6642 12.9007L39.4223 15.3578L37.9889 15.8ZM37.2308 13.343L36.3937 14.5877L34.2039 13.1149L35.0411 11.8703L35.8782 10.6256L38.068 12.0983L37.2308 13.343ZM35.0411 11.8703L35.4195 13.3217L32.8298 13.997L32.4514 12.5455L32.0729 11.094L34.6626 10.4188L35.0411 11.8703ZM32.4514 12.5455L33.7864 13.2294L32.6241 15.4982L31.2891 14.8143L29.9541 14.1304L31.1164 11.8616L32.4514 12.5455ZM31.2891 14.8143L32.7613 15.1017L32.2558 17.6913L30.7836 17.404L29.3114 17.1166L29.8169 14.527L31.2891 14.8143ZM30.7836 17.404L32.2815 17.3247L32.4213 19.9647L30.9234 20.044L29.4255 20.1233L29.2857 17.4833L30.7836 17.404ZM30.9234 20.044L32.4176 20.1759L32.2449 22.1319L30.7507 22L29.2566 21.8681L29.4292 19.9121L30.9234 20.044ZM30.7507 22V20.5H31V22V23.5H30.7507V22Z" fill="black"/>
<path d="M82 22L82.8719 23.2206L82.4807 23.5H82V22ZM82.0814 21.9419L81.2095 20.7213L81.6451 20.4101L82.1793 20.4451L82.0814 21.9419ZM84.64 22.1093L84.797 23.6011L84.6697 23.6145L84.542 23.6061L84.64 22.1093ZM87.28 21.8314L87.8557 23.2165L87.6541 23.3003L87.437 23.3232L87.28 21.8314ZM89.0878 21.08L90.5866 21.1404L90.548 22.0975L89.6635 22.4651L89.0878 21.08ZM89.1942 18.44L90.6897 18.3237L90.6966 18.412L90.693 18.5004L89.1942 18.44ZM88.9889 15.8L90.4223 15.3578L90.4715 15.5173L90.4844 15.6837L88.9889 15.8ZM88.2308 13.343L89.068 12.0983L89.5079 12.3942L89.6642 12.9007L88.2308 13.343ZM86.0411 11.8703L85.6626 10.4188L86.317 10.2482L86.8782 10.6256L86.0411 11.8703ZM83.4514 12.5455L82.1164 11.8616L82.4227 11.2635L83.0729 11.094L83.4514 12.5455ZM82.2891 14.8143L80.8169 14.527L80.8575 14.319L80.9541 14.1304L82.2891 14.8143ZM81.7836 17.404L80.2857 17.4833L80.2759 17.2984L80.3114 17.1166L81.7836 17.404ZM81.9234 20.044L83.4213 19.9647L83.4269 20.0704L83.4176 20.1759L81.9234 20.044ZM81.7507 22V23.5H80.1125L80.2566 21.8681L81.7507 22ZM82 22L81.1281 20.7794L81.2095 20.7213L82.0814 21.9419L82.9532 23.1625L82.8719 23.2206L82 22ZM82.0814 21.9419L82.1793 20.4451L84.738 20.6125L84.64 22.1093L84.542 23.6061L81.9834 23.4387L82.0814 21.9419ZM84.64 22.1093L84.483 20.6176L87.123 20.3397L87.28 21.8314L87.437 23.3232L84.797 23.6011L84.64 22.1093ZM87.28 21.8314L86.7043 20.4463L88.5121 19.6949L89.0878 21.08L89.6635 22.4651L87.8557 23.2165L87.28 21.8314ZM89.0878 21.08L87.589 21.0196L87.6954 18.3796L89.1942 18.44L90.693 18.5004L90.5866 21.1404L89.0878 21.08ZM89.1942 18.44L87.6987 18.5563L87.4935 15.9163L88.9889 15.8L90.4844 15.6837L90.6897 18.3237L89.1942 18.44ZM88.9889 15.8L87.5556 16.2423L86.7975 13.7852L88.2308 13.343L89.6642 12.9007L90.4223 15.3578L88.9889 15.8ZM88.2308 13.343L87.3937 14.5877L85.2039 13.1149L86.0411 11.8703L86.8782 10.6256L89.068 12.0983L88.2308 13.343ZM86.0411 11.8703L86.4195 13.3217L83.8298 13.997L83.4514 12.5455L83.0729 11.094L85.6626 10.4188L86.0411 11.8703ZM83.4514 12.5455L84.7864 13.2294L83.6241 15.4982L82.2891 14.8143L80.9541 14.1304L82.1164 11.8616L83.4514 12.5455ZM82.2891 14.8143L83.7613 15.1017L83.2558 17.6913L81.7836 17.404L80.3114 17.1166L80.8169 14.527L82.2891 14.8143ZM81.7836 17.404L83.2815 17.3247L83.4213 19.9647L81.9234 20.044L80.4255 20.1233L80.2857 17.4833L81.7836 17.404ZM81.9234 20.044L83.4176 20.1759L83.2449 22.1319L81.7507 22L80.2566 21.8681L80.4292 19.9121L81.9234 20.044ZM81.7507 22V20.5H82V22V23.5H81.7507V22Z" fill="black"/>
<path d="M40.9 21V19.5H40.8677L40.8355 19.5014L40.9 21ZM38.36 21.1093L38.203 22.6011L38.3135 22.6127L38.4245 22.6079L38.36 21.1093ZM35.72 20.8314L35.877 19.3397L35.7261 19.3238L35.575 19.3385L35.72 20.8314ZM33.08 21.0878L33.1404 22.5866L33.1828 22.5849L33.225 22.5808L33.08 21.0878ZM30.44 21.1942L30.4435 22.6942L30.472 22.6941L30.5004 22.693L30.44 21.1942ZM27.9889 21.2L27.9854 19.7L26.4941 19.7035L26.489 21.1948L27.9889 21.2ZM27.9798 23.84L26.4798 23.8348L26.4796 23.8912L26.4837 23.9474L27.9798 23.84ZM28.1694 26.48L29.6694 26.4762L29.6692 26.4243L29.6655 26.3726L28.1694 26.48ZM28.1761 29.102L26.6761 29.1058L26.6761 29.115L26.6762 29.1242L28.1761 29.102ZM28.2154 31.7601L26.7155 31.7823L26.7187 31.9941L26.7803 32.1968L28.2154 31.7601ZM28.9943 34.3196L27.5592 34.7563L27.6147 34.9387L27.7141 35.1014L28.9943 34.3196ZM29.9736 35.9234L28.6935 36.7052L29.1663 37.4794L30.0715 37.4202L29.9736 35.9234ZM32.6136 35.7507L32.7953 34.2618L32.6559 34.2448L32.5157 34.2539L32.6136 35.7507ZM35.2536 36.0729L35.0719 37.5619L35.187 37.5759L35.3028 37.5721L35.2536 36.0729ZM37.8936 35.9863L37.9428 37.4855L38.1054 37.4802L38.2631 37.4401L37.8936 35.9863ZM39.9727 35.458L40.3421 36.9118L41.3926 36.6449L41.469 35.5637L39.9727 35.458ZM40.1591 32.8195L38.7295 32.3653L38.6754 32.5356L38.6628 32.7138L40.1591 32.8195ZM40.9708 30.2644L42.4004 30.7185L42.4911 30.4331L42.4652 30.1347L40.9708 30.2644ZM40.7408 27.6127L39.2474 27.472L39.2347 27.6071L39.2464 27.7424L40.7408 27.6127ZM40.9897 24.9727L42.4831 25.1135L42.4935 25.0029L42.4875 24.8918L40.9897 24.9727ZM40.8471 22.3327L39.404 21.9235L39.3358 22.164L39.3493 22.4137L40.8471 22.3327ZM41.225 21L42.6681 21.4092L43.2096 19.5H41.225V21ZM41 21V19.5H40.9V21V22.5H41V21ZM40.9 21L40.8355 19.5014L38.2955 19.6107L38.36 21.1093L38.4245 22.6079L40.9645 22.4986L40.9 21ZM38.36 21.1093L38.517 19.6176L35.877 19.3397L35.72 20.8314L35.563 22.3232L38.203 22.6011L38.36 21.1093ZM35.72 20.8314L35.575 19.3385L32.935 19.5948L33.08 21.0878L33.225 22.5808L35.865 22.3244L35.72 20.8314ZM33.08 21.0878L33.0196 19.589L30.3796 19.6954L30.44 21.1942L30.5004 22.693L33.1404 22.5866L33.08 21.0878ZM30.44 21.1942L30.4365 19.6942L27.9854 19.7L27.9889 21.2L27.9925 22.7L30.4435 22.6942L30.44 21.1942ZM27.9889 21.2L26.489 21.1948L26.4798 23.8348L27.9798 23.84L29.4798 23.8452L29.4889 21.2052L27.9889 21.2ZM27.9798 23.84L26.4837 23.9474L26.6732 26.5874L28.1694 26.48L29.6655 26.3726L29.476 23.7326L27.9798 23.84ZM28.1694 26.48L26.6694 26.4838L26.6761 29.1058L28.1761 29.102L29.6761 29.0982L29.6694 26.4762L28.1694 26.48ZM28.1761 29.102L26.6762 29.1242L26.7155 31.7823L28.2154 31.7601L29.7152 31.738L29.6759 29.0798L28.1761 29.102ZM28.2154 31.7601L26.7803 32.1968L27.5592 34.7563L28.9943 34.3196L30.4293 33.8829L29.6504 31.3234L28.2154 31.7601ZM28.9943 34.3196L27.7141 35.1014L28.6935 36.7052L29.9736 35.9234L31.2538 35.1416L30.2744 33.5379L28.9943 34.3196ZM29.9736 35.9234L30.0715 37.4202L32.7115 37.2476L32.6136 35.7507L32.5157 34.2539L29.8757 34.4266L29.9736 35.9234ZM32.6136 35.7507L32.4319 37.2397L35.0719 37.5619L35.2536 36.0729L35.4353 34.584L32.7953 34.2618L32.6136 35.7507ZM35.2536 36.0729L35.3028 37.5721L37.9428 37.4855L37.8936 35.9863L37.8444 34.4871L35.2045 34.5737L35.2536 36.0729ZM37.8936 35.9863L38.2631 37.4401L40.3421 36.9118L39.9727 35.458L39.6032 34.0042L37.5242 34.5325L37.8936 35.9863ZM39.9727 35.458L41.469 35.5637L41.6553 32.9252L40.1591 32.8195L38.6628 32.7138L38.4764 35.3523L39.9727 35.458ZM40.1591 32.8195L41.5887 33.2737L42.4004 30.7185L40.9708 30.2644L39.5412 29.8102L38.7295 32.3653L40.1591 32.8195ZM40.9708 30.2644L42.4652 30.1347L42.2352 27.4831L40.7408 27.6127L39.2464 27.7424L39.4764 30.394L40.9708 30.2644ZM40.7408 27.6127L42.2342 27.7535L42.4831 25.1135L40.9897 24.9727L39.4963 24.832L39.2474 27.472L40.7408 27.6127ZM40.9897 24.9727L42.4875 24.8918L42.3449 22.2518L40.8471 22.3327L39.3493 22.4137L39.4919 25.0537L40.9897 24.9727ZM40.8471 22.3327L42.2902 22.742L42.6681 21.4092L41.225 21L39.7819 20.5908L39.404 21.9235L40.8471 22.3327ZM41.225 21V19.5H41V21V22.5H41.225V21Z" fill="black"/>
<path d="M91.9 21V19.5H91.8677L91.8355 19.5014L91.9 21ZM89.36 21.1093L89.203 22.6011L89.3135 22.6127L89.4245 22.6079L89.36 21.1093ZM86.72 20.8314L86.877 19.3397L86.7261 19.3238L86.575 19.3385L86.72 20.8314ZM84.08 21.0878L84.1404 22.5866L84.1828 22.5849L84.225 22.5808L84.08 21.0878ZM81.44 21.1942L81.4435 22.6942L81.472 22.6941L81.5004 22.693L81.44 21.1942ZM78.9889 21.2L78.9854 19.7L77.4941 19.7035L77.489 21.1948L78.9889 21.2ZM78.9798 23.84L77.4798 23.8348L77.4796 23.8912L77.4837 23.9474L78.9798 23.84ZM79.1694 26.48L80.6694 26.4762L80.6692 26.4243L80.6655 26.3726L79.1694 26.48ZM79.1761 29.102L77.6761 29.1058L77.6761 29.115L77.6762 29.1242L79.1761 29.102ZM79.2154 31.7601L77.7155 31.7823L77.7187 31.9941L77.7803 32.1968L79.2154 31.7601ZM79.9943 34.3196L78.5592 34.7563L78.6147 34.9387L78.7141 35.1014L79.9943 34.3196ZM80.9736 35.9234L79.6935 36.7052L80.1663 37.4794L81.0715 37.4202L80.9736 35.9234ZM83.6136 35.7507L83.7953 34.2618L83.6559 34.2448L83.5157 34.2539L83.6136 35.7507ZM86.2536 36.0729L86.0719 37.5619L86.187 37.5759L86.3028 37.5721L86.2536 36.0729ZM88.8936 35.9863L88.9428 37.4855L89.1054 37.4802L89.2631 37.4401L88.8936 35.9863ZM90.9727 35.458L91.3421 36.9118L92.3926 36.6449L92.469 35.5637L90.9727 35.458ZM91.1591 32.8195L89.7295 32.3653L89.6754 32.5356L89.6628 32.7138L91.1591 32.8195ZM91.9708 30.2644L93.4004 30.7185L93.4911 30.4331L93.4652 30.1347L91.9708 30.2644ZM91.7408 27.6127L90.2474 27.472L90.2347 27.6071L90.2464 27.7424L91.7408 27.6127ZM91.9897 24.9727L93.4831 25.1135L93.4935 25.0029L93.4875 24.8918L91.9897 24.9727ZM91.8471 22.3327L90.404 21.9235L90.3358 22.164L90.3493 22.4137L91.8471 22.3327ZM92.225 21L93.6681 21.4092L94.2096 19.5H92.225V21ZM92 21V19.5H91.9V21V22.5H92V21ZM91.9 21L91.8355 19.5014L89.2955 19.6107L89.36 21.1093L89.4245 22.6079L91.9645 22.4986L91.9 21ZM89.36 21.1093L89.517 19.6176L86.877 19.3397L86.72 20.8314L86.563 22.3232L89.203 22.6011L89.36 21.1093ZM86.72 20.8314L86.575 19.3385L83.935 19.5948L84.08 21.0878L84.225 22.5808L86.865 22.3244L86.72 20.8314ZM84.08 21.0878L84.0196 19.589L81.3796 19.6954L81.44 21.1942L81.5004 22.693L84.1404 22.5866L84.08 21.0878ZM81.44 21.1942L81.4365 19.6942L78.9854 19.7L78.9889 21.2L78.9925 22.7L81.4435 22.6942L81.44 21.1942ZM78.9889 21.2L77.489 21.1948L77.4798 23.8348L78.9798 23.84L80.4798 23.8452L80.4889 21.2052L78.9889 21.2ZM78.9798 23.84L77.4837 23.9474L77.6732 26.5874L79.1694 26.48L80.6655 26.3726L80.476 23.7326L78.9798 23.84ZM79.1694 26.48L77.6694 26.4838L77.6761 29.1058L79.1761 29.102L80.6761 29.0982L80.6694 26.4762L79.1694 26.48ZM79.1761 29.102L77.6762 29.1242L77.7155 31.7823L79.2154 31.7601L80.7152 31.738L80.6759 29.0798L79.1761 29.102ZM79.2154 31.7601L77.7803 32.1968L78.5592 34.7563L79.9943 34.3196L81.4293 33.8829L80.6504 31.3234L79.2154 31.7601ZM79.9943 34.3196L78.7141 35.1014L79.6935 36.7052L80.9736 35.9234L82.2538 35.1416L81.2744 33.5379L79.9943 34.3196ZM80.9736 35.9234L81.0715 37.4202L83.7115 37.2476L83.6136 35.7507L83.5157 34.2539L80.8757 34.4266L80.9736 35.9234ZM83.6136 35.7507L83.4319 37.2397L86.0719 37.5619L86.2536 36.0729L86.4353 34.584L83.7953 34.2618L83.6136 35.7507ZM86.2536 36.0729L86.3028 37.5721L88.9428 37.4855L88.8936 35.9863L88.8444 34.4871L86.2045 34.5737L86.2536 36.0729ZM88.8936 35.9863L89.2631 37.4401L91.3421 36.9118L90.9727 35.458L90.6032 34.0042L88.5242 34.5325L88.8936 35.9863ZM90.9727 35.458L92.469 35.5637L92.6553 32.9252L91.1591 32.8195L89.6628 32.7138L89.4764 35.3523L90.9727 35.458ZM91.1591 32.8195L92.5887 33.2737L93.4004 30.7185L91.9708 30.2644L90.5412 29.8102L89.7295 32.3653L91.1591 32.8195ZM91.9708 30.2644L93.4652 30.1347L93.2352 27.4831L91.7408 27.6127L90.2464 27.7424L90.4764 30.394L91.9708 30.2644ZM91.7408 27.6127L93.2342 27.7535L93.4831 25.1135L91.9897 24.9727L90.4963 24.832L90.2474 27.472L91.7408 27.6127ZM91.9897 24.9727L93.4875 24.8918L93.3449 22.2518L91.8471 22.3327L90.3493 22.4137L90.4919 25.0537L91.9897 24.9727ZM91.8471 22.3327L93.2902 22.742L93.6681 21.4092L92.225 21L90.7819 20.5908L90.404 21.9235L91.8471 22.3327ZM92.225 21V19.5H92V21V22.5H92.225V21Z" fill="black"/>
<path d="M54.9 95L53.5643 95.6826L53.982 96.5H54.9V95ZM53.7905 92.8288L55.1262 92.1462L54.8726 91.6499L54.3564 91.4397L53.7905 92.8288ZM51.3614 91.8392L51.9273 90.4501L51.4737 90.2653L50.9985 90.3838L51.3614 91.8392ZM48.7975 92.4785L48.4346 91.023L47.9522 91.1433L47.6371 91.5279L48.7975 92.4785ZM47.2685 94.3447L46.1082 93.3941L45.9657 93.568L45.8805 93.776L47.2685 94.3447ZM55 95V93.5H54.9V95V96.5H55V95ZM54.9 95L56.2357 94.3174L55.1262 92.1462L53.7905 92.8288L52.4548 93.5114L53.5643 95.6826L54.9 95ZM53.7905 92.8288L54.3564 91.4397L51.9273 90.4501L51.3614 91.8392L50.7954 93.2284L53.2246 94.218L53.7905 92.8288ZM51.3614 91.8392L50.9985 90.3838L48.4346 91.023L48.7975 92.4785L49.1603 93.9339L51.7242 93.2947L51.3614 91.8392ZM48.7975 92.4785L47.6371 91.5279L46.1082 93.3941L47.2685 94.3447L48.4288 95.2953L49.9578 93.4291L48.7975 92.4785ZM47.2685 94.3447L45.8805 93.776L45.612 94.4313L47 95L48.388 95.5687L48.6565 94.9135L47.2685 94.3447Z" fill="black"/>
<path d="M64.9345 95.9245L63.4461 96.1109L63.5027 96.5631L63.8014 96.9074L64.9345 95.9245ZM64.6185 93.4017L66.1069 93.2153L66.0966 93.1331L66.0773 93.0525L64.6185 93.4017ZM64.0001 90.8186L65.4589 90.4694L65.3647 90.0758L65.0852 89.783L64.0001 90.8186ZM62.1737 88.9052L63.2588 87.8695L62.9831 87.5807L62.6004 87.4672L62.1737 88.9052ZM59.7999 88.2009L60.2266 86.7629L59.7372 86.6177L59.2609 86.8011L59.7999 88.2009ZM57.4429 89.1086L56.9039 87.7088L56.473 87.8748L56.2101 88.2542L57.4429 89.1086ZM55.9447 91.2704L54.7119 90.416L54.5473 90.6535L54.4827 90.9352L55.9447 91.2704ZM55.3588 93.8262L53.8967 93.4911L53.8792 93.5676L53.8697 93.6455L55.3588 93.8262ZM55.095 96V97.5H56.4239L56.584 96.1807L55.095 96ZM65 96L66.1331 95.0171L66.0676 94.9416L64.9345 95.9245L63.8014 96.9074L63.8669 96.9829L65 96ZM64.9345 95.9245L66.4228 95.7381L66.1069 93.2153L64.6185 93.4017L63.1302 93.5881L63.4461 96.1109L64.9345 95.9245ZM64.6185 93.4017L66.0773 93.0525L65.4589 90.4694L64.0001 90.8186L62.5414 91.1679L63.1598 93.751L64.6185 93.4017ZM64.0001 90.8186L65.0852 89.783L63.2588 87.8695L62.1737 88.9052L61.0887 89.9409L62.9151 91.8543L64.0001 90.8186ZM62.1737 88.9052L62.6004 87.4672L60.2266 86.7629L59.7999 88.2009L59.3733 89.6389L61.7471 90.3432L62.1737 88.9052ZM59.7999 88.2009L59.2609 86.8011L56.9039 87.7088L57.4429 89.1086L57.982 90.5084L60.339 89.6007L59.7999 88.2009ZM57.4429 89.1086L56.2101 88.2542L54.7119 90.416L55.9447 91.2704L57.1776 92.1248L58.6758 89.963L57.4429 89.1086ZM55.9447 91.2704L54.4827 90.9352L53.8967 93.4911L55.3588 93.8262L56.8209 94.1614L57.4068 91.6056L55.9447 91.2704ZM55.3588 93.8262L53.8697 93.6455L53.6059 95.8193L55.095 96L56.584 96.1807L56.8479 94.007L55.3588 93.8262ZM55.095 96V94.5H55V96V97.5H55.095V96Z" fill="black"/>
<path d="M73.9 95L72.5643 95.6826L72.982 96.5H73.9V95ZM72.7905 92.8288L74.1262 92.1462L73.8726 91.6499L73.3564 91.4397L72.7905 92.8288ZM70.3614 91.8392L70.9273 90.4501L70.4737 90.2653L69.9985 90.3838L70.3614 91.8392ZM67.7975 92.4785L67.4346 91.023L66.9522 91.1433L66.6371 91.5279L67.7975 92.4785ZM66.2685 94.3447L65.1082 93.3941L64.9657 93.568L64.8805 93.776L66.2685 94.3447ZM74 95V93.5H73.9V95V96.5H74V95ZM73.9 95L75.2357 94.3174L74.1262 92.1462L72.7905 92.8288L71.4548 93.5114L72.5643 95.6826L73.9 95ZM72.7905 92.8288L73.3564 91.4397L70.9273 90.4501L70.3614 91.8392L69.7954 93.2284L72.2246 94.218L72.7905 92.8288ZM70.3614 91.8392L69.9985 90.3838L67.4346 91.023L67.7975 92.4785L68.1603 93.9339L70.7242 93.2947L70.3614 91.8392ZM67.7975 92.4785L66.6371 91.5279L65.1082 93.3941L66.2685 94.3447L67.4288 95.2953L68.9578 93.4291L67.7975 92.4785ZM66.2685 94.3447L64.8805 93.776L64.612 94.4313L66 95L67.388 95.5687L67.6565 94.9135L66.2685 94.3447Z" fill="black"/>
<path d="M32.1 42.5V44H32.1356L32.1712 43.9983L32.1 42.5ZM34.4 42.3907L34.5725 40.9006L34.451 40.8866L34.3288 40.8924L34.4 42.3907ZM36.8 42.6686L36.6275 44.1586L36.8723 44.187L37.1134 44.1355L36.8 42.6686ZM38 42.4122H39.5V40.5579L37.6866 40.9453L38 42.4122ZM32 42.5V44H32.1V42.5V41H32V42.5ZM32.1 42.5L32.1712 43.9983L34.4712 43.889L34.4 42.3907L34.3288 40.8924L32.0288 41.0017L32.1 42.5ZM34.4 42.3907L34.2275 43.8807L36.6275 44.1586L36.8 42.6686L36.9725 41.1785L34.5725 40.9006L34.4 42.3907ZM36.8 42.6686L37.1134 44.1355L38.3134 43.8791L38 42.4122L37.6866 40.9453L36.4866 41.2017L36.8 42.6686ZM38 42.4122H36.5V42.5H38H39.5V42.4122H38Z" fill="black"/>
<path d="M82.1 42.5V44H82.1356L82.1712 43.9983L82.1 42.5ZM84.4 42.3907L84.5725 40.9006L84.451 40.8866L84.3288 40.8924L84.4 42.3907ZM86.8 42.6686L86.6275 44.1586L86.8723 44.187L87.1134 44.1355L86.8 42.6686ZM88 42.4122H89.5V40.5579L87.6866 40.9453L88 42.4122ZM82 42.5V44H82.1V42.5V41H82V42.5ZM82.1 42.5L82.1712 43.9983L84.4712 43.889L84.4 42.3907L84.3288 40.8924L82.0288 41.0017L82.1 42.5ZM84.4 42.3907L84.2275 43.8807L86.6275 44.1586L86.8 42.6686L86.9725 41.1785L84.5725 40.9006L84.4 42.3907ZM86.8 42.6686L87.1134 44.1355L88.3134 43.8791L88 42.4122L87.6866 40.9453L86.4866 41.2017L86.8 42.6686ZM88 42.4122H86.5V42.5H88H89.5V42.4122H88Z" fill="black"/>
</svg>
