<svg width="120" height="120" viewBox="0 0 120 120" fill="none" xmlns="http://www.w3.org/2000/svg">
<path d="M57.3887 3.96387L60.2129 4.10449L60.752 4.12793L61.1504 4.47949L63.3418 6.45996L63.4238 6.53027L63.4941 6.62402L65.416 8.95605L65.5098 9.06152L65.5801 9.20215L66.998 11.8623L67.0449 11.9443L67.0801 12.0264L68.1699 14.8506L68.2051 14.9443L68.2285 15.0498L68.8965 17.9912L68.9199 18.085L69.3887 21.0615L69.4121 21.2256L69.4004 21.4014L69.2012 24.3428L69.3184 27.2373V27.2607L69.4238 30.2725V30.4717L69.377 30.6592L69.3379 30.8271L69.4414 30.5664L70.1094 27.8828V27.8594L70.1211 27.8242L70.9648 24.9531L71.5977 22.1172L72.2305 19.1992V19.1758L72.2422 19.1523L72.5566 17.8535L70.1758 17.5547L72.3906 15.375L73.9141 13.8867L74.3828 13.418L75.0508 13.4531L78.0742 13.6289L78.5898 13.6523L78.9766 13.9922L79.9844 14.8711L78.9766 16.125L79.3867 17.3672L76.8086 18.2227L76.4922 18.3281L76.1523 18.293L75.5498 18.2197L75.1484 19.8086L75.1602 19.8203L74.5273 22.7617V22.7734L73.8711 25.7031L73.8477 25.7969L73.7227 26.2188L74.6523 24.9854L74.6758 24.9502L74.6992 24.9268L76.6211 22.6182L76.6797 22.5361L76.75 22.4775L78.9414 20.415L79.0352 20.3213L79.1523 20.251L81.6719 18.6104L83.9219 16.8408L84.0625 16.7354L84.2148 16.6533L86.9336 15.376L87.5078 15.1064L88.1055 15.3291L90.8008 16.3486L91.4688 16.5947L91.7031 17.2744L92.6641 20.1455L92.7344 20.3682V20.6025L92.793 23.6143V23.6729L92.7344 26.6729L92.7109 26.8604L92.2773 29.8252V29.8486L92.2656 29.8838L91.7148 32.8252L91.7031 32.8838L91.6797 32.9424L90.8828 35.8604L90.8242 36.0479L90.7305 36.2119L89.9736 37.5068L91.8086 36.9141L91.9023 36.8789L91.9961 36.8672L94.9609 36.3281L95.125 36.293L95.3008 36.3047L98.3594 36.457L99.4961 36.5156L99.7422 37.6289L100.305 40.1836L100.387 40.582L100.27 40.957L99.3555 43.8047L99.2852 44.0039L99.168 44.1914L97.4922 46.6758L97.4805 46.6875L95.7812 49.1602L95.6758 49.3125L95.5352 49.4414L93.3086 51.3633L91.3516 53.5078L91.3047 53.5664L91.2461 53.6016L89.0195 55.6289L88.8789 55.7578L88.7148 55.8516L86.0312 57.2578L83.5586 58.7695L83.418 58.8398L80.7109 60.1172L80.6641 60.1289L80.6172 60.1523L77.8398 61.2422L77.7812 61.2656L77.7109 61.2891L74.8516 62.1328L72.0273 63.0469L71.9688 63.0586L71.8984 63.082L68.9688 63.7148L68.9805 63.7266L66.4492 64.3125L64.7031 65.8594L63.4023 68.0742L62.7461 70.8047L62.3242 73.6523L62.1719 76.5117L62.2773 79.3828V79.5L62.2656 79.6172L61.8906 82.5117L61.8555 85.4414L62.0195 88.3477V88.3711L62.0684 89.749L62.7871 88.293L62.8105 88.2578L62.8223 88.2227L64.2871 85.6211L64.3105 85.5742L64.334 85.5391L65.9512 83.0195L67.4395 80.4883L67.4746 80.418L67.5215 80.3594L69.291 77.9336L69.3496 77.8516L69.4082 77.793L71.459 75.6016L73.498 73.3984L73.5449 73.3633L73.5801 73.3164L75.7949 71.2891L77.834 69.2031L77.9277 69.1094L80.2129 67.1641L80.248 67.1289L82.5918 65.2656L84.9121 63.3789L85.0176 63.2852L85.1465 63.2148L87.7949 61.7852L90.1387 60.25L92.5645 58.4805L92.6113 58.457L95.1074 56.7695L95.3301 56.6172L95.5996 56.5586L98.2275 55.9287L99.7637 54.4355L100.443 55.1504L100.865 55.4199L102.107 56.2637L102.049 56.3457L101.967 56.4746L101.861 56.5801L99.9512 58.4316L99.0254 60.7871L98.9785 60.9043L98.9082 61.0215L97.3262 63.5762L97.2793 63.6465L95.5684 66.1074L95.4746 66.2246L93.5879 68.4043L92.1113 70.877L92.0879 70.9238L92.0527 70.959L90.3535 73.4316L90.3418 73.4434V73.4551L88.6309 75.8223L88.6426 75.834L87.0137 78.3652L86.9785 78.4238L86.9199 78.4824L85.0801 80.7676L83.3223 83.2051L83.3105 83.2285L83.2988 83.2402L81.459 85.6191L79.8652 87.9629L78.3066 90.5293L78.2598 90.5996L78.2246 90.6465L74.6152 95.4512L74.6035 95.4629L74.5918 95.4863L72.7402 97.8066L70.9238 100.197L70.8535 100.303L70.7598 100.385L68.6504 102.354L67.0684 104.604L67.0801 104.615L65.5098 107.182L65.334 107.475L65.0645 107.65L62.3574 109.455L62.1904 109.486L60.8535 112.094L60.8418 112.117L60.8301 112.129L59.3535 114.812L58.9902 115.469L58.2285 115.574L55.5215 115.914L54.9707 116.043L54.8398 115.481L54.6934 116.026L54.4941 115.968L52.8652 115.534L53.4863 113.976L53.9551 112.757L54.4941 110.003L54.5762 107.565L53.9727 106.585L53.8984 106.493L53.9072 106.479L53.2637 105.433L53.2285 105.374L53.1934 105.304L51.8926 102.655L50.3105 100.253V100.241L48.6699 97.7217L48.6582 97.71L48.6465 97.6865L47.1465 95.1787L45.4707 92.6943L45.4473 92.6709L43.8887 90.2451L41.9785 88.0186H41.9668L40.0801 85.7803L38.0527 83.6123L35.8613 81.7373L35.791 81.6787L35.7324 81.6084L33.7871 79.4521L31.5957 77.7061L29.1348 76.1709L29.041 76.124L28.959 76.0537L27.002 74.4131L24.5527 73.6396L24.3652 73.5811L24.2012 73.4756L24.1191 73.4287L24.9277 72.1631L25.127 71.8584L25.4668 70.792L28.209 71.6709L28.4785 71.7529L28.5098 71.7793L28.6445 71.7637L30.8828 71.5059L31.1992 71.459L31.4922 71.5527L34.375 72.4316L34.4102 72.4434L34.457 72.4668L37.2695 73.498L37.375 73.5449L37.4688 73.5918L40.0938 75.0449L42.707 76.498L42.8008 76.5566L42.8945 76.627L45.25 78.4668L45.3438 78.5371L47.5586 80.541L47.5703 80.5527L47.5938 80.5645L49.7734 82.6504L49.9258 82.8027L50.0312 82.9785L51.5195 85.5566L53.1016 88.0996L54.6836 90.6543L54.7539 90.7715L55.2363 91.7461L55.293 90.3213V90.251L55.3047 90.1807L55.6797 87.4502L55.1875 84.6611L55.1523 84.4502L55.1758 84.2393L55.4805 81.2275L55.3984 78.5205L55.1289 75.5205V75.5088L54.7188 72.626H54.707L54.1328 69.9658L53.1016 67.2354L53.0781 67.1768L53.0664 67.1182L52.3984 64.7861L50.5469 63.7783L47.8516 63.3682V63.3564L44.9102 63.0166L44.7461 62.9932L44.5938 62.9346L41.8281 61.9619L38.9922 61.3174L38.8984 61.2939L38.8164 61.2588L35.9805 60.2275L35.8047 60.1572L35.6406 60.0518L33.2383 58.376L30.6719 56.8408L30.6016 56.7939L30.543 56.7471L28.1523 54.9424L28.1172 54.9189L28.082 54.8838L25.8086 52.9502L25.7148 52.8564L23.6406 50.7471L21.5078 48.6377L21.4375 48.5674L21.3789 48.4971L19.5273 46.1182L19.457 46.0361L19.4102 45.9424L17.9219 43.3291L17.8633 43.2236L17.8281 43.1064L16.7734 40.3174L16.4219 39.3799L17.1602 38.7002L18.9062 37.0713L19.3398 36.6611H19.9375L22.9023 36.6846H23.0312L23.1719 36.7197L26.1133 37.2939L26.207 37.3174L27.9814 37.7773L26.7988 35.3994L26.7871 35.376L26.7754 35.3408L25.5566 32.6104L25.498 32.4932L25.4629 32.3643L24.7363 29.4346L24.7012 29.3057V29.1533L24.5371 26.1533V26.0713L24.5488 23.0713V22.9307L24.5723 22.8018L25.123 19.8604L25.1465 19.79L25.1582 19.7197L25.9785 16.9189L26.2598 15.9346L27.291 15.8408L29.9746 15.6182L30.3848 15.5713L30.7598 15.7588L33.4434 17.0596L33.5371 17.1064L36.1504 18.6182L36.3262 18.7236L36.4668 18.8643L38.541 20.9854L40.709 23.0479L42.877 25.1338L42.9121 25.1689L42.9473 25.1924L44.0078 26.3477L43.8223 25.7588V25.7471L42.8145 22.9932L42.8027 22.958L42.791 22.9111L42.126 20.6699L41.2305 20.0039L39.1914 18.4688L38.0781 17.6484L38.8164 16.4766L40.2812 14.1445L41.0664 12.9023L42.3203 13.6523L44.0547 14.6836L45.0391 13.6758L45.2852 15.3984L45.5898 15.5859L45.5312 16.5L45.4961 17.0977L44.3594 17.1396L44.3955 17.3047L45.0625 17.9531L44.6338 18.3887L44.8066 19.1729L45.6387 21.9736L46.6582 24.7979L46.6699 24.8213L46.6816 24.8564L47.584 27.7158L47.6543 27.9268V30.7627L48.5527 32.2383L48.248 30.542L48.2363 30.4951V30.46L47.873 27.4717L47.8613 27.3779V27.2725L47.8965 24.2725V24.1436L47.9199 24.0264L48.4355 21.0615L48.6465 18.2139V18.085L48.6816 17.9561L49.4199 15.0381L49.4434 14.9443L49.4785 14.8623L50.5801 12.0615L50.6035 12.0029L50.627 11.9561L51.9512 9.2373L52.0215 9.09668L52.127 8.95605L54.0137 6.6123L54.1309 6.47168L56.2637 4.39746L56.7324 3.94043L57.3887 3.96387ZM92.5703 39.8086L89.875 40.6875L89.8281 40.7109L89.7695 40.7227L87.2148 41.3438L84.6016 42.5859L84.5195 42.6328L84.4258 42.6562L81.7891 43.5117L79.5977 45.2109L79.4688 45.3164L79.3164 45.3867L76.5859 46.6641L76.5742 46.6523L74.0312 47.9297L73.8438 48.0234L73.6328 48.0703L72.9424 48.1885L72.4238 48.9697L72.3184 49.1221L72.1777 49.2393L69.9512 51.2432L67.9004 53.3174L67.8535 53.3643L67.8066 53.3994L65.5215 55.3447L63.8975 56.9404L65.4492 56.3691L68.1914 55.1621L68.2969 55.1152L68.4023 55.0801L71.1797 54.2949L73.7227 53.1816L76.2305 51.7285L78.75 50.0996H78.7617L81.1875 48.541L81.2227 48.5176L81.2578 48.5059L81.3516 48.4473L82.0781 49.7598L82.8164 51.0723L82.7578 51.0957L80.3789 52.6074L77.8711 54.248L77.8359 54.2715L77.8008 54.2832L75.2109 55.7949L75.1406 55.8418L75.0586 55.877L72.3047 57.084L72.2109 57.1309L72.1055 57.1543L69.2461 57.9512L66.668 59.123L66.6211 59.1465L66.5742 59.1582L63.7617 60.2012L63.457 60.3066L63.1406 60.2832L60.1758 60.084L59.6953 60.0488L59.332 59.7441L58.8398 59.3457L59.1035 59.0225L58.748 58.4443L58.7324 58.4512L58.6582 58.4766L58.3008 59.9082L57.4922 59.709L54.9961 60.0371L54.668 60.084L54.3633 59.9902L51.4922 59.1348V59.123L48.6328 58.4199L48.4805 58.3848L48.3516 58.3145L45.7031 57.0371L40.1719 54.7402L40.0781 54.6934L37.3828 53.3574L37.2773 53.3105L37.1836 53.2402L34.8047 51.5762L35.25 50.9434L35.5781 50.2988L36.2578 48.9629L36.4453 49.0566L36.5273 49.1152L38.7891 50.709L41.3203 51.9629L44.0977 53.123H44.0859L46.8516 54.2715L46.8984 54.2832L46.9336 54.3066L49.5117 55.5371L52.2773 56.2402H52.3125L52.3477 56.252L53.1016 56.4775L51.6133 55.0459L51.5898 55.0107L51.5664 54.9873L49.5391 52.8428L47.3242 51.0029L47.2891 50.9678L45.0625 48.9521L44.9219 48.8232L44.8164 48.6709L44.2607 47.8408L44.1133 48.1455L44.0195 48.0986H44.0078L41.5586 47.0791L41.4766 47.0439L41.3945 46.9971L38.8047 45.5322L36.168 44.29L33.4492 43.0479L33.3789 43.0127L33.3203 42.9775L30.9414 41.5713L28.3867 40.9854H28.3633L28.3516 40.9736L25.5273 40.2236V40.2354L22.7031 39.6729L20.5234 39.6611L19.9258 40.2119L20.5586 41.8877L21.9531 44.3604L23.6992 46.5869L25.75 48.6143L25.7617 48.626L27.7656 50.665L29.9688 52.5518L32.2188 54.2627L34.7852 55.7979L34.832 55.833L34.8672 55.8564L37.1875 57.4619L39.7305 58.3994L42.5898 59.0674L42.6719 59.0791L42.7539 59.1143L45.3906 60.04L48.2617 60.3916L48.2852 60.4033H48.3086L51.2617 60.8604L51.5195 60.8955L51.7539 61.0244L54.3906 62.4424L54.9414 62.7471L55.1172 63.3564L55.9141 66.1689L56.9688 68.958L57.0156 69.0635L57.0391 69.1807L57.6719 72.0986L57.6953 72.2158L58.1055 75.1807L58.1172 75.2158V75.2627L58.3867 78.251V78.3447L58.4688 81.3447L58.4805 81.4385L58.4688 81.5439L58.1758 84.3096L58.6797 87.1221L58.7266 87.3564L58.6914 87.5908L58.2812 90.5908L58.1758 93.4385L58.1641 96.3096L58.3516 99.0752L58.3633 99.2393L58.3398 99.3916L57.9062 102.263L58.0586 105.11L58.082 105.614L57.8125 106.024L57.4658 106.541L57.6113 106.78L57.5996 107.226L57.4941 110.249V110.366L57.4707 110.483L57.04 112.697L57.0918 112.691L58.2051 110.688L59.2598 108.613L58.5566 106.469L58.4395 106.117L58.498 105.754L58.9668 102.906L58.7559 100.117L58.7441 100.047V99.9766L58.8027 96.9531V96.6953L58.8965 96.4492L59.6963 94.3564L59.4883 94.3828V94.3477L59.4766 94.3594L59.1484 91.6055V91.5469L59.1367 91.4883L59.0195 88.5L58.8672 85.5L58.8555 85.4531V85.4062L58.9023 82.4062V82.3242L58.9141 82.2305L59.2773 79.3594L59.1719 76.4766V76.3477L59.3477 73.3477V73.2773L59.3594 73.207L59.8047 70.2305V70.1602L59.8281 70.1016L60.543 67.1602L60.5898 66.9492L60.707 66.7617L62.2305 64.1484L62.3477 63.9492L62.5352 63.7852L64.75 61.8281L65.0312 61.5703L65.3945 61.4883L68.2891 60.8086L68.3008 60.7969H68.3125L71.1719 60.1641L73.9727 59.2617H73.9844L74.0078 59.25L76.8203 58.4062L79.4688 57.375L82.1055 56.1328L84.5547 54.6445L84.5898 54.6211L84.6367 54.5977L87.1562 53.2617L89.207 51.4102L91.1758 49.2656L91.2227 49.207L91.293 49.1484L93.4141 47.2852L95.0078 44.9883L96.5547 42.6797L97.2812 40.418L97.0586 39.3867L95.3125 39.3047L92.5703 39.8086ZM94.2871 60.9414L91.8965 62.6758L91.873 62.6992L91.8379 62.7227L89.3301 64.3633L89.2832 64.3984L89.2246 64.4219L86.6699 65.8047L84.4668 67.5977L84.4551 67.6094L82.1465 69.4375L82.1582 69.4492L79.8848 71.3945L77.8809 73.4453L77.8574 73.4688L77.8223 73.4922L75.6191 75.5312L73.6621 77.6406L73.6504 77.6523L71.6582 79.7617L69.9707 82.082L68.5059 84.5898L68.4941 84.6133L68.4707 84.6484L66.8887 87.0742L66.9004 87.0859L65.4707 89.6172L64.1465 92.3008L64.1348 92.3359L64.1113 92.3711L62.6816 94.9141L61.791 97.2461L61.7441 99.8945L61.916 102.222L62.373 101.214L62.4199 101.097L63.8848 98.4717L65.127 95.8467L65.1504 95.7998L65.1855 95.7412L66.6973 93.1514L66.709 93.1279V93.1162L68.291 90.5732L69.7676 87.9951L69.8379 87.8662L69.9434 87.7607L71.8535 85.5811L73.6582 83.1904L75.3457 80.7646L75.3809 80.7295L77.1855 78.3271L77.2793 78.1865L77.4082 78.0811L79.5879 76.2178L80.1621 76.8975L80.6309 77.2842L81.7793 78.2451L81.709 78.3271L81.627 78.4209L81.5332 78.5029L79.4824 80.2373L77.7832 82.5225L76.084 84.9482L76.0723 84.9717L76.0605 84.9834L74.2559 87.3857L74.1855 87.4795L72.2871 89.624L70.8691 92.1084L70.8574 92.1318L70.8457 92.1436L69.2754 94.6514L67.7754 97.2529L66.5449 99.8428L66.5332 99.8896L66.5098 99.9365L65.749 101.293L66.3066 100.502L66.3887 100.373L66.5059 100.268L68.5918 98.2988L70.3613 95.9902L70.373 95.9785V95.9668L72.248 93.623L74.0176 91.2559V91.2441L75.7637 88.9238L77.3223 86.4043L77.334 86.3691L77.3457 86.3457L79.0332 83.8613L79.0566 83.8145L79.0918 83.7793L80.9316 81.4004L82.666 79.0098L82.6777 78.9863L82.7012 78.9629L84.5293 76.666L86.1113 74.2168L86.1348 74.1816L86.1582 74.1582L87.8926 71.709L89.5332 69.3418L91.1504 66.6465L91.2324 66.5527L93.1309 64.3379L94.8184 61.9238L96.2549 59.5977L94.2871 60.9414ZM33.3418 75.2568L33.4121 75.3154L35.7676 77.1904L35.8613 77.2725L35.9434 77.3545L37.877 79.5107L40.1035 81.4326L40.1621 81.4795L40.209 81.5381L42.2715 83.7295L42.2949 83.7529L42.3184 83.7881L44.2637 86.0732H44.252L46.209 88.3467L46.2793 88.4287L46.3379 88.5107L47.9668 91.042H47.9551L49.6309 93.5029L49.6543 93.5264L49.6777 93.5615L51.2246 96.1396L52.8066 98.6006H52.8184L54.4707 101.12L54.5293 101.202L54.5645 101.284L54.9131 101.995L54.918 101.97L55.3398 99.0752L55.2109 97.1982L54.7656 97.4395L54.7188 97.3574L54.707 97.334V97.3223L53.418 94.8262L53.4062 94.8027L52.1289 92.2246L50.5586 89.6699V89.6816L48.9766 87.1387L48.9648 87.1152L48.9531 87.1035L47.5117 84.6426L45.5547 82.7676L43.4102 80.834L41.1602 79.0762L38.6406 77.6699L36.0977 76.2754L33.4141 75.2793V75.2676L33.3105 75.2363L33.3418 75.2568ZM56.334 8.52246L54.5645 10.7139L53.3223 13.2686L52.291 15.8818L51.623 18.5303L51.4121 21.4248V21.5068L51.4004 21.5771L50.8848 24.4131L50.8613 27.1201L51.2012 30.0146L51.7285 32.9561L51.7754 33.2256L51.7285 33.4951L51.2393 36.1113L52.1191 38.2041L52.1309 38.2275L53.2559 41.0049L53.2793 41.0869L53.3027 41.1572L54.1113 43.9814L55.0605 46.8291L55.0723 46.8525V46.8643L55.9512 49.7354L57.0176 52.4072H57.0059L57.1289 52.7021L57.1504 52.1113L57.1738 49.1582V49.1113L57.1855 49.0762L57.3613 46.0996L57.2324 43.2285V43.1582L57.2559 40.1816L57.2207 37.1816L57.2324 37.1699L57.0098 34.2754L56.998 34.1465L57.0098 34.0176L57.3027 31.1699V28.2402L57.1387 25.2402V25.2168L57.0332 22.2168V22.1348L57.1035 19.2754L57.0918 19.1816L60.0918 19.1582L60.1035 19.2637V19.2988L60.0332 22.1934L60.1387 25.0879L60.3027 28.0879V31.2402L60.291 31.3105L60.0098 34.1465L60.2207 37.0527V37.1465L60.2559 40.1465V40.1699L60.2324 43.1699L60.3613 46.0996V46.1816L60.3496 46.252L60.1738 49.252L60.1504 52.1816V52.2168L60.1055 53.4766L60.2773 52.6445L60.3008 52.5039L61.1797 49.6328L61.1914 49.5859L61.2148 49.5391L62.2812 46.7266L63.2773 43.9375L63.2891 43.8906L63.3125 43.8555L64.4375 41.1484L65.3281 38.3594L65.3633 38.2188L65.4336 38.1016L66.0762 36.8867L65.9902 36.6357L65.9199 36.4482L65.9082 36.249L65.7324 33.3545L65.7207 33.1318L65.7676 32.9209L66.4121 30.1553L66.3184 27.3662L66.2012 24.3662V24.2021L66.3887 21.3662L65.9668 18.6592L65.3105 15.7764L64.291 13.1396L63.002 10.7373L61.2676 8.61621L59.5332 7.05762L57.8809 6.9873L56.334 8.52246ZM85.6562 19.29L83.418 21.0479L83.3711 21.0947L83.3125 21.1299L80.8984 22.6885L78.8477 24.6104L77.043 26.7783L75.25 29.1807L75.0977 29.3799L74.8984 29.5205L72.543 31.1143L72.4395 30.9658L72.3477 31.3398L72.3242 31.4453L72.2891 31.5391L71.1875 34.3398L71.1172 34.5039L71.0234 34.6328L69.3711 37.0586L68.1406 39.3906L67.2852 42.1211L67.2617 42.1914L67.2383 42.25L66.0898 44.9336L66.1016 44.9453L65.0938 47.7695V47.7812L65.082 47.8047L64.0156 50.6055L63.207 53.2422L63.1621 53.4531L63.4941 53.1299L63.5293 53.0947L63.5762 53.0596L65.8613 51.1143L67.8887 49.0752L67.9121 49.04L67.9473 49.0166L70.0332 47.1299L71.5566 44.8799H71.5684L73.2441 42.4072L73.3145 42.29L73.4082 42.208L75.377 40.1572L76.959 37.8721L78.4473 35.2471L79.9121 32.6338L79.9707 32.5166L80.0527 32.4229L81.8457 30.1729L82.127 30.4072L83.0762 31.0283L84.3301 31.8604L84.2715 31.9424L84.2363 32.001L84.1895 32.0479L82.4551 34.1924L81.0605 36.7119L79.5957 39.3369L79.5254 39.4541L77.8145 41.9268L77.7441 42.0322L77.6621 42.1143L76.3691 43.4443L77.9102 42.7266L80.1719 40.9805L80.3828 40.8164L80.6289 40.7344L83.4062 39.832L86.043 38.5898L86.0547 38.583L86.5352 37.4775L86.5703 37.3955L86.6172 37.3135L88.0234 34.876L88.7852 32.1455L89.3242 29.3213L89.7344 26.4854L89.793 23.6729L89.7461 20.9072L89.0781 18.9033L87.6367 18.3525L85.6562 19.29ZM28.5684 18.7354L28.0645 20.4697L27.5371 23.2236V26.083L27.6777 28.8252L28.3574 31.5557L29.4824 34.0635L30.8066 36.7236L30.8652 36.8291L30.9004 36.9463L31.4141 38.6035L31.832 38.7002L32.0547 38.7588L32.2539 38.876L34.7383 40.3291L37.4219 41.5713H37.4336L40.1523 42.8486L40.1992 42.8721L40.2461 42.9072L40.5703 43.0889L39.625 41.4756L37.9492 38.9795V38.9678L36.2148 36.6123H36.2031L34.4453 34.1865L34.3633 34.0693L34.3047 33.9521L33.0508 31.3623L33.6484 31.0693L34.3516 30.624L35.6172 29.8154L35.6758 29.8975L35.7227 29.9795L35.7578 30.0615L36.918 32.4756L38.6172 34.8311H38.6289L40.4102 37.2568L40.4219 37.2803L40.4453 37.3037L42.1211 39.7998L42.1445 39.835L42.168 39.8818L43.5977 42.3311L45.5547 44.4053L45.6367 44.499L47.207 46.8545L49.2461 48.6943L51.5547 50.6162L51.625 50.6748L51.6953 50.7451L53.7578 52.9365H53.7461L54.1514 53.3281L53.1152 50.7314L53.0918 50.6729L53.0801 50.6143L52.2129 47.7783L51.2637 44.9307L51.252 44.9072V44.8721L50.4668 42.1299L49.3535 39.3408V39.3291L48.252 36.7744L46.5762 34.7236L46.5059 34.6416L46.4473 34.5479L44.8887 31.9697L44.6777 31.6182L44.667 31.2559L42.8418 29.5049L42.8066 29.4814L42.7715 29.4463L40.8027 27.3018L38.6348 25.2158L36.4668 23.1533L36.4316 23.1182L34.4863 21.126L32.0371 19.708H32.0254L29.8223 18.6299L28.5684 18.7354Z" fill="black"/>
</svg>
