<svg width="120" height="120" viewBox="0 0 120 120" fill="none" xmlns="http://www.w3.org/2000/svg">
<path d="M60.2178 6.32422L63.1328 6.8623L66.0527 7.10645L66.0918 7.11035L66.1299 7.11523L69.1025 7.52148L69.207 7.53613L69.3086 7.56445L72.123 8.36035L74.9912 8.7627H74.9902L77.9492 9.15918L78.3066 9.20703L78.6025 9.41113L81.0811 11.123L81.5332 11.4346L81.6768 11.9639L82.4668 14.875L82.5752 15.2734L82.4951 15.5576L82.3086 18.3555L82.4307 21.249L82.6064 24.249L82.6094 24.2891V24.3301L82.623 27.3301V27.4062L82.6162 27.4814L82.3359 30.3516L82.5537 33.2236L82.5576 33.2725V33.3213L82.5879 36.3213V36.3447L82.5713 39.3037L82.6934 42.2754L82.6963 42.3506L82.6914 42.4268L82.5146 45.3721L82.4893 48.3496L82.4883 48.3701V48.3906L82.3818 51.334L82.4785 54.2588L82.708 57.2207L82.7139 57.2891L82.7129 57.3584L82.6689 60.3584L82.6533 63.3447V63.3555L82.6523 63.3652L82.5957 66.3359L82.6494 69.3086L82.6514 69.4141L82.6387 69.5186L82.2871 72.3906L82.4336 75.2168L82.71 78.1982L82.7236 78.3418L82.709 78.4854L82.4209 81.373L82.5742 84.2568L82.5781 84.3301L82.5752 84.4043L82.4453 87.2939L82.7412 90.1836L82.7617 90.3838L82.7295 90.582L82.2598 93.416L82.4248 96.249L82.4297 96.3301L82.4248 96.4102L82.2793 99.3828L82.2607 99.7656L82.0605 100.092L80.5234 102.606L80.2832 102.998L79.8652 103.188L77.1475 104.426L76.8604 104.557L76.5449 104.561L73.5371 104.599L73.4424 104.6L73.3486 104.589L72.4961 104.491L72.5771 104.649L72.5713 105.025L72.5186 108.071L72.5068 108.768L71.9678 109.208L69.6582 111.093L69.2568 111.42L68.7393 111.43L65.7422 111.488L65.7002 111.489L65.6582 111.488L62.707 111.381L59.8125 111.477L56.8291 111.708L56.7598 111.714L56.6904 111.713L53.6904 111.669L53.627 111.668L53.5635 111.662L50.5391 111.36L49.8662 111.293L49.4707 110.745L47.7188 108.314L47.4492 107.94L47.4365 107.479L47.3506 104.468L47.3477 104.368L47.3486 104.357L46.5439 104.3L43.6689 104.62L43.1914 104.673L42.7715 104.438L40.1875 102.994L39.8564 102.809L39.6523 102.488L38.1357 100.099L37.9922 99.8721L37.9355 99.6094L37.3086 96.6875L37.2773 96.541L37.2754 96.3916L37.2354 93.3916L37.2344 93.2959L37.2451 93.2012L37.5742 90.3359L37.377 87.4756L37.3701 87.3848L37.375 87.2939L37.5273 84.3545L37.4307 81.4219L37.4287 81.3701L37.4307 81.3184L37.5361 78.3828L37.3877 75.4482L37.3828 75.3467L37.3906 75.2461L37.6406 72.291L37.7139 69.334L37.7129 66.4424L37.4775 63.4912L37.4756 63.4619L37.2959 60.4619L37.29 60.377L37.2949 60.292L37.4512 57.3477L37.3652 54.416L37.3623 54.2979L37.377 54.1807L37.7471 51.3154L37.5908 48.4873L37.3594 45.4873L37.3506 45.3779L37.3584 45.2676L37.5625 42.332L37.4844 39.4209L37.3867 36.4209L37.3838 36.335L37.3906 36.248L37.6279 33.3965L37.2959 30.5459L37.2812 30.4248L37.2871 30.3047L37.4199 27.3809L37.251 24.458L37.2461 24.377L37.25 24.2949L37.4023 21.3545L37.3066 18.4209L37.3027 18.2832L37.3232 18.1475L37.7783 15.1475L37.7852 15.1016L37.7949 15.0557L38.4033 12.2373L38.502 11.7793L38.8438 11.459L41.0498 9.39258L41.4053 9.05957L41.8896 8.99902L44.9072 8.62402L44.9521 8.61914L44.9971 8.61621L47.8838 8.43164L50.7178 7.81934L50.8057 7.7998L50.8955 7.79199L53.7959 7.52148L56.6572 6.91699L56.667 6.91504L56.6777 6.91309L59.6562 6.32715L59.9365 6.27246L60.2178 6.32422ZM58.7373 104.724L58.6328 104.739L58.5273 104.74L55.5273 104.759L55.3936 104.76L55.2627 104.737L54.4248 104.592L52.0635 104.692L51.9814 104.695L51.9004 104.69L50.3545 104.587L50.4219 106.935L51.5088 108.441L53.8018 108.671L56.6709 108.712L59.5967 108.484L59.6299 108.481L59.6631 108.48L62.6631 108.382L62.7148 108.38L62.7666 108.382L65.7197 108.488L68.1621 108.44L69.5312 107.322L69.5645 105.35L69.1338 104.511L67.7666 104.742L67.5547 104.777L67.3408 104.752L65.6348 104.549L64.1133 104.664L63.9834 104.674L63.8555 104.661L61.0176 104.385L58.7373 104.724ZM57.2764 9.85156L57.2773 9.85254L54.335 10.4736L54.251 10.4912L54.165 10.499L51.2646 10.7695L48.4121 11.3877L48.3027 11.4111L48.1904 11.418L45.2266 11.6074L42.7432 11.916L41.2363 13.3281L40.7363 15.6465L40.3096 18.458L40.4023 21.3232L40.4043 21.3867L40.4014 21.4492L40.25 24.3633L40.4189 27.2861L40.4229 27.3623L40.4199 27.4395L40.2891 30.3203L40.624 33.1992L40.6416 33.3477L40.6299 33.4961L40.3877 36.4131L40.4834 39.3232V39.332L40.5635 42.332L40.5654 42.4043L40.5605 42.4766L40.3574 45.3672L40.582 48.2568L40.584 48.29L40.749 51.29L40.7568 51.4268L40.7393 51.5635L40.3672 54.4453L40.4521 57.3281L40.4531 57.3896L40.4502 57.4521L40.2949 60.3701L40.4678 63.2529L40.707 66.2529L40.7109 66.3115L40.7119 66.3711L40.7139 69.3711V69.4102L40.6377 72.4102L40.6367 72.4541L40.6328 72.498L40.3887 75.3994L40.5361 78.2959L40.5391 78.3613L40.5371 78.4258L40.4307 81.3701L40.5273 84.3223L40.5303 84.3867L40.5264 84.4502L40.375 87.3623L40.5762 90.2695L40.585 90.4062L40.5693 90.543L40.2363 93.4463L40.2725 96.2021L40.8125 98.7178L41.9814 100.56L43.8154 101.585L46.3525 101.304L46.4883 101.288L46.625 101.299L49.5029 101.506L52.3838 101.247L52.5791 101.229L52.7734 101.263L54.623 101.582L54.9121 101.57V101.569L57.9121 101.394L57.9531 101.391H57.9932L60.8506 101.377L61.2979 101.312L61.4346 101.292L61.5732 101.297L64.5732 101.407L64.6338 101.409L64.6943 101.417L65.7002 101.536L66.8867 101.446L66.9355 101.442H66.9854L69.4385 101.417L70.2686 101.278L70.4775 101.243L70.6875 101.267L73.5908 101.597L76.1914 101.564L78.2031 100.647L79.3018 98.8516L79.4248 96.3369L79.2549 93.4238L79.2451 93.2568L79.2725 93.0908L79.7363 90.29L79.4492 87.4893L79.4385 87.3799L79.4434 87.2695L79.5752 84.3369L79.4189 81.416L79.4131 81.3018L79.4248 81.1875L79.709 78.3301L79.4453 75.4746L79.4424 75.4443L79.4414 75.415L79.2842 72.4141L79.2773 72.2842L79.2939 72.1543L79.6484 69.2578L79.5957 66.3643L79.5947 66.3359L79.5957 66.3076L79.6533 63.3076L79.6689 60.3281L79.6699 60.3145L79.7119 57.3721L79.4844 54.4521L79.4814 54.4189L79.4805 54.3857L79.3818 51.3857L79.3799 51.334L79.3818 51.2822L79.4893 48.3037L79.5146 45.3242V45.2852L79.5166 45.2471L79.6924 42.3271L79.5723 39.3984L79.5713 39.3633V39.3281L79.5879 36.3516L79.5576 33.3896L79.3359 30.4492L79.3262 30.3203L79.3389 30.1914L79.6221 27.2646L79.6094 24.3721L79.4355 21.4248V21.4121L79.4346 21.3994L79.3076 18.3994L79.3047 18.3184L79.3096 18.2363L79.499 15.3936L78.9248 13.2793L77.1934 12.085L74.584 11.7354L74.5752 11.7334L71.6045 11.3174L71.5029 11.3037L71.4043 11.2754L68.5928 10.4795L65.7676 10.0938L62.8066 9.84473L62.7334 9.83887L62.6611 9.8252L59.9531 9.3252L57.2764 9.85156ZM59.2168 71.4385L62.2402 71.5635L62.5537 71.5771L62.8359 71.7148L65.5352 73.0332L65.6025 73.0654L65.666 73.1045L68.1807 74.6602L68.3301 74.7529L68.4541 74.877L70.5898 77.0186L70.8389 77.2686L70.9502 77.6035L71.9072 80.4707L71.9365 80.5586L71.9551 80.6494L72.5469 83.584L72.666 84.1777L72.3691 84.6426L71.8838 87.1924L71.8584 87.3252L71.8096 87.4502L70.748 90.2109L70.6787 90.3916L70.5654 90.5488L68.8115 92.9854L68.667 93.1846L68.4678 93.3281L66.0098 95.0879L65.7793 95.2529L65.5039 95.3223L62.5967 96.0566L62.5225 96.0752L62.4463 96.0859L59.4932 96.5186L59.2412 96.5557L58.9902 96.5068L56.0352 95.9355L55.8203 95.8936L55.626 95.792L52.9551 94.3994L52.8037 94.3203L52.6738 94.21L50.3711 92.2412L50.1572 92.0586L50.0244 91.8105L48.5938 89.1455L48.5146 88.9971L48.4697 88.835L47.6738 85.9521L47.6133 85.7334L47.6211 85.5068L47.7119 82.5312L47.7168 82.3789L47.752 82.2295L48.4414 79.3379L48.4814 79.1689L48.5596 79.0137L49.915 76.3086L50.0381 76.0625L50.2402 75.877L52.4785 73.8154L52.625 73.6816L52.8008 73.5898L55.4922 72.1865L55.6855 72.0859L55.8984 72.0439L58.8672 71.4648L59.04 71.4307L59.2168 71.4385ZM60.04 79.8906L57.0879 80.0645H57.0752L57.0635 80.0654L54.0635 80.1924L53.9814 80.1953L53.9004 80.1904L51.4062 80.0234L51.3184 80.2012L50.7061 82.7764L50.626 85.373L51.3154 87.873L52.5352 90.1445L54.4932 91.8174L56.8174 93.0303L59.3115 93.5127L61.9404 93.127L64.4932 92.4834L66.5205 91.0312L68.0186 88.9512L68.9609 86.498L69.4746 83.8047L69.501 83.6621L69.0312 81.3311L68.5791 79.9775L66.1133 80.1641L65.9834 80.1738L65.8555 80.1611L62.9287 79.8779L60.04 79.8906ZM56.6865 74.9463L54.3633 76.1582L53.292 77.1426L54.0186 77.1914L56.9121 77.0703V77.0693L59.9121 76.8936L59.9531 76.8906H59.9932L62.9932 76.877H63.0693L63.1445 76.8838L66.0146 77.1641L66.4629 77.1299L66.4521 77.1191L64.1514 75.6953L61.8027 74.5479L59.2676 74.4424L56.6865 74.9463ZM59.2168 43.4385L62.2402 43.5635L62.5537 43.5771L62.8359 43.7148L65.5352 45.0332L65.6025 45.0654L65.666 45.1045L68.1807 46.6602L68.3301 46.7529L68.4541 46.877L70.5898 49.0186L70.8389 49.2686L70.9502 49.6035L71.9072 52.4707L71.9365 52.5586L71.9551 52.6494L72.5469 55.584L72.666 56.1777L72.3691 56.6426L71.8838 59.1924L71.8584 59.3252L71.8096 59.4502L70.748 62.2109L70.6787 62.3916L70.5654 62.5488L68.8115 64.9854L68.667 65.1846L68.4678 65.3281L66.0098 67.0879L65.7793 67.2529L65.5039 67.3223L62.5967 68.0566L62.5225 68.0752L62.4463 68.0859L59.4932 68.5186L59.2412 68.5557L58.9902 68.5068L56.0352 67.9355L55.8203 67.8936L55.626 67.792L52.9551 66.3994L52.8037 66.3203L52.6738 66.21L50.3711 64.2412L50.1572 64.0586L50.0244 63.8105L48.5938 61.1455L48.5146 60.9971L48.4697 60.835L47.6738 57.9521L47.6133 57.7334L47.6211 57.5068L47.7119 54.5312L47.7168 54.3789L47.752 54.2295L48.4414 51.3379L48.4814 51.1689L48.5596 51.0137L49.915 48.3086L50.0381 48.0625L50.2402 47.877L52.4785 45.8154L52.625 45.6816L52.8008 45.5898L55.4922 44.1865L55.6855 44.0859L55.8984 44.0439L58.8672 43.4648L59.04 43.4307L59.2168 43.4385ZM60.04 51.8906L57.0879 52.0645H57.0752L57.0635 52.0654L54.0635 52.1924L53.9814 52.1953L53.9004 52.1904L51.4062 52.0234L51.3184 52.2012L50.7061 54.7764L50.626 57.373L51.3154 59.873L52.5352 62.1445L54.4932 63.8174L56.8174 65.0303L59.3115 65.5127L61.9404 65.127L64.4932 64.4834L66.5205 63.0312L68.0186 60.9512L68.9609 58.498L69.4746 55.8047L69.501 55.6621L69.0312 53.3311L68.5791 51.9775L66.1133 52.1641L65.9834 52.1738L65.8555 52.1611L62.9287 51.8779L60.04 51.8906ZM56.6865 46.9463L54.3633 48.1582L53.292 49.1426L54.0186 49.1914L56.9121 49.0703V49.0693L59.9121 48.8936L59.9531 48.8906H59.9932L62.9932 48.877H63.0693L63.1445 48.8838L66.0146 49.1641L66.4629 49.1299L66.4521 49.1191L64.1514 47.6953L61.8027 46.5479L59.2676 46.4424L56.6865 46.9463ZM57.4883 13.6221L60.4941 13.7266L60.5498 13.7285L60.6055 13.7344L63.5488 14.0566L63.708 14.0742L66.7285 15.0811L67.0469 15.1865L67.2891 15.418L69.4785 17.5039L69.5312 17.5547L69.5791 17.6104L71.5361 19.8789L71.708 20.0781L71.8018 20.3242L72.8701 23.125L72.8984 23.1992L72.918 23.2764L73.6924 26.207L73.8525 26.8135L73.5342 27.3535L73.3818 27.6084L72.9189 30.1875L72.8984 30.3018L72.8604 30.4121L71.8926 33.2119L71.835 33.3789L71.7393 33.5283L70.125 36.0605L70.0029 36.2529L69.8281 36.4004L67.5186 38.3486L67.3154 38.5195L67.0654 38.6113L64.2471 39.6396L64.1904 39.6602L64.1328 39.6758L61.2549 40.4736L61.0264 40.5371L60.7891 40.5264L57.7793 40.3945L57.5791 40.3857L57.3887 40.3252L54.5195 39.4082L54.3721 39.3613L54.2383 39.2852L51.6025 37.7949L51.3721 37.665L51.2012 37.4639L49.2354 35.167L49.1377 35.0527L49.0654 34.9229L47.6064 32.3096L47.5039 32.125L47.4561 31.9209L46.7764 29.0215L46.7451 28.8887L46.7383 28.7529L46.5908 25.7793L46.584 25.625L46.6074 25.4717L47.0781 22.4834L47.1182 22.2275L47.2422 22L48.6943 19.3281L48.7812 19.1689L48.9033 19.0352L50.9453 16.7939L51.0791 16.6475L51.2461 16.54L53.793 14.9102L53.9287 14.8232L54.0791 14.7676L56.9141 13.7148L57.1914 13.6113L57.4883 13.6221ZM55.2744 17.5234L53.0273 18.9619L51.2422 20.9209L50 23.2041L49.5957 25.7793L49.7285 28.4707L50.3281 31.0312L51.6123 33.3311L53.3086 35.3135L55.5811 36.5977L58.1084 37.4053L60.6846 37.5186L63.2725 36.8008L65.7871 35.8838L67.7178 34.2549L69.1133 32.0654L69.9863 29.541L70.4756 26.8223L70.5186 26.583L70.6328 26.373L70.0371 24.1172L69.0928 21.6387L67.3496 19.6191L65.4619 17.8203L63.0635 17.0215L60.3311 16.7217L57.6797 16.6299L55.2744 17.5234ZM65.21 19.8691L67.5303 21.7871L67.998 22.1738L68.0654 22.7773L68.3945 25.748L67.2197 25.8779L67.1992 26.0225L68.3086 26.2793L67.8018 28.4678L67.7412 28.7275L67.5947 28.9512L65.9854 31.4092L65.9375 31.4824L65.8809 31.5508L63.96 33.8428L63.874 33.9453L63.7725 34.0303L61.4629 35.96L60.707 36.5928L59.8262 36.1494L57.3213 34.8887L57.1279 34.791L56.9697 34.6426L54.7822 32.5918L54.6582 32.4756L54.5635 32.3359L52.9014 29.8682L52.8086 29.7305L52.748 29.5752L51.6875 26.8525L51.542 26.4775L51.6035 26.0801L52.0508 23.1729L52.1172 22.7363L52.4102 22.4062L54.3047 20.2646L54.7715 19.7373L55.4766 19.7588L58.4277 19.8535L59.2744 19.8799L59.6885 20.6191L60.0498 21.2646L60.3291 20.915L60.6221 20.5469L61.0723 20.4121L63.8242 19.5879L64.5928 19.3584L65.21 19.8691ZM62.3818 23.1504L61.0059 24.8809L59.6152 26.6279L58.5234 24.6797L57.4844 22.8242L56.085 22.7793L54.9482 24.0635L54.6289 26.1387L55.4834 28.332L56.957 30.5186L58.8643 32.3066L60.2939 33.0264L61.7432 31.8154L63.5225 29.6934L64.9385 27.5293L65.3682 25.6768L65.1494 23.7109L63.916 22.6914L62.3818 23.1504Z" fill="black"/>
</svg>
