<svg xmlns="http://www.w3.org/2000/svg" width="120" height="120" fill="none" viewBox="0 0 120 120"><path fill="#000" d="m44.147 14.371 2.66.246-.012.012 2.637.223.21.011.188.082 2.473.938.012.012 2.484.972.34.13.234.269 1.746 1.98 1.828 1.781.13.13.093.152 1.383 2.226.07.117.047.117.984 2.438.047.129.035.117.551 2.59.023.117.012.106.153 2.636.152 2.391.938 2.262.082.199.023.2.27 2.355.949 1.793 1.91 1.336.117.093 2.004 1.735.129.117.094.129 1.476 2.027 1.91 1.5.118.094.105.117 1.582 1.898 1.992 1.582.164.13.13.175 1.5 2.133 1.628 1.852 1.934 1.57.093.082.082.094 1.746 1.98.083.094.058.094 1.348 2.132 1.734 1.793.07.07.07.094 1.454 2.028 1.734 1.992.035.035 1.583 1.934 1.898 1.699.058.047.047.058 1.805 1.946.012.023 1.676 1.863.492.458-1.032 1.101-.829.895-.075.546.094.516-.164.023v.024l-.07-.012-1.221.21.309.557 1.804 1.43 2.156 1.535.165.117.117.152 1.711 2.051.257.305.071.41.058.387-1.294.214.044.137.446 1.43-.258.082-.211.07h-.223l-2.554.024h-.176l-.176-.036-2.566-.585-.047-.012-.047-.024-2.531-.761h-.012l-2.484-.786-2.544-.75-.058-.011-.059-.024-2.25-.855-2.308-.082-2.438.351-2.625.375-.152.024-.14-.012-2.2-.132-.006.017-.07.2-.129.175-1.512 2.11-.129.187-.187.14-1.817 1.348-.855 1.723-.375 2.379-.147 2.37 1.135.407 2.45.246.011-.012 2.637.246.152.012.153.047 2.543.773.27.082.222.176 2.062 1.63.27.21.152.305.68 1.418 1.629.035h.164l.164.047 2.566.644.153.035.14.071 2.39 1.183.259.129.199.223 1.77 1.992.152.176.094.211 1.078 2.39.082.2.035.222.34 2.602v.023l.011.024.258 2.554h.012l.227 1.588 1.355-.262.246-.047.234.035 2.578.351 2.379.106 2.52-.434.117-.011h.117l2.637-.024h.152l.153.024 2.437.48 2.403-.246.082-.012h.082l1.043.012-.012 1.5-.024 1.5-.996-.012-2.507.258-.223.024-.223-.036-2.461-.492-2.425.012-2.497.434-.152.023-.164-.012-2.637-.105h-.07l-.07-.012-2.403-.34-2.39.469-.235.047-.234-.024-2.555-.328-2.531.012-.012-.012-2.59.082h-.011l-2.637.059h-.023l-2.567.012.012.011-2.637.176-.187.012-2.625-.492-2.39.281-.13.012h-.129l-2.554-.141-2.555.164h-.129l-.129-.012-2.335-.263-.516.02-2.106.232h-.07l-2.637.152-.152.012-.141-.024-2.543-.351-2.508.058h-.058l-2.637-.058v-.012h-2.637l-2.62-.047-.64.057-1.86.166-.036.011h-.047l-2.637.094h-.117l-2.636-.105v-.012l-2.59-.012h-.047l-.047-.011-2.578-.176-2.532.129h-.082l-2.636-.012v-.012l-2.508.024-2.637.234-.14.012-.153-.012-2.531-.281-2.578.012v-.012l-2.543.176h-.012l-.012.011-2.648.118-.094.011-.082-.011-2.543-.188.012-.223V115.5h.21l2.462.199 2.508-.117v-.012l2.636-.175h.094l2.637-.012.094-.012.082.012 2.508.281 2.484-.211.047-.012h.058l2.649-.023h.023l2.555.012.156-.008.531-2.536.012-.059.024-.058.75-2.532.07-.269.176-.223 1.605-2.086 1.348-2.133.023-.047.035-.035 1.594-2.144.211-.281.316-.165 2.297-1.16 2.133-1.429h.012l2.215-1.465 2.203-1.43.058-.047.059-.035 2.266-1.18-.106-.132 1.969-1.524.352-.281.445-.035 2.66-.223.117-.012.129.012 2.218.184.016-.008.246-.024 1.841-.182-.034-.333-.023-.153.023-.164.293-2.543.047-2.601.012-.516.326-.383c-1.1-.74-1.784-1.835-2.193-2.736a9.7 9.7 0 0 1-.68-2.136l-.006-.042-.002-.012-.001-.005v-.003l-.012-.103a1 1 0 0 1 .038-.332l-1.625-.553-.187-.059-.164-.106-2.18-1.453-2.238-1.218-.082-.047-.07-.047-2.145-1.512-.047-.035-.035-.023-2.04-1.653-.058-.047-.047-.046-1.863-1.805-1.933-1.805-.07-.07-.071-.082-1.664-2.063-.082-.105-.059-.106-1.277-2.32-.023-.035-.024-.047-1.137-2.379-.047-.105-.035-.118-.75-2.52v-.01l-.785-2.474-.035-.105-.012-.105-.422-2.602-.011-.059v-.047l-.235-2.625v-.023l-.187-2.648-.012-.211.047-.211.55-2.602h.012l.446-2.531v-.012l.011-.012.504-2.601.012-.059.023-.07.739-2.543.047-.14.07-.13.122-.235h-.12l-2.649-.07-2.59.035h-.023l-2.648-.012h-.094l-.105-.011-2.637-.364-.246-.035-.235-.117-2.273-1.184.084-.168-.068.021-.07.012-1.571.386-1.488.364-.328-1.512-.012-.047 1.465-.316v-.012l-.08-.323-1.172-.398.222-.68.012-.023.012-.035.937-2.45.047-.116 1.16-2.391.094-.2.164-.175 1.817-1.934 1.734-1.933.047-.047 1.84-1.887.082-.082.093-.07 2.145-1.594.223-.164.27-.082 2.218-.61 1.396-1.738.082-.117.118-.082 2.015-1.723.188-.164.222-.082 2.438-.984 2.402-1.031.164-.07 2.555-.762.281-.082zm11.568 82.66-2.121 1.007-.153.07-.175.036-2.52.527-.082.023h-.094l-2.308.2-.279.146-.385.299-.047-.07-1.153.609-2.203 1.441-.011-.011-4.383 2.929-.07.047-2.18 1.09-1.313 1.758-1.406 2.238-.035.059-.047.047-1.441 1.875-.645 2.144-.34 1.613 1.299.156 2.438-.071 2.636-.152h.094l2.649.012h.175l2.45.304.32-.027.447-.041h.049l1.703-.143h.105l2.649-.023h.023l2.579.023 2.625-.117h.175l2.637.188-.012.012 2.567.011h.046l2.579.106.324-.013.408-.044.152-.012.164.012.112.013 1.347-.05 2.637-.246.082-.012.082.012 2.637.035h2.648l2.602.047 2.613-.07h.117l.118.011 2.472.34 2.52-.187v.011l2.566-.304.153-.024.164.024 2.52.246 1.378-.117-.096-.644v-.059l-.28-2.578-.317-2.402-.89-1.981-1.419-1.605-1.992-.984-2.227-.563-2.367-.035-.926-.023-.398-.832-.938-1.934-1.582-1.231-2.12-.656-2.473-.222h-.012l-2.637-.258-.187-.012-.164-.07-2.342-.827-.3.267-.034.06-.07.152-.106.129-1.547 1.875-1.172 2.074-.738 2.227-.457 1.98-.328 1.383-1.406-.246-.117-.024.269-1.476v-.012l-1.336-.316.457-1.969.023-.07.012-.059.832-2.508.047-.14.082-.129 1.003-1.765-2.307.774-2.25.996-1.993 1.23-1.992 1.676-.469-.563-.609-.152-1.453-.375.117-.445.117-.469.375-.305 2.04-1.699.081-.07.082-.047 2.215-1.371.094-.059.094-.047 2.414-1.066.117-.047.64-.217-1.632-.46zm7.83-11.122-.2.41-.386.246-1.816 1.114-.82.996-.048 2.12v.06l-.011.07-.282 2.472.101.942.823.23h-.011l2.484.551.059.012.058.023 1.711.516.844-.738.14-2.004v-.082l.012-.07.434-2.614.035-.223.094-.199.216-.433-1.052-1.42-1.735-1.874-.07-.07-.07-.094-.296-.427zm-3.8-50.643-1.513 1.968-.093.118-.106.093-2.004 1.746-.129.118-.152.082-2.355 1.218-.176.094-.188.047-2.578.574.012.012-2.555.621-.21.047h-.212l-2.648-.129-.153-.012-.152-.035-2.566-.668-.059-.012-.058-.023-2.508-.867-.223-.082-.281-.211-.494.943-.692 2.309-.48 2.543-.457 2.566-.012.024v.023l-.516 2.367.176 2.438.211 2.508.375 2.449.785 2.437v.012l.012.023.715 2.415 1.078 2.273 1.172 2.11 1.512 1.874 1.863 1.746.012.024 1.828 1.77 2.004 1.605h-.012l2.016 1.406 2.226 1.219.117.07 2.075 1.383 2.191.727 2.555.574.14.035.13.059 2.296.984 2.414.469.598.117.351.504 1.43 2.074 1.723 1.852.058.058.047.07.47.636 1.468-1.115 1.265-1.758.739-2.098.046-.14.083-.13.046-.093 1.29.774.178.105v-.236h.198l2.391.152 2.484-.352 2.625-.374.13-.024.128.012 2.66.094.246.011.235.082 2.437.95 2.461.703h.012l.023.011 2.485.785 2.531.762 1.823.41-1.909-1.347-.023-.024-.035-.023-2.087-1.653-.234-.187-.14-.258-1.235-2.204-.607-.039-2.543.281h-.14l-2.65.024-.187.011-.176-.046-2.484-.61-2.566-.328h-.07l-.071-.023-2.566-.575-.024-.011h-.035l-2.543-.68-.094-.023-2.425-.833-2.707-.773-2.438-1.031-.106-.035-.093-.059-2.262-1.383-.035-.011-.023-.024-2.192-1.476-.094-.059-.082-.082-1.945-1.77v-.011l-1.945-1.711-.094-.07-.07-.094-1.688-2.028-.047-.058-.035-.047-1.477-2.18-.023-.023-.012-.024-1.406-2.261-.129-.2-.058-.222-.633-2.578-.024-.094-.468-2.567-.012-.093-.012-.082-.176-2.637-.011-.164.023-.152.398-2.649.06-.387.245-.316 1.594-2.027 1.02.82.164.012 1.5.129-.012.105-.035.445-1.64 2.051-.306 2.098.164 2.414.457 2.46.563 2.263 1.277 2.039 1.453 2.12 1.5 1.805 1.899 1.676.023.024 1.899 1.722 1.992 1.348 2.156 1.312 2.262.938 2.473.726.035.012.023.012 2.508.832 2.438.644h-.012l2.472.54 2.532.34.082.011.082.023 2.379.563 2.46-.012 2.532-.27.117-.011.129.012 2.45.14.996-.162-.597-.67v-.011l-1.734-1.864-1.91-1.722-.094-.07-.07-.094-1.676-2.04v-.011l-1.71-1.934-.095-.117-1.453-2.039-1.78-1.852-.106-.105-.082-.129-1.371-2.156-1.606-1.817-1.957-1.593-.094-.082-.082-.094-1.734-1.98-.059-.06-.047-.07-1.382-1.98-2.051-1.64-.094-.118-1.629-1.91-1.945-1.535-.164-.129-.117-.164-1.489-2.04-1.875-1.616h-.011l-2.063-1.442-.293-.21-.164-.317-1.254-2.367-.14-.246-.024-.282-.293-2.437-.937-2.273zm-2.871 47.16c.084.317.22.747.426 1.201.365.804.897 1.566 1.645 2.003l.041-.049.164-.187.211-.13 1.63-1.019.18-.4-.245-.046-.164-.035-.14-.059-2.345-1.02-1.415-.307zM42.002 18.028l-2.355 1.02-.012.012-.024.011-2.238.89-1.746 1.49-1.242 1.534.023 2.121.246 2.391.727 2.39.926 2.192 1.183 2.145.889 1.333.26-.075.148.687.016.023 1.722 1.301 2.25.774 2.356.609 2.25.117 2.379-.574h.012l2.378-.55 2.04-1.056 1.769-1.558 1.488-1.922.07-.082.07-.07 1.829-1.793.024-.035-.118-1.817-.515-2.367-.88-2.18-1.23-1.968-1.722-1.676-.035-.035-.036-.047-1.558-1.746-2.133-.832v-.012l-2.25-.856-2.426-.21h-.012l-2.343-.223zM31.928 33.846l-2.344.879-.012-.012-2.425.972-.012.012h-.024l-1.13.415 1.865.248h2.508l2.624-.023h.06l2.296.055-.34-.505-.035-.047-.024-.059-1.277-2.297-.047-.07-.013-.04zm-1.1-9.24-1.793 1.347-1.758 1.817-.011-.012-1.711 1.922-.024.023-1.664 1.77-1.043 2.191-.181.465.976-.342 2.461-.902 2.426-.961h.012l.011-.012 2.473-.926.059-.011.07-.024 1.329-.375-.712-2.342-.047-.152-.012-.14-.27-2.637v-.14l-.009-.717zm16.337-.064 2.095-.356.035-.011h.035l2.613-.317.106-.011h.094l.855.011-.012 1.5-.023 1.5-.773-.011-2.497.304-.011-.011-2.097.356.145 1.008h-1.124l-1.008 1.207-.68.82-1.008-.375-2.144-.82-1.067-.422.117-1.137.246-2.472.13-1.22 1.218-.116L45 23.71l1.125-.105.2.538.667-.808z"/></svg>