<svg width="120" height="120" viewBox="0 0 120 120" fill="none" xmlns="http://www.w3.org/2000/svg">
<path d="M71.1523 5H74V5.21094L73.8008 7.67188L73.918 10.1797H73.9297L74.042 11.8721L74.2891 11.8711L74.7578 14.1328L74.793 14.2969L74.7812 14.4727L74.7109 16.9102L75.2852 19.3359L75.3086 19.418L75.3203 19.5117L75.625 22.1367L75.6367 22.2656V22.4062L75.4727 24.9375L75.6953 27.3633L76.2812 29.8477L76.3164 30V30.1523L76.3867 32.7188L76.8086 35.2148L76.8203 35.2852V35.3555L76.9844 37.875L77.3193 40.1396L77.8711 40.7188L79.9219 42.2891L80.0391 42.3711L80.1328 42.4766L81.832 44.3633L83.7305 46.2031L83.7656 46.2383L83.7891 46.2734L85.5068 48.1299L85.4492 47.5312L85.4375 47.3438L85.4609 47.1562L85.8828 44.543L86.1406 42L86.1523 41.9883V41.9766L86.457 39.3633V39.3516L86.7734 36.7266L86.9932 34.5H86.4961L86.8594 32.707L86.9463 32.252L86.9258 31.6758L86.9141 31.3711L87.0312 31.0781L87.1055 30.8848V28.9219L86.9414 26.3789V26.3672L86.9297 26.3555L86.8125 23.707L86.8008 23.6133L86.8125 23.5312L87 20.9883L87.1523 21H90V21.2109L89.8008 23.6719L89.918 26.1797H89.9297L90.1055 28.8164V28.9102L90.1123 30.6074L90.125 30.6562L90.7578 33.2461L90.7695 33.3047L90.7812 33.375L91.168 35.9883L91.1914 36.1523L91.1797 36.3047L91.0273 38.8242L91.2617 41.2148L92 43.6406L92.0703 43.8516V46.6289L92.5391 49.0547L92.5742 49.2188V49.3828L92.4922 51.8555L93.0781 54.2344L93.1016 54.4219L93.2266 55.4971L94.5469 56.8438L94.582 56.8789L96.3281 58.7773L98.2148 60.5469L100.125 62.3398L101.678 63.7617L101.941 62.0391V62.0039L101.953 61.9688L102.445 59.543L102.398 57.0352L102.387 56.9062L102.41 56.7773L102.809 54.3047L102.914 51.6914V51.5625L102.949 51.4336L103.5 48.8438L104.057 46.1777L103.941 44.3789V44.3672L103.93 44.3555L103.812 41.707L103.801 41.6133L103.812 41.5312L104 38.9883L104.152 39H107V39.2109L106.801 41.6719L106.918 44.1797H106.93L107.105 46.8164V46.9102L107.117 49.5469L107.129 49.7109L107.094 49.8633L106.801 51.293L106.8 51.292L106.828 51.9727L107.074 54.6094V54.6211L107.297 57.2578L107.496 59.8594L107.73 62.2852L108.34 64.875L108.398 65.1094L108.375 65.3555L108.164 67.7695L108.75 70.1367L108.773 70.2773L109.16 72.8906L109.184 73.043L109.172 73.1953L109.008 75.7266L109.219 78.1758L109.734 80.7305L109.77 80.9531L109.488 83.625L109.699 86.1797L109.711 86.3438L109.688 86.5078L109.359 88.9336L109.688 91.3828L109.699 91.4766V91.5703L109.723 94.207V94.3359L109.699 94.4766L109.266 96.9844L109.23 99.3984L109.57 101.941L109.582 102.105L109.57 102.258L109.371 104.801L109.523 107.332L109.535 107.402L109.523 107.473L109.43 110.121L109.535 112.641V112.805L109.413 114.643L110.809 114.5L110.891 114.488H110.973L112.016 114.5L112.004 116L111.98 117.5L110.984 117.488L108.477 117.746L108.254 117.77L108.031 117.734L105.57 117.242L103.145 117.254L100.648 117.688L100.496 117.711L100.332 117.699L97.6953 117.594H97.625L97.5547 117.582L95.1523 117.242L92.7617 117.711L92.5273 117.758L92.293 117.734L89.7383 117.406L87.207 117.418L87.1953 117.406L84.6055 117.488H84.5938L81.957 117.547H81.9336L79.3672 117.559L79.3789 117.57L76.7422 117.746L76.5547 117.758L73.9297 117.266L71.5391 117.547L71.4102 117.559H71.2812L68.7266 117.418L66.1719 117.582H66.043L65.9141 117.57L63.418 117.289L60.957 117.559H60.8867L58.25 117.711L58.0977 117.723L57.957 117.699L55.4141 117.348L52.9062 117.406H52.8477L50.2109 117.348V117.336H47.5742L44.9492 117.289L42.4531 117.512L42.418 117.523H42.3711L39.7344 117.617H39.6172L36.9805 117.512V117.5L34.3906 117.488H34.3438L34.2969 117.477L31.7188 117.301L29.1875 117.43H29.1055L26.4688 117.418V117.406L23.9609 117.43L21.3242 117.664L21.1836 117.676L21.0312 117.664L18.5 117.383L15.9219 117.395V117.383L13.3789 117.559H13.3672L13.3555 117.57L10.707 117.688L10.6133 117.699L10.5312 117.688L7.98828 117.5L8 117.277V114.5H8.21094L10.6719 114.699L11.4727 114.661L11.3125 112.477L11.3008 112.383L11.3125 112.289L11.4297 109.652L11.4414 109.629V109.617L11.6055 107.074L11.6172 104.449L11.3359 101.965L11.3242 101.812L11.3359 101.672L11.5586 99.0352L11.5938 96.5156L11.582 96.5273L11.5703 93.8906V93.8086L11.6992 91.2656L11.5234 88.6992L11.5117 88.6641V88.6172L11.4883 86.0156L11.3828 83.3789V83.2617L11.4766 80.625V80.5781L11.4883 80.543L11.7227 77.9297L11.9219 75.3164V75.293L12.1562 72.668L12.3438 70.0547V70.0195L12.3555 69.9961L12.6484 67.4414L12.5195 64.9453V64.793L12.543 64.6523L12.9414 62.0391V62.0039L12.9531 61.9688L13.4453 59.543L13.3984 57.0352L13.3867 56.9062L13.4102 56.7773L13.8086 54.3047L13.8818 52.5H13.4961L13.8594 50.707L14.1055 49.4297V46.9219L13.9414 44.3789V44.3672L13.9297 44.3555L13.8125 41.707L13.8008 41.6133L13.8125 41.5312L14 38.9883L14.1523 39H17V39.2109L16.8008 41.6719L16.918 44.1797H16.9297L17.1055 46.8164V46.9102L17.1104 48.1934L17.125 48.2109L17.3945 48.5273L17.7109 48.9141L17.7227 49.418L17.8281 51.9727L18.0742 54.6094V54.6211L18.2969 57.2578L18.4961 59.8594L18.7305 62.2852L18.9629 63.2734L19.0312 63.2188L20.8125 61.3906L22.5938 59.4688L22.6289 59.4336L22.6641 59.4102L24.5742 57.582L24.6328 57.5234L24.7031 57.4766L26.6602 55.9883L27.3984 55.0508L28.0781 54.1533L28.1445 52.6055V52.4766L28.168 52.3594L28.6836 49.9688L28.4492 47.5312L28.4375 47.3438L28.4609 47.1562L28.8828 44.543L29.1406 42L29.1523 41.9883V41.9766L29.457 39.3633V39.3516L29.7734 36.7266L29.9932 34.5H29.4961L29.8594 32.707L29.9463 32.252L29.9258 31.6758L29.9141 31.3711L30.0312 31.0781L30.1055 30.8848V28.9219L29.9414 26.3789V26.3672L29.9297 26.3555L29.8125 23.707L29.8008 23.6133L29.8125 23.5312L30 20.9883L30.1523 21H33V21.2109L32.8008 23.6719L32.918 26.1797H32.9297L33.1055 28.8164V28.9102L33.1123 30.6074L33.125 30.6562L33.7578 33.2461L33.7695 33.3047L33.7812 33.375L34.168 35.9883L34.1914 36.1523L34.1797 36.3047L34.0273 38.8242L34.2617 41.2148L35 43.6406L35.0703 43.8516V46.6289L35.2539 47.5811L36.6797 46.2266L36.75 46.1562L36.832 46.0977L38.7891 44.6797L40.2539 42.6992L40.4062 42.5L40.6055 42.3594L42.5586 40.9785V40.9102L42.8633 38.2852V38.2734L43.1914 35.6836H43.1797L43.4375 33.0938L43.3438 30.5977L43.332 30.3633L43.4023 30.1289L44.0938 27.7852L43.9766 25.3711V25.3008L43.9883 25.2305L44.1172 22.5938L44.1289 22.4297L44.1641 22.2773L44.8203 19.8164L45.0664 17.4375L44.8086 14.9297L44.7852 14.707L44.832 14.4844L45.3477 11.8828L46.0381 11.8799L45.9414 10.3789V10.3672L45.9297 10.3555L45.8125 7.70703L45.8008 7.61328L45.8125 7.53125L46 4.98828L46.1523 5H49V5.21094L48.8008 7.67188L48.918 10.1797H48.9297L49.1055 12.8164V12.9102L49.1172 15.5469L49.1289 15.7109L49.0938 15.8633L48.8008 17.291L49.2852 19.3359L49.3086 19.418L49.3203 19.5117L49.625 22.1367L49.6367 22.2656V22.4062L49.4727 24.9375L49.6953 27.3633L50.2812 29.8477L50.3164 30V30.1523L50.3867 32.7188L50.4473 33.082L51.6562 31.7656L51.7031 31.707L51.7617 31.6602L53.7422 29.9141L55.6875 28.1562L55.7109 28.1328L57.6914 26.3984L57.7617 26.3398L57.832 26.293L59.9414 24.8398L61.1016 24.043L61.9805 25.1562L63.4922 27.0898L65.3672 28.707H65.3789L67.4648 30.3477L67.5938 30.4414L67.6992 30.5703L69.3164 32.5156L69.4189 32.6025L69.3438 30.5977L69.332 30.3633L69.4023 30.1289L70.0938 27.7852L69.9766 25.3711V25.3008L69.9883 25.2305L70.1172 22.5938L70.1289 22.4297L70.1641 22.2773L70.8203 19.8164L70.9561 18.5H70.4961L70.8594 16.707L70.9453 16.2598L70.8086 14.9297L70.7852 14.707L70.832 14.4844L71.1055 13.1045V12.9219L70.9414 10.3789V10.3672L70.9297 10.3555L70.8125 7.70703L70.8008 7.61328L70.8125 7.53125L71 4.98828L71.1523 5ZM93.2422 59.8828L93.2539 59.8945L93.2305 62.4023L93.5703 64.9453L93.582 65.0977L93.5703 65.2617L93.3711 67.8047L93.5234 70.3359L93.5352 70.4062L93.5234 70.4766L93.4297 73.1133L93.5352 75.6445V75.7852L93.3828 78.2812L93.6289 80.8359L93.6406 80.8828V80.9414L93.7109 83.5781V86.3906L93.4648 89.0391L93.2891 91.5469L93.4531 94.0898V94.2305L93.3594 96.7148L93.7344 99.2461L93.7578 99.3984L93.7461 99.5508L93.582 102.199V102.234L93.3594 104.73L93.5586 107.262L93.5703 107.344L93.5586 107.426L93.4883 110.062V110.074L93.3828 112.57L93.5664 114.512L94.8359 114.266L95.082 114.219L95.3164 114.254L97.8945 114.605L100.273 114.711L100.475 114.676L100.312 112.477L100.301 112.383L100.312 112.289L100.43 109.652L100.441 109.629V109.617L100.605 107.074L100.617 104.449L100.336 101.965L100.324 101.812L100.336 101.672L100.559 99.0352L100.594 96.5156L100.582 96.5273L100.57 93.8906V93.8086L100.699 91.2656L100.523 88.6992L100.512 88.6641V88.6172L100.488 86.0156L100.383 83.3789V83.2617L100.477 80.625V80.5781L100.488 80.543L100.723 77.9297L100.922 75.3164V75.293L101.156 72.668L101.344 70.0547V70.0195L101.355 69.9961L101.648 67.4414L101.599 66.4854L101.051 67.1562L100.113 66.3945L100.078 66.3594L100.043 66.3359L98.0977 64.5547V64.543H98.0859L96.1641 62.7383L94.2305 60.9453L94.1836 60.8984L94.1484 60.8516L93.2432 59.8613L93.2422 59.8828ZM77.6289 45.8438L77.6406 45.8906V45.9375L77.7109 48.5742V51.3984L77.4648 54.0352L77.2891 56.543L77.4531 59.0859V59.2266L77.3594 61.7109L77.7344 64.2422L77.7578 64.3945L77.7461 64.5586L77.582 67.1953V67.2305L77.3594 69.7383L77.5586 72.2578L77.5703 72.3398L77.5586 72.4219L77.4883 75.0703V75.082L77.3828 77.5781L77.6289 80.1562L77.6406 80.332L77.6172 80.4961L77.2891 82.9922L77.418 85.5V85.6758L77.2422 88.2305L77.4062 90.7734V90.9141L77.3008 93.3516L77.7344 95.8828L77.7695 96.082L77.7578 96.2812L77.5117 98.918L77.2891 101.414L77.4766 103.934L77.7109 106.57L77.7227 106.699L77.7109 106.816L77.5 109.371L77.6523 111.902V111.996L77.6406 112.09L77.4531 114.598L77.4678 114.688L79.1797 114.582L79.2266 114.57H79.2617L81.8867 114.559V114.547L84.3867 114.491L84.3125 113.473L84.3008 113.379L84.3125 113.285L84.4297 110.648L84.4414 110.625L84.6055 108.07L84.6172 105.492L84.3359 102.961L84.3242 102.82L84.3359 102.668L84.5586 100.031L84.5938 97.5234L84.582 97.5352L84.5703 94.8867V94.8047L84.6992 92.2617L84.5234 89.707L84.5117 89.6602V89.6133L84.4883 87.0234L84.3828 84.3867V84.2695L84.4766 81.6211V81.5859L84.4883 81.5508L84.7109 79.0664L84.6641 76.4297V76.4062L84.6523 73.793L84.5938 71.1562V71.0859L84.6523 68.5664L84.3008 66.0469L84.2773 65.8945L84.2891 65.7539L84.4414 63.1055V63.0469L84.7227 60.4453L84.6289 57.9727L84.6172 57.832L84.6406 57.6914L85.0391 55.0781L85.1445 52.6055V52.4766L85.168 52.3594L85.2568 51.9443L83.4727 50.3516L83.4141 50.3047L83.3672 50.2461L81.5742 48.3008V48.2891L79.7461 46.5195L79.6758 46.4492L78.0117 44.5977L77.4746 44.1885L77.6289 45.8438ZM26.5898 59.7969L24.7266 61.5781L22.9922 63.4531L22.9688 63.4766L21.1289 65.375L21.0703 65.4453L21 65.5039L19.2373 66.9307L19.1641 67.7695L19.75 70.1367L19.7734 70.2773L20.1602 72.8906L20.1836 73.043L20.1719 73.1953L20.0078 75.7266L20.2188 78.1758L20.7344 80.7305L20.7695 80.9531L20.4883 83.625L20.6992 86.1797L20.7109 86.3438L20.6875 86.5078L20.3594 88.9336L20.6875 91.3828L20.6992 91.4766V91.5703L20.7227 94.207V94.3359L20.6992 94.4766L20.2656 96.9844L20.2305 99.3984L20.5703 101.941L20.582 102.105L20.5703 102.258L20.3711 104.801L20.5234 107.332L20.5352 107.402L20.5234 107.473L20.4297 110.121L20.5352 112.641V112.805L20.417 114.572L21.2305 114.664L23.7148 114.453L23.7617 114.441H23.8203L26.4688 114.418H26.4922L27.3818 114.422L27.3125 113.473L27.3008 113.379L27.3125 113.285L27.4297 110.648L27.4414 110.625L27.6055 108.07L27.6172 105.492L27.3359 102.961L27.3242 102.82L27.3359 102.668L27.5586 100.031L27.5938 97.5234L27.582 97.5352L27.5703 94.8867V94.8047L27.6992 92.2617L27.5234 89.707L27.5117 89.6602V89.6133L27.4883 87.0234L27.3828 84.3867V84.2695L27.4766 81.6211V81.5859L27.4883 81.5508L27.7109 79.0664L27.6641 76.4297V76.4062L27.6523 73.793L27.5938 71.1562V71.0859L27.6523 68.5664L27.3008 66.0469L27.2773 65.8945L27.2891 65.7539L27.4414 63.1055V63.0469L27.7227 60.4453L27.667 58.9912L26.5898 59.7969ZM41.0859 46.6367L40.9453 46.8359L40.7461 46.9648L38.6484 48.4648L36.8555 50.1758L35.502 51.5557L35.4922 51.8555L36.0781 54.2344L36.1016 54.4219L36.4062 57.0352L36.4297 57.1758L36.418 57.3047L36.2422 59.8828L36.2539 59.8945L36.2305 62.4023L36.5703 64.9453L36.582 65.0977L36.5703 65.2617L36.3711 67.8047L36.5234 70.3359L36.5352 70.4062L36.5234 70.4766L36.4297 73.1133L36.5352 75.6445V75.7852L36.3828 78.2812L36.6289 80.8359L36.6406 80.8828V80.9414L36.7109 83.5781V86.3906L36.4648 89.0391L36.2891 91.5469L36.4531 94.0898V94.2305L36.3594 96.7148L36.7344 99.2461L36.7578 99.3984L36.7461 99.5508L36.582 102.199V102.234L36.3594 104.73L36.5586 107.262L36.5703 107.344L36.5586 107.426L36.4883 110.062V110.074L36.3828 112.57L36.5664 114.509L37.0508 114.512H37.0977L39.6875 114.617L42.1836 114.535L42.4619 114.509L42.3125 112.477L42.3008 112.383L42.3125 112.289L42.4297 109.652L42.4414 109.629V109.617L42.6055 107.074L42.6172 104.449L42.3359 101.965L42.3242 101.812L42.3359 101.672L42.5586 99.0352L42.5938 96.5156L42.582 96.5273L42.5703 93.8906V93.8086L42.6992 91.2656L42.5234 88.6992L42.5117 88.6641V88.6172L42.4883 86.0156L42.3828 83.3789V83.2617L42.4766 80.625V80.5898L42.4883 80.543L42.7109 78.0703L42.6641 75.4219V75.4102L42.6523 72.7969L42.5938 70.1484V70.0898L42.6523 67.5703L42.3008 65.0508L42.2773 64.8984L42.2891 64.7461L42.4414 62.1094V62.0391L42.7109 59.5664L42.4297 57.0938L42.418 56.9648V56.8242L42.582 54.2578L42.4414 51.7148V51.5859L42.4531 51.4688L42.7344 49.0664L42.2773 46.6406L42.2422 46.4531L42.2539 46.2656L42.3428 44.915L41.0859 46.6367ZM59.6133 28.6953L57.6914 30.3711L57.7031 30.3828L55.7344 32.1523L55.7227 32.1641L53.7539 33.9102L52.0664 35.75L51.9609 35.8555L50.9131 36.7852L50.9844 37.875L51.3711 40.4883L51.3945 40.5938V40.7109L51.3828 43.1953L51.6289 45.8438L51.6406 45.8906V45.9375L51.7109 48.5742V51.3984L51.4648 54.0352L51.2891 56.543L51.4531 59.0859V59.2266L51.3594 61.7109L51.7344 64.2422L51.7578 64.3945L51.7461 64.5586L51.582 67.1953V67.2305L51.3594 69.7383L51.5586 72.2578L51.5703 72.3398L51.5586 72.4219L51.4883 75.0703V75.082L51.3828 77.5781L51.6289 80.1562L51.6406 80.332L51.6172 80.4961L51.2891 82.9922L51.418 85.5V85.6758L51.2422 88.2305L51.4062 90.7734V90.9141L51.3008 93.3516L51.7344 95.8828L51.7695 96.082L51.7578 96.2812L51.5117 98.918L51.2891 101.414L51.4766 103.934L51.7109 106.57L51.7227 106.699L51.7109 106.816L51.5 109.371L51.6523 111.902V111.996L51.6406 112.09L51.4697 114.374L52.8711 114.406L55.4844 114.348H55.6133L55.7305 114.359L56.4014 114.457L56.3008 113.652L56.2891 113.547V113.441L56.3359 110.805L56.3477 108.18V108.156L56.4062 105.578L56.3477 102.941V102.824L56.3594 102.695L56.7227 100.199L56.5586 97.7148L56.5703 97.7031L56.2891 95.1484L56.2773 94.9844L56.2891 94.8203L56.582 92.2891L56.5469 89.7109V88.9844L57.1094 88.5273L59.0781 86.9336L59.3477 86.7109L59.6992 86.6406L61.6211 86.2188L61.832 87.168L63.3203 88.1055L63.8711 88.457L63.9883 89.1133L64.4102 91.5977L64.4219 91.6797L64.4336 91.75L64.6094 94.3984V94.4805L64.6211 97.1289V97.2109L64.6094 97.293L64.3398 99.7773L64.5508 102.285L64.5625 102.344V102.391L64.5859 105.039V105.062L64.5742 107.699L64.6914 110.266V110.43L64.5156 113.078L64.5029 114.395L66.0898 114.582L68.457 114.439L68.3125 112.477L68.3008 112.383L68.3125 112.289L68.4297 109.652L68.4414 109.629V109.617L68.6055 107.074L68.6172 104.449L68.3359 101.965L68.3242 101.812L68.3359 101.672L68.5586 99.0352L68.5938 96.5156L68.582 96.5273L68.5703 93.8906V93.8086L68.6992 91.2656L68.5234 88.6992L68.5117 88.6641V88.6172L68.4883 86.0156L68.3828 83.3789V83.2617L68.4766 80.625V80.5898L68.4883 80.543L68.7109 78.0703L68.6641 75.4219V75.4102L68.6523 72.7969L68.5938 70.1484V70.0898L68.6523 67.5703L68.3008 65.0508L68.2773 64.8984L68.2891 64.7461L68.4414 62.1094V62.0391L68.7109 59.5664L68.4297 57.0938L68.418 56.9648V56.8242L68.582 54.2578L68.4414 51.7148V51.5859L68.4531 51.4688L68.7344 49.0664L68.2773 46.6406L68.2422 46.4531L68.2539 46.2656L68.4297 43.6172L68.5586 41.0039V40.9102L68.8633 38.2852V38.2734L69.1143 36.2871L67.2656 34.7188L67.1602 34.625L67.0781 34.5312L65.5078 32.6211L63.5273 31.0742L63.5039 31.0508L63.4805 31.0391L61.4648 29.3164L61.3594 29.2227L61.2656 29.1055L60.4805 28.1094L59.6133 28.6953ZM72.3555 30.7266L72.4375 33.1523V33.2578L72.4258 33.3516L72.168 35.9766V36.0117L71.8516 38.6133V38.625L71.5469 41.25L71.4297 43.793V43.8047L71.418 43.8164L71.2773 46.2656L71.7227 48.7266L71.7695 48.9492L71.7344 49.1719L71.4531 51.6562L71.5703 54.1992L71.582 54.2812L71.5703 54.375L71.4297 56.9062L71.7109 59.3906L71.7227 59.5547L71.7109 59.7188L71.4414 62.2734V62.2852L71.2891 64.7695L71.6406 67.2773L71.6523 67.3945V67.5117L71.5938 70.1484L71.6523 72.7266V72.75L71.6641 75.375L71.7109 78.0117V78.1758L71.4766 80.8125L71.3828 83.3789L71.4883 85.8984V85.9453L71.5117 88.5L71.6875 91.1367L71.6992 91.2188L71.6875 91.3125L71.5703 93.9492L71.582 96.5156V96.5391L71.5586 99.1758V99.2344L71.5469 99.293L71.3477 101.754L71.6172 104.273L71.6289 104.355L71.6172 104.449L71.6055 107.086V107.18L71.4297 109.816L71.3125 112.312L71.4814 114.54L73.8242 114.266L74.0586 114.23L74.2812 114.277L74.4678 114.312L74.6523 111.949L74.5117 109.418L74.5 109.324L74.5117 109.219L74.7109 106.699L74.4883 104.191V104.18L74.2891 101.531L74.2773 101.414L74.2891 101.285L74.5234 98.6484L74.7578 96.2109L74.3242 93.75L74.3008 93.5977L74.3125 93.4453L74.4062 90.9492L74.2539 88.3125L74.2422 88.2188L74.2539 88.125L74.418 85.6523L74.2891 83.0156L74.2773 82.875L74.3008 82.7461L74.6289 80.2852L74.3945 77.8008L74.3828 77.707V77.6016L74.4883 74.9648L74.5703 72.5039L74.3594 69.8555L74.3477 69.7383L74.3594 69.6094L74.5938 66.9727L74.7578 64.5234L74.3828 62.0391L74.3594 61.9102L74.3711 61.7695L74.4531 59.2734L74.3008 56.6367L74.2891 56.5312L74.3008 56.4375L74.4766 53.8008V53.7656L74.7109 51.2578V48.668L74.6406 46.125L74.3945 43.4883L74.3828 43.4062V43.3359L74.3945 40.8281L74.0195 38.3086L74.0078 38.25V38.1914L73.8438 35.6953L73.4102 33.0938L73.3984 32.9883V32.8828L73.3398 30.4219L72.9414 28.7344L72.3555 30.7266ZM88.8594 44.9414L88.8477 44.9766V45.0234L88.4609 47.4375L88.6836 49.9336L88.707 50.1562L88.6602 50.3789L88.1328 52.8984L88.0273 55.3711V55.4531L88.0039 55.5352L87.6289 58.0312L87.7109 60.5039L87.7227 60.6094L87.7109 60.7148L87.4414 63.2812V63.293L87.2891 65.7773L87.6406 68.2734L87.6523 68.3906V68.5078L87.5938 71.1562L87.6523 73.7227V73.7461L87.6641 76.3945L87.7109 79.0195V79.1719L87.4766 81.8086L87.3828 84.375L87.4883 86.8945V86.9414L87.5117 89.4961L87.6875 92.1328L87.6992 92.2266L87.6875 92.3086L87.5703 94.9453L87.582 97.5117V97.5352L87.5586 100.172V100.23L87.5469 100.289L87.3477 102.75L87.6172 105.281L87.6289 105.363L87.6172 105.445L87.6055 108.082V108.176L87.4297 110.824L87.3125 113.32L87.3955 114.417L89.832 114.406H89.9375L90.0312 114.418L90.5566 114.487L90.3945 112.805L90.3828 112.699V112.605L90.4883 109.969L90.5703 107.496L90.3594 104.859L90.3477 104.73L90.3594 104.613L90.5938 101.965L90.7578 99.5273L90.3828 97.043L90.3594 96.9023L90.3711 96.7734L90.4531 94.2656L90.3008 91.6289L90.2891 91.5352L90.3008 91.4414L90.4766 88.8047V88.7695L90.7109 86.2617V83.6602L90.6406 81.1289L90.3945 78.4805L90.3828 78.375V78.2578L90.5352 75.6445L90.4297 73.125V73.0078L90.5352 70.418L90.3711 67.8633V67.7695L90.3828 67.6641L90.5703 65.1445L90.2422 62.6953L90.2305 62.5898V62.4961L90.2539 59.8828V59.7891L90.418 57.2227L90.1367 54.8203L89.5273 52.3594L89.4805 52.1602L89.4922 51.9609L89.5742 49.4531L89.1055 47.0156L89.082 46.875V44.2852L88.9648 43.9336L88.8594 44.9414ZM15.5312 64.9453L15.6367 67.4766L15.6484 67.5938L15.6367 67.7109L15.332 70.3359L15.1445 72.9023V72.9258L14.9219 75.5273V75.5391L14.7109 78.1758V78.1992L14.4766 80.8125L14.3828 83.3789L14.4883 85.8984V85.9453L14.5117 88.5L14.6875 91.1367L14.6992 91.2188L14.6875 91.3125L14.5703 93.9492L14.582 96.5156V96.5391L14.5586 99.1758V99.2344L14.5469 99.293L14.3477 101.754L14.6172 104.273L14.6289 104.355L14.6172 104.449L14.6055 107.086V107.18L14.4297 109.816L14.3125 112.312L14.4766 114.483L15.8164 114.395H15.9102L17.4258 114.388L17.5352 112.641L17.4297 110.121V110.004L17.5352 107.508L17.3711 104.871V104.766L17.3828 104.66L17.5703 102.141L17.2422 99.6914L17.2305 99.5859V99.4805L17.2773 96.8438V96.7266L17.3008 96.6094L17.7227 94.1133L17.7109 91.6992L17.3594 89.1328L17.3359 88.9336L17.3594 88.7344L17.6992 86.2617L17.5 83.7773L17.4883 83.6484L17.5 83.5078L17.7461 81.1055L17.2656 78.668L17.2539 78.5859L17.2422 78.5156L17.0195 75.9141L17.0078 75.7969L17.0195 75.6914L17.1836 73.1719L16.832 70.8516L16.1992 68.2617L16.1406 68.0273L16.1641 67.7812L16.375 65.332L15.8242 63.0352L15.5312 64.9453ZM59.5469 90.4023L59.582 92.3242V92.418L59.5703 92.5117L59.2891 94.9961L59.5586 97.4688V97.5391L59.7109 100.176L59.7227 100.328L59.6992 100.469L59.3477 103L59.4062 105.52V105.578L59.3477 108.215L59.3359 110.84V110.852L59.2891 113.383L59.418 114.426L60.6484 114.379L61.5039 114.273L61.5156 112.961V112.867L61.6914 110.406L61.5742 107.758V107.688L61.5859 105.074L61.5625 102.543L61.3398 99.9062L61.3281 99.7539L61.3398 99.6133L61.6094 97.0703V94.5977L61.4336 91.9492H61.4219L61.1406 90.2617L60.3438 89.7578L59.5469 90.4023ZM31.8594 44.9414L31.8477 44.9766V45.0234L31.4609 47.4375L31.6836 49.9336L31.707 50.1562L31.6602 50.3789L31.1328 52.8984L31.0273 55.3711V55.4531L31.0039 55.5352L30.6289 58.0312L30.7109 60.5039L30.7227 60.6094L30.7109 60.7148L30.4414 63.2812V63.293L30.2891 65.7773L30.6406 68.2734L30.6523 68.3906V68.5078L30.5938 71.1562L30.6523 73.7227V73.7461L30.6641 76.3945L30.7109 79.0195V79.1719L30.4766 81.8086L30.3828 84.375L30.4883 86.8945V86.9414L30.5117 89.4961L30.6875 92.1328L30.6992 92.2266L30.6875 92.3086L30.5703 94.9453L30.582 97.5117V97.5352L30.5586 100.172V100.23L30.5469 100.289L30.3477 102.75L30.6172 105.281L30.6289 105.363L30.6172 105.445L30.6055 108.082V108.176L30.4297 110.824L30.3125 113.32L30.3916 114.37L31.6953 114.312L31.7773 114.301L31.8594 114.312L33.5508 114.424L33.3945 112.805L33.3828 112.699V112.605L33.4883 109.969L33.5703 107.496L33.3594 104.859L33.3477 104.73L33.3594 104.613L33.5938 101.965L33.7578 99.5273L33.3828 97.043L33.3594 96.9023L33.3711 96.7734L33.4531 94.2656L33.3008 91.6289L33.2891 91.5352L33.3008 91.4414L33.4766 88.8047V88.7695L33.7109 86.2617V83.6602L33.6406 81.1289L33.3945 78.4805L33.3828 78.375V78.2578L33.5352 75.6445L33.4297 73.125V73.0078L33.5352 70.418L33.3711 67.8633V67.7695L33.3828 67.6641L33.5703 65.1445L33.2422 62.6953L33.2305 62.5898V62.4961L33.2539 59.8828V59.7891L33.418 57.2227L33.1367 54.8203L32.5273 52.3594L32.4805 52.1602L32.4922 51.9609L32.5742 49.4531L32.1055 47.0156L32.082 46.875V44.2852L31.9648 43.9336L31.8594 44.9414ZM104.531 64.9453L104.637 67.4766L104.648 67.5938L104.637 67.7109L104.332 70.3359L104.145 72.9023V72.9258L103.922 75.5273V75.5391L103.711 78.1758V78.1992L103.477 80.8125L103.383 83.3789L103.488 85.8984V85.9453L103.512 88.5L103.688 91.1367L103.699 91.2188L103.688 91.3125L103.57 93.9492L103.582 96.5156V96.5391L103.559 99.1758V99.2344L103.547 99.293L103.348 101.754L103.617 104.273L103.629 104.355L103.617 104.449L103.605 107.086V107.18L103.43 109.816L103.312 112.312L103.46 114.262L105.664 114.242H105.816L105.969 114.266L106.428 114.355L106.535 112.641L106.43 110.121V110.004L106.535 107.508L106.371 104.871V104.766L106.383 104.66L106.57 102.141L106.242 99.6914L106.23 99.5859V99.4805L106.277 96.8438V96.7266L106.301 96.6094L106.723 94.1133L106.711 91.6992L106.359 89.1328L106.336 88.9336L106.359 88.7344L106.699 86.2617L106.5 83.7773L106.488 83.6484L106.5 83.5078L106.746 81.1055L106.266 78.668L106.254 78.5859L106.242 78.5156L106.02 75.9141L106.008 75.7969L106.02 75.6914L106.184 73.1719L105.832 70.8516L105.199 68.2617L105.141 68.0273L105.164 67.7812L105.375 65.332L104.824 63.0352L104.531 64.9453ZM46.3555 30.7266L46.4375 33.1523V33.2578L46.4258 33.3516L46.168 35.9766V36.0117L45.8516 38.6133V38.625L45.5469 41.25L45.5166 41.9043L45.8906 42.3125L45.4844 42.5957L45.4297 43.793V43.8047L45.418 43.8164L45.2773 46.2656L45.7227 48.7266L45.7695 48.9492L45.7344 49.1719L45.4531 51.6562L45.5703 54.1992L45.582 54.2812L45.5703 54.375L45.4297 56.9062L45.7109 59.3906L45.7227 59.5547L45.7109 59.7188L45.4414 62.2734V62.2852L45.2891 64.7695L45.6406 67.2773L45.6523 67.3945V67.5117L45.5938 70.1484L45.6523 72.7266V72.75L45.6641 75.375L45.7109 78.0117V78.1758L45.4766 80.8125L45.3828 83.3789L45.4883 85.8984V85.9453L45.5117 88.5L45.6875 91.1367L45.6992 91.2188L45.6875 91.3125L45.5703 93.9492L45.582 96.5156V96.5391L45.5586 99.1758V99.2344L45.5469 99.293L45.3477 101.754L45.6172 104.273L45.6289 104.355L45.6172 104.449L45.6055 107.086V107.18L45.4297 109.816L45.3125 112.312L45.4629 114.297L47.6211 114.336L47.6094 114.348H48.4648L48.6523 111.949L48.5117 109.418L48.5 109.324L48.5117 109.219L48.7109 106.699L48.4883 104.191V104.18L48.2891 101.531L48.2773 101.414L48.2891 101.285L48.5234 98.6484L48.7578 96.2109L48.3242 93.75L48.3008 93.5977L48.3125 93.4453L48.4062 90.9492L48.2539 88.3125L48.2422 88.2188L48.2539 88.125L48.418 85.6523L48.2891 83.0156L48.2773 82.875L48.3008 82.7461L48.6289 80.2852L48.3945 77.8008L48.3828 77.707V77.6016L48.4883 74.9648L48.5703 72.5039L48.3594 69.8555L48.3477 69.7383L48.3594 69.6094L48.5938 66.9727L48.7578 64.5234L48.3828 62.0391L48.3594 61.9102L48.3711 61.7695L48.4531 59.2734L48.3008 56.6367L48.2891 56.5312L48.3008 56.4375L48.4766 53.8008V53.7656L48.7109 51.2578V48.668L48.6406 46.125L48.3945 43.4883L48.3828 43.4062V43.3359L48.3945 40.8281L48.0195 38.3086L48.0078 38.25V38.1914L47.8438 35.6953L47.4102 33.0938L47.3984 32.9883V32.8828L47.3398 30.4219L46.9414 28.7344L46.3555 30.7266ZM61.9961 67.2617L63.3203 68.1055L63.8711 68.457L63.9883 69.1133L64.4102 71.5977L64.4219 71.6797L64.4336 71.75L64.6094 74.3984V74.4805L64.6211 77.1289V77.2109L64.6094 77.293L64.3281 79.9414L64.082 82.2148L63.9414 83.5391L62.6055 83.5625L59.9688 83.5859H59.6758L59.4062 83.4922L57.3906 82.707L56.4766 82.3555L56.4297 81.3828L56.3125 78.7344L56.3008 78.6523L56.3125 78.5703L56.4883 75.9219L56.5117 73.3672V73.3203L56.6172 70.6836L56.6289 70.4141L56.7344 70.168L57.6836 67.8945L57.9062 67.3672L58.4219 67.1211L59.8516 66.4297L61.9961 65.3984V67.2617ZM59.6055 71.0703L59.5117 73.4492L59.4883 76.0391V76.0859L59.4766 76.1328L59.3008 78.6875L59.3711 80.2578L60.2031 80.5742H61.2344L61.3398 79.6133L61.6094 77.0703V74.5977L61.4336 71.9492H61.4219L61.1406 70.2617L60.1914 69.6641L59.6055 71.0703ZM61.9961 46.2617L63.3203 47.1055L63.8711 47.457L63.9883 48.1133L64.4102 50.5977L64.4219 50.6797L64.4336 50.75L64.6094 53.3984V53.4805L64.6211 56.1289V56.2109L64.6094 56.293L64.3281 58.9414L64.082 61.2148L63.9414 62.5391L62.6055 62.5625L59.9688 62.5859H59.6758L59.4062 62.4922L57.3906 61.707L56.4766 61.3555L56.4297 60.3828L56.3125 57.7344L56.3008 57.6523L56.3125 57.5703L56.4883 54.9219L56.5117 52.3672V52.3203L56.6172 49.6836L56.6289 49.4141L56.7344 49.168L57.6836 46.8945L57.9062 46.3672L58.4219 46.1211L59.8516 45.4297L61.9961 44.3984V46.2617ZM59.6055 50.0703L59.5117 52.4492L59.4883 55.0391V55.0859L59.4766 55.1328L59.3008 57.6875L59.3711 59.2578L60.2031 59.5742H61.2344L61.3398 58.6133L61.6094 56.0703V53.5977L61.4336 50.9492H61.4219L61.1406 49.2617L60.1914 48.6641L59.6055 50.0703Z" fill="black"/>
</svg>
