<svg width="120" height="120" viewBox="0 0 120 120" fill="none" xmlns="http://www.w3.org/2000/svg">
<path d="M95.3164 114.254L97.8945 114.605L100.273 114.711L102.793 114.277L102.91 114.266H103.027L105.664 114.242H105.816L105.969 114.266L108.406 114.746L110.809 114.5L110.891 114.488H110.973L112.016 114.5L112.004 116L111.98 117.5L110.984 117.488L108.477 117.746L108.254 117.77L108.031 117.734L105.57 117.242L103.145 117.254L100.648 117.688L100.496 117.711L100.332 117.699L97.6953 117.594H97.625L97.5547 117.582L95.1523 117.242L92.7617 117.711L92.5273 117.758L92.293 117.734L89.7383 117.406L87.207 117.418L87.1953 117.406L84.6055 117.488H84.5938L81.957 117.547H81.9336L79.3672 117.559L79.3789 117.57L76.7422 117.746L76.5547 117.758L73.9297 117.266L71.5391 117.547L71.4102 117.559H71.2812L68.7266 117.418L66.1719 117.582H66.043L65.9141 117.57L63.418 117.289L60.957 117.559H60.8867L58.25 117.711L58.0977 117.723L57.957 117.699L55.4141 117.348L52.9062 117.406H52.8477L50.2109 117.348V117.336H47.5742L44.9492 117.289L42.4531 117.512L42.418 117.523H42.3711L39.7344 117.617H39.6172L36.9805 117.512V117.5L34.3906 117.488H34.3438L34.2969 117.477L31.7188 117.301L29.1875 117.43H29.1055L26.4688 117.418V117.406L23.9609 117.43L21.3242 117.664L21.1836 117.676L21.0312 117.664L18.5 117.383L15.9219 117.395V117.383L13.3789 117.559H13.3672L13.3555 117.57L10.707 117.688L10.6133 117.699L10.5312 117.688L7.98828 117.5L8 117.277V114.5H8.21094L10.6719 114.699L13.1797 114.582V114.57L15.8164 114.395H15.9102L18.5469 114.383L18.6406 114.371L18.7227 114.383L21.2305 114.664L23.7148 114.453L23.7617 114.441H23.8203L26.4688 114.418H26.4922L29.0469 114.43L31.6953 114.312L31.7773 114.301L31.8594 114.312L34.5078 114.488L34.4961 114.5L37.0508 114.512H37.0977L39.6875 114.617L42.1836 114.535L44.832 114.289H44.9844L47.6211 114.336L47.6094 114.348H50.2695L52.8711 114.406L55.4844 114.348H55.6133L55.7305 114.359L58.2148 114.723L60.7109 114.559V114.57L63.2891 114.289L63.4414 114.277L63.6055 114.289L66.0898 114.582L68.6328 114.43L68.7148 114.418L68.7969 114.43L71.3281 114.559L73.8242 114.266L74.0586 114.23L74.2812 114.277L76.7305 114.734L79.1797 114.582L79.2266 114.57H79.2617L81.8867 114.559V114.547L84.5234 114.488L87.1602 114.418H87.1953L89.832 114.406H89.9375L90.0312 114.418L92.4219 114.734L94.8359 114.266L95.082 114.219L95.3164 114.254ZM67.459 16.2646L70.0781 16.5625L72.6797 16.8613L72.8037 16.8691L72.9199 16.9023L75.4561 17.5986L75.5225 17.6152L75.5889 17.6484L78.0498 18.585L78.0742 18.5928L78.1074 18.6094L80.5439 19.6699L80.7588 19.7695L80.9414 19.9189L82.9297 21.6758L82.9551 21.7002L84.8779 23.4902L84.9766 23.5898L86.7256 25.5703L86.8418 25.7188L88.333 27.9072L88.5566 28.2295L88.5977 28.6191L88.75 30.3828L89.9395 30.8438L90.1631 30.9355L90.3535 31.0928L91.1133 31.7324L92.1924 31.3174L94.6621 30.3555H94.6787L97.1562 29.4189L97.2139 29.4111L97.2637 29.3945L99.543 28.7402L99.6416 28.707L99.6338 28.7148L99.6748 28.707L99.7578 29.0381L100.181 30.1074L100.72 31.5078L100.628 31.5488L100.495 31.582L98.0928 32.2783L95.7305 33.165V33.1484L93.2861 34.1182H93.2695L91.041 34.9717L88.7949 36.0566L86.8145 37.54L85.9707 38.3516L86.1113 38.5068L86.2188 38.7139L87.3701 41.1084L87.4531 41.3242L88.2236 43.8848L88.2822 44.0918V44.3066L88.3154 46.8262L88.8037 49.0049L89.9561 51.2178L89.9639 51.2432L91.1572 53.6123L91.2812 53.8525L91.3066 54.1094L91.6133 56.7197L92.1436 59.2061L92.1768 59.3223V59.4375L92.3008 61.9814L92.5996 64.6006L92.6162 64.7334L92.6074 64.874L92.417 67.4346L92.5244 69.9951L92.5332 70.2188L92.4668 70.4502L91.7793 72.9443L91.1904 75.5049L91.1572 75.6377L90.3535 78.1484L90.3125 78.2891L90.2461 78.4053L89.0439 80.6016L88.0254 83.0459L88 83.1035L87.9668 83.1699L86.708 85.5068L86.5996 85.6973L86.4512 85.8467L84.6191 87.7109L83.0537 89.708L82.9707 89.8076L82.8711 89.8906L80.9072 91.6387L79.084 93.4453L79.0264 93.5029L77.0371 95.2598L76.9541 95.3428L76.8555 95.4092L74.6094 96.8262L74.5352 96.8672L74.4688 96.9004L72.1074 98.0859L72.0078 98.1357L71.916 98.1602L69.4053 99.0303L67.1104 100.05L66.9863 100.107L66.8369 100.141L64.2598 100.729H64.2266L61.6416 101.26L61.5088 101.293H58.791V101.31L56.1475 101.45L55.9404 101.458L55.7412 101.408L53.2227 100.845L50.8359 100.58L48.3418 100.837H48.3086L48.2832 100.845L45.6895 101.003L43.2451 101.26L40.793 101.955L40.3535 102.08L39.9229 101.931L37.3867 101.102L37.1133 101.011L36.8896 100.82L34.8428 99.0889L34.3545 98.666L34.3125 98.0273L34.1387 95.3516L34.1465 95.3262V95.3096L34.0557 92.8486L33.4092 90.4287L33.4014 90.3877L33.3848 90.3379L32.8789 87.7773L32.8877 87.7695L32.374 85.4492L31.1221 83.3193L30.9814 83.0791L30.9404 82.8057L30.501 80.1787L30.4922 80.1709L29.9043 77.7256V77.6934L29.8965 77.668L29.3652 75.083L29.3486 74.9668L29.0342 72.3486L29.0176 72.2656V72.1992L28.96 69.5557V69.4893L29.0098 66.8379V66.5889L29.1006 66.3486L29.9541 63.9873L30.2852 61.5176L30.3184 61.3193L30.3936 61.1445L31.3955 58.7002L31.4043 58.6924L32.2988 56.2725L32.3652 56.0898L32.4648 55.9414L33.9395 53.8193L35.0498 51.5654L35.0918 51.4912L35.1416 51.4082L36.6084 49.1963L36.7324 49.0215L36.8818 48.8896L38.8203 47.2324L40.7432 45.3096L40.8008 45.2686L42.8564 43.6113L42.9053 43.5615L45.0439 42.0195L45.085 41.9785L45.1426 41.9541L47.3799 40.5781L49.543 39.1611L49.6172 39.1035L49.709 39.0615L52.0791 37.9014L52.1865 37.8438L52.3027 37.8105L54.8301 37.0234L54.8711 37.0146L54.9209 36.998L57.4814 36.377L57.5889 36.3516L57.6973 36.3438L60.2656 36.0947L62.876 35.7559L62.9834 35.7471H63.0996L65.7344 35.7969H65.8174L68.3867 35.9961L71.0293 36.1035H71.1953L71.3447 36.1533L73.6729 36.7246L75.9023 36.4678L78.2637 35.6973L78.4795 35.6309H78.7109L81.3877 35.5898H81.7354L82.0508 35.7393L83.5938 36.4805L84.8262 35.3027L84.8926 35.2363L87.0801 33.5957L87.1963 33.5127L87.3281 33.4463L87.5146 33.3545L86.4287 33.4697L83.8027 33.7266L83.7939 33.7344L83.7861 33.7266L78.5322 34.207H78.5156L78.4902 34.1992L75.8555 34.3809H75.7891L75.7314 34.373L73.0967 34.3232L70.5439 34.4229L70.4199 34.4307L70.3037 34.4141L67.7354 34.083L65.1914 34.0742H65.042L64.9014 34.0498L62.2988 33.5195L62.208 33.4941L62.125 33.4609L59.6143 32.624L59.5811 32.6074L59.5566 32.5996L56.9707 31.6055L56.8711 31.5391L54.584 30.2129L54.5928 30.2051L52.4131 28.9365L50.0273 27.876L49.7861 27.7686L49.5957 27.5947L47.6738 25.7549L47.5986 25.6807L46.9463 24.9521L45.4756 24.7578L45.6162 23.7061L44.9365 24.6006L44.7715 24.4678L40.2881 21.0625L45.8652 21.7832L47.1328 21.9404L49.1797 21.3193L51.251 20.1426L51.376 20.084L51.5 20.043L53.9854 19.165L54.0352 19.1484L56.5459 18.377L58.9326 17.4658L59.0068 17.4414L59.0898 17.4248L61.6504 16.7529L61.75 16.7197L61.8574 16.7119L64.4932 16.4131H64.5264L64.5674 16.4053L67.2021 16.2559H67.335L67.459 16.2646ZM78.9932 38.6143L76.6729 39.377L76.5322 39.418L76.3828 39.4346L73.7314 39.749L73.4658 39.7822L73.1924 39.708L70.748 39.0869L68.2705 38.9951H68.2373L68.2119 39.0039L65.5859 38.7969L63.125 38.7383L60.6553 39.0703L60.6299 39.0781H60.5967L58.1445 39.3105L55.6172 39.915L53.3213 40.6191L51.084 41.7129L48.9883 43.1133L48.9717 43.1299L48.9385 43.1465L46.7012 44.5059L44.6709 45.9893L42.7734 47.5225L40.8594 49.4365L38.9941 51.0186L37.6934 52.9824L36.5586 55.2783L36.5088 55.3779L36.4424 55.4609L35.042 57.4902L34.1885 59.7861L34.1719 59.8359L33.2275 62.1064L32.9121 64.542L32.8877 64.7002L32.8379 64.8486L32.001 67.1279L31.9678 69.5479L31.959 69.5391L32.0176 72.0996L32.3076 74.4775L32.8125 77.0049L32.8213 77.0137L33.4424 79.5742L33.4512 79.6318L33.4678 79.6816L33.8564 82.0264L35.0752 84.123L35.1914 84.3223L35.249 84.5625L35.8213 87.1562V87.1895L36.335 89.7578L36.9971 92.2441L37.0391 92.418L37.0469 92.5752L37.1387 95.1523L37.2705 97.207L38.5967 98.334L40.4277 98.9395L42.5498 98.3428L42.6738 98.3008L42.7979 98.293L45.4326 98.0107H45.499L48.1016 97.8457L50.7119 97.5889L50.8604 97.5723L51.0186 97.5967L53.6367 97.8789L53.7109 97.8867L53.7939 97.9033L56.1973 98.4336L58.6328 98.3174L58.6582 98.3096H58.6914L61.2432 98.2764L63.5967 97.7959L66.0078 97.2402L68.3115 96.2295L68.3701 96.2051L68.4365 96.1885L70.8555 95.3428L73.126 94.2158L75.1396 92.9316L77.0371 91.249L78.8525 89.4512L78.877 89.4268L78.9102 89.4102L80.7578 87.7607L82.3408 85.7803L82.3906 85.7139L82.4404 85.6641L84.1807 83.875L85.2578 81.8857L86.2764 79.4414L86.3428 79.3086L87.5195 77.1377L88.2988 74.7178L88.3066 74.71L88.8535 72.2734L88.8623 72.2324L88.8701 72.207L89.5166 69.8535L89.417 67.4512V67.2852L89.5996 64.7666L89.3262 62.3213V62.2715L89.3174 62.2305L89.1934 59.7529L88.6631 57.2666L88.6465 57.2002L88.6387 57.126L88.3652 54.7148L87.2793 52.585L87.2881 52.5771L86.0693 50.248L85.9785 50.0742L85.9365 49.8838L85.3486 47.29L85.3076 47.1328L85.3154 46.9756L85.2744 44.5303L84.6113 42.293L83.6084 40.2139L82.8955 39.4678L81.0898 38.5889L78.9932 38.6143ZM64 88.4531L65.207 87.7734L65.3477 88.0547L65.6289 88.3359L66.1328 88.6055L66.332 88.7109L66.4844 88.8633L66.5664 88.9336L65.5 90L65.2656 90.2227L64.7266 91.2539L64.0234 90.8789L63.8242 90.7734L63.6602 90.5977L63.0625 89.9883L62.9219 89.8477L62.8281 89.6719L62.582 89.2266L61.3398 87H64V88.4531ZM77.5586 79.4492L77.6406 79.543L77.7227 79.6602L78.4961 80.8086L78.6719 81.0781L78.7305 81.3945L78.9297 82.6602L77.8047 82.8477L76.1641 83.668L76.1172 83.5859L76.0117 83.375L75.9766 83.1523L75.8242 82.1914L75.3203 81.4531L74.9219 81.043L77.0781 78.957L77.5586 79.4492ZM68.125 78.8867L69.2031 79.1914H69.2148L70.3398 79.5312L70.3633 79.543H70.375L70.4688 79.5781L70 80.9961L69.5312 82.4258L69.4258 82.3906V82.3789L68.3594 82.0625L67.1523 81.7109L67.0352 81.6758L66.9297 81.6289L66.3555 81.3594L67.6445 78.6406L68.125 78.8867ZM83.8154 38.2002L83.8545 38.2383L83.8643 38.1699L83.8809 38.0703L83.8232 38.0107L83.8154 38.2002ZM87.7646 33.2324L87.7842 33.2227L87.7646 33.2148V33.2324ZM64.8242 19.3799L62.3301 19.6699L60.002 20.2754L57.5244 21.2109L57.4746 21.2275L57.4326 21.2363L56.3389 21.5781L58.3799 21.4961L58.4209 21.4873H58.4707L61.1143 21.5459H61.2139L61.3125 21.5625L63.873 21.9512L66.3516 21.9434H66.4336L66.5254 21.9512L69.1523 22.2578L69.2842 22.2744L69.417 22.3076L70.0547 22.498L69.6162 23.9316L69.1934 25.3652L68.6543 25.208L66.3516 24.9434L63.7158 24.96L63.5918 24.9512L63.4756 24.9346L60.9482 24.5283L58.5117 24.4785V24.4951L55.8691 24.6035L53.2422 24.7275L52.96 24.7441L52.7031 24.6533L50.6104 23.9688L50.5225 24.0205L50.373 24.1035L50.3174 24.1191L51.4688 25.2246L53.6816 26.2275L53.7637 26.2607L53.8301 26.2939L56.1006 27.6191L58.2383 28.8623L60.6338 29.7988L63.0361 30.5947L65.3896 31.0752L67.876 31.0918L67.9668 31.0996L68.0498 31.1162L70.5605 31.4062L73.0713 31.332L73.1133 31.3232L73.1543 31.332L75.7891 31.3818L78.2998 31.207L80.8857 30.9756L83.5205 30.7432L84.7881 30.6025L84.7969 29.5996L85.6602 29.4092L85.6484 29.2656L84.4219 27.4922L82.7646 25.6201L80.9414 23.9131V23.9297L79.127 22.3135L76.9141 21.3604L74.6523 20.4902L72.2158 19.8105L69.7383 19.5537L69.7295 19.5459L67.2441 19.2471L64.8242 19.3799Z" fill="black"/>
</svg>
