<svg width="120" height="120" viewBox="0 0 120 120" fill="none" xmlns="http://www.w3.org/2000/svg">
<path d="M60.5 8.98438L61.8828 8.86719L62.0586 10.8711V10.9062L62.0703 10.9414L62.1875 13.9414L62.1992 14.0234L62.1875 14.1055L62.0195 16.6885L64.2695 16.6992H64.3633L64.4453 16.7109L67.082 17.0391L67.2227 17.0508L67.375 17.0977L69.8828 17.9414L70.0703 18L70.2344 18.1055L72.3789 19.5117L74.6641 20.8242L74.8047 20.9062L74.9219 21.0117L76.8906 22.793L76.9844 22.8633L77.0547 22.957L78.7188 25.0195L78.7656 25.0664L78.8008 25.125L80.2891 27.3281L80.3945 27.4805L80.4531 27.668L81.3438 30.1641L81.3906 30.2812L82.0586 32.8359L82.0938 32.9648L82.1055 33.082L82.3125 35.4111L83.5 35.4512L86.0693 35.2959L86.1055 35.293L86.1992 33.9648L86.082 31.1289H86.0703L85.8945 29.1367L85.7539 27.4961H87.5V28.9844L88.8828 28.8672L89.0586 30.8711V30.9062L89.0703 30.9414L89.1875 33.9414L89.1992 34.0234L89.1875 34.1055L89.0967 35.4932L91.4648 35.708L93.7021 35.582L95.2412 35.4961L95.2852 37.0371L95.3594 39.6367L95.6074 42.2168L95.6182 42.3311L95.6113 42.4463L95.4639 45.0146L95.5693 47.5791L95.5713 47.6377L95.5693 47.6963L95.4727 50.2686L95.624 52.832L95.6309 52.9346L95.6221 53.0371L95.4277 55.5205L95.752 58.0059L95.7666 58.1143L95.7646 58.2227L95.7246 60.8623L95.7236 60.9785L95.7041 61.0918L95.2754 63.6035L95.3008 66.0117L95.6396 68.5625L95.666 68.7627L95.6396 68.9619L95.4502 70.3496L95.5703 70.3906L97.1406 70.9297L96.4492 72.4297L96.3672 72.6289L95.9688 73.4961H95.4707L95.5049 73.918L95.5166 74.0547L95.5029 74.1924L95.2559 76.6104L95.7314 79.0312L95.7607 79.1797L95.7588 79.3311L95.7402 81.9707L95.7393 82.0908L95.7188 82.209L95.3008 84.6943L95.4023 87.1133L95.749 89.6797L95.7822 89.9219L95.7363 90.1621L95.2754 92.5654L95.5859 94.9678L95.5996 95.0664L95.5986 95.166L95.5879 97.8066L95.5869 97.8242V97.8418L95.5127 100.473H95.5137L95.4551 103.097H95.4561L95.4268 105.736V105.777L95.4238 105.819L95.3086 107.55L95.9033 107.544V107.545L98.5273 107.486L99.7383 107.46L100.02 108.639L100.547 110.853L100.587 111.021L100.588 111.193L100.599 113.834L100.6 114.059L100.535 114.273L100.409 114.689L102.699 114.57H102.758L106.25 114.559V114.547L109.742 114.5V114.488L111.945 114.418L113.504 114.359V116H112.004L112.051 117.406L109.836 117.488H109.812L106.309 117.547H106.297L102.828 117.559L102.84 117.57L99.3359 117.746L99.1953 117.758L99.0547 117.734L97.4082 117.497L96.1621 117.736L95.9219 117.782L95.6797 117.749L93.4707 117.45L92.375 117.547L92.2812 117.559H92.1875L89.75 117.459L88.209 117.719L88.0908 117.739L87.9707 117.74L85.3311 117.759L85.1797 117.761L85.0312 117.731L83.5752 117.445L82.0713 117.311L80.1924 117.503L80.0547 117.517L79.918 117.505L79.4336 117.465L78.3125 117.559H78.2656L74.7617 117.711L74.6445 117.723L74.5391 117.711L71.0469 117.348L68.9658 117.384L67.0918 117.704L66.9785 117.724L66.8623 117.725L64.2227 117.765L64.1143 117.767L64.0059 117.752L61.5195 117.428L59.0371 117.622L58.9346 117.631L58.832 117.624L56.2676 117.473L53.6963 117.569L53.6377 117.571L53.5791 117.569L52.9375 117.543L50.1641 117.617H50.0703L48.9375 117.583L48.4463 117.611L48.3311 117.618L48.2168 117.607L47.5186 117.54L46.5664 117.512V117.5L43.0859 117.488H43.0273L40.0615 117.327L37.9355 117.521L37.9189 117.522L37.9023 117.524L35.2617 117.704L35.166 117.71L35.0693 117.704L32.5 117.549L29.9297 117.635L29.7959 117.639L29.6631 117.619L28.6631 117.472L25.6484 117.664L25.5312 117.676L25.4258 117.664L22.79 117.444L21.8799 117.46L20.2285 117.487L20.2373 117.383H18.5938L18.6055 117.395L15.0898 117.57H15.0781L11.5625 117.688L11.4922 117.699L11.4219 117.688L8.01172 117.5H8V114.5H8.1875L11.5391 114.699L14.9492 114.582V114.57L18.4531 114.395H18.5234L20.4746 114.388L20.5625 113.29L20.4854 110.743L20.3877 109.088L20.2949 107.5H22.1572L22.2139 107.504L24.6104 107.687L24.4893 106.334L24.4814 106.246L24.4844 106.158L24.5576 103.562L24.4893 100.959L24.4873 100.882L24.4932 100.805L24.6895 98.2617L24.5654 95.7129L24.5615 95.6357L24.5654 95.5596L24.6992 93.0859L24.2812 90.6094L24.2441 90.3906L24.2725 90.1699L24.5938 87.6562L24.4756 85.1514L24.3496 82.5117L24.3486 82.4766L24.3477 82.4424L24.3447 79.8018V79.6865L24.3623 79.5723L24.749 77.0635L24.6992 74.627L24.3857 72.0615L24.3662 71.9053L24.3799 71.748L24.3887 71.6396L23.875 70.9648L24.4736 70.6836L24.6055 69.207L24.501 66.6611L24.499 66.6152L24.5 66.5703L24.5527 63.9307L24.5537 63.8916L24.5557 63.8535L24.7344 61.3379L24.4873 58.8271L24.4844 58.7969L24.4824 58.7666L24.3291 56.127L24.3242 56.0361L24.3301 55.9453L24.4971 53.3047L24.6357 50.7158L24.6426 48.2305L24.2559 45.707L24.2383 45.5889L24.2393 45.4697L24.2578 42.8291V42.7852L24.2607 42.7412L24.4287 40.1982L24.252 37.6641L24.165 36.4229L25.3691 36.1084L27.7021 35.501L27.9434 35.4375L28.1924 35.4561L30.7334 35.6484L31.082 35.6289L31.1992 33.9648L31.082 31.1289H31.0703L30.8945 29.1367L30.7539 27.4961H32.5V28.9844L33.8828 28.8672L34.0586 30.8711V30.9062L34.0703 30.9414L34.1875 33.9414L34.1992 34.0234L34.1875 34.1055L34.0928 35.5586L35.9932 35.7139L38.5068 35.4893L38.5166 35.4883L38.5273 35.4873L38.6133 35.4805L38.6758 34.2188L38.6875 34.1133L38.6992 34.0195L39.1914 31.418L39.2031 31.3008L39.25 31.1836L40.1523 28.6875L40.2227 28.4883L40.3398 28.3242L41.793 26.2852L42.8945 23.9766L43.0469 23.6484L43.3164 23.4375L45.4141 21.7734L45.4375 21.75L45.4727 21.7383L47.5352 20.25L49.5742 18.5625L49.75 18.4219L49.9609 18.3281L52.4336 17.3086L52.668 17.2031L52.9258 17.1914L55.5156 17.0625L57.9531 16.5352L58.1055 16.5H59.0215L59.1992 13.9648L59.082 11.1289H59.0703L58.8945 9.13672L58.7539 7.49609H60.5V8.98438ZM74.957 110.553L74.9229 110.557L74.8887 110.559L73.8301 110.621L73.7266 110.636L73.6084 110.652L73.4883 110.649L73.3887 110.646L72.249 110.715L72.1006 110.724L71.9531 110.703L71.2266 110.602L70.8809 110.595L68.2734 110.652L68.2607 110.653H68.249L65.624 110.668L65.625 110.669L62.9844 110.713L62.9062 110.714L62.8281 110.707L60.2285 110.477L57.8721 110.389L56.4521 110.515L56.4141 110.518L56.376 110.52L53.7363 110.618L53.6777 110.62L53.6182 110.618L51.9365 110.548L49.8623 110.69L49.7764 110.696L49.6904 110.692L47.0957 110.571L44.4893 110.588H44.4629L41.8232 110.558H41.7676L41.7119 110.553L40.125 110.416L38.3213 110.437L36.7246 110.613L36.6387 110.623H36.5527L35.8359 110.619L35.3281 110.663L35.1816 110.676L35.0352 110.659L34.6162 110.612L33.9121 110.609H33.8662L33.8203 110.606L31.208 110.431V110.432L30.3057 110.388L29.9795 110.39L27.3799 110.563L27.3662 110.564L27.3516 110.565L24.7119 110.691L24.6191 110.696L24.5264 110.689L23.4814 110.609L23.4824 110.613L23.4834 110.635L23.5635 113.274L23.5664 113.356L23.5596 113.438L23.4805 114.432L24.5449 114.414L27.1465 114.252L27.3027 114.242L27.457 114.265L28.7607 114.455L28.9648 114.441H29.0469L32.5625 114.418H32.5742L36.0312 114.43L39.5352 114.312L39.6055 114.301L39.6641 114.312L39.9502 114.326L40.3047 114.295L40.3721 114.289L40.4385 114.288L43.0791 114.286H43.1006L43.123 114.287L45.7627 114.362L45.8125 114.363L45.8633 114.368L47.6934 114.543L48.8984 114.579L50.9141 114.465L50.9873 114.461L51.0615 114.464L53.0859 114.545L53.5273 114.535L57.043 114.289H57.1602L60.6641 114.336L60.6523 114.348H64.1797L67.6602 114.406L68.6797 114.389L69.2275 114.296L69.3613 114.273L69.4961 114.275L72.1357 114.303L72.2266 114.304L72.3174 114.315L74.7588 114.64L77.1982 114.309L77.3594 114.286L77.5225 114.3L79.4873 114.46L81.5938 114.289L81.7109 114.277L81.8398 114.289L81.9971 114.303L82.5273 114.249L82.75 114.227L82.9688 114.27L84.0596 114.482L85.1914 114.582L88.6602 114.43L88.7305 114.418L88.7891 114.43L89.5117 114.457L90.3516 114.316L90.5059 114.29L90.6631 114.297L93.3027 114.407L93.3721 114.41L93.4404 114.42L93.5547 114.435L95.6211 114.254L95.7852 114.242L95.9609 114.266L97.3174 114.459L97.3457 114.454L97.5977 113.622L97.5879 111.382L97.3809 110.513L95.9531 110.544H95.9365L93.3242 110.572L92.6143 110.619L92.2754 110.791L91.8262 110.739L91.458 110.696L90.7393 110.744L90.5498 110.757L90.3623 110.722L88.9834 110.462L86.7969 110.574L86.7129 110.579L86.6299 110.574L85.7578 110.521L85.5332 110.548L85.4092 110.562L85.2832 110.557L83.667 110.474L81.6084 110.707L81.4463 110.726L81.2832 110.708L80.1035 110.584L80.04 110.588L79.9111 110.573L78.752 110.441L78.6836 110.435L77.0176 110.335L74.957 110.553ZM42.2852 73.4375L42.2734 73.4258L39.7188 73.707L39.5547 73.7305L39.3906 73.707L36.9062 73.4141L34.375 73.5781H34.1992L31.7266 73.4375L29.1719 73.7422L28.9492 73.7656L28.7266 73.7188L27.583 73.5059L27.6855 74.3379L27.6953 74.4131L27.6963 74.4893L27.751 77.1289L27.7529 77.2598L27.7334 77.3877L27.3447 79.9141L27.3467 82.3877L27.4727 85.0088V85.0098L27.5957 87.6504L27.6016 87.7803L27.585 87.9102L27.2754 90.3301L27.6846 92.751L27.7129 92.9141L27.7031 93.0811L27.5645 95.6484L27.6895 98.207L27.6943 98.3018L27.6875 98.3945L27.4902 100.959L27.5576 103.521L27.5586 103.562L27.5576 103.603L27.4854 106.159L27.5947 107.382L28.5264 107.311L28.6191 107.304L28.7119 107.309L30.3799 107.388L32.5527 107.377H32.6387L32.7246 107.387L33.9258 107.519L33.9883 105.98H34L34.0117 103.391V103.344L34.0234 103.297L34.1875 100.719L34.0703 98.1875V98.1055L34.082 95.4688L34.0586 92.9609L33.8359 90.3242L33.8242 90.1836L33.8359 90.0312L34.1055 87.5V84.9219L33.9414 82.3789V82.3672L33.9297 82.3555L33.8125 79.707L33.8008 79.6133L33.8125 79.5312L34 76.9883L34.1992 77H35V76H35.2109L37.6719 76.1992L40.1797 76.082V76.0703L42.8164 75.8945H42.9102L45.5469 75.8828L45.6406 75.8711L45.7227 75.8828L48.2305 76.1641L50.7148 75.9531L50.7617 75.9414H50.8203L53.4688 75.918H53.4922L56.0469 75.9297L58.6953 75.8125L58.7773 75.8008L58.8594 75.8125L61.5078 75.9883L61.4961 76L64.0508 76.0117H64.0977L66.6875 76.1172L69.1836 76.0352L71.832 75.7891H71.9844L74.6211 75.8359L74.6094 75.8477H77.2695L79.8711 75.9062L82.4844 75.8477H82.6133L82.7422 75.8711L85.2148 76.2344L85.0391 77.5H86.5039V79.457L84.8379 79.207L84.8008 79.6719L84.918 82.1797H84.9297L85.1055 84.8164V84.9102L85.1172 87.5469L85.1289 87.6406L85.1172 87.7227L84.8359 90.2305L85.0469 92.7148L85.0586 92.7617V92.8203L85.082 95.4688V95.4922L85.0703 98.0469L85.1875 100.695L85.1992 100.777L85.1875 100.859L85.0117 103.508L85 103.496L84.9883 106.051V106.098L84.9326 107.466L85.6807 107.511L87.8262 107.261L88.0527 107.234L88.2773 107.276L89.1875 107.447L89.2832 107.443L89.4092 107.438L89.5332 107.452L91.5332 107.686L91.8018 107.667L92.3115 107.409L92.4268 105.676L92.4561 103.063V103.047L92.5137 100.407L92.5146 100.398L92.5879 97.7578L92.5977 95.252L92.2695 92.7129L92.2393 92.4736L92.2842 92.2383L92.7432 89.8369L92.4199 87.4404L92.4102 87.3721L92.4072 87.3027L92.2969 84.6631L92.29 84.5059L92.3164 84.3516L92.7402 81.8281L92.7568 79.46L92.2695 76.9688L92.2266 76.75L92.249 76.5273L92.5039 74.0215L92.4453 73.3125L92.3945 73.3086L89.8047 73.4141L89.8164 73.4258L87.1797 73.6016L87.1328 73.6133H87.0859L84.4492 73.625H84.3555L84.2734 73.6133L81.7656 73.332L79.293 73.5547H79.1758L76.5391 73.5898H76.5156L73.9258 73.5664L71.3125 73.6953H71.1367L68.582 73.5078L65.9453 73.4844H65.8984L63.3086 73.3789L60.7305 73.4844L60.7188 73.4727L58.1758 73.707L58.0938 73.7188L58.0117 73.707L55.375 73.6719V73.6602L52.75 73.6484H52.7266L50.1133 73.5898L47.5117 73.6484H47.3945L47.2773 73.6367L44.7695 73.2852L42.2852 73.4375ZM72.8008 79.6719L72.918 82.1797H72.9297L73.1055 84.8164V84.9102L73.1172 87.5469L73.1289 87.6406L73.1172 87.7227L72.8359 90.2305L73.0469 92.7148L73.0586 92.7617V92.8203L73.082 95.4688V95.4922L73.0703 98.0469L73.1875 100.695L73.1992 100.777L73.1875 100.859L73.0117 103.508L73 103.496L72.9883 106.051V106.098L72.9258 107.637L73.3232 107.646L73.5352 107.633L75.9531 107.297L76.1006 107.276L76.249 107.285L76.9521 107.326L77.2832 107.292L77.4463 107.274L77.6084 107.293L79.168 107.469L80.1631 107.574L81.9287 107.468L81.9883 105.98H82L82.0117 103.391V103.344L82.0234 103.297L82.1875 100.719L82.0703 98.1875V98.1055L82.082 95.4688L82.0586 92.9609L81.8359 90.3242L81.8242 90.1836L81.8359 90.0312L82.1055 87.5V84.9219L81.9414 82.3789V82.3672L81.9297 82.3555L81.8125 79.707L81.8008 79.6133L81.8125 79.5312L81.8604 78.8691L79.9062 78.9062H79.8477L77.2109 78.8477L74.5859 78.8359H74.5742L72.8701 78.8125L72.8008 79.6719ZM56.1875 78.9297H56.1055L53.4688 78.918L50.9609 78.9414L48.8447 79.1191L48.8008 79.6719L48.918 82.1797H48.9297L49.1055 84.8164V84.9102L49.1172 87.5469L49.1289 87.6406L49.1172 87.7227L48.8359 90.2305L49.0469 92.7148L49.0586 92.7617V92.8203L49.082 95.4688V95.4922L49.0703 98.0469L49.1875 100.695L49.1992 100.777L49.1875 100.859L49.0117 103.508L49 103.496L48.9883 106.051V106.098L48.9316 107.49L51.0547 107.511L51.1016 107.513L51.8945 107.545L52.2979 107.518L52.3418 107.515H52.3857L54.9951 107.49L57.6182 107.382L57.6777 107.38L57.7363 107.382L57.7988 107.384L57.9326 107.371L57.9883 105.98H58L58.0117 103.391V103.344L58.0234 103.297L58.1875 100.719L58.0703 98.1875V98.1055L58.082 95.4688L58.0586 92.9609L57.8359 90.3242L57.8242 90.1836L57.8359 90.0312L58.1055 87.5V84.9219L57.9414 82.3789V82.3672L57.9297 82.3555L57.8125 79.707L57.8008 79.6133L57.8125 79.5312L57.8623 78.8516L56.1875 78.9297ZM40.3789 79.0586H40.3672L40.3555 79.0703L37.707 79.1875L37.6133 79.1992L37.5312 79.1875L36.8438 79.1367L36.8008 79.6719L36.918 82.1797H36.9297L37.1055 84.8164V84.9102L37.1172 87.5469L37.1289 87.6406L37.1172 87.7227L36.8359 90.2305L37.0469 92.7148L37.0586 92.7617V92.8203L37.082 95.4688V95.4922L37.0703 98.0469L37.1875 100.695L37.1992 100.777L37.1875 100.859L37.0117 103.508L37 103.496L36.9883 106.051V106.098L36.9307 107.514L37.7119 107.447L37.7676 107.442H37.8232L38.1484 107.438L39.0352 107.341L39.1816 107.324L39.3281 107.337L40.2324 107.414L40.4629 107.412H40.4893L43.0957 107.429L45.6904 107.308L45.7764 107.304L45.8623 107.31L45.9346 107.314L45.9883 105.98H46L46.0117 103.391V103.344L46.0234 103.297L46.1875 100.719L46.0703 98.1875V98.1055L46.082 95.4688L46.0586 92.9609L45.8359 90.3242L45.8242 90.1836L45.8359 90.0312L46.1055 87.5V84.9219L45.9414 82.3789V82.3672L45.9297 82.3555L45.8125 79.707L45.8008 79.6133L45.8125 79.5312L45.8564 78.9316L45.5 78.8945H42.9219L40.3789 79.0586ZM60.8008 79.6719L60.918 82.1797H60.9297L61.1055 84.8164V84.9102L61.1172 87.5469L61.1289 87.6406L61.1172 87.7227L60.8359 90.2305L61.0469 92.7148L61.0586 92.7617V92.8203L61.082 95.4688V95.4922L61.0703 98.0469L61.1875 100.695L61.1992 100.777L61.1875 100.859L61.0117 103.508L61 103.496L60.9883 106.051V106.098L60.9385 107.319L61.625 107.331L61.624 107.332L64.249 107.347H64.2607L64.2734 107.348L66.8809 107.405L69.4883 107.351L69.6084 107.348L69.7266 107.364L69.9316 107.393L69.9883 105.98H70L70.0117 103.391V103.344L70.0234 103.297L70.1875 100.719L70.0703 98.1875V98.1055L70.082 95.4688L70.0586 92.9609L69.8359 90.3242L69.8242 90.1836L69.8359 90.0312L70.1055 87.5V84.9219L69.9414 82.3789V82.3672L69.9297 82.3555L69.8125 79.707L69.8008 79.6133L69.8125 79.5312L69.8525 78.9775L69.4531 79.0117L69.418 79.0234H69.3711L66.7344 79.1172H66.6172L63.9805 79.0117V79L61.3906 78.9883H61.3438L61.2969 78.9766L60.8584 78.9482L60.8008 79.6719ZM58.2695 58.6484L58.1289 58.7422L57.9766 58.8008L55.5977 59.6562L53.4414 60.9219L53.2539 61.0391L53.0312 61.0859L50.5234 61.6836L48.4258 62.668L46.293 64.1094L46.1641 64.2031L46.0234 64.2617L43.5742 65.2578L43.5156 65.2812L43.4453 65.3047L41.1133 66.0078L39.1445 67.4258L38.9453 67.5664L38.7109 67.6367L36.2734 68.3867L33.9648 69.4531L31.9023 70.4492L34.2578 70.5664L36.8242 70.4258L36.9648 70.4141L37.0938 70.4258L39.5195 70.6953L42.0391 70.4492H42.0742L42.1094 70.4375L44.7461 70.2852L44.8984 70.2734L45.0508 70.2969L47.5703 70.6367L50.0898 70.5898H50.1484L52.7969 70.6484H52.7852L55.4102 70.6719H55.4219L57.9297 70.707L60.543 70.4844H60.625L63.2617 70.3789H63.3789L66.0156 70.4844H66.0039L68.6172 70.5195H68.6992L71.2656 70.6836L73.8086 70.5781L73.8555 70.5664H73.8906L76.5039 70.5781L79.1406 70.5547L81.6719 70.332L81.8125 70.3203L81.9648 70.3438L84.4844 70.6133H86.9805L87.7305 70.5547L85.4688 69.4414L85.4219 69.418L85.3867 69.3945L83.1719 68.1172L80.8281 67.2148L80.6875 67.1445L78.4492 66.0078L76 65L75.9297 64.9648L75.8711 64.9297L73.6211 63.7344L71.2305 62.8672L71.0898 62.8086L70.9609 62.7266L68.8164 61.3906L66.6016 60.4062L64.1055 59.75L63.9766 59.7148L63.8477 59.6562L61.457 58.5312L61.4336 58.5195L61.4219 58.5078L59.793 57.6758L58.2695 58.6484ZM83.6104 38.4492L83.54 38.4541L83.4707 38.4512L80.9609 38.3691L78.457 38.7354L78.3027 38.7578L78.1465 38.748L77.2139 38.6895L77.0195 38.707L76.9375 38.7188L76.8672 38.707L74.2188 38.6719V38.6602L71.5938 38.6484H71.5703L68.957 38.5898L66.3555 38.6484H66.2383L66.1211 38.6367L64.6484 38.4287L62.541 38.6279L62.3721 38.6436L62.2031 38.6221L60.9033 38.4502L58.5625 38.707L58.3984 38.7305L58.2344 38.707L55.75 38.4141L53.2188 38.5781H53.0547L50.582 38.4375L48.0156 38.7422L47.793 38.7656L47.5703 38.7188L47.2637 38.6611L46.8145 38.7393L46.6201 38.7734L46.4238 38.7549L43.7832 38.5137L42.7402 38.4199L42.6602 38.4258H39.4629L38.7529 38.4795H38.752L36.1328 38.7129L36.0059 38.7236L35.8789 38.7139L33.3359 38.5088L30.8027 38.6484L30.7051 38.6533L30.6074 38.6465L28.2139 38.4668L27.3301 38.6982L27.4277 40.0957L27.4346 40.1973L27.4287 40.2988L27.2559 42.8994L27.2393 45.373L27.626 47.8926L27.6436 48.0078L27.6426 48.125L27.6348 50.7646V50.8018L27.6328 50.8398L27.4922 53.4795V53.4873L27.4912 53.4951L27.3291 56.0479L27.4756 58.5693L27.7324 61.1729L27.7451 61.2998L27.7363 61.4268L27.5508 64.0391L27.5 66.585L27.6064 69.1787L27.6074 69.2061L27.9297 69.0547L30.3086 67.9062L32.6641 66.7461H32.6875L32.6992 66.7344L35.1016 65.6211L35.1836 65.5859L35.2891 65.5508L37.5859 64.8359L39.5898 63.418L39.7891 63.2773L40.0234 63.207L42.5195 62.4453L44.7695 61.5312L46.832 60.125L46.9258 60.0664L47.043 60.0078L49.4336 58.8945L49.5742 58.8359L49.7148 58.8008L52.1172 58.2148L54.2148 56.9961L54.332 56.9258L54.4609 56.8789L56.793 56.0352L58.9141 54.6992L59.6289 54.2422L60.3906 54.6289L62.7344 55.8125L64.9961 56.8789L67.457 57.5352L67.5742 57.5703L67.6797 57.6172L70.0938 58.6719L70.1992 58.7188L70.293 58.7773L72.4375 60.1133L74.7578 60.957L74.8516 60.9922L74.9453 61.0391L77.2305 62.2461L79.5859 63.2305L79.6445 63.2539L79.6914 63.2773L81.9648 64.4258L84.3789 65.375L84.4844 65.4102L84.5898 65.4688L86.875 66.793L89.1133 67.8945L91.5039 68.9844L92.5586 69.3545L92.6396 68.7598L92.3154 66.3174L92.3037 66.2266L92.3027 66.1357L92.2754 63.4961L92.2734 63.3613L92.2959 63.2275L92.7266 60.6982L92.7627 58.2852L92.4336 55.7539L92.4131 55.5986L92.4248 55.4434L92.623 52.9053L92.4736 50.3682L92.4697 50.2959L92.4727 50.2236L92.5684 47.6455L92.4639 45.0615L92.4609 44.9873L92.4648 44.9141L92.6094 42.3857L92.3682 39.8633L92.3633 39.8125L92.3623 39.7627L92.3301 38.6641L91.5234 38.709L91.4141 38.7148L91.3047 38.7051L88.665 38.4668L86.1553 38.2959L83.6104 38.4492ZM74.6211 41.8359L74.6094 41.8477H77.2695L79.8711 41.9062L82.4844 41.8477H82.6133L82.7422 41.8711L85.2148 42.2344L85.0391 43.5H86.5039V45.457L84.7812 45.1992L82.3906 44.8594L79.9062 44.9062H79.8477L77.2109 44.8477L74.5859 44.8359H74.5742L71.9492 44.8008L69.4531 45.0117L69.418 45.0234H69.3711L66.7344 45.1172H66.6172L63.9805 45.0117V45L61.3906 44.9883H61.3438L61.2969 44.9766L58.7188 44.8125L56.1875 44.9297H56.1055L53.4688 44.918L50.9609 44.9414L48.3242 45.1641L48.1836 45.1758L48.0312 45.1641L45.5 44.8945H42.9219L40.3789 45.0586H40.3672L40.3555 45.0703L37.707 45.1875L37.6133 45.1992L37.5312 45.1875L34.9883 45L35 44.7773V42H35.2109L37.6719 42.1992L40.1797 42.082V42.0703L42.8164 41.8945H42.9102L45.5469 41.8828L45.6406 41.8711L45.7227 41.8828L48.2305 42.1641L50.7148 41.9531L50.7617 41.9414H50.8203L53.4688 41.918H53.4922L56.0469 41.9297L58.6953 41.8125L58.7773 41.8008L58.8594 41.8125L61.5078 41.9883L61.4961 42L64.0508 42.0117H64.0977L66.6875 42.1172L69.1836 42.0352L71.832 41.7891H71.9844L74.6211 41.8359ZM55.9961 20.0156L55.8906 20.0391L55.7734 20.0508L53.3242 20.168L51.3086 21.0117L49.4336 22.582L49.3867 22.6172L49.3516 22.6406L47.2188 24.1758L45.4375 25.5703L44.4531 27.6797L44.4062 27.8086L44.3242 27.9141L42.8945 29.9062L42.0977 32.1094L41.6641 34.4648L41.6328 35.3096L42.7344 35.4082L45.1094 35.25L45.2969 35.2383L45.4844 35.2734L47.2764 35.6152L48.9453 35.3281L49.0986 35.3018L49.2549 35.3076L51.8271 35.4023L54.3916 35.251L54.4854 35.2451L54.5781 35.251L57.124 35.4189L59.6826 35.2871L59.8203 35.2803L59.957 35.2988L60.9893 35.4346L63.6016 35.2852L63.7422 35.2734L63.8945 35.2969L64.7256 35.4082L64.8994 35.3926L64.9971 35.3828L65.0957 35.3867L67.7246 35.4854L67.7256 35.4844L70.29 35.5625L72.8408 35.3594L72.9658 35.3496L73.0908 35.3604L75.709 35.5908L77.1035 35.6777L78.9062 35.5195L79.2812 35.2031L79.1172 33.4688L78.5195 31.1719L77.6875 28.8281L76.3867 26.9062L74.793 24.9375L73.0352 23.3438L70.8789 22.1133L70.8086 22.0664L68.7461 20.7188L66.5664 19.9922L64.1641 19.6875H61.5391L58.9961 19.5117H58.9141L58.832 19.5H58.457L55.9961 20.0156Z" fill="black"/>
</svg>
