<svg width="120" height="120" viewBox="0 0 120 120" fill="none" xmlns="http://www.w3.org/2000/svg">
<path d="M66.332 14.8652L68.793 15.8613L68.9688 15.9316L69.1211 16.0371L71.2422 17.5957L71.418 17.7246L71.5469 17.8887L73.1406 19.9746L73.1523 19.9863L73.1641 20.0098L74.7227 22.1309L74.8047 22.248L74.8633 22.377L75.9648 24.7559L76.0234 24.8613L76.0586 24.9785L76.7617 27.5098L76.7852 27.5684L76.7969 27.627L77.3008 30.2402L77.3477 30.4746L77.3125 30.7207L76.9609 33.3574L76.6094 35.959V36.0059L76.1875 38.4785L76.1162 39.4004L76.498 39.2881L78.3965 37.8584L78.4434 37.8115L78.502 37.7764L80.7402 36.3701L80.8574 36.2881L80.9863 36.2412L83.623 35.1865L83.8223 35.1631L86.3887 34.8467L88.9902 34.4131L89.1777 34.3779L89.3535 34.3896L92.002 34.6006L92.1309 34.6123L92.2715 34.6475L94.8262 35.3389L94.9668 35.3857L97.4512 36.335L97.6504 36.4053L97.8145 36.5342L99.959 38.1162L100.029 38.1748L100.1 38.2451L101.998 40.0732L102.268 40.3428L102.385 40.7061L103.146 43.1084L103.287 43.5654L103.135 44.0225L102.35 46.4834L102.314 46.5771L102.268 46.6709L101.107 49.0732L101.072 49.1553L101.014 49.2373L100.748 49.6416L100.906 49.6973L100.93 49.709H100.941L103.414 50.6465L103.672 50.7402L103.883 50.9277L105.734 52.5918L106.215 53.0254L106.227 53.6582L106.309 56.2949V56.459L106.285 56.6113L105.805 59.1309L105.758 59.3887L105.629 59.6113L104.293 61.8848L104.223 61.9902L104.141 62.084L102.441 64.1113L102.301 64.252L100.344 66.0332L100.297 66.0801L100.25 66.1152L98.1406 67.7441L97.9883 67.8613L97.8008 67.9316L95.3516 68.9629L95.293 68.9863L95.2227 68.998L92.7031 69.7949L92.5859 69.8418L92.457 69.8535L89.8438 70.2051L87.3008 70.5449L85.9961 70.8799L86.2344 71.2295L88.1211 72.6943L88.168 72.7295L88.2031 72.7764L90.1602 74.5576L90.2539 74.6514L90.3359 74.7568L91.9531 76.8662L92.0586 77.0068L92.1406 77.1826L93.1484 79.5381L94.332 81.8936L94.4141 82.0342L94.4492 82.1982L95.1055 84.7646L95.1406 84.8936V85.0342L95.3281 87.6709V87.8584L95.1875 90.5186L95.1758 90.7295L95.1055 90.9404L94.2148 93.4482L94.1445 93.6123L92.9727 95.9678L92.8203 96.2725L92.5508 96.4834L90.5234 98.0654L90.1016 98.3936L89.5742 98.3818L87.1953 98.3467L86.8906 98.335L86.6094 98.2178L84.2793 97.1768L84.1035 98.6113L84.2207 101.084L84.2559 101.658L83.8809 102.104L82.2051 104.119L81.8887 104.506L81.3848 104.623L78.8066 105.209L78.6309 105.244H78.4434L75.8066 105.186H75.6309L75.4668 105.139L72.9238 104.494L72.877 104.482L72.8301 104.459L70.3457 103.65L70.1816 103.592L70.0293 103.51L67.791 102.139L67.6973 102.092L67.6152 102.021L65.5879 100.357L65.5293 100.311L65.4824 100.264L63.584 98.4004L63.4082 98.2246L63.291 97.9902L62.1426 95.5996L60.9707 93.2559L60.959 93.2441V93.2207L59.916 90.9707L59.2617 89.8926L59.0645 90.1553L58.502 92.417L58.4902 92.4639L58.4668 92.5225L57.6348 95.0303L57.5879 95.1475L57.5293 95.2646L56.2871 97.6084L56.1934 97.7607L56.0762 97.9014L54.3301 99.8115L54.3418 99.8232L52.6543 101.851L52.5254 102.003L52.3613 102.12L50.1934 103.644L50.041 103.749L49.877 103.808L47.2988 104.839L47.1699 104.862L44.5566 105.401L44.3105 105.448L44.0762 105.425L41.4277 105.108L41.2285 105.085L41.0527 105.003L38.627 104.03L38.2402 103.878L37.9941 103.538L36.4355 101.452L36.3418 101.323L36.2832 101.194L35.1699 98.8154L35.0996 98.6514L34.54 96.9482L32.9434 96.9736H32.8613L32.7676 96.9619L30.1895 96.7158L30.0723 96.7041L29.9551 96.6807L27.4004 96.001L26.9551 95.8838L26.6504 95.5322L24.9277 93.5283L24.7637 93.3408L24.6699 93.1182L23.6738 90.6689L23.5566 90.3994V90.1064L23.5332 87.458V87.3643L23.5449 87.2822L23.8262 84.6455L23.8496 84.4814L24.4238 81.8916L24.4473 81.7744L24.4824 81.6689L25.4551 79.1846L25.4902 79.0674L25.5488 78.9736L26.8965 76.6533L26.9902 76.5127L27.1074 76.3838L28.9355 74.4502L28.9473 74.4268L30.834 72.54L30.9629 72.3994L31.127 72.3057L33.4004 70.9463L33.4238 70.9346L33.4473 70.9111L33.9775 70.6191L32.8457 70.8604L32.7285 70.8838H32.623L29.9863 71.0479H29.834L29.6934 71.0361L27.0684 70.6729L26.9043 70.6494L24.3496 70.0049L24.1738 69.958L24.0215 69.8877L21.6895 68.6924L21.6426 68.6689L21.5957 68.6338L19.3574 67.2861L19.2051 67.1924L17.2246 65.2119L17.1426 65.1182L17.0723 65.0244L15.5254 62.9033L15.502 62.8682L15.4668 62.8213L14.0723 60.5596L13.9434 60.3604L13.8848 60.126L13.252 57.5361L13.2285 57.3955L12.8652 54.8408L12.8066 54.3721L13.0176 53.9502L14.166 51.6885L14.3887 51.2432L14.8223 51.0205L17.2129 49.8135L17.377 49.7432L18.5859 49.3135L18.3594 48.7969L17 46.7109L16.8242 46.4414L16.7773 46.125L16.3555 43.5117L16.2969 43.0781L16.4609 42.6914L17.4922 40.2539L17.6094 39.9844L17.8086 39.7852L19.6602 37.9102L19.8359 37.7344L20.0586 37.6289L22.4141 36.4688L22.4609 36.4336L22.5195 36.4219L24.957 35.4492L25.1094 35.3906L25.2617 35.3672L27.8516 34.9453L27.957 34.9219H28.0742L30.6992 34.875H30.8281L33.4766 35.0625L33.7227 35.0859L33.9453 35.168L36.3945 36.1758L36.4062 36.1875L38.832 37.1836L38.8672 37.1953L38.9023 37.2188L41.2812 38.3438L41.3633 38.3789L41.4453 38.4258L43.3428 39.6152L43.3164 39.2637L42.5898 36.8965L42.5781 36.8496V36.8145L41.957 34.2246L41.8867 33.9434L41.9336 33.6504L42.3086 31.0957L42.2617 28.5996V28.3652L42.332 28.1426L43.0938 25.6113V25.5996L43.1055 25.5762L43.9375 23.0684L44.0195 22.834L44.1719 22.6348L45.7773 20.5254L47.2539 18.416L47.3477 18.2754L47.4766 18.1582L49.4688 16.3887L49.6797 16.2012L49.9375 16.0957L52.4336 15.1699L52.7617 15.0527L53.1133 15.0879L55.5391 15.334L56.0312 15.3809L56.4062 15.7207L58.3164 17.4668L58.3398 17.4785L58.3516 17.4902L59.4531 18.5566L60.543 17.8652L62.1367 16.0723L62.4062 15.7559L62.8047 15.627L65.3125 14.8301L65.8281 14.666L66.332 14.8652ZM64.1055 18.3574L62.6523 20.0215L62.5 20.1855L62.3125 20.3027L60.0508 21.7207L59.0664 22.3301L58.2227 21.5215L56.3008 19.6816L54.7422 18.2637L53.1484 18.0996L51.2266 18.8145L49.5859 20.291L48.1914 22.3066L48.1797 22.3301L48.1562 22.3535L46.7031 24.2402L45.9531 26.5254L45.2617 28.7988L45.3086 31.1895V31.3184L45.2969 31.4355L44.9336 33.8027L45.4727 36.041L46.2227 38.5723L46.2695 38.7246L46.2812 38.877L46.4922 41.4434L46.5273 41.877L46.3281 42.2754L46.1172 42.6855L45.1836 42.1934L44.5977 43.4531L44.5625 43.4297L42.3008 42.4922L42.1953 42.4453L42.0898 42.375L39.9336 41.0273L37.6836 39.9609L35.2578 38.9531L33.0078 38.0273L30.7461 37.8633L28.2031 37.9102L25.918 38.2852L23.6797 39.1758L21.6055 40.1953L20.1406 41.6836L19.3789 43.4648L19.6836 45.3516L20.9375 47.2617L21.0078 47.3672L21.0664 47.4844L22.0273 49.7109L20.5898 50.3945L21.584 51.0205L21.5254 51.1025L21.2559 51.5479L20.7637 51.7236L18.502 52.5205L16.6035 53.4814L15.9004 54.876L16.1699 56.833L16.7441 59.1885L18.0215 61.2393L19.4277 63.1729L21.0566 64.8018L23.166 66.0674L25.2402 67.1338L27.6074 67.7197L29.9395 68.0361L32.3066 67.8955L34.8145 67.3799H34.8613L37.4512 66.9111L37.8496 66.8408L38.2363 66.9814L38.5176 67.0986L38.3496 67.5557L40.1387 66.8682L40.1973 68.9893L40.209 69.4229L40.2793 71.9658L38.7324 71.1689L37.3613 72.165L37.291 72.2236L37.209 72.2705L34.9004 73.5479L34.8887 73.5361L32.8027 74.79L31.0918 76.5361L31.0801 76.5244L29.3809 78.3408L28.1855 80.4033L27.3301 82.5947L26.8145 84.9619L26.5332 87.4463L26.5449 89.7783L27.3418 91.7354L28.6191 93.2236L30.5645 93.7275L32.9316 93.9619L35.1934 93.9385L36.5293 93.915L36.7051 95.251V95.3096L35.8955 95.4043L36.0723 95.5225L37.1152 95.1826L37.8887 97.5381L38.9199 99.7646L40.1387 101.405L41.9902 102.144L44.1816 102.401L46.4668 101.933L48.6465 101.065L50.4629 99.7764L52.0332 97.9131L52.0449 97.8896L52.0684 97.8662L53.7207 96.0146L54.834 93.917L55.6191 91.5732L56.2402 89.124L56.3105 88.8311L56.498 88.5967L58.0215 86.5576L58.1387 86.6465L57.9941 85.6387L59.084 85.4746L59.4355 85.334L60.8184 84.748L60.8535 84.8301L60.9355 85.0176L60.959 85.2168L61.2754 87.4199L62.4824 89.4121L62.5293 89.4824L62.5645 89.5645L63.6777 91.9551L64.8262 94.2637L64.8379 94.2754V94.2871L65.8809 96.4551L67.5449 98.084L69.4199 99.6309L71.4355 100.85L73.7676 101.611H73.7559L76.0293 102.186L78.3027 102.232L80.2246 101.799L81.1855 100.639L81.1035 98.6113L81.0918 98.4824L81.1152 98.3535L81.4189 95.8633L80.8555 95.5928L81.5 94.2334L82.1445 92.8857L83.082 93.3311H83.0703L85.4141 94.3975L87.5469 95.3467L89.0938 95.3701L90.4297 94.3154L91.4141 92.3584L92.1875 90.1318L92.3281 87.6943L92.1523 85.3506L91.5781 83.0771L90.4648 80.8857L90.4531 80.8389L90.4297 80.8037L89.4336 78.5186L88.0508 76.6904L86.2695 75.0615L84.1953 73.4326L84.0195 73.292L83.8906 73.1045L82.6572 71.2979L81.8398 71.3301H81.7344L81.6172 71.3184L80.2109 71.166L78.875 71.0254V69.5254H80.3867L80.5391 68.1895L81.8047 68.3184L84.2539 68.2246L86.6562 67.6152L86.75 67.5918L86.832 67.5801L89.4453 67.2285L91.9297 66.8887L94.25 66.1504L96.4648 65.2363L98.4219 63.7363L100.18 62.1191L101.785 60.209L102.887 58.3223L103.297 56.1895L103.238 54.3848L102.078 53.3418L99.8867 52.5215V52.5098L97.5664 51.7129L97.2031 51.584L96.9453 51.3027L96.875 51.2207L97.543 50.6279L96.8301 50.0576L97.1582 49.6475L98.4473 47.6787L99.502 45.499L100.135 43.542L99.6426 41.96L98.0137 40.4014H98.002L96.1973 39.0537L93.9824 38.21L91.6152 37.5889L89.2598 37.4014L86.8809 37.7998H86.8457L86.8223 37.8115L84.3848 38.1162L82.2051 38.9834L80.1074 40.3193L78.1035 41.8428L77.8809 42.0186L77.623 42.0889L75.6816 42.6611L75.4609 43.7637V43.7754L72.4844 43.3535L72.5078 43.248V43.2129L72.5195 43.166L73 40.7285L73.1992 38.2559V38.1855L73.6445 35.5137L73.9844 32.959L74.3008 30.5332L73.8438 28.2012V28.1895L73.1875 25.916L72.2031 23.7715L70.7734 21.8027L69.2852 19.8809L67.4922 18.5684L65.7109 17.8418L64.1055 18.3574ZM58.8848 73.4912L59.5527 73.4795L61.0527 73.4326V73.6436L61.041 73.7607L60.7949 75.7295L60.9707 77.6279L61.2637 78.5654L61.7441 80.1826L60.0801 80.4756L59.9746 80.4873L59.7168 79.0107L58.3926 79.4209L58.0645 78.3428L58.0293 78.2139L58.0059 78.0615L57.7949 75.835L57.7832 75.6709L57.8066 75.5068L58.0645 73.3975L58.8848 73.4912ZM59.1328 42.1982L60.5156 42.21L60.6211 43.5928L60.9727 48.8662V48.96L60.9844 51.6084V51.6904L60.9727 51.7607L60.7031 54.2568L60.7197 54.6045L60.8438 54.667L63.1523 55.8154L63.375 55.9326L63.5508 56.1084L65.2607 57.8623L67.0078 57.5781L69.4336 56.8398L71.8242 55.9375L71.8477 55.9258L71.8828 55.9141L74.3906 55.0938L74.6836 55L74.9766 55.0234L77.1328 55.1875L77.0391 56.3242L77.1211 56.6523L77.4609 58.1172L77.1328 58.1992L76.8984 58.1758L75.0352 58.0234L72.8203 58.7617L70.4062 59.6758L70.3594 59.6992L70.3125 59.7109L67.7812 60.4844L67.6875 60.5078L67.582 60.5195L66.2881 60.7344L66.3633 61.0303L66.457 61.3818L66.3633 61.7451L65.7773 64.2764L65.7305 64.499L65.6133 64.6982L64.668 66.2979L65.7324 67.917L67.2324 70.0498L68.8262 72.1592L68.873 72.2061L68.9082 72.2646L70.3027 74.5264L70.4434 74.749L70.4902 75.0186L70.9941 77.585L69.834 77.7959L69.7051 77.9951L68.8496 79.2256L68.6621 79.0967L68.1582 78.7451L68.0527 78.1475L67.5957 75.8506L66.377 73.8936L64.8418 71.8545L64.8184 71.8311L64.8066 71.8076L63.2832 69.6396L63.2715 69.6162L63.2598 69.6045L62.3545 68.2236L61.4531 68.6943L61.1836 68.835L60.8789 68.8584L58.207 69.0693L57.7969 69.1045L57.4336 68.9287L55.9883 68.2207L54.7891 69.4873L53.0898 71.5029L51.3789 73.5186L51.3672 73.542L51.3438 73.5537L49.5742 75.499L49.5039 75.5928L49.4219 75.6631L48.3203 76.5537L47.4883 75.5225L46.5977 76.6943L46.457 76.5889L44.9453 75.4404L46.4219 74.2334L47.4648 73.3779L49.1172 71.5381L50.8047 69.5576L52.5156 67.5537L52.5625 67.5068L53.75 66.2207L53.3438 65.6709L53.2266 65.5068L53.1562 65.3311L52.1836 62.8701L52.043 62.5303L52.0781 62.167L52.2207 60.7656L51.2637 60.2383L48.9551 59.4883L46.4473 58.9609V58.9492L43.8809 58.4336L43.8105 58.4219L43.7402 58.3984L41.3379 57.6719L41.2324 57.6484L42.0527 54.7656L42.1465 54.7891H42.1582L42.1699 54.8008L44.502 55.5039L47.0566 56.0195H47.0801L49.6699 56.582L49.7402 56.6055L49.8105 56.6172L52.3184 57.4258L52.459 57.4727L52.5879 57.543L53.2754 57.9209L54.1875 56.6943L54.3867 56.4248L54.6797 56.2607L56.9414 55.042L57.1758 54.9131L57.4453 54.8779L57.7305 54.8359L57.7031 54.3271V54.21L57.7148 54.0928L57.9844 51.4561L57.9727 48.9717L57.7969 46.4287L57.7031 45.1865H57.5039L56.2852 45.1748L56.0508 43.9678L56.0273 43.874L57.5039 43.5811L57.5156 43.5693L57.5273 42.1865L59.1328 42.1982ZM49.5273 63.7324L49.7402 64.3652L50.2373 65.7812L50.0371 65.8447L49.9209 65.8691L47.9707 66.2295L46.2139 66.9697L45.4082 67.5322L44.0117 68.4795L43.2295 66.9814L43.1865 66.8838L44.5166 66.1924L43.7256 65.0537L44.6543 64.416L44.7666 64.3428L44.9043 64.2744L46.9639 63.4014L47.1162 63.3408L47.2803 63.3135L49.3691 62.9219L49.5273 63.7324ZM71.04 63.21L71.291 63.2451L71.5127 63.3535L73.6221 64.3926L75.4961 65.1709L75.4844 65.1719L75.5703 65.2109L75.0049 66.5938L74.4414 67.9883L74.3428 67.9502L74.3418 67.9385L74.3301 67.9395L72.3828 67.1211L72.334 67.1025L72.2969 67.082L70.4326 66.1504L69.4922 66.0381L67.9668 65.8389L68.2021 64.3223L68.2148 64.2148L69.6963 64.4414L69.708 64.4404L69.8848 63.0586L71.04 63.21ZM55.5088 66.6387L55.5996 66.7207L55.582 66.585L55.5088 66.6387ZM58.125 57.7959L56.4141 58.7217L55.2891 60.2334L55.1016 62.085L55.8633 64.0186L56.7656 65.2607L58.3594 66.0459L60.3281 65.8936L61.8984 65.0732L62.9062 63.3506L63.3633 61.3936L62.9531 59.7881L61.582 58.3818L59.918 57.5498L58.125 57.7959ZM69.6504 47.0625L70.9863 47.7539L70.9395 47.8477H70.9277V47.8594L69.9316 49.7227L69.9082 49.7695L69.8848 49.8047L68.7832 51.5742L68.584 52.5L68.2441 54L66.7559 53.625L66.6504 53.6016L67.0137 52.1484V52.1367L65.6543 51.832L65.9121 50.6953L65.9707 50.4492L66.0996 50.2383L67.3301 48.2344L68.2793 46.4414V46.4531L68.3262 46.3711L69.6504 47.0625ZM49.8281 47.0371L49.8516 47.0605L51.0352 48.1035L51.1406 48.1973L51.2227 48.3145L52.3359 49.8027L52.9922 50.4355L54.2695 51.6777L52.8281 52.7324L52.7344 52.791L51.8672 51.584L50.9062 52.5918L50.1797 51.8887L50.0977 51.8066L50.0273 51.7129L48.9258 50.2363L47.7773 49.2051L47.7188 49.1582L47.6602 49.0879L47.5898 49.0176L48.7148 48.0215L49.3477 47.459L49.7812 46.9785L49.8281 47.0371Z" fill="black"/>
</svg>
