<svg width="120" height="120" viewBox="0 0 120 120" fill="none" xmlns="http://www.w3.org/2000/svg">
<path d="M64.6465 5.11035L66.7559 6.62207L66.873 6.71582L66.9785 6.82129L68.3262 8.2627L70.2598 8.34473H70.3652L70.4824 8.36816L70.5762 8.37988L70.3066 9.85645L70.1777 10.5127L70.1543 11.3447L67.6113 11.251L66.9902 11.2275L66.5684 10.7705L64.916 9.00098L63.4863 7.96973L62.5488 8.22754L62.1035 9.25879L62.167 9.43164L62.7324 9.33691L63.2715 10.1807L64.6777 12.4189L64.7715 12.5713L64.8301 12.7471L65.6738 15.2666L65.6855 15.29L66.4238 17.6807L66.0371 17.7969L66.002 18.4492L65.9668 18.8945L66.1309 19.9258L64.9541 20.1094L64.9121 21.6396V21.7217L64.7832 23.2334L65.8848 23.6436L68.4043 24.5693L68.8379 24.7334L69.1191 25.1201L69.5439 25.7344L70.0586 25.6406L70.1992 25.6172L72.8477 25.3945L73.1758 25.3711L73.4922 25.4766L75.8477 26.3555L75.8594 26.3438L78.4492 27.0469L78.8008 27.1523L79.0703 27.3867L81.0508 29.2031L81.168 29.3086L81.2617 29.4375L82.8086 31.5938L82.9023 31.7109L82.9609 31.8516L84.0391 34.2773L84.1562 34.5469L84.168 34.8281L84.25 37.1484L84.3555 37.3594L84.707 38.0859L84.4141 38.543L84.2852 40.7344L84.2734 41.0391L84.1328 41.3086L82.9834 43.6064L85.4922 43.6523L88.1172 43.5586H88.2109L90.7773 43.6172L93.2266 43.2773L93.2969 43.2656H93.3555L95.9922 43.1133H96.0977L96.1914 43.125L98.7109 43.3242L101.184 43.0195H101.219L101.254 43.0078H101.395L101.5 44.4961L101.605 45.9961L101.465 46.0078L101.453 45.9961L98.8984 46.3125L98.7578 46.3359L98.6055 46.3242L96.0273 46.1133L93.5898 46.2422L91.0234 46.6172L90.8945 46.6406L90.7656 46.6289L88.1758 46.5586L85.5859 46.6523L85.5508 46.6641L85.5039 46.6523L82.9375 46.6055L81.041 46.7109L79.623 48.0947L81.5234 48.8125L81.6406 48.8594L84.0195 49.9961L84.0898 50.0312L84.1602 50.0781L86.3174 51.4082L87.8379 50.4619L89.8301 48.9033L90.0293 48.751L90.2637 48.6689L92.7246 47.8018L92.9824 47.708H93.2637L95.9004 47.79L96.3105 47.8018L96.6504 48.0244L98.877 49.4072L98.9473 49.4541L99.0059 49.501L101.045 51.0947L101.303 51.3057L101.455 51.5869L102.639 53.8838L102.686 54.001L103.717 56.4619L103.881 56.8369L103.822 57.2471L103.447 59.8838V59.9072L103.436 59.9424L102.979 62.415L102.709 65.0635V65.1221L102.697 65.1807L102.193 67.7822L102.182 67.8408L102.17 67.8877L101.502 70.2666L101.115 72.8916L100.893 75.4346L100.881 75.5752L100.846 75.7158L100.166 78.1416L100.014 80.4971V80.5791L99.9902 80.6494L99.9785 80.7432L98.502 80.4971L97.5059 80.3213L97.0254 80.2979L97.1895 77.7666L97.2012 77.6143L97.2363 77.4619L97.9043 75.083L98.1387 72.54V72.4932L98.1504 72.4463L98.5371 69.833L98.5488 69.7393L98.5723 69.6572L99.2754 67.1025L99.7441 64.6182L100.002 62.1104L100.014 62.0635V62.0049L100.494 59.4033L100.787 57.2236L99.9199 55.1611V55.1494L98.9238 53.251L97.1543 51.8682H97.1426L95.3848 50.7666L93.4512 50.708L91.5059 51.3994L89.9521 52.6279L89.9727 52.623L90.2891 52.541L90.6172 52.5996L93.0781 53.0332L93.5352 53.1152L93.8633 53.4316L95.6797 55.2129L96.0547 55.5762L96.125 56.1035L96.4414 58.7051L96.4531 58.7754V58.834L96.5352 61.4121L96.9453 63.8145L97.543 66.3926L97.5781 66.5449V66.6973L97.625 69.2402L97.9766 71.6895V71.7246L97.9883 71.8184L96.5 71.9941L95.0117 72.1816L95 72.1113L94.6484 69.5918L94.6367 69.5098V69.416L94.5781 66.9316L94.0273 64.4824L94.0156 64.4355L94.0039 64.4004L93.5703 61.7871L93.5469 61.6934V61.5879L93.4531 58.9395H93.4414L93.207 56.9941L92.0938 55.9043L90.418 55.5996L89.3984 55.8662L89.7031 56.6406L90.7578 59.0781L90.8867 59.3945L90.875 59.7344L90.793 62.3945V62.4531L90.7812 62.5117L90.4883 65.1602L90.4648 65.418L90.3477 65.6523L89.3633 67.6797L89.5156 69.25L90.793 70.7969L92.7266 72.3555L93.0195 72.6016L93.1602 72.9531L94.1797 75.3906L94.2031 75.4492L94.2266 75.5195L95.0234 78.0508L95.082 78.25L95.0938 78.4492L95.1875 80.9922L95.7031 83.4297L95.7383 83.5586V83.6875L95.8086 86.0898L96.6758 88.457L96.9453 89.207L96.4766 89.8516L95.0703 91.7969L94.6973 93.1514L94.9512 93.29L96.873 94.3564L97.3301 94.6143L97.5293 95.0947L98.1973 96.6885L99.6387 97.0283L100.389 97.1924L100.693 97.9072L101.725 100.345L101.748 100.38L101.76 100.427L102.639 102.923L102.674 103.028L102.697 103.134L103.131 105.501L104.326 107.657L104.443 107.88L104.49 108.138L104.912 110.681L105.697 112.884L106.634 114.701L108.137 114.664L110.738 114.266L111.031 114.219L111.312 114.289L112.355 114.547L111.652 117.453L110.891 117.266L108.547 117.629L108.453 117.652H108.359L105.723 117.723H105.582L103.051 117.301L100.672 117.734L100.438 117.781L100.203 117.746L97.6367 117.406H95.2344L92.5977 117.629L92.4922 117.641L92.3984 117.629L89.75 117.477V117.465L87.2773 117.348L84.7812 117.734L84.582 117.77L84.3945 117.746L81.8516 117.453L79.2969 117.477L79.2852 117.465L76.7773 117.711L76.6133 117.723L76.4492 117.699L73.918 117.383L71.3867 117.43H71.3281L68.6914 117.371H68.6445L66.1719 117.23L63.7109 117.699L63.4766 117.746L63.2305 117.711L60.7227 117.348L58.2383 117.488H58.0156L55.5898 117.242L53.1406 117.676L52.8828 117.723L52.6133 117.676L50.1172 117.242L47.6914 117.395H47.668L47.6445 117.406L42.3711 117.57H42.2539L42.1367 117.559L39.5938 117.254L37.1328 117.418L37.0508 117.43L36.957 117.418L34.5078 117.277L32 117.699L31.7891 117.734L31.5781 117.711L29.0234 117.395L26.5391 117.324L23.9492 117.512L23.8906 117.523H23.832L21.1953 117.512H21.0781L18.5 117.301L16.0508 117.395L16.0625 117.406L13.4258 117.664L13.2734 117.676L13.1211 117.664L10.625 117.395L8.16406 117.5H8V114.5H8.03516L10.5781 114.395L10.6836 114.383L10.8008 114.395L13.2852 114.664L13.5234 114.64L13.582 112.104V111.904L13.6406 111.717L14.3672 109.279L14.7188 106.76L14.7422 106.643L15.3281 104.064L15.3516 103.994L15.375 103.912L16.1953 101.463L16.6875 99.002L16.793 98.5098L17.1797 98.1699L18.9141 96.6582L19.3408 96.2852L19.2715 95.376L19.166 94.2041L20.2793 93.8408L22.4473 93.1143L22.6113 93.0557L22.7871 93.0439L25.4238 92.7979L25.459 92.7861H25.5059L28.1543 92.6807H28.248L28.3301 92.6924L30.8496 92.9033H33.3809L36.0293 92.7158H36.1699L38.8184 92.7861H38.877L38.9189 92.793L39.1445 92.043L39.9062 89.5234L40.5625 87.2969L40.3281 84.9531H40.3164L39.8242 82.5039L39.2852 79.9258V79.9141L38.7461 77.4883L37.8789 75.0508V75.0391L36.8945 72.6719L36.8359 72.5312L36.8125 72.3906L36.5811 71.2061L35.8594 71.8008L35.3086 72.2461L34.6055 72.1055L32.0859 71.5898L29.543 71.3672H29.4727L26.9062 71.0039L25.7812 70.9336L25.6172 71.8711L25.9219 74.2852V74.2969L26.1211 76.0664L26.7773 76.3828L28.3477 75.9727L30.6328 75.375L30.2109 77.6953L29.7539 80.2969L29.6133 82.7578L29.6016 82.9102L29.5664 83.0508L28.957 85.3711L27.5625 85.0078L27.3867 86.4844H27.3164L25.6172 86.2617L25.8057 85.542L25.6836 85.6719L24.3828 84.418L22.3555 83.1758L22.2031 83.082L22.0859 82.9648L20.293 81.207L18.1719 79.6602L17.5859 79.2383L17.5508 78.5117L17.4219 75.8867L17.1758 73.4375L16.5898 70.8594L16.5781 70.7891L16.5664 70.707L16.2383 68.0938L16.1797 67.6719L16.3555 67.2852L17.3047 65.1992L17.6328 64.4844L18.4062 64.3438L20.9023 63.9102V63.8984L23.4922 63.3594L23.6211 63.3359L23.7617 63.3242L26.1641 63.2656L27.3574 62.8613L26.3906 60.9277L26.4375 60.4824L26.7656 57.834L26.7773 57.6699L26.8359 57.5293L27.6211 55.1973L27.9961 52.6777L28.1719 50.1699V50.1582L28.3359 47.6152L28.1484 45.0957L27.7734 42.8457L27.3389 41.8398L26.3848 43.0059L26.1973 43.2402L25.9277 43.3809L24.1934 44.2715L23.8887 46.2051L23.8184 46.6504L23.5254 46.9785L21.7676 48.9238L21.1465 49.6152L20.2441 49.3574L18.0176 48.7246L17.5371 48.584L17.2324 48.1855L15.6973 46.1465L15.2988 45.6191L15.4277 44.9629L15.9082 42.3965L15.9434 42.2559L16.002 42.1152L16.9512 39.7598L17.4199 37.4043L17.7129 34.8262L17.7246 34.6855L17.7715 34.5449L18.5684 32.0137L18.6035 31.8965L18.6621 31.8027L19.7637 29.5645L20.5957 29.9863L21.1348 30.1387L22.5762 30.5605L22.541 30.6543L22.5059 30.7832L21.3809 33.0332L20.6777 35.2598L20.4082 37.791L20.3848 37.9316L19.8574 40.5215L19.8223 40.6621L19.7754 40.791L18.8262 43.0996L18.4863 44.8574L19.3301 45.9707L20.1621 46.2168L21.0059 45.2793L21.3574 43.0527L21.4746 42.3027L22.1543 41.9512L24.2637 40.8613L25.6934 39.1387L25.916 38.8691L26.0537 38.8066L25.875 38.3809L25.8164 38.252L25.793 38.1113L25.7695 38.0176L27.2344 37.7012L27.75 37.5957L28.6406 37.2207L29.5781 39.4473H29.5664L30.5859 41.8027L30.6562 41.9668L30.6914 42.1426L31.125 44.7441L31.1367 44.8027V44.873L31.3477 47.5098V47.7324L31.1602 50.3691L30.9844 53.0059L30.9727 53.0645V53.123L30.5859 55.748L30.5625 55.8887L30.5156 56.0176L29.7188 58.3262L29.4609 60.377L30.4688 62.3926L30.5977 62.6387L30.6211 62.9199L30.7031 63.8574L29.2148 63.998L28.9795 64.0195L29.2344 65.0469L29.3398 65.3516H29.3047L29.3164 65.3633H29.2695L26.9375 66.1719L26.7266 66.2422L26.4922 66.2539L23.9609 66.3125L21.5234 66.8398H21.5L21.4766 66.8516L19.707 67.1562L19.2617 68.1289L19.5195 70.1914L20.1055 72.7695L20.1289 72.8633V72.9453L20.4102 75.582V75.6172L20.4219 75.6641L20.5156 77.6562L22.1328 78.8281L22.2266 78.8984L22.3086 78.9805L24.0547 80.6914L26.1055 81.9453L26.2461 82.0391L26.3633 82.1445L26.6182 82.3926L26.7773 79.9453V79.8516L26.8008 79.7578L26.8477 79.4766L26.4727 79.582L25.9688 79.3359L24.0703 78.4102L23.332 78.0469L23.2383 77.2266L22.9453 74.6602L22.6172 72.0352L22.5938 71.8125L22.6289 71.5898L23.0625 69.0938L23.2969 67.7578L24.6445 67.8516L27.1523 68.0273H27.1992L27.2578 68.0391L29.7891 68.3906L29.8008 68.3789L32.4492 68.6133L32.6133 68.6367L34.5 69.0117L35.7393 68.0117L35.5938 67.5391V67.5273L35.5586 67.4336L38.4414 66.5664L38.4648 66.6484L39.2031 69.0508L39.2266 69.1211L39.2383 69.2031L39.7305 71.6875L40.6797 73.9727L40.7031 74.043L41.5938 76.5391L41.6289 76.6211L41.6523 76.7148L42.2266 79.3047V79.3281L42.7539 81.9062L43.293 84.4961L43.3047 84.5664L43.3164 84.6484L43.5859 87.2852L43.6211 87.5781L43.5273 87.8594L42.7891 90.3672V90.3789L42.0156 92.9102L41.9922 92.9873L43.7764 92.6855L43.7695 92.6484L43.8281 92.3789L44.3555 89.8594L44.6484 87.4336L44.332 84.9961L44.3203 84.9375V84.8906L44.1797 82.2539V82.1367L44.25 79.6641L44.0156 77.1328L43.6172 74.5078L43.5938 74.3555V74.2031L43.7227 71.6719L43.5117 69.2227V69.1758L43.5 69.082L45.0371 68.9971L45.0527 68L45.9082 68.0117H46.1543L46.4004 68.1055L48.7441 68.9609L51.123 69.4531L53.6777 69.5586L56.3145 69.6523H56.3027L58.7754 69.7109L61.0723 69.2773L61.8506 68.999L61.0234 67.0898L61.0117 67.0664V67.0547L60.0625 64.7344L58.8086 62.7188L57.1211 60.7852L56.1484 59.6602L57.25 58.6758L58.8906 57.1992L58.9375 57.1641L58.9727 57.1289L60.8945 55.6406L62.4297 53.7656L63.7656 51.5859L63.8242 51.4922L63.8945 51.4102L65.4766 49.4883L65.9023 48.6963L65.1719 48.2109V48.1992L63.6025 47.2578L62.957 47.2617H62.8516L62.7578 47.25L60.25 46.9102L57.7891 47.1211L57.5781 47.1445L57.3672 47.0977L56.7656 46.9736L55.8203 47.7461L55.7617 47.793L55.6914 47.8281L53.6406 49.1758L51.9414 50.9688L51.918 50.9922L50.0547 52.8789L48.8945 54.0625L47.8398 52.7852L46.3984 51.0391L46.3398 50.9688L46.293 50.8984L44.8516 48.6484L44.7578 48.5078L44.6992 48.3555L43.8203 45.9531L43.6465 45.6152L41.8633 45.5508L39.2734 45.5977H39.1211L38.9688 45.5625L36.4609 45.0938L34.0469 45.0117L34.0117 45H33.8828L34.1172 42L34.2227 42.0117L34.2109 42.0234L36.6953 42.1055H36.8125L36.918 42.1289L39.3906 42.5977L41.875 42.5508H41.957L42.2783 42.5635L41.793 41.0547L40.5977 38.875V38.8633L39.2734 36.7656L37.7031 34.7969L37.6094 34.6562L36.4023 32.7109L34.4102 31.5859L34.3633 31.5625L34.3281 31.5273L32.3594 30.2383L30.1211 29.7578V29.7695L27.9062 29.3359L25.8672 30.1094L25.4102 30.2734L24.9414 30.1445L24.5898 30.0508L25 28.6094L25.1289 28.1289L24.9932 27.7578L24.7441 28.1348L24.5684 28.5918L24.0176 29.9863L23.9238 29.9512L23.7832 29.8926L23.6543 29.8105L21.791 28.5918L19.9043 27.959L18.8848 27.9355L17.7598 27.9121L17.4668 26.8223L17.4434 26.7402L18.8965 26.3535L18.9199 26.3418L18.9551 24.9473L20.1855 24.9707H20.4082L20.6191 25.041L22.9043 25.791L23.0918 25.8613L23.2559 25.9668L25.1172 27.1855L27.25 26.3828L27.6484 26.2422L28.0586 26.3242L30.6836 26.8281H30.707L33.2734 27.3672L33.5547 27.4258L33.7891 27.5898L35.957 29.0078L38.207 30.2734L38.5469 30.4727L38.7578 30.8008L40.082 32.9688L41.2734 34.4648L43.2793 33.9814L45.7168 33.126L45.9746 33.0322L46.2441 33.0439L48.7051 33.0674L50.8379 32.5752L52.5254 31.2979L54.0605 29.376L54.1543 29.2588L54.2715 29.165L56.1465 27.5713L57.4707 25.8604L57.6348 24.7705L56.2051 24.1846L55.3027 23.8096L55.2793 22.8252L55.2207 20.1064H55.209L54.9512 17.5635L54.9395 17.4111L54.9512 17.2588L55.1621 15.1494L55.1973 14.7041L55.4785 14.3525L57.1191 12.29L57.1543 12.2432L57.2012 12.1963L59.0059 10.2627L59.2041 10.0566L59.0801 9.7041L58.8926 9.1416L59.127 8.60254L60.0996 6.3877L60.3809 5.74316L61.0605 5.54395L63.3574 4.8877L64.0605 4.68848L64.6465 5.11035ZM73.3887 96.0557L73.1426 96.0908L72.8965 96.0557L70.459 95.7041L67.9043 95.8447H67.6816L65.209 95.6104L62.8066 96.0439L62.5488 96.0908L62.2793 96.0439L59.8301 95.5986L57.3574 95.7627H57.334L57.3105 95.7744L54.6738 95.8564L52.0254 95.9502H51.9199L51.8027 95.9385L49.248 95.6338L46.7988 95.7979L46.7051 95.8096L46.623 95.7979L44.1621 95.6572L41.6543 96.0791L41.4551 96.1143L41.2441 96.0908L38.6777 95.7744L36.1934 95.7158L33.5918 95.9033H33.4863L30.8496 95.8916H30.7324L28.1426 95.6807L25.623 95.7861L25.6113 95.7744L23.2441 95.9971L22.3535 96.3018L22.3613 96.4023L23.2383 96.4473L23.2734 97.8418V97.9355L22.4863 97.9531L22.5527 98.833L21.7109 99.1709L21.7031 99.377L20.4141 99.3066L19.5234 100.092L19.1133 102.189L19.0664 102.377L18.2578 104.732L17.6953 107.193L17.3086 109.807L17.2969 109.912L17.2617 110.018L16.5703 112.373L16.5293 114.391L18.5 114.312L18.5938 114.301L18.6758 114.312L21.3125 114.512L21.3008 114.523H23.7383L26.375 114.336L26.4453 114.324L26.5273 114.336L29.1641 114.406H29.2344L29.293 114.418L31.7305 114.699L34.1562 114.301L34.3203 114.277L34.4844 114.289L37.0156 114.43L39.582 114.254L39.7227 114.242L39.8633 114.266L42.3711 114.57L44.9141 114.488L47.5039 114.418V114.406L50.1523 114.242L50.3281 114.23L50.5039 114.266L52.8828 114.688L55.2617 114.266L55.4609 114.23L55.6602 114.242L58.1328 114.488L60.7227 114.348L60.8633 114.336L61.0156 114.359L63.418 114.711L65.8086 114.266L65.9844 114.23L66.1602 114.242L68.7969 114.371L68.7852 114.383L71.3633 114.43L73.9766 114.383H74.082L74.1875 114.395L76.6836 114.711L79.1445 114.477H79.2734L81.9102 114.453H82.0039L82.0859 114.465L84.5469 114.746L86.9727 114.371L87.125 114.348L87.2773 114.359L89.9141 114.488H89.9258L92.4453 114.641L95 114.43L95.0586 114.418H95.1055L97.7539 114.406H97.8594L97.9648 114.418L100.367 114.746L102.77 114.312L103.025 114.266L102.99 114.196L102.943 114.103L102.908 114.009L102.041 111.513L101.994 111.396L101.971 111.267L101.572 108.888L100.4 106.755L100.283 106.544L100.248 106.31L99.7676 103.813L98.959 101.517L98.2207 99.7705L96.791 99.4541L96.0293 99.2783L95.7363 98.5635L94.9629 96.7236L93.7559 96.0674L91.4355 95.7979L88.9629 95.8213L86.4551 96.0557L86.291 96.0674L86.127 96.0439L83.5957 95.7275L81.0527 95.7744H80.9941L78.3574 95.7158H78.3105L75.8496 95.5869L73.3887 96.0557ZM78.3281 71.1406L77.9766 72.7109L78.6562 74.832L79.5117 77.3164L79.7344 77.9727L79.3711 78.5703L78.2227 80.5039L78.1406 80.6328L78.0469 80.7383L76.2656 82.707L76.2305 82.7539L76.1836 82.7891L74.2617 84.6055L74.1445 84.6992L72.1641 86.2109L70.5469 88.1211L69.1875 90.1836L68.0742 91.9766V92.8291L70.3887 92.7041L70.5293 92.6924L70.6816 92.7158L73.0723 93.0674L75.4746 92.6104L75.6504 92.5752L75.8262 92.5869L78.4629 92.7158L78.4512 92.7275L81.0176 92.7744L83.6426 92.7275H83.748L83.8535 92.7393L86.3613 93.0557L88.0547 92.8926L88.957 91.3203L89.0742 91.1328L89.2266 90.9805L90.6328 89.6211L90.4336 87.6992V87.6523L90.2461 85.1797L89.5195 82.8008L89.4844 82.707L89.4727 82.6016L89.0742 80.293L87.7969 78.3125L86.5195 76.3203L84.5742 75.0195V75.0078L82.3711 73.5898L82.3594 73.5781H82.3477L80.168 72.0898L80.0625 72.0195L79.9688 71.9375L78.8438 70.8594L78.3281 71.1406ZM64.4707 71.2461L62.0332 72.1367L61.916 72.1719L61.7988 72.1953L59.1855 72.6875L59.0332 72.7227H58.8691L56.2207 72.6523H56.1973L53.5605 72.5469L50.9121 72.4531H50.7949L50.666 72.4297L48.0762 71.8906L47.959 71.8672L47.8535 71.832L46.7031 71.4062L46.7109 71.4961L46.7227 71.6016L46.7109 71.6953L46.5938 74.168L46.9805 76.6641L46.9922 76.7109V76.7578L47.2383 79.3828L47.25 79.4766V79.5586L47.1797 82.207L47.3086 84.6211L47.6602 87.4336L47.6367 87.6094L47.3203 90.2578L47.3086 90.3164L47.2969 90.3867L46.8164 92.6836L46.832 92.7979L49.2363 92.6338L49.377 92.6221L49.5176 92.6338L52.0254 92.9502L54.5684 92.8564L57.1699 92.7861V92.7744L59.8066 92.6104L59.9824 92.5986L60.1582 92.6221L60.9717 92.7695L61.1621 92.3125L61.209 92.1836L61.291 92.0664L62.6152 90.0273L63.3535 87.6719L63.4707 87.2969L63.752 87.0273L65.6504 85.2109L67.4316 83.3594L69.0488 81.3555L69.0723 81.3086L69.1074 81.2734L70.6191 79.6094L71.0059 78.0508L69.9512 76.4336L68.2285 74.6641L68.041 74.4766L67.9355 74.2422L66.834 71.8281L66.7988 71.7578L66.7754 71.6641L66.4688 70.708L64.4707 71.2461ZM91.6602 92.7979H91.6807L91.6875 92.7705L91.6602 92.7979ZM64.4561 92.707L64.9277 92.6221L65.0811 92.5947L65.084 91.7559L64.4561 92.707ZM66.1074 88.9141L65.7686 90.0166L66.6562 88.5664L66.668 88.543L66.6797 88.5312L66.9561 88.1123L66.1074 88.9141ZM93.5605 88.752L93.5703 88.7383L93.5547 88.6953L93.5605 88.752ZM73.332 50.6758L73.2852 50.6875H70.7305L68.4219 51.2031L68.2578 51.2383H67.9883V51.1738L67.9023 51.293L66.2734 53.2266L64.9375 55.4062L64.8906 55.4883L64.832 55.5703L63.168 57.6328L63.0508 57.7734L62.9102 57.8789L60.8125 59.5078L60.3438 59.918L61.1172 60.8086L61.1992 60.8906L61.2578 60.9961L62.6758 63.2344L62.7461 63.3516L62.793 63.4688L63.7773 65.8945L64.7217 68.0752L65.959 67.7422L67.3799 66.8818L67.2051 65.4805L68.1543 65.3516L68.6699 65.1992L70.0996 64.7539L70.1348 64.8477L70.1699 64.9766L70.1934 65.1172L70.4512 67.332L71.3652 69.4062L71.9746 70.5898L72.877 72.3242L70.9668 72.7461L70.8848 72.7695L70.5566 71.3164L70.0254 71.5957L70.5605 72.7656L72.2246 74.4883L72.3301 74.5938L72.4121 74.7109L73.877 76.9609L74.2402 77.5L74.0762 78.1328L73.4551 80.6992L73.3613 81.0625L73.1035 81.3438L72.0029 82.5596L72.3164 82.3203L74.0977 80.6328L75.7148 78.8398L76.4414 77.6328L75.8203 75.793V75.7812L75.8086 75.7695L75 73.2383L74.8828 72.8516L74.9648 72.4648L75.5508 69.8398L75.6914 69.1836L76.2773 68.8555L78.3516 67.707L79.3125 67.168L80.1094 67.9297L81.9492 69.6641L84 71.0703H84.0117L86.2266 72.5117L86.25 72.5234L88.4531 74.0117L88.7109 74.1875L88.875 74.4453L90.3047 76.6836H90.3164L91.7695 78.9219L91.9336 79.1797L91.9922 79.4961L92.1729 80.6152L92.0938 78.7422L91.4023 76.5391L90.5352 74.4531L88.8008 73.0469L88.6836 72.9531L88.5898 72.8359L86.9141 70.8203L86.6211 70.457L86.5742 70L86.3516 67.5391L86.3047 67.1289L86.4922 66.7539L87.5352 64.5859L87.793 62.2773L87.8633 59.9688L86.9492 57.8242L86.9258 57.7773L86.0586 55.5625L84.6406 53.8984L82.6719 52.6797L80.3633 51.5781L78.1602 50.7461L75.8633 50.4883L73.332 50.6758ZM47.4648 47.1836L48.7656 49.2109L49.082 49.5859L49.7852 48.8828L51.5664 46.9961L51.6953 46.8672L51.8359 46.7734L52.5 46.3359L52.2695 46.3125V46.3008L49.7734 46.2891H49.6562L47.0576 46.0684L47.4648 47.1836ZM70.5859 28.582L69.4492 28.7949L68.4863 29.4678L68.2256 29.0938L66.5664 30.457L66.5078 30.5039L66.4375 30.5508L64.4922 31.8164L63.4141 33.6797L62.7227 35.8828L62.5703 38.332L62.6172 40.5352L63.5547 42.5156L64.666 44.25H66.6484L66.5459 45.5312L66.7891 45.6797L66.8125 45.7031L66.8359 45.7148L68.8398 47.0391L70.9258 47.5898L73.2227 47.3906L75.4961 46.8164L77.5469 45.9023L79.1289 44.3906L80.2656 42.3281L81.3086 40.2305L81.4258 38.1914V38.1797L81.2852 37.8984L81.2734 37.5938L81.1797 35.2383L80.2656 33.1992L78.9297 31.3359L77.2891 29.8359L75.0742 29.2383L75.0156 29.2266L74.957 29.2031L72.7656 28.4062L70.5859 28.582ZM58.1582 19.4385L58.209 19.9307L58.2207 19.9893V20.0479L58.2559 21.7822L59.8613 22.4502L60.9512 22.8955L60.7754 24.0557L60.377 26.7158L60.3184 27.1025L60.084 27.4072L58.4434 29.5166L58.3496 29.6455L58.2324 29.7393L56.334 31.333L54.7637 33.3135L54.6465 33.4541L54.4941 33.5713L52.3965 35.165L52.1387 35.3525L51.834 35.4229L49.2441 36.0439L49.0684 36.0791H48.8809L46.4434 36.0439L44.1934 36.8525L44.1113 36.876L44.041 36.8994L43.0488 37.1309L43.1875 37.3516L43.2109 37.3984L43.2344 37.4336L43.2656 37.4922L45.8477 37.2832L45.8711 37.2715H45.8828L48.4258 37.1191L50.8984 36.7559L53.1602 36.2051L55.0352 34.998L55.2695 34.8574L55.4189 34.8242L55.4805 34.375L55.4922 34.3398L56.9805 34.4805L58.4805 34.6094L58.4688 34.7148L58.457 34.7383V34.7734L58.1289 37.1758L58.1875 39.5078L58.3633 42.1562L58.375 42.1914V42.2383L58.3984 44.0566L60.2031 43.9102L60.3672 43.8984L60.5312 43.9219L60.9258 43.9727L59.7812 41.5547L59.6406 41.2617L59.6289 40.9453L59.5703 38.2734V38.2031L59.582 38.1445L59.7578 35.332L59.8164 35.1562L60.6133 32.6367L60.6602 32.4844L60.7422 32.3438L62.0664 30.0117L62.2539 29.707L62.5469 29.5078L64.7969 28.0312L66.1377 26.9316L64.8418 26.4561L62.6855 25.6592L61.6309 25.2607L61.7129 24.1357L61.9121 21.5693L61.957 19.9121L60.6582 19.4688L58.2793 19.4219L58.1582 19.4385ZM54.5781 38.8652L54.3672 39.0059L54.1211 39.0645L51.5781 39.6855L51.4375 39.709L48.8242 40.0957L48.7539 40.1074H48.6953L46.082 40.2598L46.0938 40.2715L44.7354 40.3809L45.3906 42.4258L45.5859 42.8076L47.3594 43.0898L49.7852 43.3008L49.7969 43.2891L52.4453 43.3125H52.5273L52.5977 43.3242L55.2227 43.6172H55.293L55.3906 43.6367L55.375 42.3555L55.1992 39.7188L55.1875 39.6836V39.6484L55.1602 38.4883L54.5781 38.8652ZM60.834 12.6885L59.4277 14.1885L58.0918 15.876L58.0391 16.4355L58.0566 16.4336L58.1738 16.4102L58.3027 16.4219L60.9512 16.4805L61.1738 16.4922L61.3965 16.5625L63.1133 17.1465L62.8262 16.2158L62.0176 13.8135L61.2559 12.6182L60.834 12.6885Z" fill="black"/>
</svg>
