<svg width="120" height="120" viewBox="0 0 120 120" fill="none" xmlns="http://www.w3.org/2000/svg">
<path d="M107.612 70.5381L110.084 71.5107L110.12 71.5342L110.155 71.5459L112.557 72.6592L112.616 72.6943L112.674 72.7178L114.901 74.0068L115.206 74.1826L115.393 74.4639L116.834 76.5732L117.127 77.0068L117.092 77.5225L116.928 79.96V82.5146L116.94 85.1514V85.1865L116.905 87.8232L116.928 90.4248L116.963 93.0615V93.0967L116.928 95.7334V96.0967L116.752 96.4248L115.581 98.6279L115.358 99.0732L114.901 99.2842L112.534 100.397V100.409H112.522L110.143 101.499L110.049 101.546L109.944 101.581L107.413 102.331H107.401L104.846 103.058L104.729 103.093L104.6 103.104L102.069 103.351L99.6548 104.042L99.5376 104.077L99.4321 104.089L96.9478 104.382L94.4985 105.097L94.3696 105.132L94.229 105.155L88.9556 105.671H88.9204L86.3071 105.87L86.3188 105.882L83.6938 106.14L83.6821 106.128L80.9751 106.515L78.2329 106.304L75.854 106.433L73.311 106.948L73.2173 106.972L73.1118 106.983L70.4751 107.147L70.3228 107.159L70.1821 107.136L67.7798 106.819L65.3892 107.3L65.1548 107.347L64.9087 107.323L62.3657 107.007L59.9165 107.019L59.9282 107.03L57.2798 107.229L57.1743 107.241L57.0571 107.229L54.4204 107.042L51.9478 106.866L49.4165 107.159L49.2056 107.183L49.0063 107.159L46.4165 106.749L43.9556 106.655L41.3657 106.737L41.2017 106.749L41.0376 106.714L38.5063 106.21L35.9751 106.058H35.9399L35.9048 106.046L33.2915 105.753H33.2563L33.2212 105.741L30.7485 105.343L28.2524 105.519L27.9946 105.53L27.7485 105.46L25.3579 104.78L22.8149 104.534L22.686 104.522L22.5688 104.487L20.1665 103.831L17.7056 103.796L17.4126 103.784L17.1548 103.679L14.8462 102.706L12.3735 102.214L12.3149 102.202L12.2563 102.179L9.71338 101.464L9.6665 101.452L9.61963 101.429L7.12354 100.538L6.87744 100.444L6.6665 100.28L4.69775 98.6279L4.4751 98.4287L4.33447 98.1709L3.18604 95.9443L2.99854 95.5928L3.02197 95.1826L3.15088 92.6631L2.77588 90.2139L2.74072 90.0146L2.76416 89.8154L3.08057 87.249L3.11572 84.6826L2.89307 82.1982L2.88135 82.0225L2.90479 81.8467L3.2915 79.3037L3.32666 76.8311L3.33838 76.3857L3.58447 76.0107L4.92041 74.0537L5.09619 73.7959L5.36572 73.6201L7.61572 72.2139L7.81494 72.085L8.04932 72.0264L10.4985 71.4287L12.6899 70.4326L13.1118 71.3701L13.3931 71.7334L14.2954 72.9287L14.2134 72.9873L14.0845 73.0928L13.9321 73.1631L11.4829 74.2764L11.354 74.2998L8.99854 74.874L7.229 75.9873L6.31494 77.3232L6.27979 79.4912V79.5967L6.26807 79.6904L5.89307 82.1045L6.11572 84.5771L6.12744 84.6592L6.11572 84.7412L6.06885 87.3779V87.4482L6.05713 87.5303L5.76416 89.9443L6.13916 92.417L6.1626 92.5576L6.15088 92.71L6.02197 94.9131L6.854 96.5186L8.37744 97.7959L10.6274 98.6045H10.6157L13.0649 99.2842L15.5493 99.7881L15.7017 99.8115L15.8423 99.8701L18.0454 100.796L20.436 100.843L20.6235 100.854L20.7993 100.901L23.2134 101.546L25.7329 101.804L25.8735 101.815L26.0024 101.851L28.2993 102.495L30.7485 102.354L30.9126 102.343L31.0767 102.366L33.6196 102.765L36.1626 103.058L38.7993 103.233H38.9048L38.9985 103.257L41.4009 103.726L43.9321 103.655H44.0376L46.6743 103.772H46.7563L46.8384 103.784L49.2407 104.159L51.7134 103.866L51.854 103.854L52.0063 103.866L54.6313 104.054L57.1509 104.229L59.6938 104.042L59.7407 104.03H59.7993L62.436 104.007H62.5298L62.6353 104.019L65.0142 104.312L67.4282 103.831L67.6743 103.784L67.9204 103.808L70.4165 104.147L72.772 103.983L75.3384 103.479L75.4438 103.456H75.5493L78.186 103.304H78.3735L80.8931 103.491L83.3423 103.163L83.3774 103.151H83.4009L86.0259 102.894H86.061L88.6626 102.683L91.2993 102.425L93.7603 102.179L96.2095 101.476L96.3267 101.44L96.4556 101.429L98.8931 101.124L101.389 100.444L101.518 100.409L101.647 100.397L104.155 100.128L106.557 99.4482L109.018 98.71L111.268 97.6787L113.155 96.7764L113.928 95.335L113.963 93.0967L113.928 90.46L113.905 87.8115V87.7764L113.94 85.1748L113.928 82.5381V79.7607L114.057 77.8271L113.108 76.4326L111.209 75.3311L108.971 74.2998L106.932 73.4912L105.256 73.8896L104.307 74.9561L103.346 74.0771L102.584 75.3428L102.409 75.2373L100.862 74.2881L102.081 72.9404L103.358 71.5459L103.663 71.1943L104.12 71.0889L106.709 70.4678L107.178 70.3623L107.612 70.5381Z" fill="black"/>
<path d="M5.94238 83.2046L8.4502 83.7202L8.59082 83.7437L8.71973 83.8022L11.0635 84.7749L13.4307 85.3374L15.9502 85.5249L16.0322 85.5366L16.126 85.5483L18.7158 86.0288L18.8447 86.064L18.9619 86.1108L21.2236 86.9546L23.626 86.978H23.8604L24.0713 87.0483L26.4619 87.8101L28.958 88.1968L31.5127 88.3843H31.6064L31.7002 88.4077L34.2549 88.9116L36.751 89.3452L39.2236 89.2632L39.4111 89.2515L39.5986 89.2866L42.0479 89.8257L44.6025 90.0366L47.1338 90.0132H47.2861L47.4385 90.0366L49.9463 90.5171L52.4658 90.6108H52.4893L52.501 90.6226L55.126 90.7866H55.1611L57.5986 90.9858L60.083 90.5874L60.3174 90.5522L60.5518 90.5874L62.9775 90.9507L65.5205 90.8101H65.7197L68.1455 90.9976L70.5596 90.5054L70.8174 90.4585L71.0635 90.4819L73.5479 90.8101L75.9971 90.5288H76.0205L78.6221 90.271L81.2471 89.978L81.3525 89.9663H81.458L83.9775 90.0249L86.4385 89.603L86.5088 89.5913L86.5908 89.5796L89.0283 89.4155L91.4424 88.6772L91.6299 88.6187L91.8291 88.6069L94.3604 88.5132L96.8564 88.1499L99.3174 87.5054L99.3525 87.4937H99.3994L101.978 86.9546L102.013 86.9429H102.06L104.556 86.5444L107.005 85.7944L109.337 84.8335L109.454 84.7866L109.56 84.7632L111.962 84.2124L114.118 83.1694L114.212 83.1226L114.306 83.0991L114.399 83.064L114.868 84.4937L115.091 85.2202L115.419 85.8765L113.134 86.978L112.981 87.0483L112.829 87.0835L110.368 87.646L108.024 88.6187L107.954 88.6421L107.896 88.6655L105.353 89.439L105.247 89.4741L105.142 89.4976L102.517 89.9077L102.505 89.896L100.079 90.3999L97.5244 91.0913L97.4424 91.1147L97.3604 91.1265L94.7471 91.5015L94.665 91.5132H94.583L92.1104 91.5952L89.7783 92.3335L89.6025 92.3804L89.4385 92.3921L86.8369 92.5679L84.3408 93.0132L84.1885 93.0366H84.0361L81.4463 92.9663L78.9619 93.2476H78.9502L78.9385 93.2593L76.3252 93.5054L76.3369 93.5171L73.7119 93.8218L73.5244 93.8452L73.3369 93.8218L70.9229 93.4937L68.5557 93.9858L68.3447 94.021L68.1338 94.0093L65.5791 93.8101L63.0479 93.9624L62.8838 93.9741L62.7314 93.9507L60.3408 93.5874L57.9268 93.9858L57.7393 94.021L57.5518 93.9976L54.9385 93.7749V93.7866L52.3135 93.6108V93.5991L49.7119 93.5171L49.5947 93.5054L49.4775 93.4819L47.0518 93.0132L44.5205 93.0483H44.4502L44.3799 93.0366L41.7432 92.814H41.6377L41.5439 92.7905L39.0947 92.2515L36.6572 92.3452L36.5049 92.3569L36.3525 92.3218L33.7393 91.8647H33.7158L31.1963 91.3608L28.665 91.1851H28.5947L28.5361 91.1733L25.9346 90.7632L25.8174 90.7515L25.7119 90.7163L23.3799 89.9663L20.9307 89.9546H20.6611L20.415 89.8608L18.0127 88.9468L15.6572 88.5132L13.0674 88.3257L12.9502 88.314L12.8213 88.2905L10.2549 87.6577L10.1377 87.6343L10.0322 87.5874L7.68848 86.6147L5.25098 86.1108L5.19238 86.0991L5.14551 86.0874L4.60645 85.9351L5.42676 83.0522L5.94238 83.2046Z" fill="black"/>
<path d="M5.94238 77.8145L8.48535 78.3652L8.61426 78.4004L8.73145 78.4473L11.04 79.4199L13.4424 79.9941L15.9502 80.1699L16.1143 80.1934L18.7158 80.6621L18.8447 80.6855L18.9619 80.7324L21.2588 81.5762H23.8721L24.083 81.6348L26.5439 82.3965L28.9814 82.7598L31.5479 82.9355H31.6416L31.7354 82.959L34.2783 83.4512H34.29L36.7275 83.873L39.2588 83.791L39.4463 83.7793L39.6221 83.8262L42.165 84.3652L44.5322 84.5645L47.1689 84.5527H47.3213L47.4736 84.5879L49.9111 85.0684L52.501 85.1855H52.5361L55.1846 85.373H55.208L57.6455 85.5957L60.1182 85.209L60.3525 85.1738L60.5869 85.209L63.083 85.5957L65.5557 85.4668H65.6611L65.7666 85.4785L68.1807 85.6777L70.6182 85.1973L70.8643 85.1504L71.1221 85.1855L73.5947 85.5371L76.0322 85.2676H76.0557L78.6689 85.0098L81.2939 84.7285L81.3877 84.7168H81.4932L84.0127 84.7871L86.4619 84.3652L86.5439 84.3535H86.6143L89.04 84.1777L91.4658 83.4277L91.665 83.3691H91.8643L94.3955 83.2637L96.9736 82.8887L99.3525 82.2324L99.3877 82.2207H99.4346L102.013 81.6699L102.048 81.6582H102.095L104.579 81.2598L106.97 80.5098L109.22 79.4434L109.337 79.3848L109.454 79.3496L111.845 78.6816L114.2 77.7207L114.247 77.709L114.294 77.6855L114.388 77.6621L114.868 79.0801L115.337 80.498L112.981 81.459L112.911 81.4941L112.829 81.5176L110.415 82.1855L108.118 83.2871L108.024 83.334L107.919 83.3574L105.399 84.1543L105.294 84.1895L105.177 84.2129L102.563 84.623L102.552 84.6113L100.056 85.1504L97.583 85.8301L97.501 85.8535L97.4072 85.8652L94.7939 86.252L94.7119 86.2637H94.6299L92.1572 86.3574L89.8135 87.0957L89.6377 87.1426L89.4619 87.1543L86.8486 87.3301L84.3643 87.7754L84.2236 87.7988H84.0713L81.4932 87.7168L78.9854 87.998H78.9736L76.3486 88.2324L76.3604 88.2441L73.7354 88.5371L73.5479 88.5605L73.3604 88.5371L70.9229 88.1855L68.5674 88.666L68.3682 88.7012L68.1572 88.6895L65.5791 88.4668L63.0713 88.6074H62.9189L62.7549 88.584L60.3525 88.209L57.9385 88.5957L57.7627 88.6191L57.5752 88.6074L54.9385 88.3613V88.3496L52.3252 88.1855V88.1738L49.7236 88.0684H49.6182L49.501 88.0449L47.0166 87.5527L44.5557 87.5762H44.415L41.7783 87.3535L41.6846 87.3418L41.5791 87.3184L39.1768 86.791L36.6924 86.8848H36.54L36.376 86.8613L33.7744 86.4043H33.751L31.2432 85.9121L28.7002 85.7598L28.583 85.7363L25.958 85.3496L25.8525 85.3262L25.7354 85.291L23.415 84.5762H20.6846L20.4385 84.4824L18.0596 83.5918L15.6924 83.1582L13.0908 82.9941L12.9619 82.9824L12.833 82.9473L10.2783 82.3262L10.1611 82.3027L10.0439 82.2559L7.68848 81.2598L5.25098 80.7207L5.18066 80.709L5.12207 80.6855L4.57129 80.5098L5.46191 77.6504L5.94238 77.8145Z" fill="black"/>
<path d="M21.2832 38.2188L21.2949 38.2305L19.9941 39.0039L20.6504 40.3281L19.4668 40.9023L17.6152 42.5312L17.4746 42.6367L17.3223 42.7188L15.084 43.8906L13.1738 45.332L11.2754 47.2305L11.1934 47.2891L9.20117 48.7539L7.5957 50.6523L6.20117 52.6328L5.28711 54.5547L5.46289 56.7461L5.7207 58.9375L7.06836 60.6719L8.65039 62.2773L10.8301 63.0859L11.2402 63.2383L11.5098 63.5781L13.0801 65.6406L13.1855 65.793L13.2676 65.957L14.2871 68.3477L15.2012 70.4688L16.9004 71.9688L17.3223 72.3438L17.3926 72.9062L17.6621 75.0273L18.5176 76.3281L20.2285 76.5156L22.6191 76.0117L22.8301 75.9648L23.0527 75.9883L25.6074 76.2109H25.6191L28.1973 76.2812L30.7988 76.1992H30.9629L33.166 76.3516L33.7871 76.0234L33.541 75.4141L31.8066 74.8164L29.4863 74.1602L27.166 74.2539L26.6738 74.2773L26.2754 74.0078L26.1934 73.9492L27.0254 72.6953L27.0957 72.5781L27.0488 71.2539L29.6152 71.1602H29.8496L30.084 71.2188L32.627 71.9453L32.6973 71.9688L35.1699 72.7891L35.8262 73.0117L36.084 73.668L37.0684 76.1758L37.5605 77.418L36.377 78.0508L34.1973 79.2109L33.8105 79.4102L33.377 79.375L30.8926 79.1875L30.9043 79.1992L28.2676 79.293H28.1621L25.5371 79.2109H25.4434L23.0293 78.9883L20.6152 79.5039L20.3809 79.5508L20.1348 79.5273L17.4863 79.2344L16.7949 79.1523L16.4082 78.5664L14.9668 76.4102L14.7793 76.1172L14.7324 75.7656L14.4863 73.8438L12.9629 72.4844L12.7168 72.2617L12.5879 71.9688L11.5332 69.5312L10.5605 67.293L9.37695 65.7461L7.2793 64.9727L6.96289 64.8555L6.7168 64.6094L4.85352 62.6875L4.79492 62.6289L4.74805 62.5703L3.10742 60.4727L2.86133 60.1445L2.80273 59.7344L2.48633 57.1211L2.47461 57.0859V57.0508L2.27539 54.3789L2.24023 53.9805L2.41602 53.6172L3.57617 51.2031L3.62305 51.0859L3.69336 50.9922L5.2168 48.8125L5.26367 48.7539L5.31055 48.707L7.02148 46.6914L7.12695 46.5625L7.26758 46.457L9.36523 44.8984L11.123 43.1523L11.1934 43.082L11.2754 43.0234L13.3848 41.4297L13.4785 41.3594L13.5957 41.3008L15.752 40.1523L17.6621 38.5117L17.8027 38.3828L17.9785 38.3008L19.3262 37.6445L20.5801 37.0234L21.2832 38.2188ZM40.3848 13.2344L43.0215 13.293H43.1152L43.2207 13.3047L45.7051 13.6914L46.4551 13.8086L46.8066 14.4883L47.8379 16.4688L49.7246 17.6758L51.916 18.8828L54.2832 20.0547L54.3652 20.0898L54.4355 20.1484L56.5918 21.5547L56.8848 21.7539L57.0723 22.0703L58.3496 24.3203L58.6426 24.8359L58.4902 25.4219L57.834 28.082L57.541 29.207L56.3809 29.2188L53.7324 29.2305H53.6855L53.6387 29.2188L52.1738 29.125H52.1621L54.3887 29.5234L55.1152 29.6523L55.4551 30.3203L56.4629 32.3125L56.8848 33.1445L56.3223 33.8828L54.916 35.7812L54.3418 36.543L53.416 36.3555L51.2598 35.9219L49.1621 36.6133L48.7754 35.4297L48.6348 35.3945L47.1934 34.9844L47.252 34.7734L47.4746 34L48.2363 33.7539L50.7207 32.9453L51.0957 32.8281L51.4824 32.9102L53.0645 33.2266L53.3574 32.8281L53.1113 32.3359L51.3066 32.0195L50.9785 31.9609L50.709 31.7734L48.7402 30.4023L47.3223 29.4062L48.5059 28.1406L50.0176 26.5352L50.5098 26.0195L51.2129 26.0664L53.8027 26.2188H55.1973L55.4316 25.2695L54.6348 23.8633L52.7949 22.6562H52.7832L50.5801 21.5781L50.5566 21.5547L50.5215 21.543L48.2129 20.2539L48.166 20.2422L48.1309 20.207L45.8926 18.7891L45.5527 18.5664L45.3652 18.2148L44.4863 16.5391L42.8926 16.2812L40.584 16.2344L38.5801 16.9609L36.752 18.2969L35.041 20.0195L33.6934 22.1055L33.6465 22.1875L33.5879 22.2461L32.041 24.0859L31.2441 26.207L30.752 28.4805L30.8926 30.7539L31.5605 33.168L31.6074 33.3672V33.5781L31.584 36.2617L31.6309 38.6641L32.1582 41.0664L32.2168 41.3711L32.1582 41.6641L31.7246 43.9023L31.666 44.1719L31.5254 44.4062L30.1191 46.6445L30.0605 46.75L29.9668 46.8438L28.209 48.8242L28.0684 48.9766L27.8926 49.0938L25.7129 50.4648L23.6855 52.0586L23.627 52.1055L23.5566 52.1406L21.3066 53.5352L21.1895 53.6055L18.8809 54.7539L17.0527 56.0781L15.4941 57.9883L13.9004 60.0625L13.8301 60.1562L13.7363 60.25L12.2598 61.6211L11.334 62.4883L10.3262 61.7031L8.20508 60.0742L7.91211 59.8398L7.75977 59.5L6.64648 57.0156L6.40039 56.4766L6.59961 55.9023L7.49023 53.3945L7.52539 53.2891L7.57227 53.1953L8.79102 50.8867L8.89648 50.6641L9.07227 50.5L10.9707 48.6602L11.041 48.6016L11.1113 48.5547L13.209 46.9492L13.3496 46.8438L13.502 46.7734L15.7754 45.7305L17.709 44.2188L17.791 44.1484L17.8848 44.1016L20.0059 42.8594L21.6699 41.207L22.9824 39.4141L23.3574 37.457L22.9355 35.4883L21.7051 34.0234L19.666 33.2969L17.5684 32.9336L15.7402 33.3789L14.3105 35.0312L14.2871 35.0781L14.252 35.1133L12.623 36.7305L11.9668 38.8633L11.8379 39.2852L11.498 39.5781L11.416 39.6367L10.4668 38.4883L10.3613 38.3594L9.10742 37.9727L9.86914 35.5L9.97461 35.1484L10.2324 34.8906L12.1191 32.9922L13.7949 31.0586L14.1113 30.6953L14.5684 30.5781L17.1699 29.9453L17.4746 29.875L17.791 29.9336L20.3457 30.3789L20.4746 30.4023L20.5918 30.4492L23.0879 31.3516L23.4629 31.4805L23.7207 31.7852L25.4785 33.8242L25.7246 34.1172L25.8066 34.4922L26.3574 37.1172L26.416 37.4102L26.3574 37.7031L25.877 40.3164L25.8184 40.6445L25.6074 40.9258L24.0371 43.082L23.9668 43.1758L23.873 43.2578L21.9863 45.1328L21.8574 45.2617L21.6816 45.3672L19.4785 46.6328L17.4629 48.2148L17.3223 48.332L17.1582 48.4023L14.8613 49.4453L12.9863 50.8867L11.3457 52.457L10.2676 54.5195L9.62305 56.3359L10.3262 57.918L11.1348 58.5508L11.6152 58.1055L13.1504 56.125L13.1621 56.1133L13.1738 56.0898L14.8379 54.0391L14.9668 53.8867L15.1309 53.7695L17.2754 52.2227L17.3691 52.1523L17.4863 52.1055L19.7715 50.957L21.9277 49.6211L23.9316 48.0625L23.9902 48.0156L24.0488 47.9805L26.0996 46.668L27.6348 44.9453L28.8301 43.0352L29.1465 41.3945L28.6777 39.1445L28.6543 39.0039L28.6426 38.8633L28.584 36.2852V36.2383L28.5957 33.7422L27.9629 31.4219L27.9277 31.2695L27.916 31.1172L27.752 28.4805L27.7402 28.2812L27.7871 28.082L28.3262 25.5039L28.3496 25.3867L28.3965 25.2812L29.334 22.7969L29.416 22.5625L29.5801 22.3633L31.209 20.4062L32.6152 18.25L32.709 18.1211L32.8145 18.0156L34.6777 16.1289L34.7598 16.0469L34.8535 15.9766L36.9863 14.4297L37.1504 14.3008L37.3496 14.2305L39.834 13.3164L40.1035 13.2227L40.3848 13.2344Z" fill="black"/>
<path d="M76.7119 12.9185L79.3486 13.0474L79.6182 13.0708L79.8643 13.1763L82.3018 14.2192H82.3135L82.3252 14.231L84.7275 15.3325L85.2197 15.5552L85.4541 16.0239L86.5674 18.2739L88.0205 20.2192L88.0791 20.3013L88.126 20.395L89.3799 22.7153L89.4033 22.7622L89.4268 22.8208L90.4814 25.2349L90.5752 25.4575L90.5986 25.6802L90.8682 28.27L91.4307 30.731L91.4658 30.8716V31.0122L91.5596 33.6606V33.6841L91.5947 36.3325L91.6064 36.5317L91.5479 36.731L90.8916 39.3325L90.5518 41.395L90.833 43.2466L92.251 44.8638L93.8916 46.6567L96.001 47.8521L96.1064 47.9106L96.2119 47.9927L98.2393 49.645L100.349 50.9458L100.396 50.9692L100.442 51.0044L102.587 52.5396H102.575L104.731 54.0278L104.86 54.1216L104.966 54.2388L106.759 56.1606L106.899 56.313L106.993 56.5005L107.86 58.2114L108.259 58.3521L109.149 57.52L109.501 55.9614L108.411 54.2505L108.376 54.2036L108.353 54.145L107.228 52.0474L105.411 50.4888V50.4771L103.431 48.8716L101.333 47.2896L101.298 47.2661L101.274 47.2427L99.2939 45.5903L97.1611 44.1958L96.9854 44.0903L96.8564 43.938L94.9229 41.7466L94.8291 41.4888L93.8682 39.0396L93.8096 38.8638L93.7861 38.688L93.4346 36.0747L93.376 35.606L93.5869 35.1958L94.7705 32.8638L94.8291 32.7583L94.8994 32.6528L96.4697 30.5083L96.7627 30.1099L97.2549 29.9575L99.7744 29.2075L100.056 29.1255L100.337 29.1489L102.903 29.3716L103.185 29.395L103.442 29.5239L105.845 30.7075L106.138 30.8481L106.337 31.106L108.024 33.1802V33.1919L108.036 33.2036L109.653 35.2896L109.712 35.3716L109.771 35.4653L111.024 37.6685L110.017 38.231L109.794 38.4771L108.763 39.5669L108.692 39.4966L108.528 39.3442L108.423 39.1567L107.204 37.0239L105.681 35.0552V35.0669L104.204 33.2388L102.376 32.3364L100.349 32.1606L98.5791 32.688L97.3721 34.3403L96.4697 36.1333L96.7158 38.0903L97.5127 40.1411L98.9541 41.7817L101.028 43.1411L101.099 43.188L101.157 43.2466L103.196 44.9341H103.185L105.247 46.4927L105.271 46.5044L105.282 46.5161L107.345 48.1802L107.356 48.2036L107.38 48.2153L109.396 49.9497L109.606 50.1372L109.735 50.3833L110.931 52.6333L112.372 54.8716L112.712 55.3989L112.571 56.02L111.985 58.6333L111.88 59.0786L111.54 59.395L109.642 61.1646L108.985 61.7739L108.142 61.481L106.313 60.8599L105.739 60.6606L105.47 60.1216L104.415 58.0474L102.868 56.395L100.853 54.9888H100.841L100.829 54.9771L98.6846 53.4419H98.6729L96.5283 52.1177L96.3643 52.0005L94.3955 50.3833L92.2041 49.1528L91.9932 49.0356L91.8408 48.8599L90.0361 46.8911L90.0127 46.8677L88.29 44.8989L87.9971 44.5708L87.9385 44.1372L87.5518 41.6411L87.5283 41.4067L87.5635 41.1841L87.9502 38.7231L87.9619 38.6646L87.9854 38.5942L88.583 36.1802L88.5596 33.7544L88.4775 31.2466L87.9268 28.8091L87.9033 28.7153L87.8916 28.6333L87.6455 26.2192L86.7314 24.1333L85.5244 21.8833L84.0713 19.938L84.001 19.8325L83.0049 17.8403L81.1064 16.9731L78.915 16.0239L76.9229 15.9302L75.458 16.645L74.333 18.5435L74.0283 19.0474L73.4658 19.2114L71.1807 19.8794L69.5518 21.2622L69.376 21.4146L69.165 21.4966L66.7041 22.5396H66.6924L64.8291 23.313L64.29 24.4849L64.5244 25.7505L65.5791 26.1372H68.4971L68.9189 26.4888L70.7588 28.0122L72.0127 29.0669L70.8643 30.2271L69.1533 31.9614L68.7783 32.3364L68.251 32.395L66.751 32.5591L66.6924 32.9224L67.2783 33.438L68.9189 32.8521L70.1611 32.395L70.7588 33.5669L71.708 35.4067L72.1533 36.2622L71.5557 37.0239L70.0205 38.9692L68.8955 41.2192L68.0635 43.4692L67.501 45.6372L67.8525 47.8403L68.6143 50.0435L69.6221 52.3052L71.1104 54.2505L71.2627 54.4614L71.3447 54.7075L72.1416 57.2388L72.2002 57.4263L72.2119 57.6138L72.3643 60.2739V60.3794L72.3525 60.4849L72.1299 63.1216V63.1802L72.1182 63.2505L71.6729 65.8521V65.8989L71.1807 68.3481L70.9111 70.9731L70.876 71.3481L70.665 71.6646L69.3408 73.6333L69.0596 74.0435L68.5908 74.2075L66.5283 74.9224L65.7314 75.9302L65.8604 76.3989L67.3955 76.4458L69.9033 76.3403L72.0127 76.1294L73.208 75.0396L73.7471 72.9067L73.7705 72.8013L73.8174 72.6958L74.7783 70.3169L75.2939 67.9028L75.3291 67.7153L75.4229 67.5396L76.5596 65.231L77.5205 62.8052L77.5908 62.6294L77.6963 62.4771L78.9502 60.7427L78.8213 58.645L78.8096 58.5044L78.8213 58.3755L79.126 55.8911L78.8213 53.4419L79.6299 53.3364L80.0986 52.9849L81.2939 52.0708L81.5049 52.3521L81.751 52.6685L81.8096 53.0786L82.126 55.7036L82.1494 55.8911L82.126 56.0786L81.8096 58.6333L81.9736 61.106L82.0088 61.645L81.6924 62.0786L80.2275 64.0942L79.3486 66.3794L79.3252 66.438L79.29 66.4966L78.1768 68.7349L77.6729 71.1255L77.6494 71.2544L77.5908 71.3833L76.6182 73.7153L76.0205 76.1997L75.915 76.645L75.5752 76.9497L73.6768 78.6841L73.3135 79.0239L72.8096 79.0708L70.1963 79.3286L70.1611 79.3403H70.126L67.4893 79.4575H67.3721L64.6533 79.3755L63.54 79.3403L63.2471 78.2622L62.6494 75.9653L62.4619 75.2388L62.9307 74.6528L64.4658 72.7192L64.7354 72.3794L65.1455 72.2388L67.1143 71.5474L67.958 70.2935L68.1924 68.0435L68.2158 67.9028L68.7314 65.313L69.1533 62.7466L69.3525 60.3091L69.2119 57.9536L68.5557 55.856L67.126 53.981L67.0205 53.8403L66.9502 53.688L65.8721 51.2739L65.8486 51.2036L65.8252 51.145L64.9814 48.7075L64.9463 48.5903L64.9229 48.4614L64.4893 45.8364L64.4424 45.5317L64.5127 45.2271L65.1807 42.6489L65.1924 42.5669L65.2275 42.4966L66.1416 40.0239L66.1768 39.9419L66.2119 39.8716L67.4072 37.4927L67.4775 37.3638L67.5713 37.2349L68.3447 36.2388L67.4775 36.5669L66.6338 36.8833L65.9658 36.2856L64.1025 34.645L63.4932 34.0942L63.6104 33.2856L63.9736 30.9653L64.1494 29.8286L65.2861 29.6997L67.3838 29.4536L67.5713 29.2661L67.4189 29.1372H65.0752L64.8174 29.0552L62.708 28.2817L61.8994 28.0005L61.7471 27.145L61.2666 24.5552L61.1729 24.0864L61.3721 23.6528L62.3447 21.5435L62.5908 21.0044L63.1299 20.7817L65.5322 19.7739L67.7939 18.813L69.4814 17.3833L69.7275 17.1841L70.0322 17.0903L72.0596 16.4927L73.1143 14.7349L73.3486 14.3481L73.7471 14.1489L75.9854 13.0708L76.3252 12.895L76.7119 12.9185ZM101.86 38.231L103.935 39.5435L103.97 39.5669L104.017 39.6021L106.149 41.1489L106.173 41.1724L106.196 41.1841L108.271 42.8247L108.388 42.9185L108.493 43.0356L110.146 45.0044L112.009 46.7036L112.114 46.8091L112.196 46.9263L113.743 49.0122L115.478 50.8638L115.7 51.0981L115.806 51.4146L116.649 53.9341L116.685 54.0278L116.708 54.1333L117.188 56.688L117.224 56.8638L117.212 57.0513L117.048 59.6528L117.024 60.0161L116.825 60.3325L115.454 62.5825L115.302 62.8403L112.923 64.5396L112.864 64.5864L112.806 64.6099L110.778 65.7817L109.372 67.481L108.259 69.4966L107.825 71.7466L107.755 72.1099L107.532 72.3911L107.474 72.4731L106.29 71.5356L106.138 71.4185L104.884 71.1724L105.376 68.6646L105.423 68.4302L105.54 68.2192L106.817 65.9106L106.888 65.7935L106.97 65.688L108.634 63.6841L108.798 63.4849L109.032 63.356L111.212 62.0786L113.052 60.7544L114.06 59.0903L114.188 57.0513L113.755 54.7075L113.063 52.6685L111.458 50.9575L111.399 50.8872L111.353 50.8169L109.841 48.7896L108.036 47.1372L107.966 47.0786L107.907 46.9966L106.302 45.0981L104.38 43.5747L102.329 42.0864L100.103 40.6802L99.9502 40.5864L99.8213 40.4458L98.9189 39.52L101.075 37.4341L101.86 38.231Z" fill="black"/>
<path d="M91.2485 71.2397L91.3306 71.2515L93.8501 71.439L93.7446 72.7163L93.8267 72.8921L94.4595 74.2515L94.3774 74.2983L94.0142 74.4624L93.6274 74.4272L91.1548 74.2397L88.8462 74.3335L87.0884 75.0132L86.4556 75.939L86.6079 76.2202L88.2485 76.2319L90.8735 76.0562H91.0259L93.6626 76.1265L93.7329 76.1382H93.8032L96.229 76.4194L98.6548 76.0327L98.8188 75.9976L98.9829 76.0093L101.057 76.1147L101.713 75.5874L101.467 74.3218L102.792 74.0522L102.545 72.5757L102.698 72.5522L104.127 72.3062L104.409 73.7358L104.842 75.9038L105.018 76.8062L104.303 77.3687L102.475 78.8218L102.03 79.1733L101.467 79.1499L98.9478 79.0093L96.5103 79.4194L96.2993 79.4546L96.0884 79.4312L93.4517 79.1265V79.1147L91.0376 79.0562L88.4478 79.2437H88.3188L85.6821 79.2085L84.7915 79.1968L84.3696 78.4116L83.3853 76.5366L82.9751 75.7397L83.479 75.0015L84.8735 72.939L85.1313 72.5522L85.5767 72.3882L88.0259 71.439L88.2603 71.3569L88.5063 71.3452L91.1548 71.2397H91.2485Z" fill="black"/>
<path d="M85.5464 38.6733L85.6284 38.8374L86.7065 39.564L85.2769 41.6851L85.0659 41.978L84.7612 42.1538L82.4526 43.4312L82.394 43.4663L82.3237 43.5015L79.9097 44.5444L79.8159 44.5796L79.7339 44.6147L77.2144 45.3413L75.0815 46.103L73.4292 47.4155L72.2925 49.2905L71.3081 51.6694L71.2964 51.6929V51.7046L70.2651 53.978L69.0933 53.4507V53.4624L68.4019 54.7983L68.2026 54.6929L66.9487 54.0366L67.5347 52.7476L68.5542 50.4741H68.5659L69.5386 48.1069L69.5854 48.0015L69.644 47.9077L70.98 45.6694L71.1206 45.4233L71.3315 45.2593L73.394 43.6187L73.5933 43.4663L73.8159 43.3843L76.2886 42.4819L76.3823 42.4585L78.7378 41.7671L81.1284 40.7476L82.9683 39.7046L84.2222 37.8765L84.4214 37.5835L84.7378 37.4077L84.8315 37.3608L85.5464 38.6733Z" fill="black"/>
<path d="M33.8525 38.4673L35.8682 38.9829L36.1025 39.0532L36.3135 39.1821L38.3877 40.5415L40.5439 41.3853L43.04 42.0298L43.0986 42.0415L43.1572 42.0649L45.6416 42.9204L45.7705 42.9673L45.8994 43.0376L48.1963 44.3618L48.4893 44.5259L48.6768 44.8071L50.2236 46.9868L50.3994 47.2329L50.458 47.5259L50.9971 49.9985L51.7588 52.5532L51.8291 52.7993L51.8174 53.0571L51.7002 55.7056L51.7588 58.2603V58.4126L51.7354 58.5532L51.2783 61.0376L51.29 63.5337L51.5244 65.9009L52.0869 68.4438L52.1221 68.6313L52.1104 68.8188L52.04 70.6704L53.3877 71.5259L55.6846 72.604L56.1533 72.8267L56.3877 73.2837L57.5713 75.6392L58.1689 76.8228L57.0674 77.561L55.2861 78.7446L55.0283 78.9204L54.7236 78.979L52.0869 79.4712L51.9111 79.5063L51.7354 79.4946L49.0869 79.354H49.0283L48.958 79.3423L46.333 78.9556L45.5713 78.8501L45.2197 78.1821L43.9893 75.8501L43.9072 75.686L43.8604 75.5103L43.251 73.1079L42.0908 70.9399L42.0439 70.8462L40.9658 68.4321L40.9189 68.3501L40.8955 68.2681L40.1455 65.8892L38.8447 63.8032L38.751 63.6509L38.6924 63.4634L37.8955 60.9321L37.8135 60.6978L37.8252 60.4399L37.9189 57.8149L37.9424 55.2017V55.0493L38.2002 52.7993L38.3643 51.2993L39.876 51.4751L39.9697 51.4868L39.7822 52.9634L41.1768 53.1392L40.9307 55.2837L40.9189 57.8735V57.9204L40.8252 60.2876L41.4814 62.3618L42.8057 64.4946L42.9111 64.6587L42.958 64.8345L43.7197 67.2485L44.7275 69.522L45.9932 71.854L46.0752 72.0181L46.7197 74.5962L47.5049 76.0962L49.2393 76.354L51.7119 76.4829L53.8799 76.0728L54.29 75.8032L53.9385 75.1001L52.0166 74.1978L51.9229 74.1509L51.8408 74.104L49.708 72.7329L48.9814 72.2759L49.0166 71.4204L49.1104 68.8892L48.583 66.4985L48.5596 66.4048L48.5479 66.311L48.3018 63.6978V63.5688L48.2783 60.9204V60.7798L48.3018 60.6392L48.7471 58.1665L48.7002 55.6704V55.6235L48.7119 55.5767L48.8057 53.1392L48.126 50.854L48.1025 50.8071L48.0908 50.7485L47.5869 48.4517L46.4033 46.7876L44.5166 45.7095L42.2432 44.9126L39.7354 44.2915L39.6416 44.2681L39.5479 44.2329L37.1572 43.2837L37.0166 43.2368L36.8877 43.1431L34.8604 41.8188L33.7822 41.5376L32.2822 42.6157L31.7666 42.9907L31.1338 42.8735L31.04 42.8501L31.3096 41.3853L31.3213 41.2798L30.5361 40.1782L32.6104 38.7017L33.1846 38.2915L33.8525 38.4673Z" fill="black"/>
<path d="M64.5435 65.8369L67.0513 66.3408L69.4653 66.5635H69.5708L69.4771 68.0635L69.395 69.5518H69.2427L66.7114 69.3174L66.6411 69.3057L66.5591 69.2939L64.1216 68.8018L61.6724 68.9307H61.6489L59.0122 69.0127H58.895L56.3755 68.8955L53.8677 69.0947L51.4302 69.6338L51.02 69.7275L50.6216 69.5869L50.2935 69.4814L50.7856 68.0635L50.9614 67.5244L50.7856 66.7041L53.3638 66.1416L53.4692 66.1182L53.5747 66.1064L56.1997 65.8955H56.3872L58.9771 66.0127L61.5317 65.9424V65.9307L64.1802 65.8135L64.356 65.8018L64.5435 65.8369Z" fill="black"/>
<path d="M52.2197 36.459L52.3604 36.6113L52.4658 36.7871L53.708 39.0957L54.9971 41.3926L55.1143 41.5918L55.1611 41.8145L55.7236 44.4277L55.7822 44.709L55.7354 44.9902L55.3018 47.6152L55.2783 47.7324L55.2432 47.8379L54.4111 50.3457L54.3643 50.4863L53.2744 52.9004L53.2158 53.0645L53.1104 53.1934L52.2549 54.3301L51.376 55.502L50.1807 54.6348L50.1104 54.5879L50.9775 53.3691V53.3574L49.8643 52.5137L50.6143 51.4941L51.5752 49.3613L52.3486 47.0176L52.7236 44.7793L52.2783 42.6816L51.0947 40.5723L51.083 40.5605V40.5488L49.8994 38.3809L48.2939 36.7168L48.1064 36.5293L47.9893 36.2832L47.9541 36.1895L49.3252 35.5801L49.5596 35.4746L50.4385 34.6309L52.2197 36.459Z" fill="black"/>
<path d="M78.1157 66.3901H78.186L78.2446 66.4019L80.729 66.894H80.7524L83.1431 67.4214L85.6157 67.3042H85.6509L88.2876 67.2339L88.6509 67.2222L88.9907 67.3862L91.3228 68.5347L91.7798 68.769L92.0142 69.2144L93.1743 71.5698L92.6704 71.8042L91.8853 72.3081L90.6079 73.105L90.561 73.0229L90.5142 72.9644L90.4907 72.894L89.5415 71.0073L87.9946 70.2339L85.7212 70.3042L85.7095 70.2925L83.0962 70.4214H82.9087L82.7212 70.3862L80.1196 69.8354V69.8237L77.6704 69.355L77.729 69.062L77.8579 67.8667L78.022 66.3784L78.1157 66.3901Z" fill="black"/>
<path d="M94.9028 57.5381L94.9966 57.6201L96.0747 58.6631L96.0044 58.7334L95.6294 59.1201L95.0903 59.1787L92.6411 59.46L90.7427 59.9639L89.7817 61.3584L89.5942 63.3857L89.8052 65.7412L90.4028 68.2139V68.2373L90.4146 68.2607L90.4263 68.3311L88.9614 68.6357L87.4966 68.9521L87.4731 68.8701L87.4849 68.8584L86.8638 66.3506L86.8403 66.2451L86.8286 66.1396L86.5942 63.5146L86.5825 63.3857L86.5942 63.2451L86.8403 60.6904L86.8872 60.3037L87.0981 59.9873L88.5864 57.8193L88.9028 57.3623L89.4419 57.2217L91.9966 56.5303L92.1138 56.4951L92.2192 56.4834L94.7622 56.2021L94.9028 57.5381Z" fill="black"/>
<path d="M37.082 66.4141L39.6484 66.6719L42.0625 66.5664V66.5781L42.0859 66.5664L42.2148 68.0547L42.3438 69.5547L42.2383 69.5664H42.1797L39.6367 69.6719H39.5312L39.4375 69.6602L36.9766 69.4141L34.5508 69.8125L32.0664 70.3164L29.8984 70.9141L28.4922 72.0742L28.1055 73.4453L27.7305 74.7344L26.418 74.5117L26.2422 74.4766L26.5 73V72.9766L25.2227 72.6016L25.7617 70.7969L25.8906 70.3633L26.2422 70.0703L28.2461 68.3945L28.5039 68.1836L28.8203 68.0898L31.3516 67.4102L31.4453 67.3867L34.0117 66.8594H34.0469L34.0703 66.8477L36.6953 66.4258L36.8828 66.4023L37.082 66.4141Z" fill="black"/>
<path d="M40.4482 18.5732L42.6279 18.9248L42.4053 20.3076L43.8936 20.542L43.8818 20.6357L43.6357 22.124L42.1592 21.8896L41.1748 21.7256L41.0928 21.9365L42.3232 23.0381L42.8389 23.4951L42.8271 24.1748L42.792 26.624L42.9209 28.8857L43.8936 30.6084L45.71 32.0967L46.3311 32.6006L46.2607 33.3975L46.2373 33.5967L44.749 33.4561L44.6084 33.4326L43.8115 34.417L41.7842 32.7646L41.5615 32.5771L41.4326 32.3311L40.1318 30.0459L39.9678 29.7412L39.9443 29.3896L39.792 26.7998V26.6943L39.8154 24.8193L38.3389 23.5068L37.5654 22.8154L37.9287 21.8545L38.8076 19.5225L39.2412 18.3857L40.4482 18.5732Z" fill="black"/>
<path d="M26.3979 56.1118L28.3901 56.3228L28.812 56.3696L29.1401 56.6157L31.1909 58.1743L31.3433 58.2915L31.4604 58.4556L33.0542 60.4946L33.23 60.7173L33.3003 60.9985L34.0503 63.5298L34.1675 63.9634L34.0386 64.397L33.2417 66.9399L33.23 66.9517V66.9751L32.4097 69.3892L31.1909 68.9673L31.0034 69.0024L29.5151 69.2368L29.5034 69.1313L29.4448 68.7681L29.562 68.4165L30.394 66.0024L31.0386 63.9399L30.5112 62.1235L29.2104 60.436L27.6401 59.2524L26.0815 59.0884L26.2456 57.6235L24.7456 57.6821V57.6704L24.6636 55.9243L26.3979 56.1118Z" fill="black"/>
<path d="M81.373 19.4956L81.8066 21.8979L81.9238 22.5425L81.5254 23.0698L80.3301 24.6401L80.541 26.3979L80.5762 26.6206L80.5293 26.855L80.0488 29.4683L80.002 29.7144L79.8848 29.9253L78.6074 32.2104L78.5254 32.3745L78.3848 32.5151L76.5684 34.4487L76.1816 34.8472L75.6309 34.9058L75.2793 34.9409L75.127 33.4526L75.0918 33.0425L74.3887 32.3862L76.0996 30.5581L77.1309 28.6831L77.5293 26.5151L77.2832 24.4058L77.2012 23.8081L77.5762 23.3159L78.7363 21.769L78.7012 21.6284L77.8691 21.8511L76.2871 22.2729L76.0059 20.6675L75.9941 20.562L77.4473 20.3042L77.0957 18.9565L79.5098 18.312L81.0801 17.9019L81.373 19.4956Z" fill="black"/>
<path d="M40.0791 63.063L40.0439 63.0747L37.7588 64.1646L37.6885 64.1997L37.6182 64.2231L35.2393 65.0669L33.3291 66.0161L30.8564 67.2349L31.1729 64.4927L31.1846 64.4106L32.6143 64.563L32.0049 63.3208L33.9502 62.3599L34.0322 62.3247L34.1025 62.2896L36.4932 61.4458L38.7549 60.3677L38.7783 60.356L38.8135 60.3442L38.9072 60.2974L40.0791 63.063Z" fill="black"/>
<path d="M82.9165 60.9653L83.104 61.0239L83.2563 61.1294L85.3188 62.4536L87.5337 63.0981L87.6274 63.1216L87.7212 63.1685L87.8032 63.2036L87.2056 64.5747L86.8774 65.313L86.6899 65.981L84.2524 65.2661L84.0415 65.2075L83.8657 65.0903L81.7798 63.7427L80.0806 63.1919L78.5923 62.6997L79.1548 61.2349L79.1782 61.1528L80.5845 61.6802L81.0181 60.3325L82.9165 60.9653Z" fill="black"/>
</svg>
