<svg width="120" height="120" viewBox="0 0 120 120" fill="none" xmlns="http://www.w3.org/2000/svg">
<path d="M38.4626 19.5448L38.6646 19.5774L41.2477 20.0517L41.403 20.0876L41.5483 20.1478L44.0051 21.1597L44.0177 21.1705L46.4161 22.1865L46.6832 22.3085L46.8977 22.5165L48.7323 24.3598L48.8091 24.4483L50.5284 26.4877L50.7203 26.7091L50.8104 26.9846L51.637 29.5222L51.6804 29.6366L51.7004 29.7527L52.1104 32.3786L52.1245 32.5774L52.1712 35.2174L52.1637 35.2767L52.1679 35.3351L52.0259 37.9651L52.0159 37.9893L52.0184 38.0244L51.7829 40.661L51.7628 40.8739L51.6834 41.0793L50.7083 43.557L50.6665 43.6305L50.6373 43.7148L49.476 45.8886L49.4543 45.9136L49.4443 45.9378L48.0926 48.2426L47.0149 50.434L46.0691 52.4984L46.3105 54.737L46.3305 54.853L46.3263 54.9591L46.2069 57.4112L46.7272 59.6064L47.7518 61.9537L47.7668 61.9996L47.781 62.0338L48.6435 64.4162L49.6372 66.6599L51.1753 68.63L51.2788 68.7636L51.3606 68.9223L52.4161 71.2087L53.7897 73.3432L55.3345 75.4068L55.3987 75.4844L55.4521 75.5746L56.5319 77.5421L58.3474 78.952L58.4342 79.0163L58.5102 79.0932L60.3105 80.9506L61.9999 82.5692L64.1312 83.2988L64.1429 83.298L66.5414 83.985L69.0544 84.4643L69.2456 84.5094L69.4159 84.5913L71.6056 85.6457L74.086 86.1624L74.3598 86.2135L74.5944 86.373L76.7105 87.7146L79.0397 88.5828L79.0755 88.592L79.1123 88.6129L81.5483 89.6615L81.5967 89.6816L83.9809 90.8278L84.127 90.8997L84.263 90.9957L86.3289 92.6228L86.3406 92.622L88.3798 94.204L88.6161 94.3869L88.7638 94.6466L89.9053 96.6567L91.8244 98.0358L91.8861 98.0784L91.9487 98.1326L93.7926 99.7755L95.8344 100.899L98.2263 101.657L100.748 102.429L103.103 103.155L105.556 103.45L108.115 103.433L108.197 103.427L108.292 103.444L110.66 103.698L112.865 103.142L113.072 103.092L113.391 103.105L113.332 104.601L113.311 104.967L113.588 106.051L111.13 106.673L110.865 106.738L110.604 106.71L107.964 106.428L105.487 106.451L105.393 106.458L105.298 106.441L102.668 106.135L102.526 106.121L102.394 106.084L99.8707 105.288L99.8716 105.3L97.3495 104.527L97.337 104.517L94.8016 103.722L94.658 103.685L94.5236 103.612L92.1995 102.321L92.0526 102.237L91.9274 102.129L89.9843 100.411L87.9041 98.9137L87.632 98.7216L87.4709 98.4393L86.2902 96.3733L84.5005 94.9968L84.4888 94.9976L82.5097 93.4348L80.2975 92.3938L80.2967 92.3821L77.9216 91.3644L77.9208 91.3527L75.5215 90.4895L75.3762 90.4293L75.2293 90.3458L73.21 89.0443L70.8616 88.5652L70.6712 88.5317L70.5009 88.4498L68.2979 87.3729L65.9761 86.9388L65.8559 86.9004L63.3263 86.1874L63.2904 86.1782L63.2536 86.1573L60.7141 85.304L60.401 85.1971L60.1615 84.9674L58.2334 83.1308L58.2083 83.1091L58.195 83.0865L56.4455 81.2842L54.4556 79.7339L54.2185 79.5393L54.07 79.2679L52.8842 77.1318L51.3403 75.0799L51.2869 74.9897L49.849 72.7775L49.7956 72.6873L49.7539 72.5963L48.6867 70.3108L47.1745 68.3741L47.0585 68.2296L46.9759 68.0593L45.8996 65.6451L45.8846 65.5992L45.8687 65.5416L44.9936 63.1484L43.9399 60.721L43.8957 60.5949L43.8632 60.4679L43.257 57.8912L43.207 57.6833L43.2162 57.4829L43.3181 54.9497L43.0542 52.3956L43.0017 51.9882L43.1747 51.6117L44.2943 49.1824L44.316 49.1573L45.4539 46.8207L45.4739 46.7723L45.5057 46.7231L46.8573 44.4183L47.9442 42.3555L48.7991 40.1683L49.0269 37.7554L49.1663 35.2549L49.1179 32.7559L48.7304 30.2811L48.0531 28.191L46.6034 26.4731L44.9591 24.8278L42.8395 23.9329L42.8387 23.9212L40.5271 22.9695L38.2896 22.5647L35.9985 22.7276L33.4978 23.2461L33.3592 23.2795L33.218 23.2778L30.7876 23.2979L28.6224 23.91L26.5072 25.059L24.6089 26.4511L22.6288 28.1779L20.7563 29.9323L19.0199 31.7828L19.0082 31.7836L19.0091 31.7953L17.2451 33.589L16.0113 35.5682L15.0045 37.9307L14.9844 37.9792L13.884 40.3483L13.8849 40.36L12.7921 42.6699L12.0048 44.9816L12.0173 44.9924L11.3544 47.5655L10.8995 49.924L10.6757 52.5598L10.6882 52.5706L10.4761 55.2056L10.3192 57.6252L10.6975 60.1359L10.6983 60.1476L11.0841 62.7635L11.089 62.8337L11.3304 65.4011L11.8105 67.8577L12.5135 70.3101L13.3435 72.7299L13.3452 72.7533L13.3594 72.7876L14.0549 75.1348L15.3334 77.2525L15.3601 77.2976L16.6126 79.5465L18.0138 81.5733L19.6421 83.6545L19.6304 83.6553L21.1485 85.5093L23.2028 86.8083L23.3631 86.9144L23.5033 87.0689L25.1484 88.8904L27.1376 90.1L29.3733 90.9749L31.7843 91.6728L34.1579 92.1737L36.7052 92.3097L36.7528 92.3181L36.7878 92.3156L39.2149 92.5777L41.6021 92.1143L41.6363 92.1001L41.6831 92.0968L44.2765 91.7244L44.8701 91.6469L45.3526 91.9886L47.4169 93.4278L47.4178 93.4395L47.4303 93.4503L49.4119 94.8837L51.6968 95.7903L51.8288 95.828L51.9398 95.9023L53.9666 97.1445L56.3084 97.5301L56.3794 97.5368L56.4395 97.5561L58.9766 98.2098L61.3293 98.5829L63.8508 98.5211L63.9569 98.5253L64.0637 98.5412L66.5868 98.8317L69.1492 98.8492L69.1959 98.8459L71.6447 98.9185L74.0612 98.3707L74.2349 98.3349L74.411 98.3341L75.2693 98.3436L75.2588 99.8481L75.2358 101.342L74.5537 101.332L72.1264 101.892L71.941 101.929L71.7523 101.918L69.104 101.848L69.1031 101.837L66.4957 101.846L66.413 101.84L66.3187 101.835L63.7822 101.522L61.2607 101.584L61.1205 101.594L60.9894 101.568L58.3871 101.154L58.3161 101.147L58.2443 101.128L55.8257 100.49L53.1992 100.066L52.902 100.016L52.644 99.8584L50.5179 98.541L48.137 97.606L47.9558 97.5366L47.8072 97.4297L45.6645 95.8786L45.6636 95.8669L44.106 94.7793L42.1631 95.0467L42.1756 95.0576L39.5805 95.5711L39.3483 95.6111L39.1238 95.5918L36.4947 95.297L33.949 95.1844L33.7119 95.1542L31.1589 94.6074L31.1113 94.599L31.0629 94.5789L28.5333 93.8659L28.4615 93.8476L28.3888 93.8175L25.9111 92.8423L25.79 92.7922L25.6798 92.7295L23.4076 91.3403L23.2231 91.2242L21.4003 89.2156L19.3334 87.9058L19.1239 87.768L18.9695 87.5792L17.2962 85.5248L17.2711 85.5031L15.6545 83.4211L15.6028 83.3543L14.0973 81.1821L14.058 81.1262L14.018 81.0585L12.7655 78.8097L11.3936 76.5341L11.2884 76.3771L11.2392 76.1809L10.4986 73.6959L9.65197 71.2067L9.6236 71.1382L8.9022 68.5931L8.88636 68.5355L8.88137 68.4654L8.3804 65.8811L8.36373 65.8118L8.35874 65.7417L8.10242 63.1283L8.11328 63.1158L7.73419 60.5933L7.3351 57.9548L7.31261 57.8037L7.32435 57.6384L7.47715 54.9959L7.47632 54.9842L7.48718 54.9717L7.68674 52.3259L7.90967 49.6784L7.91554 49.5957L7.9331 49.5122L8.42905 46.9041L8.43824 46.8682L8.44661 46.8206L9.11036 44.2593L9.11789 44.2L9.13712 44.1399L9.98202 41.6479L10.0113 41.5636L10.0414 41.4909L11.1634 39.0967L12.2629 36.7159L13.2907 34.3166L13.3299 34.2081L13.3934 34.1096L14.8077 31.8591L14.8921 31.7239L15.0015 31.6103L16.8514 29.7048L18.6313 27.8042L18.6638 27.7667L18.7089 27.74L20.6257 25.9472L20.6474 25.9221L20.6699 25.9088L22.706 24.1427L22.7511 24.116L24.884 22.5546L24.9617 22.4903L25.0519 22.4369L27.36 21.1919L27.507 21.111L27.6682 21.0643L30.1439 20.3595L30.3393 20.2987L30.5397 20.3079L33.052 20.282L35.5077 19.7902L35.5887 19.7727L35.6814 19.7543L38.2756 19.5581L38.4626 19.5448Z" fill="black"/>
<path d="M11.7541 8.60631L14.4124 8.98121L14.5694 9.04054L17.0563 9.97979L17.0571 9.99148L19.3153 10.853L21.7691 10.9957L21.9228 11.0083L22.0664 11.0451L24.51 11.7055L26.9136 11.9692L29.4552 11.859L29.4786 11.8573L32.1178 11.7989L32.1295 11.7981L34.8046 11.7488L35.1686 11.7464L35.4967 11.8993L37.5662 12.9153L37.749 13.008L37.8867 13.1274L39.9017 14.8639L40.1763 15.0911L40.3056 15.4226L41.3259 17.8759L41.3943 18.012L41.4168 18.1632L41.9103 20.6422L40.6228 20.8748L40.5025 21.0008L39.4001 22.0191L39.3241 21.9422L39.0437 21.6332L38.9553 21.2165L38.4944 18.8644L37.6734 16.9021L36.0717 15.5239L34.4897 14.7553L32.1778 14.7905L32.177 14.7788L29.5628 14.8589L29.5619 14.8472L26.9394 14.975L26.8225 14.9833L26.704 14.9682L24.0757 14.6852L23.9571 14.6701L23.8494 14.6425L21.4292 13.9805L18.9161 13.8302L18.6807 13.8235L18.4636 13.7449L15.9867 12.7815L15.9875 12.7931L13.6442 11.8907L11.7699 11.6363L10.0179 12.4422L8.7601 13.7535L8.64045 14.5492L9.2816 14.809L11.7229 14.9409L11.9583 14.9476L12.1879 15.0371L14.6281 15.9796L17.0575 16.6058L17.2136 16.6534L17.3597 16.7253L19.5177 17.8289L21.9563 18.2546L22.1584 18.2873L22.3287 18.3691L24.7446 19.4662L24.7454 19.4779L27.1505 20.5874L27.1989 20.6075L27.2482 20.6392L28.2274 21.1922L26.7688 23.8101L25.7779 23.2579L25.7662 23.2587L23.4822 22.1993L21.2466 21.16L18.8095 20.7576L18.5833 20.7149L18.3763 20.6122L16.1449 19.4668L13.7513 18.8498L13.6562 18.8331L13.5835 18.803L11.3003 17.9198L8.88322 17.7979L8.63525 17.7803L8.40567 17.6909L6.42214 16.8921L5.33354 16.4526L5.49756 15.2896L5.86403 12.8433L5.93599 12.3683L6.26423 12.0278L8.05824 10.1614L8.25535 9.95944L8.51672 9.83512L10.9167 8.7246L11.315 8.54355L11.7541 8.60631Z" fill="black"/>
<path d="M9.03151 12.3106L10.0331 13.1792L12.2831 13.5949L12.3074 13.6049L12.3307 13.6032L14.7293 14.1258L17.2258 14.0423L17.4253 14.0399L17.6165 14.085L20.137 14.6694L22.6867 15.0051L22.675 15.0059L25.1839 15.0977L25.2541 15.0927L25.3134 15.1002L27.9324 15.4192L28.0034 15.4259L28.0627 15.4334L30.5322 15.9627L33.1387 16.2708L33.1271 16.2716L35.7537 16.5313L35.9666 16.5514L36.1602 16.6316L38.6263 17.6076L38.6505 17.6176L38.6622 17.6168L40.9872 18.5911L40.6546 19.3666L40.4999 20.0003L40.1329 21.4479L40.0378 21.4312L39.9301 21.4036L39.8215 21.3643L37.4966 20.3901L37.4958 20.3784L35.2234 19.4826L32.8105 19.2547L32.7988 19.2556L32.798 19.2439L30.1689 18.9491L30.0971 18.9307L30.0378 18.9232L27.5558 18.3831L24.95 18.0867L24.9492 18.075L22.4294 17.9957L22.2875 17.9823L19.6659 17.6283L19.595 17.6216L19.5232 17.6032L17.1338 17.0447L14.6616 17.1382L14.462 17.1407L14.2833 17.1064L11.7295 16.5478L9.10964 16.0527L8.71641 15.975L8.41675 15.726L7.09125 14.5985L8 13.5L7.03686 12.3467L7.09198 12.2957L8.0691 11.4979L9.03151 12.3106Z" fill="black"/>
<path d="M52.3998 42.2906L52.6753 42.365L55.0872 43.0747L55.0981 43.0621L57.6962 43.5823L57.7914 43.599L57.8757 43.6283L60.3794 44.4723L60.4996 44.5108L60.6098 44.5734L62.8929 45.7856L65.2771 46.9319L65.2654 46.9328L67.6521 47.9496L67.8224 48.0315L70.0897 49.3506L70.1631 49.3923L70.2257 49.4466L72.2091 50.9034L74.5282 51.7958L74.6977 51.866L74.8454 51.9612L76.7854 53.3036L77.959 54.113L77.2114 55.3293L77.1688 55.391L75.8916 54.6125L75.8791 54.6016L75.0813 55.7744L73.29 54.539L70.9458 53.6248L70.7529 53.5563L70.5918 53.4385L68.4958 51.8841L66.4014 50.6819L64.038 49.6634L64.0021 49.6542L63.9654 49.6333L61.5929 48.4862L61.5445 48.4662L59.3098 47.274L56.9989 46.4985L54.5085 46.0059L54.4492 45.9984L54.3891 45.9791L52.11 45.3188L49.8456 45.5268L49.6118 45.5434L49.3847 45.4891L49.2896 45.4724L49.6198 44.0038L49.6817 43.7175L49.5861 42.5377L52.131 42.3097L52.3998 42.2906Z" fill="black"/>
<path d="M78.4373 99.931L78.5508 100.04L80.408 101.706L82.5651 102.962L82.6018 102.983L82.6268 103.005L84.8439 104.445L84.9675 104.53L86.9992 106.172L89.0076 107.485L91.3375 108.694L91.4109 108.736L93.6798 110.079L93.6924 110.089L93.7166 110.099L95.7459 111.377L98.056 111.812L98.0793 111.81L100.535 112.305L100.925 112.348L100.644 115.328L100.195 115.29L100.112 115.284L100.04 115.266L97.5132 114.752L97.514 114.764L94.8942 114.269L94.6086 114.218L94.3624 114.06L92.1478 112.655L92.1486 112.666L89.8789 111.312L89.878 111.301L87.6107 110.146L87.5373 110.104L87.4755 110.062L85.2693 108.609L85.2083 108.578L85.1457 108.524L83.1149 106.894L81.058 105.56L78.7658 104.219L78.6314 104.147L78.5178 104.037L76.6732 102.383L74.6038 101.202L74.5428 101.171L74.4811 101.129L74.4068 101.075L75.2588 99.8398L75.9295 98.864L76.0866 98.5944L78.4373 99.931Z" fill="black"/>
<path d="M43.8973 7.78612L46.3827 8.04407L48.9827 7.92968L49.2758 7.92059L49.5404 8.00751L52.0474 8.89834L52.095 8.9067L52.1318 8.92759L54.5427 9.95448L54.6395 9.99459L54.7255 10.0472L56.971 11.3913L57.2415 11.5601L57.4118 11.8064L58.9507 13.9527L59.1209 14.199L59.1893 14.4996L59.7579 17.0438L59.7746 17.1131L59.7796 17.1833L60.1052 19.78L60.111 19.8618L60.3105 22.5028L60.5663 24.2821L62.0947 25.454L62.5037 25.7538L62.6321 26.2381L62.6621 26.33L61.2234 26.7495L61.0731 26.7837L60.2788 27.8388L58.2663 26.3019L57.7704 25.9377L57.6913 25.3206L57.3264 22.8324L57.3189 22.7272L57.1194 20.0863L57.1186 20.0746L56.8321 17.6983L56.3193 15.4439L55.1451 13.8003L53.3162 12.6968L50.9653 11.6892L50.9645 11.6775L48.8206 10.937L46.431 11.0365L46.3258 11.0439L46.219 11.028L43.746 10.7809L41.3747 11.1375L41.3622 11.1267L39.218 11.5376L37.5819 12.817L36.8778 13.8187L36.0107 15.0082L34.7995 14.1662L34.7252 14.1128L35.5773 12.8773L35.5764 12.8657L34.4378 12.0537L35.2832 10.8893L35.4118 10.7157L35.5788 10.5863L37.6483 8.95886L37.9381 8.73853L38.2971 8.66601L40.8822 8.17673L40.9048 8.16338L40.9398 8.16089L43.5332 7.7885L43.7077 7.76435L43.8973 7.78612Z" fill="black"/>
<path d="M54.8009 78.3818L55.907 78.9023L56.1608 79.0018L56.1499 79.0143L56.1215 79.1103L55.2784 81.2967L54.3867 83.792L53.6103 86.2556L53.5618 86.4001L53.4783 86.547L52.15 88.8501L52.0347 89.0463L51.8693 89.199L49.9192 91.0177L49.8641 91.0686L49.7973 91.1204L47.8665 92.55L46.7647 94.0734L46.0472 95.0525L44.9436 94.5671L44.7858 94.496L45.3932 93.1253L45.4024 93.0894L44.3365 92.3076L45.5669 90.6105L45.7064 90.4244L45.8842 90.2825L47.937 88.7502L49.6666 87.1352L50.786 85.1994L51.5449 82.8193L51.5549 82.795L51.5641 82.7591L52.4692 80.2864L52.4683 80.2747L52.4792 80.2622L53.3599 77.9439L53.3792 77.8838L53.4109 77.8345L53.451 77.7377L54.8009 78.3818Z" fill="black"/>
<path d="M59.2929 22.6058L59.4574 22.7703L58.4702 23.7569L59.618 24.204L58.8526 26.1616L58.9387 28.5287L58.9404 28.552L58.9971 31.1679L59.0992 33.0991L60.6877 34.2902L60.7879 34.3771L62.5966 36.0225L64.6644 37.1795L67.0745 38.1947L67.1588 38.2239L67.2331 38.2774L69.5337 39.5706L69.522 39.5714L71.6983 40.7677L74.116 41.5592L74.3205 41.6269L74.505 41.743L76.7029 43.2432L78.8458 44.4654L78.8575 44.4646L81.2032 45.7311L81.4111 45.8455L81.5763 46.0217L83.4059 47.9594L83.4309 47.9811L83.4568 48.0145L85.1594 49.9846L85.3514 50.2059L85.4414 50.4815L86.2722 52.9131L86.3331 53.1085L86.3464 53.2955L86.4785 55.3186L88.0235 56.7242L88.2489 56.9197L88.3749 57.2044L89.457 59.5359L90.8081 61.6837L90.8999 61.8182L90.9458 61.9677L91.795 64.3274L93.121 66.4536L93.2804 66.7125L93.3254 67.0147L93.727 69.5238L94.5854 71.8477L94.6004 71.8936L94.6029 71.9287L95.3702 74.4587L95.3836 74.4813L96.1158 77.0139L96.1475 77.1291L96.1558 77.246L96.4732 79.7258L97.2873 82.0881L97.304 82.1574L97.3198 82.215L97.9119 84.5931L99.1118 86.7634L99.1919 86.8987L99.2386 87.0599L99.9383 89.4655L100.983 91.5999L102.489 93.6192L104.081 95.6795L105.64 97.6129L107.474 99.1155L109.673 100.463L109.759 100.516L109.834 100.581L111.752 102.113L113.921 103.204L114.03 103.255L114.142 103.341L114.216 103.394L113.327 104.609L112.995 105.055L112.584 105.883L110.295 104.754L110.149 104.682L110.024 104.585L108.105 103.03L105.845 101.651L105.671 101.523L103.625 99.8473L103.513 99.7496L103.41 99.6277L101.748 97.5607L101.722 97.539L100.118 95.4562L100.093 95.4344L98.5085 93.3149L98.4301 93.203L98.3617 93.0669L97.2061 90.6936L97.151 90.5801L97.1068 90.454L96.412 88.1185L95.1837 85.8796L95.0886 85.6984L95.0394 85.5022L94.4432 83.0657L93.5949 80.5531L93.5373 80.4045L93.5148 80.2534L93.1967 77.7619L92.4936 75.3094L92.4928 75.2978L91.7689 72.8821L90.8529 70.4096L90.8079 70.2718L90.7854 70.1207L90.4054 67.751L89.1595 65.7602L89.0794 65.6249L89.0218 65.4762L88.1876 63.1624L86.8624 61.0479L86.8099 60.9694L86.7682 60.8784L85.782 58.7399L84.0233 57.1379L83.5709 56.7236L83.3531 53.6611L82.6983 51.7222L81.226 50.0176L79.5618 48.2562L77.4356 47.1033L77.4239 47.1042L77.3997 47.0941L75.1099 45.7884L75.0114 45.7249L72.9746 44.3425L70.6529 43.5794L70.521 43.5418L70.3866 43.4691L68.0759 42.2002L68.0634 42.1893L65.8596 40.9362L63.4746 39.9427L63.3902 39.9135L63.3168 39.8717L61.0044 38.5793L60.8575 38.4958L60.7315 38.3755L58.8726 36.6867L56.7483 35.0638L56.1898 34.6453L56.1525 33.9548L55.998 31.2871L55.9939 31.2287L55.9371 28.6129L55.842 25.9527L55.832 25.648L55.9524 25.3575L56.8264 23.1101L57.6729 20.9705L59.2929 22.6058Z" fill="black"/>
<path d="M73.3922 44.5073L73.5006 44.7111L74.5187 46.4714L76.3133 47.9181L78.4745 49.2329L78.5363 49.2755L78.6098 49.3173L80.7099 50.9302L80.7967 50.9945L80.8727 51.0714L82.5462 52.7969L84.4253 53.7793L84.8769 53.853L84.6652 55.3366L84.4652 56.8193L83.7656 56.7281L83.5043 56.6879L83.2722 56.5635L80.9531 55.342L80.7344 55.2401L80.5692 55.0639L78.8314 53.2607L76.8573 51.7681L74.6585 50.4207L74.5609 50.3689L74.4857 50.3037L72.429 48.6407L72.217 48.4678L72.0701 48.2198L70.9052 46.2114L71.9432 45.6089L72.1395 45.3953L73.1418 44.2901L73.3922 44.5073Z" fill="black"/>
<path d="M49.4601 11.7751L48.2156 13.2734L49.2344 15.2099L49.8185 16.3197L48.8281 17.095L46.8688 18.6207L45.6663 19.5521L44.7465 18.3486L43.2552 16.3752L42.5416 15.4274L43.2992 14.5159L44.9112 12.5685L45.9596 13.4338L45.8599 12.0311L49.4601 11.7751Z" fill="black"/>
<path d="M92.3524 98.9016L92.4066 99.0035L92.45 99.1179L93.351 101.38L94.3681 103.622L95.9137 105.533L95.9263 105.544L95.9396 105.566L97.5562 107.648L97.6346 107.76L98.9966 109.896L100.487 111.693L101.584 112.414L102.212 112.815L102.277 113.739L100.653 113.854L99.9534 114.926L98.6604 114.09L98.4751 113.962L98.3215 113.785L96.649 111.742L96.5856 111.676L96.5455 111.609L95.1068 109.385L95.0951 109.386L93.5678 107.403L93.567 107.392L91.9187 105.359L91.791 105.215L91.7192 105.032L90.6187 102.608L90.6054 102.586L90.5912 102.551L89.6744 100.232L90.4392 99.9188L91.0146 99.5841L92.2998 98.8231L92.3524 98.9016Z" fill="black"/>
<path d="M73.4199 73.9819L73.6996 74.1148L74.7366 73.8296L75.4589 76.3863L75.4605 76.4097L76.1352 78.9581L76.136 78.9698L76.7556 81.4047L77.7769 83.5407L79.2072 85.6477L79.2465 85.7037L79.274 85.7604L80.4431 87.8273L82.1734 89.3607L82.3487 89.5127L82.4563 89.7048L82.5089 89.7833L81.2379 90.5786L80.9448 90.7522L80.1839 91.6169L78.2774 89.9197L78.0896 89.7569L77.9678 89.5306L76.7311 87.3393L75.2473 85.1421L75.1823 85.0528L75.128 84.9509L73.9824 82.5535L73.9265 82.4282L73.8923 82.2779L73.2286 79.717L72.5673 77.1911L71.8459 74.646L71.6883 74.0816L71.9564 73.5573L72.0801 73.3136L73.4199 73.9819Z" fill="black"/>
<path d="M58.4744 69.1484L58.4258 69.7862L59.1297 72.0858L59.9555 74.4473L60.8582 76.7328L62.1818 78.6594L63.9713 80.5293L64.0731 80.6396L65.5728 82.5654L67.4593 83.982L67.6079 84.0889L67.7114 84.2226L67.7756 84.3002L66.6223 85.2634L66.2882 85.5221L65.6559 86.3777L63.6209 84.8541L63.4598 84.7364L63.3429 84.5802L61.7664 82.5658L59.9769 80.6959L59.8884 80.6082L59.8225 80.5071L58.3045 78.3241L58.2127 78.1897L58.1543 78.0294L57.1682 75.5618L57.154 75.5276L57.1407 75.5051L56.2706 73.0175L56.2564 72.9833L56.2539 72.9482L55.4975 70.4056L55.4207 70.1526L55.4258 69.8938L55.4787 68.9854L58.4744 69.1484Z" fill="black"/>
<path d="M66.4978 72.1484L66.4492 72.7862L67.1531 75.0858L67.979 77.4473L68.8816 79.7328L70.2052 81.6594L71.9947 83.5293L72.0965 83.6396L73.5963 85.5654L75.4827 86.982L75.6313 87.0889L75.7348 87.2226L75.7991 87.3002L74.6457 88.2634L74.3117 88.5221L73.6794 89.3777L71.6443 87.8541L71.4832 87.7364L71.3664 87.5802L69.7898 85.5658L68.0003 83.6959L67.9119 83.6082L67.8459 83.5071L66.3279 81.3241L66.2361 81.1897L66.1777 81.0294L65.1916 78.5618L65.1774 78.5276L65.1641 78.5051L64.2941 76.0175L64.2799 75.9833L64.2774 75.9482L63.5209 73.4056L63.4442 73.1526L63.4493 72.8938L63.5022 71.9854L66.4978 72.1484Z" fill="black"/>
<path d="M44.2489 107.051L46.7803 107.293L49.2126 106.968L49.2827 106.963L51.912 106.764L51.947 106.762L54.5796 106.61L54.7199 106.6L54.8501 106.614L57.3039 106.921L59.8788 106.785L59.9723 106.778L60.0792 106.794L62.5388 107.019L65.0804 106.744L65.3017 106.717L65.5279 106.759L68.0902 107.27L70.65 107.582L70.6383 107.582L73.1714 107.684L73.3133 107.698L75.924 108.064L75.995 108.071L76.0668 108.089L78.5981 108.661L81.0535 108.992L83.6901 109.227L83.8555 109.239L84.0116 109.287L86.451 110.053L88.8538 110.47L88.8663 110.48L88.878 110.48L88.9732 110.496L88.7022 111.972L88.4187 113.438L88.3469 113.419L88.3477 113.431L85.8372 112.987L85.742 112.97L85.646 112.942L83.2425 112.184L80.7846 111.983L80.7603 111.973L80.7253 111.976L78.1046 111.633L78.0336 111.627L77.9618 111.608L75.4288 111.013L72.9734 110.682L70.4044 110.571L70.2858 110.556L67.6668 110.237L67.6075 110.23L67.5599 110.222L65.188 109.744L62.7399 110.012L62.588 110.023L62.446 110.009L59.857 109.782L57.3872 109.911L57.2587 109.92L57.1284 109.906L54.6045 109.604L52.1131 109.757L49.5765 109.938L46.9689 110.276L46.8061 110.299L46.6408 110.287L44.263 110.057L41.9367 110.716L41.7521 110.764L41.5643 110.766L39.0311 110.829L36.5746 111.309L36.4351 111.33L36.3057 111.328L33.9337 111.344L32.2578 112.062L30.5125 112.797L30.1917 110.928L30.15 110.673L31.5653 110.42L31.0856 109.291L33.0362 108.471L33.3101 108.357L33.604 108.36L36.0821 108.348L38.597 107.864L38.724 107.831L38.8417 107.834L41.3164 107.776L43.7004 107.101L43.9767 107.023L44.2489 107.051Z" fill="black"/>
<path d="M70.9079 100.251L70.9455 100.284L72.2648 99.8377L73.119 102.268L73.3259 102.864L73.0376 103.436L71.8981 105.75L71.7744 105.993L71.5873 106.171L69.6948 107.974L69.496 108.153L69.2564 108.252L66.8189 109.33L66.6369 109.413L66.439 109.439L63.823 109.825L63.6006 108.349L62.1268 108.606L62.126 108.594L61.8543 107.087L63.3773 106.861L65.7837 106.502L67.8111 105.606L69.3186 104.171L70.0689 102.661L69.4333 100.826L69.1555 100.059L69.6617 99.4119L69.726 99.325L70.9079 100.251Z" fill="black"/>
<path d="M58.0332 100.144L58.1083 100.209L59.4643 100.112L59.6346 102.673L59.6737 103.222L59.3412 103.669L57.7751 105.766L57.6899 105.889L57.5796 105.991L55.6128 107.741L55.4466 107.882L55.2537 107.978L52.843 109.101L52.6609 109.184L52.4639 109.222L49.8521 109.666L49.8646 109.677L48.7983 109.882L48.2365 106.938L49.3028 106.733L49.3262 106.731L51.7501 106.288L53.7634 105.358L55.4529 103.84L56.6023 102.325L56.4718 100.325L56.4253 99.6705L56.8613 99.1931L56.9381 99.1171L58.0332 100.144Z" fill="black"/>
</svg>
