<svg width="120" height="120" viewBox="0 0 120 120" fill="none" xmlns="http://www.w3.org/2000/svg">
<path d="M57.8574 101.015L60.4941 101.214L60.4824 101.226H62.9199L65.5566 101.038L65.627 101.026L65.709 101.038L68.3457 101.108H68.416L68.4746 101.12L71.123 101.425H75.1543L75.0723 103.007L74.9316 105.644L74.8965 106.312L74.3691 106.733L72.7168 108.046L72.2246 108.444L71.6035 108.362L69.084 108.058L66.5527 108.14L63.9512 108.21L61.3145 108.386L61.1387 108.397L60.9629 108.362L58.584 107.929L56.2051 108.362L56.0059 108.397L55.8066 108.374L53.3105 108.14L50.7441 108.28H50.6035L50.4512 108.269L47.8145 107.882L47.1699 107.8L46.7949 107.261L45.6934 105.69L45.3887 105.257L45.4238 104.729L45.5527 102.608L45.6465 101.202H47.2168L49.7598 101.097L49.8652 101.085L49.9824 101.097L52.4668 101.366L54.9512 101.12H55.0449L57.6816 101.015L57.7754 101.003L57.8574 101.015ZM55.2324 104.097L55.2441 104.108L52.6074 104.366L52.4551 104.378L52.3027 104.366L49.8066 104.097L48.459 104.155L48.4355 104.39L48.8691 104.999L50.7324 105.269L53.2285 105.14L53.334 105.128L53.4512 105.14L55.8652 105.374L58.3262 104.94L58.584 104.894L58.8418 104.94L61.291 105.374L63.7754 105.222H63.8105L66.459 105.14L69.0957 105.058L69.2129 105.046L69.3301 105.069L71.334 105.304L71.9785 104.8L72.002 104.425H70.8535L70.7598 104.413L68.2051 104.097L65.7207 104.026L63.1309 104.214L63.0723 104.226H63.0137L60.377 104.214H60.2598L57.6816 104.003L55.2324 104.097Z" fill="black"/>
<path d="M57.8008 24.3945L60.2852 24.6641L62.7695 24.418L63.0508 24.3945L63.3203 24.4648L65.6172 25.0977L66.7539 25.4141L66.7188 26.5859L66.6602 29.2344L66.6484 29.2227L66.7656 31.7188L67.0938 34.2734L67.1055 34.3438V34.4258L67.1758 37.0625V37.1328L67.1641 37.2031L67 39.6055L67.5273 42.043L67.5625 42.207V44.9258L67.8672 47.457L67.8789 47.5977L67.8672 47.7383L67.6797 50.2695L67.9023 52.8008L68.125 55.3789L68.4297 58.0156L68.4414 58.1914L68.418 58.3672L68.1133 60.7578L68.6641 63.125L68.7109 63.3125L68.6992 63.5234L68.5938 66.043L68.8633 68.5742L68.875 68.7266L68.8633 68.8672L68.6523 71.2578L69.2148 73.6484L69.2617 73.8242V76.6016L69.332 79.1797L69.5195 81.8164V82.0273L69.332 84.5117L69.6953 86.9844V87.043L69.707 87.1016L69.8594 89.7383L69.8711 89.832L69.8594 89.9258L69.707 92.3633L70.1992 94.8008L70.2344 94.9414V95.0938L70.2461 97.7422V97.7539L70.2344 100.391L70.4805 102.934L70.6328 104.562L68.9922 104.574L66.3555 104.598H66.25L66.1445 104.586L63.7305 104.246L61.3281 104.691L61.0703 104.738L60.8242 104.691L58.3281 104.281L55.8555 104.34L53.3711 104.738L52.4922 104.867L51.9531 104.152L50.6172 102.395L50.2188 101.867L50.3359 101.223L50.8047 98.7266L50.7578 96.2539V96.1836L50.8516 93.5352V93.4883L51.0273 90.8516L51.1797 88.2266V88.2148L51.3672 85.6719L51.1328 83.1758L51.1211 83.0352L51.1328 82.9062L51.3555 80.3281L51.25 77.8203L51.2383 77.668L51.2617 77.5273L51.6602 75.043L51.6719 72.4766V72.4531L51.6836 72.4297L51.7773 69.8633L51.7539 67.2148L51.7422 67.168L51.7539 67.1211L52.0586 61.8477L52.1992 59.293V56.6445L52.2227 54.0078V53.9492L52.3398 51.3125V51.2891L52.4922 48.6523L52.5156 48.5117L52.9023 45.9453L52.9375 43.5664L52.7734 40.918V40.7656L52.8672 38.1289V38.082L52.8789 38.0234L53.1602 35.457L53.3477 32.8203L53.4883 30.1953L53.6406 27.5586L53.6172 26.0352L54.8711 26L55.0352 24.6758L55.0234 24.5234H55.0469L55.0586 24.5H55.1758L55.3398 24.5117L57.5664 24.3945L57.6836 24.3828L57.8008 24.3945ZM56.6289 27.4414L56.6406 27.6289V27.7344L56.3359 33.0078V33.0195L56.1484 35.6562V35.7148L55.8672 38.2461L55.7734 40.8828L55.9375 43.3789V43.4961L55.9023 46.1328V46.2383L55.8789 46.3438L55.4805 48.9688L55.3398 51.4648L55.2227 54.0781L55.1992 56.668V59.3398L55.1875 59.375L55.0586 62.0117V62.0234L54.8945 64.6602L54.7539 67.1914L54.7773 69.8281V69.8984L54.6719 72.5469L54.6484 75.1484V75.2539L54.6367 75.3594L54.2383 77.8555L54.3555 80.3398V80.4336L54.3438 80.5273L54.1328 83.0117L54.3672 85.543L54.3789 85.6719L54.3672 85.7891L54.1797 88.4258L54.0156 91.0391V91.0508L53.8398 93.6289L53.7578 96.2773L53.8047 98.8438V98.9961L53.7812 99.1484L53.4062 101.117L53.793 101.633L55.5625 101.363L55.6562 101.352H55.75L58.3867 101.281H58.5273L58.668 101.305L61.0352 101.691L63.4375 101.258L63.6719 101.223L63.9062 101.258L66.4375 101.586H67.3281L67.2344 100.531V100.379L67.2461 97.7422L67.2344 95.2227L66.7305 92.7852L66.6953 92.5859L66.707 92.3867L66.8594 89.832L66.7188 87.4062L66.3438 84.7812L66.3203 84.6289L66.332 84.4648L66.5078 81.9102L66.3438 79.3906V79.332L66.2617 76.6953V74.1992L65.6758 71.7383L65.6172 71.5039L65.6406 71.2578L65.8633 68.6914L65.6055 66.2656L65.5938 66.1484V66.043L65.6992 63.5938L65.1484 61.1797L65.0898 60.9219L65.1133 60.6641L65.418 58.168L65.1484 55.7305L65.1367 55.707V55.6836L64.9141 53.0469L64.6914 50.4219L64.6797 50.3047L64.6914 50.1875L64.8555 47.7031L64.5742 45.1836L64.5625 45.1016V42.5234L64.0352 40.0742L63.9883 39.8633L64 39.6523L64.1758 37.0039L64.1055 34.5664L63.7891 32.0234V31.9062L63.6602 29.2695L63.6484 29.2109L63.6602 29.1523L63.6836 27.6758L62.7812 27.4297L60.4258 27.6641L60.2734 27.6758L60.1211 27.6641L57.625 27.3945L56.6289 27.4414Z" fill="black"/>
<path d="M59.6562 24.5117L61.1914 24.3945L62.4102 24.3008L62.75 25.4727L63.3477 27.5352L63.3828 27.6406L63.3945 27.7461L63.7578 30.3711V30.4648L63.9688 33.0898L63.9805 33.1836L63.9688 33.2773L63.875 35.9141L63.957 38.4219L64.25 40.9648L64.2617 41.0352V41.1172L64.2852 43.7539V43.8828L64.0859 46.3203L64.5781 48.7344L64.6133 48.8984V49.0625L64.5781 51.6406L64.8477 54.1602L64.8594 54.3008L64.8477 54.4414L64.6367 56.9609L64.8242 59.4922L65.0117 62.1289H65L65.2695 64.7188L65.293 64.8945L65.2578 65.0703L64.9297 67.4375L65.4453 69.8281L65.4922 70.0273L65.4805 70.2266L65.3281 72.7344L65.5742 75.2891L65.5859 75.4297L65.5742 75.582L65.3164 77.9727L65.8555 80.3633L65.9023 80.5391L65.8906 80.7148L65.8555 83.3633L65.9023 85.8945L66.0547 88.5312V88.6367L66.043 88.7422L65.832 91.1914L66.1602 93.6992L66.1719 93.7578V93.8281L66.2891 96.4648L66.3008 96.5469L66.2891 96.6406L66.1016 99.0547L66.5703 101.527L66.7461 102.418L66.0195 102.98L64.4727 104.199L64.0273 104.551L63.4648 104.516L60.9336 104.363L58.3906 104.574L58.1914 104.586L57.9922 104.551L55.6367 104.105L54.1953 103.824L54.4414 102.371L54.8516 99.957L54.5 97.5664L54.4531 97.3086L54.5117 97.0508L55.0156 94.5898L55.0273 92.1523L54.7227 89.6094L54.7109 89.4922L54.7227 89.375L54.8164 86.7383L54.8398 86.5273L55.2969 84.043L55.2383 81.5586V81.4766L55.3203 78.8398V78.793L55.4844 76.1562L55.625 73.5312V73.5078L55.8008 70.9766L55.5547 68.4688L55.543 68.3398L55.5547 68.1992L55.7656 65.6328L55.6484 63.1133L55.6367 62.9727L55.6602 62.8203L56.0352 60.3359L56.0586 57.7695V57.7344L56.1406 55.1562L56.1055 52.5195V52.4141L56.2461 49.7773L56.3984 47.1406L56.5156 44.5859V39.2422L56.6328 36.6055V36.582L56.7734 33.9453V33.875L56.7852 33.8047L57.1602 31.3203L57.1953 28.8594L57.0078 26.2109L56.9609 25.3789L57.6289 24.8984L57.793 24.7812L59.3164 23.6914L59.6562 24.5117ZM59.5156 44.6562L59.3867 47.293V47.3047L59.1055 52.5781L59.1406 55.1211V55.1914L59.0586 57.8281L59.0352 60.4297V60.5352L59.0234 60.6406L58.6484 63.1133L58.7656 65.6211V65.8203L58.5547 68.3047L58.8008 70.8359L58.8125 70.9531L58.8008 71.082L58.625 73.7188L58.4727 76.332V76.3438L58.3086 78.9219L58.2383 81.5703L58.2969 84.1367V84.2891L58.2734 84.4414L57.8047 86.9609L57.7109 89.3164L58.0156 91.9062L58.0273 92V92.0938L58.0039 94.7422V94.8828L57.9805 95.0234L57.5 97.3906L57.8516 99.7812L57.8867 100.027L57.8398 100.25L57.6289 101.422L58.3438 101.562L60.793 101.375L60.8984 101.363H60.9922L63.0664 101.48L63.4531 101.176L63.125 99.4648L63.0898 99.2656L63.1016 99.0664L63.2891 96.4883L63.1719 93.9688H63.1602L62.8438 91.4609L62.8203 91.2969L62.832 91.1328L63.043 88.5547L62.9141 86.0586L62.9023 86.0352V86L62.8555 83.3633V83.3164L62.8789 80.8086L62.3398 78.4062L62.2812 78.1719L62.3164 77.9258L62.5625 75.4062L62.3398 72.9336L62.3281 72.8164L62.3398 72.7109L62.4688 70.2266L61.9414 67.8359L61.8945 67.5781L61.9297 67.3203L62.2578 64.8594L62.0234 62.3867L62.0117 62.3633V62.3398L61.8242 59.7031L61.6367 57.0781L61.625 56.9609L61.6367 56.8438L61.8477 54.3125L61.5898 51.8398L61.5781 51.7578V51.6641L61.6016 49.1562L61.1094 46.7188L61.0625 46.5078L61.0859 46.2969L61.2852 43.7891L61.2617 41.1406H61.25L60.9805 38.668L60.9688 38.6094V38.5508L60.875 35.9141V35.7969L60.9688 33.2773L60.7695 30.6992V30.6875L60.4297 28.25L60.1953 27.4648L60.1016 27.4766L60.1836 28.6602L60.1953 28.7188V28.7773L60.1602 31.4141V31.5195L60.1484 31.625L59.75 34.25L59.6211 36.7461L59.5156 39.3711V44.6562Z" fill="black"/>
<path d="M36.0312 116.535L37.5781 116.605L37.6836 116.617L37.8008 116.605L40.2852 116.336L42.7695 116.582H42.8633L45.5 116.688L45.5938 116.699L45.6758 116.688L48.3125 116.488L48.3008 116.477H50.7383L53.375 116.664L53.4453 116.676L53.5273 116.664L56.1641 116.594H56.2344L56.293 116.582L58.7305 116.301L61.1562 116.699L61.3203 116.723L61.4844 116.711L64.0156 116.57L66.582 116.746L66.7227 116.758L66.8633 116.734L69.3711 116.43L71.9141 116.512L74.5039 116.582V116.594L77.1523 116.758L77.3281 116.77L77.5039 116.734L79.8828 116.312L82.2617 116.734L82.5078 116.781L82.7656 116.734L85.1445 116.348L87.6523 115.949L86.082 113.945L84.4531 111.871L84.3594 111.754L84.2539 111.66L82.4141 110.09L81.1719 107.98L81.0664 107.805L80.9141 107.652L78.9453 105.789L78.5 105.355L77.8789 105.379L75.2656 105.426L72.6523 105.391L72.5469 105.379L72.4414 105.402L69.9805 105.719L67.4844 105.484L67.4258 105.473H67.3672L64.7188 105.449H64.6367L64.543 105.461L62.1172 105.742L59.6562 105.367L59.5039 105.344L59.3516 105.355L56.7148 105.484H56.7031L54.1719 105.637L51.6289 105.426H51.5234L48.875 105.402H48.7695L48.6641 105.414L46.25 105.754L43.8594 105.309L43.332 105.215L42.875 105.461L40.7539 106.621L40.543 106.738L40.3672 106.914L38.6562 108.777L36.6758 110.453L36.582 110.523L36.5117 110.617L34.7773 112.609L34.6719 112.738L34.5898 112.879L34.2617 113.5H31.0039L34.0156 116.125L34.1211 116.219L35.5391 117.461L36.0312 116.535ZM74.6914 113.605H74.668L74.6445 113.594L69.3711 113.43H69.2539L69.1367 113.441L66.5938 113.746L64.1328 113.582L64.0508 113.57L63.957 113.582L61.5078 113.723L59 113.301L58.7891 113.266L58.5781 113.289L56.0234 113.605L53.5391 113.676L50.9492 113.488L50.8906 113.477H50.832L48.1953 113.488H48.0781L45.5 113.699L43.0508 113.605L43.0625 113.594L40.4258 113.336L40.2734 113.324L40.1211 113.336L37.9062 113.582L38.6797 112.691L40.6484 111.027L40.7891 110.887L42.418 109.141L43.8242 108.355L45.9688 108.742L46.1914 108.777L46.4375 108.742L48.9688 108.414L51.5 108.426L54.0312 108.625L54.1367 108.637H54.2305L56.8789 108.484H56.8672L59.3984 108.367L61.8477 108.73L62.0469 108.766L62.2344 108.742L64.7656 108.461L67.3438 108.473L69.8516 108.707L70.0156 108.719L70.1797 108.707L72.7109 108.402L75.2422 108.426H75.3008L77.3047 108.391L78.6992 109.703L79.9531 111.824L80.082 112.035L80.2695 112.188L81.9453 113.641L80.1406 113.324L79.8828 113.277L79.6133 113.324L77.1172 113.758L74.6914 113.605Z" fill="black"/>
<path d="M111.312 114.289L112.355 114.547L111.652 117.453L110.891 117.266L108.547 117.629L108.453 117.652H108.359L105.723 117.723H105.582L103.051 117.301L100.672 117.734L100.438 117.781L100.203 117.746L97.6367 117.406H95.2344L92.5977 117.629L92.4922 117.641L92.3984 117.629L89.75 117.477V117.465L87.2773 117.348L84.7812 117.734L84.582 117.77L84.3945 117.746L81.8516 117.453L79.2969 117.477L79.2852 117.465L76.7773 117.711L76.6133 117.723L76.4492 117.699L73.918 117.383L71.3867 117.43H71.3281L68.6914 117.371H68.6445L66.1719 117.23L63.7109 117.699L63.4766 117.746L63.2305 117.711L60.7227 117.348L58.2383 117.488H58.0156L55.5898 117.242L53.1406 117.676L52.8828 117.723L52.6133 117.676L50.1172 117.242L47.6914 117.395H47.668L47.6445 117.406L42.3711 117.57H42.2539L42.1367 117.559L39.5938 117.254L37.1328 117.418L37.0508 117.43L36.957 117.418L34.5078 117.277L32 117.699L31.7891 117.734L31.5781 117.711L29.0234 117.395L26.5391 117.324L23.9492 117.512L23.8906 117.523H23.832L21.1953 117.512H21.0781L18.5 117.301L16.0508 117.395L16.0625 117.406L13.4258 117.664L13.2734 117.676L13.1211 117.664L10.625 117.395L8.16406 117.5H8V114.5H8.03516L10.5781 114.395L10.6836 114.383L10.8008 114.395L13.2852 114.664L15.7695 114.418H15.8633L18.5 114.312L18.5938 114.301L18.6758 114.312L21.3125 114.512L21.3008 114.523H23.7383L26.375 114.336L26.4453 114.324L26.5273 114.336L29.1641 114.406H29.2344L29.293 114.418L31.7305 114.699L34.1562 114.301L34.3203 114.277L34.4844 114.289L37.0156 114.43L39.582 114.254L39.7227 114.242L39.8633 114.266L42.3711 114.57L44.9141 114.488L47.5039 114.418V114.406L50.1523 114.242L50.3281 114.23L50.5039 114.266L52.8828 114.688L55.2617 114.266L55.4609 114.23L55.6602 114.242L58.1328 114.488L60.7227 114.348L60.8633 114.336L61.0156 114.359L63.418 114.711L65.8086 114.266L65.9844 114.23L66.1602 114.242L68.7969 114.371L68.7852 114.383L71.3633 114.43L73.9766 114.383H74.082L74.1875 114.395L76.6836 114.711L79.1445 114.477H79.2734L81.9102 114.453H82.0039L82.0859 114.465L84.5469 114.746L86.9727 114.371L87.125 114.348L87.2773 114.359L89.9141 114.488H89.9258L92.4453 114.641L95 114.43L95.0586 114.418H95.1055L97.7539 114.406H97.8594L97.9648 114.418L100.367 114.746L102.77 114.312L103.027 114.266L103.285 114.301L105.816 114.723L108.137 114.664L110.738 114.266L111.031 114.219L111.312 114.289Z" fill="black"/>
<path d="M63.6758 18.3125L66.3125 18.5117L67.625 18.6172L67.6953 19.9297L67.8008 21.6172L67.8125 21.8867L67.7305 22.1562L66.9219 24.6758L66.7109 25.3555L66.043 25.625L63.8164 26.4922L63.4648 26.6328L63.0898 26.5859L60.6406 26.293L58.2266 26.6914L58.0625 26.7266L57.9102 26.7148L55.2617 26.5742L54.5234 26.5391L54.1016 25.918L52.6719 23.7969L52.5312 23.5859L52.4609 23.3516L51.8398 20.9727L51.7109 20.7734L50.3516 18.5H53.0352L55.5781 18.3945L55.6836 18.3828L55.8008 18.3945L58.2852 18.6641L60.7695 18.418H60.8633L63.5 18.3125L63.5938 18.3008L63.6758 18.3125ZM61.0508 21.3945L61.0625 21.4062L58.4258 21.6641L58.2734 21.6758L58.1211 21.6641L55.625 21.3945L55.0508 21.418L55.2969 22.332L56.1523 23.6094L57.9219 23.7031L60.3828 23.3047L60.5938 23.2695L60.8047 23.293L63.0547 23.5625L64.2734 23.082L64.7773 21.5V21.4062L63.5 21.3008L61.0508 21.3945Z" fill="black"/>
<path d="M63.7678 2.10289L63.8357 2.23468L63.9151 2.36468L63.95 2.51343L63.9876 2.60249L64.1136 3.03358L63.9911 3.46761L63.2676 5.91584L63.2498 5.95417L63.2338 6.00408L62.4459 8.18955L62.4584 8.27062L62.5048 8.26344L64.3143 7.39016L65.7943 6.68652L66.3643 8.22282L67.2918 10.688L67.3311 10.7887L67.3588 10.8911L67.9282 13.4948L67.9962 13.7807L67.9369 14.0863L67.4541 16.7107L67.3787 17.0663L67.1634 17.3606L65.5619 19.423L65.335 19.7191L64.9921 19.8789L62.7088 20.9086L62.4862 21.0024L62.2412 21.0285L59.614 21.2932L59.3922 21.3157L59.1596 21.2688L56.6243 20.7485L56.0495 20.6359L55.714 20.1543L54.1454 17.99L54.0544 17.8618L53.9945 17.7051L52.9602 15.3157L52.8325 15.0272L52.842 14.7055L52.8588 12.0585L52.8594 11.833L52.9332 11.62L53.7466 9.063L53.8603 8.7252L54.1041 8.46211L55.8859 6.64445L57.3395 4.54559L57.512 4.28168L57.772 4.12281L60.0291 2.69399L61.5773 1.58845L62.9564 0.615846L63.7678 2.10289ZM59.6215 6.49259L58.3005 8.45232L58.2222 8.55932L58.1306 8.65653L56.4912 10.3217L55.85 12.3065L55.8317 14.4083L56.6517 16.3328L57.7991 17.922L59.5636 18.289L61.7106 18.0631L63.4169 17.2888L64.5513 15.8086L64.9323 13.8285L64.4319 11.5936L64.1308 10.7983L63.8013 10.9679L63.7879 10.9581L61.8386 11.9242L59.8875 12.8787L59.683 10.7166L59.4388 8.14552L59.41 7.80609L59.5157 7.49325L59.9358 6.30159L59.6215 6.49259Z" fill="black"/>
</svg>
