<svg xmlns="http://www.w3.org/2000/svg" width="120" height="120" fill="none" viewBox="0 0 120 120"><path fill="#000" d="m74.988 28.152-.094.985.165 2.484v.012l.011.012.118 2.648.011.094-.011.082-.185 2.499.38.325 1.933 1.57 2.192 1.078 2.344.844.046.012.047.023 2.368 1.02 2.449.95 2.472.948h-.011l2.449.774.094.023.105.059 2.25 1.09 2.414.597h-.012l2.555.48.153.036.14.059 2.449 1.019.211.094.176.14 1.406 1.16 1.664 1.372-1.851 1.078-2.274 1.336-.07.047-2.379 1.207-.27.14-.304.024-2.543.187-2.39.656-.071.024-.07.012-2.59.445h-.012l-.023.012-1.44.22.791.262-.258.797-.105 2.426v.082l-.012.082-.422 2.613v.047l-.011.047-.586 2.554h.011l-.504 2.532-.105 1.268 1.379 1.011 2.016 1.371 2.332.844.046.023.047.012 2.262 1.008 2.473.562.21.047.177.106 2.156 1.183 2.402.586.035.012h.024l2.543.727h-.012l2.531.69 3.223.88-2.813 1.828-2.179 1.406-.188.13-.223.058-2.554.726-.153.035-.152.012-2.461.152-2.332.833-.258.082h-.257L96.5 83.04l.184 2.486.011.094v.094l-.129 2.637v.023l-.175 2.648-.012 2.485.281 2.531.012.14-.012.153-.222 2.637-.024 2.442 2.42-.01.1-.001.098.014 2.641.341.246.032.224.109 1.782.878.969.477-.145 1.069-.347 2.567-.101 2.419.418 2.485.02.118.001.12.015 2.221.909-.008h.152l.153.024 2.437.48 2.403-.246.082-.012h.082l1.043.012-.012 1.5-.024 1.5-.996-.012-2.507.258-.223.024-.223-.036-2.461-.492-2.425.012-2.497.434-.152.023-.164-.012-2.637-.105h-.07l-.07-.012-1.554-.221-2.04.279-.198.026-.2-.026-.261-.036-.54.107-.235.047-.234-.024-2.555-.328-1.956.009-1.69.289-.114.02-.116.001-2.64.04-.108.002-.108-.015-1.557-.203-2.082.01.012.011-2.151.143-.013.017-.163-.005-.31.021-.187.012-.286-.054-2.44-.032v-.012l-2.626-.012h-.023l-2.614-.058-1.222.027-.013.001-.005-.001-1.361.031h-.13l-.116-.011-2.202-.311-.357-.01-2.203.243h-.07l-2.637.152-.152.012-.02-.004-.07.011-.164-.023-1.335-.157-2.247.154-.096.006-.097-.006-2.569-.155-2.57.086-.134.004-.133-.02-.003-.001-1.035.124-.234.024-.223-.047-2.113-.395-1.346.085-1.29.113-.001.001h-.007l-1.32.117-.125.01-.125-.009-.546-.044-.56.02h-.118l-.123-.006-.014.002v-.002l-2.5-.099v-.012l-.646-.003-.608.019-.001-.001-2.63.098-.098.004-.098-.01-2.47-.233-2.472.327-.137.019-.137-.007-2.559-.132-2.546.168-.093.006-.093-.006-2.565-.151-2.572.094-1.592.059.008-.352-2.292.16h-.012l-.012.011-2.648.118-.094.011-.082-.011-2.543-.188.012-.223V114.5h.21l2.462.199 2.508-.117v-.012l2.561-.171.019-.789-.234-2.553v-.003l-.236-2.64-.012-.124.01-.123.2-2.64v-.01l.001-.01.236-2.64 1.275.114V101.5h1.858l-.011.129.819.062 2.542-.123v.001l1.224-.083-.108-.619-.047-.258.035-.257.434-2.496.012-2.426-.492-2.461-.035-.223.023-.223.258-2.437-.211-2.567-.012-.163.023-.153.329-2.414-.305-1.5-.045-.219-1.998-.406v-.012l-2.496-.304h-.059l-2.613-.434-.164-.023-.152-.059-2.45-.984-.222-.094-.188-.152-1.664-1.407-2.308-1.945 2.941-.668 2.496-.574 2.367-.88.164-.046 2.438-.621 2.437-.902.13-.047.14-.024 2.437-.433 2.168-1.067 2.262-1.254.059-.023.047-.023 2.156-.985 1.77-1.687.275.292-.069-.837-.504-2.532h.012l-.586-2.554-.011-.047v-.047l-.422-2.613-.012-.082v-.082l-.106-2.426-.257-.797.513-.17-2.353-.172-.14-.011-.142-.036-2.554-.68v-.011l-2.52-.598h-.047l-2.53-.691h-.024l-2.532-.715-.199-.059-.175-.105-2.286-1.406-1.945-1.196 1.863-1.312 1.817-1.277.187-.13.211-.07 2.508-.82.117-.035.129-.024 2.461-.363L26 45.52l2.39-1.02.106-.047.106-.023 2.484-.645 2.332-.914 2.426-1.031.07-.035.07-.024 2.332-.726 2.098-1.313.07-.047.082-.035 2.157-1.054 1.617-1.454.097-.152H44v-.21l.2-2.462-.118-2.508h-.012l-.175-2.636-.012-.13.011-.128.118-1.078 2.976.304-.093.985.164 2.484v.012l.011.012.117 2.648.012.094-.011.082-.08 1.077 1.884.153 2.508-.117v-.012l2.637-.175h.093l2.637-.012.094-.012.082.012 2.508.281 2.484-.21.047-.013h.059l2.636-.023h.035l2.555.012 2.637-.117.094-.012.082.011 1.928.128.091-1.112-.117-2.508h-.012l-.175-2.636-.012-.13.011-.128.118-1.078zM26.865 104.38l-1.42.202-1.43.188-.057-.313-1.578.106-.014.001-.014.001-2.64.126-.093.005-.093-.007-.946-.072-.101 1.135v.001l-.19 2.518.225 2.512.24 2.641.009.085-.002.086-.019.79 2.488.279 2.485-.211.047-.012h.058l2.649-.023h.023l2.555.012 1.15-.052h.006l.17-.022.105.01 1.217-.054.082-.011.082.011 2.649.176-.012.012 1.464.006 2.314-.069.082-.003.082.006 1.943.154.838-.029.804-1.405 1.313-2.285 1.3-2.285.012-.024.012-.011 1.348-2.262.058-.094.059-.07 1.21-1.539-.702.133-.188.035-.187-.012-2.637-.176v-.011l-2.555-.012h-.023l-2.637-.059h-.011l-2.293-.073-.309-.002v.005l-.585-.003-2.224.025-2.277.294-.234.024-.235-.047-.346-.068-2.413-.266zm46.494.682.047.071.035.082 1.172 2.273 1.348 2.274.012.011.011.024 1.22 2.215 1.452 2.203.216.332 1.571-.122.156-.012.155.021.966.125h.167v-.012l2.636-.059 2.637-.07h.035l.324-.002.709-.12.133-.023.135.002 2.64.028.09.001.091.011 1.937.257 1.582-.306.246-.047.234.035.641.087.241-.032.161-.023.163.014 2.498.204 2.134-.218.599-.401-.013-1.713-.424-2.524-.026-.154.007-.157.11-2.64.003-.069.01-.068.212-1.571-.592-.291-2.292-.297-2.507.01-1.602.045-.006.009-.12-.006-.911.026-.01.001-2.639.058h-.017l-2.612.028-2.585.172-.19.013-.187-.035-.804-.153-1.175.048h-.117l-2.55-.091-.183.022-.124.014-.126-.005-2.558-.131-2.555.154-.13.008-.129-.015-2.038-.231zm-16.273-.492-.129.012h-.129l-.996-.064-.578.041h-.012l-.011.011-2.649.118-.094.011-.082-.011-1.734-.129-.281.89-.094.258-.164.211-1.594 1.98-1.3 2.157-1.301 2.308v.012l-1.09 1.863h.047l.187.035.103.019.242.005.72-.045.156-.01.154.023.394.056.77.015-.012.012h2.66l2.602.058 2.613-.058h.13l.117.011 1.09.16 2.484-.224.067-.006.066-.001 2.641-.002h.022l.022.001.701.02.375-.022.153-.012.044.007.045-.003.164.012.45.053.708.02.05.001.05.005 1.847.176 1.923-.114.082-.012.082.012.916.046.201-.011.073-.004.075.003 1.541.061 2.221-.259.235-.036.222.047.933.174-.519-.787-.035-.047-.023-.058-1.278-2.309v-.012l-1.324-2.215-.023-.046-.024-.036-1.125-2.203-1.207-1.793-.887-.307-.096-.008-1.424.085-.148.009-.148-.021-.966-.136-.944.132-.14.024-.153-.012-1.26-.073-.29.026-.141.012-.153-.012-.425-.048-2.57-.011h-.095l-1.914-.127zm35.902-21.402-2.437.621-.13.035-.128.012-2.625.2-.164.01-.152-.01-2.496-.34-2.38.363-.14.023h-.14l-2.45-.117-2.484.433-.2.036-.21-.024-2.532-.27-2.52.024-2.437.469-.117.023-.129.012-2.625.07h-.105l-.118-.011-2.484-.317-2.496.211-.105.012-.106-.012-2.648-.152-2.52.094h-.07l-.059-.012-2.59-.13-2.566.13h-.117l-.117-.012-2.625-.293v-.012l-2.567-.117v-.011l-2.601-.06v-.01l-2.508.151h-.047l-2.637.07h-.105l-.106-.01-2.52-.294-2.612-.059h-.141l-.14-.035-2.473-.55-2.508-.047v-.012l-.416-.004.244 1.227.047.246-.035.246-.34 2.472.199 2.485.012.129-.012.14-.246 2.403.48 2.437.024.153v.152l-.024 2.637v.117l-.011.117-.41 2.391.133.784.282-.001.956-.127.234-.035.246.047 2.006.39.046.006 2.496-.215.056-.005h.015l.186-.024.093-.012h.106l2.022.009.273-.003h.026l.77.005-.13-1.42-.527-2.544h.011l-.597-2.543-.024-.094-.433-2.601-.024-.106v-.093l-.035-.961 1.5-.059 1.5-.047.023.89.434 2.474-.012.011.586 2.473.012.023v.012l.55 2.578.024.094v.094l.152 1.775 1.421-.065.086-.004.086.006 2.587.176 2.606.025.047.002 1.143.046 1.333-.255.23-.706 1.263.773.277.032v-.055l.058-2.637v-.117l.024-.117.468-2.625.047-.258.13-.223 1.335-2.332.117-.21.176-.153 2.004-1.805.246-.21.316-.106 2.555-.774.2-.07h.21l2.614-.047h.187l.188.047 2.53.598.27.07.235.152 2.168 1.477.176.117.129.152 1.722 2.04.223.257.082.328.68 2.59.046.164.012.164.094 2.649v.093l-.012.106-.071.724.61.014 1.372-.031.794-.083.163-.018.162.019.484.055h2.287v-.012l2.637-.047h.152l2.009.187.16-1.878v-.094l.024-.094.551-2.578v-.012l.012-.023.586-2.473-.012-.011.434-2.473.023-.89 1.5.046 1.5.059-.035.96v.094l-.023.106-.434 2.601-.023.094-.598 2.543h.011l-.527 2.543-.118 1.267.07.013 1.49.282 1.134-.046h.047l2.543-.012v-.012l2.649-.176.082-.011.082.011 1.828.083.281-.387.023-2.18v-.059l.012-.058.2-2.473-.258-2.52-.012-.081v-.082l.012-2.637v-.094l.175-2.648.118-2.496-.176-2.461-.012-.059v-.021zm-34.507 9.543-2.016.621-1.57 1.395-1.09 1.91-.41 2.25-.047 2.343.02.103.46-.04.078-.007.078.001 2.641.044-.001.001 2.295.013.476-.056.164-.012.152.012.774.084.003.001.028-.003.033.004 1.332.03 2.607-.054.12-.003.119.016.021.003.283-.031.153-.012.14.012 1.09.099.07-.001.094-1-.082-2.32-.562-2.098-1.383-1.641-1.77-1.207-2.097-.492zm9.792-22.2-.046.012h-.036l-2.636.094h-.118l-2.636-.105V70.5l-2.602-.012h-.035l-.047-.011-2.578-.176-2.531.129h-.082l-2.637-.012v-.012l-2.52.024.012.011-2.636.223-.141.012-.152-.012-2.532-.281-2.578.011v-.011l-2.543.176h-.011l-.012.011-2.649.118-.093.011-.094-.011-1.676-.13-1.535 1.489-.188.176-.234.105-2.402 1.09-2.215 1.219-.024.023-.035.012-2.379 1.184-.199.093-.21.047-2.497.41-2.344.89-.082.036-.082.012-2.484.62-1.817.68.797.317 2.426.41h.012l2.613.328.117.024 2.485.504 2.472.035h.012l2.649.058h.152l.14.036 2.461.538 2.508.07h.07l.06.013 2.495.27 2.508-.06 2.637-.14h.129l2.636.07h.036l2.66.14h.093l2.473.282 2.543-.105.07-.012.07.012 2.602.117 2.555-.082h.14l2.567.152 2.543-.21.152-.013.153.024 2.543.305 2.39-.059 2.531-.469.13-.023h.128l2.649-.035h.094l.081.011 2.473.246 2.38-.41.151-.023.165.012 2.46.093 2.508-.375.223-.035.21.035 2.485.34 2.32-.187 2.52-.621.14-.036.141-.011 2.649-.153h.105l2.367.024 2.309-.797.187-.07.211-.012 2.461-.164.891-.246-1.289-.364-2.566-.609-.2-.047-.175-.094-2.168-1.195-2.391-.539-.14-.035-.13-.059-2.32-1.03L90 73.886l-.176-.07-.152-.106-2.191-1.477-.036-.035-1.78-1.312-1.84-.176H83.8l-.035-.012-2.532-.351-2.507.058h-.059l-2.649-.058v-.012h-2.625l-2.625-.047zm16.895-13.94-.035.011h-.024l-2.636.246-.106.012-.117-.012-2.437-.14-1.115.291.046 2.359v.082l-.012.094-.257 2.625v.046l-.012.047-.422 2.602h-.012l-.351 2.438-.002.11 1.015.024 2.614-.058h.117l.117.011 2.578.375.012-.011.724.07.053-.686v-.093l.024-.094.527-2.59v-.023l.574-2.485-.012-.012.422-2.566.106-2.52.012-.21.04-.142zm-50.625.154.105 2.52.422 2.566-.011.011.574 2.485v.023l.527 2.59.024.094v.093l.043.57.265.022L39 67.582v-.012l2.637-.175h.093l1.685-.008v-.115l-.352-2.438h-.012l-.422-2.602-.012-.047v-.046l-.258-2.625-.011-.094v-.082l.045-2.33-2.26.043h-.117l-.118-.024-2.554-.351-2.59-.13h-.07l-.07-.01-.083-.014zm13.652.794-.117.024-.117-.012-2.58-.057-.033 1.864.246 2.472.422 2.543v.036l.375 2.613.011.094v.093l.005.403.644.072 2.484-.21.047-.013h.059l2.636-.023h.035l1.296.006.011-.235-.2-2.46h-.01l-.259-2.626-.011-.046v-.047l-.094-2.637-.012-.094.012-.082.15-1.949-2.539-.08zm13.22-.023-.142.023-.14-.011-2.52-.211-2.445.322-.135 1.754.094 2.438.27 2.625v.023l.222 2.637v.187l-.003.069.888-.04.094-.011.082.011 2.636.176-.011.012 2.566.012h.047l1.564.063-.011-.292v-.187l.222-2.637v-.023l.27-2.626.094-2.437-.15-1.934-1.114-.2zm8.05.106-.117.023-.13.012-1.292.034.119 1.526.012.082-.012.094-.094 2.637v.047l-.011.046-.258 2.625h-.012l-.2 2.462.015.362.519-.017 2.637-.246h.164l2.636.047-.011.012h1.257l.002-.159v-.093l.012-.094.375-2.613v-.035l.422-2.544.246-2.472-.038-2.099-1.413-.118v-.012h-2.332zM67.508 38.43h-.082l-2.637-.012v-.012l-2.52.024.012.011-2.636.223-.141.012-.152-.012-2.532-.281-2.578.011v-.011l-2.543.176h-.011l-.012.011-2.649.117-.093.012-.094-.011-1.828-.141-.235.387-.117.175-.152.141-1.934 1.734-.152.141-.188.082-2.273 1.09-2.191 1.406-.165.106-.187.058-2.496.762-2.332 1.008h-.024l-.011.011-2.461.973-.094.035-.082.024-2.52.633-2.273.984-.047.023-2.472.95-.153.058-.164.024-2.543.375-1.816.597.058.035 2.344.668h-.012l2.485.668 2.554.61.024.011h.012l2.425.633 2.508.211h.059l.047.012 2.472.375 2.66.152h.059l.059.012 2.507.328 2.532-.035h.152l.14.023 2.497.446 2.449.047 2.473-.34.129-.024.117.012 2.648.082h.082l.094.012 2.45.351 2.401-.304.165-.024 2.742.211 2.437-.27.211-.023.211.047 2.508.445 2.344-.058 2.53-.492.141-.036h.153l2.625.012h.07l.059.012 2.414.199 2.344-.598.222-.058.235.011 2.507.141 2.555-.234 2.531-.352 2.59-.398 2.555-.457 2.426-.657.14-.046.153-.012 2.39-.188 2.098-1.054.176-.106-1.524-.644-2.472-.47h-.035l-.036-.01-2.578-.645-.152-.035-.14-.07-2.286-1.114-2.426-.762-.035-.023-.047-.012-2.46-.95h-.012l-2.45-.948-.035-.012-.023-.012-2.332-1.008-2.496-.89-.082-.035-.07-.036-2.38-1.171-.152-.07-.129-.118-2.05-1.676-.012-.011h-.012l-1.36-1.16-2.062-.141z"/></svg>