<svg width="120" height="120" viewBox="0 0 120 120" fill="none" xmlns="http://www.w3.org/2000/svg">
<path d="M42.5619 56.6504L43.4105 55.4135L43.2882 55.3296L43.1518 55.2713L42.5619 56.6504ZM39.897 55.5103L38.9341 56.6605L39.1037 56.8025L39.307 56.8895L39.897 55.5103ZM37.5859 53.5756L38.5488 52.4255L38.4785 52.3667L38.4016 52.3168L37.5859 53.5756ZM35.059 51.9381L34.1432 53.1261L34.1918 53.1636L34.2433 53.1969L35.059 51.9381ZM32.6777 50.1023L31.6197 51.1657L31.6868 51.2325L31.7618 51.2903L32.6777 50.1023ZM30.543 47.9784L31.601 46.9151L31.5762 46.8905L31.5504 46.867L30.543 47.9784ZM28.3185 45.9619L29.3259 44.8506L29.3015 44.8285L29.2762 44.8074L28.3185 45.9619ZM26.0018 44.0402L26.9594 42.8857L26.7537 42.7151L26.5018 42.626L26.0018 44.0402ZM23.3884 43.1162L23.8885 41.702L23.8749 41.6971L23.8612 41.6926L23.3884 43.1162ZM20.5241 42.1649L20.9968 40.7414L20.8197 40.6826L20.6337 40.6689L20.5241 42.1649ZM17.5013 41.9435L17.1526 43.4024L17.2707 43.4306L17.3917 43.4395L17.5013 41.9435ZM14.5857 41.2465L14.9344 39.7876L14.8184 39.7598L14.6995 39.7508L14.5857 41.2465ZM11.6022 41.0193L11.7161 39.5236L11.5001 39.5072L11.2882 39.5526L11.6022 41.0193ZM8.87509 41.6033L8.56102 40.1365L7.3104 40.4043L7.37713 41.6815L8.87509 41.6033ZM9.03203 44.6074L7.53407 44.6857L7.53872 44.7746L7.55385 44.8623L9.03203 44.6074ZM9.54186 47.5638L8.06368 47.8187L8.07234 47.8689L8.08438 47.9183L9.54186 47.5638ZM10.2503 50.4756L11.7428 50.3263L11.7324 50.2224L11.7077 50.121L10.2503 50.4756ZM10.5526 53.4988L9.06002 53.6481L9.08897 53.9375L9.22403 54.1952L10.5526 53.4988ZM11.9603 56.1844L13.3875 55.7228L13.3482 55.6012L13.2889 55.4881L11.9603 56.1844ZM12.8828 59.0362L11.4556 59.4979L11.5028 59.6438L11.5786 59.7772L12.8828 59.0362ZM14.3636 61.6428L15.7317 61.0277L15.7027 60.9633L15.6679 60.9019L14.3636 61.6428ZM15.6033 64.3997L14.2352 65.0149L14.35 65.27L14.5489 65.4666L15.6033 64.3997ZM17.7644 66.5353L18.9469 65.6126L18.8875 65.5363L18.8187 65.4684L17.7644 66.5353ZM19.6021 68.8906L18.4196 69.8133L18.4628 69.8688L18.5111 69.92L19.6021 68.8906ZM21.6576 71.0691L20.5666 72.0985L20.5998 72.1337L20.6352 72.1667L21.6576 71.0691ZM23.8532 73.1144L25.0732 72.2417L24.9857 72.1194L24.8756 72.0168L23.8532 73.1144ZM25.5959 75.5508L24.3758 76.4234L24.5497 76.6665L24.8035 76.8244L25.5959 75.5508ZM28.0097 77.0525L27.2173 78.3262L27.3274 78.3947L27.4477 78.4433L28.0097 77.0525ZM30.7954 78.1782L31.5672 76.8919L31.4664 76.8314L31.3574 76.7874L30.7954 78.1782ZM33.3789 79.7283L32.6071 81.0146L32.758 81.1051L32.9257 81.1582L33.3789 79.7283ZM36.2648 80.643L36.92 79.2937L36.822 79.2461L36.718 79.2131L36.2648 80.643ZM38.9647 81.9541L38.3095 83.3034L38.338 83.3173L38.367 83.3299L38.9647 81.9541ZM41.7227 83.1523L41.125 84.528L41.255 84.5845L41.3933 84.6157L41.7227 83.1523ZM44.6582 83.8128L44.3289 85.2762L44.3445 85.2798L44.3601 85.2829L44.6582 83.8128ZM47.5897 84.4072L47.9147 82.9428L47.9013 82.9399L47.8878 82.9371L47.5897 84.4072ZM50.5469 85.0635L50.2219 86.5279L50.5192 86.5939L50.8187 86.5387L50.5469 85.0635ZM53.5355 84.513L53.5041 83.0133L53.3829 83.0158L53.2637 83.0378L53.5355 84.513ZM56.5617 84.4496L56.5931 85.9493L56.8198 85.9446L57.0349 85.873L56.5617 84.4496ZM58.4869 83.8096L58.9601 85.2329L60.4068 84.752L59.9024 83.3133L58.4869 83.8096ZM42.6443 56.7069L43.493 55.4701L43.4105 55.4135L42.5619 56.6504L41.7132 57.8872L41.7956 57.9438L42.6443 56.7069ZM42.5619 56.6504L43.1518 55.2713L40.487 54.1312L39.897 55.5103L39.307 56.8895L41.9719 58.0295L42.5619 56.6504ZM39.897 55.5103L40.8599 54.3602L38.5488 52.4255L37.5859 53.5756L36.623 54.7258L38.9341 56.6605L39.897 55.5103ZM37.5859 53.5756L38.4016 52.3168L35.8747 50.6793L35.059 51.9381L34.2433 53.1969L36.7702 54.8344L37.5859 53.5756ZM35.059 51.9381L35.9748 50.7502L33.5935 48.9144L32.6777 50.1023L31.7618 51.2903L34.1432 53.1261L35.059 51.9381ZM32.6777 50.1023L33.7356 49.039L31.601 46.9151L30.543 47.9784L29.485 49.0417L31.6197 51.1657L32.6777 50.1023ZM30.543 47.9784L31.5504 46.867L29.3259 44.8506L28.3185 45.9619L27.3111 47.0733L29.5355 49.0897L30.543 47.9784ZM28.3185 45.9619L29.2762 44.8074L26.9594 42.8857L26.0018 44.0402L25.0441 45.1947L27.3608 47.1164L28.3185 45.9619ZM26.0018 44.0402L26.5018 42.626L23.8885 41.702L23.3884 43.1162L22.8884 44.5304L25.5017 45.4544L26.0018 44.0402ZM23.3884 43.1162L23.8612 41.6926L20.9968 40.7414L20.5241 42.1649L20.0513 43.5885L22.9157 44.5397L23.3884 43.1162ZM20.5241 42.1649L20.6337 40.6689L17.6109 40.4475L17.5013 41.9435L17.3917 43.4395L20.4145 43.6609L20.5241 42.1649ZM17.5013 41.9435L17.8501 40.4846L14.9344 39.7876L14.5857 41.2465L14.2369 42.7054L17.1526 43.4024L17.5013 41.9435ZM14.5857 41.2465L14.6995 39.7508L11.7161 39.5236L11.6022 41.0193L11.4884 42.515L14.4718 42.7421L14.5857 41.2465ZM11.6022 41.0193L11.2882 39.5526L8.56102 40.1365L8.87509 41.6033L9.18915 43.07L11.9163 42.4861L11.6022 41.0193ZM8.87509 41.6033L7.37713 41.6815L7.53407 44.6857L9.03203 44.6074L10.53 44.5291L10.373 41.525L8.87509 41.6033ZM9.03203 44.6074L7.55385 44.8623L8.06368 47.8187L9.54186 47.5638L11.02 47.3088L10.5102 44.3525L9.03203 44.6074ZM9.54186 47.5638L8.08438 47.9183L8.79277 50.8302L10.2503 50.4756L11.7077 50.121L10.9994 47.2092L9.54186 47.5638ZM10.2503 50.4756L8.7577 50.6248L9.06002 53.6481L10.5526 53.4988L12.0451 53.3496L11.7428 50.3263L10.2503 50.4756ZM10.5526 53.4988L9.22403 54.1952L10.6318 56.8808L11.9603 56.1844L13.2889 55.4881L11.8811 52.8024L10.5526 53.4988ZM11.9603 56.1844L10.5331 56.6461L11.4556 59.4979L12.8828 59.0362L14.31 58.5745L13.3875 55.7228L11.9603 56.1844ZM12.8828 59.0362L11.5786 59.7772L13.0594 62.3838L14.3636 61.6428L15.6679 60.9019L14.187 58.2953L12.8828 59.0362ZM14.3636 61.6428L12.9956 62.258L14.2352 65.0149L15.6033 64.3997L16.9714 63.7845L15.7317 61.0277L14.3636 61.6428ZM15.6033 64.3997L14.5489 65.4666L16.71 67.6022L17.7644 66.5353L18.8187 65.4684L16.6577 63.3328L15.6033 64.3997ZM17.7644 66.5353L16.5818 67.4581L18.4196 69.8133L19.6021 68.8906L20.7847 67.9678L18.9469 65.6126L17.7644 66.5353ZM19.6021 68.8906L18.5111 69.92L20.5666 72.0985L21.6576 71.0691L22.7486 70.0397L20.6932 67.8612L19.6021 68.8906ZM21.6576 71.0691L20.6352 72.1667L22.8308 74.212L23.8532 73.1144L24.8756 72.0168L22.68 69.9715L21.6576 71.0691ZM23.8532 73.1144L22.6332 73.9871L24.3758 76.4234L25.5959 75.5508L26.8159 74.6781L25.0732 72.2417L23.8532 73.1144ZM25.5959 75.5508L24.8035 76.8244L27.2173 78.3262L28.0097 77.0525L28.8021 75.7789L26.3882 74.2771L25.5959 75.5508ZM28.0097 77.0525L27.4477 78.4433L30.2334 79.5689L30.7954 78.1782L31.3574 76.7874L28.5716 75.6618L28.0097 77.0525ZM30.7954 78.1782L30.0236 79.4644L32.6071 81.0146L33.3789 79.7283L34.1507 78.4421L31.5672 76.8919L30.7954 78.1782ZM33.3789 79.7283L32.9257 81.1582L35.8116 82.0729L36.2648 80.643L36.718 79.2131L33.8321 78.2984L33.3789 79.7283ZM36.2648 80.643L35.6096 81.9924L38.3095 83.3034L38.9647 81.9541L39.62 80.6048L36.92 79.2937L36.2648 80.643ZM38.9647 81.9541L38.367 83.3299L41.125 84.528L41.7227 83.1523L42.3203 81.7765L39.5624 80.5783L38.9647 81.9541ZM41.7227 83.1523L41.3933 84.6157L44.3289 85.2762L44.6582 83.8128L44.9875 82.3494L42.052 81.6889L41.7227 83.1523ZM44.6582 83.8128L44.3601 85.2829L47.2917 85.8773L47.5897 84.4072L47.8878 82.9371L44.9562 82.3428L44.6582 83.8128ZM47.5897 84.4072L47.2647 85.8716L50.2219 86.5279L50.5469 85.0635L50.8719 83.5992L47.9147 82.9428L47.5897 84.4072ZM50.5469 85.0635L50.8187 86.5387L53.8072 85.9881L53.5355 84.513L53.2637 83.0378L50.2751 83.5884L50.5469 85.0635ZM53.5355 84.513L53.5668 86.0126L56.5931 85.9493L56.5617 84.4496L56.5303 82.95L53.5041 83.0133L53.5355 84.513ZM56.5617 84.4496L57.0349 85.873L58.9601 85.2329L58.4869 83.8096L58.0136 82.3862L56.0884 83.0262L56.5617 84.4496ZM58.4869 83.8096L59.9024 83.3133L59.8525 83.1711L58.437 83.6674L57.0215 84.1636L57.0713 84.3058L58.4869 83.8096Z" fill="black"/>
<path d="M59.3998 83.4452L59.5749 81.9555L59.51 81.9479L59.4448 81.9459L59.3998 83.4452ZM62.2698 83.7825L62.4865 82.2982L62.4657 82.2952L62.4448 82.2927L62.2698 83.7825ZM65.2534 84.2182L65.0366 85.7025L65.2171 85.7288L65.3987 85.7112L65.2534 84.2182ZM68.2516 83.9264L68.3969 85.4193L68.4042 85.4186L68.4115 85.4178L68.2516 83.9264ZM71.2281 83.6073L71.1324 82.1103L71.1002 82.1124L71.0682 82.1158L71.2281 83.6073ZM74.2236 83.4158L74.3193 84.9128L74.4179 84.9065L74.5148 84.8873L74.2236 83.4158ZM77.1679 82.8332L77.4591 84.3047L77.5627 84.2842L77.6624 84.2494L77.1679 82.8332ZM80 81.8443L79.5091 80.4269L79.5055 80.4282L80 81.8443ZM82.8235 80.8666L83.3144 82.284L83.3293 82.2788L83.3442 82.2733L82.8235 80.8666ZM85.6576 79.8175L86.1783 81.2242L86.3912 81.1454L86.5712 81.0071L85.6576 79.8175ZM88.0749 77.9608L87.6304 76.5282L87.3741 76.6078L87.1613 76.7712L88.0749 77.9608ZM90.9596 77.0657L90.9409 75.5658L90.7231 75.5686L90.5151 75.6331L90.9596 77.0657ZM93.8162 77.0301L94.4635 75.677L94.1476 75.5258L93.7975 75.5302L93.8162 77.0301ZM96.503 78.3155L95.8556 79.6686L95.9949 79.7353L96.1449 79.7721L96.503 78.3155ZM99.4188 79.0324L99.8414 77.5932L99.8094 77.5837L99.7769 77.5758L99.4188 79.0324ZM102.301 79.8788L102.805 78.4659L102.765 78.4516L102.724 78.4395L102.301 79.8788ZM105.147 80.8933L106.059 79.7025L105.872 79.5595L105.65 79.4805L105.147 80.8933ZM107.558 82.7405L106.646 83.9314L106.763 84.0203L106.894 84.0852L107.558 82.7405ZM110.28 84.0861L111.374 83.0592L111.188 82.8615L110.945 82.7414L110.28 84.0861ZM112.354 86.2938L113.832 86.5462L113.958 85.8107L113.447 85.2669L112.354 86.2938ZM111.911 88.8864L112.677 90.1763L113.273 89.8224L113.39 89.1388L111.911 88.8864ZM109.308 90.4314L108.542 89.1415L108.405 89.223L108.288 89.3317L109.308 90.4314ZM107.079 92.4987L107.749 93.841L107.941 93.7449L108.099 93.5984L107.079 92.4987ZM104.38 93.8451L104.976 95.2218L105.013 95.2056L105.05 95.1873L104.38 93.8451ZM101.618 95.0397L102.143 96.4449L102.179 96.4316L102.214 96.4165L101.618 95.0397ZM98.8007 96.0924L99.0217 97.576L99.1778 97.5528L99.3257 97.4976L98.8007 96.0924ZM95.8228 96.536L95.6018 95.0524L95.5257 95.0637L95.4512 95.0828L95.8228 96.536ZM92.914 97.2797L93.0479 98.7737L93.1684 98.7629L93.2856 98.733L92.914 97.2797ZM89.9244 97.5477L89.769 99.0396L89.9135 99.0547L90.0583 99.0417L89.9244 97.5477ZM86.9352 97.2363L87.0906 95.7444L86.9826 95.7331L86.874 95.7376L86.9352 97.2363ZM83.9163 97.3595L83.5886 98.8233L83.7807 98.8663L83.9775 98.8583L83.9163 97.3595ZM80.9799 96.702L80.5152 98.1282L80.5828 98.1502L80.6522 98.1658L80.9799 96.702ZM78.1296 95.7732L78.5944 94.347L78.5834 94.3435L78.5725 94.3401L78.1296 95.7732ZM75.2663 94.8885L75.7091 93.4553L75.2734 93.3207L74.8365 93.4514L75.2663 94.8885ZM72.8364 95.6152L72.4066 94.1781L71.7957 94.3608L71.5033 94.9275L72.8364 95.6152ZM71.4662 98.2712L70.1332 97.5834L70.0982 97.6513L70.0702 97.7224L71.4662 98.2712ZM70.3588 101.088L71.3423 102.221L71.6202 101.979L71.7548 101.637L70.3588 101.088ZM68.0714 103.074L67.0879 101.942L67.0763 101.952L67.0649 101.962L68.0714 103.074ZM65.8658 105.071L66.8666 106.188L66.8723 106.183L65.8658 105.071ZM63.6082 107.093L64.3337 108.406L64.4824 108.324L64.609 108.21L63.6082 107.093ZM60.9667 108.553L60.8323 110.047L61.29 110.088L61.6922 109.865L60.9667 108.553ZM58.1059 108.295L57.4525 109.645L57.6989 109.765L57.9714 109.789L58.1059 108.295ZM55.4102 106.991L54.5848 108.243L54.6676 108.298L54.7568 108.341L55.4102 106.991ZM52.9047 105.34L51.91 106.462L51.99 106.533L52.0793 106.592L52.9047 105.34ZM50.6609 103.352L49.5129 104.317L49.5838 104.401L49.6661 104.474L50.6609 103.352ZM48.7417 101.07L47.4136 101.767L47.4891 101.911L47.5938 102.036L48.7417 101.07ZM47.3669 98.4507L45.9973 99.0622L46.0167 99.1057L46.0388 99.1478L47.3669 98.4507ZM46.1495 95.7242L44.6998 96.1092L44.7307 96.2257L44.7799 96.3358L46.1495 95.7242ZM59.2999 83.4422L59.2549 84.9415L59.3549 84.9445L59.3998 83.4452L59.4448 81.9459L59.3448 81.9429L59.2999 83.4422ZM59.3998 83.4452L59.2248 84.935L62.0947 85.2722L62.2698 83.7825L62.4448 82.2927L59.5749 81.9555L59.3998 83.4452ZM62.2698 83.7825L62.053 85.2667L65.0366 85.7025L65.2534 84.2182L65.4702 82.734L62.4865 82.2982L62.2698 83.7825ZM65.2534 84.2182L65.3987 85.7112L68.3969 85.4193L68.2516 83.9264L68.1063 82.4334L65.1081 82.7253L65.2534 84.2182ZM68.2516 83.9264L68.4115 85.4178L71.388 85.0987L71.2281 83.6073L71.0682 82.1158L68.0917 82.4349L68.2516 83.9264ZM71.2281 83.6073L71.3237 85.1042L74.3193 84.9128L74.2236 83.4158L74.128 81.9189L71.1324 82.1103L71.2281 83.6073ZM74.2236 83.4158L74.5148 84.8873L77.4591 84.3047L77.1679 82.8332L76.8767 81.3618L73.9325 81.9444L74.2236 83.4158ZM77.1679 82.8332L77.6624 84.2494L80.4944 83.2605L80 81.8443L79.5055 80.4282L76.6734 81.4171L77.1679 82.8332ZM80 81.8443L80.4908 83.2618L83.3144 82.284L82.8235 80.8666L82.3327 79.4491L79.5091 80.4269L80 81.8443ZM82.8235 80.8666L83.3442 82.2733L86.1783 81.2242L85.6576 79.8175L85.1368 78.4108L82.3028 79.4598L82.8235 80.8666ZM85.6576 79.8175L86.5712 81.0071L88.9886 79.1505L88.0749 77.9608L87.1613 76.7712L84.7439 78.6279L85.6576 79.8175ZM88.0749 77.9608L88.5195 79.3935L91.4041 78.4983L90.9596 77.0657L90.5151 75.6331L87.6304 76.5282L88.0749 77.9608ZM90.9596 77.0657L90.9783 78.5656L93.8349 78.5299L93.8162 77.0301L93.7975 75.5302L90.9409 75.5658L90.9596 77.0657ZM93.8162 77.0301L93.1688 78.3832L95.8556 79.6686L96.503 78.3155L97.1503 76.9624L94.4635 75.677L93.8162 77.0301ZM96.503 78.3155L96.1449 79.7721L99.0607 80.489L99.4188 79.0324L99.7769 77.5758L96.8611 76.8589L96.503 78.3155ZM99.4188 79.0324L98.9962 80.4716L101.878 81.318L102.301 79.8788L102.724 78.4395L99.8414 77.5932L99.4188 79.0324ZM102.301 79.8788L101.797 81.2917L104.643 82.3062L105.147 80.8933L105.65 79.4805L102.805 78.4659L102.301 79.8788ZM105.147 80.8933L104.235 82.0842L106.646 83.9314L107.558 82.7405L108.47 81.5496L106.059 79.7025L105.147 80.8933ZM107.558 82.7405L106.894 84.0852L109.615 85.4307L110.28 84.0861L110.945 82.7414L108.223 81.3958L107.558 82.7405ZM110.28 84.0861L109.187 85.1129L111.26 87.3207L112.354 86.2938L113.447 85.2669L111.374 83.0592L110.28 84.0861ZM112.354 86.2938L110.875 86.0414L110.432 88.634L111.911 88.8864L113.39 89.1388L113.832 86.5462L112.354 86.2938ZM111.911 88.8864L111.146 87.5965L108.542 89.1415L109.308 90.4314L110.073 91.7213L112.677 90.1763L111.911 88.8864ZM109.308 90.4314L108.288 89.3317L106.059 91.399L107.079 92.4987L108.099 93.5984L110.328 91.5311L109.308 90.4314ZM107.079 92.4987L106.41 91.1564L103.711 92.5028L104.38 93.8451L105.05 95.1873L107.749 93.841L107.079 92.4987ZM104.38 93.8451L103.785 92.4683L101.023 93.663L101.618 95.0397L102.214 96.4165L104.976 95.2218L104.38 93.8451ZM101.618 95.0397L101.093 93.6346L98.2757 94.6873L98.8007 96.0924L99.3257 97.4976L102.143 96.4449L101.618 95.0397ZM98.8007 96.0924L98.5797 94.6088L95.6018 95.0524L95.8228 96.536L96.0438 98.0196L99.0217 97.576L98.8007 96.0924ZM95.8228 96.536L95.4512 95.0828L92.5424 95.8265L92.914 97.2797L93.2856 98.733L96.1943 97.9893L95.8228 96.536ZM92.914 97.2797L92.7801 95.7857L89.7905 96.0537L89.9244 97.5477L90.0583 99.0417L93.0479 98.7737L92.914 97.2797ZM89.9244 97.5477L90.0798 96.0558L87.0906 95.7444L86.9352 97.2363L86.7798 98.7283L89.769 99.0396L89.9244 97.5477ZM86.9352 97.2363L86.874 95.7376L83.8552 95.8608L83.9163 97.3595L83.9775 98.8583L86.9964 98.7351L86.9352 97.2363ZM83.9163 97.3595L84.2441 95.8958L81.3077 95.2383L80.9799 96.702L80.6522 98.1658L83.5886 98.8233L83.9163 97.3595ZM80.9799 96.702L81.4447 95.2758L78.5944 94.347L78.1296 95.7732L77.6649 97.1994L80.5152 98.1282L80.9799 96.702ZM78.1296 95.7732L78.5725 94.3401L75.7091 93.4553L75.2663 94.8885L74.8235 96.3216L77.6868 97.2064L78.1296 95.7732ZM75.2663 94.8885L74.8365 93.4514L72.4066 94.1781L72.8364 95.6152L73.2662 97.0523L75.6961 96.3256L75.2663 94.8885ZM72.8364 95.6152L71.5033 94.9275L70.1332 97.5834L71.4662 98.2712L72.7993 98.9589L74.1695 96.3029L72.8364 95.6152ZM71.4662 98.2712L70.0702 97.7224L68.9628 100.539L70.3588 101.088L71.7548 101.637L72.8622 98.8199L71.4662 98.2712ZM70.3588 101.088L69.3753 99.9556L67.0879 101.942L68.0714 103.074L69.0549 104.207L71.3423 102.221L70.3588 101.088ZM68.0714 103.074L67.0649 101.962L64.8592 103.959L65.8658 105.071L66.8723 106.183L69.078 104.187L68.0714 103.074ZM65.8658 105.071L64.865 103.953L62.6074 105.976L63.6082 107.093L64.609 108.21L66.8666 106.188L65.8658 105.071ZM63.6082 107.093L62.8827 105.78L60.2412 107.24L60.9667 108.553L61.6922 109.865L64.3337 108.406L63.6082 107.093ZM60.9667 108.553L61.1011 107.059L58.2403 106.801L58.1059 108.295L57.9714 109.789L60.8323 110.047L60.9667 108.553ZM58.1059 108.295L58.7592 106.945L56.0635 105.641L55.4102 106.991L54.7568 108.341L57.4525 109.645L58.1059 108.295ZM55.4102 106.991L56.2355 105.738L53.7301 104.087L52.9047 105.34L52.0793 106.592L54.5848 108.243L55.4102 106.991ZM52.9047 105.34L53.8994 104.217L51.6556 102.229L50.6609 103.352L49.6661 104.474L51.91 106.462L52.9047 105.34ZM50.6609 103.352L51.8088 102.386L49.8897 100.104L48.7417 101.07L47.5938 102.036L49.5129 104.317L50.6609 103.352ZM48.7417 101.07L50.0699 100.373L48.6951 97.7535L47.3669 98.4507L46.0388 99.1478L47.4136 101.767L48.7417 101.07ZM47.3669 98.4507L48.7366 97.8391L47.5192 95.1126L46.1495 95.7242L44.7799 96.3358L45.9973 99.0622L47.3669 98.4507ZM46.1495 95.7242L47.5993 95.3393L47.3462 94.3862L45.8965 94.7711L44.4467 95.1561L44.6998 96.1092L46.1495 95.7242Z" fill="black"/>
<path d="M26.2112 76.7342L25.7244 75.3154L25.6152 75.3528L25.5131 75.4065L26.2112 76.7342ZM23.6533 78.079L23.8459 79.5666L24.1129 79.532L24.3513 79.4067L23.6533 78.079ZM20.6617 78.4664L20.4691 76.9788L20.2959 77.0012L20.1325 77.0629L20.6617 78.4664ZM17.8433 79.5291L17.3141 78.1255L17.2728 78.1411L17.2324 78.1591L17.8433 79.5291ZM15.1174 80.7446L14.5065 79.3747L14.5037 79.3759L15.1174 80.7446ZM12.3833 81.9706L11.7696 80.6019L11.6624 80.65L11.564 80.7141L12.3833 81.9706ZM9.87018 83.6092L9.05092 82.3527L8.95871 82.4128L8.87626 82.4857L9.87018 83.6092ZM7.62519 85.5954L6.63127 84.4719L6.38874 84.6865L6.25633 84.982L7.62519 85.5954ZM6.56776 87.9552L5.19889 87.3419L4.81356 88.2018L5.42104 88.9222L6.56776 87.9552ZM8.50078 90.2476L7.35407 91.2146L7.55704 91.4553L7.83967 91.594L8.50078 90.2476ZM11.2229 91.5841L12.0411 90.327L11.9653 90.2776L11.884 90.2377L11.2229 91.5841ZM13.7299 93.2159L12.9117 94.473L13.0256 94.5472L13.151 94.5996L13.7299 93.2159ZM16.4884 94.3699L17.182 93.0399L17.1258 93.0106L17.0673 92.9861L16.4884 94.3699ZM19.155 95.7607L18.4614 97.0906L18.6082 97.1672L18.7682 97.2099L19.155 95.7607ZM22.0587 96.5356L21.6719 97.9849L21.7342 98.0015L21.7977 98.0127L22.0587 96.5356ZM25.0064 97.0566L24.7454 98.5337L24.8297 98.5486L24.9152 98.5538L25.0064 97.0566ZM27.9904 97.2383L28.2618 95.763L28.1723 95.7466L28.0816 95.7411L27.9904 97.2383ZM30.9726 97.7868L30.7012 99.2621L30.9971 99.3165L31.291 99.2526L30.9726 97.7868ZM33.9354 97.1431L33.8368 95.6464L33.7257 95.6537L33.6169 95.6773L33.9354 97.1431ZM36.9272 96.9461L37.0258 98.4429L37.1911 98.432L37.3501 98.3853L36.9272 96.9461ZM39.8009 96.1019L39.4923 94.6339L39.4347 94.6461L39.3781 94.6627L39.8009 96.1019ZM42.7637 95.4789L43.0724 96.9468L43.2071 96.9185L43.3344 96.8661L42.7637 95.4789ZM45.5376 94.3379L46.1082 95.7251L46.1618 95.7031L46.2134 95.677L45.5376 94.3379ZM48.1118 93.0389L48.7875 94.378L48.867 94.3379L48.9412 94.2887L48.1118 93.0389ZM50.5944 91.3913L51.4238 92.6411L51.5149 92.5806L51.5963 92.5076L50.5944 91.3913ZM52.8226 89.3914L51.8917 88.2151L51.8553 88.244L51.8207 88.275L52.8226 89.3914ZM55.1869 87.5202L56.1178 88.6964L56.2529 88.5895L56.3603 88.4546L55.1869 87.5202ZM57.0635 85.1636L58.2369 86.0981L58.4098 85.8809L58.4936 85.6163L57.0635 85.1636ZM57.7065 83.1322L59.1366 83.5848L59.3342 82.9603L59.0105 82.3908L57.7065 83.1322ZM56.2145 80.5079L57.5185 79.7666L57.4327 79.6158L57.3148 79.4885L56.2145 80.5079ZM54.1604 78.2909L52.8684 79.0529L52.9504 79.1919L53.0601 79.3103L54.1604 78.2909ZM52.6302 75.6962L51.3092 76.4068L51.3232 76.4328L51.3381 76.4582L52.6302 75.6962ZM51.2105 73.0568L52.5315 72.3462L52.4975 72.283L52.4576 72.2233L51.2105 73.0568ZM49.54 70.5575L48.2258 71.2806L48.257 71.3373L48.2929 71.3911L49.54 70.5575ZM48.0943 67.9298L46.6907 68.4588L46.7284 68.559L46.7801 68.6529L48.0943 67.9298ZM47.0285 65.1022L48.4321 64.5731L48.3626 64.3888L48.2479 64.2287L47.0285 65.1022ZM45.2575 62.6298L43.8273 63.082L43.8992 63.3094L44.0381 63.5033L45.2575 62.6298ZM44.3463 59.7476L45.7765 59.2955L45.7414 59.1844L45.6896 59.0801L44.3463 59.7476ZM43.0069 57.0524L41.5079 56.9978L41.4941 57.3787L41.6637 57.72L43.0069 57.0524ZM43.1105 54.2079L41.6175 54.0633L41.6132 54.1082L41.6115 54.1533L43.1105 54.2079ZM43.398 51.2397L41.9207 50.9796L41.9106 51.037L41.905 51.0951L43.398 51.2397ZM43.9229 48.2589L45.4001 48.519L45.4256 48.3745L45.4225 48.2277L43.9229 48.2589ZM43.8604 45.2545L42.3607 45.2254L42.3601 45.2555L42.3607 45.2857L43.8604 45.2545ZM43.9186 42.2542L42.4209 42.1718L42.4194 42.1984L42.4189 42.2251L43.9186 42.2542ZM44.0838 39.2548L42.5882 39.1401L42.587 39.1562L42.5861 39.1723L44.0838 39.2548ZM44.313 36.2678L42.853 35.9237L42.8263 36.037L42.8174 36.1531L44.313 36.2678ZM44.9711 33.4759L43.6223 32.8197L43.5493 32.9695L43.5111 33.1318L44.9711 33.4759ZM46.2758 30.7945L47.6246 31.4508L47.6302 31.4391L47.6357 31.4274L46.2758 30.7945ZM47.5449 28.0674L48.9048 28.7003L48.9222 28.6629L48.9375 28.6247L47.5449 28.0674ZM48.6658 25.2661L47.4391 24.4029L47.3383 24.5462L47.2732 24.7089L48.6658 25.2661ZM50.4029 22.7976L51.6296 23.6609L51.6568 23.6222L51.6815 23.5819L50.4029 22.7976ZM51.9709 20.2414L50.7639 19.3508L50.7258 19.4024L50.6923 19.4571L51.9709 20.2414ZM53.7537 17.8254L52.5595 16.9178L52.553 16.9262L52.5467 16.9348L53.7537 17.8254ZM55.5721 15.4328L54.4488 14.4388L54.4117 14.4807L54.3779 14.5252L55.5721 15.4328ZM57.5604 13.1861L57.1472 11.7441L56.7268 11.8645L56.437 12.192L57.5604 13.1861ZM60.241 12.4179L61.3132 11.3689L60.6877 10.7296L59.8278 10.9759L60.241 12.4179ZM62.3428 14.566L63.4475 13.5512L63.4315 13.5338L63.415 13.517L62.3428 14.566ZM64.376 16.7791L65.5436 15.8375L65.5133 15.7999L65.4806 15.7643L64.376 16.7791ZM66.2658 19.1225L67.516 18.2936L67.4773 18.2353L67.4334 18.1808L66.2658 19.1225ZM67.9291 21.6312L69.2297 20.884L69.2058 20.8423L69.1793 20.8023L67.9291 21.6312ZM69.4269 24.2382L70.8143 23.6681L70.7767 23.5767L70.7275 23.491L69.4269 24.2382ZM70.5732 27.0276L69.1857 27.5977L69.2108 27.6587L69.2411 27.7172L70.5732 27.0276ZM71.9512 29.6895L70.6191 30.3791L70.6436 30.4265L70.6715 30.472L71.9512 29.6895ZM73.52 32.2549L74.8376 31.538L74.8195 31.5047L74.7997 31.4723L73.52 32.2549ZM26.3058 76.7017L25.819 75.2829L25.7244 75.3154L26.2112 76.7342L26.698 78.153L26.7926 78.1205L26.3058 76.7017ZM26.2112 76.7342L25.5131 75.4065L22.9552 76.7513L23.6533 78.079L24.3513 79.4067L26.9092 78.0619L26.2112 76.7342ZM23.6533 78.079L23.4606 76.5914L20.4691 76.9788L20.6617 78.4664L20.8544 79.954L23.8459 79.5666L23.6533 78.079ZM20.6617 78.4664L20.1325 77.0629L17.3141 78.1255L17.8433 79.5291L18.3725 80.9326L21.1909 79.8699L20.6617 78.4664ZM17.8433 79.5291L17.2324 78.1591L14.5065 79.3747L15.1174 80.7446L15.7283 82.1146L18.4542 80.899L17.8433 79.5291ZM15.1174 80.7446L14.5037 79.3759L11.7696 80.6019L12.3833 81.9706L12.997 83.3393L15.7311 82.1133L15.1174 80.7446ZM12.3833 81.9706L11.564 80.7141L9.05092 82.3527L9.87018 83.6092L10.6894 84.8657L13.2025 83.2271L12.3833 81.9706ZM9.87018 83.6092L8.87626 82.4857L6.63127 84.4719L7.62519 85.5954L8.61911 86.7188L10.8641 84.7326L9.87018 83.6092ZM7.62519 85.5954L6.25633 84.982L5.19889 87.3419L6.56776 87.9552L7.93662 88.5686L8.99405 86.2087L7.62519 85.5954ZM6.56776 87.9552L5.42104 88.9222L7.35407 91.2146L8.50078 90.2476L9.6475 89.2806L7.71447 86.9883L6.56776 87.9552ZM8.50078 90.2476L7.83967 91.594L10.5618 92.9306L11.2229 91.5841L11.884 90.2377L9.16189 88.9011L8.50078 90.2476ZM11.2229 91.5841L10.4046 92.8413L12.9117 94.473L13.7299 93.2159L14.5482 91.9587L12.0411 90.327L11.2229 91.5841ZM13.7299 93.2159L13.151 94.5996L15.9095 95.7536L16.4884 94.3699L17.0673 92.9861L14.3088 91.8321L13.7299 93.2159ZM16.4884 94.3699L15.7947 95.6998L18.4614 97.0906L19.155 95.7607L19.8487 94.4307L17.182 93.0399L16.4884 94.3699ZM19.155 95.7607L18.7682 97.2099L21.6719 97.9849L22.0587 96.5356L22.4455 95.0864L19.5418 94.3114L19.155 95.7607ZM22.0587 96.5356L21.7977 98.0127L24.7454 98.5337L25.0064 97.0566L25.2674 95.5795L22.3198 95.0585L22.0587 96.5356ZM25.0064 97.0566L24.9152 98.5538L27.8992 98.7355L27.9904 97.2383L28.0816 95.7411L25.0976 95.5593L25.0064 97.0566ZM27.9904 97.2383L27.7191 98.7135L30.7012 99.2621L30.9726 97.7868L31.2439 96.3116L28.2618 95.763L27.9904 97.2383ZM30.9726 97.7868L31.291 99.2526L34.2538 98.609L33.9354 97.1431L33.6169 95.6773L30.6541 96.321L30.9726 97.7868ZM33.9354 97.1431L34.0339 98.6399L37.0258 98.4429L36.9272 96.9461L36.8287 95.4494L33.8368 95.6464L33.9354 97.1431ZM36.9272 96.9461L37.3501 98.3853L40.2238 97.541L39.8009 96.1019L39.3781 94.6627L36.5044 95.5069L36.9272 96.9461ZM39.8009 96.1019L40.1096 97.5698L43.0724 96.9468L42.7637 95.4789L42.4551 94.011L39.4923 94.6339L39.8009 96.1019ZM42.7637 95.4789L43.3344 96.8661L46.1082 95.7251L45.5376 94.3379L44.967 92.9507L42.1931 94.0917L42.7637 95.4789ZM45.5376 94.3379L46.2134 95.677L48.7875 94.378L48.1118 93.0389L47.436 91.6997L44.8618 92.9987L45.5376 94.3379ZM48.1118 93.0389L48.9412 94.2887L51.4238 92.6411L50.5944 91.3913L49.7649 90.1415L47.2823 91.7891L48.1118 93.0389ZM50.5944 91.3913L51.5963 92.5076L53.8246 90.5077L52.8226 89.3914L51.8207 88.275L49.5925 90.275L50.5944 91.3913ZM52.8226 89.3914L53.7535 90.5676L56.1178 88.6964L55.1869 87.5202L54.256 86.344L51.8917 88.2151L52.8226 89.3914ZM55.1869 87.5202L56.3603 88.4546L58.2369 86.0981L57.0635 85.1636L55.8901 84.2292L54.0135 86.5858L55.1869 87.5202ZM57.0635 85.1636L58.4936 85.6163L59.1366 83.5848L57.7065 83.1322L56.2764 82.6795L55.6334 84.711L57.0635 85.1636ZM57.7065 83.1322L59.0105 82.3908L57.5185 79.7666L56.2145 80.5079L54.9105 81.2493L56.4025 83.8736L57.7065 83.1322ZM56.2145 80.5079L57.3148 79.4885L55.2608 77.2714L54.1604 78.2909L53.0601 79.3103L55.1142 81.5274L56.2145 80.5079ZM54.1604 78.2909L55.4525 77.5289L53.9222 74.9342L52.6302 75.6962L51.3381 76.4582L52.8684 79.0529L54.1604 78.2909ZM52.6302 75.6962L53.9512 74.9856L52.5315 72.3462L51.2105 73.0568L49.8895 73.7674L51.3092 76.4068L52.6302 75.6962ZM51.2105 73.0568L52.4576 72.2233L50.7871 69.724L49.54 70.5575L48.2929 71.3911L49.9634 73.8903L51.2105 73.0568ZM49.54 70.5575L50.8543 69.8345L49.4085 67.2067L48.0943 67.9298L46.7801 68.6529L48.2258 71.2806L49.54 70.5575ZM48.0943 67.9298L49.4979 67.4007L48.4321 64.5731L47.0285 65.1022L45.6249 65.6312L46.6907 68.4588L48.0943 67.9298ZM47.0285 65.1022L48.2479 64.2287L46.4769 61.7563L45.2575 62.6298L44.0381 63.5033L45.809 65.9757L47.0285 65.1022ZM45.2575 62.6298L46.6877 62.1777L45.7765 59.2955L44.3463 59.7476L42.9161 60.1998L43.8273 63.082L45.2575 62.6298ZM44.3463 59.7476L45.6896 59.0801L44.3502 56.3849L43.0069 57.0524L41.6637 57.72L43.003 60.4152L44.3463 59.7476ZM43.0069 57.0524L44.5059 57.107L44.6095 54.2625L43.1105 54.2079L41.6115 54.1533L41.5079 56.9978L43.0069 57.0524ZM43.1105 54.2079L44.6035 54.3525L44.891 51.3843L43.398 51.2397L41.905 51.0951L41.6175 54.0633L43.1105 54.2079ZM43.398 51.2397L44.8753 51.4998L45.4001 48.519L43.9229 48.2589L42.4456 47.9988L41.9207 50.9796L43.398 51.2397ZM43.9229 48.2589L45.4225 48.2277L45.3601 45.2233L43.8604 45.2545L42.3607 45.2857L42.4232 48.2901L43.9229 48.2589ZM43.8604 45.2545L45.3601 45.2836L45.4184 42.2834L43.9186 42.2542L42.4189 42.2251L42.3607 45.2254L43.8604 45.2545ZM43.9186 42.2542L45.4164 42.3367L45.5815 39.3373L44.0838 39.2548L42.5861 39.1723L42.4209 42.1718L43.9186 42.2542ZM44.0838 39.2548L45.5794 39.3696L45.8086 36.3826L44.313 36.2678L42.8174 36.1531L42.5882 39.1401L44.0838 39.2548ZM44.313 36.2678L45.773 36.612L46.4311 33.8201L44.9711 33.4759L43.5111 33.1318L42.853 35.9237L44.313 36.2678ZM44.9711 33.4759L46.3199 34.1322L47.6246 31.4508L46.2758 30.7945L44.9269 30.1382L43.6223 32.8197L44.9711 33.4759ZM46.2758 30.7945L47.6357 31.4274L48.9048 28.7003L47.5449 28.0674L46.185 27.4345L44.9158 30.1616L46.2758 30.7945ZM47.5449 28.0674L48.9375 28.6247L50.0585 25.8234L48.6658 25.2661L47.2732 24.7089L46.1523 27.5101L47.5449 28.0674ZM48.6658 25.2661L49.8925 26.1294L51.6296 23.6609L50.4029 22.7976L49.1762 21.9344L47.4391 24.4029L48.6658 25.2661ZM50.4029 22.7976L51.6815 23.5819L53.2495 21.0257L51.9709 20.2414L50.6923 19.4571L49.1243 22.0133L50.4029 22.7976ZM51.9709 20.2414L53.1778 21.1321L54.9607 18.7161L53.7537 17.8254L52.5467 16.9348L50.7639 19.3508L51.9709 20.2414ZM53.7537 17.8254L54.9479 18.7331L56.7663 16.3405L55.5721 15.4328L54.3779 14.5252L52.5595 16.9178L53.7537 17.8254ZM55.5721 15.4328L56.6954 16.4269L58.6837 14.1801L57.5604 13.1861L56.437 12.192L54.4488 14.4388L55.5721 15.4328ZM57.5604 13.1861L57.9736 14.628L60.6542 13.8599L60.241 12.4179L59.8278 10.9759L57.1472 11.7441L57.5604 13.1861ZM60.241 12.4179L59.1689 13.467L61.2707 15.6151L62.3428 14.566L63.415 13.517L61.3132 11.3689L60.241 12.4179ZM62.3428 14.566L61.2382 15.5808L63.2714 17.7939L64.376 16.7791L65.4806 15.7643L63.4475 13.5512L62.3428 14.566ZM64.376 16.7791L63.2084 17.7208L65.0982 20.0641L66.2658 19.1225L67.4334 18.1808L65.5436 15.8375L64.376 16.7791ZM66.2658 19.1225L65.0156 19.9513L66.6789 22.4601L67.9291 21.6312L69.1793 20.8023L67.516 18.2936L66.2658 19.1225ZM67.9291 21.6312L66.6285 22.3784L68.1262 24.9855L69.4269 24.2382L70.7275 23.491L69.2297 20.884L67.9291 21.6312ZM69.4269 24.2382L68.0395 24.8084L69.1857 27.5977L70.5732 27.0276L71.9606 26.4574L70.8143 23.6681L69.4269 24.2382ZM70.5732 27.0276L69.2411 27.7172L70.6191 30.3791L71.9512 29.6895L73.2832 28.9999L71.9052 26.338L70.5732 27.0276ZM71.9512 29.6895L70.6715 30.472L72.2403 33.0375L73.52 32.2549L74.7997 31.4723L73.2308 28.9069L71.9512 29.6895ZM73.52 32.2549L72.2024 32.9718L72.8958 34.2462L74.2134 33.5292L75.531 32.8123L74.8376 31.538L73.52 32.2549Z" fill="black"/>
<path d="M109.985 41.2176L108.497 41.0275L108.475 41.2019L108.494 41.3767L109.985 41.2176ZM110.284 44.0157L111.759 44.285L111.798 44.072L111.775 43.8566L110.284 44.0157ZM109.743 46.9788L108.267 46.7095L108.258 46.7606L108.252 46.8122L109.743 46.9788ZM109.409 49.9661L110.865 50.3264L110.889 50.2307L110.9 50.1327L109.409 49.9661ZM108.687 52.8862L110.058 53.4933L110.111 53.3736L110.143 53.2465L108.687 52.8862ZM107.467 55.6427L108.838 56.2506L108.838 56.2498L107.467 55.6427ZM106.252 58.3824L104.881 57.7746L104.879 57.7789L106.252 58.3824ZM105.041 61.1384L106.309 61.9394L106.369 61.8446L106.414 61.742L105.041 61.1384ZM103.434 63.6823L104.578 64.6522L104.646 64.5721L104.702 64.4833L103.434 63.6823ZM101.487 65.98L100.342 65.0101L100.251 65.1176L100.182 65.2401L101.487 65.98ZM99.9915 68.6166L101.073 69.6558L101.203 69.5201L101.296 69.3565L99.9915 68.6166ZM97.904 70.7892L96.8223 69.75L96.7992 69.7741L96.7771 69.7992L97.904 70.7892ZM95.9136 73.0547L96.8347 74.2387L96.9468 74.1515L97.0405 74.0447L95.9136 73.0547ZM93.5265 74.9118L92.6055 73.7278L92.3117 73.9564L92.1588 74.2957L93.5265 74.9118ZM92.7847 76.5586L92.3995 78.0083L93.6296 78.3352L94.1524 77.1747L92.7847 76.5586ZM109.998 41.1184L108.51 40.9283L108.497 41.0275L109.985 41.2176L111.473 41.4077L111.486 41.3085L109.998 41.1184ZM109.985 41.2176L108.494 41.3767L108.792 44.1748L110.284 44.0157L111.775 43.8566L111.477 41.0585L109.985 41.2176ZM110.284 44.0157L108.808 43.7464L108.267 46.7095L109.743 46.9788L111.219 47.2481L111.759 44.285L110.284 44.0157ZM109.743 46.9788L108.252 46.8122L107.918 49.7995L109.409 49.9661L110.9 50.1327L111.234 47.1454L109.743 46.9788ZM109.409 49.9661L107.953 49.6059L107.231 52.526L108.687 52.8862L110.143 53.2465L110.865 50.3264L109.409 49.9661ZM108.687 52.8862L107.315 52.2791L106.095 55.0356L107.467 55.6427L108.838 56.2498L110.058 53.4933L108.687 52.8862ZM107.467 55.6427L106.095 55.0349L104.881 57.7746L106.252 58.3824L107.624 58.9903L108.838 56.2506L107.467 55.6427ZM106.252 58.3824L104.879 57.7789L103.668 60.5348L105.041 61.1384L106.414 61.742L107.626 58.986L106.252 58.3824ZM105.041 61.1384L103.773 60.3374L102.166 62.8813L103.434 63.6823L104.702 64.4833L106.309 61.9394L105.041 61.1384ZM103.434 63.6823L102.29 62.7124L100.342 65.0101L101.487 65.98L102.631 66.9499L104.578 64.6522L103.434 63.6823ZM101.487 65.98L100.182 65.2401L98.6867 67.8766L99.9915 68.6166L101.296 69.3565L102.791 66.7199L101.487 65.98ZM99.9915 68.6166L98.9099 67.5773L96.8223 69.75L97.904 70.7892L98.9856 71.8285L101.073 69.6558L99.9915 68.6166ZM97.904 70.7892L96.7771 69.7992L94.7867 72.0647L95.9136 73.0547L97.0405 74.0447L99.0309 71.7792L97.904 70.7892ZM95.9136 73.0547L94.9926 71.8708L92.6055 73.7278L93.5265 74.9118L94.4475 76.0957L96.8347 74.2387L95.9136 73.0547ZM93.5265 74.9118L92.1588 74.2957L91.417 75.9426L92.7847 76.5586L94.1524 77.1747L94.8941 75.5278L93.5265 74.9118ZM92.7847 76.5586L93.1699 75.1089L93.1567 75.1054L92.7715 76.5551L92.3863 78.0048L92.3995 78.0083L92.7847 76.5586Z" fill="black"/>
<path d="M109.752 41.2395L109.565 42.7279L109.734 42.749L109.903 42.7319L109.752 41.2395ZM106.945 40.8882L107.132 39.3999L107.02 39.3859L106.908 39.3887L106.945 40.8882ZM103.931 40.9634L103.894 39.4639L103.707 39.4685L103.527 39.519L103.931 40.9634ZM101.029 41.7764L100.624 40.3319L100.613 40.3351L101.029 41.7764ZM98.1502 42.6064L98.4322 44.0797L98.4997 44.0668L98.5658 44.0477L98.1502 42.6064ZM95.198 43.1716L94.916 41.6983L94.8 41.7205L94.6889 41.7606L95.198 43.1716ZM92.5793 44.1165L92.0701 42.7056L91.7656 42.8154L91.5335 43.0412L92.5793 44.1165ZM90.4207 46.2156L91.3437 47.398L91.408 47.3478L91.4665 47.291L90.4207 46.2156ZM88.0508 48.0656L88.8632 49.3265L88.9202 49.2898L88.9738 49.248L88.0508 48.0656ZM85.5146 49.6996L84.7022 48.4386L84.5524 48.5351L84.4293 48.6641L85.5146 49.6996ZM83.4215 51.8931L84.2744 53.127L84.4007 53.0397L84.5067 52.9286L83.4215 51.8931ZM80.9454 53.6047L80.0925 52.3708L80.0451 52.4036L80.0003 52.4399L80.9454 53.6047ZM78.6078 55.5013L79.3429 56.8088L79.454 56.7464L79.5529 56.6661L78.6078 55.5013ZM76.0195 56.9564L75.2844 55.6489L74.8512 55.8924L74.6491 56.3464L76.0195 56.9564ZM74.801 59.6939L76.1435 60.3631L76.1581 60.3338L76.1714 60.3039L74.801 59.6939ZM73.4607 62.3826L74.8029 63.0523L74.8032 63.0518L73.4607 62.3826ZM72.1169 65.0759L73.2738 66.0307L73.3827 65.8987L73.4591 65.7456L72.1169 65.0759ZM70.1833 67.4188L69.0264 66.464L68.885 66.6353L68.7994 66.8401L70.1833 67.4188ZM69.0118 70.2204L70.2129 71.119L70.3241 70.9704L70.3957 70.7991L69.0118 70.2204ZM67.2069 72.6328L66.0059 71.7342L65.9509 71.8077L65.9053 71.8873L67.2069 72.6328ZM65.7137 75.2399L66.8622 76.2047L66.9486 76.1019L67.0153 75.9854L65.7137 75.2399ZM63.7676 77.5568L62.619 76.592L62.4808 76.7565L62.3944 76.9531L63.7676 77.5568ZM62.5461 80.3356L63.7723 81.1996L63.8588 81.0768L63.9193 80.9392L62.5461 80.3356ZM60.8258 82.7771L59.5996 81.9131L59.1451 82.5581L59.4192 83.2981L60.8258 82.7771ZM61.7588 85.2959L60.3522 85.8169L60.4616 86.1122L60.6805 86.3386L61.7588 85.2959ZM63.8357 87.444L64.9371 86.4257L64.9257 86.4134L64.9141 86.4013L63.8357 87.444ZM65.8856 89.6611L64.7843 90.6794L64.9234 90.8299L65.0979 90.9376L65.8856 89.6611ZM68.4529 91.2455L69.2438 89.9709L69.2407 89.969L68.4529 91.2455ZM71.0007 92.8264L72.0928 91.7982L71.9583 91.6553L71.7916 91.5519L71.0007 92.8264ZM72.9019 94.8457L71.8098 95.874L72.7194 96.84L73.7892 96.0551L72.9019 94.8457ZM109.851 41.2294L109.7 39.7371L109.601 39.7471L109.752 41.2395L109.903 42.7319L110.002 42.7218L109.851 41.2294ZM109.752 41.2395L109.938 39.7511L107.132 39.3999L106.945 40.8882L106.759 42.3766L109.565 42.7279L109.752 41.2395ZM106.945 40.8882L106.908 39.3887L103.894 39.4639L103.931 40.9634L103.969 42.4629L106.983 42.3878L106.945 40.8882ZM103.931 40.9634L103.527 39.519L100.624 40.332L101.029 41.7764L101.434 43.2208L104.336 42.4078L103.931 40.9634ZM101.029 41.7764L100.613 40.3351L97.7346 41.1652L98.1502 42.6064L98.5658 44.0477L101.445 43.2176L101.029 41.7764ZM98.1502 42.6064L97.8682 41.1332L94.916 41.6983L95.198 43.1716L95.48 44.6448L98.4322 44.0797L98.1502 42.6064ZM95.198 43.1716L94.6889 41.7606L92.0701 42.7056L92.5793 44.1165L93.0884 45.5275L95.7071 44.5825L95.198 43.1716ZM92.5793 44.1165L91.5335 43.0412L89.375 45.1403L90.4207 46.2156L91.4665 47.291L93.625 45.1919L92.5793 44.1165ZM90.4207 46.2156L89.4977 45.0332L87.1278 46.8831L88.0508 48.0656L88.9738 49.248L91.3437 47.398L90.4207 46.2156ZM88.0508 48.0656L87.2384 46.8046L84.7022 48.4386L85.5146 49.6996L86.327 50.9605L88.8632 49.3265L88.0508 48.0656ZM85.5146 49.6996L84.4293 48.6641L82.3363 50.8576L83.4215 51.8931L84.5067 52.9286L86.5998 50.7351L85.5146 49.6996ZM83.4215 51.8931L82.5685 50.6592L80.0925 52.3708L80.9454 53.6047L81.7983 54.8386L84.2744 53.127L83.4215 51.8931ZM80.9454 53.6047L80.0003 52.4399L77.6628 54.3365L78.6078 55.5013L79.5529 56.6661L81.8905 54.7696L80.9454 53.6047ZM78.6078 55.5013L77.8728 54.1938L75.2844 55.6489L76.0195 56.9564L76.7546 58.264L79.3429 56.8088L78.6078 55.5013ZM76.0195 56.9564L74.6491 56.3464L73.4307 59.084L74.801 59.6939L76.1714 60.3039L77.3899 57.5664L76.0195 56.9564ZM74.801 59.6939L73.4586 59.0247L72.1183 61.7133L73.4607 62.3826L74.8032 63.0518L76.1435 60.3631L74.801 59.6939ZM73.4607 62.3826L72.1185 61.7129L70.7747 64.4062L72.1169 65.0759L73.4591 65.7456L74.8029 63.0523L73.4607 62.3826ZM72.1169 65.0759L70.96 64.1211L69.0264 66.464L70.1833 67.4188L71.3402 68.3736L73.2738 66.0307L72.1169 65.0759ZM70.1833 67.4188L68.7994 66.8401L67.6279 69.6418L69.0118 70.2204L70.3957 70.7991L71.5672 67.9975L70.1833 67.4188ZM69.0118 70.2204L67.8108 69.3218L66.0059 71.7342L67.2069 72.6328L68.408 73.5314L70.2129 71.119L69.0118 70.2204ZM67.2069 72.6328L65.9053 71.8873L64.412 74.4944L65.7137 75.2399L67.0153 75.9854L68.5085 73.3783L67.2069 72.6328ZM65.7137 75.2399L64.5651 74.2751L62.619 76.592L63.7676 77.5568L64.9161 78.5215L66.8622 76.2047L65.7137 75.2399ZM63.7676 77.5568L62.3944 76.9531L61.1729 79.732L62.5461 80.3356L63.9193 80.9392L65.1407 78.1604L63.7676 77.5568ZM62.5461 80.3356L61.3199 79.4716L59.5996 81.9131L60.8258 82.7771L62.052 83.641L63.7723 81.1996L62.5461 80.3356ZM60.8258 82.7771L59.4192 83.2981L60.3522 85.8169L61.7588 85.2959L63.1654 84.7749L62.2324 82.256L60.8258 82.7771ZM61.7588 85.2959L60.6805 86.3386L62.7574 88.4866L63.8357 87.444L64.9141 86.4013L62.8372 84.2533L61.7588 85.2959ZM63.8357 87.444L62.7343 88.4623L64.7843 90.6794L65.8856 89.6611L66.987 88.6428L64.9371 86.4257L63.8357 87.444ZM65.8856 89.6611L65.0979 90.9376L67.6652 92.522L68.4529 91.2455L69.2407 89.969L66.6734 88.3846L65.8856 89.6611ZM68.4529 91.2455L67.662 92.52L70.2098 94.101L71.0007 92.8264L71.7916 91.5519L69.2438 89.9709L68.4529 91.2455ZM71.0007 92.8264L69.9086 93.8547L71.8098 95.874L72.9019 94.8457L73.994 93.8174L72.0928 91.7982L71.0007 92.8264ZM72.9019 94.8457L73.7892 96.0551L73.9919 95.9065L73.1046 94.697L72.2173 93.4876L72.0147 93.6363L72.9019 94.8457Z" fill="black"/>
<path d="M93.5827 43.0549L95.0821 43.0139L95.0802 42.9443L95.0719 42.8752L93.5827 43.0549ZM93.2352 40.1753L91.7424 40.0278L91.7262 40.1916L91.746 40.3551L93.2352 40.1753ZM93.5316 37.1763L95.0244 37.3238L95.038 37.186L95.0261 37.0479L93.5316 37.1763ZM93.2739 34.1762L91.7776 34.2815L91.7784 34.2931L91.7794 34.3046L93.2739 34.1762ZM93.0637 31.1878L91.5646 31.2377L91.5655 31.2654L91.5674 31.293L93.0637 31.1878ZM92.964 28.19L94.4631 28.1401L94.458 27.9873L94.4222 27.8387L92.964 28.19ZM92.2615 25.2737L93.7198 24.9225L93.5635 24.2737L92.977 23.9554L92.2615 25.2737ZM90.0691 24.0838L90.7846 22.7655L90.2602 22.4809L89.6836 22.6342L90.0691 24.0838ZM87.217 24.8423L86.8315 23.3927L86.7444 23.4158L86.6608 23.4492L87.217 24.8423ZM84.4104 25.9629L83.8542 24.5698L83.6101 24.6673L83.4136 24.842L84.4104 25.9629ZM82.1444 27.9781L82.9847 29.2206L83.0669 29.165L83.1412 29.099L82.1444 27.9781ZM79.6609 29.6576L78.8206 28.4151L78.7371 28.4715L78.6619 28.5387L79.6609 29.6576ZM77.4193 31.6589L78.1782 32.9528L78.3069 32.8773L78.4182 32.7779L77.4193 31.6589ZM74.8214 33.1828L74.0624 31.889L73.5127 32.2114L73.3632 32.8309L74.8214 33.1828ZM74.1682 35.8893L72.7101 35.5374L72.6528 35.775L72.6738 36.0185L74.1682 35.8893ZM74.427 38.8835L72.9326 39.0126L72.9352 39.0433L72.9391 39.0738L74.427 38.8835ZM74.808 41.8623L76.3042 41.9694L76.3149 41.8202L76.2959 41.672L74.808 41.8623ZM74.5912 44.8924L73.095 44.7853L73.0778 45.0253L73.1366 45.2586L74.5912 44.8924ZM75.3326 47.8373L76.8321 47.8004L76.828 47.6333L76.7872 47.4711L75.3326 47.8373ZM75.4067 50.8455L73.9072 50.8824L73.91 50.999L73.9309 51.1138L75.4067 50.8455ZM75.9435 53.7982L77.4386 53.6771L77.4326 53.603L77.4193 53.5299L75.9435 53.7982ZM76.1573 56.4368L74.6622 56.558L74.8411 58.7659L76.8248 57.7801L76.1573 56.4368ZM93.5854 43.1549L95.0848 43.1139L95.0821 43.0139L93.5827 43.0549L92.0832 43.096L92.086 43.1959L93.5854 43.1549ZM93.5827 43.0549L95.0719 42.8752L94.7243 39.9956L93.2352 40.1753L91.746 40.3551L92.0935 43.2347L93.5827 43.0549ZM93.2352 40.1753L94.7279 40.3229L95.0244 37.3238L93.5316 37.1763L92.0389 37.0287L91.7424 40.0278L93.2352 40.1753ZM93.5316 37.1763L95.0261 37.0479L94.7684 34.0479L93.2739 34.1762L91.7794 34.3046L92.0371 37.3047L93.5316 37.1763ZM93.2739 34.1762L94.7702 34.071L94.56 31.0826L93.0637 31.1878L91.5674 31.293L91.7776 34.2815L93.2739 34.1762ZM93.0637 31.1878L94.5629 31.1379L94.4631 28.1401L92.964 28.19L91.4648 28.2399L91.5646 31.2377L93.0637 31.1878ZM92.964 28.19L94.4222 27.8387L93.7198 24.9225L92.2615 25.2737L90.8032 25.625L91.5057 28.5413L92.964 28.19ZM92.2615 25.2737L92.977 23.9554L90.7846 22.7655L90.0691 24.0838L89.3536 25.4022L91.546 26.5921L92.2615 25.2737ZM90.0691 24.0838L89.6836 22.6342L86.8315 23.3927L87.217 24.8423L87.6025 26.2919L90.4546 25.5334L90.0691 24.0838ZM87.217 24.8423L86.6608 23.4492L83.8542 24.5698L84.4104 25.9629L84.9666 27.356L87.7732 26.2353L87.217 24.8423ZM84.4104 25.9629L83.4136 24.842L81.1476 26.8572L82.1444 27.9781L83.1412 29.099L85.4072 27.0838L84.4104 25.9629ZM82.1444 27.9781L81.3041 26.7355L78.8206 28.4151L79.6609 29.6576L80.5012 30.9001L82.9847 29.2206L82.1444 27.9781ZM79.6609 29.6576L78.6619 28.5387L76.4203 30.54L77.4193 31.6589L78.4182 32.7779L80.6599 30.7765L79.6609 29.6576ZM77.4193 31.6589L76.6603 30.3651L74.0624 31.889L74.8214 33.1828L75.5803 34.4766L78.1782 32.9528L77.4193 31.6589ZM74.8214 33.1828L73.3632 32.8309L72.7101 35.5374L74.1682 35.8893L75.6264 36.2412L76.2795 33.5347L74.8214 33.1828ZM74.1682 35.8893L72.6738 36.0185L72.9326 39.0126L74.427 38.8835L75.9214 38.7543L75.6627 35.7602L74.1682 35.8893ZM74.427 38.8835L72.9391 39.0738L73.3201 42.0526L74.808 41.8623L76.2959 41.672L75.9149 38.6932L74.427 38.8835ZM74.808 41.8623L73.3118 41.7552L73.095 44.7853L74.5912 44.8924L76.0873 44.9995L76.3042 41.9694L74.808 41.8623ZM74.5912 44.8924L73.1366 45.2586L73.878 48.2036L75.3326 47.8373L76.7872 47.4711L76.0458 44.5262L74.5912 44.8924ZM75.3326 47.8373L73.8331 47.8743L73.9072 50.8824L75.4067 50.8455L76.9062 50.8086L76.8321 47.8004L75.3326 47.8373ZM75.4067 50.8455L73.9309 51.1138L74.4677 54.0665L75.9435 53.7982L77.4193 53.5299L76.8825 50.5772L75.4067 50.8455ZM75.9435 53.7982L74.4484 53.9194L74.6622 56.558L76.1573 56.4368L77.6524 56.3157L77.4386 53.6771L75.9435 53.7982ZM76.1573 56.4368L76.8248 57.7801L77.0263 57.6799L76.3588 56.3367L75.6913 54.9934L75.4898 55.0935L76.1573 56.4368Z" fill="black"/>
<path d="M44.4862 33.4693L45.3633 32.2524L45.3335 32.231L45.3028 32.211L44.4862 33.4693ZM42.0532 31.8902L41.0287 32.9859L41.1255 33.0764L41.2366 33.1485L42.0532 31.8902ZM39.8518 29.8319L40.8762 28.7362L40.7658 28.633L40.6369 28.5538L39.8518 29.8319ZM37.2845 28.2548L36.4961 29.5309L36.4993 29.5329L37.2845 28.2548ZM34.7383 26.6818L33.9209 27.9395L33.9353 27.9489L33.9499 27.9579L34.7383 26.6818ZM32.224 25.0476L33.0414 23.7899L32.9003 23.6982L32.7423 23.64L32.224 25.0476ZM29.4121 24.0122L29.9305 22.6046L29.4132 22.4142L28.8956 22.604L29.4121 24.0122ZM27.0047 24.8953L26.4881 23.487L25.7841 23.7452L25.5682 24.4633L27.0047 24.8953ZM26.1532 27.7267L24.7167 27.2947L24.6996 27.3517L24.687 27.4099L26.1532 27.7267ZM25.5158 30.6767L24.0496 30.3599L23.9999 30.5898L24.023 30.824L25.5158 30.6767ZM25.8138 33.6955L27.3112 33.7824L27.318 33.6651L27.3065 33.5482L25.8138 33.6955ZM25.6398 36.6917L24.1423 36.6048L24.1371 36.694L24.1426 36.7832L25.6398 36.6917ZM25.8229 39.6907L27.3107 39.8816L27.3288 39.7409L27.3201 39.5993L25.8229 39.6907ZM25.4384 42.6879L23.9506 42.497L23.9422 42.5626L23.9396 42.6287L25.4384 42.6879ZM44.5673 33.5277L45.4444 32.3109L45.3633 32.2524L44.4862 33.4693L43.6091 34.6861L43.6902 34.7446L44.5673 33.5277ZM44.4862 33.4693L45.3028 32.211L42.8698 30.632L42.0532 31.8902L41.2366 33.1485L43.6696 34.7275L44.4862 33.4693ZM42.0532 31.8902L43.0776 30.7946L40.8762 28.7362L39.8518 29.8319L38.8273 30.9276L41.0287 32.9859L42.0532 31.8902ZM39.8518 29.8319L40.6369 28.5538L38.0696 26.9767L37.2845 28.2548L36.4993 29.5329L39.0666 31.11L39.8518 29.8319ZM37.2845 28.2548L38.0728 26.9786L35.5267 25.4057L34.7383 26.6818L33.9499 27.9579L36.4961 29.5309L37.2845 28.2548ZM34.7383 26.6818L35.5557 25.4241L33.0414 23.7899L32.224 25.0476L31.4066 26.3053L33.9209 27.9395L34.7383 26.6818ZM32.224 25.0476L32.7423 23.64L29.9305 22.6046L29.4121 24.0122L28.8938 25.4198L31.7057 26.4552L32.224 25.0476ZM29.4121 24.0122L28.8956 22.604L26.4881 23.487L27.0047 24.8953L27.5212 26.3035L29.9287 25.4205L29.4121 24.0122ZM27.0047 24.8953L25.5682 24.4633L24.7167 27.2947L26.1532 27.7267L27.5897 28.1586L28.4411 25.3272L27.0047 24.8953ZM26.1532 27.7267L24.687 27.4099L24.0496 30.3599L25.5158 30.6767L26.982 30.9934L27.6194 28.0435L26.1532 27.7267ZM25.5158 30.6767L24.023 30.824L24.321 33.8428L25.8138 33.6955L27.3065 33.5482L27.0085 30.5293L25.5158 30.6767ZM25.8138 33.6955L24.3163 33.6086L24.1423 36.6048L25.6398 36.6917L27.1373 36.7787L27.3112 33.7824L25.8138 33.6955ZM25.6398 36.6917L24.1426 36.7832L24.3257 39.7821L25.8229 39.6907L27.3201 39.5993L27.137 36.6003L25.6398 36.6917ZM25.8229 39.6907L24.3351 39.4998L23.9506 42.497L25.4384 42.6879L26.9262 42.8788L27.3107 39.8816L25.8229 39.6907ZM25.4384 42.6879L23.9396 42.6287L23.9211 43.0956L25.4199 43.1549L26.9188 43.2141L26.9372 42.7472L25.4384 42.6879Z" fill="black"/>
</svg>
