<svg width="120" height="120" viewBox="0 0 120 120" fill="none" xmlns="http://www.w3.org/2000/svg">
<path d="M58.5903 14.4082L61.1685 14.4434H61.3442L61.5083 14.4785L64.0513 15.0996L64.3442 15.1699L64.5903 15.3574L66.6997 16.9395L66.9458 17.1152L67.0981 17.3848L68.4106 19.6348L68.4927 19.7637L68.5396 19.916L69.3481 22.377L69.4067 22.5645L69.4185 22.7754L69.5356 25.4238L69.5591 25.834L69.3716 26.1855L68.1411 28.541L68.0708 28.6699L67.9653 28.7871L66.3716 30.7441L65.3638 29.9121L65.1997 29.9004L63.7114 29.7129L63.77 29.1855L64.0513 28.8457L65.563 26.9824L66.5122 25.166L66.4185 23.127L65.7388 21.0059L64.6489 19.1426L63.0435 17.9355L60.981 17.4316L58.7427 17.4082L56.7622 17.8652L55.356 19.4238L54.0786 21.1816L53.7036 23.2676L53.6333 25.4355L54.4888 27.2402L55.9536 28.7871L56.8794 29.7598L56.0122 30.791L55.9536 30.8613L54.8052 29.9004L54.7935 29.8887L53.7856 30.8613L52.1685 29.1621L52.0044 28.9863L51.8989 28.7754L50.7622 26.3848L50.6099 26.0566L50.6216 25.6816L50.7153 23.0684L50.7388 22.8574L51.1958 20.3262L51.2544 19.9863L51.4536 19.7051L52.9653 17.6074L53.0122 17.5371L53.0708 17.4785L54.8638 15.5098L55.1802 15.1582L55.6372 15.0527L58.2271 14.4434L58.4028 14.4082H58.5903Z" fill="black"/>
<path d="M31.438 58.3691L33.981 59.1074L34.0864 59.1426L34.1919 59.1895L36.4653 60.2441L38.6685 60.8301L41.7739 61.0762L39.6177 63.3613L39.4888 63.4785L38.3872 65.6465L37.1685 67.9902L37.1216 68.0957L37.0513 68.1895L35.4927 70.334L35.3521 70.5215L35.1528 70.6621L33.6177 71.7871L32.9497 72.2676L32.188 71.9629L29.8794 71.0488L27.3599 70.5332L27.1255 70.4863L26.9146 70.3691L24.606 69.0449L24.4771 68.9629L24.3599 68.8574L23.0591 67.709L22.0513 66.8066L22.8481 65.7051L24.4067 63.5605L24.4419 63.5254L24.4771 63.4785L26.188 61.4629L26.2231 61.4277L26.2583 61.3809L28.1216 59.4941L28.3442 59.2832L28.6255 59.166L30.4536 58.416L30.9341 58.2285L31.438 58.3691ZM30.0317 61.8262L28.4028 63.4902L26.7622 65.4238L26.0708 66.3613L26.2349 66.5137L28.2153 67.6504L30.5825 68.1309L30.7114 68.1543L30.8403 68.2012L32.5161 68.8691L33.1958 68.3652L34.5669 66.4902L35.7153 64.2637L36.2075 63.291L35.5864 63.127L35.4458 63.0918L35.3286 63.0332L33.0317 61.9551L31.0981 61.3926L30.0317 61.8262Z" fill="black"/>
<path d="M24.3677 65.9429L26.77 66.939L29.2075 67.6538L29.3247 67.689L29.4419 67.7476L31.7036 68.8491L32.9575 69.189L35.2192 65.8843V72.9624L34.2231 72.6694L34.0239 72.9507L32.9341 75.2593L32.9224 75.271L32.9106 75.2944L31.7036 77.6382L30.4966 79.9937L29.9224 81.0835L28.7505 80.7437L26.4302 80.0874L26.4185 80.0757L23.8872 79.3374L23.7817 79.3022L23.6763 79.2554L21.4028 78.1772L18.9536 77.5327L18.7192 77.4741L18.52 77.3452L16.2935 75.8804L14.7935 74.9077L16.0122 73.6069L17.6294 71.8726L19.1411 69.7983L19.1763 69.7515L19.2114 69.7163L20.9224 67.7007L21.0161 67.5835L21.145 67.4897L22.8677 66.1421L23.5591 65.6147L24.3677 65.9429ZM23.1021 69.7515L21.5552 71.5562L21.5669 71.5679L20.0083 73.7124L19.9614 73.7827L19.8911 73.853L19.4224 74.3452L19.9614 74.6968L22.3052 75.3179L22.4341 75.353L22.563 75.4116L24.8599 76.4897L27.2622 77.2046H27.2505L28.3755 77.521L29.0317 76.2671L30.2388 73.9233L31.2349 71.8257L30.7661 71.6968L30.6372 71.6616L30.5083 71.603L28.27 70.5015L25.8091 69.7749L25.6685 69.728L24.0161 69.0483L23.1021 69.7515Z" fill="black"/>
<path d="M38.9224 50.6895L41.231 51.6855L42.4849 51.9785L42.6724 51.6035L44.0552 52.3652L44.0669 52.377L47.8521 54.4863L44.313 55.0371L43.8442 55.998L43.7856 56.1152L43.7153 56.209L42.2271 58.248L41.1606 60.5098L41.1255 60.5918L41.0786 60.6738L39.6724 62.9121L39.1567 63.7207L38.2075 63.6035L35.8638 63.3105L35.6177 63.2754L35.395 63.1699L33.0044 62.0215V62.0098L30.6372 61.002L29.9458 60.709L29.77 59.9707L29.4302 58.541L29.2544 57.8027L29.7466 57.2285L31.4575 55.2129L31.5396 55.1309L33.3091 53.3262L34.9028 51.2988L35.313 50.7715L35.981 50.7246L38.2192 50.5605L38.5825 50.5371L38.9224 50.6895ZM36.8481 53.666L35.6411 55.2246L35.5942 55.2949L35.5356 55.3535L33.6724 57.2402L32.5474 58.5527L34.2466 59.291L34.27 59.3027L34.3052 59.3145L36.4849 60.3574L37.6333 60.498L38.4653 59.1621L39.5786 56.8418L39.6372 56.7129L39.7192 56.5957L41.0786 54.7324L40.4106 54.5801L40.27 54.5566L40.1528 54.498L38.0552 53.584L36.8481 53.666Z" fill="black"/>
<path d="M17.4141 73.5449L19.6172 74.5293L19.6055 74.541L21.9375 75.4785L24.4336 76.2402L24.5508 76.2754L24.668 76.334L26.9297 77.4473L29.2266 78.1152L29.3086 78.1387L29.3789 78.1621L29.4727 78.209L29.168 79.791L30.0234 80.0957L29.1445 82.627L29.0508 82.873L28.8867 83.0723L27.293 85.0293L26.25 87.2441L26.1094 87.5371L25.8633 87.7363L23.6484 89.623L22.8516 89.3652L20.3438 88.5566L20.2031 88.5215L20.0859 88.4512L17.9062 87.2676L15.4688 86.4121L15.3633 86.377L15.2695 86.3184L13.0547 85.1348L10.6406 84.373L9.15234 83.9043L9.67969 82.4512L10.3594 80.5293L10.4531 80.248L10.6523 80.0254L12.375 78.0918L13.875 76.041L13.9453 75.9473L15.6562 73.9316L16.3828 73.0762L17.4141 73.5449ZM16.2305 77.8926L14.7422 79.9434L14.6484 80.0605L13.0781 81.8066L13.0195 81.9707L14.0977 82.3223L14.2266 82.3691L14.3438 82.4277L16.5586 83.6113L18.9609 84.4551L19.0664 84.4902L19.1719 84.5488L21.4102 85.7559L22.9688 86.2598L23.6836 85.6387L24.6797 83.5645L24.7617 83.4004L24.8672 83.2598L26.3906 81.3848L26.6953 80.5059L25.957 80.2949L25.8281 80.2598L25.6992 80.2012L23.4258 79.0645L21.0234 78.3379L20.9531 78.3145L20.8945 78.291L18.4336 77.2949L18.3867 77.2715L17.2031 76.7324L16.2305 77.8926Z" fill="black"/>
<path d="M67.0952 29.7231L67.189 29.8169L67.271 29.9341L68.6421 32.0317L70.3882 33.8481L70.4468 33.9067L70.5054 33.9771L71.9937 35.9575L73.9155 37.5864L74.0679 37.7271L74.1851 37.9028L75.5679 40.0122L77.1265 41.9692L78.9663 43.8677L79.0132 43.9028L79.0483 43.9497L80.7358 45.9653L80.8062 46.0591L82.3062 48.1333L84.0288 50.02L84.9077 50.9927L84.0757 52.0005L82.9507 53.3364L82.6108 53.7466L82.0952 53.8521L79.564 54.356L77.1265 55.0474L76.7632 53.7466L76.6694 53.688L75.4038 52.8794L75.4507 52.7974L75.7671 52.3169L76.3179 52.1528L78.7905 51.4731L78.8374 51.4497L78.896 51.438L80.8765 51.0278L80.0327 50.1021L79.9155 49.9614L78.439 47.8989L76.7397 45.8716V45.8599L74.9702 44.0669L74.8765 43.9497L73.2241 41.8872L73.189 41.8286L73.1538 41.7817L71.8179 39.7427L69.9312 38.1372L69.8022 38.0317L69.7085 37.9028L68.1733 35.8755L66.3921 34.0239L66.2983 33.9185L66.2163 33.8013L64.8687 31.7271L64.1069 30.9302L66.2866 28.8677L67.0952 29.7231Z" fill="black"/>
<path d="M55.9531 30.8716L55.9297 30.895L54.3711 32.8989L54.3008 32.9927L54.2188 33.0747L52.4375 34.7739L50.9961 36.8599L50.9492 36.9302L49.3203 39.0161L49.2734 39.0864L49.2031 39.145L47.3516 41.0317L45.7109 42.9653L44.2227 45.0161L44.1289 45.1333L42.3711 47.1021L42.2773 47.1958L40.4961 48.8481L39.3359 50.7817L40.1094 50.9927L40.2148 51.0161L40.2969 51.0513L42.5938 52.0239L43.6016 52.2114L43.0625 55.1646L41.8906 54.9419L41.7266 54.9185L41.5742 54.8481L39.2539 53.8638L36.7812 53.1958L35.0117 52.7036L35.832 51.0747L36.5938 49.5396L36.6172 49.4927L36.6523 49.4458L38.0234 47.1489L38.1289 46.9614L38.2812 46.8208L40.1562 45.0513L41.8438 43.1763L43.3555 41.1021L43.3906 41.0669L43.4258 41.02L45.1367 39.0044L45.1719 38.9692L45.207 38.9224L47.0234 37.0708L48.5234 35.1606L50.0352 32.9692L50.1172 32.8521L50.2344 32.7466L52.0391 31.0005L53.5508 29.0552L53.5742 29.0317L53.5859 29.0083L53.6562 28.9263L55.9531 30.8716Z" fill="black"/>
<path d="M11.9336 81.2129L14.0312 82.6191L16.1992 83.7207L18.6602 84.5762L18.7305 84.5996L21.1797 85.584L21.2148 85.5957L21.2383 85.6074L23.6523 86.6973L24.4023 87.0371L24.5195 87.8457L24.7422 89.3457L24.8125 89.7676L24.6367 90.1543L23.5703 92.5918L23.5117 92.7324L23.4297 92.8496L21.9883 94.8887L21.1562 96.4824L22.6328 99.2598L19.2695 98.3223L17.957 97.959L17.8398 97.9238L17.7227 97.8652L15.4961 96.7988L13.0469 96.2949L12.7656 96.2363L12.5312 96.0723L10.3984 94.6777L8.11328 93.7871L8.06641 93.7754L8.03125 93.752L5.62891 92.6504L5.57031 92.6152L5.5 92.5801L3.25 91.2793L1.49219 90.2598L2.98047 88.877L4.79688 87.1895L6.30859 85.1504L6.42578 85.0098L8.23047 83.0879L8.30078 83.0176L10.082 81.3652L10.9492 80.5566L11.9336 81.2129ZM10.3516 85.209L8.66406 87.002L7.15234 89.0527L7.07031 89.1699L6.96484 89.2637L6.49609 89.6855L6.91797 89.9316L9.23828 91.0098L11.6641 91.959L11.8047 92.0059L11.9336 92.0996L13.9375 93.4004L16.2812 93.8926L16.457 93.9395L16.6211 94.0098L18.5781 94.9473L19.3398 93.4824L19.3867 93.3887L19.4453 93.2949L20.8984 91.209L21.707 89.3457L21.6719 89.0879L20.0664 88.3613L17.6758 87.4121L15.1797 86.5449L15.0859 86.5098L14.9922 86.4629L12.6367 85.2793L12.4727 85.1855L11.2422 84.3652L10.3516 85.209Z" fill="black"/>
<path d="M108.741 81.5962L110.687 81.9946L111.167 82.0884L111.495 82.4634L113.265 84.4204L113.347 84.5024L113.405 84.6079L114.776 86.7056L116.534 88.522L117.53 89.5532L116.534 90.5962L115.339 91.8384L115.257 91.9321L115.151 92.0024L112.995 93.5962L112.808 93.7251L112.585 93.8071L110.065 94.6509L107.757 95.5767L105.425 96.7368L105.354 96.772L105.284 96.7954L102.812 97.7095L102.671 97.7563L100.116 98.4243L98.124 98.9399L98.2295 96.9009L98.2881 95.5181L97.0811 93.772L96.999 93.6548L96.9404 93.5142L95.9326 91.147L94.667 89.0962L94.6787 89.0845L94.6201 89.0142L93.0615 86.5063L96.0146 86.729H96.0498L98.1709 85.8618L98.2529 85.8267L98.335 85.8032L100.69 85.1235L102.741 83.811L102.94 83.6821L103.175 83.6235L105.565 82.9907L107.687 81.772L108.179 81.479L108.741 81.5962ZM106.901 85.6978L106.726 85.7915L106.526 85.8501L104.136 86.4712L102.108 87.7837L101.921 87.9126L101.71 87.9712L99.2256 88.6626L98.1826 89.0962L98.5576 89.6938L98.6162 89.7876L98.6514 89.8931L99.624 92.1782L101.065 94.2524L101.347 94.6743L101.323 95.0024L101.851 94.8618L104.147 94.0063L106.479 92.8696L106.526 92.8462L106.573 92.8345L109.022 91.8384L109.058 91.8267L109.104 91.8032L111.39 91.0298L113.288 89.647L113.37 89.5532L112.538 88.686L112.433 88.5923L112.362 88.4751L110.968 86.354L109.597 84.8306L108.694 84.6431L106.901 85.6978Z" fill="black"/>
<path d="M105.154 74.5923L106.607 76.7837L108.13 78.7056L109.935 80.5454L110.673 81.3188L110.193 82.2681L109.408 83.8267L109.162 84.3423L106.173 85.5376L103.958 86.6392L101.626 87.8931L101.474 87.9751L101.298 88.022L98.9077 88.6548L96.5405 89.5688L96.5522 89.5806L96.4702 89.6157L92.3804 91.2798L94.2202 88.104L93.189 86.8267L93.0249 86.6274L92.9429 86.3813L92.1226 84.0259L90.7866 81.9399L90.5991 81.6235L90.564 81.2603L90.3999 79.4907L90.2944 78.3657L91.3491 77.9556L93.8218 77.0063L93.9038 76.9712L93.9858 76.9478L96.3999 76.3384L98.6265 75.2251L98.6851 75.1899L98.7319 75.1665L101.193 74.1704L101.416 74.0767L101.662 74.0649L103.794 73.9243L104.673 73.8657L105.154 74.5923ZM102.095 77.0298L99.9741 77.8853L99.9858 77.897L97.6187 79.0923L97.4663 79.1743L97.3022 79.2095L94.7593 79.854L93.4819 80.3345L93.5171 80.6274L94.7476 82.5493L94.8413 82.6899L94.8999 82.8657L95.6851 85.1509L96.6343 86.311L97.8062 85.8657L97.8882 85.8306L97.9702 85.8071L100.361 85.1626L102.552 84.0024L102.576 83.9907L102.587 83.979L104.943 82.7954L105.06 82.7485L106.982 81.9634L107.029 81.8696L105.939 80.7446L105.88 80.6978L105.833 80.6392L104.193 78.5767L104.146 78.5181L104.111 78.4595L103.115 76.9595L102.095 77.0298Z" fill="black"/>
<path d="M84.8491 51.123L86.7007 53.0215L86.7358 53.0566L86.771 53.1035L88.4702 55.1309L88.5054 55.166L88.5405 55.2129L90.0874 57.3691L90.3452 57.7324L90.3687 58.1777L90.4155 59.584L90.4624 60.5449L89.6069 60.9785L87.2515 62.1973L87.0874 62.291L86.8999 62.3262L84.3101 62.9355L84.2983 62.9238L82.2476 63.6035L82.2124 63.6387L82.2007 63.6152L82.0249 63.6855L81.814 63.041L81.3687 62.3848L80.2202 63.1113L79.2476 61.541L79.1772 61.4355L79.1304 61.3184L78.1694 58.9746L76.8218 56.877L76.7749 56.8066L76.7397 56.7246L75.5679 54.3457L74.8647 52.9043L76.3647 52.2949L78.4858 51.4512L78.6147 51.3926L78.7671 51.3691L81.3687 50.877L81.4507 50.8652L81.521 50.8535L83.6538 50.6777L84.3569 50.6191L84.8491 51.123ZM81.8257 53.8301L79.4585 54.2871L78.978 54.4863L79.3882 55.3301L80.7827 57.4746L80.853 57.5918L80.9116 57.7207L81.8608 60.0762L82.1187 60.4863L83.5132 60.041L83.5718 60.0176L83.6421 60.0059L86.0327 59.4434L87.3804 58.752V58.7402L86.103 56.9707V56.959L84.5444 55.1191L83.1851 53.7129L81.8257 53.8301Z" fill="black"/>
<path d="M91.1396 58.4512L92.5928 60.291L94.4443 62.1895L94.4795 62.2363L94.5146 62.2715L96.2139 64.2988L96.2959 64.4043L96.3662 64.5215L97.3389 66.2324L98.124 67.6035L96.7178 68.3184L94.374 69.5137L94.3623 69.502L92.042 70.7324L91.8779 70.8262L91.7021 70.8613L89.1943 71.4824L86.9443 72.291L86.9561 72.3027L85.2803 73.1348L84.8232 71.3184L84.7881 71.1543L83.5459 69.0918L82.1865 66.8184L82.1279 66.7246L82.0811 66.6191L81.085 64.1582L80.9561 63.8535L80.9678 63.5371L81.0264 62.0605L81.0615 60.9355L82.1396 60.6543L84.4951 60.0449L86.6748 58.8262L86.8271 58.7441L86.9912 58.6855L89.5459 57.9473L90.5068 57.666L91.1396 58.4512ZM88.0107 61.5098L85.8193 62.752L85.6553 62.8457L85.4678 62.8926L83.9678 63.2793V63.3027L84.7998 65.3418L86.124 67.5449L87.0381 69.0684L88.2568 68.6348L88.3271 68.6113L88.4092 68.5879L90.8115 67.9902L93.0029 66.8418H93.0146L93.9521 66.3613L93.7998 66.0918L92.2881 64.2871L90.4482 62.3887L90.3896 62.3301L89.4053 61.0996L88.0107 61.5098Z" fill="black"/>
<path d="M96.5513 65.8843L98.4731 67.2202L98.6489 67.3491L98.7896 67.5249L100.395 69.5288L102.188 71.3687L102.223 71.4155L102.258 71.4507L103.958 73.478L105.118 74.8608L103.536 75.7515L101.555 76.8647L101.532 76.8765L101.497 76.8882L99.1646 78.0601L96.8325 79.314L96.6802 79.396L96.5044 79.4429L94.0435 80.064L91.7231 80.9546L91.7114 80.9429L91.6528 80.978L89.5903 81.8218V79.6655L89.2271 78.7866L87.856 76.6538L87.8442 76.6421L87.8325 76.6187L85.1138 72.0952L84.1997 70.5601L85.8638 69.9155L87.9849 69.1069L90.3638 68.0757L90.4224 68.0522L90.481 68.0405L92.7661 67.2554L94.8638 65.8726L95.7075 65.3101L96.5513 65.8843ZM94.3013 69.8569L94.1372 69.9624L93.9497 70.021L91.4771 70.853L89.1216 71.8843L89.0864 71.896L89.063 71.9077L88.606 72.0718L89.0513 72.8101L90.3872 75.0366L91.8169 77.2632L91.8872 77.3804L91.981 77.6382L93.0239 77.2515L93.106 77.2163L93.188 77.1929L95.5786 76.5718L97.77 75.4116H97.7817L97.7935 75.3999L100.09 74.2397L100.489 74.0054L100.032 73.4663L98.1919 71.5679L98.1333 71.5093L96.5864 69.5757L95.6724 68.9312L94.3013 69.8569Z" fill="black"/>
<path d="M29.6489 78.0352L31.9224 79.0312L34.4185 79.7812L36.8794 80.1797L36.9146 80.1914H36.9497L39.5278 80.7422L39.563 80.7539H39.5981L42.1646 81.4336L43.0669 81.668L43.2544 82.5938L43.5708 84.1992L43.6294 84.4922L43.5708 84.7734L43.0786 87.3867L43.0552 87.5273L42.9966 87.668L42.0005 90.0703L41.4146 92.3906L40.4536 92.1328L40.1724 92.1211L39.9731 93.6211H38.3911L38.4028 93.2344L37.2896 92.9062L34.7935 92.8477L34.5122 92.8359L34.2427 92.7305L31.9341 91.7461L29.4849 91.2891L29.4497 91.2773L29.4028 91.2656L26.8481 90.6328H26.8013L24.2583 89.9297L22.7231 89.5078L23.2388 87.9961L23.895 86.0742L23.9185 85.9922L23.9536 85.9219L25.0903 83.5312L25.1255 83.4492L25.1724 83.3789L26.5317 81.1992L27.6919 78.7617L28.3247 77.4609L29.6489 78.0352ZM29.2036 82.582L29.1685 82.6523L29.1216 82.7344L27.7505 84.9023L26.6724 87.2109L26.5786 87.457L27.5513 87.7266H27.563L30.0356 88.3359L32.6372 88.8281L32.8013 88.8633L32.9419 88.9219L35.145 89.8477L37.5474 89.918H37.7349L37.9224 89.9766L38.8599 90.2461L39.1411 89.1797L39.1646 89.0859L39.2114 88.9922L40.1606 86.6484L40.5708 84.4922L40.4888 84.082L38.8364 83.6602V83.6484L36.3872 83.1445L33.7739 82.7109L33.6802 82.6992L33.5864 82.6641L31.0552 81.9023L30.9731 81.8789L30.8911 81.8438L29.7778 81.3633L29.2036 82.582Z" fill="black"/>
<path d="M34.6343 69.7622L37.0601 70.5239L39.5796 70.9341H39.6147L39.6382 70.9458L42.228 71.4849L42.2632 71.4966H42.2866L44.853 72.1528L45.7554 72.3872L45.9546 73.3013L46.2944 74.895L46.353 75.188L46.2944 75.4927L45.8022 78.0942L45.7788 78.2466L45.7202 78.3872L44.7476 80.7075L44.1733 82.9224L44.1265 84.2231L42.8022 84.3286L41.9585 84.3989L41.6304 84.4224L41.314 84.3052L38.9702 83.438L36.4976 83.0864L36.4038 83.063L33.8257 82.5356H33.7788L31.2124 81.9263L31.0718 81.8911L30.9429 81.8442L28.5171 80.7778L27.0171 80.1216L27.8022 78.6802L28.8687 76.7349L28.8921 76.688L28.9155 76.6528L30.228 74.5435L31.0835 72.188L31.2124 71.8247L31.5054 71.5669L33.2046 70.0786L33.8374 69.5161L34.6343 69.7622ZM33.7788 73.5474L33.0054 75.7271L32.9468 75.8794L32.8647 76.0083L31.4937 78.1646L31.2241 78.6802L32.0327 79.0317L34.4702 79.606H34.4585L36.9077 80.1099H36.9194L39.5327 80.4849L39.6968 80.5083L39.8374 80.5669L41.5249 81.188L41.8647 79.8989L41.8882 79.7935L41.9351 79.6997L42.8726 77.4028L43.2944 75.2114L43.2007 74.8247L41.6069 74.4146L39.0874 73.8989L36.4741 73.4536L36.3804 73.4419L36.2749 73.4067L34.5522 72.8677L33.7788 73.5474Z" fill="black"/>
<path d="M39.6782 61.271L42.2915 61.7046H42.3267L42.3501 61.7163L44.9399 62.2437H44.9634L44.9868 62.2554L47.5649 62.8882L48.479 63.1108L48.6782 64.0366L49.0063 65.6187L49.0767 65.9116L49.0181 66.2163L48.5142 68.8179L48.4907 68.9702L48.4321 69.1108L47.4712 71.4312L46.8853 73.6929V73.7749L46.8735 73.7632L46.8618 73.8335L46.4868 73.728L45.4087 73.6343L45.3384 74.7944L43.604 74.6772H43.5454L43.4751 74.6655L40.8735 74.2788L40.8501 74.2671H40.8267L38.2251 73.7866L38.0845 73.7632L37.9556 73.7163L35.5063 72.7671L33.4907 72.1577L31.6157 71.5835L32.6587 69.9194L33.9712 67.8101L34.8267 65.4546L34.9087 65.2554L35.0259 65.0913L36.5845 62.9351L36.7485 62.7007L36.9829 62.5483L38.6118 61.4937L39.104 61.1772L39.6782 61.271ZM38.8579 64.9038L37.5571 66.6968L36.7485 68.9937L36.6899 69.146L36.6079 69.2866L36.2446 69.8491L36.4556 69.9194L36.5024 69.9429L36.561 69.9546L38.9282 70.8687L41.3657 71.314H41.354L43.8618 71.689L44.2954 71.7124L44.5884 70.6226L44.6118 70.5171L44.647 70.4233L45.5962 68.0796L46.0063 65.9351L45.9243 65.5718L44.3306 65.1851L41.7993 64.6577L39.7603 64.3179L38.8579 64.9038Z" fill="black"/>
<path d="M45.0508 52.5137L47.6406 53.0176H47.6641L47.6875 53.0293L50.2773 53.6152L51.2148 53.8262L51.4023 54.7754L51.7305 56.3457L51.7891 56.6387L51.7422 56.9316L51.2383 59.5332L51.2148 59.6855L51.1562 59.8262L50.1602 62.2285L49.6094 64.3613L49.5039 67.0566L47.5352 65.6973L45.2852 65.4277L45.1445 65.416L45.0156 65.3691L42.5664 64.5957L40.0938 64.1973L39.707 64.1387L39.4023 63.8926L38.1602 62.9199L37.3164 62.252L37.6797 61.2324L38.5938 58.7129L38.6641 58.5137L38.7812 58.3496L40.293 56.252L41.6172 54.0371L41.8633 53.6152L42.3086 53.4277L44.1602 52.6074L44.5938 52.4199L45.0508 52.5137ZM43.9375 55.9707L42.8477 57.834L42.7773 57.9512L41.3359 59.9316L40.8672 61.2324L40.9492 61.3027L43.1758 61.6543L43.2812 61.6777L43.3867 61.7129L45.7773 62.4629L46.9727 62.6035L47.3008 61.3379L47.3242 61.2324L47.3711 61.1387L48.3203 58.8184L48.7305 56.6504L48.6602 56.3105L47.0664 55.959L44.9336 55.5371L43.9375 55.9707Z" fill="black"/>
<path d="M43.6855 52.2207L46.1934 52.6543L46.2637 52.666L46.3457 52.6895L48.7012 53.3574L50.8926 53.4043L52.5332 53.4395L52.3457 55.0801L52.334 55.1621L50.8457 54.9863L50.8223 56.4043L48.4551 56.3457H48.2676L48.0918 56.2871L45.6074 55.5957L43.1816 55.1855H43.1699L43.0762 55.1621L43.5918 52.209L43.6855 52.2207Z" fill="black"/>
<path d="M82.6729 61.8101L83.8916 63.7437L83.9385 63.814L83.9736 63.8843L85.0635 66.1226L86.6221 68.0796L86.8799 68.396L86.9385 68.7944L87.2314 70.7983L87.4307 72.146L86.1064 72.4741L83.6455 73.0835L81.126 73.8804L80.9619 73.9272L78.3721 74.4429L78.3018 74.4663H78.2197L75.5947 74.7241L74.8447 74.7944L74.3408 74.2437L73.0869 72.8608L72.8994 72.6616L72.7939 72.4155L71.8096 69.9546L71.751 69.8022L71.7275 69.6616L71.2588 67.0952L71.001 66.2983L70.6611 66.3921L70.4268 64.7397L70.3916 64.4819L71.7979 64.0132L71.5635 63.0757L73.251 62.6655L73.2861 62.6538H73.3096L75.8877 62.1147L78.3955 61.4937L78.4893 61.4702L78.5713 61.4585L81.208 61.1187L82.1572 61.0015L82.6729 61.8101ZM78.9932 64.4233L76.5557 65.0327L76.5322 65.0444H76.5088L73.9189 65.5835L74.1533 66.3101L74.1885 66.4038L74.2002 66.5093L74.6455 68.9585L75.4775 71.0444L76.04 71.6538L77.8682 71.478L80.2236 71.0093L82.7314 70.2241L82.8252 70.2007L84.0557 69.8843L84.0205 69.6147L82.6143 67.8452L82.5088 67.7163L82.4385 67.5757L81.3018 65.2437L80.6455 64.2124L78.9932 64.4233Z" fill="black"/>
<path d="M86.876 70.1489L88.2471 71.9419L88.2822 71.9888L88.3174 72.0474L89.7471 74.2622L89.7939 74.3442L89.8408 74.4146L90.9893 76.7817L92.3721 79.0435L93.5088 80.9185L91.3525 81.2935L88.7275 81.7622L86.3486 82.3247L86.3604 82.3364L83.8408 83.1333L83.7588 83.1567L83.6885 83.1685L81.0986 83.6958L81.0283 83.7192H80.9463L78.3213 83.9888L77.5713 84.0591L77.0674 83.5083L75.8018 82.1489L75.626 81.9497L75.5205 81.6919L74.5244 79.231L74.4775 79.0903L74.4424 78.938L73.9971 76.4419L73.2822 74.2505L72.4619 72.8325L74.7822 71.8481L75.0635 71.731H77.8408L80.208 71.0981L82.7627 70.395V70.4067L85.2354 69.6333L86.2314 69.3169L86.876 70.1489ZM83.6064 73.2778L83.583 73.2896H83.5596L81.0049 73.9927L78.4385 74.6841L78.251 74.7427H78.0518L76.5869 74.731L76.8682 75.5864L76.9033 75.6919L76.9268 75.7856L77.3604 78.2349L78.1807 80.2856L78.7549 80.9185L80.5713 80.731L83.0674 80.2271L85.458 79.4653L85.5518 79.4419L88.1182 78.8208H88.165L88.2119 78.8091L88.6572 78.7271L88.3643 78.2349L88.3291 78.1763L88.3057 78.1177L87.1924 75.8325L85.8564 73.7583L85.1182 72.7974L83.6064 73.2778Z" fill="black"/>
<path d="M78.1104 53.3457L79.2002 55.5957L80.7588 57.541L80.8877 57.7168L80.9697 57.9043L81.9893 60.3652L82.1182 60.7051L82.0947 61.0684L81.9658 62.5449L81.8838 63.541L80.9229 63.8457L78.415 64.6543L78.333 64.6777L78.2393 64.7012L75.6494 65.2051L75.4854 65.2285L72.8486 65.4512L72.1104 65.5215L71.6182 64.959L70.3525 63.5762L70.1768 63.377L70.083 63.1309L69.0869 60.6699L69.0283 60.5293L69.0049 60.377L68.5361 57.8105L67.8447 55.7246L66.1221 52.6543L69.2627 53.4746L71.5479 53.0762L71.6299 53.0645H71.7236L74.3018 52.9355L76.4932 52.5371L77.6064 52.3379L78.1104 53.3457ZM74.7236 55.9004L74.5361 55.9238L72.0166 56.041L71.1494 56.1816L71.4307 57.0254L71.4658 57.1191L71.4775 57.2246L71.9229 59.6738L72.7549 61.748L73.3408 62.3926L75.1572 62.2402L77.6182 61.748L79.0596 61.291L79.0713 61.1738L78.2861 59.252L76.751 57.3184L76.6455 57.1895L76.5752 57.0371L75.9072 55.6777L74.7236 55.9004Z" fill="black"/>
<path d="M78.1104 53.2637L78.1221 53.3457L76.6689 53.6855L77.1143 55.0215L74.876 55.7715L74.7002 55.8301L74.5127 55.8418L71.8877 56.0176L69.5205 56.4512H69.5088L69.415 56.4746L69.1572 54.9863L68.8994 53.5098L68.9932 53.498L71.4893 53.0527L71.6533 53.0293L74.0908 52.877L76.165 52.1738L77.7354 51.6582L78.1104 53.2637Z" fill="black"/>
<path d="M91.9429 79.2583L92.3765 79.4341L92.6343 79.8325L94.064 82.0591L94.0757 82.0825L94.0874 82.0942L95.4351 84.356L96.8062 86.6294L97.4624 87.731L96.478 88.5513L95.1304 89.6763L94.9312 89.8403L94.6851 89.9224L92.2124 90.8481L92.1187 90.8833L92.0015 90.9067L89.5757 91.4224L87.2319 92.4185L87.021 92.5122L86.7866 92.5239L84.2202 92.77L81.6421 93.1919L81.1968 93.2622L80.7866 93.0864L79.064 92.313L78.4312 92.0317L78.2319 91.3638L77.5054 88.8208L77.4819 88.7739L77.4702 88.7153L76.9546 86.2192L76.1343 83.7935L75.7241 82.5981L76.8257 82.0005L78.6538 80.9927L78.9233 80.8403L79.2397 80.8169L81.7476 80.5942L84.1382 80.02L84.4312 81.2271L84.3491 79.9263L86.6694 79.5864L88.8608 78.52L89.4585 78.2271L91.9429 79.2583ZM87.7476 82.3872L87.5366 82.4927L87.314 82.5161L85.2632 82.8091L85.2515 82.8325L84.853 82.938L82.3687 83.5356L82.2632 83.5708L82.146 83.5825L79.814 83.77L79.3687 84.0161L79.814 85.3403L79.8491 85.4224L79.8608 85.5044L80.4116 88.0942L80.9155 89.8521L81.5952 90.1567L83.7632 89.8052H83.8101L83.8569 89.7935L86.2476 89.5591L88.521 88.6099L88.6616 88.5513L88.8022 88.5278L91.2515 88.0005L93.4077 87.1919L93.5601 87.063L92.8687 85.9028L91.5093 83.6411V83.6294L90.3491 81.8364L89.5522 81.5083L87.7476 82.3872Z" fill="black"/>
<path d="M97.5249 88.0923L98.8843 90.3657L98.9429 90.4595L98.9897 90.5649L99.9155 92.8618L101.298 95.0063L101.884 95.9087L101.205 96.7524L100.103 98.147L99.9038 98.4048L99.5991 98.5454L97.2085 99.7524L97.0093 99.8579L96.7749 99.8931L94.1499 100.315L91.6772 100.889L89.2632 101.651L89.1929 101.674L89.1226 101.686L86.5444 102.225L86.4038 102.249L83.7671 102.542L83.0171 102.624L82.5015 102.073L81.2476 100.713L81.0601 100.514L80.9546 100.256L79.9702 97.7954L79.9116 97.6548L79.8882 97.5024L79.4194 94.936L78.728 92.8149L77.5327 90.7407L79.9702 90.6235L81.0249 90.5649L83.4976 89.9673L83.5796 89.9438L83.6733 89.9321L86.064 89.6509L88.3491 88.6665L88.5718 88.5728L88.8179 88.5493L91.2671 88.3267L93.5874 87.4946L93.8335 87.4009H94.0796L96.2124 87.3657L97.0796 87.354L97.5249 88.0923ZM94.3726 90.3892L92.1343 91.2212L91.9468 91.2798L91.7476 91.3032L89.3218 91.5142L87.0835 92.4868L86.8843 92.5806L86.6616 92.604L84.1069 92.9087L82.0679 93.4126L82.3491 94.2563L82.3608 94.3501L82.8062 96.7993L83.6265 98.8735L84.189 99.4712L85.9937 99.272L88.5132 98.7446L90.8921 97.9946L90.9507 97.9829L91.0093 97.9595L93.5757 97.3735L93.6694 97.3501L96.0835 96.9517L97.9468 96.0259L98.1812 95.7212L97.3374 94.4087L97.2671 94.2915L97.2085 94.1626L96.2593 91.8306L95.3804 90.3774L94.3726 90.3892Z" fill="black"/>
<path d="M24.5234 86.8076L27.0195 87.4053L27.125 87.4287L27.2305 87.4756L29.5742 88.4248L31.6719 88.9053L31.8828 88.8818L32.2461 89.0225L33.2891 89.4092L35.7266 89.8193L35.8203 89.8311L35.9141 89.8545L38.457 90.6162L38.5508 90.6396L38.6328 90.6748L40.543 91.5068L41.9961 92.1396L41.293 93.5459L40.1914 95.7373L39.6406 98.1982L39.6289 98.2217V98.2451L38.9609 100.8L38.7734 101.526L38.082 101.808L36.1953 102.581L35.6797 102.78L35.1641 102.616L32.75 101.819L30.2656 101.444L30.1602 101.433L30.0547 101.397L27.6875 100.683L25.1562 100.437L24.9219 100.413L24.7109 100.319L22.2852 99.2998L19.8594 98.4443L18.9336 98.1162L18.8633 97.1318L18.7344 95.2334L18.7109 94.7881L18.9219 94.4014L20.2227 92.1045L20.2461 92.0576L20.2812 92.0107L21.7344 89.7959L22.8477 87.5928L23.375 86.5381L24.5234 86.8076ZM24.3242 91.3076L24.2891 91.3896L22.8359 93.5693L21.7578 95.4795L21.793 95.9365L23.3516 96.4873L23.3984 96.499L23.4336 96.5225L25.6484 97.46L28.1094 97.7178L28.25 97.7295L28.3906 97.7764L30.8164 98.4912L33.3242 98.8779L33.4531 98.9014L33.5703 98.9365L35.5625 99.5811L36.2422 99.3115L36.7227 97.4951L37.2969 94.9521L37.332 94.7764L37.4141 94.624L37.9062 93.6279L37.5078 93.4521L35.082 92.7373L32.6328 92.3389L32.4805 92.3154L32.3398 92.2686L31.543 91.9639L31.2734 91.8936L28.7891 91.3193L28.6719 91.2959L28.5664 91.249L26.2227 90.2998L24.9805 89.9951L24.3242 91.3076Z" fill="black"/>
<path d="M44.4351 81.3677L46.814 82.0474L49.3101 82.188H49.4038L49.4976 82.2114L51.8999 82.645L54.3374 82.3638L54.5835 82.3403L54.8179 82.3872L57.2319 82.9146L59.7046 82.7974L61.1343 82.7271L61.2632 84.1567L61.4858 86.4771V86.5591L61.5796 89.1958V89.313L61.5679 89.4302L61.2397 92.0669L61.228 92.1958L61.1929 92.313L60.6655 94.0942L60.3257 95.2544L59.1304 95.1724L56.6108 94.9966L54.1265 95.313L53.9038 95.3481L53.6812 95.3013L51.1616 94.8442V94.856L48.6304 94.563L46.0054 94.4927H45.9351L45.8647 94.481L43.2515 94.1528L43.1694 94.1411L43.0991 94.1177L40.521 93.5317L39.5718 93.3208L39.3843 92.3599L39.0679 90.7544L39.0093 90.4614L39.0679 90.1802L39.5601 87.5669L39.5835 87.4263L39.6421 87.2856L40.603 84.9419L41.1655 82.7974L41.2007 82.5981L41.2124 82.6099L41.2241 82.563L41.4585 82.6333L42.5601 82.7388L42.3374 81.6255L43.7202 81.3442L44.0835 81.2739L44.4351 81.3677ZM43.8491 84.3794L43.4976 85.7739L43.4741 85.8677L43.4272 85.9614L42.4897 88.2466L42.0562 90.4497L42.1382 90.8247L43.7085 91.1763L46.1694 91.4927L48.7476 91.5747H48.8062L48.8647 91.5864L51.4897 91.8677L51.5366 91.8794H51.5835L53.9741 92.3013L56.4116 92.0083L56.5522 91.9849L56.7046 91.9966L58.1226 92.0903L58.2749 91.5747L58.5679 89.1841L58.4858 86.6646V86.6528L58.4155 85.856L57.1968 85.9263H57.0093L56.8101 85.8911L54.4312 85.3755L52.0171 85.645L51.7944 85.6685L51.5718 85.6333L49.0522 85.1763L46.5093 85.0356L46.3452 85.0239L46.1812 84.9771L43.978 84.3442L43.8491 84.3794Z" fill="black"/>
<path d="M49.541 63.1509L52.1426 63.3149L54.6973 63.2563H54.8262L54.9551 63.2681L57.4629 63.6548L59.8535 63.5728H59.9941L60.0879 63.5845L61.2129 63.6548L61.459 64.7446L61.6699 65.6704L61.7402 65.9634L61.6816 66.2563L61.248 68.7524L61.4004 71.1899V71.2134L61.4121 71.2368L61.4941 73.8735L61.5293 74.9165L60.5566 75.3149L58.6465 76.0884L58.2598 76.2407L57.8496 76.1821L55.3066 75.7837L52.8223 75.8071H52.7168L52.6113 75.7837L50.127 75.4321L47.6074 75.5728L47.2207 75.5845L46.8691 75.4204L44.9707 74.4829L43.7988 73.9087L44.1973 72.6782L44.9824 70.2759L45.5332 67.7212L45.5449 67.6626L45.5566 67.6157L46.3184 65.0845L46.4941 64.4634L47.0684 64.1704L48.7559 63.3032L49.1309 63.1157L49.541 63.1509ZM49.002 66.5376L48.4395 68.4595L47.9004 70.9438L47.8887 71.0142L47.8652 71.0845L47.4434 72.3618L47.8418 72.5493L50.127 72.4438L50.2676 72.4321L50.4082 72.4556L52.9277 72.7954L55.4473 72.7837H55.5645L55.6934 72.8071L57.8848 73.147L58.459 72.9126L58.4121 71.3774L58.248 68.729L58.2363 68.5532L58.2715 68.3774L58.5762 66.6079L57.4043 66.6431L57.2637 66.6548L57.1348 66.6313L54.6738 66.2563L52.1191 66.3149H51.9902L49.752 66.1626L49.002 66.5376Z" fill="black"/>
<path d="M47.1343 72.2788L49.5718 72.7827L52.103 72.9116L54.6929 72.8296H54.8218L54.9507 72.853L57.4585 73.2163L59.8491 73.1343H59.9897L60.0952 73.146L61.5132 73.228L61.5015 74.6577L61.4897 75.7593V75.8882L61.2437 78.314L61.689 80.7749L61.7241 81.0327L61.6772 81.2905L61.2202 83.9272L61.0444 84.9233L60.0601 85.1343L58.2085 85.5444L58.0562 85.5796H55.2202L52.5718 85.521H52.4429L52.314 85.4976L49.7827 84.9819L47.3101 84.8999H47.2046L47.0991 84.8765L44.4976 84.4077L44.4038 84.3843L44.2983 84.3491L42.1655 83.6577L40.6069 83.1538L41.2515 81.6421L42.2944 79.1929L43.0562 76.814L43.5835 74.3647L43.7358 73.6851L44.3569 73.3569L46.1499 72.4194L46.6187 72.1733L47.1343 72.2788ZM46.3608 75.689L45.9507 77.5874L45.939 77.6694L45.9155 77.7397L45.0952 80.2476L45.0835 80.3179L45.0483 80.3765L44.6382 81.3022L45.1538 81.4663L47.5093 81.8999L50.064 81.9937L50.1812 82.0054L50.2983 82.0288L52.7358 82.521L55.2788 82.5796H57.728L58.4312 82.4155L58.6772 81.0327L58.2671 78.6538L58.2319 78.4546L58.2437 78.2554L58.4429 76.1812L57.4116 76.2163H57.271L57.1421 76.1929L54.6226 75.8296L52.1265 75.9116H51.9976L49.3608 75.771L49.1499 75.7476L47.0522 75.314L46.3608 75.689Z" fill="black"/>
<path d="M61.4902 55.7251L61.3965 56.3345L61.4785 58.8423L61.5723 61.479V61.5962L61.5605 61.7134L61.2324 64.3501L61.1504 65.1118L60.4707 65.4751L58.9941 66.2954L58.5957 66.5181L58.1387 66.4712L55.6543 66.2603L53.123 66.5063L52.8887 66.5298L52.666 66.4829L50.0645 65.9204H50.041L50.0176 65.9087L48.0254 65.4165L46.6191 65.0649L46.9238 63.6353L47.4863 61.0571L47.5098 60.9399L48.2598 58.4087L48.2832 58.3618L48.2949 58.3032L49.2324 55.8306L49.3848 55.4438L49.7012 55.1978L51.1543 54.0376L51.5527 53.7212L52.0684 53.7095L54.7168 53.6743H54.8457L54.9629 53.6978L57.4824 54.0845L59.7207 54.0493L61.7949 53.5923L61.4902 55.7251ZM52.6074 56.6978L51.8926 57.272L51.1074 59.3696L50.4043 61.6782L50.1582 62.8501L50.6973 62.9907L53.0293 63.4946L55.4902 63.2603L55.6309 63.2485L55.7715 63.2603L57.9395 63.436L58.3496 63.2134L58.5605 61.4673L58.4902 58.936L58.4199 57.061L57.3887 57.0845H57.2598L57.1309 57.061L54.5879 56.6743L52.6074 56.6978Z" fill="black"/>
<path d="M69.8569 63.2446L72.2593 63.2563L73.5249 63.2681L73.7358 64.5103L74.146 66.9946L74.7905 69.4907L75.6929 71.8931L75.9976 72.7017L75.4468 73.3696L74.3218 74.729L73.8999 75.2446L73.2319 75.2681L70.6538 75.3735L68.1108 75.7251L68.0991 75.7134L65.5327 76.147L65.3569 76.1821L65.1929 76.1704L62.6147 75.9946L60.1772 76.1235L60.189 76.1353H60.0952L58.8062 76.2173L58.5366 74.9634L58.3374 74.0376L58.2671 73.7446L58.3257 73.4517L58.7593 70.9907L58.6069 68.5298V68.4829L58.5249 65.8462L58.4897 64.8267L59.4272 64.4165L61.3374 63.6079L61.6772 63.4556L62.0522 63.4907L64.5483 63.7017L67.0093 63.3735H67.0679L67.1382 63.3618L69.7866 63.2446H69.8569ZM67.3257 66.3501L64.771 66.7017L64.6069 66.7251L64.4546 66.7017L62.1577 66.5024L61.5483 66.772L61.6069 68.3423L61.771 70.9907V71.1665L61.7476 71.3423L61.4312 73.0532L62.5562 72.9946H62.7319L65.228 73.1587L67.6655 72.7603L67.689 72.7485H67.7007L70.3257 72.397L70.3843 72.3853H70.4546L72.4351 72.3032L72.5757 72.1274L71.9546 70.4517L71.9312 70.3813L71.9194 70.311L71.2397 67.7563L71.228 67.6978L71.2163 67.6274L70.9819 66.2446H69.9038L67.3257 66.3501Z" fill="black"/>
<path d="M67.2983 53.5264L69.5132 54.0068L70.4155 54.1943L70.6499 55.085L71.2944 57.5811L72.1968 59.9834L72.2202 60.0303L72.2319 60.0889L72.9702 62.6201L73.1929 63.3936L72.6772 64.0029L71.6694 65.2217L71.2944 65.6553L70.7319 65.7373L68.1187 66.124L68.1069 66.1123L65.5405 66.5693L65.3765 66.6045L65.2007 66.5928L62.6226 66.4287L60.1968 66.5576L60.2085 66.5693H60.1147L58.2749 66.71L58.5093 64.8818L58.5913 64.2607L58.5093 61.7646L58.4272 59.1162V58.999L58.439 58.8936L58.7554 56.2451L58.8491 55.5068L59.5054 55.1318L60.9819 54.2764L61.3452 54.0771H61.7554L64.1812 54.124L66.6304 53.5381L66.9585 53.4561L67.2983 53.5264ZM64.7319 57.0771L64.5444 57.124H64.3569L62.1187 57.0771L61.6382 57.3584L61.4272 59.1162L61.5093 61.6592L61.5562 63.4756L62.5522 63.4287H62.728L65.2241 63.5811L67.6499 63.1592H67.6851L69.7241 62.8545L69.8647 62.6904L69.3843 61.0264L68.4702 58.5537L68.4351 58.4834L68.4233 58.4014L67.978 56.7373L66.9937 56.5264L64.7319 57.0771Z" fill="black"/>
<path d="M69.2241 56.4868L68.0522 56.522L65.5562 56.9907L65.3804 57.0142H65.2046L62.6382 56.8618L60.189 57.0142H60.0835L60.0015 55.5142L59.9194 54.0259L60.0132 54.0142L62.5562 53.8735L62.6382 53.8618L62.7202 53.8735L65.1929 54.0142L67.6304 53.5571L67.8413 53.5337L69.1069 53.4868L69.2241 56.4868Z" fill="black"/>
<path d="M51.0293 53.5029L53.5605 53.6436L53.6543 53.6553L53.7363 53.667L56.1973 54.0889L58.6465 53.9248H58.8574L60.123 54.0303L60.0059 55.5186L59.8887 57.0186L58.7168 56.9248L56.1855 57.0889L56.0098 57.1006L55.834 57.0771L53.3379 56.6318L50.8535 56.4912H50.7598L50.9238 53.4912L51.0293 53.5029Z" fill="black"/>
<path d="M75.5991 81.8599L75.6929 81.8716L77.6499 82.106L78.6812 82.2349L78.9272 83.2544L79.4897 85.645L80.5796 87.9302L80.6733 88.1177L80.7085 88.3286L81.1538 90.9536L81.3062 91.8325L80.603 92.3833L79.314 93.3911L79.0444 93.6138L78.7046 93.6841L76.1147 94.2349L76.0444 94.2583H75.9741L73.3491 94.563L73.2788 94.5747H73.2085L70.6069 94.6099L68.0874 94.9146L68.0757 94.9028L65.5093 95.3013L65.3452 95.3247L65.1812 95.313L62.603 95.1138L62.3687 95.1255L62.4155 95.2544H60.0015L59.978 93.8599L58.8647 94.2817L58.3726 92.9575L58.2319 92.5942L58.2905 92.2192L58.6538 89.7114L58.5132 87.2271V87.0161L58.771 84.3677L58.8647 83.3247L59.8726 83.0669L61.9351 82.5161L62.228 82.4458L62.5327 82.481L64.9702 82.8325L67.4312 82.5513H67.4429L70.0679 82.2466V82.2583L72.646 81.895L72.7397 81.8833H72.8335L75.4937 81.8599H75.5991ZM72.8804 84.8716L70.4429 85.2231H70.4194L70.396 85.2349L67.771 85.5161L67.7827 85.5278L65.1577 85.8442L64.9585 85.856L64.7593 85.8325L62.4038 85.4927L61.6538 85.6919L61.5132 87.1216L61.6538 89.7114L61.6655 89.8638L61.6421 90.0044L61.3257 92.1841L62.5562 92.1255L62.6499 92.1138L62.7437 92.1255L65.2163 92.3013L67.689 91.938H67.7124L67.7358 91.9263L70.3608 91.6333L70.4312 91.6216H70.5015L73.103 91.5747L75.5405 91.2817L77.7202 90.8247L78.0483 90.5669L77.7788 89.0317L76.7241 86.8169L76.6538 86.6763L76.6187 86.5122L76.2437 84.9536L75.4233 84.8599L72.8804 84.8716Z" fill="black"/>
<path d="M77.2983 90.8481L79.9819 90.9067L81.0366 90.9302L81.3765 91.938L82.0796 94.0825L82.8999 96.5903L83.7319 99.0981L83.8491 99.4614L83.7788 99.8481L83.4624 101.559L83.2749 102.532L82.314 102.743L79.7358 103.317L79.6304 103.34L79.5249 103.352L77.064 103.54L74.603 104.243L74.3921 104.313L74.1577 104.301L71.5679 104.243L69.0132 104.348L66.4702 104.688H66.3999L66.3296 104.7L63.6929 104.782H63.5522L60.9038 104.618L60.1421 104.571L59.7319 103.926L58.8179 102.473L58.6304 102.18L58.5952 101.817L58.3374 99.1802L58.3257 99.0278L58.3374 98.8755L58.6069 96.3442L58.5249 93.9067L59.5444 93.8716L59.8726 93.7778L59.9312 92.2544H61.1616L61.1851 92.3481L61.6304 92.3833H61.6187L64.0327 92.4419L66.4351 91.8911L66.6577 91.8442L66.8921 91.856L69.3882 92.0552L71.8491 91.7036L71.9429 91.6919H72.0366L74.439 91.6685L76.8179 90.9185L77.0522 90.8481H77.2983ZM75.1538 94.5864L74.9429 94.645L74.7319 94.6567L72.1772 94.6802L69.646 95.0435L69.4819 95.0669L69.3179 95.0552L66.8804 94.856L64.5015 95.4185L64.314 95.4653L64.1147 95.4536L61.5718 95.3833L61.6069 96.3442L61.6187 96.4497L61.6069 96.5552L61.3374 99.0278L61.5483 101.172L61.8413 101.665L63.6812 101.77L66.1655 101.7L68.7085 101.372H68.7788L68.8374 101.36L71.4741 101.243H71.5796L74.0054 101.29L76.3608 100.633L76.5015 100.586L76.6538 100.575L79.2085 100.364L80.6851 100.024L80.7554 99.6724L80.0522 97.5278L79.2319 95.02L78.8452 93.8833L77.4741 93.8481L75.1538 94.5864Z" fill="black"/>
<path d="M40.2158 90.6167L40.4033 90.6636L41.8096 91.0269L41.7979 91.0386L44.1182 91.4839L46.6143 91.3198L46.8369 91.3081L47.0596 91.355L49.5205 91.9644L51.9697 92.0112H52.0752L52.1689 92.0229L54.5713 92.3745L57.0088 92.0347L57.2549 91.9995L57.501 92.0464L60.1377 92.5386L61.333 92.7729L61.3564 93.98L61.4033 96.2065L61.4854 98.8433L61.5791 101.48L61.5908 101.925L61.3564 102.312L60.4307 103.835L60.0205 104.515L59.2236 104.562L56.5869 104.691H56.376L53.9033 104.468L51.3838 104.75L51.1494 104.773L50.9268 104.726L48.3252 104.222H48.3135L45.8877 103.917L43.2861 103.824L43.2158 103.812L43.1338 103.8L40.5205 103.449L40.3799 103.425L37.8135 102.816L36.876 102.593L36.6885 101.667L36.3486 100.05L36.29 99.7573L36.3369 99.4644L36.8408 96.8628L36.8643 96.7104L36.9229 96.5698L37.8955 94.1792L38.458 92.0112L38.5166 90.6167H40.2158ZM40.7783 95.0581L40.7432 95.1636L40.708 95.2573L39.7471 97.5659L39.3369 99.7456L39.4189 100.109L41.0244 100.484L43.4736 100.824L46.0518 100.929H46.1104L46.1689 100.941L48.7822 101.257L48.8408 101.269H48.8877L51.2549 101.738L53.7158 101.468L53.8564 101.457L54.0088 101.468L56.4697 101.679L58.2744 101.597L58.5557 101.128L58.4854 98.937L58.4033 96.3003V96.2769L58.3799 95.2573L57.1846 95.0229L54.7822 95.3862L54.5596 95.4097L54.3486 95.3745L51.7822 94.9878L49.2627 94.9526L49.0986 94.9409L48.9463 94.9058L46.5908 94.3315L44.1299 94.4839L43.9307 94.4956L43.7432 94.4604L41.1416 93.9565L41.0947 93.9448L41.0596 93.9331L40.7783 95.0581Z" fill="black"/>
<path d="M75.6108 72.9624L76.6655 75.0835L76.7593 75.2827L76.7944 75.5054L77.1929 77.978L78.0718 80.3452L78.1538 80.5562L78.1655 80.7905L78.2358 82.6421L78.2944 83.7905L77.1929 84.1421L74.6382 84.939L74.4155 85.0093H71.6265L69.0483 85.1616L66.4937 85.5249L66.4116 85.5366L66.3413 85.5483L63.7046 85.6538H63.5522L60.9155 85.5015L60.1421 85.4546L59.7319 84.7983L58.8179 83.3569L58.6304 83.064L58.5952 82.7007L58.3374 80.064L58.3257 79.9116L58.3374 79.7593L58.6069 77.228L58.5366 74.9312L58.0679 73.1265L60.0132 73.1382L61.1265 73.1499H61.2202L63.646 73.3257L66.0483 72.7749L66.2827 72.7163L66.5288 72.7397L69.0249 72.9858L71.4155 72.5757L74.0288 72.1421L75.1187 71.9663L75.6108 72.9624ZM71.9077 75.5405L69.2944 75.9741L69.0952 76.0093L68.9077 75.9858L66.4585 75.7397L64.103 76.2905L63.8804 76.3491L63.6577 76.3257L61.5718 76.1851L61.6069 77.228L61.6187 77.3335L61.6069 77.439L61.3374 79.9116L61.5483 82.0562L61.8413 82.5366L63.6577 82.6421L66.1304 82.5483L68.6851 82.1851H68.7437L68.8022 82.1733L71.439 82.0093H73.9585L75.189 81.6226L75.1655 81.1655L74.3452 78.8804L74.2983 78.7515L73.8765 76.2202L73.4194 75.2827L71.9077 75.5405Z" fill="black"/>
</svg>
