<svg width="120" height="120" viewBox="0 0 120 120" fill="none" xmlns="http://www.w3.org/2000/svg">
<path d="M66.9961 2L67.1953 2.07031L68.4609 1.97656L68.6602 4.51953L68.707 4.92969L70.6885 4.86328L71.1689 4.83984L71.5557 5.09766L73.1729 6.14062L73.8174 6.55078L73.8643 7.32422L73.9346 8.80078L75.4229 9.87891L77.6143 11.4375L75.1299 12.4805L72.7744 13.4531L71.6025 14.2969L71.2793 14.5234L70.9229 15.8721L70.7002 18.3564V18.4033L70.3604 21.0283L70.3369 21.2275L70.2549 21.415L69.2471 23.876L69.1064 24.2041L68.8486 24.4385L66.8564 26.1611L66.7744 26.2314L66.6807 26.29L64.4775 27.708L64.4658 27.6963L62.2861 29.1143L62.2744 29.1025L61.7002 29.5479L61.2275 28.9082L61.7666 30.3389L61.8604 30.5967V30.8779L61.8486 33.5264L61.8838 36.1396L62.0947 38.6709L62.1064 38.8232L62.0947 38.9639L61.8018 41.5068L61.8135 44.0732H61.8018L61.9775 46.6279V46.6514L62.0947 49.2998L62.1064 49.3818L62.0947 49.4756L62.0732 49.7783L63.3594 50.0859L63.8984 50.2031L64.2266 50.6367L65.832 52.7695L66.0312 53.0391L66.1016 53.3789L66.4648 55.207L65.1641 55.4531L65.1875 55.6172L66.3242 56.0156L65.5039 58.3711L65.375 58.7344L65.0938 58.9922L63.2305 60.7031L62.9023 60.9961L62.4688 61.0664L61.8154 61.1777L62.1016 63.3477L62.7227 65.7969L62.7578 65.9141L62.7695 66.043L62.9453 68.457L63.8711 70.7539L63.9414 70.9297L63.9648 71.1172L64.2812 73.6602L64.7617 76.25V76.2617L64.7734 76.2734L65.2188 78.875L65.6641 81.4883L65.6523 81.5L66.1445 83.9961L66.9414 86.375L67.0234 86.5977V89.3047L67.8086 91.5781L67.832 91.6367L67.8555 91.707L68.4648 94.2734L68.5 94.4258L68.5117 94.5898L68.5703 97.1445L69.0273 99.5234L69.9766 101.82L70.0586 102.031L70.082 102.254L70.3047 104.738L70.9961 107.176L71.043 107.328L71.0547 107.492L71.1836 109.93L71.9805 112.285L72.0156 112.367L72.0391 112.461L72.5664 115.039L72.625 115.309L72.5781 115.578L72.4844 116.234L70.9961 116L69.5195 115.766L69.5664 115.367L69.1094 113.176L68.2891 110.715L68.2305 110.527L68.2188 110.328L68.0547 107.82L67.3867 105.441L67.3516 105.312L67.3398 105.172L67.1055 102.758L66.1797 100.461L66.1328 100.32L66.0977 100.18L65.6055 97.5781L65.582 97.4609V97.3438L65.5117 94.8594L64.9727 92.5391L64.1172 90.0195L64.0352 89.7852V89.5391L64.0234 87.125L63.25 84.8047L63.2266 84.7109L63.2031 84.6055L62.7109 82.0156L62.6992 81.9922V81.9805L62.2656 79.3789L61.8086 76.7773L61.3398 74.1992L61.3281 74.1641V74.1172L61.0234 71.7266L60.0859 69.3711L60.0039 69.1602L59.9805 68.9258L59.8867 67.8828L59.8047 69.4883L59.793 69.6055L59.7695 69.7227L59.207 72.3008L58.7734 74.8438V74.8555L58.7617 74.8672L58.2695 77.457L57.8125 80.0352L57.8008 80.1172L57.7773 80.1875L57.0391 82.7422H57.0273L56.4531 85.2383L56.0664 87.7344V87.7812L55.5742 90.3711L55.2578 92.9141L55.2461 92.9961L55.2227 93.0781L54.6016 95.6445L54.1211 98.1641V98.1875L53.582 100.777L53.5703 100.824L53.5469 100.883L52.8672 103.262L52.6562 105.793L52.6445 105.875L52.6211 105.957L52.1055 108.547L52.082 108.641L51.4023 111.195L50.7812 113.727L50.5117 116.082L50.5 116.141L50.4883 116.188L50.4766 116.293L49 116L47.8047 115.766L47.5352 115.73L47.5469 115.719L47.5234 115.707L47.5469 115.613L47.8281 113.199L47.8398 113.105L47.8633 113.012L48.4961 110.445V110.434L48.5078 110.422L49.1641 107.961V107.949L49.6562 105.441L49.8789 102.887L49.8906 102.746L49.9375 102.605L50.6641 100.051L51.1797 97.5781L51.6719 95.0117V94.9766L51.6836 94.9297L52.2812 92.4805L52.6094 89.9141L52.6328 89.8203L53.1016 87.2891V87.2773L53.5117 84.6641V84.6055L53.5234 84.5469L54.1328 81.9805L54.1445 81.9336L54.1562 81.8984L54.8711 79.4258L55.3281 76.9062V76.8945L55.8086 74.3398V74.3281L56.2656 71.7266V71.6914L56.2773 71.6562L56.8047 69.2188L56.957 66.6523L56.9688 66.5117L57.0039 66.3594L57.6602 63.8047L57.6836 63.7344L58.4688 61.2031L58.4902 61.125L56.5742 60.1289L56.0938 59.8828L55.8828 59.3789L54.875 56.9766L54.7578 56.6953V53.2969L55.0742 52.8984L56.7031 50.8125L56.9844 50.4375L57.4297 50.2969L59.0615 49.7822L59.0947 49.3232L58.9775 46.8154L58.8135 44.1787V44.085L58.8018 41.4482V41.3545L58.8135 41.2725L59.083 38.7529L58.8838 36.2803V36.1748L58.8486 33.5264V31.124L58.1924 29.3779L56.7275 27.7607L54.7588 26.167L54.5596 26.0146L54.4307 25.8037L53.0713 23.6475L51.6768 21.7021L50.7158 21.0459L50.2588 21.374L50.0713 23.0732L50.2354 25.5693L50.2471 25.874L50.1533 26.1553L49.9189 26.8232L48.501 26.3193L47.083 25.8271L47.2236 25.4521L47.083 23.0967L47.0713 22.9678L47.083 22.8389L47.3643 20.3779L47.4346 19.71L47.9736 19.3232L49.8135 17.999L50.6689 17.3896L51.5361 17.9756L53.5986 19.3818L53.8213 19.5342L53.9736 19.7451L55.5088 21.9014L55.5557 21.9717L56.833 23.9873L58.6846 25.4873L58.7783 25.5576L58.8604 25.6514L60.0869 27.001L60.5869 26.6416L60.6221 26.6064L60.6572 26.583L62.8486 25.1768H62.8604L65.0049 23.7822L66.5986 22.4111L67.4072 20.4541L67.7236 18.0166L67.958 15.4385L67.9697 15.3213L68.0049 15.2041L68.6494 12.7314V12.7197L68.6611 12.6963L68.6846 12.6025L70.501 13.1191L70.7002 13.0195L69.8799 11.8359L71.2158 10.8984L71.3447 10.8047L71.4854 10.7461L71.0283 10.4062L70.9814 9.69141L70.8994 8.23828L70.3252 7.86328L68.8564 7.92383L68.4609 10.1211L68.3086 10.9414L67.5234 11.2461L65.3203 12.1016L63.8203 13.2969L63.2461 15.4062L63.2109 15.5234L63.1641 15.6289L62.0742 18.0312L61.1719 20.0117L59.6367 18.4648L58.0078 16.8242L57.9844 16.8008L57.9609 16.7891L56.2148 14.8789V14.8906L54.4688 13.0977L52.5469 11.7734L50.4141 10.6719L48.2812 10.2852L46.1953 10.6484L44.3789 11.5508L42.9961 13.1094L41.9531 15.1133L41.3086 17.5039L41.2969 17.5391L41.2852 17.5625L40.5234 19.8945L40.4414 22.3555L39 22.2969V22.3203L38.5078 23.7383L38.4492 23.7148L37.4062 23.3516L37.4414 22.25L37.5352 19.5781L37.5469 19.3672L37.6055 19.168L38.4375 16.6367L39.1055 14.1758L39.1523 14.0117L39.2227 13.8711L40.4297 11.5625L40.5234 11.3984L40.6406 11.2578L42.3516 9.33594L42.5508 9.125L45.082 7.85938L45.2812 7.76562L45.4922 7.73047L48.0586 7.28516L48.3164 7.23828L48.5859 7.28516L51.1875 7.77734L51.4102 7.8125L51.5977 7.91797L53.9648 9.125L54.0469 9.17188L54.1289 9.23047L56.2969 10.7188L56.4258 10.8008L56.5195 10.9062L58.3594 12.793L58.3945 12.8281L60.1172 14.7031H60.1289L60.2344 14.8086L60.3867 14.4805L61.0547 12.043L61.1836 11.5742L61.5586 11.2695L63.6328 9.62891L63.8086 9.48828L64.0195 9.40625L65.6484 8.76172L65.9297 7.17969L65.6719 4.80078L65.6602 4.77734V4.75391L65.4727 2.21094L65.4375 1.87109L65.5547 1.56641L65.5898 1.47266L66.9961 2ZM58.7773 53.0156L57.7578 54.3281V56.0859L58.4375 57.7148L59.8672 58.4648L59.9844 58.4443L61.1641 56.3633L61.4131 58.2012L61.5195 58.1836L62.7852 57.0234L63.4062 55.2539L63.2188 54.293L62.1523 52.875L60.4531 52.4766L58.7773 53.0156ZM48.8193 12.918L48.9951 13L50.3193 13.7148L50.2725 13.7969L50.0967 14.125L49.7803 14.3359L47.8936 15.5898L46.7334 17.418L45.8545 19.7031L45.2568 22L44.835 24.5781L43.5225 24.3555L43.6865 25.8086L43.5107 25.832L41.5654 26.0312L41.8818 24.0977L42.292 21.5195L42.3154 21.3789L42.9834 18.8477L43.0068 18.7773L43.0303 18.6953L43.9678 16.2344L44.0264 16.082L44.1084 15.9531L45.5381 13.7031L45.7139 13.4453L45.9717 13.2695L48.1162 11.8398L48.8193 12.918Z" fill="black"/>
</svg>
