<svg width="120" height="120" viewBox="0 0 120 120" fill="none" xmlns="http://www.w3.org/2000/svg">
<path d="M59.2695 6H62V6.22266L61.8008 8.44922L61.9043 10.3652L62.7266 10.3477L62.7393 10.3467H62.751L65.375 10.332V10.3311L68.0156 10.2871L68.3564 10.2822L68.667 10.4248L70.6074 11.3174L71.5166 11.7363L71.4785 12.7363L71.3818 15.3154L71.4873 17.8984L71.4893 17.9453L71.5137 20.5508L71.6904 23.1377L71.6963 23.2236L71.6924 23.3096L71.5693 25.9502L71.5615 26.1113L71.5205 26.2676L71.4443 26.5508L71.8799 26.5771L74.3916 26.293L74.5537 26.2744L74.7168 26.292L77.3564 26.5693L78.3232 26.6709L78.626 27.5938L79.208 29.373L79.25 29.501L79.2686 29.6328L79.6357 32.2734L79.6523 32.3916L79.6494 32.5117L79.5957 35.1211L79.6523 37.7266L79.6533 37.7393V37.751L79.6689 40.375L79.7021 42.3877L81.4883 42.3506L81.6084 42.3477L81.7266 42.3643L84.3672 42.7314L84.499 42.75L84.627 42.792L86.4062 43.374L87.3291 43.6768L87.4307 44.6436L87.708 47.2832L87.7256 47.4463L87.707 47.6084L87.4229 50.1191L87.5742 52.6299L87.5791 52.7129L87.5742 52.7969L87.4453 55.3086L87.7393 57.8262L87.7656 58.0527L87.7236 58.2773L87.2607 60.7314L87.4238 63.1807L87.4268 63.2227V63.2637L87.4561 65.9033H87.4551L87.5137 68.5273H87.5127L87.5869 71.1582V71.1758L87.5879 71.1934L87.5986 73.834L87.5996 73.9336L87.5859 74.0322L87.2754 76.4346L87.7363 78.8379L87.7822 79.0781L87.749 79.3203L87.4023 81.8867L87.3008 84.3057L87.7188 86.791L87.7393 86.9092L87.7402 87.0293L87.7588 89.6689L87.7607 89.8203L87.7314 89.9688L87.2559 92.3896L87.5029 94.8076L87.5166 94.9453L87.5049 95.082L87.3027 97.5596L87.6396 100.038L87.666 100.237L87.6396 100.438L87.3008 102.988L87.2754 105.396L87.7041 107.908L87.7236 108.021L87.7246 108.138L87.7646 110.777L87.7666 110.886L87.752 110.994L87.4199 113.536V114.416L89.832 114.406H89.9375L90.0312 114.418L92.4219 114.734L94.8359 114.266L95.082 114.219L95.3164 114.254L97.8945 114.605L100.273 114.711L102.793 114.277L102.91 114.266H103.027L105.664 114.242H105.816L105.969 114.266L108.406 114.746L110.809 114.5L110.891 114.488H110.973L112.016 114.5L112.004 116L111.98 117.5L110.984 117.488L108.477 117.746L108.254 117.77L108.031 117.734L105.57 117.242L103.145 117.254L100.648 117.688L100.496 117.711L100.332 117.699L97.6953 117.594H97.625L97.5547 117.582L95.1523 117.242L92.7617 117.711L92.5273 117.758L92.293 117.734L89.7383 117.406L87.4199 117.416V117.718L85.832 117.624L83.8223 117.505L81.957 117.547H81.9336L81.2051 117.55L80.6963 117.569L80.6377 117.571L80.5791 117.569L80.2227 117.554L79.3672 117.559L79.3789 117.57L76.7422 117.746L76.5547 117.758L75.6963 117.597L75.4463 117.611L75.3311 117.618L75.2168 117.607L72.9092 117.385L71.5391 117.547L71.4102 117.559H71.2812L68.7266 117.418L66.1719 117.582H66.043L65.9141 117.57L65.2363 117.493L64.9355 117.521L64.9189 117.522L64.9023 117.524L62.2617 117.704L62.166 117.71L62.0693 117.704L60.6426 117.617L60.0449 117.606L58.25 117.711L58.0977 117.723L57.957 117.699L57.543 117.642L56.8945 117.656H56.5547L56.3857 117.578L54.8945 117.359L52.9062 117.406H52.8477L52.042 117.388L51.709 117.409L49.0908 117.64L48.9658 117.65L48.8408 117.641L46.29 117.438L43.7256 117.516L43.7246 117.515L41.0957 117.613L40.9971 117.617L40.8994 117.607L40.6553 117.584L39.7344 117.617H39.6172L37.2939 117.523L35.957 117.701L35.4404 117.77L34.9932 117.504L34.9707 117.49L34.3906 117.488H34.3438L34.2969 117.477L31.7188 117.301L29.1875 117.43H29.1055L26.4688 117.418V117.406L23.9609 117.43L21.3242 117.664L21.1836 117.676L21.0312 117.664L18.5 117.383L15.9219 117.395V117.383L13.3789 117.559H13.3672L13.3555 117.57L10.707 117.688L10.6133 117.699L10.5312 117.688L7.98828 117.5L8 117.277V114.5H8.21094L10.6719 114.699L13.1797 114.582V114.57L15.8164 114.395H15.9102L18.5469 114.383L18.6406 114.371L18.7227 114.383L21.2305 114.664L23.7148 114.453L23.7617 114.441H23.8203L26.4688 114.418H26.4922L29.0469 114.43L31.6953 114.312L31.7773 114.301L31.8594 114.312L32.3672 114.346L32.251 112.578L32.2451 112.485L32.251 112.392L32.4023 109.827L32.3076 107.255L32.3018 107.099L32.3281 106.945L32.75 104.5L32.5264 102.057V102.054L32.29 99.4141L32.2783 99.29L32.2881 99.167L32.4873 96.5273L32.4883 96.5166L32.4893 96.5068L32.7139 93.9932L32.5098 91.4814L32.501 91.3789L32.5068 91.2773L32.6484 88.7334L32.4561 86.1924L32.457 86.1914L32.252 83.5557L32.2441 83.4463L32.252 83.3359L32.4287 80.8018L32.2607 78.2588L32.2578 78.2148V78.1709L32.2393 75.5303L32.2383 75.4111L32.2559 75.293L32.6426 72.7695L32.6357 70.2842L32.4971 67.6953L32.3301 65.0547L32.3242 64.9639L32.3291 64.873L32.4824 62.2334L32.4844 62.2031L32.4873 62.1729L32.7344 59.6621L32.5557 57.1465L32.5537 57.1084L32.5527 57.0693L32.5 54.4297L32.499 54.3848L32.501 54.3389L32.6055 51.793L32.3799 49.252L32.3662 49.0947L32.3857 48.9385L32.6992 46.3721L32.751 43.9668L34 43.9951V42.5H35.7842L35.7812 42.624L36.666 42.6914L39.208 42.5684V42.5693L40.5303 42.4795L40.7441 40.3906L40.2686 37.9688L40.2393 37.8203L40.2412 37.6689L40.2598 35.0293L40.2607 34.9092L40.2812 34.791L40.6992 32.3066L40.5947 29.8223L40.582 29.5088L40.6953 29.2168L41.4814 27.1943L41.9346 26.0293L43.1621 26.2637L45.5645 26.7246L47.9678 26.4141L48.0664 26.4004L48.166 26.4014L49.6768 26.4072L49.2764 24.2773L49.2344 24.0527L49.2607 23.8262L49.5547 21.3096L49.4258 18.7969L49.4209 18.7129L49.4258 18.6299L49.5771 16.1201L49.293 13.6084L49.21 12.8779L49.7373 12.3652L51.1533 10.9863L51.6279 10.5244L52.2891 10.5635L54.7803 10.7119L57.2734 10.3643L57.3916 10.3477L57.5117 10.3506L58.9053 10.3789L58.8125 8.48438L58.8008 8.37891L58.8125 8.27344L59 5.97656L59.2695 6ZM63.9336 99.8945H63.9219L61.3789 100.059H61.3672L61.3555 100.07L58.707 100.188L58.6133 100.199L58.5312 100.188L56.3486 100.026L56.4844 101.93V102.012L56.5078 104.602L56.6133 107.25L56.625 107.309L56.6133 107.367L56.5195 110.004V110.074L56.2852 112.723L56.3203 114.246L56.9678 114.539L57.4727 114.613L59.4707 114.549L59.54 114.546L59.6104 114.551L60.2461 114.589L60.7109 114.559V114.57L63.2891 114.289L63.4414 114.277L63.6055 114.289L64.0928 114.346L64.5 113.906L64.7109 111.938L64.4297 109.465L64.418 109.336V109.207L64.582 106.629L64.4414 104.086V103.969L64.4531 103.84L64.7344 101.438L64.4424 99.8916L63.9336 99.8945ZM78.9111 45.4043L78.8789 45.4053L78.8467 45.4043L76.9092 45.3613L76.6455 45.4932L76.2637 45.4785L73.6846 45.3818L71.1016 45.4873L71.0547 45.4893L69.499 45.5029L69.5811 46.334L69.6377 46.9189L69.2822 47.3867L68.0752 48.9785L67.6504 49.5371L66.9502 49.5693L64.3096 49.6924L64.2236 49.6963L64.1377 49.6904L61.5498 49.5137L58.9453 49.4893L58.8984 49.4873L56.3145 49.3818L53.7363 49.4785L53.3545 49.4932L53.0127 49.3232L51.1201 48.3838L50.2715 47.9619L50.2871 47.0156L50.3096 45.6113L49.9121 45.6094H49.8662L49.8203 45.6064L48.791 45.5371L47.3281 45.6631L47.1816 45.6758L47.0352 45.6592L44.4785 45.377L43.7217 45.3799L42.2139 45.4961L42.1572 45.5H40.5146L40.5137 45.4873L39.3799 45.5635L39.3662 45.5645L39.3516 45.5654L36.7119 45.6914L36.6191 45.6963L36.5264 45.6895L35.7148 45.627L35.6963 46.5127L35.6943 46.5879L35.6855 46.6621L35.3818 49.1465L35.6016 51.6279L35.6104 51.7246L35.6064 51.8213L35.5 54.415L35.5508 56.9609L35.7363 59.5732L35.7451 59.7002L35.7324 59.8271L35.4756 62.4307L35.3291 64.9521L35.4912 67.5049L35.4922 67.5127V67.5205L35.6328 70.1602L35.6348 70.1982V70.2354L35.6426 72.875L35.6436 72.9922L35.626 73.1074L35.2393 75.627L35.2559 78.1006L35.4287 80.7012L35.4346 80.8027L35.4277 80.9043L35.251 83.4346L35.4473 85.9639L35.4482 85.9678L35.6465 88.6074L35.6533 88.7051L35.6484 88.8027L35.5078 91.3359L35.7139 93.8789L35.7236 94.0059L35.7129 94.1328L35.4785 96.752L35.4795 96.7529L35.2881 99.2715L35.5137 101.783L35.7549 104.424L35.7734 104.62L35.7393 104.814L35.3105 107.297L35.4023 109.785L35.4053 109.856L35.4004 109.928L35.25 112.47L35.3662 114.234L35.8213 114.506L37.0508 114.512H37.0977L37.1699 114.515L38.2031 114.378L38.3721 114.356L38.541 114.372L40.7656 114.581L42.1836 114.535L44.832 114.289H44.9844L47.6211 114.336L47.6094 114.348H50.2695L51.9941 114.386L53.3145 114.303L53.2852 112.617V112.535L53.2969 112.453L53.5195 109.887L53.625 107.367L53.5078 104.73V104.684L53.4844 102.129L53.3086 99.4922V99.3164L53.4258 96.7617L53.4141 94.1133V94.0898L53.4492 91.4414L53.4609 91.1016L53.6133 90.7969L54.7617 88.4883L54.8789 88.2422L55.0781 88.0547L57 86.2734L57.3164 85.9805L57.75 85.8984L60.375 85.418L60.7383 85.3477L61.0898 85.4531L63.5977 86.2383L63.9258 86.332L64.1719 86.5664L66.0586 88.2891L66.3164 88.5234L66.4453 88.8633L66.9609 90.2461H67.5703L67.5117 91.8047L67.4531 93.5039L67.4297 96.1055V96.1523L67.418 96.1875L67.375 96.8711H67.4961V98.5H67.2744L67.2656 98.6367L67.7227 101.098L67.7695 101.32L67.7344 101.543L67.4414 104.039L67.5703 106.582L67.582 106.664L67.5703 106.746L67.418 109.277L67.7109 111.762L67.7227 111.926L67.7109 112.09L67.4756 114.287L70.0791 114.286H70.1006L70.123 114.287L72.7627 114.362L72.8125 114.363L72.8633 114.368L72.9111 114.372L73.8242 114.266L74.0586 114.23L74.2812 114.277L75.9014 114.579L77.9141 114.465L77.9873 114.461L78.0615 114.464L80.5498 114.564L80.7734 114.563L83.2236 114.473L83.2959 114.47L83.3682 114.474L83.8672 114.502L84.4199 114.49L84.4209 113.439V113.343L84.4336 113.246L84.7627 110.715L84.7266 108.302L84.2959 105.772L84.2734 105.639L84.2754 105.504L84.3027 102.864L84.3037 102.773L84.3154 102.683L84.6396 100.24L84.3086 97.8018L84.2861 97.6406L84.2998 97.4775L84.5039 94.9785L84.249 92.4727L84.2266 92.25L84.2695 92.0312L84.7568 89.54L84.7402 87.1719L84.3164 84.6484L84.29 84.4941L84.2969 84.3369L84.4072 81.6973L84.4102 81.6279L84.4199 81.5596L84.7432 79.1631L84.2842 76.7617L84.2393 76.5264L84.2695 76.2871L84.5977 73.748L84.5879 71.2422L84.5146 68.6016L84.5137 68.5928L84.4561 65.9531V65.9365L84.4268 63.3242L84.2559 60.7393L84.2432 60.5498L84.2783 60.3623L84.7324 57.9463L84.4521 55.5332L84.4375 55.4092L84.4434 55.2832L84.5732 52.7246L84.4199 50.1699L84.4121 50.04L84.4268 49.9111L84.707 47.4316L84.5479 45.9229L83.8223 45.6846L81.4297 45.3516L78.9111 45.4043ZM58.7227 88.7695L57.3281 90.082L56.4492 91.8281L56.4141 94.125L56.4258 96.7383V96.8203L56.417 97.0166L58.6719 97.1992L61.1797 97.082V97.0703L63.8164 96.8945H63.9102L64.3691 96.8916L64.4297 95.9883L64.4531 93.4336V93.3984L64.5 92.2148L63.7617 90.2344L62.4023 88.9922L60.5625 88.4297L58.7227 88.7695ZM46.3477 85.3438L47.1562 86.9727L47.7539 88.2031L46.5938 88.918L45.9258 89.3281L43.9336 90.5469L43.6523 88.2266L43.4062 86.1875L43.1953 84.5H45.9375L46.3477 85.3438ZM76.3477 85.3438L77.1562 86.9727L77.7539 88.2031L76.5938 88.918L75.9258 89.3281L73.9336 90.5469L73.6523 88.2266L73.4062 86.1875L73.1953 84.5H75.9375L76.3477 85.3438ZM46.3477 70.3438L47.1562 71.9727L47.7539 73.2031L46.5938 73.918L45.9258 74.3281L43.9336 75.5469L43.6523 73.2266L43.4062 71.1875L43.1953 69.5H45.9375L46.3477 70.3438ZM76.3477 70.3438L77.1562 71.9727L77.7539 73.2031L76.5938 73.918L75.9258 74.3281L73.9336 75.5469L73.6523 73.2266L73.4062 71.1875L73.1953 69.5H75.9375L76.3477 70.3438ZM46.3477 55.3438L47.1562 56.9727L47.7539 58.2031L46.5938 58.918L45.9258 59.3281L43.9336 60.5469L43.6523 58.2266L43.4062 56.1875L43.1953 54.5H45.9375L46.3477 55.3438ZM76.3477 55.3438L77.1562 56.9727L77.7539 58.2031L76.5938 58.918L75.9258 59.3281L73.9336 60.5469L73.6523 58.2266L73.4062 56.1875L73.1953 54.5H75.9375L76.3477 55.3438ZM57.3799 45.5635L57.3662 45.5645L57.3516 45.5654L54.7119 45.6914L54.6191 45.6963L54.5264 45.6895L53.3105 45.5967L53.3018 46.1172L54.0029 46.4658L56.2637 46.3818L56.3223 46.3799L56.3818 46.3818L59.0039 46.4893L61.6143 46.5146H61.6582L61.7021 46.5176L64.2627 46.6914L66.1084 46.6055L66.5371 46.041L66.498 45.6465L65.8623 45.6904L65.7764 45.6963L65.6904 45.6924L65.2344 45.6709L65.1816 45.6758L65.0742 45.6631L63.0957 45.5713L60.4893 45.5879H60.4629L57.8232 45.5576H57.7676L57.7119 45.5527L57.6367 45.5459L57.3799 45.5635ZM72.0889 29.5732L71.96 29.5879L71.8301 29.5801L70.6514 29.5088L70.6279 29.6006L69.4629 29.5879L66.8232 29.5576H66.7676L66.7412 29.5547L66.7168 29.5566L66.5908 29.5625L66.4668 29.5479L65.9268 29.4844L64.2158 29.3379L62.9121 29.4814L61.6377 29.7217L61.4502 29.7568L61.2607 29.7441L59.2471 29.6104L58.9121 29.6094H58.8662L58.8203 29.6064L58.2568 29.5684L56.0635 29.5439H56.0469L53.4072 29.4863L53.3984 29.4854L52.3975 29.457L52.3926 29.5H51V29.418L50.7578 29.4121L48.251 29.4023L45.7129 29.7305L45.4736 29.7607L45.2383 29.7158L43.8252 29.4463L43.6055 30.0117L43.7031 32.3369L43.71 32.4941L43.6836 32.6484L43.2588 35.1729L43.2422 37.541L43.7305 40.0312L43.7734 40.25L43.751 40.4727L43.5557 42.3818H43.5928L44.5264 42.3105L44.6191 42.3037L44.7119 42.3086L45.3506 42.3389L45.4355 40.6562L45.4238 40.668L45.4121 38.0312V37.9727L45.4824 35.3242L45.5059 34.4219L46.3145 34.0234L48.8457 32.7578L49.1621 32.7461L51.7871 32.6289L52.5371 32.5938L53.0176 33.1797L54.6113 35.1367L54.9746 35.5938L54.9395 36.1797L54.7637 38.8164L54.6348 41.3359L54.7031 42.377L55.0352 42.3408L55.1816 42.3242L55.3281 42.3369L55.6816 42.3662L55.7676 40.6562L55.7559 40.668L55.7441 38.0312V37.9727L55.8145 35.3242L55.8379 34.4219L56.6465 34.0234L59.1777 32.7578L59.4941 32.7461L62.1191 32.6289L62.8691 32.5938L63.3496 33.1797L64.9434 35.1367L65.3066 35.5938L65.2715 36.1797L65.0957 38.8164L64.9668 41.3359L65.0498 42.5918L65.6846 42.6182L65.7578 42.6152L66.0039 42.5938L66.1016 40.6562L66.0898 40.668L66.0781 38.0312V37.9727L66.1484 35.3242L66.1719 34.4219L66.9805 34.0234L69.5117 32.7578L69.8281 32.7461L72.4531 32.6289L73.2031 32.5938L73.6836 33.1797L75.2773 35.1367L75.6406 35.5938L75.6055 36.1797L75.4297 38.8164L75.3008 41.3359L75.3672 42.3408L76.2373 42.3457L76.6973 42.1182L76.6699 40.4248V40.417L76.6689 40.4092L76.6533 37.793L76.5957 35.1533L76.5947 35.1211L76.5957 35.0889L76.6475 32.5703L76.3145 30.1777L76.0762 29.4521L74.5674 29.293L72.0889 29.5732ZM49.6074 35.7227L48.459 36.2969L48.4121 38.0547L48.4238 40.6445L48.4355 40.6914L48.4238 40.7266L48.3457 42.5L48.7617 42.5283L49.7119 42.4473L49.7676 42.4424H49.8232L51.708 42.4199L51.6465 41.4531L51.6348 41.3711L51.6465 41.2891L51.7637 38.6523L51.7754 38.6289V38.6172L51.916 36.5664L51.166 35.6523L49.6074 35.7227ZM70.2734 35.7227L69.125 36.2969L69.0781 38.0547L69.0898 40.6445L69.1016 40.6914L69.0898 40.7266L69.0186 42.335L69.1885 42.3213L69.1992 42.4365L70.8281 42.293L70.9062 42.2861L70.9844 42.2871L72.3672 42.3096L72.3125 41.4531L72.3008 41.3711L72.3125 41.2891L72.4297 38.6523L72.4414 38.6289V38.6172L72.582 36.5664L71.832 35.6523L70.2734 35.7227ZM59.9395 35.7227L58.791 36.2969L58.7441 38.0547L58.7559 40.6445L58.7676 40.6914L58.7559 40.7266L58.6836 42.3652L59.4521 42.418L59.8203 42.3936L59.8662 42.3906H59.9121L62.0381 42.3789L61.9785 41.4531L61.9668 41.3711L61.9785 41.2891L62.0957 38.6523L62.1074 38.6289V38.6172L62.248 36.5664L61.498 35.6523L59.9395 35.7227ZM65.4248 13.3301H65.417L65.4092 13.3311L62.792 13.3467H62.793L62.3193 13.3564L62.3398 13.5H60.5V13.3965L60.1533 13.4043L60.1211 13.4053L60.0889 13.4043L57.5693 13.3525L55.0469 13.7031L54.8994 13.7236L54.751 13.7148L52.7715 13.5986L52.3564 14.002L52.5732 15.9111L52.5879 16.04L52.5801 16.1699L52.4258 18.7256L52.5566 21.2832L52.5625 21.4092L52.5479 21.5332L52.2666 23.9473L52.7217 26.3623L52.7227 26.3721L53.5264 26.3105L53.6191 26.3037L53.7119 26.3086L56.3516 26.4346L56.3662 26.4355L56.3799 26.4365L58.3623 26.5684L58.7363 26.5732H58.7773L58.8193 26.5762L59.0889 26.5928L58.9414 24.3789V24.3672L58.9297 24.3555L58.8125 21.707L58.8008 21.6133L58.8125 21.5312L59 18.9883L59.1406 19H62V19.2109L61.8008 21.6719L61.918 24.1797H61.9297L62.0879 26.5547L62.4561 26.5146L63.7227 26.2764L63.9473 26.2344L64.1738 26.2607L66.2168 26.499L66.7959 26.5488L68.3604 26.4688L68.5801 25.6465L68.6914 23.2637L68.5176 20.7021L68.5146 20.6582V20.6143L68.4893 18.0049L68.3818 15.3818L68.3799 15.3223L68.3818 15.2637L68.4424 13.624L67.7236 13.293L65.4248 13.3301Z" fill="black"/>
</svg>
