<svg width="120" height="120" viewBox="0 0 120 120" fill="none" xmlns="http://www.w3.org/2000/svg">
<path d="M59.1406 10H62V10.2109L61.8008 12.6719L61.918 15.1797H61.9297L62.1055 17.8164V17.9102L62.1123 19.5371L63.4648 20.4805L63.5117 20.5039L63.5586 20.5391L65.5391 22.1445L67.707 23.3047L68.1289 23.5273L68.3398 23.9492L69.4531 26.1289L69.6289 26.4922L69.6055 26.9023L69.4297 29.5508L69.3008 32.0586L69.3662 32.9902L69.6992 33.2852L71.7617 34.7031L71.8086 34.7266L71.8555 34.7617L71.9375 34.832L72.5234 35.3008L72.5 36.0391L72.4766 36.7656V36.8594L72.2422 39.2852L72.6758 41.7461L72.6992 41.9102L72.6875 42.0625L72.5938 44.5586L72.7461 47.1953L72.7578 47.2891L72.7461 47.3828L72.582 49.8438L72.7109 52.4922L72.7227 52.6211L72.6992 52.7617L72.3711 55.2109L72.6055 57.707L72.6172 57.8008V57.9062L72.5117 60.543L72.4297 63.0039L72.626 65.4756L73.2812 65.4961L75.918 65.543L75.9062 65.5547L78.543 65.5781H79.0234L79.4102 65.8594L81.3672 67.2891L83.6172 68.4844L83.8164 68.5898L83.9805 68.7539L85.7383 70.5469L87.8008 72.0234L87.8711 72.0703L87.9297 72.1289L89.8867 73.8984L92.4648 76.2305L89.0078 76.5117L86.5586 76.7109L86.418 76.7227L86.2891 76.7109L83.7109 76.4297V76.4414L81.2148 76.2773L78.7305 76.6406L78.6133 76.6523H78.4844L75.8711 76.5938L73.2695 76.6523H72.5713L72.6621 78.2432L74.9707 78.2598L75.0908 78.2607L75.209 78.2812L77.6934 78.6992L80.1123 78.5977L82.6797 78.251L82.9219 78.2178L83.1621 78.2637L85.5645 78.7246L87.9678 78.4141L88.0664 78.4004L88.166 78.4014L90.8066 78.4121L90.8242 78.4131H90.8418L93.4814 78.4873L94.623 78.5186L94.8965 79.6279L95.4121 81.7207L95.458 81.9062L95.4561 82.0967L95.4268 84.7363V84.7773L95.4238 84.8193L95.3184 86.4111L97.834 86.4014L97.9336 86.4004L98.0322 86.4141L100.544 86.7393L103.196 86.6211L104.989 86.542L104.749 88.3203L104.402 90.8867L104.301 93.3057L104.719 95.791L104.739 95.9092L104.74 96.0293L104.759 98.6689L104.761 98.8203L104.731 98.9688L104.256 101.39L104.503 103.808L104.517 103.945L104.505 104.082L104.303 106.56L104.64 109.038L104.666 109.237L104.64 109.438L104.301 111.988L104.276 114.254L105.664 114.242H105.816L105.969 114.266L108.406 114.746L110.809 114.5L110.891 114.488H110.973L112.016 114.5L112.004 116L111.98 117.5L110.984 117.488L108.477 117.746L108.254 117.77L108.031 117.734L105.57 117.242L103.145 117.254L100.648 117.688L100.496 117.711L100.332 117.699L97.6953 117.594H97.625L97.5547 117.582L95.1523 117.242L94.7617 117.318L94.4336 117.496L94.1172 117.66L93.7539 117.672L92.9023 117.683L92.7617 117.711L92.5273 117.758L92.293 117.734L91.9893 117.695L91.1172 117.707L91.0352 117.719L90.9531 117.707L88.3984 117.473L88.3867 117.484L86.7695 117.419L84.6055 117.488H84.5938L81.957 117.547H81.9336L79.3672 117.559L79.3789 117.57L76.7422 117.746L76.5547 117.758L73.9297 117.266L71.5391 117.547L71.4102 117.559H71.2812L70.124 117.494L68.5742 117.648L68.3984 117.66L68.2344 117.637L67.2969 117.509L66.1719 117.582H66.043L65.9141 117.57L64.457 117.405L63.2773 117.508L63.0195 117.531L62.7734 117.461L62.498 117.389L61.7822 117.468L61.7617 117.625L60.957 117.558V117.559H60.8867L58.25 117.711L58.0977 117.723L57.957 117.699L56.4561 117.491L55.3867 117.637L55.1875 117.672L54.9883 117.637L53.2451 117.397L52.9062 117.406H52.8477L50.2109 117.348V117.336H47.5742L44.9492 117.289L42.4531 117.512L42.418 117.523H42.3711L39.7344 117.617H39.6172L36.9805 117.512V117.5L34.3906 117.488H34.3438L34.2969 117.477L33.1914 117.4L31.1133 117.484L31.1016 117.473L28.5469 117.707L28.4648 117.719L28.3828 117.707L25.7461 117.672L25.3828 117.66L25.0664 117.496L24.9258 117.42L23.9609 117.43L21.3242 117.664L21.1836 117.676L21.0312 117.664L18.5 117.383L15.9219 117.395V117.383L13.3789 117.559H13.3672L13.3555 117.57L10.707 117.688L10.6133 117.699L10.5312 117.688L7.98828 117.5L8 117.277V114.5H8.21094L10.6719 114.699L13.1797 114.582V114.57L14.8037 114.462L14.6572 112.857L14.6553 112.832L14.4561 110.192L14.457 110.191L14.252 107.556L14.2441 107.446L14.252 107.336L14.4287 104.802L14.2607 102.259L14.2578 102.215V102.171L14.2393 99.5303L14.2383 99.4111L14.2559 99.293L14.6426 96.7695L14.6357 94.2842L14.4971 91.6953L14.3301 89.0547L14.3184 88.873L14.3506 88.6943L14.5234 87.7334L14.7461 86.5H16.1572L16.2139 86.5039L18.666 86.6914L21.208 86.5684V86.5693L23.8203 86.3936L23.8662 86.3906H23.9121L24.4434 86.3877L24.2959 83.9307L24.29 83.834L24.2959 83.7383L24.4756 81.0977L24.5264 80.3662L25.1348 79.9561L26.6016 78.9678L26.9824 78.7109L27.4414 78.7119L30.0703 78.7139L32.6357 78.6406L35.2168 78.3926L35.3311 78.3818L35.4463 78.3887L38.0137 78.5361L40.5791 78.4307L40.6377 78.4287L40.6963 78.4307L43.2676 78.5273L45.832 78.376L45.9346 78.3691L46.0371 78.3779L47.4082 78.4844L47.3711 77.3477L47.3594 77.2188L47.3828 77.0898L47.458 76.5635L46.8203 76.5586H46.7617L46.7148 76.5469L44.2305 76.3359L41.7227 76.6172L41.6406 76.6289L41.5469 76.6172L38.9102 76.6055H38.8164L36.1797 76.4297V76.418L33.6719 76.3008L31.2109 76.5H31L30.7656 74.543L30.1094 73.9102L31.9492 72L32.0312 71.918L32.1133 71.8477L34.1992 70.2305L34.293 70.1602L34.3867 70.1016L36.6133 68.8828L38.5586 67.2891L38.582 67.2656L40.6445 65.6602L41.1484 65.2734L41.7695 65.3555L44.2305 65.707L46.7266 65.4961L46.8672 65.4844L46.9961 65.4961L47.5342 65.5527L47.4883 64.1523L47.3828 61.5156V61.4219L47.3945 61.3164L47.6289 58.8203L47.3008 56.3828L47.2773 56.2422L47.2891 56.1016L47.418 53.4648L47.2539 51.0039L47.2422 50.9102L47.2539 50.8164L47.4062 48.1797L47.3125 45.6719L47.3008 45.5195L47.3242 45.3672L47.7578 42.9062L47.5234 40.4805L47.2891 37.832L47.2773 37.6797L47.2891 37.5273L47.4883 35.8281L47.6523 34.5039H48.5781L50.4648 33.4375L51.5459 32.6426L51.6992 30.3359L51.5703 27.793V27.6875L51.6289 25.0508L51.6406 24.3359L52.2148 23.9023L54.3125 22.2969L54.3711 22.2383L54.4531 22.1914L56.5977 20.9023L58.4609 19.2266L59.1055 18.6406V17.9219L58.9414 15.3789V15.3672L58.9297 15.3555L58.8125 12.707L58.8008 12.6133L58.8125 12.5312L59 9.98828L59.1406 10ZM95.2412 89.4111L92.8945 89.4766L92.6787 89.5869L92.2754 89.791L91.8262 89.7393L90.1211 89.54L89.9531 89.5439H89.9365L87.3242 89.5723L84.7393 89.7441L84.5498 89.7568L84.3623 89.7217L83.2793 89.5176L81.6084 89.707L81.4463 89.7256L81.2832 89.708L79.6406 89.5352L79.5332 89.5479L79.4092 89.5625L79.2832 89.5566L76.7246 89.4258L74.1699 89.5801L74.0918 89.584L73.7266 89.6357L73.6084 89.6523L73.4883 89.6494L72.3818 89.626L72.6055 92.0195L72.6172 92.1367V92.2539L72.4648 94.8906L72.5 95.7324L73.8047 95.875L74.2734 95.9336L74.625 96.2383L76.6523 97.9961L76.9805 98.2773L77.1094 98.7109L77.8242 101.195L77.8945 101.406L77.8828 101.617V104.195L78.1641 106.727L78.1758 106.867L78.1641 107.02L77.9414 109.656L77.9062 112.164H77.918L77.9229 113.31L79.7627 113.362L79.8125 113.363L79.8633 113.368L82.3848 113.609L82.9971 113.574L82.9844 112.129L82.8086 109.492V109.316L82.9258 106.762L82.9141 104.113V104.09L82.9492 101.441L82.9609 101.102L83.1133 100.797L84.2617 98.4883L84.3789 98.2422L84.5781 98.0547L86.5 96.2734L86.8164 95.9805L87.25 95.8984L89.875 95.418L90.2383 95.3477L90.5898 95.4531L93.0977 96.2383L93.4258 96.332L93.6719 96.5664L95.5586 98.2891L95.8164 98.5234L95.9453 98.8633L96.6484 100.75L96.6836 100.785L97.293 101.301L97.2109 102.086L96.9297 104.652L96.9414 104.664L96.7773 107.148L97.1406 109.645L97.1523 109.762V109.879L97.0938 112.527L97.1172 113.61L98.2842 113.763L100.562 113.729L101.286 113.465L101.303 111.864L101.304 111.773L101.315 111.683L101.64 109.24L101.309 106.802L101.286 106.641L101.3 106.478L101.504 103.979L101.249 101.473L101.227 101.25L101.27 101.031L101.757 98.54L101.74 96.1719L101.316 93.6484L101.29 93.4941L101.297 93.3369L101.407 90.6973L101.41 90.6279L101.42 90.5596L101.536 89.6973L100.546 89.7412L100.416 89.7471L100.287 89.7305L97.748 89.4014L95.2412 89.4111ZM36.7246 89.6133L36.6387 89.623H36.5527L33.9121 89.6094H33.8662L33.8203 89.6064L31.6689 89.4609L29.3281 89.6631L29.1816 89.6758L29.0352 89.6592L27.0078 89.4346L26.2139 89.4961L26.1572 89.5H24.2764L24.2822 89.3877L23.9795 89.3896L21.3799 89.5635L21.3662 89.5645L21.3516 89.5654L18.7119 89.6914L18.6191 89.6963L18.5264 89.6895L17.3701 89.6006L17.4912 91.5049L17.4922 91.5127V91.5205L17.6328 94.1602L17.6348 94.1982V94.2354L17.6426 96.875L17.6436 96.9922L17.626 97.1074L17.2393 99.627L17.2559 102.101L17.4287 104.701L17.4346 104.803L17.4277 104.904L17.251 107.435L17.4473 109.964L17.4482 109.968L17.6445 112.583L17.7168 113.38L18.8789 113.286L19.0059 113.276L19.1328 113.287L21.752 113.521H21.7529L22.3818 113.567L22.4062 112.527L22.3477 109.879V109.762L22.3594 109.645L22.7227 107.148L22.5586 104.664L22.5703 104.652L22.2891 102.086L22.207 101.301L22.8164 100.785L22.8516 100.75L23.5547 98.8633L23.6836 98.5234L23.9414 98.2891L25.8281 96.5664L26.0742 96.332L26.4023 96.2383L28.9102 95.4531L29.2617 95.3477L29.625 95.418L32.25 95.8984L32.6836 95.9805L33 96.2734L34.9219 98.0547L35.1211 98.2422L35.2383 98.4883L36.3867 100.797L36.5391 101.102L36.5508 101.441L36.5859 104.09V104.113L36.5742 106.762L36.6914 109.316V109.492L36.5156 112.129L36.5 113.691L37.4697 113.749L40.0215 113.582L40.1094 113.576L40.1973 113.581L41.5742 113.651L41.582 112.164H41.5938L41.5586 109.656L41.3359 107.02L41.3242 106.867L41.3359 106.727L41.6172 104.195V101.617L41.6055 101.406L41.6758 101.195L42.3906 98.7109L42.5195 98.2773L42.8477 97.9961L44.875 96.2383L45.2266 95.9336L45.6953 95.875L47.3887 95.6904L47.3945 95.6406L47.6406 93.0039L47.7109 90.5078V89.6182L47.6777 89.6201L47.6182 89.6182L46.5654 89.5742L44.4893 89.5879H44.4629L41.8232 89.5576H41.7676L41.7119 89.5527L39.2158 89.3379L36.7246 89.6133ZM62.582 32.043V32.0664L62.5703 34.7031L62.6875 37.2695L62.6992 37.3516L62.6875 37.4453L62.5117 40.082L62.4902 42.3506L62.5156 44.1719L62.6211 46.8086V46.9258L62.5527 48.6309L62.7109 50.4062V50.5586L62.6641 53.207L62.6523 55.832V55.8555L62.5938 58.4922L62.6523 61.0703V61.1875L62.6406 61.3047L62.4033 62.9209L62.7031 65.1484L62.7266 65.2891L62.7148 65.4414L62.5859 67.6689L62.7109 68.8633L62.7227 69.0273L62.7109 69.1914L62.418 71.6641L62.4258 71.8066L62.5742 73.1055L62.5859 73.2344L62.5742 73.3633L62.5469 73.8174L62.5703 74.207L62.582 74.2891L62.5703 74.3711L62.4561 76.6006L62.4941 77.3477L62.7344 79.3984L62.7695 79.6328L62.7227 79.8555L62.3701 81.6865L62.7266 83.5586L62.7617 83.7461L62.75 83.9336L62.5742 86.5703L62.5391 89.125V89.1484L62.5146 90.2246L62.582 92.7344V92.7695L62.5938 95.4062V95.5117L62.582 95.6055L62.4102 96.9033V96.9297L62.7266 99.4844L62.7617 99.7188L62.7148 99.9531L62.6797 100.133L62.7344 100.41L62.7812 100.656L62.7461 100.902L62.4062 103.446L62.5859 104.758V104.816L62.5977 104.887L62.7031 107.535L62.7148 107.688L62.6797 107.84L62.6553 107.979L62.7227 108.367L62.7344 108.484V108.602L62.7578 111.25V111.402L62.7344 111.543L62.376 113.382L62.3789 113.399L63.9609 113.631L66.4707 113.549L66.54 113.546L66.6104 113.551L69.1553 113.704L69.2803 113.695L69.2773 113.301V113.172L69.3008 113.031L69.7344 110.512L69.7695 108.098L69.4297 105.555L69.418 105.402L69.4297 105.25L69.6289 102.695L69.4766 100.176L69.4648 100.105L69.4766 100.035L69.5703 97.5039L69.4648 94.8672V94.7148L69.6172 92.2188L69.3711 89.6641L69.3594 89.6172V89.5703L69.2891 86.9336V84.1094L69.5352 81.4727L69.7109 78.9531L69.5469 76.4219V76.2812L69.6406 73.7852L69.2656 71.2656L69.2422 71.1133L69.2539 70.9492L69.418 68.3125V68.2773L69.6523 65.7461L69.4414 63.25L69.4297 63.168L69.4414 63.0859L69.5117 60.4375V60.4258L69.6172 57.918L69.3711 55.3516L69.3594 55.1758L69.3828 55.0117L69.7109 52.5039L69.582 50.0078V49.832L69.7578 47.2656L69.5938 44.7344V44.5938L69.6992 42.1445L69.2656 39.625L69.2305 39.4258L69.2422 39.2266L69.4766 36.7539L67.9766 35.7461L67.8945 35.6875L67.8242 35.6289L67.0332 34.9307L66.5352 35.0352L66.5117 34.9297L66.4883 34.8359V34.7305L66.4668 34.4326L65.8438 33.8828L65.8203 33.8594L63.875 32.0781L62.5723 31.0234L62.582 32.043ZM27.5977 98.9922L26.2383 100.234L25.5 102.238L25.3594 102.602L25.5586 104.418V104.488L25.7109 107.125L25.7227 107.277L25.6992 107.418L25.3477 109.938L25.4062 112.457V112.527L25.376 113.611L26.7832 113.486L29.4238 113.245L29.6201 113.227L29.8145 113.261L32.2969 113.688L33.4961 113.645L33.5156 112.012V111.93L33.6914 109.457L33.5742 106.82V106.738L33.5859 104.125L33.5508 101.828L32.6719 100.082L31.2773 98.7695L29.4375 98.4297L27.5977 98.9922ZM58.4688 31.3398L56.4297 32.6992L56.4414 32.7109L54.3438 34.3164L54.3203 34.3281L52.1992 35.8984L52.1172 35.957L52.0352 36.0039L50.3828 36.9297L50.2891 37.7383L50.5117 40.2109L50.7578 42.8477L50.7695 43.0469L50.7344 43.2344L50.3008 45.7656L50.4062 48.2031V48.3555L50.2422 50.8867L50.418 53.4414V53.6172L50.2891 56.1133L50.6172 58.6211L50.6406 58.7969L50.6289 58.9609L50.3828 61.5391L50.4883 64.0469V64.0586L50.5586 66.6953L50.5703 66.7773L50.5586 66.8594L50.3477 69.3555L50.582 71.8867V71.9336L50.7461 74.5703L50.7578 74.7227L50.7344 74.875L50.3594 77.3945L50.4531 79.8906V80.0312L50.2891 82.5625L50.4648 85.082L50.7109 87.7305V90.543L50.6406 93.1797V93.2383L50.6289 93.2852L50.3828 95.8281L50.5352 98.3359V98.4883L50.4297 101.125L50.5234 103.645L50.5352 103.715L50.5234 103.785L50.3711 106.305L50.5703 108.859L50.582 109.023L50.5703 109.176L50.2305 111.707L50.2617 113.53L50.624 113.518L50.6348 113.517L53.2744 113.437L53.3564 113.434L53.4385 113.44L55.9531 113.64L58.4688 113.42L58.4873 113.418L58.5068 113.417L59.3086 113.366L59.2695 113.16L59.2344 113.02L59.2461 112.867L59.2578 110.219V110.102L59.2812 109.984L59.6152 108.024L59.3125 106.223L59.2891 106.07L59.3008 105.918L59.3936 103.566L59.2461 102.52L59.2227 102.273L59.2695 102.027L59.6318 100.139L59.2891 98.3359L59.2422 98.1016L59.2656 97.8672L59.3994 96.791L59.4102 94.3867V94.3516L59.4922 91.7148L59.5166 90.3369L59.5117 90.1797V90.168L59.4531 87.5312V87.5195L59.4297 84.9531L59.2539 82.3164L59.2422 82.1289L59.2773 81.9414L59.3223 81.6934L59.2812 81.4727L59.2344 81.25L59.2578 81.0156L59.5625 78.4492L59.5195 77.707L59.4531 77.1133L59.4414 76.9844V76.8555L59.4561 76.5869L59.4219 75.9883V75.8242L59.5508 73.8154L59.4336 71.9902L59.293 70.7969L59.2695 70.6445L59.293 70.4805L59.5625 67.9023L59.5703 67.7695L59.4414 66.5312V66.4609L59.2891 63.8242L59.2773 63.6836L59.3008 63.5312L59.373 62.9912L59.3633 62.9219L59.3516 62.8047V62.6875L59.4102 60.1094L59.3516 57.4609V57.4375L59.3281 54.8242L59.293 52.1758L59.2812 52.1055L59.293 52.0234L59.5156 49.457L59.5469 48.6904L59.4883 48.0273L59.4766 47.9922V47.957L59.3828 45.3086V45.1914L59.4883 42.5547L59.4893 42.3398L59.4805 41.6055L59.4922 41.5938L59.3047 39.0508V38.8867L59.4336 36.3203L59.4102 33.6836V33.6602L59.4453 31.0117V30.9062L59.4521 30.8262L58.4688 31.3398ZM88.2227 98.7695L86.8281 100.082L85.9492 101.828L85.9141 104.125L85.9258 106.738V106.82L85.8086 109.457L85.9844 111.93V112.012L86.001 113.501L87.6445 113.568L90.2236 113.473L90.2959 113.47L90.3682 113.474L92.9043 113.623L94.1211 113.527L94.0938 112.527V112.457L94.1523 109.938L93.8008 107.418L93.7773 107.277L93.7891 107.125L93.9414 104.488V104.418L94.1406 102.602L94 102.238L93.2617 100.234L91.9023 98.9922L90.0625 98.4297L88.2227 98.7695ZM46.4805 98.8047L45.1445 99.9648L44.6172 101.781V104.242L44.6289 104.324L44.6172 104.418L44.3359 106.926L44.5469 109.398L44.5586 109.457V109.516L44.582 112.152V112.176L44.5752 113.46L45.2031 113.378L45.3721 113.356L45.541 113.372L47.2637 113.534L47.2305 111.648V111.531L47.2422 111.426L47.582 108.953L47.3828 106.457L47.3711 106.352V106.258L47.5352 103.645L47.4297 101.113V100.996L47.5234 98.6895L46.4805 98.8047ZM72.4648 100L72.6289 102.637V102.742L72.6172 102.848L72.418 105.332L72.7578 107.816L72.7695 107.922V108.027L72.7227 110.664V110.781L72.6992 110.898L72.2773 113.383V113.478L74.3047 113.295L74.3721 113.289L74.4385 113.288L74.9229 113.287L74.918 112.176V112.152L74.9414 109.516V109.457L74.9531 109.398L75.1641 106.926L74.8828 104.418L74.8711 104.324L74.8828 104.242V101.781L74.3555 99.9648L73.0195 98.8047L72.5176 98.749L72.4648 100ZM43.3682 81.5264L43.2959 81.5303L43.2236 81.5273L40.6445 81.4316L38.0615 81.5361L37.9873 81.5391L37.9141 81.5352L35.3848 81.3906L32.8633 81.6318L32.8125 81.6367L32.7627 81.6377L30.123 81.7129L30.1006 81.7139H30.0791L27.8965 81.7129L27.418 82.0352L27.2949 83.8447L27.4492 86.3896V86.3926L28.5264 86.3105L28.6191 86.3037L28.7119 86.3086L31.3516 86.4346L31.3662 86.4355L31.3799 86.4365L31.6367 86.4531L31.7119 86.4473L31.7676 86.4424H31.8232L34.4629 86.4121H34.4893L37.0957 86.4287L39.0742 86.3359L39.1816 86.3242L39.2344 86.3281L39.6904 86.3076L39.7764 86.3037L39.8623 86.3096L42.4492 86.4863L45.0547 86.5107L45.1016 86.5127L46.6133 86.5742L47.1104 86.5713H47.1504L47.1895 86.5732L47.5918 86.5918L47.4766 85.3516V85.3281L47.3008 82.6797L47.2891 82.5859L47.3008 82.4922L47.3584 81.4902L45.9043 81.377L43.3682 81.5264ZM72.5234 81.707V81.7422L72.2891 84.25V86.3691L74.0205 86.5654L75.9531 86.2969L76.1006 86.2764L76.249 86.2852L78.8887 86.4414L78.9229 86.4434L78.957 86.4473L79.625 86.5176L81.8262 86.2607L82.0527 86.2344L82.2773 86.2764L83.3887 86.4854L83.9111 86.4268L84.04 86.4121L84.1699 86.4199L86.7246 86.5742L89.2832 86.4434L89.4092 86.4375L89.5332 86.4521L90.2588 86.5361L92.1426 86.4941L92.3115 86.4092L92.4268 84.6758L92.4531 82.2559L92.2559 81.4541L90.7578 81.4121L88.251 81.4023L85.7129 81.7305L85.4736 81.7607L85.2383 81.7158L82.8359 81.2568L80.4404 81.5801L80.3721 81.5898L80.3027 81.5928L77.6631 81.7031L77.5059 81.71L77.3516 81.6836L74.8271 81.2598L72.5537 81.2432L72.5234 81.707ZM72.4062 68.5352L72.2422 70.9727L72.6172 73.4688L72.6406 73.5977L72.6348 73.6641H73.2109V73.6523L75.8477 73.5938H75.9062L78.4141 73.6523L80.957 73.3008L81.0977 73.2773L81.25 73.2891L83.8867 73.4414H83.957L84.7422 73.5352L83.8984 72.9141L83.8047 72.8438L83.7109 72.75L82.0117 71.0391L79.832 69.8672L79.7383 69.8203L79.6445 69.7617L78.0273 68.5781L75.8711 68.543H75.8477L73.2109 68.4844H73.1992L72.4121 68.4629L72.4062 68.5352ZM40.457 69.6094L38.4062 71.2852L38.3008 71.3672L38.1836 71.4375L35.9453 72.668L35.043 73.3828L36.3555 73.4297L36.3672 73.4414H36.3789L38.9219 73.6172V73.6055L41.5 73.6172L44.0312 73.3359L44.1836 73.3242L44.3242 73.3359L46.9609 73.5703L47.6826 73.5762L47.5938 72.1562L47.3594 69.5078L47.3477 69.3906L47.3594 69.2617L47.4141 68.5664L46.8086 68.5078L44.3242 68.6953L44.1602 68.7188L44.0078 68.6953L41.9805 68.4258L40.457 69.6094ZM61.8359 23.2305L62.0469 25.7148L62.0586 25.7617V25.8203L62.0732 27.1719L63.5586 27.9883L63.6758 28.0586L63.7695 28.1406L65.832 29.8047L65.8672 29.8281L65.9023 29.8633L66.3877 30.3076L66.4297 29.375L66.4414 29.3516L66.5938 27.125L65.8906 25.7305L63.957 24.7109L63.8281 24.6406L63.7109 24.5469L61.8574 23.0352L61.8359 23.2305ZM58.2734 23.3984L56.0469 24.7227L54.6055 25.8359L54.5703 27.7578L54.6865 30.2773L54.6953 30.2734L56.875 28.7969L56.957 28.75L57.0273 28.7031L58.4873 27.9463L58.4844 27.5469L58.3086 24.9102V24.7344L58.3701 23.3447L58.2734 23.3984Z" fill="black"/>
</svg>
