<svg width="120" height="120" viewBox="0 0 120 120" fill="none" xmlns="http://www.w3.org/2000/svg">
<path d="M61.1387 9.53516H61.2793L61.4199 9.55859L63.752 10.0156L65.9668 9.73438L66.2363 9.69922L66.5059 9.76953L68.9551 10.3672L71.5215 10.4844L71.6621 10.4961L71.8145 10.5312L74.2754 11.1523H74.2871L76.8887 11.6562L77.0645 11.6797L77.2285 11.7617L79.6426 12.8516H79.6309L82.0215 13.8711L82.3379 14.0117L82.5723 14.2695L84.3066 16.3203L84.5996 16.6484L84.6582 17.082L85.0215 19.6484L85.5488 22.2266V22.2617L85.5605 22.2969L85.959 24.9102L86.416 27.4766V27.4883L86.8379 29.9375L87.541 32.4922V32.5273L87.5527 32.5625L88.1387 35.1289L88.1621 35.2461L88.5488 37.8125H88.5605L89.0176 40.4141L89.0293 40.4492L89.041 40.4961L89.334 42.957L89.9551 45.5234L89.9668 45.5586V45.6055L90.4473 48.1953L90.4707 48.2891V48.3711L90.6465 50.9375L90.6699 51.3711L90.459 51.7578L89.3105 53.8438L88.6309 55.8594L88.6816 56.7139L89.998 56.4766L90.2676 56.4297L90.5254 56.4766L93.127 56.957L93.5488 57.0273L93.877 57.332L95.7754 59.1133L96.0684 59.3828L96.1855 59.7695L96.959 62.2539L96.9824 62.3477L97.0059 62.4531L97.4043 65.043L97.4395 65.207L97.4277 65.3711L97.252 67.9844V68.0547L97.2402 68.125L96.8418 70.7266L96.8301 70.7617V70.7852L96.3027 73.3867L96.2559 73.6211L96.1387 73.832L94.8379 76.1523L93.5488 78.4375L93.4902 78.543L93.4082 78.6484L91.7441 80.6875L91.5566 80.9102L91.2988 81.0508L88.9316 82.3281L88.5684 82.5273L88.1465 82.5039L86.6719 82.4297L85.9941 84.0273L85.7598 86.4648L85.7363 86.7344L85.6191 86.9688L84.4473 89.3711L83.5332 91.7031L83.5215 91.7383L83.5098 91.7617L82.4551 94.1758L82.4316 94.2344L82.3965 94.293L81.1426 96.6133L81.1074 96.6836L81.0605 96.7422L79.5723 98.9219L79.5605 98.9453L79.5371 98.9688L77.9785 101.113L77.8262 101.312L77.6152 101.453L75.5645 102.871L73.8887 104.734L73.7598 104.875L73.5957 104.98L71.3691 106.422L71.3574 106.41L69.002 107.98L68.791 108.051L66.2715 108.836L66.2129 108.848L66.166 108.859L63.6816 109.445L63.2129 109.562L62.7676 109.375L60.4824 108.449L58.9824 108.285L57.7168 109.668L57.2363 110.195L56.5332 110.16L54.084 110.02L53.8496 110.008L53.6387 109.926L51.1895 109.012L51.1191 108.988L51.0371 108.953L48.6934 107.758L48.5527 107.688L46.373 106.27L46.3145 106.246L46.2676 106.211L44.1699 104.605L44.0762 104.535L42.1074 102.766V102.754L40.1504 100.984L40.0801 100.926L40.0098 100.844L38.3105 98.8398V98.8516L36.5879 96.8711L36.5059 96.7773L36.4355 96.6602L35.0762 94.4102L35.0527 94.3633L35.0176 94.3047L33.8574 91.9375L32.6855 89.5586L32.6035 89.3828L32.5684 89.207L32.041 86.7109L31.3262 84.25L30.7012 82.3945L28.4883 82.3164L28.125 82.3047L27.8086 82.1289L25.5 80.8281L25.2656 80.6992L25.1016 80.5L23.3789 78.5078L23.25 78.3555L23.1562 78.168L22.0547 75.7891L20.9297 73.4219L20.8711 73.293L20.8359 73.1641L20.1562 70.6211L20.1328 70.5508L20.1211 70.4688L19.6992 67.8789V67.832L19.3477 65.1953L19.3125 64.9258L19.3711 64.668L19.9688 62.0781L19.9922 61.9492L20.0508 61.8203L21.082 59.4531L21.2109 59.1719L21.4336 58.9609L23.3086 57.168L23.6719 56.8398L24.1523 56.7695L26.8008 56.418L27.082 56.3828L27.3633 56.4531L28.1328 56.6416L28.0918 55.8945L27.6465 53.9258L26.3809 52.1094L26.041 51.6172L26.123 51.0312L26.5215 48.4062L26.9199 45.793V45.7344L26.9434 45.6758L27.5527 43.1328L27.9277 40.6133L27.9512 40.4727L28.5605 38L28.8418 35.4805L28.8652 35.3281L28.9121 35.1758L29.6738 32.7852L30.084 30.3828L30.1191 27.8047V27.6641L30.1543 27.5352L30.6465 24.9453L30.6582 24.8633L30.6934 24.7812L31.4199 22.4258L31.5371 19.9648L31.5488 19.7539L31.6191 19.5547L32.4512 17.0352L32.498 16.8828L32.5801 16.7539L33.9512 14.4336L34.2324 13.9414L34.7832 13.7656L37.3496 12.9453L39.7285 12.125L42.1074 11.0586L42.2949 10.9766L42.4941 10.9414L45.1074 10.543L45.3184 10.5195L47.7441 10.4961L50.1113 9.73438L50.3574 9.65234L50.6152 9.66406L53.2754 9.75781L53.2637 9.76953L55.7598 9.60547H55.8066L58.4551 9.53516L58.4668 9.52344H58.4902L61.1387 9.53516ZM54.7051 47.4766L52.1621 47.8281L52.1152 47.8398H52.0801L49.4785 48.0273L49.4902 48.0391L46.8887 48.3086L46.9004 48.3203L44.334 48.6484L41.8496 49.1992L41.7559 49.2227L41.6738 49.2344L39.1777 49.4688L36.998 50.2539L34.584 51.3555L34.502 51.3906L34.3965 51.4258L32.3105 52.0586L30.9629 53.7812L30.7988 53.9805L30.749 54.0117L31.0566 55.3555L31.0801 55.4844L31.0918 55.6133L31.209 58.1211L31.6895 60.5352L31.7012 60.5469L32.1934 63.1719V63.207L32.5918 65.6797L32.8379 67.2266L31.2793 67.4023L31.1504 67.4258L30.9746 65.9258L29.627 66.1484L29.2402 63.7227L28.748 61.1211L28.4912 59.8223L26.918 59.4297L25.0195 59.6758L23.707 60.9297L22.8516 62.8984L22.3477 65.043L22.6641 67.3984L23.0742 69.9531L23.6836 72.2383L24.7617 74.5L24.7734 74.5117L25.8047 76.7266L27.1992 78.3438L28.9453 79.3281L30.0381 79.3721L29.9551 78.9062L29.9316 78.7656V78.625L29.9668 76.082H30.998L31.4434 76L32.9199 75.707L32.9316 75.8008L32.9668 75.9531V76.1172L32.9316 78.5195L33.3535 80.8984L34.1738 83.2773V83.3125L34.1855 83.3477L34.9238 85.8789L34.9473 85.9258L34.959 85.9844L35.4512 88.3867L36.5527 90.6133L37.6543 92.8633L38.9316 94.9844L40.584 96.8828V96.8945L42.2012 98.793L44.1113 100.527H44.123L46.0801 102.297L47.9902 103.75L50.1582 105.145L52.291 106.211L54.4707 107.031L55.9824 107.113L57.2949 105.707L57.8105 105.145L58.5605 105.227L61.0449 105.508L61.2559 105.531L61.4434 105.602L63.4473 106.41L65.3926 105.953L67.6777 105.25L69.7285 103.902H69.7402L71.791 102.566L73.4434 100.75L73.5605 100.621L73.7012 100.527L75.7051 99.1211L77.0879 97.2344L78.5762 95.0547L79.7246 92.9219L80.7676 90.5547L81.7051 88.1641L81.7168 88.1055L81.752 88.0469L82.7949 85.9141L83.0527 83.4883L83.0762 83.2656L83.1582 83.0547L84.1426 80.7344L84.7988 78.625L86.0293 79L86.3926 77.5703L86.5918 77.6172L88.127 77.9922L87.6719 79.4697L87.877 79.4805L89.6113 78.543L90.9707 76.8789L92.2246 74.6758L93.3965 72.5781L93.8887 70.1992L94.2754 67.668L94.416 65.3477L94.0527 63.0273L93.4434 61.0234L92.1426 59.8164L90.2441 59.4766L88.6602 59.7578L88.5723 60.957L88.5488 61.1211L88.0684 63.6992V63.7227L88.0566 63.7461L87.5059 66.2305L87.002 66.1133L86.0293 65.9961L84.541 65.8203L84.5527 65.7148V65.6445L84.5762 65.5742L85.127 63.0898L85.584 60.6641L85.7598 58.2734L85.6309 55.7305L85.6074 55.4492L85.7012 55.1797L86.2432 53.5518L86.1934 53.4883L84.834 51.7891L82.7129 51.0039H82.7012L80.2871 50.3594L80.2754 50.3477L77.7441 49.6328L77.6504 49.6094L75.2832 48.7773L72.8574 48.5547H72.834L72.8223 48.543L70.2207 48.2266L67.6895 47.9453L65.0762 47.875H65.0176L64.959 47.8633L62.4277 47.5703L59.8145 47.5117H59.791L57.2012 47.3828L54.7051 47.4766ZM62.3359 92.7539L62.7715 92.6758V92.4961H62.877V92.6562L63.3574 92.5703L63.4863 92.5469H63.7207V92.9062L63.8262 92.8125L63.9551 92.9766L64.0137 92.9531L64.0254 93H64.2715V93.3047L66.2051 95.4961H63.8799L63.8848 95.5234L61.4121 95.9688H61.4004L58.8457 96.4141L58.6582 96.4492L58.459 96.4258L55.834 96.2031L55.6699 96.1914L55.5176 96.1445L53.748 95.5938L52.3418 95.1602L52.6621 94.0498L52.5996 93.8555L52.3887 93.1758L52.7754 92.5898L52.9629 92.2852L54.2285 93V92.4961H54.334V93H54.5527L54.6387 92.7227L55.1885 92.8965L55.2832 92.8125L55.4023 92.9639L55.4238 92.9707L55.4707 92.9531L55.4795 92.9883L55.5146 93H55.7285V93.0674L56.2676 93.2383L58.5059 93.4258L60.8848 93.0273V93.0156L61.0576 92.9844L61.3184 92.5898L61.5059 92.2852L62.3359 92.7539ZM64.9961 87.3125L67.5273 87.5L67.5156 87.5938V90.5H67.3047L64.832 90.3008L62.3242 90.418L62.3359 90.4297L59.6992 90.6055H59.6055L56.9688 90.6172L56.875 90.6289L56.793 90.6172L54.2734 90.3359L51.8125 90.5469L51.7539 90.5586H51.6953L49.5039 90.582L47.9805 90.6055V89H49.4805L49.457 87.5938L51.5547 87.5703V87.5586L54.1914 87.3359L54.332 87.3242L54.4844 87.3359L57.0039 87.6172L59.5938 87.6055V87.6172L62.1367 87.4414H62.1484L62.1719 87.4297L64.8086 87.3125L64.9023 87.3008L64.9961 87.3125ZM47.3105 54.6523L49.9121 55.0273L50.0176 55.0391L50.1348 55.0742L52.6191 55.8242L52.959 55.9297L53.2168 56.1875L54.9863 57.8867L55.2559 58.1328L56.1934 60.9453L56.2402 61.0977L56.2637 61.2617L56.5566 63.8867L56.5801 64.0391L56.5684 64.1797L56.3457 66.8164L56.334 66.8633V66.9102L55.959 69.5234L55.9473 69.5938L55.9238 69.6758L55.291 72.2305L54.7988 74.7383L54.7871 74.8438L54.752 74.9375L53.9902 77.1406L54.0723 78.5L55.4316 79.168L57.6465 79.6133L59.9551 79.4844L61.9707 78.9805L62.5098 78.4531L61.9824 77.6445L61.127 76.3203L62.498 75.5352L62.5801 75.4883L63.3184 76.7773L64.502 76.0156L65.6973 77.8555L66.3535 78.875L65.4863 79.7422L63.7871 81.4062L63.4941 81.6992L63.1074 81.793L60.541 82.4375L60.3887 82.4727L60.248 82.4844L57.5996 82.6133L57.4121 82.625L57.2363 82.5898L54.6465 82.0742L54.459 82.0273L54.2832 81.9453L51.9746 80.8203L51.2012 80.4453L51.1426 79.5664L50.9785 77.0352L50.9668 76.7422L51.0605 76.4609L51.8691 74.0938L52.3613 71.5859L52.373 71.5508V71.5039L52.9824 69.0781L53.3574 66.4766L53.5566 64.0977L53.3105 61.8008L52.6309 59.7734L51.4004 58.5898L49.3379 57.9688L46.9824 57.6289L44.5098 57.6875L42.0957 57.7227L40.1855 58.4492L38.5801 60.1133L38.3105 60.4414L36.0137 58.5195L36.3535 58.1094L36.3887 58.0625L36.4238 58.0273L38.2402 56.1406L38.4746 55.8945L38.791 55.7773L41.2754 54.8281L41.5215 54.7344H41.791L44.4512 54.6875L47.0762 54.6289H47.1934L47.3105 54.6523ZM27.5742 64.918L28.0078 65.1406L28.2305 65.5859L29.3438 67.8828L29.4258 68.0469L29.4609 68.2344L30 70.8242L30.0234 70.918V71.0234L30.2109 73.6602L30.2344 74.082L30.0469 74.4453L29.9297 74.6797L28.5938 74L28.1953 73.8008L27.2109 73.8711L27.0352 71.3516L26.5547 69.0312L25.7227 67.3203L24.1406 66.4883L23.6602 66.2422L23.4609 65.75L23.4141 65.6562L24.7969 65.0703L24.9023 65.0234L25.5352 63.8281L27.5742 64.918ZM92.1074 65.0469L92.2012 65.082L93.5957 65.6445L93.5488 65.7383L93.3027 66.3477L92.6934 66.5703L91.0059 67.2031L90.3848 68.8672L90.2207 71.2227L90.1621 73.8242L90.1504 74.1523L89.8926 74.668L88.5566 74L88.0879 73.7539L87.1621 73.7422L87.2324 71.1523V71.0938L87.4082 68.457L87.4316 68.2344L87.502 68.0352L88.4395 65.5156L88.6738 64.8828L89.3184 64.6367L91.6387 63.7695L92.1074 65.0469ZM73.6016 60.4766L76.2031 61.1445L76.4492 61.2148L76.6602 61.3555L78.6992 62.7031L77.9961 63.7461L77.9609 63.9688L77.6797 65.4453L77.5742 65.4219L77.2812 65.375L77.0352 65.1992L75.1953 63.9805L73.3555 63.5117L72.498 63.9102L72.582 64.7773L71.3164 64.9033V66.5H71L70.7891 66.4414L70.7617 66.4326L70.0996 66.4375L70.0508 66.4648L67.918 67.4609V65H69.3711L68.7852 63.7461L68.9453 63.6729L68.668 63.6406L67.4609 64.6602L67.1562 65.5391L66.7227 66.7109L65.4922 66.5L65.3633 66.4766L65.6211 65V64.9766L64.332 64.5078L64.7891 63.2656L64.9297 62.8906L65.2344 62.6328L67.2266 60.9453L67.707 60.5352L68.3398 60.6055L70.9883 60.875L71.7529 60.9551L72.6172 60.5703L73.0977 60.3477L73.6016 60.4766ZM44.6504 60.7109L45.4131 61.2305L47.0781 60.5469L47.582 60.3359L48.1094 60.5117L50.6523 61.3203L50.8164 61.3789L50.957 61.4609L52.9961 62.668L52.375 63.6992L52.3281 63.9805L52.0234 65.4453L51.9297 65.4336L51.6836 65.375L51.4609 65.2461L49.5859 64.1211L47.7109 63.5234L47.3525 63.6689L47.0762 66.1367L45.6816 65.9727V65.9961L45.2949 67.4492L45.2012 67.4258L43.9473 67.0859L44.0996 65.8086L44.2754 64.0859L43.5605 63.5938L42.0137 64.0742L40.0918 65.5039L39.4473 65.9727L38.6855 65.7031L38.5215 65.6445L39.0371 64.2266L39.0723 64.1211L38.3105 63.0781L40.4434 61.5195L40.6426 61.3672L40.8887 61.2852L43.3613 60.5234L44.0527 60.3125L44.6504 60.7109ZM70.1426 54.6289H70.1895L72.8145 54.7344H72.8496L72.8848 54.7461L75.5215 54.9805L75.6855 55.0039L75.8379 55.0508L78.3926 55.8711L78.6973 55.9648L78.9434 56.1875L80.7715 57.8516L79.8926 58.8008L79.8574 58.9883L79.4824 60.4414L79.3887 60.418L79.0254 60.3242L78.7559 60.0664L77.1621 58.625L75.0527 57.9453L72.6152 57.7344V57.7227L70.0723 57.6289V57.6172L67.7051 57.5938L65.4434 58.3789H65.4199L65.3965 58.3906L63.2051 59.0586L61.0957 59.7031L61.2715 57.5V57.418L62.7363 57.5234L62.3262 56.1875L64.4707 55.543L66.9902 54.6758L67.2363 54.5938H67.4941L70.1426 54.6289ZM55.9355 12.582L55.9473 12.5938L53.3223 12.7578H53.1699L50.7559 12.6641L48.459 13.4141L48.248 13.4727L48.0254 13.4844L45.4941 13.5078L43.1738 13.8711L40.9004 14.8906L40.8301 14.9258L40.7715 14.9492L38.2988 15.793L38.2754 15.8047H38.2637L36.2363 16.4492L35.2402 18.1484L34.5254 20.3164L34.4199 22.7539L34.4082 22.9531L34.3496 23.1406L33.5527 25.6836L33.1074 27.9922L33.084 30.5234V30.6289L33.0605 30.7461L32.6387 33.3477L32.6152 33.4648L32.5801 33.5703L31.8066 35.9258L31.5371 38.4336L31.5254 38.5391L31.502 38.6328L30.8691 41.1992L30.4941 43.6719L30.4824 43.7305L30.4707 43.8008L29.8613 46.3672L29.4863 48.8633L29.1699 50.8789L29.293 51.0557L30.248 49.8438L30.541 49.4688L30.9863 49.3281L33.4473 48.5664L35.7441 47.5234L35.8027 47.4883L35.873 47.4766L38.3691 46.5859L38.5449 46.5273L38.7207 46.5039L41.252 46.2578L43.7832 45.707L43.9004 45.6836L46.5137 45.3438H46.5488L49.1738 45.0625L49.1973 45.0508H49.209L51.7637 44.8633V44.8516L54.377 44.5L54.4473 44.4883H54.5176L57.166 44.3945L57.2246 44.3828L57.2832 44.3945L59.9316 44.5117L59.9199 44.5234L62.5449 44.582H62.6035L62.6621 44.5938L65.1816 44.8867L67.8066 44.957H67.8652L67.9238 44.9688L70.5488 45.25H70.5605L73.1855 45.5664L73.1738 45.5781L75.7871 45.8242L75.9629 45.8359L76.1387 45.8945L78.6465 46.7734H78.6348L81.0957 47.4648H81.084L83.627 48.1445L83.7676 48.1914L86.2637 49.1289L86.6504 49.2695L86.9082 49.5977L87.5957 50.4482L87.4941 48.7461L87.0371 46.2266L86.416 43.6602L86.3926 43.5781L86.0527 40.8594V40.8477L85.6074 38.3516L85.5957 38.3281V38.3047L85.1973 35.6914H85.1855L84.6465 33.2891L83.9434 30.7344L83.9199 30.6641L83.9082 30.5938L83.4629 28.0039L82.9941 25.4023V25.3672L82.6074 22.8242L82.0801 20.2461L82.0566 20.1523L81.7402 17.9141L80.498 16.4727L78.4355 15.5938H78.4121L78.4004 15.582L76.1387 14.5625L73.7246 14.1055L73.6895 14.0938L73.6426 14.082L71.2285 13.4727L68.7207 13.3555L68.5801 13.3438L68.4512 13.3203L66.54 12.8496L66.8965 13.8867L68.127 16.0078L68.2324 16.1836L68.291 16.3828L68.9473 18.9375L68.9824 19.0898L68.9941 19.2422L69.123 21.8789L69.1348 22.0078L69.1113 22.1367L68.8184 24.5625L69.0293 27.1055V27.1523L69.041 27.2109L69.0518 27.7637L69.5801 28.4961L71.0684 30.5703L71.1973 30.7578L71.2676 30.9805L72.1113 33.4883L72.1699 33.6875L72.1816 33.8867L72.2988 36.5L72.627 39.0547L72.791 40.3789L71.4902 40.6953L69.8613 41.082L69.7793 41.1055L69.6855 41.1172L67.3652 41.3984L65.584 42.1953L63.8496 43.8711L63.2168 41.3633L63.0996 40.8945L63.041 40.6836L63.0527 40.4609L63.1816 37.8242V37.7422L63.4629 35.1172V35.0117L63.498 34.918L64.1191 32.3516L64.1309 32.2812L64.1543 32.2109L65.0098 29.7852L65.209 29.1875L66.0703 28.7832L66.041 27.3633L65.8066 24.7148L65.7949 24.5625L65.8184 24.4102L66.123 21.8438L65.9941 19.5234L65.4316 17.332L64.2363 15.2695L64.166 15.1406L64.1191 15.0117L63.418 12.998L61.0215 12.5234H58.5137L55.9355 12.582ZM67.623 31.3672L67.0371 33.0547L66.4277 35.5156L66.1699 38.0469L66.1348 38.6562L66.334 38.5742L66.5332 38.4805L66.7676 38.457L69.2754 38.1406L69.4746 38.0938L69.3223 36.8047V36.6875L69.1934 34.25L68.4785 32.1172L67.8574 31.25L67.623 31.3672Z" fill="black"/>
</svg>
