<svg width="120" height="120" viewBox="0 0 120 120" fill="none" xmlns="http://www.w3.org/2000/svg">
<path d="M67.1309 12.2539L70.2949 13.4961L70.752 13.6836L71.0098 14.0938L72.8848 17.082L73.1309 17.4805L73.1074 17.9492L72.9199 21.4297L72.8965 21.8867L72.6152 22.25L70.834 24.5938L70.9512 26.0469L72.8145 28.4375L73.1777 28.8945L73.1191 29.4805L72.8262 32.9258V32.9609L72.4629 36.3594L72.3105 39.8867L72.2988 39.957L72.2871 40.0391L71.7598 43.5195L71.3379 46.6719L72.0762 49.707L72.0879 49.7598L74.7979 49.7988H74.8447L74.8799 49.8105L78.3604 50.0566L78.501 50.0684L78.6299 50.1035L82.0283 51.0059L82.251 51.0645L82.4385 51.1816L85.4385 53.0449L85.7197 53.2207L86.0049 53.666L86.7354 53.2334L86.9463 53.1045L87.2041 53.0459L90.6611 52.3428L91.0244 52.2725L91.376 52.3779L94.7393 53.3506L94.9736 53.4209L95.1611 53.5498L98.0205 55.4717L98.2549 55.6357L98.4189 55.8818L100.376 58.7529L100.528 58.9756L100.587 59.2451L101.419 62.6787L101.466 62.8896L101.454 63.1006L101.29 66.5342L100.653 66.4971L100.966 69.0547L101.751 72.1602L103.45 74.8555L104.856 76.8242L105.735 78.043L104.505 78.9219L104.411 78.9922L103.532 77.7617L102.92 78.2051L103.019 78.7334L99.7373 79.3193L99.2568 79.4014L98.8232 79.1904L95.8115 77.7256L95.4951 77.5732L95.2842 77.292L93.1396 74.5146L92.9756 74.3154L92.8936 74.0693L91.792 70.7061L91.7334 70.5186L91.7217 70.3076L91.5811 66.9326L90.7959 63.9561L89.3428 61.8232L89.0566 61.7549L88.9541 64.1426L88.9424 64.2598L88.9189 64.377L88.2158 67.8105L88.2041 67.8223V67.834L87.4541 71.2793L87.4424 71.3027V71.3379L86.6924 74.127L87.8994 76.6699L89.7979 79.5059L89.8799 79.6348L89.9385 79.7754L91.2158 83.0098L91.2744 83.1504L91.2979 83.291L91.9307 86.7598L91.9541 86.8652V86.9707L92.1064 90.4746L92.458 93.8613V93.873L92.7744 97.377L92.7979 97.6699L92.7041 97.9629L91.6729 101.174L91.6846 101.186L91.4219 102.195L92.5791 102.18L96.0947 102.051L96.4814 102.039L96.8213 102.215L99.6572 103.668L100.442 104.066L100.478 104.945L100.606 108.461V108.59L100.595 108.719L100.126 112.223L100.114 112.352L100.079 112.457L99.417 114.673L100.273 114.711L102.793 114.277L102.91 114.266H103.027L105.664 114.242H105.816L105.969 114.266L108.406 114.746L110.809 114.5L110.891 114.488H110.973L112.016 114.5L112.004 116L111.98 117.5L110.984 117.488L108.477 117.746L108.254 117.77L108.031 117.734L105.57 117.242L103.145 117.254L100.648 117.688L100.496 117.711L100.332 117.699L97.6953 117.594H97.625L97.5547 117.582L95.1523 117.242L92.7617 117.711L92.5273 117.758L92.293 117.734L89.7383 117.406L87.207 117.418L87.1953 117.406L84.6055 117.488H84.5938L81.957 117.547H81.9336L79.3672 117.559L79.3789 117.57L76.7422 117.746L76.5547 117.758L73.9297 117.266L71.5391 117.547L71.4102 117.559H71.2812L68.7266 117.418L66.1719 117.582H66.043L65.9141 117.57L63.418 117.289L60.957 117.559H60.8867L58.25 117.711L58.0977 117.723L57.957 117.699L55.4141 117.348L52.9062 117.406H52.8477L50.2109 117.348V117.336H47.5742L44.9492 117.289L42.4531 117.512L42.418 117.523H42.3711L39.7344 117.617H39.6172L36.9805 117.512V117.5L34.3906 117.488H34.3438L34.2969 117.477L31.7188 117.301L29.1875 117.43H29.1055L26.4688 117.418V117.406L23.9609 117.43L21.3242 117.664L21.1836 117.676L21.0312 117.664L18.5 117.383L15.9219 117.395V117.383L13.3789 117.559H13.3672L13.3555 117.57L10.707 117.688L10.6133 117.699L10.5312 117.688L7.98828 117.5L8 117.277V114.5H8.21094L10.6719 114.699L13.1797 114.582V114.57L15.335 114.426L15.2119 113.301L14.7432 113.289L14.7783 111.812L14.8369 108.555L14.8486 108.508V108.461L15.1533 104.957L15.2119 104.242L15.8096 103.844L18.1064 102.32L18.5049 102.051L18.9854 102.062L22.4541 102.191L25.9229 102.098H26.0283L29.4502 102.273L32.8838 102.074L32.9014 102.072L32.9678 101.872L32.9912 101.802L34.2217 98.6025L34.3857 98.1924L34.7373 97.9346L37.2803 96.0713L38.874 93.8213L39.2256 90.9268L38.7686 87.7275L37.6436 84.6104L37.5967 84.4697L36.7412 81.0713L35.8623 77.6729V77.6611L35.1709 75.458L33.3193 75.5283L30.085 76.3721L30.0381 76.3838L29.9795 76.3955L26.8389 76.9814L25.2334 78.1182L24.6943 80.9893L24.4014 83.7783L25.8545 85.7471L25.9717 85.8994L26.042 86.0869L27.1904 89.0049L27.3896 89.5322L27.2021 90.0713L26.0068 93.2939L24.7998 92.8369L24.6123 92.8721L24.2734 92.9219L24.0684 93.874L23.2715 93.71L22.9316 93.6396L22.6504 93.417L19.9316 91.249L19.791 91.1318L19.6738 90.9795L17.623 88.2607L17.377 87.9326L17.3301 87.5225L16.9551 84.1709L16.9434 84.0654V83.9482L17.0605 80.4326L17.0723 80.3975V80.374L17.3301 76.8701V76.835L17.3418 76.8115L17.7285 73.3311L17.7637 73.0967L17.8574 72.8857L19.2754 69.7217L19.4277 69.3818L19.7207 69.1475L22.4746 67.0381L22.6035 66.9443L22.7559 66.874L25.9082 65.4209L25.9316 65.4092H25.9551L28.334 64.3896L28.5449 61.8818L28.3223 58.5068L28.3105 58.2959L28.3574 58.0967L29.084 54.6514L29.1074 54.5342L30.0449 51.3701L30.1133 50.3955L29.4854 50.1504L29.2627 50.0566L29.0752 49.9043L26.8252 48.041L26.6963 47.9355L26.5908 47.7949L25.2705 46.0566L23.835 46.8799L21.1279 48.6494L20.2842 49.2002L19.4521 48.6377L19.3584 48.5674L20.2021 47.3252L20.2256 47.2783L20.0361 46.9873L19.5566 47.9922L19.1934 47.8281L19.0527 47.7578L18.9238 47.6523L16.334 45.625L15.5957 45.0508L15.7832 44.1367L16.498 40.8086L16.5801 40.4102L16.8496 40.1172L19.1582 37.5859L21.0098 34.8555L22.6738 31.8203L24.1855 28.7266L24.209 28.6797L25.791 25.668V25.6562L25.8027 25.6445L25.8496 25.5625L26.1768 25.7402L25.5977 24.0703L26.8867 23.625L26.9336 23.5312L27.6719 22.2305L27.7656 22.2773L28.2578 22.5586L28.4336 23.0977L29.2539 25.4766L31.9023 25.9922H31.9141L31.9375 26.0039L35.3711 26.7539L35.5586 26.7891L35.7227 26.8828L38.875 28.4648L39.0742 28.5703L39.2383 28.7227L41.7695 31.1602L41.793 31.1719L41.8164 31.1953L44.2422 33.7266L44.3359 33.832L46.3047 36.9258L46.4336 37.125L46.4922 37.3477L46.9395 39.0459L49.7393 38.666L52.6338 37.2012L52.6807 37.1777L55.6338 35.7949L57.6377 33.8496L58.5869 30.873L58.6221 30.7793L58.6572 30.6973L60.1338 27.4863L60.2627 27.2168L60.4854 27.0176L61.625 25.9619L60.0527 24.0195L59.9121 23.8438L59.8301 23.6328L58.5762 20.4922L58.4004 20.082L58.4941 19.6367L59.1855 16.2383L59.2676 15.793L62.0801 12.9805L62.4434 12.6055L62.9707 12.5469L66.416 12.1602L66.791 12.1133L67.1309 12.2539ZM57.6807 104.945L57.5752 104.957L57.4697 104.945L54.1182 104.77L50.6846 105.156L50.5439 105.168L50.3916 105.156L46.9932 104.84H43.6299L40.208 105.332L40.1143 105.344H40.0205L36.5166 105.414H36.4229L36.3408 105.402L32.9072 105.062L29.5439 105.262L29.4736 105.273H29.3916L25.9111 105.098L22.4775 105.18L22.4307 105.191L22.3955 105.18L19.3721 105.074L18.0713 105.93L17.8369 108.719L17.79 110.98L17.9658 111.051L18.0713 111.965L18.3057 114.086H20.4502L23.9541 113.91H24.0244L27.54 113.898H27.6689L31.0674 114.18L34.4658 113.969L34.5127 113.957H34.5479L38.0635 113.934H41.5322L45.0361 113.828H45.165L48.6807 114.004H48.6689L52.126 114.027H52.1611L55.6182 114.133L59.0283 114.039L62.5439 113.805H62.6611L66.1768 113.852H66.165L69.6689 113.863H69.6924L73.1729 113.91L76.6533 113.875L76.7471 113.863L76.8408 113.875L80.1924 114.227L83.5791 114.086L87.0947 113.805L87.2119 113.793L87.3408 113.805L90.7744 114.098L94.1143 113.945L96.5635 113.746L97.1494 111.766L97.5947 108.438L97.501 105.93L95.8018 105.062L92.6846 105.168H92.6611L89.1455 105.227H89.1104L85.5947 105.191H85.4775L82.1494 104.875L78.833 105.426L78.6455 105.449L78.4463 105.438L74.9424 105.086V105.074L71.6025 104.852L68.1807 105.121L68.1221 105.133H68.0518L64.5479 105.098H64.4541L64.3604 105.086L61.292 104.659L61.1924 104.882L60.6182 104.653L57.6807 104.945ZM16.4893 111.848L16.4775 112.105L16.4893 112.094L16.583 111.836H16.4893V111.848ZM77.2217 83.1826L76.9639 85.4092L77.5381 85.7139L78.335 86.1357V87.0381L78.3467 87.1436H76.7764L76.5264 87.624L77.3672 88.0449L77.332 88.1387L77.3086 88.1855L75.6797 91.1855L74.2617 94.2793L72.8203 97.4785L72.8086 97.502L72.7852 97.5371L71.2383 100.596L71.25 100.607L70.6592 101.916L71.4736 101.852H71.6963L75.1885 102.098H75.2354L78.5518 102.438L81.4619 101.962L81.8223 100.111L81.9043 99.6777L82.209 99.3613L84.2832 97.1934L84.7988 94.5684L83.8613 91.627V91.6152L83.8496 91.5918L82.8887 88.252L81.5996 85.3223L79.6777 82.8262L78.0576 81.5225L77.2217 83.1826ZM46.1289 49.292L46.0352 49.3506L45.9297 49.3975L42.7422 50.7803L42.6016 50.8506L42.4609 50.874L39.0156 51.6123L38.8633 51.6475H38.7109L35.1836 51.6357H35.0312L34.8906 51.6123L33.0742 51.251L33.0449 51.6982L33.0332 51.874L32.9863 52.0264L31.9902 55.3896L31.334 58.4834L31.5566 61.8232V61.9287L31.5449 62.0459L31.2637 65.5381L31.1816 66.4404L30.3496 66.792L27.1504 68.1396L27.1621 68.1514L24.1738 69.5107L21.8418 71.292L20.6934 73.8584L20.3184 77.1514L20.0605 80.5967L19.9434 83.9482L20.2598 86.7725L21.9355 89.0107L23.8271 90.5176L24.1787 89.5557L23.3232 87.3643L21.6475 85.1025L21.3076 84.6338L21.3662 84.0596L21.7295 80.5557V80.4854L21.7412 80.4268L22.4092 76.958L22.5146 76.3604L23.0186 76.0205L25.4092 74.333L25.667 74.1455L25.9951 74.0869L29.3818 73.4424L32.7217 72.5869L32.8857 72.5518L33.0498 72.54L36.2139 72.4229L37.3506 72.3877L37.6904 73.4775L38.7451 76.8525L38.7686 76.9229L39.6475 80.3213V80.333L40.4678 83.5908L41.6514 86.9072L41.71 87.0479L41.7334 87.2002L42.2373 90.6807L42.2607 90.8799L42.2373 91.0791L41.8154 94.5713L41.7686 94.9463L41.5459 95.251L39.6006 98.0166L39.4482 98.2158L39.2607 98.3564L36.8584 100.103L35.9932 102.354L36.5986 102.414L39.9385 102.355L40.209 102.316L40.2168 102.284L41.002 98.9443L41.0957 98.5693L41.3535 98.2881L43.2637 96.1436V93.0615L43.2871 92.9092L43.9199 89.6279L43.8848 86.3232L43.6504 82.8193V82.749L43.5566 79.2334V79.1162L43.5684 78.999L43.9023 76.4521L42.7676 76.2734L42.8379 74.9258L43.0371 71.5508L43.084 70.7188L43.8223 70.3203L46.2129 69.0195L46.3418 66.3125L46.3535 66.1953L46.377 66.0781L47.0801 62.6211L47.6426 59.3281L47.7129 55.8945L47.7246 55.6953L47.7832 55.4961L48.8262 52.0625L48.9785 51.5469L49.4355 51.2539L51.1953 50.0938L51.1445 50.0508L48.5898 47.7383L46.1289 49.292ZM71.5137 53.6445L71.3848 54.3828L70.7285 54.7227L67.5996 56.3281L67.5176 56.375L67.4238 56.4102L64.1543 57.582L64.0254 57.6289L63.8848 57.6523L60.3926 58.1914L60.3223 58.2148H60.2402L57.8965 58.3203L57.3926 60.4531L57.4043 60.4648L56.9355 63.7812L56.9473 63.793L56.8184 67.3203L56.8066 67.5312L56.748 67.7188L55.7402 70.9414L55.7236 71.2402L58.4199 71.3184L61.6777 70.6387H61.7129L65.123 70.0176L68.3926 69.1035L68.7793 68.998L69.166 69.0918L72.0137 69.8066L72.5879 69.959L72.9043 70.4512L74.7559 73.3223L76.7832 76.041L79.0684 78.4668L81.7168 80.6113L81.8691 80.7285L81.9746 80.8691L84.1191 83.6816L84.2246 83.8223L84.2949 83.9863L85.6895 87.1973L85.7363 87.291L85.7598 87.3848L86.7207 90.7129L87.7871 94.041L87.9043 94.416L87.8223 94.791L87.1426 98.2129L87.0605 98.6465L86.7559 98.9629L84.6699 101.119L84.4834 102.097L85.6182 102.203L88.3135 102.221L88.79 100.424V100.389L88.8018 100.354L89.751 97.3301L89.4697 94.166L89.1182 90.6855L89.1064 90.6387V90.5918L88.9658 87.1934L88.3682 83.959L87.1963 81.0176L85.3564 78.252L85.2979 78.1699L85.251 78.0762L83.751 74.9355L83.5049 74.4316L83.6572 73.9043L84.5361 70.5645L85.2744 67.1895L85.9541 63.8379L86.0947 60.7676L85.1455 57.8848L83.54 55.3887L81.0439 53.8418L78.0088 53.0449L74.6572 52.7988V52.7871L71.6719 52.7441L71.5137 53.6445ZM62.2754 73.5684L62.2871 73.5801L58.8535 74.2949L58.6777 74.3418L58.502 74.3301L55.5605 74.2236L55.5176 74.9375L54.8848 75.3477L52.1191 77.1641L51.6738 77.4453L51.1465 77.3984L47.6777 77.0586H47.6309L47.584 77.0469L46.8662 76.9307L46.5566 79.2803L46.6504 82.6787H46.6387L46.873 86.124L46.8848 86.1592V86.1943L46.9316 89.71L46.9434 89.874L46.9082 90.0264L46.2637 93.3545L46.2754 96.7295V97.3037L45.8887 97.7373L43.8262 100.011L43.3965 101.852H43.4893L47.0049 101.84H47.1455L50.4854 102.156L53.8721 101.781L53.9893 101.77H54.1064L57.5518 101.945L59.3037 101.773L60.4072 99.3389L60.5713 98.9639L60.9111 98.7295L63.7119 96.7725L66.0088 94.9561L66.5947 92.1904L66.876 88.71L66.8994 88.499L66.9814 88.2881L68.1768 85.2178L68.2002 85.124L68.2119 85.1357L68.2236 85.1006L68.3408 85.1475L67.1475 82.5801V82.5684L65.6709 79.4043L65.6475 79.3574L65.6357 79.2988L64.3701 76.0176L64.3232 75.9121L64.2998 75.8066L63.751 73.3047L62.2754 73.5684ZM66.6904 72.6836L67.1943 74.998L68.3896 78.127L69.8779 81.3145V81.3262L71.3311 84.4785L70.6279 84.7949L70.3467 85.3223L70.1367 85.6904L71.083 85.9678L71.0596 86.0615L71.0361 86.1201L71.0127 86.1904L69.8525 89.1436L69.583 92.4717V92.5654L69.5596 92.6475L68.8447 96.0928L68.7393 96.6201L68.3174 96.9482L65.5752 99.1396L65.54 99.1748L65.4932 99.1982L62.9619 100.944L62.5713 101.812L64.6885 102.109L67.2783 102.128L68.5078 99.377L68.5195 99.3535L68.543 99.3301L70.0781 96.2363L71.5312 93.0371L72.9961 89.8379L73.0195 89.8027L73.043 89.7559L74.3115 87.4004L73.7646 87.1201L73.8818 86.1006L74.2686 82.5967L74.3037 82.3271L74.4209 82.0811L75.7861 79.3594L74.5566 78.0449L74.498 77.9863L74.4512 77.9277L72.3535 75.127L72.3301 75.0801L72.2949 75.0332L70.7012 72.5723L68.8027 72.0918L66.6904 72.6836ZM88.0361 55.9287L87.6182 56.1865L87.7822 56.4434L87.8877 56.6074L87.9463 56.7832L88.5234 58.5352L90.6084 59.0459L91.1592 59.1865L91.4756 59.6553L93.4209 62.4678L93.5732 62.6904L93.6318 62.9365L94.5342 66.335L94.5693 66.499L94.5811 66.6631L94.71 69.9678L95.6709 72.9092L97.4404 75.1826L99.6904 76.2725L100.69 76.0957L99.0908 73.5664L98.9619 73.3672L98.9033 73.1328L98.0361 69.6992L98.0127 69.6055L98.001 69.5117L97.6729 66.8281L98.3086 66.751L98.2783 66.6631L98.29 66.3818L98.4424 63.1826L97.7275 60.1943L96.0986 57.792L93.6846 56.1631L90.8838 55.3545L88.0361 55.9287ZM63.8262 15.4648L62.0332 17.2695L61.5176 19.8008L62.5137 22.2969L64.5293 24.7812L64.7754 25.0859L64.834 25.4727L64.8574 25.5664L64.0684 25.7031L64.0713 25.7051L65.3721 26.4434L65.3252 26.5371L65.208 26.7363L65.0439 26.9004L62.7354 28.998L61.4111 31.8574L60.3682 35.1387L60.2627 35.4902L59.9932 35.748L57.5439 38.127L57.3682 38.3027L57.1338 38.4082L53.9463 39.8965L53.9346 39.8848L50.8877 41.4668L50.6533 41.584L50.3955 41.6191L47.9629 41.9463L48.4844 43.0898L49.0488 43.7373L50.0518 43.3281L50.1689 43.2812L53.4619 42.25L53.5908 42.2031L53.7197 42.1914L56.8398 41.7734L56.877 41.3398L57.627 40.9648L60.4863 39.5234L60.5918 39.4062L60.6387 39.4531L60.791 39.3828L60.9434 39.6875L61.752 40.3555L62.9238 41.3047L62.6191 41.668L62.4199 41.9258L62.127 42.0664L59.7129 43.2617L59.502 45.8867L59.4668 46.2383L59.2793 46.543L57.4629 49.5078L57.2754 49.8008L56.9707 49.9883L54.0059 51.8398L53.9941 51.8281L51.5332 53.457L50.7012 56.1758L50.6426 59.4922V59.6094L50.6309 59.7148L50.0332 63.1719L50.0215 63.1953V63.2188L49.3301 66.5352L49.1777 70.0156L49.1426 70.8594L48.3926 71.2695L45.9785 72.5586L45.9082 73.7422L48.0176 74.0703L50.9121 74.3516L52.5996 73.25L52.752 70.6133L52.7637 70.4258L52.8223 70.25L53.8184 67.0273L53.9473 63.6875V63.6172L53.959 63.5469L54.4277 60.0664L54.4512 59.9258L55.2363 56.5508L55.4824 55.4375L56.6191 55.3789L60.0762 55.2148L63.2754 54.6992L66.3457 53.5977L68.6895 52.4023L69.0879 50.1172L68.3613 47.082L68.3027 46.8125L68.3379 46.543L68.7832 43.0977V43.0742L68.7949 43.0625L69.3223 39.582L69.4746 36.2305V36.1367L69.8379 32.668L70.0723 29.7969L68.3262 27.5469L68.0566 27.207L68.0098 26.7617L67.7988 24.2773L67.752 23.7031L68.0918 23.2461L69.9551 20.7969L70.0723 18.2539L68.7246 16.0977L66.3691 15.1719L63.8262 15.4648ZM26.8574 30.0859L25.3457 33.1914L25.334 33.2148L25.3105 33.25L23.6348 36.332L23.5996 36.4023L23.5527 36.4727L21.5723 39.3672L21.5137 39.4609L21.4434 39.5312L19.334 41.8281L18.9121 43.8438L20.6465 45.1914L20.8086 45.2764L22.2646 44.3252L22.335 44.2783L25.3818 42.5322L28.1357 40.7158L30.7959 38.6533L30.8662 38.5947L30.9365 38.5596L31.0186 38.501L31.8037 39.7783L32.2607 40.5166L32.6475 41.0088L32.5889 41.0439L32.542 41.0791L32.4404 41.1582L32.834 41.1279V41.1865L32.8457 41.292L33.1152 44.4795V44.5381L33.2793 48.0537V48.2178L33.2783 48.2266L35.3008 48.6357H38.5L41.6875 47.9678L44.6172 46.6787L46.5635 45.4629L46.0938 44.9297L45.9531 44.7656L45.8594 44.5664L44.5703 41.7305L44.5117 41.6133L44.4883 41.4844L43.6445 38.332L41.957 35.6719L39.6484 33.2812V33.2695L37.3398 31.0547L34.5508 29.6367L31.293 28.9336V28.9219L27.8477 28.2656L27.8193 28.2598L26.8574 30.0859ZM54.2822 45.1211L51.2314 46.0762L53.0781 47.7422L53.9414 48.332L55.084 47.6211L56.5371 45.2539L56.5732 44.832L54.2822 45.1211ZM29.9873 43.0947L29.9404 43.1299L29.8818 43.165L27.8496 44.498L28.8643 45.8262L30.2285 46.9609L30.127 44.7256L29.9893 43.0918L29.9873 43.0947Z" fill="black"/>
</svg>
