<svg width="120" height="120" viewBox="0 0 120 120" fill="none" xmlns="http://www.w3.org/2000/svg">
<path d="M70.8096 45.2446L70.9502 45.2681L71.0791 45.3032L73.6104 46.1235L73.7275 46.1587L73.833 46.2173L76.0127 47.3306L76.0596 47.354L78.333 48.6196L78.415 48.6665L78.4971 48.7251L80.6299 50.3071L80.6533 50.3306L80.6885 50.3423L82.7275 52.0063L82.7627 52.0415L82.7979 52.0649L84.7549 53.8696L84.8955 53.9985L85.001 54.1626L86.4424 56.3892L86.5361 56.5415L86.5947 56.7173L87.4268 59.1079L88.6338 61.3579L88.751 61.5688L88.7979 61.8032L89.2432 64.3813L89.7705 66.9829L89.8174 67.1821L89.8057 67.3696L89.6416 70.0298L89.7236 72.5376L89.7354 73.0884L89.3955 73.522L87.9893 75.2681L87.5557 75.8188L86.8525 75.8306L84.1924 75.8892H83.958L83.7354 75.8188L81.3447 75.104L78.8838 75.0688H78.6143L78.3682 74.9751L75.9775 74.0493L73.4463 73.2524L73.2471 73.1938L73.0596 73.0649L70.9385 71.6587L68.6299 70.7095L68.3721 70.604L68.1611 70.4048L66.2393 68.5532L66.1455 68.4595L64.4111 66.4556L64.376 66.4204L64.3408 66.3735L62.7471 64.2642L62.6533 64.147L62.5947 64.0063L61.5986 61.9321L61.3877 61.7798L61.2354 63.6431L61.6221 66.104L61.6572 66.2798L61.6455 66.4556L61.4346 69.0923L61.2588 71.6001L61.5518 74.0845L61.5635 74.1548V74.2368L61.5986 76.8735V76.9907L61.5869 77.1079L61.2354 79.4985L61.6338 81.936L61.6689 82.1821L61.6338 82.4282L61.2119 84.8892L61.3057 87.2212L61.7158 89.8579L61.7393 89.9751V90.104L61.7275 92.7407V92.8462L61.7041 92.9517L61.3291 95.436L61.5049 97.9204V97.979L61.5635 100.616V100.686L61.5049 103.323L61.5869 105.901V105.913L61.6455 108.28V108.303L61.6572 110.307L61.6689 111.713L60.2627 111.807L60.1104 111.819L60.0049 110.331V110.319H58.6572L58.6455 108.338L58.5869 105.995L58.5049 103.346V103.264L58.5635 100.686L58.5049 98.1079L58.3408 95.4712L58.3291 95.3071L58.3525 95.1548L58.7393 92.5884V90.1743L58.3408 87.6899L58.3291 87.6079V87.5259L58.2119 84.8774L58.2002 84.7251L58.2354 84.5728L58.6338 82.1821L58.2471 79.7681L58.2119 79.5454L58.2471 79.3228L58.5986 76.8501L58.5752 74.3188L58.2705 71.7876L58.2588 71.6587L58.2705 71.5181L58.4463 68.8813V68.8579L58.6338 66.397L58.2471 63.936L58.2236 63.7603L58.2354 63.5728L58.458 60.936L58.4814 60.7017L58.5752 60.4907L59.2666 58.7915L60.0049 57.0103L61.5518 58.1587L63.6846 59.7407L63.9893 59.9634L64.1416 60.3032L65.2432 62.6001L66.7314 64.5571L68.3721 66.4556L70.0127 68.0259L72.2627 68.9634L72.3916 69.022L72.5205 69.104L74.5479 70.4517L76.8799 71.1899L76.915 71.2017L76.9619 71.2134L79.1768 72.0688L81.6143 72.1274H81.8252L82.0127 72.186L84.3682 72.8774L86.0791 72.8423L86.7002 72.0688L86.6416 69.9946V69.854L86.7822 67.3931L86.3018 64.979V64.9438L85.8682 62.5415L84.7314 60.4087L84.6729 60.3149L84.6377 60.1978L83.8291 57.8657L82.5869 55.9438L80.7705 54.2798H80.7588L78.8486 52.7212L76.8213 51.2212L74.5947 49.979V49.9673L72.5674 48.936L70.2939 48.1978L67.9033 47.8931L67.7041 47.8696L67.5166 47.7876L67.4229 47.7524L67.9971 46.3696L68.1377 46.0298L68.29 44.9165L70.8096 45.2446Z" fill="black"/>
<path d="M52.7637 41.5327L52.8105 41.5796L54.1934 41.5562L54.2637 44.1108L54.2754 44.4272L54.1465 44.7319L53.2676 46.8647L52.9746 47.5444L52.2598 47.7437L49.6934 48.4116H49.6699L47.2793 48.9976L45.3809 49.9351L43.2598 51.3296L41.1504 52.9116L41.1387 52.8999L39.0996 54.5054L37.377 55.9702L36.4043 58.103L36.3809 58.1499L36.3691 58.1968L35.209 60.3179L34.5879 62.7085L34.5762 62.7671L34.5527 62.8257L33.7324 65.146L33.4863 67.5015L33.498 67.5132L33.3926 70.1499L33.4863 72.189L33.9551 72.8218L35.6074 72.4351L35.7715 72.3999L35.9238 72.3882L38.4199 72.3296L40.8105 71.7437L40.8926 71.7202L40.9863 71.7085L43.3066 71.4272L45.3691 70.2202L45.4512 70.1733L45.5449 70.1382L47.8535 69.1538L49.7988 67.8647L51.5918 66.1538L51.6387 66.1069L53.4551 64.5132L54.7441 62.439V62.4272L56.1387 60.189L56.3262 59.8843L56.6191 59.7085L58.541 58.4897L58.6465 58.3608L58.6934 58.396L58.7754 58.3491L58.8926 58.5483L59.8418 59.2632L61.0371 60.1772L60.7676 60.5288L60.6035 60.7515L60.3691 60.9038L58.4941 62.064L57.2988 64.0093L55.916 66.271L55.7988 66.4702L55.623 66.6108L53.6543 68.3218L51.7559 70.1382L51.6621 70.2319L49.377 71.7554L49.248 71.8374L49.1191 71.8843L46.7988 72.8569L44.5723 74.1694L44.3027 74.3335L43.998 74.3687L41.502 74.6616L38.959 75.2827L38.8066 75.3179L38.6426 75.3296L36.1699 75.3765L33.709 75.9741L32.748 76.2085L32.1621 75.4233L30.8145 73.6304L30.5332 73.2554L30.5215 72.7983L30.3926 70.1616V70.0444L30.498 67.4077V67.314L30.7676 64.6772L30.7793 64.5015L30.8496 64.3374L31.6816 61.9585L32.3496 59.4155L32.3965 59.2397L32.4785 59.0757L33.7207 56.7671L34.7988 54.4233L34.9277 54.1304L35.1855 53.9077L37.2012 52.1733L37.2363 52.1499L37.2598 52.1265L39.334 50.521H39.3457V50.5093L41.4551 48.9272L41.502 48.9038L41.5371 48.8687L43.7285 47.4272L43.7988 47.3804L43.8809 47.3335L46.084 46.2437L46.2246 46.1733L46.3887 46.1382L48.9316 45.5054L50.7715 45.0249L51.252 43.8647L51.1934 41.6382L51.1699 40.9116L51.8027 40.3843L52.7637 41.5327Z" fill="black"/>
<path d="M14.2354 76.2866L14.2822 76.3687L14.3057 76.4507L15.1143 78.771L15.9814 81.1147L17.3408 83.1655L17.376 83.2007L18.7588 85.4507L18.7939 85.521L18.8174 85.5796L19.9424 87.8647L21.29 89.9155L22.9541 91.8374L22.9775 91.8726L23.001 91.896L24.6182 93.9702L24.665 94.0171L26.0596 95.9741L28.04 97.3687L28.2041 97.5093L30.0322 99.2202L32.1182 100.603L32.2119 100.662L32.2939 100.732L34.1338 102.384L36.29 103.58L38.5752 104.669L40.9658 105.56L41.0947 105.619L41.2119 105.689L43.251 106.908L45.6064 107.283L45.7822 107.306L45.9346 107.376L48.3018 108.326L50.7275 108.83L50.8447 108.853L50.9619 108.9L53.1182 109.755L55.3564 109.615L56.3174 109.521L56.458 111.009L56.6104 112.498L55.6494 112.603H55.6025L53.001 112.767L52.6611 112.791L52.3447 112.673L50.0361 111.748L47.5283 111.22L47.3877 111.197L47.2705 111.15L44.9736 110.212L42.501 109.837L42.208 109.791L41.9502 109.638L39.7705 108.314L37.4385 107.447L37.3213 107.4L34.9424 106.263L34.8955 106.24L34.8604 106.216L32.5518 104.927L32.4111 104.845L32.2822 104.74L30.4072 103.064L28.2744 101.658L28.1572 101.587L28.0635 101.494L26.3057 99.8296L24.126 98.2827L23.9268 98.1304L23.7744 97.9312L22.2627 95.8218L20.6807 93.8062L18.9463 91.8022L18.8877 91.7319L18.8291 91.6499L17.3877 89.4351L17.3291 89.3647L17.2939 89.271L16.1221 86.9038H16.1104L14.8447 84.8179L13.3799 82.603L13.2861 82.4624L13.2275 82.2983L12.3018 79.814L12.29 79.7905V79.7788L11.4697 77.4351L12.0557 77.2241L12.8408 76.8491L14.2002 76.1929L14.2354 76.2866Z" fill="black"/>
<path d="M61.583 112.336H61.5713L61.6885 114.41V114.539L61.6768 114.668L61.4307 116.613L61.6533 117.457L62.1221 119.25L60.2705 119.344H60.1885L60.1182 117.855L58.7471 118.219L58.4658 117.105L58.3838 116.836L58.4189 116.543L58.6885 114.434L58.583 112.418V112.254L60.083 112.242L61.5713 112.23L61.583 112.336Z" fill="black"/>
<path d="M18.1318 74.6284L20.5928 75.1792L23.1709 75.3901L23.3232 75.4019L23.4756 75.4487L25.8545 76.1753L28.3623 76.3745L28.6787 76.3979L28.9482 76.5503L31.1865 77.7339L33.5771 78.5073L33.6943 78.5542L36.1318 79.5737L36.167 79.5854L36.2139 79.6089L38.5811 80.7808L38.7334 80.8511L38.8623 80.9565L40.8193 82.5269L43.0225 83.8979L43.1396 83.9683L43.2334 84.062L45.1201 85.7612L47.2295 87.1675L47.4521 87.3081L47.6045 87.519L49.1748 89.6167L50.7803 91.6206L52.5146 93.6011L52.585 93.6831L52.6436 93.7651L54.0967 95.9683L54.1553 96.062L54.2021 96.1558L55.3271 98.5464L56.5459 100.75L57.8584 103.058L57.9404 103.199L57.9873 103.351L58.667 105.566L60.1553 107.242L60.2725 107.371L60.3545 107.535L60.4014 107.617L59.0771 108.332L58.6904 108.531L57.9053 109.234L56.2178 107.335L56.0068 107.089L55.9131 106.785L55.1748 104.406L53.9443 102.238L53.9326 102.226V102.214L52.6553 99.9058L52.6318 99.8706L52.6201 99.8237L51.5303 97.5269L50.1709 95.4761L48.5186 93.5894L48.4717 93.5425L46.8311 91.4917L46.8076 91.4448L45.3545 89.5229L43.3506 88.1987L43.1631 88.0581L41.2998 86.3472L39.2021 85.0581L39.1201 85.0112L39.0498 84.9526L37.0928 83.3823L34.9717 82.3276V82.3394L32.5811 81.3433L30.1436 80.5581L30.0146 80.5229L29.8975 80.4526L27.7998 79.3276L25.4443 79.1401L25.292 79.1284L25.1396 79.0815L22.7607 78.355L20.2881 78.1675L20.1943 78.1558L17.7686 77.6167L15.4131 78.0269L15.3662 78.0386H15.3193L12.7412 78.3198L12.3076 78.355L11.9209 78.1675L11.499 77.9683L12.1553 76.6206L12.4834 75.9409L12.4248 75.3315L12.7998 75.2964L12.8115 75.2729L12.835 75.2964L14.9326 75.0737L17.5576 74.6167L17.8389 74.5698L18.1318 74.6284Z" fill="black"/>
<path d="M102.019 74.6738L104.667 74.9082L104.808 74.9316L107.246 75.377L107.058 76.3496L107.082 76.8535L107.117 78.3535H106.859L106.707 78.3301L104.375 77.8848L101.972 77.6738L99.5347 78.0957L96.9565 78.5762H96.9214L96.8745 78.5879L94.3315 78.916L91.9878 79.5605L89.6558 80.5332L89.5854 80.5566L87.1011 81.4473L87.0894 81.459H87.0659L84.769 82.1973L82.894 83.6855L82.812 83.7559L82.7183 83.8027L80.5737 85.0449L78.6519 86.6855L78.5815 86.7559L78.4995 86.8027L76.3667 88.1738L74.644 89.9082L72.9565 91.7715L71.4448 93.8105L71.3628 93.916L71.2808 93.998L69.5698 95.6152L68.6558 97.8184L68.5972 97.959L68.5034 98.0879L67.0972 100.104L66.0894 102.424L66.0425 102.529L65.9839 102.635L64.6714 104.709L63.9683 107.111L63.8159 107.615L63.394 107.908L61.6948 109.127L60.2065 110.182L59.4565 108.518L59.3979 108.4L60.7456 107.803L59.9487 106.678L61.2261 105.764L61.8589 103.666L61.9175 103.467L62.0229 103.291L63.394 101.1L64.3901 98.8145L64.4487 98.6738L64.5308 98.5566L65.9487 96.4941L66.9214 94.1855L67.0386 93.8926L67.2612 93.6816L69.1128 91.9004L70.6128 89.9082L70.6479 89.8496L70.6948 89.8027L72.4644 87.8457L72.5229 87.7871L74.3979 85.9238L74.5034 85.8066L74.644 85.7246L76.7534 84.3535L78.7222 82.6895L78.8159 82.6074L78.9331 82.5371L81.1362 81.2363L83.3511 79.5137L83.6089 79.4316L86.0933 78.623L88.5776 77.7324L90.9565 76.7598L91.0386 76.7246L91.1206 76.7012L93.6636 75.9863L93.769 75.9629L93.8745 75.9512L96.4292 75.623L99.0073 75.1543H99.019L101.632 74.6973L101.832 74.6621L102.019 74.6738Z" fill="black"/>
<path d="M109.173 77.3213L109.126 77.415L109.115 77.4033L108.072 79.4893L108.037 79.5479L106.701 81.6572L105.763 84.0127L105.716 84.1299L104.544 86.4971L104.427 86.6846L102.904 88.8643L102.892 88.8525L101.498 90.9854L100.115 93.2471L100.056 93.3525L99.9858 93.4346L98.2632 95.4502L98.2046 95.5322L98.1226 95.6025L96.2476 97.2432L94.8062 99.2939L94.689 99.458L94.5366 99.5869L92.4741 101.263L90.5991 102.997L90.4585 103.126L90.3062 103.208L87.9741 104.497L85.9116 105.903L85.8413 105.95L83.5679 107.321L83.5562 107.333H83.5327L81.2124 108.634L81.0249 108.739L80.8022 108.786L78.3999 109.302L76.2554 110.521L76.0444 110.638L75.7983 110.685L73.2905 111.153L70.8179 111.915L70.6655 111.95L70.5132 111.974L68.0405 112.185L65.7085 113.075L65.2632 113.251L64.8062 113.134L62.3101 112.478L59.8608 112.021L58.3022 111.728L58.6772 110.181L58.7007 110.122L60.1538 110.474L60.4116 109.067L62.9194 109.548L63.0132 109.571L65.0757 110.099L67.1851 109.313L67.3843 109.231L67.5952 109.22L70.0796 108.997L72.4702 108.271L72.5522 108.247L72.6226 108.235L75.0015 107.767L77.1343 106.595L77.3218 106.478L77.5444 106.431L79.9585 105.892L82.0679 104.72L84.2944 103.384L86.4038 101.942L86.4624 101.896L86.521 101.86L88.689 100.665L90.5171 98.9893L90.5522 98.9658L90.5874 98.9307L92.4858 97.3721L93.9155 95.3682L94.0093 95.2275L94.1382 95.1104L96.0366 93.4229L97.6069 91.583L98.9546 89.4268L98.9663 89.4033L98.978 89.3916L100.419 87.1768L100.431 87.1533L100.443 87.1416L101.896 85.0439L102.974 82.8994L103.958 80.4385L104.005 80.3096L104.087 80.1924L105.505 77.9424L106.455 76.0322L106.466 76.0205L106.478 75.9971L106.525 75.915L109.173 77.3213Z" fill="black"/>
<path d="M88.8745 23.3062L91.3237 24.0093L93.8315 24.2788L93.9956 24.3022L96.562 24.8882L96.7261 24.9351L99.2339 25.814L100.464 26.2476L100.207 27.5249L99.7261 29.9272L99.7026 30.0327L99.6675 30.1265L98.7769 32.6226L98.7183 32.7515L98.6479 32.8804L97.312 35.1421L96.3276 37.4272L96.2104 37.6851L96.0112 37.896L94.1245 39.771L94.1128 39.7827L92.2261 41.6108L92.2144 41.6226L90.3042 43.439L90.187 43.5444L90.0581 43.6265L87.8081 45.021L87.6909 45.0913L87.5386 45.1499L85.0659 46.064L85.0542 46.0522L82.6167 46.978L82.5698 47.0015L80.0503 47.8335L79.8511 47.8921L79.6519 47.9038L77.2964 48.0093L75.2925 48.9937L75.1753 49.0522L75.0581 49.0874L74.9644 49.1108L74.5425 47.6694L74.3667 47.0952L73.98 46.2983L76.2651 45.1851L76.5347 45.0562L76.8394 45.0444L79.2769 44.9155L81.562 44.1655L84.0347 43.2397L86.355 42.3843L88.3354 41.1538L90.1519 39.4429L92.0269 37.6265L93.6909 35.9507L94.6401 33.7827L94.6753 33.689L94.7339 33.6069L95.9995 31.4507L96.7964 29.2124L97.0073 28.2163L95.812 27.7944L93.4565 27.2554L90.8784 26.9741L90.7612 26.9624L90.644 26.9272L88.3706 26.2827L86.0503 26.646L85.9214 26.6694H85.7808L83.3315 26.5874L80.9526 27.1265L80.9292 27.1382H80.9058L78.6089 27.5718L76.7808 28.9897L76.687 29.0718L76.5698 29.1304L74.3198 30.314L72.1987 31.7437L72.0933 31.814L71.9761 31.8726L69.9487 32.7866L68.5542 34.4038L67.5347 36.6069L67.4878 36.7007L67.4292 36.7944L66.2104 38.6226L65.3198 39.9702L64.0542 38.9858L64.0073 38.9624L64.9214 37.7671L63.7144 36.9702L64.9097 35.1421L65.9526 32.9272L66.0347 32.7397L66.1753 32.5874L67.8979 30.5835L68.1089 30.3257L68.4136 30.1968L70.5933 29.2007L72.8433 27.7007L75.0464 26.5405L77.0854 24.9819L77.3667 24.7593L77.7183 24.689L80.2964 24.2085L82.8511 23.6226L83.0386 23.5874H83.2378L85.6987 23.6694L88.2417 23.271L88.5581 23.2241L88.8745 23.3062Z" fill="black"/>
<path d="M36.5381 23.4961L36.6904 23.5195L39.292 23.9766L39.4443 24L39.585 24.0586L42.0342 25.0312H42.0459L44.4717 26.0273L44.542 26.0508L46.9443 27.1875L47.1436 27.2812L47.3076 27.4219L49.0889 29.0039L51.1982 29.7891L51.292 29.8242L51.4561 29.918L50.7646 31.2422L50.3896 31.9688L50.1553 32.6016L50.085 32.5664V32.5781L50.0615 32.5664L47.7764 31.7227L47.5068 31.6172L47.2959 31.4297L45.4678 29.8008L43.335 28.8047L40.9209 27.8086L38.5889 26.8945L36.3154 26.4961L33.8193 26.543L31.1943 26.5898L31.1709 26.6016H31.1592L28.7803 26.5898L26.4951 27.4102L26.3896 27.4453L26.2842 27.4688L23.9873 27.9141L22.9795 28.5586L23.167 29.8242L24.1631 31.8516L25.4756 34.043L27.0459 36.0117L27.1045 36.0938L27.1631 36.1875L28.3467 38.2148L30.2686 39.5273L30.3623 39.5977L30.4443 39.668L32.2139 41.332L34.3701 42.4336L34.417 42.457L34.4639 42.4922L36.4443 43.6992L38.7998 43.9688L38.917 43.9805L39.0342 44.0156L41.4951 44.6953L44.085 45.293L44.3076 45.3516L44.5068 45.457L46.0654 46.3711L47.7529 47.3555L46.3701 48.7383L46.2881 48.8086L45.2451 47.7656L44.5537 48.9609L43.1826 48.1641L40.8271 47.625L40.792 47.6133L40.7686 47.6016L38.2959 46.9219L35.7998 46.6406L35.4717 46.6055L35.1904 46.4414L32.9053 45.0586V45.0469L30.6553 43.8984L30.4678 43.8047L30.3154 43.6641L28.4639 41.9414L26.3662 40.5L26.085 40.3125L25.9092 40.0195L24.6318 37.793L23.0615 35.8242L22.9443 35.6602L21.585 33.3984L21.5498 33.3516L21.5264 33.293L20.3662 30.9141L20.2607 30.7031L20.2256 30.4688L19.874 28.0312L19.7334 27.0703L20.5537 26.5547L22.5928 25.2539L22.8271 25.1016L23.1084 25.0547L25.5693 24.5508L27.9951 23.6836L28.2412 23.5898H28.499L31.1357 23.6016L33.7607 23.543L36.3975 23.4961H36.5381Z" fill="black"/>
<path d="M91.5747 85.8491L92.313 86.9038L93.1567 88.1343L93.0747 88.1929L92.981 88.2632L90.8481 89.4819L88.7036 90.7476L86.8403 92.4351L86.8052 92.4585L86.7817 92.4819L84.7192 94.146L84.6606 94.2046L84.5903 94.2397L82.4575 95.5991L80.4653 97.1108L78.5083 98.9038L78.4146 98.9741L76.3286 100.591L76.2349 100.662L74.2075 101.974L72.6138 103.884L72.52 104.001L72.4028 104.095L70.4106 105.654L68.7114 107.505L68.606 107.611L68.5005 107.693L66.4966 109.181L64.9263 111.068L64.5513 111.63L63.3091 110.787L62.0669 109.931L62.5356 109.251L62.5825 109.193L62.6294 109.146L64.3169 107.119L64.4341 106.978L64.5747 106.873L66.6138 105.349L68.2896 103.533L68.3716 103.451L68.4653 103.38L70.3989 101.845L72.0396 99.8999L72.1802 99.7358L72.3677 99.6069L74.5005 98.2124L76.481 96.6772L78.438 94.896L78.4849 94.8491L78.5435 94.814L80.6411 93.2085L80.688 93.1733L80.7466 93.1382L82.856 91.7905L84.895 90.1499L86.8052 88.4272L86.9106 88.3335L87.0513 88.2515L89.3364 86.9038L91.4692 85.6616L91.5747 85.8491Z" fill="black"/>
<path d="M61.0112 1.81934L63.2378 3.31934L63.4839 3.49512L63.6597 3.75293L65.0073 5.85059L66.8472 7.49121L67.0581 7.67871L67.187 7.9248L68.3589 10.2451L69.6597 12.5654L69.7651 12.7529L69.812 12.9639L70.3628 15.4365L71.4175 17.71L71.5464 17.9912V18.2842L71.6401 20.9561V21.0146L71.6284 21.0732L71.5112 23.7217V23.7686L71.4995 23.8271L71.1948 26.4521L71.1714 26.6631L71.1011 26.8506L70.2456 28.9482L70.5854 30.999L70.7964 32.2998L69.5308 32.6748L69.4956 32.6865L69.0737 31.2451L69.062 31.2334L67.6206 31.4795L67.2222 29.0068L67.1519 28.585L67.3159 28.1982L68.23 25.9248L68.5112 23.5459L68.6401 21.0498L68.5581 18.6943L67.5737 16.5146L67.5034 16.374L67.4683 16.2217L66.9175 13.8076L65.7456 11.7217L65.7222 11.6865L65.7104 11.6631L64.6323 9.53027L62.8511 7.93652L62.6987 7.7959L62.5933 7.63184L61.2925 5.61621L60.2026 4.88965L59.019 5.75684L57.437 7.58496L57.4019 7.63184L57.355 7.66699L55.5972 9.36621L54.3901 11.5107L54.3784 11.5225V11.5342L53.1479 13.5967L52.6558 15.9873L52.6323 16.1045L52.5854 16.2217L51.6948 18.542L51.355 20.8271L51.5542 23.3115L51.8706 25.8545H51.8589L52.2573 28.4326L52.2808 28.5381V30.7061L53.6167 32.4287L53.6987 32.5342L53.7573 32.6396L54.9292 34.8428L56.4409 36.7412L56.5581 36.8936L56.6401 37.0693L56.6753 37.1631L55.3042 37.7725L54.9526 37.9248L54.0972 38.6162L52.5034 36.624L52.4214 36.5186L52.3511 36.3896L51.1675 34.1748L49.5972 32.1475L49.2925 31.7373V28.8076L48.894 26.2646V26.2295L48.5659 23.6162V23.5811L48.5542 23.5459L48.355 20.8975L48.3433 20.7334L48.3667 20.5576L48.7534 17.9326L48.7886 17.7686L48.8472 17.6162L49.7729 15.2021L50.2651 12.7529L50.3237 12.5186L50.4409 12.3076L51.7886 10.0107L53.1011 7.71387L53.2065 7.53809L53.3589 7.38574L55.2573 5.52246L56.9214 3.62402L57.0269 3.49512L57.1558 3.40137L59.2769 1.85449L60.1323 1.2334L61.0112 1.81934Z" fill="black"/>
<path d="M29.4844 85.7695L31.4648 87.2812L31.5586 87.3516L33.3867 88.9688L35.6016 90.2812L35.6367 90.3047L35.6836 90.3281L37.875 91.8164L37.9453 91.875L38.0273 91.9336L39.9375 93.6328L41.9766 95.2383L44.1211 96.6914L44.1914 96.7383L44.25 96.7969L46.2539 98.5195L46.3125 98.5664L46.3711 98.625L48.0586 100.395L50.168 101.695L50.3203 101.789L52.2305 103.699L54.2578 105.41L54.3633 105.504L54.457 105.609L56.0977 107.625L57.9023 109.688L57.9609 109.781L58.043 109.91L56.7656 110.707L56.0156 111.176L55.5703 111.574L55.5 111.492V111.504L55.4648 111.445L53.8477 109.605L53.8125 109.57L52.207 107.602L50.2969 105.996L50.25 105.961L48.457 104.168L46.3242 102.867L46.1602 102.762L46.0195 102.621L44.2148 100.711L42.3398 99.1055L40.2422 97.6758L40.207 97.6523L40.1602 97.6172L38.0859 96L38.0508 95.9648L38.0156 95.9414L36.0938 94.2305L33.9961 92.8125V92.8008L31.793 91.5234L31.6641 91.4531L31.5586 91.3594L29.6484 89.6719L27.6797 88.1719L27.5977 88.1016L29.4023 85.7109L29.4844 85.7695Z" fill="black"/>
<path d="M61.8027 28.5933V28.687L61.7676 31.2183V31.3003L61.7559 31.3823L61.4395 33.8198L61.7324 36.2104L61.9316 37.8745L60.2559 37.8862H60.1621L60.1504 36.3979L58.7559 36.5737L58.4395 34.0073L58.416 33.8198L58.4395 33.6323L58.7793 31.0776L58.8027 28.6401V28.5229L61.8027 28.5933Z" fill="black"/>
<path d="M61.5791 52.6885V52.7471L61.6143 55.2197V55.3135L61.6025 55.4072L61.3447 57.7627L61.5557 58.8174L61.9189 60.6104H59.9971V59.1221L58.6143 59.415L58.3564 58.1143L58.3096 57.8916L58.333 57.6572L58.6143 55.1846L58.5791 52.7822V52.6416L61.5791 52.6885Z" fill="black"/>
<path d="M73.5503 37.5269L74.0776 38.769L74.6519 40.1519L74.5581 40.1987L74.4995 40.2104L74.4526 40.2339L72.0503 41.019L72.0386 41.0073L69.8003 41.8745L68.3823 42.8003L66.7417 43.855L66.144 42.0034L66.1089 41.9214L67.5151 41.4526L66.7534 40.2808L68.3003 39.2847L68.4292 39.2026L68.5698 39.144L71.0425 38.1948L71.0776 38.1714L71.1245 38.1597L73.4214 37.4214L73.5034 37.3862V37.3979L73.5151 37.3862L73.5503 37.5269Z" fill="black"/>
<path d="M61.9409 35.1553L62.187 35.2256L64.7183 36.0225L65.1987 36.1748L65.48 36.585L66.9331 38.6123L68.7261 40.499L69.1245 40.9209L69.1362 41.4951L69.1948 44.0967L69.3706 46.7803L69.4175 47.3545L69.0659 47.7998L67.4253 49.9209L65.9253 51.9482L65.6675 52.2881L65.2808 52.4404L62.8198 53.4365L62.7144 53.4834L62.6089 53.5068L59.9604 54.1279L59.3628 54.2686L58.8472 53.9521L56.7612 52.6982L54.5698 52.3115L52.8823 52.0068L53.4214 50.3662L53.5034 50.1201L54.8862 50.5771L55.1089 49.3584L57.5815 49.8154L57.8511 49.8623L58.0854 50.0029L59.8667 51.0693L61.8003 50.6123L63.7573 49.8154L65.0347 48.1045L65.0464 48.0928L65.0581 48.0693L66.3354 46.4053L66.2065 44.2959V44.2373L66.1479 42.1396L64.6831 40.5811L64.6128 40.5107L64.5542 40.4287L63.3354 38.7295L61.5308 38.1553L59.3628 38.249L57.2065 38.9053L55.4722 39.8896L54.3003 41.8467L53.8081 42.6787L52.8472 42.5615L50.48 42.3037L50.1753 42.2686L49.9175 42.1162L47.8433 40.9443L45.605 40.5342L45.8042 39.3623L45.769 39.0811L45.5698 37.5928L45.6753 37.5811L45.9097 37.5459L46.1323 37.5928L48.6167 38.0381L48.8628 38.085L49.0854 38.2021L51.1011 39.3389L52.2144 39.4678L53.0933 38.0264L53.2925 37.6865L53.6323 37.499L55.8706 36.2217L56.0112 36.1396L56.1753 36.0928L58.6948 35.3193L58.8823 35.2725L59.0815 35.2607L61.6831 35.1553H61.9409Z" fill="black"/>
<path d="M66.0195 49.8984L67.8125 51.3516L67.9062 51.4336L67.9883 51.5156L69.4297 53.1328L70.2969 53.625L71.9141 54.5508L70.6836 55.9336L70.625 55.9922L69.5117 55.0078L68.8203 56.2383L67.7422 55.6289L67.5312 55.5117L67.3672 55.3242L65.8203 53.5898L64.1328 52.2305L64.1094 52.207L64.0742 52.1836L64.0039 52.125L65.9961 49.875L66.0195 49.8984Z" fill="black"/>
<path d="M55.124 47.665L55.335 47.9229L55.4053 48.251L55.8975 50.4658L56.0498 51.1572L55.6162 51.7197L53.999 53.8057L53.917 53.8994L53.8232 53.9814L51.8311 55.8213L51.1162 56.4775L50.2373 56.1025L49.7217 55.8916L50.3076 54.5088L50.4014 54.2744L49.792 53.6182L51.6904 51.8604L52.8037 50.4189L52.5459 49.2354L51.1748 47.4658L50.7178 46.8799L50.9053 46.165L50.9287 46.0713L52.3818 46.4463L52.4521 46.458L53.542 45.626L55.124 47.665Z" fill="black"/>
<path d="M58.3677 41.0688L58.52 41.186H58.5786L58.6841 41.2095L58.6606 41.3032L58.813 41.4087L58.5786 41.7251L58.4497 42.3345L58.7192 42.2993L58.731 42.3931L58.4263 42.4282L58.3794 42.686L58.3091 43.0024L58.6021 43.2485L58.3794 43.5181L58.1567 43.7642L58.0864 44.1509L57.9927 44.1392V44.1274L57.8638 44.104L56.106 46.1665L55.7427 42.686V42.604L57.1606 42.4517L56.106 41.561L56.3286 41.2915L57.2427 40.2251L58.3677 41.0688Z" fill="black"/>
</svg>
