<svg width="120" height="120" viewBox="0 0 120 120" fill="none" xmlns="http://www.w3.org/2000/svg">
<path d="M59.1406 10H62V10.2109L61.8008 12.6719L61.918 15.1797H61.9297L62.1055 17.8164V17.9102L62.1123 19.2686L62.1172 19.2695L62.5859 19.3047L62.9492 19.5859L64.9297 21.1562L67.1328 22.6211L67.1562 22.6328L67.168 22.6445L69.3242 24.1797L69.3125 24.1914L71.4922 25.5391L71.9375 25.8203L72.1133 26.3242L72.3633 27.0752L72.418 27.168L73.4844 28.9961L73.7188 29.3945L73.6953 29.8633L73.5078 32.5L73.5068 32.5068L74.5 32.5117L75.8359 32.5234L75.9766 33.8594L76.2109 36.2266V36.2617L76.4219 38.8984L76.75 41.4531L76.7617 41.5352V41.6055L76.8203 44.2305L76.9141 46.8672V46.8906L76.9609 49.5391H76.9492L77.1133 52.1055L77.125 52.2227L77.1133 52.3398L76.8555 54.8477L77.1016 57.2617L77.4766 59.8984L77.5 60.0508L77.4883 60.2148L77.3008 62.7109L77.5586 65.2422L77.5703 65.3242V65.4062L77.5352 67.8789L77.9336 70.4219L77.9688 70.6562L77.9336 70.8789L77.5703 73.375L77.8281 75.7891V75.8359L77.8398 75.8711L77.9688 78.4961L78.1328 81.1211L78.3086 83.7578V83.793L78.4258 86.4297V86.6289L78.2031 89.0078L78.7656 91.4219L78.8125 91.6562L78.7891 91.9023L78.5547 94.4219L78.543 96.918L79.0586 99.3672L79.082 99.4844L79.0938 99.6016L79.2109 102.238L79.2227 102.391L79.1992 102.543L78.8242 104.969L79.1641 107.383L79.1758 107.523V107.664L79.0703 110.148L79.5039 112.609L79.5391 112.809L79.5273 113.008L79.3818 114.569L81.8867 114.559V114.547L84.5234 114.488L87.1602 114.418H87.1953L89.832 114.406H89.9375L90.0312 114.418L92.4219 114.734L94.8359 114.266L95.082 114.219L95.3164 114.254L97.8945 114.605L100.273 114.711L102.793 114.277L102.91 114.266H103.027L105.664 114.242H105.816L105.969 114.266L108.406 114.746L110.809 114.5L110.891 114.488H110.973L112.016 114.5L112.004 116L111.98 117.5L110.984 117.488L108.477 117.746L108.254 117.77L108.031 117.734L105.57 117.242L103.145 117.254L100.648 117.688L100.496 117.711L100.332 117.699L97.6953 117.594H97.625L97.5547 117.582L95.1523 117.242L92.7617 117.711L92.5273 117.758L92.293 117.734L89.7383 117.406L87.207 117.418L87.1953 117.406L84.6055 117.488H84.5938L81.957 117.547H81.9336L79.3672 117.559L79.3789 117.57L76.7422 117.746L76.5547 117.758L74.9092 117.449L73.457 117.707L73.3398 117.719L73.2344 117.73L70.5859 117.766H70.4805L70.375 117.754L68.1836 117.452L66.1719 117.582H66.043L65.9805 117.576L65.4062 117.625H65.1953L62.6055 117.473L61.3027 117.521L60.957 117.559H60.8867L60.8418 117.561L60.668 117.578L60.5859 117.59H60.5156L60.3682 117.588L58.25 117.711L58.0977 117.723L57.957 117.699L56.5791 117.509L54.8125 117.613H54.6953L54.5898 117.602L52.374 117.396L50.2109 117.348V117.336H47.5742L46.5674 117.317L44.3008 117.52L43.5508 117.59L43.4072 117.426L42.4531 117.512L42.418 117.523H42.3711L39.7344 117.617H39.6172L36.9805 117.512V117.5L34.3906 117.488H34.3438L34.2969 117.477L31.7188 117.301L29.1875 117.43H29.1055L26.4688 117.418V117.406L23.9609 117.43L21.3242 117.664L21.1836 117.676L21.0312 117.664L18.5 117.383L15.9219 117.395V117.383L13.3789 117.559H13.3672L13.3555 117.57L10.707 117.688L10.6133 117.699L10.5312 117.688L7.98828 117.5L8 117.277V114.5H8.21094L10.6719 114.699L13.1797 114.582V114.57L15.8164 114.395H15.9102L18.5469 114.383L18.6406 114.371L18.7227 114.383L21.2305 114.664L23.7148 114.453L23.7617 114.441H23.8203L26.4688 114.418H26.4922L29.0469 114.43L31.6953 114.312L31.7773 114.301L31.8594 114.312L34.5078 114.488L34.4961 114.5L37.0508 114.512H37.0977L39.6875 114.617L41.3311 114.562L41.3477 114.391L41.5703 111.895V109.117L41.5938 108.988L42.0273 106.504L41.9453 104.066L41.793 101.418L41.7812 101.289L41.8047 101.16L42.0742 98.6406V96.0625L42.0625 93.4258V93.3203L42.0742 93.2266L42.3789 90.7773L42.1211 88.2812L42.1094 88.1523L42.1211 88.0117L42.332 85.4219L42.2383 82.9023V82.7266L42.4727 80.0898L42.4492 77.5938V77.4297L42.4844 77.2773L42.9766 74.8281L42.8242 72.4023V72.3906L42.6719 69.7539L42.6602 69.625L42.6719 69.5078L42.9531 66.8711V66.8477L43.2461 64.3633L43.1172 61.832V61.7266L43.1289 61.6211L43.3398 59.0547L43.2227 56.5469L43.1055 53.8984L43.0938 53.793L43.1055 53.6758L43.3516 51.0977L43.2695 48.6016V48.5195L43.3281 45.8711V45.7539L43.3516 45.6367L43.8086 43.1172L43.8789 40.6797L43.8203 38.0547L43.7266 35.4062V35.2773L43.7383 35.1484L43.9375 33.7891L44.125 32.4648L45.4609 32.5H45.6602L48.1211 32.6992L48.6445 32.6738L48.5586 31.293L48.5703 31.2812L48.2891 28.7148L48.2539 28.3516L48.3047 28.2207L47.0586 26.5H49.6133L50.1523 25.8906L50.2695 25.7617L50.4219 25.6562L52.5781 24.1562L54.6289 22.5859H54.6406L54.6523 22.5742L56.7734 21.0039L58.8711 19.4336L59.1123 19.249L59.1055 17.9336V17.9219L58.9414 15.3789V15.3672L58.9297 15.3555L58.8125 12.707L58.8008 12.6133L58.8125 12.5312L59 9.98828L59.1406 10ZM65.7969 35.4648L65.8086 35.4766L63.1719 35.7109H63.0195L60.3711 35.6641V35.6523H58.9043L58.7734 35.6641L58.6211 35.6758L58.4805 35.6641L58.375 35.6523H57.7227L55.1094 35.5938L52.5078 35.6523H52.3906L52.2734 35.6406L51.3984 35.5176L50.8164 35.5586H50.8047L50.793 35.5703L48.1562 35.6875L48.0625 35.6992L47.9688 35.6875L46.7266 35.5938L46.8203 37.9492V37.9609L46.8789 40.6094V40.6797L46.8086 43.3281V43.4453L46.7852 43.5508L46.3164 46.0586L46.2695 48.5781L46.3633 51.1445V51.2383L46.3516 51.3438L46.0938 53.8984L46.2227 56.4062L46.3398 59.043L46.3516 59.1484L46.3398 59.2422L46.1172 61.7969L46.2578 64.3164V64.4453L46.2461 64.5742L45.9297 67.2109L45.6602 69.7188L45.8242 72.2148L45.9766 74.8633L45.9883 75.0625L45.9531 75.25L45.4492 77.7461L45.4727 80.207V80.2773L45.4609 80.3477L45.2383 82.7969L45.332 85.4453V85.5273L45.3203 85.6211L45.1211 88.0938L45.3789 90.625L45.3906 90.8008L45.3789 90.9648L45.0625 93.4961L45.0742 96.0391V98.8633L44.793 101.324L44.9453 103.891V103.926L45.0273 106.574L45.0391 106.727L45.0039 106.879L44.5703 109.363V112.023L44.3828 114.004L44.6455 114.306L44.832 114.289H44.9844L46.4561 114.314L46.668 114.297L46.7383 114.285H49.4922L52.1289 114.367H52.2344L52.5762 114.399L52.8711 114.406L55.2959 114.352L55.3125 114.133L55.4883 111.496L55.5117 108.941V108.895L55.6055 106.551L55.5938 106.527L55.6172 106.516V106.258L55.9922 106.27L57.0938 105.566L57.1406 104.57L59.6367 104.699L62.2031 104.57L63.2344 104.523L63.6445 105.449L64.4766 107.312L64.6055 107.594V107.91L64.6172 110.547L64.6289 110.641L64.6172 110.723L64.3359 113.23L64.4336 114.386L65.9561 114.565L67.8086 114.426L67.9609 114.414L68.125 114.438L68.2471 114.452L68.6328 114.43L68.7148 114.418L68.7969 114.43L71.3281 114.559L73.8242 114.266L74.0586 114.23L74.2812 114.277L74.9551 114.402L75.5898 114.297H75.625L75.6484 114.285L76.3984 114.18L76.5156 112.938L76.0938 110.512L76.0586 110.348L76.0703 110.184L76.1641 107.688L75.8125 105.18L75.7891 104.957L75.8242 104.746L76.2109 102.203L76.0938 99.8359L75.5781 97.3633L75.543 97.2109V97.0586L75.5547 94.4102V94.2695L75.7773 91.8789L75.2266 89.4883L75.1797 89.2539L75.1914 89.0078L75.4258 86.4297L75.3086 83.9219V83.9102L75.1328 81.3203V81.3086L74.9688 78.6719V78.6602L74.8398 76.1055L74.5703 73.4805L74.5469 73.2812L74.5703 73.0938L74.9336 70.6562L74.5586 68.2656L74.5352 68.1367V68.0195L74.5703 65.5352L74.3125 62.9102L74.3008 62.7812L74.3125 62.6523L74.4883 60.1562L74.1367 57.6953L74.125 57.6602V57.625L73.8672 55L73.8438 54.8477L73.8672 54.707L74.1133 52.1406L73.9609 49.6562V49.5859L73.9141 46.9727L73.8203 44.3359V44.3125L73.7617 41.7578L73.4336 39.2031V39.168L73.4219 39.1328L73.2227 36.5312L73.1172 35.4883H71.7812L71.7637 35.4834L71.7383 35.5234L70.8945 35.4883L68.3047 35.3828L65.7969 35.4648ZM59.707 107.688L59.6367 107.699L59.5664 107.688L58.5586 107.641L58.5117 109.023L58.4883 111.613V111.66L58.4766 111.707L58.3242 113.863L58.6992 114.507L60.0039 114.555L60.999 114.522L61.4297 114.484L61.3359 113.324L61.3242 113.184L61.3359 113.031L61.6055 110.5V108.238L61.3242 107.605L59.707 107.688ZM59.9844 51.4766L62.5508 52.1094L63.0078 52.2266L63.3242 52.5781L65.082 54.6055L65.4219 54.9922L65.4453 55.5195L65.5156 56.9375L65.5859 58.4961H64.9414L64.4023 59.8672L64.25 60.2891L63.8867 60.5469L61.8594 62.0234L61.4492 62.3164H60.957L58.3438 62.2695L57.7812 62.2578L57.3594 61.8828L55.3789 60.1016L54.9219 59.6914L54.8867 59.082L54.7227 56.4922L54.6992 56.1406L54.8398 55.8008L55.8477 53.4453L56.0703 52.918L56.5977 52.6719L58.9883 51.5703L59.4688 51.3477L59.9844 51.4766ZM58.3672 55.1562L57.7344 56.6445L57.8398 58.2734L58.9531 59.2695L60.4883 59.3047L61.7539 58.3789L62.4805 56.4922L62.4688 56.1758L61.3789 54.9102L59.7617 54.5117L58.3672 55.1562ZM61.9062 40.5938L63.3828 42.6328L63.7227 43.1016L63.6641 43.6758L63.3711 46.3242L63.3477 46.5117L63.2773 46.6992L62.6094 48.4336L62.2578 49.3242L61.3086 49.3828L58.6602 49.5586L57.5352 49.6406L57.1484 48.5625L56.3984 46.4297L56.2812 46.1016L56.3164 45.7617L56.4805 44.3438L56.0352 44.1797L56.6094 42.7266L57.043 41.625L57.3125 40.957L57.9922 40.7461L60.2422 40.043L61.2734 39.7148L61.9062 40.5938ZM59.5977 43.3945L59.5859 43.4883L59.3398 45.7383L59.6094 46.5L60.1602 46.4648L60.4062 45.7969L60.6172 43.9219L60.1133 43.2305L59.5977 43.3945ZM55.3789 29.5586H55.3672L55.3555 29.5703L52.707 29.6875L52.6133 29.6992L52.5312 29.6875L51.3945 29.5938L51.5586 31.0469V31.1055L51.627 32.5029L53.2656 32.3945H53.3594L55.9961 32.3828L56.0781 32.3711L56.1719 32.3828L58.6074 32.6553L58.7646 32.6562L61.1523 32.4531L61.2109 32.4414H61.2695L63.9062 32.418H63.9297L66.4961 32.4297L69.1328 32.3125L69.2148 32.3008L69.3086 32.3125L70.2217 32.373L70.543 31.9023L70.6602 30.1094L70.3418 29.5732L68.4922 29.582H68.4688L65.8203 29.5586H65.7617L65.7148 29.5469L65.166 29.5L63.3242 29.6641L63.1836 29.6758L63.0312 29.6641L61.6611 29.5117L60.7227 29.6172L60.6406 29.6289L60.5469 29.6172L57.9102 29.6055H57.8164L56.2295 29.499L55.3789 29.5586ZM58.5664 23.418H58.5547L56.4336 24.9883L54.5703 26.4062L55.3555 26.4297L55.3672 26.4414H55.3789L56.2295 26.5L57.8164 26.3945H57.9102L60.5469 26.3828L60.6406 26.3711L60.7227 26.3828L61.6611 26.4873L63.0312 26.3359L63.1836 26.3242L63.3242 26.3359L65.166 26.499L65.7148 26.4531L65.7617 26.4414H65.8203L67.3037 26.4277L65.4688 25.1172L63.2656 23.6523L63.1719 23.582L61.4609 22.2461L60.2188 22.1641L58.5664 23.418Z" fill="black"/>
</svg>
