<svg width="120" height="120" viewBox="0 0 120 120" fill="none" xmlns="http://www.w3.org/2000/svg">
<path d="M99.1914 17.5898L101.301 19.1133L101.406 19.1836L101.488 19.2656L103.363 21.1172L103.422 21.1758L103.469 21.2344L104.412 22.3867L105.188 22.3213L105.301 23.4736L107.242 25.8516L105.519 25.7021L105.581 26.334L105.588 26.4121V26.4893L105.571 29.0957L105.692 31.6904L105.696 31.7764L105.69 31.8623L105.514 34.4492L105.489 37.0547L105.487 37.1016L105.382 39.6846L105.477 42.2285L105.707 44.8281L105.714 44.9062L105.713 44.9844L105.669 47.625L105.653 50.249V50.2607L105.652 50.2734L105.596 52.8789L105.649 55.4883L105.652 55.6084L105.636 55.7266L105.288 58.2188L105.435 60.6836L105.708 63.2832L105.726 63.4463L105.707 63.6084L105.423 66.1191L105.574 68.6299L105.579 68.7129L105.574 68.7969L105.445 71.3086L105.739 73.8262L105.766 74.0527L105.724 74.2773L105.261 76.7314L105.424 79.1807L105.427 79.2227V79.2637L105.456 81.9033H105.455L105.514 84.5273H105.513L105.587 87.1582V87.1758L105.588 87.1934L105.599 89.834L105.6 89.9336L105.586 90.0322L105.275 92.4346L105.736 94.8379L105.782 95.0781L105.749 95.3203L105.402 97.8867L105.301 100.306L105.719 102.791L105.739 102.909L105.74 103.029L105.759 105.669L105.761 105.82L105.731 105.969L105.256 108.39L105.503 110.808L105.517 110.945L105.505 111.082L105.293 113.685L105.285 114.245L105.664 114.242H105.816L105.969 114.266L108.406 114.746L110.809 114.5L110.891 114.488H110.973L112.016 114.5L112.004 116L111.98 117.5L110.984 117.488L108.477 117.746L108.254 117.77L108.031 117.734L105.57 117.242L105.245 117.243L105.237 117.862L103.562 117.64L102.066 117.44L100.648 117.688L100.496 117.711L100.332 117.699L97.6953 117.594H97.625L97.5547 117.582L97.1455 117.523L96.0918 117.704L95.9785 117.724L95.8623 117.725L93.2227 117.765L93.1143 117.767L93.0059 117.752L92.7334 117.716L92.5273 117.758L92.293 117.734L89.8447 117.42H87.085L85.1006 117.607L85.0029 117.617L84.9043 117.613L82.6963 117.53L81.957 117.547H81.9336L79.3672 117.559L79.3789 117.57L76.7422 117.746L76.5547 117.758L75.0527 117.476L74.291 117.409L73.2568 117.344L71.5391 117.547L71.4102 117.559H71.2812L70.167 117.497L69.2041 117.639L69.0703 117.635L66.624 117.553L66.1719 117.582H66.043L66.0059 117.578L63.9307 117.704L63.834 117.71L63.7383 117.704L61.3516 117.541L59.5469 117.707L59.4648 117.719L59.3828 117.707L58.5166 117.695L58.25 117.711L58.0977 117.723L57.957 117.699L57.8672 117.687L56.7461 117.672L56.3828 117.66L56.0664 117.496L55.9209 117.417L55.4141 117.348L52.9062 117.406H52.877L50.7832 117.607L50.6689 117.618L50.5537 117.611L47.9863 117.464L45.4209 117.569L45.3623 117.571L45.3037 117.569L42.8438 117.477L42.4531 117.512L42.418 117.523H42.3711L41.1152 117.567L40.168 117.624L40.0654 117.631L39.9629 117.622L39.8477 117.612L39.7344 117.617H39.6172L36.9805 117.512V117.5L36.9277 117.499L34.9941 117.752L34.8857 117.767L34.7773 117.765L33.2383 117.741L33.2373 117.862L32.209 117.726L32.1377 117.725L30.624 117.702L30.6279 117.515L29.7607 117.4L29.1875 117.43H29.1055L26.4688 117.418V117.406L25.7988 117.412L24.0918 117.704L23.9785 117.724L23.8623 117.725L21.2227 117.765L21.1143 117.767L21.0059 117.752L18.4629 117.42H15.3848L13.3789 117.559H13.3672L13.3555 117.57L10.707 117.688L10.6133 117.699L10.5312 117.688L7.98828 117.5L8 117.277V114.5H8.21094L10.6719 114.699L13.1797 114.582V114.57L14.4551 114.484L14.5273 113.268L14.4307 110.696L14.4287 110.638L14.4307 110.579L14.5361 108.014L14.3887 105.446L14.3818 105.331L14.3926 105.217L14.6406 102.636L14.7139 100.081L14.7129 97.5107L14.4785 94.9355L14.4775 94.9189L14.4756 94.9023L14.2959 92.2617L14.29 92.166L14.2959 92.0693L14.4512 89.5L14.3652 86.9297L14.3613 86.7959L14.3809 86.6631L14.7451 84.1807L14.5889 81.6934L14.3604 79.0908L14.3496 78.9658L14.3594 78.8408L14.5625 76.29L14.4844 73.7256L14.4854 73.7246L14.3867 71.0957L14.3828 70.9971L14.3926 70.8994L14.626 68.4297L14.2988 65.957L14.2803 65.8203L14.2871 65.6826L14.4189 63.124L14.251 60.5781L14.2451 60.4854L14.251 60.3916L14.4023 57.8271L14.3076 55.2549L14.3018 55.0986L14.3281 54.9453L14.75 52.5L14.5264 50.0566V50.0537L14.29 47.4141L14.2783 47.29L14.2881 47.167L14.4873 44.5273L14.4883 44.5166L14.4893 44.5068L14.7139 41.9932L14.5098 39.4814L14.501 39.3789L14.5068 39.2773L14.6484 36.7334L14.4561 34.1924L14.457 34.1914L14.252 31.5557L14.2441 31.4463L14.252 31.3359L14.4287 28.8018L14.2607 26.2588L14.2578 26.2158V26.1729L14.2422 24.3633L13.5859 23.707L14.2324 23.2061L14.2266 22.5H15.1436L16.2695 21.6211H16.2812L18.2148 19.8398L19.9375 17.9883L20.3711 17.5195L21.0156 17.5078L23.5703 17.4961V17.4844L26.207 17.3086L26.7461 17.2734L27.1914 17.5898L29.3008 19.1133L29.4062 19.1836L29.4883 19.2656L31.3633 21.1172L31.4219 21.1758L31.4688 21.2344L32.4121 22.3867L33.1885 22.3213L33.3008 23.4736L35.2422 25.8516L33.5186 25.7021L33.5811 26.334L33.5879 26.4121V26.4893L33.5713 29.0957L33.6924 31.6904L33.6963 31.7764L33.6904 31.8623L33.5137 34.4492L33.4893 37.0547L33.4873 37.1016L33.3818 39.6846L33.4766 42.2285L33.707 44.8281L33.7139 44.9062L33.7129 44.9844L33.6689 47.625L33.6533 50.249V50.2607L33.6523 50.2734L33.5957 52.8789L33.626 54.3877L35.3164 54.5654L37.7812 54.7119L40.2734 54.3643L40.3916 54.3477L40.5117 54.3506L43.1191 54.4053L45.7266 54.3477L45.7393 54.3467H45.751L48.376 54.332L48.375 54.3311L50.249 54.2998L51.4922 52.5312L52.8516 50.3633L52.8984 50.2812L52.9453 50.2227L54.5508 48.2305L56.0625 46.0625L56.0977 46.0273L57.6914 43.918L57.75 43.8359L60.375 41.2109L61.4297 42.4766L63.1172 44.5039L63.1758 44.5742L63.2109 44.6328L64.6758 46.8242L66.1641 48.9922V49.0039L66.1758 49.0156L67.6289 51.2188V51.2305L69.1406 53.3047L69.2227 53.4219L69.293 53.5625L69.6865 54.4131L72.1768 54.4424H72.2324L72.2881 54.4473L72.9004 54.5H73.8047L73.7041 54.5684L74.7842 54.6621L77.2754 54.3867L77.3613 54.377H77.4473L80.0879 54.3906H80.1338L80.1797 54.3936L82.792 54.5693V54.5684L85.334 54.6914L86.0986 54.6328L86.083 54.5H86.4053L86.75 52.5L86.5264 50.0566V50.0537L86.29 47.4141L86.2783 47.29L86.2881 47.167L86.4873 44.5273L86.4883 44.5166L86.4893 44.5068L86.7139 41.9932L86.5098 39.4814L86.501 39.3789L86.5068 39.2773L86.6484 36.7334L86.4561 34.1924L86.457 34.1914L86.252 31.5557L86.2441 31.4463L86.252 31.3359L86.4287 28.8018L86.2607 26.2588L86.2578 26.2158V26.1729L86.2422 24.3633L85.5859 23.707L86.2324 23.2061L86.2266 22.5H87.1436L88.2695 21.6211H88.2812L90.2148 19.8398L91.9375 17.9883L92.3711 17.5195L93.0156 17.5078L95.5703 17.4961V17.4844L98.207 17.3086L98.7461 17.2734L99.1914 17.5898ZM93.3799 25.5635L93.3662 25.5645L93.3516 25.5654L90.7119 25.6914L90.6191 25.6963L90.5264 25.6895L89.252 25.5918L89.2559 26.0996L89.4287 28.7012L89.4346 28.8027L89.4277 28.9043L89.251 31.4346L89.4473 33.9639L89.4482 33.9678L89.6465 36.6074L89.6533 36.7051L89.6484 36.8027L89.5078 39.3359L89.7139 41.8789L89.7236 42.0059L89.7129 42.1328L89.4785 44.752L89.4795 44.7529L89.2881 47.2715L89.5137 49.7832L89.7549 52.4238L89.7734 52.6201L89.7393 52.8145L89.3105 55.2969L89.3691 56.8896L89.5107 58.1533L89.5146 58.1934L89.5176 58.2334L89.6709 60.873L89.6758 60.9639L89.6699 61.0547L89.5029 63.6953L89.3652 66.2686L89.6221 68.2031L89.6436 68.3721L89.6279 68.541L89.5107 69.7734L89.7441 71.293L89.7617 71.4111L89.7607 71.5303L89.7422 74.1709V74.2148L89.7393 74.2588L89.5713 76.8018L89.748 79.3359L89.7559 79.4463L89.748 79.5557L89.5889 81.6006L89.748 84.1465L89.7578 84.3027L89.7354 84.457L89.4453 86.4297L89.4932 87.2773L89.499 87.3789L89.4902 87.4814L89.415 88.3984L89.4512 89.4707L89.4541 89.54L89.4492 89.6104L89.3691 90.9248L89.5107 92.5068L89.5117 92.5166L89.5127 92.5273L89.7119 95.167L89.7217 95.29L89.71 95.4141L89.6221 96.3896L89.7051 97.3047L89.7109 97.3721L89.7119 97.4385L89.7139 100.079V100.101L89.7129 100.123L89.6377 102.749L89.6719 102.945L89.6982 103.099L89.6924 103.255L89.5977 105.827L89.749 108.392L89.7549 108.485L89.749 108.578L89.5811 111.124L89.7129 113.683L89.7256 113.937L89.6543 114.181L89.5879 114.407L89.832 114.406H89.9375L90.0312 114.418L90.0498 114.42L90.5605 114.421H90.6572L90.7539 114.434L92.6797 114.684L94.8359 114.266L95.082 114.219L95.3164 114.254L97.0693 114.492L98.2275 114.296L98.3613 114.273L98.4961 114.275L101.136 114.303L101.227 114.304L101.317 114.315L102.025 114.409L102.283 114.364L102.295 113.58V113.528L102.3 113.478L102.504 110.979L102.249 108.473L102.227 108.25L102.27 108.031L102.757 105.54L102.74 103.172L102.316 100.648L102.29 100.494L102.297 100.337L102.407 97.6973L102.41 97.6279L102.42 97.5596L102.743 95.1631L102.284 92.7617L102.239 92.5264L102.27 92.2871L102.598 89.748L102.588 87.2422L102.515 84.6016L102.514 84.5928L102.456 81.9531V81.9365L102.427 79.3242L102.256 76.7393L102.243 76.5498L102.278 76.3623L102.732 73.9463L102.452 71.5332L102.438 71.4092L102.443 71.2832L102.573 68.7246L102.42 66.1699L102.412 66.04L102.427 65.9111L102.707 63.4316L102.447 60.957L102.443 60.9229L102.441 60.8887L102.285 58.249L102.276 58.1006L102.297 57.9531L102.647 55.4297L102.596 52.9111L102.595 52.8789L102.596 52.8467L102.653 50.207L102.669 47.5908L102.67 47.583V47.5752L102.711 45.0107L102.485 42.4521L102.482 42.4141L102.48 42.376L102.382 39.7363L102.38 39.6777L102.382 39.6182L102.489 36.9951L102.515 34.3857V34.3418L102.518 34.2979L102.691 31.7363L102.573 29.1895L102.571 29.1504V29.1104L102.587 26.5508L102.49 25.5625L101.328 25.6631L101.182 25.6758L101.035 25.6592L99.6807 25.5088L98.7227 25.6172L98.6406 25.6289L98.5469 25.6172L95.9102 25.6055H95.8164L94.2812 25.5029L93.3799 25.5635ZM21.3799 25.5635L21.3662 25.5645L21.3516 25.5654L18.7119 25.6914L18.6191 25.6963L18.5264 25.6895L17.252 25.5918L17.2559 26.0996L17.4287 28.7012L17.4346 28.8027L17.4277 28.9043L17.251 31.4346L17.4473 33.9639L17.4482 33.9678L17.6465 36.6074L17.6533 36.7051L17.6484 36.8027L17.5078 39.3359L17.7139 41.8789L17.7236 42.0059L17.7129 42.1328L17.4785 44.752L17.4795 44.7529L17.2881 47.2715L17.5137 49.7832L17.7549 52.4238L17.7734 52.6201L17.7393 52.8145L17.3105 55.2969L17.4023 57.7852L17.4053 57.8564L17.4004 57.9277L17.25 60.4697L17.418 63.0215L17.4238 63.1094L17.4189 63.1973L17.29 65.6982L17.6221 68.2031L17.6436 68.3721L17.6279 68.541L17.3877 71.0801L17.4824 73.624L17.4834 73.6348L17.5635 76.2744L17.5664 76.3564L17.5596 76.4385L17.3594 78.9531L17.5801 81.4688L17.582 81.4873L17.583 81.5068L17.748 84.1465L17.7578 84.3027L17.7354 84.457L17.3682 86.9609L17.4512 89.4707L17.4541 89.54L17.4492 89.6104L17.2949 92.1553L17.4668 94.665L17.7051 97.3047L17.7109 97.3721L17.7119 97.4385L17.7139 100.079V100.101L17.7129 100.123L17.6377 102.763L17.6367 102.812L17.6318 102.863L17.3896 105.385L17.5352 107.914L17.5391 107.987L17.5361 108.062L17.4307 110.645L17.5273 113.224L17.5303 113.296L17.5264 113.368L17.4648 114.387L18.5469 114.383L18.6406 114.371L18.7227 114.383L21.2305 114.664L23.7148 114.453L23.7617 114.441H23.8203L25.457 114.427L26.2275 114.296L26.3613 114.273L26.4961 114.275L29.1357 114.303L29.2266 114.304L29.3174 114.315L29.8955 114.392L30.2832 114.374L30.2949 113.58V113.528L30.2998 113.478L30.5039 110.979L30.249 108.473L30.2266 108.25L30.2695 108.031L30.5693 106.493L30.6973 105.56L30.4951 103.082L30.4834 102.945L30.4971 102.808L30.5654 102.134L30.3164 100.648L30.29 100.494L30.2969 100.337L30.373 98.5029L30.2686 97.9688L30.2393 97.8203L30.2412 97.6689L30.2598 95.0293L30.2607 94.9092L30.2812 94.791L30.4639 93.7031L30.2393 92.5264L30.2695 92.2871L30.5879 89.8184L30.251 87.3203L30.2178 87.0781L30.2637 86.8379L30.5371 85.4111L30.5146 84.6016L30.5137 84.5928L30.4658 82.4385L30.4141 82.0322L30.4004 81.9336L30.4014 81.834L30.4121 79.1934L30.4131 79.1758V79.1289L30.2559 76.7393L30.2432 76.5498L30.2783 76.3623L30.5176 75.084L30.5449 73.9033H30.5439L30.5596 72.4609L30.4521 71.5332L30.4375 71.4092L30.4434 71.2832L30.5732 68.7246L30.4961 67.4434L30.2764 66.2773L30.2344 66.0527L30.2607 65.8262L30.5547 63.3086L30.4258 60.7969L30.4209 60.7129L30.4258 60.6299V60.627L30.2852 58.249L30.2764 58.1006L30.2969 57.9531L30.6475 55.4297L30.5957 52.9111L30.5947 52.8789L30.5957 52.8467L30.6533 50.207L30.6689 47.5908L30.6699 47.583V47.5752L30.7109 45.0107L30.4854 42.4521L30.4824 42.4141L30.4805 42.376L30.3818 39.7363L30.3799 39.6777L30.3818 39.6182L30.4893 36.9951L30.5146 34.3857V34.3418L30.5176 34.2979L30.6914 31.7363L30.5732 29.1895L30.5713 29.1504V29.1104L30.5869 26.5508L30.4902 25.5625L29.3281 25.6631L29.1816 25.6758L29.0352 25.6592L27.6807 25.5088L26.7227 25.6172L26.6406 25.6289L26.5469 25.6172L23.9102 25.6055H23.8164L22.2812 25.5029L21.3799 25.5635ZM48.4248 57.3301H48.417L48.4092 57.3311L45.793 57.3457V57.3467L43.1533 57.4043L43.1211 57.4053L43.0889 57.4043L40.5703 57.3516L38.0469 57.7031L37.8994 57.7236L37.751 57.7148L35.1113 57.5586L35.0771 57.5566L35.043 57.5527L33.7529 57.417L33.5742 58.2803L33.4316 60.6387L33.4346 60.6836L33.708 63.2832L33.7256 63.4463L33.707 63.6084L33.4229 66.1191L33.4805 67.0801L33.7217 68.3623L33.7568 68.5498L33.7441 68.7393L33.5732 71.3242L33.5615 72.3096L33.7393 73.8262L33.7656 74.0527L33.7236 74.2773L33.5117 75.3965L33.4863 76.5928L33.4854 76.6016L33.416 79.0742L33.4238 79.1807L33.4268 79.2227V79.2637L33.4561 81.9033H33.4551L33.4609 82.208L33.7305 84.2871L33.7607 84.5264L33.7158 84.7617L33.5439 85.6572L33.5869 87.1582V87.1758L33.5879 87.1934L33.5986 89.834L33.7031 92.3369L33.71 92.4941L33.6836 92.6484L33.5117 93.6689L33.7363 94.8379L33.7822 95.0781L33.749 95.3203L33.4023 97.8867L33.3857 98.2705L33.7305 100.031L33.7734 100.25L33.751 100.473L33.5918 102.036L33.7188 102.791L33.7393 102.909L33.7402 103.029L33.7588 105.669L33.7607 105.82L33.7314 105.969L33.5283 107.002L33.3604 108.24L33.6846 110.683L33.6963 110.773L33.6973 110.864L33.7246 113.504L33.7256 113.53L33.7246 113.556L33.7031 114.434L34.5078 114.488L34.4961 114.5L36.6592 114.51L37.2461 114.434L37.4014 114.413L37.5566 114.425L39.9219 114.609L40.835 114.579L42.6318 114.474L42.7041 114.47L42.7764 114.473L42.833 114.475L44.832 114.289H44.9844L47.6211 114.336L47.6094 114.348H50.2695L52.7637 114.403L53.1367 114.368L53.1875 114.363L53.2373 114.362L53.3643 114.358L53.4062 112.527L53.3477 109.879V109.762L53.3594 109.645L53.7227 107.148L53.5586 104.664L53.5703 104.652L53.2891 102.086L53.207 101.301L53.8164 100.785L53.8516 100.75L54.5547 98.8633L54.6836 98.5234L54.9414 98.2891L56.8281 96.5664L57.0742 96.332L57.4023 96.2383L59.9102 95.4531L60.2617 95.3477L60.625 95.418L63.25 95.8984L63.6836 95.9805L64 96.2734L65.9219 98.0547L66.1211 98.2422L66.2383 98.4883L67.3867 100.797L67.5391 101.102L67.5508 101.441L67.5859 104.09V104.113L67.5742 106.762L67.6914 109.316V109.492L67.5156 112.129L67.4932 114.497L68.6328 114.43L68.7148 114.418L68.7969 114.43L69.9961 114.49L71.543 114.265L71.6973 114.242L71.8535 114.252L73.2148 114.337L73.8242 114.266L74.0586 114.23L74.2812 114.277L75.4971 114.504L77.0469 114.64L79.5615 114.44L79.6436 114.434L79.7256 114.437L82.3652 114.517L82.376 114.518L82.6875 114.528L84.5234 114.488L86.4541 114.437L86.459 114.418L86.5273 113.268L86.4307 110.696L86.4287 110.638L86.4307 110.579L86.5361 108.014L86.3887 105.446L86.3818 105.331L86.3926 105.217L86.6172 102.878L86.2607 100.814L86.2266 100.62L86.2451 100.424L86.4863 97.7832L86.6104 96.3926L86.4785 94.9355L86.4775 94.9189L86.4756 94.9023L86.2959 92.2617L86.29 92.166L86.2959 92.0693L86.3613 90.9717L86.2871 90.1328L86.2764 90.0059L86.2861 89.8789L86.4111 88.3262L86.3652 86.9297L86.3613 86.7959L86.3809 86.6631L86.4336 86.2969L86.3516 84.8027L86.3467 84.7051L86.3535 84.6074L86.5518 81.9678L86.5527 81.9639L86.5801 81.6016L86.3604 79.0908L86.3496 78.9658L86.3594 78.8408L86.5625 76.29L86.4844 73.7256L86.4854 73.7246L86.3867 71.0957L86.3828 70.9971L86.3926 70.8994L86.4902 69.8643L86.374 69.1074L86.3564 68.9922L86.3574 68.875L86.3643 66.4531L86.2988 65.957L86.2803 65.8203L86.2871 65.6826L86.4189 63.124L86.251 60.5781L86.2451 60.4854L86.251 60.3916L86.4023 57.8271L86.3945 57.6182L85.4736 57.6895L85.3809 57.6963L85.2881 57.6914L82.6484 57.5654L82.6338 57.5645L82.6201 57.5635L80.0205 57.3896L77.5215 57.377L74.9648 57.6592L74.8184 57.6758L74.6719 57.6631L72.0947 57.4414L69.6006 57.4131L68.2031 58.3672L67.7832 57.4229L66.8896 57.4287H66.8496L66.8105 57.4268L65.2217 57.3516L63.8203 57.418V57.4297L61.1836 57.6055H61.0898L58.4531 57.6172L58.3594 57.6289L58.2773 57.6172L57.7725 57.5605L56.3818 57.6182L56.3223 57.6201L56.2637 57.6182L53.624 57.5195L53.6133 57.5186L53.2852 57.5469L53.0391 57.5703L52.793 57.5117L52.4111 57.4131L50.9893 57.2881L48.4248 57.3301ZM58.5977 98.9922L57.2383 100.234L56.5 102.238L56.3594 102.602L56.5586 104.418V104.488L56.7109 107.125L56.7227 107.277L56.6992 107.418L56.3477 109.938L56.4062 112.457V112.527L56.3594 114.238L56.4492 114.286L58.5615 114.288L58.6279 114.289L58.6953 114.295L61.1787 114.519L63.2891 114.289L63.4414 114.277L63.6055 114.289L64.124 114.35L64.4922 114.004L64.5156 112.012V111.93L64.6914 109.457L64.5742 106.82V106.738L64.5859 104.125L64.5508 101.828L63.6719 100.082L62.2773 98.7695L60.4375 98.4297L58.5977 98.9922ZM44.5938 95.9219L46.7148 97.3867L47.2773 97.7852L47.3477 98.4766L47.6172 101.125L47.6289 101.277L47.6172 101.441L47.3359 103.949L47.5469 106.422L47.6055 107.031L47.2188 107.5L45.9648 109.035L45.5195 109.598L44.793 109.586L42.1562 109.574H41.9922L41.8281 109.527L39.4727 108.988L38.2188 108.695L38.3125 107.43L38.4883 104.781L38.5117 102.227V102.18L38.6172 99.6836L39.6602 99.7305L39.6953 99.543L38.8047 99.0273L40.0469 96.9297L40.375 96.3672L41.0078 96.2266L43.4102 95.6875L44.0547 95.5469L44.5938 95.9219ZM80.5938 95.9219L82.7148 97.3867L83.2773 97.7852L83.3477 98.4766L83.6172 101.125L83.6289 101.277L83.6172 101.441L83.3359 103.949L83.5469 106.422L83.6055 107.031L83.2188 107.5L81.9648 109.035L81.5195 109.598L80.793 109.586L78.1562 109.574H77.9922L77.8281 109.527L75.4727 108.988L74.2188 108.695L74.3125 107.43L74.4883 104.781L74.5117 102.227V102.18L74.6172 99.6836L75.6602 99.7305L75.6953 99.543L74.8047 99.0273L76.0469 96.9297L76.375 96.3672L77.0078 96.2266L79.4102 95.6875L80.0547 95.5469L80.5938 95.9219ZM23.1406 99H26V99.2109L25.8008 101.672L25.918 104.18H25.9297L26.1055 106.816L26.1641 107.648L25.4961 108.129L25.3906 108.211L24.5 107.004L24.4414 106.922L23.1172 107.016L22.9414 104.379V104.367L22.9297 104.355L22.8125 101.707L22.8008 101.613L22.8125 101.531L23 98.9883L23.1406 99ZM95.1406 99H98V99.2109L97.8008 101.672L97.918 104.18H97.9297L98.1055 106.816L98.1641 107.648L97.4961 108.129L97.3906 108.211L96.5 107.004L96.4414 106.922L95.1172 107.016L94.9414 104.379V104.367L94.9297 104.355L94.8125 101.707L94.8008 101.613L94.8125 101.531L95 98.9883L95.1406 99ZM42.2852 99.0039L41.5938 100.188L41.5117 102.309L41.4883 104.898V104.945L41.4766 104.992L41.3828 106.352L42.3555 106.574H44.0898L44.5 106.07L44.3359 104.043L44.3242 103.891L44.3359 103.75L44.6055 101.254L44.4297 99.4609L43.4219 98.7578L42.2852 99.0039ZM78.2852 99.0039L77.5938 100.188L77.5117 102.309L77.4883 104.898V104.945L77.4766 104.992L77.3828 106.352L78.3555 106.574H80.0898L80.5 106.07L80.3359 104.043L80.3242 103.891L80.3359 103.75L80.6055 101.254L80.4297 99.4609L79.4219 98.7578L78.2852 99.0039ZM23.1406 84H26V84.2109L25.8008 86.6719L25.918 89.1797H25.9297L26.1055 91.8164L26.1172 91.9453L26.1055 92.0742L25.9883 93.1523L23.0117 92.8477L23.1055 91.8633L22.9414 89.3789V89.3672L22.9297 89.3555L22.8125 86.707L22.8008 86.6133L22.8125 86.5312L23 83.9883L23.1406 84ZM95.1406 84H98V84.2109L97.8008 86.6719L97.918 89.1797H97.9297L98.1055 91.8164L98.1172 91.9453L98.1055 92.0742L97.9883 93.1523L95.0117 92.8477L95.1055 91.8633L94.9414 89.3789V89.3672L94.9297 89.3555L94.8125 86.707L94.8008 86.6133L94.8125 86.5312L95 83.9883L95.1406 84ZM44.5938 78.9219L46.7148 80.3867L47.2773 80.7852L47.3477 81.4766L47.6172 84.125L47.6289 84.2773L47.6172 84.4414L47.3359 86.9492L47.5469 89.4219L47.6055 90.0312L47.2188 90.5L45.9648 92.0352L45.5195 92.5977L44.793 92.5859L42.1562 92.5742H41.9922L41.8281 92.5273L39.4727 91.9883L38.2188 91.6953L38.3125 90.4297L38.4883 87.7812L38.5117 85.2266V85.1797L38.6172 82.6836L39.6602 82.7305L39.6953 82.543L38.8047 82.0273L40.0469 79.9297L40.375 79.3672L41.0078 79.2266L43.4102 78.6875L44.0547 78.5469L44.5938 78.9219ZM56.5938 78.9219L58.7148 80.3867L59.2773 80.7852L59.3477 81.4766L59.6172 84.125L59.6289 84.2773L59.6172 84.4414L59.3359 86.9492L59.5469 89.4219L59.6055 90.0312L59.2188 90.5L57.9648 92.0352L57.5195 92.5977L56.793 92.5859L54.1562 92.5742H53.9922L53.8281 92.5273L51.4727 91.9883L50.2188 91.6953L50.3125 90.4297L50.4883 87.7812L50.5117 85.2266V85.1797L50.6172 82.6836L51.6602 82.7305L51.6953 82.543L50.8047 82.0273L52.0469 79.9297L52.375 79.3672L53.0078 79.2266L55.4102 78.6875L56.0547 78.5469L56.5938 78.9219ZM68.5938 78.9219L70.7148 80.3867L71.2773 80.7852L71.3477 81.4766L71.6172 84.125L71.6289 84.2773L71.6172 84.4414L71.3359 86.9492L71.5469 89.4219L71.6055 90.0312L71.2188 90.5L69.9648 92.0352L69.5195 92.5977L68.793 92.5859L66.1562 92.5742H65.9922L65.8281 92.5273L63.4727 91.9883L62.2188 91.6953L62.3125 90.4297L62.4883 87.7812L62.5117 85.2266V85.1797L62.6172 82.6836L63.6602 82.7305L63.6953 82.543L62.8047 82.0273L64.0469 79.9297L64.375 79.3672L65.0078 79.2266L67.4102 78.6875L68.0547 78.5469L68.5938 78.9219ZM80.5938 78.9219L82.7148 80.3867L83.2773 80.7852L83.3477 81.4766L83.6172 84.125L83.6289 84.2773L83.6172 84.4414L83.3359 86.9492L83.5469 89.4219L83.6055 90.0312L83.2188 90.5L81.9648 92.0352L81.5195 92.5977L80.793 92.5859L78.1562 92.5742H77.9922L77.8281 92.5273L75.4727 91.9883L74.2188 91.6953L74.3125 90.4297L74.4883 87.7812L74.5117 85.2266V85.1797L74.6172 82.6836L75.6602 82.7305L75.6953 82.543L74.8047 82.0273L76.0469 79.9297L76.375 79.3672L77.0078 79.2266L79.4102 78.6875L80.0547 78.5469L80.5938 78.9219ZM42.2852 82.0039L41.5938 83.1875L41.5117 85.3086L41.4883 87.8984V87.9453L41.4766 87.9922L41.3828 89.3516L42.3555 89.5742H44.0898L44.5 89.0703L44.3359 87.043L44.3242 86.8906L44.3359 86.75L44.6055 84.2539L44.4297 82.4609L43.4219 81.7578L42.2852 82.0039ZM54.2852 82.0039L53.5938 83.1875L53.5117 85.3086L53.4883 87.8984V87.9453L53.4766 87.9922L53.3828 89.3516L54.3555 89.5742H56.0898L56.5 89.0703L56.3359 87.043L56.3242 86.8906L56.3359 86.75L56.6055 84.2539L56.4297 82.4609L55.4219 81.7578L54.2852 82.0039ZM66.2852 82.0039L65.5938 83.1875L65.5117 85.3086L65.4883 87.8984V87.9453L65.4766 87.9922L65.3828 89.3516L66.3555 89.5742H68.0898L68.5 89.0703L68.3359 87.043L68.3242 86.8906L68.3359 86.75L68.6055 84.2539L68.4297 82.4609L67.4219 81.7578L66.2852 82.0039ZM78.2852 82.0039L77.5938 83.1875L77.5117 85.3086L77.4883 87.8984V87.9453L77.4766 87.9922L77.3828 89.3516L78.3555 89.5742H80.0898L80.5 89.0703L80.3359 87.043L80.3242 86.8906L80.3359 86.75L80.6055 84.2539L80.4297 82.4609L79.4219 81.7578L78.2852 82.0039ZM23.1406 68H26V68.2109L25.8008 70.6719L25.918 73.1797H25.9297L26.1055 75.8164L26.1172 75.9453L26.1055 76.0742L25.9883 77.1523L23.0117 76.8477L23.1055 75.8633L22.9414 73.3789V73.3672L22.9297 73.3555L22.8125 70.707L22.8008 70.6133L22.8125 70.5312L23 67.9883L23.1406 68ZM95.1406 68H98V68.2109L97.8008 70.6719L97.918 73.1797H97.9297L98.1055 75.8164L98.1172 75.9453L98.1055 76.0742L97.9883 77.1523L95.0117 76.8477L95.1055 75.8633L94.9414 73.3789V73.3672L94.9297 73.3555L94.8125 70.707L94.8008 70.6133L94.8125 70.5312L95 67.9883L95.1406 68ZM44.5938 60.9219L46.7148 62.3867L47.2773 62.7852L47.3477 63.4766L47.6172 66.125L47.6289 66.2773L47.6172 66.4414L47.3359 68.9492L47.5469 71.4219L47.6055 72.0312L47.2188 72.5L45.9648 74.0352L45.5195 74.5977L44.793 74.5859L42.1562 74.5742H41.9922L41.8281 74.5273L39.4727 73.9883L38.2188 73.6953L38.3125 72.4297L38.4883 69.7812L38.5117 67.2266V67.1797L38.6172 64.6836L39.6602 64.7305L39.6953 64.543L38.8047 64.0273L40.0469 61.9297L40.375 61.3672L41.0078 61.2266L43.4102 60.6875L44.0547 60.5469L44.5938 60.9219ZM56.5938 60.9219L58.7148 62.3867L59.2773 62.7852L59.3477 63.4766L59.6172 66.125L59.6289 66.2773L59.6172 66.4414L59.3359 68.9492L59.5469 71.4219L59.6055 72.0312L59.2188 72.5L57.9648 74.0352L57.5195 74.5977L56.793 74.5859L54.1562 74.5742H53.9922L53.8281 74.5273L51.4727 73.9883L50.2188 73.6953L50.3125 72.4297L50.4883 69.7812L50.5117 67.2266V67.1797L50.6172 64.6836L51.6602 64.7305L51.6953 64.543L50.8047 64.0273L52.0469 61.9297L52.375 61.3672L53.0078 61.2266L55.4102 60.6875L56.0547 60.5469L56.5938 60.9219ZM68.5938 60.9219L70.7148 62.3867L71.2773 62.7852L71.3477 63.4766L71.6172 66.125L71.6289 66.2773L71.6172 66.4414L71.3359 68.9492L71.5469 71.4219L71.6055 72.0312L71.2188 72.5L69.9648 74.0352L69.5195 74.5977L68.793 74.5859L66.1562 74.5742H65.9922L65.8281 74.5273L63.4727 73.9883L62.2188 73.6953L62.3125 72.4297L62.4883 69.7812L62.5117 67.2266V67.1797L62.6172 64.6836L63.6602 64.7305L63.6953 64.543L62.8047 64.0273L64.0469 61.9297L64.375 61.3672L65.0078 61.2266L67.4102 60.6875L68.0547 60.5469L68.5938 60.9219ZM80.5938 60.9219L82.7148 62.3867L83.2773 62.7852L83.3477 63.4766L83.6172 66.125L83.6289 66.2773L83.6172 66.4414L83.3359 68.9492L83.5469 71.4219L83.6055 72.0312L83.2188 72.5L81.9648 74.0352L81.5195 74.5977L80.793 74.5859L78.1562 74.5742H77.9922L77.8281 74.5273L75.4727 73.9883L74.2188 73.6953L74.3125 72.4297L74.4883 69.7812L74.5117 67.2266V67.1797L74.6172 64.6836L75.6602 64.7305L75.6953 64.543L74.8047 64.0273L76.0469 61.9297L76.375 61.3672L77.0078 61.2266L79.4102 60.6875L80.0547 60.5469L80.5938 60.9219ZM42.2852 64.0039L41.5938 65.1875L41.5117 67.3086L41.4883 69.8984V69.9453L41.4766 69.9922L41.3828 71.3516L42.3555 71.5742H44.0898L44.5 71.0703L44.3359 69.043L44.3242 68.8906L44.3359 68.75L44.6055 66.2539L44.4297 64.4609L43.4219 63.7578L42.2852 64.0039ZM54.2852 64.0039L53.5938 65.1875L53.5117 67.3086L53.4883 69.8984V69.9453L53.4766 69.9922L53.3828 71.3516L54.3555 71.5742H56.0898L56.5 71.0703L56.3359 69.043L56.3242 68.8906L56.3359 68.75L56.6055 66.2539L56.4297 64.4609L55.4219 63.7578L54.2852 64.0039ZM66.2852 64.0039L65.5938 65.1875L65.5117 67.3086L65.4883 69.8984V69.9453L65.4766 69.9922L65.3828 71.3516L66.3555 71.5742H68.0898L68.5 71.0703L68.3359 69.043L68.3242 68.8906L68.3359 68.75L68.6055 66.2539L68.4297 64.4609L67.4219 63.7578L66.2852 64.0039ZM78.2852 64.0039L77.5938 65.1875L77.5117 67.3086L77.4883 69.8984V69.9453L77.4766 69.9922L77.3828 71.3516L78.3555 71.5742H80.0898L80.5 71.0703L80.3359 69.043L80.3242 68.8906L80.3359 68.75L80.6055 66.2539L80.4297 64.4609L79.4219 63.7578L78.2852 64.0039ZM23.2031 53.8047L25.7109 53.9219L26.4844 53.957L26.9062 54.6016L28.3242 56.8047L28.6406 57.2969L28.5469 57.8711L28.4766 58.2461L28.1484 60.1797L27.5859 59.9219L27.1289 60.8477L26.8359 61.4102L26.2266 61.5977L23.8828 62.3125L23.2266 62.5234L22.6406 62.1484L20.4727 60.7656L19.8281 60.3555L19.7812 59.5938L19.6055 56.9453L19.5469 56.1367L20.1914 55.6562L22.2188 54.1094L22.6523 53.7812L23.2031 53.8047ZM95.2031 53.8047L97.7109 53.9219L98.4844 53.957L98.9062 54.6016L100.324 56.8047L100.641 57.2969L100.547 57.8711L100.477 58.2461L100.148 60.1797L99.5859 59.9219L99.1289 60.8477L98.8359 61.4102L98.2266 61.5977L95.8828 62.3125L95.2266 62.5234L94.6406 62.1484L92.4727 60.7656L91.8281 60.3555L91.7812 59.5938L91.6055 56.9453L91.5469 56.1367L92.1914 55.6562L94.2188 54.1094L94.6523 53.7812L95.2031 53.8047ZM22.6406 57.5547L22.7109 58.6328L23.6719 59.2422L24.7266 58.9141L25.3359 57.707L24.8086 56.875L23.6016 56.8281L22.6406 57.5547ZM94.6406 57.5547L94.7109 58.6328L95.6719 59.2422L96.7266 58.9141L97.3359 57.707L96.8086 56.875L95.6016 56.8281L94.6406 57.5547ZM60.0469 45.7812L58.5234 47.7969L57 49.9531L56.9648 49.9883L56.9414 50.0234L55.3711 51.9922L53.9883 54.1953L53.9648 54.2188L53.7773 54.5L55.6758 54.3359L55.8164 54.3242L55.9688 54.3359L57.9189 54.5518L58.8984 54.5127L58.9453 54.5107L61.5508 54.4863L64.1377 54.3096L64.2236 54.3037L64.3096 54.3076L65.377 54.3574L66.1758 54.3242L65.168 52.9297L65.1445 52.8945L65.1211 52.8711L63.6797 50.6914L62.1914 48.5117V48.5L60.7734 46.3906L60.1758 45.6523L60.0469 45.7812ZM23.1406 36H26V36.2109L25.8008 38.6719L25.918 41.1797H25.9297L26.1055 43.8164L26.1641 44.6484L25.4961 45.1289L25.3906 45.2109L24.5 44.0039L24.4414 43.9219L23.1172 44.0156L22.9414 41.3789V41.3672L22.9297 41.3555L22.8125 38.707L22.8008 38.6133L22.8125 38.5312L23 35.9883L23.1406 36ZM95.1406 36H98V36.2109L97.8008 38.6719L97.918 41.1797H97.9297L98.1055 43.8164L98.1641 44.6484L97.4961 45.1289L97.3906 45.2109L96.5 44.0039L96.4414 43.9219L95.1172 44.0156L94.9414 41.3789V41.3672L94.9297 41.3555L94.8125 38.707L94.8008 38.6133L94.8125 38.5312L95 35.9883L95.1406 36ZM23.7695 20.4844H23.6875L21.6836 20.5078L20.3359 21.9492L20.3008 21.9961L20.2539 22.0312L19.8906 22.3711L21.3555 22.4297L21.3672 22.4414H21.3789L22.2314 22.5L23.8203 22.3936L23.8662 22.3906H23.9121L26.5527 22.377H26.6387L26.7246 22.3867L27.6514 22.4883L28.3984 22.4062L27.4727 21.5039L25.8555 20.3438L23.7695 20.4844ZM95.7695 20.4844H95.6875L93.6836 20.5078L92.3359 21.9492L92.3008 21.9961L92.2539 22.0312L91.8906 22.3711L93.3555 22.4297L93.3672 22.4414H93.3789L94.2314 22.5L95.8203 22.3936L95.8662 22.3906H95.9121L98.5527 22.377H98.6387L98.7246 22.3867L99.6514 22.4883L100.398 22.4062L99.4727 21.5039L97.8555 20.3438L95.7695 20.4844Z" fill="black"/>
</svg>
