<svg width="120" height="120" viewBox="0 0 120 120" fill="none" xmlns="http://www.w3.org/2000/svg">
<path d="M58.0859 3.80762L58.2734 3.7959L59.7617 3.64355L59.8203 4.1123L59.6797 4.46387L58.918 6.30371L59.4336 8.36621L60.1484 10.9092L60.1602 10.9561L60.1719 10.9912L60.7578 13.5576L60.7695 13.6396L60.7812 13.7334L61.0508 16.2412L61.7891 18.6318L61.8008 18.667L61.8125 18.7139L62.4336 21.2803L62.4453 21.3154L62.457 21.3623L62.6299 22.3135L62.9277 22.1924L63.6309 22.8955L65.4941 24.7236L65.5527 24.7822L65.6113 24.8525L67.2637 26.9268L67.3223 26.9971L67.3691 27.0791L68.6699 29.2119L70.3105 30.958L72.0684 32.3994L72.6289 32.6201L71.5508 31.0879L71.1875 30.584L71.293 29.9746L71.7383 27.373L71.75 27.3145L71.7617 27.2676L72.3828 24.7598V24.7363L72.3945 24.7012L73.2734 21.7129L74.0703 21.4785L76.5664 20.7871L76.7539 20.7402L76.9297 20.7285L79.5898 20.6582L80.0469 20.6465L80.4336 20.8926L82.6719 22.2988L82.9297 22.4629L83.1055 22.7207L84.5469 24.8066L84.7461 25.0996L84.793 25.4512L85.1562 28.041L85.2031 28.3105L85.1328 28.5918L84.5234 31.1934L84.4883 31.3457L84.418 31.4863L83.8906 32.6279L85.5742 32.5449L86.043 32.5215L86.4531 32.7793L88.6797 34.1738L89.2891 34.5488L89.3711 35.252L89.7227 37.877L90.0508 40.502L90.0742 40.6191L90.0625 40.748L89.9688 43.3848V43.502L89.6758 46.127L89.4297 48.7637L89.3594 49.5371L88.6797 49.9238L86.3828 51.2363L86.0781 51.4121L85.7266 51.4238L83.6367 51.5439L82.9199 53.3545L82.2402 55.5225L82.2754 57.8779L82.416 60.4912V60.5381L82.46 62.8721L84.4688 63.9238L84.6445 64.0176L84.7852 64.1465L86.6133 65.8105L88.9336 66.9707L89.0625 67.0645L91.1367 68.7168L93.2227 70.2051L93.4102 70.334L93.5508 70.5215L95.0859 72.5488L95.1445 72.6309L95.2031 72.7246L95.6836 73.6035L96.0469 73.3691L96.1172 73.3223L98.2852 72.0332L98.8125 71.7285L99.4102 71.8691L101.93 72.4785L102.129 72.5254L102.316 72.6309L104.578 73.9082L104.777 74.0137L104.93 74.1895L106.688 76.0527L106.875 76.2402L106.969 76.4746L108.012 78.8301L108.047 78.9238L108.082 79.0293L108.809 81.5488L108.844 81.6895L108.855 81.8301L109.09 84.4668L109.102 84.584L109.09 84.6895L108.938 87.3379L108.82 89.9512V89.9863L108.633 92.4238L108.926 94.8262L109.512 97.3574L110.191 99.8887L110.215 99.9824L110.227 100.076L110.59 102.701L110.637 103.006L110.555 103.299L109.852 105.865V105.889L109.84 105.924L109.055 108.432L109.043 108.443V108.467L108.176 110.963L108.152 111.045L108.117 111.115L106.969 113.518L106.898 113.682L106.781 113.822L106.121 114.624L106.731 114.739L109.181 114.576L109.223 114.573H109.264L111.903 114.544L111.917 115.852L112 116L112.726 117.312L112.646 117.357L112.314 117.54L111.937 117.544L109.324 117.572L106.739 117.744L106.55 117.757L106.362 117.722L103.946 117.267L101.533 117.548L101.409 117.562L101.283 117.557L98.7246 117.426L96.1699 117.58L96.04 117.588L95.9111 117.573L93.4316 117.292L90.957 117.553L90.9229 117.557L90.8887 117.559L88.249 117.715L88.1006 117.724L87.9531 117.703L85.4297 117.352L82.9111 117.404L82.8789 117.405L82.8467 117.404L80.207 117.347V117.346L77.5908 117.331L77.583 117.33H77.5752L75.0107 117.288L72.4521 117.515L72.4141 117.518L72.376 117.52L69.9004 117.611L69.9131 117.862L69.8545 117.874L67.124 117.991L67.3906 117.525L66.9951 117.51L64.3857 117.485H64.3418L64.2979 117.482L61.7363 117.308L59.1895 117.427L59.1504 117.429H59.1104L56.4873 117.412L53.9053 117.441L51.3281 117.663L51.1816 117.676L51.0352 117.659L48.4785 117.377L45.9795 117.39L43.3799 117.563L43.3662 117.564L43.3516 117.565L40.7119 117.691L40.6191 117.696L40.5264 117.689L38.0381 117.5H38V117.497L37.9863 117.496L38 117.312V114.5H38.1572L38.2139 114.504L40.666 114.691L43.208 114.568V114.569L45.8203 114.394L45.8662 114.391H45.9121L48.5527 114.377H48.6387L48.7246 114.387L51.2158 114.662L53.7119 114.447L53.7676 114.442H53.8232L56.4629 114.412H56.4893L59.0957 114.429L61.6426 114.31L61.8262 112.505L61.8496 112.306L61.9199 112.118L62.8105 109.798L62.9512 109.423L63.2676 109.177L65.3301 107.513L65.4121 107.442L65.4941 107.396L67.6855 106.06L69.4902 104.524L71.1426 102.837L71.9512 101.173L71.4473 99.5205L70.0645 97.7744L68.2363 95.8525L68.1191 95.7236L68.0254 95.5713L66.7012 93.2979L65.3418 91.0713L65.2715 90.9541L64.0996 88.5869L64.0293 88.4463L63.9941 88.3057L63.3145 85.7275L63.2441 85.4697L63.2676 85.2002L63.4121 83.7041L61.125 83.292L61.1133 83.2803L58.5234 82.7881H58.5117L55.8984 82.2842L55.6641 82.2373L55.4648 82.1201L53.25 80.8779L50.8945 80.2334L50.7305 80.1865L50.5781 80.1045L48.3281 78.874L45.9375 77.7256L45.7852 77.6553L45.6562 77.5498L43.7227 76.0146L41.4609 74.7842L41.4141 74.749L41.3555 74.7139L39.1406 73.2725L39 73.1787L38.8828 73.0498L37.1133 71.21L35.1094 69.6396L35.0742 69.6162L35.0508 69.5928L33.0703 67.8467L32.8359 67.6475L32.707 67.3662L31.7227 65.3037L30.6094 63.335L28.6992 62.1279L28.6523 62.1045L28.6055 62.0693L26.4844 60.5107L26.4258 60.4756L26.3906 60.4287L24.4336 58.7295L22.3828 57.0771L22.3477 57.0537L22.3242 57.0303L20.9648 55.8232L19.9219 56.1396L18.8691 57.4775H18.9043V57.5713H18.8926L19.0332 59.9736V60.0322L19.0684 62.6455L19.1504 65.2939V65.4229L19.0215 67.8838L19.4316 69.8643L20.8262 71.5518L22.5137 73.3799L24.3184 74.6455L24.7705 74.7998L24.8203 74.4688L24.8086 72.5938L24.2578 72.043L22.2305 71.8203L21.4102 71.7383L21.0469 71L21.0117 70.918L21.8096 70.5186L20.6133 68.6475L20.3906 68.3076L20.3672 67.8975L20.2734 65.3545L20.2617 65.3076L20.2734 65.2607L20.332 62.6123L20.3438 62.4248L20.3906 62.249L21.0586 59.8232L22.1953 60.1396L22.5 60.1279L24 60.0342V60.1396L24.0117 60.3857L23.9531 60.6318L23.3203 62.8467L23.2617 65.3311L23.3438 67.3584L24.4297 69.0488L25.125 69.125L25.6406 69.1836L27.7969 71.3398L27.8086 71.9492L27.832 74.5977V74.7148L27.8086 74.832L27.4336 77.3633L27.3516 77.8672L26.9883 78.2188L26.8945 78.3125L25.8516 77.2344L25.7227 77.1055L25.5166 77.0742L25.1738 78.1143L23.1582 77.4229L22.959 77.3525L22.7715 77.2354L20.6504 75.7236L20.5215 75.6416L20.4043 75.5244L18.6348 73.5908L18.5996 73.5557L18.5762 73.5205L16.8887 71.4814L16.6543 71.1885L16.5723 70.8252L16.0469 68.2949L14.8711 70.2256L14.7773 70.3779L12.8438 72.3115L12.1084 71.5674L11.6836 71.6953L10.2539 72.1406L10.1484 71.8008L8.91797 69.7617L8.8125 69.5859L8.75391 69.3867L8.07422 66.8789L8.03906 66.7266L8.02734 66.5625L7.89844 64.0664L7.55859 61.4531L7.51172 61.0781L7.64062 60.7148L8.58984 58.2422L8.67188 58.0195L8.82422 57.8438L10.4297 55.8281L11.9883 53.6953L12.0234 53.6602L12.0469 53.625L13.7344 51.5977L15.1758 49.5352L15.3164 49.3242L15.5156 49.1836L17.5781 47.6602L17.8828 47.4258L18.2695 47.3789L20.8125 47.0273L21.1055 46.9805L21.3867 47.0508L23.9531 47.707L24.1523 47.7539L24.3398 47.8594L26.5898 49.1602L28.7578 50.0859L30.0303 50.458L30.5664 48.7227V48.7109L31.3633 46.1914L31.4336 45.9922L31.5391 45.8281L32.9688 43.5898L34.1992 41.375L35.4414 39.0664L35.4648 39.0078L35.5 38.9609L36.9297 36.7344V36.7109L37.3018 36.1484L36.5518 35.9297L34.792 35.5732L34.3418 35.9912L34.0605 36.249L33.6738 36.3428L31.0723 36.9521L30.2285 37.1514L29.6426 36.5186L28.3076 35.1211L28.2783 35.1094L28.126 34.9922L26.1338 33.5039L25.7354 33.2109L25.5947 32.7305L24.8682 30.293L24.6924 29.707L24.9854 29.1562L26.2627 26.8125L26.5322 26.2969L27.083 26.1094L29.4619 25.2539L31.6533 24L31.665 23.9883L31.6885 23.9766L34.0088 22.7109L34.0322 22.6992H34.0439L36.3877 21.5039L36.4697 21.4688L36.5635 21.4336L39.0127 20.5547L39.0947 20.5195L39.1885 20.4961L41.1104 20.0508L41.9307 18.7031L42.8799 16.3945L43.4424 15L44.8369 15.5742L46.9697 16.4414L47.5205 16.6758L47.7666 17.2266L48.8213 19.6289L49.8291 21.9023L51.1299 24.1992V24.2109L52.4189 26.4961L52.4307 26.5195V26.5312L53.6729 28.8867L53.7666 29.0625L53.8135 29.2617L54.3525 31.7812L55.0557 34.3242H55.0439L55.7705 36.8555L55.7939 36.9492L56.3564 39.5273L56.3916 39.668V39.7969L56.4014 40.0703L56.4727 40.042L56.5078 40.1357L56.5898 40.335L56.6133 40.5459L56.8066 42.6338L58.8555 42.7188H58.9258L61.4922 42.918L63.9766 42.8242L66.6133 42.6602L66.625 42.8447L66.9648 42.1543L67.3281 41.416L68.1367 41.3223L69.6719 41.1348L70.0742 40.1064L68.9297 39.5898L68.7656 39.5078L68.625 39.4023L66.5859 37.8203L66.4219 37.6914L66.3047 37.5273L64.7344 35.4062L64.6992 35.3477L64.6641 35.3008L63.3516 33.1797L61.6992 31.2812L62.2266 30.8125L62.1562 30.4375L61.8398 28.9727L62.5195 28.832L63.3867 28.6445L63.9609 29.3125L65.7656 31.375L65.8242 31.4805L67.1484 33.6133L68.5781 35.5703L70.3125 36.9062L72.4453 37.8906L72.7148 38.0078L72.9141 38.207L72.9727 38.2891L71.9062 39.332L71.7549 39.4648L71.9336 39.541L73.3164 40.1152L73.0117 40.8535L73 40.8418L72.6914 41.6543L73.8301 42.8027L75.8691 42.8848L78.459 42.791H78.5176L81.166 42.8027H81.2832L81.3887 42.8145L84.0254 43.2363L83.8379 44.3613L84.002 44.5488L84.9629 45.6973L84.752 45.873L84.2246 46.3066L83.5566 46.2012L81.0605 45.791H78.5645L75.9277 45.8965H75.8105L73.127 45.7793L72.541 45.7559L72.1309 45.334L70.8252 44.0283L69.2852 44.2051L68.7812 45.2246L68.9336 46.2676L70.293 46.4082L72.7773 46.3848H73.0117L73.2344 46.4551L75.707 47.2051L78.1445 47.709L80.7461 48.1191H80.7695L80.793 48.1309L83.1016 48.5762L85.1875 48.4473L86.5234 47.6973L86.6992 45.8223V45.7988L86.957 43.2793L87.0508 40.7598L86.7461 38.2637L86.4883 36.3301L85.2578 35.5566L83.7695 35.6387L82.75 36.8105L82.0234 38.9668L81.7422 39.7754L80.9102 39.9512L80.8047 39.9629L80.5 38.498L80.4766 38.4277L79.1758 37.9941L79.9961 35.5801L80.0898 35.2988L80.2891 35.0762L81.8867 33.2383L80.5391 33.4082L80.5273 33.3027L80.4688 32.8809L80.6562 32.4941L81.6406 30.3262L82.1445 28.1699L81.8633 26.2012L80.7969 24.666L79.2031 23.6699L77.1758 23.7168L75.6875 24.1387L75.2773 25.5449L74.6797 27.9824L74.3516 29.8691L75.207 31.0879L76.5781 32.623L76.8711 32.9395L76.9414 33.3613L77.1641 34.6738L75.7109 34.9082V34.9316L75.4883 36.4082H75.4648L74.3984 36.2559L74.251 35.4121L73.4746 36.3838L72.959 35.9619L70.7559 35.1182L70.5332 35.0244L70.3457 34.8721L68.3301 33.2197L68.248 33.1611L68.1895 33.0791L66.373 31.1572L66.2676 31.04L66.1855 30.9111L64.8027 28.6377H64.791L63.3145 26.7861L62.2246 25.708L60.7363 26.3291L60.6191 26.376L60.502 26.3994L59.6367 26.5928L59.6387 26.6367L59.9785 27.8555L59.9902 27.8672V27.8789L60.1777 28.6172L60.6816 30.6328L58.6191 30.4805H58.502L58.5957 29.0156L57.2715 29.3555L57.0957 28.6406L56.709 27.2461L56.6621 27.082L56.6504 26.9062L56.5918 25.5234L57.166 25.4883L57.582 25.4287L57.6191 25.3096L57.3379 24.0322L59.7402 23.4932L59.79 23.4727L59.5039 21.9014V21.8896L58.918 19.5107L58.1445 16.9678L58.1094 16.8389L58.0859 16.6982L57.8164 14.167L57.2422 11.6592L57.2539 11.6475L56.5391 9.18652V9.16309L56.5273 9.13965L55.8828 6.57324L55.7656 6.09277L55.9531 5.64746L56.8906 3.32715L58.0859 3.80762ZM96.4375 79.3984L96.1562 81.8594L96.1445 82L96.0977 82.1406L95.3242 84.6719L95.2539 84.8594L95.1484 85.0352L93.6953 87.2734L93.5664 87.4609L93.3906 87.6133L91.3398 89.2891L89.3945 91L89.207 91.1406L87.168 92.4062L86.5234 93.2266L87.3555 94.4922L87.3789 94.5273L87.4023 94.5742L88.7383 96.8594L88.8086 96.9883L88.8555 97.1289L89.6758 99.5781L89.9102 100.27L89.5117 100.879L88.0703 103.047V103.059L86.6172 105.191L86.6289 105.203L85.2461 107.465L85.1758 107.57L85.0938 107.664L83.3477 109.668L83.2891 109.738L83.2188 109.797L81.2266 111.578L81.1328 111.66L81.0156 111.73L79.668 112.562L79.6221 114.343L80.249 114.347H80.2607L80.2734 114.348L82.8809 114.405L85.4883 114.351L85.6084 114.348L85.7266 114.364L88.2188 114.712L90.6836 114.565L93.2832 114.292L93.4463 114.274L93.6084 114.293L96.1191 114.577L97.9248 114.468L98.0605 113.959L98.1543 111.545L97.8848 109.061V109.049L97.5332 106.682L96.7949 104.244L96.7715 104.162L96.748 104.068L96.2793 101.479L96.2441 101.314L96.2559 101.15L96.3496 98.5254L96.3613 98.5137V98.4902L96.5137 95.877L96.5254 95.7715L96.5488 95.666L97.0762 93.0762V93.0645L97.6152 90.5449L97.9199 88.002L97.9316 87.8965L97.9551 87.8027L98.5762 85.4004L98.5879 83.1621L97.9199 81.0879L96.6777 79.2598L96.4961 79.0996L96.4375 79.3984ZM66.4453 84.0771L66.3916 84.0703L66.2793 85.2236L66.8418 87.3682L67.8965 89.501L69.2676 91.7393L69.2793 91.751V91.7627L70.5215 93.8955L72.2324 95.7002L72.2793 95.7471L72.3262 95.8057L73.9668 97.8682L74.1426 98.0908L74.2363 98.3604L75.0098 100.856L75.1855 101.431L74.916 101.958L73.7441 104.36L73.6387 104.583L73.4746 104.747L71.6113 106.657L71.5645 106.704L71.5059 106.751L69.502 108.462L69.4082 108.532L69.3027 108.603L67.1582 109.88L65.459 111.251L64.791 112.997L64.6416 114.487L67.0547 114.511L67.1016 114.513L69.0684 114.593L69.3154 114.159L70.3467 111.944L71.1436 109.542L71.2607 109.179L71.542 108.909L73.3701 107.198L73.4287 107.14L73.499 107.093L75.5264 105.558L77.2959 103.929L78.5498 102.077L78.8779 100.565L77.8818 99.0771L76.1357 97.249L76.0889 97.2021L74.3545 95.1982H74.3428L72.5498 93.4404L72.4795 93.3701L72.4209 93.2881L70.8154 91.2021L70.7568 91.1318L70.71 91.0498L69.374 88.7881L69.3271 88.6943L69.292 88.6006L68.2607 86.1514L68.1201 85.8467L68.1436 85.5068L68.2002 84.3242L66.4453 84.0654V84.0771ZM97.7227 75.8418L97.7344 75.8535L97.5186 76L98.8223 77.1621L98.9629 77.2793L99.0684 77.4434L100.533 79.5879L100.65 79.7637L100.721 79.9746L101.529 82.4824L101.6 82.7168V82.9629L101.576 85.6113L101.564 85.7988L101.529 85.9746L100.908 88.3535L100.592 90.9785L100.568 91.1191L100.006 93.6973L99.502 96.0996L99.3496 98.6777L99.2441 101.092L99.6895 103.459L100.439 105.873L100.475 105.99L100.486 106.107L100.861 108.697L100.873 108.721V108.756L101.143 111.393L101.154 111.498V111.604L101.061 114.252L101.049 114.428L101.019 114.539L101.309 114.555L102.725 114.389L102.586 114.326L102.621 114.244L102.703 114.057L102.832 113.904L104.332 112.076L105.375 109.873L106.207 107.482L106.957 105.08L107.578 102.795L107.273 100.568L106.617 98.1309L106.605 98.1074V98.084L105.996 95.5059L105.984 95.4238L105.973 95.3535L105.645 92.7168L105.621 92.5645L105.633 92.4238L105.82 89.7754L105.938 87.1738V87.1504L106.078 84.5605L105.879 82.2637L105.223 79.9551L104.32 77.916L102.914 76.4043L101.016 75.3379L99.2812 74.916L97.7227 75.8418ZM73.6973 55.2939L73.5215 55.3408H73.334L70.6738 55.4229L70.5449 55.4346L70.416 55.4111L67.9434 55.0479L65.6348 55.3408L65.4941 55.3643L65.3652 55.3525L62.7285 55.2002L62.3418 55.1885L62.0254 54.9893L61.709 54.7949L61.4141 54.8701L59.1875 55.4326L57.7695 56.5342L57.2539 58.1865L57.5469 60.2139L58.6133 62.3818L58.6367 62.417L58.6484 62.4639L59.668 64.9014V64.9248L60.6172 67.292L61.7305 69.6943L61.8594 69.9639L61.8711 70.2686L61.9766 72.9053L62 73.3154L61.8008 73.667L60.5586 75.999L60.3203 76.5068L60.3965 76.4697L62.4121 75.0049L64.4395 73.4111L66.3848 71.8643L66.4551 71.8057L66.5137 71.7705L66.5957 71.7119L67.9434 73.8213L68.2598 74.208L68.2129 74.2314L68.1895 74.2549L66.3027 75.7666L66.291 75.7783L64.2285 77.4072L64.2051 77.4189L64.1816 77.4424L62.0371 78.9893L61.9316 79.0596L61.8262 79.1182L60.0068 80.0225L61.6758 80.3389H61.6641L64.2656 80.8076L66.7852 81.0889H66.7969L66.8203 81.1006L68.4824 81.333L68.6592 80.1162V80.0459L68.6826 79.9873L69.2803 77.4209L69.3154 77.2803L69.374 77.1396L70.4639 74.7139L70.5107 74.5967L70.5811 74.4912L71.9521 72.4521L72.9014 73.0967L73.2295 73.1904L74.6592 73.6475L74.624 73.7412L74.5654 73.9404L74.4482 74.1279L73.124 76.085L72.1631 78.2178L71.6006 80.667L71.249 83.1396L71.1436 85.2725L72.0225 87.3818L73.2412 89.4561L74.6943 91.3311L76.5342 93.1475L76.5811 93.1826L76.6162 93.2295L78.3037 95.1748L80.1318 97.0732L80.2959 97.2842L81.7373 99.4287L82.0889 99.9561L81.9482 100.589L81.4209 102.991L81.3623 103.272L81.21 103.507L79.7217 105.722L79.6279 105.862L79.499 105.979L77.542 107.796L77.4834 107.854L77.4248 107.901L75.3623 109.413L73.8623 110.831L73.1826 112.964L73.1475 113.058L73.1123 113.14L72.4707 114.502L74.8281 114.293L74.9062 114.286L74.9844 114.287L76.5381 114.312L76.6328 114.062L76.6914 111.684L76.7148 110.875L77.4062 110.453L79.3281 109.246L81.2031 107.57L82.7266 105.801L84.0742 103.633L84.0859 103.609L84.1094 103.574L85.5742 101.383L86.5938 99.8242L86.0781 98.2656L84.8477 96.1445L83.418 93.9766L82.8203 93.0742L83.5 92.2188L85 90.3438L85.1523 90.1445L85.375 90.0039L87.4961 88.6562L89.3945 87.0039L89.418 86.9805L89.4414 86.9688L91.2812 85.457L92.5117 83.5703L93.1914 81.3789L93.4727 78.9297L93.4844 78.8711L93.4961 78.8008L93.9326 76.6064L93.8789 76.5098L92.6133 74.2598L91.3008 72.5137L89.332 71.1074L89.2617 71.0605L87.3164 69.5137L85.0898 68.4121L84.8906 68.3184L84.7383 68.166L82.8633 66.4668L80.7305 65.3418L80.6953 65.3184L80.6484 65.2949L80.0977 64.9551L80.1221 64.9141L79.2402 65.2256L78.9707 65.3193L78.6895 65.3076L76.252 65.2256L73.8613 65.6943L73.6387 65.7412L73.4043 65.7061L70.7559 65.3896L70.5684 65.3662L70.3809 65.2959L67.9199 64.3115L65.459 63.3506L65.4238 63.3389L65.3887 63.3154L62.9863 62.2139V62.2021L61.1113 61.5107L61.627 60.1279L60.2441 59.542L60.2559 59.5186L60.8184 58.2061L62.1543 58.71L64.1348 59.4482L64.1934 59.46L64.2402 59.4834L66.5957 60.5732L69.0215 61.5225L71.3184 62.4365L73.5332 62.6943L75.8301 62.249L75.9941 62.2256H76.1699L78.4902 62.3076L79.4395 61.9678L79.416 60.6436L79.2754 58.042V57.9834L79.248 55.9346L77.8574 55.2705L75.7715 54.708L73.6973 55.2939ZM39.4375 38.3398L39.4492 38.3516L38.0195 40.5781L36.8359 42.8047V42.8164L36.8242 42.8281L35.5352 45.1367L35.5234 45.1719L35.5 45.207L34.1758 47.2461L33.4258 49.6016L32.8447 51.5L33.8672 51.9492L33.9375 51.9727L33.9961 52.0078L36.1641 53.2031L36.1875 53.2148H36.1758L36.2227 53.2383L36 53.6133L35.5898 54.5859L34.9922 55.9688L34.8984 55.9219L34.8398 55.8984L34.7695 55.8633L32.6016 54.6562L30.3633 53.6836L27.8906 52.9688L27.8086 52.9453L27.7148 52.9102L25.2891 51.8789L25.207 51.8438L25.125 51.7969L23.0156 50.5547L20.918 50.0273L19.043 50.2852L17.4844 51.4453L16.125 53.4141L16.0898 53.4609L16.043 53.5078L14.3555 55.5469L12.8555 57.5977L12.832 57.6211L12.8086 57.6562L11.2969 59.5312L10.5703 61.4062L10.875 63.668L10.8867 63.7266V63.7852L11.0156 66.2812L11.5898 68.3906L11.9355 68.9648L12.4219 68.4795L13.2539 67.1084L12.6797 65.8662L12.6211 65.7256L12.5859 65.5732L12.0938 63.5225L12.0117 63.1826L12.082 62.8428L12.5859 60.6045L12.6562 60.335L12.8086 60.1006L14.2969 57.9092L14.3789 57.7803L14.4844 57.6865L16.2305 55.9521L17.8711 53.9014L18.1641 53.5381L18.6211 53.3975L20.9062 52.7178L21.7031 52.4834L22.3359 53.0342L24.2578 54.7451L26.3203 56.3975L26.3438 56.4092L26.3672 56.4326L28.3242 58.1318L30.3047 59.5967L32.5312 61.0146L32.8594 61.2139L33.0352 61.542L34.3359 63.8271L34.3594 63.8623L34.3828 63.9209L35.2734 65.7959L36.9609 67.2842L39.0352 68.9131L39.1172 68.9717L39.1992 69.0537L40.8984 70.8232L42.9727 72.1943L45.2227 73.4131L45.3398 73.4717L45.4453 73.5537L47.3438 75.0654L49.6172 76.167L49.6641 76.1787L49.6992 76.2021L51.8555 77.374L54.2461 78.0537L54.4219 78.1006L54.5742 78.1826L56.707 79.3662L58.084 79.6436L58.123 78.9424L58.1299 78.8047L56.7031 78.9053L56.6211 77.8037L56.5977 77.417L56.7617 77.0654L57.875 74.6631L57.8867 74.6162L57.9102 74.5811L58.9531 72.6006L58.8828 70.6787L57.8984 68.5576L57.8867 68.5225L57.8633 68.4873L56.8906 66.0498L55.918 63.7061L54.7461 61.3271L54.6406 61.1162L54.6055 60.8701L54.2422 58.2686L54.1953 57.9287L54.2891 57.6123L55.0508 55.21L55.1914 54.7529L55.5547 54.4717L57.5938 52.8779L57.8398 52.6904L58.1445 52.6084L58.4551 52.5283L57.375 51.2568L57.3047 51.1748L57.2461 51.0811L55.875 48.8779L55.8164 48.7842L55.7695 48.6904L54.7031 46.2764L54.668 46.1709L54.6328 46.0771L54.4277 45.3447L53.3242 45.1562L53.2305 45.1328L50.6641 44.5234H50.6523L50.6406 44.5117L48.0742 43.8438L47.8516 43.7852L47.6641 43.668L45.4023 42.2734L43.1641 40.9023L43.0938 40.8555L40.9258 39.3438L40.7617 39.2031L39.5957 38.1006L39.4375 38.3398ZM15.457 61.542L15.082 63.1475L15.4688 64.7412L16.1133 66.1094L16.1504 65.3877L16.0684 62.751V62.7158L16.041 60.6758L15.457 61.542ZM70.8125 49.4111L70.5879 50.4854L70.3086 52.3711L70.7324 52.4346L73.0762 52.3525L75.3613 51.708L75.7598 51.6025L76.1465 51.708L78.7246 52.3877L78.8535 52.4229L78.9824 52.4814L79.915 52.9287L80.0957 52.3467L80.1074 52.2881L80.1309 52.2295L80.5732 51.1299L80.2773 51.0723V51.084L77.6758 50.6738L77.6406 50.6621H77.6055L75.0156 50.1348L74.9336 50.1113L74.8633 50.0996L72.5547 49.3848L70.8125 49.4111ZM58.4531 47.3428L59.7656 49.4521L60.6797 50.5137L61.7578 51.3193L62.2383 51.5264L63.7266 52.1475L63.6699 52.2568L65.4004 52.3525L67.3164 52.1074L67.623 50.0518L67.6465 49.9814L67.8076 49.1738L67.457 49.1387L66.2969 49.0098L66.1328 47.8496L65.8311 45.7207L64.1641 45.8242H64.1289L61.4922 45.9297H61.4102L61.3164 45.918L58.6797 45.707V45.6953L57.7119 45.6641L58.4531 47.3428ZM44.6729 19.9453L44.626 20.0625L44.5674 20.168L43.3486 22.1602L43.0205 22.6992L42.3994 22.8398L39.8916 23.4141L37.665 24.2227L35.4033 25.3711L35.3916 25.3594L33.1182 26.6133L30.8682 27.9141L30.751 27.9844L30.6104 28.0312L28.6182 28.7344L27.915 30.0352L28.3252 31.3945L29.373 32.1807L29.6895 32.2061L30.0664 32.6055L31.4775 33.1992L32.377 33.5684L32.5957 33.5186L33.2754 32.8975L34.2949 31.9717L34.9053 32.5322L34.9932 32.5547L37.1729 33L37.2314 33.0117L37.3018 33.0234L38.9336 33.499L39.4844 32.8633L39.5547 32.9336L39.7539 33.0977L39.8711 33.3203L40.0801 33.6855L40.4072 33.7148L40.3604 34.1758L40.7637 34.8799L41.5908 34.5L41.626 34.5703L42.7393 36.9375L42.7207 36.9355L44.8164 38.3945L46.9727 39.7188H46.9844L49.0469 40.9844L51.3555 41.6055L53.4717 42.1055L53.3916 40.0312L52.8877 37.6758L52.1611 35.1328V35.1211L51.458 32.5781L51.4463 32.5312V32.4961L50.9307 30.1289L49.7822 27.9375V27.9258L48.5166 25.6758L47.2158 23.3906L47.1807 23.3203L47.1455 23.2617L46.0791 20.8477L45.2588 18.9844L45.083 18.9141L44.6729 19.9453ZM34.377 34.0693H34.3652L34.5508 34.2734L34.6064 34.0078L34.6543 33.7656L34.377 34.0693Z" fill="black"/>
</svg>
