<svg width="120" height="120" viewBox="0 0 120 120" fill="none" xmlns="http://www.w3.org/2000/svg">
<path d="M61.3574 6.46973L61.3926 6.61035V6.7627L61.4863 9.30566L61.498 9.39941L61.4863 9.50488L61.252 11.7314L62.2129 13.665L63.6191 15.751L63.7949 16.0322L63.8535 16.3486L64.252 18.8682L64.8145 21.2588L65.752 23.7432L65.834 23.9658L65.8457 24.2119L65.9277 26.3564L67.123 27.9033L69.0449 29.5439L69.2441 29.708L69.3613 29.9307L70.7207 32.2158L72.0801 34.5127L72.1855 34.7002L72.2441 34.9229L72.8652 37.5127L72.9062 37.6533L73.3691 37.6689V39.2158H73.3682L73.5918 39.9736L73.6152 40.0322L73.627 40.1025L74.1426 42.6924V42.7275L74.1543 42.7627L74.541 45.3877L74.5762 45.6104L74.541 45.833L74.3096 47.3301L74.3682 47.333L74.5439 47.3447L74.7197 47.3916L77.2393 48.1182L78.2705 48.4229L78.4346 52.1963V52.208L78.5166 54.833L78.5449 55.5068L79.5977 55.6348L80.8164 54.915V54.9092L80.5703 52.2725L80.5586 52.1201L80.5703 51.9795L80.8281 49.4365L80.7461 46.999L81.4961 46.9639L82.2344 46.8467L83.7109 46.6006L83.7344 46.6943L83.7461 46.7998V46.8936L83.8281 49.4365L83.8398 49.542L83.8281 49.6357L83.5703 52.1201L83.7578 54.2295L84.9062 55.9287L85.0586 56.1631L85.1289 56.4326L85.7383 59.0225L85.7734 59.1982V59.374L85.75 61.9053L85.9375 64.542V64.6943L85.8555 67.3311V67.46L85.5625 69.8975L85.9609 72.3232L85.9961 72.4873L85.9844 72.6396L85.8438 75.1826L85.9814 77.1953L86.2432 77.2031L88.3457 76.957L88.1367 74.8477L88.1133 74.5781L88.1836 74.3086L88.8516 71.8008L88.957 71.4141L89.25 71.1328L90.8711 69.5215L90.6123 68.79L90.4951 68.4385L90.5537 68.0869L90.9053 65.6377L90.7881 63.2002L91.7139 63.1416L92.2646 63.0244L93.7295 62.6963L93.7412 62.79L93.7764 62.9189V63.0479L93.9053 65.5908L93.917 65.7314L93.8936 65.8721L93.5654 68.1338L94.1748 69.9033L95.8506 71.5088L96.3311 71.9658L96.3076 72.6455L96.2139 75.3291V77.749L97.0127 78.082L97.8213 78.4219L97.9268 79.2891L98.2314 81.9492L98.2549 82.1602L98.208 82.3828L97.7861 84.7617L98.208 87.1406L98.2627 87.417L99.1055 87.3057L99.2695 87.2939L99.4336 87.3057L100.367 87.3838L100.275 85.8311V85.667L100.299 85.5146L100.686 82.96L100.744 82.5615L101.002 82.2451L102.619 80.2529L103.24 79.4912L104.189 79.7607L106.627 80.4404L107.447 80.6748L107.67 81.4951L108.35 83.9795L108.408 84.2139L108.396 84.4482L108.279 86.8857L108.482 87.79L109.734 89.8721L109.922 90.1885L109.957 90.5518L110.121 93.1768V93.2471L110.18 95.8838V95.8955L110.215 98.5322V98.6143L110.086 101.122L110.332 103.688L110.344 103.771L110.332 103.853L110.285 106.501V106.56L110.133 109.103L110.297 111.657L110.309 111.798L110.285 111.95L109.968 114.383L110.738 114.266L111.031 114.219L111.312 114.289L112.355 114.547L111.652 117.453L110.891 117.266L108.547 117.629L108.453 117.652H108.359L105.723 117.723H105.582L103.051 117.301L100.672 117.734L100.438 117.781L100.203 117.746L97.6367 117.406H95.2344L92.5977 117.629L92.4922 117.641L92.3984 117.629L89.75 117.477V117.465L87.2773 117.348L84.7812 117.734L84.582 117.77L84.3945 117.746L81.8516 117.453L79.2969 117.477L79.2852 117.465L76.7773 117.711L76.6133 117.723L76.4492 117.699L73.918 117.383L71.3867 117.43H71.3281L68.6914 117.371H68.6445L66.1719 117.23L63.7109 117.699L63.4766 117.746L63.2305 117.711L60.7227 117.348L58.2383 117.488H58.0156L55.5898 117.242L53.1406 117.676L52.8828 117.723L52.6133 117.676L50.1172 117.242L47.6914 117.395H47.668L47.6445 117.406L42.3711 117.57H42.2539L42.1367 117.559L39.5938 117.254L37.1328 117.418L37.0508 117.43L36.957 117.418L34.5078 117.277L32 117.699L31.7891 117.734L31.5781 117.711L29.0234 117.395L26.5391 117.324L23.9492 117.512L23.8906 117.523H23.832L21.1953 117.512H21.0781L18.5 117.301L16.0508 117.395L16.0625 117.406L13.4258 117.664L13.2734 117.676L13.1211 117.664L10.625 117.395L8.16406 117.5H8V114.5H8.03516L10.5781 114.395L10.6836 114.383L10.7207 114.386L10.5234 114.06L10.2422 113.603L10.3125 113.063L10.6875 110.556L10.5586 108.083L10.5469 107.966L10.5586 107.86L10.8047 105.435L10.3711 102.985L10.3242 102.716L10.8164 100.009L10.6523 97.5361L10.6406 97.5244V97.501L10.5469 94.8643L10.4414 92.2275L10.4297 91.9932L10.4883 91.7822L11.1328 89.3564L11.332 88.6064L12.0703 88.3369L12.4697 88.1875L12.3105 86.0107L12.2988 85.835L12.3223 85.6709L12.709 83.0928L12.7676 82.7529L12.9551 82.4717L14.4082 80.3623L15.0059 79.4834L16.0254 79.7529L18.5098 80.4092L19.3418 80.6201L20.3027 83.9834L20.3613 84.1826V84.3936L20.3496 86.9365L20.3975 87.3223L22.5859 87.6133L22.3359 86.5312L22.2656 86.2383L22.3242 85.9336L22.7578 83.4375L22.6055 81L22.5938 80.7422L22.6641 80.4844L23.3789 78.0938L23.6836 77.0508L24.6162 77.0303L24.5273 75.7285L24.5039 75.4473L24.5977 75.1777L25.3711 72.6699L25.418 72.541L25.4766 72.4238L26.6953 70.1035L27.0654 69.4004L26.9512 68.4971L26.9277 68.3213L26.9395 68.1455L27.209 65.6025L27.1035 63.1885V63.0244H30.1035V63.0596L30.209 65.6025L30.2207 65.708L30.209 65.8252L29.9395 68.2744L30.1318 69.8164L30.7148 69.9746L31.5117 70.1855L31.7578 70.9707L32.543 73.502L32.625 73.748L32.6133 74.0059L32.5195 76.5137L32.665 77.5898H32.7188L34.9453 77.7148L35.2109 76.0371L35.2695 73.5293L35.0938 71.0449L35.082 70.9863V70.9277L35.0938 68.291V68.2324L35.1055 68.1855L35.3047 65.5957L35.1875 63.1699L34.918 60.5332L34.8945 60.2871L34.9414 60.041L35.5273 57.4746L35.6094 57.1113L35.8672 56.8184L36.8818 55.6631L36.7051 54.6797L36.6934 54.5977V54.5039L36.541 51.8555L36.5293 51.6562L36.5762 51.4688L37.0918 48.9375L37.291 46.5117L38.1348 46.582L38.7793 46.5352L40.2676 46.418L40.2793 46.5234L40.291 46.6406L40.2793 46.7578L40.0684 49.2891V49.3828L40.0449 49.4766L39.541 51.8555L39.6699 54.1641L39.9395 55.7344L41.0176 56.0156H42.4062L42.4395 55.5557L42.2051 53.0713L42.1816 52.8955L42.2051 52.708L42.5918 50.1064L42.627 49.8604L42.7441 49.6494L43.8223 47.5166L44.877 48.0557L45.1699 48.0908L45.3574 48.1182L45.3994 47.3682L45.4932 47.3799H45.5752L48.0947 47.6494L48.165 47.6611H48.2236L48.459 47.7061L48.3457 46.001L48.334 45.7666L48.3926 45.5557L48.8691 43.5254V42.7158H48.9043L48.9941 42.7119L49.0957 40.5986V40.458L49.1309 40.3291L49.7168 37.8682L49.9746 35.3018L49.998 35.0088L50.1387 34.751L51.3691 32.3955L51.3809 32.3604L51.4043 32.3369L52.7051 30.0635L52.7285 30.0166L54.0527 27.9072L54.9551 25.6924L55.5176 23.2549L55.9043 20.7588L56.209 18.1807L56.2207 18.04L56.2676 17.8994L57.0762 15.3682L57.1348 15.1807L57.252 15.0049L58.5596 13.0312L58.3809 12.6689L58.1934 12.2822L58.2285 11.8604L58.498 9.24707L58.4043 6.86816L59.4121 6.82129L59.8809 6.71582L61.334 6.36426L61.3574 6.46973ZM104.953 90.6807L104.707 90.7393L104.461 90.7275L101.824 90.5283H101.812L99.3047 90.3057L96.8438 90.6338L96.75 90.6455H96.6562L94.0078 90.6338H93.9141L91.3242 90.458L88.7812 90.54L88.7461 90.5518L88.6992 90.54L86.1094 90.4814L83.5078 90.5752H83.332L80.8828 90.3643L78.375 90.7041L78.1523 90.7275L77.9551 90.6973L77.9775 90.9453L77.9072 91.2031L77.1689 93.793L76.9814 94.4609L76.3486 94.7422L75.165 95.2842L75.2637 97.6494L75.2754 97.7549L75.2637 97.8721L74.9941 100.345L75.2402 102.841V102.935L75.3457 105.571L75.3574 105.665L75.3457 105.747L75.1465 108.384L75.1348 110.81L75.3223 113.446L75.334 113.54L75.3223 113.634L75.2773 114.532L76.6836 114.711L79.1445 114.477H79.2734L81.9102 114.453H82.0039L82.0859 114.465L84.5469 114.746L86.9727 114.371L87.125 114.348L87.2773 114.359L87.334 114.361L87.2021 112.384V112.208L87.3311 109.7L86.8975 107.263L86.8154 106.759L87.0498 106.302L88.292 103.958L88.374 103.794L88.5029 103.653L90.2607 101.708L90.3428 101.626L92.2295 99.8447L93.2021 98.9307L94.2217 99.7861L96.2021 101.462L96.3311 101.567L96.4365 101.696L98.0186 103.782L98.1592 103.958L98.2295 104.169L99.1084 106.548L99.1787 106.735L99.2021 106.935L99.4365 109.571L99.4482 109.712L99.4365 109.864L99.167 112.349L99.2627 114.595L100.367 114.746L102.77 114.312L103.027 114.266L103.285 114.301L105.317 114.639L105.328 114.587L105.867 114.235L107.051 113.474L107.285 111.704L107.133 109.208V109.021L107.285 106.442L107.332 103.806L107.098 101.333L107.086 101.228L107.098 101.122L107.215 98.5674L107.18 95.9424L107.121 93.3057V93.2939L106.98 91.1025L106.477 90.2705L104.953 90.6807ZM58.6709 98.5859L57.124 100.32L56.0928 102.277L55.7764 104.492L55.8936 106.918L56.1514 109.555L56.1631 109.707L56.1396 109.859L55.8701 112.344L55.9521 114.271L58.1328 114.488L60.7227 114.348L60.8633 114.336L61.0156 114.359L63.418 114.711L64.7715 114.458L64.7881 114.418L65.2334 113.293L65.1514 110.973L65.0576 108.336L64.9521 105.699V105.594L64.9639 105.488L65.1865 103.18L64.3779 101.199L63.1123 99.418L61.1787 98.2227L59.9014 97.6133L58.6709 98.5859ZM59.8604 86.5273L58.3252 87.8867L56.7666 89.8555L56.7549 89.8789L56.7314 89.9023L54.9971 91.9062L54.9736 91.9414L54.9385 91.9766L53.0635 93.875L52.8408 94.0977L52.5479 94.2148L50.0635 95.1992L49.9932 95.2227L48.7295 95.6494L48.8125 97.6494L48.8242 97.7549L48.8125 97.8721L48.543 100.345L48.7891 102.841V102.935L48.8945 105.571L48.9062 105.665L48.8945 105.747L48.6953 108.384L48.6836 110.81L48.8711 113.446L48.8828 113.54L48.8711 113.634L48.8369 114.323L50.1523 114.242L50.3281 114.23L50.5039 114.266L52.8828 114.688L52.9639 114.673L52.8701 112.402V112.297L52.8818 112.18L53.1514 109.684L52.9053 107.211V107.176L52.8936 107.129L52.7764 104.492L52.7646 104.352L52.7881 104.211L53.1748 101.586L53.21 101.328L53.3271 101.105L54.5459 98.7852L54.6279 98.6328L54.7568 98.4922L56.5146 96.5117L56.5967 96.4062L56.7021 96.3242L58.7764 94.6836L59.5029 94.1094L60.3467 94.5078L62.5146 95.5391L62.585 95.5742L62.6553 95.6211L64.9404 97.0273L65.1865 97.1914L65.3623 97.4258L66.9326 99.5938L67.0381 99.7461L67.0967 99.9102L68.1162 102.406L68.2568 102.746L68.2217 103.121L67.9521 105.641L68.0576 108.219V108.23L68.1514 110.867L68.2451 113.516L68.2568 113.832L68.1396 114.125L68.0547 114.334L68.7969 114.371L68.7852 114.383L71.3633 114.43L72.2822 114.413L72.334 113.563L72.1465 111.021L72.1348 110.962V110.903L72.1465 108.267V108.149L72.3574 105.571L72.252 103.134L71.9941 100.497L71.9824 100.345L71.9941 100.192L72.2637 97.6494L72.1787 95.7197L70.4424 95.2695L70.2549 95.2227L70.0908 95.1289L67.7705 93.8516L67.5947 93.7578L67.4541 93.6172L65.5322 91.7773L65.4502 91.6836L65.3682 91.5781L63.9033 89.5859L61.9814 88.0156L61.876 87.9336L61.7939 87.8281L60.6104 86.4336L59.8604 86.5273ZM92.4873 103.724L90.8467 105.528L89.9443 107.239L90.3193 109.384L90.3545 109.548L90.3428 109.724L90.2021 112.255L90.3564 114.514L92.4453 114.641L95 114.43L95.0586 114.418H95.1055L96.25 114.412L96.167 112.407L96.1553 112.302L96.167 112.185L96.4248 109.677L96.2256 107.415L95.4873 105.423L94.1396 103.642L93.3076 102.938L92.4873 103.724ZM26.5732 103.9L25.0381 105.412L24.6631 107.357L24.7686 109.807L24.7803 109.9L24.7686 109.994L24.5693 112.631L24.5596 114.465L26.375 114.336L26.4453 114.324L26.5273 114.336L29.1641 114.406H29.2344L29.293 114.418L30.7266 114.583L30.7188 114.325V114.29L30.6719 111.653V111.548L30.6836 111.454L30.9766 108.993L30.7188 106.837L29.5352 104.95L28.0352 103.052L27.7852 102.764L26.5732 103.9ZM17.5547 90.6572L17.3906 90.6807L17.2266 90.6689L14.8945 90.4814L13.8398 90.8682L13.4414 92.333L13.5469 94.7471L13.6406 97.3486L13.8281 100.161L13.793 100.349L13.3711 102.716L13.7812 105.106L13.8164 105.306L13.8047 105.505L13.5469 108.071L13.6875 110.567L13.6992 110.72L13.6758 110.86L13.3594 112.97L14.0625 114.13L14.3438 114.282L14.25 114.435L14.2852 114.493L14.2031 114.54L14.1846 114.574L15.7695 114.418H15.8633L18.5 114.312L18.5938 114.301L18.6758 114.312L21.3125 114.512L21.3008 114.523H21.5596L21.5693 112.502V112.396L21.7803 109.807L21.6748 107.287L21.6631 107.123L21.6982 106.947L22.1904 104.393L22.2842 103.936L22.6123 103.607L24.4873 101.744L24.5225 101.709L26.374 99.9746L26.8818 100.524L27.5898 100.204L27.8828 100.075L28.7617 99.3135L30.2969 101.095L30.3203 101.106L30.3438 101.142L31.9727 103.192L32.0312 103.263L32.0781 103.333L33.4492 105.56L33.625 105.841L33.6719 106.181L33.9766 108.829L34 109.005L33.9766 109.181L33.6719 111.688L33.7188 114.22L33.7236 114.371L34.1562 114.301L34.3203 114.277L34.4844 114.289L37.0156 114.43L39.582 114.254L39.7227 114.242L39.8633 114.266L42.3711 114.57L44.9141 114.488L45.8271 114.463L45.8828 113.563L45.6953 111.021L45.6836 110.962V110.903L45.6953 108.267V108.149L45.9062 105.571L45.8008 103.134L45.543 100.497L45.5312 100.345L45.543 100.192L45.8125 97.6494L45.7305 95.7793L43.9814 95.1055L43.29 94.8477L43.0791 94.1211L42.3525 91.5664L42.2471 91.2266L42.3174 90.875L42.3633 90.6338L41.0859 90.6104H40.957L38.4492 90.3525L35.9766 90.5986L35.9414 90.6104H35.8945L33.2578 90.7275H33.0703L30.4336 90.5283H27.9023V90.5166L25.3711 90.7041L25.2891 90.7158L25.2188 90.7041L22.5703 90.6221H22.5L22.4297 90.6104L19.9688 90.2822L17.5547 90.6572ZM59.4375 77.8945L59.3438 77.9883L59.2383 78.0703L57.1406 79.5938L56.8594 79.793L56.5195 79.8633L56.1855 79.9219L55.2773 82L55.125 82.3398L54.8438 82.5742L52.8633 84.1445L51.2578 86.0547L51.1875 86.125L49.3125 88.0469L48.5273 88.8438L47.5312 88.3164L45.877 87.4307L45.7744 88.6719V88.7422L45.751 88.8242L45.3291 91.0859L45.751 92.5625L47.0049 93.0547L48.9619 92.4102L51.1533 91.5312L52.7939 89.8672L54.458 87.9336L56.0635 85.918L56.1455 85.8125L56.251 85.7188L58.2432 83.9844L58.583 83.6797L59.04 83.6211L61.0557 83.3633L61.8643 83.2461L62.3916 83.8789L63.9854 85.7773L65.9541 87.3945L66.1064 87.5117L66.2119 87.6641L67.6768 89.668L69.3994 91.332L71.3682 92.3984L73.1963 92.8789L74.4736 92.293L74.9424 90.6523L74.7549 88.2852L74.7432 88.2383V88.2031L74.7314 87.8779L74.6621 87.8984L74.5801 87.9102L72.4238 88.2031L71.873 88.2852L71.3926 87.9805L69.2012 86.5391L69.166 86.5156L69.1426 86.5039L66.9863 84.9453L66.7754 84.793L66.623 84.582L65.123 82.3906L65.0527 82.2852L65.0059 82.1797L63.9395 79.9062L64.2793 79.7451L62.3721 79.0078L61.9736 78.8555L61.7158 78.5156L60.4512 76.832L59.4375 77.8945ZM25.9336 79.9922L25.6172 81.082L25.7578 83.4609L25.7695 83.6367L25.7344 83.8125L25.3242 86.1445L25.6768 87.6816L27.7969 87.5283H30.6094L30.6562 87.54L33.2227 87.7275L35.7656 87.6104V87.6221L38.3203 87.3525L38.4727 87.3408L38.625 87.3525L41.1445 87.6221L42.8564 87.6455L42.9971 85.918L42.6455 83.7383L42.5986 83.4219L42.6807 83.1055L42.8213 82.6016L44.2744 83L45.376 83.3047L45.6104 83.2695L45.6221 83.3633L45.7158 83.3984L45.6572 83.5859L45.7471 84.1475L46.4062 84.3438L46.5586 84.3906L46.6875 84.4609L47.9531 85.1289L49.043 84.0273L50.6836 82.082L50.7773 81.9766L50.8945 81.8828L52.6758 80.4531L52.7383 80.3105L51.0586 80.2734L51 80.2617H50.9531L48.3398 80.0273L45.9727 80.0625L45.9844 80.0742L43.3594 80.3672L43.2891 80.3789H43.2188L40.582 80.4375H40.4414L37.9688 80.25L35.543 80.7188L35.3672 80.7539L35.1797 80.7422L32.625 80.5781L32.6367 80.5898L29.9883 80.6133H29.7891L29.6133 80.5664L27.1875 79.9688L25.9336 79.9922ZM103.58 83.8154L103.275 85.8193L103.381 87.6367L104.449 87.7158L105.348 87.4844L105.314 87.3311L105.268 87.1436L105.279 86.9443L105.385 84.542L104.998 83.1006L104.318 82.9014L103.58 83.8154ZM86.4893 80.2031L86.3721 80.2148H86.2666L83.7471 80.1328L81.2744 80.5547L81.0635 80.5898L80.8408 80.5547L78.2744 80.2266L75.7549 80.1328L73.1885 80.2734H73.0713L70.4229 80.2148H70.376L70.3174 80.2031L67.7979 79.9453L67.2793 79.9541L67.6895 80.8203L68.9316 82.6367L70.9004 84.0664L72.5645 85.1562L74.0879 84.9336L74.3408 84.8682L73.8994 83.5977L73.7939 83.3047L73.8174 82.9883L73.8291 82.8945L75.3291 83L75.5635 83.0117L76.7354 82.6016L77.5791 85.0156L77.6494 85.2266L77.6611 85.4609L77.7295 87.6133L78.2109 87.7041L80.6133 87.376L80.7773 87.3525L80.9414 87.3643L83.5195 87.5752L86.0391 87.4814H86.1328L88.7227 87.5518L91.3242 87.458H91.4766L94.1133 87.6338L94.1016 87.6455H95.1318L95.1963 87.3516L94.7979 85.0195L94.751 84.7617L94.7979 84.5039L95.208 82.0664L95.0322 80.4961L93.9189 80.0391L91.5986 80.0742H91.4697L88.9502 79.8984L86.4893 80.2031ZM15.6152 83.9014L15.3105 85.9521L15.4248 87.5146L17.2852 87.6572L17.4131 87.6377L17.3496 87.124V84.5928L16.9277 83.0811L16.2832 82.917L15.6152 83.9014ZM80.6875 58.4707L80.2539 58.7285L79.75 58.6699L77.418 58.4004L74.9688 58.8223L74.8867 58.834H74.8047L72.168 58.998H72.0391L71.9219 58.9863L69.4023 58.7402H67.1055L66.7354 58.9072L68.0195 60.2002L70.082 61.7705L70.2109 61.8525L70.3047 61.9697L72.0391 63.9268L72.4375 64.3721L72.4258 64.9697L72.3555 67.5947L72.4492 70.0557L72.707 72.6924L72.7188 72.8447L72.6953 72.9854L72.4375 75.54L72.5117 77.251L73.0479 77.2617L75.6729 77.1328H75.8135L78.4502 77.2383L78.5088 77.25H78.5791L81.0049 77.543L82.9668 77.2188L82.8438 75.2998V75.124L82.9727 72.6162L82.5742 70.167L82.5391 69.9561L82.5625 69.7451L82.8672 67.1084L82.9375 64.7529L82.7617 62.1045L82.75 62.0576L82.7617 61.999V59.5029L82.3008 57.5176L80.6875 58.4707ZM28.207 73.6777L27.5273 75.8223L27.6104 76.9834L27.7383 77.0156L29.6221 77.4678L29.5312 76.7832L29.5195 76.666V76.5371L29.6016 74.1348L29.1445 72.6465L28.793 72.5527L28.207 73.6777ZM38.3633 58.5059L37.918 60.4746L38.1758 62.8535V62.9004L38.1875 62.9473L38.3047 65.584V65.6777L38.293 65.7715L38.0938 68.4082L38.082 70.834L38.2695 73.4707V73.623L38.1875 76.2598V76.3535L38.1758 76.4473L38.0508 77.2529L40.6172 77.4258L43.1133 77.3789L45.6445 77.0859L45.7148 77.0742H45.7852L48.2598 77.0303L48.5078 75.54L48.4141 73.0674V72.8799L48.625 70.4658L48.0508 68.0752L47.9453 67.6533L48.0977 67.2314L48.9766 64.7471L49.0234 64.6064L49.1055 64.4775L50.3945 62.2861L50.5352 62.0635L50.7227 61.8994L52.6914 60.2471L54.0361 58.7988L51.6348 59.2031L51.4355 59.2266L51.2246 59.2031L48.6582 58.8984L46.1738 58.8281L43.584 59.0156H40.6426L40.4668 58.9688L38.416 58.4453L38.3633 58.5059ZM58.2109 58.958L56.5 60.5518L54.8008 62.3799L54.7422 62.4502L52.8438 64.0322L51.7656 65.8369L51.0625 67.8174L51.5898 70.0088L51.6484 70.2432L51.625 70.4775L51.4141 72.9502L51.5078 75.5986V75.751L51.4844 75.8916L51.2549 77.2734L53.6016 77.3203L53.9785 77.2529L53.8936 76.4082L53.8818 76.2559L53.8936 76.1035L54.1631 73.6543L53.917 71.123L53.8936 70.8652L53.9521 70.6191L54.5967 68.0293L54.7139 67.5605L55.0889 67.2441L57.1162 65.5098L57.1396 65.498L57.1514 65.4746L59.2256 63.834L60.0225 63.2129L60.9014 63.7051L62.9053 64.8418L63.0576 64.9355L63.1865 65.0527L65.1318 66.8691L65.3896 67.1035L65.5186 67.4434L66.4092 69.834L66.4561 69.9746L66.4795 70.1152L66.9131 72.7285L66.9482 72.8926L66.9365 73.0566L66.7959 75.6934L66.8369 76.959L67.8096 76.9453H67.8916L67.9854 76.957L69.502 77.1045L69.4375 75.54L69.4258 75.4346L69.4375 75.3174L69.6953 72.8096L69.4609 70.3369V70.3018L69.4492 70.2549L69.3555 67.6064V67.5127L69.4023 65.4736L68.1367 64.0439L66.168 62.5557L66.0742 62.4971L64.1289 60.5518L64.0352 60.4463L63.9531 60.3291L62.7695 58.6064L60.9766 57.7744L59.8633 57.7275L58.2109 58.958ZM91.6523 72.9727L91.1484 74.8125L91.3691 77.0615L91.5518 77.0742L93.2139 77.0518V75.2236L93.2725 73.208L92.3311 72.2979L91.6523 72.9727ZM59.0264 67.8301L59.0146 67.8184L57.3857 69.2129L56.9287 71.0996L57.1514 73.4785L57.1748 73.6191L57.1514 73.7715L56.915 76.0391L57.3633 75.7148L59.0156 73.9922L59.1592 73.8408L59.1025 73.6758L60.3564 73.2422L60.4268 73.1367L61.2236 71.8711L61.3174 71.918L61.7627 72.1992L61.9385 72.7031L62.6533 74.7773L63.8154 76.3311L63.7959 75.6699V75.541L63.9248 73.0332L63.5498 70.7715L62.8232 68.8145L61.2529 67.3496L60.292 66.8105L59.0264 67.8301ZM69.3174 50.708L69.1182 50.7549L68.9189 50.7314L66.2939 50.5322L63.8096 50.5674L61.29 50.8721L61.2314 50.8838H61.1729L58.5361 50.9893H58.3955L55.8174 50.8486L53.2861 50.9541L50.6494 51.1299L50.4619 51.1416L50.2744 51.1064L47.7783 50.626V50.6377L45.7031 50.415L45.5332 50.751L45.1934 53.001L45.4395 55.4268L45.4512 55.5557L45.4395 55.6729L45.4248 55.8799L46.0098 55.8398L46.0801 55.8281H46.1621L48.7988 55.9102H48.9277L51.3652 56.1914L53.791 55.8047L53.9551 55.7812H54.1191L56.7559 55.9219L56.8965 55.9336L57.0254 55.9688L57.166 56L58.5156 55.0088L58.9375 54.6807L59.4766 54.7041L61.457 54.8096L61.75 54.8213L62.0195 54.9502L64.4102 56.0635L64.7734 56.2393L64.916 56.4395L66.1797 55.8691L66.4727 55.7402H69.5781L72.0625 55.9863L74.4766 55.8574L75.5469 55.6729L75.5166 54.9619V54.9502L75.4346 52.3252L75.3525 50.6963L74.0635 50.3213L71.7783 50.2275L69.3174 50.708ZM56.9199 45.6221H56.9316L54.2949 45.8799L54.1426 45.8916L53.9902 45.8799L51.4941 45.6221L51.4521 45.623L51.3574 46.0244L51.4922 48.0723L53.0986 47.9658H53.1338L55.7705 47.8486H55.9111L58.4893 47.9893L61.0205 47.8955L63.5635 47.5908L63.6455 47.5791H63.7158L66.3643 47.5322H66.5049L68.9424 47.7314L71.292 47.2793L71.498 45.8936L69.8574 45.6221L67.4082 45.5518L64.8184 45.7275L64.7598 45.7393H64.7012L62.0645 45.7275H61.9473L59.3691 45.5283L56.9199 45.6221ZM58.9199 40.6221H58.9316L56.2949 40.8799L56.1426 40.8916L55.9902 40.8799L53.4941 40.6221L52.1191 40.6738L52.084 40.8213L52 42.6455L54.1543 42.8799L56.6387 42.6338H56.7324L59.3691 42.5283L59.4629 42.5166L59.5449 42.5283L62.1816 42.7275L62.1699 42.7393H64.6074L67.2441 42.5518L67.3145 42.54L67.3965 42.5518L70.0332 42.6221H70.1387L70.2324 42.6455L71.0928 42.7842L70.709 40.8174L70.6416 40.5869L69.3965 40.5518L66.8184 40.7275L66.7598 40.7393H66.7012L64.0645 40.7275H63.9473L61.3691 40.5283L58.9199 40.6221ZM60.9199 34.6221H60.9316L58.2949 34.8799L58.1426 34.8916L57.9902 34.8799L55.4941 34.6221L53.5488 34.6953L52.916 35.8877L52.751 37.6387L53.4473 37.6104L53.5527 37.5986L53.6699 37.6104L56.1543 37.8799L58.6387 37.6338H58.7324L61.3691 37.5283L61.4629 37.5166L61.5449 37.5283L64.1816 37.7275L64.1699 37.7393H66.6074L69.2441 37.5518L69.3145 37.54L69.3965 37.5518L69.7891 37.5625L69.373 35.8369L68.7295 34.7393H68.7012L66.0645 34.7275H65.9473L63.3691 34.5283L60.9199 34.6221ZM56.7949 29.1494L56.7363 29.2666L56.6777 29.3721L55.2949 31.5518L55.2568 31.6182L55.4473 31.6104L55.5527 31.5986L55.6699 31.6104L58.1543 31.8799L60.6387 31.6338H60.7324L63.3691 31.5283L63.4629 31.5166L63.5449 31.5283L66.1816 31.7275L66.1699 31.7393H66.9453L66.9004 31.665L65.0723 30.0947L64.9551 29.9893L64.8613 29.8721L64.1621 28.9727L63.9473 29.0596L63.6426 29.1768L63.3145 29.165L60.6777 29.0244V29.0127L58.0762 28.9658H57.9121L57.7598 28.9307L56.9629 28.7354L56.7949 29.1494ZM59.8652 16.4814L59.1621 18.6846L58.8691 21.1689V21.2158L58.4707 23.8291L58.459 23.876L58.4473 23.9346L57.9902 25.9043L58.2754 25.9775L60.7832 26.0244H60.8301L62.915 26.1396L62.8457 24.54L62.002 22.3135L61.9668 22.2314L61.9434 22.1377L61.334 19.5713L61.3105 19.5127V19.4541L60.9355 17.1338L60.1797 16.0098L59.8652 16.4814Z" fill="black"/>
</svg>
