<svg width="120" height="120" viewBox="0 0 120 120" fill="none" xmlns="http://www.w3.org/2000/svg">
<path d="M8.83203 53.6899L10.8711 54.9087L13.2266 55.5767L15.7344 56.104H15.7227L18.2305 56.6079L20.75 56.772L20.8789 56.7837L20.9961 56.8071L23.4336 57.3931L26.0469 57.7446H26.0352L28.6484 58.0376H28.6367L31.2617 58.3188H31.3086L31.3672 58.3306L33.8398 58.7642L36.2891 58.8931L38.8789 58.6821L39.1016 58.6587L39.3125 58.7056L41.9258 59.2329L44.2578 59.5728L46.707 59.3735H46.8477L49.5078 59.397H49.5781L52.2266 59.561L52.25 59.5728H52.2734L54.9102 59.8306H54.957L57.5 60.1704L59.9844 60.229L62.5156 59.9712H62.5742L65.2109 59.8188L65.293 59.8071H65.3633L67.9297 59.9243L70.4844 59.7837L70.5664 59.772L70.6602 59.7837L73.2734 59.9243H73.2617L75.6992 59.9478L78.1719 59.5024L78.2188 59.4907L78.2539 59.479L80.832 59.1509L80.9023 59.1392H80.9727L83.5625 59.0454L86.1758 58.8696L88.6602 58.4478H88.707L91.332 58.0845L93.8984 57.6743L94.0039 57.6626L94.0977 57.6509L96.6289 57.5923L99.0312 57.0298L99.1953 57.0063L101.633 56.7134L104.059 55.9282L104.152 55.8931L104.258 55.8696L106.848 55.3892H106.859L109.227 54.979L111.359 53.8892L111.863 53.6313L112.414 53.772L114.699 54.3696L115.52 54.5806L115.766 55.3892L116.516 57.9087L116.609 58.2251L116.562 58.5415L116.211 61.0845L116.152 63.4985L116.609 65.9946L116.633 66.1704L116.621 66.3579L116.469 69.0181L116.457 69.1001L116.445 69.1704L116.07 71.397L116.703 73.6587L116.785 73.9751L116.738 74.2915L116.352 76.7642L116.305 79.2485L116.469 81.9087L116.48 82.0728L116.445 82.2485L116.012 84.7329L116.129 87.0415L116.609 89.5845L116.656 89.8071L116.621 90.0298L116.328 92.5259L116.387 95.1157V95.3501L116.316 95.561L115.566 98.1157L115.355 98.8423L114.641 99.1001L112.121 100.014L112.086 100.026H112.062L109.555 100.834L109.508 100.858L109.449 100.87L106.883 101.467L106.789 101.491L104.328 101.913L102.031 102.885L101.797 102.979L101.539 102.991L98.9961 103.131L96.5586 103.694L96.4297 103.729H96.3008L93.8398 103.87L91.4727 104.631L91.2148 104.713L90.9453 104.69L88.4375 104.561L86.0117 105.018L85.9648 105.03L85.9062 105.042L83.2812 105.323H83.2695L80.6445 105.581L80.5391 105.592H80.4453L77.8438 105.499L75.2773 105.592H75.1836L72.7812 105.522L70.5547 106.307L70.25 106.413L69.9336 106.389L67.3438 106.167L64.8359 106.26L64.8242 106.249L62.2344 106.377L62.1523 106.389L62.0703 106.377L59.4336 106.225H56.9375L56.9492 106.237L54.3359 106.366H54.3125L54.2891 106.377L51.6406 106.424H51.5234L51.418 106.401L48.793 106.049L48.6758 106.038L48.5703 106.002L46.1797 105.299L46.1914 105.252L46.1445 105.323L45.6172 106.038L44.7266 105.92L42.3359 105.581L39.8164 105.803L39.5703 105.827L39.3242 105.768L36.8633 105.135L34.3555 104.959H34.3438L31.7188 104.76V104.749L29.1172 104.643H29.0703L29.0117 104.631L26.3867 104.338H26.3281L26.2695 104.327L23.6797 103.823H23.6445L23.6094 103.811L21.0898 103.213L18.6641 102.721L15.8516 102.545L15.6758 102.487L13.1914 101.69L10.6484 100.952L10.5547 100.928L10.4609 100.893L8.04688 99.8267V99.8149L5.66797 98.9829L5.08203 98.772L4.8125 98.2212L3.6875 95.8774L3.51172 95.5142L3.54688 95.1157L3.73438 92.6665L3.32422 90.2056L3.28906 89.936L3.33594 89.6665L3.83984 87.2056L3.875 84.8501L3.54688 82.354L3.53516 82.2954V82.2368L3.39453 79.5884L3.38281 79.4946L3.39453 79.4009L3.59375 76.8579L3.40625 74.3267L3.38281 74.0688L3.45312 73.8228L4.12109 71.479L3.99219 69.0532L3.83984 66.4399L3.85156 66.4282L3.66406 63.8149L3.67578 63.8032L3.38281 61.2603L3.37109 61.1782V61.0962L3.35938 58.4243V58.0728L3.52344 57.7563L4.68359 55.3892L4.90625 54.9556L5.32812 54.7212L7.36719 53.6548L8.10547 53.2563L8.83203 53.6899ZM7.15625 57.147L6.35938 58.7642L6.37109 60.979L6.65234 63.5454L6.66406 63.5806V63.6157L6.83984 66.2524V66.2642L6.99219 68.8892L7.13281 71.561L7.14453 71.8071L7.07422 72.0532L6.40625 74.397L6.58203 76.7759L6.59375 76.8813L6.58203 76.9868L6.38281 79.5298L6.51172 81.9556L6.86328 84.5806L6.88672 84.686L6.875 84.8032L6.82812 87.3696V87.4985L6.80469 87.6392L6.32422 89.9829L6.72266 92.3501L6.74609 92.5259L6.73438 92.7017L6.55859 94.9282L7.25 96.3579L9.16016 97.0376L9.20703 97.061L9.25391 97.0728L11.6445 98.1157L14.0234 98.8071L14.0469 98.8188H14.0586L16.4023 99.5571L18.8984 99.7329L19.0859 99.7563L21.6758 100.272H21.6992L21.7344 100.284L24.2773 100.881L26.8438 101.374H26.832L29.2461 101.643L31.8945 101.772H31.9414L34.5781 101.971H34.5664L37.2031 102.159H37.332L37.4609 102.194L39.793 102.792L42.2305 102.581L42.3945 102.569L42.5586 102.592L44.2578 102.815L44.8438 102.018L45.0078 99.979L44.9258 97.3423V97.2368L45.0195 94.7642L44.5039 92.3853L44.4336 92.0337L44.5156 91.6938L45.0781 89.4438L44.832 87.0415L44.8203 86.8306L44.8555 86.6196L45.3125 84.1118L45.2891 81.7915L44.7383 79.3306L44.7031 79.1782V79.0142L44.6914 76.354V76.2368L44.7031 76.1313L45.0547 73.5063L45.0664 73.4946V73.4829L45.4297 71.104L46.6719 71.2915L46.6953 69.8267L46.9414 69.8384L48.6523 69.8618L48.3945 71.561L48.0312 73.9399L47.6914 76.3306V78.8267L48.2539 81.2876L48.2891 81.4399V81.5923L48.3242 84.2407V84.3931L48.3008 84.5454L47.8438 86.9595L48.0898 89.4438L48.1133 89.7134L48.0547 89.9595L47.5039 92.0806L47.9961 94.3306L48.043 94.5181L48.0312 94.7056L47.9258 97.354L48.0078 99.8853L48.0195 99.9673L48.0078 100.049L47.8086 102.639L49.3203 103.096L51.7109 103.413L54.1836 103.377L56.7969 103.237H56.8672L59.5156 103.225H59.5625L59.6094 103.237L62.1641 103.377L64.7188 103.26H64.7422L67.3789 103.167H67.4609L67.5547 103.178L69.8516 103.366L72.0664 102.604L72.3125 102.522H72.5938L75.1953 102.581L77.7969 102.499H77.9023L80.4805 102.581L82.9531 102.346L85.5781 102.053L88.0742 101.596L88.2383 101.561L88.4141 101.573L90.8164 101.678L93.1133 100.952L93.3008 100.893L93.4883 100.881L95.9961 100.741L98.457 100.178L98.5859 100.155L98.7148 100.143L101.094 100.014L103.355 99.0884L103.508 99.0181L103.672 98.9946L106.191 98.5493L108.641 97.9751L111.09 97.1899L112.906 96.522L113.375 94.9282L113.328 92.5376V92.4321L113.34 92.3384L113.609 89.9243L113.164 87.5103L113.152 87.4165L113.141 87.311L113.023 84.6743L113.012 84.5103L113.035 84.3462L113.457 81.9204L113.305 79.436V79.3188L113.352 76.6704V76.5767L113.363 76.4712L113.715 74.1392L113.105 71.8774L113.012 71.561L113.07 71.2329L113.48 68.6899L113.621 66.3345L113.176 63.897L113.152 63.7446V63.5923L113.211 60.9438V60.8618L113.223 60.7798L113.551 58.4478L113.129 57.0532L112.215 56.8188L110.41 57.7563L110.199 57.8501L109.977 57.897L107.387 58.3306L107.398 58.3423L104.926 58.7876L102.477 59.6079L102.324 59.6548L102.172 59.6782L99.6641 59.9595L97.1328 60.5571L96.9805 60.5923H96.8281L94.3203 60.6392L91.7656 61.061H91.7305L89.1523 61.4009L86.5508 61.8462L86.4805 61.8579L86.3984 61.8696L83.7617 62.0337L83.7383 62.0454H83.7148L81.1367 62.1274L78.6992 62.4438L76.1211 62.9243L75.9805 62.9595H75.8281L73.1797 62.9243H73.1094L70.5664 62.772L68.0352 62.936H67.8828L65.3047 62.8071L62.8086 62.9478L62.8203 62.9595L60.1836 63.229L60.0781 63.2407H59.9844L57.3359 63.1704L57.2656 63.1587H57.1836L54.6055 62.8071L51.9805 62.561V62.5493L49.3906 62.397V62.3853L46.8242 62.3735V62.3618L44.3398 62.5845L44.1641 62.5962L43.9883 62.5728L41.3984 62.186L41.3633 62.1743H41.3281L38.9141 61.6821L36.4766 61.8931L36.3711 61.9048L36.2773 61.8931L33.6289 61.7642H33.5352L33.4414 61.7407L30.8516 61.2837L28.3203 61.0259H28.3086L25.6836 60.7212H25.6484L23.0352 60.3696L22.9648 60.3579L22.8828 60.3462L20.4688 59.7603L17.9141 59.5962H17.8086L17.7148 59.5728L15.125 59.0454H15.1133L12.5234 58.4946L12.4297 58.4712L9.88672 57.7563L9.69922 57.6978L9.53516 57.604L8.01172 56.6899L7.15625 57.147Z" fill="black"/>
<path d="M114.602 71.5093L114.508 71.5327L114.497 71.5444L112.036 72.1187L112 72.1304H111.965L109.516 72.5757L107.149 73.5015L106.985 73.5483L104.418 74.2046L104.336 74.228L104.243 74.2397L101.618 74.5913L101.606 74.5796L99.1919 75.0483L96.6372 75.7163L96.5435 75.7397L96.4614 75.7515L93.8364 76.0913L93.7544 76.103H93.6724L91.1997 76.1382L88.8325 76.8296L88.6685 76.8765H88.5044L86.0083 77.0171L83.4302 77.4741L83.2778 77.4976H83.1255L80.5239 77.4272L78.0396 77.6851H77.981L75.3442 77.8608H75.2153L75.0981 77.8491L74.0435 77.7554L74.1841 76.2554L74.3247 74.7671L75.2153 74.8491L77.7349 74.6968L80.3599 74.4272H80.5474L83.0552 74.4858L85.5161 74.0522L85.5981 74.0405H85.6919L88.1646 73.8882L90.5786 73.2085L90.7661 73.1499H90.9653L93.52 73.103L95.9927 72.7749L98.4653 72.1538L98.5005 72.1421L98.5474 72.1304L101.137 71.6265L101.184 71.6147H101.231L103.774 71.2632L106.188 70.6421L108.543 69.7397L108.672 69.6929L108.813 69.6694L111.415 69.1772V69.189L113.817 68.6147V68.6265L113.899 68.603L114.602 71.5093Z" fill="black"/>
<path d="M7.2373 69.0366L9.65137 69.646L9.66309 69.6343L12.2412 70.2319L12.335 70.2437L12.4287 70.2905L14.7607 71.1577L17.2451 71.5444L17.3154 71.5562L17.3857 71.5796L19.7764 72.189L22.2725 72.2241H22.46L22.6475 72.2827L25.1318 72.9741L27.6279 73.3726L30.1475 73.5132L30.1943 73.5249H30.2412L32.8662 73.8413L32.9014 73.853L32.9482 73.8647L35.4326 74.3101L37.9287 74.4038L40.5303 74.3218H40.6943L40.8584 74.3452L43.3662 74.8022L45.8271 74.9663H45.8506L45.9561 74.978L45.8271 76.478L45.71 77.9663L45.6396 77.9546V77.9663L43.0967 77.8022L43.0146 77.7905L42.9209 77.7788L40.46 77.3218L37.9873 77.4038L37.9287 77.4155L37.8701 77.4038L35.2334 77.3101L35.0225 77.2866L32.5029 76.8179V76.8296L29.9717 76.5132L27.335 76.3608H27.2529L27.1709 76.3491L24.5693 75.9155L24.4873 75.9038L24.4053 75.8804L22.0498 75.2124L19.5537 75.189H19.3779L19.2021 75.1421L16.6475 74.4858L14.1631 74.1108L14.0107 74.0874L13.8701 74.0288L11.4561 73.1147L8.99512 72.564L8.9834 72.5522H8.97168L6.40527 71.9194L6.2998 71.8843L6.20605 71.8491L5.19824 71.4507L6.32324 68.6616L7.2373 69.0366Z" fill="black"/>
<path d="M6.15918 83.8062L8.57324 84.1226L8.81934 84.146L9.04199 84.2632L11.21 85.3179L13.6123 85.6577L13.6475 85.6694H13.6826L16.2842 86.1733L16.3545 86.1851L16.4365 86.2085L18.8857 86.9468L21.3232 87.4155L23.8896 87.6382L23.96 87.6499L24.0186 87.6616L26.6201 88.1187L26.6787 88.1304L26.749 88.1421L29.1045 88.7632L31.5537 88.6812L31.7061 88.6694L31.8584 88.6929L34.3311 89.1147L36.9092 89.2202L37.0381 89.2319L37.167 89.2554L39.6162 89.771L42.1357 89.8413H44.8193L44.9014 89.853L45.8271 89.9585L45.6631 91.4468L45.4873 92.9351L44.667 92.8413H42.0537L39.4053 92.771L39.2764 92.7593L39.1475 92.7358L36.6865 92.2085L34.1553 92.1147H34.0615L33.9561 92.0913L31.46 91.6694L28.9873 91.7749H28.7646L28.5537 91.7163L25.9756 91.0483H25.9639L23.5029 90.6147L20.9951 90.4038H20.9131L20.8428 90.3804L18.2412 89.8765L18.1709 89.8647L18.1006 89.8413L15.6162 89.0913L13.1201 88.6226H13.1084L10.5654 88.2593L10.3193 88.2358L10.1084 88.1304L7.92871 87.0522L5.65527 86.7593L5.57324 86.7476L5.49121 86.7241L5.39746 86.7007L5.76074 85.2476L5.95996 84.4038L6.05371 83.7827L6.1123 83.7944L6.12402 83.7827L6.15918 83.8062Z" fill="black"/>
<path d="M114.596 86.9219L114.491 86.9453L114.444 86.957H114.397L111.913 87.3555L111.924 87.3672L109.452 87.8008L107.178 88.7617L106.991 88.832L104.424 89.5L104.342 89.5234L104.249 89.5352L101.624 89.8984L101.612 89.8867L99.1978 90.3672L96.6431 91.0352L96.5493 91.0586L96.4556 91.0703L93.8306 91.4102L93.7485 91.4219H93.6665L91.2056 91.457L88.8267 92.1484L88.6626 92.1953L88.4985 92.207L85.979 92.3242L83.4009 92.7461L83.2603 92.7695H83.1079L80.5298 92.6758L78.0337 92.9453H78.022L75.3853 93.2031L75.2798 93.2148L75.1626 93.2031L74.272 93.1562L74.354 91.6562L74.436 90.168L75.1743 90.2031L77.7173 89.9688L80.3423 89.6758L80.4478 89.6641L80.5532 89.6758L83.0259 89.7578L85.5337 89.3594L85.6157 89.3477H85.6978L88.1704 89.207L90.5728 88.5273L90.7603 88.4688H90.9595L93.5259 88.4219L95.9751 88.1055L98.4595 87.4727L98.4946 87.4609L98.5415 87.4492L101.12 86.9336L101.167 86.9219H101.225L103.733 86.582L106.159 85.9375L108.479 84.9766L108.631 84.918L108.784 84.8828L111.397 84.4141H111.42L113.811 84.0273L113.917 83.9922L114.596 86.9219Z" fill="black"/>
<path d="M75.5308 20.8877L77.7573 21.8604L77.8511 21.8955L77.9331 21.9541L80.23 23.3252L80.4644 23.4775L80.6401 23.7002L82.1519 25.6572L84.0972 27.1455L86.2065 28.7393L86.2183 28.751L88.3159 30.3564L88.4097 30.4268L88.4917 30.5205L90.2261 32.3486L92.2417 33.8486L92.3237 33.8955L92.3823 33.9658L94.187 35.6768L96.3315 36.9893L96.519 37.0947L96.6597 37.2588L98.4058 39.1807L100.269 40.8916L102.296 42.4385L102.39 42.5088L104.359 44.2666L104.394 44.3018L104.441 44.3369L106.222 46.1885L108.132 47.7471L110.277 49.3057L110.406 49.3877L110.511 49.5049L112.281 51.4736L112.375 51.5791L112.445 51.6846L113.757 53.7939L112.89 54.3213L112.55 54.6611L111.484 55.7041L111.296 55.5166L111.214 55.376L109.984 53.4072L108.402 51.6611L106.363 50.1729L106.328 50.1494L106.304 50.1143L104.253 48.4502L104.183 48.3916L104.125 48.333L102.367 46.5049L100.386 44.7471V44.7354L98.3706 43.2236L98.312 43.1768L98.2651 43.1299L96.3198 41.3369L96.2729 41.29L96.2378 41.2432L94.5854 39.4268L92.4878 38.1494L92.3589 38.0674L92.2417 37.9619L90.4604 36.2627L88.3394 34.6924L88.2222 34.6104L88.1284 34.5049L86.4058 32.665L84.3901 31.1299V31.1182L82.2925 29.5479V29.5361L80.1831 27.9307L80.019 27.8135L79.9019 27.6494L78.437 25.7627L76.48 24.5791L75.2261 24.0283L73.9956 25.1533L73.6675 25.458L73.2339 25.5283L70.7495 25.9268L68.4292 26.8877L68.2183 26.9697L67.9956 26.9932L65.3472 27.2275H65.2886L62.6519 27.3682H62.6167L59.98 27.4502H59.8394L59.7104 27.4385L57.1558 27.0518L54.6714 27.0869H54.5542L54.4253 27.0635L51.812 26.665L51.6714 26.6416L51.5425 26.5947L49.1636 25.7275L46.6206 25.1768L46.3042 25.1064L46.0464 24.9072L44.6519 23.8643L43.3042 24.3564L41.8862 25.915L40.7729 27.8486L40.1987 28.8213L39.1089 28.54L39.0151 28.5166L39.3784 27.0635V27.0283L38.1714 26.3369L39.3667 24.2861L39.4487 24.1572L39.5542 24.04L41.3472 22.083L41.5933 21.8018L41.9331 21.6846L44.3823 20.7822L45.144 20.501L45.7886 20.9814L47.5815 22.3174L49.8784 22.8213L50.0659 22.8682L52.4097 23.7119L54.7886 24.0752L57.2847 24.0518H57.4019L57.519 24.0752L59.98 24.4385L62.4995 24.3682L65.0776 24.2393L67.4917 24.0166L69.7886 23.0908L69.9526 23.0322L70.1167 22.9971L72.3081 22.6338L73.9253 21.1572L74.6519 20.501L75.5308 20.8877Z" fill="black"/>
<path d="M38.7505 26.0103L40.9302 26.7954L41.1763 26.8892L41.3755 27.0532L43.1685 28.5181L45.3013 29.5142L47.7271 30.2173H47.7153L50.2466 30.897L52.7661 31.5532L53.0825 31.6353L53.3286 31.8345L55.6138 33.6626L55.7544 34.0845L56.5864 36.5923L56.8208 37.2603L56.4341 37.8696L55.0396 40.0845L54.9458 40.2368L54.8169 40.3657L52.9771 42.1587L52.0161 41.1626L51.9458 41.1743L50.4458 41.3384V41.2329L50.3638 40.5063L50.8911 40.0024L52.6021 38.3149L53.5161 36.8735L53.0356 35.4321L51.6997 34.3774L49.4849 33.7915H49.4731L46.9302 33.1118H46.9185L46.9067 33.1001L44.3521 32.3735L44.2349 32.3384L44.1294 32.2915L41.7388 31.1665L41.563 31.0845L41.4224 30.9673L39.6646 29.5259L38.4341 29.0806L37.0513 30.0063L35.2349 31.7759L35.1294 31.8696L35.0239 31.9399L32.8794 33.3579L31.0513 35.0571L29.1177 36.8501L29.106 36.8384L27.2661 38.6665L27.1372 38.7954L26.9849 38.8892L24.9106 40.1196L23.3755 42.0063L23.2466 42.1587L23.0825 42.2759L21.0317 43.7173L19.2036 45.5103L19.0981 45.6157L18.981 45.6978L16.9536 47.0103L15.4536 48.9321L15.3481 49.0728L15.2192 49.1782L13.1567 50.8423L11.2349 52.4829L9.54736 54.3345L8.59814 55.5298L7.60205 54.7212L7.10986 56.0688L6.91064 55.9985L4.94189 55.2837L6.25439 53.6431L7.27393 52.3774L7.30908 52.3306L7.34424 52.2954L9.11377 50.3735L9.23096 50.2563L11.2349 48.5337L11.2583 48.522L11.27 48.4985L13.1802 46.9517L14.7388 44.9712L14.8911 44.772L15.1021 44.6431L17.2349 43.2368L19.0044 41.5142L19.0864 41.4438L19.1802 41.3735L21.1724 39.9556L22.7427 38.0337L22.9185 37.8345L23.1411 37.6938L25.2856 36.3931L27.0435 34.6821L27.0552 34.6587L27.0786 34.647L29.0122 32.854L30.9575 31.061L31.0396 30.979L33.2192 29.5259L35.0474 27.7798L35.1528 27.686L35.2583 27.604L38.0356 25.7524L38.7505 26.0103Z" fill="black"/>
<path d="M61.6328 13.5234L64.2578 13.8633L64.3984 13.8867L64.5391 13.9336L67.0234 14.7891L69.5195 15.6211H69.543L69.5547 15.6328L72.0508 16.5352L72.3203 16.6406L72.543 16.8398L74.5117 18.6094L74.6758 18.7617L74.793 18.9492L76.0703 21.1055L74.957 21.7617L74.8633 21.9258L74.043 23.1797L73.9609 23.1328L73.668 22.9336L73.4922 22.6406L72.3203 20.6719L70.75 19.2539L68.5586 18.457V18.4688L66.0742 17.625L63.7188 16.8164L61.4102 16.5117L58.9492 16.6992L58.9609 16.7109L56.3477 16.9805L56.3359 16.9688L54.0508 17.2266L51.9648 18.4102L51.9062 18.4336L51.8477 18.4688L49.6328 19.4531L47.9102 20.8711L46.4453 22.7812L45.3203 21.9141L44.2422 22.9688L44.1836 22.9102L43.2812 21.9844L44.0664 20.9531L45.625 18.9258L45.7305 18.7852L45.8711 18.668L47.8867 17.0273L48.0391 16.8984L48.2148 16.8164L50.5352 15.7617L52.8203 14.4844L53.0781 14.332L53.3828 14.2969L56.0312 13.9922H56.0547L58.668 13.7227H58.7031L61.3281 13.5234L61.4805 13.5117L61.6328 13.5234Z" fill="black"/>
<path d="M61.5918 71.3403V71.3755L61.6973 73.9185L61.709 74.0239L61.6973 74.1411L61.4277 76.6138L61.6738 79.1099V79.2036L61.7793 81.8403L61.791 81.9341L61.7793 82.0161L61.5801 84.6528L61.5684 87.0786L61.7559 89.7153L61.7676 89.7856L61.7559 89.8677L61.6855 92.5044V92.5747L61.6738 92.6333L61.3926 95.0708L61.791 97.4966L61.8145 97.6606L61.8027 97.8247L61.6621 100.356L61.8379 102.922L61.8496 103.145L61.8027 103.368L61.5566 104.411L60.0918 104.071L58.627 103.719L58.8379 102.875L58.6738 100.473L58.6621 100.391L58.6738 100.297L58.8027 97.8247L58.3926 95.3403L58.3574 95.1294L58.3809 94.9185L58.6973 92.3638L58.7676 89.9263L58.5801 87.2896L58.5684 87.231V87.1724L58.5801 84.5356V84.4185L58.791 81.8403L58.6855 79.4028L58.4277 76.7661L58.416 76.6138L58.4277 76.4614L58.6973 73.9185L58.5918 71.5044V71.3403H61.5918Z" fill="black"/>
<path d="M80.6362 27.0635L80.73 27.2627L81.7261 28.0361L80.144 30.0518L79.9097 30.3564L79.5464 30.5088L77.1792 31.4814L74.8589 32.6768L74.7886 32.7236L74.7065 32.7471L72.2104 33.6963L72.0581 33.7549L71.8823 33.7783L69.3511 34.1064L67.6284 34.6807L67.0073 36.0283L67.1011 37.7393L68.1792 39.1689L69.187 39.6611L70.8628 40.458L69.7261 41.9229L69.5972 42.0986L68.437 41.208L67.8979 42.3564L66.5503 41.7236L66.2222 41.5596L65.9995 41.2666L64.4292 39.1689L64.1597 38.8057L64.1362 38.3604L63.9956 35.8291L63.9722 35.4541L64.1362 35.1143L65.1909 32.8408L65.4722 32.2549L66.0815 32.0439L68.5776 31.2119L68.7183 31.1768L68.8589 31.1533L71.3081 30.8135L73.5698 29.958L75.8433 28.7979L75.8901 28.7744L75.9487 28.751L78.0229 27.8721L79.3706 26.1846L79.5698 25.9268L79.8628 25.7744L79.9448 25.7275L80.6362 27.0635Z" fill="black"/>
<path d="M76.8955 61.9287L77.0127 61.9873L78.3369 61.7881L78.7354 64.3193L78.7705 64.5537L78.7354 64.7764L78.3369 67.4014L78.3252 67.5186L78.2783 67.6357L77.4932 70.0967L77.3174 70.6357L76.8252 70.9287L74.5049 72.2881L74.001 72.5928L73.415 72.4639L70.9893 71.9131L68.5635 71.9951L68.5752 72.0068L65.9268 72.1592H65.7744L63.2314 72.0186L60.6533 72.1826L60.6064 72.1943H58.0283L55.5205 72.0654L52.9541 72.2412L52.8135 72.2529L52.6611 72.2295L50.1416 71.9131L47.7158 72.124L47.5752 72.1357L47.4346 72.124L44.8447 71.8545L44.3057 71.8076L43.9189 71.4092L42.0322 69.4639L41.5518 68.9834L41.6104 68.3037L41.8096 65.7959L41.376 63.3115L41.3057 62.9131L41.4463 62.5264L41.8682 61.4014L44.6807 62.4561L44.3994 63.1943L44.7861 65.4561L44.8213 65.6318L44.8096 65.8193L44.6455 67.8584L45.6885 68.9248L47.6104 69.1123L50.0947 68.9131L50.2471 68.9014L50.3994 68.9248L52.9307 69.2295L55.3916 69.0654H55.5674L58.1689 69.1943H60.4658L63.126 69.0303L63.208 69.0186L63.3018 69.0303L65.833 69.1475L68.4111 69.0068H68.4346L71.0713 68.9131L71.2705 68.9014L71.458 68.9482L73.4854 69.4053L74.7979 68.6201L75.3838 66.8389L75.7236 64.5537L75.3721 62.2451L75.29 61.7529L75.5244 61.3193L75.5713 61.2256L76.8955 61.9287Z" fill="black"/>
<path d="M75.2275 73.8364V74.0591L75.0752 76.5669L75.2979 79.1216L75.3096 79.1802V79.2505L75.333 81.8872V81.9692L75.3213 82.0513L75.0635 84.5122L75.0752 87.02L75.4619 89.563L75.4736 89.6567V89.7505L75.5439 92.3989V92.5864L75.5088 92.7739L74.9697 95.0825L75.3799 97.4146L75.415 97.5786L75.4033 97.7544L75.2627 100.297L75.415 102.852L75.4385 103.168L75.333 103.461L75.0869 104.153L73.6689 103.637L72.2627 103.133L72.415 102.723L72.2627 100.403V100.227L72.4033 97.7427L71.9697 95.2935L71.9111 94.9888L71.9814 94.6958L72.5439 92.27L72.4736 89.8208L72.1104 87.395L72.0869 87.2896V87.1841L72.0635 84.5474V84.4653L72.0752 84.3833L72.333 81.7466L72.3096 79.3911L72.0869 76.7427L72.0752 76.6372L72.0869 76.5317L72.2275 73.9302L72.0166 71.5747L72.0049 71.5161V71.3521L73.5049 71.3403H74.7236L75.0049 71.3052L75.2275 73.8364Z" fill="black"/>
<path d="M70.4536 40.0039L71.4028 41.1523L71.3325 41.2227L69.6216 42.6406L68.063 44.5625L67.9692 44.668L67.8755 44.75L65.8716 46.4609L65.813 46.5078L65.7427 46.5547L63.5747 48.043L63.5044 48.0898L63.4224 48.1367L61.1021 49.3672L60.4341 49.7188L59.7661 49.4023L57.4692 48.3242L57.4341 48.3008L57.3989 48.2891L55.0669 47.0234L54.8794 46.9062L52.7583 45.3008L52.5591 45.1484L51.1294 43.0039L49.3364 41.6328L49.3013 41.6094L49.2778 41.5859L48.7622 41.1523L49.7349 40.0039L50.7075 38.8672L51.2231 39.3008L51.2114 39.3125L53.1567 40.7656L53.356 40.918L53.4966 41.1406L54.7622 43.0625L56.6021 44.4453L58.7466 45.6055L60.3521 46.3555L61.9224 45.5352L63.9497 44.1406L65.8364 42.5234L67.395 40.6367L67.4771 40.5312L67.5942 40.4492L69.4106 38.9141L69.4927 38.8555L70.4536 40.0039Z" fill="black"/>
</svg>
