<svg width="120" height="120" viewBox="0 0 120 120" fill="none" xmlns="http://www.w3.org/2000/svg">
<path d="M37.9492 26.0234L40.5391 26.2812L40.6562 26.293L40.7734 26.3281L43.3164 27.0078L43.4336 27.043L45.9648 28.168L46.1289 28.2383L46.2578 28.3438L47.5264 29.293L47.6035 29.2344L49.6543 27.5586L50.0293 27.2539L50.5098 27.2305L53.1582 27.0664L53.3574 27.0547L53.5684 27.1016L56.0996 27.6523L56.2402 27.6875L56.3809 27.7461L58.7949 28.8008L58.9238 28.8477L59.041 28.9297L61.2324 30.4414L61.3965 30.5469L61.5254 30.6992L62.6973 32.0703L64.2207 31.2617L64.6191 31.0508L65.0762 31.0977L67.7246 31.3672L67.8652 31.3789L68.0059 31.4258L70.5254 32.1758L70.8652 32.2695L71.123 32.5156L73.0449 34.3203L73.1504 34.4258L73.2441 34.543L74.5098 36.3477L76.1504 37.0273L78.5762 37.5078L78.8926 37.5781L79.1621 37.7656L81.2715 39.2773L81.541 39.4531L81.6934 39.7344L83.0293 41.9961L83.0762 42.0781L83.0967 42.125L83.5234 42.3262L85.832 43.4277L85.9727 43.498L86.1016 43.5918L88.1992 45.1738L88.4102 45.3379L88.5508 45.5488L90.0156 47.7988L90.2031 48.0801L90.25 48.4199L90.5107 50.3701L92.209 51.3389L92.3965 51.4443L92.5488 51.5967L94.3418 53.46L94.5293 53.6475L94.6348 53.8818L95.7129 56.2959L95.9238 56.7412L95.8066 57.2334L95.6504 57.9482L97.3652 59.5645L97.4473 59.6348L97.5176 59.7168L99.1348 61.7676L99.1934 61.8379L99.2402 61.9199L100.623 64.1699L100.682 64.2754L100.729 64.3691L101.76 66.8066L101.807 66.9238L101.842 67.0527L102.428 69.584L103.377 71.8691L103.424 72.0098L104.162 74.5527L104.186 74.5996L104.807 77.084H104.818L105.592 79.6152L105.615 79.6855L105.627 79.7559L106.143 82.3105H106.154L106.729 84.8887V84.9238L106.74 84.959L107.209 87.5605L107.256 87.8418L107.197 88.123L106.693 90.5723L106.67 90.6543L106.646 90.748L106.241 91.9551L106.639 92.0762V92.0879L106.053 94.0449L105.647 93.7715L105.592 93.9473L104.174 93.4902L103.963 93.4199L104.147 92.8389L104.119 92.8311L104.014 92.7725L101.939 91.6006L99.6309 90.792V90.8037L97.0645 90.0889H97.0527L97.0293 90.0771L94.5098 89.3154L94.4512 89.3037L94.4043 89.2803L92.1074 88.3779L89.6465 88.0264H89.6113L89.5879 88.0146L87.0098 87.5342V87.5459L84.4199 87.1123L81.9004 86.9248L81.8418 86.9131H81.7832L79.3223 86.5146L76.6855 86.3389L74.1309 86.1865L71.6582 86.3154L69.0918 86.6904L69.0449 86.7021H68.9863L66.3613 86.9014L66.3496 86.8896L63.8301 87.1943L63.8418 87.2061L61.2754 87.5576L58.7793 88.1318L58.6855 88.1553H58.5918L56.1074 88.3779L53.7285 89.1396L53.7168 89.1279L51.3027 90.0303L51.1504 90.0889L50.9863 90.1123L48.4668 90.4404L46.041 91.167L45.9473 91.2021L45.8418 91.2139L43.3574 91.5889L40.8496 92.3037L40.5918 92.374L40.3223 92.3506L37.8145 92.1631L35.3066 92.4326L35.2012 92.4443H35.1074L32.4707 92.3623H32.4004L32.3418 92.3506L29.7168 92.0459H29.6348L29.5645 92.0225L26.9863 91.4365L26.8809 91.4131L26.7754 91.3779L24.3027 90.4287L24.1152 90.3584L23.9629 90.2412L21.959 88.7998L19.627 87.7334L19.3105 87.5928L19.0996 87.335L17.377 85.2842L17.3418 85.249L17.3184 85.2139L15.7598 83.1045H15.748L14.0957 81.124L13.9434 80.96L13.8613 80.749L12.8184 78.2881L12.7246 78.0654L12.7012 77.8193L12.5137 75.2646L11.8691 72.8506L11.8223 72.6514V72.4287L11.8926 69.9795L11.6348 67.3311L11.6113 67.0615L11.6699 66.8037L12.3379 64.2373L12.8418 61.9756L12.8076 61.7822L11.0312 60.5918L10.8906 60.5098L10.7852 60.3926L8.92188 58.4941L8.82812 58.3887L8.74609 58.2832L7.29297 56.127L7.03516 55.752V55.2949L7.01172 52.7988L7 52.3301L7.26953 51.9434L8.67578 49.8691L8.76953 49.7168L8.89844 49.6113L10.832 47.8066L11.0312 47.6191L11.2773 47.5137L12.6602 46.9395H12.6484L12.4258 46.6465L10.9023 44.4785L10.75 44.2676L10.6797 44.0215L9.95312 41.502L9.87109 41.1973L9.91797 40.8809L10.2812 38.3145L10.3047 38.1387L10.375 37.9746L11.3242 35.5605L11.4062 35.3379L11.5703 35.1504L13.2461 33.1465L13.3281 33.041L13.4219 32.959L15.4375 31.2715L15.4844 31.2246L15.543 31.1777L17.7227 29.666L17.9453 29.5137L18.2148 29.4434L20.7812 28.7871L20.8281 28.7754H20.8633L23.4297 28.2598L23.5234 28.248L23.6289 28.2363L26.4414 28.0605L26.6289 28.084L29.2539 28.5645L29.5469 28.623L29.8047 28.7871L31.1113 29.6396L32.0664 28.5898L32.1133 28.5195L32.1836 28.4609L34.1758 26.7031L34.5273 26.3984L34.9844 26.3398L37.6094 26.0234L37.7852 26L37.9492 26.0234ZM39.4805 55.1953H39.4688L36.9492 55.2305L34.4531 55.6992L31.957 56.1797L29.5195 56.8359L27.1992 57.8438L27.1055 57.8906L27.0117 57.9141L24.6094 58.6055L22.4531 59.6953L20.2734 61.1016L20.1562 61.1719L20.0391 61.2305L17.5664 62.2383L17.332 62.332L17.0625 62.3438L15.8115 62.4004L15.2559 64.9287V64.9639L15.2441 64.9873L14.6465 67.2842L14.8809 69.6865L14.8926 69.7803V69.874L14.8223 72.2881L15.4434 74.6318L15.4785 74.7725L15.4902 74.9131L15.6777 77.3389L16.5332 79.3779L18.1152 81.2529L18.1621 81.3232L19.6738 83.3506L21.1738 85.1436L23.3066 86.1162L23.4473 86.1748L23.5645 86.2568L25.5801 87.6982L27.7715 88.542L30.1621 89.0693L32.5879 89.3623L35.0957 89.4326L37.6035 89.1631L37.7324 89.1514L37.873 89.1631L40.2871 89.3389L42.584 88.6826L42.6777 88.6592L42.7715 88.6475L45.291 88.2607L47.7285 87.5459L47.834 87.5107L47.9512 87.4873L50.4121 87.1475L52.7559 86.292L52.8262 86.2686L55.3457 85.4834L55.498 85.4248L55.6621 85.4131L58.252 85.167L60.6895 84.6279L60.7598 84.6045H60.8184L63.4316 84.2295H63.4551L66.0801 83.9131L66.1035 83.9014H66.1387L68.7168 83.7139L71.2832 83.3506L71.3535 83.3389H71.4238L74.0488 83.1865H74.2246L76.873 83.3506L79.5098 83.5146L79.5801 83.5264H79.6504L82.2168 83.9365L84.7715 84.1357H84.8418L84.9004 84.1475L87.502 84.5811H87.5137L87.5254 84.5928L90.127 85.0615H90.1152L91.8369 85.3125L91.582 84.7266L91.5469 84.6445L91.5234 84.5508L90.7734 82.0312L90.1055 79.7695L88.5938 77.9297L88.4766 77.7891L88.3945 77.625L87.3164 75.3867L85.7812 73.4062H85.7695L84.1289 71.6367L82.2188 69.8203V69.8086L80.3203 68.1797L78.2344 66.7617L78.1055 66.6797L78 66.5742L76.3359 64.8398L74.1562 63.7969L74.0742 63.7617L74.0039 63.7148L71.8359 62.332L69.5508 61.3594L69.4688 61.3125L69.375 61.2656L67.2656 60L64.8984 59.3203H64.8867L62.3555 58.582L62.2383 58.5586L62.1328 58.5L59.8828 57.4336L57.4336 56.8359L54.8672 56.2031V56.1914L52.3945 55.7227V55.7344L49.8281 55.3242L47.3438 55.3125H47.332L44.6836 55.2656H44.6367L42.0352 55.125L39.4805 55.1953ZM92.2793 61.9795L91.2705 62.5801L91.8145 63.2129L91.8379 63.2363L93.502 65.2637L93.5371 65.3105L93.5723 65.3457L95.0957 67.5137L95.1543 67.584L95.2012 67.666L96.4434 69.998L96.502 70.1035L96.5488 70.2207L97.3574 72.6113L98.5527 74.8496L98.623 74.9902L99.6309 77.4277V77.4629L99.6426 77.4863L100.533 79.9004L101.553 82.3379L101.588 82.4082L101.611 82.4902L102.326 84.8691L103.299 87.2246L104.009 88.6885L104.197 87.7715L103.799 85.5449L103.225 82.9668L103.213 82.9551V82.9434L102.709 80.4238L101.947 77.9746L101.924 77.9043L101.291 75.3965L100.541 72.8535V72.8418L99.5918 70.5449L99.5566 70.4395L99.5215 70.3223L98.959 67.9082L97.998 65.623L96.7324 63.5605L95.2207 61.6504L94.3242 60.8086L92.2793 61.9795ZM41.2891 43.5898L41.1602 43.6484L41.0312 43.6836L38.4766 44.293L38.4062 44.3047L38.3242 44.3164L35.7461 44.6562L33.1445 45.0781L33.0039 45.1016H32.8516L30.1914 44.9844L29.5586 44.9609L29.1367 44.4805L28.877 44.1855L27.7305 45.1113L27.5312 45.2754L27.2969 45.3574L24.918 46.2246L22.7734 47.5254L22.5625 47.6543L22.3164 47.7012L19.7383 48.2637L19.5508 48.2871L17.3711 48.4746L17.1836 48.5449L14.875 49.2832L12.6719 50.1855L11.0664 51.6738L10.0117 53.2324L10.0234 54.8145L11.1602 56.4902L12.8242 58.1895L14.6641 59.4082L14.8096 59.4385L16.6875 59.3438L18.7734 58.5L20.8828 57.1523L20.9414 57.1055L21.0117 57.0703L23.3672 55.875L23.4961 55.8047L23.6367 55.7695L26.0273 55.0664L28.4414 54.0469L28.5352 54.0117L28.6406 53.9766L31.1836 53.2852L31.2422 53.2617H31.3008L33.9023 52.7578L36.5156 52.2773L36.6328 52.2539H36.7617L39.3984 52.207V52.1953L42.0352 52.125H42.0938L42.1523 52.1367L44.7891 52.2656L44.7773 52.2773L47.3789 52.3125L47.3672 52.3242L50.0273 52.3359H50.1328L50.2383 52.3594L52.8633 52.7695H52.8867L52.9102 52.7812L55.5 53.2734H55.5469L55.582 53.2852L58.1367 53.918H58.1484L60.7266 54.5508L60.8672 54.5859L61.0078 54.6562L63.293 55.7344L65.7305 56.4375H65.7188L68.2734 57.1758L68.4609 57.2227L68.6367 57.3281L70.8867 58.6641L73.1719 59.6602L73.2773 59.707L73.3828 59.7656L75.5508 61.1367L77.8594 62.25L78.0938 62.3555L78.2812 62.5547L80.0742 64.3828L82.1016 65.7773L82.2422 65.8711L84.2344 67.5938L84.293 67.6523L86.2031 69.4688L86.2383 69.4922L86.2617 69.5273L88.0664 71.4609L88.1133 71.5195L88.1602 71.5664L89.7773 73.6641L89.8711 73.7812L89.9414 73.9219L91.0312 76.1836L92.6133 78.0938L92.8125 78.3281L92.8945 78.6211L93.6445 81.1758L94.3594 83.6016L95.4023 85.9922L95.5898 86.4375L95.5752 86.5039L97.9082 87.2061H97.8965L100.327 87.8809L99.5488 86.0293L99.5254 85.959L99.502 85.877L98.7871 83.498L97.7676 81.0605L97.7559 81.0371L97.7441 81.002L96.8535 78.5762L95.9043 76.2676L94.6621 73.9238L94.6035 73.8184L94.5684 73.7129L93.7246 71.2637L92.6465 69.248L91.1816 67.1621L89.5176 65.1465V65.1348L87.8887 63.2598L87.8301 63.1895L87.7949 63.1367L86.0801 62.5654L85.8809 62.4131L83.7832 60.7959L83.6074 60.6553L83.4785 60.4795L81.9199 58.2881L81.6807 57.9492L81.2031 57.7363L81.0391 57.6426L78.8125 56.2598L78.6367 56.1543L78.5078 56.0137L76.7148 54.0801L76.6445 54.0098L76.5859 53.9277L75.2822 52.0908L73.7422 52.0215H73.5547L73.3672 51.9629L70.8828 51.1895L70.6602 51.1309L70.4844 51.002L68.2695 49.5137L68.0117 49.3379L67.8477 49.0684L66.9834 47.7256L66.8242 47.7119L64.1875 47.4893H64.1641L61.5391 47.2197L61.3281 47.1963L61.1289 47.126L58.6797 46.1182L58.5742 46.083L58.4805 46.0244L56.1953 44.6768L56.0195 44.5713L55.8672 44.4189L55.5381 44.0781L54.5176 44.5625L54.3066 44.668L54.084 44.7031L51.5293 45.043L51.4238 45.0664L51.3184 45.0547L48.6934 45.043H48.5293L48.377 45.0078L45.7871 44.4453L45.623 44.4102L45.4824 44.3398L43.0801 43.2266L42.6006 43L41.2891 43.5898ZM41.2109 59.4248L43.6953 60.3623L43.7773 60.3975L43.8594 60.4443L46.168 61.6514L46.2852 61.7217L46.3906 61.8037L48.4648 63.4326L48.6172 63.5615L48.7461 63.7256L50.3164 65.8701L50.4805 66.0928L50.5508 66.3506L50.9023 67.5928L51.957 67.3467L51.6172 69.5498L51.4062 70.9092L51.6406 73.3584L51.6641 73.6865L51.5586 74.0029L50.6797 76.4756L50.6445 76.5693L50.6094 76.6514L49.4375 79.0068L49.2969 79.2881L49.0742 79.4873L47.082 81.1982L47.0586 81.2217L47.0352 81.2334L44.9727 82.874L44.8086 83.0146L44.5977 83.0967L42.1133 84.0811L41.7969 84.21L41.457 84.1865L38.7969 84.0107L38.7266 83.999L38.6445 83.9873L36.0781 83.542L35.8672 83.5068L35.6797 83.4131L33.3359 82.2764L33.1719 82.1943L33.0312 82.0771L31.0508 80.4131L30.8984 80.2842L30.7812 80.1318L29.2812 78.0225L29.2344 77.9521L29.1992 77.8818L27.9219 75.585L27.8164 75.3857L27.7695 75.1631L27.2188 72.5732L27.1602 72.3154L27.207 72.0459L27.5703 69.4209L27.5938 69.2803L27.6406 69.1396L28.5078 66.6553L28.5781 66.4443L28.707 66.2686L30.2422 64.1475L30.3008 64.0654L30.3711 63.9834L32.1875 62.1201L32.3281 61.9561L32.5156 61.8506L34.7891 60.5615L34.9414 60.4795L35.0938 60.4209L37.5898 59.6475L37.7305 59.6006L37.8828 59.5889L40.5312 59.3311L40.8828 59.2959L41.2109 59.4248ZM38.3398 62.5537L36.125 63.2451L34.1797 64.3584L32.5742 66.0225L31.2617 67.8506L30.5234 69.9717L30.207 72.1865L30.6523 74.3193L31.8008 76.3701L33.1133 78.2334L34.8242 79.6631L36.793 80.624L39.0312 81.0107L41.3281 81.1631L43.2852 80.3779L45.1602 78.8896L46.8711 77.4131L47.8906 75.3857L48.6172 73.3115L48.4062 71.0146L48.3945 70.8389L48.418 70.6631L48.5 70.042L48.4883 70.0186L48.3828 69.6553L47.7383 67.4287L46.4141 65.6475L44.668 64.2529L42.582 63.1514L40.4492 62.3428L38.3398 62.5537ZM40.2891 66.0762L42.7383 67.1543L43.2891 67.4004L43.5234 67.9629L44.5195 70.4121L43.2188 70.9277L43.2305 70.9629V70.9863L44.7188 70.8105L44.7422 71.0098L44.7656 71.2324L44.7305 71.4434L44.2969 73.9629L44.2383 74.291L44.0508 74.5605L42.5977 76.6465L42.2695 77.1035L41.7188 77.2441L39.2695 77.8301L38.7305 77.959L38.2266 77.7129L35.9766 76.5527L35.6016 76.3652L35.3789 76.002L33.9961 73.752L33.6797 73.248L33.7969 72.6738L34.3008 70.084L34.3594 69.7559L34.5586 69.4863L36.0469 67.4473L36.3164 67.084L36.75 66.9199L39.1641 66.041L39.7383 65.8301L40.2891 66.0762ZM38.1914 69.5801L37.1719 70.9863L36.8438 72.6621L37.7109 74.0684L39.1055 74.7832L40.4531 74.4551L41.3906 73.1191L41.6836 71.4082L40.9688 69.6504L39.6211 69.0527L38.1914 69.5801ZM88.2246 54.9014L88.1426 55.0068L88.0488 55.0889L86.0332 56.7881L85.1309 57.6201L85.7988 58.5459L87.5215 59.8818L89.0684 60.3975L90.7559 59.4014H90.7676L92.4668 58.4053L92.7715 57.0576L91.998 55.3467L90.5684 53.8584L89.5605 53.2959L88.2246 54.9014ZM82.2227 46.0527L81.0742 48.0801L80.9922 48.2207L80.8867 48.3379L79.1172 50.3066L79.082 50.3301L79.0586 50.3652L78.2852 51.127L78.9883 52.1348L80.5703 53.8223L82.5977 55.0762L83.1816 55.3379L84.041 54.5381L84.0762 54.5146L84.0996 54.4912L86.0332 52.8389L87.5332 51.0459L87.5713 50.9893L87.3203 49.1699L86.1602 47.4004L84.3672 46.041L83.0547 45.4199L82.2227 46.0527ZM89.2656 51.1504L89.1836 51.2441L89.1484 51.2793L89.1855 51.3037L89.1973 51.3154L89.2441 51.3037L89.3496 51.2686L89.4316 51.126L89.2656 51.1504ZM73.3633 41.1611L71.9805 43.4111L71.9453 43.458L71.9102 43.5166L70.3281 45.6377L70.1758 45.8369L69.9648 45.9775L69.5908 46.2314L70.2148 47.2051L71.9727 48.3887L74.082 49.0332L76.0488 49.1201L76.9375 48.2324L78.5664 46.416L79.7852 44.2949L79.9375 44.0254L80.1836 43.8379L80.4697 43.6221L80.3809 43.4141L79.2676 41.5156L77.6855 40.3906L75.4707 39.957L75.3184 39.9336L75.1777 39.875L74.4736 39.582L73.3633 41.1611ZM23.9336 31.2246L21.4492 31.7168L21.4375 31.7051L19.1992 32.2793L17.2891 33.6152L15.4258 35.1973L14.0195 36.8848L13.2109 38.9355L12.918 40.9863L13.4805 42.9316L14.6523 44.6074L16.4336 45.5098L16.6211 45.5215H16.7617L19.2461 45.2988L21.4492 44.8184L23.4883 43.5879L23.6172 43.5176L23.7461 43.4707L26.0195 42.627L27.1064 41.7568L27.2383 41.293L27.9648 38.7383H27.9766L28.6562 36.207L29.2539 33.6992L29.2656 33.6758V33.6406L29.6523 32.2744L28.4102 31.459L26.2773 31.0605L23.9336 31.2246ZM63.5293 35.0117L62.0293 36.793L62.0059 36.8164L61.9824 36.8516L60.248 38.6797L58.9473 40.8008L58.9238 40.8359L58.8887 40.8828L57.9238 42.2148L59.8633 43.3643L62.0781 44.2549L64.4688 44.501H64.457L66.543 44.6768L68.0664 43.6338L69.4258 41.8174L70.8203 39.5908L70.8672 39.5205L71.9639 37.9443L70.8887 36.4062L69.3184 34.9414L67.3027 34.332L65.2051 34.1211L63.5293 35.0117ZM35.8047 29.2695L34.293 30.5938L32.7812 32.2461L32.1602 34.4609L31.5625 36.957L31.5508 36.9805V37.0039L30.8477 39.5469V39.5703L30.3438 41.3164L30.9531 42.0195L32.793 42.0898L35.2891 41.7031H35.3242L37.9258 41.3398L40.1406 40.8008L42.1064 39.9268L42.0957 39.7227L42.0723 39.3125L42.2598 38.9492L43.4902 36.5938L44.3457 34.2969L44.3809 34.2148L44.4277 34.1328L45.6582 31.8008L45.7051 31.6953L45.7158 31.6797L44.5938 30.8398L42.3789 29.8555L40.1289 29.2578L37.8203 29.0117L35.8047 29.2695ZM51.1777 30.1836L49.6309 31.4492L48.248 33.2773L47.123 35.4102L46.2324 37.8242L46.1973 37.9062L46.1504 37.9883L45.1074 39.957L45.1543 40.8828L46.5723 41.5391L48.8574 42.043L51.2012 42.0547L53.4277 41.75L55.1387 40.9297L56.4629 39.125L57.7871 36.9688L57.8691 36.8398L57.9746 36.7344L59.791 34.7891L60.4238 34.0273L59.3926 32.8086L57.4004 31.4492L55.3145 30.5469L53.1348 30.0664L51.1777 30.1836Z" fill="black"/>
</svg>
