<svg width="120" height="120" viewBox="0 0 120 120" fill="none" xmlns="http://www.w3.org/2000/svg">
<path d="M31.0008 29.8334L29.6908 29.1028L29.5123 29.4228L29.5014 29.7891L31.0008 29.8334ZM30.9257 32.373L32.1505 33.239L32.4117 32.8695L32.4251 32.4173L30.9257 32.373ZM29.3956 34.5371L28.1708 33.6711L28.1464 33.7057L28.124 33.7415L29.3956 34.5371ZM27.9926 36.7795L29.1951 37.6761L29.2317 37.627L29.2642 37.5751L27.9926 36.7795ZM26.4137 38.8971L27.536 39.8923L27.5782 39.8447L27.6162 39.7937L26.4137 38.8971ZM24.6612 40.8735L23.5389 39.8783L23.4665 39.96L23.4066 40.0513L24.6612 40.8735ZM23.2125 43.0841L21.9579 42.262L21.8859 42.3717L21.8342 42.4923L23.2125 43.0841ZM22.173 45.5049L20.7947 44.9131L20.7889 44.9264L20.7835 44.9398L22.173 45.5049ZM21.1851 47.9338L19.7956 47.3687L19.7838 47.3977L19.7732 47.4272L21.1851 47.9338ZM20.2852 50.4419L18.8733 49.9353L18.7676 50.2299L18.7885 50.5421L20.2852 50.4419ZM20.4638 53.1086L21.9633 53.1472L21.9651 53.0777L21.9604 53.0083L20.4638 53.1086ZM20.3962 55.7296L18.8967 55.6909L18.8923 55.8633L18.927 56.0321L20.3962 55.7296ZM20.9266 58.3048L22.4163 58.1296L22.4088 58.0655L22.3957 58.0023L20.9266 58.3048ZM21.2379 60.952L19.7482 61.1273L19.7758 61.3617L19.874 61.5764L21.2379 60.952ZM22.3365 63.3518L20.9726 63.9762L21.0553 64.157L21.1824 64.3099L22.3365 63.3518ZM24.0046 65.3611L22.8505 66.3193L22.985 66.4813L23.1589 66.6L24.0046 65.3611ZM26.1638 66.835L27.1988 65.7493L27.1103 65.665L27.0095 65.5961L26.1638 66.835ZM28.0999 68.6806L27.065 69.7663L27.2325 69.926L27.4403 70.0278L28.0999 68.6806ZM30.5067 69.859L31.5833 68.8145L31.4012 68.6268L31.1663 68.5118L30.5067 69.859ZM32.359 71.7682L31.2824 72.8126L31.3192 72.8505L31.3585 72.8857L32.359 71.7682ZM34.3356 73.5377L35.5918 72.718L35.4836 72.5521L35.3361 72.4201L34.3356 73.5377ZM35.7892 75.7654L34.533 76.5851L34.645 76.7567L34.799 76.8921L35.7892 75.7654ZM37.8098 77.5411L38.9881 76.6129L38.9032 76.5051L38.8 76.4144L37.8098 77.5411ZM39.4302 79.5981L38.2518 80.5263L38.318 80.6102L38.3953 80.6839L39.4302 79.5981ZM41.3334 81.4119L40.2986 82.4977L40.3716 82.5674L40.4534 82.6266L41.3334 81.4119ZM43.4645 82.9557L44.4142 81.7946L44.3801 81.7668L44.3445 81.741L43.4645 82.9557ZM45.5265 84.6422L44.5769 85.8033L44.7415 85.938L44.937 86.0215L45.5265 84.6422ZM47.9705 85.6867L48.6015 84.3259L48.5809 84.3163L48.56 84.3074L47.9705 85.6867ZM50.3634 86.7962L51.1105 85.4956L51.0537 85.4629L50.9943 85.4354L50.3634 86.7962ZM52.67 88.1213L51.9228 89.4219L52.0715 89.5073L52.2356 89.557L52.67 88.1213ZM55.2295 88.8957L56.4616 88.0403L56.1638 87.6113L55.6639 87.46L55.2295 88.8957ZM31.0495 29.7461L29.7395 29.0155L29.6908 29.1028L31.0008 29.8334L32.3108 30.564L32.3595 30.4767L31.0495 29.7461ZM31.0008 29.8334L29.5014 29.7891L29.4264 32.3287L30.9257 32.373L32.4251 32.4173L32.5001 29.8778L31.0008 29.8334ZM30.9257 32.373L29.7009 31.507L28.1708 33.6711L29.3956 34.5371L30.6204 35.4031L32.1505 33.239L30.9257 32.373ZM29.3956 34.5371L28.124 33.7415L26.721 35.9838L27.9926 36.7795L29.2642 37.5751L30.6672 35.3327L29.3956 34.5371ZM27.9926 36.7795L26.7901 35.8828L25.2111 38.0005L26.4137 38.8971L27.6162 39.7937L29.1951 37.6761L27.9926 36.7795ZM26.4137 38.8971L25.2913 37.9019L23.5389 39.8783L24.6612 40.8735L25.7835 41.8686L27.536 39.8923L26.4137 38.8971ZM24.6612 40.8735L23.4066 40.0513L21.9579 42.262L23.2125 43.0841L24.4671 43.9063L25.9158 41.6956L24.6612 40.8735ZM23.2125 43.0841L21.8342 42.4923L20.7947 44.9131L22.173 45.5049L23.5513 46.0968L24.5908 43.676L23.2125 43.0841ZM22.173 45.5049L20.7835 44.9398L19.7956 47.3687L21.1851 47.9338L22.5745 48.499L23.5624 46.0701L22.173 45.5049ZM21.1851 47.9338L19.7732 47.4272L18.8733 49.9353L20.2852 50.4419L21.697 50.9485L22.5969 48.4404L21.1851 47.9338ZM20.2852 50.4419L18.7885 50.5421L18.9671 53.2088L20.4638 53.1086L21.9604 53.0083L21.7818 50.3417L20.2852 50.4419ZM20.4638 53.1086L18.9643 53.0699L18.8967 55.6909L20.3962 55.7296L21.8957 55.7682L21.9633 53.1472L20.4638 53.1086ZM20.3962 55.7296L18.927 56.0321L19.4574 58.6074L20.9266 58.3048L22.3957 58.0023L21.8654 55.427L20.3962 55.7296ZM20.9266 58.3048L19.4368 58.4801L19.7482 61.1273L21.2379 60.952L22.7277 60.7768L22.4163 58.1296L20.9266 58.3048ZM21.2379 60.952L19.874 61.5764L20.9726 63.9762L22.3365 63.3518L23.7004 62.7275L22.6018 60.3277L21.2379 60.952ZM22.3365 63.3518L21.1824 64.3099L22.8505 66.3193L24.0046 65.3611L25.1587 64.403L23.4906 62.3937L22.3365 63.3518ZM24.0046 65.3611L23.1589 66.6L25.3181 68.0739L26.1638 66.835L27.0095 65.5961L24.8503 64.1223L24.0046 65.3611ZM26.1638 66.835L25.1288 67.9208L27.065 69.7663L28.0999 68.6806L29.1349 67.5948L27.1988 65.7493L26.1638 66.835ZM28.0999 68.6806L27.4403 70.0278L29.8471 71.2062L30.5067 69.859L31.1663 68.5118L28.7595 67.3334L28.0999 68.6806ZM30.5067 69.859L29.4301 70.9034L31.2824 72.8126L32.359 71.7682L33.4356 70.7237L31.5833 68.8145L30.5067 69.859ZM32.359 71.7682L31.3585 72.8857L33.3351 74.6552L34.3356 73.5377L35.3361 72.4201L33.3595 70.6506L32.359 71.7682ZM34.3356 73.5377L33.0793 74.3574L34.533 76.5851L35.7892 75.7654L37.0454 74.9456L35.5918 72.718L34.3356 73.5377ZM35.7892 75.7654L34.799 76.8921L36.8196 78.6679L37.8098 77.5411L38.8 76.4144L36.7794 74.6386L35.7892 75.7654ZM37.8098 77.5411L36.6315 78.4693L38.2518 80.5263L39.4302 79.5981L40.6085 78.6699L38.9881 76.6129L37.8098 77.5411ZM39.4302 79.5981L38.3953 80.6839L40.2986 82.4977L41.3334 81.4119L42.3682 80.326L40.465 78.5122L39.4302 79.5981ZM41.3334 81.4119L40.4534 82.6266L42.5845 84.1705L43.4645 82.9557L44.3445 81.741L42.2134 80.1971L41.3334 81.4119ZM43.4645 82.9557L42.5149 84.1168L44.5769 85.8033L45.5265 84.6422L46.4762 83.4811L44.4142 81.7946L43.4645 82.9557ZM45.5265 84.6422L44.937 86.0215L47.381 87.066L47.9705 85.6867L48.56 84.3074L46.116 83.2629L45.5265 84.6422ZM47.9705 85.6867L47.3395 87.0476L49.7324 88.1571L50.3634 86.7962L50.9943 85.4354L48.6015 84.3259L47.9705 85.6867ZM50.3634 86.7962L49.6162 88.0969L51.9228 89.4219L52.67 88.1213L53.4172 86.8206L51.1105 85.4956L50.3634 86.7962ZM52.67 88.1213L52.2356 89.557L54.795 90.3314L55.2295 88.8957L55.6639 87.46L53.1044 86.6856L52.67 88.1213ZM55.2295 88.8957L53.9973 89.7511L54.2868 90.1682L55.519 89.3128L56.7512 88.4573L56.4616 88.0403L55.2295 88.8957Z" fill="black"/>
<path d="M36.0345 106.943L36.3982 108.399L36.6273 108.341L36.8277 108.217L36.0345 106.943ZM38.2033 105.592L37.8795 104.128L37.6284 104.183L37.4101 104.319L38.2033 105.592ZM40.7876 105.021L41.1115 106.486L41.1496 106.477L41.1873 106.467L40.7876 105.021ZM43.3369 104.316L43.1555 102.827L43.0448 102.841L42.9373 102.871L43.3369 104.316ZM45.9667 103.996L45.9707 102.496L45.8777 102.496L45.7853 102.507L45.9667 103.996ZM48.6116 104.003L48.6076 105.503L48.778 105.504L48.9441 105.466L48.6116 104.003ZM51.1817 103.419L51.5142 104.882L51.9133 104.791L52.211 104.51L51.1817 103.419ZM53.0412 101.665L54.0705 102.756L54.3043 102.535L54.4272 102.239L53.0412 101.665ZM54.0321 99.2707L55.418 99.8443L55.4343 99.8051L55.4483 99.7649L54.0321 99.2707ZM54.9087 96.7587L56.3249 97.2529L56.4185 96.9847L56.4076 96.7009L54.9087 96.7587ZM54.8055 94.084L53.3127 93.9375L53.3027 94.0394L53.3067 94.1418L54.8055 94.084ZM55.063 91.4611L53.6581 90.9354L53.5893 91.1192L53.5701 91.3146L55.063 91.4611ZM55.9871 88.9914L56.2337 87.5118L55.0151 87.3087L54.5822 88.4657L55.9871 88.9914ZM58.6298 89.4318L59.0155 87.9822L58.9466 87.9639L58.8763 87.9522L58.6298 89.4318ZM61.1742 90.1088L61.7468 88.7224L61.6554 88.6847L61.5599 88.6593L61.1742 90.1088ZM63.6212 91.1196L64.2436 89.7548L64.2189 89.7436L64.1939 89.7333L63.6212 91.1196ZM66.0345 92.2202L66.9858 91.0604L66.8347 90.9365L66.6569 90.8554L66.0345 92.2202ZM68.1101 93.9227L67.1588 95.0824L67.3742 95.2591L67.6386 95.3466L68.1101 93.9227ZM70.6517 94.7642L71.3828 93.4545L71.2584 93.3851L71.1232 93.3403L70.6517 94.7642ZM72.9549 96.05L72.2237 97.3598L72.4678 97.496L72.7445 97.5352L72.9549 96.05ZM75.5226 96.4138L75.3122 97.899L75.613 97.9416L75.9067 97.8638L75.5226 96.4138ZM78.0564 95.7427L78.4405 97.1927L79.2248 96.985L79.4802 96.2149L78.0564 95.7427ZM78.8958 93.2119L77.6029 92.4513L77.5221 92.5886L77.472 92.7398L78.8958 93.2119ZM80.2684 90.8787L79.3777 89.6718L79.131 89.8539L78.9755 90.1181L80.2684 90.8787ZM82.4108 89.2977L81.8326 87.9136L81.6657 87.9833L81.5202 88.0907L82.4108 89.2977ZM84.8549 88.2767L84.4319 86.8376L84.3528 86.8608L84.2767 86.8926L84.8549 88.2767ZM87.4139 87.5245L87.8369 88.9636L88.046 88.9022L88.229 88.7837L87.4139 87.5245ZM89.6448 86.0803L88.8314 84.8199L88.8296 84.8211L89.6448 86.0803ZM91.8593 84.6512L91.0853 83.3663L91.0655 83.3783L91.046 83.3909L91.8593 84.6512ZM94.1413 83.2767L94.9152 84.5616L95.1472 84.4219L95.3157 84.2098L94.1413 83.2767ZM95.8033 81.1849L94.723 80.1442L94.6734 80.1958L94.6289 80.2518L95.8033 81.1849ZM97.6318 79.2869L98.712 80.3276L98.7646 80.273L98.8115 80.2134L97.6318 79.2869ZM99.2688 77.2025L100.448 78.129L100.566 77.9791L100.643 77.8046L99.2688 77.2025ZM100.332 74.7772L101.705 75.3793L101.721 75.3429L101.735 75.3058L100.332 74.7772ZM101.257 72.3194L102.661 72.8479L102.669 72.827L102.676 72.8059L101.257 72.3194ZM102.129 69.7755L103.548 70.2621L103.705 69.8043L103.565 69.3411L102.129 69.7755ZM101.341 67.1691L99.8408 67.1725L99.8413 67.3927L99.9051 67.6035L101.341 67.1691ZM101.335 64.4946L102.835 64.4911L102.834 64.3176L102.794 64.1486L101.335 64.4946ZM100.724 61.9179L102.184 61.572L102.152 61.4392L102.097 61.3144L100.724 61.9179ZM99.6531 59.4812L98.2359 59.9728L98.2556 60.0297L98.2798 60.0848L99.6531 59.4812ZM98.7953 57.0086L97.36 57.4443L97.3686 57.4724L97.3782 57.5002L98.7953 57.0086ZM98.0227 54.4632L99.458 54.0275L99.3864 53.7915L99.2429 53.5908L98.0227 54.4632ZM96.4805 52.3062L97.7007 51.4338L97.6839 51.4102L97.6661 51.3872L96.4805 52.3062ZM94.8645 50.2212L93.6017 51.0307L93.6379 51.0871L93.679 51.1402L94.8645 50.2212ZM93.4434 48.004L94.7063 47.1946L94.6375 47.0873L94.5517 46.9932L93.4434 48.004ZM91.6809 46.0714L92.7893 45.0607L92.7164 44.9808L92.6329 44.9122L91.6809 46.0714ZM89.6376 44.3934L90.5896 43.2342L90.4803 43.1445L90.3562 43.0767L89.6376 44.3934ZM87.2996 43.1175L86.3955 44.3144L86.4839 44.3811L86.581 44.4342L87.2996 43.1175ZM85.1934 41.5267L86.0975 40.3297L85.991 40.2493L85.8721 40.189L85.1934 41.5267ZM82.8384 40.3318L81.9861 41.5662L82.0694 41.6237L82.1597 41.6695L82.8384 40.3318ZM80.6566 38.8255L81.5088 37.5911L81.3745 37.4984L81.2235 37.4367L80.6566 38.8255ZM78.2103 37.8269L78.7772 36.4382L78.7363 36.4214L78.6944 36.4072L78.2103 37.8269ZM75.7137 36.9757L76.1978 35.5559L76.097 35.5216L75.9924 35.5018L75.7137 36.9757ZM73.1252 36.4863L73.4039 35.0124L73.3815 35.0082L73.359 35.0047L73.1252 36.4863ZM70.5296 36.0768L70.7634 34.5952L70.6725 34.5808L70.5805 34.5777L70.5296 36.0768ZM67.9111 35.988L67.9619 34.4889L67.8578 34.4853L67.7542 34.4962L67.9111 35.988ZM65.2862 36.2641L65.1293 34.7723L65.0487 34.7808L64.9695 34.7979L65.2862 36.2641ZM62.7023 36.8222L62.3856 35.356L62.3604 35.3614L62.3354 35.3677L62.7023 36.8222ZM60.1462 37.4671L60.4919 38.9267L60.5025 38.9242L60.5131 38.9215L60.1462 37.4671ZM57.5795 38.075L57.2337 36.6154L57.2237 36.6178L57.5795 38.075ZM55.0164 38.7008L55.2529 40.182L55.313 40.1724L55.3722 40.158L55.0164 38.7008ZM52.3886 39.1203L52.1521 37.6391L52.0398 37.657L51.9315 37.6917L52.3886 39.1203ZM49.8734 39.9251L49.4162 38.4965L49.3521 38.517L49.2901 38.5432L49.8734 39.9251ZM47.4253 40.9585L47.8817 42.3873L47.9462 42.3667L48.0086 42.3404L47.4253 40.9585ZM44.9067 41.7629L44.5806 43.227L44.9766 43.3152L45.3631 43.1918L44.9067 41.7629ZM42.7922 41.2918L41.3059 41.089L41.1194 42.4559L42.466 42.7559L42.7922 41.2918ZM43.1381 38.756L41.7672 38.1471L41.6807 38.342L41.6519 38.5532L43.1381 38.756ZM44.2047 36.3546L42.8657 35.6786L42.8489 35.7118L42.8339 35.7457L44.2047 36.3546ZM45.394 33.9989L46.7331 34.6749L46.7571 34.6273L46.7777 34.5782L45.394 33.9989ZM46.4165 31.5566L47.8002 32.1359L47.8025 32.1303L46.4165 31.5566ZM47.4296 29.1089L48.8156 29.6826L48.8295 29.6489L48.8418 29.6145L47.4296 29.1089ZM48.3264 26.6038L49.7386 27.1094L49.8051 26.9238L49.8213 26.7273L48.3264 26.6038ZM48.5462 23.9441L50.0411 24.0676L50.0452 24.0179L50.046 23.968L48.5462 23.9441ZM48.5879 21.3186L50.0877 21.3425L50.0881 21.3174L50.0877 21.2923L48.5879 21.3186ZM48.5418 18.6936L50.0416 18.6673L50.0391 18.5282L50.0112 18.392L48.5418 18.6936ZM48.014 16.122L49.4834 15.8205L49.4536 15.6754L49.3961 15.539L48.014 16.122ZM46.9942 13.7046L48.3762 13.1215L48.3259 13.0022L48.2558 12.8933L46.9942 13.7046ZM45.5788 11.5036L46.8405 10.6923L46.8087 10.6429L46.7731 10.5961L45.5788 11.5036ZM43.9722 9.38911L45.1665 8.48162L44.9979 8.25971L44.7608 8.11318L43.9722 9.38911ZM41.7127 7.99255L42.5014 6.71661L42.4646 6.69388L42.4266 6.67329L41.7127 7.99255ZM39.3979 6.73998L40.1117 5.42073L39.9916 5.35574L39.8618 5.31352L39.3979 6.73998ZM36.8921 5.92506L37.356 4.49859L37.2629 4.46833L37.1667 4.45041L36.8921 5.92506ZM34.3006 5.44243L34.5753 3.96779L34.4972 3.95324L34.4179 3.94703L34.3006 5.44243ZM31.6479 5.23435L31.7652 3.73894L31.4365 3.71316L31.1273 3.82758L31.6479 5.23435ZM29.1536 6.15742L28.633 4.75066L28.6017 4.76225L28.5709 4.77521L29.1536 6.15742ZM26.7172 7.18447L26.1345 5.80226L25.5975 6.02864L25.3542 6.55821L26.7172 7.18447ZM25.6021 9.61145L26.9549 10.2596L26.9601 10.2487L26.9651 10.2377L25.6021 9.61145ZM24.4644 11.9861L25.6913 12.849L25.7632 12.7469L25.8172 12.6342L24.4644 11.9861ZM22.9346 14.161L23.9413 15.2729L24.0653 15.1607L24.1615 15.024L22.9346 14.161ZM20.9578 15.9507L21.8039 17.1893L21.8885 17.1315L21.9646 17.0627L20.9578 15.9507ZM18.7557 17.4549L19.1921 18.89L19.4119 18.8232L19.6017 18.6935L18.7557 17.4549ZM16.1978 18.2327L16.6282 19.6696L16.6342 19.6678L16.1978 18.2327ZM13.7402 18.9689L13.7796 20.4683L13.9793 20.4631L14.1706 20.4058L13.7402 18.9689ZM11.0843 19.0386L11.045 17.5391L10.7627 17.5465L10.5025 17.656L11.0843 19.0386ZM8.63711 20.0685L8.05524 18.686L7.92474 18.7409L7.80681 18.8193L8.63711 20.0685ZM6.43685 21.5309L5.60656 20.2816L5.35128 20.4513L5.18303 20.7075L6.43685 21.5309ZM4.99526 23.7261L6.24302 24.5587L6.24908 24.5495L4.99526 23.7261ZM3.51177 25.9494L2.26404 25.1168L2.0173 25.4866L2.01188 25.9311L3.51177 25.9494ZM3.47924 28.6201L1.97935 28.6019L1.97841 28.6791L1.9854 28.7559L3.47924 28.6201ZM3.7168 31.2336L2.22296 31.3694L2.24826 31.6477L2.3721 31.8983L3.7168 31.2336ZM4.88347 33.5939L3.53876 34.2586L4.16621 35.528L5.46963 34.9747L4.88347 33.5939ZM7.00172 32.6947L7.58788 34.0754L7.6027 34.0691L7.61737 34.0625L7.00172 32.6947ZM9.41791 31.6072L10.0336 32.975L10.0748 32.9564L10.1149 32.9354L9.41791 31.6072ZM11.7572 30.3795L11.1642 29.0017L11.1112 29.0245L11.0602 29.0513L11.7572 30.3795ZM14.1913 29.3318L14.7844 30.7096L14.9303 30.6468L15.0598 30.5548L14.1913 29.3318ZM16.3642 27.7888L15.6959 26.4459L15.5912 26.498L15.4957 26.5658L16.3642 27.7888ZM18.7302 26.6114L18.1452 25.2301L18.103 25.248L18.0619 25.2685L18.7302 26.6114ZM21.1674 25.5792L21.7524 26.9605L21.7645 26.9554L21.7766 26.95L21.1674 25.5792ZM23.5813 24.5065L24.1905 25.8773L24.2155 25.8662L24.2401 25.8541L23.5813 24.5065ZM25.9495 23.3489L26.6082 24.6965L26.6286 24.6866L26.6486 24.6761L25.9495 23.3489ZM27.4527 22.5571L28.8825 22.1036L28.3403 20.3942L26.7537 21.23L27.4527 22.5571ZM35.9375 106.968L36.3012 108.423L36.3982 108.399L36.0345 106.943L35.6708 105.488L35.5738 105.512L35.9375 106.968ZM36.0345 106.943L36.8277 108.217L38.9964 106.866L38.2033 105.592L37.4101 104.319L35.2414 105.67L36.0345 106.943ZM38.2033 105.592L38.5271 107.057L41.1115 106.486L40.7876 105.021L40.4638 103.556L37.8795 104.128L38.2033 105.592ZM40.7876 105.021L41.1873 106.467L43.7365 105.762L43.3369 104.316L42.9373 102.871L40.388 103.575L40.7876 105.021ZM43.3369 104.316L43.5183 105.805L46.1481 105.485L45.9667 103.996L45.7853 102.507L43.1555 102.827L43.3369 104.316ZM45.9667 103.996L45.9626 105.496L48.6076 105.503L48.6116 104.003L48.6157 102.503L45.9707 102.496L45.9667 103.996ZM48.6116 104.003L48.9441 105.466L51.5142 104.882L51.1817 103.419L50.8492 101.956L48.2791 102.54L48.6116 104.003ZM51.1817 103.419L52.211 104.51L54.0705 102.756L53.0412 101.665L52.0119 100.574L50.1524 102.328L51.1817 103.419ZM53.0412 101.665L54.4272 102.239L55.418 99.8443L54.0321 99.2707L52.6461 98.6971L51.6552 101.091L53.0412 101.665ZM54.0321 99.2707L55.4483 99.7649L56.3249 97.2529L54.9087 96.7587L53.4924 96.2644L52.6158 98.7765L54.0321 99.2707ZM54.9087 96.7587L56.4076 96.7009L56.3044 94.0262L54.8055 94.084L53.3067 94.1418L53.4098 96.8165L54.9087 96.7587ZM54.8055 94.084L56.2984 94.2305L56.5558 91.6076L55.063 91.4611L53.5701 91.3146L53.3127 93.9375L54.8055 94.084ZM55.063 91.4611L56.4678 91.9868L57.3919 89.5171L55.9871 88.9914L54.5822 88.4657L53.6581 90.9354L55.063 91.4611ZM55.9871 88.9914L55.7405 90.471L58.3832 90.9114L58.6298 89.4318L58.8763 87.9522L56.2337 87.5118L55.9871 88.9914ZM58.6298 89.4318L58.244 90.8814L60.7884 91.5584L61.1742 90.1088L61.5599 88.6593L59.0155 87.9822L58.6298 89.4318ZM61.1742 90.1088L60.6015 91.4952L63.0485 92.506L63.6212 91.1196L64.1939 89.7333L61.7468 88.7224L61.1742 90.1088ZM63.6212 91.1196L62.9988 92.4844L65.4121 93.585L66.0345 92.2202L66.6569 90.8554L64.2436 89.7548L63.6212 91.1196ZM66.0345 92.2202L65.0832 93.3799L67.1588 95.0824L68.1101 93.9227L69.0614 92.7629L66.9858 91.0604L66.0345 92.2202ZM68.1101 93.9227L67.6386 95.3466L70.1801 96.1882L70.6517 94.7642L71.1232 93.3403L68.5816 92.4987L68.1101 93.9227ZM70.6517 94.7642L69.9205 96.074L72.2237 97.3598L72.9549 96.05L73.6861 94.7403L71.3828 93.4545L70.6517 94.7642ZM72.9549 96.05L72.7445 97.5352L75.3122 97.899L75.5226 96.4138L75.733 94.9286L73.1653 94.5649L72.9549 96.05ZM75.5226 96.4138L75.9067 97.8638L78.4405 97.1927L78.0564 95.7427L77.6724 94.2927L75.1386 94.9638L75.5226 96.4138ZM78.0564 95.7427L79.4802 96.2149L80.3195 93.6841L78.8958 93.2119L77.472 92.7398L76.6327 95.2705L78.0564 95.7427ZM78.8958 93.2119L80.1886 93.9725L81.5612 91.6393L80.2684 90.8787L78.9755 90.1181L77.6029 92.4513L78.8958 93.2119ZM80.2684 90.8787L81.159 92.0857L83.3015 90.5046L82.4108 89.2977L81.5202 88.0907L79.3777 89.6718L80.2684 90.8787ZM82.4108 89.2977L82.989 90.6818L85.4331 89.6608L84.8549 88.2767L84.2767 86.8926L81.8326 87.9136L82.4108 89.2977ZM84.8549 88.2767L85.2779 89.7158L87.8369 88.9636L87.4139 87.5245L86.9908 86.0854L84.4319 86.8376L84.8549 88.2767ZM87.4139 87.5245L88.229 88.7837L90.4599 87.3395L89.6448 86.0803L88.8296 84.8211L86.5987 86.2654L87.4139 87.5245ZM89.6448 86.0803L90.4581 87.3406L92.6726 85.9116L91.8593 84.6512L91.046 83.3909L88.8314 84.8199L89.6448 86.0803ZM91.8593 84.6512L92.6332 85.9361L94.9152 84.5616L94.1413 83.2767L93.3673 81.9918L91.0853 83.3663L91.8593 84.6512ZM94.1413 83.2767L95.3157 84.2098L96.9777 82.118L95.8033 81.1849L94.6289 80.2518L92.9668 82.3436L94.1413 83.2767ZM95.8033 81.1849L96.8835 82.2256L98.712 80.3276L97.6318 79.2869L96.5515 78.2462L94.723 80.1442L95.8033 81.1849ZM97.6318 79.2869L98.8115 80.2134L100.448 78.129L99.2688 77.2025L98.0891 76.276L96.4521 78.3605L97.6318 79.2869ZM99.2688 77.2025L100.643 77.8046L101.705 75.3793L100.332 74.7772L98.9578 74.1751L97.8949 76.6004L99.2688 77.2025ZM100.332 74.7772L101.735 75.3058L102.661 72.8479L101.257 72.3194L99.8533 71.7908L98.9279 74.2486L100.332 74.7772ZM101.257 72.3194L102.676 72.8059L103.548 70.2621L102.129 69.7755L100.711 69.289L99.8382 71.8328L101.257 72.3194ZM102.129 69.7755L103.565 69.3411L102.776 66.7347L101.341 67.1691L99.9051 67.6035L100.694 70.2099L102.129 69.7755ZM101.341 67.1691L102.841 67.1657L102.835 64.4911L101.335 64.4946L99.8346 64.498L99.8408 67.1725L101.341 67.1691ZM101.335 64.4946L102.794 64.1486L102.184 61.572L100.724 61.9179L99.2644 62.2638L99.8751 64.8405L101.335 64.4946ZM100.724 61.9179L102.097 61.3144L101.026 58.8777L99.6531 59.4812L98.2798 60.0848L99.3507 62.5214L100.724 61.9179ZM99.6531 59.4812L101.07 58.9897L100.213 56.517L98.7953 57.0086L97.3782 57.5002L98.2359 59.9728L99.6531 59.4812ZM98.7953 57.0086L100.231 56.5729L99.458 54.0275L98.0227 54.4632L96.5874 54.8989L97.36 57.4443L98.7953 57.0086ZM98.0227 54.4632L99.2429 53.5908L97.7007 51.4338L96.4805 52.3062L95.2603 53.1786L96.8025 55.3356L98.0227 54.4632ZM96.4805 52.3062L97.6661 51.3872L96.0501 49.3023L94.8645 50.2212L93.679 51.1402L95.2949 53.2251L96.4805 52.3062ZM94.8645 50.2212L96.1274 49.4118L94.7063 47.1946L93.4434 48.004L92.1805 48.8134L93.6017 51.0307L94.8645 50.2212ZM93.4434 48.004L94.5517 46.9932L92.7893 45.0607L91.6809 46.0714L90.5726 47.0822L92.3351 49.0148L93.4434 48.004ZM91.6809 46.0714L92.6329 44.9122L90.5896 43.2342L89.6376 44.3934L88.6857 45.5526L90.729 47.2306L91.6809 46.0714ZM89.6376 44.3934L90.3562 43.0767L88.0181 41.8008L87.2996 43.1175L86.581 44.4342L88.9191 45.7101L89.6376 44.3934ZM87.2996 43.1175L88.2036 41.9205L86.0975 40.3297L85.1934 41.5267L84.2894 42.7236L86.3955 44.3144L87.2996 43.1175ZM85.1934 41.5267L85.8721 40.189L83.5171 38.9941L82.8384 40.3318L82.1597 41.6695L84.5147 42.8644L85.1934 41.5267ZM82.8384 40.3318L83.6906 39.0974L81.5088 37.5911L80.6566 38.8255L79.8043 40.0598L81.9861 41.5662L82.8384 40.3318ZM80.6566 38.8255L81.2235 37.4367L78.7772 36.4382L78.2103 37.8269L77.6434 39.2157L80.0897 40.2142L80.6566 38.8255ZM78.2103 37.8269L78.6944 36.4072L76.1978 35.5559L75.7137 36.9757L75.2297 38.3954L77.7263 39.2467L78.2103 37.8269ZM75.7137 36.9757L75.9924 35.5018L73.4039 35.0124L73.1252 36.4863L72.8466 37.9602L75.4351 38.4496L75.7137 36.9757ZM73.1252 36.4863L73.359 35.0047L70.7634 34.5952L70.5296 36.0768L70.2959 37.5585L72.8915 37.968L73.1252 36.4863ZM70.5296 36.0768L70.5805 34.5777L67.9619 34.4889L67.9111 35.988L67.8602 37.4872L70.4788 37.576L70.5296 36.0768ZM67.9111 35.988L67.7542 34.4962L65.1293 34.7723L65.2862 36.2641L65.4431 37.7558L68.068 37.4798L67.9111 35.988ZM65.2862 36.2641L64.9695 34.7979L62.3856 35.356L62.7023 36.8222L63.019 38.2883L65.6029 37.7302L65.2862 36.2641ZM62.7023 36.8222L62.3354 35.3677L59.7792 36.0127L60.1462 37.4671L60.5131 38.9215L63.0693 38.2766L62.7023 36.8222ZM60.1462 37.4671L59.8004 36.0075L57.2337 36.6154L57.5795 38.075L57.9252 39.5346L60.4919 38.9267L60.1462 37.4671ZM57.5795 38.075L57.2237 36.6178L54.6607 37.2436L55.0164 38.7008L55.3722 40.158L57.9352 39.5322L57.5795 38.075ZM55.0164 38.7008L54.78 37.2195L52.1521 37.6391L52.3886 39.1203L52.6251 40.6015L55.2529 40.182L55.0164 38.7008ZM52.3886 39.1203L51.9315 37.6917L49.4162 38.4965L49.8734 39.9251L50.3305 41.3538L52.8458 40.5489L52.3886 39.1203ZM49.8734 39.9251L49.2901 38.5432L46.842 39.5765L47.4253 40.9585L48.0086 42.3404L50.4567 41.3071L49.8734 39.9251ZM47.4253 40.9585L46.9689 39.5296L44.4504 40.334L44.9067 41.7629L45.3631 43.1918L47.8817 42.3873L47.4253 40.9585ZM44.9067 41.7629L45.2329 40.2988L43.1183 39.8277L42.7922 41.2918L42.466 42.7559L44.5806 43.227L44.9067 41.7629ZM42.7922 41.2918L44.2784 41.4946L44.6243 38.9588L43.1381 38.756L41.6519 38.5532L41.3059 41.089L42.7922 41.2918ZM43.1381 38.756L44.509 39.3649L45.5756 36.9635L44.2047 36.3546L42.8339 35.7457L41.7672 38.1471L43.1381 38.756ZM44.2047 36.3546L45.5437 37.0306L46.7331 34.6749L45.394 33.9989L44.055 33.3229L42.8657 35.6786L44.2047 36.3546ZM45.394 33.9989L46.7777 34.5782L47.8002 32.1359L46.4165 31.5566L45.0329 30.9773L44.0104 33.4196L45.394 33.9989ZM46.4165 31.5566L47.8025 32.1303L48.8156 29.6826L47.4296 29.1089L46.0436 28.5353L45.0306 30.983L46.4165 31.5566ZM47.4296 29.1089L48.8418 29.6145L49.7386 27.1094L48.3264 26.6038L46.9142 26.0983L46.0174 28.6034L47.4296 29.1089ZM48.3264 26.6038L49.8213 26.7273L50.0411 24.0676L48.5462 23.9441L47.0512 23.8206L46.8315 26.4803L48.3264 26.6038ZM48.5462 23.9441L50.046 23.968L50.0877 21.3425L48.5879 21.3186L47.0881 21.2948L47.0463 23.9202L48.5462 23.9441ZM48.5879 21.3186L50.0877 21.2923L50.0416 18.6673L48.5418 18.6936L47.042 18.72L47.0881 21.345L48.5879 21.3186ZM48.5418 18.6936L50.0112 18.392L49.4834 15.8205L48.014 16.122L46.5446 16.4236L47.0724 18.9952L48.5418 18.6936ZM48.014 16.122L49.3961 15.539L48.3762 13.1215L46.9942 13.7046L45.6121 14.2876L46.632 16.7051L48.014 16.122ZM46.9942 13.7046L48.2558 12.8933L46.8405 10.6923L45.5788 11.5036L44.3171 12.3149L45.7325 14.5159L46.9942 13.7046ZM45.5788 11.5036L46.7731 10.5961L45.1665 8.48162L43.9722 9.38911L42.7778 10.2966L44.3844 12.4111L45.5788 11.5036ZM43.9722 9.38911L44.7608 8.11318L42.5014 6.71661L41.7127 7.99255L40.9241 9.26848L43.1835 10.665L43.9722 9.38911ZM41.7127 7.99255L42.4266 6.67329L40.1117 5.42073L39.3979 6.73998L38.684 8.05923L40.9989 9.3118L41.7127 7.99255ZM39.3979 6.73998L39.8618 5.31352L37.356 4.49859L36.8921 5.92506L36.4282 7.35152L38.934 8.16644L39.3979 6.73998ZM36.8921 5.92506L37.1667 4.45041L34.5753 3.96779L34.3006 5.44243L34.026 6.91708L36.6174 7.3997L36.8921 5.92506ZM34.3006 5.44243L34.4179 3.94703L31.7652 3.73894L31.6479 5.23435L31.5306 6.72975L34.1833 6.93784L34.3006 5.44243ZM31.6479 5.23435L31.1273 3.82758L28.633 4.75066L29.1536 6.15742L29.6742 7.56418L32.1685 6.64111L31.6479 5.23435ZM29.1536 6.15742L28.5709 4.77521L26.1345 5.80226L26.7172 7.18447L27.2999 8.56667L29.7362 7.53963L29.1536 6.15742ZM26.7172 7.18447L25.3542 6.55821L24.2391 8.98519L25.6021 9.61145L26.9651 10.2377L28.0802 7.81072L26.7172 7.18447ZM25.6021 9.61145L24.2494 8.96333L23.1117 11.3379L24.4644 11.9861L25.8172 12.6342L26.9549 10.2596L25.6021 9.61145ZM24.4644 11.9861L23.2375 11.1231L21.7077 13.298L22.9346 14.161L24.1615 15.024L25.6913 12.849L24.4644 11.9861ZM22.9346 14.161L21.9279 13.049L19.9511 14.8387L20.9578 15.9507L21.9646 17.0627L23.9413 15.2729L22.9346 14.161ZM20.9578 15.9507L20.1117 14.7121L17.9096 16.2163L18.7557 17.4549L19.6017 18.6935L21.8039 17.1893L20.9578 15.9507ZM18.7557 17.4549L18.3193 16.0198L15.7614 16.7976L16.1978 18.2327L16.6342 19.6678L19.1921 18.89L18.7557 17.4549ZM16.1978 18.2327L15.7674 16.7958L13.3098 17.5319L13.7402 18.9689L14.1706 20.4058L16.6282 19.6696L16.1978 18.2327ZM13.7402 18.9689L13.7009 17.4694L11.045 17.5391L11.0843 19.0386L11.1237 20.5381L13.7796 20.4683L13.7402 18.9689ZM11.0843 19.0386L10.5025 17.656L8.05524 18.686L8.63711 20.0685L9.21897 21.4511L11.6662 20.4211L11.0843 19.0386ZM8.63711 20.0685L7.80681 18.8193L5.60656 20.2816L6.43685 21.5309L7.26715 22.7801L9.4674 21.3178L8.63711 20.0685ZM6.43685 21.5309L5.18303 20.7075L3.74144 22.9028L4.99526 23.7261L6.24908 24.5495L7.69068 22.3543L6.43685 21.5309ZM4.99526 23.7261L3.74754 22.8936L2.26404 25.1168L3.51177 25.9494L4.7595 26.7819L6.24299 24.5587L4.99526 23.7261ZM3.51177 25.9494L2.01188 25.9311L1.97935 28.6019L3.47924 28.6201L4.97913 28.6384L5.01166 25.9676L3.51177 25.9494ZM3.47924 28.6201L1.9854 28.7559L2.22296 31.3694L3.7168 31.2336L5.21064 31.0978L4.97308 28.4843L3.47924 28.6201ZM3.7168 31.2336L2.3721 31.8983L3.53876 34.2586L4.88347 33.5939L6.22817 32.9293L5.06151 30.5689L3.7168 31.2336ZM4.88347 33.5939L5.46963 34.9747L7.58788 34.0754L7.00172 32.6947L6.41556 31.3139L4.29731 32.2132L4.88347 33.5939ZM7.00172 32.6947L7.61737 34.0625L10.0336 32.975L9.41791 31.6072L8.80226 30.2393L6.38608 31.3268L7.00172 32.6947ZM9.41791 31.6072L10.1149 32.9354L12.4542 31.7078L11.7572 30.3795L11.0602 29.0513L8.72088 30.279L9.41791 31.6072ZM11.7572 30.3795L12.3503 31.7573L14.7844 30.7096L14.1913 29.3318L13.5983 27.9541L11.1642 29.0017L11.7572 30.3795ZM14.1913 29.3318L15.0598 30.5548L17.2327 29.0118L16.3642 27.7888L15.4957 26.5658L13.3228 28.1089L14.1913 29.3318ZM16.3642 27.7888L17.0325 29.1317L19.3984 27.9543L18.7302 26.6114L18.0619 25.2685L15.6959 26.4459L16.3642 27.7888ZM18.7302 26.6114L19.3151 27.9926L21.7524 26.9605L21.1674 25.5792L20.5825 24.198L18.1452 25.2301L18.7302 26.6114ZM21.1674 25.5792L21.7766 26.95L24.1905 25.8773L23.5813 24.5065L22.9722 23.1358L20.5583 24.2085L21.1674 25.5792ZM23.5813 24.5065L24.2401 25.8541L26.6082 24.6965L25.9495 23.3489L25.2908 22.0013L22.9226 23.1589L23.5813 24.5065ZM25.9495 23.3489L26.6486 24.6761L28.1518 23.8842L27.4527 22.5571L26.7537 21.23L25.2505 22.0218L25.9495 23.3489ZM27.4527 22.5571L26.0229 23.0106L26.0397 23.0634L27.4695 22.6098L28.8993 22.1563L28.8825 22.1036L27.4527 22.5571Z" fill="black"/>
<path d="M44.4168 54.6522L45.8548 55.0791L45.9239 54.8464L45.916 54.6038L44.4168 54.6522ZM43.6953 57.0825L42.2574 56.6556L42.2434 56.7027L42.2325 56.7505L43.6953 57.0825ZM43.1075 59.6728L41.6447 59.3408L41.5765 59.6411L41.6322 59.9439L43.1075 59.6728ZM43.5874 62.2845L42.1121 62.5556L42.1304 62.6552L42.1619 62.7514L43.5874 62.2845ZM44.4013 64.7696L42.9758 65.2365L42.9866 65.2694L42.9989 65.3018L44.4013 64.7696ZM45.3343 67.2285L43.9318 67.7606L43.9883 67.9094L44.0747 68.043L45.3343 67.2285ZM46.7678 69.445L45.5082 70.2596L45.5852 70.3786L45.6831 70.4811L46.7678 69.445ZM48.5903 71.3529L49.6807 70.3228L49.6749 70.3168L48.5903 71.3529ZM50.396 73.2644L51.4954 72.2439L51.4864 72.2343L50.396 73.2644ZM52.2082 75.2167L51.1088 76.2372L51.2894 76.4317L51.5257 76.5524L52.2082 75.2167ZM54.5901 76.4337L55.469 75.2182L55.3754 75.1505L55.2726 75.0979L54.5901 76.4337ZM56.7243 77.9769L55.8454 79.1924L55.9522 79.2696L56.0708 79.327L56.7243 77.9769ZM59.0981 79.126L59.9267 77.8756L59.8425 77.8199L59.7517 77.7759L59.0981 79.126ZM61.3126 80.5934L60.484 81.8438L60.6121 81.9287L60.7548 81.9859L61.3126 80.5934ZM63.7649 81.5757L63.2071 82.9681L63.2403 82.9814L63.2741 82.9931L63.7649 81.5757ZM66.2587 82.4391L65.7679 83.8566L65.8229 83.8756L65.8791 83.8903L66.2587 82.4391ZM68.8097 83.1064L69.4463 81.7483L69.3221 81.69L69.1893 81.6553L68.8097 83.1064ZM71.2412 84.2462L70.6046 85.6044L70.9943 85.7871L71.4216 85.7353L71.2412 84.2462ZM73.8618 83.9289L74.0422 85.418L74.2893 85.388L74.5135 85.2799L73.8618 83.9289ZM76.0946 82.8518L76.7463 84.2029L77.3268 83.9229L77.5233 83.309L76.0946 82.8518ZM76.8837 80.3859L78.3124 80.8431L78.321 80.8161L78.3286 80.7888L76.8837 80.3859ZM44.4136 54.5522L42.9144 54.6006L42.9176 54.7006L44.4168 54.6522L45.916 54.6038L45.9128 54.5038L44.4136 54.5522ZM44.4168 54.6522L42.9788 54.2253L42.2574 56.6556L43.6953 57.0825L45.1333 57.5094L45.8548 55.0791L44.4168 54.6522ZM43.6953 57.0825L42.2325 56.7505L41.6447 59.3408L43.1075 59.6728L44.5703 60.0048L45.1581 57.4145L43.6953 57.0825ZM43.1075 59.6728L41.6322 59.9439L42.1121 62.5556L43.5874 62.2845L45.0627 62.0134L44.5828 59.4017L43.1075 59.6728ZM43.5874 62.2845L42.1619 62.7514L42.9758 65.2365L44.4013 64.7696L45.8268 64.3028L45.0129 61.8176L43.5874 62.2845ZM44.4013 64.7696L42.9989 65.3018L43.9318 67.7606L45.3343 67.2285L46.7367 66.6963L45.8038 64.2375L44.4013 64.7696ZM45.3343 67.2285L44.0747 68.043L45.5082 70.2596L46.7678 69.445L48.0273 68.6305L46.5938 66.4139L45.3343 67.2285ZM46.7678 69.445L45.6831 70.4811L47.5056 72.389L48.5903 71.3529L49.6749 70.3168L47.8524 68.4089L46.7678 69.445ZM48.5903 71.3529L47.4999 72.3829L49.3056 74.2944L50.396 73.2644L51.4864 72.2343L49.6807 70.3228L48.5903 71.3529ZM50.396 73.2644L49.2966 74.2849L51.1088 76.2372L52.2082 75.2167L53.3076 74.1962L51.4954 72.2439L50.396 73.2644ZM52.2082 75.2167L51.5257 76.5524L53.9076 77.7694L54.5901 76.4337L55.2726 75.0979L52.8907 73.8809L52.2082 75.2167ZM54.5901 76.4337L53.7112 77.6492L55.8454 79.1924L56.7243 77.9769L57.6032 76.7614L55.469 75.2182L54.5901 76.4337ZM56.7243 77.9769L56.0708 79.327L58.4445 80.4761L59.0981 79.126L59.7517 77.7759L57.3779 76.6268L56.7243 77.9769ZM59.0981 79.126L58.2696 80.3764L60.484 81.8438L61.3126 80.5934L62.1411 79.343L59.9267 77.8756L59.0981 79.126ZM61.3126 80.5934L60.7548 81.9859L63.2071 82.9681L63.7649 81.5757L64.3226 80.1832L61.8703 79.201L61.3126 80.5934ZM63.7649 81.5757L63.2741 82.9931L65.7679 83.8566L66.2587 82.4391L66.7495 81.0217L64.2556 80.1583L63.7649 81.5757ZM66.2587 82.4391L65.8791 83.8903L68.4301 84.5576L68.8097 83.1064L69.1893 81.6553L66.6383 80.988L66.2587 82.4391ZM68.8097 83.1064L68.173 84.4646L70.6046 85.6044L71.2412 84.2462L71.8779 82.888L69.4463 81.7483L68.8097 83.1064ZM71.2412 84.2462L71.4216 85.7353L74.0422 85.418L73.8618 83.9289L73.6815 82.4397L71.0609 82.7571L71.2412 84.2462ZM73.8618 83.9289L74.5135 85.2799L76.7463 84.2029L76.0946 82.8518L75.4429 81.5008L73.2101 82.5778L73.8618 83.9289ZM76.0946 82.8518L77.5233 83.309L78.3124 80.8431L76.8837 80.3859L75.4551 79.9287L74.666 82.3947L76.0946 82.8518ZM76.8837 80.3859L78.3286 80.7888L78.6151 79.7614L77.1702 79.3585L75.7253 78.9556L75.4389 79.983L76.8837 80.3859Z" fill="black"/>
<path d="M26.8096 8.36929L26.1555 9.71915L26.218 9.74942L26.283 9.7738L26.8096 8.36929ZM29.1824 9.25903L29.8221 7.90227L29.7666 7.87608L29.7091 7.85453L29.1824 9.25903ZM31.5804 10.3896L30.9407 11.7464L31.026 11.7866L31.1156 11.8158L31.5804 10.3896ZM34.097 11.2097L34.8305 9.90124L34.7019 9.82917L34.5618 9.78351L34.097 11.2097ZM36.413 12.5079L37.4545 11.4284L37.3153 11.2941L37.1465 11.1995L36.413 12.5079ZM38.3271 14.3546L39.5685 13.5126L39.4809 13.3834L39.3686 13.2751L38.3271 14.3546ZM39.7995 16.5254L41.2242 16.0562L41.1586 15.857L41.0409 15.6834L39.7995 16.5254ZM40.6321 19.0535L42.0997 19.3635L42.1832 18.9681L42.0568 18.5843L40.6321 19.0535ZM40.0789 21.6722L41.2986 22.5454L41.4815 22.2898L41.5465 21.9822L40.0789 21.6722ZM38.539 23.8231L37.3194 22.9499L37.2615 23.0307L37.2148 23.1184L38.539 23.8231ZM37.2784 26.1921L38.1577 27.4073L38.4393 27.2035L38.6025 26.8967L37.2784 26.1921ZM35.1116 27.76L35.8787 29.0491L35.9365 29.0147L35.991 28.9752L35.1116 27.76ZM32.8199 29.1238L33.0123 30.6114L33.3202 30.5716L33.587 30.4128L32.8199 29.1238ZM30.1965 29.4631L29.9893 30.9487L30.189 30.9765L30.3889 30.9507L30.1965 29.4631ZM27.591 29.0996L27.7982 27.6139L27.6889 27.5987L27.5785 27.5996L27.591 29.0996ZM24.9731 29.1213L24.9606 27.6214L24.7221 27.6234L24.496 27.6992L24.9731 29.1213ZM22.524 29.9429L22.047 28.5208L22.0214 28.5294L21.9961 28.5389L22.524 29.9429ZM20.0305 30.8806L19.5026 29.4766L19.1424 29.612L18.8919 29.9041L20.0305 30.8806ZM18.2702 32.9332L18.8696 34.3082L19.1849 34.1708L19.4089 33.9097L18.2702 32.9332ZM15.8162 34.0028L16.233 35.4437L16.3264 35.4167L16.4155 35.3779L15.8162 34.0028ZM13.2623 34.7417L12.9387 36.2064L13.3119 36.2888L13.6791 36.1826L13.2623 34.7417ZM10.6792 34.171L11.0028 32.7063L10.9787 32.701L10.9544 32.6965L10.6792 34.171ZM8.04494 33.6793L6.9665 34.7219L7.29919 35.066L7.76971 35.1538L8.04494 33.6793ZM26.7196 8.32568L26.0655 9.67554L26.1555 9.71915L26.8096 8.36929L27.4638 7.01944L27.3738 6.97583L26.7196 8.32568ZM26.8096 8.36929L26.283 9.7738L28.6558 10.6635L29.1824 9.25903L29.7091 7.85453L27.3363 6.96479L26.8096 8.36929ZM29.1824 9.25903L28.5427 10.6158L30.9407 11.7464L31.5804 10.3896L32.22 9.03283L29.8221 7.90227L29.1824 9.25903ZM31.5804 10.3896L31.1156 11.8158L33.6323 12.6359L34.097 11.2097L34.5618 9.78351L32.0451 8.96341L31.5804 10.3896ZM34.097 11.2097L33.3636 12.5181L35.6796 13.8164L36.413 12.5079L37.1465 11.1995L34.8305 9.90124L34.097 11.2097ZM36.413 12.5079L35.3715 13.5874L37.2856 15.4341L38.3271 14.3546L39.3686 13.2751L37.4545 11.4284L36.413 12.5079ZM38.3271 14.3546L37.0857 15.1966L38.5581 17.3674L39.7995 16.5254L41.0409 15.6834L39.5685 13.5126L38.3271 14.3546ZM39.7995 16.5254L38.3748 16.9946L39.2073 19.5227L40.6321 19.0535L42.0568 18.5843L41.2242 16.0562L39.7995 16.5254ZM40.6321 19.0535L39.1644 18.7435L38.6113 21.3622L40.0789 21.6722L41.5465 21.9822L42.0997 19.3635L40.6321 19.0535ZM40.0789 21.6722L38.8593 20.799L37.3194 22.9499L38.539 23.8231L39.7587 24.6963L41.2986 22.5454L40.0789 21.6722ZM38.539 23.8231L37.2148 23.1184L35.9542 25.4874L37.2784 26.1921L38.6025 26.8967L39.8632 24.5278L38.539 23.8231ZM37.2784 26.1921L36.399 24.9769L34.2323 26.5448L35.1116 27.76L35.991 28.9752L38.1577 27.4073L37.2784 26.1921ZM35.1116 27.76L34.3446 26.471L32.0529 27.8347L32.8199 29.1238L33.587 30.4128L35.8787 29.0491L35.1116 27.76ZM32.8199 29.1238L32.6275 27.6362L30.0041 27.9754L30.1965 29.4631L30.3889 30.9507L33.0123 30.6114L32.8199 29.1238ZM30.1965 29.4631L30.4038 27.9774L27.7982 27.6139L27.591 29.0996L27.3837 30.5852L29.9893 30.9487L30.1965 29.4631ZM27.591 29.0996L27.5785 27.5996L24.9606 27.6214L24.9731 29.1213L24.9856 30.6213L27.6034 30.5995L27.591 29.0996ZM24.9731 29.1213L24.496 27.6992L22.047 28.5208L22.524 29.9429L23.0011 31.365L25.4502 30.5435L24.9731 29.1213ZM22.524 29.9429L21.9961 28.5389L19.5026 29.4766L20.0305 30.8806L20.5585 32.2846L23.052 31.3469L22.524 29.9429ZM20.0305 30.8806L18.8919 29.9041L17.1316 31.9567L18.2702 32.9332L19.4089 33.9097L21.1692 31.8571L20.0305 30.8806ZM18.2702 32.9332L17.6709 31.5581L15.2168 32.6278L15.8162 34.0028L16.4155 35.3779L18.8696 34.3082L18.2702 32.9332ZM15.8162 34.0028L15.3993 32.5619L12.8454 33.3008L13.2623 34.7417L13.6791 36.1826L16.233 35.4437L15.8162 34.0028ZM13.2623 34.7417L13.5859 33.277L11.0028 32.7063L10.6792 34.171L10.3556 35.6357L12.9387 36.2064L13.2623 34.7417ZM10.6792 34.171L10.9544 32.6965L8.32018 32.2047L8.04494 33.6793L7.76971 35.1538L10.404 35.6455L10.6792 34.171ZM8.04494 33.6793L9.12338 32.6367L8.41242 31.9013L7.33398 32.9439L6.25555 33.9864L6.9665 34.7219L8.04494 33.6793Z" fill="black"/>
<path d="M62.2706 91.4779L63.6362 92.0986L63.6809 92.0002L63.7111 91.8964L62.2706 91.4779ZM61.2189 93.7917L62.532 94.5167L62.5603 94.4656L62.5845 94.4124L61.2189 93.7917ZM59.9332 96.1202L58.62 95.3952L58.5127 95.5895L58.4663 95.8067L59.9332 96.1202ZM59.3786 98.7144L57.9118 98.4008L57.896 98.4749L57.8877 98.5501L59.3786 98.7144ZM59.0934 101.303L57.6024 101.139L57.5838 101.308L57.6035 101.477L59.0934 101.303ZM59.3918 103.862L57.9019 104.036L57.9399 104.362L58.1107 104.642L59.3918 103.862ZM60.747 106.087L62.2181 105.794L62.1663 105.533L62.028 105.306L60.747 106.087ZM61.1489 108.106L61.161 109.606L62.9739 109.591L62.6201 107.813L61.1489 108.106ZM62.2985 91.3818L60.8581 90.9633L60.8302 91.0594L62.2706 91.4779L63.7111 91.8964L63.739 91.8003L62.2985 91.3818ZM62.2706 91.4779L60.9051 90.8572L59.8534 93.171L61.2189 93.7917L62.5845 94.4124L63.6362 92.0986L62.2706 91.4779ZM61.2189 93.7917L59.9058 93.0666L58.62 95.3952L59.9332 96.1202L61.2463 96.8453L62.532 94.5167L61.2189 93.7917ZM59.9332 96.1202L58.4663 95.8067L57.9118 98.4008L59.3786 98.7144L60.8455 99.0279L61.4 96.4338L59.9332 96.1202ZM59.3786 98.7144L57.8877 98.5501L57.6024 101.139L59.0934 101.303L60.5844 101.468L60.8696 98.8787L59.3786 98.7144ZM59.0934 101.303L57.6035 101.477L57.9019 104.036L59.3918 103.862L60.8817 103.688L60.5833 101.13L59.0934 101.303ZM59.3918 103.862L58.1107 104.642L59.466 106.867L60.747 106.087L62.028 105.306L60.6728 103.082L59.3918 103.862ZM60.747 106.087L59.2758 106.379L59.6778 108.399L61.1489 108.106L62.6201 107.813L62.2181 105.794L60.747 106.087ZM61.1489 108.106L61.1368 106.606L60.9674 106.607L60.9795 108.107L60.9916 109.607L61.161 109.606L61.1489 108.106Z" fill="black"/>
<path d="M93.0464 47.0532L94.1994 48.0127L94.2787 47.9173L94.3413 47.8102L93.0464 47.0532ZM94.3272 44.8623L93.1293 43.9595L93.0766 44.0295L93.0323 44.1053L94.3272 44.8623ZM95.9223 42.7459L97.1202 43.6487L97.1649 43.5894L97.2035 43.526L95.9223 42.7459ZM97.2978 40.4868L96.2627 39.4012L96.1195 39.5377L96.0166 39.7067L97.2978 40.4868ZM99.2279 38.6464L98.5883 37.2896L98.3686 37.3932L98.1927 37.5609L99.2279 38.6464ZM101.638 37.5104L101.239 36.0645L101.115 36.0988L100.998 36.1536L101.638 37.5104ZM104.171 36.811L104.074 35.3141L103.92 35.324L103.771 35.3651L104.171 36.811ZM106.824 36.6397L107.299 35.2168L107.02 35.1239L106.727 35.1428L106.824 36.6397ZM109.356 37.4847L110.305 36.3229L110.092 36.1489L109.831 36.0618L109.356 37.4847ZM111.398 39.1519L110.449 40.3137L110.469 40.33L110.489 40.3456L111.398 39.1519ZM113.521 40.7677L114.847 40.0666L114.692 39.7743L114.429 39.5741L113.521 40.7677ZM114.768 43.1278L116.147 42.5374L116.123 42.4809L116.095 42.4267L114.768 43.1278ZM115.822 45.5874L117.304 45.8147L117.369 45.3911L117.2 44.997L115.822 45.5874ZM115.421 48.1993L116.645 49.0661L116.85 48.7769L116.904 48.4266L115.421 48.1993ZM114.642 49.2999L113.488 50.258L114.736 51.7621L115.866 50.1667L114.642 49.2999ZM92.9824 47.13L94.1354 48.0895L94.1994 48.0127L93.0464 47.0532L91.8934 46.0937L91.8294 46.1706L92.9824 47.13ZM93.0464 47.0532L94.3413 47.8102L95.6222 45.6194L94.3272 44.8623L93.0323 44.1053L91.7515 46.2961L93.0464 47.0532ZM94.3272 44.8623L95.5251 45.7651L97.1202 43.6487L95.9223 42.7459L94.7245 41.8431L93.1293 43.9595L94.3272 44.8623ZM95.9223 42.7459L97.2035 43.526L98.579 41.2669L97.2978 40.4868L96.0166 39.7067L94.6411 41.9658L95.9223 42.7459ZM97.2978 40.4868L98.333 41.5724L100.263 39.732L99.2279 38.6464L98.1927 37.5609L96.2627 39.4012L97.2978 40.4868ZM99.2279 38.6464L99.8674 40.0033L102.278 38.8672L101.638 37.5104L100.998 36.1536L98.5883 37.2896L99.2279 38.6464ZM101.638 37.5104L102.037 38.9563L104.57 38.2568L104.171 36.811L103.771 35.3651L101.239 36.0645L101.638 37.5104ZM104.171 36.811L104.267 38.3079L106.92 38.1366L106.824 36.6397L106.727 35.1428L104.074 35.3141L104.171 36.811ZM106.824 36.6397L106.349 38.0625L108.881 38.9076L109.356 37.4847L109.831 36.0618L107.299 35.2168L106.824 36.6397ZM109.356 37.4847L108.407 38.6465L110.449 40.3137L111.398 39.1519L112.346 37.9901L110.305 36.3229L109.356 37.4847ZM111.398 39.1519L110.489 40.3456L112.612 41.9614L113.521 40.7677L114.429 39.5741L112.306 37.9583L111.398 39.1519ZM113.521 40.7677L112.195 41.4688L113.442 43.8289L114.768 43.1278L116.095 42.4267L114.847 40.0666L113.521 40.7677ZM114.768 43.1278L113.39 43.7181L114.443 46.1778L115.822 45.5874L117.2 44.997L116.147 42.5374L114.768 43.1278ZM115.822 45.5874L114.339 45.3601L113.938 47.9719L115.421 48.1993L116.904 48.4266L117.304 45.8147L115.822 45.5874ZM115.421 48.1993L114.197 47.3324L113.418 48.4331L114.642 49.2999L115.866 50.1667L116.645 49.0661L115.421 48.1993ZM114.642 49.2999L115.796 48.3418L115.787 48.3313L114.633 49.2894L113.479 50.2475L113.488 50.258L114.642 49.2999Z" fill="black"/>
<path d="M75.8157 56.886L77.0562 56.0427L77.0392 56.0177L77.0212 55.9934L75.8157 56.886ZM77.1972 58.918L75.9567 59.7613L76.002 59.828L76.0542 59.8893L77.1972 58.918ZM78.9149 60.9392L77.7719 61.9106L77.8465 61.9984L77.9337 62.0738L78.9149 60.9392ZM80.9188 62.6724L82.1381 61.7986L82.0345 61.6542L81.9001 61.5379L80.9188 62.6724ZM82.4758 64.845L83.9562 64.6031L83.8996 64.2566L83.695 63.9712L82.4758 64.845ZM82.9052 67.4729L84.3692 67.7996L84.4322 67.5169L84.3855 67.2311L82.9052 67.4729ZM82.3364 70.0219L83.6714 70.7058L83.7587 70.5354L83.8004 70.3486L82.3364 70.0219ZM81.2559 72.1311L80.3296 73.3109L81.7611 74.4349L82.591 72.815L81.2559 72.1311ZM75.7562 56.8057L74.5508 57.6983L74.6103 57.7787L75.8157 56.886L77.0212 55.9934L76.9617 55.913L75.7562 56.8057ZM75.8157 56.886L74.5753 57.7294L75.9567 59.7613L77.1972 58.918L78.4377 58.0746L77.0562 56.0427L75.8157 56.886ZM77.1972 58.918L76.0542 59.8893L77.7719 61.9106L78.9149 60.9392L80.0579 59.9679L78.3402 57.9466L77.1972 58.918ZM78.9149 60.9392L77.9337 62.0738L79.9376 63.8069L80.9188 62.6724L81.9001 61.5379L79.8962 59.8047L78.9149 60.9392ZM80.9188 62.6724L79.6996 63.5462L81.2566 65.7187L82.4758 64.845L83.695 63.9712L82.1381 61.7986L80.9188 62.6724ZM82.4758 64.845L80.9954 65.0868L81.4248 67.7148L82.9052 67.4729L84.3855 67.2311L83.9562 64.6031L82.4758 64.845ZM82.9052 67.4729L81.4412 67.1463L80.8724 69.6952L82.3364 70.0219L83.8004 70.3486L84.3692 67.7996L82.9052 67.4729ZM82.3364 70.0219L81.0014 69.338L79.9209 71.4472L81.2559 72.1311L82.591 72.815L83.6714 70.7058L82.3364 70.0219ZM81.2559 72.1311L82.1823 70.9513L82.0491 70.8467L81.1227 72.0265L80.1963 73.2063L80.3296 73.3109L81.2559 72.1311Z" fill="black"/>
<path d="M71.859 95.9847L70.4766 95.4026L70.4373 95.4959L70.4109 95.5936L71.859 95.9847ZM71.197 98.4357L72.585 99.0042L72.6206 98.9174L72.6451 98.8268L71.197 98.4357ZM70.192 100.889L68.8039 100.321L68.7655 100.414L68.7401 100.513L70.192 100.889ZM69.5267 103.453L70.8698 104.121L70.9393 103.981L70.9786 103.83L69.5267 103.453ZM68.3395 105.841L69.3706 106.93L69.5641 106.747L69.6826 106.508L68.3395 105.841ZM66.4054 107.671L67.1848 108.953L67.3208 108.87L67.4365 108.761L66.4054 107.671ZM64.1716 109.03L63.3922 107.748L62.2741 108.428L62.7962 109.628L64.1716 109.03ZM71.8978 95.8926L70.5154 95.3104L70.4766 95.4026L71.859 95.9847L73.2414 96.5669L73.2802 96.4748L71.8978 95.8926ZM71.859 95.9847L70.4109 95.5936L69.7489 98.0445L71.197 98.4357L72.6451 98.8268L73.3071 96.3759L71.859 95.9847ZM71.197 98.4357L69.8089 97.8671L68.8039 100.321L70.192 100.889L71.5801 101.458L72.585 99.0042L71.197 98.4357ZM70.192 100.889L68.7401 100.513L68.0747 103.076L69.5267 103.453L70.9786 103.83L71.6439 101.266L70.192 100.889ZM69.5267 103.453L68.1836 102.785L66.9964 105.173L68.3395 105.841L69.6826 106.508L70.8698 104.121L69.5267 103.453ZM68.3395 105.841L67.3085 104.751L65.3743 106.582L66.4054 107.671L67.4365 108.761L69.3706 106.93L68.3395 105.841ZM66.4054 107.671L65.626 106.39L63.3922 107.748L64.1716 109.03L64.9511 110.311L67.1848 108.953L66.4054 107.671ZM64.1716 109.03L62.7962 109.628L62.8042 109.646L64.1797 109.048L65.5552 108.45L65.5471 108.431L64.1716 109.03Z" fill="black"/>
<path d="M113.329 59.9005L112.544 58.622L111.943 58.9909L111.844 59.6892L113.329 59.9005ZM115.46 58.5928L116.244 59.8713L116.576 59.6678L116.767 59.3288L115.46 58.5928ZM116.75 56.3009L118.057 57.0369L118.33 56.5527L118.222 56.0077L116.75 56.3009ZM116.23 53.6877L117.701 53.3946L117.674 53.2596L117.623 53.1318L116.23 53.6877ZM115.261 51.2607L116.654 50.7048L116.628 50.6373L116.594 50.5726L115.261 51.2607ZM114.06 48.934L115.393 48.2459L115.277 48.0211L115.094 47.8468L114.06 48.934ZM112.151 47.1188L113.184 46.0316L112.995 45.8524L112.758 45.7471L112.151 47.1188ZM109.754 46.0585L110.361 44.6867L110.267 44.6452L110.169 44.6168L109.754 46.0585ZM107.248 45.3381L107.662 43.8964L107.586 43.8745L107.508 43.8607L107.248 45.3381ZM104.621 44.8765L104.88 43.3991L104.541 43.3395L104.209 43.4339L104.621 44.8765ZM102.055 45.6075L102.193 47.1011L102.332 47.0883L102.466 47.0501L102.055 45.6075ZM113.315 59.9995L114.8 60.2108L114.814 60.1118L113.329 59.9005L111.844 59.6892L111.83 59.7882L113.315 59.9995ZM113.329 59.9005L114.113 61.1789L116.244 59.8713L115.46 58.5928L114.675 57.3143L112.544 58.622L113.329 59.9005ZM115.46 58.5928L116.767 59.3288L118.057 57.0369L116.75 56.3009L115.443 55.5649L114.153 57.8568L115.46 58.5928ZM116.75 56.3009L118.222 56.0077L117.701 53.3946L116.23 53.6877L114.759 53.9809L115.279 56.5941L116.75 56.3009ZM116.23 53.6877L117.623 53.1318L116.654 50.7048L115.261 51.2607L113.868 51.8166L114.837 54.2436L116.23 53.6877ZM115.261 51.2607L116.594 50.5726L115.393 48.2459L114.06 48.934L112.727 49.6221L113.928 51.9488L115.261 51.2607ZM114.06 48.934L115.094 47.8468L113.184 46.0316L112.151 47.1188L111.117 48.206L113.027 50.0212L114.06 48.934ZM112.151 47.1188L112.758 45.7471L110.361 44.6867L109.754 46.0585L109.147 47.4302L111.544 48.4905L112.151 47.1188ZM109.754 46.0585L110.169 44.6168L107.662 43.8964L107.248 45.3381L106.834 46.7797L109.34 47.5001L109.754 46.0585ZM107.248 45.3381L107.508 43.8607L104.88 43.3991L104.621 44.8765L104.361 46.3538L106.989 46.8154L107.248 45.3381ZM104.621 44.8765L104.209 43.4339L101.644 44.1649L102.055 45.6075L102.466 47.0501L105.032 46.319L104.621 44.8765ZM102.055 45.6075L101.917 44.1139L100.751 44.2217L100.89 45.7154L101.028 47.209L102.193 47.1011L102.055 45.6075Z" fill="black"/>
<path d="M76.4087 96.5563L77.8868 96.8113L77.8995 96.738L77.9048 96.6638L76.4087 96.5563ZM75.9766 99.0604L77.405 99.5182L77.4369 99.4186L77.4547 99.3155L75.9766 99.0604ZM75.1659 101.59L73.7374 101.133L73.6893 101.283L73.6735 101.439L75.1659 101.59ZM74.899 104.229L73.4066 104.078L73.393 104.212L73.4036 104.346L74.899 104.229ZM75.0956 106.737L73.6001 106.854L73.6216 107.128L73.739 107.377L75.0956 106.737ZM76.2111 109.101L74.8545 109.741L74.8774 109.79L74.9038 109.837L76.2111 109.101ZM76.4158 96.4565L74.9197 96.349L74.9125 96.4487L76.4087 96.5563L77.9048 96.6638L77.912 96.5641L76.4158 96.4565ZM76.4087 96.5563L74.9305 96.3012L74.4984 98.8054L75.9766 99.0604L77.4547 99.3155L77.8868 96.8113L76.4087 96.5563ZM75.9766 99.0604L74.5481 98.6027L73.7374 101.133L75.1659 101.59L76.5943 102.048L77.405 99.5182L75.9766 99.0604ZM75.1659 101.59L73.6735 101.439L73.4066 104.078L74.899 104.229L76.3914 104.38L76.6582 101.741L75.1659 101.59ZM74.899 104.229L73.4036 104.346L73.6001 106.854L75.0956 106.737L76.591 106.62L76.3944 104.112L74.899 104.229ZM75.0956 106.737L73.739 107.377L74.8545 109.741L76.2111 109.101L77.5677 108.461L76.4522 106.097L75.0956 106.737ZM76.2111 109.101L74.9038 109.837L75.297 110.536L76.6043 109.8L77.9115 109.065L77.5183 108.366L76.2111 109.101Z" fill="black"/>
<path d="M81.4004 111.306L81.3093 112.803L81.3883 112.808L81.4674 112.804L81.4004 111.306ZM78.8926 111.153L78.9837 109.656L78.9743 109.655L78.9649 109.655L78.8926 111.153ZM76.2392 111.025L76.3114 109.527L76.133 109.518L75.9576 109.552L76.2392 111.025ZM73.6327 111.524L73.8428 113.009L73.8787 113.004L73.9143 112.997L73.6327 111.524ZM71.015 111.894L71.0307 113.394L71.1284 113.393L71.2251 113.379L71.015 111.894ZM68.3644 111.921L68.3487 110.422L68.3339 110.422L68.3192 110.422L68.3644 111.921ZM65.727 112.001L65.6817 110.502L65.433 110.509L65.1999 110.597L65.727 112.001ZM63.3667 112.887L62.8397 111.483L62.6587 111.551L62.5009 111.662L63.3667 112.887ZM61.2232 114.402L62.0157 115.676L62.0531 115.653L62.0891 115.627L61.2232 114.402ZM59.5196 115.462L58.7272 114.189L57.2071 115.134L58.4045 116.465L59.5196 115.462ZM81.5003 111.301L81.4333 109.803L81.3334 109.807L81.4004 111.306L81.4674 112.804L81.5673 112.8L81.5003 111.301ZM81.4004 111.306L81.4915 109.809L78.9837 109.656L78.8926 111.153L78.8015 112.651L81.3093 112.803L81.4004 111.306ZM78.8926 111.153L78.9649 109.655L76.3114 109.527L76.2392 111.025L76.167 112.524L78.8204 112.652L78.8926 111.153ZM76.2392 111.025L75.9576 109.552L73.3511 110.05L73.6327 111.524L73.9143 112.997L76.5208 112.499L76.2392 111.025ZM73.6327 111.524L73.4227 110.038L70.805 110.409L71.015 111.894L71.2251 113.379L73.8428 113.009L73.6327 111.524ZM71.015 111.894L70.9993 110.394L68.3487 110.422L68.3644 111.921L68.3801 113.421L71.0307 113.394L71.015 111.894ZM68.3644 111.921L68.3192 110.422L65.6817 110.502L65.727 112.001L65.7723 113.5L68.4097 113.421L68.3644 111.921ZM65.727 112.001L65.1999 110.597L62.8397 111.483L63.3667 112.887L63.8938 114.291L66.2541 113.405L65.727 112.001ZM63.3667 112.887L62.5009 111.662L60.3574 113.177L61.2232 114.402L62.0891 115.627L64.2326 114.112L63.3667 112.887ZM61.2232 114.402L60.4308 113.129L58.7272 114.189L59.5196 115.462L60.3121 116.736L62.0157 115.676L61.2232 114.402ZM59.5196 115.462L58.4045 116.465L58.5499 116.627L59.665 115.624L60.7802 114.621L60.6348 114.459L59.5196 115.462Z" fill="black"/>
<path d="M39.9933 111.271L40.4578 112.697L41.0593 112.501L41.3389 111.934L39.9933 111.271ZM41.0555 109.115L40.7555 107.645L40.0349 107.792L39.7099 108.452L41.0555 109.115ZM43.6515 108.585L43.9514 110.054L43.9717 110.05L43.9918 110.046L43.6515 108.585ZM46.2286 107.984L46.088 106.491L45.987 106.5L45.8882 106.523L46.2286 107.984ZM48.8687 107.736L48.9769 106.24L48.8524 106.231L48.7282 106.243L48.8687 107.736ZM51.5169 107.928L51.4087 109.424L51.4368 109.426L51.4651 109.427L51.5169 107.928ZM54.1566 108.019L54.3218 106.528L54.2653 106.522L54.2084 106.52L54.1566 108.019ZM56.8072 108.313L57.7605 107.155L57.416 106.871L56.9724 106.822L56.8072 108.313ZM57.8195 109.146L59.1852 109.766L59.661 108.719L58.7729 107.988L57.8195 109.146ZM39.8983 111.302L40.3627 112.728L40.4578 112.697L39.9933 111.271L39.5289 109.844L39.4338 109.875L39.8983 111.302ZM39.9933 111.271L41.3389 111.934L42.4011 109.777L41.0555 109.115L39.7099 108.452L38.6478 110.608L39.9933 111.271ZM41.0555 109.115L41.3555 110.584L43.9514 110.054L43.6515 108.585L43.3515 107.115L40.7555 107.645L41.0555 109.115ZM43.6515 108.585L43.9918 110.046L46.5689 109.445L46.2286 107.984L45.8882 106.523L43.3111 107.124L43.6515 108.585ZM46.2286 107.984L46.3691 109.478L49.0092 109.229L48.8687 107.736L48.7282 106.243L46.088 106.491L46.2286 107.984ZM48.8687 107.736L48.7604 109.232L51.4087 109.424L51.5169 107.928L51.6252 106.431L48.9769 106.24L48.8687 107.736ZM51.5169 107.928L51.4651 109.427L54.1047 109.518L54.1566 108.019L54.2084 106.52L51.5688 106.428L51.5169 107.928ZM54.1566 108.019L53.9913 109.51L56.6419 109.804L56.8072 108.313L56.9724 106.822L54.3218 106.528L54.1566 108.019ZM56.8072 108.313L55.8538 109.471L56.8662 110.304L57.8195 109.146L58.7729 107.988L57.7605 107.155L56.8072 108.313ZM57.8195 109.146L56.4538 108.526L56.4145 108.612L57.7802 109.233L59.1459 109.853L59.1852 109.766L57.8195 109.146Z" fill="black"/>
<path d="M73.4854 68.8919L72.5939 70.0983L72.8026 70.2525L73.051 70.3277L73.4854 68.8919ZM75.9287 69.6312L76.7377 68.368L76.5623 68.2557L76.3631 68.1955L75.9287 69.6312ZM78.1674 71.0649L77.3584 72.3281L77.5357 72.4416L77.7374 72.5019L78.1674 71.0649ZM80.7081 71.8251L81.9019 70.9169L81.6061 70.5281L81.1381 70.3881L80.7081 71.8251ZM82.3139 73.936L83.8122 74.0074L83.8382 73.4622L83.5077 73.0278L82.3139 73.936ZM82.187 76.5989L83.363 77.5301L83.6623 77.152L83.6853 76.6703L82.187 76.5989ZM80.619 78.5793L80.9252 80.0477L81.4575 79.9368L81.7951 79.5104L80.619 78.5793ZM78.026 79.12L77.7202 80.5885L78.0262 80.6522L78.3321 80.5884L78.026 79.12ZM75.4192 78.5772L74.8084 79.9472L74.9556 80.0128L75.1134 80.0457L75.4192 78.5772ZM72.9941 77.4959L73.6049 76.1259L73.4484 76.0562L73.2803 76.0235L72.9941 77.4959ZM70.3697 76.9859L69.7779 78.3642L69.9257 78.4277L70.0835 78.4583L70.3697 76.9859ZM67.9424 75.9438L68.5341 74.5655L68.5018 74.5516L68.4689 74.5393L67.9424 75.9438ZM73.4049 68.8325L72.5135 70.0389L72.5939 70.0983L73.4854 68.8919L74.3768 67.6856L74.2964 67.6262L73.4049 68.8325ZM73.4854 68.8919L73.051 70.3277L75.4943 71.0669L75.9287 69.6312L76.3631 68.1955L73.9197 67.4562L73.4854 68.8919ZM75.9287 69.6312L75.1197 70.8943L77.3584 72.3281L78.1674 71.0649L78.9763 69.8017L76.7377 68.368L75.9287 69.6312ZM78.1674 71.0649L77.7374 72.5019L80.2781 73.2622L80.7081 71.8251L81.1381 70.3881L78.5974 69.6278L78.1674 71.0649ZM80.7081 71.8251L79.5143 72.7333L81.1201 74.8442L82.3139 73.936L83.5077 73.0278L81.9019 70.9169L80.7081 71.8251ZM82.3139 73.936L80.8156 73.8646L80.6887 76.5275L82.187 76.5989L83.6853 76.6703L83.8122 74.0074L82.3139 73.936ZM82.187 76.5989L81.011 75.6678L79.443 77.6482L80.619 78.5793L81.7951 79.5104L83.363 77.5301L82.187 76.5989ZM80.619 78.5793L80.3129 77.1109L77.7198 77.6515L78.026 79.12L78.3321 80.5884L80.9252 80.0477L80.619 78.5793ZM78.026 79.12L78.3317 77.6515L75.725 77.1087L75.4192 78.5772L75.1134 80.0457L77.7202 80.5885L78.026 79.12ZM75.4192 78.5772L76.03 77.2072L73.6049 76.1259L72.9941 77.4959L72.3833 78.8659L74.8084 79.9472L75.4192 78.5772ZM72.9941 77.4959L73.2803 76.0235L70.6558 75.5134L70.3697 76.9859L70.0835 78.4583L72.7079 78.9684L72.9941 77.4959ZM70.3697 76.9859L70.9614 75.6075L68.5341 74.5655L67.9424 75.9438L67.3506 77.3222L69.7779 78.3642L70.3697 76.9859ZM67.9424 75.9438L68.4689 74.5393L67.5324 74.1882L67.0059 75.5927L66.4793 76.9973L67.4159 77.3484L67.9424 75.9438Z" fill="black"/>
<path d="M107.151 52.757L105.868 53.5329L106.098 53.914L106.499 54.1077L107.151 52.757ZM109.461 53.8722L110.664 52.9765L110.444 52.6814L110.113 52.5215L109.461 53.8722ZM111.036 55.9877L112.304 55.1864L112.273 55.1379L112.239 55.0919L111.036 55.9877ZM112.443 58.2145L113.897 57.847L113.839 57.6153L113.711 57.4133L112.443 58.2145ZM113.098 60.8061L114.579 61.0398L114.627 60.7364L114.552 60.4386L113.098 60.8061ZM112.683 63.4385L114.008 64.1401L114.125 63.9192L114.164 63.6722L112.683 63.4385ZM111.464 65.7412L112.288 66.9948L112.61 66.7833L112.79 66.4428L111.464 65.7412ZM109.252 67.1944L109.154 68.6912L109.656 68.7241L110.076 68.4481L109.252 67.1944ZM107.1 52.6714L105.816 53.4474L105.868 53.5329L107.151 52.757L108.435 51.981L108.383 51.8954L107.1 52.6714ZM107.151 52.757L106.499 54.1077L108.808 55.223L109.461 53.8722L110.113 52.5215L107.804 51.4062L107.151 52.757ZM109.461 53.8722L108.258 54.768L109.833 56.8835L111.036 55.9877L112.239 55.0919L110.664 52.9765L109.461 53.8722ZM111.036 55.9877L109.768 56.7889L111.175 59.0158L112.443 58.2145L113.711 57.4133L112.304 55.1864L111.036 55.9877ZM112.443 58.2145L110.989 58.582L111.644 61.1736L113.098 60.8061L114.552 60.4386L113.897 57.847L112.443 58.2145ZM113.098 60.8061L111.616 60.5724L111.201 63.2048L112.683 63.4385L114.164 63.6722L114.579 61.0398L113.098 60.8061ZM112.683 63.4385L111.357 62.7369L110.138 65.0395L111.464 65.7412L112.79 66.4428L114.008 64.1401L112.683 63.4385ZM111.464 65.7412L110.64 64.4876L108.428 65.9408L109.252 67.1944L110.076 68.4481L112.288 66.9948L111.464 65.7412ZM109.252 67.1944L109.35 65.6977L108.517 65.643L108.419 67.1398L108.321 68.6366L109.154 68.6912L109.252 67.1944Z" fill="black"/>
<path d="M106.899 59.1622L105.41 58.9746L105.382 59.203L105.423 59.4295L106.899 59.1622ZM107.352 61.6638L108.847 61.547L108.841 61.4713L108.828 61.3965L107.352 61.6638ZM107.558 64.3104L106.063 64.4271L106.076 64.5923L106.124 64.7507L107.558 64.3104ZM108.337 66.8466L109.607 67.6444L109.973 67.0628L109.771 66.4063L108.337 66.8466ZM106.923 69.0991L107.415 70.5158L107.913 70.3428L108.193 69.8968L106.923 69.0991ZM104.41 69.9729L104.261 71.4655L104.59 71.4983L104.902 71.3897L104.41 69.9729ZM102.209 69.7538L102.358 68.2612L101.101 68.136L100.764 69.3532L102.209 69.7538ZM106.911 59.063L105.423 58.8754L105.41 58.9746L106.899 59.1622L108.387 59.3498L108.399 59.2506L106.911 59.063ZM106.899 59.1622L105.423 59.4295L105.876 61.931L107.352 61.6638L108.828 61.3965L108.375 58.8949L106.899 59.1622ZM107.352 61.6638L105.856 61.7805L106.063 64.4271L107.558 64.3104L109.054 64.1936L108.847 61.547L107.352 61.6638ZM107.558 64.3104L106.124 64.7507L106.903 67.287L108.337 66.8466L109.771 66.4063L108.992 63.87L107.558 64.3104ZM108.337 66.8466L107.067 66.0489L105.652 68.3013L106.923 69.0991L108.193 69.8968L109.607 67.6444L108.337 66.8466ZM106.923 69.0991L106.43 67.6823L103.917 68.5562L104.41 69.9729L104.902 71.3897L107.415 70.5158L106.923 69.0991ZM104.41 69.9729L104.558 68.4803L102.358 68.2612L102.209 69.7538L102.061 71.2464L104.261 71.4655L104.41 69.9729ZM102.209 69.7538L100.764 69.3532L100.759 69.3726L102.204 69.7732L103.65 70.1739L103.655 70.1544L102.209 69.7538Z" fill="black"/>
<path d="M14.5132 19.3193L13.0862 19.7813L13.1773 20.0627L13.3684 20.2885L14.5132 19.3193ZM16.1635 21.2684L17.5682 20.7422L17.4767 20.4981L17.3083 20.2992L16.1635 21.2684ZM17.0861 23.7309L18.5771 23.5668L18.5566 23.3803L18.4908 23.2047L17.0861 23.7309ZM17.3701 26.3098L18.692 27.0186L18.912 26.6083L18.861 26.1456L17.3701 26.3098ZM14.4824 19.2241L13.0554 19.6862L13.0862 19.7813L14.5132 19.3193L15.9403 18.8572L15.9095 18.7621L14.4824 19.2241ZM14.5132 19.3193L13.3684 20.2885L15.0188 22.2377L16.1635 21.2684L17.3083 20.2992L15.658 18.35L14.5132 19.3193ZM16.1635 21.2684L14.7589 21.7947L15.6815 24.2572L17.0861 23.7309L18.4908 23.2047L17.5682 20.7422L16.1635 21.2684ZM17.0861 23.7309L15.5951 23.8951L15.8791 26.4739L17.3701 26.3098L18.861 26.1456L18.5771 23.5668L17.0861 23.7309ZM17.3701 26.3098L16.0481 25.601L15.678 26.2912L17 27L18.322 27.7088L18.692 27.0186L17.3701 26.3098Z" fill="black"/>
<path d="M64.6456 111.856L63.2269 112.343L63.5412 113.259L64.5045 113.35L64.6456 111.856ZM63.8222 109.458L65.2409 108.971L65.0406 108.388L64.4879 108.114L63.8222 109.458ZM61.5376 108.327L62.2033 106.983L61.6515 106.71L61.0669 106.903L61.5376 108.327ZM59.0147 109.161L58.544 107.737L58.4136 107.78L58.2932 107.846L59.0147 109.161ZM56.7147 110.422L57.3812 111.766L57.409 111.752L57.4362 111.738L56.7147 110.422ZM54.3458 111.597L53.6794 110.253L53.6217 110.282L53.5667 110.316L54.3458 111.597ZM52.0902 112.968L52.8445 114.265L52.857 114.258L52.8693 114.25L52.0902 112.968ZM50.7886 113.726L49.3089 113.479L48.7854 116.626L51.5429 115.022L50.7886 113.726ZM64.7451 111.866L64.8862 110.372L64.7867 110.363L64.6456 111.856L64.5045 113.35L64.604 113.359L64.7451 111.866ZM64.6456 111.856L66.0643 111.369L65.2409 108.971L63.8222 109.458L62.4035 109.946L63.2269 112.343L64.6456 111.856ZM63.8222 109.458L64.4879 108.114L62.2033 106.983L61.5376 108.327L60.8719 109.671L63.1565 110.803L63.8222 109.458ZM61.5376 108.327L61.0669 106.903L58.544 107.737L59.0147 109.161L59.4853 110.585L62.0082 109.751L61.5376 108.327ZM59.0147 109.161L58.2932 107.846L55.9933 109.107L56.7147 110.422L57.4362 111.738L59.7361 110.476L59.0147 109.161ZM56.7147 110.422L56.0483 109.079L53.6794 110.253L54.3458 111.597L55.0123 112.941L57.3812 111.766L56.7147 110.422ZM54.3458 111.597L53.5667 110.316L51.3111 111.687L52.0902 112.968L52.8693 114.25L55.125 112.879L54.3458 111.597ZM52.0902 112.968L51.3359 111.672L50.0343 112.429L50.7886 113.726L51.5429 115.022L52.8445 114.265L52.0902 112.968ZM50.7886 113.726L52.2683 113.972L52.2961 113.805L50.8164 113.559L49.3367 113.312L49.3089 113.479L50.7886 113.726Z" fill="black"/>
<path d="M28.0707 17.9293L29.1314 18.9899L29.2542 18.8671L29.3457 18.7194L28.0707 17.9293ZM28.3227 17.5227L27.8384 16.103L27.3304 16.2763L27.0477 16.7325L28.3227 17.5227ZM28.9192 17.3192L29.4035 18.7389L30.3675 18.41L30.4174 17.3927L28.9192 17.3192ZM28.9379 16.9379L29.9986 15.8773L27.6056 13.4843L27.4397 16.8644L28.9379 16.9379ZM28 18L29.0607 19.0607L29.1314 18.9899L28.0707 17.9293L27.0101 16.8686L26.9393 16.9393L28 18ZM28.0707 17.9293L29.3457 18.7194L29.5977 18.3129L28.3227 17.5227L27.0477 16.7325L26.7957 17.1391L28.0707 17.9293ZM28.3227 17.5227L28.807 18.9424L29.4035 18.7389L28.9192 17.3192L28.4349 15.8995L27.8384 16.103L28.3227 17.5227ZM28.9192 17.3192L30.4174 17.3927L30.4361 17.0114L28.9379 16.9379L27.4397 16.8644L27.421 17.2457L28.9192 17.3192ZM28.9379 16.9379L27.8773 17.9986L27.9393 18.0607L29 17L30.0607 15.9393L29.9986 15.8773L28.9379 16.9379Z" fill="black"/>
</svg>
