<svg width="120" height="120" viewBox="0 0 120 120" fill="none" xmlns="http://www.w3.org/2000/svg">
<path d="M60.1289 6.82812L62.6719 6.89844L62.9062 6.92188L65.5078 7.42578L65.8242 7.48438L66.082 7.66016L68.2852 9.17188L68.4609 9.28906L68.6016 9.45312L70.2422 11.4453L72.1289 13.1328L72.293 13.2852L72.4102 13.4844L73.7578 15.7109L75.3164 17.6914L75.4805 17.9023L75.5625 18.1484L76.3828 20.6328L77.4375 22.6484L78.9609 24.8516L79.0547 24.9922L79.125 25.1562L80.0859 27.6406L80.1211 27.7227L80.1445 27.8047L80.7305 30.125L82.043 32.2344L82.1719 32.457L82.2305 32.7031L82.7812 35.2344L83.625 37.625L84.5039 40.1094L84.5156 40.1211V40.1445L85.3477 42.6641L85.3594 42.6758V42.6992L86.1094 45.1484L86.9883 47.6445L87.0586 47.832L87.0703 48.0312L87.2578 50.4805L88.1367 52.7656L88.1836 52.8945L88.207 53.0234L88.6758 55.5312L89.4258 58.0156L89.4609 58.1445L89.4727 58.2852L89.7305 60.7109L90.5156 63.1484L90.5391 63.2188L91.2188 65.7734L91.2656 65.9258V66.0781L91.4062 68.668L91.9219 71.1055V71.1523L91.9336 71.1875L92.332 73.7891L92.7539 76.3906V76.4141L93.1055 78.8867L93.7266 81.4648L93.7383 81.5117V81.5469L94.207 84.1602L94.2188 84.2188L94.2305 84.2891L94.4648 86.8789L94.7578 89.5156L94.7695 89.5625V89.6094L94.875 92.0938L95.2617 94.707L95.2734 94.7539V94.8008L95.5078 97.4258L95.7539 99.9453L96.1641 102.57L96.1992 102.723L96.1875 102.887L96.0586 105.441L96.2109 108.008L96.4805 110.586V110.633L96.668 113.27L96.6797 113.375L96.668 113.48L96.5986 114.429L97.8945 114.605L100.273 114.711L101.637 114.476L100.877 113.779L100.867 113.771L100.856 113.761L98.9775 111.971L98.2705 111.376L98.2988 110.904L98.3125 110.678L98.291 110.451L97.8066 105.178L97.8008 105.113L97.792 105.05L97.0889 99.8545L96.6123 94.8125V94.0342L96.6377 94.0752L96.6738 94.1533L97.7568 96.5273L98.957 98.8281L98.9688 98.8516L100.148 101.213L100.173 101.263L100.194 101.314L101.144 103.629L102.527 105.723L102.575 105.795L102.614 105.872L103.809 108.227L103.829 108.268L103.848 108.31L104.897 110.738L105.94 113.032L106.797 114.429L108.406 114.746L110.809 114.5L110.891 114.488H110.973L112.016 114.5L112.004 116L111.98 117.5L110.984 117.488L108.477 117.746L108.254 117.77L108.031 117.734L105.57 117.242L103.145 117.254L100.648 117.688L100.496 117.711L100.332 117.699L97.6953 117.594H97.625L97.5547 117.582L95.1523 117.242L92.7617 117.711L92.5273 117.758L92.293 117.734L89.7383 117.406L87.207 117.418L87.1953 117.406L84.6055 117.488H84.5938L81.957 117.547H81.9336L79.3672 117.559L79.3789 117.57L76.7422 117.746L76.5547 117.758L73.9297 117.266L71.5391 117.547L71.4102 117.559H71.2812L68.7266 117.418L66.1719 117.582H66.043L65.9141 117.57L63.418 117.289L60.957 117.559H60.8867L58.25 117.711L58.0977 117.723L57.957 117.699L55.4141 117.348L52.9062 117.406H52.8477L50.2109 117.348V117.336H47.5742L44.9492 117.289L42.4531 117.512L42.418 117.523H42.3711L39.7344 117.617H39.6172L36.9805 117.512V117.5L34.3906 117.488H34.3438L34.2969 117.477L31.7188 117.301L29.1875 117.43H29.1055L26.4688 117.418V117.406L23.9609 117.43L21.3242 117.664L21.1836 117.676L21.0312 117.664L18.5 117.383L15.9219 117.395V117.383L13.3789 117.559H13.3672L13.3555 117.57L10.707 117.688L10.6133 117.699L10.5312 117.688L7.98828 117.5L8 117.277V114.5H8.21094L10.6719 114.699L12.0811 114.633L13.0703 113.051L14.1719 110.73L15.2383 108.34L15.25 108.293L15.2734 108.258L16.5039 105.914L16.5391 105.832L16.5859 105.762L17.9922 103.688L18.9766 101.391L19 101.332L19.0234 101.285L20.2305 98.9414V98.9297L20.2422 98.918L21.4844 96.5859L22.5742 94.2656L22.6211 94.1836L22.6562 94.1133L24.0508 91.8633L25.2695 89.625L25.293 89.5781L26.5703 87.3633L27.707 85.0195L28.7031 82.6406L28.7734 82.5L30.0508 80.1914L31.293 77.8828V77.8711L31.3047 77.8594L32.582 75.5508L33.7422 73.2539L33.8008 73.1367L33.8711 73.043L35.3125 71.0273L36.3672 68.7305L37.3398 66.3281L37.3984 66.1758L37.4922 66.0469L38.8984 63.9727L39.9531 61.6641L39.9883 61.5938L40.0352 61.5234L41.3242 59.332L42.2383 57L42.3203 56.7891L42.4609 56.6016L44.0078 54.6445L45.0156 52.4062L45.0391 52.3711L45.0508 52.3359L46.2578 49.9922L47.4297 47.6484L48.6016 45.2812L48.6133 45.2695L48.625 45.2461L49.8438 42.9141L49.8906 42.8203L49.9492 42.7383L51.332 40.7695L52.0586 38.4258L52.1289 38.1914L52.2812 37.9922L53.7461 35.918L55 33.7852L55.7969 31.4062L55.832 31.2891L55.8906 31.1836L57.1094 28.8398L57.1797 28.6992L57.2734 28.582L58.8086 26.6602L59.7344 24.4102L59.7812 24.293L59.8633 24.1758L61.1992 22.0547L62.0547 19.7227L62.125 19.5352L62.2422 19.3711L63.7305 17.2617L64.8789 15.1406L65.6758 12.7383L65.7109 12.6445L65.7578 12.5391L66.3096 11.4434L64.6406 10.3086L62.4375 9.88672L60.1875 9.81641L58.0312 10.1328L56.2383 11.3984L56.25 11.4102L54.2812 12.8984L52.6992 14.7852L52.7109 14.7969L51.1172 16.7188L49.8633 18.9336L49.8281 18.9922L49.7812 19.0508L48.293 21.1133L47.0625 23.293L45.9609 25.6016L45.1289 28.0391L44.2852 30.5352L44.2617 30.6055L44.2266 30.6758L43.125 33.0898L42.3516 35.4453L42.3164 35.5508L42.2578 35.668L41.1094 37.8359L40.4883 40.2734L39.9258 42.8047L39.9023 42.9219L39.8672 43.0273L38.9414 45.3945L38.3203 47.8555L37.7344 50.4336L37.6875 50.5977L36.832 52.9531L36.5625 55.4023L36.5508 55.5312L36.5156 55.6602L35.7773 58.1914L35.4023 60.6172L35.3906 60.7109L35.3672 60.793L34.6758 63.2422L34.2539 65.7852L34.2305 65.9375L34.1719 66.0781L33.2812 68.4102L33.0586 70.8242L33.0371 71.0557L32.3125 72.2266L32.2422 72.3672L32.1484 72.5312L29.9688 77.1719L28.418 80.0811L28.5469 78.3594L28.5586 78.2188L28.5938 78.0898L29.2383 75.5234L29.8359 73.1094L30.0703 70.5547V70.543L30.3281 67.8945L30.3398 67.6953L30.4102 67.5078L31.3125 65.1406L31.7344 62.6797L31.7461 62.6094L31.7695 62.5273L32.4492 60.0547L32.8594 57.5352L32.8711 57.4414L32.8945 57.3477L33.5977 54.9102L33.8789 52.4258L33.9023 52.25L33.9609 52.0742L34.8398 49.625L35.4023 47.1875V47.1758L35.4141 47.1641L36.0586 44.5859L36.082 44.5039L36.1172 44.4102L37.0078 42.0664L37.5703 39.582V39.5469L37.582 39.5234L38.25 36.9453L38.2969 36.793L38.3672 36.6406L39.5391 34.3789L40.3359 31.9883L40.3594 31.9062L40.3945 31.8359L41.4727 29.4805L42.293 27.0664L43.1484 24.5703L43.1719 24.4883L43.2188 24.4062L44.3672 22.0039L44.3906 21.957L44.4141 21.9219L45.7148 19.6016L45.75 19.5312L45.7969 19.4727L47.2969 17.3516L48.5742 15.1484L48.6445 15.0312L48.7148 14.9375L50.3906 12.8984V12.8867H50.4023L52.0898 10.8594L52.1953 10.7305L52.3359 10.6367L54.4219 9.03125L54.4453 9.00781L54.4688 8.99609L56.6133 7.48438L56.9062 7.28516L57.2578 7.22656L59.8594 6.83984L59.9883 6.81641L60.1289 6.82812ZM86.2305 58.9219L86.0898 59.1328L85.8906 59.2852L83.7578 60.8555L83.7109 60.9023L83.6523 60.9375L81.5781 62.1797L79.9961 64.0547L79.8438 64.2422L79.6445 64.3594L77.4531 65.6953L75.5078 67.2773L73.5156 69L73.5039 69.0117L71.4883 70.7109L71.4766 70.7227L69.4375 72.4102L67.5625 74.1445L67.4219 74.2734L67.2461 74.3672L65.0547 75.5508L63.3906 77.2734L63.2969 77.3555L63.1914 77.4258L61.1172 78.9258L59.2305 80.6602L59.1367 80.7539L59.0312 80.8242L56.8867 82.1836L55.1641 83.918L55.1172 83.9648L53.2402 85.6719L55.1797 85.582V85.5703L57.8164 85.3945H57.9102L60.5469 85.3828L60.6406 85.3711L60.7227 85.3828L63.2305 85.6641L65.7148 85.4531L65.7617 85.4414H65.8203L66.6279 85.4336L66.5049 85.3574L66.3789 85.2793L66.2705 85.1777L64.3408 83.3682L64.3154 83.3447L64.292 83.3203L62.5547 81.5352L61.4375 80.8018L64.0215 78.9102L64.3379 79.1182L64.4756 79.209L64.5898 79.3262L66.4189 81.2031L68.2168 82.8887L70.3516 84.2148L70.4531 84.2783L70.5439 84.3564L72.0947 85.7012L72.5117 85.7344L72.5264 86.0752L74.5547 87.6904L74.5645 87.6973L74.5732 87.7051L76.6133 89.3809L78.6582 91.0264L78.7197 91.0762L78.7744 91.1309L80.6367 92.9795L82.5234 94.6729L84.5742 96.2422L84.6113 96.2715L86.6182 97.9082L88.7314 99.4375L88.8008 99.4873L88.8643 99.5459L90.7939 101.309L91.2852 101.713L91.8389 105.81L91.8652 106.101L90.8906 105.271L88.8506 103.595L88.8203 103.57L88.791 103.543L86.9062 101.818L84.8291 100.318L84.7939 100.292L84.7598 100.265L82.7324 98.6094L80.6523 97.0195L80.6055 96.9834L80.5625 96.9443L78.5957 95.1797L78.5684 95.1543L78.541 95.127L76.7197 93.3174L74.7207 91.709L74.7139 91.7041L74.708 91.6992L72.6758 90.0293L72.5117 92.5078L72.4883 95.0508L72.4766 95.9648L71.668 96.375L69.9922 97.2188L69.6992 97.3711L69.3711 97.3828L66.8047 97.4648L64.168 97.7109H64.0156L61.3789 97.6641V97.6523H58.7305L56.1172 97.5938L53.5156 97.6523H53.3867L53.2695 97.6406L50.6328 97.2656L49.8477 97.1602L49.4961 96.4453L48.7109 94.8633L48.5938 94.6172L48.5703 94.3594L48.2891 91.7109L48.2773 91.5586L48.2891 91.3945L48.5664 89.0498L46.6797 90.4922L44.6289 92.1445L44.6172 92.1562L42.5664 93.75L40.75 95.5195L40.7148 95.543L40.6914 95.5781L38.6992 97.3125L38.6055 97.3828L36.5078 98.918L36.5195 98.9297L34.457 100.57L34.3867 100.617L32.2656 102.094L30.3789 103.793L30.3438 103.816L30.3203 103.84L28.2578 105.492L28.2461 105.48L26.2422 107.156L24.4141 108.914L24.3086 109.02L24.1797 109.102L21.9883 110.484L20.1133 112.043L18.168 113.836L18.1562 113.848H18.1445L17.54 114.387L18.5469 114.383L18.6406 114.371L18.7227 114.383L21.2305 114.664L23.7148 114.453L23.7617 114.441H23.8203L25.3975 114.427L25.3008 112.73L25.2891 112.59L25.3125 112.449L25.6406 109.871H25.6289L25.6641 109.524L27.2266 108.086L28.8809 106.71L28.8867 107.363V107.527L28.6172 110.164V110.199L28.2891 112.672L28.3955 114.426L29.0469 114.43L31.6953 114.312L31.7773 114.301L31.8594 114.312L34.5078 114.488L34.4961 114.5L37.0508 114.512H37.0977L39.6875 114.617L42.1836 114.535L44.832 114.289H44.9844L47.6211 114.336L47.6094 114.348H50.2695L52.8711 114.406L55.4844 114.348H55.6133L55.7305 114.359L58.2148 114.723L60.7109 114.559V114.57L63.2891 114.289L63.4414 114.277L63.6055 114.289L66.0898 114.582L68.6328 114.43L68.7148 114.418L68.7969 114.43L71.3281 114.559L73.8242 114.266L74.0586 114.23L74.2812 114.277L76.7305 114.734L79.1797 114.582L79.2266 114.57H79.2617L81.8867 114.559V114.547L84.5234 114.488L87.1602 114.418H87.1953L89.832 114.406H89.9375L90.0312 114.418L92.4219 114.734L93.5908 114.507L93.668 113.375L93.4922 110.891L93.2109 108.242V108.172L93.0703 105.547L93.0586 105.477V105.395L93.1758 102.863L92.7891 100.426L92.7773 100.379V100.332L92.5195 97.707V97.6953L92.2969 95.1523L91.9102 92.5508L91.8867 92.3867L91.7695 89.75V89.7383L91.4766 87.2188V87.1836L91.2539 84.6875L90.7852 82.0859V82.0742L90.1875 79.5898L90.1641 79.5195L90.1523 79.4492L89.7891 76.8711L89.3672 74.2578V74.2461L88.9805 71.7148L88.4414 69.1367L88.418 69.0195V68.9141L88.2773 66.3945L87.668 64.0742L86.8477 61.543L86.7891 61.4023L86.7773 61.2383L86.5078 58.7656L86.4551 58.5879L86.2305 58.9219ZM77.8047 35.9258L76.4453 38.082L76.3281 38.2695L76.1641 38.4102L74.2305 40.0625L72.7773 41.9492L71.5586 44.1875L71.4883 44.3281L71.3828 44.4453L69.6719 46.4492L69.625 46.5078L69.5781 46.5547L67.8203 48.2422L66.7188 50.4102L66.6016 50.6211L66.4375 50.7969L64.5742 52.6133L63.0508 54.5938L63.0391 54.582L61.4922 56.6797V56.6914L59.8984 58.8008V58.8125L58.2812 60.9102L56.8398 63.0312L56.7344 63.1836L56.5938 63.3125L54.7305 64.9297L53.4648 67.0039L53.4062 67.1094L53.3242 67.2031L51.5898 69.1953L50.1836 71.2344L50.1016 71.3398L50.0195 71.4336L48.2734 73.1914L46.9375 75.3125L46.9258 75.3477L46.9023 75.3711L45.3906 77.5508L45.3086 77.668L45.2031 77.7734L43.3633 79.543L41.8516 81.5586L41.8281 81.582L41.8164 81.6055L40.1406 83.6445L40.1289 83.6328L38.5117 85.6953H38.5V85.707L36.8359 87.7578L35.4766 89.8438L35.4531 89.8789L35.4297 89.9023L33.8828 92.0469L33.8125 92.1406L32.1133 94.0977L32.125 94.1094L30.4727 96.1719L30.4375 96.207L30.4141 96.2422L28.7031 98.1289L27.2148 100.215L27.168 100.285L25.5273 102.348L25.5156 102.336L23.9336 104.422L22.5605 106.51L24.2383 104.918L24.332 104.848L26.3594 103.16L26.3711 103.148H26.3828L28.4453 101.496L30.3555 99.7969L30.4961 99.6797L32.5938 98.2148L34.6562 96.5742L34.7031 96.5508L36.7305 95.0391L38.6641 93.3633L40.5742 91.5234L40.6211 91.4648L40.6914 91.418L42.7656 89.7891L44.8164 88.1602L44.8398 88.1367L46.9258 86.5312L48.8945 84.8672L48.9883 84.7852L49.0938 84.7266L51.2148 83.4375L53.0898 81.75L55.0352 79.8047L55.1758 79.7227L57.2969 78.3516L59.1602 76.6641L59.2305 76.6055L59.2891 76.5586L61.3281 75.0586L63.0977 73.2656L63.2617 73.1016L63.4609 72.9961L65.6406 71.8242L67.4688 70.1484L67.5273 70.0898L69.5664 68.4141L71.5703 66.7148L73.5625 65.0039L73.5859 64.9922L73.5977 64.9805L75.6367 63.3164L75.8008 63.1992L77.875 61.9219L79.4453 60.0703L79.6094 59.8828L79.8086 59.7539L81.9648 58.4414L83.8867 57.0234L84.6133 55.9688L85.4658 54.6973L85.2656 53.668L84.3867 51.3711L84.3047 51.1602L84.2812 50.9375L84.0938 48.4414L83.2852 46.1445L83.2734 46.1211L83.2617 46.0859L82.4883 43.5664V43.5547L81.6797 41.1172L80.7891 38.6328V38.6211L79.9336 36.1367L79.8984 36.0547L79.8867 35.9727L79.4717 34.1426L77.8047 35.9258ZM67.6914 16.2188L67.6562 16.3477L67.5859 16.4648L66.332 18.7852L66.2383 18.9492L64.8086 20.9414L63.9531 23.2617L63.9062 23.4141L63.8125 23.5547L62.4531 25.6758L61.5156 27.9961L61.4336 28.207L61.293 28.3828L59.6992 30.3398L58.5977 32.4492L57.8008 34.8867L57.7539 35.0391L57.6719 35.168L56.3359 37.4531L56.2656 37.5703L54.8477 39.5391L54.1445 41.8711L54.0742 42.1055L53.9336 42.3047L52.4688 44.3672L51.2852 46.5938L51.2969 46.6055L50.125 48.9844L48.9414 51.3516H48.9297V51.3633L47.7227 53.707L46.6797 56.0508L46.5977 56.2266L46.4805 56.3672L44.9336 58.3008L44.0664 60.5625L44.0195 60.6797L43.9609 60.7852L42.6484 62.9648L41.5938 65.3203L41.5352 65.4375L41.4648 65.543L40.0586 67.5938L39.1328 69.9141L39.1211 69.9492L39.0977 69.9727L38.0078 72.3867L37.9492 72.5156L37.8555 72.6328L36.3906 74.6602L35.2422 76.957L35.2188 76.9805L35.207 77.0156L33.918 79.3242L32.6875 81.6211L32.6758 81.6328L31.4102 83.9531L30.4492 86.25L30.4258 86.2852L30.4141 86.3203L29.2656 88.6992L29.2422 88.7578L29.207 88.8047L27.8828 91.0898L26.6523 93.375L26.6055 93.4453L25.2461 95.625L24.168 97.9336L24.1562 97.9688L24.1328 98.0039L22.8789 100.336L22.0469 101.949L23.1602 100.496H23.1719V100.484L24.7656 98.4805L26.3008 96.3242L26.3594 96.2539L26.418 96.1953L28.1875 94.2266L29.7812 92.2344L29.793 92.2109L29.8047 92.1992L31.5273 90.1836L33.0039 88.1445L34.4102 85.9883L34.457 85.918L34.5039 85.8594L36.168 83.8086L37.8086 81.7578V81.7461L37.8203 81.7344L39.4961 79.6953L41.043 77.6445L41.1133 77.5391L41.1953 77.457L43.0117 75.7109L44.3945 73.7188L45.8125 71.4688L45.8945 71.3398L46.0117 71.2227L47.7812 69.4062L49.2227 67.3555L49.2695 67.2852L49.3281 67.2266L50.957 65.3516L52.3047 63.1602L52.4219 62.9727L52.5977 62.8203L54.4727 61.168L55.8555 59.1523L55.9023 59.082L57.5195 56.9844L59.0898 54.8867L60.6602 52.7773L60.6719 52.7656L60.6836 52.7422L62.3008 50.668L62.3594 50.5859L62.4297 50.5156L64.1641 48.8047L65.2891 46.6484L65.3945 46.4258L65.5703 46.2617L67.4805 44.3984L69.0039 42.6055L70.2109 40.4023L70.2695 40.2969L70.3398 40.2031L71.957 38.1172L72.0508 38L72.168 37.8945L74.0312 36.2773L75.332 34.2266L75.4141 34.1211L75.5078 34.0156L77.1836 32.1875L77.6875 31.2852L78.0342 31.4736L77.9531 31.3438L77.8945 31.1211L77.2852 28.7305L76.3828 26.4219L74.9648 24.3477L74.9062 24.2773L74.8594 24.1953L73.6523 21.8633L73.5938 21.7461L73.5469 21.6406L72.7969 19.3438L71.3203 17.4453L71.2617 17.375L71.2148 17.3047L69.9492 15.2188L68.4609 13.8848L67.6914 16.2188ZM73.6123 70.7578L73.7266 70.876L73.8115 71.0156L75.1768 73.2568L76.5508 75.2959L78.3379 77.0674L78.4229 77.1514L78.4932 77.248L80.0361 79.3574L81.6602 81.3916L81.668 81.4014L81.6748 81.4111L83.2803 83.4873L84.916 85.5596L84.9648 85.6211L85.0068 85.6875L86.3994 87.8896L87.873 89.9785L89.5195 91.9629L89.5352 91.9814L89.5498 92L90.6133 93.3662L90.6123 94.9453L90.6113 95.0889L90.625 95.2314L90.9316 98.4727L90.5469 97.916L88.8594 95.9932L88.8311 95.96L88.8037 95.9258L87.1826 93.8418L85.5244 91.8457L85.4863 91.8008L85.4521 91.7529L83.9297 89.5938L83.9072 89.5625L83.8877 89.5312L82.5117 87.3555L80.9258 85.3467L80.9209 85.3398L80.916 85.334L79.3164 83.2637L77.668 81.2002L77.6484 81.1758L77.6289 81.1494L76.1426 79.1143L74.333 77.3223L74.2275 77.2178L74.1445 77.0947L72.667 74.9014L72.6484 74.873L72.6309 74.8438L71.333 72.7148L71.1201 72.4932L72.1318 71.5078L73.3916 70.5273L73.6123 70.7578ZM57.9219 88.3945V88.3828L55.3789 88.5586H55.3672L55.3555 88.5703L52.707 88.6875L52.6133 88.6992L52.5312 88.6875L51.5586 88.6055L51.582 88.793L51.5938 88.9453L51.5703 89.0859L51.2891 91.5703L51.5234 93.7852L51.8281 94.4062L53.5742 94.6406L56.0938 94.5938H56.1523L58.7891 94.6523H58.7773L61.4141 94.6641H61.4258L64.0391 94.6992L66.5469 94.4883L66.582 94.4766H66.6289L68.9375 94.3828L69.4883 94.1133L69.5117 92.3906V92.3438L69.5234 92.2969L69.6875 89.7188L69.6289 88.5L68.375 88.4062L65.9609 88.4297L63.3242 88.6641L63.1836 88.6758L63.0312 88.6641L60.5 88.3828L57.9219 88.3945ZM82.1025 65.7549L82.1934 65.8916L82.252 66.0439L83.2002 68.4883L84.1934 70.7393L85.6406 72.7988L85.709 72.8965L85.7617 73.0039L86.9023 75.3418L88.1475 77.6426L88.1533 77.6523L88.1582 77.6631L88.499 78.3174L88.7168 79.7021V79.7031L89.5361 84.9199L89.5498 85.0039L89.5674 85.0869L90.4629 89.2441L90.1064 88.6133L90.0771 88.5625L90.0527 88.5098L88.9346 86.1162L88.918 86.0811L88.9033 86.0459L87.9355 83.6641L86.7266 81.4053L86.7227 81.3984L86.7197 81.3916L85.5098 79.0713L84.252 76.75L84.2363 76.7217L84.2227 76.6924L83.1182 74.4258L81.6533 72.3438L81.5674 72.2227L81.5078 72.0859L80.4404 69.667L80.4268 69.6357L80.4141 69.6035L79.5137 67.2783L78.8252 66.2451L80.335 65.0391L81.1875 64.3809L82.1025 65.7549ZM53.9668 71.0674L56.1484 72.2822L56.3477 72.3926L56.5049 72.5586L58.2529 74.3936L59.1367 75.0557L56.6387 76.9326L56.3516 76.7178L56.251 76.6426L56.165 76.5518L54.4893 74.791L52.3418 73.5967L52.1758 73.5039L52.0381 73.373L51.0654 72.4473L51.249 72.2188L51.2256 72.1953L53.001 70.1494L53.9668 71.0674ZM46.1328 64.125L46.1602 64.1484L48.1348 65.8877L48.4893 66.1963L46.6084 68.3984L46.585 68.4219L46.5615 68.4688L46.5488 68.4844L46.166 68.1514L46.1592 68.1445L44.1895 66.4092L43.1436 65.5322L44.6699 62.8975L46.1328 64.125ZM63.8926 58.4824L63.918 58.5156L63.9404 58.5508L65.2988 60.5967L67.1533 62.2666L67.3232 62.4189L67.4395 62.6152L68.7334 64.793L69.6357 65.8584L68.3818 66.8438L68.2412 66.9375L68.1475 67.0547L67.3594 67.8125L66.3623 66.6367L66.2812 66.541L66.2178 66.4326L64.9775 64.3428L63.1494 62.6992L63.0088 62.5723L62.9033 62.4141L61.46 60.2373L60.8008 59.3545L62.751 56.9512L63.8926 58.4824ZM37.7949 57.4268L39.9893 58.8018L40.0703 58.8525L38.4941 61.5859L38.1885 61.2139L36.7012 60.2822L37.7852 57.4189L37.7949 57.4268ZM72.3721 47.2363L73.5273 49.6113L74.7002 51.958L74.7188 51.9951L74.7354 52.0332L75.7119 54.2871L77.2422 56.2578L77.3828 56.4375L77.4629 56.6514L78.3408 58.9922L76.6787 60.2812L76.6553 60.3047H76.6318L75.9453 60.8535L75.6934 60.4189L75.6299 60.3105L75.5859 60.1934L74.7334 57.917L73.2256 55.9775L73.1084 55.8271L73.0332 55.6523L71.999 53.2607L70.8369 50.9375L70.833 50.9307L70.8291 50.9229L69.6748 48.5479L69.6709 48.54L69.6221 48.4385L70.6318 47.2109L70.6553 47.1641L70.7021 47.1172L71.6855 45.8027L72.3721 47.2363ZM54.4082 45.5225L54.5811 45.6953L54.6904 45.9141L55.7822 48.1035L57.4863 49.8252L57.5566 49.8965L57.6172 49.9756L59.0879 51.9199L57.1328 54.3301L56.8174 53.8916L55.2871 51.8672L53.4814 50.0449L53.3125 49.874L53.2051 49.6592L52.1748 47.5918L52.3506 47.2734V47.25H52.374L53.6807 44.7969L54.4082 45.5225ZM64.1201 30.6748L64.1738 30.7822L64.2109 30.8965L64.9746 33.2969L66.1689 35.4004L67.6504 37.5273L67.79 37.7285L67.8594 37.9629L68.4824 40.0869L66.5322 42.6729L65.9414 41.8154L65.8047 41.6172L65.7373 41.3867L65.0498 39.042L63.666 37.0576L63.627 37.001L63.5918 36.9404L62.2881 34.6426L62.21 34.5059L62.1631 34.3564L61.3887 31.9199L61.1426 31.4326L62.71 29.2734L62.8975 29.0391L63.0146 28.7578L63.0801 28.6123L64.1201 30.6748ZM44.6523 33.1406L44.7441 33.2432L44.8164 33.3604L46.0879 35.4316L47.9336 37.0684L48.0469 37.1689L48.1377 37.29L49.7236 39.4004L49.7607 39.4502L49.6084 39.7266H49.585V39.75L48.0498 42.6162L47.2549 41.1074L45.832 39.2148L43.9307 37.5303L43.7637 37.3818L43.6465 37.1914L43.3975 36.7861L43.6777 35.877L44.6465 33.1338L44.6523 33.1406ZM55.3145 14.5449L56.4375 16.6768L57.9053 18.7939L58.0195 18.96L58.0869 19.1494L58.9209 21.5078L59.3779 22.2432L57.8242 25.6289L57.6113 25.084L56.2861 22.9531L56.2002 22.8145L56.1455 22.6602L55.3262 20.3389L53.9219 18.3154L53.8701 18.2402L53.8281 18.1602L53.2852 17.1309L55.1953 14.168L55.3145 14.5449Z" fill="black"/>
</svg>
