<svg width="120" height="120" viewBox="0 0 120 120" fill="none" xmlns="http://www.w3.org/2000/svg">
<path d="M53.6724 33.8281L53.813 33.8516L56.2739 34.2148L58.8403 34.1914H58.9575L59.063 34.2031L61.5356 34.543L64.0669 34.4141L64.313 34.4023L64.5356 34.4609L67.02 35.1289L69.5981 35.6562H69.5864L72.1294 36.0078L72.1997 36.0195L72.2817 36.0312L74.8481 36.6758L74.9302 36.6992L75.0005 36.7227L77.356 37.6016L79.8638 38.3047H79.8755L82.4419 38.9727L82.6177 39.0195L82.7817 39.1016L85.0083 40.2969L87.3286 41.2461L87.3872 41.2695L86.8599 42.6641L86.3325 44.0703L86.2388 44.0352H86.2153L86.2036 44.0234L83.8481 43.0742L83.7778 43.0391L83.6958 43.0039L81.5161 41.832L79.1255 41.2109H79.1138L79.1021 41.1992L76.5591 40.4961L76.5005 40.4727L76.4419 40.4609L74.0044 39.5469L71.5552 38.9492H71.5435L69.0942 38.6094H69.0474L69.0005 38.5977L66.4106 38.0703L66.3755 38.0586L66.3286 38.0469L63.9731 37.4141L61.5474 37.543H61.4067L61.2778 37.5312L58.8169 37.1914L56.2388 37.2148L56.1216 37.2266L56.0044 37.2031L53.4849 36.8281L51.0356 36.9102L48.4106 37.0859L48.3989 37.0742L45.8677 37.3789L45.7153 37.4023L45.5513 37.3906L43.1724 37.1562L40.8638 37.8242L40.688 37.8711L40.5005 37.8828L38.0161 37.9531L35.52 38.4805L35.3911 38.5039H35.2622L32.8599 38.5859L30.6099 39.4883L30.4692 39.5469L30.3052 39.5703L27.7739 39.9922L25.2075 40.5781L22.7583 41.2812L22.6763 41.3047L22.5825 41.3164L20.1333 41.7031L17.8481 42.6641L17.8013 42.6875L17.7544 42.6992L15.2583 43.5664L15.1411 43.6016L15.0239 43.625L13.3247 43.918L13.1255 42.6875L11.7544 43.1797L11.6606 42.9453L11.0513 41.2578L12.8208 40.9531L14.3911 40.6836L16.7231 39.875L19.1372 38.8789L19.3013 38.8086L19.4771 38.7852L21.9731 38.375L24.4692 37.6719L24.5044 37.6602L24.5513 37.6484L27.1294 37.0742L27.1646 37.0625H27.1997L29.6138 36.6406L31.9927 35.7031L32.2388 35.6094L32.4966 35.5977L34.9927 35.5156L37.5005 35L37.6177 34.9766L37.7466 34.9648L40.2075 34.8945L42.6099 34.2031L42.8794 34.1211L43.1724 34.1445L45.6567 34.3906L48.1411 34.0977L48.1763 34.0859H48.2231L50.8599 33.9219H50.895L53.5435 33.8281H53.6724Z" fill="black"/>
<path d="M74.8872 75.9307L76.2583 76.1182L76.0942 77.3721L77.5825 77.4541L77.5591 77.6885L77.4771 79.2939L75.8716 79.0947L75.0161 78.9775L73.2114 80.1025L73.1294 80.1494L73.0474 80.1846L70.7856 81.1924L68.7349 82.7041L68.4888 82.8916L68.1841 82.9619L65.6646 83.5127L63.3794 84.4736L63.3208 84.4971L63.2505 84.5205L60.731 85.2939L60.6372 85.3174L58.0708 85.9385L57.9185 85.9854H57.7544L55.1177 86.0322L52.6802 86.4072L52.5396 86.4307L52.4106 86.4189L49.8794 86.3369L47.3481 86.6416L47.0903 86.665L46.8325 86.6064L44.2778 86.0205L41.6997 85.5166V85.5049L39.145 85.1064L39.0396 85.083L38.9458 85.0596L36.4263 84.2744L36.3208 84.251L36.2271 84.2041L33.9067 83.126L31.4692 82.1533L31.4575 82.1416L28.9966 81.1455L28.8091 81.0635L28.6567 80.9463L26.7349 79.4814L24.6021 78.8604L24.4966 78.8252L24.3911 78.7783L24.3091 78.7314L24.9419 77.3721L25.2231 76.7744L25.4575 75.9775L27.8833 76.7041L28.1411 76.7861L28.3638 76.9502L30.3325 78.4385L32.5825 79.3643L35.02 80.3369L35.0669 80.3486L35.1021 80.3721L37.4106 81.4385L39.7192 82.1533L42.2388 82.5635H42.2622L42.2856 82.5752L44.8755 83.0908H44.9106L47.2544 83.6299L49.645 83.3486L49.7622 83.3252L49.8794 83.3369L52.3521 83.4189L54.8481 83.0557L54.9419 83.0439H55.0356L57.5435 82.9854L59.9341 82.3994L62.2896 81.6611L64.6685 80.6885L64.7856 80.6416L64.9146 80.6064L67.1997 80.1025L69.1333 78.6963L69.2622 78.6143L69.4028 78.5439L71.7466 77.4658L73.9028 76.1416L74.3599 75.8721L74.8872 75.9307Z" fill="black"/>
<path d="M78.3228 1.83008L80.7603 2.39258L81.1821 2.48633L81.4868 2.81445L83.2446 4.61914L83.4907 4.86523L83.5962 5.20508L84.3579 7.58398L85.3657 10.0684L85.4595 10.3145L85.4712 10.584L85.5532 13.1738L85.7407 15.6934L86.1392 18.3066L86.1509 18.377L86.1626 18.4355L86.3149 21.0723L86.3267 21.1309V21.1895L86.2798 23.7676L86.561 26.2871L87.0415 28.7715L87.0649 28.8652V28.9707L87.1938 31.3145L88.1899 33.3066L88.2837 33.5059L88.3188 33.7168L88.3423 33.8223L86.854 34.0684L86.5376 34.1152L85.4946 34.6309L84.3813 32.3691L84.2407 32.0996L84.229 31.7949L84.0767 29.2402L83.5962 26.7324L83.5728 26.6152L83.2915 23.9785L83.2798 23.8848V23.791L83.3267 21.2598L83.1743 18.7637L82.7759 16.1387V16.0918L82.7642 16.0332L82.5649 13.4082V13.373L82.5532 13.3379L82.4712 10.9473L81.5688 8.70898L81.5571 8.66211L81.5337 8.60352L80.8423 6.44727L79.6353 5.20508L78.1821 4.86523L76.4126 5.79102L74.4556 7.2207L72.6392 8.9668L72.5571 9.04883L72.4634 9.11914L70.5181 10.4668L69.311 12.4941L69.229 12.623L69.1235 12.7402L67.4009 14.5684L66.1001 16.6777L66.0298 16.7832L65.9478 16.877L64.1899 18.8809L63.8032 19.3262L63.2173 19.3848L60.8267 19.6426L60.6626 19.6543L60.4868 19.6309L57.8618 19.3027V19.291L55.3071 19.1152V19.1035L52.7642 19.0801H52.6821L52.6001 19.0684L50.1392 18.752L47.6899 19.0684H47.6665L47.6431 19.0801L45.0063 19.3145H44.936L42.5688 19.4082L40.4009 20.4043L40.2954 20.4512L40.2017 20.4746L39.229 20.7559L38.8071 19.3262L38.3853 17.8848L39.229 17.6387L41.5845 16.5605L41.854 16.4434L42.147 16.4316L44.7368 16.3262L47.3149 16.0918L49.9517 15.7637L50.1392 15.7402L50.3267 15.7637L52.8696 16.0801L55.436 16.1152H55.5298L58.1665 16.3145H58.2017L58.2368 16.3262L60.6978 16.6309L62.3267 16.4668L63.6392 14.9551L64.9517 12.8574L65.022 12.7285L65.1274 12.623L66.8384 10.7832L68.1274 8.65039L68.2915 8.36914L68.5493 8.19336L70.6235 6.72852L72.4634 4.98242L72.5337 4.91211L72.6157 4.85352L74.7485 3.30664L74.8306 3.23633L74.936 3.18945L77.2915 1.95898L77.7837 1.70117L78.3228 1.83008Z" fill="black"/>
<path d="M23.1143 1.81934L25.458 3.12012L25.54 3.16699L25.6104 3.22559L27.7314 4.78418H27.7197L29.8643 6.30762L29.958 6.37793L30.04 6.44824L31.9268 8.2998L31.9971 8.37012L32.0674 8.46387L33.6143 10.4912L35.3252 12.4717L37.0713 14.4756L37.1768 14.5928L37.2588 14.7334L38.5127 16.9717L39.8135 18.9873L39.8721 19.0576L37.4346 20.8154L37.376 20.7334L37.3525 20.71L37.3291 20.6748L35.9932 18.6006L35.9697 18.5537L35.9463 18.5186L34.7158 16.3154L33.0752 14.4521L33.0635 14.4404L31.3408 12.4482L31.3174 12.4131L31.2822 12.3779L29.7588 10.374L28.0361 8.68652L25.9619 7.20996L25.9502 7.19824L23.9463 5.72168L22.3291 4.81934L21.0518 5.45215L19.8799 6.99902L19.1768 9.28418L19.1533 9.36621L19.1182 9.43652L18.0986 11.71L17.5479 14.1709L17.0791 16.7021L16.7861 19.2217L16.7744 19.3623L16.7275 19.5029L16.0244 21.7529L16.2939 24.0967L16.3174 24.2139L16.3057 24.3311L16.2002 26.6865L16.9619 28.8779L17.0908 29.2764L17.0088 29.6748L16.4814 31.9951L16.4932 32.0068L16.001 34.6436L15.9893 34.749L15.9541 34.8428L15.1572 37.2451L14.6533 39.6592L14.4072 42.2021V42.2725L14.3955 42.3311L13.9619 44.7217L14.1846 47.1943V47.2178L14.1963 47.2412L14.3369 49.8779V49.9951L14.29 52.4561L14.9697 54.7764L15.0049 54.8936L15.0166 55.0107L15.333 57.5771H15.3447L15.7314 60.0264L16.5986 62.417L17.4775 64.9014L18.3799 67.4326L17.2314 67.8311L17.2432 67.8545L17.7002 69.2842L17.4307 69.3662L16.0479 69.8115L15.5557 68.4404L14.6533 65.9092L13.7744 63.4365L12.8721 60.9404L12.8252 60.7998L12.8018 60.6592L12.3799 58.0459L12.3682 58.0225V57.999L12.0635 55.4912L11.3486 53.042L11.2783 52.8193L11.29 52.5967L11.3369 49.9365L11.1963 47.4639L10.9619 44.8271L10.9385 44.6162L10.9736 44.417L11.4189 41.9209L11.6768 39.2959L11.7002 39.1318L12.2393 36.5537L12.251 36.4717L12.2861 36.3896L13.0713 33.9873L13.54 31.4561L13.5518 31.4326V31.4092L13.9854 29.4404L13.2822 27.3896L13.1885 27.1201L13.2002 26.8389L13.2939 24.2959L13.0127 21.7881L12.9775 21.4717L13.8213 18.7295L14.1143 16.2568V16.21L14.126 16.1514L14.6182 13.5615V13.5264L14.6299 13.5029L15.2041 10.9248L15.2393 10.7842L15.2979 10.6553L16.3408 8.2998L17.1025 5.87402L17.1846 5.62793L17.3369 5.42871L18.8721 3.36621L19.0947 3.08496L19.4111 2.9209L21.7197 1.78418L22.4229 1.44434L23.1143 1.81934Z" fill="black"/>
<path d="M51.6816 22.9941L54.2012 23.2168H56.8496V23.2285L59.3574 23.0059L59.4277 22.9941L59.4863 23.0059L62.1348 23.0176H62.2754L64.9004 23.2754H67.373L70.0215 23.2168L70.209 23.2051L70.3965 23.252L72.9863 23.8496L72.9746 23.8613L75.2715 24.2832H75.377L75.3652 24.2949H75.4004L75.3535 24.5293L75.2246 25.7715L75.0723 27.2715L74.9668 27.2598L74.9082 27.248L74.8613 27.2363L72.377 26.791L72.3066 26.7676L69.9277 26.2168L67.4434 26.2754H64.6895L64.6074 26.2637L62.0996 26.0059L59.5801 25.9941L56.9785 26.2168H56.8379L54.2012 26.2051H54.084L51.6465 25.9941L49.2441 26.498L49.0918 26.5332H48.9277L46.3848 26.5215L43.8535 26.8496L43.7129 26.8613L43.584 26.8496L41.0176 26.709L38.5449 26.9785L35.9316 27.2949L35.9199 27.2832L33.377 27.6934L33.2129 27.7168L33.0488 27.7051L30.6348 27.541L28.3496 28.2676L28.1035 28.3379L27.8457 28.3262L26.5684 28.2793L26.709 25.2793L27.7051 25.3145L30.0254 24.5996L30.2949 24.5176L30.5762 24.5293L33.0723 24.6934L35.5332 24.3184H35.5566L35.5918 24.3066L38.2051 24.002H38.2168L40.8535 23.7207L40.9707 23.709H41.0996L43.6191 23.8613L46.1035 23.5332L46.1973 23.5215H46.291L48.7988 23.5332L51.248 23.0176L51.459 22.9707L51.6816 22.9941Z" fill="black"/>
<path d="M93.167 75.4517L95.0771 76.9165L96.8467 77.5376L98.9561 77.0103L99.0264 76.9868L99.0967 76.9751L101.71 76.5767L102.308 76.4829L102.812 76.8345L104.968 78.3579L105.085 78.4399L105.179 78.5337L106.96 80.3618L107.229 80.6313L107.323 81.0063L107.944 83.2329L109.198 84.9087L111.003 86.6196L111.144 86.7485L111.249 86.9126L112.597 89.0923L112.796 89.4087L112.819 89.7954L112.96 92.3735V92.4438L112.995 95.104L113.007 95.4321L112.866 95.7251L111.8 98.1743L111.788 98.186L111.776 98.2095L110.651 100.553L110.663 100.565L109.55 102.967L109.503 103.061L109.444 103.167L107.979 105.358L107.944 105.428L107.886 105.487L106.304 107.397L105.284 109.471L104.757 111.874L104.745 111.944L104.722 112.014L103.937 114.452L103.62 116.807L103.608 116.948L103.55 117.088L103.526 117.194L102.108 116.69L101.616 116.514L100.655 116.385L101.007 113.877L101.019 113.749L101.065 113.62L101.839 111.159L102.401 108.651L102.437 108.475L102.519 108.311L103.702 105.92L103.772 105.768L103.89 105.627L105.53 103.624L106.89 101.561L107.933 99.311L107.944 99.2993V99.2876L109.069 96.9204L109.983 94.8228L109.96 92.479V92.4673L109.831 90.3345L108.823 88.6821L107.065 87.0063L106.972 86.9243L106.89 86.8188L105.378 84.8032L105.214 84.5806L105.132 84.311L104.534 82.1665L103.116 80.7134L101.569 79.6235L99.5889 79.9282L97.1748 80.561L96.7412 80.6782L96.3076 80.5259L93.8701 79.6704L93.6475 79.6001L93.46 79.4478L91.8545 78.229L90.0498 78.5103L88.0811 79.2837L86.5811 80.6079L85.7725 82.6938L85.4678 83.479L84.6357 83.6196L82.3389 84.0181L80.6631 85.1313L79.3975 86.9829L78.4482 88.9165L78.5771 91.2251L78.5889 91.272V91.3306L78.542 93.8384L78.6943 96.2642L79.4092 98.7134V98.7251L80.1123 101.268L80.1475 101.385L80.1592 101.526L80.3936 104.022L80.9443 106.588L81.0264 106.952L80.9209 107.315L80.2061 109.811L79.8076 112.319L79.7959 112.307L79.4443 114.92L79.4326 115.061L79.3857 115.19L78.8115 116.924L78.3545 118.331L76.9482 117.897L76.7139 117.827L77.1592 116.385V116.374L75.9639 115.999L76.5029 114.37L76.8311 111.874L76.8428 111.85V111.827L77.2764 109.237L77.2881 109.155L77.3115 109.073L77.9326 106.846L77.4521 104.608L77.4404 104.526L77.4287 104.432L77.1943 101.936L76.5146 99.5337L76.5264 99.522L75.7881 97.0024L75.7412 96.8501L75.7295 96.686L75.5537 94.0376L75.542 93.979V93.9204L75.5889 91.3892L75.4365 88.7056L75.4131 88.3188L75.5889 87.9673L76.7607 85.5649L76.8076 85.4712L76.8662 85.3774L78.3545 83.2095L78.5186 82.9751L78.7646 82.811L80.9678 81.3462L81.2256 81.1704L81.5303 81.1235L83.2881 80.8071L83.9326 79.1899L84.0615 78.8501L84.3311 78.6157L86.2881 76.8696L86.4873 76.6938L86.7334 76.6001L89.0889 75.6743L89.2412 75.6157L89.4053 75.5806L92.0186 75.1704L92.6631 75.0649L93.167 75.4517Z" fill="black"/>
<path d="M77 79.9878L77.8086 80.5269L78.2656 80.7729L78.2305 80.8081L78.2422 80.8198L78.1953 80.9019L77.0703 83.0112L77.0117 83.1284L75.3242 85.2378L74.1406 87.4292L74.1055 87.4878L74.0703 87.5347L72.6055 89.7495L72.5469 89.8315L72.4766 89.9136L70.707 91.894L69.1016 93.8276L67.5078 95.9487L67.4492 96.0308L65.4336 98.0464L65.3516 98.1167L63.3828 99.605L61.7891 101.55L61.6602 101.714L61.4844 101.832L59.3047 103.343L57.2422 104.914L57.0781 105.042L56.8906 105.113L54.4766 106.074L52.0742 107.164L51.7695 107.292H51.4297L48.8633 107.246L48.5586 107.234L48.2891 107.117L45.8516 106.039L45.6289 105.945L45.4531 105.781L43.6016 104.105L41.3984 103.039L41.1758 102.933L41 102.757L39.2188 100.988L37.168 99.3237L37.0273 99.2065L36.9102 99.0659L35.4102 97.1089L33.4297 95.6792L33.2656 95.562L33.1367 95.3979L31.4844 93.3237V93.3354L29.832 91.2729V91.2612L28.1562 89.2339L28.0859 89.1401L28.0156 89.0347L26.7617 86.855L25.1328 84.9565L25.0742 84.8862L25.0273 84.8159L23.5273 82.6479L23.5039 82.6011L23.4805 82.5659L22.5781 81.0659L25.1562 79.519L26.0586 81.019H26.0469L27.4766 83.0815L29.1289 85.0034L29.2227 85.1089L29.293 85.2378L30.5586 87.4292L32.1523 89.3745L32.1641 89.3862L33.8281 91.4487L35.3633 93.3823L37.3672 94.8237L37.543 94.9526L37.6719 95.1284L39.1953 97.1089L41.1055 98.6558L41.2227 98.7495L42.9336 100.449L45.125 101.515L45.3125 101.609L45.4766 101.75L47.293 103.402L49.2383 104.246L51.1367 104.281L53.2461 103.343L53.2695 103.32L53.3047 103.308L55.5664 102.406L57.5352 100.917L57.5703 100.894L57.5938 100.871L59.5977 99.4644L61.1797 97.5776L61.2852 97.4487L61.4258 97.3433L63.4297 95.7964L65.1875 94.0386L66.7109 92.0229L66.7578 91.9761L68.4336 89.937L68.4453 89.9136L68.4688 89.8901L70.1562 88.0034L71.5625 85.8823L72.7812 83.6558L72.8398 83.5503L72.9219 83.4448L74.5039 81.4526L75.6172 79.3667L75.6523 79.2964L75.6992 79.2378L75.7578 79.1558L77 79.9878Z" fill="black"/>
<path d="M51.125 58.7754L53.7617 58.834H54.043L54.3008 58.9395L56.5508 59.8535L57.5117 60.2402L57.4883 61.2715L57.4297 63.4863L57.418 64.3418L56.668 64.7637L54.7812 65.7949L53.7383 67.623L53.6094 67.834L53.4336 67.998L51.5469 69.6621L51.4883 69.6035L50.6211 70.9746L49.3086 69.8027L48.1953 68.7949L48.0781 68.6895L47.9844 68.5605L46.6602 66.7324L44.7617 65.1152L44.7031 65.0684L44.6562 65.0098L42.8984 63.1934L41.832 62.0801L42.9688 61.0488L44.8203 59.3496L45.2539 58.9629H45.8398L48.4648 58.9746V58.9863L50.9844 58.7871L51.0547 58.7754H51.125ZM50.3633 68.6191L50.9844 69.0293L50.7266 68.7363L50.5039 68.6191L50.4102 68.5723L50.3633 68.6191ZM48.5703 61.9746H48.4531L46.4023 61.9629L46.1211 62.209L46.707 62.8301L48.7344 64.5645L48.875 64.6816L48.9805 64.8223L50.3047 66.6504L50.3633 66.6973L51.2539 65.9004L52.3906 63.9551L52.6016 63.5918L52.9648 63.3926L54.4414 62.5488L54.4531 62.2324L53.4219 61.8105L51.1719 61.7754L48.5703 61.9746Z" fill="black"/>
<path d="M94.5874 91.6362L96.1694 92.4097L96.439 92.5386L96.6265 92.7495L98.2671 94.5659L98.396 94.7065L98.4897 94.8823L99.6147 97.0503L101.267 98.8667L101.595 99.23L101.642 99.7222L101.912 102.277L101.947 102.664L101.783 103.027L100.798 105.277L100.552 105.828L99.9897 106.062L97.6694 107.011L97.3179 107.152L96.9312 107.117L94.3765 106.812L94.2241 106.8L94.0718 106.742L91.7632 105.968L89.3374 105.863H89.2437L89.1616 105.851L86.6304 105.417L85.9976 105.3L85.6343 104.773L84.1812 102.617L83.8647 102.148L83.9468 101.585L84.2632 99.1011L84.3218 98.6206L84.6616 98.2573L86.3843 96.4409L86.4546 96.3706L86.5366 96.3003L88.5171 94.7065L90.3687 92.9487L90.6147 92.7261L90.9312 92.6089L92.3726 92.1284L92.2905 90.5229L94.5874 91.6362ZM92.1968 95.3394L90.5562 96.9214L90.5093 96.9683L90.4507 97.0151L88.5171 98.5386L87.1694 99.9565L86.9937 101.41L87.7671 102.558L89.6304 102.875L92.1265 102.992H92.3374L92.5366 103.062L94.8687 103.847L96.896 104.082L98.2905 103.507L98.8765 102.171L98.7124 100.519L97.271 98.9253L97.1304 98.7847L97.0483 98.6089L95.9233 96.4526L94.5874 94.9644L94.0718 94.7183L92.1968 95.3394ZM93.7905 93.1948L93.814 93.2183V93.1948H93.7905Z" fill="black"/>
<path d="M19.1611 67.5664L19.1729 67.5781L19.1846 67.6016L20.5322 69.7344L20.5557 69.7812L21.7979 71.8906L23.5557 73.625V73.6367L23.5674 73.6484L25.4189 75.5352L26.0635 76.1914L25.7588 77.0703L24.9854 79.332L24.9268 79.4961L24.833 79.6484L23.415 81.875L22.2783 84.1016L22.2549 84.1602L22.2197 84.207L20.8486 86.457L20.8252 86.4922L20.79 86.5391L19.3838 88.5195L18.6689 90.8516L18.6221 90.9805L18.5635 91.0977L17.3799 93.3125L16.5479 95.7148L16.5127 95.8203L16.4658 95.9258L15.2939 98.1523L14.6025 100.461L14.6143 100.473L13.9697 103.039L13.5479 105.523L13.5244 105.664L13.4775 105.793L12.6221 108.02L12.7275 110.398V110.562L12.7041 110.727L12.2471 113.188L12.2822 115.672V115.801L12.2588 115.93L12.0947 116.926L9.1416 116.457L9.28223 115.543L9.24707 113.07V112.93L9.27051 112.777L9.72754 110.328L9.62207 107.832V107.527L9.72754 107.246L10.6182 104.844L11.04 102.418L11.0518 102.359L11.0635 102.312L11.6963 99.7461L11.708 99.7227L11.7197 99.6875L12.4697 97.1562L12.5049 97.0156L12.5752 96.8867L13.7588 94.6016L14.5791 92.2461L14.626 92.1289L14.6729 92.0352L15.8447 89.832L16.6064 87.3945L16.6768 87.1719L16.8057 86.9844L18.2705 84.8867L19.665 82.6367L20.8135 80.3867L20.8486 80.3164L20.8838 80.2578L22.1963 78.1719L22.6182 76.9648L21.4229 75.7461V75.7344L19.5596 73.8945L19.4189 73.7539L19.3135 73.5898L18.001 71.3398L16.6416 69.207V69.1953L16.6064 69.1484L17.8604 68.3164L19.1025 67.4844L19.1611 67.5664Z" fill="black"/>
<path d="M101.036 26.4795L103.145 27.7686L104.211 28.4248L103.754 29.5967L102.817 31.9873L102.77 32.0928L102.711 32.1982L101.364 34.4482L101.305 34.5537L101.223 34.6475L99.5122 36.6748L99.2896 36.9443L98.9731 37.085L96.7231 38.0693L95.0005 39.5811L92.8794 37.46L92.9849 37.3545L93.0317 37.3193L94.9419 35.6553L95.1177 35.5029L95.3286 35.4092L97.4263 34.4834L98.856 32.7959L100.04 30.8037L100.485 29.6553L99.8521 29.2686L97.8247 29.4092L95.3872 29.7959L93.3013 30.4404L91.7427 32.0811L91.731 32.0928V32.1045L89.8794 33.9443L89.8911 33.9561L88.5435 35.3389L88.4263 37.0615L89.0474 39.3818L89.0708 39.4404L89.0825 39.5107L89.5161 42.124L89.5278 42.1592V42.1943L89.856 44.8311L89.8794 45.0537L89.8442 45.2764L89.3989 47.7021L89.6802 50.1396L89.7153 50.3857L89.6685 50.6201L89.1411 53.1396L88.8833 55.7061L88.8599 55.8818L88.8013 56.0576L87.9575 58.3662L87.8169 60.8389L87.8052 61.0498L87.7231 61.249L86.8208 63.7451V63.7803L85.8599 66.2412V66.2646L84.9575 68.4678L84.3716 69.9326L82.9419 69.2646L82.8364 69.2178L83.4692 67.8584L82.1802 67.3428L83.0708 65.1396L84.02 62.7021L84.8286 60.4521L84.9927 57.9678L85.0044 57.7568L85.0747 57.5576L85.9067 55.2256L86.1646 52.7646L86.1763 52.6826L86.188 52.6123L86.6685 50.2451L86.3989 47.8193L86.3755 47.5967L86.4106 47.3857L86.8442 44.96L86.563 42.6279L86.1177 40.0146H86.106L85.4731 37.6006L85.4028 37.3662L85.4263 37.1084L85.5903 34.6006L85.6255 34.0498L86.0122 33.6631L87.7349 31.8701H87.7466V31.8584L89.5864 29.9951L91.4146 28.085L91.6841 27.8037L92.0591 27.6865L94.6138 26.9014L94.7192 26.8779L94.813 26.8545L97.3911 26.4443L97.4614 26.4326H97.5317L100.157 26.2568L100.625 26.2217L101.036 26.4795Z" fill="black"/>
<path d="M64.8735 62.9102L64.8853 62.8984L67.3813 63.0977L69.936 62.875L70.1938 62.8516L70.4399 62.9102L72.9712 63.5664L75.5376 64.1289L78.0806 64.5742L78.1743 64.5859L78.2681 64.6094L80.7876 65.3945L80.8696 65.418L80.9634 65.4648L83.354 66.543L85.7446 67.4336H85.7329L88.2173 68.3359L88.3931 68.3945L88.5454 68.5L90.6431 69.918L92.811 71.0664L92.9048 71.1133L91.5923 73.8086L91.4985 73.7734L91.4751 73.7617L91.4517 73.7383L89.2134 72.5547L89.1431 72.5195L89.0728 72.4727L87.0454 71.1016L84.7017 70.2578V70.2461H84.6899L82.229 69.3203L82.1704 69.3086L82.1235 69.2852L79.8267 68.2422L77.4712 67.5039L74.9634 67.0703H74.9282L74.8931 67.0586L72.3149 66.4961L72.2915 66.4844H72.2681L69.9478 65.875L67.5337 66.0859L67.4048 66.0977L67.2876 66.0859L64.6626 65.8867H64.5806L64.0298 65.8164L64.4048 62.8398L64.8735 62.9102Z" fill="black"/>
<path d="M35.5659 64.3203L35.7651 65.8086L35.6597 65.8203L35.6128 65.832H35.5542L33.0229 65.9844H32.894L30.4565 65.9141L28.0659 66.5L25.5112 67.1328L25.4175 67.1562L22.8511 67.6367L20.5073 68.4219L18.2573 69.4531L18.1987 69.4766L18.1519 69.5L15.6792 70.4023L15.6089 70.4258L13.312 71.1523L11.4253 72.6289L11.3667 72.6641L11.3198 72.6992L9.18701 74.0703L8.35498 74.6094L7.53467 74.0586L7.46436 74.0117L8.30811 72.7695L8.31982 72.7461L7.55811 71.5508L9.59717 70.2266L11.7065 68.6211L11.9175 68.457L12.1636 68.375L14.7065 67.5664L17.0151 66.7227L19.4175 65.6328L19.4878 65.5977L19.5698 65.5625L22.0776 64.7422L22.1714 64.707L22.2769 64.6953L24.8667 64.2031V64.2148L27.3394 63.5938H27.3511L29.9292 62.9609L30.1167 62.9141H30.3159L32.8823 62.9844L35.2847 62.8555V62.8438L35.3784 62.832L35.5659 64.3203Z" fill="black"/>
<path d="M25.9082 10.8438L26.0488 10.9844L26.1426 11.1484L27.4434 13.3984L28.9199 15.4961L29.0137 15.625L29.0723 15.7656L30.127 18.2148L30.2207 18.4609L30.2441 18.7188L30.3965 21.3789L30.4082 21.5781L30.3613 21.7773L29.8223 24.332L29.7754 24.5781L29.6465 24.7891L28.2988 27.0742L28.1465 27.3555L27.877 27.5312L25.6973 29.0898L25.5098 29.2188L25.2871 29.2891L22.873 30.0742L20.5879 31.2109L20.377 31.3164L20.1543 31.3516L17.5293 31.75H17.4941L17.4473 31.7617L16.1465 31.8789L16.0059 30.3906L15.8652 28.8906L17.166 28.7734L19.4746 28.4102L21.6543 27.332L21.748 27.2852L21.8535 27.25L24.1387 26.5L25.873 25.2695L26.9395 23.4766L27.3848 21.3672L27.2559 19.1523L26.3652 17.0781L24.9473 15.0508L24.9004 15.0039L24.877 14.9453L23.6348 12.8008L21.9824 11.1367L21.8418 10.9961L21.748 10.832L21.7012 10.7383L23.002 10L23.2949 9.83594L24.1152 9.02734L25.9082 10.8438Z" fill="black"/>
<path d="M78.0405 10.2539L78.4976 10.5L79.8101 11.2266L79.7632 11.3203L79.6929 11.4375L79.6108 11.543L77.9819 13.5L77.9585 13.5352L77.9351 13.5586L76.2944 15.3164L75.3101 17.5312L74.6538 19.6875L74.3374 21.8789L74.9233 23.7305L76.3765 25.3477L78.3218 26.9062L80.1616 28.1367L82.5054 28.6172L82.5991 28.6406L82.6812 28.6641L85.1655 29.4961L84.8608 30.3867L85.0015 30.832L85.4468 32.2617L85.1304 32.3555L84.6733 32.4961L84.2163 32.3438L81.8022 31.5352L79.2944 31.043L79.0015 30.9844L78.7437 30.8086L76.5405 29.3203L76.4819 29.2852L76.4351 29.25L74.4077 27.6094L74.314 27.5391L74.2319 27.4453L72.4858 25.5117L72.2632 25.2656L72.1577 24.9492L71.3843 22.4414L71.2788 22.1133L71.3257 21.7852L71.689 19.1953L71.7124 19.0781L71.7358 18.9727L72.5093 16.4766L72.5327 16.3945L72.5679 16.3008L73.6577 13.8867L73.7632 13.6641L73.9272 13.4883L75.6733 11.5898L77.2905 9.63281L78.0405 10.2539Z" fill="black"/>
<path d="M16.0576 102.037L18.4482 103.162L18.5654 103.232L18.6826 103.314L20.8154 104.873L20.9326 104.955L21.0264 105.06L22.8193 106.97L24.624 108.88L24.6709 108.927L26.4053 110.943L26.5576 111.107L26.6396 111.318L27.6826 113.673L28.8428 115.923L28.1865 116.251L27.5654 116.697L26.3232 117.541L26.2646 117.458L26.1709 117.294L25.0107 115.033L24.9873 114.998L24.9756 114.962L23.9795 112.724L22.4561 110.943L20.6396 109.033L18.9287 107.205L16.9951 105.798L14.7803 104.744H14.7568L14.7334 104.732L13.292 103.982L12.0498 103.349L12.5889 102.072L12.624 101.99L14.0068 102.564L14.6514 101.322L16.0576 102.037Z" fill="black"/>
<path d="M51.0835 69.8516L51.4233 69.957L51.6694 70.2031L53.4272 71.9727L55.0913 73.3672L57.0835 73.7539L59.3452 73.5195L61.5249 72.9336L63.5757 71.7383L63.9858 71.4336L64.9116 72.6172L65.8257 73.8008L65.3218 74.1875L65.2515 74.2461L65.1694 74.293L62.896 75.6289L62.7202 75.7344L62.521 75.7812L60.0015 76.4609L59.8726 76.4961L57.1772 76.7656L56.9663 76.7891L56.7554 76.7422L54.1538 76.25L53.7671 76.1797L53.4624 75.9219L51.4351 74.2109L51.3765 74.1758L51.3296 74.1289L49.5366 72.3242L50.4507 71.4219L50.5093 71.2344L50.9897 69.8164L51.0835 69.8516Z" fill="black"/>
<path d="M91.2744 81.2642L91.8721 81.2759L92.2939 81.6978L94.0752 83.4673L94.5557 83.936L94.5205 84.6157L94.3682 87.147L94.333 87.7915L93.8408 88.2017L92.0947 89.6899L91.2393 90.4165L90.3018 89.7954L88.1455 88.3892L87.4424 87.9204L87.4658 87.0767L87.5713 84.4282L87.5947 83.8306L88.0283 83.4204L89.7275 81.7563L90.7002 82.7524H90.7119L90.8643 82.6235L90.8994 81.2524L91.2744 81.2642ZM90.5361 85.1431L90.4893 86.3384L91.0049 86.6665L91.415 86.3267L91.4736 85.1196L91.0283 84.6626L90.5361 85.1431Z" fill="black"/>
<path d="M109.026 93.0869L108.464 93.9189L106.987 96.0986L106.835 96.333L106.601 96.4854L104.632 97.8682L103.823 96.7197L103.8 96.7314L103.542 96.8018L103.167 97.6221L102.546 97.3291L102.077 97.1182L100.331 93.626L100.858 92.8877L102.64 90.4385L105.347 89.5361L106.425 89.1846L109.026 93.0869ZM104.491 92.9814L103.823 93.8955L104.14 94.54L104.655 94.1768L105.405 93.0635L105.194 92.7471L104.491 92.9814Z" fill="black"/>
<path d="M90.5576 36.6797L93.1475 37.2188L93.2061 37.2305L93.2764 37.2422L95.7725 38.0039L95.9951 38.0625L96.1943 38.1914L98.3857 39.6797L98.4795 39.75L98.5732 39.8438L100.483 41.6719L100.601 41.7773L100.694 41.9062L102.171 44.0977L102.194 44.1211L102.206 44.1562L103.577 46.4297L104.011 47.1562L103.624 47.9062L102.464 50.1094L102.007 50.9766L101.034 50.9062L98.4326 50.7305L95.8662 50.8125H95.5381L95.2334 50.6953L92.7725 49.6641L92.6904 49.6289L92.6084 49.582L90.2881 48.2578L90.1592 48.1758L90.042 48.082L88.3896 46.6289L88.1787 46.6055L88.1904 46.4648L88.0615 46.3477L88.249 46.125L88.4014 45.1172L88.624 43.6406L89.2686 43.7344L89.7021 43.8047L90.0303 44.0859L91.8936 45.7148L94.0498 46.9453L96.0889 47.8008L98.4443 47.7305H98.5967L100.261 47.8477L100.565 47.25L99.6865 45.7734L98.292 43.7109L96.5576 42.0703L94.7061 40.8047L92.4092 40.125V40.1133L90.2061 39.668L87.9561 40.0312L87.6162 40.0898L87.2764 39.9844L87.1826 39.9492L87.6279 38.5195L87.6748 38.3203L87.4873 37.0664L90.0186 36.668L90.2881 36.6328L90.5576 36.6797Z" fill="black"/>
<path d="M67.4312 67.1416L67.5952 67.1768L67.7476 67.2471L69.9858 68.3135L72.4819 69.1104L72.5757 69.1338L72.6577 69.1807L75.0601 70.2939L75.2007 70.3643L75.3179 70.4463L77.4507 72.0283L77.4976 72.0518L77.5327 72.0869L78.4351 72.8604L77.4624 73.9971L76.4897 75.1455L75.5874 74.3721H75.5757L73.6538 72.9541L71.4858 71.9346L69.0483 71.1611L68.9546 71.1377L68.8608 71.0908L66.5874 70.0244L64.2905 69.5088L64.1616 69.4854L64.0444 69.4385L63.9507 69.3916L64.5249 68.0088L64.7358 67.4814L64.9468 66.5791L67.4312 67.1416Z" fill="black"/>
<path d="M37.0659 69.1616L36.9722 69.1968L36.9487 69.2202L36.9136 69.2319L34.5229 70.0991L34.4526 70.1226L34.3589 70.146L31.9331 70.7202L29.8003 71.8569L27.5034 73.1343L27.4917 73.146H27.4683L25.3003 74.271L24.3862 75.103L23.4019 74.0015L22.394 75.1147L22.3823 75.103L21.1519 73.9897L22.3823 72.8647L23.437 71.9155L23.5776 71.7866L23.7534 71.7046L26.0972 70.4858L28.3589 69.2437L28.3706 69.2319H28.3823L30.7261 67.978L30.8901 67.896L31.0776 67.8491L33.562 67.2632L35.8823 66.4077L35.9175 66.396L37.0659 69.1616Z" fill="black"/>
<path d="M100.931 82.9282L102.771 84.5806L103.544 85.272L103.169 86.2329L102.244 88.6704L102.056 89.1626L101.599 89.4321L99.4312 90.7095L98.7163 89.5024V89.5142L98.564 89.5845V91.0142H97.6382L97.1812 90.4282L95.7046 88.5063L95.1772 87.8267L95.5054 87.0298L96.478 84.686L96.6655 84.2173L97.0991 83.9595L99.1616 82.7524L100.111 82.1899L100.931 82.9282ZM99.0444 86.2915L98.6108 87.3579L98.7866 87.5923L99.6304 87.1001L99.9937 86.1157L99.7358 85.8813L99.0444 86.2915Z" fill="black"/>
<path d="M35.9043 42.9697L38.3066 43.8721L38.4473 43.9307L38.5762 44.001L40.8379 45.4072L41.166 45.6182L41.3535 45.958L42.6543 48.3018L42.7246 48.4307L42.7715 48.583L43.5684 51.1611L43.8145 51.958L43.2637 52.5908L43.0176 52.8721L41.8809 51.8877L41.6934 51.7236L40.6973 52.04L39.9355 49.5908L38.916 47.751L37.1113 46.626L35.9746 46.2041L35.4355 47.0361L35.4121 49.2744L35.377 51.8994V52.4619L35.002 52.8838L33.6426 54.4307L32.9395 55.2275L31.9551 54.8291L29.5762 53.8682L29.4004 53.7979L29.248 53.6924L27.1035 52.1338L26.752 51.876L26.5996 51.4775L25.5918 49.0283L25.5332 48.876L25.5098 48.7236L25.0762 46.2275L26.3887 45.9932L26.4824 45.8994L27.5371 44.833L27.9473 45.2432L28.0293 45.7119L28.4277 48.0205L29.2129 49.9658L30.877 51.1611L32.084 51.6416L32.377 51.3018L32.4121 49.2275L32.4473 46.5674L32.459 46.1338L32.6934 45.7705L34.123 43.5674L34.7793 42.5479L35.9043 42.9697Z" fill="black"/>
<path d="M82.8569 68.3164L83.6187 68.8086L84.1343 69.0781L84.0991 69.125L84.1108 69.1367L84.0874 69.1602L82.9741 71.3516L82.8687 71.5508L82.7163 71.7148L80.9116 73.5547L79.3296 75.5117L78.2866 77.2344L78.1929 78.7227L79.5757 80.0352L79.646 80.1055L79.7046 80.1758L81.4155 82.2617L83.4077 84.7109H80.0796V83.3398L79.0835 84.1602L77.4429 82.1445L75.6265 80.4336L75.1108 79.9414L75.1577 79.2383L75.3218 76.6836L75.3452 76.3203L75.5327 76.0039L76.8452 73.8477L76.8921 73.7539L76.9624 73.6836L78.6265 71.6211L78.6616 71.5625L78.7202 71.5156L80.4194 69.7578L81.4624 67.7188L81.4976 67.6484L81.5444 67.5781L81.5913 67.4961L82.8569 68.3164Z" fill="black"/>
<path d="M74.3838 46.0474L74.4658 46.1294L75.79 46.3286L75.4268 48.8716L75.3682 49.2349L75.1572 49.5396L73.6221 51.6724L73.5635 51.7427L73.4932 51.813L71.7002 53.7349L71.501 53.9575L71.2197 54.0864L68.7588 55.188L68.4775 55.3169H68.1729L65.9346 55.3638L65.9111 53.8755L64.7393 54.813L62.8408 52.4341L65.876 52.3638L67.7979 52.3169L69.7197 51.4614L71.2314 49.8442L72.4971 48.0747L72.8252 45.9067L72.8955 45.3911L73.2705 45.0396L73.3408 44.9692L74.3838 46.0474Z" fill="black"/>
<path d="M63.77 43.3477L66.1021 43.5L67.1099 43.5703L67.4263 44.5195L68.27 47.0391L68.3521 47.2852L68.3403 47.5312L68.3169 50.1797V50.2383L68.2114 52.3945L68.2466 52.4414L68.2114 52.4531L68.1997 52.8984L67.5903 52.8633L66.9927 53.2617L65.7388 54.0938L65.4458 53.6602L65.188 53.25L65.2114 52.7695L65.3169 50.1094L65.3286 47.7305L64.895 46.4297L63.9692 46.3711L62.3052 47.2383L61.145 48.8906L60.5474 51.2109L60.5239 51.3281L60.4653 51.4453L59.481 53.6602L59.1177 56.0039L59.0825 56.2266L58.9888 56.4258L58.9536 56.5195L57.5942 55.875L57.2896 55.7227L56.1528 55.5586L56.5278 53.0391L56.563 52.8398L56.645 52.6523L57.6646 50.332L58.3091 47.8945L58.3794 47.6367L58.5317 47.4141L60.0786 45.2227L60.2896 44.9297L60.606 44.7539L62.9731 43.5117L63.3364 43.3242L63.77 43.3477Z" fill="black"/>
<path d="M50.3535 68.7769L50.4121 68.8472L51.7715 68.9292L51.6309 71.4839L51.5957 72.0581L51.1973 72.4565L49.3574 74.3198L49.2754 74.4019L49.1816 74.4722L47.0723 76.0425L46.8965 76.1714L46.6855 76.2417L44.1777 77.1675L43.9551 77.2495H43.7207L41.0605 77.3433H40.9199L40.8027 77.3315L38.2012 76.9565L37.9199 76.9214L37.6738 76.7808L35.3535 75.48L34.8613 75.1987L34.6738 74.6714L34.1348 73.1245L33.5254 71.3784L35.3535 71.144L35.4473 71.1323L35.6465 72.5972L36.9707 72.1401L37.3223 73.1479L38.8926 74.0269L41.084 74.3315L43.3926 74.2495L45.4434 73.4995L47.2949 72.1284L48.6543 70.7456L48.7832 68.7534L48.8184 68.1206L49.2988 67.7104L49.3809 67.6401L50.3535 68.7769Z" fill="black"/>
<path d="M68.2598 42.3179L70.8965 42.4585L71.2246 42.4702L71.5176 42.6343L73.6973 43.7827L75.9355 44.439L75.7129 45.189L75.6191 45.8921L75.4199 47.3804L75.3262 47.3687L75.209 47.3569L75.0918 47.3218L72.7129 46.6304L72.5605 46.5835L72.4199 46.5132L70.4043 45.4351L68.4941 45.3296L66.8418 46.1616L65.623 46.7827L64.8965 45.6108L64.791 45.4468L66.0684 44.6616L66.0801 44.6499L65.4941 43.4897L67.498 42.4702L67.8613 42.2944L68.2598 42.3179Z" fill="black"/>
<path d="M32.7988 42.4043L35.084 43.2715L34.627 44.4551L34.6504 44.666L34.8027 46.1543L34.709 46.166L34.3457 46.2012L34.0059 46.0723L32.0488 45.3223L30.0566 45.4863L27.9941 46.541L27.8887 46.5879L27.7949 46.623L25.8496 47.2793L23.4473 48.0762L23.8926 45.5918L23.9277 45.4043L25.3105 45.6387L24.8887 44.4316L26.7168 43.8223L28.9551 42.6855L29.2129 42.5566L29.5059 42.5332L32.1309 42.3105L32.4824 42.2754L32.7988 42.4043Z" fill="black"/>
<path d="M42.4648 51.0098L43.918 52.7676L44.2461 53.166L44.2695 53.6699L44.3633 56.248L42.9688 56.2949L42.957 56.3418L42.5117 57.7715L42.418 57.7363L41.4102 57.4199L41.3633 56.3652L41.2812 54.291L40.9648 53.9043L39.7695 54.6074L39.6289 54.6895L39.4766 54.748L36.9336 55.5801L36.5 55.7207L36.0547 55.5918L33.5 54.8652L33.8516 53.6582L33.875 53.4238L34.0742 51.9355H34.1094L34.2148 51.9473L34.3203 51.9824L36.418 52.5801L38.4219 51.9355L40.5547 50.6816L41.6562 50.0371L42.4648 51.0098Z" fill="black"/>
<path d="M21.8633 74.6128L22.918 75.6792L22.8242 75.7729L22.8008 75.7847L20.9375 77.5073L20.8555 77.5776L20.7734 77.6362L18.7578 79.0308L17.293 80.8003L15.8398 82.9683L14.75 84.5972L13.4609 83.1089L13.332 82.9683L14.4336 82.019L13.3438 81.2925L14.7969 79.1362L14.8438 79.0659L14.8906 79.0073L16.5781 76.9683L16.7188 76.8042L16.8828 76.687L18.957 75.2339L20.7266 73.6284L20.7969 73.5464L21.8633 74.6128Z" fill="black"/>
<path d="M59.5898 50.5122L59.6367 50.5239L59.6836 50.5474L61.9922 51.5786L64.207 52.563L66 52.856L66.0938 52.8794L65.8477 54.356L65.6016 55.8325L65.5898 55.8208V55.8325L65.5078 55.8208V55.8091L63.5625 55.5044L63.375 55.4692L63.1992 55.3989L60.7734 54.3208V54.3091L58.4648 53.2896L59.4961 50.4771L59.5898 50.5122Z" fill="black"/>
<path d="M80.0342 73.5229L81.9912 75.1401L82.0615 75.1987L82.1318 75.269L83.8545 77.1089L85.8115 78.5737L87.1826 79.5933L85.9873 80.8237L85.9287 80.8823L84.8506 79.8394L84.0186 80.9761L81.9561 79.4292L81.8506 79.3472L81.7568 79.2534L79.9404 77.3315H79.9287L78.124 75.8315L78.1006 75.8198L78.0771 75.7964L78.0068 75.7378L79.999 73.4878L80.0342 73.5229Z" fill="black"/>
<path d="M83.9829 86.603L86.1626 87.6812L86.7368 87.9741L86.9243 88.5952L87.6509 90.9741L87.8618 91.6304L87.4868 92.2163L86.2446 94.1851L85.647 95.1343L84.5571 94.8179L82.1431 94.1265L81.3228 93.8921L81.1118 93.0601L80.4556 90.564L80.2915 89.9429L80.6313 89.4038L81.8267 87.4702L81.897 85.5835L83.9829 86.603ZM83.5142 90.4233L83.7837 91.4663L84.311 91.6187L84.5806 91.1851L84.2524 90.0835L83.854 89.8843L83.5142 90.4233Z" fill="black"/>
</svg>
