<svg width="120" height="120" viewBox="0 0 120 120" fill="none" xmlns="http://www.w3.org/2000/svg">
<path d="M60.6797 5.83691H60.7031L63.7148 5.91895L63.8906 5.93066L64.0547 5.97754L66.9727 6.7627L66.9609 6.77441L69.832 7.47754H69.8555L69.8672 7.48926L72.7617 8.27441L72.832 8.29785L75.6914 9.21191L75.9844 9.30566L76.2188 9.50488L78.3643 11.374L81.0195 12.2188L81.1719 12.2656L81.3008 12.3477L83.8906 13.8008L86.5391 15.2305L86.7148 15.3242L86.8672 15.4648L89.0352 17.5508L91.2266 19.4375L93.582 21.1836L93.7227 21.2773L93.8281 21.4062L95.7969 23.6797L95.8789 23.7734L95.9492 23.8789L97.4727 26.3516L99.3945 28.4727L99.6289 28.7422L99.7227 29.0938L100.391 31.6367L102.16 33.6523L102.348 33.8633L102.441 34.1328L103.414 36.8867L104.645 39.6055L106.027 42.1953L106.109 42.3594L106.156 42.5352L106.871 45.4648L106.906 45.5703L106.918 45.6875L107.164 48.5234L108.066 51.2422L108.148 51.4883L108.137 51.7461L108.078 54.7695V54.793L108.066 54.8281L107.902 57.6758L107.949 60.5234H107.938L108.102 63.4648V63.6289L107.926 66.6289V66.6875L107.621 69.6875L107.609 69.9102L107.516 70.1211L106.402 72.8047L105.863 75.5938L105.84 75.7344L105.781 75.8867L104.621 78.6523L103.625 81.4062L103.566 81.5469L103.496 81.6758L101.938 84.2539L101.914 84.2891L101.879 84.3359L100.273 86.6211L99.0195 89.1406L98.9609 89.2578L98.8906 89.3633L97.1094 91.7305L97.1211 91.7422L95.457 94.2148L95.3984 94.2969L95.3281 94.3672L93.3477 96.6055L93.3242 96.6406L93.2891 96.6758L91.168 98.7852L91.0977 98.8555L88.8711 100.766L88.8828 100.777L86.7148 102.84L86.6562 102.898L86.5977 102.945L84.2188 104.785L84.1367 104.844L84.0547 104.891L81.4531 106.402L81.3828 106.426L78.7227 107.809L78.5 107.926L78.2539 107.961L75.582 108.359L73.3672 109.812L73.2734 109.871L73.168 109.918L70.4609 111.172L70.3906 111.207L70.3086 111.23L67.4844 112.191H67.4609L67.4375 112.203L64.5664 113.082L64.4023 113.141L64.2383 113.152L61.2734 113.363L58.3672 113.797L58.3555 113.785L55.4375 114.277L55.3789 114.289H55.3203L52.3086 114.547L52.0156 114.582L51.7227 114.488L48.9688 113.609L48.9902 113.541L48.4121 113.819L48.084 113.972L47.7324 113.96L44.7324 113.913L44.498 113.901L44.2754 113.831L42.9746 113.386L43.9355 110.55L45.002 110.913L47.4395 110.948L49.7363 109.858L49.7715 109.835L49.8184 109.823L52.4785 108.722L54.8223 107.257L57.2363 105.499L59.3457 103.706L61.1621 101.573L62.7676 99.2998L63.7168 96.8154L64.4082 94.085L64.584 91.3779L64.1387 88.5654V88.5537L63.7285 85.8232L62.5801 83.374L60.9395 81.2998L58.8535 79.5537L57.1641 78.4355L54.7422 79.0195L52.2109 80.2148L51.9531 80.332L51.6719 80.3555L48.9883 80.5195L46.2812 81.3281L46.1641 81.3516L43.2344 81.9961L43.082 82.0195H42.9297L39.918 82.0547H39.7188L39.5312 82.0078L36.7656 81.3047L33.8242 81.082L33.3789 81.0469L33.0273 80.7891L30.8008 79.0898L28.2109 78.1758V78.1641L25.3516 77.1914L25.1523 77.1211L24.9766 76.9922L22.5039 75.2344L22.3281 75.1055L22.1875 74.9297L20.3242 72.5156L20.2773 72.4688L20.2422 72.4102L18.8477 70.2422L18.6523 69.9385L18.2773 69.8301L17.9844 69.4668L16.0977 67.1348L16.0273 67.041L14.3516 64.5566L14.3047 64.4863L14.2695 64.416L12.8633 61.7441L12.8047 61.6152L12.7578 61.4863L11.8789 58.5918L11.7969 58.3105L11.8203 58.0176L12.043 55.6621L12.0713 55.3359L11.5898 54.8213L11.2383 54.4463L11.1914 53.9424L10.8867 50.9307V50.8604L10.7344 47.8838V47.7549L10.8516 44.7549V44.6494L11.1914 41.6611L11.2031 41.4971L11.2617 41.3447L12.1289 38.8018L12.375 35.9775L12.3984 35.7314L12.5039 35.4971L13.6992 32.8135L14.6016 30.0361L14.6484 29.8838L14.7305 29.7432L16.2539 27.1533L16.2656 27.1299V27.1182L17.8594 24.5635L17.9648 24.3994L18.1055 24.2705L20.0625 22.4307L21.4336 20.0166L21.5039 19.8877L21.5977 19.7822L23.5664 17.4971L23.6953 17.3447L23.8594 17.2275L26.2617 15.5752L28.6641 13.7588L28.7227 13.7119L28.793 13.6768L31.3359 12.1064L31.5 12.001L31.6875 11.9541L34.3594 11.1338L36.7031 9.66895L36.7383 9.65723L36.7734 9.63379L39.3867 8.18066L39.4922 8.12207L39.5977 8.08691L42.4219 7.04395L42.5273 7.00879L42.6328 6.98535L45.5742 6.37598L45.6094 6.36426H45.6445L48.6094 5.89551L48.7148 5.88379H48.8203L51.8086 5.83691H51.9141L52.0195 5.84863L54.7383 6.17676L57.4688 5.80176L57.5742 5.79004H57.6914L60.6797 5.83691ZM66.9775 69.6318L66.8125 69.7852L64.6094 71.8242L62.4414 73.8398L62.3594 73.9102L62.2773 73.9688L60.1211 75.457L59.4668 76.3652L60.5996 77.1162L60.6699 77.1631L60.7285 77.2217L63.002 79.1084L63.1191 79.2139L63.2246 79.3428L65.0762 81.6982L65.1816 81.8389L65.252 81.9912L66.5293 84.7217L66.623 84.9209L66.6582 85.1436L67.1035 88.0967L67.5723 91.0615L67.5957 91.2256L67.584 91.3896L67.4082 94.3896L67.3965 94.5303L67.3613 94.6592L66.623 97.5889L66.6113 97.6709L66.5762 97.7529L65.498 100.577L65.4395 100.753L65.3223 100.905L63.5762 103.366L63.541 103.425L63.4941 103.472L61.5488 105.757L61.4668 105.851L61.373 105.933L59.0879 107.854L59.0527 107.89L59.0059 107.925L56.5918 109.683L56.5566 109.718L56.5098 109.741L53.9551 111.347L53.8691 111.397L55.0625 111.301L57.9102 110.832L57.9219 110.82H57.9336L60.8984 110.398L60.957 110.387H61.0039L63.8164 110.176L66.5586 109.332L69.2891 108.395L71.8203 107.234L74.2344 105.676L74.5039 105.5L74.6055 105.481L75.8242 103.621L75.8594 103.551L75.9062 103.504L77.7344 101.207L79.1992 98.8164L80.5938 96.1797L81.8828 93.6719L82.4453 91.0234L82.9023 88.1992L83.0312 85.3867L82.6562 82.5742V82.5625L82.1406 79.8086L81.168 77.3828L79.7852 74.8984L77.957 73.0234L75.7188 71.6641L73.1641 70.457L70.5508 69.7305L67.8438 69.6133L66.9775 69.6318ZM78.9883 56.7891L76.3633 57.1641L73.9375 58.1719L71.6289 59.8008L71.6055 59.8242L71.5703 59.8359L70.6699 60.4033L70.6719 60.4795L70.5117 60.5039L69.5664 61.1016L68.8164 63.2812L68.1016 66.1641L68.0898 66.1992L68.0781 66.2227L67.96 66.624L67.9609 66.625L70.8906 66.7539H71.0664L71.2305 66.8008L74.0898 67.5977L74.2188 67.6328L74.3359 67.6914L77.0078 68.957L77.0781 68.9922L77.1484 69.0391L79.7031 70.5742L79.8672 70.6797L79.9961 70.8203L82.0938 72.9766L82.2344 73.1172L82.3281 73.293L83.793 75.918L83.8398 76L83.875 76.0938L85 78.8711L85.0586 79.0117L85.082 79.1641L85.6211 82.1055V82.1289L85.6328 82.1641L86.0312 85.1172L86.043 85.2578V85.3984L85.9023 88.375L85.8789 88.5391L85.4102 91.4922V91.5273L85.3984 91.5742L84.7773 94.5156L84.7422 94.7148L84.6367 94.9023L83.2539 97.5742L83.2422 97.5859L81.8477 100.223L81.8242 100.258L81.8008 100.305L80.2422 102.859L80.1953 102.953L80.1367 103.023L79.21 104.179L80.0117 103.766L82.3906 102.383L84.7227 100.59L86.8203 98.5977L86.8672 98.5508L89.0703 96.6406L91.1094 94.6016L93.0195 92.4453L94.6367 90.0664L94.6602 90.0312L94.6719 90.0078L96.3828 87.6992L97.3037 85.875H97.1758V85.793L97.1406 83.0039V82.9219L97.1523 82.8398L97.4336 79.9219L97.3164 77.0391V77.0273L97.082 74.168L96.7773 71.3789L95.6875 68.8359V68.8242L94.4336 66.293L92.9805 63.9375L91.0469 61.8281V61.8164L89.0664 59.8594L86.8164 58.4062L84.3203 57.2695L81.6719 56.7539L78.9883 56.7891ZM77.666 42.8613L75.2637 43.998L73.2012 45.6152L71.373 47.6777L69.7158 49.9873L69.793 50.2373L69.8281 50.3545L69.8516 50.4717L70.2734 53.4365V53.4951L70.5898 56.4951L70.6016 56.5537V56.624L70.6055 56.8486L72.3438 55.6289L72.4844 55.5469L72.625 55.4766L75.3555 54.3398L75.5312 54.2578L75.7188 54.2344L78.6367 53.8125L78.7305 53.8008H78.8242L81.8125 53.7539H81.9648L82.1172 53.7891L85.0703 54.3633L85.2461 54.3984L85.4102 54.4688L88.1523 55.7227L88.2461 55.7695L88.3398 55.8281L90.8594 57.4453L90.9883 57.5391L91.1055 57.6445L93.2383 59.7773L93.2734 59.8008L95.2773 62.0156L95.3711 62.1094L95.4414 62.2266L97.0234 64.7578L97.0938 64.8984L98.4062 67.582L98.4297 67.6172L98.4414 67.6523L99.625 70.418L99.7188 70.6289L99.7422 70.8516L100.07 73.8516V73.8867L100.316 76.8633V76.9219L100.434 79.9219V80.0273L100.422 80.1328L100.332 81.0859L100.848 80.2344L101.832 77.5625L101.855 77.4922L102.945 74.8789L103.496 72.0664L103.52 71.9141L103.578 71.7734L104.656 69.1484L104.938 66.3945L105.09 63.5234L104.949 60.6172V60.5586L104.924 58.9736L104.807 59.0566L104.748 58.9746L104.701 58.9043L103.201 56.4902L103.189 56.4785L101.678 53.9824L99.9551 51.7559L97.9629 49.5293V49.5176L96.0645 47.502L93.7324 46.1191L91.084 44.7363H91.0723L88.541 43.7168L85.7637 43.1074V43.0957L82.9863 42.4863L80.3145 42.4395L77.666 42.8613ZM48.5352 61.4492L47.0576 61.7188L47.7012 63.916L47.7832 64.1621L47.7598 64.4316L47.584 67.4434L47.5605 67.748L47.4316 68.0176L46.0957 70.7012L46.0723 70.7715L46.0371 70.8301L44.4668 73.373L44.3613 73.5488L44.209 73.6895L41.9941 75.7285L41.8418 75.8691L41.6543 75.9629L38.9707 77.3223L38.8887 77.3691L38.7949 77.4043L36.4043 78.2627L37.0938 78.3164L37.2227 78.3281L37.3516 78.3633L40.0703 79.043L42.6953 79.0312L45.5312 78.4219L47.3867 77.8711L47.7461 77.1904L47.8047 77.0615L47.8984 76.9443L49.6562 74.7764L50.8867 72.2803L51.9648 69.749L52.1641 67.1943L51.6367 64.7803L50.2422 62.7295L48.8096 61.3984L48.5352 61.4492ZM51.4883 59.2695L51.1943 59.5107L52.4336 60.667L52.5508 60.7842L52.6445 60.9248L54.2852 63.3389L54.4492 63.585L54.5078 63.8662L55.1523 66.7842L55.1992 67.0068L55.1875 67.2295L54.9414 70.2412L54.9297 70.4873L54.8242 70.71L53.6406 73.4756L53.6289 73.499L53.6055 73.5342L52.293 76.2295L52.2227 76.3701L52.1172 76.5107L51.5488 77.2051L53.6406 76.2305L53.7695 76.1719L53.9219 76.1367L56.3711 75.5391L57.8594 73.4883L58.0117 73.2891L58.2227 73.1367L59.1387 72.4932L59.5273 69.9688L59.8789 67.1211L59.7031 64.4141L58.8711 62.0352L57.1953 60.1836L55.2266 58.6367L53.1992 58.2148L51.4883 59.2695ZM41.1875 62.7988L41.1523 63.0566L41.0234 63.291L39.582 65.9395L39.4414 66.1855L39.2305 66.373L36.9453 68.3184L36.875 68.3652L34.4727 70.1582L34.2852 70.2988L34.0625 70.3809L31.2266 71.3535L31.0742 71.4121L30.9102 71.4238L27.9219 71.7754L27.8164 71.7871H27.7109L24.6875 71.7285H24.4766L24.2656 71.6582L23.1777 71.3145L24.4375 72.9375L26.5117 74.4141L29.1953 75.3398L29.207 75.3516L31.8809 76.291L32.2324 76.209L34.9863 75.5762L37.6582 74.6152L40.0723 73.3965L42.0176 71.6152L43.4707 69.248L44.5957 66.9629L44.748 64.502L44.1387 62.4512L42.5801 61.5488L41.4385 61.1592L41.1875 62.7988ZM55.0469 53.1777L53.8281 54.4551L53.7559 55.2754L56.1758 55.7656L56.5156 55.8359L56.7969 56.0586L59.1523 57.9102L59.2578 57.9922L59.3398 58.0859L61.332 60.2891L61.5312 60.5234L61.6367 60.8047L62.6094 63.6523L62.668 63.8398L62.6797 64.0391L62.8906 67.0508V67.1914L62.8789 67.332L62.5967 69.5957L64.4688 67.8516L65.1836 65.4375L65.9102 62.543L65.9336 62.4844L65.9453 62.4258L66.6318 60.4375L65.2539 58.5098L65.2305 58.4629L63.6602 56.0957L61.668 54.3496L59.4297 53.0605L57.1445 52.4629L55.0469 53.1777ZM34.9688 59.6494L34.7344 59.9893L34.3594 60.1533L31.6172 61.4189L31.5586 61.4424L31.5117 61.4541L28.6641 62.5088L28.3125 62.6494L27.9375 62.5908L24.9258 62.1689L24.9023 62.1572L21.9844 61.7002H21.9375L18.9609 61.1377L18.6562 61.0791L18.4102 60.9033L15.8906 59.2275L15.7617 59.1455L15.6562 59.04L14.9219 58.3018L15.582 60.4668L16.918 63.0098L18.4414 65.248L20.0234 67.2168L22.2734 67.8965H22.2852L24.9453 68.7285L27.6758 68.7754L30.3828 68.459L32.8438 67.6152L35.0703 65.9629L37.0742 64.252L38.2578 62.0723L38.5977 59.8809L37.707 58.3105L36.5713 57.3438L34.9688 59.6494ZM13.8398 44.8604L13.7344 47.7314L13.875 50.6377L14.1211 53.1338L15.6211 54.7393L17.6953 56.8252L19.8164 58.2314L22.4883 58.7471H22.4766L25.3711 59.1924H25.3594L27.9609 59.5674L30.4688 58.6416L32.7305 57.5986L34.1016 55.6299L34.9219 53.626L34.4678 51.9854L33.1738 52.5352L33.0332 52.5938L32.8926 52.6289L29.9863 53.2266L29.7871 53.2617L29.5879 53.25L26.623 53.0742H26.5059L26.3887 53.0508L23.4473 52.4062L23.166 52.3477L22.9316 52.1836L20.4238 50.5078L20.3301 50.4375L17.998 48.5859L17.9395 48.5391L17.8809 48.4805L15.7363 46.3711L15.6191 46.2539L15.5254 46.1133L13.9736 43.6621L13.8398 44.8604ZM47.1533 50.8408L48.0312 52.3008L48.5234 53.1211L47.9961 53.918L46.3906 56.3086L46.168 56.6367L45.8281 56.8125L43.1797 58.1719L43.0625 58.2305L42.9453 58.2656L42.5781 58.3818L43.7168 58.7715L43.8457 58.8184L43.9746 58.8887L45.0381 59.502L44.9141 59.0938L45.0078 59.0586L45.0898 59.0352L45.1719 59.0234L47.6094 58.5664L49.625 56.9141L49.6953 56.8555L49.7891 56.7969L50.6592 56.2607L50.8984 53.6699L50.9453 53.1426L51.0967 52.9854L50.4727 52.1699L50.2031 51.8066L50.168 51.3496L50.1475 51.0098L48.9043 50.7275L47.1533 50.8408ZM56.625 46.0293L54.4922 47.4238L53.0273 49.0527L53.1328 50.7051L53.1953 50.7861L53.4062 50.5762L53.7578 50.459L56.6172 49.4863L57.0391 49.3457L57.4727 49.4629L60.3789 50.2129L60.5664 50.2598L60.7422 50.3652L63.3086 51.8301L63.4375 51.9121L63.5547 52.0059L65.793 53.9863L65.9453 54.127L66.0508 54.291L67.5801 56.5967L67.2969 53.8584L66.8867 50.9756L66.1016 48.4561L64.8574 46.2695L64.5352 46.3105L64.2539 46.2402L61.6172 45.5488L58.9805 45.3613L56.625 46.0293ZM37.957 53.3096L38.0977 53.8018L37.8984 54.2822L37.8252 54.4609L39.7773 56.1367L41.8906 55.4531L44.1055 54.3164L44.9609 53.0273L44.9102 52.9424H44.3574L41.416 52.9658L41.1113 52.9775L40.8184 52.8486L38.0293 51.6768L37.7715 51.5713L37.5723 51.3721L37.3564 51.1641L37.957 53.3096ZM82.1348 27.9883L79.1934 28.1523L76.5684 28.6094L74.0254 29.6289L71.4355 30.9062L69.3027 32.5469L67.498 34.4805L66.3613 36.8242L65.834 39.543L65.8105 39.6836L65.7637 39.8008L65.1436 41.3711L65.4102 41.624L65.5391 41.7529L65.6328 41.8936L67.2617 44.4365L67.3086 44.5068L68.4854 46.5635L68.9824 45.873L69.0176 45.8027L69.0762 45.7441L71.0098 43.5645L71.1035 43.459L71.209 43.377L73.5527 41.5371L73.6816 41.4199L73.8457 41.3496L76.5645 40.0723L76.752 39.9785L76.9629 39.9551L79.9277 39.4629L80.0684 39.4395H80.1973L83.1973 39.498H83.3496L83.4902 39.5332L86.4199 40.1777L89.3379 40.8223L89.4551 40.8574L89.5723 40.9043L92.3379 42.0176L92.4082 42.041L92.4785 42.0762L95.127 43.459L95.1973 43.5059L97.7871 45.0293L97.9746 45.1465L98.127 45.2988L100.178 47.502L100.201 47.5254L102.193 49.752L102.229 49.7871L102.264 49.834L104.092 52.2129L104.15 52.2715L104.186 52.3418L105.092 53.834L105.125 51.9102L104.27 49.2969L104.211 49.1328L104.199 48.957L103.93 46.0742L103.273 43.4023L101.949 40.9297L101.926 40.8828L101.914 40.8359L100.684 38.1289L100.637 38.0117L99.7109 35.4219L97.9805 33.4326L95.541 32.2305L95.5176 32.207L95.4824 32.1953L92.916 30.7656L90.2324 29.7109V29.6992L87.502 28.7969V28.8086L84.8535 27.9766L82.1348 27.9883ZM18.8203 28.7002L18.8086 28.6885L17.3789 31.126L16.5352 33.8096L16.5117 33.8916L16.4766 33.9736L15.3398 36.4814L15.0938 39.2588L15.0791 39.374L15.127 39.4336L15.1973 39.5625L16.4395 41.9531L17.9629 44.3555L19.9668 46.3242L22.0879 48.0117L24.3613 49.5352L26.8926 50.0859L29.5527 50.2383L32.1543 49.7109L34.3975 48.7471L34.4766 47.9658L34.6309 45.2363L32.0859 45.3555L31.7812 45.3672L31.4883 45.2617L28.7109 44.1953L28.5586 44.1367L28.418 44.043L25.9453 42.3906L25.8398 42.332L25.7578 42.25L23.5312 40.2227L23.3438 40.0469L23.2266 39.8125L21.8086 37.1523L21.7852 37.1172L21.7734 37.0703L20.5312 34.3633L20.4961 34.293L20.4727 34.2109L19.5352 31.3633L19.4883 31.2109L19.4648 31.0586L19.1387 28.1846L18.8203 28.7002ZM40.6406 41.5322L38.9766 43.6064L37.6055 45.6338L37.5205 47.1719L37.5488 47.2002L39.4355 49.0166L41.6738 49.9541L43.2275 49.9443L42.0508 48.6328L41.8516 48.3984L41.7461 48.1055L40.7969 45.2812L40.7148 45.0234L40.7266 44.7422L40.8438 41.7188V41.5898L40.8789 41.4492L40.8984 41.3564L40.6406 41.5322ZM48.1992 37.7119L48.0234 37.8408L47.8125 37.9111L45.1055 38.8369L44.4512 39.1904L44.4297 39.3047L43.832 41.9648L43.7266 44.5898L44.4883 46.8516L45.4961 47.9854L45.5293 47.9502L46.127 47.9033L47.8975 47.792L47.8203 46.6865L47.2695 43.8389L47.2109 43.5342L47.2812 43.2295L47.9141 40.3936L48.0195 39.9248L48.3828 39.5967L50.3271 37.8916L48.4844 37.666L48.293 37.6426L48.1992 37.7119ZM52.4961 39.96L50.7266 41.5186L50.2812 43.5576L50.7852 46.2178L50.8086 46.3818L50.8516 46.9795L52.3828 45.2793L52.5117 45.1387L52.6758 45.0332L55.1484 43.416L55.3359 43.2988L55.5469 43.2285L58.418 42.4082L58.6758 42.3379L58.9336 42.3496L61.957 42.5723L62.0625 42.5811L61.25 41.8115L58.9062 40.1592L56.6562 38.999L54.5 38.9287L52.4961 39.96ZM30.3984 16.208L28.1133 17.9658L28.043 18.0127L25.6875 19.6064L23.9766 21.6104L22.5703 24.0947L22.4531 24.2939L22.2891 24.458L21.8438 24.8711V24.9297L22.1133 27.7188L22.4297 30.5898L23.2617 33.1094L24.5039 35.8164H24.4922L25.7578 38.1836L27.6797 39.9414L29.9414 41.4531L32.2383 42.332L34.8867 42.2266H35.0391L35.1797 42.25L36.1826 42.4033L36.4922 41.9424L36.5273 41.8838L36.5625 41.8369L38.4492 39.4814L38.5527 39.3506L37.2617 38.5518L37.1797 38.4932L37.0977 38.4229L34.8242 36.5361L34.6836 36.4189L34.5781 36.2783L32.8086 33.876L32.7266 33.7705L32.6562 33.6416L31.3555 30.958L31.3086 30.8525L31.2734 30.7354L30.3945 27.8525L30.3242 27.6182L30.3359 27.3721L30.4414 24.3604V24.3252L30.5938 21.3486V21.3018L30.6055 21.2432L30.9805 18.2666L31.0039 18.1494L31.0391 18.0322L31.8389 15.3125L30.3984 16.208ZM75.2305 14.8438L75.1953 14.8555H75.1602L72.207 15.3828H72.1953L69.3477 15.8633L66.7812 16.8359L64.3906 18.1953L62.3633 20.0469L60.6172 22.1797L59 24.4648L58.0391 27.0664L57.0547 29.668L56.9844 32.2578L57.5352 35.082L57.582 35.3398L57.5352 35.6094L57.4639 36.0449L57.7461 36.1865L60.4062 37.5693L60.4883 37.6162L60.5703 37.6748L62.7695 39.207L62.9277 38.8047L63.4668 36.0391L63.502 35.8516L63.5957 35.6758L64.9082 32.9688L65.0137 32.7695L65.166 32.6055L67.2168 30.4023L67.2988 30.3086L67.4043 30.2266L69.7832 28.4102L69.9004 28.3164L70.0293 28.2578L72.7129 26.9453L72.8066 26.8984L75.5605 25.7734L75.7129 25.7148L75.877 25.6914L78.8184 25.1875L78.9004 25.1758H78.9824L81.9707 25H82.0527L85.0645 24.9766H85.2988L85.5215 25.0469L88.4043 25.9492H88.416L91.252 26.8867L91.2988 26.8984L91.3457 26.9219L94.1348 28.0352L94.2988 28.1055L95.7461 28.9072L95.1406 28.2383L95.0469 28.1328L94.9766 28.0156L93.4648 25.5664L91.6836 23.4922L89.3633 21.793L89.3164 21.7578L89.2812 21.7227L87.0195 19.7773L86.9844 19.7422L86.9492 19.7188L84.9102 17.7617L82.4727 16.4375H82.4609L82.4492 16.4258L79.9414 15.0195L77.6562 14.293L75.2305 14.8438ZM48.9258 8.87207L46.1836 9.31738L43.2773 9.91504L40.7461 10.8525L38.2852 12.2119L35.7656 13.7939L35.6016 13.8994L35.5615 13.9102L34.7656 15.9697L34.7773 15.9814L33.9336 18.7705L33.5938 21.5127L33.4297 24.4893L33.3359 27.2314L34.1094 29.7744L35.3164 32.2354L36.8633 34.3213L38.9375 36.0557L41.2734 37.5156L43.7695 36.165L43.875 36.1064L43.9922 36.0596L46.0078 35.3545L45.625 34.9004L45.4961 34.7598L45.4141 34.5957L44.1016 31.9355L44.0547 31.8418L44.0195 31.7246L43.1289 28.9004L43.082 28.7363L43.0586 28.5723L42.8125 25.5957L42.8008 25.4902V25.373L42.9883 22.4082L43.0117 22.2207L43.5508 19.2559L43.5977 19.0215L43.7148 18.8105L45.168 16.1621L45.1914 16.1152L46.7148 13.5605L46.75 13.502L46.7852 13.4551L48.543 11.0176L48.6133 10.9238L48.6953 10.8418L50.6426 8.85059L48.9258 8.87207ZM54.9141 9.16504L54.7705 9.19141L52.8672 10.8652L50.9219 12.834L49.293 15.0957L47.7695 17.6504L46.457 20.0527L45.9766 22.666L45.8008 25.4316L46.0234 28.127L46.832 30.6934L48.0156 33.0957L49.4219 34.7598L51.8125 35.0527L52.082 35.0879L52.3164 35.2168L53.7285 35.9531L53.8203 35.9053L54.207 35.917L54.4375 35.9248L54.5234 35.3867L54.0195 32.6914L53.9844 32.5273V32.3633L54.0781 29.3398V29.082L54.1719 28.8477L55.2266 26.0117L56.2695 23.2227L56.3398 23.0352L56.457 22.8828L58.1797 20.457L58.2148 20.4102L58.2383 20.375L60.125 18.0664L60.1953 17.9727L60.2773 17.9023L62.5039 15.8633L62.6328 15.7578L62.7734 15.6641L65.4102 14.1758L65.5156 14.1172L65.6211 14.082L68.4453 13.0039L68.5742 12.957L68.7266 12.9336L71.6914 12.418L74.3779 11.9463L71.9766 11.1572L69.082 10.3838V10.3721L66.2109 9.66895H66.1992L66.1758 9.65723L63.4219 8.90723L60.6094 8.83691V8.8252L57.7617 8.79004L54.9141 9.16504Z" fill="black"/>
</svg>
