<svg xmlns="http://www.w3.org/2000/svg" width="120" height="120" fill="none" viewBox="0 0 120 120"><path fill="#000" d="m100.027 106.211 2.989.539.129.023.117.047 2.789 1.008h-.012l2.824.832.106.024.093.046 2.731 1.243.176.07.152.129.82.656-.937 1.172-.949 1.172-.668-.551-2.496-1.137-2.778-.808-.093-.024-2.649-.972-2.473-.446-2.449.926h-.023l-.024.012-2.636.89-2.215 1.629-.117.082-.118.059-2.683 1.289-.2.094-.21.035-2.954.48-.222.036-.211-.024-2.988-.387-.176-.023-.164-.059-2.836-1.078-.27-.105-.21-.188-1.981-1.816-2.531-.586-2.555-.223-2.426.703-2.613 1.161-2.309 1.629-.21.128-.235.071-2.906.855-.328.094-.352-.059-2.977-.504-.105-.023-.094-.035-2.824-.902-.2-.059-.175-.129-2.355-1.605-2.473-1.114-2.52-.398-2.507.562-2.473 1.219-2.496 1.512-.14.082-.165.058-2.847.926-.235.071h-.258l-2.965-.059h-.128l-.141-.023-2.895-.586-.246-.047-.21-.129-2.567-1.488-.07-.047-2.297-1.524-2.555-.738-2.683-.551-2.52.387-2.508 1.183-2.625 1.36-.07.035-.082.023-2.707 1.043-.012.012H8.61l-.093.035-1.032-2.812.094-.035h.012l2.672-1.043 2.531-1.301.047-.024 2.719-1.289.199-.093.21-.024 2.989-.457.27-.047.257.059 2.942.598.117.023 2.871.832.223.059.187.128 2.438 1.618 2.343 1.359 2.497.504 2.59.047 2.437-.797 2.45-1.441.046-.036.059-.023 2.66-1.324.164-.071.176-.046 2.953-.657.281-.058.27.035 3.011.457.2.035.187.082 2.777 1.254.117.059.106.07 2.297 1.558 2.449.786 2.578.445 2.309-.668 2.285-1.57.117-.082.14-.059 2.755-1.219.093-.047.094-.023 2.871-.844.282-.082.28.024 2.989.269.094.012.105.023 2.953.692.387.082.281.269 2.04 1.864 2.39.914 2.637.339 2.507-.398 2.368-1.148 2.32-1.688.176-.129.223-.07 2.835-.973 2.801-1.043.387-.14zm-30.41-87.922 2.637.504-.154.831.904.376.329.135.163.017-.007.047.769.317.129.047v.011l-.035.094-.762 2.309-.035.093-.036.082-1.136 2.391v.012l-.012.011-1.172 2.368-.949 2.261-.586 2.239-.223 2.53-.023 2.509.012.035.937 2.25 1.266 2.144 1.43 2.227.023.023.012.024 1.336 2.261.035.06.035.07 1.066 2.238 1.536 1.957.023.035.023.023 1.512 2.145 1.488 2.039 1.711 2.004.035.047.036.058 1.464 2.051 1.7 2.016.011.011 1.676 1.993 1.793 1.746 1.969 1.64.047.036.047.046 1.84 1.805 1.921 1.781 1.875 1.711h.012l2.063 1.653.082.07.07.07 1.711 1.817 1.98 1.347 2.285 1.36.129.07.106.105 1.828 1.653 2.18 1.324.07.035.059.047 1.054.809-.232.307 1.135-.116.082-.012h.082l1.043.012-.012 1.5-.024 1.5-.996-.012-2.507.258-.223.023-.223-.035-2.461-.492-2.425.012-2.497.433-.152.024-.164-.012-2.637-.105h-.07l-.07-.012-2.403-.34-2.39.469-.235.047-.234-.024-2.555-.328-2.531.012-.012-.012-2.59.082h-.011l-1.994.044.529 1.85.391 1.128 1.003-.022 2.637-.07h.035l2.637-.012h.106l.093.012 2.39.316 2.415-.468.246-.047.234.035 2.578.352 2.379.105 2.52-.434.117-.011h.117l2.637-.024h.152l.153.024 2.437.48 2.403-.246.082-.012h.082l1.043.012-.012 1.5-.024 1.5-.996-.012-2.507.258-.223.023-.223-.035-2.461-.492-2.425.012-2.497.433-.152.024-.164-.012-2.637-.105h-.07l-.07-.012-2.403-.34-2.39.469-.235.047-.234-.024-2.555-.328-2.531.012-.012-.012-2.59.082h-.011l-.06.001.306.91.82 2.484.832 2.367 1.004 1.863 1.832.086L91.79 99H92v2.859l.012.141-2.543.188-.082.011-.094-.011-2.649-.118-.011-.011h-.012l-2.543-.164H81.5l-2.531.269-.153.012-.14-.012-2.637-.223-2.508-.023-1.512.012-.023-1.43h-1.5v-1.559l1.488-.011 1.524-.012h.023l2.649.023h.058l.047.012 1.745.148-.409-.995-.035-.083-.023-.093-.68-2.555-.012-.012v-.011l-.61-2.473-.395-1.251-1.936-.362-2.39.28-.13.013h-.129l-2.554-.141-2.555.164h-.129l-.129-.012-2.496-.28-2.461.269h-.07l-2.637.152-.152.012-.141-.024-2.543-.351-2.508.058h-.058l-2.637-.058v-.012h-2.637l-2.625-.047-.73.064-.48 1.526-.61 2.473v.011l-.012.012-.68 2.555-.023.093-.035.083-.41.995 1.746-.148.047-.012h.058l2.649-.023h.023l1.524.012 1.488.011v1.559h-1.5l-.023 1.43-1.512-.012-2.508.023-2.637.223-.14.012-.153-.012-2.531-.269h-2.578l-2.543.164h-.012l-.011.011-2.649.118-.094.011-.082-.011-2.543-.188.012-.141V99h.21l2.462.2 1.83-.087 1.006-1.863.832-2.367.82-2.485.304-.906-1.073-.004h-.047l-.047-.011-2.578-.176-2.532.129h-.082l-2.636-.012v-.012l-2.508.024-2.637.234-.14.012-.153-.012-2.531-.281-2.578.011v-.011l-2.543.176h-.012l-.012.011-2.648.118-.094.011-.082-.011-2.543-.188.012-.223V88.5h.21l2.462.2 2.508-.118v-.012l2.636-.175h.094l2.637-.012.094-.012.082.012 2.508.281 2.484-.21.047-.013h.058l2.649-.023h.023l2.555.012 2.648-.118.082-.011.082.011 2.649.176-.012.012 1.983.009.392-1.126.53-1.855-.42-.016V85.5l-2.59-.012h-.047l-.047-.011-2.578-.176-2.532.129h-.082l-2.636-.012v-.012l-2.508.024-2.637.234-.14.012-.153-.012-2.531-.281-2.578.011v-.011l-2.543.176h-.012l-.012.011-2.648.118-.094.011-.082-.011-2.543-.188.012-.223V82.5h.21l2.16.174-.276-.365 1.054-.809.059-.047.07-.035 2.18-1.324 1.828-1.653.106-.105.129-.07 2.285-1.36 1.98-1.347 1.711-1.817.07-.07.082-.07 2.063-1.653h.012l1.875-1.71 1.922-1.782 1.84-1.805.046-.046.047-.036 1.969-1.64 1.793-1.746 1.676-1.993.011-.011 1.7-2.016 1.464-2.05.036-.06.035-.046 1.71-2.004 1.489-2.04 1.512-2.144.023-.023.023-.035 1.536-1.957 1.066-2.239.035-.07.035-.059 1.336-2.261.012-.024.023-.023 1.43-2.227 1.266-2.144.937-2.25.012-.035-.023-2.508-.223-2.531-.586-2.239-.95-2.261-1.171-2.368-.012-.011v-.012l-1.136-2.39-.036-.083-.035-.093-.762-2.309-.035-.094v-.012l.13-.046.767-.317-.006-.047.162-.017.33-.135.903-.376-.153-.831 2.637-.504.738-.152.563.515 1.652 1.512.281.258.13.363.831 2.473.902 2.484.891 2.496.012.012.798 2.328 1.49.121 2.509-.117v-.012l1.68-.112.757-2.208.012-.012.89-2.496.903-2.484.832-2.473.129-.363.281-.258 1.652-1.512.563-.515zM39.734 91.617h-.117l-1.027-.042-.582 1.773-.832 2.496v.023l-.012.012-.879 2.496-.035.106-.059.093-.172.32 2.528-.011.094-.012.082.012.1.01.755-1.83.645-2.461.633-2.543.011-.036.012-.046.128-.406zm39.633-.058.012.011-.379.025.121.382.012.046.011.036.633 2.543.645 2.46.755 1.832.1-.011.082-.012.094.012 2.526.01-.17-.319-.059-.093-.035-.106-.88-2.496-.01-.012v-.023l-.833-2.496-.592-1.8zm-7.828-6.012-.129.012h-.129l-2.554-.141-2.555.164h-.129l-.129-.012-2.496-.28-2.461.269h-.07l-2.637.152-.152.012-.141-.024-2.543-.351-2.508.058h-.058l-2.637-.058v-.012h-2.637l-1.357-.025-.006.021-.563 2.484-.035.141-.058.129-.095.21 2.161.04-.012.012h2.66l2.602.058 2.613-.058h.13l.117.011 2.484.364 2.496-.164v.011l2.578-.28.152-.013.164.012 2.485.293 2.543-.152.082-.012.082.012 2.531.129 2.496-.293.235-.035.222.046.272.05-.108-.241-.058-.129-.035-.14-.563-2.485-.016-.049zm7.828.012.012.011-2.413.16.292 1.266.727 1.66 1.195-.074.047-.012h.035l1.1-.005-.069-.198-.012-.035-.012-.047-.667-2.367-.215-.36zm-36.914-.047-.035.011h-.047l-1.775.063-.198.332-.668 2.367-.011.047-.012.035-.086.247.066.003 2.378-.079.677-1.542.356-1.542zm26.531-63.403-.726 2.145-.012.012v.023l-.902 2.473-.89 2.484-.81 2.367-.363 2.227.446 2.379.035.222-.024.235-.281 2.484.117 2.543v.164l-.152 2.461.281 2.566.024.153-.024.164-.234 2.39.48 2.204 1.067 2.238.046.105.036.118.738 2.472.855 2.496v.012l.012.012.82 2.508.833 2.484.023.082.023.07.563 2.508.68 2.438.902 2.484.012.024v.023l.808 2.414.973 2.46.035.083.012.082.668 2.484.82 2.508.012.012v.012l.209.681.635.12 1.265-.08-.422-1.8-.96-2.285-.036-.082-.023-.082-.703-2.425-1.196-2.391-.035-.164L74 70.918l-.703-2.414-1.172-2.215-.059-.105-.035-.106-.832-2.52-.937-2.39v-.012l-.012-.011-.89-2.473-.012.012-.938-2.473-.023-.07-.024-.082-.668-2.555.012-.012-.797-2.437-.035-.13-.023-.128-.329-2.566-.011-.083v-.093l-.024-2.555-.175-2.637-.012-.082.011-.093.118-2.555-.012-2.649v-.023l.023-2.637v-.058l.012-.059.223-2.637.011-.129.036-.117.656-2.508.023-.105.047-.094 1.02-2.437.023-.035.012-.047 1.183-2.367 1.09-2.286.12-.363-1.104-.21zm2.262 33.082.914 2.426v.012l.903 2.46.949 2.462.011.035.012.023.809 2.38 1.183 2.273.059.129.047.14.75 2.531.011.036v.035l.598 2.39 1.102 2.262.058.117.035.13.739 2.484.972 2.332.047.117.036.117.55 2.356.072.123.784-.002v-.012l2.636-.059 2.637-.07h.035l2.637-.012h.106l.093.012 2.39.316 2.415-.468.246-.047.234.035 1.04.141-1.098-.782-.047-.035-.035-.035-2.04-1.664h-.011v-.012l-2.027-1.687-.024-.024-.023-.012-1.864-1.687-2.097-1.617-.094-.07-1.969-1.782-.058-.047-.047-.058-1.77-1.969v-.012l-1.758-1.957-.046-.047-.035-.046-1.594-2.11h-.012l-1.664-1.875-.047-.047-.035-.047-1.594-2.109v-.012l-1.523-2.062-1.676-2.063-.106-.129-.07-.152-1.113-2.273-.764-1.27zM61.38 51.56h-.012l-.011.011-2.649.117-.094.012-.082-.011-1.348-.1-.226 1.025-.035.176-.07.152-1.125 2.309-.704 2.402-.011.035v.024l-.867 2.46.011.013-.82 2.52-.012.01-.797 2.345-.586 2.59-.011.035v.035l-.715 2.543-.012.058-.023.059-.903 2.426-.82 2.52-.012.034-.023.047-.938 2.344-.668 2.508-.023.07-.664 2 .492.008-.012.012h2.66l2.602.058 2.613-.058h.13l.117.011 2.484.364 2.496-.164v.011l2.578-.28.152-.013.164.012 2.485.293 2.543-.152.082-.012.082.012 2.531.129 1.558-.184-.679-2.047-.023-.07-.668-2.508-.938-2.344-.023-.047-.012-.035-.82-2.52-.903-2.425-.023-.059-.012-.058-.715-2.543v-.035l-.011-.036-.586-2.59-.797-2.343-.012-.012-.82-2.52.012-.011-.868-2.461v-.023l-.011-.036-.704-2.402-1.125-2.309-.07-.152-.035-.176-.254-1.15zm-13.26 4.413-1.113 2.273-.07.152-.106.13-1.676 2.062-1.523 2.062v.012l-1.594 2.11-.035.046-.047.047-1.664 1.875h-.012l-1.593 2.11-.036.046-.047.047-1.757 1.957v.012l-1.77 1.969-.047.058-.058.047-1.97 1.781-.093.07-2.097 1.618-1.864 1.688-.023.011-.024.024-2.027 1.687v.012h-.012l-2.039 1.664-.035.035-.047.035-1.201.855.174-.015.047-.012h.058l2.649-.023h.023l2.555.012 2.648-.118.082-.011.082.011 2.649.176-.012.012 2.555.012h.047l1.785.072.086-.147.55-2.355.036-.117.047-.117.972-2.332.739-2.485.035-.129.058-.117 1.102-2.262.597-2.39v-.035l.012-.035.75-2.532.047-.14.059-.13 1.183-2.273.809-2.379.012-.023.011-.035.95-2.461.902-2.461v-.012l.914-2.426.13-.488zm.981-34.391.12.363 1.09 2.285 1.184 2.368.012.047.023.035 1.02 2.437.047.094.023.105.656 2.508.035.117.012.13.223 2.636.012.059v.058l.023 2.637v.023l-.012 2.649.117 2.554.012.094-.011.082-.176 2.637-.024 2.555v.093l-.011.082-.329 2.567-.023.129-.035.129-.797 2.437.012.012-.668 2.555-.024.082-.023.07-.938 2.473-.011-.012-.891 2.473-.012.011v.012l-.937 2.39-.832 2.52-.035.106-.059.105-1.172 2.215L46 70.918l-.621 2.508-.035.164-1.196 2.39-.703 2.426-.023.082-.035.082-.961 2.286-.396 1.684.154-.005 1.796-.167.133-.434v-.012l.012-.012.82-2.508.668-2.484.012-.082.035-.082.973-2.461.808-2.414v-.023l.012-.024.902-2.484.68-2.438.563-2.508.023-.07.023-.082.833-2.484.82-2.508.012-.012v-.012l.855-2.496.738-2.472.035-.118.047-.105 1.067-2.238.48-2.203-.234-2.391-.024-.164.024-.152.281-2.567-.152-2.46v-.165l.117-2.543-.281-2.484-.024-.235.035-.222.446-2.38-.364-2.226-.808-2.367-.89-2.484-.903-2.473v-.023l-.012-.012-.726-2.145-.809-.738zm20.375 23.719.011.035v.047l.002.257.854 2.094 1.277 2.168 1.442 2.215.011.024.024.023 1.359 2.262.035.047.024.058 1.101 2.262 1.559 1.91.011.024.024.023 1.558 2.11 1.5 2.003h.012l1.758 1.969.047.059.035.046 1.5 2.004 1.77 1.97 1.652 1.85 1.875 1.7 2.098 1.617.046.035.036.035 1.921 1.723 2.016 1.688 2.028 1.652 2.074 1.477.082.058.082.07 1.722 1.606.306.106 1.464-.25.117-.012h.117l1.435-.014-1.634-1.479-2.168-1.277-.035-.023-.035-.035-2.192-1.489-.14-.093-.106-.118-1.758-1.863-1.98-1.582-.035-.024-.035-.035-1.957-1.78-1.934-1.782-.035-.035-1.887-1.852h-.012l-1.933-1.617-.035-.035-.047-.035-1.898-1.852-.106-.105-1.687-2.028-1.7-2.004-.047-.047-.035-.058-1.5-2.11-1.664-1.945-.035-.035-.035-.059-1.559-2.132v-.012l-1.535-2.145v-.011l-1.594-2.028-.105-.129-.07-.152-1.078-2.273-1.313-2.227-1.152-1.784zm-20.02.445-1.312 2.227-1.079 2.273-.07.152-.105.13-1.594 2.027v.011l-1.535 2.145v.012l-1.559 2.133-.035.058-.035.035-1.664 1.946-1.5 2.109-.035.059-.047.046-1.7 2.004-1.687 2.028-.105.105-1.899 1.852-.047.035-.035.035-1.934 1.617h-.011l-1.887 1.852-.035.035-1.934 1.781-1.957 1.781-.035.035-.035.024-1.98 1.582-1.758 1.863-.106.118-.14.093-2.192 1.489-.035.035-.035.023-2.168 1.277-1.826 1.653.47-.032h.094l2.637-.011.094-.012.082.012.263.03 1.713-1.597.082-.07.082-.058 2.075-1.477 2.027-1.652 2.015-1.688 1.922-1.723.035-.035.047-.035 2.098-1.617 1.875-1.7 1.652-1.85 1.77-1.97 1.5-2.004.035-.046.047-.059 1.758-1.969h.011l1.5-2.004 1.56-2.109.023-.023.011-.024 1.559-1.91 1.101-2.262.024-.058.035-.047 1.36-2.262.023-.023.011-.024 1.442-2.215 1.277-2.168.853-2.094.003-.257v-.047l.011-.035.085-1.34zm11.922-.187h-.012l-.011.011-2.649.117-.094.012-.082-.011-1.074-.08-.172 1.462.166 1.53 1.22.1 2.509-.118v-.012l1.38-.093.155-1.407-.188-1.589zm0-6h-.012l-.011.011-2.649.117-.094.012-.082-.011-.997-.075-.108 2.149.05.84 1.196.097 2.508-.117v-.012l1.351-.09.043-.718-.116-2.276zm0-6h-.012l-.011.011-2.649.117-.094.012-.082-.011-.8-.06.035.247-.047.258-.457 2.426.003.026 1.407.114 2.508-.117v-.012l1.54-.103-.439-2.334-.047-.258.035-.258.02-.12z"/></svg>