<svg xmlns="http://www.w3.org/2000/svg" width="120" height="120" fill="none" viewBox="0 0 120 120"><path fill="#000" d="m92.805 27.11 1.664 1.84.152.175.094.21 1.02 2.192 1.675 1.782.164.175.106.211 1.066 2.297 1.324 2.051 1.641 2.016h.012l1.664 2.05.011.012 1.594 1.992 1.77 1.969.129.14.082.176 1.242 2.38h-.012l1.172 2.144.199.375-.023.422-.129 2.543.152 2.566.012.129-.012.129-.281 2.437.258 2.52v.035l.011.035.153 2.637.012.152-.024.141-.351 2.531.058 2.52v.058l-.058 2.637-.024 2.625v.012l-.047 2.484.235 2.637v.082l.105 2.637v.117l-.105 2.636-.036 2.59v.094l-.175 2.566.117 2.543.012.036v.046l-.024 2.637.035 2.613.223 2.532.012.14-.024.153-.281 2.484.012 2.531.175 2.637v.024l.129 2.648v.176l-.16 2.161 1.278-.13.082-.012h.082l1.043.012-.012 1.5-.024 1.5-.996-.012-2.507.258-.223.024-.223-.036-2.461-.492-2.425.012-2.497.434-.152.023-.164-.012-2.637-.105h-.07l-.07-.012-2.403-.34-2.39.469-.235.047-.234-.024-2.555-.328-2.531.012-.012-.012-2.59.082h-.011l-2.637.059h-.023l-2.567.012.012.011-2.637.176-.187.012-2.625-.492-2.39.281-.13.012h-.129l-2.554-.141-2.555.164h-.129l-.129-.012-2.496-.281-2.461.27h-.07l-2.637.152-.152.012-.141-.024-2.543-.351-2.508.058h-.058l-2.637-.058v-.012h-2.637l-2.625-.047-2.496.223-.035.011h-.047l-2.637.094h-.117l-2.636-.105v-.012l-2.59-.012h-.047l-.047-.011-2.578-.176-2.532.129h-.082l-2.636-.012v-.012l-2.508.024-2.637.234-.14.012-.153-.012-2.531-.281-2.578.012v-.012l-2.543.176h-.012l-.012.011-2.648.118-.094.011-.082-.011-2.543-.188.012-.223V114.5h.21l2.24.181-.087-.665-.023-.141.012-.129.14-2.613-.21-2.473v-.117l.011-.129.234-2.625.188-2.578-.235-2.449-.234-2.637-.023-.2.035-.198.433-2.473-.093-2.496v-.14l.152-2.544-.164-2.555-.012-.082.012-.093.129-2.508-.34-2.496-.023-.164.023-.176.246-2.578-.105-2.496v-.012l-.082-2.648v-.082l.011-.082.2-2.579-.223-2.449v-.035l-.176-2.637v-.164l.024-.152.363-2.473-.082-2.543v-.14l.164-2.543-.188-2.543.012-.012-.246-2.59v-.094l-.082-2.601-.117-2.637v-.105l.058-2.649.024-.902.808-.41 1.887-.926.223-.117.258-.024 1.687-.21.293-.844-.023-2.285-.164-2.579-.094-1.547 1.558-.035 2.543-.082 1.184-.21-.059-1.419v-.093l.024-2.637v-.094l.012-.094.351-2.636.14-1.078 1.079-.2 2.285-.41.188-.035.199.012 2.543.21 2.46-.257.223-.024.223.036 2.637.527.949.176.222.949.41 1.734.012.047v.047l.446 2.637.035.152-.012.164-.059 1.36.997.21 2.308.27 1.418.164-.094 1.43-.175 2.554.152 2.333.293.96 1.523-.023h.094l.106.012 2.484.27 1.172.128.152 1.172.34 2.625.023.188-.2 1.598.872-.204 1.5-1.406 1.254-1.863.621-2.309.012-.07.023-.059.844-2.379.27-2.297-.235-2.484-.011-.094v-.105l.082-2.625v-.117l.293-2.649.023-.305.153-.257.925-1.665.469-.843.961.082 2.555.21 2.672-.28.222.035 2.45.492 2.425-.012 2.508-.433.621-.106.516.375 1.652 1.219.738.55-.152.915-.41 2.343.492 2.368.047.199-.023.199-.176 2.52.293 2.32.574 2.52.785 2.238 1.078 1.98 1.63 1.418 2.19 1.29.373.213 1.112-1.608 1.137-2.285.058-.13.07-.105 1.57-2.121.06-.082.058-.059 1.688-1.804 1.16-2.168.058-.106.082-.105 1.524-1.98 1.125-2.227.093-.211.153-.153 1.758-1.863 1.254-2.015.996-2.332.914-2.168zm2.343 8.773-1.71.176h-.047l-.035.011-2.649.117-.094.012-.082-.011-2.114-.157-.874 1.778-.07.129-.082.117-1.535 1.968-1.196 2.25-.094.188-.14.14-1.77 1.864-1.406 1.933-1.137 2.309-.047.094-.07.093-1.477 2.098-1.016 1.652-.022.45.136 1.789.012.105v.094l-.083 1.28.028.466.012.129-.012.129-.097.844.093 2.297v.117l-.056 1.339.037.36v.035l.011.035.153 2.637.012.152-.024.141-.111.799-.225 2.409.043 1.843v.058l-.058 2.637-.012 1.238.183 1.95v.035l.176 2.648.012.094-.012.094-.15 2.601.072 1.817v.117l-.007.166.015.443.012.13-.024.128-.042.278-.06 1.491-.034 2.59v.094l-.052.742.212 2.375.011.13-.011.128-.211 2.637.082 2.46.105 2.65v.093l-.011.105-.043.455.105 1.198.012.14-.024.153-.164 1.445.207 1.543.024.141-.012.14-.129 2.637.164 2.461.012.094-.012.093-.078 1.296.023.474v.176l-.077 1.023.06 1.183 1.506-.093.047-.012h.035l2.294-.01.12-.697.035-2.543-.223-2.484-.011-.047v-.035l-.094-2.637V106l.105-2.637.024-2.601v-.188l.058-.187.633-2.38.14-.538.458-.305 2.062-1.418.48-.328.575.082 2.508.34.527.07.363.387 1.723 1.84.352.375.046.515.223 2.649.012.14-.012.153-.281 2.484.012 2.531.175 2.637v.024l.13 2.648v.094l-.012.082-.16 2.146.898.119 2.414-.468.246-.047.234.035 2.578.351 2.379.106 2.52-.434.117-.011h.117l2.637-.024h.152l.153.024.567.111.155-1.943-.117-2.614-.176-2.636-.011-.047v-.047l-.012-2.637v-.094l.012-.082.269-2.507-.211-2.485v-.105l-.035-2.649v-.023l.024-2.555-.129-2.648v-.164l.175-2.555.036-2.637v-.047l.105-2.53-.105-2.638v-.011l-.223-2.555-.012-.07.012-.082.035-2.637.024-2.625v-.023l.058-2.579-.058-2.636v-.13l.011-.117.34-2.496-.141-2.484v-.012l-.269-2.566-.023-.152.023-.164.281-2.497-.152-2.53v-.165l.117-2.226-.973-1.793-.023-.024-1.148-2.226-1.629-1.817-.059-.058-1.652-2.063v-.012l-1.664-2.027v-.012l-1.676-2.027-.059-.07-.047-.07-1.43-2.227-.046-.082-.047-.094-1.004-2.145zM20.945 99.32l-.445 1.676-.012 2.438v.046l-.105 2.637.094 2.449.234 2.637v.164l-.047 2.637v.117l-.012.106-.063.365.642.072 2.484-.211.047-.012h.058l.712-.006.152-2.119-.118-2.496-.175-2.636v-.094l-.012-2.637v-.094l.012-.082.257-2.507-.164-1.97-1.007-1.066-1.395-.199zM57.38 36.06h-.012l-.011.011-2.649.117-.094.012-.082-.011-1-.075.114 1.133.011.164-.011.164-.317 2.637-.023.176-.059.152-.902 2.52-.645 2.437-.058.246-.141.2-1.477 2.203-.093.14-.13.117-1.921 1.805-.293.281-.387.082-1.5.34-.093 1.3v.024l-.17 1.804-.01.224.152 2.566.012.129-.012.129-.289 2.451v.069l.266 2.437v.07l.164 2.637v.152l-.012.141-.013.086.005.066.012.094-.012.094-.152 2.636.082 2.508.012.13-.024.128-.27 1.788-.003.216-.009 1.876.071 1.054.235 2.648.011.117-.011.13-.14 1.734.019.199v.082l.093 2.637.012.058-.012.059-.057 1.44.061 1.536v.094l-.011.106-.115 1.202-.007.848v.094l-.055.775.27 2.014.024.14-.012.141-.129 2.637.164 2.461.012.094-.012.094-.152 2.636.093 2.508.012.152-.023.153-.213 1.2-.084.745.009 2.023.089.919.234 2.648.012.117-.012.129-.07.91.054 1.094v.094l-.011.082-.136 1.83 2.073.037-.012.012h1.984l.083-.485.035-2.543-.223-2.484-.011-.047v-.035l-.094-2.637V106l.105-2.637.024-2.601v-.188l.058-.187.633-2.38.14-.538.458-.305 2.062-1.418.48-.328.575.082 2.508.34.527.07.363.387 1.723 1.84.352.375.047.515.222 2.649.012.14-.012.153-.281 2.484.012 2.531.175 2.637v.024l.13 2.648v.094l-.012.082-.16 2.167 1.187-.077v.011l2.578-.281.152-.012.164.012 2.485.293 2.543-.152.082-.012.082.012 2.531.129 2.496-.293.235-.036.222.047.259.048.07-.877-.016-.3v-.164l.071-1.119-.09-2.045-.177-2.636-.011-.047v-.047l-.012-2.637v-.094l.012-.082.09-.841-.094-.717-.024-.176.012-.164.178-1.873-.104-1.22v-.106l-.035-2.649v-.023l.024-2.555-.13-2.648v-.164l.115-1.67-.001-.018v-.047l-.164-2.637-.012-.152.024-.152.314-2.128.04-.945-.04-1.052-.064-1.606v-.011l-.223-2.555-.012-.07.012-.082.035-2.637.01-1.232-.049-.538v-2.812l.07-2.649v-.046l.004-.02-.011-.566v-.13l.011-.117.25-1.835-.148-2.43v-.152l.045-1.077-.217-2.064-.024-.152.024-.164.184-1.647v-.053l-.012-.07.012-.07.068-1.14-.123-2.048v-.164l.056-1.1-.048-.634-.047-.48.097-.152-.421-.821-1.887-1.114-.129-.07-.106-.094-1.933-1.687-.2-.176-.128-.234-1.266-2.297-.058-.106-.036-.117-.867-2.496-.035-.07-.012-.082-.597-2.578-.024-.07-.012-.083-.328-2.625-.011-.14.011-.153.054-.81-1.112.138-.176.024-.176-.012-2.531-.27h-2.578zm-27.445-.164h-.012l-2.543.164h-.012l-.012.011-2.648.117-.094.012-.082-.011-1.129-.085.004.065.059 1.324-1.3.223-2.602.457-.106.023h-.105l-1.114.024.07 1.031v.07l.036 2.637v.27l-.082.246-.692 1.98-.304.879-.938.117-2.355.27-.844.41-.035 1.746.117 2.543v.023l.082 2.614.223 2.554.011.012v.023l.176 2.637.012.094-.012.105-.152 2.497.082 2.636.012.14-.024.13-.375 2.484.164 2.45.235 2.636.011.129-.011.117-.211 2.649.082 2.46.093 2.637.012.106-.012.093-.234 2.485.328 2.46.012.13v.14l-.14 2.532.175 2.578v.187l-.152 2.637.093 2.496.012.152-.035.153-.422 2.46.223 2.438.246 2.637.012.129-.012.117-.2 2.637v.023l-.222 2.508.2 2.519.01.106-.01.094-.141 2.508.105.782 2.36-.157h.093l1.676-.008.09-.524.035-2.543-.223-2.484-.011-.047v-.035l-.094-2.637V106l.105-2.637.024-2.601v-.188l.058-.187.633-2.38.14-.538.458-.305 2.062-1.418.48-.328.575.082 2.508.34.527.07.363.387 1.723 1.84.352.375.047.515.222 2.649.012.14-.012.153-.281 2.484.012 2.531.175 2.637v.024l.13 2.648v.094l-.012.082-.145 1.953 1.508.008 2.648-.118.082-.011.082.011 2.649.176-.012.012 2.555.012h.047l2.59.105 2.496-.082.138-.014.201-1.865.108-1.443-.065-1.393-.175-2.636v-.094l-.003-.496-.146-1.567-.011-.199.035-.187.218-1.281.164-1.59-.199-2.485-.011-.047v-.058l-.024-2.649v-.023l.012-2.555-.117-2.648v-.164l.107-1.63-.033-.257-.024-.176.012-.164.121-1.275.016-1.69v-.047l.048-1.043-.044-1.03v-.013l-.07-2.636-.012-.082.011-.082.05-.625-.194-2.223-.012-.07v-.082l.047-2.637.003-.765-.081-1.31-.012-.152.024-.152.085-.574.051-2.274-.047-2.636-.011-.13.023-.117.318-2.335-.15-2.141-.246-2.648v-.485l-.016-.101.016-.11v-2.117l.07-2.637v-.058l.012-.047.073-.79.099-2.081-.422-2.438-.047-.222.035-.223.293-2.484-.164-1.266-1.195-.129-2.555.059-1.125.023-.34-1.078-.68-2.191-.046-.165-.188-2.812-.011-.105.011-.094.07-1.23-.937-.106-.14-.024-2.32-.492-1.243-.27.026-.587zm55.01 63.424-.445 1.676-.012 2.438v.046l-.105 2.637.094 2.449.234 2.637v.164l-.047 2.637v.117l-.012.106-.045.258 2.553-.067h.035l1.34-.007.149-2.095-.118-2.496-.175-2.636v-.094l-.012-2.637v-.094l.012-.082.257-2.507-.164-1.97-1.007-1.066-1.395-.199zm-32 0-.445 1.676-.012 2.438v.046l-.105 2.637.094 2.449.234 2.637v.164l-.047 2.637v.117l-.012.106-.03.173.25.006 2.612-.058h.13l.117.011.798.117.155-2.16-.118-2.496-.175-2.636v-.094l-.012-2.637v-.094l.012-.082.257-2.507-.164-1.97-1.007-1.066-1.395-.199zm-20.413-2.672 1.168.046.512.02.392.33 1.294 1.088.49.411.042.638.176 2.639.003.046v.046l.014 2.641v.086l-.01.086-.29 2.639-.089.802-.717.368-1.672.859-.494.253-.54-.129-2.247-.538-1.16-.278.008-1.19.017-2.608-.121-2.593-.004-.086.006-.086.177-2.608.019-1.165-.933-1.865h3.962zm33 0 1.168.046.512.02.392.33 1.294 1.088.49.411.042.638.176 2.639.003.046v.046l.014 2.641v.086l-.01.086-.29 2.639-.089.802-.717.368-1.672.859-.494.253-.54-.129-2.248-.538-1.159-.278.008-1.19.017-2.608-.121-2.593-.004-.086.006-.086.177-2.608.019-1.165-.933-1.865h3.962zm32 0 1.168.046.512.02.392.33 1.294 1.088.49.411.042.638.176 2.639.003.046v.046l.014 2.641v.086l-.01.086-.291 2.639-.088.802-.717.368-1.672.859-.494.253-.54-.129-2.248-.538-1.159-.278.008-1.19.017-2.608-.121-2.593-.004-.086.006-.086.177-2.608.019-1.165-.933-1.865h3.962zm-65.047 3.015-.003.04-.174 2.56.119 2.548.002.039v.04l-.01 1.448.55.131.46-.236.193-1.754-.013-2.5-.13-1.962-.412-.346-.582-.024zm33 0-.003.04-.174 2.56.119 2.548.002.039v.04l-.01 1.448.55.131.46-.236.193-1.754-.013-2.5-.13-1.962-.412-.346-.582-.024zm32 0-.003.04-.174 2.56.119 2.548.002.039v.04l-.01 1.448.55.131.46-.236.193-1.754-.013-2.5-.13-1.962-.412-.346-.582-.024zM21.532 77.648l1.168.046.512.02.393.33 1.293 1.088.49.411.042.638.176 2.64.003.045v.046l.014 2.64v.087l-.01.086-.29 2.64-.089.801-.717.368-1.672.859-.494.252-.54-.128-2.247-.538-1.16-.278.008-1.19.017-2.608-.121-2.593-.004-.086.006-.086.177-2.608.019-1.165-.933-1.865h3.962zm11 0 1.168.046.512.02.392.33 1.294 1.088.49.411.042.638.176 2.64.003.045v.046l.014 2.64v.087l-.01.086-.29 2.64-.089.801-.717.368-1.672.859-.494.252-.54-.128-2.247-.538-1.16-.278.008-1.19.017-2.608-.121-2.593-.004-.086.006-.086.177-2.608.019-1.165-.933-1.865h3.962zm22 0 1.168.046.512.02.392.33 1.294 1.088.49.411.042.638.176 2.64.003.045v.046l.014 2.64v.087l-.01.086-.29 2.64-.089.801-.717.368-1.672.859-.494.252-.54-.128-2.248-.538-1.159-.278.008-1.19.017-2.608-.121-2.593-.004-.086.006-.086.177-2.608.019-1.165-.933-1.865h3.962zm11 0 1.168.046.512.02.392.33 1.294 1.088.49.411.042.638.176 2.64.003.045v.046l.014 2.64v.087l-.01.086-.29 2.64-.089.801-.717.368-1.672.859-.494.252-.54-.128-2.248-.538-1.159-.278.008-1.19.017-2.608-.121-2.593-.004-.086.006-.086.177-2.608.019-1.165-.933-1.865h3.962zm21 0 1.168.046.512.02.392.33 1.294 1.088.49.411.042.638.176 2.64.003.045v.046l.014 2.64v.087l-.01.086-.29 2.64-.089.801-.717.368-1.672.859-.494.252-.54-.128-2.248-.538-1.159-.278.008-1.19.017-2.608-.121-2.593-.004-.086.006-.086.177-2.608.019-1.165-.933-1.865h3.962zm11 0 1.168.046.512.02.392.33 1.294 1.088.49.411.042.638.176 2.64.003.045v.046l.014 2.64v.087l-.01.086-.291 2.64-.088.801-.717.368-1.672.859-.494.252-.54-.128-2.248-.538-1.159-.278.008-1.19.017-2.608-.121-2.593-.004-.086.006-.086.177-2.608.019-1.165-.933-1.865h3.962zm-76.047 3.015-.003.04-.174 2.56.119 2.547.002.04v.04l-.01 1.448.55.13.46-.235.193-1.755-.013-2.498-.13-1.963-.412-.346-.582-.024zm11 0-.003.04-.174 2.56.119 2.547.002.04v.04l-.01 1.448.55.13.46-.235.193-1.755-.013-2.498-.13-1.963-.412-.346-.582-.024zm22 0-.003.04-.174 2.56.119 2.547.002.04v.04l-.01 1.448.55.13.46-.235.193-1.755-.013-2.498-.13-1.963-.412-.346-.582-.024zm11 0-.003.04-.174 2.56.119 2.547.002.04v.04l-.01 1.448.55.13.46-.235.193-1.755-.013-2.498-.13-1.963-.412-.346-.582-.024zm21 0-.003.04-.174 2.56.119 2.547.002.04v.04l-.01 1.448.55.13.46-.235.193-1.755-.013-2.498-.13-1.963-.412-.346-.582-.024zm11 0-.003.04-.174 2.56.119 2.547.002.04v.04l-.01 1.448.55.13.46-.235.193-1.755-.013-2.498-.13-1.963-.412-.346-.582-.024zM21.532 58.648l1.168.046.512.02.393.33 1.293 1.088.49.411.042.638.176 2.64.003.045v.046l.014 2.64v.087l-.01.086-.29 2.64-.089.801-.717.368-1.672.859-.494.252-.54-.128-2.247-.538-1.16-.278.008-1.19.017-2.608-.121-2.593-.004-.086.006-.086.177-2.608.019-1.165-.933-1.865h3.962zm11 0 1.168.046.512.02.392.33 1.294 1.088.49.411.042.638.176 2.64.003.045v.046l.014 2.64v.087l-.01.086-.29 2.64-.089.801-.717.368-1.672.859-.494.252-.54-.128-2.247-.538-1.16-.278.008-1.19.017-2.608-.121-2.593-.004-.086.006-.086.177-2.608.019-1.165-.933-1.865h3.962zm22 0 1.168.046.512.02.392.33 1.294 1.088.49.411.042.638.176 2.64.003.045v.046l.014 2.64v.087l-.01.086-.29 2.64-.089.801-.717.368-1.672.859-.494.252-.54-.128-2.248-.538-1.159-.278.008-1.19.017-2.608-.121-2.593-.004-.086.006-.086.177-2.608.019-1.165-.933-1.865h3.962zm11 0 1.168.046.512.02.392.33 1.294 1.088.49.411.042.638.176 2.64.003.045v.046l.014 2.64v.087l-.01.086-.29 2.64-.089.801-.717.368-1.672.859-.494.252-.54-.128-2.248-.538-1.159-.278.008-1.19.017-2.608-.121-2.593-.004-.086.006-.086.177-2.608.019-1.165-.933-1.865h3.962zm21 0 1.168.046.512.02.392.33 1.294 1.088.49.411.042.638.176 2.64.003.045v.046l.014 2.64v.087l-.01.086-.29 2.64-.089.801-.717.368-1.672.859-.494.252-.54-.128-2.248-.538-1.159-.278.008-1.19.017-2.608-.121-2.593-.004-.086.006-.086.177-2.608.019-1.165-.933-1.865h3.962zm11 0 1.168.046.512.02.392.33 1.294 1.088.49.411.042.638.176 2.64.003.045v.046l.014 2.64v.087l-.01.086-.291 2.64-.088.801-.717.368-1.672.859-.494.252-.54-.128-2.248-.538-1.159-.278.008-1.19.017-2.608-.121-2.593-.004-.086.006-.086.177-2.608.019-1.165-.933-1.865h3.962zm-76.047 3.015-.003.04-.174 2.56.119 2.547.002.04v.04l-.01 1.448.55.13.46-.235.193-1.755-.013-2.498-.13-1.963-.412-.346-.582-.023zm11 0-.003.04-.174 2.56.119 2.547.002.04v.04l-.01 1.448.55.13.46-.235.193-1.755-.013-2.498-.13-1.963-.412-.346-.582-.023zm22 0-.003.04-.174 2.56.119 2.547.002.04v.04l-.01 1.448.55.13.46-.235.193-1.755-.013-2.498-.13-1.963-.412-.346-.582-.023zm11 0-.003.04-.174 2.56.119 2.547.002.04v.04l-.01 1.448.55.13.46-.235.193-1.755-.013-2.498-.13-1.963-.412-.346-.582-.023zm21 0-.003.04-.174 2.56.119 2.547.002.04v.04l-.01 1.448.55.13.46-.235.193-1.755-.013-2.498-.13-1.963-.412-.346-.582-.023zm11 0-.003.04-.174 2.56.119 2.547.002.04v.04l-.01 1.448.55.13.46-.235.193-1.755-.013-2.498-.13-1.963-.412-.346-.582-.023zM26.532 42.648l1.168.046.512.02.393.33 1.293 1.088.49.411.042.638.176 2.64.003.045v.046l.014 2.64v.087l-.01.086-.29 2.64-.089.801-.717.368-1.672.859-.494.252-.54-.128-2.247-.539-1.16-.277.008-1.19.017-2.608-.121-2.593-.004-.086.006-.086.177-2.608.019-1.165-.933-1.865h3.962zm33 0 1.168.046.512.02.392.33 1.294 1.088.49.411.042.638.176 2.64.003.045v.046l.014 2.64v.087l-.01.086-.29 2.64-.089.801-.717.368-1.672.859-.494.252-.54-.128-2.248-.539-1.159-.277.008-1.19.017-2.608-.121-2.593-.004-.086.006-.086.177-2.608.019-1.165-.933-1.865h3.962zm32 0 1.168.046.512.02.392.33 1.294 1.088.49.411.042.638.176 2.64.003.045v.046l.014 2.64v.087l-.01.086-.29 2.64-.089.801-.717.368-1.672.859-.494.252-.54-.128-2.248-.539-1.159-.277.008-1.19.017-2.608-.121-2.593-.004-.086.006-.086.177-2.608.019-1.165-.933-1.865h3.962zm-65.047 3.015-.003.04-.174 2.56.119 2.547.002.04v.04l-.01 1.448.55.13.46-.235.193-1.755-.013-2.498-.13-1.963-.412-.346-.582-.023zm33 0-.003.04-.174 2.56.119 2.547.002.04v.04l-.01 1.448.55.13.46-.235.193-1.755-.013-2.498-.13-1.963-.412-.346-.582-.023zm32 0-.003.04-.174 2.56.119 2.547.002.04v.04l-.01 1.448.55.13.46-.235.193-1.755-.013-2.498-.13-1.963-.412-.346-.582-.023zM27.227 29.5l-.141.012-.14-.012-2.462-.2-.996.177-.199 1.488-.01 2.12 1.393.114 2.508-.117v-.012l2.636-.175h.094l1.774-.011.007-.185-.41-2.46v-.012l-.164-.68-1.512-.293zm28.738 0-.14.012-.13-.012-1.687-.14-.305.562-.246 2.215-.027.962 1.242.1 2.508-.117v-.012l2.636-.175h.094l2.637-.012.094-.012.082.012 2.449.281 1.158-.15-.217-1.077-.058-.269.047-.281.28-1.723-.398-.293-2.003.352-.118.011h-.117l-2.637.024h-.152l-.152-.024-2.45-.48zm36.066 1.664-.047.105-.07.106-1.134 1.818 2.353-.111v-.012h.007l-.03-.066-.973-2.11z"/></svg>