<svg width="120" height="120" viewBox="0 0 120 120" fill="none" xmlns="http://www.w3.org/2000/svg">
<path d="M40.1484 6.94922L42.293 8.17969L42.7031 8.41406L42.9023 8.84766L44.0156 11.2031L44.0508 11.2969L44.0859 11.3789L44.8594 13.793L46.0664 15.9727L46.125 16.0781L46.1719 16.1836L47.0625 18.668L47.9648 21.1523L47.9766 21.1758L47.9883 21.1875L48.75 23.543L50.0742 25.6641L50.2148 25.8867L50.2734 26.1445L50.7539 28.4883L51.2227 29.1328L50.7041 29.501L50.8945 29.6445L51.5625 30.1484L51.4805 30.9805L51.2461 33.3945L51.6797 35.8555L51.7266 36.125L51.6797 36.3828L51.2344 38.8203L51.3984 41.3047V41.3516L51.4805 43.9883L51.5742 46.625V46.7422L51.5625 46.8594L51.2578 49.3203L51.4219 51.8633V52.0391L51.2812 54.4883L51.7031 56.9961L51.7266 57.207L51.7031 57.418L51.4102 59.9258L51.3281 62.4102L51.5156 65.0469V67.8594L51.5039 67.918L51.3047 70.4844L51.4102 72.9336L51.6562 75.5703L51.6797 75.7227L51.6562 75.875L51.3984 78.4297L51.4492 79.5918L51.8057 79.3135L55.3369 75.5469L55.4355 75.4414L55.5527 75.3564L57.6748 73.8232L58.9102 72.9316L59.7822 74.1797L61.168 76.1592L63.1455 77.5469L63.3115 77.6631L63.4404 77.8184L64.2793 78.832L65.0049 78.3633L65.5811 77.9893L66.2412 78.1826L68.167 78.7461L68.3535 78.8008L68.5205 78.9014L70.8193 80.2891L70.9717 80.3809L71.0977 80.5059L72.8799 82.2646L73.623 82.7637L74.6963 81.7773L74.7744 81.7061L74.8613 81.6465L76.918 80.2295L78.6211 78.4131L79.3252 77.6611L80.2793 78.0488L82.3027 78.8691L82.624 79L82.8555 79.2578L84.498 81.0879L86.5693 82.4375L86.8633 82.6289L87.042 82.9307L88.3076 85.0752L88.54 85.4678L88.5137 85.9229L88.3652 88.5234H90.7383L93.375 88.3359L93.4453 88.3242L93.5273 88.3359L96.1641 88.4062L96.7031 88.418L97.1133 88.7812L98.9297 90.3867V90.3984L101.039 92.2969L101.133 92.4258L102.668 94.5586L104.344 96.3867L104.449 96.4922L104.52 96.6094L105.797 98.6953L106.02 98.8945L105.033 99.96L106.23 99.7891L106.535 101.863L106.547 101.98V102.086L106.523 104.734V104.852L106.289 107.312L106.605 109.82L106.617 109.914V110.02L106.57 112.668L106.616 114.694L108.187 114.654L110.733 114.265L111.026 114.221L111.313 114.29L112.354 114.542L111.646 117.458L110.892 117.274L108.546 117.634L108.453 117.647L108.358 117.65L105.719 117.718L105.576 117.722L105.437 117.698L104.035 117.467L103.734 117.613L103.289 117.824L102.809 117.742L101.754 117.54L100.667 117.737L100.434 117.779L100.198 117.748L98.6719 117.54L98.0156 117.637L97.8633 117.66L97.7227 117.648L95.2266 117.508L92.6602 117.754L92.4609 117.777L92.2617 117.742L91.3184 117.569L89.7666 117.481V117.482L89.1074 117.449L87.5039 117.742L87.3281 117.766H87.1523L85.3262 117.652L84.7832 117.734L84.5879 117.764L84.3916 117.742L82.0635 117.477L80.7227 117.656L80.5938 117.668H80.4766L77.9492 117.601L76.7764 117.708L76.6152 117.723L76.4551 117.702L74.3613 117.441L72.8477 117.691L72.6836 117.727L72.5195 117.715L69.9766 117.574L67.4219 117.75L65.9688 117.844L65.915 117.29L63.7139 117.7L63.4717 117.745L63.2275 117.71L60.7324 117.353L58.2412 117.487L58.1299 117.493L58.0195 117.483L55.5771 117.253L53.1396 117.682L52.8789 117.728L52.6191 117.682L51.5 117.483V117.496H49.8594L49.8789 117.262L47.6934 117.398L47.6484 117.4L45.0078 117.484L45.0088 117.485L42.3691 117.572L42.2529 117.576L42.1387 117.562L39.6367 117.256L37.1377 117.42L37.0498 117.426L36.9609 117.421L34.4834 117.289L32.0029 117.697L31.7939 117.731L31.584 117.707L29.0088 117.402L26.5156 117.332L23.9473 117.517L23.8916 117.521H23.835L21.1943 117.511H21.1396L21.084 117.507L20.166 117.435L20.1602 117.461H20.1484L19.9697 117.42L18.5283 117.308L16.0215 117.409L13.4248 117.661L13.2734 117.676L13.123 117.66L10.5928 117.394L8.16406 117.499L8.13184 117.5H8V114.5H8.05762L10.5752 114.392L10.6865 114.388L10.7969 114.398L13.2871 114.661L15.7754 114.419L15.8174 114.415L15.8594 114.413L18.5 114.307L18.5879 114.304L18.6768 114.311L19.4365 114.369L19.832 113.137L20.2656 110.793L20.2422 108.297V108.238L20.3125 105.684L20.0078 103.293L19.9844 103.152L19.9961 103.012L20.0078 102.906L21.4961 103L22.0469 103.023L22.9844 102.918L23.3008 105.438L23.3125 105.555V105.66L23.2305 108.262H23.2422L23.2656 110.863L23.2773 111.016L23.2422 111.168L22.75 113.758L22.7383 113.852L22.7148 113.934L22.5303 114.516L23.7891 114.521L26.373 114.334L26.4473 114.329L26.5225 114.331L29.1621 114.405L29.2295 114.407L29.2959 114.415L31.7266 114.703L34.1572 114.304L34.3174 114.277L34.4795 114.286L37.0293 114.422L39.582 114.254L39.7227 114.245L39.8613 114.262L42.3896 114.57L44.9111 114.487H44.9121L47.5234 114.403L50.1279 114.241L50.1875 113.488L50.1055 111.38L48.6055 110.941L48.4648 110.906L48.3242 110.836L46.0039 109.617L45.7695 109.488L45.5938 109.289L43.8242 107.332L43.6484 107.145L43.5547 106.922L42.4766 104.449L42.3008 104.039L42.3828 103.594L42.8398 100.957V100.945L43.3203 98.3086L43.4141 97.8398L43.7539 97.5117L45.0078 96.2812L44.5977 94.9453L44.5039 94.6406L44.5391 94.3242L44.8438 91.7109L44.8555 91.6172L44.8789 91.5352L45.5 88.9336L45.6172 88.4297L46.0273 88.1133L48.1484 86.4375L48.3945 86.2383L48.6992 86.1562L51.2773 85.4883L51.5938 85.4062L51.9219 85.4648L52.2617 85.5234L52.9062 85.6406L52.9414 85.7109L54.8281 85.9922L55.2969 86.0625L55.6367 86.3906L57.5352 88.207L57.6641 88.3242L57.7578 88.4766L59.1641 90.6797L59.3633 91.0078L59.3984 91.3828L59.5859 94.0664L59.6094 94.4883L59.4102 94.8633L58.5195 96.5273L59.2109 97.8984L59.2227 97.9219L60.3711 100.312L60.5117 100.629V103.98L60.3594 104.285L59.2344 106.652L59.1875 106.746L57.8633 109.066L57.6523 109.441L57.2656 109.641L54.9102 110.906L54.7461 110.988L54.5703 111.035L53.1035 111.411L53.1875 113.5L53.1992 113.594L53.1875 113.688L53.1094 114.641L55.2607 114.264L55.46 114.229L55.6611 114.247L58.1934 114.486L60.7188 114.35L60.8662 114.341L61.0127 114.362L63.4072 114.706L65.627 114.293L65.582 113.824L65.5703 113.777V113.73L65.4883 111.094L65.4062 108.492L65.2422 105.855L65.2305 105.68L65.2656 105.504L65.6875 103.113L65.2656 100.734L65.1484 100.102L65.5352 99.5859L67.1289 97.418L68.6641 95.2852L68.7461 95.168L68.8516 95.0625L70.6211 93.3867L71.8516 91.1016L71.9688 90.9609L73.7266 88.9922L74.8281 87.75L75.502 88.4805L77.5781 88.3945L77.6836 88.3828L77.8008 88.3945L80.2852 88.6641L82.7695 88.418H82.8633L85.3721 88.3174L85.4922 86.207L84.6367 84.7588L82.6943 83.4932L82.5293 83.3857L82.3965 83.2383L80.8535 81.5186L80.1055 81.2158L78.9971 82.3984L78.8867 82.5166L78.7539 82.6084L76.6484 84.0576L74.7832 85.7725L73.9121 86.5732L72.9307 85.9131L71.0889 84.6748L70.9727 84.5967L70.8721 84.498L69.1172 82.7656L67.1367 81.5693L66.0586 81.2539L64.791 82.0762L63.6709 82.8027L62.8193 81.7744L61.2568 79.8867L59.2285 78.4639L59.0127 78.3125L58.8613 78.0957L58.1973 77.1465L57.4248 77.7041L53.9131 81.4521L53.834 81.5371L53.7432 81.6084L51.6484 83.2471L50.8213 83.8936L49.9307 83.3389L48.1797 82.2471L46.2012 81.4453L44.0283 81.791L41.4922 82.3301L40.6797 82.502L40.1025 81.9053L38.9854 80.751L38.8623 80.624L38.7725 80.4727L37.4541 78.251L35.9824 76.2383L34.4062 74.4668L32.4775 73.2646L30.1387 72.4648L30.1172 72.458L30.0957 72.4492L27.8496 71.6055L25.5479 71.5371L25.2773 71.5293L25.1963 71.4961L23.6064 71.6162L21.3105 72.083L19.1582 73.2031L19.1455 73.2109L19.1318 73.2178L16.9463 74.2979L15.2344 75.8506L13.7715 77.7598L12.585 79.8789L11.7246 82.0781L11.502 84.3516L11.668 85.624L13.4414 84.7812L13.7344 84.6406L14.0625 84.6289L16.5234 84.582L16.5469 84.5703V84.582L16.7344 84.5703V85.1914L17.0039 86L17.4492 87.4297L17.2148 87.5L17.0039 87.5703H16.793L14.4492 87.6172L12.4453 88.5664L10.5117 89.8086L9.31641 91.7891L9.30469 91.8125L9.28125 91.8359L7.95703 93.8047L7.40625 95.9023L7.58203 98.1523L8.17969 100.496L9.08203 102.547L10.6055 104.129L12.668 105.266L14.7656 106.309L17.0039 106.449L17.3789 106.473L17.6953 106.66L17.7773 106.719L17.0039 107.996L16.8867 108.16L16.8281 109.449L14.2734 109.285L13.957 109.273L13.6875 109.133L11.2734 107.926L8.96484 106.648L8.76562 106.543L8.61328 106.379L6.75 104.469L6.5625 104.27L6.45703 104.023L5.37891 101.586L5.33203 101.469L5.29688 101.352L4.66406 98.7969L4.62891 98.6797L4.61719 98.5508L4.40625 95.9023L4.38281 95.6562L4.44141 95.3984L5.12109 92.8203L5.17969 92.5859L5.32031 92.375L6.78516 90.1719L8.14453 87.9453L8.32031 87.6523L8.61328 87.4648L9.10059 87.1514L8.84668 87.1855L8.50488 84.5693L8.48242 84.3984L8.49902 84.2285L8.75977 81.5781L8.78027 81.3721L8.85547 81.1787L9.82617 78.6973L9.86328 78.6006L9.91406 78.5107L11.208 76.1992L11.2607 76.1055L11.3262 76.0195L12.9385 73.916L13.0205 73.8086L13.1211 73.7178L15.0879 71.9346L15.2422 71.7949L15.4297 71.7021L17.7832 70.5371L20.1143 69.3242L20.3018 69.2266L20.5078 69.1846L23.0986 68.6592L23.1904 68.6396L23.2842 68.6328L25.3867 68.4727L27 68.3506V68.5801L28.1914 68.6152L28.4404 68.6221L28.4668 68.6318L28.3594 66.8281L28.3477 66.6875L28.3711 66.5352L28.7578 63.9688V61.6133L28.3711 59.0586L28.3477 58.9648V58.8711L28.2773 56.2227V56.082L28.3008 55.9414L28.6992 53.5625L28.2656 51.1719L28.2188 50.9375L28.2539 50.7031L28.5938 48.1484L28.582 45.7461L28.3711 43.1094L28.3594 43.0039L28.3711 42.8984L28.5234 40.2617L28.6406 37.7773L28.2656 35.293L28.2305 35.0938L28.2539 34.9062L28.5469 32.3398L28.7109 29.8555L28.7344 29.4893L28.6055 29.4375L28.6406 29.3555L28.6641 29.2852L28.7607 29.0752L28.7695 28.9414L28.8359 28.9121L29.6602 27.1289L30.3633 24.6211L30.3984 24.4805L30.4688 24.3516L31.6875 21.9844L32.6953 19.7109L33.457 17.2969L33.4805 17.2383L33.4922 17.1914L34.4648 14.7305L34.4883 14.6836L34.5117 14.625L35.6367 12.3164L36.5273 9.91406L36.5859 9.73828L36.6914 9.58594L38.1562 7.40625L38.9414 6.24609L40.1484 6.94922ZM91.9219 101.512H91.8047L89.168 101.523H89.1094L89.0508 101.512L86.4609 101.324L84.9492 101.371L84.6914 102.086L84.6123 102.559L84.6133 102.574V102.691L84.6016 102.797L84.333 105.256L84.3359 105.314L84.5781 107.777L84.5898 107.812V107.859L84.6953 110.496V110.672L84.5713 112.229L84.5742 112.258V112.375L84.5156 114.191L85.125 114.625L85.2402 114.632L86.9766 114.371L87.124 114.349L87.2734 114.356L88.9492 114.438L89.6133 114.32L89.8828 114.273L90.1406 114.32L91.7031 114.588L92.4648 114.632L94.999 114.426L95.0547 114.422L95.1094 114.421L97.75 114.403L97.8564 114.402L97.9619 114.417L98.665 114.513L100.23 114.285L100.477 114.25L100.711 114.297L101.767 114.489L102.773 114.308L103.028 114.262L103.284 114.304L103.594 114.354L103.617 114.344L103.57 112.668V112.609L103.617 110.066L103.301 107.547L103.277 107.383L103.289 107.219L103.535 104.699L103.547 102.203L103.441 101.441L102.375 101.395L99.8789 101.664L99.7266 101.676L99.5742 101.664L96.9375 101.406L96.9492 101.395L94.5 101.301L91.9219 101.512ZM74.3359 92.8125L73.1406 95.0391L73.0352 95.25L72.8477 95.4258L71.0195 97.1367L69.5664 99.1758L69.5547 99.1875V99.1992L68.3242 100.852L68.6758 102.855L68.7227 103.125L68.6758 103.383L68.2422 105.855L68.3945 108.305V108.328L68.4062 108.352L68.4883 110.988L68.5703 113.531L68.6494 114.367L68.7656 114.374L71.3672 114.43L73.9746 114.386L74.0801 114.384L74.1846 114.397L74.3184 114.414L74.9922 114.305L75.2031 114.27L75.4141 114.293L77.9072 114.591L79.1436 114.479L79.2061 114.473H79.2686L81.4844 114.455V113.145L81.4961 113.086L81.5596 112.258L81.2578 109.867L81.2461 109.727L81.2578 109.586L81.4219 107.02L81.3271 105.317L81.3203 105.27L81.3232 105.246L81.2812 104.477V104.312L81.3047 104.16L81.5947 102.388L81.5078 100.465L80.4414 99.1523L78.6484 97.2891L78.5312 97.1719L78.4492 97.0312L77.1016 94.8398L75.543 92.9648L74.8516 92.2266L74.3359 92.8125ZM91.9883 106H92V106.059L92.1055 107.055L92.1289 107.301L92.0703 107.535L91.8945 108.262L91.9648 108.414L92.8555 110.5H90.5V109.035L89.2109 109.586L88.9531 108.988L88.7539 108.543L88.8711 108.062L89.0938 107.102L89.0117 106.246L89 106.176V106L91.9883 105.953V106ZM99.9883 106H100V106.059L100.105 107.055L100.129 107.301L100.07 107.535L99.8945 108.262L99.9648 108.414L100.855 110.5H98.5V109.035L97.2109 109.586L96.9531 108.988L96.7539 108.543L96.8711 108.062L97.0938 107.102L97.0117 106.246L97 106.176V106L99.9883 105.953V106ZM35 96.0352L35.1055 98.5781L35.1172 98.6836L35.1055 98.8008L34.8359 101.285L35.082 103.77V103.863L35.1875 106.5L35.1992 106.594L35.1875 106.688L34.9883 109.125L33.5 108.996V110.496H31.8594L32 108.879L32.1875 106.488L32.0938 104.062L31.8359 101.426L31.8242 101.273L31.8359 101.121L32.0938 98.625L32 96.1641V96H35V96.0352ZM49.7656 88.9805L48.2891 90.1289L47.7969 92.2383L47.5508 94.3477L48.1484 96.2578L48.4297 97.1367L47.7734 97.7812L46.1797 99.3281L45.793 101.484L45.4062 103.664L46.2031 105.504L47.6211 107.062L49.5664 108.094L49.832 108.171L49.8359 108.121L50.0938 105.625L50 103.164V103H53V103.035L53.1055 105.578L53.1172 105.684L53.1055 105.801L52.8359 108.285L52.8447 108.377L53.6328 108.176L55.4727 107.191L56.5742 105.27L57.5117 103.289V101.285L56.5273 99.2461L55.4961 97.1953L55.1562 96.5039L55.5195 95.8242L56.5508 93.8555L56.4219 91.9688L55.2969 90.2109L53.9023 88.875L51.8281 88.5703L51.5352 88.5234L49.7656 88.9805ZM75.9883 102H76V102.059L76.1055 103.055L76.1289 103.301L76.0703 103.535L75.8945 104.262L75.9648 104.414L76.8555 106.5H74.5V105.035L73.2109 105.586L72.9531 104.988L72.7539 104.543L72.8711 104.062L73.0938 103.102L73.0117 102.246L73 102.176V102L75.9883 101.953V102ZM83.0508 91.3945L83.0625 91.4062L80.4258 91.6641L80.2734 91.6758L80.1211 91.6641L78.1865 91.4551L79.4922 93.0234L79.5508 93.1055L79.6094 93.1992L80.9336 95.3438L82.6445 97.125L82.6914 97.1719L82.7266 97.2188L83.7002 98.4092L83.8359 98.4062L86.4727 98.3359L86.5547 98.3242L86.625 98.3359L89.2617 98.5234H91.6992L91.6875 98.5117L94.3242 98.3125L94.4062 98.3008L94.5 98.3125L97.1367 98.418H97.2305L99.7148 98.6641L102.088 98.4062L102.035 98.3203L100.348 96.457L100.289 96.3984L100.242 96.3281L98.7773 94.3008L96.9375 92.6367L95.5195 91.3828L93.5391 91.3242L90.9492 91.5117L90.8906 91.5234H90.832L88.1953 91.5117H88.0781L85.5 91.3008L83.0508 91.3945ZM38.0273 29.7148L35.5078 30.0898H35.4727L35.4375 30.1016L33.0352 30.3359L31.6406 30.9453L31.5469 32.5273V32.5625L31.5352 32.5977L31.2539 35.0469L31.6523 37.6367L31.6406 37.7773L31.5117 40.4258V40.4375L31.3594 42.9453L31.5703 45.5117L31.582 45.5586V45.6172L31.5938 48.2539V48.3711L31.582 48.4766L31.2539 50.8789L31.6875 53.2812L31.7344 53.5391L31.6992 53.7969L31.2773 56.3281L31.3359 58.6484L31.7344 61.2383L31.7578 61.3555V61.4727L31.7461 64.1094V64.2266L31.7227 64.332L31.3594 66.7695L31.5 69.3008V69.7588L33.6094 70.4814L33.7715 70.5371L33.917 70.6279L36.0459 71.9541L36 71.1875V71H39V71.0117L39.1055 72.9102L39.1172 73.0625L39.0938 73.2031L38.8477 74.8906L38.9189 75.1709L39.918 76.5381L39.9609 76.5957L39.9971 76.6572L41.2607 78.7881L41.6816 79.2227L43.4375 78.8506L43.4756 78.8428L43.5137 78.8359L46.1436 78.418L46.5557 78.3516L46.9424 78.5088L48.418 79.1064L48.3867 78.4297V78.3125L48.3984 78.207L48.4707 77.5039H47.5V76.0273L46.1406 76.3672L45.8828 75.3711L45.8008 75.0898L45.8477 74.7969L46.1055 72.9336L46 71.1875V71H48.3252L48.3047 70.4961V70.3203L48.5156 67.6836V65.1523L48.3398 62.6328L48.3281 62.5508V62.4805L48.4102 59.832V59.7031L48.7031 57.2422L48.3047 54.8398L48.2812 54.6875V54.5234L48.3828 52.5039H47.5V51.0273L46.1406 51.3672L45.8828 50.3711L45.8008 50.0898L45.8477 49.7969L46.1055 47.9336L46 46.1875V46H48.5449L48.4922 44.0938L48.3984 41.4922L48.2344 38.8555V38.6797L48.2578 38.5039L48.6797 36.1133L48.2578 33.7344L48.2227 33.5352L48.2461 33.3359L48.4102 31.5195L47.4727 30.8281L45.4922 29.9727L43.1484 30.0195H43.043L42.9492 30.0078L40.4297 29.7031L38.0273 29.7148ZM39 46.0117L39.1055 47.9102L39.1172 48.0625L39.0938 48.2031L38.8477 49.8906L39.0352 50.6289L39.5156 52.5039H37.5V51.0273L36.1406 51.3672L35.8828 50.3711L35.8008 50.0898L35.8477 49.7969L36.1055 47.9336L36 46.1875V46H39V46.0117ZM39.2695 11.1094L38.4258 13.418L38.4023 13.4883L38.3672 13.5586L37.2188 15.9375H37.207L36.3281 18.1875L35.5312 20.7188L35.5078 20.8008L35.4727 20.8828L34.3945 23.2969L34.3711 23.332L34.3594 23.3672L33.1875 25.6172L32.6973 27.3604L35.1328 27.1133L37.6758 26.7383L37.7812 26.7266H37.8867L40.5117 26.7031H40.6055L40.6992 26.7148L43.1953 27.0078L45.7852 26.9727H46.1016L46.4062 27.1016L47.4951 27.5703L47.3789 27.0234L46.1133 24.9609L46.0195 24.8086L45.9609 24.6445L45.1289 22.1367L44.25 19.6875L43.3828 17.332L42.1641 15.082L42.0938 14.9648L42.0469 14.8242L41.25 12.4102L40.3711 10.5469L39.8555 10.2539L39.2695 11.1094Z" fill="black"/>
</svg>
