<svg width="120" height="120" viewBox="0 0 120 120" fill="none" xmlns="http://www.w3.org/2000/svg">
<g clip-path="url(#clip0_473_679)">
<path d="M58.4775 0.609375L60.6572 1.32422L62.8486 0.820312L63.1768 0.75L63.5049 0.820312L66.0244 1.38281L66.2471 1.42969L66.4346 1.53516L68.7314 2.83594L69.2588 3.14062L69.4346 3.72656L70.0557 5.88281L71.5439 7.40625L71.9307 7.80469L71.9658 8.34375L72.165 10.9102H72.1533L72.4111 13.3594H72.4229L72.7744 15.6211L72.8564 16.1836L72.5518 16.6641L71.6143 18.1172L72.3525 19.3945L73.8057 21.9375L73.8174 22.3242L73.8594 24.5635L73.9629 24.5967L74.1934 24.3545L74.2051 24.3311L74.2285 24.3076L75.9746 22.5498L77.0879 20.71L77.5332 18.4014V18.3545L78.0723 15.8936L78.1074 13.5967L77.8027 10.9482L77.7793 10.749L77.8145 10.5498L78.2129 7.91309L78.2715 7.56152L78.4707 7.26855L80.0059 5.10059V5.08887L80.0176 5.07715L81.5879 2.9209L81.8691 2.53418L82.3145 2.38184L84.8457 1.50293L85.0566 1.45605L87.6113 0.952148L87.7871 0.916992L87.9629 0.928711L90.6113 1.05762L90.916 1.06934L91.1973 1.20996L93.5762 2.37012L93.7051 2.44043L93.8223 2.52246L95.8613 4.06934H95.873L98.0645 5.60449L98.3105 5.78027L98.4746 6.03809L99.9043 8.28809L101.311 10.5146V10.5264L101.322 10.5381L102.705 12.8115L102.822 12.999L102.869 13.2217L103.525 15.7998L104.311 18.2139L104.357 18.3545L104.932 20.9209L104.943 20.9795V21.0498L105.283 23.5107L106.104 25.9131L106.197 26.1826L106.186 26.4521L106.092 28.9951L106.408 31.5029L106.42 31.6318V31.7725L106.279 34.2334L106.748 36.6943L106.795 36.9756L106.748 37.2451L106.268 39.6826L106.314 42.2021V42.2842L106.232 44.9326V44.9561L106.092 47.5928L106.08 47.71L106.057 47.8389L105.506 50.2881L105.4 52.8076V52.9131L105.377 53.0068L104.943 55.4561L105.002 57.9873L105.014 58.21L104.955 58.4326L104.229 60.9873L103.713 63.3545L103.361 65.9912L103.35 66.0615L103.338 66.1436L102.717 68.71L102.693 68.7803L102.67 68.8623L101.768 71.3467L101.123 73.7725L100.748 75.1318L99.377 74.8506L96.9043 74.3584L96.6934 74.3115L96.4941 74.2061L94.3027 73.0342L92.4473 72.4814L92.043 72.6855L91.7666 72.8252L91.457 72.8428L90.249 72.9141L90.248 73.2744L90.6338 75.8018L90.6475 75.8945L90.6504 75.9893L90.7178 78.6328L90.7217 78.7754L90.6982 78.915L90.3057 81.2979L90.7373 83.6855L90.7793 83.9189L90.748 84.1543L90.4033 86.6895L90.4199 89.1689L90.6299 91.7539L90.6377 91.8574L90.6318 91.96L90.4814 94.5947L90.3594 97.084L90.7344 99.583L90.7637 99.7783L90.7422 99.9746L90.4521 102.511L90.4717 105.006L90.7031 107.583L90.7275 107.864L90.6494 108.135L89.9092 110.689L89.8652 110.84L89.791 110.979L88.5742 113.257L88.4092 113.564L88.126 113.769L86.0264 115.275L85.7939 115.442L85.5176 115.512L83.0146 116.142L83.0137 116.141L80.4346 116.805L80.1445 116.879L79.8477 116.836L77.3535 116.479L74.8633 116.613L74.7529 116.619L74.6416 116.609L72.2041 116.379L69.7617 116.808L69.501 116.854L69.2402 116.808L66.8223 116.378L64.665 116.643L62.6885 117.675L60.7432 119.222L59.6533 120.088L58.709 119.066L57.125 117.355L55.1045 116.649L52.834 116.419L50.3887 116.82L50.1777 116.854L49.9658 116.829L47.3877 116.517L44.8838 116.435L42.3223 116.6L42.2627 116.604L42.2031 116.603L39.5625 116.563L39.499 116.562L39.4346 116.556L36.8008 116.291L36.5889 116.27L36.3906 116.189L34.0625 115.253L33.8506 115.168L33.6748 115.024L31.6162 113.347L31.2969 113.086L31.1553 112.698L30.2461 110.206L30.1963 110.072L30.1738 109.931L29.8408 107.869L29.8135 107.84L29.7236 107.463L29.4883 106.472L29.416 106.166L29.4717 105.856L29.9062 103.469L29.4883 101.099L29.457 100.921L29.4688 100.741L29.6387 98.1309L29.6631 95.5684L29.6348 92.918V92.8779L29.6768 90.3242L29.4404 87.7637L29.4277 87.6201L29.4424 87.4775L29.6982 84.918L29.6777 82.3691L29.6289 79.7275L29.6279 79.708V79.6875L29.6494 77.0449V77.0195L29.6504 76.9932L29.7588 74.4277L29.6006 71.918L29.5879 71.8193L29.5371 71.9111L29.373 72.6494L29.1621 72.5908H29.1504L26.8535 72.0635L26.4902 71.9814L26.209 71.7354L24.2285 70.0127L23.9238 69.7549L23.7949 69.3916L23.4004 68.2969L23.1992 68.4492L23.1172 68.5078L23.0352 68.5547L20.8672 69.75L18.9688 71.4141L17.8789 72.3633L16.8945 71.3086L15.3828 69.7148L15.0547 69.3633L14.9961 68.8828L14.6445 66.2695L14.2695 63.7266L13.7539 61.125L13.7305 61.043L13.7188 60.9609L13.5078 58.3242V58.1719L13.5547 55.7344L12.9102 53.3555L12.8633 53.1797V53.0039L12.793 50.4375L12.4531 47.8828L12.4297 47.7305L12.4414 47.5781L12.6523 45.0117L12.5 42.4922V42.457L12.4062 39.8203L12.2891 37.1836V36.9844L12.3242 36.7852L12.8633 34.3945L12.6055 31.9805L12.582 31.7578L12.6172 31.5352L13.1211 29.0156L13.3086 26.4609L13.3203 26.2852L13.3789 26.1211L14.1172 23.7773L14.1875 21.3164L14.1992 21.1055L14.2578 20.8945L15.0664 18.3633L15.0781 18.3516V18.3281L15.957 15.832V15.8203L15.9688 15.7969L16.918 13.3125L16.9766 13.1602L17.0586 13.0195L18.4883 10.8516L19.625 8.60156L19.6953 8.47266L19.7891 8.35547L21.418 6.26953L21.5352 6.11719L21.6875 6L23.7852 4.40625L25.6016 2.68359L25.8125 2.48438L26.0938 2.37891L28.5781 1.42969L28.7539 1.37109L28.9297 1.34766L31.5312 1.03125L31.6484 1.01953H31.7539L34.3789 1.07812L34.6719 1.08984L34.9414 1.20703L37.3789 2.27344L37.707 2.41406L37.9414 2.69531L39.5938 4.71094L41.3047 6.76172L41.6094 7.125L41.6445 7.59375L41.8672 10.2539L41.8789 10.3242V10.3945L41.8555 12.9727L41.9375 15.5742V15.6328L41.9258 18.2344L42.0078 20.4492L43.0625 22.3477L44.6914 24.1406L45.165 24.6611V24.3516L45.1768 24.2578L45.5049 21.8789L45.5986 21.1758L46.1963 20.8008L47.9893 19.6875L48.3408 18.7148L47.04 17.7188L46.5479 17.3438L46.4658 16.7344L46.126 14.2266L46.0557 13.7344L46.29 13.3008L47.415 11.2383L47.7783 9L47.5908 6.5625L47.5088 5.47266L48.5049 5.0625L50.5791 4.19531L51.7158 2.35547L51.9736 1.93359L52.4189 1.74609L54.7979 0.75L55.0439 0.644531L55.3135 0.632812L57.9619 0.527344L58.2314 0.515625L58.4775 0.609375ZM46.0566 59.6074L45.1543 59.7109L45.0518 59.7236L45.0088 59.3594L43.7061 59.3896L41.1309 59.6543L41.0547 59.6621H40.9785L38.3389 59.6641H38.2842L38.2305 59.6602L35.6162 59.4717L33.2588 59.3984L32.3291 59.6826L32.3057 61.1875L32.4062 63.7881L32.4072 63.8242V63.8604L32.3809 66.5137V66.5361L32.3799 66.5586L32.2793 69.0703L32.584 71.6006L32.5889 71.6436L32.5918 71.6865L32.7578 74.3213L32.7627 74.4004L32.7588 74.4785L32.6494 77.0684L32.6279 79.6719L32.6777 82.3135V82.3301L32.6982 84.9717L32.6992 85.0518L32.6904 85.1318L32.4414 87.626L32.6709 90.1289L32.6787 90.21L32.6768 90.291L32.6348 92.8857L32.6631 95.5361V95.5664L32.6367 98.2051V98.2461L32.6338 98.2871L32.4727 100.755L32.9062 103.215L32.9531 103.479L32.9053 103.743L32.4795 106.084L32.5527 106.393L32.6602 106.511L32.7314 106.951L33.1133 109.314L33.8311 111.281L35.3936 112.555L37.3135 113.326L39.666 113.563L42.1885 113.603L44.7705 113.437L44.8438 113.432L44.917 113.434L47.5557 113.521L47.6211 113.523L47.6865 113.531L50.1133 113.824L52.5439 113.427L52.7402 113.395L52.9375 113.415L55.585 113.684L55.7617 113.701L55.9287 113.76L58.4678 114.647L58.8203 114.771L59.0732 115.045L59.9648 116.008L60.9336 115.238L61.0449 115.149L61.1719 115.083L63.5176 113.857L63.7588 113.731L64.0293 113.698L66.6816 113.373L66.9043 113.346L67.126 113.385L69.502 113.807L71.8838 113.39L72.082 113.354L72.2832 113.374L74.8145 113.611L77.3408 113.475L77.4893 113.467L77.6357 113.488L79.9766 113.824L82.2754 113.234L82.2822 113.232L84.5078 112.672L86.0918 111.534L87.0703 109.704L87.6895 107.568L87.4785 105.213L87.4727 105.152V105.091L87.4521 102.444V102.354L87.4619 102.264L87.7383 99.833L87.3711 97.3828L87.3486 97.2354L87.3564 97.0869L87.4854 94.4482L87.4863 94.4365L87.6309 91.8896L87.4258 89.3555L87.4219 89.2998L87.4209 89.2451L87.4033 86.6045L87.4023 86.499L87.417 86.3936L87.7432 83.9873L87.3076 81.5781L87.2617 81.3232L87.3037 81.0674L87.7148 78.5674L87.6533 76.1592L87.2646 73.6094L87.2471 73.4941L87.248 73.3779L87.2578 70.7402V70.6338L87.2734 70.5283L87.6367 68.0361L87.4971 65.5439L87.4941 65.5059V65.4678L87.4805 62.8203V62.7705L87.5469 60.3379L87.3145 59.4053L85.9316 59.3574L83.415 59.6904L83.2793 59.709L83.1426 59.7021L80.5996 59.5742L78.0576 59.7783L77.9111 59.79L77.7656 59.7734L75.2344 59.4795L72.6992 59.5498H72.6592L70.0498 59.5518L67.4502 59.6787L67.3984 59.6807L67.3467 59.6797L64.707 59.626H64.7061L62.0791 59.5684V59.5693L59.4678 59.5352L56.8682 59.624H56.8652L54.2256 59.708L54.1963 59.709H54.166L51.5264 59.6885H51.5088L48.8691 59.6367L48.7969 59.6357L48.7246 59.627L46.1895 59.332H46.1611L46.0566 59.6074ZM61.6396 66.4775L62.6475 68.833L63.8779 71.1064L63.9482 71.2354L63.9951 71.376L64.7217 73.8018L65.7646 76.1689L65.8232 76.2979L65.8467 76.4502L66.3154 78.5479L67.3115 79.3916H69.3623L71.999 79.2979L72.0576 79.2861L72.1162 79.2979L74.7646 79.4033H74.7764L77.4131 79.5557H77.5186L77.6123 79.5791L80.1904 80.0596L81.6904 80.3408L81.374 81.8408L81.1982 82.708L81.0811 83.2354L80.6709 83.5752L80.624 83.5986L78.9131 85.3213L78.7959 85.4385L78.6553 85.5322L76.5107 86.8799L74.6943 88.5791L74.6592 88.6143L74.624 88.6377L72.585 90.3252L72.5264 90.3838L72.4561 90.4307L70.9092 91.4268V92.7744L71.7646 94.9658L71.7881 95.0479L71.8115 95.1182L72.4912 97.6729L72.5146 97.7432L72.5264 97.8018L72.9482 100.228L74.0381 102.407L74.2256 102.771L74.1904 103.169L74.0381 105.7L73.8975 107.81L71.9521 106.989L69.5029 105.958L69.2803 105.876L69.1045 105.712L67.1357 104.024L65.0381 102.712H65.0264L62.7998 101.294V101.282L60.667 99.9932L59.4131 99.5244L58.1943 100.731L58.042 100.872L57.8662 100.966L55.6162 102.22L53.6357 103.743L53.5068 103.837L53.3779 103.907L51.1514 104.974L49.3115 106.673L47.8936 107.974L46.9795 106.274L45.9248 104.317L45.6318 103.755L45.8193 103.146L46.6396 100.638L47.3428 98.1533L47.3662 98.0479L47.4131 97.9541L48.4326 95.6338L48.9131 93.2314L49.2295 91.5088L48.1045 90.3369L45.9482 89.1416L45.8193 89.0713L45.7021 88.9775L43.6865 87.2549H43.6748V87.2432L41.6826 85.4971H41.6709L39.6436 84.0674L38.7998 83.4697L39.0576 82.4736L39.4912 80.751L39.8193 79.4736L41.1201 79.626L43.5342 79.8955L45.9248 79.415L46.1826 79.3564L46.4404 79.3916L48.9482 79.7314L51.3037 79.6025L52.9092 79.2393L53.5771 77.7158L53.6006 77.6572L53.624 77.6104L54.7725 75.3955L55.499 72.9697L55.5107 72.9229L55.5225 72.8877L56.4248 70.4033L56.4482 70.3564L56.46 70.3213L57.5146 67.8955L57.6201 67.6377L57.8076 67.4385L59.1787 66.0322L60.749 64.415L61.6396 66.4775ZM59.2139 71.5049L58.3701 73.8018L58.3818 73.8135L57.6318 76.3564L57.585 76.4971L57.5146 76.626L56.2842 78.9932L55.3818 81.126L55.0771 81.8291L54.3271 81.9932L51.8545 82.5557L51.7256 82.5908H51.6084L48.9717 82.7432H48.8193L48.6787 82.7314L46.2646 82.3916L43.9092 82.8955L43.6748 82.9424L43.4287 82.9072L43.1592 82.8721L43.5459 83.1416L43.6045 83.1885L43.6748 83.2471L45.6553 84.9932H45.6436L47.5068 86.5752L49.7334 87.8174L49.9326 87.9229L50.085 88.0869L51.9248 89.9736L52.4756 90.5361L52.335 91.2979L51.8662 93.8057V93.8174L51.8545 93.8291L51.3271 96.4189L51.3037 96.583L51.2334 96.7354L50.1904 99.0674L49.5107 101.505L49.499 101.54L49.4873 101.563L49.0771 102.806L49.3115 102.606L49.4639 102.466L49.6631 102.36L51.9365 101.247L53.9053 99.7588L53.999 99.6885L54.0928 99.6416L56.2021 98.458L57.9951 96.7119L58.6865 96.0322L59.5771 96.3721L61.874 97.251L62.0029 97.2979L62.1201 97.3682L64.3818 98.7393L64.4053 98.7627L66.6436 100.181H66.6318L68.8701 101.575L68.9639 101.634L69.0459 101.716L70.874 103.274L71.167 103.403V103.38L70.1592 101.353L70.0654 101.153L70.0303 100.942L69.5967 98.4463L68.9404 95.9971L68.0146 93.583L67.9092 93.3135V93.0322L67.9209 90.6182V89.8096L68.6006 89.3643L70.8037 87.9111L72.6436 86.376L74.5771 84.583L74.6826 84.4775L74.8115 84.4072L76.9209 83.0596L77.3896 82.5908L77.1553 82.5439L74.6123 82.4033V82.3916L72.0342 82.2861L69.4678 82.3799L69.4443 82.3916H66.2217L65.7998 82.04L63.9951 80.5166L63.6084 80.1885L63.5029 79.6963L62.9639 77.2822L61.9443 74.9502L61.9092 74.8682L61.8857 74.7744L61.1592 72.3838L59.9639 70.1807L59.9404 70.1221L59.9053 70.0635L59.8701 69.9814L59.2139 71.5049ZM85.7012 4.37402L83.7441 5.05371L82.4434 6.84668L81.1191 8.70996L80.8145 10.7725L81.0957 13.2568L81.1074 13.3506V13.4443L81.0723 16.0928V16.2451L81.0371 16.3975L80.4746 18.999L80.4629 18.9873L79.9824 21.542L79.9355 21.7998L79.7949 22.0342L78.4355 24.2842L78.3418 24.4365L76.5225 26.2549L76.5918 26.3018L77.0488 26.6064L77.2012 27.1455L77.3174 27.5703L78.1367 27.5625H78.6992L79.1328 27.9258L81.0547 29.5781L81.207 29.6953L81.3125 29.8594L82.8242 32.0391L82.9766 32.2617L83.0469 32.5195L83.7148 35.0859V35.1094L84.3242 37.5703L84.1602 37.6084L84.2158 37.6465L84.3975 37.7715L84.5352 37.9443L84.6885 38.1367L84.6816 37.6934L84.6807 37.6338L84.6914 37.5762L84.873 34.9404L84.875 34.8691L84.8877 34.7998L85.3145 32.1973L85.5088 29.6826L85.4902 27.1631L85.4941 27.0811L85.5088 27L85.7861 24.3691L85.7803 24.333L85.7852 24.3096L86.1621 21.8408L85.9951 19.3535L85.9863 19.2686L85.9805 19.1719L86.1299 16.6494L86.1357 16.5547L87.626 16.6182L89.1279 16.6836L89.1201 16.79L89.1289 16.8037L88.9854 19.2324L89.1611 21.8047L89.1797 21.9629L89.1494 22.124L88.7666 24.6875L88.5029 27.249V29.7998L88.5049 29.9199L88.2881 32.5498L88.2871 32.6211L88.2764 32.6787L87.8467 35.2324L87.6748 37.752L87.7197 40.3232L87.7236 40.4912L87.6797 40.6611L87.3857 42.0205L87.5703 42.334L89.2461 44.2344L89.3984 44.4072L89.4922 44.6182L90.1758 46.1592L90.4463 44.1729L90.4727 44.0352L91.0244 41.5869L91.3701 39.1006L91.4922 36.4648L91.4961 36.3818L91.5088 36.3125L91.8887 33.7012L92.3613 31.167L92.2334 28.7236L92.2256 28.6387L92.2295 28.5557L92.3926 26.0225L92.3945 26.0117L92.4023 25.9053L95.3887 26.1289L95.3848 26.2119L95.2295 28.5791L95.3525 31.2363L95.3574 31.4043L95.3252 31.5771L94.8594 34.1367L94.4736 36.6514L94.3711 39.2432L94.3604 39.3008L94.3594 39.3721L94.002 41.9873L93.9785 42.1143L93.4238 44.5742L93.0635 47.1416L92.9248 49.7383L92.9043 49.9727L92.8154 50.1943L92.6182 50.6963L93.0879 51.457L93.1309 51.5254L93.165 51.5977L94.3047 53.9814L94.3418 54.0576L94.3691 54.1377L94.8232 55.4512L94.8701 55.2305L94.8799 55.1836L94.8926 55.1377L95.5928 52.5947L95.6074 52.54L95.627 52.4863L96.498 50.0654L97.1035 47.6445L97.4697 45.1074L97.4785 45.043L97.4941 44.9805L98.0938 42.4111L98.0967 42.3994L98.1006 42.3857L98.7041 39.9941L98.6953 37.5264V37.4668L98.7002 37.4072L98.8936 34.8779L98.8975 34.8369L98.9033 34.7969L98.915 34.6973L101.89 35.0898L101.881 35.1572L101.695 37.5762L101.704 40.1738V40.3623L101.658 40.5459L101.009 43.1191L100.431 45.5977L100.061 48.1562L100.049 48.2314L100.03 48.3057L99.3887 50.8672L99.3711 50.9404L99.3457 51.0098L98.4678 53.4502L97.7969 55.8887L97.2656 58.4502L97.1162 59.1719L96.4531 59.4941L96.4434 59.498L97.2383 61.4443L97.3291 61.666L97.3457 61.9043L97.5352 64.5537L97.541 64.6338L97.5381 64.7129L97.4805 66.3525L97.8369 66.4893L96.9209 68.8779L96.8057 69.1768L96.5791 69.4023L95.6299 70.3477L97.7012 71.4521L98.5801 71.6279L98.9082 70.4443L98.9316 70.3857L98.9434 70.3271L99.8105 67.9248L100.42 65.4287L100.748 62.9678L100.771 62.8506L101.311 60.2725L101.334 60.1787L102.002 57.7998L101.943 55.3857V55.2334L101.967 55.0928L102.4 52.5967L102.518 50.042V49.9131L102.553 49.7842L103.092 47.3115L103.232 44.8037L103.314 42.2725L103.268 39.6357L103.256 39.4717L103.291 39.3193L103.736 36.9521L103.303 34.6084L103.268 34.4326L103.279 34.2451L103.408 31.7256L103.104 29.2529L103.092 29.1357V29.0186L103.174 26.6162L102.4 24.3428L102.354 24.2021L102.342 24.0615L102.002 21.5771L101.463 19.1396L100.643 16.6436L100.631 16.585L100.619 16.5381L100.01 14.1592L98.7676 12.1201L97.3613 9.89355L96.1074 7.88965L94.1504 6.54199L94.127 6.51855L94.1035 6.50684L92.123 4.99512L90.1543 4.02246L88.0098 3.92871L85.7012 4.37402ZM81.8555 40.7207L81.6357 41.1865L81.1758 41.4199L79.8623 42.084L79.9053 42.8643L80.6807 44.9297L82.2266 46.8164L82.375 46.998L82.4609 47.2158L83.3594 49.4912L84.8301 51.4141L84.8594 51.4531L84.8867 51.4932L86.208 53.4775L88.1787 54.8623L88.3486 54.9824L88.4795 55.1436L89.5674 56.4824L89.6807 56.4863L89.7285 56.6797L90.1543 57.2031L90.3301 57.4199L90.417 57.6846L90.5234 58.0127L90.0947 58.1514L90.5078 59.8135L90.5576 60.0117L90.5518 60.2158L90.4805 62.8037L90.4932 65.4053L90.6406 68.0186L90.6494 68.1699L90.627 68.3193L90.3955 69.9004L90.9688 69.8662L92.7764 68.9561L94.2344 67.5029L94.46 66.915L94.5371 64.6885L94.3701 62.3564L93.4658 60.1387L92.4365 57.7139L92.416 57.667L92.3994 57.6191L91.5615 55.2002L90.4922 52.9619L89.1465 50.7842L89.1182 50.7383L89.0928 50.6904L87.8711 48.3525L87.8496 48.3105L87.8301 48.2666L86.8428 46.0459L85.2266 44.2119L85.1309 44.1035L85.0576 43.9795L83.7764 41.7979L82.3281 39.9883L82.2314 39.9219L81.8555 40.7207ZM36.9082 41.5713L36.8496 41.6768L36.7793 41.7705L35.2441 43.6807L34.1191 45.9658L34.0723 46.0361L32.7129 48.415L32.666 48.4854L31.084 50.6064L29.8184 52.6221L28.623 54.9893L28.5879 55.0361L28.5527 55.0947L27.1582 57.333L27.1348 57.3799L27.0996 57.4268L25.7285 59.2783L25.3418 61.4346L25.3535 61.4463L25.1309 63.7549L25.7285 65.8994L26.4785 67.9971L27.9082 69.2275L29.3154 69.5576L29.2861 69.3105L29.2715 69.1914L29.2764 69.0703L29.3818 66.4551L29.4072 63.8672L29.3076 61.2607L29.3057 61.2207L29.3066 61.1807L29.3467 58.5439L29.3633 57.4512L30.4082 57.1328L32.6201 56.457L32.6592 56.4443L33.1514 55.5879L33.1553 55.5801L34.4053 53.4258L35.209 51.0342L35.2793 50.8232L35.4082 50.6416L36.917 48.5205L38.2324 46.3584L39.4072 44.0498L39.4443 43.9756L39.4902 43.9062L40.4443 42.4521L39.9229 41.5029L37.9961 40.5244V40.5254L37.5928 40.332L36.9082 41.5713ZM29.4453 4.30078L27.418 5.07422L25.7188 6.69141L25.6602 6.75L25.6016 6.79688L23.6445 8.27344L22.2383 10.0781L21.1133 12.3164L21.0781 12.3984L21.0312 12.4688L19.6602 14.5312L18.7695 16.8633L17.9141 19.3242L17.1875 21.5859L17.1172 24.082V24.293L17.0469 24.4922L16.2852 26.8477L16.0977 29.332V29.4258L16.0742 29.5078L15.6055 31.9102L15.8633 34.3359L15.8867 34.582L15.8398 34.8164L15.2891 37.2422L15.4062 39.6914V39.7031L15.5 42.3164L15.6406 44.9531L15.6523 45.0586L15.6406 45.1523L15.4414 47.6602L15.7695 50.1328L15.7812 50.2031V50.2852L15.8516 52.7578L16.5078 55.1484L16.5547 55.3594V55.5703L16.5078 58.2305L16.707 60.6094L17.2109 63.1406L17.2227 63.1758V63.2109L17.6211 65.8242V65.8477L17.8906 67.9922L18.0781 68.1914L18.9922 67.4062L19.1211 67.3008L19.25 67.2305L21.4766 65.9766L22.4404 65.2588L22.1777 64.3057L22.0957 64.0361L22.1309 63.7666L22.3652 61.1768V61.1182L22.377 61.0479L22.5928 59.8125L22.292 59.9658L21.8369 59.0605L21.709 58.8223L21.6826 58.5527L21.3574 55.9199L20.8936 53.5625L20.1797 51.0137L20.1553 50.9463L19.6436 48.2051L19.6426 48.1338L19.4023 45.5078L18.9512 43.0889L18.3955 40.498L18.3496 40.3164L18.3633 40.1348L18.4316 37.5586L18.2588 35.0996L18.248 35.042L19.7461 34.8936L21.2324 34.7471L21.2539 34.8623L21.2471 34.8877L21.4209 37.418L21.4336 37.4873L21.4238 37.5605L21.3604 40.0283L21.8848 42.458L22.3906 45.165L22.3916 45.2363L22.6338 47.873L23.0654 50.1885L23.7803 52.7373L23.8018 52.793L23.8154 52.8623L24.3223 55.4502L24.3418 55.5537L24.3975 56.0342L24.6738 55.6572L25.9395 53.6182L27.1465 51.2627L27.1699 51.2041L27.2051 51.1455L27.5127 50.6572L27.3311 50.1943L27.2422 49.9727L27.2217 49.7383L27.083 47.1416L26.7227 44.5742L26.1689 42.1143L26.1445 41.9873L25.7881 39.3721L25.7861 39.3008L25.7754 39.2432L25.6738 36.6514L25.2871 34.1367L24.8213 31.5771L24.7891 31.4043L24.7939 31.2363L24.918 28.5791L24.7617 26.2119L24.7588 26.1289L27.7451 25.9053L27.7529 26.0117L27.7549 26.0225L27.917 28.5557L27.9209 28.6387L27.9131 28.7236L27.7852 31.167L28.2578 33.7012L28.6387 36.3125L28.6514 36.3818L28.6543 36.4648L28.7773 39.1006L29.1221 41.5869L29.6748 44.0352L29.7002 44.1729L30.0547 46.7773L30.0654 46.835V46.8945L30.0674 46.9385L30.1465 46.833L31.4355 44.6182L32.6074 42.251L32.6777 42.1104L32.7568 42.0098L32.4668 40.6611L32.4229 40.4912L32.4277 40.3232L32.4717 37.752L32.2998 35.2324L31.8711 32.6787L31.8604 32.6211L31.8584 32.5498L31.6416 29.9199L31.6436 29.7998L31.6445 27.249L31.3809 24.6875L30.9971 22.124L30.9678 21.9629L30.9854 21.8047L31.1611 19.2324L31.0176 16.8037L31.0273 16.79L31.0195 16.6836L32.5205 16.6182L34.0107 16.5547L34.0166 16.6494L34.166 19.1719L34.1602 19.2686L34.1523 19.3535L33.9844 21.8408L34.3623 24.3096L34.3662 24.333L34.3613 24.3691L34.6377 27L34.6523 27.0811L34.6562 27.1631L34.6377 29.6826L34.833 32.1973L35.1543 34.1641L36.1143 33.6787L36.6445 31.4551L36.7383 31.0449L38.8945 28.8887L39.0234 28.748L39.1875 28.6543L41.4258 27.3301L41.9883 26.9902L42.8828 27.2549L43.166 26.9268L42.4648 26.1562L40.6953 24.2109L40.5781 24.0703L40.4961 23.918L39.2188 21.5859L39.0547 21.2812L39.043 20.9414L38.9258 18.2812V18.2109L38.9375 15.668L38.8555 13.0078V12.9492L38.8789 10.5117L38.6914 8.32031L37.2969 6.63281V6.62109L35.832 4.86328L33.9922 4.06641L31.7773 4.01953L29.4453 4.30078ZM72.3516 43.3438L72.0684 45.7939L71.9375 47.9082L72.6963 49.9004L74.0449 51.9121L75.6318 53.9863L75.7715 54.1689L75.8496 54.3838L76.666 56.625L77.9658 56.7764L80.458 56.5771L80.5557 56.5693L80.6523 56.5742L83.1533 56.6992L85.1904 56.4287L84.2539 55.7705L84.0234 55.6094L83.8682 55.375L82.415 53.1943L80.8506 51.1475L80.7236 50.9814L80.6465 50.7881L79.7559 48.5352L78.2041 46.6416L78.0479 46.4502L77.9609 46.2178L77.0176 43.707L76.9531 43.5361L76.9062 43.6641L75.7109 43.2305L75.5586 43.1719L75.418 43.0898L73.2383 41.707L73.0977 41.625L72.9922 41.5078L72.957 41.4736L72.3516 43.3438ZM56.8496 48.9229L54.2246 49.2158L54.0723 49.2393L53.9199 49.2275L51.4121 48.9814L49.9199 49.0518L48.9727 51.2988L48.0957 53.6855L47.3662 56.1826L47.3486 56.2422L47.3271 56.2998L47.2734 56.4385L48.999 56.6396L51.5674 56.6885L51.5664 56.6895L54.1406 56.709L56.7676 56.626V56.625L59.4072 56.5361L59.4424 56.5352H59.4775L62.1172 56.5693H62.1299L64.7705 56.626L64.7695 56.627L67.3506 56.6797L69.9453 56.5547L69.9814 56.5527H70.0166L72.6162 56.5518L73.4385 56.5283L73.1094 55.626L71.6338 53.6973L71.6055 53.6602L71.5791 53.6211L70.1104 51.4297L70.0146 51.2881L69.9541 51.1289L69.127 48.958L67.2559 48.8643L64.7012 49.0049H64.6074L61.9707 48.9932H61.8652L59.2988 48.8057L56.8496 48.9229ZM45.4922 41.123L44.7656 43.0449L44.2734 44.3223L43.0352 43.9717L42.042 45.4844L40.8818 47.7686L40.8564 47.8193L40.8262 47.8682L39.4551 50.123L39.4268 50.1689L39.3955 50.2129L37.9805 52.2002L37.2021 54.5254L37.1533 54.6699L37.0771 54.8018L36.0908 56.499L38.3896 56.6641L40.9004 56.6631L43.4658 56.3994L43.5244 56.3936L43.583 56.3926L44.082 56.3809L44.5068 55.2754L45.2295 52.7998L45.2441 52.751L45.2617 52.7031L46.1729 50.2236L46.1846 50.1914L46.1982 50.1592L47.1152 47.9844L47.1377 45.7783L46.7051 43.3047L46.6768 43.1387L46.6846 42.9707L46.8008 40.6387L46.6191 40.1768L45.4922 41.123ZM70.2529 26.8418L69.7148 28.7168L69.6914 28.8105L69.6445 28.9043L68.6484 31.1191L68.2617 33.6035L68.0977 34.6816L67.0195 34.8574L64.3945 35.2676L64.2188 35.3027L64.043 35.291L61.5 35.0801H61.4678L61.5215 35.9326V36.0732L61.5098 36.2139L61.2637 37.9365L61.4746 38.6514L62.002 40.4678L60.1152 40.5615H60.0215L59.9512 39.085L58.5918 39.4834L58.2988 38.4639L58.2168 38.1709L58.2637 37.8545L58.5215 35.9561L58.4707 35.0986L56.332 35.2676H56.1445L53.4844 35.1152L52.3945 35.0566L52.1133 34.0137L51.4805 31.623L50.3086 29.4434L50.2383 29.3145L50.1914 29.1855L49.6348 27.3906L48.5039 27.6484L48.4219 27.6719L48.3398 27.6836L46.2773 27.9062L45.8691 28.377L45.9727 28.5371L47.5195 30.8574L47.5664 30.9746L48.6328 33.377L48.6797 33.4707L48.7031 33.5645L49.4648 36.1309L49.6992 36.9395L49.1367 37.5605L48.9121 37.8096L49.7119 39.8438L49.8301 40.1445L49.8135 40.4678L49.6885 42.9521L50.1172 45.3975L50.1416 45.5342L50.1396 45.6719L50.1357 46.0371L51.3418 45.9814L51.4473 45.9697L51.5527 45.9814L54.0371 46.2275L56.5332 45.9463H56.6152L59.252 45.8057H59.4395L62.0879 45.9932L62.0762 46.0049H64.6191V46.0166L67.1738 45.8643H67.3379L69.0527 45.9551L69.0771 45.5635L69.0791 45.5225L69.084 45.4824L69.3896 42.8477L69.4062 42.7002L69.4521 42.5586L70.2705 40.0352L70.2725 40.0273L70.2744 40.0205L70.6338 38.9473L70.6484 38.5547L70.707 35.8828V35.707L70.7539 35.543L71.3867 33.0352L71.4219 32.8945L71.4805 32.7656L72.6055 30.3984L72.6992 30.1992L72.8516 30.0234L74.3408 28.3857L73.2705 27.6621L71.5918 27.1201L71.6982 27.0059L70.8613 26.7354L70.2529 26.8418ZM76.4023 30.5742L75.207 31.8867L74.2461 33.9141L73.6953 36.1055L73.6602 37.9688L73.9082 38.21L73.998 38.2236L73.9883 38.2881L74.9961 39.2695L76.7627 40.3926L76.7578 40.2949L77.6328 39.8516L79.3613 38.9756L80.2715 37.0439L80.8174 35.8838L80.8086 35.8477L80.1992 33.5156L78.9453 31.7109L77.5977 30.5625L76.4023 30.5742ZM40.8633 31.1387L39.457 32.5566L39.0889 34.125L39.7705 35.1943L38.291 35.9414L37.3174 36.4326L37.4775 36.9502L39.292 37.8193L39.3076 37.8271L39.3223 37.834L41.6934 39.0371L42.1064 39.2461L42.3291 39.6523L42.6396 40.2188L42.8438 39.6934L42.9727 39.3301L43.2773 39.084L45.1875 37.4551L46.3477 36.166L45.8906 34.5957L44.8828 32.3223L43.7695 30.6348L42.3984 30.2363L40.8633 31.1387ZM62.4824 25.1025L62.2715 25.2197L62.0488 25.2783L59.541 25.8525L59.002 25.9814L58.5098 25.7236L56.2832 24.54V24.5283L55.9023 24.3389L54.5156 25.9961L54.1875 26.3945L53.6836 26.5117L52.5674 26.7412L53.0039 28.1309L54.2109 30.3809L54.293 30.5332L54.3398 30.709L54.7266 32.1738L56.1914 32.2559L58.7578 32.0801H58.875L61.5117 32.0918H61.6289L64.125 32.2793L65.4727 32.0566L65.7188 30.498L65.7422 30.2988L65.8242 30.123L66.8555 27.7676L67.1523 26.748L65.2949 25.8564L65.0254 25.7158L64.8262 25.4814L63.7949 24.3047L62.4824 25.1025ZM45.4541 24.9785L46.8359 24.8223L45.29 24.7979L45.4541 24.9785ZM55.7002 3.62109L54.001 4.33594L52.8877 6.1875L52.6299 6.59766L52.1846 6.78516L50.6494 7.40625L50.7783 9L50.79 9.17578L50.7666 9.35156L50.3447 11.9883L50.2979 12.2461L50.1807 12.4805L49.1494 14.332L49.3369 15.7031L51.0479 17.0156L51.915 17.6836L51.54 18.7266L50.626 21.2109L50.4502 21.7031L50.0049 21.9727L48.376 22.9688L48.165 24.5625V24.6494L50.4258 24.1328H50.4375L52.5586 23.6758L53.4961 22.5391L53.332 21.1445L52.5234 18.8477L52.4883 18.7773L52.4766 18.707L51.832 16.1523L51.7852 15.9883V15.8242L51.7148 13.1875L51.7031 13.0469L51.7266 12.9062L52.1367 10.3516L52.2422 9.63672L52.875 9.27344L54.7383 8.20703L56.8359 6.77734L56.9297 6.70703L57.0352 6.66016L59.2148 5.60547L59.4258 5.5L59.6602 5.46484L62.1797 5.11328L62.3213 6.18164L62.5879 6.08691L63.5137 5.75879L63.9824 5.53613L64.9316 7.56348L66.4668 9.54395L66.5723 9.68457L66.6543 9.83691L67.6621 12.0518L67.7559 12.251L67.7793 12.4736L68.1426 15.1104L68.1777 15.3447L68.1309 15.5791L67.6621 18.2041L67.6387 18.3096L67.6035 18.415L66.7363 20.9111L66.7129 20.9814L66.6895 21.04L66.0684 22.3525L66.877 23.2783L68.541 24.0869L70.6973 23.7236L70.8369 23.6973L70.8174 22.7695L69.751 20.8828L68.5674 18.832L68.1104 18.0469L68.6025 17.2734L69.7158 15.5156L69.458 13.8164L69.4463 13.7812V13.7461L69.1768 11.168L69.165 11.1445V11.1211L69.0127 9.10547L67.6416 7.71094L67.3838 7.44141L67.2783 7.07812L66.7158 5.14453L65.1689 4.26562L63.1768 3.82031L60.915 4.33594L60.5166 4.42969L60.1182 4.30078L57.7979 3.52734L55.7002 3.62109ZM60.3047 8.40625L58.4414 9.30859L56.4258 10.7148L56.3086 10.7852L54.9844 11.5234L54.7031 13.2695L54.7734 15.5781L55.3477 17.8281L56.2148 20.2773L56.2734 20.4414L56.2969 20.6172L56.3633 21.2227L57.6543 21.8799H57.666L57.6895 21.8916L59.4238 22.8057L61.1348 22.4072L63.1152 21.2119L63.3711 21.0547L63.9121 19.8682L64.7207 17.5479L65.1426 15.2744L64.8379 13.1182L63.9941 11.2432L62.4941 9.30957L62.3887 9.18066L62.3184 9.04004L61.9072 8.17676L60.3047 8.40625Z" fill="black"/>
</g>
<defs>
<clipPath id="clip0_473_679">
<rect width="120" height="120" fill="white"/>
</clipPath>
</defs>
</svg>
