<svg width="120" height="120" viewBox="0 0 120 120" fill="none" xmlns="http://www.w3.org/2000/svg">
<path d="M52.6328 34.3359L55.2695 34.5L55.2578 34.5117L57.8125 34.5352L60.4492 34.5117H60.4844L62.9922 34.5703L65.6172 34.3477L65.7578 34.3359L65.9102 34.3477L68.4414 34.6523L71.043 34.6875H71.0664L73.7031 34.7695H73.7969L76.4219 35.0273L76.4922 35.0391L76.5742 35.0508L79.1523 35.5664L79.1406 35.5781L81.7188 36.0352L81.7422 36.0469L84.3555 36.5625L84.5195 36.5977L84.6719 36.668L87.0977 37.7695L87.1211 37.7812L87.1562 37.793L89.5117 38.9766L89.5352 38.9883L89.5469 39L91.8906 40.2422L91.9727 40.2773L92.043 40.3359L94.2227 41.8594L94.2578 41.8828L94.3047 41.918L96.3672 43.582L96.4141 43.6172L96.4609 43.6641L98.3711 45.4805L98.4883 45.5977L100.176 47.6133L101.852 49.5938L103.633 51.5508L103.703 51.6328L103.773 51.7266L105.238 53.9414L105.32 54.0703L105.379 54.2109L106.352 56.6484L107.383 59.0625L107.406 59.1094L107.418 59.1445L108.309 61.6172L108.332 61.6641L109.152 64.1602L109.176 64.2773L109.809 66.832L109.832 66.9258V67.0312L110.125 69.6445V69.7383L110.254 72.375V72.4219L110.289 74.9883L110.453 77.625L110.465 77.6602V77.707L110.488 80.3438H110.477L110.559 82.9453L110.57 83.0625L110.559 83.168L110.266 85.6875L110.465 88.1602L110.477 88.2539V88.3477L110.348 90.8555L110.688 93.3633L110.699 93.4805V93.6094L110.605 96.2461L110.547 98.8711V98.8828L110.477 101.52L110.5 104.109H110.488L110.641 106.676L110.652 106.828L110.629 106.98L110.242 109.535V111.891L110.603 114.284L110.733 114.265L111.026 114.221L111.313 114.29L112.354 114.542L111.646 117.458L110.892 117.274L108.546 117.634L108.453 117.647L108.39 117.648L108.215 117.832L107.441 117.703L107.287 117.677L105.719 117.718L105.576 117.722L105.437 117.698L104.092 117.477L102.672 117.738L102.438 117.785L102.203 117.75L101.288 117.624L100.667 117.737L100.434 117.779L100.198 117.748L97.6973 117.407L97.2344 117.41L94.5977 117.633H94.3984L93.3242 117.57L92.6006 117.63L92.498 117.638L92.3945 117.632L89.7666 117.481V117.482L88.7549 117.432L86.7812 117.738L86.582 117.762L86.3945 117.738L85.4502 117.634L84.7832 117.734L84.5879 117.764L84.3916 117.742L81.8857 117.457H81.4023L81.4141 117.469L78.7773 117.703L78.6133 117.727L78.4492 117.703L77.7637 117.617L76.7764 117.708L76.6152 117.723L76.4551 117.702L74.7529 117.489L72.3711 117.574H72.2539L72.1367 117.562L71.0459 117.423L68.6875 117.373L68.665 117.372L68.6416 117.371L68.1953 117.348L67.2178 117.415L65.7109 117.703L65.4766 117.75L65.2305 117.715L64.3457 117.582L63.7139 117.7L63.4717 117.745L63.2275 117.71L62.543 117.611L62 117.703L61.7891 117.727L61.5781 117.703L61.4141 117.683L60.4141 117.75H60.2734L60.1328 117.738L58.1172 117.491L58.0195 117.483L57.4189 117.426L56.333 117.468L55.1406 117.68L54.8828 117.727L54.6133 117.68L53.8936 117.549L53.1396 117.682L52.8789 117.728L52.6191 117.682L52.2344 117.613L49.8555 117.762L49.6797 117.773L49.5039 117.738L47.8916 117.452L47.0078 117.48L44.3711 117.574H44.3047L43.4258 117.656L43.2734 117.68L43.1211 117.656L42.3301 117.573L42.2529 117.576L42.1387 117.562L41.6895 117.506L40.543 117.387L38.1641 117.504H36.6289L36.6191 117.402L35.9854 117.368L34 117.703L33.7891 117.727L33.5781 117.703L32.6436 117.591L32.0029 117.697L31.7939 117.731L31.584 117.707L29.0088 117.402L27.9326 117.371L25.9492 117.516H23.9609L23.9473 117.517L23.8916 117.521H23.835L21.1943 117.511H21.1396L21.084 117.507L19.1523 117.355L18.0508 117.398L18.0625 117.41L15.4258 117.656L15.2734 117.68L15.1211 117.656L14.3281 117.573L13.4248 117.661L13.2734 117.676L13.123 117.66L11.1689 117.454L10.1641 117.504H9.01562L8.99707 117.462L8.16406 117.499L8.13184 117.5H8V114.5H8.05762L8.37793 114.485L8.67578 112.746L8.27734 110.367L8.24219 110.168L8.25391 109.969L8.53516 107.402L8.39453 104.918L8.38281 104.824L8.39453 104.73L8.58203 102.141L8.47656 99.6211L8.46484 99.5508L8.47656 99.4805L8.61719 96.9258L8.59375 94.2891V94.2188L8.71094 91.7461L8.3125 89.2383L8.26562 89.0039L8.3125 88.7695L8.71094 86.2383L8.62891 83.7656L8.55859 81.1758L8.39453 78.5391L8.38281 78.4922V78.457L8.35938 75.8086V75.7031L8.52344 73.0664L8.53516 73.0195V72.9844L8.85156 70.3477L9.15625 67.8398L9.26172 65.1797V64.957L9.34375 64.7344L10.2461 62.2383L11.1484 59.7539L11.1836 59.6484L11.2422 59.5547L12.4844 57.2227L13.3633 54.9258L13.4102 54.7852L13.4922 54.668L14.8867 52.4297L14.9336 52.3594L14.9805 52.3008L16.5273 50.2969L17.9102 48.082L18.0508 47.8359L18.2852 47.6719L20.2891 46.1367L21.918 44.2734L22.0117 44.1562L22.1406 44.0625L24.2383 42.4453L26.3125 40.8281L26.4062 40.7461L26.5117 40.6875L28.832 39.4102L31.082 38.0859L31.2695 37.9805L31.4805 37.9219L33.9297 37.3125L36.4023 36.4453L36.4609 36.4219L36.5195 36.4102L39.0508 35.7305L39.0625 35.7188H39.0742L41.6406 35.0859L41.6758 35.0742L41.7227 35.0625L44.3359 34.582L44.4297 34.5703L44.5117 34.5586L47.1602 34.3945L47.3242 34.3828L47.4883 34.4062L49.8906 34.793L52.2695 34.3477L52.4453 34.3242L52.6328 34.3359ZM50.1719 37.793L49.9141 37.8398L49.668 37.793L47.1602 37.3945L44.793 37.5469L42.2734 38.0156L42.2617 38.0039L39.8125 38.6133L39.8242 38.625L37.3633 39.2812L34.9375 40.1484L34.7969 40.1953L32.418 40.7812L30.3086 42.0234L30.2969 42.0352L30.2734 42.0469L28.0586 43.2422L26.0664 44.8125V44.8242L24.0859 46.3477L22.457 48.2344L22.3516 48.3516L22.2227 48.457L20.3008 49.8867L19.0586 51.9258L19.0117 51.9961L18.9648 52.0547L17.3477 54.1406L16.1055 56.1328L15.2031 58.4766L15.1797 58.5586L15.1328 58.6406L13.9375 60.8438L13.0703 63.2578L12.2383 65.543L12.1445 67.9805L12.1328 68.0273V68.0859L11.8281 70.6992V70.7109L11.5117 73.2422L11.3594 75.8906L11.3828 78.3398L11.5586 80.9883V81.0352L11.6289 83.6836L11.6992 86.3203L11.7109 86.4609L11.6875 86.6016L11.3008 89.0039L11.6875 91.4062L11.7109 91.5586V91.7109L11.5938 94.3477L11.6055 96.9141V97.0078L11.4648 99.5508L11.582 102.141V102.316L11.3828 104.871L11.5234 107.402L11.5352 107.52L11.5234 107.637L11.2539 110.074L11.6641 112.512L11.7109 112.77L11.6641 113.016L11.418 114.434L12.5781 114.387H12.6836L12.8008 114.398L14.3418 114.558L15.7754 114.419L15.8174 114.415L15.8594 114.413L18.5 114.307L18.5879 114.304L18.6768 114.311L19.2451 114.354L20.5 114.305H20.6758L23.3125 114.516H23.8564L26.373 114.334L26.4473 114.329L26.5225 114.331L27.9307 114.37L28.375 114.34L28.4453 114.328H28.5273L31.1641 114.41H31.293L32.5947 114.56L34.1572 114.304L34.3174 114.277L34.4795 114.286L35.8232 114.357L36.1445 114.306L35.8555 113.121V113.086L35.8438 113.051L35.3516 110.461L35.3398 110.414V110.367L35 107.754L34.4727 105.281L34.4844 105.27L33.8633 102.738L33.8281 102.609L33.8164 102.469L33.6875 99.832L33.5352 97.1836L33.5469 97.1719L33.3359 94.582V94.4648L33.3477 91.8164V91.8047L33.3945 89.1562V89.1328L33.4648 86.4961L33.4766 86.4727V86.4375L33.6523 83.9062V81.2695L33.3828 78.7734V78.6562L33.3242 76.0195V75.9023L33.3359 75.7852L33.6875 73.1484L33.957 70.582V70.4883L33.9805 70.3945L34.6016 67.8516L34.6133 67.7812L34.6367 67.7109L35.4805 65.2383L35.5156 65.1445L35.5625 65.0508L36.7344 62.6953L36.793 62.5781L36.875 62.4727L38.4453 60.3516L38.5039 60.2695L38.5742 60.1875L40.4258 58.3242L40.4961 58.2539L40.5781 58.1953L42.6406 56.5898L42.6875 56.5547L42.7227 56.5312L44.9023 55.0547L45.0078 54.9727L45.1367 54.9141L47.5391 53.8477L47.6211 53.8125L47.6914 53.7891L50.2109 52.9805L50.4102 52.9102H50.6328L53.2109 52.8633L55.7539 52.5469L55.8711 52.5352L56 52.5469L58.4961 52.6523L61.0156 52.3125L61.1445 52.3008H61.2734L63.9102 52.4062H63.9336L66.5703 52.5469H66.6406L66.7227 52.5586L69.3359 52.957L69.5 53.0039L72.043 53.6953L72.1016 53.707L72.1602 53.7305L74.6445 54.6328L74.8906 54.7266L75.0781 54.8789L77.1523 56.5547H77.1406L79.1328 58.1484H79.1445L81.2656 59.7656L81.418 59.8828L81.5469 60.0352L83.1875 62.1328L83.3281 62.3203L83.4102 62.5547L84.2656 64.9219L85.5898 67.0664L85.7656 67.3594L85.8008 67.6992L86.082 70.3594L86.3516 72.9727L86.6211 75.6094L86.6328 75.7266L86.6211 75.8438L86.4805 78.4805L86.3516 80.9531L86.7383 83.4609L86.7617 83.6602L86.7383 83.8477L86.457 86.3789L86.4688 88.8281L86.7031 91.4648L86.7266 91.6406L86.7031 91.8047L86.3516 94.3594L86.293 96.9141V96.9609L86.2812 97.0078L86.0586 99.6328L86.0469 99.6797V99.7266L85.6836 102.117L85.8477 104.695L85.8711 104.965L85.7891 105.223L85.0625 107.672L84.7812 110.156L84.7695 110.285L84.7227 110.414L84.0195 112.734L83.9316 114.457H84.0859L85.4043 114.607L86.9766 114.371L87.124 114.349L87.2734 114.356L88.6475 114.423L88.9727 114.375L89.125 114.352H89.2773L91.9141 114.48H91.9258L93.3643 114.559L94.999 114.426L95.0547 114.422L95.1094 114.421L97.75 114.403L97.8564 114.402L97.9434 114.414L99.7539 114.398H99.8594L99.9648 114.422L101.226 114.588L102.773 114.308L103.028 114.262L103.284 114.304L104.062 114.432L104.77 114.305L105.027 114.258L105.285 114.305L107.137 114.609L107.547 114.176L107.266 112.266L107.242 112.148V112.031L107.254 109.395V109.289L107.277 109.184L107.629 106.734L107.5 104.203V104.133L107.477 101.484V101.438L107.547 98.8125L107.605 96.1641V96.1523L107.688 93.6328L107.359 91.1133L107.336 90.9844L107.348 90.8438L107.465 88.3242L107.266 85.7578L107.254 85.6172L107.266 85.4648L107.547 82.9453L107.488 80.4023V80.3672L107.465 77.8125L107.289 75.1758V75.1055L107.254 72.5156L107.137 69.9727L106.855 67.4414L106.293 65.0977L105.473 62.6016V62.5898L104.594 60.1641V60.1523L103.598 57.832L103.586 57.8086L103.574 57.7969L102.637 55.4414L101.348 53.5078L99.625 51.5977L99.6133 51.5859L99.6016 51.5625L97.9023 49.5586H97.8906L96.2617 47.6133L94.4219 45.8672L92.418 44.25H92.4062L90.4023 42.8438L88.1406 41.6484V41.6367L85.8555 40.5L83.5938 39.4688L81.1562 38.9883V38.9766L78.5898 38.5078H78.5664L76.0586 38.0039L73.6094 37.7578V37.7695L70.9727 37.6875V37.6758L68.3477 37.6406H68.2773L68.207 37.6289L65.6875 37.3477L63.2266 37.5586L63.1445 37.5703H63.0742L60.4375 37.5117L57.8242 37.5352H57.8008L55.1523 37.5H55.082L52.6094 37.3359L50.1719 37.793ZM39.8008 109.605L39.6953 109.617L39.5898 109.605L38.251 109.568L38.293 109.898L38.7734 112.418L39.2139 114.277L39.582 114.254L39.7227 114.245L39.8613 114.262L40.4023 114.327L41.582 114.258L41.7227 114.246L41.8633 114.258L43.999 114.517L44.2285 114.509L44.2422 114.34L44.4824 111.902L44.3477 110.016L44.0312 109.5L42.2969 109.336L39.8008 109.605ZM54.0508 109.395L54.0625 109.406L51.4258 109.664L51.2734 109.676L51.1211 109.664L48.625 109.395L47.3594 109.441L47.4883 111.762V111.785L47.5117 112.078V112.195L47.5195 114.104L47.7607 114.334L48.5 114.305H48.6758L48.8652 114.319L50.1475 114.24L50.3252 114.229L50.501 114.26L50.8223 114.316L52.1523 114.234H52.3281L52.5039 114.258L53.8916 114.504L55.2607 114.264L55.46 114.229L55.6611 114.247L56.5254 114.328H56.5273L56.8105 114.337L57.2617 114.258L57.4609 114.223L57.6602 114.246L59.5039 114.415L60.7188 114.35L60.8662 114.341L61.0127 114.362L61.4082 114.419L62.7227 114.352L62.8633 114.34L63.0156 114.363L63.2959 114.402L63.5078 114.34L63.2969 113.004L63.2891 112.934L63.2656 112.793L63.2891 112.582L63.4414 111.309L63.5664 110.215L63.3438 109.406L61.9492 109.512L61.8906 109.523H61.832L59.1953 109.512H59.0781L56.5 109.301L54.0508 109.395ZM76.2266 109.582H76.1445L73.4961 109.688L73.4141 109.699L73.3203 109.688L70.6836 109.488V109.477H68.2578L66.7344 109.582L66.5938 110.242L66.5898 110.297L66.3662 112.148L66.3008 112.723L66.5508 114.257L67.5303 114.309L67.8086 114.258L67.9844 114.223L68.1602 114.234L69.1162 114.285L69.582 114.258L69.7227 114.246L69.8633 114.258L70.835 114.375L72.626 114.408L73.9746 114.386L74.0801 114.384L74.1846 114.397L74.2812 114.409L75.9766 114.387H76.082L76.1875 114.398L76.4844 114.435L77.5039 114.398L80.0117 114.234L80.9492 114L81.0312 112.441L81.043 112.254L81.0898 112.078L81.8164 109.629L81.8203 109.589L81.4297 109.605L81.3125 109.617L81.207 109.605L78.6992 109.336L76.2266 109.582ZM19.5 109.142H15.5V104.947H19.5V109.142ZM27.5 109.142H23.5V104.947H27.5V109.142ZM96.5 109.142H92.5V104.947H96.5V109.142ZM104.5 109.142H100.5V104.947H104.5V109.142ZM58.7656 55.6406L58.6367 55.6641L58.5078 55.6523L56.0352 55.5352L53.4805 55.8398L53.4102 55.8516H53.3398L50.9141 55.8984L48.6758 56.625L46.4961 57.5742L44.4688 58.9453L44.4805 58.957L42.4648 60.5156L40.8125 62.1797L39.3594 64.125L38.3281 66.2109L37.4727 68.6836L36.9219 70.9688L36.6641 73.5V73.5469L36.3242 76.0664L36.3711 78.5742L36.6406 81.1055L36.6523 81.1875V84.0117L36.4648 86.6484L36.3945 89.2266L36.3477 91.8516L36.3359 94.3594L36.5352 96.9961V97.0195L36.6758 99.668L36.8047 102.117L37.4023 104.625V104.648L37.4141 104.672L37.8076 106.554L39.6133 106.605L42.1211 106.336L42.2734 106.324L42.4258 106.336L44.668 106.555L44.6758 106.5H46.0352L48.5781 106.395L48.6836 106.383L48.8008 106.395L49.5166 106.472L49.4883 104.379V104.262L49.5 104.145L49.875 101.52L50.0742 98.9883L50.0977 98.7188L50.2031 98.4727L51.3281 96.0469L51.457 95.7656L51.6914 95.5547L53.6719 93.7852L53.8008 93.668L53.9414 93.5859L56.2266 92.3086L56.3789 92.2266L56.5312 92.1797L59.0859 91.418L59.332 91.3477L59.6016 91.3594L62.2617 91.5117L62.5312 91.5234L62.7773 91.6289L65.1797 92.6953H65.2031L67.6289 93.8086L67.9805 93.9727L68.2148 94.2773L69.8086 96.4336L69.8789 96.5391L69.9375 96.6562L71.1328 99.0703L71.2852 99.3867V99.7383L71.2617 102.305L71.4375 104.93L71.5635 106.541L73.4961 106.699L75.9336 106.605L78.5703 106.336L78.7227 106.324L78.875 106.336L81.3711 106.605L82.2627 106.566L82.8359 104.613L82.6836 102.211L82.6719 102.059L82.6953 101.906L83.082 99.293L83.293 96.75L83.3516 94.207V94.125L83.3633 94.043L83.6914 91.582L83.4805 89.0977L83.4688 89.0391V88.9805L83.457 86.332V86.1562L83.7383 83.6836L83.375 81.2695L83.3516 81.1172V80.9766L83.4805 78.3281V78.3164L83.6211 75.7852L83.3633 73.2773L83.1055 70.6758L82.8477 68.3438L81.6172 66.3633L81.5352 66.2227L81.4883 66.082L80.6562 63.7852L79.3203 62.0508L77.3281 60.5391L77.3047 60.5156L75.2656 58.8984L75.2539 58.8867L73.3789 57.3633L71.1523 56.5547L68.8555 55.9219L66.418 55.5469L63.7695 55.4062V55.3945L61.2852 55.3008L58.7656 55.6406ZM57.5273 95.0039L55.5234 96.1289L53.9062 97.582L53.0391 99.5039L52.8516 101.848V101.895L52.8398 101.941L52.4883 104.379L52.5186 106.541L53.7695 106.418H53.8633L56.5 106.312L56.5938 106.301L56.6758 106.312L59.3125 106.512L59.3008 106.523H61.7383L64.375 106.336L65.6055 106.242L65.7178 106.653L68.0469 106.488L68.1055 106.477H68.1641L68.5518 106.478L68.4492 105.164V105.152L68.2617 102.516V102.398L68.2734 100.078L67.3008 98.0859L66.0352 96.375L63.9727 95.4258V95.4375L61.793 94.4766L59.6836 94.3594L57.5273 95.0039ZM20.5 99.5898H16.5V95.3955H20.5V99.5898ZM28.5 99.5898H24.5V95.3955H28.5V99.5898ZM95.5 99.5898H91.5V95.3955H95.5V99.5898ZM103.5 99.5898H99.5V95.3955H103.5V99.5898ZM20.5 88.8438H16.5V84.6494H20.5V88.8438ZM28.5 88.8438H24.5V84.6494H28.5V88.8438ZM95.5 88.8438H91.5V84.6494H95.5V88.8438ZM103.5 88.8438H99.5V84.6494H103.5V88.8438ZM21.5 78.0977H17.5V73.9033H21.5V78.0977ZM29.5 78.0977H25.5V73.9033H29.5V78.0977ZM94.5 78.0977H90.5V73.9033H94.5V78.0977ZM102.5 78.0977H98.5V73.9033H102.5V78.0977ZM71.4795 69.7861L74.1191 69.9258L74.1396 69.9268L74.1592 69.9277L75.1191 70.0049L74.8809 72.9951L73.9209 72.9189L71.4834 72.79L69.0029 73.1973L68.7939 73.2314L68.584 73.207L66.0088 72.9033L63.5156 72.833L60.9473 73.0166L60.8916 73.0205H60.835L58.1943 73.0107H58.1396L58.084 73.0068L55.5283 72.8086L53.0215 72.9102L50.4248 73.1611L50.2734 73.1758L50.123 73.1602L47.5928 72.8945L45.1641 72.999L45.1318 73H45V70H45.0576L47.5752 69.8916L47.6865 69.8877L47.7969 69.8984L50.2871 70.1611L52.7754 69.9189L52.8174 69.915L52.8594 69.9131L55.5 69.8066L55.5879 69.8037L55.6768 69.8105L58.2559 70.0117L60.7891 70.0205L63.373 69.834L63.4473 69.8291L63.5225 69.8311L66.1621 69.9053L66.2295 69.9072L66.2959 69.915L68.7266 70.2031L71.1572 69.8037L71.3174 69.7773L71.4795 69.7861ZM23.5 67.3516H19.5V63.1572H23.5V67.3516ZM31.5 67.3516H27.5V63.1572H31.5V67.3516ZM92.5 67.3516H88.5V63.1572H92.5V67.3516ZM100.5 67.3516H96.5V63.1572H100.5V67.3516ZM29.5 56.6055H25.5V52.4111H29.5V56.6055ZM37.5 56.6055H33.5V52.4111H37.5V56.6055ZM86.5 56.6055H82.5V52.4111H86.5V56.6055ZM94.5 56.6055H90.5V52.4111H94.5V56.6055ZM64.5 46.5H56.5V42.5H64.5V46.5Z" fill="black"/>
</svg>
