<svg width="120" height="120" viewBox="0 0 120 120" fill="none" xmlns="http://www.w3.org/2000/svg">
<g clip-path="url(#clip0_473_812)">
<path d="M32.9766 0.801758L33.0186 0.849609L34.7812 2.64062L34.8594 2.7207L34.9248 2.80957L36.3975 4.83301L38.2451 6.51953L38.2764 6.54688L38.3057 6.57812L40.1533 8.4668L40.2158 8.53027L40.2695 8.60059L41.8555 10.6582L43.5381 12.5361L45.4082 14.3301L45.4619 14.3818L45.5098 14.4385L47.2236 16.4482L47.2676 16.5L47.3066 16.5547L48.7207 18.5518L50.6455 20.0879L50.7734 20.1895L50.875 20.3154L52.4844 22.3008L54.3174 24.083L54.418 24.1807L54.499 24.2959L55.9639 26.3789L57.7139 28.1953L57.8604 28.3467L57.959 28.5322L59.0322 30.5518L59.5186 31.4697L58.8311 32.248L57.0811 34.2305L56.9619 34.3652L56.8164 34.4678L54.8359 35.8506L54.04 36.9844L55.4668 38.8906L56.6289 38.3428L56.7598 38.2812L56.8994 38.2451L59.4434 37.5977L59.6338 37.5498L59.8301 37.5518L62.4893 37.583L62.7988 37.5859L63.0811 37.7119L64.9766 38.5537L65.1465 38.3936L65.1953 38.3438L65.2451 38.3105L67.168 36.7861L68.6016 34.7891L68.7012 34.6562L68.8252 34.5488L70.7891 32.7842L70.9629 32.626L71.1699 32.5352L71.3691 32.4355L71.4805 32.6846L71.5713 32.584L71.6885 32.4961L73.627 31.0439L75.0059 29.0332L75.1074 28.8867L75.2393 28.7686L77.1807 27.0205L79.0586 25.2207L80.8721 23.3467L80.9443 23.2705L81.0283 23.2061L82.998 21.6729L84.5918 19.7578L84.6318 19.709L84.6758 19.665L86.5283 17.7832L86.5918 17.7197L86.6621 17.6631L88.5859 16.1318L90.0547 14.1426L90.1436 14.0225L90.2549 13.9219L92.2119 12.1465L92.2217 12.1387L94.1494 10.4189L95.9346 8.54297L96.9863 7.4375L98.0742 8.50977L99.9531 10.3633L100.029 10.4385L100.094 10.5234L101.562 12.4541L103.573 13.8477L103.785 13.9961L103.937 14.2061L105.18 15.9395L107.768 16.6094L105.699 18.4766L105.65 18.5195L103.859 20.2812L103.78 20.3594L103.691 20.4258L101.667 21.8984L99.9814 23.7451L99.9531 23.7764L99.9219 23.8066L98.0342 25.6543L97.9707 25.7158L97.9004 25.7705L95.8428 27.3555L93.9648 29.0381L92.1709 30.9082L92.1182 30.9619L92.0615 31.0107L90.0527 32.7246L90 32.7676L89.9463 32.8076L87.9492 34.2217L86.4121 36.1465L86.3105 36.2734L86.1846 36.375L84.1992 37.9854L82.418 39.8174L82.3193 39.918L82.2051 40L80.1221 41.4648L78.3057 43.2139L78.1533 43.3604L77.9678 43.459L75.9492 44.5322L75.0312 45.0195L74.252 44.332L72.2695 42.5811L72.1357 42.4619L72.0332 42.3164L70.6494 40.3369L68.9932 39.1758L67.4189 40.4043L67.8047 40.751L69.9297 42.2217L70.1309 42.3613L70.2773 42.5566L71.8633 44.6748L73.5049 46.708L73.623 46.8555L73.7021 47.0264L74.7793 49.3828L76.0732 51.6025L76.0938 51.6377L76.1123 51.6738L77.3213 54.0312L78.1973 55.7412L76.3262 56.1768L73.9756 56.7236L73.6768 56.793L73.5889 56.7773L73.8066 56.9727L73.917 57.0713L74.0049 57.1895L75.4561 59.127L77.4668 60.5068L77.6133 60.6074L77.7324 60.7402L79.4805 62.6807L81.2793 64.5596L83.1543 66.3721L83.2305 66.4453L83.2949 66.5283L84.8281 68.498L86.7432 70.0918L86.792 70.1318L86.8359 70.1758L88.7178 72.0283L88.7812 72.0918L88.8379 72.1621L90.3691 74.0859L92.3584 75.5557L92.4785 75.6436L92.5791 75.7549L94.3545 77.7129L94.3623 77.7217L96.082 79.6504L97.957 81.4346L99.0635 82.4863L97.9912 83.5742L96.1367 85.4531L96.0625 85.5293L95.9775 85.5938L94.0459 87.0625L92.6523 89.0732L92.5049 89.2861L92.2939 89.4365L90.5615 90.6797L89.8916 93.2676L88.0244 91.1992L87.9814 91.1514L87.5 90.6611V90.752L86.5801 90.6816L86.46 91.1924L86.3594 91.6123L86.0518 91.915L84.3281 93.6104L83.2881 95.79L83.0391 96.3125L83.002 96.3271L83.0518 97.0342L83.2207 99.4453L84.2031 101.652L84.2852 101.837L84.3154 102.037L84.6982 104.551L85.4434 106.969L85.4873 107.11L85.502 107.257L85.751 109.665L86.7637 111.883L86.8379 112.044L86.8721 112.219L87.2881 114.356L89.9131 114.485L89.9258 114.486L92.4648 114.632L94.999 114.426L95.0547 114.422L95.1094 114.421L97.75 114.403L97.8564 114.402L97.9619 114.417L100.364 114.744L102.773 114.308L103.028 114.262L103.284 114.304L105.783 114.716L108.187 114.654L110.733 114.265L111.026 114.221L111.313 114.29L112.354 114.542L111.646 117.458L110.892 117.274L108.546 117.634L108.453 117.647L108.358 117.65L105.719 117.718L105.576 117.722L105.437 117.698L103.052 117.306L100.667 117.737L100.434 117.779L100.198 117.748L97.6641 117.403L95.1846 117.42L92.6006 117.63L92.498 117.638L92.3945 117.632L89.7666 117.481V117.482L87.2764 117.359L84.7832 117.734L84.5879 117.764L84.3916 117.742L83.0596 117.59L81.6406 117.614L81.5352 117.616L81.4307 117.603L80.3193 117.464L79.3584 117.472L76.7764 117.708L76.6152 117.723L76.4551 117.702L75.127 117.536L73.707 117.548H73.6162L73.5264 117.538L72.417 117.412L71.3848 117.43H71.3281L70.1318 117.403L68.6387 117.629L68.4912 117.651L68.3418 117.644L65.7021 117.515L65.6904 117.514L64.9463 117.471L63.7139 117.7L63.4717 117.745L63.2275 117.71L61.6768 117.487L60.6162 117.574L60.5615 117.578L60.5059 117.579L57.8652 117.597L57.7598 117.598L57.6543 117.583L55.4248 117.279L53.1396 117.682L52.8789 117.728L52.7617 117.706L52.5879 117.738L52.332 117.696L49.832 117.284L49.3125 117.297L47.6934 117.398L47.6484 117.4L46.918 117.423L44.8818 117.735L44.7666 117.753L44.6504 117.752L42.0098 117.742H41.9043L41.7988 117.727L39.3096 117.362L36.8203 117.503L36.3721 117.528L36.1074 117.375L34.4834 117.289L32.0029 117.697L31.7939 117.731L31.584 117.707L29.0088 117.402L26.5156 117.332L23.9473 117.517L23.8916 117.521H23.835L21.1943 117.511H21.1396L21.084 117.507L18.5283 117.308L16.0215 117.409L13.4248 117.661L13.2734 117.676L13.123 117.66L10.5928 117.394L8.16406 117.499L8.13184 117.5H8V114.5H8.05762L10.5752 114.392L10.6865 114.388L10.7969 114.398L13.2871 114.661L15.7754 114.419L15.8174 114.415L15.8594 114.413L18.5 114.307L18.5879 114.304L18.6768 114.311L21.2559 114.512L23.7891 114.521L26.373 114.334L26.4473 114.329L26.5225 114.331L29.1621 114.405L29.2295 114.407L29.2959 114.415L31.7266 114.703L33.8564 114.353L34.4629 112.18L35.1572 109.632L35.1592 109.623L35.1621 109.613L35.8545 107.19L36.1396 104.672L36.1543 104.536L36.1943 104.405L36.9316 101.967L37.3486 99.4521L37.373 99.3076L37.4248 99.1699L38.3154 96.7959L38.4277 96.2207L38.3223 96.0137L36.626 94.2471L36.5518 94.1699L36.4902 94.084L34.9482 91.9414L34.8633 91.8242L34.8027 91.6934L33.9199 89.7793L32.9102 87.5889L34.4287 87.6279L34.5146 87.4678L35.7646 85.1279L35.7979 85.0664L35.8359 85.0078L37.1953 82.9453L38.04 80.5947L38.1055 80.4121L38.2148 80.252L39.6689 78.1318L40.8184 75.959L41.7188 73.5654L41.7305 73.5342L41.7441 73.5029L42.7832 71.0762L42.7959 71.0479L42.8086 71.0205L43.8994 68.7324L44.5977 66.3809L45.0771 63.8506V63.8467L43.8193 64.9805L41.9414 66.7803L40.1289 68.6553L40.0557 68.7305L39.9717 68.7949L38.0029 70.3281L36.4092 72.2441L36.3691 72.292L36.3242 72.3359L34.4717 74.2178L34.4082 74.2812L34.3379 74.3379L32.4141 75.8701L30.9453 77.8594L30.8564 77.9795L30.7461 78.0791L28.7881 79.8545L28.7793 79.8623L26.8506 81.582L25.0664 83.458L24.0137 84.5645L22.9258 83.4922L21.0469 81.6377L20.9717 81.5635L20.9072 81.4785L19.4385 79.5469L17.4277 78.1533L17.2148 78.0059L17.0635 77.7949L15.8203 76.0615L13.2324 75.3916L15.3008 73.5244L15.3496 73.4814L17.1406 71.7197L17.2207 71.6416L17.3096 71.5762L19.333 70.1025L21.0186 68.2559L21.0469 68.2246L21.0781 68.1953L22.9658 66.3477L23.0293 66.2852L23.1006 66.2314L25.1582 64.6455L27.0352 62.9629L28.8291 61.0928L28.8818 61.0391L28.9385 60.9912L30.9482 59.2764L31 59.2334L31.0547 59.1943L33.0518 57.7793L34.5879 55.8555L34.6895 55.7275L34.8154 55.626L36.8008 54.0166L38.583 52.1836L38.6807 52.083L38.7949 52.001L40.8789 50.5371L42.6943 48.7871L42.8467 48.6406L43.0322 48.542L45.0518 47.4688L45.9697 46.9814L46.748 47.6699L47.0264 47.915L48.1953 45.9199L48.2812 45.7734L48.3975 45.6504L50.1533 43.7842L51.7021 41.7305L51.7852 41.6201L51.8867 41.5264L52.957 40.5459L51.7168 38.8682L49.7441 37.3936L49.4707 37.1865L49.3545 36.9414L49.2568 36.8799L49.1611 36.793L47.1934 35.0273L47.083 34.9297L46.9951 34.8115L45.5439 32.874L43.5332 31.4941L43.3867 31.3936L43.2676 31.2607L41.5205 29.3193L39.7207 27.4414L37.8457 25.6289L37.7695 25.5557L37.7061 25.4717L36.1729 23.5029L34.2568 21.9092L34.209 21.8691L34.1641 21.8252L32.2832 19.9717L32.2197 19.9082L32.1631 19.8379L30.6309 17.9141L28.6416 16.4453L28.5215 16.3574L28.4209 16.2461L26.6465 14.2881L26.6387 14.2793L24.918 12.3506L23.043 10.5664L21.9365 9.51367L23.0088 8.42676L24.8633 6.54688L24.9375 6.47168L25.0225 6.40723L26.9541 4.93848L28.3477 2.92773L28.4951 2.71484L28.7061 2.56348L30.4395 1.32031L31.1094 -1.26758L32.9766 0.801758ZM74.3691 97.5723L74.2529 97.5762L74.1387 97.5615L73.7236 97.5107L71.8613 97.7383L71.7227 97.7549L71.582 97.7461L69.0293 97.5781L66.4795 97.7139L66.3174 97.7227L66.1572 97.6963L65.082 97.5195L64.0029 97.6973L63.7939 97.7314L63.584 97.707L61.9229 97.5098L61.2959 97.585L61.2295 97.5928L61.1621 97.5947L58.5225 97.6689L58.4473 97.6709L58.373 97.666L56.125 97.5029L55.9473 97.5166L55.8916 97.5205H55.835L53.1943 97.5107H53.1396L53.084 97.5068L53.0508 97.5039L50.6768 97.6895L50.5879 97.6963L50.5 97.6934L47.8594 97.5869L47.8174 97.585L47.7754 97.5811L47.0137 97.5068L45.4248 97.6611L45.2734 97.6758L45.123 97.6602L43.6807 97.5078L42.7969 97.6016L42.6865 97.6123L42.5752 97.6084L41.2246 97.5498L41.2109 97.6201L41.167 97.7373L40.2842 100.089L39.876 102.556L39.8594 102.651L39.8311 102.745L39.1045 105.144L38.8213 107.655L38.8076 107.779L38.7734 107.899L38.0508 110.42L37.3574 112.968L37.3555 112.978L36.957 114.4L36.9902 114.419L37.0293 114.422L39.582 114.254L39.7227 114.245L39.8613 114.262L42.3896 114.57L44.9111 114.487H44.9121L46.6396 114.432L47.0693 114.366L47.1631 114.353L47.2568 114.35L49.1748 114.3L50.1475 114.24L50.3252 114.229L50.4434 114.249L50.4062 113.428L50.4004 113.307L50.4141 113.188L50.7021 110.699L50.4893 108.203L50.4619 107.877L50.5723 107.57L51.4648 105.079L51.7471 104.292L52.5645 104.118L55.1445 103.569L55.7666 103.437L56.2939 103.791L58.4072 105.211L58.9014 105.543L59.0332 106.123L59.6172 108.687L59.6582 108.868L59.6543 109.054L59.5938 111.698L59.5928 111.774L59.583 111.85L59.2754 114.311L59.2881 114.427L60.7188 114.35L60.8662 114.341L61.0127 114.362L61.7686 114.471L63.0146 114.37L63.1182 114.362L63.2207 114.368L64.7539 114.455L65.8066 114.26L65.9805 114.228L66.1582 114.237L68.7656 114.374L69.9414 114.398L70.833 114.266L71.0283 114.236L71.2246 114.258L72.5615 114.409L73.9746 114.386L74.0801 114.384L74.1846 114.397L75.2871 114.534L76.2568 114.527L78.8389 114.292L79 114.277L79.1602 114.298L80.4912 114.463L81.9082 114.452H81.999L82.0889 114.462L83.1904 114.587L83.8359 114.576L84.2295 114.345L83.9619 112.968L82.9199 110.687L82.8174 110.463L82.792 110.218L82.5332 107.711L81.7979 105.326L81.7656 105.22L81.749 105.109L81.3789 102.685L80.3721 100.424L80.2646 100.183L80.2461 99.9189L80.1123 98L79.4707 97.5947L76.9121 97.5127H76.9111L76.5439 97.5L74.3691 97.5723ZM54.0059 106.878L53.5059 108.273L53.7031 110.594L53.7158 110.743L53.6982 110.893L53.4082 113.408L53.459 114.53L54.9482 114.263L55.1816 114.221L55.3652 114.245L55.46 114.229L55.6611 114.247L56.2549 114.303V114.297L56.2764 114.117L56.5957 111.559L56.6494 109.171L56.2402 107.369L55.1475 106.636L54.0059 106.878ZM80.375 90.71L80.1309 90.7451L79.8887 90.7002L79.5674 90.6406L78.9453 90.7344L78.749 90.7637L78.5527 90.7422L76.0049 90.4521L73.5195 90.4717L70.9385 90.708L70.7773 90.7227L70.6172 90.7021L68.8838 90.4863L67.1475 90.7021L66.9873 90.7227L66.8262 90.708L64.2432 90.4727L61.7588 90.4531L59.2109 90.7422L59.0146 90.7637L58.8193 90.7344L58.1953 90.6406L57.876 90.7002L57.6338 90.7451L57.3896 90.71L55.2988 90.4102L53.835 90.4824L51.208 90.6318L51.1045 90.6377L51.002 90.6299L48.668 90.4404L47.3008 90.6816L47.041 90.7275L46.7803 90.6816L45.5273 90.459L43.4043 90.748L43.1689 90.7793L42.9355 90.7373L41.1787 90.4199L39.5381 90.4717L38.166 90.6982L38.0254 90.7217L37.8838 90.7178L37.7607 90.7148L38.8623 92.2461L40.6377 94.0928L40.79 94.252L40.8906 94.4482L40.8984 94.4629L42.5752 94.3916L42.6865 94.3877L42.7969 94.3984L43.6807 94.4912L45.123 94.3398L45.2734 94.3242L45.4248 94.3389L47.0137 94.4922L47.7754 94.4189L47.8174 94.415L47.8594 94.4131L50.5 94.3066L50.5879 94.3037L50.6768 94.3105L53.0508 94.4951L53.084 94.4932L53.1396 94.4893H53.1943L55.835 94.4795H55.8916L55.9473 94.4834L56.125 94.4961L58.373 94.334L58.4473 94.3291L58.5225 94.3311L61.1621 94.4053L61.2295 94.4072L61.2959 94.415L61.9229 94.4893L63.584 94.293L63.7939 94.2686L64.0029 94.3027L65.082 94.4795L66.1572 94.3037L66.3174 94.2773L66.4795 94.2861L69.0293 94.4219L71.582 94.2539L71.7227 94.2451L71.8613 94.2617L73.7236 94.4883L74.1387 94.4385L74.2529 94.4238L74.3691 94.4277L76.5439 94.499L76.9111 94.4873H76.9121L79.5518 94.4023L79.8047 94.3936L80.8311 93.9746L81.7354 92.0781L81.8486 91.8398L82.0371 91.6543L83.2627 90.4482L82.4727 90.4102L80.375 90.71ZM68.4688 58.0879L68.3174 58.3037L68.1006 58.4551L66.0488 59.8916L65.1055 60.959L65.5928 61.876L67.2793 63.626L67.3594 63.709L67.4258 63.8037L68.8779 65.8682L70.6699 67.6113L70.7344 67.6729L70.79 67.7422L72.3525 69.6689L74.3174 71.2373L74.4824 71.3701L74.6045 71.542L76.1045 73.6582L77.7207 75.5557L79.5791 77.3398L79.6201 77.3789L79.6572 77.4199L81.4189 79.3867L81.4561 79.4277L81.4912 79.4717L83.0518 81.498L84.8027 83.2891L86.7373 85.0537L86.8496 85.1562L86.9385 85.2783L88.4346 87.334L89.1152 88.0273L90.335 87.1514L91.7168 85.1592L91.8525 84.9639L92.04 84.8203L94.0762 83.2715L94.7832 82.5547L93.9688 81.7793L93.9238 81.7373L93.8838 81.6924L92.1318 79.7285L90.457 77.8809L88.4287 76.3818L88.2695 76.2646L88.1465 76.1104L86.5498 74.1055L84.7783 72.3613L82.7861 70.7021L82.6621 70.5986L82.5625 70.4697L80.9951 68.458L79.1709 66.6924L79.1299 66.6523L77.3037 64.7451L77.2725 64.7119L75.6211 62.8789L73.5547 61.459L73.3516 61.3193L73.2041 61.1221L71.6924 59.1064L69.9336 57.5273L69.1895 57.0605L68.4688 58.0879ZM59.5215 56.4092L56.9248 56.6611L56.7734 56.6758L56.623 56.6602L54.0928 56.3936L51.8516 56.4902L51.4482 57.1357L51.3799 57.2441L51.293 57.3398L49.5273 59.3076L49.4297 59.418L49.3115 59.5059L49.1758 59.6064L48.9131 61.8027L48.8936 61.9648L48.8398 62.1191L48.0039 64.5156L47.5322 67.0127L47.5176 67.0879L47.4961 67.1611L46.7422 69.6992L46.708 69.8125L46.6582 69.918L45.5264 72.29L44.5137 74.6543L43.5947 77.1016L43.5605 77.1914L43.5166 77.2754L42.2793 79.6133L42.2393 79.6895L42.1904 79.7607L40.7988 81.7871L39.958 84.1309L39.8975 84.3008L39.7979 84.4502L38.3799 86.5986L37.8838 87.5264L39.0723 87.4873H39.0732L39.2363 87.4814L40.3184 87.3037L40.5742 87.2617L40.8291 87.3076L41.4023 87.4111L41.6855 87.4023L44.3086 87.2402L44.4873 87.2295L44.6631 87.2598L45.5898 87.4238L45.6406 87.417L45.7461 87.4023L45.8525 87.4033L48.4922 87.4209H48.5215L49.4229 87.2637L49.6211 87.2285L49.8223 87.2471L52.3555 87.4854L54.8809 87.3496L55.0283 87.3408L55.1748 87.3623L55.4375 87.3994L56.3291 87.3564L56.4775 87.3486L56.625 87.3711L58.1396 87.5986L59.9678 87.2598L60.1426 87.2275L60.3203 87.2373L62.9277 87.373L65.5283 87.4287L68.1367 87.3857L68.2422 87.3838L68.3467 87.3975L68.8818 87.4639L69.417 87.3975L69.5215 87.3838L69.627 87.3857L72.2344 87.4297L74.835 87.374L77.4443 87.2373L77.6211 87.2275L77.7959 87.2598L79.6191 87.5986L81.1387 87.3711L81.2861 87.3486L81.4355 87.3564L82.3271 87.3994L82.5898 87.3623L82.7363 87.3408L82.8828 87.3496L84.8105 87.4531L84.6025 87.167L82.7549 85.4814L82.7246 85.4531L82.6943 85.4219L80.8467 83.5342L80.7842 83.4707L80.7305 83.4004L79.1455 81.3428L77.4629 79.4648L75.5928 77.6709L75.5391 77.6182L75.4902 77.5615L73.7764 75.5527L73.7324 75.501L73.6934 75.4463L72.2793 73.4492L70.3545 71.9131L70.2266 71.8115L70.125 71.6846L68.5156 69.6992L66.6836 67.918L66.582 67.8193L66.501 67.7051L65.0361 65.6221L63.2861 63.8057L63.1396 63.6543L63.041 63.4678L61.9678 61.4492L61.4814 60.5312L62.1689 59.752L63.9199 57.7695L64.0381 57.6357L64.1846 57.5332L65.6416 56.5137L64.6943 56.5107H64.6396L64.584 56.5068L62.0283 56.3076L59.5215 56.4092ZM44.624 51.0938L42.874 52.7793L42.791 52.8594L42.6973 52.9268L40.6318 54.3779L38.8896 56.1709L38.8281 56.2354L38.7578 56.291L36.8311 57.8525L35.2637 59.8174L35.1309 59.9834L34.959 60.1055L32.8418 61.6045L30.9453 63.2207L29.1611 65.0801L29.1221 65.1211L29.0801 65.1582L27.1143 66.9199L27.0732 66.957L27.0283 66.9912L25.0029 68.5518L23.2109 70.3037L21.4473 72.2373L21.3438 72.3496L21.2217 72.4395L19.167 73.9346L18.4736 74.6152L19.3496 75.835L21.3418 77.2168L21.5371 77.3525L21.6807 77.541L23.2285 79.5762L23.9453 80.2832L24.7207 79.4697L24.7627 79.4248L24.8086 79.3848L26.7725 77.6318L28.6191 75.957L30.1191 73.9297L30.2363 73.7705L30.3896 73.6465L32.3955 72.0508L34.1387 70.2793L35.7988 68.2871L35.9023 68.1631L36.0303 68.0635L38.043 66.4961L39.8076 64.6709L39.8486 64.6309L41.7549 62.8037L41.7725 62.7881L41.7891 62.7734L43.6211 61.1211L45.041 59.0547L45.1807 58.8525L45.3779 58.7041L47.3936 57.1924L48.9727 55.4336L49.4395 54.6895L48.4131 53.9697L48.1973 53.8184L48.0449 53.6016L46.6084 51.5488L45.541 50.6055L44.624 51.0938ZM58 64.0576L58.1084 66.5752L58.1123 66.6865L58.1016 66.7969L57.8389 69.2871L58.0811 71.7754L58.1533 72.5225L57.5977 73.0283L57.5098 73.1084L56.5 72L56.4395 71.9336L55.0947 72.0654L54.8389 69.4248L54.8242 69.2734L54.8398 69.123L55.1055 66.5928L55.001 64.1641L55 64.1318V64H58V64.0576ZM63.6543 44.2773L63.6211 44.3271L63.5801 44.3682L62.0547 45.8789L62.6631 46.6328L64.4531 48.3896L66.458 50.1133L66.5742 50.2129L66.665 50.3369L68.165 52.3008L69.2402 53.3467L69.3691 53.3359L71 53.1934V53.2734L71.2568 53.3184L73.5957 53.7314L73.7744 53.6895L73.4531 53.0635L72.1504 50.8311L72.1133 50.7666L72.082 50.6992L71.0508 48.4443L69.502 46.5254L69.4844 46.5039L69.4678 46.4824L68.0215 44.5498L66.0254 43.1689L65.9463 43.1143L65.875 43.0508L65.2227 42.4639L63.6543 44.2773ZM59.6523 47.9814L57.9863 49.7793H58.0029L56.3213 51.8262L56.2217 51.9424L56.1055 52.041L54.4062 53.4092L56.7871 53.6611L59.2754 53.4189L59.3174 53.415L59.3594 53.4131L62 53.3066L62.0879 53.3037L62.1768 53.3105L64.7559 53.5117L65.3281 53.5137L64.3945 52.292L62.4805 50.6436L62.4229 50.5859L60.5332 48.7461L60.4668 48.6797L60.417 48.6133L59.8027 47.8525L59.6523 47.9814ZM54.0146 43.6445L52.5049 45.6504L52.4561 45.7158L52.3994 45.7754L50.6992 47.5811L49.4971 49.6348L49.415 49.7744L49.3047 49.8936L49.2373 49.9668L49.0332 49.7783L50.3506 51.6641L51.2734 52.3105L51.9951 51.5273L52.0615 51.4443L52.1533 51.3701L54.1006 49.8037L55.6826 47.873L55.749 47.8066L57.5391 45.8682L57.5967 45.793L57.6631 45.7441L57.835 45.5947L57.0527 44.7686L55.1309 43.0117L55.0723 42.9707L55.0225 42.9043L54.9326 42.8037L54.0146 43.6445ZM57.7822 41.1152L57.5908 41.2051L59.1084 42.5811L59.1904 42.6641L60.0869 43.6182L61.3926 42.3135L62.6875 40.8193L62.1445 40.5781L59.9893 40.5537L57.7822 41.1152ZM96.2793 12.5322L96.2373 12.5771L96.1914 12.6172L94.2275 14.3691L92.3809 16.0439L90.8818 18.0723L90.7646 18.2305L90.6104 18.3545L88.6045 19.9512L86.8613 21.7217L85.2021 23.7139L85.0986 23.8389L84.9697 23.9385L82.958 25.5059L81.1924 27.3301L81.1523 27.3711L79.2451 29.1973L79.2119 29.2285L77.3789 30.8799L75.959 32.9463L75.8193 33.1494L75.6221 33.2969L73.6064 34.8086L72.0273 36.5674L71.5605 37.3115L72.5869 38.0322L72.8037 38.1826L72.9551 38.4004L74.3916 40.4521L75.459 41.3955L76.376 40.9082L78.126 39.2217L78.209 39.1416L78.3037 39.0742L80.3682 37.623L82.1113 35.8301L82.1729 35.7666L82.2422 35.71L84.1689 34.1484L85.7373 32.1836L85.8701 32.0176L86.042 31.8955L88.1582 30.3965L90.0547 28.7803L91.8389 26.9209L91.8789 26.8809L91.9199 26.8428L93.8857 25.082L93.9277 25.0439L93.9717 25.0098L95.998 23.4492L97.7891 21.6982L99.5537 19.7637L99.6562 19.6514L99.7783 19.5625L101.833 18.0664L102.526 17.3857L101.651 16.166L99.6592 14.7842L99.4639 14.6484L99.3203 14.4609L97.7715 12.4248L97.0547 11.7178L96.2793 12.5322ZM30.666 4.84961L29.2842 6.8418L29.1475 7.03711L28.96 7.18066L26.9238 8.72852L26.2168 9.44531L27.0312 10.2207L27.0762 10.2627L27.1162 10.3086L28.8691 12.2725L30.543 14.1201L32.5713 15.6191L32.7305 15.7363L32.8535 15.8906L34.4502 17.8955L36.2217 19.6396L38.2139 21.2988L38.3379 21.4023L38.4375 21.5303L40.0049 23.543L41.8291 25.3076L41.8701 25.3486L43.6963 27.2549L43.7129 27.2725L43.7275 27.2891L45.3799 29.1221L47.4453 30.541L47.6484 30.6807L47.7959 30.8779L49.3076 32.8936L51.0664 34.4736L51.6406 34.833H51.6416V34.834L51.8115 34.9404L52.5312 33.9131L52.6826 33.6973L52.8994 33.5449L54.9521 32.1084L55.8945 31.041L55.4072 30.124L53.7207 28.374L53.6406 28.292L53.5742 28.1973L52.123 26.1318L50.3301 24.3896L50.2656 24.3281L50.21 24.2578L48.6475 22.332L46.6836 20.7637L46.5176 20.6309L46.3955 20.459L44.8965 18.3428L43.2793 16.4453L41.4209 14.6611L41.3799 14.6221L41.3428 14.5801L39.5811 12.6143L39.5439 12.5732L39.5098 12.5283L37.9482 10.5029L36.1973 8.71191L34.2637 6.94727L34.1504 6.84473L34.0615 6.72168L32.5664 4.66699L31.8848 3.97363L30.666 4.84961Z" fill="black"/>
</g>
<defs>
<clipPath id="clip0_473_812">
<rect width="120" height="120" fill="white"/>
</clipPath>
</defs>
</svg>
