<svg xmlns="http://www.w3.org/2000/svg" width="120" height="120" fill="none" viewBox="0 0 120 120"><path fill="#000" d="m95.316 114.254 2.578.351 2.379.106 2.52-.434.117-.011h.117l2.637-.024h.152l.153.024 2.437.48 2.403-.246.082-.012h.082l1.043.012-.012 1.5-.024 1.5-.996-.012-2.507.258-.223.024-.223-.036-2.461-.492-2.425.012-2.497.434-.152.023-.164-.012-2.637-.105h-.07l-.07-.012-2.403-.34-2.39.469-.235.047-.234-.024-2.555-.328-2.531.012-.012-.012-2.59.082h-.011l-2.637.059h-.023l-2.567.012.012.011-2.637.176-.187.012-2.625-.492-2.39.281-.13.012h-.129l-2.554-.141-2.555.164h-.129l-.129-.012-2.496-.281-2.461.27h-.07l-2.637.152-.152.012-.141-.024-2.543-.351-2.508.058h-.058l-2.637-.058v-.012h-2.637l-2.625-.047-2.496.223-.035.011h-.047l-2.637.094h-.117l-2.636-.105v-.012l-2.59-.012h-.047l-.047-.011-2.578-.176-2.532.129h-.082l-2.636-.012v-.012l-2.508.024-2.637.234-.14.012-.153-.012-2.531-.281-2.578.012v-.012l-2.543.176h-.012l-.012.011-2.648.118-.094.011-.082-.011-2.543-.188.012-.223V114.5h.21l2.462.199 2.508-.117v-.012l2.636-.175h.094l2.637-.012.094-.012.082.012 2.508.281 2.484-.211.047-.012h.058l2.649-.023h.023l2.555.012 2.648-.118.082-.011.082.011 2.649.176-.012.012 2.555.012h.047l2.59.105 2.496-.082 2.648-.246h.152l2.637.047-.012.012h2.66l2.602.058 2.613-.058h.13l.117.011 2.484.364 2.496-.164v.011l2.578-.281.152-.012.164.012 2.485.293 2.543-.152.082-.012.082.012 2.531.129 2.496-.293.235-.036.222.047 2.45.457 2.449-.152.047-.012h.035l2.625-.011v-.012l2.636-.059 2.637-.07h.035l2.637-.012h.106l.093.012 2.39.316 2.415-.468.246-.047zM71.43 51.406l2.625.305-.012.012 2.625.258h.035l.047.011 2.461.387 2.637.152h.07l2.625.282-.012.011 2.614.2h-.012l2.578.07h.152l.14.035 2.544.586.914.21.21.915.528 2.32.024.106.011.105.211 2.637v.047l.13 2.648v.14l-.024.141-.197 1.416.119.01h-.012l2.625.14h.023l2.637.212.106.011.105.024 2.461.539 2.66.094 1.371.047.071 1.37.152 2.672.012.07-.012.071-.082 2.45.527 2.437.024.094.011.093.211 2.637.012.14-.012.153-.293 2.473.399 2.402.023.14v.141l-.082 2.45.504 2.472.035.188-.011.199-.165 2.566.118 2.39.609 2.497.023.106.012.105.246 2.637.012.117-.012.117-.176 2.531.03 1.617.654.053.199-.961h1.325v1.512l1.382.281-.222 1.09-.27 1.313-1.336-.118-1.68-.15.001.004-.015-.005-.931-.083v-.012l-2.613-.187-.07-.012-.082-.012-2.106-.388-.724.666-.469.433-.621-.035-2.684-.152h-.058l-.06-.012-2.46-.34-2.39.364-.165.023-.164-.012-2.52-.199-2.519.234-.234.024-.246-.047-2.496-.598-2.496-.211-.141-.011-.13-.035-.862-.243-.581.412-.328.235-.41.035-2.602.234-.07.012h-.07l-2.544-.023-2.625.187-.176.012-.187-.035-2.414-.422-2.414.316-.13.012h-.14l-2.578-.141-2.555.106-.129.012-.128-.012-2.45-.317-2.496.246h-.058l-2.637.153h-.152l-.141-.012-2.531-.351-2.508.07h-.059l-2.625-.024-2.625.024h-2.59l-2.53.281-.13.012h-.128l-2.66-.164-1.266-.071-.141-1.265-.293-2.567-.27-1.312-1.464-.152-2.485.128h-.082l-2.625-.023-2.625.035-.011-.012-2.52.235-.152.012-.14-.024-2.626-.281-2.484.023-.012-.011-2.52.093-2.449.34-.14.012h-.153l-2.566-.176.023-.351-.023-1.149-.024-1.5h.164l.06.012 2.206.15.046-1.937h.012l-.13-2.508-.175-2.637v-.094l-.023-2.636v-.094l.011-.082.282-2.52-.223-2.472v-2.766l-.012-.715.551-.445 1.793-1.465.504-.422.644.094 2.625.352.282.035.234.129.722.394.573-.456.363-.281.469-.035 2.578-.176h.035l2.567-.094.815-.145-.057-1.893v-.105l.011-.106.293-2.578 1.36.152.046-.046.18-.225-1.275.07v-.164l-.13-1.617-.116-1.57 1.582-.047 2.578-.059h.023l2.649-.023v.011l2.52-.222.151-.012.141.012 2.613.293 2.496-.024v.012l2.543-.187h.024l2.648-.13.387-.023.352.176 1.74.874.293.007h.54l-.017-.91v-.106l.14-2.566-.151-2.543-.012-.13.012-.128.293-2.637.011-.117.035-.117.633-2.332.2-.727.703-.28 2.46-.962.141-.058.14-.024 2.509-.469 2.414-.785h.023l.023-.011 2.532-.75 2.425-.856.07-.023 2.52-.727.012-.012h.012l2.531-.703.164-.047.152-.011 2.649-.153.129-.011zm27.732 51.672.822.044-.035-.034-.448-.064zM26.987 79.702l-.093.012-2.368.41-.093.023h-.094l-2.613.094-.678.049.238.153 2.32.774h-.011l2.425.715h.012l2.578.644.07.012.071.035 2.484.89h-.011l2.484.868h.012l.011.012 2.414.879h.012l2.52.808.105.035.117.059 2.192 1.125 2.449.703h-.012l2.532.598.164.035.14.07 2.309 1.102 2.39.68.082.023.07.035 2.345.95 2.46.55.223.047.2.117 2.18 1.23 2.355.657.035.011.047.012 2.496.856h-.012l2.508.832h-.012l2.52.808.023.012 2.496.867.094.035.094.047 2.156 1.102 2.426.398.222.035.2.106 2.378 1.172.07.035.06.035 1.98 1.23 2.203.61 2.45.211.105.011.105.024 2.367.551 2.414-.211.13-.012h.128l2.426.188 2.52-.352.21-.023.211.023 2.567.34.277.013.002-.125-1.094-.154-.164-.023-.152-.059-2.426-.926-2.473-.714-.07-.024-.059-.023-2.378-.95-2.438-.55-.059-.012-.046-.012-2.52-.761-.07-.024-.059-.023-2.426-.985-2.414-.715-.117-.046-2.367-.926-2.52-.809v.012l-2.449-.785-2.531-.54-.047-.011-.035-.012-2.543-.715-.117-.047-2.473-.913v-.012l-2.46-.809-.071-.023-2.309-.903-2.554-.68-.07-.023-2.497-.82-2.52-.762v-.011l-2.472-.551-.14-.024-.141-.058-2.285-1.02-2.485-.762-2.496-.574-2.554-.586-.282-.07-.222-.152-2.075-1.407.349-.52-1.68.29-.304.059-.305-.07-2.555-.622-.011-.012h-.012L30.12 81.4l-.223-.058-.187-.117-1.664-1.043-.987-.612-.102-.04zm-13.775 1.245v1.817l.223 2.636.011.141-.023.152-.281 2.637.023 2.473.164 2.543v.023l.129 2.649.012.046-.012.059-.036 1.53 2.365-.083h.047l2.637-.023h.082l.093.012 2.497.28 2.484-.222h.117l2.637-.035h.023l2.567.024 2.636-.13h.118l.105.012 2.637.27 1.09.117.222 1.066.516 2.45.012.07.011.082.141 1.371 1.313.082 2.484-.269.082-.012h2.707l2.637-.024h.035l2.59.012 2.636-.058h.117l.118.011 2.496.34 2.496-.141 2.59-.246.164-.023.164.023 2.496.317 2.531-.106h.14l2.509.129 2.496-.316.234-.035.223.047 2.472.421 2.438-.164.059-.011h.058l2.222.009-1.82-.894-2.438-.399-.223-.046-.21-.106-2.274-1.16-2.379-.832-2.508-.809h-.011l-2.497-.832-.011-.011-2.414-.833v.012l-2.555-.703-.176-.047-2.297-1.312-2.379-.528-.129-.035-.117-.047-2.32-.949-2.508-.715-.129-.035-.117-.058-2.215-1.079-2.449-.574-.07-.023-2.543-.715-.14-.047-.13-.059-2.273-1.16-2.39-.773-.036-.012-.023-.012-2.461-.902-2.496-.855v-.012h-.012l-2.414-.879-2.496-.61-.024-.011-.035-.012-2.531-.738-.047-.023-2.508-.82-.187-.06-.153-.105-2.191-1.418h-.012l-1.969-1.09-1.71-.234zm86.503-5.713.363 2.391.41 2.613v.047l.012.047.223 2.637.011.082-.011.093-.071 2.508.41 2.461.012.059v.059l.246 2.625v.023l.188 2.543.363 2.625.012.07v.082l.07 2.649v.07l-.036 1.892.604.591.058-.051.859.829 1.959.37.231.018-.024-1.313-.011-.07.011-.071.176-2.566-.234-2.367-.598-2.496-.035-.141v-.14l-.141-2.637v-.082l.012-.082.141-2.45-.481-2.425-.035-.176v-.164l.07-2.485-.398-2.496-.035-.21.023-.212.293-2.496-.199-2.367-.214-1.013-1.863-.372-2.172-.04zm-7.196-.782.34 2.403.399 2.613.011.047v.046l.235 2.625.012.083-.012.093-.059 2.52.422 2.46v.06l.012.046.234 2.637v.023l.188 2.543h.011l.352 2.614.012.093v.106l.011 2.648v.153l-.035.164-.023.11 1.311.389.059.011.047.024 2.332.867.556.081.02-.981-.071-2.555-.34-2.543-.012-.047v-.047l-.199-2.613-.234-2.52-.434-2.613-.023-.14.011-.153.082-2.472-.21-2.532-.41-2.613v-.012l-.4-2.613-.023-.2.024-.21.197-1.532-.018-.001h-.058l-.07-.012-2.567-.398h-.011l-1.427-.237zm-7.45-.974.293 2.438h.012l.422 2.613.012.047v.047l.246 2.637v.187l-.094 2.52.422 2.449.012.047.011.059.246 2.624v.07l.118 2.52.48 2.496.059.246-.047.258-.217 1.477 1.338.406 2.472.55.118.024.105.047.599.24v-1.91l-.34-2.52-.012-.047v-.035l-.199-2.614-.223-2.519-.433-2.613-.024-.14v-.142l.07-2.484-.222-2.543-.399-2.613v-.012l-.375-2.625-.035-.223.035-.21.25-1.641-.69-.036h-.048l-.047-.012-2.613-.293v-.012l-1.238-.074zm-7.25-.648.316 2.508.41 2.566v.059l.012.047.222 2.636.012.082v.094l-.082 2.52.41 2.449.024.14.187 2.626.211 2.625v.07l.092 2.357 1.354.526 2.414.726.07.012.071.035.62.251.087-.622-.434-2.32-.023-.106v-.105l-.129-2.567-.234-2.52-.446-2.612-.023-.153v-.152l.094-2.648-.223-2.344-.422-2.614v-.035l-.012-.023-.316-2.625-.023-.129.011-.129.078-1.475-.967-.06-.188-.023-2.496-.481-.623-.016zm-4.104-1.203-2.309.727-2.437.984-.07.023-.083.024-2.53.715-2.532.726h-.012l-.011.012-2.508.656-2.52.785-.117.035-.117.024-2.508.34-2.344.82-2.414.95-.129.058-.152.023-2.484.434-2.344.89-.082.036-.094.023-2.437.586-2.52 1.008-.374.111.123.084 2.297.54 2.578.597.094.023 2.531.774.082.023.082.035 2.344 1.02 2.402.539.047.023.059.012 2.52.773h.01l.024.012 2.473.797 2.508.668.082.023.082.036 2.379.925h.011l2.508.832.047.024 2.45.902 2.367.68 2.59.563.058.011.07.024 2.508.785.012.011.669.212-.041-1.149-.211-2.625v-.012l-.176-2.496-.434-2.613-.023-.14v-.153l.082-2.473-.21-2.531-.423-2.613v-.047l-.328-2.625-.012-.117v-.118l.052-1.358zm.073-5.53-2.367.88h-.024l-.023.011-2.496.82-.094.036-.094.012-2.507.48-2.426.797-.094.023-2.555.645-2.554.656-.012.012-2.484.62-2.356.938-.14.059-.153.023-1.811.325.003.125-.29-.074-.515.093-.14.024-.13-.012h-1.992l-1.558 1.3-.293.247-.375.07-2.555.516-2.344.82-.023.012-.035.011-2.532.762-2.449.797-2.379.96-.164.071-.187.024-2.274.34-.096.067 2.168.575h-.012l2.226.54 1.98-.34 2.345-.704 2.46-.972.211-.07 2.496-.61 2.368-.89.129-.048.14-.023 2.45-.445 2.343-.914.024-.012.035-.012 2.508-.867.129-.047.152-.012 2.543-.363 2.379-.738.023-.012h.035l2.543-.691 2.508-.715.012-.012 2.52-.715 2.331-.925.059-.024.047-.012 2.531-.797.129-.046.152-.012 2.625-.305.106-.023.117.011 2.625.07.117.012.117.024 2.496.469 2.567.152 2.637.176h.07l2.52.304.011-.011 2.649.152.14.023 2.625.41h-.012l2.532.387 2.472.164 2.661.059.129.012.128.023 1.068.21.049-1.298-.082-1.312-1.43-.047h-.141l-.129-.035-2.484-.563-2.531-.187v-.012l-2.614-.14h-.023l-2.637-.188v-.012h-.011l-2.543-.222v.011l-2.649-.07-.187-.012-.188-.047-2.367-.691-2.437.035h-.153l-.152-.035-2.414-.469h-2.39zm-41.56 5.706h-.118l-2.613.011-1.008.024.012.059v.035l.012.199-.276.013-.058.528-.281 2.45.046 1.57.504.199 1.477-1.032.293-.199.351-.058 2.461-.364 2.285-.925.047-.012.059-.024 2.508-.82h.035l2.46-.75 2.497-.867.105-.035.094-.012.9-.187-1.257.068-2.637.187h-.094l-2.636.024h-.094l-.082-.012-2.52-.281zm34.255-16.588-.011-.012-2.426.703.012.012-2.497.867-.07.024-2.531.761-2.473.797-.093.035-.094.024-2.496.445-1.617.645-.422 1.535-.246 2.32.152 2.555v.164l-.14 2.637.011.66 1.176-.207 2.343-.914.094-.035.094-.024 5.11-1.312 2.46-.622 2.508-.82.188-.047 1.905-.365-.063-1.022-.011-.047v-.047l-.024-2.543-.175-2.637-.012-.023v-.024l-.094-2.636-.012-.13.024-.117.094-.79zm3.751-.76-.205 1.665.106 2.414.187 2.649v.082l.024 2.554.022.34.022-.007 2.484-.914.129-.035.129-.023 2.601-.457.13-.024h2.906l.14.024 2.45.48 2.496-.035h.222l.211.059 2.39.703 2.462.058h.082l2.13.18.21-1.477-.118-2.449-.187-2.46-.317-1.36-1.441-.34-2.52-.059h-.046l-.036-.011-2.636-.211h-.012l-.012-.012-2.625-.27v-.011l-2.566-.13h-.082l-.07-.01-2.567-.423-2.59-.246h-.023l-2.543-.304zM24.852 12.43l2.53.808.095.024 2.414.96.152.06.14.093 2.204 1.5.304.2.176.327 1.266 2.344.035.059.035.07 1.031 2.426.106.246.012.281.035.668h1.453l-1.488 2.156-.41 2.192-.024.117-.035.105-.89 2.45-.06.175-.105.153-1.488 2.191-.13.2-.198.152-2.121 1.617-.223.176-.281.082-2.543.703-.047.023-.047.012-2.578.527-.246.047-.258-.035-2.625-.352-.211-.023-.2-.082-2.425-1.078-.152-.059-.13-.093-2.155-1.57-.235-.165-.152-.246-1.43-2.25-.082-.129-.059-.14-.925-2.473-.082-.211-.012-.223-.164-2.613-.012-.129.012-.14.316-2.602.024-.164.047-.152.879-2.52.093-.258.188-.21 1.734-2.052.117-.14.153-.117 2.191-1.536.164-.128.211-.07 2.508-.88.164-.046.164-.024 2.648-.293.317-.035zm-2.801 3.199-2.133.75-1.828 1.289-1.453 1.7-.739 2.12-.27 2.309.13 2.191.82 2.168 1.184 1.864 1.828 1.312 2.074.914 2.121.281 2.274-.457 2.25-.633 1.675-1.277 1.23-1.816.81-2.215.41-2.192-.07-1.722-.868-2.04-1.101-2.027-1.77-1.207-2.25-.878v-.012l-2.133-.668z"/></svg>