<svg width="120" height="120" viewBox="0 0 120 120" fill="none" xmlns="http://www.w3.org/2000/svg">
<path d="M95.3164 114.254L97.8945 114.605L100.273 114.711L102.793 114.277L102.91 114.266H103.027L105.664 114.242H105.816L105.969 114.266L108.406 114.746L110.809 114.5L110.891 114.488H110.973L112.016 114.5L112.004 116L111.98 117.5L110.984 117.488L108.477 117.746L108.254 117.77L108.031 117.734L105.57 117.242L103.145 117.254L100.648 117.688L100.496 117.711L100.332 117.699L97.6953 117.594H97.625L97.5547 117.582L95.1523 117.242L92.7617 117.711L92.5273 117.758L92.293 117.734L89.7383 117.406L87.207 117.418L87.1953 117.406L84.6055 117.488H84.5938L81.957 117.547H81.9336L79.3672 117.559L79.3789 117.57L76.7422 117.746L76.5547 117.758L73.9297 117.266L71.5391 117.547L71.4102 117.559H71.2812L68.7266 117.418L66.1719 117.582H66.043L65.9141 117.57L63.418 117.289L60.957 117.559H60.8867L58.25 117.711L58.0977 117.723L57.957 117.699L55.4141 117.348L52.9062 117.406H52.8477L50.2109 117.348V117.336H47.5742L44.9492 117.289L42.4531 117.512L42.418 117.523H42.3711L39.7344 117.617H39.6172L36.9805 117.512V117.5L34.3906 117.488H34.3438L34.2969 117.477L31.7188 117.301L29.1875 117.43H29.1055L26.4688 117.418V117.406L23.9609 117.43L21.3242 117.664L21.1836 117.676L21.0312 117.664L18.5 117.383L15.9219 117.395V117.383L13.3789 117.559H13.3672L13.3555 117.57L10.707 117.688L10.6133 117.699L10.5312 117.688L7.98828 117.5L8 117.277V114.5H8.21094L10.6719 114.699L13.1797 114.582V114.57L15.8164 114.395H15.9102L18.5469 114.383L18.6406 114.371L18.7227 114.383L21.2305 114.664L23.7148 114.453L23.7617 114.441H23.8203L26.4688 114.418H26.4922L29.0469 114.43L31.6953 114.312L31.7773 114.301L31.8594 114.312L34.5078 114.488L34.4961 114.5L37.0508 114.512H37.0977L39.6875 114.617L42.1836 114.535L44.832 114.289H44.9844L47.6211 114.336L47.6094 114.348H50.2695L52.8711 114.406L55.4844 114.348H55.6133L55.7305 114.359L58.2148 114.723L60.7109 114.559V114.57L63.2891 114.289L63.4414 114.277L63.6055 114.289L66.0898 114.582L68.6328 114.43L68.7148 114.418L68.7969 114.43L71.3281 114.559L73.8242 114.266L74.0586 114.23L74.2812 114.277L76.7305 114.734L79.1797 114.582L79.2266 114.57H79.2617L81.8867 114.559V114.547L84.5234 114.488L87.1602 114.418H87.1953L89.832 114.406H89.9375L90.0312 114.418L92.4219 114.734L94.8359 114.266L95.082 114.219L95.3164 114.254Z" fill="black"/>
<path d="M108.496 89.8097L108.309 92.1652L108.426 94.7784L108.602 97.4152L108.613 97.462V97.5089L108.625 100.146V100.239L108.613 100.321L108.332 102.818L108.555 105.314V105.419L108.59 108.068V108.091L108.566 110.728L108.695 113.294V113.435L108.672 113.587L108.309 116.06L108.109 117.349L106.809 117.337L104.16 117.302H104.113L101.535 117.196L98.957 117.302L98.9453 117.29L96.3906 117.525L96.3086 117.536H96.2383L93.5898 117.489V117.478L90.9766 117.466H90.9414L88.3281 117.419L85.7266 117.466H85.6094L85.4922 117.454L82.9961 117.103L80.5703 117.243L77.9336 117.525L77.7695 117.548L77.6055 117.525L75.0508 117.232L72.5898 117.396H72.4258L69.9531 117.255L67.3984 117.56L67.1641 117.583L66.9414 117.536L64.4922 117.079L62.043 117.243H61.9609L59.3242 117.267L56.6875 117.325L56.6992 117.337L54.0625 117.407H54.0273L51.3906 117.419H51.2852L51.1914 117.407L48.7539 117.091L46.3867 117.56L46.1406 117.595L45.8945 117.571L43.3164 117.208L40.8906 117.114L38.4297 117.536L38.3125 117.56H38.1953L35.5469 117.583H35.3945L35.2539 117.548L32.8281 117.068L30.4141 117.325L30.2734 117.337L30.1328 117.325L27.6953 117.114L25.1875 117.454L24.9766 117.489L24.7773 117.454L22.2109 117.114L19.7969 117.091L17.3125 117.525L17.0781 117.548L14.4414 117.583L13.7617 117.595L13.3047 117.091L11.9688 115.603L11.6289 115.228L11.582 114.712L11.3828 112.075L11.3711 111.97V111.876L11.5352 109.263L11.4297 106.732V106.614L11.5352 104.036L11.3828 101.482V101.364L11.3945 101.259L11.6406 98.6105L11.7109 96.1144V93.4777L11.4766 90.9698L11.418 90.255L11.9453 89.7511L13.375 88.3917L13.8906 87.8995L14.5938 87.9816L17.2188 88.298L17.207 88.3097L19.7148 88.3683H19.8555L19.9844 88.3917L22.4219 88.9073H24.8945V88.8956L27.543 88.8253H27.6719L27.7891 88.837L30.3438 89.2003L32.8867 89.2706L32.875 89.2823L35.5234 89.3292H35.6172L35.7109 89.3409L38.1719 89.7159L40.6562 89.5519L40.7969 89.5402L40.9258 89.5519L43.4453 89.8214H46.1172L46.2109 89.8331L48.7422 90.1378L51.332 90.1964H51.4961L51.6484 90.2316L54.0625 90.7941L56.5117 90.7238L59.1719 90.6417H59.2891L61.9141 90.7823H61.9023L64.375 90.8527L66.8945 90.5011L67 90.4894H67.0938L69.625 90.4777L72.168 90.1378L74.793 89.7745L74.8984 89.7628H75.0039L77.5469 89.7745L80.0781 89.4698L80.125 89.4581H80.1602L82.7969 89.2823L82.9141 89.2706L83.043 89.2823L85.5977 89.5284L88.0234 89.3761L90.6367 89.0831V89.0714L93.3555 88.7316H96.1445L98.6641 88.837L101.172 88.4972H101.242L103.879 88.2863L103.926 88.2745H103.973L106.375 88.2394L106.492 88.1925L108.496 87.4659V89.8097ZM14.5234 91.4269L14.7109 93.3488V96.1613L14.6406 98.798V98.8566L14.6289 98.9034L14.3828 101.446L14.5352 103.954V104.095L14.4297 106.743L14.5234 109.263L14.5352 109.333L14.5234 109.403L14.3711 111.923L14.5234 113.962L15.0742 114.571L16.8555 114.548L19.4453 114.114L19.5859 114.091H19.7148L22.3516 114.126H22.4453L22.5391 114.138L24.9648 114.454L27.4141 114.126L27.5781 114.103L27.7422 114.114L30.2266 114.314L32.7461 114.068L32.9688 114.044L33.1914 114.091L35.6992 114.571L38.0547 114.56L40.5742 114.138L40.7266 114.114H40.8789L43.5273 114.232H43.5977L43.6562 114.243L46.0469 114.56L48.4609 114.103L48.6953 114.056L48.9297 114.091L51.4727 114.407H53.9805L56.6172 114.337H56.6289L59.2656 114.278H59.2891L61.8438 114.243L64.4805 114.079L64.668 114.056L64.8555 114.103L67.2695 114.548L69.6836 114.267L69.8125 114.255L69.9414 114.267L72.4844 114.384L75.0508 114.243L75.1797 114.232L75.3086 114.243L77.793 114.525L80.2656 114.267H80.3008L80.3359 114.255L82.9727 114.103L83.125 114.091L83.2656 114.114L85.7969 114.454L88.3047 114.419H88.375L91.0117 114.478H91L93.625 114.489H93.6484L96.1562 114.525L98.7695 114.302H98.8398L101.488 114.196H101.605L104.242 114.314H104.23L105.52 114.325L105.684 113.247L105.578 110.786L105.566 110.751V110.704L105.59 108.091L105.555 105.454V105.443L105.332 102.923L105.32 102.782L105.344 102.63L105.613 100.099V97.6144L105.438 94.9777V94.9542L105.309 92.3058V92.13L105.367 91.2394L104.102 91.2628L104.113 91.2745L101.488 91.4855L101.477 91.4738L98.9336 91.8253L98.8164 91.837H98.6875L96.0273 91.7316H93.5312L91 92.048H90.9883L88.3633 92.3527H88.293L85.6562 92.5167L85.5391 92.5284L85.4219 92.5167L82.8555 92.2706L80.4414 92.4347L80.4531 92.4464L77.8281 92.7745L77.7227 92.7863H77.6289L75.0977 92.7628L72.5781 93.1027L69.9531 93.4659L69.8477 93.4777H67.2344L64.6914 93.8409L64.5625 93.8644L64.4336 93.8527L61.7852 93.7823H61.75L59.1719 93.6417L56.6055 93.7238L53.957 93.8058H53.7578L53.5703 93.7706L51.1328 93.1847L48.625 93.1378L48.5547 93.1261H48.4844L45.9531 92.8214L43.3984 92.8331H43.3164L43.2227 92.8214L40.7617 92.5402L38.2188 92.7277L38.043 92.7394L37.8789 92.7159L35.3945 92.3175L32.8164 92.2706H32.8047L30.1562 92.1886H30.0742L29.9922 92.1769L27.4844 91.8253L24.9766 91.8956H24.9414L22.293 91.9073H22.1406L21.9883 91.8722L19.457 91.3448L16.9961 91.2863H16.8555L14.9219 91.0519L14.5234 91.4269Z" fill="black"/>
<path d="M25.209 80.6634L27.7637 81.0501L30.2598 81.0735L32.8848 81.0501H32.8965L35.5332 81.0384H35.5449L38.123 81.0618L40.748 80.9446L40.9355 80.9329L41.123 80.9681L43.5371 81.4837L45.9512 81.2376L46.0801 81.2259H46.1973L48.7637 81.4134L51.3184 81.2962H51.4473L51.5762 81.3079L54.0723 81.6478L56.5215 81.4251H56.5918L59.2402 81.3196L59.3691 81.3079L59.4863 81.3314L61.9941 81.6595L64.5137 81.554H64.584L67.1973 81.5657L69.834 81.5306H72.4355L74.9668 81.2493H75.0137L75.0488 81.2376L77.6855 81.097H77.8027L80.416 81.1556L83.041 81.1321H83.123L85.666 81.261L88.2324 81.0853H88.3145L90.9277 81.0618V81.0501L93.4473 80.9915L96.084 80.7103L96.2363 80.6868L96.377 80.6985L98.9785 80.9446L101.498 80.8743L102.6 80.8509L102.951 81.9056L103.596 83.8509L103.654 84.0384L103.666 84.2493L103.795 86.886L103.807 86.9915L103.795 87.1087L103.549 89.6634L102.201 89.5228L102.107 89.5931L100.842 90.4134L100.783 90.3196L100.502 89.886L100.561 89.3704L100.783 86.9564L100.678 84.6009L100.443 83.8978L98.9199 83.9446H98.8379L98.7559 83.9329L96.2598 83.6985L93.7637 83.9681H93.6582L91.0098 84.0501H90.9863L88.4199 84.0735L85.7949 84.2493L85.7012 84.261H85.6191L83.0527 84.1204L80.4277 84.1556H80.3809L77.7324 84.097V84.0853L75.2832 84.2259L72.6582 84.5189H69.8574L69.8691 84.5306L67.2324 84.5657H67.209L64.6191 84.554L61.9941 84.6595H61.8652L61.7363 84.6478L59.2168 84.3079L56.7676 84.4017L56.7793 84.4134L54.1426 84.6478L53.9785 84.6595L53.8145 84.636L51.3066 84.2962L48.7988 84.4134H48.7168L48.6348 84.4017L46.0684 84.2259L43.5957 84.472L43.373 84.4954L43.1504 84.4485L40.6777 83.9329L38.252 84.0618H38.1699L35.5215 84.0384L32.9082 84.0501L30.2715 84.0735H30.2363L27.5996 84.0384H27.4941L27.4004 84.0267L25.0098 83.6634L22.5957 84.0853L22.3496 84.1204L22.1035 84.0853L19.9121 83.7337L19.3613 83.9798L19.6191 85.4798L19.6309 85.597V85.7259L19.6543 88.3626V88.5267L19.6191 88.679L19.3613 89.9095L17.8965 89.5931L16.4316 89.2884L16.6543 88.222L16.6426 85.8431L16.209 83.347L16.0215 82.1985L17.0762 81.7181L19.0918 80.8275L19.4902 80.6517L19.9355 80.7103L22.3027 81.0853L24.7285 80.6634L24.9629 80.6282L25.209 80.6634Z" fill="black"/>
<path d="M93.4668 72.4487L96.1152 72.6011H96.1504L96.1973 72.6128L98.248 72.8472L99.4902 72.9878L99.5723 74.2417L99.748 76.8784V76.9019L99.877 79.5503L99.8887 79.644L99.877 79.7495L99.6426 82.3042L98.3535 82.1753L98.1895 82.2573L96.8184 82.855L96.7715 82.7729L96.6191 82.4097L96.6543 82.0229L96.877 79.6089L96.7598 77.0776L96.666 75.6714L95.9395 75.5894V75.6011L93.4316 75.4487L90.959 75.8003H90.8418L88.2051 75.9761H88.1816L85.5449 76.0933L85.5332 76.0815L82.9902 76.3511H82.8262L80.2363 76.3042L77.623 76.4214H77.5762L75.0449 76.4331L72.4199 76.6792L69.7949 77.0542H69.7246L67.0879 77.1362L64.4629 77.2651H64.4395L61.791 77.3472H61.7793L59.1309 77.394H58.9668L58.8145 77.3706L56.3301 76.8901L53.8457 76.9136L53.834 76.9019L51.2676 77.0542H51.1035L50.9395 77.0308L48.4668 76.6206L45.9355 76.644H45.8535L45.7715 76.6323L43.2285 76.3628L40.7324 76.5386L40.5098 76.5503L40.2871 76.4917L37.873 75.9058L35.4121 75.9409H35.3184L32.6816 75.8354V75.8237L30.0684 75.7534L27.4316 75.6948H27.3965L24.959 75.5659L24.3027 75.6831L24.5254 76.8198L24.5723 77.0542L24.5371 77.3003L24.1855 79.937L24.0801 82.3276L22.791 82.2573V83.7573H21.0215L21.0918 82.187L21.1973 79.6792V79.6089L21.209 79.5386L21.5488 77.1362L21.0801 74.7456L20.7871 73.2339L22.2988 72.9761L24.5723 72.5894L24.7363 72.5659L24.9004 72.5776L27.5371 72.6948L27.5254 72.7065L30.1387 72.7534H30.1504L32.7871 72.8354H32.8105L35.4238 72.9409L38.0137 72.9058H38.2012L38.3887 72.9526L40.7441 73.5269L43.1934 73.3745L43.3223 73.3628L43.4512 73.3745L46.0527 73.644L48.5605 73.6206L48.6895 73.6089L48.8184 73.6323L51.291 74.0425L53.7637 73.9136H53.834L56.4707 73.8901H56.623L56.7637 73.9136L59.248 74.3823L61.709 74.3472L64.3223 74.2651L66.959 74.1479H66.9707L69.502 74.0542L72.0801 73.7026L72.1152 73.6909H72.1621L74.7871 73.4565L74.8457 73.4448H74.9043L77.5059 73.4331V73.4214L80.1426 73.3159L80.1777 73.3042L80.2246 73.3159L82.8145 73.3511L85.334 73.105L85.3691 73.0933H85.4043L88.0176 72.9878L90.6074 72.8237L93.1738 72.4604L93.3145 72.437L93.4668 72.4487Z" fill="black"/>
<path d="M32.2578 65.0017L32.4453 65.0486L34.8359 65.6345L37.25 65.4705L37.3789 65.4587L37.5078 65.4822L40.0039 65.74L42.6172 65.7166H42.7461L42.875 65.74L45.3477 66.1619L47.8203 66.0212L47.8555 66.0095H47.8906L50.5273 65.9978H50.6797L50.8203 66.0212L53.3398 66.5134L55.8477 66.5837H55.9062L58.4727 66.7712H58.4844L61.0742 66.8533L63.6758 66.7712L66.1367 66.4197H66.1719L66.2188 66.408L68.8438 66.1736H68.9609L71.5625 66.1501V66.1384L74.1992 66.033H74.2812L76.8711 66.0681L79.3906 65.822L79.4258 65.8103H79.4727L82.0742 65.7048L84.6641 65.5408L87.2305 65.1775L87.3711 65.1541L87.5234 65.1658L90.0781 65.3181L92.6328 65.1658L93.7812 65.1072L94.1445 66.197L94.7773 68.1189L94.8477 68.3064L94.8594 68.5173L94.9883 71.1541V71.2595L94.9766 71.3767L94.7305 73.9314L93.3828 73.7908L93.2891 73.8611L92.0352 74.6931L91.9766 74.5994L91.6953 74.1658L91.7422 73.6384L91.9766 71.1541L91.8594 68.8689L91.6484 68.2244L90.1719 68.3181H90.0781L89.9961 68.3064L87.4883 68.1541L85.0156 68.5056L84.957 68.5173H84.8984L82.2734 68.6931H82.2383L79.6016 68.8103L79.5898 68.7986L77.0586 69.0681H76.8828L74.2344 69.033V69.0212L71.6797 69.1384H71.6328L68.9961 69.1736L68.9844 69.1619L66.4883 69.3962L66.4766 69.3845L63.9336 69.7595L63.8516 69.7712H63.7812L61.1445 69.865H61.0391L58.3789 69.7712H58.3203L55.7539 69.572V69.5837L53.1172 69.5017L52.9883 69.49L52.8711 69.4666L50.4336 68.9978H47.9609L47.9727 69.0095L45.3242 69.1501L45.1602 69.1619L44.9961 69.1384L42.5234 68.7166L39.9922 68.74H39.9102L39.8281 68.7283L37.3555 68.4705L34.8008 68.6345L34.5664 68.6462L34.3438 68.5994L31.8828 68.0017L29.7852 68.0369L29.1523 68.3416L29.1992 70.0056L29.2695 72.6541L29.2812 72.7244L29.2695 72.8064L29.1875 73.9783L27.6875 73.8611L26.1875 73.7556L26.2812 72.5837L26.1992 70.0876L26.1406 67.4392L26.1172 66.4783L26.9961 66.0564L28.7891 65.1892L29.0938 65.0486H29.4219L32.0703 65.0017H32.2578Z" fill="black"/>
<path d="M33.0762 58.8503L35.7246 58.862H35.8535L35.9824 58.8854L38.4199 59.319L40.9277 59.2018H40.998L43.6348 59.2136H43.7871L43.9395 59.2487L46.377 59.7526L48.9434 59.8581H49.0137L51.6387 60.0807L51.627 60.0925L54.252 60.2565H54.2637L56.8535 60.4557L59.3262 60.3972L61.9512 60.2097L61.9863 60.1979H62.0332L64.623 60.1628V60.1511L67.2598 60.0104H67.3418L69.9316 60.0222L72.4512 59.7409H72.5215L75.1348 59.6003L77.6895 59.4128L80.2793 59.0261L80.4199 59.0026H80.5723L83.1152 59.1315L85.6816 58.9557L86.0684 58.9323L86.4199 59.0964L88.1191 59.8815L88.9395 60.2682L88.9863 61.1706L89.1035 63.819L89.1152 63.9245L89.1035 64.0417L88.8457 66.6081L87.4746 66.4675L87.416 66.5261L86.3379 67.569L86.2676 67.4987L85.7871 66.9948L85.8574 66.3034L86.1035 63.8073L86.0215 62.2136L85.5059 61.9792L83.2559 62.1315H83.0801L80.584 62.0026L78.0996 62.3776L78.041 62.3893H77.9941L75.3574 62.5886H75.334L72.7559 62.7175L72.7676 62.7292L70.1426 63.0104L70.0605 63.0222H69.9785L67.4004 63.0104L64.7754 63.1393H64.752L64.7285 63.1511L62.1621 63.1862L59.5371 63.3854L59.502 63.3972H59.4668L56.8184 63.4675H56.748L56.666 63.4557L54.0527 63.2448V63.2565L51.416 63.069H51.3926L48.7559 62.8464V62.8347L46.1895 62.7409H46.0723L45.9551 62.7175L43.5059 62.2018H41.0449L38.4082 62.319L38.2441 62.3307L38.0801 62.2956L35.5957 61.8503H34.2246L34.0371 62.5065L34.3184 64.8503L34.3652 65.1784L34.2598 65.4948L33.7559 66.9948L32.584 66.5964V68.0261H30.2637L30.9082 66.0573L31.3066 64.8737L31.0371 62.5534L31.002 62.2722L31.084 61.9909L31.6348 59.9636L31.9277 58.8503H33.0762Z" fill="black"/>
<path d="M39.1426 51.4493L41.7793 51.4845H41.9316L42.0723 51.5197L44.6035 52.0587L47.0879 52.1759H47.1113L47.1465 52.1876L49.7715 52.4337L49.7598 52.4454L52.3965 52.6329L54.9629 52.8673L57.4941 52.7501H57.5293L60.166 52.715H60.248L62.8379 52.8087L65.4395 52.7501H65.4863L68.0293 52.7736L70.5605 52.4689H70.6074L70.6426 52.4572L73.2559 52.3048V52.2931L75.8105 52.0822L78.3887 51.6603L78.5293 51.6368L78.6816 51.6486L81.3066 51.7423L83.791 51.5431L84.9629 51.4611L85.3379 52.5626L85.9707 54.4845L86.0293 54.672L86.041 54.8829L86.1699 57.5197V57.7423L85.9121 60.297L84.5762 60.1564L84.4824 60.2267L83.2285 61.0587L83.1699 60.9767L82.877 60.5314L82.9355 60.004L83.1582 57.59L83.0527 55.2345L82.8535 54.6134L81.3887 54.7423L81.3066 54.754L81.2246 54.7423L78.6816 54.6486L76.2441 55.047L76.1855 55.0587H76.127L73.502 55.2814H73.4785L70.8418 55.4572L70.8301 55.4454L68.2988 55.7618L68.1934 55.7736H68.0996L65.4746 55.7501L62.8613 55.8087H62.7793L60.1426 55.715L57.5996 55.7384L57.6113 55.7501L54.9629 55.8556L54.8691 55.8673L54.7754 55.8556L52.1387 55.6329V55.6212L49.5137 55.422H49.4902L46.8652 55.1759V55.1642L44.2871 55.0353H44.1699L44.0527 55.0118L41.6035 54.4728L39.5645 54.4493L39.1074 54.754L38.8965 56.5353L39.0488 59.0782L39.0605 59.1837L39.0488 59.2775L38.9785 60.3439L37.4785 60.2267L35.9785 60.1212L36.0605 59.1486L35.8965 56.6173V56.4884L35.9082 56.3595L36.2012 53.7228L36.2832 53.0314L36.8691 52.6447L38.2871 51.6954L38.6738 51.4376L39.1426 51.4493Z" fill="black"/>
<path d="M73.9648 42.8362L76.6016 43.1292L76.7188 43.1409L76.8242 43.1761L78.8398 43.7034L79.6719 43.9261L79.9062 44.7581L80.6094 47.3011V47.3245L80.6211 47.3362L81.2773 49.8909L81.3008 49.9964L81.3125 50.0901L81.6055 52.6331L80.3398 52.7737L80.1641 52.8909L78.8867 53.6761L78.8398 53.5941L78.6641 53.3128L78.6289 52.973L78.3477 50.5472L77.7148 48.098L77.2344 46.3753L76.2031 46.1058L73.7539 45.8362L71.293 46.0472L71.2344 46.0589H71.1758L68.5391 46.0823H68.5156L65.9375 46.0706L63.3125 46.1878L63.2305 46.1995L63.1367 46.1878L60.5 46.012V46.0003L57.9453 45.9886H57.8984L55.3086 45.8831L52.8008 45.9651L52.8125 45.9769L50.1758 46.2112H50.0117L47.375 46.1644V46.1526H44.9258L43.9883 46.3636L43.6953 47.9925L43.6719 48.1097L43.6367 48.2151L42.793 50.5823L42.4297 53.055L41.0234 52.8441L41 52.8909L39.9922 53.9925L39.9336 53.9456L39.3477 53.4183L39.4648 52.6214L39.8398 50.0081L39.8633 49.8675L39.9102 49.7269L40.7656 47.3245L41.2227 44.8401L41.4102 43.8675L42.3711 43.6566L44.4336 43.1878L44.5977 43.1526H44.7734L47.4102 43.1644H47.4219L50.0352 43.2112L52.5547 42.9886L52.5898 42.9769H52.625L55.2617 42.8831H55.3789L58.0273 42.9886L58.0156 43.0003L60.6172 43.012H60.6641L60.6992 43.0237L63.2656 43.1995L65.8086 43.0706H65.8906L68.5273 43.0823V43.0941L71.0352 43.0706V43.0589L73.6719 42.8362L73.8242 42.8245L73.9648 42.8362Z" fill="black"/>
<path d="M59.9336 30.4641L62.5938 30.5344H62.7695L62.9336 30.5812L65.3125 31.2141L67.75 31.1086H67.8906L68.0312 31.132L70.4805 31.4953L72.9766 31.3078L73.1758 31.2961L73.375 31.3312L75.8945 31.8351L78.3438 32.0109L80.8398 31.7414L80.957 31.718L81.0742 31.7297L83.7109 31.8586L84.0156 31.8703L84.2969 32.0109L86.6523 33.1711L87.0977 33.382L87.3203 33.8156L88.457 35.9484L89.6172 38.1516H88.375L88.3047 39.2883L88.4336 41.8547L88.4453 42.1359L88.3633 42.3937L87.6953 44.4211L87.3555 45.4406H86.2773L83.6406 45.4641H83.5469L83.4648 45.4523L80.957 45.1711L78.4727 45.3937H78.3672L75.7305 45.4289H75.6953L73.1172 45.4055L70.5039 45.5344H70.4102L70.3281 45.5226L67.6914 45.3469V45.3351L65.1367 45.3234H65.0898L62.5 45.218L59.9922 45.3L57.3555 45.5461H57.2031L54.5664 45.5109V45.4992L51.9414 45.4875H51.918L49.3047 45.4289L46.7031 45.4875H46.5859L46.457 45.4758L43.9609 45.1125L41.4766 45.2766L41.4648 45.2648L38.9102 45.5461L38.7461 45.5578L38.582 45.5461L35.9453 45.2414H35.875L35.8047 45.218L33.625 44.7726L32.3594 44.5148L32.4297 43.2258L32.5586 40.6828L32.2656 38.1984L32.2305 37.8937L32.3125 37.6008L33.0508 35.1047L33.1562 34.7297L33.4375 34.4484L35.1719 32.7609L35.5469 32.3859L36.0742 32.3391L38.6875 32.0812H38.6992L41.3242 31.8703V31.8586L43.9492 31.6125H43.9844L46.6211 31.4367L46.7266 31.425L46.8203 31.4367L49.2461 31.6008L51.6133 30.9797L51.8477 30.9211L52.0938 30.9445L54.707 31.132L57.0742 31.0851L59.5469 30.4992L59.7344 30.4523L59.9336 30.4641ZM57.625 34.0266L57.4727 34.0617L57.3086 34.0734L54.6719 34.1203L54.6016 34.132L54.5312 34.1203L52.1055 33.9445L49.75 34.5539L49.5273 34.6242L49.2812 34.6008L46.7148 34.425L44.2188 34.5891L44.2305 34.6008L41.5938 34.8469H41.582L38.9688 35.0578L36.8828 35.257L35.8047 36.3117L35.2773 38.1516L35.5469 40.4953L35.5586 40.6125V40.7414L35.4766 42.0891L36.332 42.2648L38.7578 42.5344L41.2305 42.2883L41.2656 42.2766H41.3008L43.9375 42.1242L44.0898 42.1125L44.2305 42.1359L46.7617 42.4758L49.2812 42.4289H49.3398L51.9766 42.4875H51.9648L54.6016 42.5109H54.6133L57.2266 42.5344L59.7344 42.3234H59.8164L62.4531 42.218H62.5703L65.207 42.3234H65.1953L67.8086 42.3469H67.8438L67.8906 42.3586L70.457 42.5226L73 42.4055H73.082L75.6953 42.4172L78.332 42.3937L80.8633 42.1711L81.0039 42.1594L81.1562 42.1828L83.7695 42.4523L85.1758 42.4406L85.4102 41.7141L85.3047 39.3586V39.2062L85.4336 36.675L84.8945 35.6437L83.2422 34.8234L81.0039 34.7297L78.4961 34.9992L78.3555 35.0226L78.2266 35.0109L75.5898 34.8117H75.4961L75.4141 34.7883L72.9883 34.3078L70.5391 34.4953L70.375 34.507L70.2109 34.4836L67.7148 34.1086L65.2188 34.2141L64.9961 34.2258L62.3242 33.5226L60.0039 33.4641L57.625 34.0266Z" fill="black"/>
<path d="M61.1914 24.4482L63.7812 24.5654L66.3594 24.4951L66.5117 24.4834L66.6523 24.5068L69.1484 24.9404L71.7383 25.0811L71.9492 25.0928L72.1367 25.1631L74.5977 26.0186L74.9961 26.1475L75.2656 26.4756L76.9766 28.5381L77.3047 28.9365L77.3164 29.4404L77.4219 32.0537L76.0391 32.0889L76.0039 32.1592L75.1367 33.3896L75.0547 33.3311L74.4453 32.8975L74.4219 32.1592L74.3398 30.0498L73.2266 28.7139L71.3633 28.0693L68.9375 27.9287H68.8555L68.7734 27.9053L66.3125 27.4951L63.8047 27.5654H63.6875L61.0508 27.4482H58.6484L56.0234 27.7178L55.9297 27.7295H55.8477L53.2695 27.6943L50.6562 27.8232H50.6445L48.3477 27.8936L46.7422 28.8076L45.8867 30.4365L45.6641 32.3467L45.5 33.6592H44V32.1357L42.6758 31.9834L42.9453 29.8154L42.9688 29.5459L43.0977 29.2998L44.293 27.0264L44.4922 26.6279L44.8789 26.4053L47.1875 25.1162L47.5039 24.9404L47.8672 24.9287L50.5156 24.835V24.8232L53.1523 24.6943H53.2344L55.7188 24.7295L58.332 24.46L58.4141 24.4482H61.1914Z" fill="black"/>
<path d="M25.9785 114.351L25.8027 116.144L25.6621 117.503H24.291V116.003L22.8145 115.851L22.9785 114.116L22.8613 111.632V111.55L22.873 108.913L22.8496 106.405L22.627 103.769L22.6152 103.628L22.627 103.476L22.8965 100.944V98.3662L22.7324 95.8232V95.8115L22.7207 95.7998L22.6035 93.1514L22.5918 93.0576L22.6035 92.9756L22.791 90.4326L22.9902 90.4443H25.791V90.6553L25.5918 93.1162L25.709 95.624H25.7207L25.8965 98.2607V98.3545L25.9082 100.991L25.9199 101.085L25.9082 101.167L25.627 103.675L25.8379 106.159L25.8496 106.206V106.265L25.873 108.913V108.937L25.8613 111.491L25.9785 114.14L25.9902 114.245L25.9785 114.351Z" fill="black"/>
<path d="M36.75 114.351L36.5742 116.144L36.4336 117.503H35.0625V116.003L33.5859 115.851L33.75 114.116L33.6328 111.632V111.55L33.6445 108.913L33.6211 106.405L33.3984 103.769L33.3867 103.628L33.3984 103.476L33.668 100.944V98.3662L33.5039 95.8232V95.8115L33.4922 95.7998L33.375 93.1514L33.3633 93.0576L33.375 92.9756L33.5625 90.4326L33.7617 90.4443H36.5625V90.6553L36.3633 93.1162L36.4805 95.624H36.4922L36.668 98.2607V98.3545L36.6797 100.991L36.6914 101.085L36.6797 101.167L36.3984 103.675L36.6094 106.159L36.6211 106.206V106.265L36.6445 108.913V108.937L36.6328 111.491L36.75 114.14L36.7617 114.245L36.75 114.351Z" fill="black"/>
<path d="M47.5215 114.351L47.3457 116.144L47.2051 117.503H45.834V116.003L44.3574 115.851L44.5215 114.116L44.4043 111.632V111.55L44.416 108.913L44.3926 106.405L44.1699 103.769L44.1582 103.628L44.1699 103.476L44.4395 100.944V98.3662L44.2754 95.8232V95.8115L44.2637 95.7998L44.1465 93.1514L44.1348 93.0576L44.1465 92.9756L44.334 90.4326L44.5332 90.4443H47.334V90.6553L47.1348 93.1162L47.252 95.624H47.2637L47.4395 98.2607V98.3545L47.4512 100.991L47.4629 101.085L47.4512 101.167L47.1699 103.675L47.3809 106.159L47.3926 106.206V106.265L47.416 108.913V108.937L47.4043 111.491L47.5215 114.14L47.5332 114.245L47.5215 114.351Z" fill="black"/>
<path d="M56.6035 117.498V116.009L55.3027 116.068L55.1738 113.525V113.443L55.1855 110.806L55.1621 108.298L54.9395 105.662L54.9277 105.521L54.9395 105.369L55.209 102.837V100.259L55.0449 97.7163V97.7046L55.0332 97.6929L54.916 95.0444L54.9043 94.9507L54.916 94.8687L55.1035 92.3257L55.3027 92.3374H58.1035V92.5483L57.9043 95.0093L58.0215 97.5171H58.0332L58.209 100.154V100.248L58.2207 102.884L58.2324 102.978L58.2207 103.06L57.9395 105.568L58.1504 108.052L58.1621 108.099V108.158L58.1855 110.806V110.83L58.1738 113.384L58.291 115.927L58.373 117.498H56.6035Z" fill="black"/>
<path d="M67.375 117.498L67.375 116.009L66.0742 116.068L65.9453 113.525L65.9453 113.443L65.957 110.806L65.9336 108.298L65.7109 105.662L65.6992 105.521L65.7109 105.369L65.9805 102.837L65.9805 100.259L65.8164 97.7163L65.8164 97.7046L65.8047 97.6929L65.6875 95.0444L65.6758 94.9507L65.6875 94.8687L65.875 92.3257L66.0742 92.3374L68.875 92.3374L68.875 92.5483L68.6758 95.0093L68.793 97.5171L68.8047 97.5171L68.9805 100.154L68.9805 100.248L68.9922 102.884L69.0039 102.978L68.9922 103.06L68.7109 105.568L68.9219 108.052L68.9336 108.099L68.9336 108.158L68.957 110.806L68.957 110.83L68.9453 113.384L69.0625 115.927L69.1445 117.498L67.375 117.498Z" fill="black"/>
<path d="M79.834 114.351L79.6582 116.144L79.5176 117.503H78.1465V116.003L76.6699 115.851L76.834 114.116L76.7168 111.632V111.55L76.7285 108.913L76.7051 106.405L76.4824 103.769L76.4707 103.628L76.4824 103.476L76.752 100.944V98.3662L76.5879 95.8232V95.8115L76.5762 95.7998L76.459 93.1514L76.4473 93.0576L76.459 92.9756L76.6465 90.4326L76.8457 90.4443H79.6465V90.6553L79.4473 93.1162L79.5645 95.624H79.5762L79.752 98.2607V98.3545L79.7637 100.991L79.7754 101.085L79.7637 101.167L79.4824 103.675L79.6934 106.159L79.7051 106.206V106.265L79.7285 108.913V108.937L79.7168 111.491L79.834 114.14L79.8457 114.245L79.834 114.351Z" fill="black"/>
<path d="M90.6035 114.351L90.4277 116.144L90.2871 117.503H88.916V116.003L87.4395 115.851L87.6035 114.116L87.4863 111.632V111.55L87.498 108.913L87.4746 106.405L87.252 103.769L87.2402 103.628L87.252 103.476L87.5215 100.944V98.3662L87.3574 95.8232V95.8115L87.3457 95.7998L87.2285 93.1514L87.2168 93.0576L87.2285 92.9756L87.416 90.4326L87.6152 90.4443H90.416V90.6553L90.2168 93.1162L90.334 95.624H90.3457L90.5215 98.2607V98.3545L90.5332 100.991L90.5449 101.085L90.5332 101.167L90.252 103.675L90.4629 106.159L90.4746 106.206V106.265L90.498 108.913V108.937L90.4863 111.491L90.6035 114.14L90.6152 114.245L90.6035 114.351Z" fill="black"/>
<path d="M101.375 114.351L101.199 116.144L101.059 117.503H99.6875V116.003L98.2109 115.851L98.375 114.116L98.2578 111.632V111.55L98.2695 108.913L98.2461 106.405L98.0234 103.769L98.0117 103.628L98.0234 103.476L98.293 100.944V98.3662L98.1289 95.8232V95.8115L98.1172 95.7998L98 93.1514L97.9883 93.0576L98 92.9756L98.1875 90.4326L98.3867 90.4443H101.188V90.6553L100.988 93.1162L101.105 95.624H101.117L101.293 98.2607V98.3545L101.305 100.991L101.316 101.085L101.305 101.167L101.023 103.675L101.234 106.159L101.246 106.206V106.265L101.27 108.913V108.937L101.258 111.491L101.375 114.14L101.387 114.245L101.375 114.351Z" fill="black"/>
<path d="M52.9902 44.6052L52.9668 44.6638L52.9434 44.7106L52.0176 47.0544L51.4199 49.4216V49.4333L50.7988 52.0114L50.7871 52.0583L50.7754 52.0934L50.3184 53.6403L49.873 55.0934L48.4316 54.6364L48.3145 54.6013L48.7598 53.1716L48.7715 53.1599L47.4355 52.7731L47.9043 51.2263V51.2145L48.502 48.7419V48.7184L49.1699 46.152L49.1934 46.07L49.2168 45.9763L50.1543 43.6091L50.2949 43.6677L51.584 44.0661L53.0137 44.5114L52.9902 44.6052Z" fill="black"/>
<path d="M58.6602 45.0652L58.6367 45.1824L58.2031 47.5731L58.0859 50.1395L58.0742 50.1277L57.9922 52.7645V52.8465L57.8516 54.3817L57.7109 55.8817L56.2109 55.741L56.0938 55.7293L56.2344 54.2293L54.8633 54.1121L55.0039 52.577H55.0156L55.0859 50.0223V49.9871L55.2148 47.3504L55.2383 47.1629L55.6836 44.6551L55.8477 44.6902L57.1719 44.8192L58.6602 44.9715V45.0652Z" fill="black"/>
<path d="M65.9961 55.6824L65.8789 55.7059L65.5859 54.2293L64.2383 54.5106L63.9219 52.9402L63.9102 52.952L63.2188 50.3973L63.2188 50.3738L62.5742 47.8074L62.5508 47.7254L62.5391 47.6317L62.2344 45.1238L62.2227 45.1121L62.2344 45.1004L62.2227 45.1004L62.3867 45.077L63.6992 44.8192L65.1641 44.5262L65.1875 44.6199L65.1992 44.6785L65.1992 44.7371L65.5039 47.1629L66.125 49.6473L66.1133 49.6473L66.8047 52.1668L66.8281 52.2606L67.1797 53.9012L67.4844 55.3777L65.9961 55.6824Z" fill="black"/>
<path d="M74.5137 55.6442L74.3965 55.6794L73.998 54.2263L72.6738 54.6013L71.959 52.0817L71.9707 52.07L71.1152 49.6677V49.6559L71.1035 49.6442L70.2832 47.1247L70.2598 47.0427L70.2363 46.9489L69.7559 44.4763L69.7441 44.4645L69.7559 44.4528H69.7441L69.9082 44.4177L71.1973 44.0661L72.6387 43.6677L72.6621 43.7614L72.6855 43.82L72.6973 43.8786L73.166 46.2809L73.9629 48.7067L74.8184 51.1794L74.8418 51.2263L74.8535 51.2614L75.5566 53.7927L75.9668 55.2458L74.5137 55.6442Z" fill="black"/>
<path d="M59.4785 12.5973L59.4785 14.0973L60.8613 14.0856L60.873 16.652L60.873 16.6637L61.0371 19.2067L61.0371 19.2184L61.0488 19.2301L61.166 21.8785L61.1777 21.9723L61.166 22.0543L60.9785 24.5973L60.8379 24.5856L57.9785 24.5856L57.9785 24.3746L58.1777 21.9137L58.0605 19.4059L58.0488 19.4059L57.873 16.7692L57.873 16.6754L57.8613 14.109L57.8496 12.5973L59.4785 12.5973Z" fill="black"/>
<path d="M68.2559 11.168L69.2754 13.0312L69.498 13.4414L69.4512 13.9102L69.1582 16.5469L69.0762 17.3203L68.4082 17.6953L66.791 18.6094L66.4512 18.7969H66.0645L63.4277 18.832H63.4043L60.7559 18.8203L60.416 18.8086L60.0996 18.6562L58.166 17.6953L57.2637 17.25L57.334 16.2539L57.5098 13.6055L57.5332 11.9766L58.7637 12L59.0215 10.5H60.5566L60.5449 10.6289L61.6699 10.6992L64.2012 10.582V10.5703L66.8379 10.3945L67.7988 10.3359L68.2559 11.168ZM64.4004 13.5586H64.3887L64.377 13.5703L61.7285 13.6875L61.6465 13.6992L61.5645 13.6875L60.5098 13.6172V13.7695L60.498 13.8164L60.3809 15.4453L61.1191 15.8203H63.3926L65.6543 15.7969L66.252 15.457L66.4043 14.0508L66.0762 13.4414L64.4004 13.5586Z" fill="black"/>
</svg>
