<svg width="120" height="120" viewBox="0 0 120 120" fill="none" xmlns="http://www.w3.org/2000/svg">
<path d="M76.7852 4.93359L79.7148 5.55469H79.7383L79.7617 5.56641L82.668 6.26953L82.6914 6.28125H82.7148L85.6094 7.06641L85.6797 7.08984L88.5391 7.99219L88.6328 8.02734L88.7266 8.07422L91.2695 9.28125L94.0703 9.78516L94.293 9.82031L94.4922 9.92578L97.082 11.2734L99.8359 12.4688L100.129 12.5977L100.352 12.8438L102.145 14.8359L102.918 15.7031L102.273 16.6641L100.551 19.2539L100 20.0977L99.0156 19.8984L96.2969 19.3594L93.8945 20.0625L91.5977 21.1641L90.1562 23.25L88.6914 25.6406L87.6836 28.207L87.2148 31.0664V31.1016L86.6641 34.0078L86.3242 36.5742L87.0391 39.1641L88.0117 41.5898L89.7578 43.7578L89.8281 43.875L91.3984 46.2188L91.7734 46.793L91.5859 47.4609L90.7773 50.3555L90.7188 50.5664L90.5898 50.7539L89.5674 52.3389L89.7832 52.502L89.4434 53.5215L88.4941 56.3574L87.7441 59.1465L87.7207 59.252L87.6738 59.3457L86.5371 62.0059L85.5996 64.8652L85.5879 64.8535L84.8145 67.6895V67.7012L83.9941 70.584L83.9707 70.6426L83.9473 70.7129L83.3711 72.2021L85.0371 72.4902L87.459 72.5088L88.377 70.5859L88.5293 70.2695L88.7988 70.0586L91.0957 68.2656L91.3652 68.043L91.7168 67.9727L94.6348 67.3633L95.0449 67.2695L95.4434 67.4102L98.3027 68.418L98.7012 68.5586L98.959 68.8867L100.846 71.1836L100.998 71.3828L101.08 71.6172L102.1 74.3945L102.229 74.7578L102.17 75.1328L101.713 78.1094L101.654 78.4375L101.479 78.707L99.8145 81.2148L99.6387 81.4727L99.3809 81.6484L96.8262 83.3008L96.4863 83.5234L96.0762 83.5352L93.0527 83.6641L92.7363 83.6875L92.4551 83.5703L89.6777 82.5039L89.2793 82.3516L89.0332 82.0117L87.5449 80.0781L85.7051 79.4805L83.0801 79.8906L82.6816 79.9609L82.3066 79.8086L82.1133 79.7334L82.0215 79.7666L80.5039 80.3213L79.6035 82.875L79.6152 82.8867L78.7949 85.7812L78.7832 85.793L77.9395 88.6758L77.9277 88.7344L77.8926 88.793L76.8027 91.5938L76.7676 91.6992L76.709 91.793L75.2676 94.3125L74.1543 97.0195L74.1191 97.1016L74.0723 97.1836L72.584 99.7969L72.5488 99.8555L72.5137 99.9023L70.8145 102.375L70.8027 102.398L70.791 102.41L69.0215 104.848L68.9395 104.965L68.8457 105.059L66.666 107.133L66.6543 107.156L66.6309 107.168L64.3926 109.172L64.252 109.289L61.791 110.988L61.7676 111L61.7441 111.023L59.2129 112.629L59.166 112.652L59.1191 112.688L56.459 114.117L56.3184 114.199L56.1543 114.234L53.2363 115.055L53.1309 115.078L53.0254 115.09L50.0254 115.477L49.8965 115.488H49.7676L46.7559 115.348H46.6738L46.5918 115.336L43.6152 114.867L43.416 114.844L43.2285 114.75L40.5566 113.543L37.7676 112.465L37.7207 112.441L37.6621 112.418L34.9434 111.105L34.7324 111L34.5684 110.848L32.4238 108.832L30.127 106.887L30.0215 106.805L29.9395 106.688L28.0996 104.426L26.0605 102.199L25.873 102.012L25.7793 101.766L24.6426 99.0586L23.166 96.5859L23.1191 96.5156L23.084 96.4336L21.8535 93.7031L21.8301 93.668L21.8184 93.6328L20.7285 90.832L20.7051 90.7617L19.7676 87.9023L19.7441 87.8438L19.7324 87.7734L19.0527 84.8438L18.9824 84.5859L19.0176 84.3281L19.2891 82.2529V81.7314L18.6309 80.707L16.873 77.9414L20.1191 78.4219L20.377 78.4688L20.1777 79.7227L21.1621 79.1016L22.1582 80.6836L22.2324 80.7988L23.5664 81.4014L23.7656 81.4834L23.9297 81.6357L26.1445 83.5693L28.4062 85.1982L31.0312 86.5107L31.0898 86.5459L33.3984 87.9756L36.0469 88.3975L38.7422 88.7256L41.3086 88.1279L43.8867 87.3076L45.8555 85.6084L47.6133 83.417L49.2539 81.249L49.9688 79.1162L49.6055 78.1436L47.4961 77.6162H47.4609L47.4375 77.6045L44.5664 76.7607H44.5547L41.7305 76.1631H41.6953L41.6602 76.1514L38.7539 75.4014L38.7422 75.3896H38.7305L36.4863 74.751L36.3438 75.0693L36.1328 75.5615L35.6523 75.7959L32.9688 77.167L32.7344 77.2959L32.4531 77.3193L29.5 77.6592L29.1133 77.7061L28.75 77.542L26.0547 76.4053L25.7969 76.2998L25.6094 76.1123L23.4883 74.1084L23.1953 73.8389L23.0781 73.4639L22.2109 70.6631L22.1172 70.3584L22.1523 70.042L22.5039 67.1123L22.5391 66.8545L22.6562 66.6201L23.9805 63.9248L24.2031 63.4795L24.625 63.2568L27.2734 61.8623L27.5312 61.7217L27.8242 61.6982L30.7305 61.4053L31.0234 61.3701L31.293 61.4521L34.1523 62.2725L34.5156 62.3779L34.7852 62.6475L36.9648 64.7686L37.3516 65.1553L37.3984 65.6943L37.6182 67.8926L40.3594 68.3115L43.2773 68.4873L43.4062 68.499L43.5352 68.5225L46.3242 69.2021L49.2305 69.624H49.2422L52.1377 69.9297L53.1133 68.8242L53.5703 66.3516V66.3047L53.582 66.2461L54.3203 63.3398L54.332 63.3047L54.3438 63.2812L55.1875 60.3984L55.2344 60.2578L56.3125 57.6094L56.9453 54.7734V54.7266L56.957 54.6914L57.7773 51.7969L57.8008 51.7383L57.8125 51.6797L58.7969 49.0312L59.3711 46.1836L59.4062 46.0195L59.4648 45.8789L60.5898 43.2891L61.3398 40.4531L61.4102 40.2188L61.5391 40.0195L63.0156 37.7461L63.332 37.2539L63.9062 37.1133L66.6602 36.4102L69.168 35.25L71.4414 33.832L73.3281 31.9922L74.8164 29.8008L75.7891 27.1641L75.8242 27.0938L75.8477 27.0234L77.1016 24.457L77.8281 21.75L78.2148 18.9844L78.2266 16.5469L77.0078 14.4961L75.1562 12.6914L72.6602 11.2852L71.6641 10.7344L71.9336 9.63281L72.6016 6.78516L72.8008 5.95312L73.6328 5.69531L76.0352 4.96875L76.4102 4.85156L76.7852 4.93359ZM53.1045 79.1904L52.9805 79.5732L52.0312 82.4326L51.9492 82.6787L51.7969 82.8662L49.9805 85.2686L49.957 85.292L48.1055 87.6123L48.0117 87.7178L47.918 87.8115L45.6211 89.792L45.3867 89.9912L45.0938 90.085L42.2109 90.999L42.1641 91.0107L42.1055 91.0225L39.1992 91.7139L38.9297 91.7842L38.6602 91.749L35.6836 91.374H35.6367L32.6484 90.9053L32.3438 90.8584L32.0859 90.6943L29.625 89.1592L26.9531 87.835L26.8477 87.7764L26.7422 87.7061L24.3281 85.9482L24.2695 85.9131L24.2227 85.8662L22.125 84.0381L22.0713 84.0137L22.0176 84.4219L22.6152 86.9648L23.5293 89.7422L24.6191 92.543L25.7559 95.0859L27.2793 97.6055L27.3379 97.6992L27.373 97.8047L28.4395 100.359L30.3145 102.398L30.3379 102.434L30.373 102.469L32.1543 104.672L34.3574 106.535L34.416 106.594L36.4434 108.492L38.8926 109.676L41.6348 110.742L41.6816 110.766L41.7168 110.777L44.2598 111.926L47.0137 112.359L49.7793 112.477L52.5684 112.113L55.1582 111.398L57.7012 110.039L60.127 108.492L62.4941 106.84L64.627 104.93L66.666 102.984L68.3652 100.652L69.9707 98.2852L71.4238 95.7422L72.5371 93.0938L72.5723 93.0117L72.6191 92.9297L74.0957 90.3047L75.0566 87.7852L75.9121 84.9492L76.7207 82.0781L76.7324 82.0312L76.7559 81.9844L77.2061 80.6777L75.8691 80.5518L72.916 80.6338H72.7637L69.7637 80.4111V80.3994L66.7871 80.2002H66.7402L63.8105 79.9072L60.8105 79.7432L60.7168 79.7314L60.6113 79.7197L57.7637 79.1689H54.9395L53.1045 79.1904ZM92.6543 70.832L90.9316 72.1797L90.6104 72.8564L91.1074 72.9238L91.8105 73.0293L92.1855 73.627L93.5449 75.8184L94.5527 77.4473L92.7363 78.0332L90.3418 78.8018L91.1426 79.8555L93.2285 80.6523L95.5371 80.5469L97.4707 79.293L98.7949 77.3242L99.1465 75.0391L98.3496 72.8828L96.8965 71.1016L94.834 70.375L92.6543 70.832ZM53.7109 72.6914L53.6914 72.6738L53.8125 74.1357L53.8359 74.3818L53.7773 74.6162L53.4033 76.1865L54.916 76.1689H58.0801L58.2207 76.1924L61.0918 76.7432L63.9863 76.9189H64.0449L67.0332 77.2119H67.0215L69.9863 77.4111H69.998L72.834 77.6221L75.834 77.5518H76.0215L78.6465 77.7979L80.0527 77.2939L80.1113 75.5713L79.9121 74.2002L78.1543 74.1182H78.0723L75.0957 73.8135V73.8018L72.2246 73.5439V73.5557L69.2129 73.4854H69.0723L68.9434 73.4619L66.0723 72.876L63.1543 72.6064V72.5947L60.2363 72.4775H60.1895L57.1895 72.2549L57.0605 72.2432L56.9316 72.208L54.6533 71.6279L53.7109 72.6914ZM83.0996 75.2783L83.123 75.4072V75.5479L83.0752 76.8447L85.5996 76.4688L85.9629 76.4102L86.3027 76.5273L87.5146 76.9219L88.8457 76.1816L88.9629 76.1113L89.1035 76.0645L89.9238 75.7949L87.8145 75.502L84.9199 75.4785H84.8027L84.6855 75.4668L83.0879 75.1982L83.0996 75.2783ZM34.3125 70.6553L34.4766 70.8896L36.7734 71.71H36.7617L39.5039 72.4951H39.5156L42.4219 73.2451H42.4102L45.293 73.8545L45.4102 73.8779L48.2812 74.7217H48.2695L50.5312 75.2725L50.8008 74.1357L50.6836 72.7881L48.9258 72.6123L48.9023 72.6006H48.8672L45.9023 72.1787L45.832 72.167L45.7617 72.1436L42.9375 71.4639L40.0898 71.2998L40.0195 71.2881L39.9609 71.2764L37.0547 70.8311V70.8428L34.5234 70.5615L34.3125 70.6553ZM28.4219 64.6514L26.4531 65.6826L25.4453 67.7334L25.1641 70.0537L25.832 72.1982L27.4609 73.7334L29.5352 74.624L31.8438 74.3662L33.2627 73.6436L33.0352 73.5615L32.5898 73.4092L32.3203 73.0225L30.8086 70.9248L29.7539 69.4365L31.418 68.6865L33.6797 67.667L34.0547 67.4912L34.4531 67.5381L34.5684 67.5508L34.4688 66.5264L32.9453 65.0381L30.7305 64.4053L28.4219 64.6514ZM60.625 52.7344L59.8633 55.4062L59.2305 58.3594L59.207 58.4766L59.1484 58.6055L58.0117 61.3945L57.2266 64.0547L57.2383 64.0664L56.5234 66.8906L56.1533 68.9189L57.5059 69.2666L60.4121 69.4775L60.4004 69.4893L63.3652 69.6064H63.4004L63.4355 69.6182L66.4238 69.8994H66.5059L66.5879 69.9229L69.377 70.4854L72.2832 70.5557H72.3887L75.377 70.8252L75.3887 70.8369L78.2832 71.1182H78.2949L80.541 71.2227L81.0996 69.7402L81.9199 66.8926L82.7285 63.998V63.9512L83.6895 61.0684L83.7363 60.9512L84.8564 58.3008L83.1387 57.7891H83.127L80.2559 56.9219V56.9102L77.4785 56.1133L74.5488 55.457L74.4199 55.4336L74.3027 55.3867L71.5254 54.2383L68.8066 53.4414L65.9473 52.7969L65.9355 52.7852H65.9238L63.0059 52.0703L62.9238 52.0469L62.8301 52.0234L61.1318 51.3838L60.625 52.7344ZM62.2656 46.9336L61.9639 48.4932L63.7324 49.1641L66.6387 49.8672H66.627L69.5449 50.5469H69.5918L69.627 50.5703L72.5098 51.4141L72.5801 51.4375L72.6621 51.4609L75.2754 52.5391L78.1348 53.1836L78.2285 53.207L81.1113 54.0391L81.123 54.0508L83.9941 54.918L85.6455 55.4082H85.6465L86.2441 53.5801L85.3418 52.9004L82.752 52.1973L82.6816 52.1855L82.6113 52.1504L79.7988 51.084H79.7871L77.0215 50.1699H76.998L76.9863 50.1582L74.1973 49.1738L71.373 48.4355V48.4238L68.4902 47.8262L68.4316 47.8145L68.3613 47.791L65.4902 46.9004V46.8887L62.668 46.0205L62.2656 46.9336ZM75.3203 8.30859L75.0977 9.22266L76.8086 10.1836L76.9844 10.2773L77.125 10.418L79.2578 12.5039L79.3984 12.6328L79.5039 12.8086L81.0273 15.375L81.2383 15.7383V16.1602L81.2148 19.125L81.1914 19.3125L80.793 22.2656L80.7812 22.3594L80.7578 22.4531L79.9844 25.3594L79.9492 25.5L79.8789 25.6406L78.5664 28.2891L77.5703 31.0078L77.5117 31.1836L77.4062 31.3242L75.7422 33.7852L75.6602 33.9141L75.5547 34.0195L73.4453 36.0938L73.3164 36.2109L73.1758 36.293L70.6797 37.8516L70.5977 37.8984L70.5156 37.9336L67.8086 39.1992L67.6797 39.2578L67.5391 39.293L65.1953 39.8672L64.1758 41.4492L63.7168 43.2119L66.3926 44.0293L69.1934 44.9082L72.0645 45.5176H72.0996L72.1348 45.5293L75.041 46.3027L75.0996 46.3145L75.1465 46.3379L77.9473 47.3223H77.959L80.8066 48.2598L80.877 48.2832L83.5957 49.3145L86.4316 50.0879L86.7129 50.1699L86.9473 50.3457L87.1748 50.5186L87.9531 49.3008L88.5156 47.3086L87.4141 45.6445L85.3984 43.125L85.3164 42.9258L84.2148 40.1484L84.1797 40.0664L84.1562 39.9961L83.3594 37.1016L83.2773 36.8086L83.3125 36.5156L83.7109 33.5391V33.5039L83.7227 33.457L84.25 30.5742L84.7539 27.5859L84.7773 27.4336L84.8359 27.293L85.9141 24.4922L85.9609 24.3633L86.0312 24.2461L87.6133 21.6797L87.6367 21.6562L87.6484 21.6211L89.3594 19.1367L89.582 18.8086L89.9453 18.6328L92.6758 17.3203L92.793 17.2617L92.9102 17.2266L95.8281 16.3828L96.1797 16.2891L96.5312 16.3594L98.6055 16.7578L99.1328 15.9727L98.3242 15.082L95.8867 14.0273L95.793 13.9805L93.332 12.6914L90.3438 12.1641L90.1562 12.0703L87.4961 10.8047L84.8242 9.94922V9.96094L81.9648 9.17578V9.1875L79.0938 8.49609L76.5508 7.94531L75.3203 8.30859Z" fill="black"/>
</svg>
