<svg xmlns="http://www.w3.org/2000/svg" width="120" height="120" fill="none" viewBox="0 0 120 120"><path fill="#000" d="m49.404 1.637 2.578.55.27.06.223.14L54.69 3.78l.082.059.081.07 1.981 1.676.117.094.094.117 1.652 2.086.211.258.07.34.598 2.578.024.07v.07l.12.9 1.788.749.105.046.094.06 1.934 1.171 2.156.082h.105l.106.023.105.012-.27 1.477-.007.039.016.022.129.188 1.066.668-1.278 2.05-.292.47-.528.163-.644.201.556.864.68 1.031-.902.867-1.254 1.195.14 1.946.024.469-.234.398-.973 1.652-.437.742.816 1.17.011.011 1.489 2.192.117.164.07.199.844 2.531.082.234v2.965l-.082 1.688 1.031.539 2.332.258h.035l.035.012 1.761.267.661-1.59.985-2.426.047-.117.07-.117 1.406-2.238.07-.117.094-.106 1.793-1.934.024-.023 1.816-1.887.047-.047.059-.046 2.015-1.735.211-.164.258-.094 2.496-.914.129-.047.152-.023 1.768-.282.328-.967.117-.375.305-.27 1.746-1.546.773.878.282.153.147.085 1.09-.74.06.082.117.175.058.2.692 2.12 1.125 1.337 2.074.41 1.055.21.14 1.055.281 2.004.084.609 1.217 1.467 1.84 1.898 1.887 1.71.058.048.059.058 1.758 1.97.058.07.036.058 1.558 2.156.082.117.059.141 1.043 2.32.258.563-.223.586-.961 2.508-.152.422-.375.257-2.168 1.559-.844.598-.867-.575L97.304 49l-1.066-.281-1.125 1.3-.164.176-.21.117-2.333 1.383-.469.27-.539-.094-1.613-.27.363 1.803.809 2.508.024.035.011.047.34 1.303.795.17 2.52.54 2.226.387 1.594.27-.387 1.57-.07.245-1.442-.351-.199 1.219-2.226-.375-.036-.012h-.023l-1.986-.432.148.67.047.234-.012.234-.234 2.484.445 2.426.047.258-.047.258-.469 2.625-.292 2.555-.024.21-.094.211-1.02 2.309-.172.623.91.466 2.437.996h-.012l2.332.914 2.414.492.539.106.34.421 1.652 2.051.223.282.07.34.563 2.601.035.152v2.625l.574 2.473.035.164v.176l-.023 2.648v.14l-.27 2.661-.047.434-.257.34-1.629 2.085-1.559 2.133-.07.094-1.735 1.992-.785.902-1.066-.562-1.653-.891-.574-.304-.164-.621-.715-2.578-.023-.106-.012-.106-.27-2.12-.105-.844.656-.516 1.606-1.289.434-1.969.222-2.168-.738-2.215V87l-.012-.023-.562-1.852-1.383-.703-2.356-.305-.058-.011-.047-.012-2.426-.492-2.508.046h-.117l-.129-.023-.493-.073-.29.839-.059.187-.117.164-1.43 2.098-1.042 2.285-.024.047-.023.035-1.243 2.32-1.03 2.297v.012l-.013.012-1.125 2.308-.843 2.414-.012.012v.012l-.926 2.461-.492 1.652 1.137 1.231 1.922 1.839.047.047.046.059 1.746 2.004.305.34.059.468.049.419 1.949.243 2.484.071 2.614-.188h.105l2.625.012h.105l2.602.211 2.543-.106h.152l2.637.164.95.059.35.891.973 2.425.759 1.708 1.615-.292.257-.046.258.035 2.531.422 2.321-.059 2.601-.398.293-.047.281.07 1.043.258-.703 2.906-.761-.187-2.344.363-.094.023h-.094l-2.636.071h-.141l-2.531-.422-2.379.433-.234.047-.235-.035-2.566-.34h-2.403l-2.636.223-.106.012-.094-.012-2.648-.152v-.012l-2.473-.117-2.496.386-.199.036-.187-.024-2.543-.293-2.555.024-.012-.012-2.508.246-.164.012-.164-.024-2.531-.316-2.531.047h-.059l-2.637-.059h-.047l-2.472-.141-2.461.469-.234.047-.246-.035-2.508-.363-2.485.14h-.222l-2.426-.246-2.45.434-.257.047-.27-.047-2.496-.434-2.426.153h-.023l-.023.011-5.274.164h-.117l-.117-.011-2.543-.305-2.461.164-.082.012-.094-.012-2.45-.141-2.507.422-.21.035-.212-.023-2.555-.316-2.484-.071-2.59.188-.058.011h-.059l-2.637-.011h-.117l-2.578-.211-2.45.094.012.011-2.636.258-.153.012-.152-.012-2.496-.269-2.46.105H8v-3h.035l2.543-.105.106-.012.117.012 2.484.269 2.485-.246h.093l2.637-.106.094-.011.082.011 2.637.2-.012.011h.321l.224-1.509.023-.153.047-.14.797-2.215.281-.774.82-.175.054-.013-.378-1.068h-.011l-.868-2.497-.058-.164-.012-.175-.27-2.696.047-.234.575-2.59.035-.176.082-.164 1.09-2.203.492-2.414.012-.058.011-.047.633-2.309-.27-2.344-.082-.691.481-.504 1.57-1.676.164-.176.2-.105 2.12-1.207 1.56-1.488.679-1.887.094-2.074-.973-2.086-.047-.094-.035-.106-.75-2.496v-.023l-.727-2.566-.105-.352.082-.363.539-2.614.012-.082.035-.082.342-1.02h-.528l-1.992.376-1.23 1.371-.809 2.086-.656 2.355-.235 2.356v2.824l-.316 2.625-.012.117-.023.106-.691 2.425-.247 2.543-.023.305-.14.258-1.266 2.355-.047.082-.059.07-1.558 2.192-.211.293-.328.176-1.957.973-2.649 1.335.492-2.917.446-2.614.222-2.39.035-2.649.012-.152.035-.153.528-2.355-.328-2.379-.024-.21.024-.2.351-2.46.024-2.626v-.187l.046-.176.61-2.403.023-2.507v-.293l.117-.27 1.032-2.473.082-.175.117-.153 1.629-2.109.199-.258.281-.152 2.332-1.254.387-.2.434.024 2.636.2h.059l2.613.304.164.012.164.058 2.473.88.082.023.018.01 1.257-1.381.118-.141.152-.094 2.156-1.476.094-.059.094-.047 2.332-1.148.082-.035.093-.036 2.52-.855.2-.07.222-.012 2.578-.082 1.37-.243.001-.002.984-1.922.13-.254-.043-1.642-.012-.222.058-.2.668-2.566.035-.14.059-.118.317-.681.025-.143.363-2.226-.375-1.454-1.734-1.16-.035-.035-.036-.023-2.097-1.606-.082-.058-.07-.059-1.876-1.875-.023-.012-.012-.011-1.793-1.899-.597-.621.246-.832.703-2.414.117-.375.281-.27 1.875-1.851 1.77-1.746 1.23-2.086.153-.258.246-.176 2.12-1.605.013-.012.023-.012 2.18-1.558.044-.031-.54-.113.433-1.547.656-2.379.024-2.367-.07-2.637v-.375l1.535-3.07.386-.223.15-.087-.275-.235-1.968-.633-2.121.024-1.828.726-1.067 1.477-.187 2.004.27 2.027 1.37 1.617.434.493-.094.75-1.488-.176-.094-.012-1.031.89-1.664-1.945-.293-.34-.059-.445-.34-2.601-.023-.164.012-.176.246-2.59.035-.41.246-.328 1.559-2.18.257-.363.41-.153 2.485-.984.258-.105h.27l2.612-.036.247-.011.234.082 2.508.808.293.082.222.2 1.546 1.306.494.003-.518-2.214-1.371-1.734-1.735-1.465-1.933-1.23-2.04-.434L47.015 5l-1.992.926-1.489 1.265-.363 2.133-.023.117-.622 2.403-.199.75-.726.281-.07.023-.528-1.394-.024-.07-1.359-.34.621-2.403.434-2.53.094-.54.41-.351 2.039-1.747.152-.128.188-.094L45.9 2.21l.165-.07.199-.036 2.554-.48.293-.047zM25.244 112.31l-.469 1.3-.122.847 1.722-.122.07-.012.082.012 2.637.07h.07l.059.012 2.438.281 2.425-.398.164-.024.164.012 2.532.141 2.566-.176.14-.012.141.024 2.508.304 2.543-.082 2.59-.07v-.012l2.648-.164.176-.012.176.036 2.379.422 2.379-.422.199-.036.2.012 2.472.246 2.59-.14.14-.012.153.023 2.402.352 2.39-.445.176-.036.176.012 2.637.129-.012.012 2.578.047 2.614-.047h.105l.106.012 2.496.316 2.46-.234h.13l2.636-.024h.094l.082.012 2.46.281 2.427-.375.152-.023.152.011 2.637.129h.012l2.52.153 2.554-.21.059-.012h.047l2.648-.012h.026l-.126-.279-.011-.035-.012-.024-.645-1.617-1.629-.094-2.554.106h-.082l-.094-.012-2.672-.199v-.012h-2.402l-2.637.188h-.14l-2.649-.082h-.059l-.07-.012-2.45-.281-2.413.398-.164.024-.164-.012-2.555-.141-2.555.164-.14.012-.141-.012-2.52-.316-2.53.082-2.614.07.012.012-2.637.164-.176.012-.176-.035-2.39-.434-2.38.422-.198.035-.2-.012-2.484-.246-2.566.141h-.153l-.14-.012-2.414-.363-2.391.457-.176.035-.176-.012-2.636-.14v-.012l-2.578-.047-2.602.047h-.105l-.106-.012-2.508-.316-2.472.234h-.118l-2.625.024h-.082l-.093-.012-2.426-.27zm29.358-27.186-1.36 2.25-.058.106-.082.093-1.7 2.004-.07.094-.082.07-1.36 1.172.141.89 1.067 2.028 1.547 1.992.082.106.07.129 1.137 2.18 1.605 1.991.234.293.082.364.434 2.261 1.547 1.606.152.152.094.176 1.172 2.203.48.903-.668.785-.116.133 2.153.392 2.485-.164h.047l5.273-.164h.117l.118.012.226.028-.328-.971-.023-.07-.621-2.133-1.641-1.371-.844-.715.434-1.019 1.031-2.473.867-2.355.516-2.438.492-2.566.012-.059.023-.059.691-2.496.036-.14.058-.117 1.137-2.356.012-.035.023-.047 1.3-2.309.06-.117.093-.105 1.418-1.746.015-.103-.174.026.03.054-1.359.703-1.7.868-.316.164h-.34l-2.519.035.012.011-2.567.305-.304.035-.293-.082-2.543-.75-.094-.023-2.39-.867.02-.06-1.23-.119-.175-.012-.165-.058-2.098-.721zM40.38 90.123l-.047.035-.047.024-2.379 1.183-.14.07-.165.036-2.566.656-.012-.012-1.734.516-.574 1.816-.012.059-.023.058-.961 2.333-.551 2.449-.07.21-.938 2.333-.305 1.816 1.008 1.395 1.805 1.898.293.305.094.398.316 1.407 1.117-.102.164-.012.164.024 2.52.316 2.543-.047h.059l2.636.059h.047l2.473.14 2.46-.457.247-.047.246.036 1.934.281.564-1.651-.645-1.652-1.195-2.262-1.3-1.98-1.723-2.016-.012-.011-.012-.024-1.664-2.05v-.012l-1.547-1.852-2.004-1.266-1.03-.667.433-1.137.867-2.25.058-.176.106-.152.372-.533zM77.32 82.4l-.02.012-.28 1.968-.058.41-.27.328-1.605 1.934-1.219 2.215-1.055 2.144-.632 2.367-.48 2.473v.023l-.54 2.602-.023.105-.047.118-.926 2.472-.023.047-.61 1.453 1.16.973.352.293.129.445.703 2.496h.012l.726 2.15 1.532-.106h.175l2.508.141.394-.067-1.337-1.544h-.012l-1.816-1.747-.07-.07-1.77-1.91-.575-.621.247-.82.75-2.579.023-.046.012-.059.937-2.46.868-2.462.035-.07.023-.082 1.148-2.38 1.067-2.343.012-.059.035-.035 1.195-2.238 1.113-2.402.047-.117.07-.106 1.383-2.039.103-.302-1.956-.968-.047-.023-.302-.165zM44.76 61.26l-.094.013-.105.011-2.45.082-2.18.739-2.156 1.066-1.922 1.289-1.523 1.676-.902 2.18-.762 2.273-.457 2.168.621 2.191.727 2.39 1.09 2.321.152.34-.012.363-.117 2.672-.012.235-.082.222-.89 2.438-.118.316-.246.246-1.91 1.828-.14.141-.165.094-2.132 1.183-.938 1.008.235 1.969.035.293-.082.293-.715 2.566-.504 2.485-.035.199-.094.176-1.09 2.179-.48 2.227.187 2.004.82 2.332.537 1.515 2.542.281.939-.009-.111-.487-1.559-1.629-.07-.071-.059-.082-1.465-2.027-.375-.504.106-.621.445-2.613.024-.153.058-.14.926-2.344.574-2.484.035-.118.047-.117.95-2.332.82-2.555.234-.761.762-.223 2.566-.762.035-.011.024-.012 2.437-.621 2.121-1.055 2.215-1.3 1.91-1.383 1.512-1.852 1.196-2.156.046-.082.059-.07 1.453-2.016.081-.18.007-.058.017.004.95-2.087.082-.105.058-.082 1.23.856.446.304.867.399-.647 1.422.7.168 2.484.27 2.637.281.164.024.164.046 2.309.797 1.165.114-.109-2.16-.75-2.32-.011-.035-.012-.023-.738-2.543-.024-.106-.023-.117-.34-2.625-.035-.211v-.059l-.2-.046-.046-.012-.035-.012-2.52-.715-.258-.07-.222-.164-2.075-1.535-2.203-1.313-.328-.187-.187-.317-1.395-2.297h-.011l-1.477-1.957-.094-.14-.07-.153-.342-.756zm3.496 21.129-1.219 2.226-.07.117-.082.094-1.443 1.775-.333 2.426-.047.364-.199.293-1.418 2.015-.363.95 1.184.75.199.128.152.176 1.7 2.05.023.013 1.629 2.027 1.722 2.004.059.07.059.082 1.453 2.215.035.047.023.07 1.266 2.344.047.082.023.082.89 2.297.2.516-.176.527-.152.398h.2l1.898-.047.597-.691-.597-1.137-1.7-1.757-.304-.317-.082-.433-.47-2.333-1.44-1.769-.094-.117-.07-.14-1.16-2.227-1.536-1.98-.082-.106-.059-.117L47.267 93l-.118-.223-.035-.246-.304-1.969-.13-.82.622-.539 1.875-1.64 1.535-1.817 1.312-2.168.645-1.076-2.098-.233-.093-.012-.082-.024-1.735-.399zM70.22 55.926l.011.105v.106l-.035 2.543.164 2.625v.117l-.011.129-.258 2.578-.012.094-.023.105-.598 2.59-.082.328-.223.27-1.605 1.992-.202.246-.023.33.164 2.555v.187l-.164 2.637-.023.164-.34 1.922 1.055 1.277 1.945.867.094.047 1.793.961 1.933-.281 1.857-.585-1.242-1.917-.058-.082-.047-.094-.14-.316 2.718-1.266.07.176 1.208 1.852 1.933 1.054 2.133 1.055 2.285.34 2.508-.035h.164l.152.023 2.614.527h-.012l2.52.329.245.035.235.117 2.191 1.113.575.293.175.61.739 2.413.855 2.544.105.304-.035.34-.293 2.648-.011.083-.024.07-.539 2.508-.117.515-.422.34-1.36 1.067.153 1.207.492 1.816.047.023.879-1.008 1.57-2.109.012-.012h.012l1.36-1.792.222-2.133.011-2.426-.55-2.45-.035-.152v-.175l-.012-2.497-.457-2.109-1.102-1.348-2.015-.398-.13-.024-.128-.058-2.45-.961h-.011v-.012l-2.438-.996-.058-.023-.047-.024-2.367-1.207-.27-.14-.187-.223-1.723-2.027-.094-.106-.07-.129-1.23-2.191 1.078-.621.152-.176.926-1.184.082.059.234.188.153.269 1.124 2.027.109.128.772-1.779.282-2.426.011-.047V69.2l.41-2.367-.421-2.367-.036-.211.024-.2.21-2.425-.387-1.782-.071-.014-.106-.047-2.32-.89-2.496-.446-.094-.023-.082-.024-2.39-.726-2.485-.188-.21-.023-.2-.07-2.496-.938v-.012l-2.332-.644-2.543-.434h-.059l-.047-.023-.82-.203zM22.789 66.17l-1.312 1.71-.832 1.993-.012 2.402v.176l-.047.188-.61 2.39-.035 2.473v.094l-.011.093-.328 2.426.34 2.461.035.27-.059.27-.574 2.46-.024 2.473v.117l-.14 1.394.14-.199 1.125-2.074.246-2.355.012-.118.035-.129.657-2.425.293-2.438v-2.636l.011-.082.258-2.637.023-.117.024-.13.703-2.53.047-.141.937-2.414.106-.258.176-.2 1.758-1.968.351-.387.504-.093 2.59-.481-.14-.047-2.415-.27v-.011l-2.144-.152zm38.35-8.105-.094.07-.105.06-2.286 1.312-.164.094-.187.046-1.258.344.98.45.235.105.187.176 1.91 1.851.153.164.117.2 1.008 1.851.258.469-.106.527-.504 2.625-.34 2.32.305 2.32.703 2.38.82 2.507.07.188.012.2.13 2.66v.175l-.055.752.054.02 2.157.62 2.261-.269h.153l.815-.016-2.204-.98-.223-.27-1.734-2.085-.445-.528.129-.691.433-2.508.153-2.484-.141-2.543-.012-.094.012-.106.176-2.624v-.036l.21-2.402-.597-2.203-1.02-2.285-.058-.117-.035-.13-.586-2.308-.376-.54zm-11.692 2.27 1.488 1.969.047.058.036.07 1.195 1.958 1.98 1.183.059.035.058.047 1.887 1.395 2.156.61.375-1.923-.644-1.172-1.547-1.5-2.191-1.007-.106-.047-.082-.059-2.098-1.348-.262-.112-.269.01-.005-.127-1.796-.767-.105-.047-.105-.058-.621-.398zm14.407-5.671 1.197 1.708.164.234.058.258.633 2.485 1.02 2.261.047.117.023.118.218.81.136-1.316-.153-2.473v-.105l.024-2.555-.248-1.959-1.143-.379-1.796-.375zM50.4 52.101l-.597 2.261.06 1.806 1.178.734 1.305.566.285-.011h.023l2.496-.059 2.192-.609 1.968-1.125 1.536-1.219.221-1.416-.276-.039-.14-.023-.153-.047-2.344-.867-1.622-.322-1.567 1.579-1.16 1.16-1.055-1.242-1.559-1.852-.333-.247zm20.983-3.01-.012.036-.023.047-.832 2.355-.073.603 1.176.296 2.543.445.07.012.082.012 2.543.714.059.012.07.024 2.274.855 2.46.21.165.013.164.047 2.472.738 2.485.457.14.023.13.047.653.248-.64-1.956-.047-.164-.492-2.437-.533-1.03-1.27-.03h-.129l-.129-.023-2.578-.516v.012l-2.601-.504-.106-.024-.117-.035-2.379-.844-2.46-.386-.094-.012-.082-.023-2.467-.68zm-7.031-.057v.106l-.09 1.35 2.26.461.093.012.082.035.831.275.034-.283.024-.164.047-.152.89-2.508.042-.145-.307.08-.223.058-.246-.023-2.637-.153-.14-.023-.666-.104zM44.93 35.526l-1.617 1.582-.364 1.196 1.172 1.23 1.793 1.781 1.969 1.512h.011l2.204 1.488.468.317.141.55.621 2.32.064.289 1.721 1.276.14.106.118.129.61.738.62-.621 1.102-1.582-.047-.293-1.394.047-2.016.07.27-1.02-.739-1.663-1.172-2.11-1.558-1.933-1.441-1.676-.997-1.149 1.16-.972.637-.545-.01-.015-1.324-1.64-1.006-.528zm6.972-6.89-1.77 1.254.013.011-1.899 1.43-.375.646.854.453.27.14.187.235 1.617 1.957v.002l1.072-.697 1.219-1.37 1.125-1.278 1.125 1.289.035.035-1.125.984 1.09.962-1.348 1.523-.129.152-.175.106-1.261.81.235.364-1.343.404-.456.39.457.54.035.035 1.676 2.086.07.093.07.118 1.267 2.285.023.058.035.059.375.867 1.98-.059 1.278-.046.246 1.265.41 2.168.117.621-.363.516-.022.031.293.06.118.012.105.046 2.252.822.067-.97-.012-2.648v-.164l.035-.152.54-2.602.28-1.865-.013-.007.046-.949.106-2.566v-2.438l-.715-2.097-1.371-2.004v-.012l-.999-1.423-.187.053-.374-.082-2.52-.55-.117-.036-.117-.047-2.157-.879zm36.454 17.607v.035l.011.047.153 2.17.289-.035.21-.035.223.047 2.11.351 1.64-.972.485-.541-1.11-.603-2.168-.785-1.91-.194zM81.279 30.98l-1.71 1.465-1.805 1.852.011.012-1.687 1.804-1.266 2.04-.937 2.32v.011h-.012l-1.008 2.391-.574 1.465.55.457 2.075.586 2.602.41.14.023.13.047 2.401.844 2.485.48 2.426.481.348.009-.08-1.14v-.013l-.247-1.922-1.371-1.699-.129-.164-.082-.199-.984-2.355-.106-.247-.011-.27-.106-2.589v-1.875l-1.137-1.242-.925-1.02.937-1.007 1.275-1.393zm18.336 12.677-1.347 1.407-.153.808-.045.235.254.068.235.058 1.582 1.055.961-.691.586-1.5-.739-1.63-.421-.59zm-3.81 1.85.316.082.427.113.009-.111v-.024l-.711-.132zm-30.938-1.5v.047l-.011.047-.166.78.638.102 2.414.153 1.12-.293.242-.609.184-.462-1.06-.16V43.6l-2.554-.258-.281-.035-.258-.141-.131-.07zm25.02-9.07-.024.011-.035.024-2.226 1.43-.352.222-.41.012-1.507.048-.001.337.094 2.226.785 1.934 1.036 1.286.96.256 2.496.234.188.023.175.06 2.485.913.105.035.094.059 1.507.817.151-.808.094-.434.305-.316 1.757-1.828.047-.06.059-.046.99-.846-.71-.797-1.958-1.78-.047-.036-.035-.035-1.828-1.898-.035-.047-.035-.035-1.418-1.688-1.172-.375zm-3.02-5.405-.07.2-.117.175-1.383 2.004-.07.094-.07.082-.821.867.621.68.059.063 1.32-.05 1.875-1.207 2.058-1.458-.511-.101-.34-.41-1.64-1.957-.188-.223-.082-.281-.073-.22zM56.65 25.257l-.047.047-.892.827 1.242.513 1.527.32v-.337l-.246-.1-.422-.176-.257-.387-.642-.973zm3.342-4.777-.902.738-.188 1.36.88 1.335.65.269-.082-1.185-.047-.703.504-.48.855-.844-.428-.668zm-5.082-4.914-.808 1.606.07 2.25v.047l-.047 2.648v.2l-.047.175-.281.996.286.063.47-.439 1.37-1.394v.012l.083-.082.008.007.193-1.41.07-.586.457-.375 1.7-1.394.328-.258.41-.059 2.508-.375.82-.26-.078-.047-2.227-1.348-2.015-.844h-.884l-.087.051-.036-.05h-.763z"/></svg>