<svg width="120" height="120" viewBox="0 0 120 120" fill="none" xmlns="http://www.w3.org/2000/svg">
<path d="M55.8789 4.51953L58.7266 5.39844L59.0781 5.50391L59.3359 5.76172L61.4922 7.90625L61.832 8.24609L61.9141 8.72656L62.3945 11.6328L61.0469 11.8555L61 11.9375L60.1562 13.1797L60.0742 13.1211L59.5469 12.7578L59.4414 12.125L59.0195 9.67578L57.4727 8.14062L55.2695 7.47266L52.8672 7.68359L50.6992 8.5625L49.1289 10.6602L47.7227 13.0977L46.4805 15.6055L45.5664 18.3477L44.6875 20.9375L44.6289 23.2695L44.9092 23.7275L45.8945 23.1602L47.7344 21.6602L48.2852 19.6094L48.1094 16.9727L48.0859 16.4922L48.332 16.082L48.3906 16L49.668 16.7852L49.7734 16.8555L51.1094 16.7734L51.3086 19.6562L51.3203 19.9141L51.25 20.1484L51.2373 20.1943L52.918 19.3086L54.2305 18.6055L55.7656 16.8125L56.4336 14.5508L56.3633 11.9141L56.3516 11.5508L56.5156 11.2344L56.5508 11.1406L57.9102 11.7852L58.0859 11.8672L59.3633 11.832L59.4336 14.7031L59.4453 14.9375L59.375 15.1602L58.5664 17.9727L58.4727 18.2773L58.2617 18.5352L57.7695 19.0977L59.4102 18.875L59.4453 18.8633H59.4805L62.4688 18.582L64.7891 18.2773L66.125 18.1016L66.4414 19.4141L66.4531 19.4844L66.3047 19.5195L68.1641 19.8008L68.3633 19.8359L68.5391 19.9062L71.0938 21.0195L71.5742 21.2305L71.8203 21.6992L73.2031 24.3359L73.2734 24.4766L74.3398 27.1367L75.6055 29.7031L77.2695 31.9883L78.583 33.6484L78.6484 33.2734V33.2383L79.2109 30.2852L79.2227 30.2266L79.2461 30.168L80.0547 27.2734L80.0781 27.1797L80.1133 27.0859L81.2969 24.3086L82.0352 21.6016L82.0586 21.5195L82.0938 21.4375L83.2305 18.6484L83.2539 18.5781L83.2891 18.5078L84.7188 15.8594L84.7773 15.7422L84.8477 15.6484L86.7109 13.2461L87.1797 12.6367L87.9531 12.6602L90.8477 12.7656L91.6211 12.7891L92.043 13.4336L93.6719 15.8945L93.8594 16.1758L93.9062 16.5156L94.3164 19.4805L94.3281 19.5508V19.6211L94.4453 22.5977V22.668L94.4336 25.6797V25.7852L94.4219 25.9023L93.9766 28.8672V28.8906L93.9648 28.9141L93.4375 31.8789L93.4258 31.9141V31.9492L92.7695 34.832L92.7812 34.8438L92.1719 37.7852L92.1484 37.9023L92.1133 38.0195L91.0938 40.7031L90.5195 43.5039L90.5312 43.5156L90.0273 46.4922L89.9922 46.6328L89.9453 46.7734L88.8789 49.5273L88.2578 52.3164L88.2109 52.457L87.2617 55.2461L86.7461 58.0703L86.7109 58.2695L86.6172 58.4453L85.3516 61.0586L84.7188 63.8008L84.707 63.8359V63.8711L83.8867 66.7539L83.875 66.7422L83.1133 69.6016L83.125 69.6133L82.4102 72.5195L81.707 75.4258L81.6953 75.4727L81.6719 75.5195L80.8516 78.1797L80.7344 79.9961L80.582 82.2578L79.8945 81.9111L79.8828 82.0625L78.8047 81.9688L75.9453 82.2031H75.8047L72.8047 82.1562H72.4766L72.1836 82.0039L69.6123 80.7754L69.9922 82.9531L71.4922 85.1797L71.6211 85.3672L71.6797 85.5898L72.5586 88.4727L72.6172 88.6719V88.8711L72.6758 91.8242L73.0156 94.7305L73.0273 94.7656V94.8125L73.2031 97.6602L73.6133 100.402L74.668 102.934L76.1211 105.383L76.2266 105.559L76.2852 105.758L76.3955 106.192L78.2461 106.156L78.3516 106.145L78.457 106.156L81.375 106.52L84.1406 106.367V106.355L87.1406 106.086L87.2812 106.074L87.4219 106.086L90.2578 106.379L93.1875 106.215L94.418 106.145L94.7227 107.34L95.3789 109.93L95.3906 110L95.4023 110.059L95.4385 110.292L95.5859 110.285L95.8086 110.344L98.5625 111.047L99.8047 111.363L99.6875 112.641L99.4863 114.676L100.273 114.711L102.793 114.277L102.91 114.266H103.027L105.664 114.242H105.816L105.969 114.266L108.406 114.746L110.809 114.5L110.891 114.488H110.973L112.016 114.5L112.004 116L111.98 117.5L110.984 117.488L108.477 117.746L108.254 117.77L108.031 117.734L105.57 117.242L103.145 117.254L100.648 117.688L100.496 117.711L100.332 117.699L97.6953 117.594H97.625L97.5547 117.582L95.1523 117.242L92.7617 117.711L92.5273 117.758L92.293 117.734L89.7383 117.406L87.207 117.418L87.1953 117.406L84.6055 117.488H84.5938L81.957 117.547H81.9336L79.3672 117.559L79.3789 117.57L76.7422 117.746L76.5547 117.758L73.9297 117.266L71.5391 117.547L71.4102 117.559H71.2812L68.7266 117.418L66.1719 117.582H66.043L65.9141 117.57L63.418 117.289L60.957 117.559H60.8867L58.25 117.711L58.0977 117.723L57.957 117.699L55.4141 117.348L52.9062 117.406H52.8477L50.2109 117.348V117.336H47.5742L44.9492 117.289L42.4531 117.512L42.418 117.523H42.3711L39.7344 117.617H39.6172L36.9805 117.512V117.5L34.3906 117.488H34.3438L34.2969 117.477L31.7188 117.301L29.1875 117.43H29.1055L26.4688 117.418V117.406L23.9609 117.43L21.3242 117.664L21.1836 117.676L21.0312 117.664L18.5 117.383L15.9219 117.395V117.383L13.3789 117.559H13.3672L13.3555 117.57L10.707 117.688L10.6133 117.699L10.5312 117.688L7.98828 117.5L8 117.277V114.5H8.21094L10.6719 114.699L13.1797 114.582V114.57L15.8164 114.395H15.9102L18.5469 114.383L18.6406 114.371L18.7227 114.383L21.2305 114.664L21.4336 114.646L21.4297 114.574L21.418 114.398L21.4531 114.223L21.9805 111.398L22.2383 109.969L23.6797 110.191L25.6846 110.511L25.8398 108.031L25.9219 106.695L27.2578 106.625L30.1992 106.461L33.1992 106.297H36.4219L36.8408 106.34L36.2383 105.594L37.8438 104.328L37.9258 104.27L38.0195 104.211L40.2578 102.898L41.2773 101.129L41.4648 98.5156L41.2422 95.7148L41.0078 92.8086L40.5742 89.8555L40.5625 89.75V89.6445L40.5391 86.6562V86.5391L40.5508 86.4102L40.9844 83.6797L40.7734 80.8789V80.7383L40.8203 77.75L40.8086 74.7617L40.7852 71.7617V71.7148L40.7969 71.6797L40.9258 68.6797L40.9375 68.5742L40.9492 68.4805L41.1758 67.2197L38.4609 67.3047H38.168L37.8867 67.1992L35.4941 66.2871L36.4492 68.7344L33.7188 68.1367L31.2109 67.5859L30.1797 67.3516L30.0508 66.2969L29.6875 63.332L29.6172 62.7812L29.9219 62.3242L31.4805 59.9688L32.8984 57.6836L33.25 55.0352L33.4141 52.1406L33.5547 49.1758L33.5664 48.9297L33.6484 48.707L34.7383 45.8945L34.7617 45.8125L34.8086 45.7305L36.0391 43.375L36.3789 40.668L36.3906 40.5742L36.4141 40.4922L37.082 37.7734V34.9375L37.0352 31.9727V31.7617L37.0938 31.5625L37.832 28.7148L37.9258 28.3633L38.1602 28.0938L40.1406 25.8555L40.4102 25.5508L40.8086 25.4219L42.1592 24.9746L41.8516 24.4766L41.6055 24.0898L41.6172 23.6445L41.6992 20.668V20.4453L42.7188 17.3867V17.375L43.6797 14.5508L43.7148 14.457L43.7617 14.375L45.0742 11.6797L45.1211 11.5859L46.6328 8.99609L46.7266 8.85547L48.543 6.44141L48.7891 6.11328L49.1758 5.94922L51.9531 4.82422L52.1641 4.74219L52.3867 4.71875L55.3047 4.46094L55.5977 4.4375L55.8789 4.51953ZM41.5625 113.355L41.5742 113.367L38.5742 113.625L38.4336 113.637L38.2812 113.625L35.4336 113.32L32.5156 113.461H32.375L29.5273 113.309L26.6094 113.637L26.4219 113.648L26.2227 113.625L24.6641 113.379L24.4668 114.436L26.4688 114.418H26.4922L29.0469 114.43L31.6953 114.312L31.7773 114.301L31.8594 114.312L34.5078 114.488L34.4961 114.5L37.0508 114.512H37.0977L39.6875 114.617L42.1836 114.535L44.832 114.289H44.9844L47.6211 114.336L47.6094 114.348H50.2695L52.8711 114.406L55.4844 114.348H55.6133L55.7305 114.359L58.2148 114.723L60.7109 114.559V114.57L63.2891 114.289L63.4414 114.277L63.6055 114.289L66.0898 114.582L68.6328 114.43L68.7148 114.418L68.7969 114.43L71.3281 114.559L73.8242 114.266L74.0586 114.23L74.2812 114.277L76.7305 114.734L79.1797 114.582L79.2266 114.57H79.2617L81.8867 114.559V114.547L84.5234 114.488L87.1602 114.418H87.1953L89.832 114.406H89.9375L90.0312 114.418L92.4219 114.734L94.8359 114.266L95.082 114.219L95.3164 114.254L96.499 114.415L96.5703 113.625L95.2578 113.297L92.5391 113.473H92.4805L89.4805 113.531H89.3164L86.4453 113.273L83.5742 113.531L83.5273 113.543H83.4688L80.4688 113.59H80.4453L77.4453 113.602V113.59L74.5156 113.73H74.3633L71.3633 113.555V113.543L68.4336 113.531H68.3867L65.4336 113.426L62.4922 113.52L62.4805 113.508L59.5508 113.742H59.4102L56.4102 113.684V113.672L53.4336 113.66H53.4102L50.4219 113.578L47.457 113.613L47.3516 113.625L47.2578 113.602L44.3281 113.227L41.5625 113.355ZM84.4102 109.344H84.3867L84.3516 109.355L81.3516 109.508L81.2227 109.52L81.0938 109.496L78.1992 109.156L75.3047 109.215H75.2461L72.2461 109.168H69.2578L66.7178 109.137L65.8711 109.246L65.7188 109.27L65.707 109.188L63.3984 109.379H63.3281L60.3281 109.484L60.2812 109.496L60.2344 109.484L57.2227 109.391V109.379H54.1875L51.2461 109.215L49.7148 109.282L49.7188 109.32L49.1406 109.308L48.3398 109.344H48.2695L45.2812 109.332L42.293 109.367L42.2812 109.355L39.3867 109.59H39.2578L39.1289 109.578L36.2461 109.297H33.3516L30.3516 109.449L28.7461 109.543L28.7002 110.385L29.2812 110.32L29.3984 110.309L29.5156 110.32L32.4453 110.461L35.375 110.32L35.4922 110.309L35.5977 110.32L38.4688 110.625L41.3164 110.379H41.375L44.375 110.238L44.5039 110.227L44.6328 110.25L47.4453 110.613L50.4219 110.578H50.4805L53.4805 110.66L53.4688 110.672L56.457 110.684H56.4688L59.3516 110.742L62.3281 110.52H62.3984L65.3984 110.426H65.5039L68.5039 110.531L68.4922 110.543L71.457 110.555H71.5273L74.457 110.73L77.375 110.602H80.4219V110.59L83.3164 110.555V110.543L86.3164 110.285L86.4453 110.273L86.5625 110.285L89.4219 110.531L92.3516 110.484L92.4248 110.479L92.1211 109.273L90.3633 109.379H90.2461L90.1289 109.367L87.3164 109.074L84.4102 109.344ZM50.9297 64.3398L50.7773 64.5039L50.5664 64.6094L47.918 65.9922L47.8242 66.0391L47.7305 66.0742L44.9297 67.0938L44.6953 67.1758H44.4375L44.2285 67.1768L43.9141 68.8906L43.7852 71.8203L43.8086 74.75L43.8203 77.7383V77.7734L43.7734 80.7852L44.0078 83.5859L44.0195 83.7617L43.9844 83.9492L43.5391 86.7383L43.5508 89.5742L43.9727 92.3867L43.9844 92.4336V92.4805L44.4766 98.457L44.4883 98.5742L44.4766 98.6914L44.2422 101.691L44.2188 102.031L44.0547 102.324L42.6602 104.738L42.4609 105.09L42.1211 105.289L39.9629 106.534L42.1641 106.367H42.2578L45.2578 106.332H45.2812L46.4375 106.336V106.332L45.5703 103.648L45.4766 103.379L45.5 103.098L45.6992 100.086L45.7109 99.9336L45.7578 99.7695L46.6016 96.8867V96.8633L47.4805 93.9922L48.2656 91.3438L48.3008 88.6484L47.7852 85.8359L47.7617 85.6953V85.5664L47.75 82.6953V82.5078L47.7852 82.332L48.5117 79.4141L48.5352 79.3203L48.5703 79.2148L49.625 76.543L50.5039 73.6719L51.2422 70.8125V70.8008L51.2539 70.7891L52.0625 67.8945L52.1211 67.707L52.2148 67.5312L52.8232 66.5225L51.6562 65.0547L51.6445 65.043L51.0254 64.2432L50.9297 64.3398ZM54.8867 68.9141L54.1367 71.5625L53.3867 74.4805V74.5039L53.375 74.5391L52.5078 77.4102L52.4961 77.4688L52.4727 77.5273L51.3828 80.2578L50.75 82.8477V85.4023L51.2891 88.2383L51.3125 88.3906V88.543L51.2656 91.5664V91.7656L51.207 91.9648L50.3633 94.8594L50.3516 94.8711L49.4727 97.707L49.4844 97.7188L48.6875 100.438L48.5 102.98L49.3438 105.605L49.3906 105.77L49.4023 105.922L49.4375 106.291L51.2109 106.215H51.3633L54.3633 106.379L54.3516 106.391H57.3281L60.2695 106.496L63.1523 106.391L64.3008 106.291L64.3125 106.176V106.117L64.6758 103.305L64.4297 100.562L63.9727 97.8906L62.6953 95.4414L62.6602 95.3711L62.6367 95.3008L61.5352 92.5117L61.4414 92.2773L61.4297 92.0195L61.3125 89.125L61.0547 86.3242L60.0117 83.7695L59.9648 83.6641L59.9414 83.5469L59.2734 80.6523L58.5938 77.7461V77.7227L58.582 77.6875L58.0195 74.8047L57.1523 72.1211L56.0859 69.3086L56.0156 69.0977L55.9922 68.875L55.9395 68.0615L55.4316 68.0059L54.8867 68.9141ZM60.9023 73.9844L60.9375 74.0664L60.9492 74.1602L61.5234 77.0664L62.1914 79.9727L62.8242 82.75L63.9258 85.4219L64.0078 85.6328L64.0312 85.8438L64.3008 88.8555L64.3125 88.8906V88.9258L64.418 91.6445L65.4141 94.1641L66.7383 96.707L66.8438 96.9062L66.8906 97.1406L67.3945 100.047V100.105L67.4062 100.164L67.6875 103.164L67.6992 103.34L67.6758 103.504L67.3271 106.145L69.293 106.168H72.3047L73.1152 106.181L72.0312 104.34L71.9727 104.246L71.9375 104.152L70.7891 101.422L70.7188 101.258L70.6836 101.07L70.2383 98.1172L70.2266 98.0586L70.2148 97.9883L70.0273 95V94.9883L69.6992 92.0938L69.6875 92.0234V91.9531L69.6172 89.1523L68.8672 86.6445L67.3203 84.3711L67.1445 84.1016L67.0859 83.7852L66.582 80.8789L66.5352 80.5625L66.6055 80.2461L66.8975 79.1113L66.875 79.0977L66.7227 79.0039L66.5938 78.875L64.4844 76.7305H64.4727V76.7188L62.3984 74.5742L62.3516 74.5273L62.3047 74.4688L60.4414 72.125L60.3711 72.043L60.3242 71.9492L60.1592 71.6699L60.9023 73.9844ZM60.7656 46.9648L60.6719 46.9883L60.5781 47L57.5898 47.3984L57.4727 47.4219L57.3555 47.4102L54.4844 47.3281L51.6836 47.832L51.6484 47.8438H51.6133L48.6836 48.2188H48.6816L48.3945 48.9609L47.668 51.832L47.0117 54.7734V54.8086L47 54.8438L46.7617 55.707L48.8438 54.2969H48.8555L51.3398 52.6211L52.8516 51.5078L55.7461 49.3516L55.2305 52.9258L55.207 52.9844L56.2031 53.207L55.6055 55.8672L55.582 55.9492L55.5586 56.0195L54.5859 58.8555L54.5742 58.8906L54.5508 58.9375L53.3906 61.7266L53.2734 61.9961L53.1699 62.0986L54.0234 63.2031H54.0117L55.4297 64.9844L55.7393 65.0195L55.7227 64.7852L56.8242 64.4219L59.6602 63.4609L60.0938 64.7852H60.1406L61.6406 64.9023L61.6289 65.0078L61.5469 65.9922L60.7969 66.2451L61.4375 67.9297L62.832 70.3086L64.6016 72.5352L66.6172 74.6211L68.6094 76.6484L70.0332 77.5273L70.2148 77.4922L70.2266 77.5859L70.2402 77.6553L70.9062 78.0664L73.168 79.1562L75.7344 79.1914L76.7461 79.1191L75.8945 78.1133L73.9492 75.8281V75.8164L71.9688 73.625L71.8398 73.4727L71.7461 73.2969L70.9844 71.8027L69.1367 70.1602L68.8789 69.9375L68.75 69.6211L67.5898 66.8789L67.5664 66.832L67.5547 66.7852L66.5586 63.9375L66.5 63.7617L66.4883 63.5742L66.2422 60.668L65.7852 57.7031H65.7734L65.1406 54.8789V54.8672L64.3555 52.0664L63.7227 49.7959L63.3672 49.6602L63.7422 48.3477L64.1406 46.8594L63.0977 46.3203L60.7656 46.9648ZM87.2734 17.418L86.0078 19.7852L84.8945 22.4922L84.1211 25.3047L84.0977 25.3984L84.0625 25.4922L82.9023 28.1875L82.1523 30.8359L82.1641 30.8477L81.6016 33.8008L81.4268 34.79L82.1562 35.8242L82.2266 35.918L81.1299 36.6865L81.1602 36.7227L81.2539 36.9102L81.3447 37.123L81.9688 37.7695L80.6006 39.0801L80.4883 39.6133V39.6367L80.4648 39.7305L80.2764 39.6875L79.4375 41.4023L78.875 44.0742L78.5352 46.875L78.5117 47.0625L78.4062 47.3438L77.4307 46.9502L76.9844 49.7773V49.8125L76.4453 52.7539L76.082 55.6602L76.0703 55.7305L76.0469 55.8008L75.3789 58.7305L74.875 61.6133V61.6367L74.8633 61.6602L74.2891 64.4727L73.9375 67.4492L73.9258 67.5195L73.9141 67.5781L73.4229 69.9482L73.8477 70.3242L73.7344 70.5752L74.3359 71.7617L76.1992 73.8477L76.2227 73.8594L76.2344 73.8828L78.1797 76.168L78.2979 76.3066L78.8125 74.6289L79.4922 71.8047V71.793L80.207 68.8984L80.2188 68.875V68.8633L80.9922 65.957V65.9453L81.0039 65.9336L81.8125 63.0508L82.4805 60.1914L82.5156 60.0273L82.5977 59.875L83.8164 57.332L84.3555 54.5547L84.3672 54.4492L84.4023 54.3438L85.3633 51.4961L85.9961 48.7188L86.0195 48.6133L86.0547 48.5078L87.0859 45.8359L87.5781 43.0117V42.9648L88.1758 40.0234L88.1992 39.9062L88.2344 39.7891L89.2422 37.1055L89.8398 34.2461V34.2227L90.4961 31.293L91.0117 28.3867L91.4336 25.6094L91.4453 22.7148L91.3281 19.7852L90.9766 17.2539L89.9688 15.7305L88.6094 15.6836L87.2734 17.418ZM67.2344 36.5625L67.1641 36.7734L66.0742 39.4453L65.4766 42.0469L65.5586 43.7461L65.5762 44.2236L66.6016 44.75L67.6914 45.3008L67.3633 46.4844L66.6377 49.0947L67.25 51.2578V51.2695L68.0469 54.1523L68.0586 54.1758L68.0703 54.2109L68.7383 57.1406L68.75 57.1992V57.2461L69.207 60.2109L69.2188 60.2695V60.3164L69.4531 63.1406L70.3555 65.707L70.9443 67.1084L70.9492 67.0859L71.3008 64.1211L71.3242 64.0039L71.9336 61.0508L72.4375 58.1445L72.4492 58.1094V58.0625L73.1289 55.1328L73.4805 52.2969L73.4922 52.2617V52.2266L74.0195 49.3086L74.4883 46.3438L74.582 44.5977L72.9531 43.2148L72.625 42.9453L72.4961 42.5469L71.6758 40.0859L69.9531 38.1289H69.9414L67.8672 36.1602L67.8086 36.1016L67.75 36.0312L67.4414 35.6621L67.2344 36.5625ZM34.0469 66.5898L35.1758 66.165L34.2285 65.7949L34.0469 66.5898ZM62.7969 21.5703H62.7383L59.75 21.8516L59.7383 21.8398L56.8438 22.25L56.7031 22.2734H56.5625L53.5508 22.1328L50.751 22.0078L50.5117 22.9023L50.3828 23.3711L50.0078 23.6875L47.6992 25.5625L47.6055 25.6328L47.5117 25.6914L44.8984 27.2148L44.7578 27.2969L44.6055 27.3438L42.1211 28.1406L40.6445 29.8164L40.0352 32.125L40.082 34.9023V38.125L40.0352 38.3008L39.332 41.207L38.9922 44.0078L38.957 44.2773L38.8281 44.5234L37.5273 46.9609L37.5391 46.9727L36.5312 49.5625L36.4141 52.293V52.3164L36.2383 55.3164L36.2266 55.3633V55.4219L35.8398 58.4102L35.793 58.7383L35.6172 59.0195L34.0234 61.5625L34.0117 61.5859L34 61.5977L32.7227 63.5078L32.8984 64.8789L34.1807 65.166L34.3594 64.4453L35.0273 61.668L35.2617 60.6719L35.6963 60.6162L35.6523 60.5078L35.3945 59.8867L35.6875 59.2891L36.9297 56.7227L36.9648 56.6406L37.0234 56.5703L38.6055 54.0859L39.7656 51.6602L40.3398 48.9766L40.75 46.0586L40.7969 45.7422L40.9609 45.4727L42.4023 43.0938L43.0469 40.5742L43.1523 37.8086L43.1006 35.9287L42.7109 35.418L42.3945 34.9961L42.4062 34.4688L42.4766 31.75L42.5117 30.3203L43.9297 30.2852H44.0586L44.0908 31.6846L45.0039 31.7852L45.2764 31.8145L45.4766 31.8203L45.4756 31.8369L46.4922 31.9492L46.4805 32.043V32.0781L46.4688 32.1016L46.1172 34.5381L47.4219 33.8359L47.5508 33.7656L47.6797 33.7305L50.4453 32.8281L50.9375 32.6758L51.418 32.8516L51.5117 32.8867L50.9961 34.293L50.9492 34.4102L51.3711 35.6875L48.7461 36.5195L46.2031 37.9141L46.1475 37.9434L46.0469 40.832L46.0352 40.9844L46 41.1367L45.2617 44.0664L45.2148 44.2891L45.0859 44.4883L43.6797 46.7617L43.3281 49.3867L43.3164 49.4336L43.3047 49.4922L42.6719 52.4336L42.6367 52.6094L42.5664 52.7617L41.2656 55.4805L41.2305 55.5742L41.1719 55.6562L39.5664 58.1289L38.6758 59.9805L38.7666 60.1982L39.0703 60.1562L41.5664 59.207L42.7207 58.4697L43.332 56.8711L44.082 54.1172L44.75 51.1875V51.1523L45.3477 48.7881L45.0508 48.8398L44.6172 47.668L44.5938 47.6094L45.8887 47.123L45.9727 46.9004L45.7773 45.6758L46.4814 45.5557L46.5547 45.3633V45.375L46.5664 45.3516L46.7422 45.4219L46.9375 45.4785L48.1914 45.2656H48.2266L48.25 45.2539L51.2266 44.8672L54.1211 44.3516L54.2734 44.3281H54.4258L57.2969 44.4219L60.1211 44.0352L62.5361 43.3633L62.4766 41.9648L62.4648 41.7656L62.5117 41.5664L63.1797 38.6719L63.2148 38.5547L63.25 38.4492L64.3281 35.7656L64.9375 33.1406L64.7422 30.9854L63.7773 31.8555L63.6602 31.9609L63.5312 32.043L60.9766 33.5312L60.7773 33.6484L60.5547 33.6953L57.625 34.3516L57.2852 34.4336L56.957 34.3516L54.5898 33.7891L52.5859 33.3203L53.6523 31.5508L53.7109 31.4453L54.9766 32.207L55.2812 30.8711L57.3086 31.3516L59.6406 30.8125L61.9023 29.5117L63.7871 27.8037L63.7891 27.7852V27.6797L63.915 27.6885L64.1289 27.4961L64.4219 27.4023L64.5156 27.3672L64.6416 27.7393L65.2891 27.7852L65.5352 27.7969L66.707 27.3984L67.6328 30.1289L67.6914 30.3047L67.7148 30.4805L67.8613 32.1572L68.207 31.9062L69.9648 34.0156L72.1094 36.043L72.2148 36.1484L74.1367 38.3398L74.3359 38.5625L74.4297 38.8555L75.2031 41.1875L76.2422 42.0664L76.5547 40.6055L76.5898 40.4297L76.6719 40.2656L77.752 38.0459L77.8691 37.4854L76.8008 36.2305L76.7891 36.207L76.7656 36.1953L74.9141 33.8516L74.8906 33.8281L74.8789 33.8047L73.1094 31.3789L73.0273 31.2734L72.9688 31.1562L71.6445 28.4727L71.6211 28.4141L71.5977 28.3672L70.543 25.7305L69.3945 23.5508L67.5078 22.7305L64.8477 22.332L64.4023 22.2734L64.0742 21.9688L63.9922 21.8984L64.4932 21.3438L62.7969 21.5703ZM50.5195 56.793L48.0586 58.4336L48.0703 58.4453L45.6328 60.168L45.6094 60.1914L45.5859 60.2031L43.0664 61.8203L42.9375 61.9141L42.7852 61.9727L39.9727 63.0273L39.8203 63.0859L39.6445 63.1094L37.6992 63.3672L37.582 63.8711L38.6719 64.293L41.3672 64.2109H41.4023L44.1562 64.1758L46.5352 63.3203L48.9609 62.0547L50.7422 60.2734L51.75 57.8711L52.5938 55.3867L50.5195 56.793ZM85.918 41.0508L86.3867 41.625L86.2344 42.3398L85.6133 45.1172L85.5664 45.3398L85.4492 45.5391L83.9609 48.1523L83.6094 48.75L82.9414 48.8789L80.3164 49.3711L78.9453 49.6406L78.582 48.293L78.5469 48.1758L80 47.7891L80.0117 47.7773L79.7539 46.4297L81.6992 46.0547L82.7305 44.25L83.1406 42.3984L81.8516 40.8398L81.2891 40.1602L81.6055 39.3516L81.6406 39.2578L83.0352 39.7852L83.082 39.7969L84.1602 38.918L85.918 41.0508ZM64.9883 19.8359L65.0967 20.6582L65.2305 19.7773L64.9883 19.8359Z" fill="black"/>
</svg>
