<svg xmlns="http://www.w3.org/2000/svg" width="120" height="120" fill="none" viewBox="0 0 120 120"><path fill="#000" d="M23.176 14H26v.21l-.2 2.462.118 2.508h.012l.175 2.636v.18l.665.125.41.07.316.282 1.992 1.793.399.351.082.527.234 1.442.293.035v3.574l-.803-.312.02 1.133v.078l-.006.078-.23 2.598-.095 2.544.087 2.146 1.967.1.909.046.379.828.89 1.941.198.434-.088.468-.463 2.455.163 2.449.003.042v.04l.03 2.64-.002.001.059 2.623-.001.001.074 2.63v.035l.012 2.641v.1l-.013.098-.31 2.404.46 2.402.046.24-.033.242-.347 2.568-.101 2.419.387 2.304 1.646.08 1.07-.082-.005-.109h.16l-.015-1.403v-.001l-.058-2.623.001-.001-.074-2.63v-.035l-.012-2.641v-.1l.013-.098.324-2.514-.117-2.65-.079-1.793 1.778.24 2.567.346 2.419.101 2.485-.417.118-.02.12-.001 1.511-.011.197-.701-.24-2.356-.18-1.761 1.768.112 2.46.156 2.493-.339.2-.026.2.026 2.55.34 1.496.015-.425-.121.047-.223v-2.45l-.165-2.542v-.012l-.011-.011-.02-.441-.043.003v.012l-1.71.175-1.653.165V42.5h1.488l-.14-1.383 1.71-.176h.047l.035-.011.213-.01.143-1.932.176.012H61v.21l-.133 1.632 2.145.158-.012.14V44h-.21l-1.888-.153.016.333h.012l.175 2.636v.094l.011 2.52.792-.134.114-.02h.116l2.64-.04.108-.003.108.015 2.486.324 2.483-.194 1.022-.08.446.923.891 1.847.137.283.012.313.072 1.945 1.117.081 2.548-.122 2.612-.174.046-.003h.046l2.64-.014 1.342-.007.156 1.333.271 2.323.003.023.002.023.075.877.103.004v1.19l.049.569.005.056v.055l.03 2.64v.026l-.017 2.607.121 2.594.004.086-.006.086-.106 1.562 1.927-.012h.026l2.64.03h.055l.056.005 2.496.215 2.491-.275.086-.01h.086l2.64.014h.047l.046.003 2.612.175 2.542.122 1.07-.082-.005-.109H104v1.499l1.461-.06.108 2.64.002.059-.002.058-.096 2.572.151 2.564.007.103-.009.102-.194 2.482.324 2.487.015.108-.002.109-.04 2.64-.001.115-.02.114-.429 2.51.026 2.409.339 2.552.026.2-.026.199-.337 2.477.202 2.479.012.137-.014.137-.247 2.417.475 2.422.03.149-.002.151-.019 2.64-.001.12-.02.118-.418 2.484.104 2.485.002.066.257-.002h.152l.153.024 2.437.48 2.403-.246.082-.012h.082l1.043.012-.012 1.5-.024 1.5-.996-.012-2.507.258-.223.024-.223-.036-2.461-.492-1.224.006-.281.723-1.227-.235-1.175-.225-1.015.177-.152.023-.164-.012-2.517-.101-2.622-.01-.017-.001h-.018l-1.543-.044-.853.168-.235.047-.234-.024-2.13-.274-.259-.005v.001l-2.64-.029h-.041l-.042-.003-.175-.012-2.4.076h-.012l-2.637.059h-.023l-.707.003-1.18.101.012-.096-.692.004.012.011-2.637.176-.187.012-.747-.141-.599.102-.118.02-.12.001-2.64.019-.151.002-.149-.03-.931-.183-2.373-.13-2.555.164h-.129l-.129-.012-1.883-.213-2.07.283-.198.026-.2-.026-.61-.081h-.066l-2.637.152-.152.012-.141-.024-2.12-.294-1.745.299-.114.02-.116.001-2.64.04-.108.002-.108-.015-2.486-.324-2.483.194-.102.009-.103-.007-2.564-.151-.652.024-.163.015-.035.011h-.047l-2.637.094h-.117l-1.393-.056-.159.41-1.227-.235-1.266-.243-1.181-.005h-.047l-.047-.011-.929-.064-1.336.173-.098.014-.1-.001-2.64-.011-.018-.001h-.018l-2.63-.074v.001l-2.624-.059v.001l-.214-.003-2.366.211-.14.012-.153-.012-2.531-.281-1.398.006-1.223.105-1.831.157.015-.14-.684.048h-.012l-.012.011-2.648.118-.094.011-.082-.011-2.543-.188.012-.223V114.5h.21l2.462.199 2.508-.117v-.012l1.237-.083.138-1.178-.13-2.512-.004-.084.005-.083.151-2.511-.284-2.511-.019-.162.018-.163.273-2.599.147-2.465-.348-2.492-.016-.119.003-.12.053-2.61-.056-2.605-.001-.012v-.012l-.016-2.624-.044-2.64v-.079l.006-.078.23-2.6.095-2.543-.105-2.583-.002-.047-.025-2.606-.176-2.587-.033-.462.235-.399.199-.342-.044-.455-.248-2.538-.007-.078v-.077l.017-2.607-.121-2.594-.004-.086.006-.086.176-2.587.025-2.606.002-.047.105-2.583-.095-2.543-.23-2.6-.007-.078.001-.078.044-2.641.016-2.624v-.024l.057-2.606-.053-2.61-.029-1.367 1.359-.155 2.31-.262.04-.004.04-.003.338-.02.003-.237.03-2.64v-.055l.005-.056.215-2.496-.275-2.491-.016-.14.01-.139.076-.997-1.05.008.234-1.723.34-2.425.081-.575.446-.363 2.015-1.7.247-.198.304-.094 2.023-.594-.156-2.406v-.012l-.011-.012-.117-2.648-.012-.094.012-.082.187-2.543zm45.781 64.059h-.07l-2.637.152-.152.012-.141-.024-2.543-.34-2.508.047h-.058l-2.637-.058-2.625-.012h-.012L52.95 77.8l-2.496.21-.035.012h-.047l-2.637.094h-.117l-2.636-.105V78l-2.59-.012h-.047l-.047-.011-2.578-.165-.213.01v.008l.118 2.002.007.103-.009.102-.136 1.723.05 1.584.216 1.662.015.108-.002.109-.04 2.64-.001.115-.02.114-.162.946.038.43.002.02.001.019.165 2.64.01.156-.023.154-.267 1.817.172 1.288.026.2-.026.2-.193 1.41.004.099.003.069-.005.07-.092 1.505.148 1.803.012.137-.014.137-.082.802.046.671.238 2.64.006.067v.562l.02.097.03.149-.002.151-.019 2.64v.12l-.021.118-.045.263-.036 1.291-.001.049-.005.051-.243 2.532.05 1.125 1.206.048 1.918-.072.136-1.68-.129-2.496-.175-2.636v-.094l-.012-2.637-.012-.094.012-.082.281-2.519-.21-2.473-.013-.047v-.058l-.023-2.649-.012-.07.012-.07.234-2.637v-.094l.024-.082.527-2.601.035-.211.106-.188 1.218-2.355.036-.082.047-.059 1.464-2.203.082-.117.106-.106 1.851-1.863.094-.094 2.004-1.699.059-.047.082-.047 2.215-1.476.164-.118.199-.058 2.531-.844.117-.035.106-.012 2.636-.433.13-.024h.14l2.66.047h.082l.094.012 2.637.375.234.023.223.118 2.332 1.16 2.379 1.101.082.035.082.047 2.261 1.395.246.152.176.235 1.582 2.132 1.594 2.11.117.164.082.199.95 2.46.972 2.485.13.34-.036.352-.246 2.53.164 2.532v.082l.035 2.625.059 2.637.07 2.637v.035l.012 2.636v.106l-.012.094-.317 2.39.319 1.641.075.004 2.325.097.46-.18.043-.366-.252-1.322.03-.239.166-1.289-.01-.201-.004-.084.005-.083.151-2.511-.284-2.511-.019-.162.018-.163.195-1.864-.03-1.466v-.016l-.03-2.613-.171-2.585-.013-.19.035-.187.107-.57.02-.913-.057-2.606-.001-.012v-.012l-.016-2.624-.044-2.64v-.079l.006-.078.23-2.6.07-1.88-.146-1.391-.004-.034-.002-.034-.156-2.64-.009-.148.019-.14-.756.086-.129.012h-.129l-2.554-.13-2.555.153h-.129l-.129-.012-2.496-.27zm-7.578 25h-.012l-.011.011-2.649.118-.094.011-.082-.011-.998-.075-.15 1.336.011 2.625.165 2.543v.012l.011.023.117 2.637.012.094-.011.094-.134 1.809 1.582.017.09.001.091.011 1.682.223 1.575-.172.059-.378-.035-2.508v-.058l.058-2.613.012-2.649v-.012l.047-2.484-.062-.691zm29.93-7.82-.832 1.64-.036 2.156.223 2.637.012.14-.012.153-.281 2.484.011 2.625.165 2.543v.012l.011.023.118 2.637.011.094-.011.094-.148 1.991 2.053.046.009.001.832.022 1.402-.271.246-.047.234.035.27.036.047-.302-.035-2.508v-.058l.058-2.613.012-2.649v-.012l.047-2.484-.234-2.637v-.082l-.094-2.578-.176-2.144-1.043-1.336-1.477-.446zM56.293 82.792l-2.191.738-2.051 1.371-1.875 1.594-1.64 1.64-1.313 1.97-1.114 2.144-.48 2.344-.223 2.554.035 2.38.223 2.648.012.14-.012.153-.281 2.484.011 2.625.165 2.543v.012l.011.012.117 2.648.012.094-.011.082-.1 1.331 2.033.036-.012.012h.926l.164-2.036-.129-2.496-.175-2.636v-.094l-.012-2.637-.012-.094.012-.082.281-2.519-.21-2.461-.013-.07v-.059l-.011-2.648v-.153l.035-.14.515-2.602.036-.152.058-.14 1.043-2.462.117-.258.2-.199 1.863-1.91.105-.106.13-.093 2.179-1.465.187-.129.211-.07 2.508-.762.13-.035.151-.012 2.602-.281.164-.012.164.012 2.649.305.28.035.247.129 2.379 1.253.164.094.14.13 1.981 1.792.152.14.106.177 1.406 2.261.094.14.047.153.89 2.52.106.281-.012.316-.176 2.567.153 2.472.27 2.637.023.164-.024.164-.293 2.543.164 2.473v.176L71.445 111l.293 2.496.047.363-.129.34-.128.335 2.296-.268.235-.036.222.047.254.047-.254-1.332-.047-.234.035-.235.317-2.554v-2.496l-.07-2.637v-.012l-.059-2.636v-.024l-.035-2.637v-.011l-.164-2.543-.012-.117.012-.13.223-2.32-.833-2.156-.89-2.262-1.453-1.945-.012-.012-1.441-1.922-1.922-1.183-2.297-1.055-2.203-1.102-2.309-.328-2.45-.035zm-34.914-4.734h-.012l-.012.011-2.648.118-.094.011-.082-.011-1.029-.077.009.884.107 2.623.002.06-.002.058-.098 2.64-.002.038-.003.038-.226 2.559.041 2.564v.008l.001.008.016 2.616.057 2.64.001.032v.032l-.053 2.519.351 2.523.02.148-.008.148-.156 2.64-.002.034-.004.034-.26 2.475.28 2.479.015.129-.008.13-.153 2.555.13 2.558.006.126-.015.124-.095.816 1.059-.091.113-.01.114.008 2.586.171.203.002.171-2.117-.129-2.496-.175-2.636v-.094l-.012-2.637-.012-.094.012-.082.281-2.519-.21-2.461-.013-.082v-.07l.047-2.66v-.34l.164-.317 1.196-2.355.21-.399.399-.222 2.332-1.325.563-.304.609.175 2.543.786.457.129.293.375 1.605 2.05.282.352.035.445.199 2.602v.058l.105 2.649.223 2.555.012.082v.082l-.047 2.636-.012 2.625v.024l-.058 2.636.047 2.579.011.14-.023.141-.005.023.615.041 1.044-.134.24-.031.235.045 1.165.222.265.001.203-.519-.098-2.325-.007-.157.026-.154.366-2.176.032-1.095-.001-1.851-.444-2.261-.042-.219.022-.223.161-1.582-.114-1.683-.006-.096.006-.097.055-.919-.051-.628-.014-.163.023-.16.132-.98-.076-2.29-.004-.133.02-.133.06-.407-.126-.939-.011-.09-.001-.091-.028-2.64-.002-.135.023-.133.224-1.316-.16-1.821-.01-.125.01-.125.203-2.551-.023-.716-.106-.82-.02-.155.01-.156.06-.754-.097-2.593-.004-.099.01-.098.09-.972-2.014-.009-2.508.023-2.637.223-.14.012-.153-.012-2.531-.27h-2.578zM58.332 88.78l-2.133.656-1.875 1.278-1.57 1.594-.879 2.074-.445 2.297.011 2.355.223 2.637.012.14-.012.153-.281 2.484.011 2.625.165 2.543v.012l.011.023.117 2.637.012.094-.011.094-.141 1.899 1.324.03 1.662-.038.166-2.056-.129-2.496-.175-2.636v-.094l-.012-2.637-.012-.094.012-.082.281-2.519-.21-2.461-.013-.082v-.07l.047-2.66v-.34l.164-.317 1.196-2.355.21-.399.399-.222 2.332-1.325.563-.304.609.175 2.543.786.457.129.293.375 1.605 2.05.282.352.035.445.199 2.602v.058l.106 2.649.222 2.555.012.082v.082l-.047 2.636-.012 2.625v.024l-.058 2.636.046 2.579.012.14-.023.141-.009.05 1.397.114 1.372-.14.322-.891-.258-2.274-.023-.117.011-.129.13-2.566-.153-2.543-.012-.129.012-.129.281-2.496-.258-2.461v-.07l-.164-2.637v-.188l.153-2.355-.739-2.063-1.207-1.945-1.687-1.547-1.946-1.02-2.226-.257zm42.43-10.57-.235.047-.234-.024-2.555-.316h-2.543l-2.59.07h-.011l-2.637.059h-.023l-2.567.012.012.011-2.637.176-.187.012-.188-.035-.866-.159.01.931.107 2.623.002.06-.002.058-.02.511.11 1.036.018.163-.019.162-.284 2.511.151 2.51.005.084-.005.084-.129 2.512.294 2.517.027.227-.042.224-.345 1.823-.026 1.33.35 2.523.02.148-.008.148-.156 2.64-.002.034-.004.034-.062.582.023.988h-.001l.074 2.631v.035l.012 2.641v.1l-.013.098-.14 1.079.11 2.172.007.126-.015.124-.024.2.115.599.873-.074.113-.01.114.008 2.453.162h.003l.334-.002.17-2.104-.129-2.496-.175-2.636v-.094l-.012-2.637-.012-.094.012-.082.281-2.519-.21-2.461-.013-.082v-.07l.047-2.66v-.34l.164-.317 1.196-2.355.21-.399.399-.222 2.332-1.325.563-.304.609.175 2.543.786.457.129.293.375 1.605 2.05.282.352.035.445.199 2.602v.058l.106 2.649.222 2.555.012.082v.082l-.047 2.636-.012 2.625v.024l-.058 2.636.046 2.579.012.14-.023.141-.026.146 1.68-.216.239-.031.236.045.944.18.539-.093.15-.383-.098-2.325-.007-.157.026-.154.425-2.525.017-2.368-.488-2.49-.043-.219.022-.223.256-2.506-.205-2.499-.014-.163.023-.16.332-2.44-.326-2.442-.011-.09-.001-.091-.028-2.64-.002-.135.023-.133.432-2.53.036-2.414-.33-2.53-.021-.155.012-.156.199-2.539-.121-2.026zM25.309 95.238l-.832 1.64-.036 2.157.223 2.637.012.14-.012.153-.281 2.484.012 2.625.164 2.543v.012l.011.023.117 2.637.012.094-.012.094-.144 1.958 1.926-.017h.023l2.555.012.521-.024.065-.418-.035-2.508v-.058l.058-2.613.012-2.649v-.012l.047-2.484-.235-2.637v-.082l-.093-2.578-.176-2.144-1.043-1.336-1.477-.446zm33 0-.832 1.64-.036 2.157.09 1.071 1.14.093 2.509-.117v-.012l1.265-.085-.058-1.618-.176-2.144-1.043-1.336-1.477-.446zM90.965 73.66l-.147.017-.146-.013-2.577-.222-2.582-.029-1.77.01-.133.224.03 1.384 1.09.204 2.45-.152.047-.012h.035l2.625-.011v-.012l2.636-.059 2.637-.07h.035l2.637-.012h.106l.093.012 2.391.316 2.14-.416.007-.174-.042-1.036-1.053.081-.093.007-.093-.005-2.64-.126h-.014l-.014-.001-2.6-.174-2.498-.013zm-16.195-.182-2.598.23-.078.007-.078-.001-2.641-.044v-.001l-2.624-.015h-.024l-2.609-.058-2.606.054-.12.003-.119-.016-.835-.117-.036.012-.433.14-.434-.116-.455-.127-2.407-.015-.358.022-2.598.273-.163.018-.162-.019-1.113-.126-.95.082-.147.013-.147-.017-1.44-.159-1.225.074-.083.005-.084-.005-2.513-.129-2.516.294-.227.027-.224-.042-.544-.103-1.467.07-.093.005-.093-.007-.997-.077.04.967.002.059-.002.058-.005.121.131-.004.082-.012.082.011 2.649.176-.012.012 2.555.012h.047l2.59.105 2.496-.082 2.648-.246h.152l2.637.047-.012.012h2.66l2.602.058 2.613-.058h.13l.117.011 2.484.364 2.496-.164v.011l2.578-.28.152-.013.165.012 2.484.293 2.543-.152.082-.012.082.012 2.531.129 1.055-.124-.073-1.073-.02-.271-.169-.094-.223-.01-2.584-.105zm-47.562-.066-2.243.248-.147.017-.146-.013-.623-.054-2.602.014h-.086l-.086-.01-1.817-.2-1.657.009-.062.006-.404.69.065.978 1.272.103 2.508-.117v-.012l2.636-.175h.094l2.637-.012.094-.012.082.012 2.508.281 2.484-.21.047-.013h.058l2.649-.023h.023l1.935.009-.128-.97-.02-.156.011-.157.001-.018-.817.063-.093.007-.093-.005-2.64-.126h-.014l-.014-.001-2.6-.174-2.137-.012zm45.245-11.4-.035.012h-.047l-2.637.094h-.117l-2.636-.105V62l-2.59-.012h-.047l-.047-.011-.314-.02 1.576 1.754.27.316.081.399.446 2.285-1.09.21.046.235 1.02.328-.75 2.391-.094.316-.234.246-.052.056 1.853.018.047.002 2.583.105 2.543-.095 2.6-.23.078-.007.078.001 2.641.044-.001.001 2.62.014.345-.098.102-1.512-.118-2.547-.002-.039v-.04l.017-2.613-.02-1.637-.38-.012-2.602-.012h-.012L74.95 61.8zm-29.074.048h-.012l-.011.011-2.649.117-.094.012-.082-.011-1.127-.085.008 1.655.073 2.64.001.01.058 2.639v.017l.013 1.176.824.012.13.002.127.024 1.753.33.817-.04v.001l2.612-.175.046-.003h.046l2.64-.014h.087l.086.01.934.102 1.171-.07.13-.007.129.015 1.236.14 1.387-.12.056-.005h.055l.904-.01-.149-.194-.152-.199-.082-.246-.82-2.45-.153-.445.129-.445.844-2.953.316-.281 1.407-1.298-2.106.02-2.637.223-.14.012-.153-.012-2.531-.27h-2.578zm-22-14h-.012l-.012.011-2.648.117-.094.012-.082-.011-1.199-.09v.311l-.002.008v.008l-.04 2.564.225 2.559.003.038.002.038.098 2.64.002.058-.002.06-.107 2.623-.026 2.61v.043l-.003.044-.173 2.562.118 2.547.002.039v.04l-.016 2.56.095.974.16-.001 1.004-.086.146-.013.147.017.654.071 2.558.03h.055l.056.005 1.823.156 2.51-.166.013-.001.014-.001.341-.017.286-.031.086-.01h.454l1.473-.068.093-.005.093.007 1.137.086-.295-1.749-.026-.154.007-.157.11-2.64.003-.07.01-.067.324-2.396-.46-2.402-.045-.236.03-.239.33-2.538-.011-2.507-.073-2.64-.001-.01-.058-2.639v-.017l-.02-1.866-1.112.094-.14.012-.153-.012-2.531-.27h-2.578zm36.973 15.804-1.348 1.254-.492 1.7.61 1.816 1.112 1.441.809.222h.004l.722.1.631-.029 1.186-.386 1.23-1.325.528-1.699-.305-1.547-1.23-1.383-1.688-.644zm3.95-11.59-2.53.431-.133.023-.135-.002-2.64-.028h-.09l-.091-.012-2.443-.326-2.438.332-.148.02-.15-.009-.843-.054.09.88.03.284-.078.274-.579 2.06-.305 1.086-1.128.01-2.52.017-2.523.425-.154.026-.157-.007-2.64-.11-.07-.003-.067-.01-.863-.117.044.991.006.13-.017.129-.052.405.994.081 2.508-.117v-.012l2.636-.175h.094l2.637-.012.094-.012.082.012 2.508.281 2.484-.21.047-.013h.058l2.649-.023h.023l2.555.012 2.648-.117.082-.012.082.011 2.649.176-.012.012 2.555.012h.047l2.59.105 2.496-.082 2.648-.246h.152l2.637.047-.012.012h2.684l.088.003-.044-.523h-.001l-.11-.944-1.246.006-2.6.173-.014.002h-.014l-2.64.126-.09.005-.09-.006-2.54-.185-.028-.002-.1-.009-1.522-.139.167-1.52.058-.531-.083-2.214-.31-.642-1.617.127-.156.012-.155-.02-2.531-.33zM26.17 41.58l-.13.008-.129-.015-.123-.014-1.926.131-.086.006-.086-.004-2.64-.123-.194-.01-2.565.154-.912.103.025 1.273.001.032v.032l-.044 1.94 1.31.106 2.509-.117v-.012l2.636-.175h.094l2.637-.012.094-.012.082.012 2.508.281 1.046-.09-.021-.335-.013-.19.035-.187.41-2.17-.312-.681-1.65-.084zm-4.786-11.045.275 2.5.017.147-.013.146-.22 2.577-.024 2.077.354.468 1.51-.158.163-.018.162.019 2.247.254.047-.003.554-.367-.074-1.795-.002-.06.002-.058.098-2.64.002-.038.003-.038.227-2.56-.023-1.37-1.242.072-.079.005-.08-.004-2.64-.126h-.014l-.014-.002-1.156-.077zm.827-5.367-1.336 1.125-.023.129.902-.012h.023l2.578.012 2.625-.117h.13l-.024-.164-1.076-.97-.069.231-1.441-.398-.88-.251z"/></svg>