<svg width="120" height="120" viewBox="0 0 120 120" fill="none" xmlns="http://www.w3.org/2000/svg">
<path d="M106.758 14.1328L106.793 14.2969L106.781 14.4727L106.711 16.9102L107.285 19.3359L107.309 19.418L107.32 19.5117L107.625 22.1367L107.637 22.2656V22.4062L107.473 24.9375L107.695 27.3633L108.281 29.8477L108.316 30V30.1523L108.387 32.7188L108.809 35.2148L108.82 35.2852V35.3555L108.984 37.875L109.371 40.4883L109.395 40.5938V40.7109L109.383 43.1953L109.629 45.8438L109.641 45.8906V45.9375L109.711 48.5742V51.3984L109.465 54.0352L109.289 56.543L109.453 59.0859V59.2266L109.359 61.7109L109.734 64.2422L109.758 64.3945L109.746 64.5586L109.582 67.1953V67.2305L109.359 69.7383L109.559 72.2578L109.57 72.3398L109.559 72.4219L109.488 75.0703V75.082L109.383 77.5781L109.629 80.1562L109.641 80.332L109.617 80.4961L109.289 82.9922L109.418 85.5V85.6758L109.242 88.2305L109.406 90.7734V90.9141L109.301 93.3516L109.734 95.8828L109.77 96.082L109.758 96.2812L109.512 98.918L109.289 101.414L109.477 103.934L109.711 106.57L109.723 106.699L109.711 106.816L109.5 109.371L109.652 111.902V111.996L109.641 112.09L109.453 114.598L109.459 114.638L110.809 114.5L110.891 114.488H110.973L112.016 114.5L112.004 116L111.98 117.5L110.984 117.488L108.477 117.746L108.254 117.77L108.031 117.734L105.57 117.242L103.145 117.254L102.756 117.32L101.77 118.137L101.244 117.583L100.648 117.688L100.496 117.711L100.332 117.699L97.6953 117.594H97.625L97.5547 117.582L96.5527 117.439L94.1758 117.609H94.082L93.2607 117.612L92.7617 117.711L92.5273 117.758L92.293 117.734L91.4111 117.621H91.3633L91.2812 117.609L89.3965 117.407L87.8818 117.414L86.2891 117.551L86.2305 117.562H86.1719L83.5352 117.586H83.5117L80.9336 117.574L78.3086 117.691H78.1328L77.8477 117.672L76.7422 117.746L76.5547 117.758L75.1924 117.502L72.9414 117.492H72.8945L72.251 117.463L71.5391 117.547L71.4102 117.559H71.2812L68.9541 117.43L67.7793 117.479L67.2383 117.513L65.1719 117.703L65.0898 117.715H65.0195L62.3711 117.668V117.656H59.7227L59.3428 117.647L58.25 117.711L58.0977 117.723L57.957 117.699L57.2441 117.601L57.1094 117.598L54.5078 117.645L54.3906 117.656L54.2734 117.633L52.6299 117.401L50.5107 117.354L49.3398 117.422L49.3516 117.434L46.7148 117.703L46.5508 117.727L46.3867 117.703L43.832 117.41L42.8799 117.473L42.4531 117.512L42.418 117.523H42.3711L41.8604 117.541L41.3711 117.574H41.207L41.0977 117.568L39.7344 117.617H39.6172L37.8135 117.545L36.168 117.738L35.9453 117.762L35.7227 117.727L34.4795 117.488H34.3438L34.2969 117.477L32.1709 117.331L30.8242 117.422H30.7305L28.1055 117.445L25.4688 117.504L25.4805 117.516L22.8438 117.586H22.8086L22.1709 117.588L21.3242 117.664L21.1836 117.676L21.0312 117.664L20.4229 117.596L20.1719 117.598H20.0312L18.8711 117.492L17.6572 117.386L15.9219 117.395V117.383L13.3789 117.559H13.3672L13.3555 117.57L10.707 117.688L10.6133 117.699L10.5312 117.688L7.98828 117.5L8 117.277V114.5H8.21094L10.6719 114.699L11.4727 114.661L11.3125 112.477L11.3008 112.383L11.3125 112.289L11.4297 109.652L11.4414 109.629V109.617L11.6055 107.074L11.6172 104.449L11.3359 101.965L11.3242 101.812L11.3359 101.672L11.5586 99.0352L11.5938 96.5156L11.582 96.5273L11.5703 93.8906V93.8086L11.6992 91.2656L11.5234 88.6992L11.5117 88.6641V88.6172L11.4883 86.0156L11.3828 83.3789V83.2617L11.4766 80.625V80.5898L11.4883 80.543L11.7109 78.0703L11.6641 75.4219V75.4102L11.6523 72.7969L11.5938 70.1484V70.0898L11.6523 67.5703L11.3008 65.0508L11.2773 64.8984L11.2891 64.7461L11.4414 62.1094V62.0391L11.7109 59.5664L11.4297 57.0938L11.418 56.9648V56.8242L11.582 54.2578L11.4414 51.7148V51.5859L11.4531 51.4688L11.7344 49.0664L11.2773 46.6406L11.2422 46.4531L11.2539 46.2656L11.4297 43.6172L11.5586 41.0039V40.9102L11.8633 38.2852V38.2734L12.1914 35.6836H12.1797L12.4375 33.0938L12.3438 30.5977L12.332 30.3633L12.4023 30.1289L13.0938 27.7852L12.9766 25.3711V25.3008L12.9883 25.2305L13.1172 22.5938L13.1289 22.4297L13.1641 22.2773L13.8203 19.8164L14.0664 17.4375L13.8086 14.9297L13.7852 14.707L13.832 14.4844L14.3477 11.8828L17.2891 11.8711L17.7578 14.1328L17.793 14.2969L17.7812 14.4727L17.7109 16.9102L18.2852 19.3359L18.3086 19.418L18.3203 19.5117L18.625 22.1367L18.6367 22.2656V22.4062L18.4727 24.9375L18.6953 27.3633L19.2812 29.8477L19.3164 30V30.1523L19.3867 32.7188L19.8086 35.2148L19.8203 35.2852V35.3555L19.9844 37.875L20.3711 40.4883L20.3945 40.5938V40.7109L20.3828 43.1953L20.6289 45.8438L20.6406 45.8906V45.9375L20.7109 48.5742V51.3984L20.4648 54.0352L20.2891 56.543L20.4531 59.0859V59.2266L20.3594 61.7109L20.7344 64.2422L20.7578 64.3945L20.7461 64.5586L20.582 67.1953V67.2305L20.3594 69.7383L20.5586 72.2578L20.5703 72.3398L20.5586 72.4219L20.4883 75.0703V75.082L20.3828 77.5781L20.6289 80.1562L20.6406 80.332L20.6172 80.4961L20.2891 82.9922L20.418 85.5V85.6758L20.2422 88.2305L20.4062 90.7734V90.9141L20.3008 93.3516L20.7344 95.8828L20.7695 96.082L20.7578 96.2812L20.5117 98.918L20.2891 101.414L20.4766 103.934L20.6406 105.783L20.7109 105.527L20.7227 105.48L20.7461 105.434L21.6133 102.938V102.914L22.4805 100.523L23.1367 98.0156L23.1719 97.8867L23.2188 97.7812L24.2266 95.4961L24.8008 93.0469L24.8359 92.8945L24.8945 92.7422L25.9492 90.457L26.4883 88.043L26.5234 87.9141L26.582 87.7852L27.625 85.3477L28.457 83.0156L28.8906 80.5664L28.9844 80.0977L29.3242 79.7578L29.6797 79.4082L29.5586 77.8467V77.6357L29.7461 74.999V74.9639L29.9922 72.3271L30.2266 69.7139L30.4258 67.1006V67.0537L30.4375 67.0068L30.7539 64.5693L30.4492 62.0967L30.4258 61.874L30.4727 61.6514L30.9297 59.2139L30.9648 56.6357V56.5537L30.9766 56.4717L31.293 53.9756L31.1641 51.4561V51.292L31.1875 51.1279L31.6445 48.5146L31.9492 46.124L31.7617 43.5928L31.75 43.4756L31.7617 43.3584L31.9844 40.7217L32.1016 38.1553L32.2188 35.2373L34.5156 37.0303L35.0312 37.4404L35.5352 37.8389L35.6055 38.4717L35.8516 41.1084V41.2607L35.8281 43.9092L35.9336 46.4404L36.2383 48.9834V49.0303L36.4609 51.5732L36.8359 54.1865L36.8594 54.2803V54.3623L36.9414 56.999L37.1523 59.5537V59.5771L37.3281 62.2139V62.3311L37.3164 64.8623L37.7852 67.2998L37.7969 67.3818V67.4639L37.9961 70.1006V70.1943L38.0195 72.8076L38.0713 74.6572L38.7109 74.4375L40.8438 73.1836L40.9727 73.1016L41.1133 73.0547L43.5508 72.2109L45.8242 71.0977L45.9414 71.0508L48.2852 70.125L50.6641 68.9766L51.5205 68.5439L51.5469 68.0586V67.9297L51.582 67.8008L52.1797 65.2227H52.1914L52.6953 62.6797L52.707 62.6328L52.7188 62.5977L53.3867 60.0312L53.5273 59.4805L54.0195 59.1641L55.0977 58.4492L55.9062 57.9336L56.7148 58.4375L58.8242 59.7734L59.1494 59.9355L59.1992 59.3281L59.082 56.8203H59.0703L58.9023 54.3008L58.7314 54.1943L56.4678 52.7734L55.9707 52.4678L55.8184 51.9121L55.1006 49.3926L56.4316 49.0078L56.4424 48.9668L56.665 47.4893L56.7686 47.501L57.7178 47.6416L57.9805 48.5693L58.5352 50.5371L59.9082 51.3965L61.6367 51.3164L63.1191 50.3525L63.9941 48.8496L63.9229 48.4141L65.4102 48.1846L66.8945 47.9434L67.043 48.8994L67.124 49.4316L66.8662 49.8867L65.5488 52.1621L65.376 52.4746L65.0625 52.6758L62.9355 54.0605L62.6035 54.2812L62.1963 54.293L61.9053 54.3076L62.0586 56.6211V56.6328L62.0703 56.6445L62.1768 59.0527L64.1328 57.9922L65.7734 57.1133L66.2891 58.8945L66.8516 60.8281V60.8398L66.8633 60.8633L67.5312 63.418V63.4531L68.1523 66.0195L68.1758 66.1133L68.1875 66.207L68.3896 68.1172L70.8203 69.0117L70.9141 69.0469L71.0078 69.0938L73.2812 70.2773L75.6484 71.1211L78.1445 72.0117L78.2383 72.0352L78.3203 72.082L80.5703 73.2305L82.5098 73.9082L82.582 72.9717V72.96L82.5938 72.9365L83.1094 67.6865L83.332 65.0732V65.0381L83.3438 64.9912L83.6836 62.542L83.4023 60.0811L83.3789 59.8584L83.4141 59.6357L83.9062 57.1162L83.9531 54.6318V54.5498L83.9648 54.4561L84.3047 51.96L84.1992 49.4404V49.2764L84.2227 49.124L84.6914 46.5107L85.0195 44.0967L84.8555 41.5889L84.8438 41.4717L84.8555 41.3545L85.1016 38.7178L85.125 38.4482L85.2539 38.1904L85.6992 37.3115L88.1016 32.4717L88.5352 37.8506L88.7461 40.4756L88.9805 43.1006L88.9922 43.1826V43.2529L88.9453 45.9131L89.0391 48.3506L89.3438 50.9756V51.0225L89.5547 53.5654L89.9414 56.2725V56.3662L90.0117 58.9209L90.2227 61.5576V61.5811L90.3867 64.2178V64.3232L90.3633 66.8779L90.8203 69.3037L90.8438 69.4678L91.0195 72.1045V72.1982L91.043 74.8115L91.1016 77.3193L91.2441 78.2646L92.5586 79.3945L93.0039 79.7812L93.0742 80.3555L93.3789 82.8516L94.1875 85.207L94.2109 85.2773L94.2227 85.3477L94.8203 87.832L95.7109 90.2227L95.7461 90.3047L95.7578 90.3867L96.3438 92.7773L97.3984 95.1211L97.4688 95.2734L97.5039 95.4492L98.0195 97.9922L98.8281 100.348L98.8398 100.359L99.6719 102.867L99.6953 102.949L99.7188 103.02L100.246 105.48L100.608 106.38L100.617 104.449L100.336 101.965L100.324 101.812L100.336 101.672L100.559 99.0352L100.594 96.5156L100.582 96.5273L100.57 93.8906V93.8086L100.699 91.2656L100.523 88.6992L100.512 88.6641V88.6172L100.488 86.0156L100.383 83.3789V83.2617L100.477 80.625V80.5898L100.488 80.543L100.711 78.0703L100.664 75.4219V75.4102L100.652 72.7969L100.594 70.1484V70.0898L100.652 67.5703L100.301 65.0508L100.277 64.8984L100.289 64.7461L100.441 62.1094V62.0391L100.711 59.5664L100.43 57.0938L100.418 56.9648V56.8242L100.582 54.2578L100.441 51.7148V51.5859L100.453 51.4688L100.734 49.0664L100.277 46.6406L100.242 46.4531L100.254 46.2656L100.43 43.6172L100.559 41.0039V40.9102L100.863 38.2852V38.2734L101.191 35.6836H101.18L101.438 33.0938L101.344 30.5977L101.332 30.3633L101.402 30.1289L102.094 27.7852L101.977 25.3711V25.3008L101.988 25.2305L102.117 22.5938L102.129 22.4297L102.164 22.2773L102.82 19.8164L103.066 17.4375L102.809 14.9297L102.785 14.707L102.832 14.4844L103.348 11.8828L106.289 11.8711L106.758 14.1328ZM77.3398 109.156L76.2148 110.633L75.6172 112.613L75.6133 112.808L75.6641 113.059L75.7109 113.281L75.6875 113.504L75.5898 114.515L75.6133 114.516H75.707L77.8984 114.661L79.1797 114.582L79.2266 114.57H79.2617L81.5742 114.56L81.5771 114.527L81.6045 113.037L81.2656 111.371L80.0586 109.766L78.6523 108.863L77.3398 109.156ZM59.3398 109.156L58.2148 110.633L57.6172 112.613L57.6133 112.808L57.6641 113.059L57.7109 113.281L57.6875 113.504L57.5811 114.606L59.3682 114.646L60.7109 114.559V114.57L63.2891 114.289L63.4414 114.277L63.5811 114.286L63.6045 113.037L63.2656 111.371L62.0586 109.766L60.6523 108.863L59.3398 109.156ZM81.957 105.059H81.8867L79.25 105.211L79.0977 105.223L78.957 105.199L76.4141 104.859L73.9062 104.906H73.8477L71.2109 104.848L68.5859 104.836H68.5742L65.9492 104.801L63.4531 105.012L63.418 105.023H63.3711L60.7344 105.117H60.6172L57.9805 105.012V105L55.3906 104.988H55.3438L55.2969 104.977L52.7188 104.812L50.1875 104.93H50.1055L47.4688 104.918L44.9609 104.941L42.3242 105.164L42.1836 105.176L42.0312 105.164L39.5 104.895H36.9219L34.3789 105.059H34.3672L34.3555 105.07L31.707 105.188L31.6133 105.199L31.5312 105.188L29.8301 105.062L28.832 106.723L28.7617 106.84L28.668 106.934L26.9102 108.914L25.4219 110.93L25.3281 111.047L25.2227 111.152L23.3359 112.84L21.9883 114.586H22.1504L23.7148 114.453L23.7617 114.441H23.8203L26.4688 114.418H26.4922L27.5791 114.423L27.6172 112.355V112.156L27.6758 111.945L28.4258 109.473L28.5078 109.215L28.6719 109.004L30.2773 106.883L30.6172 106.449L31.1562 106.332L33.6172 105.805L34.2148 105.676L34.7305 106.004L36.9102 107.375L37.1445 107.527L37.3086 107.75L37.958 108.624L39.2773 106.883L39.6172 106.449L40.1562 106.332L42.6172 105.805L43.2148 105.676L43.7305 106.004L45.9102 107.375L46.1445 107.527L46.3086 107.75L46.958 108.624L48.2773 106.883L48.6172 106.449L49.1562 106.332L51.6172 105.805L52.2148 105.676L52.7305 106.004L54.9102 107.375L55.1445 107.527L55.3086 107.75L55.958 108.624L57.2773 106.883L57.6172 106.449L58.1562 106.332L60.6172 105.805L61.2148 105.676L61.7305 106.004L63.9102 107.375L64.1445 107.527L64.3086 107.75L64.958 108.624L66.2773 106.883L66.6172 106.449L67.1562 106.332L69.6172 105.805L70.2148 105.676L70.7305 106.004L72.9102 107.375L73.1445 107.527L73.3086 107.75L73.958 108.624L75.2773 106.883L75.6172 106.449L76.1562 106.332L78.6172 105.805L79.2148 105.676L79.7305 106.004L81.9102 107.375L82.1445 107.527L82.3086 107.75L82.958 108.624L84.2773 106.883L84.6172 106.449L85.1562 106.332L87.6172 105.805L88.2148 105.676L88.7305 106.004L90.9102 107.375L91.1445 107.527L91.3086 107.75L92.8672 109.848L93.0664 110.117L93.1367 110.445L93.6641 113.059L93.7109 113.281L93.6875 113.504L93.5908 114.507L94.8359 114.266L95.082 114.219L95.3164 114.254L96.6338 114.434H96.6484L98.4766 114.34L98.043 113.73L96.3789 111.691L96.332 111.645L94.75 109.523H94.7383L93.0977 107.578V107.566L91.3516 105.691L91.2695 105.598L91.1992 105.492L90.876 104.997L89.7148 104.93L87.1719 105.082H87.043L86.9141 105.07L84.418 104.801L81.957 105.059ZM41.3398 109.156L40.2148 110.633L39.6172 112.613L39.6133 112.808L39.6641 113.059L39.7109 113.281L39.6875 113.504L39.5928 114.485L41.2656 114.562L42.7852 114.479L44.832 114.289H44.9844L45.5811 114.299L45.6045 113.037L45.2656 111.371L44.0586 109.766L42.6523 108.863L41.3398 109.156ZM68.3398 109.156L67.2148 110.633L66.6172 112.613L66.6133 112.808L66.6641 113.059L66.7109 113.281L66.6875 113.504L66.5859 114.551L66.9863 114.527L67.5508 114.48H67.6211L68.0215 114.466L68.6328 114.43L68.7148 114.418L68.7969 114.43L68.9023 114.435L70.2695 114.387L70.3281 114.375L70.3867 114.387L72.1807 114.458L72.5791 114.41L72.6045 113.037L72.2656 111.371L71.0586 109.766L69.6523 108.863L68.3398 109.156ZM32.3398 109.156L31.2148 110.633L30.6172 112.613L30.583 114.361L31.6953 114.312L31.7773 114.301L31.8594 114.312L32.1299 114.33L33.2617 114.258L33.4492 114.246L33.6367 114.281L34.8359 114.501L36.5771 114.508L36.6045 113.037L36.2656 111.371L35.0586 109.766L33.6523 108.863L32.3398 109.156ZM86.3398 109.156L85.2148 110.633L84.6172 112.613L84.6133 112.808L84.6641 113.059L84.7109 113.281L84.6875 113.504L84.5928 114.486L87.1602 114.418H87.1953L87.7725 114.415L88.668 114.34L88.8203 114.328L88.9609 114.34L89.5938 114.407L89.832 114.406H89.9375L90.0312 114.418L90.5811 114.49L90.6875 113.445L90.2656 111.371L89.0586 109.766L87.6523 108.863L86.3398 109.156ZM15.3555 30.7266L15.4375 33.1523V33.2578L15.4258 33.3516L15.168 35.9766V36.0117L14.8516 38.6133V38.625L14.5469 41.25L14.4297 43.793V43.8047L14.418 43.8164L14.2773 46.2656L14.7227 48.7266L14.7695 48.9492L14.7344 49.1719L14.4531 51.6562L14.5703 54.1992L14.582 54.2812L14.5703 54.375L14.4297 56.9062L14.7109 59.3906L14.7227 59.5547L14.7109 59.7188L14.4414 62.2734V62.2852L14.2891 64.7695L14.6406 67.2773L14.6523 67.3945V67.5117L14.5938 70.1484L14.6523 72.7266V72.75L14.6641 75.375L14.7109 78.0117V78.1758L14.4766 80.8125L14.3828 83.3789L14.4883 85.8984V85.9453L14.5117 88.5L14.6875 91.1367L14.6992 91.2188L14.6875 91.3125L14.5703 93.9492L14.582 96.5156V96.5391L14.5586 99.1758V99.2344L14.5469 99.293L14.3477 101.754L14.6172 104.273L14.6289 104.355L14.6172 104.449L14.6055 107.086V107.18L14.4297 109.816L14.3125 112.312L14.4766 114.483L15.8164 114.395H15.9102L17.4619 114.387L17.6523 111.949L17.5117 109.418L17.5 109.324L17.5117 109.219L17.7109 106.699L17.4883 104.191V104.18L17.2891 101.531L17.2773 101.414L17.2891 101.285L17.5234 98.6484L17.7578 96.2109L17.3242 93.75L17.3008 93.5977L17.3125 93.4453L17.4062 90.9492L17.2539 88.3125L17.2422 88.2188L17.2539 88.125L17.418 85.6523L17.2891 83.0156L17.2773 82.875L17.3008 82.7461L17.6289 80.2852L17.3945 77.8008L17.3828 77.707V77.6016L17.4883 74.9648L17.5703 72.5039L17.3594 69.8555L17.3477 69.7383L17.3594 69.6094L17.5938 66.9727L17.7578 64.5234L17.3828 62.0391L17.3594 61.9102L17.3711 61.7695L17.4531 59.2734L17.3008 56.6367L17.2891 56.5312L17.3008 56.4375L17.4766 53.8008V53.7656L17.7109 51.2578V48.668L17.6406 46.125L17.3945 43.4883L17.3828 43.4062V43.3359L17.3945 40.8281L17.0195 38.3086L17.0078 38.25V38.1914L16.8438 35.6953L16.4102 33.0938L16.3984 32.9883V32.8828L16.3398 30.4219L15.9414 28.7344L15.3555 30.7266ZM50.3398 109.156L49.2148 110.633L48.6172 112.613L48.6133 112.808L48.6641 113.059L48.7109 113.281L48.6875 113.504L48.6064 114.348H50.2695L50.5713 114.354L51.7539 114.281H51.8945L52.0469 114.293L52.8662 114.405L52.8711 114.406L54.5801 114.367L54.6045 113.037L54.2656 111.371L53.0586 109.766L51.6523 108.863L50.3398 109.156ZM104.355 30.7266L104.438 33.1523V33.2578L104.426 33.3516L104.168 35.9766V36.0117L103.852 38.6133V38.625L103.547 41.25L103.43 43.793V43.8047L103.418 43.8164L103.277 46.2656L103.723 48.7266L103.77 48.9492L103.734 49.1719L103.453 51.6562L103.57 54.1992L103.582 54.2812L103.57 54.375L103.43 56.9062L103.711 59.3906L103.723 59.5547L103.711 59.7188L103.441 62.2734V62.2852L103.289 64.7695L103.641 67.2773L103.652 67.3945V67.5117L103.594 70.1484L103.652 72.7266V72.75L103.664 75.375L103.711 78.0117V78.1758L103.477 80.8125L103.383 83.3789L103.488 85.8984V85.9453L103.512 88.5L103.688 91.1367L103.699 91.2188L103.688 91.3125L103.57 93.9492L103.582 96.5156V96.5391L103.559 99.1758V99.2344L103.547 99.293L103.348 101.754L103.617 104.273L103.629 104.355L103.617 104.449L103.605 107.086V107.18L103.43 109.816L103.312 112.312L103.46 114.262L105.664 114.242H105.816L105.969 114.266L106.464 114.362L106.652 111.949L106.512 109.418L106.5 109.324L106.512 109.219L106.711 106.699L106.488 104.191V104.18L106.289 101.531L106.277 101.414L106.289 101.285L106.523 98.6484L106.758 96.2109L106.324 93.75L106.301 93.5977L106.312 93.4453L106.406 90.9492L106.254 88.3125L106.242 88.2188L106.254 88.125L106.418 85.6523L106.289 83.0156L106.277 82.875L106.301 82.7461L106.629 80.2852L106.395 77.8008L106.383 77.707V77.6016L106.488 74.9648L106.57 72.5039L106.359 69.8555L106.348 69.7383L106.359 69.6094L106.594 66.9727L106.758 64.5234L106.383 62.0391L106.359 61.9102L106.371 61.7695L106.453 59.2734L106.301 56.6367L106.289 56.5312L106.301 56.4375L106.477 53.8008V53.7656L106.711 51.2578V48.668L106.641 46.125L106.395 43.4883L106.383 43.4062V43.3359L106.395 40.8281L106.02 38.3086L106.008 38.25V38.1914L105.844 35.6953L105.41 33.0938L105.398 32.9883V32.8828L105.34 30.4219L104.941 28.7344L104.355 30.7266ZM66.4844 71.25L68.3477 73.1133L68.3828 73.1602L70.0938 75.1641L70.1055 75.1758L71.7812 77.1914L73.5039 79.1953L73.5742 79.2891L75.1094 81.4102L76.6445 83.4492L78.4141 85.3008L78.4492 85.3359L78.4727 85.3711L80.1836 87.375L80.2773 87.4922L81.707 89.543L83.5352 91.2305L83.6641 91.3594L83.7695 91.5117L85.1758 93.668L86.7461 95.5664L88.6328 97.4531L90.4141 99.4102L90.4375 99.4336L90.4492 99.457L92.1484 101.484L92.207 101.555L92.2539 101.625L93.4795 103.5H93.5V103.531L93.625 103.723L95.3477 105.586L95.3711 105.609L95.3945 105.645L97.0938 107.66L97.1289 107.695L97.1523 107.73L98.6992 109.793L98.7227 109.828L98.4062 108.949L97.375 106.371L97.3516 106.254L96.7891 103.664H96.7773L95.9922 101.32L95.1367 98.8242L95.1016 98.7305L95.0898 98.6367L94.5859 96.1758L93.5664 93.9258L93.5195 93.8086L93.4844 93.668L92.8984 91.2773L91.9727 88.793L91.9375 88.7109L91.9258 88.6172L91.3047 86.0391H91.293L90.4961 83.6836L90.4375 83.5312L90.4258 83.3789L90.168 81.293L88.8906 80.2148L88.8242 80.1914L88.6875 80.2021L88.5117 80.2373V80.2139L88.5 80.2256L88.4766 80.0732L86.6641 79.4531L86.5469 79.4062L86.4414 79.3477L84.1094 78.1055L84.0977 78.0938H84.0859L81.8711 76.8633L79.5039 76.043L79.3984 76.0078L79.3164 75.9609L77.0781 74.8125L74.6406 73.9453L72.1445 73.0664L72.0391 73.0312L71.9453 72.9844L69.6719 71.7773L67.3047 70.9102L67.2695 70.8984L67.2227 70.8867L65.7695 70.2422L66.4844 71.25ZM54.2734 70.5L52 71.6602H51.9883L51.9766 71.6719L49.6094 72.832L49.4922 72.8789L47.1484 73.793L44.7695 74.9531L44.6055 75.0234L42.25 75.832L40.0938 77.1211L39.9531 77.2031L39.8008 77.25L38.4619 77.6953L38.4766 77.7881L38.4883 77.835V77.8936L38.5 77.999L37.3555 78.0879L35.2891 79.3242L35.1484 79.3945L32.9805 80.3672L32.7783 80.5625L32.875 81.7373L31.7324 81.6592L31.375 83.7188L31.3516 83.8477L31.3047 83.9648L30.4141 86.4492L30.3906 86.4844L30.3789 86.5312L29.3711 88.8633L28.832 91.2891L28.7969 91.4414L28.7383 91.5938L27.6719 93.8906L27.1328 96.293L27.0977 96.4336L27.0391 96.5742L26.0078 98.8828L25.3867 101.32L25.3398 101.461L24.4375 103.91L23.6055 106.312L22.9141 108.867L22.9023 108.879L22.7734 109.301L23.0781 109.031L24.625 106.969L24.6719 106.91L26.3359 105.035L27.6484 102.879L27.7773 102.656L27.9766 102.492L29.8984 100.91L31.3516 98.9297L31.4219 98.8359L33.0859 96.8906L34.6914 94.793L36.2148 92.6836L36.2734 92.6016L36.3438 92.5195L38.1836 90.6094L38.1953 90.5977L39.9062 88.8281L41.125 86.6836L41.2188 86.5078L41.3594 86.3672L43.2109 84.4805L43.2344 84.457L45.0156 82.6875L46.4453 80.625L46.5039 80.543L46.5625 80.4727L48.332 78.5156L49.9375 76.5234L49.9609 76.5L51.6602 74.4844L53.1836 72.4336L54.6953 70.3359L54.2734 70.5ZM59.1367 70.3125L59.043 70.4297L58.9375 70.5352L57.0273 72.2109L55.6094 74.2031L55.5977 74.2148L54.0156 76.3359L53.9922 76.3828L53.957 76.418L52.2695 78.3984L50.6172 80.4609L50.5938 80.4961L50.5703 80.5195L48.8477 82.4297L47.4062 84.5156L47.3242 84.6328L47.2305 84.7266L45.3438 86.5898L43.6328 88.3242L42.4258 90.4922L42.3203 90.6562L42.1914 90.7969L40.3398 92.6953L40.3281 92.6836L38.6523 94.4414L37.1055 96.5859L37.082 96.5977L37.0703 96.6211L35.4766 98.7188L35.4414 98.7422L35.418 98.7773L33.707 100.781L32.7129 102.15L34.1797 102.082V102.07L36.8164 101.895H36.9102L39.5469 101.883L39.6406 101.871L39.7227 101.883L42.2305 102.164L44.7148 101.953L44.7617 101.941H44.8203L47.4688 101.918H47.4922L50.0469 101.93L52.6953 101.812L52.7773 101.801L52.8594 101.812L55.5078 101.988L55.4961 102L58.0508 102.012H58.0977L60.6875 102.117L63.1836 102.035L65.832 101.789H65.9844L68.6211 101.836L68.6094 101.848H71.2695L73.8711 101.906L76.4844 101.848H76.6133L76.7305 101.859L79.2148 102.223L81.7109 102.059V102.07L84.2891 101.789L84.4414 101.777L84.6055 101.789L87.0898 102.082L88.6621 101.987L88.1523 101.379V101.367L86.4531 99.5156L84.5898 97.6523L84.543 97.5938L84.4961 97.5469L82.8086 95.5195L82.75 95.4492L82.7031 95.3789L81.332 93.2812L79.5391 91.6172L79.4219 91.5117L79.3281 91.3828L77.8984 89.3203L76.2461 87.375L74.418 85.4648L74.3594 85.4062L74.3008 85.3242L72.707 83.2148V83.2031L72.6953 83.1914L71.2188 81.1523L69.5078 79.1484L69.4844 79.125L67.7969 77.0977V77.0859L66.0977 75.1055H66.0859L64.2109 73.2305L64.1406 73.125L62.6758 71.0742L60.9766 69.0586L60.9531 69.0352L60.9297 69L60.5195 68.4609L59.1367 70.3125ZM33.918 59.3311V59.4482L33.8945 59.5771L33.4609 61.9209L33.7539 64.4053L33.7773 64.5928L33.7539 64.7803L33.4141 67.3115V67.3232L33.2148 69.96V69.9717L32.9805 72.6084L32.7344 75.2451L32.5977 77.2568L33.9062 76.6641L35.1533 75.917L35.125 75.7256L35.1016 75.6318V75.5381L35.0312 72.9014V72.8662L34.9961 70.3115L34.8203 67.7451L34.3398 65.249L34.3047 65.0967L34.3164 64.9561L34.3281 62.3076L34.1641 59.8115L33.9648 57.3154L33.918 59.3311ZM86.8945 57.3389L86.8828 57.4678L86.8594 57.585L86.4141 59.9756L86.6836 62.4131L86.707 62.6006L86.6836 62.7881L86.3086 65.4131L86.0977 67.9561V67.9795L85.8398 70.6045V70.6162L85.582 73.1943V73.2061L85.4033 75.3945L85.5156 75.457L87.7188 76.6406L88.0928 76.7676L88.043 74.8936V74.8584L88.0312 72.21L87.8555 69.7373L87.3867 67.2295L87.3516 67.0889L87.3633 66.9482L87.3867 64.2881L87.2227 61.7686L87.2344 61.7568L87.0234 59.167L87.0117 59.1201V59.085L86.9531 56.542L86.918 56.3545L86.8945 57.3389ZM63.3242 61.8359L61.4258 63.418L60.6758 64.0391L59.8086 63.6172L57.4883 62.4688L57.418 62.4336L57.3594 62.3867L56.082 61.5781L55.625 63.2656L55.1094 65.8555V65.9023L54.8291 67.0654L55.4219 66.832L57.6367 65.5078L57.8125 65.4023L58.0117 65.3438L58.4805 65.2148L58.3398 64.8867L60.2266 64.5234L60.4492 64.4766L60.9062 64.3945L61.3398 64.582L63.7539 65.6484L63.8594 65.6953L63.9531 65.7539L65.1797 66.5352L64.6133 64.1562V64.1445L63.957 61.625V61.6133L63.9219 61.5195L63.3242 61.8359Z" fill="black"/>
</svg>
