<svg xmlns="http://www.w3.org/2000/svg" width="120" height="120" fill="none" viewBox="0 0 120 120"><path fill="#000" d="m63.852 28.91.187.024 2.555.574h.012l2.566.598.129.035.105.047 2.45 1.007.128.059.118.082 2.214 1.441.094.07 2.098 1.606.094.07.082.094 1.793 1.899 1.828 1.875.082.082.058.093 1.547 2.133.035.035.024.047 1.383 2.25.011.012 1.36 2.285.105.176.059.21.668 2.52.75 2.52v.035l.34 1.234.777.032-.012.222-.07 1.735-.214-.04.362 2.126.024.152-.012.164-.092 2.213 1.733-.139h.152l2.602.07 2.601-.07h.106l.386.012 1.313.059.105 1.312.012.094.012.058v.059l.023 2.52.352 2.425.41 2.614v.046l.012.047.246 2.637.011.082v.082l-.058 2.508.433 2.473.012.046v.06l.27 2.624v.023l.21 2.555.364 2.625.012.082v.082l.058 2.649.2 2.543v.047l.117 2.59.328 2.484.469 2.601.011.082v.082l.199 2.625h-.011l.222 2.614v.023l.176 2.578.293 2.625.012.117-.012.118-.129 2.496.375 2.484.42 2.122 1.256-.216.117-.011h.117l2.637-.024h.152l.153.024 2.437.48 2.403-.246.082-.012h.082l1.043.012-.012 1.5-.024 1.5-.996-.012-2.507.258-.223.024-.223-.036-2.461-.492-2.425.012-2.497.434-.152.023-.164-.012-2.637-.105h-.07l-.07-.012-.637-.091-1.32.083h-.176l-1.56-.079-1.1.216-.235.047-.234-.024-.894-.115-1.005.119-.222.024-.223-.035-1.647-.315-1.095.006-.012-.012-2.59.082h-.011l-2.637.059h-.023l-2.567.012.012.011-2.637.176-.187.012-.885-.166-1.283.006h-.094l-.106-.012-1.406-.186-1.242.147-.129.012h-.129l-.762-.042-1.136.221-.235.047-.246-.035-1.712-.234-1.018.066h-.129l-.129-.012-2.2-.248-2.288.393-.117.023h-.118l-2.636.024h-.153l-.152-.035-.057-.012-.095.008-.141-.024-2.543-.351-.684.015-1.32.141-.129.012-.14-.012-1.464-.124-1.422-.031-.661.093v.054h-.371l-1.04.149-.199.023-.199-.023-2.56-.351-.122-.003-.166-.001-2.484.222-.035.011h-.047l-1.26.044-.79.136-.118.024h-.117l-2.637.035h-.117l-.105-.012-1.99-.259-.846-.003h-.047l-.047-.011-.149-.011-1.89.155-.106.012-.093-.012-2.59-.152-2.555.105h-.117l-2.555-.117-1.757.104-1.16.103-.141.012-.153-.012-2.531-.281-2.578.012v-.012l-2.543.176h-.012l-.012.011-2.648.118-.094.011-.082-.011-2.543-.188.012-.223V114.5h.21l2.462.199 2.508-.117v-.012l2.636-.175h.094l2.637-.012.094-.012.082.012.068.007.26-2.23.222-2.449v-2.684l.059-2.648v-.094l.012-.094.375-2.484.152-2.637.012-.129.023-.129.586-2.484.07-2.414v-2.777l.024-.118.422-2.496.152-2.59.14-2.624v-.106l.024-.094.445-2.449-.105-2.484v-.14l.023-.13.352-2.566.059-2.52v-.093l.023-.094.387-2.614.117-2.496.012-.164.035-.152.633-2.402v-2.578l.023-.141.469-2.566.246-1.336 1.348.105 2.636.2h.024l2.508.234 2.52-.211.093-.012.105.012.11.006-.086-.475-.047-.293.059-.281.539-2.614.386-2.52.012-.046.012-.035.55-2.578.012-.07.024-.06.773-2.53.023-.07.024-.06 1.02-2.437.023-.047 1.102-2.425.105-.235.188-.187 1.734-1.793 1.336-2.133.105-.164.153-.14 1.933-1.794 1.899-1.816.152-.14.188-.095 2.25-1.195L50 30.855l.094-.07.105-.047 2.414-1.125.211-.105.235-.024 2.648-.34 2.52-.433.117-.023h.117l2.625-.024h.152zm-4.72 52.234-1.37 1.383-1.266 2.098-.023.047-.024.035-1.406 2.027-.762 2.168-.633 2.579-.035.128-.047.118-1.03 2.296-.493 2.426-.023.117-.692 2.368-.21 2.519-.013.199-.07.2-.867 2.332-.164 2.414v.035l-.246 2.555.011.011-.14 2.637-.023 2.512h.496l.32-.043.164-.024.164.024 1.009.076 1.112.025 1.606-.036 1.277-.124.223-.023.21.047 2.287.435 2.237-.146v.011l2.578-.281.152-.012.164.012.085.01.044-.006h.153l2.636.117h.07l.071.012.651.086 1.318-.078.082-.012.082.012 1.477.075.305-.059.062-1.04-.247-2.472v.011l-.398-2.613v-.047l-.316-2.613-.012-.07v-.059l-.106-2.473-.644-2.402-.012-.035v-.035l-.586-2.567v-.012l-.574-2.402-.844-2.508-.023-.046-.012-.06-.644-2.472-.867-2.379-.95-2.367-1.195-2.016-1.582-1.828-1.3-1.03zm-32.827-18.66.011 2.52v.2l-.046.187-.657 2.437-.129 2.484v.07l-.011.071-.387 2.555-.047 2.52v.093l-.012.082-.363 2.484.117 2.52v.176l-.023.164-.457 2.484-.14 2.567v.011l-.153 2.637-.024.164-.422 2.461v2.59l-.07 2.637-.012.164-.035.152-.574 2.39-.152 2.579v.07l-.012.07-.387 2.461-.047 2.602v2.754l-.234 2.625v.023l-.012.024-.222 1.828.293.246.163-.01 1.454-.123.047-.012h.058l2.649-.023h.023l2.555.012 2.648-.118.082-.011.082.011 2.27.151.531-.041.164-.012.153.024.569.07 1.505.008h.047l2.59.105 1.088-.036 1.677-.288.129-.023h.14l2.029.026.081-.007h.152l1.621.028.024-2.575v-.023l.012-.035.129-2.637v-.059l.246-2.636.187-2.602.012-.223.07-.199.856-2.32.21-2.45.012-.152.035-.14.739-2.532.515-2.484.024-.152.07-.153 1.008-2.32.61-2.437.046-.141.88-2.496.058-.188.117-.164 1.512-2.203 1.312-2.168.094-.152.129-.13 1.828-1.839.328-.316.445-.094 2.309-.457.691-.14.54.433 1.98 1.57.105.094.094.105 1.723 1.98.082.106.07.118 1.348 2.273.058.094.047.117.984 2.45v.022l.012.012.914 2.485.047.14.621 2.45.844 2.507.024.059.011.07.621 2.567.012.023.586 2.566h-.012l.68 2.497.047.164.011.175.094 2.532.317 2.613.386 2.566.012.047v.035l.27 2.637.011.117-.011.117-.051.851.234-.026.235-.036.222.047 1.654.309h1.042l2.648-.07 2.648-.059h.012l2.637-.035 2.566-.164.188-.012.187.035.711.13 1.258-.005h.106l.093.012 1.38.183 1.28-.144.118-.023.129.011.786.036 1.112-.215.246-.047.234.035 1.66.225.848-.045.598-.223-.258-1.324-.012-.035v-.036l-.386-2.613-.024-.152v-.141l.13-2.519-.282-2.532v-.07l-.176-2.601-.223-2.637v-.012l-.187-2.637h-.012l-.433-2.449-.012-.035v-.047l-.34-2.613v-.059l-.012-.058-.117-2.59-.21-2.637v-.094l-.06-2.543-.351-2.543v-.082l-.223-2.601-.246-2.52-.457-2.613-.023-.14v-.141l.058-2.485-.234-2.543-.41-2.613v-.023l-.363-2.625-.012-.094v-.082l-.024-1.16-1.5.047h-.082l-2.53-.07-2.602.199-.094.011-.094-.011-2.566-.13-2.555.141-.035.012h-1.008l.129.96.012.13v.129l-.13 2.636v.176l-.046.176-.55 1.91-.317 1.09h-3.692l-2.484.387-.129.011h-.129l-2.648-.047-.07-.011h-.083l-2.46-.317-2.497.223-.105.012h-.094l-2.613-.106-2.508.036-2.625.199-.129.011-.129-.011-2.578-.27v.012l-2.555-.153-2.543.165h-.023l-2.637.14h-.07l-2.637.012H44l-.117-.023-2.649-.399-1.125-.176-.129-1.136-.222-1.91-.012-.036v-.035l-.176-2.648v-.2l.07-1.125-1.148-.07-2.543.188-.105.011h-.094l-2.531-.152-2.543.21-.13.013-.128-.012-2.637-.234v-.012l-1.277-.094zm30.93-9.902h-.083l-2.625.082-2.601.129-2.543.34-.14.011-.153-.011-2.578-.176-2.532.117-.011-.011-2.532.28h-.011l-.012.012-2.637.223-.093.012h-.094l-1.5-.056-.285 1.86v.036l-.012.035-.492 2.344.15.792 1.912-.148h.2l2.777.164 1.512.094-.106 1.512-.176 2.53.164 2.462.082.773 1.43.211h2.426l2.637-.14 2.625-.165h.175l2.649.153h.023l.035.012 2.52.246 2.508-.176.035-.012h.035l2.648-.047h.083l2.507.094 2.579-.21.163-.024.153.023 2.637.316h-.012l2.402.036 2.485-.375.117-.012h1.617l.2-.715.093-2.297-.317-2.496-.21-1.676 1.699-.011h2.578v-.012l2.648-.14.07-.012.083.011.361.016.084-2.102-.422-2.496h-.012l-.17-.625-.658-.125-2.496-.035h-.035l-.035-.012-2.613-.164v.012l-2.637-.129h-.012l-2.578-.152-2.555.129h-2.777l-.059-.012-2.625-.21v-.013l-2.59-.117h-.035l-2.52-.187zm-3.153 4.973 1.031 1.207.598.703-.352.855-.902 2.11-.61 1.453-1.417-.68-2.145-1.043-1.078-.515.27-1.172.586-2.567.21-.914.914-.21 1.055-.247 1.84-.422zm7.166 0 1.031 1.207.598.703-.352.855-.902 2.11-.61 1.453-1.417-.68-2.145-1.043-1.078-.515.27-1.172.585-2.567.212-.914.913-.21 1.055-.247 1.84-.422zm7.166 0 1.031 1.207.598.703-.352.855-.902 2.11-.61 1.453-1.417-.68-2.145-1.043-1.078-.515.27-1.172.585-2.567.212-.914.913-.21 1.055-.247 1.84-.422zm-9.824-25.88-2.45.434h-.023l-.035.012-2.426.305-2.097.984-2.075 1.406-.07.047-.07.035-2.168 1.137-1.758 1.676v.012h-.012l-1.804 1.675-1.29 2.075-.081.129-.106.117-1.7 1.746-.972 2.12.012.013-.996 2.367-.727 2.332-.055.259.88.034 2.554-.211v-.012l2.625-.281.047-.012h.047l2.637-.117h.175l2.508.188 2.473-.329h.117l2.637-.14h.023l2.637-.094v.012l2.555-.235.117-.011.117.011 2.648.188-.011.012 2.613.117h.047l2.636.21h2.532l-.012.012 2.578-.129.082-.011.07.011 2.637.141-.012.012 2.637.117h.024l2.636.164-.011.012 2.168.03-.344-1.155v-.024l-.012-.023-.633-2.367-1.23-2.074-1.383-2.239v-.011l-1.43-1.957-1.746-1.793-.011-.012-1.711-1.828-2.016-1.535v-.012l-2.016-1.3-2.168-.903-2.472-.575v-.011l-2.414-.54-2.426-.222z"/></svg>