<svg width="120" height="120" viewBox="0 0 120 120" fill="none" xmlns="http://www.w3.org/2000/svg">
<path d="M8.1 116V117.5H8.13227L8.16451 117.499L8.1 116ZM10.64 115.891L10.797 114.399L10.6865 114.387L10.5755 114.392L10.64 115.891ZM13.28 116.169L13.123 117.66L13.2739 117.676L13.425 117.662L13.28 116.169ZM15.92 115.912L15.8596 114.413L15.8172 114.415L15.775 114.419L15.92 115.912ZM18.56 115.806L18.6763 114.31L18.588 114.303L18.4996 114.307L18.56 115.806ZM21.2 116.011L21.0837 117.507L21.1392 117.511L21.1948 117.511L21.2 116.011ZM23.84 116.02L23.8348 117.52L23.8912 117.52L23.9474 117.516L23.84 116.02ZM26.48 115.831L26.5223 114.331L26.4473 114.329L26.3726 114.334L26.48 115.831ZM29.12 115.905L29.2963 114.415L29.2295 114.408L29.1623 114.406L29.12 115.905ZM31.76 116.217L31.5837 117.707L31.7941 117.732L32.0032 117.698L31.76 116.217ZM34.4 115.784L34.4793 114.286L34.3171 114.277L34.1568 114.303L34.4 115.784ZM37.04 115.923L36.9607 117.421L37.0493 117.426L37.1379 117.42L37.04 115.923ZM39.68 115.751L39.8617 114.262L39.7223 114.245L39.5821 114.254L39.68 115.751ZM42.32 116.073L42.1383 117.562L42.2533 117.576L42.3692 117.572L42.32 116.073ZM44.96 115.986L44.9117 114.487L44.9108 114.487L44.96 115.986ZM47.6 115.901L47.6483 117.401L47.6707 117.4L47.693 117.398L47.6 115.901ZM50.24 115.737L50.5012 114.26L50.3253 114.229L50.147 114.24L50.24 115.737ZM52.88 116.204L52.6188 117.681L52.879 117.727L53.1393 117.682L52.88 116.204ZM55.52 115.741L55.6608 114.247L55.4596 114.228L55.2606 114.263L55.52 115.741ZM58.16 115.99L58.0192 117.483L58.1299 117.493L58.2409 117.487L58.16 115.99ZM60.8 115.847L61.0126 114.362L60.8665 114.341L60.7191 114.349L60.8 115.847ZM63.44 116.225L63.2274 117.71L63.4714 117.745L63.7137 117.7L63.44 116.225ZM66.08 115.735L66.1582 114.237L65.9809 114.228L65.8063 114.26L66.08 115.735ZM68.72 115.873L68.6418 117.371L68.6647 117.372L68.6878 117.373L68.72 115.873ZM71.36 115.93L71.3278 117.429L71.3564 117.43L71.3849 117.429L71.36 115.93ZM74 115.886L74.185 114.397L74.0804 114.384L73.975 114.386L74 115.886ZM76.64 116.214L76.455 117.702L76.6155 117.722L76.7765 117.708L76.64 116.214ZM79.28 115.973L79.2685 114.473L79.2059 114.473L79.1435 114.479L79.28 115.973ZM81.92 115.952L82.0888 114.462L81.9989 114.452L81.9085 114.452L81.92 115.952ZM84.56 116.251L84.3912 117.742L84.5876 117.764L84.783 117.735L84.56 116.251ZM87.2 115.854L87.2734 114.356L87.1245 114.349L86.977 114.371L87.2 115.854ZM89.84 115.984L89.9255 114.486L89.9134 114.486L89.84 115.984ZM92.48 116.135L92.3945 117.632L92.4978 117.638L92.6008 117.63L92.48 116.135ZM95.12 115.921L95.1099 114.421L95.0544 114.422L94.9992 114.426L95.12 115.921ZM97.76 115.903L97.9616 114.417L97.8562 114.403L97.7499 114.403L97.76 115.903ZM100.4 116.261L100.198 117.748L100.434 117.78L100.667 117.737L100.4 116.261ZM103.04 115.784L103.284 114.304L103.028 114.262L102.773 114.308L103.04 115.784ZM105.68 116.219L105.436 117.699L105.576 117.722L105.719 117.718L105.68 116.219ZM108.32 116.151L108.359 117.65L108.453 117.648L108.546 117.634L108.32 116.151ZM110.96 115.748L111.313 114.29L111.026 114.221L110.734 114.265L110.96 115.748ZM8 116V117.5H8.1V116V114.5H8V116ZM8.1 116L8.16451 117.499L10.7045 117.389L10.64 115.891L10.5755 114.392L8.03549 114.501L8.1 116ZM10.64 115.891L10.483 117.382L13.123 117.66L13.28 116.169L13.437 114.677L10.797 114.399L10.64 115.891ZM13.28 116.169L13.425 117.662L16.065 117.405L15.92 115.912L15.775 114.419L13.135 114.676L13.28 116.169ZM15.92 115.912L15.9804 117.411L18.6204 117.305L18.56 115.806L18.4996 114.307L15.8596 114.413L15.92 115.912ZM18.56 115.806L18.4437 117.301L21.0837 117.507L21.2 116.011L21.3163 114.516L18.6763 114.31L18.56 115.806ZM21.2 116.011L21.1948 117.511L23.8348 117.52L23.84 116.02L23.8452 114.52L21.2052 114.511L21.2 116.011ZM23.84 116.02L23.9474 117.516L26.5874 117.327L26.48 115.831L26.3726 114.334L23.7326 114.524L23.84 116.02ZM26.48 115.831L26.4377 117.33L29.0777 117.404L29.12 115.905L29.1623 114.406L26.5223 114.331L26.48 115.831ZM29.12 115.905L28.9437 117.395L31.5837 117.707L31.76 116.217L31.9363 114.728L29.2963 114.415L29.12 115.905ZM31.76 116.217L32.0032 117.698L34.6432 117.264L34.4 115.784L34.1568 114.303L31.5168 114.737L31.76 116.217ZM34.4 115.784L34.3207 117.282L36.9607 117.421L37.04 115.923L37.1193 114.426L34.4793 114.286L34.4 115.784ZM37.04 115.923L37.1379 117.42L39.7779 117.248L39.68 115.751L39.5821 114.254L36.9421 114.427L37.04 115.923ZM39.68 115.751L39.4983 117.24L42.1383 117.562L42.32 116.073L42.5017 114.584L39.8617 114.262L39.68 115.751ZM42.32 116.073L42.3692 117.572L45.0092 117.486L44.96 115.986L44.9108 114.487L42.2708 114.574L42.32 116.073ZM44.96 115.986L45.0083 117.486L47.6483 117.401L47.6 115.901L47.5517 114.402L44.9117 114.487L44.96 115.986ZM47.6 115.901L47.693 117.398L50.333 117.234L50.24 115.737L50.147 114.24L47.507 114.404L47.6 115.901ZM50.24 115.737L49.9788 117.214L52.6188 117.681L52.88 116.204L53.1412 114.727L50.5012 114.26L50.24 115.737ZM52.88 116.204L53.1393 117.682L55.7793 117.218L55.52 115.741L55.2606 114.263L52.6207 114.727L52.88 116.204ZM55.52 115.741L55.3792 117.234L58.0192 117.483L58.16 115.99L58.3008 114.496L55.6608 114.247L55.52 115.741ZM58.16 115.99L58.2409 117.487L60.8809 117.345L60.8 115.847L60.7191 114.349L58.0791 114.492L58.16 115.99ZM60.8 115.847L60.5874 117.332L63.2274 117.71L63.44 116.225L63.6526 114.74L61.0126 114.362L60.8 115.847ZM63.44 116.225L63.7137 117.7L66.3537 117.21L66.08 115.735L65.8063 114.26L63.1663 114.75L63.44 116.225ZM66.08 115.735L66.0018 117.233L68.6418 117.371L68.72 115.873L68.7982 114.375L66.1582 114.237L66.08 115.735ZM68.72 115.873L68.6878 117.373L71.3278 117.429L71.36 115.93L71.3922 114.43L68.7522 114.373L68.72 115.873ZM71.36 115.93L71.3849 117.429L74.0249 117.386L74 115.886L73.975 114.386L71.335 114.43L71.36 115.93ZM74 115.886L73.815 117.374L76.455 117.702L76.64 116.214L76.825 114.725L74.185 114.397L74 115.886ZM76.64 116.214L76.7765 117.708L79.4165 117.466L79.28 115.973L79.1435 114.479L76.5035 114.72L76.64 116.214ZM79.28 115.973L79.2915 117.473L81.9315 117.452L81.92 115.952L81.9085 114.452L79.2685 114.473L79.28 115.973ZM81.92 115.952L81.7512 117.443L84.3912 117.742L84.56 116.251L84.7288 114.761L82.0888 114.462L81.92 115.952ZM84.56 116.251L84.783 117.735L87.423 117.338L87.2 115.854L86.977 114.371L84.337 114.768L84.56 116.251ZM87.2 115.854L87.1266 117.353L89.7666 117.482L89.84 115.984L89.9134 114.486L87.2734 114.356L87.2 115.854ZM89.84 115.984L89.7545 117.481L92.3945 117.632L92.48 116.135L92.5655 114.637L89.9255 114.486L89.84 115.984ZM92.48 116.135L92.6008 117.63L95.2408 117.416L95.12 115.921L94.9992 114.426L92.3592 114.639L92.48 116.135ZM95.12 115.921L95.1301 117.421L97.7701 117.403L97.76 115.903L97.7499 114.403L95.1099 114.421L95.12 115.921ZM97.76 115.903L97.5584 117.39L100.198 117.748L100.4 116.261L100.602 114.775L97.9616 114.417L97.76 115.903ZM100.4 116.261L100.667 117.737L103.307 117.26L103.04 115.784L102.773 114.308L100.133 114.785L100.4 116.261ZM103.04 115.784L102.796 117.264L105.436 117.699L105.68 116.219L105.924 114.738L103.284 114.304L103.04 115.784ZM105.68 116.219L105.719 117.718L108.359 117.65L108.32 116.151L108.281 114.651L105.641 114.719L105.68 116.219ZM108.32 116.151L108.546 117.634L111.186 117.231L110.96 115.748L110.734 114.265L108.094 114.668L108.32 116.151ZM110.96 115.748L110.607 117.206L111.647 117.458L112 116L112.353 114.542L111.313 114.29L110.96 115.748Z" fill="black"/>
<path d="M8.1 116V117.5H8.13227L8.16451 117.499L8.1 116ZM10.64 115.891L10.797 114.399L10.6865 114.387L10.5755 114.392L10.64 115.891ZM13.28 116.169L13.123 117.66L13.2739 117.676L13.425 117.662L13.28 116.169ZM15.92 115.912L15.8596 114.413L15.8172 114.415L15.775 114.419L15.92 115.912ZM18.56 115.806L18.6763 114.31L18.588 114.303L18.4996 114.307L18.56 115.806ZM21.2 116.011L21.0837 117.507L21.1392 117.511L21.1948 117.511L21.2 116.011ZM23.84 116.02L23.8348 117.52L23.8912 117.52L23.9474 117.516L23.84 116.02ZM26.48 115.831L26.5223 114.331L26.4473 114.329L26.3726 114.334L26.48 115.831ZM29.12 115.905L29.2963 114.415L29.2295 114.408L29.1623 114.406L29.12 115.905ZM31.76 116.217L31.5837 117.707L31.7941 117.732L32.0032 117.698L31.76 116.217ZM34.4 115.784L34.4793 114.286L34.3171 114.277L34.1568 114.303L34.4 115.784ZM37.04 115.923L36.9607 117.421L37.0493 117.426L37.1379 117.42L37.04 115.923ZM39.68 115.751L39.8617 114.262L39.7223 114.245L39.5821 114.254L39.68 115.751ZM42.32 116.073L42.1383 117.562L42.2533 117.576L42.3692 117.572L42.32 116.073ZM44.96 115.986L44.9117 114.487L44.9108 114.487L44.96 115.986ZM47.6 115.901L47.6483 117.401L47.6707 117.4L47.693 117.398L47.6 115.901ZM50.24 115.737L50.5012 114.26L50.3253 114.229L50.147 114.24L50.24 115.737ZM52.88 116.204L52.6188 117.681L52.879 117.727L53.1393 117.682L52.88 116.204ZM55.52 115.741L55.6608 114.247L55.4596 114.228L55.2606 114.263L55.52 115.741ZM58.16 115.99L58.0192 117.483L58.1299 117.493L58.2409 117.487L58.16 115.99ZM60.8 115.847L61.0126 114.362L60.8665 114.341L60.7191 114.349L60.8 115.847ZM63.44 116.225L63.2274 117.71L63.4714 117.745L63.7137 117.7L63.44 116.225ZM66.08 115.735L66.1582 114.237L65.9809 114.228L65.8063 114.26L66.08 115.735ZM68.72 115.873L68.6418 117.371L68.6647 117.372L68.6878 117.373L68.72 115.873ZM71.36 115.93L71.3278 117.429L71.3564 117.43L71.3849 117.429L71.36 115.93ZM74 115.886L74.185 114.397L74.0804 114.384L73.975 114.386L74 115.886ZM76.64 116.214L76.455 117.702L76.6155 117.722L76.7765 117.708L76.64 116.214ZM79.28 115.973L79.2685 114.473L79.2059 114.473L79.1435 114.479L79.28 115.973ZM81.92 115.952L82.0888 114.462L81.9989 114.452L81.9085 114.452L81.92 115.952ZM84.56 116.251L84.3912 117.742L84.5876 117.764L84.783 117.735L84.56 116.251ZM87.2 115.854L87.2734 114.356L87.1245 114.349L86.977 114.371L87.2 115.854ZM89.84 115.984L89.9255 114.486L89.9134 114.486L89.84 115.984ZM92.48 116.135L92.3945 117.632L92.4978 117.638L92.6008 117.63L92.48 116.135ZM95.12 115.921L95.1099 114.421L95.0544 114.422L94.9992 114.426L95.12 115.921ZM97.76 115.903L97.9616 114.417L97.8562 114.403L97.7499 114.403L97.76 115.903ZM100.4 116.261L100.198 117.748L100.434 117.78L100.667 117.737L100.4 116.261ZM103.04 115.784L103.284 114.304L103.028 114.262L102.773 114.308L103.04 115.784ZM105.68 116.219L105.436 117.699L105.576 117.722L105.719 117.718L105.68 116.219ZM108.32 116.151L108.359 117.65L108.453 117.648L108.546 117.634L108.32 116.151ZM110.96 115.748L111.313 114.29L111.026 114.221L110.734 114.265L110.96 115.748ZM8 116V117.5H8.1V116V114.5H8V116ZM8.1 116L8.16451 117.499L10.7045 117.389L10.64 115.891L10.5755 114.392L8.03549 114.501L8.1 116ZM10.64 115.891L10.483 117.382L13.123 117.66L13.28 116.169L13.437 114.677L10.797 114.399L10.64 115.891ZM13.28 116.169L13.425 117.662L16.065 117.405L15.92 115.912L15.775 114.419L13.135 114.676L13.28 116.169ZM15.92 115.912L15.9804 117.411L18.6204 117.305L18.56 115.806L18.4996 114.307L15.8596 114.413L15.92 115.912ZM18.56 115.806L18.4437 117.301L21.0837 117.507L21.2 116.011L21.3163 114.516L18.6763 114.31L18.56 115.806ZM21.2 116.011L21.1948 117.511L23.8348 117.52L23.84 116.02L23.8452 114.52L21.2052 114.511L21.2 116.011ZM23.84 116.02L23.9474 117.516L26.5874 117.327L26.48 115.831L26.3726 114.334L23.7326 114.524L23.84 116.02ZM26.48 115.831L26.4377 117.33L29.0777 117.404L29.12 115.905L29.1623 114.406L26.5223 114.331L26.48 115.831ZM29.12 115.905L28.9437 117.395L31.5837 117.707L31.76 116.217L31.9363 114.728L29.2963 114.415L29.12 115.905ZM31.76 116.217L32.0032 117.698L34.6432 117.264L34.4 115.784L34.1568 114.303L31.5168 114.737L31.76 116.217ZM34.4 115.784L34.3207 117.282L36.9607 117.421L37.04 115.923L37.1193 114.426L34.4793 114.286L34.4 115.784ZM37.04 115.923L37.1379 117.42L39.7779 117.248L39.68 115.751L39.5821 114.254L36.9421 114.427L37.04 115.923ZM39.68 115.751L39.4983 117.24L42.1383 117.562L42.32 116.073L42.5017 114.584L39.8617 114.262L39.68 115.751ZM42.32 116.073L42.3692 117.572L45.0092 117.486L44.96 115.986L44.9108 114.487L42.2708 114.574L42.32 116.073ZM44.96 115.986L45.0083 117.486L47.6483 117.401L47.6 115.901L47.5517 114.402L44.9117 114.487L44.96 115.986ZM47.6 115.901L47.693 117.398L50.333 117.234L50.24 115.737L50.147 114.24L47.507 114.404L47.6 115.901ZM50.24 115.737L49.9788 117.214L52.6188 117.681L52.88 116.204L53.1412 114.727L50.5012 114.26L50.24 115.737ZM52.88 116.204L53.1393 117.682L55.7793 117.218L55.52 115.741L55.2606 114.263L52.6207 114.727L52.88 116.204ZM55.52 115.741L55.3792 117.234L58.0192 117.483L58.16 115.99L58.3008 114.496L55.6608 114.247L55.52 115.741ZM58.16 115.99L58.2409 117.487L60.8809 117.345L60.8 115.847L60.7191 114.349L58.0791 114.492L58.16 115.99ZM60.8 115.847L60.5874 117.332L63.2274 117.71L63.44 116.225L63.6526 114.74L61.0126 114.362L60.8 115.847ZM63.44 116.225L63.7137 117.7L66.3537 117.21L66.08 115.735L65.8063 114.26L63.1663 114.75L63.44 116.225ZM66.08 115.735L66.0018 117.233L68.6418 117.371L68.72 115.873L68.7982 114.375L66.1582 114.237L66.08 115.735ZM68.72 115.873L68.6878 117.373L71.3278 117.429L71.36 115.93L71.3922 114.43L68.7522 114.373L68.72 115.873ZM71.36 115.93L71.3849 117.429L74.0249 117.386L74 115.886L73.975 114.386L71.335 114.43L71.36 115.93ZM74 115.886L73.815 117.374L76.455 117.702L76.64 116.214L76.825 114.725L74.185 114.397L74 115.886ZM76.64 116.214L76.7765 117.708L79.4165 117.466L79.28 115.973L79.1435 114.479L76.5035 114.72L76.64 116.214ZM79.28 115.973L79.2915 117.473L81.9315 117.452L81.92 115.952L81.9085 114.452L79.2685 114.473L79.28 115.973ZM81.92 115.952L81.7512 117.443L84.3912 117.742L84.56 116.251L84.7288 114.761L82.0888 114.462L81.92 115.952ZM84.56 116.251L84.783 117.735L87.423 117.338L87.2 115.854L86.977 114.371L84.337 114.768L84.56 116.251ZM87.2 115.854L87.1266 117.353L89.7666 117.482L89.84 115.984L89.9134 114.486L87.2734 114.356L87.2 115.854ZM89.84 115.984L89.7545 117.481L92.3945 117.632L92.48 116.135L92.5655 114.637L89.9255 114.486L89.84 115.984ZM92.48 116.135L92.6008 117.63L95.2408 117.416L95.12 115.921L94.9992 114.426L92.3592 114.639L92.48 116.135ZM95.12 115.921L95.1301 117.421L97.7701 117.403L97.76 115.903L97.7499 114.403L95.1099 114.421L95.12 115.921ZM97.76 115.903L97.5584 117.39L100.198 117.748L100.4 116.261L100.602 114.775L97.9616 114.417L97.76 115.903ZM100.4 116.261L100.667 117.737L103.307 117.26L103.04 115.784L102.773 114.308L100.133 114.785L100.4 116.261ZM103.04 115.784L102.796 117.264L105.436 117.699L105.68 116.219L105.924 114.738L103.284 114.304L103.04 115.784ZM105.68 116.219L105.719 117.718L108.359 117.65L108.32 116.151L108.281 114.651L105.641 114.719L105.68 116.219ZM108.32 116.151L108.546 117.634L111.186 117.231L110.96 115.748L110.734 114.265L108.094 114.668L108.32 116.151ZM110.96 115.748L110.607 117.206L111.647 117.458L112 116L112.353 114.542L111.313 114.29L110.96 115.748Z" fill="black"/>
<path d="M100.226 68.8072L99.0192 67.9159L98.6875 68.365L98.7301 68.9216L100.226 68.8072ZM101.713 66.7946L102.919 67.6859L103.176 67.3386L103.208 66.9081L101.713 66.7946ZM101.91 64.1919L103.406 64.3053L103.447 63.7645L103.132 63.3225L101.91 64.1919ZM100.359 62.0107L98.9615 62.5561L99.0289 62.7289L99.1365 62.8801L100.359 62.0107ZM99.3847 59.5146L97.8882 59.6171L97.9038 59.8461L97.9873 60.06L99.3847 59.5146ZM99.204 56.8753L100.701 56.7729L100.691 56.6344L100.656 56.4999L99.204 56.8753ZM98.5431 54.3181L99.9954 53.9428L99.9633 53.8185L99.9105 53.7015L98.5431 54.3181ZM97.4582 51.9125L96.0782 52.5002L96.0844 52.5147L96.0908 52.5291L97.4582 51.9125ZM96.4268 49.4909L95.0329 50.045L95.0397 50.0619L95.0468 50.0787L96.4268 49.4909ZM95.444 47.0184L96.8379 46.4643L96.7446 46.2296L96.5795 46.0383L95.444 47.0184ZM93.6955 44.9926L92.4088 45.7636L92.4754 45.8747L92.56 45.9727L93.6955 44.9926ZM92.3396 42.7299L93.6263 41.9589L93.5669 41.8598L93.4931 41.771L92.3396 42.7299ZM90.6514 40.6991L89.3607 41.4632L89.4215 41.566L89.4979 41.6579L90.6514 40.6991ZM89.2977 38.4124L90.5885 37.6483L90.5212 37.5347L90.4352 37.4346L89.2977 38.4124ZM87.5749 36.4084L88.7123 35.4305L88.7054 35.4225L88.6984 35.4146L87.5749 36.4084ZM85.8256 34.4307L86.9492 33.4369L86.9306 33.4159L86.9113 33.3956L85.8256 34.4307ZM83.9999 32.5159L82.7052 33.2733L82.7936 33.4244L82.9143 33.551L83.9999 32.5159ZM82.6409 30.1928L83.9356 29.4354L83.7108 29.051L83.3127 28.8516L82.6409 30.1928ZM80.2671 29.0037L80.9389 27.6626L80.9108 27.6485L80.8821 27.6356L80.2671 29.0037ZM77.8873 27.934L78.5022 26.5658L78.2898 26.4704L78.0585 26.4438L77.8873 27.934ZM75.2647 27.6326L74.7826 29.053L74.9343 29.1045L75.0935 29.1228L75.2647 27.6326ZM72.7512 26.7794L73.2333 25.359L73.183 25.3419L73.1317 25.3285L72.7512 26.7794ZM70.1542 26.0984L68.9095 26.9354L69.2257 27.4056L69.7737 27.5493L70.1542 26.0984ZM68.6416 23.8491L67.1897 24.2258L67.254 24.4736L67.3969 24.6861L68.6416 23.8491ZM67.9747 21.2783L69.4266 20.9016L69.3788 20.7173L69.2865 20.5508L67.9747 21.2783ZM66.7166 19.0096L68.0285 18.2822L67.946 18.1335L67.8323 18.007L66.7166 19.0096ZM64.9363 17.0285L66.052 16.0259L65.7428 15.6818L65.2934 15.5717L64.9363 17.0285ZM62.3435 16.3929L62.7007 14.9361L62.3533 14.8509L62.0048 14.9317L62.3435 16.3929ZM59.8256 16.9765L59.4869 15.5153L59.3242 15.553L59.1737 15.6256L59.8256 16.9765ZM57.4176 18.1385L56.7657 16.7876L56.418 16.9554L56.1945 17.2701L57.4176 18.1385ZM55.8724 20.3147L54.6494 19.4463L54.5112 19.6409L54.4402 19.8687L55.8724 20.3147ZM55.1189 22.7343L53.6868 22.2883L53.6148 22.5193L53.6192 22.7612L55.1189 22.7343ZM55.1665 25.3836L53.6668 25.4105L53.6699 25.5835L53.7123 25.7512L55.1665 25.3836ZM55.8163 27.9541L54.362 28.3217L54.3698 28.3525L54.3789 28.3829L55.8163 27.9541ZM56.5651 30.4639L55.1277 30.8928L55.3906 31.774L56.2952 31.9395L56.5651 30.4639ZM58.8918 30.8895L58.6219 32.365L59.0136 32.4367L59.3892 32.3046L58.8918 30.8895ZM100.233 68.9069L101.729 68.7925L101.721 68.6928L100.226 68.8072L98.7301 68.9216L98.7377 69.0213L100.233 68.9069ZM100.226 68.8072L101.432 69.6985L102.919 67.6859L101.713 66.7946L100.506 65.9033L99.0192 67.9159L100.226 68.8072ZM101.713 66.7946L103.208 66.9081L103.406 64.3053L101.91 64.1919L100.414 64.0784L100.217 66.6811L101.713 66.7946ZM101.91 64.1919L103.132 63.3225L101.581 61.1414L100.359 62.0107L99.1365 62.8801L100.688 65.0612L101.91 64.1919ZM100.359 62.0107L101.756 61.4654L100.782 58.9693L99.3847 59.5146L97.9873 60.06L98.9615 62.5561L100.359 62.0107ZM99.3847 59.5146L100.881 59.4122L100.701 56.7729L99.204 56.8753L97.7075 56.9777L97.8882 59.6171L99.3847 59.5146ZM99.204 56.8753L100.656 56.4999L99.9954 53.9428L98.5431 54.3181L97.0908 54.6935L97.7517 57.2507L99.204 56.8753ZM98.5431 54.3181L99.9105 53.7015L98.8256 51.2958L97.4582 51.9125L96.0908 52.5291L97.1757 54.9348L98.5431 54.3181ZM97.4582 51.9125L98.8383 51.3247L97.8069 48.9031L96.4268 49.4909L95.0468 50.0787L96.0782 52.5002L97.4582 51.9125ZM96.4268 49.4909L97.8208 48.9369L96.8379 46.4643L95.444 47.0184L94.0501 47.5725L95.0329 50.045L96.4268 49.4909ZM95.444 47.0184L96.5795 46.0383L94.831 44.0125L93.6955 44.9926L92.56 45.9727L94.3085 47.9985L95.444 47.0184ZM93.6955 44.9926L94.9822 44.2216L93.6263 41.9589L92.3396 42.7299L91.0529 43.5009L92.4088 45.7636L93.6955 44.9926ZM92.3396 42.7299L93.4931 41.771L91.8049 39.7402L90.6514 40.6991L89.4979 41.6579L91.1861 43.6887L92.3396 42.7299ZM90.6514 40.6991L91.9422 39.9349L90.5885 37.6483L89.2977 38.4124L88.007 39.1766L89.3607 41.4632L90.6514 40.6991ZM89.2977 38.4124L90.4352 37.4346L88.7123 35.4305L87.5749 36.4084L86.4374 37.3862L88.1603 39.3903L89.2977 38.4124ZM87.5749 36.4084L88.6984 35.4146L86.9492 33.4369L85.8256 34.4307L84.7021 35.4245L86.4513 37.4022L87.5749 36.4084ZM85.8256 34.4307L86.9113 33.3956L85.0856 31.4808L83.9999 32.5159L82.9143 33.551L84.74 35.4658L85.8256 34.4307ZM83.9999 32.5159L85.2947 31.7585L83.9356 29.4354L82.6409 30.1928L81.3462 30.9502L82.7052 33.2733L83.9999 32.5159ZM82.6409 30.1928L83.3127 28.8516L80.9389 27.6626L80.2671 29.0037L79.5953 30.3449L81.9691 31.5339L82.6409 30.1928ZM80.2671 29.0037L80.8821 27.6356L78.5022 26.5658L77.8873 27.934L77.2723 29.3021L79.6521 30.3719L80.2671 29.0037ZM77.8873 27.934L78.0585 26.4438L75.436 26.1424L75.2647 27.6326L75.0935 29.1228L77.716 29.4242L77.8873 27.934ZM75.2647 27.6326L75.7469 26.2122L73.2333 25.359L72.7512 26.7794L72.2691 28.1998L74.7826 29.053L75.2647 27.6326ZM72.7512 26.7794L73.1317 25.3285L70.5347 24.6474L70.1542 26.0984L69.7737 27.5493L72.3707 28.2303L72.7512 26.7794ZM70.1542 26.0984L71.399 25.2613L69.8864 23.012L68.6416 23.8491L67.3969 24.6861L68.9095 26.9354L70.1542 26.0984ZM68.6416 23.8491L70.0936 23.4724L69.4266 20.9016L67.9747 21.2783L66.5227 21.655L67.1897 24.2258L68.6416 23.8491ZM67.9747 21.2783L69.2865 20.5508L68.0285 18.2822L66.7166 19.0096L65.4048 19.737L66.6628 22.0057L67.9747 21.2783ZM66.7166 19.0096L67.8323 18.007L66.052 16.0259L64.9363 17.0285L63.8206 18.0312L65.601 20.0122L66.7166 19.0096ZM64.9363 17.0285L65.2934 15.5717L62.7007 14.9361L62.3435 16.3929L61.9864 17.8498L64.5792 18.4854L64.9363 17.0285ZM62.3435 16.3929L62.0048 14.9317L59.4869 15.5153L59.8256 16.9765L60.1643 18.4378L62.6822 17.8542L62.3435 16.3929ZM59.8256 16.9765L59.1737 15.6256L56.7657 16.7876L57.4176 18.1385L58.0695 19.4895L60.4775 18.3275L59.8256 16.9765ZM57.4176 18.1385L56.1945 17.2701L54.6494 19.4463L55.8724 20.3147L57.0955 21.1831L58.6406 19.007L57.4176 18.1385ZM55.8724 20.3147L54.4402 19.8687L53.6868 22.2883L55.1189 22.7343L56.5511 23.1803L57.3046 20.7607L55.8724 20.3147ZM55.1189 22.7343L53.6192 22.7612L53.6668 25.4105L55.1665 25.3836L56.6663 25.3566L56.6187 22.7074L55.1189 22.7343ZM55.1665 25.3836L53.7123 25.7512L54.362 28.3217L55.8163 27.9541L57.2706 27.5864L56.6208 25.016L55.1665 25.3836ZM55.8163 27.9541L54.3789 28.3829L55.1277 30.8928L56.5651 30.4639L58.0025 30.0351L57.2537 27.5252L55.8163 27.9541ZM56.5651 30.4639L56.2952 31.9395L58.6219 32.365L58.8918 30.8895L59.1617 29.414L56.835 28.9884L56.5651 30.4639ZM58.8918 30.8895L59.3892 32.3046L60.4974 31.9151L60 30.5L59.5026 29.0849L58.3944 29.4744L58.8918 30.8895Z" fill="black"/>
<path d="M58.0331 39.2048L56.6822 39.8568L56.7013 39.8965L56.7228 39.935L58.0331 39.2048ZM59.2599 41.4062L57.9496 42.1364L57.9621 42.1587L57.9753 42.1807L59.2599 41.4062ZM60.6205 43.663L59.3359 44.4375L59.3497 44.4605L59.3644 44.483L60.6205 43.663ZM62.063 45.8728L63.4648 45.339L63.4073 45.1881L63.319 45.0528L62.063 45.8728ZM63.009 48.3573L64.4964 48.1635L64.4736 47.9884L64.4108 47.8235L63.009 48.3573ZM63.3524 50.9928L64.8449 50.8432L64.8427 50.8211L64.8398 50.799L63.3524 50.9928ZM63.6156 53.6176L65.112 53.5136L65.1104 53.4908L65.1081 53.468L63.6156 53.6176ZM63.7997 56.2663L65.2823 56.4939L65.3077 56.3288L65.2961 56.1622L63.7997 56.2663ZM63.3967 58.8916L64.7754 59.4827L64.8504 59.3076L64.8793 59.1192L63.3967 58.8916ZM62.3558 61.3195L60.9772 60.7285L60.9676 60.751L60.9587 60.7737L62.3558 61.3195ZM61.3848 63.8053L62.3213 64.977L62.6355 64.7258L62.7819 64.3511L61.3848 63.8053ZM59.2941 65.4762L60.1791 66.6873L60.2053 66.6682L60.2306 66.648L59.2941 65.4762ZM57.1463 67.0459L57.7119 68.4352L57.8826 68.3657L58.0314 68.257L57.1463 67.0459ZM54.6798 68.0502L54.1142 66.6609L53.9839 66.714L53.8657 66.7903L54.6798 68.0502ZM52.4604 69.4843L51.6463 68.2245L51.5639 68.2777L51.4892 68.3412L52.4604 69.4843ZM50.4712 71.1742L49.5001 70.031L49.16 70.3199L49.0331 70.7478L50.4712 71.1742ZM49.7446 73.6249L51.1643 74.1092L51.1741 74.0805L51.1827 74.0513L49.7446 73.6249ZM48.8805 76.1582L47.4608 75.674L47.358 75.9754L47.3865 76.2926L48.8805 76.1582ZM49.1206 78.8274L50.6077 79.0241L50.6295 78.8589L50.6146 78.693L49.1206 78.8274ZM48.7735 81.4515L47.2865 81.2548L47.2676 81.3972L47.2762 81.5407L48.7735 81.4515ZM48.9307 84.0891L50.4256 84.2123L50.4343 84.1062L50.428 83.9999L48.9307 84.0891ZM48.7111 86.7524L47.2162 86.6292L47.1879 86.9726L47.3123 87.294L48.7111 86.7524ZM49.6679 89.2237L50.9495 90.003L51.3336 89.3715L51.0667 88.6821L49.6679 89.2237ZM57.9896 39.1147L56.6387 39.7667L56.6822 39.8568L58.0331 39.2048L59.384 38.5528L59.3405 38.4628L57.9896 39.1147ZM58.0331 39.2048L56.7228 39.935L57.9496 42.1364L59.2599 41.4062L60.5702 40.676L59.3433 38.4746L58.0331 39.2048ZM59.2599 41.4062L57.9753 42.1807L59.3359 44.4375L60.6205 43.663L61.9051 42.8886L60.5445 40.6317L59.2599 41.4062ZM60.6205 43.663L59.3644 44.483L60.8069 46.6927L62.063 45.8728L63.319 45.0528L61.8765 42.8431L60.6205 43.663ZM62.063 45.8728L60.6612 46.4065L61.6072 48.891L63.009 48.3573L64.4108 47.8235L63.4648 45.339L62.063 45.8728ZM63.009 48.3573L61.5216 48.5511L61.865 51.1866L63.3524 50.9928L64.8398 50.799L64.4964 48.1635L63.009 48.3573ZM63.3524 50.9928L61.8599 51.1425L62.123 53.7673L63.6156 53.6176L65.1081 53.468L64.8449 50.8432L63.3524 50.9928ZM63.6156 53.6176L62.1192 53.7217L62.3033 56.3703L63.7997 56.2663L65.2961 56.1622L65.112 53.5136L63.6156 53.6176ZM63.7997 56.2663L62.3171 56.0387L61.9141 58.664L63.3967 58.8916L64.8793 59.1192L65.2823 56.4939L63.7997 56.2663ZM63.3967 58.8916L62.018 58.3006L60.9772 60.7285L62.3558 61.3195L63.7345 61.9106L64.7754 59.4827L63.3967 58.8916ZM62.3558 61.3195L60.9587 60.7737L59.9876 63.2595L61.3848 63.8053L62.7819 64.3511L63.753 61.8654L62.3558 61.3195ZM61.3848 63.8053L60.4483 62.6335L58.3576 64.3045L59.2941 65.4762L60.2306 66.648L62.3213 64.977L61.3848 63.8053ZM59.2941 65.4762L58.409 64.2652L56.2612 65.8349L57.1463 67.0459L58.0314 68.257L60.1791 66.6873L59.2941 65.4762ZM57.1463 67.0459L56.5806 65.6566L54.1142 66.6609L54.6798 68.0502L55.2455 69.4394L57.7119 68.4352L57.1463 67.0459ZM54.6798 68.0502L53.8657 66.7903L51.6463 68.2245L52.4604 69.4843L53.2745 70.7442L55.4939 69.31L54.6798 68.0502ZM52.4604 69.4843L51.4892 68.3412L49.5001 70.031L50.4712 71.1742L51.4424 72.3173L53.4315 70.6275L52.4604 69.4843ZM50.4712 71.1742L49.0331 70.7478L48.3065 73.1986L49.7446 73.6249L51.1827 74.0513L51.9094 71.6006L50.4712 71.1742ZM49.7446 73.6249L48.3249 73.1407L47.4608 75.674L48.8805 76.1582L50.3002 76.6425L51.1643 74.1092L49.7446 73.6249ZM48.8805 76.1582L47.3865 76.2926L47.6267 78.9618L49.1206 78.8274L50.6146 78.693L50.3744 76.0238L48.8805 76.1582ZM49.1206 78.8274L47.6336 78.6307L47.2865 81.2548L48.7735 81.4515L50.2606 81.6482L50.6077 79.0241L49.1206 78.8274ZM48.7735 81.4515L47.2762 81.5407L47.4333 84.1783L48.9307 84.0891L50.428 83.9999L50.2709 81.3623L48.7735 81.4515ZM48.9307 84.0891L47.4357 83.9659L47.2162 86.6292L48.7111 86.7524L50.2061 86.8757L50.4256 84.2123L48.9307 84.0891ZM48.7111 86.7524L47.3123 87.294L48.269 89.7652L49.6679 89.2237L51.0667 88.6821L50.11 86.2109L48.7111 86.7524ZM49.6679 89.2237L48.3862 88.4443L48.2182 88.7206L49.4998 89.5L50.7814 90.2794L50.9495 90.003L49.6679 89.2237Z" fill="black"/>
<path d="M78.3955 36.7649L79.6813 35.9924L79.5938 35.8468L79.476 35.7244L78.3955 36.7649ZM79.6873 38.9149L78.4016 39.6874L78.4699 39.8011L78.5571 39.9011L79.6873 38.9149ZM81.4296 40.9118L80.2993 41.8979L80.4478 42.0681L80.6397 42.187L81.4296 40.9118ZM83.6885 42.3109L84.6612 41.169L84.5748 41.0954L84.4784 41.0357L83.6885 42.3109ZM85.7107 44.0333L86.9097 43.1319L86.8099 42.9991L86.6834 42.8914L85.7107 44.0333ZM87.3068 46.1562L88.5186 45.2722L88.5122 45.2635L88.5057 45.2549L87.3068 46.1562ZM88.8615 48.2875L90.0735 47.4038L90.0733 47.4035L88.8615 48.2875ZM90.4235 50.4298L91.7466 49.723L91.6972 49.6306L91.6355 49.546L90.4235 50.4298ZM91.6686 52.7605L93.0531 52.1834L93.0255 52.1171L92.9916 52.0537L91.6686 52.7605ZM92.6913 55.2143L91.3067 55.7914L91.3883 55.9871L91.5209 56.1525L92.6913 55.2143ZM94.3645 57.3016L95.7827 56.813L95.6979 56.5667L95.5349 56.3634L94.3645 57.3016ZM95.235 59.8285L96.7335 59.7612L96.7238 59.5448L96.6532 59.3399L95.235 59.8285ZM95.3526 62.4475L93.8541 62.5148L93.8587 62.6175L93.8773 62.7186L95.3526 62.4475ZM95.823 65.0078L94.3477 65.2789L94.4217 65.682L94.6905 65.9914L95.823 65.0078ZM97.5546 67.0016L96.422 67.9852L96.5392 68.1201L96.6848 68.2237L97.5546 67.0016ZM99.6973 68.5266L100.967 67.7286L100.809 67.4768L100.567 67.3045L99.6973 68.5266ZM78.3262 36.6929L77.2457 37.7334L77.3151 37.8054L78.3955 36.7649L79.476 35.7244L79.4066 35.6524L78.3262 36.6929ZM78.3955 36.7649L77.1098 37.5374L78.4016 39.6874L79.6873 38.9149L80.9731 38.1424L79.6813 35.9924L78.3955 36.7649ZM79.6873 38.9149L78.5571 39.9011L80.2993 41.8979L81.4296 40.9118L82.5599 39.9256L80.8176 37.9287L79.6873 38.9149ZM81.4296 40.9118L80.6397 42.187L82.8987 43.5861L83.6885 42.3109L84.4784 41.0357L82.2194 39.6366L81.4296 40.9118ZM83.6885 42.3109L82.7159 43.4528L84.7381 45.1752L85.7107 44.0333L86.6834 42.8914L84.6612 41.169L83.6885 42.3109ZM85.7107 44.0333L84.5118 44.9347L86.1078 47.0576L87.3068 46.1562L88.5057 45.2549L86.9097 43.1319L85.7107 44.0333ZM87.3068 46.1562L86.0949 47.0403L87.6497 49.1715L88.8615 48.2875L90.0733 47.4035L88.5186 45.2722L87.3068 46.1562ZM88.8615 48.2875L87.6495 49.1712L89.2115 51.3135L90.4235 50.4298L91.6355 49.546L90.0735 47.4038L88.8615 48.2875ZM90.4235 50.4298L89.1005 51.1366L90.3455 53.4673L91.6686 52.7605L92.9916 52.0537L91.7466 49.723L90.4235 50.4298ZM91.6686 52.7605L90.284 53.3376L91.3067 55.7914L92.6913 55.2143L94.0759 54.6372L93.0531 52.1834L91.6686 52.7605ZM92.6913 55.2143L91.5209 56.1525L93.1941 58.2398L94.3645 57.3016L95.5349 56.3634L93.8617 54.2761L92.6913 55.2143ZM94.3645 57.3016L92.9463 57.7902L93.8168 60.317L95.235 59.8285L96.6532 59.3399L95.7827 56.813L94.3645 57.3016ZM95.235 59.8285L93.7365 59.8957L93.8541 62.5148L95.3526 62.4475L96.8511 62.3802L96.7335 59.7612L95.235 59.8285ZM95.3526 62.4475L93.8773 62.7186L94.3477 65.2789L95.823 65.0078L97.2983 64.7368L96.8279 62.1764L95.3526 62.4475ZM95.823 65.0078L94.6905 65.9914L96.422 67.9852L97.5546 67.0016L98.6871 66.018L96.9555 64.0243L95.823 65.0078ZM97.5546 67.0016L96.6848 68.2237L98.8276 69.7487L99.6973 68.5266L100.567 67.3045L98.4243 65.7795L97.5546 67.0016ZM99.6973 68.5266L98.4272 69.3246L98.9672 70.184L100.237 69.386L101.507 68.5879L100.967 67.7286L99.6973 68.5266Z" fill="black"/>
<path d="M35.4146 29.0259L34.1845 29.8842L34.2843 30.0272L34.4141 30.1434L35.4146 29.0259ZM37.3149 30.7271L38.6158 29.9805L38.4955 29.7708L38.3154 29.6096L37.3149 30.7271ZM38.6345 33.0264L37.3335 33.7731L37.3776 33.8499L37.4304 33.921L38.6345 33.0264ZM40.2143 35.153L41.486 34.3574L41.4542 34.3066L41.4184 34.2584L40.2143 35.153ZM41.6152 37.3923L42.9494 36.7068L42.9204 36.6504L42.8868 36.5967L41.6152 37.3923ZM42.8229 39.7431L41.4887 40.4285L41.5614 40.57L41.6621 40.6931L42.8229 39.7431ZM44.4922 41.7827L43.3314 42.7327L43.6255 43.092L44.0711 43.2224L44.4922 41.7827ZM46.9606 42.5045L46.5395 43.9442L46.7735 44.0127L47.0172 44.0035L46.9606 42.5045ZM49.5531 42.4066L49.6098 43.9055L49.6859 43.9026L49.7614 43.892L49.5531 42.4066ZM52.1897 42.037L52.3979 43.5225L52.6667 43.4848L52.9052 43.3553L52.1897 42.037ZM54.5439 40.7593L54.1308 39.3173L53.9728 39.3625L53.8283 39.4409L54.5439 40.7593ZM57.093 40.029L56.8216 38.5538L56.7499 38.567L56.6799 38.587L57.093 40.029ZM35.3574 28.9438L34.1273 29.8022L34.1845 29.8842L35.4146 29.0259L36.6448 28.1675L36.5875 28.0855L35.3574 28.9438ZM35.4146 29.0259L34.4141 30.1434L36.3143 31.8447L37.3149 30.7271L38.3154 29.6096L36.4152 27.9083L35.4146 29.0259ZM37.3149 30.7271L36.0139 31.4738L37.3335 33.7731L38.6345 33.0264L39.9355 32.2798L38.6158 29.9805L37.3149 30.7271ZM38.6345 33.0264L37.4304 33.921L39.0102 36.0475L40.2143 35.153L41.4184 34.2584L39.8386 32.1319L38.6345 33.0264ZM40.2143 35.153L38.9426 35.9485L40.3435 38.1878L41.6152 37.3923L42.8868 36.5967L41.486 34.3574L40.2143 35.153ZM41.6152 37.3923L40.281 38.0777L41.4887 40.4285L42.8229 39.7431L44.1572 39.0576L42.9494 36.7068L41.6152 37.3923ZM42.8229 39.7431L41.6621 40.6931L43.3314 42.7327L44.4922 41.7827L45.653 40.8326L43.9837 38.7931L42.8229 39.7431ZM44.4922 41.7827L44.0711 43.2224L46.5395 43.9442L46.9606 42.5045L47.3816 41.0648L44.9132 40.343L44.4922 41.7827ZM46.9606 42.5045L47.0172 44.0035L49.6098 43.9055L49.5531 42.4066L49.4965 40.9076L46.9039 41.0056L46.9606 42.5045ZM49.5531 42.4066L49.7614 43.892L52.3979 43.5225L52.1897 42.037L51.9815 40.5515L49.3449 40.9211L49.5531 42.4066ZM52.1897 42.037L52.9052 43.3553L55.2594 42.0776L54.5439 40.7593L53.8283 39.4409L51.4742 40.7187L52.1897 42.037ZM54.5439 40.7593L54.9569 42.2013L57.5061 41.471L57.093 40.029L56.6799 38.587L54.1308 39.3173L54.5439 40.7593ZM57.093 40.029L57.3645 41.5043L58.3833 41.3168L58.1119 39.8416L57.8404 38.3663L56.8216 38.5538L57.093 40.029Z" fill="black"/>
<path d="M63.6034 4.54807L62.6479 3.39177L62.6064 3.42609L62.5674 3.4633L63.6034 4.54807ZM61.7639 6.30488L62.6023 7.54871L62.7078 7.47756L62.7999 7.38965L61.7639 6.30488ZM59.563 7.78835L58.7246 6.54452L58.608 6.6231L58.5081 6.72198L59.563 7.78835ZM57.6778 9.65331L58.6603 10.7868L58.6976 10.7544L58.7327 10.7197L57.6778 9.65331ZM55.6807 11.3845L56.5184 12.6287L56.5942 12.5777L56.6631 12.5179L55.6807 11.3845ZM53.484 12.8635L52.6463 11.6192L52.599 11.6511L52.5543 11.6864L53.484 12.8635ZM51.4123 14.4999L50.4825 13.3229L50.4339 13.3612L50.3887 13.4035L51.4123 14.4999ZM49.4782 16.3056L50.3969 17.4913L50.4514 17.4491L50.5018 17.402L49.4782 16.3056ZM47.3908 17.9229L48.1949 19.1891L48.2541 19.1515L48.3094 19.1086L47.3908 17.9229ZM45.1473 19.3477L44.3431 18.0815L44.1725 18.1899L44.0366 18.3396L45.1473 19.3477ZM43.349 21.329L44.2305 22.5426L44.3557 22.4516L44.4597 22.3371L43.349 21.329ZM41.2334 22.8657L40.3519 21.6521L39.641 22.1685L39.7437 23.041L41.2334 22.8657ZM41.5086 25.2036L40.0189 25.3789L40.0387 25.5476L40.0958 25.7076L41.5086 25.2036ZM42.3988 27.6987L40.986 28.2027L41.0514 28.386L41.1615 28.5466L42.3988 27.6987ZM43.8931 29.8791L42.6557 30.727L42.6977 30.7883L42.7455 30.845L43.8931 29.8791ZM45.5899 31.8949L44.4424 32.8609L44.5019 32.9316L44.5696 32.9944L45.5899 31.8949ZM47.5164 33.6827L46.4961 34.7822L46.6739 34.9471L46.8946 35.0477L47.5164 33.6827ZM49.7467 34.6987L49.1248 36.0637L49.9911 36.4584L50.7171 35.8425L49.7467 34.6987ZM51.7972 32.959L51.3245 31.5355L51.0485 31.6271L50.8268 31.8152L51.7972 32.959ZM54.3283 32.1185L54.1207 30.633L53.9853 30.6519L53.8556 30.695L54.3283 32.1185ZM56.96 31.7507L57.6222 30.4048L57.2087 30.2013L56.7523 30.2651L56.96 31.7507ZM59.346 32.9248L58.6837 34.2707L58.8203 34.3379L58.9677 34.3763L59.346 32.9248ZM61.9406 33.601L62.488 32.2044L62.4051 32.1719L62.3189 32.1494L61.9406 33.601ZM64.3268 34.5364L63.7794 35.933L64.5496 36.2349L65.2159 35.7446L64.3268 34.5364ZM66.1817 33.1714L67.0708 34.3795L67.5651 34.0157L67.6626 33.4097L66.1817 33.1714ZM66.4746 31.3509L66.6007 29.8562L65.2146 29.7393L64.9936 31.1127L66.4746 31.3509ZM63.6805 4.48438L62.725 3.32807L62.6479 3.39177L63.6034 4.54807L64.5589 5.70438L64.636 5.64068L63.6805 4.48438ZM63.6034 4.54807L62.5674 3.4633L60.7279 5.2201L61.7639 6.30488L62.7999 7.38965L64.6394 5.63285L63.6034 4.54807ZM61.7639 6.30488L60.9255 5.06105L58.7246 6.54452L59.563 7.78835L60.4014 9.03218L62.6023 7.54871L61.7639 6.30488ZM59.563 7.78835L58.5081 6.72198L56.6229 8.58694L57.6778 9.65331L58.7327 10.7197L60.6179 8.85472L59.563 7.78835ZM57.6778 9.65331L56.6953 8.51986L54.6982 10.251L55.6807 11.3845L56.6631 12.5179L58.6603 10.7868L57.6778 9.65331ZM55.6807 11.3845L54.8429 10.1402L52.6463 11.6192L53.484 12.8635L54.3218 14.1077L56.5184 12.6287L55.6807 11.3845ZM53.484 12.8635L52.5543 11.6864L50.4825 13.3229L51.4123 14.4999L52.3421 15.677L54.4138 14.0406L53.484 12.8635ZM51.4123 14.4999L50.3887 13.4035L48.4546 15.2092L49.4782 16.3056L50.5018 17.402L52.4359 15.5964L51.4123 14.4999ZM49.4782 16.3056L48.5595 15.1198L46.4721 16.7371L47.3908 17.9229L48.3094 19.1086L50.3969 17.4913L49.4782 16.3056ZM47.3908 17.9229L46.5866 16.6567L44.3431 18.0815L45.1473 19.3477L45.9515 20.6139L48.1949 19.1891L47.3908 17.9229ZM45.1473 19.3477L44.0366 18.3396L42.2383 20.3208L43.349 21.329L44.4597 22.3371L46.258 20.3559L45.1473 19.3477ZM43.349 21.329L42.4674 20.1154L40.3519 21.6521L41.2334 22.8657L42.115 24.0793L44.2305 22.5426L43.349 21.329ZM41.2334 22.8657L39.7437 23.041L40.0189 25.3789L41.5086 25.2036L42.9983 25.0282L42.7232 22.6904L41.2334 22.8657ZM41.5086 25.2036L40.0958 25.7076L40.986 28.2027L42.3988 27.6987L43.8116 27.1946L42.9214 24.6995L41.5086 25.2036ZM42.3988 27.6987L41.1615 28.5466L42.6557 30.727L43.8931 29.8791L45.1304 29.0311L43.6361 26.8507L42.3988 27.6987ZM43.8931 29.8791L42.7455 30.845L44.4424 32.8609L45.5899 31.8949L46.7375 30.9289L45.0406 28.9131L43.8931 29.8791ZM45.5899 31.8949L44.5696 32.9944L46.4961 34.7822L47.5164 33.6827L48.5368 32.5832L46.6103 30.7954L45.5899 31.8949ZM47.5164 33.6827L46.8946 35.0477L49.1248 36.0637L49.7467 34.6987L50.3685 33.3336L48.1383 32.3176L47.5164 33.6827ZM49.7467 34.6987L50.7171 35.8425L52.7676 34.1028L51.7972 32.959L50.8268 31.8152L48.7763 33.5548L49.7467 34.6987ZM51.7972 32.959L52.2699 34.3826L54.801 33.5421L54.3283 32.1185L53.8556 30.695L51.3245 31.5355L51.7972 32.959ZM54.3283 32.1185L54.536 33.6041L57.1676 33.2362L56.96 31.7507L56.7523 30.2651L54.1207 30.633L54.3283 32.1185ZM56.96 31.7507L56.2977 33.0966L58.6837 34.2707L59.346 32.9248L60.0082 31.5789L57.6222 30.4048L56.96 31.7507ZM59.346 32.9248L58.9677 34.3763L61.5623 35.0525L61.9406 33.601L62.3189 32.1494L59.7243 31.4733L59.346 32.9248ZM61.9406 33.601L61.3931 34.9975L63.7794 35.933L64.3268 34.5364L64.8743 33.1399L62.488 32.2044L61.9406 33.601ZM64.3268 34.5364L65.2159 35.7446L67.0708 34.3795L66.1817 33.1714L65.2926 31.9633L63.4378 33.3283L64.3268 34.5364ZM66.1817 33.1714L67.6626 33.4097L67.9555 31.5892L66.4746 31.3509L64.9936 31.1127L64.7007 32.9332L66.1817 33.1714ZM66.4746 31.3509L66.3485 32.8456L66.4623 32.8552L66.5884 31.3605L66.7145 29.8658L66.6007 29.8562L66.4746 31.3509Z" fill="black"/>
<path d="M80.7392 41.0997L82.1075 41.7144L82.2161 41.4726L82.2353 41.2082L80.7392 41.0997ZM79.7263 43.3544L78.3581 42.7397L78.2734 42.928L78.2429 43.1322L79.7263 43.3544ZM79.3341 45.9733L77.8507 45.7512L77.8191 45.9616L77.8474 46.1726L79.3341 45.9733ZM79.6868 48.6046L81.1775 48.4386L81.1757 48.422L81.1735 48.4054L79.6868 48.6046ZM79.9789 51.2283L81.4789 51.2275L81.4788 51.1446L81.4697 51.0623L79.9789 51.2283ZM79.9802 53.8763L78.4802 53.877L78.4803 53.917L78.4824 53.957L79.9802 53.8763ZM80.1223 56.5116L78.6244 56.5924L78.6253 56.6078L78.6264 56.6233L80.1223 56.5116ZM80.3197 59.1573L81.8086 59.3392L81.8265 59.1928L81.8155 59.0457L80.3197 59.1573ZM79.9978 61.7929L81.4014 62.3221L81.465 62.1535L81.4868 61.9748L79.9978 61.7929ZM79.0658 64.2653L77.6623 63.7362L77.6416 63.7909L77.6253 63.8471L79.0658 64.2653ZM78.3212 66.8299L79.4423 67.8265L79.6673 67.5734L79.7617 67.2481L78.3212 66.8299ZM76.5467 68.826L77.566 69.9265L77.6194 69.877L77.6678 69.8226L76.5467 68.826ZM74.5893 70.6387L75.1619 72.0252L75.4109 71.9223L75.6086 71.7393L74.5893 70.6387ZM72.1169 71.6597L71.5444 70.2732L71.5332 70.278L72.1169 71.6597ZM69.6867 72.6865L70.1152 74.1239L70.1944 74.1003L70.2705 74.0682L69.6867 72.6865ZM67.1528 73.4419L66.7242 72.0044L66.7234 72.0047L67.1528 73.4419ZM64.6221 74.1979L64.7905 75.6885L64.9233 75.6735L65.0515 75.6352L64.6221 74.1979ZM61.9592 74.4987L61.7908 73.0082L61.4054 73.0517L61.0894 73.2766L61.9592 74.4987ZM59.8135 76.0259L58.9437 74.8038L58.7403 74.9485L58.5948 75.1513L59.8135 76.0259ZM58.3511 78.0637L57.1324 77.1892L56.8856 77.5331L56.855 77.9553L58.3511 78.0637ZM58.1616 80.6798L59.6512 80.8561L59.6552 80.8222L59.6577 80.7882L58.1616 80.6798ZM57.848 83.3294L56.3584 83.1531L56.3239 83.4443L56.4016 83.727L57.848 83.3294ZM58.5602 85.9204L60.059 85.8618L60.0523 85.6893L60.0065 85.5228L58.5602 85.9204ZM58.6637 88.5673L60.1636 88.5831L60.164 88.5459L60.1625 88.5087L58.6637 88.5673ZM58.6357 91.2225L60.003 91.8394L60.1323 91.5527L60.1356 91.2383L58.6357 91.2225ZM80.7464 41L79.2504 40.8915L79.2431 40.9913L80.7392 41.0997L82.2353 41.2082L82.2425 41.1085L80.7464 41ZM80.7392 41.0997L79.3709 40.4851L78.3581 42.7397L79.7263 43.3544L81.0946 43.9691L82.1075 41.7144L80.7392 41.0997ZM79.7263 43.3544L78.2429 43.1322L77.8507 45.7512L79.3341 45.9733L80.8176 46.1955L81.2098 43.5765L79.7263 43.3544ZM79.3341 45.9733L77.8474 46.1726L78.2001 48.8038L79.6868 48.6046L81.1735 48.4054L80.8208 45.7741L79.3341 45.9733ZM79.6868 48.6046L78.196 48.7706L78.4881 51.3942L79.9789 51.2283L81.4697 51.0623L81.1775 48.4386L79.6868 48.6046ZM79.9789 51.2283L78.4789 51.229L78.4802 53.877L79.9802 53.8763L81.4802 53.8755L81.4789 51.2275L79.9789 51.2283ZM79.9802 53.8763L78.4824 53.957L78.6244 56.5924L80.1223 56.5116L81.6201 56.4309L81.4781 53.7955L79.9802 53.8763ZM80.1223 56.5116L78.6264 56.6233L78.8238 59.269L80.3197 59.1573L81.8155 59.0457L81.6181 56.4L80.1223 56.5116ZM80.3197 59.1573L78.8307 58.9755L78.5089 61.6111L79.9978 61.7929L81.4868 61.9748L81.8086 59.3392L80.3197 59.1573ZM79.9978 61.7929L78.5943 61.2638L77.6623 63.7362L79.0658 64.2653L80.4694 64.7944L81.4014 62.3221L79.9978 61.7929ZM79.0658 64.2653L77.6253 63.8471L76.8807 66.4116L78.3212 66.8299L79.7617 67.2481L80.5063 64.6836L79.0658 64.2653ZM78.3212 66.8299L77.2001 65.8333L75.4257 67.8294L76.5467 68.826L77.6678 69.8226L79.4423 67.8265L78.3212 66.8299ZM76.5467 68.826L75.5275 67.7254L73.5701 69.5382L74.5893 70.6387L75.6086 71.7393L77.566 69.9265L76.5467 68.826ZM74.5893 70.6387L74.0168 69.2523L71.5444 70.2733L72.1169 71.6597L72.6895 73.0462L75.1619 72.0252L74.5893 70.6387ZM72.1169 71.6597L71.5332 70.278L69.1029 71.3047L69.6867 72.6865L70.2705 74.0682L72.7007 73.0415L72.1169 71.6597ZM69.6867 72.6865L69.2581 71.249L66.7242 72.0044L67.1528 73.4419L67.5814 74.8794L70.1152 74.1239L69.6867 72.6865ZM67.1528 73.4419L66.7234 72.0047L64.1927 72.7607L64.6221 74.1979L65.0515 75.6352L67.5822 74.8791L67.1528 73.4419ZM64.6221 74.1979L64.4538 72.7074L61.7908 73.0082L61.9592 74.4987L62.1275 75.9892L64.7905 75.6885L64.6221 74.1979ZM61.9592 74.4987L61.0894 73.2766L58.9437 74.8038L59.8135 76.0259L60.6833 77.2479L62.829 75.7208L61.9592 74.4987ZM59.8135 76.0259L58.5948 75.1513L57.1324 77.1892L58.3511 78.0637L59.5698 78.9382L61.0322 76.9004L59.8135 76.0259ZM58.3511 78.0637L56.855 77.9553L56.6655 80.5714L58.1616 80.6798L59.6577 80.7882L59.8472 78.1721L58.3511 78.0637ZM58.1616 80.6798L56.672 80.5035L56.3584 83.1531L57.848 83.3294L59.3376 83.5057L59.6512 80.8561L58.1616 80.6798ZM57.848 83.3294L56.4016 83.727L57.1138 86.318L58.5602 85.9204L60.0065 85.5228L59.2944 82.9318L57.848 83.3294ZM58.5602 85.9204L57.0613 85.979L57.1648 88.6259L58.6637 88.5673L60.1625 88.5087L60.059 85.8618L58.5602 85.9204ZM58.6637 88.5673L57.1637 88.5515L57.1358 91.2068L58.6357 91.2225L60.1356 91.2383L60.1636 88.5831L58.6637 88.5673ZM58.6357 91.2225L57.2684 90.6057L57.1707 90.8223L58.538 91.4391L59.9054 92.0559L60.003 91.8394L58.6357 91.2225Z" fill="black"/>
<path d="M88.2958 84.9487L88.596 86.4184L88.9607 86.3439L89.2483 86.1075L88.2958 84.9487ZM85.8279 85.4529L85.5277 83.9832L85.4502 83.999L85.3748 84.0229L85.8279 85.4529ZM83.3027 86.2531L82.8496 84.8232L82.6507 84.8862L82.4765 85.0011L83.3027 86.2531ZM81.1501 87.6737L80.3239 86.4218L79.8094 86.7612L79.6823 87.3644L81.1501 87.6737ZM80.6219 90.1798L82.0681 90.5778L82.0802 90.5338L82.0897 90.4891L80.6219 90.1798ZM79.9165 92.7426L81.3379 93.2219L81.3515 93.1816L81.3627 93.1406L79.9165 92.7426ZM79.0766 95.2334L80.1476 96.2837L80.3882 96.0383L80.498 95.7127L79.0766 95.2334ZM77.2166 97.13L76.9332 98.603L77.7238 98.7551L78.2876 98.1803L77.2166 97.13ZM88.3731 84.8852L87.4206 83.7264L87.3434 83.7899L88.2958 84.9487L89.2483 86.1075L89.3255 86.044L88.3731 84.8852ZM88.2958 84.9487L87.9956 83.4791L85.5277 83.9832L85.8279 85.4529L86.1281 86.9225L88.596 86.4184L88.2958 84.9487ZM85.8279 85.4529L85.3748 84.0229L82.8496 84.8232L83.3027 86.2531L83.7559 87.683L86.2811 86.8828L85.8279 85.4529ZM83.3027 86.2531L82.4765 85.0011L80.3239 86.4218L81.1501 87.6737L81.9763 88.9257L84.1289 87.5051L83.3027 86.2531ZM81.1501 87.6737L79.6823 87.3644L79.1541 89.8704L80.6219 90.1798L82.0897 90.4891L82.6178 87.9831L81.1501 87.6737ZM80.6219 90.1798L79.1757 89.7817L78.4703 92.3445L79.9165 92.7426L81.3627 93.1406L82.0681 90.5778L80.6219 90.1798ZM79.9165 92.7426L78.4951 92.2633L77.6553 94.7541L79.0766 95.2334L80.498 95.7127L81.3379 93.2219L79.9165 92.7426ZM79.0766 95.2334L78.0057 94.1831L76.1457 96.0798L77.2166 97.13L78.2876 98.1803L80.1476 96.2837L79.0766 95.2334ZM77.2166 97.13L77.5001 95.657L76.7922 95.5208L76.5088 96.9938L76.2253 98.4668L76.9332 98.603L77.2166 97.13Z" fill="black"/>
<path d="M90.5247 81.5916L91.8627 82.2696L91.938 82.1212L91.9788 81.9598L90.5247 81.5916ZM89.3849 83.8408L88.0469 83.1628L87.9853 83.2842L87.9467 83.4148L89.3849 83.8408ZM88.6319 86.3829L87.1937 85.9569L87.1089 86.2432L87.1402 86.5402L88.6319 86.3829ZM88.9108 89.0273L90.3772 89.3427L90.4276 89.1084L90.4025 88.87L88.9108 89.0273ZM88.3505 91.632L89.6977 92.2916L89.7783 92.1268L89.8169 91.9475L88.3505 91.632ZM87.1827 94.0174L85.8354 93.3579L85.8221 93.3851L85.8099 93.4129L87.1827 94.0174ZM86.1184 96.4342L84.7456 95.8297L84.7084 95.9141L84.6819 96.0024L86.1184 96.4342ZM85.3596 98.9586L83.9231 98.5268L83.873 98.6936L83.8624 98.8676L85.3596 98.9586ZM85.207 101.471L83.7098 101.38L83.7055 101.449L83.7078 101.519L85.207 101.471ZM85.2521 102.853L83.7529 102.902L83.8105 104.67L85.5451 104.324L85.2521 102.853ZM90.5493 81.4946L89.0952 81.1264L89.0706 81.2233L90.5247 81.5916L91.9788 81.9598L92.0034 81.8629L90.5493 81.4946ZM90.5247 81.5916L89.1867 80.9135L88.0469 83.1628L89.3849 83.8408L90.7229 84.5189L91.8627 82.2696L90.5247 81.5916ZM89.3849 83.8408L87.9467 83.4148L87.1937 85.9569L88.6319 86.3829L90.0701 86.8089L90.8231 84.2668L89.3849 83.8408ZM88.6319 86.3829L87.1402 86.5402L87.419 89.1846L88.9108 89.0273L90.4025 88.87L90.1236 86.2256L88.6319 86.3829ZM88.9108 89.0273L87.4443 88.7118L86.884 91.3166L88.3505 91.632L89.8169 91.9475L90.3772 89.3427L88.9108 89.0273ZM88.3505 91.632L87.0032 90.9725L85.8354 93.3579L87.1827 94.0174L88.5299 94.677L89.6977 92.2916L88.3505 91.632ZM87.1827 94.0174L85.8099 93.4129L84.7456 95.8297L86.1184 96.4342L87.4912 97.0387L88.5554 94.622L87.1827 94.0174ZM86.1184 96.4342L84.6819 96.0024L83.9231 98.5268L85.3596 98.9586L86.7962 99.3903L87.5549 96.866L86.1184 96.4342ZM85.3596 98.9586L83.8624 98.8676L83.7098 101.38L85.207 101.471L86.7042 101.561L86.8569 99.0495L85.3596 98.9586ZM85.207 101.471L83.7078 101.519L83.7529 102.902L85.2521 102.853L86.7513 102.804L86.7062 101.422L85.207 101.471ZM85.2521 102.853L85.5451 104.324L85.7583 104.282L85.4653 102.811L85.1722 101.339L84.959 101.382L85.2521 102.853Z" fill="black"/>
<path d="M37.243 22.0086L37.9185 23.3479L38.3353 23.1377L38.5592 22.7281L37.243 22.0086ZM35.0163 23.1317L34.3408 21.7924L33.7568 22.0869L33.5753 22.7152L35.0163 23.1317ZM34.3102 25.5748L32.8692 25.1583L32.7263 25.6527L32.917 26.1306L34.3102 25.5748ZM35.297 28.0484L36.4666 28.9875L37.0144 28.3053L36.6902 27.4926L35.297 28.0484ZM33.7316 29.998L34.5583 31.2497L34.7542 31.1202L34.9012 30.9372L33.7316 29.998ZM31.5218 31.4576L30.6951 30.206L30.649 30.2364L30.6053 30.2701L31.5218 31.4576ZM29.4317 33.0705L28.5153 31.883L28.4683 31.9193L28.4243 31.9592L29.4317 33.0705ZM27.4712 34.8479L28.3732 36.0464L28.428 36.0052L28.4787 35.9592L27.4712 34.8479ZM25.3622 36.4352L26.1703 37.699L26.2185 37.6681L26.2642 37.6337L25.3622 36.4352ZM23.1216 37.8679L22.3136 36.6042L22.1236 36.7257L21.9777 36.8976L23.1216 37.8679ZM21.3912 39.9081L22.0814 41.2398L22.3439 41.1038L22.5351 40.8783L21.3912 39.9081ZM37.2909 21.9209L35.9747 21.2015L35.9268 21.2892L37.243 22.0086L38.5592 22.7281L38.6072 22.6403L37.2909 21.9209ZM37.243 22.0086L36.5675 20.6694L34.3408 21.7924L35.0163 23.1317L35.6918 24.471L37.9185 23.3479L37.243 22.0086ZM35.0163 23.1317L33.5753 22.7152L32.8692 25.1583L34.3102 25.5748L35.7512 25.9913L36.4573 23.5482L35.0163 23.1317ZM34.3102 25.5748L32.917 26.1306L33.9038 28.6042L35.297 28.0484L36.6902 27.4926L35.7034 25.019L34.3102 25.5748ZM35.297 28.0484L34.1274 27.1093L32.5619 29.0589L33.7316 29.998L34.9012 30.9372L36.4666 28.9875L35.297 28.0484ZM33.7316 29.998L32.9049 28.7464L30.6951 30.206L31.5218 31.4576L32.3485 32.7092L34.5583 31.2497L33.7316 29.998ZM31.5218 31.4576L30.6053 30.2701L28.5153 31.883L29.4317 33.0705L30.3482 34.258L32.4382 32.6451L31.5218 31.4576ZM29.4317 33.0705L28.4243 31.9592L26.4637 33.7366L27.4712 34.8479L28.4787 35.9592L30.4392 34.1818L29.4317 33.0705ZM27.4712 34.8479L26.5692 33.6494L24.4602 35.2368L25.3622 36.4352L26.2642 37.6337L28.3732 36.0464L27.4712 34.8479ZM25.3622 36.4352L24.5541 35.1715L22.3136 36.6042L23.1216 37.8679L23.9297 39.1317L26.1703 37.699L25.3622 36.4352ZM23.1216 37.8679L21.9777 36.8976L20.2473 38.9378L21.3912 39.9081L22.5351 40.8783L24.2656 38.8382L23.1216 37.8679ZM21.3912 39.9081L20.701 38.5763L19.8947 38.9941L20.585 40.3259L21.2752 41.6577L22.0814 41.2398L21.3912 39.9081Z" fill="black"/>
<path d="M72.1154 70.5993L70.6261 70.7782L70.6685 71.1308L70.8645 71.4271L72.1154 70.5993ZM73.526 72.7309L75.0168 72.565L74.9767 72.2051L74.7769 71.9031L73.526 72.7309ZM73.8183 75.3584L72.3275 75.5243L72.3284 75.5321L73.8183 75.3584ZM74.1243 77.9837L75.6207 78.0871L75.6303 77.9483L75.6142 77.8101L74.1243 77.9837ZM73.9413 80.6335L75.3835 81.0457L75.4269 80.8941L75.4377 80.7368L73.9413 80.6335ZM73.211 83.1887L74.6527 83.6026L74.6532 83.6009L73.211 83.1887ZM72.4827 85.7249L71.041 85.3109L70.9116 85.7615L71.0618 86.2056L72.4827 85.7249ZM73.1932 87.825L71.7723 88.3057L71.8155 88.4333L71.8807 88.5512L73.1932 87.825ZM74.4845 90.1588L75.9568 89.8717L75.9115 89.6396L75.797 89.4326L74.4845 90.1588ZM74.9908 92.7547L73.5185 93.0418L73.5367 93.1349L73.5664 93.2249L74.9908 92.7547ZM75.8283 95.2916L77.3283 95.2803L77.3265 95.0449L77.2527 94.8214L75.8283 95.2916ZM75.8483 97.946L74.3484 97.9574L74.3488 98.0086L74.3526 98.0597L75.8483 97.946ZM76.0491 100.588L77.5387 100.764L77.5558 100.619L77.5448 100.474L76.0491 100.588ZM75.737 103.23L74.2473 103.054L74.2329 103.177L74.2386 103.3L75.737 103.23ZM75.86 105.865L77.3564 105.969L77.3624 105.882L77.3583 105.795L75.86 105.865ZM72.1035 70.5L70.6142 70.6789L70.6261 70.7782L72.1154 70.5993L73.6047 70.4204L73.5928 70.3211L72.1035 70.5ZM72.1154 70.5993L70.8645 71.4271L72.275 73.5586L73.526 72.7309L74.7769 71.9031L73.3664 69.7715L72.1154 70.5993ZM73.526 72.7309L72.0352 72.8967L72.3275 75.5243L73.8183 75.3584L75.3091 75.1925L75.0168 72.565L73.526 72.7309ZM73.8183 75.3584L72.3284 75.5321L72.6344 78.1574L74.1243 77.9837L75.6142 77.8101L75.3082 75.1847L73.8183 75.3584ZM74.1243 77.9837L72.6279 77.8804L72.4449 80.5301L73.9413 80.6335L75.4377 80.7368L75.6207 78.0871L74.1243 77.9837ZM73.9413 80.6335L72.4991 80.2213L71.7687 82.7764L73.211 83.1887L74.6532 83.6009L75.3835 81.0457L73.9413 80.6335ZM73.211 83.1887L71.7692 82.7747L71.041 85.3109L72.4827 85.7249L73.9245 86.1389L74.6527 83.6026L73.211 83.1887ZM72.4827 85.7249L71.0618 86.2056L71.7723 88.3057L73.1932 87.825L74.6141 87.3443L73.9036 85.2442L72.4827 85.7249ZM73.1932 87.825L71.8807 88.5512L73.172 90.885L74.4845 90.1588L75.797 89.4326L74.5057 87.0988L73.1932 87.825ZM74.4845 90.1588L73.0123 90.446L73.5185 93.0418L74.9908 92.7547L76.463 92.4675L75.9568 89.8717L74.4845 90.1588ZM74.9908 92.7547L73.5664 93.2249L74.4039 95.7619L75.8283 95.2916L77.2527 94.8214L76.4152 92.2844L74.9908 92.7547ZM75.8283 95.2916L74.3284 95.3029L74.3484 97.9574L75.8483 97.946L77.3483 97.9347L77.3283 95.2803L75.8283 95.2916ZM75.8483 97.946L74.3526 98.0597L74.5534 100.702L76.0491 100.588L77.5448 100.474L77.344 97.8324L75.8483 97.946ZM76.0491 100.588L74.5594 100.412L74.2473 103.054L75.737 103.23L77.2266 103.406L77.5387 100.764L76.0491 100.588ZM75.737 103.23L74.2386 103.3L74.3616 105.935L75.86 105.865L77.3583 105.795L77.2353 103.16L75.737 103.23ZM75.86 105.865L74.3635 105.762L74.2904 106.819L75.7869 106.923L77.2833 107.026L77.3564 105.969L75.86 105.865Z" fill="black"/>
<path d="M23.8797 45.7563L22.7155 46.7021L23.0628 47.1296L23.6042 47.2308L23.8797 45.7563ZM22.2608 43.7636L20.9881 44.5573L21.0376 44.6368L21.0966 44.7094L22.2608 43.7636ZM20.8537 41.5072L22.1265 40.7135L21.6503 39.9499L20.7524 40.0106L20.8537 41.5072ZM18.9631 41.6352L18.8618 40.1386L18.3113 40.1759L17.9161 40.561L18.9631 41.6352ZM17.0647 43.4857L17.9152 44.7213L18.0203 44.6489L18.1117 44.5598L17.0647 43.4857ZM14.8805 44.989L14.03 43.7534L13.9943 43.778L13.9601 43.8046L14.8805 44.989ZM12.7959 46.609L11.8755 45.4246L11.8187 45.4687L11.7664 45.518L12.7959 46.609ZM10.8734 48.423L11.8395 49.5704L11.872 49.5431L11.9029 49.514L10.8734 48.423ZM9.23771 49.8002L8.15663 50.84L9.12987 51.8518L10.2038 50.9476L9.23771 49.8002ZM23.978 45.7747L24.2535 44.3002L24.1552 44.2818L23.8797 45.7563L23.6042 47.2308L23.7025 47.2491L23.978 45.7747ZM23.8797 45.7563L25.0439 44.8105L23.4251 42.8178L22.2608 43.7636L21.0966 44.7094L22.7155 46.7021L23.8797 45.7563ZM22.2608 43.7636L23.5336 42.9699L22.1265 40.7135L20.8537 41.5072L19.5809 42.301L20.9881 44.5573L22.2608 43.7636ZM20.8537 41.5072L20.7524 40.0106L18.8618 40.1386L18.9631 41.6352L19.0644 43.1317L20.955 43.0038L20.8537 41.5072ZM18.9631 41.6352L17.9161 40.561L16.0177 42.4116L17.0647 43.4857L18.1117 44.5598L20.0102 42.7093L18.9631 41.6352ZM17.0647 43.4857L16.2143 42.2501L14.03 43.7534L14.8805 44.989L15.7309 46.2247L17.9152 44.7213L17.0647 43.4857ZM14.8805 44.989L13.9601 43.8046L11.8755 45.4246L12.7959 46.609L13.7163 47.7934L15.8009 46.1735L14.8805 44.989ZM12.7959 46.609L11.7664 45.518L9.844 47.332L10.8734 48.423L11.9029 49.514L13.8253 47.7L12.7959 46.609ZM10.8734 48.423L9.90733 47.2755L8.27161 48.6527L9.23771 49.8002L10.2038 50.9476L11.8395 49.5704L10.8734 48.423ZM9.23771 49.8002L10.3188 48.7603L10.2529 48.6919L9.17188 49.7317L8.0908 50.7716L8.15663 50.84L9.23771 49.8002Z" fill="black"/>
<path d="M5.07715 45.6086L6.03148 46.7659L6.03767 46.7608L6.0438 46.7556L5.07715 45.6086ZM7.01698 43.9738L6.17038 42.7355L6.10806 42.7781L6.05033 42.8268L7.01698 43.9738ZM9.20909 42.475L10.0557 43.7133L10.1861 43.6241L10.2951 43.5097L9.20909 42.475ZM11.0391 40.5541L10.0314 39.443L9.99083 39.4798L9.95306 39.5194L11.0391 40.5541ZM12.9995 38.7761L12.1906 37.5129L12.0848 37.5807L11.9917 37.6651L12.9995 38.7761ZM15.2339 37.3453L15.5595 35.881L14.9504 35.7456L14.425 36.0821L15.2339 37.3453ZM17.188 37.7798L18.2231 36.6942L17.921 36.4061L17.5136 36.3155L17.188 37.7798ZM19.1036 39.6063L20.3398 38.7567L20.2515 38.6282L20.1387 38.5206L19.1036 39.6063ZM5 45.6722L5.95433 46.8295L6.03148 46.7659L5.07715 45.6086L4.12282 44.4514L4.04567 44.515L5 45.6722ZM5.07715 45.6086L6.0438 46.7556L7.98363 45.1208L7.01698 43.9738L6.05033 42.8268L4.1105 44.4616L5.07715 45.6086ZM7.01698 43.9738L7.86358 45.212L10.0557 43.7133L9.20909 42.475L8.36249 41.2368L6.17038 42.7355L7.01698 43.9738ZM9.20909 42.475L10.2951 43.5097L12.1252 41.5887L11.0391 40.5541L9.95306 39.5194L8.12303 41.4404L9.20909 42.475ZM11.0391 40.5541L12.0468 41.6652L14.0072 39.8872L12.9995 38.7761L11.9917 37.6651L10.0314 39.443L11.0391 40.5541ZM12.9995 38.7761L13.8084 40.0393L16.0428 38.6085L15.2339 37.3453L14.425 36.0821L12.1906 37.5129L12.9995 38.7761ZM15.2339 37.3453L14.9083 38.8095L16.8625 39.244L17.188 37.7798L17.5136 36.3155L15.5595 35.881L15.2339 37.3453ZM17.188 37.7798L16.1529 38.8654L18.0685 40.6919L19.1036 39.6063L20.1387 38.5206L18.2231 36.6942L17.188 37.7798ZM19.1036 39.6063L17.8674 40.4558L18.578 41.4898L19.8142 40.6403L21.0504 39.7907L20.3398 38.7567L19.1036 39.6063Z" fill="black"/>
<path d="M68.1799 23.1415L68.0276 21.6493L68.0169 21.6503L68.0063 21.6516L68.1799 23.1415ZM65.6546 23.4356L65.6142 24.9351L65.7215 24.938L65.8282 24.9256L65.6546 23.4356ZM63.0004 23.364L63.0408 21.8646L62.8755 21.8601L62.7131 21.8918L63.0004 23.364ZM60.3964 23.872L60.6478 25.3508L60.6657 25.3477L60.6836 25.3443L60.3964 23.872ZM57.7974 24.3139L57.8163 25.8138L57.9333 25.8123L58.0488 25.7927L57.7974 24.3139ZM56.4131 24.3313L56.3942 22.8314L54.6293 22.8537L54.9359 24.5919L56.4131 24.3313ZM68.2793 23.1313L68.127 21.6391L68.0276 21.6493L68.1799 23.1415L68.3322 24.6337L68.4316 24.6236L68.2793 23.1313ZM68.1799 23.1415L68.0063 21.6516L65.4811 21.9457L65.6546 23.4356L65.8282 24.9256L68.3534 24.6314L68.1799 23.1415ZM65.6546 23.4356L65.6951 21.9362L63.0408 21.8646L63.0004 23.364L62.9599 24.8635L65.6142 24.9351L65.6546 23.4356ZM63.0004 23.364L62.7131 21.8918L60.1092 22.3998L60.3964 23.872L60.6836 25.3443L63.2876 24.8363L63.0004 23.364ZM60.3964 23.872L60.145 22.3932L57.546 22.8351L57.7974 24.3139L58.0488 25.7927L60.6478 25.3508L60.3964 23.872ZM57.7974 24.3139L57.7785 22.814L56.3942 22.8314L56.4131 24.3313L56.432 25.8312L57.8163 25.8138L57.7974 24.3139ZM56.4131 24.3313L54.9359 24.5919L54.9379 24.6028L56.415 24.3422L57.8922 24.0816L57.8903 24.0707L56.4131 24.3313Z" fill="black"/>
<path d="M64.4037 75.7825L62.9047 75.7265L62.9005 75.839L62.9131 75.9508L64.4037 75.7825ZM64.6886 78.3063L66.113 78.7766L66.216 78.4645L66.1791 78.138L64.6886 78.3063ZM63.8537 80.835L62.4293 80.3648L62.3632 80.565L62.3549 80.7757L63.8537 80.835ZM63.7486 83.4912L62.2497 83.4319L62.2472 83.4959L62.2501 83.5598L63.7486 83.4912ZM63.8678 86.0948L62.3693 86.1634L62.3745 86.2753L62.3962 86.3852L63.8678 86.0948ZM64.3731 88.6552L62.9015 88.9457L62.9388 89.1345L63.0226 89.3079L64.3731 88.6552ZM65.5215 91.0317L66.9327 90.5231L66.9061 90.4495L66.8721 90.379L65.5215 91.0317ZM66.4245 93.5369L67.9039 93.7844L67.9687 93.3974L67.8356 93.0283L66.4245 93.5369ZM65.9829 96.1774L64.5034 95.9299L64.4719 96.1185L64.4886 96.3089L65.9829 96.1774ZM66.2063 98.7152L64.712 98.8467L64.7429 99.197L64.9262 99.4971L66.2063 98.7152ZM67.6001 100.997L68.9212 100.286L68.9016 100.25L68.8801 100.215L67.6001 100.997ZM68.8334 103.291L67.5123 104.001L67.6632 104.282L67.9151 104.477L68.8334 103.291ZM70.8703 104.868L69.952 106.054L69.9944 106.087L70.0389 106.116L70.8703 104.868ZM73.0647 106.329L72.2333 107.578L72.3533 107.657L72.4863 107.713L73.0647 106.329ZM75.4999 107.347L76.1712 106.005L76.1255 105.982L76.0783 105.963L75.4999 107.347ZM77.8641 108.53L78.8912 107.437L78.7314 107.287L78.5354 107.188L77.8641 108.53ZM64.4074 75.6826L62.9085 75.6266L62.9047 75.7265L64.4037 75.7825L65.9026 75.8386L65.9064 75.7387L64.4074 75.6826ZM64.4037 75.7825L62.9131 75.9508L63.1981 78.4746L64.6886 78.3063L66.1791 78.138L65.8942 75.6143L64.4037 75.7825ZM64.6886 78.3063L63.2642 77.836L62.4293 80.3648L63.8537 80.835L65.2781 81.3053L66.113 78.7766L64.6886 78.3063ZM63.8537 80.835L62.3549 80.7757L62.2497 83.4319L63.7486 83.4912L65.2474 83.5505L65.3525 80.8944L63.8537 80.835ZM63.7486 83.4912L62.2501 83.5598L62.3693 86.1634L63.8678 86.0948L65.3662 86.0262L65.247 83.4226L63.7486 83.4912ZM63.8678 86.0948L62.3962 86.3852L62.9015 88.9457L64.3731 88.6552L65.8447 88.3648L65.3394 85.8043L63.8678 86.0948ZM64.3731 88.6552L63.0226 89.3079L64.171 91.6843L65.5215 91.0317L66.8721 90.379L65.7237 88.0026L64.3731 88.6552ZM65.5215 91.0317L64.1104 91.5403L65.0134 94.0455L66.4245 93.5369L67.8356 93.0283L66.9327 90.5231L65.5215 91.0317ZM66.4245 93.5369L64.945 93.2895L64.5034 95.9299L65.9829 96.1774L67.4623 96.4248L67.9039 93.7844L66.4245 93.5369ZM65.9829 96.1774L64.4886 96.3089L64.712 98.8467L66.2063 98.7152L67.7005 98.5836L67.4771 96.0458L65.9829 96.1774ZM66.2063 98.7152L64.9262 99.4971L66.32 101.779L67.6001 100.997L68.8801 100.215L67.4863 97.9332L66.2063 98.7152ZM67.6001 100.997L66.2789 101.707L67.5123 104.001L68.8334 103.291L70.1546 102.58L68.9212 100.286L67.6001 100.997ZM68.8334 103.291L67.9151 104.477L69.952 106.054L70.8703 104.868L71.7886 103.682L69.7517 102.105L68.8334 103.291ZM70.8703 104.868L70.0389 106.116L72.2333 107.578L73.0647 106.329L73.8961 105.081L71.7017 103.619L70.8703 104.868ZM73.0647 106.329L72.4863 107.713L74.9215 108.731L75.4999 107.347L76.0783 105.963L73.6431 104.945L73.0647 106.329ZM75.4999 107.347L74.8286 108.688L77.1927 109.871L77.8641 108.53L78.5354 107.188L76.1712 106.005L75.4999 107.347ZM77.8641 108.53L76.8369 109.623L77.1832 109.948L78.2103 108.855L79.2375 107.762L78.8912 107.437L77.8641 108.53Z" fill="black"/>
<path d="M23.1752 45.9612L22.1898 44.8303L22.1085 44.9011L22.0383 44.9827L23.1752 45.9612ZM21.5133 47.8922L22.3826 49.1147L22.5312 49.0089L22.6502 48.8707L21.5133 47.8922ZM19.3512 49.4295L18.482 48.2071L18.388 48.2739L18.3053 48.3543L19.3512 49.4295ZM17.4515 51.2776L18.4287 52.4156L18.464 52.3853L18.4974 52.3528L17.4515 51.2776ZM15.4489 52.9971L16.3138 54.2227L16.372 54.1816L16.4261 54.1351L15.4489 52.9971ZM13.5405 54.3439L12.6756 53.1183L11.2997 54.0893L12.4227 55.3442L13.5405 54.3439ZM23.2506 45.8955L22.2651 44.7646L22.1898 44.8303L23.1752 45.9612L24.1607 47.0921L24.236 47.0264L23.2506 45.8955ZM23.1752 45.9612L22.0383 44.9827L20.3764 46.9137L21.5133 47.8922L22.6502 48.8707L24.3121 46.9397L23.1752 45.9612ZM21.5133 47.8922L20.6441 46.6697L18.482 48.2071L19.3512 49.4295L20.2205 50.652L22.3826 49.1147L21.5133 47.8922ZM19.3512 49.4295L18.3053 48.3543L16.4055 50.2024L17.4515 51.2776L18.4974 52.3528L20.3972 50.5047L19.3512 49.4295ZM17.4515 51.2776L16.4743 50.1396L14.4717 51.8591L15.4489 52.9971L16.4261 54.1351L18.4287 52.4156L17.4515 51.2776ZM15.4489 52.9971L14.584 51.7716L12.6756 53.1183L13.5405 54.3439L14.4053 55.5694L16.3138 54.2227L15.4489 52.9971ZM13.5405 54.3439L12.4227 55.3442L12.4301 55.3524L13.5479 54.3521L14.6656 53.3518L14.6583 53.3436L13.5405 54.3439Z" fill="black"/>
<path d="M58.9002 108.544L58.7012 110.03L58.8436 110.05L58.9869 110.041L58.9002 108.544ZM56.4822 108.22L56.6812 106.733L56.5414 106.715L56.4005 106.722L56.4822 108.22ZM53.8331 108.365L53.7514 106.867L53.6426 106.873L53.5358 106.894L53.8331 108.365ZM51.2356 108.89L51.4376 110.376L51.4855 110.37L51.5328 110.36L51.2356 108.89ZM48.6198 109.246L48.7036 110.743L48.763 110.74L48.8219 110.732L48.6198 109.246ZM45.9813 109.393L45.8974 107.896L45.7711 107.903L45.6477 107.931L45.9813 109.393ZM43.4069 109.981L43.0732 108.518L42.9014 108.557L42.7434 108.635L43.4069 109.981ZM41.0402 111.148L41.6704 112.509L41.6872 112.501L41.7037 112.493L41.0402 111.148ZM38.6708 112.245L38.0406 110.884L37.8334 110.98L37.6641 111.133L38.6708 112.245ZM36.7968 113.941L37.4534 115.29L37.6453 115.197L37.8036 115.053L36.7968 113.941ZM34.4245 115.096L34.4035 116.596L34.7603 116.601L35.0811 116.445L34.4245 115.096ZM33.0035 115.077L31.505 115.145L31.5693 116.557L32.9824 116.576L33.0035 115.077ZM59 108.538L58.9132 107.04L58.8134 107.046L58.9002 108.544L58.9869 110.041L59.0868 110.035L59 108.538ZM58.9002 108.544L59.0991 107.057L56.6812 106.733L56.4822 108.22L56.2833 109.707L58.7012 110.03L58.9002 108.544ZM56.4822 108.22L56.4005 106.722L53.7514 106.867L53.8331 108.365L53.9147 109.862L56.5639 109.718L56.4822 108.22ZM53.8331 108.365L53.5358 106.894L50.9383 107.42L51.2356 108.89L51.5328 110.36L54.1303 109.835L53.8331 108.365ZM51.2356 108.89L51.0335 107.404L48.4177 107.759L48.6198 109.246L48.8219 110.732L51.4376 110.376L51.2356 108.89ZM48.6198 109.246L48.5359 107.748L45.8974 107.896L45.9813 109.393L46.0652 110.891L48.7036 110.743L48.6198 109.246ZM45.9813 109.393L45.6477 107.931L43.0732 108.518L43.4069 109.981L43.7405 111.443L46.3149 110.856L45.9813 109.393ZM43.4069 109.981L42.7434 108.635L40.3767 109.803L41.0402 111.148L41.7037 112.493L44.0704 111.326L43.4069 109.981ZM41.0402 111.148L40.41 109.787L38.0406 110.884L38.6708 112.245L39.3011 113.606L41.6704 112.509L41.0402 111.148ZM38.6708 112.245L37.6641 111.133L35.7901 112.829L36.7968 113.941L37.8036 115.053L39.6776 113.357L38.6708 112.245ZM36.7968 113.941L36.1402 112.593L33.7679 113.748L34.4245 115.096L35.0811 116.445L37.4534 115.29L36.7968 113.941ZM34.4245 115.096L34.4455 113.597L33.0245 113.577L33.0035 115.077L32.9824 116.576L34.4035 116.596L34.4245 115.096ZM33.0035 115.077L34.5019 115.008L34.4984 114.932L33 115L31.5016 115.068L31.505 115.145L33.0035 115.077Z" fill="black"/>
<path d="M73.9 61V62.5H73.8677L73.8355 62.4986L73.9 61ZM71.3617 60.8907L71.2047 59.3989L71.3152 59.3873L71.4262 59.3921L71.3617 60.8907ZM68.7208 61.1686L68.8778 62.6603L68.7269 62.6762L68.5759 62.6616L68.7208 61.1686ZM66.08 60.9122L66.1404 59.4134L66.1828 59.4151L66.225 59.4192L66.08 60.9122ZM63.4398 60.8058L62.8338 59.4336L63.1523 59.293L63.5002 59.307L63.4398 60.8058ZM74 61V62.5H73.9V61V59.5H74V61ZM73.9 61L73.8355 62.4986L71.2971 62.3893L71.3617 60.8907L71.4262 59.3921L73.9645 59.5014L73.9 61ZM71.3617 60.8907L71.5186 62.3824L68.8778 62.6603L68.7208 61.1686L68.5638 59.6768L71.2047 59.3989L71.3617 60.8907ZM68.7208 61.1686L68.5759 62.6616L65.9351 62.4052L66.08 60.9122L66.225 59.4192L68.8657 59.6756L68.7208 61.1686ZM66.08 60.9122L66.0196 62.411L63.3794 62.3046L63.4398 60.8058L63.5002 59.307L66.1404 59.4134L66.08 60.9122ZM63.4398 60.8058L64.0457 62.1779L63.606 62.3721L63 61L62.394 59.6279L62.8338 59.4336L63.4398 60.8058Z" fill="black"/>
<path d="M65.2914 96.6918L66.1892 95.4901L66.0302 95.3713L65.8457 95.2979L65.2914 96.6918ZM62.9385 95.7561L61.7025 96.606L61.9608 96.9815L62.3842 97.1499L62.9385 95.7561ZM61.4332 93.5671L62.6691 92.7172L62.5798 92.5873L62.4655 92.4788L61.4332 93.5671ZM59.5073 91.7404L60.5396 90.6521L60.4407 90.5582L60.3265 90.4838L59.5073 91.7404ZM57.3512 90.3348L58.1704 89.0782L57.9488 88.9337L57.6911 88.8738L57.3512 90.3348ZM54.8457 89.752L55.1855 88.291L54.8893 88.2221L54.5896 88.274L54.8457 89.752ZM52.2463 90.2023L51.9902 88.7243L51.8843 88.7427L51.7821 88.7759L52.2463 90.2023ZM49.7311 91.0208L50.0733 92.4812L50.135 92.4668L50.1953 92.4472L49.7311 91.0208ZM47.1615 91.6229L47.4244 93.0997L47.4643 93.0926L47.5037 93.0834L47.1615 91.6229ZM44.5405 92.0897L44.2775 90.6129L44.0297 90.657L43.8099 90.7796L44.5405 92.0897ZM42.2042 93.3925L42.748 94.7905L42.8444 94.7529L42.9348 94.7026L42.2042 93.3925ZM39.7534 94.3458L39.2096 92.9478L39.0335 93.0163L38.8798 93.1264L39.7534 94.3458ZM37.6294 95.8673L36.7559 94.6479L36.7055 94.684L36.6582 94.7242L37.6294 95.8673ZM35.6367 97.5605L34.6654 96.4174L32.6452 98.1339L35.157 98.9817L35.6367 97.5605ZM37.5943 98.2213L37.1146 99.6425L37.4439 99.7537L37.7886 99.7086L37.5943 98.2213ZM40.2135 97.8792L40.4077 99.3666L40.4387 99.3626L40.4694 99.3572L40.2135 97.8792ZM42.8234 97.4273L42.9748 95.935L42.7702 95.9142L42.5675 95.9493L42.8234 97.4273ZM45.488 97.6976L46.6538 96.7537L46.2608 96.2683L45.6394 96.2052L45.488 97.6976ZM46.3961 98.8191L47.2788 100.032L48.5556 99.1026L47.5619 97.8753L46.3961 98.8191ZM44.239 100.389L43.3563 99.1764L43.2598 99.2466L43.1757 99.3312L44.239 100.389ZM42.378 102.26L43.4041 103.354L43.4231 103.336L43.4414 103.318L42.378 102.26ZM40.4197 104.096L39.3937 103.002L38.2604 104.065L39.3622 105.16L40.4197 104.096ZM41.6231 105.292L40.5656 106.356L41.2437 107.03L42.141 106.7L41.6231 105.292ZM44.0687 104.393L44.5866 105.8L44.669 105.77L44.7472 105.73L44.0687 104.393ZM46.4217 103.199L47.1002 104.537L47.1456 104.514L47.1893 104.488L46.4217 103.199ZM48.6902 101.848L48.0949 100.471L48.0059 100.51L47.9226 100.559L48.6902 101.848ZM51.1324 100.792L51.7278 102.169L51.8671 102.109L51.9914 102.022L51.1324 100.792ZM53.3086 99.2718L52.7598 97.8758L52.5949 97.9406L52.4496 98.0421L53.3086 99.2718ZM65.3715 96.7516L66.2693 95.55L66.1892 95.4901L65.2914 96.6918L64.3937 97.8934L64.4738 97.9533L65.3715 96.7516ZM65.2914 96.6918L65.8457 95.2979L63.4928 94.3622L62.9385 95.7561L62.3842 97.1499L64.7372 98.0856L65.2914 96.6918ZM62.9385 95.7561L64.1744 94.9061L62.6691 92.7172L61.4332 93.5671L60.1972 94.4171L61.7025 96.606L62.9385 95.7561ZM61.4332 93.5671L62.4655 92.4788L60.5396 90.6521L59.5073 91.7404L58.475 92.8286L60.4009 94.6554L61.4332 93.5671ZM59.5073 91.7404L60.3265 90.4838L58.1704 89.0782L57.3512 90.3348L56.5321 91.5913L58.6881 92.9969L59.5073 91.7404ZM57.3512 90.3348L57.6911 88.8738L55.1855 88.291L54.8457 89.752L54.5058 91.213L57.0114 91.7958L57.3512 90.3348ZM54.8457 89.752L54.5896 88.274L51.9902 88.7243L52.2463 90.2023L52.5023 91.6803L55.1017 91.23L54.8457 89.752ZM52.2463 90.2023L51.7821 88.7759L49.2669 89.5944L49.7311 91.0208L50.1953 92.4472L52.7104 91.6287L52.2463 90.2023ZM49.7311 91.0208L49.3889 89.5603L46.8192 90.1625L47.1615 91.6229L47.5037 93.0834L50.0733 92.4812L49.7311 91.0208ZM47.1615 91.6229L46.8985 90.1462L44.2775 90.6129L44.5405 92.0897L44.8034 93.5665L47.4244 93.0997L47.1615 91.6229ZM44.5405 92.0897L43.8099 90.7796L41.4737 92.0824L42.2042 93.3925L42.9348 94.7026L45.271 93.3998L44.5405 92.0897ZM42.2042 93.3925L41.6605 91.9945L39.2096 92.9478L39.7534 94.3458L40.2971 95.7437L42.748 94.7905L42.2042 93.3925ZM39.7534 94.3458L38.8798 93.1264L36.7559 94.6479L37.6294 95.8673L38.503 97.0867L40.6269 95.5652L39.7534 94.3458ZM37.6294 95.8673L36.6582 94.7242L34.6654 96.4174L35.6367 97.5605L36.6079 98.7036L38.6007 97.0104L37.6294 95.8673ZM35.6367 97.5605L35.157 98.9817L37.1146 99.6425L37.5943 98.2213L38.0741 96.8001L36.1164 96.1393L35.6367 97.5605ZM37.5943 98.2213L37.7886 99.7086L40.4077 99.3666L40.2135 97.8792L40.0192 96.3919L37.4001 96.7339L37.5943 98.2213ZM40.2135 97.8792L40.4694 99.3572L43.0793 98.9053L42.8234 97.4273L42.5675 95.9493L39.9575 96.4012L40.2135 97.8792ZM42.8234 97.4273L42.672 98.9196L45.3367 99.1899L45.488 97.6976L45.6394 96.2052L42.9748 95.935L42.8234 97.4273ZM45.488 97.6976L44.3222 98.6415L45.2303 99.763L46.3961 98.8191L47.5619 97.8753L46.6538 96.7537L45.488 97.6976ZM46.3961 98.8191L45.5134 97.6064L43.3563 99.1764L44.239 100.389L45.1217 101.602L47.2788 100.032L46.3961 98.8191ZM44.239 100.389L43.1757 99.3312L41.3147 101.202L42.378 102.26L43.4414 103.318L45.3024 101.447L44.239 100.389ZM42.378 102.26L41.352 101.165L39.3937 103.002L40.4197 104.096L41.4458 105.19L43.4041 103.354L42.378 102.26ZM40.4197 104.096L39.3622 105.16L40.5656 106.356L41.6231 105.292L42.6806 104.229L41.4772 103.032L40.4197 104.096ZM41.6231 105.292L42.141 106.7L44.5866 105.8L44.0687 104.393L43.5509 102.985L41.1052 103.885L41.6231 105.292ZM44.0687 104.393L44.7472 105.73L47.1002 104.537L46.4217 103.199L45.7432 101.862L43.3903 103.055L44.0687 104.393ZM46.4217 103.199L47.1893 104.488L49.4579 103.137L48.6902 101.848L47.9226 100.559L45.6541 101.911L46.4217 103.199ZM48.6902 101.848L49.2856 103.225L51.7278 102.169L51.1324 100.792L50.5371 99.4152L48.0949 100.471L48.6902 101.848ZM51.1324 100.792L51.9914 102.022L54.1676 100.501L53.3086 99.2718L52.4496 98.0421L50.2734 99.5623L51.1324 100.792ZM53.3086 99.2718L53.8573 100.668L54.5488 100.396L54 99L53.4512 97.604L52.7598 97.8758L53.3086 99.2718Z" fill="black"/>
<path d="M84.5859 103.464L83.7911 104.737L84.3019 105.056L84.8916 104.933L84.5859 103.464ZM87.1068 102.94L87.4454 101.478L87.124 101.404L86.801 101.471L87.1068 102.94ZM89.6859 103.537L89.3472 104.999L89.3991 105.011L89.4517 105.019L89.6859 103.537ZM92.3002 103.95L93.7166 104.444L94.3077 102.749L92.5343 102.469L92.3002 103.95ZM91.4927 106.266L92.2385 107.568L92.7246 107.289L92.909 106.76L91.4927 106.266ZM89.1741 107.595L88.4283 106.294L88.3953 106.313L88.3633 106.333L89.1741 107.595ZM86.9532 109.022L86.1425 107.76L86.0806 107.8L86.0229 107.845L86.9532 109.022ZM84.883 110.659L83.9526 109.482L82.5244 110.612L83.9062 111.797L84.883 110.659ZM86.2128 111.8L85.2361 112.938L85.3884 113.069L85.5697 113.155L86.2128 111.8ZM88.6164 112.941L87.9733 114.296L88.1757 114.392L88.3973 114.425L88.6164 112.941ZM91.2661 113.332L91.8335 111.943L91.6651 111.874L91.4852 111.848L91.2661 113.332ZM93.7224 114.336L94.4627 113.031L94.379 112.983L94.2898 112.947L93.7224 114.336ZM95.7488 115.485L95.837 116.983L100.902 116.685L96.4891 114.181L95.7488 115.485ZM84.5011 103.411L83.7063 104.684L83.7911 104.737L84.5859 103.464L85.3806 102.192L85.2958 102.139L84.5011 103.411ZM84.5859 103.464L84.8916 104.933L87.4125 104.408L87.1068 102.94L86.801 101.471L84.2802 101.996L84.5859 103.464ZM87.1068 102.94L86.7681 104.401L89.3472 104.999L89.6859 103.537L90.0245 102.076L87.4454 101.478L87.1068 102.94ZM89.6859 103.537L89.4517 105.019L92.0661 105.432L92.3002 103.95L92.5343 102.469L89.92 102.056L89.6859 103.537ZM92.3002 103.95L90.8838 103.457L90.0763 105.773L91.4927 106.266L92.909 106.76L93.7166 104.444L92.3002 103.95ZM91.4927 106.266L90.7469 104.965L88.4283 106.294L89.1741 107.595L89.9199 108.897L92.2385 107.568L91.4927 106.266ZM89.1741 107.595L88.3633 106.333L86.1425 107.76L86.9532 109.022L87.764 110.284L89.9849 108.857L89.1741 107.595ZM86.9532 109.022L86.0229 107.845L83.9526 109.482L84.883 110.659L85.8134 111.835L87.8836 110.198L86.9532 109.022ZM84.883 110.659L83.9062 111.797L85.2361 112.938L86.2128 111.8L87.1896 110.662L85.8598 109.52L84.883 110.659ZM86.2128 111.8L85.5697 113.155L87.9733 114.296L88.6164 112.941L89.2595 111.585L86.8559 110.445L86.2128 111.8ZM88.6164 112.941L88.3973 114.425L91.047 114.816L91.2661 113.332L91.4852 111.848L88.8355 111.457L88.6164 112.941ZM91.2661 113.332L90.6987 114.72L93.1551 115.724L93.7224 114.336L94.2898 112.947L91.8335 111.943L91.2661 113.332ZM93.7224 114.336L92.9822 115.64L95.0086 116.79L95.7488 115.485L96.4891 114.181L94.4627 113.031L93.7224 114.336ZM95.7488 115.485L95.6607 113.988L95.4119 114.003L95.5 115.5L95.5881 116.997L95.837 116.983L95.7488 115.485Z" fill="black"/>
<path d="M53.7951 98.054L52.4215 98.6567L52.4879 98.8081L52.5857 98.9413L53.7951 98.054ZM55.241 100.025L56.6349 99.4706L56.564 99.2922L56.4504 99.1374L55.241 100.025ZM56.2231 102.495L54.8292 103.049L54.8631 103.135L54.9072 103.215L56.2231 102.495ZM57.4962 104.822L58.9338 104.394L58.8884 104.241L58.8121 104.102L57.4962 104.822ZM58.2585 107.381L59.7003 107.795L59.8213 107.373L59.6961 106.952L58.2585 107.381ZM53.7549 97.9624L52.3813 98.5651L52.4215 98.6567L53.7951 98.054L55.1686 97.4512L55.1285 97.3597L53.7549 97.9624ZM53.7951 98.054L52.5857 98.9413L54.0316 100.912L55.241 100.025L56.4504 99.1374L55.0045 97.1666L53.7951 98.054ZM55.241 100.025L53.8471 100.579L54.8292 103.049L56.2231 102.495L57.617 101.941L56.6349 99.4706L55.241 100.025ZM56.2231 102.495L54.9072 103.215L56.1803 105.542L57.4962 104.822L58.8121 104.102L57.539 101.775L56.2231 102.495ZM57.4962 104.822L56.0586 105.25L56.821 107.809L58.2585 107.381L59.6961 106.952L58.9338 104.394L57.4962 104.822ZM58.2585 107.381L56.8167 106.967L56.6701 107.478L58.1119 107.891L59.5537 108.305L59.7003 107.795L58.2585 107.381Z" fill="black"/>
<path d="M78.9011 44.0145L78.6838 42.5303L78.5835 42.545L78.4862 42.573L78.9011 44.0145ZM76.4693 44.7144L76.8174 46.1735L76.851 46.1654L76.8842 46.1559L76.4693 44.7144ZM73.895 45.3285L73.547 43.8694L73.5081 43.8787L73.4698 43.89L73.895 45.3285ZM71.3664 46.0759L71.3047 47.5747L71.5532 47.5849L71.7917 47.5144L71.3664 46.0759ZM68.7021 45.9662L68.0233 47.3039L68.3143 47.4515L68.6403 47.465L68.7021 45.9662ZM79 44L78.7828 42.5158L78.6838 42.5303L78.9011 44.0145L79.1183 45.4987L79.2172 45.4842L79 44ZM78.9011 44.0145L78.4862 42.573L76.0544 43.2729L76.4693 44.7144L76.8842 46.1559L79.316 45.456L78.9011 44.0145ZM76.4693 44.7144L76.1213 43.2553L73.547 43.8694L73.895 45.3285L74.2431 46.7875L76.8174 46.1735L76.4693 44.7144ZM73.895 45.3285L73.4698 43.89L70.9412 44.6375L71.3664 46.0759L71.7917 47.5144L74.3203 46.7669L73.895 45.3285ZM71.3664 46.0759L71.4282 44.5772L68.7638 44.4675L68.7021 45.9662L68.6403 47.465L71.3047 47.5747L71.3664 46.0759ZM68.7021 45.9662L69.3808 44.6286L68.6788 44.2724L68 45.61L67.3212 46.9476L68.0233 47.3039L68.7021 45.9662Z" fill="black"/>
</svg>
