<svg width="120" height="120" viewBox="0 0 120 120" fill="none" xmlns="http://www.w3.org/2000/svg">
<path d="M61.3594 8.53516L64.0078 8.55859L64.1367 8.57031L64.2773 8.59375L66.7148 9.08594L69.293 9.19141H69.4219L69.5508 9.21484L72.0703 9.77734L74.5781 9.96484L74.7422 9.97656L74.8945 10.0234L77.4258 10.7852L77.4609 10.7969L77.4844 10.8086L79.9805 11.6641L80.0273 11.6758L80.0625 11.6992L82.5117 12.6953L82.5234 12.707H82.5352L84.9609 13.7617V13.7734L87.3867 14.8398L87.5625 14.9219L87.7148 15.0391L89.6953 16.6328L91.7578 18.0273L94.0898 19.3047L94.2188 19.375L94.3242 19.4688L96.375 21.1445L96.5273 21.2617L96.6328 21.4141L98.0859 23.3828L100.055 24.9062L100.277 25.0703L100.43 25.3164L101.801 27.6016L103.277 29.6406H103.266L104.836 31.75L104.93 31.8672L104.988 32.0078L106.125 34.3984L106.148 34.4688L107.145 36.8477L108.434 39.0039L108.562 39.2031L108.609 39.4375L109.172 41.9336L109.91 44.4062H109.922L110.777 46.9258L110.836 47.1133L110.848 47.3125L111.012 49.8203L111.434 52.4219L111.445 52.4922V52.5508L111.656 55.1758L111.668 55.2344V57.7305L112.195 60.2617L112.242 60.5195L112.207 60.7773L111.844 63.2734L111.984 65.7578L111.996 65.875L111.984 65.9805L111.75 68.4414L112.184 70.8555L112.23 71.125L112.184 71.3828L111.738 73.8203L111.902 76.3047V76.3516L112.066 81.625L112.078 81.7422L112.066 81.8594L111.762 84.3203L111.926 86.8633V87.0391L111.785 89.5352L112.23 92.207L112.207 92.418L111.902 94.9258L111.832 97.4102L112.02 100.047V100.164L112.008 102.801V102.918L111.809 105.379L111.914 108.016L112.16 110.57L112.172 110.723L112.16 110.875L111.891 113.359L111.937 114.443L112.355 114.547L111.652 117.453L110.891 117.266L108.547 117.629L108.453 117.652H108.359L105.723 117.723H105.582L103.051 117.301L100.672 117.734L100.438 117.781L100.203 117.746L97.6367 117.406H95.2344L92.5977 117.629L92.4922 117.641L92.3984 117.629L89.75 117.477V117.465L87.2773 117.348L84.7812 117.734L84.582 117.77L84.3945 117.746L82.6787 117.548L80.9248 118.811L80.8848 117.462L79.2969 117.477L79.2852 117.465L76.7773 117.711L76.6133 117.723L76.4492 117.699L73.918 117.383L71.3867 117.43H71.3281L68.6914 117.371H68.6445L66.1719 117.23L63.7109 117.699L63.4766 117.746L63.2305 117.711L60.7227 117.348L58.2383 117.488H58.0156L55.5898 117.242L53.1406 117.676L52.8828 117.723L52.6133 117.676L50.1172 117.242L47.6914 117.395H47.668L47.6445 117.406L42.3711 117.57H42.2539L42.1367 117.559L39.5938 117.254L38.1172 117.352L38.0752 118.811L36.0684 117.366L34.5078 117.277L32 117.699L31.7891 117.734L31.5781 117.711L29.0234 117.395L28.6631 117.384L28.4316 117.414L28.1738 117.449L27.916 117.391L27.7793 117.358L26.5391 117.324L23.9492 117.512L23.8906 117.523H23.832L21.1953 117.512H21.0781L18.5 117.301L16.0508 117.395L16.0625 117.406L13.4258 117.664L13.2734 117.676L13.1211 117.664L10.625 117.395L8.16406 117.5H8V116.082L7.5 116.125L7.46484 115.598L7.45312 115.527V115.445L7.48828 112.809V112.75L7.5 112.703L7.72266 110.195L7.45312 107.711L7.44141 107.617V107.523L7.48828 104.887V104.84L7.60547 102.32L7.27734 99.8242L7.24219 99.6016L7.28906 99.3789L7.71094 96.9297L7.44141 94.5156L7.42969 94.4102V94.3164L7.5 91.7969L7.35938 89.1484V89.0195L7.45312 86.3711L7.30078 83.8867L7.28906 83.7109L7.3125 83.5586L7.72266 80.9922L7.6875 78.5312V75.8711L7.51172 73.3281L7.52344 73.3164L7.30078 70.7148L7.28906 70.6562V70.6094L7.26562 67.9609V67.8203L7.30078 67.6797L7.74609 65.3125L7.33594 62.9219L7.30078 62.7461L7.3125 62.5703L7.5 59.9219L7.60547 57.332V57.2969L7.76953 54.6602V54.6133L7.78125 54.5664L8.12109 51.9414L8.28516 49.3984L8.29688 49.2109L8.34375 49.0469L9.14062 46.5156L9.75 44.043V44.0078L9.76172 43.9844L10.4883 41.4531L10.5117 41.3945L10.5234 41.3359L11.4492 38.875L11.4727 38.8047L11.5078 38.7461L12.6328 36.3672L13.6172 34.0117L14.6484 31.5508L14.707 31.3984L14.8008 31.2695L16.3242 29.0898L16.3359 29.0781L16.3477 29.0547L17.9297 26.9336L17.9414 26.9219L19.5586 24.8125L19.6055 24.7422L19.6641 24.6836L21.5039 22.7734L21.5391 22.75L21.5742 22.7148L23.5195 20.9219L23.6133 20.8516L25.6875 19.2109L25.8047 19.1172L28.0312 17.6992L30.1641 16.3047L32.3203 14.7578L32.4023 14.6992L32.4961 14.6523L34.8398 13.4219L34.9688 13.3516L35.1094 13.3047L37.6641 12.543L40.0898 11.6992L40.1133 11.6875H40.1484L42.668 10.9258L42.6797 10.9141L45.2109 10.1875L45.2812 10.1641L47.8359 9.55469L47.9062 9.53125L47.9766 9.51953L50.5898 9.14453L50.625 9.13281H50.6602L53.2852 8.88672H53.3438L55.9336 8.75781V8.74609L58.5586 8.53516L58.6289 8.52344H61.3594V8.53516ZM97.1426 91.9258L97.1074 94.3633V94.4102L97.0957 94.4453L96.8965 97.082V97.1641L96.873 97.2578L96.3809 99.7188L96.3926 99.7305L96.1113 102.238L96.0293 104.887L96.0176 104.957V105.027L95.6895 107.641L95.6777 107.699L95.666 107.77L95.1621 110.113L95.3848 112.586L95.3965 112.809L95.3496 113.02L95.0615 114.418H95.1055L97.7539 114.406H97.8594L97.9648 114.418L100.367 114.746L102.77 114.312L103.027 114.266L103.285 114.301L105.816 114.723L108.137 114.664L108.937 114.541L108.891 113.43V113.312L108.902 113.207L109.148 110.699L108.914 108.227V108.145L108.809 105.496V105.32L109.008 102.789L109.02 100.27L108.832 97.6328V97.4805L108.902 94.832V94.7734L108.914 94.7031L109.207 92.2422L109.047 91.2803L107.928 91.6328L107.564 91.75L107.189 91.6797L104.67 91.1641L102.186 91.1172H102.104L102.021 91.1055L99.3965 90.7422L99.2793 90.7188L99.1621 90.6836L97.624 90.21L97.1426 91.9258ZM56.1797 11.7344H56.1562L56.1328 11.7461L53.5547 11.8633L53.5664 11.875L50.9414 12.1211L48.4102 12.4961L48.3984 12.4844L46.0312 13.0586L46.043 13.0703L43.5234 13.7852L41.0156 14.5586L41.0039 14.5469L38.5781 15.4023L38.5547 15.4141H38.5195L36.1289 16.1172L33.9023 17.3125L31.9102 18.7422L31.8867 18.7656L31.8633 18.7773L29.6602 20.2188V20.2305H29.6484L27.4805 21.6016L25.5469 23.125L23.6602 24.8477L23.6719 24.8594L21.8555 26.7344L20.332 28.7148L20.3438 28.7266L18.7734 30.8008L18.7852 30.8125L17.332 32.875L16.3945 35.1602L15.375 37.5977L15.3633 37.6328L15.3398 37.668L14.2148 40.0469L13.3359 42.3906L12.6445 44.8164L12.0234 47.3125L12 47.4062L11.25 49.7852L11.1094 52.2344L11.0977 52.2812V52.3281L10.7578 54.9531L10.7461 54.9414L10.6055 57.4844L10.5 60.0859V60.1094L10.4883 60.1328L10.3125 62.6055L10.7461 65.0547L10.793 65.3242L10.7344 65.582L10.2656 68.0898L10.2744 69.0508L11.1562 68.7148L13.6406 67.7773L13.8633 67.6836H14.1094L16.5938 67.5547L18.8438 66.8047H18.832L21.2695 65.8789L23.3555 64.8477L25.1133 63.3945L26.7422 61.4492L26.7656 61.4258L26.7891 61.3906L28.582 59.457L30.4336 57.6055L31.9453 55.5898H31.9336L32.7314 54.5059L31.9619 54.0957L31.8916 54.0488L29.6416 52.6777L29.6064 52.6543L29.583 52.6426L27.3916 51.1543L26.9346 50.8496L26.7939 50.3105L26.2129 48.2285L26.0557 48.1035L25.6689 47.7871L26.6182 46.627L26.958 46.2051L26.8994 45.4316L29.3018 45.2793L29.4189 45.2676L29.5361 45.2793L32.0557 45.4902L34.5752 45.3027L34.7275 45.291L34.8799 45.3145L37.4697 45.6309L39.9189 45.5723H40.1064L40.2822 45.6074L41.5947 45.8887L41.7236 45.4316L40.8564 43.6152L39.6611 41.7168L37.9854 40.2051L35.9346 39.1621L33.5908 38.1543L31.4111 37.5684L29.0088 37.7793L28.6572 37.8027L28.3408 37.6738L26.2949 36.8594L26.1875 36.8916L26.0938 36.9268L26.042 36.7559L25.9736 36.7363L26.0088 36.6455L25.6602 35.4854L25.6133 35.3096L24.6875 34.4072L26.4102 32.6729L26.5391 32.5322L26.7031 32.4385L28.9648 31.0908L29.2812 30.8916L29.6562 30.8799L32.3047 30.7275H32.4219L35.0469 30.7979H35.0703L37.6953 30.9033H37.8594L38 30.9385L40.5664 31.583L40.7188 31.6182L40.8594 31.6885L43.2266 32.8369L43.25 32.8486H43.2734L45.5938 34.0674L45.6172 34.0791L45.6523 34.0908L47.9609 35.415L48.2305 35.5674L48.418 35.8252L49.9414 37.876L51.6641 39.8564L51.793 39.9971L51.8867 40.1729L53.0117 42.4814L54.2539 44.8135L54.3711 45.0361L54.418 45.2705L54.8516 47.8838L54.875 48.0361L54.8633 48.1885L54.7578 50.6846L55.0156 52.9697L56.082 55.1377L56.2109 55.4072L56.2344 55.7119L56.375 58.1846L57.0547 60.6104L57.0898 60.7744L57.1016 60.9385L57.2422 63.4932L57.6992 66.0127L57.7695 66.4111L57.6289 66.7979L56.7266 69.2588L56.5508 69.7627L56.082 70.0322L54.1602 71.1572L53.3516 71.626L52.5664 71.0986L50.5156 69.7158L49.9648 69.3408L49.8711 68.6729L49.707 67.4775L52.6836 67.0791L52.7656 67.5947L53.4688 68.0869L54.1016 67.7119L54.6875 66.1416L54.2773 63.915L54.2656 63.8213V63.7393L54.125 61.29L53.4453 58.876L53.4102 58.7236L53.3984 58.5596L53.2578 56.1807L52.0859 53.8369L52.0625 53.5674L51.7695 50.9189L51.7578 50.8018V50.6846L51.8633 48.2002L51.5 45.9971L50.3633 43.8994L50.3398 43.8525L49.2969 41.6846L47.6797 39.8564L47.6094 39.7627L46.2031 37.8525L44.2109 36.7275L41.8906 35.5088L39.6992 34.4424L37.3906 33.8799L34.9531 33.7979L34.9648 33.7861L32.4336 33.7275L30.1836 33.8447L28.8428 34.6504L29.1377 34.7676L31.4229 34.5684L31.6924 34.5449L31.9385 34.6152L34.5049 35.3066L34.6104 35.3418L34.7041 35.377L37.1064 36.3965L37.2002 36.4434L39.5439 37.6387L39.7197 37.7324L39.8604 37.8613L41.8174 39.6426L41.9697 39.7715L42.0752 39.9473L43.4814 42.1738L43.5283 42.2441L43.5635 42.3262L44.6768 44.6699L44.9229 45.1855L44.7705 45.7363L44.0674 48.0918L43.6689 49.4277L42.3096 49.1348L39.8135 48.5723L37.3525 48.6309L37.2354 48.6426L37.1299 48.6191L34.6807 48.3027L32.1494 48.502H32.0322L31.9033 48.4902L29.3838 48.2676L29.3398 48.2705L29.5361 48.9746L31.2002 50.1113L33.4502 51.4824L35.2549 52.4316L37.3643 52.0449L37.4814 52.0215H37.5986L37.9619 52.0098L38.0322 55.0098H37.8213L35.7998 55.3916L34.3594 57.3711H34.3477L32.7656 59.5039L32.6953 59.5977L32.6133 59.668L30.7383 61.5312L29.0508 63.3594V63.3711L27.3516 65.3984L27.2695 65.5156L27.1523 65.5977L25.125 67.2852L24.9844 67.3906L24.832 67.4727L22.4648 68.6211L22.4062 68.6562L22.3477 68.6797L19.8984 69.6172L19.875 69.6289H19.8398L17.3203 70.4727L17.1211 70.543L16.9219 70.5547L14.4961 70.6602L12.2227 71.5273L10.4346 72.1973L10.5117 73.1055V73.1289L10.6875 75.7656V78.4961L10.7227 81.1328V81.2617L10.6992 81.3906L10.2891 83.875L10.4531 86.3359V86.4883L10.3857 88.2734L11.6113 88.6562L13.8379 88.2109L13.9668 88.1875L14.0957 88.1758L16.6387 88.1172L19.123 87.7773L21.041 87.1816L21.0254 86.8164L21.0137 86.7227L21.0371 86.7109L21.0254 86.6992L21.3066 86.6758L22.502 86.5352L23.9902 86.3477L24.002 86.4531L24.0049 86.4678L24.1738 86.4297L24.3145 86.3945H24.4551L25.2051 86.3594L25.3223 89.3594L24.7129 89.3711L24.2842 89.4697L24.7871 91.2812L24.834 91.457L24.8457 91.6562L24.8926 94.2227L25.0918 96.7656L25.5723 99.2852L25.584 99.3438V99.4023L25.8887 102.027V102.145L25.9707 104.723L26.2754 107.148L26.8145 109.75L26.8613 109.973L26.8379 110.195L26.627 112.621L26.9316 114.074L28.25 114.382L28.458 114.387L30.7168 114.109L30.7988 114.098H30.8809L32.7676 114.088L32.3916 113.549L32.3799 113.525L32.3564 113.502L30.9854 111.357L29.3916 109.189L29.0986 108.791V108.287L29.1221 105.709L28.7002 103.213L28.665 102.979L28.7002 102.744L29.1104 100.107V100.084L29.5674 97.4824V97.459L29.5791 97.4355L30.083 94.9395L30.2002 92.4199V92.291L30.2354 92.1621L30.8213 89.5723L30.8682 89.3848L30.9619 89.209L32.2041 86.8418L32.333 86.6074L32.5322 86.4199L34.2549 84.873L35.0635 82.7988H35.0518L35.8721 80.3027L36.6924 77.8535L37.1377 75.4863L37.3604 72.9082V72.8027L37.3838 72.709L37.9463 70.1309L37.9697 70.0488L37.9932 69.9785L38.8252 67.459L39.4814 65.1035L39.6455 63.0996V63.0176L39.6924 62.8301L41.1572 63.1348L41.9893 63.2988L42.6338 63.3691L42.6094 63.6387L44.6553 64.9287L46.9639 66.2412L47.2217 66.3936L47.4092 66.6396L49.0264 68.749L49.2959 69.1123L49.3311 69.5576L49.4717 71.8311L49.9287 74.4561L49.9404 74.5029V74.5498L50.0107 75.2529L48.5225 75.4053L47.0342 75.5693L46.9521 74.8662L46.9639 74.8545L46.5186 72.3467L46.4951 72.2646V72.1943L46.3662 70.2021L45.2295 68.7021L43.167 67.5303L43.1318 67.5186L43.1084 67.4951L42.0996 66.8594L41.6963 68.3262L41.6846 68.373L41.6729 68.4082L40.8408 70.9277L40.3604 73.166H40.3486L40.1143 75.8027L40.1025 75.873L40.0908 75.9551L39.5986 78.5449L39.5869 78.6387L38.7197 81.2402L37.9111 83.7363L37.8994 83.7715L37.876 83.8066L36.915 86.291L36.7861 86.6309L36.5166 86.8652L34.7471 88.4707L33.7158 90.4277L33.1885 92.7012L33.0713 95.2207L33.0596 95.3379L33.0361 95.4434L32.5205 98.0332V98.0215L32.0752 100.564V100.576L31.7119 102.943L32.1104 105.369L32.1338 105.498L32.1221 105.627L32.1104 107.807L33.3994 109.576L33.4346 109.611L33.458 109.658L34.8525 111.838L36.1885 113.748L37.1221 114.422L39.582 114.254L39.7227 114.242L39.8633 114.266L42.3711 114.57L44.9141 114.488L47.5039 114.418V114.406L50.1523 114.242L50.3281 114.23L50.5039 114.266L52.8828 114.688L55.2617 114.266L55.4609 114.23L55.6602 114.242L58.1328 114.488L60.7227 114.348L60.8633 114.336L61.0156 114.359L63.418 114.711L65.8086 114.266L65.9844 114.23L66.1602 114.242L68.7969 114.371L68.7852 114.383L71.3633 114.43L73.9766 114.383H74.082L74.1875 114.395L76.6836 114.711L79.1445 114.477H79.2734L81.833 114.453L82.8115 113.748L84.1475 111.838L85.542 109.658L85.5654 109.611L85.6006 109.576L86.8896 107.807L86.8779 105.627L86.8662 105.498L86.8896 105.369L87.2881 102.943L86.9248 100.576V100.564L86.4795 98.0215V98.0332L85.9639 95.4434L85.9404 95.3379L85.9287 95.2207L85.8115 92.7012L85.2842 90.4277L84.2529 88.4707L82.4834 86.8652L82.2139 86.6309L82.085 86.291L81.124 83.8066L81.1006 83.7715L81.0889 83.7363L80.2803 81.2402L79.4131 78.6387L79.4014 78.5449L78.9092 75.9551L78.8975 75.873L78.8857 75.8027L78.6514 73.166H78.6396L78.1592 70.9277L77.3271 68.4082L77.3154 68.373L77.3037 68.3262L76.8994 66.8594L75.8916 67.4951L75.8682 67.5186L75.833 67.5303L73.7705 68.7021L72.6338 70.2021L72.5049 72.1943V72.2646L72.4814 72.3467L72.0361 74.8545L72.0479 74.8662L71.9658 75.5693L70.4775 75.4053L68.9893 75.2529L69.0596 74.5498V74.5029L69.0713 74.4561L69.5283 71.8311L69.6689 69.5576L69.7041 69.1123L69.9736 68.749L71.5908 66.6396L71.7783 66.3936L72.0361 66.2412L74.3447 64.9287L76.3896 63.6387L76.3662 63.3691L77.0107 63.2988L77.8428 63.1348L79.3076 62.8301L79.3545 63.0176V63.0996L79.5186 65.1035L80.1748 67.459L81.0068 69.9785L81.0303 70.0488L81.0537 70.1309L81.6162 72.709L81.6396 72.8027V72.9082L81.8623 75.4863L82.3076 77.8535L83.1279 80.3027L83.9482 82.7988H83.9365L84.7451 84.873L86.4678 86.4199L86.667 86.6074L86.7959 86.8418L88.0381 89.209L88.1318 89.3848L88.1787 89.5723L88.7646 92.1621L88.7998 92.291V92.4199L88.917 94.9395L89.4209 97.4355L89.4326 97.459V97.4824L89.8896 100.084V100.107L90.2998 102.744L90.335 102.979L90.2998 103.213L89.8779 105.709L89.9014 108.287V108.791L89.6084 109.189L88.0146 111.357L86.6436 113.502L86.6201 113.525L86.6084 113.549L86.2314 114.088L88.1191 114.098H88.2012L88.2832 114.109L90.6621 114.402L92.0684 114.074L92.373 112.621L92.1621 110.195L92.1387 109.973L92.1855 109.75L92.7246 107.148L93.0293 104.723L93.1113 102.145V102.027L93.416 99.4023V99.3438L93.4277 99.2852L93.9082 96.7656L94.1074 94.2227L94.1543 91.6562L94.166 91.457L94.2129 91.2812L94.7148 89.4697L94.2871 89.3711L93.6777 89.3594L93.7949 86.3594L94.5449 86.3945H94.6855L94.8262 86.4297L94.9941 86.4678L94.998 86.4531L95.0098 86.3477L96.498 86.5352L97.6934 86.6758L97.9746 86.6992L97.9629 86.7109L97.9863 86.7227L97.9746 86.8164L97.958 87.1816L99.877 87.7773L102.361 88.1172L104.904 88.1758L105.033 88.1875L105.162 88.2109L107.389 88.6562L108.852 88.1982L108.914 86.9688L108.75 84.4141V84.2734L108.762 84.1328L109.066 81.6133L108.984 79.0938L108.902 76.4922L108.738 73.8555L108.727 73.6797L108.762 73.5039L108.965 72.3477L106.777 71.5273L104.504 70.6602L102.078 70.5547L101.879 70.543L101.68 70.4727L99.1602 69.6289H99.125L99.1016 69.6172L96.6523 68.6797L96.5938 68.6562L96.5352 68.6211L94.168 67.4727L94.0156 67.3906L93.875 67.2852L91.8477 65.5977L91.7305 65.5156L91.6484 65.3984L89.9492 63.3711V63.3594L88.2617 61.5312L86.3867 59.668L86.3047 59.5977L86.2344 59.5039L84.6523 57.3711H84.6406L83.1992 55.3916L81.1787 55.0098H80.9678L81.0381 52.0098L81.4014 52.0215H81.5186L81.6357 52.0449L83.7451 52.4316L85.5498 51.4824L87.7998 50.1113L89.4639 48.9746L89.6592 48.2705L89.6162 48.2676L87.0967 48.4902L86.9678 48.502H86.8506L84.3193 48.3027L81.8701 48.6191L81.7646 48.6426L81.6475 48.6309L79.1865 48.5723L76.6904 49.1348L75.3311 49.4277L74.9326 48.0918L74.2295 45.7363L74.0771 45.1855L74.3232 44.6699L75.4365 42.3262L75.4717 42.2441L75.5186 42.1738L76.9248 39.9473L77.0303 39.7715L77.1826 39.6426L79.1396 37.8613L79.2803 37.7324L79.4561 37.6387L81.7998 36.4434L81.8936 36.3965L84.2959 35.377L84.3896 35.3418L84.4951 35.3066L87.0615 34.6152L87.3076 34.5449L87.5771 34.5684L89.8623 34.7676L90.1562 34.6504L88.8164 33.8447L86.5664 33.7275L84.0352 33.7861L84.0469 33.7979L81.6094 33.8799L79.3008 34.4424L77.1094 35.5088L74.7891 36.7275L72.7969 37.8525L71.3906 39.7627L71.3203 39.8564L69.7031 41.6846L68.6602 43.8525L68.6367 43.8994L67.5 45.9971L67.1367 48.2002L67.2422 50.6846V50.8018L67.2305 50.9189L66.9375 53.5674L66.9141 53.8369L65.7422 56.1807L65.6016 58.5596L65.5898 58.7236L65.5547 58.876L64.875 61.29L64.7344 63.7393V63.8213L64.7227 63.915L64.3125 66.1416L64.8984 67.7119L65.5312 68.0869L66.2344 67.5947L66.3164 67.0791L69.293 67.4775L69.1289 68.6729L69.0352 69.3408L68.4844 69.7158L66.4336 71.0986L65.6484 71.626L64.8398 71.1572L62.918 70.0322L62.4492 69.7627L62.2734 69.2588L61.3711 66.7979L61.2305 66.4111L61.3008 66.0127L61.7578 63.4932L61.8984 60.9385L61.9102 60.7744L61.9453 60.6104L62.625 58.1846L62.7656 55.7119L62.7891 55.4072L62.918 55.1377L63.9844 52.9697L64.2422 50.6846L64.1367 48.1885L64.125 48.0361L64.1484 47.8838L64.582 45.2705L64.6289 45.0361L64.7461 44.8135L65.9883 42.4814L67.1133 40.1729L67.207 39.9971L67.3359 39.8564L69.0586 37.876L70.582 35.8252L70.7695 35.5674L71.0391 35.415L73.3477 34.0908L73.3828 34.0791L73.4062 34.0674L75.7266 32.8486H75.75L75.7734 32.8369L78.1406 31.6885L78.2812 31.6182L78.4336 31.583L81 30.9385L81.1406 30.9033H81.3047L83.9297 30.7979H83.9531L86.5781 30.7275H86.6953L89.3438 30.8799L89.7188 30.8916L90.0352 31.0908L92.2969 32.4385L92.4609 32.5322L92.5898 32.6729L94.3125 34.4072L93.3867 35.3096L93.3398 35.4854L92.9902 36.6455L93.0264 36.7363L92.957 36.7559L92.9062 36.9268L92.8125 36.8916L92.7041 36.8594L90.6592 37.6738L90.3428 37.8027L89.9912 37.7793L87.5889 37.5684L85.4092 38.1543L83.0654 39.1621L81.0146 40.2051L79.3389 41.7168L78.1436 43.6152L77.2764 45.4316L77.4053 45.8887L78.7178 45.6074L78.8936 45.5723H79.0811L81.5303 45.6309L84.1201 45.3145L84.2725 45.291L84.4248 45.3027L86.9443 45.4902L89.4639 45.2793L89.5811 45.2676L89.6982 45.2793L92.1006 45.4316L92.042 46.2051L92.3818 46.627L93.3311 47.7871L92.9443 48.1035L92.7861 48.2285L92.2061 50.3105L92.0654 50.8496L91.6084 51.1543L89.417 52.6426L89.3936 52.6543L89.3584 52.6777L87.1084 54.0488L87.0381 54.0957L86.2676 54.5059L87.0664 55.5898H87.0547L88.5664 57.6055L90.418 59.457L92.2109 61.3906L92.2344 61.4258L92.2578 61.4492L93.8867 63.3945L95.6445 64.8477L97.7305 65.8789L100.168 66.8047H100.156L102.406 67.5547L104.891 67.6836H105.137L105.359 67.7773L107.844 68.7148L108.824 69.0889L108.762 68.7344L108.727 68.5352L108.75 68.3359L108.984 65.7812L108.844 63.2852V63.1328L108.867 62.9922L109.195 60.6133L108.715 58.2344L108.68 58.0938V57.9414L108.668 55.4102L108.469 52.9023L108.047 50.3008L108.035 50.2305V50.1602L107.871 47.7109L107.086 45.3789L107.062 45.332L106.301 42.8008L106.289 42.7539L106.277 42.6953L105.727 40.3281L104.484 38.2422L104.391 38.0547L103.406 35.6875L102.363 33.4609L100.852 31.4102L100.84 31.3984L99.3047 29.2539L99.2695 29.207L99.2344 29.1484L97.9922 27.1094L96.1055 25.6445L95.9297 25.5156L95.8008 25.3516L94.3242 23.3359L92.5078 21.8594L90.3164 20.6641L90.1992 20.5938L88.0195 19.1289L87.9727 19.0938L87.9258 19.0469L85.9922 17.5L83.7539 16.5156L81.3398 15.4609V15.4492L79.0078 14.5L76.5117 13.6445V13.6328L74.168 12.9297L71.6836 12.7422L71.5898 12.7305L71.4844 12.7188L68.9766 12.168L66.5273 12.0742H66.4102L66.293 12.0508L63.7969 11.5469L61.3242 11.5234H58.8047L56.1797 11.7344ZM19.8379 90.6836L19.7207 90.7188L19.6035 90.7422L16.9785 91.1055L16.8965 91.1172H16.8145L14.3301 91.1641L11.8105 91.6797L11.4355 91.75L11.0723 91.6328L10.4902 91.4492L10.5 91.6328V91.75L10.4297 94.1875L10.7109 96.8242L10.7344 97.0352L10.6992 97.2461L10.2773 99.6484L10.5938 102.074L10.6055 102.215V102.344L10.4766 104.922L10.4883 104.934L10.4414 107.512L10.7109 110.031L10.7344 110.172L10.7227 110.324L10.4883 112.961L10.4668 114.398L10.5781 114.395L10.6836 114.383L10.8008 114.395L13.2852 114.664L15.7695 114.418H15.8633L18.5 114.312L18.5938 114.301L18.6758 114.312L21.3125 114.512L21.3008 114.523H23.7383L23.957 114.508L23.6504 113.02L23.6035 112.809L23.6152 112.586L23.8379 110.113L23.334 107.77L23.3223 107.699L23.3105 107.641L22.9824 105.027V104.957L22.9707 104.887L22.8887 102.238L22.6074 99.7305L22.6191 99.7188L22.127 97.2578L22.1035 97.1641V97.082L21.9043 94.4453L21.8926 94.4102V94.3633L21.8574 91.9258L21.375 90.21L19.8379 90.6836ZM48.6445 54.6953L48.7969 54.8008L48.9141 54.9531L49.6875 55.8672L50.1094 56.043L52.0312 56.8047L50.707 58.3984L50.6484 58.457L49.5234 57.5078L49.0078 58.832L48.2344 58.5273L47.8828 58.3867L47.6484 58.0938L46.7109 57.0039L45.7031 56.2891L45.6562 56.2539L45.6211 56.2188L45.5391 56.1484L46.5 55L47.3203 54.0156L47.4492 53.8398L48.6445 54.6953ZM71.1797 54.0156L72 55L72.9609 56.1484L72.8789 56.2188L72.8438 56.2539L72.7969 56.2891L71.7891 57.0039L70.8516 58.0938L70.6172 58.3867L70.2656 58.5273L69.4922 58.832L68.9766 57.5078L67.8516 58.457L67.793 58.3984L66.4688 56.8047L68.3906 56.043L68.8125 55.8672L69.5859 54.9531L69.7031 54.8008L69.8555 54.6953L71.0508 53.8398L71.1797 54.0156Z" fill="black"/>
</svg>
