<svg width="120" height="120" viewBox="0 0 120 120" fill="none" xmlns="http://www.w3.org/2000/svg">
<path d="M114.528 89.229L114.489 87.7295L114.424 87.7311L114.359 87.7385L114.528 89.229ZM111.999 89.515L111.809 91.003L111.988 91.0258L112.167 91.0055L111.999 89.515ZM109.375 89.1802L109.185 90.6681L109.185 90.6681L109.375 89.1802ZM106.759 88.8462L106.949 87.3583L106.814 87.341L106.678 87.3484L106.759 88.8462ZM104.451 88.9713L104.37 87.4735L104.075 87.4894L103.808 87.6161L104.451 88.9713ZM102.059 90.1066L101.416 88.7514L101.381 88.7677L101.348 88.7857L102.059 90.1066ZM99.7347 91.3573L99.0238 90.0365L99.0077 90.0451L98.9918 90.0542L99.7347 91.3573ZM97.4312 92.6705L97.9342 94.0836L98.059 94.0392L98.174 93.9736L97.4312 92.6705ZM94.9334 93.5595L95.229 95.0301L95.3348 95.0089L95.4364 94.9727L94.9334 93.5595ZM92.3291 94.083L92.0335 92.6124L91.8507 92.6492L91.6824 92.7296L92.3291 94.083ZM89.915 95.2366L90.1929 96.7106L90.3851 96.6743L90.5617 96.59L89.915 95.2366ZM87.3104 95.7276L87.0325 94.2536L86.9857 94.2624L86.9396 94.2742L87.3104 95.7276ZM84.7377 96.3839L84.7023 97.8835L84.9086 97.8884L85.1085 97.8374L84.7377 96.3839ZM82.0767 96.321L81.749 97.7848L81.8934 97.8171L82.0413 97.8206L82.0767 96.321ZM79.5399 95.753L78.4519 96.7856L78.7664 97.1169L79.2121 97.2167L79.5399 95.753ZM77.7268 93.8428L76.2293 93.93L76.2612 94.4776L76.6388 94.8754L77.7268 93.8428ZM114.628 89.2264L114.589 87.7269L114.489 87.7295L114.528 89.229L114.566 90.7285L114.666 90.7259L114.628 89.2264ZM114.528 89.229L114.359 87.7385L111.83 88.0246L111.999 89.515L112.167 91.0055L114.696 90.7195L114.528 89.229ZM111.999 89.515L112.189 88.0271L109.565 87.6922L109.375 89.1802L109.185 90.6681L111.809 91.003L111.999 89.515ZM109.375 89.1802L109.565 87.6922L106.949 87.3583L106.759 88.8462L106.569 90.3341L109.185 90.6681L109.375 89.1802ZM106.759 88.8462L106.678 87.3484L104.37 87.4735L104.451 88.9713L104.533 90.4691L106.84 90.344L106.759 88.8462ZM104.451 88.9713L103.808 87.6161L101.416 88.7514L102.059 90.1066L102.702 91.4617L105.094 90.3265L104.451 88.9713ZM102.059 90.1066L101.348 88.7857L99.0238 90.0365L99.7347 91.3573L100.446 92.6782L102.77 91.4274L102.059 90.1066ZM99.7347 91.3573L98.9918 90.0542L96.6883 91.3674L97.4312 92.6705L98.174 93.9736L100.478 92.6605L99.7347 91.3573ZM97.4312 92.6705L96.9282 91.2573L94.4304 92.1464L94.9334 93.5595L95.4364 94.9727L97.9342 94.0836L97.4312 92.6705ZM94.9334 93.5595L94.6378 92.089L92.0335 92.6124L92.3291 94.083L92.6247 95.5536L95.229 95.0301L94.9334 93.5595ZM92.3291 94.083L91.6824 92.7296L89.2683 93.8831L89.915 95.2366L90.5617 96.59L92.9758 95.4364L92.3291 94.083ZM89.915 95.2366L89.6371 93.7625L87.0325 94.2536L87.3104 95.7276L87.5883 97.2016L90.1929 96.7106L89.915 95.2366ZM87.3104 95.7276L86.9396 94.2742L84.3669 94.9305L84.7377 96.3839L85.1085 97.8374L87.6812 97.1811L87.3104 95.7276ZM84.7377 96.3839L84.7731 94.8843L82.1122 94.8215L82.0767 96.321L82.0413 97.8206L84.7023 97.8835L84.7377 96.3839ZM82.0767 96.321L82.4045 94.8573L79.8676 94.2892L79.5399 95.753L79.2121 97.2167L81.749 97.7848L82.0767 96.321ZM79.5399 95.753L80.6278 94.7203L78.8147 92.8101L77.7268 93.8428L76.6388 94.8754L78.4519 96.7856L79.5399 95.753ZM77.7268 93.8428L79.2242 93.7556L79.2084 93.4837L77.7109 93.5709L76.2135 93.6581L76.2293 93.93L77.7268 93.8428Z" fill="black"/>
<path d="M30.9345 14.8859L29.4374 14.9801L29.4426 15.0619L29.4566 15.1427L30.9345 14.8859ZM31.3707 17.3964L32.8633 17.5451L32.8836 17.3414L32.8485 17.1396L31.3707 17.3964ZM31.1075 20.038L29.6149 19.8893L29.6007 20.0312L29.6136 20.1733L31.1075 20.038ZM31.3467 22.6788L29.8529 22.8141L29.8555 22.8428L29.8592 22.8714L31.3467 22.6788ZM31.6836 25.2803L33.1822 25.2159L33.1794 25.1515L33.1712 25.0877L31.6836 25.2803ZM31.7975 27.9301L30.2989 27.9946L30.3 28.0195L30.3019 28.0444L31.7975 27.9301ZM31.9986 30.5618L30.503 30.6761L30.5057 30.7118L30.5101 30.7474L31.9986 30.5618ZM32.3262 33.1896L30.8377 33.3751L30.8502 33.4758L30.8762 33.5739L32.3262 33.1896ZM32.9704 35.6208L34.4696 35.6715L34.4771 35.4504L34.4204 35.2366L32.9704 35.6208ZM32.8822 38.2306L34.3806 38.3006L34.381 38.2909L34.3814 38.2813L32.8822 38.2306ZM32.758 40.8889L34.2128 41.2544L34.2493 41.1089L34.2563 40.959L32.758 40.8889ZM32.1163 43.4431L30.6615 43.0776L30.6376 43.1728L30.6263 43.2703L32.1163 43.4431ZM31.8115 46.0709L33.2445 46.5141L33.2855 46.3815L33.3015 46.2437L31.8115 46.0709ZM31.0256 48.6114L29.5926 48.1682L29.5575 48.2817L29.5407 48.3993L31.0256 48.6114ZM30.6519 51.2264L29.167 51.0143L29.166 51.0215L30.6519 51.2264ZM30.2912 53.8427L28.8052 53.6378L28.8013 53.6662L28.7985 53.6947L30.2912 53.8427ZM30.0304 56.4731L31.4505 56.9561L31.5061 56.7928L31.5231 56.621L30.0304 56.4731ZM29.1672 59.0109L27.7471 58.5278L27.6612 58.7801L27.6676 59.0465L29.1672 59.0109ZM29.2309 61.6907L30.6856 62.0564L30.7353 61.8588L30.7305 61.655L29.2309 61.6907ZM28.5842 64.2629L27.1295 63.8971L27.1038 63.9993L27.0926 64.1042L28.5842 64.2629ZM28.3043 66.8928L29.7305 67.3575L29.7793 67.2079L29.7959 67.0515L28.3043 66.8928ZM27.4782 69.4277L26.0521 68.963L25.98 69.1841L25.9783 69.4166L27.4782 69.4277ZM27.4583 72.1133L28.9054 72.508L28.9568 72.3197L28.9583 72.1244L27.4583 72.1133ZM26.7613 74.6685L25.3142 74.2738L25.3135 74.2764L26.7613 74.6685ZM26.0702 77.2205L27.5094 77.6434L27.5139 77.6281L27.518 77.6126L26.0702 77.2205ZM25.3243 79.7593L26.6564 80.449L26.7228 80.3207L26.7635 80.1822L25.3243 79.7593ZM24.1016 82.121L22.7696 81.4314L22.6902 81.5847L22.6477 81.7521L24.1016 82.121ZM23.6203 84.018L23.0741 85.415L24.6563 86.0336L25.0742 84.3869L23.6203 84.018ZM30.9282 14.7861L29.4312 14.8803L29.4374 14.9801L30.9345 14.8859L32.4315 14.7918L32.4252 14.692L30.9282 14.7861ZM30.9345 14.8859L29.4566 15.1427L29.8928 17.6532L31.3707 17.3964L32.8485 17.1396L32.4123 14.6292L30.9345 14.8859ZM31.3707 17.3964L29.8781 17.2477L29.6149 19.8893L31.1075 20.038L32.6001 20.1867L32.8633 17.5451L31.3707 17.3964ZM31.1075 20.038L29.6136 20.1733L29.8529 22.8141L31.3467 22.6788L32.8406 22.5434L32.6014 19.9026L31.1075 20.038ZM31.3467 22.6788L29.8592 22.8714L30.196 25.4729L31.6836 25.2803L33.1712 25.0877L32.8343 22.4862L31.3467 22.6788ZM31.6836 25.2803L30.185 25.3447L30.2989 27.9946L31.7975 27.9301L33.2961 27.8657L33.1822 25.2159L31.6836 25.2803ZM31.7975 27.9301L30.3019 28.0444L30.503 30.6761L31.9986 30.5618L33.4943 30.4475L33.2931 27.8158L31.7975 27.9301ZM31.9986 30.5618L30.5101 30.7474L30.8377 33.3751L32.3262 33.1896L33.8146 33.0041L33.4871 30.3763L31.9986 30.5618ZM32.3262 33.1896L30.8762 33.5739L31.5205 36.0051L32.9704 35.6208L34.4204 35.2366L33.7761 32.8054L32.3262 33.1896ZM32.9704 35.6208L31.4713 35.5702L31.3831 38.1799L32.8822 38.2306L34.3814 38.2813L34.4696 35.6715L32.9704 35.6208ZM32.8822 38.2306L31.3839 38.1605L31.2596 40.8189L32.758 40.8889L34.2563 40.959L34.3806 38.3006L32.8822 38.2306ZM32.758 40.8889L31.3032 40.5234L30.6615 43.0776L32.1163 43.4431L33.5711 43.8086L34.2128 41.2544L32.758 40.8889ZM32.1163 43.4431L30.6263 43.2703L30.3215 45.898L31.8115 46.0709L33.3015 46.2437L33.6063 43.6159L32.1163 43.4431ZM31.8115 46.0709L30.3785 45.6276L29.5926 48.1682L31.0256 48.6114L32.4586 49.0547L33.2445 46.5141L31.8115 46.0709ZM31.0256 48.6114L29.5407 48.3993L29.167 51.0143L30.6519 51.2264L32.1369 51.4386L32.5105 48.8236L31.0256 48.6114ZM30.6519 51.2264L29.166 51.0215L28.8052 53.6378L30.2912 53.8427L31.7771 54.0476L32.1379 51.4313L30.6519 51.2264ZM30.2912 53.8427L28.7985 53.6947L28.5378 56.3251L30.0304 56.4731L31.5231 56.621L31.7839 53.9906L30.2912 53.8427ZM30.0304 56.4731L28.6104 55.99L27.7471 58.5278L29.1672 59.0109L30.5872 59.4939L31.4505 56.9561L30.0304 56.4731ZM29.1672 59.0109L27.6676 59.0465L27.7313 61.7263L29.2309 61.6907L30.7305 61.655L30.6667 58.9752L29.1672 59.0109ZM29.2309 61.6907L27.7762 61.3249L27.1295 63.8971L28.5842 64.2629L30.0389 64.6286L30.6856 62.0564L29.2309 61.6907ZM28.5842 64.2629L27.0926 64.1042L26.8128 66.734L28.3043 66.8928L29.7959 67.0515L30.0758 64.4216L28.5842 64.2629ZM28.3043 66.8928L26.8782 66.428L26.0521 68.963L27.4782 69.4277L28.9044 69.8925L29.7305 67.3575L28.3043 66.8928ZM27.4782 69.4277L25.9783 69.4166L25.9583 72.1022L27.4583 72.1133L28.9583 72.1244L28.9782 69.4389L27.4782 69.4277ZM27.4583 72.1133L26.0112 71.7186L25.3142 74.2738L26.7613 74.6685L28.2085 75.0632L28.9054 72.508L27.4583 72.1133ZM26.7613 74.6685L25.3135 74.2764L24.6223 76.8284L26.0702 77.2205L27.518 77.6126L28.2092 75.0606L26.7613 74.6685ZM26.0702 77.2205L24.631 76.7977L23.8851 79.3365L25.3243 79.7593L26.7635 80.1822L27.5094 77.6434L26.0702 77.2205ZM25.3243 79.7593L23.9922 79.0697L22.7696 81.4314L24.1016 82.121L25.4337 82.8106L26.6564 80.449L25.3243 79.7593ZM24.1016 82.121L22.6477 81.7521L22.1664 83.649L23.6203 84.018L25.0742 84.3869L25.5556 82.4899L24.1016 82.121ZM23.6203 84.018L24.1665 82.6209L24.1409 82.611L23.5947 84.008L23.0485 85.405L23.0741 85.415L23.6203 84.018Z" fill="black"/>
<path d="M83.4411 14.5565L81.9413 14.5278L81.9404 14.5784L81.9428 14.6289L83.4411 14.5565ZM83.5636 17.0919L85.0607 17.1842L85.0658 17.1019L85.0618 17.0195L83.5636 17.0919ZM83.4003 19.7398L81.9032 19.6475L81.8955 19.772L81.9085 19.8961L83.4003 19.7398ZM83.6766 22.3758L85.1748 22.4479L85.1804 22.3334L85.1684 22.2194L83.6766 22.3758ZM83.5491 25.0222L85.0273 25.2771L85.043 25.1863L85.0474 25.0944L83.5491 25.0222ZM83.0996 27.6291L81.6214 27.3742L81.6087 27.4478L81.6034 27.5222L83.0996 27.6291ZM82.9114 30.2627L81.4152 30.1558L81.41 30.2288L81.4119 30.3019L82.9114 30.2627ZM82.9804 32.9071L84.4193 33.331L84.4861 33.1042L84.4799 32.868L82.9804 32.9071ZM82.235 35.4374L80.7961 35.0135L80.7756 35.0832L80.7619 35.1545L82.235 35.4374ZM81.7352 38.0392L80.2622 37.7563L80.1842 38.1623L80.3252 38.551L81.7352 38.0392ZM82.651 40.5625L84.136 40.3505L84.114 40.1968L84.061 40.0508L82.651 40.5625ZM83.0248 43.1804L81.5399 43.3924L81.5518 43.4759L81.573 43.5575L83.0248 43.1804ZM83.6903 45.7421L85.1876 45.6522L85.1788 45.5064L85.1421 45.365L83.6903 45.7421ZM83.8497 48.3976L82.3524 48.4875L82.3589 48.5963L82.3811 48.703L83.8497 48.3976ZM84.3874 50.9834L85.8594 50.6949L85.8577 50.6865L85.856 50.6781L84.3874 50.9834ZM84.8956 53.5761L83.4236 53.8647L83.4261 53.8773L83.4288 53.89L84.8956 53.5761ZM85.4496 56.165L86.9485 56.2228L86.9558 56.0349L86.9164 55.8511L85.4496 56.165ZM85.3462 58.8453L83.8473 58.7875L83.8371 59.054L83.9193 59.3077L85.3462 58.8453ZM86.1723 61.395L87.6703 61.3157L87.6599 61.1195L87.5993 60.9326L86.1723 61.395ZM86.3125 64.042L84.8146 64.1213L84.8207 64.238L84.8449 64.3524L86.3125 64.042ZM86.8595 66.628L88.3592 66.5979L88.3563 66.4562L88.327 66.3176L86.8595 66.628ZM86.9129 69.2946L85.4132 69.3247L85.4183 69.5772L85.5058 69.8142L86.9129 69.2946ZM87.8429 71.8133L89.3297 71.6146L89.3077 71.4498L89.2501 71.2938L87.8429 71.8133ZM88.1922 74.4265L86.7054 74.6252L86.7159 74.7043L86.7348 74.7818L88.1922 74.4265ZM88.8155 76.9833L87.3582 77.3386L87.377 77.4156L87.4038 77.4903L88.8155 76.9833ZM89.7062 79.4634L91.1616 79.1006L91.1434 79.0274L91.1179 78.9565L89.7062 79.4634ZM90.3498 82.0452L88.8944 82.4081L88.9392 82.588L89.0265 82.7515L90.3498 82.0452ZM91.392 83.9978L91.9486 85.3907L93.504 84.7692L92.7153 83.2915L91.392 83.9978ZM83.443 14.4565L81.9432 14.4278L81.9413 14.5278L83.4411 14.5565L84.9408 14.5853L84.9427 14.4853L83.443 14.4565ZM83.4411 14.5565L81.9428 14.6289L82.0653 17.1643L83.5636 17.0919L85.0618 17.0195L84.9393 14.4841L83.4411 14.5565ZM83.5636 17.0919L82.0664 16.9996L81.9032 19.6475L83.4003 19.7398L84.8975 19.8321L85.0607 17.1842L83.5636 17.0919ZM83.4003 19.7398L81.9085 19.8961L82.1847 22.5321L83.6766 22.3758L85.1684 22.2194L84.8921 19.5834L83.4003 19.7398ZM83.6766 22.3758L82.1783 22.3036L82.0509 24.95L83.5491 25.0222L85.0474 25.0944L85.1748 22.4479L83.6766 22.3758ZM83.5491 25.0222L82.0709 24.7673L81.6214 27.3742L83.0996 27.6291L84.5778 27.884L85.0273 25.2771L83.5491 25.0222ZM83.0996 27.6291L81.6034 27.5222L81.4152 30.1558L82.9114 30.2627L84.4076 30.3697L84.5958 27.736L83.0996 27.6291ZM82.9114 30.2627L81.4119 30.3019L81.4809 32.9462L82.9804 32.9071L84.4799 32.868L84.4109 30.2236L82.9114 30.2627ZM82.9804 32.9071L81.5415 32.4832L80.7961 35.0135L82.235 35.4374L83.6738 35.8613L84.4193 33.331L82.9804 32.9071ZM82.235 35.4374L80.7619 35.1545L80.2622 37.7563L81.7352 38.0392L83.2083 38.3222L83.708 35.7204L82.235 35.4374ZM81.7352 38.0392L80.3252 38.551L81.241 41.0743L82.651 40.5625L84.061 40.0508L83.1452 37.5275L81.7352 38.0392ZM82.651 40.5625L81.1661 40.7746L81.5399 43.3924L83.0248 43.1804L84.5097 42.9684L84.136 40.3505L82.651 40.5625ZM83.0248 43.1804L81.573 43.5575L82.2384 46.1193L83.6903 45.7421L85.1421 45.365L84.4766 42.8033L83.0248 43.1804ZM83.6903 45.7421L82.193 45.832L82.3524 48.4875L83.8497 48.3976L85.347 48.3077L85.1876 45.6522L83.6903 45.7421ZM83.8497 48.3976L82.3811 48.703L82.9188 51.2888L84.3874 50.9834L85.856 50.6781L85.3183 48.0922L83.8497 48.3976ZM84.3874 50.9834L82.9154 51.272L83.4236 53.8647L84.8956 53.5761L86.3676 53.2876L85.8594 50.6949L84.3874 50.9834ZM84.8956 53.5761L83.4288 53.89L83.9828 56.4789L85.4496 56.165L86.9164 55.8511L86.3624 53.2622L84.8956 53.5761ZM85.4496 56.165L83.9507 56.1072L83.8473 58.7875L85.3462 58.8453L86.8451 58.9031L86.9485 56.2228L85.4496 56.165ZM85.3462 58.8453L83.9193 59.3077L84.7454 61.8573L86.1723 61.395L87.5993 60.9326L86.7732 58.383L85.3462 58.8453ZM86.1723 61.395L84.6744 61.4743L84.8146 64.1213L86.3125 64.042L87.8104 63.9627L87.6703 61.3157L86.1723 61.395ZM86.3125 64.042L84.8449 64.3524L85.3919 66.9384L86.8595 66.628L88.327 66.3176L87.78 63.7316L86.3125 64.042ZM86.8595 66.628L85.3598 66.658L85.4132 69.3247L86.9129 69.2946L88.4126 69.2646L88.3592 66.5979L86.8595 66.628ZM86.9129 69.2946L85.5058 69.8142L86.4358 72.3329L87.8429 71.8133L89.2501 71.2938L88.3201 68.7751L86.9129 69.2946ZM87.8429 71.8133L86.3561 72.0121L86.7054 74.6252L88.1922 74.4265L89.6789 74.2278L89.3297 71.6146L87.8429 71.8133ZM88.1922 74.4265L86.7348 74.7818L87.3582 77.3386L88.8155 76.9833L90.2728 76.628L89.6495 74.0712L88.1922 74.4265ZM88.8155 76.9833L87.4038 77.4903L88.2944 79.9704L89.7062 79.4634L91.1179 78.9565L90.2272 76.4763L88.8155 76.9833ZM89.7062 79.4634L88.2507 79.8263L88.8944 82.4081L90.3498 82.0452L91.8053 81.6824L91.1616 79.1006L89.7062 79.4634ZM90.3498 82.0452L89.0265 82.7515L90.0687 84.7041L91.392 83.9978L92.7153 83.2915L91.6731 81.3389L90.3498 82.0452ZM91.392 83.9978L90.8354 82.6049L90.8099 82.6151L91.3665 84.008L91.9231 85.4009L91.9486 85.3907L91.392 83.9978Z" fill="black"/>
<path d="M58.4754 107.255L59.3785 108.453L59.3923 108.442L59.4058 108.432L58.4754 107.255ZM60.4606 105.685L59.6867 104.4L59.6049 104.449L59.5301 104.508L60.4606 105.685ZM62.7365 104.314L63.5104 105.599L63.6433 105.519L63.757 105.414L62.7365 104.314ZM64.6847 102.506L63.7249 101.353L63.6938 101.379L63.6642 101.406L64.6847 102.506ZM66.7142 100.816L65.8947 99.5592L65.8215 99.6069L65.7544 99.6628L66.7142 100.816ZM68.9333 99.3681L69.7528 100.624L69.7999 100.594L69.8446 100.559L68.9333 99.3681ZM71.0315 97.763L71.9428 98.9544L71.988 98.9199L72.0303 98.882L71.0315 97.763ZM73.0052 96.0012L72.1226 94.7884L72.0621 94.8324L72.0063 94.8822L73.0052 96.0012ZM75.1457 94.4437L74.3758 93.1563L74.3178 93.191L74.2632 93.2308L75.1457 94.4437ZM77.4274 93.079L78.1973 94.3664L78.378 94.2583L78.522 94.1047L77.4274 93.079ZM79.2532 91.1305L78.4324 89.875L78.2817 89.9735L78.1586 90.1049L79.2532 91.1305ZM81.4698 89.6815L82.2906 90.937L82.337 90.9067L82.381 90.873L81.4698 89.6815ZM83.5785 88.0687L83.0001 86.6848L82.8213 86.7595L82.6673 86.8773L83.5785 88.0687ZM86.0386 87.0405L86.617 88.4245L86.6899 88.3941L86.7592 88.3561L86.0386 87.0405ZM88.3544 85.772L87.6342 84.4563L87.6338 84.4565L88.3544 85.772ZM90.6701 84.5045L90.3394 83.0414L90.1343 83.0878L89.9499 83.1887L90.6701 84.5045ZM93.2867 83.913L93.5395 82.4345L93.2462 82.3843L92.956 82.4499L93.2867 83.913ZM95.9061 84.3608L95.6533 85.8393L95.8506 85.8731L96.0498 85.8539L95.9061 84.3608ZM98.5737 84.1039L99.0224 82.6726L98.7324 82.5817L98.43 82.6108L98.5737 84.1039ZM101.118 84.9013L100.669 86.3327L100.714 86.3467L100.759 86.3578L101.118 84.9013ZM103.694 85.5358L104.96 84.7313L104.637 84.2232L104.053 84.0793L103.694 85.5358ZM105.042 87.6567L103.776 88.4612L103.786 88.4777L103.797 88.494L105.042 87.6567ZM58.3955 107.315L59.2986 108.513L59.3785 108.453L58.4754 107.255L57.5722 106.057L57.4924 106.118L58.3955 107.315ZM58.4754 107.255L59.4058 108.432L61.391 106.862L60.4606 105.685L59.5301 104.508L57.5449 106.078L58.4754 107.255ZM60.4606 105.685L61.2345 106.97L63.5104 105.599L62.7365 104.314L61.9625 103.029L59.6867 104.4L60.4606 105.685ZM62.7365 104.314L63.757 105.414L65.7053 103.605L64.6847 102.506L63.6642 101.406L61.7159 103.215L62.7365 104.314ZM64.6847 102.506L65.6446 103.658L67.6741 101.968L66.7142 100.816L65.7544 99.6628L63.7249 101.353L64.6847 102.506ZM66.7142 100.816L67.5338 102.072L69.7528 100.624L68.9333 99.3681L68.1138 98.1117L65.8947 99.5592L66.7142 100.816ZM68.9333 99.3681L69.8446 100.559L71.9428 98.9544L71.0315 97.763L70.1201 96.5716L68.0219 98.1767L68.9333 99.3681ZM71.0315 97.763L72.0303 98.882L74.0041 97.1203L73.0052 96.0012L72.0063 94.8822L70.0326 96.644L71.0315 97.763ZM73.0052 96.0012L73.8878 97.2141L76.0283 95.6565L75.1457 94.4437L74.2632 93.2308L72.1226 94.7884L73.0052 96.0012ZM75.1457 94.4437L75.9156 95.731L78.1973 94.3664L77.4274 93.079L76.6575 91.7917L74.3758 93.1563L75.1457 94.4437ZM77.4274 93.079L78.522 94.1047L80.3478 92.1562L79.2532 91.1305L78.1586 90.1049L76.3329 92.0534L77.4274 93.079ZM79.2532 91.1305L80.074 92.3861L82.2906 90.937L81.4698 89.6815L80.649 88.426L78.4324 89.875L79.2532 91.1305ZM81.4698 89.6815L82.381 90.873L84.4898 89.2602L83.5785 88.0687L82.6673 86.8773L80.5586 88.49L81.4698 89.6815ZM83.5785 88.0687L84.157 89.4527L86.617 88.4245L86.0386 87.0405L85.4601 85.6566L83.0001 86.6848L83.5785 88.0687ZM86.0386 87.0405L86.7592 88.3561L89.075 87.0876L88.3544 85.772L87.6338 84.4565L85.318 85.725L86.0386 87.0405ZM88.3544 85.772L89.0746 87.0878L91.3903 85.8203L90.6701 84.5045L89.9499 83.1887L87.6342 84.4563L88.3544 85.772ZM90.6701 84.5045L91.0008 85.9676L93.6174 85.3761L93.2867 83.913L92.956 82.4499L90.3394 83.0414L90.6701 84.5045ZM93.2867 83.913L93.034 85.3916L95.6533 85.8393L95.9061 84.3608L96.1588 82.8822L93.5395 82.4345L93.2867 83.913ZM95.9061 84.3608L96.0498 85.8539L98.7175 85.597L98.5737 84.1039L98.43 82.6108L95.7623 82.8677L95.9061 84.3608ZM98.5737 84.1039L98.125 85.5352L100.669 86.3327L101.118 84.9013L101.566 83.47L99.0224 82.6726L98.5737 84.1039ZM101.118 84.9013L100.759 86.3578L103.335 86.9923L103.694 85.5358L104.053 84.0793L101.476 83.4448L101.118 84.9013ZM103.694 85.5358L102.428 86.3402L103.776 88.4612L105.042 87.6567L106.308 86.8523L104.96 84.7313L103.694 85.5358ZM105.042 87.6567L103.797 88.494L104.112 88.9622L105.357 88.1249L106.601 87.2876L106.286 86.8194L105.042 87.6567Z" fill="black"/>
<path d="M5.8154 89.2381L5.49135 87.7735L5.31653 87.8122L5.15573 87.8909L5.8154 89.2381ZM8.26766 88.6955L8.59171 90.1601L8.94013 90.083L9.21651 89.8573L8.26766 88.6955ZM10.1836 87.1307L11.1324 88.2925L11.1917 88.2441L11.2457 88.19L10.1836 87.1307ZM11.9364 85.3732L11.3964 83.9738L11.0992 84.0885L10.8743 84.314L11.9364 85.3732ZM14.4187 84.4154L14.2763 82.9221L14.0711 82.9417L13.8787 83.0159L14.4187 84.4154ZM17.0659 84.1631L16.9925 82.6649L16.958 82.6666L16.9236 82.6698L17.0659 84.1631ZM19.7002 84.034L19.7736 85.5322L19.7756 85.5321L19.7002 84.034ZM22.3464 83.9008L22.8287 82.4805L22.5573 82.3883L22.271 82.4027L22.3464 83.9008ZM24.8433 84.7486L25.7294 83.5384L25.5436 83.4023L25.3256 83.3283L24.8433 84.7486ZM26.9897 86.3202L26.1035 87.5305L26.2956 87.6711L26.5218 87.7454L26.9897 86.3202ZM29.5341 87.1555L30.3467 85.8946L30.1849 85.7904L30.002 85.7303L29.5341 87.1555ZM31.7644 88.5929L30.9519 89.8537L30.9565 89.8567L31.7644 88.5929ZM34.0118 90.0295L35.1369 89.0375L34.9974 88.8793L34.8197 88.7657L34.0118 90.0295ZM35.7746 92.0288L34.6495 93.0208L34.7865 93.1762L34.9605 93.2887L35.7746 92.0288ZM37.9819 93.4551L37.1678 94.715L37.231 94.7558L37.2979 94.7901L37.9819 93.4551ZM40.3354 94.6609L39.6514 95.9959L39.6751 96.008L39.6993 96.0193L40.3354 94.6609ZM42.7345 95.7843L43.6694 94.6113L43.5309 94.501L43.3706 94.4259L42.7345 95.7843ZM44.8315 97.4558L43.8966 98.6288L44.1037 98.7939L44.3549 98.8781L44.8315 97.4558ZM47.3757 98.3086L48.2108 97.0625L48.0434 96.9503L47.8524 96.8863L47.3757 98.3086ZM49.5797 99.7856L48.7446 101.032L48.8371 101.094L48.9377 101.141L49.5797 99.7856ZM51.9697 100.918L52.8637 99.7131L52.7451 99.6251L52.6117 99.5619L51.9697 100.918ZM54.1114 102.507L53.2174 103.712L53.415 103.858L53.6491 103.934L54.1114 102.507ZM56.6686 103.336L57.4519 102.056L57.3002 101.963L57.1309 101.909L56.6686 103.336ZM58.9266 104.718L58.1433 105.998L58.1619 106.009L58.1809 106.02L58.9266 104.718ZM61.2185 106.032L60.4727 107.333L60.4947 107.346L60.5172 107.357L61.2185 106.032ZM63.5465 107.263L64.4628 106.075L64.3612 105.997L64.2478 105.937L63.5465 107.263ZM5.72559 89.2821L6.38525 90.6292L6.47506 90.5853L5.8154 89.2381L5.15573 87.8909L5.06592 87.9349L5.72559 89.2821ZM5.8154 89.2381L6.13945 90.7027L8.59171 90.1601L8.26766 88.6955L7.94361 87.2309L5.49135 87.7735L5.8154 89.2381ZM8.26766 88.6955L9.21651 89.8573L11.1324 88.2925L10.1836 87.1307L9.23472 85.969L7.3188 87.5338L8.26766 88.6955ZM10.1836 87.1307L11.2457 88.19L12.9984 86.4325L11.9364 85.3732L10.8743 84.314L9.12149 86.0715L10.1836 87.1307ZM11.9364 85.3732L12.4764 86.7726L14.9587 85.8148L14.4187 84.4154L13.8787 83.0159L11.3964 83.9738L11.9364 85.3732ZM14.4187 84.4154L14.561 85.9086L17.2082 85.6563L17.0659 84.1631L16.9236 82.6698L14.2763 82.9221L14.4187 84.4154ZM17.0659 84.1631L17.1393 85.6613L19.7736 85.5322L19.7002 84.034L19.6268 82.5358L16.9925 82.6649L17.0659 84.1631ZM19.7002 84.034L19.7756 85.5321L22.4218 85.3989L22.3464 83.9008L22.271 82.4027L19.6248 82.5359L19.7002 84.034ZM22.3464 83.9008L21.8642 85.3212L24.361 86.169L24.8433 84.7486L25.3256 83.3283L22.8287 82.4805L22.3464 83.9008ZM24.8433 84.7486L23.9571 85.9589L26.1035 87.5305L26.9897 86.3202L27.8758 85.1099L25.7294 83.5384L24.8433 84.7486ZM26.9897 86.3202L26.5218 87.7454L29.0663 88.5807L29.5341 87.1555L30.002 85.7303L27.4575 84.895L26.9897 86.3202ZM29.5341 87.1555L28.7215 88.4163L30.9519 89.8537L31.7644 88.5929L32.577 87.332L30.3467 85.8946L29.5341 87.1555ZM31.7644 88.5929L30.9565 89.8567L33.2038 91.2933L34.0118 90.0295L34.8197 88.7657L32.5724 87.329L31.7644 88.5929ZM34.0118 90.0295L32.8866 91.0215L34.6495 93.0208L35.7746 92.0288L36.8997 91.0368L35.1369 89.0375L34.0118 90.0295ZM35.7746 92.0288L34.9605 93.2887L37.1678 94.715L37.9819 93.4551L38.796 92.1952L36.5887 90.7689L35.7746 92.0288ZM37.9819 93.4551L37.2979 94.7901L39.6514 95.9959L40.3354 94.6609L41.0194 93.3259L38.6659 92.1201L37.9819 93.4551ZM40.3354 94.6609L39.6993 96.0193L42.0983 97.1428L42.7345 95.7843L43.3706 94.4259L40.9715 93.3025L40.3354 94.6609ZM42.7345 95.7843L41.7995 96.9573L43.8966 98.6288L44.8315 97.4558L45.7665 96.2828L43.6694 94.6113L42.7345 95.7843ZM44.8315 97.4558L44.3549 98.8781L46.899 99.7308L47.3757 98.3086L47.8524 96.8863L45.3082 96.0336L44.8315 97.4558ZM47.3757 98.3086L46.5406 99.5546L48.7446 101.032L49.5797 99.7856L50.4148 98.5396L48.2108 97.0625L47.3757 98.3086ZM49.5797 99.7856L48.9377 101.141L51.3276 102.273L51.9697 100.918L52.6117 99.5619L50.2218 98.43L49.5797 99.7856ZM51.9697 100.918L51.0757 102.122L53.2174 103.712L54.1114 102.507L55.0054 101.303L52.8637 99.7131L51.9697 100.918ZM54.1114 102.507L53.6491 103.934L56.2063 104.763L56.6686 103.336L57.1309 101.909L54.5737 101.08L54.1114 102.507ZM56.6686 103.336L55.8853 104.615L58.1433 105.998L58.9266 104.718L59.7099 103.439L57.4519 102.056L56.6686 103.336ZM58.9266 104.718L58.1809 106.02L60.4727 107.333L61.2185 106.032L61.9642 104.73L59.6724 103.417L58.9266 104.718ZM61.2185 106.032L60.5172 107.357L62.8452 108.589L63.5465 107.263L64.2478 105.937L61.9198 104.706L61.2185 106.032ZM63.5465 107.263L62.6303 108.45L63.2694 108.944L64.1856 107.756L65.1019 106.568L64.4628 106.075L63.5465 107.263Z" fill="black"/>
<path d="M81.489 36.0328L81.6981 34.5474L81.6706 34.5435L81.6429 34.5407L81.489 36.0328ZM78.9589 35.7717L78.6916 37.2478L78.748 37.258L78.8049 37.2638L78.9589 35.7717ZM76.339 35.2975L76.6062 33.8214L76.5211 33.806L76.4348 33.8005L76.339 35.2975ZM73.8357 35.1371L73.6212 36.6217L73.6803 36.6303L73.7399 36.6341L73.8357 35.1371ZM71.2572 34.7645L70.9715 36.237L71.0069 36.2439L71.0427 36.2491L71.2572 34.7645ZM68.6615 34.2609L68.9472 32.7883L68.8648 32.7723L68.7811 32.7656L68.6615 34.2609ZM66.0295 34.0504L66.1491 32.5552L66.0679 32.5487L65.9866 32.551L66.0295 34.0504ZM63.3861 34.1261L63.3147 35.6244L63.3719 35.6271L63.4291 35.6255L63.3861 34.1261ZM60.7498 34.0004L60.5517 35.4873L60.6147 35.4957L60.6783 35.4987L60.7498 34.0004ZM58.1141 33.6493L58.3122 32.1624L58.0952 32.1335L57.879 32.1678L58.1141 33.6493ZM55.472 34.0686L55.4081 35.5672L55.5585 35.5736L55.7071 35.55L55.472 34.0686ZM52.8335 33.9561L52.8974 32.4574L52.7917 32.4529L52.6865 32.4633L52.8335 33.9561ZM50.2049 34.2149L50.1152 35.7122L50.2337 35.7193L50.3519 35.7077L50.2049 34.2149ZM47.5528 34.0561L47.6425 32.5588L47.5054 32.5506L47.3692 32.5674L47.5528 34.0561ZM44.9304 34.3796L44.7468 32.8909L44.7263 32.8934L44.7059 32.8965L44.9304 34.3796ZM42.3263 34.7738L42.1018 33.2907L41.9267 33.3172L41.7626 33.3837L42.3263 34.7738ZM39.9523 35.7365L39.6214 37.1996L40.0801 37.3033L40.5159 37.1266L39.9523 35.7365ZM37.1936 35.1128L37.5244 33.6497L37.0618 33.5451L36.6231 33.7255L37.1936 35.1128ZM34.6983 36.1391L34.5944 37.6354L34.9444 37.6598L35.2689 37.5263L34.6983 36.1391ZM81.588 36.0467L81.7971 34.5613L81.6981 34.5474L81.489 36.0328L81.28 37.5181L81.379 37.5321L81.588 36.0467ZM81.489 36.0328L81.6429 34.5407L79.1128 34.2797L78.9589 35.7717L78.8049 37.2638L81.3351 37.5248L81.489 36.0328ZM78.9589 35.7717L79.2261 34.2957L76.6062 33.8214L76.339 35.2975L76.0717 36.7735L78.6916 37.2478L78.9589 35.7717ZM76.339 35.2975L76.4348 33.8005L73.9316 33.6402L73.8357 35.1371L73.7399 36.6341L76.2431 36.7944L76.339 35.2975ZM73.8357 35.1371L74.0503 33.6526L71.4718 33.2799L71.2572 34.7645L71.0427 36.2491L73.6212 36.6217L73.8357 35.1371ZM71.2572 34.7645L71.5429 33.2919L68.9472 32.7883L68.6615 34.2609L68.3758 35.7334L70.9715 36.237L71.2572 34.7645ZM68.6615 34.2609L68.7811 32.7656L66.1491 32.5552L66.0295 34.0504L65.9099 35.5456L68.542 35.7561L68.6615 34.2609ZM66.0295 34.0504L65.9866 32.551L63.3432 32.6267L63.3861 34.1261L63.4291 35.6255L66.0724 35.5498L66.0295 34.0504ZM63.3861 34.1261L63.4576 32.6278L60.8212 32.5021L60.7498 34.0004L60.6783 35.4987L63.3147 35.6244L63.3861 34.1261ZM60.7498 34.0004L60.9479 32.5136L58.3122 32.1624L58.1141 33.6493L57.916 35.1361L60.5517 35.4873L60.7498 34.0004ZM58.1141 33.6493L57.879 32.1678L55.2369 32.5871L55.472 34.0686L55.7071 35.55L58.3492 35.1307L58.1141 33.6493ZM55.472 34.0686L55.5359 32.57L52.8974 32.4574L52.8335 33.9561L52.7696 35.4547L55.4081 35.5672L55.472 34.0686ZM52.8335 33.9561L52.6865 32.4633L50.0579 32.7221L50.2049 34.2149L50.3519 35.7077L52.9805 35.4489L52.8335 33.9561ZM50.2049 34.2149L50.2945 32.7176L47.6425 32.5588L47.5528 34.0561L47.4632 35.5534L50.1152 35.7122L50.2049 34.2149ZM47.5528 34.0561L47.3692 32.5674L44.7468 32.8909L44.9304 34.3796L45.1141 35.8683L47.7365 35.5448L47.5528 34.0561ZM44.9304 34.3796L44.7059 32.8965L42.1018 33.2907L42.3263 34.7738L42.5508 36.2569L45.1549 35.8627L44.9304 34.3796ZM42.3263 34.7738L41.7626 33.3837L39.3886 34.3465L39.9523 35.7365L40.5159 37.1266L42.89 36.1639L42.3263 34.7738ZM39.9523 35.7365L40.2831 34.2735L37.5244 33.6497L37.1936 35.1128L36.8628 36.5758L39.6214 37.1996L39.9523 35.7365ZM37.1936 35.1128L36.6231 33.7255L34.1278 34.7518L34.6983 36.1391L35.2689 37.5263L37.7642 36.5L37.1936 35.1128ZM34.6983 36.1391L34.8023 34.6427L33.4731 34.5503L33.3691 36.0467L33.2652 37.5431L34.5944 37.6354L34.6983 36.1391Z" fill="black"/>
<path d="M39.7679 35.8166L38.2789 35.6354L38.2669 35.7335L38.268 35.8323L39.7679 35.8166ZM39.7945 38.3453L41.211 38.8387L41.2971 38.5914L41.2944 38.3295L39.7945 38.3453ZM38.9198 40.8563L37.5033 40.3629L37.4325 40.5662L37.4217 40.7812L38.9198 40.8563ZM38.7871 43.5071L40.2844 43.5968L40.2848 43.5895L40.2852 43.5821L38.7871 43.5071ZM38.6293 46.1381L40.1155 46.3414L40.1232 46.2848L40.1267 46.2278L38.6293 46.1381ZM38.271 48.7578L36.7848 48.5544L36.7735 48.6373L36.7714 48.7209L38.271 48.7578ZM38.2061 51.3974L36.7066 51.3605L36.7046 51.4411L36.7113 51.5214L38.2061 51.3974ZM38.4249 54.0329L39.9248 54.0179L39.9242 53.9633L39.9197 53.9088L38.4249 54.0329ZM38.4512 56.6705L39.9485 56.7596L39.9516 56.7076L39.9511 56.6555L38.4512 56.6705ZM38.2931 59.3239L36.7958 59.2347L36.7828 59.4535L36.8329 59.6669L38.2931 59.3239ZM38.9047 61.927L40.4024 61.8451L40.3952 61.7129L40.3649 61.584L38.9047 61.927ZM39.0486 64.5582L37.5508 64.6401L37.5689 64.97L37.7238 65.2618L39.0486 64.5582ZM40.1528 66.6372L41.4837 65.9453L41.4775 65.9336L40.1528 66.6372ZM41.3895 69.0165L42.7987 68.5024L42.7653 68.411L42.7205 68.3247L41.3895 69.0165ZM42.2924 71.4909L40.8832 72.0051L40.9146 72.0911L40.9563 72.1727L42.2924 71.4909ZM43.4761 73.8107L42.14 74.4925L42.29 74.7865L42.5496 74.9904L43.4761 73.8107ZM44.6509 74.7334L45.8665 75.6122L46.711 74.4441L45.5774 73.5538L44.6509 74.7334ZM39.78 35.7173L38.2909 35.5361L38.2789 35.6354L39.7679 35.8166L41.2569 35.9977L41.269 35.8985L39.78 35.7173ZM39.7679 35.8166L38.268 35.8323L38.2945 38.3611L39.7945 38.3453L41.2944 38.3295L41.2678 35.8008L39.7679 35.8166ZM39.7945 38.3453L38.3779 37.8519L37.5033 40.3629L38.9198 40.8563L40.3364 41.3497L41.211 38.8387L39.7945 38.3453ZM38.9198 40.8563L37.4217 40.7812L37.289 43.432L38.7871 43.5071L40.2852 43.5821L40.418 40.9313L38.9198 40.8563ZM38.7871 43.5071L37.2898 43.4173L37.132 46.0483L38.6293 46.1381L40.1267 46.2278L40.2844 43.5968L38.7871 43.5071ZM38.6293 46.1381L37.1432 45.9348L36.7848 48.5544L38.271 48.7578L39.7571 48.9611L40.1155 46.3414L38.6293 46.1381ZM38.271 48.7578L36.7714 48.7209L36.7066 51.3605L38.2061 51.3974L39.7057 51.4342L39.7705 48.7946L38.271 48.7578ZM38.2061 51.3974L36.7113 51.5214L36.93 54.1569L38.4249 54.0329L39.9197 53.9088L39.701 51.2733L38.2061 51.3974ZM38.4249 54.0329L36.9249 54.0478L36.9512 56.6854L38.4512 56.6705L39.9511 56.6555L39.9248 54.0179L38.4249 54.0329ZM38.4512 56.6705L36.9538 56.5813L36.7958 59.2347L38.2931 59.3239L39.7905 59.4131L39.9485 56.7596L38.4512 56.6705ZM38.2931 59.3239L36.8329 59.6669L37.4444 62.2701L38.9047 61.927L40.3649 61.584L39.7534 58.9808L38.2931 59.3239ZM38.9047 61.927L37.4069 62.0089L37.5508 64.6401L39.0486 64.5582L40.5463 64.4763L40.4024 61.8451L38.9047 61.927ZM39.0486 64.5582L37.7238 65.2618L38.828 67.3408L40.1528 66.6372L41.4775 65.9336L40.3733 63.8546L39.0486 64.5582ZM40.1528 66.6372L38.8218 67.329L40.0586 69.7083L41.3895 69.0165L42.7205 68.3247L41.4837 65.9453L40.1528 66.6372ZM41.3895 69.0165L39.9804 69.5307L40.8832 72.0051L42.2924 71.4909L43.7015 70.9768L42.7987 68.5024L41.3895 69.0165ZM42.2924 71.4909L40.9563 72.1727L42.14 74.4925L43.4761 73.8107L44.8122 73.129L43.6285 70.8091L42.2924 71.4909ZM43.4761 73.8107L42.5496 74.9904L43.7244 75.9131L44.6509 74.7334L45.5774 73.5538L44.4027 72.6311L43.4761 73.8107ZM44.6509 74.7334L43.4353 73.8546L43.2814 74.0675L44.497 74.9463L45.7126 75.8251L45.8665 75.6122L44.6509 74.7334Z" fill="black"/>
<path d="M75.3614 35.9818L76.861 35.9458L76.8595 35.8855L76.8532 35.8255L75.3614 35.9818ZM75.4194 38.399L73.9198 38.4349L73.9216 38.508L73.9304 38.5806L75.4194 38.399ZM75.7404 41.0304L74.2515 41.2121L74.2618 41.297L74.2818 41.3802L75.7404 41.0304ZM76.358 43.6057L77.8464 43.4191L77.8361 43.3367L77.8167 43.2558L76.358 43.6057ZM76.6872 46.232L78.1871 46.2513L78.1884 46.148L78.1755 46.0455L76.6872 46.232ZM76.6532 48.8806L75.1533 48.8613L75.1529 48.8938L75.1539 48.9262L76.6532 48.8806ZM76.7335 51.518L75.2342 51.5636L75.2346 51.5775L75.2353 51.5913L76.7335 51.518ZM76.863 54.1648L78.3565 54.3049L78.3665 54.1984L78.3612 54.0915L76.863 54.1648ZM76.6159 56.799L78.0824 57.1144L78.1011 57.0275L78.1094 56.939L76.6159 56.799ZM76.057 59.3969L74.5906 59.0814L74.5484 59.2776L74.5592 59.478L76.057 59.3969ZM76.2017 62.0679L77.6819 62.3105L77.7083 62.1496L77.6995 61.9868L76.2017 62.0679ZM75.7742 64.6761L77.1788 65.2025L77.2306 65.0643L77.2544 64.9187L75.7742 64.6761ZM74.8715 67.0847L76.035 68.0314L76.1899 67.841L76.2761 67.6112L74.8715 67.0847ZM73.2349 69.0963L72.0714 68.1497L71.8638 68.4048L71.782 68.7234L73.2349 69.0963ZM72.5773 71.6588L73.9684 72.2199L74.0055 72.1279L74.0302 72.0317L72.5773 71.6588ZM71.587 74.1141L72.9151 74.8114L72.95 74.7449L72.9781 74.6752L71.587 74.1141ZM70.4476 76.2841L69.1195 75.5868L69.0652 75.6903L69.0275 75.8009L70.4476 76.2841ZM69.5822 78.8271L68.1622 78.3439L68.0879 78.5623L68.0826 78.793L69.5822 78.8271ZM69.521 81.5186L70.7801 82.3338L71.011 81.9773L71.0206 81.5527L69.521 81.5186ZM68.0617 83.7725L69.1844 84.7672L69.2593 84.6826L69.3208 84.5877L68.0617 83.7725ZM66.2959 85.7654L66.5627 87.2415L67.0741 87.1491L67.4187 86.7602L66.2959 85.7654ZM63.6684 86.2404L63.4016 84.7643L62.9461 84.8466L62.6162 85.1714L63.6684 86.2404ZM61.7578 88.121L62.5879 89.3704L62.7076 89.2909L62.8101 89.19L61.7578 88.121ZM59.5176 89.6094L59.6906 91.0994L60.048 91.0579L60.3477 90.8588L59.5176 89.6094ZM56.8739 89.9164L56.3429 91.3192L56.6843 91.4485L57.0469 91.4063L56.8739 89.9164ZM54.3879 88.9753L53.3322 90.041L53.5587 90.2653L53.8569 90.3782L54.3879 88.9753ZM52.4943 87.0995L53.55 86.0339L53.3899 85.8753L53.1903 85.7707L52.4943 87.0995ZM50.1841 85.8894L50.8801 84.5607L50.8542 84.5471L50.8276 84.5345L50.1841 85.8894ZM47.8045 84.7593L46.5232 85.5392L46.7562 85.922L47.161 86.1143L47.8045 84.7593ZM46.4531 82.5392L45.1337 83.2528L45.1519 83.2864L45.1718 83.3191L46.4531 82.5392ZM45.1935 80.2104L43.7056 80.4005L43.7411 80.678L43.8741 80.924L45.1935 80.2104ZM44.8573 77.5797L43.3632 77.4465L43.3488 77.6085L43.3694 77.7699L44.8573 77.5797ZM45.0878 74.9945L43.7242 74.3697L43.6167 74.6043L43.5937 74.8613L45.0878 74.9945ZM46.1711 72.6304L47.5347 73.2553L47.5563 73.2082L47.5746 73.1597L46.1711 72.6304ZM47.0932 70.1852L45.8238 69.3862L45.7431 69.5143L45.6897 69.6559L47.0932 70.1852ZM48.4983 67.9531L49.7677 68.7522L49.7994 68.7018L49.8271 68.6491L48.4983 67.9531ZM49.738 65.5865L49.0044 64.2781L48.6159 64.4959L48.4092 64.8904L49.738 65.5865ZM52.067 64.2806L51.3571 62.9592L51.3452 62.9656L51.3334 62.9722L52.067 64.2806ZM54.3666 63.0452L53.6808 61.7112L53.6688 61.7174L53.6568 61.7238L54.3666 63.0452ZM56.7659 61.8118L56.9352 60.3214L56.484 60.2701L56.0801 60.4778L56.7659 61.8118ZM59.4665 62.1185L60.2179 60.8202L59.9468 60.6634L59.6357 60.628L59.4665 62.1185ZM61.7845 63.4601L61.0331 64.7583L61.0347 64.7592L61.7845 63.4601ZM64.0589 64.7727L65.127 63.7195L64.9845 63.575L64.8087 63.4735L64.0589 64.7727ZM65.9104 66.6504L67.2077 65.8975L67.1122 65.7328L66.9784 65.5972L65.9104 66.6504ZM67.2319 68.9279L68.6404 68.4118L68.5952 68.2886L68.5293 68.175L67.2319 68.9279ZM68.1353 71.3935L69.5704 70.9568L69.5582 70.9168L69.5438 70.8775L68.1353 71.3935ZM68.9147 73.9545L67.4797 74.3912L67.613 74.8292L67.9682 75.1182L68.9147 73.9545ZM70.3963 75.1596L71.4903 76.1858L72.5916 75.0117L71.3428 73.9959L70.3963 75.1596ZM75.351 35.8823L73.8591 36.0386L73.8695 36.1381L75.3614 35.9818L76.8532 35.8255L76.8428 35.726L75.351 35.8823ZM75.3614 35.9818L73.8618 36.0178L73.9198 38.4349L75.4194 38.399L76.919 38.363L76.861 35.9458L75.3614 35.9818ZM75.4194 38.399L73.9304 38.5806L74.2515 41.2121L75.7404 41.0304L77.2294 40.8488L76.9084 38.2173L75.4194 38.399ZM75.7404 41.0304L74.2818 41.3802L74.8994 43.9555L76.358 43.6057L77.8167 43.2558L77.1991 40.6806L75.7404 41.0304ZM76.358 43.6057L74.8697 43.7922L75.1988 46.4185L76.6872 46.232L78.1755 46.0455L77.8464 43.4191L76.358 43.6057ZM76.6872 46.232L75.1873 46.2127L75.1533 48.8613L76.6532 48.8806L78.153 48.8998L78.1871 46.2513L76.6872 46.232ZM76.6532 48.8806L75.1539 48.9262L75.2342 51.5636L76.7335 51.518L78.2328 51.4723L78.1525 48.8349L76.6532 48.8806ZM76.7335 51.518L75.2353 51.5913L75.3648 54.2381L76.863 54.1648L78.3612 54.0915L78.2317 51.4446L76.7335 51.518ZM76.863 54.1648L75.3696 54.0247L75.1225 56.6589L76.6159 56.799L78.1094 56.939L78.3565 54.3049L76.863 54.1648ZM76.6159 56.799L75.1495 56.4835L74.5906 59.0814L76.057 59.3969L77.5235 59.7124L78.0824 57.1144L76.6159 56.799ZM76.057 59.3969L74.5592 59.478L74.7039 62.149L76.2017 62.0679L77.6995 61.9868L77.5548 59.3158L76.057 59.3969ZM76.2017 62.0679L74.7214 61.8253L74.2939 64.4334L75.7742 64.6761L77.2544 64.9187L77.6819 62.3105L76.2017 62.0679ZM75.7742 64.6761L74.3696 64.1497L73.4669 66.5583L74.8715 67.0847L76.2761 67.6112L77.1788 65.2025L75.7742 64.6761ZM74.8715 67.0847L73.7079 66.1381L72.0714 68.1497L73.2349 69.0963L74.3985 70.0429L76.035 68.0314L74.8715 67.0847ZM73.2349 69.0963L71.782 68.7234L71.1243 71.2859L72.5773 71.6588L74.0302 72.0317L74.6879 69.4692L73.2349 69.0963ZM72.5773 71.6588L71.1861 71.0978L70.1959 73.5531L71.587 74.1141L72.9781 74.6752L73.9684 72.2199L72.5773 71.6588ZM71.587 74.1141L70.259 73.4168L69.1195 75.5868L70.4476 76.2841L71.7756 76.9815L72.9151 74.8114L71.587 74.1141ZM70.4476 76.2841L69.0275 75.8009L68.1622 78.3439L69.5822 78.8271L71.0023 79.3103L71.8676 76.7674L70.4476 76.2841ZM69.5822 78.8271L68.0826 78.793L68.0214 81.4845L69.521 81.5186L71.0206 81.5527L71.0819 78.8612L69.5822 78.8271ZM69.521 81.5186L68.2619 80.7033L66.8025 82.9572L68.0617 83.7725L69.3208 84.5877L70.7801 82.3338L69.521 81.5186ZM68.0617 83.7725L66.9389 82.7778L65.1732 84.7707L66.2959 85.7654L67.4187 86.7602L69.1844 84.7672L68.0617 83.7725ZM66.2959 85.7654L66.0291 84.2893L63.4016 84.7643L63.6684 86.2404L63.9353 87.7165L66.5627 87.2415L66.2959 85.7654ZM63.6684 86.2404L62.6162 85.1714L60.7056 87.052L61.7578 88.121L62.8101 89.19L64.7207 87.3094L63.6684 86.2404ZM61.7578 88.121L60.9277 86.8716L58.6875 88.36L59.5176 89.6094L60.3477 90.8588L62.5879 89.3704L61.7578 88.121ZM59.5176 89.6094L59.3446 88.1194L56.7009 88.4264L56.8739 89.9164L57.0469 91.4063L59.6906 91.0994L59.5176 89.6094ZM56.8739 89.9164L57.4049 88.5135L54.9189 87.5725L54.3879 88.9753L53.8569 90.3782L56.3429 91.3192L56.8739 89.9164ZM54.3879 88.9753L55.4436 87.9097L53.55 86.0339L52.4943 87.0995L51.4387 88.1651L53.3322 90.041L54.3879 88.9753ZM52.4943 87.0995L53.1903 85.7707L50.8801 84.5607L50.1841 85.8894L49.4882 87.2182L51.7983 88.4282L52.4943 87.0995ZM50.1841 85.8894L50.8276 84.5345L48.448 83.4043L47.8045 84.7593L47.161 86.1143L49.5407 87.2444L50.1841 85.8894ZM47.8045 84.7593L49.0858 83.9794L47.7344 81.7592L46.4531 82.5392L45.1718 83.3191L46.5232 85.5392L47.8045 84.7593ZM46.4531 82.5392L47.7725 81.8255L46.5129 79.4968L45.1935 80.2104L43.8741 80.924L45.1337 83.2528L46.4531 82.5392ZM45.1935 80.2104L46.6814 80.0202L46.3452 77.3895L44.8573 77.5797L43.3694 77.7699L43.7056 80.4005L45.1935 80.2104ZM44.8573 77.5797L46.3514 77.7129L46.5819 75.1277L45.0878 74.9945L43.5937 74.8613L43.3632 77.4465L44.8573 77.5797ZM45.0878 74.9945L46.4515 75.6194L47.5347 73.2553L46.1711 72.6304L44.8074 72.0056L43.7242 74.3697L45.0878 74.9945ZM46.1711 72.6304L47.5746 73.1597L48.4967 70.7145L47.0932 70.1852L45.6897 69.6559L44.7676 72.1011L46.1711 72.6304ZM47.0932 70.1852L48.3627 70.9843L49.7677 68.7522L48.4983 67.9531L47.2289 67.154L45.8238 69.3862L47.0932 70.1852ZM48.4983 67.9531L49.8271 68.6491L51.0667 66.2825L49.738 65.5865L48.4092 64.8904L47.1696 67.2571L48.4983 67.9531ZM49.738 65.5865L50.4716 66.8948L52.8006 65.589L52.067 64.2806L51.3334 62.9722L49.0044 64.2781L49.738 65.5865ZM52.067 64.2806L52.7768 65.602L55.0765 64.3666L54.3666 63.0452L53.6568 61.7238L51.3571 62.9592L52.067 64.2806ZM54.3666 63.0452L55.0525 64.3793L57.4518 63.1458L56.7659 61.8118L56.0801 60.4778L53.6808 61.7112L54.3666 63.0452ZM56.7659 61.8118L56.5967 63.3022L59.2972 63.6089L59.4665 62.1185L59.6357 60.628L56.9352 60.3214L56.7659 61.8118ZM59.4665 62.1185L58.7151 63.4167L61.0331 64.7583L61.7845 63.4601L62.5359 62.1618L60.2179 60.8202L59.4665 62.1185ZM61.7845 63.4601L61.0347 64.7592L63.3091 66.0719L64.0589 64.7727L64.8087 63.4735L62.5343 62.1609L61.7845 63.4601ZM64.0589 64.7727L62.9908 65.8259L64.8423 67.7036L65.9104 66.6504L66.9784 65.5972L65.127 63.7195L64.0589 64.7727ZM65.9104 66.6504L64.613 67.4032L65.9345 69.6807L67.2319 68.9279L68.5293 68.175L67.2077 65.8975L65.9104 66.6504ZM67.2319 68.9279L65.8235 69.4439L66.7269 71.9096L68.1353 71.3935L69.5438 70.8775L68.6404 68.4118L67.2319 68.9279ZM68.1353 71.3935L66.7003 71.8302L67.4797 74.3912L68.9147 73.9545L70.3497 73.5178L69.5704 70.9568L68.1353 71.3935ZM68.9147 73.9545L67.9682 75.1182L69.4498 76.3232L70.3963 75.1596L71.3428 73.9959L69.8612 72.7908L68.9147 73.9545ZM70.3963 75.1596L69.3022 74.1334L69.196 74.2466L70.29 75.2728L71.3841 76.299L71.4903 76.1858L70.3963 75.1596Z" fill="black"/>
<path d="M10.0282 88.1746L10.8141 86.897L10.7684 86.8688L10.7207 86.844L10.0282 88.1746ZM12.1905 89.5049L13.0771 88.2949L13.0281 88.2591L12.9765 88.2273L12.1905 89.5049ZM14.3329 91.0748L13.4463 92.2847L13.6069 92.4024L13.7926 92.4741L14.3329 91.0748ZM16.8092 92.0308L16.269 93.4302L16.2763 93.4329L16.8092 92.0308ZM19.2706 92.9664L19.8844 91.5977L19.8444 91.5798L19.8035 91.5642L19.2706 92.9664ZM21.6814 94.0476L21.0675 95.4163L21.1578 95.4567L21.2525 95.485L21.6814 94.0476ZM24.2118 94.8025L23.7829 96.2399L23.8763 96.2678L23.9725 96.2833L24.2118 94.8025ZM26.8205 95.224L27.124 93.755L27.092 93.7484L27.0597 93.7432L26.8205 95.224ZM29.3963 95.7561L29.0928 97.2251L29.1057 97.2278L29.1186 97.2302L29.3963 95.7561ZM32.0085 96.2482L31.7309 97.7223L32.0668 97.7856L32.397 97.6971L32.0085 96.2482ZM34.5583 95.5646L34.9468 97.0135L35.186 96.9493L35.392 96.8116L34.5583 95.5646ZM36.6431 94.1709L37.4767 95.4179L37.7325 95.2469L37.9003 94.989L36.6431 94.1709ZM9.93945 88.1284L9.24689 89.459L9.33559 89.5051L10.0282 88.1746L10.7207 86.844L10.632 86.7979L9.93945 88.1284ZM10.0282 88.1746L9.24217 89.4522L11.4045 90.7825L12.1905 89.5049L12.9765 88.2273L10.8141 86.897L10.0282 88.1746ZM12.1905 89.5049L11.3039 90.7148L13.4463 92.2847L14.3329 91.0748L15.2195 89.8648L13.0771 88.2949L12.1905 89.5049ZM14.3329 91.0748L13.7926 92.4741L16.269 93.4301L16.8092 92.0308L17.3495 90.6315L14.8731 89.6754L14.3329 91.0748ZM16.8092 92.0308L16.2763 93.4329L18.7376 94.3685L19.2706 92.9664L19.8035 91.5642L17.3422 90.6287L16.8092 92.0308ZM19.2706 92.9664L18.6567 94.335L21.0675 95.4163L21.6814 94.0476L22.2952 92.679L19.8844 91.5977L19.2706 92.9664ZM21.6814 94.0476L21.2525 95.485L23.7829 96.2399L24.2118 94.8025L24.6406 93.3651L22.1102 92.6102L21.6814 94.0476ZM24.2118 94.8025L23.9725 96.2833L26.5813 96.7048L26.8205 95.224L27.0597 93.7432L24.451 93.3217L24.2118 94.8025ZM26.8205 95.224L26.517 96.693L29.0928 97.2251L29.3963 95.7561L29.6998 94.2872L27.124 93.755L26.8205 95.224ZM29.3963 95.7561L29.1186 97.2302L31.7309 97.7223L32.0085 96.2482L32.2862 94.7741L29.6739 94.2821L29.3963 95.7561ZM32.0085 96.2482L32.397 97.6971L34.9468 97.0135L34.5583 95.5646L34.1699 94.1158L31.6201 94.7994L32.0085 96.2482ZM34.5583 95.5646L35.392 96.8116L37.4767 95.4179L36.6431 94.1709L35.8094 92.9239L33.7247 94.3176L34.5583 95.5646ZM36.6431 94.1709L37.9003 94.989L38.5076 94.0558L37.2503 93.2376L35.9931 92.4195L35.3858 93.3528L36.6431 94.1709Z" fill="black"/>
<path d="M82.9248 14.638L83.4698 16.0354L83.7152 15.9397L83.9133 15.7661L82.9248 14.638ZM80.6227 15.5358L80.0776 14.1383L79.9213 14.1993L79.7823 14.2933L80.6227 15.5358ZM78.4319 17.0176L77.5915 15.7751L77.4284 15.8854L77.2993 16.0341L78.4319 17.0176ZM76.699 19.0131L75.5665 18.0295L75.509 18.0957L75.4597 18.1681L76.699 19.0131ZM75.2162 21.1879L76.3695 22.1472L76.4152 22.0921L76.4556 22.0329L75.2162 21.1879ZM73.5224 23.2244L74.6628 24.1988L74.6692 24.1913L74.6756 24.1836L73.5224 23.2244ZM71.8117 25.2264L70.9887 26.4805L72.0936 27.2056L72.9521 26.2009L71.8117 25.2264ZM70.1765 24.1534L68.7142 24.4875L68.8488 25.0762L69.3536 25.4075L70.1765 24.1534ZM69.5939 21.6037L71.0562 21.2695L71.0258 21.1367L70.9721 21.0116L69.5939 21.6037ZM68.5434 19.1588L69.9216 18.5667L69.7939 18.2695L69.5551 18.0513L68.5434 19.1588ZM66.5679 17.3542L65.4239 18.3244L65.4857 18.3973L65.5562 18.4617L66.5679 17.3542ZM64.8638 15.345L66.0078 14.3747L65.9422 14.2975L65.8669 14.2298L64.8638 15.345ZM62.8935 13.5728L61.6632 14.4308L61.762 14.5725L61.8904 14.688L62.8935 13.5728ZM61.3683 11.3858L62.5987 10.5278L62.5305 10.4301L62.4479 10.3444L61.3683 11.3858ZM59.5343 9.4847L60.6139 8.44327L60.5059 8.33129L60.3772 8.24387L59.5343 9.4847ZM57.5292 8.12271L58.372 6.88188L57.2884 6.14584L56.4131 7.1205L57.5292 8.12271ZM55.8393 10.0045L56.7734 11.1782L56.8716 11.1L56.9554 11.0067L55.8393 10.0045ZM53.7401 11.6752L52.806 10.5016L52.6151 10.6535L52.4822 10.8582L53.7401 11.6752ZM52.2806 13.9224L53.2803 15.0406L53.4295 14.9072L53.5386 14.7394L52.2806 13.9224ZM50.305 15.6885L49.3053 14.5702L49.2048 14.6601L49.1219 14.7664L50.305 15.6885ZM48.6824 17.7705L49.7273 18.8468L49.8017 18.7745L49.8655 18.6926L48.6824 17.7705ZM46.767 19.63L45.7222 18.5538L45.4916 18.7776L45.373 19.0763L46.767 19.63ZM45.787 22.0975L47.1386 22.7479L47.1615 22.7003L47.181 22.6512L45.787 22.0975ZM44.6429 24.475L43.2912 23.8245L43.2871 23.8331L43.2831 23.8417L44.6429 24.475ZM43.5253 26.8744L43.8162 28.3459L44.5634 28.1982L44.885 27.5077L43.5253 26.8744ZM41.7184 27.2316L40.3442 27.8328L40.8272 28.9368L42.0093 28.7031L41.7184 27.2316ZM40.6566 24.8047L42.0309 24.2035L42.0086 24.1527L41.9827 24.1036L40.6566 24.8047ZM39.4208 22.4673L38.0374 23.0474L38.0634 23.1092L38.0947 23.1685L39.4208 22.4673ZM38.4005 20.0342L39.7838 19.4541L39.7825 19.451L38.4005 20.0342ZM37.3575 17.5623L38.7396 16.9792L38.5635 16.562L38.1861 16.3119L37.3575 17.5623ZM35.11 16.0732L34.2686 17.3149L34.275 17.3193L34.2815 17.3236L35.11 16.0732ZM32.9472 14.6075L33.7887 13.3657L33.5813 13.2252L33.3394 13.1597L32.9472 14.6075ZM83 14.5721L82.0115 13.4439L81.9363 13.5098L82.9248 14.638L83.9133 15.7661L83.9885 15.7002L83 14.5721ZM82.9248 14.638L82.3798 13.2405L80.0776 14.1383L80.6227 15.5358L81.1677 16.9333L83.4698 16.0354L82.9248 14.638ZM80.6227 15.5358L79.7823 14.2933L77.5915 15.7751L78.4319 17.0176L79.2723 18.2601L81.463 16.7783L80.6227 15.5358ZM78.4319 17.0176L77.2993 16.0341L75.5665 18.0295L76.699 19.0131L77.8316 19.9966L79.5645 18.0011L78.4319 17.0176ZM76.699 19.0131L75.4597 18.1681L73.9769 20.343L75.2162 21.1879L76.4556 22.0329L77.9384 19.858L76.699 19.0131ZM75.2162 21.1879L74.063 20.2287L72.3692 22.2652L73.5224 23.2244L74.6756 24.1836L76.3695 22.1472L75.2162 21.1879ZM73.5224 23.2244L72.382 22.25L70.6713 24.252L71.8117 25.2264L72.9521 26.2009L74.6628 24.1988L73.5224 23.2244ZM71.8117 25.2264L72.6347 23.9723L70.9995 22.8993L70.1765 24.1534L69.3536 25.4075L70.9887 26.4805L71.8117 25.2264ZM70.1765 24.1534L71.6388 23.8192L71.0562 21.2695L69.5939 21.6037L68.1316 21.9379L68.7142 24.4875L70.1765 24.1534ZM69.5939 21.6037L70.9721 21.0116L69.9216 18.5667L68.5434 19.1588L67.1652 19.751L68.2157 22.1958L69.5939 21.6037ZM68.5434 19.1588L69.5551 18.0513L67.5796 16.2467L66.5679 17.3542L65.5562 18.4617L67.5317 20.2663L68.5434 19.1588ZM66.5679 17.3542L67.7119 16.384L66.0078 14.3747L64.8638 15.345L63.7198 16.3152L65.4239 18.3244L66.5679 17.3542ZM64.8638 15.345L65.8669 14.2298L63.8967 12.4575L62.8935 13.5728L61.8904 14.688L63.8607 16.4602L64.8638 15.345ZM62.8935 13.5728L64.1239 12.7147L62.5987 10.5278L61.3683 11.3858L60.138 12.2439L61.6632 14.4308L62.8935 13.5728ZM61.3683 11.3858L62.4479 10.3444L60.6139 8.44327L59.5343 9.4847L58.4548 10.5261L60.2888 12.4272L61.3683 11.3858ZM59.5343 9.4847L60.3772 8.24387L58.372 6.88188L57.5292 8.12271L56.6863 9.36354L58.6915 10.7255L59.5343 9.4847ZM57.5292 8.12271L56.4131 7.1205L54.7233 9.0023L55.8393 10.0045L56.9554 11.0067L58.6452 9.12492L57.5292 8.12271ZM55.8393 10.0045L54.9052 8.83086L52.806 10.5016L53.7401 11.6752L54.6742 12.8489L56.7734 11.1782L55.8393 10.0045ZM53.7401 11.6752L52.4822 10.8582L51.0227 13.1053L52.2806 13.9224L53.5386 14.7394L54.9981 12.4923L53.7401 11.6752ZM52.2806 13.9224L51.2809 12.8041L49.3053 14.5702L50.305 15.6885L51.3047 16.8068L53.2803 15.0406L52.2806 13.9224ZM50.305 15.6885L49.1219 14.7664L47.4993 16.8485L48.6824 17.7705L49.8655 18.6926L51.4881 16.6106L50.305 15.6885ZM48.6824 17.7705L47.6376 16.6943L45.7222 18.5538L46.767 19.63L47.8119 20.7063L49.7273 18.8468L48.6824 17.7705ZM46.767 19.63L45.373 19.0763L44.3929 21.5438L45.787 22.0975L47.181 22.6512L48.1611 20.1837L46.767 19.63ZM45.787 22.0975L44.4353 21.447L43.2912 23.8245L44.6429 24.475L45.9945 25.1254L47.1386 22.7479L45.787 22.0975ZM44.6429 24.475L43.2831 23.8417L42.1656 26.2411L43.5253 26.8744L44.885 27.5077L46.0026 25.1083L44.6429 24.475ZM43.5253 26.8744L43.2344 25.4029L41.4275 25.76L41.7184 27.2316L42.0093 28.7031L43.8162 28.3459L43.5253 26.8744ZM41.7184 27.2316L43.0926 26.6303L42.0309 24.2035L40.6566 24.8047L39.2824 25.406L40.3442 27.8328L41.7184 27.2316ZM40.6566 24.8047L41.9827 24.1036L40.7468 21.7662L39.4208 22.4673L38.0947 23.1685L39.3306 25.5059L40.6566 24.8047ZM39.4208 22.4673L40.8041 21.8873L39.7838 19.4541L38.4005 20.0342L37.0172 20.6142L38.0374 23.0474L39.4208 22.4673ZM38.4005 20.0342L39.7825 19.451L38.7396 16.9792L37.3575 17.5623L35.9755 18.1455L37.0185 20.6173L38.4005 20.0342ZM37.3575 17.5623L38.1861 16.3119L35.9386 14.8227L35.11 16.0732L34.2815 17.3236L36.529 18.8127L37.3575 17.5623ZM35.11 16.0732L35.9515 14.8314L33.7887 13.3657L32.9472 14.6075L32.1057 15.8492L34.2686 17.3149L35.11 16.0732ZM32.9472 14.6075L33.3394 13.1597L32.3922 12.9031L32 14.3509L31.6078 15.7987L32.555 16.0553L32.9472 14.6075Z" fill="black"/>
<path d="M55.9563 61.8229L57.4514 61.7017L57.4316 61.4581L57.3356 61.2334L55.9563 61.8229ZM54.9528 59.475L53.4528 59.4645L53.4506 59.7771L53.5735 60.0645L54.9528 59.475ZM54.9712 56.8281L56.4712 56.8386L56.4715 56.7908L56.4688 56.743L54.9712 56.8281ZM54.821 54.1862L53.3212 54.1659L53.3205 54.2187L53.3234 54.2714L54.821 54.1862ZM54.8567 51.5525L56.3565 51.5728L56.357 51.5333L56.3555 51.4939L54.8567 51.5525ZM54.7547 48.9463L56.2536 48.8877L56.2285 48.2468L55.7478 47.8221L54.7547 48.9463ZM52.8284 47.2447L53.8215 46.1205L53.5135 45.8484L53.1098 45.7714L52.8284 47.2447ZM50.2411 46.7506L50.5225 45.2773L50.4843 45.27L50.4457 45.2646L50.2411 46.7506ZM47.6501 46.3938L47.8547 44.9079L47.7644 44.8954L47.6732 44.894L47.6501 46.3938ZM44.9827 46.3528L45.0058 44.8529L44.6431 44.8474L44.318 45.0081L44.9827 46.3528ZM55.9643 61.9226L57.4594 61.8014L57.4514 61.7017L55.9563 61.8229L54.4612 61.9441L54.4693 62.0438L55.9643 61.9226ZM55.9563 61.8229L57.3356 61.2334L56.3321 58.8855L54.9528 59.475L53.5735 60.0645L54.577 62.4124L55.9563 61.8229ZM54.9528 59.475L56.4527 59.4854L56.4712 56.8386L54.9712 56.8281L53.4713 56.8177L53.4528 59.4645L54.9528 59.475ZM54.9712 56.8281L56.4688 56.743L56.3186 54.1011L54.821 54.1862L53.3234 54.2714L53.4737 56.9133L54.9712 56.8281ZM54.821 54.1862L56.3209 54.2065L56.3565 51.5728L54.8567 51.5525L53.3568 51.5322L53.3212 54.1659L54.821 54.1862ZM54.8567 51.5525L56.3555 51.4939L56.2536 48.8877L54.7547 48.9463L53.2559 49.005L53.3578 51.6111L54.8567 51.5525ZM54.7547 48.9463L55.7478 47.8221L53.8215 46.1205L52.8284 47.2447L51.8354 48.3689L53.7617 50.0705L54.7547 48.9463ZM52.8284 47.2447L53.1098 45.7714L50.5225 45.2773L50.2411 46.7506L49.9597 48.224L52.547 48.7181L52.8284 47.2447ZM50.2411 46.7506L50.4457 45.2646L47.8547 44.9079L47.6501 46.3938L47.4455 47.8798L50.0365 48.2366L50.2411 46.7506ZM47.6501 46.3938L47.6732 44.894L45.0058 44.8529L44.9827 46.3528L44.9596 47.8526L47.627 47.8937L47.6501 46.3938ZM44.9827 46.3528L44.318 45.0081L43.1614 45.5798L43.8262 46.9245L44.4909 48.2692L45.6475 47.6974L44.9827 46.3528Z" fill="black"/>
<path d="M39.094 66.6369L40.4353 67.3085L40.5537 67.072L40.5841 66.8093L39.094 66.6369ZM37.9806 68.8607L36.6393 68.1891L36.5316 68.4042L36.4966 68.6423L37.9806 68.8607ZM37.5966 71.4706L36.1126 71.2522L36.0835 71.4495L36.1071 71.6476L37.5966 71.4706ZM37.9096 74.1045L39.4086 74.049L39.4063 73.988L39.3991 73.9275L37.9096 74.1045ZM38.0074 76.7501L39.4949 76.9434L39.511 76.8195L39.5064 76.6946L38.0074 76.7501ZM37.6656 79.3807L36.1781 79.1874L36.1757 79.2056L36.1738 79.2238L37.6656 79.3807ZM37.3896 82.005L38.8813 82.1627L38.8814 82.1619L37.3896 82.005ZM37.1108 84.6439L38.534 85.1177L38.5854 84.9633L38.6025 84.8015L37.1108 84.6439ZM36.2717 87.1646L37.5241 87.9902L37.6327 87.8255L37.695 87.6383L36.2717 87.1646ZM34.8235 89.3615L33.5711 88.5358L33.4736 88.6838L33.4132 88.8505L34.8235 89.3615ZM39.1055 66.5376L37.6155 66.3652L37.604 66.4645L39.094 66.6369L40.5841 66.8093L40.5956 66.71L39.1055 66.5376ZM39.094 66.6369L37.7528 65.9653L36.6393 68.1891L37.9806 68.8607L39.3218 69.5322L40.4353 67.3085L39.094 66.6369ZM37.9806 68.8607L36.4966 68.6423L36.1126 71.2522L37.5966 71.4706L39.0806 71.6889L39.4646 69.079L37.9806 68.8607ZM37.5966 71.4706L36.1071 71.6476L36.4201 74.2815L37.9096 74.1045L39.3991 73.9275L39.0861 71.2936L37.5966 71.4706ZM37.9096 74.1045L36.4106 74.1599L36.5085 76.8055L38.0074 76.7501L39.5064 76.6946L39.4086 74.049L37.9096 74.1045ZM38.0074 76.7501L36.5199 76.5567L36.1781 79.1874L37.6656 79.3807L39.1531 79.574L39.4949 76.9434L38.0074 76.7501ZM37.6656 79.3807L36.1738 79.2238L35.8979 81.8482L37.3896 82.005L38.8814 82.1619L39.1573 79.5375L37.6656 79.3807ZM37.3896 82.005L35.8979 81.8474L35.6191 84.4863L37.1108 84.6439L38.6025 84.8015L38.8813 82.1627L37.3896 82.005ZM37.1108 84.6439L35.6876 84.1702L34.8485 86.6909L36.2717 87.1646L37.695 87.6383L38.534 85.1177L37.1108 84.6439ZM36.2717 87.1646L35.0194 86.339L33.5711 88.5358L34.8235 89.3615L36.0758 90.1871L37.5241 87.9902L36.2717 87.1646ZM34.8235 89.3615L33.4132 88.8505L33.1434 89.595L34.5537 90.106L35.964 90.6169L36.2338 89.8724L34.8235 89.3615Z" fill="black"/>
<path d="M75.5344 66.6365L74.0512 66.8602L74.0978 67.169L74.2638 67.4336L75.5344 66.6365ZM76.8901 68.7976L78.3901 68.7981L78.3903 68.3663L78.1608 68.0005L76.8901 68.7976ZM76.8894 71.444L75.3894 71.4436L75.3894 71.5248L75.3981 71.6055L76.8894 71.444ZM77.175 74.0815L78.6706 73.9676L78.6688 73.9438L78.6662 73.92L77.175 74.0815ZM77.3751 76.7114L78.8751 76.7182L78.8754 76.6578L78.8708 76.5976L77.3751 76.7114ZM77.3632 79.3553L75.8632 79.3486L75.8628 79.4423L75.874 79.5354L77.3632 79.3553ZM77.6801 81.9768L76.191 82.1569L76.2035 82.2602L76.2301 82.3608L77.6801 81.9768ZM78.3562 84.5298L79.8154 84.1825L79.811 84.1641L79.8062 84.1458L78.3562 84.5298ZM78.9649 87.0882L77.5057 87.4354L77.5203 87.4969L77.5401 87.557L78.9649 87.0882ZM79.7986 89.6223L78.3738 90.0911L78.515 90.5203L78.8697 90.8001L79.7986 89.6223ZM75.5195 66.5376L74.0363 66.7613L74.0512 66.8602L75.5344 66.6365L77.0177 66.4128L77.0028 66.3139L75.5195 66.5376ZM75.5344 66.6365L74.2638 67.4336L75.6195 69.5947L76.8901 68.7976L78.1608 68.0005L76.8051 65.8394L75.5344 66.6365ZM76.8901 68.7976L75.3901 68.7972L75.3894 71.4436L76.8894 71.444L78.3894 71.4445L78.3901 68.7981L76.8901 68.7976ZM76.8894 71.444L75.3981 71.6055L75.6837 74.2429L77.175 74.0815L78.6662 73.92L78.3807 71.2826L76.8894 71.444ZM77.175 74.0815L75.6793 74.1953L75.8795 76.8253L77.3751 76.7114L78.8708 76.5976L78.6706 73.9676L77.175 74.0815ZM77.3751 76.7114L75.8751 76.7046L75.8632 79.3486L77.3632 79.3553L78.8632 79.3621L78.8751 76.7182L77.3751 76.7114ZM77.3632 79.3553L75.874 79.5354L76.191 82.1569L77.6801 81.9768L79.1693 81.7968L78.8523 79.1753L77.3632 79.3553ZM77.6801 81.9768L76.2301 82.3608L76.9061 84.9137L78.3562 84.5298L79.8062 84.1458L79.1302 81.5929L77.6801 81.9768ZM78.3562 84.5298L76.8969 84.877L77.5057 87.4354L78.9649 87.0882L80.4242 86.7409L79.8154 84.1825L78.3562 84.5298ZM78.9649 87.0882L77.5401 87.557L78.3738 90.0911L79.7986 89.6223L81.2235 89.1536L80.3898 86.6194L78.9649 87.0882ZM79.7986 89.6223L78.8697 90.8001L79.483 91.2838L80.4119 90.106L81.3408 88.9282L80.7275 88.4445L79.7986 89.6223Z" fill="black"/>
<path d="M53.7035 69.5011L53.7483 71.0004L53.7583 71.0001L53.7683 70.9997L53.7035 69.5011ZM56.2449 69.3911L56.4076 67.8999L56.2941 67.8876L56.1801 67.8925L56.2449 69.3911ZM58.8867 69.6792L58.7241 71.1704L58.9349 71.1934L59.1438 71.1571L58.8867 69.6792ZM61.5013 69.2244L61.6347 67.7304L61.4384 67.7129L61.2442 67.7466L61.5013 69.2244ZM53.6035 69.5041L53.6484 71.0034L53.7483 71.0004L53.7035 69.5011L53.6586 68.0017L53.5586 68.0047L53.6035 69.5041ZM53.7035 69.5011L53.7683 70.9997L56.3098 70.8897L56.2449 69.3911L56.1801 67.8925L53.6386 68.0025L53.7035 69.5011ZM56.2449 69.3911L56.0823 70.8823L58.7241 71.1704L58.8867 69.6792L59.0494 68.1881L56.4076 67.8999L56.2449 69.3911ZM58.8867 69.6792L59.1438 71.1571L61.7584 70.7022L61.5013 69.2244L61.2442 67.7466L58.6297 68.2014L58.8867 69.6792ZM61.5013 69.2244L61.3679 70.7185L61.7308 70.7509L61.8642 69.2568L61.9976 67.7628L61.6347 67.7304L61.5013 69.2244Z" fill="black"/>
<path d="M70.6993 46.9305L70.3861 48.3975L70.584 48.4397L70.7861 48.428L70.6993 46.9305ZM68.2525 46.4082L68.5657 44.9412L68.449 44.9163L68.3298 44.9102L68.2525 46.4082ZM65.6073 46.2717L65.6846 44.7737L65.4657 44.7624L65.2527 44.8142L65.6073 46.2717ZM63.0376 46.8969L62.683 45.4394L62.5976 45.4602L62.5152 45.4908L63.0376 46.8969ZM60.9142 47.6858L59.4916 48.1616L59.9834 49.6317L61.4365 49.0919L60.9142 47.6858ZM70.7991 46.9247L70.7123 45.4273L70.6124 45.433L70.6993 46.9305L70.7861 48.428L70.8859 48.4222L70.7991 46.9247ZM70.6993 46.9305L71.0124 45.4636L68.5657 44.9412L68.2525 46.4082L67.9393 47.8751L70.3861 48.3975L70.6993 46.9305ZM68.2525 46.4082L68.3298 44.9102L65.6846 44.7737L65.6073 46.2717L65.53 47.7697L68.1752 47.9062L68.2525 46.4082ZM65.6073 46.2717L65.2527 44.8142L62.683 45.4394L63.0376 46.8969L63.3922 48.3544L65.9619 47.7292L65.6073 46.2717ZM63.0376 46.8969L62.5152 45.4908L60.3918 46.2797L60.9142 47.6858L61.4365 49.0919L63.56 48.303L63.0376 46.8969ZM60.9142 47.6858L62.3367 47.2099L62.2751 47.0257L60.8525 47.5016L59.43 47.9775L59.4916 48.1616L60.9142 47.6858Z" fill="black"/>
<path d="M63.8846 80.4818L62.3852 80.438L62.3849 80.4478L62.3848 80.4576L63.8846 80.4818ZM63.8487 82.7084L65.3193 83.0038L65.3463 82.8695L65.3485 82.7325L63.8487 82.7084ZM63.3863 85.0103L61.9156 84.7149L61.8313 85.1344L61.9811 85.5353L63.3863 85.0103ZM63.8039 86.128L64.1849 87.5788L65.7897 87.1573L65.209 85.603L63.8039 86.128ZM63.8875 80.3818L62.3882 80.338L62.3852 80.438L63.8846 80.4818L65.384 80.5256L65.3869 80.4257L63.8875 80.3818ZM63.8846 80.4818L62.3848 80.4576L62.3489 82.6842L63.8487 82.7084L65.3485 82.7325L65.3844 80.506L63.8846 80.4818ZM63.8487 82.7084L62.3781 82.4129L61.9156 84.7149L63.3863 85.0103L64.8569 85.3058L65.3193 83.0038L63.8487 82.7084ZM63.3863 85.0103L61.9811 85.5353L62.3987 86.653L63.8039 86.128L65.209 85.603L64.7914 84.4853L63.3863 85.0103ZM63.8039 86.128L63.4228 84.6772L63.3378 84.6995L63.7189 86.1503L64.1 87.6011L64.1849 87.5788L63.8039 86.128Z" fill="black"/>
</svg>
