<svg width="120" height="120" viewBox="0 0 120 120" fill="none" xmlns="http://www.w3.org/2000/svg">
<path d="M35.333 11.8047L37.8174 12.6367L37.8643 12.6602L37.9111 12.6719L40.3604 13.6797L40.501 13.7383L40.6299 13.8203L42.7275 15.2266L45.0244 16.3633L45.2119 16.4805L47.251 17.8984L49.583 18.9414L49.7939 19.0352L49.9697 19.1875L51.9619 20.957H51.9502L53.9658 22.5156L56.0752 23.9219L56.1924 24.0156L58.2314 25.6914L58.29 25.7383L60.1768 27.625L62.1338 29.2656L64.1729 30.8828L64.3018 30.9766L64.4072 31.0938L66.0947 33.1328L66.1064 33.1562L67.6885 35.0898L67.3369 35.3594L66.5986 36.1094L66.376 36.3291L66.1699 36.8164L66.123 36.9102L66.1465 36.9805L67.1074 36.0547L67.1777 36.1367L67.3184 36.2773L67.4238 36.4648L68.6309 38.7031L68.7012 38.8555L68.748 39.0078L69.4043 41.3516L70.1309 42.5L71.9121 42.4648L72.4395 42.4531L72.8496 42.7695L75.6152 44.8438L75.5566 45.6523L75.3809 48.1602L75.3223 48.9219L74.666 49.332L72.4395 50.7031L72.2402 50.8203L72.0293 50.8789L71.4053 51.0361L71.7734 51.7109L71.8555 51.8633L71.9023 52.0273L72.5938 54.5703L73.543 56.8672L73.5898 56.9609L73.6133 57.0547L74.1074 58.9297L74.7148 58.8604L77.3281 58.5088L77.4102 58.4971H77.4922L79.9766 58.415L82.3906 57.8057L82.5078 57.7705H82.625L85.1562 57.5244L87.4062 57.208L89.9727 56.5869L89.9961 56.5752H90.0195L92.4688 56.0361L95 55.2627L95.0938 55.2393L97.6602 54.6182L97.7422 54.5947L97.8242 54.583L100.414 54.2783L101.457 54.1494L101.926 55.0869L102.805 56.8213L103.32 57.8174L102.5 58.5908L100.637 60.3604L100.297 60.6768L99.8516 60.7471L97.3789 61.1455L97.1484 61.2275L97.5918 62.8926L97.7441 63.4434L97.4746 63.959L96.2793 66.3027L96.2441 66.373L96.1973 66.4551L94.791 68.5293L94.5098 68.9512L94.0176 69.1152L91.4746 69.959L91.041 70.0996L90.5957 69.9824L88.7168 69.46L88.7148 69.7539L88.7031 70.8555L87.6484 71.1836L85.0586 71.9688H85.0117L84.9766 71.9805L82.4102 72.6133L79.9023 73.3047L79.7969 73.3398L79.7031 73.3516L77.0781 73.6914L76.9844 73.7031H74.3594L71.8867 74.2305L71.8398 74.2422H71.793L71.1953 74.3242L71.418 75.2031L71.4414 75.3086L71.4531 75.4023L71.7344 78.0625V78.0977L71.9219 80.4062L72.9531 82.5156L74.2305 84.7305L74.3242 84.8945L74.3711 85.082L75.0859 87.6367L75.2266 88.1523L75.0156 88.6328L74.125 90.6602L73.9775 91L74.9443 93.0332L76.1748 95.2598L76.2217 95.3418L76.2568 95.4238L77.2178 97.791L78.2959 99.877L78.3662 100.018L78.4014 100.158L79.0693 102.596L80.1709 104.986L80.2061 105.068L80.2295 105.139L80.6748 106.521L82.2451 106.557H82.374L82.5029 106.58L85.0928 107.084L85.749 107.201L86.1006 107.775L87.2021 109.604L87.8232 110.635L86.9443 111.467L84.9639 113.318L84.8232 113.459L84.6592 113.541L82.8193 114.548L84.5469 114.746L86.9727 114.371L87.125 114.348L87.2773 114.359L89.9141 114.488H89.9258L92.4453 114.641L95 114.43L95.0586 114.418H95.1055L97.7539 114.406H97.8594L97.9648 114.418L100.367 114.746L102.77 114.312L103.027 114.266L103.285 114.301L105.816 114.723L108.137 114.664L110.738 114.266L111.031 114.219L111.312 114.289L112.355 114.547L111.652 117.453L110.891 117.266L108.547 117.629L108.453 117.652H108.359L105.723 117.723H105.582L103.051 117.301L100.672 117.734L100.438 117.781L100.203 117.746L97.6367 117.406H95.2344L92.5977 117.629L92.4922 117.641L92.3984 117.629L89.75 117.477V117.465L87.2773 117.348L84.7812 117.734L84.582 117.77L84.3945 117.746L81.8516 117.453L79.2969 117.477L79.2852 117.465L76.7773 117.711L76.6133 117.723L76.4492 117.699L73.918 117.383L71.3867 117.43H71.3281L68.6914 117.371H68.6445L66.1719 117.23L63.7109 117.699L63.4766 117.746L63.2305 117.711L60.7227 117.348L58.2383 117.488H58.0156L55.5898 117.242L53.1406 117.676L52.8828 117.723L52.6133 117.676L50.1172 117.242L47.6914 117.395H47.668L47.6445 117.406L42.3711 117.57H42.2539L42.1367 117.559L39.5938 117.254L37.1328 117.418L37.0508 117.43L36.957 117.418L34.5078 117.277L32 117.699L31.7891 117.734L31.5781 117.711L29.0234 117.395L26.5391 117.324L23.9492 117.512L23.8906 117.523H23.832L21.1953 117.512H21.0781L18.5 117.301L16.0508 117.395L16.0625 117.406L13.4258 117.664L13.2734 117.676L13.1211 117.664L10.625 117.395L8.16406 117.5H8V114.5H8.03516L10.5781 114.395L10.6836 114.383L10.8008 114.395L13.2852 114.664L15.7695 114.418H15.8633L18.5 114.312L18.5938 114.301L18.6758 114.312L21.3125 114.512L21.3008 114.523H23.7383L26.375 114.336L26.4453 114.324L26.5273 114.336L29.1641 114.406H29.2344L29.293 114.418L31.7305 114.699L34.1562 114.301L34.3203 114.277L34.4844 114.289L34.5713 114.293L32.7871 112.735L30.6777 111.341L30.4199 111.177L30.2559 110.919L28.8262 108.739L28.3223 107.966L28.791 107.157L30.0332 105.024L30.0566 104.978L30.0801 104.942L31.5566 102.739L31.5918 102.692L31.627 102.657L33.2441 100.571L33.3145 100.478L33.4082 100.396L35.2949 98.626L36.0098 97.958L36.6074 98.2139L37.5791 97.1748L38.7158 95.0889L39.4658 92.8271L39.6768 91.7842L39.0322 91.5752L39.0312 91.5781L38.9141 91.7891L38.7383 91.9648L36.8281 93.7461L36.5469 94.0039L36.1719 94.0977L33.6289 94.7539L33.1719 94.8594L32.7383 94.6953L30.3477 93.8047L29.9727 93.6641L29.7148 93.3594L28.1211 91.4375L27.8281 91.0859L27.7812 90.6406L27.5 88.0156L27.4531 87.5469L27.6758 87.125L28.9648 84.8047L28.9883 84.7695L29.0234 84.7227L30.001 83.1924L29.8311 80.8408L29.8193 80.6416L29.8545 80.4541L30.3584 77.8643L30.3701 77.7939L30.3936 77.7236L31.1553 75.1924L31.2021 75.0752L32.1162 72.7666L32.6201 70.2588L32.6787 69.9541L32.8545 69.708L34.2842 67.5869L35.4795 65.3135L35.5615 65.1611L35.667 65.0322L37.2959 63.1338L38.5498 60.9307L38.7021 60.6494L38.9717 60.4619L41.0576 58.9268L42.8623 57.1924L42.9443 57.1104L44.5029 55.8213L44.749 53.8174L44.7959 53.4658L44.9951 53.1611L45.2422 52.7852L44.9863 52.6465L44.6348 52.459L44.4355 52.1191L43.1348 50.0215L43.0527 49.9043L43.0059 49.7754L42.5459 48.6006L42.2842 48.6582L40.5732 49.0215L40.5283 48.2852L40.4307 48.25L39.5049 47.8867L39.4697 46.8906L39.3877 44.1953V44.1836L39.2471 41.793L38.7666 39.1914L38.7432 39.0508V38.9219L38.7314 36.4023L38.2627 33.9297V33.918L37.7588 31.3516V31.3398L37.2666 28.9844L36.1416 26.7578L36.0361 26.5586L36.001 26.3477L35.5322 23.8984L34.5361 21.6484L34.501 21.5781L34.4775 21.5078L33.7158 19.1992L32.2627 17.2539L32.0635 16.9844L32.0049 16.6562L31.4893 14.1602L31.2314 12.8594L32.4854 12.4375L34.3721 11.8047L34.8525 11.6523L35.333 11.8047ZM56.9375 94.2207L56.3242 96.1357L56.2422 96.3936L56.0781 96.6162L54.5078 98.585L53.1484 100.8L53.0781 100.905L52.9961 100.999L51.25 103.015L51.1094 103.179L50.9219 103.296L48.6836 104.714L48.6133 104.761L46.5977 105.886L45.3086 107.69L45.2734 107.749L45.2266 107.796L44.0527 109.161L44.7168 109.548L44.9277 109.677L45.0918 109.864L46.8496 111.892L47.2949 112.407L47.2012 113.075L47.0156 114.431L47.5039 114.418V114.406L50.1523 114.242L50.3281 114.23L50.5039 114.266L52.8828 114.688L55.2617 114.266L55.4609 114.23L55.6602 114.242L58.1328 114.488L60.7227 114.348L60.8633 114.336L61.0156 114.359L63.418 114.711L65.8086 114.266L65.9844 114.23L66.1602 114.242L68.6885 114.365L67.9805 112.482H67.9688L66.9141 110.186L66.8906 110.139L66.8789 110.092L65.9414 107.619L65.8945 107.479L65.8711 107.338L65.4375 104.818L65.4189 104.712L65.3506 104.444L64.7998 102.37L63.71 100.214L62.21 98.2451L62.1865 98.2217L62.1748 98.1982L60.7217 96.1357L59.2383 94.3447L57.3662 94.2051L56.9375 94.2207ZM35.541 102.493L33.9941 104.497L32.5762 106.606L31.8379 107.86L32.5879 109.009L34.5684 110.321L34.7324 110.438L36.5605 112.056L38.7285 113.181H38.7168L40.7441 114.153L42.7363 114.106L44.0957 113.591L44.1309 113.345L42.9473 111.985L40.9316 110.813L40.0176 110.286L40.2168 109.231L40.2754 108.962L41.752 109.255L41.834 109.267L41.8848 109.179L40.8203 108.394L41.1719 107.913L41.207 107.878L41.2422 107.831L42.9062 105.874L43.1377 105.554L41.916 104.649L41.8691 104.626L39.8887 103.044L37.7559 101.966L36.6191 101.485L35.541 102.493ZM74.6719 103.213L74.4961 103.295L74.3086 103.342L71.8711 103.869L69.6094 104.924L68.5781 105.416L68.8008 106.717L69.6445 108.932L70.7461 111.334L70.793 111.428L71.6162 113.609L73.667 113.506L76.1631 113.049L76.2568 113.037L76.3389 113.025L78.7764 112.861L80.9912 112.111L83.0537 110.998L84.0029 110.107L83.874 109.896L82.0459 109.545L79.5615 109.498L78.5068 109.475L78.167 108.467L77.4053 106.17L76.3271 103.803L76.2803 103.697L76.2451 103.58L75.9551 102.554L74.6719 103.213ZM42.3955 93.5186L42.3721 93.6006L42.3486 93.6943L41.5166 96.2021L41.4697 96.3311L41.4111 96.4482L40.1338 98.7803L40.04 98.9561L39.9111 99.0967L39.5195 99.5088L41.4004 100.454L41.5293 100.524L41.6582 100.618L43.6855 102.235L45.1172 103.28L47.0664 102.183L49.1289 100.882L50.6641 99.1006L51.9766 96.9795L52.0234 96.8975L52.082 96.8271L53.5352 94.9756L53.8047 94.1416L51.9756 93.7832L49.4678 93.6543L46.8193 93.502H46.6436L46.4795 93.4434L44.1006 92.7402L42.5635 92.6777L42.3955 93.5186ZM67.9365 92.5762L65.5459 93.5137L65.2998 93.6191H65.0303L62.5625 93.6533L63.0303 94.2139L63.1006 94.3076L64.5889 96.4287L66.1943 98.5264L66.2764 98.6436L66.3467 98.7607L67.542 101.14L67.6123 101.28L67.6475 101.433L67.9092 102.42L68.332 102.217L68.3438 102.205H68.3555L70.7578 101.092L70.9102 101.021L71.0625 100.986L73.4648 100.459L74.8496 99.7471L74.5342 99.127L74.499 99.0684L74.4756 98.998L73.5498 96.7129L72.2725 94.4043L72.249 94.3691L72.2373 94.3223L71.3818 92.541L70.0107 92.1426L67.9365 92.5762ZM31.5781 86.2578L31.5898 86.2695L30.5234 88.1797L30.6992 89.8438L31.7656 91.1328L33.3242 91.7188L35.0586 91.2734L36.4883 89.9492L37.4961 88.0625L37.7559 87.0547L36.0303 86.0674L33.8389 85.2354L32.3975 84.999L31.5781 86.2578ZM42.7803 82.165L41.8076 84.5088L41.749 84.6494L41.6553 84.7783L41.3066 85.2803L41.0234 86.3984L40.3896 88.8652L41.8682 89.335L43.001 89.6982L44.417 89.752L44.6045 89.7637L44.7803 89.8105L47.1709 90.5137L49.6318 90.6543L52.2568 90.7949L52.3623 90.8066L52.4678 90.8301L54.8936 91.2988L57.2607 91.2051H57.4365L59.792 91.3809L61.8896 90.7363L62.0889 90.666H62.3115L64.7139 90.6191L66.9521 89.752L67.0576 89.7051L67.1865 89.6816L69.7646 89.1426L70.1279 89.0605L70.4795 89.166L71.2881 89.3926L71.1719 89.1484L71.5938 88.9375L72.0391 87.9062L71.5352 86.0781L70.3164 83.9336L70.2812 83.8867L70.2578 83.8398L69.582 82.4531L69.0059 82.5029L66.6035 83.2764L66.3809 83.3467H66.1465L63.5098 83.335L60.8965 83.417L60.8848 83.4053L58.3418 83.6279H58.166L55.5293 83.5459L55.3418 83.5225L52.7871 83.1123L50.1973 82.8428V82.8311L47.584 82.6318L47.3965 82.6084L47.2207 82.5498L44.7129 81.7061V81.6943L43.2344 81.2695L42.7803 82.165ZM47.6904 54.4971L47.4209 56.7822L47.3506 57.3799L46.8818 57.7666L44.9131 59.3721L43.0615 61.1768L42.8975 61.3174L40.9873 62.6885L39.8271 64.7393L39.7568 64.8682L39.6631 64.9736L38.0576 66.8486L36.9209 69.04L36.8857 69.1104L36.8271 69.1924L35.5029 71.126L35.0342 73.4814L35.0107 73.6104L34.9639 73.7393L33.9912 76.1885L33.2764 78.5322L32.8428 80.8291L32.9248 82.0361L34.4482 82.2939L34.6006 82.3174L34.7295 82.376L37.2021 83.3018L37.3193 83.3486L37.4248 83.4072L38.5146 84.0283L39.1006 83.1846L40.0615 80.9111L40.0732 80.8525L40.1084 80.8057L41.2568 78.5322L42.0654 76.1299L42.1006 76.0127L42.1592 75.9072L43.4014 73.5752L43.4834 73.4111L43.6006 73.2822L45.2646 71.3838L46.4482 69.2158L46.6592 68.8174L47.0576 68.6064L48.8857 67.6338L49.4717 68.7471H49.5889L51.0889 68.7354V69.8604L50.292 70.2822L48.8623 71.0322L47.8076 73.001L47.7256 73.1533L47.6084 73.2822L45.9561 75.1338L44.8545 77.208L44.4316 78.4932L45.6152 78.835L45.6387 78.8467L45.6738 78.8584L48.0293 79.6553L50.4785 79.8545H50.5137L53.127 80.1357H53.1621L53.209 80.1475L55.7637 80.5459L58.1426 80.6162L60.7324 80.417H60.8145L63.4395 80.335H65.9121L68.2441 79.6084L68.3965 79.5498L68.5605 79.5381L68.8447 79.5117L68.7461 78.3438L68.7578 78.332L68.4883 75.8125L67.9561 73.6953L66.2998 72.2627L66.2646 72.2393L66.2295 72.2041L64.5186 70.54L62.3389 69.6377H62.3271V69.626L59.8896 68.5713L59.7725 68.5244L59.667 68.4541L57.4521 66.9893L57.417 66.9658L57.3936 66.9424L55.2607 65.3838L55.2256 65.3486L55.1787 65.3135L53.1631 63.5908L53.0225 63.4736L52.917 63.333L51.3701 61.165L51.2646 61.0361L51.2061 60.8838L50.2217 58.54L48.8506 56.4072L48.7451 56.2197L48.6748 56.0205L48.1006 54.0986L47.9951 54.0518L47.6904 54.4971ZM83.0352 60.7236L80.5625 61.3682L80.3984 61.4033L80.2344 61.415L77.668 61.4736L75.1133 61.8252L75.1016 61.8369H75.0898L74.1953 61.9424L74.1406 62.7266V62.75L73.918 65.375L73.9062 65.4219V65.4688L73.5195 68.0938L73.4961 68.2695L73.4375 68.4336L72.4531 70.8945V70.918L72.3926 71.0615L73.9258 70.75L74.0664 70.7148H74.2188L76.8438 70.7031L79.1641 70.3867L81.6602 69.707H81.6953L84.2617 69.0742L85.7148 68.6172L85.7266 67.2812L85.0586 65.0312L85.0117 64.8438L85 64.6562L84.918 62.0781L84.7979 60.5684L83.0352 60.7236ZM48.4951 46.1152L46.1748 46.8301L45.2998 47.3965L45.7598 48.5801L46.7676 50.1973L46.8984 50.2695L46.9404 50.208L48.124 50.7822L50.0225 51.708L50.6201 52.001L50.8076 52.6338L51.4873 54.9658L52.8232 57.0518L52.8818 57.1572L52.9287 57.2744L53.8662 59.5127L55.2607 61.4463L57.042 62.9697L59.1045 64.4814L61.1904 65.8643L63.5107 66.8721H63.499L65.9482 67.8916L66.2178 67.9971L66.417 68.1963L68.2568 69.9893L69.2344 70.8359L69.6758 69.7695L70.5781 67.4492L70.9297 65.0352L71.1523 62.4922L71.3164 60.1133L70.707 57.8281H70.6953L69.7695 55.5547L69.7344 55.4727L69.7109 55.3789L69.0547 52.9766L68.4346 51.8457L67.2949 52.1914L65.3027 53.5742L63.3223 54.957L61.6582 56.8672L61.0488 57.5703L60.1465 57.3242L57.5215 56.6328L57.416 56.6094L57.3223 56.5625L54.8965 55.543L54.709 55.4609L54.5449 55.332L52.4707 53.6914L52.3066 53.5508L52.1777 53.375L50.6309 51.1719L50.3848 50.8203L50.3496 50.3984L50.209 47.8906L49.4541 45.8389L48.4951 46.1152ZM98.2461 57.5596L95.7969 58.1572L93.3594 58.9072L93.3008 58.9189L93.2422 58.9424L90.6641 59.5049L90.6523 59.4932L88.1328 60.1377L88.0625 60.1611H87.9805L87.7725 60.1895L87.9062 61.8438V61.8789L87.918 61.9141L87.9883 64.3516L88.5693 66.3027L88.8262 66.373L90.959 66.959L92.5879 66.4199L93.6309 64.873L94.5449 63.1035L94.0293 61.1582L93.8301 60.4199L94.0566 60.1367L93.4766 59.5752L93.5352 59.5049L93.7812 59.2471L94.1211 59.1299L96.4648 58.2979L96.5938 58.251L96.7227 58.2275L98.8906 57.8643L99.3594 57.4189L98.2461 57.5596ZM64.3652 39.0664L64.3535 39.0547L61.998 40.1094L61.9629 40.1328L61.916 40.1445L59.6309 41L57.498 42.3945L57.2988 42.5352L57.0527 42.5938L54.627 43.2148L52.8691 44.0703L52.3887 45.1602L53.1035 47.0938L53.1855 47.3047L53.1973 47.5273L53.3145 49.7891L54.4863 51.4531L56.2207 52.8359L58.4707 53.7852L60.0059 54.1836L61.1895 52.8477L61.3184 52.707L61.459 52.6016L63.5918 51.1133V51.1016H63.6035L65.8066 49.5898L65.9941 49.4609L66.2168 49.3906L68.7598 48.6289L68.7832 48.6172L68.8184 48.6055L71.0449 48.0312L72.4277 47.1758L72.498 46.25L71.4551 45.4648L69.3574 45.5234L68.502 45.5469L68.0566 44.832L66.7559 42.7578L66.6387 42.582L66.5801 42.3711L65.9004 39.9805L65.2207 38.7148L64.3652 39.0664ZM62.707 43.5938L63.375 43.9336L64.0195 43.9805L64.1133 43.9922L64.1953 44.0039L64.2891 44.0273L63.9961 45.5039L63.832 46.2773L63.7852 46.9805L62.8594 46.8984L62.5664 46.875L62.3086 46.7461L61.875 46.5234L59.5312 47.1797L60.0117 44.7891L60.0234 44.707L61.4648 45L61.0898 43.6406L62.1914 43.3359L62.707 43.5938ZM41.3682 46.832L41.3213 46.9844L41.3018 47.0332L41.9326 46.9941L41.8936 46.8203L41.3682 46.832ZM34.6885 14.8633L34.876 15.7305L36.2705 17.6172L36.4229 17.8164L36.4932 18.0391L37.2783 20.418L38.3564 22.8438L38.4268 23.0078L38.4619 23.1836L38.8955 25.5742L40.0322 27.7773L40.126 27.9648L40.1611 28.1641L40.7002 30.7539V30.7656L41.2158 33.3672V33.3789L41.6963 35.9805L41.7314 36.1094V38.7578L42.2002 41.2422L42.2236 41.3242V41.418L42.3877 44.0547V44.1016L42.4316 45.5547L42.7061 45.4941L44.7451 44.2051L44.9092 44.0996L45.0967 44.041L47.6279 43.2441H47.6514L47.6631 43.2324L49.9717 42.5645L50.0654 42.5293L50.1611 42.7998L50.3496 42.3711L50.5723 41.8672L51.0645 41.6328L53.4316 40.4609L53.5723 40.3906L53.7246 40.3555L56.0918 39.7344L58.0957 38.4219L58.2363 38.3281L58.3887 38.2695L60.8613 37.332L63.2051 36.3008L63.252 36.2773L64.4092 35.8154L63.7861 35.043V35.0312L62.1924 33.1328L60.2354 31.5977L60.2236 31.5742L60.2002 31.5625L58.1846 29.8633L58.126 29.8281L58.0791 29.7812L56.251 27.9414L54.3994 26.418L52.208 24.9414L52.1611 24.918L52.1143 24.8828L50.04 23.2539L49.9932 23.2305L49.958 23.1953L48.165 21.5898L45.915 20.5938L45.7861 20.5352L45.6689 20.4531L43.5947 19L41.333 17.8984L41.2393 17.8516L41.1455 17.793L39.1064 16.3984L36.8213 15.4609L34.8525 14.8047L34.6885 14.8633Z" fill="black"/>
</svg>
