<svg xmlns="http://www.w3.org/2000/svg" width="120" height="120" fill="none" viewBox="0 0 120 120"><path fill="#000" d="m36.075 15.11 2.485.597.773.188.281.75.532 1.43 1.493.123 2.859-.07v-.012l3-.14h.082l3 .011h.07l.07.012 2.825.305 2.918-.211h.094l3-.035h2.918l2.988-.188h.152l3.012.117h.059l.07.012 2.976.387.258.035.235.117 2.601 1.336 1.067.55-.293 1.161-.516 1.98-.164.657-.61.304-2.695 1.372-.27.14-.292.023-3.024.223h-.117l-3.012-.011h-.011l-2.989-.06-2.965.048-.105.012-.105-.024-2.86-.351-2.836.14.012.012-3 .281-.14.012-.141-.024-2.93-.293-2.848.164h-.152l-2.965-.129-.668.017-.044.645-.55.41-2.391 1.77-.516.386-.644-.117-.961-.176-.48 1.77-.047.187-.094.164-1.465 2.52-.89 2.59-.434 2.671-.012 2.11 1.465 1.476 2.531 1.02.164.07.152.106 2.309 1.675 2.52 1.278 2.683 1.125 2.637.914.691.059.13-.95-1.009-1.793-1.101-1.91-1.196-1.488-.421-.516.093-.656.457-2.977.024-.14.058-.14.985-2.743.597-2.836.094-.445.34-.328 2.191-2.11.293-.281.399-.094 2.941-.691.117-.035h.106l2.953-.246.27-.024.257.082 2.825.797.293.082.234.188 2.273 1.816.282.223.14.34 1.184 2.648.012.012v.011l1.09 2.602 1.5 2.016 2.261 1.523.469.316.14.54.75 2.765.2.715-.457.586-1.7 2.203-.222.293-.34.152-2.684 1.23-.375.176-.422-.058-2.847-.328-.328-.035-.282-.164-.457-.277-.016.237 1.676.562 2.87.492.212.047 2.86.938.187.058.164.106 2.53 1.605.106.07.106.094 2.156 2.004.387.363.082.516.293 1.898.135.9.013.008h-.011l2.543 1.488.163.094.13.129 2.12 2.097.106.094.082.117 1.7 2.473.081.117.059.14 1.195 2.755.07.152.024.164.562 2.965.024.164v.164l-.047 1.266-.012.27-.082.175-.41 2.672-.012.07-.023.082-.75 2.871-.035.13-.059.128-1.289 2.719-.082.176-.129.14-1.933 2.32-.141.176-.187.118-1.62 1.054.382.167.34.14.223.294 1.84 2.25.093.129.07.129 1.348 2.566.444.599L80.8 90.69l1.465-2.53.046-.095.06-.07 1.839-2.402 1.535-2.414.07-.118.106-.105L87.96 80.8l.129-.13.152-.105 2.473-1.582.2-.128.233-.06 2.836-.75.153-.034L94.3 78l2.953-.129.773-.023.47.597 1.722 2.18.914 1.172-1.149.926-2.273 1.804-2.145 2.098-1.746 2.04-1.289 2.542-1.125 2.555-.925 2.695-.68 2.93-.024.129-.058.105-1.149 2.789-.914 2.731v.011l-.972 2.918-.036.071-1.242 2.742-.164.351-.457.338 1.227.158 2.507-.398 2.368-1.148 2.32-1.688.176-.129.223-.07 2.835-.973 2.801-1.043.387-.14.398.07 2.989.539.129.023.117.047 2.789 1.008h-.012l2.824.832.106.024.093.046 2.731 1.243.176.07.152.129.82.656-.937 1.172-.949 1.172-.668-.551-2.496-1.137-2.778-.808-.093-.024-2.649-.972-2.473-.446-2.449.926h-.023l-.024.012-2.636.89-2.215 1.629-.117.082-.118.059-2.683 1.289-.2.094-.21.035-2.954.48-.222.036-.211-.024-2.988-.387-.176-.023-.164-.059-2.836-1.078-.27-.105-.21-.188-1.981-1.816-2.531-.586-2.555-.223-2.426.703-2.613 1.161-2.309 1.629-.21.128-.235.071-2.906.855-.328.094-.352-.059-2.977-.504-.105-.023-.094-.035-2.824-.902-.2-.059-.175-.129-2.355-1.605-2.473-1.114-2.52-.398-2.507.562-2.473 1.219-2.496 1.512-.14.082-.165.058-2.847.926-.235.071h-.258l-2.965-.059h-.128l-.141-.023-2.895-.586-.246-.047-.21-.129-2.567-1.488-.07-.047-2.297-1.524-2.555-.738-2.683-.551-2.52.387-2.508 1.183-2.625 1.36-.07.035-.082.023-2.707 1.043-.012.012h-.01l-.093.035-1.032-2.812.094-.035h.012l2.672-1.043 2.531-1.301.047-.024 2.719-1.289.199-.093.21-.024 2.989-.457.27-.047.257.059 2.942.598.117.023 2.871.832.223.059.187.128 2.438 1.618 1.186.688.053-2.597-.152-2.988v-.164l.187-2.988v-.047l.012-.047.363-2.965.012-.058.012-.07.62-2.919.587-2.918.011-.082.024-.082.914-2.859.035-.105.047-.083 1.277-2.718.012-.024.012-.011 1.359-2.672.023-.07.047-.06 1.559-2.484 1.02-2.484.503-2.578-.351-2.508-1.09-2.613-.082-.2-.024-.222-.316-2.988-.012-.13.012-.14.211-2.941.012-.14.035-.13.762-2.894.023-.117.059-.118 1.23-2.754.059-.152.093-.129.457-.626-.224-.117v.012l-2.742-1.242-.035-.012-.047-.024-2.649-1.406-.011-.012h-.012l-2.625-1.453-.024-.023-.035-.012-2.496-1.559v.012l-2.613-1.488-.082-.047-.082-.059-2.403-1.804-.14-.106-.106-.14-1.922-2.32-.21-.247-.082-.304-.797-2.813-.118-.387.106-.386.738-2.907.727-2.894.023-.094.035-.082 1.09-2.789.024-.07 1.207-2.73 1.02-2.673.55-2.437-.54-2.543-.14-.703.434-.551 1.781-2.227.317-.386.492-.13 2.941-.738.235-.058.246.023 1.783.143 1.957-2.085.597-.633zm-7.385 5.926-1.02 1.266.028.129.105.008 1.675.163 1.407-.093v.011l.07-.011.106 1.5.117 1.488-.106.012h-.023l-1.535.082-.106.011-.105-.011-1.239-.115-.592 2.58-.024.105-.035.094-1.078 2.8-.012.036-.023.023-1.207 2.742-1.043 2.637-.692 2.813-.644 2.508.598 2.12 1.593 1.922 2.18 1.653 2.555 1.453.023.012.023.023 2.555 1.57h-.011l2.543 1.407 2.554 1.359 2.742 1.23.035.024.047.012 2.04 1.066-.449.864 1.236.453-.036.094-.07.2-.117.163-1.64 2.25L40 62.175l-.68 2.625-.199 2.672.281 2.66 1.078 2.59.07.175.024.188.434 2.977.035.257-.059.258-.586 2.942-.035.14-.047.13-1.136 2.788-.059.13-.07.116-1.617 2.543-1.29 2.555-1.23 2.578-.832 2.613-.586 2.942v.023l-.61 2.79-.363 2.964-.175 2.789.152 2.918v.106l-.059 2.777.303.969.357.072 2.59.047 2.437-.797 2.45-1.441.046-.036.059-.023 2.66-1.324.164-.071.176-.046 2.953-.657.281-.058.27.035 3.011.457.2.035.187.082 2.777 1.254.117.059.106.07 2.297 1.558 2.449.786 2.578.445 2.309-.668 2.285-1.57.117-.082.14-.059 2.755-1.219.093-.047.094-.023 2.871-.844.282-.082.28.024 2.989.269.094.012.105.023 2.953.692.387.082.281.269 2.04 1.864.157.059 1.674-1.247 1.055-2.297.938-2.801.949-2.836.011-.046.024-.059 1.113-2.695.645-2.778.047-.14.972-2.848.012-.058.035-.06 1.207-2.753.012-.035.023-.035 1.372-2.696.082-.152.117-.129 1.945-2.308.059-.047.047-.059 2.156-2.074.047-.047.058-.047 1.195-.973-.328-.422-2.015.094-2.473.656L90 82.992l-1.781 1.875-1.559 2.438-.023.058-.047.047-1.793 2.332-1.418 2.508-.047.082-.059.07-1.828 2.414-.234.305-.352.164-2.285 1.008-.504-1.14-.198.15-.15-.201-1.116.441-.036-.082-.515-1.324.71-.322-.217-.293-.082-.105-.047-.106-1.336-2.542-1.488-1.84-1.97-.852-.375.229 1.097 2.483.082.176.023.187.48 2.918.036.176-.024.176-.222 2.953v.082l-.024.094-.574 2.918-.047.199-.082.176-1.312 2.707-.106.199-.164.176-2.074 2.179-.129.141-.164.106-2.531 1.57-.235.152-.281.059-2.906.551-.164.023h-.164l-2.953-.105-.282-.012-.258-.106-2.718-1.172-.258-.117-.211-.199-2.062-2.086-.305-.305-.106-.421-.656-2.907-.082-.386.105-.387.88-2.883.07-.187 1.242-2.707.023-.047 1.313-2.602 1.148-2.648.606-1.92-1.847-1.104-.152-.082-.117-.117-2.157-2.074-.07-.07-.059-.07-1.863-2.333-.082-.094-.059-.093-1.5-2.625-.105-.2-.047-.21-.68-2.954-.035-.14-.011-.153-.106-3.023v-.152l.023-.164.528-2.977.023-.117.047-.117L50 65.793l.082-.246.164-.2 1.898-2.331.012-.024.012-.011 1.922-2.262.082-.094.094-.07 2.297-1.957.222-.2.293-.093 2.871-.926.07-.023 2.895-.786.211-.058.234.011 3 .094h.07l2.94.25-.006-.032-1.675-1.547-2.25-1.441-2.614-.844L60 52.534l-.117-.023-.117-.035-2.883-.973-1.102-.375.082-1.148.2-2.965.23.015-1.866-1.827-.27-.27-.105-.351-.903-2.871-.058-.164-.012-.176-.21-2.707L52 36.473l-1.758-1.371-2.133-.692-.351 1.735-.024.105-.035.105-.984 2.684-.328 2.168.843 1.043.082.094.06.105 1.17 2.051.013.012 1.265 2.238.246.445-.07.504-.41 2.86-.2 1.406-1.406-.117-2.273-.2-.187-.011-.176-.059-2.836-.984-.047-.024-.035-.011-2.778-1.16-.093-.047-2.684-1.348-.105-.059-.106-.07-2.297-1.664-2.648-1.066-.281-.118-.223-.222-2.11-2.121-.433-.446v-.62l.012-2.778v-.13l.011-.116.493-2.989.023-.128.047-.118.973-2.847.046-.13.07-.128 1.43-2.484.703-2.508.012-2.625-.68-2.73-.082-.317.06-.317.124-.702-1.04-.086zm30.813 69.355-.023.082-.024.07-1.195 2.73-.012.036-.023.047-1.348 2.683-1.184 2.555-.726 2.39.468 2.121 1.56 1.559 2.202.938 2.485.093 2.484-.468 2.144-1.348 1.747-1.84 1.16-2.355.515-2.637.211-2.73-.422-2.485-1.09-2.473-.094-.151-.361.105-.153.046-.164.012-3 .188-.117.011-.117-.011-3.012-.27-.223-.012-.21-.093-.983-.4zm1.302-30.141-2.52.82-2.027 1.723-1.793 2.098-1.735 2.156-.89 2.508-.469 2.66.094 2.719.597 2.601 1.348 2.356 1.77 2.191 1.898 1.816 2.367 1.418 2.461.996 2.684.247 2.73-.188 2.532-.727 2.379-1.44 2.308-1.5 1.664-2.005 1.137-2.402.691-2.613.446-2.825.035-.175H78.5l.035-.832-.492-2.625-1.066-2.473-1.559-2.262-1.899-1.851-2.367-1.383-.011-.012h-.012l-2.309-1.418-2.566-.223-2.766-.093zM52.27 31.574l-1.851.434.996.316.246.082.211.164 2.309 1.793.316.258.152.375 1.09 2.754.094.21.012.235.21 2.79.739 2.343 1.77 1.723 2.085 1.265 2.133.235 1.957-.89 1.02-1.325-.41-1.5-1.993-1.324-.21-.14-.153-.212-1.77-2.367-.105-.152-.07-.164-1.16-2.754-1.032-2.32-1.734-1.383-2.309-.657zM50.5 38.5h-.969l.336.86-.304.117-.11.039-.117.015-.594.086-.203.031-.187-.054-.5-.125.148-.578V37.5h.227l.125.031.304.086.266-.039.21-.086 1.368-.531zM35.173 19.34l-.387 2.144.668 2.614.059.187-.012.2-.023 1.535.457.082 1.324-.985.176-2.191v-.059l.304-2.648-.668-1.782-.855-.21zm27.49 1.706-.048.012H59.58l-3 .035-.012-.012-2.894.223h-.13l-.14-.012-2.883-.316h-2.894l-2.988.129-.012.011h-.024l-3 .082h-.081l-.082-.012-.78-.063-.221 1.948.426-.01h.106l2.906.118 2.953-.14.105-.013.118.012 2.86.281 2.859-.258h.058l3-.163h.129l.129.011 2.883.34 2.918-.035h.046l3.012.059h2.86l2.718-.2 1.817-.914.047-.164-1.313-.668-2.648-.351-2.848-.106z"/></svg>