<svg width="120" height="120" viewBox="0 0 120 120" fill="none" xmlns="http://www.w3.org/2000/svg">
<path d="M8.1 116V117.5H8.13227L8.16451 117.499L8.1 116ZM10.64 115.891L10.797 114.399L10.6865 114.387L10.5755 114.392L10.64 115.891ZM13.28 116.169L13.123 117.66L13.2739 117.676L13.425 117.662L13.28 116.169ZM15.92 115.912L15.8596 114.413L15.8172 114.415L15.775 114.419L15.92 115.912ZM18.56 115.806L18.6763 114.31L18.588 114.303L18.4996 114.307L18.56 115.806ZM21.2 116.011L21.0837 117.507L21.1392 117.511L21.1948 117.511L21.2 116.011ZM23.84 116.02L23.8348 117.52L23.8912 117.52L23.9474 117.516L23.84 116.02ZM26.48 115.831L26.5223 114.331L26.4473 114.329L26.3726 114.334L26.48 115.831ZM29.12 115.905L29.2963 114.415L29.2295 114.408L29.1623 114.406L29.12 115.905ZM31.76 116.217L31.5837 117.707L31.7941 117.732L32.0032 117.698L31.76 116.217ZM34.4 115.784L34.4793 114.286L34.3171 114.277L34.1568 114.303L34.4 115.784ZM37.04 115.923L36.9607 117.421L37.0493 117.426L37.1379 117.42L37.04 115.923ZM39.68 115.751L39.8617 114.262L39.7223 114.245L39.5821 114.254L39.68 115.751ZM42.32 116.073L42.1383 117.562L42.2533 117.576L42.3692 117.572L42.32 116.073ZM44.96 115.986L44.9117 114.487L44.9108 114.487L44.96 115.986ZM47.6 115.901L47.6483 117.401L47.6707 117.4L47.693 117.398L47.6 115.901ZM50.24 115.737L50.5012 114.26L50.3253 114.229L50.147 114.24L50.24 115.737ZM52.88 116.204L52.6188 117.681L52.879 117.727L53.1393 117.682L52.88 116.204ZM55.52 115.741L55.6608 114.247L55.4596 114.228L55.2606 114.263L55.52 115.741ZM58.16 115.99L58.0192 117.483L58.1299 117.493L58.2409 117.487L58.16 115.99ZM60.8 115.847L61.0126 114.362L60.8665 114.341L60.7191 114.349L60.8 115.847ZM63.44 116.225L63.2274 117.71L63.4714 117.745L63.7137 117.7L63.44 116.225ZM66.08 115.735L66.1582 114.237L65.9809 114.228L65.8063 114.26L66.08 115.735ZM68.72 115.873L68.6418 117.371L68.6647 117.372L68.6878 117.373L68.72 115.873ZM71.36 115.93L71.3278 117.429L71.3564 117.43L71.3849 117.429L71.36 115.93ZM74 115.886L74.185 114.397L74.0804 114.384L73.975 114.386L74 115.886ZM76.64 116.214L76.455 117.702L76.6155 117.722L76.7765 117.708L76.64 116.214ZM79.28 115.973L79.2685 114.473L79.2059 114.473L79.1435 114.479L79.28 115.973ZM81.92 115.952L82.0888 114.462L81.9989 114.452L81.9085 114.452L81.92 115.952ZM84.56 116.251L84.3912 117.742L84.5876 117.764L84.783 117.735L84.56 116.251ZM87.2 115.854L87.2734 114.356L87.1245 114.349L86.977 114.371L87.2 115.854ZM89.84 115.984L89.9255 114.486L89.9134 114.486L89.84 115.984ZM92.48 116.135L92.3945 117.632L92.4978 117.638L92.6008 117.63L92.48 116.135ZM95.12 115.921L95.1099 114.421L95.0544 114.422L94.9992 114.426L95.12 115.921ZM97.76 115.903L97.9616 114.417L97.8562 114.403L97.7499 114.403L97.76 115.903ZM100.4 116.261L100.198 117.748L100.434 117.78L100.667 117.737L100.4 116.261ZM103.04 115.784L103.284 114.304L103.028 114.262L102.773 114.308L103.04 115.784ZM105.68 116.219L105.436 117.699L105.576 117.722L105.719 117.718L105.68 116.219ZM108.32 116.151L108.359 117.65L108.453 117.648L108.546 117.634L108.32 116.151ZM110.96 115.748L111.313 114.29L111.026 114.221L110.734 114.265L110.96 115.748ZM8 116V117.5H8.1V116V114.5H8V116ZM8.1 116L8.16451 117.499L10.7045 117.389L10.64 115.891L10.5755 114.392L8.03549 114.501L8.1 116ZM10.64 115.891L10.483 117.382L13.123 117.66L13.28 116.169L13.437 114.677L10.797 114.399L10.64 115.891ZM13.28 116.169L13.425 117.662L16.065 117.405L15.92 115.912L15.775 114.419L13.135 114.676L13.28 116.169ZM15.92 115.912L15.9804 117.411L18.6204 117.305L18.56 115.806L18.4996 114.307L15.8596 114.413L15.92 115.912ZM18.56 115.806L18.4437 117.301L21.0837 117.507L21.2 116.011L21.3163 114.516L18.6763 114.31L18.56 115.806ZM21.2 116.011L21.1948 117.511L23.8348 117.52L23.84 116.02L23.8452 114.52L21.2052 114.511L21.2 116.011ZM23.84 116.02L23.9474 117.516L26.5874 117.327L26.48 115.831L26.3726 114.334L23.7326 114.524L23.84 116.02ZM26.48 115.831L26.4377 117.33L29.0777 117.404L29.12 115.905L29.1623 114.406L26.5223 114.331L26.48 115.831ZM29.12 115.905L28.9437 117.395L31.5837 117.707L31.76 116.217L31.9363 114.728L29.2963 114.415L29.12 115.905ZM31.76 116.217L32.0032 117.698L34.6432 117.264L34.4 115.784L34.1568 114.303L31.5168 114.737L31.76 116.217ZM34.4 115.784L34.3207 117.282L36.9607 117.421L37.04 115.923L37.1193 114.426L34.4793 114.286L34.4 115.784ZM37.04 115.923L37.1379 117.42L39.7779 117.248L39.68 115.751L39.5821 114.254L36.9421 114.427L37.04 115.923ZM39.68 115.751L39.4983 117.24L42.1383 117.562L42.32 116.073L42.5017 114.584L39.8617 114.262L39.68 115.751ZM42.32 116.073L42.3692 117.572L45.0092 117.486L44.96 115.986L44.9108 114.487L42.2708 114.574L42.32 116.073ZM44.96 115.986L45.0083 117.486L47.6483 117.401L47.6 115.901L47.5517 114.402L44.9117 114.487L44.96 115.986ZM47.6 115.901L47.693 117.398L50.333 117.234L50.24 115.737L50.147 114.24L47.507 114.404L47.6 115.901ZM50.24 115.737L49.9788 117.214L52.6188 117.681L52.88 116.204L53.1412 114.727L50.5012 114.26L50.24 115.737ZM52.88 116.204L53.1393 117.682L55.7793 117.218L55.52 115.741L55.2606 114.263L52.6207 114.727L52.88 116.204ZM55.52 115.741L55.3792 117.234L58.0192 117.483L58.16 115.99L58.3008 114.496L55.6608 114.247L55.52 115.741ZM58.16 115.99L58.2409 117.487L60.8809 117.345L60.8 115.847L60.7191 114.349L58.0791 114.492L58.16 115.99ZM60.8 115.847L60.5874 117.332L63.2274 117.71L63.44 116.225L63.6526 114.74L61.0126 114.362L60.8 115.847ZM63.44 116.225L63.7137 117.7L66.3537 117.21L66.08 115.735L65.8063 114.26L63.1663 114.75L63.44 116.225ZM66.08 115.735L66.0018 117.233L68.6418 117.371L68.72 115.873L68.7982 114.375L66.1582 114.237L66.08 115.735ZM68.72 115.873L68.6878 117.373L71.3278 117.429L71.36 115.93L71.3922 114.43L68.7522 114.373L68.72 115.873ZM71.36 115.93L71.3849 117.429L74.0249 117.386L74 115.886L73.975 114.386L71.335 114.43L71.36 115.93ZM74 115.886L73.815 117.374L76.455 117.702L76.64 116.214L76.825 114.725L74.185 114.397L74 115.886ZM76.64 116.214L76.7765 117.708L79.4165 117.466L79.28 115.973L79.1435 114.479L76.5035 114.72L76.64 116.214ZM79.28 115.973L79.2915 117.473L81.9315 117.452L81.92 115.952L81.9085 114.452L79.2685 114.473L79.28 115.973ZM81.92 115.952L81.7512 117.443L84.3912 117.742L84.56 116.251L84.7288 114.761L82.0888 114.462L81.92 115.952ZM84.56 116.251L84.783 117.735L87.423 117.338L87.2 115.854L86.977 114.371L84.337 114.768L84.56 116.251ZM87.2 115.854L87.1266 117.353L89.7666 117.482L89.84 115.984L89.9134 114.486L87.2734 114.356L87.2 115.854ZM89.84 115.984L89.7545 117.481L92.3945 117.632L92.48 116.135L92.5655 114.637L89.9255 114.486L89.84 115.984ZM92.48 116.135L92.6008 117.63L95.2408 117.416L95.12 115.921L94.9992 114.426L92.3592 114.639L92.48 116.135ZM95.12 115.921L95.1301 117.421L97.7701 117.403L97.76 115.903L97.7499 114.403L95.1099 114.421L95.12 115.921ZM97.76 115.903L97.5584 117.39L100.198 117.748L100.4 116.261L100.602 114.775L97.9616 114.417L97.76 115.903ZM100.4 116.261L100.667 117.737L103.307 117.26L103.04 115.784L102.773 114.308L100.133 114.785L100.4 116.261ZM103.04 115.784L102.796 117.264L105.436 117.699L105.68 116.219L105.924 114.738L103.284 114.304L103.04 115.784ZM105.68 116.219L105.719 117.718L108.359 117.65L108.32 116.151L108.281 114.651L105.641 114.719L105.68 116.219ZM108.32 116.151L108.546 117.634L111.186 117.231L110.96 115.748L110.734 114.265L108.094 114.668L108.32 116.151ZM110.96 115.748L110.607 117.206L111.647 117.458L112 116L112.353 114.542L111.313 114.29L110.96 115.748Z" fill="black"/>
<path d="M40 44V42.5H38.3831L38.5042 44.1124L40 44ZM40.1 44V45.5H40.1323L40.1645 45.4986L40.1 44ZM42.64 43.8907L42.797 42.3989L42.6865 42.3873L42.5755 42.3921L42.64 43.8907ZM45.28 44.1686L45.123 45.6603L45.2739 45.6762L45.425 45.6615L45.28 44.1686ZM47.92 43.9122L47.8596 42.4134L47.8172 42.4151L47.775 42.4192L47.92 43.9122ZM50.56 43.8058L50.6763 42.3103L50.588 42.3034L50.4996 42.307L50.56 43.8058ZM53.2 44.0111L53.0837 45.5065L53.1392 45.5109L53.1948 45.511L53.2 44.0111ZM55.84 44.0202L55.8348 45.5202L55.8912 45.5204L55.9474 45.5163L55.84 44.0202ZM58.48 43.8306L58.5223 42.3312L58.4473 42.3291L58.3726 42.3345L58.48 43.8306ZM61.12 43.905L61.2963 42.4154L61.2295 42.4075L61.1623 42.4056L61.12 43.905ZM63.76 44.2174L63.5837 45.707L63.7941 45.7319L64.0032 45.6976L63.76 44.2174ZM66.4 43.7836L66.4793 42.2857L66.3171 42.2771L66.1568 42.3035L66.4 43.7836ZM69.04 43.9234L68.9607 45.4213L69.0493 45.426L69.1379 45.4202L69.04 43.9234ZM71.68 43.7507L71.8617 42.2618L71.7223 42.2448L71.5821 42.2539L71.68 43.7507ZM74.32 44.0729L74.1383 45.5619L74.2533 45.5759L74.3692 45.5721L74.32 44.0729ZM76.96 43.9863L76.9117 42.4871L76.9108 42.4871L76.96 43.9863ZM79.6 43.9013L81.0432 43.4924L80.7235 42.3643L79.5517 42.4021L79.6 43.9013ZM80.2627 46.24L81.7397 46.5012L81.7997 46.1623L81.7059 45.8311L80.2627 46.24ZM79.7958 48.88L78.3187 48.6188L78.2727 48.879L78.3184 49.1393L79.7958 48.88ZM80.2592 51.52L81.7526 51.6608L81.7715 51.4596L81.7366 51.2607L80.2592 51.52ZM80.0103 54.16L78.5169 54.0192L78.5065 54.1299L78.5125 54.2409L80.0103 54.16ZM80.1529 56.8L81.6378 57.0126L81.6587 56.8665L81.6507 56.7191L80.1529 56.8ZM79.775 59.44L78.2901 59.2274L78.2552 59.4714L78.3002 59.7137L79.775 59.44ZM80.2649 62.08L81.7629 62.1582L81.7722 61.9809L81.7398 61.8063L80.2649 62.08ZM80.127 64.72L78.6291 64.6418L78.6279 64.6647L78.6274 64.6878L80.127 64.72ZM80.0703 67.36L78.5706 67.3278L78.57 67.3564L78.5705 67.3849L80.0703 67.36ZM80.1142 70L81.6028 70.185L81.6158 70.0804L81.614 69.975L80.1142 70ZM79.7861 72.64L78.2976 72.455L78.2776 72.6155L78.2924 72.7765L79.7861 72.64ZM80.0274 75.28L81.5274 75.2685L81.5269 75.2059L81.5212 75.1435L80.0274 75.28ZM80.0476 77.92L81.5381 78.0888L81.5483 77.9989L81.5476 77.9085L80.0476 77.92ZM79.7487 80.56L78.2582 80.3912L78.236 80.5876L78.2653 80.783L79.7487 80.56ZM80.1455 83.2L81.6437 83.2734L81.651 83.1245L81.6288 82.977L80.1455 83.2ZM80.0161 85.84L81.5137 85.9255L81.5143 85.9134L80.0161 85.84ZM79.8654 88.48L81.1424 89.267L81.3414 88.9442L81.363 88.5655L79.8654 88.48ZM78.88 90.0788L78.8901 91.5788L79.721 91.5732L80.1569 90.8659L78.88 90.0788ZM76.24 90.0967L76.0384 91.5831L76.1438 91.5973L76.2501 91.5966L76.24 90.0967ZM73.6 89.7386L73.8016 88.2522L73.5665 88.2203L73.333 88.2626L73.6 89.7386ZM70.96 90.2162L70.7163 91.6963L70.972 91.7384L71.227 91.6923L70.96 90.2162ZM68.32 89.7815L68.5637 88.3014L68.4235 88.2783L68.2815 88.282L68.32 89.7815ZM65.68 89.8493L65.6415 88.3498L65.5471 88.3522L65.4538 88.3665L65.68 89.8493ZM63.04 90.2521L63.0347 91.7521L63.1511 91.7525L63.2662 91.7349L63.04 90.2521ZM60.4 90.2427L60.1831 91.7269L60.2884 91.7423L60.3947 91.7427L60.4 90.2427ZM57.76 89.8569L57.9769 88.3727L57.8269 88.3508L57.6757 88.3593L57.76 89.8569ZM55.12 90.0056L55.128 91.5056L55.1662 91.5054L55.2044 91.5033L55.12 90.0056ZM52.48 90.0197L52.4392 91.5192L52.4636 91.5198L52.488 91.5197L52.48 90.0197ZM49.84 89.9478L49.8809 88.4483L49.8714 88.4481L49.84 89.9478ZM47.2 89.8925L47.1494 91.3916L47.159 91.392L47.1686 91.3922L47.2 89.8925ZM44.56 89.8033L44.6107 88.3041L44.4857 88.2999L44.3617 88.3164L44.56 89.8033ZM41.92 90.1553L41.3047 91.5233L41.6945 91.6987L42.1183 91.6422L41.92 90.1553ZM39.9741 89.28L38.479 89.401L38.5505 90.2844L39.3588 90.648L39.9741 89.28ZM39.7605 86.64L38.2703 86.4689L38.2535 86.6147L38.2654 86.761L39.7605 86.64ZM40.0635 84L41.5537 84.1711L41.566 84.0645L41.5629 83.9574L40.0635 84ZM39.9884 81.36L38.4884 81.3628L38.4885 81.3827L38.489 81.4027L39.9884 81.36ZM39.9835 78.72L41.4835 78.7172L41.4835 78.6818L41.4817 78.6464L39.9835 78.72ZM39.8538 76.08L38.3541 76.0507L38.3531 76.1022L38.3556 76.1536L39.8538 76.08ZM39.9053 73.44L38.4056 73.4091L38.4056 73.4107L39.9053 73.44ZM39.9597 70.8L41.4595 70.8309L41.4596 70.8178L39.9597 70.8ZM39.991 68.16L41.4909 68.1778L41.4913 68.1429L41.4901 68.108L39.991 68.16ZM39.8994 65.52L38.4002 65.5691L38.4003 65.572L39.8994 65.52ZM39.813 62.88L38.313 62.87L38.3128 62.8995L38.3138 62.9291L39.813 62.88ZM39.8307 60.24L38.3309 60.2123L38.3308 60.2211L38.3307 60.23L39.8307 60.24ZM39.8795 57.6L38.3894 57.4282L38.3811 57.5L38.3798 57.5723L39.8795 57.6ZM40.1838 54.96L41.674 55.1318L41.6859 55.0281L41.6834 54.9237L40.1838 54.96ZM40.1199 52.32L41.6195 52.2837L41.6181 52.2247L41.612 52.166L40.1199 52.32ZM39.8474 49.68L38.3474 49.6826L38.3476 49.7585L38.3554 49.834L39.8474 49.68ZM39.8429 47.04L38.3467 46.934L38.3429 46.9882L38.3429 47.0426L39.8429 47.04ZM40.0301 44.4L41.5263 44.5061L41.534 44.3968L41.5258 44.2876L40.0301 44.4ZM40 44V45.5H40.1V44V42.5H40V44ZM40.1 44L40.1645 45.4986L42.7045 45.3893L42.64 43.8907L42.5755 42.3921L40.0355 42.5014L40.1 44ZM42.64 43.8907L42.483 45.3824L45.123 45.6603L45.28 44.1686L45.437 42.6768L42.797 42.3989L42.64 43.8907ZM45.28 44.1686L45.425 45.6615L48.065 45.4052L47.92 43.9122L47.775 42.4192L45.135 42.6756L45.28 44.1686ZM47.92 43.9122L47.9804 45.411L50.6204 45.3046L50.56 43.8058L50.4996 42.307L47.8596 42.4134L47.92 43.9122ZM50.56 43.8058L50.4437 45.3013L53.0837 45.5065L53.2 44.0111L53.3163 42.5156L50.6763 42.3103L50.56 43.8058ZM53.2 44.0111L53.1948 45.511L55.8348 45.5202L55.84 44.0202L55.8452 42.5202L53.2052 42.5111L53.2 44.0111ZM55.84 44.0202L55.9474 45.5163L58.5874 45.3268L58.48 43.8306L58.3726 42.3345L55.7326 42.524L55.84 44.0202ZM58.48 43.8306L58.4377 45.33L61.0777 45.4044L61.12 43.905L61.1623 42.4056L58.5223 42.3312L58.48 43.8306ZM61.12 43.905L60.9437 45.3946L63.5837 45.707L63.76 44.2174L63.9363 42.7278L61.2963 42.4154L61.12 43.905ZM63.76 44.2174L64.0032 45.6976L66.6432 45.2638L66.4 43.7836L66.1568 42.3035L63.5168 42.7373L63.76 44.2174ZM66.4 43.7836L66.3207 45.2815L68.9607 45.4213L69.04 43.9234L69.1193 42.4255L66.4793 42.2857L66.4 43.7836ZM69.04 43.9234L69.1379 45.4202L71.7779 45.2476L71.68 43.7507L71.5821 42.2539L68.9421 42.4266L69.04 43.9234ZM71.68 43.7507L71.4983 45.2397L74.1383 45.5619L74.32 44.0729L74.5017 42.584L71.8617 42.2618L71.68 43.7507ZM74.32 44.0729L74.3692 45.5721L77.0092 45.4855L76.96 43.9863L76.9108 42.4871L74.2708 42.5737L74.32 44.0729ZM76.96 43.9863L77.0083 45.4856L79.6483 45.4005L79.6 43.9013L79.5517 42.4021L76.9117 42.4871L76.96 43.9863ZM79.6 43.9013L78.1568 44.3102L78.8195 46.6489L80.2627 46.24L81.7059 45.8311L81.0432 43.4924L79.6 43.9013ZM80.2627 46.24L78.7856 45.9788L78.3187 48.6188L79.7958 48.88L81.2729 49.1412L81.7397 46.5012L80.2627 46.24ZM79.7958 48.88L78.3184 49.1393L78.7818 51.7793L80.2592 51.52L81.7366 51.2607L81.2732 48.6207L79.7958 48.88ZM80.2592 51.52L78.7658 51.3792L78.5169 54.0192L80.0103 54.16L81.5037 54.3008L81.7526 51.6608L80.2592 51.52ZM80.0103 54.16L78.5125 54.2409L78.6551 56.8809L80.1529 56.8L81.6507 56.7191L81.5081 54.0791L80.0103 54.16ZM80.1529 56.8L78.6681 56.5874L78.2901 59.2274L79.775 59.44L81.2598 59.6526L81.6378 57.0126L80.1529 56.8ZM79.775 59.44L78.3002 59.7137L78.7901 62.3537L80.2649 62.08L81.7398 61.8063L81.2498 59.1663L79.775 59.44ZM80.2649 62.08L78.767 62.0018L78.6291 64.6418L80.127 64.72L81.625 64.7982L81.7629 62.1582L80.2649 62.08ZM80.127 64.72L78.6274 64.6878L78.5706 67.3278L80.0703 67.36L81.57 67.3922L81.6267 64.7522L80.127 64.72ZM80.0703 67.36L78.5705 67.3849L78.6144 70.0249L80.1142 70L81.614 69.975L81.5701 67.335L80.0703 67.36ZM80.1142 70L78.6257 69.815L78.2976 72.455L79.7861 72.64L81.2747 72.825L81.6028 70.185L80.1142 70ZM79.7861 72.64L78.2924 72.7765L78.5337 75.4165L80.0274 75.28L81.5212 75.1435L81.2799 72.5035L79.7861 72.64ZM80.0274 75.28L78.5275 75.2915L78.5477 77.9315L80.0476 77.92L81.5476 77.9085L81.5274 75.2685L80.0274 75.28ZM80.0476 77.92L78.5571 77.7512L78.2582 80.3912L79.7487 80.56L81.2392 80.7288L81.5381 78.0888L80.0476 77.92ZM79.7487 80.56L78.2653 80.783L78.6622 83.423L80.1455 83.2L81.6288 82.977L81.232 80.337L79.7487 80.56ZM80.1455 83.2L78.6473 83.1266L78.5179 85.7666L80.0161 85.84L81.5143 85.9134L81.6437 83.2734L80.1455 83.2ZM80.0161 85.84L78.5186 85.7545L78.3679 88.3945L79.8654 88.48L81.363 88.5655L81.5137 85.9255L80.0161 85.84ZM79.8654 88.48L78.5885 87.6929L77.6031 89.2918L78.88 90.0788L80.1569 90.8659L81.1424 89.267L79.8654 88.48ZM78.88 90.0788L78.8699 88.5788L76.2299 88.5967L76.24 90.0967L76.2501 91.5966L78.8901 91.5788L78.88 90.0788ZM76.24 90.0967L76.4416 88.6103L73.8016 88.2522L73.6 89.7386L73.3984 91.225L76.0384 91.5831L76.24 90.0967ZM73.6 89.7386L73.333 88.2626L70.693 88.7402L70.96 90.2162L71.227 91.6923L73.867 91.2147L73.6 89.7386ZM70.96 90.2162L71.2037 88.7362L68.5637 88.3014L68.32 89.7815L68.0763 91.2616L70.7163 91.6963L70.96 90.2162ZM68.32 89.7815L68.2815 88.282L65.6415 88.3498L65.68 89.8493L65.7185 91.3488L68.3585 91.281L68.32 89.7815ZM65.68 89.8493L65.4538 88.3665L62.8138 88.7692L63.04 90.2521L63.2662 91.7349L65.9062 91.3322L65.68 89.8493ZM63.04 90.2521L63.0453 88.7521L60.4053 88.7427L60.4 90.2427L60.3947 91.7427L63.0347 91.7521L63.04 90.2521ZM60.4 90.2427L60.6169 88.7584L57.9769 88.3727L57.76 89.8569L57.5431 91.3412L60.1831 91.7269L60.4 90.2427ZM57.76 89.8569L57.6757 88.3593L55.0357 88.508L55.12 90.0056L55.2044 91.5033L57.8444 91.3546L57.76 89.8569ZM55.12 90.0056L55.112 88.5057L52.472 88.5198L52.48 90.0197L52.488 91.5197L55.128 91.5056L55.12 90.0056ZM52.48 90.0197L52.5209 88.5203L49.8809 88.4484L49.84 89.9478L49.7992 91.4473L52.4392 91.5192L52.48 90.0197ZM49.84 89.9478L49.8714 88.4481L47.2314 88.3928L47.2 89.8925L47.1686 91.3922L49.8086 91.4475L49.84 89.9478ZM47.2 89.8925L47.2507 88.3933L44.6107 88.3041L44.56 89.8033L44.5094 91.3024L47.1494 91.3916L47.2 89.8925ZM44.56 89.8033L44.3617 88.3164L41.7217 88.6685L41.92 90.1553L42.1183 91.6422L44.7583 91.2901L44.56 89.8033ZM41.92 90.1553L42.5354 88.7873L40.5895 87.912L39.9741 89.28L39.3588 90.648L41.3047 91.5233L41.92 90.1553ZM39.9741 89.28L41.4692 89.159L41.2556 86.519L39.7605 86.64L38.2654 86.761L38.479 89.401L39.9741 89.28ZM39.7605 86.64L41.2507 86.8111L41.5537 84.1711L40.0635 84L38.5733 83.8289L38.2703 86.4689L39.7605 86.64ZM40.0635 84L41.5629 83.9574L41.4878 81.3174L39.9884 81.36L38.489 81.4027L38.5641 84.0427L40.0635 84ZM39.9884 81.36L41.4884 81.3572L41.4835 78.7172L39.9835 78.72L38.4835 78.7228L38.4884 81.3628L39.9884 81.36ZM39.9835 78.72L41.4817 78.6464L41.352 76.0064L39.8538 76.08L38.3556 76.1536L38.4853 78.7936L39.9835 78.72ZM39.8538 76.08L41.3535 76.1093L41.405 73.4693L39.9053 73.44L38.4056 73.4107L38.3541 76.0507L39.8538 76.08ZM39.9053 73.44L41.405 73.4709L41.4594 70.8309L39.9597 70.8L38.4601 70.7691L38.4056 73.4091L39.9053 73.44ZM39.9597 70.8L41.4596 70.8178L41.4909 68.1778L39.991 68.16L38.4911 68.1422L38.4598 70.7822L39.9597 70.8ZM39.991 68.16L41.4901 68.108L41.3985 65.468L39.8994 65.52L38.4003 65.572L38.4919 68.212L39.991 68.16ZM39.8994 65.52L41.3986 65.4709L41.3122 62.8309L39.813 62.88L38.3138 62.9291L38.4002 65.5691L39.8994 65.52ZM39.813 62.88L41.313 62.8901L41.3307 60.2501L39.8307 60.24L38.3307 60.23L38.313 62.87L39.813 62.88ZM39.8307 60.24L41.3304 60.2677L41.3793 57.6277L39.8795 57.6L38.3798 57.5723L38.3309 60.2123L39.8307 60.24ZM39.8795 57.6L41.3697 57.7718L41.674 55.1318L40.1838 54.96L38.6937 54.7882L38.3894 57.4282L39.8795 57.6ZM40.1838 54.96L41.6834 54.9237L41.6195 52.2837L40.1199 52.32L38.6204 52.3563L38.6843 54.9963L40.1838 54.96ZM40.1199 52.32L41.612 52.166L41.3395 49.526L39.8474 49.68L38.3554 49.834L38.6279 52.474L40.1199 52.32ZM39.8474 49.68L41.3474 49.6775L41.3429 47.0375L39.8429 47.04L38.3429 47.0426L38.3474 49.6826L39.8474 49.68ZM39.8429 47.04L41.3392 47.1461L41.5263 44.5061L40.0301 44.4L38.5338 44.294L38.3467 46.934L39.8429 47.04ZM40.0301 44.4L41.5258 44.2876L41.4958 43.8876L40 44L38.5042 44.1124L38.5343 44.5124L40.0301 44.4Z" fill="black"/>
<path d="M39.0039 44.0249L38.2495 42.7284L38.5983 42.5254L39.0019 42.5249L39.0039 44.0249ZM39.1039 44.0248L39.1019 42.5248L39.1342 42.5247L39.1665 42.5261L39.1039 44.0248ZM41.644 44.1308L41.803 45.6223L41.6925 45.6341L41.5815 45.6295L41.644 44.1308ZM44.2837 43.8494L44.1247 42.3579L44.2756 42.3418L44.4267 42.3563L44.2837 43.8494ZM46.924 44.1024L46.8656 45.6012L46.8232 45.5996L46.781 45.5955L46.924 44.1024ZM49.5641 44.2053L49.6824 45.7007L49.5941 45.7077L49.5057 45.7042L49.5641 44.2053ZM52.2039 43.9966L52.0856 42.5013L52.1411 42.4969L52.1967 42.4966L52.2039 43.9966ZM54.8439 43.9841L54.8367 42.4841L54.8931 42.4838L54.9493 42.4878L54.8439 43.9841ZM57.4841 44.1702L57.5283 45.6695L57.4534 45.6717L57.3786 45.6665L57.4841 44.1702ZM60.124 44.0923L60.3022 45.5817L60.2354 45.5897L60.1682 45.5917L60.124 44.0923ZM62.7636 43.7765L62.5854 42.2871L62.7958 42.262L63.0049 42.2961L62.7636 43.7765ZM65.4042 44.2069L65.4854 45.7047L65.3232 45.7135L65.1629 45.6873L65.4042 44.2069ZM68.044 44.0636L67.9627 42.5658L68.0513 42.561L68.1399 42.5667L68.044 44.0636ZM70.6842 44.2328L70.8679 45.7216L70.7284 45.7388L70.5883 45.7298L70.6842 44.2328ZM73.3238 43.9072L73.1401 42.4185L73.2552 42.4043L73.371 42.408L73.3238 43.9072ZM75.9639 43.9904L75.9175 45.4897L75.9167 45.4896L75.9639 43.9904ZM78.604 44.072L78.6503 42.5727L78.6727 42.5734L78.695 42.5747L78.604 44.072ZM81.2442 44.2325L81.6682 45.6713L81.4158 45.7457L81.1532 45.7297L81.2442 44.2325ZM83.7528 43.4933L84.7453 44.6179L84.4959 44.838L84.1768 44.9321L83.7528 43.4933ZM85.7125 41.7638L87.155 41.3526L87.4144 42.2625L86.705 42.8885L85.7125 41.7638ZM84.9778 39.1864L85.7574 37.9049L86.2593 38.2102L86.4203 38.7752L84.9778 39.1864ZM82.7322 37.8203L82.5214 36.3352L83.053 36.2597L83.5118 36.5388L82.7322 37.8203ZM80.0839 38.1964L80.2947 39.6815L80.0526 39.7159L79.8121 39.6715L80.0839 38.1964ZM77.4432 37.7098L77.363 36.212L77.5404 36.2025L77.715 36.2347L77.4432 37.7098ZM74.8034 37.8512L74.8836 39.349L74.8606 39.3503L74.8376 39.3508L74.8034 37.8512ZM72.1635 37.9114L72.1977 39.411L72.1691 39.4116L72.1405 39.4112L72.1635 37.9114ZM69.5234 37.8709L69.3365 36.3826L69.4411 36.3694L69.5464 36.3711L69.5234 37.8709ZM66.8839 38.2024L67.0708 39.6907L66.9103 39.7109L66.7493 39.6964L66.8839 38.2024ZM64.2436 37.9646L64.2531 36.4646L64.3157 36.465L64.3781 36.4706L64.2436 37.9646ZM61.6035 37.9478L61.4328 36.4576L61.5226 36.4473L61.613 36.4478L61.6035 37.9478ZM58.9639 38.2502L59.1346 39.7404L58.9383 39.7629L58.7429 39.7338L58.9639 38.2502ZM56.3234 37.8568L56.248 36.3587L56.397 36.3512L56.5444 36.3732L56.3234 37.8568ZM53.6836 37.9896L53.5961 36.4921L53.6082 36.4915L53.6836 37.9896ZM51.0438 38.1437L51.1312 39.6412L51.028 39.6472L50.9249 39.639L51.0438 38.1437ZM48.4035 37.9338L48.4117 36.4338L48.4671 36.4341L48.5224 36.4385L48.4035 37.9338ZM45.7635 37.9194L45.56 36.4333L45.6653 36.4189L45.7717 36.4194L45.7635 37.9194ZM43.1239 38.2809L43.3275 39.767L43.0924 39.7992L42.8588 39.7573L43.1239 38.2809ZM40.4833 37.8067L40.1154 36.3526L40.4295 36.2731L40.7484 36.3303L40.4833 37.8067ZM37.954 38.4467L36.8781 37.4015L37.1741 37.0968L37.586 36.9926L37.954 38.4467ZM36.2818 40.1679L34.7818 40.1612L34.7845 39.5564L35.2059 39.1227L36.2818 40.1679ZM36.27 42.7927L35.482 44.0691L34.7662 43.6272L34.77 42.786L36.27 42.7927ZM38.6239 44.246L39.3783 45.5425L38.6011 45.9947L37.836 45.5223L38.6239 44.246ZM39.0039 44.0249L39.0019 42.5249L39.1019 42.5248L39.1039 44.0248L39.1059 45.5248L39.0059 45.5249L39.0039 44.0249ZM39.1039 44.0248L39.1665 42.5261L41.7066 42.6321L41.644 44.1308L41.5815 45.6295L39.0414 45.5235L39.1039 44.0248ZM41.644 44.1308L41.4851 42.6392L44.1247 42.3579L44.2837 43.8494L44.4427 45.341L41.803 45.6223L41.644 44.1308ZM44.2837 43.8494L44.4267 42.3563L47.0671 42.6092L46.924 44.1024L46.781 45.5955L44.1406 45.3426L44.2837 43.8494ZM46.924 44.1024L46.9825 42.6035L49.6226 42.7065L49.5641 44.2053L49.5057 45.7042L46.8656 45.6012L46.924 44.1024ZM49.5641 44.2053L49.4459 42.71L52.0856 42.5013L52.2039 43.9966L52.3221 45.492L49.6824 45.7007L49.5641 44.2053ZM52.2039 43.9966L52.1967 42.4966L54.8367 42.4841L54.8439 43.9841L54.851 45.484L52.211 45.4966L52.2039 43.9966ZM54.8439 43.9841L54.9493 42.4878L57.5896 42.6739L57.4841 44.1702L57.3786 45.6665L54.7384 45.4804L54.8439 43.9841ZM57.4841 44.1702L57.4399 42.6708L60.0798 42.593L60.124 44.0923L60.1682 45.5917L57.5283 45.6695L57.4841 44.1702ZM60.124 44.0923L59.9458 42.6029L62.5854 42.2871L62.7636 43.7765L62.9418 45.2659L60.3022 45.5817L60.124 44.0923ZM62.7636 43.7765L63.0049 42.2961L65.6454 42.7264L65.4042 44.2069L65.1629 45.6873L62.5223 45.257L62.7636 43.7765ZM65.4042 44.2069L65.3229 42.7091L67.9627 42.5658L68.044 44.0636L68.1252 45.5614L65.4854 45.7047L65.4042 44.2069ZM68.044 44.0636L68.1399 42.5667L70.7801 42.7359L70.6842 44.2328L70.5883 45.7298L67.948 45.5606L68.044 44.0636ZM70.6842 44.2328L70.5005 42.7441L73.1401 42.4185L73.3238 43.9072L73.5074 45.3959L70.8679 45.7216L70.6842 44.2328ZM73.3238 43.9072L73.371 42.408L76.0111 42.4911L75.9639 43.9904L75.9167 45.4896L73.2766 45.4065L73.3238 43.9072ZM75.9639 43.9904L76.0102 42.4911L78.6503 42.5727L78.604 44.072L78.5577 45.5713L75.9175 45.4897L75.9639 43.9904ZM78.604 44.072L78.695 42.5747L81.3352 42.7353L81.2442 44.2325L81.1532 45.7297L78.513 45.5692L78.604 44.072ZM81.2442 44.2325L80.8202 42.7937L83.3288 42.0544L83.7528 43.4933L84.1768 44.9321L81.6682 45.6713L81.2442 44.2325ZM83.7528 43.4933L82.7603 42.3686L84.7199 40.6391L85.7125 41.7638L86.705 42.8885L84.7453 44.6179L83.7528 43.4933ZM85.7125 41.7638L84.2699 42.175L83.5352 39.5975L84.9778 39.1864L86.4203 38.7752L87.155 41.3526L85.7125 41.7638ZM84.9778 39.1864L84.1982 40.4679L81.9527 39.1018L82.7322 37.8203L83.5118 36.5388L85.7574 37.9049L84.9778 39.1864ZM82.7322 37.8203L82.9431 39.3054L80.2947 39.6815L80.0839 38.1964L79.873 36.7113L82.5214 36.3352L82.7322 37.8203ZM80.0839 38.1964L79.8121 39.6715L77.1714 39.185L77.4432 37.7098L77.715 36.2347L80.3557 36.7212L80.0839 38.1964ZM77.4432 37.7098L77.5234 39.2077L74.8836 39.349L74.8034 37.8512L74.7232 36.3533L77.363 36.212L77.4432 37.7098ZM74.8034 37.8512L74.8376 39.3508L72.1977 39.411L72.1635 37.9114L72.1293 36.4117L74.7692 36.3516L74.8034 37.8512ZM72.1635 37.9114L72.1405 39.4112L69.5004 39.3707L69.5234 37.8709L69.5464 36.3711L72.1865 36.4115L72.1635 37.9114ZM69.5234 37.8709L69.7104 39.3592L67.0708 39.6907L66.8839 38.2024L66.6969 36.7141L69.3365 36.3826L69.5234 37.8709ZM66.8839 38.2024L66.7493 39.6964L64.109 39.4585L64.2436 37.9646L64.3781 36.4706L67.0184 36.7085L66.8839 38.2024ZM64.2436 37.9646L64.234 39.4645L61.594 39.4478L61.6035 37.9478L61.613 36.4478L64.2531 36.4646L64.2436 37.9646ZM61.6035 37.9478L61.7742 39.4381L59.1346 39.7404L58.9639 38.2502L58.7932 36.7599L61.4328 36.4576L61.6035 37.9478ZM58.9639 38.2502L58.7429 39.7338L56.1024 39.3404L56.3234 37.8568L56.5444 36.3732L59.185 36.7666L58.9639 38.2502ZM56.3234 37.8568L56.3988 39.3549L53.759 39.4877L53.6836 37.9896L53.6082 36.4915L56.248 36.3587L56.3234 37.8568ZM53.6836 37.9896L53.771 39.4871L51.1312 39.6412L51.0438 38.1437L50.9564 36.6463L53.5962 36.4922L53.6836 37.9896ZM51.0438 38.1437L50.9249 39.639L48.2846 39.4291L48.4035 37.9338L48.5224 36.4385L51.1627 36.6485L51.0438 38.1437ZM48.4035 37.9338L48.3953 39.4338L45.7553 39.4194L45.7635 37.9194L45.7717 36.4194L48.4117 36.4338L48.4035 37.9338ZM45.7635 37.9194L45.967 39.4055L43.3275 39.767L43.1239 38.2809L42.9204 36.7948L45.56 36.4333L45.7635 37.9194ZM43.1239 38.2809L42.8588 39.7573L40.2182 39.2831L40.4833 37.8067L40.7484 36.3303L43.3891 36.8045L43.1239 38.2809ZM40.4833 37.8067L40.8513 39.2609L38.3219 39.9009L37.954 38.4467L37.586 36.9926L40.1154 36.3526L40.4833 37.8067ZM37.954 38.4467L39.0298 39.492L37.3576 41.2131L36.2818 40.1679L35.2059 39.1227L36.8781 37.4015L37.954 38.4467ZM36.2818 40.1679L37.7818 40.1747L37.7699 42.7995L36.27 42.7927L34.77 42.786L34.7818 40.1612L36.2818 40.1679ZM36.27 42.7927L37.0579 41.5164L39.4119 42.9696L38.6239 44.246L37.836 45.5223L35.482 44.0691L36.27 42.7927ZM38.6239 44.246L37.8695 42.9495L38.2495 42.7284L39.0039 44.0249L39.7583 45.3214L39.3783 45.5425L38.6239 44.246Z" fill="black"/>
<path d="M39.0039 96.0605L38.2495 94.7641L38.5983 94.5611L39.0019 94.5605L39.0039 96.0605ZM39.1039 96.0604L39.1019 94.5604L39.1342 94.5604L39.1665 94.5617L39.1039 96.0604ZM41.644 96.1664L41.803 97.658L41.6925 97.6698L41.5815 97.6651L41.644 96.1664ZM44.2837 95.8851L44.1247 94.3935L44.2756 94.3774L44.4267 94.3919L44.2837 95.8851ZM46.924 96.138L46.8656 97.6369L46.8232 97.6352L46.781 97.6312L46.924 96.138ZM49.5641 96.241L49.6824 97.7363L49.5941 97.7433L49.5057 97.7398L49.5641 96.241ZM52.2039 96.0323L52.0856 94.5369L52.1411 94.5326L52.1967 94.5323L52.2039 96.0323ZM54.8439 96.0197L54.8367 94.5197L54.8931 94.5195L54.9493 94.5234L54.8439 96.0197ZM57.4841 96.2058L57.5283 97.7052L57.4534 97.7074L57.3786 97.7021L57.4841 96.2058ZM60.124 96.128L60.3022 97.6174L60.2354 97.6253L60.1682 97.6273L60.124 96.128ZM62.7636 95.8122L62.5854 94.3228L62.7958 94.2976L63.0049 94.3317L62.7636 95.8122ZM65.4042 96.2425L65.4854 97.7403L65.3232 97.7491L65.1629 97.723L65.4042 96.2425ZM68.044 96.0993L67.9627 94.6015L68.0513 94.5967L68.1399 94.6024L68.044 96.0993ZM70.6842 96.2685L70.8679 97.7572L70.7284 97.7744L70.5883 97.7654L70.6842 96.2685ZM73.3238 95.9429L73.1401 94.4542L73.2552 94.44L73.371 94.4436L73.3238 95.9429ZM75.9639 96.026L75.9175 97.5253L75.9167 97.5253L75.9639 96.026ZM78.604 96.1076L78.6503 94.6083L78.6727 94.609L78.695 94.6104L78.604 96.1076ZM81.2442 96.2681L81.6682 97.707L81.4158 97.7813L81.1532 97.7654L81.2442 96.2681ZM83.7528 95.5289L84.7453 96.6536L84.4959 96.8737L84.1768 96.9677L83.7528 95.5289ZM85.7125 93.7995L87.155 93.3883L87.4144 94.2981L86.705 94.9241L85.7125 93.7995ZM84.9778 91.222L85.7574 89.9405L86.2593 90.2458L86.4203 90.8108L84.9778 91.222ZM82.7322 89.856L82.5214 88.3709L83.053 88.2954L83.5118 88.5745L82.7322 89.856ZM80.0839 90.232L80.2947 91.7171L80.0526 91.7515L79.8121 91.7072L80.0839 90.232ZM77.4432 89.7455L77.363 88.2476L77.5404 88.2381L77.715 88.2703L77.4432 89.7455ZM74.8034 89.8868L74.8836 91.3847L74.8606 91.3859L74.8376 91.3864L74.8034 89.8868ZM72.1635 89.947L72.1977 91.4466L72.1691 91.4473L72.1405 91.4468L72.1635 89.947ZM69.5234 89.9065L69.3365 88.4182L69.4411 88.4051L69.5464 88.4067L69.5234 89.9065ZM66.8839 90.2381L67.0708 91.7264L66.9103 91.7465L66.7493 91.732L66.8839 90.2381ZM64.2436 90.0002L64.2531 88.5002L64.3157 88.5006L64.3781 88.5062L64.2436 90.0002ZM61.6035 89.9835L61.4328 88.4932L61.5226 88.4829L61.613 88.4835L61.6035 89.9835ZM58.9639 90.2858L59.1346 91.7761L58.9383 91.7986L58.7429 91.7695L58.9639 90.2858ZM56.3234 89.8924L56.248 88.3943L56.397 88.3868L56.5444 88.4088L56.3234 89.8924ZM53.6836 90.0253L53.5961 88.5278L53.6082 88.5272L53.6836 90.0253ZM51.0438 90.1794L51.1312 91.6768L51.028 91.6829L50.9249 91.6747L51.0438 90.1794ZM48.4035 89.9695L48.4117 88.4695L48.4671 88.4698L48.5224 88.4742L48.4035 89.9695ZM45.7635 89.9551L45.56 88.4689L45.6653 88.4545L45.7717 88.4551L45.7635 89.9551ZM43.1239 90.3165L43.3275 91.8027L43.0924 91.8349L42.8588 91.7929L43.1239 90.3165ZM40.4833 89.8424L40.1154 88.3882L40.4295 88.3087L40.7484 88.366L40.4833 89.8424ZM37.954 90.4824L36.8781 89.4371L37.1741 89.1324L37.586 89.0282L37.954 90.4824ZM36.2818 92.2035L34.7818 92.1968L34.7845 91.5921L35.2059 91.1583L36.2818 92.2035ZM36.27 94.8283L35.482 96.1047L34.7662 95.6628L34.77 94.8216L36.27 94.8283ZM38.6239 96.2816L39.3783 97.5781L38.6011 98.0304L37.836 97.558L38.6239 96.2816ZM39.0039 96.0605L39.0019 94.5605L39.1019 94.5604L39.1039 96.0604L39.1059 97.5604L39.0059 97.5605L39.0039 96.0605ZM39.1039 96.0604L39.1665 94.5617L41.7066 94.6677L41.644 96.1664L41.5815 97.6651L39.0414 97.5591L39.1039 96.0604ZM41.644 96.1664L41.4851 94.6749L44.1247 94.3935L44.2837 95.8851L44.4427 97.3766L41.803 97.658L41.644 96.1664ZM44.2837 95.8851L44.4267 94.3919L47.0671 94.6449L46.924 96.138L46.781 97.6312L44.1406 97.3783L44.2837 95.8851ZM46.924 96.138L46.9825 94.6392L49.6226 94.7421L49.5641 96.241L49.5057 97.7398L46.8656 97.6369L46.924 96.138ZM49.5641 96.241L49.4459 94.7457L52.0856 94.5369L52.2039 96.0323L52.3221 97.5276L49.6824 97.7363L49.5641 96.241ZM52.2039 96.0323L52.1967 94.5323L54.8367 94.5197L54.8439 96.0197L54.851 97.5197L52.211 97.5323L52.2039 96.0323ZM54.8439 96.0197L54.9493 94.5234L57.5896 94.7095L57.4841 96.2058L57.3786 97.7021L54.7384 97.516L54.8439 96.0197ZM57.4841 96.2058L57.4399 94.7065L60.0798 94.6286L60.124 96.128L60.1682 97.6273L57.5283 97.7052L57.4841 96.2058ZM60.124 96.128L59.9458 94.6386L62.5854 94.3228L62.7636 95.8122L62.9418 97.3015L60.3022 97.6174L60.124 96.128ZM62.7636 95.8122L63.0049 94.3317L65.6454 94.762L65.4042 96.2425L65.1629 97.723L62.5223 97.2926L62.7636 95.8122ZM65.4042 96.2425L65.3229 94.7447L67.9627 94.6015L68.044 96.0993L68.1252 97.5971L65.4854 97.7403L65.4042 96.2425ZM68.044 96.0993L68.1399 94.6024L70.7801 94.7716L70.6842 96.2685L70.5883 97.7654L67.948 97.5962L68.044 96.0993ZM70.6842 96.2685L70.5005 94.7798L73.1401 94.4542L73.3238 95.9429L73.5074 97.4316L70.8679 97.7572L70.6842 96.2685ZM73.3238 95.9429L73.371 94.4436L76.0111 94.5268L75.9639 96.026L75.9167 97.5253L73.2766 97.4421L73.3238 95.9429ZM75.9639 96.026L76.0102 94.5267L78.6503 94.6083L78.604 96.1076L78.5577 97.6069L75.9175 97.5253L75.9639 96.026ZM78.604 96.1076L78.695 94.6104L81.3352 94.7709L81.2442 96.2681L81.1532 97.7654L78.513 97.6049L78.604 96.1076ZM81.2442 96.2681L80.8202 94.8293L83.3288 94.0901L83.7528 95.5289L84.1768 96.9677L81.6682 97.707L81.2442 96.2681ZM83.7528 95.5289L82.7603 94.4042L84.7199 92.6748L85.7125 93.7995L86.705 94.9241L84.7453 96.6536L83.7528 95.5289ZM85.7125 93.7995L84.2699 94.2106L83.5352 91.6332L84.9778 91.222L86.4203 90.8108L87.155 93.3883L85.7125 93.7995ZM84.9778 91.222L84.1982 92.5035L81.9527 91.1375L82.7322 89.856L83.5118 88.5745L85.7574 89.9405L84.9778 91.222ZM82.7322 89.856L82.9431 91.3411L80.2947 91.7171L80.0839 90.232L79.873 88.7469L82.5214 88.3709L82.7322 89.856ZM80.0839 90.232L79.8121 91.7072L77.1714 91.2206L77.4432 89.7455L77.715 88.2703L80.3557 88.7568L80.0839 90.232ZM77.4432 89.7455L77.5234 91.2433L74.8836 91.3847L74.8034 89.8868L74.7232 88.389L77.363 88.2476L77.4432 89.7455ZM74.8034 89.8868L74.8376 91.3864L72.1977 91.4466L72.1635 89.947L72.1293 88.4474L74.7692 88.3872L74.8034 89.8868ZM72.1635 89.947L72.1405 91.4468L69.5004 91.4064L69.5234 89.9065L69.5464 88.4067L72.1865 88.4472L72.1635 89.947ZM69.5234 89.9065L69.7104 91.3948L67.0708 91.7264L66.8839 90.2381L66.6969 88.7497L69.3365 88.4182L69.5234 89.9065ZM66.8839 90.2381L66.7493 91.732L64.109 91.4941L64.2436 90.0002L64.3781 88.5062L67.0184 88.7441L66.8839 90.2381ZM64.2436 90.0002L64.234 91.5002L61.594 91.4834L61.6035 89.9835L61.613 88.4835L64.2531 88.5002L64.2436 90.0002ZM61.6035 89.9835L61.7742 91.4737L59.1346 91.7761L58.9639 90.2858L58.7932 88.7956L61.4328 88.4932L61.6035 89.9835ZM58.9639 90.2858L58.7429 91.7695L56.1024 91.3761L56.3234 89.8924L56.5444 88.4088L59.185 88.8022L58.9639 90.2858ZM56.3234 89.8924L56.3988 91.3906L53.759 91.5234L53.6836 90.0253L53.6082 88.5272L56.248 88.3943L56.3234 89.8924ZM53.6836 90.0253L53.771 91.5227L51.1312 91.6768L51.0438 90.1794L50.9564 88.6819L53.5962 88.5278L53.6836 90.0253ZM51.0438 90.1794L50.9249 91.6747L48.2846 91.4647L48.4035 89.9695L48.5224 88.4742L51.1627 88.6841L51.0438 90.1794ZM48.4035 89.9695L48.3953 91.4694L45.7553 91.455L45.7635 89.9551L45.7717 88.4551L48.4117 88.4695L48.4035 89.9695ZM45.7635 89.9551L45.967 91.4412L43.3275 91.8027L43.1239 90.3165L42.9204 88.8304L45.56 88.4689L45.7635 89.9551ZM43.1239 90.3165L42.8588 91.7929L40.2182 91.3188L40.4833 89.8424L40.7484 88.366L43.3891 88.8402L43.1239 90.3165ZM40.4833 89.8424L40.8513 91.2965L38.3219 91.9366L37.954 90.4824L37.586 89.0282L40.1154 88.3882L40.4833 89.8424ZM37.954 90.4824L39.0298 91.5276L37.3576 93.2488L36.2818 92.2035L35.2059 91.1583L36.8781 89.4371L37.954 90.4824ZM36.2818 92.2035L37.7818 92.2103L37.7699 94.8351L36.27 94.8283L34.77 94.8216L34.7818 92.1968L36.2818 92.2035ZM36.27 94.8283L37.0579 93.552L39.4119 95.0053L38.6239 96.2816L37.836 97.558L35.482 96.1047L36.27 94.8283ZM38.6239 96.2816L37.8695 94.9852L38.2495 94.7641L39.0039 96.0605L39.7583 97.357L39.3783 97.5781L38.6239 96.2816Z" fill="black"/>
<path d="M80 38C80 32.6957 77.8929 27.6086 74.1421 23.8579C70.3914 20.1071 65.3043 18 60 18C54.6957 18 49.6086 20.1071 45.8579 23.8579C42.1071 27.6086 40 32.6957 40 38L60 38H80Z" stroke="black" stroke-width="3"/>
<path d="M40 96C40 98.1217 42.1071 100.157 45.8579 101.657C49.6086 103.157 54.6957 104 60 104C65.3043 104 70.3914 103.157 74.1421 101.657C77.8929 100.157 80 98.1217 80 96L60 96L40 96Z" stroke="black" stroke-width="3"/>
<path d="M65 13V11.5H64.7186L64.4564 11.602L65 13ZM64.9068 13.0362L64.3632 11.6382L63.5919 11.9381L63.4343 12.7505L64.9068 13.0362ZM64.4142 15.5745L65.3525 16.7448L65.7819 16.4005L65.8868 15.8602L64.4142 15.5745ZM62.3792 17.206L62.8877 18.6172L63.1226 18.5325L63.3175 18.3763L62.3792 17.206ZM59.9329 18.0874L59.5783 19.5449L60.0168 19.6515L60.4413 19.4986L59.9329 18.0874ZM57.324 17.4527L56.1684 18.409L56.4858 18.7925L56.9694 18.9102L57.324 17.4527ZM55.625 15.3996L54.1659 15.7474L54.2468 16.087L54.4694 16.356L55.625 15.3996ZM55.0219 12.8687L53.5584 12.5398L53.4822 12.8786L53.5627 13.2165L55.0219 12.8687ZM55.604 10.2788L54.6084 9.15692L54.2466 9.47798L54.1405 9.9499L55.604 10.2788ZM57.6082 8.50024L57.4468 7.00894L56.9707 7.06044L56.6125 7.37832L57.6082 8.50024ZM60.1889 8.22106L60.4043 6.73661L60.2164 6.70934L60.0276 6.72976L60.1889 8.22106ZM62.804 8.60058L63.9615 7.64653L63.5929 7.19936L63.0194 7.11613L62.804 8.60058ZM64.5145 10.6759L65.9447 10.2237L65.857 9.94631L65.672 9.7218L64.5145 10.6759ZM65.2493 13V14.5H67.2966L66.6795 12.5479L65.2493 13ZM65 13L64.4564 11.602L64.3632 11.6382L64.9068 13.0362L65.4504 14.4343L65.5436 14.398L65 13ZM64.9068 13.0362L63.4343 12.7505L62.9417 15.2887L64.4142 15.5745L65.8868 15.8602L66.3793 13.322L64.9068 13.0362ZM64.4142 15.5745L63.476 14.4042L61.441 16.0357L62.3792 17.206L63.3175 18.3763L65.3525 16.7448L64.4142 15.5745ZM62.3792 17.206L61.8708 15.7948L59.4244 16.6762L59.9329 18.0874L60.4413 19.4986L62.8877 18.6172L62.3792 17.206ZM59.9329 18.0874L60.2874 16.6299L57.6786 15.9952L57.324 17.4527L56.9694 18.9102L59.5783 19.5449L59.9329 18.0874ZM57.324 17.4527L58.4796 16.4964L56.7806 14.4433L55.625 15.3996L54.4694 16.356L56.1684 18.409L57.324 17.4527ZM55.625 15.3996L57.0841 15.0519L56.481 12.521L55.0219 12.8687L53.5627 13.2165L54.1659 15.7474L55.625 15.3996ZM55.0219 12.8687L56.4854 13.1977L57.0675 10.6078L55.604 10.2788L54.1405 9.9499L53.5584 12.5398L55.0219 12.8687ZM55.604 10.2788L56.5996 11.4007L58.6038 9.62215L57.6082 8.50024L56.6125 7.37832L54.6084 9.15692L55.604 10.2788ZM57.6082 8.50024L57.7695 9.99154L60.3502 9.71236L60.1889 8.22106L60.0276 6.72976L57.4468 7.00894L57.6082 8.50024ZM60.1889 8.22106L59.9735 9.70551L62.5886 10.085L62.804 8.60058L63.0194 7.11613L60.4043 6.73661L60.1889 8.22106ZM62.804 8.60058L61.6465 9.55463L63.357 11.6299L64.5145 10.6759L65.672 9.7218L63.9615 7.64653L62.804 8.60058ZM64.5145 10.6759L63.0843 11.128L63.819 13.4521L65.2493 13L66.6795 12.5479L65.9447 10.2237L64.5145 10.6759ZM65.2493 13V11.5H65V13V14.5H65.2493V13Z" fill="black"/>
<path d="M49.1 104V105.5H49.1323L49.1645 105.499L49.1 104ZM51.64 103.891L51.797 102.399L51.6865 102.387L51.5755 102.392L51.64 103.891ZM54.28 104.169L54.123 105.66L54.2739 105.676L54.425 105.662L54.28 104.169ZM56.92 103.912L56.8596 102.413L56.8172 102.415L56.775 102.419L56.92 103.912ZM59.56 103.806L59.6763 102.31L59.588 102.303L59.4996 102.307L59.56 103.806ZM62.2 104.011L62.0837 105.507L62.1392 105.511L62.1948 105.511L62.2 104.011ZM64.84 104.02L64.8348 105.52L64.8912 105.52L64.9474 105.516L64.84 104.02ZM67.48 103.831L67.5223 102.331L67.4473 102.329L67.3726 102.334L67.48 103.831ZM70.12 103.905L70.806 102.571L70.5029 102.415L70.1623 102.406L70.12 103.905ZM71.7826 104.76L73.2627 104.517L73.1403 103.771L72.4686 103.426L71.7826 104.76ZM72.2164 107.4L73.7143 107.479L73.7229 107.317L73.6965 107.157L72.2164 107.4ZM72.0766 110.04L70.5787 109.961L70.574 110.049L70.5798 110.138L72.0766 110.04ZM72.2493 112.68L73.7382 112.862L73.7552 112.722L73.7461 112.582L72.2493 112.68ZM71.9271 115.32L72.4446 116.728L73.305 116.412L73.416 115.502L71.9271 115.32ZM70.04 116.014L70.0883 117.513L70.3303 117.505L70.5575 117.422L70.04 116.014ZM67.4 116.099L67.3517 114.599L67.3293 114.6L67.307 114.602L67.4 116.099ZM64.76 116.263L64.4988 117.74L64.6747 117.771L64.853 117.76L64.76 116.263ZM62.12 115.796L62.3812 114.319L62.121 114.273L61.8607 114.318L62.12 115.796ZM59.48 116.259L59.3392 117.753L59.5404 117.772L59.7394 117.737L59.48 116.259ZM56.84 116.01L56.9808 114.517L56.8701 114.507L56.7591 114.513L56.84 116.01ZM54.2 116.153L53.9874 117.638L54.1335 117.659L54.2809 117.651L54.2 116.153ZM51.56 115.775L51.7726 114.29L51.6285 114.269L51.4831 114.277L51.56 115.775ZM48.7351 115.92L47.2371 115.842L47.1503 117.503L48.812 117.418L48.7351 115.92ZM48.873 113.28L50.3709 113.358L50.3721 113.335L50.3726 113.312L48.873 113.28ZM48.9297 110.64L50.4294 110.672L50.43 110.644L50.4295 110.615L48.9297 110.64ZM48.8858 108L47.3972 107.815L47.3842 107.92L47.386 108.025L48.8858 108ZM49.2139 105.36L50.7024 105.545L50.7303 105.321L50.6908 105.098L49.2139 105.36ZM48.9726 104V102.5H47.183L47.4956 104.262L48.9726 104ZM49 104V105.5H49.1V104V102.5H49V104ZM49.1 104L49.1645 105.499L51.7045 105.389L51.64 103.891L51.5755 102.392L49.0355 102.501L49.1 104ZM51.64 103.891L51.483 105.382L54.123 105.66L54.28 104.169L54.437 102.677L51.797 102.399L51.64 103.891ZM54.28 104.169L54.425 105.662L57.065 105.405L56.92 103.912L56.775 102.419L54.135 102.676L54.28 104.169ZM56.92 103.912L56.9804 105.411L59.6204 105.305L59.56 103.806L59.4996 102.307L56.8596 102.413L56.92 103.912ZM59.56 103.806L59.4437 105.301L62.0837 105.507L62.2 104.011L62.3163 102.516L59.6763 102.31L59.56 103.806ZM62.2 104.011L62.1948 105.511L64.8348 105.52L64.84 104.02L64.8452 102.52L62.2052 102.511L62.2 104.011ZM64.84 104.02L64.9474 105.516L67.5874 105.327L67.48 103.831L67.3726 102.334L64.7326 102.524L64.84 104.02ZM67.48 103.831L67.4377 105.33L70.0777 105.404L70.12 103.905L70.1623 102.406L67.5223 102.331L67.48 103.831ZM70.12 103.905L69.434 105.239L71.0966 106.094L71.7826 104.76L72.4686 103.426L70.806 102.571L70.12 103.905ZM71.7826 104.76L70.3024 105.003L70.7362 107.643L72.2164 107.4L73.6965 107.157L73.2627 104.517L71.7826 104.76ZM72.2164 107.4L70.7185 107.321L70.5787 109.961L72.0766 110.04L73.5745 110.119L73.7143 107.479L72.2164 107.4ZM72.0766 110.04L70.5798 110.138L70.7524 112.778L72.2493 112.68L73.7461 112.582L73.5734 109.942L72.0766 110.04ZM72.2493 112.68L70.7603 112.498L70.4381 115.138L71.9271 115.32L73.416 115.502L73.7382 112.862L72.2493 112.68ZM71.9271 115.32L71.4095 113.912L69.5225 114.606L70.04 116.014L70.5575 117.422L72.4446 116.728L71.9271 115.32ZM70.04 116.014L69.9917 114.514L67.3517 114.599L67.4 116.099L67.4483 117.598L70.0883 117.513L70.04 116.014ZM67.4 116.099L67.307 114.602L64.667 114.766L64.76 116.263L64.853 117.76L67.493 117.596L67.4 116.099ZM64.76 116.263L65.0212 114.786L62.3812 114.319L62.12 115.796L61.8588 117.273L64.4988 117.74L64.76 116.263ZM62.12 115.796L61.8607 114.318L59.2207 114.782L59.48 116.259L59.7394 117.737L62.3794 117.273L62.12 115.796ZM59.48 116.259L59.6208 114.766L56.9808 114.517L56.84 116.01L56.6992 117.504L59.3392 117.753L59.48 116.259ZM56.84 116.01L56.7591 114.513L54.1191 114.655L54.2 116.153L54.2809 117.651L56.9209 117.508L56.84 116.01ZM54.2 116.153L54.4126 114.668L51.7726 114.29L51.56 115.775L51.3474 117.26L53.9874 117.638L54.2 116.153ZM51.56 115.775L51.4831 114.277L48.6581 114.422L48.7351 115.92L48.812 117.418L51.6369 117.273L51.56 115.775ZM48.7351 115.92L50.233 115.998L50.3709 113.358L48.873 113.28L47.375 113.202L47.2371 115.842L48.7351 115.92ZM48.873 113.28L50.3726 113.312L50.4294 110.672L48.9297 110.64L47.43 110.608L47.3733 113.248L48.873 113.28ZM48.9297 110.64L50.4295 110.615L50.3856 107.975L48.8858 108L47.386 108.025L47.4299 110.665L48.9297 110.64ZM48.8858 108L50.3743 108.185L50.7024 105.545L49.2139 105.36L47.7253 105.175L47.3972 107.815L48.8858 108ZM49.2139 105.36L50.6908 105.098L50.4495 103.738L48.9726 104L47.4956 104.262L47.7369 105.622L49.2139 105.36ZM48.9726 104V105.5H49V104V102.5H48.9726V104Z" fill="black"/>
<path d="M65 62H66.5V61.4229L66.1132 60.9946L65 62ZM65 62.1H63.5V62.1323L63.5014 62.1645L65 62.1ZM65.1093 64.64L66.6011 64.797L66.6127 64.6865L66.6079 64.5755L65.1093 64.64ZM64.8314 67.28L63.3397 67.123L63.3238 67.2739L63.3385 67.425L64.8314 67.28ZM65.0878 69.92L66.5866 69.8596L66.5849 69.8172L66.5808 69.775L65.0878 69.92ZM65.1942 72.56L66.6897 72.6763L66.6966 72.588L66.693 72.4996L65.1942 72.56ZM64.9889 75.2L66.3487 75.8333L66.4634 75.5871L66.4844 75.3163L64.9889 75.2ZM64.16 76.9798L64.2674 78.476L65.1473 78.4128L65.5198 77.6131L64.16 76.9798ZM61.52 77.1694L61.4777 78.6688L61.5527 78.6709L61.6274 78.6655L61.52 77.1694ZM58.88 77.095L58.7037 78.5846L58.7705 78.5925L58.8377 78.5944L58.88 77.095ZM56.24 76.7826L55.2945 77.9471L55.632 78.2211L56.0638 78.2722L56.24 76.7826ZM54.7836 75.6L53.2857 75.5207L53.2453 76.2832L53.8381 76.7645L54.7836 75.6ZM54.9234 72.96L56.4213 73.0393L56.426 72.9507L56.4202 72.8621L54.9234 72.96ZM54.7507 70.32L53.2618 70.1383L53.2448 70.2777L53.2539 70.4179L54.7507 70.32ZM55.0729 67.68L56.5619 67.8617L56.5759 67.7467L56.5721 67.6308L55.0729 67.68ZM54.9863 65.04L53.4871 65.0883L53.4871 65.0892L54.9863 65.04ZM54.9013 62.4L53.4142 62.2034L53.3981 62.3253L53.4021 62.4483L54.9013 62.4ZM55.2556 59.7199L54.3026 58.5616L53.8461 58.9372L53.7686 59.5233L55.2556 59.7199ZM57.3125 58.0274L56.5939 56.7107L56.4692 56.7788L56.3594 56.8691L57.3125 58.0274ZM59.6486 56.7524L60.072 55.3134L59.4756 55.1379L58.9299 55.4357L59.6486 56.7524ZM62.2299 57.512L63.1654 56.3395L62.9355 56.1561L62.6533 56.073L62.2299 57.512ZM64.3058 59.1684L65.7822 58.9033L65.6825 58.3478L65.2414 57.9959L64.3058 59.1684ZM64.7682 61.7433L63.2918 62.0084L63.3676 62.4305L63.655 62.7487L64.7682 61.7433ZM65 62H63.5V62.1H65H66.5V62H65ZM65 62.1L63.5014 62.1645L63.6107 64.7045L65.1093 64.64L66.6079 64.5755L66.4986 62.0355L65 62.1ZM65.1093 64.64L63.6176 64.483L63.3397 67.123L64.8314 67.28L66.3232 67.437L66.6011 64.797L65.1093 64.64ZM64.8314 67.28L63.3385 67.425L63.5948 70.065L65.0878 69.92L66.5808 69.775L66.3244 67.135L64.8314 67.28ZM65.0878 69.92L63.589 69.9804L63.6954 72.6204L65.1942 72.56L66.693 72.4996L66.5866 69.8596L65.0878 69.92ZM65.1942 72.56L63.6987 72.4437L63.4935 75.0837L64.9889 75.2L66.4844 75.3163L66.6897 72.6763L65.1942 72.56ZM64.9889 75.2L63.6292 74.5667L62.8002 76.3465L64.16 76.9798L65.5198 77.6131L66.3487 75.8333L64.9889 75.2ZM64.16 76.9798L64.0526 75.4837L61.4126 75.6732L61.52 77.1694L61.6274 78.6655L64.2674 78.476L64.16 76.9798ZM61.52 77.1694L61.5623 75.67L58.9223 75.5956L58.88 77.095L58.8377 78.5944L61.4777 78.6688L61.52 77.1694ZM58.88 77.095L59.0563 75.6054L56.4163 75.293L56.24 76.7826L56.0638 78.2722L58.7037 78.5846L58.88 77.095ZM56.24 76.7826L57.1855 75.6181L55.7292 74.4355L54.7836 75.6L53.8381 76.7645L55.2945 77.9471L56.24 76.7826ZM54.7836 75.6L56.2815 75.6793L56.4213 73.0393L54.9234 72.96L53.4255 72.8807L53.2857 75.5207L54.7836 75.6ZM54.9234 72.96L56.4202 72.8621L56.2476 70.2221L54.7507 70.32L53.2539 70.4179L53.4266 73.0579L54.9234 72.96ZM54.7507 70.32L56.2397 70.5017L56.5619 67.8617L55.0729 67.68L53.584 67.4983L53.2618 70.1383L54.7507 70.32ZM55.0729 67.68L56.5721 67.6308L56.4855 64.9908L54.9863 65.04L53.4871 65.0892L53.5737 67.7292L55.0729 67.68ZM54.9863 65.04L56.4856 64.9917L56.4005 62.3517L54.9013 62.4L53.4021 62.4483L53.4871 65.0883L54.9863 65.04ZM54.9013 62.4L56.3883 62.5966L56.7427 59.9165L55.2556 59.7199L53.7686 59.5233L53.4142 62.2034L54.9013 62.4ZM55.2556 59.7199L56.2087 60.8782L58.2656 59.1857L57.3125 58.0274L56.3594 56.8691L54.3026 58.5616L55.2556 59.7199ZM57.3125 58.0274L58.0312 59.344L60.3672 58.069L59.6486 56.7524L58.9299 55.4357L56.5939 56.7107L57.3125 58.0274ZM59.6486 56.7524L59.2251 58.1913L61.8064 58.951L62.2299 57.512L62.6533 56.073L60.072 55.3134L59.6486 56.7524ZM62.2299 57.512L61.2943 58.6845L63.3703 60.3409L64.3058 59.1684L65.2414 57.9959L63.1654 56.3395L62.2299 57.512ZM64.3058 59.1684L62.8295 59.4335L63.2918 62.0084L64.7682 61.7433L66.2446 61.4782L65.7822 58.9033L64.3058 59.1684ZM64.7682 61.7433L63.655 62.7487L63.8868 63.0054L65 62L66.1132 60.9946L65.8814 60.7379L64.7682 61.7433Z" fill="black"/>
</svg>
