<svg width="120" height="120" viewBox="0 0 120 120" fill="none" xmlns="http://www.w3.org/2000/svg">
<path d="M8.1 116V117.5H8.13227L8.16451 117.499L8.1 116ZM10.64 115.891L10.797 114.399L10.6865 114.387L10.5755 114.392L10.64 115.891ZM13.28 116.169L13.123 117.66L13.2739 117.676L13.425 117.662L13.28 116.169ZM15.92 115.912L15.8596 114.413L15.8172 114.415L15.775 114.419L15.92 115.912ZM18.56 115.806L18.6763 114.31L18.588 114.303L18.4996 114.307L18.56 115.806ZM21.2 116.011L21.0837 117.507L21.1392 117.511L21.1948 117.511L21.2 116.011ZM23.84 116.02L23.8348 117.52L23.8912 117.52L23.9474 117.516L23.84 116.02ZM26.48 115.831L26.5223 114.331L26.4473 114.329L26.3726 114.334L26.48 115.831ZM29.12 115.905L29.2963 114.415L29.2295 114.408L29.1623 114.406L29.12 115.905ZM31.76 116.217L31.5837 117.707L31.7941 117.732L32.0032 117.698L31.76 116.217ZM34.4 115.784L34.4793 114.286L34.3171 114.277L34.1568 114.303L34.4 115.784ZM37.04 115.923L36.9607 117.421L37.0493 117.426L37.1379 117.42L37.04 115.923ZM39.68 115.751L39.8617 114.262L39.7223 114.245L39.5821 114.254L39.68 115.751ZM42.32 116.073L42.1383 117.562L42.2533 117.576L42.3692 117.572L42.32 116.073ZM44.96 115.986L44.9117 114.487L44.9108 114.487L44.96 115.986ZM47.6 115.901L47.6483 117.401L47.6707 117.4L47.693 117.398L47.6 115.901ZM50.24 115.737L50.5012 114.26L50.3253 114.229L50.147 114.24L50.24 115.737ZM52.88 116.204L52.6188 117.681L52.879 117.727L53.1393 117.682L52.88 116.204ZM55.52 115.741L55.6608 114.247L55.4596 114.228L55.2606 114.263L55.52 115.741ZM58.16 115.99L58.0192 117.483L58.1299 117.493L58.2409 117.487L58.16 115.99ZM60.8 115.847L61.0126 114.362L60.8665 114.341L60.7191 114.349L60.8 115.847ZM63.44 116.225L63.2274 117.71L63.4714 117.745L63.7137 117.7L63.44 116.225ZM66.08 115.735L66.1582 114.237L65.9809 114.228L65.8063 114.26L66.08 115.735ZM68.72 115.873L68.6418 117.371L68.6647 117.372L68.6878 117.373L68.72 115.873ZM71.36 115.93L71.3278 117.429L71.3564 117.43L71.3849 117.429L71.36 115.93ZM74 115.886L74.185 114.397L74.0804 114.384L73.975 114.386L74 115.886ZM76.64 116.214L76.455 117.702L76.6155 117.722L76.7765 117.708L76.64 116.214ZM79.28 115.973L79.2685 114.473L79.2059 114.473L79.1435 114.479L79.28 115.973ZM81.92 115.952L82.0888 114.462L81.9989 114.452L81.9085 114.452L81.92 115.952ZM84.56 116.251L84.3912 117.742L84.5876 117.764L84.783 117.735L84.56 116.251ZM87.2 115.854L87.2734 114.356L87.1245 114.349L86.977 114.371L87.2 115.854ZM89.84 115.984L89.9255 114.486L89.9134 114.486L89.84 115.984ZM92.48 116.135L92.3945 117.632L92.4978 117.638L92.6008 117.63L92.48 116.135ZM95.12 115.921L95.1099 114.421L95.0544 114.422L94.9992 114.426L95.12 115.921ZM97.76 115.903L97.9616 114.417L97.8562 114.403L97.7499 114.403L97.76 115.903ZM100.4 116.261L100.198 117.748L100.434 117.78L100.667 117.737L100.4 116.261ZM103.04 115.784L103.284 114.304L103.028 114.262L102.773 114.308L103.04 115.784ZM105.68 116.219L105.436 117.699L105.576 117.722L105.719 117.718L105.68 116.219ZM108.32 116.151L108.359 117.65L108.453 117.648L108.546 117.634L108.32 116.151ZM110.96 115.748L111.313 114.29L111.026 114.221L110.734 114.265L110.96 115.748ZM8 116V117.5H8.1V116V114.5H8V116ZM8.1 116L8.16451 117.499L10.7045 117.389L10.64 115.891L10.5755 114.392L8.03549 114.501L8.1 116ZM10.64 115.891L10.483 117.382L13.123 117.66L13.28 116.169L13.437 114.677L10.797 114.399L10.64 115.891ZM13.28 116.169L13.425 117.662L16.065 117.405L15.92 115.912L15.775 114.419L13.135 114.676L13.28 116.169ZM15.92 115.912L15.9804 117.411L18.6204 117.305L18.56 115.806L18.4996 114.307L15.8596 114.413L15.92 115.912ZM18.56 115.806L18.4437 117.301L21.0837 117.507L21.2 116.011L21.3163 114.516L18.6763 114.31L18.56 115.806ZM21.2 116.011L21.1948 117.511L23.8348 117.52L23.84 116.02L23.8452 114.52L21.2052 114.511L21.2 116.011ZM23.84 116.02L23.9474 117.516L26.5874 117.327L26.48 115.831L26.3726 114.334L23.7326 114.524L23.84 116.02ZM26.48 115.831L26.4377 117.33L29.0777 117.404L29.12 115.905L29.1623 114.406L26.5223 114.331L26.48 115.831ZM29.12 115.905L28.9437 117.395L31.5837 117.707L31.76 116.217L31.9363 114.728L29.2963 114.415L29.12 115.905ZM31.76 116.217L32.0032 117.698L34.6432 117.264L34.4 115.784L34.1568 114.303L31.5168 114.737L31.76 116.217ZM34.4 115.784L34.3207 117.282L36.9607 117.421L37.04 115.923L37.1193 114.426L34.4793 114.286L34.4 115.784ZM37.04 115.923L37.1379 117.42L39.7779 117.248L39.68 115.751L39.5821 114.254L36.9421 114.427L37.04 115.923ZM39.68 115.751L39.4983 117.24L42.1383 117.562L42.32 116.073L42.5017 114.584L39.8617 114.262L39.68 115.751ZM42.32 116.073L42.3692 117.572L45.0092 117.486L44.96 115.986L44.9108 114.487L42.2708 114.574L42.32 116.073ZM44.96 115.986L45.0083 117.486L47.6483 117.401L47.6 115.901L47.5517 114.402L44.9117 114.487L44.96 115.986ZM47.6 115.901L47.693 117.398L50.333 117.234L50.24 115.737L50.147 114.24L47.507 114.404L47.6 115.901ZM50.24 115.737L49.9788 117.214L52.6188 117.681L52.88 116.204L53.1412 114.727L50.5012 114.26L50.24 115.737ZM52.88 116.204L53.1393 117.682L55.7793 117.218L55.52 115.741L55.2606 114.263L52.6207 114.727L52.88 116.204ZM55.52 115.741L55.3792 117.234L58.0192 117.483L58.16 115.99L58.3008 114.496L55.6608 114.247L55.52 115.741ZM58.16 115.99L58.2409 117.487L60.8809 117.345L60.8 115.847L60.7191 114.349L58.0791 114.492L58.16 115.99ZM60.8 115.847L60.5874 117.332L63.2274 117.71L63.44 116.225L63.6526 114.74L61.0126 114.362L60.8 115.847ZM63.44 116.225L63.7137 117.7L66.3537 117.21L66.08 115.735L65.8063 114.26L63.1663 114.75L63.44 116.225ZM66.08 115.735L66.0018 117.233L68.6418 117.371L68.72 115.873L68.7982 114.375L66.1582 114.237L66.08 115.735ZM68.72 115.873L68.6878 117.373L71.3278 117.429L71.36 115.93L71.3922 114.43L68.7522 114.373L68.72 115.873ZM71.36 115.93L71.3849 117.429L74.0249 117.386L74 115.886L73.975 114.386L71.335 114.43L71.36 115.93ZM74 115.886L73.815 117.374L76.455 117.702L76.64 116.214L76.825 114.725L74.185 114.397L74 115.886ZM76.64 116.214L76.7765 117.708L79.4165 117.466L79.28 115.973L79.1435 114.479L76.5035 114.72L76.64 116.214ZM79.28 115.973L79.2915 117.473L81.9315 117.452L81.92 115.952L81.9085 114.452L79.2685 114.473L79.28 115.973ZM81.92 115.952L81.7512 117.443L84.3912 117.742L84.56 116.251L84.7288 114.761L82.0888 114.462L81.92 115.952ZM84.56 116.251L84.783 117.735L87.423 117.338L87.2 115.854L86.977 114.371L84.337 114.768L84.56 116.251ZM87.2 115.854L87.1266 117.353L89.7666 117.482L89.84 115.984L89.9134 114.486L87.2734 114.356L87.2 115.854ZM89.84 115.984L89.7545 117.481L92.3945 117.632L92.48 116.135L92.5655 114.637L89.9255 114.486L89.84 115.984ZM92.48 116.135L92.6008 117.63L95.2408 117.416L95.12 115.921L94.9992 114.426L92.3592 114.639L92.48 116.135ZM95.12 115.921L95.1301 117.421L97.7701 117.403L97.76 115.903L97.7499 114.403L95.1099 114.421L95.12 115.921ZM97.76 115.903L97.5584 117.39L100.198 117.748L100.4 116.261L100.602 114.775L97.9616 114.417L97.76 115.903ZM100.4 116.261L100.667 117.737L103.307 117.26L103.04 115.784L102.773 114.308L100.133 114.785L100.4 116.261ZM103.04 115.784L102.796 117.264L105.436 117.699L105.68 116.219L105.924 114.738L103.284 114.304L103.04 115.784ZM105.68 116.219L105.719 117.718L108.359 117.65L108.32 116.151L108.281 114.651L105.641 114.719L105.68 116.219ZM108.32 116.151L108.546 117.634L111.186 117.231L110.96 115.748L110.734 114.265L108.094 114.668L108.32 116.151ZM110.96 115.748L110.607 117.206L111.647 117.458L112 116L112.353 114.542L111.313 114.29L110.96 115.748Z" fill="black"/>
<path d="M80 74L81.3799 73.4119L80.9912 72.5H80V74ZM79.9 74V72.5H79.8677L79.8355 72.5014L79.9 74ZM77.36 74.1093L77.203 75.6011L77.3135 75.6127L77.4245 75.6079L77.36 74.1093ZM74.72 73.8314L74.877 72.3397L74.7261 72.3238L74.575 72.3385L74.72 73.8314ZM72.08 74.0878L72.1404 75.5866L72.1828 75.5849L72.225 75.5808L72.08 74.0878ZM69.44 74.1942L69.3237 75.6897L69.412 75.6966L69.5004 75.693L69.44 74.1942ZM66.8 73.9889L66.9163 72.4935L66.8608 72.4891L66.8052 72.489L66.8 73.9889ZM64.16 73.9798L64.1652 72.4798L64.1088 72.4796L64.0526 72.4837L64.16 73.9798ZM61.52 74.1694L61.4777 75.6688L61.5527 75.6709L61.6274 75.6655L61.52 74.1694ZM58.88 74.095L58.7037 75.5846L58.7705 75.5925L58.8377 75.5944L58.88 74.095ZM56.24 73.7826L56.4163 72.293L56.2059 72.2681L55.9968 72.3024L56.24 73.7826ZM53.6 74.2164L53.5207 75.7143L53.6829 75.7229L53.8432 75.6965L53.6 74.2164ZM50.96 74.0766L51.0393 72.5787L50.9507 72.574L50.8621 72.5798L50.96 74.0766ZM48.32 74.2493L48.1383 75.7382L48.2777 75.7552L48.4179 75.7461L48.32 74.2493ZM45.68 73.9271L45.8617 72.4381L45.7467 72.4241L45.6308 72.4279L45.68 73.9271ZM43.04 74.0137L43.0883 75.5129L43.0892 75.5129L43.04 74.0137ZM40.4 74.0987L40.3517 72.5995L38.9903 72.6433L38.9031 74.0027L40.4 74.0987ZM40.2627 76.24L41.7397 76.5012L41.7543 76.4192L41.7596 76.336L40.2627 76.24ZM39.7958 78.88L38.3187 78.6188L38.2727 78.879L38.3184 79.1393L39.7958 78.88ZM40.2592 81.52L41.7526 81.6608L41.7715 81.4596L41.7366 81.2607L40.2592 81.52ZM40.0103 84.16L41.1377 85.1495L41.4581 84.7844L41.5037 84.3008L40.0103 84.16ZM38.7 85.6529L38.4874 87.1378L39.2915 87.2529L39.8274 86.6424L38.7 85.6529ZM36.06 85.275L36.2726 83.7901L34.4282 83.5261L34.564 85.3843L36.06 85.275ZM36.2649 88.08L37.7629 88.1582L37.7678 88.0644L37.761 87.9707L36.2649 88.08ZM36.127 90.72L34.6291 90.6418L34.6279 90.6647L34.6274 90.6878L36.127 90.72ZM36.0703 93.36L34.5706 93.3278L34.57 93.3564L34.5705 93.3849L36.0703 93.36ZM36.1142 96L37.6028 96.185L37.6158 96.0804L37.614 95.975L36.1142 96ZM35.7861 98.64L34.2976 98.455L34.2776 98.6155L34.2924 98.7765L35.7861 98.64ZM36.0274 101.28L37.5274 101.269L37.5269 101.206L37.5212 101.143L36.0274 101.28ZM36.0476 103.92L37.5381 104.089L37.5483 103.999L37.5476 103.909L36.0476 103.92ZM35.7487 106.56L34.2582 106.391L34.236 106.588L34.2653 106.783L35.7487 106.56ZM36.1455 109.2L37.6437 109.273L37.651 109.124L37.6288 108.977L36.1455 109.2ZM36.0161 111.84L37.5137 111.925L37.5143 111.913L36.0161 111.84ZM35.8654 114.48L34.3679 114.395L34.3331 115.004L34.7341 115.465L35.8654 114.48ZM37.12 115.921L35.9886 116.906L36.4411 117.426L37.1301 117.421L37.12 115.921ZM39.76 115.903L39.9616 114.417L39.8562 114.403L39.7499 114.403L39.76 115.903ZM42.4 116.261L42.1984 117.748L42.4335 117.78L42.667 117.737L42.4 116.261ZM45.04 115.784L45.2837 114.304L45.028 114.262L44.773 114.308L45.04 115.784ZM47.68 116.219L47.4363 117.699L47.5765 117.722L47.7185 117.718L47.68 116.219ZM50.32 116.151L50.3585 117.65L50.4529 117.648L50.5462 117.634L50.32 116.151ZM52.96 115.748L52.9653 114.248L52.8489 114.248L52.7338 114.265L52.96 115.748ZM55.6 115.757L55.8169 114.273L55.7116 114.258L55.6053 114.257L55.6 115.757ZM58.24 116.143L58.0231 117.627L58.1731 117.649L58.3243 117.641L58.24 116.143ZM60.88 115.994L60.872 114.494L60.8338 114.495L60.7956 114.497L60.88 115.994ZM63.52 115.98L63.5608 114.481L63.5364 114.48L63.512 114.48L63.52 115.98ZM66.16 116.052L66.1191 117.552L66.1286 117.552L66.16 116.052ZM68.8 116.108L68.8506 114.608L68.841 114.608L68.8314 114.608L68.8 116.108ZM71.44 116.197L71.3893 117.696L71.5143 117.7L71.6383 117.684L71.44 116.197ZM74.08 115.845L74.1535 114.346L74.0171 114.34L73.8817 114.358L74.08 115.845ZM76.72 115.974L76.6465 117.472L76.7439 117.477L76.841 117.469L76.72 115.974ZM79.36 115.76L79.5311 114.27L79.3853 114.254L79.239 114.265L79.36 115.76ZM82 116.064L81.8289 117.554L82.1734 117.593L82.5003 117.478L82 116.064ZM83.9884 115.36L84.4888 116.774L85.4904 116.42L85.4884 115.357L83.9884 115.36ZM83.9835 112.72L85.4835 112.717L85.4835 112.682L85.4817 112.646L83.9835 112.72ZM83.8538 110.08L82.3541 110.051L82.3531 110.102L82.3556 110.154L83.8538 110.08ZM83.9053 107.44L82.4056 107.409L82.4056 107.411L83.9053 107.44ZM83.9597 104.8L85.4595 104.831L85.4596 104.818L83.9597 104.8ZM83.991 102.16L85.4909 102.178L85.4913 102.143L85.4901 102.108L83.991 102.16ZM83.8994 99.52L82.4002 99.5691L82.4003 99.572L83.8994 99.52ZM83.813 96.88L82.313 96.87L82.3128 96.8995L82.3138 96.9291L83.813 96.88ZM83.8307 94.24L82.3309 94.2123L82.3308 94.2211L82.3307 94.23L83.8307 94.24ZM83.8795 91.6L82.3894 91.4282L82.3811 91.5L82.3798 91.5723L83.8795 91.6ZM84.1838 88.96L85.674 89.1318L85.6859 89.0281L85.6834 88.9237L84.1838 88.96ZM84.1199 86.32L85.6195 86.2837L85.5942 85.241L84.6079 84.9016L84.1199 86.32ZM82.18 85.6526L82.668 84.2342L82.6148 84.2159L82.5603 84.2016L82.18 85.6526ZM79.8429 85.04L78.3467 84.934L78.2587 86.1754L79.4626 86.491L79.8429 85.04ZM80.0301 82.4L81.5263 82.5061L81.5284 82.4757L81.5294 82.4453L80.0301 82.4ZM80.1099 79.76L81.6092 79.8053L81.6095 79.7956L81.6097 79.7858L80.1099 79.76ZM80.1553 77.12L78.6555 77.092L78.6555 77.0942L80.1553 77.12ZM80.2046 74.48L81.7043 74.508L81.7103 74.1871L81.5845 73.8919L80.2046 74.48ZM80 74V72.5H79.9V74V75.5H80V74ZM79.9 74L79.8355 72.5014L77.2955 72.6107L77.36 74.1093L77.4245 75.6079L79.9645 75.4986L79.9 74ZM77.36 74.1093L77.517 72.6176L74.877 72.3397L74.72 73.8314L74.563 75.3232L77.203 75.6011L77.36 74.1093ZM74.72 73.8314L74.575 72.3385L71.935 72.5948L72.08 74.0878L72.225 75.5808L74.865 75.3244L74.72 73.8314ZM72.08 74.0878L72.0196 72.589L69.3796 72.6954L69.44 74.1942L69.5004 75.693L72.1404 75.5866L72.08 74.0878ZM69.44 74.1942L69.5563 72.6987L66.9163 72.4935L66.8 73.9889L66.6837 75.4844L69.3237 75.6897L69.44 74.1942ZM66.8 73.9889L66.8052 72.489L64.1652 72.4798L64.16 73.9798L64.1548 75.4798L66.7948 75.4889L66.8 73.9889ZM64.16 73.9798L64.0526 72.4837L61.4126 72.6732L61.52 74.1694L61.6274 75.6655L64.2674 75.476L64.16 73.9798ZM61.52 74.1694L61.5623 72.67L58.9223 72.5956L58.88 74.095L58.8377 75.5944L61.4777 75.6688L61.52 74.1694ZM58.88 74.095L59.0563 72.6054L56.4163 72.293L56.24 73.7826L56.0637 75.2722L58.7037 75.5846L58.88 74.095ZM56.24 73.7826L55.9968 72.3024L53.3568 72.7362L53.6 74.2164L53.8432 75.6965L56.4832 75.2627L56.24 73.7826ZM53.6 74.2164L53.6793 72.7185L51.0393 72.5787L50.96 74.0766L50.8807 75.5745L53.5207 75.7143L53.6 74.2164ZM50.96 74.0766L50.8621 72.5798L48.2221 72.7524L48.32 74.2493L48.4179 75.7461L51.0579 75.5734L50.96 74.0766ZM48.32 74.2493L48.5017 72.7603L45.8617 72.4381L45.68 73.9271L45.4983 75.416L48.1383 75.7382L48.32 74.2493ZM45.68 73.9271L45.6308 72.4279L42.9908 72.5145L43.04 74.0137L43.0892 75.5129L45.7292 75.4263L45.68 73.9271ZM43.04 74.0137L42.9917 72.5144L40.3517 72.5995L40.4 74.0987L40.4483 75.5979L43.0883 75.5129L43.04 74.0137ZM40.4 74.0987L38.9031 74.0027L38.7657 76.144L40.2627 76.24L41.7596 76.336L41.8969 74.1947L40.4 74.0987ZM40.2627 76.24L38.7856 75.9788L38.3187 78.6188L39.7958 78.88L41.2729 79.1412L41.7397 76.5012L40.2627 76.24ZM39.7958 78.88L38.3184 79.1393L38.7818 81.7793L40.2592 81.52L41.7366 81.2607L41.2732 78.6207L39.7958 78.88ZM40.2592 81.52L38.7658 81.3792L38.5169 84.0192L40.0103 84.16L41.5037 84.3008L41.7526 81.6608L40.2592 81.52ZM40.0103 84.16L38.883 83.1705L37.5726 84.6634L38.7 85.6529L39.8274 86.6424L41.1377 85.1495L40.0103 84.16ZM38.7 85.6529L38.9126 84.1681L36.2726 83.7901L36.06 85.275L35.8474 86.7598L38.4874 87.1378L38.7 85.6529ZM36.06 85.275L34.564 85.3843L34.7689 88.1893L36.2649 88.08L37.761 87.9707L37.556 85.1657L36.06 85.275ZM36.2649 88.08L34.767 88.0018L34.6291 90.6418L36.127 90.72L37.625 90.7982L37.7629 88.1582L36.2649 88.08ZM36.127 90.72L34.6274 90.6878L34.5706 93.3278L36.0703 93.36L37.57 93.3922L37.6267 90.7522L36.127 90.72ZM36.0703 93.36L34.5705 93.3849L34.6144 96.0249L36.1142 96L37.614 95.975L37.5701 93.335L36.0703 93.36ZM36.1142 96L34.6257 95.815L34.2976 98.455L35.7861 98.64L37.2747 98.825L37.6028 96.185L36.1142 96ZM35.7861 98.64L34.2924 98.7765L34.5337 101.417L36.0274 101.28L37.5212 101.143L37.2799 98.5035L35.7861 98.64ZM36.0274 101.28L34.5275 101.291L34.5477 103.931L36.0476 103.92L37.5476 103.909L37.5274 101.269L36.0274 101.28ZM36.0476 103.92L34.5571 103.751L34.2582 106.391L35.7487 106.56L37.2392 106.729L37.5381 104.089L36.0476 103.92ZM35.7487 106.56L34.2653 106.783L34.6622 109.423L36.1455 109.2L37.6288 108.977L37.232 106.337L35.7487 106.56ZM36.1455 109.2L34.6473 109.127L34.5179 111.767L36.0161 111.84L37.5143 111.913L37.6437 109.273L36.1455 109.2ZM36.0161 111.84L34.5186 111.755L34.3679 114.395L35.8654 114.48L37.363 114.565L37.5137 111.925L36.0161 111.84ZM35.8654 114.48L34.7341 115.465L35.9886 116.906L37.12 115.921L38.2514 114.936L36.9968 113.495L35.8654 114.48ZM37.12 115.921L37.1301 117.421L39.7701 117.403L39.76 115.903L39.7499 114.403L37.1099 114.421L37.12 115.921ZM39.76 115.903L39.5584 117.39L42.1984 117.748L42.4 116.261L42.6016 114.775L39.9616 114.417L39.76 115.903ZM42.4 116.261L42.667 117.737L45.307 117.26L45.04 115.784L44.773 114.308L42.133 114.785L42.4 116.261ZM45.04 115.784L44.7963 117.264L47.4363 117.699L47.68 116.219L47.9237 114.738L45.2837 114.304L45.04 115.784ZM47.68 116.219L47.7185 117.718L50.3585 117.65L50.32 116.151L50.2815 114.651L47.6415 114.719L47.68 116.219ZM50.32 116.151L50.5462 117.634L53.1862 117.231L52.96 115.748L52.7338 114.265L50.0938 114.668L50.32 116.151ZM52.96 115.748L52.9547 117.248L55.5947 117.257L55.6 115.757L55.6053 114.257L52.9653 114.248L52.96 115.748ZM55.6 115.757L55.3831 117.242L58.0231 117.627L58.24 116.143L58.4569 114.659L55.8169 114.273L55.6 115.757ZM58.24 116.143L58.3243 117.641L60.9643 117.492L60.88 115.994L60.7956 114.497L58.1556 114.645L58.24 116.143ZM60.88 115.994L60.888 117.494L63.528 117.48L63.52 115.98L63.512 114.48L60.872 114.494L60.88 115.994ZM63.52 115.98L63.4791 117.48L66.1191 117.552L66.16 116.052L66.2008 114.553L63.5608 114.481L63.52 115.98ZM66.16 116.052L66.1286 117.552L68.7686 117.607L68.8 116.108L68.8314 114.608L66.1914 114.553L66.16 116.052ZM68.8 116.108L68.7493 117.607L71.3893 117.696L71.44 116.197L71.4906 114.698L68.8506 114.608L68.8 116.108ZM71.44 116.197L71.6383 117.684L74.2783 117.332L74.08 115.845L73.8817 114.358L71.2417 114.71L71.44 116.197ZM74.08 115.845L74.0065 117.343L76.6465 117.472L76.72 115.974L76.7935 114.476L74.1535 114.346L74.08 115.845ZM76.72 115.974L76.841 117.469L79.481 117.256L79.36 115.76L79.239 114.265L76.599 114.479L76.72 115.974ZM79.36 115.76L79.1889 117.251L81.8289 117.554L82 116.064L82.1711 114.573L79.5311 114.27L79.36 115.76ZM82 116.064L82.5003 117.478L84.4888 116.774L83.9884 115.36L83.4881 113.946L81.4997 114.649L82 116.064ZM83.9884 115.36L85.4884 115.357L85.4835 112.717L83.9835 112.72L82.4835 112.723L82.4884 115.363L83.9884 115.36ZM83.9835 112.72L85.4817 112.646L85.352 110.006L83.8538 110.08L82.3556 110.154L82.4853 112.794L83.9835 112.72ZM83.8538 110.08L85.3535 110.109L85.405 107.469L83.9053 107.44L82.4056 107.411L82.3541 110.051L83.8538 110.08ZM83.9053 107.44L85.405 107.471L85.4594 104.831L83.9597 104.8L82.4601 104.769L82.4056 107.409L83.9053 107.44ZM83.9597 104.8L85.4596 104.818L85.4909 102.178L83.991 102.16L82.4911 102.142L82.4599 104.782L83.9597 104.8ZM83.991 102.16L85.4901 102.108L85.3985 99.468L83.8994 99.52L82.4003 99.572L82.4919 102.212L83.991 102.16ZM83.8994 99.52L85.3986 99.4709L85.3122 96.8309L83.813 96.88L82.3138 96.9291L82.4002 99.5691L83.8994 99.52ZM83.813 96.88L85.313 96.8901L85.3307 94.2501L83.8307 94.24L82.3307 94.23L82.313 96.87L83.813 96.88ZM83.8307 94.24L85.3304 94.2677L85.3793 91.6278L83.8795 91.6L82.3798 91.5723L82.3309 94.2123L83.8307 94.24ZM83.8795 91.6L85.3697 91.7718L85.674 89.1318L84.1838 88.96L82.6937 88.7882L82.3894 91.4282L83.8795 91.6ZM84.1838 88.96L85.6834 88.9237L85.6195 86.2837L84.1199 86.32L82.6204 86.3563L82.6843 88.9963L84.1838 88.96ZM84.1199 86.32L84.6079 84.9016L82.668 84.2342L82.18 85.6526L81.692 87.071L83.6319 87.7384L84.1199 86.32ZM82.18 85.6526L82.5603 84.2016L80.2233 83.589L79.8429 85.04L79.4626 86.491L81.7997 87.1036L82.18 85.6526ZM79.8429 85.04L81.3392 85.1461L81.5263 82.5061L80.0301 82.4L78.5338 82.294L78.3467 84.934L79.8429 85.04ZM80.0301 82.4L81.5294 82.4453L81.6092 79.8053L80.1099 79.76L78.6106 79.7147L78.5307 82.3547L80.0301 82.4ZM80.1099 79.76L81.6097 79.7858L81.6551 77.1458L80.1553 77.12L78.6555 77.0942L78.6101 79.7342L80.1099 79.76ZM80.1553 77.12L81.655 77.148L81.7043 74.508L80.2046 74.48L78.7049 74.452L78.6555 77.092L80.1553 77.12ZM80.2046 74.48L81.5845 73.8919L81.3799 73.4119L80 74L78.6201 74.5881L78.8247 75.0681L80.2046 74.48Z" fill="black"/>
<path d="M36 86V84.5H34.53L34.5003 85.9697L36 86ZM36.1 86V87.5H36.1323L36.1645 87.4986L36.1 86ZM38.64 85.8907L38.797 84.3989L38.6865 84.3873L38.5755 84.3921L38.64 85.8907ZM41.28 86.1686L41.123 87.6603L41.2739 87.6762L41.425 87.6615L41.28 86.1686ZM43.92 85.9122L43.8596 84.4134L43.8172 84.4151L43.775 84.4192L43.92 85.9122ZM46.56 85.8058L46.6763 84.3103L46.588 84.3034L46.4996 84.307L46.56 85.8058ZM49.2 86.0111L49.0837 87.5065L49.1392 87.5109L49.1948 87.511L49.2 86.0111ZM51.84 86.0202L51.8348 87.5202L51.8912 87.5204L51.9474 87.5163L51.84 86.0202ZM54.48 85.8306L54.5223 84.3312L54.4473 84.3291L54.3726 84.3345L54.48 85.8306ZM57.12 85.905L57.2962 84.4154L57.2295 84.4075L57.1623 84.4056L57.12 85.905ZM59.76 86.2174L59.5837 87.707L59.7941 87.7319L60.0032 87.6976L59.76 86.2174ZM62.4 85.7836L62.4793 84.2857L62.3171 84.2771L62.1568 84.3035L62.4 85.7836ZM65.04 85.9234L64.9607 87.4213L65.0493 87.426L65.1379 87.4202L65.04 85.9234ZM67.68 85.7507L67.8617 84.2618L67.7223 84.2448L67.5821 84.2539L67.68 85.7507ZM70.32 86.0729L70.1383 87.5619L70.2533 87.5759L70.3692 87.5721L70.32 86.0729ZM72.96 85.9863L72.9117 84.4871L72.9108 84.4871L72.96 85.9863ZM75.6 85.9013L75.6483 87.4005L75.6707 87.3998L75.693 87.3984L75.6 85.9013ZM78.24 85.7373L78.5012 84.2603L78.3253 84.2291L78.147 84.2402L78.24 85.7373ZM80.88 86.2042L80.6188 87.6813L80.879 87.7273L81.1393 87.6816L80.88 86.2042ZM83.52 85.7408L84.9901 85.4428L84.6999 84.0107L83.2607 84.2634L83.52 85.7408ZM84.0103 88.16L85.5081 88.0791L85.5022 87.9696L85.4804 87.862L84.0103 88.16ZM84.1529 90.8L85.6378 91.0126L85.6587 90.8665L85.6507 90.7191L84.1529 90.8ZM83.775 93.44L82.2901 93.2274L82.2552 93.4714L82.3002 93.7137L83.775 93.44ZM84.2649 96.08L85.7629 96.1582L85.7722 95.9809L85.7398 95.8063L84.2649 96.08ZM84.127 98.72L82.6291 98.6418L82.6279 98.6647L82.6274 98.6878L84.127 98.72ZM84.0703 101.36L84.5838 102.769L85.5479 102.418L85.57 101.392L84.0703 101.36ZM82 102.114L81.815 103.603L82.1738 103.647L82.5135 103.524L82 102.114ZM79.36 101.786L79.545 100.298L79.3845 100.278L79.2235 100.292L79.36 101.786ZM76.72 102.027L76.7315 103.527L76.7941 103.527L76.8565 103.521L76.72 102.027ZM74.08 102.048L73.9112 103.538L74.0011 103.548L74.0915 103.548L74.08 102.048ZM71.44 101.749L71.6088 100.258L71.4124 100.236L71.217 100.265L71.44 101.749ZM68.8 102.146L68.7266 103.644L68.8755 103.651L69.023 103.629L68.8 102.146ZM66.16 102.016L66.0745 103.514L66.0866 103.514L66.16 102.016ZM63.52 101.865L63.6055 100.368L63.5022 100.362L63.3992 100.37L63.52 101.865ZM60.88 102.079L60.8901 103.579L60.9456 103.578L61.0008 103.574L60.88 102.079ZM58.24 102.097L58.0384 103.583L58.1438 103.597L58.2501 103.597L58.24 102.097ZM55.6 101.739L55.8016 100.252L55.5665 100.22L55.333 100.263L55.6 101.739ZM52.96 102.216L52.7163 103.696L52.972 103.738L53.227 103.692L52.96 102.216ZM50.32 101.781L50.5637 100.301L50.4235 100.278L50.2815 100.282L50.32 101.781ZM47.68 101.849L47.6415 100.35L47.5471 100.352L47.4538 100.366L47.68 101.849ZM45.04 102.252L45.0347 103.752L45.1511 103.752L45.2662 103.735L45.04 102.252ZM42.4 102.243L42.1831 103.727L42.2884 103.742L42.3947 103.743L42.4 102.243ZM39.76 101.857L39.9769 100.373L39.8269 100.351L39.6757 100.359L39.76 101.857ZM37.12 102.006L35.9183 102.903L36.4003 103.549L37.2044 103.503L37.12 102.006ZM35.9803 100.48L34.4808 100.439L34.4666 100.96L34.7786 101.378L35.9803 100.48ZM36.0522 97.84L37.5517 97.8809L37.5519 97.8714L36.0522 97.84ZM36.1075 95.2L34.6084 95.1494L34.608 95.159L34.6078 95.1686L36.1075 95.2ZM36.1967 92.56L37.6959 92.6107L37.7001 92.4857L37.6836 92.3617L36.1967 92.56ZM35.8447 89.92L34.3465 89.8465L34.3398 89.9829L34.3579 90.1183L35.8447 89.92ZM35.9741 87.28L37.4723 87.3535L37.4734 87.3319L37.4738 87.3103L35.9741 87.28ZM36 86V87.5H36.1V86V84.5H36V86ZM36.1 86L36.1645 87.4986L38.7045 87.3893L38.64 85.8907L38.5755 84.3921L36.0355 84.5014L36.1 86ZM38.64 85.8907L38.483 87.3824L41.123 87.6603L41.28 86.1686L41.437 84.6768L38.797 84.3989L38.64 85.8907ZM41.28 86.1686L41.425 87.6615L44.065 87.4052L43.92 85.9122L43.775 84.4192L41.135 84.6756L41.28 86.1686ZM43.92 85.9122L43.9804 87.411L46.6204 87.3046L46.56 85.8058L46.4996 84.307L43.8596 84.4134L43.92 85.9122ZM46.56 85.8058L46.4437 87.3013L49.0837 87.5065L49.2 86.0111L49.3163 84.5156L46.6763 84.3103L46.56 85.8058ZM49.2 86.0111L49.1948 87.511L51.8348 87.5202L51.84 86.0202L51.8452 84.5202L49.2052 84.5111L49.2 86.0111ZM51.84 86.0202L51.9474 87.5163L54.5874 87.3268L54.48 85.8306L54.3726 84.3345L51.7326 84.524L51.84 86.0202ZM54.48 85.8306L54.4377 87.33L57.0777 87.4044L57.12 85.905L57.1623 84.4056L54.5223 84.3312L54.48 85.8306ZM57.12 85.905L56.9437 87.3946L59.5837 87.707L59.76 86.2174L59.9363 84.7278L57.2962 84.4154L57.12 85.905ZM59.76 86.2174L60.0032 87.6976L62.6432 87.2638L62.4 85.7836L62.1568 84.3035L59.5168 84.7373L59.76 86.2174ZM62.4 85.7836L62.3207 87.2815L64.9607 87.4213L65.04 85.9234L65.1193 84.4255L62.4793 84.2857L62.4 85.7836ZM65.04 85.9234L65.1379 87.4202L67.7779 87.2476L67.68 85.7507L67.5821 84.2539L64.9421 84.4266L65.04 85.9234ZM67.68 85.7507L67.4983 87.2397L70.1383 87.5619L70.32 86.0729L70.5017 84.584L67.8617 84.2618L67.68 85.7507ZM70.32 86.0729L70.3692 87.5721L73.0092 87.4855L72.96 85.9863L72.9108 84.4871L70.2708 84.5737L70.32 86.0729ZM72.96 85.9863L73.0083 87.4856L75.6483 87.4005L75.6 85.9013L75.5517 84.4021L72.9117 84.4871L72.96 85.9863ZM75.6 85.9013L75.693 87.3984L78.333 87.2344L78.24 85.7373L78.147 84.2402L75.507 84.4042L75.6 85.9013ZM78.24 85.7373L77.9788 87.2144L80.6188 87.6813L80.88 86.2042L81.1412 84.7271L78.5012 84.2603L78.24 85.7373ZM80.88 86.2042L81.1393 87.6816L83.7793 87.2182L83.52 85.7408L83.2607 84.2634L80.6207 84.7268L80.88 86.2042ZM83.52 85.7408L82.0499 86.0388L82.5402 88.458L84.0103 88.16L85.4804 87.862L84.9901 85.4428L83.52 85.7408ZM84.0103 88.16L82.5125 88.2409L82.6551 90.8809L84.1529 90.8L85.6507 90.7191L85.5081 88.0791L84.0103 88.16ZM84.1529 90.8L82.6681 90.5874L82.2901 93.2274L83.775 93.44L85.2598 93.6526L85.6378 91.0126L84.1529 90.8ZM83.775 93.44L82.3002 93.7137L82.7901 96.3537L84.2649 96.08L85.7398 95.8063L85.2498 93.1663L83.775 93.44ZM84.2649 96.08L82.767 96.0018L82.6291 98.6418L84.127 98.72L85.625 98.7982L85.7629 96.1582L84.2649 96.08ZM84.127 98.72L82.6274 98.6878L82.5706 101.328L84.0703 101.36L85.57 101.392L85.6267 98.7522L84.127 98.72ZM84.0703 101.36L83.5569 99.9506L81.4866 100.705L82 102.114L82.5135 103.524L84.5838 102.769L84.0703 101.36ZM82 102.114L82.185 100.626L79.545 100.298L79.36 101.786L79.175 103.275L81.815 103.603L82 102.114ZM79.36 101.786L79.2235 100.292L76.5835 100.534L76.72 102.027L76.8565 103.521L79.4965 103.28L79.36 101.786ZM76.72 102.027L76.7085 100.527L74.0685 100.548L74.08 102.048L74.0915 103.548L76.7315 103.527L76.72 102.027ZM74.08 102.048L74.2488 100.557L71.6088 100.258L71.44 101.749L71.2712 103.239L73.9112 103.538L74.08 102.048ZM71.44 101.749L71.217 100.265L68.577 100.662L68.8 102.146L69.023 103.629L71.663 103.232L71.44 101.749ZM68.8 102.146L68.8734 100.647L66.2334 100.518L66.16 102.016L66.0866 103.514L68.7266 103.644L68.8 102.146ZM66.16 102.016L66.2455 100.519L63.6055 100.368L63.52 101.865L63.4345 103.363L66.0745 103.514L66.16 102.016ZM63.52 101.865L63.3992 100.37L60.7592 100.584L60.88 102.079L61.0008 103.574L63.6408 103.361L63.52 101.865ZM60.88 102.079L60.8699 100.579L58.2299 100.597L58.24 102.097L58.2501 103.597L60.8901 103.579L60.88 102.079ZM58.24 102.097L58.4416 100.61L55.8016 100.252L55.6 101.739L55.3984 103.225L58.0384 103.583L58.24 102.097ZM55.6 101.739L55.333 100.263L52.693 100.74L52.96 102.216L53.227 103.692L55.867 103.215L55.6 101.739ZM52.96 102.216L53.2037 100.736L50.5637 100.301L50.32 101.781L50.0763 103.262L52.7163 103.696L52.96 102.216ZM50.32 101.781L50.2815 100.282L47.6415 100.35L47.68 101.849L47.7185 103.349L50.3585 103.281L50.32 101.781ZM47.68 101.849L47.4538 100.366L44.8138 100.769L45.04 102.252L45.2662 103.735L47.9062 103.332L47.68 101.849ZM45.04 102.252L45.0453 100.752L42.4053 100.743L42.4 102.243L42.3947 103.743L45.0347 103.752L45.04 102.252ZM42.4 102.243L42.6169 100.758L39.9769 100.373L39.76 101.857L39.5431 103.341L42.1831 103.727L42.4 102.243ZM39.76 101.857L39.6757 100.359L37.0357 100.508L37.12 102.006L37.2044 103.503L39.8444 103.355L39.76 101.857ZM37.12 102.006L38.3217 101.108L37.182 99.5823L35.9803 100.48L34.7786 101.378L35.9183 102.903L37.12 102.006ZM35.9803 100.48L37.4797 100.521L37.5516 97.8809L36.0522 97.84L34.5528 97.7992L34.4808 100.439L35.9803 100.48ZM36.0522 97.84L37.5519 97.8714L37.6072 95.2314L36.1075 95.2L34.6078 95.1686L34.5525 97.8086L36.0522 97.84ZM36.1075 95.2L37.6067 95.2507L37.6959 92.6107L36.1967 92.56L34.6976 92.5094L34.6084 95.1494L36.1075 95.2ZM36.1967 92.56L37.6836 92.3617L37.3315 89.7217L35.8447 89.92L34.3579 90.1183L34.7099 92.7583L36.1967 92.56ZM35.8447 89.92L37.3429 89.9935L37.4723 87.3535L35.9741 87.28L34.4759 87.2065L34.3465 89.8465L35.8447 89.92ZM35.9741 87.28L37.4738 87.3103L37.4997 86.0303L36 86L34.5003 85.9697L34.4744 87.2497L35.9741 87.28Z" fill="black"/>
<path d="M36 86L35.6941 84.5315L36.8696 84.2866L37.3659 85.38L36 86ZM35.9021 86.0204L36.208 87.4889L36.1764 87.4954L36.1446 87.5007L35.9021 86.0204ZM33.3932 86.4314L32.9352 85.003L33.041 84.9691L33.1507 84.9511L33.3932 86.4314ZM30.8654 87.2419L31.3233 88.6703L31.1788 88.7166L31.0279 88.7331L30.8654 87.2419ZM28.2286 87.5294L27.982 86.0498L28.0239 86.0428L28.066 86.0382L28.2286 87.5294ZM25.6224 87.9636L25.2035 86.5233L25.2885 86.4986L25.3758 86.484L25.6224 87.9636ZM23.0797 88.703L23.4986 90.1434L23.4451 90.1589L23.3907 90.1704L23.0797 88.703ZM20.4971 89.2504L20.8081 90.7178L20.7529 90.7295L20.697 90.737L20.4971 89.2504ZM17.8739 89.6033L17.5267 88.144L17.5996 88.1266L17.6739 88.1166L17.8739 89.6033ZM15.3046 90.2145L14.8282 88.7922L14.892 88.7708L14.9574 88.7553L15.3046 90.2145ZM12.7838 91.0588L11.4682 90.3382L11.7504 89.823L12.3074 89.6364L12.7838 91.0588ZM11.7836 92.8847L10.2857 92.964L10.2632 92.5381L10.468 92.1641L11.7836 92.8847ZM11.9234 95.5247L13.4213 95.4454L13.426 95.534L13.4202 95.6226L11.9234 95.5247ZM11.7507 98.1647L10.2618 98.3464L10.2448 98.207L10.2539 98.0668L11.7507 98.1647ZM12.0729 100.805L13.5619 100.623L13.5759 100.738L13.5721 100.854L12.0729 100.805ZM11.9863 103.445L10.4871 103.396L10.4871 103.396L11.9863 103.445ZM11.9013 106.085L13.4005 106.133L13.3998 106.155L13.3984 106.178L11.9013 106.085ZM11.7373 108.725L10.2603 108.986L10.2291 108.81L10.2402 108.632L11.7373 108.725ZM12.2042 111.365L13.6813 111.103L13.7273 111.364L13.6816 111.624L12.2042 111.365ZM11.7408 114.005L10.3733 114.621L10.1836 114.2L10.2634 113.745L11.7408 114.005ZM12.6447 116.01L12.5638 117.508L11.6523 117.459L11.2772 116.627L12.6447 116.01ZM15.2847 116.153L15.4973 117.638L15.3512 117.659L15.2038 117.651L15.2847 116.153ZM17.9247 115.775L17.7121 114.29L17.9561 114.255L18.1984 114.3L17.9247 115.775ZM20.5647 116.265L20.6429 117.763L20.4656 117.772L20.291 117.74L20.5647 116.265ZM23.2047 116.127L23.1264 114.629L23.1494 114.628L23.1725 114.627L23.2047 116.127ZM25.8447 116.07L25.8125 114.571L25.8411 114.57L25.8696 114.571L25.8447 116.07ZM28.4847 116.114L28.6697 117.603L28.5651 117.616L28.4597 117.614L28.4847 116.114ZM31.1247 115.786L30.9397 114.298L31.1002 114.278L31.2612 114.292L31.1247 115.786ZM33.7647 116.027L34.0437 117.501L33.8373 117.54L33.6282 117.521L33.7647 116.027ZM36.0476 115.595L37.5381 115.427L37.6948 116.81L36.3266 117.069L36.0476 115.595ZM35.7487 112.955L34.2582 113.124L34.236 112.928L34.2653 112.732L35.7487 112.955ZM36.1455 110.315L37.6437 110.242L37.651 110.391L37.6288 110.538L36.1455 110.315ZM36.0161 107.675L37.5137 107.59L37.5143 107.602L36.0161 107.675ZM35.8654 105.035L34.3679 105.121L34.362 105.018L34.3703 104.914L35.8654 105.035ZM36.0788 102.395L37.5788 102.405L37.5784 102.461L37.5739 102.516L36.0788 102.395ZM36.0967 99.7553L37.5831 99.5537L37.5973 99.6591L37.5966 99.7654L36.0967 99.7553ZM35.7386 97.1153L34.2522 97.3169L34.2203 97.0818L34.2626 96.8483L35.7386 97.1153ZM36.2162 94.4753L37.6963 94.2316L37.7384 94.4873L37.6923 94.7423L36.2162 94.4753ZM35.7815 91.8353L34.3014 92.079L34.2783 91.9388L34.282 91.7968L35.7815 91.8353ZM35.8493 89.1953L34.3498 89.1568L34.3522 89.0624L34.3665 88.9691L35.8493 89.1953ZM36.2521 86.5553L37.6179 85.9353L37.8021 86.341L37.7349 86.7815L36.2521 86.5553ZM36 86L36.3059 87.4685L36.208 87.4889L35.9021 86.0204L35.5962 84.5519L35.6941 84.5315L36 86ZM35.9021 86.0204L36.1446 87.5007L33.6357 87.9117L33.3932 86.4314L33.1507 84.9511L35.6596 84.5401L35.9021 86.0204ZM33.3932 86.4314L33.8512 87.8598L31.3233 88.6703L30.8654 87.2419L30.4074 85.8135L32.9352 85.003L33.3932 86.4314ZM30.8654 87.2419L31.0279 88.7331L28.3911 89.0205L28.2286 87.5294L28.066 86.0382L30.7028 85.7507L30.8654 87.2419ZM28.2286 87.5294L28.4751 89.009L25.8689 89.4432L25.6224 87.9636L25.3758 86.484L27.982 86.0498L28.2286 87.5294ZM25.6224 87.9636L26.0412 89.404L23.4986 90.1434L23.0797 88.703L22.6609 87.2627L25.2035 86.5233L25.6224 87.9636ZM23.0797 88.703L23.3907 90.1704L20.8081 90.7178L20.4971 89.2504L20.1861 87.783L22.7687 87.2356L23.0797 88.703ZM20.4971 89.2504L20.697 90.737L18.0739 91.0899L17.8739 89.6033L17.6739 88.1166L20.2971 87.7638L20.4971 89.2504ZM17.8739 89.6033L18.2211 91.0625L15.6518 91.6738L15.3046 90.2145L14.9574 88.7553L17.5267 88.144L17.8739 89.6033ZM15.3046 90.2145L15.7809 91.6369L13.2601 92.4811L12.7838 91.0588L12.3074 89.6364L14.8282 88.7922L15.3046 90.2145ZM12.7838 91.0588L14.0993 91.7794L13.0992 93.6053L11.7836 92.8847L10.468 92.1641L11.4682 90.3382L12.7838 91.0588ZM11.7836 92.8847L13.2815 92.8054L13.4213 95.4454L11.9234 95.5247L10.4255 95.604L10.2857 92.964L11.7836 92.8847ZM11.9234 95.5247L13.4202 95.6226L13.2476 98.2626L11.7507 98.1647L10.2539 98.0668L10.4266 95.4268L11.9234 95.5247ZM11.7507 98.1647L13.2397 97.983L13.5619 100.623L12.0729 100.805L10.584 100.986L10.2618 98.3464L11.7507 98.1647ZM12.0729 100.805L13.5721 100.854L13.4855 103.494L11.9863 103.445L10.4871 103.396L10.5737 100.756L12.0729 100.805ZM11.9863 103.445L13.4856 103.493L13.4005 106.133L11.9013 106.085L10.4021 106.036L10.4871 103.396L11.9863 103.445ZM11.9013 106.085L13.3984 106.178L13.2344 108.818L11.7373 108.725L10.2402 108.632L10.4042 105.992L11.9013 106.085ZM11.7373 108.725L13.2144 108.463L13.6813 111.103L12.2042 111.365L10.7271 111.626L10.2603 108.986L11.7373 108.725ZM12.2042 111.365L13.6816 111.624L13.2182 114.264L11.7408 114.005L10.2634 113.745L10.7268 111.105L12.2042 111.365ZM11.7408 114.005L13.1083 113.388L14.0122 115.394L12.6447 116.01L11.2772 116.627L10.3733 114.621L11.7408 114.005ZM12.6447 116.01L12.7256 114.513L15.3656 114.655L15.2847 116.153L15.2038 117.651L12.5638 117.508L12.6447 116.01ZM15.2847 116.153L15.0721 114.668L17.7121 114.29L17.9247 115.775L18.1373 117.26L15.4973 117.638L15.2847 116.153ZM17.9247 115.775L18.1984 114.3L20.8384 114.79L20.5647 116.265L20.291 117.74L17.651 117.25L17.9247 115.775ZM20.5647 116.265L20.4864 114.767L23.1264 114.629L23.2047 116.127L23.2829 117.625L20.6429 117.763L20.5647 116.265ZM23.2047 116.127L23.1725 114.627L25.8125 114.571L25.8447 116.07L25.8769 117.57L23.2369 117.627L23.2047 116.127ZM25.8447 116.07L25.8696 114.571L28.5096 114.614L28.4847 116.114L28.4597 117.614L25.8197 117.57L25.8447 116.07ZM28.4847 116.114L28.2997 114.626L30.9397 114.298L31.1247 115.786L31.3097 117.275L28.6697 117.603L28.4847 116.114ZM31.1247 115.786L31.2612 114.292L33.9012 114.534L33.7647 116.027L33.6282 117.521L30.9882 117.28L31.1247 115.786ZM33.7647 116.027L33.4857 114.554L35.7686 114.121L36.0476 115.595L36.3266 117.069L34.0437 117.501L33.7647 116.027ZM36.0476 115.595L34.5571 115.764L34.2582 113.124L35.7487 112.955L37.2392 112.787L37.5381 115.427L36.0476 115.595ZM35.7487 112.955L34.2653 112.732L34.6622 110.092L36.1455 110.315L37.6288 110.538L37.232 113.178L35.7487 112.955ZM36.1455 110.315L34.6473 110.389L34.5179 107.749L36.0161 107.675L37.5143 107.602L37.6437 110.242L36.1455 110.315ZM36.0161 107.675L34.5186 107.761L34.3679 105.121L35.8654 105.035L37.363 104.95L37.5137 107.59L36.0161 107.675ZM35.8654 105.035L34.3703 104.914L34.5837 102.274L36.0788 102.395L37.5739 102.516L37.3606 105.156L35.8654 105.035ZM36.0788 102.395L34.5788 102.385L34.5967 99.7452L36.0967 99.7553L37.5966 99.7654L37.5788 102.405L36.0788 102.395ZM36.0967 99.7553L34.6103 99.9569L34.2522 97.3169L35.7386 97.1153L37.225 96.9137L37.5831 99.5537L36.0967 99.7553ZM35.7386 97.1153L34.2626 96.8483L34.7402 94.2083L36.2162 94.4753L37.6923 94.7423L37.2147 97.3823L35.7386 97.1153ZM36.2162 94.4753L34.7362 94.719L34.3014 92.079L35.7815 91.8353L37.2616 91.5916L37.6963 94.2316L36.2162 94.4753ZM35.7815 91.8353L34.282 91.7968L34.3498 89.1568L35.8493 89.1953L37.3488 89.2338L37.281 91.8738L35.7815 91.8353ZM35.8493 89.1953L34.3665 88.9691L34.7692 86.3291L36.2521 86.5553L37.7349 86.7815L37.3322 89.4215L35.8493 89.1953ZM36.2521 86.5553L34.8862 87.1753L34.6341 86.62L36 86L37.3659 85.38L37.6179 85.9353L36.2521 86.5553Z" fill="black"/>
<path d="M84 87L84.3059 85.5315L82.249 85.103L82.5118 87.1876L84 87ZM84.0979 87.0204L83.792 88.4889L83.8236 88.4954L83.8554 88.5007L84.0979 87.0204ZM86.6068 87.4314L87.0648 86.003L86.959 85.9691L86.8493 85.9511L86.6068 87.4314ZM89.1346 88.2419L88.6767 89.6703L88.8212 89.7166L88.9721 89.7331L89.1346 88.2419ZM91.7714 88.5294L92.018 87.0498L91.9761 87.0428L91.934 87.0382L91.7714 88.5294ZM94.3776 88.9636L94.7965 87.5233L94.7115 87.4986L94.6242 87.484L94.3776 88.9636ZM96.9203 89.703L96.5014 91.1434L96.5549 91.1589L96.6093 91.1704L96.9203 89.703ZM99.5029 90.2504L99.1919 91.7178L99.2471 91.7295L99.303 91.737L99.5029 90.2504ZM102.126 90.6033L102.473 89.144L102.4 89.1266L102.326 89.1166L102.126 90.6033ZM104.695 91.2145L105.172 89.7922L105.108 89.7708L105.043 89.7553L104.695 91.2145ZM107.216 92.0588L108.532 91.3382L108.25 90.823L107.693 90.6364L107.216 92.0588ZM108.216 93.8847L109.714 93.964L109.737 93.5381L109.532 93.1641L108.216 93.8847ZM108.077 96.5247L106.579 96.4454L106.574 96.534L106.58 96.6226L108.077 96.5247ZM108.249 99.1647L109.738 99.3464L109.755 99.207L109.746 99.0668L108.249 99.1647ZM107.927 101.805L106.438 101.623L106.424 101.738L106.428 101.854L107.927 101.805ZM108.014 104.445L109.513 104.396L109.513 104.396L108.014 104.445ZM108.099 107.085L106.599 107.133L106.6 107.155L106.602 107.178L108.099 107.085ZM108.263 109.725L109.74 109.986L109.771 109.81L109.76 109.632L108.263 109.725ZM107.796 112.365L106.319 112.103L106.273 112.364L106.318 112.624L107.796 112.365ZM108.259 115.005L108.96 116.331L109.925 115.821L109.737 114.745L108.259 115.005ZM106.355 116.01L106.436 117.508L106.765 117.49L107.056 117.337L106.355 116.01ZM103.715 116.153L103.503 117.638L103.649 117.659L103.796 117.651L103.715 116.153ZM101.075 115.775L101.288 114.29L101.044 114.255L100.802 114.3L101.075 115.775ZM98.4353 116.265L98.3571 117.763L98.5344 117.772L98.709 117.74L98.4353 116.265ZM95.7953 116.127L95.8736 114.629L95.8506 114.628L95.8275 114.627L95.7953 116.127ZM93.1553 116.07L93.1875 114.571L93.1589 114.57L93.1304 114.571L93.1553 116.07ZM90.5153 116.114L90.3303 117.603L90.4349 117.616L90.5403 117.614L90.5153 116.114ZM87.8753 115.786L88.0603 114.298L87.8998 114.278L87.7388 114.292L87.8753 115.786ZM85.2353 116.027L84.118 117.028L84.6211 117.59L85.3718 117.521L85.2353 116.027ZM83.9524 114.595L82.4619 114.427L82.3862 115.095L82.8351 115.596L83.9524 114.595ZM84.2513 111.955L85.7418 112.124L85.764 111.928L85.7347 111.732L84.2513 111.955ZM83.8545 109.315L82.3563 109.242L82.349 109.391L82.3712 109.538L83.8545 109.315ZM83.9839 106.675L82.4863 106.59L82.4857 106.602L83.9839 106.675ZM84.1346 104.035L85.6321 104.121L85.638 104.018L85.6297 103.914L84.1346 104.035ZM83.9212 101.395L82.4212 101.405L82.4216 101.461L82.4261 101.516L83.9212 101.395ZM83.9033 98.7553L82.4169 98.5537L82.4027 98.6591L82.4034 98.7654L83.9033 98.7553ZM84.2614 96.1153L85.7478 96.3169L85.7797 96.0818L85.7374 95.8483L84.2614 96.1153ZM83.7838 93.4753L82.3037 93.2316L82.2616 93.4873L82.3077 93.7423L83.7838 93.4753ZM84.2185 90.8353L85.6986 91.079L85.7217 90.9388L85.718 90.7968L84.2185 90.8353ZM84.1507 88.1953L85.6502 88.1568L85.6483 88.082L85.6389 88.0077L84.1507 88.1953ZM84 87L83.6941 88.4685L83.792 88.4889L84.0979 87.0204L84.4038 85.5519L84.3059 85.5315L84 87ZM84.0979 87.0204L83.8554 88.5007L86.3643 88.9117L86.6068 87.4314L86.8493 85.9511L84.3404 85.5401L84.0979 87.0204ZM86.6068 87.4314L86.1488 88.8598L88.6767 89.6703L89.1346 88.2419L89.5926 86.8135L87.0648 86.003L86.6068 87.4314ZM89.1346 88.2419L88.9721 89.7331L91.6089 90.0205L91.7714 88.5294L91.934 87.0382L89.2972 86.7507L89.1346 88.2419ZM91.7714 88.5294L91.5249 90.009L94.1311 90.4432L94.3776 88.9636L94.6242 87.484L92.018 87.0498L91.7714 88.5294ZM94.3776 88.9636L93.9588 90.404L96.5014 91.1434L96.9203 89.703L97.3391 88.2627L94.7965 87.5233L94.3776 88.9636ZM96.9203 89.703L96.6093 91.1704L99.1919 91.7178L99.5029 90.2504L99.8139 88.783L97.2313 88.2356L96.9203 89.703ZM99.5029 90.2504L99.303 91.737L101.926 92.0899L102.126 90.6033L102.326 89.1166L99.7029 88.7638L99.5029 90.2504ZM102.126 90.6033L101.779 92.0625L104.348 92.6738L104.695 91.2145L105.043 89.7553L102.473 89.144L102.126 90.6033ZM104.695 91.2145L104.219 92.6369L106.74 93.4811L107.216 92.0588L107.693 90.6364L105.172 89.7922L104.695 91.2145ZM107.216 92.0588L105.901 92.7794L106.901 94.6053L108.216 93.8847L109.532 93.1641L108.532 91.3382L107.216 92.0588ZM108.216 93.8847L106.718 93.8054L106.579 96.4454L108.077 96.5247L109.574 96.604L109.714 93.964L108.216 93.8847ZM108.077 96.5247L106.58 96.6226L106.752 99.2626L108.249 99.1647L109.746 99.0668L109.573 96.4268L108.077 96.5247ZM108.249 99.1647L106.76 98.983L106.438 101.623L107.927 101.805L109.416 101.986L109.738 99.3464L108.249 99.1647ZM107.927 101.805L106.428 101.854L106.514 104.494L108.014 104.445L109.513 104.396L109.426 101.756L107.927 101.805ZM108.014 104.445L106.514 104.493L106.599 107.133L108.099 107.085L109.598 107.036L109.513 104.396L108.014 104.445ZM108.099 107.085L106.602 107.178L106.766 109.818L108.263 109.725L109.76 109.632L109.596 106.992L108.099 107.085ZM108.263 109.725L106.786 109.463L106.319 112.103L107.796 112.365L109.273 112.626L109.74 109.986L108.263 109.725ZM107.796 112.365L106.318 112.624L106.782 115.264L108.259 115.005L109.737 114.745L109.273 112.105L107.796 112.365ZM108.259 115.005L107.559 113.678L105.655 114.684L106.355 116.01L107.056 117.337L108.96 116.331L108.259 115.005ZM106.355 116.01L106.274 114.513L103.634 114.655L103.715 116.153L103.796 117.651L106.436 117.508L106.355 116.01ZM103.715 116.153L103.928 114.668L101.288 114.29L101.075 115.775L100.863 117.26L103.503 117.638L103.715 116.153ZM101.075 115.775L100.802 114.3L98.1616 114.79L98.4353 116.265L98.709 117.74L101.349 117.25L101.075 115.775ZM98.4353 116.265L98.5135 114.767L95.8736 114.629L95.7953 116.127L95.7171 117.625L98.3571 117.763L98.4353 116.265ZM95.7953 116.127L95.8275 114.627L93.1875 114.571L93.1553 116.07L93.1231 117.57L95.7631 117.627L95.7953 116.127ZM93.1553 116.07L93.1304 114.571L90.4904 114.614L90.5153 116.114L90.5403 117.614L93.1803 117.57L93.1553 116.07ZM90.5153 116.114L90.7003 114.626L88.0603 114.298L87.8753 115.786L87.6903 117.275L90.3303 117.603L90.5153 116.114ZM87.8753 115.786L87.7388 114.292L85.0988 114.534L85.2353 116.027L85.3718 117.521L88.0118 117.28L87.8753 115.786ZM85.2353 116.027L86.3526 115.027L85.0696 113.594L83.9524 114.595L82.8351 115.596L84.118 117.028L85.2353 116.027ZM83.9524 114.595L85.4429 114.764L85.7418 112.124L84.2513 111.955L82.7608 111.787L82.4619 114.427L83.9524 114.595ZM84.2513 111.955L85.7347 111.732L85.3378 109.092L83.8545 109.315L82.3712 109.538L82.768 112.178L84.2513 111.955ZM83.8545 109.315L85.3527 109.389L85.4821 106.749L83.9839 106.675L82.4857 106.602L82.3563 109.242L83.8545 109.315ZM83.9839 106.675L85.4814 106.761L85.6321 104.121L84.1346 104.035L82.637 103.95L82.4863 106.59L83.9839 106.675ZM84.1346 104.035L85.6297 103.914L85.4163 101.274L83.9212 101.395L82.4261 101.516L82.6394 104.156L84.1346 104.035ZM83.9212 101.395L85.4212 101.385L85.4033 98.7452L83.9033 98.7553L82.4034 98.7654L82.4212 101.405L83.9212 101.395ZM83.9033 98.7553L85.3897 98.9569L85.7478 96.3169L84.2614 96.1153L82.775 95.9137L82.4169 98.5537L83.9033 98.7553ZM84.2614 96.1153L85.7374 95.8483L85.2598 93.2083L83.7838 93.4753L82.3077 93.7423L82.7853 96.3823L84.2614 96.1153ZM83.7838 93.4753L85.2638 93.719L85.6986 91.079L84.2185 90.8353L82.7384 90.5916L82.3037 93.2316L83.7838 93.4753ZM84.2185 90.8353L85.718 90.7968L85.6502 88.1568L84.1507 88.1953L82.6512 88.2338L82.719 90.8738L84.2185 90.8353ZM84.1507 88.1953L85.6389 88.0077L85.4882 86.8124L84 87L82.5118 87.1876L82.6625 88.3829L84.1507 88.1953Z" fill="black"/>
<path d="M36 102L35.8139 100.512L35.9066 100.5H36V102ZM35.9008 102.012L36.0868 103.501L36.0548 103.505L36.0226 103.507L35.9008 102.012ZM33.3668 102.219L33.026 100.758L33.1342 100.733L33.245 100.724L33.3668 102.219ZM30.7817 102.822L31.1225 104.283L30.9747 104.317L30.823 104.322L30.7817 102.822ZM28.1303 102.895L28.0043 101.401L28.0466 101.397L28.089 101.396L28.1303 102.895ZM25.4975 103.117L25.1966 101.648L25.2833 101.63L25.3715 101.622L25.4975 103.117ZM22.9033 103.648L23.2042 105.118L23.1497 105.129L23.0945 105.136L22.9033 103.648ZM20.2848 103.985L20.476 105.473L20.4201 105.48L20.3638 105.483L20.2848 103.985ZM17.6417 104.124L17.4138 102.642L17.4879 102.63L17.5627 102.626L17.6417 104.124ZM15.0313 104.525L14.6717 103.069L14.7369 103.053L14.8034 103.043L15.0313 104.525ZM12.4504 105.163L11.024 104.699L11.2817 103.906L12.0908 103.707L12.4504 105.163ZM11.7836 107.213L10.2857 107.293L10.271 107.014L10.3572 106.749L11.7836 107.213ZM11.9234 109.853L13.4213 109.774L13.426 109.863L13.4202 109.951L11.9234 109.853ZM11.7507 112.493L10.2618 112.675L10.2448 112.536L10.2539 112.395L11.7507 112.493ZM12.0729 115.133L11.3832 116.465L10.6799 116.101L10.584 115.315L12.0729 115.133ZM13.7732 116.014L13.7249 117.513L13.3853 117.502L13.0835 117.346L13.7732 116.014ZM16.4132 116.099L16.4615 114.599L16.4839 114.6L16.5062 114.602L16.4132 116.099ZM19.0532 116.263L19.3145 117.74L19.1385 117.771L18.9602 117.76L19.0532 116.263ZM21.6932 115.796L21.432 114.319L21.6923 114.273L21.9526 114.318L21.6932 115.796ZM24.3332 116.259L24.474 117.753L24.2729 117.772L24.0739 117.737L24.3332 116.259ZM26.9732 116.01L26.8324 114.517L26.9431 114.507L27.0541 114.513L26.9732 116.01ZM29.6132 116.153L29.8258 117.638L29.6797 117.659L29.5323 117.651L29.6132 116.153ZM32.2532 115.775L32.0406 114.29L32.2846 114.255L32.5269 114.3L32.2532 115.775ZM34.8932 116.265L36.1301 117.114L35.5783 117.918L34.6195 117.74L34.8932 116.265ZM36.127 114.467L37.6267 114.435L37.6371 114.917L37.3639 115.315L36.127 114.467ZM36.0703 111.827L34.5706 111.859L34.57 111.83L34.5705 111.802L36.0703 111.827ZM36.1142 109.187L37.6028 109.002L37.6158 109.106L37.614 109.212L36.1142 109.187ZM35.7861 106.547L34.2976 106.732L34.2776 106.571L34.2924 106.41L35.7861 106.547ZM36.0274 103.907L37.5273 103.923L37.5267 103.983L37.5212 104.043L36.0274 103.907ZM36.0476 102V100.5H37.5636L37.5475 102.016L36.0476 102ZM36 102L36.1861 103.488L36.0868 103.501L35.9008 102.012L35.7147 100.524L35.8139 100.512L36 102ZM35.9008 102.012L36.0226 103.507L33.4887 103.714L33.3668 102.219L33.245 100.724L35.7789 100.517L35.9008 102.012ZM33.3668 102.219L33.7077 103.68L31.1225 104.283L30.7817 102.822L30.4408 101.361L33.026 100.758L33.3668 102.219ZM30.7817 102.822L30.823 104.322L28.1716 104.395L28.1303 102.895L28.089 101.396L30.7404 101.323L30.7817 102.822ZM28.1303 102.895L28.2562 104.39L25.6234 104.612L25.4975 103.117L25.3715 101.622L28.0043 101.401L28.1303 102.895ZM25.4975 103.117L25.7983 104.587L23.2042 105.118L22.9033 103.648L22.6024 102.179L25.1966 101.648L25.4975 103.117ZM22.9033 103.648L23.0945 105.136L20.476 105.473L20.2848 103.985L20.0936 102.497L22.7121 102.16L22.9033 103.648ZM20.2848 103.985L20.3638 105.483L17.7207 105.622L17.6417 104.124L17.5627 102.626L20.2058 102.487L20.2848 103.985ZM17.6417 104.124L17.8696 105.607L15.2592 106.008L15.0313 104.525L14.8034 103.043L17.4138 102.642L17.6417 104.124ZM15.0313 104.525L15.391 105.982L12.8101 106.619L12.4504 105.163L12.0908 103.707L14.6717 103.069L15.0313 104.525ZM12.4504 105.163L13.8769 105.627L13.2101 107.677L11.7836 107.213L10.3572 106.749L11.024 104.699L12.4504 105.163ZM11.7836 107.213L13.2815 107.134L13.4213 109.774L11.9234 109.853L10.4255 109.933L10.2857 107.293L11.7836 107.213ZM11.9234 109.853L13.4202 109.951L13.2476 112.591L11.7507 112.493L10.2539 112.395L10.4266 109.755L11.9234 109.853ZM11.7507 112.493L13.2397 112.312L13.5619 114.952L12.0729 115.133L10.584 115.315L10.2618 112.675L11.7507 112.493ZM12.0729 115.133L12.7627 113.801L14.463 114.682L13.7732 116.014L13.0835 117.346L11.3832 116.465L12.0729 115.133ZM13.7732 116.014L13.8215 114.514L16.4615 114.599L16.4132 116.099L16.3649 117.598L13.7249 117.513L13.7732 116.014ZM16.4132 116.099L16.5062 114.602L19.1462 114.766L19.0532 116.263L18.9602 117.76L16.3202 117.596L16.4132 116.099ZM19.0532 116.263L18.792 114.786L21.432 114.319L21.6932 115.796L21.9545 117.273L19.3145 117.74L19.0532 116.263ZM21.6932 115.796L21.9526 114.318L24.5926 114.782L24.3332 116.259L24.0739 117.737L21.4339 117.273L21.6932 115.796ZM24.3332 116.259L24.1924 114.766L26.8324 114.517L26.9732 116.01L27.114 117.504L24.474 117.753L24.3332 116.259ZM26.9732 116.01L27.0541 114.513L29.6941 114.655L29.6132 116.153L29.5323 117.651L26.8923 117.508L26.9732 116.01ZM29.6132 116.153L29.4006 114.668L32.0406 114.29L32.2532 115.775L32.4658 117.26L29.8258 117.638L29.6132 116.153ZM32.2532 115.775L32.5269 114.3L35.1669 114.79L34.8932 116.265L34.6195 117.74L31.9795 117.25L32.2532 115.775ZM34.8932 116.265L33.6564 115.416L34.8902 113.618L36.127 114.467L37.3639 115.315L36.1301 117.114L34.8932 116.265ZM36.127 114.467L34.6274 114.499L34.5706 111.859L36.0703 111.827L37.57 111.795L37.6267 114.435L36.127 114.467ZM36.0703 111.827L34.5705 111.802L34.6144 109.162L36.1142 109.187L37.614 109.212L37.5701 111.852L36.0703 111.827ZM36.1142 109.187L34.6257 109.372L34.2976 106.732L35.7861 106.547L37.2747 106.362L37.6028 109.002L36.1142 109.187ZM35.7861 106.547L34.2924 106.41L34.5337 103.77L36.0274 103.907L37.5212 104.043L37.2799 106.683L35.7861 106.547ZM36.0274 103.907L34.5275 103.891L34.5477 101.984L36.0476 102L37.5475 102.016L37.5273 103.923L36.0274 103.907ZM36.0476 102V103.5H36V102V100.5H36.0476V102Z" fill="black"/>
<path d="M84 102L84.1861 100.512L84.0934 100.5H84V102ZM84.0992 102.012L83.9132 103.501L83.9452 103.505L83.9774 103.507L84.0992 102.012ZM86.6332 102.219L86.974 100.758L86.8658 100.733L86.755 100.724L86.6332 102.219ZM89.2183 102.822L88.8775 104.283L89.0253 104.317L89.177 104.322L89.2183 102.822ZM91.8697 102.895L91.9957 101.401L91.9534 101.397L91.911 101.396L91.8697 102.895ZM94.5025 103.117L94.8034 101.648L94.7167 101.63L94.6285 101.622L94.5025 103.117ZM97.0967 103.648L96.7958 105.118L96.8503 105.129L96.9055 105.136L97.0967 103.648ZM99.7152 103.985L99.524 105.473L99.5799 105.48L99.6362 105.483L99.7152 103.985ZM102.358 104.124L102.586 102.642L102.512 102.63L102.437 102.626L102.358 104.124ZM104.969 104.525L105.328 103.069L105.263 103.053L105.197 103.043L104.969 104.525ZM107.55 105.163L108.976 104.699L108.718 103.906L107.909 103.707L107.55 105.163ZM108.216 107.213L109.714 107.293L109.729 107.014L109.643 106.749L108.216 107.213ZM108.077 109.853L106.579 109.774L106.574 109.863L106.58 109.951L108.077 109.853ZM108.249 112.493L109.738 112.675L109.755 112.536L109.746 112.395L108.249 112.493ZM107.927 115.133L108.617 116.465L109.32 116.101L109.416 115.315L107.927 115.133ZM106.227 116.014L106.275 117.513L106.615 117.502L106.917 117.346L106.227 116.014ZM103.587 116.099L103.538 114.599L103.516 114.6L103.494 114.602L103.587 116.099ZM100.947 116.263L100.686 117.74L100.861 117.771L101.04 117.76L100.947 116.263ZM98.3068 115.796L98.568 114.319L98.3077 114.273L98.0474 114.318L98.3068 115.796ZM95.6668 116.259L95.526 117.753L95.7271 117.772L95.9261 117.737L95.6668 116.259ZM93.0268 116.01L93.1676 114.517L93.0569 114.507L92.9459 114.513L93.0268 116.01ZM90.3868 116.153L90.1742 117.638L90.3203 117.659L90.4677 117.651L90.3868 116.153ZM87.7468 115.775L87.9594 114.29L87.7154 114.255L87.4731 114.3L87.7468 115.775ZM85.1068 116.265L83.8699 117.114L84.4217 117.918L85.3805 117.74L85.1068 116.265ZM83.873 114.467L82.3733 114.435L82.3629 114.917L82.6361 115.315L83.873 114.467ZM83.9297 111.827L85.4294 111.859L85.43 111.83L85.4295 111.802L83.9297 111.827ZM83.8858 109.187L82.3972 109.002L82.3842 109.106L82.386 109.212L83.8858 109.187ZM84.2139 106.547L85.7024 106.732L85.7224 106.571L85.7076 106.41L84.2139 106.547ZM83.9726 103.907L82.4727 103.923L82.4733 103.983L82.4788 104.043L83.9726 103.907ZM83.9524 102V100.5H82.4364L82.4525 102.016L83.9524 102ZM84 102L83.8139 103.488L83.9132 103.501L84.0992 102.012L84.2853 100.524L84.1861 100.512L84 102ZM84.0992 102.012L83.9774 103.507L86.5113 103.714L86.6332 102.219L86.755 100.724L84.2211 100.517L84.0992 102.012ZM86.6332 102.219L86.2923 103.68L88.8775 104.283L89.2183 102.822L89.5592 101.361L86.974 100.758L86.6332 102.219ZM89.2183 102.822L89.177 104.322L91.8284 104.395L91.8697 102.895L91.911 101.396L89.2596 101.323L89.2183 102.822ZM91.8697 102.895L91.7438 104.39L94.3766 104.612L94.5025 103.117L94.6285 101.622L91.9957 101.401L91.8697 102.895ZM94.5025 103.117L94.2017 104.587L96.7958 105.118L97.0967 103.648L97.3976 102.179L94.8034 101.648L94.5025 103.117ZM97.0967 103.648L96.9055 105.136L99.524 105.473L99.7152 103.985L99.9064 102.497L97.2879 102.16L97.0967 103.648ZM99.7152 103.985L99.6362 105.483L102.279 105.622L102.358 104.124L102.437 102.626L99.7942 102.487L99.7152 103.985ZM102.358 104.124L102.13 105.607L104.741 106.008L104.969 104.525L105.197 103.043L102.586 102.642L102.358 104.124ZM104.969 104.525L104.609 105.982L107.19 106.619L107.55 105.163L107.909 103.707L105.328 103.069L104.969 104.525ZM107.55 105.163L106.123 105.627L106.79 107.677L108.216 107.213L109.643 106.749L108.976 104.699L107.55 105.163ZM108.216 107.213L106.718 107.134L106.579 109.774L108.077 109.853L109.574 109.933L109.714 107.293L108.216 107.213ZM108.077 109.853L106.58 109.951L106.752 112.591L108.249 112.493L109.746 112.395L109.573 109.755L108.077 109.853ZM108.249 112.493L106.76 112.312L106.438 114.952L107.927 115.133L109.416 115.315L109.738 112.675L108.249 112.493ZM107.927 115.133L107.237 113.801L105.537 114.682L106.227 116.014L106.917 117.346L108.617 116.465L107.927 115.133ZM106.227 116.014L106.178 114.514L103.538 114.599L103.587 116.099L103.635 117.598L106.275 117.513L106.227 116.014ZM103.587 116.099L103.494 114.602L100.854 114.766L100.947 116.263L101.04 117.76L103.68 117.596L103.587 116.099ZM100.947 116.263L101.208 114.786L98.568 114.319L98.3068 115.796L98.0455 117.273L100.686 117.74L100.947 116.263ZM98.3068 115.796L98.0474 114.318L95.4074 114.782L95.6668 116.259L95.9261 117.737L98.5661 117.273L98.3068 115.796ZM95.6668 116.259L95.8076 114.766L93.1676 114.517L93.0268 116.01L92.886 117.504L95.526 117.753L95.6668 116.259ZM93.0268 116.01L92.9459 114.513L90.3059 114.655L90.3868 116.153L90.4677 117.651L93.1077 117.508L93.0268 116.01ZM90.3868 116.153L90.5994 114.668L87.9594 114.29L87.7468 115.775L87.5342 117.26L90.1742 117.638L90.3868 116.153ZM87.7468 115.775L87.4731 114.3L84.8331 114.79L85.1068 116.265L85.3805 117.74L88.0205 117.25L87.7468 115.775ZM85.1068 116.265L86.3436 115.416L85.1098 113.618L83.873 114.467L82.6361 115.315L83.8699 117.114L85.1068 116.265ZM83.873 114.467L85.3726 114.499L85.4294 111.859L83.9297 111.827L82.43 111.795L82.3733 114.435L83.873 114.467ZM83.9297 111.827L85.4295 111.802L85.3856 109.162L83.8858 109.187L82.386 109.212L82.4299 111.852L83.9297 111.827ZM83.8858 109.187L85.3743 109.372L85.7024 106.732L84.2139 106.547L82.7253 106.362L82.3972 109.002L83.8858 109.187ZM84.2139 106.547L85.7076 106.41L85.4663 103.77L83.9726 103.907L82.4788 104.043L82.7201 106.683L84.2139 106.547ZM83.9726 103.907L85.4725 103.891L85.4523 101.984L83.9524 102L82.4525 102.016L82.4727 103.923L83.9726 103.907ZM83.9524 102V103.5H84V102V100.5H83.9524V102Z" fill="black"/>
<path d="M65 98.5L64.6613 97.0387L63.5 97.3079V98.5H65ZM65 98.6H63.5V98.6323L63.5014 98.6645L65 98.6ZM65.1093 101.14L66.6011 101.297L66.6127 101.187L66.6079 101.075L65.1093 101.14ZM64.8314 103.78L63.3397 103.623L63.3238 103.774L63.3385 103.925L64.8314 103.78ZM65.0878 106.42L66.5866 106.36L66.5849 106.317L66.5808 106.275L65.0878 106.42ZM65.1942 109.06L66.6897 109.176L66.6966 109.088L66.693 109L65.1942 109.06ZM64.9889 111.7L63.4935 111.584L63.4891 111.639L63.489 111.695L64.9889 111.7ZM64.9798 114.34L66.3081 115.037L66.4785 114.712L66.4798 114.345L64.9798 114.34ZM64.02 116.169L63.9777 117.669L64.9134 117.695L65.3483 116.866L64.02 116.169ZM61.38 116.095L61.2037 117.585L61.2705 117.592L61.3377 117.594L61.38 116.095ZM58.74 115.783L58.9163 114.293L58.7059 114.268L58.4968 114.302L58.74 115.783ZM56.1 116.216L54.6031 116.312L54.709 117.965L56.3432 117.697L56.1 116.216ZM55.9234 113.46L57.4203 113.364L57.4202 113.362L55.9234 113.46ZM55.7507 110.82L54.2618 110.638L54.2448 110.778L54.2539 110.918L55.7507 110.82ZM56.0729 108.18L57.5619 108.362L57.5759 108.247L57.5721 108.131L56.0729 108.18ZM55.9863 105.54L54.4871 105.588L54.4871 105.589L55.9863 105.54ZM55.9013 102.9L57.4005 102.852L57.3998 102.829L57.3984 102.807L55.9013 102.9ZM55.7373 100.26L54.2697 99.9501L54.2276 100.15L54.2402 100.353L55.7373 100.26ZM56.2853 97.6648L54.8621 97.191L54.8353 97.2717L54.8177 97.3549L56.2853 97.6648ZM57.124 95.1455L56.5302 93.768L55.913 94.0341L55.7007 94.6718L57.124 95.1455ZM59.595 94.0805L59.6547 92.5817L59.3142 92.5681L59.0013 92.703L59.595 94.0805ZM62.2466 94.1861L63.3408 93.16L62.9204 92.7117L62.3063 92.6873L62.2466 94.1861ZM64.0301 96.088L65.3581 95.3906L65.2635 95.2104L65.1243 95.062L64.0301 96.088ZM65.2646 98.4387L65.6033 99.8999L67.4958 99.4612L66.5926 97.7412L65.2646 98.4387ZM65 98.5H63.5V98.6H65H66.5V98.5H65ZM65 98.6L63.5014 98.6645L63.6107 101.205L65.1093 101.14L66.6079 101.075L66.4986 98.5355L65 98.6ZM65.1093 101.14L63.6176 100.983L63.3397 103.623L64.8314 103.78L66.3232 103.937L66.6011 101.297L65.1093 101.14ZM64.8314 103.78L63.3385 103.925L63.5948 106.565L65.0878 106.42L66.5808 106.275L66.3244 103.635L64.8314 103.78ZM65.0878 106.42L63.589 106.48L63.6954 109.12L65.1942 109.06L66.693 109L66.5866 106.36L65.0878 106.42ZM65.1942 109.06L63.6987 108.944L63.4935 111.584L64.9889 111.7L66.4844 111.816L66.6897 109.176L65.1942 109.06ZM64.9889 111.7L63.489 111.695L63.4798 114.335L64.9798 114.34L66.4798 114.345L66.4889 111.705L64.9889 111.7ZM64.9798 114.34L63.6515 113.643L62.6917 115.472L64.02 116.169L65.3483 116.866L66.3081 115.037L64.9798 114.34ZM64.02 116.169L64.0623 114.67L61.4223 114.596L61.38 116.095L61.3377 117.594L63.9777 117.669L64.02 116.169ZM61.38 116.095L61.5563 114.605L58.9163 114.293L58.74 115.783L58.5637 117.272L61.2037 117.585L61.38 116.095ZM58.74 115.783L58.4968 114.302L55.8568 114.736L56.1 116.216L56.3432 117.697L58.9832 117.263L58.74 115.783ZM56.1 116.216L57.5969 116.12L57.4203 113.364L55.9234 113.46L54.4265 113.556L54.6031 116.312L56.1 116.216ZM55.9234 113.46L57.4202 113.362L57.2476 110.722L55.7507 110.82L54.2539 110.918L54.4266 113.558L55.9234 113.46ZM55.7507 110.82L57.2397 111.002L57.5619 108.362L56.0729 108.18L54.584 107.998L54.2618 110.638L55.7507 110.82ZM56.0729 108.18L57.5721 108.131L57.4855 105.491L55.9863 105.54L54.4871 105.589L54.5737 108.229L56.0729 108.18ZM55.9863 105.54L57.4856 105.492L57.4005 102.852L55.9013 102.9L54.4021 102.948L54.4871 105.588L55.9863 105.54ZM55.9013 102.9L57.3984 102.807L57.2344 100.167L55.7373 100.26L54.2402 100.353L54.4042 102.993L55.9013 102.9ZM55.7373 100.26L57.205 100.57L57.753 97.9747L56.2853 97.6648L54.8177 97.3549L54.2697 99.9501L55.7373 100.26ZM56.2853 97.6648L57.7085 98.1385L58.5472 95.6193L57.124 95.1455L55.7007 94.6718L54.8621 97.191L56.2853 97.6648ZM57.124 95.1455L57.7177 96.523L60.1887 95.458L59.595 94.0805L59.0013 92.703L56.5302 93.768L57.124 95.1455ZM59.595 94.0805L59.5354 95.5793L62.187 95.6849L62.2466 94.1861L62.3063 92.6873L59.6547 92.5817L59.595 94.0805ZM62.2466 94.1861L61.1524 95.2121L62.9359 97.114L64.0301 96.088L65.1243 95.062L63.3408 93.16L62.2466 94.1861ZM64.0301 96.088L62.7021 96.7854L63.9366 99.1361L65.2646 98.4387L66.5926 97.7412L65.3581 95.3906L64.0301 96.088ZM65.2646 98.4387L64.9258 96.9774L64.6613 97.0387L65 98.5L65.3387 99.9613L65.6033 99.8999L65.2646 98.4387Z" fill="black"/>
<path d="M46 73V71.5H43.5729L44.6584 73.6708L46 73ZM46.0447 73.0894L44.7031 73.7603L45.154 74.6621L46.1593 74.5851L46.0447 73.0894ZM48.64 72.8907L49.7787 71.9142L49.2836 71.337L48.5254 71.395L48.64 72.8907ZM49.8314 74.28L51.3244 74.135L51.2786 73.6633L50.9701 73.3035L49.8314 74.28ZM50.0878 76.92L51.5866 76.8596L51.5849 76.8172L51.5808 76.775L50.0878 76.92ZM50.1942 79.56L51.6897 79.6763L51.6966 79.588L51.693 79.4996L50.1942 79.56ZM49.9889 82.2L48.4935 82.0837L48.4891 82.1392L48.489 82.1948L49.9889 82.2ZM49.9798 84.84L50.9898 85.949L51.4775 85.5049L51.4798 84.8452L49.9798 84.84ZM48.52 86.1694L48.355 87.6603L49.0288 87.7348L49.53 87.2784L48.52 86.1694ZM45.905 85.88L44.4154 85.7037L44.2378 87.2047L45.74 87.3709L45.905 85.88ZM46.2174 83.24L47.707 83.4163L47.7319 83.2059L47.6976 82.9968L46.2174 83.24ZM45.7836 80.6L44.2857 80.5207L44.2771 80.6829L44.3035 80.8432L45.7836 80.6ZM45.9234 77.96L47.4213 78.0393L47.426 77.9507L47.4202 77.8621L45.9234 77.96ZM45.7507 75.32L44.265 75.1137L44.244 75.2652L44.2539 75.4179L45.7507 75.32ZM46.0729 73L47.5587 73.2063L47.7956 71.5H46.0729V73ZM46 73L44.6584 73.6708L44.7031 73.7603L46.0447 73.0894L47.3864 72.4186L47.3416 72.3292L46 73ZM46.0447 73.0894L46.1593 74.5851L48.7546 74.3863L48.64 72.8907L48.5254 71.395L45.9302 71.5938L46.0447 73.0894ZM48.64 72.8907L47.5013 73.8671L48.6928 75.2565L49.8314 74.28L50.9701 73.3035L49.7787 71.9142L48.64 72.8907ZM49.8314 74.28L48.3385 74.425L48.5948 77.065L50.0878 76.92L51.5808 76.775L51.3244 74.135L49.8314 74.28ZM50.0878 76.92L48.589 76.9804L48.6954 79.6204L50.1942 79.56L51.693 79.4996L51.5866 76.8596L50.0878 76.92ZM50.1942 79.56L48.6987 79.4437L48.4935 82.0837L49.9889 82.2L51.4844 82.3163L51.6897 79.6763L50.1942 79.56ZM49.9889 82.2L48.489 82.1948L48.4798 84.8348L49.9798 84.84L51.4798 84.8452L51.4889 82.2052L49.9889 82.2ZM49.9798 84.84L48.9699 83.7309L47.51 85.0603L48.52 86.1694L49.53 87.2784L50.9898 85.949L49.9798 84.84ZM48.52 86.1694L48.685 84.6785L46.07 84.3891L45.905 85.88L45.74 87.3709L48.355 87.6603L48.52 86.1694ZM45.905 85.88L47.3946 86.0563L47.707 83.4163L46.2174 83.24L44.7278 83.0637L44.4154 85.7037L45.905 85.88ZM46.2174 83.24L47.6976 82.9968L47.2638 80.3568L45.7836 80.6L44.3035 80.8432L44.7373 83.4832L46.2174 83.24ZM45.7836 80.6L47.2815 80.6793L47.4213 78.0393L45.9234 77.96L44.4255 77.8807L44.2857 80.5207L45.7836 80.6ZM45.9234 77.96L47.4202 77.8621L47.2476 75.2221L45.7507 75.32L44.2539 75.4179L44.4266 78.0579L45.9234 77.96ZM45.7507 75.32L47.2365 75.5263L47.5587 73.2063L46.0729 73L44.5872 72.7937L44.265 75.1137L45.7507 75.32ZM46.0729 73V71.5H46V73V74.5H46.0729V73Z" fill="black"/>
<path d="M70 73V71.5H67.5729L68.6584 73.6708L70 73ZM70.0447 73.0894L68.7031 73.7603L69.154 74.6621L70.1593 74.5851L70.0447 73.0894ZM72.64 72.8907L73.7787 71.9142L73.2836 71.337L72.5254 71.395L72.64 72.8907ZM73.8314 74.28L75.3244 74.135L75.2786 73.6633L74.9701 73.3035L73.8314 74.28ZM74.0878 76.92L75.5866 76.8596L75.5849 76.8172L75.5808 76.775L74.0878 76.92ZM74.1942 79.56L75.6897 79.6763L75.6966 79.588L75.693 79.4996L74.1942 79.56ZM73.9889 82.2L72.4935 82.0837L72.4891 82.1392L72.489 82.1948L73.9889 82.2ZM73.9798 84.84L74.9898 85.949L75.4775 85.5049L75.4798 84.8452L73.9798 84.84ZM72.52 86.1694L72.355 87.6603L73.0288 87.7348L73.53 87.2784L72.52 86.1694ZM69.905 85.88L68.4154 85.7037L68.2378 87.2047L69.74 87.3709L69.905 85.88ZM70.2174 83.24L71.707 83.4163L71.7319 83.2059L71.6976 82.9968L70.2174 83.24ZM69.7836 80.6L68.2857 80.5207L68.2771 80.6829L68.3035 80.8432L69.7836 80.6ZM69.9234 77.96L71.4213 78.0393L71.426 77.9507L71.4202 77.8621L69.9234 77.96ZM69.7507 75.32L68.265 75.1137L68.244 75.2652L68.2539 75.4179L69.7507 75.32ZM70.0729 73L71.5587 73.2063L71.7956 71.5H70.0729V73ZM70 73L68.6584 73.6708L68.7031 73.7603L70.0447 73.0894L71.3864 72.4186L71.3416 72.3292L70 73ZM70.0447 73.0894L70.1593 74.5851L72.7546 74.3863L72.64 72.8907L72.5254 71.395L69.9302 71.5938L70.0447 73.0894ZM72.64 72.8907L71.5013 73.8671L72.6928 75.2565L73.8314 74.28L74.9701 73.3035L73.7787 71.9142L72.64 72.8907ZM73.8314 74.28L72.3385 74.425L72.5948 77.065L74.0878 76.92L75.5808 76.775L75.3244 74.135L73.8314 74.28ZM74.0878 76.92L72.589 76.9804L72.6954 79.6204L74.1942 79.56L75.693 79.4996L75.5866 76.8596L74.0878 76.92ZM74.1942 79.56L72.6987 79.4437L72.4935 82.0837L73.9889 82.2L75.4844 82.3163L75.6897 79.6763L74.1942 79.56ZM73.9889 82.2L72.489 82.1948L72.4798 84.8348L73.9798 84.84L75.4798 84.8452L75.4889 82.2052L73.9889 82.2ZM73.9798 84.84L72.9699 83.7309L71.51 85.0603L72.52 86.1694L73.53 87.2784L74.9898 85.949L73.9798 84.84ZM72.52 86.1694L72.685 84.6785L70.07 84.3891L69.905 85.88L69.74 87.3709L72.355 87.6603L72.52 86.1694ZM69.905 85.88L71.3946 86.0563L71.707 83.4163L70.2174 83.24L68.7278 83.0637L68.4154 85.7037L69.905 85.88ZM70.2174 83.24L71.6976 82.9968L71.2638 80.3568L69.7836 80.6L68.3035 80.8432L68.7373 83.4832L70.2174 83.24ZM69.7836 80.6L71.2815 80.6793L71.4213 78.0393L69.9234 77.96L68.4255 77.8807L68.2857 80.5207L69.7836 80.6ZM69.9234 77.96L71.4202 77.8621L71.2476 75.2221L69.7507 75.32L68.2539 75.4179L68.4266 78.0579L69.9234 77.96ZM69.7507 75.32L71.2365 75.5263L71.5587 73.2063L70.0729 73L68.5872 72.7937L68.265 75.1137L69.7507 75.32ZM70.0729 73V71.5H70V73V74.5H70.0729V73Z" fill="black"/>
<path d="M83 74L82.5383 75.4272L84.9114 76.1948L84.4771 73.7388L83 74ZM82.9826 73.9015L81.4869 74.0148L81.4925 74.0892L81.5055 74.1627L82.9826 73.9015ZM82.7909 71.3708L81.291 71.3848L81.2915 71.4345L81.2952 71.484L82.7909 71.3708ZM82.7661 68.7147L84.266 68.7006L84.264 68.4903L84.2043 68.2886L82.7661 68.7147ZM82.012 66.1692L83.4502 65.7431L83.4453 65.7267L83.4401 65.7103L82.012 66.1692ZM81.2073 63.6652L79.7635 64.0717L79.7709 64.0981L79.7793 64.1241L81.2073 63.6652ZM80.492 61.1243L81.9358 60.7178L81.9033 60.6024L81.8529 60.4936L80.492 61.1243ZM79.3816 58.7286L80.7425 58.0978L80.6904 57.9854L80.6206 57.883L79.3816 58.7286ZM77.894 56.5488L76.6507 57.388L76.655 57.3944L77.894 56.5488ZM76.4244 54.3712L77.6677 53.5321L77.6626 53.5246L77.6574 53.5171L76.4244 54.3712ZM74.9076 52.1816L76.1406 51.3274L75.9726 51.0849L75.7252 50.924L74.9076 52.1816ZM72.666 50.7241L71.7274 51.8941L71.7857 51.9409L71.8484 51.9817L72.666 50.7241ZM70.6188 49.0817L71.5574 47.9117L71.4143 47.7969L71.2477 47.72L70.6188 49.0817ZM68.2377 47.9821L67.5347 49.3072L67.5712 49.3265L67.6087 49.3438L68.2377 47.9821ZM65.9004 46.7422L66.6033 45.4171L66.4073 45.3131L66.1896 45.2703L65.9004 46.7422ZM63.3066 46.2325L63.5958 44.7607L63.49 44.7399L63.3824 44.7344L63.3066 46.2325ZM60.6791 46.0996L60.7549 44.6015L60.6227 44.5948L60.4914 44.6114L60.6791 46.0996ZM58.0831 46.4271L58.1315 47.9263L58.2014 47.924L58.2708 47.9153L58.0831 46.4271ZM55.4102 46.5133L55.3619 45.0141L54.988 45.0262L54.6636 45.2124L55.4102 46.5133ZM53.0905 47.8447L53.6556 49.2342L53.7493 49.1961L53.8371 49.1457L53.0905 47.8447ZM50.6521 48.8365L50.087 47.447L49.8952 47.525L49.7318 47.6519L50.6521 48.8365ZM48.5733 50.4515L49.3978 51.7046L49.4471 51.6722L49.4936 51.636L48.5733 50.4515ZM46.3435 51.9187L45.519 50.6656L45.2423 50.8477L45.068 51.1295L46.3435 51.9187ZM44.9324 54.1994L46.0913 55.1518L46.1551 55.0741L46.208 54.9887L44.9324 54.1994ZM43.2669 56.226L42.108 55.2736L42.0476 55.3471L41.997 55.4277L43.2669 56.226ZM41.8669 58.4531L40.597 57.6547L40.5456 57.7364L40.5052 57.8241L41.8669 58.4531ZM40.7634 60.842L42.089 61.544L42.1081 61.508L42.1252 61.471L40.7634 60.842ZM39.5169 63.1959L38.1913 62.4939L38.0865 62.6918L38.0441 62.9117L39.5169 63.1959ZM39.0134 65.8055L40.4851 66.0953L40.4862 66.0897L39.0134 65.8055ZM38.5041 68.3924L39.9622 68.7444L39.9697 68.7134L39.9759 68.6821L38.5041 68.3924ZM37.8788 70.9819L36.4207 70.6298L36.3607 70.8783L36.3864 71.1326L37.8788 70.9819ZM38.1474 73.6414L36.655 73.7921L36.7708 74.9395L37.9095 75.1224L38.1474 73.6414ZM40.2799 73.9839L40.042 75.4649L40.1178 75.4771L40.1944 75.4814L40.2799 73.9839ZM42.9199 74.1346L42.8344 75.6321L42.9376 75.638L43.0407 75.6297L42.9199 74.1346ZM45.5599 73.9212L45.5497 72.4212L45.4943 72.4216L45.439 72.4261L45.5599 73.9212ZM48.1999 73.9033L48.4015 72.4169L48.2961 72.4027L48.1897 72.4034L48.1999 73.9033ZM50.8399 74.2614L50.6383 75.7478L50.8734 75.7797L51.1069 75.7374L50.8399 74.2614ZM53.4799 73.7838L53.7236 72.3037L53.4679 72.2616L53.2128 72.3077L53.4799 73.7838ZM56.1199 74.2185L55.8761 75.6986L56.0163 75.7217L56.1584 75.718L56.1199 74.2185ZM58.7599 74.1507L58.7984 75.6502L58.8928 75.6478L58.9861 75.6335L58.7599 74.1507ZM61.3999 73.7479L61.4052 72.2479L61.2888 72.2475L61.1737 72.2651L61.3999 73.7479ZM64.0399 73.7573L64.2567 72.2731L64.1515 72.2577L64.0452 72.2573L64.0399 73.7573ZM66.6799 74.143L66.463 75.6273L66.6129 75.6492L66.7642 75.6407L66.6799 74.143ZM69.3199 73.9944L69.3119 72.4944L69.2737 72.4946L69.2355 72.4967L69.3199 73.9944ZM71.9599 73.9803L72.0007 72.4808L71.9763 72.4802L71.9519 72.4803L71.9599 73.9803ZM74.5999 74.0522L74.559 75.5517L74.5685 75.5519L74.5999 74.0522ZM77.2399 74.1075L77.2905 72.6084L77.2809 72.608L77.2713 72.6078L77.2399 74.1075ZM79.8799 74.1967L79.8292 75.6959L79.9542 75.7001L80.0781 75.6835L79.8799 74.1967ZM82.5199 73.8447L82.9815 72.4175L82.6583 72.3129L82.3216 72.3578L82.5199 73.8447ZM83 74L84.4771 73.7388L84.4597 73.6403L82.9826 73.9015L81.5055 74.1627L81.5229 74.2612L83 74ZM82.9826 73.9015L84.4783 73.7883L84.2867 71.2575L82.7909 71.3708L81.2952 71.484L81.4869 74.0148L82.9826 73.9015ZM82.7909 71.3708L84.2909 71.3567L84.266 68.7006L82.7661 68.7147L81.2661 68.7287L81.291 71.3848L82.7909 71.3708ZM82.7661 68.7147L84.2043 68.2886L83.4502 65.7431L82.012 66.1692L80.5738 66.5953L81.3279 69.1407L82.7661 68.7147ZM82.012 66.1692L83.4401 65.7103L82.6354 63.2063L81.2073 63.6652L79.7793 64.1241L80.5839 66.6281L82.012 66.1692ZM81.2073 63.6652L82.6512 63.2587L81.9358 60.7178L80.492 61.1243L79.0481 61.5308L79.7635 64.0717L81.2073 63.6652ZM80.492 61.1243L81.8529 60.4936L80.7425 58.0978L79.3816 58.7286L78.0207 59.3593L79.131 61.7551L80.492 61.1243ZM79.3816 58.7286L80.6206 57.883L79.133 55.7033L77.894 56.5488L76.655 57.3944L78.1426 59.5741L79.3816 58.7286ZM77.894 56.5488L79.1373 55.7097L77.6677 53.5321L76.4244 54.3712L75.181 55.2103L76.6507 57.388L77.894 56.5488ZM76.4244 54.3712L77.6574 53.5171L76.1406 51.3274L74.9076 52.1816L73.6745 53.0357L75.1913 55.2254L76.4244 54.3712ZM74.9076 52.1816L75.7252 50.924L73.4836 49.4666L72.666 50.7241L71.8484 51.9817L74.0899 53.4391L74.9076 52.1816ZM72.666 50.7241L73.6046 49.5541L71.5574 47.9117L70.6188 49.0817L69.6801 50.2518L71.7274 51.8941L72.666 50.7241ZM70.6188 49.0817L71.2477 47.72L68.8666 46.6203L68.2377 47.9821L67.6087 49.3438L69.9898 50.4435L70.6188 49.0817ZM68.2377 47.9821L68.9406 46.657L66.6033 45.4171L65.9004 46.7422L65.1974 48.0673L67.5347 49.3072L68.2377 47.9821ZM65.9004 46.7422L66.1896 45.2703L63.5958 44.7607L63.3066 46.2325L63.0174 47.7044L65.6111 48.214L65.9004 46.7422ZM63.3066 46.2325L63.3824 44.7344L60.7549 44.6015L60.6791 46.0996L60.6033 47.5977L63.2308 47.7306L63.3066 46.2325ZM60.6791 46.0996L60.4914 44.6114L57.8954 44.9389L58.0831 46.4271L58.2708 47.9153L60.8668 47.5878L60.6791 46.0996ZM58.0831 46.4271L58.0347 44.9279L55.3619 45.0141L55.4102 46.5133L55.4586 48.0125L58.1315 47.9263L58.0831 46.4271ZM55.4102 46.5133L54.6636 45.2124L52.3438 46.5438L53.0905 47.8447L53.8371 49.1457L56.1569 47.8143L55.4102 46.5133ZM53.0905 47.8447L52.5253 46.4553L50.087 47.447L50.6521 48.8365L51.2172 50.2259L53.6556 49.2342L53.0905 47.8447ZM50.6521 48.8365L49.7318 47.6519L47.653 49.267L48.5733 50.4515L49.4936 51.636L51.5724 50.021L50.6521 48.8365ZM48.5733 50.4515L47.7488 49.1984L45.519 50.6656L46.3435 51.9187L47.1681 53.1718L49.3978 51.7046L48.5733 50.4515ZM46.3435 51.9187L45.068 51.1295L43.6568 53.4102L44.9324 54.1994L46.208 54.9887L47.6191 52.7079L46.3435 51.9187ZM44.9324 54.1994L43.7736 53.247L42.108 55.2736L43.2669 56.226L44.4258 57.1784L46.0913 55.1518L44.9324 54.1994ZM43.2669 56.226L41.997 55.4277L40.597 57.6547L41.8669 58.4531L43.1368 59.2514L44.5368 57.0243L43.2669 56.226ZM41.8669 58.4531L40.5052 57.8241L39.4017 60.213L40.7634 60.842L42.1252 61.471L43.2286 59.0821L41.8669 58.4531ZM40.7634 60.842L39.4378 60.14L38.1913 62.4939L39.5169 63.1959L40.8426 63.8978L42.089 61.544L40.7634 60.842ZM39.5169 63.1959L38.0441 62.9117L37.5405 65.5213L39.0134 65.8055L40.4862 66.0897L40.9898 63.4801L39.5169 63.1959ZM39.0134 65.8055L37.5416 65.5158L37.0324 68.1026L38.5041 68.3924L39.9759 68.6821L40.4851 66.0953L39.0134 65.8055ZM38.5041 68.3924L37.046 68.0403L36.4207 70.6298L37.8788 70.9819L39.3369 71.334L39.9622 68.7444L38.5041 68.3924ZM37.8788 70.9819L36.3864 71.1326L36.655 73.7921L38.1474 73.6414L39.6398 73.4907L39.3712 70.8312L37.8788 70.9819ZM38.1474 73.6414L37.9095 75.1224L40.042 75.4649L40.2799 73.9839L40.5177 72.5028L38.3852 72.1604L38.1474 73.6414ZM40.2799 73.9839L40.1944 75.4814L42.8344 75.6321L42.9199 74.1346L43.0054 72.637L40.3654 72.4863L40.2799 73.9839ZM42.9199 74.1346L43.0407 75.6297L45.6807 75.4163L45.5599 73.9212L45.439 72.4261L42.799 72.6394L42.9199 74.1346ZM45.5599 73.9212L45.57 75.4212L48.21 75.4033L48.1999 73.9033L48.1897 72.4034L45.5497 72.4212L45.5599 73.9212ZM48.1999 73.9033L47.9983 75.3897L50.6383 75.7478L50.8399 74.2614L51.0415 72.775L48.4015 72.4169L48.1999 73.9033ZM50.8399 74.2614L51.1069 75.7374L53.7469 75.2598L53.4799 73.7838L53.2128 72.3077L50.5728 72.7853L50.8399 74.2614ZM53.4799 73.7838L53.2361 75.2638L55.8761 75.6986L56.1199 74.2185L56.3636 72.7384L53.7236 72.3037L53.4799 73.7838ZM56.1199 74.2185L56.1584 75.718L58.7984 75.6502L58.7599 74.1507L58.7214 72.6512L56.0814 72.719L56.1199 74.2185ZM58.7599 74.1507L58.9861 75.6335L61.6261 75.2308L61.3999 73.7479L61.1737 72.2651L58.5337 72.6678L58.7599 74.1507ZM61.3999 73.7479L61.3945 75.2479L64.0345 75.2573L64.0399 73.7573L64.0452 72.2573L61.4052 72.2479L61.3999 73.7479ZM64.0399 73.7573L63.823 75.2416L66.463 75.6273L66.6799 74.143L66.8967 72.6588L64.2567 72.2731L64.0399 73.7573ZM66.6799 74.143L66.7642 75.6407L69.4042 75.492L69.3199 73.9944L69.2355 72.4967L66.5955 72.6454L66.6799 74.143ZM69.3199 73.9944L69.3279 75.4943L71.9679 75.4802L71.9599 73.9803L71.9519 72.4803L69.3119 72.4944L69.3199 73.9944ZM71.9599 73.9803L71.919 75.4797L74.559 75.5516L74.5999 74.0522L74.6407 72.5527L72.0007 72.4808L71.9599 73.9803ZM74.5999 74.0522L74.5685 75.5519L77.2085 75.6072L77.2399 74.1075L77.2713 72.6078L74.6313 72.5525L74.5999 74.0522ZM77.2399 74.1075L77.1892 75.6067L79.8292 75.6959L79.8799 74.1967L79.9305 72.6976L77.2905 72.6084L77.2399 74.1075ZM79.8799 74.1967L80.0781 75.6835L82.7181 75.3315L82.5199 73.8447L82.3216 72.3578L79.6816 72.7099L79.8799 74.1967ZM82.5199 73.8447L82.0582 75.2719L82.5383 75.4272L83 74L83.4617 72.5728L82.9815 72.4175L82.5199 73.8447Z" fill="black"/>
<path d="M59.5 44.9L61 44.9L61 44.8677L60.9986 44.8355L59.5 44.9ZM59.3907 42.36L57.8989 42.203L57.8873 42.3135L57.8921 42.4245L59.3907 42.36ZM59.6686 39.72L61.1603 39.877L61.1762 39.7261L61.1615 39.575L59.6686 39.72ZM59.4122 37.08L57.9134 37.1404L57.9151 37.1828L57.9192 37.225L59.4122 37.08ZM59.3058 34.44L57.8103 34.3237L57.8034 34.412L57.807 34.5004L59.3058 34.44ZM59.5111 31.8L61.0065 31.9163L61.0119 31.8479L61.0109 31.7793L59.5111 31.8ZM59.5 45L61 45L61 44.9L59.5 44.9L58 44.9L58 45L59.5 45ZM59.5 44.9L60.9986 44.8355L60.8893 42.2955L59.3907 42.36L57.8921 42.4245L58.0014 44.9645L59.5 44.9ZM59.3907 42.36L60.8824 42.517L61.1603 39.877L59.6686 39.72L58.1768 39.563L57.8989 42.203L59.3907 42.36ZM59.6686 39.72L61.1615 39.575L60.9052 36.935L59.4122 37.08L57.9192 37.225L58.1756 39.865L59.6686 39.72ZM59.4122 37.08L60.911 37.0196L60.8046 34.3796L59.3058 34.44L57.807 34.5004L57.9134 37.1404L59.4122 37.08ZM59.3058 34.44L60.8013 34.5563L61.0065 31.9163L59.5111 31.8L58.0156 31.6837L57.8103 34.3237L59.3058 34.44ZM59.5111 31.8L61.0109 31.7793L60.9999 30.9793L59.5 31L58.0001 31.0207L58.0112 31.8207L59.5111 31.8Z" fill="black"/>
<path d="M43.5 94.1L42 94.1L42 94.1323L42.0014 94.1645L43.5 94.1ZM43.6093 96.64L45.1011 96.797L45.1127 96.6865L45.1079 96.5755L43.6093 96.64ZM43.3314 99.28L41.8397 99.123L41.8238 99.2739L41.8385 99.425L43.3314 99.28ZM43.5878 101.92L44.598 103.029L45.1534 102.523L45.0808 101.775L43.5878 101.92ZM43.5 94L42 94L42 94.1L43.5 94.1L45 94.1L45 94L43.5 94ZM43.5 94.1L42.0014 94.1645L42.1107 96.7045L43.6093 96.64L45.1079 96.5755L44.9986 94.0355L43.5 94.1ZM43.6093 96.64L42.1176 96.483L41.8397 99.123L43.3314 99.28L44.8232 99.437L45.1011 96.797L43.6093 96.64ZM43.3314 99.28L41.8385 99.425L42.0948 102.065L43.5878 101.92L45.0808 101.775L44.8244 99.135L43.3314 99.28ZM43.5878 101.92L42.5776 100.811L42.4898 100.891L43.5 102L44.5102 103.109L44.598 103.029L43.5878 101.92Z" fill="black"/>
<path d="M71.5 94.1L70 94.1L70 94.1323L70.0014 94.1645L71.5 94.1ZM71.6093 96.64L73.1011 96.797L73.1127 96.6865L73.1079 96.5755L71.6093 96.64ZM71.3314 99.28L69.8397 99.123L69.8238 99.2739L69.8385 99.425L71.3314 99.28ZM71.5878 101.92L72.598 103.029L73.1534 102.523L73.0808 101.775L71.5878 101.92ZM71.5 94L70 94L70 94.1L71.5 94.1L73 94.1L73 94L71.5 94ZM71.5 94.1L70.0014 94.1645L70.1107 96.7045L71.6093 96.64L73.1079 96.5755L72.9986 94.0355L71.5 94.1ZM71.6093 96.64L70.1176 96.483L69.8397 99.123L71.3314 99.28L72.8232 99.437L73.1011 96.797L71.6093 96.64ZM71.3314 99.28L69.8385 99.425L70.0948 102.065L71.5878 101.92L73.0808 101.775L72.8244 99.135L71.3314 99.28ZM71.5878 101.92L70.5776 100.811L70.4898 100.891L71.5 102L72.5102 103.109L72.598 103.029L71.5878 101.92Z" fill="black"/>
<path d="M90.5 94.1L89 94.1L89 94.1323L89.0014 94.1645L90.5 94.1ZM90.6093 96.64L92.1011 96.797L92.1127 96.6865L92.1079 96.5755L90.6093 96.64ZM90.3314 99.28L88.8397 99.123L88.8238 99.2739L88.8385 99.425L90.3314 99.28ZM90.5878 101.92L91.598 103.029L92.1534 102.523L92.0808 101.775L90.5878 101.92ZM90.5 94L89 94L89 94.1L90.5 94.1L92 94.1L92 94L90.5 94ZM90.5 94.1L89.0014 94.1645L89.1107 96.7045L90.6093 96.64L92.1079 96.5755L91.9986 94.0355L90.5 94.1ZM90.6093 96.64L89.1176 96.483L88.8397 99.123L90.3314 99.28L91.8232 99.437L92.1011 96.797L90.6093 96.64ZM90.3314 99.28L88.8385 99.425L89.0948 102.065L90.5878 101.92L92.0808 101.775L91.8244 99.135L90.3314 99.28ZM90.5878 101.92L89.5776 100.811L89.4898 100.891L90.5 102L91.5102 103.109L91.598 103.029L90.5878 101.92Z" fill="black"/>
<path d="M28.5 94.1L27 94.1L27 94.1323L27.0014 94.1645L28.5 94.1ZM28.6093 96.64L30.1011 96.797L30.1127 96.6865L30.1079 96.5755L28.6093 96.64ZM28.3314 99.28L26.8397 99.123L26.8238 99.2739L26.8385 99.425L28.3314 99.28ZM28.5878 101.92L29.598 103.029L30.1534 102.523L30.0808 101.775L28.5878 101.92ZM28.5 94L27 94L27 94.1L28.5 94.1L30 94.1L30 94L28.5 94ZM28.5 94.1L27.0014 94.1645L27.1107 96.7045L28.6093 96.64L30.1079 96.5755L29.9986 94.0355L28.5 94.1ZM28.6093 96.64L27.1176 96.483L26.8397 99.123L28.3314 99.28L29.8232 99.437L30.1011 96.797L28.6093 96.64ZM28.3314 99.28L26.8385 99.425L27.0948 102.065L28.5878 101.92L30.0808 101.775L29.8244 99.135L28.3314 99.28ZM28.5878 101.92L27.5776 100.811L27.4898 100.891L28.5 102L29.5102 103.109L29.598 103.029L28.5878 101.92Z" fill="black"/>
<path d="M48.5 94.1L47 94.1L47 94.1323L47.0014 94.1645L48.5 94.1ZM48.6093 96.64L50.1011 96.797L50.1127 96.6865L50.1079 96.5755L48.6093 96.64ZM48.3314 99.28L46.8397 99.123L46.8238 99.2739L46.8385 99.425L48.3314 99.28ZM48.5878 101.92L49.598 103.029L50.1534 102.523L50.0808 101.775L48.5878 101.92ZM48.5 94L47 94L47 94.1L48.5 94.1L50 94.1L50 94L48.5 94ZM48.5 94.1L47.0014 94.1645L47.1107 96.7045L48.6093 96.64L50.1079 96.5755L49.9986 94.0355L48.5 94.1ZM48.6093 96.64L47.1176 96.483L46.8397 99.123L48.3314 99.28L49.8232 99.437L50.1011 96.797L48.6093 96.64ZM48.3314 99.28L46.8385 99.425L47.0948 102.065L48.5878 101.92L50.0808 101.775L49.8244 99.135L48.3314 99.28ZM48.5878 101.92L47.5776 100.811L47.4898 100.891L48.5 102L49.5102 103.109L49.598 103.029L48.5878 101.92Z" fill="black"/>
<path d="M76.5 94.1L75 94.1L75 94.1323L75.0014 94.1645L76.5 94.1ZM76.6093 96.64L78.1011 96.797L78.1127 96.6865L78.1079 96.5755L76.6093 96.64ZM76.3314 99.28L74.8397 99.123L74.8238 99.2739L74.8385 99.425L76.3314 99.28ZM76.5878 101.92L77.598 103.029L78.1534 102.523L78.0808 101.775L76.5878 101.92ZM76.5 94L75 94L75 94.1L76.5 94.1L78 94.1L78 94L76.5 94ZM76.5 94.1L75.0014 94.1645L75.1107 96.7045L76.6093 96.64L78.1079 96.5755L77.9986 94.0355L76.5 94.1ZM76.6093 96.64L75.1176 96.483L74.8397 99.123L76.3314 99.28L77.8232 99.437L78.1011 96.797L76.6093 96.64ZM76.3314 99.28L74.8385 99.425L75.0948 102.065L76.5878 101.92L78.0808 101.775L77.8244 99.135L76.3314 99.28ZM76.5878 101.92L75.5776 100.811L75.4898 100.891L76.5 102L77.5102 103.109L77.598 103.029L76.5878 101.92Z" fill="black"/>
<path d="M95.5 95.1L94 95.1L94 95.1323L94.0014 95.1645L95.5 95.1ZM95.6093 97.64L97.1011 97.797L97.1127 97.6865L97.1079 97.5755L95.6093 97.64ZM95.3314 100.28L93.8397 100.123L93.8238 100.274L93.8385 100.425L95.3314 100.28ZM95.5878 102.92L96.598 104.029L97.1534 103.523L97.0808 102.775L95.5878 102.92ZM95.5 95L94 95L94 95.1L95.5 95.1L97 95.1L97 95L95.5 95ZM95.5 95.1L94.0014 95.1645L94.1107 97.7045L95.6093 97.64L97.1079 97.5755L96.9986 95.0355L95.5 95.1ZM95.6093 97.64L94.1176 97.483L93.8397 100.123L95.3314 100.28L96.8232 100.437L97.1011 97.797L95.6093 97.64ZM95.3314 100.28L93.8385 100.425L94.0948 103.065L95.5878 102.92L97.0808 102.775L96.8244 100.135L95.3314 100.28ZM95.5878 102.92L94.5776 101.811L94.4898 101.891L95.5 103L96.5102 104.109L96.598 104.029L95.5878 102.92Z" fill="black"/>
<path d="M23.5 95.1L22 95.1L22 95.1323L22.0014 95.1645L23.5 95.1ZM23.6093 97.64L25.1011 97.797L25.1127 97.6865L25.1079 97.5755L23.6093 97.64ZM23.3314 100.28L21.8397 100.123L21.8238 100.274L21.8385 100.425L23.3314 100.28ZM23.5878 102.92L24.598 104.029L25.1534 103.523L25.0808 102.775L23.5878 102.92ZM23.5 95L22 95L22 95.1L23.5 95.1L25 95.1L25 95L23.5 95ZM23.5 95.1L22.0014 95.1645L22.1107 97.7045L23.6093 97.64L25.1079 97.5755L24.9986 95.0355L23.5 95.1ZM23.6093 97.64L22.1176 97.483L21.8397 100.123L23.3314 100.28L24.8232 100.437L25.1011 97.797L23.6093 97.64ZM23.3314 100.28L21.8385 100.425L22.0948 103.065L23.5878 102.92L25.0808 102.775L24.8244 100.135L23.3314 100.28ZM23.5878 102.92L22.5776 101.811L22.4898 101.891L23.5 103L24.5102 104.109L24.598 104.029L23.5878 102.92Z" fill="black"/>
<path d="M100.5 96.1L99 96.1L99 96.1323L99.0014 96.1645L100.5 96.1ZM100.609 98.64L102.101 98.797L102.113 98.6865L102.108 98.5755L100.609 98.64ZM100.331 101.28L98.8397 101.123L98.8238 101.274L98.8385 101.425L100.331 101.28ZM100.588 103.92L101.598 105.029L102.153 104.523L102.081 103.775L100.588 103.92ZM100.5 96L99 96L99 96.1L100.5 96.1L102 96.1L102 96L100.5 96ZM100.5 96.1L99.0014 96.1645L99.1107 98.7045L100.609 98.64L102.108 98.5755L101.999 96.0355L100.5 96.1ZM100.609 98.64L99.1176 98.483L98.8397 101.123L100.331 101.28L101.823 101.437L102.101 98.797L100.609 98.64ZM100.331 101.28L98.8385 101.425L99.0948 104.065L100.588 103.92L102.081 103.775L101.824 101.135L100.331 101.28ZM100.588 103.92L99.5776 102.811L99.4898 102.891L100.5 104L101.51 105.109L101.598 105.029L100.588 103.92Z" fill="black"/>
<path d="M18.5 96.1L17 96.1L17 96.1323L17.0014 96.1645L18.5 96.1ZM18.6093 98.64L20.1011 98.797L20.1127 98.6865L20.1079 98.5755L18.6093 98.64ZM18.3314 101.28L16.8397 101.123L16.8238 101.274L16.8385 101.425L18.3314 101.28ZM18.5878 103.92L19.598 105.029L20.1534 104.523L20.0808 103.775L18.5878 103.92ZM18.5 96L17 96L17 96.1L18.5 96.1L20 96.1L20 96L18.5 96ZM18.5 96.1L17.0014 96.1645L17.1107 98.7045L18.6093 98.64L20.1079 98.5755L19.9986 96.0355L18.5 96.1ZM18.6093 98.64L17.1176 98.483L16.8397 101.123L18.3314 101.28L19.8232 101.437L20.1011 98.797L18.6093 98.64ZM18.3314 101.28L16.8385 101.425L17.0948 104.065L18.5878 103.92L20.0808 103.775L19.8244 101.135L18.3314 101.28ZM18.5878 103.92L17.5776 102.811L17.4898 102.891L18.5 104L19.5102 105.109L19.598 105.029L18.5878 103.92Z" fill="black"/>
</svg>
