<svg width="120" height="120" viewBox="0 0 120 120" fill="none" xmlns="http://www.w3.org/2000/svg">
<g clip-path="url(#clip0_258_2)">
<path d="M83.8516 3.69531L84.6367 5.75781L84.6836 5.89844L84.707 6.0625L85.1055 8.54688L85.9492 10.9023L85.9727 10.9844L85.9961 11.0781L86.5352 13.4922L87.6133 15.7656L87.707 15.9648L87.7422 16.1641L88.1406 18.6602L88.75 21.0742L89.6523 23.5703L89.6758 23.6172L89.6875 23.6758L90.1348 25.2676L90.6133 25.291H90.6484L93.3555 25.4902L94.9023 25.6074L94.7266 27.166L94.4336 29.6738L94.5156 32.2285V34.8301L94.6445 37.4785V37.584L94.5977 40.2207L94.5391 42.8574L94.5039 45.4824L94.5977 48.0605L94.6914 50.6973V50.7559L94.668 53.4043V53.416L94.6211 56.0527V56.1348L94.6094 56.2051L94.3164 58.7012L94.375 61.1504L94.6445 63.7988L94.6562 63.8691V66.6934L94.4688 69.3301L94.3867 71.9199L94.3398 74.5332L94.293 77.1816L94.3867 79.7363V79.8066L94.3516 82.4434V82.4902L94.2344 85.0098L94.5391 87.5293V87.5762L94.5508 87.623L94.7031 90.2598V90.4121L94.5859 93.0605L94.5508 95.6504L94.5977 98.252V98.2637L94.6094 100.9V100.982L94.5977 101.064L94.3398 103.537L94.5625 106.057V106.221L94.5156 108.857L94.5273 111.459V111.494L94.4922 114.131V114.248L94.4697 114.473L95 114.43L95.0586 114.418H95.1055L97.7539 114.406H97.8594L97.9648 114.418L100.367 114.746L102.77 114.312L103.027 114.266L103.285 114.301L105.816 114.723L108.137 114.664L110.738 114.266L111.031 114.219L111.312 114.289L112.355 114.547L111.652 117.453L110.891 117.266L108.547 117.629L108.453 117.652H108.359L105.723 117.723H105.582L103.051 117.301L100.672 117.734L100.438 117.781L100.203 117.746L97.6367 117.406H95.2344L92.5977 117.629L92.4922 117.641L92.3984 117.629L91.3506 117.568L90.4258 117.611H90.3086L90.2031 117.6L88.3174 117.396L87.4404 117.354L86.8438 117.414L84.7812 117.734L84.582 117.77L84.3945 117.746L83.5674 117.65L82.5039 117.693H82.3281L79.7969 117.482V117.494L79.0215 117.49L76.7773 117.711L76.6133 117.723L76.4492 117.699L75.6016 117.593L74.6289 117.67L74.043 117.705L73.6436 117.388L72.9961 117.399V117.499H72.9609L70.4297 117.604L70.3125 117.616L70.207 117.604L67.6992 117.335L65.2266 117.581H65.1445L64.085 117.627L63.7109 117.699L63.4766 117.746L63.2305 117.711L62.9912 117.676L62.4961 117.698H62.4141L62.3203 117.687L59.6836 117.487V117.476H58.4629L58.2383 117.488H58.0156L57.8906 117.476H57.2578L54.6328 117.663L54.5508 117.675H54.4805L53.3447 117.639L52.8828 117.723L52.6133 117.676L52.2012 117.604L51.832 117.593H51.7734L51.7031 117.581L49.2656 117.3L46.8398 117.698L46.6875 117.722L46.5234 117.71L43.9688 117.569L41.4141 117.745L41.2734 117.757L41.1328 117.733L38.6133 117.429L36.0938 117.511L33.4805 117.581L33.4922 117.593L32.1279 117.677L32 117.699L31.7891 117.734L31.583 117.711L30.8555 117.757L30.6797 117.769L30.5039 117.745L28.4277 117.377L26.5391 117.324L23.9492 117.512L23.8906 117.523H23.832L21.1953 117.512H21.0781L18.5 117.301L16.0508 117.395L16.0625 117.406L13.4258 117.664L13.2734 117.676L13.1211 117.664L10.625 117.395L8.16406 117.5H8V114.5H8.03516L10.5781 114.395L10.6836 114.383L10.8008 114.395L13.2852 114.664L15.7695 114.418H15.8633L18.5 114.312L18.5938 114.301L18.6758 114.312L21.3125 114.512L21.3008 114.523H23.7383L25.2354 114.416L25.2422 114.335L25.4883 111.839L25.3477 109.284L25.3359 109.132L25.3594 108.991L25.6992 106.565L25.2656 104.198L25.2305 104.022L25.2422 103.847L25.3711 101.198L25.4297 98.667L25.3828 96.0303V95.9248L25.3945 95.8193L25.7109 93.3115L25.4766 90.8623V90.7334L25.4531 88.0967V88.0029L25.4648 87.9092L25.7344 85.4365L25.3711 83.0225L25.3477 82.8701L25.3594 82.7295L25.4883 80.0811V80.0693L25.6406 77.5498L25.4297 75.0068L25.418 74.9482V74.8896L25.4062 72.2529V72.1475L25.418 72.042L25.7461 69.6162L25.3125 67.2256L25.2656 66.9678L25.3008 66.7217L25.7344 64.0732L25.8164 63.6162L26.1445 63.2764L27.7031 61.6709L27.7734 61.6006L29.7539 59.8193L29.8477 59.7373L29.9414 59.6787L32.1562 58.2373L32.2383 58.1787L32.332 58.1318L34.6172 57.0654L36.6211 55.5889L36.6562 55.5654L36.6797 55.542L38.8828 54.0771L38.9062 54.0654L38.918 54.0537L41.168 52.6592L43.4062 51.2646L43.418 51.2529L45.5391 49.9521L47.4844 48.2881L47.8125 47.9951L48.2344 47.9365L49.1396 47.7979L49.3242 45.5996L49.2188 43.1738L49.0625 41.585L49 41.5781L46.5156 41.8242L46.2812 41.8359L46.0586 41.7891L45.6836 41.707L46 40.2422L46.2461 39.0703L46.2344 38.8359H46.3047L46.3164 38.7773L46.4688 38.8125L48.8711 38.5781L49.0234 38.5664L49.1348 38.583L49.2305 37.6895L49.125 35.2754V35.1113H52.125V35.1465L52.2305 37.6895L52.2422 37.7949L52.2305 37.9121L52.1309 38.8223L54.0742 38.6602H54.2734L54.2969 40.1602L54.3086 41.6602L52.1035 41.833L52.207 42.8809V42.9746L52.3125 45.6113L52.3242 45.7051L52.3125 45.7988L52.124 48.0967L53.8125 49.0264L53.9414 49.0967L54.0586 49.1904L56.0039 50.8076L58.1719 52.1553L58.1836 52.167L58.207 52.1787L60.3516 53.585L62.625 54.9209L62.6719 54.9443L62.7188 54.9795L64.8984 56.4678L67.0547 57.9561L69.2461 59.4326L71.4492 60.7686L71.5801 60.8486L71.7344 59.4395L71.3711 57.0254L71.3477 56.873L71.3594 56.7207L71.4883 54.084V54.0723L71.6406 51.541L71.4297 48.998L71.418 48.9395V48.8926L71.4062 46.2441V46.1387L71.418 46.0332L71.7461 43.6191L71.3125 41.2285L71.2656 40.9707L71.3008 40.7129L71.7227 38.1699L71.6641 35.8496L71.2656 33.2715L71.2422 33.1543V33.0371L71.2539 30.3887V30.2832L71.2773 30.1777L71.6641 27.541L71.7578 26.8496L72.3555 26.4863L73.9141 25.5254L74.2656 25.3145H74.6875L75.0732 25.3105L75.4375 24.2617L75.6602 21.8008L75.6836 21.5547L75.7891 21.332L76.7969 19.0234L77.3711 16.5977L77.3945 16.4805L77.4297 16.3867L78.3086 14.0898L78.5781 11.6289L78.6016 11.3711L78.7188 11.1367L79.8086 8.875L80.3359 6.47266L80.3477 6.44922V6.42578L80.9922 3.87109L82.1523 -0.769531L83.8516 3.69531ZM49.1016 50.8311L47.4375 52.2959L47.3438 52.3779L47.2266 52.4365L44.9766 53.8193L44.9648 53.8076L42.75 55.2139L40.5 56.6084L40.4883 56.5967L38.3438 58.0381L36.2812 59.5732L36.1641 59.6553L36.0234 59.7256L33.6562 60.8154L31.6523 62.1279L29.7773 63.8389L28.6172 65.0107L28.3008 66.9326L28.7344 69.335L28.7812 69.5693L28.7461 69.8037L28.4062 72.3467L28.418 74.7607L28.6289 77.3975L28.6406 77.5029L28.6289 77.6084L28.4766 80.2451L28.3477 82.7061L28.7344 85.2139L28.7695 85.4131L28.7461 85.6123L28.4531 88.1318L28.4648 90.6982L28.7109 93.2295L28.7227 93.3818L28.6992 93.5459L28.3828 96.0654L28.4297 98.6201V98.667L28.3711 101.315V101.362L28.2305 103.823L28.7461 106.53L28.7109 106.776L28.3477 109.272L28.4883 111.757V111.979L28.2891 113.89L28.8281 114.394L28.8535 114.397L29.1641 114.406H29.2344L29.293 114.418L31.707 114.696L31.7666 114.692L32.083 114.64L32.0684 114.267V114.114L32.0918 113.962L32.4902 111.583L32.0566 109.192L32.0098 108.97L32.0449 108.724L32.3848 106.169L32.373 103.767L32.1621 101.13L32.1504 101.024L32.1621 100.931L32.3145 98.2822L32.4434 95.8096L32.0566 93.3135L32.0215 93.1143L32.0449 92.9268L32.3379 90.3838L32.3145 87.8174L32.0801 85.3096L32.0684 85.1455L32.0918 84.9814L32.4082 82.4502L32.3613 79.9189V79.8604L32.4199 77.2236V77.0947L32.4434 76.9775L32.9121 74.458L32.959 74.2939L33.7441 71.751L33.8613 71.3291L34.1895 71.0479L36.2168 69.3018L38.127 67.5557L38.9824 66.7822L39.9551 67.415L41.9238 68.6807L41.9473 68.7041L41.9707 68.7158L44.5137 70.5205L44.6777 70.9307L44.9697 71.6514L45.1914 71.4463L47.1016 69.5947L48.9414 67.7432L49.7383 66.958L50.7227 67.4854L52.6445 68.54L52.7383 68.5869L52.832 68.6455L54.9766 70.251L55.3281 70.5088L55.4805 70.9189L55.7324 71.5918L55.8906 71.4463L57.8008 69.5947L59.6406 67.7432L60.4375 66.958L61.4219 67.4854L63.3438 68.54L63.4375 68.5869L63.5312 68.6455L65.6758 70.251L66.0273 70.5088L66.1797 70.9189L67.1172 73.415L67.1406 73.4619L67.1523 73.5088L67.8906 75.9697L67.9375 76.1572L67.9492 76.3564L68.043 78.9932L68.125 81.6299V81.7471L68.1133 81.8643L67.8086 84.3955L67.9727 86.8564L67.9844 86.9502L67.9727 87.0439L67.832 89.4814L68.2539 92.001L68.2891 92.2002L68.2656 92.4111L67.9609 94.9189L67.8789 97.415L68.0664 100.052L68.0781 100.11V100.169L68.0693 102.068L68.5 102.1L68.4883 102.17L68.3711 104.057L67.9746 103.936L67.8555 105.489L67.9609 107.938L68.2188 110.575L68.2305 110.728L68.2188 110.88L67.9492 113.423L67.9883 114.331L68.7969 114.371L68.7852 114.383L71.3633 114.43L71.4492 114.428L71.5898 113.201V111.584L71.3008 109.842L71.2773 109.678L71.2891 109.525L71.4297 106.971L71.2539 104.416L71.2422 104.275L71.2656 104.135L71.5703 101.615L71.5312 100.425L71.25 97.9873L71.2383 97.8584V97.7412L71.3398 95.4385L71.2422 93.8574L71.2305 93.6699L71.2656 93.4941L71.3867 92.8066L71.3906 92.585L71.2969 89.9365V89.8545L71.3115 88.998L71.2656 88.7363L71.2305 88.5371L71.2422 88.3379L71.3418 87.3271L71.3906 84.5811V84.5576L71.4004 84.2393L71.3477 83.2754L71.3359 83.1348L71.3594 82.9824L71.4619 82.2451L71.4727 81.9209V81.8623L71.6025 80.0303L71.2656 78.1895L71.2305 78.0137L71.2422 77.8379L71.3711 75.2012L71.3936 74.2275L71.3906 74.1982L71.3789 74.1396V74.0811L71.3203 71.4443L71.3086 71.3389L71.3203 71.2334L71.3926 70.6025L71.3828 70.0215V69.916L71.3945 69.8105L71.6396 67.8672L71.6611 66.7852L71.4766 64.8535V64.7363L71.4727 64.2998L69.8906 63.335L67.6289 61.9639L67.6055 61.9404L67.5703 61.917L65.3789 60.4521L65.3672 60.4404L63.1992 58.9404L61.1016 57.5107L58.8281 56.1631L58.793 56.1514L58.7695 56.1279L56.5898 54.71L54.3398 53.3154L54.1758 53.1982L52.2539 51.5811L50.4844 50.6201L49.1016 50.8311ZM57.8477 103.131L57.6367 103.143L57.4258 103.107L57.3545 103.094L57.4258 103.954L57.4375 104.013V104.071L57.4492 106.708V106.813L57.4375 106.919L57.2764 108.094L57.5195 110.575L57.5312 110.728L57.5195 110.88L57.4717 111.329L57.543 111.724L57.5898 111.981L57.5547 112.239L57.2715 113.941L57.292 114.404L58.0439 114.479L58.2754 114.48L60.7227 114.348L60.8633 114.336L61.0156 114.359L63.0918 114.663L63.8242 114.635L64.9902 114.417L64.9492 113.423L64.9375 113.317L64.9492 113.2L65.207 110.704L64.9727 108.22V108.185L64.9609 108.138L64.8555 105.501V105.407L64.8672 105.325L65.0303 103.166H62.8164L60.332 102.873L57.8477 103.131ZM49.8906 102.51L49.9023 102.521L47.2656 102.686H47.1484L46.6699 102.676V102.864L46.6582 102.911L46.6494 103.021L46.7266 103.954L46.7383 104.013V104.071L46.75 106.708V106.813L46.7383 106.919L46.5781 108.086L46.8223 110.575L46.834 110.728L46.8223 110.88L46.7734 111.336L46.8438 111.724L46.8906 111.981L46.8555 112.239L46.5742 113.929L46.5967 114.442L47.5039 114.418V114.406L48.8574 114.322L48.9961 114.3L49.207 114.265L49.415 114.287L50.1523 114.242L50.3281 114.23L50.5039 114.266L52.4219 114.605L53.2158 114.628L54.1455 114.462L54.1562 114.396L54.2627 113.751L54.25 113.423L54.2383 113.317L54.25 113.2L54.4385 111.37L54.1211 109.626L54.0742 109.392L54.1094 109.157L54.2578 108.041L54.1562 105.501V105.407L54.168 105.325L54.3428 103.011L54.3086 102.583L52.457 102.416L49.8906 102.51ZM85.457 28.502L85.3281 28.5137H85.1992L82.5625 28.4199V28.4082L82.2256 28.4014L81.4258 28.4805L81.2734 28.4922L81.1211 28.4805L80.0439 28.3623L79.9492 28.3613H79.9375L77.3008 28.291H77.1953L77.0664 28.6797L75.7295 28.2988L75.1094 28.3027L74.5234 28.666L74.2422 30.5293V32.8848L74.6289 35.4512L74.6523 35.5449V35.6387L74.7227 38.2754V38.4277L74.6992 38.5684L74.3008 40.9355L74.7344 43.3379L74.7812 43.5605L74.7461 43.8066L74.4062 46.3496L74.418 48.7637L74.6289 51.4004L74.6406 51.5059L74.6289 51.5996L74.4766 54.248L74.3477 56.709L74.7344 59.2168L74.7695 59.416L74.7461 59.6035L74.4531 62.1348L74.4609 63.7988L74.6602 65.9951L74.6719 66.0771V66.1592L74.6611 66.7188L74.7109 67.2207L74.7227 67.3848L74.6992 67.5488L74.6377 68.0312L74.625 68.7959L74.6133 68.8662V68.9365L74.3955 70.7939L74.4297 72.6113V72.6699L74.3945 74.2461L74.6484 76.5303V76.6826L74.6602 79.3193V79.3779L74.6484 79.4365L74.6172 79.8564L74.7461 80.5332L74.7109 80.7676L74.4443 82.6025L74.4014 84.2314L74.4883 85.7598V85.9824L74.3408 87.4258L74.3154 88.8174L74.6758 90.8574L74.7227 91.1152L74.6758 91.3848L74.3838 93.0488L74.3555 95.1865V95.2334L74.3428 95.4873L74.3945 96.3066V96.3301L74.4062 96.3535L74.5225 100.106L74.543 100.272V100.354L74.707 103.003V103.155L74.5781 105.733L74.5547 108.382L74.5898 110.983V111.007L74.5908 111.356L74.6992 111.998L74.7344 112.209L74.7109 112.42L74.5996 113.317L74.6016 113.644V113.726L74.5898 113.819L74.5381 114.264L74.8008 114.472L75.6406 114.578L77.0547 114.482H77.1602L78.9971 114.49L79.1445 114.477H79.2734L79.4834 114.475L79.418 114.312V114.031L79.4062 111.395V111.277L79.418 111.172L79.7461 108.781L79.3125 106.367L79.2656 106.109L79.3008 105.852L79.7227 103.309L79.6523 100.941L79.2656 98.4102L79.2422 98.293L79.2539 98.1758V95.4219L79.2773 95.3281L79.6406 92.8672L79.5 90.3477V90.2656L79.4766 87.6289V87.582L79.5586 84.9336L79.6055 82.3086V82.2852L79.6992 79.7656L79.3594 77.2578L79.3359 77.1172L79.3477 76.9883L79.4766 74.457L79.2656 71.9023L79.2539 71.75L79.2656 71.6094L79.5586 69.0898L79.4883 66.5469V63.9336L79.3594 61.2969L79.3477 61.2383L79.3594 61.1914L79.4062 58.5547V58.543L79.4648 55.9062L79.4883 53.3516L79.4062 50.7148L79.3945 50.7031L79.3125 48.0664V48.0078L79.3359 45.3711V45.3477L79.3828 42.7109V42.6406L79.3945 42.5703L79.6875 39.9805L79.6172 37.4961L79.3594 34.9648L79.3242 34.6133L79.4531 34.2734L80.4141 31.7656L80.8359 30.6758L81.9961 30.8164L84.4453 31.1211L85.4297 31.2383L85.6992 32.1992L86.0273 33.3594H86.4961V34.8945L86.6133 37.4375V37.543L86.6016 37.6602L86.332 40.1328L86.5781 42.6406L86.5898 42.6758V42.7227L86.6953 45.3594V45.4531L86.6836 45.5352L86.4844 48.1719V50.7031L86.6602 53.2344L86.6719 53.3047V53.3867L86.5898 56.0234V56.1523L86.2969 58.5781L86.6953 61.0156L86.7188 61.1797V61.3438L86.5781 63.875L86.7422 66.4414L86.7539 66.582L86.7422 66.7227L86.4258 69.2305L86.5078 71.7734L86.6016 74.4102H86.5898L86.7539 77.0117L86.7656 77.1875L86.7422 77.3633L86.3086 79.7422L86.7422 82.1211L86.7656 82.3203L86.7539 82.5195L86.5078 85.0742L86.6484 87.582L86.6602 87.7227L86.6367 87.875L86.2969 90.2539L86.7422 92.668L86.7773 92.8438L86.7656 93.0195L86.625 95.6562L86.5664 98.2578L86.6133 100.836V100.941L86.6016 101.047L86.2969 103.461L86.5195 106.004L86.5312 106.062V106.133L86.543 108.77V108.945L86.2617 111.395L86.625 113.832L86.6953 114.266L86.623 114.424L86.9727 114.371L87.125 114.348L87.2773 114.359L87.3555 114.362L87.5781 114.342L87.7305 114.318L87.8828 114.342L88.7422 114.431L89.9141 114.488H89.9258L91.1777 114.563L91.4336 114.553L91.4805 114.084L91.5273 111.482L91.5156 108.834V108.799L91.5625 106.162L91.3398 103.678L91.3281 103.537L91.3398 103.396L91.6094 100.76L91.5977 98.2871L91.5508 95.6504V95.6152L91.5859 92.9668V92.9199L91.7031 90.3418L91.5508 87.7988V87.7871L91.2461 85.2441L91.2344 85.127V85.0098L91.3516 82.3613L91.3867 79.8418L91.293 77.2051V77.123L91.3398 74.4863L91.3867 71.8379V71.8262L91.4688 69.1895V69.1191L91.6562 66.4824V64.1035L91.3867 61.4668V61.4082L91.375 61.3496L91.3164 58.7012V58.5957L91.3281 58.502L91.6211 55.9355L91.668 53.3574L91.6914 50.8027L91.5977 48.166L91.5156 45.5176L91.5039 45.4824V45.4473L91.5391 42.8105V42.7988L91.5977 40.1621L91.6445 37.6191L91.5156 34.9824V32.3105L91.4336 29.6738V29.5684L91.4453 29.4629L91.5625 28.3613L90.4609 28.2793L87.9531 28.1621L85.457 28.502ZM42.0742 102.896L39.5195 103.318L39.3672 103.342L39.2148 103.33L36.6367 103.225L35.3467 103.364L35.3613 103.532L35.373 103.591V103.638L35.3848 106.286V106.392L35.373 106.497L35.0449 108.899L35.4785 111.302L35.5254 111.56L35.4902 111.817L35.0703 114.321L37.0156 114.43L39.582 114.254L39.7227 114.242L39.8633 114.266L42.3711 114.57L43.4346 114.535L43.457 114.396L43.5654 113.741L43.5527 113.423L43.541 113.317L43.5527 113.2L43.7402 111.377L43.4219 109.626L43.375 109.392L43.4102 109.157L43.5684 107.966L43.459 105.501V105.407L43.4707 105.325L43.6445 103.023L43.6211 102.74L42.0742 102.896ZM82.3711 35.0117L82.6172 37.3086V37.4258L82.6875 40.0625V40.168L82.6758 40.2734L82.3828 42.7695L82.3359 45.4062L82.3125 48.0312L82.3945 50.6094L82.4883 53.2461V53.3164L82.4648 55.9531V55.9648L82.4062 58.6133L82.3594 61.25L82.3477 61.2383L82.4766 63.7812L82.4883 63.8164V66.4531L82.5586 69.1016L82.5703 69.207L82.5586 69.3125L82.2656 71.8203L82.4648 74.293L82.4766 74.3984V74.4922L82.3477 76.9883L82.6875 79.4961L82.6992 79.625V79.7539L82.6055 82.3906L82.5469 85.0156L82.4766 87.6641L82.5 90.2539H82.4883L82.6406 92.8203L82.6523 92.9609L82.6289 93.1133L82.2539 95.6562V98.1055L82.6289 100.59L82.6523 100.684V100.777L82.7227 103.426V103.566L82.6992 103.707L82.3125 106.062L82.7344 108.477L82.7812 108.711L82.7461 108.945L82.4062 111.453V113.715L82.6875 114.418L83.332 114.453L83.5898 113.855L83.2617 111.641L83.2383 111.453L83.2617 111.254L83.543 108.711L83.5312 106.273L83.2969 103.637L83.2734 103.473L83.2969 103.32L83.6016 100.777L83.5664 98.2461V98.1875L83.625 95.5508V95.5039L83.7539 93.0195L83.2969 90.5703L83.25 90.3359L83.2852 90.0898L83.6484 87.582L83.5078 85.0977V84.9922L83.5195 84.875L83.7422 82.4492L83.3203 80L83.2734 79.7422L83.3203 79.4844L83.7539 77.0117L83.6016 74.5508V74.5039L83.5195 71.8672L83.4258 69.2305V69.1133L83.4375 68.9961L83.7422 66.5117L83.5781 64.0039V63.8164L83.707 61.3438L83.2969 58.8594L83.2734 58.6602L83.2969 58.4492L83.5898 55.8828L83.6719 53.4453L83.4844 50.8086V47.9961L83.4961 47.9492L83.6953 45.3477L83.5898 42.9219L83.3438 40.2852L83.3203 40.1328L83.3438 39.9805L83.6016 37.4023L83.5078 35.5156L83.4492 35.2695L83.0859 33.9688L82.7812 33.9336L82.3711 35.0117ZM38.209 71.5518L38.1973 71.5635L38.1738 71.5752L36.4746 73.0283L35.8301 75.1729L35.4082 77.4111L35.3613 79.9189L35.4082 82.5088V82.6143L35.3965 82.7197L35.0801 85.2158L35.3145 87.6768V87.7939L35.3379 90.4424V90.5244L35.3262 90.6182L35.0449 93.0674L35.4434 95.6572L35.4316 95.8096L35.3027 98.4463V98.458L35.1865 100.376L36.4727 100.236L36.5781 100.225H36.6953L39.1562 100.342L41.6641 99.9316H41.6992L41.7461 99.9199L43.6201 99.7266L43.6309 99.5537L43.4941 97.626L43.4824 97.5557L43.4941 97.4736L43.5645 94.8369V94.7666L43.5713 94.7305L43.4219 93.7354L43.3867 93.5479L43.4102 93.3486L43.6689 91.1074L43.459 89.8447L43.4355 89.6807L43.4473 89.5166L43.5723 87.0332L43.4453 85.7314L43.4336 85.5674L43.457 85.415L43.4697 85.3096L43.4121 84.4189L43.4004 84.2783L43.4238 84.1377L43.7168 81.6182L43.6465 79.0869L43.5527 76.6377L42.8496 74.3994H42.8379L42.0645 72.4541L40.2363 71.165V71.1533L39.2988 70.5557L38.209 71.5518ZM59.9102 71.7275L59.8867 71.751L58.2812 73.2861L57.7891 75.4541L57.4727 77.7979L57.4258 80.3525L57.4727 82.9307V83.0361L57.4609 83.1416L57.1748 85.3906L57.2734 86.8564L57.2852 86.9502L57.2754 87.0205L57.3789 88.0986V88.2275L57.4023 90.8643V90.958L57.3916 91.0293L57.5547 92.001L57.5898 92.2002L57.5664 92.4111L57.29 94.6797L57.4844 95.9385L57.5078 96.0791L57.4961 96.2314L57.3672 98.8682V98.8799L57.3281 99.5127L57.3672 100.052L57.3682 100.057L57.7656 100.131L60.2148 99.873L60.3789 99.8613L60.5312 99.873L63.0508 100.166H65.0713L64.8906 97.626L64.8789 97.5557V97.4736L64.9609 94.8369V94.7666L64.9727 94.708L65.2539 92.2354L64.8555 89.8447L64.832 89.6807L64.8438 89.5166L64.9727 86.9736L64.8086 84.4189L64.7969 84.2783L64.8203 84.1377L65.1133 81.6182L65.043 79.0869L64.9492 76.6611L64.3047 74.4697L63.5078 72.3721L61.7852 71.0947L60.9648 70.6494L59.9102 71.7275ZM49.2109 71.7275L49.1875 71.751L47.582 73.2861L47.0898 75.4541L46.7734 77.7979L46.7266 80.3525L46.7734 82.9307V83.0361L46.7617 83.1416L46.4775 85.3809L46.5762 86.8564L46.5879 86.9502L46.5771 87.0293L46.6797 88.0986V88.2275L46.7031 90.8643V90.958L46.6934 91.0234L46.8574 92.001L46.8926 92.2002L46.8691 92.4111L46.5918 94.6865L46.7852 95.9385L46.8086 96.0791L46.7969 96.2314L46.668 98.8682V98.8799L46.6299 99.498L46.6426 99.6768L47.1133 99.6855L49.7266 99.5332H49.75L52.3867 99.416H52.4922L52.5859 99.4277L54.3281 99.582L54.3291 99.5684L54.1914 97.626L54.1797 97.5557V97.4736L54.2617 94.8369V94.7666L54.2695 94.7256L54.1211 93.7354L54.0859 93.5479L54.1094 93.3486L54.3672 91.1143L54.1562 89.8447L54.1328 89.6807L54.1445 89.5166L54.2705 87.0205L54.1445 85.7314L54.1328 85.5674L54.1562 85.415L54.167 85.3242L54.1094 84.4189L54.0977 84.2783L54.1211 84.1377L54.4141 81.6182L54.3438 79.0869L54.25 76.6611L53.6055 74.4697L52.8086 72.3721L51.1445 71.1299L50.2656 70.6494L49.2109 71.7275ZM81.5195 12.2148L81.2852 14.6055L81.2617 14.8164L81.1914 15.0039L80.2539 17.3945L79.7031 19.832L79.668 19.9844L79.6094 20.1133L78.625 22.3047L78.3906 24.7539L78.3789 24.9297L78.3203 25.1055L78.2734 25.2227L78.5781 25.2109L78.6836 25.1992L78.8008 25.2109L80.4375 25.3809L81.9355 25.4072L83.7695 25.2344H83.8164L83.8633 25.2227L86.5 25.1172H86.9688L86.8281 24.5898L85.9258 22.1055L85.8789 21.9648L85.2344 19.3984L85.2109 19.3398L85.1992 19.2695L84.8008 16.832L83.7578 14.6289L83.6992 14.4766L83.6523 14.3242L83.0781 11.8281L82.5039 10.1875L81.5195 12.2148Z" fill="black"/>
</g>
<defs>
<clipPath id="clip0_258_2">
<rect width="120" height="120" fill="white"/>
</clipPath>
</defs>
</svg>
