<svg width="120" height="120" viewBox="0 0 120 120" fill="none" xmlns="http://www.w3.org/2000/svg">
<path d="M77.4609 9.56641L78.5977 10.293L79.1133 10.6211L79.2539 11.207L79.8398 13.6094L81 15.7656L81.0469 15.8477L81.082 15.9297L82.0547 18.3906L82.1484 18.6133L82.1602 18.8711L82.2773 21.4023L82.6055 23.9805L82.6172 24.0742V24.1797L82.5703 26.8281L82.6289 29.3594L82.7578 31.9961L82.7695 32.1836L82.7344 32.3594L82.3008 34.7148L82.6406 37.1523L82.6641 37.293L82.6523 37.4453L82.5117 40L82.7578 42.4961L82.7695 42.6953L82.7344 42.8945L82.3125 45.2734L82.7344 47.6641L82.7695 47.8398L82.7578 48.0156L82.6357 49.9639L83.9102 49.9531H84.0039L84.0859 49.9648L86.5469 50.2461L88.9727 49.8711L89.125 49.8477L89.2773 49.8594L91.9141 49.9883H91.9258L94.4453 50.1406L97 49.9297L97.0586 49.918H97.1055L99.7539 49.9062H99.8594L99.9648 49.918L102.367 50.2461L104.77 49.8125L105.027 49.7656L105.285 49.8008L107.816 50.2227L110.125 50.1641L110.676 50.0352L110.892 51H111V51.0352L111.022 51.5879L111.32 52.9648L111.082 53.0176L111.105 53.5781L111.117 53.6836L111.105 53.8008L110.836 56.2852L111.082 58.7695V58.8633L111.188 61.5L111.199 61.5938L111.188 61.6758L110.988 64.3125L110.977 64.3008V66.7383L111.164 69.375L111.176 69.4453L111.164 69.5273L111.094 72.1641V72.2344L111.082 72.293L110.801 74.7305L111.199 77.1562L111.223 77.3203L111.211 77.4844L111.07 80.0156L111.246 82.582L111.258 82.7227L111.234 82.8633L110.93 85.3711L111.012 87.9141L111.082 90.5039H111.094L111.258 93.1523L111.27 93.3281L111.234 93.5039L110.812 95.8828L111.234 98.2617L111.27 98.4609L111.258 98.6602L111.164 99.5967L111.284 100.045L111.387 100.442L111.071 100.525L111.012 101.133L111.152 103.723L111.164 103.863L111.141 104.016L110.789 106.418L111.234 108.809L111.27 108.984L111.258 109.16L111.129 111.797L111.105 112.078L110.993 112.324L111.086 112.445L111.391 112.844V113.348L111.398 114.31L112.355 114.547L111.652 117.453L110.891 117.266L108.547 117.629L108.453 117.652H108.359L105.723 117.723H105.582L103.051 117.301L100.672 117.734L100.438 117.781L100.203 117.746L97.6367 117.406H95.2344L92.5977 117.629L92.4922 117.641L92.3984 117.629L89.75 117.477V117.465L87.2773 117.348L84.7812 117.734L84.582 117.77L84.3945 117.746L81.8516 117.453L79.2969 117.477L79.2852 117.465L76.7773 117.711L76.6133 117.723L76.4492 117.699L73.918 117.383L71.3867 117.43H71.3281L68.6914 117.371H68.6445L66.1719 117.23L63.7109 117.699L63.4766 117.746L63.2305 117.711L60.7227 117.348L58.2383 117.488H58.0156L55.5898 117.242L53.1406 117.676L52.8828 117.723L52.6133 117.676L50.1172 117.242L47.6914 117.395H47.668L47.6445 117.406L42.3711 117.57H42.2539L42.1367 117.559L39.5938 117.254L37.1328 117.418L37.0508 117.43L36.957 117.418L34.5078 117.277L32 117.699L31.7891 117.734L31.5781 117.711L29.0234 117.395L26.5391 117.324L23.9492 117.512L23.8906 117.523H23.832L21.1953 117.512H21.0781L18.5 117.301L16.0508 117.395L16.0625 117.406L13.4258 117.664L13.2734 117.676L13.1211 117.664L10.625 117.395L10 117.421V117.496H8.25488L8.16406 117.5H8V114.5H8.03516L8.57715 114.477L8.75781 113.359L8.80469 113.078L8.95703 112.832L9.75391 111.484L10.1055 110.875L10.7188 110.782L10.5537 109.727L10.0586 109.582L10.2227 109.008L9.80078 106.711L9.75391 106.477L9.78906 106.23L10.1406 103.723L10.0117 101.238V101.016L10.0557 100.56L9.61328 100.442L9.71582 100.045L9.8584 99.5107L10.1787 99.2861L10.2461 98.5898L9.82422 96.1406L9.77734 95.8828L9.82422 95.6133L10.2461 93.1172L10.1055 90.6914V90.668L10.0938 90.6445L9.92969 85.3711V85.2539L9.94141 85.1367L10.2344 82.5938L10.082 80.1328L10.0703 80.0508L10.082 79.957L10.2109 77.5078L9.80078 75L9.76562 74.7891L9.78906 74.5781L10.0938 72.0234L10.1641 69.5391L9.98828 66.9492L9.97656 66.8906V66.832L9.98828 64.1953V64.0781L10.1875 61.5L10.0938 59.0625L9.83594 56.4258L9.82422 56.2734L9.83594 56.1211L10.0938 53.625L10.0703 53H10V50H10.0352L12.5781 49.8945L12.6836 49.8828L12.8008 49.8945L15.2852 50.1641L17.7695 49.918H17.8633L20.5 49.8125L20.5938 49.8008L20.6758 49.8125L23.3125 50.0117L23.3008 50.0234H25.7383L28.375 49.8359L28.4453 49.8242L28.5273 49.8359L31.1641 49.9062H31.2344L31.293 49.918L33.7305 50.1992L36.1562 49.8008L36.3203 49.7773L36.4844 49.7891L38.6396 49.9082L38.4727 49.2461L38.4375 49.1055L38.4258 48.9648L38.2852 46.3164L38.2734 46.1523L38.3086 46L38.707 43.5625L38.4141 41.1367L38.4023 41.0664V41.0078L38.332 38.3594V38.207L38.5195 35.5703V33.0391L38.3086 30.5195V30.3438L38.4141 27.6953V27.6133L38.6602 25.1172L38.4023 22.6328L38.3906 22.5273V22.4102L38.4961 19.8789V17.6055L39.1172 17.8516L39.1406 17.6992L39.1992 17.5586L40.2188 15.1211L40.2305 15.0625L40.2656 15.0156L41.4141 12.7305L42.2227 10.3398L42.8438 8.53516L44.4609 9.56641L45.5977 10.293L46.1133 10.6211L46.2539 11.207L46.8398 13.6094L48 15.7656L48.0469 15.8477L48.082 15.9297L49.0547 18.3906L49.1484 18.6133L49.1602 18.8711L49.2773 21.4023L49.6055 23.9805L49.6172 24.0742V24.1797L49.5703 26.8281L49.6289 29.3594L49.6318 29.4326L49.9805 29.2578L50.0742 29.2109L50.1797 29.1758L52.5117 28.3906L54.6797 27.1016L54.7383 27.0781L54.7969 27.043L57.1641 25.8828L57.3281 25.8125L59.1006 25.1992L59.0938 25.0508V25.0625L58.8828 22.9043L58.3711 23.0352L56.4961 23.5156V21.5H57.9727L57.6328 20.1406L58.6289 19.8828L58.9102 19.8008L59.0723 19.8262L59.0938 19.625L59 17.1641V17H62V17.0352L62.1055 19.5781L62.1172 19.6836L62.1055 19.8008L62.0781 20.0439L62.8125 20H63V23H62.9883L61.9121 23.0596L62.082 24.7695V24.8398L62.1006 25.2178L62.9883 25.4141L63.1992 25.4609L63.3867 25.5547L65.707 26.8203H65.7188L67.957 28.0625L70.3125 28.9648L70.3711 28.9883L70.418 29.0117L71.3438 29.4473L71.4141 27.6953V27.6133L71.6602 25.1172L71.4023 22.6328L71.3906 22.5273V22.4102L71.4961 19.8789V17.6055L72.1172 17.8516L72.1406 17.6992L72.1992 17.5586L73.2188 15.1211L73.2305 15.0625L73.2656 15.0156L74.4141 12.7305L75.2227 10.3398L75.8438 8.53516L77.4609 9.56641ZM35.0195 113.629L34.8789 113.652L34.7266 113.641L32.0898 113.512H32.0781L29.5469 113.359L27.0039 113.57L26.9453 113.582H26.8867L24.25 113.594H24.1445L24.0391 113.582L21.625 113.254L19.2227 113.688L18.9766 113.734L18.7188 113.699L16.1758 113.277L13.8438 113.336L11.9688 113.617L11.6758 114.121L11.6172 114.482L13.2852 114.664L15.7695 114.418H15.8633L18.5 114.312L18.5938 114.301L18.6758 114.312L21.3125 114.512L21.3008 114.523H23.7383L26.375 114.336L26.4453 114.324L26.5273 114.336L29.1641 114.406H29.2344L29.293 114.418L31.7305 114.699L34.1562 114.301L34.3203 114.277L34.4844 114.289L37.0156 114.43L39.582 114.254L39.7227 114.242L39.8633 114.266L42.3711 114.57L44.9141 114.488L47.5039 114.418V114.406L50.1523 114.242L50.3281 114.23L50.5039 114.266L52.8828 114.688L55.2617 114.266L55.4609 114.23L55.6602 114.242L58.1328 114.488L60.7227 114.348L60.8633 114.336L61.0156 114.359L63.418 114.711L65.8086 114.266L65.9844 114.23L66.1602 114.242L68.7969 114.371L68.7852 114.383L71.3633 114.43L73.9766 114.383H74.082L74.1875 114.395L76.6836 114.711L79.1445 114.477H79.2734L81.9102 114.453H82.0039L82.0859 114.465L84.5469 114.746L86.9727 114.371L87.125 114.348L87.2773 114.359L89.9141 114.488H89.9258L92.4453 114.641L95 114.43L95.0586 114.418H95.1055L97.7539 114.406H97.8594L97.9648 114.418L100.367 114.746L102.77 114.312L103.027 114.266L103.285 114.301L105.816 114.723L108.137 114.664L108.398 114.623L108.391 113.875L108.027 113.395L106.223 113.582H106.141L103.504 113.688L103.41 113.699L103.328 113.688L100.68 113.488V113.477H98.2539L95.6289 113.664L95.5469 113.676L95.4766 113.664L92.8398 113.594H92.7695L92.6992 113.582L90.2617 113.301L87.8477 113.699L87.6836 113.723L87.5195 113.711L84.9766 113.57L82.4219 113.746L82.2812 113.758L82.1406 113.734L79.6211 113.43L77.0898 113.512L74.4766 113.582L74.4883 113.594L71.8516 113.758L71.6758 113.77L71.5 113.734L69.1211 113.312L66.7422 113.734L66.543 113.77L66.3438 113.758L63.8477 113.512L61.2812 113.652L61.1289 113.664L60.9883 113.641L58.5742 113.289L56.1953 113.734L56.0195 113.77L55.8438 113.758L53.207 113.629V113.617L50.6289 113.57L48.0273 113.617H47.9219L47.8164 113.605L45.3086 113.289L42.8594 113.523H42.7305L40.0938 113.547H40L39.9062 113.535L37.4453 113.254L35.0195 113.629ZM33.0234 109.629L32.8711 109.652L32.7305 109.641L30.082 109.512H30.0703L27.5508 109.359L24.9961 109.57L24.9492 109.582H24.8906L22.2539 109.594H22.1484L22.043 109.582L19.6172 109.254L19.1777 109.333L19.2266 109.496H18.2822L17.2266 109.688L16.9688 109.734L16.7109 109.699L14.332 109.301L13.5352 109.477L13.6729 110.347L16.2812 110.277H16.4219L16.5625 110.301L18.9297 110.699L21.332 110.266L21.5664 110.219L21.8008 110.254L24.3438 110.594H26.7578L29.3945 110.371L29.5 110.359L29.6055 110.371L32.2422 110.523L32.2305 110.535L34.7031 110.652L37.2227 110.266L37.4102 110.23L37.6094 110.254L40.1289 110.547L42.707 110.523L45.2266 110.289L45.3789 110.277L45.543 110.301L48.0625 110.617L50.6172 110.57H50.6758L53.3125 110.629H53.3594L55.8203 110.77L58.5273 110.254L58.7734 110.289L61.2695 110.652L63.7539 110.512H63.9766L66.4023 110.758L68.8633 110.324L69.1211 110.277L69.3789 110.324L71.8633 110.758L74.3125 110.605H74.3242L74.3477 110.594L76.9961 110.512L79.6328 110.43H79.75L79.8672 110.441L82.3984 110.746L84.8594 110.582L84.9531 110.57L85.0352 110.582L87.4844 110.723L89.9922 110.301L90.2031 110.266L90.4141 110.289L92.957 110.605L95.4531 110.676L98.0547 110.488L98.1133 110.477H98.1602L100.809 110.488H100.914L103.492 110.699L105.93 110.605L106.397 110.558L106.395 109.875L106.031 109.395L104.227 109.582H104.145L101.496 109.688L101.414 109.699L101.32 109.688L98.6836 109.488V109.477H96.2578L93.6328 109.664L93.5508 109.676L93.4805 109.664L90.832 109.594H90.7734L90.7031 109.582L88.2656 109.301L85.8398 109.699L85.6875 109.723L85.5234 109.711L82.9688 109.57L80.4141 109.746L80.2734 109.758L80.1328 109.734L77.6133 109.43L75.0938 109.512L72.4805 109.582L72.4922 109.594L69.8555 109.758L69.6797 109.77L69.5039 109.734L67.1133 109.312L64.7344 109.734L64.5352 109.77L64.3359 109.758L61.8516 109.512L59.2852 109.652L59.1328 109.664L58.9922 109.641L56.5781 109.289L54.1992 109.734L54.0234 109.77L53.8359 109.758L51.1992 109.629V109.617L48.6328 109.57L46.0195 109.617H45.9141L45.8203 109.605L43.3125 109.289L40.8516 109.523H40.7344L38.0859 109.547H38.0039L37.9102 109.535L35.4492 109.254L33.0234 109.629ZM86.1055 84.5781L86.1172 84.6836L86.1055 84.8008L85.8359 87.2852L86.082 89.7695L86.0938 89.9102L86.082 90.0391L86.0547 90.3857L86.5742 90.3359L87.4062 90.2539L87.9102 90.9219L89.082 92.4453L89.3867 92.8438V93.3477L89.3975 94.5576L91.5703 94.3359L92.4023 94.2539L92.9062 94.9219L94.0781 96.4453L94.3828 96.8438L94.3945 97.3477L94.3994 98.5566L96.5781 98.3359L97.3984 98.2539L97.9141 98.9219L99.0859 100.445L99.3906 100.844V101.348L99.4014 102.548L101.574 102.336L102.406 102.254L102.91 102.922L104.082 104.445L104.387 104.844V105.348L104.397 106.558L106.57 106.336L107.402 106.254L107.818 106.806L107.801 106.711L107.754 106.477L107.789 106.23L108.152 103.723L108.012 101.238V101.016L108.015 100.98L106.8 100.135L106.729 100.093L106.663 100.025L104.831 98.3945L102.616 97.1484L102.43 97.0439L102.279 96.8936L100.476 95.0596L98.5791 93.4531L96.4473 91.9727L96.3936 91.9453L96.3477 91.9082L94.2969 90.252L94.2051 90.1787L92.3164 88.4131L90.3447 86.9561L90.3545 86.9639L88.1348 85.5176L88.0078 85.4316L87.8965 85.3271L86.1084 83.5664L86.0615 83.5312L86.1055 84.5781ZM28.0273 105.629L27.875 105.652L27.7227 105.641L25.0859 105.512H25.0742L22.543 105.359L22 105.404V105.496H20.8945L20 105.57L19.9414 105.582H18.4531L18.2773 106.344L18.3096 106.45L19.3359 106.266L19.5703 106.219L19.8047 106.254L22.3477 106.594H24.7617V106.582L27.3984 106.371L27.5039 106.359L27.6094 106.371L30.2461 106.523L30.2344 106.535L32.707 106.652L35.2148 106.266L35.4141 106.23L35.6133 106.254L38.1328 106.547L40.7109 106.523L43.2188 106.289L43.3828 106.277L43.5469 106.301L46.0664 106.617L48.6094 106.57H48.668L51.3164 106.629H51.3633L53.8242 106.77L56.5312 106.254L56.7773 106.289L59.2734 106.652L61.7578 106.512H61.9805L64.3945 106.758L66.8555 106.324L67.125 106.277L67.3828 106.324L69.8672 106.758L72.3047 106.605H72.3281L72.3516 106.594L77.625 106.43H77.7422L77.8594 106.441L80.3906 106.758L82.8633 106.582L82.9453 106.57L83.0391 106.582L85.4883 106.723L87.9961 106.301L88.207 106.266L88.418 106.289L90.9609 106.605L93.4453 106.676L96.0469 106.488L96.1055 106.477H96.1641L98.8008 106.488H98.918L101.396 106.69L101.387 105.863L101.035 105.395L99.2305 105.582H99.1367L96.5 105.688L96.4062 105.699L96.3242 105.688L93.6875 105.488V105.477H91.25L88.625 105.664L88.5547 105.676L88.4727 105.664L85.8359 105.594H85.7656L85.707 105.582L83.2578 105.301L80.8438 105.699L80.6797 105.723L80.5156 105.711L77.9727 105.57L75.418 105.746L75.2773 105.758L75.1367 105.734L72.6172 105.43L70.0859 105.512L67.4844 105.582L67.4961 105.594L64.8477 105.758L64.6719 105.77L64.4961 105.734L62.1172 105.312L59.7383 105.734L59.5391 105.77L59.3398 105.758L56.8555 105.512L54.2773 105.652L54.1367 105.664L53.9844 105.641L51.5703 105.289L49.1914 105.734L49.0156 105.77L48.8398 105.758L46.2031 105.629V105.617L43.625 105.57L41.0234 105.617H40.918L40.8125 105.605L38.3047 105.289L35.8555 105.523H35.7266L33.0898 105.547H32.9961L32.9141 105.535L30.4414 105.254L28.0273 105.629ZM33.1035 85.3271L32.9922 85.4316L32.8652 85.5176L30.6455 86.9639L30.6553 86.9561L28.6836 88.4131L26.7949 90.1787L26.7031 90.252L24.6523 91.9082L24.6064 91.9453L24.5527 91.9727L22.4209 93.4531L20.5244 95.0596L18.7207 96.8936L18.5703 97.0439L18.3838 97.1484L16.1689 98.3945L14.3369 100.025L14.2715 100.093L14.2002 100.135L13.0293 100.949L13.0117 101.133L13.1523 103.723L13.1641 103.863L13.1406 104.016L12.7891 106.418L12.8174 106.57L14.0039 106.312L14.2852 106.254L14.5664 106.301L15.2061 106.408L15.2773 106.086L15.7695 103.777L16.0273 102.605L17.2344 102.594H19.7539L20.4668 102.533L20.5234 101.734L20.5352 101.465L20.6523 101.207L21.4375 99.5195L21.7773 98.7812L22.5742 98.6641L25.2227 98.2656L25.4102 98.2305L25.5312 98.2441L25.5234 97.2891V96.7148L25.9102 96.2812L27.2461 94.793L27.7617 94.1953L28.5469 94.3008L30.5947 94.5576L30.6289 92.6914L30.6523 91.543L31.7539 91.2617L33.5469 90.8164L33.6406 90.793L34.0117 90.7236L34.0703 89.9336L33.8359 87.4258L33.8242 87.2734L33.8359 87.1211L34.0938 84.625L34.083 84.3613L33.1035 85.3271ZM23.8164 101.5L23.4883 102.227L23.4746 102.421L25.25 102.523L25.2383 102.535L27.7109 102.652L30.2188 102.266L30.418 102.23L30.6055 102.254L33.1367 102.547L35.7031 102.523V102.535L38.2227 102.289L38.3867 102.277L38.5508 102.301L41.0703 102.617L43.6133 102.57H43.6719L46.3086 102.629H46.3555L48.8164 102.77L51.2891 102.301L51.5234 102.254L51.7695 102.289L54.2656 102.652L56.7617 102.512H56.9844L59.3984 102.758L61.8594 102.324L62.1172 102.277L62.3867 102.324L64.8711 102.758L67.3086 102.605H67.332L67.3555 102.594L72.6289 102.43H72.7461L72.8633 102.441L75.3945 102.746L77.8672 102.582L77.9492 102.57L78.043 102.582L80.4805 102.723L83 102.301L83.2109 102.266L83.4219 102.289L85.9648 102.605L88.4492 102.676L91.0508 102.488L91.1094 102.477H91.168L93.8047 102.488H93.9219L96.3994 102.69L96.3906 101.875L96.0273 101.395L94.2227 101.582H94.1406L91.5039 101.688L91.4102 101.699L91.3281 101.688L88.6797 101.488V101.477H86.2539L83.6289 101.664L83.5469 101.676L83.4766 101.664L80.8398 101.594H80.7695L80.6992 101.582L78.2617 101.301L75.8477 101.699L75.6836 101.723L75.5195 101.711L72.9766 101.57L70.4219 101.746L70.2812 101.758L70.1406 101.734L67.6211 101.43L65.0898 101.512L62.4766 101.582L62.4883 101.594L59.8516 101.758L59.6758 101.77L59.5 101.734L57.1211 101.312L54.7422 101.734L54.543 101.77L54.3438 101.758L51.8477 101.512L49.2812 101.652L49.1289 101.664L48.9883 101.641L46.5742 101.289L44.1953 101.734L44.0195 101.77L43.8438 101.758L41.207 101.629V101.617L38.6289 101.57L36.0273 101.617H35.9219L35.8164 101.605L33.3086 101.289L30.8594 101.523H30.7305L28.0938 101.547H28L27.9062 101.535L25.4453 101.254L23.8164 101.5ZM39.1992 97.7344L39.0234 97.7695L38.8359 97.7578L36.1992 97.6289V97.6172L33.6328 97.5703L31.0195 97.6172H30.9141L28.9453 97.3711L28.5234 97.8398L28.5312 98.543L30.707 98.5234L33.2266 98.2891L33.3789 98.2773L33.543 98.3008L36.0625 98.6172L38.6172 98.5703H38.6758L41.3125 98.6289H41.3594L43.8203 98.7695L46.5273 98.2539L46.7734 98.2891L49.2695 98.6523L51.7539 98.5117H51.9766L54.4023 98.7578L56.8633 98.3242L57.1211 98.2773L57.3789 98.3242L59.8633 98.7578L62.3125 98.6055H62.3242L62.3477 98.5938L64.9961 98.5117L67.6328 98.4297H67.75L67.8672 98.4414L70.3984 98.7461L72.8594 98.582L72.9531 98.5703L73.0352 98.582L75.4844 98.7227L77.9922 98.3008L78.2031 98.2656L78.4141 98.2891L80.957 98.6055L83.4531 98.6758L86.0547 98.4883L86.1133 98.4766H86.1602L88.8086 98.4883H88.9141L91.3984 98.6914L91.3945 97.875L91.0312 97.3945L89.2266 97.582H89.1445L86.4961 97.6875L86.4141 97.6992L86.3203 97.6875L83.6836 97.4883V97.4766H81.2578L78.6328 97.6641L78.5508 97.6758L78.4805 97.6641L75.832 97.5938H75.7734L75.7031 97.582L73.2656 97.3008L70.8398 97.6992L70.6875 97.7227L70.5234 97.7109L67.9688 97.5703L65.4141 97.7461L65.2734 97.7578L65.1328 97.7344L62.6133 97.4297L60.0938 97.5117L57.4805 97.582L57.4922 97.5938L54.8555 97.7578L54.6797 97.7695L54.5039 97.7344L52.1133 97.3125L49.7344 97.7344L49.5352 97.7695L49.3359 97.7578L46.8516 97.5117L44.2852 97.6523L44.1328 97.6641L43.9922 97.6406L41.5781 97.2891L39.1992 97.7344ZM99.2471 72.9912L99.582 73.5488L99.5527 73.5684L97.4258 74.9629L97.3379 75.0195L97.2324 75.0732L94.9297 76.1494L92.958 77.6123L92.9248 77.6475L92.8857 77.6729L90.6797 79.1182L90.6016 79.1689L90.5264 79.2041L88.7354 80.082L91.1211 79.8359L91.2734 79.8242L91.4258 79.8359L94.0625 80.0938H94.0508L96.5 80.1875L99.0781 79.9883H99.1953L101.832 79.9766H101.891L101.949 79.9883L104.539 80.1641L107.07 80.0938L107.844 80.0117L107.996 81.5L108.16 82.9883L107.281 83.082L107.223 83.0938H107.164L104.527 83.1641L104.445 83.1758L104.375 83.1641L101.738 82.9766H99.3008L99.3125 82.9883L96.6758 83.1875L96.5938 83.1992L96.5 83.1875L93.8633 83.082H93.7695L91.2852 82.8359L89.8066 82.9961L89.8984 83.0869L91.9922 84.4473L92.0654 84.5059L94.1904 86.0703L94.2705 86.1201L94.3271 86.1797L96.2617 87.9824L96.2461 87.9844L98.1494 89.5068L100.325 91.0078L100.388 91.043L100.444 91.1035L102.459 92.8057L102.514 92.8496L102.553 92.8945L104.28 94.6377L106.423 95.8418L106.565 95.9258L106.687 96.0371L108.017 97.2275L107.824 96.1406L107.777 95.8828L107.824 95.6133L108.258 93.1172L108.105 90.6914V90.668L108.094 90.6445L107.93 85.3711V85.2539L107.941 85.1367L108.246 82.5938L108.082 80.1328L108.07 80.0508L108.082 79.957L108.223 77.5078L107.801 75L107.766 74.7891L107.789 74.5781L107.979 73.041L107 73.1992L106.789 73.2344L106.578 73.2109L104.023 72.9062L101.539 72.8359L99.2471 72.9912ZM26.2305 83.082H26.1367L23.5 83.1875L23.4062 83.1992L23.3242 83.1875L20.6875 82.9883L20.6992 82.9766H18.2617L15.625 83.1641L15.5547 83.1758L15.4727 83.1641L13.2051 83.1035L12.9297 85.3711L13.0117 87.9141L13.082 90.5039H13.0938L13.2578 93.1523L13.2695 93.3281L13.2344 93.5039L12.8125 95.8828L13.041 97.1758L14.3135 96.0371L14.4346 95.9258L14.5771 95.8418L16.7197 94.6377L18.4473 92.8945L18.4863 92.8496L18.541 92.8057L20.5557 91.1035L20.6123 91.043L20.6748 91.0078L22.8506 89.5068L24.7539 87.9844L24.7383 87.9824L26.6729 86.1797L26.7295 86.1201L26.8096 86.0703L28.9346 84.5059L29.0078 84.4473L31.0908 83.0928L28.7148 82.8359L26.2305 83.082ZM34.2734 93.7109L34.2852 93.7227L33.5938 93.8867L33.583 94.5703H33.668L36.3164 94.6289H36.3633L38.8242 94.7695L41.5312 94.2539L41.7773 94.2891L44.2734 94.6523L46.7578 94.5117H46.9805L49.3945 94.7578L51.8555 94.3242L52.125 94.2773L52.3828 94.3242L54.8672 94.7578L57.3047 94.6055H57.3281L57.3516 94.5938L62.625 94.4297H62.7422L62.8594 94.4414L65.3906 94.7578L67.8633 94.582L67.9453 94.5703L68.0391 94.582L70.4883 94.7227L72.9961 94.3008L73.207 94.2656L73.418 94.2891L75.9609 94.6055L78.4453 94.6758L81.0469 94.4883L81.1055 94.4766H81.1641L83.8008 94.4883H83.918L86.3955 94.6904L86.3867 93.8633L86.0352 93.3945L84.2305 93.582H84.1367L81.5 93.6875L81.4062 93.6992L81.3242 93.6875L78.6875 93.4883V93.4766H76.25L73.625 93.6641L73.5547 93.6758L73.4727 93.6641L70.8359 93.5938H70.7656L70.707 93.582L68.2578 93.3008L65.8438 93.6992L65.6797 93.7227L65.5156 93.7109L62.9727 93.5703L60.418 93.7461L60.2773 93.7578L60.1367 93.7344L57.6172 93.4297L55.0859 93.5117L52.4844 93.582L52.4961 93.5938L49.8477 93.7578L49.6719 93.7695L49.4961 93.7344L47.1172 93.3125L44.7383 93.7344L44.5391 93.7695L44.3398 93.7578L41.8555 93.5117L39.2773 93.6523L39.1367 93.6641L38.9844 93.6406L36.5703 93.2891L34.2734 93.7109ZM60.8477 89.6992L60.6836 89.7227L60.5195 89.7109L57.9766 89.5703L55.4219 89.7461L55.2812 89.7578L55.1406 89.7344L52.6211 89.4297L50.0898 89.5117L47.4766 89.582L47.4883 89.5938L44.8516 89.7578L44.6758 89.7695L44.5 89.7344L42.1211 89.3125L39.7422 89.7344L39.5781 89.7695L39.4141 89.7578L38.5938 89.7227L38.6426 90.5615L39.2656 90.6523L41.7617 90.5117H41.9844L44.3984 90.7578L46.8594 90.3242L47.1172 90.2773L47.3867 90.3242L49.8711 90.7578L52.3086 90.6055H52.332L52.3555 90.5938L57.6289 90.4297H57.7461L57.8633 90.4414L60.3945 90.7461L62.8672 90.582L62.9492 90.5703L63.043 90.582L65.4805 90.7227L68 90.3008L68.2109 90.2656L68.4219 90.2891L70.9648 90.6055L73.4492 90.6758L76.0508 90.4883L76.1094 90.4766H76.168L78.8047 90.4883H78.9219L81.3994 90.6904L81.3906 89.875L81.0273 89.3945L79.2227 89.582H79.1406L76.5039 89.6875L76.4102 89.6992L76.3281 89.6875L73.6797 89.4883V89.4766H71.2539L68.6289 89.6641L68.5469 89.6758L68.4766 89.6641L65.8398 89.5938H65.7695L65.6992 89.582L63.2617 89.3008L60.8477 89.6992ZM78.4141 79.7305L78.3789 79.7422L78.3555 79.7539L76.668 80.5391L76.5078 80.6133L76.3008 82.6992L76.5703 85.207L76.582 85.3125L76.5703 85.418L76.5186 86.6973L78.9297 86.6055L81.5781 86.3359L82.3984 86.2539L82.8633 86.8555L83.0938 84.625L83.0264 82.8672L82.6133 82.1729L82.5244 82.0352L83.8018 81.2695L82.9873 80.2188L83.4629 79.8516L82.8145 79.5781L82.7188 79.6055L82.6982 79.5293L82.0352 79.25L80.2539 78.7695L78.4141 79.7305ZM37.9648 79.3672L35.7871 80.4844L37 82V82.0352L37.1055 84.5781L37.1172 84.6836L37.1055 84.8008L36.9033 86.6562L37.0703 86.6641L39.3789 86.7578L41.8633 86.3242L42.1211 86.2773L42.3789 86.3242L43.6133 86.5391L43.5234 84L43.4414 81.6855L43.0391 81.418L40.9883 80.0586L40.918 80.0117L39.4062 78.8867L37.9648 79.3672ZM49.8633 79.6992L49.6992 79.7227L49.5352 79.7109L47.2031 79.582L46.6172 79.7812L46.4297 81.3516L46.5234 83.8945L46.6055 86.4141L46.6318 86.6475L47.3125 86.6055H47.3242L47.3477 86.5938L49.9961 86.5117L52.6328 86.4297H52.75L52.8672 86.4414L55.3984 86.7461L57.8594 86.582L57.9531 86.5703L58.0352 86.582L60.4844 86.7227L62.9922 86.3008L63.2031 86.2656L63.4141 86.2891L65.957 86.6055L68.4531 86.6758L71.0547 86.4883L71.1133 86.4766H71.1602L73.5234 86.4863L73.5703 85.3594L73.3008 82.875L73.2891 82.7227L73.3008 82.5703L73.5586 79.9336L73.5752 79.5996L73.4414 79.6055L73.3242 79.6172L73.2188 79.6055L70.7109 79.3359L68.2383 79.582H68.1562L65.5195 79.6875L65.4258 79.6992L65.3438 79.6875L62.6953 79.4883V79.4766H60.2695L57.6445 79.6641L57.5625 79.6758L57.4922 79.6641L54.8555 79.5938H54.7852L54.7148 79.582L52.2773 79.3008L49.8633 79.6992ZM13.0176 72.8467L12.8008 74.7305L13.1992 77.1562L13.2227 77.3203L13.2109 77.4844L13.0703 80.0156L13.0752 80.0977L15.4609 80.1641L18.0508 79.9883L18.1094 79.9766H18.168L20.8047 79.9883H20.9219L23.5 80.1875L25.9492 80.0938H25.9375L28.5742 79.8359L28.7266 79.8242L28.8789 79.8359L30.2168 79.9736L29.2568 79.4541L29.1816 79.4199L29.1084 79.3594L26.9482 77.8447L26.8691 77.7939L24.9121 76.2432L22.6768 75.127L22.5713 75.0732L22.4893 75.0068L20.4072 73.543L20.3779 73.5234L20.7031 73.0156L18.625 73.1641L18.5547 73.1758L18.4727 73.1641L15.8359 73.0938H15.7656L15.707 73.082L13.293 72.8008L13.0176 72.8467ZM91.0508 72.9062H91.0625L88.4258 73.1641L88.2734 73.1758L88.1211 73.1641L85.625 72.9062L84.3799 72.9531L84.4766 73.8164L84.9336 76.3008L85.2109 77.334L85.4453 77.4336L85.3164 77.7285L85.5156 78.4717L86.7207 77.749L86.7607 77.7236L86.8164 77.7021L89.1758 76.5186L91.1904 75.21L91.1748 75.2061L93.3076 73.626L93.4287 73.5342L93.5596 73.4775L94.7783 72.9111L93.5 72.8125L91.0508 72.9062ZM29.2305 73.082H29.1367L26.5 73.1875L26.4062 73.1992L26.3242 73.1875L25.3779 73.1152L26.3965 73.6309L26.5312 73.7041L26.6523 73.7959L28.7314 75.4385L28.7217 75.4326L30.7314 76.8359L33.0078 78.0625L33.1055 78.126L33.5186 78.3887L34.1367 76.4297L34.6992 73.9688L34.8252 73.0879L34.4219 73.1055L34.3164 73.1172L34.1992 73.1055L31.7148 72.8359L29.2305 73.082ZM43.7783 78.3105L43.8232 77.959L42.9277 77.751L43.7783 78.3105ZM38.8945 70.6758L37.9922 72.1289L37.6523 74.4258L37.6289 74.543L37.1982 76.4668L39.207 75.8047L39.9453 75.5586L40.5664 76.0273L42.5693 77.5098L42.6289 77.25L43.0508 74.7422L43.0742 74.625L43.1094 74.5195L43.9062 72.1172L43.9551 71.7334L42.1055 70.5938L40.4531 70.125L38.8945 70.6758ZM76.8242 70.2891L74.9023 71.0928L75 71.7695L75.8789 74.1484L75.9141 74.2539L75.9375 74.3594L76.373 76.5H76.7344L76.6973 77.2139L77.0312 77.0586L79.3867 75.8398L79.9023 75.5703L80.4648 75.7227L81.8506 76.0889L81.5234 74.3672L81.5117 74.3086V74.2617L81.2422 71.9297L80.4805 70.5469L79.7822 70.3613L79.7227 70.3789L79.7119 70.3428L78.8047 70.1016L76.8242 70.2891ZM47.9492 70.6758L47.0703 70.9688L46.8477 72.668L46.8359 72.8086L46.7891 72.9375L45.9688 75.3867L45.7207 76.918L46.4883 76.6523L46.7695 76.5586L47.0508 76.582L49.5 76.7227L52.0078 76.3008L52.2188 76.2656L52.4297 76.2891L54.9727 76.6055L57.457 76.6758L60.0703 76.4883L60.1289 76.4766H60.1758L62.8242 76.4883H62.9297L65.5078 76.6992L67.9453 76.6055L70.5938 76.3359L70.7461 76.3242L70.8867 76.3359L73.3408 76.6006L73.0312 75.0742L72.1523 72.6836L72.0938 72.543L72.0703 72.3906L71.8096 70.5889L71.4219 70.6055L71.3164 70.6172L71.1992 70.6055L68.7031 70.3359L66.2305 70.582H66.1367L63.5 70.6875L63.4062 70.6992L63.3242 70.6875L60.6875 70.4883V70.4766H58.25L55.625 70.6641L55.5547 70.6758L55.4727 70.6641L52.8359 70.5938H52.7656L52.707 70.582L50.2578 70.3008L47.9492 70.6758ZM13.8438 62.1992L13.6562 62.2227L13.4688 62.2109L13.1484 62.1826L12.9883 64.3125L12.9766 64.3008V66.7383L13.1641 69.375L13.1758 69.4453L13.1641 69.5273L13.1572 69.7715L13.1992 69.7656L13.4219 69.7891L15.9766 70.1055L18.4609 70.1758L21.0508 69.9883L21.1094 69.9766H21.168L23.8047 69.9883H23.9219L26.5 70.1992L28.9492 70.1055L28.9375 70.0938L31.5742 69.8359L31.7266 69.8242L31.8789 69.8359L34.375 70.1055L35.748 70.0459L36.6094 68.6602H36.6084L36.1875 68.9609L35.8916 69.7549L33.4258 68.8018L33.3682 68.7871L33.3154 68.7627L30.9346 67.6289L30.8281 67.5791L28.5801 66.3008L26.3242 65.3428L26.335 65.3486L23.8398 64.459L23.6963 64.4043L23.5635 64.3291L21.415 63.0332L19.2275 62.1035L18.8359 62.0938H18.7656L18.707 62.082L16.2695 61.8008L13.8438 62.1992ZM104 62.1992L103.789 62.2344L103.578 62.2109L101.896 62.0098L100.409 63.0098L100.308 63.0684L100.211 63.1123L97.9668 64.1738L95.9541 65.6982L95.8838 65.7393L93.6875 67.208L93.6133 67.2656L93.5361 67.2969L91.2617 68.4443L91.2676 68.4551L89.0127 69.8223L89.0068 69.8115L88.5547 70.1367L90.7695 69.918H90.8633L93.5 69.8125L93.5938 69.8008L93.6758 69.8125L96.3125 70.0117L96.3008 70.0234H98.7383L101.375 69.8359L101.445 69.8242L101.527 69.8359L104.164 69.9062H104.234L104.293 69.918L106.73 70.1992L108.163 69.9629L108.176 69.5391L107.988 66.9492L107.977 66.8906V66.832L107.988 64.1953V64.0781L108.168 61.877L106.508 61.7891L104 62.1992ZM88.0508 61.9062H88.0625L85.4258 62.1641L85.2734 62.1758L85.1211 62.1641L82.625 61.9062L81.3037 61.9561L81.457 62.6562L81.4688 62.7383L81.4805 62.832L81.7148 65.3516L82.125 67.8711L82.1318 67.8945L82.5078 68.0039L82.8125 68.5547L83.5107 69.8164L85.2266 68.8408L87.3604 67.3135L87.4609 67.2539L89.7158 65.8867L89.8164 65.8271L92.1016 64.6738L94.1621 63.2988L94.1455 63.2949L95.8447 62.0234H95.832L93.1953 62.0117H93.0781L90.5 61.8125L88.0508 61.9062ZM41.2578 61.6133L40.7188 63.3359L40.4023 65.8438L40.3789 65.9609L40.1562 67.0459L40.3242 66.9844L40.793 67.1133L43.1133 67.7578L43.3125 67.8164L43.5 67.9336L44.4902 68.543L44.5117 68.4844L45.0977 66.8555L45.3555 64.3945L45.3672 64.3008L45.3906 64.2188L45.8086 62.376L44.2227 61.2852L42.6758 61.0391L41.2578 61.6133ZM72.9023 61.8428L73 62.5195L73.8789 64.8984L73.9141 65.0039L73.9375 65.1094L74.4648 67.6992L74 67.7959V68.2168L75.8984 67.4414L76.0977 67.3594L76.3203 67.3359L78.793 67.0898L78.958 67.0752L78.75 65.8555L78.7383 65.7969V65.75L78.4922 63.2188L78.1406 61.5312L76.6055 61.0039L74.7656 60.9922L72.9023 61.8428ZM64.2227 61.582H64.1406L61.5039 61.6875L61.4102 61.6992L61.3281 61.6875L58.6797 61.4883V61.4766H56.2539L53.6289 61.6641L53.5469 61.6758L53.4766 61.6641L50.8398 61.5938H50.7695L50.6992 61.582L49.2344 61.4062L48.9062 62.3086L48.3438 64.7109L48.0625 67.3359L48.0391 67.5117L47.9971 67.6279L50 67.3008L50.2109 67.2656L50.4219 67.2891L52.9648 67.6055L55.4492 67.6758L58.0508 67.4883L58.1094 67.4766H58.168L60.8047 67.4883H60.9219L63.5 67.6992L65.9375 67.6055V67.5938L68.5742 67.3359L68.7266 67.3242L68.8789 67.3359L71.3633 67.6055L71.3916 67.6035L71.0312 65.8242L70.1523 63.4336L70.0938 63.293L70.0703 63.1406L69.8457 61.5879L69.4258 61.6055L69.3086 61.6172L69.2031 61.6055L66.6953 61.3359L64.2227 61.582ZM32.2305 62.082H32.1367L29.5 62.1875L29.4062 62.1992L29.3242 62.1875L26.6875 61.9883L26.6992 61.9766H25.8125L27.3428 62.5195L27.4268 62.5596L29.8574 63.5869L29.9473 63.6162L30.0166 63.6611L32.3174 64.9648L32.3018 64.9697L34.5078 66.0078L36.9736 66.9609L37.1045 67.0098L37.4375 65.3633L37.7539 62.8438L37.7656 62.7148L37.8125 62.5859L37.9697 62.082L37.4219 62.1055L37.3164 62.1172L37.1992 62.1055L34.7148 61.8359L32.2305 62.082ZM18.0508 52.9062H18.0625L15.4258 53.1641L15.2734 53.1758L15.1211 53.1641L13.0791 52.9531L13.1055 53.5781L13.1172 53.6836L13.1055 53.8008L12.8359 56.2852L13.082 58.7695V58.8633L13.0938 59.1699L13.5391 59.2109L16.2109 58.7656L16.4219 58.7891L18.9766 59.1055L21.4609 59.1758L24.0508 58.9883L24.1094 58.9766H24.168L26.8047 58.9883H26.9219L29.5 59.1992L30.5576 59.1582L29.2568 58.4541L29.1816 58.4199L29.1084 58.3594L26.9482 56.8447L26.8691 56.7939L24.9121 55.2432L22.6768 54.127L22.5713 54.0732L22.4893 54.0068L20.8262 52.8369L20.5 52.8125L18.0508 52.9062ZM102.672 53.2344L102.438 53.2812L102.203 53.2461L99.6367 52.918H99.0596L97.5107 54.0068L97.4287 54.0732L97.3232 54.127L95.0879 55.2432L93.1309 56.7939L93.0518 56.8447L90.8916 58.3594L90.8184 58.4199L90.7432 58.4541L90.0469 58.8301L90.5 58.8125L90.5938 58.8008L90.6758 58.8125L93.3125 59.0117L93.3008 59.0234H95.7383L98.375 58.8359L98.4453 58.8242L98.5273 58.8359L101.164 58.9062H101.234L101.293 58.918L103.73 59.1992L106.156 58.8008L106.32 58.7773L106.484 58.7891L108.075 58.873L107.836 56.4258L107.824 56.2734L107.836 56.1211L108.105 53.625L108.087 53.2129L107.723 53.2227H107.582L107.441 53.1992L105.051 52.8125L102.672 53.2344ZM34 53.1992L33.7891 53.2344L33.5781 53.2109L31.0234 52.9062L28.5391 52.8359L26.8477 52.9502L28.7314 54.4385L28.7217 54.4326L30.7314 55.8359L33.0078 57.0625L33.1055 57.126L35.3301 58.542L35.3701 58.5674L35.9268 58.9482L37.375 59.1055L38.6748 59.0488L39.0703 57.0664L39.375 54.5469L39.3867 54.4531L39.4102 54.3711L39.7773 52.8779L39.3887 52.9014L39.3867 52.9023L39.3857 52.9014L39.1328 52.918L39.0508 52.9297L38.957 52.918L36.5078 52.7891L34 53.1992ZM86.7812 53.2344L86.582 53.2695L86.3945 53.2461L83.8516 52.9648L81.2969 52.9766H81.2852L79.5068 53.1426L79.7656 54.3828L79.7891 54.4648L79.8008 54.5586L80.0234 57.0898L80.3301 58.9873L82.5781 58.8945L82.6836 58.8828L82.8008 58.8945L83.9756 59.0215L83.9727 59.0176L84.6299 58.5674L84.6699 58.542L86.8945 57.126L86.9922 57.0625L89.2686 55.8359L91.2783 54.4326L91.2686 54.4385L93.0254 53.0498L91.75 52.9766L89.2773 52.8594L86.7812 53.2344ZM42.8203 53.0586L42.3281 55.0859L42.0352 57.5352L42.0117 57.6523L41.9219 58.1104L41.9258 58.1094L42.3242 57.9453L42.7344 58.0156L45.0078 58.3789L45.3359 58.4258L45.6172 58.6133L45.8613 58.7812L46.0039 57.2695V57.1875L46.0273 57.0938L46.543 54.6797V53.002L44.3711 53.0703H44.2539L44.1367 53.0586L43.002 52.9277L42.8203 53.0586ZM65.7109 53.1992L65.4766 53.2461L65.2305 53.2109L62.7227 52.8594L60.2383 52.9883H60.0156L57.5898 52.7539L55.1406 53.1758L54.8828 53.2227L54.6133 53.1758L52.1172 52.7539L49.7383 52.8916L49.543 53.0039V54.8203L49.5547 54.9844L49.5195 55.1484L48.9688 57.668L48.9043 58.3496L50.957 58.6055L53.4531 58.6758L56.0547 58.4883L56.1133 58.4766H56.1602L58.8086 58.4883H58.9141L61.4922 58.6992L63.9297 58.6055L66.5781 58.3359L66.7305 58.3242L66.8828 58.3359L69.3672 58.6055L70.0791 58.5742L69.3633 56.2969L69.3164 56.1562L69.3047 56.0039L69.0352 53.3672L69.0469 53.3555L68.957 52.7822L68.1719 52.7422L65.7109 53.1992ZM73.3867 52.9297H73.3281L71.9971 52.8994L72.0117 52.9922L72.0234 53.0273V53.0625L72.2695 55.5352L73.0195 57.9375L73.0547 58.043L73.0664 58.1602L73.1123 58.4521L73.8164 58.1328L74.1211 57.9922H74.4492L76.8867 58.0156H77.1211L77.1328 58.0195L77.0586 57.5703L77.0469 57.5234V57.4648L76.8125 54.9336L76.4023 52.9648L76.3818 52.9502L75.918 52.8945L73.3867 52.9297ZM69.1328 34.918L69.0508 34.9297L68.957 34.918L66.5078 34.7891L64 35.1992L63.7891 35.2344L63.5781 35.2109L61.0234 34.9062L58.5391 34.8359L55.9492 35.0117L55.8906 35.0234H55.832L53.1953 35.0117H53.0781L50.5 34.8125L49.335 34.8564L49.3311 34.9316L49.6406 37.1523L49.6641 37.293L49.6523 37.4453L49.584 38.6816L49.6992 39.2891L49.7461 39.5234L49.7109 39.7695L49.5781 40.6777L49.7578 42.4961L49.7695 42.6953L49.7344 42.8945L49.4678 44.3975L49.4883 44.7617V44.9844L49.4043 45.7988L49.7344 47.6641L49.7695 47.8398L49.7578 48.0156L49.6748 49.3389L50.0225 49.5967L51.5654 49.6465L52.3125 49.6016H52.3477L52.4795 49.5967L52.4883 48.5703V48.4648L52.6992 45.8281L52.7344 45.4062L52.9805 45.0547L54.2227 43.3555L54.7734 42.6172L55.6758 42.7578L58.2188 43.1562L59.5312 43.3672L59.4844 44.6914L59.3906 47.4102L59.4102 49.6094L60.4785 49.6973L60.4883 48.5703V48.4648L60.6992 45.8281L60.7344 45.4062L60.9805 45.0547L62.2227 43.3555L62.7734 42.6172L63.6758 42.7578L66.2188 43.1562L67.5312 43.3672L67.4844 44.6914L67.3906 47.4102L67.4082 49.3916L67.9922 49.2969L68.2031 49.2734L68.4141 49.2969L69.9619 49.4736L71.4375 49.1836L71.4658 49.374L71.502 49.3633L71.4375 49.1055L71.4258 48.9648L71.2852 46.3164L71.2734 46.1523L71.3086 46L71.5254 44.6719L71.6436 43.042L71.4141 41.1367L71.4023 41.0664V41.0078L71.332 38.3594V38.207L71.3682 37.6914L71.3438 37.4258L71.3203 37.2734L71.3438 37.1211L71.5195 35.3633V34.7695L69.1328 34.918ZM41.5156 34.9482L41.5195 35.6758V35.793L41.332 38.4297L41.4023 40.8672L41.707 43.4219L41.7305 43.6328L41.6953 43.8438L41.2969 46.293L41.4258 48.6719L41.6602 49.5977L42.7012 49.4668L43.0078 49.25L43.4531 49.2266L45.7148 49.1328L46.2305 49.1094L46.541 49.3311L46.2656 47.7383L46.2305 47.5391L46.2422 47.3398L46.3848 45.8896L46.3242 45.543L46.2773 45.2852L46.3242 45.0156L46.4561 44.2637L46.3477 42.2773L46.3359 42.1367L46.3594 41.9844L46.5557 40.5781L46.5117 40.1406V39.918L46.5713 38.8613L46.2656 37.1914L46.2305 37.0156L46.2422 36.8398L46.3232 35.1738L46.3086 35.0771L45.4258 35.1641L45.2734 35.1758L45.1211 35.1641L42.625 34.9062L41.5156 34.9482ZM63.6523 46.4727L63.4883 48.6992L63.4805 49.54L64.4092 49.4492L64.3906 47.375V47.3047L64.4375 45.9102L64.0977 45.8633L63.6523 46.4727ZM74.5723 35.0635L74.5186 35.5576L74.5195 35.6758V35.793L74.3789 37.7578L74.5781 39.7695L74.5898 39.8164V39.8633L74.6953 42.5V42.6758L74.6641 43.0635L74.707 43.4219L74.7305 43.6328L74.6953 43.8438L74.5107 44.9736L74.4844 45.3125V47.8438L74.5635 48.9912L76.0742 49.2266L76.4375 49.2852L76.6611 49.4463L78.6562 49.5039L79.6875 49.3047L79.7578 48.0156L79.3242 45.543L79.2773 45.2852L79.3242 45.0156L79.7578 42.5547L79.5117 40.1406V39.918L79.6523 37.4336L79.2891 34.9375L79.2861 34.917L74.5723 35.0635ZM55.6523 46.4727L55.4883 48.6992L55.4805 49.4775L56.0889 49.4805L56.4092 49.4688L56.3906 47.375V47.3047L56.4375 45.9102L56.0977 45.8633L55.6523 46.4727ZM58.418 28.6016L56.2266 29.6797L53.9414 31.0391L53.8125 31.1211L53.6602 31.1797L51.5605 31.8789L53.3125 32.0117L53.3008 32.0234H55.7383L58.375 31.8359L58.4453 31.8242L58.5273 31.8359L61.1641 31.9062H61.2344L61.293 31.918L63.7305 32.1992L66.1562 31.8008L66.3203 31.7773L66.4844 31.7891L69.0156 31.9297L69.5322 31.8936L69.2109 31.7422L66.7734 30.8164L66.668 30.7812L66.5859 30.7344L64.2656 29.457L62.2617 28.3623L62.2695 28.4961H60.5V27.9268L60.4219 27.9102L58.418 28.6016ZM41.4131 21.9521L41.3906 22.4102L41.6602 24.9648L41.6719 25.1172L41.6602 25.2695L41.4141 27.8125V27.8242L41.3086 30.4609L41.4277 31.9414L42.5781 31.8945L42.6836 31.8828L42.8008 31.8945L45.2852 32.1641L46.7324 32.0205L46.7617 31.8525L46.6289 29.5234V29.4766L46.5703 26.8281V26.7695L46.6172 24.2266L46.3467 22.0771L45.4258 22.1641L45.2734 22.1758L45.1211 22.1641L42.625 21.9062L41.4131 21.9521ZM74.415 21.9141L74.3906 22.4102L74.6602 24.9648L74.6719 25.1172L74.6602 25.2695L74.4141 27.8125V27.8242L74.3086 30.4609L74.3574 31.0723L74.4961 31.1562V32.0352L74.4971 32.0654L76.9141 31.9883L79.4219 31.918L79.7627 31.875L79.6289 29.5234V29.4766L79.5703 26.8281V26.7695L79.6172 24.2266L79.335 21.9854L77.4258 22.1641L77.2734 22.1758L77.1211 22.1641L74.625 21.9062L74.415 21.9141ZM42.9961 16.2695H42.9844L42.0352 18.5547L41.9648 18.9199L42.5781 18.8945L42.6836 18.8828L42.8008 18.8945L45.2852 19.1641L46.1172 19.0811L45.3164 17.0898L44.0977 14.875L44.0039 14.6992L43.957 14.5117L43.9336 14.3945L42.9961 16.2695ZM75.9961 16.2695H75.9844L75.0352 18.5547L74.9668 18.9121L77.2852 19.1641L79.0791 18.9863L78.3164 17.0898L77.0977 14.875L77.0039 14.6992L76.957 14.5117L76.9336 14.3945L75.9961 16.2695Z" fill="black"/>
</svg>
