<svg width="120" height="120" viewBox="0 0 120 120" fill="none" xmlns="http://www.w3.org/2000/svg">
<path d="M60.3184 3.33008L61.9238 3.93945L62.3574 4.10352L62.6152 4.47852L64.1387 6.63477L64.1621 6.6582L64.1738 6.68164L65.6152 8.88477L65.7207 9.06055L65.7793 9.24805L66.5762 11.7324L66.7754 12.3418L66.4707 12.9043L65.7314 14.2578L65.7402 14.3477L65.7285 14.4648L65.5645 16.9961L65.4355 19.2695L66.0801 21.4141L66.4287 22.3027L68.0137 22.457L68.2246 22.4805L68.4238 22.5625L70.6855 23.4648L70.709 23.4766L70.7441 23.4883L73.2051 24.6016L73.3926 24.6836L73.5449 24.8125L75.6074 26.5234L75.6777 26.582L75.748 26.6523L77.5645 28.6211L77.7402 28.8086L77.834 29.043L78.8887 31.4688L80.0605 33.7422L80.084 33.7891L81.2207 36.168L81.2676 36.2734L81.3027 36.3789L81.7471 37.8486L83.4531 38.123L83.5205 38.1338L83.5869 38.1514L86.1475 38.8066L86.2275 38.8262L86.3047 38.8555L88.6143 39.7256L91.0859 40L91.2656 40.0195L91.4355 40.082L93.918 40.9883L94.5381 41.2148L94.79 41.8252L95.7754 44.2109L95.9023 44.5205L95.8867 44.8545L95.7637 47.4102L95.9863 49.9414L95.9883 49.9707L96.165 52.5928L96.3691 55.2334L96.3838 55.4277L96.3496 55.6182L95.9131 58.0127L96.2705 60.4189L96.3027 60.6348L96.2725 60.8516L95.9102 63.3877L95.8691 65.9375L95.8672 66.1016L95.8281 66.2627L95.2598 68.6318L95.4248 71.085L95.4375 71.2803L95.4004 71.4727L94.8926 74.0635L94.4004 76.6611L93.9424 79.2451L93.9199 79.3691L93.8779 79.4873L93.0303 81.8613L92.6426 84.3359L92.6299 84.4199L92.6074 84.501L91.9082 87.0479L91.8779 87.1562L91.832 87.2598L90.8262 89.5234L90.3633 91.9756L90.332 92.1455L90.2617 92.3037L89.1924 94.7236L89.1807 94.752L89.167 94.7783L88.0361 97.0791L87.1504 99.4912L87.123 99.5674L87.0869 99.6406L85.9131 102.009L85.6172 102.605L84.9756 102.786L83.3193 103.252L82.5518 103.468L81.9434 102.953L79.9053 101.227L79.7021 101.055L79.5703 100.823L78.9893 99.8008L78.8926 99.8926L78.3652 99.9277L75.8809 100.092L75.6699 100.115L75.459 100.068L74.3584 99.8359L74.2109 101.68V101.727L74.1992 101.773L73.9062 103.742L74.9727 105.09L76.9766 106.402L77.1406 106.52L77.2812 106.672L78.7227 108.289L79.0068 108.376L80.1328 108.488L82.7227 108.348L82.8633 108.336L83.0156 108.359L85.418 108.711L87.8086 108.266L87.9844 108.23L88.1602 108.242L90.7969 108.371L92.0273 108.441L92.2031 109.66L92.5547 112.156L92.5664 112.238V112.332L92.6064 114.627L95 114.43L95.0586 114.418H95.1055L97.7539 114.406H97.8594L97.9648 114.418L100.367 114.746L102.77 114.312L103.027 114.266L103.285 114.301L105.816 114.723L108.137 114.664L110.738 114.266L111.031 114.219L111.312 114.289L112.355 114.547L111.652 117.453L110.891 117.266L108.547 117.629L108.453 117.652H108.359L105.723 117.723H105.582L103.051 117.301L100.672 117.734L100.438 117.781L100.203 117.746L97.6367 117.406H95.2344L92.5977 117.629L92.4922 117.641L92.3984 117.629L89.75 117.477V117.465L88.249 117.394L86.8594 117.523H86.7305L86.1064 117.528L84.7812 117.734L84.582 117.77L84.3945 117.746L81.8516 117.453L80.0488 117.469L79.0195 117.629L78.8789 117.652L78.7266 117.641L77.9033 117.6L76.7773 117.711L76.6133 117.723L76.4492 117.699L73.918 117.383L73.0762 117.397L71.0039 117.57L70.9453 117.582H70.8867L68.25 117.594H68.1445L68.0391 117.582L65.8721 117.287L63.7109 117.699L63.4766 117.746L63.2305 117.711L63.1553 117.699L62.9766 117.734L62.7188 117.699L60.6309 117.353L58.2383 117.488H58.0156L57.3164 117.417L55.2656 117.734L55.1484 117.758H55.0312L52.3945 117.746H52.2891L52.1836 117.723L49.7344 117.359L47.2031 117.5H47.1328L44.4844 117.523H44.4375L44.1582 117.515L42.3711 117.57H42.2539L42.1367 117.559L41.1299 117.438L39.1641 117.395H39.1523L38.0811 117.354L37.1328 117.418L37.0508 117.43L36.957 117.418L36.1201 117.369L34.1133 117.641L33.9844 117.664L33.8438 117.652L32.6309 117.593L32 117.699L31.7891 117.734L31.5781 117.711L29.0234 117.395L26.5391 117.324L23.9492 117.512L23.8906 117.523H23.832L21.1953 117.512H21.0781L18.5 117.301L16.0508 117.395L16.0625 117.406L13.4258 117.664L13.2734 117.676L13.1211 117.664L10.625 117.395L8.16406 117.5H8V114.5H8.03516L10.5781 114.395L10.6836 114.383L10.8008 114.395L13.2852 114.664L15.7695 114.418H15.8633L18.5 114.312L18.5938 114.301L18.6758 114.312L21.3125 114.512L21.3008 114.523H23.7383L26.375 114.336L26.4453 114.324L26.5273 114.336L28.2744 114.382L28.5703 111.875L28.4883 110.059L28.4297 108.5H30.0352L32.5781 108.395L32.6836 108.383L32.8008 108.395L35.2852 108.664L37.3682 108.457L37.5352 108.084L37.6289 107.861L37.7812 107.686L39.5156 105.729L39.5859 105.658L39.668 105.588L41.4023 104.076L42.1523 102.377L42.0586 100.104H42.0469L41.8682 98.5576L40.7695 97.6826L38.8242 98.0928L37.5 98.3623L37.0898 97.085L36.5391 95.374L36.4453 95.1045L36.4688 94.8115L36.6445 92.1748V92.1279L36.9141 89.4912L37.1953 86.8662L37.207 86.749L37.2422 86.6318L37.8867 84.1943L38.0859 81.6982L38.0977 81.6045L38.1211 81.5225L38.6016 79.0615L38.5664 76.5771L38.5547 76.3662L38.6133 76.167L39.2695 73.6943L39.7148 71.1279L39.8672 68.6436L39.8789 68.585V68.5381L40.2422 65.9248L40.2539 65.8662V65.8193L40.7695 63.2998L40.9805 60.7686L41.0273 58.2139V58.0732L41.0625 57.9326L41.5898 55.46L41.6855 53.9131L40.9258 53.79L40.9141 53.7783L38.5234 53.3682L37.2275 53.4668L37.2402 53.8398L37.2637 54.8711L36.3262 55.2695L33.9238 56.2891L32.5059 56.8867L31.9434 55.457L31.0059 53.0781L30.8418 52.6797L30.9238 52.2461L30.9277 52.2236L30.8242 52.1729L30.1914 51.8682L30.0156 51.1768L29.3945 48.5986L29.2891 48.2002L29.4062 47.8135L29.915 46.1143L28.1953 45.8125L27.2461 45.9766L26.7539 43.0234L27.9727 42.8125L28.2188 42.7773L28.4766 42.8242L30.2109 43.1172L30.6797 42.4961L30.7383 40.3398L30.7852 37.7031V37.5859L30.8086 37.4688L31.2422 34.9727V32.3828L31.2539 32.2891L31.5469 29.8398L31.3242 27.3086L31.3008 27.0977L31.3477 26.8867L31.8633 24.2734L32.1562 21.7656L32.2383 19.2578V19.1875L32.25 19.1289L32.5664 16.5039V16.4336L32.5898 16.3633L33.1172 13.8555L33.4102 11.3477L33.6328 8.71094L33.6445 8.53516L33.7031 8.37109L34.5234 5.83984L34.5469 5.74609L34.582 5.66406L35.6133 3.46094L36.5273 3.89453L36.9961 4L38.085 4.26074L38.2344 4.23535L38.2441 4.29883L38.4609 4.35156L38.4375 4.44531L38.4023 4.59766L38.332 4.72656L38.3184 4.75391L38.6445 6.75488L38.668 6.88379L38.6562 7.02441L38.5859 9.53223L38.9609 12.04V12.0986L38.9727 12.1572L39.1484 14.7939L39.1602 14.8994L39.1484 14.9932L38.9844 17.6416L38.9727 20.0908L39.125 22.7393L39.1367 22.8213V22.9033L38.9961 25.54V25.6221L38.9844 25.6924L38.6211 28.1182L38.9375 30.5674L38.9609 30.7314L38.9492 30.8955L38.7031 33.3564L38.75 36.0049V36.1572L38.7266 36.2979L38.2695 38.7822L38.2227 41.3369L38.1641 43.8564L38.21 44.6299L39.3594 44.6191L41.5977 44.3496L42.6055 43.7754L42.7051 42.5068L42.6426 41.998L42.3496 39.8184L42.3262 39.5957L42.3613 39.3613L42.8301 36.7598L42.8535 36.666L42.877 36.584L43.6504 34.0645L43.6738 33.9824L43.709 33.9004L44.7754 31.4746L44.8105 31.4043L44.8574 31.3223L46.0645 29.2246L46.9199 26.834L47.1074 26.3184L47.5762 26.0488L49.8848 24.6895L49.9785 24.6309L50.084 24.5957L51.9092 23.8633L52.8613 22.2344L53.0605 20.4023L52.9961 20.3301L52.6328 19.9316L52.6094 19.3926L52.5039 16.7441L52.4922 16.7324V16.7207L52.4355 14.2979L51.377 12.6113L50.9668 11.9551L51.2598 11.2402L52.2793 8.81445L52.291 8.79102V8.76758L53.416 6.33008L53.5566 6.00195L53.8379 5.79102L55.9121 4.10352L56.0527 3.98633L56.2285 3.9043L58.2324 2.97852L60.2598 2.0293L60.3184 3.33008ZM85.7109 111.699L85.4766 111.746L85.2305 111.711L82.7227 111.348L80.2383 111.488H80.0156L78.4199 111.326L78.418 111.336L78.3711 111.321L77.5898 111.242L75.1406 111.676L74.8828 111.723L74.6133 111.676L72.1172 111.242L69.6914 111.395H69.668L69.6445 111.406L64.3711 111.57H64.2539L64.1367 111.559L61.5938 111.254L59.1328 111.418L59.0508 111.43L58.957 111.418L56.5078 111.277L54 111.699L53.7891 111.734L53.5781 111.711L51.0234 111.395L48.5391 111.324L45.9492 111.512L45.8906 111.523H45.832L43.1953 111.512H43.0781L40.5 111.301L38.0508 111.395L38.0625 111.406L35.4258 111.664L35.2734 111.676L35.1211 111.664L32.625 111.395L31.5352 111.441L31.5586 111.945L31.5703 112.062L31.5586 112.168L31.3359 114.043L31.875 114.547L32.4824 114.575L34.1562 114.301L34.3203 114.277L34.4844 114.289L35.9287 114.369L36.3633 114.312L36.4805 114.301H36.6094L38.1152 114.354L39.582 114.254L39.7227 114.242L39.8633 114.266L41.2998 114.439L41.8828 114.453L44.3184 114.507L44.9141 114.488L47.5039 114.418V114.406L50.1523 114.242L50.3281 114.23L50.5039 114.266L52.8828 114.688L55.2617 114.266L55.4609 114.23L55.6602 114.242L57.2529 114.4L57.457 114.371L57.5508 114.348H57.6445L60.2812 114.277H60.4219L60.5625 114.301L60.8057 114.34L60.8633 114.336L61.0156 114.359L63.0781 114.661L65.332 114.266L65.5664 114.219L65.8008 114.254L65.8408 114.259L65.9844 114.23L66.1602 114.242L68.7969 114.371L68.7852 114.383L71.3633 114.43L73.0371 114.399L73.3945 114.371L73.5 114.359L73.6055 114.371L73.8477 114.385L73.9766 114.383H74.082L74.1875 114.395L74.335 114.413L76.2422 114.523H76.2305L77.8467 114.6L79.1445 114.477H79.2734L79.8389 114.471L81.2227 114.266L81.4102 114.23L81.6094 114.254L84.1289 114.535L85.9648 114.526L86.9727 114.371L87.125 114.348L87.2773 114.359L88.0137 114.395L88.9805 114.301L89.5898 114.031L89.5664 112.391H89.5547L89.4023 111.301L88.1719 111.23L85.7109 111.699ZM56.7578 98.5645H56.6641L54.0273 98.6934H53.9336L53.8398 98.6816L52.4805 98.5801L52.4355 99.0732V99.1201L52.4238 99.167L52.002 101.792L51.9902 101.862L51.9785 101.921L51.3574 104.312L51.1465 106.737L51.2539 108.41L51.293 108.418L53.7305 108.699L56.1562 108.301L56.3203 108.277L56.4844 108.289L59.0156 108.43L61.582 108.254L61.7227 108.242L61.8633 108.266L64.3711 108.57L64.7578 108.558L64.543 106.396V106.372L64.3203 103.747L64.1094 101.31L63.5352 98.7314L63.46 98.3994L62.0312 98.5527L61.8672 98.5762L61.7031 98.5527L59.2305 98.2715L56.7578 98.5645ZM69.582 93.3486L69.5439 93.3516H69.5059L66.8662 93.3848H66.8418L66.8174 93.3838L65.8486 93.3633L65.9023 95.6143L66.4648 98.0752H66.4531L67.0391 100.642L67.0625 100.735L67.0742 100.841L67.3086 103.478V103.489L67.5312 106.091L67.7627 108.465L69.5039 108.418V108.406L72.1523 108.242L72.3281 108.23L72.5039 108.266L74.8828 108.688L74.9502 108.675L73.1211 107.48L72.9219 107.34L72.7695 107.152L71.1523 105.09L70.7539 104.586L70.8477 103.953L71.2344 101.34L71.4219 98.9258L71.4336 96.2891V96.1484L71.457 95.9961L71.9609 93.4766L71.9697 93.1963L69.582 93.3486ZM45.8535 93.5186L45.1406 93.6094L45.1523 94.7715V94.8887L45.1289 95.0059L44.7539 97.3613L45.0469 99.8574L45.0586 99.916V99.9746L45.1758 102.6L45.1875 102.951L45.0469 103.279L44.0156 105.611L43.875 105.916L43.6172 106.139L41.6836 107.791L41.1885 108.351L43.3125 108.512L43.3008 108.523H45.7383L48.2354 108.346L48.1348 106.843V106.726L48.1465 106.608L48.3809 103.972L48.3926 103.854L48.416 103.737L49.0371 101.312L49.459 98.6982L49.6934 96.1904V96.0967L49.7168 96.0029L50.2432 93.6396L48.3135 93.4316L45.8535 93.5186ZM75.7793 40.3438L73.71 41.3525L73.4893 41.46L73.2451 41.4922L71.9316 41.6611L71.8691 41.7041L71.8105 41.751L69.7012 43.1455L69.5723 43.2275L69.4434 43.2861L67.1465 44.2119L65.248 45.6416L64.1113 46.8252L64.0762 48.8057L64.1816 51.1729L64.8613 53.54L64.8848 53.6338L64.8965 53.7393L65.2715 56.3525V56.4229L65.2832 56.5049L65.3652 58.7432L66.2676 60.9463L66.3262 61.0869L66.3496 61.2393L66.8301 63.7705L67.6152 66.1963L67.6504 66.3135L67.6738 66.4424L68.0254 68.915L68.8105 71.2705L69.666 73.5908L70.8379 75.9463L70.9082 76.0869L70.9551 76.2275L71.5645 78.5479L72.9473 80.5635L73.0762 80.7393L73.1465 80.9502L73.9434 83.458L74.9277 85.8135L75.0215 86.0361L75.0449 86.2705L75.2207 88.7314L75.6777 90.0322L76.1357 91.3438L77.2939 92.7041L79.0557 94.6855L79.0869 94.7217L79.1162 94.7598L79.5049 95.2578L79.5254 95.2402L79.7188 95.5322L80.7354 96.834L80.8027 96.9199L80.8564 97.0156L82.0469 99.1094L83.2734 100.148L83.5215 100.078L84.3633 98.3779L85.248 95.9717L85.2744 95.8984L85.3096 95.8281L86.4648 93.4717L87.4482 91.248L87.9102 88.7979L87.9424 88.626L88.0137 88.4668L89.043 86.1475L89.6914 83.7861L90.0898 81.2549L90.1113 81.1162L90.1582 80.9834L91.0088 78.5996L91.4502 76.1191L91.4512 76.1104L91.4531 76.1016L91.9463 73.5049L91.9473 73.4971L92.418 71.0889L92.252 68.6055L92.2363 68.3779L92.29 68.1562L92.8721 65.7236L92.9121 63.2432L92.9141 63.1494L92.9277 63.0557L93.2705 60.6416L92.9092 58.208L92.873 57.9629L92.917 57.7188L93.3623 55.2734L93.1738 52.8242V52.8174L93.1729 52.8096L92.9971 50.2031L92.7666 47.5723L92.7578 47.4707L92.7627 47.3691L92.874 45.0459L92.2686 43.5791L90.5762 42.9609L88.0957 42.6865L87.9092 42.666L87.7324 42.5996L85.3281 41.6934L82.9023 41.0723L82.709 41.041L82.7559 41.1953L82.1826 40.9561L80.3984 40.6709L77.9873 40.334L75.7793 40.3438ZM74.4219 96.4062V96.7871L75.8809 97.0918L77.0693 97.0117L76.7842 96.6465L75.0361 94.6797L75.0254 94.668L75.0156 94.6553L74.8223 94.4287L74.4219 96.4062ZM56.498 93.5791L56.3623 93.5977L56.2256 93.5918L53.6855 93.4844L53.2754 93.5195L53.2676 93.7881L53.2559 93.9287L53.2324 94.0576L52.8789 95.6074L53.9922 95.6934L56.418 95.5879L59.0664 95.2832L59.2305 95.2598L59.3945 95.2832L61.8672 95.5645L62.9043 95.4512L62.8555 93.3115L61.5459 93.2939H61.5361L61.5264 93.293L59.0068 93.2256L56.498 93.5791ZM44.6846 54.1533L44.5898 55.7412L44.5781 55.8584L44.5547 55.9756L44.0156 58.4131L43.9805 60.9209V60.9678L43.9688 61.0146L43.7578 63.6514V63.7451L43.7344 63.8389L43.207 66.3115L43.2188 66.3232L42.8555 68.9365L42.6914 71.4795V71.5498L42.6797 71.6318L42.2344 74.2334L42.2227 74.3037L42.1992 74.374L41.5664 76.7061L41.6133 79.2021V79.3662L41.5781 79.5186L41.0742 82.0264L40.875 84.5693L40.8633 84.71L40.8281 84.8389L40.1719 87.2529L39.9023 89.8076L39.6328 92.4326L39.4688 94.7178L39.5273 94.8701L40.8398 94.6006L41.5312 94.46L42.082 94.9053L42.1016 94.9209L42.1406 94.6777L42.1367 93.8818L42.043 93.8848L42.0371 93.7012L41.5312 93.8066L41.4375 93.373L40.8867 90.8887L40.8164 90.584L40.875 90.2793L41.3555 87.8301L41.25 85.3457L41.2383 85.0879L41.3086 84.8535L42.0469 82.4395L42.293 79.9551L42.3047 79.8379L42.3281 79.7324L42.9258 77.3418L42.8906 74.8809L42.8789 74.6113L42.9609 74.3652L43.7695 72.0098L44.0039 69.5371V69.502L44.3203 66.877L44.6367 64.2637L44.6484 64.1465L44.6719 64.041L45.3281 61.6504L45.5391 59.1191L45.5508 59.0254L45.5625 58.9434L46.0312 56.4941L45.9629 54.0693L44.6846 54.1533ZM55.6289 54.6895L53.2266 55.7441L53.1797 55.7676L50.8828 56.7051L48.8379 57.7783L48.5156 59.4238L48.3281 61.9902L48.3164 62.1309L48.2695 62.2715L47.6016 64.6855L47.3086 67.2285V67.2402L46.9922 69.8652L46.7461 72.4551L46.7344 72.6309L46.6758 72.7949L45.8789 75.1035L45.9375 77.5059V77.7051L45.8906 77.9043L45.2461 80.377L45.0117 82.873L45 83.0254L44.9531 83.166L44.25 85.4863L44.3555 87.9121V88.0879L44.3203 88.252L43.875 90.5371L43.9199 90.7402L45.5381 90.5352L45.6064 90.5264L45.6748 90.5234L48.3145 90.4307L48.4219 90.4268L48.5283 90.4385L51.0234 90.7061L51.7969 90.6377L52.1035 88.6982L52.0332 86.1436L52.0215 85.9326L52.0684 85.7217L52.7246 83.1553L53.123 80.7998L53.3223 78.1631V78.1045L53.334 78.0459L53.7324 75.4443L53.7441 75.3857L53.7559 75.3389L54.3301 72.7607L54.5762 70.3584L54.7637 67.6865L54.7754 67.4521L54.8574 67.2412L55.666 65.1553L55.584 62.917V62.7881L55.5957 62.6475L55.6191 62.5537L57.0957 62.7646L57.6348 62.835L58.584 62.8115L58.6777 65.3545L58.6895 65.6592L58.5723 65.9521L58.4199 66.3408L58.5059 66.3076L59.4316 68.6045L59.5371 68.874L59.5488 69.1553V71.6865L60.0527 74.124V74.1475L60.0645 74.1826L60.4629 76.7959L60.4746 76.8896L60.4863 76.9717L60.5684 79.6201L60.8027 82.0342L61.2598 84.6475L61.2832 84.7295V84.8115L61.459 87.4482V87.5889L61.3652 89.9092L61.4941 90.2021L61.2871 90.2852L61.6074 90.2939H61.6064L64.2285 90.3311H64.2383L66.8594 90.3838L69.4307 90.3525L72.0322 90.1875L72.1826 90.1787L72.5693 90.2314L72.3262 89.5283L72.2676 89.3408L72.2559 89.1533L72.0684 86.7627L71.1426 84.5244L71.1191 84.4658L71.0957 84.3955L70.3457 82.0635L68.9512 80.0596L68.8105 79.8486L68.7402 79.5908L68.084 77.1416L66.9824 74.9268L66.9121 74.7861L65.998 72.3135L65.9863 72.29V72.2666L65.1426 69.7588L65.1074 69.6299L65.084 69.501L64.709 66.9697L63.9473 64.5908L63.9004 64.4268L63.4316 61.9658L63.0342 60.9873L62.9531 61.0703L62.8008 60.9297L60.832 59.5352L60.7383 59.4766L60.6562 59.3945L58.7227 57.5781L58.582 57.4375L58.4766 57.2734L57.0938 55L56.6299 54.2422L55.6289 54.6895ZM56.6855 75.9951L56.2988 78.5029L56.123 81.0225L55.6543 83.835L55.6309 83.8936L55.0215 86.2959L55.1035 88.7217L55.1152 88.8623L55.0918 89.0029L54.8486 90.5303L56.2119 90.5879L58.3594 90.2871L58.3652 90.1318L58.459 87.6357L58.3066 85.1631L57.8496 82.5615L57.8262 82.4443L57.5801 79.8193L57.5684 79.7725V79.7139L57.4863 77.1943L57.1113 74.71L57.0439 74.3779L56.6855 75.9951ZM60.3398 53.3535H60.2812L59.6475 53.4404L59.6484 53.4414L60.9141 55.5273L62.2988 56.8271L62.2949 56.6924L61.9668 54.3604L61.6162 53.1133L60.3398 53.3535ZM60.1934 48.4805L60.123 48.4922H60.0645L57.6152 48.7383L55.2598 49.5586L55.1895 49.582L52.6699 50.3438L52.5645 50.3789L52.4707 50.3906L49.9551 50.7705L49.8164 51.7012L49.8047 51.8418L49.7461 51.9824L48.9609 54.1855L48.9648 54.3154L49.4766 54.0449L49.5352 54.0098L49.6055 53.9863L52.0078 53.002L54.4219 51.9473L56.8594 50.8691L57.0469 50.7754L57.2578 50.752L59.8594 50.3887L61.1338 50.1592L61.0762 48.8525V48.7588L61.084 48.3086L60.1934 48.4805ZM45.5469 44.7949L45.4883 45.5918L44.7969 45.9902L42.8281 47.1152L42.5586 47.2676L42.2539 47.3027L39.6289 47.6074L39.5469 47.6191H39.4766L37.3457 47.6465L37.4863 48.2734L37.5449 48.5312L37.5098 48.8008L37.2754 50.459L38.4648 50.3799L38.6406 50.3564L38.8164 50.3916L41.418 50.8252H41.4062L43.7852 51.2002L46.0117 51.0596L46.9307 50.6543L47.1914 48.9004L46.7109 46.6387L46.6992 46.5566L46.6875 46.4629L46.457 43.8838L46.3574 43.8613L45.6309 43.6953L45.5469 44.7949ZM32.3945 48.2822L32.7578 49.7705L33.7891 50.2744L34.2607 50.3311L34.4863 48.6484L34.1875 47.2988L33.8828 47.2979L32.6875 47.2744L32.3945 48.2822ZM51.3145 27.3145L49.5566 28.3457L48.8535 30.3496L48.8066 30.4785L48.7363 30.5957L48.7217 30.6191L49.207 32.8457L49.2539 33.0801L49.2305 33.3262L48.9375 35.7871L49.2305 38.2598V38.2949L49.4648 40.9316V41.0723L49.4531 43.709L49.6641 46.0996L50.002 47.7373L51.9082 47.4375L54.334 46.7109L56.7715 45.8555L56.9355 45.7969L57.1113 45.7852L59.7363 45.5156L61.5605 45.1553L63.209 43.4502L63.291 43.3682L63.3848 43.2979L65.5176 41.7041L65.6699 41.5869L65.8457 41.5166L68.1543 40.5674L69.2148 39.8662L69.418 37.5762L69.3867 35.0703L70.7676 35.0527L70.8008 35L71.5791 33.7178L71.6641 33.7695L72.376 34.2012L72.3867 35.0332L72.4189 37.6143L72.4199 37.6895L72.4131 37.7646L72.3398 38.583L72.6172 38.5479L74.7734 37.4971L75.0811 37.3477L75.4238 37.3457L78.0801 37.334L78.1885 37.333L78.2949 37.3477L78.4609 37.3701L78.4551 37.3516L77.4004 35.125L76.1934 32.7812L76.1582 32.7344L76.1465 32.6875L75.1738 30.4609L73.6387 28.7852L71.752 27.2266L71.0283 26.9053L69.9531 27.8242L69.8008 27.9531L69.6016 28.0469L67.3047 29.0664L65.1719 30.4609L65.0195 30.5664L64.8438 30.625L62.3242 31.5039L62.0195 31.6094L61.7031 31.5859L59.043 31.3633L58.8789 31.3516L58.7148 31.293L56.207 30.4961L55.7852 30.3672L55.5039 30.0156L53.8516 28L53.5234 27.6016L53.5117 27.0742L53.5049 26.7188L53.0576 26.6299L51.3145 27.3145ZM36.0938 14.2656V14.3359L36.0703 14.4062L35.543 16.8672L35.2383 19.3516L35.1562 22L35.1445 22.0586V22.1289L34.8281 24.7539L34.8047 24.8711L34.3242 27.25L34.5469 29.7109L34.5586 29.8633L34.5469 30.0156L34.2422 32.5352L34.2539 35.1016V35.2422L34.2305 35.3711L33.7734 37.8672L33.7383 40.3984L33.6797 43.0469L33.668 43.5273L33.375 43.9141L33.0918 44.2891L33.9062 44.2979L33.9053 44.3809L35.1289 44.4902L35.2031 44.4961L35.1758 44.0322L35.1641 43.9736V43.9033L35.2227 41.2666L35.2812 38.6182L35.293 38.5127L35.3047 38.3955L35.75 35.8525L35.7031 33.415L35.6914 33.333L35.7031 33.2393L35.9492 30.79L35.6211 28.2822L35.5977 28.083L35.6328 27.8838L36.0195 25.2471L36.1367 22.8213L35.9727 20.2783V20.1846L35.9844 17.5361V17.4424L36.1602 14.8994L36.1055 14.1582L36.0938 14.2656ZM45.748 37.4629L45.3496 39.6543L45.4785 40.5684L46.4414 40.792L46.2422 38.5645V38.5527L46.0117 36.5957L45.748 37.4629ZM63.7363 26.3711L63.5723 26.4766L63.3848 26.5352L60.8652 27.3203L60.7129 27.3555L60.5605 27.3789L57.9355 27.625L57.7012 27.6484L57.4668 27.5898L57.3564 27.5635L57.5195 27.7656L59.4766 28.3867L61.6328 28.5508L63.6836 27.8359L65.7461 26.5L65.8516 26.4414L65.957 26.3945L67.8096 25.5508L67.4863 25.4219L65.5527 25.2344L63.7363 26.3711ZM61.5625 23.4355L61.1641 23.8457L60.5898 23.8809L57.9766 24.0684L57.4727 24.1035L57.0508 23.8223L55.8018 23.0039L55.7793 23.207L55.6152 23.4883L55.2988 24.0156L55.6504 24.0977H55.6621L55.6855 24.1094L57.9121 24.6016L60.1152 24.4023L62.2949 23.7344L63.4775 22.998L63.2793 22.4922L63.2559 22.4453L63.2441 22.3867L63.0898 21.877L61.5625 23.4355ZM57.6738 20.6484L58.2578 21.0332L59.8164 20.9277L59.9922 20.7471L59.5586 20.5859L57.8594 20.5391L57.6738 20.6484ZM55.457 15.1436L55.4922 16.6152L55.5615 18.416L56.7109 17.7383L57.0059 17.5625L57 17.4414L57.0469 17.2188L57.4453 15.5195L57.4473 15.1729L56.252 15.0957L55.457 15.1436ZM60.4404 15.167L60.4336 15.7305V15.8945L60.3984 16.0469L60.0342 17.6035L60.1445 17.6094L60.3789 17.6914L62.0439 18.3115L62.3594 17.8691L62.5273 17.6299L62.5762 16.8086V16.7969L62.6689 15.3594L61.4082 15.1074L60.4404 15.167ZM57.041 11.1123L54.8613 11.9209L54.8496 11.9092L54.5508 12.0254L54.6465 12.1777L56.1816 12.1074L56.2637 12.0957L56.3574 12.1074L58.877 12.2598L61.4434 12.1074L61.6309 12.0957L61.8301 12.1309L63.3066 12.4238L63.332 12.376L61.4707 11.7803H61.4473L61.4238 11.7686L59.1973 10.9834L57.041 11.1123ZM57.6582 6.54102L55.9941 7.90039L55.7617 8.39648L56.2559 8.21777L56.4551 8.14746L56.6777 8.13574L59.3145 7.97168L59.6191 7.95996L59.9121 8.05371L61.959 8.77051L61.7012 8.36914L60.4121 6.56445L58.8652 5.97852L57.6582 6.54102ZM58.8887 4.39648L58.9707 4.34961H58.8652L58.8887 4.39648Z" fill="black"/>
</svg>
