<svg xmlns="http://www.w3.org/2000/svg" width="120" height="120" fill="none" viewBox="0 0 120 120"><path fill="#000" d="M80.715 18H83v.2l-.012.093-.187 1.324.117 1.395.152.668.117.514 2 1.181.516.305.164.574.68 2.414.152.527-.222.492-.197.438.02.664.071 2.602.012.023v.023l.011 2.637.165 2.543.011.176-.023.188-.434 2.472-.234 1.383-1.406-.152-1.796-.203.03.343.012.082-.012.082-.035 2.637-.024 2.625v.023l-.058 2.637.058 2.578v.117l-.011.118-.26 1.885.701-.002v.011l.893-.062-.006-.028-.024-.105v-.106l-.129-1.593-.011-.164.023-.153.188-1.5.703.094H87v.2l-.012.093-.187 1.324.117 1.395.081.357 1.294-.056.094-.012.082.011.472.035v-.03l-.129-1.594-.011-.164.023-.153.188-1.5.703.094H92v.2l-.012.093-.187 1.324.117 1.395.111.488h.659l-.2 1.676-.028.232.02.088h-.03l-.114.969-.012.094-.023.082-.551 2.343-.176.715-.656.305-2.32 1.055L86.41 62.5l.007.148.14 2.637v.13l-.011.116-.281 2.403.457 2.425.035.188-.012.187-.176 2.649-.023 2.555v.011l-.054 2.408.195-.1.714.434 2.274 1.36.07.035.059.047 1.933 1.476.516.387.07.645.293 2.636.005.052 1.394-.923.386-.258h.457l.243.002-.137-.623-.024-.105v-.106l-.129-1.593-.011-.164.023-.153.188-1.5.691.094H98v.2l-.012.093-.187 1.324.117 1.395.152.668.227 1.006 1.848 1.443.304.246.153.352.902 2.12.141.34-.024.364-.211 2.672-.021.297.045.511.234 2.637.012.152-.024.14-.281 2.532.012 2.485.175 2.648.047.656-.468.481-1.418 1.476-.516.528-.726-.082-1.002-.109-.218 1.156.163 2.45.003.042v.041l.03 2.639h-.002l.036 1.647.403.055 2.379.106 2.52-.434.117-.011h.117l2.637-.024h.152l.153.024 2.437.48 2.403-.246.082-.012h.082l1.043.012-.012 1.5-.024 1.5-.996-.012-2.507.258-.223.024-.223-.036-2.461-.492-2.425.012-2.497.434-.152.023-.164-.012-2.637-.105h-.07l-.07-.012-2.23-.316-1.178.281-.168.04-.172.001-.427.001-.618.122-.235.047-.234-.024-1.06-.136-.067.001-.1.001-.098-.014-1.386-.18-1.746.009-1.674.321-.24.046-.242-.033-1.813-.245-1.91.043h-.023l-2.567.012.012.011-.477.032-.693.117-.118.02-.12.001-1.28.009-.136.009-.04-.008-1.184.009-.151.002-.149-.03-1.896-.373-1.596.189-.129.012h-.129l-1.062-.059-.027.003-.137.014-.137-.012-.805-.067-.386-.02-2.555.164h-.129l-.129-.012-.242-.027-.71.097-.2.026-.2-.026-1.964-.262-1.641.181h-.07l-2.637.152-.152.012-.141-.024-.463-.064-.402.069-.114.02-.116.001-2.64.04-.108.002-.108-.015-2.486-.324-2.483.194-.102.009-.103-.007-2.564-.151-2.572.096-.058.002-.059-.002-1.156-.048-.005.002h-.047l-2.637.094h-.117l-.75-.03-.42.024-.116.007-.114-.011-.83-.08-.407-.015v-.012l-1.146-.006-.035.155-1.174.02-2.64.044-.079.001-.078-.007-2.598-.23-1.414-.053-1.347-.006v-.012l-.495.004-1.872.077-.047.002-.858.008-1.873.167-.14.012-.153-.012-2.531-.281-2.578.012v-.012l-2.543.176h-.012l-.012.011-2.648.118-.094.011-.082-.011-2.543-.188.012-.223V114.5h.21l2.462.199 2.508-.117v-.012l2.636-.175h.094l2.637-.012.094-.012.082.012.716.08-.084-.32-.058-.223.01-.23.122-2.603-.017-2.598v-.026l.03-2.64.004-.353.161-.315.542-1.057-1.008.226-.176-.797-.024-.105v-.106l-.128-1.593-.012-.164.023-.153.188-1.5.691.094H22v.199l-.012.094-.187 1.324.086 1.032 2.388-.262.086-.01h.185l-.023-.606-.23-2.6-.007-.077.001-.078.044-2.641.016-2.624v-.04l.06-1.76.047-1.451h.037l-.003-.246-.058-2.79-.012-.925.82-.433 2.344-1.22 1.507-.794-.124-.565-.024-.105v-.106l-.128-1.593-.012-.164.023-.153.188-1.5.691.094H32v.2l-.012.093-.187 1.324.117 1.395.152.668.107.474 1.499.897.07.035.059.047 1.933 1.476.516.387.07.645.293 2.636.059.575-.34.468-.49.68.494.684.337.467-.064.574-.275 2.49.205 2.39 1.123.086.898-.044.054-1.333-.096-2.546-.229-2.596-.007-.078.001-.078.044-2.641.016-2.385.01-1.49h.02l-.065-.95-.023-.316.105-.304.844-2.332.164-.457.422-.282 2.192-1.453.386-.258h.457l1.504.015-.05-.694-.012-.082.011-.094.118-2.649.011-.011v-.012l.164-2.543.012-2.531-.281-2.578-.012-.153.012-.14.223-2.649.035-2.52v-.48l.017-.025-1.588-.627-.164-.059-.14-.093-2.192-1.5-.164-.117-.129-.153-1.441-1.676-.61-.726.387-.867.862-1.925-.291.065-.176-.797-.024-.105v-.106l-.129-1.593-.011-.164.023-.153.188-1.5.703.094H42v.2l-.012.093-.187 1.324.117 1.395.097.423 1.56.217.415-.01-.025-.115-.024-.105v-.106l-.129-1.593-.011-.164.023-.153.188-1.5.703.094H47v.2l-.012.093-.187 1.324.117 1.395.137.601 1.656.037.035-1.002-.48-2.484-.047-.246.035-.234.352-2.649.105-2.32-.434-2.508-.011-.117v-.117l-.015-1.639-2.063.092-1.547.07-.024-1.547-.023-2.449-.035-2.531-.223-2.637-.023-.281.081-.27.083-.281h-.036l-.011-1.488-.012-2.52-.012-.398.2-.34 1.171-2.121.223-.399.41-.21 1.882-.959-1.151.26-.176-.798-.024-.105v-.106l-.129-1.593-.011-.164.023-.153.188-1.5.703.094H50v.2l-.012.093-.187 1.324.117 1.395.152.668.117.514 2 1.181.516.305.164.574.68 2.414.152.527-.222.492-.328.732.046.23.47 2.425.046.223-.023.223-.234 2.142 1.726-.08v-.012l.782-.052-.02-.096v-.106l-.13-1.593-.011-.164.023-.153.188-1.5.703.094H59v.2l-.012.093-.187 1.324.117 1.395.086.378 1.543-.007.094-.012.082.012.218.024v-.09l-.129-1.594-.011-.164.023-.153.188-1.5.703.094H64v.2l-.012.093-.187 1.324.117 1.395.133.582 1.664-.14.047-.013h.058l.125-.002-.004-.017v-.106l-.129-1.593-.011-.164.023-.153.188-1.5.703.094H69v.2l-.012.093-.187 1.324.117 1.395.093.408 1.931.009v-.113l-.13-1.593-.011-.164.023-.153.188-1.5.703.094H74v.2l-.012.093-.187 1.324.117 1.395.07.308 2.52.168-.012.012 1.187.005-.113-2.314-.011-.199.047-.199.064-.293h-.229l-.011-1.488-.012-2.52-.012-.398.2-.34 1.171-2.121.223-.399.41-.21 1.882-.959-1.151.26-.176-.798-.024-.105v-.106l-.129-1.593-.011-.164.023-.153.188-1.5zm-11.263 83.515-.038.003-.038.002-2.64.098-.058.002-.06-.002-2.623-.108-2.61-.025h-.043l-.044-.003-2.562-.174-2.546.119-.04.002h-.04l-2.623-.017-2.582.029-2.577.222-.146.013-.147-.017-.597-.066-2.128.099-.086.004-.086-.006-2.61-.177-1.061-.023-1.087.073-.014.001-.014.001-2.64.126-.093.005-.093-.007-.94-.072-.015 2.513-.006.852-.208.122-.048.822.327 2.347.016.119-.003.12-.037 1.77.093 1.023.006.067v.066l.002 2.43.17.598.677.064 1.287.052 2.067-.117.073-.004.075.003 1.315.053 2.455-.228h.152l2.637.047-.012.012h2.66l2.602.058 2.613-.058h.13l.117.011 1.68.245 1.816-.308.134-.023.135.002 2.64.028.09.001.091.011.33.043.642-.069.152-.012.164.012 2 .235 1.593-.215.161-.023.163.014 2.11.172.466.023 2.43-.246.222-.022.219.043.307.059.548-.063.235-.036.222.047 2.45.457 1.796-.112 1.825-.306.154-.026.157.007 2.64.11.07.003.067.01.588.079.495-.011 2.637-.07h.035l.35-.002.693-.132.236-.045.239.031 1.06.136h.165l.093.012 1.353.179 1.782-.008 1.318-.256-.028-1.38v-.016l-.03-2.613-.17-2.585-.013-.189.035-.188.454-2.416-.28-2.413-.003-.018v-.019l-.092-.988-1.187.072-.13.008-.129-.015-2.48-.281-.12.012-.312.184-.4.235-.461-.033-1.615-.11-2.274.135-.148.009-.148-.021-2.523-.351-2.519.052-.032.001-.032-.001-2.64-.057v-.001l-2.616-.015-.008-.001h-.008l-2.564-.042zm-46.685 4.055-.328.639-.027 2.288.017 2.613v.04l-.002.039-.113 2.411.24.903.646-.007.515-.043.047-.012h.058l1.714-.015 1.084-.044.06-.002.058.002 1.136.042 1.175.006 2.648-.118.082-.011.082.011 1.604.106.186-.811-.053-2.454-.001-.032v-.032l.015-.704-.132-1.449v-.017l-.002-.017-.15-2.199-.188-.013-2.588-.176-2.605-.025-.256-.003-.242-.088-1.84-.669-.949-.344v-.008h-.137zm71.12-11.918-.387.387-.012 2.016v.047l-.105 2.459 2.247-.135 1.452-.087.132 1.448.22 2.42.158 1.363.478.055.457-.48-.129-1.969-.011-.047v-.047l-.012-2.637v-.082l.012-.082.27-2.52-.153-1.816L98 93.57h-2.062zm-62.507-.088h-.014l-.014.001-2.64.126-.084.004-.083-.005-1.193-.076-.005.155-.016 2.64v.016l-.043 2.563.227 2.56.003.038.002.038.029.794 2.243.151v-.001l2.542.123 1.087-.083-.056-1.678-.004-.14.02-.138.137-.88.045-.304-.005-.563-.221-2.577-.013-.146.017-.147.227-2.066-.288-.4-.999-.066zm46.518-30.876-.152.023-.152-.012-2.637-.105h-.07l-.07-.012-.34-.049-.75.104-.118.011h-.117l-2.613-.046-.338.005-.53.104-.234.047-.234-.024-.74-.095-.526.01h-.023l-2.637.023h.012l-2.649.035-.07.012-.082-.012-2.208-.192-1.413.032h-.012l-2.578.012.012.011-2.637.176-.187.012-1.28-.24-.115.002h-.012l-2.53.175h-.177l-1.828-.082-.293.41-.011 2.157v.058l-.012.047-.211 2.484.281 2.508.012.082-.012.094-.011 2.637v.094l-.176 2.636-.13 2.508.185 2.286.66.515.304.246.153.352.902 2.12.14.34-.023.364-.191 2.415.188 2.48.01.14-.015.139-.275 2.49.215 2.497.005.056v.055l.03 2.64v.068l-.005.069-.077.95 1.206-.103.056-.005h.055l2.64-.03h.026l2.607.017 2.594-.121.086-.004.086.006 2.587.176 2.606.025.047.002 2.583.105 2.543-.095 2.6-.23.078-.007.078.001 2.641.044-.001.001 2.625.015h.024l2.608.058.702-.015-.06-1.62-.23-2.598-.007-.078.001-.078.044-2.641.016-2.624v-.04l.06-1.76.047-1.451h.037l-.003-.246-.058-2.79-.012-.925.82-.433 2.208-1.149.042-1.441.059-2.625.023-2.625v-.047l.012-.035.14-2.45-.445-2.46-.046-.223.035-.223.28-2.484-.105-2.262-.27-.55-1.558.175-.164.023-.164-.023-2.181-.229zm15.221 35.89.251-.017-.616-.026zm-5.74-10.014h-.013l-.014.001-2.64.126-.084.004-.083-.005-1.193-.076-.005.155-.016 2.64v.016l-.043 2.563.227 2.56.003.038.001.038.061 1.63.651.237 2.383.024h.044l.88.058.146-.008 1.666-.175.226-.132.012-1.76-.03-2.593-.221-2.577-.013-.146.017-.147.227-2.066-.288-.4-.999-.066zm-42 0h-.013l-.014.001-2.64.126-.08.004-.08-.005-1.216-.07-.005.79v.015l-.043 2.563.227 2.56.003.038.002.038.098 2.64.002.058-.002.06-.046 1.095 1.248-.083.046-.003h.046l2.64-.014h.087l.086.01.778.086.084-1.043-.03-2.525-.22-2.577-.013-.146.017-.147.275-2.5-.078-1.016-.256-.016zm21.062-4.279 1.594 2.133.035.047.036.07 1.3 2.121.223.363-.012.434-.011 2.637v.316l-.13.281-.832 1.864-.41.926-1.03-.047-2.567-.13-1.91.094-.094.106h-2.04l-.105-1.394-.175-2.52-.012-.094.011-.082.118-2.637.023-.421.234-.352 1.454-2.144.117-.188.176-.14 1.863-1.512 1.219-.973zm-1.945 3.434-1.09 1.617-.105 2.121.058.914 1.207-.058.07-.012.071.011 1.617.082.282-.632v-1.91l-.985-1.641-.656-.867zm29.39.379-.573 1.57.058.715 1.184-.07.082-.012.07.011 2.649.118.011.011h.012l1.148.082.07-.808-.62-1.453-1.383-1.09-1.301-.012zm-64.91-.551h-.011l-1.524.797.047 1.863v.176l1.055-.07.082-.012.082.011 2.648.118.012.011h.012l.839.06 1.065-.072.276-.386-.153-1.43-1.36-1.043-1.464-.867zm12.91-4.45-.574 1.571.06.715 1.183-.07.082-.012.07.011 2.648.118.012.011h.012l.839.06.312-.022.068-.764-.621-1.453-1.383-1.09-1.301-.012zm43.09-.55h-.011l-1.524.797.047 1.863v.176l1.055-.07.082-.012.082.011 2.649.118.011.011h.012l.839.06 1.065-.072.276-.386-.153-1.43-1.36-1.043-1.464-.867zm10.902 1.611.622.007v-.146zM66.44 69.285l1.594 2.133.035.047.036.07 1.3 2.121.223.363-.012.434-.011 2.637v.316l-.13.281-.832 1.864-.41.926-1.03-.047-2.567-.13-1.91.094-.094.106h-2.04l-.105-1.394-.175-2.52-.012-.094.011-.082.118-2.637.023-.421.234-.352 1.454-2.144.117-.188.176-.14 1.863-1.512 1.219-.973zm-1.945 3.434-1.09 1.617-.105 2.121.058.914 1.207-.058.07-.012.071.011 1.617.082.282-.632v-1.91l-.985-1.641-.656-.867zM85.81 56.418l.011.012-2.636.175h-.094l-2.637.012-.094.012-.082-.012-1.3-.145-2.258.231-.164.024-.164-.024-1.257-.144-2.603.023h-.023l-2.567-.012-2.636.117-.082.012-.082-.011-.345-.024-.624.074-.223.024-.222-.035-1.072-.204-.163-.011V56.5l-2.543-.012h-.047l-1.553-.063-2.251.02.011.012-1.508.026-2.433.228h-.152l-2.637-.047v-.012h-2.65l-2.614-.058-2.601.058h-.13l-.117-.011-1.523-.223-.059.129.715.832 1.887 1.277 2.016.785 2.273.106 2.508-.281.223-.035.222.046 1.272.239 2.174-.02v-.012l2.636-.105h.117l2.649.105h.07l.298.027 1.026-.023 2.637-.07h.035l2.649-.012h.094l.105.012 1.668.213 1.353-.03 1.784-.335.234-.047.246.035 1.886.249 1.49-.206.152-.024.14.012 2.648.153.024.011h.035l.04.004 1.05-.176.117-.011h.13l2.636-.024h.152l.14.024.776.15.983-.107.154.328.138.027 1.793-1.172.094-.058.094-.047 1.746-.809.281-1.207-.96-.07zM71.188 36.43h-.082l-2.637-.012v-.012l-2.508.024-2.637.234-.14.012-.153-.012-2.531-.281-2.578.011v-.011l-2.543.176h-.012l-.011.011-2.649.117-.094.012-.082-.011-.773-.06.023.083-.047.258-.492 2.449.012 2.426.434 2.508.023.152-.012.164-.105 2.637v.07l-.012.07-.34 2.39.02.105.453.06H54v.2l-.012.093-.187 1.324.117 1.395.123.54 1.361-.036.557-.014-.018-.08v-.106l-.129-1.593-.011-.164.023-.153.188-1.5.703.094H59v.2l-.012.093-.187 1.324.117 1.395.086.38.262-.01h.117l1.061.043.255-.003.242-.016v-.09l-.129-1.593-.011-.164.023-.153.188-1.5.703.094H64v.2l-.012.093-.187 1.324.117 1.395.076.334 1.118.205.87.06-.017-.084-.024-.105v-.106l-.129-1.593-.011-.164.023-.153.188-1.5.703.094H69v.2l-.012.093-.187 1.324.117 1.395.101.447 1.95.09-.004-.022-.024-.105v-.106l-.129-1.593-.011-.164.023-.153.188-1.5.703.094H74v.2l-.012.093-.187 1.324.117 1.395.092.402.084.008 1.141.13.721-.065-.015-.065v-.106l-.129-1.593-.011-.164.023-.153.188-1.5.703.094H79v.2l-.012.093-.187 1.324.117 1.395.08.35.404-.198.235-1.746-.047-2.508v-.058l.058-2.649.024-2.613v-.012l.047-2.484-.235-2.637v-.082l-.07-1.64-.645-.235-2.378-.012h-.047l-.047-.011-2.578-.176zm-4.895 2.562 2.191 1.535.54.387.082.656.316 2.578.105.844-.68.528-1.5 1.16-.515.398-.644-.105-1.067-.176-.14 1.336-2.145-1.828-.832-.703-.68-.586.188-.868.504-2.414.093-.468.352-.317 1.945-1.828.89-.82zm-1.453 3.832-.176.867 1.36.223.316-.246-.14-1.055-.645-.457zm17.453-12.277-.059.012h-.058l-1.453.011-.153.668.118 2.45.02.335.686.25.95.34.035 1.008.072 1.82.944.102.164-.89-.165-2.473v-.094l-.011-2.602-.035-1.03zm-33.117.058h-1.617l-.211.727.199 2.379.012.059v.058l.023 2.637.012.89 1.015-.043.137-.683-.234-1.395-.282-1.734h1.98l.246.02.22-2.106-.188-.902zm-1.008-5.109-.75 1.36v.515l1.16-.058.059-.012.07.012 1.617.082.188-.422-.375-1.325-1.055-.62zm33 0-.75 1.36v.515l1.16-.058.059-.012.07.012 1.617.082.188-.422-.375-1.325-1.055-.62z"/></svg>