<svg width="120" height="120" viewBox="0 0 120 120" fill="none" xmlns="http://www.w3.org/2000/svg">
<path d="M53.9062 11.6641H56.6953L56.8711 11.7109L59.332 12.332L61.8281 12.4961L62.1562 12.5195L62.4375 12.6719L64.6289 13.8672L67.0664 14.7344L67.1367 14.7578L67.207 14.793L69.5859 15.9062L69.6445 15.9297L69.6914 15.9648L72.0117 17.2656L72.1875 17.3711L74.1445 19.3281L76.1016 21.0625L76.2539 21.1914L76.3594 21.3555L77.7891 23.4883L79.4062 25.5273L79.5938 25.7852L79.6758 26.0898L80.3438 28.668L80.3555 28.6914V28.7266L80.918 31.2812V31.3164L81.4336 33.8945L81.4688 34.0352V34.1758L81.4922 36.8125V36.9531L81.4688 37.082L81.0234 39.6836L80.6133 42.2617V42.3086L80.6016 42.3555L80.0273 44.9453L79.9688 45.2148L79.8164 45.4492L78.3633 47.6641L78.2812 47.793L78.1641 47.9102L76.4062 49.6328L75.5391 48.7539L75.3164 48.6602L75.0742 48.5547L74.1406 49.1719L74.082 49.0898L74.0586 49.0547L74.0352 49.0078L72.7695 46.8164L72.7344 46.7578L72.6992 46.6875L71.6797 44.4258L70.1562 42.5508L68.457 40.5586L68.4336 40.5352L66.8398 38.5781L65.0469 37.0781L62.9727 36L60.6641 35.0039L60.6475 34.999L60.9805 35.7305L61.2031 36L62.1641 37.1484L62.082 37.2188L61.9297 37.3477L61.7422 37.4297L59.4219 38.4727L59.4102 38.4609L57.3242 39.4805L55.8008 41.1445L54.3594 43.1367L54.3711 43.1484L53.0234 45.2461L52.25 47.4023L51.9219 49.8516L51.6055 52.4414L51.3477 54.7852L51.9805 57.0938L52.0156 57.1875L52.0273 57.2812L52.3672 59.7188L53.1992 62.0742L53.2227 62.1445L53.2461 62.2266L53.8203 64.6289L54.8867 66.7031L56.2227 68.8359L57.8398 70.8281L57.9102 70.8984L57.957 70.9922L59.1641 72.9609L61.1328 74.2148L61.2383 74.2852L61.332 74.3672L63.0078 75.8789L63.6846 76.4883H64.8711L65.082 76.5586L67.3672 77.2617L66.9805 78.4688L67.1875 78.5049L67.2578 78.4258L68.6523 76.3633L69.8359 74.3477L70.3164 72.5547L69.8359 70.4219L69.793 70.2246L69.7217 70.21L69.7686 68.9326L69.8271 67.4795L69.8506 67.0576L70.085 66.7178L71.6553 64.3623L71.7725 64.2451L73.4717 62.6514L74.1162 61.0342L74.1279 60.9873L75.5459 61.5029L76.9521 62.0068L76.917 62.1006V62.124L76.9053 62.1475L76.1318 64.0693L76.0146 64.3857L75.7686 64.6084L73.917 66.3545L72.9443 67.7959L74.1982 68.0537L74.3271 68.0771L74.4443 68.124L76.4541 68.9082L77.9609 66.7773L78.0547 66.6367L78.1836 66.5312L80.1406 64.7383L81.4072 63.4795L80.8086 62.0605L79.2031 61.3809L76.8125 61.2168H76.7773L76.7539 61.2051L74.1289 60.9121L74.0469 60.9004L73.9531 60.877L71.9141 60.3965L70.2617 61.2871L68.4688 62.916L68.3516 63.0215L68.2227 63.0918L65.8789 64.4629L64.4609 65.2949L63.7578 63.8184L63.6406 63.5605L64.9766 62.9277L64.3672 61.8848L66.582 60.5605L68.4102 58.9316L68.5508 58.8027L68.7031 58.7207L71.0117 57.4902L71.5039 57.2324L72.0547 57.3613L74.4922 57.9355L77.0117 58.2285L77.0234 58.2168L78.667 58.3408L78.5586 57.9375L78.4414 57.5039L78.582 57.082L79.3672 54.6328L79.5898 53.9648L80.2461 53.6953L82.5312 52.8047L83.1406 52.5586L83.7383 52.8516L85.9414 53.9297L86.5039 54.1992L86.7031 54.7852L87.5586 57.2578L87.8281 58.0547L87.3008 58.6992L85.6719 60.7031L85.4727 60.9609L85.168 61.1133L83.9248 61.7217L84.2891 62.5996L85.625 64.334L87.207 65.2715L89.2344 65.2246L91.5898 64.7207L92.0703 64.6152L92.5156 64.8145L92.6094 64.8613L92 66.2324L91.9414 66.3496L92.2227 67.6504L89.7266 68.1895L89.5859 68.2246H89.4453L86.8672 68.2949L86.4336 68.3066L86.0586 68.084L83.8438 66.7715L83.5977 66.6191L83.4219 66.3965L83.124 66.0078L82.1914 66.9414L82.1562 66.9648L80.293 68.6406L78.9922 70.4922L78.8975 70.7461L79.3076 71.1123L79.4365 71.2295L79.542 71.3701L81.042 73.5381L81.1006 73.6201L81.1475 73.7139L82.3193 75.999L82.3662 76.0928L83.4092 78.5537L83.4795 78.7061L83.5029 78.8584L83.9717 81.3545L84.1221 81.8154L85.2266 81.8281H85.4844L85.7188 81.9102L88.0156 82.7422L90.5352 83.0352L90.6875 83.0586L90.8281 83.1055L93.2188 83.8789L95.5391 84.1016L98.0586 83.9258H98.1641L100.801 83.9375H100.918L103.391 84.125L106.016 84.0312L108.57 83.7852L108.723 83.7734L108.875 83.7852L111.371 84.043L113.832 83.9492H113.996V86.9492H113.961L111.43 87.0547H111.312L111.207 87.043L108.699 86.7852L106.227 87.0312H106.145L103.496 87.1367L103.414 87.1484L103.32 87.1367L100.789 86.9258H98.1523V86.9141L95.6211 87.1016L95.5039 87.1133L95.375 87.1016L95.1787 87.082L95.4102 88.418L95.6211 89.6016L94.4961 90.0586L92.1172 91.0312L91.9648 91.0898L91.8008 91.1133L89.1992 91.5586L89.1055 91.5703H89.0117L86.3633 91.6758L86.2461 91.6875L86.1289 91.6641L83.4922 91.3594V91.3477L80.9141 91.1484V91.1367L78.3242 91.0312H78.2188L78.125 91.0078L75.5234 90.5273L75.3359 90.4805L72.9805 89.707L70.4844 89.543L70.2969 89.5312L70.1094 89.4609L67.707 88.6406L65.1406 87.9727L64.9766 87.9258L64.8125 87.8438L62.5742 86.6484L60.1602 85.6875L60.1016 85.6758L60.0547 85.6406L57.6758 84.4805L57.5234 84.3984L57.3945 84.3047L54.4414 81.9258L54.8164 80.918L55.6133 78.7734L55.8008 78.2695L56.2695 78L58.5664 76.6641L58.918 76.4648H59.0684L57.2656 75.3281L56.9727 75.1406L56.7852 74.8359L55.4492 72.6211L53.8555 70.6875L53.7969 70.6172L53.75 70.5352L52.3438 68.2969L52.3086 68.25L52.2852 68.1914L51.0781 65.8359L50.9961 65.6836L50.9492 65.5078L50.3281 62.9297H50.3164L49.4844 60.5977L49.4375 60.457L49.4141 60.3047L49.0742 57.8086L48.3828 55.3008L48.3125 55.0312L48.3359 54.75L48.6289 52.1016V52.0781L48.9453 49.4648V49.4414L49.3086 46.8398L49.332 46.6758L49.3789 46.5352L50.2695 44.0508L50.3281 43.8867L50.4219 43.7461L51.8398 41.5312L51.8633 41.4961L51.8867 41.4727L53.3984 39.3398L53.5156 39.1992L55.3086 37.2422L55.5078 37.0312L55.7656 36.9023L58.1562 35.7539L58.168 35.7422L58.1914 35.7305L60.1641 34.8535L58.5195 34.3594L56.2695 34.793H56.2578L56.2344 34.8047L53.8555 35.1914L51.6875 36.2227L51.6523 36.2461L51.6172 36.2578L49.2969 37.1953L47.457 38.5781L45.6641 40.2539L44.1992 42.2578L44.1523 42.3164L44.0938 42.375L42.5234 44.0742L41.8906 46.3125L41.8555 46.4297L41.8086 46.5352L40.7539 48.75L40.2852 51.1641L40.2734 51.2461L40.25 51.3281L39.5352 53.5781L39.793 55.9336L39.8047 56.0625L39.793 56.1797L39.6406 58.7109L39.7578 61.2539L40.1562 63.7148V63.7734L40.168 63.832L40.3555 66.2695L41.2344 68.5547V68.5781L42.125 71.0625L42.1484 71.0977L42.1602 71.1445L42.8516 73.4766L44.2578 75.4336L44.3516 75.5977L45.5469 77.8477L46.8359 79.957L48.5586 81.7852L48.5703 81.8086L50.3516 83.7422L50.3984 83.7891L50.4336 83.8359L51.8984 85.7227L53.9609 86.9648L54.1484 87.0703L54.3008 87.2344L55.9766 89.0742L57.9453 90.3984L60.2422 91.4297L60.3242 91.4648L60.3945 91.5117L62.6562 92.8594L62.7148 92.8945L62.7852 92.9414L64.7656 94.418L67.0508 95.3906L67.0742 95.4023L69.4883 96.4805L71.9023 97.5703L74.2695 98.5312L76.5898 99.4336L79.0859 99.8906L79.2031 99.9141L79.3086 99.9492L81.6992 100.781L84.1836 101.25L84.3125 101.273L84.4297 101.32L86.8555 102.223L89.2812 102.691L91.8711 103.219H91.8594L94.3906 103.559H94.4258L94.4609 103.57L97.0625 104.051H97.0508L99.6055 104.473L102.137 104.824L104.773 105.012H104.762L107.375 105.141L107.516 105.152L107.645 105.188L109.461 105.609L109.297 106.277L109.602 105.645L109.754 105.715L108.77 108.527L107.07 108.129L104.586 108.012H104.551L101.914 107.824L101.867 107.812H101.809L99.207 107.449H99.1836L99.1602 107.438L96.5469 107.004H96.5234L93.957 106.523L91.3789 106.184L91.3203 106.172L91.2734 106.16L88.6953 105.633L86.1055 105.129L85.9883 105.105L85.8711 105.059L83.5156 104.18L81.0312 103.711L80.9258 103.699L80.8086 103.652L78.4297 102.82L75.9336 102.363L75.7812 102.34L75.6523 102.293L73.1914 101.332L73.1797 101.32H73.168L70.7188 100.324L70.6719 100.301L68.2578 99.2227L65.8672 98.1562L63.4414 97.1133L63.2773 97.043L63.125 96.9375L61.1211 95.4375L58.9414 94.1367L56.5742 93.0703L56.457 93.0234L56.3516 92.9531L54.1602 91.4648L54.0078 91.3594L53.8906 91.2305L52.2266 89.4141L49.8828 88.0078L49.707 87.7852L48.0664 85.6758H48.0547L46.3672 83.8359V83.8242L44.5625 81.9141L44.457 81.7969L44.375 81.668L42.9922 79.418L42.9688 79.3828L42.9453 79.3359L41.7031 77.0156H41.6914L40.2617 74.9883L40.1094 74.7891L40.0391 74.543L39.2773 72V71.9883L38.4219 69.6094L37.4844 67.1367L37.4141 66.9375L37.3906 66.7266L37.1914 64.1836L36.7812 61.5703L36.7695 61.5V61.418L36.6523 58.7812L36.6406 58.7109L36.6523 58.6289L36.793 56.0859L36.5234 53.5781L36.5 53.2734L36.5938 52.9688L37.3555 50.5664L37.8594 48L37.8945 47.8125L37.9766 47.6484L39.043 45.3398L39.7344 42.9141L39.8398 42.5742L40.0742 42.3164L41.8555 40.3828L43.3555 38.3672L43.4258 38.2617L43.5312 38.168L45.4531 36.3516L45.5117 36.293L45.582 36.2461L47.7031 34.6523L47.8555 34.5352L48.043 34.4648L50.4336 33.4922L52.7773 32.3906L52.9648 32.2969L53.1758 32.2617L55.7539 31.8398V31.8516L58.332 31.3477L58.6953 31.2773L59.0469 31.3828L61.6016 32.1562L61.6836 32.1797L61.7539 32.2148L64.1562 33.2461L64.2148 33.2695L64.2617 33.293L66.5938 34.5117L66.7344 34.582L66.8633 34.6875L68.8906 36.3867L68.9961 36.4805L69.0898 36.5977L70.7305 38.6133L72.4414 40.6055L72.4648 40.6289L74.1406 42.6914L74.2695 42.8438L74.3516 43.0312L75.3945 45.3633L75.7822 46.0361L75.9375 45.8828L77.1562 44.0195L77.6484 41.793L78.0703 39.1914V39.1797L78.4805 36.7188L78.4688 34.3633L77.9766 31.9023V31.8906L77.4375 29.418L76.8398 27.1211L75.3867 25.293L75.3516 25.2461L75.3281 25.1992L73.9805 23.1953L72.1523 21.5664L72.1172 21.543L70.3594 19.7852L68.3203 18.625L66.0703 17.5703L63.5859 16.6914L63.4688 16.6445L63.3633 16.5977L61.2773 15.4609L58.957 15.3086L58.8164 15.2969L58.6875 15.2617L56.2617 14.6523H53.7891L53.707 14.6406L51.3867 14.3945L49.1367 15.1328L49.0312 15.168L48.9258 15.1797L46.4648 15.5898L44.0859 16.3047L41.7422 17.3359L41.707 17.3477L41.6602 17.3711L39.3516 18.1914L37.3828 19.6445L37.3711 19.6562H37.3594L35.1914 21.168L35.1562 21.2031L35.1094 21.2266L33.0352 22.4688L31.4414 24.3203L31.3711 24.4141L31.2773 24.4844L29.2969 26.1484L29.3086 26.1602L27.4805 27.8125L25.8984 29.8516L25.8867 29.875L25.8633 29.8984L24.1758 31.9141L24.0586 32.0312L22.3125 33.6953L21.2227 35.8633L21.1172 36.0859L19.1719 38.0312L17.9062 40.0117L16.8516 42.3789L16.8047 42.4727L16.7578 42.5547L15.3633 44.7812L15.3164 44.8633L15.2578 44.9336L13.6875 46.8789L12.5859 49.1055L12.5742 49.1406L12.5508 49.1641L11.2617 51.4844L11.2383 51.5312L11.2148 51.5664L9.79688 53.7695V53.7812L9.78516 53.793L8.33203 55.9961L8.32031 56.0195L8.29688 56.043L7.05469 57.7656L6 57.0039L5.15625 58.2461L4.99219 58.1289L3.71484 57.2617L4.61719 56.0078L5.87109 54.2852L7.28906 52.1406L8.68359 49.9492L9.92578 47.7109L11.1445 45.2734L11.25 45.1445L12.8672 43.1172L14.1445 41.0547L15.1992 38.7109L15.2461 38.6055L15.3047 38.5117L16.7344 36.2852L16.8164 36.1562L16.9336 36.0391L18.6328 34.3164L19.7578 32.125L19.8633 31.8906L20.0508 31.7148L21.9375 29.8984L23.5664 27.9648L25.1484 25.9141L25.2305 25.8086L25.3242 25.7266L27.2812 23.9453L27.3047 23.9219L27.3281 23.9102L29.2383 22.2695L30.9258 20.3359L31.0781 20.1602L31.2773 20.043L33.4688 18.707L35.6367 17.1953L37.7578 15.6484L37.9336 15.5312L38.1328 15.4492L40.5586 14.5703L42.9609 13.5273L43.043 13.4922L43.125 13.4688L45.6562 12.7188L45.7383 12.6836L45.8203 12.6719L48.2578 12.2617L50.7539 11.4414L51.0586 11.3477L53.9062 11.6641ZM58.2383 80.3086L58.0039 80.9414L59.1289 81.8438L61.3203 82.9219L63.7227 83.8828L63.8633 83.9531L66.043 85.1016L68.4688 85.7344L68.5156 85.7578L68.5742 85.7695L70.918 86.5664L73.3672 86.7422L73.5547 86.7539L73.7188 86.8125L76.1562 87.5859L78.5586 88.0312L81.1016 88.1484H81.1367L81.1602 88.1602L83.7969 88.3711H83.8203L83.8438 88.3828L86.3398 88.6641L88.7305 88.582L91.1211 88.1836L92.2461 87.7266L92.0654 86.6709L89.9961 85.9883L87.5234 85.6953L87.3594 85.6836L87.207 85.625L85.125 84.8838L85.167 85.0107L83.5967 85.3975L83.3623 85.4561L83.1982 84.8057L83.0234 84.8047L81.793 84.793L81.6006 83.7422L81.4971 83.4268L81.4727 83.418L79.9023 82.8203L77.3945 82.3047V82.293L74.8633 81.9297L74.7109 81.9062L74.5703 81.8477L72.168 80.9688L69.8008 80.4883H69.7656L69.7305 80.4766L69.6367 80.4531L69.7109 80.1543L69.6602 80.2305L69.6016 80.3242L69.5312 80.3945L68.1133 81.9883L67 80.9922V81.0039L66.1094 82.2109V82.1992L64.7734 81.2266L65.875 79.9961L65.9102 79.9551L64.3906 79.4883H61.9766L59.7031 79.4648L58.2383 80.3086ZM73.3281 72.2617L73.3984 72.625L73.3047 72.9766L72.6953 75.3086L72.6484 75.5078L72.5312 75.6953L71.3164 77.7441L72.8828 78.0625L73 78.0859L73.1055 78.1211L75.4492 78.9883L77.9219 79.3516L77.9688 79.3633H78.0039L80.5938 79.9023L80.6475 79.9131L80.585 79.585L79.6006 77.2764H79.5889L78.4873 75.1201L77.1982 73.2568L75.5576 71.792L73.46 70.96L73.0146 70.8711L73.3281 72.2617ZM82.0039 56.2266L81.5586 57.5742L82.0273 59.3086L83.5391 58.5703L84.4414 57.457L84.0664 56.3438L83.0117 55.8281L82.0039 56.2266Z" fill="black"/>
</svg>
