<svg width="120" height="120" viewBox="0 0 120 120" fill="none" xmlns="http://www.w3.org/2000/svg">
<path d="M55.2246 2.16309L56.6777 4.0498L58.166 5.26855L60.334 5.50293L60.4863 5.51465L60.6387 5.57324L63.1816 6.39355L64.4004 6.79199L64.2012 8.05762L63.7793 10.6592L63.7441 10.8936L63.6387 11.1045L62.6943 12.9727L63.5234 13.7666L65.5273 15.3369L65.8555 15.6064L66.0078 16.0049L66.9219 18.5244L66.957 18.5947L66.9688 18.6768L67.6133 21.2432L67.6367 21.3721L67.6484 21.501L67.8242 23.9033L68.8203 26.0947L68.9023 26.2588L68.9375 26.4463L69.4062 29.0596V29.083L69.8281 31.6963V31.7432L69.8398 31.7783L70.0977 34.415L70.1211 34.6611L70.0742 34.8955L69.5352 37.3564L69.46 37.9023L70.0879 38.3467L70.1816 38.417L70.2637 38.499L72.1621 40.3506L72.2441 40.4326L72.3145 40.5264L72.6631 40.9873L72.9062 38.6758L73.0469 36.1094V35.9688L73.0938 35.8164L73.7383 33.332L73.9961 30.9414V30.8711L74.0195 30.7773L74.4414 27.9883L76.5156 29.8984L76.6562 30.0391L77.7773 30.4521L77.9883 29.0781L78.3398 26.7461L78.3281 24.2383V24.0859L78.3633 23.9453L78.8672 21.4961L78.9375 20.3359L78.6562 20.2891L79.0195 18.7539L79.043 18.6484L80.5195 18.8008L80.7539 17.6172L82.3711 17.9219H82.4062L83.8584 18.2188L84.1172 16.4336L84 14.6875V14.5H87V14.5117L87.1055 16.4102L87.1172 16.5625L87.0938 16.7031L86.8477 18.3906L87.0352 19.1289L87.0537 19.2031L87.5156 19.375L90.0469 19.8086L90.7148 19.9258L91.0664 20.5117L92.0625 22.1289L92.2148 22.3867L92.2617 22.668L92.6953 25.3164L92.8125 26.0078L92.3438 26.5469L90.9375 28.1523L90.5977 28.5391L90.0938 28.6328L87.5508 29.1133L86.5811 29.4004L86.6094 30.0781V30.1836L86.5977 30.3008L86.3398 32.75L86.5742 34.2734L86.6074 34.5L88.4688 35.1836L89.4414 35.5352L89.4531 36.5664L89.4883 39.0859L89.5703 41.7227L89.582 41.9336L89.5234 42.1445L88.9961 44.2188L88.7852 45.0391L87.9766 45.2852L85.8818 45.9248L85.8359 46.6367L85.9531 49.2148V49.2266L86.0068 50.8164L87.2656 50.5977L89.4219 49.8711L91.4727 48.5234L91.5312 48.4766L91.6016 48.4414L93.6875 47.3633L94.0156 47.1875L94.3906 47.1992H96.9453L99.4883 46.918L99.6289 46.9062L99.7578 46.918L102.418 47.1055L103.578 47.1992L103.777 48.3477L104.105 50.1406L104.176 50.5273L104.047 50.8906L103.18 53.3984L103.145 53.5039L103.098 53.5977L101.855 55.9766L101.703 56.2695L101.445 56.4688L99.3594 58.0625L97.5547 59.8672L97.2734 60.1367L96.9102 60.2422L94.9961 60.79L94.8613 61.1201L93.8418 63.5459L93.7246 63.8271L93.502 64.0381L91.6152 65.8896L91.4863 66.0068L91.3457 66.1006L89.0605 67.4951L88.7676 67.6709L88.4277 67.7061L85.8965 67.9521L83.4355 68.6553L83.1309 68.7373L82.8262 68.7021L80.2129 68.3389V68.3506L77.5762 68.0342L77.3301 68.0107L77.1074 67.9053L75.0566 66.9443L74.8955 66.96L74.916 67.0732L75.5957 69.5107L75.6191 69.5811L75.6309 69.6631L76.0527 72.2764L76.0645 72.3467V72.4287L76.1934 74.8428L77.0137 77.21L77.0723 77.3623L77.084 77.5264L77.3535 79.9873L77.9277 82.5771L77.9629 82.7178L77.9746 82.8584L78.0449 85.3779L78.5137 87.8857L78.9824 90.4404H78.9941L79.5449 93.0186L79.5918 93.1943L79.5801 93.3701L79.5332 95.7842L80.3184 98.0693L80.3887 98.2568L80.4004 98.4443L80.5762 100.964L81.1504 103.437L81.2441 103.835L81.127 104.222L80.4121 106.472L80.2949 106.835L80.0371 107.093L78.127 108.968L77.8809 109.214L77.5527 109.319L75.0215 110.187L74.8926 110.222L74.752 110.245L74.3096 110.306L74.291 111.706V111.929L74.2207 112.14L73.4238 114.683L73.3066 115.034L73.0488 115.292L71.4199 116.909L71.0098 117.319L70.4238 117.331L67.7754 117.425L67.541 117.437L67.3066 117.366L64.916 116.663L62.3262 116.335L61.3418 116.218L61.0723 115.269L60.9023 114.68L59.5723 115.011L59.4199 115.046H59.2676L58.2314 115.082L57.4902 115.324L57.3379 115.371L57.2578 115.116L56.9238 115.128L54.8379 116.159L54.5684 116.288L54.2754 116.312L51.6152 116.487L51.4277 116.511L51.2285 116.464L48.627 115.972H48.6152L46.1074 115.456L44.0918 115.292L42.2168 116.3L41.9824 116.429L41.7363 116.464L39.2051 116.827L36.7559 117.565L36.498 117.647L36.2285 117.624L33.5684 117.425L33.123 117.39L32.7598 117.12L30.7676 115.585L29.584 114.671L30.1475 113.942L29.9629 113.468L28.9668 110.937L28.8496 110.608L28.873 110.269L29.084 107.62L29.1074 107.456L29.5996 104.854L29.6348 104.702L29.6934 104.562L30.6543 102.218L31.1582 99.7803V99.7451L31.1699 99.6982L31.6533 97.877L29.8301 97.2256L27.2637 96.6865L26.7598 96.5811L26.4199 96.1826L24.8027 94.249L24.416 93.7803L24.4629 93.1826L24.627 90.6045L24.6387 90.4404L24.6855 90.2764L25.377 87.8975L25.4941 85.4131L25.5059 85.1318L25.623 84.874L26.6309 82.6006L27.1348 80.1514L27.1582 80.0811L27.8027 77.5146V77.5029L28.4941 74.9482L28.5293 74.8311L28.5762 74.7139L29.6074 72.4521L30.2402 69.9795L30.252 69.8975L30.2871 69.8037L31.1895 67.4717L31.5762 65.0107L31.5996 64.7998L31.6934 64.6123L32.748 62.3154L33.5918 59.9365L34.1777 57.417L34.2012 57.3232L34.9512 54.792L34.9629 54.7451L34.9863 54.6982L35.584 53.0576L34.8164 52.2178L34.7715 52.3115L34.6074 52.6396L34.3145 52.8623L32.2402 54.3857L32.0762 54.5029L31.8887 54.585L29.416 55.5459L28.8887 55.7568L28.3496 55.5576L25.8301 54.6084L25.4316 54.4561L25.1738 54.1279L23.5098 52.0068L23.1699 51.5615L23.1934 50.9873L23.3691 48.292V48.21L23.5508 46.6553L23.3184 46.6006L23.002 46.1553L21.3965 43.999L21.3496 43.9287L21.3027 43.8467L20.002 41.5615L19.9902 41.5264L19.9668 41.4912L18.7832 39.1123L18.6777 38.9014L18.6426 38.6787L18.209 36.0537V36.042L17.5996 33.6162L17.5879 33.5459L17.5762 33.4873L17.1543 30.8857V30.8389L17.1426 30.792L16.9199 28.4717L15.8418 26.5264L14.541 24.2178L14.4941 24.124L14.459 24.042L13.4863 21.6162L13.3457 21.2764L13.3809 20.9131L13.627 18.3467L13.6504 18.1592L13.709 17.9834L14.5879 15.5107L14.8457 14.8076L15.5488 14.585L18.0449 13.7998L18.4199 13.6943L18.7949 13.7646L21.1738 14.2451L21.748 14.3623L22.0996 14.8428L23.5996 16.9053L24.0098 17.4795L23.834 18.1592L23.4121 19.7764L23.7871 20.4561L23.9395 20.7021L23.9746 20.9951L24.2676 23.3506L25.2168 25.2607L26.9863 26.9014L27.1738 27.0654L27.291 27.2881L28.5449 29.6318L28.5684 29.667L28.5918 29.7139L29.6816 32.0693L29.7637 32.2568L29.7988 32.4561L29.832 32.6621L31.748 33.0459L32.2754 33.1631L32.627 33.585L34.2559 35.6475L34.3262 35.7412L35.4072 37.3291L36.5332 37.1943L36.8818 37.1504L36.9219 35.4932V35.3877L36.9336 35.2822L37.3672 32.7979L37.3203 30.29V30.1729L37.4844 27.5244L37.4961 27.4072L37.5195 27.29L38.1055 24.7002H38.1172L38.6211 22.1455L39.125 19.5557L39.1602 19.415L39.207 19.2861L40.2148 16.8135L40.3086 16.5791L40.4844 16.3799L42.2422 14.4229L43.6152 12.8662L43.377 11.9365L42.4863 9.62793L42.1699 8.78418L42.7559 8.10449L44.209 6.44043L44.4434 6.15918L44.7949 6.03027L47.2793 5.05762L47.4082 5.01074L47.5371 4.9873L49.4355 4.6123L50.4316 2.97168L50.7363 2.45605L51.3105 2.29199L53.6309 1.63574L54.6152 1.36621L55.2246 2.16309ZM36.7949 112.601L34.3828 113.382L33.8145 114.108L33.791 114.132L34.2246 114.46L36.1582 114.612L38.4668 113.933L38.5723 113.897L38.6777 113.886L40.6846 113.584L40.2637 113.397V113.386L38.0371 112.683L36.8809 112.571L36.7949 112.601ZM64.6465 112.468L63.5449 113.042L63.6738 113.476L65.373 113.698L65.502 113.71L65.6191 113.745L67.916 114.425L69.7207 114.354L69.9316 114.144L68.3262 112.585L66.5449 111.987L64.6465 112.468ZM56.6328 64.6377L56.6465 64.6357L57.1855 67.1201L57.2324 67.3076L57.2207 67.5068L57.1152 70.0381L57.4316 72.5459L57.4434 72.6279V72.6982L57.4785 75.3467V75.4756L57.4668 75.6045L57.0684 78.2295L56.7285 80.8076L56.4355 83.4092L56.4238 83.5264L56.3887 83.6436L55.6973 86.1982L55.627 86.4092L54.6191 88.6943L54.1504 91.1436L54.1152 91.3428L54.0215 91.5303L52.8613 93.8154L51.8184 96.2646L51.748 96.4287L51.6309 96.5811L50.0605 98.6318L48.7012 100.823L48.6543 100.894L47.1191 103.05L47.1074 103.073L47.0957 103.085L45.502 105.206L45.3613 105.382L45.1855 105.522L43.1934 106.952L41.6934 108.921L41.5527 109.12L41.3418 109.261L39.999 110.167L41.3301 110.597L41.4121 110.62L41.4824 110.655L43.4629 111.534L45.4141 112.398L46.4355 112.479L46.5293 112.491L46.6113 112.503L49.2012 113.019H49.1895L51.6035 113.476L53.7832 113.323L55.4375 112.519L55.4277 112.359L55.4043 112.031L55.5332 111.727L56.4121 109.441L56.623 106.992L56.6465 106.734L56.752 106.5L57.7832 104.215L58.2168 101.812V101.789L58.7207 99.1875L59.166 96.6211L59.1777 96.5273L59.2129 96.4219L59.9395 94.0781L60.1855 91.5586V91.4883L60.1973 91.4297L60.6426 88.9922L60.4785 86.5195L60.4668 86.3438L60.502 86.1562L60.9473 83.6484L61.0645 81.1406L60.8418 78.668V78.6211L60.6777 75.9844V75.9375L60.584 73.3711L60.0918 70.9453H60.0801L59.3418 68.5664L59.3066 68.4492L59.2949 68.3438L58.9082 65.8125L58.1846 63.8115L57.4014 63.6143L56.6328 64.6377ZM63.0156 64.1611L62.6641 64.3252L62.2773 64.3018L61.5322 64.2578L61.791 64.9805L61.8496 65.1211L61.873 65.2734L62.2363 67.7578L62.998 70.1953L63.0215 70.2773L63.0332 70.3477L63.5605 72.9492L63.584 73.0664V73.1953L63.6777 75.8438H63.666L63.8301 78.3867L64.0762 81.0234V81.2461L63.9473 83.8828L63.9238 84.0703L63.4785 86.4844L63.6543 88.9922L63.666 89.1797L63.6309 89.3672L63.1738 91.8398L62.9277 94.4766L62.916 94.6289L62.8691 94.7812L62.0957 97.2188L61.6621 99.7383V99.7617L61.1582 102.328L60.7012 104.941L60.666 105.129L60.584 105.305L59.5879 107.496L59.377 109.922L59.3535 110.133L59.2832 110.332L58.6045 112.071L59.0332 112.058L60.0723 111.803L59.9941 111.53L61.0723 110.956L63.3809 109.749L63.5449 109.667L63.709 109.62L66.252 108.976L66.6738 108.87L67.0957 109.011L69.6152 109.854L69.9316 109.96L70.1777 110.206L71.291 111.284L71.3125 109.381L71.2949 109.284L71.2832 109.214L71.3105 109.208L70.9512 106.726L70.9395 106.644V106.562L70.834 104.077L70.2129 101.64L70.1426 101.394L70.166 101.136L70.377 98.5928L70.1191 96.1318L70.1074 96.0146L70.1191 95.9092L70.2246 93.46L69.6855 91.0459L69.627 90.7998L69.6621 90.542L69.9551 88.0459L69.627 85.6201V85.6084L69.3105 82.9834V82.9717L68.9355 80.4053L68.9238 80.3115V80.2178L68.877 77.7451L68.291 75.3076L68.2676 75.249V75.2021L67.8574 72.7529L66.8379 70.5264L66.7676 70.3623L66.7324 70.1982L66.2168 67.6318L65.4668 65.4756L64.2949 63.54L63.0156 64.1611ZM42.3145 65.1162L42.291 65.1396L42.2793 65.1748L40.873 67.2139L39.9941 69.3818L39.5371 71.8896L39.5254 71.96L39.5137 72.0068L38.834 74.5615L38.8105 74.667L38.7637 74.7725L37.8145 76.9404L37.7324 79.3545V79.5771L37.6621 79.7764L36.8652 82.1787L36.4902 84.6748L36.3496 87.1826L36.3262 87.3701L35.8457 89.96L35.4355 92.374L35.5293 94.917L35.541 95.1514L35.4707 95.3857L34.7324 97.8936L34.7441 97.9053L34.0762 100.46L33.5723 102.979L33.5371 103.12L33.4902 103.249L32.5176 105.534L32.0605 107.925L31.8848 110.14L32.2129 110.983L33.1973 110.62L33.2676 110.597L35.5762 109.835L37.3223 108.358L37.3926 108.3L37.4629 108.253L39.4551 106.905L40.9434 104.972L41.0723 104.796L41.248 104.667L43.2168 103.226L44.7051 101.28L46.2051 99.1592L47.5527 96.9912L47.5879 96.9326L47.6348 96.874L49.123 94.917L50.1074 92.6436L50.1309 92.5967L50.1426 92.5615L51.2441 90.3584L51.7129 87.9561L51.7363 87.792L51.8066 87.6279L52.8379 85.2725L53.4707 82.917L53.7402 80.4443L53.752 80.4326V80.4209L54.0918 77.7959V77.7842L54.1035 77.7725L54.4668 75.2998L54.4434 72.8154L54.127 70.2725L54.1152 70.1553V70.0381L54.209 67.5654L53.8721 66.001L53.541 67.3857L53.1895 69.8818L53.166 70.0107L53.1309 70.1279L52.2988 72.6123L52.3105 72.624L51.5254 75.1084L51.5371 75.1201L50.7871 77.6631L50.752 77.7803L50.6934 77.8975L49.5566 80.2764L49.5098 80.3818L49.4395 80.4756L48.0449 82.5146L47.1074 84.8701L47.0371 85.0576L46.9082 85.2334L45.291 87.3311L43.8496 89.4521L43.7441 89.6045L43.6035 89.7334L41.623 91.5029L40.2988 93.0029L40.2871 93.1436L40.1934 93.1201L40.0059 93.3545L39.666 93.0498L38.7988 92.9326L37.3105 92.7334L37.3926 92.1475L37.4512 91.7021L37.7559 91.3623L39.4902 89.3936L39.5488 89.3232L39.6191 89.2646L41.4473 87.624L42.8652 85.5732L42.9121 85.5029L44.4121 83.5342L45.3145 81.2725L45.373 81.1201L45.4668 80.9795L46.8848 78.8818L47.916 76.7373L48.6543 74.2764V74.2646L48.666 74.2529L49.4395 71.7334L49.4512 71.7217V71.71L50.2246 69.3662L50.5996 66.8232L50.6113 66.7529L50.623 66.6943L50.9492 65.3311L49.9336 65.3672L49.9453 65.3789L47.2852 65.5664L47.0391 65.5898L46.7812 65.5195L44.3555 64.8398L42.6357 64.5938L42.3145 65.1162ZM66.3574 59.9912L66.8379 61.9365L68.1035 64.0107L68.1855 64.1514L68.2441 64.3037L69.0996 66.8115L69.1348 66.9053L69.1582 66.999L69.627 69.3896L70.6816 71.7217L70.7637 71.8975L70.7871 72.0967L71.1973 74.5928L71.8301 77.1709L71.8652 77.335L71.877 77.499L71.9121 80.0303L72.2871 82.585V82.6201L72.6035 85.2334L72.9551 87.8584L72.9785 88.0459L72.9551 88.2334L72.6621 90.624L73.2012 93.0029L73.248 93.2021L73.2363 93.4014L73.1074 95.8975L73.377 98.4521L73.3887 98.5928L73.377 98.7334L73.166 101.147L73.7871 103.491L73.8223 103.644L73.834 103.808L73.916 106.327L74.0635 107.304L74.1543 107.292L76.252 106.589L77.6582 105.218L78.1387 103.718L77.6348 101.538L77.6113 101.421L77.5996 101.304L77.4238 98.8779L76.6152 96.5107L76.5215 96.2646L76.5332 95.9951L76.5684 93.4756L76.0527 91.0732V91.0264L75.5723 88.4365L75.0801 85.835L75.0566 85.7295V85.6123L74.9746 83.0928L74.4238 80.6553L74.4004 80.5732L74.3887 80.4912L74.1191 78.0303L73.2988 75.6514L73.2402 75.4639L73.2285 75.2529L73.0645 72.6045V72.5928L72.666 70.1904L72.0098 67.7412L71.9863 67.6826L71.9746 67.624L71.541 65.2451L70.5332 63.3584L68.8691 61.624L68.7754 61.5068L67.123 59.4326L66.9824 59.2451L66.9004 59.0225L66.6338 58.3037L66.3574 59.9912ZM39.1699 50.5029L39.0762 50.5498L38.9824 50.585L37.7754 51.0068L38.4316 51.7217L39.0527 52.4014L38.7246 53.2686L37.7988 55.7529L37.0723 58.1787L36.498 60.6748L36.4863 60.7568L36.4512 60.8271L35.584 63.3232L35.5605 63.3936L35.5254 63.4521L34.5059 65.6436L34.1309 68.1162L34.0957 68.2803L34.0371 68.4326L33.123 70.7764L32.502 73.2842L32.4668 73.4131L32.4082 73.542L31.3535 75.8506L30.709 78.2764L30.6973 78.2646L30.0645 80.8193L29.5488 83.3389L29.5137 83.4912L29.4551 83.6436L28.4707 85.8232L28.3652 88.2256L28.3535 88.4131L28.3066 88.5889L27.6035 90.9561L27.4863 92.7725L28.3887 93.8623L30.5098 94.3076L30.6035 94.3311L30.6973 94.3662L32.4561 94.9883L32.5176 94.7764L32.4355 92.3506V92.1982L32.459 92.0576L32.8926 89.4443V89.4209L33.3496 86.9131L33.5137 84.3584V84.2881L33.5254 84.2178L33.9238 81.6162L33.9473 81.4873L33.9824 81.3701L34.7324 79.0615L34.8262 76.5771L34.8379 76.2959L34.9434 76.0381L35.9629 73.6592L36.6074 71.2451L37.0645 68.7256L37.0879 68.5732L37.1465 68.4326L38.1426 65.9717L38.2012 65.8311L38.2949 65.7021L39.7949 63.4873L40.9551 61.5889L41.2715 59.5264L41.002 57.1123H40.9902L40.4746 54.6748L40.4512 54.5811V54.4873L40.2168 51.8857V51.874L39.8994 50.1279L39.1699 50.5029ZM62.5762 38.6943L62.5293 38.7764L62.4707 38.8701L60.9473 40.9561L60.8535 41.085L60.7246 41.2021L58.7676 42.9365L58.5566 43.1123L58.2988 43.2178L55.8262 44.1318L55.5684 44.2256H52.5684L52.4629 44.2139L49.8965 43.8154L49.7207 43.7803L49.5566 43.7217L47.0957 42.7021L46.7324 42.5498L46.498 42.2451L44.8574 40.1592L44.7637 40.0537L44.7051 39.9248L44.0576 38.6885L42.3105 39.3154L42.2051 39.3623L42.0879 39.3857L39.4395 39.8662L39.3926 39.8779H39.3457L36.8848 40.1709L36.501 40.2168L36.6934 40.9443L36.752 41.1553L36.7402 41.3662L36.6816 44.0264V44.1084L36.4707 46.7451L36.459 46.792V46.8389L36.2246 48.3779L37.8926 47.7959L40.0371 46.6826L40.5986 47.7949L40.7793 47.9365L42.1504 47.3857L42.6426 48.5928L42.7012 48.7334L42.7246 48.8975L43.1934 51.4873L43.2051 51.5576V51.6162L43.4277 54.2061L43.9551 56.6201L43.9785 56.7607L44.0791 57.626L46.6074 57.6826H46.7246L46.8418 57.7061L49.3262 58.1748L51.8223 58.4326H51.834L51.9297 58.4424L52.4922 57.9033L53.1719 57.2588L54.0391 57.5752L56.2773 58.3838L56.4141 58.4336L56.5176 58.3818L56.5762 58.3584L59.002 57.374L59.2246 57.2803L59.459 57.2686L61.9434 57.0811L63.8418 56.6201L64.0371 54.7764L64.1309 52.1396L64.1426 52.0576L64.1543 51.9639L64.5059 49.5498L64.2715 47.1943L64.2598 47.0654V46.9248L64.2715 46.8311L65.7715 46.9365L66.3457 46.9717L67.248 46.8779L67.5176 49.4092L67.541 49.5967L67.5059 49.7959L67.1191 52.3506L67.0918 53.1885L68.5645 55.085L68.7168 55.2725L68.7988 55.4834L69.6309 57.7568L71.084 59.5967L72.8418 61.4248L72.9941 61.5771L73.0879 61.7646L74.2852 64.0107L75.1973 63.9209L75.5957 63.8857L75.9707 64.0615L78.1621 65.0811L80.5527 65.3623H80.5645L80.5879 65.374L82.9199 65.6787L85.1934 65.0342L85.3223 64.999L85.4512 64.9873L87.7715 64.7412L89.6348 63.6162L91.1934 62.0928L91.873 60.4756L91.6621 59.8428L90.1973 59.9834L87.959 60.335L86.1074 61.5889L86.1191 61.6006L84.1152 63.1475L83.6816 63.4873L83.1309 63.4639L80.541 63.3467H80.4473L80.3535 63.3232L77.7637 62.8662L77.5059 62.8193L77.2832 62.6904L74.998 61.3662L74.7402 61.2256L74.5645 60.9912L72.9707 58.917L72.9004 58.8232L72.8418 58.7178L71.5996 56.4326L71.5527 56.3389L71.5176 56.2334L70.6035 53.7373L70.5098 53.5029V53.2451L70.4629 50.667L70.3105 48.124L70.9795 48.0771L70.918 47.5391L71.4609 47.4707L71.6289 46.4336L71.8467 45.0049L71.459 44.3701L69.9824 42.4131L68.2715 40.7373L66.3496 39.3779L64.2754 38.3818L62.8369 38.2061L62.5762 38.6943ZM53.4297 61.1494L53.8164 62.6143L53.8887 62.7402L54.3496 62.6631L55.1465 61.6094L54.7773 61.0322L53.8867 60.7041L53.4297 61.1494ZM43.9707 61.7559L44.8242 61.875L44.918 61.8867L45.0117 61.9219L47.332 62.5664L49.7344 62.3789H49.793L50.6504 62.3477L50.375 61.2959L49.0215 61.1631H48.9629L48.9043 61.1514L46.3965 60.6709L44.1426 60.6182L43.9707 61.7559ZM62.5645 60.0225L62.4473 60.0459L62.3184 60.0576L59.916 60.2334L58.5322 60.7998L60.0039 61.1611L62.043 61.2783L63.4199 60.626L63.3691 60.4248L63.2988 60.1201L63.3428 59.8301L62.5645 60.0225ZM97.1914 50.1992L97.1094 50.2109H97.0156L94.7188 50.1992L93.0547 51.0547L90.8984 52.4961L90.7344 52.6016L90.5469 52.6719L87.9805 53.5273L87.875 53.5391L85.2852 53.9961L85.0625 54.0312L84.8398 54.0078L82.2266 53.6914L81.9102 53.6445L81.6406 53.4922L79.4141 52.1797L79.1562 52.0273L78.9805 51.7812L77.9023 50.3516L76.25 50.3164H76.2266L73.6719 50.2109L73.4473 50.2393L73.4629 50.4678V50.5381L73.498 52.9404L74.2949 55.1201L75.4082 57.1709L76.7676 58.9287L78.5488 59.96L80.7637 60.3467L82.6973 60.4404L84.2793 59.2217L84.3496 59.1748L86.541 57.6748L86.8105 57.4873L87.1504 57.4404L89.7754 57.0186L89.8223 57.0068H89.8691L92.5762 56.749L93.7715 56.6318L94.1465 57.7686L94.1865 57.8916L95.7148 57.4531L97.3555 55.8477L97.4141 55.7891L97.4961 55.7305L99.3359 54.3008L100.355 52.3438L101.082 50.2812L101.023 50.0117L99.6406 49.9062L97.1914 50.1992ZM30.0801 37.9756V38.0576L30.0684 38.1279L29.6348 40.7412L29.3652 43.2725L29.3535 43.2959V43.3193L28.9785 45.9561L28.9551 46.1904L28.8496 46.4014L27.6777 48.7803L26.5713 51.0498L27.2715 51.9365L28.8652 52.5342L30.6113 51.8545L32.2168 50.6709L33.1191 48.8193L33.4707 46.4639L33.6816 43.874L33.7402 41.5186L33.166 39.374L31.8418 37.417H31.8301L30.5996 35.8701L30.2061 35.792L30.0801 37.9756ZM82.8203 46.5273L80.5117 47.4883L80.3125 47.5703L80.1016 47.5938L79.6172 47.6455L79.8594 47.9727L81.1953 49.7422L82.9062 50.75L83.001 50.7607L82.9531 49.3438L82.8359 46.707V46.543L82.8369 46.5234L82.8203 46.5273ZM95.3281 28.3086L95.5273 28.6953L97.1914 30.418L99.1836 31.9883L99.3125 32.082L99.4062 32.2109L101.07 34.25L102.641 36.125L104.668 37.6133L104.879 37.7656L105.031 38L106.52 40.2266L107.258 41.3281L106.25 42.1953L105.219 43.0859L104.984 43.2852L104.68 43.3789L102.16 44.1641H102.148L99.6289 44.9258L99.582 44.9492H99.5469L97.0977 45.5352L94.707 46.4844L94.625 46.5195L94.543 46.5312L92 47.2227L90.8984 47.5273L90.3125 46.543L89.5742 45.2891L89.3047 44.8438L89.375 44.3164L89.75 41.6914L89.7617 41.5742L89.8086 41.4453L90.5586 39.0898L90.7227 36.6172L90.7344 36.4297L90.793 36.2539L91.5781 33.8281L91.9766 31.3555L92 31.2852L92.5156 28.7891L92.5273 28.6953L93.3828 24.5703L95.3281 28.3086ZM76.7031 33.7891L76.6914 33.8945L76.668 34L76.0234 36.4258L75.8945 38.9219V39.0039L75.6016 41.6289L75.5898 41.7227L75.5664 41.8047L74.9922 44.2773L74.8164 45.3672L76.9961 44.9336L77.0547 44.9219L77.125 44.9102L79.5508 44.6406L81.8359 43.6914L81.9883 43.6328L82.1406 43.6094L84.707 43.1406L86.2891 42.6602L86.5586 41.6055L86.4883 39.1797V39.1562L86.4648 37.6328L84.9531 37.082L84.7891 37.0234L84.6367 36.918L82.6328 35.5703L80.2773 34.9961L80.0898 34.9492L79.9023 34.8555L77.6875 33.6133L76.75 33.2617L76.7031 33.7891ZM17.1543 17.2217L16.5918 18.8037L16.3926 20.8428L17.1895 22.8115L18.4551 25.0615H18.4668L19.6973 27.2881L19.8496 27.5576L19.8848 27.874L20.1191 30.4053L20.5176 32.8896L21.1504 35.4443L21.1738 35.5615L21.5605 37.9639L22.6152 40.085L23.8809 42.3232L25.0762 43.9287L26.2012 44.1982L26.377 42.9443L26.6699 40.3311V40.2959L26.6816 40.249L27.1035 37.6475L27.2324 35.3389L26.8691 33.1475L25.8613 30.9678V30.9561L24.748 28.9053L22.9785 27.2764L22.7793 27.0889L22.6621 26.8428L21.4668 24.4639L21.3496 24.2295L21.3262 23.9834L21.0332 21.6514L20.5059 20.7139L20.2129 20.1865L20.3652 19.6123L20.7402 18.1006L19.9902 17.0576L18.584 16.7764L17.1543 17.2217ZM94.5312 34.4258L94.5195 34.543L94.4727 34.6602L93.6992 37.0039L93.5469 39.4766L93.5352 39.6641L93.4766 39.8398L92.6914 42.2422L92.4453 43.9883L93.7578 43.6367L96.0664 42.7227L96.1719 42.6875L96.2656 42.6641L98.75 42.0547L101.27 41.293L103.215 40.6836L102.688 39.8867L100.73 38.457L100.578 38.3516L100.461 38.2109L98.7734 36.1719L98.7617 36.1602L97.168 34.2031L95.2344 32.6797L95.1523 32.6211L95.082 32.5508L94.8594 32.3164L94.5312 34.4258ZM58.6504 35.667L58.4629 35.7725L56.1426 37.0498L55.8027 37.2373H55.416L52.8145 37.2256H52.627L52.4512 37.1787L49.9668 36.5576L49.6152 36.4639L49.3457 36.2295L48.6807 35.6445L48.2402 36.8779L47.9707 37.6279L47.1973 37.8271L47.0215 37.8701L47.3184 38.4365L48.5957 40.0654L50.5293 40.874L52.7676 41.2256H55.041L56.9746 40.499L58.6152 39.0459L59.9512 37.2061L60.0703 36.9922L59.2012 36.3545L58.8145 36.0732L58.6797 35.6367L58.6504 35.667ZM48.1602 13.7549L46.0156 14.6689L44.4805 16.415V16.4268L42.8867 18.1846L42.0547 20.2236L41.5625 22.7314V22.7432L41.0352 25.333V25.3682L40.4727 27.8174L40.3203 30.2314L40.3672 32.8916V33.0322L40.3438 33.1729L39.9102 35.6572L39.8896 36.7207L41.4082 36.4443L43.8223 35.6006L43.8926 35.5771L43.9512 35.5537L45.6738 35.1084L46.2715 33.4678L46.2842 33.4297L45.4316 32.6084L45.1621 32.3389L45.0449 31.9756L44.2598 29.4209L44.2363 29.3506L44.2129 29.2686L43.7324 26.6904L43.7207 26.667V26.6436L43.3105 24.042L43.2637 23.7607L43.3223 23.4912L43.8262 21.1357L43.9668 20.4912L44.5293 20.1631L46.7324 18.8271L48.5723 17.2686L50.2715 15.4053L51.7832 13.8936L51.8184 13.0645L50.3281 13.0283L48.1602 13.7549ZM56.7168 14.6631L56.7285 14.6865L56.7402 14.6982L58.4277 16.4092L60.584 17.4404L60.6426 17.4639L60.6895 17.4873L63.0332 18.835L63.7598 19.2568L63.7832 20.1006L63.8418 22.8076V22.8662L63.8301 22.9365L63.666 25.5732L63.6543 25.5967V25.6318L63.373 28.2686L63.3496 28.4795L63.2676 28.667L62.2832 31.1396L62.2129 31.3154L62.0957 31.4795L60.959 32.9912L61.3691 34.2217L62.6465 35.1592L64.9082 35.4404L65.1543 35.4756L65.377 35.5811L66.7109 36.2217L67.0859 34.4736L66.8633 32.165L66.4414 29.5518V29.54L66.0195 27.1846L64.9766 24.8877L64.8711 24.6416L64.8477 24.3721L64.6602 21.8643L64.0625 19.415L63.3242 17.4229L61.5664 16.04L61.4492 15.9463L59.75 14.3057L57.6055 13.5791L55.25 13.1455L55.124 13.1416L56.7168 14.6631ZM52.4277 17.4795L50.7051 19.3779L50.6348 19.4482L50.5645 19.5068L48.5488 21.2295L48.4551 21.3115L48.3496 21.3701L46.627 22.3896L46.3105 23.8545L46.6738 26.1279L47.1543 28.6592L47.7988 30.7217L49.3809 32.2568L51.0449 33.7334L53.002 34.2256H55.0293L56.7988 33.2529L57.7412 32.3174L58.0996 31.8428L59.5645 29.8389L60.3965 27.7529L60.666 25.374L60.8418 22.7373L60.7949 21.0146L59.2949 20.1475L56.8926 18.999L56.6582 18.8818L56.4707 18.6943L54.6074 16.8076V16.7959L53.8594 16.082L52.4277 17.4795ZM82.4062 30.4141L82.3477 30.4258L82.3008 30.4375L79.6758 30.7891L78.9639 30.8887L79.0469 30.9414L81.2031 32.1367L83.335 32.6592L83.3398 32.6211L83.6006 30.1582L82.4062 30.4141ZM55.5 30.2734L55.5049 30.3672L56.3955 31.4102L55.7793 31.9482L55.3652 32.3115L54.8135 32.3184L52.9023 32.3408L52.6553 32.3428L52.4287 32.2725L50.6484 31.7012L50.999 30.6025L50.9932 30.2744V28.7715L51.0986 28.7783L51.333 28.7764L51.5488 28.8467L53.125 29.3359L54.2393 29.333L54.4287 29.1465L54.8545 28.7715L55.418 28.7754L55.5 28.7715V30.2734ZM81.8555 21.7188V21.8359L81.832 21.9414L81.3281 24.4141L81.3398 26.8867V27.0039L81.3164 27.1211L81.2461 27.543L81.8906 27.4609L84.2578 26.9453L86.7891 26.207L86.8594 26.1836L86.9414 26.1719L89.0156 25.7734L89.625 25.0938L89.3555 23.4414L88.8633 22.6562L86.9297 22.3281L86.7891 22.3047L86.6602 22.2578L84.2344 21.3555L81.8906 20.875L81.8555 21.7188ZM52.1992 23.9023L52.2695 24.2539L52.1641 24.5938L51.918 25.4375L51.9766 25.7188L51.8359 25.7422L51.8242 25.8008L51.707 25.7656L50.5 26L49.0234 26.2812L48.9062 25.6719L48.8359 25.3086L48.9414 24.9688L49.1875 24.1133L49.0234 23.2812L51.9766 22.7188L52.1992 23.9023ZM57.6172 23.1992L57.7109 23.5625L57.6289 23.9375L57.3945 24.8867L57.4883 25.7539L57.5 25.8242V26H54.9688L54.5117 26.0469V26H54.5V25.8945L54.3945 24.9453L54.3711 24.6992L54.4297 24.4648L54.6289 23.6328L54.5586 23.4102L54.6875 23.3633L54.7109 23.2578L54.9219 23.3047L56 23L57.4414 22.5898L57.6172 23.1992ZM52.6816 5.02246L51.6738 6.7334L51.3223 7.30762L50.666 7.43652L48.2637 7.89355L46.2129 8.69043L45.6035 9.39355L46.2012 10.9756L46.2363 11.0459L46.248 11.1162L46.2969 11.2979L47 11.001L47.0469 10.9775L47.1055 10.9658L49.6367 10.1104L49.8828 10.0166L50.1523 10.0283L52.8242 10.0869L55.4609 10.1572L55.6953 10.1807L58.2969 10.6729L58.4023 10.6846L58.5078 10.7197L60.1758 11.291L60.8613 9.94434L61.0254 8.84277L59.877 8.46777L57.4043 8.20996L56.959 8.16309L56.6191 7.87012L54.6621 6.27637L54.5332 6.1709L54.4277 6.03027L53.4668 4.7998L52.6816 5.02246Z" fill="black"/>
</svg>
