<svg width="120" height="120" viewBox="0 0 120 120" fill="none" xmlns="http://www.w3.org/2000/svg">
<path d="M21.6709 22.0859L21.6855 22.0742L21.7207 22.1133L22.8223 22.707L22.8574 22.7305L22.9043 22.7539L25.1191 24.1484L27.3809 25.5312L27.3926 25.543L29.502 26.8672L31.8809 28.0391L31.9043 28.0508L31.9395 28.0742L34.248 29.3516L34.3066 29.3867L34.3535 29.4102L36.5215 30.8516L38.7715 32.2344L38.8418 32.2812L40.9277 33.7344L43.1895 34.9531L43.2598 35L45.498 36.3477L47.6777 37.6133L50.0684 38.7617L50.1973 38.8203L50.3027 38.9023L52.3301 40.3906L54.5332 41.6445L56.8711 42.7031L56.8828 41.5039L56.8359 38.8555L56.8477 38.8438L56.6133 36.3359L56.6016 36.1953L56.6133 36.043L56.8828 33.4062L56.8359 30.9453L56.8477 30.9336L56.6367 28.4023V28.3789L56.4609 25.7422V25.5547L56.6016 23.0117L58.1016 23L59.6016 22.9766V23.1875L59.4609 25.625L59.625 28.1562L59.8359 30.8047V30.8984L59.8828 33.5352V33.6289L59.8711 33.7109L59.6016 36.1602L59.8359 38.7031V38.8203L59.8828 41.457V41.4922L59.8594 44.1289L59.9277 45.6416L61.5723 46.8428L61.5957 46.8545L61.6074 46.8662L63.6934 48.46L63.7637 48.5068L65.7559 50.2178L67.7715 51.9287H67.7832L67.7949 51.9404L69.6699 53.5928L71.8145 55.1514L71.8848 55.1982L73.9355 56.874L74.0293 56.9678L75.8926 58.7842L77.8262 60.5889L77.8965 60.6592L79.6191 62.5225L81.5762 64.2217L81.6465 64.292L83.5215 66.1436L85.3379 67.9131L87.3535 69.6357L87.4707 69.7412L87.5645 69.8701L89.1465 71.9209L90.8691 73.7373L92.791 75.3896L92.873 75.4717L94.7598 77.3701L95.0527 77.6748L95.1582 78.085L95.7324 80.5928L94.502 80.874L94.3379 81.0146L93.9316 81.3311L93.9414 81.8262H93.8828V81.8379L93.8008 81.8262L93.2832 81.8389L93.1543 81.9404L93.0957 81.8584L93.084 81.8438L91.4336 81.8848H91.3398L91.2461 81.873L88.7031 81.5918V81.6035L86.0547 81.4277H86.0195L85.9961 81.416L83.3711 81.1348L83.207 81.1113L80.7578 80.5488L78.2617 80.5254L78.2266 80.5137H78.1797L75.5547 80.3262L72.918 80.1504L70.3867 80.1621H70.3164L70.2461 80.1504L67.6094 79.9043V79.8926L65.0898 79.8574H65.0547L62.5 79.752L60.0039 79.9043L59.8311 79.9287L59.6953 81.0781L59.8477 83.6328L59.8594 83.7148L59.8477 83.7969L59.707 86.2578L60.0117 88.8242L60.0352 89.0586L59.9883 89.2812L59.6787 90.9082L61.6133 90.9609L64.2148 90.9023H64.332L64.4375 90.9141L66.8867 91.207L69.3125 90.9844L71.9023 90.5625L72.043 90.5391H72.1836L74.6914 90.5977L77.1406 90.1641L77.1992 90.1523L77.2461 90.1406L79.707 89.8828L82.0977 89.1211L82.2852 89.0625L82.4844 89.0508L84.9453 88.9102L87.2188 88.0898H87.2305L89.6445 87.2344L92.0938 86.2266L94.4023 85.125L96.7461 83.9766L96.8164 83.9414L96.875 83.918L99.1133 83.0742L100.953 81.4922L101.117 81.3398L101.316 81.2578L103.754 80.168L104.094 80.0156L104.469 80.0391L104.809 80.0742L106.941 80.2266L106.074 82.1719L104.984 84.6211L104.938 84.7266L104.867 84.832L103.414 87.0469L103.332 87.1758L103.227 87.2812L101.457 89.0273L100.309 91.1602L100.25 91.2891L100.156 91.3945L98.5742 93.3281L97.4492 95.5547L97.3555 95.7422L95.5273 97.7227L94.0625 99.7148L92.9375 102.047L92.8789 102.152L92.8086 102.246L91.2852 104.414L91.2148 104.508L91.1445 104.59L89.3867 106.395L88.0391 108.504L87.9688 108.598L87.8984 108.68L86.1406 110.66L85.3701 111.647L86.0117 111.73L88.5195 111.332L90.8867 110.184L93.207 108.496L93.3828 108.367L93.6055 108.297L96.4414 107.324L99.2422 106.281L99.6289 106.141L100.027 106.211L103.016 106.75L103.145 106.773L103.262 106.82L106.051 107.828H106.039L108.863 108.66L108.969 108.684L109.062 108.73L111.793 109.973L111.969 110.043L112.121 110.172L112.941 110.828L112.004 112L111.055 113.172L110.387 112.621L107.891 111.484L105.113 110.676L105.02 110.652L102.371 109.68L99.8984 109.234L97.4492 110.16H97.4258L97.4023 110.172L94.7656 111.062L92.5508 112.691L92.4336 112.773L92.3164 112.832L89.6328 114.121L89.4336 114.215L89.2227 114.25L86.2695 114.73L86.0469 114.766L85.8359 114.742L82.8477 114.355L82.6719 114.332L82.5078 114.273L79.6719 113.195L79.4023 113.09L79.1914 112.902L77.2109 111.086L74.6797 110.5L72.125 110.277L69.6992 110.98L67.0859 112.141L64.7773 113.77L64.5664 113.898L64.332 113.969L61.4258 114.824L61.0977 114.918L60.7461 114.859L57.7695 114.355L57.6641 114.332L57.5703 114.297L54.7461 113.395L54.5469 113.336L54.3711 113.207L52.0156 111.602L49.543 110.488L47.0234 110.09L44.5156 110.652L42.043 111.871L39.5469 113.383L39.4062 113.465L39.2422 113.523L36.3945 114.449L36.1602 114.52H35.9023L32.9375 114.461H32.8086L32.668 114.438L29.7734 113.852L29.5273 113.805L29.3164 113.676L26.75 112.188L26.6797 112.141L24.3828 110.617L21.8281 109.879L19.1445 109.328L16.625 109.715L14.1172 110.898L11.4922 112.258L11.4219 112.293L11.3398 112.316L8.63281 113.359L8.62109 113.371H8.60938L8.51562 113.406L7.48438 110.594L7.57812 110.559H7.58984L10.2617 109.516L12.793 108.215L12.8398 108.191L15.5586 106.902L15.7578 106.809L15.9688 106.785L18.957 106.328L19.2266 106.281L19.4844 106.34L22.4258 106.938L22.543 106.961L25.2148 107.734L24.2656 105.68L24.2422 105.645L24.2305 105.609L23.2227 103.172L23.2109 103.137L23.1992 103.09L22.3438 100.641V100.652L21.3828 98.1914L21.3594 98.1562L20.5625 95.7656L19.4727 93.3633L19.4609 93.3398L19.4492 93.3281L18.4414 90.9727L17.2695 88.5938L17.1875 88.418L17.1406 88.2305L17.0352 87.6914L18.5 87.3867L19.1445 87.2344L19.0039 86.4727L21.4531 86.0156L21.6758 85.9805L21.9102 86.0039L24.4414 86.3203L24.957 86.3789L25.332 86.7656L27.1367 88.6289L27.2422 88.7461L27.3242 88.875L28.25 90.3398L30.0195 90.6211L32.4688 90.4336L32.5273 90.4219H35.2578L37.8477 90.4688L40.4727 90.4102H40.5547L40.6484 90.4219L41.4463 90.4922L42.0273 88.1914L42.4609 85.6953L42.4727 85.6367L42.4961 85.5781L43.1172 83.1875L43.2432 82.0986L42.1699 82.1445L39.7324 82.707L39.7207 82.6953L37.248 83.3164L37.2598 83.3281L34.7402 84.0781L34.6113 84.1133L34.4824 84.1367L31.8574 84.4531L31.6699 84.4766L31.4707 84.4531L29.2793 84.1602L27.498 83.9258L28.0488 82.2148L28.8457 79.7305L29.502 77.2461L29.5254 77.1523L29.5605 77.0586L30.4746 74.7969L30.8027 72.3359L31.1426 69.7227L31.1543 69.6055L31.1895 69.4883L31.8809 67.0859L32.1035 64.5898L32.3262 62.0352L32.4199 59.4336V56.8672L32.0332 54.4062L31.5996 51.8047V51.793L31.2246 49.2969L30.6152 46.7305V46.707L30.0762 44.2695L29.1621 41.8672L29.1504 41.8555L28.2598 39.4648L27.2051 37.1211L25.8926 34.9531L25.834 34.8594L25.7988 34.7539L24.8262 32.4336L23.4316 30.3711V30.3477L23.4199 30.3359L21.9902 28.1211L21.9199 28.0039L21.873 27.8867L20.9707 25.7422L19.8477 24.5049L19.752 24.4531L18.4746 23.7734L19.1074 22.4727L19.1777 22.3438L20.5254 23L21.1699 21.8164L21.6709 22.0859ZM74.2793 103.605H74.1855L71.5488 103.746H71.502L68.8652 103.816L68.8535 103.805L66.2988 103.992L66.2051 104.004L66.1113 103.992L63.4746 103.863H60.8613L58.2715 103.781L55.752 103.863L55.7637 103.875L53.1152 104.109H52.9629L50.3145 104.062V104.051L47.6895 104.027H47.666L45.041 103.957L42.4512 103.992H42.334L42.2168 103.98L39.709 103.605L37.2949 103.746L34.6582 104.027L34.5059 104.039L34.3418 104.027L31.8574 103.746L29.3262 103.922H29.1621L26.7715 103.816L26.7422 103.825L27.0078 104.473L28.0977 106.805L28.1328 106.875L28.1562 106.945L28.9648 109.277L29.0117 109.371L28.3389 109.642L30.6055 110.957L33.1016 111.461L35.6914 111.508L38.1289 110.711L40.5781 109.27L40.625 109.234L40.6836 109.211L43.3438 107.887L43.5078 107.816L43.6836 107.77L46.6367 107.113L46.918 107.055L47.1875 107.09L50.1992 107.547L50.3984 107.582L50.5859 107.664L53.3633 108.918L53.4805 108.977L53.5859 109.047L55.8828 110.605L58.332 111.391L60.9102 111.836L63.2188 111.168L65.5039 109.598L65.6211 109.516L65.7617 109.457L68.5156 108.238L68.6094 108.191L68.7031 108.168L71.5742 107.324L71.8555 107.242L72.1367 107.266L75.125 107.535L75.2188 107.547L75.3242 107.57L78.2773 108.262L78.6641 108.344L78.9453 108.613L80.9844 110.477L83.3203 111.369L82.3672 110.625L83.832 108.738L83.8672 108.703L83.8906 108.656L85.5781 106.758L86.9492 104.648L87.0312 104.52L87.1367 104.414L87.9404 103.571L87.123 103.336L84.7324 103.43L84.7441 103.441L82.1074 103.594H79.377L79.3066 103.582H79.2246L76.752 103.312L74.2793 103.605ZM100.426 85.7812L97.9766 86.707L95.7148 87.832H95.7031L95.6914 87.8438L93.3125 88.9688L93.2422 88.9922L90.793 90.0117L90.7227 90.0352L88.2266 90.9023L88.2383 90.9141L85.7539 91.8164L85.543 91.8984L85.3203 91.9102L82.8359 92.0391L80.4922 92.7891L80.3398 92.8359L80.1875 92.8477L77.668 93.1172L75.0664 93.5859L74.9141 93.6094H74.7617L72.2305 93.5391L69.7812 93.9492L69.7344 93.9609L69.6758 93.9727L67.0508 94.2188L66.8867 94.2305L66.7227 94.2188L64.1914 93.9023L61.6484 93.9727H61.5781L58.9297 93.8906V93.8789L56.3047 93.832H56.2812L53.7266 93.7266L51.1602 93.8906H51.1133L51.0781 93.9023L48.4414 93.9258H48.3242L45.7344 93.7383V93.75L43.0977 93.6562H43.0508L43.0156 93.6445L42.1807 93.5693L42.1094 93.9219L41.9453 93.8867L40.082 93.5117L40.125 93.418L37.9062 93.4805H37.8359L35.1875 93.4219H32.7031L30.0664 93.6328L29.8906 93.6445L29.7148 93.6211L27.1133 93.1992L26.4453 93.0938L26.082 92.5195L24.8633 90.5977L23.5391 89.2266L21.7578 89.0039L20.9023 89.1562L21.1367 89.6367L21.1484 89.6719L21.1719 89.707L22.2148 92.1445H22.2031L23.293 94.5117L23.3281 94.582L23.3516 94.6641L24.1719 97.0898L25.1445 99.5508L25.1562 99.5859V99.6094L25.6533 101.025L26.1387 100.875L26.3848 100.805L26.6426 100.816L29.1855 100.922L31.7637 100.746L31.9043 100.734L32.0332 100.758L34.5059 101.027L36.9902 100.77H37.0254L37.0605 100.758L39.709 100.617L39.8496 100.605L40.002 100.629L42.5332 100.992L45.041 100.957H45.1113L47.748 101.027L47.7363 101.039L50.3613 101.062H50.373L52.9863 101.109L55.4941 100.887H55.5645L58.2129 100.781H58.3184L60.9082 100.875V100.863H63.627L66.1582 101.004L68.7246 100.816H68.7949L71.3965 100.758V100.746L73.9395 100.629V100.617L76.5645 100.324L76.7285 100.301L76.8926 100.324L79.541 100.594H81.9316L84.5801 100.453L84.6035 100.441L87.2402 100.336L87.4863 100.324L87.7207 100.395L89.9883 101.041L90.2656 100.652L91.4141 98.3203L91.4727 98.2031L91.543 98.0977L93.0898 95.9648L93.1484 95.8828L93.207 95.8242L94.8711 93.9961L95.9844 91.8164L96.0547 91.6758L96.1602 91.5586L97.707 89.6602L98.9375 87.3984L99.043 87.2109L100.508 85.7461L100.426 85.7812ZM54.7188 80.4902L52.0938 80.7246L52.1055 80.7363L49.4922 81.0059H49.4102L46.7852 81.1465L46.3867 81.1699L46.3691 81.1611L46.1055 83.5742L46.0938 83.6797L46.0586 83.7852L45.4141 86.1992L45.4258 86.2109L44.957 88.8242V88.8828L44.9336 88.9414L44.4814 90.7002L45.8398 90.75H45.8867L48.5 90.9141L50.9609 90.9023L53.6094 90.7383L53.6914 90.7266H53.7617L56.3984 90.832H56.3867L56.6426 90.8369L57.0117 88.9297L56.7188 86.5273L56.707 86.4102L56.7188 86.2812L56.8594 83.7148L56.6953 81.1719L56.6836 81.043L56.707 80.9141L56.7715 80.333L54.7188 80.4902ZM25.9277 28.6953L27.4043 30.8867L27.4863 31.0156L27.5449 31.1445L28.5293 33.5234L29.8301 35.668L29.877 35.75L29.9121 35.832L30.9902 38.2344L31.0371 38.3281L31.9629 40.7891L32.9121 43.2617L32.959 43.3672L32.9824 43.4844L33.5449 46.0742L34.1426 48.6055L34.1543 48.6758L34.166 48.7344L34.5645 51.3242L34.998 53.9258V53.9375L35.4082 56.5625L35.4199 56.668V59.4922L35.3262 62.1289V62.2109L35.0918 64.8477L34.8691 67.4844L34.8574 67.625L34.8223 67.7773L34.0957 70.2148L33.7793 72.7227L33.4395 75.3477L33.416 75.5469L33.3457 75.7344L32.3613 78.125L31.7285 80.5625L31.7168 80.6094L31.4473 81.418L31.6816 81.4531L33.9668 81.1719L36.4043 80.4453L36.4277 80.4336H36.4629L39.0293 79.7891H39.0527L41.6309 79.1914L41.7598 79.168L41.9004 79.1562L43.8809 79.0625L44.7598 78.1016L45.3574 76.0156L45.627 73.5078L45.6504 73.2617L45.7441 73.0508L46.7871 70.7188L47.5605 68.3633L47.8535 65.8906L47.8652 65.7734L47.9004 65.6562L48.627 63.1133L48.6621 62.9727L48.7324 62.832L49.8691 60.6406L50.3262 58.2617L50.3496 58.1211L50.3965 57.9922L51.2988 55.6602L51.6738 53.1992L51.6973 53.0117L51.7793 52.8242L52.7988 50.5039L53.502 48.1484L53.9707 45.5352L54.0293 45.2539L54.1699 45.0078L54.2842 44.8223L53.2324 44.3516L53.1738 44.3164L53.127 44.293L50.8184 43.0039L50.7363 42.957L50.666 42.8984L48.6504 41.4102L46.377 40.3203L46.3301 40.2969L46.2832 40.2617L43.9863 38.9492L43.9629 38.9258L41.7012 37.5664V37.5547L39.4395 36.3477L39.2988 36.2539L37.1895 34.7891L34.9395 33.4062L34.9277 33.3828L34.9043 33.3711L32.7949 31.9766L30.4863 30.6992H30.4746L28.1777 29.5625L28.0371 29.4922L25.8105 28.0742V28.0859L25.3535 27.8076L25.9277 28.6953ZM46.1162 81.0811L46.2461 81.0967L46.1484 81.0469L46.1162 81.0811ZM59.7891 49.4023L59.8008 49.4141L59.7656 52.0625V52.1094L59.6484 54.7461L59.7422 57.1953L59.9648 59.832V59.9844L59.918 62.6211L59.9062 65.2461V65.2695L59.8477 67.9062L59.9062 70.4844V70.6016L59.8945 70.7188L59.543 73.2031L59.707 75.6406L59.8418 76.9102L62.3828 76.7637L62.4531 76.752L62.5352 76.7637L65.1719 76.8574L65.1602 76.8691L67.7852 76.9043H67.832L67.8906 76.916L70.5156 77.1621L73.0234 77.1504H73.1289L75.7656 77.3379L78.3906 77.5254L78.3789 77.5371L80.9688 77.5605L81.1211 77.5723L81.2617 77.5957L83.8047 78.1816L86.2422 78.4277H86.2539L88.8906 78.6035H88.9258L88.9609 78.6152L91.4336 78.873L92.0225 78.8613L90.834 77.6631L88.8301 75.9287L88.7715 75.8818L88.7246 75.835L86.9082 73.9131L86.8496 73.8662L86.8027 73.7959L85.2793 71.8154L83.3809 70.1982L83.3105 70.1279L81.4238 68.2881L81.4121 68.2764L79.5371 66.4248V66.4131L77.6152 64.749L77.5566 64.7021L77.498 64.6436L75.7754 62.7803L73.8418 60.9756L73.8184 60.9521L71.9551 59.1357L70.0566 57.5771L67.9121 56.0303L67.7949 55.9365L65.8145 54.2021V54.1904L63.8223 52.5146L63.8105 52.5029L61.8066 50.792V50.7803L59.7988 49.2598L59.7891 49.4023ZM56.4551 48.7227L56.4434 48.8047L56.4199 48.8867L55.6582 51.418L55.6348 51.5117L55.5996 51.5938L54.6035 53.8203L54.2402 56.293L54.2168 56.4453L54.1582 56.6094L53.2559 58.8945L52.7871 61.4141L52.7402 61.6367L52.6348 61.8359L51.4629 64.0625L50.8066 66.3594L50.5254 68.9023L50.502 69.0547L50.4551 69.1953L49.623 71.7031L49.5996 71.7734L49.5645 71.8438L48.5684 74.0586L48.334 76.4844L48.3105 76.6133L48.2754 76.7422L47.8887 78.0889L49.1875 78.0293V78.0176L51.8125 77.7598L51.8242 77.748L54.4492 77.5137L54.4727 77.502L56.8682 77.3262L56.7188 75.957V75.8867L56.5547 73.25L56.543 73.1094L56.5664 72.957L56.9062 70.4258L56.8477 67.918V67.8477L56.9062 65.2109L56.918 62.5859V62.5742L56.9648 59.9375L56.7422 57.4414V57.3711L56.6484 54.7344V54.6172L56.7656 51.9688L56.8008 49.3789V49.2969L56.8174 49.0664L56.6777 48.9336L56.7129 48.2422L56.8008 46.7168L56.4551 48.7227Z" fill="black"/>
</svg>
