<svg width="120" height="120" viewBox="0 0 120 120" fill="none" xmlns="http://www.w3.org/2000/svg">
<path d="M8.1 116V117.5H8.13227L8.16451 117.499L8.1 116ZM10.64 115.891L10.797 114.399L10.6865 114.387L10.5755 114.392L10.64 115.891ZM13.28 116.169L13.123 117.66L13.2739 117.676L13.425 117.662L13.28 116.169ZM15.92 115.912L15.8596 114.413L15.8172 114.415L15.775 114.419L15.92 115.912ZM18.56 115.806L18.6763 114.31L18.588 114.303L18.4996 114.307L18.56 115.806ZM21.2 116.011L21.0837 117.507L21.1392 117.511L21.1948 117.511L21.2 116.011ZM23.84 116.02L23.8348 117.52L23.8912 117.52L23.9474 117.516L23.84 116.02ZM26.48 115.831L26.5223 114.331L26.4473 114.329L26.3726 114.334L26.48 115.831ZM29.12 115.905L29.2963 114.415L29.2295 114.408L29.1623 114.406L29.12 115.905ZM31.76 116.217L31.5837 117.707L31.7941 117.732L32.0032 117.698L31.76 116.217ZM34.4 115.784L34.4793 114.286L34.3171 114.277L34.1568 114.303L34.4 115.784ZM37.04 115.923L36.9607 117.421L37.0493 117.426L37.1379 117.42L37.04 115.923ZM39.68 115.751L39.8617 114.262L39.7223 114.245L39.5821 114.254L39.68 115.751ZM42.32 116.073L42.1383 117.562L42.2533 117.576L42.3692 117.572L42.32 116.073ZM44.96 115.986L44.9117 114.487L44.9108 114.487L44.96 115.986ZM47.6 115.901L47.6483 117.401L47.6707 117.4L47.693 117.398L47.6 115.901ZM50.24 115.737L50.5012 114.26L50.3253 114.229L50.147 114.24L50.24 115.737ZM52.88 116.204L52.6188 117.681L52.879 117.727L53.1393 117.682L52.88 116.204ZM55.52 115.741L55.6608 114.247L55.4596 114.228L55.2606 114.263L55.52 115.741ZM58.16 115.99L58.0192 117.483L58.1299 117.493L58.2409 117.487L58.16 115.99ZM60.8 115.847L61.0126 114.362L60.8665 114.341L60.7191 114.349L60.8 115.847ZM63.44 116.225L63.2274 117.71L63.4714 117.745L63.7137 117.7L63.44 116.225ZM66.08 115.735L66.1582 114.237L65.9809 114.228L65.8063 114.26L66.08 115.735ZM68.72 115.873L68.6418 117.371L68.6647 117.372L68.6878 117.373L68.72 115.873ZM71.36 115.93L71.3278 117.429L71.3564 117.43L71.3849 117.429L71.36 115.93ZM74 115.886L74.185 114.397L74.0804 114.384L73.975 114.386L74 115.886ZM76.64 116.214L76.455 117.702L76.6155 117.722L76.7765 117.708L76.64 116.214ZM79.28 115.973L79.2685 114.473L79.2059 114.473L79.1435 114.479L79.28 115.973ZM81.92 115.952L82.0888 114.462L81.9989 114.452L81.9085 114.452L81.92 115.952ZM84.56 116.251L84.3912 117.742L84.5876 117.764L84.783 117.735L84.56 116.251ZM87.2 115.854L87.2734 114.356L87.1245 114.349L86.977 114.371L87.2 115.854ZM89.84 115.984L89.9255 114.486L89.9134 114.486L89.84 115.984ZM92.48 116.135L92.3945 117.632L92.4978 117.638L92.6008 117.63L92.48 116.135ZM95.12 115.921L95.1099 114.421L95.0544 114.422L94.9992 114.426L95.12 115.921ZM97.76 115.903L97.9616 114.417L97.8562 114.403L97.7499 114.403L97.76 115.903ZM100.4 116.261L100.198 117.748L100.434 117.78L100.667 117.737L100.4 116.261ZM103.04 115.784L103.284 114.304L103.028 114.262L102.773 114.308L103.04 115.784ZM105.68 116.219L105.436 117.699L105.576 117.722L105.719 117.718L105.68 116.219ZM108.32 116.151L108.359 117.65L108.453 117.648L108.546 117.634L108.32 116.151ZM110.96 115.748L111.313 114.29L111.026 114.221L110.734 114.265L110.96 115.748ZM8 116V117.5H8.1V116V114.5H8V116ZM8.1 116L8.16451 117.499L10.7045 117.389L10.64 115.891L10.5755 114.392L8.03549 114.501L8.1 116ZM10.64 115.891L10.483 117.382L13.123 117.66L13.28 116.169L13.437 114.677L10.797 114.399L10.64 115.891ZM13.28 116.169L13.425 117.662L16.065 117.405L15.92 115.912L15.775 114.419L13.135 114.676L13.28 116.169ZM15.92 115.912L15.9804 117.411L18.6204 117.305L18.56 115.806L18.4996 114.307L15.8596 114.413L15.92 115.912ZM18.56 115.806L18.4437 117.301L21.0837 117.507L21.2 116.011L21.3163 114.516L18.6763 114.31L18.56 115.806ZM21.2 116.011L21.1948 117.511L23.8348 117.52L23.84 116.02L23.8452 114.52L21.2052 114.511L21.2 116.011ZM23.84 116.02L23.9474 117.516L26.5874 117.327L26.48 115.831L26.3726 114.334L23.7326 114.524L23.84 116.02ZM26.48 115.831L26.4377 117.33L29.0777 117.404L29.12 115.905L29.1623 114.406L26.5223 114.331L26.48 115.831ZM29.12 115.905L28.9437 117.395L31.5837 117.707L31.76 116.217L31.9363 114.728L29.2963 114.415L29.12 115.905ZM31.76 116.217L32.0032 117.698L34.6432 117.264L34.4 115.784L34.1568 114.303L31.5168 114.737L31.76 116.217ZM34.4 115.784L34.3207 117.282L36.9607 117.421L37.04 115.923L37.1193 114.426L34.4793 114.286L34.4 115.784ZM37.04 115.923L37.1379 117.42L39.7779 117.248L39.68 115.751L39.5821 114.254L36.9421 114.427L37.04 115.923ZM39.68 115.751L39.4983 117.24L42.1383 117.562L42.32 116.073L42.5017 114.584L39.8617 114.262L39.68 115.751ZM42.32 116.073L42.3692 117.572L45.0092 117.486L44.96 115.986L44.9108 114.487L42.2708 114.574L42.32 116.073ZM44.96 115.986L45.0083 117.486L47.6483 117.401L47.6 115.901L47.5517 114.402L44.9117 114.487L44.96 115.986ZM47.6 115.901L47.693 117.398L50.333 117.234L50.24 115.737L50.147 114.24L47.507 114.404L47.6 115.901ZM50.24 115.737L49.9788 117.214L52.6188 117.681L52.88 116.204L53.1412 114.727L50.5012 114.26L50.24 115.737ZM52.88 116.204L53.1393 117.682L55.7793 117.218L55.52 115.741L55.2606 114.263L52.6207 114.727L52.88 116.204ZM55.52 115.741L55.3792 117.234L58.0192 117.483L58.16 115.99L58.3008 114.496L55.6608 114.247L55.52 115.741ZM58.16 115.99L58.2409 117.487L60.8809 117.345L60.8 115.847L60.7191 114.349L58.0791 114.492L58.16 115.99ZM60.8 115.847L60.5874 117.332L63.2274 117.71L63.44 116.225L63.6526 114.74L61.0126 114.362L60.8 115.847ZM63.44 116.225L63.7137 117.7L66.3537 117.21L66.08 115.735L65.8063 114.26L63.1663 114.75L63.44 116.225ZM66.08 115.735L66.0018 117.233L68.6418 117.371L68.72 115.873L68.7982 114.375L66.1582 114.237L66.08 115.735ZM68.72 115.873L68.6878 117.373L71.3278 117.429L71.36 115.93L71.3922 114.43L68.7522 114.373L68.72 115.873ZM71.36 115.93L71.3849 117.429L74.0249 117.386L74 115.886L73.975 114.386L71.335 114.43L71.36 115.93ZM74 115.886L73.815 117.374L76.455 117.702L76.64 116.214L76.825 114.725L74.185 114.397L74 115.886ZM76.64 116.214L76.7765 117.708L79.4165 117.466L79.28 115.973L79.1435 114.479L76.5035 114.72L76.64 116.214ZM79.28 115.973L79.2915 117.473L81.9315 117.452L81.92 115.952L81.9085 114.452L79.2685 114.473L79.28 115.973ZM81.92 115.952L81.7512 117.443L84.3912 117.742L84.56 116.251L84.7288 114.761L82.0888 114.462L81.92 115.952ZM84.56 116.251L84.783 117.735L87.423 117.338L87.2 115.854L86.977 114.371L84.337 114.768L84.56 116.251ZM87.2 115.854L87.1266 117.353L89.7666 117.482L89.84 115.984L89.9134 114.486L87.2734 114.356L87.2 115.854ZM89.84 115.984L89.7545 117.481L92.3945 117.632L92.48 116.135L92.5655 114.637L89.9255 114.486L89.84 115.984ZM92.48 116.135L92.6008 117.63L95.2408 117.416L95.12 115.921L94.9992 114.426L92.3592 114.639L92.48 116.135ZM95.12 115.921L95.1301 117.421L97.7701 117.403L97.76 115.903L97.7499 114.403L95.1099 114.421L95.12 115.921ZM97.76 115.903L97.5584 117.39L100.198 117.748L100.4 116.261L100.602 114.775L97.9616 114.417L97.76 115.903ZM100.4 116.261L100.667 117.737L103.307 117.26L103.04 115.784L102.773 114.308L100.133 114.785L100.4 116.261ZM103.04 115.784L102.796 117.264L105.436 117.699L105.68 116.219L105.924 114.738L103.284 114.304L103.04 115.784ZM105.68 116.219L105.719 117.718L108.359 117.65L108.32 116.151L108.281 114.651L105.641 114.719L105.68 116.219ZM108.32 116.151L108.546 117.634L111.186 117.231L110.96 115.748L110.734 114.265L108.094 114.668L108.32 116.151ZM110.96 115.748L110.607 117.206L111.647 117.458L112 116L112.353 114.542L111.313 114.29L110.96 115.748Z" fill="black"/>
<path d="M59.8452 16.0997L61.3439 16.0395L61.343 16.016L61.3413 15.9926L59.8452 16.0997ZM59.9474 18.64L61.4391 18.797L61.4505 18.6886L61.4461 18.5797L59.9474 18.64ZM59.6694 21.28L58.1777 21.123L58.162 21.272L58.1761 21.4211L59.6694 21.28ZM59.9191 23.9218L58.4257 24.0629L58.4271 24.0771L58.4287 24.0912L59.9191 23.9218ZM60.2103 26.4852L58.7199 26.6545L58.7513 26.9311L58.8799 27.178L60.2103 26.4852ZM61.4033 28.7762L60.0729 29.469L60.1895 29.6929L60.3729 29.8662L61.4033 28.7762ZM63.3201 30.5881L62.2897 31.6782L62.4225 31.8037L62.5815 31.8937L63.3201 30.5881ZM65.6153 31.8866L66.3739 30.5925L66.3639 30.5867L66.3539 30.581L65.6153 31.8866ZM67.8883 33.219L68.75 31.9912L68.6998 31.9559L68.6468 31.9249L67.8883 33.219ZM70.0612 34.7441L69.1995 35.9719L69.3315 36.0645L69.4801 36.127L70.0612 34.7441ZM72.5291 35.7812L73.558 34.6897L73.3605 34.5035L73.1102 34.3983L72.5291 35.7812ZM74.4685 37.6092L75.5953 36.6191L75.5487 36.5661L75.4973 36.5177L74.4685 37.6092ZM76.236 39.6207L77.6867 39.2395L77.5966 38.8968L77.3628 38.6306L76.236 39.6207ZM76.9072 42.1749L78.4056 42.1048L78.3982 41.9467L78.358 41.7936L76.9072 42.1749ZM77.0306 44.8134L78.529 44.7443L78.529 44.7434L77.0306 44.8134ZM77.1525 47.452L75.654 47.5212L75.6551 47.5435L75.6568 47.5658L77.1525 47.452ZM77.3532 50.0895L78.8338 50.3301L78.8624 50.1537L78.8489 49.9756L77.3532 50.0895ZM76.9231 52.7357L75.4426 52.4951L75.4002 52.756L75.4495 53.0156L76.9231 52.7357ZM77.4233 55.369L78.9185 55.489L78.9347 55.2876L78.897 55.0891L77.4233 55.369ZM77.2112 58.0122L75.716 57.8922L75.7071 58.0031L75.7147 58.114L77.2112 58.0122ZM77.3906 60.65L78.8783 60.8418L78.8972 60.6954L78.8872 60.5482L77.3906 60.65ZM77.0495 63.295L75.5618 63.1031L75.5303 63.3475L75.5786 63.5892L77.0495 63.295ZM77.5762 65.9279L79.0751 65.9852L79.0819 65.8078L79.0471 65.6336L77.5762 65.9279ZM77.4751 68.5696L75.9762 68.5122L75.9753 68.5352L75.9752 68.5582L77.4751 68.5696ZM77.4552 71.2101L75.9552 71.1988L75.9509 71.7743L76.3326 72.205L77.4552 71.2101ZM78.4025 72.2789L77.28 73.2739L77.6558 73.6979L78.2181 73.7676L78.4025 72.2789ZM81.046 72.6064L80.8616 74.095L81.0277 74.1156L81.1943 74.099L81.046 72.6064ZM83.6853 72.3441L83.6324 70.845L83.5846 70.8467L83.5369 70.8514L83.6853 72.3441ZM86.3254 72.251L86.3782 73.75L86.7334 73.7375L87.0452 73.5669L86.3254 72.251ZM88.5669 71.0247L89.2868 72.3407L90.1797 71.8522L90.0557 70.842L88.5669 71.0247ZM88.2378 68.343L86.7383 68.3058L86.7355 68.4161L86.749 68.5257L88.2378 68.343ZM88.3036 65.6937L87.2807 64.5966L86.8197 65.0264L86.804 65.6565L88.3036 65.6937ZM90.0505 64.0651L89.8604 62.5772L89.3811 62.6385L89.0277 62.968L90.0505 64.0651ZM92.6537 63.7325L92.7741 62.2374L92.6184 62.2248L92.4636 62.2446L92.6537 63.7325ZM95.2915 63.945L95.6346 62.4847L95.5246 62.4589L95.412 62.4498L95.2915 63.945ZM97.8909 64.5556L97.5479 66.0159L97.8497 66.0868L98.155 66.0322L97.8909 64.5556ZM100.522 64.0851L100.786 65.5616L100.996 65.5241L101.188 65.4294L100.522 64.0851ZM102.779 62.968L103.445 64.3123L104.349 63.8649L104.275 62.859L102.779 62.968ZM102.583 60.2776L104.079 60.1687L104.061 59.9189L103.963 59.6886L102.583 60.2776ZM101.538 57.8297L100.151 58.4011L100.155 58.41L100.158 58.4188L101.538 57.8297ZM100.547 55.4243L101.934 54.853L101.922 54.8245L101.909 54.7965L100.547 55.4243ZM99.4353 53.0118L100.798 52.384L100.621 52.0008L100.27 51.7658L99.4353 53.0118ZM97.2386 51.5393L98.0738 50.2933L97.6166 49.9869L97.0697 50.0489L97.2386 51.5393ZM94.7277 51.8239L94.5587 50.3335L94.1376 50.3812L93.8038 50.6422L94.7277 51.8239ZM92.6492 53.4489L91.7253 52.2672L91.6257 52.3451L91.5405 52.4385L92.6492 53.4489ZM90.8632 55.4084L89.7546 54.3979L89.6225 54.5428L89.5321 54.7168L90.8632 55.4084ZM89.6272 57.7876L88.2961 57.0961L88.1146 57.4454L88.1281 57.8388L89.6272 57.7876ZM89.7182 60.4549L91.2178 60.4868L91.2187 60.4453L91.2173 60.4038L89.7182 60.4549ZM89.6622 63.0933L91.1615 63.1393L91.1617 63.1322L91.1619 63.1251L89.6622 63.0933ZM59.7553 27.0116L60.5797 28.2648L60.5895 28.2583L60.5992 28.2517L59.7553 27.0116ZM57.6345 28.4069L56.8101 27.1537L56.7696 27.1804L56.7309 27.2095L57.6345 28.4069ZM55.5343 29.9918L56.3397 31.2572L56.3901 31.2251L56.4378 31.1891L55.5343 29.9918ZM53.3092 31.408L52.5038 30.1426L52.4339 30.187L52.3694 30.2389L53.3092 31.408ZM51.2382 33.0726L51.9438 34.3963L52.0681 34.33L52.178 34.2417L51.2382 33.0726ZM48.8978 34.32L48.1923 32.9963L48.029 33.0834L47.8918 33.2075L48.8978 34.32ZM46.9371 36.093L45.9311 34.9804L45.9179 34.9923L45.905 35.0046L46.9371 36.093ZM45.0289 37.9024L43.9968 36.814L43.9316 36.8758L43.8742 36.945L45.0289 37.9024ZM43.3283 39.9532L42.1736 38.9958L42.0199 39.1812L41.9319 39.4054L43.3283 39.9532ZM42.3541 42.4365L40.9577 41.8886L40.8959 42.0463L40.8707 42.2138L42.3541 42.4365ZM41.9608 45.0567L43.422 45.3953L43.4354 45.3378L43.4441 45.2794L41.9608 45.0567ZM41.3632 47.6354L39.9019 47.2968L39.8648 47.4571L39.8632 47.6216L41.3632 47.6354ZM41.3388 50.2802L39.8389 50.2664L39.8383 50.3259L39.8425 50.3852L41.3388 50.2802ZM41.5238 52.916L43.0228 52.8607L43.0218 52.8358L43.0201 52.811L41.5238 52.916ZM41.6209 55.5507L40.1218 55.6059L40.1225 55.6199L41.6209 55.5507ZM41.7427 58.1899L43.2426 58.2057L43.2431 58.1632L43.2411 58.1207L41.7427 58.1899ZM41.7143 60.8879L40.2144 60.8721L40.2141 60.8974L40.2147 60.9228L41.7143 60.8879ZM41.7687 63.2244L40.2691 63.2593L40.3154 65.2499L42.2159 64.6562L41.7687 63.2244ZM44.3457 62.4195L44.7929 63.8512L45.0922 63.7577L45.329 63.5522L44.3457 62.4195ZM46.3353 60.6923L47.3186 61.8251L47.4236 61.7339L47.5101 61.6249L46.3353 60.6923ZM47.9745 58.6272L49.1494 59.5598L49.228 59.4607L49.289 59.3498L47.9745 58.6272ZM49.2462 56.3136L48.0438 55.4169L47.9817 55.5001L47.9317 55.5911L49.2462 56.3136ZM50.8346 54.1836L52.0371 55.0804L52.1229 54.9653L52.1854 54.836L50.8346 54.1836ZM51.9907 51.7897L51.2308 50.4965L50.8381 50.7272L50.64 51.1374L51.9907 51.7897ZM54.2594 50.4566L53.7601 49.0422L53.624 49.0902L53.4995 49.1634L54.2594 50.4566ZM56.7311 49.584L57.2304 50.9985L57.5231 50.8951L57.7507 50.6842L56.7311 49.584ZM58.676 47.7815L58.9712 46.3108L58.219 46.1598L57.6564 46.6813L58.676 47.7815ZM60.9846 48.2448L61.9178 47.0705L61.6345 46.8453L61.2797 46.7741L60.9846 48.2448ZM63.0468 49.8836L62.1136 51.058L62.316 51.2188L62.5605 51.3026L63.0468 49.8836ZM65.5387 50.7376L66.5383 49.6192L66.312 49.417L66.025 49.3186L65.5387 50.7376ZM67.4201 52.4192L68.5998 51.4927L68.5182 51.3888L68.4197 51.3008L67.4201 52.4192ZM69.0429 54.4854L70.3209 53.7001L70.2758 53.6267L70.2226 53.5589L69.0429 54.4854ZM70.4241 56.7331L71.7385 56.0104L71.7211 55.9787L71.7021 55.9478L70.4241 56.7331ZM71.703 59.0588L70.3886 59.7816L70.5125 60.0069L70.7043 60.178L71.703 59.0588ZM73.6852 60.8275L72.6866 61.9467L72.7539 62.0068L72.8279 62.0583L73.6852 60.8275ZM75.8133 62.3099L76.7393 61.1298L76.7057 61.1035L76.6707 61.0791L75.8133 62.3099ZM77.3394 63.5075L76.4134 64.6875L77.9448 65.8893L78.7165 64.1022L77.3394 63.5075ZM59.838 43.1662H58.338V43.1901L58.3388 43.214L59.838 43.1662ZM59.8842 44.6129L61.3823 44.6871L61.3853 44.6261L61.3834 44.565L59.8842 44.6129ZM59.8075 46.1595L58.3094 46.0853L58.3071 46.1314L58.3077 46.1775L59.8075 46.1595ZM59.8168 46.9328L58.3169 46.9508L58.3348 48.4328H59.8168V46.9328ZM96.1197 47.355L97.5989 47.6039L97.6197 47.4803V47.355H96.1197ZM95.898 48.6728L94.4188 48.4239L94.3594 48.7768L94.4658 49.1185L95.898 48.6728ZM96.3392 50.0905L97.6945 50.7335L97.9456 50.2042L97.7715 49.6448L96.3392 50.0905ZM96.0029 50.7994L94.6477 50.1565L93.6311 52.2994H96.0029V50.7994ZM105.321 115.594L103.821 115.58L103.821 115.581L105.321 115.594ZM105.344 113.054L103.845 113.005L103.845 113.022L103.844 113.04L105.344 113.054ZM105.431 110.415L106.93 110.464L106.933 110.364L106.923 110.264L105.431 110.415ZM105.164 107.772L103.688 107.502L103.65 107.711L103.672 107.923L105.164 107.772ZM105.647 105.136L107.122 105.407L107.163 105.183L107.136 104.958L105.647 105.136ZM105.329 102.493L103.832 102.412L103.824 102.542L103.84 102.672L105.329 102.493ZM105.474 99.8546L106.971 99.9365L106.973 99.9139L106.973 99.8913L105.474 99.8546ZM105.538 97.2151L107.038 97.2517L107.04 97.1599L107.031 97.0685L105.538 97.2151ZM105.279 94.5727L103.785 94.4295L103.772 94.5744L103.786 94.7193L105.279 94.5727ZM105.532 91.9348L107.025 92.0781L107.03 92.0233L107.031 91.9684L105.532 91.9348ZM105.591 89.2952L104.097 89.1596L104.092 89.2106L104.091 89.2617L105.591 89.2952ZM105.83 86.6572L107.324 86.7929L107.339 86.6291L107.318 86.4659L105.83 86.6572ZM105.49 84.0142L103.991 83.9834L103.988 84.0949L104.003 84.2055L105.49 84.0142ZM105.545 81.3745L104.049 81.2651L104.046 81.3044L104.045 81.3438L105.545 81.3745ZM105.738 78.7361L107.234 78.8456L107.235 78.8235L107.236 78.8013L105.738 78.7361ZM105.852 76.097L107.351 76.1622L107.353 76.1183L107.352 76.0745L105.852 76.097ZM105.813 73.4566L107.313 73.434L107.309 73.2139L107.243 73.0039L105.813 73.4566ZM105.056 71.0658L106.486 70.6132L106.415 70.3893L106.279 70.1978L105.056 71.0658ZM103.525 68.9078L102.068 69.2648L102.136 69.5426L102.301 69.7758L103.525 68.9078ZM102.896 66.3427L101.397 66.3979L101.403 66.5509L101.439 66.6996L102.896 66.3427ZM102.808 63.9625L104.307 63.9072L104.242 62.1189L102.492 62.4962L102.808 63.9625ZM23.6086 47.6625L25.1002 47.504L25.0644 47.1676L24.8877 46.879L23.6086 47.6625ZM23.878 50.1985L22.3864 50.3569L22.4205 50.6784L22.5841 50.9573L23.878 50.1985ZM25.1366 52.3445L23.8428 53.1034L23.9116 53.2208L24.0005 53.3239L25.1366 52.3445ZM26.8624 54.3464L25.7263 55.3258L25.7717 55.3784L25.8218 55.4267L26.8624 54.3464ZM28.7657 56.1797L30.1238 55.5429L30.006 55.2918L29.8063 55.0994L28.7657 56.1797ZM29.8529 58.4984L31.3529 58.5037L31.3541 58.1667L31.211 57.8616L29.8529 58.4984ZM29.8435 61.1544L28.3435 61.1491L28.3429 61.3084L28.3758 61.4643L29.8435 61.1544ZM30.3938 63.7606L31.8828 63.9423L31.913 63.6947L31.8614 63.4507L30.3938 63.7606ZM30.0688 66.4252L28.5798 66.2436L28.5554 66.4438L28.5847 66.6434L30.0688 66.4252ZM30.4541 69.0458L31.9433 68.8666L31.941 68.8471L31.9381 68.8276L30.4541 69.0458ZM30.7364 71.3916L29.2472 71.5709L29.3619 72.5238L30.2751 72.8189L30.7364 71.3916ZM33.2879 72.2162L32.8266 73.6435L32.9419 73.6808L33.0617 73.6991L33.2879 72.2162ZM35.898 72.6144L35.6718 74.0973L35.6945 74.1007L35.7174 74.1035L35.898 72.6144ZM38.5191 72.9323L38.3385 74.4214L38.3813 74.4266L38.4243 74.4293L38.5191 72.9323ZM41.1609 73.0997L42.6479 72.9021L42.4856 71.6806L41.2558 71.6027L41.1609 73.0997ZM41.4658 75.3943L42.9643 75.4609L42.9702 75.3283L42.9527 75.1967L41.4658 75.3943ZM41.3484 78.0343L39.8499 77.9677L39.8428 78.1278L39.8697 78.2858L41.3484 78.0343ZM41.7976 80.6743L43.2971 80.7139L43.3009 80.5672L43.2763 80.4227L41.7976 80.6743ZM41.7279 83.3143L43.2074 83.561L43.2246 83.4581L43.2274 83.3539L41.7279 83.3143ZM41.2876 85.9543L39.8081 85.7075L39.7767 85.8956L39.7934 86.0856L41.2876 85.9543ZM41.5197 88.5943L43.0195 88.5684L43.0186 88.5156L43.014 88.4629L41.5197 88.5943ZM41.5652 91.2343L43.0638 91.2994L43.0658 91.2539L43.065 91.2084L41.5652 91.2343ZM41.4505 93.8743L39.9519 93.8091L39.9463 93.9393L39.9631 94.0684L41.4505 93.8743ZM41.7951 96.5143L43.2912 96.6226L43.3022 96.4709L43.2825 96.3201L41.7951 96.5143ZM41.604 99.1543L40.1079 99.0459L40.1057 99.0761L40.1047 99.1064L41.604 99.1543ZM41.5197 101.794L40.0205 101.746L40.0191 101.791L40.0203 101.836L41.5197 101.794ZM41.5924 104.434L43.0919 104.476L43.093 104.435L43.0919 104.393L41.5924 104.434ZM41.5181 107.074L40.0187 107.032L40.0159 107.13L40.0258 107.227L41.5181 107.074ZM41.7876 109.714L43.2863 109.777L43.2908 109.669L43.2799 109.562L41.7876 109.714ZM41.6777 112.354L43.1738 112.462L43.1755 112.439L43.1764 112.417L41.6777 112.354ZM41.4879 114.994L39.9918 114.887L39.9829 115.011L39.9946 115.135L41.4879 114.994ZM42.1209 50.4834L42.0279 51.9805L42.044 51.9815L42.0602 51.9822L42.1209 50.4834ZM44.6714 50.5868L44.6106 52.0855L44.7411 52.0908L44.8706 52.0735L44.6714 50.5868ZM47.2954 50.2351L47.4469 48.7428L47.2712 48.725L47.0962 48.7484L47.2954 50.2351ZM49.9137 50.5009L50.3079 49.0536L50.1884 49.0211L50.0652 49.0086L49.9137 50.5009ZM52.3627 51.1681L51.9684 52.6153L53.1257 52.9306L53.6878 51.871L52.3627 51.1681ZM67.3887 50.4772L67.5239 48.9833L67.4565 48.9772H67.3887V50.4772ZM69.9287 50.7071L69.7935 52.201L69.8664 52.2076L69.9395 52.207L69.9287 50.7071ZM72.5687 50.6882L72.5795 52.1881L72.6443 52.1877L72.7089 52.1816L72.5687 50.6882ZM75.2087 50.4404L75.2817 48.9421L75.1749 48.9369L75.0686 48.9469L75.2087 50.4404ZM77.6549 50.5595L77.582 52.0577L79.1549 52.1342V50.5595H77.6549ZM29.6113 64.0071L29.5584 65.5062L29.5634 65.5063L29.6113 64.0071ZM27.0713 63.9174L27.1242 62.4183L27.0123 62.4144L26.901 62.4271L27.0713 63.9174ZM24.4313 64.219L24.4594 65.7188L24.5307 65.7174L24.6015 65.7093L24.4313 64.219ZM21.7913 64.2686L21.7673 65.7684L21.7934 65.7688L21.8194 65.7683L21.7913 64.2686ZM19.1402 64.2263L18.1032 65.3101L18.5282 65.7167L19.1162 65.7261L19.1402 64.2263ZM17.4057 62.5668L15.9071 62.6337L15.934 63.2348L16.3687 63.6507L17.4057 62.5668ZM17.2912 60.0036L15.7939 59.9136L15.7892 59.992L15.7927 60.0705L17.2912 60.0036ZM17.4498 57.3642L16.2124 56.5163L15.9775 56.8592L15.9525 57.2742L17.4498 57.3642ZM18.9518 55.172L17.9191 54.0842L17.8041 54.1933L17.7144 54.3242L18.9518 55.172ZM20.8455 53.3743L19.8733 52.232L19.8422 52.2584L19.8127 52.2864L20.8455 53.3743ZM22.8448 51.6726L22.0823 50.3809L21.971 50.4466L21.8726 50.5303L22.8448 51.6726ZM41.5718 85.826L42.9981 86.2903L43.0855 86.0218L43.0693 85.7399L41.5718 85.826ZM41.424 83.2546L39.9624 82.9174L39.9141 83.1265L39.9264 83.3407L41.424 83.2546ZM42.0223 80.6611L40.6256 80.1139L40.5854 80.2165L40.5606 80.324L42.0223 80.6611ZM42.9843 78.206L41.6436 77.5332L41.6128 77.5947L41.5876 77.6588L42.9843 78.206ZM44.1694 75.8447L43.1355 74.758L42.9461 74.9382L42.8288 75.1718L44.1694 75.8447ZM46.0847 74.0224L47.1187 75.1091L47.156 75.0736L47.1909 75.0355L46.0847 74.0224ZM47.8838 72.0582L47.1389 70.7563L46.9358 70.8725L46.7777 71.0451L47.8838 72.0582ZM50.1945 70.7363L50.9394 72.0383L50.9842 72.0126L51.0272 71.9839L50.1945 70.7363ZM52.3986 69.2651L53.2314 70.5127L53.3098 70.4603L53.3811 70.3986L52.3986 69.2651ZM54.4029 67.5278L55.3854 68.6612L55.5138 68.55L55.614 68.4128L54.4029 67.5278ZM55.9544 65.4048L57.1654 66.2899L57.3425 66.0476L57.4127 65.7558L55.9544 65.4048ZM56.57 62.847L55.5365 61.7599L55.2153 62.0652L55.1117 62.496L56.57 62.847ZM58.509 61.0035L58.6368 59.509L57.9645 59.4515L57.4755 59.9164L58.509 61.0035ZM61.0605 61.2217L62.1046 60.1447L61.7208 59.7727L61.1883 59.7271L61.0605 61.2217ZM62.8444 62.9511L64.259 62.4522L64.1417 62.1196L63.8885 61.8742L62.8444 62.9511ZM63.714 65.4169L62.2994 65.9157L62.3766 66.1346L62.5163 66.32L63.714 65.4169ZM65.272 67.4829L64.0743 68.386L64.2101 68.5661L64.3929 68.6983L65.272 67.4829ZM67.4144 69.0325L66.5353 70.2479L66.573 70.2751L66.6123 70.3L67.4144 69.0325ZM69.6489 70.4464L70.7063 69.3824L70.5898 69.2666L70.4509 69.1788L69.6489 70.4464ZM71.5409 72.3267L70.4836 73.3907L70.5399 73.4466L70.6018 73.4964L71.5409 72.3267ZM73.5868 73.9693L74.6818 72.9441L74.6089 72.8664L74.5259 72.7997L73.5868 73.9693ZM75.3755 75.8799L76.6839 75.1463L76.5949 74.9876L76.4705 74.8547L75.3755 75.8799ZM76.6487 78.1504L78.0953 77.7537L78.0467 77.5768L77.957 77.4168L76.6487 78.1504ZM77.3325 80.6441L78.7851 80.2699L78.7822 80.2587L78.7791 80.2475L77.3325 80.6441ZM77.9985 83.229L79.485 83.4293L79.5242 83.1387L79.451 82.8547L77.9985 83.229ZM77.6424 85.8715L79.1015 86.2195L79.1189 86.1463L79.129 86.0718L77.6424 85.8715ZM41.5408 63.4659H40.0408V63.5351L40.0472 63.604L41.5408 63.4659ZM41.7757 66.0059L43.2602 66.2208L43.2857 66.0448L43.2693 65.8678L41.7757 66.0059ZM41.3934 68.6459L39.9089 68.4309L39.8806 68.6263L39.9038 68.8223L41.3934 68.6459ZM41.7061 71.2859L43.1735 71.5968L43.2247 71.3549L43.1957 71.1095L41.7061 71.2859ZM14.4951 115.272L12.9965 115.207L12.9949 115.243L12.9951 115.28L14.4951 115.272ZM14.6043 112.731L16.1029 112.795L16.109 112.654L16.0885 112.514L14.6043 112.731ZM14.2177 110.093L12.7193 110.025L12.7127 110.168L12.7336 110.311L14.2177 110.093ZM14.3375 107.452L15.836 107.52L15.8397 107.439L15.8346 107.358L14.3375 107.452ZM14.1718 104.813L12.6718 104.814L12.6718 104.861L12.6747 104.907L14.1718 104.813ZM14.1699 102.173L12.6831 101.974L12.6698 102.074L12.6699 102.174L14.1699 102.173ZM14.5234 99.5313L16.0102 99.7303L16.0261 99.6113L16.0229 99.4913L14.5234 99.5313ZM14.4529 96.8916L15.9524 96.8516L15.952 96.8398L14.4529 96.8916ZM14.3617 94.2521L12.8625 94.3013L12.8626 94.3039L14.3617 94.2521ZM14.2751 91.6125L12.7785 91.5114L12.7734 91.5865L12.7759 91.6617L14.2751 91.6125ZM14.4535 88.9715L15.9501 89.0726L15.958 88.9548L15.9475 88.8372L14.4535 88.9715ZM14.2163 86.3327L12.7219 86.2031L12.7104 86.3351L12.7223 86.4671L14.2163 86.3327ZM14.4454 83.6915L15.9398 83.8212L15.9465 83.7447L15.9453 83.668L14.4454 83.6915ZM14.404 81.0517L15.9039 81.0282L15.9025 80.9434L15.8917 80.8594L14.404 81.0517ZM14.063 78.4134L12.5631 78.429L12.564 78.5177L12.5754 78.6057L14.063 78.4134ZM14.0356 75.7735L12.543 75.6246L12.5349 75.7067L12.5357 75.7891L14.0356 75.7735ZM14.2992 73.1321L12.829 72.8346L12.814 72.9084L12.8066 72.9832L14.2992 73.1321ZM14.801 70.6521L13.5259 69.862L13.3841 70.0908L13.3308 70.3546L14.801 70.6521ZM16.1919 68.4074L17.467 69.1974L17.5898 68.9992L17.6467 68.773L16.1919 68.4074ZM16.8354 65.847L18.2901 66.2126L18.3047 66.1545L18.3147 66.0954L16.8354 65.847ZM17.1411 64.0261L18.6204 64.2745L18.8503 62.9053L17.5029 62.5704L17.1411 64.0261ZM77.3992 72.8102H75.8992V72.8494L75.9013 72.8886L77.3992 72.8102ZM77.5323 75.3502L79.0319 75.3825L79.0331 75.3271L79.0302 75.2717L77.5323 75.3502ZM77.4753 77.9902L75.9756 77.9578L75.9748 77.9978L75.9761 78.0377L77.4753 77.9902ZM77.559 80.6302L79.0406 80.8647L79.0628 80.7245L79.0583 80.5826L77.559 80.6302ZM77.141 83.2702L75.6595 83.0356L75.6264 83.244L75.6523 83.4535L77.141 83.2702ZM77.4662 85.9102L78.9555 86.0892L78.9772 85.908L78.9549 85.7268L77.4662 85.9102ZM77.1488 88.5502L75.6595 88.3711L75.632 88.6003L75.6746 88.8271L77.1488 88.5502ZM77.6448 91.1902L79.1447 91.2024L79.1459 91.0565L79.119 90.9132L77.6448 91.1902ZM77.6233 93.8302L79.1217 93.8996L79.123 93.871L79.1232 93.8424L77.6233 93.8302ZM77.501 96.4702L76.0026 96.4008L76.0007 96.4426L76.0011 96.4845L77.501 96.4702ZM77.5263 99.1102L79.0123 99.3145L79.0273 99.2057L79.0263 99.0958L77.5263 99.1102ZM77.1633 101.75L75.6773 101.546L75.6593 101.676L75.6644 101.808L77.1633 101.75ZM77.2652 104.39L78.7652 104.384L78.7651 104.358L78.7641 104.332L77.2652 104.39ZM77.2753 107.03L75.7753 107.036L75.7754 107.057L75.7761 107.078L77.2753 107.03ZM77.3592 109.67L75.86 109.718L75.8618 109.774L75.8677 109.83L77.3592 109.67ZM77.6416 112.31L79.1404 112.369L79.1447 112.26L79.1331 112.151L77.6416 112.31ZM77.5374 114.95L79.0009 115.279L79.0309 115.146L79.0363 115.009L77.5374 114.95ZM53.3596 115.465L51.8598 115.441L51.8597 115.449L51.8597 115.458L53.3596 115.465ZM53.3998 112.925L51.9049 112.802L51.9008 112.851L51.9 112.901L53.3998 112.925ZM53.6172 110.285L55.1122 110.409L55.125 110.253L55.1055 110.098L53.6172 110.285ZM53.2853 107.644L51.7868 107.577L51.7811 107.705L51.797 107.831L53.2853 107.644ZM53.4033 105.005L51.9117 104.847L51.9068 104.893L51.9048 104.938L53.4033 105.005ZM53.6801 102.401L52.3428 101.721L52.2176 101.968L52.1885 102.242L53.6801 102.401ZM54.8392 100.119L53.9693 98.8974L53.669 99.1112L53.5019 99.4399L54.8392 100.119ZM56.9299 98.6312L56.5937 97.1693L56.303 97.2362L56.06 97.4092L56.9299 98.6312ZM59.4379 98.0544L59.6757 96.5734L59.3868 96.527L59.1017 96.5926L59.4379 98.0544ZM61.9618 98.4598L62.6716 97.1383L62.449 97.0188L62.1996 96.9787L61.9618 98.4598ZM64.1848 99.6538L65.3173 98.6702L65.1369 98.4625L64.8946 98.3324L64.1848 99.6538ZM65.8871 101.614L67.3837 101.513L67.3498 101.01L67.0196 100.63L65.8871 101.614ZM66.0644 104.241L64.5678 104.342L64.5728 104.415L64.5847 104.487L66.0644 104.241ZM66.5009 106.869L68 106.922L68.0052 106.771L67.9806 106.623L66.5009 106.869ZM66.4085 109.513L64.9094 109.46L64.9088 109.477L64.9086 109.495L66.4085 109.513ZM66.3768 112.153L67.874 112.245L67.8763 112.208L67.8767 112.171L66.3768 112.153ZM66.2154 114.793L64.7182 114.701L64.7092 114.848L64.729 114.994L66.2154 114.793ZM53.7501 105.328L52.6363 106.333L53.0113 106.749L53.567 106.817L53.7501 105.328ZM56.3042 105.642L56.1211 107.131L56.2193 107.143L56.3182 107.142L56.3042 105.642ZM58.9507 105.618L60.3381 105.048L59.9521 104.108L58.9367 104.118L58.9507 105.618ZM59.9136 107.961L61.4078 108.092L61.4398 107.728L61.301 107.39L59.9136 107.961ZM59.6787 110.636L58.1845 110.505L58.1815 110.54L58.18 110.574L59.6787 110.636ZM59.5691 113.276L58.0704 113.214L58.0672 113.29L58.0718 113.366L59.5691 113.276ZM59.7062 115.565L58.2089 115.655L58.2934 117.065H59.7062V115.565ZM59.9379 105.571L60.0163 107.069L60.062 107.067L60.1075 107.061L59.9379 105.571ZM62.2924 105.303L62.1617 103.809L62.1422 103.81L62.1228 103.813L62.2924 105.303ZM64.7499 105.088L64.8126 103.589L64.7158 103.585L64.6192 103.594L64.7499 105.088ZM65.987 105.14L67.4849 105.061L67.4136 103.698L66.0497 103.641L65.987 105.14ZM65.3789 78.1949L66.8522 77.9133L66.6621 76.9191L65.6692 76.7233L65.3789 78.1949ZM65.2807 78.1755L64.0599 79.047L64.406 79.5319L64.9904 79.6472L65.2807 78.1755ZM63.8131 76.1195L65.034 75.248L64.8634 75.009L64.6153 74.852L63.8131 76.1195ZM61.6142 74.7279L62.4163 73.4604L62.0585 73.2339L61.6351 73.228L61.6142 74.7279ZM59.0395 74.692L59.0604 73.1922L58.862 73.1894L58.6698 73.2383L59.0395 74.692ZM56.5589 75.3228L56.1893 73.869L55.772 73.9751L55.4745 74.2864L56.5589 75.3228ZM54.7564 77.2089L53.672 76.1725L53.4483 76.4067L53.341 76.7123L54.7564 77.2089ZM53.8879 79.6843L52.4725 79.1877L52.3881 79.4284L52.3879 79.6834L53.8879 79.6843ZM53.8863 82.3617L52.3863 82.3609L52.3861 82.7478L52.5731 83.0866L53.8863 82.3617ZM55.1987 84.7396L53.8855 85.4644L54.118 85.8858L54.5524 86.0932L55.1987 84.7396ZM57.5901 85.8814L56.9438 87.235L57.0901 87.3048L57.2478 87.3418L57.5901 85.8814ZM60.136 86.4781L59.7937 87.9385L60.2861 88.0539L60.7478 87.8476L60.136 86.4781ZM62.5414 85.4035L63.1533 86.773L63.3307 86.6938L63.4821 86.5719L62.5414 85.4035ZM64.5567 83.781L65.4974 84.9494L65.7194 84.7706L65.8604 84.5229L64.5567 83.781ZM65.8668 81.4788L67.1705 82.2207L67.4222 81.7784L67.3528 81.2742L65.8668 81.4788ZM65.5066 78.8632L66.9926 78.6586L66.9873 78.6199L66.9799 78.5816L65.5066 78.8632ZM59.838 16L58.3419 16.1071L58.349 16.2069L59.8452 16.0997L61.3413 15.9926L61.3342 15.8929L59.838 16ZM59.8452 16.0997L58.3464 16.16L58.4486 18.7003L59.9474 18.64L61.4461 18.5797L61.3439 16.0395L59.8452 16.0997ZM59.9474 18.64L58.4556 18.483L58.1777 21.123L59.6694 21.28L61.1612 21.437L61.4391 18.797L59.9474 18.64ZM59.6694 21.28L58.1761 21.4211L58.4257 24.0629L59.9191 23.9218L61.4124 23.7807L61.1628 21.1389L59.6694 21.28ZM59.9191 23.9218L58.4287 24.0912L58.7199 26.6545L60.2103 26.4852L61.7007 26.3159L61.4095 23.7525L59.9191 23.9218ZM60.2103 26.4852L58.8799 27.178L60.0729 29.469L61.4033 28.7762L62.7337 28.0834L61.5407 25.7924L60.2103 26.4852ZM61.4033 28.7762L60.3729 29.8662L62.2897 31.6782L63.3201 30.5881L64.3506 29.4981L62.4337 27.6861L61.4033 28.7762ZM63.3201 30.5881L62.5815 31.8937L64.8767 33.1921L65.6153 31.8866L66.3539 30.581L64.0588 29.2826L63.3201 30.5881ZM65.6153 31.8866L64.8567 33.1807L67.1297 34.513L67.8883 33.219L68.6468 31.9249L66.3739 30.5925L65.6153 31.8866ZM67.8883 33.219L67.0265 34.4467L69.1995 35.9719L70.0612 34.7441L70.923 33.5163L68.75 31.9912L67.8883 33.219ZM70.0612 34.7441L69.4801 36.127L71.948 37.164L72.5291 35.7812L73.1102 34.3983L70.6423 33.3612L70.0612 34.7441ZM72.5291 35.7812L71.5002 36.8727L73.4396 38.7008L74.4685 37.6092L75.4973 36.5177L73.558 34.6897L72.5291 35.7812ZM74.4685 37.6092L73.3417 38.5993L75.1092 40.6109L76.236 39.6207L77.3628 38.6306L75.5953 36.6191L74.4685 37.6092ZM76.236 39.6207L74.7852 40.002L75.4565 42.5562L76.9072 42.1749L78.358 41.7936L77.6867 39.2395L76.236 39.6207ZM76.9072 42.1749L75.4089 42.245L75.5323 44.8835L77.0306 44.8134L78.529 44.7434L78.4056 42.1048L76.9072 42.1749ZM77.0306 44.8134L75.5322 44.8826L75.654 47.5212L77.1525 47.452L78.6509 47.3828L78.529 44.7443L77.0306 44.8134ZM77.1525 47.452L75.6568 47.5658L75.8575 50.2033L77.3532 50.0895L78.8489 49.9756L78.6481 47.3382L77.1525 47.452ZM77.3532 50.0895L75.8726 49.8488L75.4426 52.4951L76.9231 52.7357L78.4037 52.9763L78.8338 50.3301L77.3532 50.0895ZM76.9231 52.7357L75.4495 53.0156L75.9497 55.6489L77.4233 55.369L78.897 55.0891L78.3968 52.4558L76.9231 52.7357ZM77.4233 55.369L75.9281 55.249L75.716 57.8922L77.2112 58.0122L78.7064 58.1322L78.9185 55.489L77.4233 55.369ZM77.2112 58.0122L75.7147 58.114L75.8941 60.7517L77.3906 60.65L78.8872 60.5482L78.7078 57.9104L77.2112 58.0122ZM77.3906 60.65L75.9029 60.4581L75.5618 63.1031L77.0495 63.295L78.5372 63.4868L78.8783 60.8418L77.3906 60.65ZM77.0495 63.295L75.5786 63.5892L76.1054 66.2221L77.5762 65.9279L79.0471 65.6336L78.5203 63.0007L77.0495 63.295ZM77.5762 65.9279L76.0773 65.8705L75.9762 68.5122L77.4751 68.5696L78.974 68.6269L79.0751 65.9852L77.5762 65.9279ZM77.4751 68.5696L75.9752 68.5582L75.9552 71.1988L77.4552 71.2101L78.9551 71.2214L78.9751 68.5809L77.4751 68.5696ZM77.4552 71.2101L76.3326 72.205L77.28 73.2739L78.4025 72.2789L79.5251 71.284L78.5777 70.2152L77.4552 71.2101ZM78.4025 72.2789L78.2181 73.7676L80.8616 74.095L81.046 72.6064L81.2304 71.1178L78.5869 70.7903L78.4025 72.2789ZM81.046 72.6064L81.1943 74.099L83.8337 73.8367L83.6853 72.3441L83.5369 70.8514L80.8976 71.1138L81.046 72.6064ZM83.6853 72.3441L83.7382 73.8431L86.3782 73.75L86.3254 72.251L86.2725 70.7519L83.6324 70.845L83.6853 72.3441ZM86.3254 72.251L87.0452 73.5669L89.2868 72.3407L88.5669 71.0247L87.847 69.7088L85.6055 70.935L86.3254 72.251ZM88.5669 71.0247L90.0557 70.842L89.7266 68.1603L88.2378 68.343L86.749 68.5257L87.0781 71.2074L88.5669 71.0247ZM88.2378 68.343L89.7373 68.3802L89.8031 65.731L88.3036 65.6937L86.804 65.6565L86.7383 68.3058L88.2378 68.343ZM88.3036 65.6937L89.3264 66.7909L91.0734 65.1623L90.0505 64.0651L89.0277 62.968L87.2807 64.5966L88.3036 65.6937ZM90.0505 64.0651L90.2406 65.5531L92.8438 65.2204L92.6537 63.7325L92.4636 62.2446L89.8604 62.5772L90.0505 64.0651ZM92.6537 63.7325L92.5333 65.2277L95.1711 65.4401L95.2915 63.945L95.412 62.4498L92.7741 62.2374L92.6537 63.7325ZM95.2915 63.945L94.9485 65.4052L97.5479 66.0159L97.8909 64.5556L98.234 63.0954L95.6346 62.4847L95.2915 63.945ZM97.8909 64.5556L98.155 66.0322L100.786 65.5616L100.522 64.0851L100.258 62.6085L97.6269 63.0791L97.8909 64.5556ZM100.522 64.0851L101.188 65.4294L103.445 64.3123L102.779 62.968L102.114 61.6236L99.857 62.7407L100.522 64.0851ZM102.779 62.968L104.275 62.859L104.079 60.1687L102.583 60.2776L101.087 60.3866L101.283 63.077L102.779 62.968ZM102.583 60.2776L103.963 59.6886L102.917 57.2407L101.538 57.8297L100.158 58.4188L101.204 60.8667L102.583 60.2776ZM101.538 57.8297L102.925 57.2584L101.934 54.853L100.547 55.4243L99.1601 55.9957L100.151 58.4011L101.538 57.8297ZM100.547 55.4243L101.909 54.7965L100.798 52.384L99.4353 53.0118L98.073 53.6396L99.1847 56.0521L100.547 55.4243ZM99.4353 53.0118L100.27 51.7658L98.0738 50.2933L97.2386 51.5393L96.4034 52.7853L98.6001 54.2578L99.4353 53.0118ZM97.2386 51.5393L97.0697 50.0489L94.5587 50.3335L94.7277 51.8239L94.8966 53.3144L97.4076 53.0298L97.2386 51.5393ZM94.7277 51.8239L93.8038 50.6422L91.7253 52.2672L92.6492 53.4489L93.573 54.6306L95.6515 53.0056L94.7277 51.8239ZM92.6492 53.4489L91.5405 52.4385L89.7546 54.3979L90.8632 55.4084L91.9718 56.4188L93.7578 54.4594L92.6492 53.4489ZM90.8632 55.4084L89.5321 54.7168L88.2961 57.0961L89.6272 57.7876L90.9583 58.4791L92.1943 56.0999L90.8632 55.4084ZM89.6272 57.7876L88.1281 57.8388L88.2191 60.5061L89.7182 60.4549L91.2173 60.4038L91.1263 57.7365L89.6272 57.7876ZM89.7182 60.4549L88.2185 60.4231L88.1626 63.0615L89.6622 63.0933L91.1619 63.1251L91.2178 60.4868L89.7182 60.4549ZM89.6622 63.0933L88.1629 63.0473L88.1448 63.6389L89.6441 63.6849L91.1434 63.7309L91.1615 63.1393L89.6622 63.0933ZM59.838 26.9554L58.9941 25.7153L58.9115 25.7715L59.7553 27.0116L60.5992 28.2517L60.6819 28.1955L59.838 26.9554ZM59.7553 27.0116L58.931 25.7585L56.8101 27.1537L57.6345 28.4069L58.4589 29.66L60.5797 28.2648L59.7553 27.0116ZM57.6345 28.4069L56.7309 27.2095L54.6307 28.7944L55.5343 29.9918L56.4378 31.1891L58.538 29.6042L57.6345 28.4069ZM55.5343 29.9918L54.7289 28.7263L52.5038 30.1426L53.3092 31.408L54.1146 32.6734L56.3397 31.2572L55.5343 29.9918ZM53.3092 31.408L52.3694 30.2389L50.2985 31.9035L51.2382 33.0726L52.178 34.2417L54.2489 32.5771L53.3092 31.408ZM51.2382 33.0726L50.5327 31.7489L48.1923 32.9963L48.8978 34.32L49.6034 35.6438L51.9438 34.3963L51.2382 33.0726ZM48.8978 34.32L47.8918 33.2075L45.9311 34.9804L46.9371 36.093L47.9432 37.2056L49.9039 35.4326L48.8978 34.32ZM46.9371 36.093L45.905 35.0046L43.9968 36.814L45.0289 37.9024L46.061 38.9909L47.9692 37.1815L46.9371 36.093ZM45.0289 37.9024L43.8742 36.945L42.1736 38.9958L43.3283 39.9532L44.483 40.9107L46.1835 38.8599L45.0289 37.9024ZM43.3283 39.9532L41.9319 39.4054L40.9577 41.8886L42.3541 42.4365L43.7505 42.9843L44.7247 40.501L43.3283 39.9532ZM42.3541 42.4365L40.8707 42.2138L40.4774 44.834L41.9608 45.0567L43.4441 45.2794L43.8375 42.6591L42.3541 42.4365ZM41.9608 45.0567L40.4995 44.718L39.9019 47.2968L41.3632 47.6354L42.8245 47.974L43.422 45.3953L41.9608 45.0567ZM41.3632 47.6354L39.8632 47.6216L39.8389 50.2664L41.3388 50.2802L42.8388 50.2941L42.8631 47.6492L41.3632 47.6354ZM41.3388 50.2802L39.8425 50.3852L40.0275 53.021L41.5238 52.916L43.0201 52.811L42.8351 50.1752L41.3388 50.2802ZM41.5238 52.916L40.0248 52.9712L40.1219 55.6059L41.6209 55.5507L43.1199 55.4955L43.0228 52.8607L41.5238 52.916ZM41.6209 55.5507L40.1225 55.6199L40.2443 58.259L41.7427 58.1899L43.2411 58.1207L43.1193 55.4815L41.6209 55.5507ZM41.7427 58.1899L40.2428 58.1741L40.2144 60.8721L41.7143 60.8879L43.2142 60.9037L43.2426 58.2057L41.7427 58.1899ZM41.7143 60.8879L40.2147 60.9228L40.2691 63.2593L41.7687 63.2244L43.2683 63.1895L43.2139 60.853L41.7143 60.8879ZM41.7687 63.2244L42.2159 64.6562L44.7929 63.8512L44.3457 62.4195L43.8984 60.9877L41.3214 61.7927L41.7687 63.2244ZM44.3457 62.4195L45.329 63.5522L47.3186 61.8251L46.3353 60.6923L45.352 59.5596L43.3624 61.2867L44.3457 62.4195ZM46.3353 60.6923L47.5101 61.6249L49.1494 59.5598L47.9745 58.6272L46.7996 57.6947L45.1604 59.7598L46.3353 60.6923ZM47.9745 58.6272L49.289 59.3498L50.5607 57.0362L49.2462 56.3136L47.9317 55.5911L46.66 57.9047L47.9745 58.6272ZM49.2462 56.3136L50.4487 57.2104L52.0371 55.0804L50.8346 54.1836L49.6322 53.2869L48.0438 55.4169L49.2462 56.3136ZM50.8346 54.1836L52.1854 54.836L53.3415 52.442L51.9907 51.7897L50.64 51.1374L49.4839 53.5313L50.8346 54.1836ZM51.9907 51.7897L52.7507 53.083L55.0194 51.7499L54.2594 50.4566L53.4995 49.1634L51.2308 50.4965L51.9907 51.7897ZM54.2594 50.4566L54.7588 51.871L57.2304 50.9985L56.7311 49.584L56.2318 48.1696L53.7601 49.0422L54.2594 50.4566ZM56.7311 49.584L57.7507 50.6842L59.6956 48.8816L58.676 47.7815L57.6564 46.6813L55.7115 48.4839L56.7311 49.584ZM58.676 47.7815L58.3808 49.2521L60.6894 49.7155L60.9846 48.2448L61.2797 46.7741L58.9712 46.3108L58.676 47.7815ZM60.9846 48.2448L60.0513 49.4192L62.1136 51.058L63.0468 49.8836L63.98 48.7093L61.9178 47.0705L60.9846 48.2448ZM63.0468 49.8836L62.5605 51.3026L65.0524 52.1566L65.5387 50.7376L66.025 49.3186L63.5331 48.4646L63.0468 49.8836ZM65.5387 50.7376L64.5391 51.856L66.4205 53.5376L67.4201 52.4192L68.4197 51.3008L66.5383 49.6192L65.5387 50.7376ZM67.4201 52.4192L66.2405 53.3457L67.8633 55.4119L69.0429 54.4854L70.2226 53.5589L68.5998 51.4927L67.4201 52.4192ZM69.0429 54.4854L67.7649 55.2707L69.1461 57.5184L70.4241 56.7331L71.7021 55.9478L70.3209 53.7001L69.0429 54.4854ZM70.4241 56.7331L69.1097 57.4559L70.3886 59.7816L71.703 59.0588L73.0174 58.336L71.7385 56.0104L70.4241 56.7331ZM71.703 59.0588L70.7043 60.178L72.6866 61.9467L73.6852 60.8275L74.6839 59.7083L72.7016 57.9396L71.703 59.0588ZM73.6852 60.8275L72.8279 62.0583L74.9559 63.5407L75.8133 62.3099L76.6707 61.0791L74.5426 59.5967L73.6852 60.8275ZM75.8133 62.3099L74.8873 63.4899L76.4134 64.6875L77.3394 63.5075L78.2655 62.3275L76.7393 61.1298L75.8133 62.3099ZM77.3394 63.5075L78.7165 64.1022L78.7763 63.9638L77.3992 63.3691L76.0221 62.7744L75.9624 62.9128L77.3394 63.5075ZM59.838 43.0662H58.338V43.1662H59.838H61.338V43.0662H59.838ZM59.838 43.1662L58.3388 43.214L58.3849 44.6607L59.8842 44.6129L61.3834 44.565L61.3373 43.1184L59.838 43.1662ZM59.8842 44.6129L58.386 44.5387L58.3094 46.0853L59.8075 46.1595L61.3057 46.2337L61.3823 44.6871L59.8842 44.6129ZM59.8075 46.1595L58.3077 46.1775L58.3169 46.9508L59.8168 46.9328L61.3167 46.9148L61.3074 46.1415L59.8075 46.1595ZM59.8168 46.9328V48.4328H59.838V46.9328V45.4328H59.8168V46.9328ZM96.1197 47.255H94.6197V47.355H96.1197H97.6197V47.255H96.1197ZM96.1197 47.355L94.6405 47.1062L94.4188 48.4239L95.898 48.6728L97.3772 48.9216L97.5989 47.6039L96.1197 47.355ZM95.898 48.6728L94.4658 49.1185L94.907 50.5363L96.3392 50.0905L97.7715 49.6448L97.3303 48.2271L95.898 48.6728ZM96.3392 50.0905L94.984 49.4476L94.6477 50.1565L96.0029 50.7994L97.3582 51.4424L97.6945 50.7335L96.3392 50.0905ZM96.0029 50.7994V52.2994H96.1197V50.7994V49.2994H96.0029V50.7994ZM105.32 115.694L106.82 115.707L106.821 115.607L105.321 115.594L103.821 115.581L103.82 115.681L105.32 115.694ZM105.321 115.594L106.82 115.608L106.844 113.068L105.344 113.054L103.844 113.04L103.821 115.58L105.321 115.594ZM105.344 113.054L106.844 113.103L106.93 110.464L105.431 110.415L103.932 110.365L103.845 113.005L105.344 113.054ZM105.431 110.415L106.923 110.264L106.656 107.621L105.164 107.772L103.672 107.923L103.939 110.565L105.431 110.415ZM105.164 107.772L106.639 108.042L107.122 105.407L105.647 105.136L104.171 104.866L103.688 107.502L105.164 107.772ZM105.647 105.136L107.136 104.958L106.819 102.315L105.329 102.493L103.84 102.672L104.157 105.315L105.647 105.136ZM105.329 102.493L106.827 102.575L106.971 99.9365L105.474 99.8546L103.976 99.7728L103.832 102.412L105.329 102.493ZM105.474 99.8546L106.973 99.8913L107.038 97.2517L105.538 97.2151L104.039 97.1784L103.974 99.818L105.474 99.8546ZM105.538 97.2151L107.031 97.0685L106.771 94.4262L105.279 94.5727L103.786 94.7193L104.045 97.3617L105.538 97.2151ZM105.279 94.5727L106.772 94.716L107.025 92.0781L105.532 91.9348L104.039 91.7916L103.785 94.4295L105.279 94.5727ZM105.532 91.9348L107.031 91.9684L107.09 89.3288L105.591 89.2952L104.091 89.2617L104.032 91.9013L105.532 91.9348ZM105.591 89.2952L107.085 89.4309L107.324 86.7929L105.83 86.6572L104.336 86.5215L104.097 89.1596L105.591 89.2952ZM105.83 86.6572L107.318 86.4659L106.978 83.8229L105.49 84.0142L104.003 84.2055L104.343 86.8485L105.83 86.6572ZM105.49 84.0142L106.99 84.0449L107.044 81.4053L105.545 81.3745L104.045 81.3438L103.991 83.9834L105.49 84.0142ZM105.545 81.3745L107.041 81.4841L107.234 78.8456L105.738 78.7361L104.242 78.6266L104.049 81.2651L105.545 81.3745ZM105.738 78.7361L107.236 78.8013L107.351 76.1622L105.852 76.097L104.354 76.0318L104.239 78.6709L105.738 78.7361ZM105.852 76.097L107.352 76.0745L107.313 73.434L105.813 73.4566L104.313 73.4791L104.353 76.1196L105.852 76.097ZM105.813 73.4566L107.243 73.0039L106.486 70.6132L105.056 71.0658L103.626 71.5185L104.383 73.9092L105.813 73.4566ZM105.056 71.0658L106.279 70.1978L104.748 68.0398L103.525 68.9078L102.301 69.7758L103.833 71.9339L105.056 71.0658ZM103.525 68.9078L104.982 68.5508L104.353 65.9857L102.896 66.3427L101.439 66.6996L102.068 69.2648L103.525 68.9078ZM102.896 66.3427L104.395 66.2874L104.307 63.9072L102.808 63.9625L101.31 64.0178L101.397 66.3979L102.896 66.3427ZM102.808 63.9625L102.492 62.4962L102.286 62.5408L102.602 64.0071L102.918 65.4734L103.125 65.4288L102.808 63.9625ZM23.5563 47.5772L22.2772 48.3607L22.3294 48.446L23.6086 47.6625L24.8877 46.879L24.8355 46.7938L23.5563 47.5772ZM23.6086 47.6625L22.117 47.821L22.3864 50.3569L23.878 50.1985L25.3696 50.04L25.1002 47.504L23.6086 47.6625ZM23.878 50.1985L22.5841 50.9573L23.8428 53.1034L25.1366 52.3445L26.4305 51.5857L25.1719 49.4396L23.878 50.1985ZM25.1366 52.3445L24.0005 53.3239L25.7263 55.3258L26.8624 54.3464L27.9985 53.3669L26.2727 51.3651L25.1366 52.3445ZM26.8624 54.3464L25.8218 55.4267L27.725 57.26L28.7657 56.1797L29.8063 55.0994L27.903 53.266L26.8624 54.3464ZM28.7657 56.1797L27.4076 56.8165L28.4948 59.1352L29.8529 58.4984L31.211 57.8616L30.1238 55.5429L28.7657 56.1797ZM29.8529 58.4984L28.3529 58.4931L28.3435 61.1491L29.8435 61.1544L31.3435 61.1598L31.3529 58.5037L29.8529 58.4984ZM29.8435 61.1544L28.3758 61.4643L28.9262 64.0705L30.3938 63.7606L31.8614 63.4507L31.3111 60.8445L29.8435 61.1544ZM30.3938 63.7606L28.9048 63.579L28.5798 66.2436L30.0688 66.4252L31.5578 66.6068L31.8828 63.9423L30.3938 63.7606ZM30.0688 66.4252L28.5847 66.6434L28.97 69.264L30.4541 69.0458L31.9381 68.8276L31.5528 66.207L30.0688 66.4252ZM30.4541 69.0458L28.9648 69.2251L29.2472 71.5709L30.7364 71.3916L32.2257 71.2124L31.9433 68.8666L30.4541 69.0458ZM30.7364 71.3916L30.2751 72.8189L32.8266 73.6435L33.2879 72.2162L33.7492 70.7889L31.1977 69.9643L30.7364 71.3916ZM33.2879 72.2162L33.0617 73.6991L35.6718 74.0973L35.898 72.6144L36.1242 71.1316L33.5141 70.7334L33.2879 72.2162ZM35.898 72.6144L35.7174 74.1035L38.3385 74.4214L38.5191 72.9323L38.6997 71.4432L36.0786 71.1253L35.898 72.6144ZM38.5191 72.9323L38.4243 74.4293L41.0661 74.5967L41.1609 73.0997L41.2558 71.6027L38.614 71.4353L38.5191 72.9323ZM41.1609 73.0997L39.674 73.2972L39.9788 75.5918L41.4658 75.3943L42.9527 75.1967L42.6479 72.9021L41.1609 73.0997ZM41.4658 75.3943L39.9672 75.3277L39.8499 77.9677L41.3484 78.0343L42.847 78.1009L42.9643 75.4609L41.4658 75.3943ZM41.3484 78.0343L39.8697 78.2858L40.3188 80.9258L41.7976 80.6743L43.2763 80.4227L42.8272 77.7827L41.3484 78.0343ZM41.7976 80.6743L40.2981 80.6347L40.2284 83.2747L41.7279 83.3143L43.2274 83.3539L43.2971 80.7139L41.7976 80.6743ZM41.7279 83.3143L40.2483 83.0675L39.8081 85.7075L41.2876 85.9543L42.7672 86.201L43.2074 83.561L41.7279 83.3143ZM41.2876 85.9543L39.7934 86.0856L40.0255 88.7256L41.5197 88.5943L43.014 88.4629L42.7819 85.8229L41.2876 85.9543ZM41.5197 88.5943L40.02 88.6201L40.0654 91.2601L41.5652 91.2343L43.065 91.2084L43.0195 88.5684L41.5197 88.5943ZM41.5652 91.2343L40.0666 91.1691L39.9519 93.8091L41.4505 93.8743L42.9491 93.9394L43.0638 91.2994L41.5652 91.2343ZM41.4505 93.8743L39.9631 94.0684L40.3077 96.7084L41.7951 96.5143L43.2825 96.3201L42.9379 93.6801L41.4505 93.8743ZM41.7951 96.5143L40.299 96.4059L40.1079 99.0459L41.604 99.1543L43.1 99.2626L43.2912 96.6226L41.7951 96.5143ZM41.604 99.1543L40.1047 99.1064L40.0205 101.746L41.5197 101.794L43.0189 101.842L43.1032 99.2021L41.604 99.1543ZM41.5197 101.794L40.0203 101.836L40.093 104.476L41.5924 104.434L43.0919 104.393L43.0191 101.753L41.5197 101.794ZM41.5924 104.434L40.093 104.392L40.0187 107.032L41.5181 107.074L43.0175 107.116L43.0919 104.476L41.5924 104.434ZM41.5181 107.074L40.0258 107.227L40.2954 109.867L41.7876 109.714L43.2799 109.562L43.0103 106.922L41.5181 107.074ZM41.7876 109.714L40.2889 109.652L40.179 112.292L41.6777 112.354L43.1764 112.417L43.2863 109.777L41.7876 109.714ZM41.6777 112.354L40.1816 112.247L39.9918 114.887L41.4879 114.994L42.9841 115.102L43.1738 112.462L41.6777 112.354ZM41.4879 114.994L39.9946 115.135L40.0475 115.696L41.5408 115.555L43.0342 115.415L42.9813 114.853L41.4879 114.994ZM42.0211 50.4772L41.928 51.9743L42.0279 51.9805L42.1209 50.4834L42.214 48.9863L42.1142 48.9801L42.0211 50.4772ZM42.1209 50.4834L42.0602 51.9822L44.6106 52.0855L44.6714 50.5868L44.7321 49.088L42.1817 48.9846L42.1209 50.4834ZM44.6714 50.5868L44.8706 52.0735L47.4946 51.7219L47.2954 50.2351L47.0962 48.7484L44.4721 49.1001L44.6714 50.5868ZM47.2954 50.2351L47.1439 51.7275L49.7622 51.9932L49.9137 50.5009L50.0652 49.0086L47.4469 48.7428L47.2954 50.2351ZM49.9137 50.5009L49.5194 51.9482L51.9684 52.6153L52.3627 51.1681L52.7569 49.7208L50.3079 49.0536L49.9137 50.5009ZM52.3627 51.1681L53.6878 51.871L53.7124 51.8246L52.3873 51.1216L51.0622 50.4187L51.0376 50.4651L52.3627 51.1681ZM67.2887 50.4772V51.9772H67.3887V50.4772V48.9772H67.2887V50.4772ZM67.3887 50.4772L67.2535 51.9711L69.7935 52.201L69.9287 50.7071L70.0639 49.2132L67.5239 48.9833L67.3887 50.4772ZM69.9287 50.7071L69.9395 52.207L72.5795 52.1881L72.5687 50.6882L72.558 49.1882L69.918 49.2071L69.9287 50.7071ZM72.5687 50.6882L72.7089 52.1816L75.3489 51.9338L75.2087 50.4404L75.0686 48.9469L72.4286 49.1947L72.5687 50.6882ZM75.2087 50.4404L75.1358 51.9386L77.582 52.0577L77.6549 50.5595L77.7279 49.0612L75.2817 48.9421L75.2087 50.4404ZM77.6549 50.5595H79.1549V50.4772H77.6549H76.1549V50.5595H77.6549ZM29.7113 64.0103L29.7592 62.5111L29.6592 62.5079L29.6113 64.0071L29.5634 65.5063L29.6634 65.5095L29.7113 64.0103ZM29.6113 64.0071L29.6643 62.508L27.1242 62.4183L27.0713 63.9174L27.0183 65.4165L29.5584 65.5062L29.6113 64.0071ZM27.0713 63.9174L26.901 62.4271L24.261 62.7287L24.4313 64.219L24.6015 65.7093L27.2415 65.4077L27.0713 63.9174ZM24.4313 64.219L24.4031 62.7193L21.7631 62.7689L21.7913 64.2686L21.8194 65.7683L24.4594 65.7188L24.4313 64.219ZM21.7913 64.2686L21.8152 62.7688L19.1641 62.7265L19.1402 64.2263L19.1162 65.7261L21.7673 65.7684L21.7913 64.2686ZM19.1402 64.2263L20.1771 63.1424L18.4426 61.483L17.4057 62.5668L16.3687 63.6507L18.1032 65.3101L19.1402 64.2263ZM17.4057 62.5668L18.9042 62.4999L18.7897 59.9366L17.2912 60.0036L15.7927 60.0705L15.9071 62.6337L17.4057 62.5668ZM17.2912 60.0036L18.7885 60.0936L18.9471 57.4542L17.4498 57.3642L15.9525 57.2742L15.7939 59.9136L17.2912 60.0036ZM17.4498 57.3642L18.6872 58.212L20.1892 56.0199L18.9518 55.172L17.7144 54.3242L16.2124 56.5163L17.4498 57.3642ZM18.9518 55.172L19.9846 56.2599L21.8782 54.4621L20.8455 53.3743L19.8127 52.2864L17.9191 54.0842L18.9518 55.172ZM20.8455 53.3743L21.8177 54.5166L23.817 52.8149L22.8448 51.6726L21.8726 50.5303L19.8733 52.232L20.8455 53.3743ZM22.8448 51.6726L23.6074 52.9643L23.9949 52.7356L23.2324 51.4439L22.4698 50.1521L22.0823 50.3809L22.8448 51.6726ZM41.5408 85.9211L42.9671 86.3854L42.9981 86.2903L41.5718 85.826L40.1455 85.3616L40.1145 85.4567L41.5408 85.9211ZM41.5718 85.826L43.0693 85.7399L42.9215 83.1685L41.424 83.2546L39.9264 83.3407L40.0743 85.912L41.5718 85.826ZM41.424 83.2546L42.8856 83.5918L43.4839 80.9983L42.0223 80.6611L40.5606 80.324L39.9624 82.9174L41.424 83.2546ZM42.0223 80.6611L43.4189 81.2084L44.3809 78.7533L42.9843 78.206L41.5876 77.6588L40.6256 80.1139L42.0223 80.6611ZM42.9843 78.206L44.3249 78.8789L45.51 76.5176L44.1694 75.8447L42.8288 75.1718L41.6436 77.5332L42.9843 78.206ZM44.1694 75.8447L45.2034 76.9314L47.1187 75.1091L46.0847 74.0224L45.0508 72.9357L43.1355 74.758L44.1694 75.8447ZM46.0847 74.0224L47.1909 75.0355L48.9899 73.0714L47.8838 72.0582L46.7777 71.0451L44.9786 73.0093L46.0847 74.0224ZM47.8838 72.0582L48.6287 73.3602L50.9394 72.0383L50.1945 70.7363L49.4496 69.4343L47.1389 70.7563L47.8838 72.0582ZM50.1945 70.7363L51.0272 71.9839L53.2314 70.5127L52.3986 69.2651L51.5659 68.0175L49.3617 69.4887L50.1945 70.7363ZM52.3986 69.2651L53.3811 70.3986L55.3854 68.6612L54.4029 67.5278L53.4204 66.3943L51.4161 68.1316L52.3986 69.2651ZM54.4029 67.5278L55.614 68.4128L57.1654 66.2899L55.9544 65.4048L54.7433 64.5198L53.1918 66.6427L54.4029 67.5278ZM55.9544 65.4048L57.4127 65.7558L58.0284 63.198L56.57 62.847L55.1117 62.496L54.496 65.0538L55.9544 65.4048ZM56.57 62.847L57.6035 63.9341L59.5426 62.0906L58.509 61.0035L57.4755 59.9164L55.5365 61.7599L56.57 62.847ZM58.509 61.0035L58.3813 62.4981L60.9327 62.7162L61.0605 61.2217L61.1883 59.7271L58.6368 59.509L58.509 61.0035ZM61.0605 61.2217L60.0164 62.2986L61.8003 64.0281L62.8444 62.9511L63.8885 61.8742L62.1046 60.1447L61.0605 61.2217ZM62.8444 62.9511L61.4298 63.45L62.2994 65.9157L63.714 65.4169L65.1286 64.918L64.259 62.4522L62.8444 62.9511ZM63.714 65.4169L62.5163 66.32L64.0743 68.386L65.272 67.4829L66.4696 66.5798L64.9116 64.5137L63.714 65.4169ZM65.272 67.4829L64.3929 68.6983L66.5353 70.2479L67.4144 69.0325L68.2934 67.817L66.1511 66.2675L65.272 67.4829ZM67.4144 69.0325L66.6123 70.3L68.8468 71.7139L69.6489 70.4464L70.4509 69.1788L68.2164 67.7649L67.4144 69.0325ZM69.6489 70.4464L68.5915 71.5103L70.4836 73.3907L71.5409 72.3267L72.5983 71.2628L70.7063 69.3824L69.6489 70.4464ZM71.5409 72.3267L70.6018 73.4964L72.6477 75.1389L73.5868 73.9693L74.5259 72.7997L72.4801 71.1571L71.5409 72.3267ZM73.5868 73.9693L72.4918 74.9945L74.2805 76.9051L75.3755 75.8799L76.4705 74.8547L74.6818 72.9441L73.5868 73.9693ZM75.3755 75.8799L74.0672 76.6135L75.3403 78.884L76.6487 78.1504L77.957 77.4168L76.6839 75.1463L75.3755 75.8799ZM76.6487 78.1504L75.2021 78.5471L75.8859 81.0408L77.3325 80.6441L78.7791 80.2475L78.0953 77.7537L76.6487 78.1504ZM77.3325 80.6441L75.8799 81.0184L76.5459 83.6032L77.9985 83.229L79.451 82.8547L78.7851 80.2699L77.3325 80.6441ZM77.9985 83.229L76.5119 83.0287L76.1558 85.6712L77.6424 85.8715L79.129 86.0718L79.485 83.4293L77.9985 83.229ZM77.6424 85.8715L76.1833 85.5234L75.9402 86.5429L77.3992 86.8909L78.8583 87.239L79.1015 86.2195L77.6424 85.8715ZM41.5408 63.3659H40.0408V63.4659H41.5408H43.0408V63.3659H41.5408ZM41.5408 63.4659L40.0472 63.604L40.2821 66.144L41.7757 66.0059L43.2693 65.8678L43.0345 63.3278L41.5408 63.4659ZM41.7757 66.0059L40.2912 65.7909L39.9089 68.4309L41.3934 68.6459L42.8779 68.8608L43.2602 66.2208L41.7757 66.0059ZM41.3934 68.6459L39.9038 68.8223L40.2165 71.4623L41.7061 71.2859L43.1957 71.1095L42.883 68.4695L41.3934 68.6459ZM41.7061 71.2859L40.2386 70.975L40.0734 71.7548L41.5408 72.0657L43.0083 72.3766L43.1735 71.5968L41.7061 71.2859ZM14.4956 115.372L15.9956 115.364L15.9951 115.264L14.4951 115.272L12.9951 115.28L12.9956 115.38L14.4956 115.372ZM14.4951 115.272L15.9937 115.336L16.1029 112.795L14.6043 112.731L13.1057 112.667L12.9965 115.207L14.4951 115.272ZM14.6043 112.731L16.0885 112.514L15.7019 109.876L14.2177 110.093L12.7336 110.311L13.1202 112.949L14.6043 112.731ZM14.2177 110.093L15.7162 110.161L15.836 107.52L14.3375 107.452L12.8391 107.384L12.7193 110.025L14.2177 110.093ZM14.3375 107.452L15.8346 107.358L15.6688 104.719L14.1718 104.813L12.6747 104.907L12.8405 107.546L14.3375 107.452ZM14.1718 104.813L15.6718 104.812L15.6699 102.172L14.1699 102.173L12.6699 102.174L12.6718 104.814L14.1718 104.813ZM14.1699 102.173L15.6566 102.372L16.0102 99.7303L14.5234 99.5313L13.0367 99.3323L12.6831 101.974L14.1699 102.173ZM14.5234 99.5313L16.0229 99.4913L15.9524 96.8516L14.4529 96.8916L12.9535 96.9317L13.024 99.5714L14.5234 99.5313ZM14.4529 96.8916L15.952 96.8398L15.8608 94.2003L14.3617 94.2521L12.8626 94.3039L12.9538 96.9435L14.4529 96.8916ZM14.3617 94.2521L15.8609 94.2029L15.7743 91.5633L14.2751 91.6125L12.7759 91.6617L12.8625 94.3013L14.3617 94.2521ZM14.2751 91.6125L15.7716 91.7136L15.9501 89.0726L14.4535 88.9715L12.9569 88.8704L12.7785 91.5114L14.2751 91.6125ZM14.4535 88.9715L15.9475 88.8372L15.7102 86.1984L14.2163 86.3327L12.7223 86.4671L12.9595 89.1059L14.4535 88.9715ZM14.2163 86.3327L15.7106 86.4624L15.9398 83.8212L14.4454 83.6915L12.9511 83.5618L12.7219 86.2031L14.2163 86.3327ZM14.4454 83.6915L15.9453 83.668L15.9039 81.0282L14.404 81.0517L12.9042 81.0752L12.9456 83.715L14.4454 83.6915ZM14.404 81.0517L15.8917 80.8594L15.5506 78.2211L14.063 78.4134L12.5754 78.6057L12.9164 81.244L14.404 81.0517ZM14.063 78.4134L15.5629 78.3979L15.5355 75.758L14.0356 75.7735L12.5357 75.7891L12.5631 78.429L14.063 78.4134ZM14.0356 75.7735L15.5282 75.9225L15.7918 73.281L14.2992 73.1321L12.8066 72.9832L12.543 75.6246L14.0356 75.7735ZM14.2992 73.1321L15.7694 73.4296L16.2712 70.9496L14.801 70.6521L13.3308 70.3546L12.829 72.8346L14.2992 73.1321ZM14.801 70.6521L16.076 71.4422L17.467 69.1974L16.1919 68.4074L14.9168 67.6173L13.5259 69.862L14.801 70.6521ZM16.1919 68.4074L17.6467 68.773L18.2901 66.2126L16.8354 65.847L15.3806 65.4814L14.7371 68.0418L16.1919 68.4074ZM16.8354 65.847L18.3147 66.0954L18.6204 64.2745L17.1411 64.0261L15.6618 63.7777L15.3561 65.5986L16.8354 65.847ZM17.1411 64.0261L17.5029 62.5704L17.4392 62.5546L17.0775 64.0103L16.7157 65.466L16.7794 65.4818L17.1411 64.0261ZM77.3992 72.7102H75.8992V72.8102H77.3992H78.8992V72.7102H77.3992ZM77.3992 72.8102L75.9013 72.8886L76.0343 75.4286L77.5323 75.3502L79.0302 75.2717L78.8972 72.7317L77.3992 72.8102ZM77.5323 75.3502L76.0326 75.3178L75.9756 77.9578L77.4753 77.9902L78.9749 78.0225L79.0319 75.3825L77.5323 75.3502ZM77.4753 77.9902L75.9761 78.0377L76.0598 80.6777L77.559 80.6302L79.0583 80.5826L78.9745 77.9426L77.4753 77.9902ZM77.559 80.6302L76.0775 80.3956L75.6595 83.0356L77.141 83.2702L78.6225 83.5047L79.0406 80.8647L77.559 80.6302ZM77.141 83.2702L75.6523 83.4535L75.9774 86.0935L77.4662 85.9102L78.9549 85.7268L78.6298 83.0868L77.141 83.2702ZM77.4662 85.9102L75.9769 85.7311L75.6595 88.3711L77.1488 88.5502L78.6381 88.7292L78.9555 86.0892L77.4662 85.9102ZM77.1488 88.5502L75.6746 88.8271L76.1706 91.4671L77.6448 91.1902L79.119 90.9132L78.623 88.2732L77.1488 88.5502ZM77.6448 91.1902L76.1448 91.1779L76.1233 93.8179L77.6233 93.8302L79.1232 93.8424L79.1447 91.2024L77.6448 91.1902ZM77.6233 93.8302L76.1249 93.7608L76.0026 96.4008L77.501 96.4702L78.9994 96.5396L79.1217 93.8996L77.6233 93.8302ZM77.501 96.4702L76.0011 96.4845L76.0264 99.1245L77.5263 99.1102L79.0263 99.0958L79.0009 96.4558L77.501 96.4702ZM77.5263 99.1102L76.0403 98.9058L75.6773 101.546L77.1633 101.75L78.6493 101.955L79.0123 99.3145L77.5263 99.1102ZM77.1633 101.75L75.6644 101.808L75.7663 104.448L77.2652 104.39L78.7641 104.332L78.6622 101.692L77.1633 101.75ZM77.2652 104.39L75.7652 104.396L75.7753 107.036L77.2753 107.03L78.7753 107.024L78.7652 104.384L77.2652 104.39ZM77.2753 107.03L75.7761 107.078L75.86 109.718L77.3592 109.67L78.8585 109.622L78.7746 106.983L77.2753 107.03ZM77.3592 109.67L75.8677 109.83L76.1501 112.47L77.6416 112.31L79.1331 112.151L78.8507 109.511L77.3592 109.67ZM77.6416 112.31L76.1427 112.251L76.0386 114.891L77.5374 114.95L79.0363 115.009L79.1404 112.369L77.6416 112.31ZM77.5374 114.95L76.074 114.621L75.9357 115.236L77.3992 115.565L78.8627 115.894L79.0009 115.279L77.5374 114.95ZM53.3591 115.565L54.8591 115.572L54.8596 115.472L53.3596 115.465L51.8597 115.458L51.8592 115.558L53.3591 115.565ZM53.3596 115.465L54.8595 115.489L54.8996 112.949L53.3998 112.925L51.9 112.901L51.8598 115.441L53.3596 115.465ZM53.3998 112.925L54.8948 113.048L55.1122 110.409L53.6172 110.285L52.1223 110.162L51.9049 112.802L53.3998 112.925ZM53.6172 110.285L55.1055 110.098L54.7736 107.457L53.2853 107.644L51.797 107.831L52.1289 110.472L53.6172 110.285ZM53.2853 107.644L54.7838 107.711L54.9018 105.072L53.4033 105.005L51.9048 104.938L51.7868 107.577L53.2853 107.644ZM53.4033 105.005L54.8949 105.164L55.1717 102.559L53.6801 102.401L52.1885 102.242L51.9117 104.847L53.4033 105.005ZM53.6801 102.401L55.0173 103.08L56.1765 100.799L54.8392 100.119L53.5019 99.4399L52.3428 101.721L53.6801 102.401ZM54.8392 100.119L55.7091 101.341L57.7998 99.8532L56.9299 98.6312L56.06 97.4092L53.9693 98.8974L54.8392 100.119ZM56.9299 98.6312L57.2661 100.093L59.7741 99.5163L59.4379 98.0544L59.1017 96.5926L56.5937 97.1693L56.9299 98.6312ZM59.4379 98.0544L59.2 99.5355L61.7239 99.9408L61.9618 98.4598L62.1996 96.9787L59.6757 96.5734L59.4379 98.0544ZM61.9618 98.4598L61.252 99.7812L63.475 100.975L64.1848 99.6538L64.8946 98.3324L62.6716 97.1383L61.9618 98.4598ZM64.1848 99.6538L63.0524 100.638L64.7547 102.597L65.8871 101.614L67.0196 100.63L65.3173 98.6702L64.1848 99.6538ZM65.8871 101.614L64.3906 101.715L64.5678 104.342L66.0644 104.241L67.561 104.14L67.3837 101.513L65.8871 101.614ZM66.0644 104.241L64.5847 104.487L65.0212 107.115L66.5009 106.869L67.9806 106.623L67.5442 103.996L66.0644 104.241ZM66.5009 106.869L65.0018 106.817L64.9094 109.46L66.4085 109.513L67.9076 109.565L68 106.922L66.5009 106.869ZM66.4085 109.513L64.9086 109.495L64.8769 112.135L66.3768 112.153L67.8767 112.171L67.9084 109.531L66.4085 109.513ZM66.3768 112.153L64.8796 112.061L64.7182 114.701L66.2154 114.793L67.7126 114.884L67.874 112.245L66.3768 112.153ZM66.2154 114.793L64.729 114.994L64.8337 115.766L66.3201 115.565L67.8065 115.364L67.7019 114.591L66.2154 114.793ZM53.6831 105.254L52.5694 106.259L52.6363 106.333L53.7501 105.328L54.8638 104.324L54.7968 104.249L53.6831 105.254ZM53.7501 105.328L53.567 106.817L56.1211 107.131L56.3042 105.642L56.4873 104.154L53.9332 103.84L53.7501 105.328ZM56.3042 105.642L56.3182 107.142L58.9647 107.118L58.9507 105.618L58.9367 104.118L56.2902 104.142L56.3042 105.642ZM58.9507 105.618L57.5633 106.188L58.5262 108.531L59.9136 107.961L61.301 107.39L60.3381 105.048L58.9507 105.618ZM59.9136 107.961L58.4193 107.829L58.1845 110.505L59.6787 110.636L61.173 110.767L61.4078 108.092L59.9136 107.961ZM59.6787 110.636L58.18 110.574L58.0704 113.214L59.5691 113.276L61.0678 113.339L61.1774 110.699L59.6787 110.636ZM59.5691 113.276L58.0718 113.366L58.2089 115.655L59.7062 115.565L61.2035 115.475L61.0664 113.187L59.5691 113.276ZM59.7062 115.565V117.065H59.838V115.565V114.065H59.7062V115.565ZM59.838 105.576L59.9164 107.074L60.0163 107.069L59.9379 105.571L59.8595 104.073L59.7596 104.078L59.838 105.576ZM59.9379 105.571L60.1075 107.061L62.4621 106.793L62.2924 105.303L62.1228 103.813L59.7683 104.081L59.9379 105.571ZM62.2924 105.303L62.4231 106.797L64.8806 106.582L64.7499 105.088L64.6192 103.594L62.1617 103.809L62.2924 105.303ZM64.7499 105.088L64.6872 106.587L65.9242 106.639L65.987 105.14L66.0497 103.641L64.8126 103.589L64.7499 105.088ZM65.987 105.14L64.489 105.218L64.495 105.332L65.9929 105.254L67.4909 105.176L67.4849 105.061L65.987 105.14ZM65.3789 78.1949L65.6692 76.7233L65.5711 76.7039L65.2807 78.1755L64.9904 79.6472L65.0885 79.6665L65.3789 78.1949ZM65.2807 78.1755L66.5016 77.3041L65.034 75.248L63.8131 76.1195L62.5923 76.991L64.0599 79.047L65.2807 78.1755ZM63.8131 76.1195L64.6153 74.852L62.4163 73.4604L61.6142 74.7279L60.812 75.9954L63.011 77.387L63.8131 76.1195ZM61.6142 74.7279L61.6351 73.228L59.0604 73.1922L59.0395 74.692L59.0186 76.1919L61.5933 76.2278L61.6142 74.7279ZM59.0395 74.692L58.6698 73.2383L56.1893 73.869L56.5589 75.3228L56.9286 76.7765L59.4091 76.1458L59.0395 74.692ZM56.5589 75.3228L55.4745 74.2864L53.672 76.1725L54.7564 77.2089L55.8409 78.2452L57.6433 76.3591L56.5589 75.3228ZM54.7564 77.2089L53.341 76.7123L52.4725 79.1877L53.8879 79.6843L55.3033 80.1809L56.1719 77.7055L54.7564 77.2089ZM53.8879 79.6843L52.3879 79.6834L52.3863 82.3609L53.8863 82.3617L55.3863 82.3626L55.3879 79.6852L53.8879 79.6843ZM53.8863 82.3617L52.5731 83.0866L53.8855 85.4644L55.1987 84.7396L56.512 84.0147L55.1996 81.6369L53.8863 82.3617ZM55.1987 84.7396L54.5524 86.0932L56.9438 87.235L57.5901 85.8814L58.2364 84.5278L55.845 83.3859L55.1987 84.7396ZM57.5901 85.8814L57.2478 87.3418L59.7937 87.9385L60.136 86.4781L60.4783 85.0176L57.9324 84.421L57.5901 85.8814ZM60.136 86.4781L60.7478 87.8476L63.1533 86.773L62.5414 85.4035L61.9296 84.0339L59.5242 85.1085L60.136 86.4781ZM62.5414 85.4035L63.4821 86.5719L65.4974 84.9494L64.5567 83.781L63.6161 82.6126L61.6008 84.2351L62.5414 85.4035ZM64.5567 83.781L65.8604 84.5229L67.1705 82.2207L65.8668 81.4788L64.5631 80.7369L63.2531 83.0391L64.5567 83.781ZM65.8668 81.4788L67.3528 81.2742L66.9926 78.6586L65.5066 78.8632L64.0206 79.0679L64.3809 81.6835L65.8668 81.4788ZM65.5066 78.8632L66.9799 78.5816L66.8522 77.9133L65.3789 78.1949L63.9055 78.4765L64.0333 79.1449L65.5066 78.8632Z" fill="black"/>
<path d="M28.5 75.1L27 75.1L27 75.1323L27.0014 75.1645L28.5 75.1ZM28.6093 77.64L30.1011 77.797L30.1127 77.6865L30.1079 77.5755L28.6093 77.64ZM28.3314 80.28L26.8397 80.123L26.8238 80.2739L26.8385 80.425L28.3314 80.28ZM28.5878 82.92L30.0866 82.8596L30.0849 82.8172L30.0808 82.775L28.5878 82.92ZM28.6942 85.56L30.1897 85.6763L30.1966 85.588L30.193 85.4996L28.6942 85.56ZM28.4889 88.2L26.9935 88.0837L26.9891 88.1392L26.989 88.1948L28.4889 88.2ZM28.4798 90.84L26.9798 90.8348L26.9796 90.8912L26.9837 90.9474L28.4798 90.84ZM28.6694 93.48L30.1688 93.5223L30.1709 93.4473L30.1655 93.3726L28.6694 93.48ZM28.595 96.12L30.0846 96.2963L30.0925 96.2295L30.0944 96.1623L28.595 96.12ZM28.2826 98.76L26.793 98.5837L26.7681 98.7941L26.8024 99.0032L28.2826 98.76ZM28.7164 101.4L30.2143 101.479L30.2229 101.317L30.1965 101.157L28.7164 101.4ZM28.5766 104.04L27.0787 103.961L27.074 104.049L27.0798 104.138L28.5766 104.04ZM28.7492 106.68L30.2382 106.862L30.2552 106.722L30.2461 106.582L28.7492 106.68ZM28.4271 109.32L26.9381 109.138L26.9241 109.253L26.9279 109.369L28.4271 109.32ZM28.5137 111.96L30.0129 111.912L30.0129 111.911L28.5137 111.96ZM28.5987 114.6L30.055 114.959L30.1046 114.758L30.0979 114.552L28.5987 114.6ZM28.5 75L27 75L27 75.1L28.5 75.1L30 75.1L30 75L28.5 75ZM28.5 75.1L27.0014 75.1645L27.1107 77.7045L28.6093 77.64L30.1079 77.5755L29.9986 75.0355L28.5 75.1ZM28.6093 77.64L27.1176 77.483L26.8397 80.123L28.3314 80.28L29.8232 80.437L30.1011 77.797L28.6093 77.64ZM28.3314 80.28L26.8385 80.425L27.0948 83.065L28.5878 82.92L30.0808 82.775L29.8244 80.135L28.3314 80.28ZM28.5878 82.92L27.089 82.9804L27.1954 85.6204L28.6942 85.56L30.193 85.4996L30.0866 82.8596L28.5878 82.92ZM28.6942 85.56L27.1987 85.4437L26.9935 88.0837L28.4889 88.2L29.9844 88.3163L30.1897 85.6763L28.6942 85.56ZM28.4889 88.2L26.989 88.1948L26.9798 90.8348L28.4798 90.84L29.9798 90.8452L29.9889 88.2052L28.4889 88.2ZM28.4798 90.84L26.9837 90.9474L27.1732 93.5874L28.6694 93.48L30.1655 93.3726L29.976 90.7326L28.4798 90.84ZM28.6694 93.48L27.17 93.4377L27.0956 96.0777L28.595 96.12L30.0944 96.1623L30.1688 93.5223L28.6694 93.48ZM28.595 96.12L27.1054 95.9437L26.793 98.5837L28.2826 98.76L29.7722 98.9363L30.0846 96.2963L28.595 96.12ZM28.2826 98.76L26.8024 99.0032L27.2362 101.643L28.7164 101.4L30.1965 101.157L29.7627 98.5168L28.2826 98.76ZM28.7164 101.4L27.2185 101.321L27.0787 103.961L28.5766 104.04L30.0745 104.119L30.2143 101.479L28.7164 101.4ZM28.5766 104.04L27.0798 104.138L27.2524 106.778L28.7492 106.68L30.2461 106.582L30.0734 103.942L28.5766 104.04ZM28.7492 106.68L27.2603 106.498L26.9381 109.138L28.4271 109.32L29.916 109.502L30.2382 106.862L28.7492 106.68ZM28.4271 109.32L26.9279 109.369L27.0145 112.009L28.5137 111.96L30.0129 111.911L29.9263 109.271L28.4271 109.32ZM28.5137 111.96L27.0144 112.008L27.0995 114.648L28.5987 114.6L30.0979 114.552L30.0129 111.912L28.5137 111.96ZM28.5987 114.6L27.1424 114.241L27.0437 114.641L28.5 115L29.9563 115.359L30.055 114.959L28.5987 114.6Z" fill="black"/>
<path d="M92.5 75.1L91 75.1L91 75.1323L91.0014 75.1645L92.5 75.1ZM92.6093 77.64L94.1011 77.797L94.1127 77.6865L94.1079 77.5755L92.6093 77.64ZM92.3314 80.28L90.8397 80.123L90.8238 80.2739L90.8385 80.425L92.3314 80.28ZM92.5878 82.92L94.0866 82.8596L94.0849 82.8172L94.0808 82.775L92.5878 82.92ZM92.6942 85.56L94.1897 85.6763L94.1966 85.588L94.193 85.4996L92.6942 85.56ZM92.4889 88.2L90.9935 88.0837L90.9891 88.1392L90.989 88.1948L92.4889 88.2ZM92.4798 90.84L90.9798 90.8348L90.9796 90.8912L90.9837 90.9474L92.4798 90.84ZM92.6694 93.48L94.1688 93.5223L94.1709 93.4473L94.1655 93.3726L92.6694 93.48ZM92.595 96.12L94.0846 96.2963L94.0925 96.2295L94.0944 96.1623L92.595 96.12ZM92.2826 98.76L90.793 98.5837L90.7681 98.7941L90.8024 99.0032L92.2826 98.76ZM92.7164 101.4L94.2143 101.479L94.2229 101.317L94.1965 101.157L92.7164 101.4ZM92.5766 104.04L91.0787 103.961L91.074 104.049L91.0798 104.138L92.5766 104.04ZM92.7492 106.68L94.2382 106.862L94.2552 106.722L94.2461 106.582L92.7492 106.68ZM92.4271 109.32L90.9381 109.138L90.9241 109.253L90.9279 109.369L92.4271 109.32ZM92.5137 111.96L94.0129 111.912L94.0129 111.911L92.5137 111.96ZM92.5987 114.6L94.055 114.959L94.1046 114.758L94.0979 114.552L92.5987 114.6ZM92.5 75L91 75L91 75.1L92.5 75.1L94 75.1L94 75L92.5 75ZM92.5 75.1L91.0014 75.1645L91.1107 77.7045L92.6093 77.64L94.1079 77.5755L93.9986 75.0355L92.5 75.1ZM92.6093 77.64L91.1176 77.483L90.8397 80.123L92.3314 80.28L93.8232 80.437L94.1011 77.797L92.6093 77.64ZM92.3314 80.28L90.8385 80.425L91.0948 83.065L92.5878 82.92L94.0808 82.775L93.8244 80.135L92.3314 80.28ZM92.5878 82.92L91.089 82.9804L91.1954 85.6204L92.6942 85.56L94.193 85.4996L94.0866 82.8596L92.5878 82.92ZM92.6942 85.56L91.1987 85.4437L90.9935 88.0837L92.4889 88.2L93.9844 88.3163L94.1897 85.6763L92.6942 85.56ZM92.4889 88.2L90.989 88.1948L90.9798 90.8348L92.4798 90.84L93.9798 90.8452L93.9889 88.2052L92.4889 88.2ZM92.4798 90.84L90.9837 90.9474L91.1732 93.5874L92.6694 93.48L94.1655 93.3726L93.976 90.7326L92.4798 90.84ZM92.6694 93.48L91.17 93.4377L91.0956 96.0777L92.595 96.12L94.0944 96.1623L94.1688 93.5223L92.6694 93.48ZM92.595 96.12L91.1054 95.9437L90.793 98.5837L92.2826 98.76L93.7722 98.9363L94.0846 96.2963L92.595 96.12ZM92.2826 98.76L90.8024 99.0032L91.2362 101.643L92.7164 101.4L94.1965 101.157L93.7627 98.5168L92.2826 98.76ZM92.7164 101.4L91.2185 101.321L91.0787 103.961L92.5766 104.04L94.0745 104.119L94.2143 101.479L92.7164 101.4ZM92.5766 104.04L91.0798 104.138L91.2524 106.778L92.7492 106.68L94.2461 106.582L94.0734 103.942L92.5766 104.04ZM92.7492 106.68L91.2603 106.498L90.9381 109.138L92.4271 109.32L93.916 109.502L94.2382 106.862L92.7492 106.68ZM92.4271 109.32L90.9279 109.369L91.0145 112.009L92.5137 111.96L94.0129 111.911L93.9263 109.271L92.4271 109.32ZM92.5137 111.96L91.0144 112.008L91.0995 114.648L92.5987 114.6L94.0979 114.552L94.0129 111.912L92.5137 111.96ZM92.5987 114.6L91.1424 114.241L91.0437 114.641L92.5 115L93.9563 115.359L94.055 114.959L92.5987 114.6Z" fill="black"/>
<path d="M16.1 91.5V93H16.1323L16.1645 92.9986L16.1 91.5ZM18.64 91.3907L18.797 89.8989L18.6865 89.8873L18.5755 89.8921L18.64 91.3907ZM21.28 91.6686L21.123 93.1603L21.2739 93.1762L21.425 93.1615L21.28 91.6686ZM23.92 91.4122L23.8596 89.9134L23.8172 89.9151L23.775 89.9192L23.92 91.4122ZM26.56 91.3058L26.6763 89.8103L26.588 89.8034L26.4996 89.807L26.56 91.3058ZM29.2 91.5111L29.0837 93.0065L29.1392 93.0109L29.1948 93.011L29.2 91.5111ZM31.84 91.5202L31.8348 93.0202L31.8912 93.0204L31.9474 93.0163L31.84 91.5202ZM34.48 91.3306L34.5223 89.8312L34.4473 89.8291L34.3726 89.8345L34.48 91.3306ZM37.12 91.405L37.2963 89.9154L37.2295 89.9075L37.1623 89.9056L37.12 91.405ZM39.76 91.7174L39.5837 93.207L39.7941 93.2319L40.0032 93.1976L39.76 91.7174ZM42.4 91.2836L42.4793 89.7857L42.3171 89.7771L42.1568 89.8035L42.4 91.2836ZM45.04 91.4234L44.9607 92.9213L45.0493 92.926L45.1379 92.9202L45.04 91.4234ZM47.68 91.2507L47.8617 89.7618L47.7223 89.7448L47.5821 89.7539L47.68 91.2507ZM50.32 91.5729L50.1383 93.0619L50.2533 93.0759L50.3692 93.0721L50.32 91.5729ZM52.96 91.4863L52.9117 89.9871L52.9108 89.9871L52.96 91.4863ZM55.6 91.4013L55.6483 92.9005L55.6707 92.8998L55.693 92.8984L55.6 91.4013ZM58.24 91.2373L58.5012 89.7603L58.3253 89.7291L58.147 89.7402L58.24 91.2373ZM60.88 91.7042L60.6188 93.1813L60.879 93.2273L61.1393 93.1816L60.88 91.7042ZM63.52 91.2408L63.6608 89.7474L63.4596 89.7285L63.2607 89.7634L63.52 91.2408ZM66.16 91.4897L66.0192 92.9831L66.1299 92.9935L66.2409 92.9875L66.16 91.4897ZM68.8 91.3471L69.0126 89.8622L68.8665 89.8413L68.7191 89.8493L68.8 91.3471ZM71.44 91.725L71.2274 93.2099L71.4714 93.2448L71.7137 93.1998L71.44 91.725ZM74.08 91.2351L74.1582 89.7371L73.9809 89.7278L73.8063 89.7602L74.08 91.2351ZM76.72 91.373L76.6418 92.8709L76.6647 92.8721L76.6878 92.8726L76.72 91.373ZM79.36 91.4297L79.3278 92.9294L79.3564 92.93L79.3849 92.9295L79.36 91.4297ZM82 91.3858L82.185 89.8972L82.0804 89.8842L81.9751 89.886L82 91.3858ZM84.64 91.7139L84.455 93.2024L84.6155 93.2224L84.7765 93.2076L84.64 91.7139ZM87.28 91.4726L87.2685 89.9726L87.2059 89.9731L87.1435 89.9788L87.28 91.4726ZM89.92 91.4524L90.0888 89.9619L89.9989 89.9517L89.9085 89.9524L89.92 91.4524ZM92.56 91.7513L92.3912 93.2418L92.5876 93.264L92.783 93.2347L92.56 91.7513ZM95.2 91.3545L95.2734 89.8563L95.1245 89.849L94.977 89.8712L95.2 91.3545ZM97.84 91.4839L97.9255 89.9863L97.9134 89.9857L97.84 91.4839ZM100.48 91.6346L100.395 93.1321L100.498 93.138L100.601 93.1297L100.48 91.6346ZM103.12 91.4212L103.106 89.9213L103.052 89.9218L102.999 89.9261L103.12 91.4212ZM105 91.4033H106.5V89.889L104.986 89.9034L105 91.4033ZM16 91.5V93H16.1V91.5V90H16V91.5ZM16.1 91.5L16.1645 92.9986L18.7045 92.8893L18.64 91.3907L18.5755 89.8921L16.0355 90.0014L16.1 91.5ZM18.64 91.3907L18.483 92.8824L21.123 93.1603L21.28 91.6686L21.437 90.1768L18.797 89.8989L18.64 91.3907ZM21.28 91.6686L21.425 93.1615L24.065 92.9052L23.92 91.4122L23.775 89.9192L21.135 90.1756L21.28 91.6686ZM23.92 91.4122L23.9804 92.911L26.6204 92.8046L26.56 91.3058L26.4996 89.807L23.8596 89.9134L23.92 91.4122ZM26.56 91.3058L26.4437 92.8013L29.0837 93.0065L29.2 91.5111L29.3163 90.0156L26.6763 89.8103L26.56 91.3058ZM29.2 91.5111L29.1948 93.011L31.8348 93.0202L31.84 91.5202L31.8452 90.0202L29.2052 90.0111L29.2 91.5111ZM31.84 91.5202L31.9474 93.0163L34.5874 92.8268L34.48 91.3306L34.3726 89.8345L31.7326 90.024L31.84 91.5202ZM34.48 91.3306L34.4377 92.83L37.0777 92.9044L37.12 91.405L37.1623 89.9056L34.5223 89.8312L34.48 91.3306ZM37.12 91.405L36.9437 92.8946L39.5837 93.207L39.76 91.7174L39.9363 90.2278L37.2963 89.9154L37.12 91.405ZM39.76 91.7174L40.0032 93.1976L42.6432 92.7638L42.4 91.2836L42.1568 89.8035L39.5168 90.2373L39.76 91.7174ZM42.4 91.2836L42.3207 92.7815L44.9607 92.9213L45.04 91.4234L45.1193 89.9255L42.4793 89.7857L42.4 91.2836ZM45.04 91.4234L45.1379 92.9202L47.7779 92.7476L47.68 91.2507L47.5821 89.7539L44.9421 89.9266L45.04 91.4234ZM47.68 91.2507L47.4983 92.7397L50.1383 93.0619L50.32 91.5729L50.5017 90.084L47.8617 89.7618L47.68 91.2507ZM50.32 91.5729L50.3692 93.0721L53.0092 92.9855L52.96 91.4863L52.9108 89.9871L50.2708 90.0737L50.32 91.5729ZM52.96 91.4863L53.0083 92.9856L55.6483 92.9005L55.6 91.4013L55.5517 89.9021L52.9117 89.9871L52.96 91.4863ZM55.6 91.4013L55.693 92.8984L58.333 92.7344L58.24 91.2373L58.147 89.7402L55.507 89.9042L55.6 91.4013ZM58.24 91.2373L57.9788 92.7144L60.6188 93.1813L60.88 91.7042L61.1412 90.2271L58.5012 89.7603L58.24 91.2373ZM60.88 91.7042L61.1393 93.1816L63.7793 92.7182L63.52 91.2408L63.2607 89.7634L60.6207 90.2268L60.88 91.7042ZM63.52 91.2408L63.3792 92.7342L66.0192 92.9831L66.16 91.4897L66.3008 89.9963L63.6608 89.7474L63.52 91.2408ZM66.16 91.4897L66.2409 92.9875L68.8809 92.8449L68.8 91.3471L68.7191 89.8493L66.0791 89.9919L66.16 91.4897ZM68.8 91.3471L68.5874 92.8319L71.2274 93.2099L71.44 91.725L71.6526 90.2402L69.0126 89.8622L68.8 91.3471ZM71.44 91.725L71.7137 93.1998L74.3537 92.7099L74.08 91.2351L73.8063 89.7602L71.1663 90.2502L71.44 91.725ZM74.08 91.2351L74.0018 92.733L76.6418 92.8709L76.72 91.373L76.7982 89.875L74.1582 89.7371L74.08 91.2351ZM76.72 91.373L76.6878 92.8726L79.3278 92.9294L79.36 91.4297L79.3922 89.93L76.7522 89.8733L76.72 91.373ZM79.36 91.4297L79.3849 92.9295L82.0249 92.8856L82 91.3858L81.9751 89.886L79.335 89.9299L79.36 91.4297ZM82 91.3858L81.815 92.8743L84.455 93.2024L84.64 91.7139L84.825 90.2253L82.185 89.8972L82 91.3858ZM84.64 91.7139L84.7765 93.2076L87.4165 92.9663L87.28 91.4726L87.1435 89.9788L84.5035 90.2201L84.64 91.7139ZM87.28 91.4726L87.2915 92.9725L89.9315 92.9523L89.92 91.4524L89.9085 89.9524L87.2685 89.9726L87.28 91.4726ZM89.92 91.4524L89.7512 92.9429L92.3912 93.2418L92.56 91.7513L92.7288 90.2608L90.0888 89.9619L89.92 91.4524ZM92.56 91.7513L92.783 93.2347L95.423 92.8378L95.2 91.3545L94.977 89.8712L92.337 90.268L92.56 91.7513ZM95.2 91.3545L95.1266 92.8527L97.7666 92.9821L97.84 91.4839L97.9134 89.9857L95.2734 89.8563L95.2 91.3545ZM97.84 91.4839L97.7545 92.9814L100.395 93.1321L100.48 91.6346L100.565 90.137L97.9255 89.9863L97.84 91.4839ZM100.48 91.6346L100.601 93.1297L103.241 92.9163L103.12 91.4212L102.999 89.9261L100.359 90.1394L100.48 91.6346ZM103.12 91.4212L103.134 92.9211L105.014 92.9033L105 91.4033L104.986 89.9034L103.106 89.9213L103.12 91.4212ZM105 91.4033H103.5V91.5H105H106.5V91.4033H105Z" fill="black"/>
<path d="M26.9159 102.946L25.4567 103.294L25.5967 103.881L26.1053 104.208L26.9159 102.946ZM26.331 100.49L27.7901 100.143L27.7333 99.9045L27.6036 99.6966L26.331 100.49ZM24.9306 98.2457L26.2033 97.4518L25.9418 97.0326L25.4824 96.8508L24.9306 98.2457ZM22.4681 97.2715L23.0199 95.8767L22.7468 95.7687L22.4533 95.7716L22.4681 97.2715ZM19.9077 97.2968L19.8929 95.7968L19.6493 95.7992L19.419 95.8786L19.9077 97.2968ZM17.4627 98.1394L16.974 96.7213L16.6016 96.8496L16.3403 97.1443L17.4627 98.1394ZM15.7207 100.104L14.5983 99.1092L14.336 99.405L14.2536 99.7917L15.7207 100.104ZM15.1803 102.64L16.5215 103.312L16.6074 103.14L16.6474 102.953L15.1803 102.64ZM27 103L27.8106 101.738L27.7265 101.684L26.9159 102.946L26.1053 104.208L26.1894 104.262L27 103ZM26.9159 102.946L28.375 102.598L27.7901 100.143L26.331 100.49L24.8718 100.838L25.4567 103.294L26.9159 102.946ZM26.331 100.49L27.6036 99.6966L26.2033 97.4518L24.9306 98.2457L23.6579 99.0396L25.0583 101.284L26.331 100.49ZM24.9306 98.2457L25.4824 96.8508L23.0199 95.8767L22.4681 97.2715L21.9163 98.6663L24.3788 99.6405L24.9306 98.2457ZM22.4681 97.2715L22.4533 95.7716L19.8929 95.7968L19.9077 97.2968L19.9226 98.7967L22.4829 98.7714L22.4681 97.2715ZM19.9077 97.2968L19.419 95.8786L16.974 96.7213L17.4627 98.1394L17.9514 99.5575L20.3965 98.7149L19.9077 97.2968ZM17.4627 98.1394L16.3403 97.1443L14.5983 99.1092L15.7207 100.104L16.8431 101.099L18.5851 99.1345L17.4627 98.1394ZM15.7207 100.104L14.2536 99.7917L13.7133 102.327L15.1803 102.64L16.6474 102.953L17.1877 100.417L15.7207 100.104ZM15.1803 102.64L13.8391 101.968L13.6588 102.328L15 103L16.3412 103.672L16.5215 103.312L15.1803 102.64Z" fill="black"/>
<path d="M40.9159 102.946L39.4567 103.294L39.5967 103.881L40.1053 104.208L40.9159 102.946ZM40.331 100.49L41.7901 100.143L41.7333 99.9045L41.6036 99.6966L40.331 100.49ZM38.9306 98.2457L40.2033 97.4518L39.9418 97.0326L39.4824 96.8508L38.9306 98.2457ZM36.4681 97.2715L37.0199 95.8767L36.7468 95.7687L36.4533 95.7716L36.4681 97.2715ZM33.9077 97.2968L33.8929 95.7968L33.6493 95.7992L33.419 95.8786L33.9077 97.2968ZM31.4627 98.1394L30.974 96.7213L30.6016 96.8496L30.3403 97.1443L31.4627 98.1394ZM29.7207 100.104L28.5983 99.1092L28.336 99.405L28.2536 99.7917L29.7207 100.104ZM29.1803 102.64L30.5215 103.312L30.6074 103.14L30.6474 102.953L29.1803 102.64ZM41 103L41.8106 101.738L41.7265 101.684L40.9159 102.946L40.1053 104.208L40.1894 104.262L41 103ZM40.9159 102.946L42.375 102.598L41.7901 100.143L40.331 100.49L38.8718 100.838L39.4567 103.294L40.9159 102.946ZM40.331 100.49L41.6036 99.6966L40.2033 97.4518L38.9306 98.2457L37.6579 99.0396L39.0583 101.284L40.331 100.49ZM38.9306 98.2457L39.4824 96.8508L37.0199 95.8767L36.4681 97.2715L35.9163 98.6663L38.3788 99.6405L38.9306 98.2457ZM36.4681 97.2715L36.4533 95.7716L33.8929 95.7968L33.9077 97.2968L33.9226 98.7967L36.4829 98.7714L36.4681 97.2715ZM33.9077 97.2968L33.419 95.8786L30.974 96.7213L31.4627 98.1394L31.9514 99.5575L34.3965 98.7149L33.9077 97.2968ZM31.4627 98.1394L30.3403 97.1443L28.5983 99.1092L29.7207 100.104L30.8431 101.099L32.5851 99.1345L31.4627 98.1394ZM29.7207 100.104L28.2536 99.7917L27.7133 102.327L29.1803 102.64L30.6474 102.953L31.1877 100.417L29.7207 100.104ZM29.1803 102.64L27.8391 101.968L27.6588 102.328L29 103L30.3412 103.672L30.5215 103.312L29.1803 102.64Z" fill="black"/>
<path d="M53.9159 102.946L52.4567 103.294L52.5967 103.881L53.1053 104.208L53.9159 102.946ZM53.331 100.49L54.7901 100.143L54.7333 99.9045L54.6036 99.6966L53.331 100.49ZM51.9306 98.2457L53.2033 97.4518L52.9418 97.0326L52.4824 96.8508L51.9306 98.2457ZM49.4681 97.2715L50.0199 95.8767L49.7468 95.7687L49.4533 95.7716L49.4681 97.2715ZM46.9077 97.2968L46.8929 95.7968L46.6493 95.7992L46.419 95.8786L46.9077 97.2968ZM44.4627 98.1394L43.974 96.7213L43.6016 96.8496L43.3403 97.1443L44.4627 98.1394ZM42.7207 100.104L41.5983 99.1092L41.336 99.405L41.2536 99.7917L42.7207 100.104ZM42.1803 102.64L43.5215 103.312L43.6074 103.14L43.6474 102.953L42.1803 102.64ZM54 103L54.8106 101.738L54.7265 101.684L53.9159 102.946L53.1053 104.208L53.1894 104.262L54 103ZM53.9159 102.946L55.375 102.598L54.7901 100.143L53.331 100.49L51.8718 100.838L52.4567 103.294L53.9159 102.946ZM53.331 100.49L54.6036 99.6966L53.2033 97.4518L51.9306 98.2457L50.6579 99.0396L52.0583 101.284L53.331 100.49ZM51.9306 98.2457L52.4824 96.8508L50.0199 95.8767L49.4681 97.2715L48.9163 98.6663L51.3788 99.6405L51.9306 98.2457ZM49.4681 97.2715L49.4533 95.7716L46.8929 95.7968L46.9077 97.2968L46.9226 98.7967L49.4829 98.7714L49.4681 97.2715ZM46.9077 97.2968L46.419 95.8786L43.974 96.7213L44.4627 98.1394L44.9514 99.5575L47.3965 98.7149L46.9077 97.2968ZM44.4627 98.1394L43.3403 97.1443L41.5983 99.1092L42.7207 100.104L43.8431 101.099L45.5851 99.1345L44.4627 98.1394ZM42.7207 100.104L41.2536 99.7917L40.7133 102.327L42.1803 102.64L43.6474 102.953L44.1877 100.417L42.7207 100.104ZM42.1803 102.64L40.8391 101.968L40.6588 102.328L42 103L43.3412 103.672L43.5215 103.312L42.1803 102.64Z" fill="black"/>
<path d="M77.9159 102.946L76.4567 103.294L76.5967 103.881L77.1053 104.208L77.9159 102.946ZM77.331 100.49L78.7901 100.143L78.7333 99.9045L78.6036 99.6966L77.331 100.49ZM75.9306 98.2457L77.2033 97.4518L76.9418 97.0326L76.4824 96.8508L75.9306 98.2457ZM73.4681 97.2715L74.0199 95.8767L73.7468 95.7687L73.4533 95.7716L73.4681 97.2715ZM70.9077 97.2968L70.8929 95.7968L70.6493 95.7992L70.419 95.8786L70.9077 97.2968ZM68.4627 98.1394L67.974 96.7213L67.6016 96.8496L67.3403 97.1443L68.4627 98.1394ZM66.7207 100.104L65.5983 99.1092L65.336 99.405L65.2536 99.7917L66.7207 100.104ZM66.1803 102.64L67.5215 103.312L67.6074 103.14L67.6474 102.953L66.1803 102.64ZM78 103L78.8106 101.738L78.7265 101.684L77.9159 102.946L77.1053 104.208L77.1894 104.262L78 103ZM77.9159 102.946L79.375 102.598L78.7901 100.143L77.331 100.49L75.8718 100.838L76.4567 103.294L77.9159 102.946ZM77.331 100.49L78.6036 99.6966L77.2033 97.4518L75.9306 98.2457L74.6579 99.0396L76.0583 101.284L77.331 100.49ZM75.9306 98.2457L76.4824 96.8508L74.0199 95.8767L73.4681 97.2715L72.9163 98.6663L75.3788 99.6405L75.9306 98.2457ZM73.4681 97.2715L73.4533 95.7716L70.8929 95.7968L70.9077 97.2968L70.9226 98.7967L73.4829 98.7714L73.4681 97.2715ZM70.9077 97.2968L70.419 95.8786L67.974 96.7213L68.4627 98.1394L68.9514 99.5575L71.3965 98.7149L70.9077 97.2968ZM68.4627 98.1394L67.3403 97.1443L65.5983 99.1092L66.7207 100.104L67.8431 101.099L69.5851 99.1345L68.4627 98.1394ZM66.7207 100.104L65.2536 99.7917L64.7133 102.327L66.1803 102.64L67.6474 102.953L68.1877 100.417L66.7207 100.104ZM66.1803 102.64L64.8391 101.968L64.6588 102.328L66 103L67.3412 103.672L67.5215 103.312L66.1803 102.64Z" fill="black"/>
<path d="M91.9167 102.945L90.47 103.341L90.6187 103.884L91.0877 104.195L91.9167 102.945ZM91.2528 100.522L92.6995 100.125L92.6299 99.8714L92.4779 99.6563L91.2528 100.522ZM89.7268 98.3617L90.9519 97.4962L90.6897 97.1251L90.2657 96.9619L89.7268 98.3617ZM87.2506 97.4083L87.7896 96.0085L87.5872 95.9306L87.371 95.9132L87.2506 97.4083ZM84.6734 97.2008L84.7939 95.7056L84.6385 95.6931L84.4838 95.7128L84.6734 97.2008ZM82.0881 97.5303L81.8985 96.0423L81.5771 96.0833L81.3013 96.2532L82.0881 97.5303ZM79.8484 98.9101L79.0616 97.633L78.7473 97.8267L78.5588 98.1441L79.8484 98.9101ZM78.5256 101.137L77.236 100.371L77.1168 100.572L77.0642 100.799L78.5256 101.137ZM78.095 103V104.5H79.2878L79.5564 103.338L78.095 103ZM92 103L92.8289 101.75L92.7456 101.695L91.9167 102.945L91.0877 104.195L91.1711 104.25L92 103ZM91.9167 102.945L93.3633 102.548L92.6995 100.125L91.2528 100.522L89.8061 100.918L90.47 103.341L91.9167 102.945ZM91.2528 100.522L92.4779 99.6563L90.9519 97.4962L89.7268 98.3617L88.5017 99.2272L90.0277 101.387L91.2528 100.522ZM89.7268 98.3617L90.2657 96.9619L87.7896 96.0085L87.2506 97.4083L86.7117 98.8082L89.1878 99.7615L89.7268 98.3617ZM87.2506 97.4083L87.371 95.9132L84.7939 95.7056L84.6734 97.2008L84.553 98.6959L87.1302 98.9035L87.2506 97.4083ZM84.6734 97.2008L84.4838 95.7128L81.8985 96.0423L82.0881 97.5303L82.2778 99.0182L84.8631 98.6887L84.6734 97.2008ZM82.0881 97.5303L81.3013 96.2532L79.0616 97.633L79.8484 98.9101L80.6352 100.187L82.8749 98.8074L82.0881 97.5303ZM79.8484 98.9101L78.5588 98.1441L77.236 100.371L78.5256 101.137L79.8153 101.903L81.1381 99.6762L79.8484 98.9101ZM78.5256 101.137L77.0642 100.799L76.6335 102.662L78.095 103L79.5564 103.338L79.9871 101.475L78.5256 101.137ZM78.095 103V101.5H78V103V104.5H78.095V103Z" fill="black"/>
<path d="M105.917 102.945L104.47 103.341L104.619 103.884L105.088 104.195L105.917 102.945ZM105.253 100.522L106.699 100.125L106.63 99.8714L106.478 99.6563L105.253 100.522ZM103.727 98.3617L104.952 97.4962L104.69 97.1251L104.266 96.9619L103.727 98.3617ZM101.251 97.4083L101.79 96.0085L101.587 95.9306L101.371 95.9132L101.251 97.4083ZM98.6734 97.2008L98.7939 95.7056L98.6385 95.6931L98.4838 95.7128L98.6734 97.2008ZM96.0881 97.5303L95.8985 96.0423L95.5771 96.0833L95.3013 96.2532L96.0881 97.5303ZM93.8484 98.9101L93.0616 97.633L92.7473 97.8267L92.5588 98.1441L93.8484 98.9101ZM92.5256 101.137L91.236 100.371L91.1168 100.572L91.0642 100.799L92.5256 101.137ZM92.095 103V104.5H93.2878L93.5564 103.338L92.095 103ZM106 103L106.829 101.75L106.746 101.695L105.917 102.945L105.088 104.195L105.171 104.25L106 103ZM105.917 102.945L107.363 102.548L106.699 100.125L105.253 100.522L103.806 100.918L104.47 103.341L105.917 102.945ZM105.253 100.522L106.478 99.6563L104.952 97.4962L103.727 98.3617L102.502 99.2272L104.028 101.387L105.253 100.522ZM103.727 98.3617L104.266 96.9619L101.79 96.0085L101.251 97.4083L100.712 98.8082L103.188 99.7615L103.727 98.3617ZM101.251 97.4083L101.371 95.9132L98.7939 95.7056L98.6734 97.2008L98.553 98.6959L101.13 98.9035L101.251 97.4083ZM98.6734 97.2008L98.4838 95.7128L95.8985 96.0423L96.0881 97.5303L96.2778 99.0182L98.8631 98.6887L98.6734 97.2008ZM96.0881 97.5303L95.3013 96.2532L93.0616 97.633L93.8484 98.9101L94.6352 100.187L96.8749 98.8074L96.0881 97.5303ZM93.8484 98.9101L92.5588 98.1441L91.236 100.371L92.5256 101.137L93.8153 101.903L95.1381 99.6762L93.8484 98.9101ZM92.5256 101.137L91.0642 100.799L90.6335 102.662L92.095 103L93.5564 103.338L93.9871 101.475L92.5256 101.137ZM92.095 103V101.5H92V103V104.5H92.095V103Z" fill="black"/>
</svg>
