<svg xmlns="http://www.w3.org/2000/svg" width="120" height="120" fill="none" viewBox="0 0 120 120"><path fill="#000" d="M60.45 1.57h.01l.727.235.235.726.012.035.703 1.899 1.172.726 1.254.247 3.222.609-2.578 2.039-1.406 1.101L64 10.57l.129.88-.703.527-.621.48-.75.563-.832-.422-.53-.266.127.215 1.477 2.46.059.212.632 2.437 1.137 2.203.035.07.035.094.89 2.391 1.278 2.11.059.105.047.105.996 2.438 1.008 2.45.023.07.68 1.91-.616.214.592.23-.023.046.371.03-.094 1.112.012 2.52.21 2.648.013.106-.012.094-.152 2.648-.13 2.473.387 2.496.035.199-.023.188-.293 2.542.024 2.555-.012.012.246 2.508.012.164-.024.164-.316 2.531.046 2.49.223.01h-.011l.89.023-.012-.292-.011-.118.023-.129.14-1.242 2.977.352-.129 1.09.094 1.734h.047v1.57h-.012v1.91l.083 2.637v.106l-.012.117-.293 2.508.21 2.472v.2l-.128 2.496.34 2.507.011.13v.116l-.026.729.987-.174.258-.047.27.047 1.101.188.153-.996-.083-2.473-.093-2.637-.024-.867.739-.457 1.195-.75.703-.434.75.364 2.332 1.136.27.13.199.234 1.71 1.945.036.047.047.058.41.575 1.441-2.063.164-.234.246-.164 2.18-1.43.563-.363.644.164 1.266.328 1.008.27.105 1.043.246 2.636.024.153-.024.152-.27 2.578.035 1.025.9-.158.257-.047.27.047 1.101.188.153-.996-.083-2.473-.093-2.637-.024-.867.739-.457 1.195-.75.703-.434.75.364 2.332 1.136.27.13.199.234 1.711 1.945.035.047.047.058.41.575 1.441-2.063.164-.234.247-.164 2.179-1.43.563-.363.644.164 1.266.328 1.008.27.105 1.043.246 2.636.024.153-.024.152-.269 2.578.082 2.402-1.172.035-.293.106-1.418.492-.035-.094-.071-.222-.011-.223-.082-2.543v-.105l.011-.106.27-2.508-.117-1.09-1.008.657-1.184 1.723-.55 2.261-.012.035v.024l-.457 1.617-2.942-.316-.128-2.227-1.231-1.687-1.523-1.735-1.067-.527.059 1.523.094 2.637v.129l-.024.14-.375 2.626-.21 1.523-1.536-.27-2.379-.421-2.309.421-1.769.317v-1.814l-.02-.061-.011-.223-.082-2.543v-.105l.011-.106.27-2.508-.117-1.09-1.008.657-1.184 1.723-.55 2.261-.012.035v.024l-.457 1.617-2.942-.316-.129-2.227-1.23-1.687-1.523-1.735-1.067-.527.059 1.523.094 2.637v.129l-.024.14-.375 2.626-.21 1.523-1.536-.27-2.379-.421-1.333.243-.026 1.475v.012l-.07 2.637.011 2.52.14 2.636.013.152-.024.153-.375 2.472v2.52l.387 2.484.011.094v.094l.07 2.636v.141l-.023.141-.398 2.367.445 2.402.035.235-.035.234-.34 2.543.012 1.5h.082v1.793l-.023-.012.136 1.601.204-.003h.105l.106.012 2.496.316 2.46-.234h.13l2.636-.024h.094l.082.012 2.46.281 2.427-.375.152-.023.152.011 2.637.129h.012l2.52.153L95 114.43l.059-.012h.047l2.648-.012h.105l.106.012 2.402.328 2.403-.434.257-.046.258.035 2.531.422 2.321-.059 2.601-.398.293-.047.281.07 1.043.258-.703 2.906-.761-.187-2.344.363-.094.023h-.094l-2.636.071h-.141l-2.531-.422-2.379.433-.234.047-.235-.035-2.566-.34h-2.403l-2.636.223-.106.012-.094-.012-2.648-.152v-.012l-2.473-.117-2.496.386-.199.036-.187-.024-2.543-.293-2.555.024-.012-.012-2.508.246-.164.012-.164-.024-2.531-.316-2.452.045-.091.08-.61-.024-2.542-.129-2.438.375-.2.036-.198-.024-1.184-.138-.492.095-.234.047-.246-.035-.372-.055-.152.012h-.152l-2.649-.07h-.058l-.07-.012-.307-.037-1.69.158-.164.012-.164-.012-1.496-.187-1.043.171-1.242.211-.107-.302-.424.076-.258.047-.27-.047-1.608-.28-1.321-.029h-.047l-.85-.042-1.096.07h-.023l-.023.011-5.274.164h-.117l-.117-.011-2.543-.305-2.461.164-.082.012-.094-.012-2.45-.141-2.507.422-.21.035-.212-.023-2.555-.316-2.484-.071-2.59.188-.058.011h-.059l-2.637-.011h-.117l-2.578-.211-2.45.094.012.011-2.636.258-.153.012-.152-.012-2.496-.269-2.46.105H8v-3h.035l2.543-.105.106-.012.117.012 2.484.269 2.485-.246h.093l2.637-.106.094-.011.082.011 2.637.2-.012.011h2.437l2.637-.187.07-.012.082.012 2.637.07h.07l.059.012 2.438.281 2.425-.398.164-.024.164.012 2.532.141 2.566-.176.14-.012.141.024 2.508.304 2.543-.082.485-.013-.11-.834-.023-.211.023-.2.363-2.507-.14-2.485v-.222l.246-2.426-.434-2.449-.047-.258.047-.27.434-2.496-.153-2.426v-.023l-.011-.024-.164-5.273v-.117l.011-.117.305-2.555-.164-2.45-.012-.081.012-.094.129-2.473L45.3 82l-.035-.21.014-.139-1.858-.338-2.379.421-1.535.27-.211-1.523-.375-2.625-.024-.141v-.13l.094-2.636.059-1.523-1.067.527-1.523 1.734-1.23 1.688-.13 2.227-2.94.316-.458-1.617v-.024l-.012-.035-.55-2.261-1.184-1.723-1.008-.656-.117 1.09.27 2.507.011.106v.105l-.082 2.543-.011.223-.02.061v1.814l-1.77-.317-2.308-.421-2.379.421-1.535.27-.211-1.523-.375-2.625-.024-.141v-.13l.094-2.636.059-1.523-1.067.527-1.523 1.734-1.23 1.688-.13 2.227-2.94.316-.458-1.617v-.024l-.012-.035-.55-2.261-1.184-1.723-1.008-.656-.117 1.09.27 2.507.011.106v.105l-.082 2.543-.011.223-.07.222-.036.094L8.996 80l-.293-.106-1.172-.035.082-2.402-.27-2.578-.023-.152.024-.153.246-2.636.105-1.044 1.008-.269 1.266-.328.644-.164.563.363 2.18 1.43.246.164.164.234 1.441 2.063.41-.575.047-.058.035-.047 1.711-1.945.2-.235.269-.129 2.332-1.136.75-.364.703.434 1.195.75.739.457-.024.867-.094 2.637-.082 2.473.153.996 1.101-.188.27-.047.258.047.898.158.035-1.025-.27-2.578-.023-.152.024-.153.246-2.636.105-1.044 1.008-.269 1.266-.328.644-.164.563.363 2.18 1.43.246.164.164.234 1.441 2.063.41-.575.047-.058.035-.047 1.711-1.945.2-.235.269-.129 2.332-1.136.75-.364.703.434 1.195.75.739.457-.024.867-.093 2.637-.083 2.473.153.996 1.101-.188.27-.047.258.047 1.935.341.06-2.08-.187-2.636-.011-.058v-.059l.011-2.637v-.117L45.7 68.5l-.105-2.437-.258-2.637-.012-.153.012-.152.27-2.543-.106-2.414V58h3v.035l.047 1.371h.07l.082-.011h.082l.884.041.054-.924-.422-2.508-.024-.211.024-.211.293-2.508.082-2.484-.188-2.637v-2.812l.012-.059.2-2.566-.106-2.45-.246-2.636-.024-.153.024-.152.258-2.555-.106-2.402v-.164h1.223l-.066-.158-1.024-.455.047-.094.011-.035.012-.024 1.09-2.168.785-2.425.047-.141.082-.129 1.266-2.227v-.011l1.172-2.367.832-2.332.011-.047.024-.047 1.066-2.414.024-.059.035-.047 1.242-2.332.484-1.083-2.156 1.474.48-3.375.165-1.16-.387-1.278-1.688-1.37-2.742-2.227 3.504-.434 2.227-.281.867-.703.41-1.465.422-1.5zm-2.126 100.254-.21.141-.258.07-1.899.469-.55 1.254.081 2.308.082 2.637v.117l-.011.118-.305 2.531.14 2.226.191.542.075.005 1.112.111.298-.048.211-.035.211.023 1.322.158 1.909-.103.14-.012.153.023.686.1 1.212-.01h.082l.094.012.853.095.489-.035.583-.108.54-.261.129-1.722-.094-2.438-.246-2.637-.024-.152.024-.152.258-2.578-.07-1.442-1.56-.984-2.261-.867-1.746-.481zm-6.613 10.504-.855.246-.376.106-.374-.082-1.465-.328-.188.023-.164 1.16.117.844.443.025 1.303-.08.176-.012.176.036.752.132 1.1.016.11-.002-.025-.084-.011-.199-.176-2.637-.012-.14.024-.141.025-.207h-.967zm16.984.277-.14 1.753.242.013-.009.008.115.006 1.424.025.404-.359-.106-1.418-1.078-.024h-.059l-.793-.054zm-.308-19.976-.176.023-2.79-.199-.745.014.016.465a1.52 1.52 0 0 1-.893 1.44l-1.085.49-1.087.49c-.244.11-.474.138-.647.137l-1.485-.005-1.484-.004a1.52 1.52 0 0 1-1.309-.748l-.578-.98-.58-.98a1.5 1.5 0 0 1-.158-.378l-.394-.023-2.554.27-.165.023-.175-.023-2.485-.305-1.183.082.082 2.496.082 2.59.164 2.648.011.176-.035.176-.422 2.379.422 2.379.035.199-.011.199-.246 2.473.058 1.113.2-.023.28.058 1.337.293.48-.129 1.671-.489.032-.265-.082-2.531-.082-2.637-.011-.339.128-.317.996-2.238.294-.668.703-.176 2.343-.597 2.004-1.36.575-.387.667.188 2.508.691.082.012.07.035 2.462.95.14.058.13.082 2.214 1.406-.504.785 1.29.282v.035l.116 2.531v.117l-.011.106-.27 2.484.23 2.337 1.126.069h-.012l.89.024v-.328l.012-.106.328-2.414-.433-2.39-.047-.258.047-.258.398-2.484-.058-2.508H70.8l-.375-2.461-.012-.106v-.117l.012-2.648v-.106l.011-.105.153-1.067zm-9.832-4.185-.046.001-.108.689-.034 1.403-.027 1.07.367.62.15.254.648.003 1.173.003.803-.36.177-.081-.016-.493-.053-1.485-.001-.036-.043-1.401-.003-.091-.18-.017-1.402-.13zm-3.75-7.462-.14.024-2.544.234-.27.024-.257-.059-2.04-.55-1.182.453-.071.623.398 2.425.024.164-.012.164-.14 2.532.152 2.367.82-.047.14-.012.141.024 2.473.293 2.473-.258.105-.012.117.012.403.02.01-.425c.002-.048.005-.126.02-.22l.154-.99.04-.25c-.072-.304-.094-.754-.038-1a2.7 2.7 0 0 1 .435-.649 1.5 1.5 0 0 1 .62-.324 2 2 0 0 1 .186-.034l.069-.007.03-.002h.01l.014-.001.015-.001 2.97-.107.223.005 1.486.138 1.484.138a1.52 1.52 0 0 1 1.37 1.355l.007.107.043 1.402.028.932.91-.017h.14l2.461.176 2.484-.375.141-.023-.047-.868v-.07l-.012-2.637v-.058l.07-2.637.034-1.882-1.217-.179-2.379.094-.047.012h-.058l-2.438-.082h-.082l-2.262-.2-2.25.704-.503.164-.504-.2-2.051-.831zm1.312-5.076h.012l-3 .258-.129.012-.14-.012-2.86-.258-1.366.045.03.424.012.07-.012.082-.034 1.274.327-.123.445-.164.47.117 2.226.597 2.144-.187v-.012l2.602-.492.433-.094.41.176 1.946.797 2.015-.633.282-.094.304.024 2.461.223.012-.012 2.367.082 2.438-.106.14-.011.141.023 1.047.152.008-.271-.248-1.896-2.635-.061-2.871.176-.047.011H65l-3-.011h-.105l-2.954-.2zM48.43 62.418l-.094.855.246 2.496v.094l.105 2.637.012.094-.011.082-.2 2.636-.008 1.635 1.461-.053.106-.011.094.011 2.87.27 2.86-.246h.07l3-.106.082-.011.082.011 3 .2-.011.011h2.812l3-.187.07-.012.06.012 2.57.06.019-.412-.2-2.554-.01-.153.022-.14.282-2.531-.07-2.543v-1.958l-1.102-.023h-.024l-.164-.008-.117 2.266.457 2.45.153.82-.621.562-1.43 1.289-.387.352-.527.035-2.649.14h-.222l-2.414-.246-2.461.434-.258.047-.27-.047-2.484-.434-2.438.152h-.023l-.035.012-2.59.059-1.477.023-.047-1.476-.093-2.637v-.117l.011-.117.305-2.461-.08-1.242-.928-.044zm12.43-8.537 1.511.615.223.094.175.152 2.016 1.7.434.374.082.575.258 1.91.234 1.699h-.68l-.304 1.383-.141.586-.492.328-2.168 1.441-.246.164-.293.059-2.532.516-.492.093-.457-.21-2.425-1.15-.493-.245-.222-.492-1.102-2.426-.164-.352.035-.398.223-2.578.035-.399.223-.328 1.511-2.18.293-.445.516-.14.264-.08-2.682-.24-1.49.048-.213 1.803.398 2.402.024.153v.164L52.592 61h.197v2.156l-.074-.02.027.45.012.14-.012.141-.316 2.578.047.996 1.043-.023-.012-.012 2.648-.164.176-.011.176.035 2.379.421 2.379-.421.199-.035.2.011 2.483.246 2.051-.105.41-.375-.34-1.817-.034-.175.011-.176.13-2.637.058-2.59-.047-2.59v-.105l.011-.105.317-2.497-.03-.3-.693-.004h-.094l-2.953-.2zm-3.094 3.064-.973 1.418-.164 1.793.715 1.559 1.476.715 1.758-.352 1.43-.95.433-1.933.047-.234-.093-.598-1.383-1.183-1.676-.692zm.593-23h-.023l-2.332.328-.316.047-2.215-.656-.886.352.026.554v.117l-.011.106-.258 2.508.234 2.472.012.047v.035l.105 2.649v.176l-.21 2.636v2.532l.175 2.52.012.081v.07l-.014.421 1.283-.045.106-.012.094.011 2.87.27 2.86-.246h.07l3-.105.082-.012.082.011 3 .2-.011.011h.377l-.018-1.933v-.094l.012-.082.281-2.46-.375-2.427-.023-.152.011-.152.13-2.637v-.012l.152-2.52L66.43 36l-.012-.059v-.047l-.008-1.69-1.289-.505-1.828.633-.48.164-.481-.164-2.098-.703zM57 36.012l.105 1.898.012.153-.023.14-.246 1.688.187.738.48 1.875H55.5v-1.477l-1.36.34-.257-.996-.082-.281.047-.293.258-1.863L54 36.188V36h3zm4 0 .105 1.898.012.153-.023.14-.246 1.688.187.738.48 1.875H59.5v-1.477l-1.36.34-.257-.996-.082-.281.047-.293.258-1.863L58 36.188V36h3zm4 0 .106 1.898.011.153-.023.14-.246 1.688.187.738.48 1.875H63.5v-1.477l-1.36.34-.257-.996-.082-.281.047-.293.258-1.863L62 36.188V36h3zm-9.348-10.54-.011.036-.024.035-1.219 2.145-.796 2.414-.036.105-.156.312.426.122 1.781.543.352-1.926.058-2.555v-.152l.035-.14.586-2.497-.011-.012.106-.612zm6.703-.316L63 27.641l.035.117.012.117.258 2.625v.047l.04.595 1.33-.454.516-.188.473.183-.977-2.374-.972-2.356-1.29-2.156-.07-.129-.046-.129-.055-.144zm-3.351 1.793-.047 2.485-.012.117-.011.105-.212 1.189 1.395-.228.179-.023-.226-2.285-.633-2.497-.035-.128-.011-.141-.024-.176zm-.207-19.578-.176.129.094.27.34 1.183.668-.457 1.03.516-.034-.258-.117-.844.597-.492-1.066-.668-.317-.2z"/></svg>