<svg width="120" height="120" viewBox="0 0 120 120" fill="none" xmlns="http://www.w3.org/2000/svg">
<path d="M62.0098 3.17969L63.6738 5.00781L64.2246 5.61719L64.0137 6.40234L63.6504 7.73828L65.127 8.48828L65.4551 8.65234L65.666 8.95703L67.1895 11.0898L67.2363 11.1484L67.2715 11.207L68.6074 13.5156L68.9004 14.0312L68.8779 14.1191L69.6484 14.2109L71.1367 13.8242L73 13.3555V15.5H71.5586L71.7686 16.3564L72.0625 16.4854L72.0273 16.5791L71.9688 16.708L71.8984 16.8135L70.4922 18.8994L70.3984 19.0166L69.1797 20.4814L69.4375 22.4619L69.4609 22.6611L69.4258 22.8604L69.0508 25.5205L68.9102 26.5166L67.9258 26.7627L66.5596 27.1055L66.6172 27.3379L67.2852 28.5215L67.7891 29.0137L67.8389 29.0635L69.3848 29L69.8066 28.9883L70.1816 29.1875L72.4316 30.4414L72.5957 30.5586L74.459 31.9531L76.7324 32.4688L77.0137 32.5273L77.248 32.6914L79.4512 34.1914L79.6035 34.2852L79.7207 34.4258L80.6035 35.4033L80.7031 35.3711L81.2422 35.6289L83.5391 36.7188L84.043 36.9531L84.2656 37.4688L85.2148 39.6367L85.4961 40.2812L85.1797 40.9023L83.75 43.7617L83.1992 43.9727L81.9277 44.4609L81.7617 44.8965L81.2578 46.9355L81.5938 47.75L81.7305 47.8545L83.8047 49.4717H83.8164L85.9727 51.0537L86.3359 51.3232L86.4883 51.7568L87.1807 53.6768L87.7695 53.3496L88.0732 51.4424L88.376 48.8496L88.3994 48.6514L88.4727 48.4658L89.4512 46.0195L89.6611 45.4951L90.165 45.2393L92.4551 44.0762L92.6377 43.9834L92.8379 43.9434L95.3633 43.4346L95.9551 43.3154L96.4648 43.6406L98.5771 44.9863L98.8662 45.1709L99.0469 45.4619L100.428 47.6943L101.024 48.6582L100.26 49.4951L98.5176 51.4023L97.9404 52.0342L97.1025 51.8584L95.3838 51.499L94.7939 52.0527L94.9609 53.8965L95.3125 56.4561L95.3506 56.7334L95.2861 57.0049L94.7158 59.4199L94.6201 59.8242L94.3301 60.1211L92.4863 62.0156L92.2617 62.2461L91.9619 62.3643L89.4971 63.3369L89.3633 63.3896L89.2217 63.416L87.7861 63.6836L87.1562 65.667L87.1445 65.7139L87.1211 65.7725L86.1484 68.2334L86.125 68.2803L85.0586 70.7061L85 70.8467L84.918 70.9639L83.4414 73.0498L82.3984 75.3115L82.3633 75.3818L82.3164 75.4639L80.9453 77.7139L80.8281 77.8779L79.2578 79.7998L78.2734 82.0381L78.2148 82.167L78.1328 82.2842L76.6445 84.4639L75.2852 86.6553L75.1328 86.8896L74.9102 87.0654L73.3418 88.2285L73.4727 89.918L73.4961 90.2109L73.4023 90.4922L72.6172 92.8711L72.3711 93.6328L71.5977 93.8555L69.4824 94.4531L68.8145 95.9414L69.0605 97.4531L70.748 98.6602L70.9023 98.7705L72.6992 99.0039L73.5078 99.1211L73.8594 99.8594L74.9961 102.297L75.0781 102.473L75.1133 102.66L75.2236 103.256L75.5039 103.192L75.9492 103.099L76.3828 103.263L78.7617 104.177L79.4414 104.435L79.6523 105.138L80.4141 107.669L80.4609 107.821L80.4727 107.985L80.6602 110.353L81.6445 112.438L82.5234 114.114L83.1094 114.29L83.0244 114.571L84.5469 114.746L86.9727 114.371L87.125 114.348L87.2773 114.359L89.9141 114.488H89.9258L92.4453 114.641L95 114.43L95.0586 114.418H95.1055L97.7539 114.406H97.8594L97.9648 114.418L100.367 114.746L102.77 114.312L103.027 114.266L103.285 114.301L105.816 114.723L108.137 114.664L110.738 114.266L111.031 114.219L111.312 114.289L112.355 114.547L111.652 117.453L110.891 117.266L108.547 117.629L108.453 117.652H108.359L105.723 117.723H105.582L103.051 117.301L100.672 117.734L100.438 117.781L100.203 117.746L97.6367 117.406H95.2344L92.5977 117.629L92.4922 117.641L92.3984 117.629L89.75 117.477V117.465L87.2773 117.348L84.7812 117.734L84.582 117.77L84.3945 117.746L81.8516 117.453L79.2969 117.477L79.2852 117.465L76.7773 117.711L76.6133 117.723L76.4492 117.699L73.918 117.383L71.3867 117.43H71.3281L68.6914 117.371H68.6445L66.1719 117.23L63.7109 117.699L63.4766 117.746L63.2305 117.711L60.7227 117.348L58.2383 117.488H58.0156L55.5898 117.242L53.1406 117.676L52.8828 117.723L52.6133 117.676L50.1172 117.242L47.6914 117.395H47.668L47.6445 117.406L44.7559 117.495L44.666 117.652L43.7754 117.526L42.3711 117.57H42.2539L42.1367 117.559L39.957 117.297L38.6426 117.465L37.9863 117.547L37.7852 117.374L37.1328 117.418L37.0508 117.43L36.957 117.418L34.5078 117.277L32 117.699L31.7891 117.734L31.5781 117.711L29.0234 117.395L26.5391 117.324L23.9492 117.512L23.8906 117.523H23.832L21.1953 117.512H21.0781L18.5 117.301L16.0508 117.395L16.0625 117.406L13.4258 117.664L13.2734 117.676L13.1211 117.664L10.625 117.395L8.16406 117.5H8V114.5H8.03516L10.5781 114.395L10.6836 114.383L10.8008 114.395L13.2852 114.664L15.7695 114.418H15.8633L18.5 114.312L18.5938 114.301L18.6758 114.312L21.3125 114.512L21.3008 114.523H23.7383L26.375 114.336L26.4453 114.324L26.5273 114.336L29.1641 114.406H29.2344L29.293 114.418L31.7305 114.699L34.1562 114.301L34.3203 114.277L34.4844 114.289L35.1914 114.328L35.3672 114.243L36.9375 113.423L38.0273 111.853L38.2383 109.591L38.25 109.509L38.2734 109.427L38.8125 106.837L38.8594 106.567L39.0117 106.333L40.3711 104.247L40.793 103.579L41.5898 103.567L42.709 103.541L42.8281 102.227L42.8867 101.676L43.2852 101.289L45.1016 99.5312L45.4062 99.2266L45.8281 99.1445L48.3594 98.582L48.4766 98.5586L48.6055 98.5469L48.8701 98.5332L49.377 97.9219L50.3145 96.7734L50.5254 95.1211L50.4473 95.0029L50.1055 95.1211L49.4609 94.1602L49.3613 94.0117L47.9121 93.9492L46.8574 93.9023L46.541 92.8945L45.7793 90.4688L45.7207 90.2695V90.0586L45.6797 88.5654H44.9453L44.5 87.8975L43.0586 85.7412L43.0352 85.7061L43.0234 85.6826L41.6523 83.4209V83.4092L40.3516 81.2529L38.7109 79.3076L38.6172 79.1904L38.5469 79.0615L37.3516 76.8936L35.8281 74.7139L35.7227 74.5732L35.6641 74.4209L34.6562 71.96V71.9482L33.4844 69.7568L33.4609 69.71L33.4375 69.6514L32.3945 67.2256L32.3828 67.2021V67.1787L31.3516 64.6006L31.3281 64.4717L31.249 64.1006L31.0859 64.0127L29.2109 62.9932L26.8203 61.9385L26.5625 61.833L26.3633 61.6221L24.5352 59.7705L24.3125 59.5479L24.1953 59.2432L23.2812 56.7705L23.1172 56.3135L23.2461 55.8564L23.8555 53.583L23.8438 52.2002L22.6016 51.9072V51.8955L20.1641 51.3564L19.0742 51.1221L18.9922 50.0088L18.8047 47.3721L18.7695 46.7393L19.1914 46.2588L20.8555 44.4424L21.1367 44.1377L21.5352 44.0088L23.9961 43.2705L24.4062 43.1533L24.8164 43.2588L27.3594 43.9268L27.7344 44.0322L28.0156 44.3018L29.8672 46.0947L30.0547 46.2705L30.1719 46.5049L31.3086 48.8018L31.4141 49.0127L31.4492 49.2471L31.8359 51.8604L31.8711 52.0596L31.8477 52.2705L31.707 53.4229L31.7383 53.3271L31.7969 53.1396L31.9023 52.9756L33.332 50.7139L33.4727 50.5029L33.6836 50.3389L35.8047 48.6865L35.9336 48.5811L36.0859 48.5107L37.3115 47.9326L37.4707 46.9355L37.3887 44.7441L36.9766 43.8838L35.8555 43.5039L35.457 43.375L35.1992 43.0586L33.5938 41.1719L32.9375 40.3867L33.418 39.4844L34.6836 37.1641L34.9766 36.625L35.5508 36.4492L37.793 35.7295L37.9668 35.2227L38.1895 34.5781L38.8223 34.3203L41.2949 33.3242L43.5449 32.3867L45.5605 30.9805V30.9688L47.7168 29.4688L48.0566 29.2227L48.4785 29.1992L50.7783 29.0625L50.8633 28.7188L50.9805 28.2852L51.3203 27.9805L52.0459 27.3232L52.0117 27.3252L50.9453 27.3721L50.5469 26.3877L49.5625 23.9502L49.4805 23.7275L49.457 23.4814L49.293 20.9033L48.8477 19.1104L47.4648 17.6104L46.9346 17.2793L46.1758 17.3164H46.0234L46.0137 16.7031L45.7422 16.5322L45.6719 15.7939V15.7002L45.9971 15.6689L45.9766 14.3164H46.0352L48.5664 14.1992H48.6719L48.7773 14.2109L50.5693 14.3799L50.8926 13.3242L50.9629 13.0898L51.1035 12.8789L52.6621 10.7227L52.8379 10.4883L53.084 10.3242L55.3223 8.92969L55.5898 8.75879L55.5645 8.64062L55.0488 6.23828L54.8613 5.37109L55.5293 4.78516L57.2754 3.25L57.6621 2.92188L58.166 2.88672L60.791 2.69922L61.5176 2.64062L62.0098 3.17969ZM57.4395 112.766L57.2871 112.789H57.123L54.5801 112.648L52.0137 112.812L51.873 112.824L51.7441 112.812L49.3301 112.508L47.6191 112.871L46.5518 114.443L47.5039 114.418V114.406L50.1523 114.242L50.3281 114.23L50.5039 114.266L52.8828 114.688L55.2617 114.266L55.4609 114.23L55.6602 114.242L58.1328 114.488L60.7227 114.348L60.8633 114.336L61.0156 114.359L63.418 114.711L65.8086 114.266L65.9844 114.23L66.1602 114.242L68.7969 114.371L68.7852 114.383L71.3633 114.43L72.3232 114.412L71.6191 113.258L70.084 112.555H67.752V112.543L65.2324 112.742H65.0801L62.4434 112.66H62.3027L59.8652 112.367L57.4395 112.766ZM75.8164 106.434L74.7363 106.44L73.5234 106.72L73.2305 106.79L72.9375 106.731L70.4766 106.286L68.0039 106.45H67.957L65.3203 106.532L62.6836 106.626H62.5664L62.4492 106.614L59.9648 106.298L57.457 106.474H57.2695L54.7617 106.333L52.3125 106.743L52.1133 106.778L51.9023 106.755L49.2539 106.45V106.438L46.8164 106.38L44.2148 106.497H44.1914L42.457 106.532L41.6836 107.716L41.2148 109.954L40.9805 112.521L40.9453 112.919L40.7227 113.235L40.0156 114.262L40.9629 114.148L41.1621 114.125L41.3613 114.16L43.084 114.395L43.9746 112.895L44.0098 112.848L44.0332 112.801L45.498 110.68L45.8379 110.188L46.4238 110.07L48.9668 109.531L49.2129 109.473L49.4707 109.508L51.9434 109.824L54.4629 109.648H54.6387L57.1465 109.789L59.5957 109.379L59.8066 109.344L60.0176 109.367L62.6543 109.672L62.6426 109.684L65.0449 109.742L67.6582 109.555H67.7637L70.4121 109.566H70.7285L71.0215 109.695L73.2832 110.727L73.7051 110.914L73.9512 111.312L75.1348 113.27L76.4004 114.23L78.3809 114.441L79.2041 114.239L78.9961 113.845L78.9727 113.81L78.9609 113.786L77.8359 111.384L77.7188 111.138L77.6953 110.868L77.4961 108.384L76.9922 106.708L75.7803 106.24L75.8164 106.434ZM56.7266 101.547H56.6094L53.9727 101.582H53.8672L51.2891 101.406L48.8633 101.535L46.8711 101.98L45.7578 103.059L45.7256 103.424L46.7344 103.38H46.8398L49.4766 103.462H49.6055L52.043 103.755L54.4688 103.356L54.6328 103.333H54.7969L57.3281 103.474L59.8945 103.31L60.0352 103.298L60.1758 103.31L62.6836 103.626L65.2266 103.544L67.8164 103.462L70.4648 103.286H70.6406L70.8164 103.31L72.2324 103.565L72.207 103.422L71.4805 101.863L69.6523 101.629V101.641L67.168 101.383L64.7188 101.723L64.5312 101.758L64.332 101.734L61.7656 101.395L59.3164 101.336L56.7266 101.547ZM53.6543 94.418L53.584 94.9688L53.2324 97.5938L53.1855 98.0273L52.9043 98.3555L52.7822 98.5039L54.0312 98.582L56.5859 98.5469V98.5586L59.1172 98.3477L59.1992 98.3359H59.2812L61.918 98.4062H62L62.0703 98.418L64.4961 98.7344L66.1885 98.4922L65.7793 96.0117L65.709 95.5781L65.8848 95.1562L66.2139 94.416L66.0547 94.4062V94.3945L63.4531 94.2773V94.2656L60.8633 94.2422V94.2305L58.3555 94.4297H58.2031L55.5547 94.3477H55.4258L53.4531 94.1084L53.6543 94.418ZM64.457 88.7529L64.1992 88.7998L63.9414 88.7646L61.457 88.3428L58.9844 88.4014L56.4883 88.7998L56.3828 88.8115H56.2656L53.6172 88.7998H53.5117L53.4062 88.7881L50.8984 88.4131L48.6777 88.5498L48.709 89.7773L49.084 90.9844L50.7129 91.0664L51.4863 91.1016L51.6807 91.3994L52.4727 91.125L52.8008 91.0078L53.1406 91.043L55.7773 91.3594H55.7656L58.168 91.418L60.7695 91.2422H60.9102L63.5469 91.2773H63.5938L66.2305 91.4062H66.2539L68.6094 91.5703L70.0156 91.1719L70.4492 89.8359L70.3672 88.7012L69.4023 88.6592H69.332L69.2617 88.6475L66.8828 88.3193L64.457 88.7529ZM37.4922 51.1592L35.7227 52.542L34.5273 54.4053L33.8359 56.6084L33.5664 58.9873L33.7305 61.3193L34.2461 63.7803L35.1719 66.0771H35.1602L36.168 68.4209L37.375 70.6826L37.4102 70.7529L37.4336 70.8232L38.3828 73.1318L39.8008 75.1592L39.8945 75.2998L41.1016 77.4795L42.7305 79.4014L42.8008 79.4951L42.8711 79.6006L44.207 81.8623H44.2188L45.543 84.0654L46.5508 85.5654H48.2617L50.9102 85.4248L51.0508 85.4131L51.2031 85.4365L53.6758 85.7998H56.1953L58.6797 85.4248L58.7734 85.4131H58.8672L61.5039 85.3428H61.6562L61.7969 85.3662L64.1641 85.7529L66.5664 85.3311L66.8008 85.2842L67.0352 85.3193L69.6016 85.6709L71.6289 85.7529L72.9062 84.8037L74.1367 82.8232L74.1484 82.7881L74.1719 82.7646L75.5898 80.6787L76.6211 78.3818L76.7031 78.2061L76.8203 78.042L78.4258 76.0615L79.7148 73.9639L80.8047 71.6436L80.8633 71.5264L80.9336 71.4209L82.375 69.335L83.3828 67.0732L84.332 64.6709L85.0117 62.4795L84.8828 60.0771L84.8711 59.96L84.8828 59.8311L85.1406 57.4521L84.5312 55.1787V55.167L83.8164 53.1865L82.0352 51.8857L82.0234 51.874L82 51.8623L80.4297 50.6436L78.4141 51.0537L78.3906 51.0654H78.3672L75.7773 51.5107L75.7422 51.5225H75.707L73.082 51.8506L72.9414 51.874L72.8008 51.8623L70.2227 51.6982L67.7617 51.9561L67.6562 51.9678L67.5508 51.9561L65.043 51.8623L62.5703 52.2725L62.3477 52.3076L62.1367 52.2725L59.5586 51.9092L57.0156 51.7686L54.4609 51.8506L54.4023 51.8623L54.332 51.8506L51.6953 51.71H51.6367L51.5664 51.6982L49.0117 51.335L46.4922 51.2646L43.8906 51.3115H43.7266L43.5742 51.2881L41.0547 50.7842L39.9189 50.7178L39.9082 50.791L39.0371 50.666L38.6406 50.6436H38.6055L37.4922 51.1592ZM60.2266 57.5938L62.6172 58.3906L63.5195 58.6953L63.625 59.6562L63.7598 60.877L64.7891 60.8633H64.9414L65.0938 60.8984L67.3555 61.3438L69.6406 60.8281L69.8164 60.7812L70.0039 60.793L72.5469 60.8633L73.2852 60.8867L73.7188 61.4727L75.2188 63.5469L75.8633 64.4375L75.1953 65.3281L73.7656 67.2383L73.4258 67.6953L72.875 67.8125L70.4258 68.3281L70.1211 68.3984L69.8164 68.3398L67.3555 67.8359L65.0117 67.5547L64.5576 67.6572L65.1367 68.6445L65.3594 69.0195L65.3477 69.4648L65.2539 71.9609L64.8799 71.9443L64.9355 72.0908L65.8848 74.54L66.0957 75.0908L65.8848 75.6299L65.041 77.7275L64.6426 80.1768L64.5605 80.6104L64.2676 80.9385L62.8145 82.5205L62.3223 83.0596L61.5957 83.001L58.959 82.79L58.0449 82.7197L57.6934 81.8643L56.9551 80.0713L55.8066 77.8213L55.666 77.5518L55.6426 77.2588L55.4316 74.6689L55.3965 74.1182L55.7129 73.6729L56.7793 72.1611L56.5684 69.7119L56.4512 68.3643L56.6504 68.3252L56.3008 66.3594L56.2656 66.1484L56.2891 65.9258L56.6055 63.3711L56.7109 60.793L56.7344 60.2773L57.0625 59.8906L58.6094 58.0508L59.2656 57.2773L60.2266 57.5938ZM58.4551 74.9736L58.5957 76.6963L59.627 78.7002L59.6621 78.7588L59.6855 78.8174L60.1191 79.8721L61.1035 79.9541L61.748 79.251L62.0996 77.1182L62.123 76.9541L62.1816 76.8018L62.873 75.0674L62.5449 74.2236L61.0098 74.376L60.7754 74.3877L60.5527 74.3408L59.1465 74.0244L58.4551 74.9736ZM60.8457 70.5674H60.8223L59.6738 70.79L59.6973 71.0713L60.9863 71.3525L62.2744 71.2393L62.3076 70.252L60.8457 70.5674ZM59.6758 61.4258L59.5938 63.5234V63.582L59.582 63.6406L59.2891 66.0781L59.5938 67.7578L60.2246 67.6377V67.626L61.2412 67.4121L61.0234 65.1406V65.0586L60.9521 63.2822L60.793 63.0664L60.9385 62.958L60.918 62.4219V62.4102L60.7422 60.9219L60.2383 60.7578L59.6758 61.4258ZM67.707 64.332L67.4023 64.4023L67.0977 64.332L64.6484 63.8633L63.9805 63.8721L64.0137 64.7109L64.6133 64.5781L64.8594 64.5312L65.1055 64.5547L67.707 64.8711H67.7656L67.8242 64.8828L70.1094 65.3281L71.7031 64.9883L72.1367 64.4023L71.7266 63.8398L70.0508 63.793L67.707 64.332ZM93.6309 46.8428L92.0273 47.6572L91.332 49.3955L91.0508 51.8174L91.0469 51.8486L91.042 51.8789L90.6172 54.543L90.5029 55.2637L89.8643 55.6182L88.0283 56.6377L88.1172 56.9717L88.1992 57.2412L88.1641 57.5225L87.8711 60.0654L87.9033 60.6104L88.5283 60.4941L90.5615 59.6914L91.8906 58.3262L92.3018 56.5869L91.9844 54.2695L91.9795 54.2363L91.9766 54.2021L91.7402 51.5957L91.6748 50.8672L92.208 50.3662L93.9004 48.7773L94.4697 48.2432L95.2344 48.4033L96.8799 48.7461L97.2803 48.3076L96.6758 47.332L95.3623 46.4951L93.6309 46.8428ZM22.7891 46.751L21.8398 47.8057L21.9102 48.6729L23.2812 48.9893H23.293L25.6719 49.5518L26.8086 49.8213L26.8203 50.9932L26.8672 53.7236L26.8789 53.9463L26.8203 54.1455L26.2578 56.1846L26.8906 57.8955L28.2969 59.3135L30.418 60.251L30.5352 60.2979L30.667 60.3691L30.5781 59.0225L30.5664 58.8936L30.5781 58.7646L30.8135 56.7305L29.4336 56.1143L28.4141 55.6689L28.543 54.5674L28.8359 52.0596L28.5078 49.915L27.582 48.0518L26.2109 46.7275L24.4531 46.2588L22.7891 46.751ZM54.7695 44.2656L54.6055 44.2891H54.4414L51.8984 44.1484L49.3438 44.3125L49.2031 44.3242L49.0625 44.3125L46.543 43.9961L44.0117 44.0781L41.3867 44.1602L40.374 44.2822L40.377 44.3574L40.4707 46.9473V47.0879L40.459 47.2285L40.376 47.7539L41.3477 47.8076H41.4531L41.5469 47.8311L44.0078 48.3115L46.4922 48.2646H46.5625L49.1992 48.3467H49.2812L49.3633 48.3584L51.9297 48.7217L54.3672 48.8623L57.0156 48.7803L57.0859 48.7686L57.1445 48.7803L59.7812 48.9326H59.8398L59.8984 48.9443L62.3242 49.2607L64.7383 48.874L64.8789 48.8506L65.0312 48.8623L67.5156 48.9678L70.2109 48.6982H70.3398L72.8594 48.8623L75.332 48.5459L77.8164 48.124L78.4541 47.9932L78.3047 47.627L78.1289 47.1699L78.2344 46.7012L78.8369 44.2539L78.0898 44.1602V44.1484L75.6289 43.9023L73.1445 44.1484H73.0625L70.4258 44.2656H70.332L70.25 44.2539L67.6016 44.0547H65.082V44.043L62.5508 44.2305L62.4805 44.2422H62.3984L59.7617 44.1602H59.6328L57.1836 43.8672L54.7695 44.2656ZM78.5117 39.25L78.1602 39.3672L77.7969 39.3086L75.3125 38.8984H72.8867L70.25 39.1211H70.0508L67.4141 38.9688V38.957L64.8828 38.8398L62.4336 39.2148L62.2461 39.25L62.0469 39.2266L59.5156 38.9336L56.9492 38.957L54.4297 39.1914L54.2773 39.2031L54.1133 39.1797L51.582 38.875L49.0391 38.9102L49.0156 38.9219L48.9805 38.9102L46.3438 38.8633H46.2969L43.8945 38.7344L41.4805 39.332L41.082 39.4375L40.6836 39.3086L39.8301 39.0449L39.7598 39.2539L38.3535 38.8086L38.1631 38.7539L37.0273 39.1211L36.5469 40L37.2148 40.7969L39.043 41.418L41.1523 41.1836L41.2109 41.1719H41.2695L43.918 41.0898L46.5547 40.9961H46.6719L46.7891 41.0078L49.2617 41.3125L51.7812 41.1484H51.957L54.4531 41.2773L56.9141 40.8672L57.125 40.8438L57.3359 40.8672L59.8906 41.1602L62.375 41.2305L64.9766 41.0547L65.0352 41.043L65.082 41.0547H67.7891L67.8359 41.0664L70.4141 41.2539L72.8516 41.1602L75.5 40.9023L75.6523 40.8906L75.8047 40.9023L78.4414 41.1836H78.4766L80.9375 41.5L80.9141 41.6289L81.582 41.3711L82.1797 40.1875L81.7344 39.1797L80.4922 38.5938L78.5117 39.25ZM67.0059 32.0938L64.4746 32.4219L64.3574 32.4453L64.2402 32.4336L61.6035 32.3633H61.5332L61.4746 32.3516L59.0254 32.0586L56.6113 32.4688L56.4473 32.4922L56.2949 32.4805L53.6465 32.3398H53.5527L53.043 32.2773V32.2812L53.0342 32.2764L51.0566 32.0352L49.0762 32.1641L47.2832 33.4297L45.1387 34.9414L44.998 35.0352L44.8457 35.0938L42.9873 35.8691L43.3789 35.7695L43.5898 35.7227L43.8125 35.7344L46.4492 35.8633L46.4375 35.875L49.0156 35.9219L51.6289 35.875L51.7344 35.8633L51.8398 35.8867L54.3359 36.1914L56.7969 35.957H56.9258L59.5625 35.9336H59.6562L59.75 35.9453L62.1992 36.2266L64.6367 35.8516L64.7773 35.8281L64.9297 35.8398L67.5664 35.9688H67.5781L70.0977 36.1211L72.6523 35.9219L72.7109 35.9102H72.7695L75.4062 35.8984H75.5352L75.6641 35.9219L76.9941 36.1445L75.7832 35.3164L73.4746 34.8008L73.1582 34.7305L72.9004 34.543L70.8848 33.0195L69.0801 32.0117L67.0059 32.0938ZM55.2227 28.0156L55.1523 28.5781L54.7305 28.9648L54.2568 29.3809L56.2949 29.4805L58.7676 29.0703L58.9785 29.0352L59.1895 29.0586L61.7324 29.375L64.2168 29.4336L64.3398 29.417L63.9102 28.6621L63.8164 28.4863L63.7578 28.2754L63.5459 27.4102L62.4297 27.3955V27.3838L59.9219 27.5713L59.8398 27.583H59.7695L57.1328 27.501H56.9922L55.3096 27.2949L55.2227 28.0156ZM59.8809 22.0244H59.7871L57.1504 22.1299L57.0684 22.1416L56.9746 22.1299L54.3379 21.9307V21.9189H52.3672L52.4336 23.0596L52.9258 24.2666L54.4609 24.1963H54.5781L54.707 24.208L57.3438 24.5127H57.332L59.7344 24.5713L62.3477 24.3955H62.4766L64.9141 24.4189L66.2148 24.1025L66.4258 22.626L66.3457 21.9941L65.0723 22.0479L64.9668 22.0596L64.8613 22.0479L62.3535 21.7783L59.8809 22.0244ZM61.9727 17.1055L61.9141 17.1172H61.8555L59.2188 17.1523H59.1133L56.5469 16.9883L54.0039 17.1523L53.9922 17.1406L51.4492 17.4336L51.3984 17.4404L51.5781 17.6455L51.6719 18.0205L51.8906 18.9189L54.4551 18.9307H54.5723L57.1504 19.1416L59.5879 19.0479V19.0361L62.2246 18.7783L62.377 18.7666L62.5293 18.7783L65.0137 19.0479L66.5361 18.9824L68.0078 17.2002L68.1152 17.041L67.0469 16.918L64.4688 16.8828L61.9727 17.1055ZM59.6191 10.4219L59.3379 10.457L58.7461 10.3086L56.9395 11.4609L56.9277 11.4727L54.9121 12.7148L53.8799 14.1484L56.4648 14L56.5586 13.9883L56.6406 14L59.2656 14.1523L61.7031 14.1289L64.3398 13.8828H64.5039L65.3525 13.8975L64.6699 12.7188H64.6582L63.4395 10.9961L61.7754 10.1406L59.6191 10.4219ZM58.8809 5.82812L58.166 6.46094L58.2949 7.09375L59.5137 7.41016L60.6621 7.25781L60.8965 6.41406L60.2754 5.73438L58.8809 5.82812Z" fill="black"/>
</svg>
