<svg width="120" height="120" viewBox="0 0 120 120" fill="none" xmlns="http://www.w3.org/2000/svg">
<path d="M72.054 44.9587L72.3035 43.4796L72.1021 43.4456L71.899 43.4667L72.054 44.9587ZM69.5258 45.2212L68.9978 46.6252L69.3289 46.7498L69.6808 46.7132L69.5258 45.2212ZM67.035 44.2844L67.5631 42.8804L67.4107 42.8231L67.2495 42.7998L67.035 44.2844ZM64.4091 43.9051L64.1527 45.383L64.1736 45.3867L64.1947 45.3897L64.4091 43.9051ZM61.8104 43.4543L61.4326 44.906L61.4928 44.9216L61.554 44.9323L61.8104 43.4543ZM59.2512 42.7883L59.6291 41.3366L59.5444 41.3146L59.4578 41.3026L59.2512 42.7883ZM56.6359 42.4248L56.8424 40.939L56.7498 40.9262L56.6563 40.9249L56.6359 42.4248ZM53.9937 42.3888L53.9072 43.8863L53.9402 43.8882L53.9733 43.8887L53.9937 42.3888ZM51.3651 42.2369L50.8372 43.6409L51.0508 43.7212L51.2786 43.7344L51.3651 42.2369ZM48.9522 41.3296L49.4801 39.9256L48.9767 39.7363L48.4677 39.91L48.9522 41.3296ZM72.1526 44.9753L72.4021 43.4962L72.3035 43.4796L72.054 44.9587L71.8044 46.4378L71.903 46.4544L72.1526 44.9753ZM72.054 44.9587L71.899 43.4667L69.3709 43.7293L69.5258 45.2212L69.6808 46.7132L72.2089 46.4506L72.054 44.9587ZM69.5258 45.2212L70.0539 43.8173L67.5631 42.8804L67.035 44.2844L66.507 45.6884L68.9978 46.6252L69.5258 45.2212ZM67.035 44.2844L67.2495 42.7998L64.6235 42.4205L64.4091 43.9051L64.1947 45.3897L66.8206 45.769L67.035 44.2844ZM64.4091 43.9051L64.6654 42.4272L62.0667 41.9764L61.8104 43.4543L61.554 44.9323L64.1527 45.383L64.4091 43.9051ZM61.8104 43.4543L62.1882 42.0027L59.6291 41.3366L59.2512 42.7883L58.8734 44.2399L61.4326 44.906L61.8104 43.4543ZM59.2512 42.7883L59.4578 41.3026L56.8424 40.939L56.6359 42.4248L56.4294 43.9105L59.0447 44.274L59.2512 42.7883ZM56.6359 42.4248L56.6563 40.9249L54.0141 40.8889L53.9937 42.3888L53.9733 43.8887L56.6155 43.9246L56.6359 42.4248ZM53.9937 42.3888L54.0803 40.8913L51.4517 40.7394L51.3651 42.2369L51.2786 43.7344L53.9072 43.8863L53.9937 42.3888ZM51.3651 42.2369L51.8931 40.8329L49.4801 39.9256L48.9522 41.3296L48.4243 42.7337L50.8372 43.6409L51.3651 42.2369ZM48.9522 41.3296L48.4677 39.91L48.1903 40.0047L48.6748 41.4243L49.1593 42.8439L49.4367 42.7492L48.9522 41.3296Z" fill="black"/>
<path d="M28.7557 59.9846L30.0089 60.809L30.2888 60.3834L30.2518 59.8754L28.7557 59.9846ZM28.5693 57.4304L27.21 56.796L27.0448 57.15L27.0733 57.5396L28.5693 57.4304ZM29.6838 55.0426L28.406 54.257L28.361 54.3302L28.3246 54.4081L29.6838 55.0426ZM31.0598 52.8045L30.2023 51.5737L29.9458 51.7525L29.782 52.0188L31.0598 52.8045ZM33.2579 51.273L32.8219 49.8377L32.595 49.9067L32.4004 50.0423L33.2579 51.273ZM35.7926 50.503L36.2286 51.9383L36.6046 51.824L36.8763 51.5401L35.7926 50.503ZM37.5878 48.6271L38.6715 49.6642L38.8013 49.5286L38.8937 49.3651L37.5878 48.6271ZM38.8738 46.3516L37.9595 45.1624L37.7178 45.3482L37.5679 45.6136L38.8738 46.3516ZM40.9783 44.7334L40.3513 43.3708L40.1979 43.4414L40.064 43.5443L40.9783 44.7334ZM43.3817 43.6276L44.0086 44.9903L44.0858 44.9548L44.1585 44.9108L43.3817 43.6276ZM45.6676 42.2438L45.1739 40.8273L45.0253 40.8791L44.8907 40.9606L45.6676 42.2438ZM48.0867 41.4006L48.5804 42.817L49.1402 42.6219L49.4153 42.0969L48.0867 41.4006ZM49.3195 39.0484L48.6083 37.7277L48.204 37.9454L47.9909 38.3521L49.3195 39.0484ZM51.6891 37.7725L51.0552 36.413L51.016 36.4313L50.978 36.4517L51.6891 37.7725ZM54.0753 36.6597L53.7016 35.207L53.5672 35.2416L53.4414 35.3003L54.0753 36.6597ZM56.64 36L56.5152 34.5052L56.389 34.5157L56.2663 34.5473L56.64 36ZM59.3069 35.7774L59.8122 34.3651L59.5061 34.2556L59.1821 34.2826L59.3069 35.7774ZM61.833 36.6814L61.3276 38.0937L61.4535 38.1387L61.5854 38.1608L61.833 36.6814ZM64.4774 37.124L65.2837 35.8591L65.0262 35.695L64.725 35.6445L64.4774 37.124ZM66.7255 38.557L65.9192 39.8219L65.9277 39.8272L66.7255 38.557ZM68.9732 39.9688L70.1758 39.0723L70.0083 38.8476L69.7711 38.6986L68.9732 39.9688ZM70.5602 42.0975L69.3576 42.994L69.4336 43.096L69.5257 43.1836L70.5602 42.0975ZM72.4863 43.9321L73.6203 42.9502L73.5731 42.8957L73.5209 42.846L72.4863 43.9321ZM74.1887 45.8981L73.0548 46.88L73.156 46.9969L73.2789 47.0906L74.1887 45.8981ZM76.2707 47.4864L75.3608 48.679L75.4858 48.7743L75.6278 48.8417L76.2707 47.4864ZM78.6574 48.6185L79.7033 47.5432L79.525 47.3698L79.3002 47.2632L78.6574 48.6185ZM80.5524 50.4617L81.5998 49.388L81.5983 49.3864L80.5524 50.4617ZM82.4334 52.2967L83.8697 51.8642L83.7581 51.4934L83.4809 51.223L82.4334 52.2967ZM83.1878 54.8019L84.62 55.2476L84.7565 54.8091L84.6241 54.3694L83.1878 54.8019ZM28.7008 60.0682L29.9539 60.8925L30.0089 60.809L28.7557 59.9846L27.5026 59.1603L27.4476 59.2438L28.7008 60.0682ZM28.7557 59.9846L30.2518 59.8754L30.0653 57.3212L28.5693 57.4304L27.0733 57.5396L27.2597 60.0939L28.7557 59.9846ZM28.5693 57.4304L29.9285 58.0648L31.043 55.677L29.6838 55.0426L28.3246 54.4081L27.21 56.796L28.5693 57.4304ZM29.6838 55.0426L30.9616 55.8282L32.3377 53.5901L31.0598 52.8045L29.782 52.0188L28.406 54.257L29.6838 55.0426ZM31.0598 52.8045L31.9174 54.0352L34.1154 52.5037L33.2579 51.273L32.4004 50.0423L30.2023 51.5737L31.0598 52.8045ZM33.2579 51.273L33.6938 52.7082L36.2286 51.9383L35.7926 50.503L35.3566 49.0678L32.8219 49.8377L33.2579 51.273ZM35.7926 50.503L36.8763 51.5401L38.6715 49.6642L37.5878 48.6271L36.5041 47.59L34.7089 49.4659L35.7926 50.503ZM37.5878 48.6271L38.8937 49.3651L40.1797 47.0895L38.8738 46.3516L37.5679 45.6136L36.2819 47.8891L37.5878 48.6271ZM38.8738 46.3516L39.7881 47.5407L41.8926 45.9226L40.9783 44.7334L40.064 43.5443L37.9595 45.1624L38.8738 46.3516ZM40.9783 44.7334L41.6052 46.0961L44.0086 44.9903L43.3817 43.6276L42.7547 42.265L40.3513 43.3708L40.9783 44.7334ZM43.3817 43.6276L44.1585 44.9108L46.4444 43.5269L45.6676 42.2438L44.8907 40.9606L42.6048 42.3445L43.3817 43.6276ZM45.6676 42.2438L46.1612 43.6602L48.5804 42.817L48.0867 41.4006L47.593 39.9842L45.1739 40.8273L45.6676 42.2438ZM48.0867 41.4006L49.4153 42.0969L50.6481 39.7447L49.3195 39.0484L47.9909 38.3521L46.7581 40.7043L48.0867 41.4006ZM49.3195 39.0484L50.0306 40.3691L52.4002 39.0932L51.6891 37.7725L50.978 36.4517L48.6083 37.7277L49.3195 39.0484ZM51.6891 37.7725L52.323 39.1319L54.7093 38.0192L54.0753 36.6597L53.4414 35.3003L51.0552 36.413L51.6891 37.7725ZM54.0753 36.6597L54.449 38.1124L57.0137 37.4527L56.64 36L56.2663 34.5473L53.7016 35.207L54.0753 36.6597ZM56.64 36L56.7647 37.4948L59.4316 37.2722L59.3069 35.7774L59.1821 34.2826L56.5152 34.5052L56.64 36ZM59.3069 35.7774L58.8015 37.1897L61.3276 38.0937L61.833 36.6814L62.3384 35.2691L59.8122 34.3651L59.3069 35.7774ZM61.833 36.6814L61.5854 38.1608L64.2298 38.6034L64.4774 37.124L64.725 35.6445L62.0806 35.202L61.833 36.6814ZM64.4774 37.124L63.6711 38.3889L65.9192 39.8219L66.7255 38.557L67.5318 37.2921L65.2837 35.8591L64.4774 37.124ZM66.7255 38.557L65.9277 39.8272L68.1754 41.239L68.9732 39.9688L69.7711 38.6986L67.5234 37.2868L66.7255 38.557ZM68.9732 39.9688L67.7706 40.8654L69.3576 42.994L70.5602 42.0975L71.7628 41.2009L70.1758 39.0723L68.9732 39.9688ZM70.5602 42.0975L69.5257 43.1836L71.4518 45.0183L72.4863 43.9321L73.5209 42.846L71.5947 41.0113L70.5602 42.0975ZM72.4863 43.9321L71.3524 44.914L73.0548 46.88L74.1887 45.8981L75.3227 44.9161L73.6203 42.9502L72.4863 43.9321ZM74.1887 45.8981L73.2789 47.0906L75.3608 48.679L76.2707 47.4864L77.1805 46.2938L75.0985 44.7055L74.1887 45.8981ZM76.2707 47.4864L75.6278 48.8417L78.0146 49.9737L78.6574 48.6185L79.3002 47.2632L76.9135 46.1311L76.2707 47.4864ZM78.6574 48.6185L77.6115 49.6937L79.5065 51.5369L80.5524 50.4617L81.5983 49.3864L79.7033 47.5432L78.6574 48.6185ZM80.5524 50.4617L79.505 51.5354L81.386 53.3704L82.4334 52.2967L83.4809 51.223L81.5998 49.388L80.5524 50.4617ZM82.4334 52.2967L80.9971 52.7292L81.7515 55.2344L83.1878 54.8019L84.6241 54.3694L83.8697 51.8642L82.4334 52.2967ZM83.1878 54.8019L81.7556 54.3561L81.3876 55.5383L82.8199 55.984L84.2521 56.4298L84.62 55.2476L83.1878 54.8019Z" fill="black"/>
<path d="M91.3093 67.0845L89.8109 67.017L89.7904 67.4704L90.0248 67.8591L91.3093 67.0845ZM91.4219 64.5888L92.9203 64.6563L92.9306 64.4277L92.8723 64.2063L91.4219 64.5888ZM90.7468 62.0285L92.1972 61.6461L92.098 61.27L91.8286 60.9895L90.7468 62.0285ZM88.9067 60.1126L89.9886 59.0736L89.8947 58.9759L89.7849 58.8965L88.9067 60.1126ZM86.7919 58.5856L87.67 57.3695L87.6355 57.3446L87.5997 57.3216L86.7919 58.5856ZM84.5748 57.1687L85.3826 55.9048L85.2525 55.8216L85.1082 55.7667L84.5748 57.1687ZM82.1081 56.2302L82.6414 54.8282L82.5251 54.7839L82.403 54.7594L82.1081 56.2302ZM79.5082 55.7088L79.1022 57.1528L79.1572 57.1683L79.2133 57.1795L79.5082 55.7088ZM76.9686 54.9947L76.455 56.4041L76.5082 56.4234L76.5626 56.4387L76.9686 54.9947ZM74.4683 54.0835L74.9819 52.6742L74.7728 52.598L74.5507 52.5858L74.4683 54.0835ZM71.7997 53.9367L71.418 55.3873L71.5652 55.426L71.7172 55.4344L71.7997 53.9367ZM69.2418 53.2637L69.6235 51.813L69.5278 51.7878L69.4296 51.7755L69.2418 53.2637ZM66.6223 52.9331L66.1805 54.3665L66.3051 54.405L66.4345 54.4213L66.6223 52.9331ZM64.0783 52.149L64.5201 50.7155L64.3999 50.6785L64.2752 50.662L64.0783 52.149ZM61.4611 51.8025L61.658 50.3155L61.6486 50.3142L61.6392 50.3131L61.4611 51.8025ZM58.8387 51.489L59.0168 49.9996L58.9847 49.9957L58.9524 49.9933L58.8387 51.489ZM56.2016 51.2884L55.759 52.7217L55.9199 52.7714L56.0878 52.7841L56.2016 51.2884ZM53.6403 50.4975L54.0829 49.0642L53.8202 48.9831L53.5457 49.0004L53.6403 50.4975ZM50.9659 50.6664L50.6819 52.1392L50.8696 52.1754L51.0605 52.1634L50.9659 50.6664ZM48.3634 50.1644L48.6475 48.6916L48.5271 48.6684L48.4046 48.665L48.3634 50.1644ZM45.7211 50.0918L45.4121 51.5596L45.5446 51.5875L45.6799 51.5912L45.7211 50.0918ZM43.1154 49.5434L43.4243 48.0755L43.1687 48.0217L42.91 48.0575L43.1154 49.5434ZM40.4554 49.9111L40.3453 51.4071L40.5036 51.4187L40.6608 51.397L40.4554 49.9111ZM37.8191 49.7171L37.1932 51.0802L37.4391 51.1931L37.709 51.213L37.8191 49.7171ZM91.361 67.1702L92.6455 66.3956L92.5939 66.3099L91.3093 67.0845L90.0248 67.8591L90.0765 67.9448L91.361 67.1702ZM91.3093 67.0845L92.8078 67.1521L92.9203 64.6563L91.4219 64.5888L89.9234 64.5212L89.8109 67.017L91.3093 67.0845ZM91.4219 64.5888L92.8723 64.2063L92.1972 61.6461L90.7468 62.0285L89.2963 62.411L89.9714 64.9712L91.4219 64.5888ZM90.7468 62.0285L91.8286 60.9895L89.9886 59.0736L88.9067 60.1126L87.8249 61.1517L89.6649 63.0675L90.7468 62.0285ZM88.9067 60.1126L89.7849 58.8965L87.67 57.3695L86.7919 58.5856L85.9138 59.8017L88.0286 61.3288L88.9067 60.1126ZM86.7919 58.5856L87.5997 57.3216L85.3826 55.9048L84.5748 57.1687L83.7671 58.4326L85.9841 59.8495L86.7919 58.5856ZM84.5748 57.1687L85.1082 55.7667L82.6414 54.8282L82.1081 56.2302L81.5747 57.6321L84.0415 58.5706L84.5748 57.1687ZM82.1081 56.2302L82.403 54.7594L79.8032 54.2381L79.5082 55.7088L79.2133 57.1795L81.8131 57.7009L82.1081 56.2302ZM79.5082 55.7088L79.9142 54.2648L77.3746 53.5507L76.9686 54.9947L76.5626 56.4387L79.1022 57.1528L79.5082 55.7088ZM76.9686 54.9947L77.4822 53.5854L74.9819 52.6742L74.4683 54.0835L73.9547 55.4929L76.455 56.4041L76.9686 54.9947ZM74.4683 54.0835L74.5507 52.5858L71.8821 52.4389L71.7997 53.9367L71.7172 55.4344L74.3858 55.5813L74.4683 54.0835ZM71.7997 53.9367L72.1814 52.486L69.6235 51.813L69.2418 53.2637L68.8601 54.7143L71.418 55.3873L71.7997 53.9367ZM69.2418 53.2637L69.4296 51.7755L66.8101 51.4449L66.6223 52.9331L66.4345 54.4213L69.054 54.7519L69.2418 53.2637ZM66.6223 52.9331L67.0641 51.4996L64.5201 50.7155L64.0783 52.149L63.6365 53.5824L66.1805 54.3665L66.6223 52.9331ZM64.0783 52.149L64.2752 50.662L61.658 50.3155L61.4611 51.8025L61.2643 53.2895L63.8815 53.636L64.0783 52.149ZM61.4611 51.8025L61.6392 50.3131L59.0168 49.9996L58.8387 51.489L58.6606 52.9783L61.2831 53.2919L61.4611 51.8025ZM58.8387 51.489L58.9524 49.9933L56.3153 49.7928L56.2016 51.2884L56.0878 52.7841L58.725 52.9846L58.8387 51.489ZM56.2016 51.2884L56.6442 49.8552L54.0829 49.0642L53.6403 50.4975L53.1977 51.9307L55.759 52.7217L56.2016 51.2884ZM53.6403 50.4975L53.5457 49.0004L50.8714 49.1694L50.9659 50.6664L51.0605 52.1634L53.7349 51.9945L53.6403 50.4975ZM50.9659 50.6664L51.25 49.1935L48.6475 48.6916L48.3634 50.1644L48.0793 51.6373L50.6819 52.1392L50.9659 50.6664ZM48.3634 50.1644L48.4046 48.665L45.7623 48.5924L45.7211 50.0918L45.6799 51.5912L48.3222 51.6639L48.3634 50.1644ZM45.7211 50.0918L46.03 48.624L43.4243 48.0755L43.1154 49.5434L42.8064 51.0112L45.4121 51.5596L45.7211 50.0918ZM43.1154 49.5434L42.91 48.0575L40.25 48.4252L40.4554 49.9111L40.6608 51.397L43.3208 51.0292L43.1154 49.5434ZM40.4554 49.9111L40.5655 48.4151L37.9292 48.2211L37.8191 49.7171L37.709 51.213L40.3453 51.4071L40.4554 49.9111ZM37.8191 49.7171L38.445 48.3539L38.1669 48.2262L37.541 49.5894L36.9151 50.9525L37.1932 51.0802L37.8191 49.7171Z" fill="black"/>
<path d="M21.7287 70.9855L23.0934 71.6081L23.2627 71.2371L23.2208 70.8314L21.7287 70.9855ZM21.4655 68.4373L20.0091 68.0784L19.9466 68.3318L19.9735 68.5914L21.4655 68.4373ZM22.0985 65.8689L20.674 65.3993L20.6559 65.454L20.6421 65.51L22.0985 65.8689ZM22.92 63.3774L21.8763 62.3001L21.6111 62.557L21.4954 62.9077L22.92 63.3774ZM24.8452 61.5123L24.4079 60.0775L24.0616 60.1831L23.8015 60.435L24.8452 61.5123ZM27.3971 60.7344L27.1043 59.2633L27.0311 59.2778L26.9597 59.2996L27.3971 60.7344ZM29.984 60.2197L29.6926 58.7483L29.6912 58.7485L29.984 60.2197ZM32.5846 59.7046L32.532 58.2056L32.4115 58.2098L32.2932 58.2332L32.5846 59.7046ZM35.2309 59.6119L35.383 58.1196L35.2809 58.1092L35.1783 58.1128L35.2309 59.6119ZM37.8734 59.8812L37.7212 61.3735L37.9071 61.3924L38.092 61.3652L37.8734 59.8812ZM40.5196 59.4914L40.6523 57.9973L40.4761 57.9816L40.301 58.0074L40.5196 59.4914ZM43.1549 59.7254L43.0222 61.2195L43.1041 61.2268L43.1863 61.225L43.1549 59.7254ZM45.8013 59.67L46.0712 58.1945L45.9218 58.1672L45.77 58.1703L45.8013 59.67ZM48.414 60.1479L48.1441 61.6234L48.2477 61.6423L48.3529 61.6466L48.414 60.1479ZM51.0566 60.2555L51.1372 58.7577L51.1274 58.7571L51.1176 58.7567L51.0566 60.2555ZM53.6931 60.3973L53.6125 61.8952L53.6261 61.8959L53.6398 61.8964L53.6931 60.3973ZM56.3415 60.4914L56.7609 59.0513L56.5815 58.999L56.3948 58.9924L56.3415 60.4914ZM58.9148 61.2407L58.4954 62.6809L58.7414 62.7525L58.9972 62.7384L58.9148 61.2407ZM61.5927 61.0934L61.9245 59.6305L61.7199 59.5841L61.5103 59.5956L61.5927 61.0934ZM64.1807 61.6803L63.8489 63.1432L63.9494 63.166L64.0522 63.1748L64.1807 61.6803ZM66.8163 61.9069L67.2494 60.4707L67.1001 60.4257L66.9448 60.4124L66.8163 61.9069ZM69.3694 62.6767L68.9363 64.1129L69.1635 64.1814L69.4008 64.1764L69.3694 62.6767ZM72.0561 62.6203L72.3941 61.1589L72.2117 61.1167L72.0246 61.1207L72.0561 62.6203ZM74.6316 63.2159L74.2936 64.6774L74.3057 64.6802L74.3178 64.6828L74.6316 63.2159ZM77.2199 63.7696L76.9061 65.2364L76.922 65.2399L76.938 65.2429L77.2199 63.7696ZM79.8115 64.2654L80.3239 62.8557L80.2112 62.8147L80.0933 62.7922L79.8115 64.2654ZM82.3146 65.1753L81.8021 66.5851L81.9367 66.634L82.0781 66.6566L82.3146 65.1753ZM84.9321 65.5932L85.3378 64.1491L85.2543 64.1257L85.1686 64.112L84.9321 65.5932ZM87.475 66.3076L88.1145 64.9507L88.0013 64.8973L87.8807 64.8635L87.475 66.3076ZM89.8742 67.4383L89.2347 68.7952L89.3614 68.8549L89.497 68.8901L89.8742 67.4383ZM92.4491 68.1073L93.3069 66.8768L93.0864 66.7231L92.8263 66.6555L92.4491 68.1073ZM94.6228 69.6228L95.7327 68.6138L95.6191 68.4889L95.4807 68.3923L94.6228 69.6228ZM96.383 71.559L97.6897 70.8225L97.6067 70.6752L97.4929 70.5501L96.383 71.559ZM97.6683 73.8395L99.1658 73.7525L99.1456 73.4057L98.975 73.103L97.6683 73.8395ZM97.8223 76.4909L99.2359 76.9927L99.3374 76.7068L99.3198 76.404L97.8223 76.4909ZM97.0567 78.648L95.6431 78.1462L95.0991 79.6789L96.6706 80.0974L97.0567 78.648ZM21.6872 71.0765L23.0519 71.6991L23.0934 71.6081L21.7287 70.9855L20.364 70.3629L20.3225 70.4539L21.6872 71.0765ZM21.7287 70.9855L23.2208 70.8314L22.9576 68.2832L21.4655 68.4373L19.9735 68.5914L20.2367 71.1396L21.7287 70.9855ZM21.4655 68.4373L22.9219 68.7963L23.555 66.2279L22.0985 65.8689L20.6421 65.51L20.0091 68.0784L21.4655 68.4373ZM22.0985 65.8689L23.5231 66.3386L24.3446 63.8471L22.92 63.3774L21.4954 62.9077L20.674 65.3993L22.0985 65.8689ZM22.92 63.3774L23.9637 64.4548L25.8889 62.5897L24.8452 61.5123L23.8015 60.435L21.8763 62.3001L22.92 63.3774ZM24.8452 61.5123L25.2826 62.9471L27.8345 62.1692L27.3971 60.7344L26.9597 59.2996L24.4079 60.0775L24.8452 61.5123ZM27.3971 60.7344L27.6898 62.2056L30.2767 61.6908L29.984 60.2197L29.6912 58.7485L27.1043 59.2633L27.3971 60.7344ZM29.984 60.2197L30.2754 61.6911L32.876 61.1761L32.5846 59.7046L32.2932 58.2332L29.6926 58.7483L29.984 60.2197ZM32.5846 59.7046L32.6372 61.2037L35.2835 61.1109L35.2309 59.6119L35.1783 58.1128L32.532 58.2056L32.5846 59.7046ZM35.2309 59.6119L35.0788 61.1041L37.7212 61.3735L37.8734 59.8812L38.0255 58.389L35.383 58.1196L35.2309 59.6119ZM37.8734 59.8812L38.092 61.3652L40.7383 60.9754L40.5196 59.4914L40.301 58.0074L37.6547 58.3972L37.8734 59.8812ZM40.5196 59.4914L40.387 60.9855L43.0222 61.2195L43.1549 59.7254L43.2876 58.2313L40.6523 57.9973L40.5196 59.4914ZM43.1549 59.7254L43.1863 61.225L45.8327 61.1697L45.8013 59.67L45.77 58.1703L43.1235 58.2257L43.1549 59.7254ZM45.8013 59.67L45.5315 61.1455L48.1441 61.6234L48.414 60.1479L48.6838 58.6723L46.0712 58.1945L45.8013 59.67ZM48.414 60.1479L48.3529 61.6466L50.9955 61.7542L51.0566 60.2555L51.1176 58.7567L48.475 58.6491L48.414 60.1479ZM51.0566 60.2555L50.976 61.7533L53.6125 61.8952L53.6931 60.3973L53.7737 58.8995L51.1372 58.7577L51.0566 60.2555ZM53.6931 60.3973L53.6398 61.8964L56.2883 61.9905L56.3415 60.4914L56.3948 58.9924L53.7463 58.8983L53.6931 60.3973ZM56.3415 60.4914L55.9222 61.9316L58.4954 62.6809L58.9148 61.2407L59.3341 59.8005L56.7609 59.0513L56.3415 60.4914ZM58.9148 61.2407L58.9972 62.7384L61.6751 62.5911L61.5927 61.0934L61.5103 59.5956L58.8324 59.7429L58.9148 61.2407ZM61.5927 61.0934L61.261 62.5562L63.8489 63.1432L64.1807 61.6803L64.5124 60.2175L61.9245 59.6305L61.5927 61.0934ZM64.1807 61.6803L64.0522 63.1748L66.6878 63.4014L66.8163 61.9069L66.9448 60.4124L64.3091 60.1858L64.1807 61.6803ZM66.8163 61.9069L66.3832 63.343L68.9363 64.1129L69.3694 62.6767L69.8024 61.2406L67.2494 60.4707L66.8163 61.9069ZM69.3694 62.6767L69.4008 64.1764L72.0876 64.12L72.0561 62.6203L72.0246 61.1207L69.3379 61.1771L69.3694 62.6767ZM72.0561 62.6203L71.7181 64.0818L74.2936 64.6774L74.6316 63.2159L74.9696 61.7545L72.3941 61.1589L72.0561 62.6203ZM74.6316 63.2159L74.3178 64.6828L76.9061 65.2364L77.2199 63.7696L77.5336 62.3028L74.9454 61.7491L74.6316 63.2159ZM77.2199 63.7696L76.938 65.2429L79.5296 65.7387L79.8115 64.2654L80.0933 62.7922L77.5017 62.2964L77.2199 63.7696ZM79.8115 64.2654L79.299 65.6752L81.8021 66.5851L82.3146 65.1753L82.827 63.7656L80.3239 62.8557L79.8115 64.2654ZM82.3146 65.1753L82.0781 66.6566L84.6956 67.0745L84.9321 65.5932L85.1686 64.112L82.551 63.6941L82.3146 65.1753ZM84.9321 65.5932L84.5265 67.0373L87.0694 67.7517L87.475 66.3076L87.8807 64.8635L85.3378 64.1491L84.9321 65.5932ZM87.475 66.3076L86.8355 67.6644L89.2347 68.7952L89.8742 67.4383L90.5137 66.0815L88.1145 64.9507L87.475 66.3076ZM89.8742 67.4383L89.497 68.8901L92.0719 69.5591L92.4491 68.1073L92.8263 66.6555L90.2514 65.9865L89.8742 67.4383ZM92.4491 68.1073L91.5912 69.3378L93.7649 70.8533L94.6228 69.6228L95.4807 68.3923L93.3069 66.8768L92.4491 68.1073ZM94.6228 69.6228L93.5129 70.6318L95.273 72.568L96.383 71.559L97.4929 70.5501L95.7327 68.6138L94.6228 69.6228ZM96.383 71.559L95.0762 72.2956L96.3616 74.576L97.6683 73.8395L98.975 73.103L97.6897 70.8225L96.383 71.559ZM97.6683 73.8395L96.1708 73.9265L96.3248 76.5779L97.8223 76.4909L99.3198 76.404L99.1658 73.7525L97.6683 73.8395ZM97.8223 76.4909L96.4087 75.9892L95.6431 78.1462L97.0567 78.648L98.4703 79.1497L99.2359 76.9927L97.8223 76.4909ZM97.0567 78.648L96.6706 80.0974L96.9232 80.1647L97.3093 78.7152L97.6953 77.2658L97.4428 77.1985L97.0567 78.648Z" fill="black"/>
<path d="M101.542 89.4483L100.071 89.1549L99.9883 89.5703L100.135 89.9676L101.542 89.4483ZM102.039 86.9574L103.51 87.2508L103.529 87.1544L103.536 87.0564L102.039 86.9574ZM102.214 84.3074L103.711 84.4064L103.74 83.9677L103.528 83.5827L102.214 84.3074ZM100.935 81.9887L102.248 81.2641L102.116 81.0241L101.907 80.8465L100.935 81.9887ZM98.9707 80.317L99.9429 79.1747L99.8686 79.1115L99.7867 79.0584L98.9707 80.317ZM96.7656 78.8874L97.5816 77.6287L97.4436 77.5393L97.2896 77.4819L96.7656 78.8874ZM94.2916 77.965L94.8157 76.5595L94.7102 76.5202L94.6001 76.497L94.2916 77.965ZM91.703 77.4209L91.2474 78.8501L91.32 78.8732L91.3945 78.8889L91.703 77.4209ZM89.1956 76.6216L88.6597 78.0226L88.6994 78.0378L88.74 78.0508L89.1956 76.6216ZM86.7083 75.6703L87.2442 74.2693L87.0148 74.1815L86.7694 74.1715L86.7083 75.6703ZM84.0338 75.5612L83.6886 77.021L83.8288 77.0541L83.9727 77.06L84.0338 75.5612ZM81.4624 74.9532L81.8076 73.4935L81.7091 73.4702L81.6084 73.4604L81.4624 74.9532ZM78.8315 74.696L78.4289 76.141L78.5551 76.1762L78.6855 76.1889L78.8315 74.696ZM76.2683 73.982L76.6709 72.537L76.5519 72.5039L76.429 72.4906L76.2683 73.982ZM73.6385 73.6987L73.7991 72.2073L73.7867 72.206L73.6385 73.6987ZM71.013 73.4379L71.1613 71.9452L71.1332 71.9424L71.105 71.9407L71.013 73.4379ZM68.3712 73.2756L67.9407 74.7125L68.1065 74.7622L68.2793 74.7728L68.3712 73.2756ZM65.8043 72.5065L66.2348 71.0697L65.9764 70.9922L65.7072 71.0097L65.8043 72.5065ZM63.1282 72.6802L62.8361 74.1514L63.029 74.1897L63.2253 74.177L63.1282 72.6802ZM60.528 72.164L60.82 70.6927L60.7058 70.67L60.5894 70.6652L60.528 72.164ZM57.8867 72.0557L57.5451 73.5163L57.6833 73.5487L57.8252 73.5545L57.8867 72.0557ZM55.288 71.448L55.6296 69.9874L55.3839 69.9299L55.1328 69.956L55.288 71.448ZM52.6186 71.7257L52.4335 73.2142L52.6034 73.2353L52.7738 73.2176L52.6186 71.7257ZM49.9942 71.3993L50.1793 69.9108L50.1494 69.9071L50.1195 69.9046L49.9942 71.3993ZM47.3641 71.1788L47.4894 69.6841L47.4527 69.681L47.416 69.6797L47.3641 71.1788ZM44.7269 71.0875L44.4856 72.568L44.5797 72.5833L44.675 72.5866L44.7269 71.0875ZM42.0967 70.6588L42.3381 69.1783L42.1662 69.1503L41.9925 69.1624L42.0967 70.6588ZM39.457 70.8427L39.4616 72.3427L39.5115 72.3426L39.5613 72.3391L39.457 70.8427ZM36.8176 70.8509L36.6656 72.3432L36.7437 72.3512L36.8222 72.3509L36.8176 70.8509ZM34.173 70.5815L34.325 69.0892L34.1177 69.0681L33.9125 69.1043L34.173 70.5815ZM31.5431 71.0452L31.5267 72.5451L31.6662 72.5467L31.8036 72.5224L31.5431 71.0452ZM28.9011 71.0162L28.9176 69.5163L28.913 69.5163L28.9011 71.0162ZM26.2563 70.9953L26.2682 69.4953L26.1577 69.4944L26.0482 69.5098L26.2563 70.9953ZM23.6331 71.3628L23.425 69.8773L23.3625 69.886L23.301 69.9L23.6331 71.3628ZM21.1024 71.9373L20.7703 70.4745L20.7237 70.4851L20.6778 70.4986L21.1024 71.9373ZM18.5457 72.6918L18.1212 71.2531L17.555 71.4202L17.2545 71.9284L18.5457 72.6918ZM17.1935 74.9788L15.9023 74.2154L15.8458 74.3109L15.8039 74.4138L17.1935 74.9788ZM16.1921 77.4416L14.8025 76.8766L14.691 77.1508L14.6921 77.4469L16.1921 77.4416ZM16.2014 80.1088L14.7014 80.114L14.7021 80.3105L14.7534 80.5001L16.2014 80.1088ZM16.8961 82.6791L18.388 82.8346L18.4169 82.5571L18.3441 82.2877L16.8961 82.6791ZM101.577 89.5421L102.984 89.0227L102.949 88.9289L101.542 89.4483L100.135 89.9676L100.17 90.0614L101.577 89.5421ZM101.542 89.4483L103.013 89.7416L103.51 87.2508L102.039 86.9574L100.568 86.664L100.071 89.1549L101.542 89.4483ZM102.039 86.9574L103.536 87.0564L103.711 84.4064L102.214 84.3074L100.717 84.2083L100.542 86.8584L102.039 86.9574ZM102.214 84.3074L103.528 83.5827L102.248 81.2641L100.935 81.9887L99.6215 82.7134L100.901 85.032L102.214 84.3074ZM100.935 81.9887L101.907 80.8465L99.9429 79.1747L98.9707 80.317L97.9985 81.4593L99.9627 83.131L100.935 81.9887ZM98.9707 80.317L99.7867 79.0584L97.5816 77.6287L96.7656 78.8874L95.9496 80.146L98.1547 81.5756L98.9707 80.317ZM96.7656 78.8874L97.2896 77.4819L94.8157 76.5595L94.2916 77.965L93.7676 79.3704L96.2415 80.2928L96.7656 78.8874ZM94.2916 77.965L94.6001 76.497L92.0115 75.953L91.703 77.4209L91.3945 78.8889L93.9831 79.4329L94.2916 77.965ZM91.703 77.4209L92.1586 75.9918L89.6512 75.1925L89.1956 76.6216L88.74 78.0508L91.2474 78.8501L91.703 77.4209ZM89.1956 76.6216L89.7314 75.2206L87.2442 74.2693L86.7083 75.6703L86.1724 77.0713L88.6597 78.0226L89.1956 76.6216ZM86.7083 75.6703L86.7694 74.1715L84.0949 74.0625L84.0338 75.5612L83.9727 77.06L86.6472 77.169L86.7083 75.6703ZM84.0338 75.5612L84.379 74.1015L81.8076 73.4935L81.4624 74.9532L81.1173 76.413L83.6886 77.021L84.0338 75.5612ZM81.4624 74.9532L81.6084 73.4604L78.9774 73.2032L78.8315 74.696L78.6855 76.1889L81.3165 76.4461L81.4624 74.9532ZM78.8315 74.696L79.234 73.2511L76.6709 72.537L76.2683 73.982L75.8658 75.427L78.4289 76.141L78.8315 74.696ZM76.2683 73.982L76.429 72.4906L73.7991 72.2073L73.6385 73.6987L73.4778 75.19L76.1077 75.4734L76.2683 73.982ZM73.6385 73.6987L73.7867 72.206L71.1613 71.9452L71.013 73.4379L70.8648 74.9305L73.4902 75.1913L73.6385 73.6987ZM71.013 73.4379L71.105 71.9407L68.4632 71.7784L68.3712 73.2756L68.2793 74.7728L70.9211 74.935L71.013 73.4379ZM68.3712 73.2756L68.8017 71.8387L66.2348 71.0697L65.8043 72.5065L65.3738 73.9434L67.9407 74.7125L68.3712 73.2756ZM65.8043 72.5065L65.7072 71.0097L63.0311 71.1833L63.1282 72.6802L63.2253 74.177L65.9014 74.0034L65.8043 72.5065ZM63.1282 72.6802L63.4203 71.2089L60.82 70.6927L60.528 72.164L60.2359 73.6353L62.8361 74.1514L63.1282 72.6802ZM60.528 72.164L60.5894 70.6652L57.9481 70.557L57.8867 72.0557L57.8252 73.5545L60.4666 73.6627L60.528 72.164ZM57.8867 72.0557L58.2283 70.5952L55.6296 69.9874L55.288 71.448L54.9464 72.9086L57.5451 73.5163L57.8867 72.0557ZM55.288 71.448L55.1328 69.956L52.4634 70.2337L52.6186 71.7257L52.7738 73.2176L55.4432 72.9399L55.288 71.448ZM52.6186 71.7257L52.8037 70.2371L50.1793 69.9108L49.9942 71.3993L49.8091 72.8879L52.4335 73.2142L52.6186 71.7257ZM49.9942 71.3993L50.1195 69.9046L47.4894 69.6841L47.3641 71.1788L47.2388 72.6736L49.8689 72.8941L49.9942 71.3993ZM47.3641 71.1788L47.416 69.6797L44.7788 69.5884L44.7269 71.0875L44.675 72.5866L47.3121 72.6779L47.3641 71.1788ZM44.7269 71.0875L44.9682 69.607L42.3381 69.1783L42.0967 70.6588L41.8554 72.1392L44.4856 72.568L44.7269 71.0875ZM42.0967 70.6588L41.9925 69.1624L39.3527 69.3464L39.457 70.8427L39.5613 72.3391L42.201 72.1552L42.0967 70.6588ZM39.457 70.8427L39.4523 69.3428L36.8129 69.3509L36.8176 70.8509L36.8222 72.3509L39.4616 72.3427L39.457 70.8427ZM36.8176 70.8509L36.9696 69.3586L34.325 69.0892L34.173 70.5815L34.0209 72.0738L36.6656 72.3432L36.8176 70.8509ZM34.173 70.5815L33.9125 69.1043L31.2827 69.568L31.5431 71.0452L31.8036 72.5224L34.4334 72.0587L34.173 70.5815ZM31.5431 71.0452L31.5596 69.5453L28.9176 69.5163L28.9011 71.0162L28.8847 72.5161L31.5267 72.5451L31.5431 71.0452ZM28.9011 71.0162L28.913 69.5163L26.2682 69.4953L26.2563 70.9953L26.2444 72.4952L28.8892 72.5162L28.9011 71.0162ZM26.2563 70.9953L26.0482 69.5098L23.425 69.8773L23.6331 71.3628L23.8412 72.8483L26.4644 72.4808L26.2563 70.9953ZM23.6331 71.3628L23.301 69.9L20.7703 70.4745L21.1024 71.9373L21.4345 73.4001L23.9652 72.8256L23.6331 71.3628ZM21.1024 71.9373L20.6778 70.4986L18.1212 71.2531L18.5457 72.6918L18.9703 74.1305L21.527 73.376L21.1024 71.9373ZM18.5457 72.6918L17.2545 71.9284L15.9023 74.2154L17.1935 74.9788L18.4847 75.7422L19.8369 73.4553L18.5457 72.6918ZM17.1935 74.9788L15.8039 74.4138L14.8025 76.8766L16.1921 77.4416L17.5816 78.0066L18.583 75.5438L17.1935 74.9788ZM16.1921 77.4416L14.6921 77.4469L14.7014 80.114L16.2014 80.1088L17.7014 80.1035L17.6921 77.4364L16.1921 77.4416ZM16.2014 80.1088L14.7534 80.5001L15.448 83.0704L16.8961 82.6791L18.3441 82.2877L17.6495 79.7174L16.2014 80.1088ZM16.8961 82.6791L15.4042 82.5236L15.3183 83.3474L16.8102 83.5029L18.3021 83.6584L18.388 82.8346L16.8961 82.6791Z" fill="black"/>
<path d="M106.763 116.162H108.263V116.13L108.261 116.097L106.763 116.162ZM106.653 113.622L105.162 113.465L105.15 113.575L105.155 113.686L106.653 113.622ZM106.931 110.982L108.423 111.139L108.439 110.988L108.424 110.837L106.931 110.982ZM106.675 108.342L105.176 108.402L105.178 108.445L105.182 108.487L106.675 108.342ZM106.568 105.702L105.073 105.586L105.066 105.674L105.07 105.762L106.568 105.702ZM106.774 103.062L108.269 103.178L108.274 103.123L108.274 103.067L106.774 103.062ZM106.783 100.422L108.283 100.427L108.283 100.371L108.279 100.315L106.783 100.422ZM106.593 97.782L105.094 97.7397L105.092 97.8146L105.097 97.8894L106.593 97.782ZM106.668 95.142L105.172 95.0286L105.169 95.0641L105.168 95.0997L106.668 95.142ZM106.763 116.262H108.263V116.162H106.763H105.263V116.262H106.763ZM106.763 116.162L108.261 116.097L108.152 113.557L106.653 113.622L105.155 113.686L105.264 116.226L106.763 116.162ZM106.653 113.622L108.145 113.779L108.423 111.139L106.931 110.982L105.44 110.825L105.162 113.465L106.653 113.622ZM106.931 110.982L108.424 110.837L108.168 108.197L106.675 108.342L105.182 108.487L105.438 111.127L106.931 110.982ZM106.675 108.342L108.174 108.282L108.067 105.642L106.568 105.702L105.07 105.762L105.176 108.402L106.675 108.342ZM106.568 105.702L108.064 105.818L108.269 103.178L106.774 103.062L105.278 102.946L105.073 105.586L106.568 105.702ZM106.774 103.062L108.274 103.067L108.283 100.427L106.783 100.422L105.283 100.417L105.274 103.057L106.774 103.062ZM106.783 100.422L108.279 100.315L108.089 97.6745L106.593 97.782L105.097 97.8894L105.287 100.529L106.783 100.422ZM106.593 97.782L108.093 97.8242L108.167 95.1842L106.668 95.142L105.168 95.0997L105.094 97.7397L106.593 97.782ZM106.668 95.142L108.163 95.2554L108.258 94.0031L106.763 93.8896L105.267 93.7762L105.172 95.0286L106.668 95.142Z" fill="black"/>
<path d="M38.5081 116.176L39.7914 116.953L40.0411 116.54L40.0035 116.059L38.5081 116.176ZM38.3089 113.625L36.8114 113.537L36.8054 113.639L36.8134 113.742L38.3089 113.625ZM38.4647 110.973L37.0101 110.607L36.9756 110.744L36.9673 110.885L38.4647 110.973ZM39.0534 108.635L38.8783 107.146L37.8514 107.266L37.5989 108.269L39.0534 108.635ZM41.7036 108.324L41.8161 106.828L41.672 106.817L41.5285 106.834L41.7036 108.324ZM44.3441 108.523L44.2315 110.018L44.2871 110.023L44.3428 110.023L44.3441 108.523ZM46.9841 108.525L46.9828 110.025L47.0392 110.025L47.0955 110.021L46.9841 108.525ZM49.6236 108.328L49.6617 106.829L49.5868 106.827L49.5121 106.832L49.6236 108.328ZM52.2638 108.395L52.4358 106.905L52.3691 106.898L52.3019 106.896L52.2638 108.395ZM54.9046 108.7L54.7326 110.19L54.9431 110.215L55.1521 110.18L54.9046 108.7ZM57.5434 108.259L57.6183 106.761L57.4561 106.753L57.2959 106.78L57.5434 108.259ZM60.1838 108.391L60.1088 109.889L60.1975 109.894L60.2861 109.887L60.1838 108.391ZM62.8232 108.21L63.0004 106.721L62.8609 106.704L62.7208 106.714L62.8232 108.21ZM65.4642 108.525L65.287 110.014L65.4021 110.028L65.518 110.024L65.4642 108.525ZM68.1039 108.43L68.0509 106.931L68.0501 106.931L68.1039 108.43ZM70.7436 108.336L70.7966 109.836L70.819 109.835L70.8414 109.833L70.7436 108.336ZM73.3831 108.164L73.6396 106.686L73.4636 106.656L73.2853 106.667L73.3831 108.164ZM76.0246 108.623L75.7681 110.1L76.0285 110.146L76.2887 110.099L76.0246 108.623ZM78.663 108.151L78.799 106.657L78.5978 106.638L78.3989 106.674L78.663 108.151ZM81.3038 108.391L81.1679 109.885L81.2787 109.895L81.3897 109.888L81.3038 108.391ZM83.9434 108.24L84.151 106.754L84.0049 106.734L83.8575 106.742L83.9434 108.24ZM86.5846 108.609L86.3769 110.094L86.621 110.128L86.8632 110.083L86.5846 108.609ZM89.223 108.11L89.2962 106.612L89.1189 106.603L88.9444 106.636L89.223 108.11ZM91.8634 108.239L91.7901 109.737L91.8131 109.739L91.8361 109.739L91.8634 108.239ZM94.5036 108.287L94.4763 109.787L94.5049 109.787L94.5335 109.787L94.5036 108.287ZM97.1434 108.235L97.3235 106.745L97.2189 106.733L97.1135 106.735L97.1434 108.235ZM99.7845 108.554L99.6044 110.043L99.7649 110.062L99.9259 110.047L99.7845 108.554ZM102.424 108.304L102.407 106.804L102.345 106.805L102.282 106.811L102.424 108.304ZM105.064 108.275L105.326 106.798L105.188 106.774L105.047 106.775L105.064 108.275ZM106.717 108.569L106.455 110.046L108.223 110.359L108.217 108.564L106.717 108.569ZM38.4563 116.262L39.7397 117.038L39.7914 116.953L38.5081 116.176L37.2247 115.4L37.173 115.485L38.4563 116.262ZM38.5081 116.176L40.0035 116.059L39.8043 113.508L38.3089 113.625L36.8134 113.742L37.0126 116.293L38.5081 116.176ZM38.3089 113.625L39.8063 113.713L39.9621 111.061L38.4647 110.973L36.9673 110.885L36.8114 113.537L38.3089 113.625ZM38.4647 110.973L39.9193 111.339L40.508 109.002L39.0534 108.635L37.5989 108.269L37.0101 110.607L38.4647 110.973ZM39.0534 108.635L39.2285 110.125L41.8787 109.814L41.7036 108.324L41.5285 106.834L38.8783 107.146L39.0534 108.635ZM41.7036 108.324L41.591 109.82L44.2315 110.018L44.3441 108.523L44.4566 107.027L41.8161 106.828L41.7036 108.324ZM44.3441 108.523L44.3428 110.023L46.9828 110.025L46.9841 108.525L46.9854 107.025L44.3454 107.023L44.3441 108.523ZM46.9841 108.525L47.0955 110.021L49.735 109.824L49.6236 108.328L49.5121 106.832L46.8727 107.029L46.9841 108.525ZM49.6236 108.328L49.5854 109.828L52.2256 109.895L52.2638 108.395L52.3019 106.896L49.6617 106.829L49.6236 108.328ZM52.2638 108.395L52.0917 109.886L54.7326 110.19L54.9046 108.7L55.0767 107.21L52.4358 106.905L52.2638 108.395ZM54.9046 108.7L55.1521 110.18L57.7908 109.738L57.5434 108.259L57.2959 106.78L54.6571 107.221L54.9046 108.7ZM57.5434 108.259L57.4685 109.757L60.1088 109.889L60.1838 108.391L60.2587 106.893L57.6183 106.761L57.5434 108.259ZM60.1838 108.391L60.2861 109.887L62.9256 109.707L62.8232 108.21L62.7208 106.714L60.0814 106.894L60.1838 108.391ZM62.8232 108.21L62.646 109.7L65.287 110.014L65.4642 108.525L65.6413 107.035L63.0004 106.721L62.8232 108.21ZM65.4642 108.525L65.518 110.024L68.1577 109.929L68.1039 108.43L68.0501 106.931L65.4104 107.026L65.4642 108.525ZM68.1039 108.43L68.1569 109.929L70.7966 109.836L70.7436 108.336L70.6906 106.837L68.0509 106.931L68.1039 108.43ZM70.7436 108.336L70.8414 109.833L73.4808 109.661L73.3831 108.164L73.2853 106.667L70.6459 106.84L70.7436 108.336ZM73.3831 108.164L73.1266 109.642L75.7681 110.1L76.0246 108.623L76.281 107.145L73.6396 106.686L73.3831 108.164ZM76.0246 108.623L76.2887 110.099L78.9272 109.627L78.663 108.151L78.3989 106.674L75.7604 107.146L76.0246 108.623ZM78.663 108.151L78.5271 109.644L81.1679 109.885L81.3038 108.391L81.4398 106.897L78.799 106.657L78.663 108.151ZM81.3038 108.391L81.3897 109.888L84.0292 109.737L83.9434 108.24L83.8575 106.742L81.218 106.893L81.3038 108.391ZM83.9434 108.24L83.7357 109.725L86.3769 110.094L86.5846 108.609L86.7923 107.123L84.151 106.754L83.9434 108.24ZM86.5846 108.609L86.8632 110.083L89.5016 109.584L89.223 108.11L88.9444 106.636L86.306 107.135L86.5846 108.609ZM89.223 108.11L89.1497 109.608L91.7901 109.737L91.8634 108.239L91.9367 106.741L89.2962 106.612L89.223 108.11ZM91.8634 108.239L91.8361 109.739L94.4763 109.787L94.5036 108.287L94.5308 106.787L91.8907 106.739L91.8634 108.239ZM94.5036 108.287L94.5335 109.787L97.1733 109.734L97.1434 108.235L97.1135 106.735L94.4737 106.787L94.5036 108.287ZM97.1434 108.235L96.9633 109.724L99.6044 110.043L99.7845 108.554L99.9646 107.065L97.3235 106.745L97.1434 108.235ZM99.7845 108.554L99.9259 110.047L102.565 109.797L102.424 108.304L102.282 106.811L99.643 107.061L99.7845 108.554ZM102.424 108.304L102.44 109.804L105.08 109.775L105.064 108.275L105.047 106.775L102.407 106.804L102.424 108.304ZM105.064 108.275L104.801 109.752L106.455 110.046L106.717 108.569L106.979 107.092L105.326 106.798L105.064 108.275ZM106.717 108.569L108.217 108.564L108.216 108.313L106.716 108.317L105.216 108.322L105.217 108.574L106.717 108.569Z" fill="black"/>
<path d="M77.5257 102.022L79.0255 102.044L79.0262 101.998L79.024 101.952L77.5257 102.022ZM77.4074 99.4842L75.9139 99.3444L75.9041 99.449L75.909 99.554L77.4074 99.4842ZM77.6545 96.8437L79.1479 96.9835L79.1575 96.8811L79.153 96.7784L77.6545 96.8437ZM77.5391 94.1975L76.3435 93.2917L76.0169 93.7227L76.0405 94.2629L77.5391 94.1975ZM77.5242 102.122L79.024 102.144L79.0255 102.044L77.5257 102.022L76.0258 102L76.0244 102.1L77.5242 102.122ZM77.5257 102.022L79.024 101.952L78.9058 99.4143L77.4074 99.4842L75.909 99.554L76.0273 102.092L77.5257 102.022ZM77.4074 99.4842L78.9009 99.6239L79.1479 96.9835L77.6545 96.8437L76.161 96.704L75.9139 99.3444L77.4074 99.4842ZM77.6545 96.8437L79.153 96.7784L79.0376 94.1322L77.5391 94.1975L76.0405 94.2629L76.1559 96.9091L77.6545 96.8437ZM77.5391 94.1975L78.7347 95.1034L78.8388 94.9659L77.6432 94.0601L76.4476 93.1542L76.3435 93.2917L77.5391 94.1975Z" fill="black"/>
<path d="M69.7144 94.1068L71.2142 94.1308L71.2144 94.1155L71.2144 94.1003L69.7144 94.1068ZM69.6739 96.645L71.1661 96.7978L71.1727 96.7335L71.1737 96.6689L69.6739 96.645ZM69.4032 99.2868L67.911 99.1339L67.8917 99.3227L67.92 99.5105L69.4032 99.2868ZM69.799 101.911L71.2921 102.055L71.3099 101.871L71.2823 101.688L69.799 101.911ZM69.714 94.0068L68.214 94.0134L68.2144 94.1134L69.7144 94.1068L71.2144 94.1003L71.2139 94.0003L69.714 94.0068ZM69.7144 94.1068L68.2146 94.0829L68.1741 96.621L69.6739 96.645L71.1737 96.6689L71.2142 94.1308L69.7144 94.1068ZM69.6739 96.645L68.1817 96.4921L67.911 99.1339L69.4032 99.2868L70.8954 99.4397L71.1661 96.7978L69.6739 96.645ZM69.4032 99.2868L67.92 99.5105L68.3158 102.135L69.799 101.911L71.2823 101.688L70.8864 99.0631L69.4032 99.2868ZM69.799 101.911L68.306 101.767L68.2575 102.269L69.7506 102.413L71.2436 102.557L71.2921 102.055L69.799 101.911Z" fill="black"/>
<path d="M61.634 94.2806L60.1344 94.3135L60.1348 94.3329L60.1357 94.3522L61.634 94.2806ZM61.7553 96.8213L63.2468 96.9814L63.2592 96.8658L63.2536 96.7497L61.7553 96.8213ZM61.4718 99.4624L59.9804 99.3023L59.9606 99.4867L59.9863 99.6704L61.4718 99.4624ZM61.8397 102.09L63.3392 102.129L63.3424 102.005L63.3252 101.882L61.8397 102.09ZM61.6318 94.1807L60.1322 94.2135L60.1344 94.3135L61.634 94.2806L63.1337 94.2478L63.1315 94.1478L61.6318 94.1807ZM61.634 94.2806L60.1357 94.3522L60.2571 96.8928L61.7553 96.8213L63.2536 96.7497L63.1323 94.2091L61.634 94.2806ZM61.7553 96.8213L60.2639 96.6611L59.9804 99.3023L61.4718 99.4624L62.9632 99.6225L63.2468 96.9814L61.7553 96.8213ZM61.4718 99.4624L59.9863 99.6704L60.3542 102.298L61.8397 102.09L63.3252 101.882L62.9573 99.2544L61.4718 99.4624ZM61.8397 102.09L60.3402 102.052L60.3216 102.776L61.8211 102.815L63.3206 102.853L63.3392 102.129L61.8397 102.09Z" fill="black"/>
<path d="M54.0468 103.344L55.5468 103.338L55.5465 103.271L55.5404 103.205L54.0468 103.344ZM53.8118 100.811L52.3174 100.681L52.3057 100.815L52.3182 100.949L53.8118 100.811ZM54.0407 98.1679L55.5351 98.2973L55.5452 98.181L55.5372 98.0645L54.0407 98.1679ZM53.8582 95.5239L52.3776 95.2834L52.3498 95.4544L52.3618 95.6272L53.8582 95.5239ZM54.0472 103.444L55.5472 103.438L55.5468 103.338L54.0468 103.344L52.5468 103.35L52.5472 103.45L54.0472 103.444ZM54.0468 103.344L55.5404 103.205L55.3053 100.672L53.8118 100.811L52.3182 100.949L52.5532 103.482L54.0468 103.344ZM53.8118 100.811L55.3062 100.94L55.5351 98.2973L54.0407 98.1679L52.5463 98.0384L52.3174 100.681L53.8118 100.811ZM54.0407 98.1679L55.5372 98.0645L55.3546 95.4206L53.8582 95.5239L52.3618 95.6272L52.5443 98.2712L54.0407 98.1679ZM53.8582 95.5239L55.3388 95.7644L55.4912 94.8264L54.0106 94.5859L52.53 94.3455L52.3776 95.2834L53.8582 95.5239Z" fill="black"/>
<path d="M45.7783 95.0809L44.2785 95.1082L44.2789 95.1278L44.2797 95.1474L45.7783 95.0809ZM45.8909 97.6222L47.3814 97.7904L47.3946 97.6734L47.3894 97.5558L45.8909 97.6222ZM45.593 100.262L44.1025 100.094L44.081 100.284L44.1079 100.473L45.593 100.262ZM45.9664 102.889L47.4622 103.001L47.4743 102.839L47.4515 102.678L45.9664 102.889ZM45.7765 94.981L44.2767 95.0082L44.2785 95.1082L45.7783 95.0809L47.278 95.0537L47.2762 94.9537L45.7765 94.981ZM45.7783 95.0809L44.2797 95.1474L44.3924 97.6886L45.8909 97.6222L47.3894 97.5558L47.2768 95.0145L45.7783 95.0809ZM45.8909 97.6222L44.4004 97.454L44.1025 100.094L45.593 100.262L47.0836 100.43L47.3814 97.7904L45.8909 97.6222ZM45.593 100.262L44.1079 100.473L44.4813 103.1L45.9664 102.889L47.4515 102.678L47.0781 100.051L45.593 100.262ZM45.9664 102.889L44.4706 102.777L44.4333 103.275L45.9291 103.387L47.4249 103.5L47.4622 103.001L45.9664 102.889Z" fill="black"/>
<path d="M38 104.087L39.4997 104.061L39.4986 103.996L39.4919 103.931L38 104.087ZM37.7355 101.554L36.2437 101.398L36.2273 101.554L36.2436 101.71L37.7355 101.554ZM38.0119 98.9142L39.5038 99.0704L39.519 98.9252L39.5059 98.7797L38.0119 98.9142ZM37.7743 96.2728L36.2795 96.1478L36.2687 96.2775L36.2803 96.4072L37.7743 96.2728ZM38.0017 104.187L39.5015 104.161L39.4997 104.061L38 104.087L36.5002 104.113L36.5019 104.213L38.0017 104.187ZM38 104.087L39.4919 103.931L39.2274 101.399L37.7355 101.554L36.2436 101.71L36.5081 104.242L38 104.087ZM37.7355 101.554L39.2273 101.711L39.5038 99.0704L38.0119 98.9142L36.5201 98.758L36.2437 101.398L37.7355 101.554ZM38.0119 98.9142L39.5059 98.7797L39.2683 96.1384L37.7743 96.2728L36.2803 96.4072L36.518 99.0486L38.0119 98.9142ZM37.7743 96.2728L39.2691 96.3978L39.3439 95.5034L37.8491 95.3784L36.3543 95.2534L36.2795 96.1478L37.7743 96.2728Z" fill="black"/>
<path d="M29.9199 95.8803H28.4199V95.9125L28.4213 95.9448L29.9199 95.8803ZM30.0293 98.4203L31.521 98.5773L31.5326 98.4668L31.5279 98.3558L30.0293 98.4203ZM29.7514 101.06L28.2596 100.903L28.2437 101.054L28.2584 101.205L29.7514 101.06ZM30.0077 103.7L31.5033 103.585L31.5022 103.57L31.5007 103.555L30.0077 103.7ZM30.1141 105.086V106.586H31.7337L31.6097 104.971L30.1141 105.086ZM29.9199 95.7803H28.4199V95.8803H29.9199H31.4199V95.7803H29.9199ZM29.9199 95.8803L28.4213 95.9448L28.5306 98.4848L30.0293 98.4203L31.5279 98.3558L31.4185 95.8158L29.9199 95.8803ZM30.0293 98.4203L28.5375 98.2632L28.2596 100.903L29.7514 101.06L31.2431 101.217L31.521 98.5773L30.0293 98.4203ZM29.7514 101.06L28.2584 101.205L28.5148 103.845L30.0077 103.7L31.5007 103.555L31.2443 100.915L29.7514 101.06ZM30.0077 103.7L28.5121 103.815L28.6185 105.201L30.1141 105.086L31.6097 104.971L31.5033 103.585L30.0077 103.7ZM30.1141 105.086V103.586H29.9199V105.086V106.586H30.1141V105.086Z" fill="black"/>
<path d="M21.9922 104.887H23.4922V104.855L23.4908 104.823L21.9922 104.887ZM21.8829 102.347L20.3911 102.19L20.3795 102.301L20.3842 102.412L21.8829 102.347ZM22.1608 99.7072L23.6525 99.8642L23.6684 99.7133L23.6537 99.5622L22.1608 99.7072ZM21.9044 97.0672L20.4106 96.9304L20.3977 97.0713L20.4114 97.2122L21.9044 97.0672ZM21.9922 104.987H23.4922V104.887H21.9922H20.4922V104.987H21.9922ZM21.9922 104.887L23.4908 104.823L23.3815 102.283L21.8829 102.347L20.3842 102.412L20.4936 104.952L21.9922 104.887ZM21.8829 102.347L23.3746 102.504L23.6525 99.8642L22.1608 99.7072L20.669 99.5501L20.3911 102.19L21.8829 102.347ZM22.1608 99.7072L23.6537 99.5622L23.3974 96.9222L21.9044 97.0672L20.4114 97.2122L20.6678 99.8522L22.1608 99.7072ZM21.9044 97.0672L23.3981 97.2039L23.4859 96.2446L21.9922 96.1079L20.4984 95.9712L20.4106 96.9304L21.9044 97.0672Z" fill="black"/>
<path d="M12.7263 95.4796L14.1976 95.7715L14.2366 95.5748L14.2226 95.3747L12.7263 95.4796ZM12.5486 92.9435L11.0548 92.8074L11.0439 92.9278L11.0523 93.0484L12.5486 92.9435ZM12.7893 90.3032L14.2831 90.4393L14.2891 90.3739L14.2893 90.3082L12.7893 90.3032ZM12.7982 87.657L11.3914 87.1364L11.2991 87.3859L11.2982 87.652L12.7982 87.657ZM13.7303 85.1384L13.0074 83.8241L12.5176 84.0935L12.3236 84.6177L13.7303 85.1384ZM16.0571 83.8584L15.9595 82.3616L15.6265 82.3833L15.3342 82.5441L16.0571 83.8584ZM18.6728 83.6879L18.7704 85.1847L18.7791 85.1841L18.7878 85.1834L18.6728 83.6879ZM21.3045 83.4854L21.3513 81.9861L21.2703 81.9836L21.1894 81.9898L21.3045 83.4854ZM23.942 83.5678L24.1305 82.0797L24.0599 82.0708L23.9888 82.0686L23.942 83.5678ZM26.5752 83.9014L26.3867 85.3895L26.5939 85.4157L26.8004 85.3844L26.5752 83.9014ZM29.2236 83.4993L29.3261 82.0028L29.1615 81.9916L28.9985 82.0163L29.2236 83.4993ZM31.8642 83.6801L31.7618 85.1766L31.8479 85.1825L31.934 85.1784L31.8642 83.6801ZM34.509 83.5569L34.723 82.0723L34.5818 82.0519L34.4392 82.0585L34.509 83.5569ZM37.1434 83.9367L36.9294 85.4213L37.0417 85.4375L37.1552 85.4366L37.1434 83.9367ZM39.7881 83.9159L39.7818 82.4159L39.7763 82.4159L39.7881 83.9159ZM42.4352 83.9047L42.4416 85.4047L42.4615 85.4046L42.4815 85.404L42.4352 83.9047ZM45.087 83.8229L45.399 82.3557L45.2218 82.318L45.0407 82.3236L45.087 83.8229ZM47.7044 84.3795L47.3924 85.8467L47.6488 85.9012L47.9085 85.8655L47.7044 84.3795ZM50.3584 84.015L50.5598 82.5286L50.357 82.5011L50.1543 82.529L50.3584 84.015ZM52.9887 84.3714L52.7873 85.8578L52.8947 85.8724L53.003 85.8713L52.9887 84.3714ZM55.6363 84.346L55.9199 82.8731L55.7723 82.8447L55.622 82.8461L55.6363 84.346ZM58.2557 84.8504L57.9721 86.3233L58.2111 86.3693L58.4524 86.3374L58.2557 84.8504ZM60.9179 84.4983L61.0802 83.0071L60.9005 82.9876L60.7213 83.0113L60.9179 84.4983ZM63.5488 84.7846L63.3866 86.2758L63.406 86.2779L63.4256 86.2795L63.5488 84.7846ZM66.1818 85.0017L66.0585 86.4966L66.0833 86.4987L66.1081 86.4999L66.1818 85.0017ZM68.8184 85.1313L69.1084 83.6596L69.0012 83.6385L68.892 83.6331L68.8184 85.1313ZM71.4321 85.6465L71.1421 87.1182L71.2961 87.1485L71.4531 87.1463L71.4321 85.6465ZM74.0855 85.6094L74.1994 84.1138L74.1321 84.1086L74.0645 84.1096L74.0855 85.6094ZM76.7182 85.8101L77.0222 84.3412L76.9281 84.3217L76.8322 84.3144L76.7182 85.8101ZM79.3146 86.3475L79.0106 87.8163L79.1979 87.8551L79.389 87.8456L79.3146 86.3475ZM81.9817 86.215L82.2179 84.7337L82.0635 84.7091L81.9073 84.7169L81.9817 86.215ZM84.5994 86.6323L84.8644 85.1559L84.85 85.1533L84.8355 85.151L84.5994 86.6323ZM87.206 87.1002L86.941 88.5766L87.0325 88.593L87.1254 88.598L87.206 87.1002ZM89.8535 87.2427L90.0693 85.7583L90.002 85.7486L89.9341 85.7449L89.8535 87.2427ZM92.4699 87.6232L92.9237 86.1935L92.807 86.1564L92.6858 86.1388L92.4699 87.6232ZM95.009 88.4291L94.5553 89.8588L94.7605 89.924L94.9759 89.9287L95.009 88.4291ZM97.6908 88.4885L98.2832 87.1104L98.0154 86.9953L97.724 86.9888L97.6908 88.4885ZM100.137 89.5398L99.5446 90.9179L99.631 90.955L99.7213 90.9811L100.137 89.5398ZM102.649 90.2643L103.142 88.8475L103.103 88.8342L103.065 88.8231L102.649 90.2643ZM105.187 91.1468L106.422 90.2955L106.143 89.8912L105.68 89.73L105.187 91.1468ZM106.742 93.4021L107.346 94.7748L109.006 94.0437L107.977 92.5508L106.742 93.4021ZM104.768 94.2715L104.863 95.7685L105.129 95.7517L105.373 95.6441L104.768 94.2715ZM102.145 94.4372L102.05 95.9342L102.144 95.9402L102.239 95.9342L102.145 94.4372ZM99.5083 94.2704L99.3349 95.7603L99.3741 95.7649L99.4136 95.7674L99.5083 94.2704ZM96.8846 93.9649L97.0581 92.475L97.0498 92.474L97.0416 92.4731L96.8846 93.9649ZM94.257 93.6884L94.4139 92.1967L94.4066 92.1959L94.3993 92.1952L94.257 93.6884ZM91.6221 93.4372L91.7644 91.944L91.6098 91.9292L91.4554 91.9465L91.6221 93.4372ZM88.9748 93.7332L88.932 95.2326L89.037 95.2356L89.1415 95.2239L88.9748 93.7332ZM86.3716 93.6588L86.4145 92.1594L86.3155 92.1566L86.2171 92.1668L86.3716 93.6588ZM83.7162 93.9338L83.5784 95.4274L83.7247 95.4409L83.8707 95.4258L83.7162 93.9338ZM81.0868 93.6912L81.2246 92.1976L81.1172 92.1877L81.0096 92.1932L81.0868 93.6912ZM78.4438 93.8275L78.4815 95.327L78.5013 95.3265L78.5211 95.3255L78.4438 93.8275ZM75.8001 93.8939L75.7624 92.3944L75.7269 92.3953L75.6915 92.3979L75.8001 93.8939ZM73.1621 94.0854L73.1681 95.5854L73.2195 95.5852L73.2707 95.5815L73.1621 94.0854ZM70.5204 94.0961L70.5251 95.5961L70.5264 95.5961L70.5204 94.0961ZM67.877 94.1044L67.8723 92.6043L67.8589 92.6045L67.877 94.1044ZM65.2317 94.1363L65.2136 92.6364L65.1786 92.6368L65.1437 92.6388L65.2317 94.1363ZM62.5876 94.2916L62.6731 95.7892L62.6756 95.789L62.5876 94.2916ZM59.9502 94.4421L59.9769 95.9419L60.0063 95.9414L60.0357 95.9397L59.9502 94.4421ZM57.3129 94.4891L57.3223 95.9891L57.331 95.989L57.3396 95.9889L57.3129 94.4891ZM54.6705 94.5057L54.5363 95.9997L54.6079 96.0061L54.6799 96.0057L54.6705 94.5057ZM52.0206 94.2676L52.1548 92.7736L52.0507 92.7643L51.9463 92.7694L52.0206 94.2676ZM49.3824 94.3983L49.3082 92.9001L49.249 92.9031L49.1903 92.9106L49.3824 94.3983ZM46.7482 94.7384L46.7897 96.2378L46.8653 96.2357L46.9403 96.226L46.7482 94.7384ZM44.1055 94.8115L44.0391 96.3101L44.093 96.3125L44.147 96.311L44.1055 94.8115ZM41.4596 94.6942L41.5261 93.1956L41.4955 93.1943L41.4648 93.1942L41.4596 94.6942ZM38.8211 94.6851L38.8263 93.1851L38.8161 93.1851L38.8059 93.1852L38.8211 94.6851ZM36.1826 94.7118L36.1966 96.2118L36.1978 96.2118L36.1826 94.7118ZM33.5343 94.7365L33.5203 93.2366L33.4798 93.237L33.4393 93.2396L33.5343 94.7365ZM30.8918 94.9043L30.9163 96.4041L30.9516 96.4036L30.9868 96.4013L30.8918 94.9043ZM28.2475 94.9475L28.2287 96.4474L28.2503 96.4477L28.272 96.4473L28.2475 94.9475ZM25.6017 94.9143L25.6205 93.4144L25.4991 93.4129L25.379 93.4309L25.6017 94.9143ZM22.9698 95.3094L23.1098 96.8028L23.1513 96.7989L23.1925 96.7928L22.9698 95.3094ZM20.3376 95.5561L20.3249 97.0561L20.4014 97.0567L20.4776 97.0496L20.3376 95.5561ZM17.7207 95.5339L17.7335 94.034L17.7024 94.0337L17.6714 94.0347L17.7207 95.5339ZM15.05 95.6217L15.0007 94.1225L14.8967 94.126L14.7942 94.1437L15.05 95.6217ZM12.8012 96.0109L12.5454 94.5329L11.2958 94.7491L11.3012 96.0173L12.8012 96.0109ZM12.8124 98.6509L14.3044 98.8053L14.3127 98.7251L14.3123 98.6446L12.8124 98.6509ZM12.5392 101.291L11.0472 101.137L11.0324 101.28L11.045 101.423L12.5392 101.291ZM12.7722 103.931L14.2719 103.961L14.2735 103.88L14.2663 103.799L12.7722 103.931ZM12.7195 106.571L11.2198 106.541L11.2194 106.561L11.2196 106.581L12.7195 106.571ZM12.7381 109.211L14.238 109.232L14.2382 109.216L14.2381 109.2L12.7381 109.211ZM12.7018 111.851L14.1982 111.954L14.2011 111.913L14.2016 111.872L12.7018 111.851ZM12.5193 114.491L11.0229 114.387L11.0073 114.613L11.0588 114.833L12.5193 114.491ZM12.9716 116.422V117.922H14.8636L14.4321 116.079L12.9716 116.422ZM12.7068 95.5776L14.1781 95.8696L14.1976 95.7715L12.7263 95.4796L11.255 95.1876L11.2355 95.2857L12.7068 95.5776ZM12.7263 95.4796L14.2226 95.3747L14.045 92.8387L12.5486 92.9435L11.0523 93.0484L11.23 95.5844L12.7263 95.4796ZM12.5486 92.9435L14.0424 93.0797L14.2831 90.4393L12.7893 90.3032L11.2955 90.167L11.0548 92.8074L12.5486 92.9435ZM12.7893 90.3032L14.2893 90.3082L14.2982 87.6621L12.7982 87.657L11.2982 87.652L11.2893 90.2981L12.7893 90.3032ZM12.7982 87.657L14.2049 88.1776L15.1371 85.659L13.7303 85.1384L12.3236 84.6177L11.3914 87.1364L12.7982 87.657ZM13.7303 85.1384L14.4533 86.4526L16.7801 85.1727L16.0571 83.8584L15.3342 82.5441L13.0074 83.8241L13.7303 85.1384ZM16.0571 83.8584L16.1547 85.3552L18.7704 85.1847L18.6728 83.6879L18.5752 82.191L15.9595 82.3616L16.0571 83.8584ZM18.6728 83.6879L18.7878 85.1834L21.4195 84.981L21.3045 83.4854L21.1894 81.9898L18.5577 82.1923L18.6728 83.6879ZM21.3045 83.4854L21.2576 84.9847L23.8951 85.0671L23.942 83.5678L23.9888 82.0686L21.3513 81.9861L21.3045 83.4854ZM23.942 83.5678L23.7535 85.056L26.3867 85.3895L26.5752 83.9014L26.7637 82.4133L24.1305 82.0797L23.942 83.5678ZM26.5752 83.9014L26.8004 85.3844L29.4488 84.9824L29.2236 83.4993L28.9985 82.0163L26.3501 82.4184L26.5752 83.9014ZM29.2236 83.4993L29.1212 84.9958L31.7618 85.1766L31.8642 83.6801L31.9667 82.1836L29.3261 82.0028L29.2236 83.4993ZM31.8642 83.6801L31.934 85.1784L34.5788 85.0553L34.509 83.5569L34.4392 82.0585L31.7945 82.1817L31.8642 83.6801ZM34.509 83.5569L34.295 85.0416L36.9294 85.4213L37.1434 83.9367L37.3574 82.452L34.723 82.0723L34.509 83.5569ZM37.1434 83.9367L37.1552 85.4366L39.7999 85.4158L39.7881 83.9159L39.7763 82.4159L37.1316 82.4367L37.1434 83.9367ZM39.7881 83.9159L39.7944 85.4159L42.4416 85.4047L42.4352 83.9047L42.4289 82.4047L39.7818 82.4159L39.7881 83.9159ZM42.4352 83.9047L42.4815 85.404L45.1332 85.3222L45.087 83.8229L45.0407 82.3236L42.389 82.4054L42.4352 83.9047ZM45.087 83.8229L44.775 85.2901L47.3924 85.8467L47.7044 84.3795L48.0164 82.9123L45.399 82.3557L45.087 83.8229ZM47.7044 84.3795L47.9085 85.8655L50.5625 85.5011L50.3584 84.015L50.1543 82.529L47.5003 82.8934L47.7044 84.3795ZM50.3584 84.015L50.157 85.5014L52.7873 85.8578L52.9887 84.3714L53.1901 82.885L50.5598 82.5286L50.3584 84.015ZM52.9887 84.3714L53.003 85.8713L55.6507 85.846L55.6363 84.346L55.622 82.8461L52.9743 82.8715L52.9887 84.3714ZM55.6363 84.346L55.3527 85.819L57.9721 86.3233L58.2557 84.8504L58.5393 83.3774L55.9199 82.8731L55.6363 84.346ZM58.2557 84.8504L58.4524 86.3374L61.1146 85.9854L60.9179 84.4983L60.7213 83.0113L58.0591 83.3633L58.2557 84.8504ZM60.9179 84.4983L60.7557 85.9895L63.3866 86.2758L63.5488 84.7846L63.7111 83.2934L61.0802 83.0071L60.9179 84.4983ZM63.5488 84.7846L63.4256 86.2795L66.0585 86.4966L66.1818 85.0017L66.305 83.5068L63.6721 83.2897L63.5488 84.7846ZM66.1818 85.0017L66.1081 86.4999L68.7447 86.6295L68.8184 85.1313L68.892 83.6331L66.2554 83.5035L66.1818 85.0017ZM68.8184 85.1313L68.5283 86.603L71.1421 87.1182L71.4321 85.6465L71.7222 84.1748L69.1084 83.6596L68.8184 85.1313ZM71.4321 85.6465L71.4531 87.1463L74.1064 87.1093L74.0855 85.6094L74.0645 84.1096L71.4112 84.1466L71.4321 85.6465ZM74.0855 85.6094L73.9715 87.1051L76.6042 87.3057L76.7182 85.8101L76.8322 84.3144L74.1994 84.1138L74.0855 85.6094ZM76.7182 85.8101L76.4142 87.2789L79.0106 87.8163L79.3146 86.3475L79.6186 84.8786L77.0222 84.3412L76.7182 85.8101ZM79.3146 86.3475L79.389 87.8456L82.0561 87.7132L81.9817 86.215L81.9073 84.7169L79.2402 84.8493L79.3146 86.3475ZM81.9817 86.215L81.7456 87.6963L84.3632 88.1136L84.5994 86.6323L84.8355 85.151L82.2179 84.7337L81.9817 86.215ZM84.5994 86.6323L84.3344 88.1087L86.941 88.5766L87.206 87.1002L87.471 85.6238L84.8644 85.1559L84.5994 86.6323ZM87.206 87.1002L87.1254 88.598L89.7728 88.7406L89.8535 87.2427L89.9341 85.7449L87.2866 85.6024L87.206 87.1002ZM89.8535 87.2427L89.6376 88.7271L92.2541 89.1076L92.4699 87.6232L92.6858 86.1388L90.0693 85.7583L89.8535 87.2427ZM92.4699 87.6232L92.0161 89.0529L94.5553 89.8588L95.009 88.4291L95.4628 86.9994L92.9237 86.1935L92.4699 87.6232ZM95.009 88.4291L94.9759 89.9287L97.6576 89.9881L97.6908 88.4885L97.724 86.9888L95.0423 86.9295L95.009 88.4291ZM97.6908 88.4885L97.0985 89.8666L99.5446 90.9179L100.137 89.5398L100.729 88.1617L98.2832 87.1104L97.6908 88.4885ZM100.137 89.5398L99.7213 90.9811L102.233 91.7056L102.649 90.2643L103.065 88.8231L100.553 88.0986L100.137 89.5398ZM102.649 90.2643L102.156 91.6811L104.694 92.5636L105.187 91.1468L105.68 89.73L103.142 88.8475L102.649 90.2643ZM105.187 91.1468L103.952 91.9981L105.507 94.2534L106.742 93.4021L107.977 92.5508L106.422 90.2955L105.187 91.1468ZM106.742 93.4021L106.137 92.0294L104.164 92.8988L104.768 94.2715L105.373 95.6441L107.346 94.7748L106.742 93.4021ZM104.768 94.2715L104.674 92.7744L102.05 92.9402L102.145 94.4372L102.239 95.9342L104.863 95.7685L104.768 94.2715ZM102.145 94.4372L102.239 92.9402L99.6031 92.7734L99.5083 94.2704L99.4136 95.7674L102.05 95.9342L102.145 94.4372ZM99.5083 94.2704L99.6818 92.7804L97.0581 92.475L96.8846 93.9649L96.7112 95.4548L99.3349 95.7603L99.5083 94.2704ZM96.8846 93.9649L97.0416 92.4731L94.4139 92.1967L94.257 93.6884L94.1 95.1802L96.7277 95.4567L96.8846 93.9649ZM94.257 93.6884L94.3993 92.1952L91.7644 91.944L91.6221 93.4372L91.4797 94.9304L94.1146 95.1816L94.257 93.6884ZM91.6221 93.4372L91.4554 91.9465L88.8081 92.2425L88.9748 93.7332L89.1415 95.2239L91.7887 94.9279L91.6221 93.4372ZM88.9748 93.7332L89.0176 92.2338L86.4145 92.1594L86.3716 93.6588L86.3288 95.1582L88.932 95.2326L88.9748 93.7332ZM86.3716 93.6588L86.2171 92.1668L83.5617 92.4418L83.7162 93.9338L83.8707 95.4258L86.5261 95.1508L86.3716 93.6588ZM83.7162 93.9338L83.854 92.4401L81.2246 92.1976L81.0868 93.6912L80.949 95.1849L83.5784 95.4274L83.7162 93.9338ZM81.0868 93.6912L81.0096 92.1932L78.3666 92.3295L78.4438 93.8275L78.5211 95.3255L81.164 95.1893L81.0868 93.6912ZM78.4438 93.8275L78.4062 92.328L75.7624 92.3944L75.8001 93.8939L75.8377 95.3934L78.4815 95.327L78.4438 93.8275ZM75.8001 93.8939L75.6915 92.3979L73.0535 92.5894L73.1621 94.0854L73.2707 95.5815L75.9087 95.39L75.8001 93.8939ZM73.1621 94.0854L73.1561 92.5854L70.5144 92.5961L70.5204 94.0961L70.5264 95.5961L73.1681 95.5854L73.1621 94.0854ZM70.5204 94.0961L70.5157 92.5961L67.8723 92.6044L67.877 94.1044L67.8817 95.6043L70.5251 95.5961L70.5204 94.0961ZM67.877 94.1044L67.8589 92.6045L65.2136 92.6364L65.2317 94.1363L65.2498 95.6362L67.8951 95.6042L67.877 94.1044ZM65.2317 94.1363L65.1437 92.6388L62.4996 92.7942L62.5876 94.2916L62.6756 95.789L65.3197 95.6337L65.2317 94.1363ZM62.5876 94.2916L62.5021 92.7941L59.8648 92.9446L59.9502 94.4421L60.0357 95.9397L62.6731 95.7892L62.5876 94.2916ZM59.9502 94.4421L59.9235 92.9424L57.2862 92.9893L57.3129 94.4891L57.3396 95.9889L59.9769 95.9419L59.9502 94.4421ZM57.3129 94.4891L57.3035 92.9891L54.6611 93.0057L54.6705 94.5057L54.6799 96.0057L57.3223 95.9891L57.3129 94.4891ZM54.6705 94.5057L54.8047 93.0117L52.1548 92.7736L52.0206 94.2676L51.8863 95.7616L54.5363 95.9997L54.6705 94.5057ZM52.0206 94.2676L51.9463 92.7694L49.3082 92.9001L49.3824 94.3983L49.4566 95.8965L52.0948 95.7657L52.0206 94.2676ZM49.3824 94.3983L49.1903 92.9106L46.5561 93.2507L46.7482 94.7384L46.9403 96.226L49.5745 95.8859L49.3824 94.3983ZM46.7482 94.7384L46.7067 93.239L44.064 93.3121L44.1055 94.8115L44.147 96.311L46.7897 96.2378L46.7482 94.7384ZM44.1055 94.8115L44.172 93.313L41.5261 93.1956L41.4596 94.6942L41.3932 96.1927L44.0391 96.3101L44.1055 94.8115ZM41.4596 94.6942L41.4648 93.1942L38.8263 93.1851L38.8211 94.6851L38.816 96.1851L41.4545 96.1941L41.4596 94.6942ZM38.8211 94.6851L38.8059 93.1852L36.1674 93.2119L36.1826 94.7118L36.1978 96.2118L38.8363 96.185L38.8211 94.6851ZM36.1826 94.7118L36.1686 93.2119L33.5203 93.2366L33.5343 94.7365L33.5483 96.2365L36.1966 96.2118L36.1826 94.7118ZM33.5343 94.7365L33.4393 93.2396L30.7967 93.4073L30.8918 94.9043L30.9868 96.4013L33.6294 96.2335L33.5343 94.7365ZM30.8918 94.9043L30.8673 93.4045L28.223 93.4477L28.2475 94.9475L28.272 96.4473L30.9163 96.4041L30.8918 94.9043ZM28.2475 94.9475L28.2663 93.4476L25.6205 93.4144L25.6017 94.9143L25.5829 96.4142L28.2287 96.4474L28.2475 94.9475ZM25.6017 94.9143L25.379 93.4309L22.7471 93.826L22.9698 95.3094L23.1925 96.7928L25.8243 96.3977L25.6017 94.9143ZM22.9698 95.3094L22.8298 93.8159L20.1976 94.0627L20.3376 95.5561L20.4776 97.0496L23.1098 96.8028L22.9698 95.3094ZM20.3376 95.5561L20.3503 94.0562L17.7335 94.034L17.7207 95.5339L17.708 97.0339L20.3249 97.0561L20.3376 95.5561ZM17.7207 95.5339L17.6714 94.0347L15.0007 94.1225L15.05 95.6217L15.0993 97.1209L17.77 97.0331L17.7207 95.5339ZM15.05 95.6217L14.7942 94.1437L12.5454 94.5329L12.8012 96.0109L13.057 97.4889L15.3058 97.0998L15.05 95.6217ZM12.8012 96.0109L11.3012 96.0173L11.3124 98.6573L12.8124 98.6509L14.3123 98.6446L14.3012 96.0046L12.8012 96.0109ZM12.8124 98.6509L11.3203 98.4965L11.0472 101.137L12.5392 101.291L14.0312 101.445L14.3044 98.8053L12.8124 98.6509ZM12.5392 101.291L11.045 101.423L11.278 104.063L12.7722 103.931L14.2663 103.799L14.0334 101.159L12.5392 101.291ZM12.7722 103.931L11.2725 103.901L11.2198 106.541L12.7195 106.571L14.2192 106.601L14.2719 103.961L12.7722 103.931ZM12.7195 106.571L11.2196 106.581L11.2382 109.221L12.7381 109.211L14.2381 109.2L14.2195 106.56L12.7195 106.571ZM12.7381 109.211L11.2383 109.19L11.2019 111.83L12.7018 111.851L14.2016 111.872L14.238 109.232L12.7381 109.211ZM12.7018 111.851L11.2054 111.747L11.0229 114.387L12.5193 114.491L14.0157 114.594L14.1982 111.954L12.7018 111.851ZM12.5193 114.491L11.0588 114.833L11.5111 116.764L12.9716 116.422L14.4321 116.079L13.9798 114.149L12.5193 114.491ZM12.9716 116.422V114.922H12.7068V116.422V117.922H12.9716V116.422Z" fill="black"/>
<path d="M106.663 100.912L106.59 99.4133L106.558 99.4148L106.526 99.4178L106.663 100.912ZM104.131 101.143L104.046 102.641L104.157 102.647L104.267 102.637L104.131 101.143ZM101.481 100.992L101.566 99.4949L101.414 99.4863L101.264 99.5082L101.481 100.992ZM98.8559 101.376L98.9884 102.87L99.0306 102.866L99.0726 102.86L98.8559 101.376ZM96.2241 101.609L96.1799 103.108L96.2684 103.111L96.3565 103.103L96.2241 101.609ZM93.5773 101.531L93.6214 100.032L93.5658 100.03L93.5103 100.032L93.5773 101.531ZM90.9399 101.649L90.8729 100.15L90.8166 100.153L90.7606 100.16L90.9399 101.649ZM88.3121 101.965L88.342 103.465L88.4169 103.463L88.4914 103.454L88.3121 101.965ZM85.6715 102.018L85.5672 103.514L85.6343 103.519L85.7015 103.518L85.6715 102.018ZM83.0196 101.833L83.1239 100.337L82.9126 100.322L82.7054 100.366L83.0196 101.833ZM80.4035 102.393L80.3964 103.893L80.5588 103.894L80.7177 103.86L80.4035 102.393ZM77.7598 102.381L77.767 100.881L77.6782 100.88L77.59 100.89L77.7598 102.381ZM75.1312 102.68L75.0214 104.176L75.1614 104.187L75.301 104.171L75.1312 102.68ZM72.4788 102.486L72.5886 100.99L72.473 100.981L72.3575 100.99L72.4788 102.486ZM69.846 102.699L69.9664 104.194L69.9672 104.194L69.846 102.699ZM67.2131 102.911L67.0927 101.416L67.0704 101.418L67.0482 101.42L67.2131 102.911ZM64.5841 103.202L64.3942 104.69L64.5714 104.712L64.749 104.693L64.5841 103.202ZM61.9247 102.863L62.1145 101.375L61.8523 101.341L61.5945 101.399L61.9247 102.863ZM59.31 103.452L59.2413 104.951L59.4431 104.96L59.6402 104.916L59.31 103.452ZM56.6611 103.331L56.7299 101.833L56.6188 101.827L56.5082 101.839L56.6611 103.331ZM54.031 103.6L53.8902 105.094L54.0371 105.108L54.1839 105.093L54.031 103.6ZM51.3759 103.35L51.5168 101.857L51.2714 101.833L51.0315 101.89L51.3759 103.35ZM48.7625 103.966L48.7565 105.466L48.9341 105.467L49.1069 105.426L48.7625 103.966ZM46.119 103.956L46.125 102.456L46.102 102.456L46.079 102.456L46.119 103.956ZM43.4793 104.026L43.4393 102.527L43.4107 102.527L43.3822 102.529L43.4793 104.026ZM40.8445 104.197L40.7313 105.693L40.8364 105.701L40.9416 105.694L40.8445 104.197ZM38.1917 103.996L38.3049 102.501L38.1436 102.488L37.9835 102.511L38.1917 103.996ZM35.5664 104.364L35.65 105.862L35.7126 105.859L35.7747 105.85L35.5664 104.364ZM32.9304 104.512L32.8336 106.008L32.9238 106.014L33.0141 106.009L32.9304 104.512ZM30.2791 104.34L30.376 102.843L30.1788 102.83L29.985 102.869L30.2791 104.34ZM27.6613 104.863L27.66 106.363L27.8091 106.364L27.9554 106.334L27.6613 104.863ZM25.0181 104.861L25.0048 106.361L25.0169 106.361L25.0181 104.861ZM22.3739 104.838L22.3872 103.338L22.304 103.337L22.2213 103.346L22.3739 104.838ZM19.7449 105.107L19.8281 106.604L19.8629 106.603L19.8975 106.599L19.7449 105.107ZM17.1087 105.253L16.9194 106.741L17.0552 106.759L17.192 106.751L17.1087 105.253ZM14.4753 104.918L14.6646 103.43L13.9513 103.34L13.4338 103.839L14.4753 104.918ZM106.762 100.907L106.69 99.4085L106.59 99.4133L106.663 100.912L106.735 102.41L106.835 102.405L106.762 100.907ZM106.663 100.912L106.526 99.4178L103.994 99.6492L104.131 101.143L104.267 102.637L106.799 102.405L106.663 100.912ZM104.131 101.143L104.216 99.6454L101.566 99.4949L101.481 100.992L101.395 102.49L104.046 102.641L104.131 101.143ZM101.481 100.992L101.264 99.5082L98.6392 99.8913L98.8559 101.376L99.0726 102.86L101.697 102.477L101.481 100.992ZM98.8559 101.376L98.7234 99.8814L96.0916 100.115L96.2241 101.609L96.3565 103.103L98.9884 102.87L98.8559 101.376ZM96.2241 101.609L96.2683 100.11L93.6214 100.032L93.5773 101.531L93.5331 103.03L96.1799 103.108L96.2241 101.609ZM93.5773 101.531L93.5103 100.032L90.8729 100.15L90.9399 101.649L91.0069 103.147L93.6443 103.029L93.5773 101.531ZM90.9399 101.649L90.7606 100.16L88.1328 100.476L88.3121 101.965L88.4914 103.454L91.1192 103.138L90.9399 101.649ZM88.3121 101.965L88.2821 100.466L85.6416 100.518L85.6715 102.018L85.7015 103.518L88.342 103.465L88.3121 101.965ZM85.6715 102.018L85.7759 100.522L83.1239 100.337L83.0196 101.833L82.9152 103.329L85.5672 103.514L85.6715 102.018ZM83.0196 101.833L82.7054 100.366L80.0893 100.927L80.4035 102.393L80.7177 103.86L83.3337 103.3L83.0196 101.833ZM80.4035 102.393L80.4106 100.893L77.767 100.881L77.7598 102.381L77.7527 103.881L80.3964 103.893L80.4035 102.393ZM77.7598 102.381L77.59 100.89L74.9614 101.19L75.1312 102.68L75.301 104.171L77.9296 103.871L77.7598 102.381ZM75.1312 102.68L75.241 101.184L72.5886 100.99L72.4788 102.486L72.3689 103.981L75.0214 104.176L75.1312 102.68ZM72.4788 102.486L72.3575 100.99L69.7247 101.204L69.846 102.699L69.9672 104.194L72.6 103.981L72.4788 102.486ZM69.846 102.699L69.7256 101.204L67.0927 101.416L67.2131 102.911L67.3335 104.406L69.9664 104.194L69.846 102.699ZM67.2131 102.911L67.0482 101.42L64.4192 101.711L64.5841 103.202L64.749 104.693L67.3781 104.402L67.2131 102.911ZM64.5841 103.202L64.7739 101.714L62.1145 101.375L61.9247 102.863L61.7348 104.35L64.3942 104.69L64.5841 103.202ZM61.9247 102.863L61.5945 101.399L58.9799 101.989L59.31 103.452L59.6402 104.916L62.2548 104.326L61.9247 102.863ZM59.31 103.452L59.3788 101.954L56.7299 101.833L56.6611 103.331L56.5924 104.829L59.2413 104.951L59.31 103.452ZM56.6611 103.331L56.5082 101.839L53.8781 102.108L54.031 103.6L54.1839 105.093L56.814 104.823L56.6611 103.331ZM54.031 103.6L54.1719 102.107L51.5168 101.857L51.3759 103.35L51.235 104.843L53.8902 105.094L54.031 103.6ZM51.3759 103.35L51.0315 101.89L48.4182 102.506L48.7625 103.966L49.1069 105.426L51.7203 104.81L51.3759 103.35ZM48.7625 103.966L48.7686 102.466L46.125 102.456L46.119 103.956L46.1129 105.456L48.7565 105.466L48.7625 103.966ZM46.119 103.956L46.079 102.456L43.4393 102.527L43.4793 104.026L43.5193 105.526L46.1589 105.455L46.119 103.956ZM43.4793 104.026L43.3822 102.529L40.7474 102.7L40.8445 104.197L40.9416 105.694L43.5764 105.523L43.4793 104.026ZM40.8445 104.197L40.9576 102.701L38.3049 102.501L38.1917 103.996L38.0786 105.492L40.7313 105.693L40.8445 104.197ZM38.1917 103.996L37.9835 102.511L35.3582 102.879L35.5664 104.364L35.7747 105.85L38.4 105.482L38.1917 103.996ZM35.5664 104.364L35.4828 102.867L32.8468 103.014L32.9304 104.512L33.0141 106.009L35.65 105.862L35.5664 104.364ZM32.9304 104.512L33.0273 103.015L30.376 102.843L30.2791 104.34L30.1823 105.837L32.8336 106.008L32.9304 104.512ZM30.2791 104.34L29.985 102.869L27.3672 103.393L27.6613 104.863L27.9554 106.334L30.5732 105.811L30.2791 104.34ZM27.6613 104.863L27.6625 103.363L25.0193 103.361L25.0181 104.861L25.0169 106.361L27.66 106.363L27.6613 104.863ZM25.0181 104.861L25.0314 103.361L22.3872 103.338L22.3739 104.838L22.3606 106.338L25.0048 106.361L25.0181 104.861ZM22.3739 104.838L22.2213 103.346L19.5922 103.615L19.7449 105.107L19.8975 106.599L22.5265 106.33L22.3739 104.838ZM19.7449 105.107L19.6616 103.609L17.0254 103.756L17.1087 105.253L17.192 106.751L19.8281 106.604L19.7449 105.107ZM17.1087 105.253L17.298 103.765L14.6646 103.43L14.4753 104.918L14.286 106.406L16.9194 106.741L17.1087 105.253ZM14.4753 104.918L13.4338 103.839L13.1743 104.089L14.2158 105.169L15.2573 106.248L15.5168 105.998L14.4753 104.918Z" fill="black"/>
<path d="M8.1 116V117.5H8.13227L8.16451 117.499L8.1 116ZM10.64 115.891L10.797 114.399L10.6865 114.387L10.5755 114.392L10.64 115.891ZM13.28 116.169L13.123 117.66L13.2739 117.676L13.425 117.662L13.28 116.169ZM15.92 115.912L15.8596 114.413L15.8172 114.415L15.775 114.419L15.92 115.912ZM18.56 115.806L18.6763 114.31L18.588 114.303L18.4996 114.307L18.56 115.806ZM21.2 116.011L21.0837 117.507L21.1392 117.511L21.1948 117.511L21.2 116.011ZM23.84 116.02L23.8348 117.52L23.8912 117.52L23.9474 117.516L23.84 116.02ZM26.48 115.831L26.5223 114.331L26.4473 114.329L26.3726 114.334L26.48 115.831ZM29.12 115.905L29.2963 114.415L29.2295 114.408L29.1623 114.406L29.12 115.905ZM31.76 116.217L31.5837 117.707L31.7941 117.732L32.0032 117.698L31.76 116.217ZM34.4 115.784L34.4793 114.286L34.3171 114.277L34.1568 114.303L34.4 115.784ZM37.04 115.923L36.9607 117.421L37.0493 117.426L37.1379 117.42L37.04 115.923ZM39.68 115.751L39.8617 114.262L39.7223 114.245L39.5821 114.254L39.68 115.751ZM42.32 116.073L42.1383 117.562L42.2533 117.576L42.3692 117.572L42.32 116.073ZM44.96 115.986L44.9117 114.487L44.9108 114.487L44.96 115.986ZM47.6 115.901L47.6483 117.401L47.6707 117.4L47.693 117.398L47.6 115.901ZM50.24 115.737L50.5012 114.26L50.3253 114.229L50.147 114.24L50.24 115.737ZM52.88 116.204L52.6188 117.681L52.879 117.727L53.1393 117.682L52.88 116.204ZM55.52 115.741L55.6608 114.247L55.4596 114.228L55.2606 114.263L55.52 115.741ZM58.16 115.99L58.0192 117.483L58.1299 117.493L58.2409 117.487L58.16 115.99ZM60.8 115.847L61.0126 114.362L60.8665 114.341L60.7191 114.349L60.8 115.847ZM63.44 116.225L63.2274 117.71L63.4714 117.745L63.7137 117.7L63.44 116.225ZM66.08 115.735L66.1582 114.237L65.9809 114.228L65.8063 114.26L66.08 115.735ZM68.72 115.873L68.6418 117.371L68.6647 117.372L68.6878 117.373L68.72 115.873ZM71.36 115.93L71.3278 117.429L71.3564 117.43L71.3849 117.429L71.36 115.93ZM74 115.886L74.185 114.397L74.0804 114.384L73.975 114.386L74 115.886ZM76.64 116.214L76.455 117.702L76.6155 117.722L76.7765 117.708L76.64 116.214ZM79.28 115.973L79.2685 114.473L79.2059 114.473L79.1435 114.479L79.28 115.973ZM81.92 115.952L82.0888 114.462L81.9989 114.452L81.9085 114.452L81.92 115.952ZM84.56 116.251L84.3912 117.742L84.5876 117.764L84.783 117.735L84.56 116.251ZM87.2 115.854L87.2734 114.356L87.1245 114.349L86.977 114.371L87.2 115.854ZM89.84 115.984L89.9255 114.486L89.9134 114.486L89.84 115.984ZM92.48 116.135L92.3945 117.632L92.4978 117.638L92.6008 117.63L92.48 116.135ZM95.12 115.921L95.1099 114.421L95.0544 114.422L94.9992 114.426L95.12 115.921ZM97.76 115.903L97.9616 114.417L97.8562 114.403L97.7499 114.403L97.76 115.903ZM100.4 116.261L100.198 117.748L100.434 117.78L100.667 117.737L100.4 116.261ZM103.04 115.784L103.284 114.304L103.028 114.262L102.773 114.308L103.04 115.784ZM105.68 116.219L105.436 117.699L105.576 117.722L105.719 117.718L105.68 116.219ZM108.32 116.151L108.359 117.65L108.453 117.648L108.546 117.634L108.32 116.151ZM110.96 115.748L111.313 114.29L111.026 114.221L110.734 114.265L110.96 115.748ZM8 116V117.5H8.1V116V114.5H8V116ZM8.1 116L8.16451 117.499L10.7045 117.389L10.64 115.891L10.5755 114.392L8.03549 114.501L8.1 116ZM10.64 115.891L10.483 117.382L13.123 117.66L13.28 116.169L13.437 114.677L10.797 114.399L10.64 115.891ZM13.28 116.169L13.425 117.662L16.065 117.405L15.92 115.912L15.775 114.419L13.135 114.676L13.28 116.169ZM15.92 115.912L15.9804 117.411L18.6204 117.305L18.56 115.806L18.4996 114.307L15.8596 114.413L15.92 115.912ZM18.56 115.806L18.4437 117.301L21.0837 117.507L21.2 116.011L21.3163 114.516L18.6763 114.31L18.56 115.806ZM21.2 116.011L21.1948 117.511L23.8348 117.52L23.84 116.02L23.8452 114.52L21.2052 114.511L21.2 116.011ZM23.84 116.02L23.9474 117.516L26.5874 117.327L26.48 115.831L26.3726 114.334L23.7326 114.524L23.84 116.02ZM26.48 115.831L26.4377 117.33L29.0777 117.404L29.12 115.905L29.1623 114.406L26.5223 114.331L26.48 115.831ZM29.12 115.905L28.9437 117.395L31.5837 117.707L31.76 116.217L31.9363 114.728L29.2963 114.415L29.12 115.905ZM31.76 116.217L32.0032 117.698L34.6432 117.264L34.4 115.784L34.1568 114.303L31.5168 114.737L31.76 116.217ZM34.4 115.784L34.3207 117.282L36.9607 117.421L37.04 115.923L37.1193 114.426L34.4793 114.286L34.4 115.784ZM37.04 115.923L37.1379 117.42L39.7779 117.248L39.68 115.751L39.5821 114.254L36.9421 114.427L37.04 115.923ZM39.68 115.751L39.4983 117.24L42.1383 117.562L42.32 116.073L42.5017 114.584L39.8617 114.262L39.68 115.751ZM42.32 116.073L42.3692 117.572L45.0092 117.486L44.96 115.986L44.9108 114.487L42.2708 114.574L42.32 116.073ZM44.96 115.986L45.0083 117.486L47.6483 117.401L47.6 115.901L47.5517 114.402L44.9117 114.487L44.96 115.986ZM47.6 115.901L47.693 117.398L50.333 117.234L50.24 115.737L50.147 114.24L47.507 114.404L47.6 115.901ZM50.24 115.737L49.9788 117.214L52.6188 117.681L52.88 116.204L53.1412 114.727L50.5012 114.26L50.24 115.737ZM52.88 116.204L53.1393 117.682L55.7793 117.218L55.52 115.741L55.2606 114.263L52.6207 114.727L52.88 116.204ZM55.52 115.741L55.3792 117.234L58.0192 117.483L58.16 115.99L58.3008 114.496L55.6608 114.247L55.52 115.741ZM58.16 115.99L58.2409 117.487L60.8809 117.345L60.8 115.847L60.7191 114.349L58.0791 114.492L58.16 115.99ZM60.8 115.847L60.5874 117.332L63.2274 117.71L63.44 116.225L63.6526 114.74L61.0126 114.362L60.8 115.847ZM63.44 116.225L63.7137 117.7L66.3537 117.21L66.08 115.735L65.8063 114.26L63.1663 114.75L63.44 116.225ZM66.08 115.735L66.0018 117.233L68.6418 117.371L68.72 115.873L68.7982 114.375L66.1582 114.237L66.08 115.735ZM68.72 115.873L68.6878 117.373L71.3278 117.429L71.36 115.93L71.3922 114.43L68.7522 114.373L68.72 115.873ZM71.36 115.93L71.3849 117.429L74.0249 117.386L74 115.886L73.975 114.386L71.335 114.43L71.36 115.93ZM74 115.886L73.815 117.374L76.455 117.702L76.64 116.214L76.825 114.725L74.185 114.397L74 115.886ZM76.64 116.214L76.7765 117.708L79.4165 117.466L79.28 115.973L79.1435 114.479L76.5035 114.72L76.64 116.214ZM79.28 115.973L79.2915 117.473L81.9315 117.452L81.92 115.952L81.9085 114.452L79.2685 114.473L79.28 115.973ZM81.92 115.952L81.7512 117.443L84.3912 117.742L84.56 116.251L84.7288 114.761L82.0888 114.462L81.92 115.952ZM84.56 116.251L84.783 117.735L87.423 117.338L87.2 115.854L86.977 114.371L84.337 114.768L84.56 116.251ZM87.2 115.854L87.1266 117.353L89.7666 117.482L89.84 115.984L89.9134 114.486L87.2734 114.356L87.2 115.854ZM89.84 115.984L89.7545 117.481L92.3945 117.632L92.48 116.135L92.5655 114.637L89.9255 114.486L89.84 115.984ZM92.48 116.135L92.6008 117.63L95.2408 117.416L95.12 115.921L94.9992 114.426L92.3592 114.639L92.48 116.135ZM95.12 115.921L95.1301 117.421L97.7701 117.403L97.76 115.903L97.7499 114.403L95.1099 114.421L95.12 115.921ZM97.76 115.903L97.5584 117.39L100.198 117.748L100.4 116.261L100.602 114.775L97.9616 114.417L97.76 115.903ZM100.4 116.261L100.667 117.737L103.307 117.26L103.04 115.784L102.773 114.308L100.133 114.785L100.4 116.261ZM103.04 115.784L102.796 117.264L105.436 117.699L105.68 116.219L105.924 114.738L103.284 114.304L103.04 115.784ZM105.68 116.219L105.719 117.718L108.359 117.65L108.32 116.151L108.281 114.651L105.641 114.719L105.68 116.219ZM108.32 116.151L108.546 117.634L111.186 117.231L110.96 115.748L110.734 114.265L108.094 114.668L108.32 116.151ZM110.96 115.748L110.607 117.206L111.647 117.458L112 116L112.353 114.542L111.313 114.29L110.96 115.748Z" fill="black"/>
</svg>
