<svg xmlns="http://www.w3.org/2000/svg" width="120" height="120" fill="none" viewBox="0 0 120 120"><path fill="#000" d="m92.86.875 3.35.176.75.035.423.633 1.91 2.87.293.434-.047.528-.047.574-.105 1.277-.528.035-.555 1.104.727-.021.762-.024.469.61 1.84 2.402.175.234.082.281.926 3.375.949 3.387v.012l.903 3.398.023.07.305 1.419.398 1.816h-2.051l-1.233-.074.073.086.047.047.035.058 2.039 2.871.009.012h.812l-.063 1.06 1.364 1.94h-1.479l-.174 3.316.387 3.446.012.093-.012.106-.082 3.504.164 3.41v.14l-.188 3.516v.024l-.234 3.504v3.41l.07 3.398.246 3.516.012.082v.094l-.152 3.504.105 3.398v.094l-.093 3.504-.012-.012.164 3.422v.152l-.211 3.352.34 3.433.012.082v.082l-.047 3.504v.094l-.012.082-.434 3.41.024 3.27.34 3.515.023.14-.023.153-.34 3.364.196 3.199h.007v.094l.008.128v.2l-.008.1v1.177h-.091l-.159 2.062.492 3.352.012.106v.117l-.014 2.105h.072l.153.024 2.437.48 2.403-.246.082-.012h.082l1.043.012-.012 1.5-.024 1.5-.996-.012-2.507.258-.223.024-.223-.036-2.461-.492-2.425.012-2.497.434-.152.023-.164-.012-2.637-.105h-.07l-.07-.012-.82-.116-2.754.284-.188.023-.176-.023-.604-.089-.251.05-.235.047-.234-.024-2.555-.328-1.022.004-1.755.176-.281.035-.27-.082-.352-.098-1.453.047h-.011l-2.637.059h-.023l-2.567.012.012.011-2.637.176-.187.012-1.003-.189-.82.018-.014.001h-.013l-3.51.011h-.076l-.074-.007-1.092-.107-1.226-.067-2.555.164h-.129l-.129-.012-.17-.019-1.36.196-.183.026-.182-.018-2.519-.256-.543.06h-.07l-2.637.152-.152.012-.141-.024-1.866-.259-2.263.289-.09.01-.09.001-3.51.019-.114.001-.113-.017-2.813-.416-1.26-.022-2.613.201-.104.008-.103-.006-.309-.02-.256.024-.035.011h-.047l-2.637.094h-.117l-2.228-.09-1.147.119-.15.014-.15-.014-1.578-.158h-.02l-.014-.004-.192-.019-2.42-.164-2.53.129h-.082l-1.114-.006-2.241.289-.087.011-.087.001-3.51.04-.082.001-.082-.008-3.51-.345-.167-.017-.038-.012-2.266.011v-.012l-2.543.176h-.012l-.012.011-2.648.118-.094.011-.082-.011-2.543-.188.012-.223V114.5h.21l2.462.199 2.508-.117v-.012l1.215-.081.133-2.98-.097-3.457-.002-.044.002-.044.106-3.459-.15-3.45-.003-.086.006-.086.25-3.466.074-3.48-.001-3.402-.166-1.701-.985-.658.828-.958-.07-.718h.695l1.887-2.156 1.84-2.813 1.64-3.07.071-.129.094-.117 1.74-2.103.02-.575.122-3.478-.017-3.482v-.02l.03-3.51v-.042l.003-.041.22-3.4-.282-3.4-.047-.563.336-.454.431-.584-.334-.176-1.593-.832 1.101-1.418 1.084-1.397-.884-.435-1.184-.586.434-1.254 1.148-3.27.621-3.293.07-.375.247-.293 1.863-2.273.259-.313-.001-.09-.036-3.386-.011-1.102 1.054-.34 3.176-1.007 1.277-.41.551 1.23 1.008 2.297 3.305 2.66h-3.54l-.138.22 1.334.182 1.043.153.211 1.03.703 3.388.856 3.398v.023l.011.024.61 2.789-1.172.27.199 1.476-.117.024h-.003l.748 1.023h.248l.082.452.038.052.938 1.289-.658.424-.002.127-.054 3.484.058 3.487v.018l.016 3.498.044 3.51v.06l-.003.058-.22 3.305.154.002h.094l3.469.433 3.41-.105v.012l3.399-.364.187-.011.176.023 3.316.48 3.352-.328h.152l3.504.012h.024l3.515.07 3.504.059-.012.012 3.504.011h.07l3.352.176 3.375-.48.176-.024.176.012 3.445.305 2.645-.102-.121-1.121-.012-.094.012-.082.046-3.469-.058-3.504v-.023l-.012-3.492-.047-3.516v-.117l.234-3.504.106-3.363-.117-3.516v-.035l-.024-3.445-.175-3.504v-.129l.117-3.457-.012-3.504v-.023l.023-3.516L82.45 30l.16-.058-.336-.13 1.008-1.546 1.922-2.942.106-.152.133-.123-1.75-.686-1.266-.492.363-1.3.938-3.387v-.024l.984-3.363.832-3.352.047-.187.094-.176L87.22 9.27l.433-.786h.903l.384.002-.029-.369-.258-3.492-.058-.773.61-.493 2.624-2.156.445-.363zM51.167 89.5l.012.012-3.516.175-.059.012-.07-.011-3.504-.118-3.457.012h-.011l-3.516-.023h-.082l-.806-.056-2.512.162-.11.008-.111-.01-1.932-.161-1.326.115h-.129l-3.516-.011h-.07l-2.09-.106-1.268.064-.01.001h-.01l-3.51.127-.07.002-.07-.004-1.792-.101.071.726.007.072v.072l.003 3.51v.033l-.076 3.51-.001.038-.002.038-.247 3.419.148 3.429.003.054-.002.056-.107 3.464.098 3.468.001.054-.002.055-.106 2.379 1.216.405h.004l.082.012 2.508.281.197-.018-.174-.134.058-.809.176-2.637.024-2.554v-.235l.082-.234.82-2.426.129-.375.293-.258 1.898-1.722.235-.2.293-.105 1.758-.586 1.98-.668v1.313l1.383.48.351.129.258.281 1.711 1.864.27.304.082.41.527 2.567.023.14v.153l.012 2.636.012.094-.012.082-.247 2.218 1.272.126 1.612.008.059-.805.175-2.637.024-2.554v-.235l.082-.234.82-2.426.129-.375.293-.258 1.898-1.722.235-.2.293-.105 1.758-.586 1.98-.668v1.313l1.383.48.351.129.258.281 1.711 1.864.27.304.082.41.527 2.567.023.14v.153l.012 2.636.012.094-.012.082-.243 2.192h1.895l.995.021.048-.666.176-2.637.024-2.554v-.235l.082-.234.82-2.426.129-.375.293-.258 1.898-1.722.235-.2.293-.105 1.758-.586 1.98-.668v1.313l1.383.48.351.129.258.281 1.711 1.864.27.304.082.41.527 2.567.023.14v.153l.012 2.636.012.094-.012.082-.236 2.125.06-.004.164.012 2.06.242.593-.086.055-.742.175-2.637.024-2.554v-.235l.082-.234.82-2.426.129-.375.293-.258 1.898-1.722.235-.2.293-.105 1.757-.586 1.981-.668v1.313l1.383.48.351.129.258.281 1.711 1.864.27.304.082.41.527 2.567.024.14v.153l.011 2.636.012.094-.012.082-.261 2.355 2.975-.049 1.05-.566-.127-2.561-.007-.144.02-.141.26-1.842.016-.95.024-2.506-.12-1.381-.008-.095.004-.093.132-3.443-.042-.919-.271-1.864-.024-.164.024-.176.293-3.316-.13-3.516v-.129l.003-.04-.62-.983-1.19-.125-1.278.133-.094.011h-.094l-3.492-.058-3.48.058h-3.528l.012.012-3.504.047h-.117l-3.038-.213-.276.019-.028.002h-.03l-3.509.1-.044.001-.044-.002-3.51-.107v-.001l-2.044-.015zm43.426 18.395h.012l-3.516.175h-.012l-3.516.118-.07.011-.07-.011-1.707-.095-.192 1.351-.039 2.376-.046 2.344 1.005.273.717-.019h.035l1.476-.007 1.5-.141.188-.024.176.024 2.466.351 1.835-.355.246-.047.234.035 1.46.198.415-.042h.106l3.492-.117h-.012l1.969-.094.012-1.945-.504-3.41-.024-.176.012-.164.03-.394-.717.066-.129-.012-3.375-.281zm-68.113-2.184-1.348 1.219-.633 1.851-.012 2.403v.046l-.011.036-.13 1.839.61.469h2.121l2.461-.012.914-.187.152-1.441v-2.461l-.41-1.993-1.16-1.277-1.957-.691zm15 0-1.348 1.219-.633 1.851-.012 2.403v.046l-.011.036-.13 1.839.61.469h2.121l2.461-.012.914-.187.152-1.441v-2.461l-.41-1.993-1.16-1.277-1.957-.691zm15 0-1.348 1.219-.633 1.851-.012 2.403v.046l-.011.036-.13 1.839.61.469h2.121l2.461-.012.914-.187.152-1.441v-2.461l-.41-1.993-1.16-1.277-1.957-.691zm15 0-1.348 1.219-.633 1.851-.012 2.403v.046l-.011.036-.13 1.839.61.469h2.121l2.461-.012.914-.187.153-1.441v-2.461l-.41-1.993-1.16-1.277-1.958-.691zm22.066-74.105h-.07l-3.516.011h-.129l-1.365-.114-1.694.138-1.335.48-.024 2.461.012 3.492v.059l-.117 3.375.175 3.515v.07l.024 3.47.105 3.515.012.035-.012.047-.094 3.516v.058l-.234 3.504.047 3.399v.011l.012 3.493.058 3.503v.047l-.035 3.446.34 3.398.012.106v.117l-.164 3.504v.053l.16 1.85.012.116-.012.13-.26 3.245.123 1.438.012.094-.012.105-.13 2.97.264 3.329.01.123-.011.122-.291 3.412.103 2.295.208 1.507.023.14-.012.141-.164 3.434v.011l-.004.305 1.965.117 3.41-.117v-.012l3.504-.175h.07l3.516-.012h.129l3.363.293.98-.094h.001l-.211-3.387-.012-.129.012-.117.351-3.375-.34-3.34-.011-.07v-.07l-.024-3.516v-.094l.012-.105.445-3.422.036-3.258-.34-3.515-.012-.118v-.117l.211-3.48-.152-3.387-.012-.047.012-.058.093-3.422-.105-3.504v-.117l.152-3.41-.246-3.434-.012-.035v-.047l-.07-3.504v-3.645l.246-3.515.176-3.422-.164-3.422v-.105l.094-3.305-.387-3.516-.012-.117.012-.117.152-3.258-1.828.105-.07.012-.07-.012-3.516-.117h-.012l-1.334-.067zM23.469 93H26v.176l-.012.07-.187 1.805.117 1.793.164.89.316 1.77H24.5v-1.477l-1.371.235-.176-.996-.012-.082v-.094l-.128-1.992-.012-.13.012-.116.199-1.899zm8 0H34v.176l-.012.07-.187 1.805.117 1.793.164.89.316 1.77H32.5v-1.477l-1.371.235-.176-.996-.012-.082v-.094l-.128-1.992-.012-.13.012-.116.199-1.899zm8 0H42v.176l-.012.07-.187 1.805.117 1.793.164.89.316 1.77H40.5v-1.477l-1.371.235-.176-.996-.012-.082v-.094l-.129-1.992-.011-.13.011-.116.2-1.899zm8 0H50v.176l-.012.07-.187 1.805.117 1.793.164.89.316 1.77H48.5v-1.477l-1.371.235-.176-.996-.012-.082v-.094l-.129-1.992-.011-.13.011-.116.2-1.899zm8 0H58v.176l-.012.07-.187 1.805.117 1.793.164.89.316 1.77H56.5v-1.477l-1.371.235-.176-.996-.012-.082v-.094l-.129-1.992-.011-.13.011-.116.2-1.899zm8 0H66v.176l-.012.07-.187 1.805.117 1.793.164.89.316 1.77H64.5v-1.477l-1.371.235-.176-.996-.012-.082v-.094l-.129-1.992-.011-.13.011-.116.2-1.899zm8 0H74v.176l-.012.07-.187 1.805.117 1.793.164.89.316 1.77H72.5v-1.477l-1.371.235-.176-.996-.012-.082v-.094l-.129-1.992-.011-.13.011-.116.2-1.899zM44.816 77.582l-.058.012h-.047l-3.516.105-.117.012-.117-.023-3.422-.422-2.733-.01-.133.108-.507.016-.999.03-2.331.336-.164.023-.164-.011-3.33-.244h-.054l-2.393.338-1.77 2.144-1.594 2.988-.023.059-.035.059-1.934 2.941-.047.082-.07.082-.106.129.27-.023.07-.012.07.011 3.516.118h.012l1.317.065 2.048-.102.034-.002h.035l3.51-.014h.066l.064.006 1.352.111 1.91-.158.105-.012.117.012 2.525.16.79-.05.042-.004h.042l3.51-.03h.02l3.482.017 3.478-.122.066-.002.064.003 3.476.178 2.425.017.998-.003v-.012l3.504-.105h.094l3.504.094h.035l.024.011.17.011 3.144-.209.059-.004.058.001 3.51.044v.001l3.499.015h.018l3.486.058 3.485-.054.09-.002.09.01 1.278.133 1.187-.12.62-.983-.136-1.553-.012-.117.012-.13.258-3.218L82.422 79l-.34-1.523-2.262.082h-.093l-.094-.012-3.364-.281-3.316.468-.14.024-.153-.012-3.504-.176-3.445-.023h-.012l-3.515-.059-3.516-.07h-3.457l-3.387.316-.176.024-.187-.035-3.316-.47zm-18.73-20.004-.667.9.244 2.948.01.11-.008.11-.223 3.47-.03 3.467.017 3.49v.03l-.001.03-.075 2.143 1.635.21.075-.01.164.012.297.023 3.04-.022 2.208-.068.934-.138.821-.665.186-2.802-.043-3.448-.001-.01-.016-3.493-.058-3.51v-.048l.044-2.734-2.064.117-.07.004-.07-.002-3.51-.127h-.02l-1.271-.065zm69.469-.884 1.253.037.185 1.24.424 2.827.01.073.005.074.175 3.51.002.034v.035l.014 3.51v.066l-.006.064-.29 3.51-.096 1.153-1.14.2-2.892.508-1.209.213-.447-1.144-1.027-2.627-.105-.268.001-.286.017-3.483-.122-3.477-.002-.066.003-.064.18-3.51.012-.846 1.559-.355.03-1.032zm-2.248 5.728.12 3.445.002.03v.03l-.016 3.222.477 1.218.542-.096.19-2.293-.013-3.41-.17-3.4-.227-1.514-.763-.022zm-64.373-8.977-2.508.27-.543.694 1.745.088 1.282-.067h.012l3.515-.117.07-.012.071.011.293.024-1.031-.914zm66.62-16.75 1.254.036.185 1.24.424 2.827.01.073.005.074.175 3.51.002.034v.035l.014 3.51v.066l-.006.064-.29 3.51-.096 1.153-1.14.2-2.892.508-1.209.213-.447-1.143-1.027-2.628-.105-.268.001-.286.017-3.483-.122-3.477-.002-.066.003-.064.18-3.51.012-.846 1.559-.355.03-1.032zM26.38 44.84l-.598 3.082-.023.105-.035.106-.715 2.086.762.375 3.14-.164h.012l3.515-.117.07-.012.071.011 1.418.083-.176-.786-.867-3.41v-.023l-.012-.035-.48-2.403-1.62-.23-.009.015-.063-.026-.453-.063-2.765-.012zm66.928-2.418.12 3.445.002.03v.03l-.016 3.222.477 1.218.542-.095.19-2.294-.013-3.41-.17-3.4-.227-1.514-.763-.022zm-64.41-4.172.024 1.277.691.27.54-.867-.41-.95zm64.649-12.644h-.07l-3.516.011h-.129l-.521-.044-1.67 1.532-.82 1.254h-.012l1.667.137 1.356-.113h.129l3.516.012h.07l2.03.101 1.333-.066h.012l3.516-.117.07-.012.07.012.41.023-.703-.984-1.57-1.84-2.833-.024zm-5.145-12.247-.796 3.211v.035l-.012.024-.985 3.375-.562 2.062.762.293 1.426.117.027-.023.55-.023 3.516-.117.059-.012.07.012 3.393.17 1.06-.053h.012l3.516-.117.07-.012.07.012 1.512.093-.75-2.812-.949-3.375v-.012l-.844-3.105-1.195-1.559-2.754.07-.035.012-.047-.012L92 11.508h.012l-2.578-.012zM91.7 5.176l.153 1.969 1.664 1.078 1.863-.551 1.02-2.027-1.102-1.653-2.028-.105z"/></svg>