<svg width="120" height="120" viewBox="0 0 120 120" fill="none" xmlns="http://www.w3.org/2000/svg">
<path d="M73.75 8.33984L75.6133 9.00781L75.8008 9.07812L75.9648 9.18359L78.1211 10.6719H78.1094L80.1836 11.9727L82.3281 12.6641L84.7656 12.7227H84.8477L87.4844 12.9219L87.543 12.9336H87.6133L90.1797 13.3555H90.1914L92.8047 13.7305L92.875 13.7422L92.9336 13.7539L95.5 14.3398L95.6758 14.3867L95.8281 14.457L97.9141 15.4883L98.3594 15.6992L98.582 16.1445L99.5664 18.0195L101.383 18.8867L103.727 19.4727L106.258 19.9883L106.281 20H106.305L108.848 20.6094L109.328 20.7148L109.645 21.0898L111.18 22.9062L111.531 23.3047L111.543 23.8438L111.602 26.5039L111.613 26.9258L111.402 27.2891L110.113 29.5273L108.906 28.8359L108.859 28.8711L107.964 29.374L107.895 30.3721L107.801 30.3604L107.496 30.3486L107.227 30.208L105.398 29.2822L103.605 29.4229L102.738 29.9033L101.227 30.7002L100.793 29.5361L99.2812 29.0547L98.9258 29.0918L99.4844 30.0479L101.219 31.4072L102.93 32.1924L105.016 31.7705L105.309 31.7119L105.59 31.7588L106.281 31.8877L105.719 34.8408L105.309 34.7588L103.059 35.2393L102.578 35.333L102.133 35.1338L99.8008 34.0674L99.6484 33.9854L99.5078 33.8799L97.4219 32.251L97.1875 32.0752L97.0469 31.8291L95.793 29.6729L95.9395 29.5889L94.6289 29.9453L94.5586 29.9688L94.4766 29.9805L94.0186 30.0537L94.5977 30.5977L94.6914 30.6914L96.4492 32.6602L96.4961 32.707L96.5312 32.7539L98.1016 34.8281L98.2764 35.0479L98.4688 34.8916L98.8203 35.3135L98.8906 35.4072L98.9609 35.5244L100.262 37.8096L100.32 37.8916L100.355 37.9854L101.293 40.3057L101.879 41.7588L100.402 42.2861L98.2227 43.0596L97.5547 43.3057L96.957 42.9424L94.8594 41.7119L94.6484 41.583L94.4961 41.4072L92.8203 39.5088L90.957 38.0557L88.7422 36.8486L88.6367 36.79L88.543 36.7197L86.4805 35.1377L84.3125 33.8369V33.8252L82.0508 32.4541L81.9336 32.3838L81.8164 32.2783L79.9834 30.6084L79.2969 30.9961L78.4531 32.3906L78.8984 33.9492L80.3281 35.7773H80.3164L81.8633 37.5234L83.9492 38.8125L83.9609 38.8242L86.1641 40.2305H86.1758L88.4141 41.625L90.6641 42.8555L90.7578 42.9023L90.8398 42.9727L92.9492 44.5312L95.0938 46.0781L95.1641 46.125L95.2227 46.1836L97.1797 47.9414L97.2031 47.9648L97.2266 48L99.0898 49.8516L99.2305 49.9805L99.3242 50.1328L100.496 52.0898L101.797 54.2578L100.749 54.3008L100.91 55.2314L101.344 57.8213L101.355 57.9033V57.9736L101.52 60.6221L101.531 60.751L101.52 60.8916L101.191 63.5283L101.168 63.7041L101.109 63.8682L100.184 66.3525L99.5039 68.7783L99.4688 68.9072L99.3984 69.0244L98.2383 71.4033L98.2031 71.4854L98.1562 71.5557L96.7383 73.7822L96.7148 73.8057L96.7031 73.8291L95.2031 76.0205L95.1094 76.1377L95.0039 76.2432L93.1055 78.0947H93.0938L93.082 78.1064L91.1602 79.9111L91.1016 79.9697L91.043 80.0166L89.8047 80.9502L90.0391 81.9971L91.0703 84.083L92.4062 86.3564L92.418 86.3682L93.7422 88.6416L93.7539 88.6768L93.7773 88.7119L94.8906 90.8682L96.4844 92.4619L97.0967 92.8574L98.0156 92.6221L98.3555 92.5283L98.6953 92.5986L100.875 93.0674L103.09 92.4932L103.922 92.2822L104.52 92.8799L106.418 94.7666L106.758 95.1064L106.84 95.5869L107.25 98.083L107.32 98.4932L106.559 100.427L106.422 100.761L106.828 101.263L107.227 101.767L107.145 102.388L106.84 104.813L107.027 107.368V107.45L107.086 110.052L107.191 112.524L107.514 114.569L108.406 114.746L110.809 114.5L110.891 114.488H110.973L112.016 114.5L112.004 116L111.98 117.5L110.984 117.488L108.477 117.746L108.254 117.77L108.031 117.734L105.57 117.242L103.145 117.254L100.648 117.688L100.496 117.711L100.332 117.699L97.6953 117.594H97.625L97.5547 117.582L95.1523 117.242L92.7617 117.711L92.5273 117.758L92.293 117.734L89.7383 117.406L87.207 117.418L87.1953 117.406L84.6055 117.488H84.5938L81.957 117.547H81.9336L79.3672 117.559L79.3789 117.57L76.7422 117.746L76.5547 117.758L73.9297 117.266L71.5391 117.547L71.4102 117.559H71.2812L68.7266 117.418L66.1719 117.582H66.043L65.9141 117.57L63.418 117.289L60.957 117.559H60.8867L58.25 117.711L58.0977 117.723L57.957 117.699L55.4141 117.348L52.9062 117.406H52.8477L50.2109 117.348V117.336H47.5742L44.9492 117.289L42.4531 117.512L42.418 117.523H42.3711L39.7344 117.617H39.6172L36.9805 117.512V117.5L34.3906 117.488H34.3438L34.2969 117.477L31.7188 117.301L29.1875 117.43H29.1055L26.4688 117.418V117.406L23.9609 117.43L21.3242 117.664L21.1836 117.676L21.0312 117.664L18.5 117.383L15.9219 117.395V117.383L13.3789 117.559H13.3672L13.3555 117.57L10.707 117.688L10.6133 117.699L10.5312 117.688L7.98828 117.5L8 117.277V114.5H8.21094L10.6719 114.699L13.1797 114.582V114.57L15.8164 114.395H15.9102L18.5469 114.383L18.6406 114.371L18.7227 114.383L21.2305 114.664L23.6201 114.461L23.5273 114.352L24.0781 113.895L25.1094 111.879L26.1641 109.465L26.1875 109.406L26.2227 109.336L27.418 107.18L28.0742 104.789L28.6719 102.34L29.1523 99.7383L29.5742 97.2656L29.7617 94.6641V94.6055L29.7734 94.5469L30.1484 91.9336L30.1602 91.8398L30.1953 91.7461L30.9102 89.1914V89.168L30.9219 89.1328L31.7422 86.625L31.7773 86.5195L31.8359 86.4141L34.2031 81.7266L34.2617 81.6094L34.3438 81.5039L35.9023 79.3945L35.9961 79.2773L37.7656 77.332L37.7891 77.3203L37.8008 77.2969L39.6523 75.3984L39.8047 75.2461L39.9922 75.1406L42.2773 73.8633L44.5391 72.5039V72.4922L46.335 71.4268L46.3008 70.8877L45.2461 69.7275L43.5078 69.5713L43.1641 70.001L42.8164 69.5947L42.0703 69.6338L40.3594 69.7275L40.4287 68.877L40.418 68.8252L40.4473 68.6553L40.5 68.0166V67.8994L40.5596 67.9033L40.8281 66.0713L41.1211 63.7393L40.6172 61.7236L39.3398 59.8604L37.9219 58.3018L35.9766 57.6338L33.5859 57.4932L31.8633 57.5166L31.4062 58.1494L30.9727 58.7471L30.2461 58.7705H30.0469L30 57.2705V57.1182L28.9805 56.3799L29.5508 55.6006L29.5703 54.5518V54.1768L29.7578 53.8486L30.5244 52.4619L30.4141 51.9658L29.5234 49.7861L28.0352 47.8994L26.2891 46.0361V46.0244L24.4727 44.1494H24.4609L22.5742 42.5322L22.5508 42.5088L20.582 40.751L20.5586 40.7275L19.3633 39.623L19.0273 40.0205L19.0039 39.9971L17.8789 39.0361L18.3018 38.5283L18.25 38.1377L17.8984 35.583L17.4297 33.0635L16.6562 30.6494L16.6094 30.4854L16.1289 28.083L15.1562 26.0791L13.6328 24.4033L11.7461 23.2314L9.50781 22.3408L9.21484 22.2236L8.99219 21.9893L8.92188 21.9189L10 20.876L10.1523 20.7236L10.165 20.6914L9.98828 20.0498L8.66406 20.7295L8.61719 20.6475L7.78516 19.0186L9.54297 18.5264L11.1367 18.0693L13.1172 16.6514L13.3398 16.4873L13.5977 16.417L16.0938 15.7139L18.4844 14.8115L18.5078 14.7998H18.5195L21.0039 13.9092L21.0508 13.8975L21.0859 13.8857L23.6172 13.1357L23.7109 13.1123L26.3008 12.5381H26.3125L28.9023 11.9756L29.1367 11.9287L29.3828 11.9521L31.9258 12.2334L34.3398 11.9404L34.5273 11.917L34.7148 11.9404L37.3281 12.2686L37.3164 12.2803L39.918 12.5264L40.1055 12.5381L40.2812 12.6084L42.6602 13.4639L45.168 14.0146L45.25 14.0264L45.3438 14.0615L47.8516 14.9287L48.0391 14.999L48.2031 15.1162L50.3594 16.5811L52.5859 17.8232L52.6562 17.8701L52.7148 17.9053L54.8711 19.417L54.8945 19.4404L54.918 19.4521L57.0156 21.0459L57.0859 21.0928L59.0898 22.8037L61.1289 24.3389L61.2812 24.4561L61.3984 24.6084L62.9805 26.5889L63.4141 27.1396L63.2852 27.8193L62.793 30.292L62.5 32.917L62.2305 35.3896L62.4062 37.8857L62.6523 40.3232L63.2148 42.7373L64.3164 44.9404H64.3047L65.3711 46.9795L66.9648 48.3037L69.0391 48.9834L71.2344 49.123L70.7422 48.6494L70.7188 48.6143L70.6836 48.5791L68.9023 46.6338L68.8086 46.54L68.7383 46.4229L67.3438 44.1963L67.332 44.1729L67.3203 44.1611L65.9961 41.8994L65.9023 41.7588L65.8555 41.6064L65.0469 39.1104L65.0117 39.0049L65 38.8994L64.5547 36.3096L64.543 36.251V36.1924L64.3086 33.5439L64.2852 33.2979L64.332 33.0635L64.9531 30.4971L65.5273 27.9307V27.9189L65.5391 27.8955L66.1719 25.3408L66.1953 25.2822L66.2188 25.2119L67.0859 22.7041L67.1328 22.5752L67.2031 22.458L68.4688 20.2314L68.9873 20.5293L69 20.5088L69.1641 20.2041L68.7656 19.4658L70.7227 18.4111L72.832 16.8994L72.9141 16.8408L72.9961 16.7939L73.6699 16.4277L73.2109 15.7578L73.1055 15.6055L73.0352 15.418L72.1445 12.9102L72.0859 12.7578L72.0625 12.582L71.7578 9.93359L71.4766 7.54297L73.75 8.33984ZM86.8594 83.2158L86.8359 83.2393L84.6914 84.8096L84.5859 84.8916L84.4688 84.9502L84.1621 85.0977L84.3789 85.5986L85.6914 87.6611L87.2969 89.6885L87.5312 89.9814L87.5898 90.3447L87.6416 90.625L89.8359 91.3867L90.1641 91.5039L90.4102 91.75L92.2266 93.5898L92.4141 93.7891L92.5312 94.0352L93.5859 96.4609L93.8203 96.9883L93.6328 97.5508L92.7773 100.047L92.5547 100.68L92.5 100.702L92.9336 103.063L90.5781 102.337L90.4727 102.313L90.8828 100.919L89.5352 101.177L89.4062 100.485L88.457 99.2549L88.4512 99.25L87.7188 100.353L87.5195 101.22L86.0547 100.88L84.6016 100.528L84.8135 99.6396L83.6484 98.1885L81.6328 97.7783L79.1602 97.7197V97.708L76.5586 97.6729L75.668 97.6611L75.5117 97.3633L73.332 97.2822L70.8477 97.5049L70.8359 97.4932L68.2461 97.7744H68.1992L68.1523 97.7861L65.5156 97.8916H65.3398L62.8672 97.7041L60.3594 98.0205H60.3291L60.293 98.0283L57.8789 98.5322L57.9893 98.1299L57.6055 98.1494H57.5703L56.0469 98.1963L54.5586 98.2314L54.5068 96.9336L53.4648 95.2393L51.7422 94.1025L51.166 93.9473L52.0078 95.708L52.1367 95.9893L52.1602 96.2939L52.2539 98.7314L51.3066 98.7725L49.8086 99.8721L49.1055 100.388L48.3086 100.036L46.6445 99.2861L44.5234 99.708L44.4648 99.7197L44.418 99.7314L42.3457 99.9912L42.3008 100.548L42.4297 103.056L42.6055 105.692V105.786L42.6172 108.423L42.6289 108.517L42.6172 108.599L42.3359 111.106L42.5469 113.591L42.5586 113.685V113.79L42.5225 114.503L44.832 114.289H44.9844L47.6211 114.336L47.6094 114.348H50.2695L52.8711 114.406L55.4844 114.348H55.6133L55.7305 114.359L58.2148 114.723L60.7109 114.559V114.57L63.2891 114.289L63.4414 114.277L63.6055 114.289L66.0898 114.582L68.6328 114.43L68.7148 114.418L68.7969 114.43L71.3281 114.559L73.8242 114.266L74.0586 114.23L74.2812 114.277L76.7305 114.734L79.1797 114.582L79.2266 114.57H79.2617L81.8867 114.559V114.547L84.5234 114.488L87.1602 114.418H87.1953L89.832 114.406H89.9375L90.0312 114.418L92.4219 114.734L94.8359 114.266L95.082 114.219L95.3164 114.254L97.8945 114.605L100.273 114.711L102.793 114.277L102.91 114.266H103.027L104.419 114.253L104.227 112.993L104.215 112.911L104.203 112.817L104.098 110.192L104.086 110.169V110.157L104.027 107.521V107.509L103.84 104.954L103.828 104.813L103.84 104.661L104.086 102.646L103.184 101.521L101.086 100.841L100.547 100.665L100.254 100.173L98.9414 97.9111L98.918 97.8643L97.7939 95.7734L96.7988 96.0312L96.707 96.1768L96.5723 96.0898L96.4805 96.1143L96.1055 96.208L95.6367 96.0908L95.7695 95.5723L94.7266 94.8994L94.5977 94.8174L92.4414 92.6611L92.3359 92.4502L91.1406 90.1533L89.8164 87.8682V87.8564L88.4805 85.6064L88.457 85.5479L88.4336 85.501L87.2617 83.1221L87.1797 82.9697L87.1787 82.9678L86.8594 83.2158ZM75.7891 14.2227L77.1719 16.2266L78.1914 17.7148L77.0078 18.5117L78.1562 19.4609L78.0977 19.5195L76.832 21.0547L75.707 19.4141L75.3623 18.9072L74.5195 19.3604L72.4219 20.8838L72.3398 20.9541L72.2578 21.001L71.1416 21.5967L71.0703 21.7197L69.8633 23.8174L69.0781 26.0674L68.4453 28.5869L68.457 28.5986L67.8711 31.165V31.1768L67.3086 33.5439L67.5195 35.8057L67.9297 38.2549L68.668 40.5283L69.875 42.6025L71.1875 44.6885L72.875 46.54L74.668 48.2744L76.6602 49.6924L78.8867 50.9814L78.9805 51.0518L81.125 52.5166L83.3398 53.9697L83.3633 53.9814L85.543 55.4814L85.7773 55.6455L85.9414 55.8799L87.3008 57.9072L88.0273 58.9736L87.0781 59.8408L86.9258 59.9814L85.9062 58.8799L85.8828 58.8564L84.8164 59.583L83.5977 57.79L81.6641 56.4658V56.4541L79.4844 55.0361L79.4727 55.0244L79.4492 55.0127L77.375 53.5713L75.0898 52.2471L74.9727 52.1768L73.918 51.4199L73.9375 52.0889L71.3828 52.1475H71.3242L71.2539 52.1357L68.6523 51.96L68.4648 51.9482L68.2891 51.8896L65.7812 51.0693L65.5117 50.9873L65.3008 50.7998L63.2383 49.1123L63.0039 48.9131L62.8633 48.6436L61.6445 46.2998L61.6211 46.2764L60.4492 43.9092L60.3789 43.7568L60.332 43.5928L59.7227 41.0146L59.6992 40.9209V40.8271L59.418 38.1904V38.1436L59.2305 35.4951L59.2188 35.3662L59.2305 35.2256L59.5234 32.5889L59.8047 29.9639L59.8164 29.8936L59.8281 29.835L60.2031 27.9131L59.1836 26.6357L57.2031 25.1475L57.168 25.1123L57.1328 25.0889L55.1992 23.4248L53.1602 21.8779L51.0625 20.4131L48.8242 19.1709L48.707 19.1006L46.6445 17.6826L44.4297 16.9209L41.9453 16.3936L41.8398 16.3701L41.7461 16.335L39.4258 15.4795L37 15.2568H36.9766L36.9531 15.2451L34.5039 14.9287L32.0664 15.2334L31.8906 15.2568L31.7266 15.2334L29.2891 14.9639L26.9336 15.4561L26.9453 15.4678L24.4141 16.0186L22 16.7217L22.0117 16.7334L19.5508 17.6006L19.5625 17.6123L17.1016 18.5498L16.9609 18.5967L14.6406 19.2295L12.9434 20.4756L12.9766 20.4893L13.0938 20.5479L13.1992 20.6064L15.4023 21.9775L15.5898 22.083L15.7305 22.2471L17.5117 24.1924L17.6523 24.3564L17.7461 24.5439L18.9062 26.9346L19 27.1104L19.0352 27.2979L19.5156 29.7354L20.3242 32.2549L20.3477 32.3486L20.3594 32.4424L20.8516 35.0322V35.0674L20.8633 35.1143L20.9346 35.667L22.2852 34.5361L22.3203 34.5127L22.3672 34.4775L24.5 32.9307L24.582 32.8604L24.6758 32.8135L27.0195 31.583L29.2344 30.2822L29.375 30.2119L31.7656 29.1221H31.7891L31.8008 29.1104L34.1914 28.1025L36.5938 27.001L36.7578 26.9189L39.4531 26.3799L41.9609 25.6768H41.9727L44.5273 24.9854L44.6094 24.9619L44.6914 24.9502L47.3047 24.54L47.3867 24.5283L47.457 24.5166L49.707 24.3994V24.4111L49.8242 24.3994L49.8594 25.1729L50 25.876L50.2812 27.3525L50.1875 27.3643L50.082 27.3877H49.9766L47.7383 27.5049L45.2188 27.8916L42.7695 28.5596L40.2383 29.2861L40.1211 29.3096L37.707 29.7783L35.4453 30.833L35.4219 30.8447H35.3984L32.9961 31.8525L33.0078 31.8643L30.6875 32.8955L28.4727 34.208L28.4375 34.2197L28.4141 34.2314L26.2344 35.3799L24.1367 36.9033L22.4004 38.3438L22.5977 38.5244H22.5859L24.5312 40.2471L26.5352 41.9697L26.5938 42.0166L26.6406 42.0635L28.4688 43.9736L28.4805 43.9854L30.2852 45.9072L30.3555 46.001L32.0195 48.0869L32.1484 48.251L32.2305 48.4502L32.6738 49.543L32.8867 49.29L34.5156 47.2627L34.5742 47.1807L34.6328 47.1221L36.5312 45.2822L36.5664 45.2471L38.5234 43.4775L40.3633 41.6611L40.4688 41.5557L40.5977 41.4736L42.7188 40.1025L44.7109 38.4385L46.5508 36.6807L46.6211 36.6104L48.6719 34.9111L48.8008 34.8057L48.9648 34.7236L51.2617 33.5869L51.6836 34.4658L52 34.876L52.9023 36.0713L52.8203 36.1299L52.7148 36.2236L52.5859 36.2822L50.418 37.3486L48.625 38.8486L46.7031 40.6768L46.6328 40.7471L44.6172 42.4346L44.5352 42.5049L44.4648 42.5518L42.3438 43.8994L40.5391 45.7041L38.582 47.4736L36.7305 49.2783L35.207 51.1885L35.1836 51.2119L33.707 52.958L33.9531 54.0752L32.9619 54.2383L32.8154 54.5039L33.6445 54.4932H33.7031L33.75 54.5049L36.3516 54.6455L36.5625 54.6572L36.75 54.7275L39.2695 55.5947L39.6328 55.7236L39.8906 56.0049L41.6719 57.9736L41.7422 58.0557L41.8008 58.1377L43.2539 60.2822L43.4062 60.5049L43.4766 60.7744L44.0977 63.3057L44.168 63.5752L44.1377 63.7998L44.7812 62.8643L46.0234 60.6611L47.0078 58.376L47.0547 58.2588L47.125 58.1533L48.5312 55.9971L49.6562 53.7236L50.6289 51.3682L50.6406 51.3447V51.3213L51.7305 48.9072L51.8711 48.5908L52.1406 48.3682L53.9922 46.8213L54.7539 47.7471L55 47.8877L56.2891 48.6494L56.2422 48.7314L56.1133 48.9658L55.9141 49.1299L54.332 50.4307L53.3945 52.4932L53.4062 52.5049L52.3984 54.9541L52.3516 55.0479L51.1914 57.415L51.0977 57.5791L49.7148 59.6416L48.707 61.9971L48.6719 62.0791L48.6367 62.1494L47.3242 64.4463L47.3008 64.5049L47.2656 64.5518L45.7773 66.7432L45.7588 66.7666L46.1016 66.7979L46.6758 66.8564L47.0742 67.2783L48.8789 69.2588L49.2422 69.6455L49.2539 69.9287L49.4023 69.8555L49.5312 69.8203L51.9922 69.1055L52.2617 70.043L52.4961 70.5L53.1758 71.8359L52.9648 71.9414L52.8359 71.9883L50.5039 72.6562L48.2773 73.7578L46.0742 75.082L46.0625 75.0703L43.8242 76.4414L43.7773 76.4648L41.6445 77.6367L39.9805 79.3477L38.2578 81.2578L36.8281 83.168L35.7031 85.418V85.4297L34.543 87.6914L33.7812 89.9883L33.793 90L33.125 92.3672L32.7383 94.9805L32.5742 97.5117L32.5625 97.582L32.5508 97.6641L32.1055 100.266V100.277L31.625 102.879L31.6133 102.926V102.973L30.9805 105.539L30.9688 105.562V105.574L30.2773 108.129L30.2305 108.305L30.1484 108.469L28.8828 110.719L27.8633 113.074L27.8516 113.121L27.8281 113.168L27.1797 114.421L29.0469 114.43L31.6953 114.312L31.7773 114.301L31.8594 114.312L34.5078 114.488L34.4961 114.5L37.0508 114.512H37.0977L39.5098 114.609L39.5586 113.767L39.3359 111.2L39.3242 111.06L39.3359 110.907L39.6172 108.376L39.6055 105.798L39.4414 103.255V103.243L39.4297 103.231L39.3125 100.583L39.3008 100.489L39.3125 100.407L39.5 97.8643L39.6523 97.876H40.5684L40.5625 97.083H41.5L43.9375 96.7783L46.5391 96.2627L47.0078 96.1689L47.4414 96.3564L48.7422 96.9424L49.1318 96.6553L48.2109 94.7354L47.3203 93.5986L45.5391 93.7275L44.9883 93.7627L44.543 93.4346L44.1094 93.1182L45 91.9111L45.375 91.3955L45.3398 90.7393L47.918 90.5635L48.7148 90.5049L49.0117 90.8857L49.3984 90.7158L49.8789 90.5049L50.3945 90.6455L52.7617 91.2666L52.9961 91.3252L53.1953 91.4658L55.4102 92.9307L55.6914 93.1064L55.8672 93.3994L56.9551 95.1807L57.4648 95.1729V95.1611L59.8223 95.0537L60.8672 94.8291L63.1289 94.126L65.0742 92.8721L66.9961 91.2197L68.9414 89.4385L68.9648 89.4033L69 89.3799L70.3525 88.2764L70.1602 87.9697L68.543 86.0244L68.5195 86.0127L68.5078 85.9893L66.8906 83.9033V83.8916L65.2383 81.876L65.2148 81.8408L65.1797 81.8057L63.6211 79.6494L63.1758 79.0166L63.4219 78.29L64.2656 75.7822L64.3125 75.6416L64.3828 75.5127L65.6836 73.2393L66.9844 70.9424L68.0625 68.7979L68.7539 66.5361L68.7891 66.4189L68.8359 66.3135L68.8828 66.2197L70.2305 66.876L70.7812 67.1338L71.625 67.3916L70.9102 69.7705L70.875 69.8994L70.8164 70.0166L69.6328 72.3604L69.6094 72.3838L69.5977 72.4189L68.2969 74.7158L68.2852 74.7275L67.043 76.8838L66.5039 78.501L67.6172 80.0479L69.2344 82.0283L69.2461 82.04L69.2578 82.0635L70.8398 84.1025L72.5391 86.1299L72.6094 86.2119L72.668 86.3057L74.0508 88.5322L75.4805 90.7471L75.5273 90.8291L75.5625 90.8994L76.7109 93.2197L77.4844 94.6963L79.2305 94.7197H79.2422L81.8906 94.8018H82.0195L82.1484 94.8252L84.7852 95.3643L85.3125 95.4697L85.6523 95.8916L85.7256 95.9834L85.6562 95.7236V95.6768L85.3115 94.2393L84.4531 94.1455L84.418 94.1338H84.3945L81.9336 93.7354L81.5 93.6768L81.1836 93.3838L79.1914 91.6143L78.9805 91.4385L78.8633 91.1924L77.6211 88.8369V88.8252L76.3086 86.6455V86.6338L74.9609 84.4189L73.543 82.1807L73.4375 82.0166L73.3789 81.8291L72.6172 79.415L72.9492 79.3096L72.6133 78.0479L73.8086 77.7314L76.0703 77.0518L77.9453 75.7393L79.5859 74.0166L81.2031 72.0127L82.7383 70.0205L82.8086 69.9268L82.9023 69.8564L82.9727 69.7861L84.0039 70.876L84.4375 71.333L85.1172 71.8604L83.5586 73.8643V73.876H83.5469L81.918 75.9385L81.8711 75.9854L81.8242 76.0439L79.9961 77.9541L79.8906 78.0596L79.7734 78.1416L77.5938 79.665L77.3945 79.8057L77.1484 79.876L76.0068 80.21L76.1797 80.7627L77.4922 82.8135L77.5039 82.8252V82.8369L78.3838 84.2891L78.5742 84.2588L80.8242 83.3799L83.0273 82.3135L85.0312 80.8369L87.1289 79.2197L89.2266 77.626L91.0312 75.915L92.8125 74.1807L94.2305 72.1299L95.5898 69.9854L96.6445 67.8174L97.3359 65.415L97.3477 65.3564L97.3711 65.2979L98.2266 62.9658L98.5195 60.6104L98.3789 58.3135L97.9453 55.7354L97.5234 53.2275L97.5 53.1221V52.9277L96.8281 51.8203L95.1641 50.168L93.2773 48.4688L91.1914 46.9688V46.957H91.1797L89.1523 45.4453L86.9023 44.2148L86.832 44.168L84.5938 42.7734H84.582L82.3555 41.3555V41.3438L80.1172 39.9727L79.918 39.8555L79.7773 39.6914L78.0195 37.6992L77.9844 37.6641L77.9609 37.6289L76.3555 35.5664L76.1797 35.332L76.0977 35.0508L75.4062 32.5781L75.2305 31.957L75.5586 31.4062L76.9414 29.1094L77.1406 28.7695L77.4805 28.582L78.791 27.8379L78.6523 27.4033L79.8945 27.0049L80.0117 26.876L81.0312 25.7744L81.1016 25.8447L81.3945 26.1143L81.5117 26.4893L82.1562 28.54L83.7266 29.958L85.8711 31.2705L88.1211 32.6299L88.2617 32.7236L90.2773 34.2588L92.5039 35.4775L92.6094 35.5361L92.7031 35.6064L94.7891 37.2471L94.9062 37.3291L94.9883 37.4346L96.5703 39.2275L97.8594 40.001L97.9297 39.9775L97.6367 39.251L97.2598 38.5918L97.2578 38.5898L95.7578 36.6914L95.7344 36.668L94.1406 34.5703H94.1289L92.4531 32.6953H92.4414L90.7422 31.0898L88.7617 29.8359L88.6211 29.7422L88.4336 29.5547L89.207 28.7891L88.5 28.7617L88.5117 28.5977L88.582 26.9219L90.2461 27.1914L91.6055 27.4141L93.9375 27.0273L96.3984 26.3594L96.5156 26.3242L96.6445 26.3125L99.293 26.043L99.5977 26.0195L99.9023 26.1133L102.138 26.8193L102.492 26.6338L102.762 26.4932L103.078 26.4697L105.598 26.2705L106.008 26.2354L106.383 26.4229L107.977 27.2236L108.59 26.1523L108.555 24.4297L107.676 23.4102L105.66 22.9297L103.059 22.4023L103.035 22.3906H103L100.492 21.7578L100.34 21.7227L100.199 21.6523L97.8203 20.5156L97.3633 20.293L97.1406 19.8477L96.1445 17.9609L94.6562 17.2227L92.3359 16.6953L89.7695 16.332H89.7578L89.7344 16.3203L87.1445 15.8984L84.6953 15.7109L82.0469 15.6641L81.8242 15.6523L81.625 15.5938L79.0586 14.7617L78.8828 14.7031L78.7188 14.6094L76.4688 13.1797L76.4453 13.1562L76.4219 13.1445L75.0742 12.2188L75.7891 14.2227ZM101.346 96.042L101.543 96.4111L102.562 98.1689L104.033 98.6475L104.227 98.1533L103.945 96.5479L103.008 95.6104L101.346 96.042ZM88.5625 94.9502L88.8438 96.0186L89.0195 95.8096L90.4844 97.0283L90.5957 97.1201L90.5977 97.1172L89.8828 95.4883L88.5234 94.1055L88.3467 94.0449L88.5625 94.9502ZM55.8672 96.6309L56 96.626L55.9941 96.4014L55.8672 96.6309ZM70.9688 91.6416L69.0352 93.4346L69.0117 93.4463L69 93.458L67.4209 94.8164L67.9297 94.7979L70.5664 94.5166H70.5898L73.2266 94.2822H73.4141L73.8965 94.2998L72.9258 92.3174L71.9609 90.8252L70.9688 91.6416ZM79.9775 86.9414L80.2344 87.3721L80.2812 87.4424L81.3828 89.5518L82.8477 90.8408L84.6025 91.126L83.3008 89.4658L83.207 89.3486L81.7891 87.1104L81.7305 87.0166L81.6719 86.8994L81.4404 86.3652L79.9775 86.9414ZM94.3711 20.2666L94.4062 20.3604L93 20.876H92.9766L93.2344 22.2471L93.1289 22.2588L93.1875 22.4111L93.0938 22.4463L93.0234 22.2822H93L93.0469 22.458L90.9023 23.0557L89.8477 20.2549L91.1367 19.6338L91.3125 19.5518L91.5117 19.5166L92.6953 19.2939L93.9375 19.0713L94.3711 20.2666Z" fill="black"/>
</svg>
