<svg width="120" height="120" viewBox="0 0 120 120" fill="none" xmlns="http://www.w3.org/2000/svg">
<path d="M107.176 91.7422L110.082 92.0938L112.086 92.2109L112.016 93.5H113.504V95.293L111.922 95.1992L109.918 95.0938H109.871L109.824 95.082L107.023 94.7656L104.246 95.2227L104.035 95.2578L103.836 95.2344L100.941 94.918H98L95.0352 94.9883H95.0234L92.0234 95.0469H92.0117L89.0703 95.0586L89.082 95.0703L86.082 95.2461L85.918 95.2578L85.7539 95.2227L82.9414 94.7656L80.1523 95.0469L80.0469 95.0586H79.9297L77.0117 94.9297L74.082 95.082H73.9648L73.8477 95.0703L70.9883 94.8008L68.1406 95.0586H68.082L65.082 95.2109L64.9531 95.2227L64.8125 95.2109L61.918 94.8594L61.7549 94.8613L61.957 95.6836L62.7656 98.3154L63.4434 99.5654L64.3359 99.5586H64.6758L64.9922 99.6992L67.3359 100.812L67.9219 101.094L68.1211 101.715L69.0352 104.539L70.1602 107.105L71.5195 109.789V109.801L71.5312 109.812L72.832 112.52L72.8672 112.59L72.9023 112.672L73.6445 114.76L75.4844 114.348L77.957 113.129L80.4531 111.617L80.5938 111.535L80.7578 111.477L83.6055 110.551L83.8398 110.48H84.0977L87.0625 110.539H87.1914L87.332 110.562L90.2266 111.148L90.4727 111.195L90.6836 111.324L93.25 112.812L93.3203 112.859L95.6172 114.383L98.1719 115.121L100.855 115.672L103.375 115.285L105.883 114.102L108.508 112.742L108.578 112.707L108.66 112.684L111.367 111.641L111.379 111.629H111.391L111.484 111.594L112.516 114.406L112.422 114.441H112.41L109.738 115.484L107.207 116.785L107.16 116.809L104.441 118.098L104.242 118.191L104.031 118.215L101.043 118.672L100.773 118.719L100.516 118.66L97.5742 118.062L97.457 118.039L94.5859 117.207L94.3633 117.148L94.1758 117.02L91.7383 115.402L89.3945 114.043L86.8984 113.539L84.3086 113.492L81.8711 114.289L79.4219 115.73L79.375 115.766L79.3164 115.789L76.6562 117.113L76.4922 117.184L76.3164 117.23L73.3633 117.887L73.082 117.945L72.8125 117.91L69.8008 117.453L69.6016 117.418L69.4141 117.336L66.6367 116.082L66.5195 116.023L66.4141 115.953L64.1172 114.395L61.668 113.609L60.5117 113.409V113.41L60.5107 113.409L59.0898 113.164L56.7812 113.832L54.4961 115.402L54.3789 115.484L54.2383 115.543L51.4844 116.762L51.3906 116.809L51.2969 116.832L48.4258 117.676L48.1445 117.758L47.8633 117.734L44.875 117.465L44.7812 117.453L44.6758 117.43L41.7227 116.738L41.3359 116.656L41.0547 116.387L39.0156 114.523L36.625 113.609L33.9883 113.27L31.4805 113.668L29.1133 114.816L26.793 116.504L26.6172 116.633L26.3945 116.703L23.5586 117.676L20.7578 118.719L20.3711 118.859L19.9727 118.789L16.9844 118.25L16.8555 118.227L16.7383 118.18L13.9492 117.172H13.9609L11.1367 116.34L11.0312 116.316L10.9375 116.27L8.20703 115.027L8.03125 114.957L7.87891 114.828L7.05859 114.172L7.99609 113L8.94531 111.828L9.61328 112.379L12.1094 113.516L14.8867 114.324L14.9805 114.348L17.6289 115.32L20.1016 115.766L22.5508 114.84H22.5742L22.5977 114.828L25.2344 113.938L27.4492 112.309L27.5664 112.227L27.6836 112.168L30.3672 110.879L30.5664 110.785L30.7773 110.75L33.7305 110.27L33.9531 110.234L34.1641 110.258L35.126 110.382L35.7188 108.676V108.652L35.7305 108.629L36.8086 105.828L37.8516 103.027L37.8633 102.969L37.8984 102.91L38.9883 100.578L39.3633 99.7812L40.2305 99.7227L42.7461 99.5254L42.8135 98.9043L42.1387 96.5439L42.082 96.3643V96.1729L42.0508 95.0498L40.9414 95.0117V95L37.9883 94.9883H37.9062L34.9648 94.8125L32.0586 94.9297H29L26.1055 94.9414L23.1172 95.1641L22.9883 95.1758L22.8594 95.1641L19.9766 94.8945H17L14.082 95.0586L14.0703 95.0703H14.0586L11.0586 95.1875L10.9766 95.1992L10.8945 95.1875L8 95V92H8.19922L11.0352 92.1992L13.918 92.082V92.0703L16.918 91.8945H16.9883L19.9883 91.8828L20.0703 91.8711L20.1406 91.8828L23.0234 92.1758L25.8828 91.9414H25.9883L28.9883 91.918H29.0117L31.9414 91.9297L34.9414 91.8125L35.0117 91.8008L35.0938 91.8125L38.0938 91.9883L38.082 92L41.0117 92.0117H41.0586L44 92.1172L46.8828 92.0352L49.8828 91.7891H50.0234L53.0234 91.8359L53.0117 91.8477H56.0234L59 91.9062L61.9766 91.8477H62.082L62.1875 91.8594L65.0352 92.2227L67.918 92.0586V92.0703L70.8594 91.7891L71 91.7773L71.1523 91.7891L73.9883 92.082L76.918 91.9297L76.9883 91.918L77.0703 91.9297L79.9883 92.0586L82.8477 91.7539L83.0469 91.7422L83.2461 91.7656L86.0469 92.2461L88.918 92.0703H88.9883L91.9766 92.0586V92.0469L94.9648 92V91.9883L97.9648 91.918H98L101 91.9062H101.164L103.918 92.2344L106.754 91.7539L106.965 91.7188L107.176 91.7422ZM43.4531 102.465L41.3203 102.641L40.6523 104.059L40.6641 104.07L39.6211 106.883L39.6094 106.906L38.543 109.637L38.5547 109.648L38.1045 110.959L40.3281 111.805L40.5977 111.91L40.8086 112.098L42.7891 113.914L45.3203 114.5L47.875 114.723L50.3008 114.02L52.9141 112.859L55.2227 111.23L55.4336 111.102L55.668 111.031L57.9268 110.366L57.7695 109.941V109.93L56.6094 107.258V107.246L56.5977 107.234L55.4609 104.457L55.4258 104.387L55.4023 104.305L54.9277 102.668L53.6289 102.592L53.5938 102.6L53.5918 102.59L52.2539 102.512V102.5L49.3359 102.488H49.2891L46.3359 102.383L43.4531 102.465ZM61.3594 102.582H61.3359L58.3945 102.57L58.0283 102.584L58.2617 103.391L59.3633 106.062L60.5586 108.828L60.582 108.898L61.1582 110.463L62.2305 110.645L62.3359 110.668L62.4297 110.703L65.2539 111.605L65.4531 111.664L65.6289 111.793L67.9844 113.398L70.3486 114.463L70.0664 113.68V113.668L68.8359 111.148L67.4766 108.465L67.4648 108.43L67.4531 108.383L66.2461 105.641L66.2109 105.57L66.1875 105.5L65.4492 103.238L64.0078 102.559L61.3594 102.582ZM53.6006 95.1533L54.2139 97.957L54.2256 97.9541L54.6416 99.6523L55.3711 99.6992L58.2891 99.5703H58.3594L60.0166 99.5762L60.0029 99.5527L59.9639 99.4053L59.0791 96.5508L59.0713 96.5039L59.0508 96.4609L58.6729 94.8994L55.9766 94.8477L53.5645 94.8379L53.6006 95.1533ZM47.1172 95.0117L47.082 95.0234H47.0469L45.0459 95.0859L45.0693 95.834L45.7627 98.2988L45.8369 98.5703L45.8076 98.8633L45.75 99.3994L46.3008 99.3828H46.4062L49.4062 99.4883L49.3945 99.5L51.5176 99.5078L51.3301 98.7285L51.3281 98.7178L51.3145 98.708L50.667 95.7793L50.6514 95.6992L50.6484 95.6162L50.5557 94.7979L49.9766 94.7891L47.1172 95.0117ZM40.0938 12.3477L43.1055 12.6992L43.0938 12.7109L46.0586 13.0156H46.1172L46.1758 13.0273L49.1289 13.5781L49.3164 13.6133L49.4922 13.707L52.2344 15.0195L52.6797 15.2305L52.9141 15.6875L53.8389 17.4727L54.0938 17.4883L54.3984 17.5117L54.6797 17.6523L56.6719 18.6602L57.5273 19.0938L57.4922 20.0547L57.375 23.0547L57.4805 25.9492L57.5273 27.3906L56.0859 27.4961L53.7695 27.6602L52.9141 29.3125L52.6797 29.7695L52.2344 29.9805L50.4766 30.8213L50.5635 31.6748L51.1514 34.4717L51.1631 34.4697L51.3281 35.1904L53.1289 36.9492L55.4258 38.7539L57.8164 40.5703L57.8867 40.6172L60.1719 42.5625L60.2305 42.6094L60.2773 42.668L62.2695 44.7305L64.6016 46.4414L64.6484 46.4766L64.6836 46.5L66.9805 48.4336L67.0039 48.4453L69.2656 50.4023L71.5742 52.2188L71.6914 52.3125L73.8594 54.3984L76.0625 56.3203L76.0742 56.332L76.0977 56.3438L78.2539 58.3477L80.5039 60.1406H80.5156L82.9414 61.9219L83 61.957L83.0586 62.0039L85.2969 63.9727L87.5703 65.9414L87.582 65.9531L89.7852 67.9102L92.0938 69.8203L92.1758 69.8789L92.2461 69.9609L94.2148 72.1055L96.4297 73.8047L98.8906 75.5508L99.0078 75.6328L99.1133 75.7383L101.105 77.8125L103.414 79.582L103.473 79.6289L103.52 79.6758L105.594 81.6328L108.02 83.3086L108.195 83.4258L108.324 83.5781L110.164 85.7695L110.63 86.125L112.086 86.2109L112.031 87.1953L112.344 87.4336L112.444 87.5H113.504V89.293L111.922 89.1992L111.877 89.1963L111.184 90.2578L110.703 89.9414L110.656 89.918L110.621 89.8828L109.516 89.0469L107.023 88.7656L104.246 89.2227L104.035 89.2578L103.836 89.2344L100.941 88.918H98L95.0352 88.9883H95.0234L92.0234 89.0469H92.0117L89.0703 89.0586L89.082 89.0703L86.082 89.2461L85.918 89.2578L85.7539 89.2227L82.9414 88.7656L80.1523 89.0469L80.0469 89.0586H79.9297L77.0117 88.9297L74.082 89.082H73.9648L73.8477 89.0703L70.9883 88.8008L68.1406 89.0586H68.082L65.082 89.2109L64.9531 89.2227L64.8125 89.2109L61.918 88.8594L59.0234 88.9062H58.9766L55.9766 88.8477L52.9883 88.8359H52.9766L49.9766 88.7891L47.1172 89.0117L47.082 89.0234H47.0469L44.0469 89.1172H43.9414L40.9414 89.0117V89L37.9883 88.9883H37.9062L34.9648 88.8125L32.0586 88.9297H29L26.1055 88.9414L23.1172 89.1641L22.9883 89.1758L22.8594 89.1641L19.9766 88.8945H19.7393L19.6484 88.9023L16.6602 89.1953L16.543 89.207H16.4258L14.0771 89.0625L14.0703 89.0703H14.0586L12.9746 89.1123L10.7188 89.4297L10.4727 89.4648L10.2266 89.418L8.09766 89.0059L8 89V88.9873L7.74219 88.9375L5.50391 88.5039L6.79297 86.6172L8.43359 84.2266L9.74609 81.6016L9.75781 81.5664L11.1992 78.9414L12.582 76.3047L12.5938 76.293L14.0117 73.6445L15.1367 71.0078L15.1602 70.9375L16.4609 68.2305L16.4727 68.1836L16.5078 68.1484L17.9844 65.5352L19.3672 62.9219L19.4141 62.8516L20.9023 60.3438L22.1562 57.6836L22.168 57.6602L22.1914 57.625L23.5859 54.9766L24.9336 52.3164L26.0703 49.6445L26.1289 49.5156L26.1992 49.4102L27.8398 46.8906L29.1406 44.3477L30.3242 41.6758L30.3359 41.6641V41.6523L31.6133 38.9336L31.6836 38.793L32.6494 37.2041L32.1924 35.2119L32.1885 35.1895L31.5742 32.2539L31.5479 32.1748L31.5449 32.0918L31.4375 31.0518L30.6953 30.8125L30.4375 30.7305L30.2148 30.5547L27.9531 28.7266L27.7305 28.5508L27.1387 27.5166L26.0742 27.5781L25.6523 27.6016L25.2773 27.3906L23.332 26.3125L22.6406 25.9375L22.5703 25.1523L22.2539 22.1523L22.2422 21.9531L22.2656 21.7539L22.7695 18.7539L24 18.9648V17.5H26.0156L25.9922 17.6289L27.0166 17.6973L27.7305 16.4492L27.9531 16.2734L30.2148 14.4453L30.4375 14.2695L30.6953 14.1875L33.5312 13.2734L33.6367 13.2383L33.7539 13.2148L36.6953 12.7344H36.7188L36.7422 12.7227L39.7305 12.3477L39.918 12.3242L40.0938 12.3477ZM46.1758 31.9727L46.1172 31.9844H46.0586L43.0938 32.2891L43.1055 32.3008L42.6562 32.3525L43.0039 34.2324L43.4883 37.0459L44.8125 39.2695L46.5352 41.543H46.5469L48.3984 43.9102L48.4453 43.9805L50.168 46.4297L50.2148 46.5L50.25 46.5586L51.6445 49.0664L53.4609 51.3164L53.4961 51.3516L53.5195 51.3984L55.2539 53.8477L55.2773 53.8594L56.9297 56.2852L58.7344 58.6758L58.7812 58.7344L58.8164 58.8047L60.3398 61.3008L62.0273 63.7852L62.0391 63.7969L62.0508 63.8203L63.6094 66.2578L65.3555 68.6133H65.3672L67.2656 70.957L67.3008 71.0039L67.3477 71.0625L69.0234 73.5469H69.0117L70.7109 76.0195L70.7227 76.0312L72.3398 78.4805L74.0977 80.918L74.1562 81L74.2148 81.0938L75.5508 83.6484L77.3203 85.9336V85.9404L79.9883 86.0586L82.8477 85.7539L83.0469 85.7422L83.2461 85.7656L86.0469 86.2461L88.918 86.0703H88.9883L91.9766 86.0586V86.0469L94.9648 86V85.9883L97.9648 85.918H98L101 85.9062H101.164L103.918 86.2344L106.297 85.8311L106.156 85.6641L103.836 84.0586L103.742 84L103.672 83.918L101.586 81.9727L99.207 80.1445L99.1133 80.0742L99.0312 79.9805L97.0273 77.8945L94.707 76.2539L94.6719 76.2422L94.6484 76.2188L92.2695 74.3906L92.1641 74.3086L92.082 74.2148L90.0898 72.0469L87.875 70.2188L87.8516 70.207L87.8281 70.1836L85.6016 68.2031L83.3398 66.2461L83.3281 66.2344L81.1133 64.2773L78.7461 62.5664L78.7227 62.5547L78.6992 62.5312L76.3555 60.6562L76.3086 60.6211L76.2734 60.5859L74.0586 58.5586V58.5469L71.832 56.6133L71.7969 56.5898L71.7734 56.5664L69.6055 54.4805H69.5938L67.3672 52.7227L67.332 52.6992L67.3086 52.6758L65.0352 50.7188V50.707L62.832 48.8555L60.4062 47.0859L60.3008 47.0039L60.207 46.9102L58.2266 44.8477L55.9414 42.9141V42.9023L53.6094 41.1445L53.5977 41.1328H53.5859L52.3193 40.1367L52.3711 40.4287L52.3857 40.5098L52.3877 40.5811L52.5811 43.4375L53.2812 46.2588L53.3008 46.3623L53.6611 48.3594L52.625 47.0215L49.5615 42.9209L49.4316 40.9609L48.9307 38.1211L48.25 35.2119L48.2461 35.1885L47.6211 32.2559L47.6064 32.1748L47.6025 32.0918L47.5635 31.7129L46.1758 31.9727ZM44.8008 46.0889L44.8115 46.0869L45.3682 49.0342L45.9111 51.9727L45.9229 51.9707L46.502 54.9131L46.5039 54.9248L47.0723 57.8701L47.085 57.9395L47.502 60.8447L48.1533 63.7246L48.1777 63.791L48.1787 63.8623L48.5479 66.7656L49.3408 69.5088L49.3672 69.5869L49.3838 69.6787L49.8945 72.6357L49.9053 72.6934L50.2783 75.6201L50.7686 78.5938L50.7852 78.6855L51.0342 81.5781L51.0479 81.5869L51.4854 84.3447L51.875 85.292L50.7314 85.7998L53.0234 85.8359L53.0117 85.8477H56.0234L56.7139 85.8604L56.6582 85.6982L56.585 85.498L56.5811 85.2832L56.4414 82.332L55.9082 79.5117L55.8975 79.4541L55.4561 76.4824L55.4678 76.4795L54.9727 73.543L54.9707 73.5312L54.5352 70.6543L53.8145 67.7891L53.8018 67.7197L53.2002 64.7812L53.1807 64.6777L52.7852 61.6963L52.7959 61.6943L52.3174 58.7783L52.3086 58.7324L52.3135 58.6953L52.251 58.1064L55.1777 62.3223L56.1191 64.041L56.1377 64.1777L56.7275 67.0469L56.7158 67.0488L57.4336 69.9033L57.458 69.9697L57.4707 70.0391L57.9238 73.0078L57.9102 72.999L58.4072 75.9473L58.4111 75.9707L58.8516 78.9307L59.3994 81.832L59.418 81.9355L59.4141 82.0449L59.5381 84.8438L59.9053 85.8877L61.9766 85.8477H62.082L62.1875 85.8594L65.0352 86.2227L67.918 86.0586V86.0703L70.8594 85.7891L71 85.7773L71.1523 85.7891L73.6064 86.042L73.1016 85.3945L73.0195 85.2891L72.9609 85.1719L71.5781 82.5469L69.9141 80.2383L69.8906 80.2148L69.8789 80.1914L68.2148 77.6953V77.6836L66.5391 75.2344L66.5273 75.2227L64.8516 72.7383H64.8398L63.0352 70.5117L63.0117 70.4883L63 70.4648L61.207 68.0508L61.1719 68.0039L61.1484 67.9688L59.543 65.4609V65.4727L57.8555 62.9883L57.8438 62.9648L57.8203 62.9297L56.2852 60.3984L54.5273 58.0898L54.5156 58.0664L54.4922 58.0312L52.8047 55.582L51.082 53.1328V53.1211L49.2422 50.8711L49.1602 50.7656L49.1016 50.6602L47.6484 48.082L46.0312 45.7617L44.5449 43.8613L44.8008 46.0889ZM33.0547 42.8945L33.0664 42.9062L31.8359 45.6484L31.8242 45.6836L31.8008 45.7188L30.4297 48.3906L30.3945 48.4609L30.3594 48.5195L28.7891 50.9219L27.6523 53.582L27.6055 53.6758L26.2461 56.3477V56.3711L24.8633 58.9492L24.875 58.9609L23.5977 61.6797L23.5625 61.75L21.9805 64.3867L20.6094 66.9766V66.9883L20.5977 67.0117L19.1094 69.625L17.8672 72.2383L16.7188 74.9453L16.6836 75.0156L16.6602 75.0742L15.2305 77.6875L15.2422 77.6992L13.8359 80.3594V80.3711L12.3945 83.0078L11.082 85.6445L11.0352 85.7383L10.9766 85.8203L10.7285 86.1768L11.0352 86.1992L12.749 86.1289L13.2969 86.0547L13.4375 86.0312L13.5781 86.043L14 86.0654L16.918 85.8945H16.9883L18.7119 85.8877L19.6602 84.5547L20.4219 81.918L20.4688 81.7188L20.5742 81.5547L22.0625 79.0938L22.9648 76.3984L22.9766 76.3633L23 76.3398L24.0781 73.5508L25.1445 70.75L26.1875 67.9375V67.9258L26.1992 67.9141L27.3008 65.125L27.3359 65.043L27.3828 64.9609L28.707 62.4766L29.3633 59.5234L29.4688 59.3242L30.8516 56.7812L32.0234 54.1211L32.6914 51.3555L32.7148 51.25L32.75 51.1562L33.8516 48.3672L33.9102 48.2266L33.9805 48.1094L34.3926 47.458L34.3164 47.0361L33.6016 44.1338L33.5674 44.0088L33.5557 43.8799L33.4365 42.0908L33.0547 42.8945ZM34.9062 55L34.8711 55.1406L34.8125 55.2578L33.5938 58L33.5469 58.1172L32.1992 60.5664L31.6016 63.3438L31.5547 63.543L31.4492 63.7305L30.0195 66.3906L28.9883 68.9805L29 68.9922L27.9453 71.8047L26.8789 74.6172V74.6289L25.7891 77.4297L24.8633 80.207L24.8047 80.3594L24.7227 80.5117L23.2461 82.9141L22.4727 85.6445L22.4023 85.8789L22.2617 86.0898L22.2559 86.0977L23.0234 86.1758L25.8828 85.9414H25.9883L28.9883 85.918H29.0117L31.9414 85.9297L34.9414 85.8125L35.0117 85.8008L35.0938 85.8125L38.0938 85.9883L38.082 86L40.6406 86.0098L40.5332 85.5928L40.4941 85.4453L40.4893 85.291L40.3496 82.3398L39.8164 79.5186L39.8115 79.4961L39.8174 79.459L39.3799 76.5107L39.3682 76.5127L38.8916 73.5479L38.8896 73.5371L38.4521 70.6484L37.7314 67.7822L37.7207 67.7246L37.1191 64.7871L37.1084 64.7295L37.1113 64.6807L36.7158 61.6992L36.7266 61.6973L36.248 58.7812L36.2334 58.7002L35.9336 55.8545L35.3545 53.084L34.9062 55ZM35.0938 34.4727L35.1055 34.4697L35.7783 37.4053L35.791 37.4746L35.8252 37.6758L35.8555 37.6914L35.835 37.7314L36.3018 40.4316L36.3291 40.5811L36.5244 43.5088L37.2119 46.2617L37.2314 46.3057L37.2422 46.3633L37.7646 49.3184L37.7686 49.3408L38.248 52.2568L38.8574 55.1699L38.8848 55.3193L39.1836 58.2256L39.6729 61.1992L39.6748 61.2109L39.668 61.2363L40.0576 64.1826L40.625 66.9971L40.6357 66.9941L41.3525 69.9082L41.377 69.9746L41.3896 70.0439L41.8428 73.0137L41.8291 73.0039L42.3154 75.9551L42.3193 75.9785L42.7588 78.9385L43.3066 81.8398L43.3262 81.9434L43.333 82.0498L43.4668 84.9658L43.7627 86.1084L44 86.1172L46.8828 86.0352L48.8545 85.873L48.6084 85.2822L48.5762 85.1094L48.1006 82.1455L48.0898 82.0879L48.0928 82.0391L47.8311 79.1377L47.3438 76.1748L47.335 76.1289L46.9395 73.1475L46.9502 73.1455L46.4473 70.2939L45.6377 67.5195L45.6045 67.4062L45.5947 67.2891L45.2471 64.4414L45.2383 64.4551L44.5781 61.5293L44.5557 61.4023L44.127 58.4395L43.5723 55.5635L42.9932 52.6201L42.4453 49.6592L41.8799 46.7256L41.8584 46.6104L41.5322 43.7461L40.9092 40.8242L40.8965 40.7549L40.8926 40.6719L40.5566 37.6895L40.5684 37.6875L40.0635 34.8252L39.6689 32.6445L36.7422 32.2773L36.7188 32.2656H36.6953L34.5557 31.916L35.0938 34.4727ZM35.1211 27.4258L35.1328 27.4375L32.1328 27.707L31.9922 27.7188L31.8516 27.707L31.3857 27.6602L31.8789 28.0586L33.8506 28.6934L34.1934 28.6279L34.2207 28.7783L34.2178 28.8115L34.3164 28.8438L37.1758 29.3008L37.1641 29.3125L39.9297 29.6641L42.7539 29.3125H42.7773L45.625 29.0312V29.0195L48.3672 28.5156L50.1191 27.6729L49.9805 27.6719V27.6602L46.9922 27.6484H46.9688L43.9922 27.5898L41.0273 27.6484H40.9219L40.8164 27.6367L37.957 27.2852L35.1211 27.4258ZM48.0586 20.4297H47.9883L45 20.418L42.1055 20.4297L39.1172 20.6641L38.9883 20.6758L38.8594 20.6641L35.9766 20.3828L33.0117 20.3945L33 20.3828L30.082 20.5586L30.0703 20.5703H30.0586L27.0586 20.6875L26.9766 20.6992L26.8945 20.6875L25.5 20.5938L25.2539 22.0469L25.4648 24.0625L26.3438 24.5547L28.9219 24.4141H29.0391L29.1445 24.4258L32.0039 24.6953L34.8633 24.4492L34.8867 24.4375H34.9219L37.9219 24.2852L38.0508 24.2734L38.1797 24.2969L41.0625 24.6367L43.9688 24.5898H44.0273L47.0273 24.6484H47.0156L50.0039 24.6719H50.0273L52.2383 24.6982L52.3398 24.6484L52.3643 24.7002L52.9102 24.707L54.4336 24.6016L54.3867 23.0547L54.375 22.9961L54.3867 22.9492L54.457 20.8984L53.6016 20.4648L50.9648 20.3008L48.0586 20.4297ZM37.1641 15.6875L37.1758 15.6992L34.3164 16.1562L31.8789 16.9414L31.1924 17.4951L32.918 17.3945H32.9883L35.9883 17.3828L36.0703 17.3711L36.1406 17.3828L39.0234 17.6758L41.8828 17.4414H41.9883L44.9883 17.418H45.0117L47.9414 17.4297L50.1543 17.3428L48.3672 16.4844L45.625 15.9805V15.9688L42.7773 15.6875H42.7539L39.9297 15.3359L37.1641 15.6875Z" fill="black"/>
</svg>
