<svg width="120" height="120" viewBox="0 0 120 120" fill="none" xmlns="http://www.w3.org/2000/svg">
<path d="M54.0977 55.4727L54.5664 57.9922L54.5898 58.0859V58.1797L54.6133 58.5781L54.7305 58.5898L55.1055 57.7812L55.4336 55.6602L55.6328 54.3945H56.9102L59.5469 54.3828L59.6406 54.3711L59.7227 54.3828L62.3594 54.6758L62.8281 54.7344L63.1797 55.0273L64.5391 56.1992L65.0547 56.6445V57.3242L65.0664 58.4492L65.0898 58.4375L65.3828 57.7344L65.9453 55.6016L66.25 54.4766L67.4102 54.4883L70.0586 54.5117H70.1055L72.7422 54.6172L73.293 54.6406L73.7031 55.0156L74.9922 56.2227L75.4258 56.6094L75.4727 57.1836L75.707 59.832L75.7188 59.9023L75.707 59.9844L75.6719 62.6211V62.668L75.6602 62.7148L75.4609 65.3984L75.4258 65.8789L75.1211 66.2422L73.457 68.2109L72.0156 70.1094L71.4883 71.8555L71.8516 74.0703L72.4023 76.6719L72.4375 76.8359V76.9883L72.4023 79.4375L72.8125 82.0039L72.8359 82.168L72.9531 84.6875L73.5039 87.1602L73.5625 87.3828L73.5391 87.6055L73.3281 90.1133L73.7383 92.5156L73.75 92.5508V92.5977L74.0547 95.2227H74.043L74.3711 97.8125L74.7109 100.438L74.7227 100.449V100.473L75.0039 103.098L75.0156 103.191L75.0039 103.297L74.9336 105.699L75.6484 108.055L75.958 109.084L76.7422 109.93L76.8828 110.094L78.2529 112.835L78.6602 111.433L78.7422 111.175L78.9062 110.952L79.7412 109.831L79.7041 109.704L79.6455 109.493V109.271L79.6338 106.622V106.481L79.6572 106.341L80.1143 103.892L80.0205 101.407L80.0088 101.196L80.0557 101.009L80.665 98.4072L80.9111 96.0283L80.7354 93.5674L80.7236 93.4502L80.7354 93.333L80.958 90.708L80.9697 90.5908L80.9932 90.4854L81.5557 88.083L81.6143 85.5518V85.458L81.6377 85.3525L82.0479 82.7393L82.2002 80.2432V80.1846L82.2119 80.126L82.5166 77.9111L81.79 76.1885L80.4189 74.0791L80.3135 73.915L80.2432 73.7393L79.5049 71.4775L79.4229 71.2549V68.3721L79.1885 65.8643L79.0596 64.4463L80.4658 64.2471L82.9736 63.8838L83.126 63.8604L83.29 63.8721L85.9268 64.0244L86.1729 64.0361L86.3955 64.1299L88.4111 64.9385L88.9502 65.1611L89.4775 64.6104L89.876 64.1768L90.4619 64.1416L93.0986 63.9658H93.1924L95.8408 63.9541L97.2236 63.9424L97.3174 65.0674L97.7393 64.54L98.1963 63.9775L98.9111 63.9893L101.478 64.001L104.114 63.8838L105.368 63.8252L105.649 65.0322L106.188 67.3408L106.224 67.5166V67.7041L106.2 70.3408V70.4932L106.165 70.6338L105.661 73.0479L105.591 73.3643L105.403 73.6338L103.88 75.6729L103.071 77.3018L103.259 79.5049L103.493 82.1416L103.505 82.165L103.704 84.7314L104.021 87.3564L104.032 87.4736L104.021 87.5908L103.915 90.0635L104.313 92.501L104.841 95.1025L104.876 95.2666V95.4307L104.841 97.9736L105.239 100.435L105.263 100.599L105.38 103.118L105.919 105.591L105.966 105.813L105.954 106.036L105.731 108.544L105.836 109.146L106.703 109.921L106.867 110.073L106.996 110.272L108.344 112.581L108.531 112.886L108.555 113.249L108.647 114.721L110.809 114.5L110.891 114.488H110.973L112.016 114.5L112.004 116L111.98 117.5L110.984 117.488L108.477 117.746L108.254 117.77L108.031 117.734L105.57 117.242L103.145 117.254L100.648 117.688L100.496 117.711L100.332 117.699L97.6953 117.594H97.625L97.5547 117.582L95.1523 117.242L92.7617 117.711L92.5273 117.758L92.293 117.734L89.7383 117.406L87.207 117.418L87.1953 117.406L84.6055 117.488H84.5938L81.957 117.547H81.9336L79.3672 117.559L79.3789 117.57L76.7422 117.746L76.5547 117.758L73.9297 117.266L71.5391 117.547L71.4102 117.559H71.2812L68.7266 117.418L66.1719 117.582H66.043L65.9141 117.57L63.418 117.289L60.957 117.559H60.8867L58.25 117.711L58.0977 117.723L57.957 117.699L55.4141 117.348L52.9062 117.406H52.8477L50.2109 117.348V117.336H47.5742L44.9492 117.289L42.4531 117.512L42.418 117.523H42.3711L39.7344 117.617H39.6172L36.9805 117.512V117.5L34.3906 117.488H34.3438L34.2969 117.477L31.7188 117.301L29.1875 117.43H29.1055L26.4688 117.418V117.406L23.9609 117.43L21.3242 117.664L21.1836 117.676L21.0312 117.664L18.5 117.383L15.9219 117.395V117.383L14.8506 117.456L14.8457 117.503H14.1846L13.3789 117.559H13.3672L13.3555 117.57L10.707 117.688L10.6133 117.699L10.5312 117.688L7.98828 117.5L8 117.277V114.5H8.21094L10.6719 114.699L12.1846 114.628L12.2441 114.163L12.2676 114.046L12.291 113.94L13.0176 111.433L13.0996 111.175L13.2637 110.952L14.0986 109.831L14.0615 109.704L14.0029 109.493V109.271L13.9912 106.622V106.481L14.0146 106.341L14.4717 103.892L14.3779 101.407L14.3662 101.196L14.4131 101.009L15.0225 98.4072L15.2686 96.0283L15.0928 93.5674L15.0811 93.4502L15.0928 93.333L15.3154 90.708L15.3271 90.5908L15.3506 90.4854L15.9131 88.083L15.9717 85.5518V85.458L15.9951 85.3525L16.4053 82.7393L16.5576 80.2432V80.1846L16.5693 80.126L16.874 77.9111L16.1475 76.1885L14.7764 74.0791L14.6709 73.915L14.6006 73.7393L13.8623 71.4775L13.7803 71.2549V68.3721L13.5459 65.8643L13.417 64.4463L14.8232 64.2471L17.3311 63.8838L17.4834 63.8604L17.6475 63.8721L20.2842 64.0244L20.5303 64.0361L20.7529 64.1299L22.7686 64.9385L23.3076 65.1611L23.835 64.6104L24.2334 64.1768L24.8193 64.1416L27.4561 63.9658H27.5498L30.1982 63.9541L31.5811 63.9424L31.6748 65.0674L32.0967 64.54L32.5537 63.9775L33.2686 63.9893L35.835 64.001L38.4717 63.8838L39.7256 63.8252L40.0068 65.0322L40.5459 67.3408L40.5811 67.5166V67.7041L40.5576 70.3408V70.4932L40.5225 70.6338L40.0186 73.0479L39.9482 73.3643L39.7607 73.6338L38.2373 75.6729L37.4287 77.3018L37.6162 79.5049L37.8506 82.1416L37.8623 82.165L38.0615 84.7314L38.3779 87.3564L38.3896 87.4736L38.3779 87.5908L38.2725 90.0635L38.6709 92.501L39.1982 95.1025L39.2334 95.2666V95.4307L39.1982 97.9736L39.5967 100.435L39.6201 100.599L39.7373 103.118L40.2764 105.591L40.3232 105.813L40.3115 106.036L40.0889 108.544L40.1934 109.146L41.0605 109.921L41.2246 110.073L41.3535 110.272L42.7012 112.581L42.8887 112.886L42.9121 113.249L42.9434 113.743L43.0859 112.953L43.1211 112.754L43.2148 112.578L44.3096 110.283L43.7969 110.387L44.3242 108.113L44.9102 105.699L44.9688 103.191V103.086L44.9805 102.98L45.3906 100.52L45.5664 97.8828V97.8242L45.5781 97.7656L45.9531 95.1523L46.0586 92.6562V92.5391L46.082 92.4219L46.5859 89.9258L46.9258 87.3477L47.1836 84.8047L47.2188 82.2031V82.168L47.3125 79.5312V79.4375L47.3242 79.332L47.7578 76.7305L47.9219 74.2344L47.9336 74.0938L47.9688 73.9648L48.5195 71.7031L48.1211 69.9688L46.5859 68.3516L46.4922 68.2695L46.4219 68.1641L44.9453 65.9727L44.7227 65.6445L44.6875 65.2461L44.4883 62.6914V62.6328L44.3828 59.9961V59.8906L44.3945 59.7969L44.6406 57.1484L44.6875 56.7031L44.9688 56.3516L46.1758 54.8516L46.6562 54.2539L47.418 54.2891L50.0664 54.418L52.5273 54.2539L53.8516 54.1602L54.0977 55.4727ZM91.7236 107.362L90.79 107.595L90.5674 107.653L90.3447 107.642L90.334 107.641L89.125 107.917L89.1133 107.905L86.7461 108.479L85.4727 109.098L84.7197 109.962L84.6377 110.056L84.5439 110.138L82.5049 111.813L81.4062 112.718L80.8691 114.562L81.8867 114.559V114.547L84.5234 114.488L87.1602 114.418H87.1953L89.832 114.406H89.9375L90.0312 114.418L92.4219 114.734L94.8359 114.266L95.082 114.219L95.3164 114.254L97.8945 114.605L100.273 114.711L102.793 114.277L102.91 114.266H103.027L105.609 114.242L105.578 113.776L105.273 113.266L103.681 112.001L101.618 110.372L99.5322 108.755H99.5205L98.2363 107.925L96.4258 107.601L95.9209 107.545L95.583 107.524L95.4775 107.513L95.3838 107.489L95.3594 107.483L93.8477 107.319L91.7236 107.362ZM59.375 105.723L56.8906 105.863L54.4883 106.426L52.1797 107.188L50.2227 108.348L48.4062 110.035L46.9414 111.723L46.0039 113.656L45.8857 114.305L47.6211 114.336L47.6094 114.348H50.2695L52.8711 114.406L55.4844 114.348H55.6133L55.7305 114.359L58.2148 114.723L60.7109 114.559V114.57L63.2891 114.289L63.4414 114.277L63.6055 114.289L66.0898 114.582L68.6328 114.43L68.7148 114.418L68.7969 114.43L71.3281 114.559L73.8242 114.266L74.0586 114.23L74.2812 114.277L75.3789 114.481L75.3477 113.727L74.375 111.793L72.793 110.082L71.5459 109.102L71.5352 109.098L71.3828 108.98L69.3438 107.562L67.6582 106.84L66.6641 106.555V106.543L64.3203 105.98L61.8359 105.617L59.375 105.723ZM26.0811 107.362L25.1475 107.595L24.9248 107.653L24.7021 107.642L24.6914 107.641L23.4824 107.917L23.4707 107.905L21.1035 108.479L19.8301 109.098L19.0771 109.962L18.9951 110.056L18.9014 110.138L16.8623 111.813L15.7646 112.718L15.2656 114.431L15.8164 114.395H15.9102L18.5469 114.383L18.6406 114.371L18.7227 114.383L21.2305 114.664L23.7148 114.453L23.7617 114.441H23.8203L26.4688 114.418H26.4922L29.0469 114.43L31.6953 114.312L31.7773 114.301L31.8594 114.312L34.5078 114.488L34.4961 114.5L37.0508 114.512H37.0977L39.6875 114.617L39.9912 114.606L39.9355 113.776L39.6309 113.266L38.0381 112.001L35.9756 110.372L33.8896 108.755H33.8779L32.5938 107.925L30.7832 107.601L30.2783 107.545L29.9404 107.524L29.835 107.513L29.7412 107.489L29.7168 107.483L28.2051 107.319L26.0811 107.362ZM23.8789 78.3447H23.8672L23.8555 78.3564L21.207 78.4736L21.1133 78.4854L21.0312 78.4736L19.8438 78.3857L19.5342 80.5479L19.3818 83.0674V83.1377L19.3701 83.208L18.96 85.6807L18.9131 88.2705V88.4229L18.8779 88.5752L18.292 91.0479L18.0928 93.4502L18.2686 96.0283L18.2803 96.1572L18.2686 96.2979L17.9756 98.9229L17.9639 99.0166L17.9521 99.0986L17.3779 101.501L17.4717 103.962V104.126L17.4482 104.278L16.9912 106.751V107.246L17.377 106.979L17.4707 106.921L17.5762 106.862L17.9814 106.668L18.5967 105.978L18.8311 105.708L19.1592 105.579L21.5615 104.583L21.8896 104.454L22.2295 104.478L24.5137 104.61L25.3926 104.413L25.5449 104.378H25.6582L27.0693 104.044L27.3975 103.962L27.7256 104.021L29.9844 104.484L29.9062 103.724V103.677L29.8945 103.642L29.7773 100.993L29.7656 100.899L29.7773 100.817L29.9648 98.2744L30.1055 98.2861H32.9648V98.4971L32.9014 99.2861H33.9648V99.4971L33.7656 101.958L33.8828 104.419H33.8945L33.9658 105.117L34.0879 105.14L34.3105 105.269L36.6191 106.569L36.6895 106.616L37.2178 106.951L37.2998 106.024L36.7842 103.634L36.749 103.517V103.388L36.6318 100.915L36.2217 98.3018L36.1982 98.1729V98.0439L36.2217 95.5244L35.7295 93.1104L35.7178 93.0752V93.04L35.2959 90.4268L35.2725 90.2861L35.2842 90.1338L35.3779 87.6494L35.0732 85.0947V85.0244L34.8623 82.3994V82.3877L34.6279 79.7861V79.7744L34.5 78.2666L34.3203 78.251L31.8242 78.4502L31.6836 78.4619L31.5312 78.4502L29 78.1807H26.4219L23.8789 78.3447ZM89.5215 78.3447H89.5098L89.498 78.3564L86.8496 78.4736L86.7559 78.4854L86.6738 78.4736L85.4863 78.3857L85.1768 80.5479L85.0244 83.0674V83.1377L85.0127 83.208L84.6025 85.6807L84.5557 88.2705V88.4229L84.5205 88.5752L83.9346 91.0479L83.7354 93.4502L83.9111 96.0283L83.9229 96.1572L83.9111 96.2979L83.6182 98.9229L83.6064 99.0166L83.5947 99.0986L83.0205 101.501L83.1143 103.962V104.126L83.0908 104.278L82.6338 106.751V107.246L83.0195 106.979L83.1133 106.921L83.2188 106.862L83.624 106.668L84.2393 105.978L84.4736 105.708L84.8018 105.579L87.2041 104.583L87.5322 104.454L87.8721 104.478L90.1562 104.61L91.0352 104.413L91.1875 104.378H91.3008L92.7119 104.044L93.04 103.962L93.3682 104.021L94.9697 104.35L94.9062 103.724V103.677L94.8945 103.642L94.7773 100.993L94.7656 100.899L94.7773 100.817L94.9648 98.2744L95.1055 98.2861H97.9648V98.4971L97.9014 99.2861H98.9648V99.4971L98.7656 101.958L98.8828 104.419H98.8945L98.9355 104.821L99.1221 104.935L99.3291 105.067L99.4727 105.093L99.7305 105.14L99.9531 105.269L102.262 106.569L102.332 106.616L102.86 106.951L102.942 106.024L102.427 103.634L102.392 103.517V103.388L102.274 100.915L101.864 98.3018L101.841 98.1729V98.0439L101.864 95.5244L101.372 93.1104L101.36 93.0752V93.04L100.938 90.4268L100.915 90.2861L100.927 90.1338L101.021 87.6494L100.716 85.0947V85.0244L100.505 82.3994V82.3877L100.271 79.7861V79.7744L100.143 78.2666L99.9629 78.251L97.4668 78.4502L97.3262 78.4619L97.1738 78.4502L94.6426 78.1807H92.0645L89.5215 78.3447ZM55.3789 72.0586H55.3672L55.3555 72.0703L52.707 72.1875L52.6133 72.1992L52.5312 72.1875L51.5303 72.1133L50.9102 74.5508L50.7344 77.0703V77.1406L50.7227 77.2109L50.3125 79.6484L50.2188 82.2734L50.1836 84.8984V85.0273L49.9141 87.6523V87.6758L49.9023 87.6992L49.5625 90.3125L49.5508 90.3711V90.418L49.0469 92.8555L48.9297 95.4336V95.5039L48.918 95.5742L48.543 98.1875L48.3906 100.707L48.3789 100.777L48.3672 100.859L47.9688 103.297L47.8984 105.91V106.016L48.8711 105.125L48.9766 105.031L49.0938 104.961L51.3203 103.555L51.6133 103.379L51.9531 103.344L54.5078 103.039L57.0273 102.512L57.1914 102.488H57.3555L59.957 102.5L62.5938 102.43L62.8164 102.418L63.0273 102.477L63.0381 102.479L63.0703 102.149L62.9062 99.665V99.6533L62.8945 99.6416L62.7773 96.9932L62.7656 96.8994L62.7773 96.8174L62.9648 94.2744L63.1055 94.2861H65.9648V94.4971L65.8203 96.2861H66.9648V96.4971L66.7656 98.958L66.8828 101.466H66.8945L67.0303 103.504L67.9609 103.719L68.0898 103.754L68.207 103.801L68.7422 104.03L70.0508 104.41L70.2969 104.48L70.4961 104.633L71.9463 105.659L72.0156 103.414L71.7344 100.789V100.777L71.3945 98.1992L71.0664 95.5742V95.5625L70.7852 93.0195L70.3398 90.4062L70.3047 90.2188L70.3281 90.0312L70.5273 87.6055L70 85.2148L69.9766 85.0859L69.9648 84.957L69.8477 82.4844L69.4258 79.8828L69.4023 79.7539V79.6133L69.4375 77.1406L68.9219 74.6914L68.9102 74.6562V74.6211L68.4883 72.0078L68.4756 71.9395L68.3164 71.918L65.9609 71.9414L63.3242 72.1641L63.1836 72.1758L63.0312 72.1641L60.5 71.8945H57.9219L55.3789 72.0586ZM24.2598 95.8242L25.5137 96.0117L25.3848 96.8203V99H25.1738L25.0566 98.9883L23.9902 98.8125L22.9121 98.918L22.373 99.0586L20.498 99.5508V97.5H21.9746L21.623 96.1523L22.3027 95.9766L22.4199 95.9531L22.5371 95.9414L23.8965 95.8125L24.0723 95.8008L24.2598 95.8242ZM90.2598 95.8242L91.5137 96.0117L91.3848 96.8203V99H91.1738L91.0566 98.9883L89.9902 98.8125L88.9121 98.918L88.373 99.0586L86.498 99.5508V97.5H87.9746L87.623 96.1523L88.3027 95.9766L88.4199 95.9531L88.5371 95.9414L89.8965 95.8125L90.0723 95.8008L90.2598 95.8242ZM56.5938 94.8242L58.0938 95.0117L58 95.7031V98H57.8008L57.707 97.9883L56.3828 97.8008L54.9883 97.918L54.3203 98.0703L52.5039 98.4805V96.5H53.9805L53.6758 95.1406L54.4727 94.9648L54.5781 94.9414H54.6836L56.2773 94.8125L56.4414 94.8008L56.5938 94.8242ZM31.875 87.9297L33.1289 88.1172L33 88.9258V91.1055H32.7891L32.6719 91.0938L31.6055 90.918L30.5273 91.0234L29.9883 91.1641L28.1133 91.6562V89.6055H29.5898L29.2383 88.2578L29.918 88.082L30.0352 88.0586L30.1523 88.0469L31.5117 87.918L31.6875 87.9062L31.875 87.9297ZM97.875 87.9297L99.1289 88.1172L99 88.9258V91.1055H98.7891L98.6719 91.0938L97.6055 90.918L96.5273 91.0234L95.9883 91.1641L94.1133 91.6562V89.6055H95.5898L95.2383 88.2578L95.918 88.082L96.0352 88.0586L96.1523 88.0469L97.5117 87.918L97.6875 87.9062L97.875 87.9297ZM65.5938 84.8242L67.0938 85.0117L67 85.7031V88H66.8008L66.707 87.9883L65.3828 87.8008L63.9883 87.918L63.3203 88.0703L61.5039 88.4805V86.5H62.9805L62.6758 85.1406L63.4727 84.9648L63.5781 84.9414H63.6836L65.2773 84.8125L65.4414 84.8008L65.5938 84.8242ZM25.9521 80.8242L27.2061 81.0117L27.0771 81.8203V84H26.8662L26.749 83.9883L25.6826 83.8125L24.6045 83.918L24.0654 84.0586L22.1904 84.5508V82.5H23.667L23.3154 81.1523L23.9951 80.9766L24.1123 80.9531L24.2295 80.9414L25.5889 80.8125L25.7646 80.8008L25.9521 80.8242ZM91.9521 80.8242L93.2061 81.0117L93.0771 81.8203V84H92.8662L92.749 83.9883L91.6826 83.8125L90.6045 83.918L90.0654 84.0586L88.1904 84.5508V82.5H89.667L89.3154 81.1523L89.9951 80.9766L90.1123 80.9531L90.2295 80.9414L91.5889 80.8125L91.7646 80.8008L91.9521 80.8242ZM58.5938 75.8242L60.0938 76.0117L60 76.7031V79H59.8008L59.707 78.9883L58.3828 78.8008L56.9883 78.918L56.3203 79.0703L54.5039 79.4805V77.5H55.9805L55.6758 76.1406L56.4727 75.9648L56.5781 75.9414H56.6836L58.2773 75.8125L58.4414 75.8008L58.5938 75.8242ZM16.6631 67.001L16.7803 68.2314V70.751L17.3779 72.5791L18.7373 74.665L18.8076 74.7705L18.8662 74.8994L19.0381 75.3125L21.1719 75.4854L23.6797 75.3682V75.3564L26.3164 75.1807H26.4102L29.0469 75.1689L29.1406 75.1572L29.2227 75.1689L31.7305 75.4502L34.2148 75.2393L34.3672 75.2158L34.5312 75.2393L34.9766 75.2979L34.9404 75.5771L35.6357 74.1963L35.6943 74.0791L35.7764 73.9736L37.1475 72.0986L37.5576 70.165L37.5693 67.8213L37.3701 66.9307L35.9756 67.001H35.8936L33.96 66.9893L33.1748 67.9619L32.9756 68.208L32.6943 68.3486L31.0889 69.1807L29.0967 70.2002L28.9092 67.9619L28.8154 66.9541L27.5732 66.9658L27.5615 66.9541L25.6162 67.083L24.8545 67.8916L24.749 67.9971L24.6318 68.0908L23.0381 69.2158L22.7451 69.415L22.4053 69.4619L22.3115 69.4854L22.1943 69.4971H19.9326L20.3545 67.6572L20.4482 67.2471L19.8506 67.001L17.6123 66.8604L16.6631 67.001ZM82.3057 67.001L82.4229 68.2314V70.751L83.0205 72.5791L84.3799 74.665L84.4502 74.7705L84.5088 74.8994L84.6807 75.3125L86.8145 75.4854L89.3223 75.3682V75.3564L91.959 75.1807H92.0527L94.6895 75.1689L94.7832 75.1572L94.8652 75.1689L97.373 75.4502L99.8574 75.2393L100.01 75.2158L100.174 75.2393L100.619 75.2979L100.583 75.5771L101.278 74.1963L101.337 74.0791L101.419 73.9736L102.79 72.0986L103.2 70.165L103.212 67.8213L103.013 66.9307L101.618 67.001H101.536L99.6025 66.9893L98.8174 67.9619L98.6182 68.208L98.3369 68.3486L96.7314 69.1807L94.7393 70.2002L94.5518 67.9619L94.458 66.9541L93.2158 66.9658L93.2041 66.9541L91.2588 67.083L90.4971 67.8916L90.3916 67.9971L90.2744 68.0908L88.6807 69.2158L88.3877 69.415L88.0479 69.4619L87.9541 69.4854L87.8369 69.4971H85.5752L85.9971 67.6572L86.0908 67.2471L85.4932 67.001L83.2549 66.8604L82.3057 67.001ZM50.0781 57.418H49.9141L48.0273 57.3242L47.582 57.875L47.3828 60.0078L47.4883 62.5156H47.4766L47.6406 64.6016L48.8359 66.3711L50.582 68.1992L50.875 68.5039L50.957 68.9023L50.9932 69.0625L52.6719 69.1992L55.1797 69.082V69.0703L57.8164 68.8945H57.9102L60.5469 68.8828L60.6406 68.8711L60.7227 68.8828L63.2305 69.1641L65.7148 68.9531L65.7617 68.9414H65.8203L68.4688 68.918L68.5977 68.9062L68.7266 68.9297L69.2129 69.0156L69.3086 68.7148L69.4727 68.4922L71.0898 66.3945L71.1016 66.3711L71.125 66.3477L72.5078 64.6953L72.6719 62.4922L72.7188 60.0898L72.5312 58.0156L72.0625 57.5938L69.9766 57.5117V57.5L68.5469 57.4883L68.2539 58.625L68.2305 58.7188L68.1953 58.8008L67.5156 60.4883L67.1406 61.4141L66.1445 61.4258L63.6133 61.4844L62.1016 61.5078L62.0898 59.9961L62.0547 58.0156L61.5859 57.6055L59.5 57.3828H58.1992L58.0469 58.4492L58.0117 58.6602L57.9297 58.8594L56.9922 60.8281L56.5469 61.7891L55.5039 61.6836L53.4648 61.4961H52.9961L52.9844 61.4492H52.9492V61.332L52.6445 60.0195L51.6953 60.0781L51.6016 58.4258L51.3906 57.3242L50.0781 57.418ZM27.8252 31.9111L27.8535 31.9033L28.8027 31.2354L30.2793 33.3096L30.291 33.333L30.3145 33.3682L31.7207 35.5713L31.8027 35.7119L31.8613 35.8643L32.7754 38.3369L32.8574 38.583L32.8691 38.8408L32.8926 41.501V41.7705L32.8105 42.0283L31.9082 44.5244L31.1699 46.9736L31.1465 47.0557L31.123 47.126L30.0918 49.5635L29.2246 51.8604L28.8672 53.7959L28.8809 53.832L28.8594 53.8379L28.7793 54.2744L28.709 54.6611L28.4512 54.9658L28.2285 55.2471L27.1738 54.374L27.1465 54.3828L26.1973 55.0508L24.7207 52.9766L24.709 52.9531L24.6855 52.918L23.2793 50.7148L23.1973 50.5742L23.1387 50.4219L22.2246 47.9492L22.1426 47.7031L22.1309 47.4453L22.1074 44.7852V44.5156L22.1895 44.2578L23.0918 41.7617L23.8301 39.3125L23.8535 39.2305L23.877 39.1602L24.9082 36.7227L25.7754 34.4258L26.1318 32.4893L26.1191 32.4541L26.1396 32.4473L26.2207 32.0117L26.291 31.625L26.5488 31.3203L26.7715 31.0391L27.8252 31.9111ZM93.4678 31.9111L93.4961 31.9033L94.4453 31.2354L95.9219 33.3096L95.9336 33.333L95.957 33.3682L97.3633 35.5713L97.4453 35.7119L97.5039 35.8643L98.418 38.3369L98.5 38.583L98.5117 38.8408L98.5352 41.501V41.7705L98.4531 42.0283L97.5508 44.5244L96.8125 46.9736L96.7891 47.0557L96.7656 47.126L95.7344 49.5635L94.8672 51.8604L94.5098 53.7959L94.5234 53.832L94.502 53.8379L94.4219 54.2744L94.3516 54.6611L94.0938 54.9658L93.8711 55.2471L92.8164 54.374L92.7891 54.3828L91.8398 55.0508L90.3633 52.9766L90.3516 52.9531L90.3281 52.918L88.9219 50.7148L88.8398 50.5742L88.7812 50.4219L87.8672 47.9492L87.7852 47.7031L87.7734 47.4453L87.75 44.7852V44.5156L87.832 44.2578L88.7344 41.7617L89.4727 39.3125L89.4961 39.2305L89.5195 39.1602L90.5508 36.7227L91.418 34.4258L91.7744 32.4893L91.7617 32.4541L91.7822 32.4473L91.8633 32.0117L91.9336 31.625L92.1914 31.3203L92.4141 31.0391L93.4678 31.9111ZM27.6855 37.8477V37.8711L27.6738 37.8945L26.666 40.25L25.9395 42.6992L25.9277 42.7461L25.916 42.7812L25.1074 45.0078L25.1191 47.1523L25.8809 49.2148L26.5918 50.333L27.3145 48.4385V48.415L27.3262 48.3916L28.334 46.0361L29.0605 43.5869L29.0723 43.54L29.084 43.5049L29.8926 41.2783L29.8809 39.1338L29.1191 37.0713L28.4072 35.9521L27.6855 37.8477ZM93.3281 37.8477V37.8711L93.3164 37.8945L92.3086 40.25L91.582 42.6992L91.5703 42.7461L91.5586 42.7812L90.75 45.0078L90.7617 47.1523L91.5234 49.2148L92.2344 50.333L92.957 48.4385V48.415L92.9688 48.3916L93.9766 46.0361L94.7031 43.5869L94.7148 43.54L94.7266 43.5049L95.5352 41.2783L95.5234 39.1338L94.7617 37.0713L94.0498 35.9521L93.3281 37.8477ZM62.7852 16.6992L62.5 18.1758L63.3008 19.2852V19.2969H63.3125L64.8125 21.4648L64.8711 21.5586L64.9297 21.6641L66.0664 24.0547L66.1602 24.2539L66.1953 24.4766L66.6055 27.1016L66.6406 27.3711L66.5938 27.6289L66.0664 30.2188L65.5625 32.7969L65.5391 32.9258L65.4922 33.0547L64.5312 35.5156L64.5195 35.5508L64.4961 35.5859L63.4297 38L62.6211 40.3672V40.3789L62.6094 40.3906L61.7656 42.7227L61.6875 43.1152L61.7305 43.1719L61.7891 43.3477L61.8359 43.4297L61.6074 43.5234L61.4609 44.2695L60.3057 44.0566L60.0547 44.1562L59.9697 44.2158L59.8203 45.4883H59.8086L58.2148 45.3008L58.499 43.8232L57.6992 42.7148V42.7031H57.6875L56.1875 40.5352L56.1289 40.4414L56.0703 40.3359L54.9336 37.9453L54.8398 37.7461L54.8047 37.5234L54.3945 34.8984L54.3594 34.6289L54.4062 34.3711L54.9336 31.7812L55.4375 29.2031L55.4609 29.0742L55.5078 28.9453L56.4688 26.4844L56.4805 26.4492L56.5039 26.4141L57.5703 24L58.3789 21.6328V21.6211L58.3906 21.6094L59.2344 19.2773L59.3115 18.8838L59.2695 18.8281L59.2109 18.6523L59.1641 18.5703L59.3916 18.4756L59.5391 17.7305L60.6934 17.9424L60.9453 17.8438L61.0293 17.7832L61.1797 16.5117H61.1914L62.7852 16.6992ZM61.2031 22.6406L60.3594 25.1016L60.3125 25.2188L59.2461 27.6328L58.3438 29.918L57.8867 32.3672L57.875 32.3789L57.3945 34.6992L57.7344 36.8555L58.7188 38.9297L59.5273 40.0869L59.7969 39.3594L60.6406 36.8984L60.6875 36.7812L61.7539 34.3672L62.6562 32.082L63.1133 29.6328L63.125 29.6211L63.6055 27.3008L63.2656 25.1445L62.2812 23.0703L61.4717 21.9121L61.2031 22.6406Z" fill="black"/>
</svg>
