<svg width="120" height="120" viewBox="0 0 120 120" fill="none" xmlns="http://www.w3.org/2000/svg">
<g clip-path="url(#clip0_471_544)">
<path d="M111.312 114.289L112.355 114.547L111.652 117.453L110.891 117.266L108.547 117.629L108.453 117.652H108.359L105.723 117.723H105.582L103.051 117.301L100.672 117.734L100.438 117.781L100.203 117.746L97.6367 117.406H95.2344L92.5977 117.629L92.4922 117.641L92.3984 117.629L89.75 117.477V117.465L87.2773 117.348L84.7812 117.734L84.582 117.77L84.3945 117.746L81.8516 117.453L79.2969 117.477L79.2852 117.465L76.7773 117.711L76.6133 117.723L76.4492 117.699L73.918 117.383L71.3867 117.43H71.3281L68.6914 117.371H68.6445L66.1719 117.23L63.7109 117.699L63.4766 117.746L63.2305 117.711L60.7227 117.348L58.2383 117.488H58.0156L55.5898 117.242L53.1406 117.676L52.8828 117.723L52.6133 117.676L50.1172 117.242L47.6914 117.395H47.668L47.6445 117.406L42.3711 117.57H42.2539L42.1367 117.559L39.5938 117.254L37.1328 117.418L37.0508 117.43L36.957 117.418L34.5078 117.277L32 117.699L31.7891 117.734L31.5781 117.711L29.0234 117.395L26.5391 117.324L23.9492 117.512L23.8906 117.523H23.832L21.1953 117.512H21.0781L18.5 117.301L16.0508 117.395L16.0625 117.406L13.4258 117.664L13.2734 117.676L13.1211 117.664L10.625 117.395L8.16406 117.5H8V114.5H8.03516L10.5781 114.395L10.6836 114.383L10.8008 114.395L13.2852 114.664L15.7695 114.418H15.8633L18.5 114.312L18.5938 114.301L18.6758 114.312L21.3125 114.512L21.3008 114.523H23.7383L26.375 114.336L26.4453 114.324L26.5273 114.336L29.1641 114.406H29.2344L29.293 114.418L31.7305 114.699L34.1562 114.301L34.3203 114.277L34.4844 114.289L37.0156 114.43L39.582 114.254L39.7227 114.242L39.8633 114.266L42.3711 114.57L44.9141 114.488L47.5039 114.418V114.406L50.1523 114.242L50.3281 114.23L50.5039 114.266L52.8828 114.688L55.2617 114.266L55.4609 114.23L55.6602 114.242L58.1328 114.488L60.7227 114.348L60.8633 114.336L61.0156 114.359L63.418 114.711L65.8086 114.266L65.9844 114.23L66.1602 114.242L68.7969 114.371L68.7852 114.383L71.3633 114.43L73.9766 114.383H74.082L74.1875 114.395L76.6836 114.711L79.1445 114.477H79.2734L81.9102 114.453H82.0039L82.0859 114.465L84.5469 114.746L86.9727 114.371L87.125 114.348L87.2773 114.359L89.9141 114.488H89.9258L92.4453 114.641L95 114.43L95.0586 114.418H95.1055L97.7539 114.406H97.8594L97.9648 114.418L100.367 114.746L102.77 114.312L103.027 114.266L103.285 114.301L105.816 114.723L108.137 114.664L110.738 114.266L111.031 114.219L111.312 114.289Z" fill="black"/>
<path d="M66.3984 66.7534L68.1797 68.1245L68.2852 68.2065L68.3789 68.312L70.1484 70.2925L70.2539 70.4097L70.3242 70.5386L71.543 72.6714L73.1602 74.4995L72.6562 74.9448L72.1172 75.5542L71.1211 76.6792L70.9805 76.562L70.9219 76.4917L69.2344 74.5933L69.1289 74.4761L69.0469 74.3354L67.7578 72.1089L66.2227 70.4097L65.3906 69.7534L64.1719 70.5269L62.2852 72.1089L60.3633 73.937L60.293 74.0073L60.1992 74.0659L58.0312 75.6011L57.9258 75.6831L57.7969 75.7417L55.3945 76.8433L53.2969 77.9683L51.8438 79.2808L50.5781 81.355L50.5078 81.4722L50.4141 81.5776L48.6914 83.4526L47.2852 85.562L45.8086 87.7534L44.4141 89.9565L44.3203 90.1089L44.1914 90.2378L42.4453 91.9136L41.3906 94.0815L41.3086 94.269L41.168 94.4214L39.4688 96.3433L38.1211 98.4526L38.0273 98.5815L37.9219 98.6987L36.1641 100.457L34.8867 102.601L34.7695 102.789L34.6055 102.929L32.6484 104.722L30.7383 106.503L28.9805 108.355L28.9453 108.402L28.8984 108.437L26.9883 110.148L25.3477 112.046L24.9844 112.457L24.4453 112.539L21.9258 112.937L21.75 112.972L21.5859 112.96L19.2188 112.796L17.332 113.558L15.6562 114.906L14.6602 115.691L13.7227 114.847L13.7109 114.835L14.707 113.722V113.71L13.7812 112.562L15.6328 111.097L15.7969 110.957L15.9961 110.875L18.3984 109.89L18.7266 109.761L19.0664 109.785L21.5859 109.937L23.4375 109.656L24.7852 108.121L24.8438 108.05L24.9141 107.992L26.8945 106.21L28.6289 104.382L28.6523 104.347L28.6875 104.324L30.6094 102.519L30.6328 102.496L32.4375 100.843L33.7031 98.7456L33.7969 98.5933L33.9258 98.4644L35.6953 96.6597L37.0312 94.5972L37.0898 94.5034L37.1719 94.4214L38.7773 92.5933L39.8789 90.3667L39.9961 90.1206L40.1836 89.9448L41.9648 88.2104L43.3008 86.1245L43.3125 86.1011L43.3242 86.0894L44.7891 83.8862L46.2656 81.6948L46.3242 81.6011L46.4062 81.519L48.0703 79.6909L49.4062 77.5347L49.5234 77.3472L49.6758 77.2065L51.3984 75.6362L51.5391 75.519L51.7031 75.4253L54.0586 74.1597L54.0938 74.1362L54.1406 74.1128L56.4375 73.0581L58.3945 71.6519L60.2227 69.9292L60.2578 69.894L60.293 69.8706L62.3203 68.1714L62.4844 68.0542L64.6875 66.6714L65.5664 66.1089L66.3984 66.7534Z" fill="black"/>
<path d="M32.9756 78.4121L33.0576 78.6348L33.0459 78.8809L32.999 81.5293V81.623L32.7764 84.2012L32.7412 84.7402L32.3662 85.1152L30.6201 86.9316L29.1201 88.8652L28.1475 90.9277L27.4795 93.377L27.4561 93.4473L26.624 95.9668L26.5537 96.1895L26.4014 96.3887L24.8428 98.4863L24.7607 98.5918L24.6553 98.6855L22.7217 100.49L22.6396 100.561L22.5459 100.631L21.3623 101.428L21.6318 103.127L21.6904 103.49L21.5732 103.83L20.7646 106.232L20.3896 108.471L20.8584 110.768L20.9287 111.143L20.8115 111.506L20.7295 111.764L19.2998 111.318L18.8311 111.166L17.917 111.354L17.4014 108.787L17.3428 108.518L17.3896 108.248L17.8232 105.646L17.8467 105.529L17.8818 105.412L18.6201 103.221L18.2568 100.959L18.1162 100.021L18.9014 99.4824L20.7646 98.2051L22.5225 96.5645L23.8467 94.7832L24.6084 92.5098L25.2881 90.0371L25.3232 89.9199L25.3818 89.8027L26.5068 87.4121L26.5771 87.2598L26.6826 87.1309L28.2881 85.0566L28.3818 84.9395L29.8232 83.416L29.999 81.4824L30.0342 79.0566L29.3779 76.9355L29.2607 76.5488L29.3428 76.1621L29.3662 76.0566L30.8311 76.3848L30.9834 76.4199L32.2373 76.0332L32.9756 78.4121Z" fill="black"/>
<path d="M84.6621 54.1987L87.3105 54.4331L87.9902 54.4917L88.3887 55.0425L89.8301 57.0229L90.1113 57.3979L90.123 57.8667L90.1816 60.4448L90.3926 62.2144L91.9512 63.0815L92.5723 63.4331L92.6895 64.1362L93.0996 66.562L93.1699 66.9253L93.0527 67.2769L92.2793 69.644L92.0449 72.1401L92.0332 72.2456L92.0098 72.3511L91.4121 74.7534L91.459 77.2144V77.4136L90.9785 79.3354L92.3145 80.437L92.9121 80.9292L92.8535 81.7026L92.6426 84.269V84.3511L92.291 86.9644L92.2793 87.0698L92.2559 87.1636L91.5996 89.5425L91.459 92.0737L91.3887 94.4878L91.9395 96.9253L91.998 97.1362L91.9746 97.3589L91.7871 99.9253L91.8926 102.035L93.1113 103.746L94.8809 105.644L94.8926 105.656L94.9043 105.679L96.6035 107.613L98.4199 109.148L100.576 110.695L100.693 110.777L100.787 110.882L102.521 112.722L104.443 114.234L104.49 114.257L104.525 114.292L104.596 114.351L102.604 116.601L102.533 116.531H102.521L100.6 115.031L100.506 114.96L100.436 114.878L98.7012 113.05L96.6738 111.585L96.6152 111.55L96.5801 111.515L94.5527 109.804L94.4707 109.734L94.3887 109.652L92.6777 107.671V107.683L90.8848 105.761L90.8145 105.691L90.7559 105.609L89.209 103.441L88.9512 103.089L88.9395 102.644L88.7988 99.9839L88.7871 99.8901L88.7988 99.7964L88.9629 97.3472L88.4355 94.9683L88.3887 94.7925V94.605L88.459 91.9448V91.8979L88.6113 89.2612L88.623 89.0972L88.6582 88.9448L89.3379 86.437L89.6543 84.0347L89.7832 82.2417L88.3535 81.0464L87.627 80.4487L87.8496 79.5347L88.4473 77.0854L88.4121 74.5894V74.3901L88.459 74.2026L89.0684 71.7065L89.3145 69.2104L89.3262 69.0464L89.3848 68.894L90.0762 66.6909L89.8535 65.3433L88.2598 64.4526L87.5918 64.0776L87.498 63.3159L87.2051 60.7026L87.1934 60.644V60.5737L87.1348 58.4175L86.3613 57.3511L84.6387 57.1987L82.5996 57.7026L80.7246 58.8745L79.1309 60.7026L78.9082 60.9604L78.5918 61.0894L77.8066 61.4292L76.6113 58.687L77.0918 58.4761L78.627 56.73L78.7676 56.5659L78.9551 56.4487L81.2168 55.0308L81.416 54.9019L81.6504 54.8433L84.1699 54.2339L84.416 54.1753L84.6621 54.1987Z" fill="black"/>
<path d="M78.0146 58.7598L78.1787 58.9121L78.2959 59.1113L79.5967 61.3848L79.6436 61.4551L79.667 61.5254L80.7451 63.9277L80.8154 64.0684L80.8389 64.209L81.4248 66.7988L81.46 66.9629V67.1152L81.4834 69.7754L81.5186 72.4004L81.5771 75.0488V75.166L81.5537 75.2832L81.1904 77.9082L81.1787 78.0254L81.1436 78.1309L80.4404 80.5098L80.2646 83.0176L80.2529 83.2285L80.1709 83.4395L79.2686 85.9238L79.2568 85.9121L78.4834 88.3965L78.3896 88.6777L78.2021 88.9004L77.5928 89.627L76.4443 88.6777L75.2842 87.7168L75.7061 87.2012L76.4209 84.9512L76.4326 84.9277L76.4443 84.8926L77.2881 82.5723L77.4521 80.1465L77.4639 79.9824L77.5107 79.8184L78.2373 77.3691L78.5654 74.9668L78.5186 72.459V72.4473L78.4951 69.7988L78.46 67.3145L77.9561 65.0293L76.9717 62.8262L75.7998 60.7988L74.1123 59.2402L73.9014 59.0293L73.7725 58.7598L73.7373 58.666L75.0967 58.0449L75.3193 57.9395L76.1631 57.0371L78.0146 58.7598Z" fill="black"/>
<path d="M64.2588 15.0483L66.3916 16.5015L66.7666 16.7593L66.9307 17.1694L67.9268 19.5952H67.915L68.9111 21.8921L69.0166 22.1265L69.04 22.3843L69.2275 24.9038L69.2393 25.1147L69.1924 25.3257L68.665 27.8804L68.4541 28.9468L67.3643 29.064L64.7393 29.3452L64.6689 29.3569H64.5986L62.0205 29.3804L61.9971 27.9976L61.9385 27.9624L60.7314 27.0835L60.79 27.0015L61.2354 26.3921H61.9854L64.4229 26.3569L65.958 26.1812L66.2041 24.939L66.0518 22.8179L65.1611 20.7554L65.1377 20.7319L64.3174 18.7046L62.9932 17.8022L61.2939 17.9194L59.5479 18.6226L58.6572 20.3452L58.165 22.2671L58.7158 24.2827L59.5596 26.7905L59.5713 26.814L60.3564 29.3101L60.4385 29.5444L60.4268 29.7905L60.3799 32.4272L60.3682 32.7788L60.2041 33.0952L58.9619 35.4507L58.6572 36.0366L58.0127 36.2007L55.7393 36.7983L53.9932 38.3218L53.9463 38.3569L53.9111 38.3804L52.1416 39.7046L51.3096 41.5679L51.0166 43.6187L51.7549 45.9272L52.0361 46.8179L51.3682 47.4624L50.208 48.5757L49.1533 49.5835L48.1104 48.564L48.0283 48.4819L49.0713 47.4038V47.3921L48.1221 46.4077L48.6143 45.9272L48.0635 44.1929L47.958 43.8647L48.0049 43.5366L48.3799 40.8999L48.415 40.689L48.4971 40.5015L49.5518 38.146L49.7158 37.7944L50.0205 37.5601L52.0244 36.0483L54.0518 34.3022L54.3096 34.0796L54.6494 33.9858L56.6182 33.4702L57.3799 31.9937L57.415 29.9663L56.7236 27.7515L55.8682 25.2437L55.8564 25.2085L55.8447 25.1616L55.1768 22.689L55.0713 22.3022L55.165 21.9272L55.7979 19.4312L55.8447 19.2671L55.9268 19.1147L57.1338 16.7593L57.3916 16.2671L57.9072 16.0562L60.3916 15.0601L60.6143 14.9663L60.8486 14.9429L63.3213 14.7905L63.8369 14.7554L64.2588 15.0483Z" fill="black"/>
<path d="M46.0059 36.0117V39.3633L45.4434 39.8203L44.0605 40.9219L43.9551 42.4453L44.6699 43.4883L46.6973 44.2617L46.8496 44.3203L46.9902 44.4141L49.1816 45.8789L49.3457 45.9844L49.4629 46.125L51.1738 48.0352L51.6074 48.5156L51.5605 49.1602L51.3379 51.8086L51.291 52.3242L50.9512 52.6992L49.5098 54.2578L49.4746 56.3672V56.5664L49.416 56.7422L48.7012 59.2031L48.1621 61.8047L48.1504 61.8164V61.8398L47.5527 64.3711V64.3945L46.9434 66.7031L47.0488 69.0938L47.1543 71.7539V71.8242L47.1426 74.332V74.6602L47.002 74.9531L45.9473 77.2266L45.9355 77.25L45.9238 77.2852L44.7051 79.6172L44.6934 79.6055L43.627 81.9492L43.5215 82.1602L43.3691 82.3359L41.6582 84.1875L40.1934 86.4375L40.0059 86.707L39.7246 86.8828L37.9902 87.9492L36.748 89.8945V89.9062L36.7363 89.918L35.2715 92.1211L35.2012 92.2266L35.1074 92.3203L33.373 94.1367L32.1191 96.2578L32.084 96.3164L32.0605 96.3516L30.5371 98.5195L30.4785 98.5898L30.4082 98.6719L28.7207 100.477L27.5723 102.656L27.5137 102.785L27.4199 102.902L25.7559 104.953L24.2676 106.805L23.6699 108.668L24.0332 110.648L24.2441 111.809L23.166 112.289L23.0723 112.324L22.4746 110.953L22.4629 110.93L21.0801 111.188L20.6582 108.844L20.5879 108.48L20.7051 108.117L21.502 105.609L21.584 105.352L21.7598 105.129L23.4121 103.066H23.4238L24.9707 101.156L26.1777 98.8945L26.2715 98.7188L26.4004 98.5781L28.1113 96.7266L29.5996 94.6289L30.9121 92.4492L30.9941 92.3086L31.0996 92.1914L32.8574 90.3281L34.2402 88.2539L35.6465 86.0508L35.834 85.7578L36.127 85.582L37.8613 84.4922L39.209 82.4648L39.2793 82.3594L39.3613 82.2773L40.9902 80.4727L42.0098 78.293L42.0215 78.2578L42.0449 78.2227L43.2637 75.8906L44.1426 73.9805L44.1543 71.8711L44.0488 69.2109L43.9434 66.6094V66.3867L43.9902 66.1758L44.6348 63.6797L45.2324 61.1484L45.7715 58.582L45.7949 58.4883L46.4746 56.1094L46.5332 53.6367L46.5566 53.0742L46.9316 52.6641L48.3848 51.0469L48.5137 49.5586L47.3652 48.2695L45.4668 47.0039L43.1699 46.125L42.7363 45.9609L42.4668 45.5742L41.2012 43.7227L40.9082 43.2891L40.9434 42.7734L41.1074 40.0898L41.1543 39.4336L41.6699 39.0117L43.0059 37.9219V36.082L44.5059 36L45.9941 35.918L46.0059 36.0117Z" fill="black"/>
<path d="M88.502 16.4961L88.6895 16.5781L88.8652 16.6953L90.8809 18.1953L93.1543 19.3438L93.3652 19.4492L93.541 19.6367L95.4043 21.5352L95.5566 21.6875L95.6621 21.8867L96.7051 23.8672L97.1621 24.7344L96.5527 25.4961L94.959 27.5234L94.8652 27.6406L94.7598 27.7344L92.7559 29.457L92.6855 29.5273L92.5918 29.5742L90.3887 31.0273L88.3613 32.5508L86.2637 34.1562L86.123 34.2734L85.959 34.3438L83.5332 35.4102L83.4863 35.4336L83.4395 35.4453L81.0723 36.3008L80.7441 35.4102L80.4746 34.9414L79.7363 33.6289L79.8184 33.582L79.9355 33.5234L80.0527 33.4766L82.3379 32.6445L84.5762 31.6602L86.5449 30.1602L86.5566 30.1484L88.666 28.5664L88.7012 28.543L88.748 28.5078L90.8809 27.1016L92.7207 25.5195L93.5879 24.3945L93.0957 23.4688L91.5488 21.8867L89.4043 20.8086L89.2988 20.75L89.1934 20.6797L87.2363 19.2266L85.3379 18.5117L83.9902 17.9961L84.4473 16.6367L84.5176 16.4023L85.9473 16.8711L86.4043 15.7109L88.502 16.4961Z" fill="black"/>
<path d="M34.5762 43.7393L35.0215 44.126L35.7832 44.6064L34.4238 46.7744L34.3301 46.915L34.2129 47.0439L32.3262 48.9072L30.8496 50.8525L30.8145 50.9111L30.7559 50.9697L28.9629 52.9033L28.8809 52.9854L28.7988 53.0439L26.748 54.7197L24.9316 56.3838L23.1973 58.3174L23.127 58.3877L21.2285 60.2158L21.2051 60.2393L21.1816 60.251L19.3418 61.8564L18.0879 63.9658L17.9707 64.1533L17.8066 64.2939L15.9434 65.958L14.6426 67.4111L14.7715 68.9932L13.3535 69.0986L13.3418 69.1455L12.7441 70.5166L12.6738 70.4814L11.8535 70.1182L11.7832 69.2275L11.6074 67.0127L11.5605 66.3682L11.9941 65.8877L13.7168 63.9658L13.8223 63.8604L15.627 62.2197L16.9043 60.1104L17.0215 59.9229L17.1973 59.7705L19.1895 58.001L21.0527 56.2197L22.752 54.3447L22.7988 54.2861L22.8457 54.251L24.7793 52.4463L24.8145 52.4111L24.8613 52.3877L26.8652 50.7471L28.5645 48.9189L30.0762 46.9268L30.1348 46.8447L30.2168 46.7744L31.9512 45.04L33.2402 43.0127L33.2988 42.9189L33.3809 42.8252L33.4395 42.7549L34.5762 43.7393Z" fill="black"/>
<path d="M35.8154 48.5083L35.9678 48.6489L37.1631 49.0942L36.3076 51.4497L36.167 51.8481L35.8389 52.1177L33.8584 53.6763L33.8701 53.688L31.9482 55.5161L31.9248 55.5278L31.9014 55.5513L29.9443 57.2856L29.9209 57.3091L29.8975 57.3208L27.8584 59.0083L25.9482 60.731L24.1201 62.5474L24.0498 62.606L23.9678 62.6646L21.8701 64.27L21.8115 64.3286L21.7412 64.3638L19.6318 65.6294L18.0498 67.4341L16.5615 69.4263L16.3623 69.6958L16.0693 69.8481L14.0771 70.9028L13.585 71.4419L11.3818 69.4028L12.0498 68.688L12.2256 68.5005L12.4482 68.3833L14.3584 67.3521L15.7295 65.5356L15.7646 65.4771L15.8115 65.4302L17.5693 63.4614L17.7217 63.2856L17.9092 63.1802L20.1475 61.8091L22.0928 60.3208L23.8857 58.5513L23.9209 58.5278L23.9443 58.5044L25.9014 56.7349L25.9482 56.688L27.9873 55.0122L29.874 53.3364L31.7959 51.52L31.8896 51.4263L33.624 50.0317L34.3389 48.0747L34.4443 47.7817L34.6553 47.5474L34.7256 47.4771L35.8154 48.5083Z" fill="black"/>
<path d="M80.3135 2.54541L82.2471 4.27979L82.6689 4.6665L82.7393 5.25244L83.0088 7.88916V8.07666L82.9619 10.5962L81.5908 10.561L81.5322 10.6313L80.4541 11.686L80.3838 11.604L79.9502 11.1587L79.9619 10.5376L80.0088 8.0415L79.7979 6.11963L78.79 5.21729L77.4307 5.34619L76.3174 6.23682L76.2119 7.60791L77.4307 9.27197L77.7354 9.69385L77.7119 10.2212L77.6299 12.5649L77.5947 13.186L77.1377 13.6079L75.7197 14.8853L75.9189 16.7954L75.9307 16.8423V16.8892L75.9775 18.1431L76.5752 18.1782L79.1182 18.1196L79.4814 18.1079L79.8096 18.2603L82.1299 19.3618L84.5088 20.4048L84.5322 20.4165L84.8486 20.5571L84.2158 21.9165L83.5947 23.2876L83.2783 23.1353V23.1235L80.9346 22.1157L80.8877 22.0923L78.8604 21.1196L76.5635 21.1899H76.4111L74.4307 21.0493L73.0947 20.9556L73.0361 19.6079L72.9307 17.0181L72.9424 17.0063L72.6611 14.4517L72.5908 13.7017L73.1416 13.186L74.6533 11.8032L74.7002 10.6313L73.4697 8.94385L73.1416 8.49854L73.1885 7.94775L73.376 5.36963L73.4346 4.7251L73.9385 4.31494L75.9072 2.73291L76.2588 2.43994L76.7041 2.40479L79.165 2.17041L79.8213 2.11182L80.3135 2.54541Z" fill="black"/>
<path d="M86.6299 21.813L89.0791 22.188L88.8682 23.5239L88.9268 23.606L89.8174 24.813L89.7354 24.8716L89.2314 25.2466L88.6104 25.1528L86.4541 24.813L85.0596 25.1763L83.665 26.0786L83.3369 27.9771V27.9888L83.3252 28.0122L82.8096 30.6021L82.54 32.9458L82.8682 35.3599L82.915 35.7466L82.7627 36.1099L81.7783 38.5825L81.7314 38.688L81.6729 38.7935L80.3721 40.9146L79.4932 43.3169L79.4346 43.4692L79.3525 43.5981L78.04 45.6489L77.29 47.9458L76.8096 50.1724L76.9619 52.1294L78.251 53.9224L78.7197 54.5786L78.4268 55.3403L77.4658 57.813L77.2432 58.3989L76.6572 58.645L74.501 59.5474L73.0479 61.3521L72.9658 61.4458L72.8721 61.5278L71.0205 63.1685L69.4854 65.1724L69.415 65.2661L69.333 65.3481L67.7275 66.8481L67.5166 67.9028L67.2588 69.145L65.9814 69.0981L65.7236 69.0864L65.7822 67.5864V67.5396L64.5752 67.2817L64.8916 65.7935L64.9854 65.3364L65.3252 65.0083L67.1885 63.2271L68.7119 61.2583L68.7939 61.1411L68.9111 61.0474L70.7979 59.3481L72.4033 57.3794L72.6377 57.0864L72.9893 56.9458L74.8994 56.1372L75.333 55.0005L74.2783 53.5474L74.0322 53.2075L74.0088 52.7856L73.8096 50.1606L73.7979 49.938L73.8447 49.7271L74.3955 47.1606L74.4424 47.02L75.2393 44.5474L75.2979 44.3716L75.4033 44.2075L76.7275 42.1216L77.6064 39.7661L77.6533 39.6372L77.7236 39.5083L79.001 37.3989L79.833 35.3481L79.54 33.1216L79.5166 32.9458L79.54 32.7583L79.8447 30.1333L79.8682 30.0161L80.3838 27.4146L80.8291 24.9185L80.9463 24.2739L81.4854 23.9224L83.6299 22.5396L83.8408 22.3989L84.0752 22.3403L86.0205 21.8364L86.3252 21.7661L86.6299 21.813Z" fill="black"/>
<path d="M96.3242 2.75L96.3945 2.79688L97.7422 2.57422L98.1641 5.07031L98.3398 6.06641L97.4727 6.59375L95.4336 7.84766L93.9805 9.76953L93.9219 9.82812L93.875 9.88672L92.0352 11.8086L91.9297 11.9258L91.7891 12.0195L89.6211 13.4727L89.6328 13.4844L87.7812 14.8086L86.9492 16.4961L86.5039 18.8867V18.9102L86.0469 21.1367L86.4922 22.4023L86.8438 23.4453L85.9531 24.1016L85.7773 24.2305L84.8867 23.0117L84.8398 22.9531L83.6445 23.375L83.082 21.7109L82.9531 21.3242L83.0352 20.9258L83.5625 18.3125L84.043 15.7461L84.0781 15.5469L84.1719 15.3594L85.2617 13.1445L85.4258 12.8047L85.7305 12.5938L87.875 11.0469L87.8984 11.0352L87.9102 11.0234L89.9961 9.59375L91.6133 7.90625L93.207 5.83203L93.3828 5.60938L93.6055 5.46875L95.0352 4.57812L94.7773 3.07812L94.6719 2.44531L95.0586 1.92969L95.1172 1.84766L96.3242 2.75Z" fill="black"/>
<path d="M40.8311 30.8984L41.2881 30.957L41.6396 31.2617L43.5381 32.9258L42.6123 33.957L42.6357 34.0156L43.0928 35.4453L42.999 35.4805L42.1904 35.7383L41.5576 35.1758L39.999 33.8164L38.5225 33.6289L37.0928 34.8125L35.6631 36.7578L35.6162 36.8164L35.5693 36.8633L33.7998 38.832L33.7295 38.9141L33.6475 38.9727L31.7021 40.6016L31.7139 40.6133L30.3428 41.9258L29.2529 42.9688L28.21 41.8555L28.0928 41.7383L29.1943 40.7188V40.707L28.2686 39.7578L29.6396 38.4453L29.6748 38.4102L29.71 38.3867L31.6436 36.7344L33.249 34.9531L34.8193 32.8672L34.9248 32.7266L37.1045 30.9102L37.6084 30.4883L40.8311 30.8984Z" fill="black"/>
<path d="M99.7432 0.425781L100.06 1.01172L100.774 2.32422L100.692 2.37109L100.599 2.42969L100.493 2.46484L98.1729 3.32031V3.30859L95.876 4.16406L93.8955 5.61719L91.7861 7.17578L91.7158 7.23438L91.6455 7.26953L89.4189 8.53516L89.4307 8.54688L87.2275 10.0117L85.0947 11.5117L84.8721 11.6641L84.6025 11.7344L82.1064 12.3672L80.4424 13.0234L80.0088 11.8867L79.3643 13.0469L79.1768 12.9414L76.376 11.3945L79.3525 10.2344L81.1104 9.54297L81.2041 9.50781L81.2861 9.48438L83.5947 8.88672L85.54 7.52734L85.5518 7.51562H85.5752L87.7666 6.05078L87.8135 6.02734L87.8486 6.00391L90.0049 4.75L92.126 3.19141H92.1377L94.2822 1.63281L94.4463 1.50391L94.6338 1.43359L97.1299 0.507812V0.496094L99.4619 -0.359375L99.7432 0.425781Z" fill="black"/>
<path d="M67.6885 58.6846L68.1807 59.5166L68.9307 60.8174L68.8369 60.8643L68.7783 60.8994L68.708 60.9346L66.458 61.9424L64.2666 62.9971L62.2861 64.5439L62.2158 64.5908L60.0479 66.1025L59.8369 66.2197L57.4463 67.3682L55.1494 68.5635L55.0908 68.5986L55.0322 68.6221L52.9229 69.4775L51.2939 71.0947L51.2822 71.1064L49.4658 72.8408L47.9658 74.9268L47.5908 75.4307L46.9814 75.5361L46.1377 75.665L45.9033 74.1885L45.7744 73.333L45.5283 73.1689L45.7158 72.9229L45.6689 72.7002L45.9033 72.665L47.1221 70.9893L47.1924 70.8838L47.2861 70.79L49.1846 68.9502L51.0361 67.1455L51.2471 66.9346L51.5166 66.8291L53.8838 65.8447L56.1104 64.6846L56.1221 64.6729L56.1455 64.6611L58.4307 63.5479L60.4463 62.1768L62.5322 60.5479L62.6611 60.4541L62.8018 60.3838L65.1924 59.2236L65.2041 59.2119L65.2275 59.2002L67.4775 58.1924L67.6885 58.6846Z" fill="black"/>
<path d="M74.5283 19.8975L74.6572 20.5654L75.8643 20.542L76.6494 20.5186L77.3525 20.4248L77.7041 22.9326L77.7158 22.9912L77.7275 23.0615L77.8564 25.5225L78.5127 27.96L78.5479 28.0889L78.5596 28.2178L78.8174 30.9248L78.8877 31.7217L78.2666 32.2256L76.1807 33.9248L75.1025 34.8037L74.1416 33.7959L72.6299 32.2021L72.4424 32.0146L72.3369 31.7803L71.2705 29.3662L71.2236 29.2725L71.2002 29.167L70.4854 26.6709L70.4619 26.5771L70.4502 26.4951L70.0283 23.8701L70.0049 23.7412V23.6006L70.0752 21.0459L70.0869 20.085L70.9658 19.71L73.415 18.6318L73.5557 18.5732L73.708 18.5381L74.2119 18.4326L74.5283 19.8975ZM73.04 22.0654L73.0049 23.4951L73.3916 25.874L74.0479 28.2178L74.9736 30.3154L75.3486 30.7256L75.7471 30.3975L75.5713 28.6045L74.9268 26.1787L74.8799 26.0264V25.874L74.7393 23.3545L74.4697 21.4326L73.04 22.0654Z" fill="black"/>
<path d="M73.2578 75.3184L73.3633 75.3301L74.8281 75.6582L74.8164 75.752L74.6875 76.291L74.2539 76.6309L72.6953 77.7793L72.1328 79.5137L72.3906 81.8574V81.8809L72.6367 84.5176V84.7168L72.5195 87.3652L72.5547 88.1504L71.0664 88.209L69.5664 88.2793L69.5195 87.3652V87.2363L69.6367 84.623L69.4023 82.1855L69.1211 79.5371L69.0859 79.2207L69.1914 78.916L70 76.4199L70.1406 75.9629L70.5156 75.6816L72.4492 74.2285L73.2578 75.3184Z" fill="black"/>
<path d="M37.9873 58.0107L38.2803 58.1279L40.6592 59.1592L40.8467 59.2412L41.0107 59.3818L43.0498 61.0576L43.2725 61.2451L43.4131 61.4912L44.6084 63.624L46.2256 65.2764L45.8506 65.6396L45.2295 66.3896L44.2686 67.5381L44.1865 67.4795L44.0811 67.374L42.335 65.5928L42.1943 65.4521L42.0889 65.2764L40.9053 63.1787L39.2646 61.8193L37.3779 61.0107H35.8545L34.3545 62.2529L32.9248 64.1162L31.6123 66.1084L31.4131 66.8232L31.7646 66.8818L34.167 66.4717L34.4131 66.4248L34.6592 66.46L37.3311 66.8701L37.8701 66.9521L38.2334 67.3623L39.9912 69.3896L40.2256 69.6592L40.3076 69.999L40.8584 72.167L40.9287 72.4248L40.9053 72.6826L40.6357 75.2256L40.6475 75.2373L40.4248 77.8975L40.4014 78.0967L40.3428 78.2725L39.5225 80.5342L39.5459 82.96V83.0537L39.5342 83.1475L39.2295 85.6904L37.8818 85.5264L37.7412 85.5498L36.2529 85.7373V85.6904L36.2295 85.5146L36.2529 85.3389L36.5342 82.8896L36.5225 80.2998V80.0303L36.6045 79.7842L37.4482 77.4404L37.6475 74.9912L37.6592 74.9795V74.9678L37.8818 72.6475L37.4834 71.0889L36.3232 69.7412L34.46 69.46L32.0576 69.8936L31.7998 69.9287L31.542 69.8936L29.2803 69.5186L27.6279 69.249L28.0732 67.6318L28.7881 65.0654L28.8584 64.8428L28.9873 64.6436L30.417 62.4639L30.4873 62.3701L32.1045 60.2842L32.1982 60.1553L32.3271 60.0498L34.3545 58.374L34.7646 58.0225H35.3037L37.6709 58.0107H37.9873Z" fill="black"/>
<path d="M56.1797 50.25L57.1172 51.4102L57.0938 51.4219L55.3125 53.0391L53.6484 54.8789L52.2305 56.9766L51.9844 57.3281L51.5977 57.5039L49.1484 58.5938L48.5273 58.875L47.918 58.5938L47.2969 58.3125L47.918 56.9414L48.1641 56.3906L47.9297 55.8633L49.9805 54.9375L51.2461 53.1094L51.293 53.0273L51.3633 52.957L53.1328 50.9766L53.25 50.8594L55.1016 49.1953L55.125 49.1719L55.1602 49.1484L55.2305 49.0898L56.1797 50.25Z" fill="black"/>
<path d="M55.7871 59.0752L55.9863 59.1455L57.3809 59.6963L57.3457 59.79L57.2285 60.0947L56.9824 60.3291L55.3301 61.8643L54.2871 63.7041L54.1348 65.79L54.3809 67.1494L54.5918 68.3447L53.4668 68.8018L53.291 68.8838L52.7168 67.4893L52.6934 67.4541L51.4277 67.6885L51.1582 66.1768L51.123 65.9893L51.1348 65.79L51.334 63.1416L51.3574 62.8135L51.5215 62.5205L52.8223 60.2119L52.9277 60.0127L53.1035 59.8604L54.9199 58.1494L55.7871 59.0752Z" fill="black"/>
<path d="M29.8643 68.7739L30.6729 70.0396L30.5791 70.0981H30.5674L30.5557 70.1099L28.3877 71.4224L28.2471 71.5044L28.083 71.563L25.7979 72.3247L24.0752 73.6489L23.3018 74.7505L22.6807 75.606L21.6611 75.313L21.4736 75.2544L21.8955 73.813L21.9072 73.7427L20.8643 72.9927L21.7783 71.7271L21.9072 71.5396L22.083 71.4106L24.1807 69.7935L24.3799 69.6411L24.626 69.5591L26.9932 68.7622L28.9736 67.5669L29.0674 67.5083L29.8643 68.7739Z" fill="black"/>
<path d="M36.9189 53.1763L37.0713 53.3755L37.1533 53.6333L37.9268 56.0942L38.0088 56.3521L37.9971 56.6216L37.8916 58.9419L37.8213 60.3716H36.2979V58.8599L34.8916 58.8013L34.9854 56.7505L34.3643 54.77L33.0166 52.9888L32.8643 52.7778L32.7822 52.5317L32.7588 52.438L34.1885 51.9927L34.458 51.9106L35.4189 51.1841L36.9189 53.1763Z" fill="black"/>
<path d="M31.2168 69.0488L31.3691 69.1309L32.6582 69.0957L32.7285 71.627L32.7402 71.7324L32.4355 74.4746L32.4238 74.6504L32.3535 74.8262L31.5918 76.9238L31.3223 77.6504L30.5723 77.8496L28.1582 78.5059L28.0762 78.5293L27.9824 78.541L25.6621 78.8809L24.1152 79.1035L23.9629 77.5449L23.7637 75.6348L24.4785 75.5527L25.252 75.4707L26.752 75.2832V75.3301L26.7754 75.6816L27.4551 75.5879L29.0371 75.1543L29.4707 73.959L29.7168 71.627L29.6699 69.1777L29.6582 68.7793L29.8457 68.4277L29.8926 68.3457L31.2168 69.0488Z" fill="black"/>
<path d="M65.2266 53.5332L65.4023 53.8262L66.1172 55.1387L66.0234 55.1855L65.8359 55.3027L65.6133 55.3379L63.1406 55.8652H63.1055L60.6445 56.3105L58.6055 57.1426L57.6328 58.0684L57.832 58.9238L56.3672 59.2402L57.5625 60.1426V60.1543L55.5938 62.7441L54.9023 59.5684L54.5273 57.9043L54.3516 57.0723L56.7422 54.7754L56.9531 54.5645L57.2344 54.459L59.6719 53.4863L59.8008 53.4277L59.9531 53.4043L62.5547 52.9121V52.9238L65.0039 52.4082L65.2266 53.5332Z" fill="black"/>
<path d="M42.7012 72.3911L42.9473 72.5786L43.0996 72.8364L44.1777 74.7231L44.9629 75.2505L46.334 76.1646L45.3027 77.4419L45.2441 77.5122L44.084 76.563L43.2988 77.7466L42.2324 77.0317L41.9395 76.8325L41.7637 76.5278L40.6504 74.5825L39.0098 73.3403L38.916 73.27L38.834 73.1763L38.7637 73.106L39.8535 72.0747L40.3105 71.6411L40.8379 70.9614L42.7012 72.3911Z" fill="black"/>
<path d="M39.3457 39.3501L39.5566 39.772L39.4863 40.229L39.0996 42.7134L38.9824 43.5337L38.2324 43.8618L36.0293 44.8345L35.6191 45.022L35.1855 44.9517L32.6543 44.5415L32.4434 44.5063L32.2441 44.4126L29.8652 43.2642L29.7832 43.2173L29.7012 43.1587L27.6035 41.7876L28.3184 40.7095L28.3301 40.5337L28.4355 39.0337L28.5293 39.0454L28.9277 39.0688L29.2559 39.2798L31.2598 40.5923L33.3105 41.6001L35.209 41.9048L36.252 41.4478L36.4395 40.2407L36.1113 39.5376L37.4473 38.8813L38.7949 38.2251L39.3457 39.3501Z" fill="black"/>
<path d="M55.9678 43.3408L56.0381 43.4463L56.1084 43.5635L57.1162 45.4619L57.2217 45.6611L57.2686 45.8838L57.7256 48.3213L58.5459 50.5596L58.5928 50.7002L58.6162 50.8291L59.0264 53.3018L59.5186 54.9658L58.0889 55.376L58.792 56.7119L58.7803 56.7236L57.1631 57.5674L56.6357 55.8213L56.1436 54.1455L56.1201 54.0635L56.1084 53.9814L55.6865 51.4736L54.8779 49.3057L54.8428 49.1885L54.8193 49.0713L54.3506 46.6572L53.5303 45.0986L52.0537 43.1885L51.9248 43.0244L51.8545 42.8369L51.8076 42.7432L53.2021 42.1807L53.5186 42.0518L54.4209 41.3604L55.9678 43.3408Z" fill="black"/>
<path d="M69.0566 30.8877L69.1855 31.1807L69.7832 32.5518L69.6895 32.5869L69.502 32.6807L69.291 32.7041L67.5801 32.915L66.1973 33.4541L65.916 33.9814L65.1074 35.4111L63.748 34.4736L63.6777 34.4268L64.5332 33.1963L63.3027 32.5049L63.8535 31.5205L64.123 31.04L64.627 30.8525L66.7129 30.0439L66.877 29.9854L67.0527 29.9619L68.916 29.7275L69.0566 30.8877Z" fill="black"/>
<path d="M76.8096 32.8369L77.1494 33.458L76.9268 33.9971L78.3799 35.8721L75.5674 36.0596L75.4854 36.0713L75.3799 34.6182L74.29 35.4854L74.0205 35.1455L73.4932 34.4541L73.8213 33.6572L73.833 33.6221L73.751 33.4814L73.7158 33.1885L73.7041 33.0947L74.0791 33.0479L74.1025 32.9775L74.2432 33.0244L75.1924 32.9189L75.4268 32.8955L76.5166 32.2979L76.8096 32.8369Z" fill="black"/>
</g>
<defs>
<clipPath id="clip0_471_544">
<rect width="120" height="120" fill="white"/>
</clipPath>
</defs>
</svg>
