<svg width="120" height="120" viewBox="0 0 120 120" fill="none" xmlns="http://www.w3.org/2000/svg">
<path d="M63.5557 29.9922L64.7393 30.2266L65.0322 30.2734L64.7158 32.793L64.7041 32.9219L64.6689 33.0508L63.9189 35.5L63.6377 37.9609L63.6143 38.0781L63.0986 40.668L63.0752 40.7734L63.04 40.8789L62.1729 43.375L61.458 45.8359L61.4463 45.8242L60.8721 48.332L60.8486 48.4258L60.8252 48.5078L59.9111 50.9922L59.8877 51.0742L59.8525 51.1445L58.751 53.3359L58.2588 55.7852L58.2236 55.9609L58.1416 56.125L57.0635 58.3867L56.1611 60.8711L56.1025 61.0234L56.0205 61.1641L54.6025 63.4141L53.501 65.6406L53.4424 65.7578L53.3721 65.8633L51.9189 67.832L51.1338 69.5781V71.2656H49.8447L50.1729 72.6836L49.9736 72.7305L48.1455 73.1523L48.1338 71.2773V69.2852L48.1221 68.957L48.2627 68.6641L49.2354 66.4844L49.3057 66.332L49.3994 66.2031L50.8877 64.1641L51.9893 61.9492L52.0127 61.8789L52.0596 61.8203L53.3955 59.6875L54.2393 57.3555L54.2627 57.2969L54.2979 57.2266L55.3408 55L55.8564 52.5625L55.8916 52.3633L55.9854 52.1875L57.1572 49.8086L57.9775 47.5117L58.5518 45.0742L58.5635 45.0391L58.5752 44.9922L59.3135 42.4609L59.3369 42.3906L60.1689 39.9883L60.6729 37.4922L60.9658 34.9727L60.9775 34.8438L61.0244 34.7148L61.751 32.3125L62.0557 29.9102V29.8398L62.0674 29.7812L62.0908 29.6875L63.5557 29.9922Z" fill="black"/>
<path d="M59.9297 68.3682L62.543 68.6143H62.5898L62.6367 68.626L64.9688 68.9893L67.6289 69.0361H67.875L68.1094 69.1299L70.4414 69.9736H70.4648L70.5 69.9854L72.9375 70.9814L73.0547 71.0283L73.1602 71.0869L75.2578 72.3877L77.6719 73.3369L78.5156 73.6768L78.6094 74.5791L78.832 76.7939L79.4531 79.2549L80.2617 81.0361L81.8906 81.9033L84.3867 82.5479L84.4453 82.5596L84.5039 82.583L86.543 83.2861L87.1406 83.4854L87.4102 84.0596L88.4766 86.3096L89.7891 88.6182L89.8945 88.8174L89.9531 89.0283L90.5391 91.6182L90.5508 91.6533L90.5625 91.7002L91.0195 94.2783L91.4883 96.8799L91.5 96.9854V97.1025L91.582 99.7393V99.8799L91.5586 100.021L91.1367 102.54L91.1484 102.552L90.8438 105.165V105.224L90.457 107.849L90.4219 108.048L90.3398 108.235L89.25 110.661L89.168 110.825L89.0508 110.978L87.5508 112.888L86.5898 112.138L86.332 112.056L84.9141 111.587L84.9492 111.493L85.0312 111.247L85.1953 111.036L86.5781 109.243L87.5039 107.192L87.8672 104.825L88.1719 102.212V102.142L88.5703 99.6338L88.5117 97.29L88.0664 94.8057L87.6211 92.2979L87.0586 89.8721L85.8633 87.7979L85.8398 87.751L85.8164 87.6924L84.9727 85.9111L83.5664 85.4307L81 84.7744L80.8242 84.7275L80.6602 84.6455L78.3984 83.4502L77.9414 83.2041L77.7305 82.7354L76.6523 80.333L76.5938 80.2041L76.5586 80.0752L75.9023 77.4385L75.8789 77.333L75.8672 77.2275L75.7148 75.7861L74.0742 75.1533L73.9453 75.1064L73.8281 75.0361L71.6953 73.7119L69.4219 72.7861L67.3242 72.0244L64.8633 71.9775H64.7695L64.6758 71.9658L62.2734 71.6025L59.7539 71.3564L57.2695 71.5439H57.1406L54.7148 71.5088L52.4062 72.2354L52.3828 72.2471L52.3477 72.2588L49.8984 72.9268L47.6133 73.7002L45.6211 75.1416L45.5508 75.1885L45.4805 75.2236L43.1953 76.5244L41.2383 77.8721L39.5859 79.7002L38.0508 81.6455L37.9688 81.7393L37.8867 81.8096L36.1758 83.3799L35.3438 85.583L35.2734 85.7822L35.1445 85.9463L33.6797 87.9033L32.8594 90.0596L32.5664 92.5205L32.5547 92.5791L32.543 92.626L32.0391 95.1924V95.2393L32.0273 95.2744L31.418 97.6299L31.5117 100.021L31.6992 102.563L32.0273 105.048L32.6016 107.509L33.3398 109.853L34.6875 111.903L34.7578 112.009L34.8047 112.114L35.8711 114.54L35.9531 114.728L35.9883 114.938L36.082 115.642L34.5938 115.841L33.1172 116.052L33.0352 115.548L32.1211 113.474L30.7148 111.306L30.6094 111.142L30.5508 110.942L29.7422 108.411L29.7188 108.364L29.707 108.306L29.1094 105.728L29.0859 105.587L28.7344 102.962L28.7227 102.927V102.88L28.5234 100.255V100.22L28.5117 100.196L28.418 97.5479L28.4062 97.3252L28.4648 97.1143L29.0977 94.6182L29.6016 92.0518L29.918 89.5088L29.9414 89.333L30 89.1689L30.9375 86.6729L31.0078 86.4736L31.1367 86.3096L32.6133 84.3174L33.5039 81.9854L33.6328 81.6572L33.8906 81.4229L35.7656 79.6885L37.3125 77.7549L37.3359 77.708L37.3711 77.6729L39.1641 75.7158L39.2812 75.5869L39.4219 75.4932L41.6016 73.9932L41.6484 73.9463L41.707 73.9229L43.9102 72.6572L46.0312 71.1455L46.207 71.0166L46.418 70.9463L48.9375 70.0791L48.9727 70.0674L49.0195 70.0557L51.5039 69.3877L54.0469 68.5791L54.2695 68.5088H54.5156L57.0703 68.5439L59.6836 68.3682L59.8125 68.3564L59.9297 68.3682Z" fill="black"/>
<path d="M43.1631 79.9346L44.0889 81.6572L44.2529 81.9619L44.2646 82.29L44.4053 84.9502L44.417 85.0205L44.4053 85.1025L44.2881 87.2822L45.3428 89.0283L46.8193 90.6572L48.999 91.583L49.1514 91.6416L49.292 91.7471L51.2725 93.165L53.499 93.8682L55.6787 94.3721L57.9521 94.0088L58.0576 93.9854H58.1631L60.7881 93.9268L60.8701 93.915L60.9639 93.9268L63.5303 94.1729L63.9053 94.208L64.2217 94.4307L66.3545 95.8721L66.3662 95.8838L66.3896 95.8955L68.5459 97.4424L68.6396 97.5127L68.7334 97.6064L70.4795 99.3643L72.5537 100.771L72.6826 100.864L72.7881 100.97L74.5576 102.786L75.2021 103.454L74.9092 104.321L74.0654 106.771L73.9014 107.251L73.4678 107.532L71.4053 108.88L69.5771 110.485L68.1357 112.501L68.0889 112.571L68.0186 112.642L66.4248 114.353L65.6748 116.438L65.5811 116.696L65.4053 116.896L65.335 116.978L64.1982 116.005L63.9873 115.817L62.8506 115.407L63.7178 113.052L63.8232 112.782L64.0225 112.56L65.7686 110.638L67.2451 108.599L67.3389 108.458L67.4678 108.353L69.4717 106.583L69.5537 106.513L69.6475 106.454L71.3936 105.306L71.7568 104.216L70.7139 103.149L68.6865 101.778L68.5693 101.696L68.4639 101.591L66.6709 99.7861L64.667 98.3447L62.8389 97.1143L60.8115 96.9268L58.3037 96.9736L55.8545 97.3838L55.5615 97.4424L55.2686 97.3721L52.7959 96.7861L52.6787 96.7627L50.1357 95.9541L49.9131 95.8838L49.7256 95.7432L47.6748 94.2783L45.3662 93.3174L45.0498 93.1885L44.8271 92.9307L43.0342 90.9502L42.9404 90.8447L42.8584 90.7158L41.4873 88.4424L41.2529 88.0439L41.2764 87.5869L41.4053 85.0205L41.2881 82.7939L41.1475 82.5479L40.0459 83.0166L39.8232 83.1104L39.5889 83.1338L37.0225 83.3447L36.249 83.4033L35.7451 82.8174L35.4287 82.4424L36.5771 81.4697L36.835 81.2354L36.7764 80.3564L39.1084 80.1572L41.2646 79.2549L42.5186 78.7275L43.1631 79.9346Z" fill="black"/>
<path d="M68.6348 40.6338H69.1973L70.6973 40.6455V40.8799L70.6621 41.0205L70.2051 43.3408L70.0762 45.6846L70.4746 48.1807L70.4863 48.2275V48.2744L70.7441 50.8994L70.7559 50.9814V51.0752L70.709 53.7119L70.8496 56.1143L71.2363 58.8213V58.9033L71.3066 61.54L71.3184 61.6104L71.3066 61.6807L71.166 64.1064L71.7168 66.5088L71.7637 66.6846L71.752 66.8604L71.7402 69.5088V69.5908L71.6348 71.2432L71.5176 73.3174L69.5957 72.5557L69.3613 72.4619L69.877 71.1377L68.6465 71.0674L68.752 69.4971H68.7402V66.9775L68.1895 64.5869L68.1426 64.376L68.1543 64.1533L68.3184 61.5049L68.248 59.0908L67.8848 56.5361L67.873 56.4775V56.4189L67.709 53.7822V53.665L67.7559 51.1924L67.5215 48.6377L67.0996 46.0244L67.0762 45.8721L67.0879 45.7197L67.2285 43.0596V42.9541L67.252 42.8486L67.7207 40.4463L68.6348 40.6338Z" fill="black"/>
<path d="M87.4927 88.2671L87.6099 88.4077L88.5474 89.5796L88.4653 89.6382L88.1606 89.8843L87.7739 89.9546L85.2778 90.3647H85.2544L83.2153 90.6694L82.0435 92.1343L81.1528 94.1147L80.9302 96.0601L81.5747 97.6187L83.2739 98.5327L85.6997 99.4937L86.2974 99.7397L86.5435 100.337L87.481 102.705L87.5396 102.845L87.563 103.009L88.0083 105.623L88.0552 105.869L88.0083 106.126L87.5981 108.599L87.563 111.037V111.13L87.5513 111.212L87.2114 113.732V113.744L86.895 116.052L86.731 117.201L85.5708 117.33H85.5591L85.395 115.841L85.3833 115.83L83.9185 115.642L84.2349 113.333L84.563 110.884L84.6099 108.47V108.365L84.6216 108.259L85.0083 105.88L84.6333 103.654L83.9888 102.048L82.1255 101.322L82.0317 101.287L81.9614 101.24L79.688 100.009L79.231 99.7515L79.02 99.271L78.0122 96.8569L77.8599 96.4937L77.9067 96.0952L78.2114 93.5288L78.2349 93.3062L78.3286 93.0952L79.3833 90.7397L79.4653 90.564L79.5825 90.4116L81.2466 88.3374L81.6216 87.8921L82.1958 87.7983L84.7856 87.4116L87.2817 86.9897L87.4927 88.2671Z" fill="black"/>
<path d="M69.9512 72.2471L69.8926 72.3291L68.6035 74.4033L68.2285 75.0244L67.502 75.1064L65.1582 75.376L64.5957 75.6572L66.0371 75.9971L66.5645 76.126L66.8926 76.5596L68.123 78.1768L68.8496 79.1377L68.0645 80.0518L66.3535 82.0557L66.0957 82.3486L65.7441 82.4893L63.3418 83.3799L61.3496 84.3174L60.1191 86.2041L58.9473 88.3721L58.9238 88.3955L57.916 90.165L56.5918 92.4736L55.3027 90.1416L55.1855 89.9189L56.3691 89.2627L55.3145 88.665L56.3223 86.9072H56.334L57.541 84.6572L57.5762 84.5986L57.6113 84.5518L59.0762 82.3252L59.3105 81.9736L59.6855 81.7979L62.0996 80.6494L62.2168 80.6025L64.3145 79.8057L64.9941 79.0205L64.8301 78.7979L62.8379 78.3408L62.1113 78.165L61.8066 77.4971L61.0098 75.7393L60.4238 74.4385L61.7012 73.7822L64.0215 72.5869L64.2559 72.4697L64.5371 72.4346L66.4238 72.2119L67.3848 70.6768L67.4082 70.6299L67.4316 70.5947L67.4902 70.5127L69.9512 72.2471Z" fill="black"/>
<path d="M53.6738 26.4824L53.6621 26.5762V26.623L53.6504 26.6699L53.3105 29.1309L53.2988 29.1191L53.0762 31.5566L53.1816 34.0879V34.1465L53.1699 34.2051L53.0527 36.8535V36.877L52.8887 39.4902V39.5488L52.877 39.5957L52.5488 41.9277L52.5957 44.541V44.7168L52.3379 47.3535L52.3145 47.4707L51.8691 49.8613L52.1152 52.334L52.1387 52.5215L52.1035 52.709L51.7285 55.2168L51.7871 57.7129V57.8652L51.7637 58.0176L51.2832 60.5371L51.1895 63.0566L51.1191 65.3418L52.0566 67.5918L51.0605 68.2832L50.8496 68.4355L49.9941 67.2051L49.959 67.1465L48.8223 67.627L48.2363 66.209L48.1074 65.9043L48.1191 65.5879L48.1895 62.9512V62.9395L48.2949 60.3027L48.3066 60.1973L48.3184 60.0801L48.7871 57.5957L48.7402 55.123L48.7285 55.0059L48.752 54.877L49.1152 52.4512L48.8691 49.9668L48.8457 49.7559L48.8809 49.5449L49.3613 46.9316L49.5957 44.5996L49.5488 41.9629V41.834L49.5605 41.7285L49.9004 39.1973L50.0527 36.6895L50.1816 34.1934L50.0879 31.5332L50.0762 31.4395L50.0879 31.3457L50.3223 28.7793L50.334 28.7441V28.709L50.6738 26.248L53.6738 26.4824Z" fill="black"/>
<path d="M61.3491 2.82812L63.7983 3.69531L64.1616 3.82422L64.4194 4.10547L66.1538 6.07422L66.4351 6.39062L66.5171 6.80078L66.9858 9.34375L67.0093 9.46094V9.58984L67.0562 12.1211L67.3491 14.4414L68.2163 16.7031L68.2866 16.9023L68.3101 17.1016L68.521 19.5156L68.5444 19.6211L65.5679 20.0195L65.5562 19.9258L65.5444 19.8906V19.8555L65.3335 17.5703L64.4897 15.3555L64.4312 15.1797L64.4077 15.0039L64.0796 12.4258L64.0679 12.3438V12.2734L64.0093 9.77734L63.6343 7.75L62.4272 6.39062L60.6577 5.75781L58.7007 5.86328L57.0835 6.67188L56.2983 8.45312L55.8882 10.5742L56.1929 12.9648L56.2397 13.3516L56.0991 13.7148L55.1265 16.0938L54.4819 18.2734L54.5054 19.1641L53.0054 19.1875L51.5054 19.2227L51.4819 18.0977V17.8633L51.5405 17.6406L52.3022 15.1094L52.314 15.0391L52.3491 14.9688L53.1577 12.9414L52.8882 10.7031L52.8647 10.4688L52.9116 10.2344L53.3921 7.71484L53.4272 7.55078L53.4858 7.39844L54.5522 4.97266L54.7749 4.46875L55.2671 4.22266L57.646 3.05078L57.9272 2.91016L58.2319 2.89844L60.7632 2.74609L61.0679 2.73438L61.3491 2.82812Z" fill="black"/>
<path d="M65.6143 47.3086L65.626 47.4609L65.6143 47.6016L65.3213 50.1094L65.5205 52.5938L65.5322 52.6406V52.6758L65.5908 55.3242V55.4062L65.5791 55.4883L65.3447 58.0078L65.3564 58.0195L65.2979 60.6562L65.3799 63.2227L65.3916 63.293L65.3799 63.3633L65.2158 66V66.0938L64.8994 68.5078L64.9814 69.5156L61.9814 69.7734L61.8877 68.6602L61.876 68.5078L61.8994 68.3438L62.2393 65.8008L62.3916 63.1758L62.2979 60.6797V60.5977L62.3564 57.9609V57.8555L62.5908 55.2188L62.5322 52.8281L62.3213 50.1914L62.3096 50.0391L62.333 49.8984L62.6143 47.3789L62.4268 45.0352L62.415 44.9648V44.8125H65.1455L65.415 44.7891L65.6143 47.3086Z" fill="black"/>
<path d="M64.2778 19.7427L65.6489 20.3403L65.6138 20.4341L65.6021 20.4224L64.6997 22.7427L64.6646 22.8364L64.6177 22.9067L63.4106 25.1333L62.7075 27.5005L62.6841 27.5708L61.6294 30.2075L61.5591 30.313L60.1763 32.5747L60.1646 32.563L58.8638 34.8247L58.8521 34.813L57.5396 37.1099L57.4692 37.2388L57.3755 37.3442L55.6411 39.3599L55.5005 39.5122L55.3247 39.6294L53.1802 41.0239L53.0278 41.1294L52.8521 41.188L52.1372 41.4224L51.1763 38.5864L51.6919 38.3989L53.5083 37.2153L54.9849 35.5161L56.2739 33.313L57.5981 31.0278L57.6216 31.0044L58.9224 28.8716L59.8364 26.6216L60.5981 24.1021L60.645 23.9497L60.7153 23.8208L61.9341 21.5474L62.8364 19.2856L62.8599 19.2388L62.895 19.145L64.2778 19.7427Z" fill="black"/>
<path d="M56.9282 95.6245L57.6782 98.0386L57.854 98.6128L57.5845 99.1519L56.6587 101.027L57.0688 102.574L58.6509 104.167L58.8149 104.32L58.9204 104.531L60.1509 106.886L60.2563 107.062L60.2915 107.261L60.8423 109.828L60.8774 109.968V110.121L60.9243 112.769V112.957L60.6313 115.57V115.617L60.6196 115.675L60.5142 116.261L59.0376 116.003L57.561 115.734L57.6665 115.148L57.9126 112.757L57.8774 110.308L57.397 108.093L56.354 106.113L54.6665 104.414L54.3735 104.132L54.2681 103.746L53.6118 101.261L53.4712 100.71L53.7173 100.207L54.6431 98.3433L54.0571 96.5151L54.0454 96.4917V96.4565L54.022 96.3628L55.4634 95.9761L56.9165 95.5894L56.9282 95.6245Z" fill="black"/>
<path d="M39.5171 17.2759L40.2319 17.2993L41.7319 17.3696L41.7202 17.4634V17.5688L41.6968 17.686L41.228 20.1353V20.147L40.7476 22.5259L40.853 24.9634L41.0991 27.5415L41.4507 29.4165L42.6694 30.2954L44.5444 30.3657L46.5718 29.6392L48.8218 28.561L50.5796 27.2368L52.771 25.5728L52.9819 28.3267L52.9937 28.5376L51.6343 28.6431L52.3843 29.6274L50.4976 31.0688L50.3804 31.1626L50.2397 31.2212L47.8374 32.3696L47.7671 32.4048L47.6851 32.4282L45.2827 33.2837L45.0132 33.3774L44.7319 33.3657L42.1069 33.2837L41.6499 33.2603L41.2866 32.9907L39.2124 31.5024L38.7319 31.1509L38.6265 30.5649L38.1343 27.9985L38.1226 27.9282V27.8579L37.8647 25.2563V25.186L37.7358 22.5259L37.7241 22.3501L37.7593 22.1626L38.2866 19.561L38.7554 17.1118L39.5171 17.2759Z" fill="black"/>
<path d="M65.895 18.2905L68.356 19.0874L68.5083 19.1343L68.6606 19.228L70.8872 20.564L71.2388 20.7632L71.4263 21.1147L72.7271 23.4585L72.8325 23.6343L72.8794 23.8452L73.4888 26.4233L74.2153 28.6265L75.4575 30.853L75.5044 30.9468L75.5396 31.0405L76.4185 33.2905L77.5669 35.4468L79.1841 37.4741L79.7231 38.1538L79.4067 38.9507L78.5396 41.189L78.5044 41.2827L78.4575 41.3765L77.2505 43.5796L77.1919 43.6851L77.1099 43.7905L75.5396 45.7827L74.8013 46.7202L73.7231 46.2163L71.6489 45.2319L71.3325 45.0913L71.1099 44.8101L69.5747 42.8882L67.6763 41.0132L67.2544 40.603L67.231 40.0171L67.1138 37.5093L66.4224 35.1187L66.3521 34.8843V34.6382L66.4458 32.1304L66.1411 29.5991L66.106 29.3765L66.1411 29.1655L66.5161 27.0093L67.77 27.2085L67.9458 25.7437L68.1685 25.7671L69.7388 25.9546L69.4692 27.5132L69.1411 29.4351L69.4458 31.8491L69.4575 31.9663L69.4458 32.0952L69.3521 34.4976L70.0552 36.8413L70.1021 37.0171L70.1138 37.1929L70.1958 39.2905L71.6841 40.7437L71.7427 40.8022L71.8013 40.8726L73.2427 42.6655L73.9106 42.9819L74.6724 42.021L75.7856 40.0171L76.3013 38.6694L75.1528 37.2397L75.0708 37.1343L75.0122 37.0171L73.77 34.7202L73.6997 34.5562L72.7739 32.189L71.5435 30.0093L71.4731 29.8804L70.5942 27.2437L70.5825 27.1733L70.5591 27.103L69.9966 24.7124L69.0005 22.9194L67.2192 21.8647L64.9224 21.1265L64.8169 21.0913L62.5669 19.9663L62.4146 19.8843L62.2856 19.7788L62.2036 19.7202L63.1646 18.5601L63.4341 18.2319L63.9146 17.2827L65.895 18.2905Z" fill="black"/>
<path d="M41.7012 5.39502L42.0762 5.45361L43.1777 5.39502L43.3418 7.93799L43.3652 8.23096L43.2715 8.50049L42.498 10.856L42.416 11.1021L42.2637 11.3013L40.9512 12.9888L40.9395 14.6646L41.4199 15.6489L42.2871 15.5786L43.0254 14.4302L43.2949 12.2388L43.5996 9.70752L44.8535 9.84814L44.7949 8.39502L45.0176 8.3833L46.7871 8.30127L46.5762 10.0474L46.2832 12.5903L45.9668 15.1333L45.9316 15.4849L45.7441 15.7778L44.3965 17.8403L43.998 18.4497L43.2715 18.5083L40.6582 18.731L39.6387 18.813L39.1816 17.8989L38.0918 15.6724L37.9395 15.3442V14.9927L37.9629 12.4614L37.9746 11.9575L38.2793 11.5591L39.7207 9.67236L40.3184 7.85596L40.1777 5.59424L40.166 5.40674L40.2012 5.23096L40.2246 5.12549L41.7012 5.39502Z" fill="black"/>
<path d="M53.2305 85.1514L55.5391 86.3232L55.8438 86.4756L56.043 86.7334L57.5781 88.6904L56.4766 89.5459L56.5 89.5928L56.957 91.0225L56.8633 91.0459L55.8672 91.3623L55.2227 90.542L53.8867 88.8428L52.6914 88.2334L52.082 88.667L52.1758 89.3936L53.7461 90.5303L54.0156 90.7178L54.1797 91.0107L55.4688 93.2607L55.5742 93.4482L55.6211 93.6475L55.8906 94.749L54.4375 95.1123L52.9844 95.4639L52.7617 94.5615L51.7305 92.7803L49.8906 91.4561L49.3516 91.0693L49.2812 90.4131L49.0117 88.1514L48.9062 87.2842L49.6211 86.7686L51.6719 85.2686L52.4102 84.7295L53.2305 85.1514Z" fill="black"/>
<path d="M46.1982 18.5923L46.292 18.7915L46.3271 19.0259L46.749 21.6509L47.1943 24.1938L47.2412 24.4165L47.2061 24.6392L46.8662 27.2759L46.8428 27.4868L46.7607 27.686L45.6826 30.1235L45.6709 30.1704L45.6475 30.2056L44.5576 32.3267L43.2451 31.647L42.835 33.0884H42.8115L41.0537 32.5845L41.8857 30.9556L42.9756 28.8345L43.9131 26.6782L44.2061 24.5103L43.7842 22.1431V22.1196L43.4092 19.7407L42.3896 17.6665L42.2607 17.4204L42.2373 17.1392L42.2256 17.0454L43.7256 16.9048L43.96 16.8931L45.0732 16.3423L46.1982 18.5923Z" fill="black"/>
<path d="M80.7676 75.9956L80.8965 76.0542L81.002 76.1479L83.0879 77.8003L83.252 77.9409L83.3809 78.1284L84.8926 80.3081L84.9629 80.4136L85.0215 80.5308L86.041 82.7339L84.9746 83.2144L84.752 83.437L83.6387 84.4448L83.5684 84.3745L83.416 84.2104L83.3223 83.9995L82.373 81.9487L81.0605 80.0269L79.2559 78.5854L77.416 77.6362L76.7129 77.2612L76.6191 76.4761L76.5957 76.2886L78.084 76.1128L78.2129 76.1011L78.7988 74.9761L80.7676 75.9956Z" fill="black"/>
<path d="M57.0576 19.7188L56.9639 19.7539L54.7139 20.7969L54.5498 20.8789L54.3623 20.9141L52.1475 21.3242L50.2256 22.6367L50.1553 22.6836L50.085 22.7188L47.7295 23.9609L47.4131 24.1367H47.0498L45.8076 24.1602L45.7607 21.1602L46.6396 21.1367L48.5967 20.1055L50.7412 18.6641L50.999 18.5L51.3037 18.4414L53.6357 17.9961L55.7686 17L55.8389 16.9766L55.9326 16.9297L57.0576 19.7188Z" fill="black"/>
<path d="M55.0649 13.4609L55.522 13.6016L55.8032 13.9883L57.3384 16.0273L57.3853 16.0742L57.4204 16.1445L58.4517 17.8203L59.9048 18.1133L61.4282 17.4336L62.9399 15.7109V15.6992L62.9517 15.6875L64.4399 14.0352L65.5298 15.0078H65.5415L66.854 14.2812L66.8657 14.3047L67.3813 15.2305L66.6665 16.0273L65.1899 17.668L63.5024 19.6367L63.2798 19.8828L62.9868 20.0117L60.7251 21.0547L60.2798 21.2539L59.811 21.1602L57.2212 20.6445L56.5767 20.5156L56.2368 19.9531L54.936 17.8203L53.4126 15.7812L54.479 14.9844L54.5142 14.8555L54.9712 13.4258L55.0649 13.4609Z" fill="black"/>
<path d="M80.793 41.1191L80.8398 41.1543L80.875 41.2012L82.5625 43.1934L82.8203 43.498L82.8906 43.8965L83.3008 46.1934L83.582 47.7637L81.9883 47.9395L79.3398 48.2441L78.8945 48.3027L78.4961 48.1035L76.1289 46.9082L75.8594 46.7793L75.6719 46.5684L74.4297 45.1621L75.543 44.166L74.5 43.1113L74.5117 43.0879L75.6367 41.998L76.6797 43.1699L77.7227 44.3535L79.4336 45.209L80.0547 45.1387L80.0078 44.8223L78.5781 43.1348V43.123L76.8555 41.3887L76.4102 40.9434L76.4219 40.2988V40.2051L77.9219 40.2402H78.0156L78.9883 39.291L80.793 41.1191Z" fill="black"/>
<path d="M73.7461 33.6758L74.5898 33.9336L76.0195 34.3789L75.9961 34.4727L75.9727 34.5547L75.9375 34.6367L75.1055 36.4883L74.4141 38.3047L74.5078 39.1367L74.6836 40.7891H72.9258V39.2891L71.5195 39.4531L71.3906 38.293L71.3555 37.9297L71.4844 37.5898L72.3047 35.4336L72.3281 35.3984L72.3398 35.3633L73.125 33.582L73.1602 33.4883V33.5L73.1953 33.4297L73.7461 33.6758Z" fill="black"/>
<path d="M60.2422 9.17578L61.7656 9.29297L61.625 10.8164L61.4258 13.0078L61.4727 14.8711L60.4648 14.8945L59.9961 15L58.5312 15.3281L58.5195 15.2227L58.4844 15.082V14.9414L58.4258 12.9023V12.8086L58.4375 12.7266L58.5078 12.0469L57.5 11.9766V10.5H59.0117L59.1172 9.09375L60.2422 9.17578Z" fill="black"/>
<path d="M111.312 114.289L112.355 114.547L111.652 117.453L110.891 117.266L108.547 117.629L108.453 117.652H108.359L105.723 117.723H105.582L103.051 117.301L100.672 117.734L100.438 117.781L100.203 117.746L97.6367 117.406H95.2344L92.5977 117.629L92.4922 117.641L92.3984 117.629L89.75 117.477V117.465L87.2773 117.348L84.7812 117.734L84.582 117.77L84.3945 117.746L81.8516 117.453L79.2969 117.477L79.2852 117.465L76.7773 117.711L76.6133 117.723L76.4492 117.699L73.918 117.383L71.3867 117.43H71.3281L68.6914 117.371H68.6445L66.1719 117.23L63.7109 117.699L63.4766 117.746L63.2305 117.711L60.7227 117.348L58.2383 117.488H58.0156L55.5898 117.242L53.1406 117.676L52.8828 117.723L52.6133 117.676L50.1172 117.242L47.6914 117.395H47.668L47.6445 117.406L42.3711 117.57H42.2539L42.1367 117.559L39.5938 117.254L37.1328 117.418L37.0508 117.43L36.957 117.418L34.5078 117.277L32 117.699L31.7891 117.734L31.5781 117.711L29.0234 117.395L26.5391 117.324L23.9492 117.512L23.8906 117.523H23.832L21.1953 117.512H21.0781L18.5 117.301L16.0508 117.395L16.0625 117.406L13.4258 117.664L13.2734 117.676L13.1211 117.664L10.625 117.395L8.16406 117.5H8V114.5H8.03516L10.5781 114.395L10.6836 114.383L10.8008 114.395L13.2852 114.664L15.7695 114.418H15.8633L18.5 114.312L18.5938 114.301L18.6758 114.312L21.3125 114.512L21.3008 114.523H23.7383L26.375 114.336L26.4453 114.324L26.5273 114.336L29.1641 114.406H29.2344L29.293 114.418L31.7305 114.699L34.1562 114.301L34.3203 114.277L34.4844 114.289L37.0156 114.43L39.582 114.254L39.7227 114.242L39.8633 114.266L42.3711 114.57L44.9141 114.488L47.5039 114.418V114.406L50.1523 114.242L50.3281 114.23L50.5039 114.266L52.8828 114.688L55.2617 114.266L55.4609 114.23L55.6602 114.242L58.1328 114.488L60.7227 114.348L60.8633 114.336L61.0156 114.359L63.418 114.711L65.8086 114.266L65.9844 114.23L66.1602 114.242L68.7969 114.371L68.7852 114.383L71.3633 114.43L73.9766 114.383H74.082L74.1875 114.395L76.6836 114.711L79.1445 114.477H79.2734L81.9102 114.453H82.0039L82.0859 114.465L84.5469 114.746L86.9727 114.371L87.125 114.348L87.2773 114.359L89.9141 114.488H89.9258L92.4453 114.641L95 114.43L95.0586 114.418H95.1055L97.7539 114.406H97.8594L97.9648 114.418L100.367 114.746L102.77 114.312L103.027 114.266L103.285 114.301L105.816 114.723L108.137 114.664L110.738 114.266L111.031 114.219L111.312 114.289Z" fill="black"/>
</svg>
