<svg width="120" height="120" viewBox="0 0 120 120" fill="none" xmlns="http://www.w3.org/2000/svg">
<path d="M111.312 114.289L112.355 114.547L111.652 117.453L110.891 117.266L108.547 117.629L108.453 117.652H108.359L105.723 117.723H105.582L103.051 117.301L100.672 117.734L100.438 117.781L100.203 117.746L97.6367 117.406H95.2344L92.5977 117.629L92.4922 117.641L92.3984 117.629L89.75 117.477V117.465L87.2773 117.348L84.7812 117.734L84.582 117.77L84.3945 117.746L81.8516 117.453L79.2969 117.477L79.2852 117.465L76.7773 117.711L76.6133 117.723L76.4492 117.699L73.918 117.383L71.3867 117.43H71.3281L68.6914 117.371H68.6445L66.1719 117.23L63.7109 117.699L63.4766 117.746L63.2305 117.711L60.7227 117.348L58.2383 117.488H58.0156L55.5898 117.242L53.1406 117.676L52.8828 117.723L52.6133 117.676L50.1172 117.242L47.6914 117.395H47.668L47.6445 117.406L42.3711 117.57H42.2539L42.1367 117.559L39.5938 117.254L37.1328 117.418L37.0508 117.43L36.957 117.418L34.5078 117.277L32 117.699L31.7891 117.734L31.5781 117.711L29.0234 117.395L26.5391 117.324L23.9492 117.512L23.8906 117.523H23.832L21.1953 117.512H21.0781L18.5 117.301L16.0508 117.395L16.0625 117.406L13.4258 117.664L13.2734 117.676L13.1211 117.664L10.625 117.395L8.16406 117.5H8V114.5H8.03516L10.5781 114.395L10.6836 114.383L10.8008 114.395L13.2852 114.664L15.7695 114.418H15.8633L18.5 114.312L18.5938 114.301L18.6758 114.312L21.3125 114.512L21.3008 114.523H23.7383L26.375 114.336L26.4453 114.324L26.5273 114.336L29.1641 114.406H29.2344L29.293 114.418L31.7305 114.699L34.1562 114.301L34.3203 114.277L34.4844 114.289L37.0156 114.43L39.582 114.254L39.7227 114.242L39.8633 114.266L42.3711 114.57L44.9141 114.488L47.5039 114.418V114.406L50.1523 114.242L50.3281 114.23L50.5039 114.266L52.8828 114.688L55.2617 114.266L55.4609 114.23L55.6602 114.242L58.1328 114.488L60.7227 114.348L60.8633 114.336L61.0156 114.359L63.418 114.711L65.8086 114.266L65.9844 114.23L66.1602 114.242L68.7969 114.371L68.7852 114.383L71.3633 114.43L73.9766 114.383H74.082L74.1875 114.395L76.6836 114.711L79.1445 114.477H79.2734L81.9102 114.453H82.0039L82.0859 114.465L84.5469 114.746L86.9727 114.371L87.125 114.348L87.2773 114.359L89.9141 114.488H89.9258L92.4453 114.641L95 114.43L95.0586 114.418H95.1055L97.7539 114.406H97.8594L97.9648 114.418L100.367 114.746L102.77 114.312L103.027 114.266L103.285 114.301L105.816 114.723L108.137 114.664L110.738 114.266L111.031 114.219L111.312 114.289Z" fill="black"/>
<g clip-path="url(#clip0_400_251)">
<path d="M65.5498 109L67.6123 108.777L67.8115 108.766L67.999 108.789L70.46 109.199L72.9912 109.176V109.164L75.6279 109.082L78.2646 108.988H78.3818L78.499 109L80.9717 109.305L83.5029 109.141H83.6787L86.1748 109.27L88.6357 108.871L88.8467 108.836L89.0576 108.859L91.6006 109.176L94.085 109.234L96.6865 109.035H96.7803L99.417 109H99.4873L99.5459 109.012L102.112 109.211L104.667 109.152L105.042 109.141L105.382 109.316L107.444 110.359L108.358 110.828L108.265 111.848L107.995 114.496L107.937 115.047L107.538 115.422L106.038 116.863L105.065 115.844V115.855L103.905 116.805L103.835 116.723L102.956 115.645L103.964 114.684L105.054 113.629L105.171 112.574L104.351 112.152L102.054 112.199L101.983 112.211L101.913 112.199L99.335 112L96.8154 112.035L96.8037 112.023L94.2725 112.223L94.1904 112.234H94.1201L91.4717 112.164H91.4131L91.3428 112.152L88.8936 111.859L86.4795 112.258L86.3154 112.293L86.1631 112.281L83.6084 112.141L81.0537 112.316H80.9131L80.7725 112.305L78.2529 111.988L75.7217 112.082L73.085 112.164H73.0615L70.3896 112.199H70.2607L70.1318 112.176L67.7061 111.777L65.2334 112.035L64.6123 112.105L64.1318 111.707L62.5615 110.406L61.2373 109.316L62.5029 108.145L63.5225 109.246L64.4717 108.098L65.5498 109Z" fill="black"/>
<path d="M56.0342 109.243L56.0576 109.442L56.7256 110.532L54.5576 111.856L54.1357 112.125L53.6318 112.079L51.1592 111.821L48.7686 112.125L48.71 112.137H48.6514L46.0029 112.254L45.9092 112.266L45.8271 112.254L43.1787 112.055V112.043H40.7529L38.1279 112.243H37.9756L35.3389 112.172H35.2686L35.1982 112.161L32.7607 111.868L30.335 112.266L30.1709 112.29H30.0186L27.4521 112.137L24.9092 112.301H24.7686L24.6279 112.29L22.0967 111.961L19.6006 112.02L19.6123 112.032L16.9873 112.172L14.9014 112.29L14.3623 112.817L14.585 114.047L15.3818 114.622L15.9912 115.079V115.852H14.4795L13.6123 117.059L12.3467 116.133L11.8662 115.782L11.7607 115.196L11.2686 112.583L11.1279 111.797L11.7021 111.235L13.2139 109.758L13.6123 109.36L14.1748 109.336L16.8115 109.172H16.8232L19.46 109.043L19.4717 109.032H19.4951L22.1318 108.961H22.249L22.3662 108.973L24.8389 109.29L27.3701 109.137H27.5342L29.9951 109.278L32.4912 108.879L32.7021 108.844L32.9131 108.868L35.4561 109.184L37.9404 109.243L40.542 109.055L40.6006 109.043H40.6592L43.2959 109.055H43.4131L45.8857 109.243L48.4639 109.149L50.9482 108.833L51.1123 108.809L51.2764 108.833L53.4092 109.043L55.1553 107.977L55.4365 107.801L55.7646 107.766L55.8701 107.754L56.0342 109.243Z" fill="black"/>
<path d="M47.7832 84.5845L49.1777 86.6821L50.6895 88.8735L50.8652 89.1196L50.9238 89.4243L51.4629 92.0376L51.5098 92.2368L51.4863 92.4478L51.2871 95.0962L51.2754 97.5103L51.4629 100.147V100.288L51.416 102.924L51.4043 103.077L51.3691 103.241L50.8184 105.502L51.4395 107.635L51.5098 107.881L51.498 108.139L51.3691 110.202L51.2988 111.315L50.2207 111.561L50.1387 111.584L49.7988 110.12L49.7871 110.096L48.3809 110.014L48.4746 108.198L47.8301 105.948L47.7246 105.573L47.8184 105.186L48.416 102.667L48.4629 100.217L48.2754 97.7212V97.604L48.2871 94.9673V94.8618L48.4746 92.4243L48.0527 90.3149L46.7168 88.3931L46.6934 88.3696L45.2871 86.2603L45.2402 86.1782L45.1934 86.1079L44.0566 83.8813L44.0332 83.8345L44.0098 83.7759L43.9746 83.6821L45.3574 83.1079L46.541 82.6157L46.7285 82.522L47.7832 84.5845Z" fill="black"/>
<path d="M75.7607 83.5703L75.7139 83.6641L74.7412 85.9844L74.624 86.2773L74.3896 86.5L72.667 88.1172L71.7529 89.9922L71.3779 92.207L71.1787 94.7383L71.167 97.2695L71.3545 99.9062V100.059L71.2725 102.543L71.4717 105.215L70.1943 105.297L70.499 106.75L70.2646 106.797L68.6006 107.137L68.4717 105.438L68.2842 102.766L68.2725 102.684V102.613L68.3545 99.9648L68.1787 97.4805L68.167 97.4219V97.375L68.1787 94.7266V94.6211L68.3779 91.9844L68.4014 91.8438L68.8232 89.3242L68.8584 89.1133L68.9521 88.9258L70.1006 86.5586L70.2178 86.3125L70.417 86.125L72.0928 84.5312L72.96 82.4688L72.9717 82.4453L73.0186 82.3516L75.7607 83.5703Z" fill="black"/>
<path d="M59.7373 49.9985L60.0186 50.0688L61.2139 50.0103L61.3545 52.5415L61.3662 52.6821L61.3428 52.8228L61.0146 55.436L60.9795 55.6938L60.8623 55.9165L59.7725 58.061L58.8818 60.5103L58.835 60.6274L58.7764 60.7329L57.4756 63.0415L57.4639 63.0298L56.1982 65.3384L56.1865 65.3501V65.3618L54.8506 67.6587L54.7803 67.7759L54.6982 67.8696L52.9873 69.897L52.9287 69.9673L52.8467 70.0376L50.9834 71.7134L49.4131 73.7524L49.0615 74.2095L48.4756 74.3149L47.6201 74.4556L47.374 72.979L47.2334 72.0649L47.0342 71.9243L47.1748 71.7485L47.1279 71.5024L47.3857 71.4438L48.6865 69.7798L48.7686 69.6743L48.874 69.5806L50.7725 67.8696L52.3076 66.0415L53.585 63.8501L54.8623 61.5767V61.5649L56.1279 59.3149L56.9834 56.9946L57.0068 56.9126L57.042 56.8423L58.0615 54.7798L58.3545 52.5767L58.2139 50.186L58.2021 49.9399L58.2725 49.7056L58.2959 49.6118L59.7373 49.9985Z" fill="black"/>
<path d="M60.9932 69.7744L60.9463 69.8682L60.8994 69.9385L59.5049 71.9775L58.2979 74.0869L57.3135 76.4541L57.2783 76.5479L57.2314 76.6299L55.9307 78.9268L55.8604 79.0439L55.7783 79.1494L54.0791 81.1533L54.0908 81.165L52.4854 83.1455L50.9619 85.3018L50.9033 85.3955L50.8213 85.4658L49.0049 87.3877L48.8291 87.5752L48.6064 87.6924L48.3604 87.8096L47.6689 86.4854L47.3057 85.7705L46.8252 85.3252L46.9893 85.1494H46.9775L47.0127 85.126L48.5479 83.4971L50.0479 81.4111L50.0947 81.3408L51.7471 79.29L51.7705 79.2666L53.3877 77.3213L54.5713 75.2236L55.5557 72.8682L55.6025 72.7744L55.6494 72.6924L56.9736 70.3955L56.9971 70.3486L57.0322 70.3018L58.415 68.251L60.9932 69.7744Z" fill="black"/>
<path d="M62.5684 56.7998L62.7559 57.0342L62.8379 57.3154L63.5059 59.6709L64.7715 61.7451L66.1777 63.9717L66.2012 63.9951L66.2129 64.0186L67.4785 66.1982L68.9785 68.1201L70.8184 69.8311L72.752 71.6123L72.8457 71.7061L72.9277 71.8115L74.3574 73.6982L76.4199 74.9873L76.4434 74.999L76.4668 75.0225L77.6035 75.7959L78.752 74.8936L78.916 74.7529L79.127 74.6709L81.3184 73.7803L81.8457 75.1045H81.8691L83.3574 74.8818L83.3691 74.9521L83.5332 76.124L82.4434 76.5693L80.4395 77.3779L78.623 78.8311L77.7559 79.5225L76.8418 78.9014L74.8262 77.5303L72.5645 76.124L72.3301 75.9717L72.1543 75.7607L70.5957 73.71L68.7793 72.0342V72.0225L66.8457 70.2295L66.752 70.1475L66.6816 70.0537L65.0527 67.9795L64.9941 67.8975L64.9355 67.8037L63.6465 65.5771L62.2402 63.3506L62.2285 63.3389V63.3271L60.8457 61.0654L60.7402 60.8896L60.6816 60.6904L60.0371 58.4287L58.6543 56.6709L58.5723 56.5654L58.5137 56.46L58.4668 56.3779L59.7793 55.6514L60.2949 55.3701L61.0098 54.8076L62.5684 56.7998Z" fill="black"/>
<path d="M61.2383 64.0859L61.2969 64.2852L61.3086 64.5078L61.3906 66.9922L61.7188 69.0664L62.9141 71L62.9375 71.0352L62.9609 71.082L64.2148 73.3906L64.2266 73.4141L64.2383 73.4492L65.3398 75.7109L66.6641 77.7734L68.3164 79.7773L68.3398 79.8008L68.3516 79.8242L69.957 81.9102L70.0273 82.0039L71.3281 83.9961L72.8984 85.1797L74.0234 86.0117L73.2617 87.1953L73.1445 87.3711L71.8906 86.5625L71.8672 86.5508L71.1055 87.582L69.3242 86.2461L69.1133 86.0938L68.9609 85.8711L67.5078 83.6445H67.4961L65.9727 81.6523V81.6406L64.3203 79.6602L64.2617 79.5898L64.2148 79.5078L62.7852 77.293L62.7383 77.2109L62.7031 77.1406L61.543 74.7617V74.75L60.3242 72.5117V72.5L59.0117 70.3789L58.8477 70.1211L58.8008 69.8164L58.4141 67.3086L58.4023 67.2148V67.1328L58.3086 64.6133L59.4688 64.5664L59.7852 64.4609L61.2031 63.9922L61.2383 64.0859Z" fill="black"/>
<path d="M96.7373 52.8379L96.7256 52.8613L96.7373 52.873L96.374 55.4043L96.3154 55.791L96.0811 56.1074L94.7686 57.7949L94.7217 59.7871L94.8623 62.3184V62.4473L94.792 65.084L94.9092 67.5918L95.2256 70.1348L95.2373 70.2402V70.334L95.2021 72.9824V73.041L95.0732 75.7363L94.9561 78.1738L94.8623 80.084L93.0342 79.5449L92.8232 79.4863L93.2217 78.0918L91.9561 78.0332L92.0732 75.584L92.2021 72.8887L92.2373 70.3809L91.9326 67.8613V67.8145L91.9209 67.7559L91.792 65.1191V65.0137L91.8623 62.4824L91.7217 59.834V59.7168L91.7803 57.2441L91.792 56.752L92.0967 56.3652L93.4561 54.584L93.7607 52.4512V52.4277L93.7725 52.4043L93.7842 52.2988L96.7373 52.8379Z" fill="black"/>
<path d="M61.2109 79.5078L61.2812 79.6719L61.3047 79.8477L61.6797 82.1445L62.6406 84.2891L63.9414 86.4688L63.9531 86.4805L63.9648 86.5039L65.2539 88.7891L65.3359 88.9297L65.3828 89.0938L66.1562 91.6367L66.1914 91.7773L66.2148 91.9297L66.4727 94.543V94.5898L66.6602 97.2266L66.6719 97.2969V97.3789L66.5898 100.016V100.145L66.2969 102.582L66.6953 105.008L66.7422 105.277L66.6836 105.547L66.168 108.172L66.0859 108.547L65.8398 108.852L64.1875 110.785L63.707 111.359L62.9688 111.312L60.4492 111.16L57.918 111.418L57.5078 111.453L57.1445 111.289L55.0586 110.34L54.4609 110.059L54.25 109.438L53.418 106.883L53.3125 106.555L53.3594 106.203L53.7109 103.777L53.3008 101.352L53.2773 101.164L53.2891 100.965L53.5352 98.4922L53.3594 95.9375L53.3477 95.7383L53.3828 95.5391L53.8867 93.1016L54.0977 90.4297L54.1211 90.0898L54.2969 89.7969L55.5977 87.5586L56.7695 85.2266L57.8945 82.8477L58.0352 82.5547L58.2812 82.3438L58.6211 82.0508L58.3516 80.3281L59.418 80.1523L59.793 80L61.1758 79.4141L61.2109 79.5078ZM59.4648 86.5391V86.5508L59.4531 86.5625L58.2812 88.918L58.2344 89.0117L57.0508 91.0039L56.875 93.3477L56.8633 93.4414L56.8516 93.5234L56.3594 95.9258L56.5352 98.3633V98.4922L56.5234 98.6094L56.2891 101.035L56.7109 103.508L56.7461 103.73L56.7109 103.965L56.3828 106.273L56.8984 107.879L58.0117 108.383L60.25 108.172L60.3672 108.16L60.4844 108.172L62.3828 108.266L63.2969 107.199L63.6836 105.23L63.2969 102.852L63.2734 102.641L63.2969 102.441L63.5898 99.875L63.6719 97.4375L63.4844 94.8477L63.2383 92.3516L62.5469 90.0898L61.3516 87.9688V87.957L60.0156 85.7305L59.9688 85.6602L59.9336 85.5781L59.9219 85.5547L59.4648 86.5391Z" fill="black"/>
<path d="M58.9775 20.9019L58.8252 21.7808L58.8135 21.8042V21.8159L58.3096 24.2651L58.2275 26.7378V26.8433L58.2041 26.9487L57.7354 29.4917L57.7471 29.5034L57.3955 31.9409L57.6768 34.4136L57.7002 34.6831L57.6416 34.9292L57.0439 37.4253L56.8096 39.9448L56.7979 40.1089L56.7393 40.2729L55.9307 42.6636L55.415 45.2183L55.1104 46.6948L53.6455 46.3901L51.3018 45.8979L49.1689 46.5073L48.958 46.5659L48.7236 46.5542L47.2705 46.519L46.9541 47.4683L46.5322 49.73L47.0713 51.8979L47.1182 52.0737V53.7612L48.501 54.1011H48.5127L50.2119 54.5229L51.3604 53.3276L52.5908 51.2417L52.6143 51.1948L54.0322 48.9683L54.0439 48.9565V48.9448L55.4385 46.8354L56.4229 44.6089L57.2666 42.1245L57.3135 41.9839L57.3955 41.8433L58.4268 40.0854L58.251 38.0347L58.2275 37.7065L58.333 37.4019L58.3682 37.3081L59.7744 37.812L59.9736 37.8823L61.2393 37.7769L61.4619 40.3198L61.4971 40.8003L61.251 41.2104L60.0557 43.2261L59.2471 45.6167L59.2354 45.6753L59.2002 45.7339L58.1455 48.1714L58.0869 48.2886L56.54 50.6089L55.1689 52.7534L53.833 55.0503L53.7393 55.2026L53.6221 55.3315L51.7588 57.2417L51.1611 57.8628L47.7861 57.019V57.0073L45.2666 56.4097L44.1182 56.1284V52.4253L43.5439 50.1284L43.4619 49.812L43.5205 49.4839L44.0361 46.8354L44.0479 46.7417L44.083 46.6597L44.7627 44.5386L45.1025 43.4604L46.2275 43.4956L48.583 43.5425L50.8564 42.9214L51.1963 42.8159L51.5596 42.8979L52.7666 43.144L53.0127 41.9956L53.0596 41.8315L53.833 39.4761L54.0674 37.0386L54.0791 36.9214L54.1025 36.8159L54.665 34.4487L54.4072 32.0698L54.3838 31.8823L54.4072 31.7065L54.7705 29.0815L54.7822 29.0581V29.0229L55.2275 26.5269L55.333 23.9956V23.8784L55.3564 23.7495L55.8721 21.2183L56.0244 20.3628L58.9775 20.9019Z" fill="black"/>
<path d="M62.6455 42.9922L62.7979 43.2031L62.8564 43.4375L63.5361 45.7695L64.8604 47.832L66.29 50.0352L66.3252 50.082L66.3486 50.1406L67.5674 52.3906L68.7861 54.0078L70.0752 54.4297L71.7393 54.207L72.3721 53.3281L72.1025 51.2656L72.0322 50.8203L72.2314 50.4219L72.8994 49.0156L73.708 47.3047L75.1846 48.4766L75.2432 48.5352L74.3057 49.6836L75.6064 50.3047L75.126 51.3008L75.4307 53.5273L75.5127 54.1133L75.1611 54.5938L73.8018 56.4805L73.4268 57.0078L72.7939 57.1016L70.1338 57.4531L69.7939 57.5L69.4658 57.3945L67.4033 56.7266L66.958 56.5742L66.665 56.1875L65.0947 54.0664L65.0244 53.9844L64.9775 53.8906L63.7119 51.5703H63.7002L62.3408 49.4609V49.4492L60.8994 47.2109L60.7939 47.0352L60.7236 46.8242L60.0439 44.5039L58.7432 42.6523L58.6963 42.582L58.6143 42.418L59.9268 41.7031L60.6768 41.293L61.2041 40.9297L62.6455 42.9922Z" fill="black"/>
<path d="M26.1357 54.3604L27.1318 56.6572L27.1553 56.7041L27.1787 56.7627L27.9639 59.0479L28.1045 59.4814L27.9873 59.9268L27.3193 62.3525L27.3311 62.3643L26.792 64.8018L26.6982 67.2041L26.9561 69.7471V69.8174L27.0967 72.4541V72.5361L27.085 74.9502L27.6475 76.7314L28.9248 76.8486L31.4092 76.708L33.9756 76.3916L34.2217 76.3564L34.4678 76.4033L36.8115 76.9072L36.5537 78.1143H37.9951V80.2236L36.1904 79.8369L34.0928 79.3916L31.7021 79.6963L31.6553 79.708H31.6084L28.96 79.8604H28.8545L28.7373 79.8486L27.2842 79.708L26.874 79.9658L26.8271 79.9893L26.7334 79.8369L26.6982 79.8721L26.5576 79.6377L26.3115 79.6143H26.2412V79.6025H26.1943L26.2412 79.0986V79.0869L26.0303 78.7471L25.292 79.9424L25.1396 79.8486L23.0537 78.5361L24.7412 77.5166L24.1553 75.6416L24.085 75.4189V75.1846L24.0967 72.5947L23.9678 70.04L23.71 67.415L23.6982 67.3096V67.2041L23.8037 64.5674L23.8154 64.4385L23.8389 64.3096L24.4014 61.7314V61.6963L24.4131 61.6611L24.9639 59.5869L24.3779 57.8408L23.3232 55.415L23.2764 55.2979L23.2529 55.1807L22.6318 52.7432L22.6084 52.6494L22.585 52.4619L24.0732 52.2744L24.8467 52.1807L25.5381 52.0049L26.1357 54.3604Z" fill="black"/>
<path d="M16.2793 71.4355H16.7012L18.2012 71.4238V71.7168L18.1543 71.8926L17.5566 74.2949L17.0762 76.6504L17.1113 79.1582L17.123 80.5176L18.4238 81.0801L20.5684 81.502L23.1699 81.6543L23.3457 81.666L23.5215 81.7129L24.1074 81.8887L23.2402 84.7715L22.8066 84.6426L20.3691 84.502L20.2754 84.4902L20.1699 84.4785L17.6973 83.998L17.5332 83.9629L17.3809 83.9043L15.0488 82.8848L14.1582 82.498L14.1465 81.5371L14.1113 79.2051L14.0762 76.5566L14.0645 76.3926L14.0996 76.2285L14.6387 73.627V73.6035L14.6504 73.5684L15.2363 71.1777L16.2793 71.4355Z" fill="black"/>
<path d="M64.582 31.9219V31.9922L64.9102 34.5L64.9219 34.5703V34.6289L65.0273 37.1133L65.6133 39.5742L66.3047 42L67.0781 44.5195L67.1836 44.8594L67.125 45.1992L66.9492 46.2773L65.4727 46.0312L63.9844 45.7969L64.1016 45.0586L63.4453 42.8789L63.4336 42.8672V42.8555L62.707 40.3359L62.6953 40.3008V40.2656L62.0859 37.6875L62.0508 37.5469V37.4062L61.9336 34.7578L61.6289 32.4492L61.6055 32.3555L64.5586 31.8164L64.582 31.9219Z" fill="black"/>
<path d="M82.5684 41.5439L83.2598 41.626L84.748 41.8252L84.7246 42.0361L84.6895 42.1416L84.0332 44.4502L83.998 44.5791L83.9395 44.6963L82.9082 46.8408L82.7441 48.8096L83.377 51.1416L83.4355 51.376L83.4238 51.6104L83.2715 54.2588V56.6963L83.4824 59.333V59.3916L83.5762 61.9697L83.5879 62.1455L83.0371 64.8994V64.9463L83.0254 64.9814L82.3574 67.5479L82.2754 67.8525L82.0762 68.1104L81.3145 69.0479L81.0098 69.4346L80.541 69.5635L80.459 69.5752L80.0723 68.1338L80.0371 68.0283L78.9707 67.1729L79.5332 66.4814L80.0957 64.3135L80.5762 61.8877L80.4824 59.5088V59.4971L80.2715 56.9307V54.083L80.4121 51.6807L79.791 49.3369L79.7207 49.0908L79.7441 48.833L79.9434 46.3135L79.9668 46.0322L80.084 45.7861L81.1855 43.501L81.8066 41.3213L82.5684 41.5439Z" fill="black"/>
<path d="M38.0146 39.9443V39.9795L38.2373 42.4287L38.7061 44.7607L39.7725 46.9521L39.9717 47.3506L39.9131 47.7959L39.5967 50.292V50.3037L39.2334 52.835L39.1865 55.3779L39.3037 57.9092L39.3154 58.0146L39.3037 58.1084L39.0811 60.6748L38.9873 63.0068L39.6318 65.0342L40.7803 66.6045L41.4482 67.5186L40.7451 68.4092L40.6982 68.4678L39.5264 67.542L39.5029 67.5186L38.3545 68.3623L37.0537 66.5811L36.9131 66.3818L36.8428 66.1475L36.0576 63.6748L35.9756 63.417L35.9873 63.1592L36.0928 60.5576V60.499L36.3154 57.9326L36.1865 55.4131V55.2959L36.2451 52.6592L36.2686 52.4951L36.6201 49.9053L36.8779 47.8545L35.917 45.874L35.835 45.6982L35.7998 45.5107L35.2842 42.9092L35.2725 42.8389L35.2607 42.7568L35.0264 40.249L35.0381 40.2373L35.0264 40.1904L38.0029 39.8389L38.0146 39.9443Z" fill="black"/>
<path d="M70.7363 55.6187L70.8301 55.7241L70.9121 55.8647L72.1074 57.9507L73.502 59.8491L75.4121 61.4077L75.4238 61.4194L75.4473 61.4312L77.4512 63.1538L77.5215 63.2124L77.5918 63.2944L79.2793 65.1694L80.9434 66.4468L80.041 67.6187L81.4473 68.1108V68.1343L80.7559 70.0913L79.1152 68.8257L77.334 67.4546L77.2168 67.3726L77.123 67.2671L75.377 65.3335L73.4902 63.7163V63.7046L71.4629 62.064L71.3105 61.9468L71.1934 61.7827L69.6348 59.6382L69.541 59.4976L68.3105 57.353L69.1895 56.8491L69.541 56.5327L70.666 55.5366L70.7363 55.6187Z" fill="black"/>
<path d="M49.9463 56.459L50.1807 56.6582L51.2588 57.1387L50.2393 59.4473L50.1104 59.7402L49.8643 59.9629L47.9541 61.6504L46.3721 63.6074L46.3018 63.7012L44.4736 65.6113L44.415 65.6699L44.3447 65.7285L42.3057 67.416L40.876 68.6348V68.7051L40.8057 68.6934L40.3838 69.0684L40.0322 68.6699L39.376 68.6465L37.876 68.5762L37.9111 67.873L37.9346 67.2285L38.4268 66.8066L40.3721 65.1191H40.3838L40.3955 65.1074L42.4229 63.4199L44.0518 61.709L45.7275 59.6582L45.7979 59.5645L45.8916 59.4824L47.626 57.9355L48.5049 55.9316L48.5986 55.7207L48.8096 55.4746L49.9463 56.459Z" fill="black"/>
<path d="M89.0029 85.1196L89.5068 85.4595L90.7373 86.3032L90.6787 86.3853L90.6084 86.4907L90.5264 86.5845L88.9795 88.1665L87.6787 89.9595L87.2803 92.186L87.1865 92.6899L86.8115 93.0298L85.124 94.5649L84.5264 96.2642L84.4795 98.479L84.7256 101.116L84.7373 101.174V101.245L84.749 103.881L84.7607 103.94L84.749 103.999L84.6904 104.936L83.1904 104.842L81.6904 104.737L81.749 103.917L81.7373 101.397L81.4912 98.772L81.4795 98.6782V98.5962L81.5381 95.9478V95.7134L81.6201 95.479L82.4287 93.2173L82.5576 92.8657L82.8271 92.6196L84.4092 91.1431L84.7842 89.104L84.8428 88.7759L85.042 88.4946L86.6123 86.3267L86.6709 86.2446L86.7412 86.1626L88.3701 84.4985L89.0029 85.1196Z" fill="black"/>
<path d="M34.1973 87.96V87.9834L34.209 88.0186L34.8887 90.2568L36.0254 92.2373L37.6191 93.9248L37.9824 94.3115L38.0293 94.8506L38.2168 97.499L38.2285 97.6162L38.2168 97.7451L37.9707 100.382L37.9238 102.854L38.0996 104.612L38.2637 106.241L36.623 106.265H36.459L36.4473 104.776L35.123 104.917L34.9238 103.03V102.854L34.9707 100.218V100.159L34.9824 100.101L35.2168 97.5693L35.0645 95.5771L33.7285 94.1592L33.5996 94.0303L33.5176 93.8779L32.2051 91.6045L32.123 91.4521L32.0762 91.2881L31.3613 88.9561L31.3262 88.8623L34.1621 87.8545L34.1973 87.96Z" fill="black"/>
<path d="M44.4404 94.0464V94.1519H44.4287L44.5107 96.6362V96.7417L44.499 96.8472L44.2295 99.3198L44.4756 101.816L44.4873 101.863V101.91L44.5928 104.546L44.6162 105.121L44.2412 105.566L44.0537 105.8L42.8936 104.839L42.6357 104.617L41.5928 104.664L41.4873 102.027L41.499 102.015L41.2412 99.4722L41.2178 99.3198L41.2412 99.1675L41.5107 96.6362L41.4404 94.187V94.0464H44.4404Z" fill="black"/>
<path d="M78.1592 88V88.0117L78.2998 90.5547V90.6836L78.2881 90.8008L78.0068 93.25L78.2412 95.7812V95.8633L78.3584 98.5V98.582L78.3467 98.6758L78.1475 101.312L78.1357 103.844L78.1592 104.805L76.6592 104.84L75.1592 104.863L75.1357 103.867V103.832L75.1475 101.195V101.137L75.1592 101.078L75.3584 98.5L75.2529 96.0508L75.0186 93.4141L74.9951 93.2617L75.0186 93.1094L75.2998 90.625L75.1592 88.1875V88H78.1592Z" fill="black"/>
<path d="M92.6562 58.6616L92.8555 59.4116L93.125 60.0796L93.0312 60.103L93.043 60.1147H93.0195L90.7812 61.0171L90.6523 61.0757L90.5234 61.0991L88.0273 61.603L85.6367 62.4819L85.5547 62.5171L85.4609 62.5288L82.8477 63.1147L82.1797 63.2671L81.6289 62.8687L81.3477 62.6577L82.2383 61.4507L82.4141 61.2046L82.1914 60.1968L84.6523 59.6343L87.1133 58.7554L87.2188 58.7202L87.3125 58.6968L89.7969 58.1929L92 57.2905L92.0938 57.2671L92.1758 57.2437L92.2695 57.2085L92.6562 58.6616Z" fill="black"/>
<path d="M27.3789 57.2319L27.3672 57.2437L29.8164 57.8647L29.9453 57.8882L30.0742 57.9468L32.3008 58.9663L34.6562 59.3647L37.2461 59.6812L38.0547 59.7749L38.418 60.5015L38.5117 60.7124L37.1758 61.3804L37.0352 61.439L36.8945 62.6577L34.3047 62.353L34.2695 62.3413H34.2344L31.6094 61.896L31.4219 61.8726L31.2344 61.7905L28.9492 60.7358L26.6289 60.1382H26.6172L26.5117 60.1147L27.2852 57.2085L27.3789 57.2319Z" fill="black"/>
<path d="M92.5127 95.2446L92.501 95.3501V97.9399L92.4893 98.0103L92.2432 100.495L92.4189 103.026V103.049L92.5127 104.795L92.6182 106.788L90.6729 106.342L90.4854 106.295L90.8252 104.877L89.5127 104.959L89.4189 103.237L89.2432 100.6L89.2314 100.471L89.2432 100.342L89.501 97.8579V95.3032L89.5127 95.2915V95.1978L92.5127 95.2446Z" fill="black"/>
<path d="M30.2314 95.4766L30.3369 98.0195L30.3486 98.125L30.3369 98.2422L30.0674 100.715L30.3135 103.164L30.4893 104.535L30.665 105.895L29.3174 106.188L29.1299 106.234L28.8018 104.77L28.79 104.746L27.5127 104.91L27.3369 103.551L27.3252 103.527V103.504L27.0674 100.867L27.0557 100.715L27.0791 100.562L27.3486 97.9844L27.2314 95.6055V95.4531L30.2314 95.4297V95.4766Z" fill="black"/>
<path d="M12.9902 84.8022L13.1309 84.8843L13.2598 85.0015L14.7832 86.4312L16.8223 87.5562L17.0098 87.6733L18.4629 88.7866L20.7129 89.1382L21.5332 89.2671L21.8613 90.0288L22.7402 92.0562L22.8691 92.3374L22.8574 92.6655L22.8457 95.3022L23.0332 97.8218V97.9624L22.9629 100.611V100.74L22.6816 103.095L23.0566 104.443L23.5723 106.341H21.3926V104.9L20.1621 105.228L19.7168 103.599L19.6465 103.33L19.6816 103.048L19.9629 100.494L20.0332 98.0327L19.8457 95.396L19.834 95.3374L19.8457 95.2788V92.9351L19.4355 91.9741L17.6426 91.7046L17.2676 91.646L16.9629 91.4116L15.252 90.1108L13.1895 88.9741L13.0254 88.8921L12.8848 88.7632L11.209 87.1929L11.9355 86.4077L12.1465 86.0444L12.9082 84.7437L12.9902 84.8022Z" fill="black"/>
<path d="M107.607 86.249L107.854 86.4482L108.979 87.4443L108.908 87.5146L108.756 87.6904L108.557 87.8076L106.424 89.085L106.225 89.2021L106.014 89.2607L104.256 89.6943L103.764 91.1709L103.084 93.7607L102.99 94.0889L102.768 94.3467L101.068 96.2803L99.9434 97.9678L99.8262 100.112L99.8379 100.124L99.7559 102.761V102.854L99.7441 102.937L99.4277 105.058L98.1621 104.858V106.335H96.2168L96.4629 104.624L96.7676 102.644L96.8379 100.042V99.9951L96.9785 97.3936L97.002 96.9834L97.2363 96.6436L98.6309 94.5459L98.6895 94.4639L98.748 94.3936L100.26 92.6357L100.881 90.3975V90.3623L100.893 90.3271L101.654 87.9834L101.912 87.1982L102.721 86.999L105.076 86.4014L107.021 85.2412L107.607 86.249Z" fill="black"/>
<path d="M50.8135 21.9497L50.8369 22.0786V22.2075L50.8252 24.7388V24.8442L50.626 27.3521L50.7666 29.4966L51.9033 31.1372L52.0557 31.3599L52.126 31.606L52.7939 34.1489L52.9346 34.6646L52.7119 35.1567L51.6221 37.5474L50.5908 37.0669L50.2393 37.0083L48.7627 36.7388L48.7744 36.645L48.8096 36.4692L48.8916 36.2935L49.7588 34.3833L49.2783 32.6138L48.0713 30.8677L47.8252 30.5278L47.8018 30.106L47.626 27.4575L47.6143 27.3521L47.626 27.2466L47.8252 24.7271L47.8369 22.1958H48.7861L49.3252 22.1021L50.8018 21.8442L50.8135 21.9497Z" fill="black"/>
<path d="M15.0664 63.9141L15.2891 64.1602L15.3828 64.4883L16.0391 66.8086L16.8477 68.918L18.3828 70.2305L20.5977 71.168H20.5859L22.8594 72.0938L25.1211 72.4336H25.4023L25.4258 73.9336L25.4609 75.4336H25.0859L24.9688 75.4453L24.8398 75.4219L22.2266 75.0352L22.0508 75.0117L21.875 74.9414L19.4492 73.9336H19.4258L17.0117 72.9023L16.8125 72.8203L16.6367 72.668L14.6211 70.9688L14.3281 70.7227L14.1875 70.3594L13.2383 67.875L13.1914 67.7578L12.5 65.3203L13.7188 64.957L13.8711 64.8281L14.9961 63.832L15.0664 63.9141Z" fill="black"/>
<path d="M71.9229 22.1934L71.9346 22.3223V22.4512L71.876 24.9707V25.041L71.8643 25.0996L71.583 27.5488L71.8291 29.6113L73.1182 31.2637L73.3877 31.6035L73.4229 32.0488L73.6572 34.6973V34.8145L73.6924 37.4629L73.8799 40.0059V40.1348L73.8447 42.7715V42.877L73.6807 44.752L72.3916 44.6348L72.2744 46.1348L72.0635 46.1113L70.5635 45.9941L70.6924 44.4941L70.8447 42.7363L70.8799 40.2168L70.6924 37.5801V37.4863L70.6572 34.8496V34.8379L70.4697 32.7402L69.2158 31.1348L68.958 30.8066L68.9111 30.3848L68.5947 27.7598L68.5713 27.584L68.5947 27.4082L68.8877 24.8652L68.9346 22.3809L69.8838 22.3926L70.4229 22.3223L71.8994 22.0996L71.9229 22.1934Z" fill="black"/>
<path d="M59.1172 2.45264L61.0156 2.59326L61.9297 2.66357L62.2812 3.50732L63.2305 5.78076L63.3242 6.02686L63.3359 6.28467L63.4766 8.94482L63.5 9.31982L63.3359 9.65967L62.457 11.5229L62.9961 13.3862L63.0547 13.5503V13.7261L63.1719 15.9761L63.9219 18.2847L64.0508 18.6948L63.9453 19.105L63.3828 21.3901L63.7461 23.687L63.7695 23.8511L63.7578 24.0034L63.6172 26.3237L63.5234 27.894L61.9648 27.73L59.4453 27.4604L56.9258 27.4956L56.9141 26.1245L56.8438 26.0659L55.7188 25.0698L55.7891 24.9995L56.2344 24.4956H56.8906L59.4688 24.4604H59.6445L60.7109 24.5659L60.7461 23.9448L60.3828 21.5542L60.3359 21.2612L60.4062 20.98L60.9336 18.812L60.2539 16.7261L60.1953 16.5386L60.1836 16.3394L60.0664 14.0425L59.5859 12.3784L58.6484 12.4253L57.5938 12.4722L57.1953 11.4995L56.2227 9.10889L56.1523 8.92139L56.1289 8.71045L55.8242 6.07373L55.7539 5.41748L56.1758 4.92529L57.8633 2.96826L58.3555 2.39404L59.1172 2.45264ZM58.8828 6.37842L59.082 8.17139L59.5625 9.37842L60.1602 9.35498L60.4531 8.72217L60.3477 6.67139L59.8555 5.51123L59.6445 5.48779L58.8828 6.37842Z" fill="black"/>
<path d="M32.5156 77.0703H32.5039L32.6328 79.5664L32.6445 79.6602L32.6328 79.7539L32.4336 82.2148L32.75 84.7344V84.7812L32.7617 84.8281L32.9141 87.4648L32.9258 87.6055L32.9023 87.7578L32.7148 89.1992L31.2383 89V90.5H29.5039L29.7383 88.8008L29.9258 87.5L29.7617 85.0039L29.4453 82.4727L29.4219 82.3203L29.4336 82.168L29.6445 79.5898L29.5156 77.1758V77.1289L29.5039 77.0234L32.5039 76.9766L32.5156 77.0703Z" fill="black"/>
<path d="M45.9971 103.474L46.1143 103.485L48.6104 103.813L49.29 103.778L49.4307 106.778L48.6338 106.813L48.5049 106.825L48.3643 106.802L45.8447 106.474L43.3252 106.556H43.2666L40.665 106.532L38.1924 106.884L37.9932 106.907L37.7822 106.884L35.2627 106.532L32.8018 106.556L32.8135 106.567L30.1768 106.708H30.083L27.458 106.673H27.4463L24.8213 106.638H24.7744L22.29 106.521L20.6729 106.802L20.2393 107.833L20.4033 110.071L20.4736 110.938L19.7354 111.431L19.6533 111.489L18.8213 110.235L18.7979 110.177L17.415 110.294L17.2158 107.704L17.1924 107.341L17.333 107.013L18.2354 104.88L18.5518 104.118L19.3604 103.989L21.9736 103.544L22.126 103.521H22.2783L24.9033 103.638L24.8916 103.649L27.4932 103.673L30.0361 103.708L32.6611 103.579L32.6963 103.567H32.7197L35.3447 103.544L35.4619 103.532L35.5674 103.556L37.9814 103.884L40.4307 103.544L40.5361 103.521L40.6533 103.532L43.2549 103.556L45.8799 103.474H45.9971Z" fill="black"/>
<path d="M39.0938 75.437L39.0703 75.5308V75.5542L38.6016 77.9448L38.1562 80.5581L37.8633 82.9722L37.582 85.1519L35.6602 84.0972L35.5781 84.062L36.2812 82.7612L34.8867 82.5972L35.1914 80.1128V80.0776L35.2031 80.0425L35.6602 77.4409V77.4175L36.1289 75.0269L36.1406 74.9214L39.0938 75.437Z" fill="black"/>
<path d="M86.5156 103.689L86.5039 103.701L88.9062 103.888L91.3789 103.478L91.5547 103.443L91.7305 103.455L94.25 103.642L96.7578 103.466L96.8984 103.455L97.0273 103.478L99.6641 103.771L100.344 103.841L100.73 104.404L101.973 106.208L102.207 106.548L102.23 106.97L102.395 109.607L102.406 109.794L102.371 109.97L102.277 110.474L100.812 110.193L99.3359 109.923L99.3945 109.595L99.2656 107.568L98.6328 106.666L96.7812 106.455L94.3555 106.63L94.25 106.642L94.1445 106.63L91.6719 106.455L89.2344 106.876L89.0469 106.9L88.8594 106.888L86.2109 106.677H86.1875L86.1523 106.666L83.7148 106.373L81.3008 106.712L81.1953 106.736L81.0781 106.724L78.4414 106.701H78.3828L78.3242 106.689L75.8633 106.466L73.4141 106.595L73.4258 106.607L71.6445 106.83L71.1641 107.837L71.2695 110.076L71.3047 110.908L70.6133 111.376L70.5312 111.435L69.6875 110.193L69.6641 110.146L68.2695 110.216L68.1523 107.626L68.1289 107.263L68.293 106.923L69.2891 104.802L69.6406 104.064L70.4492 103.958L73.0391 103.63L73.0977 103.619H73.1445L75.7461 103.466L75.8633 103.455L75.9688 103.466L78.5938 103.701L78.582 103.712L81.0547 103.724L83.5391 103.384L83.7266 103.361L86.5156 103.689Z" fill="black"/>
<path d="M74.4062 68.1841L76.9492 68.5005L79.4336 68.5708L82.0352 68.3833L82.2461 68.3599L82.457 68.4067L84.7656 68.8989L86.7109 69.2974L85.7852 71.0552L84.6367 73.2583L84.6133 73.3052L83.582 75.0864L84.1094 77.0669L84.168 77.2896L84.1562 77.5005L84.0742 79.9263L84.6602 82.1997L84.7188 82.4575L84.6953 82.7153L84.6836 82.8208L83.1953 82.6685L82.9023 82.6333L81.7539 82.938L81.1211 80.4653L81.0625 80.2544L81.0742 80.0435L81.1562 77.6294L80.5352 75.2739L80.3828 74.6763L80.6875 74.1489L82 71.8169L82.1992 71.4185L82.0234 71.3833L79.6094 71.5591L79.5391 71.5708L79.457 71.5591L76.8203 71.4888H76.75L76.6914 71.4771L74.2422 71.1958L71.8281 71.5942L70.6328 71.7935L70.1875 70.6567L70.1055 70.4458L71.5 69.895L71.5352 69.8833L71.3359 68.6294L73.9844 68.1958L74.1953 68.1606L74.4062 68.1841Z" fill="black"/>
<path d="M102.746 76.5015L102.793 76.7124L102.781 76.9233L102.664 79.396L103.051 81.8921L103.062 81.9624V82.0327L103.18 84.1069L104.328 86.0757L104.34 86.0991L104.973 87.2124L102.371 88.689L101.738 87.5991L100.414 85.3257L100.227 85.0093L100.203 84.6577L100.062 82.2085L100.074 82.1968L99.6875 79.7358L99.6641 79.5835V79.4429L99.7812 76.9819L99.2188 74.7554L99.1953 74.6147L99.1719 74.521L100.66 74.2983L101.727 74.146L102.137 74.0405L102.746 76.5015Z" fill="black"/>
<path d="M104.996 67L105.09 67.0938L106.391 67.375L105.863 69.8828L105.781 70.3281L105.453 70.6445L103.578 72.4961L103.543 72.5312L103.508 72.5547L101.516 74.2891L101.41 74.3828L101.281 74.4531L99.0078 75.7539L98.7383 75.918L98.4336 75.9531L95.9844 76.2227L93.5117 76.9141H93.4883L93.4648 76.9258L90.875 77.5352L90.7109 77.582H90.5469L87.4766 77.6055L87.5 76.0703V75.9766L89 75.9883L88.9883 74.5938L90.3242 74.582L92.7617 74.0078L95.2578 73.3164L95.3633 73.2812L95.4805 73.2695L97.7773 73L99.6172 71.9453L101.539 70.293L103.016 68.8164L103.461 66.7539L103.555 66.2852L103.918 65.957L103.988 65.8984L104.996 67Z" fill="black"/>
<path d="M81.3896 87.0801L83.792 87.4316L86.2295 87.4082H86.3818L86.3467 88.9082L86.3232 90.4082H86.2646L83.7686 90.4316H83.6396L83.5342 90.4199L81.1318 90.0684L78.7061 90.3613L78.624 90.373H78.5537L76.2803 90.4082L75.0146 90.4316L74.7803 89.1895L74.7451 89.002L76.2217 88.7207L76.2451 88.709L76.2334 87.4082L78.4248 87.3848L80.9912 87.0684L81.1904 87.0449L81.3896 87.0801Z" fill="black"/>
<path d="M38.0977 87.1299L40.6758 87.3408L43.1016 87.2236H43.2305L43.3008 90.2236H43.2305L40.6875 90.3408H40.5938L40.5 90.3291L37.9922 90.1182L35.4844 90.3643L35.4727 90.3525L33.4805 90.6455L32.2617 90.8213L31.8516 89.6494L31.793 89.4736L33.2109 88.9814L33.2344 88.9697L33.0586 87.6807L35.1328 87.3877L35.168 87.376H35.2031L37.8398 87.1299L37.9688 87.1182L38.0977 87.1299Z" fill="black"/>
<path d="M90.1299 75.7134H90.1182L90.2236 78.2095L90.2354 78.4204L90.1768 78.6431L89.5322 81.1157L89.2979 83.1431L90.2119 84.8188L91.4189 87.0454L88.8877 87.0337H88.6885V85.6274L87.5752 86.2485L86.4385 84.1626L86.2158 83.7407L86.2627 83.2603L86.5791 80.647L86.5908 80.5532L86.6143 80.4595L87.2354 78.0688L87.1299 75.7837V75.7251L87.1182 75.6313L90.1182 75.6079L90.1299 75.7134Z" fill="black"/>
<path d="M62.7139 31.7188L62.7607 32.9023L62.8076 33.207H62.7725L62.7139 33.2188L60.335 33.5352L60.1592 33.5586L59.9834 33.5469L57.6396 33.3008L56.6084 33.5586L54.8506 33.9805L54.7686 32.1758L54.7568 32.0938L56.2451 32.0117L55.9053 30.6406L57.1943 30.3359L57.4404 30.2656L57.6982 30.3008L60.1357 30.5469L62.4209 30.2422L62.4795 30.2305H62.5498L62.6436 30.2188L62.7139 31.7188Z" fill="black"/>
<path d="M39.0781 47.0039L39.1719 47.0156L39.2656 47.0391L41.6094 47.7891L43.7891 48.3516L44.7852 48.0938L46.4258 47.6719L46.6484 49.3477L46.6602 49.4297L45.1719 49.6172L45.5352 51L44.1758 51.3516L43.8008 51.4453L43.4258 51.3516L40.8594 50.6953L40.8242 50.6836L40.7773 50.6719L38.3633 49.9102L38.5742 49.2305L38.7148 48.457L38.9844 46.9805L39.0781 47.0039Z" fill="black"/>
<path d="M72.8896 43.5063L74.7412 44.5962L75.5146 45.0532L75.4795 45.9438L75.4092 47.6548L76.1475 48.0884L78.0576 48.0181L80.1201 47.0571L80.7412 46.7642L81.374 47.0571L81.4678 47.0923L80.8467 48.4517L80.7998 48.5337L81.3975 49.7759L79.0654 50.8657L78.7842 50.9946L78.4795 51.0063L75.8428 51.1118L75.4092 51.1353L75.0225 50.9126L73.1357 49.811L72.3623 49.354L72.3975 48.4517L72.4561 46.729L71.7998 46.3423L69.6436 46.6118H69.5615L67.1123 46.6001H67.0889L65.7764 46.5767L65.8232 43.5767L67.1357 43.6001L67.124 43.6118H69.4795L71.9521 43.3071L72.4561 43.2485L72.8896 43.5063Z" fill="black"/>
<path d="M70.2002 30.9614L70.3525 30.9849L71.8174 31.2661L71.8057 31.3599L71.7236 31.8052L71.4072 32.1216L69.9072 33.6802L69.2861 35.5552L69.5557 37.8521V37.8638L69.8369 40.4888L69.8486 40.606V40.7114L69.7197 43.3716V43.395L69.6494 44.6255L66.6494 44.438L66.7314 43.2075L66.8486 40.6528L66.5791 38.1919L66.2744 35.5435L66.2393 35.2153L67.2822 32.0864L67.5166 31.8403L69.251 30.0474L70.2002 30.9614Z" fill="black"/>
<path d="M45.4824 67.8667L46.6309 69.9995L48.248 71.8979L48.9395 72.7183L48.3887 73.6323L47.2051 75.6479L47.0879 75.8472L46.9121 75.9995L44.9434 77.7573L44.7324 77.9448L44.4863 78.0386L42.2012 78.9175L41.4629 79.1987L40.8184 78.7534L38.8262 77.3589V77.3706L36.5059 76.0229L36.1426 75.8003L35.9434 75.437L34.6895 73.1167L34.6543 73.0347L34.6191 72.9644L33.7285 70.7495L34.877 70.2808L34.7363 70.2573L35.3457 67.3276L36.3535 67.5386L38.7793 67.3745L38.873 67.3628L38.9551 67.3745L41.4043 67.5151L43.9238 67.0933L44.9668 66.9175L45.4824 67.8667ZM41.7676 70.4917L41.6035 70.5151L41.4395 70.5034L38.8965 70.3628L36.8574 70.5034L37.3613 71.7339L38.3691 73.6323L40.3379 74.7808L40.3848 74.8042L40.4316 74.8394L41.8613 75.8237L43.1387 75.3315L44.7207 73.9136L45.2598 73.0229L44.2637 71.8628L44.1699 71.7339L44.0879 71.5933L43.3496 70.2222L41.7676 70.4917Z" fill="black"/>
<path d="M74.0469 81.6172L76.543 81.6992L76.5312 81.7109L79.1445 81.7344H79.2031L81.8516 81.875L81.9922 81.8867L82.1211 81.9219L84.5 82.4961H87.0195L87.125 82.5078L86.9961 83.9961L86.9023 85.1914V85.4961H84.1719L83.9961 85.4492L81.5234 84.8633L79.0508 84.7344V84.7227L76.4844 84.6992H76.4609L73.9531 84.6172L74 83.1289L72.5117 83.2695L72.5 83.2578L72.3477 81.5703L74.0469 81.6172Z" fill="black"/>
<path d="M97.8945 88.3477L100.438 88.6523L102.945 88.7109H102.98L103.027 91.7109H102.852L100.32 91.6406H100.262L100.191 91.6289L97.707 91.3477L95.293 91.6875H95.2578L92.6328 91.9688L92.5508 91.9805H92.4688L89.9375 91.9688L87.4531 92.168L86.5625 92.3203L86.3398 91.043L86.2344 90.9961L84.8867 90.3398L84.957 90.1875L85.2969 89.5078L86.0469 89.3672L86.9258 89.2148L87.0664 89.1914L89.6914 88.9688H89.8203L92.3164 88.9805L94.9414 88.6992V88.7109L97.5195 88.3594L97.707 88.3242L97.8945 88.3477Z" fill="black"/>
<path d="M63.8516 25.6709L63.9219 25.835L63.9453 26.0107L64.3086 28.542L64.332 28.7061L64.3203 28.8701L64.2148 30.1357L64.9414 30.2646L66.1484 30.4639L66.1953 31.6826V31.7764L64.6953 31.835H64.6719L64.4492 33.2178L62.3867 32.8896L61.0273 32.667L61.1328 31.2842L61.3203 28.7998L60.9805 26.4443L62.0469 26.292L62.4219 26.1396L63.8164 25.5771L63.8516 25.6709Z" fill="black"/>
<path d="M97.1318 81.6748L99.1709 81.9443L101.163 82.0498H101.233L101.116 85.0498L101.011 85.0381H100.987L98.9834 84.9326L98.9365 84.9209H98.8779L97.0264 84.6748L96.2295 84.874L94.3193 85.3193L94.3896 83.3623V83.2803L95.8779 83.3154L95.5498 81.9561L96.6045 81.71L96.8623 81.6514L97.1318 81.6748Z" fill="black"/>
<path d="M58.1602 11.1167L58.5352 11.1636L60.0234 11.3745L60 11.4683L59.9766 11.6558L59.9062 11.8433L59.0859 13.812V15.8745L59.0742 15.98L58.6992 18.3472L58.957 19.9644L59.2266 21.6987H57.2812V20.2222L55.9922 20.4214L55.7109 18.5815L55.6758 18.3589L55.7109 18.1245L56.0859 15.687V13.2144L56.1914 12.9331L57.1289 10.6831L58.1602 11.1167Z" fill="black"/>
<path d="M20.0352 92.5898L22.6484 92.2852L22.6367 92.2734L25.2031 92.1211L25.1914 92.1094L27.8047 92.0508H27.9336L28.0742 92.0156L30.4883 91.5L32.8906 91.5117H32.9609L33.0312 91.5H33.1367L32.9961 90L32.9023 88.9219V88.5117L30.3594 88.5H30.1953L30.043 88.5352L27.582 89.0625L25.0625 89.1328H25.0156L22.3789 89.2969H22.3438L22.2969 89.3086L19.8477 89.6016L17.4453 89.4141L17.375 89.3906L17.3633 89.4141L17.3398 89.4023L17.3164 89.5898L17 90.8438L16.625 92.2969L16.8477 92.3555L16.9766 92.3789L17.1055 92.3906L19.7422 92.5898L19.8828 92.6016L20.0352 92.5898Z" fill="black"/>
<path d="M19.123 83.2549L19.5098 83.5713L20.377 84.04L19.2871 86.0908L19.0996 86.4424L18.7598 86.6533L17.0723 87.708L16.7676 88.4346L16.2051 89.7236L14.8809 89.2432L14.7988 89.2197L15.3027 87.8018V87.79L14.0137 87.2393L14.5059 86.1025L14.6816 85.6807L15.0801 85.4229L16.8145 84.3213L17.7285 82.6221L17.8105 82.4932L17.9043 82.3643L17.9746 82.2939L19.123 83.2549Z" fill="black"/>
<path d="M42.5 81.8164L45.1484 82.0273L45.1367 82.0391L46.1094 82.0977L46.0039 83.5859L45.8867 85.0859L44.9141 85.0156L42.3828 84.8047L39.8633 84.8164L37.3672 84.9453L37.3789 84.957L34.7773 85.168L34.7891 85.1797L32.2812 85.4844H32.1641L32.0586 85.4961L32 83.9961L31.9531 82.7773L31.918 82.4961L34.4258 82.2031L34.4609 82.1914H34.4844L37.1211 81.9688H37.1445L37.168 81.957L39.6875 81.8164H42.5Z" fill="black"/>
<path d="M106.829 82.3047L107.075 83.7812H107.017L105.095 84.2148L105.001 84.2383H104.896L102.95 84.3906L102.083 84.6953L100.032 85.375L100.114 83.2188V83.125L101.591 83.1719L101.134 81.8477L102.165 81.4961L102.341 81.4492L102.517 81.4258L104.579 81.2617L106.407 80.8516L106.442 80.8398H106.478L106.571 80.8164L106.829 82.3047Z" fill="black"/>
<path d="M57.5635 18.7998H57.7041L57.833 18.8232L59.7197 19.1982H61.876L61.9697 19.21L61.8291 20.71L61.7354 21.7646V22.1982H59.4619L59.3096 22.1748L57.3643 21.7881H56.3799L54.751 21.7646L54.9033 20.1475L54.915 20.0654L56.4033 20.1826L56.415 18.7881L57.5635 18.7998Z" fill="black"/>
<path d="M48.9521 30.9614L49.1396 30.9849L50.6162 31.231L50.6045 31.3364L50.5342 31.6997L50.3115 32.0044L49.0693 33.5864L48.6826 35.6724L48.8467 38.145L48.8584 38.1685V38.1919L48.9287 40.8403V41.0044L48.7178 43.6411L48.7295 44.6958L47.2295 44.7075L45.7295 44.731L45.7178 43.5356V43.395L45.9287 40.9224L45.8584 38.3325L45.6826 35.6841L45.6709 35.5083L45.7061 35.3208L46.1865 32.7075L46.2451 32.356L46.4678 32.063L47.9326 30.1646L48.9521 30.9614Z" fill="black"/>
<path d="M52.499 35.5L52.6631 38.043V38.1719L52.6514 38.3008L52.3701 40.75L52.5928 43.293V43.3281L52.6865 44.9102L52.7803 46.5039H50.999V45.0039L49.6982 45.0859L49.6045 43.5508L49.3818 40.9023L49.3701 40.7617L49.3818 40.6094L49.6631 38.125L49.499 35.6992V35.5H52.499Z" fill="black"/>
<path d="M75.6768 44.2295L75.8525 44.71L76.3447 46.1279L76.251 46.1631L76.1104 46.21L75.9697 46.2334L75.5479 46.2803L75.1143 48.167L73.2275 46.4795L73.1572 46.4209L74.1416 45.3193L72.7705 45.0146L72.876 44.5693L73.1221 43.5264L74.1885 43.4209L74.9854 43.3389V43.3506L75.5479 43.2568L75.6768 44.2295Z" fill="black"/>
</g>
<defs>
<clipPath id="clip0_400_251">
<rect width="96" height="113" fill="white" transform="translate(12 3)"/>
</clipPath>
</defs>
</svg>
