<svg width="120" height="120" viewBox="0 0 120 120" fill="none" xmlns="http://www.w3.org/2000/svg">
<g clip-path="url(#clip0_490_111)">
<path d="M111.312 114.289L112.355 114.547L111.652 117.453L110.891 117.266L108.547 117.629L108.453 117.652H108.359L105.723 117.723H105.582L103.051 117.301L100.672 117.734L100.438 117.781L100.203 117.746L97.6367 117.406H95.2344L92.5977 117.629L92.4922 117.641L92.3984 117.629L89.75 117.477V117.465L87.2773 117.348L84.7812 117.734L84.582 117.77L84.3945 117.746L81.8516 117.453L79.2969 117.477L79.2852 117.465L76.7773 117.711L76.6133 117.723L76.4492 117.699L73.918 117.383L71.3867 117.43H71.3281L68.6914 117.371H68.6445L66.1719 117.23L63.7109 117.699L63.4766 117.746L63.2305 117.711L60.7227 117.348L58.2383 117.488H58.0156L55.5898 117.242L53.1406 117.676L52.8828 117.723L52.6133 117.676L50.1172 117.242L47.6914 117.395H47.668L47.6445 117.406L42.3711 117.57H42.2539L42.1367 117.559L39.5938 117.254L37.1328 117.418L37.0508 117.43L36.957 117.418L34.5078 117.277L32 117.699L31.7891 117.734L31.5781 117.711L29.0234 117.395L26.5391 117.324L23.9492 117.512L23.8906 117.523H23.832L21.1953 117.512H21.0781L18.5 117.301L16.0508 117.395L16.0625 117.406L13.4258 117.664L13.2734 117.676L13.1211 117.664L10.625 117.395L8.16406 117.5H8V114.5H8.03516L10.5781 114.395L10.6836 114.383L10.8008 114.395L13.2852 114.664L15.7695 114.418H15.8633L18.5 114.312L18.5938 114.301L18.6758 114.312L21.3125 114.512L21.3008 114.523H23.7383L26.375 114.336L26.4453 114.324L26.5273 114.336L29.1641 114.406H29.2344L29.293 114.418L31.7305 114.699L34.1562 114.301L34.3203 114.277L34.4844 114.289L37.0156 114.43L39.582 114.254L39.7227 114.242L39.8633 114.266L42.3711 114.57L44.9141 114.488L47.5039 114.418V114.406L50.1523 114.242L50.3281 114.23L50.5039 114.266L52.8828 114.688L55.2617 114.266L55.4609 114.23L55.6602 114.242L58.1328 114.488L60.7227 114.348L60.8633 114.336L61.0156 114.359L63.418 114.711L65.8086 114.266L65.9844 114.23L66.1602 114.242L68.7969 114.371L68.7852 114.383L71.3633 114.43L73.9766 114.383H74.082L74.1875 114.395L76.6836 114.711L79.1445 114.477H79.2734L81.9102 114.453H82.0039L82.0859 114.465L84.5469 114.746L86.9727 114.371L87.125 114.348L87.2773 114.359L89.9141 114.488H89.9258L92.4453 114.641L95 114.43L95.0586 114.418H95.1055L97.7539 114.406H97.8594L97.9648 114.418L100.367 114.746L102.77 114.312L103.027 114.266L103.285 114.301L105.816 114.723L108.137 114.664L110.738 114.266L111.031 114.219L111.312 114.289Z" fill="black"/>
<path d="M100.816 114.383L103.348 114.7L105.844 114.747L106.5 114.711L106.582 116.211L106.652 117.711L105.973 117.747H105.867L103.23 117.688H103.148L103.078 117.676L100.547 117.372L98.0156 117.395L95.4961 117.665L95.3438 117.688L95.1914 117.665L92.7188 117.418L90.3398 117.7L90.2578 117.711H90.082L90.0703 116.211V115.262L90 114.723H90.0703L90.1055 114.711L92.5195 114.43L92.6836 114.407L92.8477 114.418L95.332 114.676L97.8281 114.407H97.9688L100.605 114.372L100.711 114.36L100.816 114.383Z" fill="black"/>
<path d="M25.8457 114.348L28.4004 114.688L30.8496 114.711H30.9434L30.9316 116.211L30.9082 117.711H30.8145L28.2715 117.676H28.1777L28.0957 117.665L25.6465 117.348L23.1621 117.583L23.127 117.594H23.1035L20.4668 117.735L20.3848 117.747L20.3027 117.735L17.6895 117.606L15.1699 117.665L15.1816 117.676L14.502 117.711L14.3379 114.711L15.0059 114.676H15.0527L17.7012 114.606H17.8184L20.3613 114.747L22.9277 114.594V114.606L25.5176 114.348L25.6816 114.325L25.8457 114.348Z" fill="black"/>
<path d="M65.4219 87.8594L65.5156 90.5195V90.6484L65.4922 90.7891L65.1055 93.4141L64.918 95.9336V98.6172L64.6484 101.242V101.312L64.6367 101.371L64.168 103.762L64.4023 106.234L64.4141 106.398L64.3906 106.551L64.0625 109.082V111.789L64.0391 111.93L63.5234 114.531L63.4766 114.754L63.3711 114.953L62.4336 116.723L62.0234 117.484L61.1562 117.508L58.5195 117.602L57.4648 117.637L57.0781 116.652L56.1875 114.402L56.0586 114.062L56.0938 113.699L56.3398 111.297L55.7539 108.953L55.707 108.754V108.555L55.7656 106.012L55.4492 103.504L55.4375 103.352L55.4492 103.211L55.625 100.785L55.0039 98.4297L54.957 98.2656V98.0898L54.8984 95.4883L54.7695 92.8516L54.7812 92.8398L54.5469 90.2734L54.5352 90.1562L54.5469 90.0273L54.6406 88.9844L50.5742 86.8867L55.8945 86.5L56.1055 86.4883L57.8516 86.3594L57.8398 86.4414L58.5547 86.3945L58.6719 86.3828L58.8008 86.3945L61.2852 86.6641L63.7695 86.418L65.3633 86.2656L65.4219 87.8594ZM57.5938 89.4531L57.5352 90.1328L57.7695 92.6406V92.6992L57.8984 95.3359V95.3828L57.9453 97.8906L58.5781 100.281L58.6484 100.516L58.625 100.762L58.4375 103.293L58.7539 105.754L58.7773 105.859L58.7656 105.977L58.707 108.426L59.3164 110.828L59.375 111.086L59.3516 111.344L59.1055 113.629L59.4688 114.566L60.1836 114.543L60.6172 113.723L61.0625 111.473L61.0742 108.988V108.895L61.0859 108.801L61.3906 106.316L61.168 103.844L61.1445 103.633L61.1914 103.422L61.6836 100.809L61.918 98.4648V95.7578L61.9297 95.7109L62.1172 93.0742L62.1289 93.0156L62.1406 92.9688L62.5039 90.4492L62.4688 89.5586L61.4258 89.6641L61.2734 89.6758L61.1211 89.6641L58.5664 89.3828L57.5938 89.4531Z" fill="black"/>
<path d="M65.0078 14.793L64.9961 14.8047L67.4219 15.6836L67.4102 15.6953L69.8711 16.4453L70.0117 16.4922L70.1523 16.5625L72.4844 17.8516L73.2461 18.2734L73.2578 19.1523L73.2812 21.3438L73.7266 23.8516L73.7383 23.9453V24.0391L73.8555 26.6875L73.8672 26.8281L73.8438 26.9688L73.4922 29.3477L73.9727 31.7383L74.0078 31.9609L73.9844 32.207L73.6797 34.8438L73.75 37.2695L74.0078 39.8008L74.0195 39.9062L74.0078 40.0117L73.9023 42.6484L73.832 45.1211L74.3242 47.5469L74.3477 47.7109V47.8867L74.2773 50.3594L74.5234 52.9844L74.9688 55.4688L75.0039 55.6328L74.9922 55.7969L74.8984 58.3398L75.168 60.8711V60.918L75.3438 63.543L75.543 65.9805L76.4336 68.2656L76.5039 68.4648L76.5273 68.6641L76.7617 71.125L77.5938 73.4453L77.6406 73.5859L78.2266 75.918L79.5508 77.9805L79.6797 78.168L79.7383 78.3789L80.4062 80.7578L81.6836 82.7734L83.125 84.9414L84.6602 87.0859L84.7305 87.1797L84.7773 87.2734L85.9258 89.5352L87.4492 91.5156L87.5078 91.5859L87.543 91.6562L88.8203 93.8008L90.543 95.6172L90.6836 95.7695L90.7773 95.9688L91.9727 98.2891L93.2852 100.375L94.8789 102.414L94.9141 102.461L94.9375 102.508L96.4023 104.699L96.4375 104.746L96.4609 104.793L97.6914 106.996L99.1797 109.023L100.855 111.074L100.949 111.191L101.02 111.32L102.203 113.559L103.656 115.527L103.668 115.551L103.691 115.586L103.75 115.668L102.496 116.5L101.254 117.332L101.23 117.297L99.7305 115.258L99.6602 115.164L99.6133 115.07L98.4297 112.855L96.8594 110.922L96.8242 110.887L96.8008 110.852L95.2422 108.719L95.1484 108.578L93.9062 106.363L92.4414 104.16H92.4297L90.8828 102.168L90.8359 102.109L90.8008 102.051L89.3828 99.8125L89.3477 99.7539L89.3242 99.6953L88.1875 97.4922L86.5234 95.7227L86.4062 95.6055L86.3242 95.4648L85.0703 93.3438L83.4531 91.2461L83.3711 91.1289L83.3125 91.0117L82.1641 88.75L80.6875 86.6875L80.6641 86.6641L80.6523 86.6406L79.1875 84.4375L79.1641 84.4141L77.7461 82.1641L77.6289 81.9883L77.5703 81.7773L76.9023 79.3867L75.5781 77.3359L75.4492 77.1367L75.3906 76.9023L74.7695 74.4648L73.8789 71.9688L73.8203 71.793L73.7969 71.6055L73.5508 69.1445L72.6719 66.8477L72.5898 66.6367L72.5664 66.4258L72.3555 63.7773V63.7656L72.1797 61.1758L71.9102 58.5508L71.8984 58.4453V58.3398L71.9805 55.8438L71.5469 53.3945L71.5352 53.3359V53.2656L71.2891 50.6406L71.2773 50.5469V50.4648L71.3359 47.9805L70.8555 45.5195L70.8203 45.3555L70.832 45.1914L70.9141 42.543V42.5312L70.9961 39.9414L70.7617 37.457L70.75 37.4102V37.3516L70.6914 34.7148L70.6797 34.6094L70.6914 34.5039L70.9727 32.1016L70.5039 29.6875L70.4453 29.4297L70.4922 29.1836L70.8555 26.6875L70.7617 24.3672L70.3164 21.7305L70.293 21.6133V21.4961L70.2695 20.0547L68.8164 19.2578L66.4492 18.5195L66.3789 18.4961L63.9062 17.582L63.8359 17.5586L63.4141 17.3828L64.5859 14.6172L65.0078 14.793Z" fill="black"/>
<path d="M55.4922 14.293L55.5039 14.3047L53.0781 15.1836L53.0898 15.1953L50.6289 15.9453L50.4883 15.9922L50.3477 16.0625L48.0156 17.3516L47.2539 17.7734L47.2422 18.6523L47.2188 20.8438L46.7734 23.3516L46.7617 23.4453V23.5391L46.6445 26.1875L46.6328 26.3281L46.6562 26.4688L47.0078 28.8477L46.5273 31.2383L46.4922 31.4609L46.5156 31.707L46.8203 34.3438L46.75 36.7695L46.4922 39.3008L46.4805 39.4062L46.4922 39.5117L46.5977 42.1484L46.668 44.6211L46.1758 47.0469L46.1523 47.2109V47.3867L46.2227 49.8594L45.9766 52.4844L45.5312 54.9688L45.4961 55.1328L45.5078 55.2969L45.6016 57.8398L45.332 60.3711V60.418L45.1562 63.043L44.957 65.4805L44.0664 67.7656L43.9961 67.9648L43.9727 68.1641L43.7383 70.625L42.9062 72.9453L42.8594 73.0859L42.2734 75.418L40.9492 77.4805L40.8203 77.668L40.7617 77.8789L40.0938 80.2578L38.8164 82.2734L37.375 84.4414L35.8398 86.5859L35.7695 86.6797L35.7227 86.7734L34.5742 89.0352L33.0508 91.0156L32.9922 91.0859L32.957 91.1562L31.6797 93.3008L29.957 95.1172L29.8164 95.2695L29.7227 95.4688L28.5273 97.7891L27.2148 99.875L25.6211 101.914L25.5859 101.961L25.5625 102.008L24.0977 104.199L24.0625 104.246L24.0391 104.293L22.8086 106.496L21.3203 108.523L19.6445 110.574L19.5508 110.691L19.4805 110.82L18.2969 113.059L16.8438 115.027L16.832 115.051L16.8086 115.086L16.75 115.168L18.0039 116L19.2461 116.832L19.2695 116.797L20.7695 114.758L20.8398 114.664L20.8867 114.57L22.0703 112.355L23.6406 110.422L23.6758 110.387L23.6992 110.352L25.2578 108.219L25.3516 108.078L26.5938 105.863L28.0586 103.66H28.0703L29.6172 101.668L29.6641 101.609L29.6992 101.551L31.1172 99.3125L31.1523 99.2539L31.1758 99.1953L32.3125 96.9922L33.9766 95.2227L34.0938 95.1055L34.1758 94.9648L35.4297 92.8438L37.0469 90.7461L37.1289 90.6289L37.1875 90.5117L38.3359 88.25L39.8125 86.1875L39.8359 86.1641L39.8477 86.1406L41.3125 83.9375L41.3359 83.9141L42.7539 81.6641L42.8711 81.4883L42.9297 81.2773L43.5977 78.8867L44.9219 76.8359L45.0508 76.6367L45.1094 76.4023L45.7305 73.9648L46.6211 71.4688L46.6797 71.293L46.7031 71.1055L46.9492 68.6445L47.8281 66.3477L47.9102 66.1367L47.9336 65.9258L48.1445 63.2773V63.2656L48.3203 60.6758L48.5898 58.0508L48.6016 57.9453V57.8398L48.5195 55.3438L48.9531 52.8945L48.9648 52.8359V52.7656L49.2109 50.1406L49.2227 50.0469V49.9648L49.1641 47.4805L49.6445 45.0195L49.6797 44.8555L49.668 44.6914L49.5859 42.043V42.0312L49.5039 39.4414L49.7383 36.957L49.75 36.9102V36.8516L49.8086 34.2148L49.8203 34.1094L49.8086 34.0039L49.5273 31.6016L49.9961 29.1875L50.0547 28.9297L50.0078 28.6836L49.6445 26.1875L49.7383 23.8672L50.1836 21.2305L50.207 21.1133V20.9961L50.2305 19.5547L51.6836 18.7578L54.0508 18.0195L54.1211 17.9961L56.5938 17.082L56.6641 17.0586L57.0859 16.8828L55.9141 14.1172L55.4922 14.293Z" fill="black"/>
<path d="M43.0513 90.7915L44.9148 89.1091L46.5201 87.1176L46.5279 87.1088L48.1966 85.064L48.5996 84.5598L49.2527 84.5145L49.3851 84.507L49.4947 86.003L49.4934 86.1276L50.528 86.9571L48.8594 89.002L47.1916 91.0634L47.1214 91.1421L47.0346 91.2217L45.1477 92.9303L43.6494 94.9075L43.5957 94.9852L43.5411 95.0464L41.8 96.8381L40.5019 98.9782L40.3876 99.1589L40.2297 99.3007L38.2725 101.088L38.2638 101.08L36.6619 102.839L35.0875 104.937L35.0572 104.988L35.0182 105.032L33.2796 107.014L33.2015 107.102L31.3699 108.907L29.827 110.828L28.306 112.989L28.2133 113.111L28.1031 113.217L26.2268 114.966L24.7404 116.86L24.6312 116.982L22.3621 115.019L22.3855 114.993L23.9743 113.002L24.0358 112.916L24.1226 112.836L25.9755 111.113L27.3882 109.091L27.4506 109.021L29.093 106.953L29.2101 106.821L31.0271 105.05L31.0184 105.043L32.6955 103.147L32.6867 103.139L34.2767 101.024L34.3148 100.963L34.3616 100.911L36.1518 98.9588L36.1908 98.9151L36.2464 98.8705L38.0699 97.2152L39.3455 95.1179L39.4295 94.9886L39.5388 94.8663L41.2955 93.0571L42.863 90.9847L42.9401 90.8808L43.0513 90.7915Z" fill="black"/>
<path d="M76.5571 90.7915L74.6936 89.1091L73.0883 87.1176L73.0805 87.1088L71.4118 85.064L71.0088 84.5598L70.3557 84.5145L70.2233 84.507L70.1137 86.003L70.115 86.1276L69.0804 86.9571L70.749 89.002L72.4168 91.0634L72.487 91.1421L72.5738 91.2217L74.4607 92.9303L75.959 94.9075L76.0126 94.9852L76.0673 95.0464L77.8084 96.8381L79.1065 98.9782L79.2208 99.1589L79.3787 99.3007L81.3359 101.088L81.3446 101.08L82.9465 102.839L84.5209 104.937L84.5512 104.988L84.5902 105.032L86.3288 107.014L86.4069 107.102L88.2385 108.907L89.7814 110.828L91.3024 112.989L91.3951 113.111L91.5053 113.217L93.3816 114.966L94.868 116.86L94.9772 116.982L97.2463 115.019L97.2229 114.993L95.6341 113.002L95.5726 112.916L95.4858 112.836L93.6329 111.113L92.2202 109.091L92.1578 109.021L90.5153 106.953L90.3983 106.821L88.5813 105.05L88.59 105.043L86.9129 103.147L86.9217 103.139L85.3317 101.024L85.2936 100.963L85.2467 100.911L83.4566 98.9588L83.4176 98.9151L83.362 98.8705L81.5385 97.2152L80.2629 95.1179L80.1789 94.9886L80.0696 94.8663L78.3129 93.0571L76.7454 90.9847L76.6683 90.8808L76.5571 90.7915Z" fill="black"/>
<path d="M61.6758 51.3125L64.3125 51.5117L64.3008 51.5234H66.9844L67.125 51.5469L69.457 52.0039L70.6992 52.25L70.6641 53.5273L70.5938 56.1641V56.2344L70.582 56.293L70.3008 58.7305L70.6992 61.1562L70.9102 62.457L69.6445 62.832L67.3945 63.5117L67.2305 63.5586L64.418 63.7461L64.2773 63.7578L64.1367 63.7344L61.6172 63.4297L59.0859 63.5117L56.4844 63.582L56.4961 63.5938L53.8477 63.7578L53.6719 63.7695L53.4961 63.7344L50.8594 63.2773L49.8164 63.0898L49.6406 62.0352L49.2656 59.7266L49.2305 59.5273L49.2422 59.3398L49.4883 56.8438L49.3477 54.2773V54.1484L49.3594 54.0078L49.5117 52.8125L49.6758 51.5H51.0352L53.5781 51.3945L53.6836 51.3828L53.8008 51.3945L56.2852 51.6641L58.7695 51.418H58.8633L61.5 51.3125L61.5938 51.3008L61.6758 51.3125ZM59.0508 54.3945L59.0625 54.4062L56.4258 54.6641L56.2734 54.6758L56.1211 54.6641L53.625 54.3945L52.3594 54.4414L52.4883 56.7617V56.9844L52.2422 59.4102L52.4297 60.5L53.8711 60.7461L56.3086 60.6055H56.332L56.3555 60.5938L61.6289 60.4297H61.7461L61.8633 60.4414L64.3945 60.7344L66.6797 60.5938L67.5117 60.3359L67.3008 59L67.2656 58.7891L67.2891 58.5781L67.5938 56.0234L67.6289 54.6992L66.7148 54.5117H64.0781L61.5 54.3008L59.0508 54.3945Z" fill="black"/>
<path d="M59.8008 70.6055L62.4375 70.3242L63.2812 70.2305L63.6445 69.457L64.4531 67.7109L64.5703 67.4414L64.582 67.1367L64.6875 64.5L64.6992 64.3477L64.6758 64.1953L64.2773 61.7695L64.0781 60.5039L62.7891 60.5156H60.1523V60.5273L57.6328 60.3398L56.3906 60.2461L56.0742 61.4414L55.4531 63.7266L55.3828 64.0078L55.418 64.3008L55.6992 66.7383L55.3125 68.7188L54.9609 70.5H57.6211L57.6445 70.4648L59.5312 70.6055L59.6719 70.6172L59.8008 70.6055ZM58.582 67.5352L58.6875 67.043L58.7344 66.8203L58.7109 66.5859L58.4297 64.2539L58.6406 63.4219L60.0469 63.5156H61.5234L61.6875 64.5586L61.6055 66.7148L61.2656 67.4297L59.5781 67.6172L58.582 67.5352Z" fill="black"/>
<path d="M62.6758 70.6875L65.3125 70.4883L65.3008 70.4766H69.1562L69.332 69.1758L69.6602 66.7148L69.6719 66.5977V66.4805L69.5898 63.832V63.4922L69.4258 63.1992L68.5703 61.5352L68.2305 60.8555L67.4805 60.7383L64.8438 60.3047L64.6797 60.2812H64.5156L61.9727 60.4219L59.418 60.2578L59.2773 60.2461L59.1367 60.2578L56.6172 60.5742L54.0859 60.4922L53.8516 60.4805L53.6289 60.5391L51.4844 61.1602L50.4648 61.4531L50.4062 62.5078L50.2422 65.1445L50.2305 65.3203L50.2656 65.4961L50.6875 67.8984L50.5234 68.7305L50.207 70.5H52.0352L54.5781 70.6055L54.6836 70.6172L54.8008 70.6055L57.2852 70.3359L59.7695 70.582H59.8633L62.5 70.6875L62.5938 70.6992L62.6758 70.6875ZM60.0508 67.6055L60.0625 67.5938L57.4258 67.3359L57.2734 67.3242L57.1211 67.3359L54.625 67.6055L53.6641 67.5703L53.2422 65.1445L53.3242 63.7617L54.25 63.4922L56.6289 63.5742H56.7461L56.8633 63.5625L59.3359 63.2578L61.8672 63.4219H62.043L64.4805 63.293L66.25 63.5859L66.5898 64.2539L66.6602 66.4453L66.5195 67.4883H65.0781L62.5 67.6992L60.0508 67.6055Z" fill="black"/>
<path d="M58.1562 8.53516L59.9844 8.39453L60.1484 8.38281L60.3008 8.40625L62.6094 8.72266L63.6406 8.86328L63.8633 9.88281L64.4375 12.4727L64.4492 12.5195V12.5547L64.8828 15.168L64.8945 15.25V15.3438L65 17.957L65.3047 20.5L65.375 21.0977L65.0234 21.5781L63.8984 23.0664L63.4297 23.6875L62.6562 23.6641L60.0195 23.5938H59.9492L59.8789 23.582L57.2422 23.2773L56.8789 23.2305L56.5742 23.0195L55.0859 22L54.2891 21.4492L54.4531 20.5L54.8984 18.0039L55.0391 15.4375L55.0508 15.2969L55.0742 15.1562L55.6953 12.6719L55.9062 10.1758L55.9297 10.0586L55.9766 9.75391L56.5039 6.60156L58.1562 8.53516ZM58.8008 11.4766L58.6719 13.0703L58.6602 13.1758L58.625 13.293L58.0156 15.7539L57.8867 18.2383V18.332L57.8633 18.4141L57.5703 20.0664L57.957 20.3242L60.1367 20.5938L61.9531 20.6406L62.2578 20.2539L62.0234 18.2266L62.0117 18.168V18.1211L61.8945 15.4727H61.8828L61.5078 13.1172L61.1562 11.5469L60.043 11.3828L58.8008 11.4766Z" fill="black"/>
<path d="M57.6758 78.3125L60.3125 78.5117L60.3008 78.5234H62.7383L65.375 78.3359L65.4453 78.3242L65.5273 78.3359L68.1641 78.4062H68.2344L68.293 78.418L70.9414 78.7227L70.9297 78.7344L73.1914 78.957L75.3359 79.1797L74.3867 81.1133L73.25 83.3984L72.4062 85.8242L72.2891 86.1641L72.0195 86.4102L70.332 88.0156L69.9102 88.4023L69.3477 88.4258L66.6992 88.5078L64.0977 88.5898L61.4727 88.7656H61.2852L61.1094 88.7422L58.7305 88.3086L56.3516 88.7422L56.1523 88.7773L55.9531 88.7539L53.3867 88.5078L50.9023 88.6484L50.0586 88.6953L49.5781 88.0039L48.2539 86.0938L48.2422 86.082V86.0703L46.7539 83.832L46.6484 83.6914L46.5898 83.5156L45.6758 81.043L45.6289 80.9023L45.6055 80.7617L45.5234 80.2461L45.2305 78.5H47.0352L49.5781 78.3945L49.6836 78.3828L49.8008 78.3945L52.2852 78.6641L54.7695 78.418H54.8633L57.5 78.3125L57.5938 78.3008L57.6758 78.3125ZM55.0508 81.3945L55.0625 81.4062L52.4258 81.6641L52.2734 81.6758L52.1211 81.6641L49.625 81.3945L49.0039 81.418L49.3203 82.2852L50.7266 84.3828L51.5703 85.6016L53.375 85.5078H53.4805L53.5977 85.5195L56.0117 85.7422L58.4727 85.3203L58.7422 85.2734L59 85.3203L61.4375 85.7539L63.9219 85.6016H63.9688L66.6055 85.5195L68.668 85.4375L69.6992 84.4648L70.4609 82.3203L70.4844 82.2383L70.5312 82.1562L70.7422 81.7227L70.6016 81.7109H70.5781L68.0234 81.3945L65.5391 81.3242L62.9492 81.5117L62.8906 81.5234H62.832L60.1953 81.5117H60.0781L57.5 81.3008L55.0508 81.3945Z" fill="black"/>
<path d="M61.8828 20.3359L64.3672 20.6055L66.8398 20.5H67.4141L67.9414 20.8164L69.5234 21.7539L68.2812 23.1133L66.8516 24.6719L65.9727 26.3828L66.3125 28.4922L66.3242 28.5391V28.5742L66.5703 30.918L66.7578 32.793L64.8945 32.5586L62.3516 32.2539L59.8906 32.418L59.8086 32.4297L59.7148 32.418L57.1133 32.2773L54.4648 32.3594L52.2617 32.418L53.0117 30.3438L53.832 28.0703L53.9141 26.1953L52.6953 24.4492L52.4609 24.1094L52.4258 23.7109L52.3086 22.1055L52.168 20.3594L53.9141 20.4883L56.4922 20.6992L58.9297 20.6055L61.5781 20.3359L61.7305 20.3242L61.8828 20.3359ZM59.2227 23.582H59.1406L56.5039 23.6875L56.4102 23.6992L56.3281 23.6875L55.7891 23.6406L56.668 24.9062L56.9492 25.3164L56.9375 25.8203L56.832 28.4102L56.8203 28.6445L56.75 28.8672L56.5859 29.3008L57.1133 29.2891L57.1836 29.2773L57.2422 29.2891L59.7734 29.418L62.3398 29.2539L62.4805 29.2422L62.6211 29.2656L63.3945 29.3477L63.3594 28.9727L62.9375 26.3828L62.8555 25.9023L63.0898 25.4688L64.0508 23.582L61.6953 23.3359L59.2227 23.582Z" fill="black"/>
<path d="M62.875 29.3359L65.3711 29.6055L67.832 29.5H69.543L69.4961 31.0469L69.4609 32.3359L69.4492 32.5703L69.3672 32.793L68.5352 35.1016L68.3359 35.6523L67.8086 35.9219L65.9453 36.8711L65.3828 38.3594L65.3711 40.7266V40.7734L65.2656 43.2227L65.7578 45.707L65.8047 45.9414L65.7812 46.1875L65.4531 48.6367L65.6172 51.1797L65.6523 51.6484L65.4062 52.0469L64.5156 53.5117L64.1641 54.0977L63.4961 54.2148L60.8594 54.6836L60.6016 54.7305L60.332 54.6836L57.7656 54.2266L55.75 53.957L54.4727 53.793L54.4492 52.5039L54.4023 49.8672L54.3438 47.2188V47.1016L54.3555 46.9844L54.6953 44.4883L54.5664 41.9922V41.8164L54.7305 39.3438L54.4258 37.375L53.0781 36.168L51.2383 34.6328L50.6992 34.1875V33.4961L50.6641 31L50.6406 29.4766H52.1641L54.8008 29.4883H54.918L57.4961 29.6992L59.9336 29.6055L62.5703 29.3359L62.7227 29.3242L62.875 29.3359ZM60.2266 32.582H60.1445L57.4961 32.6875L57.4141 32.6992L57.3203 32.6875L54.6836 32.4883V32.4766H53.6758L53.6875 32.7578L55 33.8477L55.0469 33.8945L56.8398 35.5117L57.2383 35.875L57.3203 36.4023L57.7188 39.0508L57.7422 39.2148L57.7305 39.3789L57.5664 41.9336L57.6953 44.4766L57.707 44.6172L57.6953 44.7578L57.3438 47.2773L57.4023 49.7969L57.4258 51.1445L58.1523 51.25H58.1875L58.2227 51.2617L60.6016 51.6836L62.3008 51.3789L62.5938 50.8984L62.4531 48.7422L62.4414 48.5898L62.4531 48.4492L62.7695 46.0469L62.2891 43.6562L62.2656 43.4805V43.3047L62.3711 40.6562L62.3945 38.0664V37.7969L62.4883 37.5508L63.3555 35.2773L63.5547 34.7383L64.0703 34.4688L65.9102 33.5078L66.2617 32.5703L65.4297 32.6055L65.3125 32.6172L65.207 32.6055L62.6992 32.3359L60.2266 32.582Z" fill="black"/>
<path d="M57.6758 81.6875L60.3125 81.4883L60.3008 81.4766H62.7383L65.375 81.6641L65.4453 81.6758L65.5273 81.6641L68.1641 81.5938H68.2344L68.293 81.582L70.9414 81.2773L70.9297 81.2656L73.2031 81.043L75.3008 80.832L74.4102 78.9219L73.3086 76.5195L72.5469 74.1641L72.5 74.0352L72.4414 73.9062L71.2109 71.6914L70.1797 69.3711L69.793 68.5156L68.8555 68.4922L66.2539 68.4102L63.6289 68.2344H63.4414L63.2656 68.2578L60.8867 68.6914L58.5078 68.2578L58.3086 68.2227L58.1094 68.2461L55.543 68.4922L53.0469 68.3516L52.707 68.3281L52.3789 68.4688L50.375 69.3242L49.9414 69.5117L49.6953 69.8984L48.2539 72.1719L48.1602 72.3242L48.1016 72.4883L47.2695 74.9492L46.3672 77.3633L45.5117 79.3672L44.9141 80.7852L46.332 81.3477L46.4375 81.3945L46.707 81.5H47.0352L49.5781 81.6055L49.6836 81.6172L49.8008 81.6055L52.2852 81.3359L54.7695 81.582H54.8633L57.5 81.6875L57.5938 81.6992L57.6758 81.6875ZM55.0508 78.6055L55.0625 78.5938L52.4258 78.3359L52.2734 78.3242L52.1211 78.3359L49.625 78.6055L49.0977 78.582L49.1211 78.5352L49.1328 78.5L49.1445 78.4766L50.082 76.0039V75.9805L50.0938 75.957L50.8906 73.625L51.9688 71.9141L53.2344 71.3633L55.5312 71.4922H55.6367L55.7539 71.4805L58.168 71.2578L60.6289 71.6797L60.8867 71.7266L61.1562 71.6797L63.5938 71.2461L66.0781 71.3984H66.125L67.8125 71.457L68.4688 72.9102L68.4922 72.9688L68.5273 73.0273L69.7461 75.2656L70.5195 77.6094L70.543 77.7031L70.5781 77.7734L70.8008 78.2773L70.6133 78.2891H70.5781L68.0234 78.6055L65.5391 78.6758L62.9492 78.4883L62.8906 78.4766H62.832L60.1953 78.4883H60.0781L57.5 78.6992L55.0508 78.6055Z" fill="black"/>
<path d="M62.6758 55.8125L65.3125 56.0117L65.3008 56.0234H67.8086L68.9688 56L69.0039 57.5L69.0273 59L67.8672 59.0234H67.832L65.1953 59.0117H65.0781L62.5 58.8125L60.0508 58.9062H60.0625L57.4258 59.1641L57.2734 59.1758L57.1211 59.1641L54.625 58.9062L52.1641 59H52V56H52.0352L54.5781 55.8945L54.6836 55.8828L54.8008 55.8945L57.2852 56.1641L59.7695 55.918H59.8633L62.5 55.8125L62.5938 55.8008L62.6758 55.8125Z" fill="black"/>
<path d="M60.6758 73.8125L63.3125 74.0117L63.3008 74.0234H65.7383L68.375 73.8359L68.4688 73.8242L68.5508 73.8359L70.0742 73.9062L71.5039 73.9766V75.5H70.0039L69.9219 76.9062L68.5039 76.8359L65.9492 77.0117L65.8906 77.0234H65.832L63.1953 77.0117H63.0781L60.5 76.8125L58.0508 76.9062H58.0625L55.4258 77.1641L55.2734 77.1758L55.1211 77.1641L52.625 76.9062L50.1641 77H50V74H50.0352L52.5781 73.8945L52.6836 73.8828L52.8008 73.8945L55.2852 74.1641L57.7695 73.918H57.8633L60.5 73.8125L60.5938 73.8008L60.6758 73.8125Z" fill="black"/>
<path d="M60 -0.496094L60 0.992188L61.3008 0.921875L61.4062 2.94922L61.4062 2.9375L61.6641 5.57422L61.6758 5.72656L61.6641 5.87891L61.4062 8.375L61.5 10.8359L61.5 11L58.5 11L58.5 10.9648L58.3945 8.42188L58.3828 8.31641L58.3945 8.19922L58.6641 5.71484L58.418 3.23047L58.418 3.16016L58.3125 1.07422L58.2305 -0.496094L60 -0.496094Z" fill="black"/>
</g>
<defs>
<clipPath id="clip0_490_111">
<rect width="120" height="120" fill="white"/>
</clipPath>
</defs>
</svg>
