<svg width="120" height="120" viewBox="0 0 120 120" fill="none" xmlns="http://www.w3.org/2000/svg">
<path d="M73.2545 92.8168L74.7516 92.7239L74.7489 92.6805L74.7437 92.6373L73.2545 92.8168ZM72.9495 90.2867L71.4649 90.0727L71.4366 90.2691L71.4603 90.4662L72.9495 90.2867ZM73.3282 87.6593L74.8129 87.8732L74.835 87.7195L74.8252 87.5644L73.3282 87.6593ZM73.1606 85.0133L74.6576 84.9184L74.6531 84.8484L74.6422 84.779L73.1606 85.0133ZM72.7536 82.4393L74.2352 82.2051L74.2216 82.1192L74.1982 82.0354L72.7536 82.4393ZM72.0482 79.9161L73.4928 79.5122L73.4342 79.3025L73.3183 79.1182L72.0482 79.9161ZM70.6425 77.6784L71.9127 76.8805L71.8057 76.7103L71.6577 76.5742L70.6425 77.6784ZM68.7083 75.9001L69.7235 74.7958L69.6705 74.7471L69.6131 74.7037L68.7083 75.9001ZM66.6262 74.3254L67.531 73.1291L67.4669 73.0805L67.3979 73.0391L66.6262 74.3254ZM64.3401 72.954L65.1117 71.6677L64.8031 71.4826L64.444 71.4576L64.3401 72.954ZM61.6746 72.7689L61.5299 74.2619L61.5503 74.2639L61.5707 74.2653L61.6746 72.7689ZM59.0739 72.5169L59.2186 71.0239L58.9874 71.0015L58.7603 71.05L59.0739 72.5169ZM56.5204 73.0628L56.2068 71.596L56.2009 71.5973L56.5204 73.0628ZM53.9423 73.6249L53.6228 72.1593L53.3619 72.2162L53.1367 72.3596L53.9423 73.6249ZM51.7129 75.0442L50.9073 73.7789L50.7787 73.8608L50.6691 73.9669L51.7129 75.0442ZM49.8276 76.8709L48.7838 75.7936L48.6577 75.9158L48.5633 76.0637L49.8276 76.8709ZM48.4254 79.0673L49.6633 79.9144L49.6768 79.8946L49.6898 79.8744L48.4254 79.0673ZM46.912 81.2788L45.6741 80.4317L45.3817 80.859L45.4151 81.3757L46.912 81.2788ZM47.0846 83.9462L48.584 83.989L48.586 83.9191L48.5815 83.8494L47.0846 83.9462ZM47.0094 86.5822L45.5101 86.5394L45.5068 86.6524L45.5206 86.7646L47.0094 86.5822ZM47.3321 89.2148L48.7754 89.6233L48.8577 89.3325L48.821 89.0324L47.3321 89.2148ZM46.6169 91.7419L47.5995 92.8752L47.9381 92.5816L48.0602 92.1504L46.6169 91.7419ZM44.7769 93.3374L44.2195 94.7299L45.0686 95.0698L45.7596 94.4706L44.7769 93.3374ZM42.2457 92.3241L40.8442 92.8587L41.0783 93.4725L41.6882 93.7166L42.2457 92.3241ZM41.2913 89.8221L39.8088 90.0511L39.8331 90.2082L39.8898 90.3568L41.2913 89.8221ZM40.8863 87.2004L39.398 87.0138L39.3719 87.222L39.4039 87.4293L40.8863 87.2004ZM41.2164 84.567L42.7048 84.7536L42.7142 84.6785L42.716 84.6029L41.2164 84.567ZM41.2795 81.9286L39.8199 81.5829L39.7837 81.7357L39.7799 81.8927L41.2795 81.9286ZM41.8889 79.3555L40.5888 78.6073L40.4797 78.7969L40.4293 79.0098L41.8889 79.3555ZM43.2059 77.0671L44.506 77.8153L44.5505 77.738L44.5855 77.6559L43.2059 77.0671ZM44.2501 74.6206L43.1436 73.6079L42.9709 73.7966L42.8705 74.0318L44.2501 74.6206ZM46.041 72.6638L45.0968 71.4983L45.01 71.5686L44.9345 71.6511L46.041 72.6638ZM48.088 71.0056L47.1451 69.839L47.1438 69.84L48.088 71.0056ZM50.1437 69.3442L49.465 68.0065L49.3239 68.0781L49.2008 68.1776L50.1437 69.3442ZM52.5072 68.1451L52.2185 66.6731L52.0142 66.7132L51.8285 66.8074L52.5072 68.1451ZM55.1093 67.6348L55.398 69.1067L55.5319 69.0805L55.6589 69.0305L55.1093 67.6348ZM57.6013 66.6535L57.7502 65.1609L57.3893 65.1249L57.0518 65.2578L57.6013 66.6535ZM60.2617 66.919L60.1128 68.4116L60.1534 68.4156L60.1942 68.4174L60.2617 66.919ZM62.8732 67.0366L62.9598 65.5392L62.9502 65.5386L62.9407 65.5382L62.8732 67.0366ZM65.5444 67.1912L66.0637 65.784L65.8541 65.7066L65.631 65.6937L65.5444 67.1912ZM68.0525 68.117L68.9479 66.9135L68.7746 66.7846L68.5719 66.7098L68.0525 68.117ZM70.1972 69.7126L69.3018 70.9161L69.3341 70.9401L69.3677 70.9624L70.1972 69.7126ZM72.3902 71.1682L73.4483 70.105L73.3432 70.0004L73.2197 69.9184L72.3902 71.1682ZM74.2609 73.03L75.4869 72.1656L75.4116 72.0589L75.319 71.9668L74.2609 73.03ZM75.7795 75.1838L77.1127 74.4964L77.0652 74.4042L77.0054 74.3195L75.7795 75.1838ZM76.9846 77.521L78.396 77.0131L78.3628 76.9208L78.3178 76.8336L76.9846 77.521ZM77.8736 79.9915L76.4622 80.4994L76.4799 80.5486L76.5011 80.5966L77.8736 79.9915ZM78.9474 82.427L80.4353 82.2374L80.4078 82.0213L80.3199 81.8219L78.9474 82.427ZM79.2828 85.0585L80.7733 84.8901L80.7721 84.8795L80.7707 84.8689L79.2828 85.0585ZM79.5825 87.7111L81.0155 88.1543L81.1083 87.8545L81.073 87.5427L79.5825 87.7111ZM78.7936 90.2617L80.0761 91.0397L80.172 90.8816L80.2266 90.705L78.7936 90.2617ZM77.4492 92.4781L77.7879 93.9393L78.4037 93.7966L78.7316 93.256L77.4492 92.4781ZM74.8893 93.0714L74.5506 91.6102L73.9518 91.749L73.6225 92.2681L74.8893 93.0714ZM73.6604 95.0093L72.3936 94.2059L72.1575 94.5783L72.1604 95.0191L73.6604 95.0093ZM73.6777 97.6433L75.1772 97.6812L75.1778 97.6573L75.1777 97.6334L73.6777 97.6433ZM73.611 100.284L72.1114 100.246L72.1112 100.256L73.611 100.284ZM73.5615 102.924L72.0617 102.896L72.0611 102.931L72.0621 102.967L73.5615 102.924ZM73.6359 105.565L72.1365 105.607L72.1365 105.608L73.6359 105.565ZM73.7119 108.205L75.2119 108.214L75.212 108.188L75.2113 108.162L73.7119 108.205ZM73.6968 110.844L75.1967 110.858L75.1968 110.852L73.6968 110.844ZM73.6724 113.484L75.1565 113.702L75.1714 113.6L75.1723 113.498L73.6724 113.484ZM73.4052 115.303L71.9211 115.085L71.6618 116.85L73.4451 116.802L73.4052 115.303ZM83.9223 115.198L85.4222 115.177L85.4213 115.112L85.4148 115.047L83.9223 115.198ZM83.6687 112.678L82.1691 112.713L82.1704 112.771L82.1762 112.828L83.6687 112.678ZM83.6078 110.028L82.1078 110.043L82.1079 110.053L82.1082 110.063L83.6078 110.028ZM83.5817 107.397L82.1039 107.14L82.0804 107.275L82.0818 107.412L83.5817 107.397ZM84.0433 104.741L85.5212 104.998L85.5558 104.798L85.5364 104.597L84.0433 104.741ZM83.7895 102.109L82.2906 102.168L82.2923 102.211L82.2964 102.253L83.7895 102.109ZM83.6857 99.465L82.1858 99.4761L82.186 99.4999L82.1869 99.5238L83.6857 99.465ZM83.6662 96.8208L85.1662 96.8098L85.1658 96.7602L85.1622 96.7108L83.6662 96.8208ZM83.4724 94.1851L81.9807 94.0272L81.9665 94.161L81.9764 94.2951L83.4724 94.1851ZM83.7523 91.5399L85.2439 91.6977L85.2616 91.5304L85.2418 91.3633L83.7523 91.5399ZM83.4396 88.9021L81.9397 88.8827L81.9384 88.981L81.95 89.0786L83.4396 88.9021ZM83.4736 86.2601L81.9739 86.2297L81.9738 86.2408L83.4736 86.2601ZM83.5271 83.6201L85.0268 83.6504L85.028 83.5924L85.0247 83.5345L83.5271 83.6201ZM83.3761 80.9776L81.8837 80.8266L81.8718 80.9447L81.8785 81.0632L83.3761 80.9776ZM83.6441 78.3293L85.1365 78.4803L85.1513 78.3339L85.1374 78.1873L83.6441 78.3293ZM83.3936 75.6932L81.8937 75.6713L81.8925 75.7534L81.9003 75.8351L83.3936 75.6932ZM83.4322 73.0543L81.9324 73.0306L81.9323 73.0324L83.4322 73.0543ZM83.4741 70.4044L84.9739 70.4281L84.9749 70.3681L84.971 70.3081L83.4741 70.4044ZM83.3043 67.7646L81.805 67.8102L81.8058 67.8356L81.8074 67.8609L83.3043 67.7646ZM83.2238 65.12L84.7231 65.0743L84.7089 64.6095L84.4343 64.2342L83.2238 65.12ZM82.0271 63.4847L83.2376 62.5989L82.7143 61.8838L81.8354 61.997L82.0271 63.4847ZM79.3877 63.8247L79.4325 65.3241L79.5062 65.3219L79.5794 65.3124L79.3877 63.8247ZM76.7479 63.9036L76.5353 65.3885L76.6634 65.4068L76.7927 65.403L76.7479 63.9036ZM74.1071 63.5257L74.3197 62.0408L74.1652 62.0187L74.0094 62.0289L74.1071 63.5257ZM71.4675 63.698L69.9718 63.8124L70.085 65.2914L71.5652 65.1948L71.4675 63.698ZM71.2722 61.1456L69.773 61.0979L69.7704 61.1791L69.7766 61.26L71.2722 61.1456ZM71.344 58.8889L72.8433 58.9366L72.891 57.4346L71.389 57.3896L71.344 58.8889ZM68.7037 58.8097L68.6319 60.3079L68.6453 60.3086L68.6587 60.309L68.7037 58.8097ZM66.0632 58.6832L66.1349 57.1849L66.1252 57.1845L66.0632 58.6832ZM63.4227 58.5739L63.4847 57.0752L63.4007 57.0717L63.3167 57.0777L63.4227 58.5739ZM60.7834 58.7609L60.7102 60.2591L60.7999 60.2635L60.8894 60.2572L60.7834 58.7609ZM58.1429 58.6318L58.2162 57.1336L58.1003 57.1279L57.9849 57.1401L58.1429 58.6318ZM55.504 58.9113L55.5514 60.4106L55.6068 60.4088L55.662 60.403L55.504 58.9113ZM52.8643 58.9947L52.5999 60.4713L52.7546 60.499L52.9117 60.494L52.8643 58.9947ZM50.2224 58.5218L50.4868 57.0452L50.0478 56.9667L49.6371 57.1407L50.2224 58.5218ZM48.0168 59.4565L47.4315 58.0754L46.438 58.4964L46.5213 59.5723L48.0168 59.4565ZM48.2207 62.091L49.6132 62.6486L49.7432 62.3239L49.7162 61.9752L48.2207 62.091ZM47.5049 63.8784L47.4194 65.3759L48.4964 65.4374L48.8974 64.436L47.5049 63.8784ZM44.8646 63.7277L44.9501 62.2301L44.8105 62.2221L44.6717 62.2401L44.8646 63.7277ZM42.2253 64.0699L42.0857 65.5633L42.2522 65.5789L42.4181 65.5574L42.2253 64.0699ZM39.5848 63.8231L39.7244 62.3296L39.5783 62.3159L39.4324 62.3308L39.5848 63.8231ZM36.9453 64.0927L36.7929 62.6005L35.6829 62.7139L35.4723 63.8096L36.9453 64.0927ZM36.5576 66.11L35.0845 65.8269L35.0467 66.0239L35.0619 66.2239L36.5576 66.11ZM36.7599 68.7652L38.2462 68.9672L38.2676 68.8097L38.2555 68.6513L36.7599 68.7652ZM36.4028 71.3924L34.9165 71.1904L34.8924 71.3678L34.9107 71.5459L36.4028 71.3924ZM36.6754 74.0408L38.1495 74.3183L38.1899 74.1041L38.1676 73.8872L36.6754 74.0408ZM36.1791 76.677L34.705 76.3995L34.6779 76.5436L34.6792 76.6903L36.1791 76.677ZM36.2024 79.316L34.7025 79.3292L34.703 79.3837L34.7074 79.4379L36.2024 79.316ZM36.4182 81.9602L37.9057 82.1529L37.9261 81.9959L37.9132 81.8382L36.4182 81.9602ZM36.0764 84.5982L34.5888 84.4055L34.5768 84.4987L34.5764 84.5928L36.0764 84.5982ZM36.0669 87.2392L34.5669 87.2338L34.5667 87.2902L34.5707 87.3463L36.0669 87.2392ZM36.2562 89.8833L37.7489 90.0309L37.7615 89.9037L37.7524 89.7761L36.2562 89.8833ZM35.9952 92.5223L34.5025 92.3747L34.4878 92.5228L34.5026 92.6708L35.9952 92.5223ZM36.2581 95.1656L37.7571 95.2222L37.761 95.1194L37.7508 95.0171L36.2581 95.1656ZM36.1585 97.802L37.6559 97.8903L37.6569 97.8745L37.6575 97.8587L36.1585 97.802ZM36.0026 100.448L34.5052 100.359L34.5011 100.429L34.5034 100.498L36.0026 100.448ZM36.0917 103.088L34.5926 103.138L34.5934 103.164L34.5952 103.19L36.0917 103.088ZM36.2724 105.733L37.7614 105.914L37.7786 105.773L37.7689 105.631L36.2724 105.733ZM35.9524 108.363L34.4634 108.182L34.4428 108.352L34.4607 108.521L35.9524 108.363ZM36.233 111.012L37.7065 111.292L37.748 111.075L37.7247 110.854L36.233 111.012ZM35.7302 113.654L34.2566 113.373L34.215 113.592L34.2387 113.813L35.7302 113.654ZM14.0775 115.761H15.5775V115.725L15.5758 115.69L14.0775 115.761ZM13.9575 113.221L12.4575 113.205L12.4571 113.248L12.4591 113.291L13.9575 113.221ZM13.9854 110.581L15.4853 110.596L15.4854 110.589L15.4854 110.581L13.9854 110.581ZM13.9856 107.941L12.4857 107.923L12.4856 107.932L12.4856 107.94L13.9856 107.941ZM14.0164 105.301L12.519 105.212L12.5169 105.247L12.5165 105.283L14.0164 105.301ZM14.1731 102.661L15.6705 102.75L15.6779 102.624L15.6644 102.499L14.1731 102.661ZM13.8875 100.021L12.3906 99.9251L12.3824 100.054L12.3962 100.182L13.8875 100.021ZM14.056 97.3806L15.5529 97.4761L15.5556 97.4349L15.5559 97.3936L14.056 97.3806ZM14.0789 94.7406L15.5789 94.7536L15.5796 94.6715L15.5713 94.5897L14.0789 94.7406ZM13.8121 92.1006L12.3145 92.0144L12.3077 92.1332L12.3197 92.2515L13.8121 92.1006ZM13.9639 89.4606L15.4615 89.5468L15.4645 89.4941L15.4638 89.4414L13.9639 89.4606ZM13.9301 86.8206L12.4447 86.6116L12.4287 86.7252L12.4302 86.8398L13.9301 86.8206ZM14.3015 84.1806L15.7868 84.3895L15.8072 84.2449L15.7992 84.099L14.3015 84.1806ZM14.1577 81.5406L12.6614 81.4358L12.6549 81.5289L12.6599 81.6221L14.1577 81.5406ZM14.3427 78.9006L15.839 79.0054L15.8444 78.9279L15.8418 78.8502L14.3427 78.9006ZM14.254 76.2606L15.7531 76.2102L15.7514 76.1592L15.7462 76.1084L14.254 76.2606ZM13.9848 73.6206L12.4848 73.6049L12.484 73.6891L12.4925 73.7728L13.9848 73.6206ZM14.0123 70.9806L15.5122 70.9963L15.5125 70.9743L15.5121 70.9523L14.0123 70.9806ZM13.9625 68.3406L12.4625 68.3316L12.4624 68.3502L12.4628 68.3689L13.9625 68.3406ZM13.9784 65.7006L12.4805 65.6198L12.4786 65.6557L12.4784 65.6916L13.9784 65.7006ZM14.1207 63.0606L15.6185 63.1414L15.6243 63.0345L15.6148 62.9279L14.1207 63.0606ZM13.8862 60.4206L12.4043 60.1887L12.3759 60.3702L12.3921 60.5533L13.8862 60.4206ZM14.2994 57.7806L15.7814 58.0125L15.8098 57.8306L15.7935 57.6472L14.2994 57.7806ZM14.0638 55.1406L12.5656 55.0669L12.5605 55.1706L12.5697 55.2739L14.0638 55.1406ZM14.1937 52.5006L15.6919 52.5743L15.6946 52.5194L15.6932 52.4644L14.1937 52.5006ZM14.13 49.8606L12.6301 49.8402L12.6298 49.8685L12.6304 49.8968L14.13 49.8606ZM14.166 47.2206L15.6658 47.241L15.6669 47.1644L15.6601 47.088L14.166 47.2206ZM13.9322 44.5862L12.4509 44.3505L12.4217 44.5339L12.4381 44.7188L13.9322 44.5862ZM14.3472 41.978L13.8071 40.5786L13.0015 40.8895L12.8658 41.7424L14.3472 41.978ZM16.6975 41.071L17.1767 39.6496L16.6631 39.4765L16.1574 39.6716L16.6975 41.071ZM19.0257 41.8559L20.4763 41.4742L20.2707 40.6927L19.5049 40.4345L19.0257 41.8559ZM19.6613 44.2717L21.1592 44.3515L21.1717 44.117L21.1119 43.89L19.6613 44.2717ZM19.5209 46.9092L18.023 46.8295L17.981 47.6183L18.6077 48.0992L19.5209 46.9092ZM21.3832 48.3384L20.47 49.5284L20.7914 49.775L21.1932 49.8263L21.3832 48.3384ZM23.9602 48.6674L23.7703 50.1553L23.8937 50.1711L24.0181 50.1663L23.9602 48.6674ZM26.5884 48.5659L26.6463 50.0648L26.7235 50.0618L26.8 50.0509L26.5884 48.5659ZM29.2098 48.1925L29.2228 46.6925L29.11 46.6916L28.9983 46.7075L29.2098 48.1925ZM31.8665 48.2154L31.8535 49.7154L31.8732 49.7155L31.8929 49.7152L31.8665 48.2154ZM34.5128 48.1689L34.598 46.6713L34.5423 46.6682L34.4865 46.6692L34.5128 48.1689ZM37.1511 48.319L37.3273 46.8293L37.2819 46.824L37.2363 46.8214L37.1511 48.319ZM39.7804 48.6298L39.6042 50.1195L39.7268 50.1339L39.8501 50.1282L39.7804 48.6298ZM42.4229 48.5068L42.4728 47.0076L42.4129 47.0056L42.3531 47.0084L42.4229 48.5068ZM45.057 48.5944L45.0071 50.0936L45.031 50.0944L45.0548 50.0944L45.057 48.5944ZM47.6939 48.5982L47.6918 50.0982L47.7787 50.0983L47.865 50.0884L47.6939 48.5982ZM50.3246 48.2962L50.4956 49.7864L51.5413 49.6664L51.7841 48.6422L50.3246 48.2962ZM50.9143 45.8084L52.3739 46.1544L52.4211 45.9554L52.4132 45.751L50.9143 45.8084ZM50.8127 43.1565L49.6485 42.2107L49.2921 42.6493L49.3138 43.214L50.8127 43.1565ZM52.3823 41.2246L52.4574 39.7264L51.6977 39.6884L51.2181 40.2787L52.3823 41.2246ZM54.9966 41.3555L56.0101 40.2497L55.6116 39.8844L55.0717 39.8574L54.9966 41.3555ZM56.5767 42.8037L58.0716 42.6794L58.0229 42.0945L57.5902 41.6979L56.5767 42.8037ZM56.7929 45.4044L55.2981 45.5286L55.3009 45.5627L55.3053 45.5966L56.7929 45.4044ZM57.1248 47.9735L55.6372 48.1657L55.7799 49.2708L56.8791 49.4533L57.1248 47.9735ZM59.6167 48.3873L59.371 49.867L59.545 49.8959L59.721 49.8836L59.6167 48.3873ZM62.2376 48.2044L62.529 46.733L62.3328 46.6942L62.1332 46.7081L62.2376 48.2044ZM64.8614 48.7241L64.57 50.1955L64.8078 50.2426L65.0482 50.2124L64.8614 48.7241ZM67.4899 48.3942L67.6767 49.8825L68.5592 49.7717L68.8854 48.9443L67.4899 48.3942ZM68.3711 46.159L69.7665 46.7092L69.8342 46.5376L69.8583 46.3546L68.3711 46.159ZM68.7192 43.5128L70.2063 43.7084L70.2737 43.1966L70.0118 42.7518L68.7192 43.5128ZM67.3986 41.2697L68.6912 40.5087L68.2694 39.7922L67.4383 39.7702L67.3986 41.2697ZM64.7626 41.1999L64.8022 39.7005L64.0829 39.6814L63.6178 40.2306L64.7626 41.1999ZM63.2011 43.0439L62.0564 42.0746L61.7905 42.3886L61.722 42.7943L63.2011 43.0439ZM62.7678 45.6107L61.2888 45.361L61.2502 45.5895L61.2824 45.819L62.7678 45.6107ZM63.0898 47.9065V49.4065H64.8149L64.5753 47.6982L63.0898 47.9065ZM25.1384 48.1538L26.2767 49.1306L26.697 48.6408L26.6304 47.9989L25.1384 48.1538ZM24.8731 45.5971L23.3739 45.6476L23.3757 45.6999L23.3811 45.7519L24.8731 45.5971ZM24.7825 42.9117L23.7779 41.7978L23.2599 42.265L23.2834 42.9622L24.7825 42.9117ZM26.6961 41.1859L26.7079 39.6859L26.1246 39.6813L25.6915 40.072L26.6961 41.1859ZM29.2914 41.2063L30.4563 40.2614L30.0106 39.712L29.3032 39.7064L29.2914 41.2063ZM30.7581 43.0146L32.2508 42.866L32.2062 42.4187L31.9231 42.0696L30.7581 43.0146ZM31.0161 45.6058L32.5144 45.679L32.5198 45.5679L32.5088 45.4572L31.0161 45.6058ZM30.9038 47.9065V49.4065H32.3323L32.402 47.9797L30.9038 47.9065ZM36.7807 48.1535L37.9225 49.1262L38.3826 48.5862L38.257 47.8879L36.7807 48.1535ZM36.3228 45.6087L34.8263 45.5061L34.8136 45.6915L34.8465 45.8744L36.3228 45.6087ZM36.5062 42.9361L35.4458 41.8751L35.0482 42.2725L35.0097 42.8334L36.5062 42.9361ZM38.3103 41.133L38.3473 39.6334L37.7046 39.6175L37.2499 40.072L38.3103 41.133ZM40.9219 41.1975L41.9434 40.0991L41.5272 39.712L40.959 39.698L40.9219 41.1975ZM42.7549 42.9021L44.2523 42.9902L44.2939 42.2848L43.7764 41.8036L42.7549 42.9021ZM42.5986 45.5577L41.1012 45.4696L41.0992 45.503L41.0987 45.5365L42.5986 45.5577ZM42.5612 48.1989L43.7432 49.1224L44.0539 48.7247L44.0611 48.2201L42.5612 48.1989ZM82.2668 48.4657L83.573 47.7281L83.0777 46.8512L82.0786 46.9776L82.2668 48.4657ZM79.6734 48.7938L79.0316 50.1496L79.4273 50.3369L79.8616 50.282L79.6734 48.7938ZM77.3126 47.6762L75.8562 48.0351L76.0267 48.727L76.6708 49.032L77.3126 47.6762ZM76.6726 45.0789L75.1994 44.7965L75.1376 45.119L75.2162 45.4378L76.6726 45.0789ZM77.1829 42.4177L76.3898 41.1445L75.8332 41.4912L75.7097 42.1353L77.1829 42.4177ZM79.4216 41.0232L79.6426 39.5396L79.0968 39.4582L78.6285 39.75L79.4216 41.0232ZM81.9995 41.4073L83.4239 40.937L83.1343 40.0598L82.2206 39.9237L81.9995 41.4073ZM82.7838 43.7826L84.2671 44.0056L84.3203 43.6519L84.2081 43.3123L82.7838 43.7826ZM82.3883 46.4128L80.905 46.1897L80.8256 46.7176L81.0976 47.177L82.3883 46.4128ZM83.7373 48.6912L82.4466 49.4554L82.9226 50.2594L83.8541 50.1867L83.7373 48.6912ZM86.4189 48.4818L86.5212 46.9853L86.4116 46.9778L86.3021 46.9863L86.4189 48.4818ZM89.0587 48.6622L88.9564 50.1587L89.0371 50.1642L89.1179 50.161L89.0587 48.6622ZM91.6985 48.5579L91.7577 50.0568L91.9381 50.0496L92.1117 49.9999L91.6985 48.5579ZM94.1417 47.8579L94.5549 49.2999L95.4829 49.034L95.6253 48.0792L94.1417 47.8579ZM94.5329 45.2359L96.0165 45.4572L96.0396 45.3022L96.0302 45.1457L94.5329 45.2359ZM94.3729 42.5783L95.8702 42.4882L95.8311 41.8398L95.3316 41.4247L94.3729 42.5783ZM92.3681 40.9122L93.3268 39.7586L92.7732 39.2985L92.0679 39.4426L92.3681 40.9122ZM89.7944 41.438L89.4942 39.9683L88.7562 40.1191L88.4363 40.801L89.7944 41.438ZM88.7731 43.6154L87.4151 42.9785L87.3069 43.2092L87.281 43.4626L88.7731 43.6154ZM88.5046 46.2378L87.0124 46.085L87.0034 46.1725L87.0047 46.2605L88.5046 46.2378ZM88.5348 48.2303L88.5224 49.7302L90.0578 49.7429L90.0346 48.2075L88.5348 48.2303ZM105.546 48.4692L106.801 47.6465L106.362 46.9779L105.563 46.9693L105.546 48.4692ZM102.966 48.4414L102.604 49.8971L102.774 49.9394L102.95 49.9413L102.966 48.4414ZM100.602 47.8539L99.153 48.2408L99.3813 49.0961L100.24 49.3096L100.602 47.8539ZM99.9385 45.3675L98.4569 45.133L98.4072 45.4471L98.4892 45.7544L99.9385 45.3675ZM100.349 42.7739L99.2537 41.7491L98.9394 42.085L98.8675 42.5394L100.349 42.7739ZM102.086 40.9169L102.209 39.4219L101.486 39.3628L100.991 39.8922L102.086 40.9169ZM104.779 41.1373L106.109 40.4439L105.726 39.7098L104.901 39.6423L104.779 41.1373ZM105.941 43.3677L107.441 43.4124L107.452 43.0213L107.271 42.6743L105.941 43.3677ZM105.863 46.005L104.363 45.9603L104.363 45.9652L105.863 46.005ZM105.793 48.6449L104.293 48.6051L104.293 48.626L104.293 48.647L105.793 48.6449ZM105.796 51.2848L107.295 51.3509L107.296 51.3168L107.296 51.2827L105.796 51.2848ZM105.68 53.9244L104.181 53.8583L104.179 53.8997L104.18 53.9411L105.68 53.9244ZM105.709 56.5644L107.209 56.6048L107.21 56.5762L107.209 56.5476L105.709 56.5644ZM105.638 59.204L104.139 59.1635L104.137 59.2086L104.139 59.2536L105.638 59.204ZM105.726 61.8442L107.225 61.8814L107.226 61.838L107.225 61.7946L105.726 61.8442ZM105.66 64.4838L104.161 64.4466L104.159 64.4958L104.161 64.5449L105.66 64.4838ZM105.768 67.1244L104.269 67.1855L104.271 67.2338L104.276 67.282L105.768 67.1244ZM106.047 69.7662L107.547 69.7813L107.548 69.6947L107.539 69.6085L106.047 69.7662ZM106.02 72.4061L107.519 72.4615L107.52 72.4414L107.52 72.4213L106.02 72.4061ZM105.923 75.0456L107.421 75.1074L107.422 75.1009L105.923 75.0456ZM105.814 77.6849L104.315 77.6231L104.312 77.7043L104.317 77.7855L105.814 77.6849ZM105.991 80.3264L107.491 80.3191L107.491 80.2724L107.488 80.2259L105.991 80.3264ZM106.004 82.9668L107.488 83.1898L107.505 83.0752L107.504 82.9594L106.004 82.9668ZM105.608 85.6034L104.125 85.3804L104.103 85.528L104.11 85.6771L105.608 85.6034ZM105.738 88.2447L107.231 88.3921L107.242 88.2817L107.236 88.1709L105.738 88.2447ZM105.478 90.8823L103.985 90.7348L103.966 90.9243L103.995 91.1124L105.478 90.8823ZM105.888 93.5265L107.362 93.807L107.41 93.5525L107.37 93.2964L105.888 93.5265ZM105.386 96.1615L103.913 95.8809L103.878 96.0649L103.889 96.2519L105.386 96.1615ZM105.546 98.8033L104.049 98.8937L104.049 98.9093L104.051 98.9249L105.546 98.8033ZM105.761 101.446L107.245 101.666L107.27 101.495L107.256 101.324L105.761 101.446ZM105.37 104.082L103.886 103.862L103.876 103.932L103.872 104.003L105.37 104.082ZM105.232 106.72L103.734 106.642L103.73 106.712L103.733 106.782L105.232 106.72ZM105.34 109.362L106.838 109.435L106.842 109.368L106.839 109.3L105.34 109.362ZM105.21 112L103.712 111.926L103.704 112.077L103.727 112.227L105.21 112ZM105.614 114.645L107.043 115.1L107.15 114.765L107.097 114.418L105.614 114.645ZM19.4761 47.9189L19.2902 46.4305L19.2474 46.4358L19.205 46.4436L19.4761 47.9189ZM17.5197 48.2785L17.2486 46.8031L17.2403 46.8047L17.5197 48.2785ZM15.4663 48.6679L15.4549 50.1678L15.6016 50.169L15.7458 50.1416L15.4663 48.6679ZM14.4142 48.6599L12.9258 48.8458L13.0887 50.1498L14.4028 50.1598L14.4142 48.6599ZM51.0457 47.9065L51.3185 46.4315L51.1833 46.4065H51.0457V47.9065ZM53.2764 48.3191L53.0035 49.7941L53.1343 49.8183L53.2673 49.8191L53.2764 48.3191ZM55.6402 48.3335L55.6311 49.8334L55.9169 49.8352L56.1834 49.7317L55.6402 48.3335ZM56.7622 47.8976L58.0858 47.1918L57.4596 46.0176L56.2191 46.4994L56.7622 47.8976ZM68.5095 47.9103L68.8017 46.4391L68.6855 46.416L68.5671 46.4114L68.5095 47.9103ZM70.9619 48.3974L70.6697 49.8687L70.8002 49.8946L70.9332 49.8971L70.9619 48.3974ZM73.554 48.4469L73.6268 46.9486L73.6047 46.9476L73.5827 46.9471L73.554 48.4469ZM76.2276 48.5768L76.1548 50.075L76.6018 50.0967L76.9876 49.8699L76.2276 48.5768ZM94.382 47.9065L94.7911 46.4634L94.5905 46.4065H94.382V47.9065ZM96.5931 48.5333L96.184 49.9764L96.4109 50.0407L96.6466 50.0323L96.5931 48.5333ZM99.0093 48.4469L99.0629 49.946L99.472 49.9314L99.8171 49.7109L99.0093 48.4469ZM100.04 47.7882L101.364 47.0823L100.6 45.6503L99.2325 46.5242L100.04 47.7882ZM14.5009 52.7538L14.5091 51.2538H14.5009V52.7538ZM17.0409 52.7678L17.0326 54.2678L17.0628 54.268L17.0929 54.2669L17.0409 52.7678ZM19.6809 52.6762L19.8397 51.1847L19.7345 51.1735L19.6289 51.1771L19.6809 52.6762ZM22.3209 52.9573L22.1621 54.4489L22.2877 54.4623L22.4138 54.4544L22.3209 52.9573ZM24.9609 52.7935L25.0538 54.2906L25.0631 54.29L25.0725 54.2893L24.9609 52.7935ZM27.6009 52.5965L27.5542 51.0972L27.5217 51.0982L27.4893 51.1007L27.6009 52.5965ZM30.2409 52.5143L30.3177 51.0162L30.256 51.0131L30.1942 51.015L30.2409 52.5143ZM32.8809 52.6497L32.804 54.1477L32.8587 54.1505L32.9134 54.1493L32.8809 52.6497ZM35.5209 52.5924L35.5437 51.0926L35.516 51.0922L35.4883 51.0928L35.5209 52.5924ZM38.1609 52.6326L38.2029 51.1331L38.1933 51.1329L38.1837 51.1327L38.1609 52.6326ZM40.8009 52.7065L40.7588 54.2059L40.8037 54.2072L40.8486 54.2058L40.8009 52.7065ZM43.4409 52.6225L43.4886 54.1217L43.4985 54.1214L43.4409 52.6225ZM46.0809 52.521L46.1599 51.0231L46.0916 51.0195L46.0233 51.0221L46.0809 52.521ZM48.7209 52.6603L48.6418 54.1583L48.6976 54.1612L48.7535 54.16L48.7209 52.6603ZM51.3609 52.6029L51.3421 51.103L51.3282 51.1033L51.3609 52.6029ZM54.0009 52.5699L54.1924 51.0822L54.0877 51.0687L53.9821 51.07L54.0009 52.5699ZM56.6409 52.9097L56.4494 54.3974L56.6559 54.424L56.8619 54.3933L56.6409 52.9097ZM59.2809 52.5164L59.3711 51.0191L59.2147 51.0097L59.0598 51.0328L59.2809 52.5164ZM61.9209 52.6754L62.0697 51.1828L62.0404 51.1799L62.0111 51.1781L61.9209 52.6754ZM64.5609 52.9387L64.412 54.4313L64.5917 54.4492L64.7705 54.424L64.5609 52.9387ZM67.2009 52.5661L67.4371 51.0848L67.2145 51.0493L66.9912 51.0808L67.2009 52.5661ZM69.8409 52.9871L69.6046 54.4684L69.7535 54.4922L69.9041 54.4858L69.8409 52.9871ZM72.4809 52.8757L72.4973 51.3758L72.4575 51.3754L72.4176 51.3771L72.4809 52.8757ZM75.1209 52.9047L75.1044 54.4046L75.1063 54.4046L75.1209 52.9047ZM77.7609 52.9304L77.7463 54.4304L77.7772 54.4307L77.8081 54.4297L77.7609 52.9304ZM80.4009 52.8473L80.4008 51.3473L80.3772 51.3473L80.3537 51.3481L80.4009 52.8473ZM83.0409 52.8472L83.041 54.3472L83.0978 54.3472L83.1545 54.3429L83.0409 52.8472ZM85.6809 52.6465L85.7789 51.1497L85.673 51.1428L85.5672 51.1508L85.6809 52.6465ZM88.3209 52.8194L88.2229 54.3162L88.2485 54.3178L88.2742 54.3186L88.3209 52.8194ZM90.9609 52.9016L90.9142 54.4009L90.9218 54.4011L90.9609 52.9016ZM93.6009 52.9704L93.5618 54.4699L93.7094 54.4737L93.8549 54.4487L93.6009 52.9704ZM96.2409 52.5167L96.5095 51.041L96.2484 50.9934L95.9868 51.0384L96.2409 52.5167ZM98.8809 52.9973L98.6122 54.4731L98.8324 54.5132L99.0547 54.4872L98.8809 52.9973ZM101.521 52.6893L101.433 51.1919L101.39 51.1944L101.347 51.1994L101.521 52.6893ZM104.161 52.535L104.449 51.063L104.263 51.0264L104.073 51.0375L104.161 52.535ZM41.8891 92.6934L43.3874 92.7648L43.3887 92.7381L43.389 92.7114L41.8891 92.6934ZM41.7682 95.2326L40.2699 95.1612L40.2668 95.226L40.2693 95.2909L41.7682 95.2326ZM41.871 97.8764L43.3681 97.9702L43.3729 97.8942L43.3699 97.8181L41.871 97.8764ZM41.7056 100.516L43.2006 100.638L43.2018 100.624L43.2027 100.61L41.7056 100.516ZM41.4899 103.152L39.9949 103.029L39.9895 103.095L39.9899 103.16L41.4899 103.152ZM41.5054 105.797L40.0055 105.805L40.0063 105.944L40.0323 106.079L41.5054 105.797ZM42.0117 108.434L43.5107 108.489L43.517 108.319L43.4848 108.152L42.0117 108.434ZM41.9148 111.075L40.4158 111.02L40.4155 111.029L41.9148 111.075ZM41.8344 113.713L40.3351 113.668L40.3339 113.71L40.335 113.752L41.8344 113.713ZM78.1169 92.6933L76.6188 92.7701L76.6209 92.811L76.6253 92.8518L78.1169 92.6933ZM78.3851 95.2175L79.8849 95.1934L79.8838 95.126L79.8767 95.059L78.3851 95.2175ZM78.4274 97.8592L76.9276 97.8832L76.9284 97.936L76.933 97.9886L78.4274 97.8592ZM78.6555 100.493L80.1527 100.401L80.1516 100.382L80.15 100.364L78.6555 100.493ZM78.8175 103.131L80.3175 103.143L80.3179 103.091L80.3147 103.039L78.8175 103.131ZM78.796 105.776L80.2949 105.834L80.2958 105.811L80.296 105.788L78.796 105.776ZM78.694 108.423L77.1951 108.365L77.1927 108.428L77.1956 108.492L78.694 108.423ZM78.8151 111.06L80.3151 111.065L80.3152 111.028L80.3135 110.991L78.8151 111.06ZM78.8058 113.703L77.3058 113.697L77.3053 113.826L77.3269 113.954L78.8058 113.703ZM79.0765 115.298L77.5977 115.549L77.8097 116.798H79.0765V115.298ZM46.4157 93.3397L47.9146 93.3965L47.9151 93.3853L47.9153 93.3741L46.4157 93.3397ZM46.3195 95.8782L47.8167 95.9706L47.8178 95.9528L47.8184 95.935L46.3195 95.8782ZM46.1567 98.5152L44.6596 98.4227L44.654 98.5128L44.6593 98.6028L46.1567 98.5152ZM46.3115 101.159L47.8115 101.146L47.8111 101.109L47.809 101.072L46.3115 101.159ZM46.335 103.801L47.8343 103.849L47.8353 103.818L47.835 103.787L46.335 103.801ZM46.2499 106.439L44.7507 106.391L44.7496 106.424L44.75 106.457L46.2499 106.439ZM46.281 109.081L47.7713 109.251L47.782 109.157L47.7809 109.063L46.281 109.081ZM45.9806 111.715L44.4903 111.545L44.4768 111.663L44.4821 111.781L45.9806 111.715ZM46.098 114.358L47.5839 114.563L47.6026 114.428L47.5965 114.291L46.098 114.358ZM45.8903 115.86L44.4045 115.655L44.1741 117.321L45.856 117.36L45.8903 115.86ZM73.2607 92.9166L74.7578 92.8238L74.7516 92.7239L73.2545 92.8168L71.7573 92.9096L71.7635 93.0094L73.2607 92.9166ZM73.2545 92.8168L74.7437 92.6373L74.4388 90.1072L72.9495 90.2867L71.4603 90.4662L71.7652 92.9963L73.2545 92.8168ZM72.9495 90.2867L74.4342 90.5007L74.8129 87.8732L73.3282 87.6593L71.8436 87.4453L71.4649 90.0727L72.9495 90.2867ZM73.3282 87.6593L74.8252 87.5644L74.6576 84.9184L73.1606 85.0133L71.6636 85.1081L71.8312 87.7541L73.3282 87.6593ZM73.1606 85.0133L74.6422 84.779L74.2352 82.2051L72.7536 82.4393L71.272 82.6736L71.679 85.2475L73.1606 85.0133ZM72.7536 82.4393L74.1982 82.0354L73.4928 79.5122L72.0482 79.9161L70.6036 80.32L71.309 82.8432L72.7536 82.4393ZM72.0482 79.9161L73.3183 79.1182L71.9127 76.8805L70.6425 77.6784L69.3723 78.4763L70.778 80.714L72.0482 79.9161ZM70.6425 77.6784L71.6577 76.5742L69.7235 74.7958L68.7083 75.9001L67.693 77.0043L69.6273 78.7826L70.6425 77.6784ZM68.7083 75.9001L69.6131 74.7037L67.531 73.1291L66.6262 74.3254L65.7214 75.5218L67.8035 77.0964L68.7083 75.9001ZM66.6262 74.3254L67.3979 73.0391L65.1117 71.6677L64.3401 72.954L63.5685 74.2403L65.8546 75.6117L66.6262 74.3254ZM64.3401 72.954L64.444 71.4576L61.7785 71.2725L61.6746 72.7689L61.5707 74.2653L64.2362 74.4504L64.3401 72.954ZM61.6746 72.7689L61.8193 71.2759L59.2186 71.0239L59.0739 72.5169L58.9292 74.0099L61.5299 74.2619L61.6746 72.7689ZM59.0739 72.5169L58.7603 71.05L56.2068 71.596L56.5204 73.0628L56.834 74.5297L59.3875 73.9837L59.0739 72.5169ZM56.5204 73.0628L56.2009 71.5973L53.6228 72.1593L53.9423 73.6249L54.2618 75.0905L56.8399 74.5284L56.5204 73.0628ZM53.9423 73.6249L53.1367 72.3596L50.9073 73.7789L51.7129 75.0442L52.5185 76.3096L54.7478 74.8902L53.9423 73.6249ZM51.7129 75.0442L50.6691 73.9669L48.7838 75.7936L49.8276 76.8709L50.8714 77.9482L52.7567 76.1215L51.7129 75.0442ZM49.8276 76.8709L48.5633 76.0637L47.1611 78.2601L48.4254 79.0673L49.6898 79.8744L51.0919 77.678L49.8276 76.8709ZM48.4254 79.0673L47.1875 78.2201L45.6741 80.4317L46.912 81.2788L48.1499 82.1259L49.6633 79.9144L48.4254 79.0673ZM46.912 81.2788L45.4151 81.3757L45.5877 84.0431L47.0846 83.9462L48.5815 83.8494L48.4088 81.1819L46.912 81.2788ZM47.0846 83.9462L45.5852 83.9035L45.5101 86.5394L47.0094 86.5822L48.5088 86.6249L48.584 83.989L47.0846 83.9462ZM47.0094 86.5822L45.5206 86.7646L45.8432 89.3973L47.3321 89.2148L48.821 89.0324L48.4983 86.3997L47.0094 86.5822ZM47.3321 89.2148L45.8888 88.8064L45.1736 91.3334L46.6169 91.7419L48.0602 92.1504L48.7754 89.6233L47.3321 89.2148ZM46.6169 91.7419L45.6342 90.6087L43.7942 92.2041L44.7769 93.3374L45.7596 94.4706L47.5995 92.8752L46.6169 91.7419ZM44.7769 93.3374L45.3344 91.9448L42.8031 90.9315L42.2457 92.3241L41.6882 93.7166L44.2195 94.7299L44.7769 93.3374ZM42.2457 92.3241L43.6472 91.7894L42.6928 89.2875L41.2913 89.8221L39.8898 90.3568L40.8442 92.8587L42.2457 92.3241ZM41.2913 89.8221L42.7737 89.5932L42.3688 86.9714L40.8863 87.2004L39.4039 87.4293L39.8088 90.0511L41.2913 89.8221ZM40.8863 87.2004L42.3747 87.3869L42.7048 84.7536L41.2164 84.567L39.728 84.3805L39.398 87.0138L40.8863 87.2004ZM41.2164 84.567L42.716 84.6029L42.7791 81.9645L41.2795 81.9286L39.7799 81.8927L39.7168 84.5312L41.2164 84.567ZM41.2795 81.9286L42.7391 82.2743L43.3485 79.7012L41.8889 79.3555L40.4293 79.0098L39.8199 81.5829L41.2795 81.9286ZM41.8889 79.3555L43.189 80.1037L44.506 77.8153L43.2059 77.0671L41.9058 76.3189L40.5888 78.6073L41.8889 79.3555ZM43.2059 77.0671L44.5855 77.6559L45.6297 75.2094L44.2501 74.6206L42.8705 74.0318L41.8263 76.4783L43.2059 77.0671ZM44.2501 74.6206L45.3566 75.6334L47.1475 73.6766L46.041 72.6638L44.9345 71.6511L43.1436 73.6079L44.2501 74.6206ZM46.041 72.6638L46.9852 73.8294L49.0322 72.1711L48.088 71.0056L47.1438 69.84L45.0968 71.4983L46.041 72.6638ZM48.088 71.0056L49.0309 72.1722L51.0865 70.5108L50.1437 69.3442L49.2008 68.1776L47.1451 69.839L48.088 71.0056ZM50.1437 69.3442L50.8223 70.6819L53.1858 69.4828L52.5072 68.1451L51.8285 66.8074L49.465 68.0065L50.1437 69.3442ZM52.5072 68.1451L52.7959 69.617L55.398 69.1067L55.1093 67.6348L54.8206 66.1628L52.2185 66.6731L52.5072 68.1451ZM55.1093 67.6348L55.6589 69.0305L58.1509 68.0492L57.6013 66.6535L57.0518 65.2578L54.5598 66.2391L55.1093 67.6348ZM57.6013 66.6535L57.4524 68.1461L60.1128 68.4116L60.2617 66.919L60.4106 65.4264L57.7502 65.1609L57.6013 66.6535ZM60.2617 66.919L60.1942 68.4174L62.8056 68.5351L62.8732 67.0366L62.9407 65.5382L60.3292 65.4205L60.2617 66.919ZM62.8732 67.0366L62.7865 68.5341L65.4577 68.6887L65.5444 67.1912L65.631 65.6937L62.9598 65.5392L62.8732 67.0366ZM65.5444 67.1912L65.025 68.5984L67.5332 69.5242L68.0525 68.117L68.5719 66.7098L66.0637 65.784L65.5444 67.1912ZM68.0525 68.117L67.1572 69.3204L69.3018 70.9161L70.1972 69.7126L71.0926 68.5092L68.9479 66.9135L68.0525 68.117ZM70.1972 69.7126L69.3677 70.9624L71.5607 72.4179L72.3902 71.1682L73.2197 69.9184L71.0267 68.4629L70.1972 69.7126ZM72.3902 71.1682L71.332 72.2314L73.2028 74.0932L74.2609 73.03L75.319 71.9668L73.4483 70.105L72.3902 71.1682ZM74.2609 73.03L73.035 73.8944L74.5536 76.0482L75.7795 75.1838L77.0054 74.3195L75.4869 72.1656L74.2609 73.03ZM75.7795 75.1838L74.4463 75.8713L75.6514 78.2085L76.9846 77.521L78.3178 76.8336L77.1127 74.4964L75.7795 75.1838ZM76.9846 77.521L75.5732 78.0289L76.4622 80.4994L77.8736 79.9915L79.285 79.4836L78.396 77.0131L76.9846 77.521ZM77.8736 79.9915L76.5011 80.5966L77.5748 83.0321L78.9474 82.427L80.3199 81.8219L79.2461 79.3864L77.8736 79.9915ZM78.9474 82.427L77.4594 82.6167L77.7948 85.2482L79.2828 85.0585L80.7707 84.8689L80.4353 82.2374L78.9474 82.427ZM79.2828 85.0585L77.7923 85.227L78.092 87.8795L79.5825 87.7111L81.073 87.5427L80.7733 84.8901L79.2828 85.0585ZM79.5825 87.7111L78.1495 87.2679L77.3606 89.8185L78.7936 90.2617L80.2266 90.705L81.0155 88.1543L79.5825 87.7111ZM78.7936 90.2617L77.5111 89.4838L76.1667 91.7001L77.4492 92.4781L78.7316 93.256L80.0761 91.0397L78.7936 90.2617ZM77.4492 92.4781L77.1104 91.0168L74.5506 91.6102L74.8893 93.0714L75.228 94.5327L77.7879 93.9393L77.4492 92.4781ZM74.8893 93.0714L73.6225 92.2681L72.3936 94.2059L73.6604 95.0093L74.9271 95.8126L76.156 93.8748L74.8893 93.0714ZM73.6604 95.0093L72.1604 95.0191L72.1777 97.6532L73.6777 97.6433L75.1777 97.6334L75.1603 94.9994L73.6604 95.0093ZM73.6777 97.6433L72.1782 97.6054L72.1115 100.246L73.611 100.284L75.1105 100.322L75.1772 97.6812L73.6777 97.6433ZM73.611 100.284L72.1112 100.256L72.0617 102.896L73.5615 102.924L75.0612 102.952L75.1107 100.312L73.611 100.284ZM73.5615 102.924L72.0621 102.967L72.1365 105.607L73.6359 105.565L75.1353 105.523L75.0609 102.882L73.5615 102.924ZM73.6359 105.565L72.1365 105.608L72.2125 108.248L73.7119 108.205L75.2113 108.162L75.1353 105.522L73.6359 105.565ZM73.7119 108.205L72.2119 108.196L72.1968 110.835L73.6968 110.844L75.1968 110.852L75.2119 108.214L73.7119 108.205ZM73.6968 110.844L72.1968 110.83L72.1725 113.47L73.6724 113.484L75.1723 113.498L75.1967 110.858L73.6968 110.844ZM73.6724 113.484L72.1883 113.266L71.9211 115.085L73.4052 115.303L74.8892 115.521L75.1565 113.702L73.6724 113.484ZM73.4052 115.303L73.4451 116.802L73.6289 116.797L73.5889 115.298L73.549 113.798L73.3652 113.803L73.4052 115.303ZM83.9237 115.298L85.4235 115.277L85.4222 115.177L83.9223 115.198L82.4224 115.218L82.4238 115.318L83.9237 115.298ZM83.9223 115.198L85.4148 115.047L85.1611 112.528L83.6687 112.678L82.1762 112.828L82.4299 115.348L83.9223 115.198ZM83.6687 112.678L85.1683 112.644L85.1074 109.994L83.6078 110.028L82.1082 110.063L82.1691 112.713L83.6687 112.678ZM83.6078 110.028L85.1077 110.014L85.0816 107.382L83.5817 107.397L82.0818 107.412L82.1078 110.043L83.6078 110.028ZM83.5817 107.397L85.0596 107.654L85.5212 104.998L84.0433 104.741L82.5655 104.484L82.1039 107.14L83.5817 107.397ZM84.0433 104.741L85.5364 104.597L85.2825 101.965L83.7895 102.109L82.2964 102.253L82.5503 104.885L84.0433 104.741ZM83.7895 102.109L85.2883 102.051L85.1846 99.4062L83.6857 99.465L82.1869 99.5238L82.2906 102.168L83.7895 102.109ZM83.6857 99.465L85.1857 99.4539L85.1662 96.8098L83.6662 96.8208L82.1663 96.8319L82.1858 99.4761L83.6857 99.465ZM83.6662 96.8208L85.1622 96.7108L84.9683 94.075L83.4724 94.1851L81.9764 94.2951L82.1703 96.9309L83.6662 96.8208ZM83.4724 94.1851L84.964 94.3429L85.2439 91.6977L83.7523 91.5399L82.2606 91.382L81.9807 94.0272L83.4724 94.1851ZM83.7523 91.5399L85.2418 91.3633L84.9292 88.7255L83.4396 88.9021L81.95 89.0786L82.2627 91.7164L83.7523 91.5399ZM83.4396 88.9021L84.9395 88.9214L84.9735 86.2794L83.4736 86.2601L81.9738 86.2408L81.9397 88.8827L83.4396 88.9021ZM83.4736 86.2601L84.9733 86.2905L85.0268 83.6504L83.5271 83.6201L82.0274 83.5897L81.974 86.2297L83.4736 86.2601ZM83.5271 83.6201L85.0247 83.5345L84.8737 80.892L83.3761 80.9776L81.8785 81.0632L82.0296 83.7057L83.5271 83.6201ZM83.3761 80.9776L84.8685 81.1286L85.1365 78.4803L83.6441 78.3293L82.1518 78.1782L81.8837 80.8266L83.3761 80.9776ZM83.6441 78.3293L85.1374 78.1873L84.8868 75.5513L83.3936 75.6932L81.9003 75.8351L82.1509 78.4712L83.6441 78.3293ZM83.3936 75.6932L84.8934 75.7151L84.932 73.0762L83.4322 73.0543L81.9323 73.0324L81.8937 75.6713L83.3936 75.6932ZM83.4322 73.0543L84.932 73.0781L84.9739 70.4281L83.4741 70.4044L81.9743 70.3806L81.9324 73.0306L83.4322 73.0543ZM83.4741 70.4044L84.971 70.3081L84.8012 67.6683L83.3043 67.7646L81.8074 67.8609L81.9772 70.5007L83.4741 70.4044ZM83.3043 67.7646L84.8036 67.7189L84.7231 65.0743L83.2238 65.12L81.7244 65.1657L81.805 67.8102L83.3043 67.7646ZM83.2238 65.12L84.4343 64.2342L83.2376 62.5989L82.0271 63.4847L80.8166 64.3705L82.0132 66.0058L83.2238 65.12ZM82.0271 63.4847L81.8354 61.997L79.1961 62.337L79.3877 63.8247L79.5794 65.3124L82.2187 64.9724L82.0271 63.4847ZM79.3877 63.8247L79.3429 62.3254L76.703 62.4043L76.7479 63.9036L76.7927 65.403L79.4325 65.3241L79.3877 63.8247ZM76.7479 63.9036L76.9604 62.4188L74.3197 62.0408L74.1071 63.5257L73.8946 65.0105L76.5353 65.3885L76.7479 63.9036ZM74.1071 63.5257L74.0094 62.0289L71.3698 62.2012L71.4675 63.698L71.5652 65.1948L74.2048 65.0225L74.1071 63.5257ZM71.4675 63.698L72.9631 63.5836L72.7679 61.0312L71.2722 61.1456L69.7766 61.26L69.9718 63.8124L71.4675 63.698ZM71.2722 61.1456L72.7715 61.1933L72.8433 58.9366L71.344 58.8889L69.8448 58.8412L69.773 61.0979L71.2722 61.1456ZM71.344 58.8889L71.389 57.3896L68.7487 57.3103L68.7037 58.8097L68.6587 60.309L71.299 60.3882L71.344 58.8889ZM68.7037 58.8097L68.7754 57.3114L66.1349 57.1849L66.0632 58.6832L65.9914 60.1815L68.6319 60.3079L68.7037 58.8097ZM66.0632 58.6832L66.1252 57.1845L63.4847 57.0752L63.4227 58.5739L63.3607 60.0727L66.0011 60.1819L66.0632 58.6832ZM63.4227 58.5739L63.3167 57.0777L60.6774 57.2647L60.7834 58.7609L60.8894 60.2572L63.5287 60.0702L63.4227 58.5739ZM60.7834 58.7609L60.8567 57.2627L58.2162 57.1336L58.1429 58.6318L58.0697 60.13L60.7102 60.2591L60.7834 58.7609ZM58.1429 58.6318L57.9849 57.1401L55.346 57.4197L55.504 58.9113L55.662 60.403L58.3009 60.1235L58.1429 58.6318ZM55.504 58.9113L55.4566 57.4121L52.8169 57.4955L52.8643 58.9947L52.9117 60.494L55.5514 60.4106L55.504 58.9113ZM52.8643 58.9947L53.1286 57.5182L50.4868 57.0452L50.2224 58.5218L49.9581 59.9983L52.5999 60.4713L52.8643 58.9947ZM50.2224 58.5218L49.6371 57.1407L47.4315 58.0754L48.0168 59.4565L48.6021 60.8376L50.8077 59.9029L50.2224 58.5218ZM48.0168 59.4565L46.5213 59.5723L46.7252 62.2067L48.2207 62.091L49.7162 61.9752L49.5123 59.3407L48.0168 59.4565ZM48.2207 62.091L46.8282 61.5333L46.1124 63.3207L47.5049 63.8784L48.8974 64.436L49.6132 62.6486L48.2207 62.091ZM47.5049 63.8784L47.5904 62.3808L44.9501 62.2301L44.8646 63.7277L44.7791 65.2252L47.4194 65.3759L47.5049 63.8784ZM44.8646 63.7277L44.6717 62.2401L42.0324 62.5823L42.2253 64.0699L42.4181 65.5574L45.0575 65.2152L44.8646 63.7277ZM42.2253 64.0699L42.3648 62.5764L39.7244 62.3296L39.5848 63.8231L39.4452 65.3166L42.0857 65.5633L42.2253 64.0699ZM39.5848 63.8231L39.4324 62.3308L36.7929 62.6005L36.9453 64.0927L37.0977 65.5849L39.7372 65.3153L39.5848 63.8231ZM36.9453 64.0927L35.4723 63.8096L35.0845 65.8269L36.5576 66.11L38.0306 66.3931L38.4183 64.3758L36.9453 64.0927ZM36.5576 66.11L35.0619 66.2239L35.2642 68.8792L36.7599 68.7652L38.2555 68.6513L38.0532 65.996L36.5576 66.11ZM36.7599 68.7652L35.2735 68.5632L34.9165 71.1904L36.4028 71.3924L37.8892 71.5943L38.2462 68.9672L36.7599 68.7652ZM36.4028 71.3924L34.9107 71.5459L35.1833 74.1944L36.6754 74.0408L38.1676 73.8872L37.895 71.2388L36.4028 71.3924ZM36.6754 74.0408L35.2013 73.7633L34.705 76.3995L36.1791 76.677L37.6532 76.9545L38.1495 74.3183L36.6754 74.0408ZM36.1791 76.677L34.6792 76.6903L34.7025 79.3292L36.2024 79.316L37.7024 79.3027L37.6791 76.6638L36.1791 76.677ZM36.2024 79.316L34.7074 79.4379L34.9231 82.0821L36.4182 81.9602L37.9132 81.8382L37.6975 79.194L36.2024 79.316ZM36.4182 81.9602L34.9306 81.7674L34.5888 84.4055L36.0764 84.5982L37.564 84.7909L37.9057 82.1529L36.4182 81.9602ZM36.0764 84.5982L34.5764 84.5928L34.5669 87.2338L36.0669 87.2392L37.5669 87.2446L37.5764 84.6036L36.0764 84.5982ZM36.0669 87.2392L34.5707 87.3463L34.76 89.9904L36.2562 89.8833L37.7524 89.7761L37.5631 87.1321L36.0669 87.2392ZM36.2562 89.8833L34.7635 89.7356L34.5025 92.3747L35.9952 92.5223L37.4879 92.67L37.7489 90.0309L36.2562 89.8833ZM35.9952 92.5223L34.5026 92.6708L34.7655 95.3141L36.2581 95.1656L37.7508 95.0171L37.4878 92.3738L35.9952 92.5223ZM36.2581 95.1656L34.7592 95.1089L34.6596 97.7454L36.1585 97.802L37.6575 97.8587L37.7571 95.2222L36.2581 95.1656ZM36.1585 97.802L34.6611 97.7137L34.5052 100.359L36.0026 100.448L37.5 100.536L37.6559 97.8903L36.1585 97.802ZM36.0026 100.448L34.5034 100.498L34.5926 103.138L36.0917 103.088L37.5908 103.037L37.5017 100.397L36.0026 100.448ZM36.0917 103.088L34.5952 103.19L34.7758 105.835L36.2724 105.733L37.7689 105.631L37.5882 102.985L36.0917 103.088ZM36.2724 105.733L34.7833 105.552L34.4634 108.182L35.9524 108.363L37.4414 108.544L37.7614 105.914L36.2724 105.733ZM35.9524 108.363L34.4607 108.521L34.7413 111.17L36.233 111.012L37.7247 110.854L37.4441 108.205L35.9524 108.363ZM36.233 111.012L34.7595 110.731L34.2566 113.373L35.7302 113.654L37.2037 113.934L37.7065 111.292L36.233 111.012ZM35.7302 113.654L34.2387 113.813L34.4747 116.02L35.9662 115.861L37.4577 115.701L37.2217 113.494L35.7302 113.654ZM14.0775 115.861H15.5775V115.761H14.0775H12.5775V115.861H14.0775ZM14.0775 115.761L15.5758 115.69L15.4558 113.15L13.9575 113.221L12.4591 113.291L12.5791 115.831L14.0775 115.761ZM13.9575 113.221L15.4574 113.236L15.4853 110.596L13.9854 110.581L12.4855 110.565L12.4575 113.205L13.9575 113.221ZM13.9854 110.581L15.4854 110.581L15.4856 107.941L13.9856 107.941L12.4856 107.94L12.4854 110.58L13.9854 110.581ZM13.9856 107.941L15.4855 107.958L15.5163 105.318L14.0164 105.301L12.5165 105.283L12.4857 107.923L13.9856 107.941ZM14.0164 105.301L15.5137 105.39L15.6705 102.75L14.1731 102.661L12.6757 102.572L12.519 105.212L14.0164 105.301ZM14.1731 102.661L15.6644 102.499L15.3788 99.8593L13.8875 100.021L12.3962 100.182L12.6818 102.822L14.1731 102.661ZM13.8875 100.021L15.3845 100.116L15.5529 97.4761L14.056 97.3806L12.559 97.2851L12.3906 99.9251L13.8875 100.021ZM14.056 97.3806L15.5559 97.3936L15.5789 94.7536L14.0789 94.7406L12.579 94.7276L12.556 97.3676L14.056 97.3806ZM14.0789 94.7406L15.5713 94.5897L15.3045 91.9497L13.8121 92.1006L12.3197 92.2515L12.5865 94.8915L14.0789 94.7406ZM13.8121 92.1006L15.3096 92.1868L15.4615 89.5468L13.9639 89.4606L12.4664 89.3744L12.3145 92.0144L13.8121 92.1006ZM13.9639 89.4606L15.4638 89.4414L15.43 86.8014L13.9301 86.8206L12.4302 86.8398L12.4641 89.4798L13.9639 89.4606ZM13.9301 86.8206L15.4155 87.0295L15.7868 84.3895L14.3015 84.1806L12.8161 83.9717L12.4447 86.6116L13.9301 86.8206ZM14.3015 84.1806L15.7992 84.099L15.6555 81.459L14.1577 81.5406L12.6599 81.6221L12.8037 84.2621L14.3015 84.1806ZM14.1577 81.5406L15.654 81.6454L15.839 79.0054L14.3427 78.9006L12.8464 78.7958L12.6614 81.4358L14.1577 81.5406ZM14.3427 78.9006L15.8418 78.8502L15.7531 76.2102L14.254 76.2606L12.7548 76.311L12.8435 78.951L14.3427 78.9006ZM14.254 76.2606L15.7462 76.1084L15.477 73.4684L13.9848 73.6206L12.4925 73.7728L12.7617 76.4128L14.254 76.2606ZM13.9848 73.6206L15.4847 73.6363L15.5122 70.9963L14.0123 70.9806L12.5124 70.9649L12.4848 73.6049L13.9848 73.6206ZM14.0123 70.9806L15.5121 70.9523L15.4622 68.3123L13.9625 68.3406L12.4628 68.3689L12.5126 71.0089L14.0123 70.9806ZM13.9625 68.3406L15.4625 68.3496L15.4783 65.7096L13.9784 65.7006L12.4784 65.6916L12.4625 68.3316L13.9625 68.3406ZM13.9784 65.7006L15.4762 65.7814L15.6185 63.1414L14.1207 63.0606L12.6229 62.9798L12.4805 65.6198L13.9784 65.7006ZM14.1207 63.0606L15.6148 62.9279L15.3804 60.2879L13.8862 60.4206L12.3921 60.5533L12.6266 63.1933L14.1207 63.0606ZM13.8862 60.4206L15.3682 60.6525L15.7814 58.0125L14.2994 57.7806L12.8174 57.5487L12.4043 60.1887L13.8862 60.4206ZM14.2994 57.7806L15.7935 57.6472L15.5578 55.0073L14.0638 55.1406L12.5697 55.2739L12.8053 57.9139L14.2994 57.7806ZM14.0638 55.1406L15.562 55.2143L15.6919 52.5743L14.1937 52.5006L12.6955 52.4269L12.5656 55.0669L14.0638 55.1406ZM14.1937 52.5006L15.6932 52.4644L15.6296 49.8244L14.13 49.8606L12.6304 49.8968L12.6941 52.5368L14.1937 52.5006ZM14.13 49.8606L15.6299 49.881L15.6658 47.241L14.166 47.2206L12.6661 47.2002L12.6301 49.8402L14.13 49.8606ZM14.166 47.2206L15.6601 47.088L15.4264 44.4537L13.9322 44.5862L12.4381 44.7188L12.6718 47.3531L14.166 47.2206ZM13.9322 44.5862L15.4136 44.8219L15.8286 42.2137L14.3472 41.978L12.8658 41.7424L12.4509 44.3505L13.9322 44.5862ZM14.3472 41.978L14.8872 43.3774L17.2375 42.4705L16.6975 41.071L16.1574 39.6716L13.8071 40.5786L14.3472 41.978ZM16.6975 41.071L16.2183 42.4924L18.5465 43.2773L19.0257 41.8559L19.5049 40.4345L17.1767 39.6496L16.6975 41.071ZM19.0257 41.8559L17.5751 42.2376L18.2107 44.6534L19.6613 44.2717L21.1119 43.89L20.4763 41.4742L19.0257 41.8559ZM19.6613 44.2717L18.1634 44.1919L18.023 46.8295L19.5209 46.9092L21.0187 46.989L21.1592 44.3515L19.6613 44.2717ZM19.5209 46.9092L18.6077 48.0992L20.47 49.5284L21.3832 48.3384L22.2964 47.1484L20.4341 45.7193L19.5209 46.9092ZM21.3832 48.3384L21.1932 49.8263L23.7703 50.1553L23.9602 48.6674L24.1502 47.1795L21.5731 46.8505L21.3832 48.3384ZM23.9602 48.6674L24.0181 50.1663L26.6463 50.0648L26.5884 48.5659L26.5305 47.067L23.9023 47.1685L23.9602 48.6674ZM26.5884 48.5659L26.8 50.0509L29.4214 49.6775L29.2098 48.1925L28.9983 46.7075L26.3769 47.0809L26.5884 48.5659ZM29.2098 48.1925L29.1969 49.6924L31.8535 49.7154L31.8665 48.2154L31.8795 46.7155L29.2228 46.6925L29.2098 48.1925ZM31.8665 48.2154L31.8929 49.7152L34.5392 49.6687L34.5128 48.1689L34.4865 46.6692L31.8401 46.7157L31.8665 48.2154ZM34.5128 48.1689L34.4277 49.6665L37.066 49.8166L37.1511 48.319L37.2363 46.8214L34.598 46.6713L34.5128 48.1689ZM37.1511 48.319L36.975 49.8086L39.6042 50.1195L39.7804 48.6298L39.9565 47.1402L37.3273 46.8293L37.1511 48.319ZM39.7804 48.6298L39.8501 50.1282L42.4927 50.0051L42.4229 48.5068L42.3531 47.0084L39.7106 47.1315L39.7804 48.6298ZM42.4229 48.5068L42.373 50.0059L45.0071 50.0936L45.057 48.5944L45.1069 47.0952L42.4728 47.0076L42.4229 48.5068ZM45.057 48.5944L45.0548 50.0944L47.6918 50.0982L47.6939 48.5982L47.6961 47.0982L45.0591 47.0944L45.057 48.5944ZM47.6939 48.5982L47.865 50.0884L50.4956 49.7864L50.3246 48.2962L50.1535 46.806L47.5229 47.1079L47.6939 48.5982ZM50.3246 48.2962L51.7841 48.6422L52.3739 46.1544L50.9143 45.8084L49.4548 45.4624L48.865 47.9502L50.3246 48.2962ZM50.9143 45.8084L52.4132 45.751L52.3116 43.0991L50.8127 43.1565L49.3138 43.214L49.4154 45.8658L50.9143 45.8084ZM50.8127 43.1565L51.9769 44.1024L53.5465 42.1704L52.3823 41.2246L51.2181 40.2787L49.6485 42.2107L50.8127 43.1565ZM52.3823 41.2246L52.3073 42.7227L54.9216 42.8536L54.9966 41.3555L55.0717 39.8574L52.4574 39.7264L52.3823 41.2246ZM54.9966 41.3555L53.9831 42.4613L55.5632 43.9095L56.5767 42.8037L57.5902 41.6979L56.0101 40.2497L54.9966 41.3555ZM56.5767 42.8037L55.0819 42.928L55.2981 45.5286L56.7929 45.4044L58.2878 45.2801L58.0716 42.6794L56.5767 42.8037ZM56.7929 45.4044L55.3053 45.5966L55.6372 48.1657L57.1248 47.9735L58.6125 47.7813L58.2805 45.2122L56.7929 45.4044ZM57.1248 47.9735L56.8791 49.4533L59.371 49.867L59.6167 48.3873L59.8623 46.9075L57.3705 46.4938L57.1248 47.9735ZM59.6167 48.3873L59.721 49.8836L62.342 49.7008L62.2376 48.2044L62.1332 46.7081L59.5123 46.8909L59.6167 48.3873ZM62.2376 48.2044L61.9462 49.6759L64.57 50.1955L64.8614 48.7241L65.1528 47.2527L62.529 46.733L62.2376 48.2044ZM64.8614 48.7241L65.0482 50.2124L67.6767 49.8825L67.4899 48.3942L67.3031 46.9058L64.6746 47.2358L64.8614 48.7241ZM67.4899 48.3942L68.8854 48.9443L69.7665 46.7092L68.3711 46.159L66.9756 45.6089L66.0944 47.844L67.4899 48.3942ZM68.3711 46.159L69.8583 46.3546L70.2063 43.7084L68.7192 43.5128L67.232 43.3172L66.8839 45.9634L68.3711 46.159ZM68.7192 43.5128L70.0118 42.7518L68.6912 40.5087L67.3986 41.2697L66.1059 42.0307L67.4265 44.2738L68.7192 43.5128ZM67.3986 41.2697L67.4383 39.7702L64.8022 39.7005L64.7626 41.1999L64.7229 42.6994L67.3589 42.7692L67.3986 41.2697ZM64.7626 41.1999L63.6178 40.2306L62.0564 42.0746L63.2011 43.0439L64.3458 44.0133L65.9073 42.1693L64.7626 41.1999ZM63.2011 43.0439L61.722 42.7943L61.2888 45.361L62.7678 45.6107L64.2469 45.8604L64.6802 43.2936L63.2011 43.0439ZM62.7678 45.6107L61.2824 45.819L61.6044 48.1148L63.0898 47.9065L64.5753 47.6982L64.2533 45.4023L62.7678 45.6107ZM63.0898 47.9065V46.4065H62.9117V47.9065V49.4065H63.0898V47.9065ZM25.0733 48.2297L26.2116 49.2065L26.2767 49.1306L25.1384 48.1538L24 47.177L23.9349 47.2529L25.0733 48.2297ZM25.1384 48.1538L26.6304 47.9989L26.3651 45.4422L24.8731 45.5971L23.3811 45.7519L23.6464 48.3086L25.1384 48.1538ZM24.8731 45.5971L26.3722 45.5465L26.2817 42.8611L24.7825 42.9117L23.2834 42.9622L23.3739 45.6476L24.8731 45.5971ZM24.7825 42.9117L25.7872 44.0256L27.7007 42.2997L26.6961 41.1859L25.6915 40.072L23.7779 41.7978L24.7825 42.9117ZM26.6961 41.1859L26.6842 42.6858L29.2795 42.7063L29.2914 41.2063L29.3032 39.7064L26.7079 39.6859L26.6961 41.1859ZM29.2914 41.2063L28.1264 42.1513L29.5932 43.9595L30.7581 43.0146L31.9231 42.0696L30.4563 40.2614L29.2914 41.2063ZM30.7581 43.0146L29.2655 43.1632L29.5235 45.7544L31.0161 45.6058L32.5088 45.4572L32.2508 42.866L30.7581 43.0146ZM31.0161 45.6058L29.5179 45.5326L29.4056 47.8333L30.9038 47.9065L32.402 47.9797L32.5144 45.679L31.0161 45.6058ZM30.9038 47.9065V46.4065H30.8945V47.9065V49.4065H30.9038V47.9065ZM36.7158 48.2297L37.8577 49.2024L37.9225 49.1262L36.7807 48.1535L35.6388 47.1808L35.574 47.2569L36.7158 48.2297ZM36.7807 48.1535L38.257 47.8879L37.7991 45.3431L36.3228 45.6087L34.8465 45.8744L35.3044 48.4192L36.7807 48.1535ZM36.3228 45.6087L37.8193 45.7114L38.0027 43.0387L36.5062 42.9361L35.0097 42.8334L34.8263 45.5061L36.3228 45.6087ZM36.5062 42.9361L37.5666 43.997L39.3707 42.1939L38.3103 41.133L37.2499 40.072L35.4458 41.8751L36.5062 42.9361ZM38.3103 41.133L38.2732 42.6325L40.8849 42.697L40.9219 41.1975L40.959 39.698L38.3473 39.6334L38.3103 41.133ZM40.9219 41.1975L39.9005 42.2959L41.7335 44.0005L42.7549 42.9021L43.7764 41.8036L41.9434 40.0991L40.9219 41.1975ZM42.7549 42.9021L41.2575 42.8139L41.1012 45.4696L42.5986 45.5577L44.096 45.6459L44.2523 42.9902L42.7549 42.9021ZM42.5986 45.5577L41.0987 45.5365L41.0613 48.1776L42.5612 48.1989L44.0611 48.2201L44.0984 45.579L42.5986 45.5577ZM42.5612 48.1989L41.3792 47.2754L41.3551 47.3062L42.5371 48.2297L43.7192 49.1532L43.7432 49.1224L42.5612 48.1989ZM82.316 48.5528L83.6221 47.8152L83.573 47.7281L82.2668 48.4657L80.9607 49.2033L81.0099 49.2904L82.316 48.5528ZM82.2668 48.4657L82.0786 46.9776L79.4851 47.3057L79.6734 48.7938L79.8616 50.282L82.4551 49.9539L82.2668 48.4657ZM79.6734 48.7938L80.3152 47.4381L77.9545 46.3205L77.3126 47.6762L76.6708 49.032L79.0316 50.1496L79.6734 48.7938ZM77.3126 47.6762L78.7691 47.3173L78.129 44.72L76.6726 45.0789L75.2162 45.4378L75.8562 48.0351L77.3126 47.6762ZM76.6726 45.0789L78.1458 45.3614L78.656 42.7002L77.1829 42.4177L75.7097 42.1353L75.1994 44.7965L76.6726 45.0789ZM77.1829 42.4177L77.9759 43.6909L80.2147 42.2964L79.4216 41.0232L78.6285 39.75L76.3898 41.1445L77.1829 42.4177ZM79.4216 41.0232L79.2005 42.5068L81.7785 42.8909L81.9995 41.4073L82.2206 39.9237L79.6426 39.5396L79.4216 41.0232ZM81.9995 41.4073L80.5751 41.8776L81.3594 44.2528L82.7838 43.7826L84.2081 43.3123L83.4239 40.937L81.9995 41.4073ZM82.7838 43.7826L81.3004 43.5595L80.905 46.1897L82.3883 46.4128L83.8716 46.6358L84.2671 44.0056L82.7838 43.7826ZM82.3883 46.4128L81.0976 47.177L82.4466 49.4554L83.7373 48.6912L85.0281 47.927L83.679 45.6485L82.3883 46.4128ZM83.7373 48.6912L83.8541 50.1867L86.5357 49.9772L86.4189 48.4818L86.3021 46.9863L83.6205 47.1958L83.7373 48.6912ZM86.4189 48.4818L86.3166 49.9783L88.9564 50.1587L89.0587 48.6622L89.161 47.1657L86.5212 46.9853L86.4189 48.4818ZM89.0587 48.6622L89.1179 50.161L91.7577 50.0568L91.6985 48.5579L91.6393 47.0591L88.9995 47.1634L89.0587 48.6622ZM91.6985 48.5579L92.1117 49.9999L94.5549 49.2999L94.1417 47.8579L93.7286 46.4159L91.2854 47.116L91.6985 48.5579ZM94.1417 47.8579L95.6253 48.0792L96.0165 45.4572L94.5329 45.2359L93.0493 45.0146L92.6582 47.6366L94.1417 47.8579ZM94.5329 45.2359L96.0302 45.1457L95.8702 42.4882L94.3729 42.5783L92.8756 42.6684L93.0356 45.326L94.5329 45.2359ZM94.3729 42.5783L95.3316 41.4247L93.3268 39.7586L92.3681 40.9122L91.4094 42.0659L93.4142 43.7319L94.3729 42.5783ZM92.3681 40.9122L92.0679 39.4426L89.4942 39.9683L89.7944 41.438L90.0946 42.9076L92.6683 42.3819L92.3681 40.9122ZM89.7944 41.438L88.4363 40.801L87.4151 42.9785L88.7731 43.6154L90.1312 44.2524L91.1524 42.0749L89.7944 41.438ZM88.7731 43.6154L87.281 43.4626L87.0124 46.085L88.5046 46.2378L89.9968 46.3906L90.2653 43.7683L88.7731 43.6154ZM88.5046 46.2378L87.0047 46.2605L87.0349 48.253L88.5348 48.2303L90.0346 48.2075L90.0044 46.2151L88.5046 46.2378ZM88.5348 48.2303L88.5471 46.7303L88.4731 46.7297L88.4607 48.2297L88.4484 49.7296L88.5224 49.7302L88.5348 48.2303ZM105.601 48.5528L106.855 47.7301L106.801 47.6465L105.546 48.4692L104.292 49.2919L104.347 49.3755L105.601 48.5528ZM105.546 48.4692L105.563 46.9693L102.982 46.9415L102.966 48.4414L102.95 49.9413L105.53 49.9691L105.546 48.4692ZM102.966 48.4414L103.328 46.9857L100.964 46.3982L100.602 47.8539L100.24 49.3096L102.604 49.8971L102.966 48.4414ZM100.602 47.8539L102.052 47.467L101.388 44.9806L99.9385 45.3675L98.4892 45.7544L99.153 48.2408L100.602 47.8539ZM99.9385 45.3675L101.42 45.602L101.831 43.0084L100.349 42.7739L98.8675 42.5394L98.4569 45.133L99.9385 45.3675ZM100.349 42.7739L101.444 43.7987L103.182 41.9417L102.086 40.9169L100.991 39.8922L99.2537 41.7491L100.349 42.7739ZM102.086 40.9169L101.964 42.4119L104.656 42.6323L104.779 41.1373L104.901 39.6423L102.209 39.4219L102.086 40.9169ZM104.779 41.1373L103.449 41.8307L104.611 44.0611L105.941 43.3677L107.271 42.6743L106.109 40.4439L104.779 41.1373ZM105.941 43.3677L104.442 43.323L104.363 45.9603L105.863 46.005L107.362 46.0497L107.441 43.4124L105.941 43.3677ZM105.863 46.005L104.363 45.9652L104.293 48.6051L105.793 48.6449L107.292 48.6847L107.362 46.0448L105.863 46.005ZM105.793 48.6449L104.293 48.647L104.296 51.2869L105.796 51.2848L107.296 51.2827L107.293 48.6428L105.793 48.6449ZM105.796 51.2848L104.298 51.2187L104.181 53.8583L105.68 53.9244L107.178 53.9905L107.295 51.3509L105.796 51.2848ZM105.68 53.9244L104.18 53.9411L104.209 56.5811L105.709 56.5644L107.209 56.5476L107.18 53.9077L105.68 53.9244ZM105.709 56.5644L104.21 56.5239L104.139 59.1635L105.638 59.204L107.138 59.2444L107.209 56.6048L105.709 56.5644ZM105.638 59.204L104.139 59.2536L104.226 61.8939L105.726 61.8442L107.225 61.7946L107.137 59.1543L105.638 59.204ZM105.726 61.8442L104.226 61.807L104.161 64.4466L105.66 64.4838L107.16 64.521L107.225 61.8814L105.726 61.8442ZM105.66 64.4838L104.161 64.5449L104.269 67.1855L105.768 67.1244L107.266 67.0632L107.159 64.4227L105.66 64.4838ZM105.768 67.1244L104.276 67.282L104.555 69.9238L106.047 69.7662L107.539 69.6085L107.259 66.9668L105.768 67.1244ZM106.047 69.7662L104.547 69.751L104.52 72.391L106.02 72.4061L107.52 72.4213L107.547 69.7813L106.047 69.7662ZM106.02 72.4061L104.521 72.3508L104.424 74.9902L105.923 75.0456L107.422 75.1009L107.519 72.4615L106.02 72.4061ZM105.923 75.0456L104.424 74.9838L104.315 77.6231L105.814 77.6849L107.313 77.7467L107.421 75.1074L105.923 75.0456ZM105.814 77.6849L104.317 77.7855L104.495 80.427L105.991 80.3264L107.488 80.2259L107.31 77.5843L105.814 77.6849ZM105.991 80.3264L104.491 80.3338L104.504 82.9741L106.004 82.9668L107.504 82.9594L107.491 80.3191L105.991 80.3264ZM106.004 82.9668L104.521 82.7438L104.125 85.3804L105.608 85.6034L107.091 85.8263L107.488 83.1898L106.004 82.9668ZM105.608 85.6034L104.11 85.6771L104.24 88.3184L105.738 88.2447L107.236 88.1709L107.106 85.5296L105.608 85.6034ZM105.738 88.2447L104.245 88.0972L103.985 90.7348L105.478 90.8823L106.97 91.0297L107.231 88.3921L105.738 88.2447ZM105.478 90.8823L103.995 91.1124L104.406 93.7566L105.888 93.5265L107.37 93.2964L106.96 90.6522L105.478 90.8823ZM105.888 93.5265L104.415 93.2459L103.913 95.8809L105.386 96.1615L106.86 96.4421L107.362 93.807L105.888 93.5265ZM105.386 96.1615L103.889 96.2519L104.049 98.8937L105.546 98.8033L107.043 98.7129L106.884 96.0711L105.386 96.1615ZM105.546 98.8033L104.051 98.9249L104.266 101.567L105.761 101.446L107.256 101.324L107.041 98.6817L105.546 98.8033ZM105.761 101.446L104.277 101.226L103.886 103.862L105.37 104.082L106.854 104.301L107.245 101.666L105.761 101.446ZM105.37 104.082L103.872 104.003L103.734 106.642L105.232 106.72L106.73 106.799L106.868 104.16L105.37 104.082ZM105.232 106.72L103.733 106.782L103.841 109.423L105.34 109.362L106.839 109.3L106.731 106.659L105.232 106.72ZM105.34 109.362L103.842 109.288L103.712 111.926L105.21 112L106.708 112.074L106.838 109.435L105.34 109.362ZM105.21 112L103.727 112.227L104.131 114.871L105.614 114.645L107.097 114.418L106.693 111.774L105.21 112ZM105.614 114.645L104.185 114.19L103.977 114.843L105.406 115.298L106.836 115.753L107.043 115.1L105.614 114.645ZM19.5754 47.9065L19.3894 46.4181L19.2902 46.4305L19.4761 47.9189L19.662 49.4073L19.7613 49.3949L19.5754 47.9065ZM19.4761 47.9189L19.205 46.4436L17.2486 46.8032L17.5197 48.2785L17.7909 49.7538L19.7473 49.3942L19.4761 47.9189ZM17.5197 48.2785L17.2403 46.8047L15.1868 47.1941L15.4663 48.6679L15.7458 50.1416L17.7992 49.7522L17.5197 48.2785ZM15.4663 48.6679L15.4777 47.1679L14.4257 47.1599L14.4142 48.6599L14.4028 50.1598L15.4549 50.1678L15.4663 48.6679ZM14.4142 48.6599L15.9027 48.474L15.8893 48.3669L14.4009 48.5528L12.9124 48.7387L12.9258 48.8458L14.4142 48.6599ZM50.9457 47.9065V49.4065H51.0457V47.9065V46.4065H50.9457V47.9065ZM51.0457 47.9065L50.7728 49.3815L53.0035 49.7941L53.2764 48.3191L53.5492 46.8442L51.3185 46.4315L51.0457 47.9065ZM53.2764 48.3191L53.2673 49.8191L55.6311 49.8334L55.6402 48.3335L55.6493 46.8335L53.2855 46.8192L53.2764 48.3191ZM55.6402 48.3335L56.1834 49.7317L57.3054 49.2958L56.7622 47.8976L56.2191 46.4994L55.0971 46.9353L55.6402 48.3335ZM56.7622 47.8976L55.4387 48.6035L55.4435 48.6124L56.767 47.9065L58.0905 47.2006L58.0858 47.1918L56.7622 47.8976ZM68.4096 47.9065L68.352 49.4054L68.4519 49.4092L68.5095 47.9103L68.5671 46.4114L68.4672 46.4076L68.4096 47.9065ZM68.5095 47.9103L68.2173 49.3816L70.6697 49.8687L70.9619 48.3974L71.2541 46.9261L68.8017 46.4391L68.5095 47.9103ZM70.9619 48.3974L70.9332 49.8971L73.5254 49.9466L73.554 48.4469L73.5827 46.9471L70.9905 46.8977L70.9619 48.3974ZM73.554 48.4469L73.4812 49.9451L76.1548 50.075L76.2276 48.5768L76.3003 47.0785L73.6268 46.9486L73.554 48.4469ZM76.2276 48.5768L76.9876 49.8699L77.5782 49.5228L76.8181 48.2297L76.0581 46.9365L75.4675 47.2836L76.2276 48.5768ZM94.282 47.9065V49.4065H94.382V47.9065V46.4065H94.282V47.9065ZM94.382 47.9065L93.9729 49.3496L96.184 49.9764L96.5931 48.5333L97.0022 47.0901L94.7911 46.4634L94.382 47.9065ZM96.5931 48.5333L96.6466 50.0323L99.0629 49.946L99.0093 48.4469L98.9558 46.9479L96.5395 47.0342L96.5931 48.5333ZM99.0093 48.4469L99.8171 49.7109L100.848 49.0521L100.04 47.7882L99.2325 46.5242L98.2016 47.183L99.0093 48.4469ZM100.04 47.7882L98.7167 48.494L98.7798 48.6124L100.103 47.9065L101.427 47.2006L101.364 47.0823L100.04 47.7882ZM14.4009 52.7538V54.2538H14.5009V52.7538V51.2538H14.4009V52.7538ZM14.5009 52.7538L14.4926 54.2538L17.0326 54.2678L17.0409 52.7678L17.0491 51.2679L14.5091 51.2538L14.5009 52.7538ZM17.0409 52.7678L17.0929 54.2669L19.7329 54.1753L19.6809 52.6762L19.6289 51.1771L16.9889 51.2687L17.0409 52.7678ZM19.6809 52.6762L19.5221 54.1678L22.1621 54.4489L22.3209 52.9573L22.4797 51.4657L19.8397 51.1847L19.6809 52.6762ZM22.3209 52.9573L22.4138 54.4544L25.0538 54.2906L24.9609 52.7935L24.868 51.2964L22.228 51.4602L22.3209 52.9573ZM24.9609 52.7935L25.0725 54.2893L27.7125 54.0924L27.6009 52.5965L27.4893 51.1007L24.8493 51.2976L24.9609 52.7935ZM27.6009 52.5965L27.6476 54.0958L30.2876 54.0135L30.2409 52.5143L30.1942 51.015L27.5542 51.0972L27.6009 52.5965ZM30.2409 52.5143L30.164 54.0123L32.804 54.1477L32.8809 52.6497L32.9577 51.1517L30.3177 51.0162L30.2409 52.5143ZM32.8809 52.6497L32.9134 54.1493L35.5534 54.0921L35.5209 52.5924L35.4883 51.0928L32.8483 51.15L32.8809 52.6497ZM35.5209 52.5924L35.4981 54.0922L38.1381 54.1324L38.1609 52.6326L38.1837 51.1327L35.5437 51.0926L35.5209 52.5924ZM38.1609 52.6326L38.1189 54.132L40.7588 54.2059L40.8009 52.7065L40.8429 51.2071L38.2029 51.1331L38.1609 52.6326ZM40.8009 52.7065L40.8486 54.2058L43.4886 54.1217L43.4409 52.6225L43.3931 51.1232L40.7531 51.2073L40.8009 52.7065ZM43.4409 52.6225L43.4985 54.1214L46.1385 54.0199L46.0809 52.521L46.0233 51.0221L43.3833 51.1236L43.4409 52.6225ZM46.0809 52.521L46.0018 54.0189L48.6418 54.1583L48.7209 52.6603L48.7999 51.1624L46.1599 51.0231L46.0809 52.521ZM48.7209 52.6603L48.7535 54.16L51.3935 54.1026L51.3609 52.6029L51.3282 51.1033L48.6882 51.1607L48.7209 52.6603ZM51.3609 52.6029L51.3796 54.1028L54.0196 54.0698L54.0009 52.5699L53.9821 51.07L51.3421 51.103L51.3609 52.6029ZM54.0009 52.5699L53.8094 54.0576L56.4494 54.3974L56.6409 52.9097L56.8324 51.422L54.1924 51.0822L54.0009 52.5699ZM56.6409 52.9097L56.8619 54.3933L59.5019 54L59.2809 52.5164L59.0598 51.0328L56.4198 51.4261L56.6409 52.9097ZM59.2809 52.5164L59.1907 54.0137L61.8307 54.1727L61.9209 52.6754L62.0111 51.1781L59.3711 51.0191L59.2809 52.5164ZM61.9209 52.6754L61.772 54.168L64.412 54.4313L64.5609 52.9387L64.7097 51.4461L62.0697 51.1828L61.9209 52.6754ZM64.5609 52.9387L64.7705 54.424L67.4105 54.0513L67.2009 52.5661L66.9912 51.0808L64.3512 51.4534L64.5609 52.9387ZM67.2009 52.5661L66.9646 54.0473L69.6046 54.4684L69.8409 52.9871L70.0771 51.5059L67.4371 51.0848L67.2009 52.5661ZM69.8409 52.9871L69.9041 54.4858L72.5441 54.3744L72.4809 52.8757L72.4176 51.3771L69.7776 51.4885L69.8409 52.9871ZM72.4809 52.8757L72.4644 54.3757L75.1044 54.4046L75.1209 52.9047L75.1373 51.4048L72.4973 51.3758L72.4809 52.8757ZM75.1209 52.9047L75.1063 54.4046L77.7463 54.4304L77.7609 52.9304L77.7755 51.4305L75.1355 51.4048L75.1209 52.9047ZM77.7609 52.9304L77.8081 54.4297L80.4481 54.3466L80.4009 52.8473L80.3537 51.3481L77.7137 51.4312L77.7609 52.9304ZM80.4009 52.8473L80.401 54.3473L83.041 54.3472L83.0409 52.8472L83.0408 51.3472L80.4008 51.3473L80.4009 52.8473ZM83.0409 52.8472L83.1545 54.3429L85.7945 54.1422L85.6809 52.6465L85.5672 51.1508L82.9272 51.3515L83.0409 52.8472ZM85.6809 52.6465L85.5829 54.1433L88.2229 54.3162L88.3209 52.8194L88.4189 51.3226L85.7789 51.1497L85.6809 52.6465ZM88.3209 52.8194L88.2742 54.3186L90.9142 54.4009L90.9609 52.9016L91.0076 51.4023L88.3676 51.3201L88.3209 52.8194ZM90.9609 52.9016L90.9218 54.4011L93.5618 54.4699L93.6009 52.9704L93.6399 51.4709L90.9999 51.4021L90.9609 52.9016ZM93.6009 52.9704L93.8549 54.4487L96.4949 53.995L96.2409 52.5167L95.9868 51.0384L93.3468 51.492L93.6009 52.9704ZM96.2409 52.5167L95.9722 53.9924L98.6122 54.4731L98.8809 52.9973L99.1495 51.5216L96.5095 51.041L96.2409 52.5167ZM98.8809 52.9973L99.0547 54.4872L101.695 54.1792L101.521 52.6893L101.347 51.1994L98.707 51.5074L98.8809 52.9973ZM101.521 52.6893L101.608 54.1868L104.248 54.0324L104.161 52.535L104.073 51.0375L101.433 51.1919L101.521 52.6893ZM104.161 52.535L103.872 54.007L104.989 54.2258L105.278 52.7538L105.566 51.2818L104.449 51.063L104.161 52.535ZM41.8903 92.5934L40.3904 92.5755L40.3892 92.6755L41.8891 92.6934L43.389 92.7114L43.3902 92.6114L41.8903 92.5934ZM41.8891 92.6934L40.3908 92.6221L40.2699 95.1612L41.7682 95.2326L43.2665 95.3039L43.3874 92.7648L41.8891 92.6934ZM41.7682 95.2326L40.2693 95.2909L40.3722 97.9347L41.871 97.8764L43.3699 97.8181L43.2671 95.1743L41.7682 95.2326ZM41.871 97.8764L40.374 97.7826L40.2085 100.422L41.7056 100.516L43.2027 100.61L43.3681 97.9702L41.871 97.8764ZM41.7056 100.516L40.2106 100.394L39.9949 103.029L41.4899 103.152L42.9849 103.274L43.2006 100.638L41.7056 100.516ZM41.4899 103.152L39.9899 103.16L40.0055 105.805L41.5054 105.797L43.0054 105.788L42.9899 103.143L41.4899 103.152ZM41.5054 105.797L40.0323 106.079L40.5386 108.717L42.0117 108.434L43.4848 108.152L42.9785 105.514L41.5054 105.797ZM42.0117 108.434L40.5127 108.379L40.4158 111.02L41.9148 111.075L43.4138 111.13L43.5107 108.489L42.0117 108.434ZM41.9148 111.075L40.4155 111.029L40.3351 113.668L41.8344 113.713L43.3338 113.759L43.4141 111.12L41.9148 111.075ZM41.8344 113.713L40.335 113.752L40.3908 115.9L41.8903 115.861L43.3898 115.822L43.3339 113.674L41.8344 113.713ZM78.1117 92.5934L76.6137 92.6702L76.6188 92.7701L78.1169 92.6933L79.6149 92.6166L79.6098 92.5167L78.1117 92.5934ZM78.1169 92.6933L76.6253 92.8518L76.8935 95.376L78.3851 95.2175L79.8767 95.059L79.6085 92.5348L78.1169 92.6933ZM78.3851 95.2175L76.8853 95.2415L76.9276 97.8832L78.4274 97.8592L79.9272 97.8352L79.8849 95.1934L78.3851 95.2175ZM78.4274 97.8592L76.933 97.9886L77.1611 100.623L78.6555 100.493L80.15 100.364L79.9218 97.7297L78.4274 97.8592ZM78.6555 100.493L77.1584 100.585L77.3204 103.223L78.8175 103.131L80.3147 103.039L80.1527 100.401L78.6555 100.493ZM78.8175 103.131L77.3176 103.119L77.2961 105.764L78.796 105.776L80.296 105.788L80.3175 103.143L78.8175 103.131ZM78.796 105.776L77.2971 105.718L77.1951 108.365L78.694 108.423L80.1929 108.481L80.2949 105.834L78.796 105.776ZM78.694 108.423L77.1956 108.492L77.3166 111.128L78.8151 111.06L80.3135 110.991L80.1924 108.354L78.694 108.423ZM78.8151 111.06L77.3151 111.054L77.3058 113.697L78.8058 113.703L80.3058 113.708L80.3151 111.065L78.8151 111.06ZM78.8058 113.703L77.3269 113.954L77.5977 115.549L79.0765 115.298L80.5554 115.047L80.2846 113.452L78.8058 113.703ZM79.0765 115.298V116.798H79.082V115.298V113.798H79.0765V115.298ZM46.418 93.2398L44.9184 93.2054L44.9161 93.3054L46.4157 93.3397L47.9153 93.3741L47.9176 93.2741L46.418 93.2398ZM46.4157 93.3397L44.9168 93.2829L44.8206 95.8214L46.3195 95.8782L47.8184 95.935L47.9146 93.3965L46.4157 93.3397ZM46.3195 95.8782L44.8224 95.7858L44.6596 98.4227L46.1567 98.5152L47.6539 98.6076L47.8167 95.9706L46.3195 95.8782ZM46.1567 98.5152L44.6593 98.6028L44.8141 101.247L46.3115 101.159L47.809 101.072L47.6542 98.4275L46.1567 98.5152ZM46.3115 101.159L44.8116 101.173L44.8351 103.814L46.335 103.801L47.835 103.787L47.8115 101.146L46.3115 101.159ZM46.335 103.801L44.8358 103.752L44.7507 106.391L46.2499 106.439L47.7491 106.488L47.8343 103.849L46.335 103.801ZM46.2499 106.439L44.75 106.457L44.7811 109.098L46.281 109.081L47.7809 109.063L47.7498 106.422L46.2499 106.439ZM46.281 109.081L44.7906 108.911L44.4903 111.545L45.9806 111.715L47.4709 111.885L47.7713 109.251L46.281 109.081ZM45.9806 111.715L44.4821 111.781L44.5995 114.425L46.098 114.358L47.5965 114.291L47.4791 111.648L45.9806 111.715ZM46.098 114.358L44.6122 114.153L44.4045 115.655L45.8903 115.86L47.3762 116.066L47.5839 114.563L46.098 114.358ZM45.8903 115.86L45.856 117.36L45.8652 117.36L45.8996 115.861L45.934 114.361L45.9247 114.361L45.8903 115.86Z" fill="black"/>
<path d="M8.1 116V117.5H8.13227L8.16451 117.499L8.1 116ZM10.64 115.891L10.797 114.399L10.6865 114.387L10.5755 114.392L10.64 115.891ZM13.28 116.169L13.123 117.66L13.2739 117.676L13.425 117.662L13.28 116.169ZM15.92 115.912L15.8596 114.413L15.8172 114.415L15.775 114.419L15.92 115.912ZM18.56 115.806L18.6763 114.31L18.588 114.303L18.4996 114.307L18.56 115.806ZM21.2 116.011L21.0837 117.507L21.1392 117.511L21.1948 117.511L21.2 116.011ZM23.84 116.02L23.8348 117.52L23.8912 117.52L23.9474 117.516L23.84 116.02ZM26.48 115.831L26.5223 114.331L26.4473 114.329L26.3726 114.334L26.48 115.831ZM29.12 115.905L29.2963 114.415L29.2295 114.408L29.1623 114.406L29.12 115.905ZM31.76 116.217L31.5837 117.707L31.7941 117.732L32.0032 117.698L31.76 116.217ZM34.4 115.784L34.4793 114.286L34.3171 114.277L34.1568 114.303L34.4 115.784ZM37.04 115.923L36.9607 117.421L37.0493 117.426L37.1379 117.42L37.04 115.923ZM39.68 115.751L39.8617 114.262L39.7223 114.245L39.5821 114.254L39.68 115.751ZM42.32 116.073L42.1383 117.562L42.2533 117.576L42.3692 117.572L42.32 116.073ZM44.96 115.986L44.9117 114.487L44.9108 114.487L44.96 115.986ZM47.6 115.901L47.6483 117.401L47.6707 117.4L47.693 117.398L47.6 115.901ZM50.24 115.737L50.5012 114.26L50.3253 114.229L50.147 114.24L50.24 115.737ZM52.88 116.204L52.6188 117.681L52.879 117.727L53.1393 117.682L52.88 116.204ZM55.52 115.741L55.6608 114.247L55.4596 114.228L55.2606 114.263L55.52 115.741ZM58.16 115.99L58.0192 117.483L58.1299 117.493L58.2409 117.487L58.16 115.99ZM60.8 115.847L61.0126 114.362L60.8665 114.341L60.7191 114.349L60.8 115.847ZM63.44 116.225L63.2274 117.71L63.4714 117.745L63.7137 117.7L63.44 116.225ZM66.08 115.735L66.1582 114.237L65.9809 114.228L65.8063 114.26L66.08 115.735ZM68.72 115.873L68.6418 117.371L68.6647 117.372L68.6878 117.373L68.72 115.873ZM71.36 115.93L71.3278 117.429L71.3564 117.43L71.3849 117.429L71.36 115.93ZM74 115.886L74.185 114.397L74.0804 114.384L73.975 114.386L74 115.886ZM76.64 116.214L76.455 117.702L76.6155 117.722L76.7765 117.708L76.64 116.214ZM79.28 115.973L79.2685 114.473L79.2059 114.473L79.1435 114.479L79.28 115.973ZM81.92 115.952L82.0888 114.462L81.9989 114.452L81.9085 114.452L81.92 115.952ZM84.56 116.251L84.3912 117.742L84.5876 117.764L84.783 117.735L84.56 116.251ZM87.2 115.854L87.2734 114.356L87.1245 114.349L86.977 114.371L87.2 115.854ZM89.84 115.984L89.9255 114.486L89.9134 114.486L89.84 115.984ZM92.48 116.135L92.3945 117.632L92.4978 117.638L92.6008 117.63L92.48 116.135ZM95.12 115.921L95.1099 114.421L95.0544 114.422L94.9992 114.426L95.12 115.921ZM97.76 115.903L97.9616 114.417L97.8562 114.403L97.7499 114.403L97.76 115.903ZM100.4 116.261L100.198 117.748L100.434 117.78L100.667 117.737L100.4 116.261ZM103.04 115.784L103.284 114.304L103.028 114.262L102.773 114.308L103.04 115.784ZM105.68 116.219L105.436 117.699L105.576 117.722L105.719 117.718L105.68 116.219ZM108.32 116.151L108.359 117.65L108.453 117.648L108.546 117.634L108.32 116.151ZM110.96 115.748L111.313 114.29L111.026 114.221L110.734 114.265L110.96 115.748ZM8 116V117.5H8.1V116V114.5H8V116ZM8.1 116L8.16451 117.499L10.7045 117.389L10.64 115.891L10.5755 114.392L8.03549 114.501L8.1 116ZM10.64 115.891L10.483 117.382L13.123 117.66L13.28 116.169L13.437 114.677L10.797 114.399L10.64 115.891ZM13.28 116.169L13.425 117.662L16.065 117.405L15.92 115.912L15.775 114.419L13.135 114.676L13.28 116.169ZM15.92 115.912L15.9804 117.411L18.6204 117.305L18.56 115.806L18.4996 114.307L15.8596 114.413L15.92 115.912ZM18.56 115.806L18.4437 117.301L21.0837 117.507L21.2 116.011L21.3163 114.516L18.6763 114.31L18.56 115.806ZM21.2 116.011L21.1948 117.511L23.8348 117.52L23.84 116.02L23.8452 114.52L21.2052 114.511L21.2 116.011ZM23.84 116.02L23.9474 117.516L26.5874 117.327L26.48 115.831L26.3726 114.334L23.7326 114.524L23.84 116.02ZM26.48 115.831L26.4377 117.33L29.0777 117.404L29.12 115.905L29.1623 114.406L26.5223 114.331L26.48 115.831ZM29.12 115.905L28.9437 117.395L31.5837 117.707L31.76 116.217L31.9363 114.728L29.2963 114.415L29.12 115.905ZM31.76 116.217L32.0032 117.698L34.6432 117.264L34.4 115.784L34.1568 114.303L31.5168 114.737L31.76 116.217ZM34.4 115.784L34.3207 117.282L36.9607 117.421L37.04 115.923L37.1193 114.426L34.4793 114.286L34.4 115.784ZM37.04 115.923L37.1379 117.42L39.7779 117.248L39.68 115.751L39.5821 114.254L36.9421 114.427L37.04 115.923ZM39.68 115.751L39.4983 117.24L42.1383 117.562L42.32 116.073L42.5017 114.584L39.8617 114.262L39.68 115.751ZM42.32 116.073L42.3692 117.572L45.0092 117.486L44.96 115.986L44.9108 114.487L42.2708 114.574L42.32 116.073ZM44.96 115.986L45.0083 117.486L47.6483 117.401L47.6 115.901L47.5517 114.402L44.9117 114.487L44.96 115.986ZM47.6 115.901L47.693 117.398L50.333 117.234L50.24 115.737L50.147 114.24L47.507 114.404L47.6 115.901ZM50.24 115.737L49.9788 117.214L52.6188 117.681L52.88 116.204L53.1412 114.727L50.5012 114.26L50.24 115.737ZM52.88 116.204L53.1393 117.682L55.7793 117.218L55.52 115.741L55.2606 114.263L52.6207 114.727L52.88 116.204ZM55.52 115.741L55.3792 117.234L58.0192 117.483L58.16 115.99L58.3008 114.496L55.6608 114.247L55.52 115.741ZM58.16 115.99L58.2409 117.487L60.8809 117.345L60.8 115.847L60.7191 114.349L58.0791 114.492L58.16 115.99ZM60.8 115.847L60.5874 117.332L63.2274 117.71L63.44 116.225L63.6526 114.74L61.0126 114.362L60.8 115.847ZM63.44 116.225L63.7137 117.7L66.3537 117.21L66.08 115.735L65.8063 114.26L63.1663 114.75L63.44 116.225ZM66.08 115.735L66.0018 117.233L68.6418 117.371L68.72 115.873L68.7982 114.375L66.1582 114.237L66.08 115.735ZM68.72 115.873L68.6878 117.373L71.3278 117.429L71.36 115.93L71.3922 114.43L68.7522 114.373L68.72 115.873ZM71.36 115.93L71.3849 117.429L74.0249 117.386L74 115.886L73.975 114.386L71.335 114.43L71.36 115.93ZM74 115.886L73.815 117.374L76.455 117.702L76.64 116.214L76.825 114.725L74.185 114.397L74 115.886ZM76.64 116.214L76.7765 117.708L79.4165 117.466L79.28 115.973L79.1435 114.479L76.5035 114.72L76.64 116.214ZM79.28 115.973L79.2915 117.473L81.9315 117.452L81.92 115.952L81.9085 114.452L79.2685 114.473L79.28 115.973ZM81.92 115.952L81.7512 117.443L84.3912 117.742L84.56 116.251L84.7288 114.761L82.0888 114.462L81.92 115.952ZM84.56 116.251L84.783 117.735L87.423 117.338L87.2 115.854L86.977 114.371L84.337 114.768L84.56 116.251ZM87.2 115.854L87.1266 117.353L89.7666 117.482L89.84 115.984L89.9134 114.486L87.2734 114.356L87.2 115.854ZM89.84 115.984L89.7545 117.481L92.3945 117.632L92.48 116.135L92.5655 114.637L89.9255 114.486L89.84 115.984ZM92.48 116.135L92.6008 117.63L95.2408 117.416L95.12 115.921L94.9992 114.426L92.3592 114.639L92.48 116.135ZM95.12 115.921L95.1301 117.421L97.7701 117.403L97.76 115.903L97.7499 114.403L95.1099 114.421L95.12 115.921ZM97.76 115.903L97.5584 117.39L100.198 117.748L100.4 116.261L100.602 114.775L97.9616 114.417L97.76 115.903ZM100.4 116.261L100.667 117.737L103.307 117.26L103.04 115.784L102.773 114.308L100.133 114.785L100.4 116.261ZM103.04 115.784L102.796 117.264L105.436 117.699L105.68 116.219L105.924 114.738L103.284 114.304L103.04 115.784ZM105.68 116.219L105.719 117.718L108.359 117.65L108.32 116.151L108.281 114.651L105.641 114.719L105.68 116.219ZM108.32 116.151L108.546 117.634L111.186 117.231L110.96 115.748L110.734 114.265L108.094 114.668L108.32 116.151ZM110.96 115.748L110.607 117.206L111.647 117.458L112 116L112.353 114.542L111.313 114.29L110.96 115.748Z" fill="black"/>
</svg>
