<svg width="120" height="120" viewBox="0 0 120 120" fill="none" xmlns="http://www.w3.org/2000/svg">
<path d="M8.1 116V117.5H8.13227L8.16451 117.499L8.1 116ZM10.64 115.891L10.797 114.399L10.6865 114.387L10.5755 114.392L10.64 115.891ZM13.28 116.169L13.123 117.66L13.2739 117.676L13.425 117.662L13.28 116.169ZM15.92 115.912L15.8596 114.413L15.8172 114.415L15.775 114.419L15.92 115.912ZM18.56 115.806L18.6763 114.31L18.588 114.303L18.4996 114.307L18.56 115.806ZM21.2 116.011L21.0837 117.507L21.1392 117.511L21.1948 117.511L21.2 116.011ZM23.84 116.02L23.8348 117.52L23.8912 117.52L23.9474 117.516L23.84 116.02ZM26.48 115.831L26.5223 114.331L26.4473 114.329L26.3726 114.334L26.48 115.831ZM29.12 115.905L29.2963 114.415L29.2295 114.408L29.1623 114.406L29.12 115.905ZM31.76 116.217L31.5837 117.707L31.7941 117.732L32.0032 117.698L31.76 116.217ZM34.4 115.784L34.4793 114.286L34.3171 114.277L34.1568 114.303L34.4 115.784ZM37.04 115.923L36.9607 117.421L37.0493 117.426L37.1379 117.42L37.04 115.923ZM39.68 115.751L39.8617 114.262L39.7223 114.245L39.5821 114.254L39.68 115.751ZM42.32 116.073L42.1383 117.562L42.2533 117.576L42.3692 117.572L42.32 116.073ZM44.96 115.986L44.9117 114.487L44.9108 114.487L44.96 115.986ZM47.6 115.901L47.6483 117.401L47.6707 117.4L47.693 117.398L47.6 115.901ZM50.24 115.737L50.5012 114.26L50.3253 114.229L50.147 114.24L50.24 115.737ZM52.88 116.204L52.6188 117.681L52.879 117.727L53.1393 117.682L52.88 116.204ZM55.52 115.741L55.6608 114.247L55.4596 114.228L55.2606 114.263L55.52 115.741ZM58.16 115.99L58.0192 117.483L58.1299 117.493L58.2409 117.487L58.16 115.99ZM60.8 115.847L61.0126 114.362L60.8665 114.341L60.7191 114.349L60.8 115.847ZM63.44 116.225L63.2274 117.71L63.4714 117.745L63.7137 117.7L63.44 116.225ZM66.08 115.735L66.1582 114.237L65.9809 114.228L65.8063 114.26L66.08 115.735ZM68.72 115.873L68.6418 117.371L68.6647 117.372L68.6878 117.373L68.72 115.873ZM71.36 115.93L71.3278 117.429L71.3564 117.43L71.3849 117.429L71.36 115.93ZM74 115.886L74.185 114.397L74.0804 114.384L73.975 114.386L74 115.886ZM76.64 116.214L76.455 117.702L76.6155 117.722L76.7765 117.708L76.64 116.214ZM79.28 115.973L79.2685 114.473L79.2059 114.473L79.1435 114.479L79.28 115.973ZM81.92 115.952L82.0888 114.462L81.9989 114.452L81.9085 114.452L81.92 115.952ZM84.56 116.251L84.3912 117.742L84.5876 117.764L84.783 117.735L84.56 116.251ZM87.2 115.854L87.2734 114.356L87.1245 114.349L86.977 114.371L87.2 115.854ZM89.84 115.984L89.9255 114.486L89.9134 114.486L89.84 115.984ZM92.48 116.135L92.3945 117.632L92.4978 117.638L92.6008 117.63L92.48 116.135ZM95.12 115.921L95.1099 114.421L95.0544 114.422L94.9992 114.426L95.12 115.921ZM97.76 115.903L97.9616 114.417L97.8562 114.403L97.7499 114.403L97.76 115.903ZM100.4 116.261L100.198 117.748L100.434 117.78L100.667 117.737L100.4 116.261ZM103.04 115.784L103.284 114.304L103.028 114.262L102.773 114.308L103.04 115.784ZM105.68 116.219L105.436 117.699L105.576 117.722L105.719 117.718L105.68 116.219ZM108.32 116.151L108.359 117.65L108.453 117.648L108.546 117.634L108.32 116.151ZM110.96 115.748L111.313 114.29L111.026 114.221L110.734 114.265L110.96 115.748ZM8 116V117.5H8.1V116V114.5H8V116ZM8.1 116L8.16451 117.499L10.7045 117.389L10.64 115.891L10.5755 114.392L8.03549 114.501L8.1 116ZM10.64 115.891L10.483 117.382L13.123 117.66L13.28 116.169L13.437 114.677L10.797 114.399L10.64 115.891ZM13.28 116.169L13.425 117.662L16.065 117.405L15.92 115.912L15.775 114.419L13.135 114.676L13.28 116.169ZM15.92 115.912L15.9804 117.411L18.6204 117.305L18.56 115.806L18.4996 114.307L15.8596 114.413L15.92 115.912ZM18.56 115.806L18.4437 117.301L21.0837 117.507L21.2 116.011L21.3163 114.516L18.6763 114.31L18.56 115.806ZM21.2 116.011L21.1948 117.511L23.8348 117.52L23.84 116.02L23.8452 114.52L21.2052 114.511L21.2 116.011ZM23.84 116.02L23.9474 117.516L26.5874 117.327L26.48 115.831L26.3726 114.334L23.7326 114.524L23.84 116.02ZM26.48 115.831L26.4377 117.33L29.0777 117.404L29.12 115.905L29.1623 114.406L26.5223 114.331L26.48 115.831ZM29.12 115.905L28.9437 117.395L31.5837 117.707L31.76 116.217L31.9363 114.728L29.2963 114.415L29.12 115.905ZM31.76 116.217L32.0032 117.698L34.6432 117.264L34.4 115.784L34.1568 114.303L31.5168 114.737L31.76 116.217ZM34.4 115.784L34.3207 117.282L36.9607 117.421L37.04 115.923L37.1193 114.426L34.4793 114.286L34.4 115.784ZM37.04 115.923L37.1379 117.42L39.7779 117.248L39.68 115.751L39.5821 114.254L36.9421 114.427L37.04 115.923ZM39.68 115.751L39.4983 117.24L42.1383 117.562L42.32 116.073L42.5017 114.584L39.8617 114.262L39.68 115.751ZM42.32 116.073L42.3692 117.572L45.0092 117.486L44.96 115.986L44.9108 114.487L42.2708 114.574L42.32 116.073ZM44.96 115.986L45.0083 117.486L47.6483 117.401L47.6 115.901L47.5517 114.402L44.9117 114.487L44.96 115.986ZM47.6 115.901L47.693 117.398L50.333 117.234L50.24 115.737L50.147 114.24L47.507 114.404L47.6 115.901ZM50.24 115.737L49.9788 117.214L52.6188 117.681L52.88 116.204L53.1412 114.727L50.5012 114.26L50.24 115.737ZM52.88 116.204L53.1393 117.682L55.7793 117.218L55.52 115.741L55.2606 114.263L52.6207 114.727L52.88 116.204ZM55.52 115.741L55.3792 117.234L58.0192 117.483L58.16 115.99L58.3008 114.496L55.6608 114.247L55.52 115.741ZM58.16 115.99L58.2409 117.487L60.8809 117.345L60.8 115.847L60.7191 114.349L58.0791 114.492L58.16 115.99ZM60.8 115.847L60.5874 117.332L63.2274 117.71L63.44 116.225L63.6526 114.74L61.0126 114.362L60.8 115.847ZM63.44 116.225L63.7137 117.7L66.3537 117.21L66.08 115.735L65.8063 114.26L63.1663 114.75L63.44 116.225ZM66.08 115.735L66.0018 117.233L68.6418 117.371L68.72 115.873L68.7982 114.375L66.1582 114.237L66.08 115.735ZM68.72 115.873L68.6878 117.373L71.3278 117.429L71.36 115.93L71.3922 114.43L68.7522 114.373L68.72 115.873ZM71.36 115.93L71.3849 117.429L74.0249 117.386L74 115.886L73.975 114.386L71.335 114.43L71.36 115.93ZM74 115.886L73.815 117.374L76.455 117.702L76.64 116.214L76.825 114.725L74.185 114.397L74 115.886ZM76.64 116.214L76.7765 117.708L79.4165 117.466L79.28 115.973L79.1435 114.479L76.5035 114.72L76.64 116.214ZM79.28 115.973L79.2915 117.473L81.9315 117.452L81.92 115.952L81.9085 114.452L79.2685 114.473L79.28 115.973ZM81.92 115.952L81.7512 117.443L84.3912 117.742L84.56 116.251L84.7288 114.761L82.0888 114.462L81.92 115.952ZM84.56 116.251L84.783 117.735L87.423 117.338L87.2 115.854L86.977 114.371L84.337 114.768L84.56 116.251ZM87.2 115.854L87.1266 117.353L89.7666 117.482L89.84 115.984L89.9134 114.486L87.2734 114.356L87.2 115.854ZM89.84 115.984L89.7545 117.481L92.3945 117.632L92.48 116.135L92.5655 114.637L89.9255 114.486L89.84 115.984ZM92.48 116.135L92.6008 117.63L95.2408 117.416L95.12 115.921L94.9992 114.426L92.3592 114.639L92.48 116.135ZM95.12 115.921L95.1301 117.421L97.7701 117.403L97.76 115.903L97.7499 114.403L95.1099 114.421L95.12 115.921ZM97.76 115.903L97.5584 117.39L100.198 117.748L100.4 116.261L100.602 114.775L97.9616 114.417L97.76 115.903ZM100.4 116.261L100.667 117.737L103.307 117.26L103.04 115.784L102.773 114.308L100.133 114.785L100.4 116.261ZM103.04 115.784L102.796 117.264L105.436 117.699L105.68 116.219L105.924 114.738L103.284 114.304L103.04 115.784ZM105.68 116.219L105.719 117.718L108.359 117.65L108.32 116.151L108.281 114.651L105.641 114.719L105.68 116.219ZM108.32 116.151L108.546 117.634L111.186 117.231L110.96 115.748L110.734 114.265L108.094 114.668L108.32 116.151ZM110.96 115.748L110.607 117.206L111.647 117.458L112 116L112.353 114.542L111.313 114.29L110.96 115.748Z" fill="black"/>
<path d="M17.6492 33.39L17.6752 34.8898L17.8077 34.8875L17.9377 34.862L17.6492 33.39ZM20.1496 32.8998L20.3403 31.412L20.0994 31.3811L19.8611 31.4278L20.1496 32.8998ZM22.7825 33.2372L22.5919 34.725L22.7267 34.7423L22.8625 34.735L22.7825 33.2372ZM25.4298 33.0958L25.3695 31.597L25.3597 31.5974L25.3499 31.5979L25.4298 33.0958ZM28.0689 32.9896L28.1852 31.4941L28.097 31.4872L28.0086 31.4908L28.0689 32.9896ZM30.7089 33.1949L30.5927 34.6903L30.6481 34.6947L30.7038 34.6948L30.7089 33.1949ZM33.3489 33.204L33.3438 34.704L33.4001 34.7042L33.4564 34.7001L33.3489 33.204ZM35.9889 33.0144L36.0312 31.515L35.9563 31.5129L35.8815 31.5183L35.9889 33.0144ZM38.6289 33.0888L38.8052 31.5992L38.7384 31.5913L38.6712 31.5894L38.6289 33.0888ZM41.2689 33.4012L41.0927 34.8908L41.3031 34.9157L41.5121 34.8814L41.2689 33.4012ZM43.9089 32.9674L43.9883 31.4695L43.826 31.4609L43.6657 31.4873L43.9089 32.9674ZM46.5489 33.1072L46.4696 34.6051L46.5583 34.6098L46.6468 34.604L46.5489 33.1072ZM49.1889 32.9345L49.3706 31.4456L49.2312 31.4286L49.091 31.4377L49.1889 32.9345ZM51.8289 33.2567L51.6472 34.7457L51.7623 34.7597L51.8781 34.7559L51.8289 33.2567ZM54.4689 33.1701L54.4206 31.6709L54.4198 31.6709L54.4689 33.1701ZM57.1089 33.0851L57.1572 34.5843L57.1796 34.5836L57.2019 34.5822L57.1089 33.0851ZM59.7489 32.9211L60.0102 31.444L59.8343 31.4129L59.656 31.424L59.7489 32.9211ZM62.3889 33.388L62.1277 34.8651L62.388 34.9111L62.6483 34.8654L62.3889 33.388ZM65.0289 32.9246L65.1697 31.4312L64.9686 31.4123L64.7696 31.4472L65.0289 32.9246ZM67.6689 33.1735L67.5281 34.6669L67.6388 34.6773L67.7498 34.6713L67.6689 33.1735ZM70.3089 33.0309L70.5215 31.546L70.3754 31.5251L70.228 31.5331L70.3089 33.0309ZM72.9489 33.4088L72.7364 34.8937L72.9803 34.9286L73.2227 34.8836L72.9489 33.4088ZM75.5889 32.9189L75.6672 31.4209L75.4898 31.4116L75.3152 31.444L75.5889 32.9189ZM78.2289 33.0568L78.1507 34.5547L78.1737 34.5559L78.1967 34.5564L78.2289 33.0568ZM80.8689 33.1135L80.8367 34.6131L80.8653 34.6138L80.8939 34.6133L80.8689 33.1135ZM83.5089 33.0696L83.6939 31.581L83.5894 31.568L83.484 31.5698L83.5089 33.0696ZM86.1489 33.3977L85.9639 34.8862L86.1244 34.9062L86.2855 34.8914L86.1489 33.3977ZM88.7889 33.1564L88.7775 31.6564L88.7148 31.6569L88.6524 31.6626L88.7889 33.1564ZM91.4289 33.1362L91.5977 31.6457L91.5079 31.6355L91.4175 31.6362L91.4289 33.1362ZM94.0689 33.4351L93.9002 34.9256L94.0965 34.9478L94.2919 34.9185L94.0689 33.4351ZM96.7089 33.0383L96.7305 31.5384L96.6075 31.5367L96.486 31.555L96.7089 33.0383ZM99.3461 33.0761L99.4451 31.5794L99.4064 31.5769L99.3676 31.5763L99.3461 33.0761ZM101.97 33.2497L102.416 31.8174L102.246 31.7647L102.069 31.753L101.97 33.2497ZM104.436 34.0166L105.887 33.6361L105.676 32.8314L104.882 32.5843L104.436 34.0166ZM105.107 36.5755L106.595 36.7698L106.633 36.4788L106.558 36.1949L105.107 36.5755ZM104.762 39.2175L103.275 39.0232L103.245 39.2544L103.286 39.484L104.762 39.2175ZM105.239 41.8575L106.718 42.1047L106.761 41.8476L106.715 41.5911L105.239 41.8575ZM104.798 44.4966L103.318 44.2495L103.295 44.3918L103.298 44.536L104.798 44.4966ZM104.867 47.1338L106.349 47.3638L106.37 47.2299L106.366 47.0945L104.867 47.1338ZM104.456 49.7802L104.969 51.19L105.803 50.887L105.939 50.0102L104.456 49.7802ZM101.863 50.7223L101.632 52.2043L102.013 52.2639L102.375 52.1322L101.863 50.7223ZM99.2149 50.3084L99.4465 48.8264L99.3134 48.8056L99.1787 48.8088L99.2149 50.3084ZM96.5685 50.3722L96.5564 51.8722L96.5805 51.8724L96.6047 51.8718L96.5685 50.3722ZM93.9285 50.351L93.8719 51.8499L93.8942 51.8508L93.9164 51.8509L93.9285 50.351ZM91.2893 50.2513L91.3459 48.7524L91.3365 48.7521L91.3271 48.7518L91.2893 50.2513ZM88.6489 50.1849L88.6065 51.6843L88.6112 51.6844L88.6489 50.1849ZM86.0068 50.11L86.0492 48.6106L85.9145 48.6068L85.7812 48.6271L86.0068 50.11ZM83.3733 50.5106L83.333 52.0101L83.4667 52.0137L83.5989 51.9936L83.3733 50.5106ZM80.7306 50.4396L80.7709 48.9401L80.6769 48.9376L80.5834 48.9468L80.7306 50.4396ZM78.0943 50.6997L77.9433 52.1921L78.0924 52.2072L78.2416 52.1925L78.0943 50.6997ZM75.4501 50.4322L75.6011 48.9398L75.4972 48.9293L75.393 48.9333L75.4501 50.4322ZM72.811 50.5328L72.8231 52.0327L72.8456 52.0326L72.8681 52.0317L72.811 50.5328ZM70.171 50.554L70.159 49.0541L70.1259 49.0544L70.0928 49.0561L70.171 50.554ZM67.5312 50.6919L67.5024 52.1916L67.5559 52.1927L67.6094 52.1899L67.5312 50.6919ZM64.8909 50.6412L64.8568 52.1408L64.8621 52.1409L64.8909 50.6412ZM62.2508 50.5811L62.2849 49.0815L62.2749 49.0813L62.2508 50.5811ZM59.6109 50.5387L59.635 49.0389L59.6014 49.0384L59.5678 49.0393L59.6109 50.5387ZM56.9704 50.6146L57.0084 52.1142L57.0135 52.114L56.9704 50.6146ZM54.3296 50.6816L54.3069 52.1814L54.3373 52.1819L54.3676 52.1811L54.3296 50.6816ZM51.6897 50.6417L51.6482 52.1411L51.6576 52.1413L51.667 52.1415L51.6897 50.6417ZM49.0502 50.5687L48.8642 52.0571L48.9362 52.0661L49.0087 52.0681L49.0502 50.5687ZM46.4132 50.2392L46.5992 48.7508L46.4956 48.7378L46.3913 48.7394L46.4132 50.2392ZM43.7727 50.2778L43.7507 48.778L43.6915 48.7788L43.6325 48.7844L43.7727 50.2778ZM41.1302 50.5258L41.1198 52.0258L41.1953 52.0263L41.2704 52.0192L41.1302 50.5258ZM38.4904 50.5075L38.3729 52.0028L38.4264 52.007L38.48 52.0074L38.4904 50.5075ZM35.8521 50.3001L35.9696 48.8047L35.9394 48.8023L35.9091 48.8012L35.8521 50.3001ZM33.2128 50.1997L33.2698 48.7008L33.2587 48.7004L33.2477 48.7001L33.2128 50.1997ZM30.5726 50.1383L30.6075 48.6387L30.6011 48.6385L30.5726 50.1383ZM27.9312 50.0881L27.9597 48.5883L27.9122 48.5874L27.8648 48.5895L27.9312 50.0881ZM25.2903 50.205L25.318 51.7048L25.3374 51.7044L25.3567 51.7036L25.2903 50.205ZM22.645 50.2538L22.6458 51.7538L22.6592 51.7538L22.6726 51.7535L22.645 50.2538ZM20.0182 50.2552L19.9806 51.7547L19.9998 51.7552L20.0191 51.7552L20.0182 50.2552ZM17.3994 50.1895L16.264 51.1697L16.6979 51.6723L17.3617 51.689L17.3994 50.1895ZM15.6798 48.1978L14.1803 48.2358L14.1939 48.772L14.5444 49.178L15.6798 48.1978ZM15.612 45.5275L14.1121 45.5383L14.1122 45.5519L14.1125 45.5656L15.612 45.5275ZM15.593 42.8866L17.093 42.8758L17.0929 42.8674L17.0928 42.8589L15.593 42.8866ZM15.5442 40.2453L14.0444 40.2212L14.044 40.2471L14.0445 40.273L15.5442 40.2453ZM15.5868 37.6029L14.1225 37.2775L14.0894 37.4263L14.0869 37.5788L15.5868 37.6029ZM16.1551 35.0451L14.9832 34.1087L14.7662 34.3803L14.6908 34.7197L16.1551 35.0451ZM17.5259 33.3295L18.9565 32.8785L18.1105 30.1949L16.354 32.3931L17.5259 33.3295ZM22.2383 50.7924L23.7325 50.9246L23.7331 50.9168L22.2383 50.7924ZM22.0144 53.3225L23.4987 53.5389L23.5048 53.497L23.5086 53.4547L22.0144 53.3225ZM21.6328 55.9399L20.1485 55.7235L20.1281 55.8634L20.1342 56.0046L21.6328 55.9399ZM21.7477 58.5986L23.2454 58.6811L23.2494 58.6075L23.2463 58.5338L21.7477 58.5986ZM21.6023 61.2356L23.0638 61.5733L23.0929 61.4473L23.1 61.3182L21.6023 61.2356ZM21.0017 63.8347L19.5402 63.497L19.505 63.6491L19.5019 63.8051L21.0017 63.8347ZM20.9494 66.4795L22.449 66.5135L22.4491 66.5092L20.9494 66.4795ZM20.8894 69.1237L22.3846 69.2437L22.388 69.2007L22.389 69.1577L20.8894 69.1237ZM20.6781 71.7552L22.1679 71.9302L22.1711 71.9028L22.1733 71.8752L20.6781 71.7552ZM20.37 74.3787L21.8564 74.5802L21.8582 74.567L21.8597 74.5537L20.37 74.3787ZM20.0148 76.9982L18.5283 76.7967L18.5271 76.8063L20.0148 76.9982ZM19.6766 79.6192L18.189 79.4273L18.1782 79.5108L18.1768 79.5949L19.6766 79.6192ZM19.6338 82.2648L21.12 82.4678L21.1321 82.3789L21.1336 82.2891L19.6338 82.2648ZM19.2759 84.8841L17.7897 84.6811L17.774 84.796L17.7762 84.912L19.2759 84.8841ZM19.3252 87.5374L20.8229 87.6203L20.826 87.5649L20.825 87.5095L19.3252 87.5374ZM19.1792 90.1743L20.6272 90.5659L20.6682 90.4142L20.6769 90.2573L19.1792 90.1743ZM18.4786 92.7652L17.0306 92.3736L16.9933 92.5115L16.9827 92.654L18.4786 92.7652ZM18.2829 95.398L16.787 95.2868L16.7852 95.3119L16.7841 95.337L18.2829 95.398ZM18.1754 98.0382L16.6766 97.9771L16.6758 97.9973L16.6755 98.0175L18.1754 98.0382ZM18.1389 100.684L19.623 100.902L19.6374 100.804L19.6387 100.705L18.1389 100.684ZM17.7558 103.301L16.2716 103.084L16.2514 103.222L16.2571 103.362L17.7558 103.301ZM17.8639 105.96L19.3392 106.231L19.3694 106.067L19.3626 105.9L17.8639 105.96ZM17.3851 108.569L15.9098 108.298L15.8833 108.442L15.8853 108.589L17.3851 108.569ZM17.4208 111.222L18.9162 111.34L18.9216 111.271L18.9207 111.202L17.4208 111.222ZM17.2143 113.839L15.719 113.721L15.6749 114.279L16.0071 114.73L17.2143 113.839ZM18.3256 115.346L17.1184 116.237L17.4226 116.649L17.9156 116.789L18.3256 115.346ZM20.8923 116.076L20.4823 117.518L20.7694 117.6L21.0659 117.566L20.8923 116.076ZM23.5323 115.768L23.7912 114.291L23.5759 114.253L23.3587 114.278L23.5323 115.768ZM26.1723 116.231L25.9135 117.708L26.0578 117.733L26.2043 117.73L26.1723 116.231ZM28.8123 116.174L28.8443 117.674L28.8986 117.673L28.9527 117.668L28.8123 116.174ZM31.4523 115.926L31.6273 114.436L31.4698 114.418L31.312 114.433L31.4523 115.926ZM34.0923 116.236L33.9174 117.726L34.0107 117.737L34.1047 117.736L34.0923 116.236ZM36.7323 116.214L36.7447 117.714L36.8009 117.714L36.8569 117.709L36.7323 116.214ZM39.3723 115.994L39.5029 114.5L39.3753 114.489L39.2477 114.5L39.3723 115.994ZM42.0123 116.225L41.8817 117.719L42.0299 117.732L42.1778 117.716L42.0123 116.225ZM44.6523 115.932L44.6921 114.433L44.5892 114.43L44.4869 114.441L44.6523 115.932ZM47.2923 116.002L47.3642 114.504L47.3481 114.503L47.3321 114.503L47.2923 116.002ZM49.9323 116.129L49.8605 117.627L49.9299 117.63L49.9994 117.627L49.9323 116.129ZM52.5723 116.011L52.6394 117.509L52.6652 117.508L52.6909 117.506L52.5723 116.011ZM55.2123 115.801L55.377 114.31L55.2356 114.295L55.0937 114.306L55.2123 115.801ZM57.8523 116.093L57.6876 117.584L57.8572 117.602L58.0266 117.583L57.8523 116.093ZM60.4923 115.784L60.7579 114.308L60.539 114.268L60.3181 114.294L60.4923 115.784ZM63.1323 116.259L62.8667 117.735L63.0594 117.77L63.2545 117.754L63.1323 116.259ZM65.7723 116.043L65.8945 117.538L65.918 117.536L65.9413 117.534L65.7723 116.043ZM68.4123 115.744L68.6749 114.267L68.4601 114.229L68.2433 114.253L68.4123 115.744ZM71.0523 116.213L70.7897 117.69L70.909 117.711L71.0302 117.713L71.0523 116.213ZM73.6923 116.252L73.6702 117.752L73.6932 117.752L73.7162 117.752L73.6923 116.252ZM76.3323 116.21L76.3562 117.71L76.422 117.709L76.4874 117.702L76.3323 116.21ZM78.9682 115.936L79.1232 117.428L79.1597 117.424L79.1959 117.419L78.9682 115.936ZM81.5782 115.535L81.806 117.018L82.7759 116.869L83.0279 115.921L81.5782 115.535ZM82.2348 113.064L83.6845 113.449L83.7537 113.189L83.7279 112.921L82.2348 113.064ZM81.9808 110.42L80.4808 110.406L80.4801 110.485L80.4876 110.564L81.9808 110.42ZM82.0061 107.779L80.5226 107.557L80.5072 107.661L80.5062 107.765L82.0061 107.779ZM82.402 105.132L83.8855 105.354L83.9112 105.182L83.8969 105.009L82.402 105.132ZM82.1845 102.497L80.6846 102.513L80.6852 102.567L80.6896 102.62L82.1845 102.497ZM82.1554 99.8565L80.6573 99.782L80.655 99.8275L80.6555 99.873L82.1554 99.8565ZM82.2865 97.2172L83.7847 97.2917L83.7909 97.166L83.7762 97.0411L82.2865 97.2172ZM81.9739 94.573L80.4796 94.4419L80.4661 94.5958L80.4843 94.7491L81.9739 94.573ZM82.2052 91.9362L83.6995 92.0673L83.7021 92.0372L83.7036 92.0069L82.2052 91.9362ZM82.3297 89.2978L83.828 89.3685L83.8301 89.324L83.8296 89.2794L82.3297 89.2978ZM82.2972 86.657L80.7983 86.5996L80.7968 86.6375L80.7973 86.6755L82.2972 86.657ZM82.3983 84.0179L83.8972 84.0753L83.9014 83.9649L83.8894 83.855L82.3983 84.0179ZM82.1101 81.3799L80.611 81.328L80.6073 81.4357L80.619 81.5428L82.1101 81.3799ZM82.2014 78.7392L80.7045 78.6422L80.703 78.6647L80.7023 78.6873L82.2014 78.7392ZM82.3725 76.0979L83.8693 76.1949L83.8754 76.1009L83.8697 76.0069L82.3725 76.0979ZM82.2122 73.459L80.7202 73.3039L80.7075 73.4267L80.715 73.5499L82.2122 73.459ZM82.4867 70.8169L83.9787 70.972L83.9983 70.7833L83.9703 70.5956L82.4867 70.8169ZM82.0932 68.1797L80.5961 68.0866L80.5863 68.2445L80.6096 68.401L82.0932 68.1797ZM82.2575 65.5384L83.7546 65.6315L83.7566 65.599L83.7572 65.5665L82.2575 65.5384ZM82.3069 62.898L83.8066 62.9261L83.808 62.8522L83.8021 62.7785L82.3069 62.898ZM82.0961 60.2594L80.5962 60.2363L80.5951 60.3077L80.6008 60.3789L82.0961 60.2594ZM82.1368 57.6191L80.6443 57.4695L80.638 57.5325L80.637 57.5959L82.1368 57.6191ZM82.4017 54.9772L83.8942 55.1268L83.911 54.9591L83.8902 54.7918L82.4017 54.9772ZM82.0733 52.3394L80.5733 52.3263L80.5724 52.4259L80.5848 52.5247L82.0733 52.3394ZM82.0877 50.6931L82.0771 49.1931L80.6007 49.2036L80.5878 50.6799L82.0877 50.6931ZM38.5822 50.7927L40.0821 50.8131L40.0822 50.8029V50.7927H38.5822ZM38.5476 53.3327L37.0477 53.3123L37.0466 53.3963L37.0548 53.4799L38.5476 53.3327ZM38.8079 55.9727L40.3069 56.0275L40.3106 55.9263L40.3006 55.8255L38.8079 55.9727ZM38.7115 58.6127L37.2125 58.558L37.2118 58.5754L37.2116 58.5929L38.7115 58.6127ZM38.6766 61.2527L37.1768 61.2329L37.1761 61.2846L37.179 61.3362L38.6766 61.2527ZM38.8238 63.8927L40.323 63.9415L40.3252 63.8753L40.3215 63.8092L38.8238 63.8927ZM38.738 66.5327L37.2388 66.484L37.237 66.5394L37.2392 66.5948L38.738 66.5327ZM38.8474 69.1727L40.3471 69.1996L40.3479 69.1551L40.3461 69.1106L38.8474 69.1727ZM38.8 71.8127L40.2956 71.9279L40.299 71.8838L40.2998 71.8396L38.8 71.8127ZM38.5967 74.4527L37.1011 74.3375L37.0923 74.4522L37.101 74.5669L38.5967 74.4527ZM38.7982 77.0927L40.2976 77.1342L40.2998 77.0563L40.2939 76.9785L38.7982 77.0927ZM38.7251 79.7327L40.2243 79.7831L40.2246 79.7742L38.7251 79.7327ZM38.6364 82.3727L40.1342 82.453L40.135 82.4381L40.1355 82.4231L38.6364 82.3727ZM38.4949 85.0127L36.9971 84.9325L36.9922 85.0243L36.9985 85.116L38.4949 85.0127ZM38.6772 87.6527L40.1771 87.6395L40.1767 87.5944L40.1736 87.5494L38.6772 87.6527ZM38.7004 90.2927L40.1984 90.3692L40.2007 90.3244L40.2003 90.2795L38.7004 90.2927ZM38.5655 92.9327L40.0615 93.0424L40.0627 93.0258L40.0636 93.0092L38.5655 92.9327ZM38.372 95.5727L36.876 95.463L36.8725 95.5105L36.872 95.558L38.372 95.5727ZM38.3461 98.2127L36.8462 98.198L36.8452 98.2944L36.8566 98.39L38.3461 98.2127ZM38.6604 100.853L40.1579 100.938L40.1654 100.806L40.1499 100.675L38.6604 100.853ZM38.5101 103.493L37.0126 103.408L37.0047 103.546L37.0222 103.683L38.5101 103.493ZM38.8475 106.133L40.3461 106.198L40.3517 106.07L40.3354 105.943L38.8475 106.133ZM38.732 108.773L40.2184 108.974L40.2275 108.906L40.2305 108.838L38.732 108.773ZM38.3743 111.413L36.8879 111.211L36.8648 111.382L36.8809 111.553L38.3743 111.413ZM38.6216 114.053L40.1215 114.033L40.1207 113.973L40.1151 113.913L38.6216 114.053ZM38.6425 115.635V117.135H40.1624L40.1424 115.615L38.6425 115.635ZM98.1242 50.7924L99.6241 50.8094L99.6248 50.7428L99.6197 50.6765L98.1242 50.7924ZM98.0954 53.3423L96.5955 53.3253L96.5936 53.4938L96.6291 53.6584L98.0954 53.3423ZM98.6569 55.9467L100.156 55.9103L100.153 55.7689L100.123 55.6305L98.6569 55.9467ZM98.7209 58.5896L97.2214 58.6259L97.2234 58.7089L97.2345 58.7912L98.7209 58.5896ZM99.0762 61.21L100.576 61.1999L100.576 61.1038L100.563 61.0085L99.0762 61.21ZM99.094 63.8565L97.594 63.8666L97.5944 63.9151L97.5978 63.9634L99.094 63.8565ZM99.2821 66.4899L97.7859 66.5967L97.7883 66.6308L97.7923 66.6648L99.2821 66.4899ZM99.5902 69.1139L98.1004 69.2888L98.1038 69.3175L98.1083 69.3461L99.5902 69.1139ZM100 71.7301L101.5 71.7711L101.503 71.6337L101.482 71.4979L100 71.7301ZM99.9274 74.3841L98.4279 74.343L98.4255 74.4328L98.4337 74.5223L99.9274 74.3841ZM100.171 77.0129L101.67 76.9746L101.669 76.9245L101.664 76.8746L100.171 77.0129ZM100.238 79.6578L98.7386 79.696L98.7413 79.8003L98.7583 79.9032L100.238 79.6578ZM100.671 82.2691L102.163 82.1148L102.159 82.069L102.151 82.0236L100.671 82.2691ZM100.943 84.8953L102.435 84.7443L102.435 84.741L100.943 84.8953ZM101.209 87.522L102.708 87.4732L102.706 87.422L102.701 87.371L101.209 87.522ZM101.295 90.1652L99.7953 90.214L99.8002 90.3639L99.8347 90.5099L101.295 90.1652ZM101.907 92.76L103.406 92.6985L103.4 92.5551L103.367 92.4153L101.907 92.76ZM102.016 95.4012L100.517 95.4627L100.52 95.5453L100.533 95.6271L102.016 95.4012ZM102.414 98.0143L103.907 97.8757L103.903 97.8319L103.897 97.7883L102.414 98.0143ZM102.658 100.643L104.156 100.705L104.16 100.604L104.151 100.504L102.658 100.643ZM102.548 103.306L101.049 103.244L101.044 103.364L101.058 103.483L102.548 103.306ZM102.86 105.928L101.37 106.106L101.372 106.117L102.86 105.928ZM103.192 108.548L101.704 108.737L101.707 108.755L101.709 108.773L103.192 108.548ZM103.588 111.159L105.086 111.081L105.082 111.007L105.071 110.934L103.588 111.159ZM103.724 113.802L102.226 113.88L102.254 114.419L102.62 114.817L103.724 113.802ZM105.23 115.441L104.125 116.456L104.421 116.778L104.845 116.891L105.23 115.441ZM107.757 116.112L107.372 117.562L107.569 117.614L107.772 117.612L107.757 116.112ZM110.397 116.085L110.412 117.584L110.498 117.584L110.584 117.573L110.397 116.085ZM113 115.757H114.5V114.057L112.813 114.269L113 115.757ZM7.1 116L7.15373 114.501L7.12688 114.5H7.1V116ZM9.64 116.091L9.58627 117.59L9.62747 117.592L9.66869 117.591L9.64 116.091ZM12.28 116.041L12.4017 114.545L12.3266 114.539L12.2513 114.541L12.28 116.041ZM14.92 116.255L14.7983 117.75L15.1041 117.775L15.3951 117.678L14.92 116.255ZM16.4384 115.748H17.9384V113.666L15.9633 114.326L16.4384 115.748ZM82.6068 116L82.6486 114.501L82.6277 114.5H82.6068V116ZM85.1468 116.071L85.1051 117.57L85.1329 117.571L85.1607 117.571L85.1468 116.071ZM87.7868 116.046L87.8406 114.547L87.8068 114.546L87.773 114.546L87.7868 116.046ZM90.4268 116.141L90.3731 117.64L90.3925 117.641L90.4119 117.641L90.4268 116.141ZM93.0668 116.167L93.0519 117.667L93.1376 117.668L93.2229 117.659L93.0668 116.167ZM95.7068 115.891L95.7751 114.393L95.6627 114.387L95.5508 114.399L95.7068 115.891ZM98.3468 116.011L98.2786 117.51L98.29 117.51L98.3013 117.511L98.3468 116.011ZM100.987 116.091L100.941 117.591L101.012 117.593L101.083 117.588L100.987 116.091ZM103.562 115.926H105.062V114.326L103.465 114.429L103.562 115.926ZM17.5492 33.3918L17.5753 34.8915L17.6752 34.8898L17.6492 33.39L17.6231 31.8902L17.5231 31.892L17.5492 33.3918ZM17.6492 33.39L17.9377 34.862L20.4382 34.3718L20.1496 32.8998L19.8611 31.4278L17.3606 31.918L17.6492 33.39ZM20.1496 32.8998L19.959 34.3876L22.5919 34.725L22.7825 33.2372L22.9731 31.7493L20.3403 31.412L20.1496 32.8998ZM22.7825 33.2372L22.8625 34.735L25.5098 34.5937L25.4298 33.0958L25.3499 31.5979L22.7025 31.7393L22.7825 33.2372ZM25.4298 33.0958L25.4902 34.5946L28.1293 34.4884L28.0689 32.9896L28.0086 31.4908L25.3695 31.597L25.4298 33.0958ZM28.0689 32.9896L27.9527 34.4851L30.5927 34.6903L30.7089 33.1949L30.8252 31.6994L28.1852 31.4941L28.0689 32.9896ZM30.7089 33.1949L30.7038 34.6948L33.3438 34.704L33.3489 33.204L33.3541 31.704L30.7141 31.6949L30.7089 33.1949ZM33.3489 33.204L33.4564 34.7001L36.0964 34.5106L35.9889 33.0144L35.8815 31.5183L33.2415 31.7078L33.3489 33.204ZM35.9889 33.0144L35.9467 34.5138L38.5867 34.5882L38.6289 33.0888L38.6712 31.5894L36.0312 31.515L35.9889 33.0144ZM38.6289 33.0888L38.4527 34.5784L41.0927 34.8908L41.2689 33.4012L41.4452 31.9116L38.8052 31.5992L38.6289 33.0888ZM41.2689 33.4012L41.5121 34.8814L44.1521 34.4476L43.9089 32.9674L43.6657 31.4873L41.0257 31.9211L41.2689 33.4012ZM43.9089 32.9674L43.8296 34.4653L46.4696 34.6051L46.5489 33.1072L46.6283 31.6093L43.9883 31.4695L43.9089 32.9674ZM46.5489 33.1072L46.6468 34.604L49.2868 34.4314L49.1889 32.9345L49.091 31.4377L46.451 31.6104L46.5489 33.1072ZM49.1889 32.9345L49.0072 34.4235L51.6472 34.7457L51.8289 33.2567L52.0107 31.7678L49.3706 31.4456L49.1889 32.9345ZM51.8289 33.2567L51.8781 34.7559L54.5181 34.6693L54.4689 33.1701L54.4198 31.6709L51.7798 31.7575L51.8289 33.2567ZM54.4689 33.1701L54.5172 34.6694L57.1572 34.5843L57.1089 33.0851L57.0606 31.5859L54.4206 31.6709L54.4689 33.1701ZM57.1089 33.0851L57.2019 34.5822L59.8419 34.4182L59.7489 32.9211L59.656 31.424L57.016 31.588L57.1089 33.0851ZM59.7489 32.9211L59.4877 34.3982L62.1277 34.8651L62.3889 33.388L62.6502 31.9109L60.0102 31.444L59.7489 32.9211ZM62.3889 33.388L62.6483 34.8654L65.2883 34.402L65.0289 32.9246L64.7696 31.4472L62.1296 31.9106L62.3889 33.388ZM65.0289 32.9246L64.8881 34.418L67.5281 34.6669L67.6689 33.1735L67.8097 31.6801L65.1697 31.4312L65.0289 32.9246ZM67.6689 33.1735L67.7498 34.6713L70.3898 34.5287L70.3089 33.0309L70.228 31.5331L67.588 31.6757L67.6689 33.1735ZM70.3089 33.0309L70.0964 34.5157L72.7364 34.8937L72.9489 33.4088L73.1615 31.924L70.5215 31.546L70.3089 33.0309ZM72.9489 33.4088L73.2227 34.8836L75.8627 34.3937L75.5889 32.9189L75.3152 31.444L72.6752 31.934L72.9489 33.4088ZM75.5889 32.9189L75.5107 34.4168L78.1507 34.5547L78.2289 33.0568L78.3072 31.5588L75.6672 31.4209L75.5889 32.9189ZM78.2289 33.0568L78.1967 34.5564L80.8367 34.6131L80.8689 33.1135L80.9012 31.6138L78.2612 31.5571L78.2289 33.0568ZM80.8689 33.1135L80.8939 34.6133L83.5339 34.5694L83.5089 33.0696L83.484 31.5698L80.844 31.6137L80.8689 33.1135ZM83.5089 33.0696L83.324 34.5581L85.9639 34.8862L86.1489 33.3977L86.3339 31.9091L83.6939 31.581L83.5089 33.0696ZM86.1489 33.3977L86.2855 34.8914L88.9255 34.6501L88.7889 33.1564L88.6524 31.6626L86.0124 31.9039L86.1489 33.3977ZM88.7889 33.1564L88.8004 34.6563L91.4404 34.6361L91.4289 33.1362L91.4175 31.6362L88.7775 31.6564L88.7889 33.1564ZM91.4289 33.1362L91.2602 34.6267L93.9002 34.9256L94.0689 33.4351L94.2377 31.9446L91.5977 31.6457L91.4289 33.1362ZM94.0689 33.4351L94.2919 34.9185L96.9319 34.5216L96.7089 33.0383L96.486 31.555L93.846 31.9518L94.0689 33.4351ZM96.7089 33.0383L96.6874 34.5381L99.3246 34.576L99.3461 33.0761L99.3676 31.5763L96.7305 31.5384L96.7089 33.0383ZM99.3461 33.0761L99.2471 34.5729L101.871 34.7465L101.97 33.2497L102.069 31.753L99.4451 31.5794L99.3461 33.0761ZM101.97 33.2497L101.525 34.6821L103.991 35.449L104.436 34.0166L104.882 32.5843L102.416 31.8174L101.97 33.2497ZM104.436 34.0166L102.985 34.3972L103.656 36.956L105.107 36.5755L106.558 36.1949L105.887 33.6361L104.436 34.0166ZM105.107 36.5755L103.62 36.3811L103.275 39.0232L104.762 39.2175L106.25 39.4119L106.595 36.7698L105.107 36.5755ZM104.762 39.2175L103.286 39.484L103.763 42.124L105.239 41.8575L106.715 41.5911L106.238 38.9511L104.762 39.2175ZM105.239 41.8575L103.759 41.6104L103.318 44.2495L104.798 44.4966L106.277 44.7438L106.718 42.1047L105.239 41.8575ZM104.798 44.4966L103.298 44.536L103.368 47.1731L104.867 47.1338L106.366 47.0945L106.297 44.4573L104.798 44.4966ZM104.867 47.1338L103.385 46.9038L102.974 49.5502L104.456 49.7802L105.939 50.0102L106.349 47.3638L104.867 47.1338ZM104.456 49.7802L103.944 48.3703L101.351 49.3125L101.863 50.7223L102.375 52.1322L104.969 51.19L104.456 49.7802ZM101.863 50.7223L102.095 49.2403L99.4465 48.8264L99.2149 50.3084L98.9832 51.7904L101.632 52.2043L101.863 50.7223ZM99.2149 50.3084L99.1787 48.8088L96.5323 48.8727L96.5685 50.3722L96.6047 51.8718L99.2511 51.8079L99.2149 50.3084ZM96.5685 50.3722L96.5805 48.8723L93.9406 48.851L93.9285 50.351L93.9164 51.8509L96.5564 51.8722L96.5685 50.3722ZM93.9285 50.351L93.9851 48.8521L91.3459 48.7524L91.2893 50.2513L91.2327 51.7503L93.8719 51.8499L93.9285 50.351ZM91.2893 50.2513L91.3271 48.7518L88.6867 48.6853L88.6489 50.1849L88.6112 51.6844L91.2516 51.7509L91.2893 50.2513ZM88.6489 50.1849L88.6914 48.6855L86.0492 48.6106L86.0068 50.11L85.9643 51.6094L88.6065 51.6843L88.6489 50.1849ZM86.0068 50.11L85.7812 48.6271L83.1477 49.0277L83.3733 50.5106L83.5989 51.9936L86.2323 51.593L86.0068 50.11ZM83.3733 50.5106L83.4136 49.0112L80.7709 48.9401L80.7306 50.4396L80.6903 51.9391L83.333 52.0101L83.3733 50.5106ZM80.7306 50.4396L80.5834 48.9468L77.947 49.207L78.0943 50.6997L78.2416 52.1925L80.8779 51.9324L80.7306 50.4396ZM78.0943 50.6997L78.2453 49.2074L75.6011 48.9398L75.4501 50.4322L75.2991 51.9246L77.9433 52.1921L78.0943 50.6997ZM75.4501 50.4322L75.393 48.9333L72.7539 49.0339L72.811 50.5328L72.8681 52.0317L75.5072 51.9311L75.4501 50.4322ZM72.811 50.5328L72.7989 49.0328L70.159 49.0541L70.171 50.554L70.1831 52.054L72.8231 52.0327L72.811 50.5328ZM70.171 50.554L70.0928 49.0561L67.453 49.1939L67.5312 50.6919L67.6094 52.1899L70.2493 52.052L70.171 50.554ZM67.5312 50.6919L67.56 49.1922L64.9197 49.1414L64.8909 50.6412L64.8621 52.1409L67.5024 52.1916L67.5312 50.6919ZM64.8909 50.6412L64.925 49.1415L62.2849 49.0815L62.2508 50.5811L62.2168 52.0807L64.8568 52.1408L64.8909 50.6412ZM62.2508 50.5811L62.2749 49.0813L59.635 49.0389L59.6109 50.5387L59.5868 52.0385L62.2267 52.0809L62.2508 50.5811ZM59.6109 50.5387L59.5678 49.0393L56.9272 49.1153L56.9704 50.6146L57.0135 52.114L59.654 52.0381L59.6109 50.5387ZM56.9704 50.6146L56.9323 49.1151L54.2916 49.1821L54.3296 50.6816L54.3676 52.1811L57.0084 52.1142L56.9704 50.6146ZM54.3296 50.6816L54.3523 49.1818L51.7124 49.1418L51.6897 50.6417L51.667 52.1415L54.3069 52.1814L54.3296 50.6816ZM51.6897 50.6417L51.7311 49.1422L49.0916 49.0692L49.0502 50.5687L49.0087 52.0681L51.6482 52.1411L51.6897 50.6417ZM49.0502 50.5687L49.2361 49.0802L46.5992 48.7508L46.4132 50.2392L46.2272 51.7276L48.8642 52.0571L49.0502 50.5687ZM46.4132 50.2392L46.3913 48.7394L43.7507 48.778L43.7727 50.2778L43.7946 51.7777L46.4351 51.739L46.4132 50.2392ZM43.7727 50.2778L43.6325 48.7844L40.9901 49.0324L41.1302 50.5258L41.2704 52.0192L43.9128 51.7713L43.7727 50.2778ZM41.1302 50.5258L41.1407 49.0258L38.5008 49.0075L38.4904 50.5075L38.48 52.0074L41.1198 52.0258L41.1302 50.5258ZM38.4904 50.5075L38.6079 49.0121L35.9696 48.8047L35.8521 50.3001L35.7346 51.7955L38.3729 52.0028L38.4904 50.5075ZM35.8521 50.3001L35.9091 48.8012L33.2698 48.7008L33.2128 50.1997L33.1558 51.6986L35.7951 51.799L35.8521 50.3001ZM33.2128 50.1997L33.2477 48.7001L30.6075 48.6387L30.5726 50.1383L30.5377 51.6379L33.1779 51.6993L33.2128 50.1997ZM30.5726 50.1383L30.6011 48.6385L27.9597 48.5883L27.9312 50.0881L27.9027 51.5878L30.5441 51.638L30.5726 50.1383ZM27.9312 50.0881L27.8648 48.5895L25.224 48.7065L25.2903 50.205L25.3567 51.7036L27.9976 51.5866L27.9312 50.0881ZM25.2903 50.205L25.2627 48.7053L22.6173 48.754L22.645 50.2538L22.6726 51.7535L25.318 51.7048L25.2903 50.205ZM22.645 50.2538L22.6442 48.7538L20.0174 48.7552L20.0182 50.2552L20.0191 51.7552L22.6458 51.7538L22.645 50.2538ZM20.0182 50.2552L20.0559 48.7557L17.437 48.6899L17.3994 50.1895L17.3617 51.689L19.9806 51.7547L20.0182 50.2552ZM17.3994 50.1895L18.5348 49.2092L16.8152 47.2175L15.6798 48.1978L14.5444 49.178L16.264 51.1697L17.3994 50.1895ZM15.6798 48.1978L17.1793 48.1597L17.1115 45.4895L15.612 45.5275L14.1125 45.5656L14.1803 48.2358L15.6798 48.1978ZM15.612 45.5275L17.112 45.5167L17.093 42.8758L15.593 42.8866L14.093 42.8974L14.1121 45.5383L15.612 45.5275ZM15.593 42.8866L17.0928 42.8589L17.044 40.2176L15.5442 40.2453L14.0445 40.273L14.0933 42.9143L15.593 42.8866ZM15.5442 40.2453L17.044 40.2695L17.0866 37.627L15.5868 37.6029L14.0869 37.5788L14.0444 40.2212L15.5442 40.2453ZM15.5868 37.6029L17.051 37.9283L17.6194 35.3705L16.1551 35.0451L14.6908 34.7197L14.1225 37.2775L15.5868 37.6029ZM16.1551 35.0451L17.327 35.9814L18.6978 34.2658L17.5259 33.3295L16.354 32.3931L14.9832 34.1087L16.1551 35.0451ZM17.5259 33.3295L16.0953 33.7805L16.115 33.8428L17.5455 33.3918L18.9761 32.9407L18.9565 32.8785L17.5259 33.3295ZM22.2466 50.6927L20.7517 50.5683L20.7434 50.668L22.2383 50.7924L23.7331 50.9168L23.7414 50.8171L22.2466 50.6927ZM22.2383 50.7924L20.7441 50.6602L20.5202 53.1903L22.0144 53.3225L23.5086 53.4547L23.7324 50.9246L22.2383 50.7924ZM22.0144 53.3225L20.5301 53.1061L20.1485 55.7235L21.6328 55.9399L23.1171 56.1563L23.4987 53.5389L22.0144 53.3225ZM21.6328 55.9399L20.1342 56.0046L20.2491 58.6633L21.7477 58.5986L23.2463 58.5338L23.1314 55.8751L21.6328 55.9399ZM21.7477 58.5986L20.2499 58.516L20.1046 61.153L21.6023 61.2356L23.1 61.3182L23.2454 58.6811L21.7477 58.5986ZM21.6023 61.2356L20.1408 60.8979L19.5402 63.497L21.0017 63.8347L22.4631 64.1725L23.0638 61.5733L21.6023 61.2356ZM21.0017 63.8347L19.5019 63.8051L19.4497 66.4499L20.9494 66.4795L22.4491 66.5092L22.5014 63.8644L21.0017 63.8347ZM20.9494 66.4795L19.4498 66.4455L19.3898 69.0896L20.8894 69.1237L22.389 69.1577L22.449 66.5135L20.9494 66.4795ZM20.8894 69.1237L19.3942 69.0036L19.1829 71.6352L20.6781 71.7552L22.1733 71.8752L22.3846 69.2437L20.8894 69.1237ZM20.6781 71.7552L19.1884 71.5802L18.8802 74.2037L20.37 74.3787L21.8597 74.5537L22.1679 71.9302L20.6781 71.7552ZM20.37 74.3787L18.8836 74.1771L18.5284 76.7967L20.0148 76.9982L21.5012 77.1998L21.8564 74.5802L20.37 74.3787ZM20.0148 76.9982L18.5271 76.8063L18.189 79.4273L19.6766 79.6192L21.1643 79.8111L21.5024 77.1902L20.0148 76.9982ZM19.6766 79.6192L18.1768 79.5949L18.134 82.2405L19.6338 82.2648L21.1336 82.2891L21.1764 79.6435L19.6766 79.6192ZM19.6338 82.2648L18.1476 82.0617L17.7897 84.6811L19.2759 84.8841L20.7621 85.0872L21.12 82.4678L19.6338 82.2648ZM19.2759 84.8841L17.7762 84.912L17.8255 87.5653L19.3252 87.5374L20.825 87.5095L20.7756 84.8562L19.2759 84.8841ZM19.3252 87.5374L17.8275 87.4544L17.6815 90.0914L19.1792 90.1743L20.6769 90.2573L20.8229 87.6203L19.3252 87.5374ZM19.1792 90.1743L17.7312 89.7828L17.0306 92.3736L18.4786 92.7652L19.9266 93.1567L20.6272 90.5659L19.1792 90.1743ZM18.4786 92.7652L16.9827 92.654L16.787 95.2868L18.2829 95.398L19.7788 95.5092L19.9745 92.8764L18.4786 92.7652ZM18.2829 95.398L16.7841 95.337L16.6766 97.9771L18.1754 98.0382L19.6741 98.0992L19.7817 95.459L18.2829 95.398ZM18.1754 98.0382L16.6755 98.0175L16.639 100.664L18.1389 100.684L19.6387 100.705L19.6752 98.0589L18.1754 98.0382ZM18.1389 100.684L16.6547 100.467L16.2716 103.084L17.7558 103.301L19.24 103.518L19.623 100.902L18.1389 100.684ZM17.7558 103.301L16.2571 103.362L16.3651 106.021L17.8639 105.96L19.3626 105.9L19.2546 103.24L17.7558 103.301ZM17.8639 105.96L16.3885 105.69L15.9098 108.298L17.3851 108.569L18.8605 108.84L19.3392 106.231L17.8639 105.96ZM17.3851 108.569L15.8853 108.589L15.921 111.242L17.4208 111.222L18.9207 111.202L18.885 108.549L17.3851 108.569ZM17.4208 111.222L15.9255 111.104L15.719 113.721L17.2143 113.839L18.7097 113.957L18.9162 111.34L17.4208 111.222ZM17.2143 113.839L16.0071 114.73L17.1184 116.237L18.3256 115.346L19.5328 114.456L18.4215 112.949L17.2143 113.839ZM18.3256 115.346L17.9156 116.789L20.4823 117.518L20.8923 116.076L21.3023 114.633L18.7356 113.903L18.3256 115.346ZM20.8923 116.076L21.0659 117.566L23.7059 117.258L23.5323 115.768L23.3587 114.278L20.7187 114.586L20.8923 116.076ZM23.5323 115.768L23.2735 117.246L25.9135 117.708L26.1723 116.231L26.4312 114.753L23.7912 114.291L23.5323 115.768ZM26.1723 116.231L26.2043 117.73L28.8443 117.674L28.8123 116.174L28.7803 114.675L26.1403 114.731L26.1723 116.231ZM28.8123 116.174L28.9527 117.668L31.5927 117.42L31.4523 115.926L31.312 114.433L28.672 114.681L28.8123 116.174ZM31.4523 115.926L31.2774 117.416L33.9174 117.726L34.0923 116.236L34.2673 114.746L31.6273 114.436L31.4523 115.926ZM34.0923 116.236L34.1047 117.736L36.7447 117.714L36.7323 116.214L36.72 114.714L34.08 114.736L34.0923 116.236ZM36.7323 116.214L36.8569 117.709L39.4969 117.489L39.3723 115.994L39.2477 114.5L36.6077 114.72L36.7323 116.214ZM39.3723 115.994L39.2417 117.489L41.8817 117.719L42.0123 116.225L42.1429 114.731L39.5029 114.5L39.3723 115.994ZM42.0123 116.225L42.1778 117.716L44.8178 117.423L44.6523 115.932L44.4869 114.441L41.8469 114.734L42.0123 116.225ZM44.6523 115.932L44.6125 117.432L47.2525 117.502L47.2923 116.002L47.3321 114.503L44.6921 114.433L44.6523 115.932ZM47.2923 116.002L47.2205 117.5L49.8605 117.627L49.9323 116.129L50.0042 114.63L47.3642 114.504L47.2923 116.002ZM49.9323 116.129L49.9994 117.627L52.6394 117.509L52.5723 116.011L52.5053 114.512L49.8653 114.63L49.9323 116.129ZM52.5723 116.011L52.6909 117.506L55.3309 117.297L55.2123 115.801L55.0937 114.306L52.4537 114.515L52.5723 116.011ZM55.2123 115.801L55.0476 117.292L57.6876 117.584L57.8523 116.093L58.017 114.602L55.377 114.31L55.2123 115.801ZM57.8523 116.093L58.0266 117.583L60.6666 117.274L60.4923 115.784L60.3181 114.294L57.6781 114.603L57.8523 116.093ZM60.4923 115.784L60.2267 117.26L62.8667 117.735L63.1323 116.259L63.3979 114.783L60.7579 114.308L60.4923 115.784ZM63.1323 116.259L63.2545 117.754L65.8945 117.538L65.7723 116.043L65.6501 114.548L63.0101 114.764L63.1323 116.259ZM65.7723 116.043L65.9413 117.534L68.5813 117.234L68.4123 115.744L68.2433 114.253L65.6033 114.553L65.7723 116.043ZM68.4123 115.744L68.1497 117.221L70.7897 117.69L71.0523 116.213L71.3149 114.736L68.6749 114.267L68.4123 115.744ZM71.0523 116.213L71.0302 117.713L73.6702 117.752L73.6923 116.252L73.7145 114.752L71.0745 114.713L71.0523 116.213ZM73.6923 116.252L73.7162 117.752L76.3562 117.71L76.3323 116.21L76.3084 114.71L73.6684 114.752L73.6923 116.252ZM76.3323 116.21L76.4874 117.702L79.1232 117.428L78.9682 115.936L78.8131 114.444L76.1773 114.718L76.3323 116.21ZM78.9682 115.936L79.1959 117.419L81.806 117.018L81.5782 115.535L81.3504 114.053L78.7404 114.454L78.9682 115.936ZM81.5782 115.535L83.0279 115.921L83.6845 113.449L82.2348 113.064L80.7851 112.679L80.1285 115.15L81.5782 115.535ZM82.2348 113.064L83.7279 112.921L83.4739 110.277L81.9808 110.42L80.4876 110.564L80.7417 113.208L82.2348 113.064ZM81.9808 110.42L83.4807 110.434L83.5061 107.794L82.0061 107.779L80.5062 107.765L80.4808 110.406L81.9808 110.42ZM82.0061 107.779L83.4896 108.001L83.8855 105.354L82.402 105.132L80.9185 104.91L80.5226 107.557L82.0061 107.779ZM82.402 105.132L83.8969 105.009L83.6794 102.373L82.1845 102.497L80.6896 102.62L80.9071 105.256L82.402 105.132ZM82.1845 102.497L83.6844 102.48L83.6553 99.84L82.1554 99.8565L80.6555 99.873L80.6846 102.513L82.1845 102.497ZM82.1554 99.8565L83.6536 99.9309L83.7847 97.2917L82.2865 97.2172L80.7884 97.1428L80.6573 99.782L82.1554 99.8565ZM82.2865 97.2172L83.7762 97.0411L83.4635 94.3969L81.9739 94.573L80.4843 94.7491L80.7969 97.3934L82.2865 97.2172ZM81.9739 94.573L83.4681 94.7041L83.6995 92.0673L82.2052 91.9362L80.711 91.8051L80.4796 94.4419L81.9739 94.573ZM82.2052 91.9362L83.7036 92.0069L83.828 89.3685L82.3297 89.2978L80.8314 89.2271L80.7069 91.8656L82.2052 91.9362ZM82.3297 89.2978L83.8296 89.2794L83.7971 86.6386L82.2972 86.657L80.7973 86.6755L80.8298 89.3163L82.3297 89.2978ZM82.2972 86.657L83.7961 86.7144L83.8972 84.0753L82.3983 84.0179L80.8994 83.9605L80.7983 86.5996L82.2972 86.657ZM82.3983 84.0179L83.8894 83.855L83.6012 81.217L82.1101 81.3799L80.619 81.5428L80.9071 84.1808L82.3983 84.0179ZM82.1101 81.3799L83.6092 81.4317L83.7005 78.791L82.2014 78.7392L80.7023 78.6873L80.611 81.328L82.1101 81.3799ZM82.2014 78.7392L83.6982 78.8361L83.8693 76.1949L82.3725 76.0979L80.8756 76.0009L80.7045 78.6422L82.2014 78.7392ZM82.3725 76.0979L83.8697 76.0069L83.7094 73.368L82.2122 73.459L80.715 73.5499L80.8752 76.1888L82.3725 76.0979ZM82.2122 73.459L83.7042 73.614L83.9787 70.972L82.4867 70.8169L80.9947 70.6619L80.7202 73.3039L82.2122 73.459ZM82.4867 70.8169L83.9703 70.5956L83.5768 67.9583L82.0932 68.1797L80.6096 68.401L81.0031 71.0383L82.4867 70.8169ZM82.0932 68.1797L83.5903 68.2727L83.7546 65.6315L82.2575 65.5384L80.7603 65.4454L80.5961 68.0866L82.0932 68.1797ZM82.2575 65.5384L83.7572 65.5665L83.8066 62.9261L82.3069 62.898L80.8072 62.8699L80.7577 65.5104L82.2575 65.5384ZM82.3069 62.898L83.8021 62.7785L83.5913 60.14L82.0961 60.2594L80.6008 60.3789L80.8117 63.0175L82.3069 62.898ZM82.0961 60.2594L83.5959 60.2826L83.6367 57.6423L82.1368 57.6191L80.637 57.5959L80.5962 60.2363L82.0961 60.2594ZM82.1368 57.6191L83.6294 57.7687L83.8942 55.1268L82.4017 54.9772L80.9092 54.8275L80.6443 57.4695L82.1368 57.6191ZM82.4017 54.9772L83.8902 54.7918L83.5618 52.1541L82.0733 52.3394L80.5848 52.5247L80.9132 55.1625L82.4017 54.9772ZM82.0733 52.3394L83.5732 52.3526L83.5876 50.7062L82.0877 50.6931L80.5878 50.6799L80.5733 52.3263L82.0733 52.3394ZM82.0877 50.6931L82.0983 52.1931L82.1508 52.1927L82.1402 50.6927L82.1296 49.1928L82.0771 49.1931L82.0877 50.6931ZM38.5822 50.6927H37.0822V50.7927H38.5822H40.0822V50.6927H38.5822ZM38.5822 50.7927L37.0823 50.7723L37.0477 53.3123L38.5476 53.3327L40.0475 53.3531L40.0821 50.8131L38.5822 50.7927ZM38.5476 53.3327L37.0548 53.4799L37.3151 56.1199L38.8079 55.9727L40.3006 55.8255L40.0404 53.1855L38.5476 53.3327ZM38.8079 55.9727L37.3089 55.918L37.2125 58.558L38.7115 58.6127L40.2105 58.6675L40.3069 56.0275L38.8079 55.9727ZM38.7115 58.6127L37.2116 58.5929L37.1768 61.2329L38.6766 61.2527L40.1765 61.2725L40.2113 58.6325L38.7115 58.6127ZM38.6766 61.2527L37.179 61.3362L37.3262 63.9762L38.8238 63.8927L40.3215 63.8092L40.1743 61.1692L38.6766 61.2527ZM38.8238 63.8927L37.3246 63.844L37.2388 66.484L38.738 66.5327L40.2372 66.5815L40.323 63.9415L38.8238 63.8927ZM38.738 66.5327L37.2392 66.5948L37.3487 69.2348L38.8474 69.1727L40.3461 69.1106L40.2367 66.4706L38.738 66.5327ZM38.8474 69.1727L37.3476 69.1458L37.3003 71.7858L38.8 71.8127L40.2998 71.8396L40.3471 69.1996L38.8474 69.1727ZM38.8 71.8127L37.3045 71.6975L37.1011 74.3375L38.5967 74.4527L40.0922 74.5679L40.2956 71.9279L38.8 71.8127ZM38.5967 74.4527L37.101 74.5669L37.3026 77.2069L38.7982 77.0927L40.2939 76.9785L40.0923 74.3385L38.5967 74.4527ZM38.7982 77.0927L37.2988 77.0512L37.2257 79.6912L38.7251 79.7327L40.2246 79.7742L40.2976 77.1342L38.7982 77.0927ZM38.7251 79.7327L37.226 79.6823L37.1372 82.3223L38.6364 82.3727L40.1355 82.4231L40.2243 79.7831L38.7251 79.7327ZM38.6364 82.3727L37.1385 82.2925L36.9971 84.9325L38.4949 85.0127L39.9928 85.093L40.1342 82.453L38.6364 82.3727ZM38.4949 85.0127L36.9985 85.116L37.1807 87.756L38.6772 87.6527L40.1736 87.5494L39.9914 84.9094L38.4949 85.0127ZM38.6772 87.6527L37.1772 87.6659L37.2004 90.3059L38.7004 90.2927L40.2003 90.2795L40.1771 87.6395L38.6772 87.6527ZM38.7004 90.2927L37.2023 90.2162L37.0675 92.8562L38.5655 92.9327L40.0636 93.0092L40.1984 90.3692L38.7004 90.2927ZM38.5655 92.9327L37.0695 92.823L36.876 95.463L38.372 95.5727L39.868 95.6824L40.0615 93.0424L38.5655 92.9327ZM38.372 95.5727L36.872 95.558L36.8462 98.198L38.3461 98.2127L39.846 98.2274L39.8719 95.5874L38.372 95.5727ZM38.3461 98.2127L36.8566 98.39L37.1709 101.03L38.6604 100.853L40.1499 100.675L39.8356 98.0354L38.3461 98.2127ZM38.6604 100.853L37.1628 100.768L37.0126 103.408L38.5101 103.493L40.0077 103.578L40.1579 100.938L38.6604 100.853ZM38.5101 103.493L37.0222 103.683L37.3596 106.323L38.8475 106.133L40.3354 105.943L39.998 103.303L38.5101 103.493ZM38.8475 106.133L37.3489 106.067L37.2334 108.707L38.732 108.773L40.2305 108.838L40.3461 106.198L38.8475 106.133ZM38.732 108.773L37.2455 108.571L36.8879 111.211L38.3743 111.413L39.8607 111.614L40.2184 108.974L38.732 108.773ZM38.3743 111.413L36.8809 111.553L37.1282 114.193L38.6216 114.053L40.1151 113.913L39.8678 111.273L38.3743 111.413ZM38.6216 114.053L37.1218 114.072L37.1426 115.655L38.6425 115.635L40.1424 115.615L40.1215 114.033L38.6216 114.053ZM38.6425 115.635V114.135H38.5822V115.635V117.135H38.6425V115.635ZM98.1164 50.6927L96.6209 50.8086L96.6286 50.9083L98.1242 50.7924L99.6197 50.6765L99.6119 50.5768L98.1164 50.6927ZM98.1242 50.7924L96.6243 50.7755L96.5955 53.3253L98.0954 53.3423L99.5953 53.3592L99.6241 50.8094L98.1242 50.7924ZM98.0954 53.3423L96.6291 53.6584L97.1906 56.2628L98.6569 55.9467L100.123 55.6305L99.5617 53.0261L98.0954 53.3423ZM98.6569 55.9467L97.1573 55.983L97.2214 58.6259L98.7209 58.5896L100.22 58.5533L100.156 55.9103L98.6569 55.9467ZM98.7209 58.5896L97.2345 58.7912L97.5898 61.4115L99.0762 61.21L100.563 61.0085L100.207 58.3881L98.7209 58.5896ZM99.0762 61.21L97.5763 61.2201L97.594 63.8666L99.094 63.8565L100.594 63.8465L100.576 61.1999L99.0762 61.21ZM99.094 63.8565L97.5978 63.9634L97.7859 66.5967L99.2821 66.4899L100.778 66.383L100.59 63.7497L99.094 63.8565ZM99.2821 66.4899L97.7923 66.6648L98.1004 69.2888L99.5902 69.1139L101.08 68.939L100.772 66.315L99.2821 66.4899ZM99.5902 69.1139L98.1083 69.3461L98.5182 71.9622L100 71.7301L101.482 71.4979L101.072 68.8817L99.5902 69.1139ZM100 71.7301L98.5006 71.689L98.4279 74.343L99.9274 74.3841L101.427 74.4252L101.5 71.7711L100 71.7301ZM99.9274 74.3841L98.4337 74.5223L98.677 77.1511L100.171 77.0129L101.664 76.8746L101.421 74.2459L99.9274 74.3841ZM100.171 77.0129L98.6711 77.0511L98.7386 79.696L100.238 79.6578L101.738 79.6195L101.67 76.9746L100.171 77.0129ZM100.238 79.6578L98.7583 79.9032L99.1915 82.5145L100.671 82.2691L102.151 82.0236L101.718 79.4123L100.238 79.6578ZM100.671 82.2691L99.1792 82.4234L99.4508 85.0495L100.943 84.8953L102.435 84.741L102.163 82.1148L100.671 82.2691ZM100.943 84.8953L99.4504 85.0462L99.7161 87.6729L101.209 87.522L102.701 87.371L102.435 84.7443L100.943 84.8953ZM101.209 87.522L99.7093 87.5708L99.7953 90.214L101.295 90.1652L102.794 90.1164L102.708 87.4732L101.209 87.522ZM101.295 90.1652L99.8347 90.5099L100.447 93.1047L101.907 92.76L103.367 92.4153L102.754 89.8205L101.295 90.1652ZM101.907 92.76L100.408 92.8215L100.517 95.4627L102.016 95.4012L103.514 95.3397L103.406 92.6985L101.907 92.76ZM102.016 95.4012L100.533 95.6271L100.931 98.2402L102.414 98.0143L103.897 97.7883L103.498 95.1753L102.016 95.4012ZM102.414 98.0143L100.92 98.1528L101.164 100.782L102.658 100.643L104.151 100.504L103.907 97.8757L102.414 98.0143ZM102.658 100.643L101.159 100.581L101.049 103.244L102.548 103.306L104.046 103.368L104.156 100.705L102.658 100.643ZM102.548 103.306L101.058 103.483L101.37 106.106L102.86 105.928L104.349 105.751L104.037 103.129L102.548 103.306ZM102.86 105.928L101.372 106.117L101.704 108.737L103.192 108.548L104.68 108.359L104.348 105.739L102.86 105.928ZM103.192 108.548L101.709 108.773L102.105 111.383L103.588 111.159L105.071 110.934L104.676 108.324L103.192 108.548ZM103.588 111.159L102.09 111.236L102.226 113.88L103.724 113.802L105.222 113.725L105.086 111.081L103.588 111.159ZM103.724 113.802L102.62 114.817L104.125 116.456L105.23 115.441L106.334 114.426L104.829 112.788L103.724 113.802ZM105.23 115.441L104.845 116.891L107.372 117.562L107.757 116.112L108.142 114.662L105.615 113.991L105.23 115.441ZM107.757 116.112L107.772 117.612L110.412 117.584L110.397 116.085L110.381 114.585L107.741 114.612L107.757 116.112ZM110.397 116.085L110.584 117.573L113.187 117.246L113 115.757L112.813 114.269L110.21 114.596L110.397 116.085ZM113 115.757H111.5V115.996H113H114.5V115.757H113ZM7 116V117.5H7.1V116V114.5H7V116ZM7.1 116L7.04627 117.499L9.58627 117.59L9.64 116.091L9.69373 114.592L7.15373 114.501L7.1 116ZM9.64 116.091L9.66869 117.591L12.3087 117.54L12.28 116.041L12.2513 114.541L9.61131 114.591L9.64 116.091ZM12.28 116.041L12.1583 117.536L14.7983 117.75L14.92 116.255L15.0417 114.76L12.4017 114.545L12.28 116.041ZM14.92 116.255L15.3951 117.678L16.9134 117.171L16.4384 115.748L15.9633 114.326L14.4449 114.833L14.92 116.255ZM16.4384 115.748H14.9384V116H16.4384H17.9384V115.748H16.4384ZM82.5068 116V117.5H82.6068V116V114.5H82.5068V116ZM82.6068 116L82.5651 117.499L85.1051 117.57L85.1468 116.071L85.1886 114.571L82.6486 114.501L82.6068 116ZM85.1468 116.071L85.1607 117.571L87.8007 117.546L87.7868 116.046L87.773 114.546L85.133 114.571L85.1468 116.071ZM87.7868 116.046L87.7331 117.545L90.3731 117.64L90.4268 116.141L90.4806 114.642L87.8406 114.547L87.7868 116.046ZM90.4268 116.141L90.4119 117.641L93.0519 117.667L93.0668 116.167L93.0818 114.667L90.4418 114.641L90.4268 116.141ZM93.0668 116.167L93.2229 117.659L95.8629 117.383L95.7068 115.891L95.5508 114.399L92.9108 114.675L93.0668 116.167ZM95.7068 115.891L95.6386 117.39L98.2786 117.51L98.3468 116.011L98.4151 114.513L95.7751 114.393L95.7068 115.891ZM98.3468 116.011L98.3013 117.511L100.941 117.591L100.987 116.091L101.032 114.592L98.3923 114.512L98.3468 116.011ZM100.987 116.091L101.083 117.588L103.658 117.423L103.562 115.926L103.465 114.429L100.891 114.594L100.987 116.091ZM103.562 115.926H102.062V116H103.562H105.062V115.926H103.562Z" fill="black"/>
</svg>
