<svg width="120" height="120" viewBox="0 0 120 120" fill="none" xmlns="http://www.w3.org/2000/svg">
<path d="M75.042 92.1143L77.7256 92.3369H77.7607L80.3975 92.6064L81.335 92.7119L81.6514 93.6025L82.5068 96.0049L82.624 96.333L82.5771 96.6846L82.2842 99.1221L82.5186 101.653V101.782L82.5303 104.419V104.513L82.5186 104.595L82.2373 107.056L82.6123 109.481L82.6357 109.634L82.624 109.786L82.4951 112.423V112.446L82.3193 114.942L82.3779 115.505L80.8896 115.646L79.3896 115.786L79.3311 115.118L79.3193 115.001L79.3311 114.884L79.5068 112.247L79.624 109.786L79.249 107.29L79.2139 107.103L79.2373 106.903L79.5186 104.349V101.794L79.2959 99.2861L79.2725 99.1338L79.2959 98.9814L79.5537 96.6846L79.1318 95.4893L77.4795 95.3135L75.0186 95.126L72.6982 95.7119L72.417 95.7822L72.124 95.7354L69.6162 95.3721L67.1318 95.5127L67.0264 95.5244L66.9092 95.5127L64.4365 95.2783L62.0342 95.7119L61.7764 95.7588L61.5186 95.7119L59.0576 95.2666L56.585 95.4307H56.5381L53.9014 95.5127L51.2646 95.6064H51.1475L51.0303 95.5947L48.5459 95.2783L46.0264 95.4541H45.9092L45.7803 95.4424L43.4482 95.1963L41.0811 95.7002L41.0107 95.7236H40.9404L39.5225 95.876L39.3467 97.1768L39.5225 99.708V99.8252L39.5107 102.462V102.567L39.3115 105.028L39.417 107.677L39.6631 110.231L39.6748 110.384L39.6631 110.536L39.3936 112.985L39.5928 115.423L39.6045 115.481V115.634L38.1045 115.646H36.7803L36.6045 115.669L36.4053 113.138L36.3936 112.997L36.4053 112.856L36.6748 110.419L36.4287 107.876L36.417 107.841V107.794L36.3115 105.157V104.981L36.5107 102.45L36.5225 99.8135L36.335 97.2822L36.3232 97.1182L36.3467 96.9658L36.7217 94.3174L36.8857 93.1689L38.0342 93.04L40.5068 92.7588L43.0498 92.2197L43.2842 92.1611L43.5186 92.1846L45.9326 92.4541L48.4756 92.29L48.6162 92.2783L48.7568 92.29L51.2646 92.6064L53.8076 92.5127L56.3975 92.4424L59.0459 92.2666L59.2217 92.2549L59.3975 92.29L61.7764 92.7119L64.1553 92.29L64.3545 92.2549L64.5537 92.2783L67.1084 92.5244L69.6162 92.3838L69.7568 92.3721L69.9092 92.3955L72.2412 92.7354L74.5615 92.1611L74.7959 92.1025L75.042 92.1143Z" fill="black"/>
<path d="M54.3545 26.6216L56.9912 26.8442L59.4756 27.0669L62.0068 26.8208L62.2295 26.7974L62.4287 26.8325L65.0537 27.3247L65.042 27.3364L67.5615 27.5708L70.2217 27.8521L71.1475 27.9575L71.4639 28.8364L72.2842 31.0981L72.3662 31.3325L72.3779 31.5786L72.4248 34.2153V34.2739L72.3662 36.9224V36.9692L72.2373 39.4302L72.6943 41.8911L72.7412 42.1372L72.7061 42.3833L72.3428 44.8794L72.4834 47.3755L72.4951 47.481L72.4834 47.5864L72.2256 50.2349L72.167 50.9263L71.5811 51.3247L70.1045 52.3325L69.5654 52.7075L68.9326 52.5669L66.4834 52.0044L64.0342 52.0747H64.0107L61.3857 52.0864L61.3975 52.0981L58.7607 52.1802H58.5732L56.0654 51.9341L53.6396 52.2739L50.9795 52.6489L50.8037 52.6724L50.6162 52.6606L46.9951 52.2739L46.8662 51.0552L46.6084 48.395L46.5967 48.2896V48.1958L46.6787 45.5591L46.5029 43.063V40.2622L46.5146 40.2036L46.7139 37.6255L46.6084 35.188L46.3506 32.5513L46.3389 32.4224L46.3506 32.2817L46.5615 29.6685L46.5029 28.2974V28.1333H48.0029L48.1787 26.645L49.0342 26.7622L51.5068 26.7739L54.1436 26.6216L54.249 26.6099L54.3545 26.6216ZM51.6826 29.7739H51.5771L49.5615 29.7505V29.7739L49.5498 29.8677L49.3506 32.3755L49.5967 34.895V34.9771L49.7139 37.6255V37.7075L49.7021 37.8013L49.5029 40.438V42.9692L49.6787 45.5005V45.6528L49.5967 48.1372L49.7256 49.5435L50.7217 49.6489L53.2295 49.3091L55.8545 48.9458L56.0303 48.9224L56.2061 48.9341L58.7139 49.1685L61.3037 49.0981H61.3389L63.9639 49.0747L66.6123 49.0044H66.7998L66.9756 49.0396L68.9561 49.4849L69.2959 49.2505L69.4834 47.4458L69.3428 44.8911V44.7388L69.3545 44.5981L69.7061 42.1724L69.2607 39.8052L69.2256 39.6294L69.2373 39.4536L69.3662 36.8638L69.4248 34.2739L69.3779 31.895L68.9678 30.7349L67.2451 30.5591V30.5474L64.6318 30.2896H64.5615L64.5029 30.2778L62.1006 29.8208L59.6396 30.0669L59.5107 30.0786L59.3701 30.0669L56.7334 29.8325L54.1904 29.6099L51.6826 29.7739Z" fill="black"/>
<path d="M51.499 51.6494V51.6846L51.6045 54.2275L51.6162 54.333L51.6045 54.4502L51.335 56.9229L51.5811 59.4189V59.5127L51.6865 62.1494L51.6982 62.2432L51.6865 62.3252L51.4873 64.9619L51.4756 67.3877L51.6631 70.0244L51.6748 70.0947L51.6631 70.1768L51.5928 72.8135V72.8838L51.5811 72.9424L51.2998 75.3564L51.4756 76.3877L48.5225 76.9033L48.2998 75.6729L48.2646 75.4502L48.2881 75.2275L48.6045 72.6729L48.6748 70.2354L48.4873 67.5986L48.4756 67.54V67.4814L48.4873 64.8447V64.7275L48.6982 62.1494L48.5928 59.7119L48.335 57.0752L48.3232 56.9229L48.335 56.7705L48.6045 54.2275L48.499 51.8135V51.6494H51.499Z" fill="black"/>
<path d="M70.499 51.6494V51.6846L70.6045 54.2275L70.6162 54.333L70.6045 54.4502L70.335 56.9229L70.5811 59.4189V59.5127L70.6865 62.1494L70.6982 62.2432L70.6865 62.3252L70.4873 64.9619L70.4756 67.3877L70.6631 70.0244L70.6748 70.0947L70.6631 70.1768L70.5928 72.8135V72.8838L70.5811 72.9424L70.2998 75.3564L70.4756 76.3877L67.5225 76.9033L67.2998 75.6729L67.2646 75.4502L67.2881 75.2275L67.6045 72.6729L67.6748 70.2354L67.4873 67.5986L67.4756 67.54V67.4814L67.4873 64.8447V64.7275L67.6982 62.1494L67.5928 59.7119L67.335 57.0752L67.3232 56.9229L67.335 56.7705L67.6045 54.2275L67.499 51.8135V51.6494H70.499Z" fill="black"/>
<path d="M68.6865 75.0088L71.1709 75.583L73.6553 75.6182L73.8662 75.6299L74.0537 75.6885L76.3389 76.3799L77.3584 76.6846L77.4053 77.751L77.499 80.3994V80.5635L77.2998 83.1299L77.4053 85.5908L77.6631 88.2275L77.6748 88.3799L77.6631 88.5322L77.3818 91.0986L77.4873 93.4893V93.6533H74.4873V93.5479H74.499L74.3818 91.0752V90.958L74.3936 90.8525L74.6514 88.3447L74.417 85.8721V85.79L74.2998 83.1533V83.0596L74.3115 82.9775L74.499 80.5049L74.4404 78.9346L73.374 78.6064L70.96 78.5713H70.7959L70.6436 78.5361L68.3818 78.0088L66.1787 78.6182L65.9443 78.6885L65.6982 78.6768L63.1553 78.5361L60.6006 78.7119L60.46 78.7236L60.3193 78.7002L57.7295 78.3838L55.2686 78.4775L52.6318 78.5596H52.5381L49.9131 78.4893H49.8779L47.4287 78.3604L45.3076 78.665L44.5811 79.2158L44.6514 81.0674V81.208L44.6396 81.3369L44.2881 83.7393L44.7334 86.1299L44.7686 86.3057L44.7568 86.4814L44.6279 89.1299L44.5693 91.7197L44.6162 93.6182L44.6514 95.1533H42.999V93.6533L41.6162 93.6885L41.5693 91.7197V91.6494L41.6279 89.0127V88.9658L41.7568 86.4814L41.2998 84.0439L41.2529 83.7979L41.2881 83.5518L41.6514 81.0322L41.5576 78.5479L41.5225 77.751L42.167 77.2822L43.8428 76.04L44.1475 75.8174L44.5225 75.7588L47.1357 75.3721L47.2764 75.3604H47.417L50.0186 75.4893L50.0068 75.501L52.5732 75.5596L55.1748 75.4775L57.8115 75.3955L57.9287 75.3838L58.0459 75.3955L60.5186 75.7119L63.0381 75.5361H63.2256L65.6279 75.665L67.9482 75.0205L68.3115 74.915L68.6865 75.0088Z" fill="black"/>
<path d="M62.085 4.91113L62.6826 5.04004L63.0225 5.55566L64.335 7.57129L65.835 8.94238L67.9209 9.35254L68.9521 9.54004L69.1279 10.5713L69.5498 13.1494L69.6084 13.5361L69.4795 13.8994L68.6475 16.208L68.3896 16.9111L67.6631 17.1221L65.4131 17.8135L65.1553 17.8838L64.8975 17.8721L62.4014 17.7432L59.9521 18.1768L59.7412 18.2119L59.5303 18.1885L56.9873 17.8955L54.3857 17.8604H54.3154L51.8076 17.6963L50.8584 17.626L50.5068 16.7354L49.5928 14.3564L49.4521 13.9932L49.5107 13.6064L49.874 11.0518L49.9912 10.2197L50.7646 9.8916L52.6748 9.04785L54.2686 7.77051L55.9443 5.96582L56.1201 5.77832L56.3545 5.64941L58.5693 4.47754L58.9795 5.2627L59.46 5.59082L59.7178 4.39551L62.085 4.91113ZM57.9482 8.19238L56.3662 9.92676L56.2842 10.0205L56.2021 10.0908L54.3857 11.5322L54.2217 11.6494L54.0459 11.7314L52.71 12.2939L52.5225 13.6299L52.9561 14.7549L54.5146 14.8604H54.5029L57.0811 14.9072H57.1514L57.2217 14.9189L59.6475 15.1768L62.085 14.7666L62.249 14.7314L62.4131 14.7432L64.8037 14.8604L66.0693 14.4619L66.5146 13.2432L66.3271 12.0947L64.874 11.8252L64.4639 11.7432L64.1475 11.4619L62.1904 9.66895L62.0381 9.54004L61.9443 9.3877L60.8428 7.7002L59.4482 7.39551L57.9482 8.19238Z" fill="black"/>
<path d="M45.4873 99.6064L47.8193 99.6885L48.6396 99.7119L49.0615 100.427L50.3857 102.653L50.6201 103.063L50.585 103.532L50.3857 106.04L50.4209 108.606L49.0967 108.618L48.9795 108.712L47.7373 109.556L47.6787 109.474L47.4326 109.099L47.4209 108.642L47.3857 106.087V105.946L47.5498 103.767L46.8936 102.653L46.2021 102.63L45.5459 103.591L45.4873 105.794L45.6748 108.278V108.431L45.6045 111.079V111.138L45.5928 111.208L45.2998 113.587L45.6865 115.333L46.085 117.149H44.0107V115.685L42.7568 115.966L42.3232 113.997L42.2646 113.751L42.2998 113.493L42.6162 110.938L42.6748 108.501L42.4873 105.864L42.4756 105.782L42.4873 105.712L42.5576 103.075L42.5693 102.63L42.8154 102.267L44.1982 100.251L44.667 99.583L45.4873 99.6064Z" fill="black"/>
<path d="M73.4795 99.3486L75.6475 100.896L76.2334 101.306L76.2803 102.009L76.4678 104.681V107.329L76.6553 109.966V110.106L76.585 112.755V112.849L76.5615 112.942L76.1514 115.567L75.2139 115.415L74.8857 115.649L73.6436 116.493L73.4326 116.165L73.1045 115.685L73.1982 115.099L73.585 112.603L73.6553 110.177L73.4678 107.54V104.786L73.3389 102.923L72.6123 102.407L71.8975 102.923L71.4053 104.669L71.5928 106.978L71.6631 107.81L70.9717 108.302L70.8896 108.36L70.0107 107.153L69.9756 107.095L68.6045 107.212L68.3936 104.634L68.3701 104.353L68.4521 104.095L69.167 101.599L69.3076 101.106L69.7295 100.802L71.7334 99.3486L72.6006 98.7158L73.4795 99.3486Z" fill="black"/>
<path d="M60.499 101.649V101.685L60.6045 104.228L60.6162 104.333L60.6045 104.45L60.335 106.923L60.5811 109.419V109.513L60.6865 112.149L60.6982 112.243L60.6865 112.337L60.4873 114.774L58.999 114.646V116.146H57.3584L57.499 114.528L57.6982 112.138L57.5928 109.712L57.335 107.075L57.3232 106.923L57.335 106.771L57.6045 104.228L57.499 101.813V101.649H60.499Z" fill="black"/>
<path d="M54.499 16.6494V16.6846L54.6045 19.2275L54.6162 19.333L54.6045 19.4502L54.335 21.9229L54.5811 24.4189V24.5127L54.6865 27.1494L54.71 27.501L54.5693 27.8174L54.3701 28.251L52.999 27.6533L52.0967 27.2432L51.6982 27.2666V27.0674L51.6279 27.0439L51.6865 26.9033L51.5928 24.7119L51.335 22.0752L51.3232 21.9229L51.335 21.7705L51.6045 19.2275L51.499 16.8135V16.6494H54.499Z" fill="black"/>
<path d="M67.499 16.6494V16.6846L67.6045 19.2275L67.6162 19.333L67.6045 19.4502L67.335 21.9229L67.5811 24.4189V24.5127L67.6865 27.1494L67.71 27.501L67.5693 27.8174L67.3701 28.251L65.999 27.6533L65.0967 27.2432L64.6982 27.2666V27.0674L64.6279 27.0439L64.6865 26.9033L64.5928 24.7119L64.335 22.0752L64.3232 21.9229L64.335 21.7705L64.6045 19.2275L64.499 16.8135V16.6494H67.499Z" fill="black"/>
<path d="M61.2959 59.6299L61.3896 59.8994V60.1807L61.3311 62.8291L61.5303 65.3135V65.3369L61.542 65.3604L61.6475 67.5635L61.7295 69.0752L60.2178 69.1338L60.0303 69.1455L59.96 67.6455L58.6475 67.7158L58.542 65.5479L58.3311 62.9111V62.7588L58.3896 60.415L57.6045 58.2588L57.5342 58.083L57.5107 57.8955V57.79L58.999 57.6494L59.3623 57.626L60.417 57.2393L61.2959 59.6299Z" fill="black"/>
<path d="M66.25 81.6494V81.6846L66.3555 84.2275L66.3672 84.333L66.3555 84.4502L66.0859 86.9229L66.332 89.4189L66.4023 90.1689L65.8516 90.6729L65.7578 90.7549L64.75 89.6533L64.6914 89.583L63.3438 89.7119L63.0859 87.0752L63.0742 86.9229L63.0859 86.7705L63.3555 84.2275L63.25 81.8135V81.6494H66.25Z" fill="black"/>
<path d="M55.75 81.6494V81.6846L55.8555 84.2275L55.8672 84.333L55.8555 84.4502L55.5859 86.9229L55.832 89.4189L55.9023 90.1689L55.3516 90.6729L55.2578 90.7549L54.25 89.6533L54.1914 89.583L52.8438 89.7119L52.5859 87.0752L52.5742 86.9229L52.5859 86.7705L52.8555 84.2275L52.75 81.8135V81.6494H55.75Z" fill="black"/>
<path d="M50.5 81.6494V81.6846L50.6055 84.2275L50.6172 84.333L50.6055 84.4502L50.3359 86.9229L50.582 89.4189L50.6523 90.1689L50.1016 90.6729L50.0078 90.7549L49 89.6533L48.9414 89.583L47.5938 89.7119L47.3359 87.0752L47.3242 86.9229L47.3359 86.7705L47.6055 84.2275L47.5 81.8135V81.6494H50.5Z" fill="black"/>
<path d="M61 81.6494V81.6846L61.1055 84.2275L61.1172 84.333L61.1055 84.4502L60.8359 86.9229L61.082 89.4189L61.1523 90.1689L60.6016 90.6729L60.5078 90.7549L59.5 89.6533L59.4414 89.583L58.0938 89.7119L57.8359 87.0752L57.8242 86.9229L57.8359 86.7705L58.1055 84.2275L58 81.8135V81.6494H61Z" fill="black"/>
<path d="M71.5 81.6494V81.6846L71.6055 84.2275L71.6172 84.333L71.6055 84.4502L71.3359 86.9229L71.582 89.4189L71.6523 90.1689L71.1016 90.6729L71.0078 90.7549L70 89.6533L69.9414 89.583L68.5938 89.7119L68.3359 87.0752L68.3242 86.9229L68.3359 86.7705L68.6055 84.2275L68.5 81.8135V81.6494H71.5Z" fill="black"/>
<path d="M61.124 32.3604L61.5576 32.4072L61.8975 32.665L63.9248 34.2822L64.0771 34.3994L64.1943 34.5518L65.7295 36.6025L65.9873 36.9424L66.0342 37.3643L66.2568 39.9072L66.2686 40.0596L66.2568 40.2002L65.9756 42.8486L65.917 43.376L63.4326 45.8604L63.1162 45.9775L60.7139 46.8447L60.4326 46.9502L60.1396 46.9268L57.5615 46.8213L57.1162 46.7979L56.7529 46.54L54.292 44.7822L54.1279 44.4189L53.0498 42.0869L52.9326 41.8525L52.9092 41.5947L52.6631 39.04L52.6396 38.8057L52.6982 38.5596L53.2959 35.9697L53.4131 35.4893L53.7998 35.1729L55.8154 33.4619L56.0146 33.2979L56.2607 33.2041L58.6396 32.3369L59.0967 33.6143L59.1787 33.6494H59.2959L59.4482 32.1729L61.124 32.3604ZM57.5498 35.9111L56.1084 37.1299L55.6631 38.9932L55.8623 41.0439L56.6709 42.79L58.1475 43.833L59.9521 43.915L61.7803 43.2588L63.0342 42.0049L63.2451 40.0127L63.0811 38.0674L61.9092 36.5205L60.374 35.29L59.5186 35.1963L57.5498 35.9111Z" fill="black"/>
<path d="M111.312 114.289L112.355 114.547L111.652 117.453L110.891 117.266L108.547 117.629L108.453 117.652H108.359L105.723 117.723H105.582L103.051 117.301L100.672 117.734L100.438 117.781L100.203 117.746L97.6367 117.406H95.2344L92.5977 117.629L92.4922 117.641L92.3984 117.629L89.75 117.477V117.465L87.2773 117.348L84.7812 117.734L84.582 117.77L84.3945 117.746L81.8516 117.453L79.2969 117.477L79.2852 117.465L76.7773 117.711L76.6133 117.723L76.4492 117.699L73.918 117.383L71.3867 117.43H71.3281L68.6914 117.371H68.6445L66.1719 117.23L63.7109 117.699L63.4766 117.746L63.2305 117.711L60.7227 117.348L58.2383 117.488H58.0156L55.5898 117.242L53.1406 117.676L52.8828 117.723L52.6133 117.676L50.1172 117.242L47.6914 117.395H47.668L47.6445 117.406L42.3711 117.57H42.2539L42.1367 117.559L39.5938 117.254L37.1328 117.418L37.0508 117.43L36.957 117.418L34.5078 117.277L32 117.699L31.7891 117.734L31.5781 117.711L29.0234 117.395L26.5391 117.324L23.9492 117.512L23.8906 117.523H23.832L21.1953 117.512H21.0781L18.5 117.301L16.0508 117.395L16.0625 117.406L13.4258 117.664L13.2734 117.676L13.1211 117.664L10.625 117.395L8.16406 117.5H8V114.5H8.03516L10.5781 114.395L10.6836 114.383L10.8008 114.395L13.2852 114.664L15.7695 114.418H15.8633L18.5 114.312L18.5938 114.301L18.6758 114.312L21.3125 114.512L21.3008 114.523H23.7383L26.375 114.336L26.4453 114.324L26.5273 114.336L29.1641 114.406H29.2344L29.293 114.418L31.7305 114.699L34.1562 114.301L34.3203 114.277L34.4844 114.289L37.0156 114.43L39.582 114.254L39.7227 114.242L39.8633 114.266L42.3711 114.57L44.9141 114.488L47.5039 114.418V114.406L50.1523 114.242L50.3281 114.23L50.5039 114.266L52.8828 114.688L55.2617 114.266L55.4609 114.23L55.6602 114.242L58.1328 114.488L60.7227 114.348L60.8633 114.336L61.0156 114.359L63.418 114.711L65.8086 114.266L65.9844 114.23L66.1602 114.242L68.7969 114.371L68.7852 114.383L71.3633 114.43L73.9766 114.383H74.082L74.1875 114.395L76.6836 114.711L79.1445 114.477H79.2734L81.9102 114.453H82.0039L82.0859 114.465L84.5469 114.746L86.9727 114.371L87.125 114.348L87.2773 114.359L89.9141 114.488H89.9258L92.4453 114.641L95 114.43L95.0586 114.418H95.1055L97.7539 114.406H97.8594L97.9648 114.418L100.367 114.746L102.77 114.312L103.027 114.266L103.285 114.301L105.816 114.723L108.137 114.664L110.738 114.266L111.031 114.219L111.312 114.289Z" fill="black"/>
</svg>
