<svg width="120" height="120" viewBox="0 0 120 120" fill="none" xmlns="http://www.w3.org/2000/svg">
<path d="M8.1 116V117.5H8.13227L8.16451 117.499L8.1 116ZM10.64 115.891L10.797 114.399L10.6865 114.387L10.5755 114.392L10.64 115.891ZM13.28 116.169L13.123 117.66L13.2739 117.676L13.425 117.662L13.28 116.169ZM15.92 115.912L15.8596 114.413L15.8172 114.415L15.775 114.419L15.92 115.912ZM18.56 115.806L18.6763 114.31L18.588 114.303L18.4996 114.307L18.56 115.806ZM21.2 116.011L21.0837 117.507L21.1392 117.511L21.1948 117.511L21.2 116.011ZM23.84 116.02L23.8348 117.52L23.8912 117.52L23.9474 117.516L23.84 116.02ZM26.48 115.831L26.5223 114.331L26.4473 114.329L26.3726 114.334L26.48 115.831ZM29.12 115.905L29.2963 114.415L29.2295 114.408L29.1623 114.406L29.12 115.905ZM31.76 116.217L31.5837 117.707L31.7941 117.732L32.0032 117.698L31.76 116.217ZM34.4 115.784L34.4793 114.286L34.3171 114.277L34.1568 114.303L34.4 115.784ZM37.04 115.923L36.9607 117.421L37.0493 117.426L37.1379 117.42L37.04 115.923ZM39.68 115.751L39.8617 114.262L39.7223 114.245L39.5821 114.254L39.68 115.751ZM42.32 116.073L42.1383 117.562L42.2533 117.576L42.3692 117.572L42.32 116.073ZM44.96 115.986L44.9117 114.487L44.9108 114.487L44.96 115.986ZM47.6 115.901L47.6483 117.401L47.6707 117.4L47.693 117.398L47.6 115.901ZM50.24 115.737L50.5012 114.26L50.3253 114.229L50.147 114.24L50.24 115.737ZM52.88 116.204L52.6188 117.681L52.879 117.727L53.1393 117.682L52.88 116.204ZM55.52 115.741L55.6608 114.247L55.4596 114.228L55.2606 114.263L55.52 115.741ZM58.16 115.99L58.0192 117.483L58.1299 117.493L58.2409 117.487L58.16 115.99ZM60.8 115.847L61.0126 114.362L60.8665 114.341L60.7191 114.349L60.8 115.847ZM63.44 116.225L63.2274 117.71L63.4714 117.745L63.7137 117.7L63.44 116.225ZM66.08 115.735L66.1582 114.237L65.9809 114.228L65.8063 114.26L66.08 115.735ZM68.72 115.873L68.6418 117.371L68.6647 117.372L68.6878 117.373L68.72 115.873ZM71.36 115.93L71.3278 117.429L71.3564 117.43L71.3849 117.429L71.36 115.93ZM74 115.886L74.185 114.397L74.0804 114.384L73.975 114.386L74 115.886ZM76.64 116.214L76.455 117.702L76.6155 117.722L76.7765 117.708L76.64 116.214ZM79.28 115.973L79.2685 114.473L79.2059 114.473L79.1435 114.479L79.28 115.973ZM81.92 115.952L82.0888 114.462L81.9989 114.452L81.9085 114.452L81.92 115.952ZM84.56 116.251L84.3912 117.742L84.5876 117.764L84.783 117.735L84.56 116.251ZM87.2 115.854L87.2734 114.356L87.1245 114.349L86.977 114.371L87.2 115.854ZM89.84 115.984L89.9255 114.486L89.9134 114.486L89.84 115.984ZM92.48 116.135L92.3945 117.632L92.4978 117.638L92.6008 117.63L92.48 116.135ZM95.12 115.921L95.1099 114.421L95.0544 114.422L94.9992 114.426L95.12 115.921ZM97.76 115.903L97.9616 114.417L97.8562 114.403L97.7499 114.403L97.76 115.903ZM100.4 116.261L100.198 117.748L100.434 117.78L100.667 117.737L100.4 116.261ZM103.04 115.784L103.284 114.304L103.028 114.262L102.773 114.308L103.04 115.784ZM105.68 116.219L105.436 117.699L105.576 117.722L105.719 117.718L105.68 116.219ZM108.32 116.151L108.359 117.65L108.453 117.648L108.546 117.634L108.32 116.151ZM110.96 115.748L111.313 114.29L111.026 114.221L110.734 114.265L110.96 115.748ZM8 116V117.5H8.1V116V114.5H8V116ZM8.1 116L8.16451 117.499L10.7045 117.389L10.64 115.891L10.5755 114.392L8.03549 114.501L8.1 116ZM10.64 115.891L10.483 117.382L13.123 117.66L13.28 116.169L13.437 114.677L10.797 114.399L10.64 115.891ZM13.28 116.169L13.425 117.662L16.065 117.405L15.92 115.912L15.775 114.419L13.135 114.676L13.28 116.169ZM15.92 115.912L15.9804 117.411L18.6204 117.305L18.56 115.806L18.4996 114.307L15.8596 114.413L15.92 115.912ZM18.56 115.806L18.4437 117.301L21.0837 117.507L21.2 116.011L21.3163 114.516L18.6763 114.31L18.56 115.806ZM21.2 116.011L21.1948 117.511L23.8348 117.52L23.84 116.02L23.8452 114.52L21.2052 114.511L21.2 116.011ZM23.84 116.02L23.9474 117.516L26.5874 117.327L26.48 115.831L26.3726 114.334L23.7326 114.524L23.84 116.02ZM26.48 115.831L26.4377 117.33L29.0777 117.404L29.12 115.905L29.1623 114.406L26.5223 114.331L26.48 115.831ZM29.12 115.905L28.9437 117.395L31.5837 117.707L31.76 116.217L31.9363 114.728L29.2963 114.415L29.12 115.905ZM31.76 116.217L32.0032 117.698L34.6432 117.264L34.4 115.784L34.1568 114.303L31.5168 114.737L31.76 116.217ZM34.4 115.784L34.3207 117.282L36.9607 117.421L37.04 115.923L37.1193 114.426L34.4793 114.286L34.4 115.784ZM37.04 115.923L37.1379 117.42L39.7779 117.248L39.68 115.751L39.5821 114.254L36.9421 114.427L37.04 115.923ZM39.68 115.751L39.4983 117.24L42.1383 117.562L42.32 116.073L42.5017 114.584L39.8617 114.262L39.68 115.751ZM42.32 116.073L42.3692 117.572L45.0092 117.486L44.96 115.986L44.9108 114.487L42.2708 114.574L42.32 116.073ZM44.96 115.986L45.0083 117.486L47.6483 117.401L47.6 115.901L47.5517 114.402L44.9117 114.487L44.96 115.986ZM47.6 115.901L47.693 117.398L50.333 117.234L50.24 115.737L50.147 114.24L47.507 114.404L47.6 115.901ZM50.24 115.737L49.9788 117.214L52.6188 117.681L52.88 116.204L53.1412 114.727L50.5012 114.26L50.24 115.737ZM52.88 116.204L53.1393 117.682L55.7793 117.218L55.52 115.741L55.2606 114.263L52.6207 114.727L52.88 116.204ZM55.52 115.741L55.3792 117.234L58.0192 117.483L58.16 115.99L58.3008 114.496L55.6608 114.247L55.52 115.741ZM58.16 115.99L58.2409 117.487L60.8809 117.345L60.8 115.847L60.7191 114.349L58.0791 114.492L58.16 115.99ZM60.8 115.847L60.5874 117.332L63.2274 117.71L63.44 116.225L63.6526 114.74L61.0126 114.362L60.8 115.847ZM63.44 116.225L63.7137 117.7L66.3537 117.21L66.08 115.735L65.8063 114.26L63.1663 114.75L63.44 116.225ZM66.08 115.735L66.0018 117.233L68.6418 117.371L68.72 115.873L68.7982 114.375L66.1582 114.237L66.08 115.735ZM68.72 115.873L68.6878 117.373L71.3278 117.429L71.36 115.93L71.3922 114.43L68.7522 114.373L68.72 115.873ZM71.36 115.93L71.3849 117.429L74.0249 117.386L74 115.886L73.975 114.386L71.335 114.43L71.36 115.93ZM74 115.886L73.815 117.374L76.455 117.702L76.64 116.214L76.825 114.725L74.185 114.397L74 115.886ZM76.64 116.214L76.7765 117.708L79.4165 117.466L79.28 115.973L79.1435 114.479L76.5035 114.72L76.64 116.214ZM79.28 115.973L79.2915 117.473L81.9315 117.452L81.92 115.952L81.9085 114.452L79.2685 114.473L79.28 115.973ZM81.92 115.952L81.7512 117.443L84.3912 117.742L84.56 116.251L84.7288 114.761L82.0888 114.462L81.92 115.952ZM84.56 116.251L84.783 117.735L87.423 117.338L87.2 115.854L86.977 114.371L84.337 114.768L84.56 116.251ZM87.2 115.854L87.1266 117.353L89.7666 117.482L89.84 115.984L89.9134 114.486L87.2734 114.356L87.2 115.854ZM89.84 115.984L89.7545 117.481L92.3945 117.632L92.48 116.135L92.5655 114.637L89.9255 114.486L89.84 115.984ZM92.48 116.135L92.6008 117.63L95.2408 117.416L95.12 115.921L94.9992 114.426L92.3592 114.639L92.48 116.135ZM95.12 115.921L95.1301 117.421L97.7701 117.403L97.76 115.903L97.7499 114.403L95.1099 114.421L95.12 115.921ZM97.76 115.903L97.5584 117.39L100.198 117.748L100.4 116.261L100.602 114.775L97.9616 114.417L97.76 115.903ZM100.4 116.261L100.667 117.737L103.307 117.26L103.04 115.784L102.773 114.308L100.133 114.785L100.4 116.261ZM103.04 115.784L102.796 117.264L105.436 117.699L105.68 116.219L105.924 114.738L103.284 114.304L103.04 115.784ZM105.68 116.219L105.719 117.718L108.359 117.65L108.32 116.151L108.281 114.651L105.641 114.719L105.68 116.219ZM108.32 116.151L108.546 117.634L111.186 117.231L110.96 115.748L110.734 114.265L108.094 114.668L108.32 116.151ZM110.96 115.748L110.607 117.206L111.647 117.458L112 116L112.353 114.542L111.313 114.29L110.96 115.748Z" fill="black"/>
<path d="M65.67 45.2981L64.2081 44.9623L64.1944 45.022L64.1856 45.0825L65.67 45.2981ZM65.3042 47.8168L66.7302 48.2821L66.7701 48.1598L66.7886 48.0324L65.3042 47.8168ZM64.4812 50.3392L63.0552 49.8739L63.0129 50.0033L62.9947 50.1382L64.4812 50.3392ZM64.1257 52.9682L65.5925 53.2821L65.6045 53.226L65.6121 53.1692L64.1257 52.9682ZM63.5721 55.5548L64.9823 56.0661L65.0174 55.9694L65.0389 55.8687L63.5721 55.5548ZM62.6695 58.0445L61.2593 57.5332L61.2451 57.5722L61.2332 57.6119L62.6695 58.0445ZM61.9075 60.5747L60.4712 60.1422L60.459 60.1827L60.4491 60.2239L61.9075 60.5747ZM61.2879 63.15L62.6945 63.671L62.7255 63.5875L62.7463 63.5009L61.2879 63.15ZM60.37 65.6281L61.7114 66.2993L61.7481 66.226L61.7766 66.1491L60.37 65.6281ZM59.1812 68.0039L57.8397 67.3326L57.7521 67.5078L57.7124 67.6996L59.1812 68.0039ZM58.638 70.6254L59.9929 71.269L60.0703 71.1062L60.1068 70.9297L58.638 70.6254ZM57.5009 73.0191L56.146 72.3755L56.1174 72.4357L56.0943 72.4981L57.5009 73.0191ZM56.5811 75.5023L57.8321 76.33L57.9276 76.1856L57.9878 76.0233L56.5811 75.5023ZM55.1088 77.7276L53.8578 76.8998L53.8487 76.9136L53.8399 76.9276L55.1088 77.7276ZM53.708 79.9494L52.4391 79.1494L52.4275 79.1678L52.4165 79.1865L53.708 79.9494ZM52.4562 82.0684L51.1647 81.3055L50.9267 81.7085L50.9601 82.1754L52.4562 82.0684ZM52.6422 84.6681L54.1417 84.6327L54.1409 84.5969L54.1383 84.5611L52.6422 84.6681ZM52.7045 87.3151L51.2049 87.3505L51.2094 87.5423L51.2621 87.7269L52.7045 87.3151ZM53.4401 89.8921L54.7758 90.5746L55.0447 90.0485L54.8825 89.4803L53.4401 89.8921ZM52.2289 92.2623L53.2678 93.3443L53.4498 93.1695L53.5646 92.9449L52.2289 92.2623ZM50.4542 93.9662L50.2553 95.453L50.9717 95.5488L51.4931 95.0482L50.4542 93.9662ZM47.7978 93.6109L47.9967 92.1242L47.738 92.0896L47.4829 92.1444L47.7978 93.6109ZM45.2104 94.1667L44.8954 92.7001L43.9952 92.8935L43.7601 93.7837L45.2104 94.1667ZM44.6618 96.2445L43.2115 95.8616L43.1653 96.0365L43.162 96.2174L44.6618 96.2445ZM44.614 98.8843L45.2835 100.227L46.0972 99.8207L46.1137 98.9115L44.614 98.8843ZM65.6924 45.2007L64.2305 44.8648L64.2081 44.9623L65.67 45.2981L67.1319 45.634L67.1543 45.5365L65.6924 45.2007ZM65.67 45.2981L64.1856 45.0825L63.8198 47.6012L65.3042 47.8168L66.7886 48.0324L67.1545 45.5137L65.67 45.2981ZM65.3042 47.8168L63.8782 47.3515L63.0552 49.8739L64.4812 50.3392L65.9072 50.8045L66.7302 48.2821L65.3042 47.8168ZM64.4812 50.3392L62.9947 50.1382L62.6392 52.7672L64.1257 52.9682L65.6121 53.1692L65.9676 50.5402L64.4812 50.3392ZM64.1257 52.9682L62.6589 52.6543L62.1054 55.2409L63.5721 55.5548L65.0389 55.8687L65.5925 53.2821L64.1257 52.9682ZM63.5721 55.5548L62.162 55.0435L61.2593 57.5332L62.6695 58.0445L64.0796 58.5558L64.9823 56.0661L63.5721 55.5548ZM62.6695 58.0445L61.2332 57.6119L60.4712 60.1422L61.9075 60.5747L63.3438 61.0073L64.1057 58.477L62.6695 58.0445ZM61.9075 60.5747L60.4491 60.2239L59.8295 62.7991L61.2879 63.15L62.7463 63.5009L63.3659 60.9256L61.9075 60.5747ZM61.2879 63.15L59.8813 62.629L58.9634 65.1071L60.37 65.6281L61.7766 66.1491L62.6945 63.671L61.2879 63.15ZM60.37 65.6281L59.0285 64.9569L57.8397 67.3326L59.1812 68.0039L60.5226 68.6751L61.7114 66.2993L60.37 65.6281ZM59.1812 68.0039L57.7124 67.6996L57.1692 70.3211L58.638 70.6254L60.1068 70.9297L60.65 68.3082L59.1812 68.0039ZM58.638 70.6254L57.2831 69.9818L56.146 72.3755L57.5009 73.0191L58.8558 73.6628L59.9929 71.269L58.638 70.6254ZM57.5009 73.0191L56.0943 72.4981L55.1745 74.9813L56.5811 75.5023L57.9878 76.0233L58.9075 73.5401L57.5009 73.0191ZM56.5811 75.5023L55.3302 74.6746L53.8578 76.8998L55.1088 77.7276L56.3597 78.5553L57.8321 76.33L56.5811 75.5023ZM55.1088 77.7276L53.8399 76.9276L52.4391 79.1494L53.708 79.9494L54.9769 80.7494L56.3776 78.5275L55.1088 77.7276ZM53.708 79.9494L52.4165 79.1865L51.1647 81.3055L52.4562 82.0684L53.7477 82.8313L54.9995 80.7123L53.708 79.9494ZM52.4562 82.0684L50.9601 82.1754L51.146 84.7751L52.6422 84.6681L54.1383 84.5611L53.9524 81.9614L52.4562 82.0684ZM52.6422 84.6681L51.1426 84.7034L51.2049 87.3505L52.7045 87.3151L54.2041 87.2798L54.1417 84.6327L52.6422 84.6681ZM52.7045 87.3151L51.2621 87.7269L51.9977 90.3038L53.4401 89.8921L54.8825 89.4803L54.1469 86.9034L52.7045 87.3151ZM53.4401 89.8921L52.1044 89.2095L50.8932 91.5797L52.2289 92.2623L53.5646 92.9449L54.7758 90.5746L53.4401 89.8921ZM52.2289 92.2623L51.19 91.1803L49.4153 92.8842L50.4542 93.9662L51.4931 95.0482L53.2678 93.3443L52.2289 92.2623ZM50.4542 93.9662L50.653 92.4795L47.9967 92.1242L47.7978 93.6109L47.599 95.0977L50.2553 95.453L50.4542 93.9662ZM47.7978 93.6109L47.4829 92.1444L44.8954 92.7001L45.2104 94.1667L45.5254 95.6332L48.1128 95.0775L47.7978 93.6109ZM45.2104 94.1667L43.7601 93.7837L43.2115 95.8616L44.6618 96.2445L46.1121 96.6275L46.6607 94.5496L45.2104 94.1667ZM44.6618 96.2445L43.162 96.2174L43.1142 98.8571L44.614 98.8843L46.1137 98.9115L46.1616 96.2717L44.6618 96.2445ZM44.614 98.8843L43.9444 97.542L43.8741 97.5771L44.5437 98.9194L45.2132 100.262L45.2835 100.227L44.614 98.8843Z" fill="black"/>
<path d="M53.6424 22.0336L54.9137 21.2375L54.6325 20.7884L54.1315 20.6156L53.6424 22.0336ZM54.9874 24.1816L53.7161 24.9777L53.7613 25.0498L53.8143 25.1164L54.9874 24.1816ZM56.6443 26.2609L55.4712 27.1957L55.7317 27.5225L56.1236 27.6676L56.6443 26.2609ZM59.0946 27.1679L58.5739 28.5746L59.2454 28.8232L59.8609 28.4574L59.0946 27.1679ZM61.2144 25.9083L61.9807 27.1978L62.0713 27.144L62.1535 27.078L61.2144 25.9083ZM63.2836 24.247L64.2227 25.4167L64.2851 25.3666L64.3418 25.3101L63.2836 24.247ZM65.1559 22.3835L64.2704 21.1728L64.1784 21.24L64.0977 21.3204L65.1559 22.3835ZM67.1848 20.8996L68.1544 19.7551L67.253 18.9914L66.2993 19.6889L67.1848 20.8996ZM69.1201 22.5392L70.6036 22.7611L70.7272 21.9348L70.0897 21.3947L69.1201 22.5392ZM68.7271 25.1665L67.2436 24.9446L67.1981 25.2488L67.276 25.5464L68.7271 25.1665ZM69.4077 27.766L70.8765 28.07L70.9477 27.7259L70.8588 27.3861L69.4077 27.766ZM69.0207 29.6357L67.8259 30.5426L69.8209 33.1707L70.4896 29.9397L69.0207 29.6357ZM53.5479 22.001L53.0587 23.4189L53.1532 23.4516L53.6424 22.0336L54.1315 20.6156L54.037 20.583L53.5479 22.001ZM53.6424 22.0336L52.3711 22.8296L53.7161 24.9777L54.9874 24.1816L56.2588 23.3855L54.9137 21.2375L53.6424 22.0336ZM54.9874 24.1816L53.8143 25.1164L55.4712 27.1957L56.6443 26.2609L57.8174 25.3261L56.1606 23.2468L54.9874 24.1816ZM56.6443 26.2609L56.1236 27.6676L58.5739 28.5746L59.0946 27.1679L59.6153 25.7612L57.165 24.8542L56.6443 26.2609ZM59.0946 27.1679L59.8609 28.4574L61.9807 27.1978L61.2144 25.9083L60.4481 24.6188L58.3284 25.8784L59.0946 27.1679ZM61.2144 25.9083L62.1535 27.078L64.2227 25.4167L63.2836 24.247L62.3446 23.0773L60.2753 24.7386L61.2144 25.9083ZM63.2836 24.247L64.3418 25.3101L66.214 23.4467L65.1559 22.3835L64.0977 21.3204L62.2255 23.1839L63.2836 24.247ZM65.1559 22.3835L66.0413 23.5943L68.0703 22.1104L67.1848 20.8996L66.2993 19.6889L64.2704 21.1728L65.1559 22.3835ZM67.1848 20.8996L66.2152 22.0441L68.1505 23.6837L69.1201 22.5392L70.0897 21.3947L68.1544 19.7551L67.1848 20.8996ZM69.1201 22.5392L67.6366 22.3173L67.2436 24.9446L68.7271 25.1665L70.2106 25.3884L70.6036 22.7611L69.1201 22.5392ZM68.7271 25.1665L67.276 25.5464L67.9566 28.1459L69.4077 27.766L70.8588 27.3861L70.1782 24.7866L68.7271 25.1665ZM69.4077 27.766L67.9388 27.462L67.5518 29.3317L69.0207 29.6357L70.4896 29.9397L70.8765 28.07L69.4077 27.766ZM69.0207 29.6357L70.2155 28.7287L70.1692 28.6677L68.9744 29.5747L67.7796 30.4816L67.8259 30.5426L69.0207 29.6357Z" fill="black"/>
<path d="M77.6902 103.044L77.6906 104.544L78.0917 104.543L78.4393 104.343L77.6902 103.044ZM77.5902 103.044L77.5899 101.544L77.5169 101.544L77.4443 101.551L77.5902 103.044ZM75.0949 103.288L74.8574 104.769L75.0484 104.799L75.2408 104.78L75.0949 103.288ZM72.4831 102.869L72.7205 101.388L72.5293 101.357L72.3366 101.376L72.4831 102.869ZM69.8471 103.128L69.9098 104.626L69.9518 104.624L69.9936 104.62L69.8471 103.128ZM67.2097 103.238L67.0967 104.734L67.1844 104.74L67.2723 104.737L67.2097 103.238ZM64.5684 103.038L64.6813 101.543L64.6253 101.538L64.569 101.538L64.5684 103.038ZM61.9264 103.037L61.927 101.537L61.8698 101.537L61.8127 101.542L61.9264 103.037ZM59.2923 103.237L59.2578 104.737L59.332 104.739L59.406 104.733L59.2923 103.237ZM56.661 103.177L56.4952 104.668L56.5607 104.675L56.6265 104.677L56.661 103.177ZM54.0144 102.883L54.1801 101.392L53.968 101.368L53.7577 101.405L54.0144 102.883ZM51.3789 103.34L51.3182 104.839L51.478 104.846L51.6356 104.818L51.3789 103.34ZM48.7387 103.234L48.7994 101.735L48.7057 101.731L48.6121 101.739L48.7387 103.234ZM46.1076 103.456L45.908 104.943L46.0706 104.965L46.2342 104.951L46.1076 103.456ZM43.4976 103.106L42.9309 104.495L43.1082 104.567L43.298 104.593L43.4976 103.106ZM41.2268 102.179L39.8871 102.854L40.1398 103.356L40.6601 103.568L41.2268 102.179ZM40.0335 99.8097L39.3203 98.4901L38.0385 99.1829L38.6938 100.484L40.0335 99.8097ZM42.0231 98.7343L42.2393 97.25L41.7473 97.1783L41.3099 97.4147L42.0231 98.7343ZM44.6721 99.1201L44.4559 100.604L44.7085 100.641L44.9591 100.592L44.6721 99.1201ZM47.3026 98.6075L47.4248 97.1125L47.2187 97.0956L47.0157 97.1352L47.3026 98.6075ZM49.9424 98.8232L49.8202 100.318L49.9282 100.327L50.0363 100.32L49.9424 98.8232ZM52.58 98.6578L52.7835 97.1717L52.6354 97.1514L52.4861 97.1608L52.58 98.6578ZM55.2285 99.0204L55.025 100.507L55.2676 100.54L55.5082 100.494L55.2285 99.0204ZM57.8598 98.5209L57.9348 97.0228L57.7559 97.0139L57.58 97.0473L57.8598 98.5209ZM60.5146 98.6539L60.4396 100.152L60.4613 100.153L60.483 100.154L60.5146 98.6539ZM63.1516 98.7095L63.12 100.209L63.1483 100.21L63.1766 100.209L63.1516 98.7095ZM65.7927 98.6656L65.9775 97.177L65.873 97.164L65.7677 97.1658L65.7927 98.6656ZM68.4346 98.9936L68.2497 100.482L68.4101 100.502L68.571 100.487L68.4346 98.9936ZM71.0761 98.7524L71.0647 97.2524L71.002 97.2529L70.9397 97.2586L71.0761 98.7524ZM73.7173 98.7322L73.8859 97.2417L73.7962 97.2315L73.7059 97.2322L73.7173 98.7322ZM76.3601 99.0311L76.1915 100.522L76.3735 100.542L76.5551 100.518L76.3601 99.0311ZM79.0265 98.6814L80.4038 98.0872L79.9549 97.0469L78.8315 97.1942L79.0265 98.6814ZM79.8579 100.608L81.0651 101.499L81.5766 100.805L81.2352 100.014L79.8579 100.608ZM78.3363 102.671L79.0853 103.971L79.3572 103.814L79.5434 103.562L78.3363 102.671ZM77.6902 103.044L77.6899 101.544L77.5899 101.544L77.5902 103.044L77.5906 104.544L77.6906 104.544L77.6902 103.044ZM77.5902 103.044L77.4443 101.551L74.9489 101.795L75.0949 103.288L75.2408 104.78L77.7362 104.536L77.5902 103.044ZM75.0949 103.288L75.3323 101.806L72.7205 101.388L72.4831 102.869L72.2457 104.35L74.8574 104.769L75.0949 103.288ZM72.4831 102.869L72.3366 101.376L69.7006 101.635L69.8471 103.128L69.9936 104.62L72.6296 104.362L72.4831 102.869ZM69.8471 103.128L69.7844 101.629L67.147 101.739L67.2097 103.238L67.2723 104.737L69.9098 104.626L69.8471 103.128ZM67.2097 103.238L67.3226 101.742L64.6813 101.543L64.5684 103.038L64.4554 104.534L67.0967 104.734L67.2097 103.238ZM64.5684 103.038L64.569 101.538L61.927 101.537L61.9264 103.037L61.9258 104.537L64.5678 104.538L64.5684 103.038ZM61.9264 103.037L61.8127 101.542L59.1786 101.742L59.2923 103.237L59.406 104.733L62.0401 104.533L61.9264 103.037ZM59.2923 103.237L59.3268 101.738L56.6955 101.677L56.661 103.177L56.6265 104.677L59.2578 104.737L59.2923 103.237ZM56.661 103.177L56.8267 101.686L54.1801 101.392L54.0144 102.883L53.8487 104.374L56.4952 104.668L56.661 103.177ZM54.0144 102.883L53.7577 101.405L51.1222 101.863L51.3789 103.34L51.6356 104.818L54.271 104.361L54.0144 102.883ZM51.3789 103.34L51.4396 101.842L48.7994 101.735L48.7387 103.234L48.678 104.732L51.3182 104.839L51.3789 103.34ZM48.7387 103.234L48.6121 101.739L45.981 101.962L46.1076 103.456L46.2342 104.951L48.8653 104.728L48.7387 103.234ZM46.1076 103.456L46.3072 101.97L43.6972 101.619L43.4976 103.106L43.298 104.593L45.908 104.943L46.1076 103.456ZM43.4976 103.106L44.0643 101.717L41.7935 100.791L41.2268 102.179L40.6601 103.568L42.9309 104.495L43.4976 103.106ZM41.2268 102.179L42.5665 101.505L41.3732 99.135L40.0335 99.8097L38.6938 100.484L39.8871 102.854L41.2268 102.179ZM40.0335 99.8097L40.7467 101.129L42.7363 100.054L42.0231 98.7343L41.3099 97.4147L39.3203 98.4901L40.0335 99.8097ZM42.0231 98.7343L41.8069 100.219L44.4559 100.604L44.6721 99.1201L44.8883 97.6358L42.2393 97.25L42.0231 98.7343ZM44.6721 99.1201L44.9591 100.592L47.5895 100.08L47.3026 98.6075L47.0157 97.1352L44.3852 97.6478L44.6721 99.1201ZM47.3026 98.6075L47.1804 100.103L49.8202 100.318L49.9424 98.8232L50.0646 97.3282L47.4248 97.1125L47.3026 98.6075ZM49.9424 98.8232L50.0363 100.32L52.6739 100.155L52.58 98.6578L52.4861 97.1608L49.8485 97.3262L49.9424 98.8232ZM52.58 98.6578L52.3765 100.144L55.025 100.507L55.2285 99.0204L55.4319 97.5343L52.7835 97.1717L52.58 98.6578ZM55.2285 99.0204L55.5082 100.494L58.1395 99.9946L57.8598 98.5209L57.58 97.0473L54.9487 97.5468L55.2285 99.0204ZM57.8598 98.5209L57.7847 100.019L60.4396 100.152L60.5146 98.6539L60.5897 97.1558L57.9348 97.0228L57.8598 98.5209ZM60.5146 98.6539L60.483 100.154L63.12 100.209L63.1516 98.7095L63.1832 97.2098L60.5462 97.1542L60.5146 98.6539ZM63.1516 98.7095L63.1766 100.209L65.8176 100.165L65.7927 98.6656L65.7677 97.1658L63.1267 97.2097L63.1516 98.7095ZM65.7927 98.6656L65.6078 100.154L68.2497 100.482L68.4346 98.9936L68.6194 97.5051L65.9775 97.177L65.7927 98.6656ZM68.4346 98.9936L68.571 100.487L71.2126 100.246L71.0761 98.7524L70.9397 97.2586L68.2981 97.4999L68.4346 98.9936ZM71.0761 98.7524L71.0876 100.252L73.7288 100.232L73.7173 98.7322L73.7059 97.2322L71.0647 97.2524L71.0761 98.7524ZM73.7173 98.7322L73.5487 100.223L76.1915 100.522L76.3601 99.0311L76.5287 97.5406L73.8859 97.2417L73.7173 98.7322ZM76.3601 99.0311L76.5551 100.518L79.2216 100.169L79.0265 98.6814L78.8315 97.1942L76.1651 97.5438L76.3601 99.0311ZM79.0265 98.6814L77.6493 99.2757L78.4806 101.203L79.8579 100.608L81.2352 100.014L80.4038 98.0872L79.0265 98.6814ZM79.8579 100.608L78.6508 99.7179L77.1292 101.781L78.3363 102.671L79.5434 103.562L81.0651 101.499L79.8579 100.608ZM78.3363 102.671L77.5873 101.372L76.9412 101.744L77.6902 103.044L78.4393 104.343L79.0853 103.971L78.3363 102.671Z" fill="black"/>
<path d="M69.2006 29.6666L67.7056 29.7893L67.7264 30.0425L67.8294 30.2747L69.2006 29.6666ZM70.2241 31.9745L71.7205 32.0786L71.7463 31.707L71.5953 31.3664L70.2241 31.9745ZM70.0399 34.6216L68.5435 34.5174L68.5366 34.6164L68.5428 34.7154L70.0399 34.6216ZM70.2057 37.2675L71.7052 37.2308L71.7045 37.2022L71.7027 37.1737L70.2057 37.2675ZM70.2702 39.8998L68.7706 39.9366L68.7707 39.9398L70.2702 39.8998ZM70.3402 42.5283L68.8407 42.5683L68.8451 42.7315L68.8845 42.8901L70.3402 42.5283ZM70.9741 45.0791L72.4731 45.0242L72.4674 44.8685L72.4298 44.7173L70.9741 45.0791ZM71.0714 47.7366L72.4609 48.3017L72.5822 48.0035L72.5704 47.6817L71.0714 47.7366ZM70.0632 50.2155L71.0716 51.326L71.3241 51.0967L71.4527 50.7806L70.0632 50.2155ZM69.1924 29.5669L67.6974 29.6896L67.7056 29.7893L69.2006 29.6666L70.6955 29.5438L70.6874 29.4442L69.1924 29.5669ZM69.2006 29.6666L67.8294 30.2747L68.8529 32.5826L70.2241 31.9745L71.5953 31.3664L70.5718 29.0585L69.2006 29.6666ZM70.2241 31.9745L68.7277 31.8704L68.5435 34.5174L70.0399 34.6216L71.5363 34.7257L71.7205 32.0786L70.2241 31.9745ZM70.0399 34.6216L68.5428 34.7154L68.7086 37.3613L70.2057 37.2675L71.7027 37.1737L71.5369 34.5278L70.0399 34.6216ZM70.2057 37.2675L68.7061 37.3043L68.7706 39.9366L70.2702 39.8998L71.7697 39.8631L71.7052 37.2308L70.2057 37.2675ZM70.2702 39.8998L68.7707 39.9398L68.8407 42.5683L70.3402 42.5283L71.8397 42.4883L71.7696 39.8599L70.2702 39.8998ZM70.3402 42.5283L68.8845 42.8901L69.5184 45.4408L70.9741 45.0791L72.4298 44.7173L71.7959 42.1665L70.3402 42.5283ZM70.9741 45.0791L69.4751 45.1339L69.5724 47.7915L71.0714 47.7366L72.5704 47.6817L72.4731 45.0242L70.9741 45.0791ZM71.0714 47.7366L69.6819 47.1715L68.6737 49.6504L70.0632 50.2155L71.4527 50.7806L72.4609 48.3017L71.0714 47.7366ZM70.0632 50.2155L69.0548 49.105L68.5228 49.5881L69.5312 50.6986L70.5395 51.8091L71.0716 51.326L70.0632 50.2155Z" fill="black"/>
<path d="M66.1441 33.0229L64.7613 32.4417L64.7477 32.4738L64.7358 32.5066L66.1441 33.0229ZM65.2711 35.4044L66.587 36.1243L66.6408 36.0259L66.6794 35.9206L65.2711 35.4044ZM63.9974 37.7325L62.6815 37.0125L62.6095 37.1442L62.5649 37.2874L63.9974 37.7325ZM63.2095 40.2688L64.6132 40.7974L64.6288 40.756L64.6419 40.7138L63.2095 40.2688ZM62.2783 42.7412L63.6081 43.4352L63.6501 43.3548L63.682 43.2699L62.2783 42.7412ZM61.0523 45.0904L59.7225 44.3964L59.698 44.4433L59.6769 44.4919L61.0523 45.0904ZM59.9983 47.5127L58.6229 46.9142L58.6017 46.9629L58.584 47.013L59.9983 47.5127ZM59.116 50.0103L60.4701 50.6556L60.504 50.5844L60.5303 50.5099L59.116 50.0103ZM57.9786 52.3967L59.2641 53.1698L59.3015 53.1076L59.3327 53.0421L57.9786 52.3967ZM56.6077 54.6762L55.3223 53.9031L55.2172 54.0779L55.1626 54.2743L56.6077 54.6762ZM55.8908 57.2543L57.2044 57.9785L57.289 57.825L57.336 57.6562L55.8908 57.2543ZM54.6114 59.575L53.2978 58.8508L53.269 58.9031L53.2444 58.9575L54.6114 59.575ZM53.5169 61.9978L54.5479 63.0873L54.7624 62.8844L54.8839 62.6153L53.5169 61.9978ZM51.5928 63.8187L50.5618 62.7292L50.2668 63.0084L50.153 63.3982L51.5928 63.8187ZM50.8959 66.205L49.4561 65.7845L49.3709 66.076L49.4059 66.3776L50.8959 66.205ZM51.2002 68.8309L49.7101 69.0035L49.7139 69.0359L49.719 69.068L51.2002 68.8309ZM51.6183 71.4427L53.1143 71.5515L53.127 71.3777L53.0994 71.2056L51.6183 71.4427ZM51.4237 74.1176L49.9277 74.0088L49.9083 74.2757L49.9824 74.5329L51.4237 74.1176ZM52.1661 76.6941L53.665 76.6378L53.6582 76.4548L53.6075 76.2788L52.1661 76.6941ZM52.2651 79.3321L50.7662 79.3884L50.7787 79.7231L50.9325 80.0206L52.2651 79.3321ZM66.1828 32.9307L64.8 32.3495L64.7613 32.4417L66.1441 33.0229L67.527 33.604L67.5657 33.5118L66.1828 32.9307ZM66.1441 33.0229L64.7358 32.5066L63.8627 34.8881L65.2711 35.4044L66.6794 35.9206L67.5525 33.5391L66.1441 33.0229ZM65.2711 35.4044L63.9551 34.6844L62.6815 37.0125L63.9974 37.7325L65.3133 38.4524L66.587 36.1243L65.2711 35.4044ZM63.9974 37.7325L62.5649 37.2874L61.777 39.8237L63.2095 40.2688L64.6419 40.7138L65.4299 38.1775L63.9974 37.7325ZM63.2095 40.2688L61.8057 39.7401L60.8745 42.2126L62.2783 42.7412L63.682 43.2699L64.6132 40.7974L63.2095 40.2688ZM62.2783 42.7412L60.9485 42.0472L59.7225 44.3964L61.0523 45.0904L62.3821 45.7843L63.6081 43.4352L62.2783 42.7412ZM61.0523 45.0904L59.6769 44.4919L58.6229 46.9142L59.9983 47.5127L61.3738 48.1112L62.4278 45.6888L61.0523 45.0904ZM59.9983 47.5127L58.584 47.013L57.7016 49.5106L59.116 50.0103L60.5303 50.5099L61.4127 48.0124L59.9983 47.5127ZM59.116 50.0103L57.7619 49.365L56.6245 51.7514L57.9786 52.3967L59.3327 53.0421L60.4701 50.6556L59.116 50.0103ZM57.9786 52.3967L56.6932 51.6237L55.3223 53.9031L56.6077 54.6762L57.8932 55.4493L59.2641 53.1698L57.9786 52.3967ZM56.6077 54.6762L55.1626 54.2743L54.4456 56.8524L55.8908 57.2543L57.336 57.6562L58.0529 55.0781L56.6077 54.6762ZM55.8908 57.2543L54.5772 56.5301L53.2978 58.8508L54.6114 59.575L55.925 60.2992L57.2044 57.9785L55.8908 57.2543ZM54.6114 59.575L53.2444 58.9575L52.1499 61.3803L53.5169 61.9978L54.8839 62.6153L55.9784 60.1925L54.6114 59.575ZM53.5169 61.9978L52.4859 60.9083L50.5618 62.7292L51.5928 63.8187L52.6239 64.9082L54.5479 63.0873L53.5169 61.9978ZM51.5928 63.8187L50.153 63.3982L49.4561 65.7845L50.8959 66.205L52.3358 66.6255L53.0327 64.2392L51.5928 63.8187ZM50.8959 66.205L49.4059 66.3776L49.7101 69.0035L51.2002 68.8309L52.6902 68.6582L52.3859 66.0323L50.8959 66.205ZM51.2002 68.8309L49.719 69.068L50.1372 71.6798L51.6183 71.4427L53.0994 71.2056L52.6813 68.5938L51.2002 68.8309ZM51.6183 71.4427L50.1222 71.3339L49.9277 74.0088L51.4237 74.1176L52.9198 74.2264L53.1143 71.5515L51.6183 71.4427ZM51.4237 74.1176L49.9824 74.5329L50.7247 77.1094L52.1661 76.6941L53.6075 76.2788L52.8651 73.7023L51.4237 74.1176ZM52.1661 76.6941L50.6671 76.7503L50.7662 79.3884L52.2651 79.3321L53.7641 79.2758L53.665 76.6378L52.1661 76.6941ZM52.2651 79.3321L50.9325 80.0206L51.483 81.0861L52.8156 80.3976L54.1483 79.7091L53.5978 78.6436L52.2651 79.3321Z" fill="black"/>
<path d="M52.4704 45.2962L52.8918 46.7358L53.6649 46.5095L53.9032 45.7401L52.4704 45.2962ZM50.0012 46.0189L49.5798 44.5793L49.0405 44.7372L48.7376 45.2106L50.0012 46.0189ZM48.6556 48.1223L47.392 47.314L47.0818 47.7988L47.1756 48.3667L48.6556 48.1223ZM49.0902 50.7538L47.6102 50.9982L47.6117 51.007L49.0902 50.7538ZM49.5364 53.359L51.0348 53.2904L51.0306 53.1975L51.0149 53.1058L49.5364 53.359ZM49.6575 56.0046L48.1591 56.0732L48.1615 56.1265L48.1677 56.1794L49.6575 56.0046ZM49.9651 58.6267L48.4753 58.8014L48.4818 58.8573L48.4926 58.9125L49.9651 58.6267ZM50.4694 61.2248L48.9969 61.5107L49.0011 61.5322L49.0059 61.5536L50.4694 61.2248ZM51.0311 63.7247L49.5676 64.0536L49.5805 64.111L49.5979 64.1673L51.0311 63.7247ZM52.5 45.2007L51.0672 44.7568L51.0376 44.8523L52.4704 45.2962L53.9032 45.7401L53.9328 45.6446L52.5 45.2007ZM52.4704 45.2962L52.049 43.8566L49.5798 44.5793L50.0012 46.0189L50.4225 47.4585L52.8918 46.7358L52.4704 45.2962ZM50.0012 46.0189L48.7376 45.2106L47.392 47.314L48.6556 48.1223L49.9191 48.9307L51.2647 46.8273L50.0012 46.0189ZM48.6556 48.1223L47.1756 48.3667L47.6102 50.9982L49.0902 50.7538L50.5701 50.5093L50.1355 47.8779L48.6556 48.1223ZM49.0902 50.7538L47.6117 51.007L48.0579 53.6122L49.5364 53.359L51.0149 53.1058L50.5686 50.5005L49.0902 50.7538ZM49.5364 53.359L48.038 53.4276L48.1591 56.0732L49.6575 56.0046L51.1559 55.936L51.0348 53.2904L49.5364 53.359ZM49.6575 56.0046L48.1677 56.1794L48.4753 58.8014L49.9651 58.6267L51.4549 58.4519L51.1473 55.8299L49.6575 56.0046ZM49.9651 58.6267L48.4926 58.9125L48.9969 61.5107L50.4694 61.2248L51.942 60.939L51.4376 58.3408L49.9651 58.6267ZM50.4694 61.2248L49.0059 61.5536L49.5676 64.0536L51.0311 63.7247L52.4946 63.3959L51.933 60.896L50.4694 61.2248ZM51.0311 63.7247L49.5979 64.1673L49.6936 64.4771L51.1268 64.0346L52.56 63.592L52.4644 63.2822L51.0311 63.7247Z" fill="black"/>
<path d="M68.5827 67.7202L70.0816 67.7791L70.0854 67.6826L70.0767 67.5863L68.5827 67.7202ZM68.4831 70.2524L66.9843 70.1934L66.9713 70.5243L67.0988 70.8299L68.4831 70.2524ZM69.3516 72.3341L70.8387 72.1384L70.8127 71.9407L70.7359 71.7566L69.3516 72.3341ZM69.6914 74.9167L71.19 74.8518L71.1871 74.7862L71.1786 74.721L69.6914 74.9167ZM69.8058 77.5595L71.2992 77.6995L71.3088 77.5972L71.3044 77.4946L69.8058 77.5595ZM69.5585 80.1974L68.0651 80.0574L68.0606 80.105L68.0592 80.1528L69.5585 80.1974ZM69.4801 82.8361L67.9808 82.7916L67.9792 82.8466L67.9816 82.9016L69.4801 82.8361ZM69.5956 85.4801L71.0938 85.5542L71.0973 85.4844L71.0942 85.4146L69.5956 85.4801ZM69.4651 88.1165L70.9542 88.2975L70.9607 88.2443L70.9633 88.1907L69.4651 88.1165ZM69.1429 90.7673L67.6538 90.5863L67.5996 91.0322L67.7994 91.4345L69.1429 90.7673ZM70.3676 93.2336L71.2758 94.4274L72.2624 93.6768L71.7111 92.5664L70.3676 93.2336ZM68.5738 67.6206L67.0798 67.7545L67.0887 67.8541L68.5827 67.7202L70.0767 67.5863L70.0678 67.4867L68.5738 67.6206ZM68.5827 67.7202L67.0839 67.6613L66.9843 70.1934L68.4831 70.2524L69.982 70.3113L70.0816 67.7791L68.5827 67.7202ZM68.4831 70.2524L67.0988 70.8299L67.9672 72.9116L69.3516 72.3341L70.7359 71.7566L69.8675 69.6749L68.4831 70.2524ZM69.3516 72.3341L67.8644 72.5298L68.2042 75.1124L69.6914 74.9167L71.1786 74.721L70.8387 72.1384L69.3516 72.3341ZM69.6914 74.9167L68.1928 74.9816L68.3072 77.6244L69.8058 77.5595L71.3044 77.4946L71.19 74.8518L69.6914 74.9167ZM69.8058 77.5595L68.3123 77.4195L68.0651 80.0574L69.5585 80.1974L71.052 80.3374L71.2992 77.6995L69.8058 77.5595ZM69.5585 80.1974L68.0592 80.1528L67.9808 82.7916L69.4801 82.8361L70.9795 82.8807L71.0579 80.2419L69.5585 80.1974ZM69.4801 82.8361L67.9816 82.9016L68.0971 85.5456L69.5956 85.4801L71.0942 85.4146L70.9787 82.7707L69.4801 82.8361ZM69.5956 85.4801L68.0975 85.4059L67.967 88.0423L69.4651 88.1165L70.9633 88.1907L71.0938 85.5542L69.5956 85.4801ZM69.4651 88.1165L67.9761 87.9355L67.6538 90.5863L69.1429 90.7673L70.6319 90.9483L70.9542 88.2975L69.4651 88.1165ZM69.1429 90.7673L67.7994 91.4345L69.0241 93.9007L70.3676 93.2336L71.7111 92.5664L70.4863 90.1002L69.1429 90.7673ZM70.3676 93.2336L69.4594 92.0398L69.2413 92.2056L70.1495 93.3994L71.0578 94.5932L71.2758 94.4274L70.3676 93.2336Z" fill="black"/>
<path d="M75.2461 103.476H73.7461V103.508L73.7475 103.54L75.2461 103.476ZM75.3554 106.016L76.8472 106.173L76.8588 106.062L76.854 105.951L75.3554 106.016ZM75.0775 108.656L73.5858 108.499L73.5699 108.65L73.5845 108.801L75.0775 108.656ZM75.3339 111.296L76.8327 111.236L76.831 111.193L76.8269 111.151L75.3339 111.296ZM75.4403 113.936L76.9329 114.084L76.9433 113.98L76.9391 113.876L75.4403 113.936ZM75.235 116L73.7424 115.852L73.5785 117.5H75.235V116ZM75.2461 103.376H73.7461V103.476H75.2461H76.7461V103.376H75.2461ZM75.2461 103.476L73.7475 103.54L73.8568 106.08L75.3554 106.016L76.854 105.951L76.7447 103.411L75.2461 103.476ZM75.3554 106.016L73.8637 105.859L73.5858 108.499L75.0775 108.656L76.5693 108.813L76.8472 106.173L75.3554 106.016ZM75.0775 108.656L73.5845 108.801L73.8409 111.441L75.3339 111.296L76.8269 111.151L76.5705 108.511L75.0775 108.656ZM75.3339 111.296L73.8351 111.356L73.9415 113.996L75.4403 113.936L76.9391 113.876L76.8327 111.236L75.3339 111.296ZM75.4403 113.936L73.9477 113.788L73.7424 115.852L75.235 116L76.7277 116.149L76.9329 114.084L75.4403 113.936ZM75.235 116V117.5H75.2461V116V114.5H75.235V116Z" fill="black"/>
<path d="M44.7373 103.476H43.2373V103.508L43.2387 103.54L44.7373 103.476ZM44.8466 106.016L46.3384 106.173L46.35 106.062L46.3452 105.951L44.8466 106.016ZM44.5687 108.656L43.077 108.499L43.0611 108.65L43.0758 108.801L44.5687 108.656ZM44.8251 111.296L46.3239 111.236L46.3222 111.193L46.3181 111.151L44.8251 111.296ZM44.9315 113.936L46.4242 114.084L46.4345 113.98L46.4303 113.876L44.9315 113.936ZM44.7262 116L43.2336 115.852L43.0697 117.5H44.7262V116ZM44.7373 103.376H43.2373V103.476H44.7373H46.2373V103.376H44.7373ZM44.7373 103.476L43.2387 103.54L43.348 106.08L44.8466 106.016L46.3452 105.951L46.2359 103.411L44.7373 103.476ZM44.8466 106.016L43.3549 105.859L43.077 108.499L44.5687 108.656L46.0605 108.813L46.3384 106.173L44.8466 106.016ZM44.5687 108.656L43.0758 108.801L43.3321 111.441L44.8251 111.296L46.3181 111.151L46.0617 108.511L44.5687 108.656ZM44.8251 111.296L43.3263 111.356L43.4327 113.996L44.9315 113.936L46.4303 113.876L46.3239 111.236L44.8251 111.296ZM44.9315 113.936L43.4389 113.788L43.2336 115.852L44.7262 116L46.2189 116.149L46.4242 114.084L44.9315 113.936ZM44.7262 116V117.5H44.7373V116V114.5H44.7262V116Z" fill="black"/>
<path d="M64.3925 10.3875L62.986 9.86624L62.6391 10.8023L63.3686 11.4837L64.3925 10.3875ZM65.2237 8.1449L66.6302 8.66617L66.8435 8.0905L66.592 7.53044L65.2237 8.1449ZM64.1439 5.74021L65.5122 5.12576L65.3053 4.66483L64.8616 4.42307L64.1439 5.74021ZM61.82 4.47389L62.5377 3.15675L62.2741 3.01309L61.9754 2.98197L61.82 4.47389ZM59.2717 4.20837L59.4271 2.71645L59.2024 2.69304L58.9808 2.73684L59.2717 4.20837ZM56.7284 4.71103L56.4375 3.2395L56.0634 3.31344L55.77 3.55711L56.7284 4.71103ZM54.7085 6.3886L53.7502 5.23469L53.4035 5.52259L53.2729 5.95387L54.7085 6.3886ZM53.984 8.78123L52.5484 8.34649L52.3826 8.89394L52.6234 9.41278L53.984 8.78123ZM55.0681 11.1168L56.5649 11.2143L56.5898 10.8324L56.4287 10.4852L55.0681 11.1168ZM54.8938 13.7906L53.397 13.693L53.3723 14.0717L53.5307 14.4166L54.8938 13.7906ZM56.0053 16.2108L57.4074 15.6778L57.3895 15.6306L57.3684 15.5848L56.0053 16.2108ZM56.9488 18.6928L58.3526 19.2213L58.5525 18.6902L58.3509 18.1598L56.9488 18.6928ZM56.0011 21.2098L56.3124 22.6772L57.1156 22.5068L57.405 21.7383L56.0011 21.2098ZM53.3666 21.7686L53.0553 20.3013L52.9753 20.3182L52.8976 20.3438L53.3666 21.7686ZM50.8588 22.594L50.3898 21.1691L50.1959 21.233L50.0261 21.3463L50.8588 22.594ZM48.6827 24.0463L47.85 22.7986L47.6602 22.9253L47.5167 23.1027L48.6827 24.0463ZM47.0503 26.0636L48.1686 27.0634L48.1932 27.0359L48.2164 27.0072L47.0503 26.0636ZM45.2754 28.0488L44.1572 27.0491L43.9855 27.2411L43.8877 27.4793L45.2754 28.0488ZM44.2591 30.5252L45.4294 31.4636L45.5647 31.2948L45.6468 31.0947L44.2591 30.5252ZM42.5982 32.5967L43.6761 33.6398L43.7247 33.5896L43.7685 33.535L42.5982 32.5967ZM40.8675 34.3851L40.8354 35.8847L41.49 35.8988L41.9454 35.4282L40.8675 34.3851ZM38.2155 34.3282L38.2476 32.8285L38.1852 32.8272L38.1229 32.831L38.2155 34.3282ZM35.5363 34.4938L34.9085 35.8561L35.2517 36.0143L35.6289 35.991L35.5363 34.4938ZM33.0922 33.3675L32.3689 34.6816L32.4158 34.7074L32.4644 34.7298L33.0922 33.3675ZM30.8392 32.1273L31.5626 30.8132L31.1439 30.5828L30.6692 30.6369L30.8392 32.1273ZM28.2444 32.4233L27.925 33.8889L28.1677 33.9418L28.4145 33.9137L28.2444 32.4233ZM26.5103 32.0453L26.8298 30.5798L24.7767 30.1322L25.0205 32.2194L26.5103 32.0453ZM64.4656 10.4558L65.4895 9.35958L65.4164 9.29132L64.3925 10.3875L63.3686 11.4837L63.4417 11.552L64.4656 10.4558ZM64.3925 10.3875L65.799 10.9088L66.6302 8.66617L65.2237 8.1449L63.8172 7.62363L62.986 9.86624L64.3925 10.3875ZM65.2237 8.1449L66.592 7.53044L65.5122 5.12576L64.1439 5.74021L62.7755 6.35467L63.8553 8.75936L65.2237 8.1449ZM64.1439 5.74021L64.8616 4.42307L62.5377 3.15675L61.82 4.47389L61.1022 5.79104L63.4261 7.05735L64.1439 5.74021ZM61.82 4.47389L61.9754 2.98197L59.4271 2.71645L59.2717 4.20837L59.1162 5.7003L61.6645 5.96582L61.82 4.47389ZM59.2717 4.20837L58.9808 2.73684L56.4375 3.2395L56.7284 4.71103L57.0192 6.18256L59.5625 5.67991L59.2717 4.20837ZM56.7284 4.71103L55.77 3.55711L53.7502 5.23469L54.7085 6.3886L55.6669 7.54252L57.6868 5.86495L56.7284 4.71103ZM54.7085 6.3886L53.2729 5.95387L52.5484 8.34649L53.984 8.78123L55.4196 9.21597L56.1441 6.82334L54.7085 6.3886ZM53.984 8.78123L52.6234 9.41278L53.7075 11.7483L55.0681 11.1168L56.4287 10.4852L55.3446 8.14967L53.984 8.78123ZM55.0681 11.1168L53.5713 11.0192L53.397 13.693L54.8938 13.7906L56.3906 13.8881L56.5649 11.2143L55.0681 11.1168ZM54.8938 13.7906L53.5307 14.4166L54.6421 16.8368L56.0053 16.2108L57.3684 15.5848L56.2569 13.1646L54.8938 13.7906ZM56.0053 16.2108L54.6032 16.7438L55.5466 19.2258L56.9488 18.6928L58.3509 18.1598L57.4074 15.6778L56.0053 16.2108ZM56.9488 18.6928L55.5449 18.1643L54.5973 20.6813L56.0011 21.2098L57.405 21.7383L58.3526 19.2213L56.9488 18.6928ZM56.0011 21.2098L55.6899 19.7425L53.0553 20.3013L53.3666 21.7686L53.6778 23.236L56.3124 22.6772L56.0011 21.2098ZM53.3666 21.7686L52.8976 20.3438L50.3898 21.1691L50.8588 22.594L51.3277 24.0188L53.8355 23.1934L53.3666 21.7686ZM50.8588 22.594L50.0261 21.3463L47.85 22.7986L48.6827 24.0463L49.5154 25.2939L51.6915 23.8416L50.8588 22.594ZM48.6827 24.0463L47.5167 23.1027L45.8843 25.1201L47.0503 26.0636L48.2164 27.0072L49.8488 24.9898L48.6827 24.0463ZM47.0503 26.0636L45.9321 25.0638L44.1572 27.0491L45.2754 28.0488L46.3937 29.0486L48.1686 27.0634L47.0503 26.0636ZM45.2754 28.0488L43.8877 27.4793L42.8714 29.9557L44.2591 30.5252L45.6468 31.0947L46.6631 28.6183L45.2754 28.0488ZM44.2591 30.5252L43.0889 29.5869L41.4279 31.6583L42.5982 32.5967L43.7685 33.535L45.4294 31.4636L44.2591 30.5252ZM42.5982 32.5967L41.5203 31.5535L39.7896 33.3419L40.8675 34.3851L41.9454 35.4282L43.6761 33.6398L42.5982 32.5967ZM40.8675 34.3851L40.8997 32.8854L38.2476 32.8285L38.2155 34.3282L38.1833 35.8278L40.8354 35.8847L40.8675 34.3851ZM38.2155 34.3282L38.1229 32.831L35.4437 32.9967L35.5363 34.4938L35.6289 35.991L38.3081 35.8253L38.2155 34.3282ZM35.5363 34.4938L36.1641 33.1316L33.72 32.0052L33.0922 33.3675L32.4644 34.7298L34.9085 35.8561L35.5363 34.4938ZM33.0922 33.3675L33.8156 32.0534L31.5626 30.8132L30.8392 32.1273L30.1159 33.4413L32.3689 34.6816L33.0922 33.3675ZM30.8392 32.1273L30.6692 30.6369L28.0744 30.933L28.2444 32.4233L28.4145 33.9137L31.0093 33.6176L30.8392 32.1273ZM28.2444 32.4233L28.5639 30.9577L26.8298 30.5798L26.5103 32.0453L26.1909 33.5109L27.925 33.8889L28.2444 32.4233ZM26.5103 32.0453L25.0205 32.2194L25.0453 32.4318L26.5352 32.2578L28.025 32.0838L28.0002 31.8713L26.5103 32.0453Z" fill="black"/>
<path d="M70.7565 43.3191L69.7628 42.1954L69.5405 42.3921L69.4098 42.6586L70.7565 43.3191ZM72.4401 41.8301L73.4338 42.9538L73.9034 42.5385L73.9379 41.9126L72.4401 41.8301ZM72.5836 39.2223L71.4017 38.2987L71.1118 38.6697L71.0859 39.1399L72.5836 39.2223ZM74.0847 37.3013L72.9603 36.3084L72.9305 36.3422L72.9027 36.3777L74.0847 37.3013ZM75.3143 35.9088L76.4387 36.9017L76.9463 36.3269L76.7776 35.5789L75.3143 35.9088ZM74.7369 33.3478L76.2001 33.0179L76.1944 32.9927L76.1879 32.9678L74.7369 33.3478ZM74.0675 30.7923L75.5186 30.4122L75.5157 30.4012L75.5126 30.3901L74.0675 30.7923ZM73.3575 28.2408L71.873 28.4558L71.8867 28.5506L71.9124 28.6429L73.3575 28.2408ZM72.9803 25.6361L74.4649 25.4211L74.4441 25.2777L74.3962 25.1409L72.9803 25.6361ZM72.1029 23.1273L73.5188 22.6321L73.2621 21.8984L72.5147 21.685L72.1029 23.1273ZM69.7634 22.4593L70.1753 21.017L70.0509 20.9815L69.9223 20.9678L69.7634 22.4593ZM70.7125 43.4089L72.0592 44.0694L72.1032 43.9796L70.7565 43.3191L69.4098 42.6586L69.3657 42.7484L70.7125 43.4089ZM70.7565 43.3191L71.7502 44.4427L73.4338 42.9538L72.4401 41.8301L71.4465 40.7065L69.7628 42.1954L70.7565 43.3191ZM72.4401 41.8301L73.9379 41.9126L74.0814 39.3047L72.5836 39.2223L71.0859 39.1399L70.9424 41.7477L72.4401 41.8301ZM72.5836 39.2223L73.7656 40.1459L75.2666 38.2249L74.0847 37.3013L72.9027 36.3777L71.4017 38.2987L72.5836 39.2223ZM74.0847 37.3013L75.2091 38.2942L76.4387 36.9017L75.3143 35.9088L74.1899 34.9159L72.9603 36.3084L74.0847 37.3013ZM75.3143 35.9088L76.7776 35.5789L76.2001 33.0179L74.7369 33.3478L73.2736 33.6778L73.8511 36.2387L75.3143 35.9088ZM74.7369 33.3478L76.1879 32.9678L75.5186 30.4122L74.0675 30.7923L72.6165 31.1723L73.2858 33.7279L74.7369 33.3478ZM74.0675 30.7923L75.5126 30.3901L74.8026 27.8387L73.3575 28.2408L71.9124 28.6429L72.6224 31.1944L74.0675 30.7923ZM73.3575 28.2408L74.842 28.0258L74.4649 25.4211L72.9803 25.6361L71.4958 25.8511L71.873 28.4558L73.3575 28.2408ZM72.9803 25.6361L74.3962 25.1409L73.5188 22.6321L72.1029 23.1273L70.687 23.6225L71.5645 26.1313L72.9803 25.6361ZM72.1029 23.1273L72.5147 21.685L70.1753 21.017L69.7634 22.4593L69.3516 23.9017L71.691 24.5697L72.1029 23.1273ZM69.7634 22.4593L69.9223 20.9678L69.2956 20.901L69.1367 22.3926L68.9779 23.8842L69.6046 23.9509L69.7634 22.4593Z" fill="black"/>
<path d="M29.7046 34.3724L29.9404 35.8537L31.4786 35.6089L31.176 34.081L29.7046 34.3724ZM27.1097 34.7854L26.8739 33.3041L26.7194 33.3287L26.5732 33.3846L27.1097 34.7854ZM24.6157 35.7405L24.0793 34.3397L21.9204 35.1665L23.555 36.8011L24.6157 35.7405ZM26.2693 37.3942L25.2086 38.4548L25.6439 38.8901L26.2594 38.8942L26.2693 37.3942ZM28.872 37.4113L28.8621 38.9113L28.9103 38.9116L28.9584 38.9088L28.872 37.4113ZM31.4998 37.2596L31.6569 35.7679L31.5353 35.7551L31.4133 35.7621L31.4998 37.2596ZM33.9834 37.5212L34.3596 36.0692L34.2515 36.0412L34.1405 36.0295L33.9834 37.5212ZM36.5457 38.1851L37.0541 36.7739L36.989 36.7504L36.922 36.7331L36.5457 38.1851ZM39.0308 39.0804L39.6411 37.7102L39.5909 37.6878L39.5392 37.6692L39.0308 39.0804ZM41.4637 40.1641L40.8533 41.5343L41.21 41.6932L41.5988 41.658L41.4637 40.1641ZM44.042 39.9309L44.1771 41.4248L44.5256 41.3932L44.8241 41.2108L44.042 39.9309ZM46.1941 38.6158L46.9762 39.8957L47.4118 39.6295L47.5946 39.1528L46.1941 38.6158ZM46.8867 36.8095L47.1507 35.3329L45.9301 35.1147L45.4861 36.2724L46.8867 36.8095ZM29.6852 34.2743L28.2138 34.5656L28.2332 34.6637L29.7046 34.3724L31.176 34.081L31.1566 33.9829L29.6852 34.2743ZM29.7046 34.3724L29.4688 32.891L26.8739 33.3041L27.1097 34.7854L27.3455 36.2668L29.9404 35.8537L29.7046 34.3724ZM27.1097 34.7854L26.5732 33.3846L24.0793 34.3397L24.6157 35.7405L25.1522 37.1413L27.6461 36.1862L27.1097 34.7854ZM24.6157 35.7405L23.555 36.8011L25.2086 38.4548L26.2693 37.3942L27.33 36.3336L25.6764 34.6799L24.6157 35.7405ZM26.2693 37.3942L26.2594 38.8942L28.8621 38.9113L28.872 37.4113L28.8819 35.9113L26.2792 35.8942L26.2693 37.3942ZM28.872 37.4113L28.9584 38.9088L31.5862 38.7572L31.4998 37.2596L31.4133 35.7621L28.7856 35.9138L28.872 37.4113ZM31.4998 37.2596L31.3426 38.7514L33.8262 39.013L33.9834 37.5212L34.1405 36.0295L31.6569 35.7679L31.4998 37.2596ZM33.9834 37.5212L33.6071 38.9733L36.1695 39.6372L36.5457 38.1851L36.922 36.7331L34.3596 36.0692L33.9834 37.5212ZM36.5457 38.1851L36.0373 39.5963L38.5224 40.4916L39.0308 39.0804L39.5392 37.6692L37.0541 36.7739L36.5457 38.1851ZM39.0308 39.0804L38.4205 40.4506L40.8533 41.5343L41.4637 40.1641L42.074 38.7939L39.6411 37.7102L39.0308 39.0804ZM41.4637 40.1641L41.5988 41.658L44.1771 41.4248L44.042 39.9309L43.9068 38.437L41.3285 38.6702L41.4637 40.1641ZM44.042 39.9309L44.8241 41.2108L46.9762 39.8957L46.1941 38.6158L45.4119 37.3358L43.2598 38.6509L44.042 39.9309ZM46.1941 38.6158L47.5946 39.1528L48.2873 37.3466L46.8867 36.8095L45.4861 36.2724L44.7935 38.0787L46.1941 38.6158ZM46.8867 36.8095L46.6227 38.2861L46.868 38.33L47.1321 36.8534L47.3961 35.3768L47.1507 35.3329L46.8867 36.8095Z" fill="black"/>
<path d="M68.4897 71.5833L69.7593 72.3821L69.8704 72.2056L69.9291 72.0055L68.4897 71.5833ZM67.1611 73.6949L68.3793 74.57L68.4062 74.5327L68.4307 74.4937L67.1611 73.6949ZM65.6141 75.8485L64.3958 74.9733L64.282 75.1318L64.2125 75.3142L65.6141 75.8485ZM64.6709 78.3226L63.2693 77.7883L63.088 78.2639L63.2336 78.7515L64.6709 78.3226ZM65.3848 80.7149L66.8847 80.6989L66.8825 80.488L66.8222 80.2859L65.3848 80.7149ZM65.4132 83.3802L66.9116 83.4509L66.9136 83.4075L66.9131 83.3641L65.4132 83.3802ZM65.2888 86.016L63.7905 85.9453L63.7899 85.9565L63.7896 85.9677L65.2888 86.016ZM65.2036 88.6634L66.689 88.8718L66.7002 88.7921L66.7028 88.7117L65.2036 88.6634ZM64.8386 91.2647L63.3531 91.0563L63.3197 91.2942L63.3624 91.5307L64.8386 91.2647ZM65.2042 93.2937L63.728 93.5597L63.9573 94.8323L65.2498 94.793L65.2042 93.2937ZM68.5179 71.4873L67.0785 71.0651L67.0504 71.1611L68.4897 71.5833L69.9291 72.0055L69.9572 71.9095L68.5179 71.4873ZM68.4897 71.5833L67.2201 70.7844L65.8915 72.8961L67.1611 73.6949L68.4307 74.4937L69.7593 72.3821L68.4897 71.5833ZM67.1611 73.6949L65.9428 72.8198L64.3958 74.9733L65.6141 75.8485L66.8324 76.7236L68.3793 74.57L67.1611 73.6949ZM65.6141 75.8485L64.2125 75.3142L63.2693 77.7883L64.6709 78.3226L66.0726 78.8569L67.0157 76.3828L65.6141 75.8485ZM64.6709 78.3226L63.2336 78.7515L63.9474 81.1438L65.3848 80.7149L66.8222 80.2859L66.1083 77.8937L64.6709 78.3226ZM65.3848 80.7149L63.8849 80.7309L63.9133 83.3962L65.4132 83.3802L66.9131 83.3641L66.8847 80.6989L65.3848 80.7149ZM65.4132 83.3802L63.9149 83.3094L63.7905 85.9453L65.2888 86.016L66.7871 86.0867L66.9116 83.4509L65.4132 83.3802ZM65.2888 86.016L63.7896 85.9677L63.7043 88.6151L65.2036 88.6634L66.7028 88.7117L66.788 86.0643L65.2888 86.016ZM65.2036 88.6634L63.7181 88.455L63.3531 91.0563L64.8386 91.2647L66.324 91.4731L66.689 88.8718L65.2036 88.6634ZM64.8386 91.2647L63.3624 91.5307L63.728 93.5597L65.2042 93.2937L66.6804 93.0276L66.3148 90.9987L64.8386 91.2647ZM65.2042 93.2937L65.2498 94.793L65.4671 94.7864L65.4215 93.2871L65.3759 91.7878L65.1586 91.7944L65.2042 93.2937Z" fill="black"/>
<path d="M72.1745 58.2489L73.578 58.7783L73.673 58.5264L73.6744 58.2571L72.1745 58.2489ZM71.3094 60.5425L69.9059 60.0131L69.8045 60.282L69.8097 60.5693L71.3094 60.5425ZM71.3567 63.1873L69.8569 63.2141L69.8613 63.4584L69.9429 63.6886L71.3567 63.1873ZM72.2452 65.693L73.7278 65.4652L73.7063 65.3252L73.6589 65.1917L72.2452 65.693ZM72.6517 68.3389L73.9697 69.055L74.2111 68.6108L74.1343 68.1111L72.6517 68.3389ZM71.3891 70.6627L72.0956 71.9859L72.4924 71.7741L72.7071 71.3789L71.3891 70.6627ZM69.3562 71.7482L68.6497 70.425L67.5487 71.0129L67.9266 72.2024L69.3562 71.7482ZM72.175 58.1489L70.675 58.1407L70.6745 58.2407L72.1745 58.2489L73.6744 58.2571L73.675 58.1571L72.175 58.1489ZM72.1745 58.2489L70.771 57.7196L69.9059 60.0131L71.3094 60.5425L72.7129 61.0718L73.578 58.7783L72.1745 58.2489ZM71.3094 60.5425L69.8097 60.5693L69.8569 63.2141L71.3567 63.1873L72.8565 63.1605L72.8092 60.5157L71.3094 60.5425ZM71.3567 63.1873L69.9429 63.6886L70.8314 66.1943L72.2452 65.693L73.6589 65.1917L72.7705 62.686L71.3567 63.1873ZM72.2452 65.693L70.7626 65.9208L71.1691 68.5667L72.6517 68.3389L74.1343 68.1111L73.7278 65.4652L72.2452 65.693ZM72.6517 68.3389L71.3337 67.6228L70.0711 69.9466L71.3891 70.6627L72.7071 71.3789L73.9697 69.055L72.6517 68.3389ZM71.3891 70.6627L70.6826 69.3395L68.6497 70.425L69.3562 71.7482L70.0627 73.0714L72.0956 71.9859L71.3891 70.6627ZM69.3562 71.7482L67.9266 72.2024L67.9327 72.2216L69.3623 71.7675L70.7919 71.3133L70.7858 71.2941L69.3562 71.7482Z" fill="black"/>
<path d="M65.5268 21.4528L67.0223 21.3363L66.9609 20.5483L66.2762 20.1534L65.5268 21.4528ZM63.2779 20.1558L61.8013 20.4198L61.9241 21.1066L62.5285 21.4552L63.2779 20.1558ZM62.8266 17.6318L61.3458 17.3926L61.3051 17.6446L61.35 17.8958L62.8266 17.6318ZM63.2458 15.0361L61.9901 14.2156L61.8158 14.4823L61.765 14.7969L63.2458 15.0361ZM64.6012 12.9618L65.8569 13.7823L66.1387 13.351L66.096 12.8375L64.6012 12.9618ZM64.3899 10.4202L65.8847 10.296L65.8409 9.76936L65.4768 9.38647L64.3899 10.4202ZM62.582 8.51949L63.6689 7.48572L63.4115 7.21511L63.0573 7.09678L62.582 8.51949ZM60.1403 7.7038L60.6156 6.28109L60.3146 6.18054L59.9987 6.2105L60.1403 7.7038ZM57.6033 7.94442L57.4617 6.45112L57.1469 6.48098L56.8709 6.63539L57.6033 7.94442ZM55.3026 9.23167L54.5702 7.92264L54.3398 8.05155L54.1673 8.25138L55.3026 9.23167ZM65.5346 21.5525L67.0301 21.436L67.0223 21.3363L65.5268 21.4528L64.0314 21.5693L64.0391 21.669L65.5346 21.5525ZM65.5268 21.4528L66.2762 20.1534L64.0273 18.8564L63.2779 20.1558L62.5285 21.4552L64.7774 22.7522L65.5268 21.4528ZM63.2779 20.1558L64.7545 19.8917L64.3031 17.3678L62.8266 17.6318L61.35 17.8958L61.8013 20.4198L63.2779 20.1558ZM62.8266 17.6318L64.3074 17.8709L64.7266 15.2753L63.2458 15.0361L61.765 14.7969L61.3458 17.3926L62.8266 17.6318ZM63.2458 15.0361L64.5015 15.8566L65.8569 13.7823L64.6012 12.9618L63.3455 12.1413L61.9901 14.2156L63.2458 15.0361ZM64.6012 12.9618L66.096 12.8375L65.8847 10.296L64.3899 10.4202L62.895 10.5445L63.1064 13.0861L64.6012 12.9618ZM64.3899 10.4202L65.4768 9.38647L63.6689 7.48572L62.582 8.51949L61.4951 9.55327L63.303 11.454L64.3899 10.4202ZM62.582 8.51949L63.0573 7.09678L60.6156 6.28109L60.1403 7.7038L59.665 9.12651L62.1067 9.9422L62.582 8.51949ZM60.1403 7.7038L59.9987 6.2105L57.4617 6.45112L57.6033 7.94442L57.745 9.43772L60.2819 9.1971L60.1403 7.7038ZM57.6033 7.94442L56.8709 6.63539L54.5702 7.92264L55.3026 9.23167L56.0351 10.5407L58.3357 9.25345L57.6033 7.94442ZM55.3026 9.23167L54.1673 8.25138L53.5941 8.9152L54.7295 9.89549L55.8649 10.8758L56.438 10.212L55.3026 9.23167Z" fill="black"/>
<path d="M59.3832 27.3368L58.3593 26.2407L58.2586 26.3347L58.1767 26.4455L59.3832 27.3368ZM57.8728 29.3814L58.8078 30.5544L58.9621 30.4314L59.0793 30.2726L57.8728 29.3814ZM55.7981 31.035L54.8632 29.862L54.7685 29.9375L54.6871 30.0272L55.7981 31.035ZM54.0157 32.9998L55.0143 34.1191L55.0734 34.0663L55.1266 34.0076L54.0157 32.9998ZM52.0361 34.7659L52.685 36.1183L52.8763 36.0265L53.0347 35.8852L52.0361 34.7659ZM50.2805 35.6083L49.6316 34.2559L48.5218 34.7884L48.8274 35.9807L50.2805 35.6083ZM59.4563 27.2686L58.4324 26.1724L58.3593 26.2407L59.3832 27.3368L60.4071 28.433L60.4802 28.3647L59.4563 27.2686ZM59.3832 27.3368L58.1767 26.4455L56.6664 28.4901L57.8728 29.3814L59.0793 30.2726L60.5897 28.2281L59.3832 27.3368ZM57.8728 29.3814L56.9379 28.2084L54.8632 29.862L55.7981 31.035L56.733 32.208L58.8078 30.5544L57.8728 29.3814ZM55.7981 31.035L54.6871 30.0272L52.9047 31.992L54.0157 32.9998L55.1266 34.0076L56.909 32.0429L55.7981 31.035ZM54.0157 32.9998L53.0171 31.8805L51.0375 33.6466L52.0361 34.7659L53.0347 35.8852L55.0143 34.1191L54.0157 32.9998ZM52.0361 34.7659L51.3872 33.4135L49.6316 34.2559L50.2805 35.6083L50.9294 36.9607L52.685 36.1183L52.0361 34.7659ZM50.2805 35.6083L48.8274 35.9807L48.8302 35.9914L50.2832 35.619L51.7362 35.2466L51.7335 35.2359L50.2805 35.6083Z" fill="black"/>
<path d="M51.9593 93.4031L52.1688 91.9178L52.0881 91.9064L52.0067 91.9038L51.9593 93.4031ZM54.4496 93.7543L54.675 92.2713L54.6671 92.2701L54.6591 92.269L54.4496 93.7543ZM57.0762 94.1535L56.8508 95.6364L57.0327 95.6641L57.2159 95.647L57.0762 94.1535ZM59.72 93.9061L59.6059 92.4104L59.5931 92.4114L59.5803 92.4126L59.72 93.9061ZM62.3493 93.7055L62.2676 92.2078L62.2514 92.2086L62.2352 92.2099L62.3493 93.7055ZM64.9774 93.5621L65.1936 92.0778L65.0453 92.0562L64.8957 92.0644L64.9774 93.5621ZM67.4862 93.9275L67.27 95.4118L67.5503 95.4526L67.8261 95.3885L67.4862 93.9275ZM70.0562 93.3295L70.2412 91.841L69.9763 91.8081L69.7163 91.8685L70.0562 93.3295ZM72.7137 93.6598L73.0752 92.204L72.9879 92.1823L72.8987 92.1712L72.7137 93.6598ZM75.1175 94.2566L76.5747 93.9005L76.3594 93.0193L75.479 92.8008L75.1175 94.2566ZM75.7178 96.7133L77.2133 96.8298L77.2319 96.5904L77.1749 96.3572L75.7178 96.7133ZM75.5722 98.5828V100.083H76.9598L77.0676 98.6993L75.5722 98.5828ZM51.8594 93.3999L51.812 94.8992L51.9119 94.9023L51.9593 93.4031L52.0067 91.9038L51.9068 91.9007L51.8594 93.3999ZM51.9593 93.4031L51.7499 94.8884L54.2402 95.2396L54.4496 93.7543L54.6591 92.269L52.1688 91.9178L51.9593 93.4031ZM54.4496 93.7543L54.2242 95.2372L56.8508 95.6364L57.0762 94.1535L57.3016 92.6705L54.675 92.2713L54.4496 93.7543ZM57.0762 94.1535L57.2159 95.647L59.8598 95.3996L59.72 93.9061L59.5803 92.4126L56.9364 92.66L57.0762 94.1535ZM59.72 93.9061L59.8341 95.4018L62.4634 95.2012L62.3493 93.7055L62.2352 92.2099L59.6059 92.4104L59.72 93.9061ZM62.3493 93.7055L62.431 95.2033L65.0592 95.0599L64.9774 93.5621L64.8957 92.0644L62.2676 92.2078L62.3493 93.7055ZM64.9774 93.5621L64.7613 95.0465L67.27 95.4118L67.4862 93.9275L67.7023 92.4431L65.1936 92.0778L64.9774 93.5621ZM67.4862 93.9275L67.8261 95.3885L70.3962 94.7905L70.0562 93.3295L69.7163 91.8685L67.1463 92.4665L67.4862 93.9275ZM70.0562 93.3295L69.8713 94.8181L72.5288 95.1483L72.7137 93.6598L72.8987 92.1712L70.2412 91.841L70.0562 93.3295ZM72.7137 93.6598L72.3523 95.1156L74.7561 95.7124L75.1175 94.2566L75.479 92.8008L73.0752 92.204L72.7137 93.6598ZM75.1175 94.2566L73.6604 94.6126L74.2607 97.0693L75.7178 96.7133L77.1749 96.3572L76.5747 93.9005L75.1175 94.2566ZM75.7178 96.7133L74.2223 96.5967L74.0767 98.4663L75.5722 98.5828L77.0676 98.6993L77.2133 96.8298L75.7178 96.7133ZM75.5722 98.5828V97.0828H75.4956V98.5828V100.083H75.5722V98.5828Z" fill="black"/>
<path d="M49.3405 28.3769L50.8329 28.226L50.8304 28.2009L50.827 28.1759L49.3405 28.3769ZM49.5964 30.9073L51.0953 30.964L51.0993 30.86L51.0888 30.7564L49.5964 30.9073ZM49.4959 33.5646L47.997 33.5079L47.9891 33.7165L48.0384 33.9193L49.4959 33.5646ZM50.1166 36.1149L51.6072 35.9473L51.5965 35.8527L51.574 35.7602L50.1166 36.1149ZM50.3541 38.2274L48.8635 38.395L48.88 38.5413L48.9246 38.6817L50.3541 38.2274ZM51.1626 40.7716L52.6416 40.5215L52.6241 40.4177L52.5922 40.3173L51.1626 40.7716ZM51.6028 43.3749L50.1238 43.625L50.1708 43.9031L50.3157 44.1452L51.6028 43.3749ZM52.6315 45.0939L53.5768 46.2586L54.5863 45.4393L53.9187 44.3237L52.6315 45.0939ZM49.3271 28.2778L47.8407 28.4788L47.8541 28.5779L49.3405 28.3769L50.827 28.1759L50.8136 28.0768L49.3271 28.2778ZM49.3405 28.3769L47.8482 28.5278L48.104 31.0582L49.5964 30.9073L51.0888 30.7564L50.8329 28.226L49.3405 28.3769ZM49.5964 30.9073L48.0975 30.8506L47.997 33.5079L49.4959 33.5646L50.9948 33.6213L51.0953 30.964L49.5964 30.9073ZM49.4959 33.5646L48.0384 33.9193L48.6591 36.4696L50.1166 36.1149L51.574 35.7602L50.9534 33.2099L49.4959 33.5646ZM50.1166 36.1149L48.626 36.2825L48.8635 38.395L50.3541 38.2274L51.8447 38.0598L51.6072 35.9473L50.1166 36.1149ZM50.3541 38.2274L48.9246 38.6817L49.7331 41.2259L51.1626 40.7716L52.5922 40.3173L51.7837 37.7731L50.3541 38.2274ZM51.1626 40.7716L49.6836 41.0217L50.1238 43.625L51.6028 43.3749L53.0818 43.1248L52.6416 40.5215L51.1626 40.7716ZM51.6028 43.3749L50.3157 44.1452L51.3444 45.8642L52.6315 45.0939L53.9187 44.3237L52.89 42.6047L51.6028 43.3749ZM52.6315 45.0939L51.6863 43.9293L51.5547 44.036L52.5 45.2007L53.4453 46.3654L53.5768 46.2586L52.6315 45.0939Z" fill="black"/>
<path d="M74.0274 37.0962L72.5847 37.5069L72.6154 37.6146L72.6617 37.7166L74.0274 37.0962ZM75.0698 39.3907L76.4834 38.8889L76.462 38.8285L76.4355 38.7702L75.0698 39.3907ZM75.9514 41.8742L77.3819 41.4228L77.3739 41.3975L77.365 41.3724L75.9514 41.8742ZM76.743 44.383L78.2136 44.0874L78.1977 44.0084L78.1735 43.9316L76.743 44.383ZM77.2652 46.9809L78.764 46.9215L78.7593 46.8023L78.7358 46.6853L77.2652 46.9809ZM77.3703 49.6306L75.8715 49.69L75.8721 49.7065L75.8731 49.7229L77.3703 49.6306ZM77.5329 52.2654L79.0301 52.1737L79.03 52.173L77.5329 52.2654ZM77.6953 54.9164L79.1745 55.1655L79.203 54.9961L79.1925 54.8247L77.6953 54.9164ZM77.2532 57.5412L78.5339 58.3221L78.6844 58.0753L78.7324 57.7903L77.2532 57.5412ZM75.9039 59.754L76.3999 61.1696L76.9056 60.9924L77.1846 60.5349L75.9039 59.754ZM73.7656 60.5032L72.4278 61.1818L73.022 62.3532L74.2616 61.9188L73.7656 60.5032ZM72.6759 58.355L71.1978 58.6103L71.2362 58.8325L71.3382 59.0336L72.6759 58.355ZM72.2668 55.9868L71.1049 55.0381L70.6722 55.568L70.7887 56.2422L72.2668 55.9868ZM73.9535 53.9212L75.1154 54.8699L75.4727 54.4323L75.4526 53.8677L73.9535 53.9212ZM73.8597 51.2909L75.3588 51.2374L75.3481 50.9398L75.2246 50.6687L73.8597 51.2909ZM72.7774 48.9166L74.1423 48.2944L74.0015 47.9856L73.7416 47.7675L72.7774 48.9166ZM71.1021 47.5108L69.7554 46.8501L69.238 47.9047L70.1379 48.6598L71.1021 47.5108ZM74 37L72.5573 37.4107L72.5847 37.5069L74.0274 37.0962L75.4701 36.6855L75.4427 36.5893L74 37ZM74.0274 37.0962L72.6617 37.7166L73.7041 40.0111L75.0698 39.3907L76.4355 38.7702L75.3931 36.4757L74.0274 37.0962ZM75.0698 39.3907L73.6562 39.8925L74.5378 42.376L75.9514 41.8742L77.365 41.3724L76.4834 38.8889L75.0698 39.3907ZM75.9514 41.8742L74.5209 42.3255L75.3125 44.8343L76.743 44.383L78.1735 43.9316L77.3819 41.4228L75.9514 41.8742ZM76.743 44.383L75.2724 44.6786L75.7946 47.2765L77.2652 46.9809L78.7358 46.6853L78.2136 44.0874L76.743 44.383ZM77.2652 46.9809L75.7664 47.0404L75.8715 49.69L77.3703 49.6306L78.8691 49.5711L78.764 46.9215L77.2652 46.9809ZM77.3703 49.6306L75.8731 49.7229L76.0357 52.3578L77.5329 52.2654L79.03 52.173L78.8674 49.5382L77.3703 49.6306ZM77.5329 52.2654L76.0357 52.3571L76.1981 55.0081L77.6953 54.9164L79.1925 54.8247L79.0301 52.1737L77.5329 52.2654ZM77.6953 54.9164L76.2161 54.6673L75.7741 57.292L77.2532 57.5412L78.7324 57.7903L79.1745 55.1655L77.6953 54.9164ZM77.2532 57.5412L75.9725 56.7603L74.6232 58.9731L75.9039 59.754L77.1846 60.5349L78.5339 58.3221L77.2532 57.5412ZM75.9039 59.754L75.4079 58.3384L73.2696 59.0876L73.7656 60.5032L74.2616 61.9188L76.3999 61.1696L75.9039 59.754ZM73.7656 60.5032L75.1033 59.8247L74.0136 57.6764L72.6759 58.355L71.3382 59.0336L72.4278 61.1818L73.7656 60.5032ZM72.6759 58.355L74.154 58.0996L73.7449 55.7315L72.2668 55.9868L70.7887 56.2422L71.1978 58.6103L72.6759 58.355ZM72.2668 55.9868L73.4286 56.9355L75.1154 54.8699L73.9535 53.9212L72.7917 52.9724L71.1049 55.0381L72.2668 55.9868ZM73.9535 53.9212L75.4526 53.8677L75.3588 51.2374L73.8597 51.2909L72.3607 51.3444L72.4545 53.9746L73.9535 53.9212ZM73.8597 51.2909L75.2246 50.6687L74.1423 48.2944L72.7774 48.9166L71.4125 49.5387L72.4948 51.9131L73.8597 51.2909ZM72.7774 48.9166L73.7416 47.7675L72.0663 46.3617L71.1021 47.5108L70.1379 48.6598L71.8132 50.0656L72.7774 48.9166ZM71.1021 47.5108L72.4487 48.1715L72.5644 47.9356L71.2178 47.275L69.8711 46.6143L69.7554 46.8501L71.1021 47.5108Z" fill="black"/>
<path d="M62.4522 17.8114L62.241 16.3264L61.9503 16.3677L61.6967 16.5156L62.4522 17.8114ZM60.5025 18.9482L60.3707 20.4424L60.8459 20.4843L61.258 20.244L60.5025 18.9482ZM58.2142 18.7464L58.346 17.2522L58.3294 17.2507L58.3128 17.2496L58.2142 18.7464ZM57.016 18.6674L55.5559 18.3241L55.1506 20.0478L56.9175 20.1642L57.016 18.6674ZM62.5512 17.7974L62.34 16.3123L62.241 16.3264L62.4522 17.8114L62.6635 19.2965L62.7625 19.2824L62.5512 17.7974ZM62.4522 17.8114L61.6967 16.5156L59.747 17.6523L60.5025 18.9482L61.258 20.244L63.2077 19.1073L62.4522 17.8114ZM60.5025 18.9482L60.6343 17.454L58.346 17.2522L58.2142 18.7464L58.0825 20.2406L60.3707 20.4424L60.5025 18.9482ZM58.2142 18.7464L58.3128 17.2496L57.1146 17.1707L57.016 18.6674L56.9175 20.1642L58.1157 20.2431L58.2142 18.7464ZM57.016 18.6674L58.4762 19.0108L58.4963 18.9253L57.0361 18.582L55.576 18.2386L55.5559 18.3241L57.016 18.6674Z" fill="black"/>
<path d="M42.2169 33.8627L42.9909 32.5778L42.8859 32.5145L42.772 32.4692L42.2169 33.8627ZM44.3899 35.1715L45.2397 33.9355L45.2025 33.9099L45.1638 33.8866L44.3899 35.1715ZM46.5818 36.6787L45.7319 37.9147L46.1182 38.1803L46.5869 38.1786L46.5818 36.6787ZM49.2414 36.6695L49.743 35.2558L49.4971 35.1686L49.2362 35.1695L49.2414 36.6695ZM42.124 33.8257L41.5689 35.2192L41.6618 35.2562L42.2169 33.8627L42.772 32.4692L42.6791 32.4322L42.124 33.8257ZM42.2169 33.8627L41.443 35.1476L43.6159 36.4564L44.3899 35.1715L45.1638 33.8866L42.9909 32.5778L42.2169 33.8627ZM44.3899 35.1715L43.54 36.4075L45.7319 37.9147L46.5818 36.6787L47.4316 35.4426L45.2397 33.9355L44.3899 35.1715ZM46.5818 36.6787L46.5869 38.1786L49.2466 38.1695L49.2414 36.6695L49.2362 35.1695L46.5766 35.1787L46.5818 36.6787ZM49.2414 36.6695L48.7398 38.0831L48.9384 38.1536L49.44 36.7399L49.9416 35.3263L49.743 35.2558L49.2414 36.6695Z" fill="black"/>
<path d="M64.2651 78.878L63.5248 77.5734L63.4056 77.6411L63.3006 77.7292L64.2651 78.878ZM62.3692 80.4698L63.1177 81.7698L63.2324 81.7037L63.3337 81.6186L62.3692 80.4698ZM60.1004 81.7762L59.3519 80.4763L59.3366 80.4851L59.3215 80.4943L60.1004 81.7762ZM57.8347 83.1528L58.4951 84.4996L58.5558 84.4699L58.6135 84.4348L57.8347 83.1528ZM55.4566 84.3189L55.8501 85.7664L55.9884 85.7288L56.117 85.6657L55.4566 84.3189ZM52.9713 84.9946L52.5778 83.5471L51.4361 83.8575L51.472 85.0401L52.9713 84.9946ZM64.3521 78.8286L63.6118 77.524L63.5248 77.5734L64.2651 78.878L65.0055 80.1825L65.0924 80.1332L64.3521 78.8286ZM64.2651 78.878L63.3006 77.7292L61.4047 79.3211L62.3692 80.4698L63.3337 81.6186L65.2297 80.0267L64.2651 78.878ZM62.3692 80.4698L61.6207 79.1699L59.3519 80.4763L60.1004 81.7762L60.8488 83.0761L63.1177 81.7698L62.3692 80.4698ZM60.1004 81.7762L59.3215 80.4943L57.0558 81.8709L57.8347 83.1528L58.6135 84.4348L60.8792 83.0582L60.1004 81.7762ZM57.8347 83.1528L57.1743 81.806L54.7962 82.9721L55.4566 84.3189L56.117 85.6657L58.4951 84.4996L57.8347 83.1528ZM55.4566 84.3189L55.0631 82.8715L52.5778 83.5471L52.9713 84.9946L53.3649 86.442L55.8501 85.7664L55.4566 84.3189ZM52.9713 84.9946L51.472 85.0401L51.4724 85.0511L52.9717 85.0056L54.471 84.9601L54.4707 84.9491L52.9713 84.9946Z" fill="black"/>
<path d="M74.7772 58.2138L74.6419 56.7199L74.5376 56.7293L74.4356 56.7532L74.7772 58.2138ZM74.366 58.3099L73.7272 59.6671L74.1994 59.8894L74.7076 59.7705L74.366 58.3099ZM73.8316 58.0584L74.4704 56.7012L73.0823 56.0479L72.4604 57.4504L73.8316 58.0584ZM73.6836 58.3923L72.395 59.16L73.8794 61.6514L75.0549 59.0003L73.6836 58.3923ZM74.8768 58.2047L74.7415 56.7109L74.6419 56.7199L74.7772 58.2138L74.9124 59.7077L75.012 59.6986L74.8768 58.2047ZM74.7772 58.2138L74.4356 56.7532L74.0244 56.8493L74.366 58.3099L74.7076 59.7705L75.1188 59.6744L74.7772 58.2138ZM74.366 58.3099L75.0047 56.9527L74.4704 56.7012L73.8316 58.0584L73.1929 59.4156L73.7272 59.6671L74.366 58.3099ZM73.8316 58.0584L72.4604 57.4504L72.3124 57.7842L73.6836 58.3923L75.0549 59.0003L75.2029 58.6665L73.8316 58.0584ZM73.6836 58.3923L74.9722 57.6245L74.9273 57.5491L73.6387 58.3168L72.3501 59.0846L72.395 59.16L73.6836 58.3923Z" fill="black"/>
<path d="M59.5 79.1L58 79.1L58 79.1323L58.0014 79.1645L59.5 79.1ZM59.6093 81.64L61.1011 81.797L61.1127 81.6865L61.1079 81.5755L59.6093 81.64ZM59.3314 84.28L57.8397 84.123L57.8238 84.2739L57.8385 84.425L59.3314 84.28ZM59.5878 86.92L61.0829 87.0416L61.0937 86.9082L61.0808 86.775L59.5878 86.92ZM59.5 79L58 79L58 79.1L59.5 79.1L61 79.1L61 79L59.5 79ZM59.5 79.1L58.0014 79.1645L58.1107 81.7045L59.6093 81.64L61.1079 81.5755L60.9986 79.0355L59.5 79.1ZM59.6093 81.64L58.1176 81.483L57.8397 84.123L59.3314 84.28L60.8232 84.437L61.1011 81.797L59.6093 81.64ZM59.3314 84.28L57.8385 84.425L58.0948 87.065L59.5878 86.92L61.0808 86.775L60.8244 84.135L59.3314 84.28ZM59.5878 86.92L58.0927 86.7984L58.0049 87.8784L59.5 88L60.9951 88.1216L61.0829 87.0416L59.5878 86.92Z" fill="black"/>
</svg>
