<svg width="120" height="120" viewBox="0 0 120 120" fill="none" xmlns="http://www.w3.org/2000/svg">
<path d="M84.861 7.19777L83.4326 6.73995L83.4015 6.83679L83.3838 6.93694L84.861 7.19777ZM84.4317 9.62873L85.8695 10.0564L85.894 9.97408L85.9089 9.88956L84.4317 9.62873ZM83.6763 12.1687L82.2385 11.7411L82.2206 11.8014L82.2078 11.863L83.6763 12.1687ZM83.1376 14.7566L84.5299 15.3149L84.5792 15.1919L84.6062 15.0622L83.1376 14.7566ZM82.1493 17.2212L83.3776 18.0822L83.4771 17.9403L83.5416 17.7795L82.1493 17.2212ZM80.624 19.397L81.829 20.2902L81.8408 20.2743L81.8522 20.2581L80.624 19.397ZM79.0536 21.5158L80.2509 22.4195L80.2586 22.409L79.0536 21.5158ZM77.4564 23.632L78.4884 24.7206L78.5787 24.635L78.6537 24.5356L77.4564 23.632ZM75.5343 25.454L76.4062 26.6746L76.4908 26.6142L76.5662 26.5426L75.5343 25.454ZM73.3725 26.9982L72.5006 25.7776L72.3482 25.8865L72.2273 26.0294L73.3725 26.9982ZM71.6449 29.0405L72.536 30.247L72.677 30.143L72.7901 30.0092L71.6449 29.0405ZM69.517 30.6121L68.6258 29.4055L68.5555 29.4574L68.4917 29.5172L69.517 30.6121ZM67.5863 32.4199L68.4071 33.6754L68.5163 33.604L68.6115 33.5148L67.5863 32.4199ZM65.3613 33.8746L64.5404 32.6191L64.4251 32.6946L64.3254 32.7898L65.3613 33.8746ZM63.4505 35.6992L62.4146 34.6143L62.39 34.6378L62.3665 34.6624L63.4505 35.6992ZM61.6274 37.6055L60.5433 36.5687L60.4945 36.6199L60.4506 36.6753L61.6274 37.6055ZM59.9956 39.6699L61.0158 40.7696L61.1006 40.6908L61.1724 40.6L59.9956 39.6699ZM58.0325 41.4909L57.0123 40.3912L56.7602 40.6251L56.6351 40.9455L58.0325 41.4909ZM57.0599 43.9823L58.3588 44.7325L58.4158 44.6339L58.4572 44.5278L57.0599 43.9823ZM55.7432 46.262L54.4443 45.5118L54.3556 45.6654L54.3051 45.8354L55.7432 46.262ZM54.9897 48.8019L56.2792 49.5682L56.3746 49.4076L56.4277 49.2285L54.9897 48.8019ZM53.629 51.0917L52.3395 50.3254L52.2426 50.4883L52.1894 50.6702L53.629 51.0917ZM52.8739 53.6709L53.9838 54.6799L54.2164 54.4241L54.3135 54.0923L52.8739 53.6709ZM51.0571 55.6693L51.009 57.1685L51.7011 57.1907L52.167 56.6783L51.0571 55.6693ZM48.6011 55.5905L47.1564 55.9942L47.4527 57.0545L48.553 57.0898L48.6011 55.5905ZM47.8868 53.0343L46.4341 52.6605L46.3338 53.0504L46.4421 53.438L47.8868 53.0343ZM48.5486 50.4623L50.0013 50.8361L50.0128 50.7912L50.0216 50.7457L48.5486 50.4623ZM49.0461 47.8773L47.6761 47.2665L47.6058 47.4242L47.5731 47.5938L49.0461 47.8773ZM50.1224 45.4636L48.9253 44.5598L48.8221 44.6964L48.7524 44.8527L50.1224 45.4636ZM51.7182 43.35L52.9153 44.2538L53.0052 44.1348L53.0699 44.0003L51.7182 43.35ZM52.874 40.9476L51.6979 40.0165L51.5945 40.1471L51.5223 40.2973L52.874 40.9476ZM54.5151 38.8746L55.6912 39.8057L55.6997 39.7947L54.5151 38.8746ZM56.1387 36.7842L57.3233 37.7043L57.4138 37.5879L57.4798 37.4561L56.1387 36.7842ZM57.3254 34.4153L58.6665 35.0872L58.6758 35.0686L58.6845 35.0499L57.3254 34.4153ZM58.4368 32.0346L59.796 32.6691L59.7968 32.6674L58.4368 32.0346ZM59.5654 29.6091L60.9254 30.2419L61.0813 29.9068L61.0637 29.5377L59.5654 29.6091ZM59.4378 26.9303L57.945 26.7829L57.9343 26.8921L57.9395 27.0016L59.4378 26.9303ZM59.7002 24.272L61.193 24.4194L61.214 24.2069L61.1748 23.9971L59.7002 24.272ZM84.8915 7.10254L83.4631 6.64472L83.4326 6.73995L84.861 7.19777L86.2894 7.65559L86.3199 7.56036L84.8915 7.10254ZM84.861 7.19777L83.3838 6.93694L82.9546 9.36791L84.4317 9.62873L85.9089 9.88956L86.3381 7.45859L84.861 7.19777ZM84.4317 9.62873L82.994 9.20111L82.2385 11.7411L83.6763 12.1687L85.114 12.5963L85.8695 10.0564L84.4317 9.62873ZM83.6763 12.1687L82.2078 11.863L81.6691 14.4509L83.1376 14.7566L84.6062 15.0622L85.1448 12.4744L83.6763 12.1687ZM83.1376 14.7566L81.7454 14.1983L80.7571 16.6629L82.1493 17.2212L83.5416 17.7795L84.5299 15.3149L83.1376 14.7566ZM82.1493 17.2212L80.9211 16.3601L79.3957 18.5359L80.624 19.397L81.8522 20.2581L83.3776 18.0822L82.1493 17.2212ZM80.624 19.397L79.4189 18.5038L77.8485 20.6227L79.0536 21.5158L80.2586 22.409L81.829 20.2902L80.624 19.397ZM79.0536 21.5158L77.8563 20.6122L76.2592 22.7283L77.4564 23.632L78.6537 24.5356L80.2508 22.4195L79.0536 21.5158ZM77.4564 23.632L76.4245 22.5433L74.5024 24.3654L75.5343 25.454L76.5662 26.5426L78.4884 24.7206L77.4564 23.632ZM75.5343 25.454L74.6624 24.2334L72.5006 25.7776L73.3725 26.9982L74.2443 28.2188L76.4062 26.6746L75.5343 25.454ZM73.3725 26.9982L72.2273 26.0294L70.4997 28.0717L71.6449 29.0405L72.7901 30.0092L74.5177 27.967L73.3725 26.9982ZM71.6449 29.0405L70.7537 27.8339L68.6258 29.4055L69.517 30.6121L70.4081 31.8187L72.536 30.247L71.6449 29.0405ZM69.517 30.6121L68.4917 29.5172L66.561 31.325L67.5863 32.4199L68.6115 33.5148L70.5422 31.707L69.517 30.6121ZM67.5863 32.4199L66.7655 31.1644L64.5404 32.6191L65.3613 33.8746L66.1821 35.1301L68.4071 33.6754L67.5863 32.4199ZM65.3613 33.8746L64.3254 32.7898L62.4146 34.6143L63.4505 35.6992L64.4864 36.784L66.3972 34.9595L65.3613 33.8746ZM63.4505 35.6992L62.3665 34.6624L60.5433 36.5687L61.6274 37.6055L62.7114 38.6423L64.5346 36.7359L63.4505 35.6992ZM61.6274 37.6055L60.4506 36.6753L58.8189 38.7397L59.9956 39.6699L61.1724 40.6L62.8042 38.5357L61.6274 37.6055ZM59.9956 39.6699L58.9755 38.5701L57.0123 40.3912L58.0325 41.4909L59.0526 42.5907L61.0158 40.7696L59.9956 39.6699ZM58.0325 41.4909L56.6351 40.9455L55.6626 43.4368L57.0599 43.9823L58.4572 44.5278L59.4298 42.0364L58.0325 41.4909ZM57.0599 43.9823L55.761 43.2321L54.4443 45.5118L55.7432 46.262L57.0421 47.0122L58.3588 44.7325L57.0599 43.9823ZM55.7432 46.262L54.3051 45.8354L53.5516 48.3752L54.9897 48.8019L56.4277 49.2285L57.1812 46.6887L55.7432 46.262ZM54.9897 48.8019L53.7002 48.0356L52.3395 50.3254L53.629 51.0917L54.9185 51.858L56.2792 49.5682L54.9897 48.8019ZM53.629 51.0917L52.1894 50.6702L51.4343 53.2495L52.8739 53.6709L54.3135 54.0923L55.0686 51.5131L53.629 51.0917ZM52.8739 53.6709L51.764 52.6618L49.9472 54.6602L51.0571 55.6693L52.167 56.6783L53.9838 54.6799L52.8739 53.6709ZM51.0571 55.6693L51.1052 54.1701L48.6492 54.0913L48.6011 55.5905L48.553 57.0898L51.009 57.1685L51.0571 55.6693ZM48.6011 55.5905L50.0457 55.1868L49.3314 52.6306L47.8868 53.0343L46.4421 53.438L47.1564 55.9942L48.6011 55.5905ZM47.8868 53.0343L49.3394 53.4081L50.0013 50.8361L48.5486 50.4623L47.0959 50.0885L46.4341 52.6605L47.8868 53.0343ZM48.5486 50.4623L50.0216 50.7457L50.5191 48.1608L49.0461 47.8773L47.5731 47.5938L47.0756 50.1788L48.5486 50.4623ZM49.0461 47.8773L50.4161 48.4882L51.4924 46.0745L50.1224 45.4636L48.7524 44.8527L47.6761 47.2665L49.0461 47.8773ZM50.1224 45.4636L51.3195 46.3675L52.9153 44.2538L51.7182 43.35L50.5211 42.4462L48.9253 44.5598L50.1224 45.4636ZM51.7182 43.35L53.0699 44.0003L54.2257 41.5979L52.874 40.9476L51.5223 40.2973L50.3665 42.6997L51.7182 43.35ZM52.874 40.9476L54.0501 41.8786L55.6912 39.8056L54.5151 38.8746L53.339 37.9436L51.6979 40.0165L52.874 40.9476ZM54.5151 38.8746L55.6997 39.7947L57.3233 37.7043L56.1387 36.7842L54.954 35.8641L53.3304 37.9545L54.5151 38.8746ZM56.1387 36.7842L57.4798 37.4561L58.6665 35.0872L57.3254 34.4153L55.9842 33.7435L54.7975 36.1124L56.1387 36.7842ZM57.3254 34.4153L58.6845 35.0499L59.796 32.6691L58.4368 32.0346L57.0776 31.4001L55.9662 33.7808L57.3254 34.4153ZM58.4368 32.0346L59.7968 32.6674L60.9254 30.2419L59.5654 29.6091L58.2054 28.9763L57.0768 31.4018L58.4368 32.0346ZM59.5654 29.6091L61.0637 29.5377L60.9361 26.8589L59.4378 26.9303L57.9395 27.0016L58.0671 29.6804L59.5654 29.6091ZM59.4378 26.9303L60.9305 27.0777L61.193 24.4194L59.7002 24.272L58.2075 24.1246L57.945 26.7829L59.4378 26.9303ZM59.7002 24.272L61.1748 23.9971L61.0133 23.1309L59.5387 23.4058L58.0641 23.6808L58.2257 24.547L59.7002 24.272Z" fill="black"/>
<path d="M49.8261 29.1941L48.4532 28.5897L48.1954 29.1753L48.4396 29.7666L49.8261 29.1941ZM50.8072 31.5697L52.2007 32.1248L52.4259 31.5596L52.1936 30.9972L50.8072 31.5697ZM49.8356 34.0087L51.1436 34.7429L51.1923 34.6562L51.2291 34.5638L49.8356 34.0087ZM48.5468 36.3045L49.6425 37.3289L49.7662 37.1967L49.8548 37.0387L48.5468 36.3045ZM46.7314 38.2461L47.5831 39.4808L47.7165 39.3889L47.8271 39.2705L46.7314 38.2461ZM44.5457 39.7537L43.694 38.5189L43.6765 38.531L43.6594 38.5436L44.5457 39.7537ZM42.4154 41.314L41.5291 40.1039L41.4822 40.1382L41.4382 40.1761L42.4154 41.314ZM40.4096 43.0366L41.3533 44.2025L41.3703 44.1888L41.3869 44.1746L40.4096 43.0366ZM38.3675 44.6895L39.3066 45.8591L39.3112 45.8554L38.3675 44.6895ZM36.2907 46.357L35.3516 45.1874L35.1341 45.3621L34.994 45.6032L36.2907 46.357ZM34.9468 48.6688L36.1424 49.5746L36.1977 49.5017L36.2436 49.4227L34.9468 48.6688ZM33.3602 50.7632L32.1645 49.8574L32.064 49.9901L31.9951 50.1415L33.3602 50.7632ZM32.271 53.1551L33.5848 53.8788L33.6124 53.8287L33.6361 53.7767L32.271 53.1551ZM30.9934 55.4742L29.6795 54.7505L29.5793 54.9325L29.5323 55.1349L30.9934 55.4742ZM30.3953 58.0492L28.9342 57.7098L28.9122 57.8047L28.9026 57.9016L30.3953 58.0492ZM30.1363 60.6681L28.6436 60.5205L28.6312 60.6461L28.6399 60.772L30.1363 60.6681ZM30.3175 63.2792L31.817 63.319L31.8189 63.2471L31.8139 63.1753L30.3175 63.2792ZM30.2465 65.9526L28.747 65.9127L28.7371 66.2876L28.9046 66.623L30.2465 65.9526ZM31.4419 68.3452L32.8606 67.8581L32.8283 67.7639L32.7837 67.6748L31.4419 68.3452ZM32.2961 70.8332L30.8774 71.3203L30.9447 71.5165L31.0628 71.687L32.2961 70.8332ZM33.7947 72.9977L35.0934 72.2471L35.0628 72.1942L35.028 72.1439L33.7947 72.9977ZM35.1307 75.3091L33.832 76.0597L33.996 76.3435L34.2635 76.533L35.1307 75.3091ZM37.3212 76.8612L38.3516 75.7711L38.2747 75.6984L38.1884 75.6373L37.3212 76.8612ZM39.2292 78.6647L38.1988 79.7548L38.2646 79.8171L38.3375 79.871L39.2292 78.6647ZM41.3448 80.2286L40.4532 81.4348L40.5344 81.4949L40.623 81.5435L41.3448 80.2286ZM43.6501 81.494L44.4058 80.1983L44.389 80.1885L44.3719 80.1791L43.6501 81.494ZM45.9531 82.837L45.1974 84.1328L45.4241 84.2649L45.6823 84.3123L45.9531 82.837ZM48.5726 83.3178L49.0134 81.8841L48.9296 81.8583L48.8434 81.8425L48.5726 83.3178ZM51.0964 84.0939L51.5591 82.667L51.5482 82.6635L51.5373 82.6601L51.0964 84.0939ZM53.6435 84.9199L53.1808 86.3467L53.4956 86.4488L53.8241 86.409L53.6435 84.9199ZM56.3158 84.5957L57.7907 84.3223L57.5338 82.937L56.1352 83.1067L56.3158 84.5957ZM56.7505 86.94L58.1838 87.3823L58.2926 87.0295L58.2253 86.6666L56.7505 86.94ZM55.9906 89.4028L54.5573 88.9606L54.4463 89.3204L54.5184 89.6899L55.9906 89.4028ZM56.4974 92.0011L57.977 91.7549L57.9736 91.7344L57.9696 91.714L56.4974 92.0011ZM56.9322 94.6136L57.7364 95.8798L58.5749 95.3472L58.4118 94.3673L56.9322 94.6136ZM55.0044 95.838L54.1534 97.0732L54.9708 97.6364L55.8086 97.1042L55.0044 95.838ZM53.7906 95.0017L53.724 93.5032L49.2596 93.7016L52.9396 96.237L53.7906 95.0017ZM49.8664 29.1025L48.4935 28.4982L48.4532 28.5897L49.8261 29.1941L51.1989 29.7984L51.2392 29.7069L49.8664 29.1025ZM49.8261 29.1941L48.4396 29.7666L49.4207 32.1423L50.8072 31.5697L52.1936 30.9972L51.2125 28.6215L49.8261 29.1941ZM50.8072 31.5697L49.4137 31.0146L48.4421 33.4536L49.8356 34.0087L51.2291 34.5638L52.2007 32.1248L50.8072 31.5697ZM49.8356 34.0087L48.5276 33.2744L47.2388 35.5702L48.5468 36.3045L49.8548 37.0387L51.1436 34.7429L49.8356 34.0087ZM48.5468 36.3045L47.4512 35.28L45.6358 37.2216L46.7314 38.2461L47.8271 39.2705L49.6425 37.3289L48.5468 36.3045ZM46.7314 38.2461L45.8797 37.0113L43.694 38.5189L44.5457 39.7537L45.3974 40.9885L47.5831 39.4808L46.7314 38.2461ZM44.5457 39.7537L43.6594 38.5436L41.5291 40.1039L42.4154 41.314L43.3018 42.5241L45.4321 40.9638L44.5457 39.7537ZM42.4154 41.314L41.4382 40.1761L39.4324 41.8986L40.4096 43.0366L41.3869 44.1746L43.3927 42.452L42.4154 41.314ZM40.4096 43.0366L39.4659 41.8706L37.4238 43.5235L38.3675 44.6895L39.3112 45.8554L41.3533 44.2025L40.4096 43.0366ZM38.3675 44.6895L37.4283 43.5199L35.3516 45.1874L36.2907 46.357L37.2299 47.5266L39.3066 45.8591L38.3675 44.6895ZM36.2907 46.357L34.994 45.6032L33.65 47.915L34.9468 48.6688L36.2436 49.4227L37.5875 47.1109L36.2907 46.357ZM34.9468 48.6688L33.7512 47.7631L32.1645 49.8574L33.3602 50.7632L34.5558 51.669L36.1424 49.5746L34.9468 48.6688ZM33.3602 50.7632L31.9951 50.1415L30.9058 52.5334L32.271 53.1551L33.6361 53.7767L34.7253 51.3849L33.3602 50.7632ZM32.271 53.1551L30.9571 52.4313L29.6795 54.7505L30.9934 55.4742L32.3072 56.198L33.5848 53.8788L32.271 53.1551ZM30.9934 55.4742L29.5323 55.1349L28.9342 57.7098L30.3953 58.0492L31.8564 58.3885L32.4545 55.8136L30.9934 55.4742ZM30.3953 58.0492L28.9026 57.9016L28.6436 60.5205L30.1363 60.6681L31.629 60.8158L31.888 58.1968L30.3953 58.0492ZM30.1363 60.6681L28.6399 60.772L28.8211 63.383L30.3175 63.2792L31.8139 63.1753L31.6327 60.5643L30.1363 60.6681ZM30.3175 63.2792L28.8181 63.2393L28.747 65.9127L30.2465 65.9526L31.746 65.9924L31.817 63.319L30.3175 63.2792ZM30.2465 65.9526L28.9046 66.623L30.1 69.0156L31.4419 68.3452L32.7837 67.6748L31.5883 65.2822L30.2465 65.9526ZM31.4419 68.3452L30.0232 68.8323L30.8774 71.3203L32.2961 70.8332L33.7148 70.3461L32.8606 67.8581L31.4419 68.3452ZM32.2961 70.8332L31.0628 71.687L32.5615 73.8516L33.7947 72.9977L35.028 72.1439L33.5293 69.9793L32.2961 70.8332ZM33.7947 72.9977L32.4961 73.7484L33.832 76.0597L35.1307 75.3091L36.4294 74.5584L35.0934 72.2471L33.7947 72.9977ZM35.1307 75.3091L34.2635 76.533L36.4539 78.0851L37.3212 76.8612L38.1884 75.6373L35.9979 74.0852L35.1307 75.3091ZM37.3212 76.8612L36.2907 77.9512L38.1988 79.7548L39.2292 78.6647L40.2596 77.5747L38.3516 75.7711L37.3212 76.8612ZM39.2292 78.6647L38.3375 79.871L40.4532 81.4348L41.3448 80.2286L42.2364 79.0224L40.1208 77.4585L39.2292 78.6647ZM41.3448 80.2286L40.623 81.5435L42.9284 82.809L43.6501 81.494L44.3719 80.1791L42.0666 78.9137L41.3448 80.2286ZM43.6501 81.494L42.8945 82.7898L45.1974 84.1328L45.9531 82.837L46.7087 81.5412L44.4058 80.1983L43.6501 81.494ZM45.9531 82.837L45.6823 84.3123L48.3017 84.7932L48.5726 83.3178L48.8434 81.8425L46.2239 81.3616L45.9531 82.837ZM48.5726 83.3178L48.1317 84.7516L50.6555 85.5276L51.0964 84.0939L51.5373 82.6601L49.0134 81.8841L48.5726 83.3178ZM51.0964 84.0939L50.6337 85.5207L53.1808 86.3467L53.6435 84.9199L54.1062 83.493L51.5591 82.667L51.0964 84.0939ZM53.6435 84.9199L53.8241 86.409L56.4964 86.0848L56.3158 84.5957L56.1352 83.1067L53.4629 83.4308L53.6435 84.9199ZM56.3158 84.5957L54.841 84.8692L55.2756 87.2135L56.7505 86.94L58.2253 86.6666L57.7907 84.3223L56.3158 84.5957ZM56.7505 86.94L55.3171 86.4978L54.5573 88.9606L55.9906 89.4028L57.424 89.845L58.1838 87.3823L56.7505 86.94ZM55.9906 89.4028L54.5184 89.6899L55.0251 92.2882L56.4974 92.0011L57.9696 91.714L57.4629 89.1157L55.9906 89.4028ZM56.4974 92.0011L55.0177 92.2474L55.4525 94.8598L56.9322 94.6136L58.4118 94.3673L57.977 91.7549L56.4974 92.0011ZM56.9322 94.6136L56.1279 93.3474L54.2002 94.5718L55.0044 95.838L55.8086 97.1042L57.7364 95.8798L56.9322 94.6136ZM55.0044 95.838L55.8554 94.6028L54.6416 93.7665L53.7906 95.0017L52.9396 96.237L54.1534 97.0732L55.0044 95.838ZM53.7906 95.0017L53.8572 96.5003L54.0732 96.4907L54.0066 94.9921L53.9401 93.4936L53.724 93.5032L53.7906 95.0017Z" fill="black"/>
<path d="M86.4116 7.19879L84.9678 7.60552L85.1296 8.18017L85.6421 8.48641L86.4116 7.19879ZM88.6169 8.51666L90.0189 7.9833L89.8336 7.49631L89.3864 7.22904L88.6169 8.51666ZM89.5496 10.9681L91.0181 10.6624L90.9938 10.546L90.9515 10.4348L89.5496 10.9681ZM90.0857 13.543L91.5812 13.6588L91.5977 13.4461L91.5542 13.2373L90.0857 13.543ZM89.88 16.2L91.2799 16.7386L91.3586 16.5342L91.3755 16.3158L89.88 16.2ZM88.9251 18.6819L90.2823 19.3208L90.3055 19.2714L90.3251 19.2206L88.9251 18.6819ZM87.8024 21.0671L89.1302 21.765L89.1455 21.7358L89.1596 21.706L87.8024 21.0671ZM86.5677 23.4163L87.7358 24.3573L87.8275 24.2435L87.8955 24.1141L86.5677 23.4163ZM84.9046 25.4807L85.9021 26.601L85.9948 26.5185L86.0727 26.4218L84.9046 25.4807ZM82.9223 27.2458L81.9248 26.1255L81.8007 26.2359L81.7038 26.3709L82.9223 27.2458ZM81.3618 29.4188L82.31 30.5811L82.4642 30.4554L82.5802 30.2938L81.3618 29.4188ZM79.3084 31.094L78.3602 29.9317L78.314 29.9694L78.271 30.0106L79.3084 31.094ZM77.3933 32.9278L78.1734 34.209L78.3128 34.1241L78.4307 34.0112L77.3933 32.9278ZM75.1198 34.312L74.3398 33.0307L74.2557 33.0819L74.179 33.1437L75.1198 34.312ZM73.0621 35.969L73.9836 37.1526L73.9933 37.145L74.0029 37.1373L73.0621 35.969ZM70.9768 37.5926L70.0553 36.409L70.0417 36.4196L70.0284 36.4305L70.9768 37.5926ZM68.9299 39.263L69.6337 40.5876L69.764 40.5184L69.8783 40.4251L68.9299 39.263ZM66.5643 40.5199L65.8605 39.1952L65.5697 39.3497L65.3704 39.6118L66.5643 40.5199ZM64.9444 42.6495L65.9732 43.7411L66.0633 43.6562L66.1383 43.5576L64.9444 42.6495ZM63.0264 44.4572L61.9976 43.3656L61.8543 43.5006L61.7508 43.6681L63.0264 44.4572ZM61.641 46.6967L62.8396 47.5987L62.8807 47.544L62.9167 47.4858L61.641 46.6967ZM60.0367 48.8285L58.8382 47.9265L58.6515 48.1745L58.5786 48.4762L60.0367 48.8285ZM59.4054 51.4407L60.7466 52.1123L60.8233 51.9593L60.8635 51.793L59.4054 51.4407ZM58.218 53.8117L59.498 54.5938L59.5309 54.5399L59.5592 54.4834L58.218 53.8117ZM56.8342 56.0765L57.9524 57.0762L58.0432 56.9747L58.1142 56.8586L56.8342 56.0765ZM55.0638 58.0567L55.7208 59.4052L55.9857 59.2761L56.1821 59.0565L55.0638 58.0567ZM52.6893 59.2136L52.0323 57.8652L52.0019 57.88L51.9722 57.8961L52.6893 59.2136ZM51.008 60.1288L49.5725 60.564L50.1069 62.3271L51.7251 61.4463L51.008 60.1288ZM86.3845 7.10254L84.9407 7.50927L84.9678 7.60552L86.4116 7.19879L87.8554 6.79206L87.8283 6.69581L86.3845 7.10254ZM86.4116 7.19879L85.6421 8.48641L87.8475 9.80428L88.6169 8.51666L89.3864 7.22904L87.181 5.91118L86.4116 7.19879ZM88.6169 8.51666L87.215 9.05002L88.1476 11.5015L89.5496 10.9681L90.9515 10.4348L90.0189 7.9833L88.6169 8.51666ZM89.5496 10.9681L88.0811 11.2739L88.6172 13.8488L90.0857 13.543L91.5542 13.2373L91.0181 10.6624L89.5496 10.9681ZM90.0857 13.543L88.5902 13.4273L88.3844 16.0843L89.88 16.2L91.3755 16.3158L91.5812 13.6588L90.0857 13.543ZM89.88 16.2L88.48 15.6614L87.5251 18.1433L88.9251 18.6819L90.3251 19.2206L91.2799 16.7386L89.88 16.2ZM88.9251 18.6819L87.5679 18.0431L86.4452 20.4283L87.8024 21.0671L89.1596 21.706L90.2823 19.3208L88.9251 18.6819ZM87.8024 21.0671L86.4746 20.3693L85.2399 22.7184L86.5677 23.4163L87.8955 24.1141L89.1302 21.765L87.8024 21.0671ZM86.5677 23.4163L85.3996 22.4752L83.7365 24.5397L84.9046 25.4807L86.0727 26.4218L87.7358 24.3573L86.5677 23.4163ZM84.9046 25.4807L83.9071 24.3605L81.9248 26.1255L82.9223 27.2458L83.9197 28.3661L85.9021 26.601L84.9046 25.4807ZM82.9223 27.2458L81.7038 26.3709L80.1434 28.5439L81.3618 29.4188L82.5802 30.2938L84.1407 28.1207L82.9223 27.2458ZM81.3618 29.4188L80.4136 28.2566L78.3602 29.9317L79.3084 31.094L80.2566 32.2563L82.31 30.5811L81.3618 29.4188ZM79.3084 31.094L78.271 30.0106L76.3559 31.8444L77.3933 32.9278L78.4307 34.0112L80.3458 32.1774L79.3084 31.094ZM77.3933 32.9278L76.6133 31.6466L74.3398 33.0307L75.1198 34.312L75.8999 35.5932L78.1734 34.209L77.3933 32.9278ZM75.1198 34.312L74.179 33.1437L72.1213 34.8007L73.0621 35.969L74.0029 37.1373L76.0606 35.4803L75.1198 34.312ZM73.0621 35.969L72.1406 34.7855L70.0553 36.409L70.9768 37.5926L71.8983 38.7762L73.9836 37.1526L73.0621 35.969ZM70.9768 37.5926L70.0284 36.4305L67.9816 38.1008L68.9299 39.263L69.8783 40.4251L71.9252 38.7547L70.9768 37.5926ZM68.9299 39.263L68.2261 37.9383L65.8605 39.1952L66.5643 40.5199L67.2681 41.8445L69.6337 40.5876L68.9299 39.263ZM66.5643 40.5199L65.3704 39.6118L63.7505 41.7414L64.9444 42.6495L66.1383 43.5576L67.7582 41.428L66.5643 40.5199ZM64.9444 42.6495L63.9156 41.5579L61.9976 43.3656L63.0264 44.4572L64.0552 45.5488L65.9732 43.7411L64.9444 42.6495ZM63.0264 44.4572L61.7508 43.6681L60.3654 45.9076L61.641 46.6967L62.9167 47.4858L64.3021 45.2463L63.0264 44.4572ZM61.641 46.6967L60.4425 45.7947L58.8382 47.9265L60.0367 48.8285L61.2352 49.7305L62.8396 47.5987L61.641 46.6967ZM60.0367 48.8285L58.5786 48.4762L57.9474 51.0883L59.4054 51.4407L60.8635 51.793L61.4947 49.1809L60.0367 48.8285ZM59.4054 51.4407L58.0642 50.769L56.8768 53.14L58.218 53.8117L59.5592 54.4834L60.7466 52.1123L59.4054 51.4407ZM58.218 53.8117L56.938 53.0296L55.5542 55.2944L56.8342 56.0765L58.1142 56.8586L59.498 54.5938L58.218 53.8117ZM56.8342 56.0765L55.7159 55.0767L53.9455 57.0569L55.0638 58.0567L56.1821 59.0565L57.9524 57.0762L56.8342 56.0765ZM55.0638 58.0567L54.4068 56.7082L52.0323 57.8652L52.6893 59.2136L53.3463 60.5621L55.7208 59.4052L55.0638 58.0567ZM52.6893 59.2136L51.9722 57.8961L50.2908 58.8113L51.008 60.1288L51.7251 61.4463L53.4064 60.5311L52.6893 59.2136ZM51.008 60.1288L52.4435 59.6936L52.4355 59.6674L51 60.1025L49.5645 60.5377L49.5725 60.564L51.008 60.1288Z" fill="black"/>
<path d="M66.0943 70.1357L65.5963 71.5507L65.7709 71.6121L65.9551 71.6293L66.0943 70.1357ZM68.5712 70.3666L69.1591 68.9866L68.9436 68.8948L68.7104 68.8731L68.5712 70.3666ZM71.011 71.406L70.423 72.786L70.5125 72.8241L70.6062 72.8504L71.011 71.406ZM73.5617 72.1208L74.1524 70.742L74.0616 70.7031L73.9665 70.6765L73.5617 72.1208ZM76 73.1653L76.8478 71.9279L76.7262 71.8445L76.5906 71.7865L76 73.1653ZM78.1902 74.6659L79.0505 73.4372L79.0443 73.4328L79.038 73.4285L78.1902 74.6659ZM80.3515 76.1793L81.232 74.9649L81.222 74.9576L81.2118 74.9505L80.3515 76.1793ZM82.4999 77.737L83.6044 76.7221L83.5024 76.6111L83.3804 76.5226L82.4999 77.737ZM84.2957 79.6913L85.5818 78.9194L85.5034 78.7886L85.4002 78.6763L84.2957 79.6913ZM85.6587 81.9624L84.3726 82.7343L84.4322 82.8336L84.5064 82.9227L85.6587 81.9624ZM87.3703 84.0163L88.785 83.5178L88.6954 83.2633L88.5226 83.056L87.3703 84.0163ZM88.2552 86.528L89.6875 86.0824L89.6792 86.0558L89.67 86.0296L88.2552 86.528ZM89.048 89.0762L90.5464 89.1443L90.5584 88.8816L90.4803 88.6306L89.048 89.0762ZM88.9267 91.7443L90.4246 91.8254L90.4252 91.8124L88.9267 91.7443ZM88.7844 94.3726L90.252 94.6828L90.276 94.5694L90.2822 94.4537L88.7844 94.3726ZM88.2373 96.9615L89.6597 97.4379L89.6871 97.356L89.7049 97.2716L88.2373 96.9615ZM87.3862 99.5027L88.4079 100.601L88.6873 100.341L88.8085 99.9791L87.3862 99.5027ZM85.4297 101.323L86.2858 102.555L86.3733 102.494L86.4514 102.421L85.4297 101.323ZM83.3424 102.774L84.0874 104.076L84.1445 104.043L84.1985 104.005L83.3424 102.774ZM66 70.1025L65.502 71.5175L65.5963 71.5507L66.0943 70.1357L66.5923 68.7208L66.498 68.6876L66 70.1025ZM66.0943 70.1357L65.9551 71.6293L68.432 71.8601L68.5712 70.3666L68.7104 68.8731L66.2335 68.6422L66.0943 70.1357ZM68.5712 70.3666L67.9833 71.7466L70.423 72.786L71.011 71.406L71.5989 70.026L69.1591 68.9866L68.5712 70.3666ZM71.011 71.406L70.6062 72.8504L73.157 73.5652L73.5617 72.1208L73.9665 70.6765L71.4157 69.9617L71.011 71.406ZM73.5617 72.1208L72.9711 73.4996L75.4093 74.5441L76 73.1653L76.5906 71.7865L74.1524 70.742L73.5617 72.1208ZM76 73.1653L75.1521 74.4027L77.3423 75.9034L78.1902 74.6659L79.038 73.4285L76.8478 71.9279L76 73.1653ZM78.1902 74.6659L77.3298 75.8947L79.4912 77.408L80.3515 76.1793L81.2118 74.9505L79.0505 73.4372L78.1902 74.6659ZM80.3515 76.1793L79.471 77.3936L81.6194 78.9514L82.4999 77.737L83.3804 76.5226L81.232 74.9649L80.3515 76.1793ZM82.4999 77.737L81.3954 78.7519L83.1912 80.7062L84.2957 79.6913L85.4002 78.6763L83.6044 76.7221L82.4999 77.737ZM84.2957 79.6913L83.0095 80.4632L84.3726 82.7343L85.6587 81.9624L86.9449 81.1905L85.5818 78.9194L84.2957 79.6913ZM85.6587 81.9624L84.5064 82.9227L86.2179 84.9765L87.3703 84.0163L88.5226 83.056L86.8111 81.0021L85.6587 81.9624ZM87.3703 84.0163L85.9555 84.5147L86.8404 87.0265L88.2552 86.528L89.67 86.0296L88.785 83.5178L87.3703 84.0163ZM88.2552 86.528L86.8229 86.9736L87.6157 89.5218L89.048 89.0762L90.4803 88.6306L89.6875 86.0824L88.2552 86.528ZM89.048 89.0762L87.5495 89.0081L87.4283 91.6762L88.9267 91.7443L90.4252 91.8124L90.5464 89.1443L89.048 89.0762ZM88.9267 91.7443L87.4289 91.6632L87.2866 94.2915L88.7844 94.3726L90.2822 94.4537L90.4245 91.8254L88.9267 91.7443ZM88.7844 94.3726L87.3168 94.0625L86.7697 96.6513L88.2373 96.9615L89.7049 97.2716L90.252 94.6828L88.7844 94.3726ZM88.2373 96.9615L86.815 96.4851L85.9639 99.0263L87.3862 99.5027L88.8085 99.9791L89.6597 97.4379L88.2373 96.9615ZM87.3862 99.5027L86.3645 98.4045L84.4079 100.225L85.4297 101.323L86.4514 102.421L88.4079 100.601L87.3862 99.5027ZM85.4297 101.323L84.5736 100.091L82.4863 101.542L83.3424 102.774L84.1985 104.005L86.2858 102.555L85.4297 101.323ZM83.3424 102.774L82.5974 101.472L82.0228 101.801L82.7678 103.103L83.5128 104.404L84.0874 104.076L83.3424 102.774Z" fill="black"/>
<path d="M47.97 92.1979L46.5392 91.7476L46.5045 91.8577L46.4871 91.9719L47.97 92.1979ZM47.6055 94.5886L48.9688 95.2143L49.0566 95.0229L49.0884 94.8147L47.6055 94.5886ZM46.4959 97.0064L45.1326 96.3807L45.0683 96.5208L45.0339 96.671L46.4959 97.0064ZM45.9017 99.596L47.3358 100.036L47.3516 99.9842L47.3637 99.9315L45.9017 99.596ZM45.126 102.125L46.4833 102.763L46.5287 102.667L46.56 102.565L45.126 102.125ZM43.998 104.523L42.6406 103.885L42.6262 103.915L42.6132 103.947L43.998 104.523ZM42.9837 106.96L41.5989 106.383L41.5869 106.412L41.5761 106.442L42.9837 106.96ZM42.0685 109.446L43.375 110.183L43.4344 110.078L43.4761 109.964L42.0685 109.446ZM40.7629 111.761L41.4048 113.117L41.8354 112.913L42.0694 112.498L40.7629 111.761ZM38.4889 112.838L38.5619 114.336L38.8606 114.322L39.1308 114.194L38.4889 112.838ZM35.8696 112.966L35.5591 114.433L35.7489 114.473L35.9427 114.464L35.8696 112.966ZM33.284 112.419L33.5945 110.951L33.3192 110.893L33.0416 110.938L33.284 112.419ZM30.7547 112.833L30.5123 111.353L30.3325 111.382L30.165 111.454L30.7547 112.833ZM28.368 113.854L27.7783 112.474L27.2173 112.714L26.983 113.278L28.368 113.854ZM27.3903 116.205L28.7659 116.803L28.7707 116.792L28.7753 116.781L27.3903 116.205ZM48 92.1025L46.5692 91.6522L46.5392 91.7476L47.97 92.1979L49.4008 92.6483L49.4308 92.5529L48 92.1025ZM47.97 92.1979L46.4871 91.9719L46.1226 94.3626L47.6055 94.5886L49.0884 94.8147L49.4528 92.424L47.97 92.1979ZM47.6055 94.5886L46.2422 93.963L45.1326 96.3807L46.4959 97.0064L47.8592 97.6321L48.9688 95.2143L47.6055 94.5886ZM46.4959 97.0064L45.0339 96.671L44.4397 99.2606L45.9017 99.596L47.3637 99.9315L47.9579 97.3419L46.4959 97.0064ZM45.9017 99.596L44.4677 99.1561L43.6919 101.685L45.126 102.125L46.56 102.565L47.3358 100.036L45.9017 99.596ZM45.126 102.125L43.7686 101.487L42.6406 103.885L43.998 104.523L45.3553 105.162L46.4833 102.763L45.126 102.125ZM43.998 104.523L42.6132 103.947L41.5989 106.383L42.9837 106.96L44.3686 107.536L45.3828 105.1L43.998 104.523ZM42.9837 106.96L41.5761 106.442L40.6608 108.928L42.0685 109.446L43.4761 109.964L44.3914 107.478L42.9837 106.96ZM42.0685 109.446L40.7619 108.709L39.4563 111.024L40.7629 111.761L42.0694 112.498L43.375 110.183L42.0685 109.446ZM40.7629 111.761L40.1209 110.406L37.8469 111.482L38.4889 112.838L39.1308 114.194L41.4048 113.117L40.7629 111.761ZM38.4889 112.838L38.4158 111.34L35.7965 111.468L35.8696 112.966L35.9427 114.464L38.5619 114.336L38.4889 112.838ZM35.8696 112.966L36.1801 111.498L33.5945 110.951L33.284 112.419L32.9736 113.886L35.5591 114.433L35.8696 112.966ZM33.284 112.419L33.0416 110.938L30.5123 111.353L30.7547 112.833L30.9972 114.313L33.5265 113.899L33.284 112.419ZM30.7547 112.833L30.165 111.454L27.7783 112.474L28.368 113.854L28.9578 115.233L31.3445 114.212L30.7547 112.833ZM28.368 113.854L26.983 113.278L26.0052 115.629L27.3903 116.205L28.7753 116.781L29.753 114.43L28.368 113.854ZM27.3903 116.205L26.0147 115.607L25.6244 116.504L27 117.103L28.3756 117.701L28.7659 116.803L27.3903 116.205Z" fill="black"/>
<path d="M97.6626 4.19911L96.214 4.58856L96.3017 4.91466L96.5206 5.17173L97.6626 4.19911ZM99.1658 5.96397L100.476 5.23409L100.404 5.10438L100.308 4.99135L99.1658 5.96397ZM100.43 8.23456L101.883 7.86036L101.835 7.67337L101.741 7.50468L100.43 8.23456ZM101.085 10.7771L102.585 10.8286L102.592 10.6124L102.538 10.4029L101.085 10.7771ZM100.994 13.439L102.421 13.9L102.486 13.7003L102.493 13.4905L100.994 13.439ZM100.176 15.9713L101.553 16.5661L101.582 16.5004L101.604 16.4323L100.176 15.9713ZM99.1319 18.3892L100.481 19.0447L100.496 19.0147L100.509 18.984L99.1319 18.3892ZM97.9726 20.7753L99.1755 21.6713L99.26 21.558L99.3217 21.4308L97.9726 20.7753ZM96.3894 22.9008L97.4485 23.963L97.5266 23.8852L97.5924 23.7968L96.3894 22.9008ZM94.5082 24.7764L93.4491 23.7142L93.3138 23.8491L93.2166 24.0137L94.5082 24.7764ZM93.1479 27.0801L94.2228 28.1264L94.3481 27.9976L94.4395 27.8428L93.1479 27.0801ZM91.3011 28.9773L90.2263 27.931L90.1797 27.9789L90.1375 28.0307L91.3011 28.9773ZM89.6286 31.0334L90.5606 32.2087L90.6889 32.107L90.7923 31.9799L89.6286 31.0334ZM87.5425 32.6874L86.6106 31.512L86.5396 31.5683L86.4759 31.6328L87.5425 32.6874ZM85.6861 34.565L86.7133 35.6581L86.7334 35.6392L86.7528 35.6196L85.6861 34.565ZM83.7598 36.3752L84.7766 37.4779L84.7818 37.4731L84.787 37.4683L83.7598 36.3752ZM81.8098 38.1731L82.4832 39.5134L82.6716 39.4188L82.8266 39.2759L81.8098 38.1731ZM79.4134 39.3771L78.74 38.0368L78.5358 38.1394L78.3714 38.2981L79.4134 39.3771ZM77.4844 41.2399L78.2048 42.5555L78.3815 42.4588L78.5264 42.3189L77.4844 41.2399ZM75.1779 42.5028L74.4575 41.1872L74.3692 41.2355L74.2881 41.2952L75.1779 42.5028ZM73.1331 44.0095L73.6945 45.4005L73.8703 45.3295L74.0228 45.2171L73.1331 44.0095ZM70.6609 45.0073L70.0994 43.6164L69.855 43.715L69.6588 43.8912L70.6609 45.0073ZM68.6599 46.8039L69.0101 48.2624L69.3794 48.1737L69.662 47.92L68.6599 46.8039ZM66.9782 47.2077L65.5004 46.9508L65.1097 49.1991L67.3285 48.6662L66.9782 47.2077ZM97.6366 4.10254L96.188 4.49199L96.214 4.58856L97.6626 4.19911L99.1111 3.80966L99.0852 3.71309L97.6366 4.10254ZM97.6626 4.19911L96.5206 5.17173L98.0238 6.93659L99.1658 5.96397L100.308 4.99135L98.8045 3.22649L97.6626 4.19911ZM99.1658 5.96397L97.8553 6.69386L99.12 8.96445L100.43 8.23456L101.741 7.50468L100.476 5.23409L99.1658 5.96397ZM100.43 8.23456L98.9778 8.60877L99.6328 11.1513L101.085 10.7771L102.538 10.4029L101.883 7.86036L100.43 8.23456ZM101.085 10.7771L99.5863 10.7257L99.4949 13.3876L100.994 13.439L102.493 13.4905L102.585 10.8286L101.085 10.7771ZM100.994 13.439L99.5666 12.9781L98.7488 15.5103L100.176 15.9713L101.604 16.4323L102.421 13.9L100.994 13.439ZM100.176 15.9713L98.7992 15.3765L97.7548 17.7944L99.1319 18.3892L100.509 18.984L101.553 16.5661L100.176 15.9713ZM99.1319 18.3892L97.7827 17.7337L96.6234 20.1198L97.9726 20.7753L99.3217 21.4308L100.481 19.0447L99.1319 18.3892ZM97.9726 20.7753L96.7696 19.8793L95.1865 22.0048L96.3894 22.9008L97.5924 23.7968L99.1755 21.6713L97.9726 20.7753ZM96.3894 22.9008L95.3304 21.8386L93.4491 23.7142L94.5082 24.7764L95.5673 25.8387L97.4485 23.963L96.3894 22.9008ZM94.5082 24.7764L93.2166 24.0137L91.8563 26.3174L93.1479 27.0801L94.4395 27.8428L95.7999 25.5391L94.5082 24.7764ZM93.1479 27.0801L92.0731 26.0338L90.2263 27.931L91.3011 28.9773L92.376 30.0236L94.2228 28.1264L93.1479 27.0801ZM91.3011 28.9773L90.1375 28.0307L88.465 30.0868L89.6286 31.0334L90.7923 31.9799L92.4648 29.9238L91.3011 28.9773ZM89.6286 31.0334L88.6967 29.858L86.6106 31.512L87.5425 32.6874L88.4745 33.8628L90.5606 32.2087L89.6286 31.0334ZM87.5425 32.6874L86.4759 31.6328L84.6195 33.5103L85.6861 34.565L86.7528 35.6196L88.6092 33.7421L87.5425 32.6874ZM85.6861 34.565L84.6589 33.4719L82.7326 35.2821L83.7598 36.3752L84.787 37.4683L86.7133 35.6581L85.6861 34.565ZM83.7598 36.3752L82.743 35.2724L80.793 37.0703L81.8098 38.1731L82.8266 39.2759L84.7766 37.4779L83.7598 36.3752ZM81.8098 38.1731L81.1364 36.8328L78.74 38.0368L79.4134 39.3771L80.0868 40.7175L82.4832 39.5134L81.8098 38.1731ZM79.4134 39.3771L78.3714 38.2981L76.4424 40.1608L77.4844 41.2399L78.5264 42.3189L80.4553 40.4561L79.4134 39.3771ZM77.4844 41.2399L76.764 39.9242L74.4575 41.1872L75.1779 42.5028L75.8983 43.8185L78.2048 42.5555L77.4844 41.2399ZM75.1779 42.5028L74.2881 41.2952L72.2433 42.8019L73.1331 44.0095L74.0228 45.2171L76.0677 43.7104L75.1779 42.5028ZM73.1331 44.0095L72.5716 42.6185L70.0994 43.6164L70.6609 45.0073L71.2223 46.3983L73.6945 45.4005L73.1331 44.0095ZM70.6609 45.0073L69.6588 43.8912L67.6578 45.6877L68.6599 46.8039L69.662 47.92L71.663 46.1235L70.6609 45.0073ZM68.6599 46.8039L68.3096 45.3453L66.628 45.7492L66.9782 47.2077L67.3285 48.6662L69.0101 48.2624L68.6599 46.8039ZM66.9782 47.2077L68.4561 47.4645L68.4778 47.3394L67 47.0825L65.5222 46.8257L65.5004 46.9508L66.9782 47.2077Z" fill="black"/>
<path d="M43.045 51.2025L44.5052 51.5456L44.5429 51.3853L44.5448 51.2206L43.045 51.2025ZM42.4673 53.6611L43.9259 54.011L43.9275 54.0042L42.4673 53.6611ZM41.8477 56.2431L40.3891 55.8932L40.3256 56.1578L40.3591 56.4278L41.8477 56.2431ZM42.1748 58.8792L40.6862 59.0638L40.6937 59.1246L40.7062 59.1846L42.1748 58.8792ZM42.7083 61.4448L41.2398 61.7502L41.2426 61.7636L41.2456 61.777L42.7083 61.4448ZM43.2916 64.013L41.8288 64.3452L41.8627 64.4941L41.9258 64.6332L43.2916 64.013ZM44.3832 66.417L43.0174 67.0372L43.0768 67.1678L43.1598 67.2849L44.3832 66.417ZM45.9094 68.5681L44.686 69.4361L44.6864 69.4366L45.9094 68.5681ZM47.4308 70.7107L46.2078 71.5791L46.223 71.6006L46.239 71.6215L47.4308 70.7107ZM49.05 72.8294L47.8582 73.7402L48.0695 74.0167L48.381 74.1719L49.05 72.8294ZM51.4406 74.0207L52.146 72.6969L52.128 72.6873L52.1096 72.6781L51.4406 74.0207ZM53.7456 75.2491L53.0401 76.5728L53.2423 76.6806L53.4674 76.7231L53.7456 75.2491ZM56.3174 75.7344L57.0294 74.4142L56.8244 74.3036L56.5955 74.2604L56.3174 75.7344ZM43.0462 51.1025L41.5463 51.0845L41.5451 51.1845L43.045 51.2025L44.5448 51.2206L44.546 51.1206L43.0462 51.1025ZM43.045 51.2025L41.5847 50.8594L41.007 53.318L42.4673 53.6611L43.9275 54.0042L44.5052 51.5456L43.045 51.2025ZM42.4673 53.6611L41.0087 53.3111L40.3891 55.8932L41.8477 56.2431L43.3063 56.5931L43.9259 54.011L42.4673 53.6611ZM41.8477 56.2431L40.3591 56.4278L40.6862 59.0638L42.1748 58.8792L43.6634 58.6945L43.3363 56.0585L41.8477 56.2431ZM42.1748 58.8792L40.7062 59.1846L41.2398 61.7502L42.7083 61.4448L44.1769 61.1394L43.6434 58.5737L42.1748 58.8792ZM42.7083 61.4448L41.2456 61.777L41.8288 64.3452L43.2916 64.013L44.7543 63.6808L44.1711 61.1126L42.7083 61.4448ZM43.2916 64.013L41.9258 64.6332L43.0174 67.0372L44.3832 66.417L45.749 65.7968L44.6574 63.3928L43.2916 64.013ZM44.3832 66.417L43.1598 67.2849L44.686 69.4361L45.9094 68.5681L47.1328 67.7002L45.6066 65.549L44.3832 66.417ZM45.9094 68.5681L44.6864 69.4366L46.2078 71.5791L47.4308 70.7107L48.6538 69.8422L47.1324 67.6997L45.9094 68.5681ZM47.4308 70.7107L46.239 71.6215L47.8582 73.7402L49.05 72.8294L50.2418 71.9186L48.6227 69.7999L47.4308 70.7107ZM49.05 72.8294L48.381 74.1719L50.7716 75.3632L51.4406 74.0207L52.1096 72.6781L49.719 71.4868L49.05 72.8294ZM51.4406 74.0207L50.7351 75.3444L53.0401 76.5728L53.7456 75.2491L54.451 73.9253L52.146 72.6969L51.4406 74.0207ZM53.7456 75.2491L53.4674 76.7231L56.0392 77.2084L56.3174 75.7344L56.5955 74.2604L54.0237 73.7751L53.7456 75.2491ZM56.3174 75.7344L55.6054 77.0547L56.288 77.4228L57 76.1025L57.712 74.7823L57.0294 74.4142L56.3174 75.7344Z" fill="black"/>
<path d="M56.0564 66.1851L54.8181 67.0316L54.8641 67.0988L54.917 67.1607L56.0564 66.1851ZM57.7089 68.115L59.052 67.4471L58.9693 67.2807L58.8483 67.1394L57.7089 68.115ZM58.8902 70.4904L57.5471 71.1583L57.5952 71.2551L57.6567 71.344L58.8902 70.4904ZM60.3985 72.6699L59.1651 73.5235L59.1759 73.5392L59.1872 73.5546L60.3985 72.6699ZM61.9433 74.7849L60.732 75.6696L60.7596 75.7075L60.7896 75.7435L61.9433 74.7849ZM63.6219 76.8051L62.4682 77.7637L62.5014 77.8037L62.5373 77.8413L63.6219 76.8051ZM65.4431 78.7113L66.628 77.7914L66.5808 77.7307L66.5277 77.6751L65.4431 78.7113ZM67.0742 80.8122L68.5177 80.4041L68.4382 80.123L68.259 79.8923L67.0742 80.8122ZM67.8005 83.3812L69.2976 83.474L69.3134 83.219L69.2439 82.9732L67.8005 83.3812ZM67.6368 86.0216L66.1396 85.9287L66.1158 86.3132L66.2801 86.6616L67.6368 86.0216ZM68.7586 88.3997L67.402 89.0396L67.4053 89.0465L67.4086 89.0534L68.7586 88.3997ZM69.9121 90.7817L68.5621 91.4355L68.5679 91.4475L68.574 91.4595L69.9121 90.7817ZM71.1254 93.1771L72.3144 94.0916L72.8905 93.3425L72.4635 92.4994L71.1254 93.1771ZM69.7552 94.9588L69.9654 96.444L70.5712 96.3582L70.9443 95.8732L69.7552 94.9588ZM56 66.1025L54.7617 66.949L54.8181 67.0316L56.0564 66.1851L57.2948 65.3386L57.2383 65.256L56 66.1025ZM56.0564 66.1851L54.917 67.1607L56.5696 69.0906L57.7089 68.115L58.8483 67.1394L57.1958 65.2095L56.0564 66.1851ZM57.7089 68.115L56.3658 68.7829L57.5471 71.1583L58.8902 70.4904L60.2333 69.8225L59.052 67.4471L57.7089 68.115ZM58.8902 70.4904L57.6567 71.344L59.1651 73.5235L60.3985 72.6699L61.6319 71.8163L60.1236 69.6368L58.8902 70.4904ZM60.3985 72.6699L59.1872 73.5546L60.732 75.6696L61.9433 74.7849L63.1546 73.9002L61.6098 71.7852L60.3985 72.6699ZM61.9433 74.7849L60.7896 75.7435L62.4682 77.7637L63.6219 76.8051L64.7756 75.8465L63.097 73.8263L61.9433 74.7849ZM63.6219 76.8051L62.5373 77.8413L64.3586 79.7475L65.4431 78.7113L66.5277 77.6751L64.7064 75.7689L63.6219 76.8051ZM65.4431 78.7113L64.2583 79.6312L65.8894 81.7321L67.0742 80.8122L68.259 79.8923L66.628 77.7914L65.4431 78.7113ZM67.0742 80.8122L65.6308 81.2202L66.357 83.7892L67.8005 83.3812L69.2439 82.9732L68.5177 80.4041L67.0742 80.8122ZM67.8005 83.3812L66.3033 83.2884L66.1396 85.9287L67.6368 86.0216L69.1339 86.1144L69.2976 83.474L67.8005 83.3812ZM67.6368 86.0216L66.2801 86.6616L67.402 89.0396L68.7586 88.3997L70.1153 87.7597L68.9934 85.3816L67.6368 86.0216ZM68.7586 88.3997L67.4086 89.0534L68.5621 91.4355L69.9121 90.7817L71.2622 90.128L70.1087 87.7459L68.7586 88.3997ZM69.9121 90.7817L68.574 91.4595L69.7872 93.8549L71.1254 93.1771L72.4635 92.4994L71.2503 90.104L69.9121 90.7817ZM71.1254 93.1771L69.9363 92.2627L68.5662 94.0443L69.7552 94.9588L70.9443 95.8732L72.3144 94.0916L71.1254 93.1771ZM69.7552 94.9588L69.545 93.4736L68.5292 93.6173L68.7394 95.1025L68.9496 96.5877L69.9654 96.444L69.7552 94.9588Z" fill="black"/>
<path d="M57.0921 116.062L57.6946 117.436L58.4647 117.098L58.5784 116.265L57.0921 116.062ZM57.4419 113.498L56.5661 112.28L56.0428 112.656L55.9557 113.295L57.4419 113.498ZM59.549 111.982L59.4445 110.486L59.0192 110.516L58.6732 110.764L59.549 111.982ZM62.0912 111.805L62.4421 110.346L62.2173 110.292L61.9866 110.308L62.0912 111.805ZM64.6588 112.422L64.3078 113.881L65.1608 114.086L65.7578 113.443L64.6588 112.422ZM65.936 111.047L67.0351 112.068L67.5457 111.518L67.412 110.78L65.936 111.047ZM65.4653 108.45L66.9413 108.182L66.9306 108.123L66.9151 108.064L65.4653 108.45ZM64.7859 105.892L63.3057 106.134L63.3175 106.206L63.3362 106.277L64.7859 105.892ZM64.3587 103.286L62.8626 103.395L62.8675 103.462L62.8784 103.528L64.3587 103.286ZM64.1655 100.634L65.6615 100.525L65.6463 100.317L65.5746 100.12L64.1655 100.634ZM63.2483 98.1211L61.7604 98.312L61.7818 98.4781L61.8392 98.6354L63.2483 98.1211ZM62.9119 95.4993L64.3997 95.3084L64.368 95.0613L64.2582 94.8378L62.9119 95.4993ZM61.7801 93.1958L63.1263 92.5343L63.0894 92.459L63.0442 92.3884L61.7801 93.1958ZM60.3652 90.9809L61.6294 90.1734L61.6146 90.1502L61.599 90.1277L60.3652 90.9809ZM58.8687 88.8168L57.5801 89.5846L57.6061 89.6282L57.635 89.67L58.8687 88.8168ZM57.5356 86.5794L58.8243 85.8116L58.7534 85.6927L58.662 85.5888L57.5356 86.5794ZM57.0005 116.103L57.603 117.476L57.6946 117.436L57.0921 116.062L56.4897 114.689L56.3981 114.729L57.0005 116.103ZM57.0921 116.062L58.5784 116.265L58.9282 113.7L57.4419 113.498L55.9557 113.295L55.6059 115.86L57.0921 116.062ZM57.4419 113.498L58.3178 114.715L60.4248 113.2L59.549 111.982L58.6732 110.764L56.5661 112.28L57.4419 113.498ZM59.549 111.982L59.6535 113.479L62.1957 113.301L62.0912 111.805L61.9866 110.308L59.4445 110.486L59.549 111.982ZM62.0912 111.805L61.7402 113.263L64.3078 113.881L64.6588 112.422L65.0097 110.964L62.4421 110.346L62.0912 111.805ZM64.6588 112.422L65.7578 113.443L67.0351 112.068L65.936 111.047L64.8369 110.027L63.5597 111.402L64.6588 112.422ZM65.936 111.047L67.412 110.78L66.9413 108.182L65.4653 108.45L63.9894 108.717L64.46 111.315L65.936 111.047ZM65.4653 108.45L66.9151 108.064L66.2356 105.507L64.7859 105.892L63.3362 106.277L64.0156 108.835L65.4653 108.45ZM64.7859 105.892L66.2662 105.649L65.8389 103.043L64.3587 103.286L62.8784 103.528L63.3057 106.134L64.7859 105.892ZM64.3587 103.286L65.8547 103.177L65.6615 100.525L64.1655 100.634L62.6694 100.743L62.8626 103.395L64.3587 103.286ZM64.1655 100.634L65.5746 100.12L64.6574 97.6069L63.2483 98.1211L61.8392 98.6354L62.7564 101.149L64.1655 100.634ZM63.2483 98.1211L64.7361 97.9303L64.3997 95.3084L62.9119 95.4993L61.4241 95.6901L61.7604 98.312L63.2483 98.1211ZM62.9119 95.4993L64.2582 94.8378L63.1263 92.5343L61.7801 93.1958L60.4338 93.8573L61.5656 96.1608L62.9119 95.4993ZM61.7801 93.1958L63.0442 92.3884L61.6294 90.1734L60.3652 90.9809L59.1011 91.7883L60.516 94.0033L61.7801 93.1958ZM60.3652 90.9809L61.599 90.1277L60.1024 87.9636L58.8687 88.8168L57.635 89.67L59.1315 91.834L60.3652 90.9809ZM58.8687 88.8168L60.1573 88.049L58.8243 85.8116L57.5356 86.5794L56.247 87.3471L57.5801 89.5846L58.8687 88.8168ZM57.5356 86.5794L58.662 85.5888L58.2426 85.1119L57.1163 86.1025L55.9899 87.0932L56.4093 87.57L57.5356 86.5794Z" fill="black"/>
<path d="M78.9074 86.999L78.3412 85.61L77.6578 85.8885L77.4615 86.5998L78.9074 86.999ZM78.2293 89.4555L79.5921 90.0822L79.6429 89.9718L79.6752 89.8546L78.2293 89.4555ZM77.14 91.8241L77.8237 93.1592L78.2859 92.9225L78.5028 92.4508L77.14 91.8241ZM75.1104 92.8634L73.6547 93.2251L74.1108 95.0606L75.7941 94.1985L75.1104 92.8634ZM74.4729 90.2975L73.0053 90.6076L73.0107 90.6335L73.0171 90.6592L74.4729 90.2975ZM73.93 87.7282L75.3976 87.4181L75.3617 87.2482L75.2879 87.0909L73.93 87.7282ZM72.8089 85.3396L74.1668 84.7023L74.1131 84.5879L74.041 84.4841L72.8089 85.3396ZM71.3033 83.171L70.0406 83.9808L70.0554 84.0039L70.0711 84.0265L71.3033 83.171ZM69.8802 80.952L68.5848 81.7084L68.6006 81.7354L68.6175 81.7618L69.8802 80.952ZM68.5387 78.6545L69.834 77.8982L69.7124 77.6898L69.5315 77.5301L68.5387 78.6545ZM66.5324 76.8831L65.3521 77.8087L65.4367 77.9167L65.5396 78.0075L66.5324 76.8831ZM64.904 74.8066L66.0843 73.881L66.0152 73.7928L65.9337 73.7159L64.904 74.8066ZM62.9819 72.992L61.7949 73.9091L61.8667 74.0021L61.9522 74.0827L62.9819 72.992ZM61.3588 70.8914L62.5458 69.9743L62.459 69.862L62.3527 69.7679L61.3588 70.8914ZM59.3785 69.1396L60.3723 68.0161L60.3464 67.9932L60.3195 67.9715L59.3785 69.1396ZM57.3219 67.4827L56.1771 68.452L56.2695 68.5611L56.3808 68.6508L57.3219 67.4827ZM79 86.9612L78.4338 85.5722L78.3412 85.61L78.9074 86.999L79.4736 88.388L79.5662 88.3503L79 86.9612ZM78.9074 86.999L77.4615 86.5998L76.7834 89.0563L78.2293 89.4555L79.6752 89.8546L80.3533 87.3981L78.9074 86.999ZM78.2293 89.4555L76.8665 88.8287L75.7772 91.1974L77.14 91.8241L78.5028 92.4508L79.5921 90.0822L78.2293 89.4555ZM77.14 91.8241L76.4563 90.489L74.4267 91.5283L75.1104 92.8634L75.7941 94.1985L77.8237 93.1592L77.14 91.8241ZM75.1104 92.8634L76.5662 92.5017L75.9286 89.9358L74.4729 90.2975L73.0171 90.6592L73.6547 93.2251L75.1104 92.8634ZM74.4729 90.2975L75.9405 89.9874L75.3976 87.4181L73.93 87.7282L72.4624 88.0383L73.0053 90.6076L74.4729 90.2975ZM73.93 87.7282L75.2879 87.0909L74.1668 84.7023L72.8089 85.3396L71.451 85.9769L72.5722 88.3655L73.93 87.7282ZM72.8089 85.3396L74.041 84.4841L72.5354 82.3155L71.3033 83.171L70.0711 84.0265L71.5768 86.1951L72.8089 85.3396ZM71.3033 83.171L72.5659 82.3612L71.1428 80.1422L69.8802 80.952L68.6175 81.7618L70.0406 83.9808L71.3033 83.171ZM69.8802 80.952L71.1755 80.1957L69.834 77.8982L68.5387 78.6545L67.2433 79.4109L68.5848 81.7084L69.8802 80.952ZM68.5387 78.6545L69.5315 77.5301L67.5252 75.7587L66.5324 76.8831L65.5396 78.0075L67.5459 79.779L68.5387 78.6545ZM66.5324 76.8831L67.7127 75.9574L66.0843 73.881L64.904 74.8066L63.7237 75.7323L65.3521 77.8087L66.5324 76.8831ZM64.904 74.8066L65.9337 73.7159L64.0116 71.9013L62.9819 72.992L61.9522 74.0827L63.8743 75.8974L64.904 74.8066ZM62.9819 72.992L64.1688 72.0749L62.5458 69.9743L61.3588 70.8914L60.1719 71.8086L61.7949 73.9091L62.9819 72.992ZM61.3588 70.8914L62.3527 69.7679L60.3723 68.0161L59.3785 69.1396L58.3846 70.2631L60.365 72.0149L61.3588 70.8914ZM59.3785 69.1396L60.3195 67.9715L58.2629 66.3146L57.3219 67.4827L56.3808 68.6508L58.4374 70.3077L59.3785 69.1396ZM57.3219 67.4827L58.4667 66.5135L58.1448 66.1333L57 67.1025L55.8552 68.0718L56.1771 68.452L57.3219 67.4827Z" fill="black"/>
<path d="M68.0519 94.2023L69.5515 94.1672L69.5507 94.1338L69.5484 94.1006L68.0519 94.2023ZM68.1114 96.7406L69.6074 96.8493L69.6126 96.7775L69.6109 96.7055L68.1114 96.7406ZM67.919 99.3895L66.4229 99.2808L66.4094 99.4671L66.4419 99.651L67.919 99.3895ZM68.3817 102.003L69.8612 101.756L69.86 101.749L69.8588 101.741L68.3817 102.003ZM68.816 104.602L70.3089 104.457L70.3039 104.406L70.2955 104.355L68.816 104.602ZM69.0719 107.233L67.5789 107.378L67.5884 107.475L67.6103 107.57L69.0719 107.233ZM69.6654 109.806L68.2037 110.143L68.2471 110.331L68.3367 110.502L69.6654 109.806ZM70.8504 112.067L69.5217 112.764L69.8251 113.342L70.4555 113.514L70.8504 112.067ZM73.2643 112.726L72.8694 114.173L72.8921 114.179L72.915 114.185L73.2643 112.726ZM75.8409 113.343L75.4915 114.802L75.5061 114.805L75.5208 114.809L75.8409 113.343ZM78.4654 113.916L79.9101 113.513L79.6673 112.643L78.7854 112.451L78.4654 113.916ZM79.0765 116.104L79.0409 117.604L81.0661 117.652L80.5212 115.701L79.0765 116.104ZM68.0451 94.1025L66.5485 94.2043L66.5553 94.304L68.0519 94.2023L69.5484 94.1006L69.5416 94.0008L68.0451 94.1025ZM68.0519 94.2023L66.5523 94.2375L66.6118 96.7758L68.1114 96.7406L69.6109 96.7055L69.5515 94.1672L68.0519 94.2023ZM68.1114 96.7406L66.6153 96.632L66.4229 99.2808L67.919 99.3895L69.415 99.4981L69.6074 96.8493L68.1114 96.7406ZM67.919 99.3895L66.4419 99.651L66.9047 102.265L68.3817 102.003L69.8588 101.741L69.396 99.1279L67.919 99.3895ZM68.3817 102.003L66.9022 102.25L67.3365 104.849L68.816 104.602L70.2955 104.355L69.8612 101.756L68.3817 102.003ZM68.816 104.602L67.323 104.748L67.5789 107.378L69.0719 107.233L70.5648 107.088L70.3089 104.457L68.816 104.602ZM69.0719 107.233L67.6103 107.57L68.2037 110.143L69.6654 109.806L71.127 109.469L70.5335 106.896L69.0719 107.233ZM69.6654 109.806L68.3367 110.502L69.5217 112.764L70.8504 112.067L72.179 111.371L70.994 109.11L69.6654 109.806ZM70.8504 112.067L70.4555 113.514L72.8694 114.173L73.2643 112.726L73.6591 111.279L71.2452 110.62L70.8504 112.067ZM73.2643 112.726L72.915 114.185L75.4915 114.802L75.8409 113.343L76.1902 111.884L73.6136 111.267L73.2643 112.726ZM75.8409 113.343L75.5208 114.809L78.1453 115.382L78.4654 113.916L78.7854 112.451L76.1609 111.878L75.8409 113.343ZM78.4654 113.916L77.0207 114.32L77.6318 116.508L79.0765 116.104L80.5212 115.701L79.9101 113.513L78.4654 113.916ZM79.0765 116.104L79.1121 114.605L79.0355 114.603L78.9999 116.103L78.9644 117.602L79.0409 117.604L79.0765 116.104Z" fill="black"/>
<path d="M65.9 17.9512L65.8791 16.4513L65.5658 16.4557L65.2805 16.5851L65.9 17.9512ZM63.754 18.9243L63.6662 20.4217L64.036 20.4434L64.3735 20.2904L63.754 18.9243ZM61.1018 18.7688L61.1896 17.2714L61.1054 17.2664L61.0212 17.271L61.1018 18.7688ZM58.463 18.9108L58.2791 20.3995L58.4109 20.4157L58.5435 20.4086L58.463 18.9108ZM55.8321 18.5858L55.4211 20.0284L55.5329 20.0603L55.6482 20.0745L55.8321 18.5858ZM53.2832 17.8597L53.6942 16.4171L53.6267 16.3979L53.5577 16.3851L53.2832 17.8597ZM50.6866 17.3764L50.961 15.9017L50.8497 15.881L50.7365 15.8772L50.6866 17.3764ZM48.0512 17.2886L48.1012 15.7894L48.063 15.7882L48.0247 15.7888L48.0512 17.2886ZM45.4412 17.3347L45.4147 15.8349L45.2855 15.8372L45.1586 15.8615L45.4412 17.3347ZM42.8204 17.8373L42.5379 16.3641L41.994 16.4684L41.6483 16.9012L42.8204 17.8373ZM41.2407 19.8153L40.0686 18.8793L39.7272 19.3068L39.7412 19.8537L41.2407 19.8153ZM41.2996 22.1193L40.9719 23.583L42.8483 24.0031L42.7991 22.0809L41.2996 22.1193ZM66 17.9498L65.9791 16.4499L65.8791 16.4513L65.9 17.9512L65.9209 19.451L66.0209 19.4496L66 17.9498ZM65.9 17.9512L65.2805 16.5851L63.1345 17.5582L63.754 18.9243L64.3735 20.2904L66.5195 19.3173L65.9 17.9512ZM63.754 18.9243L63.8418 17.4269L61.1896 17.2714L61.1018 18.7688L61.014 20.2662L63.6662 20.4217L63.754 18.9243ZM61.1018 18.7688L61.0212 17.271L58.3824 17.4129L58.463 18.9108L58.5435 20.4086L61.1824 20.2666L61.1018 18.7688ZM58.463 18.9108L58.6468 17.4221L56.0159 17.0971L55.8321 18.5858L55.6482 20.0745L58.2791 20.3995L58.463 18.9108ZM55.8321 18.5858L56.243 17.1432L53.6942 16.4171L53.2832 17.8597L52.8723 19.3023L55.4211 20.0284L55.8321 18.5858ZM53.2832 17.8597L53.5577 16.3851L50.961 15.9017L50.6866 17.3764L50.4121 18.8511L53.0087 19.3344L53.2832 17.8597ZM50.6866 17.3764L50.7365 15.8772L48.1012 15.7894L48.0512 17.2886L48.0013 18.7878L50.6366 18.8756L50.6866 17.3764ZM48.0512 17.2886L48.0247 15.7888L45.4147 15.8349L45.4412 17.3347L45.4676 18.8344L48.0777 18.7884L48.0512 17.2886ZM45.4412 17.3347L45.1586 15.8615L42.5379 16.3641L42.8204 17.8373L43.1029 19.3104L45.7237 18.8078L45.4412 17.3347ZM42.8204 17.8373L41.6483 16.9012L40.0686 18.8793L41.2407 19.8153L42.4128 20.7514L43.9925 18.7733L42.8204 17.8373ZM41.2407 19.8153L39.7412 19.8537L39.8001 22.1576L41.2996 22.1193L42.7991 22.0809L42.7402 19.777L41.2407 19.8153ZM41.2996 22.1193L41.6274 20.6555L41.5526 20.6388L41.2249 22.1025L40.8972 23.5663L40.9719 23.583L41.2996 22.1193Z" fill="black"/>
<path d="M96.4427 37.2767L95.1738 36.4767L95.081 36.624L95.0243 36.7886L96.4427 37.2767ZM97.7901 35.1395L96.6802 34.1305L96.5916 34.228L96.5212 34.3395L97.7901 35.1395ZM99.5784 33.1725L100.688 34.1816L100.879 33.9714L100.98 33.7059L99.5784 33.1725ZM100.522 30.6919L101.924 31.2253L101.998 31.0318L102.016 30.8256L100.522 30.6919ZM100.746 28.1896L102.24 28.3232L102.347 27.1321L101.209 26.7628L100.746 28.1896ZM98.8729 27.5816L99.336 26.1548L98.4386 25.8635L97.7874 26.5463L98.8729 27.5816ZM97.0516 29.4913L95.9661 28.456L95.9413 28.4821L95.9177 28.5094L97.0516 29.4913ZM95.3176 31.494L96.3045 32.6236L96.3832 32.5548L96.4515 32.4759L95.3176 31.494ZM93.3255 33.2345L94.1696 34.4745L94.2444 34.4236L94.3124 34.3641L93.3255 33.2345ZM91.1294 34.7296L90.2852 33.4897L90.1264 33.5978L89.9999 33.7425L91.1294 34.7296ZM89.369 36.7439L90.2187 37.98L90.3743 37.8731L90.4984 37.731L89.369 36.7439ZM87.1848 38.2454L86.3351 37.0093L86.292 37.039L86.2511 37.0715L87.1848 38.2454ZM85.1088 39.8967L85.7541 41.2508L85.9086 41.1772L86.0426 41.0706L85.1088 39.8967ZM82.705 41.0421L82.0597 39.6879L81.9769 39.7274L81.8994 39.7767L82.705 41.0421ZM80.4777 42.46L81.2545 43.7432L81.269 43.7344L81.2832 43.7254L80.4777 42.46ZM78.2174 43.8286L77.4405 42.5454L77.4321 42.5505L77.4237 42.5557L78.2174 43.8286ZM75.9459 45.245L75.7167 46.7274L76.2671 46.8125L76.7396 46.5178L75.9459 45.245ZM96.4101 37.3712L97.8285 37.8594L97.861 37.7648L96.4427 37.2767L95.0243 36.7886L94.9918 36.8831L96.4101 37.3712ZM96.4427 37.2767L97.7116 38.0767L99.059 35.9395L97.7901 35.1395L96.5212 34.3395L95.1738 36.4767L96.4427 37.2767ZM97.7901 35.1395L98.9 36.1486L100.688 34.1816L99.5784 33.1725L98.4686 32.1635L96.6802 34.1305L97.7901 35.1395ZM99.5784 33.1725L100.98 33.7059L101.924 31.2253L100.522 30.6919L99.1202 30.1585L98.1765 32.6391L99.5784 33.1725ZM100.522 30.6919L102.016 30.8256L102.24 28.3232L100.746 28.1896L99.252 28.0559L99.0282 30.5583L100.522 30.6919ZM100.746 28.1896L101.209 26.7628L99.336 26.1548L98.8729 27.5816L98.4098 29.0083L100.283 29.6163L100.746 28.1896ZM98.8729 27.5816L97.7874 26.5463L95.9661 28.456L97.0516 29.4913L98.1371 30.5265L99.9584 28.6168L98.8729 27.5816ZM97.0516 29.4913L95.9177 28.5094L94.1836 30.5121L95.3176 31.494L96.4515 32.4759L98.1856 30.4731L97.0516 29.4913ZM95.3176 31.494L94.3306 30.3644L92.3385 32.105L93.3255 33.2345L94.3124 34.3641L96.3045 32.6236L95.3176 31.494ZM93.3255 33.2345L92.4814 31.9946L90.2852 33.4897L91.1294 34.7296L91.9735 35.9696L94.1696 34.4745L93.3255 33.2345ZM91.1294 34.7296L89.9999 33.7425L88.2395 35.7569L89.369 36.7439L90.4984 37.731L92.2588 35.7167L91.1294 34.7296ZM89.369 36.7439L88.5192 35.5078L86.3351 37.0093L87.1848 38.2454L88.0346 39.4815L90.2187 37.98L89.369 36.7439ZM87.1848 38.2454L86.2511 37.0715L84.1751 38.7228L85.1088 39.8967L86.0426 41.0706L88.1186 39.4194L87.1848 38.2454ZM85.1088 39.8967L84.4636 38.5425L82.0597 39.6879L82.705 41.0421L83.3502 42.3962L85.7541 41.2508L85.1088 39.8967ZM82.705 41.0421L81.8994 39.7767L79.6721 41.1947L80.4777 42.46L81.2832 43.7254L83.5105 42.3074L82.705 41.0421ZM80.4777 42.46L79.7008 41.1769L77.4405 42.5454L78.2174 43.8286L78.9943 45.1117L81.2545 43.7432L80.4777 42.46ZM78.2174 43.8286L77.4237 42.5557L75.1522 43.9722L75.9459 45.245L76.7396 46.5178L79.0111 45.1014L78.2174 43.8286ZM75.9459 45.245L76.175 43.7626L75.2291 43.6164L75 45.0988L74.7709 46.5812L75.7167 46.7274L75.9459 45.245Z" fill="black"/>
<path d="M51.9 116.103V114.603H51.8677L51.8355 114.604L51.9 116.103ZM49.36 116.212L49.203 117.704L49.3135 117.715L49.4245 117.71L49.36 116.212ZM46.72 115.934L46.877 114.442L46.7261 114.426L46.575 114.441L46.72 115.934ZM44.08 116.19L44.1404 117.689L44.1828 117.687L44.225 117.683L44.08 116.19ZM41.44 116.297L41.3237 117.792L41.412 117.799L41.5004 117.796L41.44 116.297ZM38.8 116.091L38.9163 114.596L38.8608 114.592L38.8052 114.591L38.8 116.091ZM36.16 116.082L36.1652 114.582L36.1088 114.582L36.0526 114.586L36.16 116.082ZM33.52 116.272L33.4757 117.771L33.5517 117.774L33.6274 117.768L33.52 116.272ZM31 116.198H29.5V117.654L30.9557 117.697L31 116.198ZM52 116.103V114.603H51.9V116.103V117.603H52V116.103ZM51.9 116.103L51.8355 114.604L49.2955 114.713L49.36 116.212L49.4245 117.71L51.9645 117.601L51.9 116.103ZM49.36 116.212L49.517 114.72L46.877 114.442L46.72 115.934L46.563 117.426L49.203 117.704L49.36 116.212ZM46.72 115.934L46.575 114.441L43.935 114.697L44.08 116.19L44.225 117.683L46.865 117.427L46.72 115.934ZM44.08 116.19L44.0196 114.692L41.3796 114.798L41.44 116.297L41.5004 117.796L44.1404 117.689L44.08 116.19ZM41.44 116.297L41.5563 114.801L38.9163 114.596L38.8 116.091L38.6837 117.587L41.3237 117.792L41.44 116.297ZM38.8 116.091L38.8052 114.591L36.1652 114.582L36.16 116.082L36.1548 117.582L38.7948 117.591L38.8 116.091ZM36.16 116.082L36.0526 114.586L33.4126 114.776L33.52 116.272L33.6274 117.768L36.2674 117.579L36.16 116.082ZM33.52 116.272L33.5643 114.773L31.0443 114.698L31 116.198L30.9557 117.697L33.4757 117.771L33.52 116.272ZM31 116.198H32.5V116.103H31H29.5V116.198H31Z" fill="black"/>
<path d="M73.0971 54.9848L73.0787 53.4849L72.9045 53.487L72.7355 53.529L73.0971 54.9848ZM75.6271 54.9538L75.6455 56.4537L75.6795 56.4533L75.7135 56.4513L75.6271 54.9538ZM78.2782 54.8009L78.3646 56.2984L78.6252 56.2834L78.8654 56.1812L78.2782 54.8009ZM80.7232 53.7607L81.3104 55.141L81.3387 55.129L81.3664 55.1158L80.7232 53.7607ZM83.0983 52.6335L82.5066 51.2552L82.4806 51.2663L82.4552 51.2784L83.0983 52.6335ZM85.5246 51.5918L86.1164 52.9702L86.2119 52.9292L86.3009 52.8753L85.5246 51.5918ZM87.784 50.2253L88.5603 51.5088L88.6389 51.4613L88.7111 51.4045L87.784 50.2253ZM89.8604 48.5928L89.0766 47.3139L89.0021 47.3596L88.9333 47.4136L89.8604 48.5928ZM92.0765 47.2348L92.8603 48.5137L92.9569 48.4545L93.0435 48.3814L92.0765 47.2348ZM94.0959 45.5318L95.0629 46.6785L95.2264 46.5406L95.3449 46.3625L94.0959 45.5318ZM95.5756 43.307L94.3786 42.403L94.3516 42.4389L94.3267 42.4763L95.5756 43.307ZM97.1518 41.2201L98.3487 42.1241L98.545 41.8642L98.6158 41.5464L97.1518 41.2201ZM97.6629 38.9267L99.127 39.2531L99.4673 37.7263L97.9276 37.4503L97.6629 38.9267ZM95.5729 38.552L95.8376 37.0756L95.1472 36.9518L94.6095 37.4023L95.5729 38.552ZM93.5483 40.2486L94.4856 41.4197L94.4988 41.4091L94.5117 41.3983L93.5483 40.2486ZM91.4848 41.9002L90.5475 40.7291L90.5426 40.7331L91.4848 41.9002ZM89.4233 43.5644L90.0274 44.9374L90.2101 44.857L90.3655 44.7315L89.4233 43.5644ZM86.9691 44.6441L86.365 43.2711L86.1494 43.3659L85.9733 43.5223L86.9691 44.6441ZM84.9636 46.4243L85.565 47.7985L85.7822 47.7035L85.9594 47.5461L84.9636 46.4243ZM82.5286 47.49L81.9272 46.1159L81.8627 46.1441L81.801 46.1783L82.5286 47.49ZM80.213 48.7744L80.5851 50.2275L80.7719 50.1797L80.9406 50.0862L80.213 48.7744ZM77.632 49.4354L77.2599 47.9822L77.0716 48.0305L76.9017 48.1251L77.632 49.4354ZM75.2628 50.7559L74.8385 52.1946L75.4428 52.3728L75.9931 52.0661L75.2628 50.7559ZM73 55.0089L73.3616 56.4647L73.4586 56.4406L73.0971 54.9848L72.7355 53.529L72.6384 53.5531L73 55.0089ZM73.0971 54.9848L73.1154 56.4847L75.6455 56.4537L75.6271 54.9538L75.6088 53.4539L73.0787 53.4849L73.0971 54.9848ZM75.6271 54.9538L75.7135 56.4513L78.3646 56.2984L78.2782 54.8009L78.1918 53.3034L75.5407 53.4563L75.6271 54.9538ZM78.2782 54.8009L78.8654 56.1812L81.3104 55.141L80.7232 53.7607L80.136 52.3804L77.691 53.4206L78.2782 54.8009ZM80.7232 53.7607L81.3664 55.1158L83.7415 53.9886L83.0983 52.6335L82.4552 51.2784L80.0801 52.4056L80.7232 53.7607ZM83.0983 52.6335L83.6901 54.0119L86.1164 52.9702L85.5246 51.5918L84.9329 50.2135L82.5066 51.2552L83.0983 52.6335ZM85.5246 51.5918L86.3009 52.8753L88.5603 51.5088L87.784 50.2253L87.0078 48.9418L84.7483 50.3083L85.5246 51.5918ZM87.784 50.2253L88.7111 51.4045L90.7875 49.772L89.8604 48.5928L88.9333 47.4136L86.8569 49.0461L87.784 50.2253ZM89.8604 48.5928L90.6442 49.8718L92.8603 48.5137L92.0765 47.2348L91.2927 45.9558L89.0766 47.3139L89.8604 48.5928ZM92.0765 47.2348L93.0435 48.3814L95.0629 46.6785L94.0959 45.5318L93.1289 44.3851L91.1095 46.0881L92.0765 47.2348ZM94.0959 45.5318L95.3449 46.3625L96.8246 44.1377L95.5756 43.307L94.3267 42.4763L92.847 44.7011L94.0959 45.5318ZM95.5756 43.307L96.7726 44.211L98.3487 42.1241L97.1518 41.2201L95.9548 40.3161L94.3786 42.403L95.5756 43.307ZM97.1518 41.2201L98.6158 41.5464L99.127 39.2531L97.6629 38.9267L96.1988 38.6004L95.6877 40.8937L97.1518 41.2201ZM97.6629 38.9267L97.9276 37.4503L95.8376 37.0756L95.5729 38.552L95.3082 40.0285L97.3982 40.4032L97.6629 38.9267ZM95.5729 38.552L94.6095 37.4023L92.5849 39.0989L93.5483 40.2486L94.5117 41.3983L96.5363 39.7017L95.5729 38.552ZM93.5483 40.2486L92.6109 39.0775L90.5475 40.7291L91.4848 41.9002L92.4222 43.0713L94.4856 41.4197L93.5483 40.2486ZM91.4848 41.9002L90.5426 40.7331L88.4811 42.3972L89.4233 43.5644L90.3655 44.7315L92.427 43.0674L91.4848 41.9002ZM89.4233 43.5644L88.8193 42.1914L86.365 43.2711L86.9691 44.6441L87.5731 46.0171L90.0274 44.9374L89.4233 43.5644ZM86.9691 44.6441L85.9733 43.5223L83.9678 45.3025L84.9636 46.4243L85.9594 47.5461L87.9649 45.7659L86.9691 44.6441ZM84.9636 46.4243L84.3622 45.0502L81.9272 46.1159L82.5286 47.49L83.13 48.8642L85.565 47.7985L84.9636 46.4243ZM82.5286 47.49L81.801 46.1783L79.4854 47.4627L80.213 48.7744L80.9406 50.0862L83.2562 48.8018L82.5286 47.49ZM80.213 48.7744L79.8409 47.3213L77.2599 47.9822L77.632 49.4354L78.0041 50.8885L80.5851 50.2275L80.213 48.7744ZM77.632 49.4354L76.9017 48.1251L74.5325 49.4457L75.2628 50.7559L75.9931 52.0661L78.3623 50.7456L77.632 49.4354ZM75.2628 50.7559L75.6871 49.3172L74.6635 49.0153L74.2392 50.454L73.8149 51.8928L74.8385 52.1946L75.2628 50.7559Z" fill="black"/>
<path d="M78.9 117.103V115.603H78.8677L78.8355 115.604L78.9 117.103ZM76.36 117.212L76.2028 118.704L76.3134 118.715L76.4245 118.71L76.36 117.212ZM73.7229 116.934L73.8801 115.442L73.7291 115.426L73.578 115.441L73.7229 116.934ZM71.0814 117.19L71.1417 118.689L71.1841 118.687L71.2263 118.683L71.0814 117.19ZM68.4399 117.297L68.3236 118.792L68.4118 118.799L68.5002 118.796L68.4399 117.297ZM65.7996 117.091L65.9159 115.596L65.8604 115.592L65.8048 115.591L65.7996 117.091ZM63.1594 117.082L63.1645 115.582L63.1082 115.582L63.052 115.586L63.1594 117.082ZM60.5175 117.272L60.4752 118.771L60.5502 118.773L60.6249 118.768L60.5175 117.272ZM57.88 117.198L57.7191 118.689L57.7782 118.695L57.8377 118.697L57.88 117.198ZM79 117.103V115.603H78.9V117.103V118.603H79V117.103ZM78.9 117.103L78.8355 115.604L76.2955 115.713L76.36 117.212L76.4245 118.71L78.9645 118.601L78.9 117.103ZM76.36 117.212L76.5172 115.72L73.8801 115.442L73.7229 116.934L73.5657 118.426L76.2028 118.704L76.36 117.212ZM73.7229 116.934L73.578 115.441L70.9365 115.697L71.0814 117.19L71.2263 118.683L73.8678 118.427L73.7229 116.934ZM71.0814 117.19L71.021 115.692L68.3795 115.798L68.4399 117.297L68.5002 118.796L71.1417 118.689L71.0814 117.19ZM68.4399 117.297L68.5561 115.801L65.9159 115.596L65.7996 117.091L65.6834 118.587L68.3236 118.792L68.4399 117.297ZM65.7996 117.091L65.8048 115.591L63.1645 115.582L63.1594 117.082L63.1542 118.582L65.7944 118.591L65.7996 117.091ZM63.1594 117.082L63.052 115.586L60.4102 115.776L60.5175 117.272L60.6249 118.768L63.2667 118.579L63.1594 117.082ZM60.5175 117.272L60.5599 115.773L57.9223 115.698L57.88 117.198L57.8377 118.697L60.4752 118.771L60.5175 117.272ZM57.88 117.198L58.0409 115.706L57.1609 115.611L57 117.103L56.8391 118.594L57.7191 118.689L57.88 117.198Z" fill="black"/>
<path d="M89.1981 18.2011L87.7202 17.9445L87.573 18.7925L88.2308 19.3475L89.1981 18.2011ZM91.0925 19.7994L92.4285 20.4814L92.9699 19.4209L92.0598 18.653L91.0925 19.7994ZM89.8777 22.1791L91.1856 22.9135L91.2002 22.8876L91.2137 22.8611L89.8777 22.1791ZM88.5846 24.4819L89.6764 25.5105L89.8025 25.3767L89.8925 25.2164L88.5846 24.4819ZM89.2152 18.1025L87.7373 17.846L87.7202 17.9445L89.1981 18.2011L90.676 18.4576L90.6931 18.3591L89.2152 18.1025ZM89.1981 18.2011L88.2308 19.3475L90.1252 20.9459L91.0925 19.7994L92.0598 18.653L90.1654 17.0546L89.1981 18.2011ZM91.0925 19.7994L89.7565 19.1174L88.5418 21.4971L89.8777 22.1791L91.2137 22.8611L92.4285 20.4814L91.0925 19.7994ZM89.8777 22.1791L88.5699 21.4446L87.2767 23.7475L88.5846 24.4819L89.8925 25.2164L91.1856 22.9135L89.8777 22.1791ZM88.5846 24.4819L87.4927 23.4534L86.9081 24.074L88 25.1025L89.0919 26.131L89.6764 25.5105L88.5846 24.4819Z" fill="black"/>
<path d="M22.5843 22.3817L21.6034 23.5166L21.8322 23.7144L22.1198 23.808L22.5843 22.3817ZM20.6645 20.7223L19.3637 21.4692L19.4906 21.6904L19.6836 21.8572L20.6645 20.7223ZM19.335 18.407L20.6358 17.66L20.4095 17.2658L20.0023 17.0636L19.335 18.407ZM16.9775 17.2359L17.6448 15.8925L16.163 15.1564L15.5753 16.703L16.9775 17.2359ZM16.3255 18.9517L14.9233 18.4189L14.7669 18.8303L14.8577 19.261L16.3255 18.9517ZM16.865 21.5121L15.3973 21.8214L15.4549 22.0949L15.6072 22.3293L16.865 21.5121ZM18.3003 23.7211L17.0425 24.5383L17.184 24.7561L17.3904 24.9136L18.3003 23.7211ZM20.3881 25.314L19.4782 26.5065L19.4877 26.5137L19.4972 26.5208L20.3881 25.314ZM22.5045 26.8762L23.7989 26.1183L23.6432 25.8524L23.3953 25.6694L22.5045 26.8762ZM23.7735 29.0433L22.4791 29.8013L22.793 30.3373L23.3939 30.4945L23.7735 29.0433ZM22.6794 22.4127L23.1438 20.9864L23.0487 20.9555L22.5843 22.3817L22.1198 23.808L22.2149 23.839L22.6794 22.4127ZM22.5843 22.3817L23.5652 21.2469L21.6454 19.5875L20.6645 20.7223L19.6836 21.8572L21.6034 23.5166L22.5843 22.3817ZM20.6645 20.7223L21.9653 19.9754L20.6358 17.66L19.335 18.407L18.0342 19.1539L19.3637 21.4692L20.6645 20.7223ZM19.335 18.407L20.0023 17.0636L17.6448 15.8925L16.9775 17.2359L16.3102 18.5793L18.6677 19.7503L19.335 18.407ZM16.9775 17.2359L15.5753 16.703L14.9233 18.4189L16.3255 18.9517L17.7276 19.4845L18.3797 17.7687L16.9775 17.2359ZM16.3255 18.9517L14.8577 19.261L15.3973 21.8214L16.865 21.5121L18.3328 21.2028L17.7932 18.6424L16.3255 18.9517ZM16.865 21.5121L15.6072 22.3293L17.0425 24.5383L18.3003 23.7211L19.5581 22.9038L18.1228 20.6948L16.865 21.5121ZM18.3003 23.7211L17.3904 24.9136L19.4782 26.5065L20.3881 25.314L21.2979 24.1214L19.2102 22.5285L18.3003 23.7211ZM20.3881 25.314L19.4972 26.5208L21.6137 28.0831L22.5045 26.8762L23.3953 25.6694L21.2789 24.1071L20.3881 25.314ZM22.5045 26.8762L21.2101 27.6342L22.4791 29.8013L23.7735 29.0433L25.0679 28.2853L23.7989 26.1183L22.5045 26.8762ZM23.7735 29.0433L23.3939 30.4945L23.6204 30.5537L24 29.1025L24.3796 27.6514L24.153 27.5921L23.7735 29.0433Z" fill="black"/>
<path d="M53.9552 96.1919L52.6145 95.5192L52.6121 95.5239L53.9552 96.1919ZM52.856 98.4018L54.1821 99.1028L54.1908 99.0864L54.199 99.0698L52.856 98.4018ZM51.6167 100.746L50.2906 100.045L50.2447 100.132L50.2105 100.224L51.6167 100.746ZM50.6948 103.23L52.0412 103.891L52.0747 103.823L52.1011 103.752L50.6948 103.23ZM49.5284 105.605L50.7719 106.444L50.8294 106.359L50.8748 106.266L49.5284 105.605ZM48.047 107.801L46.8034 106.963L46.7701 107.012L46.7407 107.064L48.047 107.801ZM46.7491 110.101L45.4428 109.363L45.398 109.443L45.3631 109.527L46.7491 110.101ZM45.7555 112.501L46.6799 113.682L46.9906 113.439L47.1415 113.075L45.7555 112.501ZM54 96.1025L52.6593 95.4298L52.6145 95.5192L53.9552 96.1919L55.2958 96.8646L55.3407 96.7753L54 96.1025ZM53.9552 96.1919L52.6121 95.5239L51.5129 97.7338L52.856 98.4018L54.199 99.0698L55.2982 96.8599L53.9552 96.1919ZM52.856 98.4018L51.5298 97.7008L50.2906 100.045L51.6167 100.746L52.9429 101.447L54.1821 99.1028L52.856 98.4018ZM51.6167 100.746L50.2105 100.224L49.2886 102.708L50.6948 103.23L52.1011 103.752L53.023 101.268L51.6167 100.746ZM50.6948 103.23L49.3484 102.569L48.1819 104.944L49.5284 105.605L50.8748 106.266L52.0412 103.891L50.6948 103.23ZM49.5284 105.605L48.2848 104.766L46.8034 106.963L48.047 107.801L49.2905 108.64L50.7719 106.444L49.5284 105.605ZM48.047 107.801L46.7407 107.064L45.4428 109.363L46.7491 110.101L48.0553 110.838L49.3532 108.539L48.047 107.801ZM46.7491 110.101L45.3631 109.527L44.3696 111.927L45.7555 112.501L47.1415 113.075L48.135 110.674L46.7491 110.101ZM45.7555 112.501L44.8311 111.32L44.0756 111.911L45 113.092L45.9244 114.273L46.6799 113.682L45.7555 112.501Z" fill="black"/>
<path d="M67.0674 70.1764L68.2772 69.2896L68.2295 69.2244L68.175 69.1647L67.0674 70.1764ZM68.5029 72.1346L67.2931 73.0214L67.3333 73.0763L67.3783 73.1272L68.5029 72.1346ZM70.2587 74.1238L69.1341 75.1164L69.2144 75.2074L69.3083 75.2843L70.2587 74.1238ZM72.3093 75.8033L73.3629 74.7356L73.3135 74.6868L73.2598 74.6428L72.3093 75.8033ZM74.1933 77.6622L75.3935 76.7625L75.3264 76.673L75.2468 76.5945L74.1933 77.6622ZM75.7831 79.7831L74.5829 80.6828L74.5893 80.6912L75.7831 79.7831ZM77.3792 81.8812L78.6249 81.0456L78.6 81.0085L78.573 80.973L77.3792 81.8812ZM78.858 84.0856L80.2615 83.5563L80.2003 83.394L80.1037 83.25L78.858 84.0856ZM79.7978 86.5774L78.3943 87.1068L78.45 87.2545L78.5352 87.3874L79.7978 86.5774ZM81.1402 88.67L82.4784 87.9922L82.4439 87.9242L82.4028 87.86L81.1402 88.67ZM82.3353 91.0293L83.8158 90.7884L83.7784 90.559L83.6734 90.3516L82.3353 91.0293ZM82.7651 93.671L81.2846 93.912L81.2858 93.9195L81.2872 93.9271L82.7651 93.671ZM83.2188 96.2898L84.7055 96.4891L84.7361 96.2607L84.6968 96.0337L83.2188 96.2898ZM82.8639 98.9372L81.3772 98.7379L81.3715 98.7804L81.3682 98.8231L82.8639 98.9372ZM82.6632 101.568L81.1675 101.454L81.1565 101.598L81.1733 101.742L82.6632 101.568ZM82.835 103.041L83.7661 104.217L84.4218 103.698L84.3249 102.867L82.835 103.041ZM67 70.1025L65.8925 71.1142L65.9599 71.188L67.0674 70.1764L68.175 69.1647L68.1075 69.0909L67 70.1025ZM67.0674 70.1764L65.8577 71.0632L67.2931 73.0214L68.5029 72.1346L69.7127 71.2478L68.2772 69.2896L67.0674 70.1764ZM68.5029 72.1346L67.3783 73.1272L69.1341 75.1164L70.2587 74.1238L71.3833 73.1312L69.6275 71.142L68.5029 72.1346ZM70.2587 74.1238L69.3083 75.2843L71.3589 76.9638L72.3093 75.8033L73.2598 74.6428L71.2091 72.9633L70.2587 74.1238ZM72.3093 75.8033L71.2558 76.871L73.1398 78.73L74.1933 77.6622L75.2468 76.5945L73.3629 74.7356L72.3093 75.8033ZM74.1933 77.6622L72.9931 78.5619L74.5829 80.6828L75.7831 79.7831L76.9833 78.8834L75.3935 76.7625L74.1933 77.6622ZM75.7831 79.7831L74.5893 80.6912L76.1854 82.7894L77.3792 81.8812L78.573 80.973L76.977 78.8749L75.7831 79.7831ZM77.3792 81.8812L76.1335 82.7168L77.6123 84.9213L78.858 84.0856L80.1037 83.25L78.6249 81.0456L77.3792 81.8812ZM78.858 84.0856L77.4545 84.6149L78.3943 87.1068L79.7978 86.5774L81.2013 86.0481L80.2615 83.5563L78.858 84.0856ZM79.7978 86.5774L78.5352 87.3874L79.8777 89.48L81.1402 88.67L82.4028 87.86L81.0603 85.7675L79.7978 86.5774ZM81.1402 88.67L79.8021 89.3478L80.9971 91.7071L82.3353 91.0293L83.6734 90.3516L82.4784 87.9922L81.1402 88.67ZM82.3353 91.0293L80.8547 91.2703L81.2846 93.912L82.7651 93.671L84.2457 93.4301L83.8158 90.7884L82.3353 91.0293ZM82.7651 93.671L81.2872 93.9271L81.7408 96.5458L83.2188 96.2898L84.6968 96.0337L84.2431 93.415L82.7651 93.671ZM83.2188 96.2898L81.7321 96.0904L81.3772 98.7379L82.8639 98.9372L84.3506 99.1365L84.7055 96.4891L83.2188 96.2898ZM82.8639 98.9372L81.3682 98.8231L81.1675 101.454L82.6632 101.568L84.1588 101.682L84.3595 99.0513L82.8639 98.9372ZM82.6632 101.568L81.1733 101.742L81.3451 103.215L82.835 103.041L84.3249 102.867L84.1531 101.395L82.6632 101.568ZM82.835 103.041L81.9038 101.865L81.8264 101.927L82.7576 103.103L83.6887 104.279L83.7661 104.217L82.835 103.041Z" fill="black"/>
<path d="M97.9602 6.19426L99.3019 6.86498L99.3199 6.82886L99.336 6.79181L97.9602 6.19426ZM96.8291 8.45686L98.1597 9.14922L98.1653 9.13845L98.1708 9.12758L96.8291 8.45686ZM95.6039 10.8114L94.2733 10.1191L94.1915 10.2763L94.1486 10.4482L95.6039 10.8114ZM94.9612 13.3865L96.3672 13.909L96.3963 13.8308L96.4165 13.7498L94.9612 13.3865ZM94.0366 15.8744L95.3198 16.6513L95.3933 16.5299L95.4427 16.3969L94.0366 15.8744ZM92.6634 18.1425L93.8015 19.1196L93.8822 19.0255L93.9465 18.9194L92.6634 18.1425ZM90.9983 20.0819L89.8602 19.1048L89.4509 19.5815L89.5035 20.2076L90.9983 20.0819ZM98 6.10254L96.6242 5.50499L96.5843 5.59671L97.9602 6.19426L99.336 6.79181L99.3758 6.70009L98 6.10254ZM97.9602 6.19426L96.6185 5.52354L95.4874 7.78614L96.8291 8.45686L98.1708 9.12758L99.3019 6.86498L97.9602 6.19426ZM96.8291 8.45686L95.4984 7.7645L94.2733 10.1191L95.6039 10.8114L96.9346 11.5038L98.1597 9.14922L96.8291 8.45686ZM95.6039 10.8114L94.1486 10.4482L93.5058 13.0232L94.9612 13.3865L96.4165 13.7498L97.0593 11.1747L95.6039 10.8114ZM94.9612 13.3865L93.5551 12.864L92.6306 15.3519L94.0366 15.8744L95.4427 16.3969L96.3672 13.909L94.9612 13.3865ZM94.0366 15.8744L92.7535 15.0975L91.3802 17.3656L92.6634 18.1425L93.9465 18.9194L95.3198 16.6513L94.0366 15.8744ZM92.6634 18.1425L91.5253 17.1654L89.8602 19.1048L90.9983 20.0819L92.1364 21.059L93.8015 19.1196L92.6634 18.1425ZM90.9983 20.0819L89.5035 20.2076L89.5053 20.2282L91 20.1025L92.4947 19.9769L92.493 19.9563L90.9983 20.0819Z" fill="black"/>
<path d="M91.6112 47.1906L90.2906 46.4791L89.8538 47.29L90.3793 48.0464L91.6112 47.1906ZM92.9381 49.1006L94.167 49.9608L94.7668 49.1038L94.17 48.2448L92.9381 49.1006ZM91.4197 51.2699L90.1908 50.4097L90.1822 50.4221L90.1738 50.4346L91.4197 51.2699ZM89.9484 53.4645L91.012 54.5223L91.1139 54.4198L91.1944 54.2998L89.9484 53.4645ZM88.0754 55.3479L89.0421 56.4948L89.0925 56.4523L89.1389 56.4056L88.0754 55.3479ZM86.0842 57.0263L86.5983 58.4354L86.8478 58.3444L87.0509 58.1732L86.0842 57.0263ZM83.6727 57.9062L83.1585 56.497L83.1261 56.5089L83.0944 56.5221L83.6727 57.9062ZM81.2305 58.9266L81.6256 60.3736L81.7193 60.3481L81.8088 60.3107L81.2305 58.9266ZM78.6748 59.6245L78.7723 61.1213L78.9236 61.1115L79.07 61.0715L78.6748 59.6245ZM76.0347 59.7963L75.9373 58.2995L75.846 58.3055L75.7561 58.3224L76.0347 59.7963ZM73.4117 60.2921L73.2042 61.7777L73.4482 61.8118L73.6903 61.766L73.4117 60.2921ZM70.779 59.9244L70.2849 61.3406L70.4248 61.3894L70.5715 61.4099L70.779 59.9244ZM91.6586 47.1025L90.3381 46.3911L90.2906 46.4791L91.6112 47.1906L92.9317 47.902L92.9792 47.814L91.6586 47.1025ZM91.6112 47.1906L90.3793 48.0464L91.7063 49.9564L92.9381 49.1006L94.17 48.2448L92.8431 46.3347L91.6112 47.1906ZM92.9381 49.1006L91.7093 48.2404L90.1908 50.4097L91.4197 51.2699L92.6486 52.1301L94.167 49.9608L92.9381 49.1006ZM91.4197 51.2699L90.1738 50.4346L88.7025 52.6293L89.9484 53.4645L91.1944 54.2998L92.6656 52.1051L91.4197 51.2699ZM89.9484 53.4645L88.8849 52.4068L87.0118 54.2901L88.0754 55.3479L89.1389 56.4056L91.012 54.5223L89.9484 53.4645ZM88.0754 55.3479L87.1086 54.2009L85.1174 55.8794L86.0842 57.0263L87.0509 58.1732L89.0421 56.4948L88.0754 55.3479ZM86.0842 57.0263L85.57 55.6171L83.1585 56.497L83.6727 57.9062L84.1868 59.3153L86.5983 58.4354L86.0842 57.0263ZM83.6727 57.9062L83.0944 56.5221L80.6522 57.5426L81.2305 58.9266L81.8088 60.3107L84.251 59.2902L83.6727 57.9062ZM81.2305 58.9266L80.8354 57.4796L78.2797 58.1775L78.6748 59.6245L79.07 61.0715L81.6256 60.3736L81.2305 58.9266ZM78.6748 59.6245L78.5774 58.1277L75.9373 58.2995L76.0347 59.7963L76.1322 61.2932L78.7723 61.1213L78.6748 59.6245ZM76.0347 59.7963L75.7561 58.3224L73.1332 58.8182L73.4117 60.2921L73.6903 61.766L76.3133 61.2703L76.0347 59.7963ZM73.4117 60.2921L73.6192 58.8065L70.9865 58.4388L70.779 59.9244L70.5715 61.4099L73.2042 61.7777L73.4117 60.2921ZM70.779 59.9244L71.2731 58.5081L70.4941 58.2363L70 59.6526L69.5059 61.0689L70.2849 61.3406L70.779 59.9244Z" fill="black"/>
<path d="M100.786 14.2025L99.2864 14.1674L99.2666 15.0142L99.9815 15.4685L100.786 14.2025ZM102.873 15.5286L104.372 15.583L104.403 14.7238L103.677 14.2626L102.873 15.5286ZM102.777 18.1608L104.262 18.3707L104.273 18.2933L104.276 18.2152L102.777 18.1608ZM102.408 20.7694L103.802 21.3245L103.869 21.1574L103.894 20.9793L102.408 20.7694ZM101.425 23.2385L102.638 24.1209L102.749 23.9686L102.819 23.7936L101.425 23.2385ZM99.8608 25.3887L98.6478 24.5062L98.58 24.5995L98.5272 24.702L99.8608 25.3887ZM98.9802 27.0989L97.6466 26.4122L96.7215 28.2087L98.7089 28.5742L98.9802 27.0989ZM100.788 14.1026L99.2888 14.0674L99.2864 14.1674L100.786 14.2025L102.286 14.2377L102.288 14.1377L100.788 14.1026ZM100.786 14.2025L99.9815 15.4685L102.068 16.7946L102.873 15.5286L103.677 14.2626L101.591 12.9366L100.786 14.2025ZM102.873 15.5286L101.374 15.4742L101.278 18.1064L102.777 18.1608L104.276 18.2152L104.372 15.583L102.873 15.5286ZM102.777 18.1608L101.292 17.951L100.923 20.5596L102.408 20.7694L103.894 20.9793L104.262 18.3707L102.777 18.1608ZM102.408 20.7694L101.015 20.2144L100.031 22.6835L101.425 23.2385L102.819 23.7936L103.802 21.3245L102.408 20.7694ZM101.425 23.2385L100.212 22.3561L98.6478 24.5062L99.8608 25.3887L101.074 26.2711L102.638 24.1209L101.425 23.2385ZM99.8608 25.3887L98.5272 24.702L97.6466 26.4122L98.9802 27.0989L100.314 27.7856L101.194 26.0753L99.8608 25.3887ZM98.9802 27.0989L98.7089 28.5742L98.7288 28.5778L99 27.1025L99.2712 25.6273L99.2514 25.6236L98.9802 27.0989Z" fill="black"/>
<path d="M46.0305 83.2013L47.4719 83.6167L47.5637 83.2981L47.5126 82.9705L46.0305 83.2013ZM45.3322 85.6246L43.8908 85.2092L43.8714 85.2767L43.8584 85.3456L45.3322 85.6246ZM44.8384 88.2329L43.3646 87.954L43.3226 88.1759L43.3478 88.4004L44.8384 88.2329ZM45.1349 90.8723L43.6443 91.0398L43.676 91.3221L43.8088 91.5733L45.1349 90.8723ZM46.1738 92.8378L44.8477 93.5388L45.2087 94.2218L45.9744 94.3245L46.1738 92.8378ZM48.0044 93.0833L47.8051 94.57L50.4417 94.9235L49.3797 92.4844L48.0044 93.0833ZM46.0151 83.1025L44.533 83.3334L44.5484 83.4322L46.0305 83.2013L47.5126 82.9705L47.4972 82.8717L46.0151 83.1025ZM46.0305 83.2013L44.5892 82.786L43.8908 85.2092L45.3322 85.6246L46.7735 86.0399L47.4719 83.6167L46.0305 83.2013ZM45.3322 85.6246L43.8584 85.3456L43.3646 87.954L44.8384 88.2329L46.3123 88.5119L46.806 85.9036L45.3322 85.6246ZM44.8384 88.2329L43.3478 88.4004L43.6443 91.0398L45.1349 90.8723L46.6255 90.7049L46.3291 88.0655L44.8384 88.2329ZM45.1349 90.8723L43.8088 91.5733L44.8477 93.5388L46.1738 92.8378L47.4999 92.1369L46.4611 90.1714L45.1349 90.8723ZM46.1738 92.8378L45.9744 94.3245L47.8051 94.57L48.0044 93.0833L48.2038 91.5966L46.3732 91.3511L46.1738 92.8378ZM48.0044 93.0833L49.3797 92.4844L49.3753 92.4743L48 93.0731L46.6247 93.672L46.6291 93.6821L48.0044 93.0833Z" fill="black"/>
<path d="M25.5203 30.0051L24.0362 29.787L23.9952 30.0662L24.0584 30.3413L25.5203 30.0051ZM25.8798 27.5583L27.3639 27.7764L27.368 27.7487L27.371 27.7208L25.8798 27.5583ZM26.1674 24.9178L27.6586 25.0802L27.6792 24.8917L27.6521 24.7041L26.1674 24.9178ZM25.7902 22.2972L27.2749 22.0835L27.2302 21.7729L27.0647 21.5062L25.7902 22.2972ZM24.5498 20.2989L25.8243 19.5079L24.9381 18.0802L23.6198 19.1221L24.5498 20.2989ZM22.651 21.7996L21.7209 20.6228L21.2182 21.02L21.1577 21.6578L22.651 21.7996ZM22.4092 24.3462L23.8986 24.5235L23.9008 24.5058L23.9024 24.488L22.4092 24.3462ZM22.1353 26.6464L21.2335 27.845L23.3167 29.4124L23.6248 26.8237L22.1353 26.6464ZM25.5427 30.1025L27.0045 29.7664L26.9821 29.6689L25.5203 30.0051L24.0584 30.3413L24.0808 30.4387L25.5427 30.1025ZM25.5203 30.0051L27.0043 30.2232L27.3639 27.7764L25.8798 27.5583L24.3958 27.3403L24.0362 29.787L25.5203 30.0051ZM25.8798 27.5583L27.371 27.7208L27.6586 25.0802L26.1674 24.9178L24.6763 24.7554L24.3887 27.3959L25.8798 27.5583ZM26.1674 24.9178L27.6521 24.7041L27.2749 22.0835L25.7902 22.2972L24.3055 22.511L24.6827 25.1315L26.1674 24.9178ZM25.7902 22.2972L27.0647 21.5062L25.8243 19.5079L24.5498 20.2989L23.2754 21.09L24.5158 23.0883L25.7902 22.2972ZM24.5498 20.2989L23.6198 19.1221L21.7209 20.6228L22.651 21.7996L23.581 22.9765L25.4799 21.4758L24.5498 20.2989ZM22.651 21.7996L21.1577 21.6578L20.9159 24.2044L22.4092 24.3462L23.9024 24.488L24.1442 21.9414L22.651 21.7996ZM22.4092 24.3462L20.9197 24.1689L20.6459 26.4691L22.1353 26.6464L23.6248 26.8237L23.8986 24.5235L22.4092 24.3462ZM22.1353 26.6464L23.0372 25.4478L22.9018 25.346L22 26.5446L21.0982 27.7432L21.2335 27.845L22.1353 26.6464Z" fill="black"/>
<path d="M39.238 27.1266L40.6911 26.7544L40.4687 25.886L39.5986 25.6705L39.238 27.1266ZM39.8148 29.3781L38.3617 29.7503L38.5598 30.5236L39.3118 30.7913L39.8148 29.3781ZM42.2838 30.2569L41.7808 31.6701L42.119 31.7904L42.475 31.7447L42.2838 30.2569ZM44.921 29.918L45.1121 31.4058L45.1301 31.4035L45.1479 31.4008L44.921 29.918ZM47.5285 29.5189L47.5051 28.0191L47.4027 28.0207L47.3015 28.0361L47.5285 29.5189ZM50.0001 29.4803L50.0235 30.9802L51.5114 30.957L51.5 29.4689L50.0001 29.4803ZM39.141 27.1025L38.7804 28.5586L38.8775 28.5826L39.238 27.1266L39.5986 25.6705L39.5015 25.6465L39.141 27.1025ZM39.238 27.1266L37.785 27.4988L38.3617 29.7503L39.8148 29.3781L41.2679 29.0059L40.6911 26.7544L39.238 27.1266ZM39.8148 29.3781L39.3118 30.7913L41.7808 31.6701L42.2838 30.2569L42.7868 28.8438L40.3178 27.965L39.8148 29.3781ZM42.2838 30.2569L42.475 31.7447L45.1121 31.4058L44.921 29.918L44.7298 28.4303L42.0926 28.7691L42.2838 30.2569ZM44.921 29.918L45.1479 31.4008L47.7554 31.0016L47.5285 29.5189L47.3015 28.0361L44.694 28.4353L44.921 29.918ZM47.5285 29.5189L47.5518 31.0187L50.0235 30.9802L50.0001 29.4803L49.9767 27.9805L47.5051 28.0191L47.5285 29.5189ZM50.0001 29.4803L51.5 29.4689L51.5 29.4578L50 29.4693L48.5 29.4808L48.5001 29.4918L50.0001 29.4803Z" fill="black"/>
<path d="M45.901 22.5574L45.8819 24.0573L45.996 24.0587L46.109 24.0429L45.901 22.5574ZM43.3525 22.525L43.0328 23.9905L43.1813 24.0229L43.3334 24.0249L43.3525 22.525ZM40.7524 21.9578L41.0721 20.4923L40.7865 20.43L40.4984 20.4795L40.7524 21.9578ZM38.1409 22.4065L37.8869 20.9281L37.6858 20.9627L37.5013 21.0497L38.1409 22.4065ZM35.7987 23.5105L35.1591 22.1537L35.0796 22.1911L35.0051 22.2376L35.7987 23.5105ZM33.5681 24.9012L32.7745 23.6283L31.6951 24.3014L32.1828 25.4763L33.5681 24.9012ZM34.2554 26.5568L32.87 27.1319L33.1695 27.8533L33.9323 28.0216L34.2554 26.5568ZM36.037 26.9498L37.3898 27.5978L38.2067 25.8923L36.3601 25.485L36.037 26.9498ZM46 22.5435L45.7919 21.058L45.6929 21.0719L45.901 22.5574L46.109 24.0429L46.2081 24.029L46 22.5435ZM45.901 22.5574L45.92 21.0575L43.3715 21.0251L43.3525 22.525L43.3334 24.0249L45.8819 24.0573L45.901 22.5574ZM43.3525 22.525L43.6722 21.0595L41.0721 20.4923L40.7524 21.9578L40.4327 23.4233L43.0328 23.9905L43.3525 22.525ZM40.7524 21.9578L40.4984 20.4795L37.8869 20.9281L38.1409 22.4065L38.3949 23.8848L41.0063 23.4362L40.7524 21.9578ZM38.1409 22.4065L37.5013 21.0497L35.1591 22.1537L35.7987 23.5105L36.4382 24.8673L38.7804 23.7633L38.1409 22.4065ZM35.7987 23.5105L35.0051 22.2376L32.7745 23.6283L33.5681 24.9012L34.3618 26.1741L36.5923 24.7834L35.7987 23.5105ZM33.5681 24.9012L32.1828 25.4763L32.87 27.1319L34.2554 26.5568L35.6408 25.9817L34.9535 24.3261L33.5681 24.9012ZM34.2554 26.5568L33.9323 28.0216L35.7139 28.4146L36.037 26.9498L36.3601 25.485L34.5785 25.092L34.2554 26.5568ZM36.037 26.9498L34.6842 26.3018L34.611 26.4545L35.9638 27.1025L37.3166 27.7505L37.3898 27.5978L36.037 26.9498Z" fill="black"/>
<path d="M87.9185 58.1966L87.0501 56.9735L86.6711 57.2426L86.5107 57.6788L87.9185 58.1966ZM87.1144 60.3825L87.9818 61.6063L88.3615 61.3371L88.5222 60.9003L87.1144 60.3825ZM84.9595 61.9098L85.7994 63.1526L85.8132 63.1432L85.8269 63.1336L84.9595 61.9098ZM82.7703 63.3892L83.3587 64.769L83.491 64.7126L83.6102 64.6321L82.7703 63.3892ZM80.3248 64.4322L80.7347 65.8751L80.826 65.8491L80.9132 65.8119L80.3248 64.4322ZM77.992 65.0949L77.5821 63.652L75.0738 64.3645L76.9508 66.1746L77.992 65.0949ZM88 58.1387L87.1316 56.9157L87.0501 56.9735L87.9185 58.1966L88.7868 59.4197L88.8684 59.3618L88 58.1387ZM87.9185 58.1966L86.5107 57.6788L85.7066 59.8646L87.1144 60.3825L88.5222 60.9003L89.3262 58.7145L87.9185 58.1966ZM87.1144 60.3825L86.247 59.1587L84.0921 60.686L84.9595 61.9098L85.8269 63.1336L87.9818 61.6063L87.1144 60.3825ZM84.9595 61.9098L84.1196 60.667L81.9304 62.1464L82.7703 63.3892L83.6102 64.6321L85.7994 63.1526L84.9595 61.9098ZM82.7703 63.3892L82.1819 62.0095L79.7364 63.0524L80.3248 64.4322L80.9132 65.8119L83.3587 64.769L82.7703 63.3892ZM80.3248 64.4322L79.9149 62.9893L77.5821 63.652L77.992 65.0949L78.4019 66.5378L80.7347 65.8751L80.3248 64.4322ZM77.992 65.0949L76.9508 66.1746L76.9588 66.1823L78 65.1025L79.0412 64.0228L79.0333 64.0151L77.992 65.0949Z" fill="black"/>
<path d="M67.0935 62.1381L68.3354 61.2969L68.0697 60.9048L67.6271 60.7363L67.0935 62.1381ZM68.4166 64.0915L67.1747 64.9327L67.4164 65.2895L67.8106 65.4636L68.4166 64.0915ZM70.826 65.1557L70.2199 66.5278L70.3547 66.5873L70.4984 66.6195L70.826 65.1557ZM73.4108 65.7341L73.0833 67.1979L73.1956 67.2231L73.3104 67.2308L73.4108 65.7341ZM76.0062 65.9083L76.1408 64.4143L76.1237 64.4128L76.1067 64.4117L76.0062 65.9083ZM77.9999 66.0879L77.8653 67.5818L79.4865 67.7279L79.4999 66.1002L77.9999 66.0879ZM67 62.1025L66.4664 63.5044L66.5598 63.54L67.0935 62.1381L67.6271 60.7363L67.5336 60.7007L67 62.1025ZM67.0935 62.1381L65.8515 62.9793L67.1747 64.9327L68.4166 64.0915L69.6585 63.2503L68.3354 61.2969L67.0935 62.1381ZM68.4166 64.0915L67.8106 65.4636L70.2199 66.5278L70.826 65.1557L71.432 63.7836L69.0227 62.7194L68.4166 64.0915ZM70.826 65.1557L70.4984 66.6195L73.0833 67.1979L73.4108 65.7341L73.7384 64.2703L71.1535 63.6919L70.826 65.1557ZM73.4108 65.7341L73.3104 67.2308L75.9058 67.4049L76.0062 65.9083L76.1067 64.4117L73.5112 64.2375L73.4108 65.7341ZM76.0062 65.9083L75.8716 67.4022L77.8653 67.5818L77.9999 66.0879L78.1345 64.5939L76.1408 64.4143L76.0062 65.9083ZM77.9999 66.0879L79.4999 66.1002L79.4999 66.0892L78 66.0768L76.5001 66.0645L76.5 66.0756L77.9999 66.0879Z" fill="black"/>
<path d="M27.5368 33.3632L27.944 31.9196L27.5497 31.8083L27.1536 31.913L27.5368 33.3632ZM25.0795 34.0124L24.905 35.5022L25.1876 35.5353L25.4626 35.4626L25.0795 34.0124ZM22.4627 33.706L22.1397 35.1708L22.2133 35.187L22.2882 35.1958L22.4627 33.706ZM19.8923 33.1392L19.0878 34.4052L19.311 34.5471L19.5693 34.604L19.8923 33.1392ZM17.6335 31.7038L16.158 31.4337L15.976 32.4278L16.8289 32.9698L17.6335 31.7038ZM17.9895 29.7587L17.6513 28.2973L16.6914 28.5195L16.514 29.4886L17.9895 29.7587ZM20.5468 29.1669L20.4689 27.6689L20.3372 27.6758L20.2086 27.7055L20.5468 29.1669ZM23.1996 29.029L23.5306 27.5659L23.3286 27.5202L23.1217 27.531L23.1996 29.029ZM25.7936 29.6158L27.0806 28.8454L26.7508 28.2945L26.1246 28.1528L25.7936 29.6158ZM27.1328 31.853L28.4622 31.1581L28.4421 31.1197L28.4199 31.0825L27.1328 31.853ZM28.2737 34.0356L29.721 33.6414L29.6783 33.4847L29.6031 33.3408L28.2737 34.0356ZM28.9777 36.6199L30.4716 36.4854L30.4597 36.3534L30.4249 36.2256L28.9777 36.6199ZM29.2173 39.2817L30.637 39.7658L30.7398 39.4644L30.7113 39.1472L29.2173 39.2817ZM28.3546 41.8115L26.9349 41.3274L26.8851 41.4733L26.8661 41.6263L28.3546 41.8115ZM27.633 33.3904L28.0403 31.9467L27.944 31.9196L27.5368 33.3632L27.1295 34.8069L27.2257 34.834L27.633 33.3904ZM27.5368 33.3632L27.1536 31.913L24.6964 32.5621L25.0795 34.0124L25.4626 35.4626L27.9199 34.8135L27.5368 33.3632ZM25.0795 34.0124L25.2539 32.5226L22.6371 32.2161L22.4627 33.706L22.2882 35.1958L24.905 35.5022L25.0795 34.0124ZM22.4627 33.706L22.7857 32.2411L20.2153 31.6744L19.8923 33.1392L19.5693 34.604L22.1397 35.1708L22.4627 33.706ZM19.8923 33.1392L20.6968 31.8732L18.438 30.4378L17.6335 31.7038L16.8289 32.9698L19.0878 34.4052L19.8923 33.1392ZM17.6335 31.7038L19.1089 31.9738L19.465 30.0288L17.9895 29.7587L16.514 29.4886L16.158 31.4337L17.6335 31.7038ZM17.9895 29.7587L18.3277 31.2201L20.885 30.6283L20.5468 29.1669L20.2086 27.7055L17.6513 28.2973L17.9895 29.7587ZM20.5468 29.1669L20.6247 30.6649L23.2775 30.5269L23.1996 29.029L23.1217 27.531L20.4689 27.6689L20.5468 29.1669ZM23.1996 29.029L22.8686 30.492L25.4626 31.0788L25.7936 29.6158L26.1246 28.1528L23.5306 27.5659L23.1996 29.029ZM25.7936 29.6158L24.5066 30.3863L25.8458 32.6234L27.1328 31.853L28.4199 31.0825L27.0806 28.8454L25.7936 29.6158ZM27.1328 31.853L25.8035 32.5478L26.9444 34.7305L28.2737 34.0356L29.6031 33.3408L28.4622 31.1581L27.1328 31.853ZM28.2737 34.0356L26.8264 34.4299L27.5304 37.0141L28.9777 36.6199L30.4249 36.2256L29.721 33.6414L28.2737 34.0356ZM28.9777 36.6199L27.4837 36.7544L27.7233 39.4162L29.2173 39.2817L30.7113 39.1472L30.4716 36.4854L28.9777 36.6199ZM29.2173 39.2817L27.7976 38.7975L26.9349 41.3274L28.3546 41.8115L29.7743 42.2957L30.637 39.7658L29.2173 39.2817ZM28.3546 41.8115L26.8661 41.6263L26.8298 41.9173L28.3184 42.1025L29.8069 42.2878L29.8431 41.9967L28.3546 41.8115Z" fill="black"/>
<path d="M41.9077 26.146L42.1946 27.6183L42.3447 27.589L42.4857 27.5302L41.9077 26.146ZM39.4277 26.6293L39.4851 28.1282L39.6009 28.1238L39.7146 28.1016L39.4277 26.6293ZM36.7571 26.7316L36.6997 25.2327L36.1656 25.2532L35.7648 25.6068L36.7571 26.7316ZM34.7487 28.5034L35.5578 29.7665L35.6547 29.7044L35.741 29.6283L34.7487 28.5034ZM32.5466 29.9141L33.3358 31.1897L33.3458 31.1835L33.3557 31.1771L32.5466 29.9141ZM30.3001 31.304L29.5108 30.0284L29.4452 30.069L29.3841 30.1161L30.3001 31.304ZM28.2094 32.916L27.2934 31.7281L27.2513 31.7606L27.2116 31.796L28.2094 32.916ZM42 26.1074L41.422 24.7233L41.3298 24.7618L41.9077 26.146L42.4857 27.5302L42.578 27.4916L42 26.1074ZM41.9077 26.146L41.6208 24.6737L39.1407 25.157L39.4277 26.6293L39.7146 28.1016L42.1946 27.6183L41.9077 26.146ZM39.4277 26.6293L39.3702 25.1304L36.6997 25.2327L36.7571 26.7316L36.8145 28.2305L39.4851 28.1282L39.4277 26.6293ZM36.7571 26.7316L35.7648 25.6068L33.7563 27.3786L34.7487 28.5034L35.741 29.6283L37.7494 27.8565L36.7571 26.7316ZM34.7487 28.5034L33.9395 27.2404L31.7375 28.651L32.5466 29.9141L33.3557 31.1771L35.5578 29.7665L34.7487 28.5034ZM32.5466 29.9141L31.7574 28.6385L29.5108 30.0284L30.3001 31.304L31.0893 32.5796L33.3358 31.1897L32.5466 29.9141ZM30.3001 31.304L29.3841 30.1161L27.2934 31.7281L28.2094 32.916L29.1253 34.1039L31.216 32.4919L30.3001 31.304ZM28.2094 32.916L27.2116 31.796L27.0022 31.9825L28 33.1025L28.9978 34.2225L29.2071 34.036L28.2094 32.916Z" fill="black"/>
<path d="M45.0862 112.153L44.3255 113.446L44.5194 113.56L44.7382 113.612L45.0862 112.153ZM47.5505 112.741L48.0737 111.335L47.9877 111.303L47.8985 111.282L47.5505 112.741ZM50.0209 113.66L50.9139 112.455L50.7432 112.329L50.5441 112.255L50.0209 113.66ZM52.0673 115.177L53.5076 115.595L53.7991 114.593L52.9603 113.971L52.0673 115.177ZM45 112.103L44.2393 113.395L44.3255 113.446L45.0862 112.153L45.8469 110.86L45.7607 110.81L45 112.103ZM45.0862 112.153L44.7382 113.612L47.2026 114.2L47.5505 112.741L47.8985 111.282L45.4341 110.694L45.0862 112.153ZM47.5505 112.741L47.0273 114.147L49.4977 115.066L50.0209 113.66L50.5441 112.255L48.0737 111.335L47.5505 112.741ZM50.0209 113.66L49.1279 114.866L51.1743 116.382L52.0673 115.177L52.9603 113.971L50.9139 112.455L50.0209 113.66ZM52.0673 115.177L50.6269 114.758L50.3577 115.684L51.7981 116.103L53.2384 116.521L53.5076 115.595L52.0673 115.177Z" fill="black"/>
<path d="M26.9606 34.1945L28.2473 34.9655L28.2994 34.8785L28.3393 34.7853L26.9606 34.1945ZM25.658 36.3681L24.3714 35.597L24.3634 35.6103L24.3557 35.6237L25.658 36.3681ZM24.3393 38.675L23.0371 37.9306L22.8799 38.2056L22.8473 38.5207L24.3393 38.675ZM24.0873 41.1115L23.9338 42.6036L25.4252 42.7571L25.5794 41.2658L24.0873 41.1115ZM27 34.1025L25.6213 33.5117L25.5819 33.6036L26.9606 34.1945L28.3393 34.7853L28.3787 34.6934L27 34.1025ZM26.9606 34.1945L25.674 33.4234L24.3714 35.597L25.658 36.3681L26.9446 37.1391L28.2473 34.9655L26.9606 34.1945ZM25.658 36.3681L24.3557 35.6237L23.0371 37.9306L24.3393 38.675L25.6416 39.4194L26.9603 37.1125L25.658 36.3681ZM24.3393 38.675L22.8473 38.5207L22.5953 40.9572L24.0873 41.1115L25.5794 41.2658L25.8314 38.8293L24.3393 38.675ZM24.0873 41.1115L24.2409 39.6194L24.1535 39.6104L24 41.1025L23.8465 42.5947L23.9338 42.6036L24.0873 41.1115Z" fill="black"/>
<path d="M64.8213 19.1471L64.153 17.8042L63.6224 18.0683L63.4156 18.6237L64.8213 19.1471ZM63.9667 21.4428L64.5546 22.8227L65.1475 22.5701L65.3724 21.9661L63.9667 21.4428ZM61.5414 22.4761L61.8135 23.9512L61.9767 23.9211L62.1293 23.856L61.5414 22.4761ZM59.0266 22.94L58.4847 24.3387L58.8809 24.4922L59.2988 24.4151L59.0266 22.94ZM64.9109 19.1025L64.2425 17.7597L64.153 17.8042L64.8213 19.1471L65.4897 20.49L65.5792 20.4454L64.9109 19.1025ZM64.8213 19.1471L63.4156 18.6237L62.5609 20.9194L63.9667 21.4428L65.3724 21.9661L66.2271 19.6705L64.8213 19.1471ZM63.9667 21.4428L63.3787 20.0628L60.9534 21.0961L61.5414 22.4761L62.1293 23.856L64.5546 22.8227L63.9667 21.4428ZM61.5414 22.4761L61.2692 21.001L58.7545 21.4649L59.0266 22.94L59.2988 24.4151L61.8135 23.9512L61.5414 22.4761ZM59.0266 22.94L59.5686 21.5414L58.5419 21.1436L58 22.5423L57.4581 23.9409L58.4847 24.3387L59.0266 22.94Z" fill="black"/>
<path d="M71.9105 52.1495L72.5192 53.5204L72.5504 53.5066L72.581 53.4913L71.9105 52.1495ZM69.6226 53.1652L70.0359 54.6072L70.1361 54.5785L70.2312 54.5362L69.6226 53.1652ZM67.0535 53.9017L66.6401 52.4598L66.1836 52.5907L65.8856 52.9604L67.0535 53.9017ZM66.0885 55.099L66.1491 56.5978L66.8292 56.5703L67.2563 56.0403L66.0885 55.099ZM72 52.1048L71.3295 50.763L71.2401 50.8077L71.9105 52.1495L72.581 53.4913L72.6705 53.4466L72 52.1048ZM71.9105 52.1495L71.3019 50.7785L69.0139 51.7943L69.6226 53.1652L70.2312 54.5362L72.5192 53.5204L71.9105 52.1495ZM69.6226 53.1652L69.2092 51.7233L66.6401 52.4598L67.0535 53.9017L67.4668 55.3436L70.0359 54.6072L69.6226 53.1652ZM67.0535 53.9017L65.8856 52.9604L64.9206 54.1577L66.0885 55.099L67.2563 56.0403L68.2213 54.843L67.0535 53.9017ZM66.0885 55.099L66.0278 53.6002L65.9401 53.6038L66.0007 55.1025L66.0613 56.6013L66.1491 56.5978L66.0885 55.099Z" fill="black"/>
<path d="M77.4608 65.1824L76.2628 64.2797L75.5499 65.2258L76.3051 66.1386L77.4608 65.1824ZM79.0632 67.1193L80.017 68.277L81.1772 67.3213L80.219 66.1631L79.0632 67.1193ZM77.0239 68.7992L77.7773 70.0963L77.8832 70.0348L77.9777 69.957L77.0239 68.7992ZM74.7586 70.115L74.0053 68.8179L73.9529 68.8483L73.9031 68.8829L74.7586 70.115ZM73.1343 71.2429L72.0505 72.2799L72.9368 73.2061L73.9898 72.475L73.1343 71.2429ZM77.521 65.1025L76.323 64.1999L76.2628 64.2797L77.4608 65.1824L78.6588 66.0851L78.719 66.0052L77.521 65.1025ZM77.4608 65.1824L76.3051 66.1386L77.9075 68.0754L79.0632 67.1193L80.219 66.1631L78.6165 64.2262L77.4608 65.1824ZM79.0632 67.1193L78.1095 65.9615L76.0702 67.6415L77.0239 68.7992L77.9777 69.957L80.017 68.277L79.0632 67.1193ZM77.0239 68.7992L76.2705 67.5021L74.0053 68.8179L74.7586 70.115L75.512 71.412L77.7773 70.0963L77.0239 68.7992ZM74.7586 70.115L73.9031 68.8829L72.2787 70.0108L73.1343 71.2429L73.9898 72.475L75.6142 71.347L74.7586 70.115ZM73.1343 71.2429L74.218 70.2058L74.0837 70.0655L73 71.1025L71.9163 72.1396L72.0505 72.2799L73.1343 71.2429Z" fill="black"/>
<path d="M72.9419 53.184L71.7208 52.3129L71.5204 52.5938L71.4629 52.934L72.9419 53.184ZM72.5318 55.6114L73.45 56.7975L73.9132 56.4389L74.0108 55.8613L72.5318 55.6114ZM70.3858 57.2728L69.4675 56.0867L68.9704 56.4715L68.8963 57.0958L70.3858 57.2728ZM70.07 59.9306L71.0797 61.0399L71.4935 60.6632L71.5595 60.1076L70.07 59.9306ZM68.0889 61.734L68.254 63.2249L68.7383 63.1712L69.0986 62.8432L68.0889 61.734ZM65.4422 62.0271L65.417 63.5269L65.5124 63.5285L65.6073 63.518L65.4422 62.0271ZM62.8022 61.9827L62.8274 60.4829L62.7033 60.4808L62.5805 60.4991L62.8022 61.9827ZM73 53.1025L71.7788 52.2315L71.7208 52.3129L72.9419 53.184L74.1631 54.055L74.2212 53.9736L73 53.1025ZM72.9419 53.184L71.4629 52.934L71.0527 55.3615L72.5318 55.6114L74.0108 55.8613L74.421 53.4339L72.9419 53.184ZM72.5318 55.6114L71.6135 54.4253L69.4675 56.0867L70.3858 57.2728L71.3041 58.4589L73.45 56.7975L72.5318 55.6114ZM70.3858 57.2728L68.8963 57.0958L68.5805 59.7537L70.07 59.9306L71.5595 60.1076L71.8753 57.4498L70.3858 57.2728ZM70.07 59.9306L69.0603 58.8214L67.0792 60.6247L68.0889 61.734L69.0986 62.8432L71.0797 61.0399L70.07 59.9306ZM68.0889 61.734L67.9238 60.2431L65.2771 60.5362L65.4422 62.0271L65.6073 63.518L68.254 63.2249L68.0889 61.734ZM65.4422 62.0271L65.4674 60.5273L62.8274 60.4829L62.8022 61.9827L62.7769 63.4825L65.417 63.5269L65.4422 62.0271ZM62.8022 61.9827L62.5805 60.4991L61.7783 60.619L62 62.1025L62.2217 63.5861L63.0238 63.4662L62.8022 61.9827Z" fill="black"/>
<path d="M67.9066 63.1383L67.3699 61.7376L67.2629 61.7786L67.1634 61.8354L67.9066 63.1383ZM66.0911 64.1739L66.5854 65.5901L66.7151 65.5448L66.8343 65.4768L66.0911 64.1739ZM64.0501 64.8862L64.3469 66.3566L64.4475 66.3363L64.5444 66.3025L64.0501 64.8862ZM62.9763 65.103L61.5318 64.699L60.872 67.058L63.2732 66.5733L62.9763 65.103ZM68 63.1025L67.4633 61.7018L67.3699 61.7376L67.9066 63.1383L68.4433 64.539L68.5367 64.5032L68 63.1025ZM67.9066 63.1383L67.1634 61.8354L65.3479 62.8709L66.0911 64.1739L66.8343 65.4768L68.6498 64.4413L67.9066 63.1383ZM66.0911 64.1739L65.5968 62.7577L63.5558 63.47L64.0501 64.8862L64.5444 66.3025L66.5854 65.5901L66.0911 64.1739ZM64.0501 64.8862L63.7533 63.4159L62.6795 63.6327L62.9763 65.103L63.2732 66.5733L64.3469 66.3566L64.0501 64.8862ZM62.9763 65.103L64.4209 65.507L64.4446 65.4225L63 65.0184L61.5554 64.6144L61.5318 64.699L62.9763 65.103Z" fill="black"/>
<path d="M74.0316 38.1974L72.6086 38.6717L72.6967 38.9361L72.8739 39.1512L74.0316 38.1974ZM74.8097 39.1419L76.3051 39.2587L76.3522 38.6553L75.9674 38.1881L74.8097 39.1419ZM74.7046 40.487L73.2091 40.3702L73.1699 40.8725L73.4419 41.2967L74.7046 40.487ZM75.0849 41.08L75.4702 42.5296L77.4577 42.0013L76.3475 40.2702L75.0849 41.08ZM74 38.1025L72.577 38.5769L72.6086 38.6717L74.0316 38.1974L75.4546 37.7231L75.423 37.6282L74 38.1025ZM74.0316 38.1974L72.8739 39.1512L73.6519 40.0956L74.8097 39.1419L75.9674 38.1881L75.1894 37.2437L74.0316 38.1974ZM74.8097 39.1419L73.3142 39.025L73.2091 40.3702L74.7046 40.487L76.2 40.6038L76.3051 39.2587L74.8097 39.1419ZM74.7046 40.487L73.4419 41.2967L73.8222 41.8897L75.0849 41.08L76.3475 40.2702L75.9672 39.6772L74.7046 40.487ZM75.0849 41.08L74.6995 39.6303L74.6147 39.6529L75 41.1025L75.3853 42.5522L75.4702 42.5296L75.0849 41.08Z" fill="black"/>
<path d="M74.4466 43.2018L72.9578 43.0191L72.924 43.2944L72.9909 43.5636L74.4466 43.2018ZM75.0508 45.6323L76.4326 46.2159L76.627 45.7555L76.5065 45.2705L75.0508 45.6323ZM74.009 48.0986L72.6272 47.5149L72.4851 47.8514L72.5136 48.2155L74.009 48.0986ZM74.2165 50.7512L75.5968 51.3384L75.7406 51.0004L75.712 50.6343L74.2165 50.7512ZM73.3248 52.8476L71.9445 52.2605L71.9291 52.2965L71.9157 52.3333L73.3248 52.8476ZM74.4588 43.1025L72.97 42.9199L72.9578 43.0191L74.4466 43.2018L75.9355 43.3845L75.9476 43.2852L74.4588 43.1025ZM74.4466 43.2018L72.9909 43.5636L73.5951 45.9941L75.0508 45.6323L76.5065 45.2705L75.9023 42.84L74.4466 43.2018ZM75.0508 45.6323L73.669 45.0486L72.6272 47.5149L74.009 48.0986L75.3908 48.6822L76.4326 46.2159L75.0508 45.6323ZM74.009 48.0986L72.5136 48.2155L72.7211 50.8682L74.2165 50.7512L75.712 50.6343L75.5045 47.9816L74.009 48.0986ZM74.2165 50.7512L72.8362 50.1641L71.9445 52.2605L73.3248 52.8476L74.7051 53.4348L75.5968 51.3384L74.2165 50.7512ZM73.3248 52.8476L71.9157 52.3333L71.8227 52.5882L73.2318 53.1025L74.6408 53.6169L74.7339 53.362L73.3248 52.8476Z" fill="black"/>
<path d="M98.9 38.1025V36.6025H98.6352L98.3864 36.6932L98.9 38.1025ZM98.6 38.2119L97.7442 39.4438L98.3829 39.8875L99.1136 39.6212L98.6 38.2119ZM98.2 37.934L99.0558 36.7021L97.8902 35.8923L97.0173 37.0114L98.2 37.934ZM98 38.1903H96.5V42.5521L99.1827 39.1129L98 38.1903ZM99 38.1025V36.6025H98.9V38.1025V39.6025H99V38.1025ZM98.9 38.1025L98.3864 36.6932L98.0864 36.8025L98.6 38.2119L99.1136 39.6212L99.4136 39.5119L98.9 38.1025ZM98.6 38.2119L99.4558 36.98L99.0558 36.7021L98.2 37.934L97.3441 39.1659L97.7442 39.4438L98.6 38.2119ZM98.2 37.934L97.0173 37.0114L96.8173 37.2678L98 38.1903L99.1827 39.1129L99.3827 38.8565L98.2 37.934ZM98 38.1903H99.5V38.1025H98H96.5V38.1903H98Z" fill="black"/>
</svg>
