<svg xmlns="http://www.w3.org/2000/svg" width="120" height="120" fill="none" viewBox="0 0 120 120"><path fill="#000" d="m35.523 6.313 2.648.187-.012.012 2.602.047.222.011.211.07 2.367.798 2.52.269.27.023.234.118 2.39 1.183.118.07 2.261 1.395.06.047.046.035 2.121 1.606.164.117.117.164 1.617 2.11h-.011l1.699 1.85.105.118.07.129 1.348 2.273.083.153.058.164.75 2.379 1.16 2.285.094.187.035.211.492 2.613.024.118.258 2.508.468 2.601.024.094v.105L62.265 35v.117l-.012.117-.082.856-.164 1.535-1.43-.187-2.344.304-.21.024-.223-.035-2.473-.41-2.637-.188h-.117l-.117-.024-2.742-.632-.152-.059-2.403-1.125-.011-.012-.024-.011-2.355-1.172-.024-.012-.012-.012-2.343-1.254-.141-.07-.117-.105-2.027-1.711-.118-.094-.093-.117-1.582-1.992-1.887-1.7-.176-.164-.129-.21-1.289-2.321-1.312-2.297-.118-.187-.047-.211-.585-2.52-.762-2.52-.012-.058-.012-.07-.539-2.578-.023-.07-.41-2.637-.047-.235.047-.234.363-2.332.14-.926.891-.281 2.567-.797.27-.082zm-1.337 3.445L34 10.94l.375 2.332.527 2.543.739 2.45.011.047.012.035.55 2.367 1.231 2.144v.012l1.172 2.086 1.805 1.64.094.083.082.093 1.523 1.946 1.817 1.523 2.203 1.184h-.012l2.344 1.16h-.012l2.227 1.031 2.308.528 2.543.175.14.024 2.415.386 1.136-.152-.093-2.004-.446-2.472-.011-.059v-.059l-.282-2.613h-.011l-.422-2.262-1.113-2.191-.094-.234-.75-2.38-1.184-1.991-1.652-1.817-.047-.047-.035-.058-1.465-1.922-1.91-1.453-2.074-1.29-2.168-1.078-2.38-.246-.163-.023-.153-.047-2.343-.785L38.03 9.5h-.058l-2.403-.176z"/><path fill="#000" d="m83.339 15.764.773.246-.433 1.43-.446 1.43-.492-.153-2.285.305-.023.012h-.024l-2.402.222-2.227.996-.117.059-.117.023-2.438.61-2.086 1.043-1.828 1.512-1.933 1.793-1.664 1.734-1.137 1.98-.832 2.403-.023.07-.024.059-1.031 2.261-.352 2.285-.035.188-.07.176-.047.093-1.371-.597-.34-.164-1.102-.164.399-2.52.035-.199.082-.187 1.09-2.415.832-2.379.047-.117.07-.117 1.313-2.32.093-.152.13-.141 1.84-1.922.058-.059 1.933-1.793.035-.023.036-.035 2.05-1.688.13-.105.152-.082 2.378-1.172.141-.07.164-.047 2.45-.621 2.32-1.02.222-.094.235-.023 2.648-.27v.012l2.59-.34.316-.047z"/><path fill="#000" d="m73.032 32.923 2.625.304.082.012.07.012 2.544.586 2.578.457.129.023.117.047 2.484.914.164.059.153.105 2.05 1.383 2.367.938.305.129.235.246 1.722 1.828 1.91 1.664h.012l2.098 1.676.14.105.106.14 1.652 2.098.106.118.07.152 1.125 2.309 1.406 2.097.047.059.035.082 1.219 2.332.035.058.024.07 1.031 2.497.012.035.023.047.844 2.472.023.06.012.07.609 2.413.867 2.52.071.188.012.21.187 2.637.281 2.578.024.223-.035.21-.469 2.614-.317 2.543-.011.082-.024.094-.633 2.555-.011.035-.012.023-.738 2.543-.035.117-.047.106-1.125 2.402-.047.094-1.301 2.309-.023.035-.024.047-1.441 2.214-.012.012v.012l-1.488 2.191-.047.07-1.617 2.098-.047.059-.047.047-1.805 1.945-.023.035-.035.035-1.91 1.828-.083.07-.082.06-2.05 1.453-1.97 1.746-1.874 1.793-.07.07-.082.058-2.145 1.559-.059.047-.07.035-2.285 1.301.012.012-2.274 1.347-.023.012-2.285 1.312-.012.012-.023.012-2.297 1.219-2.286 1.324-.093.047-2.39 1.148-.036.024-.035.011-2.309.95-2.25 1.324-.058.023-.059.035-2.402 1.125-.422.2-.469-.071-.398-.07.246-1.477.082-.586-.317-.703 2.309-1.101 2.285-1.324.094-.047.094-.035 2.355-.985 2.273-1.09 2.297-1.312.024-.012.011-.012 2.332-1.254 2.25-1.289 2.25-1.336h.012v-.011l2.215-1.29 2.004-1.453 1.852-1.757.023-.012.023-.023 1.98-1.746.048-.047.058-.047 2.098-1.5 1.816-1.735 1.665-1.816 1.546-1.992 1.465-2.168 1.442-2.215 1.195-2.121 1.078-2.309.703-2.425.621-2.497.305-2.437v-.047l.012-.035.422-2.414-.258-2.414-.012-.035v-.024l-.164-2.426-.809-2.355-.023-.059-.012-.07-.61-2.426-.855-2.473v-.011l-.996-2.403h-.011l-1.114-2.132-1.43-2.145-.046-.082-.047-.094-1.09-2.226-1.453-1.852-1.957-1.547-.024-.023-.023-.012-1.98-1.71-.06-.048-.046-.058-1.605-1.7-2.192-.867-.152-.058-.13-.094-2.05-1.395-2.18-.796-2.484-.457h-.023l-.036-.012-2.437-.55-2.402-.282-2.403.433-.129.012h-2.648l-2.309.48-2.332.926-.093.036-.106.023-2.437.574-2.227 1.078-2.297 1.207-.012-.011-2.05 1.183-1.653 1.817-.129.14-.164.106-2.086 1.324-1.64 1.816-.035.047-.047.047-1.746 1.629-1.125 2.168-.094.188-.153.152-1.699 1.793-1.043 2.168-1.03 2.367-.833 2.39-.047.118-1.008 2.238-.386 2.45v.034l-.012.024-.492 2.379.222 2.449.012.164-.012.152-.304 2.496.105 2.415.54 2.46v.012l.55 2.59v.012l.492 2.449.926 2.285 1.219 2.227.047.094.035.105.855 2.309 1.29 2.074.058.093.047.106.035.082-1.371.61-.621.257-.692.445-1.359-2.19-.082-.13-.059-.14-.89-2.391-1.207-2.227-.035-.07-.036-.082-.984-2.46-.059-.13-.023-.129-.527-2.59.011-.011-.55-2.567-.563-2.59-.035-.117v-.129l-.117-2.636v-.13l.011-.116.305-2.461-.234-2.532-.024-.222.047-.211.527-2.602.41-2.554.036-.2.082-.175 1.02-2.333.89-2.484.012-.059.023-.046 1.055-2.426.012-.024.011-.035 1.172-2.379.094-.21.164-.176 1.7-1.817 1.136-2.168.117-.222.188-.176 1.945-1.828 1.687-1.875.141-.14.164-.118L50.11 41.5l1.7-1.828.152-.176.2-.105 2.308-1.336.047-.024 2.343-1.23.047-.024 2.39-1.148.142-.07.152-.036 2.46-.586 2.403-.925.117-.047.118-.024 2.59-.539.152-.023h2.672l2.484-.445.223-.036z"/><path fill="#000" d="m48.324 32.999.012-.012.012.129.328 1.324.34 1.465-.141.035h-.059l-2.507.41-.07.012h-.06l-2.46.176-2.309.832-.012-.012-2.437.914-.023.012-.036.011-2.367.739-2.238 1.125-2.004 1.453-.012.011-2.156 1.5-1.945 1.348-1.336 2.016-.059.082-.058.07-1.641 1.852-1.219 2.168-.035.058-.047.07-1.453 1.993-.95 2.297-.796 2.402-.55 2.438-.036.117-.047.129-.926 2.168.047 2.367v.152l-.035.152-.469 2.438.094 2.46v.095l-.094 2.332.938 2.168.058.117.024.14.562 2.508.762 2.39.996 2.368.047.117.762 2.32 1.37 2.04.013.011.011.024 1.418 2.226.047.07 1.16 2.11 1.793 1.652.082.07.07.083 1.618 1.992L32 96.596l1.98 1.5h.024l.012.012 2.074 1.629.094.094 1.722 1.617 2.25.937.2.082.175.141 1.922 1.582 2.11 1.031 2.449.727.082.023.082.035 2.426 1.02.058.023.07.035 2.192 1.184 2.379.633h.011l2.555.691h-.011l2.437.621 1.594.246-.211 1.477-.211 1.488-1.664-.246-.082-.011-.07-.012-2.555-.656-.012-.012-2.543-.692-2.555-.668-.175-.046-.164-.082-2.215-1.207-2.344-.997-2.473-.714-.129-.036-.105-.058-2.39-1.172-.153-.07-.14-.118-1.923-1.582-2.25-.914-.246-.105-.21-.188-1.934-1.828v-.011l-1.969-1.524v-.012l-2.098-1.558-.117-.094-.094-.105-1.78-1.97-.048-.046-1.593-1.957-1.899-1.746-.176-.164-.117-.211L23 90.362l-1.395-2.192-1.488-2.203-.105-.175-.07-.2-.833-2.52h-.011l-.973-2.32-.023-.058-.024-.07-.797-2.52-.023-.059-.012-.058-.527-2.426-1.02-2.344-.129-.304.012-.34.082-2.567-.094-2.636v-.164l.035-.165.47-2.472-.036-2.508-.012-.316.13-.282.972-2.343.574-2.45.012-.07.855-2.566.024-.059.023-.047 1.008-2.437.07-.164.094-.141 1.488-2.074 1.278-2.227.082-.14.093-.106 1.665-1.91 1.453-2.145.152-.234.234-.152 2.168-1.524 2.157-1.511 2.132-1.536.094-.07.106-.047 2.367-1.183.105-.047.106-.035 2.52-.809 2.402-.89h.023l2.496-.891.188-.07.199-.012 2.555-.188 2.379-.375.093-.035zm-5.141-16.477 2.308 1.102.211.105.176.164 1.922 1.84 1.875 1.605 2.11 1.606.058.047.07.058 1.899 1.828.07.059.058.07 1.688 2.028h-.012l1.758 1.828 1.84 1.91.14.152.094.176 1.254 2.32 1.23 2.215-.632.34-.621.469-1.219.879-.059-.082-.047-.07-.046-.083-1.23-2.215-.013-.011-1.16-2.156-1.699-1.77-1.828-1.898-.035-.047-.035-.035-1.688-2.04h-.012L49.933 25.3l-2.075-1.57-.035-.023-.035-.036-2.004-1.71-.023-.036-.035-.023-1.746-1.676-2.204-1.043-.129-.058-.117-.082-1.793-1.336-1.113-.82.738-1.173.035-.07 1.278.797.855-1.137z"/></svg>