<svg width="120" height="120" viewBox="0 0 120 120" fill="none" xmlns="http://www.w3.org/2000/svg">
<path d="M46.7188 3.76709L49.1211 4.36475L48.8164 5.5835L48.8633 5.79443L49.1562 7.271L49.0625 7.29443L48.7344 7.35303L48.4062 7.271L46.2383 6.73193L44.0703 6.93115L41.8906 7.89209L39.5234 8.98193L39.4766 9.00537L37.1328 9.95459L35.0586 11.2202L33.1719 12.8491L33.1602 12.8608L31.1328 14.5366L31.1211 14.5483L29.2695 16.0483L28.0742 18.1343L28.0156 18.228L27.957 18.3101L26.4336 20.2437L25.2969 22.4819L25.2617 22.5522L25.2266 22.6108L23.8789 24.7085L23.0938 27.0288L22.4961 29.3608L22.1445 31.9038L22.1328 32.021L22.0977 32.1265L21.418 34.353L21.7461 36.7085L21.7695 36.8491L21.7578 37.0015L21.6055 39.4507L22.0039 41.9116L22.0273 42.0054V42.1108L22.1094 44.478L23.0938 46.646L23.1406 46.7632L23.1758 46.8921L23.7969 49.3062L24.6758 51.7671L25.7422 54.0522L25.7773 54.1108L25.8008 54.1694L26.6328 56.4897L28.0391 58.5171L28.0508 58.5405L28.0742 58.5757L29.4805 60.8022L29.5156 60.8608L29.5391 60.9194L30.6523 63.0874L32.3516 64.8452L32.4453 64.939L32.5156 65.0562L33.9805 67.2358H33.9922L35.4102 69.3218L37.1445 71.1968L37.1797 71.2319L37.2148 71.2788L38.8555 73.353L38.9258 73.4468L38.9844 73.5405L40.168 75.6265L41.9844 77.3257L42.1836 77.5132L42.3008 77.7593L43.4375 80.0562L44.8555 82.0132L46.4141 83.7593L47.668 84.5093L49.8008 84.603L52.1328 84.1812L52.3203 84.146L52.5078 84.1577L55.1211 84.3452H55.1094L57.582 84.4858L60.0078 84.1812L60.2188 84.146L60.4297 84.1812L62.8203 84.5679L65.2695 84.2749H65.293L67.8477 83.9937L67.9883 83.9702L68.1172 83.9819L70.6602 84.1577L70.8359 84.1694L71 84.228L72.6758 84.7437L73.7656 83.5601L75.1016 81.4858L76.4844 79.271L76.5195 79.2007L76.5664 79.1538L78.1602 77.0444L78.1836 77.021L79.8125 74.9468H79.8242L81.4648 72.8843L82.9883 70.7983H83L84.5586 68.6655L84.5938 68.6304L86.2227 66.5562L87.8281 64.4819L87.8516 64.4351L87.8867 64.3999L89.5742 62.5015L90.8047 60.4858L91.8945 58.1187L91.918 58.0718L91.9414 58.0366L93.1836 55.7046L93.1953 55.6929L93.207 55.6694L94.5195 53.3726L95.5273 51.1929L96.4648 48.7202L97.1797 46.3765L97.6602 43.8452L98.082 41.2554L98.375 38.8647L98.1289 36.3804L97.8242 33.7671V33.7202L97.5898 31.189L97.0977 28.728L96.3711 26.4546L95.375 24.0171L95.3633 24.0054V23.9937L94.4492 21.6616L92.9961 19.7515L92.9727 19.728L91.543 17.7007L89.8086 15.7202L88.0039 13.9155V13.9038L86.2695 12.2866L84.0898 11.2554L83.9023 11.1616L83.7383 11.0327L81.8633 9.40381L79.7773 8.43115L77.3281 7.68115L74.8789 7.11865L72.8516 6.95459L71.3164 7.50537L69.8516 8.021L69.3828 6.54443L69.3125 6.3335L70.7422 5.87646H70.7305L70.3086 4.68115L72.1719 4.01318L72.4766 3.90771L72.8047 3.94287L75.3125 4.15381L75.418 4.16553L75.5234 4.18896L78.0781 4.78662L78.1719 4.81006L80.7148 5.5835L80.8203 5.60693L80.9258 5.65381L83.3281 6.79053L83.5156 6.87256L83.668 7.00146L85.5312 8.61865L87.7812 9.67334L88.0039 9.77881L88.1797 9.94287L90.1016 11.771L90.125 11.7944L91.9883 13.6694L92.0586 13.7397L93.793 15.7085L93.8516 15.7671L93.8984 15.8374L95.4219 17.9819L96.9922 20.0679L97.1211 20.2437L97.1914 20.4312L98.1406 22.8804L99.1484 25.3062L99.1719 25.3647L99.1836 25.4233L99.9922 27.9312L100.027 28.0132L100.039 28.0952L100.555 30.6733L100.578 30.7554V30.8374L100.812 33.4624H100.801L101.117 36.0288V36.0522L101.387 38.7007L101.398 38.8765L101.387 39.0522L101.047 41.6772V41.7124L101.035 41.7358L100.613 44.3491V44.3726L100.133 46.9858L100.121 47.0796L100.098 47.1616L99.3008 49.6929L99.2773 49.7866L98.3281 52.2593L98.3164 52.3062L98.293 52.353L97.1797 54.7554L97.1562 54.814L97.1211 54.8726L95.7969 57.1694L94.5898 59.4429L93.5234 61.7749L93.4883 61.8569L93.4414 61.939L92.0586 64.2007L91.9883 64.3062L91.8945 64.4116L90.1367 66.3921L88.5781 68.396V68.4077L86.9492 70.4819L85.4141 72.5679L83.8438 74.7007L83.832 74.7241L83.8086 74.7476L82.168 76.8101L80.5391 78.8843L80.5273 78.8726L79.0039 80.8999L77.6328 83.0913V83.103L77.6211 83.1147L76.1914 85.3413L76.1211 85.4468L76.0273 85.5405L74.2461 87.4741L73.6016 88.1655L72.6992 87.8843L70.2969 87.146L68 86.9819L65.6211 87.2397L62.9961 87.5679L62.7852 87.5913L62.5859 87.5562L60.1836 87.1812L57.8281 87.4858L57.6875 87.4976H57.5469L54.9219 87.3452H54.8984L52.5078 87.1577L50.1875 87.5913L50.0234 87.6265L49.8477 87.6147L47.1641 87.4976L46.7891 87.4741L46.4609 87.2866L44.6914 86.2319L44.4922 86.1147L44.3398 85.939L42.5703 83.9585L42.5117 83.8999L42.4648 83.8413L40.9297 81.6968L40.8594 81.603L40.8008 81.4858L39.7344 79.3413L37.9766 77.689L37.8125 77.5366L37.6953 77.3374L36.418 75.1108L34.8594 73.1421V73.1304L33.1484 71.2788L33.0078 71.1147L31.5195 68.9351L31.5078 68.9233L30.0898 66.8257L28.3438 65.0093L28.1914 64.8452L28.0859 64.6577L26.8672 62.2905V62.2788L25.5664 60.228L24.0547 58.0366L23.9492 57.8843L23.8789 57.6968L23.0234 55.3179L21.9102 52.9272L21.8867 52.8687L21.8633 52.7983L20.9727 50.314L20.9492 50.2554L20.9375 50.1851L20.293 47.7358L19.25 45.439L19.1211 45.1694V44.8765L19.0391 42.2515L18.6289 39.7905L18.6055 39.6265V39.4624L18.7578 36.9663L18.4062 34.4702L18.3594 34.1421L18.4531 33.8374L19.1914 31.3647L19.5312 28.8804L19.543 28.7983L19.5664 28.7163L20.2227 26.1616L20.2344 26.103L20.2578 26.0562L21.1133 23.5483L21.1719 23.3843L21.2656 23.2319L22.6953 20.9937L23.8086 18.7788L23.8789 18.6499L23.9727 18.5327L25.5195 16.5288L26.8086 14.314L26.9492 14.0796L27.1602 13.9038L29.2227 12.228L31.2383 10.5522L33.2305 8.85303L33.3242 8.771L33.4297 8.7124L35.6797 7.34131L35.7852 7.28271L35.8906 7.23584L38.3281 6.22803L40.6719 5.16162L40.6836 5.1499H40.6953L43.1211 4.0835L43.3555 3.97803L43.6016 3.96631L46.2266 3.73193L46.4727 3.7085L46.7188 3.76709Z" fill="black"/>
<path d="M58.2871 2.52344L60.6543 2.96875L62.9629 2.61719L63.0566 2.60547H63.1387L65.7988 2.53516L66.0449 2.52344L66.2793 2.59375L68.8105 3.36719L69.0215 3.4375L71.2832 4.50391L70.7793 5.57031L70.7441 5.875L70.5449 7.36328L70.4395 7.35156L70.2168 7.31641L70.0059 7.22266L67.8613 6.21484L65.6113 5.52344L63.3379 5.59375L60.8652 5.96875L60.6191 6.00391L60.373 5.95703L57.9121 5.5L55.6387 5.69922L53.1895 6.30859H53.1777L50.6348 6.94141L50.5176 6.96484L50.3887 6.97656L49.0645 7.08203L48.959 5.80469H47.4473V4.19922L48.8301 4.08203L50.0254 4L52.4629 3.40234L55.0293 2.76953L55.1465 2.73438L55.2637 2.72266L57.8887 2.5L58.0879 2.48828L58.2871 2.52344Z" fill="black"/>
<path d="M61.3447 4.57812V4.61328L61.4502 7.15625L61.4619 7.26172L61.4502 7.37891L61.1807 9.85156L61.4268 12.3477V12.4414L61.5322 15.0781L61.5439 15.1719L61.5322 15.2539L61.333 17.8906L61.3213 20.3164L61.5088 22.9531L61.5205 23.0234L61.5088 23.1055L61.4385 25.7422V25.8125L61.4268 25.8711L61.1455 28.3086L61.5439 30.7344L61.5674 30.8984L61.5557 31.0625L61.415 33.5938L61.5908 36.1602L61.6025 36.3008L61.5791 36.4414L61.2744 38.9492L61.3564 41.4922L61.4385 44.082L61.6025 46.7305L61.6143 46.9062L61.5791 47.082L61.1572 49.4609L61.5791 51.8398L61.6143 52.0391L61.6025 52.2383L61.3564 54.7109L61.4971 57.3008L61.5088 57.4414L61.4854 57.5938L61.1338 59.9961L61.5791 62.3867L61.6143 62.5625L61.6025 62.7383L61.4736 65.375L61.415 67.9648L61.4619 70.5547V70.6602L61.4502 70.7656L61.1338 73.2617L61.3682 75.7227V75.8516L61.3916 78.4883V78.582L61.3799 78.6641L61.0986 81.125L61.4736 83.5508L61.4971 83.7266L61.4854 83.9023L61.3564 85.4961L61.2393 86.8789H59.8447V85.3672L58.3682 85.2617L58.4854 83.8203L58.1104 81.3594L58.0752 81.1602L58.0986 80.9727L58.3916 78.4297L58.3682 75.875L58.3799 75.8633L58.1338 73.3555L58.1221 73.1914L58.1455 73.0273L58.4619 70.4961L58.415 67.9648V67.9062L58.4736 65.2695V65.2227L58.6025 62.7383L58.1455 60.2891L58.0986 60.0547L58.1338 59.8086L58.4971 57.3008L58.3564 54.8164V54.5938L58.6025 52.168L58.1689 49.7188L58.1221 49.4609L58.1689 49.1914L58.6025 46.6953L58.4502 44.2695V44.2461L58.4385 44.2227L58.2744 38.9492V38.832L58.2861 38.7148L58.5908 36.1602L58.4268 33.7109L58.415 33.6289L58.4268 33.5352L58.5557 31.0625L58.1455 28.5781L58.1104 28.3672L58.1338 28.1562L58.4502 25.6016L58.5205 23.1641L58.333 20.5273L58.3213 20.4688V20.4102L58.333 17.7734V17.6562L58.5439 15.0781L58.4385 12.6406L58.1807 10.0039L58.1689 9.85156L58.1807 9.69922L58.4502 7.15625L58.3447 4.74219V4.57812H61.3447Z" fill="black"/>
<path d="M48.9434 5.87988L49.5645 6.3252L50.209 6.66504L49.0137 8.91504L48.873 9.18457L48.627 9.37207L46.7285 10.8955L45.4277 12.9229L44.1855 15.126L44.1621 15.1494L42.8848 17.3057L41.9941 19.5791L41.4316 22.0283V22.0635L41.4199 22.0869L40.7285 24.6299V24.6533L40.7168 24.6768L40.002 26.9619L40.084 29.3994L40.0957 29.5283L40.0723 29.6572L39.7207 32.1533L39.8027 34.6494V34.7549L39.791 34.8604L39.5098 37.3799L39.7207 39.8408H39.709L40.002 42.3252L40.4707 44.9268L40.4941 45.0791V45.2314L40.4121 47.6221L41.2441 49.8721L41.3027 50.0361L41.3145 50.2236L41.6074 52.7432L42.3105 55.1221L42.3457 55.2393L42.3691 55.3682L42.6504 57.7354L43.7637 59.9033L43.834 60.0439L43.8691 60.1963L44.5371 62.6572L45.3809 65.1533L46.3301 67.5205L46.3652 67.6143L46.3887 67.6963L47.0215 70.1221L48.1816 72.3018L48.2285 72.3955L49.2832 74.8096L49.3184 74.8916L49.3418 74.9736L50.0801 77.3174L51.416 79.3916L51.4863 79.5088L51.5449 79.6494L52.5176 82.0986L52.5762 82.2275L52.5996 82.3682L53.1035 84.9229L52.0371 85.1338L51.791 85.3799L50.7129 86.4229L50.5488 86.2588L50.2441 85.9424L50.1621 85.5088L49.6816 83.0596L48.8145 80.8916L47.4434 78.7705L47.3379 78.5947L47.2793 78.3955L46.4941 75.9229L45.5215 73.6963L44.291 71.3525L44.209 71.2002L44.1621 71.0361L43.4941 68.5518L42.5566 66.1963L42.5449 66.1494L42.5332 66.1143L41.6895 63.6064L41.6777 63.5713L41.666 63.5244L41.0098 61.1104L39.8613 58.8838L39.7441 58.6494L39.709 58.3799L39.4043 55.8721L38.6895 53.4463L38.6426 53.3174L38.6309 53.1885L38.3496 50.7275L37.5059 48.3838L37.4004 48.1143L37.4121 47.8213L37.4941 45.29L37.0488 42.8525L37.0371 42.8057V42.7705L36.7324 40.1455V40.1221L36.7207 40.0986L36.5098 37.4619L36.498 37.3096L36.5098 37.1689L36.8027 34.5674L36.7207 32.1064V31.9775L36.7324 31.8486L37.084 29.3525L37.002 26.8213L36.9902 26.5752L37.0723 26.3408L37.8457 23.7861L38.5254 21.3018L39.1113 18.7822L39.1348 18.6768L39.1816 18.5713L40.1426 16.1104L40.1777 16.0049L40.248 15.8994L41.584 13.626L42.8613 11.3643L42.8848 11.3291L42.9082 11.2822L44.3613 9.05566L44.4902 8.85645L44.6777 8.7041L46.4941 7.23926L47.5605 5.25879L47.6074 5.16504L47.666 5.09473L47.7246 5.0127L48.9434 5.87988Z" fill="black"/>
<path d="M72.0225 5.09473L72.0576 5.12988L72.0811 5.17676L73.3232 7.19238L74.8467 9.06738L76.6982 10.9541L76.792 11.0479L76.8623 11.1533L78.3857 13.333L78.4795 13.4619L78.5498 13.626L79.5459 16.0752L79.5576 16.0869V16.0986L80.5186 18.5596L81.4795 21.0322L81.5264 21.1377L81.5498 21.2549L82.1006 23.8447L82.124 23.9502L82.1357 24.0557L82.2998 26.5283L83.0381 28.9307L83.0967 29.1299V29.3408L83.1436 31.8604L83.4248 34.4854L83.4365 34.6494L83.4248 34.8135L83.1436 37.3213L83.1084 39.958V40.0166L82.9678 42.6533V42.665L82.8271 45.3018L82.8154 45.501L82.7568 45.7002L81.9834 48.0205V50.6807L81.9248 50.8916L81.1748 53.3057L80.7178 55.8604L80.6826 56.0361L80.6123 56.1885L79.6631 58.415L79.3936 60.876L79.3701 61.0752L79.2998 61.2627L78.3389 63.7354L77.3896 66.1494L77.4014 66.1611L76.4873 68.6455L76.4521 68.7627L76.3936 68.8564L75.1631 71.0596L74.4248 73.4385L74.4014 73.5088L74.3662 73.5674L73.335 76.0049L73.2998 76.0869L73.2529 76.1689L71.999 78.3252L71.3662 80.6807L71.3311 80.833L71.2607 80.9736L70.1006 83.2236L69.3623 85.6025L68.2607 85.251L68.0615 85.3799L66.7725 86.1533L66.6436 85.9307L66.292 85.3564L66.4912 84.7119L67.2881 82.1924L67.3232 82.0752L67.3818 81.958L68.5068 79.7549L69.1748 77.3174L69.2334 77.1299L69.3271 76.9658L70.6279 74.7041L71.6123 72.3955L72.3623 70.0049L72.4092 69.8643L72.4795 69.7236L73.71 67.4854L74.5771 65.1416V65.1299L74.5889 65.1182L75.5381 62.6455V62.6338L76.417 60.3486L76.6982 57.8877L76.7217 57.665L76.8154 57.4541L77.7881 55.1455L78.2334 52.7314L78.2451 52.6377L78.2803 52.5557L78.9834 50.2354V47.5283L79.0654 47.3057L79.8271 44.9268L79.9678 42.501L80.1084 39.8643L80.1436 37.2861V37.1338L80.4131 34.6377L80.1553 32.1885L80.1436 32.1182V32.0479L80.0967 29.5869L79.3936 27.2432L79.335 27.0791L79.3232 26.915L79.1475 24.4072L78.6318 22.0049L77.7178 19.6494L76.7568 17.1885V17.1768L75.8428 14.9268L74.4717 12.9697L72.7139 11.1768L72.6553 11.1299L72.6084 11.0713L70.9443 9.02051L70.8857 8.9502L70.8271 8.86816L69.5264 6.74707L71.9639 5.0127L72.0225 5.09473Z" fill="black"/>
<path d="M63.0977 101.409L65.5352 102.019L68.0195 102.147L69.0391 102.194L69.3672 103.167L70.1172 105.44L70.1875 105.64L70.1992 105.862L70.2695 108.499V108.616L70.2578 108.722L69.9531 111.37L69.7656 113.843L69.7188 114.511L69.1914 114.921L67.2461 116.433L67 116.62L66.6836 116.702L64.1406 117.323L63.8828 117.394L63.6133 117.358L61.0586 117.065L58.5508 116.995L55.9492 117.171L55.8438 117.183L55.7383 117.171L53.1133 116.96L52.5508 116.913L52.1641 116.515L50.4062 114.722L50.0664 114.382L49.9961 113.913L49.5859 111.405L49.5742 111.358V111.312L49.3047 108.675L49.293 108.522L49.3047 108.358L49.5977 105.722L49.6094 105.604L49.6445 105.487L50.2656 103.226L51.4141 103.53H51.707L51.7891 103.519L50.8867 102.323L51.2617 102.054L51.6836 101.726L52.2109 101.749L54.707 101.854L57.2852 101.562L57.4258 101.55L57.5664 101.562L60.0273 101.761L62.5117 101.386L62.8047 101.339L63.0977 101.409ZM60.3086 104.749L60.1328 104.772L59.9688 104.761L57.4844 104.562L54.9883 104.843L54.8828 104.854L54.7656 104.843L52.9492 104.772L52.5625 106.155L52.3047 108.534L52.5391 110.925L52.8672 112.964L53.8984 114.007L55.7969 114.159L58.3984 114.007L58.4688 113.995L58.5391 114.007L61.1758 114.077H61.2344L61.3047 114.089L63.6719 114.347L65.6641 113.854L66.8242 112.952L66.9648 111.089V111.019L67.2578 108.487L67.1992 106.179L66.8359 105.077L65.2656 105.007L65.125 104.995L64.9844 104.96L62.6523 104.386L60.3086 104.749Z" fill="black"/>
<path d="M73.0234 86.519L73.1172 86.6245L74.418 86.9058L73.8672 89.3901L73.8086 89.6948L73.6328 89.9409L72.1562 92.0151L72.168 92.0269L70.8086 94.2651L70.4336 94.8862L69.707 94.98L67.0586 95.3081L66.8828 95.3315L66.6953 95.3081L64.0703 95.0151V95.0034L61.668 94.9683L59.0664 95.1558L58.9961 95.1675H58.9258L56.2891 95.1089H56.2539L56.2188 95.0972L53.6523 94.9331L51.2617 95.2378L50.6055 95.3198L50.1016 94.8979L48.1445 93.2339L47.9688 93.0933L47.8516 92.9058L46.4102 90.6792L46.3047 90.5034L46.2344 90.3042L45.4727 87.7729L45.4258 87.6323L45.4141 87.48L45.332 86.6597L46.832 86.519L48.3203 86.3784L48.3789 87.0464L49.0352 89.2261L50.2422 91.0776L51.5312 92.1792L53.4414 91.9448L53.582 91.9214L53.7227 91.9331L56.4062 92.1089H56.3945L58.8672 92.1558L61.4922 91.98L61.5508 91.9683H61.6211L64.2578 92.0151L64.3281 92.0269H64.3984L66.8477 92.3081L68.6055 92.0854L69.6016 90.4683L69.625 90.4331L69.6602 90.3862L70.9961 88.4761L71.4766 86.2729L71.582 85.8042L71.9219 85.4878L72.0039 85.4175L73.0234 86.519Z" fill="black"/>
<path d="M54.0957 93.8413L54.1074 93.853V93.8647L54.4941 96.3608L54.5059 96.396V96.4312L54.7754 98.8687L55.5723 101.283L55.6309 101.458L55.6426 101.646L55.7246 102.853L54.2363 102.958L52.7363 103.064L52.666 102.056L51.8926 99.7124L51.834 99.5601L51.8223 99.4077L51.541 96.8179L51.5293 96.8296L51.1426 94.3687L51.1309 94.2749L54.084 93.7358L54.0957 93.8413Z" fill="black"/>
<path d="M67.168 94.0054L68.6328 94.2866L68.6211 94.3101L68.2578 96.8413L68.2461 96.9468L68.2109 97.0522L67.4844 99.4429L67.2617 101.939L67.25 102.068L67.2148 102.185L66.9102 103.345L64.0039 102.572L64.2969 101.529L64.5195 99.021L64.5312 98.8687L64.5781 98.728L65.3164 96.2788L65.668 93.8882V93.8179L65.6914 93.7241L67.168 94.0054Z" fill="black"/>
<path d="M61.6758 105.812L64.3125 106.012L64.3008 106.023H66.8086L67.9688 106L68.0039 107.5L68.0273 109L66.8672 109.023H66.832L64.1953 109.012H64.0781L61.5 108.812L59.0508 108.906H59.0625L56.4258 109.164L56.2734 109.176L56.1211 109.164L53.625 108.906L51.1641 109H51V106H51.0352L53.5781 105.895L53.6836 105.883L53.8008 105.895L56.2852 106.164L58.7695 105.918H58.8633L61.5 105.812L61.5938 105.801L61.6758 105.812Z" fill="black"/>
</svg>
