<svg xmlns="http://www.w3.org/2000/svg" width="120" height="120" fill="none" viewBox="0 0 120 120"><path fill="#000" d="m111.312 114.289 1.043.258-.703 2.906-.761-.187-2.344.363-.094.023h-.094l-2.636.071h-.141l-2.531-.422-2.379.433-.234.047-.235-.035-2.566-.34h-2.403l-2.636.223-.106.012-.094-.012-2.648-.152v-.012l-2.473-.117-2.496.386-.199.036-.187-.024-2.543-.293-2.555.024-.012-.012-2.508.246-.164.012-.164-.024-2.531-.316-2.531.047h-.059l-2.637-.059h-.047l-2.472-.141-2.461.469-.234.047-.246-.035-2.508-.363-2.485.14h-.222l-2.426-.246-2.45.434-.257.047-.27-.047-2.496-.434-2.426.153h-.023l-.023.011-5.274.164h-.117l-.117-.011-2.543-.305-2.461.164-.082.012-.094-.012-2.45-.141-2.507.422-.21.035-.212-.023-2.555-.316-2.484-.071-2.59.188-.058.011h-.059l-2.637-.011h-.117l-2.578-.211-2.45.094.012.011-2.636.258-.153.012-.152-.012-2.496-.269-2.46.105H8v-3h.035l2.543-.105.106-.012.117.012 2.484.269 2.485-.246h.093l2.637-.106.094-.011.082.011 2.637.2-.012.011h2.437l2.637-.187.07-.012.082.012 2.637.07h.07l.059.012 2.438.281 2.425-.398.164-.024.164.012 2.532.141 2.566-.176.14-.012.141.024 2.508.304 2.543-.082 2.59-.07v-.012l2.648-.164.176-.012.176.036 2.379.422 2.379-.422.199-.036.2.012 2.472.246 2.59-.14.14-.012.153.023 2.402.352 2.39-.445.176-.036.176.012 2.637.129-.012.012 2.578.047 2.614-.047h.105l.106.012 2.496.316 2.46-.234h.13l2.636-.024h.094l.082.012 2.46.281 2.427-.375.152-.023.152.011 2.637.129h.012l2.52.153L95 114.43l.059-.012h.047l2.648-.012h.105l.106.012 2.402.328 2.403-.434.257-.046.258.035 2.531.422 2.321-.059 2.601-.398.293-.047zM71.867 6.266l2.508.304 2.531-.082 2.649-.082h.023l2.66-.047h.281l.258.094 2.344.867 2.52.34.304.047.258.152 2.274 1.348 2.308 1.324.211.13.164.187 1.653 1.875 2.027 1.558.222.164.141.235 1.395 2.273.07.14 1.148 2.391.036.059.023.07.914 2.485.07.187.024.211.199 2.52.422 2.601.023.117v.118l.024 2.636v.094l-.012.094-.281 2.402.375 2.484.023.141-.011.152-.129 2.637v.012l-.153 2.52.211 2.554v.117l.024 2.637v.105l-.012.106-.34 2.402.445 2.414.047.246-.047.258-.41 2.485.059 2.472.398 2.496.012.118v.117l-.012 2.636v.106l-.011.105-.375 2.496.152 2.485v.14l-.094 2.637v.117l-.023.118-.528 2.59-.011.093-.036.094-.831 2.484-.036.106-.047.105-1.183 2.332-.012-.011-1.09 2.379-.105.21-.164.176-1.805 1.945-1.816 1.946-.164.176-.223.117-2.344 1.277-.011-.012-2.286 1.278-.105.058-.106.035L86 88.66l-.059.024-.07.023-2.555.68-.152.035-.152.012-2.649.152-.058.012h-.059l-2.637-.059v-.012l-2.59-.023-2.613.094-2.648.093h-.059l-2.636-.023h-.012l-2.649-.047h-.07l-.07-.012-2.52-.293-2.449.047.012.012-2.637.27-.07.011h-2.825l-2.648-.187v-.012l-2.578-.07v-.012l-2.613-.035h-.012l-2.59-.047-2.602.094h-.128l-2.625-.13-.118-.01-.117-.024-2.52-.54v.012l-2.6-.468-.142-.024-.128-.047-2.485-.972-.164-.059-.14-.106-2.192-1.511-.117-.094-2.016-1.71-.058-.048-.059-.058-1.828-1.922-.07-.07-.059-.094-1.547-2.156-.105-.141-.059-.176-.95-2.379-1.124-2.39-.082-.164-.035-.176-.516-2.59-.023-.164-.246-2.625v-.153l.023-2.648v-.035l.012-.047.175-2.484-.433-2.438-.047-.27.059-.257.468-2.52-.023-2.367-.223-2.637v-.023l-.175-2.637v-2.73l-.036-2.637v-.129l.024-.129.41-2.496-.164-2.45v-.151l.094-2.497-.141-2.648v-.117l.07-2.438-.28-2.636-.036-.235.058-.234.516-2.461.059-2.543.011-.235.082-.222.868-2.496.023-.07.035-.07 1.114-2.392.011-.011 1.149-2.402.105-.223.176-.176 1.852-1.898.07-.07 1.945-1.77.106-.106.128-.07 2.262-1.36 2.04-1.476.163-.129.2-.07 2.496-.903.129-.046.14-.024 2.614-.422.07-.011h.082l2.402-.13.328-.128.246-.094h.305l2.531-.105.117-.012.106.012 2.496.27 2.484-.247h.082l2.649-.106.082-.011.094.011 2.636.2-.011.011h2.425l2.637-.187.082-.012.07.012 2.649.07h.059l.07.012 2.426.281 2.437-.398.153-.024.164.012 2.542.14 2.567-.175.14-.012zm-2.73 3.152-.082.012-.094-.012-2.461-.14-2.496.421-.211.035-.211-.023-2.555-.316-2.484-.07-2.59.187-.059.011h-.058l-2.637-.011h-.117L50.504 9.3l-2.45.094-2.624.27-.153.01-.152-.01-2.508-.27-2.355.093-.293.117-.211.082-.211.012-2.613.14-2.332.388-2.168.773-1.97 1.441-.046.036-.059.035-2.132 1.265-1.829 1.688-1.617 1.652-1.054 2.168-1.102 2.39-.75 2.134-.059 2.425v.13l-.035.128-.492 2.38.27 2.413.011.106v.093l-.07 2.532.14 2.636v.141l-.093 2.637.152 2.496.012.164-.023.164-.41 2.543.035 2.473v2.66l.175 2.543h-.011l.222 2.613.012.059v.058l.023 2.637v.14l-.035.153-.445 2.344.41 2.402.035.176-.012.175-.187 2.649-.023 2.555.222 2.379.457 2.32 1.067 2.261.023.07.902 2.263 1.372 1.933 1.746 1.828 1.922 1.63 1.945 1.335 2.133.832 2.496.457.023.012h.012l2.414.504 2.484.117 2.567-.082h.082l5.273.094h.024l2.636.082h.059l2.648.187h2.38l2.636-.27h.059l.058-.011 2.637-.059h.105l.106.012 2.531.293 2.602.047h-.012l2.59.012 2.625-.082 2.636-.082.036-.012h.035l2.648.035h.012l2.543.047 2.473-.152 2.425-.633 2.262-.832 2.192-1.196v-.011l2.144-1.16 1.64-1.758 1.641-1.77 1.02-2.191.023-.047 1.137-2.25.75-2.238.492-2.391.094-2.414-.14-2.637-.012-.152.023-.152.363-2.485V59.61l-.375-2.484-.011-.094v-.093l-.07-2.637v-.14l.023-.142.386-2.378-.433-2.391-.035-.234.035-.235.328-2.543-.012-2.52v-.011l-.199-2.52-.012-.105v-.105l.153-2.637.117-2.531-.364-2.438-.035-.2.024-.198.281-2.532-.012-2.472-.421-2.532v-.058l-.2-2.414-.82-2.25-1.09-2.262-1.207-1.957-1.91-1.476-.117-.094-.094-.106-1.606-1.816-2.074-1.195h-.023l-2.028-1.22-2.355-.316-.164-.023-.152-.059-2.262-.832-2.367.036.011.011-5.273.164h-.117l-.117-.011-2.543-.317z"/><path fill="#000" d="m82.766 86.266 2.496.41 1.183.199.059 1.207.152 2.637v.152l-.023.14-.352 2.391.457 2.403.035.175-.011.176-.14 2.637-.048 2.602.035 2.578.012.105-.023.106-.305 2.437.223 2.52.011.07v.059l.024 2.636V112l-.012.094-.305 2.636-.035.317-.164.281-.95 1.582-.456.774-.902-.036-2.637-.128h-.012l-2.613-.153-2.461.211h-.117l-2.637.024h-.106l-.105-.024-2.414-.328-2.402.445-.246.047-.258-.047-2.485-.41-2.402.047-2.566.398-.118.024h-.117l-2.636-.012h-.106l-.105-.012-2.508-.375-2.473.153h-.07l-2.649.012h-.047l-2.636-.071v-.011l-2.637-.047h-.012l-2.52-.094-2.519.34-.129.023-.14-.012-2.637-.128-.539-.024-.398-.363-1.524-1.383-.562-.516.082-.761.293-2.567-.07-2.508v-2.601l-.13-2.649-.011-.046.011-.047.047-2.649.059-2.637.023-2.554-.093-2.649-.083-2.636v-.059l.024-2.637v-.48l.27-.375.163-.246.458-.633h.808l2.543-.106.106-.011.117.011 2.484.27 2.485-.246h.093l2.637-.106.094-.011.082.011 2.636.2-.011.011h2.437l2.637-.187.07-.012.082.012 2.637.07h.07l.059.012 2.438.281 2.425-.398.164-.024.164.012 2.532.14 2.566-.175.14-.012.141.024 2.508.304 2.543-.082 2.59-.07v-.012l2.648-.164.176-.011.176.035 2.379.421 2.379-.421.257-.047zm-8.075 3.128h-.023l-.024.012-5.273.164h-.117l-.117-.011-2.543-.305-2.461.164-.082.012-.094-.012-2.45-.14-2.507.421-.21.035-.212-.023-2.555-.317-2.484-.07-2.59.188-.058.011h-.059l-2.637-.011h-.117L45.5 89.3l-2.45.093.013.012-2.637.258-.153.012-.152-.012-2.496-.27-1.3.047-.013 1.453.083 2.579.093 2.636v.07l-.023 2.637v.012l-.059 2.649-.058 2.636.129 2.532.011.035v2.636l.07 2.637.012.117-.011.106-.223 1.875.55.504 1.97.093 2.507-.328.117-.023.13.012 2.636.082h-.012l2.649.058 2.625.059h2.531l2.637-.153h.152l.152.012 2.555.375h2.356l2.566-.375.094-.012h.093l2.637-.07.14-.012.141.024 2.403.387 2.367-.422.234-.047.235.035 2.543.34 2.414-.012 2.636-.211h.212l2.636.153h-.011l1.734.082.328-.551.258-2.227-.024-2.531h-.011l-.223-2.52-.012-.152.012-.164.305-2.543-.024-2.531v-.059l.059-2.636v-.047l.117-2.497-.445-2.425-.047-.246.035-.246.351-2.508-.07-1.29-1.055-.175-2.378.422-.258.047-.27-.047-2.496-.434z"/><path fill="#000" d="m45.281 86.523 2.274-.129.117-.011.129.011 2.484.27 2.485-.246.832-.082.504.656 1.277 1.652.351.458-.047.574-.199 2.636-.011 2.426.187 2.637.012.07-.012.082-.07 2.637v.07l-.012.059-.281 2.437.398 2.426.024.164-.012.164-.14 2.532.175 2.566.012.141-.024.14-.304 2.508.082 2.543.047 1.465-1.465.082-2.614.129.012.012-2.636.164h-.176l-.176-.024-2.648-.469-.446-.082-.328-.304-1.371-1.325-.527-.503.058-.715.246-2.508-.14-2.555-.012-.152.023-.141.34-2.426-.433-2.367-.035-.175.011-.176.13-2.637.058-2.543-.047-2.637v-.105l.011-.106.317-2.507-.234-2.45v-.128l-.024-2.637v-.422l.211-.363.047-.07.621-1.044zm1.184 2.93v1.242l.246 2.532.012.152-.024.164-.316 2.52.047 2.554v.059l-.059 2.636v.047l-.14 2.461.515 2.707-.035.246-.363 2.497.14 2.484v.223l-.187 1.91.527.504 1.992.363 2.485-.152h.011l1.149-.071-.035-1.16v-.117l.011-.117.305-2.555-.164-2.449-.012-.082.012-.094.129-2.473L52.3 103l-.035-.211.023-.211.305-2.555.082-2.437-.188-2.637-.011-.058v-.059l.011-2.637v-.117l.164-2.062-.41-.54-1.816.188-.153.012-.152-.012-2.555-.281zM66.8 86.395l2.485.27 2.484-.247.293-.024.27.07 2.274.657 1.183.328-.094 1.23-.21 2.637v2.532l.175 2.52.012.081v.07l-.082 2.649v.129l-.293 2.426.398 2.437.024.152v.165l-.14 2.543.163 2.566.012.141-.012.14-.316 2.508.082 2.531.035.809-.668.469-1.606 1.136-.351.246-.422.036-2.648.164h-.176l-.176-.024-2.379-.433-2.379.433-1.441.246-.281-1.429-.493-2.426-.023-.106-.012-.105-.14-2.637-.012-.152.023-.141.34-2.437-.433-2.356-.035-.176.011-.187.13-2.637.058-2.531-.047-2.649v-.105l.011-.094.317-2.507-.234-2.461v-.118l-.024-2.648v-.105l.012-.118.304-2.074 1.09.164L64 86.5h.48l2.086-.106.118-.011zm-1.241 3.058-.106.75.012 2.496.246 2.52.012.164-.024.164-.316 2.52.047 2.542v.059l-.059 2.648v.047l-.14 2.461.515 2.707-.035.246-.363 2.496.129 2.356.175.891 1.207-.2.258-.047.27.047 2.437.434 2.051-.129.61-.434-.06-1.816v-.117l.013-.117.304-2.485-.164-2.519v-.176l.129-2.484-.41-2.473-.024-.211.024-.211.293-2.555.082-2.437-.188-2.637v-2.812l.012-.059.106-1.418-.833-.234-2.343.234-.153.012-.152-.012-2.496-.27zm-4.953-73.729.14.082.352.199.199.351.023.036 1.36 2.156.058.094.035.093 1.008 2.285 1.453 2.051.047.07 1.395 2.239.047.082.046.07 1.079 2.297 1.242 2.203 1.476 2.203.036.059.035.07 1.242 2.32.035.06.023.07.95 2.226 1.558 1.934.106.129.07.14 1.16 2.309 1.406 2.11.07.116.06.13.984 2.355 1.324 2.144 1.36 2.215 1.453 2.203.093.152.07.165.81 2.273 1.546 1.863.129.153.082.187 1.043 2.32 1.383 2.122.07.128.059.13.984 2.484.352.879-.657.703-.949 1.02-.48.503-.692-.035-2.648-.14v-.012l-2.567-.047-2.601.047h-.106l-.105-.012-2.461-.305-2.496.223-.07.012h-.059l-2.637.011h-.187l-2.473-.293-2.414.375-.14.024h-.153l-2.637-.129h-.011l-2.614-.152-2.46.21h-.118l-2.636.024h-.106l-.105-.023-2.414-.329-2.403.446-.258.047-.246-.047-2.496-.41-2.379.047-2.578.398-.117.023h-.117l-2.637-.011h-.105l-.106-.012-2.508-.375-2.472.152-.633.035-.469-.433-1.031-.961-.902-.832.632-1.043 1.371-2.262 1.36-2.25v-.023l1.312-2.133.973-2.356.047-.129.082-.117 1.37-2.168 1.079-2.285.059-.129.093-.117 1.477-2.027 1.219-2.274.011-.011.012-.024 1.3-2.285 1.173-2.297.047-.094 1.347-2.261h.012l1.348-2.274 1.336-2.261 1.195-2.274 1.23-2.344.024-.023.012-.023 1.324-2.286v-.011h.011l1.348-2.274.035-.058.047-.059 1.524-2.098 1.136-2.086 1.078-2.425.07-.141 1.255-2.215.75-1.3zm-.669 4.195-1.042 2.355-.047.118-1.254 2.32-.047.094-.059.082-1.582 2.144-1.265 2.145-.012-.012-1.29 2.215-1.23 2.332-1.218 2.344-.024.035-.011.035-1.337 2.273-.011.012-1.36 2.262-1.347 2.273-1.149 2.262-.023.035-.012.024-1.3 2.25.011.011-1.242 2.332-.047.094-.07.082-1.477 2.004-1.066 2.285-.047.094-.047.082-1.36 2.098-.949 2.355-.046.117-.059.106-1.395 2.25-1.347 2.238v.012l-.528.867 1.465-.082h.153l.152.012 2.555.375h2.355l2.566-.375.094-.012h.094l2.637-.07.14-.012.141.023 2.402.387 2.367-.422.235-.047.234.035 2.543.34 2.414-.011 2.637-.211h.211l2.637.152h-.012l2.473.117 2.507-.375.2-.023.199.023 2.52.27h2.449l2.648-.235.152-.023.165.023 2.519.305 2.555-.035h.058l2.637.058h.047l1.687.083-.515-1.29-1.336-2.062-.059-.094-.047-.094-1.008-2.226-1.582-1.91-.175-.211-.082-.246-.844-2.344-1.36-2.074-.011-.024-.012-.011-2.766-4.5-.058-.094-.047-.117-.973-2.32-1.382-2.087-.047-.07-.047-.082-1.102-2.203-1.594-1.969-.14-.164-.082-.187-1.031-2.45h-.012l-1.184-2.215h-.011l-1.383-2.062-.035-.047-.024-.047-1.3-2.297-.024-.058-.023-.047-1.102-2.309-1.3-2.097-1.536-2.168-.094-.118-.058-.14-1.032-2.332-.105-.176z"/><path fill="#000" d="m61.71 43.59-.14 2.637v.036l-.07.96-3-.234.082-.96.129-2.415-.41-2.508-.035-.21.023-.211.305-2.555.07-2.485-.176-2.59-.011-.058v-.059l.011-2.636v-.117l.2-2.579-.094-2.449v.012l-.258-2.637-.012-.152.012-.152.258-2.497-.094-2.46v-.165h3v.036l.105 2.543.012.105-.011.117-.27 2.485.246 2.484v.094l.105 2.636.012.094-.011.082-.2 2.637-.011-.012v2.438l.187 2.636.012.07-.012.083-.07 2.636v.07l-.012.06-.281 2.437.398 2.426.024.164z"/><path fill="#000" d="m86.87 65.402-1.228-.82-.611 1.086-1.794-.985-.095-.048-.08-.069-1.967-1.465-2.314-1.05-.195-.088-.163-.136-1.957-1.671-2.028-1.437-2.252-1.29-.055-.023-.05-.032-2.187-1.473-.097-.065-2.035-1.595-2.09-1.281.01.007-2.337-1.248-.133-.075-.12-.095-1.934-1.599-2.1-1.287-.136-.09 1.664-2.497.03.02 2.174 1.322.094.05.09.074 1.919 1.602 2.203 1.174.078.052 2.252 1.375.085.042.062.055 2.083 1.628-.016.004 2.028 1.352 2.298 1.306.065.03.062.055 2.154 1.52.059.04.042.042 1.872 1.586 2.24 1.014.15.072.13.1 1.998 1.502 1.746.952 1.433.787z"/><path fill="#000" d="m58.859 46.212.891-.294.962 2.832-.651.23-1.882 1.464-.06.056-.085.043-2.098 1.27-1.843 1.75-.155.148-.187.099-2.284 1.184-2.094 1.34-2.043 1.6-.042.044-.048.032-2.187 1.473-.097.066-2.244 1.285-1.973 1.455.01-.007-2.035 1.696-.12.096-.132.076-2.21 1.19-1.982 1.461-.135.093-1.687-2.481.029-.02 2.043-1.517.081-.07.104-.055 2.206-1.174 1.916-1.6.077-.054 2.121-1.57.071-.062.075-.036 2.292-1.318-.003.016 2.015-1.37 2.075-1.638.052-.05.074-.036 2.22-1.425.058-.04.055-.022 2.174-1.138 1.782-1.694.123-.111.142-.083 2.172-1.307 2.023-1.589.207-.154zM58 83.496v-1.488l-1.3.07-.095-2.027-.011.011-.258-2.636-.012-.153.012-.152.27-2.496-.106-2.46V72h3v.035l.105 2.543.012.106-.011.117-.27 2.484.246 2.484v.07l.105 2.087.083 1.57zm-9 0v-1.488l-1.3.07-.095-2.027-.011.011-.258-2.636-.012-.153.012-.152.27-2.496-.106-2.46V72h3v.035l.105 2.543.012.106-.011.117-.27 2.484.246 2.484v.07l.105 2.087.083 1.57z"/><path fill="#000" d="M51.999 73.005h1.488l-.07-1.3 2.027-.095-.011-.011 2.636-.258.153-.012.152.012 2.496.27 2.461-.106h.164v3h-.035l-2.543.105-.105.012-.118-.012-2.484-.27-2.484.247h-.07l-2.087.105-1.57.082zm23.497 4.985H74.02l.434 1.336-.797.258-.351.117-.364-.07-1.441-.246-1.29.105H70v-2.847l-.012-.153 1.5-.105.188-.012.176.035 1.23.211.457-.14 1.957-.633zm7.484-6.467 2.391.973.223.094.175.152 2.016 1.7.434.374.082.575.258 1.91.234 1.699h-.68l-.304 1.383-.141.586-.492.328-2.168 1.441-.246.164-.293.059-2.531.516-.493.093-.457-.21-2.425-1.15-.493-.245-.222-.492-1.102-2.426-.164-.352.035-.398.223-2.578.035-.399.223-.328 1.511-2.18.293-.445.516-.14 2.566-.762.504-.153zm-2.214 3.422-.973 1.418-.164 1.793.715 1.559 1.476.715 1.758-.352 1.43-.95.433-1.933.047-.234-.094-.598-1.382-1.183-1.676-.692zm-41.254-3.574 2.625.41.351.059.293.222 1.957 1.43-.808 1.114.023.07.434 1.441-.094.024-.715.222-.61-.445-1.675-1.23-1.793-.294-1.605.774-1.008 1.441-.211 1.641.82 1.348 1.606.633 1.84-.13 1.476-.902.152-.445 2.86.914-.317.984-.164.54-.492.292-2.273 1.383-.305.176-.363.035-2.532.176-.34.035-.316-.129-2.39-.95-.47-.175-.257-.433-1.36-2.227-.28-.457.07-.516.328-2.53.047-.376.21-.293 1.442-2.074.223-.317.351-.175 2.38-1.137.433-.21z"/><path fill="#000" d="m68.926 71.43 2.636.351.07.012.06.012 2.496.55-.294 1.29.06.128.632 1.36-.094.047-.457.21-.504-.105-2.414-.539-2.05-.27-1.442.891-.832 1.559v1.652l.973 1.254 1.687.445 1.793-.34 1.817-1.394.503.656.434.012 1.5.047-.012.515-.023.715-.563.434-2.097 1.629-.293.222-.352.059-2.496.469-.34.058-.328-.093-2.484-.668-.48-.13-.305-.386-1.618-2.05-.316-.423v-.515l.012-2.555v-.375l.175-.328 1.184-2.227.2-.351.327-.211 2.239-1.395.457-.293z"/></svg>