<svg xmlns="http://www.w3.org/2000/svg" width="120" height="120" fill="none" viewBox="0 0 120 120"><path fill="#000" d="m58.164 8.14-.27 2.883V14l.165 2.918.011.012v.011l.117 3 .012.082-.011.082-.14 2.137h.05l.105.012 2.906.387h1.903l.187-2.676-.117-2.883h-.012l-.175-3v-.07l-.012-3-.012-.082.012-.07.293-3 1.324.128V6.5h1.816l-.152 1.64-.27 2.883V14l.165 2.918.011.012v.011l.118 3 .011.082-.011.082-.155 2.375 2.983.036h.96l.399.89.879 1.992.117.258.012.293.094 2.93.234 3v.14l-.047 3-.012 2.989v.023l-.058 2.942.058 3v.152l-.023.14-.037.19.498.03h-.012l2.93.023h.047l.091.003 2.737-.214 1.535-.129.026.5.064.004-.009 1.022.001.01.164 3.222v.082l-.009 2.205.052.666.012.07-.012.07-.035 3-.023 2.82.003.134v.105l-.005.052-.057 2.901.058 2.942v.105l-.011.106-.104.835.178 1.848.012.14-.012.141-.277 2.665.004.054.269 3 .012.14-.012.141-.02.199.012.153h-.027l-.258 2.566.164 2.86v.14l-.03.607.186 1.07.024.128v.14l-.024 3v.106l-.011.106-.028.175.047.446.024.199-.035.2-.42 2.443.083 2.22.364 2.918.023.211-.035.211-.272 1.596.034 2.119.04 1.495.046.38V99l-.004.96v.036l.012 3v.082l-.012.094-.044.376-.034 1.487-.041 2.08.271 1.635.035.211-.023.211-.352 2.883-.086 2.419 2.278-.185.117-.012.129.012 3.351.293 3.47-.152.07-.012.058.012 3.363.129 3.47-.305.163-.012.176.024 3.363.48 3.375-.176h.059l3.492-.011v-.012l3.492-.047v-.012l2.203-.07 1.559-.059V116h-1.5l.047 1.406-2.215.082h-.024l-3.503.059h-.012l-3.469.012.012.011-3.504.176-.14.012-.141-.024-3.34-.48-3.34.293-.094.012h-.094l-3.456-.141-3.446.164h-.187l-3.399-.305-3.386.282h-.047l-.12.004-.1.304-1.194-.129-.333-.034-.046.034h-.47l-3 .024h-.128l-.129-.024-1.089-.19-.594.026h-.141l-2.805-.162-.62.058-2.353.245-.128.012-.13-.012-2.656-.201-1.05.131-.176.023-.176-.023-2.853-.346-.756-.01-3.492.223-.024.011h-.035l-.29.007-1.151.173-.106.024h-.105l-3 .035h-.094l-.094-.012-2.047-.232-.215-.006v-.012l-3.48-.012h-.059l-3.468-.187-3.422.129h-.059l-3.504-.012-3.433.012.011.011-3.504.223-.117.012-.105-.012-3.375-.281h-3.457l.011.012-3.515.175h-.012l-3.515.118-.07.011-.071-.011-3.41-.188H8v-3h.188l3.351.199 3.41-.117v-.012l3.504-.175h.07l3.516-.012h.129l3.398.293 3.399-.235h.082l3.515-.023h.012l3.457.012 3.504-.118.07-.011.06.011 2.732.136.138-2.522-.105-2.871v-.106l.105-2.871-.152-3v-.105l.011-.094.247-3 .07-2.883v-2.883l-.234-3v-.023l-.176-3-.012-.082v-.082l.164-3-.082-2.883-.012-.117.024-.117.375-2.918-.164-2.778-.235-3-.082-1.066.973-.422 2.145-.937.27-.118h.292l2.988-.082 1.617-.058.06-1.395-.329-2.86-.012-.116v-.13l.14-2.94-.175-2.907v-.164l.152-2.871-.093-3v-.14l.023-.13.41-2.836-.21-2.824-.235-3-.012-.105v-.106l.211-3v-.023l.223-2.895-.211-2.883v-.175l.14-2.918-.187-2.907-.21-3v-.199l.187-3 .082-1.3 1.3-.106 3.07-.234.048-.012h.058l.046-.001.161-2.288-.117-2.883h-.012l-.175-3v-.07l-.012-3-.012-.082.012-.07.293-3 1.324.128V6.5h1.816zm-4.812 17.255-.106 1.593.2 2.907v.011l.199 3 .011.082-.011.082-.141 2.895.21 2.93.013.105-.012.117-.235 3-.199 2.86.235 2.906.246 3 .011.176-.023.164-.445 2.883.093 2.847.012.059-.012.07-.152 2.906.176 2.93v.152l-.14 2.824.34 2.93.01.13v.116l-.128 2.883-.07 1.383-1.383.047-3 .105h-.012l-2.695.059-.914.398.152 1.934v.035l.164 3 .012.14-.024.141-.375 2.871.094 2.895v.117l-.164 2.906.176 2.895.246 3v3.164l-.07 3v.035l-.012.047-.246 2.918.152 2.883v.129l-.105 3 .093 2.894.012.071-.012.058-.105 1.945.996.434.585.064 3.118.096 2.945-.071 1.72-.253.116-.023h.118l1.975.022.052-.003h.117l3.486.046.069-1.308-.352-2.847-.011-.106v-.105l.058-2.942-.058-3v-.023l-.024-2.977-.035-3-.012-.07.012-.07.234-2.942h-.011l.105-2.894-.105-3v-.035l-.024-3.012-.187-2.918v-.152l.129-2.93-.024-3v-.023l.035-3v-.387l.2-.34 1.054-1.84.387-.668.773-.07 3-.293.07-.012.083.012 2.376.009-.01-2.388v-.152l.282-2.836-.21-2.907-.013-.047v-.046l-.023-3v-.024l.012-3-.117-2.93v-.152l.175-3 .02-2.41h-.52l.035-.152-.01-.001-1.943.079-.386.011-.15-.073-1.471.066-1.5.07-.059-1.512-.105-2.93v-.046l-.012-3-.012-.082.012-.07.007-.07-.05-.673-.012-.129.012-.129.262-2.655-.16-2.087v-.105l-.024-3v-.024l.004-1.185-.117-2.744v-.165l.05-.771-.02-.482h-1.437l-.093-.012-2.918-.387h-2.778zm15.636 48-2.965-.012-2.097.199-.48.832-.036 2.602.024 2.976v.035l-.012.035-.117 2.872.175 2.976v.082l.036 2.953.105 3v.106l-.105 3v.07l-.235 3 .047 2.859v.012l.024 2.977.058 3v.058l-.047 2.895.34 2.894.024.129-.012.129-.059 1.249.16-.018.153-.012h.14l.94.068 2.611.045.498-.009 1.705-.151.2-.012.187.024.556.095.346-.005h.094l.094.011 1.302.138 1.292-.052.105-.011.117.011 1.556.161.334-.23.231-.692.153-2.766.023-2.93v-.011l.01-.59-.19-1.133-.035-.211.024-.211.299-2.652.029-1.039V102h-.008l.008-1.969-.03-1.27-.294-2.597-.024-.2.035-.21.195-1.158-.011-.565v-.012l-.035-2.93-.176-3v-.163l.023-.176.042-.262-.014-.43-.012-.14.023-.14.363-2.385-.226-2.245-.011-.105v-.106l.1-2.103-.272-1.576-.035-.2.011-.187.172-1.853v-.057l.012-.105.084-.905-.104-1.357-1.3.094-.083.011-.082-.011-3-.118h-.011l-.012-.011L69 73.383zm6.13-25.875h-.071l-2.672.093-.867.375-.024 2.028v.07l-.175 2.977.117 2.87v.07l-.012 2.977.023 2.907.223 3 .012.129-.012.128-.281 2.848.012 2.04.902.386 2.648-.106.07-.011.071.011 1.36.07-.024-.269-.012-.129.02-.114-.14-2.792-.013-.129.024-.129.22-1.877-.076-.806v-.059l-.152-3-.012-.129.012-.129.36-2.854v-.153l-.055-2.782v-.058l.058-3 .002-.676-.17-2.184v-1.558l-1.302-.04zm-9.74-21.585-.02.287.072 1.72v.07l-.007 1.67.01.236.176 3v.07l.012 3v.153l-.008.069.051.673.012.129-.012.129-.265 2.672.152 2.07.011.058v.047l.012 2.063.603.29.764-.029.059-.011.059.011.765.036.756-.027.072-.442-.058-2.848v-.058l.058-3 .012-2.977v-.023l.047-3-.223-2.86-.011-.035v-.023l-.083-2.72-.363-.82-1.687-.023zM63.995 23l.002.26.559-.26z"/></svg>