<svg width="120" height="120" viewBox="0 0 120 120" fill="none" xmlns="http://www.w3.org/2000/svg">
<path d="M64.8663 29.3477L66.1553 29.6406L67.2569 29.8867L68.4405 29.875L69.7295 29.8633L69.917 29.875L71.2061 29.9688L72.4952 30.0742C72.5336 30.0772 72.5741 30.0813 72.6124 30.0859L73.9014 30.2383L75.1788 30.3906C75.2529 30.3997 75.3292 30.4202 75.4014 30.4375L77.9327 31.0469C78.0417 31.0735 78.1664 31.1197 78.296 31.1875L78.671 31.4688L79.4092 32.1953L79.7139 32.5H80.4991V33.4736C80.5437 33.599 80.5906 33.7786 80.5928 33.9883C80.594 34.141 80.5714 34.3699 80.4678 34.6113L80.2999 36.707L80.3233 37.9375L80.335 39.2266C80.3352 39.2387 80.3347 39.2613 80.335 39.2734L80.4053 41.8516C80.4058 41.8717 80.4049 41.9017 80.4053 41.9219L80.4522 44.5C80.4531 44.5455 80.4538 44.5951 80.4522 44.6406L80.4053 45.9297L80.3585 47.2305L80.4288 48.4375L80.5108 49.7266C80.5151 49.8 80.5148 49.8758 80.5108 49.9492L80.4405 51.2383L80.3702 52.4453L80.5225 53.6172L80.6866 54.9062C80.6902 54.9354 80.6937 54.9852 80.6963 55.042L82.378 55.6953L83.5381 56.0234L84.7803 56.375C84.8344 56.3903 84.8917 56.4025 84.9444 56.4219L86.1631 56.8672L87.2764 57.2891C87.3059 57.2968 87.3414 57.3137 87.3702 57.3242L87.2881 57.2891L89.796 57.9453L90.0538 58.0391L91.2491 58.5547L92.4561 59.0703L93.417 59.4219L93.4649 59.4355L93.546 59.4336C93.6026 59.4313 93.665 59.4315 93.7217 59.4336L95.0108 59.4805L96.253 59.5273L97.5069 59.457L98.8077 59.375C98.8926 59.3701 98.9808 59.3684 99.0655 59.375L100.355 59.4805L101.491 59.5742L102.687 59.4219L103.976 59.2461C104.063 59.2346 104.156 59.2332 104.245 59.2344L105.546 59.2578L106.835 59.2695C106.93 59.271 107.024 59.289 107.116 59.3047L108.417 59.5156L109.589 59.7266L110.573 59.6797L111.71 59.6211C112.012 59.6074 112.462 59.6889 112.835 60.043C113.172 60.3657 113.265 60.7439 113.292 60.9453L113.468 62.2461L113.632 63.5352C113.652 63.6852 113.652 63.8424 113.632 63.9922L113.28 66.5703L113.116 67.1094L112.296 68.6797C112.088 69.08 111.789 69.2987 111.499 69.4062L110.784 69.5L109.483 69.3711L108.405 69.2539L107.292 69.4766L105.991 69.7227C105.878 69.7448 105.759 69.7587 105.64 69.7578L104.693 69.749L104.573 70.6367L104.398 71.9375L104.351 73.1445L104.292 74.2812L104.491 75.4766L104.714 76.7656L104.737 77.0586L104.749 78.3477L104.761 79.6484C104.761 79.7666 104.748 79.8874 104.726 80L104.468 81.2891L104.257 82.3789L104.362 83.4922L104.503 84.7812C104.514 84.8898 104.512 85.0004 104.503 85.1094L104.398 86.3984L104.304 87.5586L104.456 88.7188L104.632 90.0078C104.652 90.1577 104.652 90.3148 104.632 90.4648L104.468 91.7539L104.304 92.9258L104.292 94.2148L104.269 95.3633L104.48 96.582L104.702 97.8828L104.726 98.1641L104.749 99.4531L104.761 100.754C104.762 100.844 104.761 100.936 104.749 101.023L104.585 102.312L104.421 103.461L104.515 104.645L104.62 105.934C104.636 106.132 104.622 106.413 104.491 106.707L104.253 107.234L105.546 107.258L106.835 107.27C106.93 107.271 107.024 107.289 107.116 107.305L108.417 107.516L109.589 107.727L110.573 107.68L111.71 107.621C112.012 107.607 112.462 107.689 112.835 108.043C113.172 108.366 113.265 108.744 113.292 108.945L113.468 110.246L113.632 111.535C113.652 111.685 113.652 111.842 113.632 111.992L113.28 114.57L113.116 115.109L112.296 116.68C112.088 117.08 111.789 117.299 111.499 117.406L110.784 117.5L109.483 117.371L108.405 117.254L107.292 117.477L105.991 117.723C105.878 117.745 105.759 117.759 105.64 117.758L104.351 117.746L103.05 117.734L102.769 117.711L101.468 117.5L100.331 117.301L99.1475 117.348L97.8467 117.406L96.6397 117.57L95.3506 117.746L94.8116 117.734L93.5225 117.488L92.4561 117.277L91.3545 117.418L90.0538 117.582C89.9726 117.592 89.8905 117.594 89.8077 117.594H88.5069L87.2178 117.582C87.1905 117.582 87.1631 117.583 87.1358 117.582L85.835 117.547L84.546 117.512C84.5314 117.511 84.5136 117.512 84.4991 117.512L83.21 117.488L81.9092 117.453H81.8741L80.585 117.441L79.2842 117.43L79.1553 117.418L77.8545 117.336L76.7178 117.254L75.5928 117.477L74.3038 117.723L73.7999 117.734L72.5108 117.582L71.3389 117.441L70.1202 117.512L68.8194 117.57C68.747 117.574 68.669 117.575 68.5967 117.57L67.3077 117.5L66.0772 117.418L64.9288 117.559L63.6397 117.699L63.253 117.711L61.9639 117.57L60.6631 117.43H60.6866L59.3858 117.359L58.2608 117.277L57.042 117.453L55.753 117.629L55.46 117.652L54.171 117.617L52.8702 117.594L51.5928 117.629L50.3038 117.652C50.2783 117.653 50.2472 117.652 50.2217 117.652L48.9327 117.664H47.5967L46.3077 117.688L45.0069 117.711C44.938 117.712 44.8643 117.705 44.796 117.699L43.5069 117.594L42.2178 117.477H42.2413L40.9405 117.43L39.6749 117.383L38.421 117.43L37.1319 117.488C37.0987 117.49 37.0597 117.488 37.0264 117.488L35.7374 117.5L34.4366 117.512H34.4717L33.1827 117.605L31.8819 117.688C31.809 117.692 31.7323 117.691 31.6592 117.688L29.0811 117.57L27.8038 117.582H26.4327L25.1436 117.57L23.8428 117.559C23.7899 117.558 23.7313 117.551 23.6788 117.547L22.3897 117.441L21.2295 117.336L20.046 117.465L18.7452 117.605C18.6721 117.613 18.5965 117.618 18.5225 117.617H17.2335L15.9327 117.605H15.792L14.503 117.523L13.2022 117.43H13.1788L11.8897 117.371L10.6592 117.301L9.42877 117.395L8.1397 117.488L7.97564 117.5C7.95228 117.5 7.8197 117.491 7.65923 117.453C7.61876 117.444 7.3079 117.381 7.0147 117.125C6.83804 116.97 6.5998 116.69 6.52252 116.27C6.46036 115.925 6.54686 115.631 6.6397 115.414V113.246L6.4522 112.027L6.2647 110.738C6.21125 110.389 6.25907 109.913 6.59283 109.508L7.29595 108.664L7.98736 107.82C8.36315 107.365 8.89024 107.232 9.28814 107.258L10.5772 107.352L11.7842 107.434L13.0147 107.34L14.3038 107.258C14.3946 107.251 14.4943 107.251 14.585 107.258L15.6905 107.338L15.4522 106.895C15.3046 106.623 15.2545 106.357 15.253 106.145V104.855L15.2413 103.555C15.2407 103.457 15.2502 103.356 15.2647 103.262L15.4522 101.973L15.6397 100.754V98.293L15.5694 97.0039L15.4991 95.7031V95.668L15.417 94.3789L15.335 93.0781C15.3302 93.001 15.3305 92.921 15.335 92.8438L15.4053 91.5547L15.4756 90.2539L15.4874 90.1484L15.6163 88.8477L15.7335 87.6289L15.6514 86.4688L15.5577 85.168C15.5548 85.1265 15.5468 85.0807 15.546 85.0391L15.4991 82.4609C15.4981 82.4131 15.4971 82.3564 15.4991 82.3086L15.5577 81.0195L15.6045 79.8711L15.4991 78.5703L15.3819 77.2812C15.3711 77.1588 15.3671 77.0276 15.3819 76.9062L15.546 75.6172L15.6983 74.3281L15.7217 73.1328L15.7452 71.8672L15.5694 70.7539L15.3887 69.5791L14.503 69.5234L13.2022 69.4297H13.1788L11.8897 69.3711L10.6592 69.3008L9.42877 69.3945L8.1397 69.4883L7.97564 69.5C7.95228 69.4997 7.8197 69.4909 7.65923 69.4531C7.61876 69.4436 7.3079 69.3815 7.0147 69.125C6.83804 68.97 6.5998 68.6902 6.52252 68.2695C6.46036 67.9252 6.54686 67.6311 6.6397 67.4141V65.2461L6.4522 64.0273L6.2647 62.7383C6.21125 62.389 6.25907 61.913 6.59283 61.5078L7.29595 60.6641L7.98736 59.8203C8.36315 59.3648 8.89024 59.2316 9.28814 59.2578L10.5772 59.3516L11.7842 59.4336L13.0147 59.3398L14.3038 59.2578C14.3946 59.2515 14.4943 59.2508 14.585 59.2578L15.8741 59.3516L17.1631 59.457C17.1796 59.4583 17.2052 59.4558 17.2217 59.457L18.5108 59.5508L19.7295 59.6562L20.96 59.5742L22.2491 59.5039C22.3348 59.4992 22.4215 59.5087 22.5069 59.5156L23.796 59.6211L24.9913 59.7266L26.1866 59.6094L26.2169 59.6064L28.5655 58.6719L28.6944 58.625L29.9131 58.2148L31.1788 57.793L33.6163 56.9492C33.63 56.9444 33.6494 56.9307 33.6631 56.9258L36.1006 56.0586C36.1274 56.0491 36.1557 56.044 36.1827 56.0352L37.4131 55.6367L38.5411 55.2598L38.6944 53.3613L38.6866 53.3477C38.6866 53.3338 38.6863 53.3197 38.6866 53.3125L38.6983 53.3008L38.628 52.1172L38.5694 50.8164V50.793L38.4756 49.5039L38.3936 48.2031C38.3906 48.1564 38.3939 48.1094 38.3936 48.0625L38.3819 46.7734V45.4727C38.3816 45.3978 38.3855 45.3239 38.3936 45.25L38.5342 43.9609L38.6631 42.7656L38.5577 41.6055L38.4522 40.3164C38.4476 40.2625 38.4411 40.2066 38.4405 40.1523L38.4288 38.8516L38.417 37.5625V36.1914L38.4288 34.9023C38.4288 34.8939 38.4231 34.8207 38.4288 34.75L38.4639 34.3164L38.4756 34.3047V34.2812L38.4991 34V32.5H39.3731L39.3897 32.418C39.4424 32.1584 39.5669 31.886 39.7881 31.6562C40.0064 31.4318 40.2611 31.3055 40.4561 31.2461L41.6983 30.8711L42.9522 30.4844L43.1749 30.4375L45.7295 29.9688L46.1163 29.9453L47.417 29.9922L48.5772 30.0508L49.8194 29.8984L51.1085 29.7461H51.1202L53.6983 29.3711L54.1085 29.3594L55.3975 29.4883L56.6045 29.6055L57.7999 29.5117L59.1006 29.4297H59.335L60.6241 29.5L61.8077 29.5703L63.0381 29.4414L64.3389 29.3125L64.8663 29.3477ZM103.073 110.398L101.784 110.562L101.421 110.574L100.12 110.469L98.8897 110.387L97.6827 110.445L96.3936 110.527C96.3281 110.531 96.26 110.53 96.1944 110.527L94.9053 110.48L93.6397 110.445L92.3858 110.48L91.085 110.539C91.0189 110.542 90.9518 110.543 90.8858 110.539L89.5967 110.457L88.4014 110.398L87.1827 110.504L85.8936 110.633H85.7413L84.4405 110.68L83.1514 110.715H80.4678L80.2803 110.703L78.9795 110.586L77.6905 110.469H77.667L76.378 110.375L75.1475 110.305L73.9288 110.375L72.6397 110.445H72.4405L71.1514 110.41L69.9561 110.375L68.7725 110.539L67.4835 110.727L67.1202 110.75L65.8311 110.668L64.5303 110.586C64.5007 110.584 64.4662 110.577 64.4366 110.574L63.1475 110.469L61.9405 110.363L60.7569 110.457L59.4678 110.562H59.2452L57.9561 110.527L56.9991 110.492V110.5H53.9991V110.407L52.8585 110.504L51.5694 110.621H51.171L49.8819 110.445L48.6514 110.293L47.5147 110.352L46.2256 110.422H45.9913L44.7022 110.328L43.4717 110.258L42.2413 110.328L40.9522 110.398H40.753L39.4639 110.352L38.3272 110.316L37.1319 110.516L35.8428 110.738L35.3975 110.75L34.0967 110.633L32.8077 110.516C32.7922 110.514 32.7763 110.517 32.7608 110.516L31.46 110.398L30.253 110.293L29.0694 110.375L27.7803 110.48H27.7452L26.4561 110.598L25.1553 110.715C25.0544 110.724 24.9517 110.723 24.8506 110.715L23.5616 110.609L22.3194 110.516L21.1241 110.574L19.8233 110.645H19.5772L18.2881 110.551L16.9874 110.445C16.9718 110.444 16.956 110.447 16.9405 110.445L15.6397 110.34L14.4327 110.258L13.2256 110.34L11.9249 110.422H11.6788L10.378 110.34L9.8272 110.316L9.60455 110.574L9.31158 110.926L9.41705 111.57L9.61627 112.871C9.63018 112.963 9.63999 113.058 9.6397 113.152V114.383L10.5069 114.312C10.5835 114.307 10.6644 114.309 10.7413 114.312L13.3194 114.43C13.3451 114.431 13.3757 114.44 13.4014 114.441L14.7022 114.523L15.9913 114.605H15.9561L15.9795 114.617H18.5225L19.7178 114.488L21.0069 114.348C21.1215 114.335 21.2432 114.326 21.3585 114.336L22.6475 114.453L23.9366 114.559C23.9188 114.557 23.8961 114.559 23.878 114.559L25.1788 114.57L26.4678 114.582H27.792L29.0811 114.57C29.1233 114.57 29.1679 114.568 29.21 114.57L30.5108 114.629L31.7295 114.699L32.9717 114.605L34.2725 114.523C34.3187 114.52 34.3668 114.512 34.4131 114.512L35.7022 114.5L37.003 114.488L38.292 114.441L39.5928 114.383C39.6475 114.381 39.7022 114.381 39.7569 114.383L41.0577 114.43L42.3467 114.477C42.3891 114.478 42.4335 114.485 42.4756 114.488L43.7764 114.605L45.042 114.711L46.2491 114.688L47.5499 114.676C47.572 114.675 47.598 114.664 47.6202 114.664H48.9092L50.1983 114.652H50.2335L51.5225 114.629L52.8233 114.594C52.8611 114.593 52.9027 114.593 52.9405 114.594L54.2295 114.617L55.4366 114.652L56.6319 114.477L57.921 114.301C58.0351 114.285 58.1561 114.282 58.2725 114.289L59.5733 114.359L60.8624 114.441C60.9016 114.444 60.9405 114.449 60.9795 114.453L62.2803 114.582L63.4288 114.711L64.5889 114.582L65.878 114.43C65.9807 114.418 66.0905 114.412 66.1944 114.418L67.4952 114.5L68.7256 114.582L69.9678 114.512L71.2569 114.441C71.3581 114.436 71.4618 114.442 71.5616 114.453L72.8506 114.605L73.9405 114.734L75.042 114.523L76.3311 114.277C76.4709 114.251 76.6192 114.244 76.7647 114.254L78.0538 114.348L79.3545 114.43H79.3194L80.6202 114.441L81.9092 114.453C81.9323 114.453 81.9565 114.453 81.9795 114.453L83.2686 114.488L84.5694 114.512C84.5887 114.512 84.6087 114.511 84.628 114.512L85.917 114.547L87.2178 114.582H87.2295L88.5303 114.594H89.7725L90.9678 114.441L92.2569 114.277C92.4329 114.255 92.6128 114.257 92.7842 114.289L94.085 114.535L95.1514 114.746L96.2413 114.594L97.5303 114.418C97.5917 114.41 97.6554 114.409 97.7178 114.406L99.0186 114.348L100.308 114.301C100.43 114.296 100.553 114.305 100.671 114.324L101.972 114.535L103.12 114.746H104.374L105.534 114.758L106.706 114.523L108.007 114.277C108.167 114.246 108.333 114.237 108.499 114.254L109.788 114.383L110.093 114.418L110.339 113.938L110.491 112.883L110.644 111.781L110.491 110.68L109.565 110.727L109.202 110.703L107.901 110.48L106.671 110.27L105.499 110.258L104.257 110.246L103.073 110.398ZM19.7413 69.6875C19.6644 69.6912 19.5835 69.693 19.5069 69.6875L18.5577 69.6152C18.5459 69.6154 18.5342 69.6172 18.5225 69.6172H18.4307L18.5342 70.2969L18.7335 71.5859C18.7491 71.6878 18.7473 71.7975 18.7452 71.9023L18.6983 74.4805C18.6969 74.5489 18.6948 74.624 18.6866 74.6914L18.5225 75.9805L18.3819 77.1406L18.4874 78.3125L18.5928 79.6016C18.6 79.6831 18.6079 79.7655 18.6045 79.8477L18.546 81.1367L18.4991 82.4375L18.5225 83.6914L18.546 84.957V84.9805L18.6397 86.2578L18.7335 87.5469C18.7407 87.6483 18.7433 87.7507 18.7335 87.8516L18.6045 89.1523L18.4756 90.4414L18.4053 91.7305L18.3233 92.9375L18.4053 94.1797L18.4874 95.4805C18.4888 95.5025 18.4862 95.5287 18.4874 95.5508L18.628 98.1289L18.6397 98.2578V100.848C18.64 100.942 18.6302 101.037 18.6163 101.129L18.417 102.43L18.2413 103.613L18.253 104.832V105.758L18.5928 106.391L18.7217 106.625L19.2256 106.66L20.4327 106.742L21.6397 106.66L22.0001 106.631V104.105L21.9766 103.848L21.9297 102.559L21.8829 101.258C21.8809 101.203 21.8807 101.148 21.8829 101.094L21.9415 99.793L21.9883 98.5039L22.0001 97.2031L22.0118 95.9141C22.0122 95.8677 22.0204 95.8196 22.0235 95.7734L22.1055 94.4727L22.1876 93.2305L22.129 92.0117L22.0704 90.7109C22.0685 90.6688 22.0701 90.6243 22.0704 90.582L22.0821 89.293V87.9688L22.0704 86.6797L22.0586 85.4375L21.9532 84.1484L21.836 82.8594C21.8261 82.7441 21.8351 82.6224 21.8477 82.5078L21.9883 81.2188L22.1172 80.0234V78.7461L22.1055 77.4922L22.0235 76.2031L21.9415 74.9023C21.9398 74.8766 21.931 74.846 21.9297 74.8203L21.8126 72.2422C21.8072 72.1296 21.8087 72.0228 21.8126 71.9727L21.9922 69.585L19.7413 69.6875ZM51.5928 69.6289L50.3038 69.6523C50.2783 69.6529 50.2472 69.6522 50.2217 69.6523L48.9327 69.6641H47.5967L46.3077 69.6875L45.0069 69.7109C45.0046 69.711 45.0023 69.7099 45.0001 69.71V69.7109L44.8057 72.1289C44.809 72.1362 44.8125 72.1428 44.8126 72.1484C44.8125 72.1617 44.8128 72.1764 44.8126 72.1836L44.8008 72.1953L44.8711 73.3906L44.9297 74.6797V74.7031L45.0235 76.0039L45.1055 77.293V77.4336L45.1172 78.7344V80.0234C45.1176 80.0975 45.1134 80.1731 45.1055 80.2461L44.9649 81.5469L44.8243 82.7188L44.9415 83.8906L45.0469 85.1797C45.0514 85.2323 45.0579 85.2908 45.0586 85.3438L45.0704 86.6445L45.0821 87.9336V89.3047L45.0704 90.582L45.1876 93.1602C45.191 93.2333 45.1923 93.3099 45.1876 93.3828L45.1055 94.6836L45.0118 95.9727L45.0001 97.2383L44.9883 98.5273C44.988 98.5606 44.9897 98.5996 44.9883 98.6328L44.9297 99.9219L44.8829 101.176L44.9297 102.441L44.9766 103.742V103.719L45.0938 105.008L45.1993 106.297C45.2008 106.315 45.2103 106.373 45.211 106.438C45.2112 106.459 45.2142 106.548 45.2003 106.656L45.4639 106.648L46.753 106.602H46.9522L48.2413 106.672L49.4717 106.742L50.7022 106.672L51.9913 106.578H52.2256L53.5147 106.648L54.1504 106.681L54.1514 106.645V106.621L54.1631 105.332V104.043C54.1633 104.021 54.1745 103.994 54.1749 103.973L54.1866 102.672L54.2003 101.996H53.9991V101.059C53.9931 101.044 53.9797 101.034 53.9756 101.023C53.9151 100.86 53.8977 100.716 53.8936 100.684C53.883 100.598 53.882 100.53 53.8819 100.508C53.8816 100.462 53.881 100.419 53.8819 100.402L53.9405 99.4414L53.9737 98.7412L53.9288 97.4805L53.8819 96.1797C53.8799 96.125 53.8797 96.0703 53.8819 96.0156L53.9405 94.7148L53.9874 93.4258L54.0577 93.0156C54.0859 92.9248 54.1234 92.8345 54.17 92.7461L54.128 92.0117L54.0694 90.7109C54.0675 90.6688 54.0691 90.6243 54.0694 90.582L54.0811 89.293V87.9688L54.0694 86.6797L54.0577 85.3789C54.0579 85.397 54.0562 85.4197 54.0577 85.4375L53.9522 84.1484L53.835 82.8594C53.8251 82.7441 53.8341 82.6224 53.8467 82.5078L53.9874 81.2188L54.1163 80.0234V77.4805L54.1045 77.457V77.4922L54.0225 76.2031L53.9405 74.9023C53.9388 74.8766 53.93 74.846 53.9288 74.8203L53.8116 72.2422C53.8062 72.1296 53.8078 72.0228 53.8116 71.9727L53.9893 69.6133L52.8702 69.5938L51.5928 69.6289ZM80.5616 69.5469C80.4618 69.5585 80.3581 69.5637 80.2569 69.5586L79.0001 69.4893V69.7109L78.8057 72.1289C78.809 72.1362 78.8125 72.1428 78.8126 72.1484C78.8125 72.1617 78.8128 72.1764 78.8126 72.1836L78.8008 72.1953L78.8711 73.3906L78.9297 74.6797V74.7031L79.0235 76.0039L79.1055 77.293V77.4336L79.1172 78.7344V80.0234C79.1176 80.0975 79.1134 80.1731 79.1055 80.2461L78.9649 81.5469L78.8243 82.7188L78.9415 83.8906L79.0469 85.1797C79.0514 85.2323 79.0579 85.2908 79.0586 85.3438L79.0704 86.6445L79.0821 87.9336V89.3047L79.0704 90.582L79.1876 93.1602C79.191 93.2333 79.1923 93.3099 79.1876 93.3828L79.1055 94.6836L79.0118 95.9727L79.0001 97.2383L78.9883 98.5273C78.988 98.5606 78.9897 98.5996 78.9883 98.6328L78.9297 99.9219L78.8829 101.176L78.9297 102.441L78.9766 103.742V103.719L79.0938 105.008L79.1993 106.297C79.2008 106.315 79.2103 106.373 79.211 106.438C79.2111 106.454 79.2104 106.51 79.2051 106.585L79.9288 106.625L81.1475 106.695L82.378 106.625L83.667 106.531H83.6905L83.9991 106.503V104.105L83.9756 103.848L83.9288 102.559L83.8819 101.258C83.88 101.203 83.8797 101.148 83.8819 101.094L83.9405 99.793L83.9874 98.5039L83.9991 97.2031L84.0108 95.9141C84.0112 95.8677 84.0194 95.8196 84.0225 95.7734L84.1045 94.4727L84.1866 93.2305L84.128 92.0117L84.0694 90.7109C84.0675 90.6688 84.0691 90.6243 84.0694 90.582L84.0811 89.293V87.9688L84.0694 86.6797L84.0577 85.4375L83.9522 84.1484L83.835 82.8594C83.8251 82.7441 83.8341 82.6224 83.8467 82.5078L83.9874 81.2188L84.1163 80.0234V78.7461L84.1045 77.4922L84.0225 76.2031L83.9405 74.9023C83.9388 74.8766 83.93 74.846 83.9288 74.8203L83.8116 72.2422C83.8062 72.1296 83.8078 72.0228 83.8116 71.9727L83.9971 69.502L83.21 69.4883L81.9092 69.4531H81.8741L81.3917 69.4482L80.5616 69.5469ZM70.6319 69.4814L69.9795 69.5469C69.9405 69.5509 69.9016 69.5563 69.8624 69.5586L68.5733 69.6406L67.2725 69.7109C67.1822 69.7162 67.0895 69.7129 66.9991 69.7051V69.7109L66.8047 72.1289C66.8081 72.1362 66.8116 72.1428 66.8116 72.1484C66.8116 72.1617 66.8118 72.1764 66.8116 72.1836L66.7999 72.1953L66.8702 73.3906L66.9288 74.6797V74.7031L67.0225 76.0039L67.1045 77.293V77.4336L67.1163 78.7344V80.0234C67.1166 80.0975 67.1124 80.1731 67.1045 80.2461L66.9639 81.5469L66.8233 82.7188L66.9405 83.8906L67.046 85.1797C67.0505 85.2323 67.0569 85.2908 67.0577 85.3438L67.0694 86.6445L67.0811 87.9336V89.3047L67.0694 90.582L67.1866 93.1602C67.19 93.2333 67.1913 93.3099 67.1866 93.3828L67.1045 94.6836L67.0928 94.8359L67.1592 95.6406C67.1691 95.7559 67.1719 95.8776 67.1592 95.9922L67.0186 97.2812L66.9991 97.4434V101.996H66.9522L66.9717 102.297L67.0655 103.598C67.0672 103.623 67.0643 103.654 67.0655 103.68L67.1241 104.969L67.1944 106.258C67.1998 106.37 67.1865 106.477 67.1827 106.527L67.1788 106.576L67.9405 106.637L69.1475 106.531L70.4366 106.426C70.4662 106.423 70.5007 106.416 70.5303 106.414L71.8311 106.332L73.1202 106.25L73.4835 106.273L74.7725 106.461L75.9561 106.625L76.0001 106.623V104.105L75.9766 103.848L75.9297 102.559L75.8829 101.258C75.8809 101.203 75.8807 101.148 75.8829 101.094L75.9415 99.793L75.9883 98.5039L76.0001 97.2031L76.0118 95.9141C76.0122 95.8677 76.0204 95.8196 76.0235 95.7734L76.1055 94.4727L76.1876 93.2305L76.129 92.0117L76.0704 90.7109C76.0685 90.6688 76.0701 90.6243 76.0704 90.582L76.0821 89.293V87.9688L76.0704 86.6797L76.0586 85.4375L75.9532 84.1484L75.836 82.8594C75.8261 82.7441 75.8351 82.6224 75.8477 82.5078L75.9883 81.2188L76.1172 80.0234V78.7461L76.1055 77.4922L76.0235 76.2031L75.9415 74.9023C75.9398 74.8766 75.931 74.846 75.9297 74.8203L75.8126 72.2422C75.8072 72.1296 75.8087 72.0228 75.8126 71.9727L75.9961 69.5312L75.1944 69.582C75.1423 69.5851 75.0887 69.5843 75.0352 69.582L74.3038 69.7227L73.7999 69.7344L72.5108 69.582L71.3389 69.4414L70.6319 69.4814ZM38.421 69.4297L37.1319 69.4883H36.9991V69.7109L36.8047 72.1289C36.8081 72.1362 36.8116 72.1428 36.8116 72.1484C36.8116 72.1617 36.8118 72.1764 36.8116 72.1836L36.7999 72.1953L36.8702 73.3906L36.9288 74.6797V74.7031L37.0225 76.0039L37.1045 77.293V77.4336L37.1163 78.7344V80.0234C37.1166 80.0975 37.1124 80.1731 37.1045 80.2461L36.9639 81.5469L36.8233 82.7188L36.9405 83.8906L37.046 85.1797C37.0505 85.2323 37.0569 85.2908 37.0577 85.3438L37.0694 86.6445L37.0811 87.9336V89.3047L37.0694 90.582L37.1866 93.1602C37.19 93.2333 37.1913 93.3099 37.1866 93.3828L37.1045 94.6836L37.0108 95.9727L36.9991 97.2383L36.9874 98.5273C36.987 98.5606 36.9887 98.5996 36.9874 98.6328L36.9288 99.9219L36.8819 101.176L36.9288 102.441L36.9756 103.742V103.719L37.0928 105.008L37.1983 106.297C37.1999 106.315 37.2093 106.373 37.21 106.438C37.2102 106.457 37.2107 106.531 37.2012 106.624L37.46 106.602L38.7608 106.484C38.7763 106.483 38.7922 106.486 38.8077 106.484L40.0967 106.367L41.3975 106.25L41.8428 106.262L42.0001 106.288V104.105L41.9766 103.848L41.9297 102.559L41.8829 101.258C41.8809 101.203 41.8807 101.148 41.8829 101.094L41.9415 99.793L41.9883 98.5039L42.0001 97.2031L42.0118 95.9141C42.0122 95.8677 42.0204 95.8196 42.0235 95.7734L42.1055 94.4727L42.1876 93.2305L42.129 92.0117L42.0704 90.7109C42.0685 90.6688 42.0701 90.6243 42.0704 90.582L42.0821 89.293V87.9688L42.0704 86.6797L42.0586 85.4375L41.9532 84.1484L41.836 82.8594C41.8261 82.7441 41.8351 82.6224 41.8477 82.5078L41.9883 81.2188L42.1172 80.0234V78.7461L42.1055 77.4922L42.0235 76.2031L41.9415 74.9023C41.9398 74.8766 41.931 74.846 41.9297 74.8203L41.8126 72.2422C41.8072 72.1296 41.8087 72.0228 41.8126 71.9727L42.0001 69.4883V69.4678L40.9405 69.4297L39.6749 69.3828L38.421 69.4297ZM60.4913 91.6094L59.5303 91.6797L58.6749 92.1367L57.878 92.5469L57.421 93.2617L57.17 93.6338L57.1045 94.6836L57.0108 95.9727V95.9375L56.9991 95.9609V98.8984L57.0928 99.9297L57.1983 101.219C57.2044 101.288 57.2111 101.36 57.21 101.43L57.1866 102.73L57.1631 104.02V105.355L57.1534 106.381L57.171 106.379H57.5694L58.8585 106.496L60.1124 106.602L61.3077 106.566L62.5967 106.52C62.6162 106.519 62.6359 106.52 62.6553 106.52L63.9561 106.473L64.1807 106.466L64.1944 106.293L64.1358 105.109L64.0655 103.82V103.797L63.9835 102.496L63.8897 101.207C63.8866 101.161 63.89 101.113 63.8897 101.066L63.8848 100.556C63.8839 100.533 63.8819 100.517 63.8819 100.508C63.8816 100.462 63.881 100.419 63.8819 100.402L63.8829 100.376L63.878 99.7656V98.4766C63.8776 98.4027 63.8818 98.3268 63.8897 98.2539L63.9991 97.2383V97.2031L64.0108 95.9141C64.0112 95.8677 64.0194 95.8196 64.0225 95.7734L64.0821 94.8193L64.0655 94.6094L63.9835 93.7422L63.503 93.1562L62.8936 92.418L62.0381 91.9492L61.3116 91.5391L60.4913 91.6094ZM92.2686 69.5117L90.9795 69.5469C90.9565 69.5474 90.9323 69.5466 90.9092 69.5469L90.2872 69.5518L90.0538 69.582C89.9726 69.5924 89.8905 69.594 89.8077 69.5938H88.5069L88.0489 69.5889L87.0538 69.6523L86.9991 69.6562V69.7109L86.8047 72.1289C86.8081 72.1362 86.8116 72.1428 86.8116 72.1484C86.8116 72.1617 86.8118 72.1764 86.8116 72.1836L86.7999 72.1953L86.8702 73.3906L86.9288 74.6797V74.7031L87.0225 76.0039L87.1045 77.293V77.4336L87.1163 78.7344V80.0234C87.1166 80.0975 87.1124 80.1731 87.1045 80.2461L86.9639 81.5469L86.8233 82.7188L86.9405 83.8906L87.046 85.1797C87.0505 85.2323 87.0569 85.2908 87.0577 85.3438L87.0694 86.6445L87.0811 87.9336V89.3047L87.0694 90.582L87.1866 93.1602C87.19 93.2333 87.1913 93.3099 87.1866 93.3828L87.1045 94.6836L87.0108 95.9727L86.9991 97.2383L86.9874 98.5273C86.987 98.5606 86.9887 98.5996 86.9874 98.6328L86.9288 99.9219L86.8819 101.176L86.9288 102.441L86.9756 103.742V103.719L87.0928 105.008L87.1973 106.285H89.1514L90.4405 106.32L91.7413 106.367H91.8936L93.1827 106.496L94.4014 106.602L95.5967 106.543L96.0001 106.517V104.105L95.9766 103.848L95.9297 102.559L95.8829 101.258C95.8809 101.203 95.8807 101.148 95.8829 101.094L95.9415 99.793L95.9883 98.5039L96.0001 97.2031L96.0118 95.9141C96.0122 95.8677 96.0204 95.8196 96.0235 95.7734L96.1055 94.4727L96.1876 93.2305L96.129 92.0117L96.0704 90.7109C96.0685 90.6688 96.0701 90.6243 96.0704 90.582L96.0821 89.293V87.9688L96.0704 86.6797L96.0586 85.4375L95.9532 84.1484L95.836 82.8594C95.8261 82.7441 95.8351 82.6224 95.8477 82.5078L95.9883 81.2188L96.1172 80.0234V78.7461L96.1055 77.4922L96.0235 76.2031L95.9415 74.9023C95.9398 74.8766 95.931 74.846 95.9297 74.8203L95.8126 72.2422C95.8072 72.1296 95.8087 72.0228 95.8126 71.9727L95.9864 69.6592L95.3506 69.7461L94.8116 69.7344L93.5264 69.4883L92.2686 69.5117ZM99.0001 69.7109L98.8057 72.1289C98.809 72.1362 98.8125 72.1428 98.8126 72.1484C98.8125 72.1617 98.8128 72.1764 98.8126 72.1836L98.8008 72.1953L98.8711 73.3906L98.9297 74.6797V74.7031L99.0235 76.0039L99.1055 77.293V77.4336L99.1172 78.7344V80.0234C99.1176 80.0975 99.1134 80.1731 99.1055 80.2461L98.9649 81.5469L98.8243 82.7188L98.9415 83.8906L99.0469 85.1797C99.0514 85.2323 99.0579 85.2908 99.0586 85.3438L99.0704 86.6445L99.0821 87.9336V89.3047L99.0704 90.582L99.1876 93.1602C99.191 93.2333 99.1923 93.3099 99.1876 93.3828L99.1055 94.6836L99.0118 95.9727L99.0001 97.2383L98.9883 98.5273C98.988 98.5606 98.9897 98.5996 98.9883 98.6328L98.9297 99.9219L98.8829 101.176L98.9297 102.441L98.9766 103.742V103.719L99.0938 105.008L99.1993 106.297C99.2008 106.315 99.2103 106.373 99.211 106.438C99.2111 106.451 99.211 106.489 99.209 106.542L99.6397 106.555L100.905 106.52L101.292 106.496L101.339 106.414L101.597 105.816L101.526 104.879L101.421 103.578C101.412 103.458 101.417 103.333 101.433 103.215L101.608 101.926L101.761 100.684L101.749 99.5L101.726 98.293L101.515 97.0977L101.304 95.7969C101.286 95.6932 101.268 95.5879 101.269 95.4805L101.292 94.1797L101.304 92.8906L101.315 92.6562L101.491 91.3672L101.644 90.2188L101.491 89.1172L101.315 87.8281C101.299 87.7043 101.294 87.5789 101.304 87.4531L101.409 86.1523L101.503 84.957L101.386 83.7969L101.245 82.4961C101.229 82.3303 101.237 82.1637 101.269 82.0039L101.526 80.7148L101.749 79.5312V78.3711L101.737 77.0938L101.538 75.9688L101.315 74.6797C101.296 74.5624 101.287 74.4377 101.292 74.3164L101.351 73.0156L101.409 71.7266L101.421 71.5273L101.597 70.2383L101.62 69.9805L101.034 69.6875L99.9678 69.5586L99.0001 69.4346V69.7109ZM33.1827 69.6055L31.8819 69.6875C31.809 69.6923 31.7323 69.6909 31.6592 69.6875L30.6202 69.6396L30.3585 69.6641C30.2432 69.6739 30.1215 69.665 30.0069 69.6523L29.379 69.583L29.0811 69.5703L27.8038 69.582H26.4327L25.1436 69.5703L25.0001 69.5684V69.7109L24.8057 72.1289C24.809 72.1362 24.8125 72.1428 24.8126 72.1484C24.8125 72.1617 24.8128 72.1764 24.8126 72.1836L24.8008 72.1953L24.8711 73.3906L24.9297 74.6797V74.7031L25.0235 76.0039L25.1055 77.293V77.4336L25.1172 78.7344V80.0234C25.1176 80.0975 25.1134 80.1731 25.1055 80.2461L24.9649 81.5469L24.8243 82.7188L24.9415 83.8906L25.0469 85.1797C25.0514 85.2323 25.0579 85.2908 25.0586 85.3438L25.0704 86.6445L25.0821 87.9336V89.3047L25.0704 90.582L25.1876 93.1602C25.191 93.2333 25.1923 93.3099 25.1876 93.3828L25.1055 94.6836L25.0118 95.9727L25.0001 97.2383L24.9883 98.5273C24.988 98.5606 24.9897 98.5996 24.9883 98.6328L24.9297 99.9219L24.8829 101.176L24.9297 102.441L24.9766 103.742V103.719L25.0938 105.008L25.1993 106.297C25.2004 106.309 25.203 106.342 25.2061 106.382L25.5772 106.355H25.8233L27.1241 106.426L28.3194 106.484L29.5616 106.391L30.8506 106.285C30.9517 106.277 31.0544 106.276 31.1553 106.285L32.4561 106.402L33.7452 106.52H33.7803L33.9991 106.537V104.105L33.9756 103.848L33.9288 102.559L33.8819 101.258C33.88 101.203 33.8797 101.148 33.8819 101.094L33.9405 99.793L33.9874 98.5039L33.9991 97.2031L34.0108 95.9141C34.0112 95.8677 34.0194 95.8196 34.0225 95.7734L34.1045 94.4727L34.1866 93.2305L34.128 92.0117L34.0694 90.7109C34.0675 90.6688 34.0691 90.6243 34.0694 90.582L34.0811 89.293V87.9688L34.0694 86.6797L34.0577 85.4375L33.9522 84.1484L33.835 82.8594C33.8251 82.7441 33.8341 82.6224 33.8467 82.5078L33.9874 81.2188L34.1163 80.0234V78.7461L34.1045 77.4922L34.0225 76.2031L33.9405 74.9023C33.9388 74.8766 33.93 74.846 33.9288 74.8203L33.8116 72.2422C33.8062 72.1296 33.8078 72.0228 33.8116 71.9727L33.9942 69.5459L33.1827 69.6055ZM57.042 69.4531L56.9991 69.459V69.7109L56.8047 72.1289C56.8081 72.1362 56.8116 72.1428 56.8116 72.1484C56.8116 72.1617 56.8118 72.1764 56.8116 72.1836L56.7999 72.1953L56.8702 73.3906L56.9288 74.6797V74.7031L57.0225 76.0039L57.1045 77.293V77.4336L57.1163 78.7344V80.0234C57.1166 80.0975 57.1124 80.1731 57.1045 80.2461L56.9639 81.5469L56.8233 82.7188L56.9405 83.8906L57.046 85.1797C57.0505 85.2323 57.0569 85.2908 57.0577 85.3438L57.0694 86.6445L57.0811 87.9336V89.3047L57.0782 89.5879L58.3819 88.9023L59.0147 88.7148L61.4991 88.5273L61.9561 88.5625L62.3897 88.7148L64.0772 89.6484L64.0811 89.293V87.9688L64.0694 86.6797L64.0577 85.3789C64.0579 85.397 64.0562 85.4197 64.0577 85.4375L63.9522 84.1484L63.835 82.8594C63.8251 82.7441 63.8341 82.6224 63.8467 82.5078L63.9874 81.2188L64.1163 80.0234V77.4805L64.1045 77.457V77.4922L64.0225 76.2031L63.9405 74.9023C63.9388 74.8766 63.93 74.846 63.9288 74.8203L63.8116 72.2422C63.8062 72.1296 63.8078 72.0228 63.8116 71.9727L63.9854 69.6611L63.6397 69.6992L63.253 69.7109L61.9639 69.5703L60.6631 69.4297H60.6866L59.3858 69.3594L59.2247 69.3477H59.1983L57.9092 69.3359H57.8545L57.042 69.4531ZM103.073 62.3984L101.784 62.5625L101.421 62.5742L100.12 62.4688L98.8897 62.3867L97.6827 62.4453L96.3936 62.5273C96.3281 62.5312 96.26 62.5298 96.1944 62.5273L94.9053 62.4805L94.711 62.4746C94.5515 62.5698 94.406 62.6212 94.3194 62.6445C94.09 62.7059 93.9006 62.7068 93.8389 62.7031C93.6948 62.6941 93.5839 62.6629 93.5577 62.6562C93.4857 62.6379 93.4266 62.617 93.4053 62.6094L93.0167 62.4619L92.3858 62.4805L91.085 62.5391C91.0189 62.5417 90.9518 62.5429 90.8858 62.5391L89.5967 62.457L88.9571 62.4248L88.8116 62.4336H88.7881L87.4991 62.5156L86.21 62.6094C86.1841 62.6111 86.156 62.6099 86.128 62.6094L85.8936 62.6328H85.7413L84.4405 62.6797L83.1514 62.7148H80.4678L80.2803 62.7031L78.9795 62.5859L78.4522 62.5371L78.3116 62.5508C78.2579 62.5553 78.2016 62.5619 78.1475 62.5625L76.8585 62.5742L75.5577 62.5859C75.5342 62.5862 75.5108 62.5861 75.4874 62.5859L74.1866 62.5742H72.921L71.6319 62.6328L70.3311 62.6914C70.2576 62.6947 70.1818 62.6964 70.1085 62.6914L68.8194 62.5977L68.5049 62.5771L67.4835 62.7266L67.1202 62.75L65.8311 62.668L64.5303 62.5859C64.5007 62.5841 64.4662 62.5768 64.4366 62.5742L63.1475 62.4688L62.1573 62.3818L61.0567 62.4326L60.7569 62.457L59.4678 62.5625H59.2452L58.8975 62.5527L58.4952 62.5859L57.1944 62.7031C57.1259 62.7091 57.0525 62.716 56.9835 62.7148L54.4053 62.668C54.3929 62.6678 54.3709 62.668 54.3585 62.668L53.0694 62.6562H51.6983L50.4092 62.6211L49.1085 62.5977L47.8311 62.6211L46.542 62.6445C46.4452 62.6465 46.3437 62.6458 46.2491 62.6328L44.9483 62.457L43.7881 62.2812L42.6045 62.3633L41.3155 62.4336H41.3272L40.0381 62.5742L38.7374 62.7031C38.6129 62.7159 38.4865 62.7172 38.3624 62.7031L37.0733 62.5625L36.9473 62.5469L35.8428 62.7383L35.3975 62.75L34.0967 62.6328L33.4278 62.5713L33.3936 62.5742C33.3213 62.5785 33.2434 62.5779 33.171 62.5742L31.8819 62.5039L30.6631 62.4453L29.4913 62.5859L28.2022 62.7383C28.1552 62.7437 27.966 62.7619 27.7452 62.7266L27.1006 62.6211L26.753 62.5703L26.4561 62.5977L25.1553 62.7148C25.0544 62.7236 24.9517 62.723 24.8506 62.7148L23.5616 62.6094L22.3194 62.5156L21.1241 62.5742L19.8233 62.6445H19.5772L18.2881 62.5508L16.9874 62.4453C16.9718 62.4442 16.956 62.4465 16.9405 62.4453L15.6397 62.3398L14.4327 62.2578L13.2256 62.3398L11.9249 62.4219H11.6788L10.378 62.3398L9.8272 62.3164L9.60455 62.5742L9.31158 62.9258L9.41705 63.5703L9.61627 64.8711C9.63018 64.9632 9.63999 65.0576 9.6397 65.1523V66.3828L10.5069 66.3125C10.5835 66.307 10.6644 66.3088 10.7413 66.3125L13.3194 66.4297C13.3451 66.4309 13.3757 66.4397 13.4014 66.4414L14.7022 66.5234L15.9913 66.6055H15.9561L15.9795 66.6172H16.4405C16.4592 66.6095 16.4769 66.6004 16.4952 66.5938C16.7961 66.4854 17.0599 66.5059 17.1397 66.5117L18.4288 66.6055L18.5469 66.6143L19.7178 66.4883L21.0069 66.3477C21.1215 66.335 21.2432 66.3261 21.3585 66.3359L22.6475 66.4531L23.2003 66.498L23.503 66.4766L24.792 66.3945H24.9327L26.2335 66.3828H27.5225C27.5965 66.3824 27.6721 66.3866 27.7452 66.3945L29.046 66.5352L29.4805 66.582L30.5108 66.6289L30.5753 66.6318L31.3897 66.5586L32.6788 66.4531C32.7313 66.4486 32.7899 66.4421 32.8428 66.4414L34.1436 66.4297L35.4327 66.418H36.8038L38.0811 66.4297L40.6592 66.3125C40.7323 66.3091 40.809 66.3077 40.8819 66.3125L42.1827 66.3945L43.4717 66.4883H43.4366L44.7374 66.5L46.0264 66.5117C46.0597 66.512 46.0987 66.5104 46.1319 66.5117L47.421 66.5703L48.6749 66.6172L49.9405 66.5703L51.2413 66.5234H51.2178L52.5069 66.4062L53.796 66.3008C53.8643 66.2947 53.938 66.288 54.0069 66.2891L55.3077 66.3125L56.5967 66.3359H57.6631L57.921 66.3008C58.0351 66.2849 58.1561 66.2823 58.2725 66.2891L59.3829 66.3486L60.5928 66.3711L61.8702 66.4062L63.171 66.3828L64.46 66.3477L64.753 66.3711L65.5049 66.4736L65.878 66.4297C65.9807 66.4181 66.0905 66.4118 66.1944 66.418L67.4952 66.5L68.7256 66.582L69.9678 66.5117L70.4463 66.4854L70.9639 66.4297L72.253 66.2891L72.6397 66.3008L73.9288 66.4414L74.8682 66.5557L75.042 66.5234L76.3311 66.2773C76.4709 66.251 76.6192 66.2443 76.7647 66.2539L78.0538 66.3477L79.3545 66.4297H79.3194L80.6202 66.4414L81.2657 66.4473L81.5108 66.418L82.7999 66.2656L83.3038 66.2773L84.5274 66.5107L84.5694 66.5117C84.5887 66.5121 84.6087 66.5112 84.628 66.5117L85.917 66.5469L87.2178 66.582H87.2295L88.0391 66.5889L88.1553 66.582L88.2842 66.5703L89.585 66.5586L90.0831 66.5537L90.9678 66.4414L92.2569 66.2773C92.4329 66.2546 92.6128 66.2566 92.7842 66.2891L93.7999 66.4805L94.835 66.4531L96.1358 66.418C96.1631 66.4172 96.1905 66.4181 96.2178 66.418L97.5069 66.4062H97.7178L99.0186 66.3477L100.308 66.3008C100.43 66.2957 100.553 66.3045 100.671 66.3242L101.972 66.5352L103.12 66.7461H104.374L105.534 66.7578L106.706 66.5234L108.007 66.2773C108.167 66.2462 108.333 66.237 108.499 66.2539L109.788 66.3828L110.093 66.418L110.339 65.9375L110.491 64.8828L110.644 63.7812L110.491 62.6797L109.565 62.7266L109.202 62.7031L107.901 62.4805L106.671 62.2695L105.499 62.2578L104.257 62.2461L103.073 62.3984ZM93.8389 62.4922H93.8624L93.8155 62.4805L93.8389 62.4922ZM58.6475 52.1328L57.4522 52.6602C57.301 52.7261 57.1435 52.7697 56.9835 52.7891L55.671 52.9414L54.4639 53.082L53.3741 53.457L52.2256 53.832L51.1592 54.3945L49.9874 55.0039C49.8836 55.0574 49.7739 55.1005 49.6592 55.1328L48.4053 55.4844L47.1631 55.8242C47.1026 55.841 47.0369 55.8599 46.9756 55.8711L45.6866 56.1055L44.5967 56.293L43.6592 56.832L42.4991 57.4648C42.3469 57.5481 42.1802 57.6079 42.0069 57.6406L40.7178 57.875L39.4405 58.1211L38.3506 58.4844L37.1202 58.8828L37.1085 58.8945L35.8897 59.3281L35.585 59.4336L35.8077 59.4219L36.1124 59.4336L36.8467 59.5127L37.917 59.3281C38.0354 59.3077 38.1577 59.3002 38.2803 59.3047L39.5694 59.3516L40.8702 59.3984L40.7764 59.4102C40.8034 59.4086 40.8314 59.4094 40.8585 59.4102L42.0655 59.3281L43.3663 59.2578C43.4446 59.2533 43.5224 59.2528 43.6006 59.2578L44.9014 59.3398L46.1319 59.4219L47.3624 59.3516L48.6514 59.293C48.7603 59.2874 48.8727 59.2907 48.9795 59.3047L50.2803 59.4688L51.4405 59.6328L52.5772 59.5156L53.8663 59.3984C53.949 59.3906 54.0406 59.3836 54.1241 59.3867L55.4131 59.4336L56.7139 59.4805H56.7491L58.0499 59.5273L58.8145 59.5498L59.5264 59.4922L59.6436 59.4805L60.9444 59.4336L60.9581 59.4326L61.8116 59.3633C61.9123 59.3553 62.0157 59.3545 62.1163 59.3633L62.3741 59.3867H62.4092L63.6983 59.4336L64.9991 59.4922L66.2881 59.5039L67.5889 59.5156H67.7295L68.4044 59.5645L69.6397 59.3867C69.7435 59.3718 69.8497 59.3598 69.9561 59.3633L71.2452 59.4102L72.4756 59.457L73.753 59.375L75.042 59.293C75.1237 59.288 75.2066 59.2874 75.2881 59.293L76.5772 59.3867L77.878 59.4688C77.9055 59.4706 77.9326 59.478 77.96 59.4805L78.459 59.5254L79.3545 59.4453L80.6436 59.3398H80.9952L82.2842 59.4805L83.4795 59.6211H84.7569L84.921 59.6094L83.9366 59.2461L82.7178 58.9062L81.4756 58.5547C81.4127 58.5369 81.349 58.5198 81.2881 58.4961L80.0811 58.0156L78.9561 57.5703L78.6407 57.4961H77.4991V57.2275L76.4952 56.9961C76.3766 56.9677 76.2646 56.9189 76.1553 56.8672L74.9717 56.3164L73.8702 55.7773L72.71 55.4375L71.5381 55.0625L70.3545 54.8984L69.0538 54.7109C68.9485 54.6957 68.8404 54.6752 68.7374 54.6406L67.5069 54.2305L66.2881 53.8203C66.2135 53.7953 66.1358 53.7601 66.0655 53.7266L64.8936 53.1641L63.8624 52.6719L62.7608 52.4844L61.4717 52.25C61.4372 52.2438 61.4018 52.2343 61.3663 52.2266L60.1592 51.9688L59.4092 51.793L58.6475 52.1328ZM74.9444 37.5625C74.8877 37.5787 74.8257 37.5863 74.7686 37.5977L73.503 37.8555L72.2256 38.1016C72.156 38.1154 72.0856 38.1304 72.0147 38.1367L70.7256 38.2422L69.4366 38.3594C69.3464 38.3671 69.245 38.3647 69.1553 38.3594L67.8663 38.2891L66.6358 38.207L65.4874 38.3477L64.1866 38.5C64.1283 38.5066 64.0696 38.51 64.0108 38.5117L62.71 38.5469L61.421 38.582C61.3885 38.5829 61.348 38.5822 61.3155 38.582L60.0264 38.5703H58.7374L57.4483 38.6172L56.1475 38.6641C56.0656 38.6671 55.9829 38.6715 55.9014 38.6641L53.3233 38.4297L50.7452 38.2891C50.6994 38.2867 50.6501 38.2823 50.6045 38.2773L49.3155 38.1367L48.0264 38.0078V37.9961L46.7491 37.9141L45.46 37.8203C45.4315 37.8183 45.3947 37.8229 45.3663 37.8203L44.0772 37.7031L42.7764 37.5859C42.6015 37.57 42.4299 37.5239 42.2725 37.457L41.417 37.0859V37.5273L41.4288 38.8281L41.4405 40.1172L41.546 41.3477L41.6631 42.6484C41.6727 42.7619 41.6637 42.8755 41.6514 42.9883L41.5108 44.2891L41.3819 45.4609V46.75L41.3936 48.0508L41.4756 49.3047L41.5577 50.5938C41.5595 50.6207 41.5681 50.6488 41.5694 50.6758L41.628 51.9648L41.6866 53.2656V53.5234L41.6114 54.5166L42.2061 54.1953L43.3663 53.5625L43.8702 53.3867L45.1592 53.1523L46.4366 52.918L47.6085 52.5898L48.71 52.2852L49.7764 51.7344L50.9366 51.125L51.2061 51.0195L52.4366 50.6094L53.6553 50.1992C53.7693 50.1614 53.8912 50.1428 54.0069 50.1289L55.3194 49.9648L56.4327 49.8359L57.4405 49.3906L58.6241 48.8633L59.0928 48.7461L59.6085 48.7695L60.8038 49.0391L62.0108 49.2969L61.9991 49.3086L63.2881 49.5312L64.5772 49.7656L64.9991 49.8945L66.1827 50.457L67.296 50.9844L68.4678 51.3828L69.5928 51.7578L70.7764 51.9336L72.0772 52.1211L72.3585 52.1797L73.5889 52.5664L74.8311 52.9414L75.0772 53.0469L76.2608 53.5977L77.3155 54.1016L77.5655 54.1602L77.546 53.9805L77.3819 52.6914C77.3691 52.5876 77.3646 52.4804 77.3702 52.375L77.4405 51.0742L77.5108 49.8086L77.4405 48.6016L77.3585 47.3125C77.3549 47.2502 77.3564 47.1874 77.3585 47.125L77.4053 45.8242L77.4522 44.5586L77.4053 41.9805C77.405 41.9663 77.4057 41.9478 77.4053 41.9336L77.3702 40.6328L77.335 39.3438C77.3344 39.3208 77.3353 39.2964 77.335 39.2734L77.3233 37.9844L77.3028 36.8877L74.9444 37.5625ZM63.3428 32.4297L62.042 32.5586C61.949 32.5678 61.8548 32.5754 61.7608 32.5703L60.46 32.5L59.2295 32.418L58.0108 32.5117L56.71 32.5938C56.6136 32.6 56.5125 32.6026 56.417 32.5938L55.128 32.4766L53.9913 32.3594L52.8311 32.5234L51.5538 32.7109C51.5257 32.715 51.4882 32.7192 51.46 32.7227L50.1827 32.875L48.8936 33.0391C48.7961 33.0507 48.6973 33.0547 48.6006 33.0508L47.2999 32.9922L46.1514 32.9336L44.9913 33.1562L43.7139 33.3906L42.5772 33.7422L42.1436 33.8594L42.0967 34.1172L42.2374 34.1758L43.2686 34.6094L44.3467 34.7148L45.6475 34.832H45.6592L46.9483 34.9258L48.2374 35.0078L48.3545 35.0195L50.9327 35.3008H50.921L52.1866 35.3594L53.4756 35.4297C53.5133 35.4316 53.5554 35.438 53.5928 35.4414L54.8819 35.5586L56.0303 35.6523L57.3311 35.6172L58.6319 35.5703H60.0381L61.3272 35.582H61.3389L62.628 35.5469L63.9288 35.5117L65.1358 35.3711L66.4249 35.2188C66.5294 35.2066 66.6366 35.2008 66.7413 35.207L68.042 35.2891L69.2374 35.3594L70.4678 35.2539L71.6514 35.1484L72.917 34.9141L74.1124 34.668L75.3545 34.3164L76.3624 34.0234L76.6436 33.8242L75.9639 33.6602L74.7686 33.3672L73.5381 33.2148L72.2491 33.0625V33.0508L70.9717 32.957L69.6827 32.8633L68.4756 32.875L67.1749 32.8867C67.0408 32.888 66.904 32.88 66.7764 32.8516L65.4991 32.5586L64.4092 32.3125L63.3428 32.4297Z" fill="black"/>
</svg>
