<svg xmlns="http://www.w3.org/2000/svg" width="120" height="120" fill="none" viewBox="0 0 120 120"><path fill="#000" d="M8.1 116v1.5h.032l.033-.001zm2.54-.109.157-1.492-.11-.012-.111.005zm2.64.278-.157 1.491.15.016.152-.014zm2.64-.257-.06-1.499-.043.002-.042.004zm2.64-.106.116-1.496-.088-.007-.088.004zm2.64.205-.116 1.496.055.004h.056zm2.64.009-.005 1.5h.056l.056-.004zm2.64-.189.042-1.5-.075-.002-.074.005zm2.64.074.176-1.49-.066-.007-.068-.002zm2.64.312-.176 1.49.21.025.21-.034zm2.64-.433.08-1.498-.163-.009-.16.026zm2.64.139-.08 1.498.09.005.088-.006zm2.64-.172.182-1.489-.14-.017-.14.009zm2.64.322-.182 1.489.115.014.116-.004zm2.64-.087-.048-1.499h-.001zm2.64-.085.048 1.5.023-.001.022-.002zm2.64-.164.261-1.477-.176-.031-.178.011zm2.64.467-.261 1.477.26.046.26-.045zm2.64-.463.14-1.494-.2-.019-.2.035zm2.64.249-.14 1.493.11.01.11-.006zm2.64-.143.213-1.485-.146-.021-.148.008zm2.64.378-.213 1.485.244.035.243-.045zm2.64-.49.078-1.498-.177-.009-.175.032zm2.64.138-.078 1.498.023.001.023.001zm2.64.057-.032 1.499.028.001.029-.001zm2.64-.044.185-1.489-.105-.013-.105.002zm2.64.328-.185 1.488.16.02.162-.014zm2.64-.241-.011-1.5h-.063l-.062.006zm2.64-.021.169-1.49-.09-.01h-.09zm2.64.299-.169 1.491.197.022.195-.029zm2.64-.397.073-1.498-.148-.007-.148.022zm2.64.13.085-1.498h-.012zm2.64.151-.086 1.497.104.006.103-.008zm2.64-.214-.01-1.5-.056.001-.055.004zm2.64-.018.202-1.486-.106-.014h-.106zm2.64.358-.202 1.487.236.032.233-.043zm2.64-.477.244-1.48-.256-.042-.255.046zm2.64.435-.244 1.48.14.023.143-.004zm2.64-.068.039 1.499.094-.002.093-.014zm2.64-.403.353-1.458-.287-.069-.292.044zM8 116v1.5h.1v-3H8zm.1 0 .065 1.499 2.54-.11-.065-1.498-.065-1.499-2.54.109zm2.54-.109-.157 1.491 2.64.278.157-1.491.157-1.492-2.64-.278zm2.64.278.145 1.493 2.64-.257-.145-1.493-.145-1.493-2.64.257zm2.64-.257.06 1.499 2.64-.106-.06-1.499-.06-1.499-2.64.106zm2.64-.106-.116 1.495 2.64.206.116-1.496.116-1.495-2.64-.206zm2.64.205-.005 1.5 2.64.009.005-1.5.005-1.5-2.64-.009zm2.64.009.107 1.496 2.64-.189-.107-1.496-.107-1.497-2.64.19zm2.64-.189-.042 1.499 2.64.074.042-1.499.042-1.499-2.64-.075zm2.64.074-.176 1.49 2.64.312.176-1.49.176-1.489-2.64-.313zm2.64.312.243 1.481 2.64-.434-.243-1.48-.243-1.481-2.64.434zm2.64-.433-.08 1.498 2.64.139.08-1.498.08-1.497-2.64-.14zm2.64.139.098 1.497 2.64-.172-.098-1.497-.098-1.497-2.64.173zm2.64-.172-.182 1.489 2.64.322.182-1.489.182-1.489-2.64-.322zm2.64.322.05 1.499 2.64-.086-.05-1.5-.05-1.499-2.64.087zm2.64-.087.048 1.5 2.64-.085-.048-1.5-.048-1.499-2.64.085zm2.64-.085.093 1.497 2.64-.164-.093-1.497-.093-1.497-2.64.164zm2.64-.164-.261 1.477 2.64.467.261-1.477.261-1.477-2.64-.467zm2.64.467.26 1.478 2.64-.464-.26-1.477-.26-1.478-2.64.464zm2.64-.463-.14 1.493 2.64.249.14-1.493.14-1.494-2.64-.249zm2.64.249.08 1.497 2.64-.142-.08-1.498-.08-1.498-2.64.143zm2.64-.143-.213 1.485 2.64.378.213-1.485.213-1.485-2.64-.378zm2.64.378.274 1.475 2.64-.49-.274-1.475-.274-1.475-2.64.49zm2.64-.49-.078 1.498 2.64.138.078-1.498.078-1.498-2.64-.138zm2.64.138-.032 1.5 2.64.056.032-1.499.032-1.5-2.64-.057zm2.64.057.025 1.499 2.64-.043-.025-1.5-.025-1.5-2.64.044zm2.64-.044-.185 1.488 2.64.328.185-1.488.185-1.489-2.64-.328zm2.64.328.136 1.494 2.64-.242-.136-1.493-.136-1.494-2.64.241zm2.64-.241.011 1.5 2.64-.021-.011-1.5-.011-1.5-2.64.021zm2.64-.021-.169 1.491 2.64.299.169-1.491.169-1.49-2.64-.299zm2.64.299.223 1.484 2.64-.397-.223-1.484-.223-1.483-2.64.397zm2.64-.397-.073 1.499 2.64.129.073-1.498.073-1.498-2.64-.13zm2.64.13-.086 1.497 2.64.151.086-1.497.085-1.498-2.64-.151zm2.64.151.12 1.495 2.64-.214-.12-1.495-.12-1.495-2.64.213zm2.64-.214.01 1.5 2.64-.018-.01-1.5-.01-1.5-2.64.018zm2.64-.018-.202 1.487 2.64.358.202-1.487.202-1.486-2.64-.358zm2.64.358.267 1.476 2.64-.477-.267-1.476-.267-1.476-2.64.477zm2.64-.477-.244 1.48 2.64.435.244-1.48.244-1.481-2.64-.434zm2.64.435.039 1.499 2.64-.068-.039-1.499-.039-1.5-2.64.068zm2.64-.068.226 1.483 2.64-.403-.226-1.483-.226-1.483-2.64.403zm2.64-.403-.353 1.458 1.04.252L112 116l.353-1.458-1.04-.252z"/><path fill="#000" d="M94 115.9h1.5v-.032l-.001-.033zm-.11-2.54-1.491-.157-.012.11.005.112zm.279-2.64 1.491.157.016-.151-.014-.151zm-.257-2.64-1.499.06.002.043.004.042zm-.106-2.64-1.496-.116-.007.088.004.088zm.205-2.64 1.496.116.004-.055v-.056zm.01-2.64 1.5.005v-.056l-.005-.056zm-.19-2.64-1.5-.042-.002.075.006.074zm.074-2.64-1.49-.176-.008.067-.001.067zm.312-2.64 1.49.176.025-.21-.034-.21zm-.433-2.64-1.498-.08-.009.163.026.16zm.14-2.64 1.497.08.005-.09-.006-.088zm-.173-2.64-1.49-.182-.016.14.009.14zm.322-2.64 1.489.182.014-.115-.004-.116zm-.087-2.64-1.499.048v.001zm-.085-2.64 1.5-.048-.001-.023-.002-.022zm-.164-2.64-1.477-.261-.03.176.01.178zm.467-2.64 1.477.261.046-.26-.045-.26zm-.463-2.64-1.494-.14-.019.2.035.2zm.249-2.64 1.493.14.01-.11-.005-.11zm-.143-2.64-1.485-.213-.02.146.007.148zm.378-2.64 1.485.213.035-.244-.045-.243zm-.49-2.64-1.498-.078-.01.177.033.175zm.138-2.64 1.498.078.001-.023v-.023zm.057-2.64 1.5.032v-.057zM93.886 50l-1.489-.185-.013.105.002.105zm.328-2.64 1.488.185.02-.16-.014-.161zm-.241-2.64-1.5.011v.063l.006.063zm-.02-2.64-1.491-.169-.01.09v.09zm.298-2.64 1.49.169.023-.197-.03-.195zm-.397-2.64-1.498-.073-.007.149.022.147zm.13-2.64-1.498-.085v.012zm.15-2.64 1.498.085.006-.103-.008-.103zm-.213-2.64-1.5.01v.056l.005.055zm-.018-2.64-1.486-.202-.014.106v.106zm.358-2.64 1.487.202.032-.235-.043-.234zm-.477-2.64-1.48-.244-.042.256.046.255zm.434-2.64 1.48.244.024-.14-.004-.142zm-.067-2.64 1.5-.038-.003-.095-.014-.093zm-.403-2.64-1.458-.353-.07.287.045.292zM94 116h1.5v-.1h-3v.1zm0-.1 1.499-.065-.11-2.54-1.498.065-1.499.065.11 2.54zm-.11-2.54 1.492.157.278-2.64-1.491-.157-1.492-.157-.278 2.64zm.279-2.64 1.493-.145-.257-2.64-1.493.145-1.493.145.257 2.64zm-.257-2.64 1.499-.06-.106-2.64-1.5.06-1.498.06.106 2.64zm-.106-2.64 1.495.116.206-2.64-1.496-.116-1.495-.116-.206 2.64zm.205-2.64 1.5.005.01-2.64-1.5-.005-1.5-.005-.01 2.64zm.01-2.64 1.495-.107-.19-2.64-1.495.107-1.496.107.189 2.64zm-.19-2.64 1.499.042.074-2.64-1.499-.042-1.5-.042-.074 2.64zm.074-2.64 1.49.176.312-2.64-1.49-.176-1.49-.176-.312 2.64zm.312-2.64 1.48-.243-.433-2.64-1.48.243-1.48.243.433 2.64zm-.433-2.64 1.497.08.14-2.64-1.498-.08-1.498-.08-.14 2.64zm.14-2.64 1.496-.098-.172-2.64-1.497.098-1.497.098.173 2.64zm-.173-2.64 1.489.182.322-2.64-1.49-.182-1.488-.182-.322 2.64zm.322-2.64 1.5-.05-.087-2.64-1.5.05-1.499.05.087 2.64zm-.087-2.64 1.5-.048-.086-2.64-1.499.048-1.499.048.085 2.64zm-.085-2.64 1.497-.093-.164-2.64-1.497.093-1.497.093.164 2.64zm-.164-2.64 1.477.261.467-2.64-1.477-.261-1.477-.261-.467 2.64zm.467-2.64 1.478-.26-.464-2.64-1.477.26-1.478.26.464 2.64zm-.463-2.64 1.493.14.25-2.64-1.494-.14-1.494-.14-.249 2.64zm.249-2.64 1.498-.08-.143-2.64-1.498.08-1.498.08.143 2.64zm-.143-2.64 1.485.213.378-2.64-1.485-.213-1.485-.213-.378 2.64zm.378-2.64 1.475-.274-.49-2.64-1.475.274-1.475.274.49 2.64zm-.49-2.64 1.498.078.138-2.64-1.498-.078-1.498-.078-.138 2.64zm.138-2.64 1.5.032.056-2.64-1.5-.032-1.499-.032-.057 2.64zm.057-2.64 1.5-.025-.044-2.64-1.5.025-1.5.025.044 2.64zM93.886 50l1.488.185.328-2.64-1.488-.185-1.489-.185-.328 2.64zm.328-2.64 1.494-.136-.242-2.64-1.493.136-1.494.136.241 2.64zm-.241-2.64 1.5-.011-.02-2.64-1.5.011-1.5.012.02 2.64zm-.02-2.64 1.49.169.299-2.64-1.49-.169-1.491-.169-.3 2.64zm.298-2.64 1.484-.223-.397-2.64-1.483.223-1.484.223.397 2.64zm-.397-2.64 1.499.073.13-2.64-1.5-.073-1.497-.073-.13 2.64zm.13-2.64 1.497.086.151-2.64-1.498-.086-1.497-.085-.15 2.64zm.15-2.64 1.496-.12-.214-2.64-1.495.12-1.495.12.213 2.64zm-.213-2.64 1.5-.01-.018-2.64-1.5.01-1.5.01.018 2.64zm-.018-2.64 1.487.202.358-2.64-1.487-.202-1.486-.202-.358 2.64zm.358-2.64 1.476-.267-.477-2.64-1.476.267-1.476.267.477 2.64zm-.477-2.64 1.48.244.435-2.64-1.48-.244-1.48-.244-.435 2.64zm.434-2.64 1.5-.038-.068-2.64-1.5.038-1.499.039.068 2.64zm-.067-2.64 1.483-.226-.403-2.64-1.483.226-1.483.226.403 2.64zm-.403-2.64 1.458.353.252-1.04L94 12l-1.458-.353-.252 1.04zM68.046 38.518l.972 1.142.184-.157.125-.206zm1.321-2.174-1.205-.893-.04.055-.036.059zm1.58-2.134 1.206.893.049-.066.04-.07zm1.33-2.28-.365-1.455-.612.154-.318.545zm2.588-.65.128-1.495-.25-.021-.244.06zm2.638.227L77.375 33l.081.007.082-.002zm2.64-.061.035 1.5.279-.007.257-.106zm2.386-.982.57 1.387.237-.098.191-.17zm1.92-1.714.999 1.119.26-.232.13-.322zm1.002-2.463 1.39.566.45-1.109-.98-.686zm-2.209-1.546-.94 1.169.039.031.041.03zm-2.065-1.663-1.006 1.113.032.029.033.027zm-1.994-1.804-1.446.4.117.42.323.293zm-.721-2.603 1.445-.4-.1-.36-.257-.271zm-1.81-1.908 1.09-1.032-.166-.175-.212-.114zm-2.317-1.249.712-1.32-.06-.033-.064-.027zm-2.445-1.041-1.088 1.032.214.226.286.121zm-1.845-1.945 1.088-1.032-.068-.071-.076-.062zm-2.069-1.677.945-1.165-.506-.41-.644.09zm-1.74.24-.204-1.485-.816.112-.343.748zm-1.095 2.388.958 1.155.263-.219.143-.31zM63.1 15.174l-.958-1.154-.072.06-.064.068zm-1.834 1.956.742 1.303.197-.112.155-.165zm-2.301 1.311-.743-1.303-.05.028-.047.032zm-2.178 1.472-.84-1.243-.096.065-.086.08zm-1.927 1.795.911 1.191.058-.044.053-.05zm-2.114 1.618-.912-1.192-.153.117-.118.151zm-1.634 2.092 1.14.974.022-.025.02-.026zm-1.715 2.006 1.057 1.064.043-.043.04-.046zM47.508 29.3l-1.057-1.065-.162.161-.107.202zm-1.25 2.361 1.203.896.069-.092.054-.102zm-1.577 2.117-1.203-.897-.02.027-.02.029zm-1.484 2.191-1.242-.84-.089.13-.06.147zm-.996 2.456-1.39-.564-.015.037-.013.038zm-.855 2.478 1.388.57.016-.04.014-.04zm-1.012 2.466-1.388-.57-.082.2-.022.216zm-.276 2.67 1.333.686.13-.251.029-.281zm-1.225 2.377L37.5 47.73l-.054.104-.036.11zm-.829 2.497-1.423-.472-.021.063-.016.065zm-.614 2.601 1.368.617.06-.132.032-.14zm-1.087 2.412 1.24.843.074-.108.054-.119zm-1.5 2.208-1.241-.843-.078.115-.055.126zm-1.061 2.422 1.348.657.013-.027.013-.028zm-1.157 2.372-1.348-.658-.005.01-.004.008zm-1.126 2.389-1.357-.64-.026.057-.022.058zm-.925 2.478-1.405-.525-.02.053-.016.054zm-.743 2.566-1.44-.417-.05.17-.008.177zm-.123 2.658 1.482.227.012-.078.004-.08zm-.4 2.604-1.483-.227-.026.171.013.173zm.204 2.617 1.5-.018v-.05l-.005-.048zm.032 2.643-1.5.019.003.231.073.22zm.826 2.51-1.424.469.036.109.052.102zm1.195 2.344-1.337.68.071.14.099.122zm1.651 2.046-1.167.942.018.022.018.021zm1.728 1.984-1.132.985.017.02.017.018zm1.8 1.932 1.127-.989-.015-.017-.015-.016zm1.741 1.986 1.184-.922-.027-.035-.03-.032zm1.626 2.087 1.311-.728-.056-.102-.072-.091zm1.292 2.326 1.433-.444-.046-.148-.076-.136zm.788 2.543 1.485-.212-.017-.118-.035-.114zm.377 2.638 1.271.796.292-.465-.078-.544zm-1.127 1.799 1.046 1.075.13-.126.095-.152zm-1.927 1.876-1.046-1.075-.249.242-.117.325zm-.832 2.314-1.412-.508-.32.889.664.672zm1.801 1.826 1.118-1-.024-.027-.026-.026zm1.763 1.972-1.118 1 .105.117.127.093zM67.97 38.582l.973 1.143.076-.065-.972-1.142-.973-1.143-.076.065zm.077-.064 1.281.779 1.322-2.174-1.282-.779-1.281-.78-1.322 2.174zm1.321-2.174 1.206.893 1.58-2.134-1.206-.893-1.205-.892-1.58 2.133zm1.58-2.134 1.296.756 1.33-2.28-1.295-.756-1.296-.756-1.33 2.28zm1.33-2.28.367 1.455 2.586-.65-.365-1.455-.366-1.455-2.587.65zm2.588-.65-.13 1.494 2.64.227.128-1.494.129-1.495-2.639-.227zm2.638.227.035 1.5 2.64-.062-.035-1.5-.034-1.499-2.64.061zm2.64-.061.571 1.387 2.386-.982-.571-1.387-.571-1.387-2.386.982zm2.386-.982.998 1.119 1.921-1.714-.999-1.12-.999-1.118-1.92 1.713zm1.92-1.714 1.39.565 1.002-2.462-1.39-.566-1.39-.565-1.001 2.462zm1.002-2.463.86-1.229-2.209-1.546-.86 1.23-.86 1.228 2.209 1.546zm-2.209-1.546.941-1.168-2.065-1.663-.94 1.168-.942 1.169 2.065 1.663zm-2.065-1.663 1.006-1.112-1.994-1.804-1.006 1.112-1.006 1.113 1.994 1.804zm-1.994-1.804 1.445-.4-.72-2.603-1.446.4-1.446.401.721 2.603zm-.721-2.603 1.088-1.031-1.808-1.909-1.09 1.032-1.088 1.032 1.809 1.908zm-1.81-1.908.712-1.32-2.317-1.25-.712 1.321-.711 1.32 2.317 1.25zm-2.317-1.249.588-1.38-2.445-1.042-.588 1.38-.588 1.38 2.445 1.042zm-2.445-1.041 1.088-1.033-1.845-1.944-1.088 1.032-1.088 1.033 1.846 1.944zm-1.845-1.945.944-1.165-2.068-1.677-.945 1.165-.944 1.166 2.068 1.677zm-2.069-1.677-.205-1.485-1.74.24.206 1.486.205 1.485 1.74-.24zm-1.74.24-1.363-.625-1.095 2.388 1.363.625 1.364.626 1.095-2.388zm-1.095 2.388-.958-1.154-2.042 1.695.958 1.154.958 1.154 2.042-1.694zM63.1 15.174l-1.094-1.026-1.834 1.956 1.094 1.026 1.094 1.026 1.834-1.956zm-1.834 1.956-.743-1.303-2.301 1.31.743 1.304.742 1.303 2.301-1.31zm-2.301 1.311-.84-1.243-2.178 1.472.84 1.242.84 1.243 2.178-1.471zm-2.178 1.472-1.022-1.098-1.927 1.795 1.022 1.098 1.022 1.097 1.928-1.795zm-1.927 1.795-.912-1.192-2.114 1.618.912 1.192.91 1.19L55.77 22.9zm-2.114 1.618-1.183-.924-1.633 2.093 1.182.923 1.183.923 1.633-2.093zm-1.634 2.092-1.14-.975-1.715 2.006 1.14.975 1.14.975 1.715-2.007zm-1.715 2.006L48.34 26.36l-1.888 1.875 1.057 1.065 1.057 1.064 1.888-1.876zM47.508 29.3l-1.326-.702-1.25 2.361 1.326.702 1.326.702L48.834 30zm-1.25 2.361-1.203-.896-1.577 2.116 1.203.897 1.203.896 1.577-2.117zm-1.577 2.117-1.242-.841-1.484 2.192 1.242.84 1.242.841 1.484-2.192zm-1.484 2.191-1.39-.563-.996 2.455 1.39.564 1.39.564.996-2.456zm-.996 2.456-1.418-.49-.855 2.479 1.418.489 1.418.49.855-2.479zm-.855 2.478-1.388-.57-1.012 2.467 1.388.57 1.387.569 1.013-2.466zm-1.012 2.466-1.492-.154-.276 2.67 1.492.154 1.492.154.276-2.67zm-.276 2.67-1.334-.687-1.224 2.377 1.333.687 1.334.687 1.224-2.378zm-1.225 2.377-1.423-.472-.83 2.497 1.424.472 1.424.473.829-2.497zm-.829 2.497-1.46-.344-.613 2.6 1.46.345 1.46.345.613-2.601zm-.614 2.601-1.367-.616-1.087 2.411 1.367.617 1.368.616 1.087-2.411zm-1.087 2.412-1.24-.843-1.501 2.208 1.24.843 1.241.843 1.5-2.208zm-1.5 2.208-1.374-.602-1.061 2.422 1.374.602 1.374.602 1.06-2.422zm-1.061 2.422-1.348-.658-1.157 2.372 1.348.658 1.348.657 1.157-2.372zm-1.157 2.372-1.357-.64-1.126 2.39 1.357.639 1.357.639 1.126-2.389zm-1.126 2.389-1.405-.525-.925 2.478 1.405.525 1.406.524.925-2.478zm-.925 2.478-1.44-.418-.744 2.567 1.441.417 1.441.417.743-2.567zm-.743 2.566-1.498-.07-.124 2.658 1.499.07 1.498.07.124-2.658zm-.123 2.658-1.483-.228-.4 2.605 1.483.227 1.482.228.4-2.605zm-.4 2.604-1.496.117.204 2.617 1.496-.117 1.495-.116-.204-2.617zm.204 2.617-1.5.019.032 2.643 1.5-.019 1.5-.018-.032-2.643zm.032 2.643-1.424.47.826 2.509 1.425-.47 1.424-.469-.826-2.509zm.826 2.51-1.336.68 1.194 2.345 1.337-.681 1.336-.681-1.194-2.344zm1.195 2.344-1.167.942 1.651 2.046 1.167-.942 1.168-.942-1.652-2.046zm1.651 2.046-1.13.985 1.726 1.984 1.132-.984 1.131-.985-1.727-1.985zm1.728 1.984-1.098 1.023 1.8 1.932 1.097-1.023 1.098-1.022-1.8-1.932zm1.8 1.932-1.128.99 1.742 1.985 1.127-.99 1.128-.989-1.742-1.985zm1.741 1.986-1.183.921 1.625 2.088 1.184-.922 1.183-.921-1.625-2.088zm1.626 2.087-1.311.729 1.292 2.326 1.31-.728 1.312-.729-1.292-2.326zm1.292 2.326-1.433.445.789 2.543 1.432-.445 1.433-.444-.788-2.543zm.788 2.543-1.485.212.377 2.638 1.485-.212 1.485-.213-.377-2.637zm.377 2.638-1.271-.797-1.128 1.8 1.272.796 1.27.797 1.128-1.8zm-1.127 1.799-1.047-1.074-1.926 1.875 1.046 1.075 1.046 1.075 1.927-1.876zm-1.927 1.876-1.412-.508-.832 2.314 1.412.508 1.411.507.832-2.314zm-.832 2.314-1.068 1.053 1.801 1.826 1.068-1.053 1.068-1.053-1.801-1.827zm1.801 1.826-1.118 1 1.763 1.972 1.118-1 1.118-1-1.763-1.972zm1.763 1.972-.886 1.21.38.278.886-1.21.887-1.21-.38-.278z"/><path fill="#000" d="m34.124 89.976 1.396.548.022-.055.017-.058zm-.909 2.312-1.396-.548-.022.057-.018.058zm-.765 2.539-1.436-.433-.033.11-.016.114zm-.368 2.623 1.445.401.026-.095.014-.097zm-.71 2.554 1.358.639.054-.115.034-.123zm-1.129 2.399-1.357-.639-.01.022-.01.023zm-1.044 2.424-1.378-.594-.023.052-.018.054zm-.86 2.5 1.407.519.006-.016.005-.016zm-.908 2.459-1.407-.519-.067.181-.019.193zm-.256 2.648-1.493-.144-.064.661.446.491zm1.775 1.957-1.11 1.008.172.191.226.122zm2.229 1.201-.712 1.321.303.163.345.015zm2.613.111.163-1.491-.05-.006-.05-.002zm2.634.288-.163 1.491.136.015.135-.01zm2.635-.19.108 1.496.097-.007.095-.02zm2.527-.515.3 1.469.669-.136.336-.595zM42.88 113l-.031-1.5-.854.018-.42.743zm-8.728-23.12-1.436-.436-.029.096 1.436.436 1.435.435.029-.095zm-.03.096-1.395-.549-.909 2.313 1.396.548 1.396.549.909-2.313zm-.908 2.312-1.436-.433-.765 2.54 1.436.432 1.436.433.765-2.539zm-.765 2.539-1.485-.209-.369 2.624 1.486.208 1.485.209.369-2.623zm-.368 2.623-1.446-.401-.709 2.554 1.446.401 1.445.401.709-2.554zm-.71 2.554-1.356-.639-1.13 2.399 1.357.639 1.357.639 1.13-2.399zm-1.129 2.399-1.377-.594-1.045 2.424 1.377.594 1.378.593 1.045-2.424zm-1.044 2.424-1.419-.488-.86 2.5 1.419.488 1.418.487.86-2.5zm-.86 2.5-1.407-.52-.908 2.46 1.407.519 1.408.519.907-2.459zm-.908 2.459-1.493-.145-.256 2.649 1.493.144 1.493.145.256-2.648zm-.256 2.648-1.111 1.008 1.775 1.957 1.111-1.008 1.11-1.008-1.774-1.956zm1.775 1.957-.712 1.321 2.229 1.201.712-1.321.711-1.32-2.228-1.201zm2.229 1.201-.064 1.499 2.613.111.064-1.499.063-1.499-2.613-.11zm2.613.111-.163 1.491 2.635.288.162-1.491.163-1.491-2.634-.288zm2.634.288.108 1.496 2.635-.19-.108-1.496-.108-1.496-2.635.19zm2.635-.19.3 1.469 2.526-.515-.3-1.469-.299-1.47-2.527.515zm2.527-.515 1.305.738 1.293-2.285L42.88 113l-1.306-.739-1.293 2.286zM42.88 113l.031 1.5.961-.02-.031-1.5-.031-1.5-.961.02zm17.238-78.361-.875 1.219.212.152.252.072zm2.407.685 1.072-1.05-.278-.283-.383-.11zm1.858 1.896-1.071 1.05.092.094.107.077zm2.157 1.541.93-1.177-.029-.022-.029-.021zm2.071 1.635 1.015-1.105-.041-.038-.045-.035zm1.946 1.788-1.015 1.105.083.076.093.063zm2.19 1.476-.839 1.244.105.07.115.053zm2.32 1.05-.618 1.366.498.225.526-.148zm2.462-.693-.335-1.463-.035.009-.036.01zm2.592-.594.335 1.462.2-.045.181-.099zm2.352-1.277-.418-1.441-.156.045-.142.078zm2.54-.736.417 1.441.093-.027.088-.038zm2.423-1.054.598 1.376.06-.026.056-.03zm2.232-1.21.715 1.32.728-.395.054-.827zm.172-2.639-1.446-.399-.041.148-.01.154zm.696-2.52-.448-1.432-.78.244-.218.788zm2.588-.811 1.444-.407-.42-1.486-1.472.461zm.644 2.282 1.48-.246-.014-.082-.022-.08zm.44 2.644 1.492.154.02-.2-.032-.2zm-.273 2.638-1.492-.154-.011.11.005.111zm.12 2.64 1.482.227.023-.146-.007-.148zm-.402 2.637 1.311.729.131-.236.041-.267zm-1.144 2.06.753 1.298.358-.208.2-.361zm-2.29 1.33-.753-1.297-.01.005-.01.006zm-2.264 1.36-.773-1.285-.015.01-.014.008zm-2.233 1.414.598 1.376.107-.047.098-.062zm-2.437 1.058-.597-1.376-.14.061-.125.088zm-2.17 1.524.747 1.301.06-.034.056-.04zm-2.29 1.314.592 1.379.08-.034.075-.043zm-2.443 1.05-.592-1.38-.18.079-.155.121zm-2.108 1.657.168 1.49.424-.047.335-.264zm-2.642.3-.347 1.459.255.06.261-.03zm-2.552-.609-.444 1.433.048.015.049.011zm-2.522-.782-.718 1.317.131.072.143.044zm-2.325-1.268-.99 1.127.125.11.147.08zm-1.998-1.756.99-1.127-.149-.13-.177-.088zM59.83 53.48l-1.102 1.017.188.204.25.123zm-1.817-1.969 1.103-1.017-.407-.44-.598-.04zm2.023-16.931-.874 1.218.081.059.875-1.219.874-1.219-.08-.058zm.082.058-.411 1.443 2.408.685.41-1.443.411-1.442-2.408-.686zm2.407.685-1.07 1.05 1.857 1.896 1.07-1.05 1.072-1.05-1.857-1.895zm1.858 1.896-.872 1.22 2.157 1.542.872-1.22.872-1.221L65.255 36zm2.157 1.541-.93 1.178 2.072 1.634.93-1.177.928-1.178-2.07-1.634zm2.071 1.635L67.596 41.5l1.946 1.788 1.015-1.104 1.015-1.104-1.946-1.789zm1.946 1.788-.839 1.244 2.19 1.476.838-1.244.839-1.244-2.19-1.476zm2.19 1.476-.619 1.367 2.321 1.05.618-1.368.618-1.367-2.32-1.049zm2.32 1.05.406 1.443 2.462-.692-.406-1.444-.406-1.444-2.462.692zm2.462-.693.335 1.462 2.592-.594-.335-1.462-.334-1.462-2.593.593zm2.592-.594.716 1.318 2.352-1.277-.716-1.318-.716-1.318-2.352 1.277zm2.352-1.277.417 1.44 2.54-.735-.417-1.44-.417-1.442-2.54.736zm2.54-.736.598 1.376 2.423-1.054-.598-1.376-.598-1.375-2.423 1.054zm2.423-1.054.714 1.32 2.233-1.21-.715-1.32-.715-1.318-2.232 1.21zm2.232-1.21 1.497.098.172-2.64-1.497-.097-1.497-.097-.172 2.64zm.172-2.639 1.446.4.696-2.522-1.446-.399-1.446-.4-.696 2.522zm.696-2.52.448 1.43 2.588-.81-.448-1.431-.448-1.432-2.588.81zm2.588-.811-1.444.407.644 2.282 1.444-.407 1.444-.407-.644-2.282zm.644 2.282-1.48.246.44 2.644 1.48-.246 1.48-.246-.44-2.644zm.44 2.644-1.492-.154-.273 2.638 1.492.154 1.492.154.273-2.638zm-.273 2.638-1.498.067.119 2.641 1.499-.067 1.498-.068-.12-2.64zm.12 2.64-1.483-.225-.402 2.637 1.483.225 1.483.226.401-2.636zm-.402 2.637-1.311-.728-1.144 2.06 1.31.729 1.312.728 1.144-2.06zm-1.144 2.06-.753-1.296-2.29 1.328.753 1.298.753 1.297 2.29-1.329zm-2.29 1.33-.772-1.286-2.265 1.361.773 1.286.773 1.285 2.264-1.36zm-2.264 1.36-.802-1.267-2.233 1.413.802 1.268.803 1.267 2.232-1.413zm-2.233 1.414-.597-1.376-2.437 1.058.597 1.376.598 1.376 2.437-1.058zm-2.437 1.058-.862-1.227-2.17 1.524.862 1.227.863 1.228 2.17-1.524zm-2.17 1.524-.746-1.3-2.29 1.313.746 1.301.747 1.302 2.29-1.315zm-2.29 1.314-.592-1.378-2.443 1.049.592 1.378.592 1.379 2.443-1.05zm-2.443 1.05-.927-1.18-2.109 1.658.928 1.18.927 1.178 2.108-1.658zm-2.108 1.657-.17-1.49-2.64.299.168 1.49.17 1.49 2.64-.298zm-2.642.3.348-1.46-2.552-.608-.348 1.46-.347 1.459 2.552.608zm-2.552-.609.445-1.432-2.523-.782-.444 1.432-.444 1.433 2.522.782zm-2.522-.782.718-1.317-2.325-1.268-.718 1.317-.718 1.317 2.325 1.268zm-2.325-1.268.99-1.126-1.998-1.757-.99 1.127-.99 1.127 1.998 1.756zm-1.998-1.756.664-1.345-2.405-1.188-.664 1.345-.665 1.344 2.405 1.189zM59.83 53.48l1.102-1.017-1.816-1.969-1.103 1.017-1.102 1.018 1.817 1.968zm-1.817-1.969.098-1.496-.39-.026-.097 1.497-.098 1.497.39.025z"/><path fill="#000" d="m67.69 58.328-1.492-.162-.02.184.025.182zm.347 2.528 1.488.19.025-.198-.027-.196zm-.334 2.627-1.488-.189-.008.068-.003.069zm-.092 2.646 1.469.304.025-.124.005-.127zm-.538 2.603 1.362.63.072-.157.036-.17zm-1.117 2.41 1.334.688.014-.028.013-.029zm-1.207 2.345 1.3.747.017-.03.016-.03zm-1.324 2.3 1.095 1.026.119-.127.087-.15zm-1.815 1.94.818 1.257.153-.1.124-.132zm-2.218 1.443-.818-1.257-.055.035-.052.041zm-2.103 1.648.108 1.496.456-.032.361-.283zM67.7 58.228l-1.491-.161-.01.1 1.49.16 1.492.163.01-.1zm-.01.1-1.487.204.348 2.529 1.486-.205 1.486-.204-.348-2.529zm.347 2.528-1.488-.19-.334 2.628 1.488.19 1.488.189.334-2.628zm-.334 2.627-1.499-.052-.092 2.646 1.499.052 1.499.053.092-2.646zm-.092 2.646-1.47-.303-.537 2.603 1.47.303 1.469.303.537-2.602zm-.538 2.603-1.36-.63-1.117 2.41 1.36.63 1.361.631 1.118-2.41zm-1.117 2.41-1.333-.687-1.208 2.344 1.334.688 1.333.687 1.208-2.344zm-1.207 2.345-1.3-.748-1.324 2.301 1.3.748 1.3.748 1.324-2.302zm-1.324 2.3-1.095-1.024-1.815 1.939 1.095 1.025 1.096 1.025 1.814-1.939zm-1.815 1.94-.818-1.258-2.218 1.444.818 1.257.818 1.257 2.218-1.443zm-2.218 1.443-.925-1.18-2.103 1.648.925 1.18.925 1.18 2.104-1.648zm-2.103 1.648-.108-1.496-.8.058.107 1.496.107 1.496.802-.058zm-14.78 22.801-1.442.414.011.038.013.037zm.827 2.4 1.5.049.008-.276-.09-.261zm-.086 2.654-1.499-.048-.004.137.02.136zm.398 2.622-1.484.225.036.237.109.215zm1.108 2.194-1.339.676.121.24.197.182zm1.911 1.775-1.021 1.099.302.281.402.087zm2.573.556-.317 1.467.207.044.211-.014zm2.642-.178.046-1.499-.074-.002-.073.005zm2.639.081.155-1.492-.055-.005-.054-.002zm2.645.276-.156 1.492.215.022.212-.039zm2.631-.484.03-1.499-.152-.003-.15.027zm2.621.052-.03 1.5.268.005.253-.087zm-19.937-12.044-1.441.414.027.096 1.442-.414 1.442-.414-.028-.096zm.028.096-1.418.489.827 2.4 1.418-.489 1.418-.488-.827-2.401zm.827 2.4-1.5-.048-.085 2.654 1.5.048 1.499.049.085-2.654zm-.086 2.654-1.483.225.397 2.622 1.484-.225 1.483-.225-.398-2.621zm.398 2.622-1.34.677 1.11 2.193 1.338-.676 1.339-.677-1.109-2.193zm1.108 2.194-1.021 1.098 1.91 1.776 1.022-1.099 1.021-1.098-1.91-1.776zm1.911 1.775-.317 1.467 2.573.556.317-1.467.317-1.466-2.573-.556zm2.573.556.101 1.497 2.642-.178-.101-1.497-.101-1.496-2.642.178zm2.642-.178-.046 1.499 2.638.082.047-1.5.046-1.499-2.64-.081zm2.639.081-.156 1.492 2.645.276.156-1.492.156-1.492-2.646-.276zm2.645.276.271 1.475 2.631-.483-.271-1.476-.271-1.475-2.631.484zm2.631-.484-.03 1.5 2.621.052.03-1.5.03-1.499-2.621-.052zm2.621.052.491 1.418 1.156-.401-.49-1.417-.492-1.418-1.156.401z"/><path fill="#000" d="m64.126 115.555-1.485.213.08.556.425.367zm-.356-2.478 1.484-.213-.065-.454-.308-.34zm-1.748-1.929 1.111-1.007-.309-.341-.446-.109zm-2.587-.633-.383 1.45.013.003.014.003zm-2.583-.682-1.498-.08-.065 1.218 1.18.312zm.109-2.038-1.228-.861-.247.352-.023.429zm1.517-2.166 1.229.86.056-.08.046-.087zm1.222-2.342-1.306-.739-.012.022-.012.023zm1.296-2.291-1.304-.741-.001.002zm1.317-2.317 1.304.741.154-.27.033-.308zm.29-2.655-1.49-.167-.001.004zm.288-2.576 1.491.167.034-.304-.088-.293zm-.748-2.496-1.44.421.003.01zm-.743-2.536 1.44-.422-.057-.194-.106-.172zm-1.388-2.251 1.276-.788-.03-.05-.035-.046zm-1.555-2.131 1.211-.885-.039-.053-.043-.05zm-1.737-1.985-1.295.756.072.124.094.108zm-1.352-2.315 1.295-.756-.15-.256-.235-.18zM53.24 78.11l-1.189.915.121.158.158.12zm10.963 37.511.98-1.136-.076-.065-.98 1.136-.98 1.136.076.065zm-.076-.065 1.485-.214-.357-2.477-1.484.213-1.485.214.356 2.477zm-.356-2.478 1.111-1.007-1.748-1.929-1.111 1.007-1.112 1.007 1.748 1.93zm-1.748-1.929.356-1.457-2.586-.633-.357 1.457-.357 1.456 2.587.634zm-2.587-.633.383-1.451-2.583-.682-.383 1.451-.383 1.45 2.583.682zm-2.583-.682 1.498.08.109-2.038-1.498-.08-1.498-.08-.109 2.038zm.109-2.038 1.229.86 1.517-2.166-1.229-.86-1.228-.861-1.517 2.166zm1.517-2.166 1.33.693 1.222-2.342-1.33-.693-1.33-.694-1.221 2.342zm1.222-2.342 1.305.739 1.296-2.291-1.305-.739-1.305-.739-1.297 2.291zm1.296-2.291 1.304.742 1.317-2.318-1.304-.74-1.304-.742-1.317 2.317zm1.317-2.317 1.491.163.29-2.655-1.49-.163-1.492-.163-.29 2.655zm.29-2.655 1.49.167.29-2.576-1.491-.166-1.491-.167-.289 2.575zm.288-2.576 1.437-.43-.748-2.497-1.437.43-1.437.431.749 2.497zm-.748-2.496 1.44-.422-.743-2.536-1.44.422-1.44.421.743 2.536zm-.743-2.536 1.277-.788-1.389-2.25-1.276.787-1.277.788 1.389 2.25zm-1.388-2.251 1.212-.884-1.556-2.132-1.211.885-1.212.884 1.555 2.131zm-1.555-2.131 1.129-.988-1.737-1.985-1.129.988-1.129.987 1.737 1.985zm-1.737-1.985 1.295-.757-1.352-2.314-1.295.756-1.295.757 1.352 2.314zm-1.352-2.315.91-1.192-2.129-1.625-.91 1.192-.91 1.193 2.13 1.625zM53.24 78.11l1.189-.915-1.24-1.609L52 76.5l-1.189.915 1.24 1.61z"/></svg>