<svg width="120" height="120" viewBox="0 0 120 120" fill="none" xmlns="http://www.w3.org/2000/svg">
<path d="M59.9023 80.4834L59.9258 80.5889L59.9375 80.6943L60.1602 82.9795L60.8398 85.3818L61.5898 87.8545L62.5391 90.1982L62.6211 90.3857L62.6445 90.5967L62.9023 93.1162L63.3594 95.7061L63.3711 95.7295V95.7529L63.7578 98.3779L63.793 98.5889L63.7695 98.8115L63.3945 101.448L63.3594 101.647L63.2891 101.823L62.3164 104.085L61.5898 106.651L61.5195 106.909L61.3555 107.132L59.7852 109.276V109.288L58.2031 111.433L58.0273 111.655L57.793 111.808L55.5312 113.237L55.5078 113.249L55.4727 113.272L53.1875 114.573L53.082 114.632L52.9766 114.667L50.5156 115.616L50.4453 115.64L50.3867 115.663L47.832 116.401L47.5977 116.46H47.3633L44.9375 116.366L42.6758 117.14L42.5234 117.198L42.3594 117.21L39.7344 117.491L39.5586 117.515L39.3828 117.491L39.3008 117.479L39.4883 115.991L39.5234 115.64L39.4062 114.515L41.8203 114.245L44.2578 113.448L44.5156 113.354L44.7852 113.366L47.2227 113.448L49.4492 112.804L51.8164 111.89L53.9844 110.659L55.9648 109.394L57.3594 107.507L58.7539 105.585L59.4219 103.265L59.457 103.171L59.4922 103.089L60.4414 100.827L60.7578 98.6006L60.4062 96.2334L59.9492 93.6318L59.9375 93.585V93.5264L59.6797 91.1357L58.7773 88.8623L58.7305 88.7451L57.9688 86.2607V86.249L57.957 86.2256L57.2422 83.6943L57.207 83.5654L57.1953 83.4365L56.9492 80.9873L57.7227 80.9053L58.4258 80.7412L59.8789 80.3896L59.9023 80.4834Z" fill="black"/>
<path d="M95.792 51.8306L96.6475 52.2407L97.9951 52.897L97.96 52.979L97.9248 53.0493L97.8779 53.1196L97.0342 54.4907L96.9756 56.7056L96.9639 56.8813L96.9287 57.0454L96.2607 59.5767L96.1904 59.8579L96.0029 60.104L94.3975 62.2368L94.21 62.4946L93.9287 62.647L91.5967 63.936L91.4795 64.0063L89.2412 64.979L87.6592 66.0923L86.3467 68.0728L86.2529 68.2134L86.1357 68.3306L84.3662 69.9946L84.2373 70.1001L84.1084 70.1821L81.8115 71.5532L81.6826 71.6353L81.5303 71.6821L79.3857 72.4204L78.0967 73.7212L76.5264 75.8188L75.167 77.8579L75.1318 77.8931L75.1084 77.9399L73.5732 79.9204L72.5068 82.1118L72.4248 82.2642L72.3193 82.3931L71.0186 83.9985L71.1006 86.1196L71.1123 86.2134L71.1006 86.3188L70.8662 88.7915L71.124 91.311L71.1357 91.4282L71.124 91.5571L70.9834 93.7837L72.0029 95.6704L72.0732 95.7993L72.1084 95.9282L72.917 98.436L72.9873 98.6587V101.424L73.3271 103.862L73.749 106.147L75.0264 107.917L76.7959 109.733L78.5068 111.186L80.7568 111.831L80.8037 111.842L80.8623 111.866L83.2412 112.745L85.6084 113.436L88.1279 113.682H88.1748L88.2217 113.694L90.835 114.104L90.917 114.116L90.999 114.139L93.4482 114.807L93.1201 115.979L94.5381 115.92L94.5498 116.178L94.6553 118.252L92.6514 117.702L90.2725 117.045L87.7998 116.659L85.21 116.424L85.0693 116.413L84.9287 116.366L82.3857 115.627L82.3389 115.604L82.292 115.592L79.8779 114.69L77.3584 113.987L77.042 113.893L76.7959 113.682L74.7686 111.936L74.71 111.901L74.6631 111.842L72.835 109.967L72.7529 109.885L72.6943 109.803L71.1357 107.635L70.9365 107.366L70.8779 107.038L70.374 104.413V104.377L70.3623 104.342L70.0225 101.741L69.999 101.635V101.542L69.9873 99.0923L69.3193 96.9946L68.1475 94.8384L67.9482 94.4634L67.9717 94.0298L68.1357 91.522L67.8662 88.9673L67.8545 88.8267L67.8662 88.6743L68.1123 86.0962L67.9834 83.0024L68.335 82.5688L69.8701 80.647L70.9717 78.4321L71.0303 78.3032L71.124 78.186L72.7295 76.1001L74.0771 74.0845L74.124 74.0142L75.7646 71.8345L75.835 71.7524L75.9053 71.6821L77.4873 70.0884L77.7217 69.8423L78.0498 69.7251L80.4053 68.8813L82.4326 67.6743L83.9678 66.2329L85.3389 64.2056L85.4912 63.9712L85.7139 63.8071L87.5889 62.4712L87.7178 62.3892L87.8584 62.3188L90.2607 61.2524L92.1943 60.1743L93.4248 58.5454L93.9756 56.4478L94.0459 54.0103L94.0576 53.6118L94.2686 53.272L95.2646 51.6431L95.2998 51.5845V51.5962L95.335 51.5376L95.792 51.8306Z" fill="black"/>
<path d="M10.3184 72.5571H10.3887L11.877 72.4399L11.8887 72.5454L11.959 73.3892L11.2676 73.8813L9.60352 75.0532L8.86523 76.5181L9.35742 78.0767L10.8105 79.4243L12.873 80.7368L13.5059 81.1353L13.5645 81.8735L13.7402 84.0767L14.8535 85.5181L16.5645 86.4907L18.4512 86.7603L20.1973 85.9282L21.8262 85.1548L22.2949 86.8892L22.3535 87.1001L20.9355 87.4868L21.498 88.6353L19.3535 89.6665L18.9434 89.8657L18.4863 89.7954L15.8613 89.4204L15.5801 89.3853L15.3223 89.2446L13.1074 87.979L12.8379 87.8267L12.6504 87.5806L11.0918 85.5298L10.834 85.1899L10.7988 84.7563L10.6348 82.8696L9.09961 81.897L8.98242 81.8267L8.87695 81.7329L7.03711 80.0103L6.74414 79.7407L6.62695 79.3657L5.83008 76.8462L5.64258 76.2603L5.92383 75.7212L7.0957 73.3892L7.25977 73.0493L7.56445 72.8384L9.52148 71.4438L10.3184 72.5571Z" fill="black"/>
<path d="M69.5781 96.7295L69.8711 96.7764L71.3477 97.0342L71.3359 97.1279L71.2891 97.3623L71.1836 97.5732L70.1055 99.6006L69.3672 101.815L69.2969 104.276L69.4141 106.749L69.5664 109.116L70.3398 111.038L71.9219 112.468L73.9727 113.698L75.9531 114.812L76.2109 114.823L76.1992 114.952L76.293 115.011L76.1992 115.151V116.323L76.1875 117.823L75.543 117.812H75.1562L74.8281 117.624L72.5078 116.323L72.4609 116.3L70.2227 114.952L70.0938 114.882L69.9883 114.776L68.0664 113.019L67.8086 112.784L67.6797 112.468L66.6953 110.03L66.6133 109.808L66.5898 109.573L66.4141 106.948V106.913L66.2969 104.288V104.183L66.3789 101.534L66.3906 101.312L66.4492 101.101L67.293 98.5811L67.3281 98.4639L67.3867 98.3584L68.5352 96.1787L69.5781 96.7295Z" fill="black"/>
<path d="M82.4746 26.5347L82.7441 26.6401L85.1582 27.5659L85.5449 27.7183L85.8027 28.0464L87.4082 30.1323L87.6777 30.4722L87.7129 30.9058L87.877 32.6401L89.1777 33.2612L91.5918 34.0112L92.377 34.2573L92.5996 35.0542L93.2793 37.6089L93.3027 37.7261L93.748 40.2104L92.5059 40.4214L92.3301 40.5503L91.0879 41.4058L91.041 41.3237L90.8535 41.0542L90.7949 40.7378L90.373 38.3823L89.9043 36.6128L88.2168 36.0972L88.1113 36.0737L88.0176 36.0269L85.8262 34.9839L85.0527 34.6206L84.9707 33.7651L84.7598 31.6089L83.6699 30.2026L81.9121 29.5347L79.6973 29.5464L79.709 29.5581L78.0332 29.6284L77.9629 28.3511H77.9395L76.4512 28.1519L76.4746 27.9409L76.6387 26.687L77.9043 26.6284L79.5801 26.5581H79.6387L82.1934 26.5347H82.4746Z" fill="black"/>
<path d="M88.6543 46.3765L91.1855 46.5054L91.1035 47.7827L91.1973 47.9585L91.8652 49.2944L91.7832 49.3413L91.4316 49.5171L91.0332 49.4937L88.6543 49.3647L86.6152 49.5874L85.373 50.8413L84.5527 53.0796L84.2363 53.9233L83.3457 54.0405L80.7676 54.3687L78.9629 54.978L78.1191 56.4663L77.791 58.2007L78.3535 59.5015L79.9824 59.7944L80.873 59.771L80.9434 61.2593L81.002 62.7593L79.9355 62.8062L79.7715 62.8179L79.6074 62.7827L77.0293 62.314L76.2324 62.1733L75.916 61.4233L74.8613 58.9624L74.6855 58.5405L74.7676 58.0952L75.2129 55.6812L75.2598 55.4351L75.3887 55.2124L76.9355 52.5054L77.4863 52.3179L80.123 51.439L80.2637 51.4155L82.0449 51.1812L82.6777 49.5054L82.7949 49.2124L83.0176 48.978L84.8574 47.103L85.2441 46.7163L85.7715 46.6577L88.4199 46.3765L88.5371 46.3647L88.6543 46.3765Z" fill="black"/>
<path d="M59.9004 18.5938L62.5488 18.793L62.959 18.8164L63.2988 19.0625L65.4668 20.5977L65.6309 20.7148L65.7598 20.8789L67.2949 22.7656L66.252 23.6094L66.2285 23.7383L65.8535 25.1914L65.7598 25.168L65.2793 25.0391L64.9629 24.6641L63.5449 22.918L61.8926 21.7461L59.8887 21.5938L57.6855 22.0977L55.4238 23.0469L55.2598 23.1055L55.0957 23.1406L52.6934 23.5391L52.5762 23.5625H52.459L50.0332 23.5742L47.9707 24.1484L46.2949 25.1445L45.6035 27.1484L45.5215 27.4062L45.3457 27.6289L43.7168 29.5625L43.5293 29.7852L43.2832 29.9141L41.3965 30.9219L40.3887 32.4453L40.3301 32.9258L37.3535 32.4805L37.4707 31.6836L37.5293 31.3555L37.7051 31.0742L39.1113 28.9648L39.3223 28.6602L39.6504 28.4727L41.6074 27.4062L42.8613 25.9062L43.6465 23.6562L43.8223 23.1406L46.752 21.3828L46.9512 21.3359L49.4355 20.6445L49.623 20.5859H49.8223L52.3301 20.5625L54.4277 20.1992L56.7012 19.2734L56.8184 19.2266L56.9355 19.1914L59.4551 18.6289L59.6777 18.5703L59.9004 18.5938Z" fill="black"/>
<path d="M97.9424 63.5361L98.0244 63.665L99.2197 64.2158L98.4697 65.833L98.2939 66.2197L97.9424 66.4541L95.8213 67.8486L93.8057 69.4893L93.6182 69.6416L93.3838 69.7354L90.876 70.6611L90.6299 70.7549L90.3604 70.7666L87.7002 70.7783H87.6299L87.5596 70.7666L84.9346 70.5439L84.7354 70.5205L84.5361 70.4502L83.7041 70.1338L84.2314 68.7275L84.7588 67.333L85.3916 67.5674L87.8057 67.7666H90.0791L92.0713 67.0049L93.958 65.4932L94.0166 65.458L94.0752 65.4111L95.9268 64.1689L96.4893 62.9619L96.6768 62.5635L97.0518 62.3174L97.1455 62.2705L97.9424 63.5361Z" fill="black"/>
<path d="M44.9775 63.0078L45.083 63.0898L45.1768 63.1953L46.6299 64.8711L48.5166 65.8672L50.8486 66.3008L51.3408 66.3828L51.6807 66.7344L53.5205 68.6797L53.7197 68.8906L53.8252 69.1602L54.7627 71.5039L55.9932 73.6953L56.2979 74.2344L56.1338 74.832L55.5127 77.0352L55.1143 78.4766L53.6611 78.0781L53.5088 78.0312L53.9072 76.5898H53.8955L52.6299 76.2266L53.0752 74.6094L52.1143 72.8984L52.0674 72.8164L52.0322 72.7227L51.1533 70.543L49.8408 69.1602L47.7549 68.7852L47.5205 68.75L47.3096 68.6328L44.9893 67.4023L44.7432 67.2734L44.5674 67.0625L42.915 65.1641L43.6416 64.543L43.9697 64.1211L44.9072 62.9492L44.9775 63.0078Z" fill="black"/>
<path d="M64.46 72.769L64.6943 73.1792L64.6475 73.6479L64.4248 76.144L64.7529 78.5933L64.7646 78.605L65.0928 81.2417L65.1162 81.4409L65.0811 81.6519L64.7412 83.8901L65.3506 86.1284V86.1401L66.0303 88.7065L66.0654 88.8354L66.0771 88.9644L66.2881 91.6128V91.7417L66.2764 94.1206L67.2021 96.3354L67.4131 96.8276L67.2607 97.3433L66.9912 98.2456L65.5498 97.812L64.46 97.4722L64.4365 97.4956L64.4248 97.4604L64.1201 97.3784L64.2256 97.0034L63.3936 94.9995L63.2764 94.7183V94.4019L63.2881 91.8472L63.0889 89.3276L62.4561 86.9136L61.7646 84.3823L61.6709 84.0659L61.7295 83.7495L62.0811 81.3823L61.7881 78.9917L61.4248 76.3667L61.4014 76.1909L61.4248 76.0269L61.624 73.8237L60.6748 72.1714L60.5225 71.8901L60.4756 71.4683L61.9756 71.3276L62.1748 71.3159L63.2881 70.6831L64.46 72.769Z" fill="black"/>
<path d="M104.743 81.9746L104.825 82.0332L106.173 81.8809L106.478 84.3184L106.513 84.7051L106.384 85.0566L105.423 87.4824L105.353 87.6699L105.224 87.834L103.677 89.9199L103.466 90.2012L103.161 90.3535L100.794 91.6074L100.454 91.7832L100.067 91.7715L97.4072 91.7246L97.0322 91.7129L96.7041 91.5254L95.0986 90.623L90.4463 88.0098L95.7783 87.8223L97.6885 87.752L97.7236 88.6543L97.8408 88.7246L99.7393 88.7598L101.462 87.8574L102.704 86.1934L103.442 84.3066L103.196 82.2324L103.126 81.6465L103.478 81.166L103.536 81.084L104.743 81.9746Z" fill="black"/>
<path d="M24.1963 58.4741L24.2432 58.5327L25.6025 58.7905L25.2979 60.4429L26.7158 61.4858L26.7627 61.521L26.8213 61.5679L28.79 63.314L30.7236 64.9897L32.6572 66.3022L34.8486 66.9702H34.8721L34.8838 66.9819L37.3916 67.8022H37.3799L39.876 68.6108L39.9814 68.646L40.0869 68.6929L42.4541 69.8882L42.7471 70.0405L42.958 70.2983L44.5518 72.314L46.2275 74.1655L45.4189 74.8804L45.1963 75.2202L44.3525 76.4624L44.2705 76.4038L44.1182 76.3101L44.001 76.1694L42.3252 74.3179L42.3018 74.2827L42.2666 74.2476L40.8252 72.4194L38.8096 71.4116L36.4541 70.6499L33.9814 69.8413L31.5557 69.103L31.333 69.0327L31.1455 68.9038L28.9541 67.4155L28.8838 67.3687L28.8135 67.3101L26.833 65.5874L26.8213 65.5757L24.876 63.8647L22.7783 62.3296L22.0166 61.7671L22.1807 60.853L22.6494 58.2632L22.7549 57.6772L23.2354 57.3257L23.3057 57.2671L24.1963 58.4741Z" fill="black"/>
<path d="M35.6641 47.3076L35.6523 47.3193L38.043 47.7998L38.207 47.8232L38.3477 47.8936L40.4805 48.8193L42.8594 48.8545H42.9062L42.9648 48.8662L45.5664 49.0654L46.0586 49.1123L46.4336 49.4287L48.4258 51.1631L48.5195 51.2568L48.6133 51.3623L50.2422 53.4014L50.3594 53.5654L51.5781 55.6279L53.1719 57.21L54.918 58.3467L56.5586 58.4521L57.8477 58.5342L57.9648 59.8115L57.9766 60.0225L56.4883 60.1631H56.4414L56.3711 61.4404L54.3555 61.3232L53.9688 61.2998L53.6406 61.0771L51.4141 59.6475L51.2852 59.5654L51.1797 59.46L49.3516 57.6436L49.2109 57.5146L49.1055 57.3506L47.793 55.1475L46.3516 53.3428L44.8281 52.0068L42.7188 51.8545V51.8428L40.1523 51.8193H39.8594L39.5781 51.7021L37.2695 50.6943L34.9961 50.2256H34.9609L34.9258 50.2139L34.832 50.1904L35.5586 47.2842L35.6641 47.3076Z" fill="black"/>
<path d="M70.6396 21.3428L73.2061 21.542L73.4521 21.5654L73.6631 21.6592L76.1123 22.667L76.5693 22.8545L76.8271 23.2764L78.1982 25.5381L78.292 25.6904L78.3506 25.8662L79.0654 28.1748L77.7881 28.5615L77.7178 28.6787L76.874 29.9209L76.792 29.8623L76.3584 29.5693L76.1943 29.0654L75.5264 26.9326L74.5068 25.2568L72.749 24.5186L70.4756 24.3428L68.1084 24.5654L66.6201 24.8701L66.3271 23.417L64.8271 23.2998L64.8389 23.2764L64.9209 22.1396L66.0459 21.9287L67.6279 21.6123L67.7686 21.5889L70.3818 21.3428L70.5107 21.3311L70.6396 21.3428Z" fill="black"/>
<path d="M55.4805 46.3286L55.5859 46.4927L55.6562 46.6802L56.4297 49.0239L57.5547 51.4028L57.625 51.5552L57.6602 51.731L58.2109 54.2271L58.2578 54.4614L58.2344 54.7075L57.9766 57.1802L58.0234 59.2896L59.2539 61.0239L59.2773 61.0474L59.2891 61.0825L60.7305 63.3091L60.8008 63.438L60.8594 63.5786L61.7969 65.9458L63.0977 68.1021L63.1328 68.1724L63.168 68.231L64.1406 70.27L65.6406 72.0747L65.8867 72.356L65.957 72.731L66.4258 75.063L67.5859 77.1841L67.6797 77.3481L67.7148 77.5356L68.3125 79.9028L69.2383 81.8716L70.3867 83.2896L69.4023 84.0864L70.6445 84.7661L70.5508 84.9419L69.4961 86.9224L68.0664 85.188L66.8125 83.6528L66.707 83.5122L66.625 83.3481L65.5586 81.0981L65.4883 80.9692L65.4531 80.8169L64.8438 78.4263L63.6836 76.2935L63.5781 76.0942L63.5312 75.8716L63.0859 73.6919L61.7266 72.0747L61.6094 71.9224L61.5273 71.7583L60.4844 69.5903L59.1484 67.3638L59.0781 67.2583L59.0312 67.1411L58.1289 64.8325L56.8047 62.7583L55.3047 60.6489L55.0469 60.2739L55.0352 59.8169L54.9766 57.2153V57.1099L54.9883 57.0161L55.2227 54.6489L54.7539 52.5161L53.7109 50.313L53.6758 50.231L53.6523 50.1489L52.8672 47.8286L51.5898 45.895L51.4844 45.731L51.4141 45.5435L51.3906 45.438L52.8086 44.9692L53.1484 44.8638L54.0859 44.231L55.4805 46.3286Z" fill="black"/>
<path d="M80.2637 41.3389L81.3066 42.4053L81.1777 42.5342L79.9473 43.6123L79.6426 45.2646L79.502 46.0146L78.8223 46.3428L76.7949 47.3037L74.9668 48.9443L74.873 49.0146L72.916 50.4795L71.6738 52.0967L70.8652 54.3584L70.0566 56.7607L70.0684 56.7725L69.3652 58.9873L69.6582 61.1201L69.8926 62.1748L66.9629 62.8311L66.7285 61.7764L66.7051 61.7178V61.6475L66.3535 59.0693L66.3066 58.7412L66.4121 58.4248L67.1973 55.8818L67.209 55.8701V55.8584L68.0293 53.374L68.041 53.3506V53.3271L68.9434 50.8545L69.0254 50.6318L69.166 50.4443L70.6777 48.4873L70.7949 48.335L70.959 48.2061L73.0684 46.624L74.9434 44.9365L75.1074 44.7959L75.2949 44.7021L76.8418 43.9521L77.1113 42.5459L77.2051 42.042L77.5918 41.7021L79.1973 40.2725V40.2842L79.2207 40.2607L80.2637 41.3389Z" fill="black"/>
<path d="M111.236 74.0542L111.307 74.0776L112.537 73.4917L113.662 75.8237L113.873 76.2456L113.791 76.7144L113.381 79.2925L113.334 79.5386L113.217 79.7612L111.963 82.0464L111.787 82.3628L111.494 82.562L109.279 84.0737L108.916 84.3198L108.494 84.3315L105.939 84.4253L105.506 84.5425L104.826 81.6128L105.424 81.4722L105.576 81.437H105.717L107.955 81.3433L109.502 80.2886L110.451 78.5542L110.756 76.6909L109.842 74.7925L109.525 74.1479L109.83 73.5034L109.877 73.4097L111.236 74.0542Z" fill="black"/>
<path d="M77.8574 74.666H77.9043L77.9512 74.6777L80.5762 74.9707L80.7051 74.9824L80.834 75.0176L83.3184 75.7559L83.5527 75.8145L83.752 75.9551L85.9199 77.4668L86.2363 77.6895L86.4004 78.0176L87.502 80.1855L88.9902 81.6152L91.041 82.3652L92.1309 82.5762L91.8379 84.0527L91.5566 85.5293L90.3145 85.2832L90.1855 85.2598L90.0801 85.2129L87.6543 84.3223L87.3613 84.2051L87.1387 83.9941L85.2402 82.166L85.0527 81.9902L84.9473 81.7676L83.9043 79.7285L82.2168 78.5449L80.0957 77.9238L77.7051 77.6543L75.2207 77.5371L74.9629 77.5254L74.7285 77.4316L74.6348 77.3965L75.1973 76.002L75.3027 75.7441L75.3613 74.5371L77.8574 74.666Z" fill="black"/>
<path d="M112.501 63.1304L112.899 63.3296L113.122 63.728L114.411 66.0015L114.493 66.1538L114.54 66.3296L115.267 68.8491L115.384 69.2241L115.29 69.6108L114.657 72.2241L114.563 72.6226L114.282 72.9155L112.419 74.8374L112.056 75.2007L111.54 75.271L110.532 75.4116L110.134 72.4351L110.614 72.3647L111.833 71.1226L112.267 69.2944L111.692 67.3022L110.743 65.6147L108.845 64.6538L108.247 64.3491L108.071 63.7046L108.048 63.6108L109.489 63.2124L109.571 63.2007L110.192 61.9702L112.501 63.1304Z" fill="black"/>
<path d="M105.867 52.5801L106.242 52.5918L106.57 52.791L108.832 54.1152L108.973 54.1973L109.09 54.3027L111.012 56.084L111.305 56.3535L111.422 56.7402L112.219 59.3066L112.383 59.8457L112.16 60.3613L111.07 62.7988L110.977 62.9863L110.309 64.0527L109.078 63.2793H109.043L107.543 63.2441V62.8105L107.766 62.459L108.363 61.4863L109.184 59.6582L108.68 58.0176L107.168 56.6113L105.387 55.5566L103.254 55.498L102.645 55.4746L102.152 54.9824L103.23 53.9277L103.301 53.8457L103.348 52.498L105.867 52.5801Z" fill="black"/>
<path d="M67.8936 37.3828L68.0107 37.7109L67.9873 38.0508L67.7998 40.1484L68.6201 41.8008L70.4014 43.3828L70.6709 43.6172L70.8115 43.957L71.7842 46.4414L71.8311 46.5352L71.8545 46.6406L72.4521 49.1953L71.3154 49.4531L71.0693 49.6406L69.8623 50.5312L69.7803 50.4258L69.6045 50.1797L69.5225 49.875L68.96 47.4727L68.1514 45.3984L66.4287 43.875L66.2061 43.6758L64.9287 41.1211L64.7412 40.7344L64.7764 40.3125L64.999 37.793L66.2529 37.8984L66.4521 37.8281L67.8584 37.2891L67.8936 37.3828Z" fill="black"/>
<path d="M21.9189 85.6431L22.4346 85.936L22.6104 86.4985L23.2666 88.5728L24.415 90.0376L26.3252 90.4712H28.6338L30.9424 90.272L32.8291 89.229L32.9111 89.1704V89.1821L32.9463 89.1704L33.0283 89.3228L33.8369 90.354L34.7744 91.5259L34.5986 91.6665L34.5049 91.7368L34.3877 91.7954L32.1025 93.061L31.8213 93.2134L31.5049 93.2368L28.8916 93.4595L28.8213 93.4712H25.9854L25.8213 93.436L23.2197 92.8501L22.6924 92.7212L22.3643 92.2993L20.7471 90.2134L20.583 90.0024L20.501 89.7563L19.751 87.4126L21.04 86.9907L21.0986 86.9087L21.8252 85.5962L21.9189 85.6431Z" fill="black"/>
<path d="M22.1475 49.3423L22.3936 49.811L23.0732 51.147L22.9795 51.1938L22.8506 51.2524L22.6982 51.2993L20.8115 51.8149L19.1592 53.3853L19.0537 53.479L18.9482 53.5493L17.0732 54.7563L16.8857 54.8735L16.6631 54.9438L14.4834 55.5298L12.9014 56.6548L12.1631 58.3188L12.3506 60.3696L12.6084 61.8462L12.9131 63.6274L11.1084 63.604H11.0146V62.1157L9.64355 62.3735L9.38574 60.897L9.37402 60.8267V60.7681L9.13965 58.2017L9.11621 57.8032L9.26855 57.4517L10.335 55.061L10.5107 54.686L10.8389 54.4517L12.9482 52.9399L13.1709 52.7876L13.417 52.7173L15.6553 52.0962L17.2021 51.1001L19.042 49.3774L19.3115 49.1313L19.6631 49.0376L21.8896 48.4048L22.1475 49.3423Z" fill="black"/>
<path d="M93.8105 38.8984L96.3184 38.957H96.7051L97.0332 39.1562L99.2715 40.4453L99.6699 40.6797L99.8691 41.1016L100.795 43.0234L102.377 43.9844L104.521 44.9219L104.943 45.1094L105.189 45.5078L106.584 47.7461L106.83 48.1562L106.807 48.6367L106.619 51.2734L106.607 51.4492L106.549 51.625L105.775 54.0391L104.475 53.6172L104.393 53.6641L103.045 54.3203L102.998 54.2266L102.74 53.6875L102.916 53.125L103.643 50.8398L103.771 48.9062L102.881 47.4648L101.041 46.668L100.947 46.6328L100.865 46.5742L98.8613 45.3672L98.4746 45.1328L98.2871 44.7344L97.3496 42.8125L95.873 41.9453L94.0918 41.8984L92.3223 42.7773L91.8418 41.7578L91.6543 42.9531L91.4434 42.918L86.6738 42.2031L90.998 40.082L93.1191 39.0508L93.4473 38.8867L93.8105 38.8984Z" fill="black"/>
<path d="M102.17 70.3589L102.029 70.4292L100.471 71.1323L99.8496 73.019L99.6387 73.605L99.0879 73.8862L97.1074 74.8589L96.4043 75.1987L95.7246 74.8237L94.0957 73.9448L93.334 73.5347L93.3105 72.6675V72.4683L94.8105 72.4331L94.9043 72.4214L95.5371 71.3081L96.4629 71.8237L97.2012 71.4604L97.8457 69.5737L98.0449 68.9644L98.6309 68.6948L100.717 67.7456V67.7339L100.811 67.687L102.17 70.3589Z" fill="black"/>
<path d="M24.1885 41.041L24.2588 41.0762L25.6533 41.6152L25.6182 41.709L25.3486 42.4121L24.6221 42.6113L22.5713 43.1738L21.2705 44.2871L21.0947 45.9395L21.9033 47.8965L21.9268 47.9434L21.9385 48.002L22.3252 49.1738L20.9072 49.6426L19.4775 50.1113L19.126 49.0332L18.1768 46.7363L18.0361 46.373L18.0713 45.998L18.3525 43.373L18.4229 42.7754L18.8799 42.3887L20.8838 40.6777L21.1416 40.4668L21.458 40.373L23.8252 39.7168L24.1885 41.041Z" fill="black"/>
<path d="M75.6367 57.4712L75.8477 57.6938L76.8438 58.8071L76.7734 58.8774L76.5859 59.0415L76.3516 59.1353L74.1719 60.061L72.25 61.3384L70.5742 63.1431L69.2852 64.854L68.1836 67.1157L67.2109 69.4712V69.4829L66.168 71.9438L65.9688 72.4009L65.5352 72.6587L64.9141 73.0103L64.1641 71.7212L63.6953 70.8892L63.4023 70.772L63.4961 70.5493L63.4141 70.4204L63.6016 70.3032L64.4453 68.311L65.4531 65.8853L65.4648 65.8384L65.4883 65.8032L66.6602 63.4126L66.7188 63.2954L66.8008 63.1782L68.2539 61.2563L68.3477 61.1392L70.1641 59.1821L70.2812 59.0532L70.4336 58.9478L72.6484 57.4829L72.7539 57.4126L72.8828 57.354L75.1797 56.3813L75.6367 57.4712Z" fill="black"/>
<path d="M63.4512 108.722L63.5684 108.851L64.7871 109.296L63.9316 111.687L63.8145 112.015L63.5684 112.261L61.6699 114.101L61.6465 114.125L59.7246 115.917L59.5488 116.082L59.3262 116.187L56.9121 117.289L56.7598 117.359L56.6074 117.394L54.0176 117.968L52.9746 118.203L52.3184 115.273L53.3613 115.039L55.8223 114.488L57.8496 113.55L59.6074 111.921L61.2246 110.339L61.9629 108.277L62.1035 107.914L62.3965 107.656L62.4668 107.585L63.4512 108.722Z" fill="black"/>
<path d="M80.2402 84.9648L80.6973 85.1523L80.9551 85.5742L82.0918 87.4258L83.498 88.3516L85.502 87.9648H85.5254L88.0566 87.4961L88.877 87.3555L89.4395 87.9648L90.916 89.5938L92.6973 90.1094L94.5254 89.793L96.0137 88.668L96.6348 87.5781L97.6191 88.1172L97.1152 87.0391L97.3027 86.9453L101.557 84.9648L99.248 89.043L98.4746 90.4141L98.3223 90.6953L98.0762 90.8828L96.0605 92.4062L95.7676 92.6289L95.416 92.6875L92.8613 93.1328L92.5215 93.1914L92.1816 93.0977L89.6738 92.3477L89.2637 92.2305L88.9824 91.9258L87.7754 90.5898L86.0645 90.9062L83.4746 91.4102L82.877 91.5273L82.373 91.1992L80.1816 89.7695L79.9004 89.582L79.7246 89.3008L78.4004 87.1445L79.5371 86.4414L79.584 86.3242L80.1465 84.9297L80.2402 84.9648Z" fill="black"/>
<path d="M27.8799 33.4634L30.5166 33.5103L30.9268 33.522L31.2783 33.7329L33.3057 34.9634L32.5791 36.1353L32.6143 36.2056L33.2354 37.5767L33.1416 37.6118L32.415 37.9399L31.7471 37.5298L30.0713 36.4985L28.3369 36.4634L26.8721 37.5649L25.8408 39.3228L25.3018 41.2798L23.8721 40.8813L23.5322 42.3462L23.5205 42.3345L21.9971 41.9829L22.4189 40.4712L23.0049 38.3501L23.0518 38.1743L23.1572 37.9985L24.4346 35.7954L24.5869 35.5259L24.833 35.3501L26.9541 33.7681L27.3643 33.4517L27.8799 33.4634Z" fill="black"/>
<path d="M49.6553 74.0576L49.7959 74.0811L52.3857 74.5498L52.6084 74.5967L52.7959 74.6904L55.1162 75.8857L55.21 75.9326L55.3037 75.9912L57.4248 77.5146L57.4834 77.5498L57.5303 77.5967L59.4639 79.249L61.4561 80.585L63.5889 81.7803L63.6475 81.8154L63.7178 81.8506L63.7998 81.9092L62.9326 83.1396L62.3701 83.9365L62.124 84.3936L59.9326 83.1748L59.8154 83.1045L57.6943 81.6748L57.624 81.6279L57.5654 81.5693L55.6787 79.9521L53.5928 78.4639L51.6357 77.4561L49.3857 77.0576H47.0068L47.0186 77.0693L44.5928 77.3037L42.3896 77.7256L40.5146 79.1201L40.1396 79.3896L39.6826 79.4131L37.0928 79.4951H37.0811L34.8428 79.5537L33.2725 80.5615L33.1318 80.6553L32.9795 80.7021L30.5889 81.5928L30.3428 81.6748L30.085 81.6865L27.4365 81.71H27.3779L24.7178 81.6396L24.2139 81.6279L23.8154 81.2998L22.0928 79.9053L21.999 79.8232L21.6709 79.4482L22.8076 78.4756L23.9443 77.4912L24.0732 77.6318L25.3037 78.6514L27.4365 78.6982L29.7568 78.6865L31.7725 77.9482L33.5889 76.8115L33.9287 76.5889L34.3506 76.5771L36.999 76.4951L39.1084 76.4248L40.9014 75.1123L41.1709 74.9131L41.5107 74.8428L44.1475 74.3506L44.2061 74.3389L44.2764 74.3271L46.7256 74.0811L46.7959 74.0693H46.8662L49.5146 74.0576H49.6553Z" fill="black"/>
<path d="M50.166 84.7012L50.459 85.6855L50.6348 86.1191L50.5879 86.1309L50.541 86.1426L48.4668 86.9863L46.4746 88.3809L46.334 88.4863L46.1699 88.5449L43.7441 89.4941L43.3574 89.6465L42.9355 89.5762L40.5566 89.1543L38.8809 88.8613L39.3848 87.2324L39.4434 87.0566L40.8496 87.4785L41.0723 86.2012L43.041 86.541L44.8926 85.8262L46.8613 84.4551L47.002 84.3496L47.166 84.291L49.5098 83.3418L49.5684 83.3184L49.6387 83.2949L49.7324 83.2598L50.166 84.7012Z" fill="black"/>
<path d="M40.6445 86.7139L40.668 86.7842L41.9922 87.1943L41.2539 89.5615L41.1016 90.0537L40.6797 90.3467L38.5469 91.8115L38.2656 92.0107L37.9258 92.0576L35.3828 92.4678L34.5859 92.5967L34.0352 91.999L32.4766 90.2998L30.6719 88.3193L33.2969 87.8154L33.4844 87.7803L33.7539 89.1279L34.6914 88.2725L35.6875 89.374L37.1289 89.1396L38.5469 88.167L39.1211 86.3037L39.3438 85.6006L40.0352 85.3428L40.1289 85.3076L40.6445 86.7139Z" fill="black"/>
<path d="M89.7529 55.8135L90.0342 55.9072L91.4521 56.3994L91.417 56.4932L91.335 56.7275L91.1826 56.9268L89.8467 58.6143L88.874 60.6182L88.6865 62.833L88.8037 63.4893L87.3271 63.7354L85.8506 63.9697L85.71 63.0908L85.6748 62.915L85.6865 62.7393L85.9092 60.1025L85.9326 59.8213L86.0498 59.5752L87.2217 57.1846L87.2803 57.0439L87.3857 56.915L88.8271 55.0752L89.7529 55.8135Z" fill="black"/>
<path d="M38.5449 78.2739L38.8379 78.4731L39.9043 78.8716L39.0254 81.2388L38.9434 81.4497L38.8145 81.6255L37.2207 83.7349L37.1621 83.8052L37.1035 83.8638L35.3926 85.6567L34.8887 86.4067L34.373 87.1567L33.4707 87.063L33.2832 87.0396L33.4473 85.5396L33.459 85.4341L32.4043 84.7192L32.9785 83.8755L33.0488 83.7817L33.1309 83.688L34.8535 81.8833L36.2832 79.9966L37.0801 77.8403L37.1504 77.6528L37.2676 77.5005L37.3262 77.4185L38.5449 78.2739Z" fill="black"/>
<path d="M33.5049 54.252L33.6572 54.3105L33.7861 54.3926L35.6377 55.5996L37.7471 56.1738L39.9033 56.3496L40.2197 56.373L40.501 56.5254L42.5869 57.6504L44.5674 58.166L46.1143 57.7793L46.4658 59.209L46.4893 59.2207L47.8486 59.8418L47.8369 59.8535L47.5439 60.5215L46.8408 60.6973L44.9307 61.166L44.5674 61.2598L44.2041 61.166L41.6846 60.5215L41.4971 60.4746L41.3447 60.3926L39.3408 59.3027L37.3838 59.1621L37.2314 59.1504L37.1025 59.1152L34.6064 58.4355L34.3721 58.3652L34.1729 58.2363L32.1455 56.9121L32.708 56.0449L32.8721 55.6113L33.4111 54.2168L33.5049 54.252Z" fill="black"/>
<path d="M58.749 39.4321L61.21 40.4517L61.3506 40.5103L61.4795 40.604L63.4717 41.9751L62.71 43.0649V43.2173L62.6396 44.7173L62.5342 44.7056L62.1123 44.6938L61.7607 44.4478L59.8857 43.147L57.9053 42.3267L56.2061 42.4438L54.999 43.6509L54.9756 43.6626L54.9521 43.686L54.7529 43.8735L53.7451 42.7603L52.7373 41.6587L52.9014 41.5063L54.5068 39.9243L54.9053 39.5259L55.4561 39.4907L58.0693 39.3149L58.4209 39.2915L58.749 39.4321Z" fill="black"/>
<path d="M67.2393 30.2241L67.3564 30.5522L67.8369 31.9819L67.7432 32.0054L67.5557 32.0757L67.3564 32.0874L65.1182 32.2046L63.1377 33.1069L61.4619 34.5015L60.8994 34.9585L60.1846 34.8062L59.3525 34.6187L59.6807 33.1538L59.8213 32.4976L59.5635 32.1812L59.9736 31.8296L60.0088 31.689L60.126 31.7124L61.4033 30.6577L61.5557 30.5405L61.7432 30.4585L64.1221 29.3687L64.3799 29.2515L64.6494 29.2397L67.1807 29.0874L67.2393 30.2241Z" fill="black"/>
<path d="M38.8164 31.5552L41.1719 32.4106L41.4297 32.5044L41.6289 32.6685L43.3281 34.1099L45.5078 34.813L45.9648 34.9536L46.2461 35.3403L47.6992 37.2739L46.6914 38.0005L46.5859 38.2231L45.8711 39.5356L45.7773 39.4888L45.4961 39.3364L45.2969 39.0669L44.125 37.5083L42.1094 36.8638L41.8281 36.77L41.6055 36.5825L39.9062 35.1411L38.1016 34.4849L36.1914 34.6724L34.457 35.7271L33.6367 36.6997L31.7734 38.8677L31.0469 36.1021L31 35.938L32.3477 35.5747L31.3633 34.7427L32.3242 33.6177L32.4766 33.4302L32.6875 33.313L34.9141 31.9419L35.2188 31.7544L35.5586 31.731L38.1602 31.4731L38.5 31.438L38.8164 31.5552Z" fill="black"/>
<path d="M79.8379 84.3115L79.8848 84.3701L81.2559 84.499L81.0566 86.7842L80.998 87.4756L80.4238 87.874L78.7012 89.0928L78.3496 89.3506L77.9043 89.3623L75.3379 89.4795L74.7637 89.5029L74.3184 89.1396L74.1191 88.9756L75.0684 87.8154L75.2441 87.5928L75.1973 86.4795L77.3301 86.3857L78.127 85.8232L78.2676 84.2412L78.3262 83.5615L78.877 83.1631L78.959 83.1045L79.8379 84.3115Z" fill="black"/>
<path d="M11.582 62.2729L11.6758 62.3081L13.0938 62.8003L13.0586 62.894L12.8359 63.5503L12.1914 63.7964L10.1758 64.5698L8.83984 65.7886L8.61719 67.5464L9.14453 69.4331L10.5391 71.3198L10.6094 71.4136L10.8203 71.7651L9.55469 72.562L8.27734 73.3472L8.125 73.1011L6.57812 71.0034L6.41406 70.7925L6.34375 70.5229L5.64062 68.0737L5.55859 67.7808L5.60547 67.4761L5.93359 64.8511L6.01562 64.3003L6.42578 63.9253L8.38281 62.1558L8.59375 61.98L8.85156 61.8745L11.1016 60.9956L11.582 62.2729Z" fill="black"/>
<path d="M76.1631 40.8647L76.2451 40.9819L76.3154 41.1226L77.3467 43.396L77.4404 43.6069L77.4639 43.8413L77.6748 45.6226L77.8389 47.0171L76.4678 47.2749L76.374 47.2866L76.1045 45.8101L76.0928 45.7983L74.6982 45.9741L74.5107 44.4038L73.6553 42.5288L72.2842 40.6187L72.1787 40.478L72.1201 40.3257L72.0732 40.2319L73.4561 39.646L73.8545 39.4819L74.71 38.8608L76.1631 40.8647Z" fill="black"/>
<path d="M21.3018 67.7578L23.9385 67.8398H24.1377L24.3252 67.8984L26.8682 68.6602H26.8799L26.8916 68.6719L29.2939 69.4219L29.083 70.043L28.9424 70.875L28.6611 72.3516L28.5557 72.3281L28.4736 72.3164L28.3916 72.2812L25.9893 71.5312V71.5195L23.6807 70.8281L21.29 70.7578L19.9658 70.8398L18.3604 70.9453L18.3721 69.3281V69.1406L19.8604 69.1523L19.7783 67.8516L21.1611 67.7695L21.2314 67.7578H21.3018Z" fill="black"/>
<path d="M43.1924 44.4453L43.4971 44.6328L43.6846 44.9375L45.0791 47.1992L45.1025 47.2461L45.1377 47.3047L46.3096 49.625L46.9189 50.8438L45.7705 51.5703L45.6768 51.6289L44.8799 50.3516L44.8682 50.3281L43.626 50.9727L42.4541 48.6641V48.6523L41.3291 46.8242L39.5127 45.7109L39.2666 45.5703L39.1025 45.3477L39.0439 45.2656L40.2275 44.3516L40.4268 44.1992L41.0713 43.1562L43.1924 44.4453Z" fill="black"/>
<path d="M22.8994 79.5073L22.9463 79.6479L23.9775 80.48L22.4658 82.3315L21.9971 82.9058L21.2588 82.894L18.8682 82.812L17.626 82.8472L15.6338 82.894L16.1377 80.9722L16.1611 80.8784L17.5908 81.2534L17.5557 79.8472L18.8096 79.8237L18.8447 79.812L18.8916 79.8237L20.6025 79.8706L21.6455 78.5933L21.9268 78.2534L22.3369 78.1128L22.4307 78.0894L22.8994 79.5073Z" fill="black"/>
<path d="M90.3477 76.9116L92.5039 77.8491L92.5859 77.8843L92.6562 77.9194L94.5078 78.9858L96.5352 78.7515L96.7344 78.728L96.9336 78.7515L97.0273 78.7749L96.8164 80.2515L96.7578 80.6265L96.8984 81.728L94.3789 82.0327L93.875 82.0913L93.4414 81.8452L91.2617 80.5796L89.5508 79.8296L87.3359 80.1694L87.2891 80.1812H87.2305L85.25 80.3452L85.1328 78.8452V78.8569L83.75 79.4312L82.9531 77.521L85.0039 77.3569L86.9023 77.2046L89.5156 76.8062L89.9492 76.7358L90.3477 76.9116Z" fill="black"/>
<path d="M74.9043 86.6489L74.9863 86.7544L76.252 87.1646L75.5371 89.4146L75.4082 89.8481L75.0449 90.1294L73.0293 91.7349L72.7246 91.981L72.3379 92.0396L69.8066 92.438L67.7441 92.7661L68.0957 90.7036L68.1074 90.6216L69.5605 90.856L69.3379 89.4731L71.4707 89.1333L72.8066 88.0669L73.4043 86.2505L73.5332 85.8169L73.8965 85.5356L73.9785 85.4771L74.9043 86.6489Z" fill="black"/>
<path d="M50.459 81.9487L50.7637 82.0894L50.9863 82.3472L52.3457 83.9644L53.9746 84.8901L56.1543 84.6558L56.6816 84.5972L57.127 84.8901L59.0723 86.144L60.0215 86.355L59.7168 87.8198L59.4004 89.2847L58.1934 89.0269L57.9238 88.9683L57.6895 88.8159L55.9551 87.6909L53.834 87.9253L53.3535 87.9839L52.9316 87.7378L50.6348 86.4487L50.4004 86.3081L50.2246 86.1089L48.6895 84.2808L49.6621 83.4722L49.7441 83.2729L50.3652 81.9136L50.459 81.9487Z" fill="black"/>
<path d="M39.4453 60.9033L39.9727 60.9971L40.3242 61.3955L41.4375 62.6729L42.5156 62.7666L42.7383 62.4385L43.0781 61.8994L43.6875 61.7705L43.7695 61.7471L44.0977 63.2119L44.1094 63.2939L45.2812 64.0322L44.5781 65.1455L44.0977 65.9307L43.1719 65.8486L40.5703 65.6143L39.9727 65.5557L39.5742 65.0986L38.0625 63.3643L39.082 62.4854L39.0938 62.3682L39.3516 60.8916L39.4453 60.9033Z" fill="black"/>
<path d="M97.4365 56.8789L97.7061 56.9375L97.5654 57.4531L97.6123 57.6289L97.624 57.6758L98.9717 58.0508L98.7607 58.7773L98.374 60.2188L96.9326 59.832L96.0771 59.5977L95.749 59.6562L93.2295 59.9961L94.1553 57.6172L94.1904 57.5352L95.5381 58.0625L95.3506 56.6797L95.9717 56.5977L96.2646 56.5508L96.3115 56.3867L97.1904 56.1875L97.2959 56.1641L97.4365 56.8789Z" fill="black"/>
<path d="M63.1865 110.967L63.2803 111.037L63.3506 111.131L64.8389 112.889L66.0459 114.26L66.7139 114.318L68.3311 114.436L68.085 116.041L68.0615 116.123L66.585 115.9L66.4795 117.307L65.2256 117.201L64.6162 117.154L64.2178 116.709L62.5889 114.881L62.5771 114.869L62.5654 114.846L61.1475 113.17L61.1592 113.158L61.0654 113.064L61.7217 112.514L62.1318 112.033L63.1162 110.896L63.1865 110.967Z" fill="black"/>
<path d="M60.001 47.6963L60.3877 47.9424L61.3486 48.3174L60.5283 50.4736L60.4463 50.708L60.2822 50.9072L58.7236 52.7354L57.9736 53.7432L56.4854 55.7236L55.4307 53.4854L55.3838 53.4033L56.708 52.7705L55.583 51.9385L56.333 50.9424L56.3799 50.8721L57.8096 49.1729L58.5479 47.251L58.6064 47.0986L58.6885 46.9697L58.7471 46.8877L60.001 47.6963Z" fill="black"/>
<path d="M20.5859 58.478L20.8906 58.6187L22.0508 59.1812L23.2227 58.9937L23.4336 58.9585L23.6562 58.9819L23.7617 59.0054L23.5508 60.4819L23.4922 60.8218L23.6797 61.9585L22.0508 62.2046L21.6055 62.2749L19.918 61.478L19.3906 61.4897L18.1836 61.5015L17.9141 60.3296L17.8906 60.2358L19.3555 59.896L19.3672 59.8843V58.4897L20.2344 58.478H20.5859Z" fill="black"/>
<path d="M53.1084 37.1177L53.7178 37.3638L53.9521 37.9731L54.6201 39.731L55.1709 40.3989L56.2021 41.6646L54.8545 42.5903L54.7842 42.6372L53.9404 41.395L52.8506 42.2974L52.1592 41.4419L52.0068 41.2661L51.9248 41.0435L51.374 39.6489L50.1553 39.1685L49.8271 39.0396L49.5928 38.77L49.5225 38.6997L50.6475 37.7036L50.7881 37.5747L51.2686 36.3794L53.1084 37.1177Z" fill="black"/>
<path d="M31.6045 67.502L32.2959 68.1465L33.374 69.1777L33.3037 69.2598L33.1982 69.3652L31.7451 70.5957L31.71 70.6309L31.6631 70.666L30.6084 71.416L30.585 71.7207L30.4561 73.0918H29.0029V71.5801L27.5967 71.4512L27.6904 70.4785L27.749 69.7988L28.2998 69.4004L29.8936 68.2402L31.2529 67.0801L31.6045 67.502Z" fill="black"/>
<path d="M39.0654 61.5508L39.1123 61.5977H39.2061L39.1943 61.6445L39.4639 61.8086L39.1006 62.3477L39.0068 63.0625L39.5225 63.1328L39.5107 63.2148L38.9951 63.1445L38.96 63.3906L39.3936 63.7422L39.1826 63.9883L38.8428 64.3867V64.5625L38.8076 64.5508V64.5742L38.7139 64.5508L35.9131 67.9844L36.5342 62.8633L36.5459 62.7695L37.9053 62.9453L36.8623 62.0898L37.0615 61.8438L37.9287 60.7773L39.0654 61.5508Z" fill="black"/>
<path d="M111.312 114.289L112.355 114.547L111.652 117.453L110.891 117.266L108.547 117.629L108.453 117.652H108.359L105.723 117.723H105.582L103.051 117.301L100.672 117.734L100.438 117.781L100.203 117.746L97.6367 117.406H95.2344L92.5977 117.629L92.4922 117.641L92.3984 117.629L89.75 117.477V117.465L87.2773 117.348L84.7812 117.734L84.582 117.77L84.3945 117.746L81.8516 117.453L79.2969 117.477L79.2852 117.465L76.7773 117.711L76.6133 117.723L76.4492 117.699L73.918 117.383L71.3867 117.43H71.3281L68.6914 117.371H68.6445L66.1719 117.23L63.7109 117.699L63.4766 117.746L63.2305 117.711L60.7227 117.348L58.2383 117.488H58.0156L55.5898 117.242L53.1406 117.676L52.8828 117.723L52.6133 117.676L50.1172 117.242L47.6914 117.395H47.668L47.6445 117.406L42.3711 117.57H42.2539L42.1367 117.559L39.5938 117.254L37.1328 117.418L37.0508 117.43L36.957 117.418L34.5078 117.277L32 117.699L31.7891 117.734L31.5781 117.711L29.0234 117.395L26.5391 117.324L23.9492 117.512L23.8906 117.523H23.832L21.1953 117.512H21.0781L18.5 117.301L16.0508 117.395L16.0625 117.406L13.4258 117.664L13.2734 117.676L13.1211 117.664L10.625 117.395L8.16406 117.5H8V114.5H8.03516L10.5781 114.395L10.6836 114.383L10.8008 114.395L13.2852 114.664L15.7695 114.418H15.8633L18.5 114.312L18.5938 114.301L18.6758 114.312L21.3125 114.512L21.3008 114.523H23.7383L26.375 114.336L26.4453 114.324L26.5273 114.336L29.1641 114.406H29.2344L29.293 114.418L31.7305 114.699L34.1562 114.301L34.3203 114.277L34.4844 114.289L37.0156 114.43L39.582 114.254L39.7227 114.242L39.8633 114.266L42.3711 114.57L44.9141 114.488L47.5039 114.418V114.406L50.1523 114.242L50.3281 114.23L50.5039 114.266L52.8828 114.688L55.2617 114.266L55.4609 114.23L55.6602 114.242L58.1328 114.488L60.7227 114.348L60.8633 114.336L61.0156 114.359L63.418 114.711L65.8086 114.266L65.9844 114.23L66.1602 114.242L68.7969 114.371L68.7852 114.383L71.3633 114.43L73.9766 114.383H74.082L74.1875 114.395L76.6836 114.711L79.1445 114.477H79.2734L81.9102 114.453H82.0039L82.0859 114.465L84.5469 114.746L86.9727 114.371L87.125 114.348L87.2773 114.359L89.9141 114.488H89.9258L92.4453 114.641L95 114.43L95.0586 114.418H95.1055L97.7539 114.406H97.8594L97.9648 114.418L100.367 114.746L102.77 114.312L103.027 114.266L103.285 114.301L105.816 114.723L108.137 114.664L110.738 114.266L111.031 114.219L111.312 114.289Z" fill="black"/>
</svg>
