<svg width="120" height="120" viewBox="0 0 120 120" fill="none" xmlns="http://www.w3.org/2000/svg">
<path d="M59.4375 8.35938L62.0742 8.58203L62.0977 8.59375H62.1211L64.7461 8.91016H64.793L64.8281 8.92188L67.418 9.39062L67.4766 9.40234L67.5234 9.41406L70.0664 10.082H70.0898L70.1016 10.0938L72.6328 10.8086L72.7148 10.832L72.8086 10.8672L75.2227 11.8867L75.3047 11.9102L75.3633 11.957L77.6016 13.1641L79.9805 14.2188L80.0742 14.2656L80.1562 14.3125L82.418 15.6953L82.5352 15.7656L82.6406 15.8477L84.6211 17.6055L84.6445 17.6289L84.668 17.6406L86.5781 19.4688L86.625 19.5156L88.4531 21.4375L88.5 21.4844L88.5352 21.5312L90.1992 23.5938L90.2812 23.6992L90.3516 23.8164L91.5703 26.0547L93.0469 28.1523L93.1289 28.2695L93.1875 28.3867L94.3008 30.7891L94.3125 30.8242L94.3242 30.8477L95.3203 33.2969L95.3555 33.3672L95.3672 33.4258L96.1289 35.957L96.1641 36.0508L96.1758 36.1445L96.4434 37.8018L96.4961 37.8711L96.5664 38.0938L97.3516 40.4609L97.2295 40.5L97.418 41.043L97.5117 41.3594L97.4883 41.6758L97.2305 44.207L97.2422 44.5H97.7695L97.4883 46.1641L97.5117 48.625V48.8008L97.4766 48.9648L96.9492 51.3672L96.7148 54.0039V54.1094L96.6914 54.2031L96.1172 56.793L96.0938 56.9336L96.0352 57.0625L94.9805 59.5L92.8945 64.3516L92.8359 64.4805L92.7656 64.5859L91.3242 66.8008L91.2539 66.9062L91.1719 67L89.4727 68.8398L88.1953 71.0078L88.0898 71.1953L87.9258 71.3359L86.874 72.3105L85.9912 74.3906L85.3516 76.8535L85.3125 76.999L85.2461 77.1357L84.0996 79.4795L83.124 81.791L82.4121 84.2529L82.3965 84.3066L82.377 84.3584L81.459 86.834L81.4395 86.8867L81.416 86.9375L80.3428 89.2783L79.5332 91.6367L78.9131 94.1553L78.8623 94.3604L78.7568 94.5439L77.5049 96.7236L76.7568 99.0889L76.7305 99.1738L76.6943 99.2539L75.666 101.531L75.3701 102.79L76.7344 103.262L77.8828 103.66L77.7422 104.867L77.4258 107.375L77.5078 109.906L77.6016 112.508L77.7324 114.61L79.1445 114.477H79.2734L81.9102 114.453H82.0039L82.0859 114.465L84.5469 114.746L86.9727 114.371L87.125 114.348L87.2773 114.359L89.9141 114.488H89.9258L92.4453 114.641L95 114.43L95.0586 114.418H95.1055L97.7539 114.406H97.8594L97.9648 114.418L100.367 114.746L102.77 114.312L103.027 114.266L103.285 114.301L105.816 114.723L108.137 114.664L110.738 114.266L111.031 114.219L111.312 114.289L112.355 114.547L111.652 117.453L110.891 117.266L108.547 117.629L108.453 117.652H108.359L105.723 117.723H105.582L103.051 117.301L100.672 117.734L100.438 117.781L100.203 117.746L97.6367 117.406H95.2344L92.5977 117.629L92.4922 117.641L92.3984 117.629L89.75 117.477V117.465L87.2773 117.348L84.7812 117.734L84.582 117.77L84.3945 117.746L81.8516 117.453L79.2969 117.477L79.2852 117.465L76.7773 117.711L76.6133 117.723L76.4492 117.699L73.918 117.383L73.752 117.386L71.7422 117.734L71.543 117.77L71.3438 117.758L69.291 117.555L69.0625 117.57L66.4141 117.746L66.2734 117.758L66.1328 117.734L64.5361 117.541L63.7109 117.699L63.4766 117.746L63.2305 117.711L62.1533 117.555L61.1953 117.734L61.0195 117.77L60.8438 117.758L58.207 117.629V117.617L58.1357 117.615L55.8555 117.758L55.6797 117.77L55.5039 117.734L54.6523 117.587L53.5215 117.607L53.1406 117.676L52.8828 117.723L52.6133 117.676L50.5947 117.325L50.3086 117.289L47.8594 117.523H47.7305L45.0938 117.547L43.4766 117.559L43.4775 117.535L42.3711 117.57H42.2539L42.1367 117.559L39.5938 117.254L37.1328 117.418L37.0508 117.43L36.957 117.418L34.5078 117.277L32 117.699L31.7891 117.734L31.5781 117.711L29.0234 117.395L26.5391 117.324L23.9492 117.512L23.8906 117.523H23.832L21.1953 117.512H21.0781L18.5 117.301L16.0508 117.395L16.0625 117.406L13.4258 117.664L13.2734 117.676L13.1211 117.664L10.625 117.395L8.16406 117.5H8V114.5H8.03516L10.5781 114.395L10.6836 114.383L10.8008 114.395L13.2852 114.664L15.7695 114.418H15.8633L18.5 114.312L18.5938 114.301L18.6758 114.312L21.3125 114.512L21.3008 114.523H23.7383L26.375 114.336L26.4453 114.324L26.5273 114.336L29.1641 114.406H29.2344L29.293 114.418L31.7305 114.699L34.1562 114.301L34.3203 114.277L34.4844 114.289L37.0156 114.43L39.582 114.254L39.7227 114.242L39.8633 114.266L42.3711 114.57L43.6836 114.527L43.7578 113.504L43.3711 111.02L43.3477 110.879L43.3594 110.727L43.4883 108.09V108.078L43.6406 105.582L43.4414 104.211L43.1953 102.5H44.5615L44.334 101.531L43.3057 99.2539L43.2695 99.1738L43.2432 99.0889L42.4951 96.7236L41.2432 94.5439L41.1377 94.3604L41.0869 94.1553L40.4668 91.6367L39.6572 89.2783L38.584 86.9375L38.5605 86.8867L38.541 86.834L37.623 84.3584L37.6035 84.3066L37.5879 84.2529L36.876 81.791L35.9004 79.4795L34.7539 77.1357L34.6875 76.999L34.6484 76.8535L34.0088 74.3906L33.0586 72.1533L33.0459 72.123L33 72L33.0557 71.9785L31.9102 70.9492L31.8281 70.8789L31.7578 70.7969L30.0703 68.7578L29.9648 68.6289L29.8945 68.4883L28.9688 66.6934L28.5586 66.5742L28.6758 66.1924L27.1172 64.4102L26.9062 64.1641L26.8125 63.8711L26.0391 61.4219L25.043 59.1484L23.8359 56.7578L23.7539 56.6055L23.707 56.4414L23.0742 53.8633L23.0391 53.6992V53.5352L22.9805 51.0039L22.582 48.4492L22.5586 48.2617L22.4883 45.625L22.4766 45.543L22.4883 45.4727L22.6875 42.8359V42.7891L22.6992 42.7305L23.0625 40.1289L23.0742 40.0703L23.0859 40L23.6836 37.4336L24.0117 34.9375L24.0469 34.75L24.1172 34.5742L25.0898 32.1953L25.9688 29.6875L26.0391 29.5L26.1562 29.3359L27.6562 27.1328L28.9453 24.9531L28.9922 24.8828L29.0273 24.8242L30.5977 22.7031L30.6094 22.6797L30.6211 22.668L32.2383 20.582L32.3086 20.4883L32.3789 20.418L34.2891 18.5781L34.3242 18.5312L34.3711 18.4961L36.3984 16.8086L36.4336 16.7734L36.4688 16.75L38.6016 15.1914L38.625 15.1797L38.6367 15.168L40.8164 13.6562L40.8633 13.6328L40.9102 13.5977L43.1953 12.2617L43.2773 12.2148L43.3477 12.1797L45.7734 11.1133L45.8906 11.0664L48.3984 10.1992L48.5273 10.1641L48.6445 10.1406L51.1758 9.74219V9.73047L53.7305 9.14453L56.3086 8.53516L56.4375 8.51172L56.5664 8.5L59.2148 8.34766H59.3203L59.4375 8.35938ZM60.9492 105.512L60.8906 105.523H60.832L58.9492 105.515L57.4258 105.664L57.2734 105.676L57.1211 105.664L54.625 105.395L53.5352 105.441L53.6992 106.273L53.7461 106.52L53.7109 106.777L53.3477 109.273L53.4883 111.758V111.98L53.2891 113.891L53.8281 114.395L54.1846 114.456L55.2617 114.266L55.4609 114.23L55.6602 114.242L58.1328 114.488L60.7227 114.348L60.8633 114.336L61.0156 114.359L61.8701 114.483L62.375 114.468L63.2812 114.301L63.5273 114.254L63.7734 114.289L64.8604 114.441L65.8086 114.266L65.9844 114.23L66.1602 114.242L67.6191 114.313L67.7031 113.445L67.3047 111.008L67.2695 110.797L67.293 110.586L67.5977 108.031L67.6445 106.039L67.2012 105.54L66.9697 105.512H65.0781L63.1396 105.353L60.9492 105.512ZM46.6289 105.43L46.6406 105.453L46.6289 105.605L46.4766 108.242L46.3477 110.703L46.7344 113.223L46.7578 113.375L46.6816 114.439L47.5039 114.418V114.406L50.1523 114.242L50.252 114.235L50.4883 111.84L50.3477 109.285L50.3359 109.133L50.3594 108.992L50.6992 106.59L50.5234 105.654L50.4258 105.664L50.2734 105.676L50.1211 105.664L47.625 105.395L46.6289 105.43ZM70.6719 105.417L70.668 105.523L70.5977 108.16V108.23L70.5859 108.301L70.293 110.727L70.6914 113.152L70.7266 113.352L70.7148 113.539L70.6299 114.416L71.3633 114.43L73.4551 114.392L73.7812 114.336L74.6836 114.09L74.6016 112.695V112.648L74.5195 110.012L74.4258 107.375V107.258L74.4375 107.141L74.6133 105.699L73.7227 105.395L71.5078 105.277L70.6719 105.417ZM81.5977 76.5625L79.5117 78.0391L79.4648 78.0742L79.418 78.0977L77.1562 79.4688L77.1211 79.4805L77.0977 79.4922L74.7539 80.7578L74.5547 80.875L74.3203 80.9219L71.8828 81.3672L69.668 82.4805L69.4336 82.5859L69.1875 82.6211L66.6445 82.9141L64.0547 83.4297L63.8555 83.4766L63.6445 83.4531L62.0547 83.333L62.1084 84.5752L62.1123 84.6865L62.1016 84.7969L61.8389 87.2871L62.0811 89.7754L62.085 89.8174L62.0869 89.8594L62.1934 92.5L62.1963 92.5879L62.1895 92.6768L61.9883 95.2559L61.9795 97.7891L62.166 100.373L62.1709 100.447L62.1689 100.522L62.1182 102.327L62.5 102.312L62.5938 102.301L62.6758 102.312L63.1738 102.35L63.375 102.336L63.4453 102.324L63.5273 102.336L66.1641 102.406H66.2344L66.293 102.418L67.207 102.523H68.5L68.6504 102.689L68.7305 102.699L71.1562 102.301L71.3203 102.277L71.4844 102.289L72.3945 102.337L72.7773 100.706L72.8115 100.564L72.8711 100.432L73.9248 98.1006L74.6934 95.665L74.7422 95.5098L74.8232 95.3691L76.0498 93.2334L76.6338 90.8564L76.6504 90.792L76.6719 90.7285L77.5293 88.2305L77.5537 88.1592L77.584 88.0918L78.666 85.7373L79.5479 83.3623L80.2646 80.877L80.29 80.791L80.3232 80.71L81.3496 78.2754L81.3662 78.2363L81.3848 78.1982L82.4268 76.0723L81.5977 76.5625ZM38.6152 78.1982L38.6338 78.2363L38.6504 78.2754L39.6768 80.71L39.71 80.791L39.7354 80.877L40.4521 83.3623L41.334 85.7373L42.416 88.0918L42.4463 88.1592L42.4707 88.2305L43.3281 90.7285L43.3496 90.792L43.3662 90.8564L43.9502 93.2334L45.1768 95.3691L45.2578 95.5098L45.3066 95.665L46.0752 98.1006L47.1289 100.432L47.1885 100.564L47.2227 100.706L47.6172 102.39L47.6836 102.383L47.8008 102.395L49.9492 102.627L49.9258 102.5H51.9414L52.7695 102.418H52.8633L55.5 102.312L55.5938 102.301L55.6758 102.312L58.3125 102.512L58.3008 102.523H58.7051L59.1113 102.482L59.167 100.516L58.9834 97.9473L58.9795 97.8916V97.835L58.9893 95.1943V95.1396L58.9932 95.084L59.1914 92.5283L59.0898 90.0215L58.8389 87.4248L58.8242 87.2734L58.8398 87.123L59.1055 84.5928L59.0645 83.6475L58.7227 83.7109L58.5 83.7461L58.2656 83.7227L55.6289 83.3711H55.5703L52.957 82.9141L52.9336 82.9023H52.9102L50.3203 82.3516L50.1562 82.3164L50.0156 82.2578L47.6602 81.2031L45.2461 80.5L45.1289 80.4648L45.0234 80.418L42.6328 79.293L42.5039 79.2344L42.3867 79.1523L40.3594 77.6641L38.0859 76.5859L37.8984 76.4922L37.7461 76.3633L37.6914 76.3164L38.6152 78.1982ZM55.0898 61.5938L55.1016 61.6055L52.4766 61.8281L49.9336 62.168L49.7812 62.1914L49.6172 62.1797L47.2383 61.9805L44.9414 62.6953L44.7773 62.7539L44.6016 62.7656L42.082 62.918L39.668 63.5391L39.5625 63.5742L39.457 63.5859L37.0781 63.832L35.0273 64.9805L34.8867 65.0508L32.7656 65.9414L32.2344 66.4912L32.4609 66.9297L34.0078 68.8047L35.8828 70.4922L35.918 70.5156L35.9531 70.5508L37.793 72.4258L39.5508 73.9492L41.7773 75.0156L41.9062 75.0742L42.0234 75.168L44.0508 76.6445L46.1953 77.6523L48.6211 78.3555L48.7266 78.3906L48.8203 78.4258L51.1172 79.457L53.5312 79.9609H53.5195L56.0859 80.4062H56.0742L58.418 80.7109L60.8438 80.2773L61.0312 80.2422L61.2188 80.2656L63.6562 80.4414L66.0703 79.9727H66.1289L66.1875 79.9609L68.543 79.668L70.7344 78.6016L70.9219 78.5078L71.1328 78.4609L73.5117 78.0039L75.668 76.8555L77.7891 75.5664L79.9336 74.0664L79.9922 74.0312L80.0391 74.0078L82.1484 72.7422L83.9414 70.9492L85.7109 69.2969L86.9766 67.1758L87.0586 67.0352L87.1641 66.9297L87.6777 66.3652L87.457 66.0469L85.7227 64.8516L83.4492 64.2891L80.8711 63.7148L80.7773 63.6914L78.3047 62.9648L75.9258 62.5547L73.3242 62.4023H73.2773L73.2188 62.3906L70.6055 62.0508L70.5586 62.0391H70.5117L68.0977 61.5586L65.6953 61.8281L65.5547 61.8398L65.4023 61.8281L62.8477 61.6055L60.3398 61.7461L60.2227 61.7578L60.0938 61.7344L57.5391 61.4414L55.0898 61.5938ZM52.9844 31.0156L52.8086 31.0508H50.1016L47.6406 31.4727L47.5117 31.4961H47.3945L45.0039 31.5078L42.7539 32.3867L42.6133 32.4336L42.4609 32.457L39.9297 32.8789L37.4102 33.5234L35.0547 34.3438L35.0078 34.3672L34.9492 34.3789L32.6055 34.9883L30.5898 36.2539L30.6016 36.2656L28.5039 37.7422L26.9688 39.0898L26.6289 41.1875L26.4766 42.0547L25.7852 42.3047L25.6641 43.1641L25.4766 45.6953L25.5469 48.0391L25.9453 50.6055L25.9688 50.793L26.0273 53.3008L26.5781 55.5391L27.7148 57.7891L27.7383 57.8242L27.75 57.8594L28.8164 60.2617L28.8516 60.332L28.875 60.4141L29.5781 62.6641L30.6201 63.8623L30.832 63.6445L31.043 63.4219L31.3242 63.3047L33.6445 62.3086L35.918 61.0547L36.1875 60.9141L36.4922 60.8789L39.0117 60.6094L41.4844 59.9766L41.625 59.9414H41.7656L44.25 59.7773L46.6172 59.0391L46.8984 58.957L47.1797 58.9805L49.6992 59.1914L52.1484 58.8398H52.1953L52.2305 58.8281L54.8555 58.6172H54.8906L57.5273 58.4531L57.6562 58.4414L57.7852 58.4531L60.2812 58.7461L62.8242 58.6055H62.9297L63.0352 58.6172L65.4961 58.8281L68.0273 58.5586L68.2617 58.5352L68.4844 58.5703L71.0977 59.0859L71.0859 59.0977L73.5352 59.4258L76.1484 59.5664L76.3125 59.5898L78.9141 60.0234L79.0781 60.0703L81.5742 60.7969L84.0938 61.3594H84.1172L84.1406 61.3711L86.707 62.0156L86.9766 62.0742L87.1992 62.2266L89.3789 63.7266L89.6016 63.8789L89.6191 63.9043L90.1875 63.0391L91.1836 60.7305L92.2266 58.3164L93.2109 56.0312L93.7266 53.6875L93.9609 51.1094V51.0156L93.9844 50.9219L94.5 48.4961V47.5H94.3477L94.2891 46.0586L94.2305 44.2656L94.2188 44.1602L94.2305 44.0547L94.4648 41.7109L93.7031 39.4844L93.668 39.3672L93.6445 39.2383L93.6074 39.0098L92.5469 37.5547L90.6484 36.4766L88.2578 35.3633H88.2344L88.2227 35.3516L85.9727 34.2148L83.6172 33.4414L81.1445 32.9492H81.0977L81.0625 32.9375L78.5078 32.2812L78.4727 32.2695L78.4258 32.2578L76.1172 31.543L73.6797 31.5664H73.5508L73.4102 31.543L70.9258 31.1094L68.3828 31.0508H68.2656L68.1484 31.0273L65.6523 30.5469H63.1914L60.625 30.582L60.6367 30.5938L58 30.793L57.8477 30.8047L57.6836 30.7812L55.293 30.4531L52.9844 31.0156ZM56.8711 11.4883L54.4102 12.0625V12.0742L51.8438 12.6602L51.7969 12.6719H51.75L49.207 13.082L46.9219 13.8789L44.6836 14.8633L42.4688 16.1523L40.3711 17.5938L40.3828 17.6055L38.25 19.1641L36.375 20.7344L34.5234 22.5156L32.9883 24.5078L31.4531 26.6055L30.1875 28.75L30.1641 28.7969L30.1289 28.8438L28.7344 30.8477L27.9258 33.1797L27.9141 33.2266L27.9023 33.2617L27.1758 35.0098L28.8789 33.8164L28.9023 33.793L28.9375 33.7695L31.1875 32.3398L31.3867 32.2227L31.6094 32.1641L34.0703 31.5078L36.5547 30.6523L36.625 30.6289L36.6836 30.6055L39.25 29.9727L39.2969 29.9609L39.3555 29.9492L41.8281 29.5156L44.1719 28.625L44.4297 28.5195H44.6992L47.2422 28.5078L49.7266 28.0625L49.8555 28.0391L49.9961 28.0508H52.4688L54.8828 27.4648L55.1641 27.4062L55.4453 27.4414L57.918 27.793L60.4141 27.6055H60.4609L60.4961 27.5938L63.1445 27.5469H63.1797L65.8164 27.5586H65.957L66.0859 27.582L68.582 28.0625L71.1016 28.1211H71.207L71.3242 28.1445L73.7734 28.5664L76.3164 28.543L76.5625 28.5312L76.7852 28.6016L79.2812 29.375L81.707 30.0078H81.7188L84.3203 30.5234L84.4141 30.5352L84.5078 30.5703L87.1094 31.4375L87.2031 31.4844L89.5117 32.6445H89.5234L91.9141 33.7578L91.9609 33.7812L92.0195 33.8164L92.3721 34.0146L91.5469 31.9844V31.9727L90.5273 29.793L89.0742 27.7305L89.0273 27.6602L88.9805 27.5781L87.7617 25.3398L86.2852 23.5117L84.5039 21.6367L82.5938 19.8203V19.8086L80.7773 18.2031L78.6914 16.9375L76.3477 15.9062L76.2891 15.8711L76.2305 15.8477L74.0039 14.6289L71.6953 13.6562L69.3164 12.9766V12.9883L66.8203 12.332L64.3242 11.875L61.7695 11.5703V11.5586L59.25 11.3477L56.8711 11.4883Z" fill="black"/>
</svg>
