<svg xmlns="http://www.w3.org/2000/svg" width="120" height="120" fill="none" viewBox="0 0 120 120"><path fill="#000" d="m61.972 4.484 1.687 2.028 1.723 1.945.129.14.082.165 1.183 2.285 1.43 2.144.023.047.036.047 1.277 2.309.047.094 1.031 2.261 1.488 2.086.164.235.07.28.61 2.52.903 2.356.07.187.011.2.247 2.566.609 2.437.094.34-.082.34-.551 2.473-.176 2.554-.012.082-.011.07-.469 2.602v.047l-.012.035-.62 2.567-.036.152-.07.14-1.078 2.286-.704 2.437-.023.094-.047.082-.984 2.285-.446 2.45-.035.187-.094.188-1.078 2.238-.82 2.32-.562 2.59v.035l-.012.024-.668 2.554v.035l-.012.024-.726 2.437-.34 2.426-.07 2.567v.105l-.024.106-.445 2.437.105 2.402v.106l-.012.117-.011.094-1.488-.164-.633-.07-.856.034-.105-2.542v-.165l.023-.164.446-2.507.081-2.532v-.082l.012-.082.352-2.613.023-.129.035-.105.762-2.543.645-2.496.539-2.532.023-.093.035-.082.867-2.496.024-.083.035-.07 1.066-2.25.457-2.402.024-.176.07-.152 1.02-2.38.703-2.402.035-.117.047-.105 1.066-2.297.563-2.309.469-2.59.175-2.46v-.106l.024-.105.492-2.286-.55-2.25-.024-.105-.012-.117-.246-2.438-.844-2.261-.035-.082-.023-.094-.575-2.32-1.37-1.946-.083-.105-.058-.13-1.055-2.296-1.219-2.203-1.453-2.203-.047-.059-.035-.07-1.172-2.227-1.605-1.816-.035-.035-1.125-1.348-.692.129-.926 1.734-.07.13-.082.105-1.652 2.027.011.012-1.558 1.968-1.195 2.239-.024.047-1.336 2.273-.07.117-1.406 1.957-.575 2.309-.058.21-.106.177-1.254 2.132-.62 2.168v2.508l-.071 2.602v.058l-.152 2.426.55 2.39h-.011l.61 2.497h.01l.68 2.508.762 2.53v.013l.715 2.437 1.102 2.262.058.129.703 2.578.985 2.379.058.14.035.153.493 2.566.797 2.356.011.035v.035l.727 2.52.738 2.542.035.106.012.105.375 2.625v.082l.234 2.625v.059l.13 2.613.116 1.887.106 1.594H56.71v-1.5l-1.383.093-.129-1.875v-.035l-.117-2.566-.223-2.555-.363-2.531-.703-2.426v-.012l-.727-2.543v-.011l-.808-2.426-.035-.094-.024-.093-.48-2.497-.95-2.273-.035-.094-.023-.082-.68-2.472-1.078-2.227-.058-.105-.036-.13-.738-2.519-.762-2.531v-.012l-.011-.023-.692-2.555-.011-.012v-.023l-.633-2.567v-.011l-.586-2.59-.047-.211.012-.211.152-2.66.07-2.555.012-2.625v-.2l.059-.198.715-2.567.058-.187.094-.164 1.242-2.11.61-2.402.07-.27.164-.234 1.476-2.074 1.336-2.25 1.23-2.297.06-.105.081-.106 1.63-2.086.011-.012 1.57-1.968 1.207-2.215.328-.621.704-.14 2.261-.446.88-.164zM29.317 40.405l2.649.188.14.011.13.036 2.542.668h.024l.023.011 2.531.75.176.059.153.082 2.296 1.324.188.106.14.152 1.758 1.84 2.04 1.465.28.21.165.305 1.23 2.297 1.407 2.133 1.535 2.098.093.129.07.152 1.067 2.437.059.13.035.152.55 2.53.891 2.333.035.07.012.07.68 2.555.023.059.012.07.457 2.59.012.035v.047l.34 2.613v.047l.011.059.13 2.496.398 1.722.41 1.805-1.864.024h-.152l-.012-1.477-1.312.305-.422-1.84-.023-.117v-.13l-.141-2.519-.328-2.543-.434-2.472-.656-2.461-.914-2.414-.07-.211-.54-2.485-.937-2.132-1.477-2.016-.023-.023-.023-.036-1.442-2.191-.07-.117-1.09-2.063-1.898-1.36-.106-.081-.105-.094-1.676-1.77-1.945-1.113-2.38-.715v-.011l-2.367-.61-2.19-.164-2.274.739-.059.011-.059.024-2.331.527-1.946 1.113-1.758 1.723-.023.023-.035.024-1.805 1.605-1.16 1.97-.926 2.26-.539 2.18.434 2.344.023.094v.105l.094 2.368.95 2.133.995 2.12 1.805 1.547.117.106.105.129 1.442 1.898 1.91 1.102 2.203.785 1.875.152.457-.316-.363-1.559-.047-.222.012-.223.176-2.59v-.129l.035-.14.644-2.567.164-.644.586-.305 2.344-1.266.223-.129.246-.035 2.554-.41.2-.035.21.023 2.579.293.316.036.27.164 2.285 1.324.222.129.164.199 1.7 1.992.047.059.035.047 1.5 2.144.047.07.047.082 1.253 2.344.13.235.035.27.363 2.624v.012l.34 2.508-1.078.14-.376.153-1.394.55-.035-.093-.07-.164-.024-.188-.34-2.508-.328-2.367-1.102-2.05-1.347-1.922-1.524-1.805-1.77-1.032-2.097-.246-2.097.34-1.524.82-.457 1.782-.14 2.285.55 2.32.246.996-.855.586-1.746 1.196-.434.304-.539-.047-2.613-.21-.2-.012-.175-.07-2.496-.891-.13-.047-.116-.07-2.32-1.336-.258-.153-.176-.234-1.512-1.98-1.945-1.676-.246-.211-.13-.281-1.148-2.414v-.024l-.011-.012-1.078-2.425-.118-.258-.011-.293-.094-2.567-.469-2.52-.059-.316.082-.304.633-2.602.024-.105.047-.106 1.007-2.46.036-.094.058-.094 1.336-2.285.117-.211.176-.153 1.98-1.77 1.84-1.78.141-.141.164-.094 2.285-1.312.2-.117.21-.047 2.532-.586 2.449-.785.27-.094z"/><path fill="#000" d="m62.269 73.339 2.46.363 2.473-.14h.024l2.601-.094h.117l.106.011 2.543.305 2.355-.129.106-.011.117.011 2.613.27.469.047.363.316 1.805 1.559.316.27.13.398.796 2.484.129.41-.106.41-.632 2.567-.106.386-.27.293-1.71 1.77-.492.504-.704-.059-2.425-.187-2.438.492-.281.047-.281-.047-2.414-.457-2.332.27-.082.011h-.094l-2.531-.012-2.579.188-.199.012-.199-.035-2.332-.47-2.32.481-.282.059-.27-.047-2.19-.387-2.274.692-.41.129-.399-.106-2.437-.633-2.473-.058v-.012l-2.496.188-.164.011-.164-.023-2.59-.399-.75-.117-.351-.68L38.878 82l-.152-.281-.012-.328-.129-2.614-.012-.199.035-.176.528-2.59.175-.855.833-.27 2.484-.796.117-.035.117-.024 2.543-.375.2 1.336.082.059.164.105v-.094l-.059-1.5.68-.035.187-.012.176.036 2.262.468 2.402-.328.14-.011h.13l2.507.128 2.438-.257.234-.024.235.047 2.285.492 2.261-.504.258-.07zM45.85 76.42l-2.426.351-1.524.493-.328 1.558.117 2.086.645 1.219 1.664.258 2.461-.164.082-.012.07.012 2.637.07h.176l.164.047 2.168.55 2.226-.656.34-.105.34.058 2.285.387 2.637-.527.293.058 2.414.47 2.39-.177h2.672l2.438-.27.223-.022.222.046 2.356.422 2.379-.457.199-.035.2.012 1.921.14.938-.96.433-1.758-.539-1.688-1.113-.972-2.004-.2-2.426.117-.129.012-.129-.023-2.484-.293-2.508.093-.012-.011-2.59.14-.14.012-.153-.023-2.343-.34-2.309.516-.316.081-.317-.07-2.379-.515-2.332.246-.117.011h-.105l-2.461-.129-2.484.34-.247.035-.246-.046-2.332-.48z"/><path fill="#000" d="m51.805 84.4.175.093 1.278.094-.176 2.566-.023.246-.094.235-1.031 2.426v.023l-.012.023-1.09 2.391-.105.234-.176.188-1.852 1.922-.21.223-.27.117-2.45 1.066-.093.047-.106.023-2.543.692-.047.011-.035.012-2.601.551-.106.023h-.117l-1.254.07-.082-1.5-.082-1.487 1.078-.07 2.532-.528 2.331-.633 2.098-.926 1.453-1.511.973-2.122.926-2.203.164-2.308.023-.34.164-.293.047-.082zm17.967-.473.035.27.328 2.448.422 2.274 1.254 1.746 1.78 1.582 1.9 1.254 2.144.668 2.449.187.152.012.141.047 1.148.328-.82 2.883-1.031-.305-2.45-.175-.175-.012-.153-.059-2.519-.785-.211-.059-.176-.128-2.18-1.442-.093-.058-.07-.07-1.946-1.735-.117-.106-.094-.128-1.558-2.157-.2-.27-.058-.327-.492-2.614v-.035l-.012-.035-.34-2.52 1.23-.175.212-.117 1.312-.715zm-13.226.474.047.094 1.3.082-.175 2.813-.059.187-.773 2.332-.246 2.531-.024.282-.14.258-1.16 2.226-.622 2.402v.012l-.656 2.297.117 2.379.282 2.355 1.007 2.203v.012l.012.024.95 2.25 1.558 1.875.082.105.07.117 1.114 1.992.855.586.902-.961 1.453-2.003 1.336-2.098.75-2.215.422-2.484.012-.071.023-.082.668-2.414.059-2.308v-.176l.035-.164.024-.094 1.464.363.434.106 1.031.023-.047 2.555-.011.187-.047.176-.692 2.461-.433 2.555-.024.117-.035.117-.855 2.508-.059.176-.094.152-1.43 2.238-.023.047-.023.036-1.559 2.132-.058.071-.059.058-1.84 1.981-.879.937-1.054-.715-2.203-1.5-.305-.199-.164-.305-1.242-2.191-1.618-1.957-.14-.176-.094-.199-1.008-2.414-1.09-2.426-.093-.211-.036-.234-.304-2.649-.012-.046v-.047l-.129-2.625-.012-.246.07-.235.704-2.543.668-2.531.035-.164.082-.152 1.09-2.121.246-2.38.012-.163.058-.153.739-2.332.164-2.426.046-.82.715-.398.153-.094z"/><path fill="#000" d="m81.104 96.614 1.335.691-.21.41-.06.117-.081.106-1.606 2.086-.164.211-.234.152-2.203 1.383-.153.094-.175.058-2.438.809-.21.059-.212.011-2.648.094-.352.012-.316-.141-2.426-1.09-.094-.047-2.238-1.183.598-1.102.011-.234.106-1.5.105.012.317.023.281.152 2.238 1.184h-.011l2.015.89 2.11-.07 2.039-.668 1.828-1.148 1.36-1.746.163-.317z"/><path fill="#000" d="m64.846 84.177.011.082.012.094.258 2.52v.07l.129 2.437.808 2.285.903 2.484.023.07.739 2.462.843 1.804-1.347.621.726 1.325h-.023l-1.406.773-.669-1.453-.902-1.934-.047-.093-.035-.106-.726-2.45-.903-2.483v-.012l-.879-2.508-.07-.2-.012-.21-.14-2.59-.258-2.52.644-.07.832-.176 1.465-.316zM39.535 94.881l.469.223.223.48.972 2.051 1.336 1.43 1.934.387 2.367-.059 2.508-.246 2.332-.715.27.867.292.492.762 1.29-.117.07-.153.094-.164.047-2.52.785-.151.047-.153.011-2.625.246h-.094l-2.601.082-.176.012-.176-.035-2.601-.527-.469-.094-2.133-2.285-.152-.164-.106-.211-1.09-2.285 1.22-.575.046-.117.656-1.347zM88.45 40.566l2.625.152-.011.012 2.66.105.34.012.292.152 2.368 1.243.07.047 2.262 1.335.047.024.046.035 2.18 1.523.234.165.153.234 1.488 2.215.024.047 1.382 2.226.082.14.059.153.855 2.473.059.152.023.164.305 2.508.469 2.637.07.375-.129.375-.879 2.484.012.012-.82 2.496-.082.246-.153.2-1.593 2.085-1.36 2.145-.199.328-.34.187-2.297 1.254-2.074 1.442-.117.07-.117.059-2.403 1.078-.14.07-.152.035-2.579.563-.937.21-.586-.773-.914-1.207-.375-.492.082-.61.328-2.578V66.23l-1.137-1.723-1.406-1.394-1.828-.422-2.063.504-1.968 1.078-1.735 1.488-1.136 1.91-.809 2.38-.023.046-.856 2.238-.07 2.309-.012.258-.105.246-.036.094-1.394-.563-.258-.105-1.195-.035.082-2.555.011-.246.094-.235.938-2.472.832-2.45.058-.152.082-.14 1.36-2.286.129-.21.187-.153 2.016-1.734.117-.106.14-.082 2.31-1.254.163-.093.188-.047 2.59-.633.351-.082.34.082 2.613.598.41.093 2.145 2.145.117.105.082.14L91.474 65l.246.364-.012.445v2.777l-.012.094-.257 1.992 1.44-.304 2.134-.961 2.062-1.418.059-.035.07-.035 1.992-1.114 1.231-1.933.035-.047.047-.059 1.429-1.887.75-2.25v-.011l.75-2.168-.398-2.25-.012-.035v-.036l-.316-2.46-.75-2.133-1.289-2.086v-.012l-1.3-1.934-1.946-1.359v-.012l-2.168-1.265v-.012l-1.992-1.043-2.344-.105h-.024l-2.496-.141-2.273.281-2.11.996-2.18 1.301-.01-.012-1.97 1.207-1.3 1.97-.106.14-.129.129-1.816 1.664-1.184 1.933-.867 2.39-.023.071-.024.059-1.113 2.379-.024.058-.035.047-1.207 2.11-.656 2.414-.691 2.543-.012-.012-.633 2.555-.434 2.39-.27 2.403.317 1.933.27 1.7-1.711.046h-.152l-.047-1.476-1.325.21-.34-2.097-.034-.2.316-2.847.012-.047v-.047l.457-2.601.011-.059.012-.047.656-2.566v-.012l.012-.012.691-2.542.692-2.555.047-.188.094-.164 1.324-2.32.996-2.145.914-2.507.047-.141.082-.129 1.383-2.262.117-.175.152-.141 1.84-1.723 1.383-2.062.175-.282.293-.164 2.286-1.394h.011l2.262-1.336.117-.07 2.403-1.125.21-.106.247-.023 2.625-.328.14-.024z"/></svg>