<svg width="120" height="120" viewBox="0 0 120 120" fill="none" xmlns="http://www.w3.org/2000/svg">
<path d="M61.1367 15.8555L61.3359 15.8672L61.5234 15.9258L64.0312 16.6875L64.1719 16.7344L64.3125 16.8047L66.6094 18.082L66.6797 18.1172L66.75 18.1641L68.918 19.7109V19.7227L70.5352 20.8828L72.5625 20.7422L72.8086 20.7188L73.0547 20.7891L75.5859 21.4688L75.8789 21.5391L76.1133 21.7266L78.2344 23.3555L78.4922 23.543L78.6445 23.8242L79.7812 25.9336L78.6094 26.5547L78.5508 26.6953L78.209 27.3955L78.3145 27.6211L78.2207 27.668L78.0332 27.7559L77.8945 28.043L77.8008 27.9961L77.4531 27.8271L75.3379 28.043L73.0176 28.5117L71.002 29.4961L69.3027 30.9727L67.9551 32.6719L67.5801 34.7344L67.7793 36.8906L68.5879 39.0938L69.7949 41.3086L69.8184 41.3672L69.8535 41.4258L70.8965 43.8516L70.9082 43.8633L71.0293 44.1465L71.666 43.6406L73.4824 41.8711L73.541 41.8125L73.5996 41.7656L75.6504 40.1367L77.7246 38.4961L77.7832 38.4492L77.8535 38.4023L80.1035 37.0078L80.1621 36.9609L80.2324 36.9258L82.541 35.7891L84.8496 34.5117H84.873L84.8848 34.5L87.0996 33.3398L89.1855 31.8398V31.8281L91.3301 30.2812L93.1816 28.7227L94.9277 26.8477L94.9863 26.7773L95.0566 26.7305L96.8965 25.1367L98.3145 23.25L99.4395 20.9648L100.342 18.5977L101.045 16.4766L101.08 16.3594L101.186 16.1484L102.51 16.8633L103.014 17.1328L103.893 17.4258L103.79 17.7324L104.045 17.5693L105.357 19.6436L105.428 19.749L105.486 19.8779L106.482 22.3037L106.506 22.374L106.529 22.4326L107.303 24.9756L107.338 25.1045L107.35 25.2334L107.654 27.8701L107.666 28.0576L107.643 28.2451L107.291 30.8701L107.104 33.4131L107.092 33.5771L107.057 33.7295L106.295 36.2725L106.271 36.3779L106.213 36.4834L105.088 38.874L105.076 38.9209L105.041 38.9678L103.764 41.2881L103.682 41.4287L103.576 41.5459L101.83 43.5498L101.818 43.5732L101.795 43.5967L100.555 44.8994L100.818 44.8105L102.904 43.5684L104.896 42.0098L106.83 40.3105L108.576 38.7754L108.623 38.7285L108.682 38.6816L108.764 38.623L109.643 39.8418L110.229 40.6504L110.557 41.0254L110.364 41.1934L110.68 41.1748L110.855 43.5654L110.867 43.7061L110.855 43.8467L110.551 46.4717L110.527 46.6123L109.965 49.2021L109.93 49.3428L109.883 49.4717L108.828 51.9092L108.758 52.085L108.641 52.2373L107.035 54.335L105.629 56.4561L105.547 56.5732L105.441 56.6787L103.578 58.5654L103.508 58.6357L103.426 58.6943L101.316 60.2998L101.281 60.3232L101.258 60.3467L99.0664 61.8467L98.9492 61.9287L98.8203 61.9873L96.3945 63.042L96.3828 63.0537H96.3711L94.6758 63.7676L95.1484 63.7559L97.6445 63.2871L100.035 62.6074L100.246 62.5488L100.469 62.5605L102.54 62.5898L103.053 61.8252L103.1 61.7549L103.158 61.6846L103.229 61.6143L104.365 62.5869L104.998 63.126L105.549 63.501L104.201 65.5049L103.158 67.6377L103.088 67.79L102.982 67.9189L101.318 69.9814L101.225 70.0986L101.107 70.1924L99.0566 71.8799L98.9043 72.0088L98.7285 72.0908L96.3145 73.1924L96.3027 73.1807L94.0645 74.3877L93.9355 74.458L93.7949 74.4932L91.2637 75.2666L91.1816 75.3018L91.0879 75.3135L88.4746 75.7705L88.4395 75.7822H88.3926L85.7559 76.0869L85.6035 76.0986L85.4512 76.0869L82.8145 75.8643V75.8525L80.2129 75.7002H80.1895L77.5996 75.501L75.1855 75.583L72.7949 76.0869L70.5566 76.6963L68.7051 77.8447L67.3574 79.3682L67.0879 80.458L68.0371 81.9229L69.9004 83.5518L69.9355 83.5869L71.8691 85.415L72.0801 85.6025L72.1973 85.8604L73.3457 88.2627L73.3691 88.3096L74.4238 90.7236L74.5176 90.9463L74.541 91.2041L74.7637 93.8291V93.8525L74.7754 93.8643L74.9277 96.5361L74.9512 96.8877L74.8105 97.2158L73.791 99.5596L72.959 102.044L72.9121 102.185L72.8301 102.325L71.5059 104.599L71.4473 104.692L71.377 104.786L69.7129 106.825L69.5957 106.966L69.4434 107.083L67.4512 108.571L67.416 108.595L67.3926 108.618L66.4551 109.239L65.623 107.997L64.7793 106.755L65.5703 106.22L65.5293 106.025L65.5059 105.896L65.4941 105.768L65.4121 103.143L65.4004 103.061L65.4121 102.979L65.5879 100.553L65.1191 98.2676L64.2871 96.0527L63.5225 94.5156L63.4258 95.1289L63.4023 95.293L63.3438 95.4453L62.3828 97.918L62.3711 97.9062L61.5977 100.344L61.5508 100.508L61.457 100.648L60.0977 102.922L60.0273 103.039L59.9336 103.145L58.1875 105.137L58.1289 105.207L58.0586 105.266L56.0781 107.035L55.7969 107.281L55.4336 107.375L52.8906 107.984L52.7295 108.022L52.2422 108.667L52.1484 108.784L52.0312 108.878L51.7617 109.124L50.7656 107.999L49.7812 106.862L49.9219 106.733L51.3047 104.917L51.9375 102.784L52.6406 100.347L52.7812 98.0967L52.3008 95.7529L52.2891 95.7412V95.7295L51.8086 93.2686L50.8242 91.1357L49.5938 88.8037L49.5469 88.6982L49.5117 88.6045L48.7852 86.5859L48.5469 87.8818L48.5586 87.8936L48.1719 90.4951L48.1367 90.6709L48.0781 90.835L47.0938 93.2842L47.0703 93.3311L46.0039 95.7451L45.8516 96.085L45.5586 96.3076L43.7422 97.7373L42.8281 99.1201L42.3828 99.7764H41.5156V98.2295L40.332 97.4443L41.1562 96.2158L40.916 94.6777V94.666L40.377 92.2988L39.4629 89.9082L39.4512 89.873L39.4395 89.8496L38.6074 87.3535L38.5723 87.2715L38.5488 87.1777L38.0215 84.5762L37.9629 84.2832L38.0215 83.9902L38.5254 81.377L38.5371 81.3535V81.3184L39.1465 78.7637L39.1699 78.6816L39.1934 78.5879L40.1074 76.127L40.1191 76.0918L40.1221 76.0859L38.459 76.2744H38.4121L38.3652 76.2861L35.7285 76.4033H35.6348L35.5527 76.3916L32.916 76.2158V76.2041L30.3613 76.1689H30.2559L30.1504 76.1455L27.5605 75.7236L27.4902 75.7119L27.4316 75.7002L24.877 75.0557H24.8652L22.2988 74.376L22.0762 74.3174L21.8887 74.2002L19.627 72.7939V72.7822H19.6152L17.4004 71.376L17.3066 71.3057L15.1973 69.7119L15.1035 69.6416L15.0215 69.5596L13.1816 67.6611L12.9004 67.3799L12.8066 66.9932L12.1504 64.5439L12.1611 64.54L11.6816 64.3359V64.3242L11.0957 64.1016L12.1738 61.3125L12.8066 61.5586H12.8418L12.8652 61.5703L14.9277 62.4609L17.3418 62.8359L17.5293 62.8828L19.9668 63.5977L22.1309 63.7861L21.7305 63.5869L19.3516 62.4502L19.2578 62.4033L19.1641 62.3447L16.9961 60.9033L14.7695 59.5205L14.6758 59.4619L14.582 59.3799L12.5898 57.6689L12.4961 57.5752L10.6562 55.6885L10.6328 55.665L10.6094 55.6299L8.86328 53.6377L8.6875 53.4502L8.59375 53.2158L7.58594 50.7549V50.7432L7.57422 50.7314L6.63672 48.2822L6.625 48.2354L6.60156 48.1885L5.81641 45.6689L5.78125 45.5635L5.76953 45.458L5.34766 42.7979L5.3125 42.6104L5.33594 42.4111L5.60547 40.0088L6.80078 40.1377L7.07031 40.0791L8.53516 39.7627L8.55859 39.8682L8.58887 40.0205L10.5488 41.4326L12.7637 42.8857H12.752L14.9785 44.0693L16.0371 44.6328L15.4395 44.084L15.3926 44.0488L15.3574 44.002L13.541 42.0684L13.4473 41.9746L13.377 41.8691L11.9238 39.6426L11.8301 39.502L11.7715 39.3379L10.8691 36.8418V36.8301L9.84961 34.5215L9.7793 34.3691L9.75586 34.2051L9.24023 31.6035L9.2168 31.4863V31.3691L9.11133 28.7207V28.6035L9.2168 25.9551L9.22852 25.7793L9.27539 25.6035L10.002 23.0488L10.0137 23.0137L10.0254 22.9668L10.8809 20.4707L10.9395 20.3066L11.0332 20.1543L12.4043 17.9863L13.3418 16.5215L14.6543 17.6582L16.2129 18.9941L16.4004 19.1582L16.5176 19.3809L17.8301 21.6309L19.1309 23.7637L20.6777 25.6973L22.3535 27.4668L24.3457 29.1309L24.4043 29.1777L24.4512 29.2246L26.1738 30.9707L28.2832 32.248L30.5684 33.3613L30.6973 33.4316L30.8145 33.5137L32.8535 35.0371L35.0684 36.1152L35.1855 36.1855L37.3066 37.4746L39.709 38.5176L39.9668 38.623L40.166 38.834L41.9941 40.6387L44.0215 42.1504L44.1152 42.2207L44.1973 42.3027L46.0371 44.1777L46.084 44.2246L46.1191 44.2715L47.3496 45.7246L47.7715 44.377L48.1582 42.1035L47.8184 39.666L47.7832 39.4082L47.8301 39.1621L48.3574 36.5488L48.6152 34.4629L48.6055 34.4443L47.4375 34.6943L47.3438 34.7178L47.25 34.7295L44.6133 34.9404L44.2852 34.9756L43.9805 34.8584L41.707 34.0264L39.3281 33.5342L39.5391 32.5498V30.5693L39.6328 30.5576H39.7969L39.9492 30.5928L42.29 31.085L42.7168 30.5527L42.8926 30.3184L43.1504 30.1777L44.7637 29.2617L43.8008 29.1768L43.5664 29.1533L43.3438 29.0596L40.8945 28.0049L40.8711 27.9932L40.8359 27.9814L38.4805 26.8213L38.3984 26.7861L38.3281 26.7275L36.1133 25.2861L35.8438 25.1104L35.668 24.8408L34.543 23.0596L32.7734 22.1104L32.6914 22.0752L32.6211 22.0283L32.5391 21.9697L33.3945 20.7275L33.8633 20.0479L34.1797 19.4619L36.1973 20.543L38.3906 20.4492L38.5312 20.4375L38.6836 20.4609L41.2383 20.8594L43.6406 20.8711L45.9492 20.5898L48.1758 19.6172L50.3438 18.3633H50.3555L52.6523 17.0508L52.7578 16.9922L52.875 16.9453L55.3477 16.0312L55.5469 15.9609L55.7695 15.9375L58.3828 15.7734H58.5234L61.1367 15.8555ZM56.168 18.9141L54.0234 19.7109L51.8438 20.9531L49.582 22.2773L49.5 22.3242L49.4297 22.3594L46.9922 23.4258L46.793 23.5078L46.5703 23.543L43.9219 23.8711L43.8164 23.8828H43.7227L41.0625 23.8594L40.957 23.8477L40.8398 23.8359L38.9199 23.5303L39.8867 24.1611L42.0898 25.251L44.293 26.2002L46.7188 26.4229H46.707L48.9219 26.54L50.2109 26.3643L51.9805 26.1064L51.9219 27.8994L51.9102 27.9697L50.4219 27.9229L50.6328 29.3291L49.2148 29.54L49.0625 29.5518H48.9102L48.7051 29.5391L48.8574 29.6973L47.1582 31.3145L47.0176 31.4434L46.8652 31.5371L46.4199 31.7842L46.9453 31.7412L48.9492 31.2959L49.2773 30.9678L50.7471 32.4209L50.9121 32.3418L51.1426 32.8125L51.4102 33.0771L51.3174 33.1689L51.5098 33.5605L51.709 33.9707L51.6504 34.416L51.3223 37.041L51.3105 37.0879L51.2988 37.1465L50.8184 39.502L51.1699 41.9043L51.2051 42.1387L51.1582 42.373L50.7246 44.9863L50.7012 45.0918L50.6777 45.1855L49.916 47.6348L49.5996 48.6426L48.5449 48.6895L46.7168 48.7598L45.9902 48.7832L45.5098 48.2207L43.8926 46.2754L42.0996 44.4473L40.1191 42.9941L39.9551 42.8535L38.2559 41.1543L36.0762 40.2285L35.9707 40.1816L35.8887 40.123L33.627 38.752V38.7402L31.377 37.6621L31.248 37.5918L31.1309 37.5098L29.0801 35.9746L26.8652 34.8965L26.8066 34.8613L26.7598 34.8262L24.4863 33.4668L24.3223 33.3613L24.1934 33.2324L22.3418 31.3574L20.4082 29.752L20.3379 29.6934L20.2793 29.623L18.4629 27.7129L18.3809 27.6309L16.7402 25.5801L16.6816 25.5098L16.6348 25.4277L15.2637 23.1895V23.1777L15.252 23.166L14.0566 21.1035L13.998 21.0566L13.6582 21.6074L12.8613 23.9395L12.2051 26.2363L12.1113 28.7207L12.2051 31.123L12.6504 33.4434L13.6582 35.7285L13.6816 35.7754L13.6934 35.8223L14.5254 38.1309L15.8145 40.1113L17.4551 41.8691L19.4004 43.6387L19.5996 43.8262L19.7285 44.0723L20.877 46.3457L20.791 46.3877L21.8691 46.6943L21.998 46.7295L22.1152 46.7881L24.4121 47.8896L26.3457 48.6982L27.6699 49.2607L27.1777 50.6084L27.1543 50.6787L25.748 50.1514L25.7363 50.1396L25.1855 51.4756L23.252 50.667L23.2168 50.6436L23.1816 50.6318L20.9434 49.542L18.6699 48.9092L18.5996 48.8857L16.1152 48.0537L15.998 48.0186L15.8809 47.96L13.5605 46.7178L11.2285 45.4639L11.1113 45.3936L8.89648 43.9404L8.87305 43.917L8.84961 43.9053L8.51855 43.6689L8.72266 44.9307L9.4375 47.2041L10.3633 49.6182L11.2656 51.833L12.8125 53.6025L14.6289 55.4658L16.457 57.0361L18.5898 58.3721L18.6016 58.3838L18.625 58.3955L20.6992 59.7666L23.0195 60.8799H23.0312L23.043 60.8916L25.3984 62.0635L25.5625 62.1572L25.7031 62.2744L26.5811 63.0371L26.998 62.9297L27.2793 62.8477L27.5605 62.8828L29.9863 63.1758H29.998L30.0801 63.1875L29.998 63.8789V64.6758L30.0098 66.1758H29.9043L29.8105 66.1875L29.7168 66.1758L27.4902 65.8945L25.2637 66.4805L25.1582 66.5156L25.041 66.5273L22.4512 66.8086L22.2988 66.8203L22.1465 66.8086L19.5098 66.5742L19.3691 66.5508L19.2285 66.5156L16.7207 65.7773L15.5342 65.5889L15.5957 65.8213L17.084 67.3799L19.0176 68.8447L21.209 70.2393L23.2832 71.5283L25.627 72.1494H25.6152L28.0996 72.7705L30.4902 73.1689L33.0566 73.2158H33.127L35.6934 73.3916L38.2246 73.2861L40.7441 72.9932L40.8965 72.9814L41.0371 72.9932L41.4336 73.0264L41.4668 72.9512L42.1465 72.752L44.5957 72.0488L44.959 73.373L45.0527 73.4082L46.3652 74.1348L46.3184 74.2168L46.0254 74.7676L45.4277 74.9316L43.6582 75.4355L42.8965 77.2402L42.0527 79.502L41.4668 82.0098L41.0098 84.2598L41.4551 86.4512L42.2637 88.8301L43.2129 91.291L43.2598 91.3965L43.2832 91.502L43.7227 93.4639L44.3281 92.124L45.207 89.8857L45.5938 87.4365V87.4131L45.6055 87.3896L46.0742 84.7998L46.1328 84.4834L46.3086 84.2256L47.7266 82.1514L48.5586 80.124L49.9883 80.5928L51.4062 81.0732L51.3711 81.167L51.3594 81.2139L51.3359 81.2607L50.751 82.6904L50.7773 82.7334L50.7891 82.8037L51.4453 85.0889L52.3008 87.5264L53.4844 89.7412L53.4961 89.7764L53.5195 89.8115L54.6211 92.2139L54.7031 92.3779L54.7383 92.5537L55.2305 95.1318L55.7695 97.71L55.8164 97.9209L55.8047 98.1318L55.6172 100.769L55.6055 100.933L55.5586 101.085L54.8203 103.628L54.8086 103.64L54.6113 104.309L55.9844 103.074L57.5781 101.27L58.7852 99.2539L59.5586 96.9102L59.5703 96.8633L59.582 96.8281L60.4844 94.4844L60.8359 92.2227L60.8242 90.1719L59.8164 88.1328L59.793 88.0859L59.7695 88.0273L58.8086 85.6836L58.7383 85.4961L58.7148 85.2852L58.7031 85.1914L60.1914 85.0156L60.5312 84.9805L61.5859 84.5469L62.5 86.7969L63.6602 89.1523L63.8125 89.457L63.8242 89.7969L63.8291 90.4053L64.0527 90.2168L65.6113 92.0566L65.7285 92.1973L65.8105 92.3613L66.9824 94.7168L67.0059 94.7871L67.041 94.8457L67.9785 97.3184L68.0254 97.4355L68.0488 97.5527L68.5762 100.154L68.623 100.365L68.6113 100.564L68.4121 103.049L68.4287 103.635L68.998 102.935L70.1582 100.942L70.9434 98.6104L70.9551 98.5518L70.9902 98.4932L71.9043 96.3721L71.7754 94.0869L71.5645 91.708L70.6152 89.5049V89.4932L69.6074 87.3955L67.873 85.7666V85.7549L65.9277 84.0674L65.7754 83.9268L65.6699 83.7627L64.2168 81.5479L63.8535 80.9971L64.002 80.4111L63.748 80.2266L63.3379 79.9453L63.1855 79.4648L62.3887 76.9922L62.3535 76.875L62.3301 76.7461L61.9434 74.1328L61.8965 73.8164L61.9785 73.5117L62.6816 70.9805L62.6934 70.957V70.9336L63.4785 68.4258L63.5254 68.2617L63.6191 68.1094L64.9668 65.8125L65.0488 65.6602L65.1777 65.543L66.8652 63.7617L67.9902 61.7109L68.998 59.3906L69.7012 56.9766L70.1348 54.6094L69.9707 52.2539L69.4902 49.7695L69.4785 49.7344V49.7109L69.0918 47.2617L68.1426 45.0352V45.0234L67.0996 42.6211H67.0879L65.8926 40.418L65.8457 40.3242L65.8105 40.2188L64.9082 37.7695L64.8379 37.582L64.8145 37.3828L64.5801 34.7812L64.5684 34.582L64.6035 34.3945L65.0723 31.7812L65.1426 31.4062L65.377 31.1016L67.0293 29.0273L67.1113 28.9219L67.2168 28.8398L69.1621 27.1289L69.3145 27L69.4902 26.918L71.8457 25.7461L72.0215 25.6641L72.209 25.6172L74.8105 25.0898L74.8926 25.0781L74.9629 25.0664L75.4639 25.0137L74.5078 24.2812L72.5273 23.7422L70.207 23.9297L69.668 23.9648L69.2227 23.6484L67.1602 22.1484V22.1367L65.0977 20.6719L62.9648 19.5L60.8438 18.8438L58.5234 18.7734L56.168 18.9141ZM102.193 22.1602L102.17 22.2188L102.135 22.2891L100.975 24.668L100.916 24.7852L100.834 24.9023L99.252 27.0234L99.1465 27.1641L99.0293 27.2695L97.0605 28.957L95.3496 30.8203L95.2793 30.9023L95.1973 30.9609L93.1699 32.6484L93.1348 32.6836L93.0879 32.7188L90.9434 34.2656L88.8105 35.8242L88.623 35.9414L86.2676 37.1602L86.2559 37.1484L83.9941 38.4141L83.959 38.4375L83.9238 38.4492L81.627 39.5742L79.541 40.875L77.5137 42.4922L75.5098 44.0742L73.7051 45.8555L73.6465 45.9023L73.5879 45.9609L72.1084 47.123L72.4316 49.1953L72.9355 51.7734L72.959 51.8672V51.9609L73.1348 54.6094L73.1465 54.7969L73.123 54.9844L72.6426 57.5977L72.6309 57.6797L72.6074 57.75L71.8691 60.3047L71.8457 60.3984L71.8105 60.4922L70.7441 62.918L70.7207 62.9766L70.6855 63.0352L69.4199 65.3672L69.3262 65.543L69.1855 65.6953L67.4512 67.4883L66.2793 69.4688L65.5645 71.8242L64.9551 74.0156L65.2598 76.1367L65.5205 76.9336L66.6309 75.6885L66.7832 75.5244L66.9707 75.4072L69.1621 74.0479L69.3379 73.9424L69.5488 73.8838L72.0449 73.1807L72.1387 73.1572L74.7168 72.6182L74.8457 72.5947H74.9746L77.623 72.501H77.7871L80.4238 72.7119H80.4121L83.0371 72.8643H83.0488L83.0723 72.876L85.5332 73.0752L87.9707 72.8057L90.4785 72.3721L92.8223 71.6455L94.9902 70.4971L95.0254 70.4736L95.0723 70.4619L97.2637 69.4541L99.0684 67.9775L100.545 66.1494L100.841 65.5518L100.656 65.5488L98.3242 66.2051L98.2539 66.2285L98.1836 66.2402L95.582 66.7207L95.4766 66.7441H95.3594L92.6992 66.8145L92.3828 66.8262L92.0898 66.709L89.9805 65.8418L87.8008 66.2168L87.6602 66.2402H87.5078L86.125 66.1934L84.4492 66.123L84.6953 64.4707L84.707 64.377L86.1953 64.5879L86.2422 63.1934L87.4727 63.2402L89.9102 62.8301L89.9961 62.8154L90.3242 62.6436L92.6445 61.3779L92.7031 61.3428L92.7734 61.3193L95.2109 60.2881L97.4727 59.292L99.5 57.9092L101.457 56.4209L103.215 54.6514L104.586 52.6006L104.621 52.5537L104.645 52.5186L106.133 50.5615L107.07 48.3818L107.574 46.0381L107.855 43.6709L107.837 43.4189L106.818 44.3184L106.783 44.3535L106.748 44.377L104.662 46.0059L104.498 46.123L102.225 47.4707L102.096 47.541L101.943 47.5996L99.4473 48.4551L99.3652 48.4902L99.2715 48.502L97.0098 48.9824L94.9238 50.166L94.8535 50.2012L94.7832 50.2246L92.3574 51.2793L92.2285 51.3379L92.0879 51.373L91.1738 51.5723L90.5176 48.6426L91.3145 48.4668L93.4238 47.541L95.7119 46.2754L95.7012 45.999L96.0527 45.5654L97.7285 43.5264L97.7637 43.4912L97.7988 43.4443L99.6035 41.5459L101.221 39.6709L102.381 37.5967L103.447 35.3115L104.127 33.0264L104.314 30.5537V30.5186L104.326 30.4717L104.643 28.0107L104.385 25.6904L103.67 23.3584L102.756 21.1553L102.645 20.9785L102.193 22.1602ZM64.5449 23.6699L64.542 23.7871L63.0771 23.7764L63.4795 25.1104L62.9014 25.2842L62.6416 25.3604L62.3604 25.3418L61.167 25.2666L60.8271 25.2471L60.5264 25.0752L59.5781 24.5488L60.165 23.4961L60.2188 23.2158L60.5117 21.7461L60.6162 21.7598L60.8496 21.8125L61.0469 21.9229L61.6943 22.3018L62.2793 22.3389L62.6094 22.2412L64.5459 21.6543L64.5449 23.6699Z" fill="black"/>
</svg>
