<svg xmlns="http://www.w3.org/2000/svg" width="120" height="120" fill="none" viewBox="0 0 120 120"><path fill="#000" d="M8.1 116v1.5h.032l.033-.001zm2.54-.109.157-1.492-.11-.012-.111.005zm2.64.278-.157 1.491.15.016.152-.014zm2.64-.257-.06-1.499-.043.002-.042.004zm2.64-.106.116-1.496-.088-.007-.088.004zm2.64.205-.116 1.496.055.004h.056zm2.64.009-.005 1.5h.056l.056-.004zm2.64-.189.042-1.5-.075-.002-.074.005zm2.64.074.176-1.49-.066-.007-.068-.002zm2.64.312-.176 1.49.21.025.21-.034zm2.64-.433.08-1.498-.163-.009-.16.026zm2.64.139-.08 1.498.09.005.088-.006zm2.64-.172.182-1.489-.14-.017-.14.009zm2.64.322-.182 1.489.115.014.116-.004zm2.64-.087-.048-1.499h-.001zm2.64-.085.048 1.5.023-.001.022-.002zm2.64-.164.261-1.477-.176-.031-.178.011zm2.64.467-.261 1.477.26.046.26-.045zm2.64-.463.14-1.494-.2-.019-.2.035zm2.64.249-.14 1.493.11.01.11-.006zm2.64-.143.213-1.485-.146-.021-.148.008zm2.64.378-.213 1.485.244.035.243-.045zm2.64-.49.078-1.498-.177-.009-.175.032zm2.64.138-.078 1.498.023.001.023.001zm2.64.057-.032 1.499.028.001.029-.001zm2.64-.044.185-1.489-.105-.013-.105.002zm2.64.328-.185 1.488.16.02.162-.014zm2.64-.241-.011-1.5h-.063l-.062.006zm2.64-.021.169-1.49-.09-.01h-.09zm2.64.299-.169 1.491.197.022.195-.029zm2.64-.397.073-1.498-.148-.007-.148.022zm2.64.13.085-1.498h-.012zm2.64.151-.086 1.497.104.006.103-.008zm2.64-.214-.01-1.5-.056.001-.055.004zm2.64-.018.202-1.486-.106-.014h-.106zm2.64.358-.202 1.487.236.032.233-.043zm2.64-.477.244-1.48-.256-.042-.255.046zm2.64.435-.244 1.48.14.023.143-.004zm2.64-.068.039 1.499.094-.002.093-.014zm2.64-.403.353-1.458-.287-.069-.292.044zM8 116v1.5h.1v-3H8zm.1 0 .065 1.499 2.54-.11-.065-1.498-.065-1.499-2.54.109zm2.54-.109-.157 1.491 2.64.278.157-1.491.157-1.492-2.64-.278zm2.64.278.145 1.493 2.64-.257-.145-1.493-.145-1.493-2.64.257zm2.64-.257.06 1.499 2.64-.106-.06-1.499-.06-1.499-2.64.106zm2.64-.106-.116 1.495 2.64.206.116-1.496.116-1.495-2.64-.206zm2.64.205-.005 1.5 2.64.009.005-1.5.005-1.5-2.64-.009zm2.64.009.107 1.496 2.64-.189-.107-1.496-.107-1.497-2.64.19zm2.64-.189-.042 1.499 2.64.074.042-1.499.042-1.499-2.64-.075zm2.64.074-.176 1.49 2.64.312.176-1.49.176-1.489-2.64-.313zm2.64.312.243 1.481 2.64-.434-.243-1.48-.243-1.481-2.64.434zm2.64-.433-.08 1.498 2.64.139.08-1.498.08-1.497-2.64-.14zm2.64.139.098 1.497 2.64-.172-.098-1.497-.098-1.497-2.64.173zm2.64-.172-.182 1.489 2.64.322.182-1.489.182-1.489-2.64-.322zm2.64.322.05 1.499 2.64-.086-.05-1.5-.05-1.499-2.64.087zm2.64-.087.048 1.5 2.64-.085-.048-1.5-.048-1.499-2.64.085zm2.64-.085.093 1.497 2.64-.164-.093-1.497-.093-1.497-2.64.164zm2.64-.164-.261 1.477 2.64.467.261-1.477.261-1.477-2.64-.467zm2.64.467.26 1.478 2.64-.464-.26-1.477-.26-1.478-2.64.464zm2.64-.463-.14 1.493 2.64.249.14-1.493.14-1.494-2.64-.249zm2.64.249.08 1.497 2.64-.142-.08-1.498-.08-1.498-2.64.143zm2.64-.143-.213 1.485 2.64.378.213-1.485.213-1.485-2.64-.378zm2.64.378.274 1.475 2.64-.49-.274-1.475-.274-1.475-2.64.49zm2.64-.49-.078 1.498 2.64.138.078-1.498.078-1.498-2.64-.138zm2.64.138-.032 1.5 2.64.056.032-1.499.032-1.5-2.64-.057zm2.64.057.025 1.499 2.64-.043-.025-1.5-.025-1.5-2.64.044zm2.64-.044-.185 1.488 2.64.328.185-1.488.185-1.489-2.64-.328zm2.64.328.136 1.494 2.64-.242-.136-1.493-.136-1.494-2.64.241zm2.64-.241.011 1.5 2.64-.021-.011-1.5-.011-1.5-2.64.021zm2.64-.021-.169 1.491 2.64.299.169-1.491.169-1.49-2.64-.299zm2.64.299.223 1.484 2.64-.397-.223-1.484-.223-1.483-2.64.397zm2.64-.397-.073 1.499 2.64.129.073-1.498.073-1.498-2.64-.13zm2.64.13-.086 1.497 2.64.151.086-1.497.085-1.498-2.64-.151zm2.64.151.12 1.495 2.64-.214-.12-1.495-.12-1.495-2.64.213zm2.64-.214.01 1.5 2.64-.018-.01-1.5-.01-1.5-2.64.018zm2.64-.018-.202 1.487 2.64.358.202-1.487.202-1.486-2.64-.358zm2.64.358.267 1.476 2.64-.477-.267-1.476-.267-1.476-2.64.477zm2.64-.477-.244 1.48 2.64.435.244-1.48.244-1.481-2.64-.434zm2.64.435.039 1.499 2.64-.068-.039-1.499-.039-1.5-2.64.068zm2.64-.068.226 1.483 2.64-.403-.226-1.483-.226-1.483-2.64.403zm2.64-.403-.353 1.458 1.04.252L112 116l.353-1.458-1.04-.252zM79.582 50.11l1.032 1.088.04-.038.038-.04zm1.694-1.864-.73-1.31-.215.12-.165.18zm2.32-1.295.73 1.31.204-.114.16-.17zm1.816-1.937 1.095 1.026.026-.028.025-.029zm1.697-2.004-1.139-.977-.006.008zm1.716-2.001 1.139.976.095-.111.072-.128zm1.298-2.3 1.306.738.077-.137.047-.15zm.791-2.512 1.431.45.011-.034.01-.035zm.666-2.532 1.45.382.015-.055.01-.055zm.484-2.622 1.475.273.062-.34-.092-.333zm-.714-2.576-1.466.319.01.04.01.041zm-.557-2.56 1.465-.319-.043-.198-.094-.18zm-1.217-2.319-1.354.643.012.027.014.027zm-1.134-2.389 1.355-.643-.098-.206-.154-.167zm-1.792-1.943 1.103-1.017-.075-.081-.086-.07zm-2.047-1.652.942-1.168-.106-.085-.119-.064zm-2.297-1.252-.825 1.253.052.035.055.03zm-2.233-1.47.825-1.253-.325-.214-.387-.03zm-2.665-.2-.269 1.475.078.014.079.006zm-2.585-.47.269-1.477-.233-.042-.235.031zm-2.605.348.155 1.492.022-.002.023-.003zm-2.655.275-.154-1.492-.372.039-.31.207zm-2.226 1.492.726 1.313.056-.031.054-.036zm-2.286 1.265-.726-1.312-.11.06-.1.08zm-2.053 1.638-.936-1.173-.095.076-.082.09zm-1.763 1.949 1.087 1.034.013-.014.013-.014zm-1.836 1.93-1.087-1.033-.168.177-.104.222zm-1.126 2.41-1.359-.634-.008.017-.007.017zm-1.054 2.414-1.375-.6-.004.01-.004.01zm-1.032 2.456-1.383-.582-.11.262-.007.283zm-.065 2.674 1.49.169.008-.066.001-.067zm-.297 2.616-1.49-.169-.01.079v.079zm-.02 2.65-1.5-.012-.001.192.046.185zm.646 2.57 1.466.319.075-.344-.086-.34zm-.55 2.526-1.465-.32-.013.06-.008.059zm-.356 2.637-1.486-.201-.035.256.053.252zm.55 2.628 1.473-.285-.002-.011-.003-.01zm.48 2.48-1.472.285.234 1.21 1.233.004zm2.673.01-.005 1.5h.096l.096-.013zm2.65-.334.045-1.5-.116-.003-.116.015zm2.638.08.242-1.48-.098-.017-.099-.003zm2.633.43-.242 1.48.164.027.166-.01zm2.641-.155-.057-1.5-.015.001-.016.001zm2.638-.1.056 1.499h.015zm2.638-.126.072 1.499.047-.002.048-.006zm2.63-.293.118-1.495-.143-.011-.142.016zm2.34.185-.117 1.495.06.005h.06zm2.674-.005.065-1.498-.034-.002h-.034zm2.646.115-.066 1.499.093.004.092-.008zm2.642-.21.176-1.49-.148-.018-.147.012zm2.64.31.377-1.451-.1-.026-.102-.012zm2.06.536h1.5v-1.16l-1.123-.291zm0 2.64h-1.5v.035l.001.035zm.121 2.641 1.5.032.001-.05-.002-.05zm-.056 2.64-1.5-.032v.006zm-.046 2.64 1.499.057v-.03zm-.1 2.638.434 1.436 1.025-.31.04-1.07zm-2.345.708-1.346.662.561 1.142 1.219-.368zm-1.113-2.266-1.448.39.038.14.063.131zm-.674-2.499 1.448-.39-.05-.187-.096-.167zm-1.287-2.25 1.302-.745-.06-.107-.079-.096zm-1.678-2.06 1.163-.948-.17-.208-.23-.136zm-2.298-1.36.764-1.291-.265-.157-.305-.04zm-2.611-.342.194-1.487-.098-.013h-.099zm-2.633.005-.003-1.5h-.037l-.038.002zm-2.582.134-.077-1.498-1.266.065-.147 1.26zm-.304 2.616-1.49-.173-.008.073-.002.073zm-.048 2.64 1.5.028zm-.049 2.64-1.5-.027v.04l.001.042zm.095 2.64-1.499.055.01.25.09.234zm.904 2.352-1.4.538.355.924.99.037zm2.679.1-.055 1.498.392.015.35-.18zm2.38-1.227.687 1.333.351-.181.217-.33zm1.393-2.13 1.255.822.016-.024.015-.025zm1.306-2.172 1.128-.988-1.355-1.547-1.06 1.763zm1.489 1.7 1.5-.032-.012-.545-.36-.41zm.057 2.64 1.5-.014v-.018zm.027 2.643 1.493.147.008-.081-.001-.082zm-.26 2.642-1.493-.147-.014.141.013.142zm.24 2.64 1.37.61.16-.356-.036-.39zm-.968 2.178-1.095 1.026 1.547 1.65.919-2.067zm-1.513-1.614-1.369.613.103.23.172.183zm-1.058-2.366 1.369-.613-.162-.361-.32-.235zm-2.15-1.578.888-1.21-.441-.323-.547.036zm-2.655.177-.1-1.497-.32.022-.283.15zM75.01 72.45l-.704-1.325-.802.426.006.908zm.016 2.641-1.5.01v.056l.005.056zm.214 2.642 1.497-.1v-.01l-.002-.012zm.175 2.641 1.5.001v-.05l-.003-.05zm-.002 2.637-1.5-.001v.795l.657.447zm1.553 1.054-.843 1.241.334.227.402.028zm2.666.19-.107 1.497.261.018.252-.07zm2.56-.72.407 1.444.045-.012.044-.016zm2.507-.878.496 1.416.22-.077.186-.14zm2.122-1.594.901 1.199.125-.094.103-.117zm1.74-1.987 1.128.988.228-.26.09-.332zm.692-2.527-1.412-.505-.02.054-.015.055zm.744-2.079-.229-1.482-.882.136-.301.84zm2.63-.406 1.48-.245-.241-1.464-1.467.226zm.386 2.33 1.5.025.002-.135-.022-.134zm-.044 2.64-1.5-.024v.093l.009.091zm.282 2.641 1.495.13.012-.145-.015-.144zm-.228 2.64-1.495-.13-.005.056v.055zm-.033 2.64 1.266.804.228-.359.005-.425zm-1.221 1.925-1.267-.803-.755 1.189 1.14.828zm-12.26-38.7 1.032 1.088.073-.069-1.032-1.088-1.033-1.088-.072.069zm.073-.069 1.11 1.01 1.694-1.865-1.11-1.01-1.11-1.008-1.694 1.864zm1.694-1.864.731 1.31 2.32-1.295-.731-1.31-.731-1.31-2.32 1.295zm2.32-1.295 1.094 1.026 1.817-1.937-1.095-1.026-1.094-1.026-1.816 1.937zm1.816-1.937 1.145.97 1.697-2.005-1.145-.97-1.145-.968-1.697 2.004zm1.697-2.004 1.138.976 1.717-2.001-1.14-.976-1.138-.977-1.716 2.001zm1.716-2.001 1.306.737 1.298-2.3-1.306-.737-1.307-.737-1.297 2.3zm1.298-2.3 1.43.451.792-2.512-1.43-.451-1.431-.45-.792 2.511zm.791-2.512 1.451.381.666-2.532-1.45-.38-1.452-.382-.665 2.532zm.666-2.532 1.475.272.484-2.621-1.475-.273-1.475-.272-.484 2.622zm.484-2.622 1.445-.4-.714-2.577-1.445.4-1.446.401.714 2.577zm-.714-2.576 1.466-.32-.558-2.559-1.465.32-1.466.319.557 2.559zm-.557-2.56 1.328-.696-1.216-2.32-1.329.697-1.328.697 1.216 2.32zm-1.217-2.319 1.355-.644-1.134-2.388-1.355.643-1.355.644 1.135 2.389zM88.442 21.2l1.103-1.016-1.792-1.944-1.103 1.017-1.103 1.017 1.792 1.943zm-1.792-1.943.942-1.167-2.047-1.653-.942 1.168-.942 1.167 2.047 1.652zm-2.047-1.652.717-1.317-2.296-1.252-.718 1.317-.718 1.318 2.297 1.25zm-2.297-1.252.825-1.252-2.233-1.471-.825 1.253-.825 1.252 2.233 1.471zm-2.233-1.47.113-1.496-2.666-.2-.112 1.495-.112 1.496 2.665.2zm-2.665-.2.268-1.476-2.584-.47-.269 1.475-.268 1.476 2.584.47zm-2.585-.47-.2-1.488-2.604.35.2 1.486.199 1.487 2.604-.35zm-2.605.348-.154-1.492-2.655.275.154 1.492.154 1.492 2.656-.275zm-2.655.275-.835-1.246-2.226 1.492.835 1.246.836 1.246 2.225-1.492zm-2.226 1.492-.726-1.312-2.286 1.265.726 1.312.726 1.313 2.286-1.265zm-2.286 1.265-.936-1.172-2.053 1.637.936 1.173.935 1.172 2.053-1.637zm-2.053 1.638-1.113-1.006-1.763 1.949 1.113 1.006 1.113 1.006 1.762-1.95zm-1.763 1.949-1.087-1.034-1.836 1.931L59.4 23.11l1.087 1.033 1.836-1.93zm-1.836 1.93-1.359-.634-1.126 2.41 1.36.635 1.358.635 1.126-2.41zm-1.126 2.41-1.374-.6-1.055 2.414 1.375.6 1.374.6 1.055-2.413zm-1.054 2.414-1.383-.58-1.032 2.454 1.383.582 1.383.58 1.032-2.454zm-1.032 2.456-1.5-.037-.065 2.674 1.5.037 1.5.036.064-2.674zm-.065 2.674-1.49-.17-.297 2.617 1.49.17 1.49.168.297-2.616zm-.297 2.616-1.5-.011-.02 2.65 1.5.01 1.5.012.02-2.65zm-.02 2.65-1.455.365.646 2.57 1.455-.365 1.455-.366-.646-2.57zm.646 2.57-1.465-.319-.55 2.526 1.465.319 1.466.319.55-2.526zm-.55 2.526-1.486-.201-.356 2.637 1.486.2 1.487.202.356-2.637zm-.356 2.637-1.468.307.55 2.628 1.468-.307 1.468-.307-.55-2.628zm.55 2.628-1.472.286.48 2.479 1.473-.286 1.472-.285-.48-2.48zm.48 2.48-.005 1.5 2.673.01.005-1.5.006-1.5-2.673-.01zm2.673.01.187 1.487 2.65-.333-.187-1.488-.187-1.488-2.65.333zm2.65-.334-.045 1.5 2.638.079.045-1.5.045-1.499-2.638-.08zm2.638.08-.242 1.48 2.633.43.242-1.48.242-1.48-2.633-.43zm2.633.43.088 1.497 2.641-.155-.088-1.497-.088-1.498-2.641.156zm2.641-.155.057 1.499 2.637-.1-.056-1.5-.057-1.498-2.638.1zm2.638-.1.07 1.498 2.64-.125-.072-1.499-.07-1.498-2.64.126zm2.638-.126.167 1.491 2.629-.293-.166-1.49-.166-1.491-2.63.293zm2.63-.293-.118 1.496 2.34.184.118-1.495.118-1.495-2.34-.185zm2.34.185.003 1.5 2.673-.005-.002-1.5-.003-1.5-2.673.005zm2.674-.005-.066 1.499 2.647.115.065-1.499.065-1.498-2.646-.115zm2.646.115.119 1.495 2.642-.21-.119-1.496-.12-1.495-2.642.211zm2.642-.21-.176 1.489 2.64.311.176-1.49.175-1.49-2.64-.31zm2.64.31-.378 1.452 2.06.536.378-1.452.377-1.451-2.06-.536zm2.06.536h-1.5v2.64h3v-2.64zm0 2.64-1.499.07.122 2.64 1.498-.069 1.499-.069-.122-2.64zm.121 2.641-1.5-.031-.055 2.64 1.5.031 1.5.032.055-2.64zm-.056 2.64-1.5-.026-.046 2.64 1.5.026 1.5.027.046-2.64zm-.046 2.64-1.5-.056-.099 2.637 1.499.057 1.499.056.1-2.637zm-.1 2.638-.434-1.436-2.345.708.434 1.436.434 1.436 2.345-.708zm-2.345.708 1.346-.661-1.113-2.267-1.346.662-1.347.661 1.114 2.267zm-1.113-2.266 1.448-.391-.674-2.498-1.448.39-1.448.391.674 2.499zm-.674-2.499 1.302-.744-1.287-2.251-1.302.744-1.302.745 1.287 2.25zm-1.287-2.25 1.163-.948-1.678-2.06-1.163.947-1.163.948 1.678 2.06zm-1.678-2.06.764-1.292-2.298-1.36-.764 1.291-.764 1.291 2.298 1.36zm-2.298-1.36.194-1.488-2.61-.341-.195 1.487-.194 1.488 2.61.34zm-2.611-.342-.003-1.5-2.633.005.003 1.5.002 1.5 2.634-.005zm-2.633.005-.078-1.498-2.581.134.077 1.498.078 1.498 2.581-.134zm-2.582.134-1.49-.173-.304 2.616 1.49.173 1.49.174.304-2.617zm-.304 2.616-1.5-.027-.048 2.64 1.5.027 1.5.028.048-2.64zm-.048 2.64-1.5-.027-.049 2.64 1.5.028 1.5.027.049-2.64zm-.049 2.64-1.499.055.095 2.64 1.5-.054 1.498-.054-.095-2.64zm.095 2.64-1.4.539.904 2.351 1.4-.538 1.4-.538-.904-2.352zm.904 2.352-.055 1.499 2.678.099.056-1.499.056-1.499-2.68-.1zm2.679.1.687 1.332 2.38-1.226-.687-1.333-.687-1.334-2.38 1.227zm2.38-1.227 1.255.821 1.393-2.129-1.255-.821-1.255-.822-1.393 2.13zm1.393-2.13 1.286.773 1.305-2.172-1.285-.773-1.286-.772-1.305 2.172zm1.306-2.172-1.129.989 1.49 1.7 1.128-.988 1.128-.989-1.49-1.7zm1.489 1.7-1.5.033.058 2.64 1.5-.032 1.499-.033-.057-2.64zm.057 2.64-1.5.016.027 2.642 1.5-.015 1.5-.016-.027-2.641zm.027 2.643-1.493-.148-.26 2.643 1.492.147 1.493.147.26-2.642zm-.26 2.642-1.494.136.24 2.641 1.494-.136 1.494-.136-.24-2.641zm.24 2.64-1.37-.608-.969 2.176 1.37.61 1.372.61.968-2.178zm-.968 2.178 1.094-1.026-1.512-1.614-1.095 1.026-1.094 1.026 1.512 1.614zm-1.513-1.614 1.37-.612-1.06-2.367-1.368.613-1.37.613 1.059 2.366zm-1.058-2.366.887-1.21-2.149-1.577-.888 1.209-.887 1.209 2.149 1.578zm-2.15-1.578-.1-1.497-2.655.177.1 1.497.1 1.497 2.655-.177zm-2.655.177-.703-1.325-1.972 1.047.704 1.325.703 1.325 1.972-1.047zM75.01 72.45l-1.5.01.016 2.64 1.5-.009 1.5-.009-.016-2.641zm.016 2.641-1.495.122.214 2.641 1.495-.121 1.495-.122-.214-2.64zm.214 2.642-1.496.099.174 2.641 1.497-.099 1.497-.099-.175-2.641zm.175 2.641-1.5-.001-.002 2.637h1.5l1.5.002.002-2.637zm-.002 2.637-.843 1.24 1.553 1.055.843-1.24.843-1.242-1.553-1.054zm1.553 1.054-.107 1.496 2.666.19.107-1.495.106-1.497-2.665-.19zm2.666.19.406 1.445 2.56-.72-.406-1.445-.406-1.444-2.56.72zm2.56-.72.496 1.416 2.507-.878-.496-1.416-.495-1.415-2.507.878zm2.507-.878.902 1.2 2.121-1.595-.9-1.2-.902-1.198-2.122 1.594zm2.122-1.594 1.129.988 1.74-1.987-1.129-.988-1.129-.988-1.74 1.987zm1.74-1.987 1.447.396.692-2.526-1.447-.397-1.447-.396-.692 2.526zm.692-2.527 1.412.506.744-2.08-1.412-.505-1.412-.505-.744 2.079zm.744-2.079.23 1.483 2.63-.407-.23-1.482-.228-1.483-2.63.407zm2.63-.406-1.48.244.386 2.331 1.48-.244 1.48-.245-.385-2.33zm.386 2.33-1.5-.024-.043 2.64 1.5.025 1.5.025.043-2.64zm-.044 2.64-1.491.16.282 2.64 1.491-.159 1.492-.16-.282-2.64zm.282 2.641-1.494-.13-.229 2.64 1.495.13 1.494.13.229-2.64zm-.228 2.64-1.5-.019-.033 2.641 1.5.019 1.5.019.032-2.641zm-.033 2.64-1.267-.803-1.221 1.925 1.267.803 1.266.804 1.221-1.925zm-1.221 1.925-.882 1.214.21.153.882-1.214.882-1.213-.21-.153z"/><path fill="#000" d="m55.58 32.718.19 1.488.76-.097.367-.671zm-2.384.304-.19-1.488-1.056.135-.222 1.041zm-.536 2.518-1.467-.312-.02.091-.007.094zm-.223 2.632 1.411.509.067-.186.016-.196zm-.904 2.508 1.169.94.157-.195.085-.236zm-1.67 2.075 1.028 1.093.076-.072.065-.08zm-1.917 1.802.885 1.211.075-.054.067-.063zm-2.144 1.57.52 1.406.197-.072.169-.124zm-2.496.922.154 1.492.189-.02.177-.065zm-2.632.272-.155-1.492-.1.01-.097.024zm-2.6.628-.618 1.366.47.213.5-.121zm-2.307-1.046-1.495.123.073.879.803.364zm-.219-2.652-1.489-.182-.019.152.013.154zm.323-2.64 1.49.183.013-.115-.003-.116zm-.085-2.64-1.499.048zm-.084-2.64 1.5-.048-.001-.022-.002-.023zm-.163-2.64-1.477-.26-.031.175.01.178zm.466-2.64 1.477.26.046-.26-.046-.26zm-.465-2.64-1.494-.138-.018.2.034.199zm.245-2.64 1.493.139.01-.112-.006-.111zm-.15-2.64-1.473-.279-.034.18.01.184zm.482-2.538-1.194-.907-.214.28-.066.347zm1.579-2.079-.757-1.295-.258.15-.18.238zm1.726-1.008.756 1.296.726-.424.018-.84zm.057-2.64 1.5.032.024-1.133-1.084-.333zm-1.89-.58.441-1.434-.123-.038-.128-.017zm-2.64-.337.19-1.488-.163-.021-.163.015zm-2.64.24.015 1.5h.06l.062-.005zm-2.64.026-.165 1.49.09.01h.09zm-2.64-.292.164-1.491-.196-.022-.195.03zm-2.64.402-.072 1.499.15.007.148-.023zm-2.64-.127.072-1.498-.63-.031-.463.43zm-1.442 1.338-1.02-1.1-.52.483.043.708zm.162 2.643-1.497.092.067 1.097 1.066.267zm2.36.59 1.379-.592-.294-.683-.72-.18zm.934 2.17 1.465-.32-.03-.141-.057-.133zm.571 2.62 1.486.208.037-.265-.057-.262zm-.37 2.652-1.486-.208-.02.136.007.136zm.112 2.637-1.499.064.004.09.015.09zm.434 2.636 1.5-.007v-.119l-.02-.118zm.012 2.641 1.485.21.015-.108v-.108zm-.373 2.642-1.485-.21-.021.15.009.148zm.156 2.641 1.5-.009v-.04l-.003-.039zm.016 2.64 1.498.06.002-.034v-.035zm-.107 2.631 1.343.668.142-.287.013-.32zm-1.12 2.255.292 1.472.723-.144.328-.66zm-2.44.486-.294-1.47-.499.099-.335.383zm-1.485 1.694-1.128-.989-.343.39-.027.52zm-.14 2.638-1.499-.08-.018.339.13.313zm.848 2.055-1.387.572.274.663.687.203zm2.493.738.848-1.238-.195-.133-.227-.067zm1.753 1.2 1.418-.49-.162-.468-.409-.28zm.862 2.497-1.418.489.012.037.015.036zm.99 2.452 1.425-.47-.015-.047-.019-.045zm.828 2.506-1.425.47v.001zm.83 2.507-1.424.472.003.007.002.007zm.856 2.498-1.419.487.012.033.013.034zm.974 2.456 1.395-.552v-.001zm.971 2.457 1.416-.496-.01-.028-.01-.027zm.873 2.491 1.422-.479-.003-.008-.003-.009zm.843 2.503 1.462-.339-.017-.07-.023-.07zm.602 2.59-1.462.339.024.1.037.097zm.944 2.465-1.4.536.02.054.024.052zm1.138 2.4 1.393-.555-.018-.045-.02-.043zm.964 2.421 1.411-.508-.008-.023-.01-.024zm19.83-55.357-1.316-.72-.048.088 1.316.72 1.317.719.047-.088zm-.048.087-.19-1.488-2.384.304.19 1.488.19 1.488 2.384-.304zm-2.384.304-1.468-.312-.535 2.518 1.467.312 1.468.312.535-2.518zm-.536 2.518-1.494-.127-.224 2.632 1.495.127 1.494.127.224-2.632zm-.223 2.632-1.411-.508-.904 2.508 1.411.508 1.411.509.904-2.508zm-.904 2.508-1.169-.94-1.67 2.074 1.17.94 1.168.941 1.67-2.074zm-1.67 2.075-1.027-1.093-1.918 1.803 1.028 1.092 1.027 1.093 1.918-1.802zm-1.917 1.802-.886-1.21-2.144 1.569.886 1.21.886 1.21 2.143-1.568zm-2.144 1.57-.52-1.408-2.496.923.52 1.407.52 1.407 2.496-.923zm-2.496.922-.154-1.492-2.633.272.155 1.492.154 1.492 2.632-.272zm-2.632.272-.352-1.458-2.6.628.353 1.458.352 1.458 2.599-.628zm-2.6.628.62-1.366-2.308-1.047-.619 1.367-.62 1.366 2.309 1.046zm-2.307-1.046 1.495-.124-.22-2.652-1.494.124-1.495.124.22 2.651zm-.219-2.652 1.489.182.323-2.64-1.489-.182-1.488-.182-.324 2.64zm.323-2.64 1.5-.048-.086-2.64-1.499.048-1.499.049.085 2.64zm-.085-2.64 1.5-.048-.084-2.64-1.5.048-1.499.048.084 2.64zm-.084-2.64 1.498-.093-.164-2.64-1.497.093-1.497.093.163 2.64zm-.163-2.64 1.477.261.466-2.64-1.477-.261-1.477-.26-.466 2.64zm.466-2.64 1.477-.26-.465-2.64-1.477.26-1.478.26.466 2.64zm-.465-2.64 1.493.139.245-2.64-1.493-.139-1.494-.138-.245 2.64zm.245-2.64 1.497-.084-.149-2.64-1.497.084-1.498.085.149 2.64zm-.15-2.64 1.474.28.482-2.539-1.474-.28-1.474-.279-.481 2.54zm.482-2.538 1.195.907 1.578-2.078-1.194-.908-1.195-.907-1.578 2.079zm1.579-2.079.756 1.296 1.726-1.008-.756-1.296-.756-1.295-1.727 1.008zm1.726-1.008 1.5.032.056-2.64-1.5-.032-1.499-.032-.057 2.64zm.057-2.64.44-1.434-1.889-.58-.44 1.433-.441 1.434 1.889.581zm-1.89-.58.19-1.489-2.64-.336-.19 1.488-.19 1.488 2.64.336zm-2.64-.337-.136-1.494-2.64.241.136 1.494.137 1.494 2.64-.242zm-2.64.24-.014-1.5-2.64.026.014 1.5.014 1.5 2.64-.025zm-2.64.026.165-1.491-2.64-.292-.166 1.49-.165 1.492 2.641.292zm-2.64-.292-.227-1.483-2.64.403.227 1.483.226 1.482 2.64-.402zm-2.64.402.073-1.498-2.641-.127-.073 1.498-.072 1.498 2.64.128zm-2.64-.127-1.021-1.1-1.441 1.338 1.02 1.1 1.02 1.099 1.442-1.338zm-1.442 1.338-1.497.091.162 2.644 1.497-.092 1.497-.091-.162-2.644zm.162 2.643-.364 1.456 2.36.59.365-1.455.364-1.456-2.361-.59zm2.36.59-1.377.593.933 2.17 1.378-.594 1.378-.593-.933-2.168zm.934 2.17-1.466.319.572 2.62 1.465-.319 1.466-.32-.572-2.62zm.571 2.62-1.485-.207-.371 2.651 1.485.208 1.486.208.37-2.652zm-.37 2.652-1.5.064.113 2.637 1.499-.064 1.499-.064-.113-2.637zm.112 2.637-1.48.244.434 2.636 1.48-.244 1.48-.244-.434-2.636zm.434 2.636-1.5.007.012 2.641 1.5-.007 1.5-.006-.012-2.642zm.012 2.641-1.485-.209-.373 2.642 1.485.21 1.485.209.373-2.642zm-.373 2.642-1.497.088.155 2.642 1.498-.089 1.497-.088-.155-2.64zm.156 2.641-1.5.01.016 2.639 1.5-.01 1.5-.008-.016-2.64zm.016 2.64-1.5-.061-.106 2.632 1.499.06 1.498.061.107-2.632zm-.107 2.631-1.344-.667-1.12 2.255 1.343.667 1.344.668 1.12-2.255zm-1.12 2.255-.294-1.47-2.44.485.294 1.471.293 1.472 2.44-.486zm-2.44.486-1.128-.988-1.485 1.693 1.128.99 1.127.988 1.485-1.694zm-1.485 1.694-1.498-.08-.14 2.638 1.497.08 1.498.08.14-2.638zm-.14 2.638-1.387.572.848 2.055 1.387-.572 1.386-.573-.848-2.055zm.848 2.055-.426 1.438 2.493.738.426-1.438.426-1.438-2.493-.739zm2.493.738-.847 1.238 1.753 1.2.847-1.238.847-1.238-1.752-1.2zm1.753 1.2-1.418.49.862 2.496 1.418-.49 1.418-.489-.862-2.496zm.862 2.497-1.391.562.991 2.452 1.39-.562 1.391-.562-.99-2.453zm.99 2.452-1.424.47.827 2.506 1.425-.47 1.424-.47-.827-2.506zm.828 2.506-1.424.471.83 2.508 1.424-.472 1.424-.471-.83-2.508zm.83 2.507-1.419.486.856 2.499 1.42-.487 1.418-.486-.856-2.498zm.856 2.498-1.394.553.974 2.456 1.394-.553 1.395-.553-.974-2.456zm.974 2.456-1.395.55.971 2.458 1.395-.551 1.395-.551-.97-2.457zm.971 2.457-1.416.496.874 2.491 1.415-.496 1.416-.496-.873-2.491zm.873 2.491-1.421.48.843 2.502 1.421-.479 1.422-.479-.843-2.503zm.843 2.503-1.46.34.6 2.589 1.462-.34 1.46-.339-.6-2.589zm.602 2.59-1.401.536.944 2.465 1.4-.537 1.401-.536-.944-2.465zm.944 2.465-1.356.642 1.138 2.4 1.355-.642 1.356-.643-1.138-2.4zm1.138 2.4-1.394.555.964 2.421 1.394-.555 1.393-.555-.964-2.421zm.964 2.421-1.412.508.406 1.126 1.411-.507 1.411-.508-.405-1.127zm22.723.961 1.21.885.483-.66-.292-.763zm-.916-2.388-1.162-.949-.55.674.311.813zm1.378-1.687-.181-1.49-.6.073-.38.468zm2.614-.319.181 1.49.43-.053.335-.273zm1.822-1.48.946 1.163.446-.362.09-.568zm.403-2.558 1.481.233.018-.114v-.115zm.007-2.64 1.5.005v-.057l-.004-.056zm-.19-2.64-1.5-.041-.002.075.005.075zm.073-2.64-1.49-.176-.008.067-.002.068zm.312-2.64 1.49.177.024-.21-.034-.21zm-.434-2.64-1.498-.079-.008.163.026.16zm.14-2.64 1.498.08.004-.088-.005-.089zm-.173-2.64-1.489-.181-.017.14.01.14zm.322-2.639 1.49.182.022-.187-.024-.186zm-.336-2.61 1.488-.192-.085-.662-.548-.38zm-1.942-1.346.854-1.233-.425-.296-.518.031zm-2.64.156-.257 1.478.172.03.175-.01zm-2.64-.461.259-1.478-.613-.107-.51.359zm-1.984 1.399-.864-1.226-.337.237-.168.375zM53.27 58.91l-1.368-.613-.046.1-.03.107zm-.717 2.546 1.332.69.07-.136.042-.147zm-1.226 2.37-1.332-.689-.112.216-.038.24zm-.419 2.654 1.384.579.07-.167.028-.178zm-1.02 2.442-1.384-.579-.008.02-.008.019zm-.95 2.464-1.4-.54-.01.025-.008.026zm-.862 2.497 1.334.686.049-.095.035-.101zm-1.217 2.368-1.334-.686-.074.143-.04.154zm-.687 2.562 1.41.51.023-.06.016-.062zm-.898 2.483 1.339.678.041-.082.031-.086zm-1.2 2.37-1.338-.678-.089.175-.04.192zm-.552 2.61 1.377.595.06-.138.03-.147zm-1.054 2.437-1.377-.595-.003.007-.003.007zm15.993.316 1.21.885.06-.08-1.21-.886-1.212-.885-.059.08zm.06-.081 1.4-.538-.917-2.387-1.4.537-1.4.538.916 2.387zm-.917-2.388 1.162.949 1.378-1.688-1.162-.948-1.162-.95-1.378 1.688zm1.378-1.687.181 1.489 2.614-.319-.181-1.489-.181-1.489-2.614.319zm2.614-.319.946 1.164 1.822-1.48-.946-1.165-.946-1.164-1.822 1.482zm1.822-1.48 1.482.233.402-2.558-1.481-.233-1.482-.233-.403 2.557zm.403-2.558 1.5.004.007-2.64-1.5-.004-1.5-.004-.007 2.64zm.007-2.64 1.496-.108-.19-2.64-1.497.108-1.496.109.19 2.64zm-.19-2.64 1.499.042.073-2.64-1.5-.042-1.498-.041-.074 2.64zm.073-2.64 1.49.177.311-2.64-1.49-.176-1.489-.177-.312 2.64zm.312-2.64 1.48-.243-.434-2.64-1.48.244-1.48.243.434 2.64zm-.434-2.64 1.498.08.14-2.64-1.498-.08-1.498-.079-.14 2.64zm.14-2.64 1.497-.097-.173-2.64-1.497.098-1.497.097.173 2.64zm-.173-2.64 1.49.182.321-2.64-1.488-.18-1.49-.183-.322 2.64zm.322-2.639 1.488-.191-.336-2.611-1.488.191-1.487.192.336 2.61zm-.336-2.61.855-1.234-1.943-1.346-.854 1.233-.854 1.233 1.942 1.346zM61.6 55.441l-.089-1.498-2.64.157.09 1.497.089 1.498 2.639-.157zm-2.64.156.259-1.477-2.64-.462-.258 1.478-.258 1.477 2.64.462zm-2.64-.461-.863-1.226-1.985 1.399.864 1.226.864 1.226 1.985-1.399zm-1.984 1.399-1.369-.614-1.065 2.376 1.368.613 1.369.614 1.066-2.375zM53.27 58.91l-1.444-.406-.717 2.545 1.444.407 1.444.407.717-2.546zm-.717 2.546-1.332-.689-1.226 2.37 1.332.69 1.332.688 1.227-2.37zm-1.226 2.37-1.482-.234-.419 2.654 1.482.234 1.482.234.419-2.654zm-.419 2.654-1.384-.578-1.02 2.441 1.384.579 1.384.578 1.02-2.441zm-1.02 2.442-1.4-.54-.95 2.464 1.4.54 1.4.54.95-2.465zm-.95 2.464-1.418-.49-.862 2.498 1.418.49 1.418.489.861-2.497zm-.862 2.497-1.335-.685-1.216 2.367 1.334.686 1.334.685 1.217-2.367zm-1.217 2.368-1.449-.388-.687 2.562 1.45.388 1.448.388.687-2.562zm-.687 2.562-1.41-.51-.898 2.483 1.41.51 1.411.51.898-2.483zm-.898 2.483-1.338-.678-1.2 2.37 1.338.677 1.338.678 1.2-2.37zm-1.2 2.37-1.468-.31-.551 2.61 1.467.31 1.468.31.551-2.61zm-.552 2.61-1.377-.596-1.054 2.438 1.377.595 1.377.596 1.054-2.438zm-1.054 2.437-1.383-.581-.167.396 1.383.582 1.382.582.167-.397zM84.838 25.5l-1.428.46.238.738.741.233zm-.775-2.405 1.428-.46-.085-.263-.172-.215zm-1.655-2.066 1.17-.938-.424-.53-.68-.03zm-2.626-.115.066-1.499-.374-.016-.338.16zm-2.317 1.105-.646-1.354-.156.075-.136.108zm-2.043 1.636-.938-1.17-.067.053-.06.062zm-1.858 1.876-1.066-1.055-.044.044-.04.048zm-1.699 2.03 1.052 1.069.052-.051.046-.056zm-1.882 1.852.95 1.16.053-.043.049-.048zm-2.057 1.684-.95-1.16-.16.13-.118.17zm-1.534 2.192 1.014 1.105.121-.11.094-.135zm-1.945 1.784-1.014-1.105-.15.137-.108.173zm-1.378 2.204-1.272-.795-.053.085-.041.091zm-1.076 2.374-1.366-.619-.217.479.13.51zm.646 2.546-1.454.37.101.396.288.29zm1.815 1.83-1.065 1.056.337.34.472.082zm2.458.426-.256 1.478.233.04.233-.032zm2.609-.368.21 1.485.563-.08.368-.432zm1.74-2.043-.96-1.151-.099.081-.082.097zm2.036-1.699.96 1.152.089-.074.076-.085zm1.748-1.982-.92-1.185-.111.087-.094.106zm2.108-1.635.92 1.185.201-.157.139-.214zm1.457-2.255-1.052-1.07-.118.116-.09.14zm1.883-1.85 1.051 1.07.026-.025.024-.027zm1.792-1.937 1.1 1.019.053-.057.046-.061zm1.579-2.103 1.199.9.062-.083.05-.09zm1.29-2.332 1.313.727.325-.587-.221-.633zm-.22-.72.448-1.43-.095-.03-.45 1.43-.448 1.432.095.03zm-.096-.03 1.428-.46-.775-2.404-1.428.46-1.428.46.775 2.404zm-.775-2.404 1.17-.938-1.654-2.066-1.17.938-1.172.938 1.656 2.066zm-1.655-2.066.066-1.498-2.626-.116-.066 1.499-.066 1.498 2.626.116zm-2.626-.115-.646-1.354-2.317 1.105.646 1.354.646 1.354 2.317-1.106zm-2.317 1.105-.938-1.17-2.043 1.636.938 1.17.938 1.171 2.043-1.636zm-2.043 1.636L74.356 22.6l-1.858 1.875 1.066 1.056 1.066 1.056 1.858-1.876zm-1.858 1.876-1.15-.963-1.699 2.03 1.15.962 1.15.963 1.7-2.029zm-1.699 2.03-1.052-1.07-1.882 1.853 1.052 1.069 1.052 1.069 1.882-1.852zm-1.882 1.852-.95-1.16-2.057 1.683.95 1.16.95 1.161 2.057-1.684zm-2.057 1.684-1.228-.86-1.535 2.192 1.23.86 1.228.86 1.534-2.192zm-1.534 2.192-1.014-1.106-1.945 1.785 1.014 1.105 1.014 1.105 1.945-1.784zm-1.945 1.784-1.272-.795-1.378 2.204 1.272.795 1.272.795 1.378-2.204zm-1.378 2.204-1.366-.619-1.076 2.374 1.366.62 1.366.619 1.076-2.374zm-1.076 2.374-1.454.37.646 2.545 1.454-.369 1.454-.37-.646-2.545zm.646 2.546-1.065 1.056 1.815 1.83 1.065-1.056 1.065-1.057-1.815-1.83zm1.815 1.83-.256 1.478 2.458.426.256-1.478.257-1.478-2.459-.426zm2.458.426.21 1.485 2.609-.368-.21-1.485-.21-1.486-2.609.369zm2.609-.368 1.141.973 1.74-2.043-1.14-.973-1.142-.973-1.741 2.043zm1.74-2.043.961 1.152 2.036-1.7-.961-1.15-.961-1.152L70.3 40.89zm2.036-1.699 1.125.992 1.748-1.982-1.125-.992-1.125-.992-1.748 1.982zm1.748-1.982.92 1.185 2.107-1.635-.92-1.185-.919-1.185-2.107 1.635zm2.108-1.635 1.26.814 1.457-2.255-1.26-.814-1.26-.814-1.457 2.255zm1.457-2.255 1.05 1.07 1.884-1.85-1.05-1.07-1.052-1.07-1.883 1.85zm1.883-1.85 1.101 1.018 1.792-1.936-1.101-1.019-1.102-1.018-1.79 1.936zm1.792-1.937 1.2.9 1.578-2.102-1.2-.901-1.2-.9-1.578 2.102zm1.579-2.103 1.312.727 1.29-2.332-1.312-.727-1.312-.726-1.29 2.331zm1.29-2.332 1.417-.493-.223-.64-1.416.493-1.417.494.223.64zM42.47 71.306l-1.3-.75-.057.1-.042.107zm1.24-2.147 1.298.75.04-.068.032-.073zm1.075-2.422 1.37.609.058-.13.032-.138zm.603-2.583-1.442-.414-.01.036-.009.037zm.728-2.539-1.389-.566-.03.075-.023.078zm1-2.45 1.388.566.025-.062.02-.063zm.778-2.525 1.433.442.17-.548-.241-.521zm-.945-2.05 1.362-.628-.362-.786-.862-.08zm-2.558-.237-1.5-.064-.06 1.426 1.421.132zm.113-2.639 1.499.065.07-1.64-1.639.077zm-2.77.13-.07-1.499-.314.015-.281.138zm-1.572.775-.664-1.345-.423.21-.228.413zm-1.064 1.937-.111 1.495.961.072.465-.845zm-2.652-.197.11-1.496-.781-.058-.494.609zm-1.01 1.246-1.166-.945-.603.743.42.86zm1.157 2.372-1.348.658.017.035.02.034zm1.282 2.314 1.45-.382-.047-.181-.09-.164zm.684 2.592-1.45.383.053.204.108.181zm1.371 2.302 1.464-.33-.053-.232-.122-.206zm.582 2.588-1.464.329.03.133.054.126zm1.03 2.415 1.457-.36-.03-.118-.047-.111zm.585 2.371 1.47-.296-.006-.031-.008-.032zm.528 2.627 1.43.453.117-.369-.076-.38zm-.222-3.787 1.398.544.036-.094-1.398-.543-1.398-.543-.036.093zm.036-.093 1.3.75 1.24-2.146-1.3-.75-1.299-.75-1.24 2.146zm1.24-2.147 1.371.61 1.076-2.424-1.371-.608-1.371-.609-1.076 2.423zm1.076-2.422 1.46.341.604-2.583-1.461-.341-1.46-.341-.604 2.583zm.603-2.583 1.442.413.728-2.538-1.442-.414-1.442-.413-.728 2.538zm.728-2.539 1.389.567 1-2.452-1.39-.566-1.389-.566-.999 2.451zm1-2.45 1.433.441.778-2.524-1.433-.442-1.434-.442-.778 2.524zm.778-2.525 1.362-.627-.945-2.05-1.362.627-1.362.628.944 2.05zm-.945-2.05.138-1.494-2.558-.236-.139 1.493-.138 1.494 2.558.237zm-2.558-.237 1.498.065.113-2.64-1.498-.064-1.499-.064-.113 2.639zm.113-2.639-.07-1.498-2.77.129.07 1.498.069 1.499 2.77-.13zm-2.77.13-.665-1.346-1.571.776.664 1.345.664 1.345 1.571-.776zm-1.572.775-1.315-.722-1.064 1.936 1.315.723 1.315.722 1.064-1.936zm-1.064 1.937.111-1.496-2.652-.197-.111 1.496-.111 1.495 2.652.197zm-2.652-.197-1.165-.945-1.011 1.246 1.165.945 1.165.945 1.01-1.247zm-1.01 1.246-1.349.658 1.158 2.372 1.348-.658 1.348-.658-1.158-2.372zm1.157 2.372-1.312.727 1.282 2.314 1.312-.727 1.312-.727-1.282-2.314zm1.282 2.314-1.45.383.683 2.592 1.45-.383 1.451-.382-.683-2.592zm.684 2.592-1.289.768 1.371 2.302 1.29-.768 1.288-.768-1.372-2.302zm1.371 2.302-1.463.329.581 2.588 1.464-.33 1.463-.328-.581-2.588zm.582 2.588-1.38.588 1.03 2.415 1.38-.588 1.38-.59-1.03-2.414zm1.03 2.415-1.456.359.585 2.371 1.456-.359 1.456-.359L43 69.828zm.585 2.371-1.47.296.528 2.627 1.47-.296 1.471-.295-.528-2.628zm.528 2.627-1.43-.452-.222.702 1.43.452 1.43.453.223-.702z"/><path fill="#000" d="m20.244 115.295 1.47.298.006-.032.005-.031zm.397-2.511-1.43-.451-.034.106-.017.11zm.797-2.532 1.431.45.046-.145.015-.151zm.274-2.639-1.48-.238-.008.042-.004.042zm.42-2.608-1.442-.411-.024.085-.014.087zm.726-2.547 1.443.412.015-.054.012-.054zm.534-2.585 1.47.303.01-.055.008-.056zm.34-2.625-1.462-.34-.017.073-.01.075zm.597-2.573-1.425-.468-.02.064-.016.065zm.83-2.525-1.306-.737-.072.129-.046.14zm1.082-1.917.064-1.498-.92-.04-.45.802zm2.64.112-.064 1.499.086.004.086-.007zm2.618-.188.175-1.49-.141-.017-.142.01zm2.648.311-.175 1.49.114.014.114-.005zm2.65-.093-.051-1.5h-.002zm2.645-.09.05 1.499h.023l.021-.002zm2.64-.167.261-1.477-.176-.031-.179.011zm2.64.466-.26 1.477.26.045.26-.045zm2.639-.464.14-1.494-.2-.019-.2.035zm2.639.25-.141 1.493.11.01.111-.006zm2.64-.142.215-1.485-.147-.02-.147.007zm2.643.38-.214 1.485.243.035.242-.045zm2.643-.487.08-1.498-.178-.01-.174.033zm2.642.142-.08 1.497.022.001.023.001zm2.64.06-.034 1.5h.057zm2.639-.04.188-1.488-.105-.013-.106.002zm2.64.334-.187 1.488.16.02.161-.014zm2.644-.237-.008-1.5h-.063l-.062.006zm2.644-.014.172-1.49-.09-.01h-.09zm2.642.305-.172 1.49.196.023.195-.03zm2.642-.39.077-1.499-.149-.007-.147.021zm2.638.135.09-1.497h-.013zm2.629.158-.09 1.497.103.007.102-.008zm2.664-.206-.006-1.5h-.055l-.055.004zm2.633-.01.206-1.486-.106-.015h-.106zm2.634.366.499-1.415-.143-.05-.15-.02zm2.015.71 1.498-.074-.05-1.005-.95-.335zm.133 2.68-1.498.075.007.14.033.135zm.616 2.566-1.459.35.022.09.032.086zm.938 2.504 1.47-.3-.024-.115-.041-.111zm.526 2.587 1.498-.084-.006-.109-.022-.106zm.15 2.665-1.499.084.009.148.037.143zm.66 2.562 1.472-.293-.008-.041-.011-.041zm.515 2.59 1.482-.232-.005-.03-.006-.03zm.408 2.607 1.484-.22-.002-.012zm.388 2.614-1.484.22.02.136.044.129zm-78.382.584 1.47.298.02-.098-1.47-.298-1.47-.298-.02.098zm.02-.098 1.481.235.398-2.512-1.482-.234-1.481-.235-.398 2.511zm.397-2.511 1.431.45.797-2.532-1.43-.45-1.431-.451-.797 2.532zm.797-2.532 1.492.154.274-2.638-1.492-.155-1.492-.154-.274 2.638zm.274-2.639 1.48.239.421-2.608-1.48-.239-1.481-.239-.42 2.609zm.42-2.608 1.443.411.726-2.546-1.443-.412-1.442-.411-.726 2.547zm.726-2.547 1.47.304.533-2.586-1.469-.303-1.469-.303-.534 2.585zm.534-2.585 1.488.192.339-2.625-1.488-.192-1.487-.192-.34 2.625zm.34-2.625 1.46.34.598-2.573-1.461-.34-1.461-.339-.598 2.573zm.597-2.573 1.425.47.83-2.526-1.424-.469-1.425-.469-.83 2.526zm.83-2.525 1.307.737 1.081-1.917-1.306-.737-1.307-.737-1.08 1.917zm1.082-1.917-.064 1.499 2.64.112.064-1.499.063-1.498-2.64-.112zm2.64.112.108 1.496 2.618-.188-.108-1.496-.108-1.496-2.618.188zm2.618-.188-.175 1.49 2.648.311.175-1.49.175-1.49-2.648-.311zm2.648.311.053 1.5 2.65-.094-.053-1.5-.053-1.498-2.65.093zm2.65-.093.05 1.499 2.646-.09-.051-1.5-.051-1.498-2.645.09zm2.645-.09.094 1.497 2.641-.167-.094-1.497-.095-1.497-2.64.167zm2.64-.167-.26 1.477 2.64.466.26-1.478.26-1.477-2.639-.465zm2.64.466.26 1.477 2.638-.464-.26-1.477-.26-1.478-2.638.464zm2.639-.464-.142 1.493 2.64.25.141-1.494.141-1.493-2.64-.25zm2.639.25.08 1.497 2.641-.141-.08-1.498-.08-1.498-2.641.141zm2.64-.142-.213 1.485 2.642.38.214-1.485.213-1.484-2.641-.38zm2.643.38.271 1.475 2.643-.487-.271-1.475-.272-1.475-2.643.487zm2.643-.487-.08 1.498 2.641.141.08-1.498.08-1.497-2.641-.142zm2.642.142-.035 1.5 2.64.06.035-1.5.035-1.5-2.641-.06zm2.64.06.023 1.5 2.638-.04-.022-1.5-.022-1.5-2.64.04zm2.639-.04-.188 1.489 2.641.333.188-1.489.187-1.488-2.64-.333zm2.64.334.134 1.494 2.644-.237-.134-1.493-.133-1.495-2.644.237zm2.644-.237.009 1.5 2.643-.014-.008-1.5-.009-1.5-2.643.014zm2.644-.014-.172 1.49 2.642.305.172-1.49.172-1.49-2.642-.305zm2.642.305.219 1.484 2.642-.39-.22-1.485-.218-1.484-2.643.391zm2.642-.39-.077 1.497 2.638.136.077-1.498.077-1.498-2.638-.136zm2.638.135-.09 1.498 2.629.157.09-1.497.09-1.497-2.63-.158zm2.629.158.115 1.496 2.664-.206-.115-1.496-.116-1.496-2.664.207zm2.664-.206.005 1.5 2.633-.01-.005-1.5-.006-1.5-2.633.01zm2.633-.01-.207 1.486 2.635.366.206-1.486.206-1.486-2.634-.366zm2.634.366-.499 1.414 2.015.711.499-1.415.499-1.414-2.015-.71zm2.015.71-1.498.075.133 2.68 1.498-.075 1.498-.074-.133-2.68zm.133 2.68-1.458.35.615 2.566 1.459-.35 1.459-.35-.616-2.566zm.616 2.566-1.405.526.938 2.504 1.405-.526 1.405-.526-.938-2.505zm.938 2.504-1.47.299.526 2.587 1.47-.299 1.47-.299-.526-2.587zm.526 2.587-1.497.083.148 2.666 1.498-.084 1.498-.083-.15-2.666zm.15 2.665-1.453.375.661 2.562 1.453-.375 1.452-.375-.662-2.562zm.66 2.562-1.47.292.514 2.59 1.471-.292 1.471-.292-.514-2.591zm.515 2.59-1.482.232.408 2.607 1.482-.232 1.482-.232-.408-2.607zm.408 2.607-1.484.22.388 2.614 1.484-.22 1.483-.22-.388-2.614zm.388 2.614-1.42.485.2.582 1.419-.485 1.419-.485-.199-.582zM56.67 41.762l-1.066 1.055.031.031.033.03zm1.867 1.675 1.275-.791-.113-.182-.16-.143zm1.401 2.255-1.274.791.138.222.205.163zm2.082 1.65-.932 1.175.035.028.037.025zm2.172 1.52 1.296-.755-.166-.285-.27-.189zm.817 1.403-1.297.755.687 1.18 1.24-.574zm-8.41-8.575-1.065 1.056.07.07 1.066-1.055 1.066-1.055-.07-.071zm.071.072-1.002 1.116 1.868 1.676 1.002-1.117 1.001-1.116-1.867-1.676zm1.867 1.675-1.274.792 1.401 2.255 1.274-.792 1.274-.792-1.4-2.254zm1.401 2.255-.931 1.176 2.081 1.65.932-1.176.931-1.176-2.081-1.65zm2.082 1.65-.86 1.228 2.172 1.52.86-1.228.86-1.229-2.172-1.52zm2.172 1.52-1.296.755.816 1.403 1.297-.755 1.296-.755-.817-1.403zm.817 1.403.63 1.361.01-.004-.63-1.361-.63-1.362-.01.005z"/></svg>