<svg width="120" height="120" viewBox="0 0 120 120" fill="none" xmlns="http://www.w3.org/2000/svg">
<path d="M8.1 116V117.5H8.13227L8.16451 117.499L8.1 116ZM10.64 115.891L10.797 114.399L10.6865 114.387L10.5755 114.392L10.64 115.891ZM13.28 116.169L13.123 117.66L13.2739 117.676L13.425 117.662L13.28 116.169ZM15.92 115.912L15.8596 114.413L15.8172 114.415L15.775 114.419L15.92 115.912ZM18.56 115.806L18.6763 114.31L18.588 114.303L18.4996 114.307L18.56 115.806ZM21.2 116.011L21.0837 117.507L21.1392 117.511L21.1948 117.511L21.2 116.011ZM23.84 116.02L23.8348 117.52L23.8912 117.52L23.9474 117.516L23.84 116.02ZM26.48 115.831L26.5223 114.331L26.4473 114.329L26.3726 114.334L26.48 115.831ZM29.12 115.905L29.2963 114.415L29.2295 114.408L29.1623 114.406L29.12 115.905ZM31.76 116.217L31.5837 117.707L31.7941 117.732L32.0032 117.698L31.76 116.217ZM34.4 115.784L34.4793 114.286L34.3171 114.277L34.1568 114.303L34.4 115.784ZM37.04 115.923L36.9607 117.421L37.0493 117.426L37.1379 117.42L37.04 115.923ZM39.68 115.751L39.8617 114.262L39.7223 114.245L39.5821 114.254L39.68 115.751ZM42.32 116.073L42.1383 117.562L42.2533 117.576L42.3692 117.572L42.32 116.073ZM44.96 115.986L44.9117 114.487L44.9108 114.487L44.96 115.986ZM47.6 115.901L47.6483 117.401L47.6707 117.4L47.693 117.398L47.6 115.901ZM50.24 115.737L50.5012 114.26L50.3253 114.229L50.147 114.24L50.24 115.737ZM52.88 116.204L52.6188 117.681L52.879 117.727L53.1393 117.682L52.88 116.204ZM55.52 115.741L55.6608 114.247L55.4596 114.228L55.2606 114.263L55.52 115.741ZM58.16 115.99L58.0192 117.483L58.1299 117.493L58.2409 117.487L58.16 115.99ZM60.8 115.847L61.0126 114.362L60.8665 114.341L60.7191 114.349L60.8 115.847ZM63.44 116.225L63.2274 117.71L63.4714 117.745L63.7137 117.7L63.44 116.225ZM66.08 115.735L66.1582 114.237L65.9809 114.228L65.8063 114.26L66.08 115.735ZM68.72 115.873L68.6418 117.371L68.6647 117.372L68.6878 117.373L68.72 115.873ZM71.36 115.93L71.3278 117.429L71.3564 117.43L71.3849 117.429L71.36 115.93ZM74 115.886L74.185 114.397L74.0804 114.384L73.975 114.386L74 115.886ZM76.64 116.214L76.455 117.702L76.6155 117.722L76.7765 117.708L76.64 116.214ZM79.28 115.973L79.2685 114.473L79.2059 114.473L79.1435 114.479L79.28 115.973ZM81.92 115.952L82.0888 114.462L81.9989 114.452L81.9085 114.452L81.92 115.952ZM84.56 116.251L84.3912 117.742L84.5876 117.764L84.783 117.735L84.56 116.251ZM87.2 115.854L87.2734 114.356L87.1245 114.349L86.977 114.371L87.2 115.854ZM89.84 115.984L89.9255 114.486L89.9134 114.486L89.84 115.984ZM92.48 116.135L92.3945 117.632L92.4978 117.638L92.6008 117.63L92.48 116.135ZM95.12 115.921L95.1099 114.421L95.0544 114.422L94.9992 114.426L95.12 115.921ZM97.76 115.903L97.9616 114.417L97.8562 114.403L97.7499 114.403L97.76 115.903ZM100.4 116.261L100.198 117.748L100.434 117.78L100.667 117.737L100.4 116.261ZM103.04 115.784L103.284 114.304L103.028 114.262L102.773 114.308L103.04 115.784ZM105.68 116.219L105.436 117.699L105.576 117.722L105.719 117.718L105.68 116.219ZM108.32 116.151L108.359 117.65L108.453 117.648L108.546 117.634L108.32 116.151ZM110.96 115.748L111.313 114.29L111.026 114.221L110.734 114.265L110.96 115.748ZM8 116V117.5H8.1V116V114.5H8V116ZM8.1 116L8.16451 117.499L10.7045 117.389L10.64 115.891L10.5755 114.392L8.03549 114.501L8.1 116ZM10.64 115.891L10.483 117.382L13.123 117.66L13.28 116.169L13.437 114.677L10.797 114.399L10.64 115.891ZM13.28 116.169L13.425 117.662L16.065 117.405L15.92 115.912L15.775 114.419L13.135 114.676L13.28 116.169ZM15.92 115.912L15.9804 117.411L18.6204 117.305L18.56 115.806L18.4996 114.307L15.8596 114.413L15.92 115.912ZM18.56 115.806L18.4437 117.301L21.0837 117.507L21.2 116.011L21.3163 114.516L18.6763 114.31L18.56 115.806ZM21.2 116.011L21.1948 117.511L23.8348 117.52L23.84 116.02L23.8452 114.52L21.2052 114.511L21.2 116.011ZM23.84 116.02L23.9474 117.516L26.5874 117.327L26.48 115.831L26.3726 114.334L23.7326 114.524L23.84 116.02ZM26.48 115.831L26.4377 117.33L29.0777 117.404L29.12 115.905L29.1623 114.406L26.5223 114.331L26.48 115.831ZM29.12 115.905L28.9437 117.395L31.5837 117.707L31.76 116.217L31.9363 114.728L29.2963 114.415L29.12 115.905ZM31.76 116.217L32.0032 117.698L34.6432 117.264L34.4 115.784L34.1568 114.303L31.5168 114.737L31.76 116.217ZM34.4 115.784L34.3207 117.282L36.9607 117.421L37.04 115.923L37.1193 114.426L34.4793 114.286L34.4 115.784ZM37.04 115.923L37.1379 117.42L39.7779 117.248L39.68 115.751L39.5821 114.254L36.9421 114.427L37.04 115.923ZM39.68 115.751L39.4983 117.24L42.1383 117.562L42.32 116.073L42.5017 114.584L39.8617 114.262L39.68 115.751ZM42.32 116.073L42.3692 117.572L45.0092 117.486L44.96 115.986L44.9108 114.487L42.2708 114.574L42.32 116.073ZM44.96 115.986L45.0083 117.486L47.6483 117.401L47.6 115.901L47.5517 114.402L44.9117 114.487L44.96 115.986ZM47.6 115.901L47.693 117.398L50.333 117.234L50.24 115.737L50.147 114.24L47.507 114.404L47.6 115.901ZM50.24 115.737L49.9788 117.214L52.6188 117.681L52.88 116.204L53.1412 114.727L50.5012 114.26L50.24 115.737ZM52.88 116.204L53.1393 117.682L55.7793 117.218L55.52 115.741L55.2606 114.263L52.6207 114.727L52.88 116.204ZM55.52 115.741L55.3792 117.234L58.0192 117.483L58.16 115.99L58.3008 114.496L55.6608 114.247L55.52 115.741ZM58.16 115.99L58.2409 117.487L60.8809 117.345L60.8 115.847L60.7191 114.349L58.0791 114.492L58.16 115.99ZM60.8 115.847L60.5874 117.332L63.2274 117.71L63.44 116.225L63.6526 114.74L61.0126 114.362L60.8 115.847ZM63.44 116.225L63.7137 117.7L66.3537 117.21L66.08 115.735L65.8063 114.26L63.1663 114.75L63.44 116.225ZM66.08 115.735L66.0018 117.233L68.6418 117.371L68.72 115.873L68.7982 114.375L66.1582 114.237L66.08 115.735ZM68.72 115.873L68.6878 117.373L71.3278 117.429L71.36 115.93L71.3922 114.43L68.7522 114.373L68.72 115.873ZM71.36 115.93L71.3849 117.429L74.0249 117.386L74 115.886L73.975 114.386L71.335 114.43L71.36 115.93ZM74 115.886L73.815 117.374L76.455 117.702L76.64 116.214L76.825 114.725L74.185 114.397L74 115.886ZM76.64 116.214L76.7765 117.708L79.4165 117.466L79.28 115.973L79.1435 114.479L76.5035 114.72L76.64 116.214ZM79.28 115.973L79.2915 117.473L81.9315 117.452L81.92 115.952L81.9085 114.452L79.2685 114.473L79.28 115.973ZM81.92 115.952L81.7512 117.443L84.3912 117.742L84.56 116.251L84.7288 114.761L82.0888 114.462L81.92 115.952ZM84.56 116.251L84.783 117.735L87.423 117.338L87.2 115.854L86.977 114.371L84.337 114.768L84.56 116.251ZM87.2 115.854L87.1266 117.353L89.7666 117.482L89.84 115.984L89.9134 114.486L87.2734 114.356L87.2 115.854ZM89.84 115.984L89.7545 117.481L92.3945 117.632L92.48 116.135L92.5655 114.637L89.9255 114.486L89.84 115.984ZM92.48 116.135L92.6008 117.63L95.2408 117.416L95.12 115.921L94.9992 114.426L92.3592 114.639L92.48 116.135ZM95.12 115.921L95.1301 117.421L97.7701 117.403L97.76 115.903L97.7499 114.403L95.1099 114.421L95.12 115.921ZM97.76 115.903L97.5584 117.39L100.198 117.748L100.4 116.261L100.602 114.775L97.9616 114.417L97.76 115.903ZM100.4 116.261L100.667 117.737L103.307 117.26L103.04 115.784L102.773 114.308L100.133 114.785L100.4 116.261ZM103.04 115.784L102.796 117.264L105.436 117.699L105.68 116.219L105.924 114.738L103.284 114.304L103.04 115.784ZM105.68 116.219L105.719 117.718L108.359 117.65L108.32 116.151L108.281 114.651L105.641 114.719L105.68 116.219ZM108.32 116.151L108.546 117.634L111.186 117.231L110.96 115.748L110.734 114.265L108.094 114.668L108.32 116.151ZM110.96 115.748L110.607 117.206L111.647 117.458L112 116L112.353 114.542L111.313 114.29L110.96 115.748Z" fill="black"/>
<path d="M26.1 89V90.5H26.1323L26.1645 90.4986L26.1 89ZM28.64 88.8907L28.797 87.3989L28.6865 87.3873L28.5755 87.3921L28.64 88.8907ZM31.28 89.1686L31.123 90.6603L31.2739 90.6762L31.425 90.6615L31.28 89.1686ZM33.92 88.9122L33.8596 87.4134L33.8172 87.4151L33.775 87.4192L33.92 88.9122ZM36.56 88.8058L36.6763 87.3103L36.588 87.3034L36.4996 87.307L36.56 88.8058ZM39.2 89.0111L39.0837 90.5065L39.1392 90.5109L39.1948 90.511L39.2 89.0111ZM41.84 89.0202L41.8348 90.5202L41.8912 90.5204L41.9474 90.5163L41.84 89.0202ZM44.48 88.8306L44.5223 87.3312L44.4473 87.3291L44.3726 87.3345L44.48 88.8306ZM47.12 88.905L47.2962 87.4154L47.2295 87.4075L47.1623 87.4056L47.12 88.905ZM49.76 89.2174L49.5837 90.707L49.7941 90.7319L50.0032 90.6976L49.76 89.2174ZM52.4 88.7836L52.4793 87.2857L52.3171 87.2771L52.1568 87.3035L52.4 88.7836ZM55.04 88.9234L54.9607 90.4213L55.0493 90.426L55.1379 90.4202L55.04 88.9234ZM57.68 88.7507L57.8617 87.2618L57.7223 87.2448L57.5821 87.2539L57.68 88.7507ZM60.32 89.0729L60.1383 90.5619L60.2533 90.5759L60.3692 90.5721L60.32 89.0729ZM62.96 88.9863L62.9117 87.4871L62.9108 87.4871L62.96 88.9863ZM65.6 88.9013L65.6483 90.4005L65.6707 90.3998L65.693 90.3984L65.6 88.9013ZM68.24 88.7373L68.5012 87.2603L68.3253 87.2291L68.147 87.2402L68.24 88.7373ZM70.88 89.2042L70.6188 90.6813L70.879 90.7273L71.1393 90.6816L70.88 89.2042ZM73.52 88.7408L73.6608 87.2474L73.4596 87.2285L73.2606 87.2634L73.52 88.7408ZM76.16 88.9897L76.0192 90.4831L76.1299 90.4935L76.2409 90.4875L76.16 88.9897ZM78.8 88.8471L79.0126 87.3622L78.8665 87.3413L78.7191 87.3493L78.8 88.8471ZM81.44 89.225L81.2274 90.7099L81.4714 90.7448L81.7137 90.6998L81.44 89.225ZM84.08 88.7351L84.1582 87.2371L83.9809 87.2278L83.8063 87.2602L84.08 88.7351ZM86.72 88.873L86.6418 90.3709L86.6647 90.3721L86.6878 90.3726L86.72 88.873ZM89.36 88.9297L89.3278 90.4294L89.3564 90.43L89.3849 90.4295L89.36 88.9297ZM92 88.8858L92.5835 87.5039L92.2917 87.3807L91.975 87.386L92 88.8858ZM93.7861 89.64L95.2799 89.5035L95.1981 88.608L94.3696 88.2581L93.7861 89.64ZM94.0274 92.28L95.5274 92.2685L95.5269 92.2059L95.5212 92.1435L94.0274 92.28ZM94.0476 94.92L95.5381 95.0888L95.5483 94.9989L95.5476 94.9085L94.0476 94.92ZM93.7487 97.56L92.2582 97.3912L92.236 97.5876L92.2653 97.783L93.7487 97.56ZM94.1455 100.2L95.6437 100.273L95.651 100.124L95.6288 99.977L94.1455 100.2ZM94.0161 102.84L95.5137 102.925L95.5143 102.913L94.0161 102.84ZM93.8654 105.48L92.3679 105.395L92.362 105.498L92.3703 105.601L93.8654 105.48ZM94.0788 108.12L95.5788 108.11L95.5784 108.054L95.5739 107.999L94.0788 108.12ZM94.0967 110.76L95.5831 110.962L95.5973 110.856L95.5966 110.75L94.0967 110.76ZM93.7386 113.4L92.2522 113.198L92.2307 113.357L92.2432 113.518L93.7386 113.4ZM93.96 116.216L93.7163 117.696L95.6054 118.007L95.4554 116.099L93.96 116.216ZM91.32 115.781L91.5637 114.301L91.4235 114.278L91.2815 114.282L91.32 115.781ZM88.68 115.849L88.6415 114.35L88.5471 114.352L88.4538 114.366L88.68 115.849ZM86.04 116.252L86.0347 117.752L86.1511 117.752L86.2662 117.735L86.04 116.252ZM83.4 116.243L83.1831 117.727L83.2883 117.742L83.3947 117.743L83.4 116.243ZM80.76 115.857L80.9769 114.373L80.8269 114.351L80.6757 114.359L80.76 115.857ZM78.12 116.006L78.128 117.506L78.1662 117.505L78.2044 117.503L78.12 116.006ZM75.48 116.02L75.4392 117.519L75.4636 117.52L75.488 117.52L75.48 116.02ZM72.84 115.948L72.8809 114.448L72.8714 114.448L72.84 115.948ZM70.2 115.892L70.1494 117.392L70.159 117.392L70.1686 117.392L70.2 115.892ZM67.56 115.803L67.6107 114.304L67.4857 114.3L67.3617 114.316L67.56 115.803ZM64.92 116.155L64.8465 117.654L64.9829 117.66L65.1183 117.642L64.92 116.155ZM62.28 116.026L62.3535 114.528L62.2561 114.523L62.159 114.531L62.28 116.026ZM59.64 116.24L59.4689 117.73L59.6147 117.746L59.761 117.735L59.64 116.24ZM57 115.936L57.1711 114.446L57.0646 114.434L56.9574 114.437L57 115.936ZM54.36 116.012L54.3628 117.512L54.3827 117.512L54.4027 117.511L54.36 116.012ZM51.72 116.016L51.7172 114.516L51.6818 114.517L51.6464 114.518L51.72 116.016ZM49.08 116.146L49.0507 117.646L49.1022 117.647L49.1536 117.644L49.08 116.146ZM46.44 116.095L46.4091 117.594L46.4107 117.594L46.44 116.095ZM43.8 116.04L43.8309 114.541L43.8178 114.54L43.8 116.04ZM41.16 116.009L41.1778 114.509L41.1429 114.509L41.108 114.51L41.16 116.009ZM38.52 116.101L38.5691 117.6L38.5721 117.6L38.52 116.101ZM35.88 116.187L35.87 117.687L35.8995 117.687L35.9291 117.686L35.88 116.187ZM33.24 116.169L33.2123 117.669L33.2211 117.669L33.23 117.669L33.24 116.169ZM30.6 116.12L30.4282 117.611L30.5 117.619L30.5723 117.62L30.6 116.12ZM27.96 115.816L27.5695 117.264L27.6773 117.294L27.7882 117.306L27.96 115.816ZM26.1199 115.32L24.6279 115.474L24.7337 116.5L25.7294 116.768L26.1199 115.32ZM25.8474 112.68L24.3474 112.683L24.3476 112.758L24.3554 112.834L25.8474 112.68ZM25.8429 110.04L24.3467 109.934L24.3429 109.988L24.3429 110.043L25.8429 110.04ZM26.0301 107.4L27.5263 107.506L27.5284 107.476L27.5294 107.445L26.0301 107.4ZM26.1099 104.76L27.6092 104.805L27.6095 104.796L27.6097 104.786L26.1099 104.76ZM26.1553 102.12L24.6555 102.092L24.6555 102.094L26.1553 102.12ZM26.2046 99.48L27.7043 99.508L27.7051 99.4679L27.7037 99.4278L26.2046 99.48ZM26.1126 96.84L24.6127 96.8201L24.6123 96.8562L24.6135 96.8922L26.1126 96.84ZM26.1476 94.2L24.649 94.1351L24.648 94.1576L24.6477 94.1801L26.1476 94.2ZM26.2619 91.56L27.7605 91.6249L27.7658 91.5018L27.751 91.3795L26.2619 91.56ZM25.9517 89V87.5H24.2589L24.4626 89.1805L25.9517 89ZM26 89V90.5H26.1V89V87.5H26V89ZM26.1 89L26.1645 90.4986L28.7045 90.3893L28.64 88.8907L28.5755 87.3921L26.0355 87.5014L26.1 89ZM28.64 88.8907L28.483 90.3824L31.123 90.6603L31.28 89.1686L31.437 87.6768L28.797 87.3989L28.64 88.8907ZM31.28 89.1686L31.425 90.6615L34.065 90.4052L33.92 88.9122L33.775 87.4192L31.135 87.6756L31.28 89.1686ZM33.92 88.9122L33.9804 90.411L36.6204 90.3046L36.56 88.8058L36.4996 87.307L33.8596 87.4134L33.92 88.9122ZM36.56 88.8058L36.4437 90.3013L39.0837 90.5065L39.2 89.0111L39.3163 87.5156L36.6763 87.3103L36.56 88.8058ZM39.2 89.0111L39.1948 90.511L41.8348 90.5202L41.84 89.0202L41.8452 87.5202L39.2052 87.5111L39.2 89.0111ZM41.84 89.0202L41.9474 90.5163L44.5874 90.3268L44.48 88.8306L44.3726 87.3345L41.7326 87.524L41.84 89.0202ZM44.48 88.8306L44.4377 90.33L47.0777 90.4044L47.12 88.905L47.1623 87.4056L44.5223 87.3312L44.48 88.8306ZM47.12 88.905L46.9437 90.3946L49.5837 90.707L49.76 89.2174L49.9362 87.7278L47.2962 87.4154L47.12 88.905ZM49.76 89.2174L50.0032 90.6976L52.6432 90.2638L52.4 88.7836L52.1568 87.3035L49.5168 87.7373L49.76 89.2174ZM52.4 88.7836L52.3207 90.2815L54.9607 90.4213L55.04 88.9234L55.1193 87.4255L52.4793 87.2857L52.4 88.7836ZM55.04 88.9234L55.1379 90.4202L57.7779 90.2476L57.68 88.7507L57.5821 87.2539L54.9421 87.4266L55.04 88.9234ZM57.68 88.7507L57.4983 90.2397L60.1383 90.5619L60.32 89.0729L60.5017 87.584L57.8617 87.2618L57.68 88.7507ZM60.32 89.0729L60.3692 90.5721L63.0092 90.4855L62.96 88.9863L62.9108 87.4871L60.2708 87.5737L60.32 89.0729ZM62.96 88.9863L63.0083 90.4856L65.6483 90.4005L65.6 88.9013L65.5517 87.4021L62.9117 87.4871L62.96 88.9863ZM65.6 88.9013L65.693 90.3984L68.333 90.2344L68.24 88.7373L68.147 87.2402L65.507 87.4042L65.6 88.9013ZM68.24 88.7373L67.9788 90.2144L70.6188 90.6813L70.88 89.2042L71.1412 87.7271L68.5012 87.2603L68.24 88.7373ZM70.88 89.2042L71.1393 90.6816L73.7793 90.2182L73.52 88.7408L73.2606 87.2634L70.6207 87.7268L70.88 89.2042ZM73.52 88.7408L73.3792 90.2342L76.0192 90.4831L76.16 88.9897L76.3008 87.4963L73.6608 87.2474L73.52 88.7408ZM76.16 88.9897L76.2409 90.4875L78.8809 90.3449L78.8 88.8471L78.7191 87.3493L76.0791 87.4919L76.16 88.9897ZM78.8 88.8471L78.5874 90.3319L81.2274 90.7099L81.44 89.225L81.6526 87.7402L79.0126 87.3622L78.8 88.8471ZM81.44 89.225L81.7137 90.6998L84.3537 90.2099L84.08 88.7351L83.8063 87.2602L81.1663 87.7502L81.44 89.225ZM84.08 88.7351L84.0018 90.233L86.6418 90.3709L86.72 88.873L86.7982 87.375L84.1582 87.2371L84.08 88.7351ZM86.72 88.873L86.6878 90.3726L89.3278 90.4294L89.36 88.9297L89.3922 87.43L86.7522 87.3733L86.72 88.873ZM89.36 88.9297L89.3849 90.4295L92.0249 90.3856L92 88.8858L91.975 87.386L89.335 87.4299L89.36 88.9297ZM92 88.8858L91.4165 90.2676L93.2026 91.0219L93.7861 89.64L94.3696 88.2581L92.5835 87.5039L92 88.8858ZM93.7861 89.64L92.2924 89.7765L92.5337 92.4165L94.0274 92.28L95.5212 92.1435L95.2799 89.5035L93.7861 89.64ZM94.0274 92.28L92.5275 92.2915L92.5477 94.9315L94.0476 94.92L95.5476 94.9085L95.5274 92.2685L94.0274 92.28ZM94.0476 94.92L92.5571 94.7512L92.2582 97.3912L93.7487 97.56L95.2392 97.7288L95.5381 95.0888L94.0476 94.92ZM93.7487 97.56L92.2653 97.783L92.6622 100.423L94.1455 100.2L95.6288 99.977L95.232 97.337L93.7487 97.56ZM94.1455 100.2L92.6473 100.127L92.5179 102.767L94.0161 102.84L95.5143 102.913L95.6437 100.273L94.1455 100.2ZM94.0161 102.84L92.5186 102.755L92.3679 105.395L93.8654 105.48L95.363 105.565L95.5137 102.925L94.0161 102.84ZM93.8654 105.48L92.3703 105.601L92.5837 108.241L94.0788 108.12L95.5739 107.999L95.3606 105.359L93.8654 105.48ZM94.0788 108.12L92.5788 108.13L92.5967 110.77L94.0967 110.76L95.5966 110.75L95.5788 108.11L94.0788 108.12ZM94.0967 110.76L92.6103 110.558L92.2522 113.198L93.7386 113.4L95.225 113.602L95.5831 110.962L94.0967 110.76ZM93.7386 113.4L92.2432 113.518L92.4646 116.334L93.96 116.216L95.4554 116.099L95.234 113.282L93.7386 113.4ZM93.96 116.216L94.2037 114.736L91.5637 114.301L91.32 115.781L91.0763 117.262L93.7163 117.696L93.96 116.216ZM91.32 115.781L91.2815 114.282L88.6415 114.35L88.68 115.849L88.7185 117.349L91.3585 117.281L91.32 115.781ZM88.68 115.849L88.4538 114.366L85.8138 114.769L86.04 116.252L86.2662 117.735L88.9062 117.332L88.68 115.849ZM86.04 116.252L86.0453 114.752L83.4053 114.743L83.4 116.243L83.3947 117.743L86.0347 117.752L86.04 116.252ZM83.4 116.243L83.6169 114.758L80.9769 114.373L80.76 115.857L80.5431 117.341L83.1831 117.727L83.4 116.243ZM80.76 115.857L80.6757 114.359L78.0357 114.508L78.12 116.006L78.2044 117.503L80.8444 117.355L80.76 115.857ZM78.12 116.006L78.112 114.506L75.472 114.52L75.48 116.02L75.488 117.52L78.128 117.506L78.12 116.006ZM75.48 116.02L75.5209 114.52L72.8809 114.448L72.84 115.948L72.7992 117.447L75.4392 117.519L75.48 116.02ZM72.84 115.948L72.8714 114.448L70.2314 114.393L70.2 115.892L70.1686 117.392L72.8086 117.447L72.84 115.948ZM70.2 115.892L70.2507 114.393L67.6107 114.304L67.56 115.803L67.5094 117.302L70.1494 117.392L70.2 115.892ZM67.56 115.803L67.3617 114.316L64.7217 114.668L64.92 116.155L65.1183 117.642L67.7583 117.29L67.56 115.803ZM64.92 116.155L64.9935 114.657L62.3535 114.528L62.28 116.026L62.2065 117.524L64.8465 117.654L64.92 116.155ZM62.28 116.026L62.159 114.531L59.519 114.744L59.64 116.24L59.761 117.735L62.401 117.521L62.28 116.026ZM59.64 116.24L59.8111 114.749L57.1711 114.446L57 115.936L56.8289 117.427L59.4689 117.73L59.64 116.24ZM57 115.936L56.9574 114.437L54.3174 114.512L54.36 116.012L54.4027 117.511L57.0427 117.436L57 115.936ZM54.36 116.012L54.3572 114.512L51.7172 114.516L51.72 116.016L51.7228 117.516L54.3628 117.512L54.36 116.012ZM51.72 116.016L51.6464 114.518L49.0064 114.648L49.08 116.146L49.1536 117.644L51.7936 117.515L51.72 116.016ZM49.08 116.146L49.1093 114.647L46.4693 114.595L46.44 116.095L46.4107 117.594L49.0507 117.646L49.08 116.146ZM46.44 116.095L46.4709 114.595L43.8309 114.541L43.8 116.04L43.7691 117.54L46.4091 117.594L46.44 116.095ZM43.8 116.04L43.8178 114.54L41.1778 114.509L41.16 116.009L41.1422 117.509L43.7822 117.54L43.8 116.04ZM41.16 116.009L41.108 114.51L38.468 114.602L38.52 116.101L38.5721 117.6L41.212 117.508L41.16 116.009ZM38.52 116.101L38.4709 114.601L35.8309 114.688L35.88 116.187L35.9291 117.686L38.5691 117.6L38.52 116.101ZM35.88 116.187L35.8901 114.687L33.2501 114.669L33.24 116.169L33.23 117.669L35.87 117.687L35.88 116.187ZM33.24 116.169L33.2678 114.67L30.6277 114.621L30.6 116.12L30.5723 117.62L33.2123 117.669L33.24 116.169ZM30.6 116.12L30.7718 114.63L28.1318 114.326L27.96 115.816L27.7882 117.306L30.4282 117.611L30.6 116.12ZM27.96 115.816L28.3505 114.368L26.5104 113.872L26.1199 115.32L25.7294 116.768L27.5695 117.264L27.96 115.816ZM26.1199 115.32L27.612 115.166L27.3395 112.526L25.8474 112.68L24.3554 112.834L24.6279 115.474L26.1199 115.32ZM25.8474 112.68L27.3474 112.677L27.3429 110.037L25.8429 110.04L24.3429 110.043L24.3474 112.683L25.8474 112.68ZM25.8429 110.04L27.3392 110.146L27.5263 107.506L26.0301 107.4L24.5338 107.294L24.3467 109.934L25.8429 110.04ZM26.0301 107.4L27.5294 107.445L27.6092 104.805L26.1099 104.76L24.6106 104.715L24.5307 107.355L26.0301 107.4ZM26.1099 104.76L27.6097 104.786L27.6551 102.146L26.1553 102.12L24.6555 102.094L24.6101 104.734L26.1099 104.76ZM26.1553 102.12L27.655 102.148L27.7043 99.508L26.2046 99.48L24.7049 99.452L24.6555 102.092L26.1553 102.12ZM26.2046 99.48L27.7037 99.4278L27.6117 96.7878L26.1126 96.84L24.6135 96.8922L24.7055 99.5322L26.2046 99.48ZM26.1126 96.84L27.6125 96.8599L27.6475 94.2199L26.1476 94.2L24.6477 94.1801L24.6127 96.8201L26.1126 96.84ZM26.1476 94.2L27.6462 94.2649L27.7605 91.6249L26.2619 91.56L24.7633 91.4951L24.649 94.1351L26.1476 94.2ZM26.2619 91.56L27.751 91.3795L27.4408 88.8195L25.9517 89L24.4626 89.1805L24.7728 91.7405L26.2619 91.56ZM25.9517 89V90.5H26V89V87.5H25.9517V89Z" fill="black"/>
<path d="M33.6544 69V67.5H32.097L32.1555 69.0563L33.6544 69ZM33.7544 69V70.5H33.7867L33.8189 70.4986L33.7544 69ZM36.2944 68.8907L36.4514 67.3989L36.3409 67.3873L36.2299 67.3921L36.2944 68.8907ZM38.9344 69.1686L38.7774 70.6603L38.9283 70.6762L39.0794 70.6615L38.9344 69.1686ZM41.5744 68.9122L41.514 67.4134L41.4716 67.4151L41.4294 67.4192L41.5744 68.9122ZM44.2144 68.8058L44.3307 67.3103L44.2424 67.3034L44.154 67.307L44.2144 68.8058ZM46.8544 69.0111L46.7381 70.5065L46.7936 70.5109L46.8492 70.511L46.8544 69.0111ZM49.4944 69.0202L49.4892 70.5202L49.5456 70.5204L49.6018 70.5163L49.4944 69.0202ZM52.1344 68.8306L52.1767 67.3312L52.1017 67.3291L52.027 67.3345L52.1344 68.8306ZM54.7744 68.905L54.9507 67.4154L54.8839 67.4075L54.8167 67.4056L54.7744 68.905ZM57.4144 69.2174L57.2382 70.707L57.4486 70.7319L57.6576 70.6976L57.4144 69.2174ZM60.0544 68.7836L60.1337 67.2857L59.9715 67.2771L59.8112 67.3035L60.0544 68.7836ZM62.6944 68.9234L62.6151 70.4213L62.7037 70.426L62.7923 70.4202L62.6944 68.9234ZM65.3344 68.7507L65.5161 67.2618L65.3767 67.2448L65.2365 67.2539L65.3344 68.7507ZM67.9744 69.0729L67.7927 70.5619L67.9077 70.5759L68.0236 70.5721L67.9744 69.0729ZM70.6144 68.9863L70.5661 67.4871L70.5652 67.4871L70.6144 68.9863ZM73.2544 68.9013L73.3027 70.4005L73.3251 70.3998L73.3474 70.3984L73.2544 68.9013ZM75.8944 68.7373L76.1556 67.2603L75.9797 67.2291L75.8014 67.2402L75.8944 68.7373ZM78.5344 69.2042L78.2732 70.6813L78.5334 70.7273L78.7938 70.6816L78.5344 69.2042ZM81.1744 68.7408L81.3152 67.2474L81.1141 67.2285L80.9151 67.2634L81.1744 68.7408ZM83.8144 68.9897L83.6736 70.4831L83.7149 70.487L83.7564 70.4886L83.8144 68.9897ZM86.5132 69.0941L87.9981 69.3067L88.2339 67.6596L86.5712 67.5952L86.5132 69.0941ZM86.1353 71.7341L84.6504 71.5216L84.6155 71.7655L84.6604 72.0078L86.1353 71.7341ZM86.6252 74.3741L88.1232 74.4524L88.1325 74.275L88.1 74.1004L86.6252 74.3741ZM86.4873 77.0141L87.9825 77.1338L87.9842 77.1131L87.9853 77.0924L86.4873 77.0141ZM86.2765 79.6483L84.7812 79.5286L84.7805 79.5382L86.2765 79.6483ZM86.0846 82.2554L84.5886 82.1453L84.5815 82.2425L84.587 82.3399L86.0846 82.2554ZM86.235 84.9203L84.7373 85.0048L84.7637 85.4723L85.0514 85.8417L86.235 84.9203ZM87.8743 87.0259L86.6907 87.9474L86.8645 88.1706L87.1076 88.3151L87.8743 87.0259ZM90.1117 88.3564L89.3451 89.6457L89.4857 89.7293L89.6411 89.7807L90.1117 88.3564ZM92.6458 89.1936L92.1752 90.6179L93.1573 90.9424L93.8097 90.1398L92.6458 89.1936ZM92.6849 89.1455L93.8488 90.0917L95.718 87.7924L92.7583 87.6473L92.6849 89.1455ZM90.0449 89.0161L89.9594 90.5137L89.9715 90.5143L90.0449 89.0161ZM87.4049 88.8654L87.4904 87.3679L87.3871 87.362L87.284 87.3703L87.4049 88.8654ZM84.7649 89.0788L84.775 90.5788L84.8305 90.5784L84.8857 90.5739L84.7649 89.0788ZM82.1249 89.0967L81.9233 90.5831L82.0287 90.5973L82.135 90.5966L82.1249 89.0967ZM79.4849 88.7386L79.6865 87.2522L79.4513 87.2203L79.2178 87.2626L79.4849 88.7386ZM76.8449 89.2162L76.6011 90.6963L76.8569 90.7384L77.1119 90.6923L76.8449 89.2162ZM74.2049 88.7815L74.4486 87.3014L74.3084 87.2783L74.1664 87.282L74.2049 88.7815ZM71.5649 88.8493L71.5264 87.3498L71.432 87.3522L71.3387 87.3665L71.5649 88.8493ZM68.9249 89.2521L68.9195 90.7521L69.036 90.7525L69.1511 90.7349L68.9249 89.2521ZM66.2849 89.2427L66.068 90.7269L66.1732 90.7423L66.2795 90.7427L66.2849 89.2427ZM63.6449 88.8569L63.8617 87.3727L63.7118 87.3508L63.5605 87.3593L63.6449 88.8569ZM61.0049 89.0056L61.0129 90.5056L61.0511 90.5054L61.0892 90.5033L61.0049 89.0056ZM58.3649 89.0197L58.324 90.5192L58.3485 90.5198L58.3729 90.5197L58.3649 89.0197ZM55.7249 88.9478L55.7657 87.4483L55.7563 87.4481L55.7249 88.9478ZM53.0849 88.8925L53.0342 90.3916L53.0438 90.392L53.0535 90.3922L53.0849 88.8925ZM50.4449 88.8033L50.4955 87.3041L50.3706 87.2999L50.2466 87.3164L50.4449 88.8033ZM47.8049 89.1553L47.7314 90.6535L47.8678 90.6602L48.0031 90.6421L47.8049 89.1553ZM45.1649 89.0259L45.2383 87.5277L45.141 87.5229L45.0439 87.5308L45.1649 89.0259ZM42.5249 89.2395L42.3538 90.7297L42.4996 90.7465L42.6459 90.7346L42.5249 89.2395ZM39.8849 88.9365L40.056 87.4463L39.9494 87.434L39.8422 87.4371L39.8849 88.9365ZM37.2449 89.0116L37.2477 90.5116L37.2676 90.5115L37.2875 90.511L37.2449 89.0116ZM34.6049 89.0165L34.6021 87.5165L34.5666 87.5165L34.5312 87.5183L34.6049 89.0165ZM31.9649 89.1462L31.9356 90.6459L31.9871 90.6469L32.0385 90.6444L31.9649 89.1462ZM29.3249 89.0947L29.294 90.5944L29.2956 90.5944L29.3249 89.0947ZM26.6849 89.0403L26.5267 90.5319L26.5902 90.5386L26.654 90.5399L26.6849 89.0403ZM25.9544 88.9628L25.6543 87.4931L25.7963 90.4545L25.9544 88.9628ZM28.5275 88.4374L28.8276 89.9071L29.0376 89.8642L29.2271 89.7643L28.5275 88.4374ZM30.8072 87.2353L31.5068 88.5622L31.7381 88.4402L31.9145 88.2472L30.8072 87.2353ZM32.5276 85.3528L33.6348 86.3647L33.821 86.161L33.9225 85.9043L32.5276 85.3528ZM33.4765 82.9525L34.8715 83.504L34.9232 83.3731L34.9497 83.2349L33.4765 82.9525ZM33.9773 80.3403L35.4505 80.6227L35.4884 80.4251L35.4728 80.2245L33.9773 80.3403ZM33.7743 77.7196L35.2699 77.6037L35.2684 77.5846L35.2664 77.5656L33.7743 77.7196ZM33.5018 75.0796L32.0018 75.0821L32.002 75.158L32.0098 75.2336L33.5018 75.0796ZM33.4974 72.4396L32.0011 72.3335L31.9973 72.3877L31.9974 72.4421L33.4974 72.4396ZM33.6845 69.7996L35.1807 69.9056L35.1865 69.8245L35.1834 69.7432L33.6845 69.7996ZM33.6544 69V70.5H33.7544V69V67.5H33.6544V69ZM33.7544 69L33.8189 70.4986L36.3589 70.3893L36.2944 68.8907L36.2299 67.3921L33.6899 67.5014L33.7544 69ZM36.2944 68.8907L36.1374 70.3824L38.7774 70.6603L38.9344 69.1686L39.0914 67.6768L36.4514 67.3989L36.2944 68.8907ZM38.9344 69.1686L39.0794 70.6615L41.7194 70.4052L41.5744 68.9122L41.4294 67.4192L38.7894 67.6756L38.9344 69.1686ZM41.5744 68.9122L41.6348 70.411L44.2748 70.3046L44.2144 68.8058L44.154 67.307L41.514 67.4134L41.5744 68.9122ZM44.2144 68.8058L44.0981 70.3013L46.7381 70.5065L46.8544 69.0111L46.9707 67.5156L44.3307 67.3103L44.2144 68.8058ZM46.8544 69.0111L46.8492 70.511L49.4892 70.5202L49.4944 69.0202L49.4996 67.5202L46.8596 67.5111L46.8544 69.0111ZM49.4944 69.0202L49.6018 70.5163L52.2418 70.3268L52.1344 68.8306L52.027 67.3345L49.387 67.524L49.4944 69.0202ZM52.1344 68.8306L52.0921 70.33L54.7321 70.4044L54.7744 68.905L54.8167 67.4056L52.1767 67.3312L52.1344 68.8306ZM54.7744 68.905L54.5982 70.3946L57.2382 70.707L57.4144 69.2174L57.5907 67.7278L54.9507 67.4154L54.7744 68.905ZM57.4144 69.2174L57.6576 70.6976L60.2976 70.2638L60.0544 68.7836L59.8112 67.3035L57.1712 67.7373L57.4144 69.2174ZM60.0544 68.7836L59.9751 70.2815L62.6151 70.4213L62.6944 68.9234L62.7737 67.4255L60.1337 67.2857L60.0544 68.7836ZM62.6944 68.9234L62.7923 70.4202L65.4323 70.2476L65.3344 68.7507L65.2365 67.2539L62.5965 67.4266L62.6944 68.9234ZM65.3344 68.7507L65.1527 70.2397L67.7927 70.5619L67.9744 69.0729L68.1561 67.584L65.5161 67.2618L65.3344 68.7507ZM67.9744 69.0729L68.0236 70.5721L70.6636 70.4855L70.6144 68.9863L70.5652 67.4871L67.9252 67.5737L67.9744 69.0729ZM70.6144 68.9863L70.6627 70.4856L73.3027 70.4005L73.2544 68.9013L73.2061 67.4021L70.5661 67.4871L70.6144 68.9863ZM73.2544 68.9013L73.3474 70.3984L75.9874 70.2344L75.8944 68.7373L75.8014 67.2402L73.1614 67.4042L73.2544 68.9013ZM75.8944 68.7373L75.6332 70.2144L78.2732 70.6813L78.5344 69.2042L78.7956 67.7271L76.1556 67.2603L75.8944 68.7373ZM78.5344 69.2042L78.7938 70.6816L81.4338 70.2182L81.1744 68.7408L80.9151 67.2634L78.2751 67.7268L78.5344 69.2042ZM81.1744 68.7408L81.0336 70.2342L83.6736 70.4831L83.8144 68.9897L83.9552 67.4963L81.3152 67.2474L81.1744 68.7408ZM83.8144 68.9897L83.7564 70.4886L86.4552 70.593L86.5132 69.0941L86.5712 67.5952L83.8724 67.4908L83.8144 68.9897ZM86.5132 69.0941L85.0283 68.8816L84.6504 71.5216L86.1353 71.7341L87.6201 71.9467L87.9981 69.3067L86.5132 69.0941ZM86.1353 71.7341L84.6604 72.0078L85.1504 74.6478L86.6252 74.3741L88.1 74.1004L87.6101 71.4604L86.1353 71.7341ZM86.6252 74.3741L85.1273 74.2959L84.9894 76.9359L86.4873 77.0141L87.9853 77.0924L88.1232 74.4524L86.6252 74.3741ZM86.4873 77.0141L84.9921 76.8944L84.7813 79.5286L86.2765 79.6483L87.7717 79.768L87.9825 77.1338L86.4873 77.0141ZM86.2765 79.6483L84.7805 79.5382L84.5886 82.1453L86.0846 82.2554L87.5806 82.3655L87.7724 79.7584L86.2765 79.6483ZM86.0846 82.2554L84.587 82.3399L84.7373 85.0048L86.235 84.9203L87.7326 84.8358L87.5822 82.1708L86.0846 82.2554ZM86.235 84.9203L85.0514 85.8417L86.6907 87.9474L87.8743 87.0259L89.0579 86.1044L87.4186 83.9988L86.235 84.9203ZM87.8743 87.0259L87.1076 88.3151L89.3451 89.6457L90.1117 88.3564L90.8784 87.0671L88.641 85.7366L87.8743 87.0259ZM90.1117 88.3564L89.6411 89.7807L92.1752 90.6179L92.6458 89.1936L93.1163 87.7694L90.5823 86.9321L90.1117 88.3564ZM92.6458 89.1936L93.8097 90.1398L93.8488 90.0917L92.6849 89.1455L91.5209 88.1993L91.4818 88.2475L92.6458 89.1936ZM92.6849 89.1455L92.7583 87.6473L90.1183 87.5179L90.0449 89.0161L89.9715 90.5143L92.6115 90.6437L92.6849 89.1455ZM90.0449 89.0161L90.1303 87.5186L87.4904 87.3679L87.4049 88.8654L87.3194 90.363L89.9594 90.5137L90.0449 89.0161ZM87.4049 88.8654L87.284 87.3703L84.644 87.5837L84.7649 89.0788L84.8857 90.5739L87.5257 90.3606L87.4049 88.8654ZM84.7649 89.0788L84.7547 87.5788L82.1147 87.5967L82.1249 89.0967L82.135 90.5966L84.775 90.5788L84.7649 89.0788ZM82.1249 89.0967L82.3265 87.6103L79.6865 87.2522L79.4849 88.7386L79.2833 90.225L81.9233 90.5831L82.1249 89.0967ZM79.4849 88.7386L79.2178 87.2626L76.5778 87.7402L76.8449 89.2162L77.1119 90.6923L79.7519 90.2147L79.4849 88.7386ZM76.8449 89.2162L77.0886 87.7362L74.4486 87.3014L74.2049 88.7815L73.9611 90.2616L76.6011 90.6963L76.8449 89.2162ZM74.2049 88.7815L74.1664 87.282L71.5264 87.3498L71.5649 88.8493L71.6034 90.3488L74.2434 90.281L74.2049 88.7815ZM71.5649 88.8493L71.3387 87.3665L68.6987 87.7692L68.9249 89.2521L69.1511 90.7349L71.7911 90.3322L71.5649 88.8493ZM68.9249 89.2521L68.9302 87.7521L66.2902 87.7427L66.2849 89.2427L66.2795 90.7427L68.9195 90.7521L68.9249 89.2521ZM66.2849 89.2427L66.5017 87.7584L63.8617 87.3727L63.6449 88.8569L63.428 90.3412L66.068 90.7269L66.2849 89.2427ZM63.6449 88.8569L63.5605 87.3593L60.9205 87.508L61.0049 89.0056L61.0892 90.5033L63.7292 90.3546L63.6449 88.8569ZM61.0049 89.0056L60.9969 87.5057L58.3569 87.5198L58.3649 89.0197L58.3729 90.5197L61.0129 90.5056L61.0049 89.0056ZM58.3649 89.0197L58.4057 87.5203L55.7657 87.4484L55.7249 88.9478L55.684 90.4473L58.324 90.5192L58.3649 89.0197ZM55.7249 88.9478L55.7563 87.4481L53.1163 87.3928L53.0849 88.8925L53.0535 90.3922L55.6935 90.4475L55.7249 88.9478ZM53.0849 88.8925L53.1355 87.3933L50.4955 87.3041L50.4449 88.8033L50.3942 90.3024L53.0342 90.3916L53.0849 88.8925ZM50.4449 88.8033L50.2466 87.3164L47.6066 87.6685L47.8049 89.1553L48.0031 90.6421L50.6431 90.2901L50.4449 88.8033ZM47.8049 89.1553L47.8783 87.6571L45.2383 87.5277L45.1649 89.0259L45.0914 90.5241L47.7314 90.6535L47.8049 89.1553ZM45.1649 89.0259L45.0439 87.5308L42.4039 87.7444L42.5249 89.2395L42.6459 90.7346L45.2859 90.521L45.1649 89.0259ZM42.5249 89.2395L42.696 87.7493L40.056 87.4463L39.8849 88.9365L39.7138 90.4267L42.3538 90.7297L42.5249 89.2395ZM39.8849 88.9365L39.8422 87.4371L37.2022 87.5122L37.2449 89.0116L37.2875 90.511L39.9275 90.4359L39.8849 88.9365ZM37.2449 89.0116L37.2421 87.5116L34.6021 87.5165L34.6049 89.0165L34.6077 90.5165L37.2477 90.5116L37.2449 89.0116ZM34.6049 89.0165L34.5312 87.5183L31.8912 87.648L31.9649 89.1462L32.0385 90.6444L34.6785 90.5147L34.6049 89.0165ZM31.9649 89.1462L31.9942 87.6465L29.3542 87.595L29.3249 89.0947L29.2956 90.5944L31.9356 90.6459L31.9649 89.1462ZM29.3249 89.0947L29.3558 87.595L26.7158 87.5406L26.6849 89.0403L26.654 90.5399L29.294 90.5944L29.3249 89.0947ZM26.6849 89.0403L26.843 87.5486L26.1126 87.4712L25.9544 88.9628L25.7963 90.4545L26.5267 90.5319L26.6849 89.0403ZM25.9544 88.9628L26.2545 90.4325L28.8276 89.9071L28.5275 88.4374L28.2274 86.9677L25.6543 87.4931L25.9544 88.9628ZM28.5275 88.4374L29.2271 89.7643L31.5068 88.5622L30.8072 87.2353L30.1076 85.9085L27.8278 87.1106L28.5275 88.4374ZM30.8072 87.2353L31.9145 88.2472L33.6348 86.3647L32.5276 85.3528L31.4203 84.3409L29.6999 86.2234L30.8072 87.2353ZM32.5276 85.3528L33.9225 85.9043L34.8715 83.504L33.4765 82.9525L32.0816 82.401L31.1326 84.8013L32.5276 85.3528ZM33.4765 82.9525L34.9497 83.2349L35.4505 80.6227L33.9773 80.3403L32.5041 80.0579L32.0034 82.6701L33.4765 82.9525ZM33.9773 80.3403L35.4728 80.2245L35.2699 77.6037L33.7743 77.7196L32.2788 77.8354L32.4818 80.4561L33.9773 80.3403ZM33.7743 77.7196L35.2664 77.5656L34.9939 74.9256L33.5018 75.0796L32.0098 75.2336L32.2823 77.8736L33.7743 77.7196ZM33.5018 75.0796L35.0018 75.077L34.9974 72.437L33.4974 72.4396L31.9974 72.4421L32.0018 75.0821L33.5018 75.0796ZM33.4974 72.4396L34.9936 72.5456L35.1807 69.9056L33.6845 69.7996L32.1882 69.6935L32.0011 72.3335L33.4974 72.4396ZM33.6845 69.7996L35.1834 69.7432L35.1534 68.9437L33.6544 69L32.1555 69.0563L32.1855 69.8559L33.6845 69.7996Z" fill="black"/>
<path d="M40.7206 49V47.5H39.24L39.2207 48.9804L40.7206 49ZM40.8206 49V50.5H40.8529L40.8851 50.4986L40.8206 49ZM43.3606 48.8907L43.5176 47.3989L43.4071 47.3873L43.2961 47.3921L43.3606 48.8907ZM46.0006 49.1686L45.8436 50.6603L45.9945 50.6762L46.1456 50.6615L46.0006 49.1686ZM48.6406 48.9122L48.5802 47.4134L48.5378 47.4151L48.4956 47.4192L48.6406 48.9122ZM51.2806 48.8058L51.3969 47.3103L51.3086 47.3034L51.2202 47.307L51.2806 48.8058ZM53.9206 49.0111L53.8043 50.5065L53.8598 50.5109L53.9154 50.511L53.9206 49.0111ZM56.5606 49.0202L56.5554 50.5202L56.6118 50.5204L56.668 50.5163L56.5606 49.0202ZM59.2006 48.8306L59.2429 47.3312L59.1679 47.3291L59.0932 47.3345L59.2006 48.8306ZM61.8406 48.905L62.0168 47.4154L61.9501 47.4075L61.8829 47.4056L61.8406 48.905ZM64.4806 49.2174L64.3043 50.707L64.5147 50.7319L64.7238 50.6976L64.4806 49.2174ZM67.1206 48.7836L67.1999 47.2857L67.0377 47.2771L66.8774 47.3035L67.1206 48.7836ZM69.7606 48.9234L69.6813 50.4213L69.7699 50.426L69.8585 50.4202L69.7606 48.9234ZM72.4006 48.7507L72.5823 47.2618L72.4429 47.2448L72.3027 47.2539L72.4006 48.7507ZM75.0406 49.0729L74.8589 50.5619L74.9739 50.5759L75.0898 50.5721L75.0406 49.0729ZM77.6806 48.9863L77.8759 47.4991L77.7542 47.4831L77.6314 47.4871L77.6806 48.9863ZM80.1134 49.3059L81.6105 49.2129L81.5339 47.9796L80.3088 47.8187L80.1134 49.3059ZM80.2774 51.9459L81.7544 52.2071L81.7856 52.0312L81.7745 51.8529L80.2774 51.9459ZM79.8105 54.5859L78.3334 54.3247L78.2874 54.5849L78.3331 54.8452L79.8105 54.5859ZM80.2739 57.2259L81.7606 57.425L81.7914 57.1951L81.7513 56.9665L80.2739 57.2259ZM79.9215 59.857L78.4348 59.6578L78.4167 59.7931L78.4233 59.9293L79.9215 59.857ZM80.0483 62.4826L78.55 62.555L78.5506 62.5651L80.0483 62.4826ZM80.1954 65.1526L78.6977 65.2351L78.7255 65.7411L79.0546 66.1265L80.1954 65.1526ZM81.9145 67.1663L80.7737 68.1402L80.9006 68.2888L81.0613 68.4L81.9145 67.1663ZM83.9791 68.5941L83.1259 69.8278L83.3063 69.9526L83.5148 70.0205L83.9791 68.5941ZM85.4417 69.0703L85.4667 70.5701L85.9061 67.644L85.4417 69.0703ZM82.8017 69.1142L82.6167 70.6028L82.7213 70.6158L82.8267 70.614L82.8017 69.1142ZM80.1617 68.7861L80.3467 67.2976L80.1862 67.2776L80.0252 67.2924L80.1617 68.7861ZM77.5217 69.0274L77.5332 70.5274L77.5959 70.5269L77.6583 70.5212L77.5217 69.0274ZM74.8817 69.0476L74.713 70.5381L74.8028 70.5483L74.8932 70.5476L74.8817 69.0476ZM72.2417 68.7487L72.4105 67.2582L72.2142 67.236L72.0188 67.2653L72.2417 68.7487ZM69.6017 69.1455L69.5283 70.6437L69.6772 70.651L69.8247 70.6288L69.6017 69.1455ZM66.9617 69.0161L66.8763 70.5137L66.8883 70.5143L66.9617 69.0161ZM64.3217 68.8654L64.4072 67.3679L64.304 67.362L64.2009 67.3703L64.3217 68.8654ZM61.6817 69.0788L61.6919 70.5788L61.7473 70.5784L61.8026 70.5739L61.6817 69.0788ZM59.0417 69.0967L58.8402 70.5831L58.9455 70.5973L59.0519 70.5966L59.0417 69.0967ZM56.4017 68.7386L56.6033 67.2522L56.3682 67.2203L56.1347 67.2626L56.4017 68.7386ZM53.7617 69.2162L53.518 70.6963L53.7737 70.7384L54.0288 70.6923L53.7617 69.2162ZM51.1217 68.7815L51.3655 67.3014L51.2253 67.2783L51.0832 67.282L51.1217 68.7815ZM48.4817 68.8493L48.4432 67.3498L48.3488 67.3522L48.2555 67.3665L48.4817 68.8493ZM45.8417 69.2521L45.8364 70.7521L45.9528 70.7525L46.068 70.7349L45.8417 69.2521ZM43.2017 69.2427L42.9849 70.7269L43.0901 70.7423L43.1964 70.7427L43.2017 69.2427ZM40.5617 68.8569L40.7786 67.3727L40.6287 67.3508L40.4774 67.3593L40.5617 68.8569ZM37.9217 69.0056L37.9297 70.5056L37.968 70.5054L38.0061 70.5033L37.9217 69.0056ZM35.2817 69.0197L34.2096 67.9707L31.6968 70.5389L35.2898 70.5197L35.2817 69.0197ZM35.3614 68.9383L34.8147 67.5415L34.5146 67.6589L34.2893 67.8893L35.3614 68.9383ZM37.8349 67.9701L38.3816 69.3669L38.7032 69.241L38.9374 68.9872L37.8349 67.9701ZM39.6551 65.997L40.7576 67.0141L41.0281 66.7209L41.1172 66.332L39.6551 65.997ZM40.2502 63.3993L41.7124 63.7342L41.7199 63.7014L41.7259 63.6683L40.2502 63.3993ZM40.721 60.8174L42.1967 61.0864L42.2334 60.8851L42.2148 60.6813L40.721 60.8174ZM40.4811 58.1827L38.9908 58.0117L38.9732 58.165L38.9872 58.3188L40.4811 58.1827ZM40.7841 55.5427L42.2743 55.7138L42.2866 55.6073L42.2835 55.5001L40.7841 55.5427ZM40.709 52.9027L39.209 52.9055L39.2091 52.9255L39.2096 52.9454L40.709 52.9027ZM40.7041 50.2627L39.2042 50.2432L39.2041 50.2543L39.2041 50.2655L40.7041 50.2627ZM40.7206 49V50.5H40.8206V49V47.5H40.7206V49ZM40.8206 49L40.8851 50.4986L43.4251 50.3893L43.3606 48.8907L43.2961 47.3921L40.7561 47.5014L40.8206 49ZM43.3606 48.8907L43.2036 50.3824L45.8436 50.6603L46.0006 49.1686L46.1576 47.6768L43.5176 47.3989L43.3606 48.8907ZM46.0006 49.1686L46.1456 50.6615L48.7856 50.4052L48.6406 48.9122L48.4956 47.4192L45.8556 47.6756L46.0006 49.1686ZM48.6406 48.9122L48.701 50.411L51.341 50.3046L51.2806 48.8058L51.2202 47.307L48.5802 47.4134L48.6406 48.9122ZM51.2806 48.8058L51.1643 50.3013L53.8043 50.5065L53.9206 49.0111L54.0369 47.5156L51.3969 47.3103L51.2806 48.8058ZM53.9206 49.0111L53.9154 50.511L56.5554 50.5202L56.5606 49.0202L56.5658 47.5202L53.9258 47.5111L53.9206 49.0111ZM56.5606 49.0202L56.668 50.5163L59.308 50.3268L59.2006 48.8306L59.0932 47.3345L56.4532 47.524L56.5606 49.0202ZM59.2006 48.8306L59.1583 50.33L61.7983 50.4044L61.8406 48.905L61.8829 47.4056L59.2429 47.3312L59.2006 48.8306ZM61.8406 48.905L61.6643 50.3946L64.3043 50.707L64.4806 49.2174L64.6568 47.7278L62.0168 47.4154L61.8406 48.905ZM64.4806 49.2174L64.7238 50.6976L67.3638 50.2638L67.1206 48.7836L66.8774 47.3035L64.2374 47.7373L64.4806 49.2174ZM67.1206 48.7836L67.0413 50.2815L69.6813 50.4213L69.7606 48.9234L69.8399 47.4255L67.1999 47.2857L67.1206 48.7836ZM69.7606 48.9234L69.8585 50.4202L72.4985 50.2476L72.4006 48.7507L72.3027 47.2539L69.6627 47.4266L69.7606 48.9234ZM72.4006 48.7507L72.2189 50.2397L74.8589 50.5619L75.0406 49.0729L75.2223 47.584L72.5823 47.2618L72.4006 48.7507ZM75.0406 49.0729L75.0898 50.5721L77.7298 50.4855L77.6806 48.9863L77.6314 47.4871L74.9914 47.5737L75.0406 49.0729ZM77.6806 48.9863L77.4852 50.4736L79.9181 50.7931L80.1134 49.3059L80.3088 47.8187L77.8759 47.4991L77.6806 48.9863ZM80.1134 49.3059L78.6163 49.3989L78.7803 52.0389L80.2774 51.9459L81.7745 51.8529L81.6105 49.2129L80.1134 49.3059ZM80.2774 51.9459L78.8003 51.6847L78.3334 54.3247L79.8105 54.5859L81.2876 54.8471L81.7544 52.2071L80.2774 51.9459ZM79.8105 54.5859L78.3331 54.8452L78.7965 57.4852L80.2739 57.2259L81.7513 56.9665L81.2879 54.3265L79.8105 54.5859ZM80.2739 57.2259L78.7872 57.0268L78.4348 59.6578L79.9215 59.857L81.4082 60.0561L81.7606 57.425L80.2739 57.2259ZM79.9215 59.857L78.4233 59.9293L78.5501 62.555L80.0483 62.4826L81.5466 62.4102L81.4198 59.7846L79.9215 59.857ZM80.0483 62.4826L78.5506 62.5651L78.6977 65.2351L80.1954 65.1526L81.6931 65.0701L81.5461 62.4001L80.0483 62.4826ZM80.1954 65.1526L79.0546 66.1265L80.7737 68.1402L81.9145 67.1663L83.0553 66.1924L81.3362 64.1787L80.1954 65.1526ZM81.9145 67.1663L81.0613 68.4L83.1259 69.8278L83.9791 68.5941L84.8323 67.3604L82.7677 65.9326L81.9145 67.1663ZM83.9791 68.5941L83.5148 70.0205L84.9774 70.4966L85.4417 69.0703L85.9061 67.644L84.4435 67.1678L83.9791 68.5941ZM85.4417 69.0703L85.4168 67.5705L82.7768 67.6144L82.8017 69.1142L82.8267 70.614L85.4667 70.5701L85.4417 69.0703ZM82.8017 69.1142L82.9867 67.6257L80.3467 67.2976L80.1617 68.7861L79.9767 70.2747L82.6167 70.6028L82.8017 69.1142ZM80.1617 68.7861L80.0252 67.2924L77.3852 67.5337L77.5217 69.0274L77.6583 70.5212L80.2983 70.2799L80.1617 68.7861ZM77.5217 69.0274L77.5103 67.5275L74.8703 67.5477L74.8817 69.0476L74.8932 70.5476L77.5332 70.5274L77.5217 69.0274ZM74.8817 69.0476L75.0505 67.5571L72.4105 67.2582L72.2417 68.7487L72.073 70.2391L74.713 70.5381L74.8817 69.0476ZM72.2417 68.7487L72.0188 67.2653L69.3788 67.6622L69.6017 69.1455L69.8247 70.6288L72.4647 70.232L72.2417 68.7487ZM69.6017 69.1455L69.6752 67.6473L67.0352 67.5179L66.9617 69.0161L66.8883 70.5143L69.5283 70.6437L69.6017 69.1455ZM66.9617 69.0161L67.0472 67.5186L64.4072 67.3679L64.3217 68.8654L64.2363 70.363L66.8763 70.5137L66.9617 69.0161ZM64.3217 68.8654L64.2009 67.3703L61.5609 67.5837L61.6817 69.0788L61.8026 70.5739L64.4426 70.3606L64.3217 68.8654ZM61.6817 69.0788L61.6716 67.5788L59.0316 67.5967L59.0417 69.0967L59.0519 70.5966L61.6919 70.5788L61.6817 69.0788ZM59.0417 69.0967L59.2433 67.6103L56.6033 67.2522L56.4017 68.7386L56.2002 70.225L58.8402 70.5831L59.0417 69.0967ZM56.4017 68.7386L56.1347 67.2626L53.4947 67.7402L53.7617 69.2162L54.0288 70.6923L56.6688 70.2147L56.4017 68.7386ZM53.7617 69.2162L54.0055 67.7362L51.3655 67.3014L51.1217 68.7815L50.878 70.2616L53.518 70.6963L53.7617 69.2162ZM51.1217 68.7815L51.0832 67.282L48.4432 67.3498L48.4817 68.8493L48.5203 70.3488L51.1603 70.281L51.1217 68.7815ZM48.4817 68.8493L48.2555 67.3665L45.6155 67.7692L45.8417 69.2521L46.068 70.7349L48.708 70.3322L48.4817 68.8493ZM45.8417 69.2521L45.8471 67.7521L43.2071 67.7427L43.2017 69.2427L43.1964 70.7427L45.8364 70.7521L45.8417 69.2521ZM43.2017 69.2427L43.4186 67.7584L40.7786 67.3727L40.5617 68.8569L40.3449 70.3412L42.9849 70.7269L43.2017 69.2427ZM40.5617 68.8569L40.4774 67.3593L37.8374 67.508L37.9217 69.0056L38.0061 70.5033L40.6461 70.3546L40.5617 68.8569ZM37.9217 69.0056L37.9137 67.5057L35.2737 67.5198L35.2817 69.0197L35.2898 70.5197L37.9297 70.5056L37.9217 69.0056ZM35.2817 69.0197L36.3539 70.0688L36.4336 69.9873L35.3614 68.9383L34.2893 67.8893L34.2096 67.9707L35.2817 69.0197ZM35.3614 68.9383L35.9082 70.3351L38.3816 69.3669L37.8349 67.9701L37.2882 66.5733L34.8147 67.5415L35.3614 68.9383ZM37.8349 67.9701L38.9374 68.9872L40.7576 67.0141L39.6551 65.997L38.5526 64.9799L36.7324 66.953L37.8349 67.9701ZM39.6551 65.997L41.1172 66.332L41.7124 63.7342L40.2502 63.3993L38.7881 63.0643L38.193 65.6621L39.6551 65.997ZM40.2502 63.3993L41.7259 63.6683L42.1967 61.0864L40.721 60.8174L39.2453 60.5483L38.7746 63.1302L40.2502 63.3993ZM40.721 60.8174L42.2148 60.6813L41.9749 58.0467L40.4811 58.1827L38.9872 58.3188L39.2272 60.9534L40.721 60.8174ZM40.4811 58.1827L41.9713 58.3538L42.2743 55.7138L40.7841 55.5427L39.2939 55.3717L38.9908 58.0117L40.4811 58.1827ZM40.7841 55.5427L42.2835 55.5001L42.2084 52.8601L40.709 52.9027L39.2096 52.9454L39.2847 55.5854L40.7841 55.5427ZM40.709 52.9027L42.209 52.8999L42.2041 50.2599L40.7041 50.2627L39.2041 50.2655L39.209 52.9055L40.709 52.9027ZM40.7041 50.2627L42.204 50.2823L42.2205 49.0196L40.7206 49L39.2207 48.9804L39.2042 50.2432L40.7041 50.2627Z" fill="black"/>
<path d="M41 49L40.6756 47.5355L41 50.5V49ZM41.1 49V50.5H41.1323L41.1645 50.4986L41.1 49ZM43.64 48.8907L43.797 47.3989L43.6865 47.3873L43.5755 47.3921L43.64 48.8907ZM46.28 49.1686L46.123 50.6603L46.2739 50.6762L46.425 50.6615L46.28 49.1686ZM48.92 48.9122L48.8596 47.4134L48.8172 47.4151L48.775 47.4192L48.92 48.9122ZM51.56 48.8058L51.6763 47.3103L51.588 47.3034L51.4996 47.307L51.56 48.8058ZM54.2 49.0111L54.0837 50.5065L54.1392 50.5109L54.1948 50.511L54.2 49.0111ZM56.84 49.0202L56.8348 50.5202L56.8912 50.5204L56.9474 50.5163L56.84 49.0202ZM59.48 48.8306L59.5223 47.3312L59.4473 47.3291L59.3726 47.3345L59.48 48.8306ZM62.12 48.905L62.2962 47.4154L62.2295 47.4075L62.1623 47.4056L62.12 48.905ZM64.76 49.2174L64.5837 50.707L64.7941 50.7319L65.0032 50.6976L64.76 49.2174ZM67.4 48.7836L67.4793 47.2857L67.3171 47.2771L67.1568 47.3035L67.4 48.7836ZM70.04 48.9234L69.9607 50.4213L70.0493 50.426L70.1379 50.4202L70.04 48.9234ZM72.68 48.7507L72.8617 47.2618L72.7223 47.2448L72.5821 47.2539L72.68 48.7507ZM75.32 49.0729L75.1383 50.5619L75.2533 50.5759L75.3692 50.5721L75.32 49.0729ZM77.96 48.9863L78.0404 47.4885L77.9756 47.485L77.9108 47.4871L77.96 48.9863ZM79.3892 49.0631L79.3088 50.5609L79.8158 47.625L79.3892 49.0631ZM76.8014 48.2955L75.6572 49.2654L75.9463 49.6065L76.3749 49.7336L76.8014 48.2955ZM75.0643 46.2461L76.2086 45.2762L76.1403 45.1957L76.0614 45.1255L75.0643 46.2461ZM73.0618 44.4642L71.7071 45.1082L71.8376 45.3827L72.0647 45.5848L73.0618 44.4642ZM71.9173 42.0564L70.5506 42.6746L70.5564 42.6876L70.5625 42.7004L71.9173 42.0564ZM70.8177 39.6255L69.3328 39.4129L69.2709 39.8455L69.451 40.2437L70.8177 39.6255ZM71.1956 36.9855L72.6805 37.1981L72.7154 36.9541L72.6704 36.7118L71.1956 36.9855ZM70.7056 34.3455L69.2077 34.2673L69.1984 34.4446L69.2308 34.6192L70.7056 34.3455ZM70.8435 31.7055L72.3415 31.7837L72.356 31.5064L72.2702 31.2422L70.8435 31.7055ZM70.1679 29.6247L71.5945 29.1614L71.4866 28.8291L71.2429 28.5786L70.1679 29.6247ZM68.3265 27.7323L67.1158 28.6178L67.178 28.7029L67.2515 28.7784L68.3265 27.7323ZM66.7561 25.585L67.9668 24.6995L67.8714 24.569L67.7503 24.4618L66.7561 25.585ZM64.771 23.828L63.6866 24.8643L63.7299 24.9096L63.7768 24.9512L64.771 23.828ZM62.9469 21.9193L61.7459 22.818L61.8001 22.8904L61.8625 22.9557L62.9469 21.9193ZM61.3553 19.792L62.5563 18.8934L62.0095 18.1626L61.1092 18.3123L61.3553 19.792ZM59.5232 20.0967L59.2771 18.617L58.7766 18.7003L58.4294 19.0703L59.5232 20.0967ZM57.7145 22.0241L58.8001 23.0594L58.8084 23.0506L57.7145 22.0241ZM55.8896 23.9378L54.8041 22.9026L54.7327 22.9774L54.6723 23.0614L55.8896 23.9378ZM54.3421 26.0873L55.4914 27.0512L55.527 27.0087L55.5594 26.9637L54.3421 26.0873ZM52.6456 28.1101L53.6486 29.2254L53.7271 29.1548L53.7949 29.074L52.6456 28.1101ZM50.8347 29.7386L49.8317 28.6233L49.3498 29.0566L49.3351 29.7046L50.8347 29.7386ZM50.7751 32.3641L52.2551 32.6079L52.2723 32.5037L52.2747 32.3982L50.7751 32.3641ZM50.3403 35.0041L48.8602 34.7604L48.8372 34.9006L48.8408 35.0427L50.3403 35.0041ZM50.4081 37.6441L48.9086 37.6827L48.91 37.7348L48.9149 37.7867L50.4081 37.6441ZM50.6677 40.3628L51.9809 41.0876L52.2049 40.6818L52.1609 40.2202L50.6677 40.3628ZM49.3793 42.6969L50.4798 43.7162L50.6042 43.582L50.6926 43.4218L49.3793 42.6969ZM47.5633 44.6575L46.4629 43.6382L46.4275 43.6764L46.3949 43.717L47.5633 44.6575ZM45.9125 46.7084L46.8042 47.9145L46.9597 47.7996L47.0809 47.649L45.9125 46.7084ZM43.7924 48.2759L44.1743 49.7264L44.4527 49.6531L44.6841 49.482L43.7924 48.2759ZM41.2672 48.9408L41.5916 50.4053L41.6205 50.3989L41.6492 50.3914L41.2672 48.9408ZM41 49V50.5H41.1V49V47.5H41V49ZM41.1 49L41.1645 50.4986L43.7045 50.3893L43.64 48.8907L43.5755 47.3921L41.0355 47.5014L41.1 49ZM43.64 48.8907L43.483 50.3824L46.123 50.6603L46.28 49.1686L46.437 47.6768L43.797 47.3989L43.64 48.8907ZM46.28 49.1686L46.425 50.6615L49.065 50.4052L48.92 48.9122L48.775 47.4192L46.135 47.6756L46.28 49.1686ZM48.92 48.9122L48.9804 50.411L51.6204 50.3046L51.56 48.8058L51.4996 47.307L48.8596 47.4134L48.92 48.9122ZM51.56 48.8058L51.4437 50.3013L54.0837 50.5065L54.2 49.0111L54.3163 47.5156L51.6763 47.3103L51.56 48.8058ZM54.2 49.0111L54.1948 50.511L56.8348 50.5202L56.84 49.0202L56.8452 47.5202L54.2052 47.5111L54.2 49.0111ZM56.84 49.0202L56.9474 50.5163L59.5874 50.3268L59.48 48.8306L59.3726 47.3345L56.7326 47.524L56.84 49.0202ZM59.48 48.8306L59.4377 50.33L62.0777 50.4044L62.12 48.905L62.1623 47.4056L59.5223 47.3312L59.48 48.8306ZM62.12 48.905L61.9437 50.3946L64.5837 50.707L64.76 49.2174L64.9362 47.7278L62.2962 47.4154L62.12 48.905ZM64.76 49.2174L65.0032 50.6976L67.6432 50.2638L67.4 48.7836L67.1568 47.3035L64.5168 47.7373L64.76 49.2174ZM67.4 48.7836L67.3207 50.2815L69.9607 50.4213L70.04 48.9234L70.1193 47.4255L67.4793 47.2857L67.4 48.7836ZM70.04 48.9234L70.1379 50.4202L72.7779 50.2476L72.68 48.7507L72.5821 47.2539L69.9421 47.4266L70.04 48.9234ZM72.68 48.7507L72.4983 50.2397L75.1383 50.5619L75.32 49.0729L75.5017 47.584L72.8617 47.2618L72.68 48.7507ZM75.32 49.0729L75.3692 50.5721L78.0092 50.4855L77.96 48.9863L77.9108 47.4871L75.2708 47.5737L75.32 49.0729ZM77.96 48.9863L77.8796 50.4842L79.3088 50.5609L79.3892 49.0631L79.4697 47.5652L78.0404 47.4885L77.96 48.9863ZM79.3892 49.0631L79.8158 47.625L77.2279 46.8575L76.8014 48.2955L76.3749 49.7336L78.9627 50.5011L79.3892 49.0631ZM76.8014 48.2955L77.9457 47.3257L76.2086 45.2762L75.0643 46.2461L73.9201 47.216L75.6572 49.2654L76.8014 48.2955ZM75.0643 46.2461L76.0614 45.1255L74.059 43.3437L73.0618 44.4642L72.0647 45.5848L74.0672 47.3667L75.0643 46.2461ZM73.0618 44.4642L74.4165 43.8203L73.272 41.4125L71.9173 42.0564L70.5625 42.7004L71.7071 45.1082L73.0618 44.4642ZM71.9173 42.0564L73.284 41.4382L72.1844 39.0073L70.8177 39.6255L69.451 40.2437L70.5506 42.6746L71.9173 42.0564ZM70.8177 39.6255L72.3025 39.8381L72.6805 37.1981L71.1956 36.9855L69.7108 36.7729L69.3328 39.4129L70.8177 39.6255ZM71.1956 36.9855L72.6704 36.7118L72.1805 34.0718L70.7056 34.3455L69.2308 34.6192L69.7208 37.2592L71.1956 36.9855ZM70.7056 34.3455L72.2036 34.4237L72.3415 31.7837L70.8435 31.7055L69.3456 31.6272L69.2077 34.2673L70.7056 34.3455ZM70.8435 31.7055L72.2702 31.2422L71.5945 29.1614L70.1679 29.6247L68.7412 30.088L69.4169 32.1688L70.8435 31.7055ZM70.1679 29.6247L71.2429 28.5786L69.4016 26.6863L68.3265 27.7323L67.2515 28.7784L69.0928 30.6708L70.1679 29.6247ZM68.3265 27.7323L69.5373 26.8469L67.9668 24.6995L66.7561 25.585L65.5453 26.4705L67.1158 28.6178L68.3265 27.7323ZM66.7561 25.585L67.7503 24.4618L65.7652 22.7048L64.771 23.828L63.7768 24.9512L65.7619 26.7082L66.7561 25.585ZM64.771 23.828L65.8554 22.7916L64.0313 20.883L62.9469 21.9193L61.8625 22.9557L63.6866 24.8643L64.771 23.828ZM62.9469 21.9193L64.148 21.0207L62.5563 18.8934L61.3553 19.792L60.1542 20.6906L61.7459 22.818L62.9469 21.9193ZM61.3553 19.792L61.1092 18.3123L59.2771 18.617L59.5232 20.0967L59.7693 21.5764L61.6013 21.2717L61.3553 19.792ZM59.5232 20.0967L58.4294 19.0703L56.6207 20.9977L57.7145 22.0241L58.8084 23.0506L60.617 21.1231L59.5232 20.0967ZM57.7145 22.0241L56.629 20.989L54.8041 22.9026L55.8896 23.9378L56.9752 24.973L58.8001 23.0593L57.7145 22.0241ZM55.8896 23.9378L54.6723 23.0614L53.1248 25.2108L54.3421 26.0873L55.5594 26.9637L57.107 24.8142L55.8896 23.9378ZM54.3421 26.0873L53.1928 25.1234L51.4963 27.1462L52.6456 28.1101L53.7949 29.074L55.4914 27.0512L54.3421 26.0873ZM52.6456 28.1101L51.6426 26.9947L49.8317 28.6233L50.8347 29.7386L51.8377 30.8539L53.6486 29.2254L52.6456 28.1101ZM50.8347 29.7386L49.3351 29.7046L49.2754 32.3301L50.7751 32.3641L52.2747 32.3982L52.3343 29.7727L50.8347 29.7386ZM50.7751 32.3641L49.295 32.1204L48.8602 34.7604L50.3403 35.0041L51.8204 35.2479L52.2551 32.6079L50.7751 32.3641ZM50.3403 35.0041L48.8408 35.0427L48.9086 37.6827L50.4081 37.6441L51.9076 37.6056L51.8398 34.9656L50.3403 35.0041ZM50.4081 37.6441L48.9149 37.7867L49.1745 40.5053L50.6677 40.3628L52.1609 40.2202L51.9013 37.5016L50.4081 37.6441ZM50.6677 40.3628L49.3544 39.6379L48.0661 41.9721L49.3793 42.6969L50.6926 43.4218L51.9809 41.0876L50.6677 40.3628ZM49.3793 42.6969L48.2789 41.6776L46.4629 43.6382L47.5633 44.6575L48.6638 45.6768L50.4798 43.7162L49.3793 42.6969ZM47.5633 44.6575L46.3949 43.717L44.744 45.7678L45.9125 46.7084L47.0809 47.649L48.7318 45.5981L47.5633 44.6575ZM45.9125 46.7084L45.0207 45.5023L42.9006 47.0697L43.7924 48.2759L44.6841 49.482L46.8042 47.9145L45.9125 46.7084ZM43.7924 48.2759L43.4104 46.8253L40.8853 47.4903L41.2672 48.9408L41.6492 50.3914L44.1743 49.7264L43.7924 48.2759ZM41.2672 48.9408L40.9429 47.4763L40.6756 47.5355L41 49L41.3244 50.4645L41.5916 50.4053L41.2672 48.9408Z" fill="black"/>
<path d="M65 49.9L66.5 49.8996L66.5 49.8675L66.4986 49.8355L65 49.9ZM64.8907 47.36L63.3989 47.203L63.3873 47.3135L63.3921 47.4245L64.8907 47.36ZM65.1686 44.72L66.6603 44.877L66.6762 44.7261L66.6615 44.575L65.1686 44.72ZM64.9122 42.08L63.4134 42.1404L63.4151 42.1828L63.4192 42.225L64.9122 42.08ZM64.8058 39.44L63.3059 39.4584L63.3062 39.4794L63.307 39.5004L64.8058 39.44ZM64.7736 36.824L66.2735 36.8056L66.2672 36.295L65.9507 35.8942L64.7736 36.824ZM63.158 34.7788L64.3351 33.849L64.0145 33.4432L63.5119 33.3211L63.158 34.7788ZM60.6585 34.1721L61.0124 32.7144L60.6789 32.6334L60.3434 32.7055L60.6585 34.1721ZM58.1795 34.7047L57.8643 33.2382L57.4919 33.3182L57.2028 33.5663L58.1795 34.7047ZM56.1649 36.433L55.1882 35.2945L54.6516 35.7549L54.6652 36.4618L56.1649 36.433ZM56.2164 39.1114L57.7143 39.1908L57.7172 39.1367L57.7161 39.0826L56.2164 39.1114ZM56.0766 41.7514L54.5787 41.6721L54.574 41.7608L54.5798 41.8493L56.0766 41.7514ZM56.2493 44.3914L57.7382 44.5732L57.7552 44.4337L57.7461 44.2936L56.2493 44.3914ZM55.9271 47.0314L54.4381 46.8497L54.4241 46.9648L54.4279 47.0806L55.9271 47.0314ZM56.0137 49.6714L57.5124 49.7338L57.5147 49.678L57.5129 49.6223L56.0137 49.6714ZM65 50L66.5 49.9996L66.5 49.8996L65 49.9L63.5 49.9004L63.5 50.0004L65 50ZM65 49.9L66.4986 49.8355L66.3893 47.2955L64.8907 47.36L63.3921 47.4245L63.5014 49.9645L65 49.9ZM64.8907 47.36L66.3824 47.517L66.6603 44.877L65.1686 44.72L63.6768 44.563L63.3989 47.203L64.8907 47.36ZM65.1686 44.72L66.6615 44.575L66.4052 41.935L64.9122 42.08L63.4192 42.225L63.6756 44.865L65.1686 44.72ZM64.9122 42.08L66.411 42.0196L66.3046 39.3796L64.8058 39.44L63.307 39.5004L63.4134 42.1404L64.9122 42.08ZM64.8058 39.44L66.3057 39.4216L66.2735 36.8056L64.7736 36.824L63.2738 36.8425L63.3059 39.4584L64.8058 39.44ZM64.7736 36.824L65.9507 35.8942L64.3351 33.849L63.158 34.7788L61.981 35.7086L63.5966 37.7538L64.7736 36.824ZM63.158 34.7788L63.5119 33.3211L61.0124 32.7144L60.6585 34.1721L60.3047 35.6297L62.8042 36.2365L63.158 34.7788ZM60.6585 34.1721L60.3434 32.7055L57.8643 33.2382L58.1795 34.7047L58.4946 36.1713L60.9736 35.6386L60.6585 34.1721ZM58.1795 34.7047L57.2028 33.5663L55.1882 35.2945L56.1649 36.433L57.1416 37.5715L59.1561 35.8432L58.1795 34.7047ZM56.1649 36.433L54.6652 36.4618L54.7167 39.1403L56.2164 39.1114L57.7161 39.0826L57.6646 36.4042L56.1649 36.433ZM56.2164 39.1114L54.7185 39.0321L54.5787 41.6721L56.0766 41.7514L57.5745 41.8308L57.7143 39.1908L56.2164 39.1114ZM56.0766 41.7514L54.5798 41.8493L54.7524 44.4893L56.2493 44.3914L57.7461 44.2936L57.5734 41.6536L56.0766 41.7514ZM56.2493 44.3914L54.7603 44.2097L54.4381 46.8497L55.9271 47.0314L57.416 47.2132L57.7382 44.5732L56.2493 44.3914ZM55.9271 47.0314L54.4279 47.0806L54.5145 49.7206L56.0137 49.6714L57.5129 49.6223L57.4263 46.9823L55.9271 47.0314ZM56.0137 49.6714L54.515 49.6091L54.5013 49.9377L56 50L57.4987 50.0623L57.5124 49.7338L56.0137 49.6714Z" fill="black"/>
<path d="M67.9992 115.9L69.4992 115.888L69.4989 115.862L69.4978 115.836L67.9992 115.9ZM67.8907 113.36L66.3989 113.203L66.3873 113.313L66.392 113.424L67.8907 113.36ZM68.1686 110.72L69.6603 110.877L69.6762 110.726L69.6615 110.575L68.1686 110.72ZM67.9122 108.08L66.4134 108.14L66.4151 108.183L66.4192 108.225L67.9122 108.08ZM67.8058 105.44L69.3046 105.38L69.3042 105.369L69.3036 105.359L67.8058 105.44ZM67.6645 102.829L69.1623 102.748L69.1473 102.469L69.0328 102.214L67.6645 102.829ZM66.585 100.425L67.9532 99.8108L67.8313 99.5394L67.615 99.335L66.585 100.425ZM64.6881 98.6336L65.7182 97.5432L65.5813 97.4139L65.4167 97.3224L64.6881 98.6336ZM62.4345 97.3812L63.1632 96.07L62.9696 95.9625L62.7533 95.9154L62.4345 97.3812ZM59.8305 96.8148L60.1492 95.3491L59.6442 95.2393L59.1787 95.4638L59.8305 96.8148ZM57.4353 97.9703L56.7835 96.6193L56.6803 96.6691L56.5858 96.734L57.4353 97.9703ZM55.3099 99.4307L54.4604 98.1944L54.176 98.3898L54.0056 98.6898L55.3099 99.4307ZM54.0337 101.677L52.7294 100.936L52.6865 101.012L52.6525 101.092L54.0337 101.677ZM53.0101 104.093L51.629 103.508L51.5097 103.79L51.5101 104.095L53.0101 104.093ZM53.0137 106.739L51.5137 106.741L51.5137 106.764L51.5144 106.788L53.0137 106.739ZM53.0987 109.379L51.5995 109.428L51.6002 109.45L51.6016 109.472L53.0987 109.379ZM53.2627 112.019L54.7397 112.281L54.7709 112.105L54.7598 111.926L53.2627 112.019ZM52.7958 114.659L51.3187 114.398L51.2509 114.781L51.3781 115.149L52.7958 114.659ZM53.2592 116V117.5H55.3648L54.6769 115.51L53.2592 116ZM68 116L69.5 115.988L69.4992 115.888L67.9992 115.9L66.4992 115.912L66.5 116.012L68 116ZM67.9992 115.9L69.4978 115.836L69.3893 113.296L67.8907 113.36L66.392 113.424L66.5006 115.964L67.9992 115.9ZM67.8907 113.36L69.3824 113.517L69.6603 110.877L68.1686 110.72L66.6768 110.563L66.3989 113.203L67.8907 113.36ZM68.1686 110.72L69.6615 110.575L69.4052 107.935L67.9122 108.08L66.4192 108.225L66.6756 110.865L68.1686 110.72ZM67.9122 108.08L69.411 108.02L69.3046 105.38L67.8058 105.44L66.307 105.5L66.4134 108.14L67.9122 108.08ZM67.8058 105.44L69.3036 105.359L69.1623 102.748L67.6645 102.829L66.1667 102.91L66.308 105.521L67.8058 105.44ZM67.6645 102.829L69.0328 102.214L67.9532 99.8108L66.585 100.425L65.2167 101.04L66.2962 103.443L67.6645 102.829ZM66.585 100.425L67.615 99.335L65.7182 97.5432L64.6881 98.6336L63.658 99.724L65.5549 101.516L66.585 100.425ZM64.6881 98.6336L65.4167 97.3224L63.1632 96.07L62.4345 97.3812L61.7059 98.6923L63.9595 99.9447L64.6881 98.6336ZM62.4345 97.3812L62.7533 95.9154L60.1492 95.3491L59.8305 96.8148L59.5117 98.2806L62.1157 98.8469L62.4345 97.3812ZM59.8305 96.8148L59.1787 95.4638L56.7835 96.6193L57.4353 97.9703L58.087 99.3213L60.4822 98.1659L59.8305 96.8148ZM57.4353 97.9703L56.5858 96.734L54.4604 98.1944L55.3099 99.4307L56.1593 100.667L58.2847 99.2066L57.4353 97.9703ZM55.3099 99.4307L54.0056 98.6898L52.7294 100.936L54.0337 101.677L55.338 102.418L56.6141 100.172L55.3099 99.4307ZM54.0337 101.677L52.6525 101.092L51.629 103.508L53.0101 104.093L54.3913 104.678L55.4148 102.262L54.0337 101.677ZM53.0101 104.093L51.5101 104.095L51.5137 106.741L53.0137 106.739L54.5137 106.737L54.5101 104.091L53.0101 104.093ZM53.0137 106.739L51.5144 106.788L51.5995 109.428L53.0987 109.379L54.5979 109.331L54.5129 106.691L53.0137 106.739ZM53.0987 109.379L51.6016 109.472L51.7656 112.112L53.2627 112.019L54.7598 111.926L54.5958 109.286L53.0987 109.379ZM53.2627 112.019L51.7856 111.758L51.3187 114.398L52.7958 114.659L54.2729 114.921L54.7397 112.281L53.2627 112.019ZM52.7958 114.659L51.3781 115.149L51.8415 116.49L53.2592 116L54.6769 115.51L54.2135 114.169L52.7958 114.659ZM53.2592 116V114.5H53V116V117.5H53.2592V116Z" fill="black"/>
<path d="M53.9961 89.9001L55.4949 89.8412L55.4948 89.8379L53.9961 89.9001ZM53.8907 87.36L52.3989 87.203L52.3874 87.3123L52.392 87.4222L53.8907 87.36ZM54.1686 84.72L55.6603 84.877L55.6762 84.7261L55.6615 84.575L54.1686 84.72ZM53.9122 82.08L52.418 82.2126L52.4192 82.225L53.9122 82.08ZM53.6813 79.4782L55.1755 79.3456L55.1659 79.238L55.141 79.1328L53.6813 79.4782ZM53.0802 76.9376L54.5399 76.5922L54.4634 76.2688L54.2574 76.0079L53.0802 76.9376ZM51.4524 74.8766L52.6295 73.9469L52.3313 73.5693L51.8691 73.4357L51.4524 74.8766ZM49.007 74.1694L49.4237 72.7284L48.9764 72.5991L48.5345 72.7458L49.007 74.1694ZM46.63 74.9583L46.1575 73.5347L45.8235 73.6455L45.5736 73.8934L46.63 74.9583ZM44.7427 76.8306L43.6863 75.7657L43.334 76.1152L43.2596 76.6058L44.7427 76.8306ZM44.3429 79.4676L42.8598 79.2427L42.8544 79.2786L42.8507 79.3146L44.3429 79.4676ZM44.0766 82.0653L42.5844 81.9123L42.5716 82.0375L42.5798 82.1632L44.0766 82.0653ZM44.2493 84.7053L45.7382 84.887L45.7552 84.7476L45.7461 84.6074L44.2493 84.7053ZM43.9271 87.3453L42.4381 87.1636L42.4241 87.2786L42.4279 87.3945L43.9271 87.3453ZM44.0137 89.9853L45.1131 91.0057L45.5331 90.5532L45.5129 89.9361L44.0137 89.9853ZM54 90L55.4988 89.9411L55.4949 89.8412L53.9961 89.9001L52.4972 89.9589L52.5012 90.0589L54 90ZM53.9961 89.9001L55.4948 89.8379L55.3894 87.2978L53.8907 87.36L52.392 87.4222L52.4974 89.9623L53.9961 89.9001ZM53.8907 87.36L55.3824 87.517L55.6603 84.877L54.1686 84.72L52.6768 84.563L52.3989 87.203L53.8907 87.36ZM54.1686 84.72L55.6615 84.575L55.4052 81.935L53.9122 82.08L52.4192 82.225L52.6756 84.865L54.1686 84.72ZM53.9122 82.08L55.4063 81.9474L55.1755 79.3456L53.6813 79.4782L52.1872 79.6108L52.4181 82.2126L53.9122 82.08ZM53.6813 79.4782L55.141 79.1328L54.5399 76.5922L53.0802 76.9376L51.6205 77.283L52.2216 79.8236L53.6813 79.4782ZM53.0802 76.9376L54.2574 76.0079L52.6295 73.9469L51.4524 74.8766L50.2753 75.8063L51.9031 77.8673L53.0802 76.9376ZM51.4524 74.8766L51.8691 73.4357L49.4237 72.7284L49.007 74.1694L48.5903 75.6103L51.0357 76.3176L51.4524 74.8766ZM49.007 74.1694L48.5345 72.7458L46.1575 73.5347L46.63 74.9583L47.1026 76.3819L49.4795 75.593L49.007 74.1694ZM46.63 74.9583L45.5736 73.8934L43.6863 75.7657L44.7427 76.8306L45.7991 77.8955L47.6865 76.0232L46.63 74.9583ZM44.7427 76.8306L43.2596 76.6058L42.8598 79.2427L44.3429 79.4676L45.8259 79.6924L46.2257 77.0555L44.7427 76.8306ZM44.3429 79.4676L42.8507 79.3146L42.5844 81.9123L44.0766 82.0653L45.5688 82.2182L45.8351 79.6205L44.3429 79.4676ZM44.0766 82.0653L42.5798 82.1632L42.7524 84.8032L44.2493 84.7053L45.7461 84.6074L45.5734 81.9674L44.0766 82.0653ZM44.2493 84.7053L42.7603 84.5236L42.4381 87.1636L43.9271 87.3453L45.416 87.527L45.7382 84.887L44.2493 84.7053ZM43.9271 87.3453L42.4279 87.3945L42.5145 90.0345L44.0137 89.9853L45.5129 89.9361L45.4263 87.2961L43.9271 87.3453ZM44.0137 89.9853L42.9143 88.9648L42.9006 88.9796L44 90L45.0994 91.0204L45.1131 91.0057L44.0137 89.9853Z" fill="black"/>
<path d="M74.9961 89.9001L76.4949 89.8412L76.4948 89.8379L74.9961 89.9001ZM74.8907 87.36L73.3989 87.203L73.3874 87.3123L73.392 87.4222L74.8907 87.36ZM75.1686 84.72L76.6603 84.877L76.6762 84.7261L76.6615 84.575L75.1686 84.72ZM74.9122 82.08L73.418 82.2126L73.4192 82.225L74.9122 82.08ZM74.6813 79.4782L76.1755 79.3456L76.1659 79.238L76.141 79.1328L74.6813 79.4782ZM74.0802 76.9376L75.5399 76.5922L75.4634 76.2688L75.2574 76.0079L74.0802 76.9376ZM72.4524 74.8766L73.6295 73.9469L73.3313 73.5693L72.8691 73.4357L72.4524 74.8766ZM70.007 74.1694L70.4237 72.7284L69.9764 72.5991L69.5345 72.7458L70.007 74.1694ZM67.63 74.9583L67.1575 73.5347L66.8235 73.6455L66.5736 73.8934L67.63 74.9583ZM65.7427 76.8306L64.6863 75.7657L64.334 76.1152L64.2596 76.6058L65.7427 76.8306ZM65.3429 79.4676L63.8598 79.2427L63.8544 79.2786L63.8507 79.3146L65.3429 79.4676ZM65.0766 82.0653L63.5844 81.9123L63.5716 82.0375L63.5798 82.1632L65.0766 82.0653ZM65.2493 84.7053L66.7382 84.887L66.7552 84.7476L66.7461 84.6074L65.2493 84.7053ZM64.9271 87.3453L63.4381 87.1636L63.4241 87.2786L63.4279 87.3945L64.9271 87.3453ZM65.0137 89.9853L66.1131 91.0057L66.5331 90.5532L66.5129 89.9361L65.0137 89.9853ZM75 90L76.4988 89.9411L76.4949 89.8412L74.9961 89.9001L73.4972 89.9589L73.5012 90.0589L75 90ZM74.9961 89.9001L76.4948 89.8379L76.3894 87.2978L74.8907 87.36L73.392 87.4222L73.4974 89.9623L74.9961 89.9001ZM74.8907 87.36L76.3824 87.517L76.6603 84.877L75.1686 84.72L73.6768 84.563L73.3989 87.203L74.8907 87.36ZM75.1686 84.72L76.6615 84.575L76.4052 81.935L74.9122 82.08L73.4192 82.225L73.6756 84.865L75.1686 84.72ZM74.9122 82.08L76.4063 81.9474L76.1755 79.3456L74.6813 79.4782L73.1872 79.6108L73.4181 82.2126L74.9122 82.08ZM74.6813 79.4782L76.141 79.1328L75.5399 76.5922L74.0802 76.9376L72.6205 77.283L73.2216 79.8236L74.6813 79.4782ZM74.0802 76.9376L75.2574 76.0079L73.6295 73.9469L72.4524 74.8766L71.2753 75.8063L72.9031 77.8673L74.0802 76.9376ZM72.4524 74.8766L72.8691 73.4357L70.4237 72.7284L70.007 74.1694L69.5903 75.6103L72.0357 76.3176L72.4524 74.8766ZM70.007 74.1694L69.5345 72.7458L67.1575 73.5347L67.63 74.9583L68.1026 76.3819L70.4795 75.593L70.007 74.1694ZM67.63 74.9583L66.5736 73.8934L64.6863 75.7657L65.7427 76.8306L66.7991 77.8955L68.6865 76.0232L67.63 74.9583ZM65.7427 76.8306L64.2596 76.6058L63.8598 79.2427L65.3429 79.4676L66.8259 79.6924L67.2257 77.0555L65.7427 76.8306ZM65.3429 79.4676L63.8507 79.3146L63.5844 81.9123L65.0766 82.0653L66.5688 82.2182L66.8351 79.6205L65.3429 79.4676ZM65.0766 82.0653L63.5798 82.1632L63.7524 84.8032L65.2493 84.7053L66.7461 84.6074L66.5734 81.9674L65.0766 82.0653ZM65.2493 84.7053L63.7603 84.5236L63.4381 87.1636L64.9271 87.3453L66.416 87.527L66.7382 84.887L65.2493 84.7053ZM64.9271 87.3453L63.4279 87.3945L63.5145 90.0345L65.0137 89.9853L66.5129 89.9361L66.4263 87.2961L64.9271 87.3453ZM65.0137 89.9853L63.9143 88.9648L63.9006 88.9796L65 90L66.0994 91.0204L66.1131 91.0057L65.0137 89.9853Z" fill="black"/>
<path d="M57.9911 68.9004L56.4923 68.9597L56.4937 68.9968L56.4971 69.0339L57.9911 68.9004ZM57.8907 66.36L56.3989 66.203L56.3876 66.3109L56.3918 66.4193L57.8907 66.36ZM58.1686 63.72L59.6603 63.877L59.6762 63.726L59.6615 63.5748L58.1686 63.72ZM57.912 61.0807L59.4049 60.9355L59.3968 60.8516L59.3793 60.7692L57.912 61.0807ZM57.3755 58.5534L58.8428 58.2419L58.8032 58.0555L58.7183 57.885L57.3755 58.5534ZM56.2208 56.2339L57.5636 55.5654L57.3503 55.1369L56.9282 54.9111L56.2208 56.2339ZM53.9275 55.0074L54.6348 53.6847L54.0601 53.3773L53.4432 53.5877L53.9275 55.0074ZM51.53 55.8252L51.0457 54.4055L50.664 54.5356L50.3991 54.8397L51.53 55.8252ZM49.8561 57.7461L48.7252 56.7606L48.5647 56.9448L48.4709 57.1704L49.8561 57.7461ZM48.8338 60.206L47.4486 59.6303L47.2904 60.0112L47.349 60.4194L48.8338 60.206ZM49.2164 62.8679L50.7143 62.9472L50.7221 62.8002L50.7011 62.6545L49.2164 62.8679ZM49.0766 65.5079L47.5787 65.4286L47.574 65.5172L47.5798 65.6058L49.0766 65.5079ZM49.2493 68.1479L50.6889 68.569L50.7634 68.3146L50.7461 68.05L49.2493 68.1479ZM58 69L59.494 68.8665L59.4851 68.7669L57.9911 68.9004L56.4971 69.0339L56.506 69.1335L58 69ZM57.9911 68.9004L59.4899 68.8411L59.3895 66.3007L57.8907 66.36L56.3918 66.4193L56.4923 68.9597L57.9911 68.9004ZM57.8907 66.36L59.3824 66.517L59.6603 63.877L58.1686 63.72L56.6768 63.563L56.3989 66.203L57.8907 66.36ZM58.1686 63.72L59.6615 63.5748L59.4049 60.9355L57.912 61.0807L56.419 61.2258L56.6756 63.8652L58.1686 63.72ZM57.912 61.0807L59.3793 60.7692L58.8428 58.2419L57.3755 58.5534L55.9082 58.8649L56.4447 61.3921L57.912 61.0807ZM57.3755 58.5534L58.7183 57.885L57.5636 55.5654L56.2208 56.2339L54.878 56.9023L56.0327 59.2219L57.3755 58.5534ZM56.2208 56.2339L56.9282 54.9111L54.6348 53.6847L53.9275 55.0074L53.2201 56.3302L55.5134 57.5566L56.2208 56.2339ZM53.9275 55.0074L53.4432 53.5877L51.0457 54.4055L51.53 55.8252L52.0142 57.2448L54.4117 56.4271L53.9275 55.0074ZM51.53 55.8252L50.3991 54.8397L48.7252 56.7606L49.8561 57.7461L50.987 58.7315L52.6608 56.8106L51.53 55.8252ZM49.8561 57.7461L48.4709 57.1704L47.4486 59.6303L48.8338 60.206L50.2189 60.7816L51.2412 58.3217L49.8561 57.7461ZM48.8338 60.206L47.349 60.4194L47.7316 63.0813L49.2164 62.8679L50.7011 62.6545L50.3185 59.9926L48.8338 60.206ZM49.2164 62.8679L47.7185 62.7886L47.5787 65.4286L49.0766 65.5079L50.5745 65.5872L50.7143 62.9472L49.2164 62.8679ZM49.0766 65.5079L47.5798 65.6058L47.7524 68.2458L49.2493 68.1479L50.7461 68.05L50.5734 65.41L49.0766 65.5079ZM49.2493 68.1479L47.8096 67.7268L47.5603 68.5789L49 69L50.4397 69.4211L50.6889 68.569L49.2493 68.1479Z" fill="black"/>
<path d="M70.9911 68.9004L69.4923 68.9597L69.4937 68.9968L69.4971 69.0339L70.9911 68.9004ZM70.8907 66.36L69.3989 66.203L69.3876 66.3109L69.3918 66.4193L70.8907 66.36ZM71.1686 63.72L72.6603 63.877L72.6762 63.726L72.6615 63.5748L71.1686 63.72ZM70.912 61.0807L72.4049 60.9355L72.3968 60.8516L72.3793 60.7692L70.912 61.0807ZM70.3755 58.5534L71.8428 58.2419L71.8032 58.0555L71.7183 57.885L70.3755 58.5534ZM69.2208 56.2339L70.5636 55.5654L70.3503 55.1369L69.9282 54.9111L69.2208 56.2339ZM66.9275 55.0074L67.6348 53.6847L67.0601 53.3773L66.4432 53.5877L66.9275 55.0074ZM64.53 55.8252L64.0457 54.4055L63.664 54.5356L63.3991 54.8397L64.53 55.8252ZM62.8561 57.7461L61.7252 56.7606L61.5647 56.9448L61.4709 57.1704L62.8561 57.7461ZM61.8338 60.206L60.4486 59.6303L60.2904 60.0112L60.349 60.4194L61.8338 60.206ZM62.2164 62.8679L63.7143 62.9472L63.7221 62.8002L63.7011 62.6545L62.2164 62.8679ZM62.0766 65.5079L60.5787 65.4286L60.574 65.5172L60.5798 65.6058L62.0766 65.5079ZM62.2493 68.1479L63.6889 68.569L63.7634 68.3146L63.7461 68.05L62.2493 68.1479ZM71 69L72.494 68.8665L72.4851 68.7669L70.9911 68.9004L69.4971 69.0339L69.506 69.1335L71 69ZM70.9911 68.9004L72.4899 68.8411L72.3895 66.3007L70.8907 66.36L69.3918 66.4193L69.4923 68.9597L70.9911 68.9004ZM70.8907 66.36L72.3824 66.517L72.6603 63.877L71.1686 63.72L69.6768 63.563L69.3989 66.203L70.8907 66.36ZM71.1686 63.72L72.6615 63.5748L72.4049 60.9355L70.912 61.0807L69.419 61.2258L69.6756 63.8652L71.1686 63.72ZM70.912 61.0807L72.3793 60.7692L71.8428 58.2419L70.3755 58.5534L68.9082 58.8649L69.4447 61.3921L70.912 61.0807ZM70.3755 58.5534L71.7183 57.885L70.5636 55.5654L69.2208 56.2339L67.878 56.9023L69.0327 59.2219L70.3755 58.5534ZM69.2208 56.2339L69.9282 54.9111L67.6348 53.6847L66.9275 55.0074L66.2201 56.3302L68.5134 57.5566L69.2208 56.2339ZM66.9275 55.0074L66.4432 53.5877L64.0457 54.4055L64.53 55.8252L65.0142 57.2448L67.4117 56.4271L66.9275 55.0074ZM64.53 55.8252L63.3991 54.8397L61.7252 56.7606L62.8561 57.7461L63.987 58.7315L65.6608 56.8106L64.53 55.8252ZM62.8561 57.7461L61.4709 57.1704L60.4486 59.6303L61.8338 60.206L63.2189 60.7816L64.2412 58.3217L62.8561 57.7461ZM61.8338 60.206L60.349 60.4194L60.7316 63.0813L62.2164 62.8679L63.7011 62.6545L63.3185 59.9926L61.8338 60.206ZM62.2164 62.8679L60.7185 62.7886L60.5787 65.4286L62.0766 65.5079L63.5745 65.5872L63.7143 62.9472L62.2164 62.8679ZM62.0766 65.5079L60.5798 65.6058L60.7524 68.2458L62.2493 68.1479L63.7461 68.05L63.5734 65.41L62.0766 65.5079ZM62.2493 68.1479L60.8096 67.7268L60.5603 68.5789L62 69L63.4397 69.4211L63.6889 68.569L62.2493 68.1479Z" fill="black"/>
<path d="M60.5 19.9L62 19.9L62 19.8677L61.9986 19.8355L60.5 19.9ZM60.3907 17.36L58.8989 17.203L58.8873 17.3135L58.8921 17.4245L60.3907 17.36ZM60.6686 14.72L62.1603 14.877L62.1762 14.7261L62.1615 14.575L60.6686 14.72ZM60.4122 12.08L58.9134 12.1404L58.9151 12.1828L58.9192 12.225L60.4122 12.08ZM60.3058 9.44L58.8208 9.22832L58.8015 9.36374L58.807 9.50041L60.3058 9.44ZM60.5111 8L61.996 8.21168L62.24 6.5L60.5111 6.5L60.5111 8ZM60.5 20L62 20L62 19.9L60.5 19.9L59 19.9L59 20L60.5 20ZM60.5 19.9L61.9986 19.8355L61.8893 17.2955L60.3907 17.36L58.8921 17.4245L59.0014 19.9645L60.5 19.9ZM60.3907 17.36L61.8824 17.517L62.1603 14.877L60.6686 14.72L59.1768 14.563L58.8989 17.203L60.3907 17.36ZM60.6686 14.72L62.1615 14.575L61.9052 11.935L60.4122 12.08L58.9192 12.225L59.1756 14.865L60.6686 14.72ZM60.4122 12.08L61.911 12.0196L61.8046 9.37959L60.3058 9.44L58.807 9.50041L58.9134 12.1404L60.4122 12.08ZM60.3058 9.44L61.7908 9.65168L61.996 8.21168L60.5111 8L59.0261 7.78832L58.8208 9.22832L60.3058 9.44ZM60.5111 8L60.5111 6.5L60.5 6.5L60.5 8L60.5 9.5L60.5111 9.5L60.5111 8Z" fill="black"/>
<path d="M56.1049 12.4951V13.9951H56.1372L56.1694 13.9937L56.1049 12.4951ZM58.6449 12.3858L58.8019 10.894L58.6914 10.8824L58.5804 10.8872L58.6449 12.3858ZM61.2849 12.6637L61.1279 14.1554L61.2788 14.1713L61.4299 14.1567L61.2849 12.6637ZM63.9249 12.4073L64.0464 10.9122L63.9131 10.9014L63.7799 10.9143L63.9249 12.4073ZM56.0049 12.4951V13.9951H56.1049V12.4951V10.9951H56.0049V12.4951ZM56.1049 12.4951L56.1694 13.9937L58.7094 13.8844L58.6449 12.3858L58.5804 10.8872L56.0404 10.9965L56.1049 12.4951ZM58.6449 12.3858L58.4879 13.8775L61.1279 14.1554L61.2849 12.6637L61.4419 11.1719L58.8019 10.894L58.6449 12.3858ZM61.2849 12.6637L61.4299 14.1567L64.0699 13.9003L63.9249 12.4073L63.7799 10.9143L61.1399 11.1707L61.2849 12.6637ZM63.9249 12.4073L63.8033 13.9024L64.8833 13.9902L65.0049 12.4951L65.1264 11.0001L64.0464 10.9122L63.9249 12.4073Z" fill="black"/>
<path d="M51.1 29.5V31H51.1323L51.1645 30.9986L51.1 29.5ZM53.64 29.3907L53.797 27.8989L53.6865 27.8873L53.5755 27.8921L53.64 29.3907ZM56.28 29.6686L56.123 31.1603L56.2739 31.1762L56.425 31.1615L56.28 29.6686ZM58.92 29.4122L58.8596 27.9134L58.8172 27.9151L58.775 27.9192L58.92 29.4122ZM61.56 29.3058L61.6763 27.8103L61.588 27.8034L61.4996 27.807L61.56 29.3058ZM64.2 29.5111L64.0837 31.0065L64.1392 31.0109L64.1948 31.011L64.2 29.5111ZM66.84 29.5202L66.8348 31.0202L66.9031 31.0204L66.9711 31.0144L66.84 29.5202ZM69 29.3306H70.5V27.6932L68.8689 27.8364L69 29.3306ZM51 29.5V31H51.1V29.5V28H51V29.5ZM51.1 29.5L51.1645 30.9986L53.7045 30.8893L53.64 29.3907L53.5755 27.8921L51.0355 28.0014L51.1 29.5ZM53.64 29.3907L53.483 30.8824L56.123 31.1603L56.28 29.6686L56.437 28.1768L53.797 27.8989L53.64 29.3907ZM56.28 29.6686L56.425 31.1615L59.065 30.9052L58.92 29.4122L58.775 27.9192L56.135 28.1756L56.28 29.6686ZM58.92 29.4122L58.9804 30.911L61.6204 30.8046L61.56 29.3058L61.4996 27.807L58.8596 27.9134L58.92 29.4122ZM61.56 29.3058L61.4437 30.8013L64.0837 31.0065L64.2 29.5111L64.3163 28.0156L61.6763 27.8103L61.56 29.3058ZM64.2 29.5111L64.1948 31.011L66.8348 31.0202L66.84 29.5202L66.8452 28.0202L64.2052 28.0111L64.2 29.5111ZM66.84 29.5202L66.9711 31.0144L69.1311 30.8249L69 29.3306L68.8689 27.8364L66.7089 28.0259L66.84 29.5202ZM69 29.3306H67.5V29.5H69H70.5V29.3306H69Z" fill="black"/>
<path d="M51.1 38.5V40H51.1323L51.1645 39.9986L51.1 38.5ZM53.64 38.3907L53.797 36.8989L53.6865 36.8873L53.5755 36.8921L53.64 38.3907ZM56.28 38.6686L56.123 40.1603L56.2739 40.1762L56.425 40.1615L56.28 38.6686ZM58.92 38.4122L58.8596 36.9134L58.8172 36.9151L58.775 36.9192L58.92 38.4122ZM61.56 38.3058L61.6763 36.8103L61.588 36.8034L61.4996 36.807L61.56 38.3058ZM64.2 38.5111L64.0837 40.0065L64.1392 40.0109L64.1948 40.011L64.2 38.5111ZM66.84 38.5202L66.8348 40.0202L66.8912 40.0204L66.9474 40.0163L66.84 38.5202ZM69.48 38.3306L69.5533 36.8324L69.4629 36.828L69.3726 36.8345L69.48 38.3306ZM71 38.405H72.5V36.9767L71.0733 36.9068L71 38.405ZM51 38.5V40H51.1V38.5V37H51V38.5ZM51.1 38.5L51.1645 39.9986L53.7045 39.8893L53.64 38.3907L53.5755 36.8921L51.0355 37.0014L51.1 38.5ZM53.64 38.3907L53.483 39.8824L56.123 40.1603L56.28 38.6686L56.437 37.1768L53.797 36.8989L53.64 38.3907ZM56.28 38.6686L56.425 40.1615L59.065 39.9052L58.92 38.4122L58.775 36.9192L56.135 37.1756L56.28 38.6686ZM58.92 38.4122L58.9804 39.911L61.6204 39.8046L61.56 38.3058L61.4996 36.807L58.8596 36.9134L58.92 38.4122ZM61.56 38.3058L61.4437 39.8013L64.0837 40.0065L64.2 38.5111L64.3163 37.0156L61.6763 36.8103L61.56 38.3058ZM64.2 38.5111L64.1948 40.011L66.8348 40.0202L66.84 38.5202L66.8452 37.0202L64.2052 37.0111L64.2 38.5111ZM66.84 38.5202L66.9474 40.0163L69.5874 39.8268L69.48 38.3306L69.3726 36.8345L66.7326 37.024L66.84 38.5202ZM69.48 38.3306L69.4067 39.8288L70.9267 39.9032L71 38.405L71.0733 36.9068L69.5533 36.8324L69.48 38.3306ZM71 38.405H69.5V38.5H71H72.5V38.405H71Z" fill="black"/>
<path d="M48.1 59.5L48.1 61L48.1323 61L48.1645 60.9986L48.1 59.5ZM50.64 59.3907L50.797 57.8989L50.6865 57.8873L50.5755 57.8921L50.64 59.3907ZM53.28 59.6686L53.123 61.1603L53.2739 61.1762L53.425 61.1615L53.28 59.6686ZM55.92 59.4122L55.8434 57.9142L55.8091 57.9159L55.775 57.9192L55.92 59.4122ZM58 59.3058L59.5 59.3058L59.5 57.7271L57.9234 57.8077L58 59.3058ZM48 59.5L48 61L48.1 61L48.1 59.5L48.1 58L48 58L48 59.5ZM48.1 59.5L48.1645 60.9986L50.7045 60.8893L50.64 59.3907L50.5755 57.8921L48.0355 58.0014L48.1 59.5ZM50.64 59.3907L50.483 60.8824L53.123 61.1603L53.28 59.6686L53.437 58.1768L50.797 57.8989L50.64 59.3907ZM53.28 59.6686L53.425 61.1615L56.065 60.9052L55.92 59.4122L55.775 57.9192L53.135 58.1756L53.28 59.6686ZM55.92 59.4122L55.9966 60.9102L58.0766 60.8038L58 59.3058L57.9234 57.8077L55.8434 57.9142L55.92 59.4122ZM58 59.3058L56.5 59.3058L56.5 59.5L58 59.5L59.5 59.5L59.5 59.3058L58 59.3058Z" fill="black"/>
<path d="M61.1 59.5L61.1 61L61.1323 61L61.1645 60.9986L61.1 59.5ZM63.64 59.3907L63.797 57.8989L63.6865 57.8873L63.5755 57.8921L63.64 59.3907ZM66.28 59.6686L66.123 61.1603L66.2739 61.1762L66.425 61.1615L66.28 59.6686ZM68.92 59.4122L68.8434 57.9142L68.8091 57.9159L68.775 57.9192L68.92 59.4122ZM71 59.3058L72.5 59.3058L72.5 57.7271L70.9234 57.8077L71 59.3058ZM61 59.5L61 61L61.1 61L61.1 59.5L61.1 58L61 58L61 59.5ZM61.1 59.5L61.1645 60.9986L63.7045 60.8893L63.64 59.3907L63.5755 57.8921L61.0355 58.0014L61.1 59.5ZM63.64 59.3907L63.483 60.8824L66.123 61.1603L66.28 59.6686L66.437 58.1768L63.797 57.8989L63.64 59.3907ZM66.28 59.6686L66.425 61.1615L69.065 60.9052L68.92 59.4122L68.775 57.9192L66.135 58.1756L66.28 59.6686ZM68.92 59.4122L68.9966 60.9102L71.0766 60.8038L71 59.3058L70.9234 57.8077L68.8434 57.9142L68.92 59.4122ZM71 59.3058L69.5 59.3058L69.5 59.5L71 59.5L72.5 59.5L72.5 59.3058L71 59.3058Z" fill="black"/>
<path d="M44.1 78.5L44.1 80L44.1323 80L44.1645 79.9986L44.1 78.5ZM46.64 78.3907L46.797 76.8989L46.6865 76.8873L46.5755 76.8921L46.64 78.3907ZM49.28 78.6686L49.123 80.1603L49.2739 80.1762L49.425 80.1615L49.28 78.6686ZM51.92 78.4122L51.8434 76.9142L51.8091 76.9159L51.775 76.9192L51.92 78.4122ZM54 78.3058L55.5 78.3058L55.5 76.7271L53.9234 76.8077L54 78.3058ZM44 78.5L44 80L44.1 80L44.1 78.5L44.1 77L44 77L44 78.5ZM44.1 78.5L44.1645 79.9986L46.7045 79.8893L46.64 78.3907L46.5755 76.8921L44.0355 77.0014L44.1 78.5ZM46.64 78.3907L46.483 79.8824L49.123 80.1603L49.28 78.6686L49.437 77.1768L46.797 76.8989L46.64 78.3907ZM49.28 78.6686L49.425 80.1615L52.065 79.9052L51.92 78.4122L51.775 76.9192L49.135 77.1756L49.28 78.6686ZM51.92 78.4122L51.9966 79.9102L54.0766 79.8038L54 78.3058L53.9234 76.8077L51.8434 76.9142L51.92 78.4122ZM54 78.3058L52.5 78.3058L52.5 78.5L54 78.5L55.5 78.5L55.5 78.3058L54 78.3058Z" fill="black"/>
<path d="M64.1 78.5L64.1 80L64.1323 80L64.1645 79.9986L64.1 78.5ZM66.64 78.3907L66.797 76.8989L66.6865 76.8873L66.5755 76.8921L66.64 78.3907ZM69.28 78.6686L69.123 80.1603L69.2739 80.1762L69.425 80.1615L69.28 78.6686ZM71.92 78.4122L71.8434 76.9142L71.8091 76.9159L71.775 76.9192L71.92 78.4122ZM74 78.3058L75.5 78.3058L75.5 76.7271L73.9234 76.8077L74 78.3058ZM64 78.5L64 80L64.1 80L64.1 78.5L64.1 77L64 77L64 78.5ZM64.1 78.5L64.1645 79.9986L66.7045 79.8893L66.64 78.3907L66.5755 76.8921L64.0355 77.0014L64.1 78.5ZM66.64 78.3907L66.483 79.8824L69.123 80.1603L69.28 78.6686L69.437 77.1768L66.797 76.8989L66.64 78.3907ZM69.28 78.6686L69.425 80.1615L72.065 79.9052L71.92 78.4122L71.775 76.9192L69.135 77.1756L69.28 78.6686ZM71.92 78.4122L71.9966 79.9102L74.0766 79.8038L74 78.3058L73.9234 76.8077L71.8434 76.9142L71.92 78.4122ZM74 78.3058L72.5 78.3058L72.5 78.5L74 78.5L75.5 78.5L75.5 78.3058L74 78.3058Z" fill="black"/>
<path d="M50 84L49.5203 85.4212L51.7443 86.1719L51.4913 83.8383L50 84ZM48.0987 83.3583L46.6851 82.8564L46.1754 84.2923L47.619 84.7795L48.0987 83.3583ZM48.8773 81.165L50.2478 80.5553L48.7207 77.1225L47.4637 80.6632L48.8773 81.165ZM49.9554 83.5884L51.4466 83.4267L51.4213 83.1933L51.3259 82.9788L49.9554 83.5884ZM50 84L50.4797 82.5788L48.5784 81.937L48.0987 83.3583L47.619 84.7795L49.5203 85.4212L50 84ZM48.0987 83.3583L49.5122 83.8601L50.2909 81.6668L48.8773 81.165L47.4637 80.6632L46.6851 82.8564L48.0987 83.3583ZM48.8773 81.165L47.5068 81.7747L48.5849 84.1981L49.9554 83.5884L51.3259 82.9788L50.2478 80.5553L48.8773 81.165ZM49.9554 83.5884L48.4641 83.7502L48.5087 84.1617L50 84L51.4913 83.8383L51.4466 83.4267L49.9554 83.5884Z" fill="black"/>
<path d="M71 84L70.5203 85.4212L72.7443 86.1719L72.4913 83.8383L71 84ZM69.0987 83.3583L67.6851 82.8564L67.1754 84.2923L68.619 84.7795L69.0987 83.3583ZM69.8773 81.165L71.2478 80.5553L69.7207 77.1225L68.4637 80.6632L69.8773 81.165ZM70.9554 83.5884L72.4466 83.4267L72.4213 83.1933L72.3259 82.9788L70.9554 83.5884ZM71 84L71.4797 82.5788L69.5784 81.937L69.0987 83.3583L68.619 84.7795L70.5203 85.4212L71 84ZM69.0987 83.3583L70.5122 83.8601L71.2909 81.6668L69.8773 81.165L68.4637 80.6632L67.6851 82.8564L69.0987 83.3583ZM69.8773 81.165L68.5068 81.7747L69.5849 84.1981L70.9554 83.5884L72.3259 82.9788L71.2478 80.5553L69.8773 81.165ZM70.9554 83.5884L69.4641 83.7502L69.5087 84.1617L71 84L72.4913 83.8383L72.4466 83.4267L70.9554 83.5884Z" fill="black"/>
<path d="M67 64L65.6651 64.6841L66.1651 65.6598L67.2466 65.4796L67 64ZM66.1618 62.3643L65.7231 60.9299L64.0097 61.4539L64.8269 63.0484L66.1618 62.3643ZM66.5374 62.2495L67.9675 61.797L67.5194 60.3806L66.0987 60.8151L66.5374 62.2495ZM67.0866 63.9856L67.3332 65.4652L69.0381 65.181L68.5167 63.5331L67.0866 63.9856ZM67 64L68.3349 63.3159L67.4967 61.6802L66.1618 62.3643L64.8269 63.0484L65.6651 64.6841L67 64ZM66.1618 62.3643L66.6005 63.7988L66.976 63.6839L66.5374 62.2495L66.0987 60.8151L65.7231 60.9299L66.1618 62.3643ZM66.5374 62.2495L65.1072 62.7019L65.6565 64.438L67.0866 63.9856L68.5167 63.5331L67.9675 61.797L66.5374 62.2495ZM67.0866 63.9856L66.84 62.506L66.7534 62.5204L67 64L67.2466 65.4796L67.3332 65.4652L67.0866 63.9856Z" fill="black"/>
<path d="M61 42L59.6651 42.6841L60.1651 43.6598L61.2466 43.4796L61 42ZM60.1618 40.3643L59.7231 38.9299L58.0097 39.4539L58.8269 41.0484L60.1618 40.3643ZM60.5374 40.2495L61.9675 39.797L61.5194 38.3806L60.0987 38.8151L60.5374 40.2495ZM61.0866 41.9856L61.3332 43.4652L63.0381 43.181L62.5167 41.5331L61.0866 41.9856ZM61 42L62.3349 41.3159L61.4967 39.6802L60.1618 40.3643L58.8269 41.0484L59.6651 42.6841L61 42ZM60.1618 40.3643L60.6005 41.7988L60.976 41.6839L60.5374 40.2495L60.0987 38.8151L59.7231 38.9299L60.1618 40.3643ZM60.5374 40.2495L59.1072 40.7019L59.6565 42.438L61.0866 41.9856L62.5167 41.5331L61.9675 39.797L60.5374 40.2495ZM61.0866 41.9856L60.84 40.506L60.7534 40.5204L61 42L61.2466 43.4796L61.3332 43.4652L61.0866 41.9856Z" fill="black"/>
<path d="M54 64L52.6651 64.6841L53.1651 65.6598L54.2466 65.4796L54 64ZM53.1618 62.3643L52.7231 60.9299L51.0097 61.4539L51.8269 63.0484L53.1618 62.3643ZM53.5374 62.2495L54.9675 61.797L54.5194 60.3806L53.0987 60.8151L53.5374 62.2495ZM54.0866 63.9856L54.3332 65.4652L56.0381 65.181L55.5167 63.5331L54.0866 63.9856ZM54 64L55.3349 63.3159L54.4967 61.6802L53.1618 62.3643L51.8269 63.0484L52.6651 64.6841L54 64ZM53.1618 62.3643L53.6005 63.7988L53.976 63.6839L53.5374 62.2495L53.0987 60.8151L52.7231 60.9299L53.1618 62.3643ZM53.5374 62.2495L52.1072 62.7019L52.6565 64.438L54.0866 63.9856L55.5167 63.5331L54.9675 61.797L53.5374 62.2495ZM54.0866 63.9856L53.84 62.506L53.7534 62.5204L54 64L54.2466 65.4796L54.3332 65.4652L54.0866 63.9856Z" fill="black"/>
</svg>
