<svg xmlns="http://www.w3.org/2000/svg" width="120" height="120" fill="none" viewBox="0 0 120 120"><path fill="#000" d="M8.1 116v1.5h.032l.033-.001zm2.54-.109.157-1.492-.11-.012-.111.005zm2.64.278-.157 1.491.15.016.152-.014zm2.64-.257-.06-1.499-.043.002-.042.004zm2.64-.106.116-1.496-.088-.007-.088.004zm2.64.205-.116 1.496.055.004h.056zm2.64.009-.005 1.5h.056l.056-.004zm2.64-.189.042-1.5-.075-.002-.074.005zm2.64.074.176-1.49-.066-.007-.068-.002zm2.64.312-.176 1.49.21.025.21-.034zm2.64-.433.08-1.498-.163-.009-.16.026zm2.64.139-.08 1.498.09.005.088-.006zm2.64-.172.182-1.489-.14-.017-.14.009zm2.64.322-.182 1.489.115.014.116-.004zm2.64-.087-.048-1.499h-.001zm2.64-.085.048 1.5.023-.001.022-.002zm2.64-.164.261-1.477-.176-.031-.178.011zm2.64.467-.261 1.477.26.046.26-.045zm2.64-.463.14-1.494-.2-.019-.2.035zm2.64.249-.14 1.493.11.01.11-.006zm2.64-.143.213-1.485-.146-.021-.148.008zm2.64.378-.213 1.485.244.035.243-.045zm2.64-.49.078-1.498-.177-.009-.175.032zm2.64.138-.078 1.498.023.001.023.001zm2.64.057-.032 1.499.028.001.029-.001zm2.64-.044.185-1.489-.105-.013-.105.002zm2.64.328-.185 1.488.16.02.162-.014zm2.64-.241-.011-1.5h-.063l-.062.006zm2.64-.021.169-1.49-.09-.01h-.09zm2.64.299-.169 1.491.197.022.195-.029zm2.64-.397.073-1.498-.148-.007-.148.022zm2.64.13.085-1.498h-.012zm2.64.151-.086 1.497.104.006.103-.008zm2.64-.214-.01-1.5-.056.001-.055.004zm2.64-.018.202-1.486-.106-.014h-.106zm2.64.358-.202 1.487.236.032.233-.043zm2.64-.477.244-1.48-.256-.042-.255.046zm2.64.435-.244 1.48.14.023.143-.004zm2.64-.068.039 1.499.094-.002.093-.014zm2.64-.403.353-1.458-.287-.069-.292.044zM8 116v1.5h.1v-3H8zm.1 0 .065 1.499 2.54-.11-.065-1.498-.065-1.499-2.54.109zm2.54-.109-.157 1.491 2.64.278.157-1.491.157-1.492-2.64-.278zm2.64.278.145 1.493 2.64-.257-.145-1.493-.145-1.493-2.64.257zm2.64-.257.06 1.499 2.64-.106-.06-1.499-.06-1.499-2.64.106zm2.64-.106-.116 1.495 2.64.206.116-1.496.116-1.495-2.64-.206zm2.64.205-.005 1.5 2.64.009.005-1.5.005-1.5-2.64-.009zm2.64.009.107 1.496 2.64-.189-.107-1.496-.107-1.497-2.64.19zm2.64-.189-.042 1.499 2.64.074.042-1.499.042-1.499-2.64-.075zm2.64.074-.176 1.49 2.64.312.176-1.49.176-1.489-2.64-.313zm2.64.312.243 1.481 2.64-.434-.243-1.48-.243-1.481-2.64.434zm2.64-.433-.08 1.498 2.64.139.08-1.498.08-1.497-2.64-.14zm2.64.139.098 1.497 2.64-.172-.098-1.497-.098-1.497-2.64.173zm2.64-.172-.182 1.489 2.64.322.182-1.489.182-1.489-2.64-.322zm2.64.322.05 1.499 2.64-.086-.05-1.5-.05-1.499-2.64.087zm2.64-.087.048 1.5 2.64-.085-.048-1.5-.048-1.499-2.64.085zm2.64-.085.093 1.497 2.64-.164-.093-1.497-.093-1.497-2.64.164zm2.64-.164-.261 1.477 2.64.467.261-1.477.261-1.477-2.64-.467zm2.64.467.26 1.478 2.64-.464-.26-1.477-.26-1.478-2.64.464zm2.64-.463-.14 1.493 2.64.249.14-1.493.14-1.494-2.64-.249zm2.64.249.08 1.497 2.64-.142-.08-1.498-.08-1.498-2.64.143zm2.64-.143-.213 1.485 2.64.378.213-1.485.213-1.485-2.64-.378zm2.64.378.274 1.475 2.64-.49-.274-1.475-.274-1.475-2.64.49zm2.64-.49-.078 1.498 2.64.138.078-1.498.078-1.498-2.64-.138zm2.64.138-.032 1.5 2.64.056.032-1.499.032-1.5-2.64-.057zm2.64.057.025 1.499 2.64-.043-.025-1.5-.025-1.5-2.64.044zm2.64-.044-.185 1.488 2.64.328.185-1.488.185-1.489-2.64-.328zm2.64.328.136 1.494 2.64-.242-.136-1.493-.136-1.494-2.64.241zm2.64-.241.011 1.5 2.64-.021-.011-1.5-.011-1.5-2.64.021zm2.64-.021-.169 1.491 2.64.299.169-1.491.169-1.49-2.64-.299zm2.64.299.223 1.484 2.64-.397-.223-1.484-.223-1.483-2.64.397zm2.64-.397-.073 1.499 2.64.129.073-1.498.073-1.498-2.64-.13zm2.64.13-.086 1.497 2.64.151.086-1.497.085-1.498-2.64-.151zm2.64.151.12 1.495 2.64-.214-.12-1.495-.12-1.495-2.64.213zm2.64-.214.01 1.5 2.64-.018-.01-1.5-.01-1.5-2.64.018zm2.64-.018-.202 1.487 2.64.358.202-1.487.202-1.486-2.64-.358zm2.64.358.267 1.476 2.64-.477-.267-1.476-.267-1.476-2.64.477zm2.64-.477-.244 1.48 2.64.435.244-1.48.244-1.481-2.64-.434zm2.64.435.039 1.499 2.64-.068-.039-1.499-.039-1.5-2.64.068zm2.64-.068.226 1.483 2.64-.403-.226-1.483-.226-1.483-2.64.403zm2.64-.403-.353 1.458 1.04.252L112 116l.353-1.458-1.04-.252z"/><path fill="#000" d="M60.468 43.572h-1.5v.032l.001.032zm.11 2.54 1.491.157.012-.11-.005-.112zm-.279 2.64-1.492-.157-.015.15.014.152zm.257 2.64 1.498-.06-.001-.043-.005-.042zm.106 2.64 1.495.116.007-.088-.003-.089zm-.206 2.64-1.495-.117-.004.056v.056zm-.009 2.64-1.5-.005v.056l.004.056zm.19 2.64 1.5.042.001-.075-.005-.075zm-.074 2.64 1.49.176.007-.067.002-.067zm-.312 2.64-1.49-.176-.025.21.034.21zm.434 2.64 1.498.079.008-.163-.026-.16zm-.14 2.64-1.497-.08-.005.09.006.088zm.174 2.64 1.489.18.017-.139-.01-.14zm-.321 2.64-1.49-.181-.013.115.004.116zm.088 2.64 1.499-.05zm.086 2.64-1.499.049v.022l.002.023zm.166 2.64 1.477.26.031-.176-.011-.179zm-.465 2.64-1.477-.26-.046.26.046.26zm.466 2.64 1.453.373.08-.315-.056-.32zm-.665 2.587-1.453-.373-.088.341.074.345zm.552 2.592 1.484.22.04-.268-.057-.265zm-.392 2.638-1.484-.22-.037.25.047.248zm.497 2.639 1.483.228.04-.254-.048-.252zm-.408 2.643-1.482-.229-.028.18.016.18zm.222 2.528 1.5-.009v-.061l-.006-.061zm.016 2.641 1.486.203.015-.106v-.107zm-.36 2.637-1.486-.204-.023.163.014.163zm.216 2.643 1.5-.034-.001-.044-.004-.044zm.03 1.319.103 1.496 1.43-.097-.033-1.434zm.02-72.387h-1.5v.1h3v-.1zm0 .1-1.498.064.11 2.54 1.498-.064 1.499-.065-.11-2.54zm.11 2.54-1.491-.157-.279 2.64 1.492.157 1.492.157.278-2.64zm-.278 2.64-1.493.145.257 2.64 1.492-.145 1.493-.145-.256-2.64zm.257 2.64-1.5.06.107 2.64 1.499-.06 1.499-.06-.107-2.64zm.106 2.64-1.496-.117-.205 2.64 1.495.117 1.496.116.205-2.64zm-.206 2.64-1.5-.005-.009 2.64 1.5.005 1.5.005.01-2.64zm-.009 2.64-1.496.107.19 2.64 1.496-.107 1.496-.108-.19-2.64zm.19 2.64-1.5-.042-.074 2.64 1.5.042 1.499.042.074-2.64zm-.074 2.64-1.49-.176-.312 2.64 1.49.176 1.49.176.311-2.64zm-.312 2.64-1.48.243.434 2.64 1.48-.243 1.48-.244-.434-2.64zm.434 2.64-1.498-.08-.14 2.64 1.499.08 1.497.079.14-2.64zm-.14 2.64-1.496.098.173 2.64 1.497-.098 1.497-.099-.174-2.64zm.174 2.64-1.49-.182-.32 2.64 1.489.182 1.489.18.321-2.64zm-.321 2.64-1.5.05.088 2.64 1.5-.05 1.499-.05-.088-2.64zm.088 2.64-1.5.049.087 2.64 1.5-.05 1.498-.049-.086-2.64zm.086 2.64-1.497.094.166 2.64 1.497-.095 1.497-.094-.166-2.64zm.166 2.64-1.477-.26-.465 2.64 1.477.26 1.477.26.465-2.64zm-.465 2.64-1.477.26.466 2.64 1.477-.26 1.477-.261-.466-2.64zm.466 2.64-1.453-.374-.665 2.588 1.453.373 1.453.374.665-2.588zm-.665 2.587-1.467.313.552 2.592 1.467-.313 1.467-.313-.552-2.591zm.552 2.592-1.483-.22-.393 2.637 1.484.221 1.484.22.392-2.637zm-.392 2.638-1.474.278.498 2.639 1.473-.278 1.474-.278-.497-2.639zm.497 2.639-1.482-.229-.408 2.643 1.482.229 1.483.229.408-2.644zm-.408 2.643-1.494.131.222 2.528 1.494-.131 1.494-.131-.221-2.528zm.222 2.528-1.5.01.016 2.64 1.5-.009 1.5-.01-.016-2.64zm.016 2.641-1.486-.204-.36 2.637 1.486.204 1.486.203.36-2.637zm-.36 2.637-1.495.122.216 2.644 1.495-.123 1.495-.122-.216-2.644zm.216 2.643-1.5.035.031 1.318 1.5-.034 1.5-.035-.031-1.318zm.03 1.319-.101-1.497-.048.004.102 1.496.102 1.497.048-.004zM53.09 43.502l1.484-.215-.002-.012-.002-.012zm.361 2.505 1.495-.12-.004-.047-.006-.047zm.212 2.64-1.495.121.012.154.044.148zm.747 2.55 1.467-.314-.012-.055-.016-.053zm.554 2.585 1.497-.094-.007-.112-.024-.108zm.166 2.646-1.497.094.002.032.003.032zm.277 2.624-1.491.158.003.033.005.032zm.394 2.62 1.5-.028-.003-.098-.014-.097zm.049 2.645 1.492.151.01-.09-.002-.089zm-.268 2.644-1.492-.15-.02.188.03.188zm.402 2.645 1.493.14.018-.184-.028-.182zm-.247 2.635-1.493-.14-.005.05-.001.05zm-.071 2.652 1.452.375.043-.165.004-.17zm-.667 2.582-1.452-.375-.027.104-.012.106zm-.29 2.625 1.49.175v-.01zm-.31 2.624-1.49-.176-.001.019-.002.018zm-.244 2.635 1.417.492.06-.172.016-.181zm-.88 2.534-1.417-.492-.086.245.003.26zm.023 2.681 1.447.398.055-.202-.002-.21zm-.705 2.564-1.446-.398-.02.071-.012.073zm-.446 2.593 1.42.485.038-.113.02-.118zm-.863 2.524-1.42-.485-.084.247.004.26zm.04 2.685 1.473.29.03-.155-.002-.157zm-.504 2.569 1.466.317.003-.014.002-.013zm-.546 2.526 1.466.319v-.002zm-.56 2.573 1.433.442.019-.061.013-.062zm-.786 2.544-1.433-.443-.054.175-.01.183zm-.148 2.65 1.485.211.009-.063.003-.064zm4.294-70.4-1.481.24.016.098 1.48-.238 1.482-.24-.017-.098zm.016.1-1.485.214.361 2.505 1.485-.214 1.485-.214-.362-2.506zm.361 2.505-1.495.12.212 2.641 1.495-.12 1.495-.12-.212-2.64zm.212 2.64-1.44.422.747 2.55 1.44-.422 1.44-.422-.747-2.549zm.747 2.55-1.467.314.554 2.585 1.467-.314 1.466-.314-.553-2.585zm.554 2.585-1.497.094.166 2.646 1.497-.094 1.497-.094-.166-2.647zm.166 2.646-1.492.158.278 2.624 1.491-.158 1.492-.157-.277-2.625zm.277 2.624-1.483.223.393 2.62 1.483-.223 1.484-.223-.393-2.62zm.394 2.62-1.5.028.05 2.645 1.499-.028 1.5-.028-.05-2.645zm.049 2.645-1.493-.15-.267 2.643 1.492.151 1.493.151.267-2.644zm-.268 2.644-1.483.225.402 2.645 1.483-.225 1.483-.226-.402-2.644zm.402 2.645-1.494-.14-.246 2.635 1.493.14 1.494.14.246-2.636zm-.247 2.635-1.5-.04-.07 2.651 1.499.04 1.5.041.07-2.652zm-.071 2.652-1.452-.375-.667 2.582 1.452.375 1.453.375.666-2.582zm-.667 2.582-1.49-.165-.29 2.625 1.49.165 1.49.164.291-2.624zm-.29 2.625-1.49-.176-.31 2.624 1.49.176 1.49.175.31-2.624zm-.31 2.624-1.493-.139-.245 2.635 1.494.139 1.493.139.245-2.635zm-.244 2.635-1.417-.492-.88 2.534 1.417.492 1.417.492.88-2.534zm-.88 2.534-1.5.013.023 2.681 1.5-.013 1.5-.013-.023-2.681zm.023 2.681-1.446-.398-.705 2.564 1.446.398 1.447.398.705-2.564zm-.705 2.564-1.478-.254-.446 2.592 1.478.255 1.478.254.447-2.592zm-.446 2.593-1.42-.486-.862 2.525 1.42.485 1.419.485.862-2.524zm-.863 2.524-1.5.023.041 2.685 1.5-.023 1.5-.022-.041-2.686zm.04 2.685-1.471-.289-.505 2.569 1.472.289 1.471.29.506-2.569zm-.504 2.569-1.467-.316-.545 2.525 1.466.317 1.466.317.546-2.526zm-.546 2.526-1.465-.319-.561 2.572 1.466.32 1.465.319.56-2.573zm-.56 2.573-1.434-.443-.785 2.544 1.433.443 1.434.442.785-2.544zm-.786 2.544-1.497-.085-.15 2.651 1.499.084 1.497.084.149-2.65zm-.148 2.65-1.486-.21-.184 1.303 1.485.21 1.485.211.185-1.303zm19.067-70.3-1.482-.232-.01.068-.005.069zm-.16 2.54 1.447.394.04-.147.01-.152zm-.698 2.561-1.447-.394-.036.13-.011.135zm-.228 2.642 1.487.199.005-.035.003-.035zm-.35 2.615 1.464.325.014-.063.009-.063zm-.575 2.586-1.464-.326-.016.072-.009.073zm-.319 2.62-1.489-.18-.01.075v.077zm-.051 2.643 1.494.132.005-.051v-.052zm-.232 2.624 1.485.212.006-.04.003-.04zm-.376 2.635-1.485-.212-.034.24.042.237zm.471 2.632h1.5v-.133l-.023-.132zm.002 2.638h-1.5v.117l.018.114zm.408 2.607 1.5.002v-.118l-.018-.116zm-.004 2.657-1.5-.002v.134l.023.131zm.464 2.6-1.477.263.002.011.002.012zm.504 2.594-1.472.286.005.029.007.03zm.606 2.57h1.5v-.174l-.04-.17zm-.001 2.68-1.5-.002v.266l.09.249zm.917 2.518 1.495-.129-.017-.198-.068-.187zm.228 2.642-1.495.129.01.114.027.11zm.623 2.571 1.498-.066-.006-.145-.034-.142zm.117 2.666-1.498.066.01.247.09.23zm.974 2.503 1.486-.203-.024-.176-.064-.165zm.358 2.619-1.486.203.003.023.004.022zm.438 2.606-1.48.248.005.027.006.027zm.533 2.588 1.497-.089-.006-.108-.022-.106zm.157 2.653-1.498.089.01.153.04.149zm.692 2.564 1.491-.16-.013-.117-.03-.114zm-4.482-70.473-1.482-.232-.016.099 1.482.232 1.482.232.016-.1zm-.016.099-1.497-.095-.16 2.54 1.497.095 1.497.095.16-2.54zm-.16 2.54-1.448-.394-.697 2.56 1.447.395 1.448.394.697-2.56zm-.698 2.561-1.494-.129-.228 2.642 1.494.129 1.495.129.228-2.642zm-.228 2.642-1.486-.2-.35 2.615 1.486.2 1.487.199.35-2.615zm-.35 2.615-1.464-.326-.575 2.586 1.464.326 1.464.325.575-2.586zm-.575 2.586-1.489-.181-.319 2.62 1.49.182 1.488.18.319-2.62zm-.319 2.62-1.5-.029-.05 2.643 1.499.03 1.5.028.05-2.642zm-.051 2.643-1.494-.132-.232 2.624 1.494.132 1.494.132.232-2.624zm-.232 2.624-1.485-.212-.376 2.635 1.485.212 1.485.212.376-2.635zm-.376 2.635-1.477.265.472 2.632 1.476-.265 1.477-.264-.472-2.632zm.471 2.632h-1.5l.002 2.638h1.5l1.5-.001-.002-2.637zm.002 2.638-1.482.231.408 2.608 1.482-.232 1.482-.232-.408-2.607zm.408 2.607-1.5-.002-.004 2.657 1.5.002 1.5.002.004-2.657zm-.004 2.657-1.477.263.464 2.6 1.477-.264 1.477-.263-.464-2.6zm.464 2.6-1.473.286.505 2.594 1.472-.286 1.472-.287-.504-2.594zm.504 2.594-1.46.344.607 2.57 1.46-.344 1.46-.345-.607-2.57zm.606 2.57-1.5-.001-.001 2.68h1.5l1.5.001.001-2.68zm-.001 2.68-1.41.513.918 2.518 1.41-.513 1.409-.514-.918-2.518zm.917 2.518-1.494.128.227 2.643 1.495-.129 1.494-.128-.227-2.643zm.228 2.642-1.458.354.623 2.57 1.458-.353 1.458-.353-.624-2.571zm.623 2.571-1.499.066.118 2.666 1.498-.066 1.499-.067-.118-2.665zm.117 2.666-1.398.543.974 2.504 1.398-.544 1.398-.544-.974-2.503zm.974 2.503-1.486.203.358 2.619 1.486-.203 1.486-.203-.358-2.619zm.358 2.619-1.479.248.438 2.606 1.479-.248 1.48-.249-.438-2.605zm.438 2.606-1.47.302.533 2.588 1.47-.302 1.469-.303-.533-2.588zm.533 2.588-1.498.088.157 2.654 1.498-.089 1.497-.089-.157-2.653zm.157 2.653-1.449.391.692 2.564 1.449-.391 1.448-.391-.692-2.564zm.692 2.564-1.492.16.132 1.228 1.491-.16 1.492-.16-.132-1.228zM42.422 35.612l-.867-1.224-.633.449v.775zm.082-.058.867 1.224.7-.495-.073-.855zm-.217-2.563-.575-1.385-1.012.42.092 1.092zm2.426-1.007.575 1.385.036-.014.035-.017zm2.394-1.142-.564-1.39-.041.017-.04.019zm2.45-.995-.386-1.45-.091.025-.088.035zm2.562-.68.385 1.449.123-.033.117-.053zm2.367-1.086.625 1.364 1.093-.5-.25-1.176zm-.53-2.49-1.252-.826-.346.524.131.614zm1.34-2.032.101-1.497-.872-.059-.481.73zm2.652.18-.102 1.496.174.012.173-.028zm2.641-.437.097-1.497-.172-.011-.17.028zm2.642.171-.097 1.497.06.004.061-.001zm2.664-.043 1.4-.54-.378-.976-1.046.017zm.85 2.197 1.497.08.017-.32-.116-.301zm-.132 2.432-1.498-.08-.056 1.056.975.408zm2.411 1.01-.58 1.383.106.044.111.028zm2.571.64.732-1.308-.175-.098-.194-.049zm2.338 1.309-.732 1.309.192.107.215.048zm2.618.58.95-1.16-.276-.226-.349-.078zm2.067 1.691 1.488.19.105-.824-.643-.527zm-.316 2.476-.213 1.485 1.508.216.193-1.51zm-2.64-.378.212-1.485-.244-.035-.242.046zm-2.64.49-.079 1.498.178.01.174-.033zm-2.64-.138.078-1.498h-.023l-.023-.001zm-2.64-.056.032-1.5h-.057zm-2.64.044-.185 1.488.104.013.106-.002zm-2.64-.329.185-1.488-.16-.02-.162.015zm-2.64.242.011 1.5h.063l.062-.007zm-2.64.02-.17 1.49.09.01h.091zm-2.64-.299.169-1.49-.197-.023-.195.03zm-2.64.397-.074 1.498.15.007.147-.022zm-2.64-.13-.086 1.498h.012zm-2.64-.15.085-1.498-.103-.006-.103.009zm-2.64.213.017 1.5h.052l.051-.005zm-1.56.018h-1.5v1.517l1.517-.017zm0-.097.867 1.224.082-.057-.867-1.225-.867-1.224-.082.058zm.082-.058 1.494-.126-.216-2.563-1.495.126-1.495.127.217 2.563zm-.217-2.563.575 1.386 2.426-1.008-.575-1.385-.575-1.385-2.426 1.007zm2.426-1.007.646 1.354 2.394-1.142-.646-1.354-.646-1.354-2.394 1.142zm2.394-1.142.564 1.39 2.45-.995-.564-1.39-.565-1.39-2.45.995zm2.45-.995.385 1.45 2.562-.681-.385-1.45-.386-1.45-2.562.682zm2.562-.68.625 1.363 2.367-1.085-.625-1.364-.625-1.363-2.367 1.084zm2.367-1.086 1.467-.312-.53-2.49-1.467.312-1.467.312.53 2.49zm-.53-2.49 1.253.825 1.34-2.031-1.253-.826-1.252-.826-1.34 2.032zm1.34-2.032-.102 1.497 2.652.18.102-1.497.101-1.497-2.652-.18zm2.652.18.245 1.48 2.641-.438-.245-1.48-.245-1.48-2.641.438zm2.641-.437-.097 1.496 2.642.172.097-1.497.097-1.497-2.642-.171zm2.642.171.024 1.5 2.664-.043-.024-1.5-.024-1.5-2.664.043zm2.664-.043-1.399.541.85 2.197 1.398-.541 1.4-.541-.85-2.196zm.85 2.197-1.499-.08-.13 2.432 1.497.08 1.498.081.131-2.433zm-.132 2.432-.579 1.384 2.41 1.01.58-1.384.58-1.384-2.411-1.01zm2.411 1.01-.363 1.455 2.571.641.363-1.455.363-1.456-2.571-.64zm2.571.64-.732 1.31 2.338 1.308.732-1.31.733-1.308-2.339-1.308zm2.338 1.309-.325 1.464 2.618.581.325-1.464.325-1.465-2.618-.58zm2.618.58-.95 1.162 2.067 1.69.95-1.16.95-1.162-2.067-1.69zm2.067 1.691-1.488-.19-.316 2.476 1.488.19 1.488.19.316-2.476zm-.316 2.476.212-1.485-2.64-.378-.212 1.485-.213 1.485 2.64.378zm-2.64-.378-.274-1.474-2.64.49.274 1.474.273 1.475 2.64-.49zm-2.64.49.078-1.498-2.64-.138-.078 1.498-.079 1.498 2.64.138zm-2.64-.138.032-1.5-2.64-.056-.032 1.5-.033 1.5 2.64.056zm-2.64-.056-.025-1.5-2.64.044.025 1.5.025 1.5 2.64-.045zm-2.64.044.185-1.489-2.64-.328-.185 1.488-.185 1.489 2.64.328zm-2.64-.329-.137-1.493-2.64.241.137 1.494.136 1.493 2.64-.24zm-2.64.242-.012-1.5-2.64.02.012 1.5.011 1.5 2.64-.02zm-2.64.02.168-1.49-2.64-.3-.168 1.491-.17 1.49 2.64.3zm-2.64-.299-.223-1.483-2.64.397.223 1.483.223 1.483 2.64-.397zm-2.64.397.073-1.498-2.64-.13-.073 1.498-.074 1.499 2.64.129zm-2.64-.13.085-1.497-2.64-.15-.085 1.497-.086 1.497 2.64.151zm-2.64-.15-.121-1.495-2.64.213.12 1.495.121 1.495 2.64-.213zm-2.64.213-.017-1.5-1.56.018.017 1.5.017 1.5L44 37.19zm-1.56.018h1.5v-.097h-3v.097z"/><path fill="#000" d="m60.468 9.238-1.5-.008v.038zm.052 2.54 1.49.168.012-.099-.002-.1zm-.296 2.639-1.491-.168-.018.157.016.158zm.26 2.64 1.498-.066-.002-.041-.004-.04zm.116 2.64 1.495.116.008-.091-.005-.092zm-.205 2.64-1.496-.116-.005.062v.063zm.073-13.2-1.5-.007v.1l1.5.008 1.5.007v-.1zm0 .1-1.5.031.052 2.541 1.5-.03 1.5-.031-.053-2.541zm.052 2.541-1.49-.167-.297 2.638 1.49.168 1.491.167.297-2.638zm-.296 2.639-1.493.147.26 2.64 1.493-.147 1.492-.147-.26-2.64zm.26 2.64-1.499.066.116 2.64 1.499-.067 1.499-.066-.117-2.64zm.116 2.64-1.496-.117-.205 2.64 1.496.117 1.495.116.205-2.64zm-.205 2.64-1.5.009.005.934 1.5-.009 1.5-.009-.005-.934zm15.88 13.417-1.09-1.03-.508.537.117.73zm.41 2.556 1.359.634.194-.417-.073-.454zm-1.092 2.343.883 1.213.313-.228.164-.352zm-2.073 1.51.407 1.443.258-.073.217-.158zm-2.56.723.097 1.496.158-.01.152-.043zm-2.65.173-.097-1.497h-.014l-.014.002zm-2.632.221-.125-1.495-.026.003-.026.003zm-2.63.314-.022 1.5.1.002.1-.012zm-2.646-.037-.202 1.486.09.012.09.002zm-2.633-.358.203-1.486-.186-.026-.186.022zm-2.66.303-.208 1.485.189.027.19-.022zm-2.625-.369.209-1.485-.05-.007-.05-.004zm-2.647-.193-.518 1.407.198.073.21.016zm-2.5-.92-.718 1.317.096.053.103.038zm-2.28-1.242-1.422.476.187.559.517.282zm-.831-2.485-1.499-.063-.012.277.088.262zm.109-2.59.271-1.476-1.697-.312-.073 1.724zm32.009-.022-1.09-1.03-.07.072 1.09 1.03 1.09 1.031.07-.072zm-.07.073-1.48.237.409 2.557 1.481-.238 1.481-.237-.409-2.556zm.41 2.556-1.36-.633-1.09 2.343 1.359.633 1.36.633 1.09-2.342zm-1.091 2.343-.883-1.213-2.073 1.51.883 1.212.882 1.213 2.074-1.51zm-2.073 1.51-.408-1.444-2.56.723.407 1.444.408 1.443 2.56-.723zm-2.56.723-.098-1.497-2.65.173.098 1.497.098 1.496 2.65-.172zm-2.65.173-.126-1.495-2.631.221.126 1.495.125 1.495 2.632-.222zm-2.632.221-.177-1.49-2.631.315.178 1.49.177 1.489 2.631-.314zm-2.63.314.021-1.5-2.646-.037-.021 1.5-.022 1.5 2.646.037zm-2.646-.037.202-1.487-2.632-.358-.203 1.487-.201 1.486 2.632.358zm-2.633-.358-.17-1.49-2.659.302.17 1.49.17 1.491 2.66-.303zm-2.66.303.21-1.486-2.626-.368-.209 1.485-.208 1.485 2.625.37zm-2.625-.369.11-1.496-2.648-.193-.11 1.496-.108 1.496 2.647.193zm-2.647-.193.518-1.408-2.5-.92-.519 1.408-.517 1.408 2.5.92zm-2.5-.92.717-1.317-2.279-1.242-.718 1.317-.718 1.317 2.28 1.242zm-2.28-1.242 1.423-.476-.832-2.485-1.422.476-1.423.476.832 2.485zm-.831-2.485 1.498.063.11-2.59-1.5-.063-1.498-.064-.109 2.591zm.109-2.59-.272 1.475.259.047.271-1.475.272-1.475-.259-.048zm6.667 68.854.056-1.498-.01-.001h-.011zm2.528.094.167-1.49-.055-.006-.056-.003zm2.64.296-.168 1.491.16.018.16-.017zm2.64-.269.112-1.496-.132-.01-.133.013zm-7.908-.123-.034 1.5.1.002.034-1.5.035-1.499-.1-.002zm.1.002-.055 1.499 2.527.094.056-1.499.056-1.499-2.528-.093zm2.528.094-.167 1.491 2.64.296.166-1.491.167-1.491-2.639-.295zm2.64.296.151 1.492 2.64-.269-.152-1.492-.152-1.493-2.64.27zm2.64-.269-.114 1.495 1.116.085.113-1.496.114-1.496-1.117-.084zm-5.637-11.495.053-1.5h-.008zm2.53.09.164-1.492-.055-.006-.056-.002zm2.64.29-.165 1.491.206.023.206-.034zm1.582-.264h1.5v-1.772l-1.747.292zm-6.852-.12-.045 1.5.1.003.045-1.5.045-1.499-.1-.003zm.1.004-.053 1.499 2.53.09.053-1.5.053-1.499-2.53-.09zm2.53.09-.165 1.49 2.64.291.164-1.49.165-1.491-2.64-.291zm2.64.29.246 1.48 1.584-.265-.248-1.48-.247-1.479-1.583.265zm1.582-.264h-1.5v.087h3V93.3z"/></svg>