<svg width="120" height="120" viewBox="0 0 120 120" fill="none" xmlns="http://www.w3.org/2000/svg">
<path d="M26.5 22.9727L27.8711 22.7383L28.0469 23.7344L28.0586 23.8164V23.9102L28.1875 25.9023L28.1992 26.0312L28.1875 26.1484L28.1348 26.6436L29.3867 26.7109L29.832 26.7344L30.1836 26.9922L32.3398 28.5508L32.4922 28.668L32.6211 28.8203L34.25 30.8242L34.4023 31L34.4844 31.2344L35.4219 33.6719L35.5039 33.8945L35.5156 34.1172L35.6914 36.7656L35.7031 36.8828L35.6914 36.9883L35.5244 38.8027L36.4365 39.0215L37.5957 39.2988L37.5879 40.4893L37.5713 43.0957L37.666 45.1455L38.7275 45.2529L41.2373 45.1865V45.1748L42.5156 45.1143L42.5938 43.6523L42.6172 43.3828L42.7227 43.1367L43.7773 40.6875L44.7969 38.2852L44.8555 38.1445L44.9375 38.0273L46.4258 35.8594L46.4844 35.7773L46.5547 35.6953L48.3125 33.7734L48.3945 33.6797L48.5 33.6094L50.5508 31.9922L50.5742 31.9688L50.6094 31.9453L52.7656 30.4336L52.8945 30.3398L53.0352 30.2812L55.4609 29.2266L55.625 29.168L55.8008 29.1328L58.4141 28.6758L58.4961 28.6523H58.5898L61.2266 28.5234L61.3906 28.5117L61.543 28.5352L64.1445 28.9688H64.168L64.2031 28.9805L66.7695 29.5078L66.9219 29.543L67.0625 29.6016L69.4648 30.6562L69.5586 30.6914L69.6523 30.75L71.8906 32.1211L71.9844 32.1914L74.1289 33.7617L74.3516 33.9141L74.4922 34.1367L75.9688 36.3398L75.9922 36.375L76.0039 36.3984L77.375 38.625L77.4102 38.6953L77.4336 38.7539L78.5938 41.1211L78.6523 41.2383L78.6875 41.3672L79.4258 43.9219L79.4844 44.1328V44.3555L79.4717 45.7412L80.9238 45.8037L83.5381 45.7979L83.667 45.8008L83.7949 45.8262L84.3955 45.9258L84.4023 45.8271L84.3076 43.2549L84.3018 43.0986L84.3281 42.9453L84.7041 40.7686L84.6406 40.6348L83.6445 38.5H86.1572L86.2139 38.5039L86.4434 38.5205L86.4883 37.4805L86.5117 34.8906V34.7031L86.5703 34.5039L87.2617 32.0078L87.3086 31.8203L87.4141 31.6562L88.7148 29.4297L88.8906 29.1484L89.1602 28.9609L91.2812 27.4727L91.5039 27.3203L91.7734 27.25L93.0986 26.917L93.1992 25.9492L93.082 24.1562L92.918 23.2656L92.6016 21.4961H94.5V22.9727L95.8711 22.7383L96.0469 23.7344L96.0586 23.8164V23.9102L96.1875 25.9023L96.1992 26.0312L96.1875 26.1484L96.1348 26.6436L97.3867 26.7109L97.832 26.7344L98.1836 26.9922L100.34 28.5508L100.492 28.668L100.621 28.8203L102.25 30.8242L102.402 31L102.484 31.2344L103.422 33.6719L103.504 33.8945L103.516 34.1172L103.691 36.7656L103.703 36.8828L103.691 36.9883L103.524 38.8027L104.437 39.0215L105.596 39.2988L105.588 40.4893L105.571 43.0957L105.692 45.6904L105.696 45.7764L105.69 45.8623L105.514 48.4492L105.489 51.0547L105.487 51.1016L105.382 53.6826L105.477 56.2285L105.707 58.8281L105.714 58.9062L105.713 58.9844L105.669 61.625L105.653 64.249V64.2607L105.652 64.2734L105.596 66.8789L105.649 69.4883L105.652 69.6084L105.636 69.7266L105.288 72.2188L105.435 74.6836L105.708 77.2832L105.726 77.4463L105.707 77.6084L105.423 80.1191L105.574 82.6299L105.579 82.7129L105.574 82.7969L105.445 85.3086L105.739 87.8262L105.766 88.0527L105.724 88.2773L105.261 90.7314L105.424 93.1807L105.427 93.2227V93.2637L105.456 95.9033H105.455L105.514 98.5273H105.513L105.587 101.158V101.176L105.588 101.193L105.599 103.834L105.6 103.934L105.586 104.032L105.275 106.435L105.736 108.838L105.782 109.078L105.749 109.32L105.402 111.887L105.304 114.245L105.664 114.242H105.816L105.969 114.266L108.406 114.746L110.809 114.5L110.891 114.488H110.973L112.016 114.5L112.004 116L111.98 117.5L110.984 117.488L108.477 117.746L108.254 117.77L108.031 117.734L105.57 117.242L104.149 117.249L103.93 117.732L102.971 117.74L100.331 117.759L100.18 117.761L100.031 117.731L99.748 117.676L97.6953 117.594H97.625L97.5547 117.582L96.2383 117.396L95.1924 117.503L95.0547 117.517L94.918 117.505L94.1367 117.44L92.7617 117.711L92.5273 117.758L92.293 117.734L90.7354 117.534L89.9619 117.64L89.7627 117.666L89.5625 117.64L87.8652 117.414L87.207 117.418L87.1953 117.406L84.6055 117.488H84.5938L81.957 117.547H81.9336L79.3672 117.559L79.3789 117.57L76.7422 117.746L76.5547 117.758L73.9297 117.266L73.125 117.359L72.6836 117.57L72.2969 117.758L71.875 117.711L70.0547 117.496H68.082L66.8477 117.57L66.7656 117.582L66.6836 117.57L66.499 117.561L66.1719 117.582H66.043L65.9141 117.57L65.2842 117.499L64.1406 117.441L61.6562 117.734L61.4336 117.77L61.2109 117.723L60.4746 117.582L60.1836 117.602L60.1367 117.613H59.9219L58.25 117.711L58.0977 117.723L57.957 117.699L57.4219 117.625H57.3594L57.2773 117.613L55.6406 117.431L53.582 117.441L53.5938 117.453L50.957 117.5L50.9688 117.512L48.3203 117.582L48.168 117.594L48.0039 117.559L46.7334 117.32L44.9492 117.289L42.4531 117.512L42.418 117.523H42.3711L39.7344 117.617H39.6172L36.9805 117.512V117.5L36.0371 117.495L35.9297 117.732L34.9707 117.74L32.3311 117.759L32.1797 117.761L32.0312 117.731L30.2246 117.376L29.1875 117.43H29.1055L27.958 117.424L27.1924 117.503L27.0547 117.517L26.918 117.505L25.7861 117.412L23.9609 117.43L22.6465 117.546L21.9619 117.64L21.7627 117.666L21.5771 117.641L21.3242 117.664L21.1836 117.676L21.0312 117.664L18.5 117.383L15.9219 117.395V117.383L13.3789 117.559H13.3672L13.3555 117.57L10.707 117.688L10.6133 117.699L10.5312 117.688L7.98828 117.5L8 117.277V114.5H8.21094L10.6719 114.699L13.1797 114.582V114.57L15.8164 114.395H15.9102L16.6875 114.391L16.2959 112.092L16.2764 111.979L16.2754 111.862L16.2354 109.223L16.2334 109.114L16.248 109.006L16.5723 106.52L16.3779 104.037L16.3691 103.935L16.376 103.832L16.5273 101.268L16.4307 98.6963L16.4287 98.6377L16.4307 98.5791L16.5361 96.0137L16.3887 93.4463L16.3818 93.3311L16.3926 93.2168L16.6406 90.6357L16.7139 88.0811L16.7129 85.5107L16.4785 82.9355L16.4775 82.9189L16.4756 82.9023L16.2959 80.2617L16.29 80.166L16.2959 80.0693L16.4512 77.5L16.3652 74.9297L16.3613 74.7959L16.3809 74.6631L16.7451 72.1807L16.5889 69.6934L16.3604 67.0908L16.3496 66.9658L16.3594 66.8408L16.5625 64.29L16.4844 61.7256L16.4854 61.7246L16.3867 59.0957L16.3828 58.9971L16.3926 58.8994L16.626 56.4297L16.2988 53.957L16.2803 53.8203L16.2871 53.6826L16.4189 51.124L16.251 48.5781L16.2451 48.4854L16.251 48.3916L16.4023 45.8271L16.3076 43.2549L16.3018 43.0986L16.3281 42.9453L16.7041 40.7686L16.6406 40.6348L15.6445 38.5H18.1572L18.2139 38.5039L18.4434 38.5205L18.4883 37.4805L18.5117 34.8906V34.7031L18.5703 34.5039L19.2617 32.0078L19.3086 31.8203L19.4141 31.6562L20.7148 29.4297L20.8906 29.1484L21.1602 28.9609L23.2812 27.4727L23.5039 27.3203L23.7734 27.25L25.0986 26.917L25.1992 25.9492L25.082 24.1562L24.918 23.2656L24.6016 21.4961H26.5V22.9727ZM41.377 48.166H41.3652L41.3525 48.1777L38.7031 48.2412L38.6084 48.251L38.5273 48.2383L37.5342 48.1445L37.5137 48.4492L37.4893 51.0547L37.4873 51.1016L37.3818 53.6826L37.4766 56.2285L37.707 58.8281L37.7139 58.9062L37.7129 58.9844L37.6689 61.625L37.6533 64.249V64.2607L37.6523 64.2734L37.5957 66.8789L37.6494 69.4883L37.6523 69.6084L37.6357 69.7266L37.2881 72.2188L37.4346 74.6836L37.708 77.2832L37.7256 77.4463L37.707 77.6084L37.4229 80.1191L37.5742 82.6299L37.5791 82.7129L37.5742 82.7969L37.4453 85.3086L37.7393 87.8262L37.7656 88.0527L37.7236 88.2773L37.2607 90.7314L37.4238 93.1807L37.4268 93.2227V93.2637L37.4561 95.9033H37.4551L37.5137 98.5273H37.5127L37.5869 101.158V101.176L37.5879 101.193L37.5986 103.834L37.5996 103.934L37.5859 104.032L37.2754 106.435L37.7363 108.838L37.7822 109.078L37.749 109.32L37.4023 111.887L37.2949 114.463L37.292 114.52L39.6875 114.617L42.1836 114.535L44.5674 114.313L44.7344 113.047L44.2656 110.645L44.2188 110.41L44.2539 110.164L44.6055 107.586L44.7109 105.207L44.2773 102.688L44.2656 102.57V102.453L44.2422 99.8164V99.6641L44.2656 99.5117L44.7461 97.0625L44.5 94.6719L44.4883 94.543L44.5 94.4023L44.6992 91.8828L44.3594 89.4453L44.3359 89.2461L44.3594 89.0469L44.7109 86.4805L44.7227 84.0195L44.4297 81.4648L44.4062 81.2305L44.4531 80.9844L45.0156 78.3711L45.0625 78.1367L45.1797 77.9258L46.5156 75.6055L47.7227 73.3203L48.5078 71.4688L48.4258 69.1836L48.3906 68.1289L49.3633 67.7305L51.2266 66.9688L51.4727 66.8633L51.7422 66.8516L53.8633 66.7578L55.293 65.5742L56.9102 63.7227L58.5859 61.6836L59.168 60.9746L59.082 59.3828L58.9062 58.2227L58.6602 56.5H60.5V57.9883L61.8711 57.7773L62.0469 58.9844L62.0703 59.125L62.1875 61.5156L62.1992 61.6211L62.1875 61.7266L62.1416 62.2842L62.2188 62.3281L62.3711 62.4922L64.1875 64.4141L64.2578 64.4844L64.3164 64.5664L65.8516 66.6875L66.0508 66.957L67.9258 67.0156H68.0078L68.0781 67.0273L70.1406 67.3086L71.3477 67.4727L71.4297 68.6914L71.5938 71.1641L72.1445 73.2266L73.2695 75.3945L74.5352 77.7148L74.6289 77.8672L74.6758 78.0547L75.3438 80.6094L75.3789 80.75L75.3906 80.8906L75.5664 83.5391V83.5625L75.6953 86.2109V86.375L75.5078 88.918L75.5195 88.9297L75.4844 91.5664V91.6133L75.3789 94.2617L75.4844 96.7812L75.707 99.3477L75.7188 99.418L75.707 99.5L75.6719 102.137L75.6484 104.762V104.785L75.5898 107.434L75.6484 110.012V110.129L75.6367 110.246L75.2969 112.719L75.3955 114.484L76.7305 114.734L79.1797 114.582L79.2266 114.57H79.2617L81.8867 114.559V114.547L84.5234 114.488L84.7031 114.483L84.2959 112.092L84.2764 111.979L84.2754 111.862L84.2354 109.223L84.2334 109.114L84.248 109.006L84.5723 106.52L84.3779 104.037L84.3691 103.935L84.376 103.832L84.5273 101.268L84.4307 98.6963L84.4287 98.6377L84.4307 98.5791L84.5361 96.0137L84.3887 93.4463L84.3818 93.3311L84.3926 93.2168L84.6406 90.6357L84.7139 88.0811L84.7129 85.5107L84.4785 82.9355L84.4775 82.9189L84.4756 82.9023L84.2959 80.2617L84.29 80.166L84.2959 80.0693L84.4512 77.5L84.3652 74.9297L84.3613 74.7959L84.3809 74.6631L84.7451 72.1807L84.5889 69.6934L84.3604 67.0908L84.3496 66.9658L84.3594 66.8408L84.5625 64.29L84.4844 61.7256L84.4854 61.7246L84.3867 59.0957L84.3828 58.9971L84.3926 58.8994L84.626 56.4297L84.2988 53.957L84.2803 53.8203L84.2871 53.6826L84.4189 51.124L84.2754 48.9512L83.3838 48.8066L80.8994 48.8047L80.8408 48.8027L78.2051 48.6914L75.5811 48.6279L75.5693 48.627L72.9463 48.54L70.4463 48.7002L70.4102 48.7119L70.3633 48.7109L67.7256 48.752L67.6084 48.749L64.9746 48.5908V48.5791L62.3857 48.5156L62.3389 48.5146L62.292 48.502L59.7178 48.2871L57.1846 48.3535L57.1025 48.3516L54.4668 48.2871L51.959 48.2607L49.3184 48.4307L49.1777 48.4395L49.0254 48.4248L46.5 48.1045L43.9229 48.0527L41.377 48.166ZM93.9795 41.3896L91.3799 41.5635L91.3662 41.5645L91.3516 41.5654L88.7119 41.6914L88.6191 41.6963L88.5264 41.6895L87.6006 41.6182L87.3105 43.2969L87.4023 45.7852L87.4053 45.8564L87.4004 45.9277L87.3057 47.5254L87.5352 47.5303L87.4961 49.4873L87.3145 49.4561L87.418 51.0215L87.4238 51.1094L87.4189 51.1973L87.29 53.6982L87.6221 56.2031L87.6436 56.3721L87.6279 56.541L87.3877 59.0801L87.4824 61.624L87.4834 61.6348L87.5635 64.2744L87.5664 64.3564L87.5596 64.4385L87.3594 66.9531L87.5801 69.4688L87.582 69.4873L87.583 69.5068L87.748 72.1465L87.7578 72.3027L87.7354 72.457L87.3682 74.9609L87.4512 77.4707L87.4541 77.54L87.4492 77.6104L87.2949 80.1553L87.4668 82.665L87.7051 85.3047L87.7109 85.3721L87.7119 85.4385L87.7139 88.0791V88.1006L87.7129 88.123L87.6377 90.7627L87.6367 90.8125L87.6318 90.8633L87.3896 93.3848L87.5352 95.9141L87.5391 95.9873L87.5361 96.0615L87.4307 98.6445L87.5273 101.224L87.5303 101.296L87.5264 101.368L87.376 103.904L87.5752 106.443L87.5869 106.599L87.5664 106.754L87.2363 109.284L87.2725 111.697L87.6494 113.908L87.9844 114.403L88.0645 114.414L89.832 114.406H89.9375L90.0312 114.418L90.7197 114.509L92.1982 114.309L92.3594 114.286L92.5225 114.3L94.0264 114.422L94.8359 114.266L95.082 114.219L95.3164 114.254L96.2402 114.38L97.5273 114.249L97.75 114.227L97.9688 114.27L100.21 114.708L100.273 114.711L102.152 114.387L102.309 114.045L102.407 111.697L102.41 111.628L102.42 111.56L102.743 109.163L102.284 106.762L102.239 106.526L102.27 106.287L102.598 103.748L102.588 101.242L102.515 98.6016L102.514 98.5928L102.456 95.9531V95.9365L102.427 93.3242L102.256 90.7393L102.243 90.5498L102.278 90.3623L102.732 87.9463L102.452 85.5332L102.438 85.4092L102.443 85.2832L102.573 82.7246L102.42 80.1699L102.412 80.04L102.427 79.9111L102.707 77.4316L102.447 74.957L102.443 74.9229L102.441 74.8887L102.285 72.249L102.276 72.1006L102.297 71.9531L102.647 69.4297L102.596 66.9111L102.595 66.8789L102.596 66.8467L102.653 64.207L102.669 61.5908L102.67 61.583V61.5752L102.711 59.0107L102.485 56.4521L102.482 56.4141L102.48 56.376L102.382 53.7363L102.38 53.6777L102.382 53.6182L102.489 50.9951L102.515 48.3857V48.3418L102.518 48.2979L102.691 45.7363L102.573 43.1895L102.571 43.1504V43.1104L102.58 41.6611L101.725 41.457L99.3281 41.6631L99.1816 41.6758L99.0352 41.6592L96.4785 41.377L93.9795 41.3896ZM25.9795 41.3896L23.3799 41.5635L23.3662 41.5645L23.3516 41.5654L20.7119 41.6914L20.6191 41.6963L20.5264 41.6895L19.6006 41.6182L19.3105 43.2969L19.4023 45.7852L19.4053 45.8564L19.4004 45.9277L19.25 48.4697L19.418 51.0215L19.4238 51.1094L19.4189 51.1973L19.29 53.6982L19.6221 56.2031L19.6436 56.3721L19.6279 56.541L19.3877 59.0801L19.4824 61.624L19.4834 61.6348L19.5635 64.2744L19.5664 64.3564L19.5596 64.4385L19.3594 66.9531L19.5801 69.4688L19.582 69.4873L19.583 69.5068L19.748 72.1465L19.7578 72.3027L19.7354 72.457L19.3682 74.9609L19.4512 77.4707L19.4541 77.54L19.4492 77.6104L19.2949 80.1553L19.4668 82.665L19.7051 85.3047L19.7109 85.3721L19.7119 85.4385L19.7139 88.0791V88.1006L19.7129 88.123L19.6377 90.7627L19.6367 90.8125L19.6318 90.8633L19.3896 93.3848L19.5352 95.9141L19.5391 95.9873L19.5361 96.0615L19.4307 98.6445L19.5273 101.224L19.5303 101.296L19.5264 101.368L19.376 103.904L19.5752 106.443L19.5869 106.599L19.5664 106.754L19.2363 109.284L19.2725 111.697L19.6494 113.908L19.9844 114.403L21.665 114.627L22.1611 114.585L24.1982 114.309L24.3594 114.286L24.5225 114.3L26.0166 114.422L26.4688 114.418H26.4922L27.8057 114.424L29.5273 114.249L29.75 114.227L29.9688 114.27L30.4658 114.366L31.6953 114.312L31.7773 114.301L31.8594 114.312L34.1182 114.462L34.3086 114.045L34.4072 111.697L34.4102 111.628L34.4199 111.56L34.7432 109.163L34.2842 106.762L34.2393 106.526L34.2695 106.287L34.5977 103.748L34.5879 101.242L34.5146 98.6016L34.5137 98.5928L34.4561 95.9531V95.9365L34.4268 93.3242L34.2559 90.7393L34.2432 90.5498L34.2783 90.3623L34.7324 87.9463L34.4521 85.5332L34.4375 85.4092L34.4434 85.2832L34.5732 82.7246L34.4199 80.1699L34.4121 80.04L34.4268 79.9111L34.707 77.4316L34.4473 74.957L34.4434 74.9229L34.4414 74.8887L34.2852 72.249L34.2764 72.1006L34.2969 71.9531L34.6475 69.4297L34.5957 66.9111L34.5947 66.8789L34.5957 66.8467L34.6533 64.207L34.6689 61.5908L34.6699 61.583V61.5752L34.7109 59.0107L34.4854 56.4521L34.4824 56.4141L34.4805 56.376L34.3818 53.7363L34.3799 53.6777L34.3818 53.6182L34.4893 50.9951L34.5146 48.3857V48.3418L34.5176 48.2979L34.6914 45.7363L34.5732 43.1895L34.5713 43.1504V43.1104L34.5801 41.6611L33.7246 41.457L31.3281 41.6631L31.1816 41.6758L31.0352 41.6592L28.4785 41.377L25.9795 41.3896ZM58.6953 78.5781L57.4297 80.0898L56.0938 82.2695L56.0234 82.3984L55.918 82.5039L54.4766 84.0508L54.4062 86.1719L54.3477 88.7969L54.3359 91.4102V91.4219L54.2891 94.0703L54.5117 96.543L54.5234 96.5898V96.625L54.6172 99.2617V99.3789L54.5117 102.016L54.4883 104.617V104.664L54.4766 104.699L54.3008 107.266L54.4297 109.809V109.891L54.418 112.527L54.4062 112.516L54.418 114.098L55.1328 114.355L55.4844 114.348H55.6133L55.7305 114.359L56.1768 114.424L58.7383 114.254L58.9375 114.242L59.125 114.277L60.665 114.562L60.7109 114.559V114.564L60.8193 114.557L63.2891 114.289L63.4414 114.277L63.6055 114.289L64.2158 114.36L65.293 114.309H65.4688L66.3711 114.379L66.7461 112.504L66.7344 110.09L66.3125 107.594L66.2891 107.43L66.3008 107.277L66.4062 104.641V104.57L66.418 104.5L66.7461 102.098L66.2891 99.6953L66.2422 99.4609L66.2656 99.2266L66.582 96.6836V94.1406H66.5938L66.5117 91.5391V91.5273L66.4531 88.8906V88.8789L66.4297 86.3359L66.2422 84.1211L65.3281 82.1172L63.7344 80.3125L62.3047 78.707L60.5 78.3203L58.6953 78.5781ZM59.2305 65.6328L59.2188 65.6445L59.207 65.668L57.4727 67.6602L57.3906 67.7422L57.2969 67.8242L55.3984 69.4062L55.0117 69.7344L54.4961 69.7461L52.1055 69.8398L51.4609 70.0977L51.5312 71.7031L51.543 72.043L51.4023 72.3594L50.4297 74.6094L50.3828 74.7266L49.1406 77.0586L49.1172 77.1055L47.8867 79.2266L47.4414 81.3594L47.7109 83.7969L47.7227 83.8906V83.9727L47.6992 86.6211V86.7148L47.6875 86.7969L47.3594 89.2344L47.6875 91.6836L47.7109 91.8477L47.6992 92L47.5 94.543L47.7461 97.0156L47.7695 97.2383L47.7344 97.4492L47.2422 99.8984L47.2539 102.324L47.6875 104.832L47.7109 104.984L47.6992 105.148L47.5938 107.785V107.855L47.582 107.926L47.2422 110.316L47.7109 112.719L47.7578 112.953L47.7344 113.199L47.582 114.335L47.6211 114.336L47.6094 114.348H50.2695L51.4336 114.373L51.418 112.539V112.516L51.4297 109.949L51.3125 107.312L51.3008 107.219L51.3125 107.137L51.4883 104.5L51.5117 101.945V101.898L51.6172 99.3789L51.5234 96.8125L51.2891 94.1758V94.0117L51.3359 91.375L51.3477 88.75V88.7266L51.4062 86.0898V86.0664L51.5117 83.3828L51.5234 82.8203L51.9102 82.4102L53.5977 80.5938L54.9336 78.4492L54.9922 78.3555L55.0508 78.2734L56.7617 76.2227L57.125 75.7773L57.6992 75.6953L60.3359 75.3086L60.6055 75.2734L60.8633 75.332L63.418 75.8828L63.8984 75.9883L64.2266 76.3516L65.9727 78.3086L67.7422 80.3008L67.8945 80.4648L67.9883 80.6758L69.0898 83.125L69.1953 83.3594L69.2188 83.6172L69.418 86.1016L69.4297 86.1484V86.207L69.4531 88.832L69.5117 91.457L69.582 94.0938V94.1289L69.5938 96.7773V96.8711L69.582 96.9766L69.2656 99.3555L69.7344 101.781L69.7812 102.016L69.7461 102.262L69.3945 104.898L69.2891 107.207L69.7227 109.727L69.7344 109.844V109.973L69.7578 112.609V112.762L69.7344 112.902L69.4346 114.418H69.4375L69.5664 114.43L70.2803 114.505L71.3281 114.559L72.2559 114.449L72.3789 114.395L72.2852 112.766L72.2734 112.613L72.2969 112.473L72.6367 109.941L72.5898 107.434V107.363L72.6484 104.727L72.6719 102.113V102.09L72.7188 99.6055L72.4844 96.9688V96.8984L72.3789 94.25V94.1328L72.4844 91.4961L72.5195 88.9062V88.8125L72.6836 86.2344L72.5781 83.7383L72.3906 81.2188L71.8047 78.9805L70.6445 76.8359L70.6328 76.8242L70.6211 76.8008L69.4141 74.4453L69.332 74.3047L69.2969 74.1523L68.6641 71.832L68.6172 71.6914V71.5391L68.5117 70.1094L67.7383 70.0039L65.2656 69.9453L64.6445 69.9219L64.2109 69.4766L64.1406 69.3945L64.082 69.3359L64.0352 69.2656L63.4492 68.4805L63.4375 68.4688L61.9727 66.4414L60.3555 64.7188L60.0977 64.5664L59.2305 65.6328ZM26.5273 78.3125L29.1289 78.6055L28.9648 80H29L30.418 80.4688L30.3945 80.5742L30.0078 81.7227L27.5938 81.4414L27.4297 82.332L27.6055 84.8164V84.9102L27.6172 87.5469L27.6289 87.6406L27.6172 87.7227L27.3359 90.1719L27.5469 91.8125L27.7578 93.5H26V92L24.5703 92.1875L24.3477 90.3828L24.3242 90.207L24.3359 90.0312L24.6172 87.5L24.6055 84.9219L24.4414 82.3789L24.4297 82.2031L24.4531 82.0273L24.8867 79.5547L25.1211 78.1602L26.5273 78.3125ZM94.5273 78.3125L97.1289 78.6055L96.9648 80H97L98.418 80.4688L98.3945 80.5742L98.0078 81.7227L95.5938 81.4414L95.4297 82.332L95.6055 84.8164V84.9102L95.6172 87.5469L95.6289 87.6406L95.6172 87.7227L95.3359 90.1719L95.5469 91.8125L95.7578 93.5H94V92L92.5703 92.1875L92.3477 90.3828L92.3242 90.207L92.3359 90.0312L92.6172 87.5L92.6055 84.9219L92.4414 82.3789L92.4297 82.2031L92.4531 82.0273L92.8867 79.5547L93.1211 78.1602L94.5273 78.3125ZM26.5273 50.3125L29.1289 50.6055L28.9648 52H29L30.418 52.4688L30.3945 52.5742L30.0078 53.7227L27.5938 53.4414L27.4297 54.332L27.6055 56.8164V56.9102L27.6172 59.5469L27.6289 59.6406L27.6172 59.7227L27.3359 62.1719L27.5469 63.8125L27.7578 65.5H26V64L24.5703 64.1875L24.3477 62.3828L24.3242 62.207L24.3359 62.0312L24.6172 59.5L24.6055 56.9219L24.4414 54.3789L24.4297 54.2031L24.4531 54.0273L24.8867 51.5547L25.1211 50.1602L26.5273 50.3125ZM94.5273 50.3125L97.1289 50.6055L96.9648 52H97L98.418 52.4688L98.3945 52.5742L98.0078 53.7227L95.5938 53.4414L95.4297 54.332L95.6055 56.8164V56.9102L95.6172 59.5469L95.6289 59.6406L95.6172 59.7227L95.3359 62.1719L95.5469 63.8125L95.7578 65.5H94V64L92.5703 64.1875L92.3477 62.3828L92.3242 62.207L92.3359 62.0312L92.6172 59.5L92.6055 56.9219L92.4414 54.3789L92.4297 54.2031L92.4531 54.0273L92.8867 51.5547L93.1211 50.1602L94.5273 50.3125ZM58.8125 31.6406L56.4688 32.0508L54.3594 32.9648L52.3438 34.4062L50.4336 35.8828L48.8281 37.6523L47.5156 39.5508L46.5312 41.8711L45.5703 44.0742L45.5186 45.0771L46.6074 45.0947L46.7012 45.085L46.7832 45.0977L49.2842 45.4287L51.7725 45.2676L51.8193 45.2568L51.8779 45.2588L54.5264 45.2881H54.5498L57.1045 45.3516L59.7539 45.2871L59.8369 45.2773L59.918 45.29L62.5625 45.5186L62.5508 45.5303L65.1045 45.5928L65.1514 45.5938L67.7393 45.751L70.2363 45.7197L72.8887 45.5264L73.041 45.5293L75.6768 45.6289L75.6641 45.6406L76.4668 45.6562L76.4727 44.543L75.8398 42.3281L74.7617 40.125L73.4727 38.0039L72.1367 36.0117L70.2148 34.6172V34.6055L68.1523 33.3398L65.9844 32.4023L63.6523 31.9219L61.1914 31.5117L58.8125 31.6406ZM24.7812 30.0859L23.1289 31.2344L22.0977 32.9805L21.5 35.1484L21.4883 37.5625V37.6094L21.4434 38.6533L23.208 38.5684V38.5693L25.8203 38.3936L25.8662 38.3906H25.9121L28.5527 38.377H28.6387L28.7246 38.3867L31.2158 38.6621L32.5352 38.5479L32.6914 36.8594L32.5391 34.5391L31.7656 32.5234L30.3945 30.8477L28.7773 29.6758L26.832 29.5703L24.7812 30.0859ZM92.7812 30.0859L91.1289 31.2344L90.0977 32.9805L89.5 35.1484L89.4883 37.5625V37.6094L89.4434 38.6533L91.208 38.5684V38.5693L93.8203 38.3936L93.8662 38.3906H93.9121L96.5527 38.377H96.6387L96.7246 38.3867L99.2158 38.6621L100.535 38.5479L100.691 36.8594L100.539 34.5391L99.7656 32.5234L98.3945 30.8477L96.7773 29.6758L94.832 29.5703L92.7812 30.0859Z" fill="black"/>
</svg>
