<svg width="120" height="120" viewBox="0 0 120 120" fill="none" xmlns="http://www.w3.org/2000/svg">
<path d="M68.9248 59.791L70.4971 61.501L72.4609 63.2939L72.6465 63.46L72.7607 63.6699L73.9531 65.8203L75.5664 67.2959L75.9463 66.9248L76.2129 66.2578L76.9355 66.0791L79.5215 65.4238L80.0332 65.2861L80.5117 65.5107L82.9453 66.6055L83.4648 66.8418L83.6934 67.3691L84.7832 69.8359L85.0137 70.3467L84.8428 70.8721L84.4512 72.1846L84.7998 72.0264L85.042 71.9141L85.3096 71.9043L87.9883 71.7061L88.2148 71.6846L88.4512 71.7471L90.9746 72.3672L93.5361 72.8486L93.5859 72.8535L93.6338 72.874L96.2217 73.5332L96.5791 73.6309L96.8496 73.8623L98.7773 75.5947L100.898 76.9365L101.08 77.0439L101.223 77.2148L102.961 79.2129L103.052 79.3213L103.126 79.4277L104.482 81.7002L104.532 81.7959L104.573 81.8994L105.582 84.3418L105.623 84.4453L105.647 84.5469L106.272 87.0977L106.316 87.2598L106.32 87.4092L106.399 89.9287L106.744 92.5459L106.789 92.8906L106.678 93.2129L105.823 95.751L105.815 95.7412L105.014 98.25L104.956 98.4365L104.841 98.6094L103.395 100.787L103.402 100.796L101.974 103.05L101.829 103.278L101.599 103.441L99.4551 105.025L99.3145 105.113L97.1055 106.4L94.8604 107.826L94.6582 107.949L94.4268 108.021L91.8574 108.678L91.7725 108.703L91.6885 108.713L89.0527 109.073L88.9346 109.096L88.8027 109.084L86.1387 109.009L86.0312 109.008L85.9238 108.99L83.2959 108.52L83.1074 108.478L82.9229 108.403L80.5166 107.286L80.4375 107.246L80.374 107.207L78.1221 105.854L78.0664 105.824L78.0195 105.787L75.873 104.269L75.7637 104.192L75.6641 104.092L73.835 102.185L73.7441 102.077L72.0879 99.9941L71.9688 99.834L71.8857 99.6436L70.8438 97.1982L70.8164 97.1299L70.791 97.0439L70.0137 94.5137L69.9746 94.3945L69.9609 94.2686L69.6338 91.6357L69.6074 91.459L69.6309 91.2861L69.9102 88.666L70.0693 86.084L70.0791 85.877L70.1465 85.6836L70.8672 83.6016L70.3154 83.75L69.8213 83.8896L69.3398 83.6816L66.9189 82.6377L66.3906 82.4082L66.1445 81.8965L65.0391 79.5039L64.7803 78.9404L64.9902 78.3516L65.9717 75.6924L66.1641 75.4844L67.6309 73.8115L67.3672 73.5957L67.2197 73.4746L67.1006 73.3145L65.6445 71.3242L63.7188 69.7578L63.5488 69.6104L63.416 69.415L62.0361 67.3154L60.4326 65.5898L62.5361 63.4414L64.3037 65.3506L64.3965 65.4424L64.4609 65.5557L65.791 67.5605L67.6992 69.1416L67.8467 69.2627L67.958 69.4131L69.3916 71.377L69.9268 71.8057L70.0918 71.6689L70.1631 71.6094L71.9395 70.3096L72.8066 69.6133L73.001 69.0059L71.7461 67.8564L71.5771 67.6924L71.4629 67.4824L70.2695 65.332L68.4727 63.7188L68.4189 63.6729L68.373 63.6191L66.5977 61.667L66.4912 61.5576L66.4111 61.4258L65.6318 60.0889L67.6768 57.6445L68.9248 59.791ZM91.5938 14.877L92.0029 15.1904L92.9316 15.9082L93.7871 16.5645L93.5996 17.0801L94.4316 18.6963L94.6514 19.126L94.5771 19.5986L94.1934 22.0605L94.1406 22.415L93.9424 22.707L92.918 24.1465L94.0576 24.9883L94.1016 25.0098L94.1279 25.0322L96.1465 26.7109L96.1543 26.7012L98.2119 28.3516L100.276 29.9922L100.304 30.0156L102.331 31.7012L102.697 31.9932L102.819 32.4316L102.868 32.6104L103.239 33.9004L102.572 34.167L102.153 35.5596L102.075 35.8154L101.911 36.0303L100.308 38.1416L100.181 38.3105L100.001 38.4346L97.9854 39.9248L97.0557 40.6133L96.1602 39.8936L94.0684 38.2295L93.9971 38.1699L93.9238 38.0928L92.2188 36.2959L91.1904 35.5703L90.6787 36.0889L90.5215 36.5693L91.7607 37.5166L91.8232 37.5693L91.8789 37.6309L93.7939 39.4688L93.8301 39.498L93.8584 39.5371L95.5811 41.4414L96.4092 42.3506L95.6719 43.3379L94.1387 45.4023L94.1162 45.4287L92.502 47.5166L92.1514 47.9717L91.5771 48.0723L89.291 48.4629L88.5869 48.5918L88.0469 48.123L86.0566 46.3926L86.0645 46.3828L84.0615 44.6865L84.043 44.6719L82.0791 42.9473L80.0488 41.3193L79.8613 41.1777L79.7266 40.9736L79.2979 40.3174L78.6543 41.0713L78.625 41.1074L76.8398 43.0518L75.3467 44.9961L73.8223 47.1582L73.7783 47.2295L73.7334 47.2832L71.9951 49.2812L70.2988 51.2852L70.2832 51.3027L68.5439 53.2852L66.9316 55.2979L66.8564 55.3877L66.7627 55.4619L64.8965 57.1396L63.4541 59.0957L61.9668 61.3047L61.8711 61.4385L61.7471 61.5488L59.8887 63.3086L58.4248 65.3086L58.3193 65.4336L56.5928 67.29L55.2129 69.3906L55.0801 69.585L54.9102 69.7334L52.9844 71.2988L51.5283 73.29L51.4092 73.4502L51.2617 73.5713L50.9961 73.7881L52.4629 75.46L52.6562 75.668L53.6367 78.3271L53.8467 78.916L53.5879 79.4795L52.4834 81.8711L52.2373 82.3838L51.708 82.6133L49.2871 83.6562L48.8066 83.8652L48.3115 83.7256L47.7275 83.5684L48.4492 85.7021L48.5156 85.8965L48.5332 86.0938L48.6689 88.6855L48.915 91.3096L48.9219 91.4834L48.9033 91.6514L48.5342 94.2793L48.5205 94.4053L48.4824 94.542L47.6621 97.0508L47.6357 97.1357L47.6094 97.2051L46.5156 99.6377L46.4404 99.8193L46.3047 99.9805L44.6123 102.033L44.5674 102.088L44.5137 102.134L42.6387 104.003L42.54 104.104L42.4209 104.172L40.2461 105.651L40.1348 105.711L37.8438 107.001L37.7803 107.04L37.709 107.071L35.2637 108.125L35.0791 108.199L34.8828 108.233L32.2373 108.614L32.1309 108.632L32.0225 108.634L29.3682 108.624L29.2344 108.619L29.0996 108.598L26.4893 108.136L26.4053 108.127L26.3193 108.101L23.7744 107.342L23.5439 107.271L23.3496 107.138L21.1621 105.624L21.1611 105.607L19.0029 104.241L18.9326 104.197L18.8701 104.145L16.7949 102.479L16.5703 102.291L16.4326 102.054L15.125 99.7471L13.7705 97.4785L13.6719 97.3047L13.6211 97.1094L12.9336 94.5742L12.2178 92L12.1211 91.6592L12.1914 91.3203L12.6758 88.6826L12.6836 88.6729L12.8926 86.2178L12.9043 86.0586L12.957 85.9043L13.7354 83.3906L13.8174 83.1836L14.9658 80.8125L15.0156 80.7168L15.082 80.6191L16.5791 78.4336L16.6533 78.3281L16.752 78.2275L18.6182 76.3506L18.7695 76.1875L18.9678 76.0791L21.2158 74.8594L23.2178 73.3115L23.5049 73.0781L23.8652 73.0137L26.4941 72.542L26.5518 72.5293L26.6006 72.5244L29.1211 72.2373L31.7617 71.8066L31.999 71.7617L32.2363 71.8076L34.1562 72.0977L33.7842 70.8477L33.6143 70.3213L33.8438 69.8105L34.9336 67.3447L35.1621 66.8174L35.6816 66.5801L38.1152 65.4863L38.5947 65.2607L39.1055 65.3994L41.6914 66.0547L42.4141 66.2324L42.6807 66.8994L43.0615 67.2725L44.6758 65.7959L45.8682 63.6455L45.9834 63.4355L46.168 63.2695L48.1328 61.4756L49.7051 59.7656L50.9844 57.5664L51.0508 57.4688L51.1338 57.3701L52.8105 55.335L52.9082 55.2188L53.0166 55.126L54.9668 53.5498L56.3076 51.5693L56.3887 51.4541L56.4883 51.3535L58.2607 49.5518L59.5664 47.4658L59.6768 47.2979L59.8232 47.1611L61.7422 45.4209L63.3027 43.5791L64.5762 41.4043L64.6338 41.2998L64.709 41.21L66.3682 39.1602L66.4355 39.0791L66.5205 38.9971L68.3701 37.3213L69.8213 35.2812L69.873 35.2021L69.9404 35.1211L71.7617 33.207L73.2852 31.2266L73.3604 31.1367L75.0986 29.2295L76.624 27.1748L76.6992 27.085L76.7832 27.0029L78.667 25.1416L80.3252 23.2744L82.0195 21.2539L83.4521 19.1826L83.4746 19.1553L85.0352 17.0225L85.1826 16.8105L85.3945 16.667L87.5742 15.1455L87.959 14.8867L88.4248 14.8799L91.0771 14.8721L91.5938 14.877ZM85.79 74.8662L83.5977 75.8809L83.5107 75.9229L83.4082 75.9473L81.1191 76.6289L79.2168 78.0264L79.1289 78.085L79.0498 78.1357L78.2393 78.5557L76.5977 80.3926L75.0635 82.2461L73.8125 84.2744L73.0566 86.4541L72.8906 88.918L72.8848 88.9844L72.625 91.3906L72.9189 93.7285L73.6172 96.0186L73.6084 96.0264L74.582 98.2988L76.0049 100.104L77.7441 101.903L79.6611 103.277L81.8672 104.593L84.0254 105.597L86.3691 106.002L88.7578 106.077L91.1992 105.742L93.4375 105.164L95.4883 103.871L95.5156 103.849L95.541 103.843L97.7061 102.576L99.5996 101.187L100.873 99.1855L100.874 99.1689L100.884 99.1611L102.22 97.1074L102.979 94.8027L102.979 94.7861L103.729 92.5977L103.416 90.2744L103.412 90.125L103.335 87.6807L102.763 85.376L101.873 83.1855L100.618 81.0879L99.083 79.3311L97.0498 78.0391L96.9482 77.9717L96.8633 77.8896L95.1357 76.3408L92.8906 75.7617L90.418 75.3125L90.3369 75.2891L87.9502 74.7061L85.79 74.8662ZM29.6143 75.2061L29.5312 75.2129L26.9287 75.5068L24.7666 75.8965L22.9277 77.3213L22.835 77.3955L22.7314 77.4463L20.5879 78.6152L18.9902 80.2275L17.6104 82.2363L16.5752 84.3818L15.873 86.6221L15.6484 89.0957L15.627 89.2314L15.2051 91.5391L15.832 93.7627L15.8252 93.7725L16.4531 96.1045L17.7031 98.2246L17.7051 98.2402L17.7139 98.248L18.8916 100.308L20.6816 101.748L22.8223 103.116L22.8672 103.154L24.8584 104.519L27.1309 105.202L29.5215 105.616L31.8916 105.617L34.2578 105.277L36.5195 104.313L38.667 103.103L40.6377 101.758L42.3975 100.007L43.8711 98.2139L44.8389 96.0576L45.5879 93.6885L45.9111 91.3896L45.6816 88.9639L45.6758 88.8975L45.5537 86.4551L44.8066 84.2822L43.5625 82.2285L41.9814 80.3203L41.9883 80.3115L41.3516 79.5938L40.291 78.6885L38.6514 77.252L36.4561 76.4043L36.3525 76.3633L36.2734 76.3115L34.1738 75.1309L31.9736 74.7998L29.6143 75.2061ZM83.999 78.9854L86.5312 79.6143L86.9463 79.7256L87.251 80.0352L89.0811 81.9414L89.293 82.1768L89.4004 82.4688L89.4688 82.6416L91.2324 81.0234L91.6846 80.6143L92.29 80.625L94.9385 80.6826L95.3877 80.6885L95.7559 80.9453L97.835 82.3828L98.2031 82.6396L98.375 83.0459L99.3223 85.3418L99.4658 85.6953L99.4238 86.082L99.124 88.6592L99.0479 89.335L98.4912 89.7109L96.5166 91.0771L96.8232 91.2783L97.1553 91.4736L97.3506 91.8154L98.6562 94.1006L98.8945 94.5117L98.8545 94.9746L98.626 97.6748L98.5771 98.2354L98.1689 98.624L96.207 100.516L95.8789 100.836L95.4141 100.92L92.7812 101.355L92.2646 101.452L91.8047 101.195L89.5273 99.9395L89.1787 99.7422L88.9678 99.3994L88.1182 97.9863L87.1377 99.2061L86.9619 99.416L86.7246 99.5527L84.5254 100.833L84.1133 101.071L81.0098 100.8L80.4404 100.741L80.0449 100.324L78.2666 98.4053L78.0225 98.1514L77.9189 97.8096L77.168 95.2734L76.9688 94.5986L77.3525 94.0166L78.8008 91.8223L78.9453 91.5938L79.167 91.4385L81.2383 89.915L81.2646 89.8916L81.3086 89.8711L81.3896 89.8027L80.793 89.2021L80.7402 89.1387L79.1074 87.2666L78.8066 86.9072L78.7461 86.4521L78.4561 83.9736L78.3975 83.502L78.625 83.0811L79.8359 80.8418L79.8848 80.7549L79.9424 80.6768L80.0166 80.583L80.708 79.6201L81.3027 79.8555L83.0098 79.0811L83.4863 78.8652L83.999 78.9854ZM35.6689 79.002L37.9893 80.0459L37.584 80.9297L37.7637 81.1719L38.6641 80.5361L39.5742 81.8037L39.7832 82.1016L39.8311 82.4639L40.1885 84.9365L40.2529 85.3877L40.0557 85.7881L39.001 87.9932L38.8945 88.21L38.7354 88.3818L37.4092 89.7627L38.7666 90.6416L38.873 90.7158L38.9639 90.8076L40.8643 92.5547L41.3975 93.0488L41.3369 93.7773L41.127 96.416L41.0996 96.7764L40.9189 97.083L39.5596 99.3232L39.2529 99.8154L38.6855 99.9814L36.1621 100.71L35.7158 100.841L35.2803 100.704L32.8311 99.9033L32.4365 99.7715L32.168 99.4541L30.6865 97.7373L30.2822 98.5293L30.125 98.8262L29.877 99.0303L27.8516 100.605L27.4316 100.941L26.8906 100.931L24.2139 100.857L23.7471 100.848L23.373 100.564L21.1777 98.9521L20.7158 98.626L20.5918 98.0625L20.0352 95.4082L19.9307 94.9688L20.0938 94.5547L21.0508 92.084L21.2334 91.6104L21.6611 91.3564L22.4092 90.8838L20.7275 89.916L20.1406 89.5762L20.0078 88.9141L19.5039 86.3799L19.4287 85.9951L19.5527 85.6104L20.3193 83.2559L20.4648 82.8271L20.8232 82.5459L22.8076 80.9834L23.166 80.7021L23.6201 80.6709L26.2559 80.4658L26.8672 80.4121L29.3174 82.4688L29.3252 82.459L29.4248 82.1758L29.6387 81.958L31.4326 80.0205L31.7197 79.6963L32.1514 79.584L34.6807 78.9219L35.1924 78.7852L35.6689 79.002ZM82.2158 82.7305L81.4902 84.0889L81.6787 85.6445L82.9561 87.1123L84.8076 89.0459L86.0576 90.3525L84.541 91.335L82.9434 92.3848L82.9453 92.3682L81.1582 93.6836L80.2383 95.0674L80.7012 96.6221L81.8506 97.8457L83.4424 97.9932L84.9688 97.0947L86.4688 95.2549L87.0176 94.5957L87.8623 94.7285L89.1426 94.9229L89.832 95.0332L90.1953 95.6309L91.3301 97.4941L92.8066 98.3047L94.4697 98.0264L95.6777 96.8594L95.8252 95.1748L94.9453 93.6338L93.0088 92.4746L91.0664 91.29L92.9209 89.9639L94.624 88.748L94.6328 88.7412L96.2197 87.624L96.3936 86.1162L95.7627 84.5811L94.4287 83.666L92.8262 83.6338L91.3691 84.9785L90.0146 86.4814L88.3467 88.3408L87.4951 85.9951L86.6982 83.7881L85.3643 82.3984L83.7842 82.0107L82.2158 82.7305ZM33.3271 82.376L32.0576 83.7422L31.2393 85.9932L30.3145 88.5361L28.6475 86.4033L27.3535 84.7363L25.8809 83.501L24.3018 83.6143L23.0264 84.624L22.5215 86.1738L22.8252 87.6533L24.5088 88.6367L24.7725 88.7969L24.9512 89.0391L25.9121 90.3193L26.8916 91.6309L25.5039 92.501L23.6729 93.626L23.0537 95.2021L23.415 96.8672L24.7764 97.8711L26.4189 97.9189L27.7725 96.8525L28.8252 94.8135L29.6143 93.2725L31.0244 94.2725L32.4502 95.2705L32.5928 95.374L32.7119 95.5049L34.1641 97.167L35.7822 97.6992L37.2832 97.2598L38.1641 95.8271L38.292 94.252L37.0166 93.0742L34.9023 91.7285L34.1611 91.2441L34.2256 90.3652L34.3125 89.168L34.3398 88.625L34.7129 88.2354L36.3828 86.5L37.1562 84.8848L36.9219 83.25L36.5127 82.6621L34.9277 81.9443L33.3271 82.376ZM78.3271 68.8135L78.1562 68.9561L76.3379 70.7266L76.2734 70.7959L76.1943 70.8477L74.0898 72.46L74.0732 72.459L74.0645 72.4658L73.9863 72.5215L72.9814 73.3213L70.9238 74.9717L69.9678 75.7285L69.9492 75.7139L68.5781 77.2686L68.0215 78.791L68.6211 80.1084L70.041 80.707L71.7529 80.249L73.3955 78.6875L73.458 78.6348L75.4453 76.9375L75.4355 76.9443L76.1221 76.3193L76.1328 76.3008L76.1562 76.2881L77.3877 75.1689L77.4258 75.1221L77.4775 75.0938L79.5576 73.4707L79.585 73.4482L81.3389 72.1289L81.8193 70.5332L81.1797 69.0957L79.748 68.4463L78.3271 68.8135ZM37.4473 69.0713L36.8076 70.5078L37.2881 72.1045L39.042 73.4238L39.0693 73.4463L41.1494 75.0693L41.2021 75.0977L41.2393 75.1445L41.2949 75.1953L41.6455 74.7773L42.5059 76.2959L43.1914 76.9199L45.1689 78.6104L45.2324 78.6631L46.874 80.2246L48.5859 80.6816L50.0059 80.084L50.6064 78.7666L50.0488 77.2432L48.6768 75.6895L48.6621 75.7031L47.7061 74.9463L45.6484 73.2969L44.6689 72.5186L44.5625 72.4414L44.5537 72.4336L44.5371 72.4355L42.4336 70.8223L42.3535 70.7715L42.29 70.7021L40.4707 68.9316L40.3008 68.7881L38.8789 68.4219L37.4473 69.0713ZM88.8945 17.875L87.3105 18.9785L85.915 20.8965L84.4082 23.0752L82.6006 25.2295L80.8447 27.2129L80.8145 27.249L80.7754 27.2773L78.9521 29.0674L77.457 31.0859L77.3584 31.2031L75.583 33.1553L74.0352 35.1455L73.999 35.207L73.9375 35.2617L72.209 37.085L70.7119 39.1797L70.623 39.3037L70.5156 39.4131L68.6211 41.1426L67.0889 43.0234L65.8086 45.2227L65.7441 45.3369L65.6533 45.4443L63.9404 47.4492L63.8809 47.5215L63.8115 47.585L61.9932 49.2412L60.6777 51.3193L60.5898 51.4609L60.4756 51.5791L58.6797 53.3916L57.2949 55.4424L57.1699 55.6279L57 55.7754L55.0488 57.3359L53.5059 59.1924L52.2188 61.4014L52.1387 61.5332L52.0312 61.6416L50.2559 63.5938L50.2109 63.6475L50.1562 63.6943L48.3594 65.3066L47.167 67.458L47.0518 67.667L46.8838 67.832L45.6279 68.9814L45.8232 69.5879L46.7236 70.3115L48.4639 71.584L48.5361 71.6445L48.7012 71.7812L49.2383 71.3525L50.6719 69.3887L50.7832 69.2373L50.9307 69.1162L52.8379 67.5352L54.1689 65.5312L54.2334 65.417L54.3252 65.3262L56.1191 63.3887L57.5918 61.3965L57.665 61.29L57.7666 61.207L59.5693 59.4766L60.9619 57.417L61.0068 57.3633L62.5762 55.2383L62.6738 55.1211L62.7734 55.0205L64.6768 53.2988L66.2461 51.3564L66.291 51.3027L68.0303 49.3203L69.7197 47.3262L69.7344 47.3086L71.3672 45.4355L72.8916 43.2725L72.9053 43.2383L72.9277 43.2109L74.5586 41.1221L74.5869 41.0693L74.6338 41.0322L76.4092 39.0801L78.0918 37.1113L78.1523 37.0391L79.4219 35.7275L79.7559 35.2148L79.7705 35.1973L81.2578 32.9873L81.3467 32.8633L81.4609 32.7451L83.29 31.0215L84.7998 28.9844L84.8438 28.9141L84.9053 28.8584L85.4521 28.2686L86.3486 26.998L86.4375 26.873L86.5371 26.7734L87.207 26.126L88.0117 24.9023L88.1943 24.6113L88.4785 24.4365L89.2363 23.9736L89.96 23.1133L91.293 21.2334L91.5342 19.6152L90.6904 17.959L90.5654 17.8701L88.8945 17.875ZM30.2051 14.9043L30.6699 14.9121L31.0557 15.1699L33.2344 16.6914L33.4463 16.835L33.5947 17.0479L35.1543 19.1807L35.1768 19.207L36.6094 21.2793L38.3047 23.2988L39.9629 25.166L41.8457 27.0273L41.9307 27.1104L42.0059 27.1992L43.5312 29.2549L45.2695 31.1621L45.3447 31.252L46.8682 33.2314L48.6885 35.1455L48.7568 35.2266L48.8076 35.3057L50.2598 37.3457L52.1094 39.0215L52.1934 39.1045L52.2617 39.1846L53.9199 41.2344L53.9961 41.3242L54.0527 41.4297L55.3271 43.6035L56.8877 45.4453L57.3174 45.835L57.0137 46.1396L55.3682 48.1104L54.8184 47.6104L54.749 47.5459L54.6885 47.4736L52.9756 45.4697L52.8857 45.3613L52.8203 45.248L51.541 43.0479L50.0088 41.167L48.1133 39.4375L48.0068 39.3281L47.918 39.2041L46.4209 37.1104L44.6924 35.2871L44.6299 35.2314L44.5938 35.1699L43.0459 33.1797L41.2705 31.2275L41.1729 31.1113L39.6777 29.0918L37.8545 27.3027L37.8154 27.2734L37.7852 27.2383L36.0293 25.2539L34.2207 23.0996L32.7148 20.9219L31.3184 19.0029L29.7354 17.8994L28.0635 17.8945L27.9395 17.9834L27.0957 19.6396L27.3369 21.2578L28.6699 23.1387L29.3906 23.998L30.1514 24.4619L30.4355 24.6367L30.6182 24.9268L31.4199 26.1504L32.0928 26.7979L32.1914 26.8984L32.2803 27.0225L33.1787 28.2969L33.7236 28.8838L33.7861 28.9385L33.8291 29.0088L35.3398 31.0459L37.1611 32.7607L37.2754 32.8789L37.3721 33.0127L38.8594 35.2217L38.8662 35.2314L39.2002 35.7461L40.4775 37.0645L40.5371 37.1357L42.2197 39.1045L43.9961 41.0566L44.042 41.0947L44.0713 41.1465L45.7021 43.2354L45.7246 43.2627L45.7383 43.2969L47.2617 45.46L48.8955 47.333L48.9102 47.3516L50.5986 49.3457L52.3389 51.3281L52.3838 51.3818L52.5088 51.5352L51.9014 52.2637L50.4785 53.7988L50.0859 53.3096L48.3457 51.3281L48.3311 51.3096L46.6348 49.3066L44.8965 47.3076L44.8516 47.2539L44.8076 47.1836L43.2832 45.0205L41.7891 43.0762L40.0049 41.1318L39.9746 41.0957L39.3301 40.3428L38.9023 40.999L38.7773 41.1953L38.5811 41.3447L36.5508 42.9717L34.5859 44.6973L34.5684 44.7119L32.5654 46.4082L32.5723 46.417L30.5752 48.1387L30.0352 48.6074L29.3389 48.4883L27.0684 48.0986L26.4863 48.0059L24.5137 45.4541L24.4912 45.4277L22.958 43.3633L22.2207 42.376L23.0488 41.4668L24.7617 39.5703L24.7998 39.5234L24.835 39.4932L26.751 37.6562L26.8066 37.5947L26.8691 37.542L28.1084 36.5938L27.9512 36.1143L27.4385 35.5957L26.4102 36.3203L24.7061 38.1182L24.6328 38.1943L24.5615 38.2549L22.4688 39.9189L21.5742 40.6387L20.6445 39.9502L18.6289 38.46L18.4482 38.3359L18.3223 38.167L16.7188 36.0547L16.5537 35.8408L16.4766 35.585L16.0576 34.1924L15.3984 33.9346L15.7598 32.6523L15.7998 32.4805L15.9229 32.0264L16.2988 31.7256L18.3262 30.04L18.3525 30.0176L20.418 28.377L20.4258 28.3857L22.4756 26.7266L22.4824 26.7354L24.501 25.0576L24.5283 25.0342L24.5713 25.0137L25.7119 24.1709L24.6875 22.7314L24.4883 22.4395L24.4365 22.0859L24.0527 19.623L23.9775 19.1514L24.1982 18.7207L25.0303 17.1055L24.8418 16.5898L25.6982 15.9326L26.626 15.2148L27.0361 14.9014L27.5518 14.8975L30.2051 14.9043ZM26.3398 27.4307L26.3418 27.4141L24.3584 29.0625L24.3496 29.0703L22.292 30.7197L22.2832 30.7275L20.2373 32.3369L20.2451 32.3457L18.9629 33.4062L19.2715 34.4482L20.5684 36.1592L21.5078 36.8398L22.625 35.9482L24.373 34.1289L24.4824 34.0225L24.5977 33.9414L26.7695 32.4092L27.8154 31.6689L28.6992 32.5947L30.3242 34.2754L30.5527 34.5117L30.667 34.8301L31.2988 36.6396L31.6572 37.6699L30.8018 38.3271L28.7705 39.8623L26.9277 41.623L26.0898 42.5557L26.8721 43.5977L26.8799 43.6064L28.1436 45.2227L29.1514 45.4023L30.6084 44.1494L30.6172 44.1416L32.6133 42.4365L34.5957 40.6963L34.6406 40.6592L36.5371 39.1279L37.1895 38.1367L36.8672 37.6445L36.4775 37.2383L36.416 37.1826L36.3721 37.1123L34.8125 35.0713L33.1084 33.0586L33.0938 33.041L31.4092 30.9971L31.3789 30.9609L31.3506 30.9092L30.8086 30.1416L29.7305 28.9912L29.6475 28.8926L29.5732 28.7871L29.1309 28.1152L28.0967 27.1221L28.0342 27.0674L27.9814 27.0039L27.5781 26.5195L26.3398 27.4307ZM90.6475 26.9795L90.5947 27.042L90.5332 27.0977L89.499 28.0889L89.0566 28.7617L88.9824 28.8682L88.8994 28.9668L87.8174 30.1191L87.2793 30.8838L87.251 30.9365L87.2207 30.9727L85.5361 33.0166L85.5205 33.0342L83.8174 35.0469L82.2568 37.0879L82.2139 37.1582L82.1514 37.2139L81.7607 37.6201L81.4395 38.1123L82.1006 39.1104L83.9814 40.6426L84.0166 40.6562L84.0264 40.6807L85.999 42.3965L88.0127 44.1162L88.0215 44.124L89.4785 45.3779L90.4873 45.2139L91.75 43.582L91.7578 43.5723L92.54 42.5312L91.6836 41.583L89.8584 39.8379L87.8281 38.3018L86.9629 37.6367L87.3311 36.6152L87.9707 34.7959L88.0762 34.4873L88.3057 34.251L89.9297 32.5693L90.8135 31.6436L91.8604 32.3838L94.0322 33.916L94.1475 33.9971L94.2568 34.1045L96.0049 35.9229L97.1221 36.8145L98.0605 36.1338L99.3584 34.4229L99.667 33.3818L98.3848 32.3213L98.3828 32.3047L96.3467 30.7021L96.3369 30.6953L94.2793 29.0449L94.2617 29.0303L92.2881 27.3896L92.29 27.4053L91.0498 26.4941L90.6475 26.9795ZM62.4766 9.62793L64.1543 10.6084L64.8008 10.9863L64.8877 11.7305L65.1953 14.3701L65.2266 14.6416L65.1611 14.9053L65.0898 15.1895L66.0918 15.2354L68.6641 15.1123L70.0029 15.0479L70.2168 16.3711L70.5898 18.6807L70.6084 18.7959L70.6094 18.9121L70.623 21.5527L70.6279 22.583L69.667 22.958L67.8008 23.6855L67.5996 23.7637L67.3838 23.7822L65.4102 23.9512L65.04 24.4414L65.0273 26.5859L65.0234 27.1045L64.7012 27.5098L63.4141 29.1279L62.9238 29.7441L62.1377 29.6904L59.498 29.5107L59.335 29.5L59.1787 29.4541L57.1338 28.8555L56.0078 28.5264L56.0566 27.3545L56.1562 24.8848L56 24.0488L54.7158 24.1631L54.5771 24.1758L54.4385 24.1621L51.6846 23.8926L50.3223 23.7598L50.3311 22.3906L50.3467 19.751V19.7393L50.3477 19.7266L50.4053 17.0869L50.4287 16.0342L51.4268 15.6982L53.5859 14.9727L53.9209 14.8594L54.2705 14.9082L55.793 15.1191L56.0703 14.499L55.8359 12.2607L55.7344 11.2959L56.5723 10.8076L58.3252 9.78711L58.6328 9.60645L58.9893 9.58496L61.6299 9.42578L62.084 9.39844L62.4766 9.62793ZM59.5264 12.5576L58.9199 12.9111L59.0967 14.5869L59.1387 14.9883L58.9746 15.3555L58.0732 17.373L57.6143 18.4023L56.4971 18.2471L54.2061 17.9277L53.3809 18.2051L53.3467 19.793L53.3389 21.04L54.5918 21.1621L57.0918 20.9414L58.4473 20.8223L58.6982 22.1592L59.1377 24.499L59.1689 24.667L59.1621 24.8379L59.1016 26.3047L59.8652 26.5283L61.5566 26.6436L62.0303 26.0479L62.0439 23.9268L62.0469 23.4297L62.3457 23.0332L63.418 21.6113L63.8213 21.0762L64.4883 21.0195L66.9111 20.8115L67.6172 20.5361L67.6094 19.042L67.4688 18.1729L66.168 18.2354L66.0977 18.2393L66.0283 18.2354L63.4521 18.1191L62.7979 18.0889L62.7598 18.0439H61.29L61.7529 16.1826L62.1836 14.4463L61.9941 12.8213L61.3555 12.4482L59.5264 12.5576Z" fill="black"/>
</svg>
