<svg width="120" height="120" viewBox="0 0 120 120" fill="none" xmlns="http://www.w3.org/2000/svg">
<path d="M14.0225 96.579H12.5225V96.6113L12.5238 96.6435L14.0225 96.579ZM14.1318 99.119L15.6235 99.276L15.6352 99.1655L15.6304 99.0545L14.1318 99.119ZM13.8539 101.759L12.3621 101.602L12.3462 101.753L12.3609 101.904L13.8539 101.759ZM14.1103 104.399L15.6091 104.339L15.6073 104.296L15.6032 104.254L14.1103 104.399ZM14.2167 107.039L15.7122 107.155L15.719 107.067L15.7155 106.979L14.2167 107.039ZM14.0114 109.679L12.5159 109.563L12.5116 109.618L12.5114 109.674L14.0114 109.679ZM14.0023 112.319L12.5023 112.314L12.5021 112.373L12.5065 112.431L14.0023 112.319ZM14.1918 114.845V116.345H15.8086L15.6876 114.732L14.1918 114.845ZM14.0225 96.479H12.5225V96.579H14.0225H15.5225V96.479H14.0225ZM14.0225 96.579L12.5238 96.6435L12.6332 99.1835L14.1318 99.119L15.6304 99.0545L15.5211 96.5145L14.0225 96.579ZM14.1318 99.119L12.64 98.962L12.3621 101.602L13.8539 101.759L15.3456 101.916L15.6235 99.276L14.1318 99.119ZM13.8539 101.759L12.3609 101.904L12.6173 104.544L14.1103 104.399L15.6032 104.254L15.3469 101.614L13.8539 101.759ZM14.1103 104.399L12.6115 104.459L12.7179 107.099L14.2167 107.039L15.7155 106.979L15.6091 104.339L14.1103 104.399ZM14.2167 107.039L12.7212 106.923L12.5159 109.563L14.0114 109.679L15.5069 109.795L15.7122 107.155L14.2167 107.039ZM14.0114 109.679L12.5114 109.674L12.5023 112.314L14.0023 112.319L15.5023 112.324L15.5114 109.684L14.0114 109.679ZM14.0023 112.319L12.5065 112.431L12.696 114.957L14.1918 114.845L15.6876 114.732L15.4981 112.207L14.0023 112.319ZM14.1918 114.845V113.345H14.0225V114.845V116.345H14.1918V114.845Z" fill="black"/>
<path d="M27.1803 63.9635L26.7687 62.521L26.7377 62.5299L26.7071 62.5401L27.1803 63.9635ZM24.7677 64.7655L25.026 66.2431L25.1355 66.2239L25.2409 66.1889L24.7677 64.7655ZM22.1528 65.2226L21.8945 63.745L21.745 63.7711L21.6038 63.8266L22.1528 65.2226ZM19.6844 66.1934L20.1537 67.6181L20.194 67.6048L20.2335 67.5893L19.6844 66.1934ZM17.1749 67.02L17.4734 68.49L17.5602 68.4724L17.6442 68.4447L17.1749 67.02ZM14.5799 67.547L14.2814 66.077L13.3631 66.2634L13.1279 67.1705L14.5799 67.547ZM14.0023 69.7746L12.5503 69.3981L12.4885 69.6365L12.5061 69.8821L14.0023 69.7746ZM14.1918 72.4146L15.6912 72.4569L15.6934 72.382L15.688 72.3072L14.1918 72.4146ZM14.1174 75.0546L15.607 75.2309L15.6149 75.1641L15.6168 75.0969L14.1174 75.0546ZM13.8051 77.6946L12.3154 77.5184L12.2906 77.7288L12.3249 77.9379L13.8051 77.6946ZM14.2388 80.3346L15.7368 80.414L15.7453 80.2517L15.719 80.0914L14.2388 80.3346ZM14.0991 82.9746L12.6012 82.8953L12.5942 83.0268L12.6102 83.1574L14.0991 82.9746ZM14.2717 84.3809V85.8809H15.9671L15.7605 84.1981L14.2717 84.3809ZM27.2764 63.936L26.8649 62.4936L26.7687 62.521L27.1803 63.9635L27.5918 65.4059L27.688 65.3785L27.2764 63.936ZM27.1803 63.9635L26.7071 62.5401L24.2945 63.3421L24.7677 64.7655L25.2409 66.1889L27.6535 65.3869L27.1803 63.9635ZM24.7677 64.7655L24.5095 63.2879L21.8945 63.745L22.1528 65.2226L22.4111 66.7002L25.026 66.2431L24.7677 64.7655ZM22.1528 65.2226L21.6038 63.8266L19.1354 64.7975L19.6844 66.1934L20.2335 67.5893L22.7018 66.6185L22.1528 65.2226ZM19.6844 66.1934L19.2151 64.7687L16.7056 65.5953L17.1749 67.02L17.6442 68.4447L20.1537 67.6181L19.6844 66.1934ZM17.1749 67.02L16.8764 65.55L14.2814 66.077L14.5799 67.547L14.8784 69.017L17.4734 68.49L17.1749 67.02ZM14.5799 67.547L13.1279 67.1705L12.5503 69.3981L14.0023 69.7746L15.4543 70.1511L16.0319 67.9235L14.5799 67.547ZM14.0023 69.7746L12.5061 69.8821L12.6957 72.5221L14.1918 72.4146L15.688 72.3072L15.4984 69.6672L14.0023 69.7746ZM14.1918 72.4146L12.6924 72.3724L12.618 75.0124L14.1174 75.0546L15.6168 75.0969L15.6912 72.4569L14.1918 72.4146ZM14.1174 75.0546L12.6278 74.8784L12.3154 77.5184L13.8051 77.6946L15.2947 77.8709L15.607 75.2309L14.1174 75.0546ZM13.8051 77.6946L12.3249 77.9379L12.7587 80.5779L14.2388 80.3346L15.719 80.0914L15.2852 77.4514L13.8051 77.6946ZM14.2388 80.3346L12.7409 80.2553L12.6012 82.8953L14.0991 82.9746L15.597 83.054L15.7368 80.414L14.2388 80.3346ZM14.0991 82.9746L12.6102 83.1574L12.7829 84.5636L14.2717 84.3809L15.7605 84.1981L15.5879 82.7918L14.0991 82.9746ZM14.2717 84.3809V82.8809H14.0225V84.3809V85.8809H14.2717V84.3809Z" fill="black"/>
<path d="M48.3652 43.1H46.8652V43.1323L46.8666 43.1645L48.3652 43.1ZM48.4746 45.64L49.9663 45.797L49.978 45.6865L49.9732 45.5755L48.4746 45.64ZM48.1967 48.28L46.7049 48.123L46.689 48.2739L46.7037 48.425L48.1967 48.28ZM48.453 50.92L49.9518 50.8596L49.9501 50.8172L49.946 50.775L48.453 50.92ZM48.5594 53.56L50.0549 53.6763L50.0618 53.588L50.0582 53.4996L48.5594 53.56ZM48.3542 56.2L46.8587 56.0837L46.8209 56.5692L47.0755 56.9842L48.3542 56.2ZM49.2612 57.6789L47.9826 58.4631L48.6237 59.5084L49.7756 59.0879L49.2612 57.6789ZM51.7475 56.7712L51.3761 55.3179L51.3035 55.3364L51.2331 55.3621L51.7475 56.7712ZM54.3063 56.1173L54.0665 54.6366L54.0001 54.6474L53.935 54.664L54.3063 56.1173ZM56.9305 55.6922L57.1704 57.1729L57.3795 57.1391L57.5711 57.0486L56.9305 55.6922ZM59.3497 54.5497L59.5591 53.0644L59.1149 53.0018L58.7092 53.1934L59.3497 54.5497ZM61.9168 54.9117L62.4163 53.4972L62.2748 53.4473L62.1262 53.4263L61.9168 54.9117ZM64.4115 55.7926L65.1649 54.4955L65.0434 54.4249L64.9109 54.3781L64.4115 55.7926ZM66.7113 57.1283L65.9579 58.4254L66.0582 58.4836L66.1661 58.5257L66.7113 57.1283ZM69.1721 58.0883L69.7181 56.6912L69.7173 56.6909L69.1721 58.0883ZM71.6323 59.0497L71.0863 60.4468L71.1071 60.455L71.1282 60.4625L71.6323 59.0497ZM74.1235 59.9386L74.9453 58.6838L74.7959 58.5859L74.6276 58.5259L74.1235 59.9386ZM76.3664 61.4074L75.5446 62.6623L75.7657 62.8071L76.023 62.8676L76.3664 61.4074ZM78.9755 62.021L79.693 60.7038L79.5156 60.6071L79.3189 60.5609L78.9755 62.021ZM81.3042 63.2894L80.5867 64.6067L80.6844 64.6599L80.7888 64.6981L81.3042 63.2894ZM83.7871 64.1979L84.5672 62.9168L84.4411 62.84L84.3025 62.7893L83.7871 64.1979ZM86.0649 65.585L85.2848 66.8661L85.4953 66.9943L85.7358 67.0484L86.0649 65.585ZM88.6846 66.1742L89.3464 64.8281L89.187 64.7497L89.0137 64.7107L88.6846 66.1742ZM91.0569 67.3405L90.3951 68.6867L90.4158 68.6968L90.4368 68.7063L91.0569 67.3405ZM93.4613 68.4323L92.8411 69.7981L92.8672 69.8099L92.8936 69.8207L93.4613 68.4323ZM95.9053 69.4315L96.7643 68.2018L96.6274 68.1063L96.4729 68.0431L95.9053 69.4315ZM48.3652 43H46.8652V43.1H48.3652H49.8652V43H48.3652ZM48.3652 43.1L46.8666 43.1645L46.976 45.7045L48.4746 45.64L49.9732 45.5755L49.8638 43.0355L48.3652 43.1ZM48.4746 45.64L46.9828 45.483L46.7049 48.123L48.1967 48.28L49.6884 48.437L49.9663 45.797L48.4746 45.64ZM48.1967 48.28L46.7037 48.425L46.9601 51.065L48.453 50.92L49.946 50.775L49.6896 48.135L48.1967 48.28ZM48.453 50.92L46.9543 50.9804L47.0607 53.6204L48.5594 53.56L50.0582 53.4996L49.9518 50.8596L48.453 50.92ZM48.5594 53.56L47.064 53.4437L46.8587 56.0837L48.3542 56.2L49.8497 56.3163L50.0549 53.6763L48.5594 53.56ZM48.3542 56.2L47.0755 56.9842L47.9826 58.4631L49.2612 57.6789L50.5399 56.8946L49.6328 55.4158L48.3542 56.2ZM49.2612 57.6789L49.7756 59.0879L52.2619 58.1802L51.7475 56.7712L51.2331 55.3621L48.7468 56.2698L49.2612 57.6789ZM51.7475 56.7712L52.1189 58.2245L54.6777 57.5706L54.3063 56.1173L53.935 54.664L51.3761 55.3179L51.7475 56.7712ZM54.3063 56.1173L54.5462 57.598L57.1704 57.1729L56.9305 55.6922L56.6907 54.2115L54.0665 54.6366L54.3063 56.1173ZM56.9305 55.6922L57.5711 57.0486L59.9903 55.9061L59.3497 54.5497L58.7092 53.1934L56.29 54.3359L56.9305 55.6922ZM59.3497 54.5497L59.1403 56.035L61.7074 56.397L61.9168 54.9117L62.1262 53.4263L59.5591 53.0644L59.3497 54.5497ZM61.9168 54.9117L61.4174 56.3261L63.912 57.207L64.4115 55.7926L64.9109 54.3781L62.4163 53.4972L61.9168 54.9117ZM64.4115 55.7926L63.6581 57.0896L65.9579 58.4254L66.7113 57.1283L67.4647 55.8312L65.1649 54.4955L64.4115 55.7926ZM66.7113 57.1283L66.1661 58.5257L68.6269 59.4857L69.1721 58.0883L69.7173 56.6909L67.2565 55.7309L66.7113 57.1283ZM69.1721 58.0883L68.6261 59.4854L71.0863 60.4468L71.6323 59.0497L72.1783 57.6526L69.7181 56.6912L69.1721 58.0883ZM71.6323 59.0497L71.1282 60.4625L73.6194 61.3514L74.1235 59.9386L74.6276 58.5259L72.1364 57.637L71.6323 59.0497ZM74.1235 59.9386L73.3018 61.1935L75.5446 62.6623L76.3664 61.4074L77.1881 60.1526L74.9453 58.6838L74.1235 59.9386ZM76.3664 61.4074L76.023 62.8676L78.6322 63.4812L78.9755 62.021L79.3189 60.5609L76.7098 59.9473L76.3664 61.4074ZM78.9755 62.021L78.2581 63.3383L80.5867 64.6067L81.3042 63.2894L82.0217 61.9721L79.693 60.7038L78.9755 62.021ZM81.3042 63.2894L80.7888 64.6981L83.2716 65.6066L83.7871 64.1979L84.3025 62.7893L81.8197 61.8808L81.3042 63.2894ZM83.7871 64.1979L83.0069 65.4791L85.2848 66.8661L86.0649 65.585L86.845 64.3038L84.5672 62.9168L83.7871 64.1979ZM86.0649 65.585L85.7358 67.0484L88.3554 67.6376L88.6846 66.1742L89.0137 64.7107L86.3941 64.1215L86.0649 65.585ZM88.6846 66.1742L88.0228 67.5203L90.3951 68.6867L91.0569 67.3405L91.7188 65.9944L89.3464 64.8281L88.6846 66.1742ZM91.0569 67.3405L90.4368 68.7063L92.8411 69.7981L93.4613 68.4323L94.0815 67.0665L91.6771 65.9748L91.0569 67.3405ZM93.4613 68.4323L92.8936 69.8207L95.3376 70.82L95.9053 69.4315L96.4729 68.0431L94.029 67.0439L93.4613 68.4323ZM95.9053 69.4315L95.0463 70.6612L95.5063 70.9826L96.3653 69.7529L97.2243 68.5232L96.7643 68.2018L95.9053 69.4315Z" fill="black"/>
<path d="M114.759 94.1187L115.349 92.7399L115.32 92.7272L115.29 92.7158L114.759 94.1187ZM112.381 93.2187L111.649 94.528L111.746 94.5822L111.85 94.6216L112.381 93.2187ZM110.064 91.9234L110.796 90.6141L110.663 90.54L110.519 90.494L110.064 91.9234ZM107.536 91.1192L107.001 92.5206L107.041 92.5358L107.081 92.5486L107.536 91.1192ZM105.068 90.1772L104.372 91.506L104.45 91.547L104.533 91.5786L105.068 90.1772ZM102.722 88.9487L103.418 87.6199L103.369 87.5941L103.318 87.572L102.722 88.9487ZM100.299 87.9004L100.895 86.5237L100.843 86.5014L100.79 86.4829L100.299 87.9004ZM97.7978 87.0348L97.1683 88.3964L97.2364 88.4278L97.3072 88.4523L97.7978 87.0348ZM95.4005 85.9266L94.6518 87.2264L94.71 87.2599L94.7711 87.2881L95.4005 85.9266ZM93.0969 84.5996L93.8457 83.2999L93.6621 83.1941L93.4564 83.1433L93.0969 84.5996ZM90.4995 83.9585L89.8366 85.3041L89.9823 85.3759L90.14 85.4148L90.4995 83.9585ZM88.128 82.7902L88.7909 81.4446L88.7112 81.4054L88.6275 81.3758L88.128 82.7902ZM85.6334 81.909L84.8799 83.206L85.0013 83.2766L85.1338 83.3234L85.6334 81.909ZM83.3337 80.573L84.0872 79.276L83.987 79.2178L83.879 79.1757L83.3337 80.573ZM80.873 79.6128L80.3269 81.0098L80.3277 81.0102L80.873 79.6128ZM78.4129 78.6511L78.959 77.2541L78.9382 77.2459L78.9171 77.2384L78.4129 78.6511ZM75.9217 77.762L75.0998 79.0168L75.2493 79.1147L75.4175 79.1747L75.9217 77.762ZM73.679 76.293L74.5009 75.0382L74.3646 74.9489L74.2122 74.8909L73.679 76.293ZM71.105 75.3142L69.6116 75.1734L69.5044 76.3103L70.5718 76.7162L71.105 75.3142ZM71.3539 72.6742L72.8472 72.8149L72.8577 72.7043L72.8517 72.5933L71.3539 72.6742ZM71.2113 70.0342L72.7091 69.9533L72.7016 69.8152L72.6691 69.6809L71.2113 70.0342ZM70.7095 67.9636L72.1673 67.6103L71.7246 65.7834L70.0415 66.6205L70.7095 67.9636ZM68.3054 69.1593L68.6413 70.6212L68.8143 70.5815L68.9734 70.5024L68.3054 69.1593ZM65.7289 69.7513L65.393 68.2894L65.3706 68.2945L65.3483 68.3004L65.7289 69.7513ZM63.1747 70.4213L62.7941 68.9704L62.7657 68.9779L62.7376 68.9864L63.1747 70.4213ZM60.7989 71.1451L59.3565 71.5568L59.7756 73.0249L61.2361 72.58L60.7989 71.1451ZM114.851 94.158L115.441 92.7793L115.349 92.7399L114.759 94.1187L114.168 95.4974L114.26 95.5368L114.851 94.158ZM114.759 94.1187L115.29 92.7158L112.912 91.8158L112.381 93.2187L111.85 94.6216L114.228 95.5215L114.759 94.1187ZM112.381 93.2187L113.113 91.9094L110.796 90.6141L110.064 91.9234L109.332 93.2327L111.649 94.528L112.381 93.2187ZM110.064 91.9234L110.519 90.494L107.991 89.6898L107.536 91.1192L107.081 92.5486L109.609 93.3528L110.064 91.9234ZM107.536 91.1192L108.071 89.7178L105.603 88.7758L105.068 90.1772L104.533 91.5786L107.001 92.5206L107.536 91.1192ZM105.068 90.1772L105.764 88.8484L103.418 87.6199L102.722 88.9487L102.026 90.2775L104.372 91.506L105.068 90.1772ZM102.722 88.9487L103.318 87.572L100.895 86.5237L100.299 87.9004L99.7034 89.2771L102.126 90.3254L102.722 88.9487ZM100.299 87.9004L100.79 86.4829L98.2883 85.6173L97.7978 87.0348L97.3072 88.4523L99.8085 89.3179L100.299 87.9004ZM97.7978 87.0348L98.4272 85.6733L96.0299 84.565L95.4005 85.9266L94.7711 87.2881L97.1683 88.3964L97.7978 87.0348ZM95.4005 85.9266L96.1492 84.6268L93.8457 83.2999L93.0969 84.5996L92.3482 85.8994L94.6518 87.2264L95.4005 85.9266ZM93.0969 84.5996L93.4564 83.1433L90.8589 82.5022L90.4995 83.9585L90.14 85.4148L92.7375 86.0559L93.0969 84.5996ZM90.4995 83.9585L91.1624 82.6129L88.7909 81.4446L88.128 82.7902L87.4651 84.1357L89.8366 85.3041L90.4995 83.9585ZM88.128 82.7902L88.6275 81.3758L86.133 80.4947L85.6334 81.909L85.1338 83.3234L87.6284 84.2045L88.128 82.7902ZM85.6334 81.909L86.3869 80.612L84.0872 79.276L83.3337 80.573L82.5802 81.8701L84.8799 83.206L85.6334 81.909ZM83.3337 80.573L83.879 79.1757L81.4183 78.2154L80.873 79.6128L80.3277 81.0102L82.7884 81.9704L83.3337 80.573ZM80.873 79.6128L81.4191 78.2157L78.959 77.2541L78.4129 78.6511L77.8668 80.0482L80.3269 81.0098L80.873 79.6128ZM78.4129 78.6511L78.9171 77.2384L76.426 76.3493L75.9217 77.762L75.4175 79.1747L77.9087 80.0638L78.4129 78.6511ZM75.9217 77.762L76.7436 76.5072L74.5009 75.0382L73.679 76.293L72.8571 77.5478L75.0998 79.0168L75.9217 77.762ZM73.679 76.293L74.2122 74.8909L71.6381 73.9121L71.105 75.3142L70.5718 76.7162L73.1459 77.695L73.679 76.293ZM71.105 75.3142L72.5983 75.4549L72.8472 72.8149L71.3539 72.6742L69.8605 72.5334L69.6116 75.1734L71.105 75.3142ZM71.3539 72.6742L72.8517 72.5933L72.7091 69.9533L71.2113 70.0342L69.7134 70.1151L69.856 72.7551L71.3539 72.6742ZM71.2113 70.0342L72.6691 69.6809L72.1673 67.6103L70.7095 67.9636L69.2517 68.3168L69.7535 70.3874L71.2113 70.0342ZM70.7095 67.9636L70.0415 66.6205L67.6374 67.8163L68.3054 69.1593L68.9734 70.5024L71.3775 69.3066L70.7095 67.9636ZM68.3054 69.1593L67.9695 67.6974L65.393 68.2894L65.7289 69.7513L66.0648 71.2132L68.6413 70.6212L68.3054 69.1593ZM65.7289 69.7513L65.3483 68.3004L62.7941 68.9704L63.1747 70.4213L63.5553 71.8722L66.1095 71.2022L65.7289 69.7513ZM63.1747 70.4213L62.7376 68.9864L60.3618 69.7102L60.7989 71.1451L61.2361 72.58L63.6118 71.8562L63.1747 70.4213ZM60.7989 71.1451L62.2413 70.7334L62.21 70.6236L60.7676 71.0352L59.3252 71.4469L59.3565 71.5568L60.7989 71.1451Z" fill="black"/>
<path d="M105.919 114.745H107.419V114.712L107.417 114.68L105.919 114.745ZM105.81 112.205L104.318 112.047L104.306 112.158L104.311 112.269L105.81 112.205ZM106.087 109.565L107.579 109.722L107.595 109.571L107.58 109.42L106.087 109.565ZM105.831 106.925L104.332 106.985L104.334 107.027L104.338 107.07L105.831 106.925ZM105.725 104.285L104.229 104.168L104.222 104.256L104.226 104.345L105.725 104.285ZM105.93 101.645L107.425 101.761L107.43 101.705L107.43 101.65L105.93 101.645ZM105.939 99.0045L105.013 97.8244L104.442 98.2728L104.439 98.9993L105.939 99.0045ZM107.779 97.561L107.137 96.2051L106.985 96.2771L106.853 96.3809L107.779 97.561ZM110.166 96.4313L109.649 95.0235L109.585 95.0467L109.525 95.0755L110.166 96.4313ZM112.661 95.5138L113.179 96.9216L113.374 96.85L113.542 96.7283L112.661 95.5138ZM114.634 94.0836L115.515 95.298L116.094 94.8778L116.132 94.1629L114.634 94.0836ZM114.774 91.4436L116.272 91.5229L116.276 91.4343L116.271 91.3457L114.774 91.4436ZM114.601 88.8036L116.098 88.7057L116.098 88.7037L114.601 88.8036ZM114.44 86.3862L115.937 86.2863L115.873 85.3356L114.986 84.989L114.44 86.3862ZM111.979 85.4252L111.347 86.7852L111.39 86.8052L111.434 86.8225L111.979 85.4252ZM111.545 85.1389L110.046 85.0716L110.036 85.3079L110.098 85.5359L111.545 85.1389ZM111.659 82.5954L110.162 82.5006L110.161 82.5143L110.161 82.5281L111.659 82.5954ZM111.826 79.9554L113.323 80.0501L113.331 79.9231L113.318 79.7965L111.826 79.9554ZM111.545 77.3154L113.037 77.1565L112.984 76.6661L112.651 76.3024L111.545 77.3154ZM110.076 75.7113L111.182 74.6983L111.024 74.5251L110.82 74.4086L110.076 75.7113ZM107.769 74.394L108.512 73.0913L108.383 73.0177L108.242 72.9708L107.769 74.394ZM105.255 73.5573L104.73 74.9624L104.755 74.9719L104.781 74.9805L105.255 73.5573ZM102.779 72.6321L102.034 73.9341L102.14 73.9946L102.254 74.0372L102.779 72.6321ZM100.473 71.3124L101.217 70.0104L101.052 69.916L100.869 69.8657L100.473 71.3124ZM97.9021 70.6082L96.7405 71.5573L97.0436 71.9283L97.5057 72.0549L97.9021 70.6082ZM96.4755 68.8622L94.9785 68.9564L95.0088 69.4377L95.3139 69.8112L96.4755 68.8622ZM96.3094 66.2222L94.8119 66.1352L94.8066 66.2258L94.8123 66.3164L96.3094 66.2222ZM96.4627 63.5822L97.9602 63.6691L98.0029 62.9331L97.4462 62.4496L96.4627 63.5822ZM94.6398 61.9991L95.6233 60.8666L95.3848 60.6594L95.083 60.5661L94.6398 61.9991ZM92.1068 61.2158L91.4714 62.5746L91.565 62.6183L91.6637 62.6489L92.1068 61.2158ZM89.713 60.0963L90.3484 58.7376L90.3098 58.7195L90.2701 58.7036L89.713 60.0963ZM87.2617 59.1157L87.8188 57.723L87.8094 57.7193L87.2617 59.1157ZM84.8035 58.1516L85.3512 56.7552L85.3227 56.744L85.2938 56.734L84.8035 58.1516ZM82.3041 57.2871L81.4948 58.55L81.6451 58.6463L81.8138 58.7047L82.3041 57.2871ZM80.0459 55.84L80.8552 54.577L80.6294 54.4323L80.3674 54.3749L80.0459 55.84ZM77.4266 55.2652L76.7552 56.6065L76.9224 56.6902L77.1051 56.7303L77.4266 55.2652ZM75.0597 54.0805L74.3767 55.416L74.3884 55.4218L75.0597 54.0805ZM72.7017 52.8746L73.3847 51.5391L73.239 51.4646L73.0807 51.4232L72.7017 52.8746ZM70.1231 52.2013L69.5571 53.5904L69.6486 53.6276L69.7442 53.6526L70.1231 52.2013ZM67.6783 51.205L67.0263 52.5558L67.0687 52.5763L67.1122 52.594L67.6783 51.205ZM65.2969 50.0555L65.949 48.7046L65.8841 48.6733L65.8166 48.6484L65.2969 50.0555ZM62.8185 49.1402L62.2142 50.5131L62.256 50.5315L62.2989 50.5473L62.8185 49.1402ZM60.4017 48.0763L61.0061 46.7034L60.9672 46.6863L60.9274 46.6714L60.4017 48.0763ZM57.9277 47.1506L57.2328 48.4799L57.315 48.5229L57.402 48.5554L57.9277 47.1506ZM55.5787 45.9227L56.2736 44.5933L56.1383 44.5226L55.9916 44.4806L55.5787 45.9227ZM53.0242 45.1913L52.2784 46.4927L52.4363 46.5832L52.6113 46.6333L53.0242 45.1913ZM50.7148 43.8678L51.4606 42.5664L51.3377 42.4959L51.2037 42.4498L50.7148 43.8678ZM48.2253 43.0095L48.7142 41.5915L48.2701 41.4383L47.818 41.5659L48.2253 43.0095ZM45.6845 43.7265L45.2772 42.2829L45.2036 42.3036L45.1325 42.3318L45.6845 43.7265ZM43.2178 44.7029L43.3644 46.1957L43.574 46.1751L43.7699 46.0976L43.2178 44.7029ZM40.5471 44.9651L40.4006 43.4722L40.2298 43.489L40.0672 43.5439L40.5471 44.9651ZM38.0431 45.8107L38.4636 47.2506L38.4935 47.2418L38.5231 47.2319L38.0431 45.8107ZM35.5089 46.5508L35.0884 45.1109L35.008 45.1344L34.9307 45.1667L35.5089 46.5508ZM33.056 47.5755L33.3164 49.0527L33.4805 49.0238L33.6342 48.9596L33.056 47.5755ZM30.4421 48.0364L30.1816 46.5591L30.0544 46.5816L29.9329 46.6254L30.4421 48.0364ZM27.9531 48.9346L27.4438 47.5237L26.7477 47.775L26.5235 48.4803L27.9531 48.9346ZM27.3005 50.9879L25.871 50.5336L25.8205 50.6923L25.8062 50.8582L27.3005 50.9879ZM27.0715 53.6279L25.5771 53.4982L25.5692 53.5888L25.5724 53.6796L27.0715 53.6279ZM27.1626 56.2679L25.6635 56.3196L25.6652 56.3697L25.6703 56.4195L27.1626 56.2679ZM27.4308 58.9079L28.9242 59.0484L28.938 58.9023L28.9231 58.7562L27.4308 58.9079ZM27.1824 61.5479L25.689 61.4074L25.6723 61.585L25.6977 61.7616L27.1824 61.5479ZM27.5136 63.8477L26.0289 64.0615L26.2915 65.8852L28.024 65.2582L27.5136 63.8477ZM30.0019 62.9471L29.5805 61.5075L29.5355 61.5207L29.4915 61.5367L30.0019 62.9471ZM32.5357 62.2055L32.9571 63.6451L32.9614 63.6438L32.5357 62.2055ZM35.0672 61.4562L34.6605 60.0124L34.651 60.0151L34.6415 60.0179L35.0672 61.4562ZM37.6083 60.7403L37.4707 59.2467L37.3339 59.2593L37.2016 59.2965L37.6083 60.7403ZM40.2835 60.4938L40.4211 61.9875L40.623 61.9689L40.8127 61.8973L40.2835 60.4938ZM42.7621 59.5592L42.3134 58.1279L42.2728 58.1406L42.2329 58.1557L42.7621 59.5592ZM45.2821 58.7692L44.8793 57.3243L44.8562 57.3307L44.8334 57.3379L45.2821 58.7692ZM47.8252 58.0604L48.2279 59.5053L48.2757 59.492L48.3225 59.4756L47.8252 58.0604ZM50.3203 57.1836L50.0827 55.7025L49.9499 55.7238L49.823 55.7684L50.3203 57.1836ZM52.9456 56.7625L53.1832 58.2436L53.3494 58.2169L53.5055 58.1541L52.9456 56.7625ZM55.4082 55.7718L55.035 54.3189L54.9397 54.3434L54.8483 54.3802L55.4082 55.7718ZM57.9661 55.1147L57.6037 53.6591L57.5929 53.6619L57.9661 55.1147ZM60.5294 54.4766L62.0154 54.2716L61.7872 52.6177L60.1671 53.021L60.5294 54.4766ZM60.8435 56.7535L62.3335 56.9263L62.3554 56.7372L62.3294 56.5486L60.8435 56.7535ZM60.5373 59.3935L59.0473 59.2207L59.0304 59.3669L59.0421 59.5136L60.5373 59.3935ZM60.7494 62.0335L62.2488 62.0776L62.2512 61.9954L62.2446 61.9134L60.7494 62.0335ZM60.6717 64.6735L62.171 64.7202L62.171 64.7176L60.6717 64.6735ZM60.5895 67.3135L59.0902 67.2668L59.0884 67.3266L59.0913 67.3863L60.5895 67.3135ZM60.7178 69.9535L61.794 70.9984L62.2477 70.5312L62.2161 69.8807L60.7178 69.9535ZM59.2649 71.4499L59.5869 72.9149L60.0271 72.8181L60.3411 72.4948L59.2649 71.4499ZM56.6815 72.0177L56.3595 70.5527L56.2214 70.583L56.0914 70.6386L56.6815 72.0177ZM54.2349 73.0646L54.6869 74.4948L54.7572 74.4726L54.825 74.4436L54.2349 73.0646ZM51.7166 73.8604L51.9171 75.3469L52.0453 75.3296L52.1686 75.2906L51.7166 73.8604ZM49.0729 74.2168L48.8725 72.7303L48.7178 72.7511L48.5708 72.8034L49.0729 74.2168ZM46.5803 75.1024L47.0783 76.5173L47.0825 76.5159L46.5803 75.1024ZM44.0855 75.9806L44.5015 77.4217L44.5429 77.4098L44.5836 77.3955L44.0855 75.9806ZM41.5491 76.7128L41.9117 78.1683L41.9385 78.1616L41.9651 78.1539L41.5491 76.7128ZM38.9859 77.3515L39.3226 78.8132L39.3356 78.8102L39.3486 78.807L38.9859 77.3515ZM36.4098 77.9448L36.0732 76.483L36.0637 76.4852L36.4098 77.9448ZM33.8384 78.5546L33.4923 77.095L33.4104 77.1145L33.3312 77.1429L33.8384 78.5546ZM31.3484 79.4492L31.6836 80.9113L31.7711 80.8912L31.8556 80.8609L31.3484 79.4492ZM28.7715 80.04L28.4364 78.5779L28.3233 78.6038L28.2155 78.6468L28.7715 80.04ZM26.3069 81.0236L26.7585 82.454L26.8114 82.4373L26.8629 82.4168L26.3069 81.0236ZM23.7884 81.8187L23.9338 83.3116L24.0902 83.2964L24.24 83.2491L23.7884 81.8187ZM21.1172 82.0788L20.9718 80.5858L20.8296 80.5997L20.6926 80.6401L21.1172 82.0788ZM18.585 82.826L18.1605 81.3873L18.1364 81.3944L18.1125 81.4023L18.585 82.826ZM16.0771 83.6583L15.6047 82.2346L15.5838 82.2415L15.5632 82.2491L16.0771 83.6583ZM13.5906 84.5652L13.9172 86.0292L14.0127 86.0079L14.1046 85.9744L13.5906 84.5652ZM11.0095 85.141L10.6829 83.677L10.5463 83.7074L10.4178 83.7626L11.0095 85.141ZM8.56379 86.1907L8.94537 87.6414L9.05308 87.6131L9.15543 87.5691L8.56379 86.1907ZM6.13733 86.829L5.75576 85.3783L4.5171 85.7042L4.64481 86.9786L6.13733 86.829ZM6.40188 89.469L7.89533 89.6091L7.90892 89.4642L7.89441 89.3194L6.40188 89.469ZM6.15426 92.109L4.66082 91.9689L4.64787 92.107L4.66045 92.2451L6.15426 92.109ZM6.39476 94.749L7.88379 94.93L7.90304 94.7717L7.88857 94.6129L6.39476 94.749ZM6.0738 97.389L4.58476 97.208L4.4671 98.1758L5.30377 98.6763L6.0738 97.389ZM7.33853 98.1455L6.5685 99.4328L6.99774 99.6896L7.49517 99.6373L7.33853 98.1455ZM10.0041 97.8657L10.1607 99.3574L10.3064 99.3421L10.4465 99.2989L10.0041 97.8657ZM12.5272 97.0869L12.9696 98.5202L13.0103 98.5076L13.0502 98.4928L12.5272 97.0869ZM15.0111 96.1629L14.8298 94.6739L14.6541 94.6953L14.4882 94.757L15.0111 96.1629ZM17.6498 95.8415L17.8312 97.3305L17.9244 97.3191L18.0156 97.2962L17.6498 95.8415ZM20.2102 95.1977L20.576 96.6524L20.6305 96.6387L20.6839 96.6209L20.2102 95.1977ZM22.7238 94.3611L22.4982 92.8781L22.3716 92.8974L22.2501 92.9378L22.7238 94.3611ZM25.3437 93.9625L25.5693 95.4455L25.7163 95.4231L25.8561 95.3723L25.3437 93.9625ZM27.8401 93.0551L27.5251 91.5886L27.4244 91.6102L27.3277 91.6454L27.8401 93.0551ZM30.4221 92.5005L30.1385 91.0275L30.1228 91.0306L30.1071 91.0339L30.4221 92.5005ZM33.0175 92.0008L33.3011 93.4738L33.3693 93.4606L33.4361 93.4412L33.0175 92.0008ZM35.5551 91.2633L35.9737 92.7037L35.9986 92.6965L36.0231 92.6884L35.5551 91.2633ZM38.0712 90.4371L37.8796 88.9494L37.7385 88.9676L37.6033 89.0119L38.0712 90.4371ZM40.7055 90.0978L40.8972 91.5855L41.0663 91.5637L41.2263 91.5045L40.7055 90.0978ZM43.1982 89.1749L43.1081 87.6777L42.886 87.691L42.6774 87.7683L43.1982 89.1749ZM45.8757 89.0138L45.9659 90.5111L46.1613 90.4993L46.3471 90.4378L45.8757 89.0138ZM48.3903 88.1813L48.8617 89.6053L48.8841 89.5979L48.9062 89.5899L48.3903 88.1813ZM50.8852 87.2677L50.7921 85.7706L50.5743 85.7841L50.3694 85.8592L50.8852 87.2677ZM53.5615 87.1012L53.6546 88.5983L53.7755 88.5908L53.8937 88.5639L53.5615 87.1012ZM56.1362 86.5164L56.4684 87.9791L56.4909 87.974L56.5132 87.9682L56.1362 86.5164ZM58.6918 85.8528L59.0688 87.3046L59.1214 87.291L59.173 87.2735L58.6918 85.8528ZM60.7713 85.1485L61.2525 86.5692L62.5528 86.1288L62.229 84.7946L60.7713 85.1485ZM60.7675 85.1327L62.2252 84.7789L62.1351 84.4078L61.8786 84.125L60.7675 85.1327ZM111.479 85.196L112.07 83.8172L112.019 83.7951L111.966 83.777L111.479 85.196ZM109.07 84.3703L108.393 85.7087L108.485 85.7556L108.584 85.7893L109.07 84.3703ZM106.71 83.1759L107.387 81.8375L107.35 81.8188L107.312 81.8023L106.71 83.1759ZM104.292 82.1152L104.895 80.7416L104.819 80.7085L104.741 80.6839L104.292 82.1152ZM101.76 81.3209L101.091 82.6634L101.198 82.7165L101.311 82.7521L101.76 81.3209ZM99.3932 80.1416L100.062 78.799L100.015 78.7755L99.9662 78.7554L99.3932 80.1416ZM96.9532 79.1331L96.1762 80.4162L96.2743 80.4756L96.3803 80.5194L96.9532 79.1331ZM94.6728 77.7522L95.4498 76.4691L95.3248 76.3934L95.1876 76.3433L94.6728 77.7522ZM92.1895 76.8447L91.5039 78.1788L91.5869 78.2215L91.6746 78.2535L92.1895 76.8447ZM89.8356 75.635L90.5213 74.3009L90.4521 74.2654L90.3797 74.2372L89.8356 75.635ZM87.374 74.677L87.9181 73.2791L87.8705 73.2606L87.8218 73.2454L87.374 74.677ZM84.8413 73.8848L84.2363 75.2574L84.3133 75.2913L84.3936 75.3164L84.8413 73.8848ZM82.4255 72.8199L83.0306 71.4473L83.0104 71.4384L82.9901 71.4302L82.4255 72.8199ZM79.9792 71.826L79.3802 73.2013L79.3973 73.2087L79.4146 73.2157L79.9792 71.826ZM77.5588 70.7718L76.8947 72.1168L76.9269 72.1327L76.9598 72.1471L77.5588 70.7718ZM75.1881 69.6014L75.8522 68.2564L75.7562 68.209L75.6545 68.1757L75.1881 69.6014ZM72.6691 68.7773L73.1355 67.3516L72.7297 67.2189L72.3148 67.3197L72.6691 68.7773ZM71.1421 69.1485L70.7878 67.691L69.5333 67.9959L69.6481 69.2818L71.1421 69.1485ZM71.3778 71.7885L72.8759 71.8622L72.8811 71.7585L72.8718 71.6552L71.3778 71.7885ZM71.2479 74.4285L72.5851 75.1082L72.7303 74.8224L72.7461 74.5022L71.2479 74.4285ZM70.1837 76.5222L71.1761 77.6469L71.391 77.4573L71.5209 77.2019L70.1837 76.5222ZM68.204 78.2691L67.2115 77.1443L67.1631 77.1871L67.1186 77.2338L68.204 78.2691ZM66.377 80.1844L67.3564 81.3206L67.4119 81.2728L67.4625 81.2197L66.377 80.1844ZM64.3767 81.9086L65.3475 83.0522L65.356 83.0448L64.3767 81.9086ZM62.363 83.618L63.3068 84.784L63.3204 84.7729L63.3338 84.7616L62.363 83.618ZM60.6508 85.004L59.707 83.8381L58.4737 84.8363L59.5397 86.0117L60.6508 85.004ZM60.7675 85.2327H59.2675V85.2698L59.2693 85.307L60.7675 85.2327ZM60.8935 87.7727L62.3935 87.7744L62.3935 87.7363L62.3916 87.6984L60.8935 87.7727ZM60.8905 90.4127L59.3905 90.411L59.3905 90.4325L59.391 90.4541L60.8905 90.4127ZM60.9634 93.0527L62.4606 93.1433L62.4646 93.0774L62.4628 93.0113L60.9634 93.0527ZM60.8035 95.6927L62.2955 95.8475L62.2988 95.8155L62.3008 95.7833L60.8035 95.6927ZM60.5295 98.3327L59.0375 98.1778L59.0269 98.2795L59.0303 98.3817L60.5295 98.3327ZM60.6158 100.973L62.1153 101.009L62.1164 100.966L62.115 100.924L60.6158 100.973ZM60.5522 103.613L59.0526 103.577L59.0502 103.674L59.0604 103.77L60.5522 103.613ZM60.831 106.253L62.3306 106.219L62.3292 106.157L62.3227 106.095L60.831 106.253ZM60.8911 108.893L62.3761 109.104L62.3935 108.982L62.3907 108.859L60.8911 108.893ZM60.5152 111.533L59.0301 111.321L59.0041 111.504L59.0232 111.688L60.5152 111.533ZM60.79 114.173L62.2892 114.223L62.2926 114.12L62.282 114.017L60.79 114.173ZM105.919 114.845H107.419V114.745H105.919H104.419V114.845H105.919ZM105.919 114.745L107.417 114.68L107.308 112.14L105.81 112.205L104.311 112.269L104.42 114.809L105.919 114.745ZM105.81 112.205L107.301 112.362L107.579 109.722L106.087 109.565L104.596 109.407L104.318 112.047L105.81 112.205ZM106.087 109.565L107.58 109.42L107.324 106.78L105.831 106.925L104.338 107.07L104.594 109.71L106.087 109.565ZM105.831 106.925L107.33 106.864L107.223 104.224L105.725 104.285L104.226 104.345L104.332 106.985L105.831 106.925ZM105.725 104.285L107.22 104.401L107.425 101.761L105.93 101.645L104.434 101.528L104.229 104.168L105.725 104.285ZM105.93 101.645L107.43 101.65L107.439 99.0097L105.939 99.0045L104.439 98.9993L104.43 101.639L105.93 101.645ZM105.939 99.0045L106.865 100.185L108.705 98.7411L107.779 97.561L106.853 96.3809L105.013 97.8244L105.939 99.0045ZM107.779 97.561L108.421 98.9169L110.808 97.7872L110.166 96.4313L109.525 95.0755L107.137 96.2051L107.779 97.561ZM110.166 96.4313L110.684 97.8392L113.179 96.9216L112.661 95.5138L112.144 94.106L109.649 95.0235L110.166 96.4313ZM112.661 95.5138L113.542 96.7283L115.515 95.298L114.634 94.0836L113.754 92.8692L111.781 94.2994L112.661 95.5138ZM114.634 94.0836L116.132 94.1629L116.272 91.5229L114.774 91.4436L113.276 91.3643L113.136 94.0043L114.634 94.0836ZM114.774 91.4436L116.271 91.3457L116.098 88.7057L114.601 88.8036L113.104 88.9015L113.277 91.5415L114.774 91.4436ZM114.601 88.8036L116.098 88.7037L115.937 86.2863L114.44 86.3862L112.943 86.4861L113.105 88.9035L114.601 88.8036ZM114.44 86.3862L114.986 84.989L112.525 84.028L111.979 85.4252L111.434 86.8225L113.894 87.7834L114.44 86.3862ZM111.979 85.4252L112.612 84.0653L112.204 83.8754L111.571 85.2354L110.939 86.5953L111.347 86.7852L111.979 85.4252ZM111.571 85.2354L113.018 84.8383L112.991 84.7419L111.545 85.1389L110.098 85.5359L110.125 85.6324L111.571 85.2354ZM111.545 85.1389L113.043 85.2062L113.158 82.6627L111.659 82.5954L110.161 82.5281L110.046 85.0716L111.545 85.1389ZM111.659 82.5954L113.156 82.6901L113.323 80.0501L111.826 79.9554L110.329 79.8606L110.162 82.5006L111.659 82.5954ZM111.826 79.9554L113.318 79.7965L113.037 77.1565L111.545 77.3154L110.053 77.4742L110.335 80.1142L111.826 79.9554ZM111.545 77.3154L112.651 76.3024L111.182 74.6983L110.076 75.7113L108.97 76.7243L110.439 78.3284L111.545 77.3154ZM110.076 75.7113L110.82 74.4086L108.512 73.0913L107.769 74.394L107.025 75.6968L109.333 77.014L110.076 75.7113ZM107.769 74.394L108.242 72.9708L105.729 72.1341L105.255 73.5573L104.781 74.9805L107.295 75.8173L107.769 74.394ZM105.255 73.5573L105.78 72.1522L103.304 71.227L102.779 72.6321L102.254 74.0372L104.73 74.9624L105.255 73.5573ZM102.779 72.6321L103.524 71.3301L101.217 70.0104L100.473 71.3124L99.7276 72.6144L102.034 73.9341L102.779 72.6321ZM100.473 71.3124L100.869 69.8657L98.2984 69.1615L97.9021 70.6082L97.5057 72.0549L100.076 72.7591L100.473 71.3124ZM97.9021 70.6082L99.0637 69.6592L97.6371 67.9131L96.4755 68.8622L95.3139 69.8112L96.7405 71.5573L97.9021 70.6082ZM96.4755 68.8622L97.9725 68.768L97.8064 66.128L96.3094 66.2222L94.8123 66.3164L94.9785 68.9564L96.4755 68.8622ZM96.3094 66.2222L97.8068 66.3091L97.9602 63.6691L96.4627 63.5822L94.9652 63.4952L94.8119 66.1352L96.3094 66.2222ZM96.4627 63.5822L97.4462 62.4496L95.6233 60.8666L94.6398 61.9991L93.6563 63.1317L95.4792 64.7147L96.4627 63.5822ZM94.6398 61.9991L95.083 60.5661L92.55 59.7828L92.1068 61.2158L91.6637 62.6489L94.1967 63.4322L94.6398 61.9991ZM92.1068 61.2158L92.7422 59.8571L90.3484 58.7376L89.713 60.0963L89.0776 61.4551L91.4714 62.5746L92.1068 61.2158ZM89.713 60.0963L90.2701 58.7036L87.8188 57.723L87.2617 59.1157L86.7045 60.5084L89.1559 61.489L89.713 60.0963ZM87.2617 59.1157L87.8094 57.7193L85.3512 56.7552L84.8035 58.1516L84.2558 59.548L86.714 60.5121L87.2617 59.1157ZM84.8035 58.1516L85.2938 56.734L82.7944 55.8695L82.3041 57.2871L81.8138 58.7047L84.3132 59.5692L84.8035 58.1516ZM82.3041 57.2871L83.1134 56.0241L80.8552 54.577L80.0459 55.84L79.2366 57.1029L81.4948 58.55L82.3041 57.2871ZM80.0459 55.84L80.3674 54.3749L77.7481 53.8001L77.4266 55.2652L77.1051 56.7303L79.7244 57.3051L80.0459 55.84ZM77.4266 55.2652L78.098 53.9238L75.7311 52.7391L75.0597 54.0805L74.3884 55.4218L76.7552 56.6065L77.4266 55.2652ZM75.0597 54.0805L75.7427 52.745L73.3847 51.5391L72.7017 52.8746L72.0187 54.2101L74.3768 55.416L75.0597 54.0805ZM72.7017 52.8746L73.0807 51.4232L70.5021 50.7499L70.1231 52.2013L69.7442 53.6526L72.3227 54.3259L72.7017 52.8746ZM70.1231 52.2013L70.6892 50.8122L68.2444 49.8159L67.6783 51.205L67.1122 52.594L69.5571 53.5904L70.1231 52.2013ZM67.6783 51.205L68.3304 49.8541L65.949 48.7046L65.2969 50.0555L64.6449 51.4063L67.0263 52.5558L67.6783 51.205ZM65.2969 50.0555L65.8166 48.6484L63.3382 47.7331L62.8185 49.1402L62.2989 50.5473L64.7773 51.4626L65.2969 50.0555ZM62.8185 49.1402L63.4229 47.7673L61.0061 46.7034L60.4017 48.0763L59.7973 49.4491L62.2142 50.5131L62.8185 49.1402ZM60.4017 48.0763L60.9274 46.6714L58.4533 45.7457L57.9277 47.1506L57.402 48.5554L59.8761 49.4811L60.4017 48.0763ZM57.9277 47.1506L58.6226 45.8212L56.2736 44.5933L55.5787 45.9227L54.8838 47.252L57.2328 48.4799L57.9277 47.1506ZM55.5787 45.9227L55.9916 44.4806L53.4371 43.7492L53.0242 45.1913L52.6113 46.6333L55.1658 47.3647L55.5787 45.9227ZM53.0242 45.1913L53.77 43.8898L51.4606 42.5664L50.7148 43.8678L49.969 45.1693L52.2784 46.4927L53.0242 45.1913ZM50.7148 43.8678L51.2037 42.4498L48.7142 41.5915L48.2253 43.0095L47.7364 44.4276L50.2259 45.2859L50.7148 43.8678ZM48.2253 43.0095L47.818 41.5659L45.2772 42.2829L45.6845 43.7265L46.0919 45.1701L48.6327 44.4532L48.2253 43.0095ZM45.6845 43.7265L45.1325 42.3318L42.6657 43.3081L43.2178 44.7029L43.7699 46.0976L46.2366 45.1212L45.6845 43.7265ZM43.2178 44.7029L43.0712 43.21L40.4006 43.4722L40.5471 44.9651L40.6937 46.4579L43.3644 46.1957L43.2178 44.7029ZM40.5471 44.9651L40.0672 43.5439L37.5632 44.3896L38.0431 45.8107L38.5231 47.2319L41.0271 46.3862L40.5471 44.9651ZM38.0431 45.8107L37.6226 44.3709L35.0884 45.1109L35.5089 46.5508L35.9294 47.9906L38.4636 47.2506L38.0431 45.8107ZM35.5089 46.5508L34.9307 45.1667L32.4778 46.1914L33.056 47.5755L33.6342 48.9596L36.0871 47.9348L35.5089 46.5508ZM33.056 47.5755L32.7956 46.0983L30.1816 46.5591L30.4421 48.0364L30.7025 49.5136L33.3164 49.0527L33.056 47.5755ZM30.4421 48.0364L29.9329 46.6254L27.4438 47.5237L27.9531 48.9346L28.4623 50.3456L30.9513 49.4473L30.4421 48.0364ZM27.9531 48.9346L26.5235 48.4803L25.871 50.5336L27.3005 50.9879L28.7301 51.4422L29.3826 49.389L27.9531 48.9346ZM27.3005 50.9879L25.8062 50.8582L25.5771 53.4982L27.0715 53.6279L28.5659 53.7575L28.7949 51.1175L27.3005 50.9879ZM27.0715 53.6279L25.5724 53.6796L25.6635 56.3196L27.1626 56.2679L28.6617 56.2161L28.5706 53.5761L27.0715 53.6279ZM27.1626 56.2679L25.6703 56.4195L25.9385 59.0595L27.4308 58.9079L28.9231 58.7562L28.6549 56.1162L27.1626 56.2679ZM27.4308 58.9079L25.9374 58.7674L25.689 61.4074L27.1824 61.5479L28.6758 61.6884L28.9242 59.0484L27.4308 58.9079ZM27.1824 61.5479L25.6977 61.7616L26.0289 64.0615L27.5136 63.8477L28.9983 63.634L28.6671 61.3341L27.1824 61.5479ZM27.5136 63.8477L28.024 65.2582L30.5124 64.3576L30.0019 62.9471L29.4915 61.5367L27.0031 62.4372L27.5136 63.8477ZM30.0019 62.9471L30.4233 64.3867L32.9571 63.6451L32.5357 62.2055L32.1143 60.7659L29.5805 61.5075L30.0019 62.9471ZM32.5357 62.2055L32.9614 63.6438L35.4929 62.8945L35.0672 61.4562L34.6415 60.0179L32.11 60.7672L32.5357 62.2055ZM35.0672 61.4562L35.474 62.9L38.0151 62.1841L37.6083 60.7403L37.2016 59.2965L34.6605 60.0124L35.0672 61.4562ZM37.6083 60.7403L37.746 62.234L40.4211 61.9875L40.2835 60.4938L40.1458 59.0001L37.4707 59.2467L37.6083 60.7403ZM40.2835 60.4938L40.8127 61.8973L43.2913 60.9627L42.7621 59.5592L42.2329 58.1557L39.7542 59.0903L40.2835 60.4938ZM42.7621 59.5592L43.2108 60.9905L45.7308 60.2006L45.2821 58.7692L44.8334 57.3379L42.3134 58.1279L42.7621 59.5592ZM45.2821 58.7692L45.6848 60.2142L48.2279 59.5053L47.8252 58.0604L47.4225 56.6155L44.8793 57.3243L45.2821 58.7692ZM47.8252 58.0604L48.3225 59.4756L50.8176 58.5988L50.3203 57.1836L49.823 55.7684L47.3279 56.6453L47.8252 58.0604ZM50.3203 57.1836L50.5579 58.6647L53.1832 58.2436L52.9456 56.7625L52.7081 55.2814L50.0827 55.7025L50.3203 57.1836ZM52.9456 56.7625L53.5055 58.1541L55.968 57.1634L55.4082 55.7718L54.8483 54.3802L52.3858 55.3709L52.9456 56.7625ZM55.4082 55.7718L55.7814 57.2246L58.3393 56.5676L57.9661 55.1147L57.5929 53.6619L55.035 54.3189L55.4082 55.7718ZM57.9661 55.1147L58.3285 56.5703L60.8918 55.9321L60.5294 54.4766L60.1671 53.021L57.6037 53.6591L57.9661 55.1147ZM60.5294 54.4766L59.0435 54.6815L59.3575 56.9584L60.8435 56.7535L62.3294 56.5486L62.0154 54.2716L60.5294 54.4766ZM60.8435 56.7535L59.3535 56.5807L59.0473 59.2207L60.5373 59.3935L62.0273 59.5663L62.3335 56.9263L60.8435 56.7535ZM60.5373 59.3935L59.0421 59.5136L59.2542 62.1536L60.7494 62.0335L62.2446 61.9134L62.0325 59.2734L60.5373 59.3935ZM60.7494 62.0335L59.2501 61.9894L59.1723 64.6294L60.6717 64.6735L62.171 64.7176L62.2488 62.0776L60.7494 62.0335ZM60.6717 64.6735L59.1724 64.6268L59.0902 67.2668L60.5895 67.3135L62.0888 67.3602L62.171 64.7202L60.6717 64.6735ZM60.5895 67.3135L59.0913 67.3863L59.2196 70.0263L60.7178 69.9535L62.2161 69.8807L62.0877 67.2407L60.5895 67.3135ZM60.7178 69.9535L59.6417 68.9086L58.1887 70.4049L59.2649 71.4499L60.3411 72.4948L61.794 70.9984L60.7178 69.9535ZM59.2649 71.4499L58.9429 69.9848L56.3595 70.5527L56.6815 72.0177L57.0035 73.4827L59.5869 72.9149L59.2649 71.4499ZM56.6815 72.0177L56.0914 70.6386L53.6449 71.6855L54.2349 73.0646L54.825 74.4436L57.2716 73.3968L56.6815 72.0177ZM54.2349 73.0646L53.783 71.6343L51.2647 72.4301L51.7166 73.8604L52.1686 75.2906L54.6869 74.4948L54.2349 73.0646ZM51.7166 73.8604L51.5162 72.3738L48.8725 72.7303L49.0729 74.2168L49.2734 75.7034L51.9171 75.3469L51.7166 73.8604ZM49.0729 74.2168L48.5708 72.8034L46.0781 73.689L46.5803 75.1024L47.0825 76.5159L49.5751 75.6303L49.0729 74.2168ZM46.5803 75.1024L46.0822 73.6875L43.5875 74.5657L44.0855 75.9806L44.5836 77.3955L47.0783 76.5173L46.5803 75.1024ZM44.0855 75.9806L43.6695 74.5394L41.1331 75.2716L41.5491 76.7128L41.9651 78.1539L44.5015 77.4217L44.0855 75.9806ZM41.5491 76.7128L41.1864 75.2573L38.6232 75.896L38.9859 77.3515L39.3486 78.807L41.9117 78.1683L41.5491 76.7128ZM38.9859 77.3515L38.6493 75.8897L36.0732 76.483L36.4098 77.9448L36.7465 79.4065L39.3226 78.8132L38.9859 77.3515ZM36.4098 77.9448L36.0637 76.4852L33.4923 77.095L33.8384 78.5546L34.1846 80.0141L36.7559 79.4043L36.4098 77.9448ZM33.8384 78.5546L33.3312 77.1429L30.8412 78.0376L31.3484 79.4492L31.8556 80.8609L34.3456 79.9662L33.8384 78.5546ZM31.3484 79.4492L31.0132 77.9871L28.4364 78.5779L28.7715 80.04L29.1067 81.502L31.6836 80.9113L31.3484 79.4492ZM28.7715 80.04L28.2155 78.6468L25.7509 79.6305L26.3069 81.0236L26.8629 82.4168L29.3276 81.4331L28.7715 80.04ZM26.3069 81.0236L25.8553 79.5932L23.3368 80.3883L23.7884 81.8187L24.24 83.2491L26.7585 82.454L26.3069 81.0236ZM23.7884 81.8187L23.643 80.3258L20.9718 80.5858L21.1172 82.0788L21.2625 83.5717L23.9338 83.3116L23.7884 81.8187ZM21.1172 82.0788L20.6926 80.6401L18.1605 81.3873L18.585 82.826L19.0095 84.2646L21.5417 83.5175L21.1172 82.0788ZM18.585 82.826L18.1125 81.4023L15.6047 82.2346L16.0771 83.6583L16.5496 85.0819L19.0575 84.2496L18.585 82.826ZM16.0771 83.6583L15.5632 82.2491L13.0766 83.156L13.5906 84.5652L14.1046 85.9744L16.5911 85.0675L16.0771 83.6583ZM13.5906 84.5652L13.264 83.1012L10.6829 83.677L11.0095 85.141L11.3361 86.605L13.9172 86.0292L13.5906 84.5652ZM11.0095 85.141L10.4178 83.7626L7.97215 84.8124L8.56379 86.1907L9.15543 87.5691L11.6011 86.5194L11.0095 85.141ZM8.56379 86.1907L8.18222 84.7401L5.75576 85.3783L6.13733 86.829L6.51891 88.2796L8.94537 87.6414L8.56379 86.1907ZM6.13733 86.829L4.64481 86.9786L4.90936 89.6186L6.40188 89.469L7.89441 89.3194L7.62986 86.6794L6.13733 86.829ZM6.40188 89.469L4.90844 89.3289L4.66082 91.9689L6.15426 92.109L7.64771 92.2491L7.89533 89.6091L6.40188 89.469ZM6.15426 92.109L4.66045 92.2451L4.90094 94.8851L6.39476 94.749L7.88857 94.6129L7.64808 91.9729L6.15426 92.109ZM6.39476 94.749L4.90572 94.568L4.58476 97.208L6.0738 97.389L7.56284 97.57L7.88379 94.93L6.39476 94.749ZM6.0738 97.389L5.30377 98.6763L6.5685 99.4328L7.33853 98.1455L8.10856 96.8583L6.84383 96.1017L6.0738 97.389ZM7.33853 98.1455L7.49517 99.6373L10.1607 99.3574L10.0041 97.8657L9.84743 96.3739L7.18189 96.6537L7.33853 98.1455ZM10.0041 97.8657L10.4465 99.2989L12.9696 98.5202L12.5272 97.0869L12.0848 95.6536L9.56169 96.4324L10.0041 97.8657ZM12.5272 97.0869L13.0502 98.4928L15.5341 97.5688L15.0111 96.1629L14.4882 94.757L12.0043 95.681L12.5272 97.0869ZM15.0111 96.1629L15.1925 97.6519L17.8312 97.3305L17.6498 95.8415L17.4684 94.3525L14.8298 94.6739L15.0111 96.1629ZM17.6498 95.8415L18.0156 97.2962L20.576 96.6524L20.2102 95.1977L19.8444 93.7429L17.284 94.3868L17.6498 95.8415ZM20.2102 95.1977L20.6839 96.6209L23.1974 95.7843L22.7238 94.3611L22.2501 92.9378L19.7365 93.7744L20.2102 95.1977ZM22.7238 94.3611L22.9493 95.844L25.5693 95.4455L25.3437 93.9625L25.1181 92.4796L22.4982 92.8781L22.7238 94.3611ZM25.3437 93.9625L25.8561 95.3723L28.3525 94.4649L27.8401 93.0551L27.3277 91.6454L24.8313 92.5528L25.3437 93.9625ZM27.8401 93.0551L28.1551 94.5217L30.7372 93.967L30.4221 92.5005L30.1071 91.0339L27.5251 91.5886L27.8401 93.0551ZM30.4221 92.5005L30.7057 93.9734L33.3011 93.4738L33.0175 92.0008L32.7339 90.5279L30.1385 91.0275L30.4221 92.5005ZM33.0175 92.0008L33.4361 93.4412L35.9737 92.7037L35.5551 91.2633L35.1365 89.8229L32.5989 90.5604L33.0175 92.0008ZM35.5551 91.2633L36.0231 92.6884L38.5392 91.8622L38.0712 90.4371L37.6033 89.0119L35.0872 89.8382L35.5551 91.2633ZM38.0712 90.4371L38.2629 91.9248L40.8972 91.5855L40.7055 90.0978L40.5139 88.6101L37.8796 88.9494L38.0712 90.4371ZM40.7055 90.0978L41.2263 91.5045L43.719 90.5816L43.1982 89.1749L42.6774 87.7683L40.1848 88.6911L40.7055 90.0978ZM43.1982 89.1749L43.2883 90.6722L45.9659 90.5111L45.8757 89.0138L45.7856 87.5165L43.1081 87.6777L43.1982 89.1749ZM45.8757 89.0138L46.3471 90.4378L48.8617 89.6053L48.3903 88.1813L47.9189 86.7573L45.4043 87.5898L45.8757 89.0138ZM48.3903 88.1813L48.9062 89.5899L51.401 88.6762L50.8852 87.2677L50.3694 85.8592L47.8745 86.7728L48.3903 88.1813ZM50.8852 87.2677L50.9784 88.7648L53.6546 88.5983L53.5615 87.1012L53.4683 85.6041L50.7921 85.7706L50.8852 87.2677ZM53.5615 87.1012L53.8937 88.5639L56.4684 87.9791L56.1362 86.5164L55.8039 85.0536L53.2292 85.6384L53.5615 87.1012ZM56.1362 86.5164L56.5132 87.9682L59.0688 87.3046L58.6918 85.8528L58.3148 84.4009L55.7592 85.0645L56.1362 86.5164ZM58.6918 85.8528L59.173 87.2735L61.2525 86.5692L60.7713 85.1485L60.2901 83.7277L58.2106 84.4321L58.6918 85.8528ZM60.7713 85.1485L62.229 84.7946L62.2252 84.7789L60.7675 85.1327L59.3098 85.4865L59.3136 85.5023L60.7713 85.1485ZM111.571 85.2354L112.162 83.8566L112.07 83.8172L111.479 85.196L110.889 86.5748L110.981 86.6142L111.571 85.2354ZM111.479 85.196L111.966 83.777L109.556 82.9513L109.07 84.3703L108.584 85.7893L110.993 86.615L111.479 85.196ZM109.07 84.3703L109.747 83.0319L107.387 81.8375L106.71 83.1759L106.032 84.5143L108.393 85.7087L109.07 84.3703ZM106.71 83.1759L107.312 81.8023L104.895 80.7416L104.292 82.1152L103.689 83.4888L106.107 84.5495L106.71 83.1759ZM104.292 82.1152L104.741 80.6839L102.209 79.8896L101.76 81.3209L101.311 82.7521L103.843 83.5464L104.292 82.1152ZM101.76 81.3209L102.429 79.9783L100.062 78.799L99.3932 80.1416L98.7243 81.4842L101.091 82.6634L101.76 81.3209ZM99.3932 80.1416L99.9662 78.7554L97.5262 77.7469L96.9532 79.1331L96.3803 80.5194L98.8203 81.5279L99.3932 80.1416ZM96.9532 79.1331L97.7302 77.8501L95.4498 76.4691L94.6728 77.7522L93.8958 79.0352L96.1762 80.4162L96.9532 79.1331ZM94.6728 77.7522L95.1876 76.3433L92.7043 75.4358L92.1895 76.8447L91.6746 78.2535L94.1579 79.161L94.6728 77.7522ZM92.1895 76.8447L92.8751 75.5105L90.5213 74.3009L89.8356 75.635L89.15 76.9692L91.5039 78.1788L92.1895 76.8447ZM89.8356 75.635L90.3797 74.2372L87.9181 73.2791L87.374 74.677L86.83 76.0748L89.2916 77.0329L89.8356 75.635ZM87.374 74.677L87.8218 73.2454L85.2891 72.4532L84.8413 73.8848L84.3936 75.3164L86.9262 76.1086L87.374 74.677ZM84.8413 73.8848L85.4464 72.5123L83.0306 71.4473L82.4255 72.8199L81.8204 74.1924L84.2363 75.2574L84.8413 73.8848ZM82.4255 72.8199L82.9901 71.4302L80.5438 70.4363L79.9792 71.826L79.4146 73.2157L81.8609 74.2096L82.4255 72.8199ZM79.9792 71.826L80.5782 70.4508L78.1577 69.3966L77.5588 70.7718L76.9598 72.1471L79.3802 73.2013L79.9792 71.826ZM77.5588 70.7718L78.2228 69.4268L75.8522 68.2564L75.1881 69.6014L74.5241 70.9464L76.8947 72.1168L77.5588 70.7718ZM75.1881 69.6014L75.6545 68.1757L73.1355 67.3516L72.6691 68.7773L72.2027 70.2029L74.7217 71.027L75.1881 69.6014ZM72.6691 68.7773L72.3148 67.3197L70.7878 67.691L71.1421 69.1485L71.4965 70.6061L73.0234 70.2348L72.6691 68.7773ZM71.1421 69.1485L69.6481 69.2818L69.8837 71.9218L71.3778 71.7885L72.8718 71.6552L72.6362 69.0152L71.1421 69.1485ZM71.3778 71.7885L69.8796 71.7148L69.7497 74.3548L71.2479 74.4285L72.7461 74.5022L72.8759 71.8622L71.3778 71.7885ZM71.2479 74.4285L69.9107 73.7488L68.8465 75.8425L70.1837 76.5222L71.5209 77.2019L72.5851 75.1082L71.2479 74.4285ZM70.1837 76.5222L69.1912 75.3975L67.2115 77.1443L68.204 78.2691L69.1964 79.3938L71.1761 77.6469L70.1837 76.5222ZM68.204 78.2691L67.1186 77.2338L65.2916 79.1491L66.377 80.1844L67.4625 81.2197L69.2894 79.3044L68.204 78.2691ZM66.377 80.1844L65.3977 79.0482L63.3974 80.7724L64.3767 81.9086L65.356 83.0448L67.3564 81.3206L66.377 80.1844ZM64.3767 81.9086L63.406 80.7651L61.3923 82.4745L62.363 83.618L63.3338 84.7616L65.3475 83.0521L64.3767 81.9086ZM62.363 83.618L61.4193 82.4521L59.707 83.8381L60.6508 85.004L61.5945 86.1699L63.3068 84.784L62.363 83.618ZM60.6508 85.004L59.5397 86.0117L59.6564 86.1403L60.7675 85.1327L61.8786 84.125L61.7619 83.9963L60.6508 85.004ZM60.7675 85.1327H59.2675V85.2327H60.7675H62.2675V85.1327H60.7675ZM60.7675 85.2327L59.2693 85.307L59.3953 87.847L60.8935 87.7727L62.3916 87.6984L62.2656 85.1584L60.7675 85.2327ZM60.8935 87.7727L59.3935 87.771L59.3905 90.411L60.8905 90.4127L62.3905 90.4144L62.3935 87.7744L60.8935 87.7727ZM60.8905 90.4127L59.391 90.4541L59.4639 93.0941L60.9634 93.0527L62.4628 93.0113L62.3899 90.3713L60.8905 90.4127ZM60.9634 93.0527L59.4661 92.962L59.3063 95.602L60.8035 95.6927L62.3008 95.7833L62.4606 93.1433L60.9634 93.0527ZM60.8035 95.6927L59.3115 95.5378L59.0375 98.1778L60.5295 98.3327L62.0214 98.4875L62.2955 95.8475L60.8035 95.6927ZM60.5295 98.3327L59.0303 98.3817L59.1166 101.022L60.6158 100.973L62.115 100.924L62.0287 98.2836L60.5295 98.3327ZM60.6158 100.973L59.1162 100.937L59.0526 103.577L60.5522 103.613L62.0517 103.649L62.1153 101.009L60.6158 100.973ZM60.5522 103.613L59.0604 103.77L59.3393 106.41L60.831 106.253L62.3227 106.095L62.0439 103.455L60.5522 103.613ZM60.831 106.253L59.3314 106.287L59.3915 108.927L60.8911 108.893L62.3907 108.859L62.3306 106.219L60.831 106.253ZM60.8911 108.893L59.4061 108.681L59.0301 111.321L60.5152 111.533L62.0002 111.744L62.3761 109.104L60.8911 108.893ZM60.5152 111.533L59.0232 111.688L59.2981 114.328L60.79 114.173L62.282 114.017L62.0071 111.377L60.5152 111.533ZM60.79 114.173L59.2909 114.122L59.2683 114.794L60.7675 114.845L62.2666 114.895L62.2892 114.223L60.79 114.173Z" fill="black"/>
<path d="M46 114.745H47.5V114.713L47.4986 114.68L46 114.745ZM45.8907 112.205L44.3989 112.048L44.3873 112.158L44.3921 112.269L45.8907 112.205ZM46.1686 109.565L47.6603 109.722L47.6762 109.571L47.6615 109.42L46.1686 109.565ZM45.9122 106.925L44.4134 106.985L44.4151 107.028L44.4192 107.07L45.9122 106.925ZM45.8058 104.285L44.3103 104.168L44.3034 104.257L44.307 104.345L45.8058 104.285ZM46.0111 101.645L47.5065 101.761L47.56 101.074L47.0737 100.586L46.0111 101.645ZM44.8095 100.439L45.8721 99.3801L45.2512 98.757L44.4043 98.9946L44.8095 100.439ZM42.2611 101.154L42.5202 102.631L42.594 102.618L42.6662 102.598L42.2611 101.154ZM39.6597 101.61L39.7856 103.105L39.8526 103.099L39.9189 103.087L39.6597 101.61ZM37.0107 101.833L36.8848 100.338L36.6737 100.356L36.4757 100.432L37.0107 101.833ZM34.5112 102.787L34.7338 104.271L34.8944 104.247L35.0462 104.189L34.5112 102.787ZM31.8968 103.18L31.6742 101.696L31.5865 101.709L31.5009 101.733L31.8968 103.18ZM29.345 103.878L29.4654 105.373L29.6054 105.362L29.7409 105.325L29.345 103.878ZM26.694 104.091L26.5735 102.596L26.458 102.606L26.3453 102.632L26.694 104.091ZM24.1249 104.705L23.7762 103.247L22.6371 103.519L22.625 104.69L24.1249 104.705ZM24.0987 107.232L22.5988 107.217L22.5982 107.271L22.6016 107.325L24.0987 107.232ZM24.2627 109.872L25.7397 110.134L25.7709 109.958L25.7598 109.779L24.2627 109.872ZM23.7958 112.512L22.3187 112.251L22.2697 112.528L22.3245 112.805L23.7958 112.512ZM24.2592 114.845V116.345H26.0866L25.7304 114.552L24.2592 114.845ZM46 114.845H47.5V114.745H46H44.5V114.845H46ZM46 114.745L47.4986 114.68L47.3893 112.14L45.8907 112.205L44.3921 112.269L44.5014 114.809L46 114.745ZM45.8907 112.205L47.3824 112.362L47.6603 109.722L46.1686 109.565L44.6768 109.408L44.3989 112.048L45.8907 112.205ZM46.1686 109.565L47.6615 109.42L47.4052 106.78L45.9122 106.925L44.4192 107.07L44.6756 109.71L46.1686 109.565ZM45.9122 106.925L47.411 106.864L47.3046 104.224L45.8058 104.285L44.307 104.345L44.4134 106.985L45.9122 106.925ZM45.8058 104.285L47.3013 104.401L47.5065 101.761L46.0111 101.645L44.5156 101.528L44.3103 104.168L45.8058 104.285ZM46.0111 101.645L47.0737 100.586L45.8721 99.3801L44.8095 100.439L43.7469 101.498L44.9485 102.703L46.0111 101.645ZM44.8095 100.439L44.4043 98.9946L41.8559 99.7095L42.2611 101.154L42.6662 102.598L45.2146 101.883L44.8095 100.439ZM42.2611 101.154L42.0019 99.6763L39.4006 100.133L39.6597 101.61L39.9189 103.087L42.5202 102.631L42.2611 101.154ZM39.6597 101.61L39.5338 100.115L36.8848 100.338L37.0107 101.833L37.1366 103.328L39.7856 103.105L39.6597 101.61ZM37.0107 101.833L36.4757 100.432L33.9763 101.386L34.5112 102.787L35.0462 104.189L37.5457 103.234L37.0107 101.833ZM34.5112 102.787L34.2887 101.304L31.6742 101.696L31.8968 103.18L32.1193 104.663L34.7338 104.271L34.5112 102.787ZM31.8968 103.18L31.5009 101.733L28.949 102.431L29.345 103.878L29.7409 105.325L32.2927 104.626L31.8968 103.18ZM29.345 103.878L29.2245 102.383L26.5735 102.596L26.694 104.091L26.8144 105.587L29.4654 105.373L29.345 103.878ZM26.694 104.091L26.3453 102.632L23.7762 103.247L24.1249 104.705L24.4736 106.164L27.0427 105.55L26.694 104.091ZM24.1249 104.705L22.625 104.69L22.5988 107.217L24.0987 107.232L25.5986 107.248L25.6248 104.721L24.1249 104.705ZM24.0987 107.232L22.6016 107.325L22.7656 109.965L24.2627 109.872L25.7598 109.779L25.5958 107.139L24.0987 107.232ZM24.2627 109.872L22.7856 109.611L22.3187 112.251L23.7958 112.512L25.2729 112.774L25.7397 110.134L24.2627 109.872ZM23.7958 112.512L22.3245 112.805L22.788 115.137L24.2592 114.845L25.7304 114.552L25.267 112.22L23.7958 112.512ZM24.2592 114.845V113.345H24V114.845V116.345H24.2592V114.845Z" fill="black"/>
<path d="M95.9833 114.746L94.4843 114.801L94.4879 114.9L94.5044 114.997L95.9833 114.746ZM95.8907 112.205L94.3989 112.048L94.3878 112.153L94.3917 112.26L95.8907 112.205ZM96.1686 109.565L97.6603 109.722L97.6762 109.571L97.6615 109.42L96.1686 109.565ZM95.9122 106.925L97.4052 106.78L97.3994 106.721L97.3889 106.662L95.9122 106.925ZM95.5313 104.787L97.008 104.524L96.8569 103.676L96.0482 103.379L95.5313 104.787ZM93.0455 103.875L93.5625 102.466L93.5102 102.447L93.4567 102.432L93.0455 103.875ZM90.5067 103.151L90.9179 101.708L90.8636 101.693L90.8084 101.681L90.5067 103.151ZM87.914 102.618L87.4672 104.05L87.5388 104.073L87.6122 104.088L87.914 102.618ZM85.3928 101.832L84.8197 103.218L84.8818 103.244L84.946 103.264L85.3928 101.832ZM82.936 100.816L83.5091 99.4299L83.3133 99.3489L83.1027 99.3254L82.936 100.816ZM80.2772 100.519L79.7952 101.939L79.949 101.991L80.1105 102.009L80.2772 100.519ZM77.7737 99.6692L78.2557 98.2487L78.1717 98.2202L78.0848 98.2018L77.7737 99.6692ZM75.1856 99.1205L74.6075 100.505L74.7371 100.559L74.8745 100.588L75.1856 99.1205ZM72.7315 98.0954L73.3097 96.7113L71.9109 96.127L71.3414 97.5318L72.7315 98.0954ZM72.0137 99.8659L70.6236 99.3024L70.5042 99.5967L70.5144 99.9142L72.0137 99.8659ZM72.0987 102.506L70.5995 102.554L70.6002 102.577L70.6016 102.599L72.0987 102.506ZM72.2627 105.146L73.7397 105.407L73.7709 105.231L73.7598 105.053L72.2627 105.146ZM71.7958 107.786L70.3187 107.525L70.2727 107.785L70.3184 108.045L71.7958 107.786ZM72.2592 110.426L73.7526 110.567L73.7715 110.366L73.7366 110.167L72.2592 110.426ZM72.0103 113.066L70.5169 112.925L70.5047 113.055L70.5151 113.186L72.0103 113.066ZM72.1529 114.845V116.345H73.778L73.6481 114.725L72.1529 114.845ZM96 114.845L97.4789 114.594L97.4622 114.496L95.9833 114.746L94.5044 114.997L94.5211 115.096L96 114.845ZM95.9833 114.746L97.4823 114.692L97.3897 112.15L95.8907 112.205L94.3917 112.26L94.4843 114.801L95.9833 114.746ZM95.8907 112.205L97.3824 112.362L97.6603 109.722L96.1686 109.565L94.6768 109.408L94.3989 112.048L95.8907 112.205ZM96.1686 109.565L97.6615 109.42L97.4052 106.78L95.9122 106.925L94.4192 107.07L94.6756 109.71L96.1686 109.565ZM95.9122 106.925L97.3889 106.662L97.008 104.524L95.5313 104.787L94.0546 105.05L94.4354 107.188L95.9122 106.925ZM95.5313 104.787L96.0482 103.379L93.5625 102.466L93.0455 103.875L92.5286 105.283L95.0144 106.195L95.5313 104.787ZM93.0455 103.875L93.4567 102.432L90.9179 101.708L90.5067 103.151L90.0955 104.593L92.6343 105.317L93.0455 103.875ZM90.5067 103.151L90.8084 101.681L88.2157 101.149L87.914 102.618L87.6122 104.088L90.2049 104.62L90.5067 103.151ZM87.914 102.618L88.3607 101.186L85.8395 100.4L85.3928 101.832L84.946 103.264L87.4672 104.05L87.914 102.618ZM85.3928 101.832L85.9659 100.446L83.5091 99.4299L82.936 100.816L82.363 102.202L84.8197 103.218L85.3928 101.832ZM82.936 100.816L83.1027 99.3254L80.4439 99.028L80.2772 100.519L80.1105 102.009L82.7693 102.307L82.936 100.816ZM80.2772 100.519L80.7592 99.0983L78.2557 98.2487L77.7737 99.6692L77.2917 101.09L79.7952 101.939L80.2772 100.519ZM77.7737 99.6692L78.0848 98.2018L75.4967 97.6531L75.1856 99.1205L74.8745 100.588L77.4626 101.137L77.7737 99.6692ZM75.1856 99.1205L75.7638 97.7363L73.3097 96.7113L72.7315 98.0954L72.1534 99.4795L74.6075 100.505L75.1856 99.1205ZM72.7315 98.0954L71.3414 97.5318L70.6236 99.3024L72.0137 99.8659L73.4038 100.43L74.1216 98.6589L72.7315 98.0954ZM72.0137 99.8659L70.5144 99.9142L70.5995 102.554L72.0987 102.506L73.5979 102.458L73.5129 99.8176L72.0137 99.8659ZM72.0987 102.506L70.6016 102.599L70.7656 105.239L72.2627 105.146L73.7598 105.053L73.5958 102.413L72.0987 102.506ZM72.2627 105.146L70.7856 104.885L70.3187 107.525L71.7958 107.786L73.2729 108.047L73.7397 105.407L72.2627 105.146ZM71.7958 107.786L70.3184 108.045L70.7818 110.685L72.2592 110.426L73.7366 110.167L73.2732 107.527L71.7958 107.786ZM72.2592 110.426L70.7658 110.285L70.5169 112.925L72.0103 113.066L73.5037 113.207L73.7526 110.567L72.2592 110.426ZM72.0103 113.066L70.5151 113.186L70.6577 114.965L72.1529 114.845L73.6481 114.725L73.5055 112.946L72.0103 113.066ZM72.1529 114.845V113.345H72V114.845V116.345H72.1529V114.845Z" fill="black"/>
<path d="M8.1 116V117.5H8.13227L8.16451 117.499L8.1 116ZM10.64 115.891L10.797 114.399L10.6865 114.387L10.5755 114.392L10.64 115.891ZM13.28 116.169L13.123 117.66L13.2739 117.676L13.425 117.662L13.28 116.169ZM15.92 115.912L15.8596 114.413L15.8172 114.415L15.775 114.419L15.92 115.912ZM18.56 115.806L18.6763 114.31L18.588 114.303L18.4996 114.307L18.56 115.806ZM21.2 116.011L21.0837 117.507L21.1392 117.511L21.1948 117.511L21.2 116.011ZM23.84 116.02L23.8348 117.52L23.8912 117.52L23.9474 117.516L23.84 116.02ZM26.48 115.831L26.5223 114.331L26.4473 114.329L26.3726 114.334L26.48 115.831ZM29.12 115.905L29.2963 114.415L29.2295 114.408L29.1623 114.406L29.12 115.905ZM31.76 116.217L31.5837 117.707L31.7941 117.732L32.0032 117.698L31.76 116.217ZM34.4 115.784L34.4793 114.286L34.3171 114.277L34.1568 114.303L34.4 115.784ZM37.04 115.923L36.9607 117.421L37.0493 117.426L37.1379 117.42L37.04 115.923ZM39.68 115.751L39.8617 114.262L39.7223 114.245L39.5821 114.254L39.68 115.751ZM42.32 116.073L42.1383 117.562L42.2533 117.576L42.3692 117.572L42.32 116.073ZM44.96 115.986L44.9117 114.487L44.9108 114.487L44.96 115.986ZM47.6 115.901L47.6483 117.401L47.6707 117.4L47.693 117.398L47.6 115.901ZM50.24 115.737L50.5012 114.26L50.3253 114.229L50.147 114.24L50.24 115.737ZM52.88 116.204L52.6188 117.681L52.879 117.727L53.1393 117.682L52.88 116.204ZM55.52 115.741L55.6608 114.247L55.4596 114.228L55.2606 114.263L55.52 115.741ZM58.16 115.99L58.0192 117.483L58.1299 117.493L58.2409 117.487L58.16 115.99ZM60.8 115.847L61.0126 114.362L60.8665 114.341L60.7191 114.349L60.8 115.847ZM63.44 116.225L63.2274 117.71L63.4714 117.745L63.7137 117.7L63.44 116.225ZM66.08 115.735L66.1582 114.237L65.9809 114.228L65.8063 114.26L66.08 115.735ZM68.72 115.873L68.6418 117.371L68.6647 117.372L68.6878 117.373L68.72 115.873ZM71.36 115.93L71.3278 117.429L71.3564 117.43L71.3849 117.429L71.36 115.93ZM74 115.886L74.185 114.397L74.0804 114.384L73.975 114.386L74 115.886ZM76.64 116.214L76.455 117.702L76.6155 117.722L76.7765 117.708L76.64 116.214ZM79.28 115.973L79.2685 114.473L79.2059 114.473L79.1435 114.479L79.28 115.973ZM81.92 115.952L82.0888 114.462L81.9989 114.452L81.9085 114.452L81.92 115.952ZM84.56 116.251L84.3912 117.742L84.5876 117.764L84.783 117.735L84.56 116.251ZM87.2 115.854L87.2734 114.356L87.1245 114.349L86.977 114.371L87.2 115.854ZM89.84 115.984L89.9255 114.486L89.9134 114.486L89.84 115.984ZM92.48 116.135L92.3945 117.632L92.4978 117.638L92.6008 117.63L92.48 116.135ZM95.12 115.921L95.1099 114.421L95.0544 114.422L94.9992 114.426L95.12 115.921ZM97.76 115.903L97.9616 114.417L97.8562 114.403L97.7499 114.403L97.76 115.903ZM100.4 116.261L100.198 117.748L100.434 117.78L100.667 117.737L100.4 116.261ZM103.04 115.784L103.284 114.304L103.028 114.262L102.773 114.308L103.04 115.784ZM105.68 116.219L105.436 117.699L105.576 117.722L105.719 117.718L105.68 116.219ZM108.32 116.151L108.359 117.65L108.453 117.648L108.546 117.634L108.32 116.151ZM110.96 115.748L111.313 114.29L111.026 114.221L110.734 114.265L110.96 115.748ZM8 116V117.5H8.1V116V114.5H8V116ZM8.1 116L8.16451 117.499L10.7045 117.389L10.64 115.891L10.5755 114.392L8.03549 114.501L8.1 116ZM10.64 115.891L10.483 117.382L13.123 117.66L13.28 116.169L13.437 114.677L10.797 114.399L10.64 115.891ZM13.28 116.169L13.425 117.662L16.065 117.405L15.92 115.912L15.775 114.419L13.135 114.676L13.28 116.169ZM15.92 115.912L15.9804 117.411L18.6204 117.305L18.56 115.806L18.4996 114.307L15.8596 114.413L15.92 115.912ZM18.56 115.806L18.4437 117.301L21.0837 117.507L21.2 116.011L21.3163 114.516L18.6763 114.31L18.56 115.806ZM21.2 116.011L21.1948 117.511L23.8348 117.52L23.84 116.02L23.8452 114.52L21.2052 114.511L21.2 116.011ZM23.84 116.02L23.9474 117.516L26.5874 117.327L26.48 115.831L26.3726 114.334L23.7326 114.524L23.84 116.02ZM26.48 115.831L26.4377 117.33L29.0777 117.404L29.12 115.905L29.1623 114.406L26.5223 114.331L26.48 115.831ZM29.12 115.905L28.9437 117.395L31.5837 117.707L31.76 116.217L31.9363 114.728L29.2963 114.415L29.12 115.905ZM31.76 116.217L32.0032 117.698L34.6432 117.264L34.4 115.784L34.1568 114.303L31.5168 114.737L31.76 116.217ZM34.4 115.784L34.3207 117.282L36.9607 117.421L37.04 115.923L37.1193 114.426L34.4793 114.286L34.4 115.784ZM37.04 115.923L37.1379 117.42L39.7779 117.248L39.68 115.751L39.5821 114.254L36.9421 114.427L37.04 115.923ZM39.68 115.751L39.4983 117.24L42.1383 117.562L42.32 116.073L42.5017 114.584L39.8617 114.262L39.68 115.751ZM42.32 116.073L42.3692 117.572L45.0092 117.486L44.96 115.986L44.9108 114.487L42.2708 114.574L42.32 116.073ZM44.96 115.986L45.0083 117.486L47.6483 117.401L47.6 115.901L47.5517 114.402L44.9117 114.487L44.96 115.986ZM47.6 115.901L47.693 117.398L50.333 117.234L50.24 115.737L50.147 114.24L47.507 114.404L47.6 115.901ZM50.24 115.737L49.9788 117.214L52.6188 117.681L52.88 116.204L53.1412 114.727L50.5012 114.26L50.24 115.737ZM52.88 116.204L53.1393 117.682L55.7793 117.218L55.52 115.741L55.2606 114.263L52.6207 114.727L52.88 116.204ZM55.52 115.741L55.3792 117.234L58.0192 117.483L58.16 115.99L58.3008 114.496L55.6608 114.247L55.52 115.741ZM58.16 115.99L58.2409 117.487L60.8809 117.345L60.8 115.847L60.7191 114.349L58.0791 114.492L58.16 115.99ZM60.8 115.847L60.5874 117.332L63.2274 117.71L63.44 116.225L63.6526 114.74L61.0126 114.362L60.8 115.847ZM63.44 116.225L63.7137 117.7L66.3537 117.21L66.08 115.735L65.8063 114.26L63.1663 114.75L63.44 116.225ZM66.08 115.735L66.0018 117.233L68.6418 117.371L68.72 115.873L68.7982 114.375L66.1582 114.237L66.08 115.735ZM68.72 115.873L68.6878 117.373L71.3278 117.429L71.36 115.93L71.3922 114.43L68.7522 114.373L68.72 115.873ZM71.36 115.93L71.3849 117.429L74.0249 117.386L74 115.886L73.975 114.386L71.335 114.43L71.36 115.93ZM74 115.886L73.815 117.374L76.455 117.702L76.64 116.214L76.825 114.725L74.185 114.397L74 115.886ZM76.64 116.214L76.7765 117.708L79.4165 117.466L79.28 115.973L79.1435 114.479L76.5035 114.72L76.64 116.214ZM79.28 115.973L79.2915 117.473L81.9315 117.452L81.92 115.952L81.9085 114.452L79.2685 114.473L79.28 115.973ZM81.92 115.952L81.7512 117.443L84.3912 117.742L84.56 116.251L84.7288 114.761L82.0888 114.462L81.92 115.952ZM84.56 116.251L84.783 117.735L87.423 117.338L87.2 115.854L86.977 114.371L84.337 114.768L84.56 116.251ZM87.2 115.854L87.1266 117.353L89.7666 117.482L89.84 115.984L89.9134 114.486L87.2734 114.356L87.2 115.854ZM89.84 115.984L89.7545 117.481L92.3945 117.632L92.48 116.135L92.5655 114.637L89.9255 114.486L89.84 115.984ZM92.48 116.135L92.6008 117.63L95.2408 117.416L95.12 115.921L94.9992 114.426L92.3592 114.639L92.48 116.135ZM95.12 115.921L95.1301 117.421L97.7701 117.403L97.76 115.903L97.7499 114.403L95.1099 114.421L95.12 115.921ZM97.76 115.903L97.5584 117.39L100.198 117.748L100.4 116.261L100.602 114.775L97.9616 114.417L97.76 115.903ZM100.4 116.261L100.667 117.737L103.307 117.26L103.04 115.784L102.773 114.308L100.133 114.785L100.4 116.261ZM103.04 115.784L102.796 117.264L105.436 117.699L105.68 116.219L105.924 114.738L103.284 114.304L103.04 115.784ZM105.68 116.219L105.719 117.718L108.359 117.65L108.32 116.151L108.281 114.651L105.641 114.719L105.68 116.219ZM108.32 116.151L108.546 117.634L111.186 117.231L110.96 115.748L110.734 114.265L108.094 114.668L108.32 116.151ZM110.96 115.748L110.607 117.206L111.647 117.458L112 116L112.353 114.542L111.313 114.29L110.96 115.748Z" fill="black"/>
<path d="M115.928 47.2757L116.975 46.2014L116.913 46.1405L116.844 46.0873L115.928 47.2757ZM113.91 45.7216L112.743 46.6634L112.854 46.8016L112.995 46.91L113.91 45.7216ZM112.244 43.6557L113.411 42.7139L113.325 42.6066L113.22 42.5169L112.244 43.6557ZM110.231 41.9298L109.214 43.0326L109.234 43.051L109.254 43.0686L110.231 41.9298ZM108.288 40.1388L107.141 41.1057L107.202 41.1777L107.271 41.2416L108.288 40.1388ZM106.581 38.1138L107.728 37.1469L107.695 37.1082L107.66 37.0718L106.581 38.1138ZM104.747 36.2148L105.826 35.1728L105.789 35.1344L105.749 35.0988L104.747 36.2148ZM102.778 34.4462L101.668 35.4552L101.719 35.5114L101.775 35.5622L102.778 34.4462ZM101.001 32.4919L99.8197 33.4162L99.8539 33.4599L99.8912 33.5009L101.001 32.4919ZM99.3597 30.3941L100.541 29.4698L100.373 29.2551L100.14 29.1132L99.3597 30.3941ZM97.0773 29.0031L96.1806 30.2056L96.2368 30.2475L96.2967 30.284L97.0773 29.0031ZM94.9764 27.4364L95.8732 26.234L95.6998 26.1047L95.4969 26.0296L94.9764 27.4364ZM92.5282 26.5306L91.9364 27.9089L91.9717 27.9241L92.0077 27.9374L92.5282 26.5306ZM90.0982 25.4872L90.69 24.1089L90.6858 24.107L90.0982 25.4872ZM87.6761 24.456L86.8846 25.7301L86.9825 25.791L87.0885 25.8361L87.6761 24.456ZM85.4282 23.0595L84.5477 24.2739L84.5911 24.3054L84.6367 24.3337L85.4282 23.0595ZM83.2769 21.4996L82.0884 22.4148L82.2208 22.5866L82.3964 22.714L83.2769 21.4996ZM81.6398 19.3735L82.8283 18.4583L82.6537 18.2316L82.4079 18.0851L81.6398 19.3735ZM79.3462 18.006L78.4612 19.2171L78.5178 19.2585L78.5781 19.2945L79.3462 18.006ZM77.2349 16.4632L78.1199 15.2521L77.791 15.0117L77.3857 14.9708L77.2349 16.4632ZM74.6941 16.2064L74.8449 14.714L74.6472 14.694L74.451 14.7262L74.6941 16.2064ZM72.0714 16.637L71.8283 15.1569L71.4741 15.215L71.1845 15.4273L72.0714 16.637ZM69.9074 18.2235L70.6104 19.5485L70.7065 19.4975L70.7943 19.4332L69.9074 18.2235ZM67.5847 19.4558L66.8816 18.1308L66.8316 18.1574L66.7836 18.1877L67.5847 19.4558ZM65.3543 20.8648L66.0819 22.1765L66.1192 22.1558L66.1554 22.1329L65.3543 20.8648ZM63.0317 22.153L63.0959 23.6517L63.4497 23.6365L63.7593 23.4648L63.0317 22.153ZM60.4286 22.2646L60.1675 23.7417L60.329 23.7703L60.4928 23.7632L60.4286 22.2646ZM57.8637 21.8111L57.2802 23.193L57.436 23.2588L57.6026 23.2882L57.8637 21.8111ZM55.4311 20.7838L54.7072 22.0975L54.7756 22.1352L54.8475 22.1656L55.4311 20.7838ZM53.0977 19.4981L53.8216 18.1843L53.5833 18.053L53.3139 18.0138L53.0977 19.4981ZM50.4539 19.1131L50.67 17.6287L50.6349 17.6236L50.5995 17.6202L50.4539 19.1131ZM47.8645 18.8605L48.0101 17.3676L47.7538 17.3426L47.5038 17.4045L47.8645 18.8605ZM45.2922 19.4976L44.9316 18.0416L44.6623 18.1083L44.4347 18.2669L45.2922 19.4976ZM43.1158 21.014L42.2583 19.7833L42.2461 19.7918L42.2341 19.8005L43.1158 21.014ZM40.9824 22.564L41.7121 23.8746L41.791 23.8307L41.8641 23.7776L40.9824 22.564ZM38.6528 23.8611L37.9231 22.5506L37.6967 22.6767L37.5257 22.8714L38.6528 23.8611ZM36.8825 25.8772L37.6482 27.1671L37.8528 27.0457L38.0097 26.867L36.8825 25.8772ZM34.5884 27.2391L33.8227 25.9492L33.7539 25.9901L33.6899 26.038L34.5884 27.2391ZM32.4922 28.8073L31.5936 27.6062L31.5887 27.61L32.4922 28.8073ZM30.3568 30.4186L30.8949 31.8188L31.0919 31.7431L31.2603 31.616L30.3568 30.4186ZM27.8652 31.3761L28.0296 32.867L28.2223 32.8458L28.4033 32.7762L27.8652 31.3761ZM25.2024 31.6697L25.038 30.1787L24.8435 30.2001L24.661 30.2708L25.2024 31.6697ZM22.7298 32.6265L22.1885 31.2276L22.128 31.251L22.0698 31.2795L22.7298 32.6265ZM20.3625 33.7865L19.7025 32.4395L19.6346 32.4728L19.5705 32.5127L20.3625 33.7865ZM18.1197 35.181L17.3276 33.9072L17.2456 33.9582L17.1708 34.0193L18.1197 35.181ZM16.0685 36.8564L15.1196 35.6946L15.069 35.7359L15.0222 35.7815L16.0685 36.8564ZM14.1707 38.7036L13.1244 37.6287L13.0343 37.7164L12.96 37.818L14.1707 38.7036ZM12.5987 40.8526L13.6068 41.9633L13.7195 41.861L13.8093 41.7382L12.5987 40.8526ZM10.6403 42.6302L9.63213 41.5195L9.5683 41.5775L9.51153 41.6423L10.6403 42.6302ZM8.89496 44.6244L9.80016 45.8205L9.92259 45.7278L10.0237 45.6123L8.89496 44.6244ZM6.77549 46.2284L5.87029 45.0324L5.78579 45.0963L5.71113 45.1715L6.77549 46.2284ZM5.00796 48.0084L3.91992 49.0409L4.98356 50.1617L6.07232 49.0653L5.00796 48.0084ZM116 47.3455L117.047 46.2712L116.975 46.2014L115.928 47.2757L114.882 48.35L114.953 48.4198L116 47.3455ZM115.928 47.2757L116.844 46.0873L114.825 44.5331L113.91 45.7216L112.995 46.91L115.013 48.4642L115.928 47.2757ZM113.91 45.7216L115.078 44.7797L113.411 42.7139L112.244 43.6557L111.076 44.5975L112.743 46.6634L113.91 45.7216ZM112.244 43.6557L113.22 42.5169L111.207 40.791L110.231 41.9298L109.254 43.0686L111.267 44.7945L112.244 43.6557ZM110.231 41.9298L111.247 40.8271L109.305 39.0361L108.288 40.1388L107.271 41.2416L109.214 43.0326L110.231 41.9298ZM108.288 40.1388L109.435 39.1719L107.728 37.1469L106.581 38.1138L105.434 39.0807L107.141 41.1057L108.288 40.1388ZM106.581 38.1138L107.66 37.0718L105.826 35.1728L104.747 36.2148L103.668 37.2568L105.502 39.1558L106.581 38.1138ZM104.747 36.2148L105.749 35.0988L103.78 33.3302L102.778 34.4462L101.775 35.5622L103.745 37.3308L104.747 36.2148ZM102.778 34.4462L103.888 33.4372L102.111 31.4829L101.001 32.4919L99.8912 33.5009L101.668 35.4552L102.778 34.4462ZM101.001 32.4919L102.182 31.5676L100.541 29.4698L99.3597 30.3941L98.1784 31.3184L99.8197 33.4162L101.001 32.4919ZM99.3597 30.3941L100.14 29.1132L97.8579 27.7222L97.0773 29.0031L96.2967 30.284L98.5791 31.675L99.3597 30.3941ZM97.0773 29.0031L97.974 27.8007L95.8732 26.234L94.9764 27.4364L94.0797 28.6389L96.1806 30.2056L97.0773 29.0031ZM94.9764 27.4364L95.4969 26.0296L93.0487 25.1238L92.5282 26.5306L92.0077 27.9374L94.4559 28.8432L94.9764 27.4364ZM92.5282 26.5306L93.12 25.1523L90.69 24.1089L90.0982 25.4872L89.5063 26.8655L91.9364 27.9089L92.5282 26.5306ZM90.0982 25.4872L90.6858 24.107L88.2637 23.0759L87.6761 24.456L87.0885 25.8361L89.5106 26.8673L90.0982 25.4872ZM87.6761 24.456L88.4676 23.1818L86.2197 21.7854L85.4282 23.0595L84.6367 24.3337L86.8846 25.7301L87.6761 24.456ZM85.4282 23.0595L86.3087 21.8452L84.1575 20.2853L83.2769 21.4996L82.3964 22.714L84.5477 24.2739L85.4282 23.0595ZM83.2769 21.4996L84.4654 20.5845L82.8283 18.4583L81.6398 19.3735L80.4513 20.2886L82.0884 22.4148L83.2769 21.4996ZM81.6398 19.3735L82.4079 18.0851L80.1143 16.7176L79.3462 18.006L78.5781 19.2945L80.8717 20.6619L81.6398 19.3735ZM79.3462 18.006L80.2312 16.795L78.1199 15.2521L77.2349 16.4632L76.3498 17.6743L78.4612 19.2171L79.3462 18.006ZM77.2349 16.4632L77.3857 14.9708L74.8449 14.714L74.6941 16.2064L74.5433 17.6988L77.084 17.9556L77.2349 16.4632ZM74.6941 16.2064L74.451 14.7262L71.8283 15.1569L72.0714 16.637L72.3144 18.1172L74.9371 17.6866L74.6941 16.2064ZM72.0714 16.637L71.1845 15.4273L69.0205 17.0137L69.9074 18.2235L70.7943 19.4332L72.9582 17.8468L72.0714 16.637ZM69.9074 18.2235L69.2043 16.8984L66.8816 18.1308L67.5847 19.4558L68.2877 20.7809L70.6104 19.5485L69.9074 18.2235ZM67.5847 19.4558L66.7836 18.1877L64.5532 19.5966L65.3543 20.8648L66.1554 22.1329L68.3858 20.724L67.5847 19.4558ZM65.3543 20.8648L64.6267 19.553L62.3041 20.8413L63.0317 22.153L63.7593 23.4648L66.0819 22.1765L65.3543 20.8648ZM63.0317 22.153L62.9675 20.6544L60.3644 20.766L60.4286 22.2646L60.4928 23.7632L63.0959 23.6517L63.0317 22.153ZM60.4286 22.2646L60.6898 20.7875L58.1249 20.3341L57.8637 21.8111L57.6026 23.2882L60.1675 23.7417L60.4286 22.2646ZM57.8637 21.8111L58.4473 20.4293L56.0146 19.402L55.4311 20.7838L54.8475 22.1656L57.2802 23.193L57.8637 21.8111ZM55.4311 20.7838L56.1549 19.47L53.8216 18.1843L53.0977 19.4981L52.3739 20.8119L54.7072 22.0975L55.4311 20.7838ZM53.0977 19.4981L53.3139 18.0138L50.67 17.6287L50.4539 19.1131L50.2377 20.5974L52.8816 20.9825L53.0977 19.4981ZM50.4539 19.1131L50.5995 17.6202L48.0101 17.3676L47.8645 18.8605L47.7188 20.3534L50.3083 20.606L50.4539 19.1131ZM47.8645 18.8605L47.5038 17.4045L44.9316 18.0416L45.2922 19.4976L45.6528 20.9536L48.2251 20.3165L47.8645 18.8605ZM45.2922 19.4976L44.4347 18.2669L42.2583 19.7833L43.1158 21.014L43.9733 22.2447L46.1497 20.7283L45.2922 19.4976ZM43.1158 21.014L42.2341 19.8005L40.1007 21.3505L40.9824 22.564L41.8641 23.7776L43.9975 22.2275L43.1158 21.014ZM40.9824 22.564L40.2527 21.2535L37.9231 22.5506L38.6528 23.8611L39.3825 25.1717L41.7121 23.8746L40.9824 22.564ZM38.6528 23.8611L37.5257 22.8714L35.7554 24.8875L36.8825 25.8772L38.0097 26.867L39.78 24.8508L38.6528 23.8611ZM36.8825 25.8772L36.1169 24.5874L33.8227 25.9492L34.5884 27.2391L35.3541 28.5289L37.6482 27.1671L36.8825 25.8772ZM34.5884 27.2391L33.6899 26.038L31.5936 27.6063L32.4922 28.8073L33.3907 30.0084L35.487 28.4402L34.5884 27.2391ZM32.4922 28.8073L31.5887 27.61L29.4533 29.2213L30.3568 30.4186L31.2603 31.616L33.3957 30.0047L32.4922 28.8073ZM30.3568 30.4186L29.8188 29.0184L27.3272 29.9759L27.8652 31.3761L28.4033 32.7762L30.8949 31.8188L30.3568 30.4186ZM27.8652 31.3761L27.7008 29.8851L25.038 30.1787L25.2024 31.6697L25.3668 33.1606L28.0296 32.867L27.8652 31.3761ZM25.2024 31.6697L24.661 30.2708L22.1885 31.2276L22.7298 32.6265L23.2712 34.0254L25.7438 33.0686L25.2024 31.6697ZM22.7298 32.6265L22.0698 31.2795L19.7025 32.4395L20.3625 33.7865L21.0225 35.1335L23.3899 33.9735L22.7298 32.6265ZM20.3625 33.7865L19.5705 32.5127L17.3276 33.9072L18.1197 35.181L18.9117 36.4549L21.1545 35.0604L20.3625 33.7865ZM18.1197 35.181L17.1708 34.0193L15.1196 35.6946L16.0685 36.8564L17.0173 38.0181L19.0685 36.3428L18.1197 35.181ZM16.0685 36.8564L15.0222 35.7815L13.1244 37.6287L14.1707 38.7036L15.2169 39.7785L17.1147 37.9313L16.0685 36.8564ZM14.1707 38.7036L12.96 37.818L11.388 39.967L12.5987 40.8526L13.8093 41.7382L15.3814 39.5892L14.1707 38.7036ZM12.5987 40.8526L11.5905 39.7419L9.63213 41.5195L10.6403 42.6302L11.6484 43.7409L13.6068 41.9633L12.5987 40.8526ZM10.6403 42.6302L9.51153 41.6423L7.7662 43.6365L8.89496 44.6244L10.0237 45.6123L11.769 43.6181L10.6403 42.6302ZM8.89496 44.6244L7.98975 43.4283L5.87029 45.0324L6.77549 46.2284L7.68069 47.4245L9.80016 45.8205L8.89496 44.6244ZM6.77549 46.2284L5.71113 45.1715L3.94359 46.9514L5.00796 48.0084L6.07232 49.0653L7.83986 47.2854L6.77549 46.2284ZM5.00796 48.0084L6.09599 46.9758L6.08804 46.9674L5 48L3.91196 49.0326L3.91992 49.0409L5.00796 48.0084Z" fill="black"/>
</svg>
