<svg xmlns="http://www.w3.org/2000/svg" width="120" height="120" fill="none" viewBox="0 0 120 120"><path fill="#000" d="m94.313 50.846.152 2.531.012.14-.024.153-.351 2.602-.012.093-.024.094-.691 2.52v.011l-.012.012-.726 2.531-.035.118-.047.105-1.114 2.39-.058.106-.059.094-1.465 2.203-.011.024-.024.023-1.547 2.144-.07.094-.082.082-1.852 1.875-1.851 1.864-.094.093-.105.07-2.157 1.512-.035.035-.047.024-2.261 1.36h-.012l-2.285 1.347-.176.105-.187.06-2.485.679-2.496.832-.012-.012-2.472.867-.07.024-2.848.843-.328-.046-2.52-.364.164-1.219-.047-.246-.316-1.464.094-.024.27-.058.269.035 2.191.316 2.227-.644 2.425-.856h.024l2.531-.844.047-.011 2.355-.657 2.11-1.242 2.191-1.312 2.004-1.407 1.781-1.78 1.782-1.817 1.464-2.016 1.348-2.039 1.031-2.203.715-2.426.633-2.343.34-2.426-.059-.797-.55.058-2.415.668-1.992.657-1.347 1.78-.165.223-.246.153-2.097 1.277-1.817 1.817-.046.035-1.899 1.605-1.5 1.98-.129.165-.152.117-2.098 1.617-.07.047-.059.047-1.066.656-.75-1.219-.035.012-1.5.082v-.07l-.047-.89.761-.47.961-.609 1.91-1.465 1.5-1.945.094-.129.13-.094 2.003-1.722 1.793-1.782.117-.128.153-.094 2.027-1.254 1.453-1.91.281-.375.446-.153 2.437-.808.07-.024 2.579-.703.105-.035.117-.012 2.285-.258 1.57-.175zm6.972 22.091.445 2.016.094.41-.14.399-.844 2.484-.024.047-.011.035-1.008 2.461-.082.223-.153.175-1.664 1.97-1.464 2.144-.094.117-.106.105-1.828 1.735-1.758 2.004-.187.21-.258.13-2.238 1.136-2.004 1.547-.059.059-.07.035-2.25 1.383-.047.023-2.285 1.3-.047.024-2.332 1.243-.035.023-.047.012-2.402 1.101-.13.047-.116.035-2.356.598-2.156 1.265-.223.13-.246.046-2.496.481.012.012-2.414.691-2.25 1.16-.328.164h-.364l-2.754-.023-.445-.012-.375-.246-1.3-.867.667-1.008-1.347-.024.011-.27.082-2.706 1.676 1.125 1.477-1.629 1.36-2.133.01-.012 1.442-2.214.035-.059.047-.059 1.64-2.074.06-.07.07-.07 1.816-1.77 1.5-2.016.059-.07.058-.058 1.793-1.946.035-.035.036-.023 1.921-1.817v-.012l1.934-1.816.106-.082.105-.07 2.227-1.453 2.215-1.442.058-.035.07-.035 2.332-1.207 2.332-1.23.024-.012h.012l2.39-1.172.13-.059.14-.035 2.554-.703.118-.024 2.613-.492.058-.011.082-.012 2.625-.246h.083l2.66-.117 1.254-.059zm-3.996 1.922.012.012-2.614.234-2.39.457-2.45.668-2.214 1.102-.012-.012-2.285 1.219h-.012l-2.332 1.219-.011-.012-2.087 1.371L78.75 82.5l-1.805 1.7-1.91 1.827-1.687 1.805-1.512 2.063-.07.093-.094.094-1.875 1.805-1.5 1.898-1.395 2.168-.011-.012-1.407 2.227-.07.105-.082.094-.68.738h.305l2.086-1.054.129-.059.129-.035 2.543-.738.058-.024.07-.011 2.333-.47 2.12-1.23.188-.105.2-.059 2.425-.62 2.309-1.044 2.25-1.195 2.215-1.266 2.203-1.36 2.004-1.534.105-.082.13-.07 2.144-1.102 1.57-1.77.035-.047.047-.035 1.793-1.746 1.43-2.027.035-.059.047-.058 1.547-1.875.89-2.157.715-2.086-.082-.375z"/><path fill="#000" d="m22.555 73.402.129.246.035.27.293 2.238 1.148 2.039 1.406 2.015h.012l1.547 2.133.012.012.011.023 1.383 2.016 1.864 1.547 2.05 1.664 1.934 1.406 2.285 1.324.047.024.035.035 2.168 1.453 2.203 1.172h.012l2.25 1.183 2.39.915 2.438.726.059.012.047.023 2.46.938h-.011l2.425.832 2.415.761 2.308.387 1.711-.012.012 1.243 1.254-.61 1.16 2.321-2.379.047-1.828.023h-.14l-.141-.023-2.567-.434-.105-.012-.094-.035-2.508-.797h-.023l-.012-.012-2.496-.855-.023-.012h-.024l-2.355-.914-2.532-.738-.117-.047-2.473-.95-.07-.034-.082-.035-2.344-1.23h-.011l-2.32-1.243-.071-.047-.059-.035-2.109-1.418-2.285-1.324-.07-.035-.059-.047-2.133-1.547-.07-.047-2.04-1.664h-.01v-.012l-2.052-1.687-.152-.13-.129-.175-1.5-2.203v-.012l-1.512-2.074-.023-.024-1.512-2.168-.035-.058-.035-.07-1.3-2.309-.142-.258-.035-.281-.328-2.508 1.207-.152.235-.13 1.324-.702z"/><path fill="#000" d="m21.537 72.092 2.672.21-.012.012 2.625.164.07.012.083.012 2.59.445.093.023 2.555.622.07.011.07.024 2.438.844h.012l2.52.82.093.023.094.047 2.379 1.16.117.059.094.07 2.156 1.524.023.023.024.012L44.4 79.79l.07.058.06.059 1.85 1.746 2.017 1.7.07.046.047.059 1.84 1.886.011.024.012.012 1.723 1.898 1.886 1.852.117.117.094.14 1.418 2.192 1.547 1.992h.012l1.652 2.074.07.094 1.313 1.957 1.605 1.055.176.129.14.164.06.07-1.137.973-.281.222-.61.95-1.863-1.231-.246-.164-.176-.246-1.477-2.203h-.011l-1.559-1.969-.012-.012-1.617-2.086-.035-.047-.035-.058-1.371-2.086-1.77-1.746-.023-.024-.024-.035-1.78-1.945v-.012l-1.77-1.816-1.934-1.617-.07-.07-1.793-1.7-2.11-1.594v-.011l-2.062-1.442-2.192-1.066-2.355-.75-.012-.012h-.012l-2.472-.855-2.332-.551-2.485-.445-2.578-.176h-.011l-2.461-.188-.973.223-.656-2.93 1.218-.27.211-.046zm7.516-21.224.187-.024 1.477-.257.023.093.059.352-.106.34-.609 2.062.516 2.215.761 2.344h.012l.867 2.484v.012l.012.024.738 2.273 1.383 1.98 1.5 2.004 1.652 1.84 1.98 1.594.036.035 1.934 1.64 2.062 1.301 2.191 1.207 2.32.809 2.485.54.07.01.06.024 2.402.75 2.413.54 2.462.093.269.012.234.093 2.473.997.129.058.129.082.703.469-.832 1.242-.82 1.254-.575-.375-2.097-.844-2.32-.082h-.13l-.14-.035-2.555-.574-.058-.012-.059-.023-2.45-.762-2.53-.55-.094-.012-.082-.036-2.496-.867-.117-.047-.118-.058-2.32-1.278-.07-.047-2.239-1.406-.093-.058-.082-.07-2.004-1.7v-.011l-2.016-1.618-.094-.07-.082-.094-1.758-1.945-.046-.059-1.618-2.156-.023-.012-.012-.023-1.523-2.168-.13-.188-.07-.21-.808-2.497-.879-2.484v-.012l-.012-.011-.82-2.52-.023-.058-.012-.07-.598-2.59-.082-.387.106-.375.726-2.45zm8.689-24.958.2.047 1.464.352-.023.093-.082.34-.223.27-1.36 1.64-.468 2.122-.21 2.578-.188 2.601v.082l-.305 2.45.27 2.472.011.024v.035l.188 2.566.28 2.59.517 2.484.023.188.2 2.531.48 1.723 1.687 1.36 2.063 1.651 2.062 1.665.07.058.059.059 1.852 1.898.035.035 1.617 1.793 2.625 1.594-.316 1.102-.036.093-1.43-.422-.035-.011-.714 1.207-1.828-1.102-.188-.117-.14-.164-1.782-1.957v-.012l-1.746-1.781-1.992-1.605-2.05-1.641-2.063-1.664-.375-.293-.13-.469-.656-2.379-.046-.129-.012-.152-.211-2.637-.492-2.414-.012-.058-.012-.07-.293-2.614v-.059l-.199-2.636.012-.012-.293-2.566-.024-.176.024-.164.316-2.567.176-2.625v-.011l.012-.012.222-2.625v-.106l.024-.093.574-2.602.07-.363.235-.281 1.582-1.922zm46.018-.65 2.168.762.761.27.797 3.386.024.058v.07l.398 2.602.024.188.058 2.59.14 2.613.2 2.637.012.093v.094l-.13 2.649v.047l-.01.046-.294 2.637v.059l-.011.058-.504 2.567-.457 2.601-.211 1.746-1.254-.164.527 1.29-.21.081-2.345.938.305-2.52.223-1.816v-.035l.011-.047.47-2.59v-.023l.491-2.602.27-2.414.117-2.543-.187-2.566v-.035l-.141-2.637v-.035l-.07-2.508-.364-2.438-.433-1.804-.293-.106-.844 1.242-.07.094-1.418 1.77-.551 2.214-.082.305-.187.246-1.606 2.063-1.523 2.12-1.512 2.169v.011l-.012.012-1.547 2.133-.117.176-.164.129-1.957 1.535-.668-.832-.328-.27-1.16-.949.058-.07.106-.13.129-.105 1.793-1.418 1.418-1.957 1.511-2.144.012-.012 1.535-2.144.035-.035 1.43-1.876.563-2.214.07-.317.21-.258 1.618-2.027 1.441-2.098.645-.949z"/><path fill="#000" d="m62.662 29.116 1.781 1.945 1.852 1.875.117.14 1.559 2.051.035.035.023.035 1.489 2.192.117.176.07.199.75 2.332 1.406 2.004.13.187.07.2.796 2.437.012.035.012.047 1.36 5.11.034.117.012.117.258 2.637.012.14-.012.14-.223 2.462.387 2.484.047.328-.094.328-.715 2.38-.07 2.495v.106l-.246 2.414-.035.293-.14.258-1.243 2.332-.07.129-.106.129-1.617 1.91-1.055 2.215-.093.175-.13.153-1.722 1.992-1.418 1.992-.059.082-.07.082-1.758 1.852-.093.105-.106.07-1.441 1.067.28 1.793.013.105v.106l.047 2.636v.106l-.012.117-.317 2.438.188 2.53.011.106-.011.094-.152 2.648.093 2.497v.035l.024 2.625.023 1.02-3 .046-.023-1.02v-.011l-.024-2.59-.093-2.637v-.152l.152-2.52-.2-2.554-.011-.153.023-.152.317-2.531-.035-2.484-.387-2.52-.14-.902.726-.54 2.074-1.558 1.559-1.652 1.464-2.04.047-.046.047-.059 1.582-1.84 1.067-2.203.082-.164.129-.152 1.617-1.934 1.031-1.933.211-2.004.082-2.696.012-.187.058-.188.657-2.238-.352-2.332-.035-.176.023-.187.223-2.52-.234-2.32-.645-2.473-.656-2.472-.727-2.215-1.394-2.004-.13-.176-.07-.21-.761-2.333-1.383-2.039v-.012l-1.442-1.886-1.804-1.829-.012-.023-.023-.012-1.043-1.136-.926.468-1.336 1.84-.106.14-.14.118L56.86 36.1l-1.207 2.05-1.277 2.31-.024.046-1.277 2.11-1.031 2.203-.445 2.343-.012.012-.516 2.578-.012.012-.515 2.496-.258 2.555-.2 2.437.294 2.52.304 2.601v.047l.012.059.094 2.12 1.242 1.864.07.117.06.13.984 2.331 1.148 2.215 1.453 1.84L57.6 74.97l.164.176.105.21 1.137 2.297-.598.282-.691.468-1.254.82-.059-.093-.047-.07-.035-.082-1.031-2.063-1.676-1.71-.117-.118-1.64-2.086-.083-.105-.058-.13-1.23-2.331-.036-.059-.023-.058-.996-2.332-1.36-2.086-.234-.34-.012-.41-.129-2.532-.293-2.496-.316-2.636-.012-.153.012-.14.21-2.649v-.012l.012-.023.258-2.625.012-.07.012-.082.539-2.578.527-2.567h-.011l.503-2.531.035-.188.07-.164 1.09-2.355.036-.07.047-.07 1.36-2.25 1.253-2.263.012-.011v-.012l1.347-2.297.13-.223.198-.175 1.922-1.63 1.453-1.956.212-.281.304-.153 2.25-1.16 1.02-.527z"/><path fill="#000" d="m40.807 27.332.035.059.047.059 1.43 2.18 1.429 2.05.07.105.059.118 1.09 2.32 1.207 2.121 1.617 1.887 1.7 2.015 1.605 1.676.433.281-.797 1.266-.797 1.277-.574-.363-.164-.094-.129-.14-1.816-1.899-.024-.035-.035-.035-1.699-2.016-1.71-2.004-.083-.105-.07-.129-1.313-2.309-.035-.046-.023-.047-1.067-2.262-1.336-1.91-.011-.024-.012-.011-1.453-2.215h-.012l-1.43-1.805-.058-.059-.035-.07-.059-.082 1.266-.808.797-.504.433-.352zm21.773-9.07 1.863 1.816.082.082.07.094 1.583 2.121.011.012 1.512 2.097 1.582 2.028.914.96.715.75-.445.926v.012l-1.36-.644-.011-.012-1.067 1.031-.972-1.02-.059-.058-.035-.047-1.629-2.074-.023-.047-1.559-2.133v-.011l-1.488-2.004-1.172-1.137-.973.27-1.383 1.546-1.23 2.168-.035.059-.035.047-1.5 2.168-.118.175-.164.141-1.98 1.606-.574-.715-.434-.375-1.125-.985.059-.082.082-.093.105-.082 1.816-1.489 1.36-1.968 1.254-2.204.082-.128.105-.118 1.77-1.98.281-.328.434-.117 2.238-.633.832-.235z"/><path fill="#000" d="m75.326 20.773 1.711 2.039.07.082.059.094 1.383 2.262.023.035.012.035 1.266 2.332.07.14.867 2.122.094.082-.047.035.082.175-.387.153-.68.726-1.03 1.09-.317-.304-.234-.223-.13-.293-.984-2.379-1.207-2.226v-.012l-1.265-2.063-.621-.738-.47.457-1.347 1.922-1.219 2.121-.703 2.344-.011.012v.011l-.82 2.52-.083.258-.176.21-1.605 1.993-.797-.657-.41-.199-1.336-.668.035-.094.082-.14.094-.13 1.43-1.769.738-2.25.75-2.484.047-.164.082-.14 1.289-2.262.035-.059.047-.059 1.523-2.168.082-.117.094-.094 1.723-1.663 1.16-1.125zm-26.803.082 1.946 1.136.422.246.199.446.984 2.25 1.465 2.074.105.152.07.176.903 2.367 1.114 2.332 1.113 2.098.011.012v.011l.047.094-2.672 1.36-.035-.06-1.148-2.167-.012-.035-.023-.035-1.125-2.391-.024-.047-.023-.059-.867-2.238-1.407-1.992-.093-.117-.059-.14-.879-1.993-.422-.246-.75.902-1.207 2.04-1.031 2.413-.059.117-.07.106-1.43 2.215-.152.234-.234.176-.176.117-.867-1.219-.305-.445-.785-.492 1.36-2.121.984-2.285.047-.094.046-.082 1.336-2.262.059-.105.07-.082 1.664-2.016.809-.996zM29.898 49.13l.047.011.035.012 2.262.879 2.344.855 1.945.293.996.14.235.985.023.117-1.453.34h-.047l-.2 1.383-2.132-.316-.152-.024-.14-.058-2.462-.914h-.012l-2.261-.88h-.035l.914-2.859z"/></svg>